<svg xmlns="http://www.w3.org/2000/svg" xmlns:rdkit="http://www.rdkit.org/xml" xmlns:xlink="http://www.w3.org/1999/xlink" version="1.1" baseProfile="full" xml:space="preserve" width="1200px" height="1200px" viewBox="0 0 1200 1200">
<!-- END OF HEADER -->
<rect style="opacity:1.0;fill:#FFFFFF;stroke:none" width="1200.0" height="1200.0" x="0.0" y="0.0"> </rect>
<path class="bond-0 atom-0 atom-1" d="M 82.0,256.4 L 136.8,229.1" style="fill:none;fill-rule:evenodd;stroke:#191919;stroke-width:2.0px;stroke-linecap:butt;stroke-linejoin:miter;stroke-opacity:1"/>
<path class="bond-0 atom-0 atom-1" d="M 136.8,229.1 L 191.5,201.8" style="fill:none;fill-rule:evenodd;stroke:#0000FF;stroke-width:2.0px;stroke-linecap:butt;stroke-linejoin:miter;stroke-opacity:1"/>
<path class="bond-1 atom-1 atom-2" d="M 223.1,204.3 L 279.1,241.3" style="fill:none;fill-rule:evenodd;stroke:#0000FF;stroke-width:2.0px;stroke-linecap:butt;stroke-linejoin:miter;stroke-opacity:1"/>
<path class="bond-1 atom-1 atom-2" d="M 279.1,241.3 L 335.1,278.4" style="fill:none;fill-rule:evenodd;stroke:#000000;stroke-width:2.0px;stroke-linecap:butt;stroke-linejoin:miter;stroke-opacity:1"/>
<path class="bond-2 atom-2 atom-3" d="M 335.1,278.4 L 472.2,209.9" style="fill:none;fill-rule:evenodd;stroke:#000000;stroke-width:2.0px;stroke-linecap:butt;stroke-linejoin:miter;stroke-opacity:1"/>
<path class="bond-3 atom-3 atom-4" d="M 472.2,209.9 L 600.0,294.4" style="fill:none;fill-rule:evenodd;stroke:#000000;stroke-width:2.0px;stroke-linecap:butt;stroke-linejoin:miter;stroke-opacity:1"/>
<path class="bond-4 atom-4 atom-5" d="M 600.0,294.4 L 737.1,226.0" style="fill:none;fill-rule:evenodd;stroke:#000000;stroke-width:2.0px;stroke-linecap:butt;stroke-linejoin:miter;stroke-opacity:1"/>
<path class="bond-5 atom-5 atom-6" d="M 737.1,226.0 L 864.9,310.5" style="fill:none;fill-rule:evenodd;stroke:#000000;stroke-width:2.0px;stroke-linecap:butt;stroke-linejoin:miter;stroke-opacity:1"/>
<path class="bond-6 atom-6 atom-7" d="M 864.9,310.5 L 1001.9,242.1" style="fill:none;fill-rule:evenodd;stroke:#000000;stroke-width:2.0px;stroke-linecap:butt;stroke-linejoin:miter;stroke-opacity:1"/>
<path class="bond-7 atom-7 atom-8" d="M 1001.9,242.1 L 1060.0,280.5" style="fill:none;fill-rule:evenodd;stroke:#000000;stroke-width:2.0px;stroke-linecap:butt;stroke-linejoin:miter;stroke-opacity:1"/>
<path class="bond-7 atom-7 atom-8" d="M 1060.0,280.5 L 1118.0,318.8" style="fill:none;fill-rule:evenodd;stroke:#191919;stroke-width:2.0px;stroke-linecap:butt;stroke-linejoin:miter;stroke-opacity:1"/>
<path class="bond-8 atom-7 atom-9" d="M 1013.0,249.4 L 1017.2,179.5" style="fill:none;fill-rule:evenodd;stroke:#000000;stroke-width:2.0px;stroke-linecap:butt;stroke-linejoin:miter;stroke-opacity:1"/>
<path class="bond-8 atom-7 atom-9" d="M 1017.2,179.5 L 1021.5,109.7" style="fill:none;fill-rule:evenodd;stroke:#FF0000;stroke-width:2.0px;stroke-linecap:butt;stroke-linejoin:miter;stroke-opacity:1"/>
<path class="bond-8 atom-7 atom-9" d="M 990.1,248.0 L 994.3,178.2" style="fill:none;fill-rule:evenodd;stroke:#000000;stroke-width:2.0px;stroke-linecap:butt;stroke-linejoin:miter;stroke-opacity:1"/>
<path class="bond-8 atom-7 atom-9" d="M 994.3,178.2 L 998.6,108.3" style="fill:none;fill-rule:evenodd;stroke:#FF0000;stroke-width:2.0px;stroke-linecap:butt;stroke-linejoin:miter;stroke-opacity:1"/>
<path d="M 332.3,276.5 L 335.1,278.4 L 342.0,274.9" style="fill:none;stroke:#000000;stroke-width:2.0px;stroke-linecap:butt;stroke-linejoin:miter;stroke-opacity:1;"/>
<path d="M 465.4,213.4 L 472.2,209.9 L 478.6,214.2" style="fill:none;stroke:#000000;stroke-width:2.0px;stroke-linecap:butt;stroke-linejoin:miter;stroke-opacity:1;"/>
<path d="M 593.6,290.2 L 600.0,294.4 L 606.9,291.0" style="fill:none;stroke:#000000;stroke-width:2.0px;stroke-linecap:butt;stroke-linejoin:miter;stroke-opacity:1;"/>
<path d="M 730.2,229.4 L 737.1,226.0 L 743.5,230.2" style="fill:none;stroke:#000000;stroke-width:2.0px;stroke-linecap:butt;stroke-linejoin:miter;stroke-opacity:1;"/>
<path d="M 858.5,306.3 L 864.9,310.5 L 871.7,307.1" style="fill:none;stroke:#000000;stroke-width:2.0px;stroke-linecap:butt;stroke-linejoin:miter;stroke-opacity:1;"/>
<path d="M 995.1,245.5 L 1001.9,242.1 L 1004.8,244.0" style="fill:none;stroke:#000000;stroke-width:2.0px;stroke-linecap:butt;stroke-linejoin:miter;stroke-opacity:1;"/>
<path class="atom-0" d="M 64.9 259.1 L 69.1 254.9 L 63.6 253.8 L 64.4 250.9 L 69.5 253.5 L 68.8 247.9 L 71.8 247.9 L 70.9 253.5 L 76.1 251.1 L 77.0 253.8 L 71.4 254.8 L 75.4 259.1 L 72.9 260.9 L 70.2 255.6 L 67.4 260.9 L 64.9 259.1 " fill="#191919"/>
<path class="atom-1" d="M 201.1 179.7 L 210.4 194.7 Q 211.3 196.2, 212.8 198.9 Q 214.2 201.5, 214.3 201.7 L 214.3 179.7 L 218.1 179.7 L 218.1 208.0 L 214.2 208.0 L 204.2 191.6 Q 203.1 189.7, 201.8 187.5 Q 200.6 185.3, 200.3 184.6 L 200.3 208.0 L 196.6 208.0 L 196.6 179.7 L 201.1 179.7 " fill="#0000FF"/>
<path class="atom-1" d="M 196.3 148.6 L 200.1 148.6 L 200.1 160.6 L 214.6 160.6 L 214.6 148.6 L 218.4 148.6 L 218.4 176.9 L 214.6 176.9 L 214.6 163.8 L 200.1 163.8 L 200.1 176.9 L 196.3 176.9 L 196.3 148.6 " fill="#0000FF"/>
<path class="atom-8" d="M 1124.4 323.4 L 1128.6 319.2 L 1123.0 318.1 L 1123.9 315.2 L 1129.0 317.8 L 1128.2 312.2 L 1131.2 312.2 L 1130.4 317.7 L 1135.6 315.3 L 1136.4 318.1 L 1130.8 319.1 L 1134.8 323.4 L 1132.4 325.1 L 1129.6 319.9 L 1126.8 325.1 L 1124.4 323.4 " fill="#191919"/>
<path class="atom-9" d="M 998.2 89.3 Q 998.2 82.5, 1001.6 78.7 Q 1004.9 74.9, 1011.2 74.9 Q 1017.5 74.9, 1020.9 78.7 Q 1024.2 82.5, 1024.2 89.3 Q 1024.2 96.1, 1020.8 100.1 Q 1017.4 103.9, 1011.2 103.9 Q 1005.0 103.9, 1001.6 100.1 Q 998.2 96.2, 998.2 89.3 M 1011.2 100.7 Q 1015.5 100.7, 1017.9 97.9 Q 1020.2 94.9, 1020.2 89.3 Q 1020.2 83.7, 1017.9 80.9 Q 1015.5 78.1, 1011.2 78.1 Q 1006.9 78.1, 1004.5 80.9 Q 1002.2 83.7, 1002.2 89.3 Q 1002.2 95.0, 1004.5 97.9 Q 1006.9 100.7, 1011.2 100.7 " fill="#FF0000"/>
<path class="bond-0 atom-0 atom-1" d="M 82.0,656.4 L 135.7,629.7" style="fill:none;fill-rule:evenodd;stroke:#191919;stroke-width:2.0px;stroke-linecap:butt;stroke-linejoin:miter;stroke-opacity:1"/>
<path class="bond-0 atom-0 atom-1" d="M 135.7,629.7 L 189.3,602.9" style="fill:none;fill-rule:evenodd;stroke:#FF0000;stroke-width:2.0px;stroke-linecap:butt;stroke-linejoin:miter;stroke-opacity:1"/>
<path class="bond-1 atom-1 atom-2" d="M 225.4,605.8 L 280.3,642.1" style="fill:none;fill-rule:evenodd;stroke:#FF0000;stroke-width:2.0px;stroke-linecap:butt;stroke-linejoin:miter;stroke-opacity:1"/>
<path class="bond-1 atom-1 atom-2" d="M 280.3,642.1 L 335.1,678.4" style="fill:none;fill-rule:evenodd;stroke:#000000;stroke-width:2.0px;stroke-linecap:butt;stroke-linejoin:miter;stroke-opacity:1"/>
<path class="bond-2 atom-2 atom-3" d="M 335.1,678.4 L 472.2,609.9" style="fill:none;fill-rule:evenodd;stroke:#000000;stroke-width:2.0px;stroke-linecap:butt;stroke-linejoin:miter;stroke-opacity:1"/>
<path class="bond-3 atom-3 atom-4" d="M 472.2,609.9 L 600.0,694.4" style="fill:none;fill-rule:evenodd;stroke:#000000;stroke-width:2.0px;stroke-linecap:butt;stroke-linejoin:miter;stroke-opacity:1"/>
<path class="bond-4 atom-4 atom-5" d="M 600.0,694.4 L 737.1,626.0" style="fill:none;fill-rule:evenodd;stroke:#000000;stroke-width:2.0px;stroke-linecap:butt;stroke-linejoin:miter;stroke-opacity:1"/>
<path class="bond-5 atom-5 atom-6" d="M 737.1,626.0 L 864.9,710.5" style="fill:none;fill-rule:evenodd;stroke:#000000;stroke-width:2.0px;stroke-linecap:butt;stroke-linejoin:miter;stroke-opacity:1"/>
<path class="bond-6 atom-6 atom-7" d="M 864.9,710.5 L 1001.9,642.1" style="fill:none;fill-rule:evenodd;stroke:#000000;stroke-width:2.0px;stroke-linecap:butt;stroke-linejoin:miter;stroke-opacity:1"/>
<path class="bond-7 atom-7 atom-8" d="M 1001.9,642.1 L 1060.0,680.5" style="fill:none;fill-rule:evenodd;stroke:#000000;stroke-width:2.0px;stroke-linecap:butt;stroke-linejoin:miter;stroke-opacity:1"/>
<path class="bond-7 atom-7 atom-8" d="M 1060.0,680.5 L 1118.0,718.8" style="fill:none;fill-rule:evenodd;stroke:#191919;stroke-width:2.0px;stroke-linecap:butt;stroke-linejoin:miter;stroke-opacity:1"/>
<path class="bond-8 atom-7 atom-9" d="M 1013.0,649.4 L 1017.2,579.5" style="fill:none;fill-rule:evenodd;stroke:#000000;stroke-width:2.0px;stroke-linecap:butt;stroke-linejoin:miter;stroke-opacity:1"/>
<path class="bond-8 atom-7 atom-9" d="M 1017.2,579.5 L 1021.5,509.7" style="fill:none;fill-rule:evenodd;stroke:#FF0000;stroke-width:2.0px;stroke-linecap:butt;stroke-linejoin:miter;stroke-opacity:1"/>
<path class="bond-8 atom-7 atom-9" d="M 990.1,648.0 L 994.3,578.2" style="fill:none;fill-rule:evenodd;stroke:#000000;stroke-width:2.0px;stroke-linecap:butt;stroke-linejoin:miter;stroke-opacity:1"/>
<path class="bond-8 atom-7 atom-9" d="M 994.3,578.2 L 998.6,508.3" style="fill:none;fill-rule:evenodd;stroke:#FF0000;stroke-width:2.0px;stroke-linecap:butt;stroke-linejoin:miter;stroke-opacity:1"/>
<path d="M 332.4,676.6 L 335.1,678.4 L 342.0,674.9" style="fill:none;stroke:#000000;stroke-width:2.0px;stroke-linecap:butt;stroke-linejoin:miter;stroke-opacity:1;"/>
<path d="M 465.4,613.4 L 472.2,609.9 L 478.6,614.2" style="fill:none;stroke:#000000;stroke-width:2.0px;stroke-linecap:butt;stroke-linejoin:miter;stroke-opacity:1;"/>
<path d="M 593.6,690.2 L 600.0,694.4 L 606.9,691.0" style="fill:none;stroke:#000000;stroke-width:2.0px;stroke-linecap:butt;stroke-linejoin:miter;stroke-opacity:1;"/>
<path d="M 730.2,629.4 L 737.1,626.0 L 743.5,630.2" style="fill:none;stroke:#000000;stroke-width:2.0px;stroke-linecap:butt;stroke-linejoin:miter;stroke-opacity:1;"/>
<path d="M 858.5,706.3 L 864.9,710.5 L 871.7,707.1" style="fill:none;stroke:#000000;stroke-width:2.0px;stroke-linecap:butt;stroke-linejoin:miter;stroke-opacity:1;"/>
<path d="M 995.1,645.5 L 1001.9,642.1 L 1004.8,644.0" style="fill:none;stroke:#000000;stroke-width:2.0px;stroke-linecap:butt;stroke-linejoin:miter;stroke-opacity:1;"/>
<path class="atom-0" d="M 64.9 659.1 L 69.1 654.9 L 63.6 653.8 L 64.4 650.9 L 69.5 653.5 L 68.8 647.9 L 71.8 647.9 L 70.9 653.5 L 76.1 651.1 L 77.0 653.8 L 71.4 654.8 L 75.4 659.1 L 72.9 660.9 L 70.2 655.6 L 67.4 660.9 L 64.9 659.1 " fill="#191919"/>
<path class="atom-1" d="M 194.3 593.9 Q 194.3 587.1, 197.7 583.3 Q 201.1 579.5, 207.3 579.5 Q 213.6 579.5, 217.0 583.3 Q 220.3 587.1, 220.3 593.9 Q 220.3 600.8, 216.9 604.7 Q 213.5 608.6, 207.3 608.6 Q 201.1 608.6, 197.7 604.7 Q 194.3 600.9, 194.3 593.9 M 207.3 605.4 Q 211.7 605.4, 214.0 602.5 Q 216.3 599.6, 216.3 593.9 Q 216.3 588.4, 214.0 585.6 Q 211.7 582.7, 207.3 582.7 Q 203.0 582.7, 200.7 585.5 Q 198.3 588.3, 198.3 593.9 Q 198.3 599.7, 200.7 602.5 Q 203.0 605.4, 207.3 605.4 " fill="#FF0000"/>
<path class="atom-8" d="M 1124.4 723.4 L 1128.6 719.2 L 1123.0 718.1 L 1123.9 715.2 L 1129.0 717.8 L 1128.2 712.2 L 1131.2 712.2 L 1130.4 717.7 L 1135.6 715.3 L 1136.4 718.1 L 1130.8 719.1 L 1134.8 723.4 L 1132.4 725.1 L 1129.6 719.9 L 1126.8 725.1 L 1124.4 723.4 " fill="#191919"/>
<path class="atom-9" d="M 998.2 489.3 Q 998.2 482.5, 1001.6 478.7 Q 1004.9 474.9, 1011.2 474.9 Q 1017.5 474.9, 1020.9 478.7 Q 1024.2 482.5, 1024.2 489.3 Q 1024.2 496.1, 1020.8 500.1 Q 1017.4 503.9, 1011.2 503.9 Q 1005.0 503.9, 1001.6 500.1 Q 998.2 496.2, 998.2 489.3 M 1011.2 500.7 Q 1015.5 500.7, 1017.9 497.9 Q 1020.2 494.9, 1020.2 489.3 Q 1020.2 483.7, 1017.9 480.9 Q 1015.5 478.1, 1011.2 478.1 Q 1006.9 478.1, 1004.5 480.9 Q 1002.2 483.7, 1002.2 489.3 Q 1002.2 495.0, 1004.5 497.9 Q 1006.9 500.7, 1011.2 500.7 " fill="#FF0000"/>
<path class="bond-0 atom-0 atom-1" d="M 1073.6,885.6 L 1011.9,925.1" style="fill:none;fill-rule:evenodd;stroke:#191919;stroke-width:2.0px;stroke-linecap:butt;stroke-linejoin:miter;stroke-opacity:1"/>
<path class="bond-0 atom-0 atom-1" d="M 1011.9,925.1 L 950.2,964.6" style="fill:none;fill-rule:evenodd;stroke:#000000;stroke-width:2.0px;stroke-linecap:butt;stroke-linejoin:miter;stroke-opacity:1"/>
<path class="bond-1 atom-1 atom-2" d="M 938.4,958.5 L 941.6,1028.6" style="fill:none;fill-rule:evenodd;stroke:#000000;stroke-width:2.0px;stroke-linecap:butt;stroke-linejoin:miter;stroke-opacity:1"/>
<path class="bond-1 atom-1 atom-2" d="M 941.6,1028.6 L 944.8,1098.8" style="fill:none;fill-rule:evenodd;stroke:#FF0000;stroke-width:2.0px;stroke-linecap:butt;stroke-linejoin:miter;stroke-opacity:1"/>
<path class="bond-1 atom-1 atom-2" d="M 961.4,957.4 L 964.6,1027.6" style="fill:none;fill-rule:evenodd;stroke:#000000;stroke-width:2.0px;stroke-linecap:butt;stroke-linejoin:miter;stroke-opacity:1"/>
<path class="bond-1 atom-1 atom-2" d="M 964.6,1027.6 L 967.8,1097.7" style="fill:none;fill-rule:evenodd;stroke:#FF0000;stroke-width:2.0px;stroke-linecap:butt;stroke-linejoin:miter;stroke-opacity:1"/>
<path class="bond-2 atom-1 atom-3" d="M 950.2,964.6 L 814.2,894.1" style="fill:none;fill-rule:evenodd;stroke:#000000;stroke-width:2.0px;stroke-linecap:butt;stroke-linejoin:miter;stroke-opacity:1"/>
<path class="bond-3 atom-3 atom-4" d="M 814.2,894.1 L 685.1,976.6" style="fill:none;fill-rule:evenodd;stroke:#000000;stroke-width:2.0px;stroke-linecap:butt;stroke-linejoin:miter;stroke-opacity:1"/>
<path class="bond-4 atom-4 atom-5" d="M 685.1,976.6 L 549.1,906.1" style="fill:none;fill-rule:evenodd;stroke:#000000;stroke-width:2.0px;stroke-linecap:butt;stroke-linejoin:miter;stroke-opacity:1"/>
<path class="bond-5 atom-5 atom-6" d="M 549.1,906.1 L 420.1,988.7" style="fill:none;fill-rule:evenodd;stroke:#000000;stroke-width:2.0px;stroke-linecap:butt;stroke-linejoin:miter;stroke-opacity:1"/>
<path class="bond-6 atom-6 atom-7" d="M 420.1,988.7 L 284.0,918.2" style="fill:none;fill-rule:evenodd;stroke:#000000;stroke-width:2.0px;stroke-linecap:butt;stroke-linejoin:miter;stroke-opacity:1"/>
<path class="bond-7 atom-7 atom-8" d="M 284.0,918.2 L 228.5,953.7" style="fill:none;fill-rule:evenodd;stroke:#000000;stroke-width:2.0px;stroke-linecap:butt;stroke-linejoin:miter;stroke-opacity:1"/>
<path class="bond-7 atom-7 atom-8" d="M 228.5,953.7 L 173.0,989.2" style="fill:none;fill-rule:evenodd;stroke:#FF0000;stroke-width:2.0px;stroke-linecap:butt;stroke-linejoin:miter;stroke-opacity:1"/>
<path d="M 953.3,962.6 L 950.2,964.6 L 943.4,961.0" style="fill:none;stroke:#000000;stroke-width:2.0px;stroke-linecap:butt;stroke-linejoin:miter;stroke-opacity:1;"/>
<path d="M 821.0,897.6 L 814.2,894.1 L 807.8,898.2" style="fill:none;stroke:#000000;stroke-width:2.0px;stroke-linecap:butt;stroke-linejoin:miter;stroke-opacity:1;"/>
<path d="M 691.6,972.5 L 685.1,976.6 L 678.3,973.1" style="fill:none;stroke:#000000;stroke-width:2.0px;stroke-linecap:butt;stroke-linejoin:miter;stroke-opacity:1;"/>
<path d="M 555.9,909.7 L 549.1,906.1 L 542.7,910.3" style="fill:none;stroke:#000000;stroke-width:2.0px;stroke-linecap:butt;stroke-linejoin:miter;stroke-opacity:1;"/>
<path d="M 426.5,984.6 L 420.1,988.7 L 413.3,985.2" style="fill:none;stroke:#000000;stroke-width:2.0px;stroke-linecap:butt;stroke-linejoin:miter;stroke-opacity:1;"/>
<path d="M 290.8,921.7 L 284.0,918.2 L 281.3,920.0" style="fill:none;stroke:#000000;stroke-width:2.0px;stroke-linecap:butt;stroke-linejoin:miter;stroke-opacity:1;"/>
<path class="atom-0" d="M 1073.9 878.9 L 1078.1 874.6 L 1072.6 873.5 L 1073.4 870.7 L 1078.5 873.2 L 1077.8 867.7 L 1080.8 867.6 L 1079.9 873.2 L 1085.1 870.8 L 1086.0 873.5 L 1080.4 874.5 L 1084.4 878.8 L 1081.9 880.6 L 1079.2 875.3 L 1076.4 880.6 L 1073.9 878.9 " fill="#191919"/>
<path class="atom-2" d="M 944.2 1117.7 Q 944.2 1110.9, 947.5 1107.1 Q 950.9 1103.3, 957.2 1103.3 Q 963.5 1103.3, 966.8 1107.1 Q 970.2 1110.9, 970.2 1117.7 Q 970.2 1124.6, 966.8 1128.5 Q 963.4 1132.4, 957.2 1132.4 Q 950.9 1132.4, 947.5 1128.5 Q 944.2 1124.6, 944.2 1117.7 M 957.2 1129.2 Q 961.5 1129.2, 963.8 1126.3 Q 966.2 1123.4, 966.2 1117.7 Q 966.2 1112.1, 963.8 1109.3 Q 961.5 1106.5, 957.2 1106.5 Q 952.9 1106.5, 950.5 1109.3 Q 948.2 1112.1, 948.2 1117.7 Q 948.2 1123.4, 950.5 1126.3 Q 952.9 1129.2, 957.2 1129.2 " fill="#FF0000"/>
<path class="atom-8" d="M 114.0 986.7 L 117.9 986.7 L 117.9 998.8 L 132.3 998.8 L 132.3 986.7 L 136.2 986.7 L 136.2 1015.1 L 132.3 1015.1 L 132.3 1002.0 L 117.9 1002.0 L 117.9 1015.1 L 114.0 1015.1 L 114.0 986.7 " fill="#FF0000"/>
<path class="atom-8" d="M 142.0 1000.8 Q 142.0 994.0, 145.3 990.2 Q 148.7 986.4, 155.0 986.4 Q 161.3 986.4, 164.6 990.2 Q 168.0 994.0, 168.0 1000.8 Q 168.0 1007.7, 164.6 1011.6 Q 161.2 1015.5, 155.0 1015.5 Q 148.7 1015.5, 145.3 1011.6 Q 142.0 1007.7, 142.0 1000.8 M 155.0 1012.3 Q 159.3 1012.3, 161.6 1009.4 Q 164.0 1006.5, 164.0 1000.8 Q 164.0 995.3, 161.6 992.5 Q 159.3 989.6, 155.0 989.6 Q 150.7 989.6, 148.3 992.4 Q 146.0 995.2, 146.0 1000.8 Q 146.0 1006.5, 148.3 1009.4 Q 150.7 1012.3, 155.0 1012.3 " fill="#FF0000"/>
</svg>