<svg xmlns="http://www.w3.org/2000/svg" xmlns:rdkit="http://www.rdkit.org/xml" xmlns:xlink="http://www.w3.org/1999/xlink" version="1.1" baseProfile="full" xml:space="preserve" width="1200px" height="800px" viewBox="0 0 1200 800">
<!-- END OF HEADER -->
<rect style="opacity:1.0;fill:#FFFFFF;stroke:none" width="1200.0" height="800.0" x="0.0" y="0.0"> </rect>
<path class="bond-0 atom-0 atom-1" d="M 873.8,56.2 L 854.4,117.4" style="fill:none;fill-rule:evenodd;stroke:#191919;stroke-width:2.0px;stroke-linecap:butt;stroke-linejoin:miter;stroke-opacity:1"/>
<path class="bond-0 atom-0 atom-1" d="M 854.4,117.4 L 835.0,178.7" style="fill:none;fill-rule:evenodd;stroke:#FF0000;stroke-width:2.0px;stroke-linecap:butt;stroke-linejoin:miter;stroke-opacity:1"/>
<path class="bond-1 atom-1 atom-2" d="M 810.8,202.0 L 745.3,216.4" style="fill:none;fill-rule:evenodd;stroke:#FF0000;stroke-width:2.0px;stroke-linecap:butt;stroke-linejoin:miter;stroke-opacity:1"/>
<path class="bond-1 atom-1 atom-2" d="M 745.3,216.4 L 679.8,230.8" style="fill:none;fill-rule:evenodd;stroke:#000000;stroke-width:2.0px;stroke-linecap:butt;stroke-linejoin:miter;stroke-opacity:1"/>
<path class="bond-2 atom-2 atom-3" d="M 679.8,230.8 L 633.7,376.2" style="fill:none;fill-rule:evenodd;stroke:#000000;stroke-width:2.0px;stroke-linecap:butt;stroke-linejoin:miter;stroke-opacity:1"/>
<path class="bond-3 atom-2 atom-4" d="M 679.8,230.8 L 576.9,118.1" style="fill:none;fill-rule:evenodd;stroke:#000000;stroke-width:2.0px;stroke-linecap:butt;stroke-linejoin:miter;stroke-opacity:1"/>
<path class="bond-4 atom-4 atom-5" d="M 576.9,118.1 L 427.9,150.9" style="fill:none;fill-rule:evenodd;stroke:#000000;stroke-width:2.0px;stroke-linecap:butt;stroke-linejoin:miter;stroke-opacity:1"/>
<path class="bond-5 atom-5 atom-6" d="M 427.9,150.9 L 378.1,96.3" style="fill:none;fill-rule:evenodd;stroke:#000000;stroke-width:2.0px;stroke-linecap:butt;stroke-linejoin:miter;stroke-opacity:1"/>
<path class="bond-5 atom-5 atom-6" d="M 378.1,96.3 L 328.3,41.8" style="fill:none;fill-rule:evenodd;stroke:#191919;stroke-width:2.0px;stroke-linecap:butt;stroke-linejoin:miter;stroke-opacity:1"/>
<path class="bond-6 atom-5 atom-7" d="M 419.0,141.1 L 398.0,207.3" style="fill:none;fill-rule:evenodd;stroke:#000000;stroke-width:2.0px;stroke-linecap:butt;stroke-linejoin:miter;stroke-opacity:1"/>
<path class="bond-6 atom-5 atom-7" d="M 398.0,207.3 L 377.0,273.5" style="fill:none;fill-rule:evenodd;stroke:#FF0000;stroke-width:2.0px;stroke-linecap:butt;stroke-linejoin:miter;stroke-opacity:1"/>
<path class="bond-6 atom-5 atom-7" d="M 440.8,148.0 L 419.8,214.2" style="fill:none;fill-rule:evenodd;stroke:#000000;stroke-width:2.0px;stroke-linecap:butt;stroke-linejoin:miter;stroke-opacity:1"/>
<path class="bond-6 atom-5 atom-7" d="M 419.8,214.2 L 398.8,280.4" style="fill:none;fill-rule:evenodd;stroke:#FF0000;stroke-width:2.0px;stroke-linecap:butt;stroke-linejoin:miter;stroke-opacity:1"/>
<path d="M 582.1,123.7 L 576.9,118.1 L 569.5,119.7" style="fill:none;stroke:#000000;stroke-width:2.0px;stroke-linecap:butt;stroke-linejoin:miter;stroke-opacity:1;"/>
<path d="M 435.4,149.2 L 427.9,150.9 L 425.4,148.1" style="fill:none;stroke:#000000;stroke-width:2.0px;stroke-linecap:butt;stroke-linejoin:miter;stroke-opacity:1;"/>
<path class="atom-0" d="M 869.6 49.4 L 873.8 45.2 L 868.3 44.1 L 869.1 41.2 L 874.2 43.8 L 873.5 38.2 L 876.5 38.2 L 875.6 43.8 L 880.8 41.4 L 881.7 44.1 L 876.1 45.1 L 880.1 49.4 L 877.6 51.2 L 874.9 45.9 L 872.1 51.2 L 869.6 49.4 " fill="#191919"/>
<path class="atom-1" d="M 815.8 198.1 Q 815.8 191.3, 819.2 187.5 Q 822.5 183.7, 828.8 183.7 Q 835.1 183.7, 838.5 187.5 Q 841.8 191.3, 841.8 198.1 Q 841.8 205.0, 838.4 208.9 Q 835.0 212.8, 828.8 212.8 Q 822.6 212.8, 819.2 208.9 Q 815.8 205.0, 815.8 198.1 M 828.8 209.6 Q 833.1 209.6, 835.5 206.7 Q 837.8 203.8, 837.8 198.1 Q 837.8 192.6, 835.5 189.8 Q 833.1 186.9, 828.8 186.9 Q 824.5 186.9, 822.1 189.7 Q 819.8 192.5, 819.8 198.1 Q 819.8 203.8, 822.1 206.7 Q 824.5 209.6, 828.8 209.6 " fill="#FF0000"/>
<path class="atom-6" d="M 319.7 35.0 L 323.9 30.8 L 318.3 29.7 L 319.2 26.8 L 324.3 29.4 L 323.5 23.8 L 326.5 23.8 L 325.7 29.3 L 330.9 26.9 L 331.7 29.7 L 326.1 30.7 L 330.1 35.0 L 327.7 36.7 L 324.9 31.5 L 322.1 36.7 L 319.7 35.0 " fill="#191919"/>
<path class="atom-7" d="M 368.8 296.4 Q 368.8 289.6, 372.1 285.8 Q 375.5 282.0, 381.8 282.0 Q 388.0 282.0, 391.4 285.8 Q 394.8 289.6, 394.8 296.4 Q 394.8 303.2, 391.4 307.2 Q 388.0 311.0, 381.8 311.0 Q 375.5 311.0, 372.1 307.2 Q 368.8 303.3, 368.8 296.4 M 381.8 307.8 Q 386.1 307.8, 388.4 305.0 Q 390.8 302.0, 390.8 296.4 Q 390.8 290.8, 388.4 288.0 Q 386.1 285.2, 381.8 285.2 Q 377.4 285.2, 375.1 288.0 Q 372.8 290.8, 372.8 296.4 Q 372.8 302.1, 375.1 305.0 Q 377.4 307.8, 381.8 307.8 " fill="#FF0000"/>
<path class="bond-0 atom-0 atom-1" d="M 84.2,656.2 L 137.5,629.6" style="fill:none;fill-rule:evenodd;stroke:#191919;stroke-width:2.0px;stroke-linecap:butt;stroke-linejoin:miter;stroke-opacity:1"/>
<path class="bond-0 atom-0 atom-1" d="M 137.5,629.6 L 190.9,602.9" style="fill:none;fill-rule:evenodd;stroke:#FF0000;stroke-width:2.0px;stroke-linecap:butt;stroke-linejoin:miter;stroke-opacity:1"/>
<path class="bond-1 atom-1 atom-2" d="M 227.0,605.9 L 281.6,642.0" style="fill:none;fill-rule:evenodd;stroke:#FF0000;stroke-width:2.0px;stroke-linecap:butt;stroke-linejoin:miter;stroke-opacity:1"/>
<path class="bond-1 atom-1 atom-2" d="M 281.6,642.0 L 336.2,678.1" style="fill:none;fill-rule:evenodd;stroke:#000000;stroke-width:2.0px;stroke-linecap:butt;stroke-linejoin:miter;stroke-opacity:1"/>
<path class="bond-2 atom-2 atom-3" d="M 336.2,678.1 L 472.7,609.9" style="fill:none;fill-rule:evenodd;stroke:#000000;stroke-width:2.0px;stroke-linecap:butt;stroke-linejoin:miter;stroke-opacity:1"/>
<path class="bond-3 atom-3 atom-4" d="M 472.7,609.9 L 600.0,694.1" style="fill:none;fill-rule:evenodd;stroke:#000000;stroke-width:2.0px;stroke-linecap:butt;stroke-linejoin:miter;stroke-opacity:1"/>
<path class="bond-4 atom-4 atom-5" d="M 600.0,694.1 L 736.5,625.9" style="fill:none;fill-rule:evenodd;stroke:#000000;stroke-width:2.0px;stroke-linecap:butt;stroke-linejoin:miter;stroke-opacity:1"/>
<path class="bond-5 atom-5 atom-6" d="M 736.5,625.9 L 863.8,710.1" style="fill:none;fill-rule:evenodd;stroke:#000000;stroke-width:2.0px;stroke-linecap:butt;stroke-linejoin:miter;stroke-opacity:1"/>
<path class="bond-6 atom-6 atom-7" d="M 863.8,710.1 L 1000.3,642.0" style="fill:none;fill-rule:evenodd;stroke:#000000;stroke-width:2.0px;stroke-linecap:butt;stroke-linejoin:miter;stroke-opacity:1"/>
<path class="bond-7 atom-7 atom-8" d="M 1000.3,642.0 L 1058.1,680.1" style="fill:none;fill-rule:evenodd;stroke:#000000;stroke-width:2.0px;stroke-linecap:butt;stroke-linejoin:miter;stroke-opacity:1"/>
<path class="bond-7 atom-7 atom-8" d="M 1058.1,680.1 L 1115.8,718.3" style="fill:none;fill-rule:evenodd;stroke:#191919;stroke-width:2.0px;stroke-linecap:butt;stroke-linejoin:miter;stroke-opacity:1"/>
<path class="bond-8 atom-7 atom-9" d="M 1011.3,649.2 L 1015.5,579.7" style="fill:none;fill-rule:evenodd;stroke:#000000;stroke-width:2.0px;stroke-linecap:butt;stroke-linejoin:miter;stroke-opacity:1"/>
<path class="bond-8 atom-7 atom-9" d="M 1015.5,579.7 L 1019.8,510.1" style="fill:none;fill-rule:evenodd;stroke:#FF0000;stroke-width:2.0px;stroke-linecap:butt;stroke-linejoin:miter;stroke-opacity:1"/>
<path class="bond-8 atom-7 atom-9" d="M 988.5,647.9 L 992.7,578.3" style="fill:none;fill-rule:evenodd;stroke:#000000;stroke-width:2.0px;stroke-linecap:butt;stroke-linejoin:miter;stroke-opacity:1"/>
<path class="bond-8 atom-7 atom-9" d="M 992.7,578.3 L 996.9,508.8" style="fill:none;fill-rule:evenodd;stroke:#FF0000;stroke-width:2.0px;stroke-linecap:butt;stroke-linejoin:miter;stroke-opacity:1"/>
<path d="M 333.5,676.3 L 336.2,678.1 L 343.0,674.7" style="fill:none;stroke:#000000;stroke-width:2.0px;stroke-linecap:butt;stroke-linejoin:miter;stroke-opacity:1;"/>
<path d="M 465.9,613.3 L 472.7,609.9 L 479.1,614.1" style="fill:none;stroke:#000000;stroke-width:2.0px;stroke-linecap:butt;stroke-linejoin:miter;stroke-opacity:1;"/>
<path d="M 593.6,689.9 L 600.0,694.1 L 606.8,690.7" style="fill:none;stroke:#000000;stroke-width:2.0px;stroke-linecap:butt;stroke-linejoin:miter;stroke-opacity:1;"/>
<path d="M 729.7,629.3 L 736.5,625.9 L 742.9,630.2" style="fill:none;stroke:#000000;stroke-width:2.0px;stroke-linecap:butt;stroke-linejoin:miter;stroke-opacity:1;"/>
<path d="M 857.4,705.9 L 863.8,710.1 L 870.6,706.7" style="fill:none;stroke:#000000;stroke-width:2.0px;stroke-linecap:butt;stroke-linejoin:miter;stroke-opacity:1;"/>
<path d="M 993.5,645.4 L 1000.3,642.0 L 1003.2,643.9" style="fill:none;stroke:#000000;stroke-width:2.0px;stroke-linecap:butt;stroke-linejoin:miter;stroke-opacity:1;"/>
<path class="atom-0" d="M 67.1 658.9 L 71.3 654.7 L 65.7 653.5 L 66.6 650.7 L 71.7 653.3 L 70.9 647.7 L 73.9 647.7 L 73.1 653.2 L 78.3 650.8 L 79.1 653.5 L 73.5 654.6 L 77.5 658.9 L 75.1 660.6 L 72.3 655.3 L 69.5 660.6 L 67.1 658.9 " fill="#191919"/>
<path class="atom-1" d="M 196.0 594.0 Q 196.0 587.2, 199.3 583.4 Q 202.7 579.6, 209.0 579.6 Q 215.2 579.6, 218.6 583.4 Q 222.0 587.2, 222.0 594.0 Q 222.0 600.9, 218.6 604.8 Q 215.2 608.7, 209.0 608.7 Q 202.7 608.7, 199.3 604.8 Q 196.0 600.9, 196.0 594.0 M 209.0 605.5 Q 213.3 605.5, 215.6 602.6 Q 218.0 599.7, 218.0 594.0 Q 218.0 588.4, 215.6 585.6 Q 213.3 582.8, 209.0 582.8 Q 204.6 582.8, 202.3 585.6 Q 200.0 588.4, 200.0 594.0 Q 200.0 599.7, 202.3 602.6 Q 204.6 605.5, 209.0 605.5 " fill="#FF0000"/>
<path class="atom-8" d="M 1122.2 722.9 L 1126.4 718.7 L 1120.9 717.6 L 1121.7 714.7 L 1126.8 717.3 L 1126.1 711.7 L 1129.1 711.7 L 1128.2 717.3 L 1133.4 714.9 L 1134.3 717.6 L 1128.7 718.6 L 1132.7 722.9 L 1130.2 724.7 L 1127.5 719.4 L 1124.7 724.7 L 1122.2 722.9 " fill="#191919"/>
<path class="atom-9" d="M 996.5 489.7 Q 996.5 482.9, 999.9 479.1 Q 1003.3 475.3, 1009.5 475.3 Q 1015.8 475.3, 1019.2 479.1 Q 1022.5 482.9, 1022.5 489.7 Q 1022.5 496.6, 1019.1 500.5 Q 1015.7 504.4, 1009.5 504.4 Q 1003.3 504.4, 999.9 500.5 Q 996.5 496.7, 996.5 489.7 M 1009.5 501.2 Q 1013.9 501.2, 1016.2 498.3 Q 1018.5 495.4, 1018.5 489.7 Q 1018.5 484.2, 1016.2 481.4 Q 1013.9 478.5, 1009.5 478.5 Q 1005.2 478.5, 1002.9 481.3 Q 1000.5 484.1, 1000.5 489.7 Q 1000.5 495.5, 1002.9 498.3 Q 1005.2 501.2, 1009.5 501.2 " fill="#FF0000"/>
</svg>