<svg xmlns="http://www.w3.org/2000/svg" xmlns:rdkit="http://www.rdkit.org/xml" xmlns:xlink="http://www.w3.org/1999/xlink" version="1.1" baseProfile="full" xml:space="preserve" width="1200px" height="1200px" viewBox="0 0 1200 1200">
<!-- END OF HEADER -->
<rect style="opacity:1.0;fill:#FFFFFF;stroke:none" width="1200.0" height="1200.0" x="0.0" y="0.0"> </rect>
<path class="bond-0 atom-0 atom-1" d="M 73.7,191.5 L 106.0,174.6" style="fill:none;fill-rule:evenodd;stroke:#191919;stroke-width:2.0px;stroke-linecap:butt;stroke-linejoin:miter;stroke-opacity:1"/>
<path class="bond-0 atom-0 atom-1" d="M 106.0,174.6 L 138.3,157.6" style="fill:none;fill-rule:evenodd;stroke:#000000;stroke-width:2.0px;stroke-linecap:butt;stroke-linejoin:miter;stroke-opacity:1"/>
<path class="bond-1 atom-1 atom-2" d="M 138.3,157.6 L 207.8,201.6" style="fill:none;fill-rule:evenodd;stroke:#000000;stroke-width:2.0px;stroke-linecap:butt;stroke-linejoin:miter;stroke-opacity:1"/>
<path class="bond-2 atom-2 atom-3" d="M 207.8,201.6 L 237.5,186.0" style="fill:none;fill-rule:evenodd;stroke:#000000;stroke-width:2.0px;stroke-linecap:butt;stroke-linejoin:miter;stroke-opacity:1"/>
<path class="bond-2 atom-2 atom-3" d="M 237.5,186.0 L 267.2,170.4" style="fill:none;fill-rule:evenodd;stroke:#FF0000;stroke-width:2.0px;stroke-linecap:butt;stroke-linejoin:miter;stroke-opacity:1"/>
<path class="bond-3 atom-3 atom-4" d="M 294.0,171.9 L 322.1,189.6" style="fill:none;fill-rule:evenodd;stroke:#FF0000;stroke-width:2.0px;stroke-linecap:butt;stroke-linejoin:miter;stroke-opacity:1"/>
<path class="bond-3 atom-3 atom-4" d="M 322.1,189.6 L 350.1,207.4" style="fill:none;fill-rule:evenodd;stroke:#000000;stroke-width:2.0px;stroke-linecap:butt;stroke-linejoin:miter;stroke-opacity:1"/>
<path class="bond-4 atom-4 atom-5" d="M 344.1,203.6 L 342.7,239.2" style="fill:none;fill-rule:evenodd;stroke:#000000;stroke-width:2.0px;stroke-linecap:butt;stroke-linejoin:miter;stroke-opacity:1"/>
<path class="bond-4 atom-4 atom-5" d="M 342.7,239.2 L 341.2,274.8" style="fill:none;fill-rule:evenodd;stroke:#FF0000;stroke-width:2.0px;stroke-linecap:butt;stroke-linejoin:miter;stroke-opacity:1"/>
<path class="bond-4 atom-4 atom-5" d="M 356.4,204.1 L 355.0,239.7" style="fill:none;fill-rule:evenodd;stroke:#000000;stroke-width:2.0px;stroke-linecap:butt;stroke-linejoin:miter;stroke-opacity:1"/>
<path class="bond-4 atom-4 atom-5" d="M 355.0,239.7 L 353.5,275.3" style="fill:none;fill-rule:evenodd;stroke:#FF0000;stroke-width:2.0px;stroke-linecap:butt;stroke-linejoin:miter;stroke-opacity:1"/>
<path class="bond-5 atom-4 atom-6" d="M 350.1,207.4 L 422.9,169.2" style="fill:none;fill-rule:evenodd;stroke:#000000;stroke-width:2.0px;stroke-linecap:butt;stroke-linejoin:miter;stroke-opacity:1"/>
<path class="bond-6 atom-6 atom-7" d="M 422.9,169.2 L 492.4,213.1" style="fill:none;fill-rule:evenodd;stroke:#000000;stroke-width:2.0px;stroke-linecap:butt;stroke-linejoin:miter;stroke-opacity:1"/>
<path class="bond-7 atom-7 atom-8" d="M 492.4,213.1 L 565.3,175.0" style="fill:none;fill-rule:evenodd;stroke:#000000;stroke-width:2.0px;stroke-linecap:butt;stroke-linejoin:miter;stroke-opacity:1"/>
<path class="bond-8 atom-8 atom-9" d="M 565.3,175.0 L 634.7,218.9" style="fill:none;fill-rule:evenodd;stroke:#000000;stroke-width:2.0px;stroke-linecap:butt;stroke-linejoin:miter;stroke-opacity:1"/>
<path class="bond-9 atom-9 atom-10" d="M 634.7,218.9 L 707.6,180.7" style="fill:none;fill-rule:evenodd;stroke:#000000;stroke-width:2.0px;stroke-linecap:butt;stroke-linejoin:miter;stroke-opacity:1"/>
<path class="bond-10 atom-10 atom-11" d="M 707.6,180.7 L 777.1,224.7" style="fill:none;fill-rule:evenodd;stroke:#000000;stroke-width:2.0px;stroke-linecap:butt;stroke-linejoin:miter;stroke-opacity:1"/>
<path class="bond-11 atom-11 atom-12" d="M 777.1,224.7 L 849.9,186.5" style="fill:none;fill-rule:evenodd;stroke:#000000;stroke-width:2.0px;stroke-linecap:butt;stroke-linejoin:miter;stroke-opacity:1"/>
<path class="bond-12 atom-12 atom-13" d="M 849.9,186.5 L 919.4,230.5" style="fill:none;fill-rule:evenodd;stroke:#000000;stroke-width:2.0px;stroke-linecap:butt;stroke-linejoin:miter;stroke-opacity:1"/>
<path class="bond-13 atom-13 atom-14" d="M 919.4,230.5 L 992.2,192.3" style="fill:none;fill-rule:evenodd;stroke:#000000;stroke-width:2.0px;stroke-linecap:butt;stroke-linejoin:miter;stroke-opacity:1"/>
<path class="bond-14 atom-14 atom-15" d="M 998.2,196.1 L 999.6,160.6" style="fill:none;fill-rule:evenodd;stroke:#000000;stroke-width:2.0px;stroke-linecap:butt;stroke-linejoin:miter;stroke-opacity:1"/>
<path class="bond-14 atom-14 atom-15" d="M 999.6,160.6 L 1001.1,125.2" style="fill:none;fill-rule:evenodd;stroke:#FF0000;stroke-width:2.0px;stroke-linecap:butt;stroke-linejoin:miter;stroke-opacity:1"/>
<path class="bond-14 atom-14 atom-15" d="M 985.9,195.6 L 987.3,160.1" style="fill:none;fill-rule:evenodd;stroke:#000000;stroke-width:2.0px;stroke-linecap:butt;stroke-linejoin:miter;stroke-opacity:1"/>
<path class="bond-14 atom-14 atom-15" d="M 987.3,160.1 L 988.7,124.7" style="fill:none;fill-rule:evenodd;stroke:#FF0000;stroke-width:2.0px;stroke-linecap:butt;stroke-linejoin:miter;stroke-opacity:1"/>
<path class="bond-15 atom-14 atom-16" d="M 992.2,192.3 L 1020.2,210.0" style="fill:none;fill-rule:evenodd;stroke:#000000;stroke-width:2.0px;stroke-linecap:butt;stroke-linejoin:miter;stroke-opacity:1"/>
<path class="bond-15 atom-14 atom-16" d="M 1020.2,210.0 L 1048.3,227.7" style="fill:none;fill-rule:evenodd;stroke:#FF0000;stroke-width:2.0px;stroke-linecap:butt;stroke-linejoin:miter;stroke-opacity:1"/>
<path class="bond-16 atom-16 atom-17" d="M 1075.1,229.2 L 1103.3,214.4" style="fill:none;fill-rule:evenodd;stroke:#FF0000;stroke-width:2.0px;stroke-linecap:butt;stroke-linejoin:miter;stroke-opacity:1"/>
<path class="bond-16 atom-16 atom-17" d="M 1103.3,214.4 L 1131.6,199.6" style="fill:none;fill-rule:evenodd;stroke:#191919;stroke-width:2.0px;stroke-linecap:butt;stroke-linejoin:miter;stroke-opacity:1"/>
<path d="M 136.7,158.5 L 138.3,157.6 L 141.8,159.8" style="fill:none;stroke:#000000;stroke-width:2.0px;stroke-linecap:butt;stroke-linejoin:miter;stroke-opacity:1;"/>
<path d="M 204.3,199.4 L 207.8,201.6 L 209.3,200.8" style="fill:none;stroke:#000000;stroke-width:2.0px;stroke-linecap:butt;stroke-linejoin:miter;stroke-opacity:1;"/>
<path d="M 348.7,206.5 L 350.1,207.4 L 353.8,205.5" style="fill:none;stroke:#000000;stroke-width:2.0px;stroke-linecap:butt;stroke-linejoin:miter;stroke-opacity:1;"/>
<path d="M 419.3,171.1 L 422.9,169.2 L 426.4,171.4" style="fill:none;stroke:#000000;stroke-width:2.0px;stroke-linecap:butt;stroke-linejoin:miter;stroke-opacity:1;"/>
<path d="M 489.0,210.9 L 492.4,213.1 L 496.1,211.2" style="fill:none;stroke:#000000;stroke-width:2.0px;stroke-linecap:butt;stroke-linejoin:miter;stroke-opacity:1;"/>
<path d="M 561.6,176.9 L 565.3,175.0 L 568.7,177.1" style="fill:none;stroke:#000000;stroke-width:2.0px;stroke-linecap:butt;stroke-linejoin:miter;stroke-opacity:1;"/>
<path d="M 631.3,216.7 L 634.7,218.9 L 638.4,217.0" style="fill:none;stroke:#000000;stroke-width:2.0px;stroke-linecap:butt;stroke-linejoin:miter;stroke-opacity:1;"/>
<path d="M 703.9,182.6 L 707.6,180.7 L 711.0,182.9" style="fill:none;stroke:#000000;stroke-width:2.0px;stroke-linecap:butt;stroke-linejoin:miter;stroke-opacity:1;"/>
<path d="M 773.6,222.5 L 777.1,224.7 L 780.7,222.8" style="fill:none;stroke:#000000;stroke-width:2.0px;stroke-linecap:butt;stroke-linejoin:miter;stroke-opacity:1;"/>
<path d="M 846.2,188.4 L 849.9,186.5 L 853.3,188.7" style="fill:none;stroke:#000000;stroke-width:2.0px;stroke-linecap:butt;stroke-linejoin:miter;stroke-opacity:1;"/>
<path d="M 915.9,228.3 L 919.4,230.5 L 923.0,228.5" style="fill:none;stroke:#000000;stroke-width:2.0px;stroke-linecap:butt;stroke-linejoin:miter;stroke-opacity:1;"/>
<path d="M 988.5,194.2 L 992.2,192.3 L 993.6,193.1" style="fill:none;stroke:#000000;stroke-width:2.0px;stroke-linecap:butt;stroke-linejoin:miter;stroke-opacity:1;"/>
<path class="atom-0" d="M 61.1 193.2 L 64.5 189.8 L 60.0 188.8 L 60.7 186.5 L 64.9 188.6 L 64.3 184.0 L 66.7 184.0 L 66.1 188.6 L 70.3 186.6 L 71.0 188.8 L 66.4 189.7 L 69.7 193.2 L 67.7 194.7 L 65.4 190.3 L 63.1 194.7 L 61.1 193.2 " fill="#191919"/>
<path class="atom-3" d="M 269.9 163.5 Q 269.9 157.9, 272.7 154.8 Q 275.5 151.6, 280.6 151.6 Q 285.8 151.6, 288.6 154.8 Q 291.3 157.9, 291.3 163.5 Q 291.3 169.1, 288.5 172.4 Q 285.7 175.6, 280.6 175.6 Q 275.5 175.6, 272.7 172.4 Q 269.9 169.2, 269.9 163.5 M 280.6 172.9 Q 284.2 172.9, 286.1 170.6 Q 288.0 168.1, 288.0 163.5 Q 288.0 158.9, 286.1 156.6 Q 284.2 154.3, 280.6 154.3 Q 277.1 154.3, 275.1 156.6 Q 273.2 158.9, 273.2 163.5 Q 273.2 168.2, 275.1 170.6 Q 277.1 172.9, 280.6 172.9 " fill="#FF0000"/>
<path class="atom-5" d="M 336.1 289.6 Q 336.1 284.0, 338.9 280.9 Q 341.6 277.8, 346.8 277.8 Q 352.0 277.8, 354.7 280.9 Q 357.5 284.0, 357.5 289.6 Q 357.5 295.3, 354.7 298.5 Q 351.9 301.7, 346.8 301.7 Q 341.7 301.7, 338.9 298.5 Q 336.1 295.3, 336.1 289.6 M 346.8 299.0 Q 350.3 299.0, 352.3 296.7 Q 354.2 294.3, 354.2 289.6 Q 354.2 285.0, 352.3 282.7 Q 350.3 280.4, 346.8 280.4 Q 343.2 280.4, 341.3 282.7 Q 339.4 285.0, 339.4 289.6 Q 339.4 294.3, 341.3 296.7 Q 343.2 299.0, 346.8 299.0 " fill="#FF0000"/>
<path class="atom-15" d="M 984.8 110.2 Q 984.8 104.6, 987.6 101.4 Q 990.3 98.3, 995.5 98.3 Q 1000.7 98.3, 1003.4 101.4 Q 1006.2 104.6, 1006.2 110.2 Q 1006.2 115.8, 1003.4 119.0 Q 1000.6 122.2, 995.5 122.2 Q 990.4 122.2, 987.6 119.0 Q 984.8 115.9, 984.8 110.2 M 995.5 119.6 Q 999.1 119.6, 1001.0 117.2 Q 1002.9 114.8, 1002.9 110.2 Q 1002.9 105.6, 1001.0 103.3 Q 999.1 101.0, 995.5 101.0 Q 992.0 101.0, 990.0 103.3 Q 988.1 105.6, 988.1 110.2 Q 988.1 114.9, 990.0 117.2 Q 992.0 119.6, 995.5 119.6 " fill="#FF0000"/>
<path class="atom-16" d="M 1051.0 236.3 Q 1051.0 230.7, 1053.7 227.6 Q 1056.5 224.4, 1061.7 224.4 Q 1066.8 224.4, 1069.6 227.6 Q 1072.4 230.7, 1072.4 236.3 Q 1072.4 241.9, 1069.6 245.2 Q 1066.8 248.4, 1061.7 248.4 Q 1056.5 248.4, 1053.7 245.2 Q 1051.0 242.0, 1051.0 236.3 M 1061.7 245.7 Q 1065.2 245.7, 1067.1 243.4 Q 1069.1 241.0, 1069.1 236.3 Q 1069.1 231.7, 1067.1 229.4 Q 1065.2 227.1, 1061.7 227.1 Q 1058.1 227.1, 1056.2 229.4 Q 1054.3 231.7, 1054.3 236.3 Q 1054.3 241.0, 1056.2 243.4 Q 1058.1 245.7, 1061.7 245.7 " fill="#FF0000"/>
<path class="atom-17" d="M 1130.1 195.4 L 1133.5 191.9 L 1129.0 191.0 L 1129.7 188.7 L 1133.8 190.8 L 1133.3 186.2 L 1135.7 186.2 L 1135.0 190.8 L 1139.3 188.8 L 1140.0 191.0 L 1135.4 191.9 L 1138.7 195.4 L 1136.7 196.8 L 1134.4 192.5 L 1132.1 196.8 L 1130.1 195.4 " fill="#191919"/>
<path class="bond-0 atom-0 atom-1" d="M 287.1,589.5 L 319.9,573.4" style="fill:none;fill-rule:evenodd;stroke:#191919;stroke-width:2.0px;stroke-linecap:butt;stroke-linejoin:miter;stroke-opacity:1"/>
<path class="bond-0 atom-0 atom-1" d="M 319.9,573.4 L 352.7,557.4" style="fill:none;fill-rule:evenodd;stroke:#000000;stroke-width:2.0px;stroke-linecap:butt;stroke-linejoin:miter;stroke-opacity:1"/>
<path class="bond-1 atom-1 atom-2" d="M 352.7,557.4 L 421.0,603.3" style="fill:none;fill-rule:evenodd;stroke:#000000;stroke-width:2.0px;stroke-linecap:butt;stroke-linejoin:miter;stroke-opacity:1"/>
<path class="bond-2 atom-2 atom-3" d="M 421.0,603.3 L 451.2,588.5" style="fill:none;fill-rule:evenodd;stroke:#000000;stroke-width:2.0px;stroke-linecap:butt;stroke-linejoin:miter;stroke-opacity:1"/>
<path class="bond-2 atom-2 atom-3" d="M 451.2,588.5 L 481.4,573.7" style="fill:none;fill-rule:evenodd;stroke:#FF0000;stroke-width:2.0px;stroke-linecap:butt;stroke-linejoin:miter;stroke-opacity:1"/>
<path class="bond-3 atom-3 atom-4" d="M 508.2,576.1 L 535.7,594.6" style="fill:none;fill-rule:evenodd;stroke:#FF0000;stroke-width:2.0px;stroke-linecap:butt;stroke-linejoin:miter;stroke-opacity:1"/>
<path class="bond-3 atom-3 atom-4" d="M 535.7,594.6 L 563.1,613.0" style="fill:none;fill-rule:evenodd;stroke:#000000;stroke-width:2.0px;stroke-linecap:butt;stroke-linejoin:miter;stroke-opacity:1"/>
<path class="bond-4 atom-4 atom-5" d="M 557.2,609.0 L 554.7,644.6" style="fill:none;fill-rule:evenodd;stroke:#000000;stroke-width:2.0px;stroke-linecap:butt;stroke-linejoin:miter;stroke-opacity:1"/>
<path class="bond-4 atom-4 atom-5" d="M 554.7,644.6 L 552.3,680.1" style="fill:none;fill-rule:evenodd;stroke:#FF0000;stroke-width:2.0px;stroke-linecap:butt;stroke-linejoin:miter;stroke-opacity:1"/>
<path class="bond-4 atom-4 atom-5" d="M 569.5,609.9 L 567.0,645.4" style="fill:none;fill-rule:evenodd;stroke:#000000;stroke-width:2.0px;stroke-linecap:butt;stroke-linejoin:miter;stroke-opacity:1"/>
<path class="bond-4 atom-4 atom-5" d="M 567.0,645.4 L 564.6,681.0" style="fill:none;fill-rule:evenodd;stroke:#FF0000;stroke-width:2.0px;stroke-linecap:butt;stroke-linejoin:miter;stroke-opacity:1"/>
<path class="bond-5 atom-4 atom-6" d="M 563.1,613.0 L 636.9,576.9" style="fill:none;fill-rule:evenodd;stroke:#000000;stroke-width:2.0px;stroke-linecap:butt;stroke-linejoin:miter;stroke-opacity:1"/>
<path class="bond-6 atom-6 atom-7" d="M 636.9,576.9 L 705.2,622.8" style="fill:none;fill-rule:evenodd;stroke:#000000;stroke-width:2.0px;stroke-linecap:butt;stroke-linejoin:miter;stroke-opacity:1"/>
<path class="bond-7 atom-7 atom-8" d="M 705.2,622.8 L 779.0,586.6" style="fill:none;fill-rule:evenodd;stroke:#000000;stroke-width:2.0px;stroke-linecap:butt;stroke-linejoin:miter;stroke-opacity:1"/>
<path class="bond-8 atom-8 atom-9" d="M 784.9,590.6 L 787.4,555.2" style="fill:none;fill-rule:evenodd;stroke:#000000;stroke-width:2.0px;stroke-linecap:butt;stroke-linejoin:miter;stroke-opacity:1"/>
<path class="bond-8 atom-8 atom-9" d="M 787.4,555.2 L 789.8,519.9" style="fill:none;fill-rule:evenodd;stroke:#FF0000;stroke-width:2.0px;stroke-linecap:butt;stroke-linejoin:miter;stroke-opacity:1"/>
<path class="bond-8 atom-8 atom-9" d="M 772.6,589.8 L 775.1,554.4" style="fill:none;fill-rule:evenodd;stroke:#000000;stroke-width:2.0px;stroke-linecap:butt;stroke-linejoin:miter;stroke-opacity:1"/>
<path class="bond-8 atom-8 atom-9" d="M 775.1,554.4 L 777.5,519.0" style="fill:none;fill-rule:evenodd;stroke:#FF0000;stroke-width:2.0px;stroke-linecap:butt;stroke-linejoin:miter;stroke-opacity:1"/>
<path class="bond-9 atom-8 atom-10" d="M 779.0,586.6 L 806.4,605.1" style="fill:none;fill-rule:evenodd;stroke:#000000;stroke-width:2.0px;stroke-linecap:butt;stroke-linejoin:miter;stroke-opacity:1"/>
<path class="bond-9 atom-8 atom-10" d="M 806.4,605.1 L 833.8,623.5" style="fill:none;fill-rule:evenodd;stroke:#FF0000;stroke-width:2.0px;stroke-linecap:butt;stroke-linejoin:miter;stroke-opacity:1"/>
<path class="bond-10 atom-10 atom-11" d="M 860.7,626.0 L 889.3,611.9" style="fill:none;fill-rule:evenodd;stroke:#FF0000;stroke-width:2.0px;stroke-linecap:butt;stroke-linejoin:miter;stroke-opacity:1"/>
<path class="bond-10 atom-10 atom-11" d="M 889.3,611.9 L 918.0,597.9" style="fill:none;fill-rule:evenodd;stroke:#191919;stroke-width:2.0px;stroke-linecap:butt;stroke-linejoin:miter;stroke-opacity:1"/>
<path d="M 351.1,558.2 L 352.7,557.4 L 356.2,559.6" style="fill:none;stroke:#000000;stroke-width:2.0px;stroke-linecap:butt;stroke-linejoin:miter;stroke-opacity:1;"/>
<path d="M 417.6,601.0 L 421.0,603.3 L 422.5,602.5" style="fill:none;stroke:#000000;stroke-width:2.0px;stroke-linecap:butt;stroke-linejoin:miter;stroke-opacity:1;"/>
<path d="M 561.7,612.1 L 563.1,613.0 L 566.8,611.2" style="fill:none;stroke:#000000;stroke-width:2.0px;stroke-linecap:butt;stroke-linejoin:miter;stroke-opacity:1;"/>
<path d="M 633.2,578.7 L 636.9,576.9 L 640.3,579.2" style="fill:none;stroke:#000000;stroke-width:2.0px;stroke-linecap:butt;stroke-linejoin:miter;stroke-opacity:1;"/>
<path d="M 701.7,620.5 L 705.2,622.8 L 708.9,621.0" style="fill:none;stroke:#000000;stroke-width:2.0px;stroke-linecap:butt;stroke-linejoin:miter;stroke-opacity:1;"/>
<path d="M 775.3,588.4 L 779.0,586.6 L 780.4,587.6" style="fill:none;stroke:#000000;stroke-width:2.0px;stroke-linecap:butt;stroke-linejoin:miter;stroke-opacity:1;"/>
<path class="atom-0" d="M 274.5 590.9 L 277.9 587.4 L 273.4 586.5 L 274.1 584.1 L 278.2 586.3 L 277.7 581.7 L 280.1 581.7 L 279.4 586.2 L 283.7 584.2 L 284.4 586.5 L 279.8 587.3 L 283.1 590.9 L 281.1 592.3 L 278.8 588.0 L 276.5 592.3 L 274.5 590.9 " fill="#191919"/>
<path class="atom-3" d="M 484.2 567.2 Q 484.2 561.6, 486.9 558.5 Q 489.7 555.3, 494.8 555.3 Q 500.0 555.3, 502.8 558.5 Q 505.5 561.6, 505.5 567.2 Q 505.5 572.8, 502.7 576.1 Q 499.9 579.2, 494.8 579.2 Q 489.7 579.2, 486.9 576.1 Q 484.2 572.9, 484.2 567.2 M 494.8 576.6 Q 498.4 576.6, 500.3 574.2 Q 502.2 571.8, 502.2 567.2 Q 502.2 562.6, 500.3 560.3 Q 498.4 558.0, 494.8 558.0 Q 491.3 558.0, 489.3 560.3 Q 487.4 562.6, 487.4 567.2 Q 487.4 571.9, 489.3 574.2 Q 491.3 576.6, 494.8 576.6 " fill="#FF0000"/>
<path class="atom-5" d="M 546.7 695.1 Q 546.7 689.5, 549.5 686.4 Q 552.3 683.3, 557.4 683.3 Q 562.6 683.3, 565.4 686.4 Q 568.1 689.5, 568.1 695.1 Q 568.1 700.8, 565.3 704.0 Q 562.5 707.2, 557.4 707.2 Q 552.3 707.2, 549.5 704.0 Q 546.7 700.8, 546.7 695.1 M 557.4 704.6 Q 561.0 704.6, 562.9 702.2 Q 564.8 699.8, 564.8 695.1 Q 564.8 690.5, 562.9 688.2 Q 561.0 685.9, 557.4 685.9 Q 553.9 685.9, 551.9 688.2 Q 550.0 690.5, 550.0 695.1 Q 550.0 699.8, 551.9 702.2 Q 553.9 704.6, 557.4 704.6 " fill="#FF0000"/>
<path class="atom-9" d="M 774.0 504.7 Q 774.0 499.1, 776.7 495.9 Q 779.5 492.8, 784.7 492.8 Q 789.8 492.8, 792.6 495.9 Q 795.3 499.1, 795.3 504.7 Q 795.3 510.3, 792.6 513.5 Q 789.8 516.7, 784.7 516.7 Q 779.5 516.7, 776.7 513.5 Q 774.0 510.3, 774.0 504.7 M 784.7 514.1 Q 788.2 514.1, 790.1 511.7 Q 792.1 509.3, 792.1 504.7 Q 792.1 500.1, 790.1 497.8 Q 788.2 495.4, 784.7 495.4 Q 781.1 495.4, 779.2 497.8 Q 777.3 500.1, 777.3 504.7 Q 777.3 509.4, 779.2 511.7 Q 781.1 514.1, 784.7 514.1 " fill="#FF0000"/>
<path class="atom-10" d="M 836.6 632.6 Q 836.6 627.0, 839.3 623.9 Q 842.1 620.8, 847.3 620.8 Q 852.4 620.8, 855.2 623.9 Q 857.9 627.0, 857.9 632.6 Q 857.9 638.2, 855.1 641.5 Q 852.3 644.7, 847.3 644.7 Q 842.1 644.7, 839.3 641.5 Q 836.6 638.3, 836.6 632.6 M 847.3 642.0 Q 850.8 642.0, 852.7 639.7 Q 854.7 637.3, 854.7 632.6 Q 854.7 628.0, 852.7 625.7 Q 850.8 623.4, 847.3 623.4 Q 843.7 623.4, 841.8 625.7 Q 839.8 628.0, 839.8 632.6 Q 839.8 637.3, 841.8 639.7 Q 843.7 642.0, 847.3 642.0 " fill="#FF0000"/>
<path class="atom-11" d="M 916.7 593.8 L 920.1 590.3 L 915.6 589.4 L 916.3 587.0 L 920.5 589.2 L 919.9 584.6 L 922.3 584.5 L 921.7 589.1 L 925.9 587.1 L 926.6 589.4 L 922.0 590.2 L 925.3 593.8 L 923.3 595.2 L 921.0 590.9 L 918.7 595.2 L 916.7 593.8 " fill="#191919"/>
<path class="bond-0 atom-0 atom-1" d="M 553.6,999.9 L 583.9,999.9" style="fill:none;fill-rule:evenodd;stroke:#191919;stroke-width:2.0px;stroke-linecap:butt;stroke-linejoin:miter;stroke-opacity:1"/>
<path class="bond-0 atom-0 atom-1" d="M 583.9,999.9 L 614.2,999.9" style="fill:none;fill-rule:evenodd;stroke:#FF0000;stroke-width:2.0px;stroke-linecap:butt;stroke-linejoin:miter;stroke-opacity:1"/>
<path class="atom-0" d="M 541.0 997.3 L 544.4 993.8 L 539.9 992.8 L 540.6 990.5 L 544.7 992.6 L 544.1 988.0 L 546.6 988.0 L 545.9 992.6 L 550.2 990.6 L 550.9 992.8 L 546.3 993.7 L 549.6 997.2 L 547.6 998.7 L 545.3 994.3 L 543.0 998.7 L 541.0 997.3 " fill="#191919"/>
<path class="atom-1" d="M 616.9 999.9 Q 616.9 994.3, 619.7 991.2 Q 622.4 988.1, 627.6 988.1 Q 632.8 988.1, 635.5 991.2 Q 638.3 994.3, 638.3 999.9 Q 638.3 1005.6, 635.5 1008.8 Q 632.7 1012.0, 627.6 1012.0 Q 622.5 1012.0, 619.7 1008.8 Q 616.9 1005.6, 616.9 999.9 M 627.6 1009.4 Q 631.2 1009.4, 633.1 1007.0 Q 635.0 1004.6, 635.0 999.9 Q 635.0 995.3, 633.1 993.0 Q 631.2 990.7, 627.6 990.7 Q 624.0 990.7, 622.1 993.0 Q 620.2 995.3, 620.2 999.9 Q 620.2 1004.6, 622.1 1007.0 Q 624.0 1009.4, 627.6 1009.4 " fill="#FF0000"/>
<path class="atom-1" d="M 641.9 988.3 L 645.1 988.3 L 645.1 998.2 L 657.0 998.2 L 657.0 988.3 L 660.1 988.3 L 660.1 1011.6 L 657.0 1011.6 L 657.0 1000.9 L 645.1 1000.9 L 645.1 1011.6 L 641.9 1011.6 L 641.9 988.3 " fill="#FF0000"/>
</svg>