<svg xmlns="http://www.w3.org/2000/svg" xmlns:rdkit="http://www.rdkit.org/xml" xmlns:xlink="http://www.w3.org/1999/xlink" version="1.1" baseProfile="full" xml:space="preserve" width="1200px" height="800px" viewBox="0 0 1200 800">
<!-- END OF HEADER -->
<rect style="opacity:1.0;fill:#FFFFFF;stroke:none" width="1200.0" height="800.0" x="0.0" y="0.0"> </rect>
<path class="bond-0 atom-0 atom-1" d="M 229.4,94.0 L 283.6,98.5" style="fill:none;fill-rule:evenodd;stroke:#191919;stroke-width:2.0px;stroke-linecap:butt;stroke-linejoin:miter;stroke-opacity:1"/>
<path class="bond-0 atom-0 atom-1" d="M 283.6,98.5 L 337.7,103.0" style="fill:none;fill-rule:evenodd;stroke:#FF0000;stroke-width:2.0px;stroke-linecap:butt;stroke-linejoin:miter;stroke-opacity:1"/>
<path class="bond-1 atom-1 atom-2" d="M 364.3,123.8 L 389.1,176.3" style="fill:none;fill-rule:evenodd;stroke:#FF0000;stroke-width:2.0px;stroke-linecap:butt;stroke-linejoin:miter;stroke-opacity:1"/>
<path class="bond-1 atom-1 atom-2" d="M 389.1,176.3 L 413.9,228.8" style="fill:none;fill-rule:evenodd;stroke:#000000;stroke-width:2.0px;stroke-linecap:butt;stroke-linejoin:miter;stroke-opacity:1"/>
<path class="bond-2 atom-2 atom-3" d="M 413.9,228.8 L 550.9,240.3" style="fill:none;fill-rule:evenodd;stroke:#000000;stroke-width:2.0px;stroke-linecap:butt;stroke-linejoin:miter;stroke-opacity:1"/>
<path class="bond-3 atom-3 atom-4" d="M 550.9,240.3 L 562.3,103.2" style="fill:none;fill-rule:evenodd;stroke:#000000;stroke-width:2.0px;stroke-linecap:butt;stroke-linejoin:miter;stroke-opacity:1"/>
<path class="bond-4 atom-3 atom-5" d="M 550.9,240.3 L 539.5,377.3" style="fill:none;fill-rule:evenodd;stroke:#000000;stroke-width:2.0px;stroke-linecap:butt;stroke-linejoin:miter;stroke-opacity:1"/>
<path class="bond-5 atom-3 atom-6" d="M 550.9,240.3 L 688.0,251.7" style="fill:none;fill-rule:evenodd;stroke:#000000;stroke-width:2.0px;stroke-linecap:butt;stroke-linejoin:miter;stroke-opacity:1"/>
<path class="bond-6 atom-6 atom-7" d="M 688.0,251.7 L 720.5,204.8" style="fill:none;fill-rule:evenodd;stroke:#000000;stroke-width:2.0px;stroke-linecap:butt;stroke-linejoin:miter;stroke-opacity:1"/>
<path class="bond-6 atom-6 atom-7" d="M 720.5,204.8 L 753.0,158.0" style="fill:none;fill-rule:evenodd;stroke:#FF0000;stroke-width:2.0px;stroke-linecap:butt;stroke-linejoin:miter;stroke-opacity:1"/>
<path class="bond-7 atom-7 atom-8" d="M 783.9,140.1 L 843.7,145.1" style="fill:none;fill-rule:evenodd;stroke:#FF0000;stroke-width:2.0px;stroke-linecap:butt;stroke-linejoin:miter;stroke-opacity:1"/>
<path class="bond-7 atom-7 atom-8" d="M 843.7,145.1 L 903.4,150.1" style="fill:none;fill-rule:evenodd;stroke:#000000;stroke-width:2.0px;stroke-linecap:butt;stroke-linejoin:miter;stroke-opacity:1"/>
<path class="bond-8 atom-8 atom-9" d="M 903.4,150.1 L 941.5,95.1" style="fill:none;fill-rule:evenodd;stroke:#000000;stroke-width:2.0px;stroke-linecap:butt;stroke-linejoin:miter;stroke-opacity:1"/>
<path class="bond-8 atom-8 atom-9" d="M 941.5,95.1 L 979.7,40.2" style="fill:none;fill-rule:evenodd;stroke:#191919;stroke-width:2.0px;stroke-linecap:butt;stroke-linejoin:miter;stroke-opacity:1"/>
<path class="bond-9 atom-8 atom-10" d="M 891.5,149.1 L 917.7,204.6" style="fill:none;fill-rule:evenodd;stroke:#000000;stroke-width:2.0px;stroke-linecap:butt;stroke-linejoin:miter;stroke-opacity:1"/>
<path class="bond-9 atom-8 atom-10" d="M 917.7,204.6 L 943.8,260.0" style="fill:none;fill-rule:evenodd;stroke:#FF0000;stroke-width:2.0px;stroke-linecap:butt;stroke-linejoin:miter;stroke-opacity:1"/>
<path class="bond-9 atom-8 atom-10" d="M 910.2,140.3 L 936.3,195.8" style="fill:none;fill-rule:evenodd;stroke:#000000;stroke-width:2.0px;stroke-linecap:butt;stroke-linejoin:miter;stroke-opacity:1"/>
<path class="bond-9 atom-8 atom-10" d="M 936.3,195.8 L 962.5,251.2" style="fill:none;fill-rule:evenodd;stroke:#FF0000;stroke-width:2.0px;stroke-linecap:butt;stroke-linejoin:miter;stroke-opacity:1"/>
<path d="M 412.6,226.2 L 413.9,228.8 L 420.7,229.4" style="fill:none;stroke:#000000;stroke-width:2.0px;stroke-linecap:butt;stroke-linejoin:miter;stroke-opacity:1;"/>
<path d="M 681.1,251.1 L 688.0,251.7 L 689.6,249.3" style="fill:none;stroke:#000000;stroke-width:2.0px;stroke-linecap:butt;stroke-linejoin:miter;stroke-opacity:1;"/>
<path d="M 900.4,149.8 L 903.4,150.1 L 905.3,147.3" style="fill:none;stroke:#000000;stroke-width:2.0px;stroke-linecap:butt;stroke-linejoin:miter;stroke-opacity:1;"/>
<path class="atom-0" d="M 212.8 89.9 L 217.0 85.7 L 211.5 84.5 L 212.3 81.7 L 217.4 84.3 L 216.7 78.7 L 219.7 78.7 L 218.8 84.2 L 224.0 81.8 L 224.9 84.5 L 219.3 85.6 L 223.3 89.9 L 220.8 91.6 L 218.1 86.3 L 215.3 91.6 L 212.8 89.9 " fill="#191919"/>
<path class="atom-1" d="M 342.2 104.5 Q 342.2 97.7, 345.6 93.9 Q 349.0 90.1, 355.2 90.1 Q 361.5 90.1, 364.9 93.9 Q 368.2 97.7, 368.2 104.5 Q 368.2 111.4, 364.8 115.3 Q 361.4 119.2, 355.2 119.2 Q 349.0 119.2, 345.6 115.3 Q 342.2 111.5, 342.2 104.5 M 355.2 116.0 Q 359.6 116.0, 361.9 113.1 Q 364.2 110.2, 364.2 104.5 Q 364.2 99.0, 361.9 96.2 Q 359.6 93.3, 355.2 93.3 Q 350.9 93.3, 348.6 96.1 Q 346.2 98.9, 346.2 104.5 Q 346.2 110.3, 348.6 113.1 Q 350.9 116.0, 355.2 116.0 " fill="#FF0000"/>
<path class="atom-7" d="M 753.4 138.8 Q 753.4 132.0, 756.7 128.2 Q 760.1 124.4, 766.4 124.4 Q 772.6 124.4, 776.0 128.2 Q 779.4 132.0, 779.4 138.8 Q 779.4 145.6, 776.0 149.6 Q 772.6 153.4, 766.4 153.4 Q 760.1 153.4, 756.7 149.6 Q 753.4 145.7, 753.4 138.8 M 766.4 150.2 Q 770.7 150.2, 773.0 147.4 Q 775.4 144.4, 775.4 138.8 Q 775.4 133.2, 773.0 130.4 Q 770.7 127.6, 766.4 127.6 Q 762.0 127.6, 759.7 130.4 Q 757.4 133.2, 757.4 138.8 Q 757.4 144.5, 759.7 147.4 Q 762.0 150.2, 766.4 150.2 " fill="#FF0000"/>
<path class="atom-9" d="M 976.5 33.9 L 980.6 29.7 L 975.1 28.6 L 976.0 25.7 L 981.0 28.3 L 980.3 22.7 L 983.3 22.7 L 982.5 28.3 L 987.6 25.9 L 988.5 28.6 L 982.9 29.6 L 986.9 33.9 L 984.5 35.7 L 981.7 30.4 L 978.9 35.7 L 976.5 33.9 " fill="#191919"/>
<path class="atom-10" d="M 949.1 274.6 Q 949.1 267.8, 952.4 264.0 Q 955.8 260.2, 962.1 260.2 Q 968.3 260.2, 971.7 264.0 Q 975.1 267.8, 975.1 274.6 Q 975.1 281.4, 971.7 285.4 Q 968.3 289.2, 962.1 289.2 Q 955.8 289.2, 952.4 285.4 Q 949.1 281.5, 949.1 274.6 M 962.1 286.0 Q 966.4 286.0, 968.7 283.2 Q 971.1 280.2, 971.1 274.6 Q 971.1 269.0, 968.7 266.2 Q 966.4 263.4, 962.1 263.4 Q 957.7 263.4, 955.4 266.2 Q 953.1 269.0, 953.1 274.6 Q 953.1 280.3, 955.4 283.2 Q 957.7 286.0, 962.1 286.0 " fill="#FF0000"/>
<path class="bond-0 atom-0 atom-1" d="M 135.7,651.1 L 182.9,627.6" style="fill:none;fill-rule:evenodd;stroke:#191919;stroke-width:2.0px;stroke-linecap:butt;stroke-linejoin:miter;stroke-opacity:1"/>
<path class="bond-0 atom-0 atom-1" d="M 182.9,627.6 L 230.0,604.1" style="fill:none;fill-rule:evenodd;stroke:#FF0000;stroke-width:2.0px;stroke-linecap:butt;stroke-linejoin:miter;stroke-opacity:1"/>
<path class="bond-1 atom-1 atom-2" d="M 265.1,606.9 L 313.7,639.0" style="fill:none;fill-rule:evenodd;stroke:#FF0000;stroke-width:2.0px;stroke-linecap:butt;stroke-linejoin:miter;stroke-opacity:1"/>
<path class="bond-1 atom-1 atom-2" d="M 313.7,639.0 L 362.2,671.2" style="fill:none;fill-rule:evenodd;stroke:#000000;stroke-width:2.0px;stroke-linecap:butt;stroke-linejoin:miter;stroke-opacity:1"/>
<path class="bond-2 atom-2 atom-3" d="M 362.2,671.2 L 485.3,609.7" style="fill:none;fill-rule:evenodd;stroke:#000000;stroke-width:2.0px;stroke-linecap:butt;stroke-linejoin:miter;stroke-opacity:1"/>
<path class="bond-3 atom-3 atom-4" d="M 485.3,609.7 L 600.0,685.6" style="fill:none;fill-rule:evenodd;stroke:#000000;stroke-width:2.0px;stroke-linecap:butt;stroke-linejoin:miter;stroke-opacity:1"/>
<path class="bond-4 atom-4 atom-5" d="M 600.0,685.6 L 723.0,624.2" style="fill:none;fill-rule:evenodd;stroke:#000000;stroke-width:2.0px;stroke-linecap:butt;stroke-linejoin:miter;stroke-opacity:1"/>
<path class="bond-5 atom-5 atom-6" d="M 723.0,624.2 L 837.8,700.0" style="fill:none;fill-rule:evenodd;stroke:#000000;stroke-width:2.0px;stroke-linecap:butt;stroke-linejoin:miter;stroke-opacity:1"/>
<path class="bond-6 atom-6 atom-7" d="M 837.8,700.0 L 960.8,638.6" style="fill:none;fill-rule:evenodd;stroke:#000000;stroke-width:2.0px;stroke-linecap:butt;stroke-linejoin:miter;stroke-opacity:1"/>
<path class="bond-7 atom-7 atom-8" d="M 960.8,638.6 L 1012.5,672.8" style="fill:none;fill-rule:evenodd;stroke:#000000;stroke-width:2.0px;stroke-linecap:butt;stroke-linejoin:miter;stroke-opacity:1"/>
<path class="bond-7 atom-7 atom-8" d="M 1012.5,672.8 L 1064.3,707.0" style="fill:none;fill-rule:evenodd;stroke:#191919;stroke-width:2.0px;stroke-linecap:butt;stroke-linejoin:miter;stroke-opacity:1"/>
<path class="bond-8 atom-7 atom-9" d="M 970.7,645.2 L 974.5,583.2" style="fill:none;fill-rule:evenodd;stroke:#000000;stroke-width:2.0px;stroke-linecap:butt;stroke-linejoin:miter;stroke-opacity:1"/>
<path class="bond-8 atom-7 atom-9" d="M 974.5,583.2 L 978.2,521.2" style="fill:none;fill-rule:evenodd;stroke:#FF0000;stroke-width:2.0px;stroke-linecap:butt;stroke-linejoin:miter;stroke-opacity:1"/>
<path class="bond-8 atom-7 atom-9" d="M 950.1,643.9 L 953.9,582.0" style="fill:none;fill-rule:evenodd;stroke:#000000;stroke-width:2.0px;stroke-linecap:butt;stroke-linejoin:miter;stroke-opacity:1"/>
<path class="bond-8 atom-7 atom-9" d="M 953.9,582.0 L 957.7,520.0" style="fill:none;fill-rule:evenodd;stroke:#FF0000;stroke-width:2.0px;stroke-linecap:butt;stroke-linejoin:miter;stroke-opacity:1"/>
<path d="M 359.8,669.5 L 362.2,671.2 L 368.4,668.1" style="fill:none;stroke:#000000;stroke-width:2.0px;stroke-linecap:butt;stroke-linejoin:miter;stroke-opacity:1;"/>
<path d="M 479.1,612.8 L 485.3,609.7 L 491.0,613.5" style="fill:none;stroke:#000000;stroke-width:2.0px;stroke-linecap:butt;stroke-linejoin:miter;stroke-opacity:1;"/>
<path d="M 594.3,681.8 L 600.0,685.6 L 606.2,682.5" style="fill:none;stroke:#000000;stroke-width:2.0px;stroke-linecap:butt;stroke-linejoin:miter;stroke-opacity:1;"/>
<path d="M 716.9,627.2 L 723.0,624.2 L 728.8,628.0" style="fill:none;stroke:#000000;stroke-width:2.0px;stroke-linecap:butt;stroke-linejoin:miter;stroke-opacity:1;"/>
<path d="M 832.0,696.2 L 837.8,700.0 L 843.9,696.9" style="fill:none;stroke:#000000;stroke-width:2.0px;stroke-linecap:butt;stroke-linejoin:miter;stroke-opacity:1;"/>
<path d="M 954.6,641.7 L 960.8,638.6 L 963.4,640.3" style="fill:none;stroke:#000000;stroke-width:2.0px;stroke-linecap:butt;stroke-linejoin:miter;stroke-opacity:1;"/>
<path class="atom-0" d="M 119.2 653.6 L 123.3 649.3 L 117.8 648.2 L 118.6 645.4 L 123.7 647.9 L 123.0 642.4 L 126.0 642.3 L 125.2 647.9 L 130.3 645.5 L 131.2 648.2 L 125.6 649.2 L 129.6 653.5 L 127.2 655.3 L 124.4 650.0 L 121.6 655.3 L 119.2 653.6 " fill="#191919"/>
<path class="atom-1" d="M 234.5 595.4 Q 234.5 588.6, 237.9 584.8 Q 241.3 581.0, 247.5 581.0 Q 253.8 581.0, 257.2 584.8 Q 260.5 588.6, 260.5 595.4 Q 260.5 602.3, 257.1 606.2 Q 253.7 610.1, 247.5 610.1 Q 241.3 610.1, 237.9 606.2 Q 234.5 602.3, 234.5 595.4 M 247.5 606.9 Q 251.9 606.9, 254.2 604.0 Q 256.5 601.1, 256.5 595.4 Q 256.5 589.8, 254.2 587.0 Q 251.9 584.2, 247.5 584.2 Q 243.2 584.2, 240.9 587.0 Q 238.5 589.8, 238.5 595.4 Q 238.5 601.1, 240.9 604.0 Q 243.2 606.9, 247.5 606.9 " fill="#FF0000"/>
<path class="atom-8" d="M 1070.2 711.3 L 1074.3 707.0 L 1068.8 705.9 L 1069.6 703.1 L 1074.7 705.6 L 1074.0 700.1 L 1077.0 700.0 L 1076.2 705.6 L 1081.3 703.2 L 1082.2 705.9 L 1076.6 707.0 L 1080.6 711.2 L 1078.2 713.0 L 1075.4 707.7 L 1072.6 713.0 L 1070.2 711.3 " fill="#191919"/>
<path class="atom-9" d="M 956.1 501.4 Q 956.1 494.6, 959.5 490.8 Q 962.8 487.0, 969.1 487.0 Q 975.4 487.0, 978.8 490.8 Q 982.1 494.6, 982.1 501.4 Q 982.1 508.3, 978.7 512.2 Q 975.3 516.1, 969.1 516.1 Q 962.9 516.1, 959.5 512.2 Q 956.1 508.3, 956.1 501.4 M 969.1 512.9 Q 973.4 512.9, 975.8 510.0 Q 978.1 507.1, 978.1 501.4 Q 978.1 495.8, 975.8 493.0 Q 973.4 490.2, 969.1 490.2 Q 964.8 490.2, 962.4 493.0 Q 960.1 495.8, 960.1 501.4 Q 960.1 507.1, 962.4 510.0 Q 964.8 512.9, 969.1 512.9 " fill="#FF0000"/>
</svg>