<svg xmlns="http://www.w3.org/2000/svg" xmlns:rdkit="http://www.rdkit.org/xml" xmlns:xlink="http://www.w3.org/1999/xlink" version="1.1" baseProfile="full" xml:space="preserve" width="1200px" height="800px" viewBox="0 0 1200 800">
<!-- END OF HEADER -->
<rect style="opacity:1.0;fill:#FFFFFF;stroke:none" width="1200.0" height="800.0" x="0.0" y="0.0"> </rect>
<path class="bond-0 atom-0 atom-1" d="M 170.5,174.8 L 199.9,161.9" style="fill:none;fill-rule:evenodd;stroke:#191919;stroke-width:2.0px;stroke-linecap:butt;stroke-linejoin:miter;stroke-opacity:1"/>
<path class="bond-0 atom-0 atom-1" d="M 199.9,161.9 L 229.3,149.1" style="fill:none;fill-rule:evenodd;stroke:#FF0000;stroke-width:2.0px;stroke-linecap:butt;stroke-linejoin:miter;stroke-opacity:1"/>
<path class="bond-1 atom-1 atom-2" d="M 258.6,153.4 L 287.5,174.7" style="fill:none;fill-rule:evenodd;stroke:#FF0000;stroke-width:2.0px;stroke-linecap:butt;stroke-linejoin:miter;stroke-opacity:1"/>
<path class="bond-1 atom-1 atom-2" d="M 287.5,174.7 L 316.4,196.0" style="fill:none;fill-rule:evenodd;stroke:#000000;stroke-width:2.0px;stroke-linecap:butt;stroke-linejoin:miter;stroke-opacity:1"/>
<path class="bond-2 atom-2 atom-3" d="M 316.4,196.0 L 398.9,159.9" style="fill:none;fill-rule:evenodd;stroke:#000000;stroke-width:2.0px;stroke-linecap:butt;stroke-linejoin:miter;stroke-opacity:1"/>
<path class="bond-3 atom-3 atom-4" d="M 398.9,159.9 L 471.3,213.3" style="fill:none;fill-rule:evenodd;stroke:#000000;stroke-width:2.0px;stroke-linecap:butt;stroke-linejoin:miter;stroke-opacity:1"/>
<path class="bond-4 atom-4 atom-5" d="M 471.3,213.3 L 553.8,177.2" style="fill:none;fill-rule:evenodd;stroke:#000000;stroke-width:2.0px;stroke-linecap:butt;stroke-linejoin:miter;stroke-opacity:1"/>
<path class="bond-5 atom-5 atom-6" d="M 553.8,177.2 L 582.7,198.5" style="fill:none;fill-rule:evenodd;stroke:#000000;stroke-width:2.0px;stroke-linecap:butt;stroke-linejoin:miter;stroke-opacity:1"/>
<path class="bond-5 atom-5 atom-6" d="M 582.7,198.5 L 611.6,219.8" style="fill:none;fill-rule:evenodd;stroke:#FF0000;stroke-width:2.0px;stroke-linecap:butt;stroke-linejoin:miter;stroke-opacity:1"/>
<path class="bond-6 atom-6 atom-7" d="M 640.9,224.2 L 674.8,209.3" style="fill:none;fill-rule:evenodd;stroke:#FF0000;stroke-width:2.0px;stroke-linecap:butt;stroke-linejoin:miter;stroke-opacity:1"/>
<path class="bond-6 atom-6 atom-7" d="M 674.8,209.3 L 708.7,194.5" style="fill:none;fill-rule:evenodd;stroke:#000000;stroke-width:2.0px;stroke-linecap:butt;stroke-linejoin:miter;stroke-opacity:1"/>
<path class="bond-7 atom-7 atom-8" d="M 715.0,199.1 L 719.3,160.6" style="fill:none;fill-rule:evenodd;stroke:#000000;stroke-width:2.0px;stroke-linecap:butt;stroke-linejoin:miter;stroke-opacity:1"/>
<path class="bond-7 atom-7 atom-8" d="M 719.3,160.6 L 723.6,122.1" style="fill:none;fill-rule:evenodd;stroke:#FF0000;stroke-width:2.0px;stroke-linecap:butt;stroke-linejoin:miter;stroke-opacity:1"/>
<path class="bond-7 atom-7 atom-8" d="M 701.6,197.6 L 705.9,159.1" style="fill:none;fill-rule:evenodd;stroke:#000000;stroke-width:2.0px;stroke-linecap:butt;stroke-linejoin:miter;stroke-opacity:1"/>
<path class="bond-7 atom-7 atom-8" d="M 705.9,159.1 L 710.2,120.6" style="fill:none;fill-rule:evenodd;stroke:#FF0000;stroke-width:2.0px;stroke-linecap:butt;stroke-linejoin:miter;stroke-opacity:1"/>
<path class="bond-8 atom-7 atom-9" d="M 708.7,194.5 L 781.2,247.9" style="fill:none;fill-rule:evenodd;stroke:#000000;stroke-width:2.0px;stroke-linecap:butt;stroke-linejoin:miter;stroke-opacity:1"/>
<path class="bond-9 atom-9 atom-10" d="M 781.2,247.9 L 863.6,211.8" style="fill:none;fill-rule:evenodd;stroke:#000000;stroke-width:2.0px;stroke-linecap:butt;stroke-linejoin:miter;stroke-opacity:1"/>
<path class="bond-10 atom-10 atom-11" d="M 863.6,211.8 L 849.2,178.7" style="fill:none;fill-rule:evenodd;stroke:#000000;stroke-width:2.0px;stroke-linecap:butt;stroke-linejoin:miter;stroke-opacity:1"/>
<path class="bond-10 atom-10 atom-11" d="M 849.2,178.7 L 834.7,145.6" style="fill:none;fill-rule:evenodd;stroke:#FF0000;stroke-width:2.0px;stroke-linecap:butt;stroke-linejoin:miter;stroke-opacity:1"/>
<path class="bond-11 atom-10 atom-12" d="M 863.6,211.8 L 946.1,175.7" style="fill:none;fill-rule:evenodd;stroke:#000000;stroke-width:2.0px;stroke-linecap:butt;stroke-linejoin:miter;stroke-opacity:1"/>
<path class="bond-12 atom-12 atom-13" d="M 946.1,175.7 L 956.1,86.3" style="fill:none;fill-rule:evenodd;stroke:#000000;stroke-width:2.0px;stroke-linecap:butt;stroke-linejoin:miter;stroke-opacity:1"/>
<path class="bond-13 atom-13 atom-14" d="M 956.1,86.3 L 995.4,69.1" style="fill:none;fill-rule:evenodd;stroke:#000000;stroke-width:2.0px;stroke-linecap:butt;stroke-linejoin:miter;stroke-opacity:1"/>
<path class="bond-13 atom-13 atom-14" d="M 995.4,69.1 L 1034.7,51.9" style="fill:none;fill-rule:evenodd;stroke:#191919;stroke-width:2.0px;stroke-linecap:butt;stroke-linejoin:miter;stroke-opacity:1"/>
<path class="bond-14 atom-13 atom-15" d="M 963.2,83.1 L 932.7,60.7" style="fill:none;fill-rule:evenodd;stroke:#000000;stroke-width:2.0px;stroke-linecap:butt;stroke-linejoin:miter;stroke-opacity:1"/>
<path class="bond-14 atom-13 atom-15" d="M 932.7,60.7 L 902.3,38.3" style="fill:none;fill-rule:evenodd;stroke:#FF0000;stroke-width:2.0px;stroke-linecap:butt;stroke-linejoin:miter;stroke-opacity:1"/>
<path class="bond-14 atom-13 atom-15" d="M 955.2,94.0 L 924.7,71.6" style="fill:none;fill-rule:evenodd;stroke:#000000;stroke-width:2.0px;stroke-linecap:butt;stroke-linejoin:miter;stroke-opacity:1"/>
<path class="bond-14 atom-13 atom-15" d="M 924.7,71.6 L 894.3,49.1" style="fill:none;fill-rule:evenodd;stroke:#FF0000;stroke-width:2.0px;stroke-linecap:butt;stroke-linejoin:miter;stroke-opacity:1"/>
<path class="bond-15 atom-10 atom-16" d="M 863.6,211.8 L 899.7,294.2" style="fill:none;fill-rule:evenodd;stroke:#000000;stroke-width:2.0px;stroke-linecap:butt;stroke-linejoin:miter;stroke-opacity:1"/>
<path class="bond-16 atom-16 atom-17" d="M 899.7,294.2 L 989.2,304.2" style="fill:none;fill-rule:evenodd;stroke:#000000;stroke-width:2.0px;stroke-linecap:butt;stroke-linejoin:miter;stroke-opacity:1"/>
<path class="bond-17 atom-16 atom-18" d="M 896.6,287.1 L 874.6,317.0" style="fill:none;fill-rule:evenodd;stroke:#000000;stroke-width:2.0px;stroke-linecap:butt;stroke-linejoin:miter;stroke-opacity:1"/>
<path class="bond-17 atom-16 atom-18" d="M 874.6,317.0 L 852.6,346.9" style="fill:none;fill-rule:evenodd;stroke:#FF0000;stroke-width:2.0px;stroke-linecap:butt;stroke-linejoin:miter;stroke-opacity:1"/>
<path class="bond-17 atom-16 atom-18" d="M 907.5,295.1 L 885.5,325.0" style="fill:none;fill-rule:evenodd;stroke:#000000;stroke-width:2.0px;stroke-linecap:butt;stroke-linejoin:miter;stroke-opacity:1"/>
<path class="bond-17 atom-16 atom-18" d="M 885.5,325.0 L 863.5,354.9" style="fill:none;fill-rule:evenodd;stroke:#FF0000;stroke-width:2.0px;stroke-linecap:butt;stroke-linejoin:miter;stroke-opacity:1"/>
<path d="M 315.0,194.9 L 316.4,196.0 L 320.5,194.2" style="fill:none;stroke:#000000;stroke-width:2.0px;stroke-linecap:butt;stroke-linejoin:miter;stroke-opacity:1;"/>
<path d="M 394.7,161.7 L 398.9,159.9 L 402.5,162.6" style="fill:none;stroke:#000000;stroke-width:2.0px;stroke-linecap:butt;stroke-linejoin:miter;stroke-opacity:1;"/>
<path d="M 467.7,210.6 L 471.3,213.3 L 475.4,211.5" style="fill:none;stroke:#000000;stroke-width:2.0px;stroke-linecap:butt;stroke-linejoin:miter;stroke-opacity:1;"/>
<path d="M 549.7,179.0 L 553.8,177.2 L 555.2,178.3" style="fill:none;stroke:#000000;stroke-width:2.0px;stroke-linecap:butt;stroke-linejoin:miter;stroke-opacity:1;"/>
<path d="M 707.0,195.2 L 708.7,194.5 L 712.3,197.2" style="fill:none;stroke:#000000;stroke-width:2.0px;stroke-linecap:butt;stroke-linejoin:miter;stroke-opacity:1;"/>
<path d="M 777.6,245.2 L 781.2,247.9 L 785.3,246.1" style="fill:none;stroke:#000000;stroke-width:2.0px;stroke-linecap:butt;stroke-linejoin:miter;stroke-opacity:1;"/>
<path d="M 942.0,177.5 L 946.1,175.7 L 946.6,171.2" style="fill:none;stroke:#000000;stroke-width:2.0px;stroke-linecap:butt;stroke-linejoin:miter;stroke-opacity:1;"/>
<path d="M 955.6,90.7 L 956.1,86.3 L 958.0,85.4" style="fill:none;stroke:#000000;stroke-width:2.0px;stroke-linecap:butt;stroke-linejoin:miter;stroke-opacity:1;"/>
<path d="M 897.9,290.1 L 899.7,294.2 L 904.2,294.7" style="fill:none;stroke:#000000;stroke-width:2.0px;stroke-linecap:butt;stroke-linejoin:miter;stroke-opacity:1;"/>
<path class="atom-0" d="M 156.7 175.9 L 160.4 172.1 L 155.4 171.0 L 156.2 168.5 L 160.8 170.8 L 160.1 165.8 L 162.8 165.8 L 162.1 170.8 L 166.7 168.6 L 167.5 171.0 L 162.5 172.0 L 166.1 175.8 L 163.9 177.4 L 161.4 172.7 L 158.9 177.4 L 156.7 175.9 " fill="#191919"/>
<path class="atom-1" d="M 232.2 142.7 Q 232.2 136.6, 235.2 133.2 Q 238.3 129.7, 243.9 129.7 Q 249.6 129.7, 252.6 133.2 Q 255.6 136.6, 255.6 142.7 Q 255.6 148.9, 252.6 152.4 Q 249.5 155.9, 243.9 155.9 Q 238.3 155.9, 235.2 152.4 Q 232.2 148.9, 232.2 142.7 M 243.9 153.0 Q 247.8 153.0, 249.9 150.4 Q 252.0 147.8, 252.0 142.7 Q 252.0 137.7, 249.9 135.2 Q 247.8 132.6, 243.9 132.6 Q 240.0 132.6, 237.9 135.1 Q 235.8 137.7, 235.8 142.7 Q 235.8 147.9, 237.9 150.4 Q 240.0 153.0, 243.9 153.0 " fill="#FF0000"/>
<path class="atom-6" d="M 614.6 230.7 Q 614.6 224.5, 617.6 221.1 Q 620.6 217.7, 626.3 217.7 Q 631.9 217.7, 634.9 221.1 Q 638.0 224.5, 638.0 230.7 Q 638.0 236.8, 634.9 240.4 Q 631.8 243.9, 626.3 243.9 Q 620.6 243.9, 617.6 240.4 Q 614.6 236.9, 614.6 230.7 M 626.3 241.0 Q 630.1 241.0, 632.2 238.4 Q 634.4 235.8, 634.4 230.7 Q 634.4 225.6, 632.2 223.1 Q 630.1 220.6, 626.3 220.6 Q 622.4 220.6, 620.2 223.1 Q 618.2 225.6, 618.2 230.7 Q 618.2 235.8, 620.2 238.4 Q 622.4 241.0, 626.3 241.0 " fill="#FF0000"/>
<path class="atom-8" d="M 707.0 105.1 Q 707.0 99.0, 710.0 95.6 Q 713.0 92.2, 718.7 92.2 Q 724.3 92.2, 727.4 95.6 Q 730.4 99.0, 730.4 105.1 Q 730.4 111.3, 727.3 114.8 Q 724.3 118.3, 718.7 118.3 Q 713.1 118.3, 710.0 114.8 Q 707.0 111.3, 707.0 105.1 M 718.7 115.5 Q 722.6 115.5, 724.7 112.9 Q 726.8 110.2, 726.8 105.1 Q 726.8 100.1, 724.7 97.6 Q 722.6 95.0, 718.7 95.0 Q 714.8 95.0, 712.7 97.6 Q 710.6 100.1, 710.6 105.1 Q 710.6 110.3, 712.7 112.9 Q 714.8 115.5, 718.7 115.5 " fill="#FF0000"/>
<path class="atom-11" d="M 790.7 116.7 L 794.1 116.7 L 794.1 127.6 L 807.2 127.6 L 807.2 116.7 L 810.6 116.7 L 810.6 142.2 L 807.2 142.2 L 807.2 130.4 L 794.1 130.4 L 794.1 142.2 L 790.7 142.2 L 790.7 116.7 " fill="#FF0000"/>
<path class="atom-11" d="M 815.9 129.4 Q 815.9 123.3, 818.9 119.9 Q 821.9 116.4, 827.6 116.4 Q 833.2 116.4, 836.2 119.9 Q 839.3 123.3, 839.3 129.4 Q 839.3 135.6, 836.2 139.1 Q 833.1 142.6, 827.6 142.6 Q 821.9 142.6, 818.9 139.1 Q 815.9 135.6, 815.9 129.4 M 827.6 139.7 Q 831.4 139.7, 833.5 137.1 Q 835.7 134.5, 835.7 129.4 Q 835.7 124.4, 833.5 121.9 Q 831.4 119.3, 827.6 119.3 Q 823.7 119.3, 821.5 121.8 Q 819.5 124.4, 819.5 129.4 Q 819.5 134.6, 821.5 137.1 Q 823.7 139.7, 827.6 139.7 " fill="#FF0000"/>
<path class="atom-14" d="M 1033.7 47.3 L 1037.5 43.5 L 1032.5 42.5 L 1033.3 40.0 L 1037.8 42.3 L 1037.2 37.3 L 1039.9 37.2 L 1039.1 42.2 L 1043.8 40.1 L 1044.6 42.5 L 1039.5 43.4 L 1043.1 47.3 L 1040.9 48.9 L 1038.4 44.1 L 1035.9 48.9 L 1033.7 47.3 " fill="#191919"/>
<path class="atom-15" d="M 871.9 33.0 Q 871.9 26.8, 874.9 23.4 Q 878.0 20.0, 883.6 20.0 Q 889.3 20.0, 892.3 23.4 Q 895.3 26.8, 895.3 33.0 Q 895.3 39.2, 892.2 42.7 Q 889.2 46.2, 883.6 46.2 Q 878.0 46.2, 874.9 42.7 Q 871.9 39.2, 871.9 33.0 M 883.6 43.3 Q 887.5 43.3, 889.6 40.7 Q 891.7 38.1, 891.7 33.0 Q 891.7 28.0, 889.6 25.4 Q 887.5 22.9, 883.6 22.9 Q 879.7 22.9, 877.6 25.4 Q 875.5 27.9, 875.5 33.0 Q 875.5 38.1, 877.6 40.7 Q 879.7 43.3, 883.6 43.3 " fill="#FF0000"/>
<path class="atom-18" d="M 834.7 366.8 Q 834.7 360.7, 837.7 357.2 Q 840.7 353.8, 846.4 353.8 Q 852.0 353.8, 855.0 357.2 Q 858.1 360.7, 858.1 366.8 Q 858.1 373.0, 855.0 376.5 Q 851.9 380.0, 846.4 380.0 Q 840.7 380.0, 837.7 376.5 Q 834.7 373.0, 834.7 366.8 M 846.4 377.1 Q 850.2 377.1, 852.3 374.5 Q 854.5 371.9, 854.5 366.8 Q 854.5 361.8, 852.3 359.3 Q 850.2 356.7, 846.4 356.7 Q 842.5 356.7, 840.3 359.2 Q 838.3 361.7, 838.3 366.8 Q 838.3 371.9, 840.3 374.5 Q 842.5 377.1, 846.4 377.1 " fill="#FF0000"/>
<path class="bond-0 atom-0 atom-1" d="M 456.9,569.9 L 488.0,560.1" style="fill:none;fill-rule:evenodd;stroke:#191919;stroke-width:2.0px;stroke-linecap:butt;stroke-linejoin:miter;stroke-opacity:1"/>
<path class="bond-0 atom-0 atom-1" d="M 488.0,560.1 L 519.1,550.4" style="fill:none;fill-rule:evenodd;stroke:#FF0000;stroke-width:2.0px;stroke-linecap:butt;stroke-linejoin:miter;stroke-opacity:1"/>
<path class="bond-1 atom-1 atom-2" d="M 548.5,559.3 L 574.2,583.1" style="fill:none;fill-rule:evenodd;stroke:#FF0000;stroke-width:2.0px;stroke-linecap:butt;stroke-linejoin:miter;stroke-opacity:1"/>
<path class="bond-1 atom-1 atom-2" d="M 574.2,583.1 L 600.0,606.8" style="fill:none;fill-rule:evenodd;stroke:#000000;stroke-width:2.0px;stroke-linecap:butt;stroke-linejoin:miter;stroke-opacity:1"/>
<path class="bond-2 atom-2 atom-3" d="M 594.3,601.5 L 585.8,639.4" style="fill:none;fill-rule:evenodd;stroke:#000000;stroke-width:2.0px;stroke-linecap:butt;stroke-linejoin:miter;stroke-opacity:1"/>
<path class="bond-2 atom-2 atom-3" d="M 585.8,639.4 L 577.3,677.3" style="fill:none;fill-rule:evenodd;stroke:#FF0000;stroke-width:2.0px;stroke-linecap:butt;stroke-linejoin:miter;stroke-opacity:1"/>
<path class="bond-2 atom-2 atom-3" d="M 607.4,604.5 L 598.9,642.3" style="fill:none;fill-rule:evenodd;stroke:#000000;stroke-width:2.0px;stroke-linecap:butt;stroke-linejoin:miter;stroke-opacity:1"/>
<path class="bond-2 atom-2 atom-3" d="M 598.9,642.3 L 590.4,680.2" style="fill:none;fill-rule:evenodd;stroke:#FF0000;stroke-width:2.0px;stroke-linecap:butt;stroke-linejoin:miter;stroke-opacity:1"/>
<path class="bond-3 atom-2 atom-4" d="M 600.0,606.8 L 685.9,579.9" style="fill:none;fill-rule:evenodd;stroke:#000000;stroke-width:2.0px;stroke-linecap:butt;stroke-linejoin:miter;stroke-opacity:1"/>
<path class="bond-4 atom-4 atom-5" d="M 685.9,579.9 L 714.5,606.3" style="fill:none;fill-rule:evenodd;stroke:#000000;stroke-width:2.0px;stroke-linecap:butt;stroke-linejoin:miter;stroke-opacity:1"/>
<path class="bond-4 atom-4 atom-5" d="M 714.5,606.3 L 743.1,632.6" style="fill:none;fill-rule:evenodd;stroke:#191919;stroke-width:2.0px;stroke-linecap:butt;stroke-linejoin:miter;stroke-opacity:1"/>
<path class="bond-5 atom-4 atom-6" d="M 685.9,579.9 L 705.6,492.1" style="fill:none;fill-rule:evenodd;stroke:#000000;stroke-width:2.0px;stroke-linecap:butt;stroke-linejoin:miter;stroke-opacity:1"/>
<path d="M 598.7,605.6 L 600.0,606.8 L 604.3,605.4" style="fill:none;stroke:#000000;stroke-width:2.0px;stroke-linecap:butt;stroke-linejoin:miter;stroke-opacity:1;"/>
<path class="atom-0" d="M 443.1 569.8 L 446.8 566.0 L 441.9 565.0 L 442.6 562.4 L 447.2 564.7 L 446.5 559.7 L 449.2 559.7 L 448.5 564.7 L 453.1 562.5 L 453.9 565.0 L 448.9 565.9 L 452.5 569.8 L 450.3 571.4 L 447.8 566.6 L 445.3 571.4 L 443.1 569.8 " fill="#191919"/>
<path class="atom-1" d="M 522.1 545.9 Q 522.1 539.8, 525.1 536.3 Q 528.1 532.9, 533.8 532.9 Q 539.4 532.9, 542.5 536.3 Q 545.5 539.8, 545.5 545.9 Q 545.5 552.1, 542.4 555.6 Q 539.4 559.1, 533.8 559.1 Q 528.2 559.1, 525.1 555.6 Q 522.1 552.1, 522.1 545.9 M 533.8 556.2 Q 537.7 556.2, 539.8 553.6 Q 541.9 551.0, 541.9 545.9 Q 541.9 540.9, 539.8 538.4 Q 537.7 535.8, 533.8 535.8 Q 529.9 535.8, 527.8 538.3 Q 525.7 540.8, 525.7 545.9 Q 525.7 551.0, 527.8 553.6 Q 529.9 556.2, 533.8 556.2 " fill="#FF0000"/>
<path class="atom-3" d="M 568.6 694.7 Q 568.6 688.6, 571.6 685.1 Q 574.6 681.7, 580.3 681.7 Q 586.0 681.7, 589.0 685.1 Q 592.0 688.6, 592.0 694.7 Q 592.0 700.9, 588.9 704.4 Q 585.9 707.9, 580.3 707.9 Q 574.7 707.9, 571.6 704.4 Q 568.6 700.9, 568.6 694.7 M 580.3 705.0 Q 584.2 705.0, 586.3 702.4 Q 588.4 699.8, 588.4 694.7 Q 588.4 689.7, 586.3 687.2 Q 584.2 684.6, 580.3 684.6 Q 576.4 684.6, 574.3 687.1 Q 572.2 689.6, 572.2 694.7 Q 572.2 699.8, 574.3 702.4 Q 576.4 705.0, 580.3 705.0 " fill="#FF0000"/>
<path class="atom-5" d="M 747.3 638.1 L 751.0 634.2 L 746.1 633.2 L 746.8 630.7 L 751.4 633.0 L 750.8 628.0 L 753.5 627.9 L 752.7 632.9 L 757.3 630.8 L 758.1 633.2 L 753.1 634.2 L 756.7 638.0 L 754.5 639.6 L 752.0 634.9 L 749.5 639.6 L 747.3 638.1 " fill="#191919"/>
</svg>