<svg xmlns="http://www.w3.org/2000/svg" xmlns:rdkit="http://www.rdkit.org/xml" xmlns:xlink="http://www.w3.org/1999/xlink" version="1.1" baseProfile="full" xml:space="preserve" width="1200px" height="800px" viewBox="0 0 1200 800">
<!-- END OF HEADER -->
<rect style="opacity:1.0;fill:#FFFFFF;stroke:none" width="1200.0" height="800.0" x="0.0" y="0.0"> </rect>
<path class="bond-0 atom-0 atom-1" d="M 357.9,154.5 L 414.7,136.7" style="fill:none;fill-rule:evenodd;stroke:#191919;stroke-width:2.0px;stroke-linecap:butt;stroke-linejoin:miter;stroke-opacity:1"/>
<path class="bond-0 atom-0 atom-1" d="M 414.7,136.7 L 471.6,118.9" style="fill:none;fill-rule:evenodd;stroke:#FF0000;stroke-width:2.0px;stroke-linecap:butt;stroke-linejoin:miter;stroke-opacity:1"/>
<path class="bond-1 atom-1 atom-2" d="M 507.5,129.8 L 553.7,172.4" style="fill:none;fill-rule:evenodd;stroke:#FF0000;stroke-width:2.0px;stroke-linecap:butt;stroke-linejoin:miter;stroke-opacity:1"/>
<path class="bond-1 atom-1 atom-2" d="M 553.7,172.4 L 600.0,215.0" style="fill:none;fill-rule:evenodd;stroke:#000000;stroke-width:2.0px;stroke-linecap:butt;stroke-linejoin:miter;stroke-opacity:1"/>
<path class="bond-2 atom-2 atom-3" d="M 590.4,206.2 L 575.5,273.0" style="fill:none;fill-rule:evenodd;stroke:#000000;stroke-width:2.0px;stroke-linecap:butt;stroke-linejoin:miter;stroke-opacity:1"/>
<path class="bond-2 atom-2 atom-3" d="M 575.5,273.0 L 560.5,339.8" style="fill:none;fill-rule:evenodd;stroke:#FF0000;stroke-width:2.0px;stroke-linecap:butt;stroke-linejoin:miter;stroke-opacity:1"/>
<path class="bond-2 atom-2 atom-3" d="M 612.4,211.1 L 597.4,277.9" style="fill:none;fill-rule:evenodd;stroke:#000000;stroke-width:2.0px;stroke-linecap:butt;stroke-linejoin:miter;stroke-opacity:1"/>
<path class="bond-2 atom-2 atom-3" d="M 597.4,277.9 L 582.4,344.7" style="fill:none;fill-rule:evenodd;stroke:#FF0000;stroke-width:2.0px;stroke-linecap:butt;stroke-linejoin:miter;stroke-opacity:1"/>
<path class="bond-3 atom-2 atom-4" d="M 600.0,215.0 L 743.3,170.2" style="fill:none;fill-rule:evenodd;stroke:#000000;stroke-width:2.0px;stroke-linecap:butt;stroke-linejoin:miter;stroke-opacity:1"/>
<path class="bond-4 atom-4 atom-5" d="M 743.3,170.2 L 792.7,215.7" style="fill:none;fill-rule:evenodd;stroke:#000000;stroke-width:2.0px;stroke-linecap:butt;stroke-linejoin:miter;stroke-opacity:1"/>
<path class="bond-4 atom-4 atom-5" d="M 792.7,215.7 L 842.1,261.2" style="fill:none;fill-rule:evenodd;stroke:#191919;stroke-width:2.0px;stroke-linecap:butt;stroke-linejoin:miter;stroke-opacity:1"/>
<path class="bond-5 atom-4 atom-6" d="M 743.3,170.2 L 776.2,23.7" style="fill:none;fill-rule:evenodd;stroke:#000000;stroke-width:2.0px;stroke-linecap:butt;stroke-linejoin:miter;stroke-opacity:1"/>
<path d="M 597.7,212.9 L 600.0,215.0 L 607.2,212.8" style="fill:none;stroke:#000000;stroke-width:2.0px;stroke-linecap:butt;stroke-linejoin:miter;stroke-opacity:1;"/>
<path class="atom-0" d="M 340.9 154.9 L 345.0 150.7 L 339.5 149.6 L 340.4 146.7 L 345.4 149.3 L 344.7 143.7 L 347.7 143.7 L 346.9 149.3 L 352.0 146.9 L 352.9 149.6 L 347.3 150.6 L 351.3 154.9 L 348.9 156.7 L 346.1 151.4 L 343.3 156.7 L 340.9 154.9 " fill="#191919"/>
<path class="atom-1" d="M 476.5 113.4 Q 476.5 106.6, 479.9 102.8 Q 483.3 99.0, 489.5 99.0 Q 495.8 99.0, 499.2 102.8 Q 502.5 106.6, 502.5 113.4 Q 502.5 120.3, 499.1 124.2 Q 495.7 128.1, 489.5 128.1 Q 483.3 128.1, 479.9 124.2 Q 476.5 120.3, 476.5 113.4 M 489.5 124.9 Q 493.9 124.9, 496.2 122.0 Q 498.5 119.1, 498.5 113.4 Q 498.5 107.8, 496.2 105.0 Q 493.9 102.2, 489.5 102.2 Q 485.2 102.2, 482.9 105.0 Q 480.5 107.8, 480.5 113.4 Q 480.5 119.1, 482.9 122.0 Q 485.2 124.9, 489.5 124.9 " fill="#FF0000"/>
<path class="atom-3" d="M 554.1 361.6 Q 554.1 354.8, 557.5 351.0 Q 560.9 347.2, 567.1 347.2 Q 573.4 347.2, 576.8 351.0 Q 580.1 354.8, 580.1 361.6 Q 580.1 368.5, 576.7 372.4 Q 573.3 376.3, 567.1 376.3 Q 560.9 376.3, 557.5 372.4 Q 554.1 368.5, 554.1 361.6 M 567.1 373.1 Q 571.5 373.1, 573.8 370.2 Q 576.1 367.3, 576.1 361.6 Q 576.1 356.1, 573.8 353.3 Q 571.5 350.4, 567.1 350.4 Q 562.8 350.4, 560.5 353.2 Q 558.1 356.0, 558.1 361.6 Q 558.1 367.3, 560.5 370.2 Q 562.8 373.1, 567.1 373.1 " fill="#FF0000"/>
<path class="atom-5" d="M 848.4 268.8 L 852.6 264.5 L 847.1 263.4 L 847.9 260.6 L 853.0 263.1 L 852.3 257.6 L 855.3 257.5 L 854.4 263.1 L 859.6 260.7 L 860.5 263.4 L 854.9 264.5 L 858.9 268.7 L 856.4 270.5 L 853.7 265.2 L 850.9 270.5 L 848.4 268.8 " fill="#191919"/>
<path class="bond-0 atom-0 atom-1" d="M 823.2,480.7 L 786.7,543.9" style="fill:none;fill-rule:evenodd;stroke:#191919;stroke-width:2.0px;stroke-linecap:butt;stroke-linejoin:miter;stroke-opacity:1"/>
<path class="bond-0 atom-0 atom-1" d="M 786.7,543.9 L 750.2,607.2" style="fill:none;fill-rule:evenodd;stroke:#000000;stroke-width:2.0px;stroke-linecap:butt;stroke-linejoin:miter;stroke-opacity:1"/>
<path class="bond-1 atom-1 atom-2" d="M 750.2,607.2 L 600.0,607.2" style="fill:none;fill-rule:evenodd;stroke:#000000;stroke-width:2.0px;stroke-linecap:butt;stroke-linejoin:miter;stroke-opacity:1"/>
<path class="bond-2 atom-2 atom-3" d="M 600.0,607.2 L 524.9,737.2" style="fill:none;fill-rule:evenodd;stroke:#000000;stroke-width:2.0px;stroke-linecap:butt;stroke-linejoin:miter;stroke-opacity:1"/>
<path class="bond-3 atom-2 atom-4" d="M 600.0,607.2 L 568.2,552.0" style="fill:none;fill-rule:evenodd;stroke:#000000;stroke-width:2.0px;stroke-linecap:butt;stroke-linejoin:miter;stroke-opacity:1"/>
<path class="bond-3 atom-2 atom-4" d="M 568.2,552.0 L 536.3,496.9" style="fill:none;fill-rule:evenodd;stroke:#FF0000;stroke-width:2.0px;stroke-linecap:butt;stroke-linejoin:miter;stroke-opacity:1"/>
<path class="bond-4 atom-4 atom-5" d="M 507.0,477.2 L 446.7,477.2" style="fill:none;fill-rule:evenodd;stroke:#FF0000;stroke-width:2.0px;stroke-linecap:butt;stroke-linejoin:miter;stroke-opacity:1"/>
<path class="bond-4 atom-4 atom-5" d="M 446.7,477.2 L 386.4,477.2" style="fill:none;fill-rule:evenodd;stroke:#191919;stroke-width:2.0px;stroke-linecap:butt;stroke-linejoin:miter;stroke-opacity:1"/>
<path d="M 752.0,604.0 L 750.2,607.2 L 742.7,607.2" style="fill:none;stroke:#000000;stroke-width:2.0px;stroke-linecap:butt;stroke-linejoin:miter;stroke-opacity:1;"/>
<path class="atom-0" d="M 819.9 474.0 L 824.1 469.8 L 818.5 468.6 L 819.4 465.8 L 824.5 468.4 L 823.7 462.8 L 826.7 462.8 L 825.9 468.3 L 831.1 465.9 L 831.9 468.6 L 826.3 469.7 L 830.3 474.0 L 827.9 475.7 L 825.1 470.4 L 822.3 475.7 L 819.9 474.0 " fill="#191919"/>
<path class="atom-4" d="M 511.9 477.2 Q 511.9 470.4, 515.3 466.6 Q 518.6 462.8, 524.9 462.8 Q 531.2 462.8, 534.6 466.6 Q 537.9 470.4, 537.9 477.2 Q 537.9 484.1, 534.5 488.0 Q 531.1 491.9, 524.9 491.9 Q 518.7 491.9, 515.3 488.0 Q 511.9 484.2, 511.9 477.2 M 524.9 488.7 Q 529.2 488.7, 531.6 485.8 Q 533.9 482.9, 533.9 477.2 Q 533.9 471.7, 531.6 468.9 Q 529.2 466.0, 524.9 466.0 Q 520.6 466.0, 518.2 468.8 Q 515.9 471.6, 515.9 477.2 Q 515.9 483.0, 518.2 485.8 Q 520.6 488.7, 524.9 488.7 " fill="#FF0000"/>
<path class="atom-5" d="M 369.4 474.0 L 373.6 469.8 L 368.1 468.6 L 368.9 465.8 L 374.0 468.4 L 373.3 462.8 L 376.3 462.8 L 375.4 468.3 L 380.6 465.9 L 381.5 468.6 L 375.9 469.7 L 379.9 474.0 L 377.4 475.7 L 374.7 470.4 L 371.9 475.7 L 369.4 474.0 " fill="#191919"/>
</svg>