<svg xmlns="http://www.w3.org/2000/svg" xmlns:rdkit="http://www.rdkit.org/xml" xmlns:xlink="http://www.w3.org/1999/xlink" version="1.1" baseProfile="full" xml:space="preserve" width="1200px" height="800px" viewBox="0 0 1200 800">
<!-- END OF HEADER -->
<rect style="opacity:1.0;fill:#FFFFFF;stroke:none" width="1200.0" height="800.0" x="0.0" y="0.0"> </rect>
<path class="bond-0 atom-0 atom-1" d="M 1134.7,183.0 L 1116.7,193.5" style="fill:none;fill-rule:evenodd;stroke:#191919;stroke-width:2.0px;stroke-linecap:butt;stroke-linejoin:miter;stroke-opacity:1"/>
<path class="bond-0 atom-0 atom-1" d="M 1116.7,193.5 L 1098.7,204.1" style="fill:none;fill-rule:evenodd;stroke:#FF0000;stroke-width:2.0px;stroke-linecap:butt;stroke-linejoin:miter;stroke-opacity:1"/>
<path class="bond-1 atom-1 atom-2" d="M 1081.1,204.2 L 1062.1,193.4" style="fill:none;fill-rule:evenodd;stroke:#FF0000;stroke-width:2.0px;stroke-linecap:butt;stroke-linejoin:miter;stroke-opacity:1"/>
<path class="bond-1 atom-1 atom-2" d="M 1062.1,193.4 L 1043.1,182.6" style="fill:none;fill-rule:evenodd;stroke:#000000;stroke-width:2.0px;stroke-linecap:butt;stroke-linejoin:miter;stroke-opacity:1"/>
<path class="bond-2 atom-2 atom-3" d="M 1043.1,182.6 L 996.6,209.8" style="fill:none;fill-rule:evenodd;stroke:#000000;stroke-width:2.0px;stroke-linecap:butt;stroke-linejoin:miter;stroke-opacity:1"/>
<path class="bond-3 atom-3 atom-4" d="M 996.6,209.8 L 949.8,183.1" style="fill:none;fill-rule:evenodd;stroke:#000000;stroke-width:2.0px;stroke-linecap:butt;stroke-linejoin:miter;stroke-opacity:1"/>
<path class="bond-4 atom-4 atom-5" d="M 949.8,183.1 L 903.3,210.3" style="fill:none;fill-rule:evenodd;stroke:#000000;stroke-width:2.0px;stroke-linecap:butt;stroke-linejoin:miter;stroke-opacity:1"/>
<path class="bond-5 atom-5 atom-6" d="M 903.3,210.3 L 884.3,199.5" style="fill:none;fill-rule:evenodd;stroke:#000000;stroke-width:2.0px;stroke-linecap:butt;stroke-linejoin:miter;stroke-opacity:1"/>
<path class="bond-5 atom-5 atom-6" d="M 884.3,199.5 L 865.3,188.7" style="fill:none;fill-rule:evenodd;stroke:#FF0000;stroke-width:2.0px;stroke-linecap:butt;stroke-linejoin:miter;stroke-opacity:1"/>
<path class="bond-6 atom-6 atom-7" d="M 847.7,188.8 L 828.9,199.9" style="fill:none;fill-rule:evenodd;stroke:#FF0000;stroke-width:2.0px;stroke-linecap:butt;stroke-linejoin:miter;stroke-opacity:1"/>
<path class="bond-6 atom-6 atom-7" d="M 828.9,199.9 L 810.0,210.9" style="fill:none;fill-rule:evenodd;stroke:#000000;stroke-width:2.0px;stroke-linecap:butt;stroke-linejoin:miter;stroke-opacity:1"/>
<path class="bond-7 atom-7 atom-8" d="M 806.0,208.6 L 806.1,232.0" style="fill:none;fill-rule:evenodd;stroke:#000000;stroke-width:2.0px;stroke-linecap:butt;stroke-linejoin:miter;stroke-opacity:1"/>
<path class="bond-7 atom-7 atom-8" d="M 806.1,232.0 L 806.2,255.3" style="fill:none;fill-rule:evenodd;stroke:#FF0000;stroke-width:2.0px;stroke-linecap:butt;stroke-linejoin:miter;stroke-opacity:1"/>
<path class="bond-7 atom-7 atom-8" d="M 814.0,208.6 L 814.2,231.9" style="fill:none;fill-rule:evenodd;stroke:#000000;stroke-width:2.0px;stroke-linecap:butt;stroke-linejoin:miter;stroke-opacity:1"/>
<path class="bond-7 atom-7 atom-8" d="M 814.2,231.9 L 814.3,255.3" style="fill:none;fill-rule:evenodd;stroke:#FF0000;stroke-width:2.0px;stroke-linecap:butt;stroke-linejoin:miter;stroke-opacity:1"/>
<path class="bond-8 atom-7 atom-9" d="M 810.0,210.9 L 763.2,184.3" style="fill:none;fill-rule:evenodd;stroke:#000000;stroke-width:2.0px;stroke-linecap:butt;stroke-linejoin:miter;stroke-opacity:1"/>
<path class="bond-9 atom-9 atom-10" d="M 763.2,184.3 L 716.7,211.5" style="fill:none;fill-rule:evenodd;stroke:#000000;stroke-width:2.0px;stroke-linecap:butt;stroke-linejoin:miter;stroke-opacity:1"/>
<path class="bond-10 atom-10 atom-11" d="M 716.7,211.5 L 669.9,184.8" style="fill:none;fill-rule:evenodd;stroke:#000000;stroke-width:2.0px;stroke-linecap:butt;stroke-linejoin:miter;stroke-opacity:1"/>
<path class="bond-11 atom-11 atom-12" d="M 669.9,184.8 L 623.4,212.1" style="fill:none;fill-rule:evenodd;stroke:#000000;stroke-width:2.0px;stroke-linecap:butt;stroke-linejoin:miter;stroke-opacity:1"/>
<path class="bond-12 atom-12 atom-13" d="M 623.4,212.1 L 576.6,185.4" style="fill:none;fill-rule:evenodd;stroke:#000000;stroke-width:2.0px;stroke-linecap:butt;stroke-linejoin:miter;stroke-opacity:1"/>
<path class="bond-13 atom-13 atom-14" d="M 580.6,187.7 L 580.5,164.5" style="fill:none;fill-rule:evenodd;stroke:#000000;stroke-width:2.0px;stroke-linecap:butt;stroke-linejoin:miter;stroke-opacity:1"/>
<path class="bond-13 atom-13 atom-14" d="M 580.5,164.5 L 580.4,141.3" style="fill:none;fill-rule:evenodd;stroke:#FF0000;stroke-width:2.0px;stroke-linecap:butt;stroke-linejoin:miter;stroke-opacity:1"/>
<path class="bond-13 atom-13 atom-14" d="M 572.6,187.8 L 572.4,164.5" style="fill:none;fill-rule:evenodd;stroke:#000000;stroke-width:2.0px;stroke-linecap:butt;stroke-linejoin:miter;stroke-opacity:1"/>
<path class="bond-13 atom-13 atom-14" d="M 572.4,164.5 L 572.3,141.3" style="fill:none;fill-rule:evenodd;stroke:#FF0000;stroke-width:2.0px;stroke-linecap:butt;stroke-linejoin:miter;stroke-opacity:1"/>
<path class="bond-14 atom-13 atom-15" d="M 576.6,185.4 L 557.7,196.5" style="fill:none;fill-rule:evenodd;stroke:#000000;stroke-width:2.0px;stroke-linecap:butt;stroke-linejoin:miter;stroke-opacity:1"/>
<path class="bond-14 atom-13 atom-15" d="M 557.7,196.5 L 538.9,207.5" style="fill:none;fill-rule:evenodd;stroke:#FF0000;stroke-width:2.0px;stroke-linecap:butt;stroke-linejoin:miter;stroke-opacity:1"/>
<path class="bond-15 atom-15 atom-16" d="M 521.3,207.6 L 502.3,196.8" style="fill:none;fill-rule:evenodd;stroke:#FF0000;stroke-width:2.0px;stroke-linecap:butt;stroke-linejoin:miter;stroke-opacity:1"/>
<path class="bond-15 atom-15 atom-16" d="M 502.3,196.8 L 483.3,186.0" style="fill:none;fill-rule:evenodd;stroke:#000000;stroke-width:2.0px;stroke-linecap:butt;stroke-linejoin:miter;stroke-opacity:1"/>
<path class="bond-16 atom-16 atom-17" d="M 483.3,186.0 L 436.8,213.2" style="fill:none;fill-rule:evenodd;stroke:#000000;stroke-width:2.0px;stroke-linecap:butt;stroke-linejoin:miter;stroke-opacity:1"/>
<path class="bond-17 atom-17 atom-18" d="M 436.8,213.2 L 390.0,186.6" style="fill:none;fill-rule:evenodd;stroke:#000000;stroke-width:2.0px;stroke-linecap:butt;stroke-linejoin:miter;stroke-opacity:1"/>
<path class="bond-18 atom-18 atom-19" d="M 390.0,186.6 L 343.5,213.8" style="fill:none;fill-rule:evenodd;stroke:#000000;stroke-width:2.0px;stroke-linecap:butt;stroke-linejoin:miter;stroke-opacity:1"/>
<path class="bond-19 atom-19 atom-20" d="M 343.5,213.8 L 324.5,203.0" style="fill:none;fill-rule:evenodd;stroke:#000000;stroke-width:2.0px;stroke-linecap:butt;stroke-linejoin:miter;stroke-opacity:1"/>
<path class="bond-19 atom-19 atom-20" d="M 324.5,203.0 L 305.5,192.1" style="fill:none;fill-rule:evenodd;stroke:#FF0000;stroke-width:2.0px;stroke-linecap:butt;stroke-linejoin:miter;stroke-opacity:1"/>
<path class="bond-20 atom-20 atom-21" d="M 287.9,192.3 L 269.1,203.3" style="fill:none;fill-rule:evenodd;stroke:#FF0000;stroke-width:2.0px;stroke-linecap:butt;stroke-linejoin:miter;stroke-opacity:1"/>
<path class="bond-20 atom-20 atom-21" d="M 269.1,203.3 L 250.2,214.3" style="fill:none;fill-rule:evenodd;stroke:#000000;stroke-width:2.0px;stroke-linecap:butt;stroke-linejoin:miter;stroke-opacity:1"/>
<path class="bond-21 atom-21 atom-22" d="M 246.2,212.0 L 246.3,235.4" style="fill:none;fill-rule:evenodd;stroke:#000000;stroke-width:2.0px;stroke-linecap:butt;stroke-linejoin:miter;stroke-opacity:1"/>
<path class="bond-21 atom-21 atom-22" d="M 246.3,235.4 L 246.4,258.7" style="fill:none;fill-rule:evenodd;stroke:#FF0000;stroke-width:2.0px;stroke-linecap:butt;stroke-linejoin:miter;stroke-opacity:1"/>
<path class="bond-21 atom-21 atom-22" d="M 254.2,212.0 L 254.4,235.3" style="fill:none;fill-rule:evenodd;stroke:#000000;stroke-width:2.0px;stroke-linecap:butt;stroke-linejoin:miter;stroke-opacity:1"/>
<path class="bond-21 atom-21 atom-22" d="M 254.4,235.3 L 254.5,258.7" style="fill:none;fill-rule:evenodd;stroke:#FF0000;stroke-width:2.0px;stroke-linecap:butt;stroke-linejoin:miter;stroke-opacity:1"/>
<path class="bond-22 atom-21 atom-23" d="M 250.2,214.3 L 203.4,187.7" style="fill:none;fill-rule:evenodd;stroke:#000000;stroke-width:2.0px;stroke-linecap:butt;stroke-linejoin:miter;stroke-opacity:1"/>
<path class="bond-23 atom-23 atom-24" d="M 203.4,187.7 L 156.9,214.9" style="fill:none;fill-rule:evenodd;stroke:#000000;stroke-width:2.0px;stroke-linecap:butt;stroke-linejoin:miter;stroke-opacity:1"/>
<path class="bond-24 atom-24 atom-25" d="M 156.9,214.9 L 110.1,188.3" style="fill:none;fill-rule:evenodd;stroke:#000000;stroke-width:2.0px;stroke-linecap:butt;stroke-linejoin:miter;stroke-opacity:1"/>
<path class="bond-25 atom-25 atom-26" d="M 110.1,188.3 L 89.5,200.3" style="fill:none;fill-rule:evenodd;stroke:#000000;stroke-width:2.0px;stroke-linecap:butt;stroke-linejoin:miter;stroke-opacity:1"/>
<path class="bond-25 atom-25 atom-26" d="M 89.5,200.3 L 69.0,212.3" style="fill:none;fill-rule:evenodd;stroke:#191919;stroke-width:2.0px;stroke-linecap:butt;stroke-linejoin:miter;stroke-opacity:1"/>
<path class="bond-26 atom-25 atom-27" d="M 114.1,190.6 L 114.0,167.3" style="fill:none;fill-rule:evenodd;stroke:#000000;stroke-width:2.0px;stroke-linecap:butt;stroke-linejoin:miter;stroke-opacity:1"/>
<path class="bond-26 atom-25 atom-27" d="M 114.0,167.3 L 113.9,144.1" style="fill:none;fill-rule:evenodd;stroke:#FF0000;stroke-width:2.0px;stroke-linecap:butt;stroke-linejoin:miter;stroke-opacity:1"/>
<path class="bond-26 atom-25 atom-27" d="M 106.1,190.6 L 105.9,167.4" style="fill:none;fill-rule:evenodd;stroke:#000000;stroke-width:2.0px;stroke-linecap:butt;stroke-linejoin:miter;stroke-opacity:1"/>
<path class="bond-26 atom-25 atom-27" d="M 105.9,167.4 L 105.8,144.2" style="fill:none;fill-rule:evenodd;stroke:#FF0000;stroke-width:2.0px;stroke-linecap:butt;stroke-linejoin:miter;stroke-opacity:1"/>
<path d="M 1044.0,183.1 L 1043.1,182.6 L 1040.8,183.9" style="fill:none;stroke:#000000;stroke-width:2.0px;stroke-linecap:butt;stroke-linejoin:miter;stroke-opacity:1;"/>
<path d="M 998.9,208.4 L 996.6,209.8 L 994.3,208.4" style="fill:none;stroke:#000000;stroke-width:2.0px;stroke-linecap:butt;stroke-linejoin:miter;stroke-opacity:1;"/>
<path d="M 952.1,184.5 L 949.8,183.1 L 947.5,184.5" style="fill:none;stroke:#000000;stroke-width:2.0px;stroke-linecap:butt;stroke-linejoin:miter;stroke-opacity:1;"/>
<path d="M 905.6,209.0 L 903.3,210.3 L 902.4,209.8" style="fill:none;stroke:#000000;stroke-width:2.0px;stroke-linecap:butt;stroke-linejoin:miter;stroke-opacity:1;"/>
<path d="M 810.9,210.4 L 810.0,210.9 L 807.7,209.6" style="fill:none;stroke:#000000;stroke-width:2.0px;stroke-linecap:butt;stroke-linejoin:miter;stroke-opacity:1;"/>
<path d="M 765.5,185.6 L 763.2,184.3 L 760.9,185.6" style="fill:none;stroke:#000000;stroke-width:2.0px;stroke-linecap:butt;stroke-linejoin:miter;stroke-opacity:1;"/>
<path d="M 719.0,210.1 L 716.7,211.5 L 714.4,210.2" style="fill:none;stroke:#000000;stroke-width:2.0px;stroke-linecap:butt;stroke-linejoin:miter;stroke-opacity:1;"/>
<path d="M 672.2,186.2 L 669.9,184.8 L 667.6,186.2" style="fill:none;stroke:#000000;stroke-width:2.0px;stroke-linecap:butt;stroke-linejoin:miter;stroke-opacity:1;"/>
<path d="M 625.7,210.7 L 623.4,212.1 L 621.1,210.7" style="fill:none;stroke:#000000;stroke-width:2.0px;stroke-linecap:butt;stroke-linejoin:miter;stroke-opacity:1;"/>
<path d="M 578.9,186.7 L 576.6,185.4 L 575.6,186.0" style="fill:none;stroke:#000000;stroke-width:2.0px;stroke-linecap:butt;stroke-linejoin:miter;stroke-opacity:1;"/>
<path d="M 484.2,186.5 L 483.3,186.0 L 481.0,187.3" style="fill:none;stroke:#000000;stroke-width:2.0px;stroke-linecap:butt;stroke-linejoin:miter;stroke-opacity:1;"/>
<path d="M 439.1,211.8 L 436.8,213.2 L 434.5,211.9" style="fill:none;stroke:#000000;stroke-width:2.0px;stroke-linecap:butt;stroke-linejoin:miter;stroke-opacity:1;"/>
<path d="M 392.3,187.9 L 390.0,186.6 L 387.7,187.9" style="fill:none;stroke:#000000;stroke-width:2.0px;stroke-linecap:butt;stroke-linejoin:miter;stroke-opacity:1;"/>
<path d="M 345.8,212.4 L 343.5,213.8 L 342.6,213.2" style="fill:none;stroke:#000000;stroke-width:2.0px;stroke-linecap:butt;stroke-linejoin:miter;stroke-opacity:1;"/>
<path d="M 251.2,213.8 L 250.2,214.3 L 247.9,213.0" style="fill:none;stroke:#000000;stroke-width:2.0px;stroke-linecap:butt;stroke-linejoin:miter;stroke-opacity:1;"/>
<path d="M 205.7,189.0 L 203.4,187.7 L 201.1,189.1" style="fill:none;stroke:#000000;stroke-width:2.0px;stroke-linecap:butt;stroke-linejoin:miter;stroke-opacity:1;"/>
<path d="M 159.2,213.6 L 156.9,214.9 L 154.6,213.6" style="fill:none;stroke:#000000;stroke-width:2.0px;stroke-linecap:butt;stroke-linejoin:miter;stroke-opacity:1;"/>
<path d="M 112.4,189.6 L 110.1,188.3 L 109.1,188.9" style="fill:none;stroke:#000000;stroke-width:2.0px;stroke-linecap:butt;stroke-linejoin:miter;stroke-opacity:1;"/>
<path class="atom-0" d="M 1133.5 180.3 L 1135.8 178.0 L 1132.8 177.4 L 1133.2 175.9 L 1136.0 177.2 L 1135.6 174.3 L 1137.2 174.2 L 1136.7 177.2 L 1139.5 175.9 L 1140.0 177.4 L 1137.0 178.0 L 1139.1 180.3 L 1137.8 181.2 L 1136.3 178.4 L 1134.8 181.2 L 1133.5 180.3 " fill="#191919"/>
<path class="atom-1" d="M 1082.9 209.2 Q 1082.9 205.6, 1084.7 203.5 Q 1086.5 201.5, 1089.9 201.5 Q 1093.3 201.5, 1095.1 203.5 Q 1096.9 205.6, 1096.9 209.2 Q 1096.9 213.0, 1095.1 215.1 Q 1093.2 217.2, 1089.9 217.2 Q 1086.5 217.2, 1084.7 215.1 Q 1082.9 213.0, 1082.9 209.2 M 1089.9 215.4 Q 1092.2 215.4, 1093.5 213.9 Q 1094.8 212.3, 1094.8 209.2 Q 1094.8 206.3, 1093.5 204.7 Q 1092.2 203.2, 1089.9 203.2 Q 1087.6 203.2, 1086.3 204.7 Q 1085.1 206.2, 1085.1 209.2 Q 1085.1 212.3, 1086.3 213.9 Q 1087.6 215.4, 1089.9 215.4 " fill="#FF0000"/>
<path class="atom-6" d="M 849.5 183.7 Q 849.5 180.1, 851.3 178.0 Q 853.1 176.0, 856.5 176.0 Q 859.9 176.0, 861.7 178.0 Q 863.5 180.1, 863.5 183.7 Q 863.5 187.4, 861.7 189.6 Q 859.8 191.7, 856.5 191.7 Q 853.1 191.7, 851.3 189.6 Q 849.5 187.5, 849.5 183.7 M 856.5 189.9 Q 858.8 189.9, 860.1 188.4 Q 861.3 186.8, 861.3 183.7 Q 861.3 180.7, 860.1 179.2 Q 858.8 177.7, 856.5 177.7 Q 854.2 177.7, 852.9 179.2 Q 851.6 180.7, 851.6 183.7 Q 851.6 186.8, 852.9 188.4 Q 854.2 189.9, 856.5 189.9 " fill="#FF0000"/>
<path class="atom-8" d="M 803.3 264.8 Q 803.3 261.2, 805.1 259.1 Q 807.0 257.1, 810.3 257.1 Q 813.7 257.1, 815.5 259.1 Q 817.3 261.2, 817.3 264.8 Q 817.3 268.5, 815.5 270.6 Q 813.7 272.7, 810.3 272.7 Q 807.0 272.7, 805.1 270.6 Q 803.3 268.6, 803.3 264.8 M 810.3 271.0 Q 812.7 271.0, 813.9 269.5 Q 815.2 267.9, 815.2 264.8 Q 815.2 261.8, 813.9 260.3 Q 812.7 258.8, 810.3 258.8 Q 808.0 258.8, 806.7 260.3 Q 805.5 261.8, 805.5 264.8 Q 805.5 267.9, 806.7 269.5 Q 808.0 271.0, 810.3 271.0 " fill="#FF0000"/>
<path class="atom-14" d="M 569.3 131.6 Q 569.3 127.9, 571.1 125.9 Q 572.9 123.8, 576.3 123.8 Q 579.6 123.8, 581.5 125.9 Q 583.3 127.9, 583.3 131.6 Q 583.3 135.3, 581.4 137.4 Q 579.6 139.5, 576.3 139.5 Q 572.9 139.5, 571.1 137.4 Q 569.3 135.3, 569.3 131.6 M 576.3 137.8 Q 578.6 137.8, 579.8 136.2 Q 581.1 134.7, 581.1 131.6 Q 581.1 128.6, 579.8 127.1 Q 578.6 125.6, 576.3 125.6 Q 573.9 125.6, 572.7 127.1 Q 571.4 128.6, 571.4 131.6 Q 571.4 134.7, 572.7 136.2 Q 573.9 137.8, 576.3 137.8 " fill="#FF0000"/>
<path class="atom-15" d="M 523.1 212.7 Q 523.1 209.0, 524.9 207.0 Q 526.7 204.9, 530.1 204.9 Q 533.5 204.9, 535.3 207.0 Q 537.1 209.0, 537.1 212.7 Q 537.1 216.4, 535.3 218.5 Q 533.4 220.6, 530.1 220.6 Q 526.7 220.6, 524.9 218.5 Q 523.1 216.4, 523.1 212.7 M 530.1 218.9 Q 532.4 218.9, 533.7 217.3 Q 535.0 215.7, 535.0 212.7 Q 535.0 209.7, 533.7 208.2 Q 532.4 206.6, 530.1 206.6 Q 527.8 206.6, 526.5 208.2 Q 525.3 209.7, 525.3 212.7 Q 525.3 215.8, 526.5 217.3 Q 527.8 218.9, 530.1 218.9 " fill="#FF0000"/>
<path class="atom-20" d="M 289.7 187.2 Q 289.7 183.5, 291.5 181.5 Q 293.3 179.4, 296.7 179.4 Q 300.1 179.4, 301.9 181.5 Q 303.7 183.5, 303.7 187.2 Q 303.7 190.9, 301.9 193.0 Q 300.0 195.1, 296.7 195.1 Q 293.3 195.1, 291.5 193.0 Q 289.7 190.9, 289.7 187.2 M 296.7 193.4 Q 299.0 193.4, 300.3 191.8 Q 301.5 190.2, 301.5 187.2 Q 301.5 184.2, 300.3 182.7 Q 299.0 181.1, 296.7 181.1 Q 294.4 181.1, 293.1 182.6 Q 291.8 184.2, 291.8 187.2 Q 291.8 190.3, 293.1 191.8 Q 294.4 193.4, 296.7 193.4 " fill="#FF0000"/>
<path class="atom-22" d="M 243.5 268.3 Q 243.5 264.6, 245.3 262.5 Q 247.2 260.5, 250.5 260.5 Q 253.9 260.5, 255.7 262.5 Q 257.5 264.6, 257.5 268.3 Q 257.5 272.0, 255.7 274.1 Q 253.9 276.2, 250.5 276.2 Q 247.2 276.2, 245.3 274.1 Q 243.5 272.0, 243.5 268.3 M 250.5 274.4 Q 252.9 274.4, 254.1 272.9 Q 255.4 271.3, 255.4 268.3 Q 255.4 265.3, 254.1 263.8 Q 252.9 262.2, 250.5 262.2 Q 248.2 262.2, 246.9 263.7 Q 245.7 265.2, 245.7 268.3 Q 245.7 271.3, 246.9 272.9 Q 248.2 274.4, 250.5 274.4 " fill="#FF0000"/>
<path class="atom-26" d="M 60.7 213.8 L 63.0 211.5 L 60.0 210.9 L 60.5 209.4 L 63.2 210.8 L 62.8 207.8 L 64.4 207.7 L 64.0 210.7 L 66.7 209.4 L 67.2 210.9 L 64.2 211.5 L 66.4 213.8 L 65.0 214.7 L 63.6 211.9 L 62.0 214.7 L 60.7 213.8 " fill="#191919"/>
<path class="atom-27" d="M 102.8 134.4 Q 102.8 130.8, 104.6 128.7 Q 106.4 126.7, 109.8 126.7 Q 113.1 126.7, 115.0 128.7 Q 116.8 130.8, 116.8 134.4 Q 116.8 138.2, 114.9 140.3 Q 113.1 142.4, 109.8 142.4 Q 106.4 142.4, 104.6 140.3 Q 102.8 138.2, 102.8 134.4 M 109.8 140.6 Q 112.1 140.6, 113.3 139.1 Q 114.6 137.5, 114.6 134.4 Q 114.6 131.5, 113.3 129.9 Q 112.1 128.4, 109.8 128.4 Q 107.4 128.4, 106.2 129.9 Q 104.9 131.4, 104.9 134.4 Q 104.9 137.5, 106.2 139.1 Q 107.4 140.6, 109.8 140.6 " fill="#FF0000"/>
<path class="bond-0 atom-0 atom-1" d="M 478.7,651.0 L 498.5,656.3" style="fill:none;fill-rule:evenodd;stroke:#191919;stroke-width:2.0px;stroke-linecap:butt;stroke-linejoin:miter;stroke-opacity:1"/>
<path class="bond-0 atom-0 atom-1" d="M 498.5,656.3 L 518.3,661.6" style="fill:none;fill-rule:evenodd;stroke:#FF0000;stroke-width:2.0px;stroke-linecap:butt;stroke-linejoin:miter;stroke-opacity:1"/>
<path class="bond-1 atom-2 atom-1" d="M 565.1,625.9 L 552.8,641.1 L 549.9,638.2 Z" style="fill:#000000;fill-rule:evenodd;fill-opacity:1;stroke:#000000;stroke-width:0.5px;stroke-linecap:butt;stroke-linejoin:miter;stroke-opacity:1;"/>
<path class="bond-1 atom-2 atom-1" d="M 552.8,641.1 L 534.7,650.6 L 540.5,656.3 Z" style="fill:#FF0000;fill-rule:evenodd;fill-opacity:1;stroke:#FF0000;stroke-width:0.5px;stroke-linecap:butt;stroke-linejoin:miter;stroke-opacity:1;"/>
<path class="bond-1 atom-2 atom-1" d="M 552.8,641.1 L 549.9,638.2 L 534.7,650.6 Z" style="fill:#FF0000;fill-rule:evenodd;fill-opacity:1;stroke:#FF0000;stroke-width:0.5px;stroke-linecap:butt;stroke-linejoin:miter;stroke-opacity:1;"/>
<path class="bond-2 atom-2 atom-3" d="M 565.1,625.9 L 551.2,573.9" style="fill:none;fill-rule:evenodd;stroke:#000000;stroke-width:2.0px;stroke-linecap:butt;stroke-linejoin:miter;stroke-opacity:1"/>
<path class="bond-3 atom-3 atom-4" d="M 551.2,573.9 L 499.2,559.9" style="fill:none;fill-rule:evenodd;stroke:#000000;stroke-width:2.0px;stroke-linecap:butt;stroke-linejoin:miter;stroke-opacity:1"/>
<path class="bond-4 atom-4 atom-5" d="M 499.2,559.9 L 493.5,538.8" style="fill:none;fill-rule:evenodd;stroke:#000000;stroke-width:2.0px;stroke-linecap:butt;stroke-linejoin:miter;stroke-opacity:1"/>
<path class="bond-4 atom-4 atom-5" d="M 493.5,538.8 L 487.8,517.6" style="fill:none;fill-rule:evenodd;stroke:#FF0000;stroke-width:2.0px;stroke-linecap:butt;stroke-linejoin:miter;stroke-opacity:1"/>
<path class="bond-5 atom-3 atom-6" d="M 551.2,573.9 L 565.8,559.2" style="fill:none;fill-rule:evenodd;stroke:#000000;stroke-width:2.0px;stroke-linecap:butt;stroke-linejoin:miter;stroke-opacity:1"/>
<path class="bond-5 atom-3 atom-6" d="M 565.8,559.2 L 580.5,544.6" style="fill:none;fill-rule:evenodd;stroke:#FF0000;stroke-width:2.0px;stroke-linecap:butt;stroke-linejoin:miter;stroke-opacity:1"/>
<path class="bond-6 atom-6 atom-7" d="M 598.1,538.1 L 619.7,543.9" style="fill:none;fill-rule:evenodd;stroke:#FF0000;stroke-width:2.0px;stroke-linecap:butt;stroke-linejoin:miter;stroke-opacity:1"/>
<path class="bond-6 atom-6 atom-7" d="M 619.7,543.9 L 641.3,549.7" style="fill:none;fill-rule:evenodd;stroke:#000000;stroke-width:2.0px;stroke-linecap:butt;stroke-linejoin:miter;stroke-opacity:1"/>
<path class="bond-7 atom-7 atom-8" d="M 641.3,549.7 L 657.5,530.6 L 660.4,533.5 Z" style="fill:#000000;fill-rule:evenodd;fill-opacity:1;stroke:#000000;stroke-width:0.5px;stroke-linecap:butt;stroke-linejoin:miter;stroke-opacity:1;"/>
<path class="bond-7 atom-7 atom-8" d="M 657.5,530.6 L 679.5,517.3 L 673.8,511.5 Z" style="fill:#191919;fill-rule:evenodd;fill-opacity:1;stroke:#191919;stroke-width:0.5px;stroke-linecap:butt;stroke-linejoin:miter;stroke-opacity:1;"/>
<path class="bond-7 atom-7 atom-8" d="M 657.5,530.6 L 660.4,533.5 L 679.5,517.3 Z" style="fill:#191919;fill-rule:evenodd;fill-opacity:1;stroke:#191919;stroke-width:0.5px;stroke-linecap:butt;stroke-linejoin:miter;stroke-opacity:1;"/>
<path class="bond-8 atom-7 atom-9" d="M 641.3,549.7 L 655.3,601.7" style="fill:none;fill-rule:evenodd;stroke:#000000;stroke-width:2.0px;stroke-linecap:butt;stroke-linejoin:miter;stroke-opacity:1"/>
<path class="bond-9 atom-9 atom-10" d="M 655.3,601.7 L 676.5,605.4 L 675.5,609.3 Z" style="fill:#000000;fill-rule:evenodd;fill-opacity:1;stroke:#000000;stroke-width:0.5px;stroke-linecap:butt;stroke-linejoin:miter;stroke-opacity:1;"/>
<path class="bond-9 atom-9 atom-10" d="M 676.5,605.4 L 695.7,616.8 L 697.8,609.0 Z" style="fill:#FF0000;fill-rule:evenodd;fill-opacity:1;stroke:#FF0000;stroke-width:0.5px;stroke-linecap:butt;stroke-linejoin:miter;stroke-opacity:1;"/>
<path class="bond-9 atom-9 atom-10" d="M 676.5,605.4 L 675.5,609.3 L 695.7,616.8 Z" style="fill:#FF0000;fill-rule:evenodd;fill-opacity:1;stroke:#FF0000;stroke-width:0.5px;stroke-linecap:butt;stroke-linejoin:miter;stroke-opacity:1;"/>
<path class="bond-10 atom-9 atom-11" d="M 655.3,601.7 L 617.2,639.8" style="fill:none;fill-rule:evenodd;stroke:#000000;stroke-width:2.0px;stroke-linecap:butt;stroke-linejoin:miter;stroke-opacity:1"/>
<path class="bond-11 atom-11 atom-12" d="M 617.2,639.8 L 622.9,661.1" style="fill:none;fill-rule:evenodd;stroke:#000000;stroke-width:2.0px;stroke-linecap:butt;stroke-linejoin:miter;stroke-opacity:1"/>
<path class="bond-11 atom-11 atom-12" d="M 622.9,661.1 L 628.6,682.4" style="fill:none;fill-rule:evenodd;stroke:#FF0000;stroke-width:2.0px;stroke-linecap:butt;stroke-linejoin:miter;stroke-opacity:1"/>
<path class="bond-12 atom-11 atom-2" d="M 617.2,639.8 L 565.1,625.9" style="fill:none;fill-rule:evenodd;stroke:#000000;stroke-width:2.0px;stroke-linecap:butt;stroke-linejoin:miter;stroke-opacity:1"/>
<path d="M 564.4,623.3 L 565.1,625.9 L 567.7,626.6" style="fill:none;stroke:#000000;stroke-width:2.0px;stroke-linecap:butt;stroke-linejoin:miter;stroke-opacity:1;"/>
<path d="M 501.8,560.6 L 499.2,559.9 L 498.9,558.9" style="fill:none;stroke:#000000;stroke-width:2.0px;stroke-linecap:butt;stroke-linejoin:miter;stroke-opacity:1;"/>
<path d="M 640.2,549.4 L 641.3,549.7 L 642.0,552.3" style="fill:none;stroke:#000000;stroke-width:2.0px;stroke-linecap:butt;stroke-linejoin:miter;stroke-opacity:1;"/>
<path d="M 654.6,599.1 L 655.3,601.7 L 653.3,603.7" style="fill:none;stroke:#000000;stroke-width:2.0px;stroke-linecap:butt;stroke-linejoin:miter;stroke-opacity:1;"/>
<path class="atom-0" d="M 472.1 648.3 L 474.4 646.1 L 471.4 645.5 L 471.9 643.9 L 474.6 645.3 L 474.2 642.3 L 475.8 642.3 L 475.4 645.3 L 478.1 644.0 L 478.6 645.5 L 475.6 646.0 L 477.8 648.3 L 476.4 649.3 L 475.0 646.4 L 473.4 649.3 L 472.1 648.3 " fill="#191919"/>
<path class="atom-1" d="M 520.0 664.0 Q 520.0 660.4, 521.8 658.3 Q 523.7 656.3, 527.0 656.3 Q 530.4 656.3, 532.2 658.3 Q 534.0 660.4, 534.0 664.0 Q 534.0 667.7, 532.2 669.8 Q 530.4 671.9, 527.0 671.9 Q 523.7 671.9, 521.8 669.8 Q 520.0 667.8, 520.0 664.0 M 527.0 670.2 Q 529.4 670.2, 530.6 668.7 Q 531.9 667.1, 531.9 664.0 Q 531.9 661.0, 530.6 659.5 Q 529.4 658.0, 527.0 658.0 Q 524.7 658.0, 523.4 659.5 Q 522.2 661.0, 522.2 664.0 Q 522.2 667.1, 523.4 668.7 Q 524.7 670.2, 527.0 670.2 " fill="#FF0000"/>
<path class="atom-5" d="M 478.2 507.9 Q 478.2 504.3, 480.0 502.2 Q 481.8 500.2, 485.2 500.2 Q 488.6 500.2, 490.4 502.2 Q 492.2 504.3, 492.2 507.9 Q 492.2 511.6, 490.4 513.8 Q 488.6 515.8, 485.2 515.8 Q 481.9 515.8, 480.0 513.8 Q 478.2 511.7, 478.2 507.9 M 485.2 514.1 Q 487.5 514.1, 488.8 512.6 Q 490.1 511.0, 490.1 507.9 Q 490.1 504.9, 488.8 503.4 Q 487.5 501.9, 485.2 501.9 Q 482.9 501.9, 481.6 503.4 Q 480.4 504.9, 480.4 507.9 Q 480.4 511.0, 481.6 512.6 Q 482.9 514.1, 485.2 514.1 " fill="#FF0000"/>
<path class="atom-5" d="M 494.6 500.3 L 496.7 500.3 L 496.7 506.8 L 504.5 506.8 L 504.5 500.3 L 506.5 500.3 L 506.5 515.6 L 504.5 515.6 L 504.5 508.6 L 496.7 508.6 L 496.7 515.6 L 494.6 515.6 L 494.6 500.3 " fill="#FF0000"/>
<path class="atom-6" d="M 582.3 535.8 Q 582.3 532.2, 584.1 530.1 Q 585.9 528.1, 589.3 528.1 Q 592.7 528.1, 594.5 530.1 Q 596.3 532.2, 596.3 535.8 Q 596.3 539.5, 594.5 541.6 Q 592.6 543.7, 589.3 543.7 Q 585.9 543.7, 584.1 541.6 Q 582.3 539.5, 582.3 535.8 M 589.3 542.0 Q 591.6 542.0, 592.9 540.5 Q 594.1 538.9, 594.1 535.8 Q 594.1 532.8, 592.9 531.3 Q 591.6 529.8, 589.3 529.8 Q 587.0 529.8, 585.7 531.3 Q 584.4 532.8, 584.4 535.8 Q 584.4 538.9, 585.7 540.5 Q 587.0 542.0, 589.3 542.0 " fill="#FF0000"/>
<path class="atom-8" d="M 676.5 509.9 L 678.8 507.6 L 675.8 507.0 L 676.2 505.5 L 679.0 506.9 L 678.6 503.9 L 680.2 503.9 L 679.8 506.9 L 682.5 505.6 L 683.0 507.0 L 680.0 507.6 L 682.1 509.9 L 680.8 510.9 L 679.3 508.0 L 677.8 510.9 L 676.5 509.9 " fill="#191919"/>
<path class="atom-10" d="M 700.3 615.7 Q 700.3 612.1, 702.1 610.0 Q 703.9 608.0, 707.3 608.0 Q 710.7 608.0, 712.5 610.0 Q 714.3 612.1, 714.3 615.7 Q 714.3 619.4, 712.5 621.6 Q 710.6 623.6, 707.3 623.6 Q 703.9 623.6, 702.1 621.6 Q 700.3 619.5, 700.3 615.7 M 707.3 621.9 Q 709.6 621.9, 710.9 620.4 Q 712.1 618.8, 712.1 615.7 Q 712.1 612.7, 710.9 611.2 Q 709.6 609.7, 707.3 609.7 Q 705.0 609.7, 703.7 611.2 Q 702.4 612.7, 702.4 615.7 Q 702.4 618.8, 703.7 620.4 Q 705.0 621.9, 707.3 621.9 " fill="#FF0000"/>
<path class="atom-10" d="M 716.7 608.1 L 718.7 608.1 L 718.7 614.6 L 726.5 614.6 L 726.5 608.1 L 728.6 608.1 L 728.6 623.4 L 726.5 623.4 L 726.5 616.4 L 718.7 616.4 L 718.7 623.4 L 716.7 623.4 L 716.7 608.1 " fill="#FF0000"/>
<path class="atom-12" d="M 624.1 691.9 Q 624.1 688.3, 625.9 686.2 Q 627.7 684.2, 631.1 684.2 Q 634.5 684.2, 636.3 686.2 Q 638.1 688.3, 638.1 691.9 Q 638.1 695.6, 636.3 697.7 Q 634.4 699.8, 631.1 699.8 Q 627.7 699.8, 625.9 697.7 Q 624.1 695.6, 624.1 691.9 M 631.1 698.1 Q 633.4 698.1, 634.7 696.5 Q 636.0 695.0, 636.0 691.9 Q 636.0 688.9, 634.7 687.4 Q 633.4 685.9, 631.1 685.9 Q 628.8 685.9, 627.5 687.4 Q 626.3 688.9, 626.3 691.9 Q 626.3 695.0, 627.5 696.5 Q 628.8 698.1, 631.1 698.1 " fill="#FF0000"/>
<path class="atom-12" d="M 640.5 684.3 L 642.6 684.3 L 642.6 690.8 L 650.4 690.8 L 650.4 684.3 L 652.4 684.3 L 652.4 699.6 L 650.4 699.6 L 650.4 692.5 L 642.6 692.5 L 642.6 699.6 L 640.5 699.6 L 640.5 684.3 " fill="#FF0000"/>
</svg>