<svg xmlns="http://www.w3.org/2000/svg" xmlns:rdkit="http://www.rdkit.org/xml" xmlns:xlink="http://www.w3.org/1999/xlink" version="1.1" baseProfile="full" xml:space="preserve" width="1200px" height="800px" viewBox="0 0 1200 800">
<!-- END OF HEADER -->
<rect style="opacity:1.0;fill:#FFFFFF;stroke:none" width="1200.0" height="800.0" x="0.0" y="0.0"> </rect>
<path class="bond-0 atom-0 atom-1" d="M 72.4,54.2 L 112.0,72.0" style="fill:none;fill-rule:evenodd;stroke:#191919;stroke-width:2.0px;stroke-linecap:butt;stroke-linejoin:miter;stroke-opacity:1"/>
<path class="bond-0 atom-0 atom-1" d="M 112.0,72.0 L 151.7,89.7" style="fill:none;fill-rule:evenodd;stroke:#FF0000;stroke-width:2.0px;stroke-linecap:butt;stroke-linejoin:miter;stroke-opacity:1"/>
<path class="bond-1 atom-1 atom-2" d="M 170.3,115.6 L 175.0,161.4" style="fill:none;fill-rule:evenodd;stroke:#FF0000;stroke-width:2.0px;stroke-linecap:butt;stroke-linejoin:miter;stroke-opacity:1"/>
<path class="bond-1 atom-1 atom-2" d="M 175.0,161.4 L 179.8,207.2" style="fill:none;fill-rule:evenodd;stroke:#000000;stroke-width:2.0px;stroke-linecap:butt;stroke-linejoin:miter;stroke-opacity:1"/>
<path class="bond-2 atom-2 atom-3" d="M 179.8,207.2 L 280.8,252.3" style="fill:none;fill-rule:evenodd;stroke:#000000;stroke-width:2.0px;stroke-linecap:butt;stroke-linejoin:miter;stroke-opacity:1"/>
<path class="bond-3 atom-3 atom-4" d="M 280.8,252.3 L 292.2,362.4" style="fill:none;fill-rule:evenodd;stroke:#000000;stroke-width:2.0px;stroke-linecap:butt;stroke-linejoin:miter;stroke-opacity:1"/>
<path class="bond-4 atom-3 atom-5" d="M 280.8,252.3 L 370.3,187.5" style="fill:none;fill-rule:evenodd;stroke:#000000;stroke-width:2.0px;stroke-linecap:butt;stroke-linejoin:miter;stroke-opacity:1"/>
<path class="bond-5 atom-5 atom-6" d="M 370.3,187.5 L 412.5,206.3" style="fill:none;fill-rule:evenodd;stroke:#000000;stroke-width:2.0px;stroke-linecap:butt;stroke-linejoin:miter;stroke-opacity:1"/>
<path class="bond-5 atom-5 atom-6" d="M 412.5,206.3 L 454.7,225.2" style="fill:none;fill-rule:evenodd;stroke:#FF0000;stroke-width:2.0px;stroke-linecap:butt;stroke-linejoin:miter;stroke-opacity:1"/>
<path class="bond-6 atom-6 atom-7" d="M 488.0,220.5 L 524.4,194.1" style="fill:none;fill-rule:evenodd;stroke:#FF0000;stroke-width:2.0px;stroke-linecap:butt;stroke-linejoin:miter;stroke-opacity:1"/>
<path class="bond-6 atom-6 atom-7" d="M 524.4,194.1 L 560.9,167.7" style="fill:none;fill-rule:evenodd;stroke:#000000;stroke-width:2.0px;stroke-linecap:butt;stroke-linejoin:miter;stroke-opacity:1"/>
<path class="bond-7 atom-7 atom-8" d="M 569.7,171.6 L 564.7,123.5" style="fill:none;fill-rule:evenodd;stroke:#000000;stroke-width:2.0px;stroke-linecap:butt;stroke-linejoin:miter;stroke-opacity:1"/>
<path class="bond-7 atom-7 atom-8" d="M 564.7,123.5 L 559.7,75.3" style="fill:none;fill-rule:evenodd;stroke:#FF0000;stroke-width:2.0px;stroke-linecap:butt;stroke-linejoin:miter;stroke-opacity:1"/>
<path class="bond-7 atom-7 atom-8" d="M 553.1,173.3 L 548.2,125.2" style="fill:none;fill-rule:evenodd;stroke:#000000;stroke-width:2.0px;stroke-linecap:butt;stroke-linejoin:miter;stroke-opacity:1"/>
<path class="bond-7 atom-7 atom-8" d="M 548.2,125.2 L 543.2,77.0" style="fill:none;fill-rule:evenodd;stroke:#FF0000;stroke-width:2.0px;stroke-linecap:butt;stroke-linejoin:miter;stroke-opacity:1"/>
<path class="bond-8 atom-7 atom-9" d="M 560.9,167.7 L 661.9,212.9" style="fill:none;fill-rule:evenodd;stroke:#000000;stroke-width:2.0px;stroke-linecap:butt;stroke-linejoin:miter;stroke-opacity:1"/>
<path class="bond-9 atom-9 atom-10" d="M 661.9,212.9 L 751.5,148.0" style="fill:none;fill-rule:evenodd;stroke:#000000;stroke-width:2.0px;stroke-linecap:butt;stroke-linejoin:miter;stroke-opacity:1"/>
<path class="bond-10 atom-10 atom-11" d="M 751.5,148.0 L 852.4,193.1" style="fill:none;fill-rule:evenodd;stroke:#000000;stroke-width:2.0px;stroke-linecap:butt;stroke-linejoin:miter;stroke-opacity:1"/>
<path class="bond-11 atom-11 atom-12" d="M 852.4,193.1 L 942.0,128.3" style="fill:none;fill-rule:evenodd;stroke:#000000;stroke-width:2.0px;stroke-linecap:butt;stroke-linejoin:miter;stroke-opacity:1"/>
<path class="bond-12 atom-12 atom-13" d="M 942.0,128.3 L 1043.0,173.4" style="fill:none;fill-rule:evenodd;stroke:#000000;stroke-width:2.0px;stroke-linecap:butt;stroke-linejoin:miter;stroke-opacity:1"/>
<path class="bond-13 atom-13 atom-14" d="M 1043.0,173.4 L 1086.3,142.1" style="fill:none;fill-rule:evenodd;stroke:#000000;stroke-width:2.0px;stroke-linecap:butt;stroke-linejoin:miter;stroke-opacity:1"/>
<path class="bond-13 atom-13 atom-14" d="M 1086.3,142.1 L 1129.5,110.7" style="fill:none;fill-rule:evenodd;stroke:#191919;stroke-width:2.0px;stroke-linecap:butt;stroke-linejoin:miter;stroke-opacity:1"/>
<path class="bond-14 atom-13 atom-15" d="M 1034.3,169.5 L 1039.3,217.9" style="fill:none;fill-rule:evenodd;stroke:#000000;stroke-width:2.0px;stroke-linecap:butt;stroke-linejoin:miter;stroke-opacity:1"/>
<path class="bond-14 atom-13 atom-15" d="M 1039.3,217.9 L 1044.3,266.3" style="fill:none;fill-rule:evenodd;stroke:#FF0000;stroke-width:2.0px;stroke-linecap:butt;stroke-linejoin:miter;stroke-opacity:1"/>
<path class="bond-14 atom-13 atom-15" d="M 1050.8,167.8 L 1055.8,216.2" style="fill:none;fill-rule:evenodd;stroke:#000000;stroke-width:2.0px;stroke-linecap:butt;stroke-linejoin:miter;stroke-opacity:1"/>
<path class="bond-14 atom-13 atom-15" d="M 1055.8,216.2 L 1060.8,264.6" style="fill:none;fill-rule:evenodd;stroke:#FF0000;stroke-width:2.0px;stroke-linecap:butt;stroke-linejoin:miter;stroke-opacity:1"/>
<path d="M 179.5,204.9 L 179.8,207.2 L 184.8,209.5" style="fill:none;stroke:#000000;stroke-width:2.0px;stroke-linecap:butt;stroke-linejoin:miter;stroke-opacity:1;"/>
<path d="M 365.9,190.7 L 370.3,187.5 L 372.5,188.4" style="fill:none;stroke:#000000;stroke-width:2.0px;stroke-linecap:butt;stroke-linejoin:miter;stroke-opacity:1;"/>
<path d="M 559.1,169.1 L 560.9,167.7 L 566.0,170.0" style="fill:none;stroke:#000000;stroke-width:2.0px;stroke-linecap:butt;stroke-linejoin:miter;stroke-opacity:1;"/>
<path d="M 656.8,210.6 L 661.9,212.9 L 666.4,209.6" style="fill:none;stroke:#000000;stroke-width:2.0px;stroke-linecap:butt;stroke-linejoin:miter;stroke-opacity:1;"/>
<path d="M 747.0,151.2 L 751.5,148.0 L 756.5,150.3" style="fill:none;stroke:#000000;stroke-width:2.0px;stroke-linecap:butt;stroke-linejoin:miter;stroke-opacity:1;"/>
<path d="M 847.4,190.9 L 852.4,193.1 L 856.9,189.9" style="fill:none;stroke:#000000;stroke-width:2.0px;stroke-linecap:butt;stroke-linejoin:miter;stroke-opacity:1;"/>
<path d="M 937.5,131.5 L 942.0,128.3 L 947.1,130.5" style="fill:none;stroke:#000000;stroke-width:2.0px;stroke-linecap:butt;stroke-linejoin:miter;stroke-opacity:1;"/>
<path d="M 1038.0,171.1 L 1043.0,173.4 L 1045.2,171.8" style="fill:none;stroke:#000000;stroke-width:2.0px;stroke-linecap:butt;stroke-linejoin:miter;stroke-opacity:1;"/>
<path class="atom-0" d="M 62.1 48.9 L 66.2 44.6 L 60.7 43.5 L 61.6 40.7 L 66.6 43.2 L 65.9 37.7 L 68.9 37.6 L 68.1 43.2 L 73.2 40.8 L 74.1 43.5 L 68.5 44.6 L 72.5 48.8 L 70.1 50.6 L 67.3 45.3 L 64.5 50.6 L 62.1 48.9 " fill="#191919"/>
<path class="atom-1" d="M 155.4 97.3 Q 155.4 90.5, 158.7 86.7 Q 162.1 82.9, 168.4 82.9 Q 174.7 82.9, 178.0 86.7 Q 181.4 90.5, 181.4 97.3 Q 181.4 104.1, 178.0 108.1 Q 174.6 111.9, 168.4 111.9 Q 162.1 111.9, 158.7 108.1 Q 155.4 104.2, 155.4 97.3 M 168.4 108.7 Q 172.7 108.7, 175.0 105.9 Q 177.4 102.9, 177.4 97.3 Q 177.4 91.7, 175.0 88.9 Q 172.7 86.1, 168.4 86.1 Q 164.1 86.1, 161.7 88.9 Q 159.4 91.7, 159.4 97.3 Q 159.4 103.0, 161.7 105.9 Q 164.1 108.7, 168.4 108.7 " fill="#FF0000"/>
<path class="atom-6" d="M 458.3 232.7 Q 458.3 225.9, 461.7 222.1 Q 465.0 218.3, 471.3 218.3 Q 477.6 218.3, 481.0 222.1 Q 484.3 225.9, 484.3 232.7 Q 484.3 239.6, 480.9 243.5 Q 477.5 247.4, 471.3 247.4 Q 465.1 247.4, 461.7 243.5 Q 458.3 239.6, 458.3 232.7 M 471.3 244.2 Q 475.6 244.2, 478.0 241.3 Q 480.3 238.4, 480.3 232.7 Q 480.3 227.1, 478.0 224.3 Q 475.6 221.5, 471.3 221.5 Q 467.0 221.5, 464.6 224.3 Q 462.3 227.1, 462.3 232.7 Q 462.3 238.4, 464.6 241.3 Q 467.0 244.2, 471.3 244.2 " fill="#FF0000"/>
<path class="atom-8" d="M 536.5 57.8 Q 536.5 51.0, 539.9 47.2 Q 543.2 43.4, 549.5 43.4 Q 555.8 43.4, 559.2 47.2 Q 562.5 51.0, 562.5 57.8 Q 562.5 64.7, 559.1 68.6 Q 555.7 72.5, 549.5 72.5 Q 543.3 72.5, 539.9 68.6 Q 536.5 64.7, 536.5 57.8 M 549.5 69.3 Q 553.8 69.3, 556.2 66.4 Q 558.5 63.5, 558.5 57.8 Q 558.5 52.2, 556.2 49.4 Q 553.8 46.6, 549.5 46.6 Q 545.2 46.6, 542.8 49.4 Q 540.5 52.2, 540.5 57.8 Q 540.5 63.5, 542.8 66.4 Q 545.2 69.3, 549.5 69.3 " fill="#FF0000"/>
<path class="atom-14" d="M 1127.2 105.4 L 1131.4 101.1 L 1125.9 100.0 L 1126.7 97.2 L 1131.8 99.7 L 1131.1 94.2 L 1134.1 94.1 L 1133.2 99.7 L 1138.4 97.3 L 1139.3 100.0 L 1133.7 101.0 L 1137.7 105.3 L 1135.2 107.1 L 1132.5 101.8 L 1129.7 107.1 L 1127.2 105.4 " fill="#191919"/>
<path class="atom-15" d="M 1041.4 283.5 Q 1041.4 276.7, 1044.8 272.9 Q 1048.1 269.1, 1054.4 269.1 Q 1060.7 269.1, 1064.0 272.9 Q 1067.4 276.7, 1067.4 283.5 Q 1067.4 290.4, 1064.0 294.3 Q 1060.6 298.2, 1054.4 298.2 Q 1048.2 298.2, 1044.8 294.3 Q 1041.4 290.4, 1041.4 283.5 M 1054.4 295.0 Q 1058.7 295.0, 1061.0 292.1 Q 1063.4 289.2, 1063.4 283.5 Q 1063.4 277.9, 1061.0 275.1 Q 1058.7 272.3, 1054.4 272.3 Q 1050.1 272.3, 1047.7 275.1 Q 1045.4 277.9, 1045.4 283.5 Q 1045.4 289.2, 1047.7 292.1 Q 1050.1 295.0, 1054.4 295.0 " fill="#FF0000"/>
<path class="bond-0 atom-0 atom-1" d="M 374.9,565.1 L 416.1,559.2" style="fill:none;fill-rule:evenodd;stroke:#191919;stroke-width:2.0px;stroke-linecap:butt;stroke-linejoin:miter;stroke-opacity:1"/>
<path class="bond-0 atom-0 atom-1" d="M 416.1,559.2 L 457.4,553.4" style="fill:none;fill-rule:evenodd;stroke:#FF0000;stroke-width:2.0px;stroke-linecap:butt;stroke-linejoin:miter;stroke-opacity:1"/>
<path class="bond-1 atom-1 atom-2" d="M 488.5,569.5 L 515.3,603.8" style="fill:none;fill-rule:evenodd;stroke:#FF0000;stroke-width:2.0px;stroke-linecap:butt;stroke-linejoin:miter;stroke-opacity:1"/>
<path class="bond-1 atom-1 atom-2" d="M 515.3,603.8 L 542.2,638.1" style="fill:none;fill-rule:evenodd;stroke:#000000;stroke-width:2.0px;stroke-linecap:butt;stroke-linejoin:miter;stroke-opacity:1"/>
<path class="bond-2 atom-2 atom-3" d="M 542.2,638.1 L 651.7,622.7" style="fill:none;fill-rule:evenodd;stroke:#000000;stroke-width:2.0px;stroke-linecap:butt;stroke-linejoin:miter;stroke-opacity:1"/>
<path class="bond-3 atom-3 atom-4" d="M 651.7,622.7 L 719.9,709.8" style="fill:none;fill-rule:evenodd;stroke:#000000;stroke-width:2.0px;stroke-linecap:butt;stroke-linejoin:miter;stroke-opacity:1"/>
<path class="bond-4 atom-3 atom-5" d="M 651.7,622.7 L 693.1,520.1" style="fill:none;fill-rule:evenodd;stroke:#000000;stroke-width:2.0px;stroke-linecap:butt;stroke-linejoin:miter;stroke-opacity:1"/>
<path class="bond-5 atom-5 atom-6" d="M 693.1,520.1 L 739.5,513.5" style="fill:none;fill-rule:evenodd;stroke:#000000;stroke-width:2.0px;stroke-linecap:butt;stroke-linejoin:miter;stroke-opacity:1"/>
<path class="bond-5 atom-5 atom-6" d="M 739.5,513.5 L 786.0,506.9" style="fill:none;fill-rule:evenodd;stroke:#FF0000;stroke-width:2.0px;stroke-linecap:butt;stroke-linejoin:miter;stroke-opacity:1"/>
<path d="M 540.9,636.4 L 542.2,638.1 L 547.7,637.4" style="fill:none;stroke:#000000;stroke-width:2.0px;stroke-linecap:butt;stroke-linejoin:miter;stroke-opacity:1;"/>
<path d="M 691.0,525.2 L 693.1,520.1 L 695.4,519.7" style="fill:none;stroke:#000000;stroke-width:2.0px;stroke-linecap:butt;stroke-linejoin:miter;stroke-opacity:1;"/>
<path class="atom-0" d="M 359.2 563.4 L 363.3 559.1 L 357.8 558.0 L 358.7 555.2 L 363.7 557.7 L 363.0 552.2 L 366.0 552.1 L 365.2 557.7 L 370.3 555.3 L 371.2 558.0 L 365.6 559.1 L 369.6 563.3 L 367.2 565.1 L 364.4 559.8 L 361.6 565.1 L 359.2 563.4 " fill="#191919"/>
<path class="atom-1" d="M 461.0 551.1 Q 461.0 544.3, 464.4 540.5 Q 467.8 536.7, 474.0 536.7 Q 480.3 536.7, 483.7 540.5 Q 487.0 544.3, 487.0 551.1 Q 487.0 558.0, 483.6 561.9 Q 480.2 565.8, 474.0 565.8 Q 467.8 565.8, 464.4 561.9 Q 461.0 558.0, 461.0 551.1 M 474.0 562.6 Q 478.4 562.6, 480.7 559.7 Q 483.0 556.8, 483.0 551.1 Q 483.0 545.6, 480.7 542.8 Q 478.4 539.9, 474.0 539.9 Q 469.7 539.9, 467.4 542.7 Q 465.0 545.5, 465.0 551.1 Q 465.0 556.8, 467.4 559.7 Q 469.7 562.6, 474.0 562.6 " fill="#FF0000"/>
<path class="atom-6" d="M 789.6 504.6 Q 789.6 497.8, 793.0 494.0 Q 796.3 490.2, 802.6 490.2 Q 808.9 490.2, 812.2 494.0 Q 815.6 497.8, 815.6 504.6 Q 815.6 511.5, 812.2 515.4 Q 808.8 519.3, 802.6 519.3 Q 796.4 519.3, 793.0 515.4 Q 789.6 511.6, 789.6 504.6 M 802.6 516.1 Q 806.9 516.1, 809.2 513.2 Q 811.6 510.3, 811.6 504.6 Q 811.6 499.1, 809.2 496.3 Q 806.9 493.4, 802.6 493.4 Q 798.3 493.4, 795.9 496.2 Q 793.6 499.0, 793.6 504.6 Q 793.6 510.4, 795.9 513.2 Q 798.3 516.1, 802.6 516.1 " fill="#FF0000"/>
<path class="atom-6" d="M 820.0 490.6 L 823.9 490.6 L 823.9 502.6 L 838.3 502.6 L 838.3 490.6 L 842.2 490.6 L 842.2 518.9 L 838.3 518.9 L 838.3 505.8 L 823.9 505.8 L 823.9 518.9 L 820.0 518.9 L 820.0 490.6 " fill="#FF0000"/>
</svg>