<svg xmlns="http://www.w3.org/2000/svg" xmlns:rdkit="http://www.rdkit.org/xml" xmlns:xlink="http://www.w3.org/1999/xlink" version="1.1" baseProfile="full" xml:space="preserve" width="1200px" height="800px" viewBox="0 0 1200 800">
<!-- END OF HEADER -->
<rect style="opacity:1.0;fill:#FFFFFF;stroke:none" width="1200.0" height="800.0" x="0.0" y="0.0"> </rect>
<path class="bond-0 atom-0 atom-1" d="M 64.7,175.2 L 80.6,185.8" style="fill:none;fill-rule:evenodd;stroke:#191919;stroke-width:2.0px;stroke-linecap:butt;stroke-linejoin:miter;stroke-opacity:1"/>
<path class="bond-0 atom-0 atom-1" d="M 80.6,185.8 L 96.5,196.4" style="fill:none;fill-rule:evenodd;stroke:#FF0000;stroke-width:2.0px;stroke-linecap:butt;stroke-linejoin:miter;stroke-opacity:1"/>
<path class="bond-1 atom-1 atom-2" d="M 112.7,197.8 L 130.9,188.8" style="fill:none;fill-rule:evenodd;stroke:#FF0000;stroke-width:2.0px;stroke-linecap:butt;stroke-linejoin:miter;stroke-opacity:1"/>
<path class="bond-1 atom-1 atom-2" d="M 130.9,188.8 L 149.1,179.8" style="fill:none;fill-rule:evenodd;stroke:#000000;stroke-width:2.0px;stroke-linecap:butt;stroke-linejoin:miter;stroke-opacity:1"/>
<path class="bond-2 atom-2 atom-3" d="M 149.1,179.8 L 190.4,207.4" style="fill:none;fill-rule:evenodd;stroke:#000000;stroke-width:2.0px;stroke-linecap:butt;stroke-linejoin:miter;stroke-opacity:1"/>
<path class="bond-3 atom-3 atom-4" d="M 190.4,207.4 L 234.8,185.4" style="fill:none;fill-rule:evenodd;stroke:#000000;stroke-width:2.0px;stroke-linecap:butt;stroke-linejoin:miter;stroke-opacity:1"/>
<path class="bond-4 atom-4 atom-5" d="M 234.8,185.4 L 276.1,212.9" style="fill:none;fill-rule:evenodd;stroke:#000000;stroke-width:2.0px;stroke-linecap:butt;stroke-linejoin:miter;stroke-opacity:1"/>
<path class="bond-5 atom-5 atom-6" d="M 276.1,212.9 L 320.6,190.9" style="fill:none;fill-rule:evenodd;stroke:#000000;stroke-width:2.0px;stroke-linecap:butt;stroke-linejoin:miter;stroke-opacity:1"/>
<path class="bond-6 atom-6 atom-7" d="M 320.6,190.9 L 361.9,218.4" style="fill:none;fill-rule:evenodd;stroke:#000000;stroke-width:2.0px;stroke-linecap:butt;stroke-linejoin:miter;stroke-opacity:1"/>
<path class="bond-7 atom-7 atom-8" d="M 358.3,216.0 L 356.9,237.5" style="fill:none;fill-rule:evenodd;stroke:#000000;stroke-width:2.0px;stroke-linecap:butt;stroke-linejoin:miter;stroke-opacity:1"/>
<path class="bond-7 atom-7 atom-8" d="M 356.9,237.5 L 355.5,258.9" style="fill:none;fill-rule:evenodd;stroke:#FF0000;stroke-width:2.0px;stroke-linecap:butt;stroke-linejoin:miter;stroke-opacity:1"/>
<path class="bond-7 atom-7 atom-8" d="M 365.7,216.5 L 364.3,238.0" style="fill:none;fill-rule:evenodd;stroke:#000000;stroke-width:2.0px;stroke-linecap:butt;stroke-linejoin:miter;stroke-opacity:1"/>
<path class="bond-7 atom-7 atom-8" d="M 364.3,238.0 L 363.0,259.4" style="fill:none;fill-rule:evenodd;stroke:#FF0000;stroke-width:2.0px;stroke-linecap:butt;stroke-linejoin:miter;stroke-opacity:1"/>
<path class="bond-8 atom-7 atom-9" d="M 361.9,218.4 L 380.6,209.1" style="fill:none;fill-rule:evenodd;stroke:#000000;stroke-width:2.0px;stroke-linecap:butt;stroke-linejoin:miter;stroke-opacity:1"/>
<path class="bond-8 atom-7 atom-9" d="M 380.6,209.1 L 399.4,199.9" style="fill:none;fill-rule:evenodd;stroke:#0000FF;stroke-width:2.0px;stroke-linecap:butt;stroke-linejoin:miter;stroke-opacity:1"/>
<path class="bond-9 atom-9 atom-10" d="M 413.3,201.1 L 430.5,212.5" style="fill:none;fill-rule:evenodd;stroke:#0000FF;stroke-width:2.0px;stroke-linecap:butt;stroke-linejoin:miter;stroke-opacity:1"/>
<path class="bond-9 atom-9 atom-10" d="M 430.5,212.5 L 447.6,223.9" style="fill:none;fill-rule:evenodd;stroke:#000000;stroke-width:2.0px;stroke-linecap:butt;stroke-linejoin:miter;stroke-opacity:1"/>
<path class="bond-10 atom-10 atom-11" d="M 447.6,223.9 L 492.1,201.9" style="fill:none;fill-rule:evenodd;stroke:#000000;stroke-width:2.0px;stroke-linecap:butt;stroke-linejoin:miter;stroke-opacity:1"/>
<path class="bond-11 atom-11 atom-12" d="M 492.1,201.9 L 533.4,229.5" style="fill:none;fill-rule:evenodd;stroke:#000000;stroke-width:2.0px;stroke-linecap:butt;stroke-linejoin:miter;stroke-opacity:1"/>
<path class="bond-12 atom-12 atom-13" d="M 533.4,229.5 L 577.8,207.5" style="fill:none;fill-rule:evenodd;stroke:#000000;stroke-width:2.0px;stroke-linecap:butt;stroke-linejoin:miter;stroke-opacity:1"/>
<path class="bond-13 atom-13 atom-14" d="M 577.8,207.5 L 595.0,218.9" style="fill:none;fill-rule:evenodd;stroke:#000000;stroke-width:2.0px;stroke-linecap:butt;stroke-linejoin:miter;stroke-opacity:1"/>
<path class="bond-13 atom-13 atom-14" d="M 595.0,218.9 L 612.2,230.3" style="fill:none;fill-rule:evenodd;stroke:#0000FF;stroke-width:2.0px;stroke-linecap:butt;stroke-linejoin:miter;stroke-opacity:1"/>
<path class="bond-14 atom-14 atom-15" d="M 626.1,231.5 L 644.8,222.3" style="fill:none;fill-rule:evenodd;stroke:#0000FF;stroke-width:2.0px;stroke-linecap:butt;stroke-linejoin:miter;stroke-opacity:1"/>
<path class="bond-14 atom-14 atom-15" d="M 644.8,222.3 L 663.6,213.0" style="fill:none;fill-rule:evenodd;stroke:#000000;stroke-width:2.0px;stroke-linecap:butt;stroke-linejoin:miter;stroke-opacity:1"/>
<path class="bond-15 atom-15 atom-16" d="M 667.2,215.4 L 668.5,194.0" style="fill:none;fill-rule:evenodd;stroke:#000000;stroke-width:2.0px;stroke-linecap:butt;stroke-linejoin:miter;stroke-opacity:1"/>
<path class="bond-15 atom-15 atom-16" d="M 668.5,194.0 L 669.9,172.7" style="fill:none;fill-rule:evenodd;stroke:#FF0000;stroke-width:2.0px;stroke-linecap:butt;stroke-linejoin:miter;stroke-opacity:1"/>
<path class="bond-15 atom-15 atom-16" d="M 659.7,214.9 L 661.1,193.6" style="fill:none;fill-rule:evenodd;stroke:#000000;stroke-width:2.0px;stroke-linecap:butt;stroke-linejoin:miter;stroke-opacity:1"/>
<path class="bond-15 atom-15 atom-16" d="M 661.1,193.6 L 662.5,172.2" style="fill:none;fill-rule:evenodd;stroke:#FF0000;stroke-width:2.0px;stroke-linecap:butt;stroke-linejoin:miter;stroke-opacity:1"/>
<path class="bond-16 atom-15 atom-17" d="M 663.6,213.0 L 704.9,240.5" style="fill:none;fill-rule:evenodd;stroke:#000000;stroke-width:2.0px;stroke-linecap:butt;stroke-linejoin:miter;stroke-opacity:1"/>
<path class="bond-17 atom-17 atom-18" d="M 704.9,240.5 L 749.4,218.5" style="fill:none;fill-rule:evenodd;stroke:#000000;stroke-width:2.0px;stroke-linecap:butt;stroke-linejoin:miter;stroke-opacity:1"/>
<path class="bond-18 atom-18 atom-19" d="M 749.4,218.5 L 790.6,246.0" style="fill:none;fill-rule:evenodd;stroke:#000000;stroke-width:2.0px;stroke-linecap:butt;stroke-linejoin:miter;stroke-opacity:1"/>
<path class="bond-19 atom-19 atom-20" d="M 790.6,246.0 L 835.1,224.1" style="fill:none;fill-rule:evenodd;stroke:#000000;stroke-width:2.0px;stroke-linecap:butt;stroke-linejoin:miter;stroke-opacity:1"/>
<path class="bond-20 atom-20 atom-21" d="M 835.1,224.1 L 876.4,251.6" style="fill:none;fill-rule:evenodd;stroke:#000000;stroke-width:2.0px;stroke-linecap:butt;stroke-linejoin:miter;stroke-opacity:1"/>
<path class="bond-21 atom-21 atom-22" d="M 876.4,251.6 L 894.6,242.6" style="fill:none;fill-rule:evenodd;stroke:#000000;stroke-width:2.0px;stroke-linecap:butt;stroke-linejoin:miter;stroke-opacity:1"/>
<path class="bond-21 atom-21 atom-22" d="M 894.6,242.6 L 912.8,233.6" style="fill:none;fill-rule:evenodd;stroke:#FF0000;stroke-width:2.0px;stroke-linecap:butt;stroke-linejoin:miter;stroke-opacity:1"/>
<path class="bond-22 atom-22 atom-23" d="M 928.9,235.0 L 945.5,246.0" style="fill:none;fill-rule:evenodd;stroke:#FF0000;stroke-width:2.0px;stroke-linecap:butt;stroke-linejoin:miter;stroke-opacity:1"/>
<path class="bond-22 atom-22 atom-23" d="M 945.5,246.0 L 962.1,257.1" style="fill:none;fill-rule:evenodd;stroke:#000000;stroke-width:2.0px;stroke-linecap:butt;stroke-linejoin:miter;stroke-opacity:1"/>
<path class="bond-23 atom-23 atom-24" d="M 958.6,254.7 L 957.2,276.2" style="fill:none;fill-rule:evenodd;stroke:#000000;stroke-width:2.0px;stroke-linecap:butt;stroke-linejoin:miter;stroke-opacity:1"/>
<path class="bond-23 atom-23 atom-24" d="M 957.2,276.2 L 955.8,297.6" style="fill:none;fill-rule:evenodd;stroke:#FF0000;stroke-width:2.0px;stroke-linecap:butt;stroke-linejoin:miter;stroke-opacity:1"/>
<path class="bond-23 atom-23 atom-24" d="M 966.0,255.2 L 964.6,276.7" style="fill:none;fill-rule:evenodd;stroke:#000000;stroke-width:2.0px;stroke-linecap:butt;stroke-linejoin:miter;stroke-opacity:1"/>
<path class="bond-23 atom-23 atom-24" d="M 964.6,276.7 L 963.2,298.1" style="fill:none;fill-rule:evenodd;stroke:#FF0000;stroke-width:2.0px;stroke-linecap:butt;stroke-linejoin:miter;stroke-opacity:1"/>
<path class="bond-24 atom-23 atom-25" d="M 962.1,257.1 L 1006.6,235.1" style="fill:none;fill-rule:evenodd;stroke:#000000;stroke-width:2.0px;stroke-linecap:butt;stroke-linejoin:miter;stroke-opacity:1"/>
<path class="bond-25 atom-25 atom-26" d="M 1006.6,235.1 L 1050.5,258.2" style="fill:none;fill-rule:evenodd;stroke:#000000;stroke-width:2.0px;stroke-linecap:butt;stroke-linejoin:miter;stroke-opacity:1"/>
<path class="bond-25 atom-25 atom-26" d="M 1014.9,231.0 L 1049.2,249.1" style="fill:none;fill-rule:evenodd;stroke:#000000;stroke-width:2.0px;stroke-linecap:butt;stroke-linejoin:miter;stroke-opacity:1"/>
<path class="bond-26 atom-26 atom-27" d="M 1050.5,258.2 L 1086.0,223.5" style="fill:none;fill-rule:evenodd;stroke:#000000;stroke-width:2.0px;stroke-linecap:butt;stroke-linejoin:miter;stroke-opacity:1"/>
<path class="bond-27 atom-27 atom-28" d="M 1086.0,223.5 L 1064.1,179.0" style="fill:none;fill-rule:evenodd;stroke:#000000;stroke-width:2.0px;stroke-linecap:butt;stroke-linejoin:miter;stroke-opacity:1"/>
<path class="bond-27 atom-27 atom-28" d="M 1077.0,222.0 L 1059.8,187.2" style="fill:none;fill-rule:evenodd;stroke:#000000;stroke-width:2.0px;stroke-linecap:butt;stroke-linejoin:miter;stroke-opacity:1"/>
<path class="bond-28 atom-28 atom-29" d="M 1064.1,179.0 L 1087.1,135.1" style="fill:none;fill-rule:evenodd;stroke:#000000;stroke-width:2.0px;stroke-linecap:butt;stroke-linejoin:miter;stroke-opacity:1"/>
<path class="bond-29 atom-29 atom-30" d="M 1087.1,135.1 L 1109.4,134.2" style="fill:none;fill-rule:evenodd;stroke:#000000;stroke-width:2.0px;stroke-linecap:butt;stroke-linejoin:miter;stroke-opacity:1"/>
<path class="bond-29 atom-29 atom-30" d="M 1109.4,134.2 L 1131.7,133.3" style="fill:none;fill-rule:evenodd;stroke:#191919;stroke-width:2.0px;stroke-linecap:butt;stroke-linejoin:miter;stroke-opacity:1"/>
<path class="bond-30 atom-29 atom-31" d="M 1091.4,134.9 L 1080.4,117.5" style="fill:none;fill-rule:evenodd;stroke:#000000;stroke-width:2.0px;stroke-linecap:butt;stroke-linejoin:miter;stroke-opacity:1"/>
<path class="bond-30 atom-29 atom-31" d="M 1080.4,117.5 L 1069.4,100.1" style="fill:none;fill-rule:evenodd;stroke:#FF0000;stroke-width:2.0px;stroke-linecap:butt;stroke-linejoin:miter;stroke-opacity:1"/>
<path class="bond-30 atom-29 atom-31" d="M 1085.1,138.9 L 1074.1,121.5" style="fill:none;fill-rule:evenodd;stroke:#000000;stroke-width:2.0px;stroke-linecap:butt;stroke-linejoin:miter;stroke-opacity:1"/>
<path class="bond-30 atom-29 atom-31" d="M 1074.1,121.5 L 1063.1,104.1" style="fill:none;fill-rule:evenodd;stroke:#FF0000;stroke-width:2.0px;stroke-linecap:butt;stroke-linejoin:miter;stroke-opacity:1"/>
<path class="bond-31 atom-28 atom-32" d="M 1064.1,179.0 L 1043.5,182.0" style="fill:none;fill-rule:evenodd;stroke:#000000;stroke-width:2.0px;stroke-linecap:butt;stroke-linejoin:miter;stroke-opacity:1"/>
<path class="bond-31 atom-28 atom-32" d="M 1043.5,182.0 L 1023.0,185.0" style="fill:none;fill-rule:evenodd;stroke:#FF0000;stroke-width:2.0px;stroke-linecap:butt;stroke-linejoin:miter;stroke-opacity:1"/>
<path class="bond-32 atom-32 atom-25" d="M 1013.4,195.2 L 1010.0,215.1" style="fill:none;fill-rule:evenodd;stroke:#FF0000;stroke-width:2.0px;stroke-linecap:butt;stroke-linejoin:miter;stroke-opacity:1"/>
<path class="bond-32 atom-32 atom-25" d="M 1010.0,215.1 L 1006.6,235.1" style="fill:none;fill-rule:evenodd;stroke:#000000;stroke-width:2.0px;stroke-linecap:butt;stroke-linejoin:miter;stroke-opacity:1"/>
<path d="M 148.2,180.3 L 149.1,179.8 L 151.1,181.2" style="fill:none;stroke:#000000;stroke-width:2.0px;stroke-linecap:butt;stroke-linejoin:miter;stroke-opacity:1;"/>
<path d="M 188.3,206.0 L 190.4,207.4 L 192.6,206.3" style="fill:none;stroke:#000000;stroke-width:2.0px;stroke-linecap:butt;stroke-linejoin:miter;stroke-opacity:1;"/>
<path d="M 232.6,186.5 L 234.8,185.4 L 236.9,186.7" style="fill:none;stroke:#000000;stroke-width:2.0px;stroke-linecap:butt;stroke-linejoin:miter;stroke-opacity:1;"/>
<path d="M 274.0,211.5 L 276.1,212.9 L 278.3,211.8" style="fill:none;stroke:#000000;stroke-width:2.0px;stroke-linecap:butt;stroke-linejoin:miter;stroke-opacity:1;"/>
<path d="M 318.4,192.0 L 320.6,190.9 L 322.6,192.3" style="fill:none;stroke:#000000;stroke-width:2.0px;stroke-linecap:butt;stroke-linejoin:miter;stroke-opacity:1;"/>
<path d="M 359.8,217.0 L 361.9,218.4 L 362.8,217.9" style="fill:none;stroke:#000000;stroke-width:2.0px;stroke-linecap:butt;stroke-linejoin:miter;stroke-opacity:1;"/>
<path d="M 446.8,223.4 L 447.6,223.9 L 449.8,222.8" style="fill:none;stroke:#000000;stroke-width:2.0px;stroke-linecap:butt;stroke-linejoin:miter;stroke-opacity:1;"/>
<path d="M 489.9,203.0 L 492.1,201.9 L 494.2,203.3" style="fill:none;stroke:#000000;stroke-width:2.0px;stroke-linecap:butt;stroke-linejoin:miter;stroke-opacity:1;"/>
<path d="M 531.3,228.1 L 533.4,229.5 L 535.6,228.4" style="fill:none;stroke:#000000;stroke-width:2.0px;stroke-linecap:butt;stroke-linejoin:miter;stroke-opacity:1;"/>
<path d="M 575.6,208.6 L 577.8,207.5 L 578.7,208.0" style="fill:none;stroke:#000000;stroke-width:2.0px;stroke-linecap:butt;stroke-linejoin:miter;stroke-opacity:1;"/>
<path d="M 662.7,213.5 L 663.6,213.0 L 665.7,214.4" style="fill:none;stroke:#000000;stroke-width:2.0px;stroke-linecap:butt;stroke-linejoin:miter;stroke-opacity:1;"/>
<path d="M 702.8,239.1 L 704.9,240.5 L 707.1,239.4" style="fill:none;stroke:#000000;stroke-width:2.0px;stroke-linecap:butt;stroke-linejoin:miter;stroke-opacity:1;"/>
<path d="M 747.1,219.6 L 749.4,218.5 L 751.4,219.9" style="fill:none;stroke:#000000;stroke-width:2.0px;stroke-linecap:butt;stroke-linejoin:miter;stroke-opacity:1;"/>
<path d="M 788.6,244.7 L 790.6,246.0 L 792.9,244.9" style="fill:none;stroke:#000000;stroke-width:2.0px;stroke-linecap:butt;stroke-linejoin:miter;stroke-opacity:1;"/>
<path d="M 832.9,225.2 L 835.1,224.1 L 837.2,225.4" style="fill:none;stroke:#000000;stroke-width:2.0px;stroke-linecap:butt;stroke-linejoin:miter;stroke-opacity:1;"/>
<path d="M 874.3,250.2 L 876.4,251.6 L 877.3,251.1" style="fill:none;stroke:#000000;stroke-width:2.0px;stroke-linecap:butt;stroke-linejoin:miter;stroke-opacity:1;"/>
<path d="M 961.3,256.5 L 962.1,257.1 L 964.4,256.0" style="fill:none;stroke:#000000;stroke-width:2.0px;stroke-linecap:butt;stroke-linejoin:miter;stroke-opacity:1;"/>
<path d="M 1048.3,257.0 L 1050.5,258.2 L 1052.3,256.4" style="fill:none;stroke:#000000;stroke-width:2.0px;stroke-linecap:butt;stroke-linejoin:miter;stroke-opacity:1;"/>
<path d="M 1084.3,225.2 L 1086.0,223.5 L 1084.9,221.3" style="fill:none;stroke:#000000;stroke-width:2.0px;stroke-linecap:butt;stroke-linejoin:miter;stroke-opacity:1;"/>
<path d="M 1086.0,137.3 L 1087.1,135.1 L 1088.2,135.1" style="fill:none;stroke:#000000;stroke-width:2.0px;stroke-linecap:butt;stroke-linejoin:miter;stroke-opacity:1;"/>
<path class="atom-0" d="M 60.7 172.7 L 62.7 170.6 L 60.0 170.1 L 60.4 168.7 L 62.9 169.9 L 62.6 167.2 L 64.1 167.2 L 63.7 169.9 L 66.2 168.7 L 66.6 170.1 L 63.9 170.6 L 65.9 172.7 L 64.6 173.6 L 63.3 171.0 L 61.9 173.6 L 60.7 172.7 " fill="#191919"/>
<path class="atom-1" d="M 98.2 201.9 Q 98.2 198.5, 99.8 196.6 Q 101.5 194.7, 104.6 194.7 Q 107.7 194.7, 109.4 196.6 Q 111.1 198.5, 111.1 201.9 Q 111.1 205.3, 109.4 207.2 Q 107.7 209.2, 104.6 209.2 Q 101.5 209.2, 99.8 207.2 Q 98.2 205.3, 98.2 201.9 M 104.6 207.6 Q 106.7 207.6, 107.9 206.1 Q 109.1 204.7, 109.1 201.9 Q 109.1 199.1, 107.9 197.7 Q 106.7 196.3, 104.6 196.3 Q 102.5 196.3, 101.3 197.7 Q 100.1 199.1, 100.1 201.9 Q 100.1 204.7, 101.3 206.1 Q 102.5 207.6, 104.6 207.6 " fill="#FF0000"/>
<path class="atom-8" d="M 352.2 268.0 Q 352.2 264.6, 353.9 262.7 Q 355.6 260.8, 358.7 260.8 Q 361.8 260.8, 363.5 262.7 Q 365.1 264.6, 365.1 268.0 Q 365.1 271.4, 363.4 273.3 Q 361.8 275.2, 358.7 275.2 Q 355.6 275.2, 353.9 273.3 Q 352.2 271.4, 352.2 268.0 M 358.7 273.7 Q 360.8 273.7, 362.0 272.2 Q 363.1 270.8, 363.1 268.0 Q 363.1 265.2, 362.0 263.8 Q 360.8 262.4, 358.7 262.4 Q 356.5 262.4, 355.4 263.8 Q 354.2 265.2, 354.2 268.0 Q 354.2 270.8, 355.4 272.2 Q 356.5 273.7, 358.7 273.7 " fill="#FF0000"/>
<path class="atom-9" d="M 403.2 189.4 L 407.8 196.8 Q 408.3 197.6, 409.0 198.9 Q 409.8 200.2, 409.8 200.3 L 409.8 189.4 L 411.7 189.4 L 411.7 203.4 L 409.7 203.4 L 404.8 195.3 Q 404.2 194.4, 403.6 193.3 Q 403.0 192.2, 402.8 191.8 L 402.8 203.4 L 401.0 203.4 L 401.0 189.4 L 403.2 189.4 " fill="#0000FF"/>
<path class="atom-9" d="M 400.8 173.9 L 402.7 173.9 L 402.7 179.9 L 409.9 179.9 L 409.9 173.9 L 411.8 173.9 L 411.8 188.0 L 409.9 188.0 L 409.9 181.5 L 402.7 181.5 L 402.7 188.0 L 400.8 188.0 L 400.8 173.9 " fill="#0000FF"/>
<path class="atom-14" d="M 616.0 228.0 L 620.6 235.4 Q 621.1 236.1, 621.8 237.5 Q 622.5 238.8, 622.6 238.9 L 622.6 228.0 L 624.5 228.0 L 624.5 242.0 L 622.5 242.0 L 617.6 233.9 Q 617.0 232.9, 616.4 231.8 Q 615.8 230.7, 615.6 230.4 L 615.6 242.0 L 613.8 242.0 L 613.8 228.0 L 616.0 228.0 " fill="#0000FF"/>
<path class="atom-14" d="M 613.6 243.4 L 615.5 243.4 L 615.5 249.4 L 622.7 249.4 L 622.7 243.4 L 624.6 243.4 L 624.6 257.5 L 622.7 257.5 L 622.7 251.0 L 615.5 251.0 L 615.5 257.5 L 613.6 257.5 L 613.6 243.4 " fill="#0000FF"/>
<path class="atom-16" d="M 660.3 163.5 Q 660.3 160.2, 662.0 158.3 Q 663.7 156.4, 666.8 156.4 Q 669.9 156.4, 671.6 158.3 Q 673.2 160.2, 673.2 163.5 Q 673.2 166.9, 671.6 168.9 Q 669.9 170.8, 666.8 170.8 Q 663.7 170.8, 662.0 168.9 Q 660.3 167.0, 660.3 163.5 M 666.8 169.2 Q 668.9 169.2, 670.1 167.8 Q 671.3 166.3, 671.3 163.5 Q 671.3 160.8, 670.1 159.4 Q 668.9 158.0, 666.8 158.0 Q 664.6 158.0, 663.5 159.4 Q 662.3 160.8, 662.3 163.5 Q 662.3 166.4, 663.5 167.8 Q 664.6 169.2, 666.8 169.2 " fill="#FF0000"/>
<path class="atom-22" d="M 914.4 229.6 Q 914.4 226.2, 916.1 224.4 Q 917.7 222.5, 920.9 222.5 Q 924.0 222.5, 925.6 224.4 Q 927.3 226.2, 927.3 229.6 Q 927.3 233.0, 925.6 235.0 Q 923.9 236.9, 920.9 236.9 Q 917.8 236.9, 916.1 235.0 Q 914.4 233.1, 914.4 229.6 M 920.9 235.3 Q 923.0 235.3, 924.2 233.9 Q 925.3 232.4, 925.3 229.6 Q 925.3 226.9, 924.2 225.5 Q 923.0 224.1, 920.9 224.1 Q 918.7 224.1, 917.5 225.5 Q 916.4 226.8, 916.4 229.6 Q 916.4 232.5, 917.5 233.9 Q 918.7 235.3, 920.9 235.3 " fill="#FF0000"/>
<path class="atom-24" d="M 952.5 306.7 Q 952.5 303.3, 954.2 301.4 Q 955.8 299.5, 958.9 299.5 Q 962.1 299.5, 963.7 301.4 Q 965.4 303.3, 965.4 306.7 Q 965.4 310.1, 963.7 312.0 Q 962.0 313.9, 958.9 313.9 Q 955.9 313.9, 954.2 312.0 Q 952.5 310.1, 952.5 306.7 M 958.9 312.3 Q 961.1 312.3, 962.2 310.9 Q 963.4 309.5, 963.4 306.7 Q 963.4 303.9, 962.2 302.5 Q 961.1 301.1, 958.9 301.1 Q 956.8 301.1, 955.6 302.5 Q 954.5 303.9, 954.5 306.7 Q 954.5 309.5, 955.6 310.9 Q 956.8 312.3, 958.9 312.3 " fill="#FF0000"/>
<path class="atom-30" d="M 1134.0 131.5 L 1136.1 129.4 L 1133.4 128.9 L 1133.8 127.5 L 1136.3 128.7 L 1135.9 126.0 L 1137.4 126.0 L 1137.0 128.7 L 1139.6 127.5 L 1140.0 128.9 L 1137.2 129.4 L 1139.2 131.5 L 1138.0 132.4 L 1136.6 129.8 L 1135.2 132.4 L 1134.0 131.5 " fill="#191919"/>
<path class="atom-31" d="M 1054.1 93.2 Q 1054.1 89.8, 1055.8 88.0 Q 1057.5 86.1, 1060.6 86.1 Q 1063.7 86.1, 1065.4 88.0 Q 1067.0 89.8, 1067.0 93.2 Q 1067.0 96.6, 1065.3 98.6 Q 1063.7 100.5, 1060.6 100.5 Q 1057.5 100.5, 1055.8 98.6 Q 1054.1 96.6, 1054.1 93.2 M 1060.6 98.9 Q 1062.7 98.9, 1063.9 97.5 Q 1065.0 96.0, 1065.0 93.2 Q 1065.0 90.5, 1063.9 89.1 Q 1062.7 87.7, 1060.6 87.7 Q 1058.4 87.7, 1057.3 89.0 Q 1056.1 90.4, 1056.1 93.2 Q 1056.1 96.0, 1057.3 97.5 Q 1058.4 98.9, 1060.6 98.9 " fill="#FF0000"/>
<path class="atom-32" d="M 1008.5 186.2 Q 1008.5 182.9, 1010.2 181.0 Q 1011.8 179.1, 1015.0 179.1 Q 1018.1 179.1, 1019.7 181.0 Q 1021.4 182.9, 1021.4 186.2 Q 1021.4 189.7, 1019.7 191.6 Q 1018.0 193.5, 1015.0 193.5 Q 1011.9 193.5, 1010.2 191.6 Q 1008.5 189.7, 1008.5 186.2 M 1015.0 191.9 Q 1017.1 191.9, 1018.3 190.5 Q 1019.4 189.1, 1019.4 186.2 Q 1019.4 183.5, 1018.3 182.1 Q 1017.1 180.7, 1015.0 180.7 Q 1012.8 180.7, 1011.6 182.1 Q 1010.5 183.5, 1010.5 186.2 Q 1010.5 189.1, 1011.6 190.5 Q 1012.8 191.9, 1015.0 191.9 " fill="#FF0000"/>
<path class="bond-0 atom-0 atom-1" d="M 235.0,568.7 L 250.3,580.0" style="fill:none;fill-rule:evenodd;stroke:#191919;stroke-width:2.0px;stroke-linecap:butt;stroke-linejoin:miter;stroke-opacity:1"/>
<path class="bond-0 atom-0 atom-1" d="M 250.3,580.0 L 265.6,591.3" style="fill:none;fill-rule:evenodd;stroke:#FF0000;stroke-width:2.0px;stroke-linecap:butt;stroke-linejoin:miter;stroke-opacity:1"/>
<path class="bond-1 atom-1 atom-2" d="M 281.8,593.7 L 300.4,585.5" style="fill:none;fill-rule:evenodd;stroke:#FF0000;stroke-width:2.0px;stroke-linecap:butt;stroke-linejoin:miter;stroke-opacity:1"/>
<path class="bond-1 atom-1 atom-2" d="M 300.4,585.5 L 319.1,577.4" style="fill:none;fill-rule:evenodd;stroke:#000000;stroke-width:2.0px;stroke-linecap:butt;stroke-linejoin:miter;stroke-opacity:1"/>
<path class="bond-2 atom-2 atom-3" d="M 319.1,577.4 L 359.1,606.8" style="fill:none;fill-rule:evenodd;stroke:#000000;stroke-width:2.0px;stroke-linecap:butt;stroke-linejoin:miter;stroke-opacity:1"/>
<path class="bond-3 atom-3 atom-4" d="M 359.1,606.8 L 404.5,587.0" style="fill:none;fill-rule:evenodd;stroke:#000000;stroke-width:2.0px;stroke-linecap:butt;stroke-linejoin:miter;stroke-opacity:1"/>
<path class="bond-4 atom-4 atom-5" d="M 404.5,587.0 L 444.5,616.4" style="fill:none;fill-rule:evenodd;stroke:#000000;stroke-width:2.0px;stroke-linecap:butt;stroke-linejoin:miter;stroke-opacity:1"/>
<path class="bond-5 atom-5 atom-6" d="M 444.5,616.4 L 489.9,596.5" style="fill:none;fill-rule:evenodd;stroke:#000000;stroke-width:2.0px;stroke-linecap:butt;stroke-linejoin:miter;stroke-opacity:1"/>
<path class="bond-6 atom-6 atom-7" d="M 489.9,596.5 L 529.8,626.0" style="fill:none;fill-rule:evenodd;stroke:#000000;stroke-width:2.0px;stroke-linecap:butt;stroke-linejoin:miter;stroke-opacity:1"/>
<path class="bond-7 atom-7 atom-8" d="M 529.8,626.0 L 575.3,606.1" style="fill:none;fill-rule:evenodd;stroke:#000000;stroke-width:2.0px;stroke-linecap:butt;stroke-linejoin:miter;stroke-opacity:1"/>
<path class="bond-8 atom-8 atom-9" d="M 575.3,606.1 L 615.2,635.6" style="fill:none;fill-rule:evenodd;stroke:#000000;stroke-width:2.0px;stroke-linecap:butt;stroke-linejoin:miter;stroke-opacity:1"/>
<path class="bond-9 atom-9 atom-10" d="M 615.2,635.6 L 660.7,615.7" style="fill:none;fill-rule:evenodd;stroke:#000000;stroke-width:2.0px;stroke-linecap:butt;stroke-linejoin:miter;stroke-opacity:1"/>
<path class="bond-10 atom-10 atom-11" d="M 660.7,615.7 L 700.6,645.2" style="fill:none;fill-rule:evenodd;stroke:#000000;stroke-width:2.0px;stroke-linecap:butt;stroke-linejoin:miter;stroke-opacity:1"/>
<path class="bond-11 atom-11 atom-12" d="M 700.6,645.2 L 719.3,637.0" style="fill:none;fill-rule:evenodd;stroke:#000000;stroke-width:2.0px;stroke-linecap:butt;stroke-linejoin:miter;stroke-opacity:1"/>
<path class="bond-11 atom-11 atom-12" d="M 719.3,637.0 L 738.0,628.9" style="fill:none;fill-rule:evenodd;stroke:#FF0000;stroke-width:2.0px;stroke-linecap:butt;stroke-linejoin:miter;stroke-opacity:1"/>
<path class="bond-12 atom-12 atom-13" d="M 754.2,631.3 L 770.1,643.0" style="fill:none;fill-rule:evenodd;stroke:#FF0000;stroke-width:2.0px;stroke-linecap:butt;stroke-linejoin:miter;stroke-opacity:1"/>
<path class="bond-12 atom-12 atom-13" d="M 770.1,643.0 L 786.0,654.8" style="fill:none;fill-rule:evenodd;stroke:#000000;stroke-width:2.0px;stroke-linecap:butt;stroke-linejoin:miter;stroke-opacity:1"/>
<path class="bond-13 atom-13 atom-14" d="M 782.6,652.2 L 780.2,673.6" style="fill:none;fill-rule:evenodd;stroke:#000000;stroke-width:2.0px;stroke-linecap:butt;stroke-linejoin:miter;stroke-opacity:1"/>
<path class="bond-13 atom-13 atom-14" d="M 780.2,673.6 L 777.8,694.9" style="fill:none;fill-rule:evenodd;stroke:#FF0000;stroke-width:2.0px;stroke-linecap:butt;stroke-linejoin:miter;stroke-opacity:1"/>
<path class="bond-13 atom-13 atom-14" d="M 790.0,653.1 L 787.6,674.4" style="fill:none;fill-rule:evenodd;stroke:#000000;stroke-width:2.0px;stroke-linecap:butt;stroke-linejoin:miter;stroke-opacity:1"/>
<path class="bond-13 atom-13 atom-14" d="M 787.6,674.4 L 785.2,695.8" style="fill:none;fill-rule:evenodd;stroke:#FF0000;stroke-width:2.0px;stroke-linecap:butt;stroke-linejoin:miter;stroke-opacity:1"/>
<path class="bond-14 atom-13 atom-15" d="M 786.0,654.8 L 831.5,634.9" style="fill:none;fill-rule:evenodd;stroke:#000000;stroke-width:2.0px;stroke-linecap:butt;stroke-linejoin:miter;stroke-opacity:1"/>
<path class="bond-15 atom-15 atom-16" d="M 831.5,634.9 L 874.3,660.0" style="fill:none;fill-rule:evenodd;stroke:#000000;stroke-width:2.0px;stroke-linecap:butt;stroke-linejoin:miter;stroke-opacity:1"/>
<path class="bond-15 atom-15 atom-16" d="M 839.9,631.2 L 873.4,650.9" style="fill:none;fill-rule:evenodd;stroke:#000000;stroke-width:2.0px;stroke-linecap:butt;stroke-linejoin:miter;stroke-opacity:1"/>
<path class="bond-16 atom-16 atom-17" d="M 874.3,660.0 L 911.4,627.1" style="fill:none;fill-rule:evenodd;stroke:#000000;stroke-width:2.0px;stroke-linecap:butt;stroke-linejoin:miter;stroke-opacity:1"/>
<path class="bond-17 atom-17 atom-18" d="M 911.4,627.1 L 891.5,581.6" style="fill:none;fill-rule:evenodd;stroke:#000000;stroke-width:2.0px;stroke-linecap:butt;stroke-linejoin:miter;stroke-opacity:1"/>
<path class="bond-17 atom-17 atom-18" d="M 902.4,625.1 L 886.9,589.6" style="fill:none;fill-rule:evenodd;stroke:#000000;stroke-width:2.0px;stroke-linecap:butt;stroke-linejoin:miter;stroke-opacity:1"/>
<path class="bond-18 atom-18 atom-19" d="M 891.5,581.6 L 916.6,538.8" style="fill:none;fill-rule:evenodd;stroke:#000000;stroke-width:2.0px;stroke-linecap:butt;stroke-linejoin:miter;stroke-opacity:1"/>
<path class="bond-19 atom-19 atom-20" d="M 916.6,538.8 L 939.0,539.0" style="fill:none;fill-rule:evenodd;stroke:#000000;stroke-width:2.0px;stroke-linecap:butt;stroke-linejoin:miter;stroke-opacity:1"/>
<path class="bond-19 atom-19 atom-20" d="M 939.0,539.0 L 961.3,539.2" style="fill:none;fill-rule:evenodd;stroke:#191919;stroke-width:2.0px;stroke-linecap:butt;stroke-linejoin:miter;stroke-opacity:1"/>
<path class="bond-20 atom-19 atom-21" d="M 920.9,538.9 L 910.7,520.9" style="fill:none;fill-rule:evenodd;stroke:#000000;stroke-width:2.0px;stroke-linecap:butt;stroke-linejoin:miter;stroke-opacity:1"/>
<path class="bond-20 atom-19 atom-21" d="M 910.7,520.9 L 900.5,502.8" style="fill:none;fill-rule:evenodd;stroke:#FF0000;stroke-width:2.0px;stroke-linecap:butt;stroke-linejoin:miter;stroke-opacity:1"/>
<path class="bond-20 atom-19 atom-21" d="M 914.5,542.6 L 904.2,524.5" style="fill:none;fill-rule:evenodd;stroke:#000000;stroke-width:2.0px;stroke-linecap:butt;stroke-linejoin:miter;stroke-opacity:1"/>
<path class="bond-20 atom-19 atom-21" d="M 904.2,524.5 L 894.0,506.5" style="fill:none;fill-rule:evenodd;stroke:#FF0000;stroke-width:2.0px;stroke-linecap:butt;stroke-linejoin:miter;stroke-opacity:1"/>
<path class="bond-21 atom-18 atom-22" d="M 891.5,581.6 L 870.9,583.7" style="fill:none;fill-rule:evenodd;stroke:#000000;stroke-width:2.0px;stroke-linecap:butt;stroke-linejoin:miter;stroke-opacity:1"/>
<path class="bond-21 atom-18 atom-22" d="M 870.9,583.7 L 850.2,585.7" style="fill:none;fill-rule:evenodd;stroke:#FF0000;stroke-width:2.0px;stroke-linecap:butt;stroke-linejoin:miter;stroke-opacity:1"/>
<path class="bond-22 atom-22 atom-15" d="M 840.2,595.4 L 835.8,615.2" style="fill:none;fill-rule:evenodd;stroke:#FF0000;stroke-width:2.0px;stroke-linecap:butt;stroke-linejoin:miter;stroke-opacity:1"/>
<path class="bond-22 atom-22 atom-15" d="M 835.8,615.2 L 831.5,634.9" style="fill:none;fill-rule:evenodd;stroke:#000000;stroke-width:2.0px;stroke-linecap:butt;stroke-linejoin:miter;stroke-opacity:1"/>
<path d="M 318.2,577.8 L 319.1,577.4 L 321.1,578.8" style="fill:none;stroke:#000000;stroke-width:2.0px;stroke-linecap:butt;stroke-linejoin:miter;stroke-opacity:1;"/>
<path d="M 357.1,605.3 L 359.1,606.8 L 361.3,605.8" style="fill:none;stroke:#000000;stroke-width:2.0px;stroke-linecap:butt;stroke-linejoin:miter;stroke-opacity:1;"/>
<path d="M 402.3,587.9 L 404.5,587.0 L 406.5,588.4" style="fill:none;stroke:#000000;stroke-width:2.0px;stroke-linecap:butt;stroke-linejoin:miter;stroke-opacity:1;"/>
<path d="M 442.5,614.9 L 444.5,616.4 L 446.7,615.4" style="fill:none;stroke:#000000;stroke-width:2.0px;stroke-linecap:butt;stroke-linejoin:miter;stroke-opacity:1;"/>
<path d="M 487.6,597.5 L 489.9,596.5 L 491.9,598.0" style="fill:none;stroke:#000000;stroke-width:2.0px;stroke-linecap:butt;stroke-linejoin:miter;stroke-opacity:1;"/>
<path d="M 527.9,624.5 L 529.8,626.0 L 532.1,625.0" style="fill:none;stroke:#000000;stroke-width:2.0px;stroke-linecap:butt;stroke-linejoin:miter;stroke-opacity:1;"/>
<path d="M 573.0,607.1 L 575.3,606.1 L 577.3,607.6" style="fill:none;stroke:#000000;stroke-width:2.0px;stroke-linecap:butt;stroke-linejoin:miter;stroke-opacity:1;"/>
<path d="M 613.2,634.1 L 615.2,635.6 L 617.5,634.6" style="fill:none;stroke:#000000;stroke-width:2.0px;stroke-linecap:butt;stroke-linejoin:miter;stroke-opacity:1;"/>
<path d="M 658.4,616.7 L 660.7,615.7 L 662.7,617.2" style="fill:none;stroke:#000000;stroke-width:2.0px;stroke-linecap:butt;stroke-linejoin:miter;stroke-opacity:1;"/>
<path d="M 698.6,643.7 L 700.6,645.2 L 701.6,644.8" style="fill:none;stroke:#000000;stroke-width:2.0px;stroke-linecap:butt;stroke-linejoin:miter;stroke-opacity:1;"/>
<path d="M 785.2,654.2 L 786.0,654.8 L 788.3,653.8" style="fill:none;stroke:#000000;stroke-width:2.0px;stroke-linecap:butt;stroke-linejoin:miter;stroke-opacity:1;"/>
<path d="M 872.1,658.8 L 874.3,660.0 L 876.1,658.4" style="fill:none;stroke:#000000;stroke-width:2.0px;stroke-linecap:butt;stroke-linejoin:miter;stroke-opacity:1;"/>
<path d="M 909.5,628.7 L 911.4,627.1 L 910.4,624.8" style="fill:none;stroke:#000000;stroke-width:2.0px;stroke-linecap:butt;stroke-linejoin:miter;stroke-opacity:1;"/>
<path d="M 915.4,541.0 L 916.6,538.8 L 917.8,538.9" style="fill:none;stroke:#000000;stroke-width:2.0px;stroke-linecap:butt;stroke-linejoin:miter;stroke-opacity:1;"/>
<path class="atom-0" d="M 231.1 566.2 L 233.2 564.1 L 230.4 563.5 L 230.8 562.1 L 233.4 563.4 L 233.0 560.6 L 234.5 560.6 L 234.1 563.4 L 236.6 562.2 L 237.1 563.5 L 234.3 564.1 L 236.3 566.2 L 235.1 567.1 L 233.7 564.4 L 232.3 567.1 L 231.1 566.2 " fill="#191919"/>
<path class="atom-1" d="M 267.2 597.3 Q 267.2 593.9, 268.9 592.0 Q 270.6 590.1, 273.7 590.1 Q 276.8 590.1, 278.4 592.0 Q 280.1 593.9, 280.1 597.3 Q 280.1 600.7, 278.4 602.6 Q 276.7 604.5, 273.7 604.5 Q 270.6 604.5, 268.9 602.6 Q 267.2 600.7, 267.2 597.3 M 273.7 603.0 Q 275.8 603.0, 277.0 601.5 Q 278.1 600.1, 278.1 597.3 Q 278.1 594.5, 277.0 593.1 Q 275.8 591.7, 273.7 591.7 Q 271.5 591.7, 270.4 593.1 Q 269.2 594.5, 269.2 597.3 Q 269.2 600.1, 270.4 601.5 Q 271.5 603.0, 273.7 603.0 " fill="#FF0000"/>
<path class="atom-12" d="M 739.7 625.4 Q 739.7 622.0, 741.3 620.1 Q 743.0 618.2, 746.1 618.2 Q 749.2 618.2, 750.9 620.1 Q 752.6 622.0, 752.6 625.4 Q 752.6 628.8, 750.9 630.7 Q 749.2 632.6, 746.1 632.6 Q 743.0 632.6, 741.3 630.7 Q 739.7 628.8, 739.7 625.4 M 746.1 631.1 Q 748.2 631.1, 749.4 629.6 Q 750.6 628.2, 750.6 625.4 Q 750.6 622.6, 749.4 621.2 Q 748.2 619.8, 746.1 619.8 Q 744.0 619.8, 742.8 621.2 Q 741.6 622.6, 741.6 625.4 Q 741.6 628.2, 742.8 629.6 Q 744.0 631.1, 746.1 631.1 " fill="#FF0000"/>
<path class="atom-14" d="M 774.0 704.1 Q 774.0 700.7, 775.7 698.9 Q 777.4 697.0, 780.5 697.0 Q 783.6 697.0, 785.3 698.9 Q 786.9 700.7, 786.9 704.1 Q 786.9 707.5, 785.3 709.5 Q 783.6 711.4, 780.5 711.4 Q 777.4 711.4, 775.7 709.5 Q 774.0 707.6, 774.0 704.1 M 780.5 709.8 Q 782.6 709.8, 783.8 708.4 Q 785.0 706.9, 785.0 704.1 Q 785.0 701.4, 783.8 700.0 Q 782.6 698.6, 780.5 698.6 Q 778.4 698.6, 777.2 699.9 Q 776.0 701.3, 776.0 704.1 Q 776.0 707.0, 777.2 708.4 Q 778.4 709.8, 780.5 709.8 " fill="#FF0000"/>
<path class="atom-20" d="M 963.6 537.6 L 965.7 535.5 L 962.9 535.0 L 963.4 533.6 L 965.9 534.8 L 965.5 532.1 L 967.0 532.1 L 966.6 534.8 L 969.1 533.6 L 969.6 535.0 L 966.8 535.5 L 968.8 537.6 L 967.6 538.5 L 966.2 535.9 L 964.8 538.5 L 963.6 537.6 " fill="#191919"/>
<path class="atom-21" d="M 885.7 495.7 Q 885.7 492.4, 887.4 490.5 Q 889.0 488.6, 892.2 488.6 Q 895.3 488.6, 896.9 490.5 Q 898.6 492.4, 898.6 495.7 Q 898.6 499.2, 896.9 501.1 Q 895.2 503.0, 892.2 503.0 Q 889.1 503.0, 887.4 501.1 Q 885.7 499.2, 885.7 495.7 M 892.2 501.4 Q 894.3 501.4, 895.4 500.0 Q 896.6 498.6, 896.6 495.7 Q 896.6 493.0, 895.4 491.6 Q 894.3 490.2, 892.2 490.2 Q 890.0 490.2, 888.8 491.6 Q 887.7 493.0, 887.7 495.7 Q 887.7 498.6, 888.8 500.0 Q 890.0 501.4, 892.2 501.4 " fill="#FF0000"/>
<path class="atom-22" d="M 835.7 586.5 Q 835.7 583.1, 837.4 581.2 Q 839.0 579.4, 842.2 579.4 Q 845.3 579.4, 846.9 581.2 Q 848.6 583.1, 848.6 586.5 Q 848.6 589.9, 846.9 591.9 Q 845.2 593.8, 842.2 593.8 Q 839.1 593.8, 837.4 591.9 Q 835.7 589.9, 835.7 586.5 M 842.2 592.2 Q 844.3 592.2, 845.5 590.8 Q 846.6 589.3, 846.6 586.5 Q 846.6 583.7, 845.5 582.4 Q 844.3 580.9, 842.2 580.9 Q 840.0 580.9, 838.8 582.3 Q 837.7 583.7, 837.7 586.5 Q 837.7 589.3, 838.8 590.8 Q 840.0 592.2, 842.2 592.2 " fill="#FF0000"/>
</svg>