<svg xmlns="http://www.w3.org/2000/svg" xmlns:rdkit="http://www.rdkit.org/xml" xmlns:xlink="http://www.w3.org/1999/xlink" version="1.1" baseProfile="full" xml:space="preserve" width="1200px" height="800px" viewBox="0 0 1200 800">
<!-- END OF HEADER -->
<rect style="opacity:1.0;fill:#FFFFFF;stroke:none" width="1200.0" height="800.0" x="0.0" y="0.0"> </rect>
<path class="bond-0 atom-0 atom-1" d="M 776.5,283.5 L 775.6,267.2" style="fill:none;fill-rule:evenodd;stroke:#191919;stroke-width:2.0px;stroke-linecap:butt;stroke-linejoin:miter;stroke-opacity:1"/>
<path class="bond-0 atom-0 atom-1" d="M 775.6,267.2 L 774.8,250.9" style="fill:none;fill-rule:evenodd;stroke:#FF0000;stroke-width:2.0px;stroke-linecap:butt;stroke-linejoin:miter;stroke-opacity:1"/>
<path class="bond-1 atom-2 atom-1" d="M 732.0,220.5 L 732.4,219.9" style="fill:none;fill-rule:evenodd;stroke:#000000;stroke-width:1.0px;stroke-linecap:butt;stroke-linejoin:miter;stroke-opacity:1"/>
<path class="bond-1 atom-2 atom-1" d="M 735.1,222.5 L 735.8,221.2" style="fill:none;fill-rule:evenodd;stroke:#000000;stroke-width:1.0px;stroke-linecap:butt;stroke-linejoin:miter;stroke-opacity:1"/>
<path class="bond-1 atom-2 atom-1" d="M 738.1,224.5 L 739.2,222.5" style="fill:none;fill-rule:evenodd;stroke:#000000;stroke-width:1.0px;stroke-linecap:butt;stroke-linejoin:miter;stroke-opacity:1"/>
<path class="bond-1 atom-2 atom-1" d="M 741.2,226.5 L 742.5,223.8" style="fill:none;fill-rule:evenodd;stroke:#000000;stroke-width:1.0px;stroke-linecap:butt;stroke-linejoin:miter;stroke-opacity:1"/>
<path class="bond-1 atom-2 atom-1" d="M 744.2,228.5 L 745.9,225.1" style="fill:none;fill-rule:evenodd;stroke:#000000;stroke-width:1.0px;stroke-linecap:butt;stroke-linejoin:miter;stroke-opacity:1"/>
<path class="bond-1 atom-2 atom-1" d="M 747.2,230.4 L 749.3,226.4" style="fill:none;fill-rule:evenodd;stroke:#FF0000;stroke-width:1.0px;stroke-linecap:butt;stroke-linejoin:miter;stroke-opacity:1"/>
<path class="bond-1 atom-2 atom-1" d="M 750.3,232.4 L 752.7,227.7" style="fill:none;fill-rule:evenodd;stroke:#FF0000;stroke-width:1.0px;stroke-linecap:butt;stroke-linejoin:miter;stroke-opacity:1"/>
<path class="bond-1 atom-2 atom-1" d="M 753.3,234.4 L 756.1,229.0" style="fill:none;fill-rule:evenodd;stroke:#FF0000;stroke-width:1.0px;stroke-linecap:butt;stroke-linejoin:miter;stroke-opacity:1"/>
<path class="bond-1 atom-2 atom-1" d="M 756.3,236.4 L 759.4,230.3" style="fill:none;fill-rule:evenodd;stroke:#FF0000;stroke-width:1.0px;stroke-linecap:butt;stroke-linejoin:miter;stroke-opacity:1"/>
<path class="bond-1 atom-2 atom-1" d="M 759.4,238.3 L 762.8,231.6" style="fill:none;fill-rule:evenodd;stroke:#FF0000;stroke-width:1.0px;stroke-linecap:butt;stroke-linejoin:miter;stroke-opacity:1"/>
<path class="bond-2 atom-2 atom-3" d="M 729.0,218.6 L 686.4,246.2" style="fill:none;fill-rule:evenodd;stroke:#000000;stroke-width:2.0px;stroke-linecap:butt;stroke-linejoin:miter;stroke-opacity:1"/>
<path class="bond-3 atom-3 atom-4" d="M 686.4,246.2 L 689.0,297.0" style="fill:none;fill-rule:evenodd;stroke:#000000;stroke-width:2.0px;stroke-linecap:butt;stroke-linejoin:miter;stroke-opacity:1"/>
<path class="bond-4 atom-4 atom-5" d="M 689.0,297.0 L 671.8,308.2" style="fill:none;fill-rule:evenodd;stroke:#000000;stroke-width:2.0px;stroke-linecap:butt;stroke-linejoin:miter;stroke-opacity:1"/>
<path class="bond-4 atom-4 atom-5" d="M 671.8,308.2 L 654.6,319.3" style="fill:none;fill-rule:evenodd;stroke:#FF0000;stroke-width:2.0px;stroke-linecap:butt;stroke-linejoin:miter;stroke-opacity:1"/>
<path class="bond-5 atom-3 atom-6" d="M 686.4,246.2 L 667.9,236.8" style="fill:none;fill-rule:evenodd;stroke:#000000;stroke-width:2.0px;stroke-linecap:butt;stroke-linejoin:miter;stroke-opacity:1"/>
<path class="bond-5 atom-3 atom-6" d="M 667.9,236.8 L 649.4,227.3" style="fill:none;fill-rule:evenodd;stroke:#FF0000;stroke-width:2.0px;stroke-linecap:butt;stroke-linejoin:miter;stroke-opacity:1"/>
<path class="bond-6 atom-6 atom-7" d="M 640.6,214.2 L 639.5,193.2" style="fill:none;fill-rule:evenodd;stroke:#FF0000;stroke-width:2.0px;stroke-linecap:butt;stroke-linejoin:miter;stroke-opacity:1"/>
<path class="bond-6 atom-6 atom-7" d="M 639.5,193.2 L 638.4,172.3" style="fill:none;fill-rule:evenodd;stroke:#000000;stroke-width:2.0px;stroke-linecap:butt;stroke-linejoin:miter;stroke-opacity:1"/>
<path class="bond-7 atom-7 atom-8" d="M 638.4,172.3 L 593.2,149.2" style="fill:none;fill-rule:evenodd;stroke:#000000;stroke-width:2.0px;stroke-linecap:butt;stroke-linejoin:miter;stroke-opacity:1"/>
<path class="bond-8 atom-9 atom-8" d="M 553.5,175.3 L 553.2,174.8" style="fill:none;fill-rule:evenodd;stroke:#000000;stroke-width:1.0px;stroke-linecap:butt;stroke-linejoin:miter;stroke-opacity:1"/>
<path class="bond-8 atom-9 atom-8" d="M 556.5,173.7 L 555.9,172.7" style="fill:none;fill-rule:evenodd;stroke:#000000;stroke-width:1.0px;stroke-linecap:butt;stroke-linejoin:miter;stroke-opacity:1"/>
<path class="bond-8 atom-9 atom-8" d="M 559.5,172.0 L 558.6,170.7" style="fill:none;fill-rule:evenodd;stroke:#000000;stroke-width:1.0px;stroke-linecap:butt;stroke-linejoin:miter;stroke-opacity:1"/>
<path class="bond-8 atom-9 atom-8" d="M 562.5,170.4 L 561.3,168.6" style="fill:none;fill-rule:evenodd;stroke:#000000;stroke-width:1.0px;stroke-linecap:butt;stroke-linejoin:miter;stroke-opacity:1"/>
<path class="bond-8 atom-9 atom-8" d="M 565.4,168.8 L 564.0,166.5" style="fill:none;fill-rule:evenodd;stroke:#000000;stroke-width:1.0px;stroke-linecap:butt;stroke-linejoin:miter;stroke-opacity:1"/>
<path class="bond-8 atom-9 atom-8" d="M 568.4,167.2 L 566.7,164.5" style="fill:none;fill-rule:evenodd;stroke:#000000;stroke-width:1.0px;stroke-linecap:butt;stroke-linejoin:miter;stroke-opacity:1"/>
<path class="bond-8 atom-9 atom-8" d="M 571.4,165.6 L 569.4,162.4" style="fill:none;fill-rule:evenodd;stroke:#000000;stroke-width:1.0px;stroke-linecap:butt;stroke-linejoin:miter;stroke-opacity:1"/>
<path class="bond-8 atom-9 atom-8" d="M 574.4,164.0 L 572.0,160.3" style="fill:none;fill-rule:evenodd;stroke:#000000;stroke-width:1.0px;stroke-linecap:butt;stroke-linejoin:miter;stroke-opacity:1"/>
<path class="bond-8 atom-9 atom-8" d="M 577.4,162.3 L 574.7,158.2" style="fill:none;fill-rule:evenodd;stroke:#000000;stroke-width:1.0px;stroke-linecap:butt;stroke-linejoin:miter;stroke-opacity:1"/>
<path class="bond-8 atom-9 atom-8" d="M 580.4,160.7 L 577.4,156.2" style="fill:none;fill-rule:evenodd;stroke:#000000;stroke-width:1.0px;stroke-linecap:butt;stroke-linejoin:miter;stroke-opacity:1"/>
<path class="bond-8 atom-9 atom-8" d="M 583.4,159.1 L 580.1,154.1" style="fill:none;fill-rule:evenodd;stroke:#000000;stroke-width:1.0px;stroke-linecap:butt;stroke-linejoin:miter;stroke-opacity:1"/>
<path class="bond-8 atom-9 atom-8" d="M 586.4,157.5 L 582.8,152.0" style="fill:none;fill-rule:evenodd;stroke:#000000;stroke-width:1.0px;stroke-linecap:butt;stroke-linejoin:miter;stroke-opacity:1"/>
<path class="bond-8 atom-9 atom-8" d="M 589.4,155.9 L 585.5,149.9" style="fill:none;fill-rule:evenodd;stroke:#000000;stroke-width:1.0px;stroke-linecap:butt;stroke-linejoin:miter;stroke-opacity:1"/>
<path class="bond-8 atom-9 atom-8" d="M 592.4,154.3 L 588.2,147.9" style="fill:none;fill-rule:evenodd;stroke:#000000;stroke-width:1.0px;stroke-linecap:butt;stroke-linejoin:miter;stroke-opacity:1"/>
<path class="bond-9 atom-9 atom-10" d="M 550.5,176.9 L 505.2,153.8" style="fill:none;fill-rule:evenodd;stroke:#000000;stroke-width:2.0px;stroke-linecap:butt;stroke-linejoin:miter;stroke-opacity:1"/>
<path class="bond-10 atom-10 atom-11" d="M 505.2,153.8 L 502.6,103.0" style="fill:none;fill-rule:evenodd;stroke:#000000;stroke-width:2.0px;stroke-linecap:butt;stroke-linejoin:miter;stroke-opacity:1"/>
<path class="bond-11 atom-11 atom-12" d="M 502.6,103.0 L 484.1,93.5" style="fill:none;fill-rule:evenodd;stroke:#000000;stroke-width:2.0px;stroke-linecap:butt;stroke-linejoin:miter;stroke-opacity:1"/>
<path class="bond-11 atom-11 atom-12" d="M 484.1,93.5 L 465.6,84.1" style="fill:none;fill-rule:evenodd;stroke:#FF0000;stroke-width:2.0px;stroke-linecap:butt;stroke-linejoin:miter;stroke-opacity:1"/>
<path class="bond-12 atom-10 atom-13" d="M 505.2,153.8 L 488.0,164.9" style="fill:none;fill-rule:evenodd;stroke:#000000;stroke-width:2.0px;stroke-linecap:butt;stroke-linejoin:miter;stroke-opacity:1"/>
<path class="bond-12 atom-10 atom-13" d="M 488.0,164.9 L 470.8,176.1" style="fill:none;fill-rule:evenodd;stroke:#FF0000;stroke-width:2.0px;stroke-linecap:butt;stroke-linejoin:miter;stroke-opacity:1"/>
<path class="bond-13 atom-13 atom-14" d="M 463.0,190.6 L 464.1,211.4" style="fill:none;fill-rule:evenodd;stroke:#FF0000;stroke-width:2.0px;stroke-linecap:butt;stroke-linejoin:miter;stroke-opacity:1"/>
<path class="bond-13 atom-13 atom-14" d="M 464.1,211.4 L 465.2,232.2" style="fill:none;fill-rule:evenodd;stroke:#000000;stroke-width:2.0px;stroke-linecap:butt;stroke-linejoin:miter;stroke-opacity:1"/>
<path class="bond-14 atom-14 atom-15" d="M 462.3,234.4 L 462.0,233.9" style="fill:none;fill-rule:evenodd;stroke:#000000;stroke-width:1.0px;stroke-linecap:butt;stroke-linejoin:miter;stroke-opacity:1"/>
<path class="bond-14 atom-14 atom-15" d="M 459.5,236.6 L 458.8,235.6" style="fill:none;fill-rule:evenodd;stroke:#000000;stroke-width:1.0px;stroke-linecap:butt;stroke-linejoin:miter;stroke-opacity:1"/>
<path class="bond-14 atom-14 atom-15" d="M 456.7,238.8 L 455.7,237.2" style="fill:none;fill-rule:evenodd;stroke:#000000;stroke-width:1.0px;stroke-linecap:butt;stroke-linejoin:miter;stroke-opacity:1"/>
<path class="bond-14 atom-14 atom-15" d="M 453.9,241.0 L 452.5,238.9" style="fill:none;fill-rule:evenodd;stroke:#000000;stroke-width:1.0px;stroke-linecap:butt;stroke-linejoin:miter;stroke-opacity:1"/>
<path class="bond-14 atom-14 atom-15" d="M 451.1,243.2 L 449.3,240.6" style="fill:none;fill-rule:evenodd;stroke:#000000;stroke-width:1.0px;stroke-linecap:butt;stroke-linejoin:miter;stroke-opacity:1"/>
<path class="bond-14 atom-14 atom-15" d="M 448.2,245.4 L 446.2,242.2" style="fill:none;fill-rule:evenodd;stroke:#000000;stroke-width:1.0px;stroke-linecap:butt;stroke-linejoin:miter;stroke-opacity:1"/>
<path class="bond-14 atom-14 atom-15" d="M 445.4,247.7 L 443.0,243.9" style="fill:none;fill-rule:evenodd;stroke:#191919;stroke-width:1.0px;stroke-linecap:butt;stroke-linejoin:miter;stroke-opacity:1"/>
<path class="bond-14 atom-14 atom-15" d="M 442.6,249.9 L 439.8,245.6" style="fill:none;fill-rule:evenodd;stroke:#191919;stroke-width:1.0px;stroke-linecap:butt;stroke-linejoin:miter;stroke-opacity:1"/>
<path class="bond-14 atom-14 atom-15" d="M 439.8,252.1 L 436.7,247.3" style="fill:none;fill-rule:evenodd;stroke:#191919;stroke-width:1.0px;stroke-linecap:butt;stroke-linejoin:miter;stroke-opacity:1"/>
<path class="bond-14 atom-14 atom-15" d="M 437.0,254.3 L 433.5,248.9" style="fill:none;fill-rule:evenodd;stroke:#191919;stroke-width:1.0px;stroke-linecap:butt;stroke-linejoin:miter;stroke-opacity:1"/>
<path class="bond-14 atom-14 atom-15" d="M 434.1,256.5 L 430.3,250.6" style="fill:none;fill-rule:evenodd;stroke:#191919;stroke-width:1.0px;stroke-linecap:butt;stroke-linejoin:miter;stroke-opacity:1"/>
<path class="bond-14 atom-14 atom-15" d="M 431.3,258.7 L 427.2,252.3" style="fill:none;fill-rule:evenodd;stroke:#191919;stroke-width:1.0px;stroke-linecap:butt;stroke-linejoin:miter;stroke-opacity:1"/>
<path class="bond-15 atom-14 atom-16" d="M 465.2,232.2 L 510.4,255.3" style="fill:none;fill-rule:evenodd;stroke:#000000;stroke-width:2.0px;stroke-linecap:butt;stroke-linejoin:miter;stroke-opacity:1"/>
<path class="bond-16 atom-16 atom-17" d="M 510.4,255.3 L 513.1,306.1" style="fill:none;fill-rule:evenodd;stroke:#000000;stroke-width:2.0px;stroke-linecap:butt;stroke-linejoin:miter;stroke-opacity:1"/>
<path class="bond-17 atom-17 atom-18" d="M 513.1,306.1 L 558.4,329.2" style="fill:none;fill-rule:evenodd;stroke:#000000;stroke-width:2.0px;stroke-linecap:butt;stroke-linejoin:miter;stroke-opacity:1"/>
<path class="bond-18 atom-18 atom-19" d="M 558.4,329.2 L 561.0,380.0" style="fill:none;fill-rule:evenodd;stroke:#000000;stroke-width:2.0px;stroke-linecap:butt;stroke-linejoin:miter;stroke-opacity:1"/>
<path class="bond-19 atom-18 atom-20" d="M 558.6,333.6 L 576.7,321.9" style="fill:none;fill-rule:evenodd;stroke:#000000;stroke-width:2.0px;stroke-linecap:butt;stroke-linejoin:miter;stroke-opacity:1"/>
<path class="bond-19 atom-18 atom-20" d="M 576.7,321.9 L 594.8,310.1" style="fill:none;fill-rule:evenodd;stroke:#FF0000;stroke-width:2.0px;stroke-linecap:butt;stroke-linejoin:miter;stroke-opacity:1"/>
<path class="bond-19 atom-18 atom-20" d="M 554.4,327.2 L 572.5,315.5" style="fill:none;fill-rule:evenodd;stroke:#000000;stroke-width:2.0px;stroke-linecap:butt;stroke-linejoin:miter;stroke-opacity:1"/>
<path class="bond-19 atom-18 atom-20" d="M 572.5,315.5 L 590.7,303.7" style="fill:none;fill-rule:evenodd;stroke:#FF0000;stroke-width:2.0px;stroke-linecap:butt;stroke-linejoin:miter;stroke-opacity:1"/>
<path class="bond-20 atom-16 atom-21" d="M 510.4,255.3 L 553.1,227.7" style="fill:none;fill-rule:evenodd;stroke:#000000;stroke-width:2.0px;stroke-linecap:butt;stroke-linejoin:miter;stroke-opacity:1"/>
<path class="bond-21 atom-21 atom-22" d="M 556.5,229.0 L 556.2,229.6" style="fill:none;fill-rule:evenodd;stroke:#000000;stroke-width:1.0px;stroke-linecap:butt;stroke-linejoin:miter;stroke-opacity:1"/>
<path class="bond-21 atom-21 atom-22" d="M 559.8,230.3 L 559.2,231.6" style="fill:none;fill-rule:evenodd;stroke:#000000;stroke-width:1.0px;stroke-linecap:butt;stroke-linejoin:miter;stroke-opacity:1"/>
<path class="bond-21 atom-21 atom-22" d="M 563.2,231.7 L 562.3,233.5" style="fill:none;fill-rule:evenodd;stroke:#000000;stroke-width:1.0px;stroke-linecap:butt;stroke-linejoin:miter;stroke-opacity:1"/>
<path class="bond-21 atom-21 atom-22" d="M 566.6,233.0 L 565.3,235.5" style="fill:none;fill-rule:evenodd;stroke:#000000;stroke-width:1.0px;stroke-linecap:butt;stroke-linejoin:miter;stroke-opacity:1"/>
<path class="bond-21 atom-21 atom-22" d="M 570.0,234.3 L 568.4,237.4" style="fill:none;fill-rule:evenodd;stroke:#000000;stroke-width:1.0px;stroke-linecap:butt;stroke-linejoin:miter;stroke-opacity:1"/>
<path class="bond-21 atom-21 atom-22" d="M 573.3,235.6 L 571.4,239.3" style="fill:none;fill-rule:evenodd;stroke:#FF0000;stroke-width:1.0px;stroke-linecap:butt;stroke-linejoin:miter;stroke-opacity:1"/>
<path class="bond-21 atom-21 atom-22" d="M 576.7,237.0 L 574.5,241.3" style="fill:none;fill-rule:evenodd;stroke:#FF0000;stroke-width:1.0px;stroke-linecap:butt;stroke-linejoin:miter;stroke-opacity:1"/>
<path class="bond-21 atom-21 atom-22" d="M 580.1,238.3 L 577.5,243.2" style="fill:none;fill-rule:evenodd;stroke:#FF0000;stroke-width:1.0px;stroke-linecap:butt;stroke-linejoin:miter;stroke-opacity:1"/>
<path class="bond-21 atom-21 atom-22" d="M 583.4,239.6 L 580.6,245.2" style="fill:none;fill-rule:evenodd;stroke:#FF0000;stroke-width:1.0px;stroke-linecap:butt;stroke-linejoin:miter;stroke-opacity:1"/>
<path class="bond-21 atom-21 atom-22" d="M 586.8,241.0 L 583.6,247.1" style="fill:none;fill-rule:evenodd;stroke:#FF0000;stroke-width:1.0px;stroke-linecap:butt;stroke-linejoin:miter;stroke-opacity:1"/>
<path class="bond-21 atom-21 atom-22" d="M 590.2,242.3 L 586.7,249.1" style="fill:none;fill-rule:evenodd;stroke:#FF0000;stroke-width:1.0px;stroke-linecap:butt;stroke-linejoin:miter;stroke-opacity:1"/>
<path class="bond-22 atom-7 atom-23" d="M 638.4,172.3 L 681.1,144.7" style="fill:none;fill-rule:evenodd;stroke:#000000;stroke-width:2.0px;stroke-linecap:butt;stroke-linejoin:miter;stroke-opacity:1"/>
<path class="bond-23 atom-23 atom-24" d="M 681.2,141.3 L 680.7,141.3" style="fill:none;fill-rule:evenodd;stroke:#000000;stroke-width:1.0px;stroke-linecap:butt;stroke-linejoin:miter;stroke-opacity:1"/>
<path class="bond-23 atom-23 atom-24" d="M 681.3,137.9 L 680.2,137.9" style="fill:none;fill-rule:evenodd;stroke:#000000;stroke-width:1.0px;stroke-linecap:butt;stroke-linejoin:miter;stroke-opacity:1"/>
<path class="bond-23 atom-23 atom-24" d="M 681.4,134.5 L 679.8,134.6" style="fill:none;fill-rule:evenodd;stroke:#000000;stroke-width:1.0px;stroke-linecap:butt;stroke-linejoin:miter;stroke-opacity:1"/>
<path class="bond-23 atom-23 atom-24" d="M 681.5,131.1 L 679.3,131.2" style="fill:none;fill-rule:evenodd;stroke:#000000;stroke-width:1.0px;stroke-linecap:butt;stroke-linejoin:miter;stroke-opacity:1"/>
<path class="bond-23 atom-23 atom-24" d="M 681.6,127.7 L 678.9,127.8" style="fill:none;fill-rule:evenodd;stroke:#000000;stroke-width:1.0px;stroke-linecap:butt;stroke-linejoin:miter;stroke-opacity:1"/>
<path class="bond-23 atom-23 atom-24" d="M 681.7,124.3 L 678.4,124.5" style="fill:none;fill-rule:evenodd;stroke:#000000;stroke-width:1.0px;stroke-linecap:butt;stroke-linejoin:miter;stroke-opacity:1"/>
<path class="bond-23 atom-23 atom-24" d="M 681.8,120.9 L 678.0,121.1" style="fill:none;fill-rule:evenodd;stroke:#000000;stroke-width:1.0px;stroke-linecap:butt;stroke-linejoin:miter;stroke-opacity:1"/>
<path class="bond-23 atom-23 atom-24" d="M 681.9,117.5 L 677.5,117.7" style="fill:none;fill-rule:evenodd;stroke:#000000;stroke-width:1.0px;stroke-linecap:butt;stroke-linejoin:miter;stroke-opacity:1"/>
<path class="bond-23 atom-23 atom-24" d="M 682.0,114.1 L 677.1,114.3" style="fill:none;fill-rule:evenodd;stroke:#000000;stroke-width:1.0px;stroke-linecap:butt;stroke-linejoin:miter;stroke-opacity:1"/>
<path class="bond-23 atom-23 atom-24" d="M 682.1,110.7 L 676.6,111.0" style="fill:none;fill-rule:evenodd;stroke:#000000;stroke-width:1.0px;stroke-linecap:butt;stroke-linejoin:miter;stroke-opacity:1"/>
<path class="bond-23 atom-23 atom-24" d="M 682.2,107.3 L 676.2,107.6" style="fill:none;fill-rule:evenodd;stroke:#000000;stroke-width:1.0px;stroke-linecap:butt;stroke-linejoin:miter;stroke-opacity:1"/>
<path class="bond-23 atom-23 atom-24" d="M 682.3,103.9 L 675.7,104.2" style="fill:none;fill-rule:evenodd;stroke:#000000;stroke-width:1.0px;stroke-linecap:butt;stroke-linejoin:miter;stroke-opacity:1"/>
<path class="bond-23 atom-23 atom-24" d="M 682.4,100.5 L 675.3,100.9" style="fill:none;fill-rule:evenodd;stroke:#000000;stroke-width:1.0px;stroke-linecap:butt;stroke-linejoin:miter;stroke-opacity:1"/>
<path class="bond-23 atom-23 atom-24" d="M 682.5,97.1 L 674.8,97.5" style="fill:none;fill-rule:evenodd;stroke:#000000;stroke-width:1.0px;stroke-linecap:butt;stroke-linejoin:miter;stroke-opacity:1"/>
<path class="bond-24 atom-24 atom-25" d="M 678.5,93.9 L 633.2,70.8" style="fill:none;fill-rule:evenodd;stroke:#000000;stroke-width:2.0px;stroke-linecap:butt;stroke-linejoin:miter;stroke-opacity:1"/>
<path class="bond-25 atom-25 atom-26" d="M 633.2,70.8 L 630.6,20.0" style="fill:none;fill-rule:evenodd;stroke:#000000;stroke-width:2.0px;stroke-linecap:butt;stroke-linejoin:miter;stroke-opacity:1"/>
<path class="bond-26 atom-25 atom-27" d="M 633.0,66.4 L 614.9,78.1" style="fill:none;fill-rule:evenodd;stroke:#000000;stroke-width:2.0px;stroke-linecap:butt;stroke-linejoin:miter;stroke-opacity:1"/>
<path class="bond-26 atom-25 atom-27" d="M 614.9,78.1 L 596.7,89.9" style="fill:none;fill-rule:evenodd;stroke:#FF0000;stroke-width:2.0px;stroke-linecap:butt;stroke-linejoin:miter;stroke-opacity:1"/>
<path class="bond-26 atom-25 atom-27" d="M 637.1,72.8 L 619.0,84.5" style="fill:none;fill-rule:evenodd;stroke:#000000;stroke-width:2.0px;stroke-linecap:butt;stroke-linejoin:miter;stroke-opacity:1"/>
<path class="bond-26 atom-25 atom-27" d="M 619.0,84.5 L 600.9,96.3" style="fill:none;fill-rule:evenodd;stroke:#FF0000;stroke-width:2.0px;stroke-linecap:butt;stroke-linejoin:miter;stroke-opacity:1"/>
<path class="bond-27 atom-23 atom-28" d="M 681.1,144.7 L 726.4,167.8" style="fill:none;fill-rule:evenodd;stroke:#000000;stroke-width:2.0px;stroke-linecap:butt;stroke-linejoin:miter;stroke-opacity:1"/>
<path class="bond-28 atom-28 atom-29" d="M 729.1,165.7 L 729.4,166.2" style="fill:none;fill-rule:evenodd;stroke:#000000;stroke-width:1.0px;stroke-linecap:butt;stroke-linejoin:miter;stroke-opacity:1"/>
<path class="bond-28 atom-28 atom-29" d="M 731.8,163.7 L 732.4,164.5" style="fill:none;fill-rule:evenodd;stroke:#000000;stroke-width:1.0px;stroke-linecap:butt;stroke-linejoin:miter;stroke-opacity:1"/>
<path class="bond-28 atom-28 atom-29" d="M 734.5,161.6 L 735.3,162.9" style="fill:none;fill-rule:evenodd;stroke:#000000;stroke-width:1.0px;stroke-linecap:butt;stroke-linejoin:miter;stroke-opacity:1"/>
<path class="bond-28 atom-28 atom-29" d="M 737.2,159.6 L 738.3,161.3" style="fill:none;fill-rule:evenodd;stroke:#000000;stroke-width:1.0px;stroke-linecap:butt;stroke-linejoin:miter;stroke-opacity:1"/>
<path class="bond-28 atom-28 atom-29" d="M 739.9,157.5 L 741.3,159.6" style="fill:none;fill-rule:evenodd;stroke:#000000;stroke-width:1.0px;stroke-linecap:butt;stroke-linejoin:miter;stroke-opacity:1"/>
<path class="bond-28 atom-28 atom-29" d="M 742.6,155.4 L 744.3,158.0" style="fill:none;fill-rule:evenodd;stroke:#000000;stroke-width:1.0px;stroke-linecap:butt;stroke-linejoin:miter;stroke-opacity:1"/>
<path class="bond-28 atom-28 atom-29" d="M 745.3,153.4 L 747.3,156.4" style="fill:none;fill-rule:evenodd;stroke:#000000;stroke-width:1.0px;stroke-linecap:butt;stroke-linejoin:miter;stroke-opacity:1"/>
<path class="bond-28 atom-28 atom-29" d="M 748.0,151.3 L 750.3,154.7" style="fill:none;fill-rule:evenodd;stroke:#000000;stroke-width:1.0px;stroke-linecap:butt;stroke-linejoin:miter;stroke-opacity:1"/>
<path class="bond-28 atom-28 atom-29" d="M 750.7,149.3 L 753.2,153.1" style="fill:none;fill-rule:evenodd;stroke:#000000;stroke-width:1.0px;stroke-linecap:butt;stroke-linejoin:miter;stroke-opacity:1"/>
<path class="bond-28 atom-28 atom-29" d="M 753.5,147.2 L 756.2,151.5" style="fill:none;fill-rule:evenodd;stroke:#000000;stroke-width:1.0px;stroke-linecap:butt;stroke-linejoin:miter;stroke-opacity:1"/>
<path class="bond-28 atom-28 atom-29" d="M 756.2,145.2 L 759.2,149.9" style="fill:none;fill-rule:evenodd;stroke:#000000;stroke-width:1.0px;stroke-linecap:butt;stroke-linejoin:miter;stroke-opacity:1"/>
<path class="bond-28 atom-28 atom-29" d="M 758.9,143.1 L 762.2,148.2" style="fill:none;fill-rule:evenodd;stroke:#000000;stroke-width:1.0px;stroke-linecap:butt;stroke-linejoin:miter;stroke-opacity:1"/>
<path class="bond-28 atom-28 atom-29" d="M 761.6,141.0 L 765.2,146.6" style="fill:none;fill-rule:evenodd;stroke:#000000;stroke-width:1.0px;stroke-linecap:butt;stroke-linejoin:miter;stroke-opacity:1"/>
<path class="bond-28 atom-28 atom-29" d="M 764.3,139.0 L 768.1,145.0" style="fill:none;fill-rule:evenodd;stroke:#000000;stroke-width:1.0px;stroke-linecap:butt;stroke-linejoin:miter;stroke-opacity:1"/>
<path class="bond-28 atom-28 atom-29" d="M 767.0,136.9 L 771.1,143.3" style="fill:none;fill-rule:evenodd;stroke:#000000;stroke-width:1.0px;stroke-linecap:butt;stroke-linejoin:miter;stroke-opacity:1"/>
<path class="bond-29 atom-28 atom-2" d="M 726.4,167.8 L 729.0,218.6" style="fill:none;fill-rule:evenodd;stroke:#000000;stroke-width:2.0px;stroke-linecap:butt;stroke-linejoin:miter;stroke-opacity:1"/>
<path class="bond-30 atom-21 atom-9" d="M 553.1,227.7 L 550.5,176.9" style="fill:none;fill-rule:evenodd;stroke:#000000;stroke-width:2.0px;stroke-linecap:butt;stroke-linejoin:miter;stroke-opacity:1"/>
<path d="M 726.9,220.0 L 729.0,218.6 L 728.9,216.0" style="fill:none;stroke:#000000;stroke-width:2.0px;stroke-linecap:butt;stroke-linejoin:miter;stroke-opacity:1;"/>
<path d="M 688.8,294.5 L 689.0,297.0 L 688.1,297.6" style="fill:none;stroke:#000000;stroke-width:2.0px;stroke-linecap:butt;stroke-linejoin:miter;stroke-opacity:1;"/>
<path d="M 548.2,175.7 L 550.5,176.9 L 550.6,179.4" style="fill:none;stroke:#000000;stroke-width:2.0px;stroke-linecap:butt;stroke-linejoin:miter;stroke-opacity:1;"/>
<path d="M 502.7,105.5 L 502.6,103.0 L 501.6,102.5" style="fill:none;stroke:#000000;stroke-width:2.0px;stroke-linecap:butt;stroke-linejoin:miter;stroke-opacity:1;"/>
<path d="M 465.1,231.2 L 465.2,232.2 L 467.4,233.4" style="fill:none;stroke:#000000;stroke-width:2.0px;stroke-linecap:butt;stroke-linejoin:miter;stroke-opacity:1;"/>
<path d="M 512.9,303.6 L 513.1,306.1 L 515.3,307.3" style="fill:none;stroke:#000000;stroke-width:2.0px;stroke-linecap:butt;stroke-linejoin:miter;stroke-opacity:1;"/>
<path d="M 556.1,328.1 L 558.4,329.2 L 558.5,331.8" style="fill:none;stroke:#000000;stroke-width:2.0px;stroke-linecap:butt;stroke-linejoin:miter;stroke-opacity:1;"/>
<path d="M 551.0,229.0 L 553.1,227.7 L 553.0,225.1" style="fill:none;stroke:#000000;stroke-width:2.0px;stroke-linecap:butt;stroke-linejoin:miter;stroke-opacity:1;"/>
<path d="M 679.0,146.1 L 681.1,144.7 L 683.4,145.8" style="fill:none;stroke:#000000;stroke-width:2.0px;stroke-linecap:butt;stroke-linejoin:miter;stroke-opacity:1;"/>
<path d="M 635.5,71.9 L 633.2,70.8 L 633.1,68.2" style="fill:none;stroke:#000000;stroke-width:2.0px;stroke-linecap:butt;stroke-linejoin:miter;stroke-opacity:1;"/>
<path d="M 724.1,166.6 L 726.4,167.8 L 726.5,170.3" style="fill:none;stroke:#000000;stroke-width:2.0px;stroke-linecap:butt;stroke-linejoin:miter;stroke-opacity:1;"/>
<path class="atom-0" d="M 774.2 290.9 L 776.3 288.7 L 773.5 288.1 L 773.9 286.7 L 776.5 288.0 L 776.2 285.2 L 777.7 285.1 L 777.3 288.0 L 779.9 286.8 L 780.3 288.1 L 777.5 288.7 L 779.5 290.8 L 778.3 291.7 L 776.9 289.1 L 775.5 291.7 L 774.2 290.9 " fill="#191919"/>
<path class="atom-1" d="M 767.7 241.7 Q 767.7 238.3, 769.4 236.3 Q 771.1 234.4, 774.3 234.4 Q 777.5 234.4, 779.2 236.3 Q 780.9 238.3, 780.9 241.7 Q 780.9 245.2, 779.2 247.2 Q 777.5 249.2, 774.3 249.2 Q 771.1 249.2, 769.4 247.2 Q 767.7 245.2, 767.7 241.7 M 774.3 247.6 Q 776.5 247.6, 777.7 246.1 Q 778.9 244.6, 778.9 241.7 Q 778.9 238.9, 777.7 237.5 Q 776.5 236.0, 774.3 236.0 Q 772.1 236.0, 770.9 237.5 Q 769.7 238.9, 769.7 241.7 Q 769.7 244.6, 770.9 246.1 Q 772.1 247.6, 774.3 247.6 " fill="#FF0000"/>
<path class="atom-5" d="M 625.5 317.6 L 627.4 317.6 L 627.4 323.7 L 634.8 323.7 L 634.8 317.6 L 636.7 317.6 L 636.7 332.0 L 634.8 332.0 L 634.8 325.3 L 627.4 325.3 L 627.4 332.0 L 625.5 332.0 L 625.5 317.6 " fill="#FF0000"/>
<path class="atom-5" d="M 639.7 324.7 Q 639.7 321.3, 641.4 319.3 Q 643.1 317.4, 646.3 317.4 Q 649.5 317.4, 651.2 319.3 Q 652.9 321.3, 652.9 324.7 Q 652.9 328.2, 651.2 330.2 Q 649.5 332.2, 646.3 332.2 Q 643.1 332.2, 641.4 330.2 Q 639.7 328.2, 639.7 324.7 M 646.3 330.6 Q 648.5 330.6, 649.7 329.1 Q 650.9 327.6, 650.9 324.7 Q 650.9 321.9, 649.7 320.5 Q 648.5 319.0, 646.3 319.0 Q 644.1 319.0, 642.9 320.4 Q 641.7 321.9, 641.7 324.7 Q 641.7 327.6, 642.9 329.1 Q 644.1 330.6, 646.3 330.6 " fill="#FF0000"/>
<path class="atom-6" d="M 634.5 223.2 Q 634.5 219.7, 636.2 217.8 Q 637.9 215.8, 641.1 215.8 Q 644.3 215.8, 646.0 217.8 Q 647.7 219.7, 647.7 223.2 Q 647.7 226.7, 645.9 228.6 Q 644.2 230.6, 641.1 230.6 Q 637.9 230.6, 636.2 228.6 Q 634.5 226.7, 634.5 223.2 M 641.1 229.0 Q 643.3 229.0, 644.4 227.5 Q 645.6 226.0, 645.6 223.2 Q 645.6 220.3, 644.4 218.9 Q 643.3 217.5, 641.1 217.5 Q 638.9 217.5, 637.7 218.9 Q 636.5 220.3, 636.5 223.2 Q 636.5 226.1, 637.7 227.5 Q 638.9 229.0, 641.1 229.0 " fill="#FF0000"/>
<path class="atom-12" d="M 436.5 72.8 L 438.4 72.8 L 438.4 78.9 L 445.8 78.9 L 445.8 72.8 L 447.7 72.8 L 447.7 87.2 L 445.8 87.2 L 445.8 80.5 L 438.4 80.5 L 438.4 87.2 L 436.5 87.2 L 436.5 72.8 " fill="#FF0000"/>
<path class="atom-12" d="M 450.7 79.9 Q 450.7 76.5, 452.4 74.5 Q 454.1 72.6, 457.3 72.6 Q 460.5 72.6, 462.2 74.5 Q 463.9 76.5, 463.9 79.9 Q 463.9 83.4, 462.2 85.4 Q 460.4 87.4, 457.3 87.4 Q 454.1 87.4, 452.4 85.4 Q 450.7 83.4, 450.7 79.9 M 457.3 85.7 Q 459.5 85.7, 460.7 84.3 Q 461.9 82.8, 461.9 79.9 Q 461.9 77.1, 460.7 75.7 Q 459.5 74.2, 457.3 74.2 Q 455.1 74.2, 453.9 75.6 Q 452.7 77.1, 452.7 79.9 Q 452.7 82.8, 453.9 84.3 Q 455.1 85.7, 457.3 85.7 " fill="#FF0000"/>
<path class="atom-13" d="M 455.9 181.5 Q 455.9 178.0, 457.6 176.1 Q 459.3 174.1, 462.5 174.1 Q 465.7 174.1, 467.4 176.1 Q 469.1 178.0, 469.1 181.5 Q 469.1 185.0, 467.4 187.0 Q 465.7 188.9, 462.5 188.9 Q 459.4 188.9, 457.6 187.0 Q 455.9 185.0, 455.9 181.5 M 462.5 187.3 Q 464.7 187.3, 465.9 185.8 Q 467.1 184.4, 467.1 181.5 Q 467.1 178.6, 465.9 177.2 Q 464.7 175.8, 462.5 175.8 Q 460.3 175.8, 459.1 177.2 Q 458.0 178.6, 458.0 181.5 Q 458.0 184.4, 459.1 185.8 Q 460.3 187.3, 462.5 187.3 " fill="#FF0000"/>
<path class="atom-15" d="M 419.8 258.3 L 421.9 256.1 L 419.1 255.5 L 419.5 254.1 L 422.1 255.4 L 421.7 252.6 L 423.3 252.5 L 422.8 255.4 L 425.5 254.2 L 425.9 255.5 L 423.1 256.1 L 425.1 258.2 L 423.8 259.1 L 422.4 256.5 L 421.0 259.1 L 419.8 258.3 " fill="#191919"/>
<path class="atom-20" d="M 594.4 301.6 Q 594.4 298.1, 596.1 296.2 Q 597.8 294.3, 601.0 294.3 Q 604.2 294.3, 605.9 296.2 Q 607.6 298.1, 607.6 301.6 Q 607.6 305.1, 605.9 307.1 Q 604.2 309.1, 601.0 309.1 Q 597.8 309.1, 596.1 307.1 Q 594.4 305.1, 594.4 301.6 M 601.0 307.4 Q 603.2 307.4, 604.4 306.0 Q 605.6 304.5, 605.6 301.6 Q 605.6 298.8, 604.4 297.3 Q 603.2 295.9, 601.0 295.9 Q 598.8 295.9, 597.6 297.3 Q 596.4 298.8, 596.4 301.6 Q 596.4 304.5, 597.6 306.0 Q 598.8 307.4, 601.0 307.4 " fill="#FF0000"/>
<path class="atom-22" d="M 591.8 250.8 Q 591.8 247.4, 593.5 245.4 Q 595.2 243.5, 598.4 243.5 Q 601.6 243.5, 603.3 245.4 Q 605.0 247.4, 605.0 250.8 Q 605.0 254.3, 603.3 256.3 Q 601.6 258.3, 598.4 258.3 Q 595.2 258.3, 593.5 256.3 Q 591.8 254.3, 591.8 250.8 M 598.4 256.7 Q 600.6 256.7, 601.8 255.2 Q 603.0 253.7, 603.0 250.8 Q 603.0 248.0, 601.8 246.6 Q 600.6 245.1, 598.4 245.1 Q 596.2 245.1, 595.0 246.5 Q 593.8 248.0, 593.8 250.8 Q 593.8 253.7, 595.0 255.2 Q 596.2 256.7, 598.4 256.7 " fill="#FF0000"/>
<path class="atom-22" d="M 607.2 243.7 L 609.2 243.7 L 609.2 249.8 L 616.6 249.8 L 616.6 243.7 L 618.5 243.7 L 618.5 258.1 L 616.6 258.1 L 616.6 251.4 L 609.2 251.4 L 609.2 258.1 L 607.2 258.1 L 607.2 243.7 " fill="#FF0000"/>
<path class="atom-27" d="M 583.9 98.5 Q 583.9 95.0, 585.6 93.1 Q 587.3 91.2, 590.5 91.2 Q 593.7 91.2, 595.4 93.1 Q 597.1 95.0, 597.1 98.5 Q 597.1 102.0, 595.4 104.0 Q 593.7 105.9, 590.5 105.9 Q 587.4 105.9, 585.6 104.0 Q 583.9 102.0, 583.9 98.5 M 590.5 104.3 Q 592.7 104.3, 593.9 102.9 Q 595.1 101.4, 595.1 98.5 Q 595.1 95.7, 593.9 94.2 Q 592.7 92.8, 590.5 92.8 Q 588.3 92.8, 587.1 94.2 Q 586.0 95.6, 586.0 98.5 Q 586.0 101.4, 587.1 102.9 Q 588.3 104.3, 590.5 104.3 " fill="#FF0000"/>
<path class="bond-0 atom-0 atom-1" d="M 571.3,599.9 L 590.0,599.9" style="fill:none;fill-rule:evenodd;stroke:#191919;stroke-width:2.0px;stroke-linecap:butt;stroke-linejoin:miter;stroke-opacity:1"/>
<path class="bond-0 atom-0 atom-1" d="M 590.0,599.9 L 608.8,599.9" style="fill:none;fill-rule:evenodd;stroke:#FF0000;stroke-width:2.0px;stroke-linecap:butt;stroke-linejoin:miter;stroke-opacity:1"/>
<path class="atom-0" d="M 563.5 598.3 L 565.6 596.1 L 562.8 595.6 L 563.2 594.1 L 565.8 595.4 L 565.5 592.6 L 567.0 592.6 L 566.6 595.4 L 569.2 594.2 L 569.6 595.6 L 566.8 596.1 L 568.8 598.3 L 567.6 599.2 L 566.2 596.5 L 564.7 599.2 L 563.5 598.3 " fill="#191919"/>
<path class="atom-1" d="M 610.5 599.9 Q 610.5 596.5, 612.2 594.6 Q 613.9 592.6, 617.1 592.6 Q 620.3 592.6, 622.0 594.6 Q 623.7 596.5, 623.7 599.9 Q 623.7 603.4, 621.9 605.4 Q 620.2 607.4, 617.1 607.4 Q 613.9 607.4, 612.2 605.4 Q 610.5 603.5, 610.5 599.9 M 617.1 605.8 Q 619.3 605.8, 620.4 604.3 Q 621.6 602.8, 621.6 599.9 Q 621.6 597.1, 620.4 595.7 Q 619.3 594.3, 617.1 594.3 Q 614.9 594.3, 613.7 595.7 Q 612.5 597.1, 612.5 599.9 Q 612.5 602.9, 613.7 604.3 Q 614.9 605.8, 617.1 605.8 " fill="#FF0000"/>
<path class="atom-1" d="M 625.9 592.8 L 627.9 592.8 L 627.9 598.9 L 635.2 598.9 L 635.2 592.8 L 637.2 592.8 L 637.2 607.2 L 635.2 607.2 L 635.2 600.5 L 627.9 600.5 L 627.9 607.2 L 625.9 607.2 L 625.9 592.8 " fill="#FF0000"/>
</svg>