<svg xmlns="http://www.w3.org/2000/svg" xmlns:rdkit="http://www.rdkit.org/xml" xmlns:xlink="http://www.w3.org/1999/xlink" version="1.1" baseProfile="full" xml:space="preserve" width="1200px" height="800px" viewBox="0 0 1200 800">
<!-- END OF HEADER -->
<rect style="opacity:1.0;fill:#FFFFFF;stroke:none" width="1200.0" height="800.0" x="0.0" y="0.0"> </rect>
<path class="bond-0 atom-0 atom-1" d="M 740.9,369.0 L 746.6,352.4" style="fill:none;fill-rule:evenodd;stroke:#191919;stroke-width:2.0px;stroke-linecap:butt;stroke-linejoin:miter;stroke-opacity:1"/>
<path class="bond-0 atom-0 atom-1" d="M 746.6,352.4 L 752.3,335.8" style="fill:none;fill-rule:evenodd;stroke:#FF0000;stroke-width:2.0px;stroke-linecap:butt;stroke-linejoin:miter;stroke-opacity:1"/>
<path class="bond-1 atom-2 atom-1" d="M 718.7,283.1 L 733.7,297.0 L 730.5,299.8 Z" style="fill:#000000;fill-rule:evenodd;fill-opacity:1;stroke:#000000;stroke-width:0.5px;stroke-linecap:butt;stroke-linejoin:miter;stroke-opacity:1;"/>
<path class="bond-1 atom-2 atom-1" d="M 733.7,297.0 L 742.3,316.5 L 748.7,311.0 Z" style="fill:#FF0000;fill-rule:evenodd;fill-opacity:1;stroke:#FF0000;stroke-width:0.5px;stroke-linecap:butt;stroke-linejoin:miter;stroke-opacity:1;"/>
<path class="bond-1 atom-2 atom-1" d="M 733.7,297.0 L 730.5,299.8 L 742.3,316.5 Z" style="fill:#FF0000;fill-rule:evenodd;fill-opacity:1;stroke:#FF0000;stroke-width:0.5px;stroke-linecap:butt;stroke-linejoin:miter;stroke-opacity:1;"/>
<path class="bond-2 atom-2 atom-3" d="M 718.7,283.1 L 663.3,294.0" style="fill:none;fill-rule:evenodd;stroke:#000000;stroke-width:2.0px;stroke-linecap:butt;stroke-linejoin:miter;stroke-opacity:1"/>
<path class="bond-3 atom-3 atom-4" d="M 663.3,294.0 L 645.1,347.3" style="fill:none;fill-rule:evenodd;stroke:#000000;stroke-width:2.0px;stroke-linecap:butt;stroke-linejoin:miter;stroke-opacity:1"/>
<path class="bond-4 atom-4 atom-5" d="M 645.1,347.3 L 622.0,351.9" style="fill:none;fill-rule:evenodd;stroke:#000000;stroke-width:2.0px;stroke-linecap:butt;stroke-linejoin:miter;stroke-opacity:1"/>
<path class="bond-4 atom-4 atom-5" d="M 622.0,351.9 L 598.9,356.4" style="fill:none;fill-rule:evenodd;stroke:#FF0000;stroke-width:2.0px;stroke-linecap:butt;stroke-linejoin:miter;stroke-opacity:1"/>
<path class="bond-5 atom-3 atom-6" d="M 663.3,294.0 L 649.2,277.8" style="fill:none;fill-rule:evenodd;stroke:#000000;stroke-width:2.0px;stroke-linecap:butt;stroke-linejoin:miter;stroke-opacity:1"/>
<path class="bond-5 atom-3 atom-6" d="M 649.2,277.8 L 635.1,261.6" style="fill:none;fill-rule:evenodd;stroke:#FF0000;stroke-width:2.0px;stroke-linecap:butt;stroke-linejoin:miter;stroke-opacity:1"/>
<path class="bond-6 atom-6 atom-7" d="M 629.6,241.5 L 637.0,219.8" style="fill:none;fill-rule:evenodd;stroke:#FF0000;stroke-width:2.0px;stroke-linecap:butt;stroke-linejoin:miter;stroke-opacity:1"/>
<path class="bond-6 atom-6 atom-7" d="M 637.0,219.8 L 644.5,198.1" style="fill:none;fill-rule:evenodd;stroke:#000000;stroke-width:2.0px;stroke-linecap:butt;stroke-linejoin:miter;stroke-opacity:1"/>
<path class="bond-7 atom-7 atom-8" d="M 644.5,198.1 L 630.4,181.9" style="fill:none;fill-rule:evenodd;stroke:#000000;stroke-width:2.0px;stroke-linecap:butt;stroke-linejoin:miter;stroke-opacity:1"/>
<path class="bond-7 atom-7 atom-8" d="M 630.4,181.9 L 616.2,165.8" style="fill:none;fill-rule:evenodd;stroke:#FF0000;stroke-width:2.0px;stroke-linecap:butt;stroke-linejoin:miter;stroke-opacity:1"/>
<path class="bond-8 atom-9 atom-8" d="M 555.5,166.1 L 555.3,165.4" style="fill:none;fill-rule:evenodd;stroke:#000000;stroke-width:1.0px;stroke-linecap:butt;stroke-linejoin:miter;stroke-opacity:1"/>
<path class="bond-8 atom-9 atom-8" d="M 558.9,165.8 L 558.7,164.4" style="fill:none;fill-rule:evenodd;stroke:#000000;stroke-width:1.0px;stroke-linecap:butt;stroke-linejoin:miter;stroke-opacity:1"/>
<path class="bond-8 atom-9 atom-8" d="M 562.4,165.5 L 562.0,163.4" style="fill:none;fill-rule:evenodd;stroke:#000000;stroke-width:1.0px;stroke-linecap:butt;stroke-linejoin:miter;stroke-opacity:1"/>
<path class="bond-8 atom-9 atom-8" d="M 565.9,165.2 L 565.3,162.4" style="fill:none;fill-rule:evenodd;stroke:#000000;stroke-width:1.0px;stroke-linecap:butt;stroke-linejoin:miter;stroke-opacity:1"/>
<path class="bond-8 atom-9 atom-8" d="M 569.4,164.8 L 568.7,161.4" style="fill:none;fill-rule:evenodd;stroke:#000000;stroke-width:1.0px;stroke-linecap:butt;stroke-linejoin:miter;stroke-opacity:1"/>
<path class="bond-8 atom-9 atom-8" d="M 572.8,164.5 L 572.0,160.4" style="fill:none;fill-rule:evenodd;stroke:#000000;stroke-width:1.0px;stroke-linecap:butt;stroke-linejoin:miter;stroke-opacity:1"/>
<path class="bond-8 atom-9 atom-8" d="M 576.3,164.2 L 575.4,159.4" style="fill:none;fill-rule:evenodd;stroke:#FF0000;stroke-width:1.0px;stroke-linecap:butt;stroke-linejoin:miter;stroke-opacity:1"/>
<path class="bond-8 atom-9 atom-8" d="M 579.8,163.9 L 578.7,158.3" style="fill:none;fill-rule:evenodd;stroke:#FF0000;stroke-width:1.0px;stroke-linecap:butt;stroke-linejoin:miter;stroke-opacity:1"/>
<path class="bond-8 atom-9 atom-8" d="M 583.2,163.5 L 582.0,157.3" style="fill:none;fill-rule:evenodd;stroke:#FF0000;stroke-width:1.0px;stroke-linecap:butt;stroke-linejoin:miter;stroke-opacity:1"/>
<path class="bond-8 atom-9 atom-8" d="M 586.7,163.2 L 585.4,156.3" style="fill:none;fill-rule:evenodd;stroke:#FF0000;stroke-width:1.0px;stroke-linecap:butt;stroke-linejoin:miter;stroke-opacity:1"/>
<path class="bond-8 atom-9 atom-8" d="M 590.2,162.9 L 588.7,155.3" style="fill:none;fill-rule:evenodd;stroke:#FF0000;stroke-width:1.0px;stroke-linecap:butt;stroke-linejoin:miter;stroke-opacity:1"/>
<path class="bond-8 atom-9 atom-8" d="M 593.7,162.6 L 592.0,154.3" style="fill:none;fill-rule:evenodd;stroke:#FF0000;stroke-width:1.0px;stroke-linecap:butt;stroke-linejoin:miter;stroke-opacity:1"/>
<path class="bond-9 atom-9 atom-10" d="M 552.0,166.5 L 514.9,124.0" style="fill:none;fill-rule:evenodd;stroke:#000000;stroke-width:2.0px;stroke-linecap:butt;stroke-linejoin:miter;stroke-opacity:1"/>
<path class="bond-10 atom-10 atom-11" d="M 514.9,124.0 L 533.1,70.6" style="fill:none;fill-rule:evenodd;stroke:#000000;stroke-width:2.0px;stroke-linecap:butt;stroke-linejoin:miter;stroke-opacity:1"/>
<path class="bond-11 atom-11 atom-12" d="M 533.1,70.6 L 519.0,54.4" style="fill:none;fill-rule:evenodd;stroke:#000000;stroke-width:2.0px;stroke-linecap:butt;stroke-linejoin:miter;stroke-opacity:1"/>
<path class="bond-11 atom-11 atom-12" d="M 519.0,54.4 L 504.9,38.3" style="fill:none;fill-rule:evenodd;stroke:#FF0000;stroke-width:2.0px;stroke-linecap:butt;stroke-linejoin:miter;stroke-opacity:1"/>
<path class="bond-12 atom-10 atom-13" d="M 514.9,124.0 L 491.8,128.5" style="fill:none;fill-rule:evenodd;stroke:#000000;stroke-width:2.0px;stroke-linecap:butt;stroke-linejoin:miter;stroke-opacity:1"/>
<path class="bond-12 atom-10 atom-13" d="M 491.8,128.5 L 468.7,133.0" style="fill:none;fill-rule:evenodd;stroke:#FF0000;stroke-width:2.0px;stroke-linecap:butt;stroke-linejoin:miter;stroke-opacity:1"/>
<path class="bond-13 atom-13 atom-14" d="M 456.0,145.0 L 448.7,166.6" style="fill:none;fill-rule:evenodd;stroke:#FF0000;stroke-width:2.0px;stroke-linecap:butt;stroke-linejoin:miter;stroke-opacity:1"/>
<path class="bond-13 atom-13 atom-14" d="M 448.7,166.6 L 441.3,188.2" style="fill:none;fill-rule:evenodd;stroke:#000000;stroke-width:2.0px;stroke-linecap:butt;stroke-linejoin:miter;stroke-opacity:1"/>
<path class="bond-14 atom-14 atom-15" d="M 441.3,188.2 L 416.4,193.1" style="fill:none;fill-rule:evenodd;stroke:#000000;stroke-width:2.0px;stroke-linecap:butt;stroke-linejoin:miter;stroke-opacity:1"/>
<path class="bond-14 atom-14 atom-15" d="M 416.4,193.1 L 391.6,198.0" style="fill:none;fill-rule:evenodd;stroke:#191919;stroke-width:2.0px;stroke-linecap:butt;stroke-linejoin:miter;stroke-opacity:1"/>
<path class="bond-15 atom-14 atom-16" d="M 441.3,188.2 L 478.4,230.7" style="fill:none;fill-rule:evenodd;stroke:#000000;stroke-width:2.0px;stroke-linecap:butt;stroke-linejoin:miter;stroke-opacity:1"/>
<path class="bond-16 atom-16 atom-17" d="M 477.0,233.8 L 477.6,234.0" style="fill:none;fill-rule:evenodd;stroke:#000000;stroke-width:1.0px;stroke-linecap:butt;stroke-linejoin:miter;stroke-opacity:1"/>
<path class="bond-16 atom-16 atom-17" d="M 475.5,236.9 L 476.9,237.4" style="fill:none;fill-rule:evenodd;stroke:#000000;stroke-width:1.0px;stroke-linecap:butt;stroke-linejoin:miter;stroke-opacity:1"/>
<path class="bond-16 atom-16 atom-17" d="M 474.1,240.0 L 476.1,240.7" style="fill:none;fill-rule:evenodd;stroke:#000000;stroke-width:1.0px;stroke-linecap:butt;stroke-linejoin:miter;stroke-opacity:1"/>
<path class="bond-16 atom-16 atom-17" d="M 472.7,243.1 L 475.3,244.0" style="fill:none;fill-rule:evenodd;stroke:#000000;stroke-width:1.0px;stroke-linecap:butt;stroke-linejoin:miter;stroke-opacity:1"/>
<path class="bond-16 atom-16 atom-17" d="M 471.2,246.2 L 474.6,247.3" style="fill:none;fill-rule:evenodd;stroke:#000000;stroke-width:1.0px;stroke-linecap:butt;stroke-linejoin:miter;stroke-opacity:1"/>
<path class="bond-16 atom-16 atom-17" d="M 469.8,249.3 L 473.8,250.6" style="fill:none;fill-rule:evenodd;stroke:#000000;stroke-width:1.0px;stroke-linecap:butt;stroke-linejoin:miter;stroke-opacity:1"/>
<path class="bond-16 atom-16 atom-17" d="M 468.4,252.4 L 473.0,254.0" style="fill:none;fill-rule:evenodd;stroke:#0000FF;stroke-width:1.0px;stroke-linecap:butt;stroke-linejoin:miter;stroke-opacity:1"/>
<path class="bond-16 atom-16 atom-17" d="M 467.0,255.4 L 472.3,257.3" style="fill:none;fill-rule:evenodd;stroke:#0000FF;stroke-width:1.0px;stroke-linecap:butt;stroke-linejoin:miter;stroke-opacity:1"/>
<path class="bond-16 atom-16 atom-17" d="M 465.5,258.5 L 471.5,260.6" style="fill:none;fill-rule:evenodd;stroke:#0000FF;stroke-width:1.0px;stroke-linecap:butt;stroke-linejoin:miter;stroke-opacity:1"/>
<path class="bond-16 atom-16 atom-17" d="M 464.1,261.6 L 470.8,263.9" style="fill:none;fill-rule:evenodd;stroke:#0000FF;stroke-width:1.0px;stroke-linecap:butt;stroke-linejoin:miter;stroke-opacity:1"/>
<path class="bond-16 atom-16 atom-17" d="M 462.7,264.7 L 470.0,267.2" style="fill:none;fill-rule:evenodd;stroke:#0000FF;stroke-width:1.0px;stroke-linecap:butt;stroke-linejoin:miter;stroke-opacity:1"/>
<path class="bond-16 atom-16 atom-17" d="M 461.2,267.8 L 469.2,270.5" style="fill:none;fill-rule:evenodd;stroke:#0000FF;stroke-width:1.0px;stroke-linecap:butt;stroke-linejoin:miter;stroke-opacity:1"/>
<path class="bond-17 atom-17 atom-18" d="M 468.1,293.2 L 482.6,309.9" style="fill:none;fill-rule:evenodd;stroke:#0000FF;stroke-width:2.0px;stroke-linecap:butt;stroke-linejoin:miter;stroke-opacity:1"/>
<path class="bond-17 atom-17 atom-18" d="M 482.6,309.9 L 497.2,326.6" style="fill:none;fill-rule:evenodd;stroke:#000000;stroke-width:2.0px;stroke-linecap:butt;stroke-linejoin:miter;stroke-opacity:1"/>
<path class="bond-18 atom-18 atom-19" d="M 497.2,326.6 L 479.0,380.0" style="fill:none;fill-rule:evenodd;stroke:#000000;stroke-width:2.0px;stroke-linecap:butt;stroke-linejoin:miter;stroke-opacity:1"/>
<path class="bond-19 atom-18 atom-20" d="M 495.7,331.2 L 519.9,326.5" style="fill:none;fill-rule:evenodd;stroke:#000000;stroke-width:2.0px;stroke-linecap:butt;stroke-linejoin:miter;stroke-opacity:1"/>
<path class="bond-19 atom-18 atom-20" d="M 519.9,326.5 L 544.2,321.7" style="fill:none;fill-rule:evenodd;stroke:#FF0000;stroke-width:2.0px;stroke-linecap:butt;stroke-linejoin:miter;stroke-opacity:1"/>
<path class="bond-19 atom-18 atom-20" d="M 494.0,322.9 L 518.3,318.2" style="fill:none;fill-rule:evenodd;stroke:#000000;stroke-width:2.0px;stroke-linecap:butt;stroke-linejoin:miter;stroke-opacity:1"/>
<path class="bond-19 atom-18 atom-20" d="M 518.3,318.2 L 542.6,313.4" style="fill:none;fill-rule:evenodd;stroke:#FF0000;stroke-width:2.0px;stroke-linecap:butt;stroke-linejoin:miter;stroke-opacity:1"/>
<path class="bond-20 atom-16 atom-21" d="M 478.4,230.7 L 533.7,219.8" style="fill:none;fill-rule:evenodd;stroke:#000000;stroke-width:2.0px;stroke-linecap:butt;stroke-linejoin:miter;stroke-opacity:1"/>
<path class="bond-21 atom-21 atom-22" d="M 536.2,222.2 L 535.7,222.6" style="fill:none;fill-rule:evenodd;stroke:#000000;stroke-width:1.0px;stroke-linecap:butt;stroke-linejoin:miter;stroke-opacity:1"/>
<path class="bond-21 atom-21 atom-22" d="M 538.7,224.5 L 537.7,225.4" style="fill:none;fill-rule:evenodd;stroke:#000000;stroke-width:1.0px;stroke-linecap:butt;stroke-linejoin:miter;stroke-opacity:1"/>
<path class="bond-21 atom-21 atom-22" d="M 541.2,226.8 L 539.6,228.2" style="fill:none;fill-rule:evenodd;stroke:#000000;stroke-width:1.0px;stroke-linecap:butt;stroke-linejoin:miter;stroke-opacity:1"/>
<path class="bond-21 atom-21 atom-22" d="M 543.7,229.1 L 541.6,231.0" style="fill:none;fill-rule:evenodd;stroke:#000000;stroke-width:1.0px;stroke-linecap:butt;stroke-linejoin:miter;stroke-opacity:1"/>
<path class="bond-21 atom-21 atom-22" d="M 546.2,231.5 L 543.6,233.8" style="fill:none;fill-rule:evenodd;stroke:#000000;stroke-width:1.0px;stroke-linecap:butt;stroke-linejoin:miter;stroke-opacity:1"/>
<path class="bond-21 atom-21 atom-22" d="M 548.7,233.8 L 545.5,236.6" style="fill:none;fill-rule:evenodd;stroke:#000000;stroke-width:1.0px;stroke-linecap:butt;stroke-linejoin:miter;stroke-opacity:1"/>
<path class="bond-21 atom-21 atom-22" d="M 551.2,236.1 L 547.5,239.4" style="fill:none;fill-rule:evenodd;stroke:#FF0000;stroke-width:1.0px;stroke-linecap:butt;stroke-linejoin:miter;stroke-opacity:1"/>
<path class="bond-21 atom-21 atom-22" d="M 553.7,238.5 L 549.5,242.2" style="fill:none;fill-rule:evenodd;stroke:#FF0000;stroke-width:1.0px;stroke-linecap:butt;stroke-linejoin:miter;stroke-opacity:1"/>
<path class="bond-21 atom-21 atom-22" d="M 556.2,240.8 L 551.5,245.0" style="fill:none;fill-rule:evenodd;stroke:#FF0000;stroke-width:1.0px;stroke-linecap:butt;stroke-linejoin:miter;stroke-opacity:1"/>
<path class="bond-21 atom-21 atom-22" d="M 558.7,243.1 L 553.4,247.7" style="fill:none;fill-rule:evenodd;stroke:#FF0000;stroke-width:1.0px;stroke-linecap:butt;stroke-linejoin:miter;stroke-opacity:1"/>
<path class="bond-21 atom-21 atom-22" d="M 561.2,245.4 L 555.4,250.5" style="fill:none;fill-rule:evenodd;stroke:#FF0000;stroke-width:1.0px;stroke-linecap:butt;stroke-linejoin:miter;stroke-opacity:1"/>
<path class="bond-21 atom-21 atom-22" d="M 563.7,247.8 L 557.4,253.3" style="fill:none;fill-rule:evenodd;stroke:#FF0000;stroke-width:1.0px;stroke-linecap:butt;stroke-linejoin:miter;stroke-opacity:1"/>
<path class="bond-22 atom-7 atom-23" d="M 644.5,198.1 L 699.8,187.2" style="fill:none;fill-rule:evenodd;stroke:#000000;stroke-width:2.0px;stroke-linecap:butt;stroke-linejoin:miter;stroke-opacity:1"/>
<path class="bond-23 atom-23 atom-24" d="M 699.8,187.2 L 704.9,165.7 L 708.9,167.0 Z" style="fill:#000000;fill-rule:evenodd;fill-opacity:1;stroke:#000000;stroke-width:0.5px;stroke-linecap:butt;stroke-linejoin:miter;stroke-opacity:1;"/>
<path class="bond-23 atom-23 atom-24" d="M 704.9,165.7 L 718.1,146.9 L 710.1,144.1 Z" style="fill:#0000FF;fill-rule:evenodd;fill-opacity:1;stroke:#0000FF;stroke-width:0.5px;stroke-linecap:butt;stroke-linejoin:miter;stroke-opacity:1;"/>
<path class="bond-23 atom-23 atom-24" d="M 704.9,165.7 L 708.9,167.0 L 718.1,146.9 Z" style="fill:#0000FF;fill-rule:evenodd;fill-opacity:1;stroke:#0000FF;stroke-width:0.5px;stroke-linecap:butt;stroke-linejoin:miter;stroke-opacity:1;"/>
<path class="bond-24 atom-24 atom-25" d="M 726.0,132.2 L 749.7,127.6" style="fill:none;fill-rule:evenodd;stroke:#0000FF;stroke-width:2.0px;stroke-linecap:butt;stroke-linejoin:miter;stroke-opacity:1"/>
<path class="bond-24 atom-24 atom-25" d="M 749.7,127.6 L 773.4,122.9" style="fill:none;fill-rule:evenodd;stroke:#000000;stroke-width:2.0px;stroke-linecap:butt;stroke-linejoin:miter;stroke-opacity:1"/>
<path class="bond-25 atom-25 atom-26" d="M 773.4,122.9 L 791.7,69.5" style="fill:none;fill-rule:evenodd;stroke:#000000;stroke-width:2.0px;stroke-linecap:butt;stroke-linejoin:miter;stroke-opacity:1"/>
<path class="bond-26 atom-25 atom-27" d="M 768.6,123.9 L 783.6,141.1" style="fill:none;fill-rule:evenodd;stroke:#000000;stroke-width:2.0px;stroke-linecap:butt;stroke-linejoin:miter;stroke-opacity:1"/>
<path class="bond-26 atom-25 atom-27" d="M 783.6,141.1 L 798.7,158.3" style="fill:none;fill-rule:evenodd;stroke:#FF0000;stroke-width:2.0px;stroke-linecap:butt;stroke-linejoin:miter;stroke-opacity:1"/>
<path class="bond-26 atom-25 atom-27" d="M 775.0,118.3 L 790.0,135.5" style="fill:none;fill-rule:evenodd;stroke:#000000;stroke-width:2.0px;stroke-linecap:butt;stroke-linejoin:miter;stroke-opacity:1"/>
<path class="bond-26 atom-25 atom-27" d="M 790.0,135.5 L 805.0,152.7" style="fill:none;fill-rule:evenodd;stroke:#FF0000;stroke-width:2.0px;stroke-linecap:butt;stroke-linejoin:miter;stroke-opacity:1"/>
<path class="bond-27 atom-23 atom-28" d="M 699.8,187.2 L 736.9,229.7" style="fill:none;fill-rule:evenodd;stroke:#000000;stroke-width:2.0px;stroke-linecap:butt;stroke-linejoin:miter;stroke-opacity:1"/>
<path class="bond-28 atom-28 atom-29" d="M 736.9,229.7 L 758.7,223.3 L 759.5,227.4 Z" style="fill:#000000;fill-rule:evenodd;fill-opacity:1;stroke:#000000;stroke-width:0.5px;stroke-linecap:butt;stroke-linejoin:miter;stroke-opacity:1;"/>
<path class="bond-28 atom-28 atom-29" d="M 758.7,223.3 L 782.0,225.1 L 780.4,216.8 Z" style="fill:#FF0000;fill-rule:evenodd;fill-opacity:1;stroke:#FF0000;stroke-width:0.5px;stroke-linecap:butt;stroke-linejoin:miter;stroke-opacity:1;"/>
<path class="bond-28 atom-28 atom-29" d="M 758.7,223.3 L 759.5,227.4 L 782.0,225.1 Z" style="fill:#FF0000;fill-rule:evenodd;fill-opacity:1;stroke:#FF0000;stroke-width:0.5px;stroke-linecap:butt;stroke-linejoin:miter;stroke-opacity:1;"/>
<path class="bond-29 atom-28 atom-2" d="M 736.9,229.7 L 718.7,283.1" style="fill:none;fill-rule:evenodd;stroke:#000000;stroke-width:2.0px;stroke-linecap:butt;stroke-linejoin:miter;stroke-opacity:1"/>
<path class="bond-30 atom-21 atom-9" d="M 533.7,219.8 L 552.0,166.5" style="fill:none;fill-rule:evenodd;stroke:#000000;stroke-width:2.0px;stroke-linecap:butt;stroke-linejoin:miter;stroke-opacity:1"/>
<path d="M 715.9,283.6 L 718.7,283.1 L 719.6,280.4" style="fill:none;stroke:#000000;stroke-width:2.0px;stroke-linecap:butt;stroke-linejoin:miter;stroke-opacity:1;"/>
<path d="M 646.0,344.7 L 645.1,347.3 L 643.9,347.6" style="fill:none;stroke:#000000;stroke-width:2.0px;stroke-linecap:butt;stroke-linejoin:miter;stroke-opacity:1;"/>
<path d="M 550.1,164.3 L 552.0,166.5 L 551.1,169.1" style="fill:none;stroke:#000000;stroke-width:2.0px;stroke-linecap:butt;stroke-linejoin:miter;stroke-opacity:1;"/>
<path d="M 532.2,73.2 L 533.1,70.6 L 532.4,69.8" style="fill:none;stroke:#000000;stroke-width:2.0px;stroke-linecap:butt;stroke-linejoin:miter;stroke-opacity:1;"/>
<path d="M 476.5,228.6 L 478.4,230.7 L 481.1,230.2" style="fill:none;stroke:#000000;stroke-width:2.0px;stroke-linecap:butt;stroke-linejoin:miter;stroke-opacity:1;"/>
<path d="M 496.5,325.8 L 497.2,326.6 L 496.3,329.3" style="fill:none;stroke:#000000;stroke-width:2.0px;stroke-linecap:butt;stroke-linejoin:miter;stroke-opacity:1;"/>
<path d="M 531.0,220.4 L 533.7,219.8 L 534.7,217.2" style="fill:none;stroke:#000000;stroke-width:2.0px;stroke-linecap:butt;stroke-linejoin:miter;stroke-opacity:1;"/>
<path d="M 697.0,187.7 L 699.8,187.2 L 701.7,189.3" style="fill:none;stroke:#000000;stroke-width:2.0px;stroke-linecap:butt;stroke-linejoin:miter;stroke-opacity:1;"/>
<path d="M 772.2,123.1 L 773.4,122.9 L 774.3,120.2" style="fill:none;stroke:#000000;stroke-width:2.0px;stroke-linecap:butt;stroke-linejoin:miter;stroke-opacity:1;"/>
<path d="M 735.1,227.6 L 736.9,229.7 L 736.0,232.4" style="fill:none;stroke:#000000;stroke-width:2.0px;stroke-linecap:butt;stroke-linejoin:miter;stroke-opacity:1;"/>
<path class="atom-0" d="M 734.5 377.2 L 736.9 374.8 L 733.7 374.1 L 734.2 372.5 L 737.1 374.0 L 736.7 370.8 L 738.4 370.8 L 737.9 374.0 L 740.8 372.6 L 741.3 374.1 L 738.1 374.7 L 740.4 377.1 L 739.0 378.1 L 737.5 375.2 L 735.9 378.1 L 734.5 377.2 " fill="#191919"/>
<path class="atom-1" d="M 748.4 325.6 Q 748.4 321.8, 750.3 319.6 Q 752.2 317.5, 755.8 317.5 Q 759.3 317.5, 761.2 319.6 Q 763.1 321.8, 763.1 325.6 Q 763.1 329.5, 761.2 331.7 Q 759.3 333.9, 755.8 333.9 Q 752.3 333.9, 750.3 331.7 Q 748.4 329.5, 748.4 325.6 M 755.8 332.1 Q 758.2 332.1, 759.5 330.5 Q 760.9 328.8, 760.9 325.6 Q 760.9 322.5, 759.5 320.9 Q 758.2 319.3, 755.8 319.3 Q 753.3 319.3, 752.0 320.9 Q 750.7 322.5, 750.7 325.6 Q 750.7 328.8, 752.0 330.5 Q 753.3 332.1, 755.8 332.1 " fill="#FF0000"/>
<path class="atom-5" d="M 566.6 350.3 L 568.8 350.3 L 568.8 357.1 L 576.9 357.1 L 576.9 350.3 L 579.1 350.3 L 579.1 366.3 L 576.9 366.3 L 576.9 358.9 L 568.8 358.9 L 568.8 366.3 L 566.6 366.3 L 566.6 350.3 " fill="#FF0000"/>
<path class="atom-5" d="M 582.4 358.3 Q 582.4 354.4, 584.3 352.3 Q 586.2 350.1, 589.7 350.1 Q 593.2 350.1, 595.1 352.3 Q 597.0 354.4, 597.0 358.3 Q 597.0 362.2, 595.1 364.4 Q 593.2 366.6, 589.7 366.6 Q 586.2 366.6, 584.3 364.4 Q 582.4 362.2, 582.4 358.3 M 589.7 364.7 Q 592.1 364.7, 593.4 363.1 Q 594.8 361.5, 594.8 358.3 Q 594.8 355.1, 593.4 353.6 Q 592.1 352.0, 589.7 352.0 Q 587.3 352.0, 585.9 353.5 Q 584.6 355.1, 584.6 358.3 Q 584.6 361.5, 585.9 363.1 Q 587.3 364.7, 589.7 364.7 " fill="#FF0000"/>
<path class="atom-6" d="M 618.9 251.5 Q 618.9 247.7, 620.8 245.5 Q 622.7 243.4, 626.2 243.4 Q 629.7 243.4, 631.6 245.5 Q 633.5 247.7, 633.5 251.5 Q 633.5 255.4, 631.6 257.6 Q 629.7 259.8, 626.2 259.8 Q 622.7 259.8, 620.8 257.6 Q 618.9 255.4, 618.9 251.5 M 626.2 258.0 Q 628.6 258.0, 630.0 256.4 Q 631.3 254.7, 631.3 251.5 Q 631.3 248.4, 630.0 246.8 Q 628.6 245.2, 626.2 245.2 Q 623.8 245.2, 622.4 246.8 Q 621.1 248.3, 621.1 251.5 Q 621.1 254.7, 622.4 256.4 Q 623.8 258.0, 626.2 258.0 " fill="#FF0000"/>
<path class="atom-8" d="M 600.0 155.6 Q 600.0 151.8, 601.9 149.6 Q 603.8 147.5, 607.3 147.5 Q 610.9 147.5, 612.8 149.6 Q 614.7 151.8, 614.7 155.6 Q 614.7 159.5, 612.8 161.7 Q 610.8 163.9, 607.3 163.9 Q 603.8 163.9, 601.9 161.7 Q 600.0 159.5, 600.0 155.6 M 607.3 162.1 Q 609.8 162.1, 611.1 160.5 Q 612.4 158.8, 612.4 155.6 Q 612.4 152.5, 611.1 150.9 Q 609.8 149.3, 607.3 149.3 Q 604.9 149.3, 603.6 150.9 Q 602.3 152.5, 602.3 155.6 Q 602.3 158.8, 603.6 160.5 Q 604.9 162.1, 607.3 162.1 " fill="#FF0000"/>
<path class="atom-12" d="M 472.9 20.2 L 475.1 20.2 L 475.1 27.0 L 483.2 27.0 L 483.2 20.2 L 485.4 20.2 L 485.4 36.2 L 483.2 36.2 L 483.2 28.8 L 475.1 28.8 L 475.1 36.2 L 472.9 36.2 L 472.9 20.2 " fill="#FF0000"/>
<path class="atom-12" d="M 488.7 28.1 Q 488.7 24.3, 490.6 22.1 Q 492.5 20.0, 496.0 20.0 Q 499.6 20.0, 501.5 22.1 Q 503.4 24.3, 503.4 28.1 Q 503.4 32.0, 501.4 34.2 Q 499.5 36.4, 496.0 36.4 Q 492.5 36.4, 490.6 34.2 Q 488.7 32.0, 488.7 28.1 M 496.0 34.6 Q 498.5 34.6, 499.8 33.0 Q 501.1 31.3, 501.1 28.1 Q 501.1 25.0, 499.8 23.4 Q 498.5 21.8, 496.0 21.8 Q 493.6 21.8, 492.3 23.4 Q 490.9 25.0, 490.9 28.1 Q 490.9 31.4, 492.3 33.0 Q 493.6 34.6, 496.0 34.6 " fill="#FF0000"/>
<path class="atom-13" d="M 452.2 134.9 Q 452.2 131.1, 454.1 128.9 Q 456.0 126.8, 459.5 126.8 Q 463.1 126.8, 465.0 128.9 Q 466.9 131.1, 466.9 134.9 Q 466.9 138.8, 464.9 141.0 Q 463.0 143.2, 459.5 143.2 Q 456.0 143.2, 454.1 141.0 Q 452.2 138.8, 452.2 134.9 M 459.5 141.4 Q 462.0 141.4, 463.3 139.7 Q 464.6 138.1, 464.6 134.9 Q 464.6 131.8, 463.3 130.2 Q 462.0 128.6, 459.5 128.6 Q 457.1 128.6, 455.8 130.2 Q 454.4 131.7, 454.4 134.9 Q 454.4 138.1, 455.8 139.7 Q 457.1 141.4, 459.5 141.4 " fill="#FF0000"/>
<path class="atom-15" d="M 382.9 197.3 L 385.3 194.9 L 382.1 194.3 L 382.6 192.7 L 385.5 194.2 L 385.1 191.0 L 386.8 191.0 L 386.3 194.1 L 389.2 192.8 L 389.7 194.3 L 386.5 194.9 L 388.8 197.3 L 387.4 198.3 L 385.9 195.3 L 384.3 198.3 L 382.9 197.3 " fill="#191919"/>
<path class="atom-17" d="M 438.4 276.1 L 440.6 276.1 L 440.6 282.9 L 448.8 282.9 L 448.8 276.1 L 450.9 276.1 L 450.9 292.1 L 448.8 292.1 L 448.8 284.7 L 440.6 284.7 L 440.6 292.1 L 438.4 292.1 L 438.4 276.1 " fill="#0000FF"/>
<path class="atom-17" d="M 456.6 276.1 L 461.8 284.6 Q 462.4 285.4, 463.2 286.9 Q 464.0 288.4, 464.1 288.5 L 464.1 276.1 L 466.2 276.1 L 466.2 292.1 L 464.0 292.1 L 458.4 282.9 Q 457.7 281.8, 457.0 280.5 Q 456.4 279.3, 456.1 278.9 L 456.1 292.1 L 454.1 292.1 L 454.1 276.1 L 456.6 276.1 " fill="#0000FF"/>
<path class="atom-20" d="M 545.3 315.8 Q 545.3 311.9, 547.2 309.8 Q 549.1 307.6, 552.6 307.6 Q 556.1 307.6, 558.0 309.8 Q 559.9 311.9, 559.9 315.8 Q 559.9 319.7, 558.0 321.9 Q 556.1 324.1, 552.6 324.1 Q 549.1 324.1, 547.2 321.9 Q 545.3 319.7, 545.3 315.8 M 552.6 322.3 Q 555.0 322.3, 556.3 320.6 Q 557.7 319.0, 557.7 315.8 Q 557.7 312.6, 556.3 311.1 Q 555.0 309.5, 552.6 309.5 Q 550.2 309.5, 548.8 311.0 Q 547.5 312.6, 547.5 315.8 Q 547.5 319.0, 548.8 320.6 Q 550.2 322.3, 552.6 322.3 " fill="#FF0000"/>
<path class="atom-22" d="M 563.5 262.4 Q 563.5 258.6, 565.4 256.4 Q 567.3 254.3, 570.8 254.3 Q 574.4 254.3, 576.3 256.4 Q 578.2 258.6, 578.2 262.4 Q 578.2 266.3, 576.3 268.5 Q 574.3 270.7, 570.8 270.7 Q 567.3 270.7, 565.4 268.5 Q 563.5 266.3, 563.5 262.4 M 570.8 268.9 Q 573.3 268.9, 574.6 267.2 Q 575.9 265.6, 575.9 262.4 Q 575.9 259.3, 574.6 257.7 Q 573.3 256.1, 570.8 256.1 Q 568.4 256.1, 567.1 257.6 Q 565.8 259.2, 565.8 262.4 Q 565.8 265.6, 567.1 267.2 Q 568.4 268.9, 570.8 268.9 " fill="#FF0000"/>
<path class="atom-22" d="M 580.7 254.4 L 582.8 254.4 L 582.8 261.2 L 591.0 261.2 L 591.0 254.4 L 593.2 254.4 L 593.2 270.4 L 591.0 270.4 L 591.0 263.0 L 582.8 263.0 L 582.8 270.4 L 580.7 270.4 L 580.7 254.4 " fill="#FF0000"/>
<path class="atom-24" d="M 696.4 125.8 L 698.5 125.8 L 698.5 132.6 L 706.7 132.6 L 706.7 125.8 L 708.9 125.8 L 708.9 141.8 L 706.7 141.8 L 706.7 134.4 L 698.5 134.4 L 698.5 141.8 L 696.4 141.8 L 696.4 125.8 " fill="#0000FF"/>
<path class="atom-24" d="M 714.5 125.8 L 719.8 134.3 Q 720.3 135.1, 721.1 136.6 Q 722.0 138.1, 722.0 138.2 L 722.0 125.8 L 724.1 125.8 L 724.1 141.8 L 721.9 141.8 L 716.3 132.5 Q 715.7 131.5, 715.0 130.2 Q 714.3 129.0, 714.1 128.6 L 714.1 141.8 L 712.0 141.8 L 712.0 125.8 L 714.5 125.8 " fill="#0000FF"/>
<path class="atom-27" d="M 803.2 165.5 Q 803.2 161.6, 805.1 159.5 Q 807.0 157.3, 810.5 157.3 Q 814.1 157.3, 816.0 159.5 Q 817.9 161.6, 817.9 165.5 Q 817.9 169.3, 815.9 171.5 Q 814.0 173.7, 810.5 173.7 Q 807.0 173.7, 805.1 171.5 Q 803.2 169.4, 803.2 165.5 M 810.5 171.9 Q 813.0 171.9, 814.3 170.3 Q 815.6 168.7, 815.6 165.5 Q 815.6 162.3, 814.3 160.7 Q 813.0 159.1, 810.5 159.1 Q 808.1 159.1, 806.8 160.7 Q 805.5 162.3, 805.5 165.5 Q 805.5 168.7, 806.8 170.3 Q 808.1 171.9, 810.5 171.9 " fill="#FF0000"/>
<path class="atom-29" d="M 784.9 218.8 Q 784.9 215.0, 786.8 212.9 Q 788.7 210.7, 792.3 210.7 Q 795.8 210.7, 797.7 212.9 Q 799.6 215.0, 799.6 218.8 Q 799.6 222.7, 797.7 224.9 Q 795.8 227.1, 792.3 227.1 Q 788.8 227.1, 786.8 224.9 Q 784.9 222.7, 784.9 218.8 M 792.3 225.3 Q 794.7 225.3, 796.0 223.7 Q 797.4 222.0, 797.4 218.8 Q 797.4 215.7, 796.0 214.1 Q 794.7 212.5, 792.3 212.5 Q 789.8 212.5, 788.5 214.1 Q 787.2 215.7, 787.2 218.8 Q 787.2 222.1, 788.5 223.7 Q 789.8 225.3, 792.3 225.3 " fill="#FF0000"/>
<path class="atom-29" d="M 802.1 210.9 L 804.3 210.9 L 804.3 217.7 L 812.4 217.7 L 812.4 210.9 L 814.6 210.9 L 814.6 226.9 L 812.4 226.9 L 812.4 219.5 L 804.3 219.5 L 804.3 226.9 L 802.1 226.9 L 802.1 210.9 " fill="#FF0000"/>
<path class="bond-0 atom-0 atom-1" d="M 568.2,599.9 L 589.0,599.9" style="fill:none;fill-rule:evenodd;stroke:#191919;stroke-width:2.0px;stroke-linecap:butt;stroke-linejoin:miter;stroke-opacity:1"/>
<path class="bond-0 atom-0 atom-1" d="M 589.0,599.9 L 609.7,599.9" style="fill:none;fill-rule:evenodd;stroke:#FF0000;stroke-width:2.0px;stroke-linecap:butt;stroke-linejoin:miter;stroke-opacity:1"/>
<path class="atom-0" d="M 559.5 598.1 L 561.9 595.7 L 558.7 595.1 L 559.2 593.5 L 562.1 594.9 L 561.7 591.8 L 563.4 591.8 L 562.9 594.9 L 565.8 593.6 L 566.3 595.1 L 563.1 595.7 L 565.4 598.1 L 564.0 599.1 L 562.5 596.1 L 560.9 599.1 L 559.5 598.1 " fill="#191919"/>
<path class="atom-1" d="M 611.6 599.9 Q 611.6 596.1, 613.5 594.0 Q 615.4 591.8, 618.9 591.8 Q 622.5 591.8, 624.4 594.0 Q 626.3 596.1, 626.3 599.9 Q 626.3 603.8, 624.4 606.0 Q 622.4 608.2, 618.9 608.2 Q 615.4 608.2, 613.5 606.0 Q 611.6 603.8, 611.6 599.9 M 618.9 606.4 Q 621.4 606.4, 622.7 604.8 Q 624.0 603.1, 624.0 599.9 Q 624.0 596.8, 622.7 595.2 Q 621.4 593.6, 618.9 593.6 Q 616.5 593.6, 615.2 595.2 Q 613.9 596.8, 613.9 599.9 Q 613.9 603.2, 615.2 604.8 Q 616.5 606.4, 618.9 606.4 " fill="#FF0000"/>
<path class="atom-1" d="M 628.8 592.0 L 630.9 592.0 L 630.9 598.8 L 639.1 598.8 L 639.1 592.0 L 641.3 592.0 L 641.3 608.0 L 639.1 608.0 L 639.1 600.6 L 630.9 600.6 L 630.9 608.0 L 628.8 608.0 L 628.8 592.0 " fill="#FF0000"/>
</svg>