<svg xmlns="http://www.w3.org/2000/svg" xmlns:rdkit="http://www.rdkit.org/xml" xmlns:xlink="http://www.w3.org/1999/xlink" version="1.1" baseProfile="full" xml:space="preserve" width="1200px" height="800px" viewBox="0 0 1200 800">
<!-- END OF HEADER -->
<rect style="opacity:1.0;fill:#FFFFFF;stroke:none" width="1200.0" height="800.0" x="0.0" y="0.0"> </rect>
<path class="bond-0 atom-0 atom-1" d="M 281.2,153.2 L 307.1,147.2" style="fill:none;fill-rule:evenodd;stroke:#191919;stroke-width:2.0px;stroke-linecap:butt;stroke-linejoin:miter;stroke-opacity:1"/>
<path class="bond-0 atom-0 atom-1" d="M 307.1,147.2 L 332.9,141.2" style="fill:none;fill-rule:evenodd;stroke:#FF0000;stroke-width:2.0px;stroke-linecap:butt;stroke-linejoin:miter;stroke-opacity:1"/>
<path class="bond-1 atom-1 atom-2" d="M 356.6,151.2 L 375.5,171.4" style="fill:none;fill-rule:evenodd;stroke:#FF0000;stroke-width:2.0px;stroke-linecap:butt;stroke-linejoin:miter;stroke-opacity:1"/>
<path class="bond-1 atom-1 atom-2" d="M 375.5,171.4 L 394.4,191.7" style="fill:none;fill-rule:evenodd;stroke:#000000;stroke-width:2.0px;stroke-linecap:butt;stroke-linejoin:miter;stroke-opacity:1"/>
<path class="bond-2 atom-2 atom-3" d="M 394.4,191.7 L 465.2,175.3" style="fill:none;fill-rule:evenodd;stroke:#000000;stroke-width:2.0px;stroke-linecap:butt;stroke-linejoin:miter;stroke-opacity:1"/>
<path class="bond-3 atom-3 atom-4" d="M 465.2,175.3 L 514.8,228.5" style="fill:none;fill-rule:evenodd;stroke:#000000;stroke-width:2.0px;stroke-linecap:butt;stroke-linejoin:miter;stroke-opacity:1"/>
<path class="bond-4 atom-4 atom-5" d="M 514.8,228.5 L 544.3,221.7" style="fill:none;fill-rule:evenodd;stroke:#000000;stroke-width:2.0px;stroke-linecap:butt;stroke-linejoin:miter;stroke-opacity:1"/>
<path class="bond-4 atom-4 atom-5" d="M 544.3,221.7 L 573.8,214.9" style="fill:none;fill-rule:evenodd;stroke:#FF0000;stroke-width:2.0px;stroke-linecap:butt;stroke-linejoin:miter;stroke-opacity:1"/>
<path class="bond-5 atom-5 atom-6" d="M 597.5,224.9 L 616.4,245.1" style="fill:none;fill-rule:evenodd;stroke:#FF0000;stroke-width:2.0px;stroke-linecap:butt;stroke-linejoin:miter;stroke-opacity:1"/>
<path class="bond-5 atom-5 atom-6" d="M 616.4,245.1 L 635.3,265.4" style="fill:none;fill-rule:evenodd;stroke:#000000;stroke-width:2.0px;stroke-linecap:butt;stroke-linejoin:miter;stroke-opacity:1"/>
<path class="bond-6 atom-6 atom-7" d="M 631.0,260.7 L 621.8,290.6" style="fill:none;fill-rule:evenodd;stroke:#000000;stroke-width:2.0px;stroke-linecap:butt;stroke-linejoin:miter;stroke-opacity:1"/>
<path class="bond-6 atom-6 atom-7" d="M 621.8,290.6 L 612.7,320.5" style="fill:none;fill-rule:evenodd;stroke:#FF0000;stroke-width:2.0px;stroke-linecap:butt;stroke-linejoin:miter;stroke-opacity:1"/>
<path class="bond-6 atom-6 atom-7" d="M 641.4,263.9 L 632.3,293.8" style="fill:none;fill-rule:evenodd;stroke:#000000;stroke-width:2.0px;stroke-linecap:butt;stroke-linejoin:miter;stroke-opacity:1"/>
<path class="bond-6 atom-6 atom-7" d="M 632.3,293.8 L 623.1,323.7" style="fill:none;fill-rule:evenodd;stroke:#FF0000;stroke-width:2.0px;stroke-linecap:butt;stroke-linejoin:miter;stroke-opacity:1"/>
<path class="bond-7 atom-6 atom-8" d="M 635.3,265.4 L 706.1,249.0" style="fill:none;fill-rule:evenodd;stroke:#000000;stroke-width:2.0px;stroke-linecap:butt;stroke-linejoin:miter;stroke-opacity:1"/>
<path class="bond-8 atom-8 atom-9" d="M 706.1,249.0 L 761.0,296.7" style="fill:none;fill-rule:evenodd;stroke:#000000;stroke-width:2.0px;stroke-linecap:butt;stroke-linejoin:miter;stroke-opacity:1"/>
<path class="bond-8 atom-8 atom-9" d="M 719.2,246.0 L 762.2,283.3" style="fill:none;fill-rule:evenodd;stroke:#000000;stroke-width:2.0px;stroke-linecap:butt;stroke-linejoin:miter;stroke-opacity:1"/>
<path class="bond-9 atom-9 atom-10" d="M 761.0,296.7 L 823.3,259.3" style="fill:none;fill-rule:evenodd;stroke:#000000;stroke-width:2.0px;stroke-linecap:butt;stroke-linejoin:miter;stroke-opacity:1"/>
<path class="bond-10 atom-10 atom-11" d="M 823.3,259.3 L 807.0,188.4" style="fill:none;fill-rule:evenodd;stroke:#000000;stroke-width:2.0px;stroke-linecap:butt;stroke-linejoin:miter;stroke-opacity:1"/>
<path class="bond-10 atom-10 atom-11" d="M 810.9,254.0 L 798.1,198.6" style="fill:none;fill-rule:evenodd;stroke:#000000;stroke-width:2.0px;stroke-linecap:butt;stroke-linejoin:miter;stroke-opacity:1"/>
<path class="bond-11 atom-11 atom-12" d="M 807.0,188.4 L 854.7,133.5" style="fill:none;fill-rule:evenodd;stroke:#000000;stroke-width:2.0px;stroke-linecap:butt;stroke-linejoin:miter;stroke-opacity:1"/>
<path class="bond-12 atom-12 atom-13" d="M 854.7,133.5 L 886.7,139.8" style="fill:none;fill-rule:evenodd;stroke:#000000;stroke-width:2.0px;stroke-linecap:butt;stroke-linejoin:miter;stroke-opacity:1"/>
<path class="bond-12 atom-12 atom-13" d="M 886.7,139.8 L 918.8,146.0" style="fill:none;fill-rule:evenodd;stroke:#191919;stroke-width:2.0px;stroke-linecap:butt;stroke-linejoin:miter;stroke-opacity:1"/>
<path class="bond-13 atom-12 atom-14" d="M 860.9,134.8 L 850.8,105.4" style="fill:none;fill-rule:evenodd;stroke:#000000;stroke-width:2.0px;stroke-linecap:butt;stroke-linejoin:miter;stroke-opacity:1"/>
<path class="bond-13 atom-12 atom-14" d="M 850.8,105.4 L 840.7,76.1" style="fill:none;fill-rule:evenodd;stroke:#FF0000;stroke-width:2.0px;stroke-linecap:butt;stroke-linejoin:miter;stroke-opacity:1"/>
<path class="bond-13 atom-12 atom-14" d="M 850.5,138.3 L 840.5,109.0" style="fill:none;fill-rule:evenodd;stroke:#000000;stroke-width:2.0px;stroke-linecap:butt;stroke-linejoin:miter;stroke-opacity:1"/>
<path class="bond-13 atom-12 atom-14" d="M 840.5,109.0 L 830.4,79.7" style="fill:none;fill-rule:evenodd;stroke:#FF0000;stroke-width:2.0px;stroke-linecap:butt;stroke-linejoin:miter;stroke-opacity:1"/>
<path class="bond-14 atom-11 atom-15" d="M 807.0,188.4 L 776.7,185.8" style="fill:none;fill-rule:evenodd;stroke:#000000;stroke-width:2.0px;stroke-linecap:butt;stroke-linejoin:miter;stroke-opacity:1"/>
<path class="bond-14 atom-11 atom-15" d="M 776.7,185.8 L 746.4,183.1" style="fill:none;fill-rule:evenodd;stroke:#FF0000;stroke-width:2.0px;stroke-linecap:butt;stroke-linejoin:miter;stroke-opacity:1"/>
<path class="bond-15 atom-15 atom-8" d="M 729.0,195.2 L 717.5,222.1" style="fill:none;fill-rule:evenodd;stroke:#FF0000;stroke-width:2.0px;stroke-linecap:butt;stroke-linejoin:miter;stroke-opacity:1"/>
<path class="bond-15 atom-15 atom-8" d="M 717.5,222.1 L 706.1,249.0" style="fill:none;fill-rule:evenodd;stroke:#000000;stroke-width:2.0px;stroke-linecap:butt;stroke-linejoin:miter;stroke-opacity:1"/>
<path d="M 393.4,190.7 L 394.4,191.7 L 397.9,190.9" style="fill:none;stroke:#000000;stroke-width:2.0px;stroke-linecap:butt;stroke-linejoin:miter;stroke-opacity:1;"/>
<path d="M 461.7,176.1 L 465.2,175.3 L 467.7,178.0" style="fill:none;stroke:#000000;stroke-width:2.0px;stroke-linecap:butt;stroke-linejoin:miter;stroke-opacity:1;"/>
<path d="M 512.3,225.9 L 514.8,228.5 L 516.3,228.2" style="fill:none;stroke:#000000;stroke-width:2.0px;stroke-linecap:butt;stroke-linejoin:miter;stroke-opacity:1;"/>
<path d="M 634.3,264.3 L 635.3,265.4 L 638.8,264.5" style="fill:none;stroke:#000000;stroke-width:2.0px;stroke-linecap:butt;stroke-linejoin:miter;stroke-opacity:1;"/>
<path d="M 758.2,294.3 L 761.0,296.7 L 764.1,294.8" style="fill:none;stroke:#000000;stroke-width:2.0px;stroke-linecap:butt;stroke-linejoin:miter;stroke-opacity:1;"/>
<path d="M 820.2,261.1 L 823.3,259.3 L 822.5,255.7" style="fill:none;stroke:#000000;stroke-width:2.0px;stroke-linecap:butt;stroke-linejoin:miter;stroke-opacity:1;"/>
<path d="M 852.3,136.3 L 854.7,133.5 L 856.3,133.9" style="fill:none;stroke:#000000;stroke-width:2.0px;stroke-linecap:butt;stroke-linejoin:miter;stroke-opacity:1;"/>
<path class="atom-0" d="M 270.1 152.5 L 273.1 149.5 L 269.1 148.6 L 269.7 146.6 L 273.4 148.4 L 272.9 144.4 L 275.0 144.4 L 274.4 148.4 L 278.2 146.7 L 278.8 148.6 L 274.7 149.4 L 277.6 152.5 L 275.9 153.8 L 273.9 150.0 L 271.8 153.8 L 270.1 152.5 " fill="#191919"/>
<path class="atom-1" d="M 335.3 138.5 Q 335.3 133.6, 337.8 130.8 Q 340.2 128.1, 344.8 128.1 Q 349.4 128.1, 351.8 130.8 Q 354.2 133.6, 354.2 138.5 Q 354.2 143.6, 351.8 146.4 Q 349.3 149.2, 344.8 149.2 Q 340.3 149.2, 337.8 146.4 Q 335.3 143.6, 335.3 138.5 M 344.8 146.9 Q 347.9 146.9, 349.6 144.8 Q 351.3 142.7, 351.3 138.5 Q 351.3 134.5, 349.6 132.5 Q 347.9 130.4, 344.8 130.4 Q 341.7 130.4, 339.9 132.4 Q 338.3 134.5, 338.3 138.5 Q 338.3 142.7, 339.9 144.8 Q 341.7 146.9, 344.8 146.9 " fill="#FF0000"/>
<path class="atom-5" d="M 576.2 212.2 Q 576.2 207.3, 578.7 204.5 Q 581.1 201.8, 585.7 201.8 Q 590.2 201.8, 592.7 204.5 Q 595.1 207.3, 595.1 212.2 Q 595.1 217.2, 592.7 220.1 Q 590.2 222.9, 585.7 222.9 Q 581.1 222.9, 578.7 220.1 Q 576.2 217.3, 576.2 212.2 M 585.7 220.6 Q 588.8 220.6, 590.5 218.5 Q 592.2 216.4, 592.2 212.2 Q 592.2 208.2, 590.5 206.1 Q 588.8 204.1, 585.7 204.1 Q 582.5 204.1, 580.8 206.1 Q 579.1 208.2, 579.1 212.2 Q 579.1 216.4, 580.8 218.5 Q 582.5 220.6, 585.7 220.6 " fill="#FF0000"/>
<path class="atom-7" d="M 604.5 334.9 Q 604.5 330.0, 607.0 327.2 Q 609.4 324.5, 614.0 324.5 Q 618.6 324.5, 621.0 327.2 Q 623.4 330.0, 623.4 334.9 Q 623.4 339.9, 621.0 342.8 Q 618.5 345.6, 614.0 345.6 Q 609.5 345.6, 607.0 342.8 Q 604.5 340.0, 604.5 334.9 M 614.0 343.3 Q 617.1 343.3, 618.8 341.2 Q 620.5 339.1, 620.5 334.9 Q 620.5 330.9, 618.8 328.9 Q 617.1 326.8, 614.0 326.8 Q 610.8 326.8, 609.1 328.8 Q 607.4 330.9, 607.4 334.9 Q 607.4 339.1, 609.1 341.2 Q 610.8 343.3, 614.0 343.3 " fill="#FF0000"/>
<path class="atom-13" d="M 922.2 145.1 L 925.2 142.1 L 921.2 141.2 L 921.8 139.2 L 925.5 141.0 L 925.0 137.0 L 927.1 137.0 L 926.5 141.0 L 930.3 139.3 L 930.9 141.2 L 926.9 142.0 L 929.8 145.1 L 928.0 146.4 L 926.0 142.5 L 924.0 146.4 L 922.2 145.1 " fill="#191919"/>
<path class="atom-14" d="M 821.6 64.8 Q 821.6 59.9, 824.0 57.1 Q 826.4 54.4, 831.0 54.4 Q 835.6 54.4, 838.0 57.1 Q 840.5 59.9, 840.5 64.8 Q 840.5 69.9, 838.0 72.7 Q 835.5 75.5, 831.0 75.5 Q 826.5 75.5, 824.0 72.7 Q 821.6 69.9, 821.6 64.8 M 831.0 73.2 Q 834.2 73.2, 835.8 71.1 Q 837.6 69.0, 837.6 64.8 Q 837.6 60.8, 835.8 58.8 Q 834.2 56.7, 831.0 56.7 Q 827.9 56.7, 826.2 58.7 Q 824.5 60.8, 824.5 64.8 Q 824.5 69.0, 826.2 71.1 Q 827.9 73.2, 831.0 73.2 " fill="#FF0000"/>
<path class="atom-15" d="M 725.1 182.1 Q 725.1 177.2, 727.5 174.4 Q 730.0 171.7, 734.5 171.7 Q 739.1 171.7, 741.5 174.4 Q 744.0 177.2, 744.0 182.1 Q 744.0 187.1, 741.5 190.0 Q 739.0 192.8, 734.5 192.8 Q 730.0 192.8, 727.5 190.0 Q 725.1 187.2, 725.1 182.1 M 734.5 190.5 Q 737.7 190.5, 739.4 188.4 Q 741.1 186.3, 741.1 182.1 Q 741.1 178.1, 739.4 176.1 Q 737.7 174.0, 734.5 174.0 Q 731.4 174.0, 729.7 176.0 Q 728.0 178.1, 728.0 182.1 Q 728.0 186.3, 729.7 188.4 Q 731.4 190.5, 734.5 190.5 " fill="#FF0000"/>
<path class="bond-0 atom-0 atom-1" d="M 1132.8,616.9 L 1108.5,631.1" style="fill:none;fill-rule:evenodd;stroke:#191919;stroke-width:2.0px;stroke-linecap:butt;stroke-linejoin:miter;stroke-opacity:1"/>
<path class="bond-0 atom-0 atom-1" d="M 1108.5,631.1 L 1084.3,645.4" style="fill:none;fill-rule:evenodd;stroke:#FF0000;stroke-width:2.0px;stroke-linecap:butt;stroke-linejoin:miter;stroke-opacity:1"/>
<path class="bond-1 atom-1 atom-2" d="M 1060.6,645.6 L 1034.9,631.0" style="fill:none;fill-rule:evenodd;stroke:#FF0000;stroke-width:2.0px;stroke-linecap:butt;stroke-linejoin:miter;stroke-opacity:1"/>
<path class="bond-1 atom-1 atom-2" d="M 1034.9,631.0 L 1009.2,616.4" style="fill:none;fill-rule:evenodd;stroke:#000000;stroke-width:2.0px;stroke-linecap:butt;stroke-linejoin:miter;stroke-opacity:1"/>
<path class="bond-2 atom-2 atom-3" d="M 1009.2,616.4 L 946.5,653.2" style="fill:none;fill-rule:evenodd;stroke:#000000;stroke-width:2.0px;stroke-linecap:butt;stroke-linejoin:miter;stroke-opacity:1"/>
<path class="bond-3 atom-3 atom-4" d="M 946.5,653.2 L 883.2,617.3" style="fill:none;fill-rule:evenodd;stroke:#000000;stroke-width:2.0px;stroke-linecap:butt;stroke-linejoin:miter;stroke-opacity:1"/>
<path class="bond-4 atom-4 atom-5" d="M 883.2,617.3 L 857.8,632.3" style="fill:none;fill-rule:evenodd;stroke:#000000;stroke-width:2.0px;stroke-linecap:butt;stroke-linejoin:miter;stroke-opacity:1"/>
<path class="bond-4 atom-4 atom-5" d="M 857.8,632.3 L 832.4,647.2" style="fill:none;fill-rule:evenodd;stroke:#FF0000;stroke-width:2.0px;stroke-linecap:butt;stroke-linejoin:miter;stroke-opacity:1"/>
<path class="bond-5 atom-5 atom-6" d="M 808.7,647.4 L 783.0,632.8" style="fill:none;fill-rule:evenodd;stroke:#FF0000;stroke-width:2.0px;stroke-linecap:butt;stroke-linejoin:miter;stroke-opacity:1"/>
<path class="bond-5 atom-5 atom-6" d="M 783.0,632.8 L 757.3,618.2" style="fill:none;fill-rule:evenodd;stroke:#000000;stroke-width:2.0px;stroke-linecap:butt;stroke-linejoin:miter;stroke-opacity:1"/>
<path class="bond-6 atom-6 atom-7" d="M 762.8,621.4 L 762.5,590.0" style="fill:none;fill-rule:evenodd;stroke:#000000;stroke-width:2.0px;stroke-linecap:butt;stroke-linejoin:miter;stroke-opacity:1"/>
<path class="bond-6 atom-6 atom-7" d="M 762.5,590.0 L 762.3,558.6" style="fill:none;fill-rule:evenodd;stroke:#FF0000;stroke-width:2.0px;stroke-linecap:butt;stroke-linejoin:miter;stroke-opacity:1"/>
<path class="bond-6 atom-6 atom-7" d="M 751.9,621.4 L 751.6,590.1" style="fill:none;fill-rule:evenodd;stroke:#000000;stroke-width:2.0px;stroke-linecap:butt;stroke-linejoin:miter;stroke-opacity:1"/>
<path class="bond-6 atom-6 atom-7" d="M 751.6,590.1 L 751.4,558.7" style="fill:none;fill-rule:evenodd;stroke:#FF0000;stroke-width:2.0px;stroke-linecap:butt;stroke-linejoin:miter;stroke-opacity:1"/>
<path class="bond-7 atom-6 atom-8" d="M 757.3,618.2 L 694.6,655.1" style="fill:none;fill-rule:evenodd;stroke:#000000;stroke-width:2.0px;stroke-linecap:butt;stroke-linejoin:miter;stroke-opacity:1"/>
<path class="bond-8 atom-8 atom-9" d="M 694.6,655.1 L 631.4,619.2" style="fill:none;fill-rule:evenodd;stroke:#000000;stroke-width:2.0px;stroke-linecap:butt;stroke-linejoin:miter;stroke-opacity:1"/>
<path class="bond-9 atom-9 atom-10" d="M 631.4,619.2 L 568.6,656.0" style="fill:none;fill-rule:evenodd;stroke:#000000;stroke-width:2.0px;stroke-linecap:butt;stroke-linejoin:miter;stroke-opacity:1"/>
<path class="bond-10 atom-10 atom-11" d="M 568.6,656.0 L 505.4,620.1" style="fill:none;fill-rule:evenodd;stroke:#000000;stroke-width:2.0px;stroke-linecap:butt;stroke-linejoin:miter;stroke-opacity:1"/>
<path class="bond-11 atom-11 atom-12" d="M 505.4,620.1 L 442.7,656.9" style="fill:none;fill-rule:evenodd;stroke:#000000;stroke-width:2.0px;stroke-linecap:butt;stroke-linejoin:miter;stroke-opacity:1"/>
<path class="bond-12 atom-12 atom-13" d="M 442.7,656.9 L 379.5,621.0" style="fill:none;fill-rule:evenodd;stroke:#000000;stroke-width:2.0px;stroke-linecap:butt;stroke-linejoin:miter;stroke-opacity:1"/>
<path class="bond-13 atom-13 atom-14" d="M 379.5,621.0 L 316.8,657.8" style="fill:none;fill-rule:evenodd;stroke:#000000;stroke-width:2.0px;stroke-linecap:butt;stroke-linejoin:miter;stroke-opacity:1"/>
<path class="bond-14 atom-14 atom-15" d="M 316.8,657.8 L 253.5,621.9" style="fill:none;fill-rule:evenodd;stroke:#000000;stroke-width:2.0px;stroke-linecap:butt;stroke-linejoin:miter;stroke-opacity:1"/>
<path class="bond-15 atom-15 atom-16" d="M 253.5,621.9 L 190.8,658.7" style="fill:none;fill-rule:evenodd;stroke:#000000;stroke-width:2.0px;stroke-linecap:butt;stroke-linejoin:miter;stroke-opacity:1"/>
<path class="bond-16 atom-16 atom-17" d="M 190.8,658.7 L 127.6,622.8" style="fill:none;fill-rule:evenodd;stroke:#000000;stroke-width:2.0px;stroke-linecap:butt;stroke-linejoin:miter;stroke-opacity:1"/>
<path class="bond-17 atom-17 atom-18" d="M 127.6,622.8 L 99.9,639.1" style="fill:none;fill-rule:evenodd;stroke:#000000;stroke-width:2.0px;stroke-linecap:butt;stroke-linejoin:miter;stroke-opacity:1"/>
<path class="bond-17 atom-17 atom-18" d="M 99.9,639.1 L 72.1,655.3" style="fill:none;fill-rule:evenodd;stroke:#191919;stroke-width:2.0px;stroke-linecap:butt;stroke-linejoin:miter;stroke-opacity:1"/>
<path class="bond-18 atom-17 atom-19" d="M 133.1,625.9 L 132.8,594.5" style="fill:none;fill-rule:evenodd;stroke:#000000;stroke-width:2.0px;stroke-linecap:butt;stroke-linejoin:miter;stroke-opacity:1"/>
<path class="bond-18 atom-17 atom-19" d="M 132.8,594.5 L 132.6,563.2" style="fill:none;fill-rule:evenodd;stroke:#FF0000;stroke-width:2.0px;stroke-linecap:butt;stroke-linejoin:miter;stroke-opacity:1"/>
<path class="bond-18 atom-17 atom-19" d="M 122.2,626.0 L 121.9,594.6" style="fill:none;fill-rule:evenodd;stroke:#000000;stroke-width:2.0px;stroke-linecap:butt;stroke-linejoin:miter;stroke-opacity:1"/>
<path class="bond-18 atom-17 atom-19" d="M 121.9,594.6 L 121.7,563.2" style="fill:none;fill-rule:evenodd;stroke:#FF0000;stroke-width:2.0px;stroke-linecap:butt;stroke-linejoin:miter;stroke-opacity:1"/>
<path d="M 1010.5,617.2 L 1009.2,616.4 L 1006.0,618.3" style="fill:none;stroke:#000000;stroke-width:2.0px;stroke-linecap:butt;stroke-linejoin:miter;stroke-opacity:1;"/>
<path d="M 949.6,651.4 L 946.5,653.2 L 943.3,651.4" style="fill:none;stroke:#000000;stroke-width:2.0px;stroke-linecap:butt;stroke-linejoin:miter;stroke-opacity:1;"/>
<path d="M 886.4,619.1 L 883.2,617.3 L 882.0,618.1" style="fill:none;stroke:#000000;stroke-width:2.0px;stroke-linecap:butt;stroke-linejoin:miter;stroke-opacity:1;"/>
<path d="M 758.6,619.0 L 757.3,618.2 L 754.2,620.1" style="fill:none;stroke:#000000;stroke-width:2.0px;stroke-linecap:butt;stroke-linejoin:miter;stroke-opacity:1;"/>
<path d="M 697.7,653.2 L 694.6,655.1 L 691.4,653.3" style="fill:none;stroke:#000000;stroke-width:2.0px;stroke-linecap:butt;stroke-linejoin:miter;stroke-opacity:1;"/>
<path d="M 634.5,620.9 L 631.4,619.2 L 628.2,621.0" style="fill:none;stroke:#000000;stroke-width:2.0px;stroke-linecap:butt;stroke-linejoin:miter;stroke-opacity:1;"/>
<path d="M 571.8,654.1 L 568.6,656.0 L 565.5,654.2" style="fill:none;stroke:#000000;stroke-width:2.0px;stroke-linecap:butt;stroke-linejoin:miter;stroke-opacity:1;"/>
<path d="M 508.6,621.9 L 505.4,620.1 L 502.3,621.9" style="fill:none;stroke:#000000;stroke-width:2.0px;stroke-linecap:butt;stroke-linejoin:miter;stroke-opacity:1;"/>
<path d="M 445.8,655.0 L 442.7,656.9 L 439.5,655.1" style="fill:none;stroke:#000000;stroke-width:2.0px;stroke-linecap:butt;stroke-linejoin:miter;stroke-opacity:1;"/>
<path d="M 382.6,622.8 L 379.5,621.0 L 376.3,622.8" style="fill:none;stroke:#000000;stroke-width:2.0px;stroke-linecap:butt;stroke-linejoin:miter;stroke-opacity:1;"/>
<path d="M 319.9,655.9 L 316.8,657.8 L 313.6,656.0" style="fill:none;stroke:#000000;stroke-width:2.0px;stroke-linecap:butt;stroke-linejoin:miter;stroke-opacity:1;"/>
<path d="M 256.7,623.7 L 253.5,621.9 L 250.4,623.7" style="fill:none;stroke:#000000;stroke-width:2.0px;stroke-linecap:butt;stroke-linejoin:miter;stroke-opacity:1;"/>
<path d="M 194.0,656.8 L 190.8,658.7 L 187.7,656.9" style="fill:none;stroke:#000000;stroke-width:2.0px;stroke-linecap:butt;stroke-linejoin:miter;stroke-opacity:1;"/>
<path d="M 130.7,624.6 L 127.6,622.8 L 126.2,623.6" style="fill:none;stroke:#000000;stroke-width:2.0px;stroke-linecap:butt;stroke-linejoin:miter;stroke-opacity:1;"/>
<path class="atom-0" d="M 1131.2 613.2 L 1134.3 610.1 L 1130.3 609.3 L 1130.9 607.3 L 1134.6 609.1 L 1134.0 605.1 L 1136.2 605.1 L 1135.6 609.1 L 1139.4 607.3 L 1140.0 609.3 L 1135.9 610.1 L 1138.8 613.2 L 1137.1 614.5 L 1135.1 610.6 L 1133.0 614.5 L 1131.2 613.2 " fill="#191919"/>
<path class="atom-1" d="M 1063.0 652.4 Q 1063.0 647.4, 1065.4 644.7 Q 1067.9 641.9, 1072.4 641.9 Q 1077.0 641.9, 1079.4 644.7 Q 1081.9 647.4, 1081.9 652.4 Q 1081.9 657.4, 1079.4 660.2 Q 1076.9 663.1, 1072.4 663.1 Q 1067.9 663.1, 1065.4 660.2 Q 1063.0 657.4, 1063.0 652.4 M 1072.4 660.7 Q 1075.6 660.7, 1077.2 658.6 Q 1079.0 656.5, 1079.0 652.4 Q 1079.0 648.3, 1077.2 646.3 Q 1075.6 644.2, 1072.4 644.2 Q 1069.3 644.2, 1067.6 646.3 Q 1065.9 648.3, 1065.9 652.4 Q 1065.9 656.5, 1067.6 658.6 Q 1069.3 660.7, 1072.4 660.7 " fill="#FF0000"/>
<path class="atom-5" d="M 811.1 654.2 Q 811.1 649.3, 813.5 646.5 Q 816.0 643.7, 820.5 643.7 Q 825.1 643.7, 827.5 646.5 Q 830.0 649.3, 830.0 654.2 Q 830.0 659.2, 827.5 662.1 Q 825.0 664.9, 820.5 664.9 Q 816.0 664.9, 813.5 662.1 Q 811.1 659.2, 811.1 654.2 M 820.5 662.6 Q 823.7 662.6, 825.4 660.5 Q 827.1 658.3, 827.1 654.2 Q 827.1 650.2, 825.4 648.1 Q 823.7 646.1, 820.5 646.1 Q 817.4 646.1, 815.7 648.1 Q 814.0 650.1, 814.0 654.2 Q 814.0 658.4, 815.7 660.5 Q 817.4 662.6, 820.5 662.6 " fill="#FF0000"/>
<path class="atom-7" d="M 747.3 545.6 Q 747.3 540.6, 749.8 537.9 Q 752.2 535.1, 756.8 535.1 Q 761.3 535.1, 763.8 537.9 Q 766.2 540.6, 766.2 545.6 Q 766.2 550.6, 763.8 553.4 Q 761.3 556.3, 756.8 556.3 Q 752.2 556.3, 749.8 553.4 Q 747.3 550.6, 747.3 545.6 M 756.8 553.9 Q 759.9 553.9, 761.6 551.8 Q 763.3 549.7, 763.3 545.6 Q 763.3 541.5, 761.6 539.5 Q 759.9 537.4, 756.8 537.4 Q 753.6 537.4, 751.9 539.5 Q 750.2 541.5, 750.2 545.6 Q 750.2 549.7, 751.9 551.8 Q 753.6 553.9, 756.8 553.9 " fill="#FF0000"/>
<path class="atom-18" d="M 61.0 657.3 L 64.0 654.2 L 60.0 653.4 L 60.6 651.3 L 64.3 653.2 L 63.8 649.2 L 66.0 649.1 L 65.4 653.2 L 69.1 651.4 L 69.7 653.4 L 65.7 654.2 L 68.6 657.3 L 66.8 658.5 L 64.8 654.7 L 62.8 658.5 L 61.0 657.3 " fill="#191919"/>
<path class="atom-19" d="M 117.6 550.1 Q 117.6 545.2, 120.0 542.4 Q 122.5 539.7, 127.1 539.7 Q 131.6 539.7, 134.1 542.4 Q 136.5 545.2, 136.5 550.1 Q 136.5 555.1, 134.0 558.0 Q 131.6 560.8, 127.1 560.8 Q 122.5 560.8, 120.0 558.0 Q 117.6 555.2, 117.6 550.1 M 127.1 558.5 Q 130.2 558.5, 131.9 556.4 Q 133.6 554.3, 133.6 550.1 Q 133.6 546.1, 131.9 544.1 Q 130.2 542.0, 127.1 542.0 Q 123.9 542.0, 122.2 544.0 Q 120.5 546.1, 120.5 550.1 Q 120.5 554.3, 122.2 556.4 Q 123.9 558.5, 127.1 558.5 " fill="#FF0000"/>
</svg>