<svg xmlns="http://www.w3.org/2000/svg" xmlns:rdkit="http://www.rdkit.org/xml" xmlns:xlink="http://www.w3.org/1999/xlink" version="1.1" baseProfile="full" xml:space="preserve" width="1200px" height="1600px" viewBox="0 0 1200 1600">
<!-- END OF HEADER -->
<rect style="opacity:1.0;fill:#FFFFFF;stroke:none" width="1200.0" height="1600.0" x="0.0" y="0.0"> </rect>
<path class="bond-0 atom-0 atom-1" d="M 320.9,250.1 L 344.9,262.8" style="fill:none;fill-rule:evenodd;stroke:#191919;stroke-width:2.0px;stroke-linecap:butt;stroke-linejoin:miter;stroke-opacity:1"/>
<path class="bond-0 atom-0 atom-1" d="M 344.9,262.8 L 368.9,275.4" style="fill:none;fill-rule:evenodd;stroke:#FF0000;stroke-width:2.0px;stroke-linecap:butt;stroke-linejoin:miter;stroke-opacity:1"/>
<path class="bond-1 atom-1 atom-2" d="M 391.7,274.2 L 415.5,259.2" style="fill:none;fill-rule:evenodd;stroke:#FF0000;stroke-width:2.0px;stroke-linecap:butt;stroke-linejoin:miter;stroke-opacity:1"/>
<path class="bond-1 atom-1 atom-2" d="M 415.5,259.2 L 439.4,244.1" style="fill:none;fill-rule:evenodd;stroke:#000000;stroke-width:2.0px;stroke-linecap:butt;stroke-linejoin:miter;stroke-opacity:1"/>
<path class="bond-2 atom-2 atom-3" d="M 439.4,244.1 L 438.3,215.5" style="fill:none;fill-rule:evenodd;stroke:#000000;stroke-width:2.0px;stroke-linecap:butt;stroke-linejoin:miter;stroke-opacity:1"/>
<path class="bond-2 atom-2 atom-3" d="M 438.3,215.5 L 437.2,186.9" style="fill:none;fill-rule:evenodd;stroke:#FF0000;stroke-width:2.0px;stroke-linecap:butt;stroke-linejoin:miter;stroke-opacity:1"/>
<path class="bond-3 atom-3 atom-4" d="M 448.1,167.2 L 471.9,152.1" style="fill:none;fill-rule:evenodd;stroke:#FF0000;stroke-width:2.0px;stroke-linecap:butt;stroke-linejoin:miter;stroke-opacity:1"/>
<path class="bond-3 atom-3 atom-4" d="M 471.9,152.1 L 495.8,137.1" style="fill:none;fill-rule:evenodd;stroke:#000000;stroke-width:2.0px;stroke-linecap:butt;stroke-linejoin:miter;stroke-opacity:1"/>
<path class="bond-4 atom-4 atom-5" d="M 495.8,137.1 L 493.1,67.3" style="fill:none;fill-rule:evenodd;stroke:#000000;stroke-width:2.0px;stroke-linecap:butt;stroke-linejoin:miter;stroke-opacity:1"/>
<path class="bond-5 atom-5 atom-6" d="M 493.1,67.3 L 516.9,52.2" style="fill:none;fill-rule:evenodd;stroke:#000000;stroke-width:2.0px;stroke-linecap:butt;stroke-linejoin:miter;stroke-opacity:1"/>
<path class="bond-5 atom-5 atom-6" d="M 516.9,52.2 L 540.8,37.2" style="fill:none;fill-rule:evenodd;stroke:#FF0000;stroke-width:2.0px;stroke-linecap:butt;stroke-linejoin:miter;stroke-opacity:1"/>
<path class="bond-6 atom-4 atom-7" d="M 495.8,137.1 L 557.6,169.6" style="fill:none;fill-rule:evenodd;stroke:#000000;stroke-width:2.0px;stroke-linecap:butt;stroke-linejoin:miter;stroke-opacity:1"/>
<path class="bond-7 atom-7 atom-8" d="M 557.6,169.6 L 581.5,154.6" style="fill:none;fill-rule:evenodd;stroke:#000000;stroke-width:2.0px;stroke-linecap:butt;stroke-linejoin:miter;stroke-opacity:1"/>
<path class="bond-7 atom-7 atom-8" d="M 581.5,154.6 L 605.3,139.6" style="fill:none;fill-rule:evenodd;stroke:#FF0000;stroke-width:2.0px;stroke-linecap:butt;stroke-linejoin:miter;stroke-opacity:1"/>
<path class="bond-8 atom-8 atom-9" d="M 628.1,138.4 L 653.3,151.7" style="fill:none;fill-rule:evenodd;stroke:#FF0000;stroke-width:2.0px;stroke-linecap:butt;stroke-linejoin:miter;stroke-opacity:1"/>
<path class="bond-8 atom-8 atom-9" d="M 653.3,151.7 L 678.5,164.9" style="fill:none;fill-rule:evenodd;stroke:#000000;stroke-width:2.0px;stroke-linecap:butt;stroke-linejoin:miter;stroke-opacity:1"/>
<path class="bond-9 atom-9 atom-10" d="M 678.5,164.9 L 679.6,193.7" style="fill:none;fill-rule:evenodd;stroke:#000000;stroke-width:2.0px;stroke-linecap:butt;stroke-linejoin:miter;stroke-opacity:1"/>
<path class="bond-9 atom-9 atom-10" d="M 679.6,193.7 L 680.8,222.4" style="fill:none;fill-rule:evenodd;stroke:#FF0000;stroke-width:2.0px;stroke-linecap:butt;stroke-linejoin:miter;stroke-opacity:1"/>
<path class="bond-10 atom-10 atom-11" d="M 692.6,240.8 L 717.8,254.0" style="fill:none;fill-rule:evenodd;stroke:#FF0000;stroke-width:2.0px;stroke-linecap:butt;stroke-linejoin:miter;stroke-opacity:1"/>
<path class="bond-10 atom-10 atom-11" d="M 717.8,254.0 L 743.1,267.3" style="fill:none;fill-rule:evenodd;stroke:#000000;stroke-width:2.0px;stroke-linecap:butt;stroke-linejoin:miter;stroke-opacity:1"/>
<path class="bond-11 atom-11 atom-12" d="M 743.1,267.3 L 745.8,337.1" style="fill:none;fill-rule:evenodd;stroke:#000000;stroke-width:2.0px;stroke-linecap:butt;stroke-linejoin:miter;stroke-opacity:1"/>
<path class="bond-12 atom-12 atom-13" d="M 745.8,337.1 L 771.0,350.4" style="fill:none;fill-rule:evenodd;stroke:#000000;stroke-width:2.0px;stroke-linecap:butt;stroke-linejoin:miter;stroke-opacity:1"/>
<path class="bond-12 atom-12 atom-13" d="M 771.0,350.4 L 796.2,363.7" style="fill:none;fill-rule:evenodd;stroke:#FF0000;stroke-width:2.0px;stroke-linecap:butt;stroke-linejoin:miter;stroke-opacity:1"/>
<path class="bond-13 atom-11 atom-14" d="M 743.1,267.3 L 802.2,230.1" style="fill:none;fill-rule:evenodd;stroke:#000000;stroke-width:2.0px;stroke-linecap:butt;stroke-linejoin:miter;stroke-opacity:1"/>
<path class="bond-14 atom-14 atom-15" d="M 802.2,230.1 L 829.6,244.5" style="fill:none;fill-rule:evenodd;stroke:#000000;stroke-width:2.0px;stroke-linecap:butt;stroke-linejoin:miter;stroke-opacity:1"/>
<path class="bond-14 atom-14 atom-15" d="M 829.6,244.5 L 857.0,258.9" style="fill:none;fill-rule:evenodd;stroke:#191919;stroke-width:2.0px;stroke-linecap:butt;stroke-linejoin:miter;stroke-opacity:1"/>
<path class="bond-15 atom-14 atom-16" d="M 802.2,230.1 L 799.5,160.2" style="fill:none;fill-rule:evenodd;stroke:#000000;stroke-width:2.0px;stroke-linecap:butt;stroke-linejoin:miter;stroke-opacity:1"/>
<path class="bond-16 atom-16 atom-17" d="M 799.5,160.2 L 823.3,145.2" style="fill:none;fill-rule:evenodd;stroke:#000000;stroke-width:2.0px;stroke-linecap:butt;stroke-linejoin:miter;stroke-opacity:1"/>
<path class="bond-16 atom-16 atom-17" d="M 823.3,145.2 L 847.2,130.2" style="fill:none;fill-rule:evenodd;stroke:#FF0000;stroke-width:2.0px;stroke-linecap:butt;stroke-linejoin:miter;stroke-opacity:1"/>
<path class="bond-17 atom-16 atom-18" d="M 799.5,160.2 L 737.6,127.7" style="fill:none;fill-rule:evenodd;stroke:#000000;stroke-width:2.0px;stroke-linecap:butt;stroke-linejoin:miter;stroke-opacity:1"/>
<path class="bond-18 atom-18 atom-19" d="M 737.6,127.7 L 736.5,99.1" style="fill:none;fill-rule:evenodd;stroke:#000000;stroke-width:2.0px;stroke-linecap:butt;stroke-linejoin:miter;stroke-opacity:1"/>
<path class="bond-18 atom-18 atom-19" d="M 736.5,99.1 L 735.4,70.5" style="fill:none;fill-rule:evenodd;stroke:#FF0000;stroke-width:2.0px;stroke-linecap:butt;stroke-linejoin:miter;stroke-opacity:1"/>
<path class="bond-19 atom-7 atom-20" d="M 557.6,169.6 L 560.3,239.4" style="fill:none;fill-rule:evenodd;stroke:#000000;stroke-width:2.0px;stroke-linecap:butt;stroke-linejoin:miter;stroke-opacity:1"/>
<path class="bond-20 atom-20 atom-21" d="M 560.3,239.4 L 585.5,252.7" style="fill:none;fill-rule:evenodd;stroke:#000000;stroke-width:2.0px;stroke-linecap:butt;stroke-linejoin:miter;stroke-opacity:1"/>
<path class="bond-20 atom-20 atom-21" d="M 585.5,252.7 L 610.7,266.0" style="fill:none;fill-rule:evenodd;stroke:#FF0000;stroke-width:2.0px;stroke-linecap:butt;stroke-linejoin:miter;stroke-opacity:1"/>
<path class="bond-21 atom-20 atom-22" d="M 560.3,239.4 L 501.2,276.7" style="fill:none;fill-rule:evenodd;stroke:#000000;stroke-width:2.0px;stroke-linecap:butt;stroke-linejoin:miter;stroke-opacity:1"/>
<path class="bond-22 atom-22 atom-23" d="M 501.2,276.7 L 502.3,305.5" style="fill:none;fill-rule:evenodd;stroke:#000000;stroke-width:2.0px;stroke-linecap:butt;stroke-linejoin:miter;stroke-opacity:1"/>
<path class="bond-22 atom-22 atom-23" d="M 502.3,305.5 L 503.4,334.2" style="fill:none;fill-rule:evenodd;stroke:#FF0000;stroke-width:2.0px;stroke-linecap:butt;stroke-linejoin:miter;stroke-opacity:1"/>
<path class="bond-23 atom-22 atom-2" d="M 501.2,276.7 L 439.4,244.1" style="fill:none;fill-rule:evenodd;stroke:#000000;stroke-width:2.0px;stroke-linecap:butt;stroke-linejoin:miter;stroke-opacity:1"/>
<path class="bond-24 atom-18 atom-9" d="M 737.6,127.7 L 678.5,164.9" style="fill:none;fill-rule:evenodd;stroke:#000000;stroke-width:2.0px;stroke-linecap:butt;stroke-linejoin:miter;stroke-opacity:1"/>
<path d="M 493.2,70.8 L 493.1,67.3 L 494.3,66.5" style="fill:none;stroke:#000000;stroke-width:2.0px;stroke-linecap:butt;stroke-linejoin:miter;stroke-opacity:1;"/>
<path d="M 745.6,333.6 L 745.8,337.1 L 747.0,337.8" style="fill:none;stroke:#000000;stroke-width:2.0px;stroke-linecap:butt;stroke-linejoin:miter;stroke-opacity:1;"/>
<path class="atom-0" d="M 314.7 246.6 L 317.7 243.7 L 313.8 242.9 L 314.4 240.9 L 317.9 242.7 L 317.4 238.8 L 319.5 238.8 L 318.9 242.7 L 322.5 241.0 L 323.2 242.9 L 319.2 243.6 L 322.0 246.6 L 320.3 247.8 L 318.4 244.1 L 316.5 247.8 L 314.7 246.6 " fill="#191919"/>
<path class="atom-1" d="M 371.2 281.5 Q 371.2 276.7, 373.6 274.0 Q 375.9 271.4, 380.3 271.4 Q 384.7 271.4, 387.0 274.0 Q 389.4 276.7, 389.4 281.5 Q 389.4 286.3, 387.0 289.0 Q 384.6 291.7, 380.3 291.7 Q 375.9 291.7, 373.6 289.0 Q 371.2 286.3, 371.2 281.5 M 380.3 289.5 Q 383.3 289.5, 384.9 287.5 Q 386.6 285.4, 386.6 281.5 Q 386.6 277.6, 384.9 275.6 Q 383.3 273.6, 380.3 273.6 Q 377.3 273.6, 375.6 275.6 Q 374.0 277.5, 374.0 281.5 Q 374.0 285.4, 375.6 287.5 Q 377.3 289.5, 380.3 289.5 " fill="#FF0000"/>
<path class="atom-3" d="M 427.6 174.4 Q 427.6 169.6, 430.0 167.0 Q 432.3 164.3, 436.7 164.3 Q 441.1 164.3, 443.4 167.0 Q 445.8 169.6, 445.8 174.4 Q 445.8 179.2, 443.4 181.9 Q 441.0 184.6, 436.7 184.6 Q 432.3 184.6, 430.0 181.9 Q 427.6 179.2, 427.6 174.4 M 436.7 182.4 Q 439.7 182.4, 441.3 180.4 Q 443.0 178.4, 443.0 174.4 Q 443.0 170.5, 441.3 168.5 Q 439.7 166.6, 436.7 166.6 Q 433.7 166.6, 432.0 168.5 Q 430.4 170.5, 430.4 174.4 Q 430.4 178.4, 432.0 180.4 Q 433.7 182.4, 436.7 182.4 " fill="#FF0000"/>
<path class="atom-6" d="M 543.1 30.1 Q 543.1 25.3, 545.5 22.7 Q 547.8 20.0, 552.2 20.0 Q 556.6 20.0, 558.9 22.7 Q 561.3 25.3, 561.3 30.1 Q 561.3 34.9, 558.9 37.6 Q 556.5 40.3, 552.2 40.3 Q 547.8 40.3, 545.5 37.6 Q 543.1 34.9, 543.1 30.1 M 552.2 38.1 Q 555.2 38.1, 556.8 36.1 Q 558.5 34.0, 558.5 30.1 Q 558.5 26.2, 556.8 24.2 Q 555.2 22.2, 552.2 22.2 Q 549.2 22.2, 547.5 24.2 Q 545.9 26.1, 545.9 30.1 Q 545.9 34.1, 547.5 36.1 Q 549.2 38.1, 552.2 38.1 " fill="#FF0000"/>
<path class="atom-6" d="M 564.4 20.2 L 567.0 20.2 L 567.0 28.6 L 577.2 28.6 L 577.2 20.2 L 579.8 20.2 L 579.8 40.0 L 577.2 40.0 L 577.2 30.9 L 567.0 30.9 L 567.0 40.0 L 564.4 40.0 L 564.4 20.2 " fill="#FF0000"/>
<path class="atom-8" d="M 607.6 132.4 Q 607.6 127.7, 610.0 125.0 Q 612.3 122.4, 616.7 122.4 Q 621.1 122.4, 623.5 125.0 Q 625.8 127.7, 625.8 132.4 Q 625.8 137.2, 623.4 140.0 Q 621.0 142.7, 616.7 142.7 Q 612.4 142.7, 610.0 140.0 Q 607.6 137.3, 607.6 132.4 M 616.7 140.5 Q 619.7 140.5, 621.4 138.4 Q 623.0 136.4, 623.0 132.4 Q 623.0 128.6, 621.4 126.6 Q 619.7 124.6, 616.7 124.6 Q 613.7 124.6, 612.0 126.6 Q 610.4 128.5, 610.4 132.4 Q 610.4 136.4, 612.0 138.4 Q 613.7 140.5, 616.7 140.5 " fill="#FF0000"/>
<path class="atom-10" d="M 672.2 234.8 Q 672.2 230.1, 674.5 227.4 Q 676.9 224.7, 681.2 224.7 Q 685.6 224.7, 688.0 227.4 Q 690.3 230.1, 690.3 234.8 Q 690.3 239.6, 687.9 242.4 Q 685.6 245.1, 681.2 245.1 Q 676.9 245.1, 674.5 242.4 Q 672.2 239.6, 672.2 234.8 M 681.2 242.8 Q 684.3 242.8, 685.9 240.8 Q 687.5 238.8, 687.5 234.8 Q 687.5 230.9, 685.9 229.0 Q 684.3 227.0, 681.2 227.0 Q 678.2 227.0, 676.6 228.9 Q 675.0 230.9, 675.0 234.8 Q 675.0 238.8, 676.6 240.8 Q 678.2 242.8, 681.2 242.8 " fill="#FF0000"/>
<path class="atom-13" d="M 798.5 369.7 Q 798.5 365.0, 800.9 362.3 Q 803.2 359.7, 807.6 359.7 Q 812.0 359.7, 814.3 362.3 Q 816.7 365.0, 816.7 369.7 Q 816.7 374.6, 814.3 377.3 Q 811.9 380.0, 807.6 380.0 Q 803.2 380.0, 800.9 377.3 Q 798.5 374.6, 798.5 369.7 M 807.6 377.8 Q 810.6 377.8, 812.2 375.8 Q 813.9 373.7, 813.9 369.7 Q 813.9 365.9, 812.2 363.9 Q 810.6 361.9, 807.6 361.9 Q 804.6 361.9, 802.9 363.9 Q 801.3 365.8, 801.3 369.7 Q 801.3 373.7, 802.9 375.8 Q 804.6 377.8, 807.6 377.8 " fill="#FF0000"/>
<path class="atom-13" d="M 819.7 359.9 L 822.4 359.9 L 822.4 368.3 L 832.5 368.3 L 832.5 359.9 L 835.2 359.9 L 835.2 379.7 L 832.5 379.7 L 832.5 370.6 L 822.4 370.6 L 822.4 379.7 L 819.7 379.7 L 819.7 359.9 " fill="#FF0000"/>
<path class="atom-15" d="M 860.3 260.4 L 863.2 257.4 L 859.3 256.7 L 859.9 254.7 L 863.4 256.5 L 862.9 252.6 L 865.0 252.6 L 864.4 256.4 L 868.0 254.8 L 868.7 256.7 L 864.7 257.4 L 867.5 260.4 L 865.8 261.6 L 863.9 257.9 L 862.0 261.6 L 860.3 260.4 " fill="#191919"/>
<path class="atom-17" d="M 849.5 123.0 Q 849.5 118.3, 851.8 115.6 Q 854.2 113.0, 858.6 113.0 Q 862.9 113.0, 865.3 115.6 Q 867.6 118.3, 867.6 123.0 Q 867.6 127.9, 865.3 130.6 Q 862.9 133.3, 858.6 133.3 Q 854.2 133.3, 851.8 130.6 Q 849.5 127.9, 849.5 123.0 M 858.6 131.1 Q 861.6 131.1, 863.2 129.1 Q 864.8 127.0, 864.8 123.0 Q 864.8 119.2, 863.2 117.2 Q 861.6 115.2, 858.6 115.2 Q 855.5 115.2, 853.9 117.2 Q 852.3 119.1, 852.3 123.0 Q 852.3 127.0, 853.9 129.1 Q 855.5 131.1, 858.6 131.1 " fill="#FF0000"/>
<path class="atom-17" d="M 870.7 113.2 L 873.4 113.2 L 873.4 121.6 L 883.5 121.6 L 883.5 113.2 L 886.2 113.2 L 886.2 133.0 L 883.5 133.0 L 883.5 123.9 L 873.4 123.9 L 873.4 133.0 L 870.7 133.0 L 870.7 113.2 " fill="#FF0000"/>
<path class="atom-19" d="M 725.8 57.9 Q 725.8 53.2, 728.2 50.5 Q 730.5 47.9, 734.9 47.9 Q 739.3 47.9, 741.7 50.5 Q 744.0 53.2, 744.0 57.9 Q 744.0 62.7, 741.6 65.5 Q 739.3 68.2, 734.9 68.2 Q 730.6 68.2, 728.2 65.5 Q 725.8 62.8, 725.8 57.9 M 734.9 65.9 Q 737.9 65.9, 739.6 63.9 Q 741.2 61.9, 741.2 57.9 Q 741.2 54.0, 739.6 52.1 Q 737.9 50.1, 734.9 50.1 Q 731.9 50.1, 730.3 52.1 Q 728.6 54.0, 728.6 57.9 Q 728.6 61.9, 730.3 63.9 Q 731.9 65.9, 734.9 65.9 " fill="#FF0000"/>
<path class="atom-19" d="M 747.1 48.1 L 749.8 48.1 L 749.8 56.5 L 759.9 56.5 L 759.9 48.1 L 762.6 48.1 L 762.6 67.9 L 759.9 67.9 L 759.9 58.7 L 749.8 58.7 L 749.8 67.9 L 747.1 67.9 L 747.1 48.1 " fill="#FF0000"/>
<path class="atom-21" d="M 613.1 272.1 Q 613.1 267.3, 615.4 264.7 Q 617.7 262.0, 622.1 262.0 Q 626.5 262.0, 628.9 264.7 Q 631.2 267.3, 631.2 272.1 Q 631.2 276.9, 628.8 279.6 Q 626.5 282.3, 622.1 282.3 Q 617.8 282.3, 615.4 279.6 Q 613.1 276.9, 613.1 272.1 M 622.1 280.1 Q 625.2 280.1, 626.8 278.1 Q 628.4 276.0, 628.4 272.1 Q 628.4 268.2, 626.8 266.2 Q 625.2 264.2, 622.1 264.2 Q 619.1 264.2, 617.5 266.2 Q 615.8 268.2, 615.8 272.1 Q 615.8 276.1, 617.5 278.1 Q 619.1 280.1, 622.1 280.1 " fill="#FF0000"/>
<path class="atom-21" d="M 634.3 262.2 L 637.0 262.2 L 637.0 270.6 L 647.1 270.6 L 647.1 262.2 L 649.8 262.2 L 649.8 282.0 L 647.1 282.0 L 647.1 272.9 L 637.0 272.9 L 637.0 282.0 L 634.3 282.0 L 634.3 262.2 " fill="#FF0000"/>
<path class="atom-23" d="M 494.8 346.6 Q 494.8 341.8, 497.2 339.2 Q 499.5 336.5, 503.9 336.5 Q 508.3 336.5, 510.7 339.2 Q 513.0 341.8, 513.0 346.6 Q 513.0 351.4, 510.6 354.1 Q 508.3 356.8, 503.9 356.8 Q 499.6 356.8, 497.2 354.1 Q 494.8 351.4, 494.8 346.6 M 503.9 354.6 Q 506.9 354.6, 508.6 352.6 Q 510.2 350.5, 510.2 346.6 Q 510.2 342.7, 508.6 340.7 Q 506.9 338.7, 503.9 338.7 Q 500.9 338.7, 499.3 340.7 Q 497.6 342.7, 497.6 346.6 Q 497.6 350.6, 499.3 352.6 Q 500.9 354.6, 503.9 354.6 " fill="#FF0000"/>
<path class="atom-23" d="M 516.1 336.7 L 518.8 336.7 L 518.8 345.1 L 528.9 345.1 L 528.9 336.7 L 531.6 336.7 L 531.6 356.5 L 528.9 356.5 L 528.9 347.4 L 518.8 347.4 L 518.8 356.5 L 516.1 356.5 L 516.1 336.7 " fill="#FF0000"/>
<path class="bond-0 atom-0 atom-1" d="M 238.2,536.2 L 258.3,553.4" style="fill:none;fill-rule:evenodd;stroke:#191919;stroke-width:2.0px;stroke-linecap:butt;stroke-linejoin:miter;stroke-opacity:1"/>
<path class="bond-0 atom-0 atom-1" d="M 258.3,553.4 L 278.4,570.6" style="fill:none;fill-rule:evenodd;stroke:#FF0000;stroke-width:2.0px;stroke-linecap:butt;stroke-linejoin:miter;stroke-opacity:1"/>
<path class="bond-1 atom-1 atom-2" d="M 301.2,576.3 L 328.4,566.6" style="fill:none;fill-rule:evenodd;stroke:#FF0000;stroke-width:2.0px;stroke-linecap:butt;stroke-linejoin:miter;stroke-opacity:1"/>
<path class="bond-1 atom-1 atom-2" d="M 328.4,566.6 L 355.7,557.0" style="fill:none;fill-rule:evenodd;stroke:#000000;stroke-width:2.0px;stroke-linecap:butt;stroke-linejoin:miter;stroke-opacity:1"/>
<path class="bond-2 atom-2 atom-3" d="M 355.7,557.0 L 408.8,602.4" style="fill:none;fill-rule:evenodd;stroke:#000000;stroke-width:2.0px;stroke-linecap:butt;stroke-linejoin:miter;stroke-opacity:1"/>
<path class="bond-3 atom-3 atom-4" d="M 408.8,602.4 L 474.6,579.1" style="fill:none;fill-rule:evenodd;stroke:#000000;stroke-width:2.0px;stroke-linecap:butt;stroke-linejoin:miter;stroke-opacity:1"/>
<path class="bond-4 atom-4 atom-5" d="M 474.6,579.1 L 527.8,624.4" style="fill:none;fill-rule:evenodd;stroke:#000000;stroke-width:2.0px;stroke-linecap:butt;stroke-linejoin:miter;stroke-opacity:1"/>
<path class="bond-5 atom-5 atom-6" d="M 527.8,624.4 L 555.0,614.8" style="fill:none;fill-rule:evenodd;stroke:#000000;stroke-width:2.0px;stroke-linecap:butt;stroke-linejoin:miter;stroke-opacity:1"/>
<path class="bond-5 atom-5 atom-6" d="M 555.0,614.8 L 582.2,605.1" style="fill:none;fill-rule:evenodd;stroke:#FF0000;stroke-width:2.0px;stroke-linecap:butt;stroke-linejoin:miter;stroke-opacity:1"/>
<path class="bond-6 atom-6 atom-7" d="M 605.0,610.8 L 625.9,628.7" style="fill:none;fill-rule:evenodd;stroke:#FF0000;stroke-width:2.0px;stroke-linecap:butt;stroke-linejoin:miter;stroke-opacity:1"/>
<path class="bond-6 atom-6 atom-7" d="M 625.9,628.7 L 646.8,646.5" style="fill:none;fill-rule:evenodd;stroke:#000000;stroke-width:2.0px;stroke-linecap:butt;stroke-linejoin:miter;stroke-opacity:1"/>
<path class="bond-7 atom-7 atom-8" d="M 642.2,642.6 L 636.7,672.2" style="fill:none;fill-rule:evenodd;stroke:#000000;stroke-width:2.0px;stroke-linecap:butt;stroke-linejoin:miter;stroke-opacity:1"/>
<path class="bond-7 atom-7 atom-8" d="M 636.7,672.2 L 631.2,701.9" style="fill:none;fill-rule:evenodd;stroke:#FF0000;stroke-width:2.0px;stroke-linecap:butt;stroke-linejoin:miter;stroke-opacity:1"/>
<path class="bond-7 atom-7 atom-8" d="M 652.5,644.5 L 647.0,674.1" style="fill:none;fill-rule:evenodd;stroke:#000000;stroke-width:2.0px;stroke-linecap:butt;stroke-linejoin:miter;stroke-opacity:1"/>
<path class="bond-7 atom-7 atom-8" d="M 647.0,674.1 L 641.5,703.8" style="fill:none;fill-rule:evenodd;stroke:#FF0000;stroke-width:2.0px;stroke-linecap:butt;stroke-linejoin:miter;stroke-opacity:1"/>
<path class="bond-8 atom-7 atom-9" d="M 646.8,646.5 L 712.6,623.2" style="fill:none;fill-rule:evenodd;stroke:#000000;stroke-width:2.0px;stroke-linecap:butt;stroke-linejoin:miter;stroke-opacity:1"/>
<path class="bond-9 atom-9 atom-10" d="M 712.6,623.2 L 725.4,554.5" style="fill:none;fill-rule:evenodd;stroke:#000000;stroke-width:2.0px;stroke-linecap:butt;stroke-linejoin:miter;stroke-opacity:1"/>
<path class="bond-9 atom-9 atom-10" d="M 724.0,619.1 L 734.6,562.3" style="fill:none;fill-rule:evenodd;stroke:#000000;stroke-width:2.0px;stroke-linecap:butt;stroke-linejoin:miter;stroke-opacity:1"/>
<path class="bond-10 atom-10 atom-11" d="M 725.4,554.5 L 791.2,531.1" style="fill:none;fill-rule:evenodd;stroke:#000000;stroke-width:2.0px;stroke-linecap:butt;stroke-linejoin:miter;stroke-opacity:1"/>
<path class="bond-11 atom-11 atom-12" d="M 791.2,531.1 L 844.3,576.5" style="fill:none;fill-rule:evenodd;stroke:#000000;stroke-width:2.0px;stroke-linecap:butt;stroke-linejoin:miter;stroke-opacity:1"/>
<path class="bond-11 atom-11 atom-12" d="M 789.0,543.0 L 832.9,580.6" style="fill:none;fill-rule:evenodd;stroke:#000000;stroke-width:2.0px;stroke-linecap:butt;stroke-linejoin:miter;stroke-opacity:1"/>
<path class="bond-12 atom-12 atom-13" d="M 844.3,576.5 L 910.2,553.2" style="fill:none;fill-rule:evenodd;stroke:#000000;stroke-width:2.0px;stroke-linecap:butt;stroke-linejoin:miter;stroke-opacity:1"/>
<path class="bond-13 atom-13 atom-14" d="M 910.2,553.2 L 933.3,572.9" style="fill:none;fill-rule:evenodd;stroke:#000000;stroke-width:2.0px;stroke-linecap:butt;stroke-linejoin:miter;stroke-opacity:1"/>
<path class="bond-13 atom-13 atom-14" d="M 933.3,572.9 L 956.3,592.6" style="fill:none;fill-rule:evenodd;stroke:#191919;stroke-width:2.0px;stroke-linecap:butt;stroke-linejoin:miter;stroke-opacity:1"/>
<path class="bond-14 atom-13 atom-15" d="M 914.8,557.1 L 920.3,527.6" style="fill:none;fill-rule:evenodd;stroke:#000000;stroke-width:2.0px;stroke-linecap:butt;stroke-linejoin:miter;stroke-opacity:1"/>
<path class="bond-14 atom-13 atom-15" d="M 920.3,527.6 L 925.7,498.1" style="fill:none;fill-rule:evenodd;stroke:#FF0000;stroke-width:2.0px;stroke-linecap:butt;stroke-linejoin:miter;stroke-opacity:1"/>
<path class="bond-14 atom-13 atom-15" d="M 904.5,555.2 L 910.0,525.7" style="fill:none;fill-rule:evenodd;stroke:#000000;stroke-width:2.0px;stroke-linecap:butt;stroke-linejoin:miter;stroke-opacity:1"/>
<path class="bond-14 atom-13 atom-15" d="M 910.0,525.7 L 915.4,496.2" style="fill:none;fill-rule:evenodd;stroke:#FF0000;stroke-width:2.0px;stroke-linecap:butt;stroke-linejoin:miter;stroke-opacity:1"/>
<path class="bond-15 atom-12 atom-16" d="M 844.3,576.5 L 831.6,645.2" style="fill:none;fill-rule:evenodd;stroke:#000000;stroke-width:2.0px;stroke-linecap:butt;stroke-linejoin:miter;stroke-opacity:1"/>
<path class="bond-16 atom-16 atom-17" d="M 831.6,645.2 L 765.7,668.5" style="fill:none;fill-rule:evenodd;stroke:#000000;stroke-width:2.0px;stroke-linecap:butt;stroke-linejoin:miter;stroke-opacity:1"/>
<path class="bond-16 atom-16 atom-17" d="M 822.4,637.4 L 767.9,656.6" style="fill:none;fill-rule:evenodd;stroke:#000000;stroke-width:2.0px;stroke-linecap:butt;stroke-linejoin:miter;stroke-opacity:1"/>
<path class="bond-17 atom-17 atom-9" d="M 765.7,668.5 L 712.6,623.2" style="fill:none;fill-rule:evenodd;stroke:#000000;stroke-width:2.0px;stroke-linecap:butt;stroke-linejoin:miter;stroke-opacity:1"/>
<path d="M 354.3,557.5 L 355.7,557.0 L 358.3,559.3" style="fill:none;stroke:#000000;stroke-width:2.0px;stroke-linecap:butt;stroke-linejoin:miter;stroke-opacity:1;"/>
<path d="M 406.1,600.1 L 408.8,602.4 L 412.1,601.2" style="fill:none;stroke:#000000;stroke-width:2.0px;stroke-linecap:butt;stroke-linejoin:miter;stroke-opacity:1;"/>
<path d="M 471.4,580.2 L 474.6,579.1 L 477.3,581.3" style="fill:none;stroke:#000000;stroke-width:2.0px;stroke-linecap:butt;stroke-linejoin:miter;stroke-opacity:1;"/>
<path d="M 525.1,622.2 L 527.8,624.4 L 529.1,623.9" style="fill:none;stroke:#000000;stroke-width:2.0px;stroke-linecap:butt;stroke-linejoin:miter;stroke-opacity:1;"/>
<path d="M 645.7,645.6 L 646.8,646.5 L 650.1,645.3" style="fill:none;stroke:#000000;stroke-width:2.0px;stroke-linecap:butt;stroke-linejoin:miter;stroke-opacity:1;"/>
<path d="M 724.7,557.9 L 725.4,554.5 L 728.6,553.3" style="fill:none;stroke:#000000;stroke-width:2.0px;stroke-linecap:butt;stroke-linejoin:miter;stroke-opacity:1;"/>
<path d="M 787.9,532.3 L 791.2,531.1 L 793.9,533.4" style="fill:none;stroke:#000000;stroke-width:2.0px;stroke-linecap:butt;stroke-linejoin:miter;stroke-opacity:1;"/>
<path d="M 906.9,554.4 L 910.2,553.2 L 911.4,554.2" style="fill:none;stroke:#000000;stroke-width:2.0px;stroke-linecap:butt;stroke-linejoin:miter;stroke-opacity:1;"/>
<path d="M 832.2,641.8 L 831.6,645.2 L 828.3,646.4" style="fill:none;stroke:#000000;stroke-width:2.0px;stroke-linecap:butt;stroke-linejoin:miter;stroke-opacity:1;"/>
<path d="M 769.0,667.4 L 765.7,668.5 L 763.1,666.3" style="fill:none;stroke:#000000;stroke-width:2.0px;stroke-linecap:butt;stroke-linejoin:miter;stroke-opacity:1;"/>
<path class="atom-0" d="M 232.9 532.7 L 235.9 529.8 L 232.0 529.0 L 232.6 527.0 L 236.1 528.8 L 235.6 524.9 L 237.7 524.9 L 237.1 528.8 L 240.7 527.1 L 241.4 529.0 L 237.4 529.7 L 240.2 532.7 L 238.5 533.9 L 236.6 530.2 L 234.6 533.9 L 232.9 532.7 " fill="#191919"/>
<path class="atom-1" d="M 280.7 580.4 Q 280.7 575.6, 283.1 573.0 Q 285.4 570.3, 289.8 570.3 Q 294.2 570.3, 296.5 573.0 Q 298.9 575.6, 298.9 580.4 Q 298.9 585.2, 296.5 587.9 Q 294.1 590.6, 289.8 590.6 Q 285.4 590.6, 283.1 587.9 Q 280.7 585.2, 280.7 580.4 M 289.8 588.4 Q 292.8 588.4, 294.4 586.4 Q 296.1 584.3, 296.1 580.4 Q 296.1 576.5, 294.4 574.5 Q 292.8 572.5, 289.8 572.5 Q 286.8 572.5, 285.1 574.5 Q 283.5 576.5, 283.5 580.4 Q 283.5 584.4, 285.1 586.4 Q 286.8 588.4, 289.8 588.4 " fill="#FF0000"/>
<path class="atom-6" d="M 584.5 601.2 Q 584.5 596.4, 586.9 593.8 Q 589.2 591.1, 593.6 591.1 Q 598.0 591.1, 600.4 593.8 Q 602.7 596.4, 602.7 601.2 Q 602.7 606.0, 600.3 608.7 Q 598.0 611.4, 593.6 611.4 Q 589.3 611.4, 586.9 608.7 Q 584.5 606.0, 584.5 601.2 M 593.6 609.2 Q 596.7 609.2, 598.3 607.2 Q 599.9 605.1, 599.9 601.2 Q 599.9 597.3, 598.3 595.3 Q 596.7 593.3, 593.6 593.3 Q 590.6 593.3, 589.0 595.3 Q 587.3 597.3, 587.3 601.2 Q 587.3 605.2, 589.0 607.2 Q 590.6 609.2, 593.6 609.2 " fill="#FF0000"/>
<path class="atom-8" d="M 624.9 715.2 Q 624.9 710.5, 627.3 707.8 Q 629.6 705.2, 634.0 705.2 Q 638.4 705.2, 640.8 707.8 Q 643.1 710.5, 643.1 715.2 Q 643.1 720.0, 640.7 722.8 Q 638.4 725.5, 634.0 725.5 Q 629.7 725.5, 627.3 722.8 Q 624.9 720.1, 624.9 715.2 M 634.0 723.3 Q 637.0 723.3, 638.7 721.2 Q 640.3 719.2, 640.3 715.2 Q 640.3 711.4, 638.7 709.4 Q 637.0 707.4, 634.0 707.4 Q 631.0 707.4, 629.4 709.4 Q 627.7 711.3, 627.7 715.2 Q 627.7 719.2, 629.4 721.2 Q 631.0 723.3, 634.0 723.3 " fill="#FF0000"/>
<path class="atom-14" d="M 959.6 596.4 L 962.5 593.4 L 958.6 592.6 L 959.2 590.6 L 962.8 592.4 L 962.3 588.6 L 964.4 588.5 L 963.8 592.4 L 967.4 590.7 L 968.0 592.6 L 964.1 593.4 L 966.9 596.3 L 965.2 597.6 L 963.3 593.9 L 961.3 597.6 L 959.6 596.4 " fill="#191919"/>
<path class="atom-15" d="M 913.9 484.6 Q 913.9 479.8, 916.2 477.2 Q 918.5 474.5, 922.9 474.5 Q 927.3 474.5, 929.7 477.2 Q 932.0 479.8, 932.0 484.6 Q 932.0 489.4, 929.6 492.1 Q 927.3 494.8, 922.9 494.8 Q 918.6 494.8, 916.2 492.1 Q 913.9 489.4, 913.9 484.6 M 922.9 492.6 Q 926.0 492.6, 927.6 490.6 Q 929.2 488.5, 929.2 484.6 Q 929.2 480.7, 927.6 478.7 Q 926.0 476.7, 922.9 476.7 Q 919.9 476.7, 918.3 478.7 Q 916.6 480.7, 916.6 484.6 Q 916.6 488.6, 918.3 490.6 Q 919.9 492.6, 922.9 492.6 " fill="#FF0000"/>
<path class="bond-0 atom-0 atom-1" d="M 183.6,1038.2 L 205.1,1026.5" style="fill:none;fill-rule:evenodd;stroke:#191919;stroke-width:2.0px;stroke-linecap:butt;stroke-linejoin:miter;stroke-opacity:1"/>
<path class="bond-0 atom-0 atom-1" d="M 205.1,1026.5 L 226.6,1014.8" style="fill:none;fill-rule:evenodd;stroke:#FF0000;stroke-width:2.0px;stroke-linecap:butt;stroke-linejoin:miter;stroke-opacity:1"/>
<path class="bond-1 atom-1 atom-2" d="M 249.3,1015.5 L 273.4,1030.3" style="fill:none;fill-rule:evenodd;stroke:#FF0000;stroke-width:2.0px;stroke-linecap:butt;stroke-linejoin:miter;stroke-opacity:1"/>
<path class="bond-1 atom-1 atom-2" d="M 273.4,1030.3 L 297.6,1045.0" style="fill:none;fill-rule:evenodd;stroke:#000000;stroke-width:2.0px;stroke-linecap:butt;stroke-linejoin:miter;stroke-opacity:1"/>
<path class="bond-2 atom-2 atom-3" d="M 297.6,1045.0 L 358.9,1011.6" style="fill:none;fill-rule:evenodd;stroke:#000000;stroke-width:2.0px;stroke-linecap:butt;stroke-linejoin:miter;stroke-opacity:1"/>
<path class="bond-3 atom-3 atom-4" d="M 358.9,1011.6 L 418.5,1048.0" style="fill:none;fill-rule:evenodd;stroke:#000000;stroke-width:2.0px;stroke-linecap:butt;stroke-linejoin:miter;stroke-opacity:1"/>
<path class="bond-4 atom-4 atom-5" d="M 418.5,1048.0 L 479.9,1014.6" style="fill:none;fill-rule:evenodd;stroke:#000000;stroke-width:2.0px;stroke-linecap:butt;stroke-linejoin:miter;stroke-opacity:1"/>
<path class="bond-5 atom-5 atom-6" d="M 479.9,1014.6 L 504.0,1029.4" style="fill:none;fill-rule:evenodd;stroke:#000000;stroke-width:2.0px;stroke-linecap:butt;stroke-linejoin:miter;stroke-opacity:1"/>
<path class="bond-5 atom-5 atom-6" d="M 504.0,1029.4 L 528.1,1044.1" style="fill:none;fill-rule:evenodd;stroke:#FF0000;stroke-width:2.0px;stroke-linecap:butt;stroke-linejoin:miter;stroke-opacity:1"/>
<path class="bond-6 atom-6 atom-7" d="M 550.9,1044.9 L 575.9,1031.3" style="fill:none;fill-rule:evenodd;stroke:#FF0000;stroke-width:2.0px;stroke-linecap:butt;stroke-linejoin:miter;stroke-opacity:1"/>
<path class="bond-6 atom-6 atom-7" d="M 575.9,1031.3 L 600.9,1017.7" style="fill:none;fill-rule:evenodd;stroke:#000000;stroke-width:2.0px;stroke-linecap:butt;stroke-linejoin:miter;stroke-opacity:1"/>
<path class="bond-7 atom-7 atom-8" d="M 606.0,1020.8 L 606.8,990.7" style="fill:none;fill-rule:evenodd;stroke:#000000;stroke-width:2.0px;stroke-linecap:butt;stroke-linejoin:miter;stroke-opacity:1"/>
<path class="bond-7 atom-7 atom-8" d="M 606.8,990.7 L 607.5,960.6" style="fill:none;fill-rule:evenodd;stroke:#FF0000;stroke-width:2.0px;stroke-linecap:butt;stroke-linejoin:miter;stroke-opacity:1"/>
<path class="bond-7 atom-7 atom-8" d="M 595.6,1020.6 L 596.3,990.4" style="fill:none;fill-rule:evenodd;stroke:#000000;stroke-width:2.0px;stroke-linecap:butt;stroke-linejoin:miter;stroke-opacity:1"/>
<path class="bond-7 atom-7 atom-8" d="M 596.3,990.4 L 597.1,960.3" style="fill:none;fill-rule:evenodd;stroke:#FF0000;stroke-width:2.0px;stroke-linecap:butt;stroke-linejoin:miter;stroke-opacity:1"/>
<path class="bond-8 atom-7 atom-9" d="M 600.9,1017.7 L 660.5,1054.1" style="fill:none;fill-rule:evenodd;stroke:#000000;stroke-width:2.0px;stroke-linecap:butt;stroke-linejoin:miter;stroke-opacity:1"/>
<path class="bond-9 atom-9 atom-10" d="M 660.5,1054.1 L 721.9,1020.7" style="fill:none;fill-rule:evenodd;stroke:#000000;stroke-width:2.0px;stroke-linecap:butt;stroke-linejoin:miter;stroke-opacity:1"/>
<path class="bond-10 atom-10 atom-11" d="M 721.9,1020.7 L 781.5,1057.1" style="fill:none;fill-rule:evenodd;stroke:#000000;stroke-width:2.0px;stroke-linecap:butt;stroke-linejoin:miter;stroke-opacity:1"/>
<path class="bond-11 atom-11 atom-12" d="M 781.5,1057.1 L 842.8,1023.7" style="fill:none;fill-rule:evenodd;stroke:#000000;stroke-width:2.0px;stroke-linecap:butt;stroke-linejoin:miter;stroke-opacity:1"/>
<path class="bond-12 atom-12 atom-13" d="M 842.8,1023.7 L 902.4,1060.2" style="fill:none;fill-rule:evenodd;stroke:#000000;stroke-width:2.0px;stroke-linecap:butt;stroke-linejoin:miter;stroke-opacity:1"/>
<path class="bond-13 atom-13 atom-14" d="M 902.4,1060.2 L 963.8,1026.8" style="fill:none;fill-rule:evenodd;stroke:#000000;stroke-width:2.0px;stroke-linecap:butt;stroke-linejoin:miter;stroke-opacity:1"/>
<path class="bond-14 atom-14 atom-15" d="M 963.8,1026.8 L 990.1,1042.8" style="fill:none;fill-rule:evenodd;stroke:#000000;stroke-width:2.0px;stroke-linecap:butt;stroke-linejoin:miter;stroke-opacity:1"/>
<path class="bond-14 atom-14 atom-15" d="M 990.1,1042.8 L 1016.4,1058.9" style="fill:none;fill-rule:evenodd;stroke:#191919;stroke-width:2.0px;stroke-linecap:butt;stroke-linejoin:miter;stroke-opacity:1"/>
<path class="bond-15 atom-14 atom-16" d="M 969.0,1029.9 L 969.7,999.8" style="fill:none;fill-rule:evenodd;stroke:#000000;stroke-width:2.0px;stroke-linecap:butt;stroke-linejoin:miter;stroke-opacity:1"/>
<path class="bond-15 atom-14 atom-16" d="M 969.7,999.8 L 970.5,969.7" style="fill:none;fill-rule:evenodd;stroke:#FF0000;stroke-width:2.0px;stroke-linecap:butt;stroke-linejoin:miter;stroke-opacity:1"/>
<path class="bond-15 atom-14 atom-16" d="M 958.5,1029.6 L 959.2,999.5" style="fill:none;fill-rule:evenodd;stroke:#000000;stroke-width:2.0px;stroke-linecap:butt;stroke-linejoin:miter;stroke-opacity:1"/>
<path class="bond-15 atom-14 atom-16" d="M 959.2,999.5 L 960.0,969.4" style="fill:none;fill-rule:evenodd;stroke:#FF0000;stroke-width:2.0px;stroke-linecap:butt;stroke-linejoin:miter;stroke-opacity:1"/>
<path d="M 296.4,1044.3 L 297.6,1045.0 L 300.6,1043.3" style="fill:none;stroke:#000000;stroke-width:2.0px;stroke-linecap:butt;stroke-linejoin:miter;stroke-opacity:1;"/>
<path d="M 355.9,1013.3 L 358.9,1011.6 L 361.9,1013.4" style="fill:none;stroke:#000000;stroke-width:2.0px;stroke-linecap:butt;stroke-linejoin:miter;stroke-opacity:1;"/>
<path d="M 415.6,1046.2 L 418.5,1048.0 L 421.6,1046.4" style="fill:none;stroke:#000000;stroke-width:2.0px;stroke-linecap:butt;stroke-linejoin:miter;stroke-opacity:1;"/>
<path d="M 476.8,1016.3 L 479.9,1014.6 L 481.1,1015.4" style="fill:none;stroke:#000000;stroke-width:2.0px;stroke-linecap:butt;stroke-linejoin:miter;stroke-opacity:1;"/>
<path d="M 599.6,1018.3 L 600.9,1017.7 L 603.9,1019.5" style="fill:none;stroke:#000000;stroke-width:2.0px;stroke-linecap:butt;stroke-linejoin:miter;stroke-opacity:1;"/>
<path d="M 657.5,1052.3 L 660.5,1054.1 L 663.6,1052.4" style="fill:none;stroke:#000000;stroke-width:2.0px;stroke-linecap:butt;stroke-linejoin:miter;stroke-opacity:1;"/>
<path d="M 718.8,1022.4 L 721.9,1020.7 L 724.8,1022.5" style="fill:none;stroke:#000000;stroke-width:2.0px;stroke-linecap:butt;stroke-linejoin:miter;stroke-opacity:1;"/>
<path d="M 778.5,1055.3 L 781.5,1057.1 L 784.5,1055.5" style="fill:none;stroke:#000000;stroke-width:2.0px;stroke-linecap:butt;stroke-linejoin:miter;stroke-opacity:1;"/>
<path d="M 839.8,1025.4 L 842.8,1023.7 L 845.8,1025.5" style="fill:none;stroke:#000000;stroke-width:2.0px;stroke-linecap:butt;stroke-linejoin:miter;stroke-opacity:1;"/>
<path d="M 899.5,1058.3 L 902.4,1060.2 L 905.5,1058.5" style="fill:none;stroke:#000000;stroke-width:2.0px;stroke-linecap:butt;stroke-linejoin:miter;stroke-opacity:1;"/>
<path d="M 960.7,1028.4 L 963.8,1026.8 L 965.1,1027.6" style="fill:none;stroke:#000000;stroke-width:2.0px;stroke-linecap:butt;stroke-linejoin:miter;stroke-opacity:1;"/>
<path class="atom-0" d="M 172.9 1039.8 L 175.8 1036.8 L 171.9 1036.0 L 172.5 1034.0 L 176.0 1035.8 L 175.5 1031.9 L 177.6 1031.9 L 177.0 1035.8 L 180.7 1034.1 L 181.3 1036.0 L 177.4 1036.8 L 180.1 1039.7 L 178.4 1041.0 L 176.5 1037.3 L 174.6 1041.0 L 172.9 1039.8 " fill="#191919"/>
<path class="atom-1" d="M 228.9 1008.6 Q 228.9 1003.9, 231.2 1001.2 Q 233.6 998.6, 237.9 998.6 Q 242.3 998.6, 244.7 1001.2 Q 247.0 1003.9, 247.0 1008.6 Q 247.0 1013.4, 244.7 1016.2 Q 242.3 1018.9, 237.9 1018.9 Q 233.6 1018.9, 231.2 1016.2 Q 228.9 1013.5, 228.9 1008.6 M 237.9 1016.6 Q 241.0 1016.6, 242.6 1014.6 Q 244.2 1012.6, 244.2 1008.6 Q 244.2 1004.7, 242.6 1002.8 Q 241.0 1000.8, 237.9 1000.8 Q 234.9 1000.8, 233.3 1002.8 Q 231.7 1004.7, 231.7 1008.6 Q 231.7 1012.6, 233.3 1014.6 Q 234.9 1016.6, 237.9 1016.6 " fill="#FF0000"/>
<path class="atom-6" d="M 530.4 1051.1 Q 530.4 1046.4, 532.8 1043.7 Q 535.1 1041.1, 539.5 1041.1 Q 543.9 1041.1, 546.2 1043.7 Q 548.6 1046.4, 548.6 1051.1 Q 548.6 1055.9, 546.2 1058.7 Q 543.8 1061.4, 539.5 1061.4 Q 535.2 1061.4, 532.8 1058.7 Q 530.4 1056.0, 530.4 1051.1 M 539.5 1059.1 Q 542.5 1059.1, 544.2 1057.1 Q 545.8 1055.1, 545.8 1051.1 Q 545.8 1047.2, 544.2 1045.3 Q 542.5 1043.3, 539.5 1043.3 Q 536.5 1043.3, 534.8 1045.3 Q 533.2 1047.2, 533.2 1051.1 Q 533.2 1055.1, 534.8 1057.1 Q 536.5 1059.1, 539.5 1059.1 " fill="#FF0000"/>
<path class="atom-8" d="M 593.5 947.9 Q 593.5 943.1, 595.9 940.5 Q 598.2 937.8, 602.6 937.8 Q 607.0 937.8, 609.4 940.5 Q 611.7 943.1, 611.7 947.9 Q 611.7 952.7, 609.3 955.4 Q 607.0 958.1, 602.6 958.1 Q 598.3 958.1, 595.9 955.4 Q 593.5 952.7, 593.5 947.9 M 602.6 955.9 Q 605.6 955.9, 607.3 953.9 Q 608.9 951.8, 608.9 947.9 Q 608.9 944.0, 607.3 942.0 Q 605.6 940.0, 602.6 940.0 Q 599.6 940.0, 598.0 942.0 Q 596.3 944.0, 596.3 947.9 Q 596.3 951.9, 598.0 953.9 Q 599.6 955.9, 602.6 955.9 " fill="#FF0000"/>
<path class="atom-15" d="M 1019.7 1061.0 L 1022.6 1058.0 L 1018.7 1057.2 L 1019.3 1055.3 L 1022.9 1057.0 L 1022.4 1053.2 L 1024.5 1053.1 L 1023.9 1057.0 L 1027.5 1055.3 L 1028.1 1057.2 L 1024.2 1058.0 L 1027.0 1061.0 L 1025.3 1062.2 L 1023.3 1058.5 L 1021.4 1062.2 L 1019.7 1061.0 " fill="#191919"/>
<path class="atom-16" d="M 956.5 957.0 Q 956.5 952.2, 958.8 949.6 Q 961.2 946.9, 965.6 946.9 Q 969.9 946.9, 972.3 949.6 Q 974.6 952.2, 974.6 957.0 Q 974.6 961.8, 972.3 964.5 Q 969.9 967.2, 965.6 967.2 Q 961.2 967.2, 958.8 964.5 Q 956.5 961.8, 956.5 957.0 M 965.6 965.0 Q 968.6 965.0, 970.2 963.0 Q 971.8 960.9, 971.8 957.0 Q 971.8 953.1, 970.2 951.1 Q 968.6 949.1, 965.6 949.1 Q 962.5 949.1, 960.9 951.1 Q 959.3 953.1, 959.3 957.0 Q 959.3 961.0, 960.9 963.0 Q 962.5 965.0, 965.6 965.0 " fill="#FF0000"/>
<path class="bond-0 atom-0 atom-1" d="M 839.8,1402.3 L 811.3,1420.3" style="fill:none;fill-rule:evenodd;stroke:#191919;stroke-width:2.0px;stroke-linecap:butt;stroke-linejoin:miter;stroke-opacity:1"/>
<path class="bond-0 atom-0 atom-1" d="M 811.3,1420.3 L 782.8,1438.4" style="fill:none;fill-rule:evenodd;stroke:#000000;stroke-width:2.0px;stroke-linecap:butt;stroke-linejoin:miter;stroke-opacity:1"/>
<path class="bond-1 atom-1 atom-2" d="M 782.8,1438.4 L 720.9,1406.0" style="fill:none;fill-rule:evenodd;stroke:#000000;stroke-width:2.0px;stroke-linecap:butt;stroke-linejoin:miter;stroke-opacity:1"/>
<path class="bond-2 atom-2 atom-3" d="M 720.9,1406.0 L 661.9,1443.4" style="fill:none;fill-rule:evenodd;stroke:#000000;stroke-width:2.0px;stroke-linecap:butt;stroke-linejoin:miter;stroke-opacity:1"/>
<path class="bond-3 atom-3 atom-4" d="M 661.9,1443.4 L 600.0,1411.0" style="fill:none;fill-rule:evenodd;stroke:#000000;stroke-width:2.0px;stroke-linecap:butt;stroke-linejoin:miter;stroke-opacity:1"/>
<path class="bond-4 atom-4 atom-5" d="M 600.0,1411.0 L 541.0,1448.4" style="fill:none;fill-rule:evenodd;stroke:#000000;stroke-width:2.0px;stroke-linecap:butt;stroke-linejoin:miter;stroke-opacity:1"/>
<path class="bond-5 atom-5 atom-6" d="M 541.0,1448.4 L 479.1,1416.0" style="fill:none;fill-rule:evenodd;stroke:#000000;stroke-width:2.0px;stroke-linecap:butt;stroke-linejoin:miter;stroke-opacity:1"/>
<path class="bond-6 atom-6 atom-7" d="M 484.5,1418.8 L 483.2,1388.7" style="fill:none;fill-rule:evenodd;stroke:#000000;stroke-width:2.0px;stroke-linecap:butt;stroke-linejoin:miter;stroke-opacity:1"/>
<path class="bond-6 atom-6 atom-7" d="M 483.2,1388.7 L 482.0,1358.6" style="fill:none;fill-rule:evenodd;stroke:#FF0000;stroke-width:2.0px;stroke-linecap:butt;stroke-linejoin:miter;stroke-opacity:1"/>
<path class="bond-6 atom-6 atom-7" d="M 474.0,1419.3 L 472.7,1389.2" style="fill:none;fill-rule:evenodd;stroke:#000000;stroke-width:2.0px;stroke-linecap:butt;stroke-linejoin:miter;stroke-opacity:1"/>
<path class="bond-6 atom-6 atom-7" d="M 472.7,1389.2 L 471.5,1359.1" style="fill:none;fill-rule:evenodd;stroke:#FF0000;stroke-width:2.0px;stroke-linecap:butt;stroke-linejoin:miter;stroke-opacity:1"/>
<path class="bond-7 atom-6 atom-8" d="M 479.1,1416.0 L 455.3,1431.1" style="fill:none;fill-rule:evenodd;stroke:#000000;stroke-width:2.0px;stroke-linecap:butt;stroke-linejoin:miter;stroke-opacity:1"/>
<path class="bond-7 atom-6 atom-8" d="M 455.3,1431.1 L 431.5,1446.2" style="fill:none;fill-rule:evenodd;stroke:#FF0000;stroke-width:2.0px;stroke-linecap:butt;stroke-linejoin:miter;stroke-opacity:1"/>
<path class="bond-8 atom-8 atom-9" d="M 408.7,1447.5 L 384.7,1434.9" style="fill:none;fill-rule:evenodd;stroke:#FF0000;stroke-width:2.0px;stroke-linecap:butt;stroke-linejoin:miter;stroke-opacity:1"/>
<path class="bond-8 atom-8 atom-9" d="M 384.7,1434.9 L 360.7,1422.4" style="fill:none;fill-rule:evenodd;stroke:#191919;stroke-width:2.0px;stroke-linecap:butt;stroke-linejoin:miter;stroke-opacity:1"/>
<path d="M 784.2,1437.5 L 782.8,1438.4 L 779.7,1436.8" style="fill:none;stroke:#000000;stroke-width:2.0px;stroke-linecap:butt;stroke-linejoin:miter;stroke-opacity:1;"/>
<path d="M 724.0,1407.6 L 720.9,1406.0 L 718.0,1407.9" style="fill:none;stroke:#000000;stroke-width:2.0px;stroke-linecap:butt;stroke-linejoin:miter;stroke-opacity:1;"/>
<path d="M 664.9,1441.5 L 661.9,1443.4 L 658.8,1441.8" style="fill:none;stroke:#000000;stroke-width:2.0px;stroke-linecap:butt;stroke-linejoin:miter;stroke-opacity:1;"/>
<path d="M 603.1,1412.6 L 600.0,1411.0 L 597.0,1412.9" style="fill:none;stroke:#000000;stroke-width:2.0px;stroke-linecap:butt;stroke-linejoin:miter;stroke-opacity:1;"/>
<path d="M 543.9,1446.6 L 541.0,1448.4 L 537.9,1446.8" style="fill:none;stroke:#000000;stroke-width:2.0px;stroke-linecap:butt;stroke-linejoin:miter;stroke-opacity:1;"/>
<path d="M 482.2,1417.7 L 479.1,1416.0 L 477.9,1416.8" style="fill:none;stroke:#000000;stroke-width:2.0px;stroke-linecap:butt;stroke-linejoin:miter;stroke-opacity:1;"/>
<path class="atom-0" d="M 838.1 1398.8 L 841.0 1395.8 L 837.1 1395.0 L 837.7 1393.0 L 841.3 1394.8 L 840.8 1390.9 L 842.9 1390.9 L 842.3 1394.8 L 845.9 1393.1 L 846.5 1395.0 L 842.6 1395.8 L 845.4 1398.7 L 843.7 1400.0 L 841.7 1396.3 L 839.8 1400.0 L 838.1 1398.8 " fill="#191919"/>
<path class="atom-7" d="M 467.1 1346.3 Q 467.1 1341.5, 469.5 1338.9 Q 471.8 1336.2, 476.2 1336.2 Q 480.6 1336.2, 482.9 1338.9 Q 485.3 1341.5, 485.3 1346.3 Q 485.3 1351.1, 482.9 1353.8 Q 480.5 1356.5, 476.2 1356.5 Q 471.8 1356.5, 469.5 1353.8 Q 467.1 1351.1, 467.1 1346.3 M 476.2 1354.3 Q 479.2 1354.3, 480.8 1352.3 Q 482.5 1350.3, 482.5 1346.3 Q 482.5 1342.4, 480.8 1340.5 Q 479.2 1338.5, 476.2 1338.5 Q 473.2 1338.5, 471.5 1340.4 Q 469.9 1342.4, 469.9 1346.3 Q 469.9 1350.3, 471.5 1352.3 Q 473.2 1354.3, 476.2 1354.3 " fill="#FF0000"/>
<path class="atom-8" d="M 411.0 1453.5 Q 411.0 1448.8, 413.4 1446.1 Q 415.7 1443.5, 420.1 1443.5 Q 424.5 1443.5, 426.8 1446.1 Q 429.2 1448.8, 429.2 1453.5 Q 429.2 1458.3, 426.8 1461.1 Q 424.4 1463.8, 420.1 1463.8 Q 415.7 1463.8, 413.4 1461.1 Q 411.0 1458.3, 411.0 1453.5 M 420.1 1461.5 Q 423.1 1461.5, 424.7 1459.5 Q 426.4 1457.5, 426.4 1453.5 Q 426.4 1449.6, 424.7 1447.7 Q 423.1 1445.7, 420.1 1445.7 Q 417.1 1445.7, 415.4 1447.6 Q 413.8 1449.6, 413.8 1453.5 Q 413.8 1457.5, 415.4 1459.5 Q 417.1 1461.5, 420.1 1461.5 " fill="#FF0000"/>
<path class="atom-9" d="M 354.5 1418.9 L 357.4 1415.9 L 353.5 1415.1 L 354.1 1413.1 L 357.6 1414.9 L 357.1 1411.0 L 359.2 1411.0 L 358.6 1414.9 L 362.2 1413.2 L 362.9 1415.1 L 359.0 1415.8 L 361.7 1418.8 L 360.0 1420.1 L 358.1 1416.4 L 356.2 1420.1 L 354.5 1418.9 " fill="#191919"/>
</svg>