<svg xmlns="http://www.w3.org/2000/svg" xmlns:rdkit="http://www.rdkit.org/xml" xmlns:xlink="http://www.w3.org/1999/xlink" version="1.1" baseProfile="full" xml:space="preserve" width="1200px" height="800px" viewBox="0 0 1200 800">
<!-- END OF HEADER -->
<rect style="opacity:1.0;fill:#FFFFFF;stroke:none" width="1200.0" height="800.0" x="0.0" y="0.0"> </rect>
<path class="bond-0 atom-0 atom-1" d="M 343.0,30.0 L 339.5,54.4" style="fill:none;fill-rule:evenodd;stroke:#191919;stroke-width:2.0px;stroke-linecap:butt;stroke-linejoin:miter;stroke-opacity:1"/>
<path class="bond-0 atom-0 atom-1" d="M 339.5,54.4 L 336.0,78.9" style="fill:none;fill-rule:evenodd;stroke:#FF0000;stroke-width:2.0px;stroke-linecap:butt;stroke-linejoin:miter;stroke-opacity:1"/>
<path class="bond-1 atom-1 atom-2" d="M 344.5,97.5 L 363.7,112.6" style="fill:none;fill-rule:evenodd;stroke:#FF0000;stroke-width:2.0px;stroke-linecap:butt;stroke-linejoin:miter;stroke-opacity:1"/>
<path class="bond-1 atom-1 atom-2" d="M 363.7,112.6 L 386.9,130.7" style="fill:none;fill-rule:evenodd;stroke:#000000;stroke-width:2.0px;stroke-linecap:butt;stroke-linejoin:miter;stroke-opacity:1"/>
<path class="bond-2 atom-3 atom-2" d="M 374.2,188.4 L 378.5,124.2 L 386.9,130.7 Z" style="fill:#000000;fill-rule:evenodd;fill-opacity:1;stroke:#000000;stroke-width:0.5px;stroke-linecap:butt;stroke-linejoin:miter;stroke-opacity:1;"/>
<path class="bond-3 atom-3 atom-4" d="M 374.2,188.4 L 393.4,203.5" style="fill:none;fill-rule:evenodd;stroke:#000000;stroke-width:2.0px;stroke-linecap:butt;stroke-linejoin:miter;stroke-opacity:1"/>
<path class="bond-3 atom-3 atom-4" d="M 393.4,203.5 L 412.5,218.5" style="fill:none;fill-rule:evenodd;stroke:#FF0000;stroke-width:2.0px;stroke-linecap:butt;stroke-linejoin:miter;stroke-opacity:1"/>
<path class="bond-4 atom-4 atom-5" d="M 421.0,237.4 L 417.4,262.3" style="fill:none;fill-rule:evenodd;stroke:#FF0000;stroke-width:2.0px;stroke-linecap:butt;stroke-linejoin:miter;stroke-opacity:1"/>
<path class="bond-4 atom-4 atom-5" d="M 417.4,262.3 L 413.9,287.2" style="fill:none;fill-rule:evenodd;stroke:#000000;stroke-width:2.0px;stroke-linecap:butt;stroke-linejoin:miter;stroke-opacity:1"/>
<path class="bond-5 atom-5 atom-6" d="M 413.9,287.2 L 433.5,299.6 L 430.6,303.2 Z" style="fill:#000000;fill-rule:evenodd;fill-opacity:1;stroke:#000000;stroke-width:0.5px;stroke-linecap:butt;stroke-linejoin:miter;stroke-opacity:1;"/>
<path class="bond-5 atom-5 atom-6" d="M 433.5,299.6 L 447.3,319.3 L 453.0,312.0 Z" style="fill:#FF0000;fill-rule:evenodd;fill-opacity:1;stroke:#FF0000;stroke-width:0.5px;stroke-linecap:butt;stroke-linejoin:miter;stroke-opacity:1;"/>
<path class="bond-5 atom-5 atom-6" d="M 433.5,299.6 L 430.6,303.2 L 447.3,319.3 Z" style="fill:#FF0000;fill-rule:evenodd;fill-opacity:1;stroke:#FF0000;stroke-width:0.5px;stroke-linecap:butt;stroke-linejoin:miter;stroke-opacity:1;"/>
<path class="bond-6 atom-6 atom-7" d="M 472.2,321.1 L 495.7,311.6" style="fill:none;fill-rule:evenodd;stroke:#FF0000;stroke-width:2.0px;stroke-linecap:butt;stroke-linejoin:miter;stroke-opacity:1"/>
<path class="bond-6 atom-6 atom-7" d="M 495.7,311.6 L 519.2,302.2" style="fill:none;fill-rule:evenodd;stroke:#000000;stroke-width:2.0px;stroke-linecap:butt;stroke-linejoin:miter;stroke-opacity:1"/>
<path class="bond-7 atom-7 atom-8" d="M 519.2,302.2 L 567.6,340.1" style="fill:none;fill-rule:evenodd;stroke:#000000;stroke-width:2.0px;stroke-linecap:butt;stroke-linejoin:miter;stroke-opacity:1"/>
<path class="bond-7 atom-7 atom-8" d="M 529.1,298.2 L 569.1,329.6" style="fill:none;fill-rule:evenodd;stroke:#000000;stroke-width:2.0px;stroke-linecap:butt;stroke-linejoin:miter;stroke-opacity:1"/>
<path class="bond-8 atom-8 atom-9" d="M 567.6,340.1 L 624.6,317.2" style="fill:none;fill-rule:evenodd;stroke:#000000;stroke-width:2.0px;stroke-linecap:butt;stroke-linejoin:miter;stroke-opacity:1"/>
<path class="bond-9 atom-9 atom-10" d="M 624.6,317.2 L 633.3,256.4" style="fill:none;fill-rule:evenodd;stroke:#000000;stroke-width:2.0px;stroke-linecap:butt;stroke-linejoin:miter;stroke-opacity:1"/>
<path class="bond-9 atom-9 atom-10" d="M 616.2,310.6 L 623.4,260.3" style="fill:none;fill-rule:evenodd;stroke:#000000;stroke-width:2.0px;stroke-linecap:butt;stroke-linejoin:miter;stroke-opacity:1"/>
<path class="bond-10 atom-10 atom-11" d="M 633.3,256.4 L 690.3,233.4" style="fill:none;fill-rule:evenodd;stroke:#000000;stroke-width:2.0px;stroke-linecap:butt;stroke-linejoin:miter;stroke-opacity:1"/>
<path class="bond-11 atom-11 atom-12" d="M 690.3,233.4 L 709.5,248.5" style="fill:none;fill-rule:evenodd;stroke:#000000;stroke-width:2.0px;stroke-linecap:butt;stroke-linejoin:miter;stroke-opacity:1"/>
<path class="bond-11 atom-11 atom-12" d="M 709.5,248.5 L 728.6,263.5" style="fill:none;fill-rule:evenodd;stroke:#FF0000;stroke-width:2.0px;stroke-linecap:butt;stroke-linejoin:miter;stroke-opacity:1"/>
<path class="bond-12 atom-12 atom-13" d="M 748.6,267.3 L 772.1,257.9" style="fill:none;fill-rule:evenodd;stroke:#FF0000;stroke-width:2.0px;stroke-linecap:butt;stroke-linejoin:miter;stroke-opacity:1"/>
<path class="bond-12 atom-12 atom-13" d="M 772.1,257.9 L 795.6,248.5" style="fill:none;fill-rule:evenodd;stroke:#000000;stroke-width:2.0px;stroke-linecap:butt;stroke-linejoin:miter;stroke-opacity:1"/>
<path class="bond-13 atom-13 atom-14" d="M 795.6,248.5 L 844.0,286.4" style="fill:none;fill-rule:evenodd;stroke:#000000;stroke-width:2.0px;stroke-linecap:butt;stroke-linejoin:miter;stroke-opacity:1"/>
<path class="bond-13 atom-13 atom-14" d="M 805.5,244.5 L 845.5,275.8" style="fill:none;fill-rule:evenodd;stroke:#000000;stroke-width:2.0px;stroke-linecap:butt;stroke-linejoin:miter;stroke-opacity:1"/>
<path class="bond-14 atom-14 atom-15" d="M 844.0,286.4 L 901.0,263.5" style="fill:none;fill-rule:evenodd;stroke:#000000;stroke-width:2.0px;stroke-linecap:butt;stroke-linejoin:miter;stroke-opacity:1"/>
<path class="bond-15 atom-15 atom-16" d="M 901.0,263.5 L 920.2,278.5" style="fill:none;fill-rule:evenodd;stroke:#000000;stroke-width:2.0px;stroke-linecap:butt;stroke-linejoin:miter;stroke-opacity:1"/>
<path class="bond-15 atom-15 atom-16" d="M 920.2,278.5 L 939.3,293.5" style="fill:none;fill-rule:evenodd;stroke:#FF0000;stroke-width:2.0px;stroke-linecap:butt;stroke-linejoin:miter;stroke-opacity:1"/>
<path class="bond-16 atom-15 atom-17" d="M 901.0,263.5 L 909.7,202.6" style="fill:none;fill-rule:evenodd;stroke:#000000;stroke-width:2.0px;stroke-linecap:butt;stroke-linejoin:miter;stroke-opacity:1"/>
<path class="bond-16 atom-15 atom-17" d="M 892.6,256.9 L 899.8,206.6" style="fill:none;fill-rule:evenodd;stroke:#000000;stroke-width:2.0px;stroke-linecap:butt;stroke-linejoin:miter;stroke-opacity:1"/>
<path class="bond-17 atom-17 atom-18" d="M 909.7,202.6 L 861.3,164.7" style="fill:none;fill-rule:evenodd;stroke:#000000;stroke-width:2.0px;stroke-linecap:butt;stroke-linejoin:miter;stroke-opacity:1"/>
<path class="bond-18 atom-18 atom-19" d="M 861.3,164.7 L 864.9,139.8" style="fill:none;fill-rule:evenodd;stroke:#000000;stroke-width:2.0px;stroke-linecap:butt;stroke-linejoin:miter;stroke-opacity:1"/>
<path class="bond-18 atom-18 atom-19" d="M 864.9,139.8 L 868.4,115.0" style="fill:none;fill-rule:evenodd;stroke:#FF0000;stroke-width:2.0px;stroke-linecap:butt;stroke-linejoin:miter;stroke-opacity:1"/>
<path class="bond-19 atom-18 atom-20" d="M 861.3,164.7 L 804.3,187.6" style="fill:none;fill-rule:evenodd;stroke:#000000;stroke-width:2.0px;stroke-linecap:butt;stroke-linejoin:miter;stroke-opacity:1"/>
<path class="bond-19 atom-18 atom-20" d="M 859.8,175.2 L 812.7,194.2" style="fill:none;fill-rule:evenodd;stroke:#000000;stroke-width:2.0px;stroke-linecap:butt;stroke-linejoin:miter;stroke-opacity:1"/>
<path class="bond-20 atom-20 atom-21" d="M 804.3,187.6 L 756.0,149.7" style="fill:none;fill-rule:evenodd;stroke:#000000;stroke-width:2.0px;stroke-linecap:butt;stroke-linejoin:miter;stroke-opacity:1"/>
<path class="bond-21 atom-21 atom-22" d="M 760.1,153.0 L 763.9,126.8" style="fill:none;fill-rule:evenodd;stroke:#000000;stroke-width:2.0px;stroke-linecap:butt;stroke-linejoin:miter;stroke-opacity:1"/>
<path class="bond-21 atom-21 atom-22" d="M 763.9,126.8 L 767.6,100.6" style="fill:none;fill-rule:evenodd;stroke:#FF0000;stroke-width:2.0px;stroke-linecap:butt;stroke-linejoin:miter;stroke-opacity:1"/>
<path class="bond-21 atom-21 atom-22" d="M 751.0,151.7 L 754.8,125.5" style="fill:none;fill-rule:evenodd;stroke:#000000;stroke-width:2.0px;stroke-linecap:butt;stroke-linejoin:miter;stroke-opacity:1"/>
<path class="bond-21 atom-21 atom-22" d="M 754.8,125.5 L 758.5,99.3" style="fill:none;fill-rule:evenodd;stroke:#FF0000;stroke-width:2.0px;stroke-linecap:butt;stroke-linejoin:miter;stroke-opacity:1"/>
<path class="bond-22 atom-21 atom-23" d="M 756.0,149.7 L 698.9,172.6" style="fill:none;fill-rule:evenodd;stroke:#000000;stroke-width:2.0px;stroke-linecap:butt;stroke-linejoin:miter;stroke-opacity:1"/>
<path class="bond-23 atom-23 atom-24" d="M 698.9,172.6 L 679.8,157.6" style="fill:none;fill-rule:evenodd;stroke:#000000;stroke-width:2.0px;stroke-linecap:butt;stroke-linejoin:miter;stroke-opacity:1"/>
<path class="bond-23 atom-23 atom-24" d="M 679.8,157.6 L 660.6,142.6" style="fill:none;fill-rule:evenodd;stroke:#FF0000;stroke-width:2.0px;stroke-linecap:butt;stroke-linejoin:miter;stroke-opacity:1"/>
<path class="bond-24 atom-10 atom-25" d="M 633.3,256.4 L 584.9,218.4" style="fill:none;fill-rule:evenodd;stroke:#000000;stroke-width:2.0px;stroke-linecap:butt;stroke-linejoin:miter;stroke-opacity:1"/>
<path class="bond-25 atom-25 atom-26" d="M 584.9,218.4 L 527.9,241.4" style="fill:none;fill-rule:evenodd;stroke:#000000;stroke-width:2.0px;stroke-linecap:butt;stroke-linejoin:miter;stroke-opacity:1"/>
<path class="bond-25 atom-25 atom-26" d="M 583.4,229.0 L 536.3,247.9" style="fill:none;fill-rule:evenodd;stroke:#000000;stroke-width:2.0px;stroke-linecap:butt;stroke-linejoin:miter;stroke-opacity:1"/>
<path class="bond-26 atom-26 atom-27" d="M 527.9,241.4 L 508.7,226.3" style="fill:none;fill-rule:evenodd;stroke:#000000;stroke-width:2.0px;stroke-linecap:butt;stroke-linejoin:miter;stroke-opacity:1"/>
<path class="bond-26 atom-26 atom-27" d="M 508.7,226.3 L 489.6,211.3" style="fill:none;fill-rule:evenodd;stroke:#FF0000;stroke-width:2.0px;stroke-linecap:butt;stroke-linejoin:miter;stroke-opacity:1"/>
<path class="bond-27 atom-5 atom-28" d="M 413.9,287.2 L 356.9,310.1" style="fill:none;fill-rule:evenodd;stroke:#000000;stroke-width:2.0px;stroke-linecap:butt;stroke-linejoin:miter;stroke-opacity:1"/>
<path class="bond-28 atom-28 atom-29" d="M 356.7,313.6 L 356.0,313.5" style="fill:none;fill-rule:evenodd;stroke:#000000;stroke-width:1.0px;stroke-linecap:butt;stroke-linejoin:miter;stroke-opacity:1"/>
<path class="bond-28 atom-28 atom-29" d="M 356.5,317.0 L 355.2,316.9" style="fill:none;fill-rule:evenodd;stroke:#000000;stroke-width:1.0px;stroke-linecap:butt;stroke-linejoin:miter;stroke-opacity:1"/>
<path class="bond-28 atom-28 atom-29" d="M 356.4,320.5 L 354.4,320.2" style="fill:none;fill-rule:evenodd;stroke:#000000;stroke-width:1.0px;stroke-linecap:butt;stroke-linejoin:miter;stroke-opacity:1"/>
<path class="bond-28 atom-28 atom-29" d="M 356.2,324.0 L 353.6,323.6" style="fill:none;fill-rule:evenodd;stroke:#000000;stroke-width:1.0px;stroke-linecap:butt;stroke-linejoin:miter;stroke-opacity:1"/>
<path class="bond-28 atom-28 atom-29" d="M 356.1,327.5 L 352.8,327.0" style="fill:none;fill-rule:evenodd;stroke:#000000;stroke-width:1.0px;stroke-linecap:butt;stroke-linejoin:miter;stroke-opacity:1"/>
<path class="bond-28 atom-28 atom-29" d="M 355.9,330.9 L 352.0,330.4" style="fill:none;fill-rule:evenodd;stroke:#000000;stroke-width:1.0px;stroke-linecap:butt;stroke-linejoin:miter;stroke-opacity:1"/>
<path class="bond-28 atom-28 atom-29" d="M 355.7,334.4 L 351.2,333.8" style="fill:none;fill-rule:evenodd;stroke:#000000;stroke-width:1.0px;stroke-linecap:butt;stroke-linejoin:miter;stroke-opacity:1"/>
<path class="bond-28 atom-28 atom-29" d="M 355.6,337.9 L 350.3,337.1" style="fill:none;fill-rule:evenodd;stroke:#FF0000;stroke-width:1.0px;stroke-linecap:butt;stroke-linejoin:miter;stroke-opacity:1"/>
<path class="bond-28 atom-28 atom-29" d="M 355.4,341.4 L 349.5,340.5" style="fill:none;fill-rule:evenodd;stroke:#FF0000;stroke-width:1.0px;stroke-linecap:butt;stroke-linejoin:miter;stroke-opacity:1"/>
<path class="bond-28 atom-28 atom-29" d="M 355.2,344.8 L 348.7,343.9" style="fill:none;fill-rule:evenodd;stroke:#FF0000;stroke-width:1.0px;stroke-linecap:butt;stroke-linejoin:miter;stroke-opacity:1"/>
<path class="bond-28 atom-28 atom-29" d="M 355.1,348.3 L 347.9,347.3" style="fill:none;fill-rule:evenodd;stroke:#FF0000;stroke-width:1.0px;stroke-linecap:butt;stroke-linejoin:miter;stroke-opacity:1"/>
<path class="bond-28 atom-28 atom-29" d="M 354.9,351.8 L 347.1,350.7" style="fill:none;fill-rule:evenodd;stroke:#FF0000;stroke-width:1.0px;stroke-linecap:butt;stroke-linejoin:miter;stroke-opacity:1"/>
<path class="bond-28 atom-28 atom-29" d="M 354.8,355.3 L 346.3,354.0" style="fill:none;fill-rule:evenodd;stroke:#FF0000;stroke-width:1.0px;stroke-linecap:butt;stroke-linejoin:miter;stroke-opacity:1"/>
<path class="bond-28 atom-28 atom-29" d="M 354.6,358.7 L 345.5,357.4" style="fill:none;fill-rule:evenodd;stroke:#FF0000;stroke-width:1.0px;stroke-linecap:butt;stroke-linejoin:miter;stroke-opacity:1"/>
<path class="bond-29 atom-28 atom-30" d="M 356.9,310.1 L 308.5,272.2" style="fill:none;fill-rule:evenodd;stroke:#000000;stroke-width:2.0px;stroke-linecap:butt;stroke-linejoin:miter;stroke-opacity:1"/>
<path class="bond-30 atom-30 atom-31" d="M 308.5,272.2 L 286.9,283.4 L 285.2,279.1 Z" style="fill:#000000;fill-rule:evenodd;fill-opacity:1;stroke:#000000;stroke-width:0.5px;stroke-linecap:butt;stroke-linejoin:miter;stroke-opacity:1;"/>
<path class="bond-30 atom-30 atom-31" d="M 286.9,283.4 L 261.8,286.0 L 265.3,294.5 Z" style="fill:#FF0000;fill-rule:evenodd;fill-opacity:1;stroke:#FF0000;stroke-width:0.5px;stroke-linecap:butt;stroke-linejoin:miter;stroke-opacity:1;"/>
<path class="bond-30 atom-30 atom-31" d="M 286.9,283.4 L 285.2,279.1 L 261.8,286.0 Z" style="fill:#FF0000;fill-rule:evenodd;fill-opacity:1;stroke:#FF0000;stroke-width:0.5px;stroke-linecap:butt;stroke-linejoin:miter;stroke-opacity:1;"/>
<path class="bond-31 atom-30 atom-32" d="M 308.5,272.2 L 317.2,211.3" style="fill:none;fill-rule:evenodd;stroke:#000000;stroke-width:2.0px;stroke-linecap:butt;stroke-linejoin:miter;stroke-opacity:1"/>
<path class="bond-32 atom-32 atom-33" d="M 314.6,208.9 L 314.1,209.5" style="fill:none;fill-rule:evenodd;stroke:#000000;stroke-width:1.0px;stroke-linecap:butt;stroke-linejoin:miter;stroke-opacity:1"/>
<path class="bond-32 atom-32 atom-33" d="M 312.1,206.4 L 311.1,207.6" style="fill:none;fill-rule:evenodd;stroke:#000000;stroke-width:1.0px;stroke-linecap:butt;stroke-linejoin:miter;stroke-opacity:1"/>
<path class="bond-32 atom-32 atom-33" d="M 309.5,203.9 L 308.1,205.7" style="fill:none;fill-rule:evenodd;stroke:#000000;stroke-width:1.0px;stroke-linecap:butt;stroke-linejoin:miter;stroke-opacity:1"/>
<path class="bond-32 atom-32 atom-33" d="M 307.0,201.4 L 305.1,203.8" style="fill:none;fill-rule:evenodd;stroke:#000000;stroke-width:1.0px;stroke-linecap:butt;stroke-linejoin:miter;stroke-opacity:1"/>
<path class="bond-32 atom-32 atom-33" d="M 304.4,198.9 L 302.0,201.9" style="fill:none;fill-rule:evenodd;stroke:#000000;stroke-width:1.0px;stroke-linecap:butt;stroke-linejoin:miter;stroke-opacity:1"/>
<path class="bond-32 atom-32 atom-33" d="M 301.9,196.4 L 299.0,200.0" style="fill:none;fill-rule:evenodd;stroke:#000000;stroke-width:1.0px;stroke-linecap:butt;stroke-linejoin:miter;stroke-opacity:1"/>
<path class="bond-32 atom-32 atom-33" d="M 299.3,193.9 L 296.0,198.1" style="fill:none;fill-rule:evenodd;stroke:#FF0000;stroke-width:1.0px;stroke-linecap:butt;stroke-linejoin:miter;stroke-opacity:1"/>
<path class="bond-32 atom-32 atom-33" d="M 296.7,191.4 L 293.0,196.3" style="fill:none;fill-rule:evenodd;stroke:#FF0000;stroke-width:1.0px;stroke-linecap:butt;stroke-linejoin:miter;stroke-opacity:1"/>
<path class="bond-32 atom-32 atom-33" d="M 294.2,188.9 L 289.9,194.4" style="fill:none;fill-rule:evenodd;stroke:#FF0000;stroke-width:1.0px;stroke-linecap:butt;stroke-linejoin:miter;stroke-opacity:1"/>
<path class="bond-32 atom-32 atom-33" d="M 291.6,186.4 L 286.9,192.5" style="fill:none;fill-rule:evenodd;stroke:#FF0000;stroke-width:1.0px;stroke-linecap:butt;stroke-linejoin:miter;stroke-opacity:1"/>
<path class="bond-32 atom-32 atom-33" d="M 289.1,184.0 L 283.9,190.6" style="fill:none;fill-rule:evenodd;stroke:#FF0000;stroke-width:1.0px;stroke-linecap:butt;stroke-linejoin:miter;stroke-opacity:1"/>
<path class="bond-32 atom-32 atom-33" d="M 286.5,181.5 L 280.8,188.7" style="fill:none;fill-rule:evenodd;stroke:#FF0000;stroke-width:1.0px;stroke-linecap:butt;stroke-linejoin:miter;stroke-opacity:1"/>
<path class="bond-33 atom-33 atom-34" d="M 270.4,162.6 L 273.8,138.2" style="fill:none;fill-rule:evenodd;stroke:#FF0000;stroke-width:2.0px;stroke-linecap:butt;stroke-linejoin:miter;stroke-opacity:1"/>
<path class="bond-33 atom-33 atom-34" d="M 273.8,138.2 L 277.3,113.7" style="fill:none;fill-rule:evenodd;stroke:#191919;stroke-width:2.0px;stroke-linecap:butt;stroke-linejoin:miter;stroke-opacity:1"/>
<path class="bond-34 atom-32 atom-3" d="M 317.2,211.3 L 374.2,188.4" style="fill:none;fill-rule:evenodd;stroke:#000000;stroke-width:2.0px;stroke-linecap:butt;stroke-linejoin:miter;stroke-opacity:1"/>
<path class="bond-35 atom-26 atom-7" d="M 527.9,241.4 L 519.2,302.2" style="fill:none;fill-rule:evenodd;stroke:#000000;stroke-width:2.0px;stroke-linecap:butt;stroke-linejoin:miter;stroke-opacity:1"/>
<path class="bond-36 atom-23 atom-11" d="M 698.9,172.6 L 690.3,233.4" style="fill:none;fill-rule:evenodd;stroke:#000000;stroke-width:2.0px;stroke-linecap:butt;stroke-linejoin:miter;stroke-opacity:1"/>
<path class="bond-36 atom-23 atom-11" d="M 707.3,179.2 L 700.2,229.5" style="fill:none;fill-rule:evenodd;stroke:#000000;stroke-width:2.0px;stroke-linecap:butt;stroke-linejoin:miter;stroke-opacity:1"/>
<path class="bond-37 atom-20 atom-13" d="M 804.3,187.6 L 795.6,248.5" style="fill:none;fill-rule:evenodd;stroke:#000000;stroke-width:2.0px;stroke-linecap:butt;stroke-linejoin:miter;stroke-opacity:1"/>
<path d="M 375.1,189.2 L 374.2,188.4 L 371.3,189.6" style="fill:none;stroke:#000000;stroke-width:2.0px;stroke-linecap:butt;stroke-linejoin:miter;stroke-opacity:1;"/>
<path d="M 414.1,285.9 L 413.9,287.2 L 411.0,288.3" style="fill:none;stroke:#000000;stroke-width:2.0px;stroke-linecap:butt;stroke-linejoin:miter;stroke-opacity:1;"/>
<path d="M 565.2,338.2 L 567.6,340.1 L 570.4,339.0" style="fill:none;stroke:#000000;stroke-width:2.0px;stroke-linecap:butt;stroke-linejoin:miter;stroke-opacity:1;"/>
<path d="M 621.8,318.3 L 624.6,317.2 L 625.0,314.2" style="fill:none;stroke:#000000;stroke-width:2.0px;stroke-linecap:butt;stroke-linejoin:miter;stroke-opacity:1;"/>
<path d="M 841.6,284.5 L 844.0,286.4 L 846.9,285.2" style="fill:none;stroke:#000000;stroke-width:2.0px;stroke-linecap:butt;stroke-linejoin:miter;stroke-opacity:1;"/>
<path d="M 909.2,205.7 L 909.7,202.6 L 907.3,200.7" style="fill:none;stroke:#000000;stroke-width:2.0px;stroke-linecap:butt;stroke-linejoin:miter;stroke-opacity:1;"/>
<path d="M 758.4,151.6 L 756.0,149.7 L 753.1,150.8" style="fill:none;stroke:#000000;stroke-width:2.0px;stroke-linecap:butt;stroke-linejoin:miter;stroke-opacity:1;"/>
<path d="M 587.3,220.3 L 584.9,218.4 L 582.1,219.6" style="fill:none;stroke:#000000;stroke-width:2.0px;stroke-linecap:butt;stroke-linejoin:miter;stroke-opacity:1;"/>
<path d="M 359.7,309.0 L 356.9,310.1 L 354.4,308.2" style="fill:none;stroke:#000000;stroke-width:2.0px;stroke-linecap:butt;stroke-linejoin:miter;stroke-opacity:1;"/>
<path d="M 310.9,274.1 L 308.5,272.2 L 308.9,269.1" style="fill:none;stroke:#000000;stroke-width:2.0px;stroke-linecap:butt;stroke-linejoin:miter;stroke-opacity:1;"/>
<path d="M 316.7,214.4 L 317.2,211.3 L 320.0,210.2" style="fill:none;stroke:#000000;stroke-width:2.0px;stroke-linecap:butt;stroke-linejoin:miter;stroke-opacity:1;"/>
<path class="atom-0" d="M 339.9 26.9 L 342.4 24.3 L 339.0 23.6 L 339.6 21.9 L 342.7 23.4 L 342.2 20.0 L 344.1 20.0 L 343.6 23.4 L 346.7 21.9 L 347.3 23.6 L 343.8 24.3 L 346.3 26.9 L 344.8 28.0 L 343.1 24.7 L 341.4 28.0 L 339.9 26.9 " fill="#191919"/>
<path class="atom-1" d="M 326.5 89.7 Q 326.5 85.6, 328.6 83.2 Q 330.6 80.9, 334.5 80.9 Q 338.4 80.9, 340.4 83.2 Q 342.5 85.6, 342.5 89.7 Q 342.5 94.0, 340.4 96.4 Q 338.3 98.8, 334.5 98.8 Q 330.7 98.8, 328.6 96.4 Q 326.5 94.0, 326.5 89.7 M 334.5 96.8 Q 337.2 96.8, 338.6 95.0 Q 340.0 93.2, 340.0 89.7 Q 340.0 86.3, 338.6 84.6 Q 337.2 82.8, 334.5 82.8 Q 331.8 82.8, 330.4 84.6 Q 329.0 86.3, 329.0 89.7 Q 329.0 93.2, 330.4 95.0 Q 331.8 96.8, 334.5 96.8 " fill="#FF0000"/>
<path class="atom-4" d="M 414.6 226.4 Q 414.6 222.2, 416.6 219.9 Q 418.7 217.6, 422.5 217.6 Q 426.4 217.6, 428.5 219.9 Q 430.5 222.2, 430.5 226.4 Q 430.5 230.6, 428.4 233.0 Q 426.3 235.4, 422.5 235.4 Q 418.7 235.4, 416.6 233.0 Q 414.6 230.7, 414.6 226.4 M 422.5 233.5 Q 425.2 233.5, 426.6 231.7 Q 428.1 229.9, 428.1 226.4 Q 428.1 223.0, 426.6 221.3 Q 425.2 219.5, 422.5 219.5 Q 419.9 219.5, 418.4 221.2 Q 417.0 223.0, 417.0 226.4 Q 417.0 229.9, 418.4 231.7 Q 419.9 233.5, 422.5 233.5 " fill="#FF0000"/>
<path class="atom-6" d="M 454.2 325.2 Q 454.2 321.0, 456.3 318.6 Q 458.4 316.3, 462.2 316.3 Q 466.1 316.3, 468.1 318.6 Q 470.2 321.0, 470.2 325.2 Q 470.2 329.4, 468.1 331.8 Q 466.0 334.2, 462.2 334.2 Q 458.4 334.2, 456.3 331.8 Q 454.2 329.4, 454.2 325.2 M 462.2 332.2 Q 464.9 332.2, 466.3 330.4 Q 467.8 328.6, 467.8 325.2 Q 467.8 321.7, 466.3 320.0 Q 464.9 318.3, 462.2 318.3 Q 459.6 318.3, 458.1 320.0 Q 456.7 321.7, 456.7 325.2 Q 456.7 328.7, 458.1 330.4 Q 459.6 332.2, 462.2 332.2 " fill="#FF0000"/>
<path class="atom-12" d="M 730.6 271.4 Q 730.6 267.2, 732.7 264.9 Q 734.8 262.6, 738.6 262.6 Q 742.5 262.6, 744.6 264.9 Q 746.6 267.2, 746.6 271.4 Q 746.6 275.6, 744.5 278.1 Q 742.4 280.4, 738.6 280.4 Q 734.8 280.4, 732.7 278.1 Q 730.6 275.7, 730.6 271.4 M 738.6 278.5 Q 741.3 278.5, 742.7 276.7 Q 744.2 274.9, 744.2 271.4 Q 744.2 268.0, 742.7 266.3 Q 741.3 264.5, 738.6 264.5 Q 736.0 264.5, 734.5 266.3 Q 733.1 268.0, 733.1 271.4 Q 733.1 274.9, 734.5 276.7 Q 736.0 278.5, 738.6 278.5 " fill="#FF0000"/>
<path class="atom-16" d="M 941.4 301.4 Q 941.4 297.2, 943.4 294.9 Q 945.5 292.6, 949.4 292.6 Q 953.2 292.6, 955.3 294.9 Q 957.4 297.2, 957.4 301.4 Q 957.4 305.7, 955.3 308.1 Q 953.2 310.4, 949.4 310.4 Q 945.5 310.4, 943.4 308.1 Q 941.4 305.7, 941.4 301.4 M 949.4 308.5 Q 952.0 308.5, 953.4 306.7 Q 954.9 304.9, 954.9 301.4 Q 954.9 298.0, 953.4 296.3 Q 952.0 294.5, 949.4 294.5 Q 946.7 294.5, 945.3 296.3 Q 943.8 298.0, 943.8 301.4 Q 943.8 304.9, 945.3 306.7 Q 946.7 308.5, 949.4 308.5 " fill="#FF0000"/>
<path class="atom-16" d="M 960.1 292.8 L 962.4 292.8 L 962.4 300.2 L 971.3 300.2 L 971.3 292.8 L 973.7 292.8 L 973.7 310.2 L 971.3 310.2 L 971.3 302.1 L 962.4 302.1 L 962.4 310.2 L 960.1 310.2 L 960.1 292.8 " fill="#FF0000"/>
<path class="atom-19" d="M 862.0 103.9 Q 862.0 99.7, 864.1 97.4 Q 866.1 95.1, 870.0 95.1 Q 873.8 95.1, 875.9 97.4 Q 878.0 99.7, 878.0 103.9 Q 878.0 108.2, 875.9 110.6 Q 873.8 112.9, 870.0 112.9 Q 866.2 112.9, 864.1 110.6 Q 862.0 108.2, 862.0 103.9 M 870.0 111.0 Q 872.6 111.0, 874.1 109.2 Q 875.5 107.4, 875.5 103.9 Q 875.5 100.5, 874.1 98.8 Q 872.6 97.0, 870.0 97.0 Q 867.3 97.0, 865.9 98.8 Q 864.5 100.5, 864.5 103.9 Q 864.5 107.4, 865.9 109.2 Q 867.3 111.0, 870.0 111.0 " fill="#FF0000"/>
<path class="atom-19" d="M 880.7 95.3 L 883.0 95.3 L 883.0 102.7 L 891.9 102.7 L 891.9 95.3 L 894.3 95.3 L 894.3 112.7 L 891.9 112.7 L 891.9 104.6 L 883.0 104.6 L 883.0 112.7 L 880.7 112.7 L 880.7 95.3 " fill="#FF0000"/>
<path class="atom-22" d="M 756.6 88.9 Q 756.6 84.7, 758.7 82.4 Q 760.8 80.1, 764.6 80.1 Q 768.5 80.1, 770.5 82.4 Q 772.6 84.7, 772.6 88.9 Q 772.6 93.1, 770.5 95.6 Q 768.4 97.9, 764.6 97.9 Q 760.8 97.9, 758.7 95.6 Q 756.6 93.2, 756.6 88.9 M 764.6 96.0 Q 767.3 96.0, 768.7 94.2 Q 770.2 92.4, 770.2 88.9 Q 770.2 85.5, 768.7 83.8 Q 767.3 82.0, 764.6 82.0 Q 762.0 82.0, 760.5 83.8 Q 759.1 85.5, 759.1 88.9 Q 759.1 92.4, 760.5 94.2 Q 762.0 96.0, 764.6 96.0 " fill="#FF0000"/>
<path class="atom-24" d="M 625.4 126.1 L 627.8 126.1 L 627.8 133.5 L 636.7 133.5 L 636.7 126.1 L 639.0 126.1 L 639.0 143.5 L 636.7 143.5 L 636.7 135.5 L 627.8 135.5 L 627.8 143.5 L 625.4 143.5 L 625.4 126.1 " fill="#FF0000"/>
<path class="atom-24" d="M 642.6 134.7 Q 642.6 130.6, 644.7 128.2 Q 646.7 125.9, 650.6 125.9 Q 654.5 125.9, 656.5 128.2 Q 658.6 130.6, 658.6 134.7 Q 658.6 139.0, 656.5 141.4 Q 654.4 143.8, 650.6 143.8 Q 646.8 143.8, 644.7 141.4 Q 642.6 139.0, 642.6 134.7 M 650.6 141.8 Q 653.3 141.8, 654.7 140.0 Q 656.1 138.2, 656.1 134.7 Q 656.1 131.3, 654.7 129.6 Q 653.3 127.9, 650.6 127.9 Q 647.9 127.9, 646.5 129.6 Q 645.1 131.3, 645.1 134.7 Q 645.1 138.3, 646.5 140.0 Q 647.9 141.8, 650.6 141.8 " fill="#FF0000"/>
<path class="atom-27" d="M 454.4 194.8 L 456.7 194.8 L 456.7 202.2 L 465.6 202.2 L 465.6 194.8 L 468.0 194.8 L 468.0 212.2 L 465.6 212.2 L 465.6 204.2 L 456.7 204.2 L 456.7 212.2 L 454.4 212.2 L 454.4 194.8 " fill="#FF0000"/>
<path class="atom-27" d="M 471.6 203.5 Q 471.6 199.3, 473.6 197.0 Q 475.7 194.6, 479.6 194.6 Q 483.4 194.6, 485.5 197.0 Q 487.5 199.3, 487.5 203.5 Q 487.5 207.7, 485.5 210.1 Q 483.4 212.5, 479.6 212.5 Q 475.7 212.5, 473.6 210.1 Q 471.6 207.7, 471.6 203.5 M 479.6 210.5 Q 482.2 210.5, 483.6 208.8 Q 485.1 207.0, 485.1 203.5 Q 485.1 200.1, 483.6 198.4 Q 482.2 196.6, 479.6 196.6 Q 476.9 196.6, 475.4 198.3 Q 474.0 200.0, 474.0 203.5 Q 474.0 207.0, 475.4 208.8 Q 476.9 210.5, 479.6 210.5 " fill="#FF0000"/>
<path class="atom-29" d="M 340.2 371.0 Q 340.2 366.8, 342.3 364.5 Q 344.3 362.1, 348.2 362.1 Q 352.1 362.1, 354.1 364.5 Q 356.2 366.8, 356.2 371.0 Q 356.2 375.2, 354.1 377.6 Q 352.0 380.0, 348.2 380.0 Q 344.4 380.0, 342.3 377.6 Q 340.2 375.2, 340.2 371.0 M 348.2 378.0 Q 350.9 378.0, 352.3 376.3 Q 353.7 374.5, 353.7 371.0 Q 353.7 367.6, 352.3 365.8 Q 350.9 364.1, 348.2 364.1 Q 345.5 364.1, 344.1 365.8 Q 342.7 367.5, 342.7 371.0 Q 342.7 374.5, 344.1 376.3 Q 345.5 378.0, 348.2 378.0 " fill="#FF0000"/>
<path class="atom-29" d="M 358.9 362.3 L 361.3 362.3 L 361.3 369.7 L 370.2 369.7 L 370.2 362.3 L 372.5 362.3 L 372.5 379.7 L 370.2 379.7 L 370.2 371.7 L 361.3 371.7 L 361.3 379.7 L 358.9 379.7 L 358.9 362.3 " fill="#FF0000"/>
<path class="atom-31" d="M 226.3 286.5 L 228.7 286.5 L 228.7 293.9 L 237.6 293.9 L 237.6 286.5 L 239.9 286.5 L 239.9 303.9 L 237.6 303.9 L 237.6 295.9 L 228.7 295.9 L 228.7 303.9 L 226.3 303.9 L 226.3 286.5 " fill="#FF0000"/>
<path class="atom-31" d="M 243.5 295.1 Q 243.5 291.0, 245.6 288.6 Q 247.6 286.3, 251.5 286.3 Q 255.4 286.3, 257.4 288.6 Q 259.5 291.0, 259.5 295.1 Q 259.5 299.4, 257.4 301.8 Q 255.3 304.2, 251.5 304.2 Q 247.7 304.2, 245.6 301.8 Q 243.5 299.4, 243.5 295.1 M 251.5 302.2 Q 254.2 302.2, 255.6 300.4 Q 257.0 298.6, 257.0 295.1 Q 257.0 291.7, 255.6 290.0 Q 254.2 288.3, 251.5 288.3 Q 248.8 288.3, 247.4 290.0 Q 246.0 291.7, 246.0 295.1 Q 246.0 298.7, 247.4 300.4 Q 248.8 302.2, 251.5 302.2 " fill="#FF0000"/>
<path class="atom-33" d="M 260.8 173.5 Q 260.8 169.3, 262.9 167.0 Q 265.0 164.6, 268.8 164.6 Q 272.7 164.6, 274.7 167.0 Q 276.8 169.3, 276.8 173.5 Q 276.8 177.7, 274.7 180.1 Q 272.6 182.5, 268.8 182.5 Q 265.0 182.5, 262.9 180.1 Q 260.8 177.7, 260.8 173.5 M 268.8 180.5 Q 271.5 180.5, 272.9 178.8 Q 274.4 177.0, 274.4 173.5 Q 274.4 170.1, 272.9 168.3 Q 271.5 166.6, 268.8 166.6 Q 266.2 166.6, 264.7 168.3 Q 263.3 170.0, 263.3 173.5 Q 263.3 177.0, 264.7 178.8 Q 266.2 180.5, 268.8 180.5 " fill="#FF0000"/>
<path class="atom-34" d="M 274.2 110.7 L 276.8 108.0 L 273.4 107.4 L 273.9 105.6 L 277.0 107.2 L 276.6 103.8 L 278.4 103.7 L 277.9 107.2 L 281.1 105.7 L 281.6 107.4 L 278.2 108.0 L 280.6 110.6 L 279.1 111.7 L 277.4 108.5 L 275.7 111.7 L 274.2 110.7 " fill="#191919"/>
<path class="bond-0 atom-0 atom-1" d="M 691.5,578.9 L 679.6,599.6" style="fill:none;fill-rule:evenodd;stroke:#191919;stroke-width:2.0px;stroke-linecap:butt;stroke-linejoin:miter;stroke-opacity:1"/>
<path class="bond-0 atom-0 atom-1" d="M 679.6,599.6 L 667.7,620.2" style="fill:none;fill-rule:evenodd;stroke:#FF0000;stroke-width:2.0px;stroke-linecap:butt;stroke-linejoin:miter;stroke-opacity:1"/>
<path class="bond-1 atom-1 atom-2" d="M 651.4,631.0 L 625.7,631.0" style="fill:none;fill-rule:evenodd;stroke:#FF0000;stroke-width:2.0px;stroke-linecap:butt;stroke-linejoin:miter;stroke-opacity:1"/>
<path class="bond-1 atom-1 atom-2" d="M 625.7,631.0 L 600.0,631.0" style="fill:none;fill-rule:evenodd;stroke:#000000;stroke-width:2.0px;stroke-linecap:butt;stroke-linejoin:miter;stroke-opacity:1"/>
<path class="bond-2 atom-2 atom-3" d="M 600.0,631.0 L 569.3,684.2" style="fill:none;fill-rule:evenodd;stroke:#000000;stroke-width:2.0px;stroke-linecap:butt;stroke-linejoin:miter;stroke-opacity:1"/>
<path class="bond-3 atom-2 atom-4" d="M 600.0,631.0 L 569.3,577.8" style="fill:none;fill-rule:evenodd;stroke:#000000;stroke-width:2.0px;stroke-linecap:butt;stroke-linejoin:miter;stroke-opacity:1"/>
<path class="bond-4 atom-4 atom-5" d="M 569.3,577.8 L 541.6,577.8" style="fill:none;fill-rule:evenodd;stroke:#000000;stroke-width:2.0px;stroke-linecap:butt;stroke-linejoin:miter;stroke-opacity:1"/>
<path class="bond-4 atom-4 atom-5" d="M 541.6,577.8 L 514.0,577.8" style="fill:none;fill-rule:evenodd;stroke:#191919;stroke-width:2.0px;stroke-linecap:butt;stroke-linejoin:miter;stroke-opacity:1"/>
<path class="bond-5 atom-4 atom-6" d="M 571.9,582.4 L 584.8,560.2" style="fill:none;fill-rule:evenodd;stroke:#000000;stroke-width:2.0px;stroke-linecap:butt;stroke-linejoin:miter;stroke-opacity:1"/>
<path class="bond-5 atom-4 atom-6" d="M 584.8,560.2 L 597.6,538.0" style="fill:none;fill-rule:evenodd;stroke:#FF0000;stroke-width:2.0px;stroke-linecap:butt;stroke-linejoin:miter;stroke-opacity:1"/>
<path class="bond-5 atom-4 atom-6" d="M 564.0,577.8 L 576.8,555.6" style="fill:none;fill-rule:evenodd;stroke:#000000;stroke-width:2.0px;stroke-linecap:butt;stroke-linejoin:miter;stroke-opacity:1"/>
<path class="bond-5 atom-4 atom-6" d="M 576.8,555.6 L 589.6,533.4" style="fill:none;fill-rule:evenodd;stroke:#FF0000;stroke-width:2.0px;stroke-linecap:butt;stroke-linejoin:miter;stroke-opacity:1"/>
<path d="M 570.8,580.5 L 569.3,577.8 L 567.9,577.8" style="fill:none;stroke:#000000;stroke-width:2.0px;stroke-linecap:butt;stroke-linejoin:miter;stroke-opacity:1;"/>
<path class="atom-0" d="M 688.9 575.9 L 691.4 573.2 L 688.1 572.6 L 688.6 570.8 L 691.7 572.4 L 691.2 569.0 L 693.1 568.9 L 692.6 572.4 L 695.7 570.9 L 696.3 572.6 L 692.8 573.2 L 695.3 575.8 L 693.8 576.9 L 692.1 573.7 L 690.4 576.9 L 688.9 575.9 " fill="#191919"/>
<path class="atom-1" d="M 653.5 631.1 Q 653.5 626.9, 655.5 624.5 Q 657.6 622.2, 661.4 622.2 Q 665.3 622.2, 667.4 624.5 Q 669.4 626.9, 669.4 631.1 Q 669.4 635.3, 667.3 637.7 Q 665.3 640.1, 661.4 640.1 Q 657.6 640.1, 655.5 637.7 Q 653.5 635.3, 653.5 631.1 M 661.4 638.1 Q 664.1 638.1, 665.5 636.3 Q 667.0 634.5, 667.0 631.1 Q 667.0 627.6, 665.5 625.9 Q 664.1 624.2, 661.4 624.2 Q 658.8 624.2, 657.3 625.9 Q 655.9 627.6, 655.9 631.1 Q 655.9 634.6, 657.3 636.3 Q 658.8 638.1, 661.4 638.1 " fill="#FF0000"/>
<path class="atom-5" d="M 504.5 575.9 L 507.1 573.2 L 503.7 572.6 L 504.2 570.8 L 507.4 572.4 L 506.9 569.0 L 508.8 568.9 L 508.2 572.4 L 511.4 570.9 L 511.9 572.6 L 508.5 573.2 L 511.0 575.8 L 509.5 576.9 L 507.8 573.7 L 506.0 576.9 L 504.5 575.9 " fill="#191919"/>
<path class="atom-6" d="M 592.0 524.6 Q 592.0 520.4, 594.1 518.1 Q 596.1 515.8, 600.0 515.8 Q 603.9 515.8, 605.9 518.1 Q 608.0 520.4, 608.0 524.6 Q 608.0 528.9, 605.9 531.3 Q 603.8 533.6, 600.0 533.6 Q 596.2 533.6, 594.1 531.3 Q 592.0 528.9, 592.0 524.6 M 600.0 531.7 Q 602.7 531.7, 604.1 529.9 Q 605.5 528.1, 605.5 524.6 Q 605.5 521.2, 604.1 519.5 Q 602.7 517.7, 600.0 517.7 Q 597.3 517.7, 595.9 519.5 Q 594.5 521.2, 594.5 524.6 Q 594.5 528.1, 595.9 529.9 Q 597.3 531.7, 600.0 531.7 " fill="#FF0000"/>
</svg>