<svg xmlns="http://www.w3.org/2000/svg" xmlns:rdkit="http://www.rdkit.org/xml" xmlns:xlink="http://www.w3.org/1999/xlink" version="1.1" baseProfile="full" xml:space="preserve" width="1200px" height="800px" viewBox="0 0 1200 800">
<!-- END OF HEADER -->
<rect style="opacity:1.0;fill:#FFFFFF;stroke:none" width="1200.0" height="800.0" x="0.0" y="0.0"> </rect>
<path class="bond-0 atom-0 atom-1" d="M 690.7,27.2 L 677.6,44.3" style="fill:none;fill-rule:evenodd;stroke:#191919;stroke-width:2.0px;stroke-linecap:butt;stroke-linejoin:miter;stroke-opacity:1"/>
<path class="bond-0 atom-0 atom-1" d="M 677.6,44.3 L 664.4,61.3" style="fill:none;fill-rule:evenodd;stroke:#000000;stroke-width:2.0px;stroke-linecap:butt;stroke-linejoin:miter;stroke-opacity:1"/>
<path class="bond-1 atom-1 atom-2" d="M 664.4,61.3 L 681.2,102.2" style="fill:none;fill-rule:evenodd;stroke:#000000;stroke-width:2.0px;stroke-linecap:butt;stroke-linejoin:miter;stroke-opacity:1"/>
<path class="bond-2 atom-2 atom-3" d="M 681.2,102.2 L 699.5,104.6" style="fill:none;fill-rule:evenodd;stroke:#000000;stroke-width:2.0px;stroke-linecap:butt;stroke-linejoin:miter;stroke-opacity:1"/>
<path class="bond-2 atom-2 atom-3" d="M 699.5,104.6 L 717.8,107.0" style="fill:none;fill-rule:evenodd;stroke:#FF0000;stroke-width:2.0px;stroke-linecap:butt;stroke-linejoin:miter;stroke-opacity:1"/>
<path class="bond-3 atom-3 atom-4" d="M 731.0,100.2 L 741.5,86.6" style="fill:none;fill-rule:evenodd;stroke:#FF0000;stroke-width:2.0px;stroke-linecap:butt;stroke-linejoin:miter;stroke-opacity:1"/>
<path class="bond-3 atom-3 atom-4" d="M 741.5,86.6 L 751.9,73.0" style="fill:none;fill-rule:evenodd;stroke:#000000;stroke-width:2.0px;stroke-linecap:butt;stroke-linejoin:miter;stroke-opacity:1"/>
<path class="bond-4 atom-4 atom-5" d="M 751.9,73.0 L 795.7,78.9" style="fill:none;fill-rule:evenodd;stroke:#000000;stroke-width:2.0px;stroke-linecap:butt;stroke-linejoin:miter;stroke-opacity:1"/>
<path class="bond-5 atom-4 atom-6" d="M 755.7,73.5 L 748.6,56.2" style="fill:none;fill-rule:evenodd;stroke:#000000;stroke-width:2.0px;stroke-linecap:butt;stroke-linejoin:miter;stroke-opacity:1"/>
<path class="bond-5 atom-4 atom-6" d="M 748.6,56.2 L 741.5,38.9" style="fill:none;fill-rule:evenodd;stroke:#FF0000;stroke-width:2.0px;stroke-linecap:butt;stroke-linejoin:miter;stroke-opacity:1"/>
<path class="bond-5 atom-4 atom-6" d="M 749.6,76.1 L 742.5,58.7" style="fill:none;fill-rule:evenodd;stroke:#000000;stroke-width:2.0px;stroke-linecap:butt;stroke-linejoin:miter;stroke-opacity:1"/>
<path class="bond-5 atom-4 atom-6" d="M 742.5,58.7 L 735.3,41.4" style="fill:none;fill-rule:evenodd;stroke:#FF0000;stroke-width:2.0px;stroke-linecap:butt;stroke-linejoin:miter;stroke-opacity:1"/>
<path class="bond-6 atom-2 atom-7" d="M 681.2,102.2 L 654.3,137.1" style="fill:none;fill-rule:evenodd;stroke:#000000;stroke-width:2.0px;stroke-linecap:butt;stroke-linejoin:miter;stroke-opacity:1"/>
<path class="bond-7 atom-7 atom-8" d="M 654.3,137.1 L 636.0,134.7" style="fill:none;fill-rule:evenodd;stroke:#000000;stroke-width:2.0px;stroke-linecap:butt;stroke-linejoin:miter;stroke-opacity:1"/>
<path class="bond-7 atom-7 atom-8" d="M 636.0,134.7 L 617.7,132.2" style="fill:none;fill-rule:evenodd;stroke:#FF0000;stroke-width:2.0px;stroke-linecap:butt;stroke-linejoin:miter;stroke-opacity:1"/>
<path class="bond-8 atom-8 atom-9" d="M 607.3,123.5 L 600.5,107.0" style="fill:none;fill-rule:evenodd;stroke:#FF0000;stroke-width:2.0px;stroke-linecap:butt;stroke-linejoin:miter;stroke-opacity:1"/>
<path class="bond-8 atom-8 atom-9" d="M 600.5,107.0 L 593.7,90.5" style="fill:none;fill-rule:evenodd;stroke:#000000;stroke-width:2.0px;stroke-linecap:butt;stroke-linejoin:miter;stroke-opacity:1"/>
<path class="bond-9 atom-9 atom-10" d="M 593.7,90.5 L 549.9,84.6" style="fill:none;fill-rule:evenodd;stroke:#000000;stroke-width:2.0px;stroke-linecap:butt;stroke-linejoin:miter;stroke-opacity:1"/>
<path class="bond-10 atom-9 atom-11" d="M 595.2,94.0 L 606.1,79.7" style="fill:none;fill-rule:evenodd;stroke:#000000;stroke-width:2.0px;stroke-linecap:butt;stroke-linejoin:miter;stroke-opacity:1"/>
<path class="bond-10 atom-9 atom-11" d="M 606.1,79.7 L 617.1,65.5" style="fill:none;fill-rule:evenodd;stroke:#FF0000;stroke-width:2.0px;stroke-linecap:butt;stroke-linejoin:miter;stroke-opacity:1"/>
<path class="bond-10 atom-9 atom-11" d="M 589.9,89.9 L 600.9,75.7" style="fill:none;fill-rule:evenodd;stroke:#000000;stroke-width:2.0px;stroke-linecap:butt;stroke-linejoin:miter;stroke-opacity:1"/>
<path class="bond-10 atom-9 atom-11" d="M 600.9,75.7 L 611.9,61.4" style="fill:none;fill-rule:evenodd;stroke:#FF0000;stroke-width:2.0px;stroke-linecap:butt;stroke-linejoin:miter;stroke-opacity:1"/>
<path class="bond-11 atom-7 atom-12" d="M 654.3,137.1 L 671.1,177.9" style="fill:none;fill-rule:evenodd;stroke:#000000;stroke-width:2.0px;stroke-linecap:butt;stroke-linejoin:miter;stroke-opacity:1"/>
<path class="bond-12 atom-12 atom-13" d="M 671.1,177.9 L 656.1,187.5" style="fill:none;fill-rule:evenodd;stroke:#000000;stroke-width:2.0px;stroke-linecap:butt;stroke-linejoin:miter;stroke-opacity:1"/>
<path class="bond-12 atom-12 atom-13" d="M 656.1,187.5 L 641.0,197.0" style="fill:none;fill-rule:evenodd;stroke:#FF0000;stroke-width:2.0px;stroke-linecap:butt;stroke-linejoin:miter;stroke-opacity:1"/>
<path class="bond-13 atom-13 atom-14" d="M 626.6,197.8 L 610.7,189.5" style="fill:none;fill-rule:evenodd;stroke:#FF0000;stroke-width:2.0px;stroke-linecap:butt;stroke-linejoin:miter;stroke-opacity:1"/>
<path class="bond-13 atom-13 atom-14" d="M 610.7,189.5 L 594.7,181.1" style="fill:none;fill-rule:evenodd;stroke:#000000;stroke-width:2.0px;stroke-linecap:butt;stroke-linejoin:miter;stroke-opacity:1"/>
<path class="bond-14 atom-14 atom-15" d="M 594.7,181.1 L 557.4,204.8" style="fill:none;fill-rule:evenodd;stroke:#000000;stroke-width:2.0px;stroke-linecap:butt;stroke-linejoin:miter;stroke-opacity:1"/>
<path class="bond-15 atom-15 atom-16" d="M 557.4,204.8 L 558.2,222.9" style="fill:none;fill-rule:evenodd;stroke:#000000;stroke-width:2.0px;stroke-linecap:butt;stroke-linejoin:miter;stroke-opacity:1"/>
<path class="bond-15 atom-15 atom-16" d="M 558.2,222.9 L 558.9,241.1" style="fill:none;fill-rule:evenodd;stroke:#FF0000;stroke-width:2.0px;stroke-linecap:butt;stroke-linejoin:miter;stroke-opacity:1"/>
<path class="bond-16 atom-16 atom-17" d="M 566.4,252.7 L 582.4,261.0" style="fill:none;fill-rule:evenodd;stroke:#FF0000;stroke-width:2.0px;stroke-linecap:butt;stroke-linejoin:miter;stroke-opacity:1"/>
<path class="bond-16 atom-16 atom-17" d="M 582.4,261.0 L 598.4,269.4" style="fill:none;fill-rule:evenodd;stroke:#000000;stroke-width:2.0px;stroke-linecap:butt;stroke-linejoin:miter;stroke-opacity:1"/>
<path class="bond-17 atom-17 atom-18" d="M 598.4,269.4 L 600.2,313.5" style="fill:none;fill-rule:evenodd;stroke:#000000;stroke-width:2.0px;stroke-linecap:butt;stroke-linejoin:miter;stroke-opacity:1"/>
<path class="bond-18 atom-17 atom-19" d="M 598.5,273.2 L 614.4,263.1" style="fill:none;fill-rule:evenodd;stroke:#000000;stroke-width:2.0px;stroke-linecap:butt;stroke-linejoin:miter;stroke-opacity:1"/>
<path class="bond-18 atom-17 atom-19" d="M 614.4,263.1 L 630.2,253.1" style="fill:none;fill-rule:evenodd;stroke:#FF0000;stroke-width:2.0px;stroke-linecap:butt;stroke-linejoin:miter;stroke-opacity:1"/>
<path class="bond-18 atom-17 atom-19" d="M 595.0,267.6 L 610.8,257.5" style="fill:none;fill-rule:evenodd;stroke:#000000;stroke-width:2.0px;stroke-linecap:butt;stroke-linejoin:miter;stroke-opacity:1"/>
<path class="bond-18 atom-17 atom-19" d="M 610.8,257.5 L 626.7,247.5" style="fill:none;fill-rule:evenodd;stroke:#FF0000;stroke-width:2.0px;stroke-linecap:butt;stroke-linejoin:miter;stroke-opacity:1"/>
<path class="bond-19 atom-15 atom-20" d="M 557.4,204.8 L 518.3,184.3" style="fill:none;fill-rule:evenodd;stroke:#000000;stroke-width:2.0px;stroke-linecap:butt;stroke-linejoin:miter;stroke-opacity:1"/>
<path class="bond-20 atom-20 atom-21" d="M 518.3,184.3 L 503.2,193.9" style="fill:none;fill-rule:evenodd;stroke:#000000;stroke-width:2.0px;stroke-linecap:butt;stroke-linejoin:miter;stroke-opacity:1"/>
<path class="bond-20 atom-20 atom-21" d="M 503.2,193.9 L 488.2,203.4" style="fill:none;fill-rule:evenodd;stroke:#FF0000;stroke-width:2.0px;stroke-linecap:butt;stroke-linejoin:miter;stroke-opacity:1"/>
<path class="bond-21 atom-21 atom-22" d="M 481.3,215.9 L 482.1,234.0" style="fill:none;fill-rule:evenodd;stroke:#FF0000;stroke-width:2.0px;stroke-linecap:butt;stroke-linejoin:miter;stroke-opacity:1"/>
<path class="bond-21 atom-21 atom-22" d="M 482.1,234.0 L 482.8,252.1" style="fill:none;fill-rule:evenodd;stroke:#000000;stroke-width:2.0px;stroke-linecap:butt;stroke-linejoin:miter;stroke-opacity:1"/>
<path class="bond-22 atom-22 atom-23" d="M 479.6,254.1 L 496.4,262.9" style="fill:none;fill-rule:evenodd;stroke:#000000;stroke-width:2.0px;stroke-linecap:butt;stroke-linejoin:miter;stroke-opacity:1"/>
<path class="bond-22 atom-22 atom-23" d="M 496.4,262.9 L 513.2,271.7" style="fill:none;fill-rule:evenodd;stroke:#FF0000;stroke-width:2.0px;stroke-linecap:butt;stroke-linejoin:miter;stroke-opacity:1"/>
<path class="bond-22 atom-22 atom-23" d="M 482.7,248.3 L 499.5,257.0" style="fill:none;fill-rule:evenodd;stroke:#000000;stroke-width:2.0px;stroke-linecap:butt;stroke-linejoin:miter;stroke-opacity:1"/>
<path class="bond-22 atom-22 atom-23" d="M 499.5,257.0 L 516.3,265.8" style="fill:none;fill-rule:evenodd;stroke:#FF0000;stroke-width:2.0px;stroke-linecap:butt;stroke-linejoin:miter;stroke-opacity:1"/>
<path class="bond-23 atom-22 atom-24" d="M 482.8,252.1 L 445.6,275.7" style="fill:none;fill-rule:evenodd;stroke:#000000;stroke-width:2.0px;stroke-linecap:butt;stroke-linejoin:miter;stroke-opacity:1"/>
<path class="bond-24 atom-24 atom-25" d="M 445.6,275.7 L 447.4,319.8" style="fill:none;fill-rule:evenodd;stroke:#000000;stroke-width:2.0px;stroke-linecap:butt;stroke-linejoin:miter;stroke-opacity:1"/>
<path class="bond-25 atom-25 atom-26" d="M 447.4,319.8 L 410.1,343.5" style="fill:none;fill-rule:evenodd;stroke:#000000;stroke-width:2.0px;stroke-linecap:butt;stroke-linejoin:miter;stroke-opacity:1"/>
<path class="bond-26 atom-20 atom-27" d="M 518.3,184.3 L 516.5,140.2" style="fill:none;fill-rule:evenodd;stroke:#000000;stroke-width:2.0px;stroke-linecap:butt;stroke-linejoin:miter;stroke-opacity:1"/>
<path class="bond-27 atom-27 atom-28" d="M 516.5,140.2 L 534.4,136.3" style="fill:none;fill-rule:evenodd;stroke:#000000;stroke-width:2.0px;stroke-linecap:butt;stroke-linejoin:miter;stroke-opacity:1"/>
<path class="bond-27 atom-27 atom-28" d="M 534.4,136.3 L 552.4,132.3" style="fill:none;fill-rule:evenodd;stroke:#FF0000;stroke-width:2.0px;stroke-linecap:butt;stroke-linejoin:miter;stroke-opacity:1"/>
<path class="bond-28 atom-28 atom-29" d="M 566.8,135.5 L 579.4,143.9" style="fill:none;fill-rule:evenodd;stroke:#FF0000;stroke-width:2.0px;stroke-linecap:butt;stroke-linejoin:miter;stroke-opacity:1"/>
<path class="bond-28 atom-28 atom-29" d="M 579.4,143.9 L 591.9,152.2" style="fill:none;fill-rule:evenodd;stroke:#191919;stroke-width:2.0px;stroke-linecap:butt;stroke-linejoin:miter;stroke-opacity:1"/>
<path class="bond-29 atom-27 atom-30" d="M 516.5,140.2 L 509.7,123.8" style="fill:none;fill-rule:evenodd;stroke:#000000;stroke-width:2.0px;stroke-linecap:butt;stroke-linejoin:miter;stroke-opacity:1"/>
<path class="bond-29 atom-27 atom-30" d="M 509.7,123.8 L 502.9,107.4" style="fill:none;fill-rule:evenodd;stroke:#FF0000;stroke-width:2.0px;stroke-linecap:butt;stroke-linejoin:miter;stroke-opacity:1"/>
<path class="bond-30 atom-30 atom-31" d="M 493.5,107.4 L 483.1,120.9" style="fill:none;fill-rule:evenodd;stroke:#FF0000;stroke-width:2.0px;stroke-linecap:butt;stroke-linejoin:miter;stroke-opacity:1"/>
<path class="bond-30 atom-30 atom-31" d="M 483.1,120.9 L 472.7,134.4" style="fill:none;fill-rule:evenodd;stroke:#000000;stroke-width:2.0px;stroke-linecap:butt;stroke-linejoin:miter;stroke-opacity:1"/>
<path class="bond-31 atom-31 atom-32" d="M 472.7,134.4 L 431.9,151.2" style="fill:none;fill-rule:evenodd;stroke:#000000;stroke-width:2.0px;stroke-linecap:butt;stroke-linejoin:miter;stroke-opacity:1"/>
<path class="bond-32 atom-32 atom-33" d="M 431.9,151.2 L 429.5,169.2" style="fill:none;fill-rule:evenodd;stroke:#000000;stroke-width:2.0px;stroke-linecap:butt;stroke-linejoin:miter;stroke-opacity:1"/>
<path class="bond-32 atom-32 atom-33" d="M 429.5,169.2 L 427.1,187.2" style="fill:none;fill-rule:evenodd;stroke:#FF0000;stroke-width:2.0px;stroke-linecap:butt;stroke-linejoin:miter;stroke-opacity:1"/>
<path class="bond-33 atom-33 atom-34" d="M 418.8,197.9 L 402.0,204.8" style="fill:none;fill-rule:evenodd;stroke:#FF0000;stroke-width:2.0px;stroke-linecap:butt;stroke-linejoin:miter;stroke-opacity:1"/>
<path class="bond-33 atom-33 atom-34" d="M 402.0,204.8 L 385.2,211.7" style="fill:none;fill-rule:evenodd;stroke:#000000;stroke-width:2.0px;stroke-linecap:butt;stroke-linejoin:miter;stroke-opacity:1"/>
<path class="bond-34 atom-34 atom-35" d="M 385.2,211.7 L 379.4,255.5" style="fill:none;fill-rule:evenodd;stroke:#000000;stroke-width:2.0px;stroke-linecap:butt;stroke-linejoin:miter;stroke-opacity:1"/>
<path class="bond-35 atom-34 atom-36" d="M 388.7,210.3 L 374.1,199.0" style="fill:none;fill-rule:evenodd;stroke:#000000;stroke-width:2.0px;stroke-linecap:butt;stroke-linejoin:miter;stroke-opacity:1"/>
<path class="bond-35 atom-34 atom-36" d="M 374.1,199.0 L 359.4,187.7" style="fill:none;fill-rule:evenodd;stroke:#FF0000;stroke-width:2.0px;stroke-linecap:butt;stroke-linejoin:miter;stroke-opacity:1"/>
<path class="bond-35 atom-34 atom-36" d="M 384.7,215.5 L 370.0,204.3" style="fill:none;fill-rule:evenodd;stroke:#000000;stroke-width:2.0px;stroke-linecap:butt;stroke-linejoin:miter;stroke-opacity:1"/>
<path class="bond-35 atom-34 atom-36" d="M 370.0,204.3 L 355.4,193.0" style="fill:none;fill-rule:evenodd;stroke:#FF0000;stroke-width:2.0px;stroke-linecap:butt;stroke-linejoin:miter;stroke-opacity:1"/>
<path class="bond-36 atom-12 atom-37" d="M 671.1,177.9 L 689.1,174.0" style="fill:none;fill-rule:evenodd;stroke:#000000;stroke-width:2.0px;stroke-linecap:butt;stroke-linejoin:miter;stroke-opacity:1"/>
<path class="bond-36 atom-12 atom-37" d="M 689.1,174.0 L 707.0,170.1" style="fill:none;fill-rule:evenodd;stroke:#FF0000;stroke-width:2.0px;stroke-linecap:butt;stroke-linejoin:miter;stroke-opacity:1"/>
<path class="bond-37 atom-37 atom-38" d="M 711.7,176.5 L 706.3,193.5" style="fill:none;fill-rule:evenodd;stroke:#FF0000;stroke-width:2.0px;stroke-linecap:butt;stroke-linejoin:miter;stroke-opacity:1"/>
<path class="bond-37 atom-37 atom-38" d="M 706.3,193.5 L 700.9,210.6" style="fill:none;fill-rule:evenodd;stroke:#000000;stroke-width:2.0px;stroke-linecap:butt;stroke-linejoin:miter;stroke-opacity:1"/>
<path class="bond-38 atom-38 atom-39" d="M 700.9,210.6 L 710.3,253.7" style="fill:none;fill-rule:evenodd;stroke:#000000;stroke-width:2.0px;stroke-linecap:butt;stroke-linejoin:miter;stroke-opacity:1"/>
<path class="bond-39 atom-39 atom-40" d="M 710.3,253.7 L 727.8,259.2" style="fill:none;fill-rule:evenodd;stroke:#000000;stroke-width:2.0px;stroke-linecap:butt;stroke-linejoin:miter;stroke-opacity:1"/>
<path class="bond-39 atom-39 atom-40" d="M 727.8,259.2 L 745.2,264.8" style="fill:none;fill-rule:evenodd;stroke:#FF0000;stroke-width:2.0px;stroke-linecap:butt;stroke-linejoin:miter;stroke-opacity:1"/>
<path class="bond-40 atom-40 atom-41" d="M 754.2,275.0 L 758.0,292.6" style="fill:none;fill-rule:evenodd;stroke:#FF0000;stroke-width:2.0px;stroke-linecap:butt;stroke-linejoin:miter;stroke-opacity:1"/>
<path class="bond-40 atom-40 atom-41" d="M 758.0,292.6 L 761.9,310.2" style="fill:none;fill-rule:evenodd;stroke:#000000;stroke-width:2.0px;stroke-linecap:butt;stroke-linejoin:miter;stroke-opacity:1"/>
<path class="bond-41 atom-41 atom-42" d="M 761.1,306.4 L 747.6,318.7" style="fill:none;fill-rule:evenodd;stroke:#000000;stroke-width:2.0px;stroke-linecap:butt;stroke-linejoin:miter;stroke-opacity:1"/>
<path class="bond-41 atom-41 atom-42" d="M 747.6,318.7 L 734.2,330.9" style="fill:none;fill-rule:evenodd;stroke:#FF0000;stroke-width:2.0px;stroke-linecap:butt;stroke-linejoin:miter;stroke-opacity:1"/>
<path class="bond-41 atom-41 atom-42" d="M 765.5,311.3 L 752.1,323.6" style="fill:none;fill-rule:evenodd;stroke:#000000;stroke-width:2.0px;stroke-linecap:butt;stroke-linejoin:miter;stroke-opacity:1"/>
<path class="bond-41 atom-41 atom-42" d="M 752.1,323.6 L 738.7,335.8" style="fill:none;fill-rule:evenodd;stroke:#FF0000;stroke-width:2.0px;stroke-linecap:butt;stroke-linejoin:miter;stroke-opacity:1"/>
<path class="bond-42 atom-41 atom-43" d="M 761.9,310.2 L 804.0,323.5" style="fill:none;fill-rule:evenodd;stroke:#000000;stroke-width:2.0px;stroke-linecap:butt;stroke-linejoin:miter;stroke-opacity:1"/>
<path class="bond-43 atom-43 atom-44" d="M 804.0,323.5 L 813.4,366.6" style="fill:none;fill-rule:evenodd;stroke:#000000;stroke-width:2.0px;stroke-linecap:butt;stroke-linejoin:miter;stroke-opacity:1"/>
<path class="bond-44 atom-44 atom-45" d="M 813.4,366.6 L 855.5,380.0" style="fill:none;fill-rule:evenodd;stroke:#000000;stroke-width:2.0px;stroke-linecap:butt;stroke-linejoin:miter;stroke-opacity:1"/>
<path class="bond-45 atom-38 atom-12" d="M 700.9,210.6 L 671.1,177.9" style="fill:none;fill-rule:evenodd;stroke:#000000;stroke-width:2.0px;stroke-linecap:butt;stroke-linejoin:miter;stroke-opacity:1"/>
<path class="bond-46 atom-31 atom-27" d="M 472.7,134.4 L 516.5,140.2" style="fill:none;fill-rule:evenodd;stroke:#000000;stroke-width:2.0px;stroke-linecap:butt;stroke-linejoin:miter;stroke-opacity:1"/>
<path d="M 665.1,60.5 L 664.4,61.3 L 665.3,63.4" style="fill:none;stroke:#000000;stroke-width:2.0px;stroke-linecap:butt;stroke-linejoin:miter;stroke-opacity:1;"/>
<path d="M 751.4,73.7 L 751.9,73.0 L 754.1,73.3" style="fill:none;stroke:#000000;stroke-width:2.0px;stroke-linecap:butt;stroke-linejoin:miter;stroke-opacity:1;"/>
<path d="M 594.0,91.3 L 593.7,90.5 L 591.5,90.2" style="fill:none;stroke:#000000;stroke-width:2.0px;stroke-linecap:butt;stroke-linejoin:miter;stroke-opacity:1;"/>
<path d="M 595.5,181.5 L 594.7,181.1 L 592.8,182.3" style="fill:none;stroke:#000000;stroke-width:2.0px;stroke-linecap:butt;stroke-linejoin:miter;stroke-opacity:1;"/>
<path d="M 597.6,268.9 L 598.4,269.4 L 598.5,271.6" style="fill:none;stroke:#000000;stroke-width:2.0px;stroke-linecap:butt;stroke-linejoin:miter;stroke-opacity:1;"/>
<path d="M 482.8,251.2 L 482.8,252.1 L 481.0,253.3" style="fill:none;stroke:#000000;stroke-width:2.0px;stroke-linecap:butt;stroke-linejoin:miter;stroke-opacity:1;"/>
<path d="M 447.4,274.5 L 445.6,275.7 L 445.7,277.9" style="fill:none;stroke:#000000;stroke-width:2.0px;stroke-linecap:butt;stroke-linejoin:miter;stroke-opacity:1;"/>
<path d="M 447.3,317.6 L 447.4,319.8 L 445.5,321.0" style="fill:none;stroke:#000000;stroke-width:2.0px;stroke-linecap:butt;stroke-linejoin:miter;stroke-opacity:1;"/>
<path d="M 433.9,150.3 L 431.9,151.2 L 431.8,152.1" style="fill:none;stroke:#000000;stroke-width:2.0px;stroke-linecap:butt;stroke-linejoin:miter;stroke-opacity:1;"/>
<path d="M 386.0,211.4 L 385.2,211.7 L 384.9,213.9" style="fill:none;stroke:#000000;stroke-width:2.0px;stroke-linecap:butt;stroke-linejoin:miter;stroke-opacity:1;"/>
<path d="M 709.9,251.5 L 710.3,253.7 L 711.2,254.0" style="fill:none;stroke:#000000;stroke-width:2.0px;stroke-linecap:butt;stroke-linejoin:miter;stroke-opacity:1;"/>
<path d="M 761.7,309.3 L 761.9,310.2 L 764.0,310.8" style="fill:none;stroke:#000000;stroke-width:2.0px;stroke-linecap:butt;stroke-linejoin:miter;stroke-opacity:1;"/>
<path d="M 801.9,322.9 L 804.0,323.5 L 804.4,325.7" style="fill:none;stroke:#000000;stroke-width:2.0px;stroke-linecap:butt;stroke-linejoin:miter;stroke-opacity:1;"/>
<path d="M 813.0,364.5 L 813.4,366.6 L 815.5,367.3" style="fill:none;stroke:#000000;stroke-width:2.0px;stroke-linecap:butt;stroke-linejoin:miter;stroke-opacity:1;"/>
<path class="atom-0" d="M 689.0 25.0 L 690.8 23.1 L 688.4 22.6 L 688.8 21.3 L 691.0 22.5 L 690.7 20.0 L 692.0 20.0 L 691.7 22.5 L 693.9 21.4 L 694.3 22.6 L 691.8 23.1 L 693.6 24.9 L 692.5 25.7 L 691.3 23.4 L 690.1 25.7 L 689.0 25.0 " fill="#191919"/>
<path class="atom-3" d="M 719.3 108.0 Q 719.3 105.0, 720.7 103.4 Q 722.2 101.7, 725.0 101.7 Q 727.8 101.7, 729.2 103.4 Q 730.7 105.0, 730.7 108.0 Q 730.7 111.1, 729.2 112.8 Q 727.7 114.5, 725.0 114.5 Q 722.2 114.5, 720.7 112.8 Q 719.3 111.1, 719.3 108.0 M 725.0 113.1 Q 726.9 113.1, 727.9 111.8 Q 729.0 110.5, 729.0 108.0 Q 729.0 105.6, 727.9 104.3 Q 726.9 103.1, 725.0 103.1 Q 723.1 103.1, 722.0 104.3 Q 721.0 105.6, 721.0 108.0 Q 721.0 110.6, 722.0 111.8 Q 723.1 113.1, 725.0 113.1 " fill="#FF0000"/>
<path class="atom-6" d="M 729.4 32.2 Q 729.4 29.2, 730.9 27.6 Q 732.3 25.9, 735.1 25.9 Q 737.9 25.9, 739.4 27.6 Q 740.9 29.2, 740.9 32.2 Q 740.9 35.3, 739.4 37.0 Q 737.9 38.7, 735.1 38.7 Q 732.4 38.7, 730.9 37.0 Q 729.4 35.3, 729.4 32.2 M 735.1 37.3 Q 737.0 37.3, 738.1 36.0 Q 739.1 34.7, 739.1 32.2 Q 739.1 29.8, 738.1 28.6 Q 737.0 27.3, 735.1 27.3 Q 733.2 27.3, 732.2 28.5 Q 731.1 29.8, 731.1 32.2 Q 731.1 34.8, 732.2 36.0 Q 733.2 37.3, 735.1 37.3 " fill="#FF0000"/>
<path class="atom-8" d="M 604.8 131.3 Q 604.8 128.3, 606.3 126.6 Q 607.8 125.0, 610.5 125.0 Q 613.3 125.0, 614.8 126.6 Q 616.3 128.3, 616.3 131.3 Q 616.3 134.3, 614.8 136.1 Q 613.3 137.8, 610.5 137.8 Q 607.8 137.8, 606.3 136.1 Q 604.8 134.4, 604.8 131.3 M 610.5 136.4 Q 612.4 136.4, 613.5 135.1 Q 614.5 133.8, 614.5 131.3 Q 614.5 128.9, 613.5 127.6 Q 612.4 126.4, 610.5 126.4 Q 608.6 126.4, 607.6 127.6 Q 606.6 128.8, 606.6 131.3 Q 606.6 133.8, 607.6 135.1 Q 608.6 136.4, 610.5 136.4 " fill="#FF0000"/>
<path class="atom-11" d="M 614.9 55.5 Q 614.9 52.5, 616.4 50.8 Q 617.9 49.2, 620.7 49.2 Q 623.4 49.2, 624.9 50.8 Q 626.4 52.5, 626.4 55.5 Q 626.4 58.6, 624.9 60.3 Q 623.4 62.0, 620.7 62.0 Q 617.9 62.0, 616.4 60.3 Q 614.9 58.6, 614.9 55.5 M 620.7 60.6 Q 622.6 60.6, 623.6 59.3 Q 624.6 58.0, 624.6 55.5 Q 624.6 53.1, 623.6 51.8 Q 622.6 50.6, 620.7 50.6 Q 618.7 50.6, 617.7 51.8 Q 616.7 53.0, 616.7 55.5 Q 616.7 58.0, 617.7 59.3 Q 618.7 60.6, 620.7 60.6 " fill="#FF0000"/>
<path class="atom-13" d="M 628.1 201.6 Q 628.1 198.6, 629.6 197.0 Q 631.0 195.3, 633.8 195.3 Q 636.6 195.3, 638.1 197.0 Q 639.6 198.6, 639.6 201.6 Q 639.6 204.7, 638.1 206.4 Q 636.6 208.1, 633.8 208.1 Q 631.1 208.1, 629.6 206.4 Q 628.1 204.7, 628.1 201.6 M 633.8 206.7 Q 635.7 206.7, 636.7 205.4 Q 637.8 204.1, 637.8 201.6 Q 637.8 199.2, 636.7 197.9 Q 635.7 196.7, 633.8 196.7 Q 631.9 196.7, 630.9 197.9 Q 629.8 199.2, 629.8 201.6 Q 629.8 204.2, 630.9 205.4 Q 631.9 206.7, 633.8 206.7 " fill="#FF0000"/>
<path class="atom-16" d="M 553.5 248.9 Q 553.5 245.9, 555.0 244.2 Q 556.5 242.6, 559.3 242.6 Q 562.0 242.6, 563.5 244.2 Q 565.0 245.9, 565.0 248.9 Q 565.0 252.0, 563.5 253.7 Q 562.0 255.4, 559.3 255.4 Q 556.5 255.4, 555.0 253.7 Q 553.5 252.0, 553.5 248.9 M 559.3 254.0 Q 561.2 254.0, 562.2 252.7 Q 563.2 251.4, 563.2 248.9 Q 563.2 246.5, 562.2 245.2 Q 561.2 244.0, 559.3 244.0 Q 557.3 244.0, 556.3 245.2 Q 555.3 246.5, 555.3 248.9 Q 555.3 251.5, 556.3 252.7 Q 557.3 254.0, 559.3 254.0 " fill="#FF0000"/>
<path class="atom-19" d="M 629.9 245.7 Q 629.9 242.7, 631.4 241.1 Q 632.9 239.4, 635.7 239.4 Q 638.4 239.4, 639.9 241.1 Q 641.4 242.7, 641.4 245.7 Q 641.4 248.8, 639.9 250.5 Q 638.4 252.2, 635.7 252.2 Q 632.9 252.2, 631.4 250.5 Q 629.9 248.8, 629.9 245.7 M 635.7 250.8 Q 637.6 250.8, 638.6 249.5 Q 639.6 248.2, 639.6 245.7 Q 639.6 243.3, 638.6 242.1 Q 637.6 240.8, 635.7 240.8 Q 633.7 240.8, 632.7 242.0 Q 631.7 243.3, 631.7 245.7 Q 631.7 248.3, 632.7 249.5 Q 633.7 250.8, 635.7 250.8 " fill="#FF0000"/>
<path class="atom-21" d="M 475.3 208.0 Q 475.3 205.0, 476.8 203.3 Q 478.2 201.6, 481.0 201.6 Q 483.8 201.6, 485.3 203.3 Q 486.8 205.0, 486.8 208.0 Q 486.8 211.0, 485.2 212.8 Q 483.7 214.5, 481.0 214.5 Q 478.3 214.5, 476.8 212.8 Q 475.3 211.1, 475.3 208.0 M 481.0 213.1 Q 482.9 213.1, 483.9 211.8 Q 485.0 210.5, 485.0 208.0 Q 485.0 205.5, 483.9 204.3 Q 482.9 203.1, 481.0 203.1 Q 479.1 203.1, 478.1 204.3 Q 477.0 205.5, 477.0 208.0 Q 477.0 210.5, 478.1 211.8 Q 479.1 213.1, 481.0 213.1 " fill="#FF0000"/>
<path class="atom-23" d="M 516.2 272.6 Q 516.2 269.6, 517.7 267.9 Q 519.2 266.2, 522.0 266.2 Q 524.7 266.2, 526.2 267.9 Q 527.7 269.6, 527.7 272.6 Q 527.7 275.6, 526.2 277.3 Q 524.7 279.1, 522.0 279.1 Q 519.2 279.1, 517.7 277.3 Q 516.2 275.6, 516.2 272.6 M 522.0 277.6 Q 523.9 277.6, 524.9 276.4 Q 525.9 275.1, 525.9 272.6 Q 525.9 270.1, 524.9 268.9 Q 523.9 267.6, 522.0 267.6 Q 520.1 267.6, 519.0 268.9 Q 518.0 270.1, 518.0 272.6 Q 518.0 275.1, 519.0 276.4 Q 520.1 277.6, 522.0 277.6 " fill="#FF0000"/>
<path class="atom-28" d="M 553.8 130.8 Q 553.8 127.8, 555.3 126.1 Q 556.8 124.4, 559.6 124.4 Q 562.3 124.4, 563.8 126.1 Q 565.3 127.8, 565.3 130.8 Q 565.3 133.8, 563.8 135.5 Q 562.3 137.3, 559.6 137.3 Q 556.8 137.3, 555.3 135.5 Q 553.8 133.8, 553.8 130.8 M 559.6 135.8 Q 561.5 135.8, 562.5 134.6 Q 563.5 133.3, 563.5 130.8 Q 563.5 128.3, 562.5 127.1 Q 561.5 125.8, 559.6 125.8 Q 557.7 125.8, 556.6 127.1 Q 555.6 128.3, 555.6 130.8 Q 555.6 133.3, 556.6 134.6 Q 557.7 135.8, 559.6 135.8 " fill="#FF0000"/>
<path class="atom-29" d="M 594.0 153.8 L 595.8 151.9 L 593.4 151.4 L 593.8 150.2 L 596.0 151.3 L 595.7 148.8 L 597.0 148.8 L 596.6 151.3 L 598.9 150.2 L 599.3 151.4 L 596.8 151.9 L 598.6 153.8 L 597.5 154.5 L 596.3 152.2 L 595.1 154.5 L 594.0 153.8 " fill="#191919"/>
<path class="atom-30" d="M 493.9 99.4 Q 493.9 96.4, 495.4 94.7 Q 496.9 93.1, 499.6 93.1 Q 502.4 93.1, 503.9 94.7 Q 505.4 96.4, 505.4 99.4 Q 505.4 102.5, 503.9 104.2 Q 502.4 105.9, 499.6 105.9 Q 496.9 105.9, 495.4 104.2 Q 493.9 102.5, 493.9 99.4 M 499.6 104.5 Q 501.5 104.5, 502.6 103.2 Q 503.6 101.9, 503.6 99.4 Q 503.6 97.0, 502.6 95.7 Q 501.5 94.5, 499.6 94.5 Q 497.7 94.5, 496.7 95.7 Q 495.7 96.9, 495.7 99.4 Q 495.7 101.9, 496.7 103.2 Q 497.7 104.5, 499.6 104.5 " fill="#FF0000"/>
<path class="atom-33" d="M 420.3 195.0 Q 420.3 192.0, 421.8 190.3 Q 423.3 188.6, 426.0 188.6 Q 428.8 188.6, 430.3 190.3 Q 431.8 192.0, 431.8 195.0 Q 431.8 198.0, 430.3 199.7 Q 428.8 201.4, 426.0 201.4 Q 423.3 201.4, 421.8 199.7 Q 420.3 198.0, 420.3 195.0 M 426.0 200.0 Q 427.9 200.0, 429.0 198.8 Q 430.0 197.5, 430.0 195.0 Q 430.0 192.5, 429.0 191.3 Q 427.9 190.0, 426.0 190.0 Q 424.1 190.0, 423.1 191.3 Q 422.0 192.5, 422.0 195.0 Q 422.0 197.5, 423.1 198.8 Q 424.1 200.0, 426.0 200.0 " fill="#FF0000"/>
<path class="atom-36" d="M 344.5 184.8 Q 344.5 181.8, 346.0 180.2 Q 347.5 178.5, 350.2 178.5 Q 353.0 178.5, 354.5 180.2 Q 356.0 181.8, 356.0 184.8 Q 356.0 187.9, 354.5 189.6 Q 353.0 191.3, 350.2 191.3 Q 347.5 191.3, 346.0 189.6 Q 344.5 187.9, 344.5 184.8 M 350.2 189.9 Q 352.1 189.9, 353.2 188.6 Q 354.2 187.3, 354.2 184.8 Q 354.2 182.4, 353.2 181.1 Q 352.1 179.9, 350.2 179.9 Q 348.3 179.9, 347.3 181.1 Q 346.3 182.4, 346.3 184.8 Q 346.3 187.4, 347.3 188.6 Q 348.3 189.9, 350.2 189.9 " fill="#FF0000"/>
<path class="atom-37" d="M 708.5 168.5 Q 708.5 165.5, 710.0 163.8 Q 711.4 162.2, 714.2 162.2 Q 717.0 162.2, 718.5 163.8 Q 720.0 165.5, 720.0 168.5 Q 720.0 171.6, 718.5 173.3 Q 717.0 175.0, 714.2 175.0 Q 711.5 175.0, 710.0 173.3 Q 708.5 171.6, 708.5 168.5 M 714.2 173.6 Q 716.1 173.6, 717.2 172.3 Q 718.2 171.0, 718.2 168.5 Q 718.2 166.1, 717.2 164.8 Q 716.1 163.6, 714.2 163.6 Q 712.3 163.6, 711.3 164.8 Q 710.2 166.0, 710.2 168.5 Q 710.2 171.0, 711.3 172.3 Q 712.3 173.6, 714.2 173.6 " fill="#FF0000"/>
<path class="atom-40" d="M 746.7 267.1 Q 746.7 264.1, 748.2 262.4 Q 749.6 260.7, 752.4 260.7 Q 755.2 260.7, 756.7 262.4 Q 758.2 264.1, 758.2 267.1 Q 758.2 270.1, 756.6 271.8 Q 755.1 273.6, 752.4 273.6 Q 749.7 273.6, 748.2 271.8 Q 746.7 270.1, 746.7 267.1 M 752.4 272.1 Q 754.3 272.1, 755.3 270.9 Q 756.4 269.6, 756.4 267.1 Q 756.4 264.6, 755.3 263.4 Q 754.3 262.1, 752.4 262.1 Q 750.5 262.1, 749.5 263.4 Q 748.4 264.6, 748.4 267.1 Q 748.4 269.6, 749.5 270.9 Q 750.5 272.1, 752.4 272.1 " fill="#FF0000"/>
<path class="atom-42" d="M 723.5 340.0 Q 723.5 337.0, 725.0 335.3 Q 726.5 333.6, 729.3 333.6 Q 732.0 333.6, 733.5 335.3 Q 735.0 337.0, 735.0 340.0 Q 735.0 343.0, 733.5 344.7 Q 732.0 346.4, 729.3 346.4 Q 726.5 346.4, 725.0 344.7 Q 723.5 343.0, 723.5 340.0 M 729.3 345.0 Q 731.2 345.0, 732.2 343.8 Q 733.2 342.5, 733.2 340.0 Q 733.2 337.5, 732.2 336.3 Q 731.2 335.0, 729.3 335.0 Q 727.4 335.0, 726.3 336.2 Q 725.3 337.5, 725.3 340.0 Q 725.3 342.5, 726.3 343.8 Q 727.4 345.0, 729.3 345.0 " fill="#FF0000"/>
<path class="bond-0 atom-0 atom-1" d="M 679.3,559.3 L 674.0,576.0" style="fill:none;fill-rule:evenodd;stroke:#191919;stroke-width:2.0px;stroke-linecap:butt;stroke-linejoin:miter;stroke-opacity:1"/>
<path class="bond-0 atom-0 atom-1" d="M 674.0,576.0 L 668.7,592.7" style="fill:none;fill-rule:evenodd;stroke:#FF0000;stroke-width:2.0px;stroke-linecap:butt;stroke-linejoin:miter;stroke-opacity:1"/>
<path class="bond-1 atom-1 atom-2" d="M 659.0,602.1 L 641.1,606.1" style="fill:none;fill-rule:evenodd;stroke:#FF0000;stroke-width:2.0px;stroke-linecap:butt;stroke-linejoin:miter;stroke-opacity:1"/>
<path class="bond-1 atom-1 atom-2" d="M 641.1,606.1 L 623.1,610.0" style="fill:none;fill-rule:evenodd;stroke:#000000;stroke-width:2.0px;stroke-linecap:butt;stroke-linejoin:miter;stroke-opacity:1"/>
<path class="bond-2 atom-2 atom-3" d="M 623.1,610.0 L 609.7,652.1" style="fill:none;fill-rule:evenodd;stroke:#000000;stroke-width:2.0px;stroke-linecap:butt;stroke-linejoin:miter;stroke-opacity:1"/>
<path class="bond-3 atom-2 atom-4" d="M 623.1,610.0 L 593.3,577.4" style="fill:none;fill-rule:evenodd;stroke:#000000;stroke-width:2.0px;stroke-linecap:butt;stroke-linejoin:miter;stroke-opacity:1"/>
<path class="bond-4 atom-4 atom-5" d="M 593.3,577.4 L 550.2,586.9" style="fill:none;fill-rule:evenodd;stroke:#000000;stroke-width:2.0px;stroke-linecap:butt;stroke-linejoin:miter;stroke-opacity:1"/>
<path class="bond-5 atom-5 atom-6" d="M 550.2,586.9 L 535.7,571.0" style="fill:none;fill-rule:evenodd;stroke:#000000;stroke-width:2.0px;stroke-linecap:butt;stroke-linejoin:miter;stroke-opacity:1"/>
<path class="bond-5 atom-5 atom-6" d="M 535.7,571.0 L 521.2,555.1" style="fill:none;fill-rule:evenodd;stroke:#191919;stroke-width:2.0px;stroke-linecap:butt;stroke-linejoin:miter;stroke-opacity:1"/>
<path class="bond-6 atom-5 atom-7" d="M 547.6,584.1 L 541.9,602.1" style="fill:none;fill-rule:evenodd;stroke:#000000;stroke-width:2.0px;stroke-linecap:butt;stroke-linejoin:miter;stroke-opacity:1"/>
<path class="bond-6 atom-5 atom-7" d="M 541.9,602.1 L 536.2,620.2" style="fill:none;fill-rule:evenodd;stroke:#FF0000;stroke-width:2.0px;stroke-linecap:butt;stroke-linejoin:miter;stroke-opacity:1"/>
<path class="bond-6 atom-5 atom-7" d="M 553.9,586.1 L 548.2,604.1" style="fill:none;fill-rule:evenodd;stroke:#000000;stroke-width:2.0px;stroke-linecap:butt;stroke-linejoin:miter;stroke-opacity:1"/>
<path class="bond-6 atom-5 atom-7" d="M 548.2,604.1 L 542.5,622.2" style="fill:none;fill-rule:evenodd;stroke:#FF0000;stroke-width:2.0px;stroke-linecap:butt;stroke-linejoin:miter;stroke-opacity:1"/>
<path d="M 594.8,579.0 L 593.3,577.4 L 591.2,577.9" style="fill:none;stroke:#000000;stroke-width:2.0px;stroke-linecap:butt;stroke-linejoin:miter;stroke-opacity:1;"/>
<path d="M 552.4,586.4 L 550.2,586.9 L 549.5,586.1" style="fill:none;stroke:#000000;stroke-width:2.0px;stroke-linecap:butt;stroke-linejoin:miter;stroke-opacity:1;"/>
<path class="atom-0" d="M 677.2 557.0 L 679.0 555.2 L 676.6 554.7 L 677.0 553.4 L 679.2 554.6 L 678.9 552.1 L 680.2 552.1 L 679.9 554.5 L 682.1 553.5 L 682.5 554.7 L 680.0 555.1 L 681.8 557.0 L 680.7 557.8 L 679.5 555.5 L 678.3 557.8 L 677.2 557.0 " fill="#191919"/>
<path class="atom-1" d="M 660.5 600.6 Q 660.5 597.6, 662.0 595.9 Q 663.4 594.2, 666.2 594.2 Q 669.0 594.2, 670.5 595.9 Q 672.0 597.6, 672.0 600.6 Q 672.0 603.6, 670.4 605.3 Q 668.9 607.0, 666.2 607.0 Q 663.5 607.0, 662.0 605.3 Q 660.5 603.6, 660.5 600.6 M 666.2 605.6 Q 668.1 605.6, 669.1 604.4 Q 670.2 603.1, 670.2 600.6 Q 670.2 598.1, 669.1 596.9 Q 668.1 595.6, 666.2 595.6 Q 664.3 595.6, 663.3 596.9 Q 662.2 598.1, 662.2 600.6 Q 662.2 603.1, 663.3 604.4 Q 664.3 605.6, 666.2 605.6 " fill="#FF0000"/>
<path class="atom-6" d="M 518.1 552.9 L 519.9 551.0 L 517.5 550.5 L 517.8 549.3 L 520.1 550.4 L 519.8 547.9 L 521.1 547.9 L 520.7 550.4 L 523.0 549.3 L 523.4 550.5 L 520.9 551.0 L 522.7 552.9 L 521.6 553.6 L 520.4 551.3 L 519.2 553.6 L 518.1 552.9 " fill="#191919"/>
<path class="atom-7" d="M 531.1 629.0 Q 531.1 626.0, 532.6 624.3 Q 534.1 622.6, 536.9 622.6 Q 539.6 622.6, 541.1 624.3 Q 542.6 626.0, 542.6 629.0 Q 542.6 632.0, 541.1 633.8 Q 539.6 635.5, 536.9 635.5 Q 534.1 635.5, 532.6 633.8 Q 531.1 632.0, 531.1 629.0 M 536.9 634.1 Q 538.8 634.1, 539.8 632.8 Q 540.8 631.5, 540.8 629.0 Q 540.8 626.5, 539.8 625.3 Q 538.8 624.0, 536.9 624.0 Q 534.9 624.0, 533.9 625.3 Q 532.9 626.5, 532.9 629.0 Q 532.9 631.5, 533.9 632.8 Q 534.9 634.1, 536.9 634.1 " fill="#FF0000"/>
</svg>