<svg xmlns="http://www.w3.org/2000/svg" xmlns:rdkit="http://www.rdkit.org/xml" xmlns:xlink="http://www.w3.org/1999/xlink" version="1.1" baseProfile="full" xml:space="preserve" width="1200px" height="800px" viewBox="0 0 1200 800">
<!-- END OF HEADER -->
<rect style="opacity:1.0;fill:#FFFFFF;stroke:none" width="1200.0" height="800.0" x="0.0" y="0.0"> </rect>
<path class="bond-0 atom-0 atom-1" d="M 320.9,250.1 L 344.9,262.8" style="fill:none;fill-rule:evenodd;stroke:#191919;stroke-width:2.0px;stroke-linecap:butt;stroke-linejoin:miter;stroke-opacity:1"/>
<path class="bond-0 atom-0 atom-1" d="M 344.9,262.8 L 368.9,275.4" style="fill:none;fill-rule:evenodd;stroke:#FF0000;stroke-width:2.0px;stroke-linecap:butt;stroke-linejoin:miter;stroke-opacity:1"/>
<path class="bond-1 atom-1 atom-2" d="M 391.7,274.2 L 415.5,259.2" style="fill:none;fill-rule:evenodd;stroke:#FF0000;stroke-width:2.0px;stroke-linecap:butt;stroke-linejoin:miter;stroke-opacity:1"/>
<path class="bond-1 atom-1 atom-2" d="M 415.5,259.2 L 439.4,244.1" style="fill:none;fill-rule:evenodd;stroke:#000000;stroke-width:2.0px;stroke-linecap:butt;stroke-linejoin:miter;stroke-opacity:1"/>
<path class="bond-2 atom-2 atom-3" d="M 439.4,244.1 L 438.3,215.5" style="fill:none;fill-rule:evenodd;stroke:#000000;stroke-width:2.0px;stroke-linecap:butt;stroke-linejoin:miter;stroke-opacity:1"/>
<path class="bond-2 atom-2 atom-3" d="M 438.3,215.5 L 437.2,186.9" style="fill:none;fill-rule:evenodd;stroke:#FF0000;stroke-width:2.0px;stroke-linecap:butt;stroke-linejoin:miter;stroke-opacity:1"/>
<path class="bond-3 atom-3 atom-4" d="M 448.1,167.2 L 471.9,152.1" style="fill:none;fill-rule:evenodd;stroke:#FF0000;stroke-width:2.0px;stroke-linecap:butt;stroke-linejoin:miter;stroke-opacity:1"/>
<path class="bond-3 atom-3 atom-4" d="M 471.9,152.1 L 495.8,137.1" style="fill:none;fill-rule:evenodd;stroke:#000000;stroke-width:2.0px;stroke-linecap:butt;stroke-linejoin:miter;stroke-opacity:1"/>
<path class="bond-4 atom-4 atom-5" d="M 495.8,137.1 L 493.1,67.3" style="fill:none;fill-rule:evenodd;stroke:#000000;stroke-width:2.0px;stroke-linecap:butt;stroke-linejoin:miter;stroke-opacity:1"/>
<path class="bond-5 atom-5 atom-6" d="M 493.1,67.3 L 516.9,52.2" style="fill:none;fill-rule:evenodd;stroke:#000000;stroke-width:2.0px;stroke-linecap:butt;stroke-linejoin:miter;stroke-opacity:1"/>
<path class="bond-5 atom-5 atom-6" d="M 516.9,52.2 L 540.8,37.2" style="fill:none;fill-rule:evenodd;stroke:#FF0000;stroke-width:2.0px;stroke-linecap:butt;stroke-linejoin:miter;stroke-opacity:1"/>
<path class="bond-6 atom-4 atom-7" d="M 495.8,137.1 L 557.6,169.6" style="fill:none;fill-rule:evenodd;stroke:#000000;stroke-width:2.0px;stroke-linecap:butt;stroke-linejoin:miter;stroke-opacity:1"/>
<path class="bond-7 atom-7 atom-8" d="M 560.8,168.0 L 560.4,167.4" style="fill:none;fill-rule:evenodd;stroke:#000000;stroke-width:1.0px;stroke-linecap:butt;stroke-linejoin:miter;stroke-opacity:1"/>
<path class="bond-7 atom-7 atom-8" d="M 564.1,166.5 L 563.3,165.2" style="fill:none;fill-rule:evenodd;stroke:#000000;stroke-width:1.0px;stroke-linecap:butt;stroke-linejoin:miter;stroke-opacity:1"/>
<path class="bond-7 atom-7 atom-8" d="M 567.3,164.9 L 566.1,163.0" style="fill:none;fill-rule:evenodd;stroke:#000000;stroke-width:1.0px;stroke-linecap:butt;stroke-linejoin:miter;stroke-opacity:1"/>
<path class="bond-7 atom-7 atom-8" d="M 570.5,163.3 L 568.9,160.7" style="fill:none;fill-rule:evenodd;stroke:#000000;stroke-width:1.0px;stroke-linecap:butt;stroke-linejoin:miter;stroke-opacity:1"/>
<path class="bond-7 atom-7 atom-8" d="M 573.7,161.7 L 571.7,158.5" style="fill:none;fill-rule:evenodd;stroke:#000000;stroke-width:1.0px;stroke-linecap:butt;stroke-linejoin:miter;stroke-opacity:1"/>
<path class="bond-7 atom-7 atom-8" d="M 577.0,160.1 L 574.6,156.3" style="fill:none;fill-rule:evenodd;stroke:#000000;stroke-width:1.0px;stroke-linecap:butt;stroke-linejoin:miter;stroke-opacity:1"/>
<path class="bond-7 atom-7 atom-8" d="M 580.2,158.5 L 577.4,154.1" style="fill:none;fill-rule:evenodd;stroke:#000000;stroke-width:1.0px;stroke-linecap:butt;stroke-linejoin:miter;stroke-opacity:1"/>
<path class="bond-7 atom-7 atom-8" d="M 583.4,156.9 L 580.2,151.8" style="fill:none;fill-rule:evenodd;stroke:#FF0000;stroke-width:1.0px;stroke-linecap:butt;stroke-linejoin:miter;stroke-opacity:1"/>
<path class="bond-7 atom-7 atom-8" d="M 586.6,155.3 L 583.0,149.6" style="fill:none;fill-rule:evenodd;stroke:#FF0000;stroke-width:1.0px;stroke-linecap:butt;stroke-linejoin:miter;stroke-opacity:1"/>
<path class="bond-7 atom-7 atom-8" d="M 589.9,153.7 L 585.9,147.4" style="fill:none;fill-rule:evenodd;stroke:#FF0000;stroke-width:1.0px;stroke-linecap:butt;stroke-linejoin:miter;stroke-opacity:1"/>
<path class="bond-7 atom-7 atom-8" d="M 593.1,152.1 L 588.7,145.2" style="fill:none;fill-rule:evenodd;stroke:#FF0000;stroke-width:1.0px;stroke-linecap:butt;stroke-linejoin:miter;stroke-opacity:1"/>
<path class="bond-7 atom-7 atom-8" d="M 596.3,150.5 L 591.5,143.0" style="fill:none;fill-rule:evenodd;stroke:#FF0000;stroke-width:1.0px;stroke-linecap:butt;stroke-linejoin:miter;stroke-opacity:1"/>
<path class="bond-7 atom-7 atom-8" d="M 599.5,149.0 L 594.3,140.7" style="fill:none;fill-rule:evenodd;stroke:#FF0000;stroke-width:1.0px;stroke-linecap:butt;stroke-linejoin:miter;stroke-opacity:1"/>
<path class="bond-7 atom-7 atom-8" d="M 602.8,147.4 L 597.2,138.5" style="fill:none;fill-rule:evenodd;stroke:#FF0000;stroke-width:1.0px;stroke-linecap:butt;stroke-linejoin:miter;stroke-opacity:1"/>
<path class="bond-8 atom-8 atom-9" d="M 628.1,138.4 L 653.3,151.7" style="fill:none;fill-rule:evenodd;stroke:#FF0000;stroke-width:2.0px;stroke-linecap:butt;stroke-linejoin:miter;stroke-opacity:1"/>
<path class="bond-8 atom-8 atom-9" d="M 653.3,151.7 L 678.5,164.9" style="fill:none;fill-rule:evenodd;stroke:#000000;stroke-width:2.0px;stroke-linecap:butt;stroke-linejoin:miter;stroke-opacity:1"/>
<path class="bond-9 atom-9 atom-10" d="M 678.5,164.9 L 679.6,193.7" style="fill:none;fill-rule:evenodd;stroke:#000000;stroke-width:2.0px;stroke-linecap:butt;stroke-linejoin:miter;stroke-opacity:1"/>
<path class="bond-9 atom-9 atom-10" d="M 679.6,193.7 L 680.8,222.4" style="fill:none;fill-rule:evenodd;stroke:#FF0000;stroke-width:2.0px;stroke-linecap:butt;stroke-linejoin:miter;stroke-opacity:1"/>
<path class="bond-10 atom-10 atom-11" d="M 692.6,240.8 L 717.8,254.0" style="fill:none;fill-rule:evenodd;stroke:#FF0000;stroke-width:2.0px;stroke-linecap:butt;stroke-linejoin:miter;stroke-opacity:1"/>
<path class="bond-10 atom-10 atom-11" d="M 717.8,254.0 L 743.1,267.3" style="fill:none;fill-rule:evenodd;stroke:#000000;stroke-width:2.0px;stroke-linecap:butt;stroke-linejoin:miter;stroke-opacity:1"/>
<path class="bond-11 atom-11 atom-12" d="M 743.1,267.3 L 745.8,337.1" style="fill:none;fill-rule:evenodd;stroke:#000000;stroke-width:2.0px;stroke-linecap:butt;stroke-linejoin:miter;stroke-opacity:1"/>
<path class="bond-12 atom-12 atom-13" d="M 745.8,337.1 L 771.0,350.4" style="fill:none;fill-rule:evenodd;stroke:#000000;stroke-width:2.0px;stroke-linecap:butt;stroke-linejoin:miter;stroke-opacity:1"/>
<path class="bond-12 atom-12 atom-13" d="M 771.0,350.4 L 796.2,363.7" style="fill:none;fill-rule:evenodd;stroke:#FF0000;stroke-width:2.0px;stroke-linecap:butt;stroke-linejoin:miter;stroke-opacity:1"/>
<path class="bond-13 atom-11 atom-14" d="M 743.1,267.3 L 802.2,230.1" style="fill:none;fill-rule:evenodd;stroke:#000000;stroke-width:2.0px;stroke-linecap:butt;stroke-linejoin:miter;stroke-opacity:1"/>
<path class="bond-14 atom-14 atom-15" d="M 802.2,230.1 L 829.6,241.6 L 827.2,246.2 Z" style="fill:#000000;fill-rule:evenodd;fill-opacity:1;stroke:#000000;stroke-width:0.5px;stroke-linecap:butt;stroke-linejoin:miter;stroke-opacity:1;"/>
<path class="bond-14 atom-14 atom-15" d="M 829.6,241.6 L 852.2,262.4 L 857.1,253.1 Z" style="fill:#191919;fill-rule:evenodd;fill-opacity:1;stroke:#191919;stroke-width:0.5px;stroke-linecap:butt;stroke-linejoin:miter;stroke-opacity:1;"/>
<path class="bond-14 atom-14 atom-15" d="M 829.6,241.6 L 827.2,246.2 L 852.2,262.4 Z" style="fill:#191919;fill-rule:evenodd;fill-opacity:1;stroke:#191919;stroke-width:0.5px;stroke-linecap:butt;stroke-linejoin:miter;stroke-opacity:1;"/>
<path class="bond-15 atom-14 atom-16" d="M 802.2,230.1 L 799.5,160.2" style="fill:none;fill-rule:evenodd;stroke:#000000;stroke-width:2.0px;stroke-linecap:butt;stroke-linejoin:miter;stroke-opacity:1"/>
<path class="bond-16 atom-16 atom-17" d="M 799.5,160.2 L 823.3,145.2" style="fill:none;fill-rule:evenodd;stroke:#000000;stroke-width:2.0px;stroke-linecap:butt;stroke-linejoin:miter;stroke-opacity:1"/>
<path class="bond-16 atom-16 atom-17" d="M 823.3,145.2 L 847.2,130.2" style="fill:none;fill-rule:evenodd;stroke:#FF0000;stroke-width:2.0px;stroke-linecap:butt;stroke-linejoin:miter;stroke-opacity:1"/>
<path class="bond-17 atom-16 atom-18" d="M 799.5,160.2 L 737.6,127.7" style="fill:none;fill-rule:evenodd;stroke:#000000;stroke-width:2.0px;stroke-linecap:butt;stroke-linejoin:miter;stroke-opacity:1"/>
<path class="bond-18 atom-18 atom-19" d="M 737.2,124.3 L 737.8,124.2" style="fill:none;fill-rule:evenodd;stroke:#000000;stroke-width:1.0px;stroke-linecap:butt;stroke-linejoin:miter;stroke-opacity:1"/>
<path class="bond-18 atom-18 atom-19" d="M 736.7,120.8 L 738.0,120.8" style="fill:none;fill-rule:evenodd;stroke:#000000;stroke-width:1.0px;stroke-linecap:butt;stroke-linejoin:miter;stroke-opacity:1"/>
<path class="bond-18 atom-18 atom-19" d="M 736.3,117.4 L 738.2,117.4" style="fill:none;fill-rule:evenodd;stroke:#000000;stroke-width:1.0px;stroke-linecap:butt;stroke-linejoin:miter;stroke-opacity:1"/>
<path class="bond-18 atom-18 atom-19" d="M 735.8,114.0 L 738.4,113.9" style="fill:none;fill-rule:evenodd;stroke:#000000;stroke-width:1.0px;stroke-linecap:butt;stroke-linejoin:miter;stroke-opacity:1"/>
<path class="bond-18 atom-18 atom-19" d="M 735.3,110.6 L 738.6,110.5" style="fill:none;fill-rule:evenodd;stroke:#000000;stroke-width:1.0px;stroke-linecap:butt;stroke-linejoin:miter;stroke-opacity:1"/>
<path class="bond-18 atom-18 atom-19" d="M 734.9,107.2 L 738.8,107.0" style="fill:none;fill-rule:evenodd;stroke:#000000;stroke-width:1.0px;stroke-linecap:butt;stroke-linejoin:miter;stroke-opacity:1"/>
<path class="bond-18 atom-18 atom-19" d="M 734.4,103.8 L 739.0,103.6" style="fill:none;fill-rule:evenodd;stroke:#000000;stroke-width:1.0px;stroke-linecap:butt;stroke-linejoin:miter;stroke-opacity:1"/>
<path class="bond-18 atom-18 atom-19" d="M 734.0,100.3 L 739.2,100.1" style="fill:none;fill-rule:evenodd;stroke:#000000;stroke-width:1.0px;stroke-linecap:butt;stroke-linejoin:miter;stroke-opacity:1"/>
<path class="bond-18 atom-18 atom-19" d="M 733.5,96.9 L 739.4,96.7" style="fill:none;fill-rule:evenodd;stroke:#FF0000;stroke-width:1.0px;stroke-linecap:butt;stroke-linejoin:miter;stroke-opacity:1"/>
<path class="bond-18 atom-18 atom-19" d="M 733.0,93.5 L 739.6,93.3" style="fill:none;fill-rule:evenodd;stroke:#FF0000;stroke-width:1.0px;stroke-linecap:butt;stroke-linejoin:miter;stroke-opacity:1"/>
<path class="bond-18 atom-18 atom-19" d="M 732.6,90.1 L 739.8,89.8" style="fill:none;fill-rule:evenodd;stroke:#FF0000;stroke-width:1.0px;stroke-linecap:butt;stroke-linejoin:miter;stroke-opacity:1"/>
<path class="bond-18 atom-18 atom-19" d="M 732.1,86.7 L 740.0,86.4" style="fill:none;fill-rule:evenodd;stroke:#FF0000;stroke-width:1.0px;stroke-linecap:butt;stroke-linejoin:miter;stroke-opacity:1"/>
<path class="bond-18 atom-18 atom-19" d="M 731.7,83.3 L 740.2,82.9" style="fill:none;fill-rule:evenodd;stroke:#FF0000;stroke-width:1.0px;stroke-linecap:butt;stroke-linejoin:miter;stroke-opacity:1"/>
<path class="bond-18 atom-18 atom-19" d="M 731.2,79.8 L 740.4,79.5" style="fill:none;fill-rule:evenodd;stroke:#FF0000;stroke-width:1.0px;stroke-linecap:butt;stroke-linejoin:miter;stroke-opacity:1"/>
<path class="bond-18 atom-18 atom-19" d="M 730.7,76.4 L 740.5,76.0" style="fill:none;fill-rule:evenodd;stroke:#FF0000;stroke-width:1.0px;stroke-linecap:butt;stroke-linejoin:miter;stroke-opacity:1"/>
<path class="bond-18 atom-18 atom-19" d="M 730.3,73.0 L 740.7,72.6" style="fill:none;fill-rule:evenodd;stroke:#FF0000;stroke-width:1.0px;stroke-linecap:butt;stroke-linejoin:miter;stroke-opacity:1"/>
<path class="bond-19 atom-7 atom-20" d="M 557.6,169.6 L 560.3,239.4" style="fill:none;fill-rule:evenodd;stroke:#000000;stroke-width:2.0px;stroke-linecap:butt;stroke-linejoin:miter;stroke-opacity:1"/>
<path class="bond-20 atom-20 atom-21" d="M 563.5,240.7 L 563.2,241.3" style="fill:none;fill-rule:evenodd;stroke:#000000;stroke-width:1.0px;stroke-linecap:butt;stroke-linejoin:miter;stroke-opacity:1"/>
<path class="bond-20 atom-20 atom-21" d="M 566.6,242.0 L 566.0,243.2" style="fill:none;fill-rule:evenodd;stroke:#000000;stroke-width:1.0px;stroke-linecap:butt;stroke-linejoin:miter;stroke-opacity:1"/>
<path class="bond-20 atom-20 atom-21" d="M 569.8,243.3 L 568.9,245.1" style="fill:none;fill-rule:evenodd;stroke:#000000;stroke-width:1.0px;stroke-linecap:butt;stroke-linejoin:miter;stroke-opacity:1"/>
<path class="bond-20 atom-20 atom-21" d="M 573.0,244.6 L 571.7,246.9" style="fill:none;fill-rule:evenodd;stroke:#000000;stroke-width:1.0px;stroke-linecap:butt;stroke-linejoin:miter;stroke-opacity:1"/>
<path class="bond-20 atom-20 atom-21" d="M 576.1,245.9 L 574.6,248.8" style="fill:none;fill-rule:evenodd;stroke:#000000;stroke-width:1.0px;stroke-linecap:butt;stroke-linejoin:miter;stroke-opacity:1"/>
<path class="bond-20 atom-20 atom-21" d="M 579.3,247.2 L 577.5,250.7" style="fill:none;fill-rule:evenodd;stroke:#000000;stroke-width:1.0px;stroke-linecap:butt;stroke-linejoin:miter;stroke-opacity:1"/>
<path class="bond-20 atom-20 atom-21" d="M 582.4,248.5 L 580.3,252.6" style="fill:none;fill-rule:evenodd;stroke:#000000;stroke-width:1.0px;stroke-linecap:butt;stroke-linejoin:miter;stroke-opacity:1"/>
<path class="bond-20 atom-20 atom-21" d="M 585.6,249.8 L 583.2,254.4" style="fill:none;fill-rule:evenodd;stroke:#000000;stroke-width:1.0px;stroke-linecap:butt;stroke-linejoin:miter;stroke-opacity:1"/>
<path class="bond-20 atom-20 atom-21" d="M 588.8,251.1 L 586.0,256.3" style="fill:none;fill-rule:evenodd;stroke:#FF0000;stroke-width:1.0px;stroke-linecap:butt;stroke-linejoin:miter;stroke-opacity:1"/>
<path class="bond-20 atom-20 atom-21" d="M 591.9,252.4 L 588.9,258.2" style="fill:none;fill-rule:evenodd;stroke:#FF0000;stroke-width:1.0px;stroke-linecap:butt;stroke-linejoin:miter;stroke-opacity:1"/>
<path class="bond-20 atom-20 atom-21" d="M 595.1,253.7 L 591.7,260.1" style="fill:none;fill-rule:evenodd;stroke:#FF0000;stroke-width:1.0px;stroke-linecap:butt;stroke-linejoin:miter;stroke-opacity:1"/>
<path class="bond-20 atom-20 atom-21" d="M 598.2,255.0 L 594.6,261.9" style="fill:none;fill-rule:evenodd;stroke:#FF0000;stroke-width:1.0px;stroke-linecap:butt;stroke-linejoin:miter;stroke-opacity:1"/>
<path class="bond-20 atom-20 atom-21" d="M 601.4,256.3 L 597.4,263.8" style="fill:none;fill-rule:evenodd;stroke:#FF0000;stroke-width:1.0px;stroke-linecap:butt;stroke-linejoin:miter;stroke-opacity:1"/>
<path class="bond-20 atom-20 atom-21" d="M 604.6,257.6 L 600.3,265.7" style="fill:none;fill-rule:evenodd;stroke:#FF0000;stroke-width:1.0px;stroke-linecap:butt;stroke-linejoin:miter;stroke-opacity:1"/>
<path class="bond-20 atom-20 atom-21" d="M 607.7,258.9 L 603.1,267.6" style="fill:none;fill-rule:evenodd;stroke:#FF0000;stroke-width:1.0px;stroke-linecap:butt;stroke-linejoin:miter;stroke-opacity:1"/>
<path class="bond-20 atom-20 atom-21" d="M 610.9,260.2 L 606.0,269.4" style="fill:none;fill-rule:evenodd;stroke:#FF0000;stroke-width:1.0px;stroke-linecap:butt;stroke-linejoin:miter;stroke-opacity:1"/>
<path class="bond-21 atom-20 atom-22" d="M 560.3,239.4 L 501.2,276.7" style="fill:none;fill-rule:evenodd;stroke:#000000;stroke-width:2.0px;stroke-linecap:butt;stroke-linejoin:miter;stroke-opacity:1"/>
<path class="bond-22 atom-22 atom-23" d="M 501.7,280.1 L 501.0,280.2" style="fill:none;fill-rule:evenodd;stroke:#000000;stroke-width:1.0px;stroke-linecap:butt;stroke-linejoin:miter;stroke-opacity:1"/>
<path class="bond-22 atom-22 atom-23" d="M 502.1,283.6 L 500.8,283.6" style="fill:none;fill-rule:evenodd;stroke:#000000;stroke-width:1.0px;stroke-linecap:butt;stroke-linejoin:miter;stroke-opacity:1"/>
<path class="bond-22 atom-22 atom-23" d="M 502.6,287.0 L 500.6,287.1" style="fill:none;fill-rule:evenodd;stroke:#000000;stroke-width:1.0px;stroke-linecap:butt;stroke-linejoin:miter;stroke-opacity:1"/>
<path class="bond-22 atom-22 atom-23" d="M 503.1,290.5 L 500.4,290.6" style="fill:none;fill-rule:evenodd;stroke:#000000;stroke-width:1.0px;stroke-linecap:butt;stroke-linejoin:miter;stroke-opacity:1"/>
<path class="bond-22 atom-22 atom-23" d="M 503.5,293.9 L 500.2,294.0" style="fill:none;fill-rule:evenodd;stroke:#000000;stroke-width:1.0px;stroke-linecap:butt;stroke-linejoin:miter;stroke-opacity:1"/>
<path class="bond-22 atom-22 atom-23" d="M 504.0,297.3 L 500.1,297.5" style="fill:none;fill-rule:evenodd;stroke:#000000;stroke-width:1.0px;stroke-linecap:butt;stroke-linejoin:miter;stroke-opacity:1"/>
<path class="bond-22 atom-22 atom-23" d="M 504.4,300.8 L 499.9,300.9" style="fill:none;fill-rule:evenodd;stroke:#000000;stroke-width:1.0px;stroke-linecap:butt;stroke-linejoin:miter;stroke-opacity:1"/>
<path class="bond-22 atom-22 atom-23" d="M 504.9,304.2 L 499.7,304.4" style="fill:none;fill-rule:evenodd;stroke:#000000;stroke-width:1.0px;stroke-linecap:butt;stroke-linejoin:miter;stroke-opacity:1"/>
<path class="bond-22 atom-22 atom-23" d="M 505.4,307.6 L 499.5,307.9" style="fill:none;fill-rule:evenodd;stroke:#FF0000;stroke-width:1.0px;stroke-linecap:butt;stroke-linejoin:miter;stroke-opacity:1"/>
<path class="bond-22 atom-22 atom-23" d="M 505.8,311.1 L 499.3,311.3" style="fill:none;fill-rule:evenodd;stroke:#FF0000;stroke-width:1.0px;stroke-linecap:butt;stroke-linejoin:miter;stroke-opacity:1"/>
<path class="bond-22 atom-22 atom-23" d="M 506.3,314.5 L 499.1,314.8" style="fill:none;fill-rule:evenodd;stroke:#FF0000;stroke-width:1.0px;stroke-linecap:butt;stroke-linejoin:miter;stroke-opacity:1"/>
<path class="bond-22 atom-22 atom-23" d="M 506.7,317.9 L 498.9,318.3" style="fill:none;fill-rule:evenodd;stroke:#FF0000;stroke-width:1.0px;stroke-linecap:butt;stroke-linejoin:miter;stroke-opacity:1"/>
<path class="bond-22 atom-22 atom-23" d="M 507.2,321.4 L 498.7,321.7" style="fill:none;fill-rule:evenodd;stroke:#FF0000;stroke-width:1.0px;stroke-linecap:butt;stroke-linejoin:miter;stroke-opacity:1"/>
<path class="bond-22 atom-22 atom-23" d="M 507.7,324.8 L 498.5,325.2" style="fill:none;fill-rule:evenodd;stroke:#FF0000;stroke-width:1.0px;stroke-linecap:butt;stroke-linejoin:miter;stroke-opacity:1"/>
<path class="bond-22 atom-22 atom-23" d="M 508.1,328.3 L 498.3,328.6" style="fill:none;fill-rule:evenodd;stroke:#FF0000;stroke-width:1.0px;stroke-linecap:butt;stroke-linejoin:miter;stroke-opacity:1"/>
<path class="bond-22 atom-22 atom-23" d="M 508.6,331.7 L 498.1,332.1" style="fill:none;fill-rule:evenodd;stroke:#FF0000;stroke-width:1.0px;stroke-linecap:butt;stroke-linejoin:miter;stroke-opacity:1"/>
<path class="bond-23 atom-22 atom-2" d="M 501.2,276.7 L 439.4,244.1" style="fill:none;fill-rule:evenodd;stroke:#000000;stroke-width:2.0px;stroke-linecap:butt;stroke-linejoin:miter;stroke-opacity:1"/>
<path class="bond-24 atom-18 atom-9" d="M 737.6,127.7 L 678.5,164.9" style="fill:none;fill-rule:evenodd;stroke:#000000;stroke-width:2.0px;stroke-linecap:butt;stroke-linejoin:miter;stroke-opacity:1"/>
<path d="M 493.2,70.8 L 493.1,67.3 L 494.3,66.5" style="fill:none;stroke:#000000;stroke-width:2.0px;stroke-linecap:butt;stroke-linejoin:miter;stroke-opacity:1;"/>
<path d="M 554.5,168.0 L 557.6,169.6 L 557.7,173.1" style="fill:none;stroke:#000000;stroke-width:2.0px;stroke-linecap:butt;stroke-linejoin:miter;stroke-opacity:1;"/>
<path d="M 745.6,333.6 L 745.8,337.1 L 747.0,337.8" style="fill:none;stroke:#000000;stroke-width:2.0px;stroke-linecap:butt;stroke-linejoin:miter;stroke-opacity:1;"/>
<path d="M 799.2,231.9 L 802.2,230.1 L 802.0,226.6" style="fill:none;stroke:#000000;stroke-width:2.0px;stroke-linecap:butt;stroke-linejoin:miter;stroke-opacity:1;"/>
<path d="M 740.7,129.3 L 737.6,127.7 L 734.7,129.5" style="fill:none;stroke:#000000;stroke-width:2.0px;stroke-linecap:butt;stroke-linejoin:miter;stroke-opacity:1;"/>
<path d="M 560.2,236.0 L 560.3,239.4 L 557.4,241.3" style="fill:none;stroke:#000000;stroke-width:2.0px;stroke-linecap:butt;stroke-linejoin:miter;stroke-opacity:1;"/>
<path d="M 504.2,274.8 L 501.2,276.7 L 498.1,275.1" style="fill:none;stroke:#000000;stroke-width:2.0px;stroke-linecap:butt;stroke-linejoin:miter;stroke-opacity:1;"/>
<path class="atom-0" d="M 314.7 246.6 L 317.7 243.7 L 313.8 242.9 L 314.4 240.9 L 317.9 242.7 L 317.4 238.8 L 319.5 238.8 L 318.9 242.7 L 322.5 241.0 L 323.2 242.9 L 319.2 243.6 L 322.0 246.6 L 320.3 247.8 L 318.4 244.1 L 316.5 247.8 L 314.7 246.6 " fill="#191919"/>
<path class="atom-1" d="M 371.2 281.5 Q 371.2 276.7, 373.6 274.0 Q 375.9 271.4, 380.3 271.4 Q 384.7 271.4, 387.0 274.0 Q 389.4 276.7, 389.4 281.5 Q 389.4 286.3, 387.0 289.0 Q 384.6 291.7, 380.3 291.7 Q 375.9 291.7, 373.6 289.0 Q 371.2 286.3, 371.2 281.5 M 380.3 289.5 Q 383.3 289.5, 384.9 287.5 Q 386.6 285.4, 386.6 281.5 Q 386.6 277.6, 384.9 275.6 Q 383.3 273.6, 380.3 273.6 Q 377.3 273.6, 375.6 275.6 Q 374.0 277.5, 374.0 281.5 Q 374.0 285.4, 375.6 287.5 Q 377.3 289.5, 380.3 289.5 " fill="#FF0000"/>
<path class="atom-3" d="M 427.6 174.4 Q 427.6 169.6, 430.0 167.0 Q 432.3 164.3, 436.7 164.3 Q 441.1 164.3, 443.4 167.0 Q 445.8 169.6, 445.8 174.4 Q 445.8 179.2, 443.4 181.9 Q 441.0 184.6, 436.7 184.6 Q 432.3 184.6, 430.0 181.9 Q 427.6 179.2, 427.6 174.4 M 436.7 182.4 Q 439.7 182.4, 441.3 180.4 Q 443.0 178.4, 443.0 174.4 Q 443.0 170.5, 441.3 168.5 Q 439.7 166.6, 436.7 166.6 Q 433.7 166.6, 432.0 168.5 Q 430.4 170.5, 430.4 174.4 Q 430.4 178.4, 432.0 180.4 Q 433.7 182.4, 436.7 182.4 " fill="#FF0000"/>
<path class="atom-6" d="M 543.1 30.1 Q 543.1 25.3, 545.5 22.7 Q 547.8 20.0, 552.2 20.0 Q 556.6 20.0, 558.9 22.7 Q 561.3 25.3, 561.3 30.1 Q 561.3 34.9, 558.9 37.6 Q 556.5 40.3, 552.2 40.3 Q 547.8 40.3, 545.5 37.6 Q 543.1 34.9, 543.1 30.1 M 552.2 38.1 Q 555.2 38.1, 556.8 36.1 Q 558.5 34.0, 558.5 30.1 Q 558.5 26.2, 556.8 24.2 Q 555.2 22.2, 552.2 22.2 Q 549.2 22.2, 547.5 24.2 Q 545.9 26.1, 545.9 30.1 Q 545.9 34.1, 547.5 36.1 Q 549.2 38.1, 552.2 38.1 " fill="#FF0000"/>
<path class="atom-6" d="M 564.4 20.2 L 567.0 20.2 L 567.0 28.6 L 577.2 28.6 L 577.2 20.2 L 579.8 20.2 L 579.8 40.0 L 577.2 40.0 L 577.2 30.9 L 567.0 30.9 L 567.0 40.0 L 564.4 40.0 L 564.4 20.2 " fill="#FF0000"/>
<path class="atom-8" d="M 607.6 132.4 Q 607.6 127.7, 610.0 125.0 Q 612.3 122.4, 616.7 122.4 Q 621.1 122.4, 623.5 125.0 Q 625.8 127.7, 625.8 132.4 Q 625.8 137.2, 623.4 140.0 Q 621.0 142.7, 616.7 142.7 Q 612.4 142.7, 610.0 140.0 Q 607.6 137.3, 607.6 132.4 M 616.7 140.5 Q 619.7 140.5, 621.4 138.4 Q 623.0 136.4, 623.0 132.4 Q 623.0 128.6, 621.4 126.6 Q 619.7 124.6, 616.7 124.6 Q 613.7 124.6, 612.0 126.6 Q 610.4 128.5, 610.4 132.4 Q 610.4 136.4, 612.0 138.4 Q 613.7 140.5, 616.7 140.5 " fill="#FF0000"/>
<path class="atom-10" d="M 672.2 234.8 Q 672.2 230.1, 674.5 227.4 Q 676.9 224.7, 681.2 224.7 Q 685.6 224.7, 688.0 227.4 Q 690.3 230.1, 690.3 234.8 Q 690.3 239.6, 687.9 242.4 Q 685.6 245.1, 681.2 245.1 Q 676.9 245.1, 674.5 242.4 Q 672.2 239.6, 672.2 234.8 M 681.2 242.8 Q 684.3 242.8, 685.9 240.8 Q 687.5 238.8, 687.5 234.8 Q 687.5 230.9, 685.9 229.0 Q 684.3 227.0, 681.2 227.0 Q 678.2 227.0, 676.6 228.9 Q 675.0 230.9, 675.0 234.8 Q 675.0 238.8, 676.6 240.8 Q 678.2 242.8, 681.2 242.8 " fill="#FF0000"/>
<path class="atom-13" d="M 798.5 369.7 Q 798.5 365.0, 800.9 362.3 Q 803.2 359.7, 807.6 359.7 Q 812.0 359.7, 814.3 362.3 Q 816.7 365.0, 816.7 369.7 Q 816.7 374.6, 814.3 377.3 Q 811.9 380.0, 807.6 380.0 Q 803.2 380.0, 800.9 377.3 Q 798.5 374.6, 798.5 369.7 M 807.6 377.8 Q 810.6 377.8, 812.2 375.8 Q 813.9 373.7, 813.9 369.7 Q 813.9 365.9, 812.2 363.9 Q 810.6 361.9, 807.6 361.9 Q 804.6 361.9, 802.9 363.9 Q 801.3 365.8, 801.3 369.7 Q 801.3 373.7, 802.9 375.8 Q 804.6 377.8, 807.6 377.8 " fill="#FF0000"/>
<path class="atom-13" d="M 819.7 359.9 L 822.4 359.9 L 822.4 368.3 L 832.5 368.3 L 832.5 359.9 L 835.2 359.9 L 835.2 379.7 L 832.5 379.7 L 832.5 370.6 L 822.4 370.6 L 822.4 379.7 L 819.7 379.7 L 819.7 359.9 " fill="#FF0000"/>
<path class="atom-15" d="M 860.3 260.4 L 863.2 257.4 L 859.3 256.7 L 859.9 254.7 L 863.4 256.5 L 862.9 252.6 L 865.0 252.6 L 864.4 256.4 L 868.0 254.8 L 868.7 256.7 L 864.7 257.4 L 867.5 260.4 L 865.8 261.6 L 863.9 257.9 L 862.0 261.6 L 860.3 260.4 " fill="#191919"/>
<path class="atom-17" d="M 849.5 123.0 Q 849.5 118.3, 851.8 115.6 Q 854.2 113.0, 858.6 113.0 Q 862.9 113.0, 865.3 115.6 Q 867.6 118.3, 867.6 123.0 Q 867.6 127.9, 865.3 130.6 Q 862.9 133.3, 858.6 133.3 Q 854.2 133.3, 851.8 130.6 Q 849.5 127.9, 849.5 123.0 M 858.6 131.1 Q 861.6 131.1, 863.2 129.1 Q 864.8 127.0, 864.8 123.0 Q 864.8 119.2, 863.2 117.2 Q 861.6 115.2, 858.6 115.2 Q 855.5 115.2, 853.9 117.2 Q 852.3 119.1, 852.3 123.0 Q 852.3 127.0, 853.9 129.1 Q 855.5 131.1, 858.6 131.1 " fill="#FF0000"/>
<path class="atom-17" d="M 870.7 113.2 L 873.4 113.2 L 873.4 121.6 L 883.5 121.6 L 883.5 113.2 L 886.2 113.2 L 886.2 133.0 L 883.5 133.0 L 883.5 123.9 L 873.4 123.9 L 873.4 133.0 L 870.7 133.0 L 870.7 113.2 " fill="#FF0000"/>
<path class="atom-19" d="M 725.8 57.9 Q 725.8 53.2, 728.2 50.5 Q 730.5 47.9, 734.9 47.9 Q 739.3 47.9, 741.7 50.5 Q 744.0 53.2, 744.0 57.9 Q 744.0 62.7, 741.6 65.5 Q 739.3 68.2, 734.9 68.2 Q 730.6 68.2, 728.2 65.5 Q 725.8 62.8, 725.8 57.9 M 734.9 65.9 Q 737.9 65.9, 739.6 63.9 Q 741.2 61.9, 741.2 57.9 Q 741.2 54.0, 739.6 52.1 Q 737.9 50.1, 734.9 50.1 Q 731.9 50.1, 730.3 52.1 Q 728.6 54.0, 728.6 57.9 Q 728.6 61.9, 730.3 63.9 Q 731.9 65.9, 734.9 65.9 " fill="#FF0000"/>
<path class="atom-19" d="M 747.1 48.1 L 749.8 48.1 L 749.8 56.5 L 759.9 56.5 L 759.9 48.1 L 762.6 48.1 L 762.6 67.9 L 759.9 67.9 L 759.9 58.7 L 749.8 58.7 L 749.8 67.9 L 747.1 67.9 L 747.1 48.1 " fill="#FF0000"/>
<path class="atom-21" d="M 613.1 272.1 Q 613.1 267.3, 615.4 264.7 Q 617.7 262.0, 622.1 262.0 Q 626.5 262.0, 628.9 264.7 Q 631.2 267.3, 631.2 272.1 Q 631.2 276.9, 628.8 279.6 Q 626.5 282.3, 622.1 282.3 Q 617.8 282.3, 615.4 279.6 Q 613.1 276.9, 613.1 272.1 M 622.1 280.1 Q 625.2 280.1, 626.8 278.1 Q 628.4 276.0, 628.4 272.1 Q 628.4 268.2, 626.8 266.2 Q 625.2 264.2, 622.1 264.2 Q 619.1 264.2, 617.5 266.2 Q 615.8 268.2, 615.8 272.1 Q 615.8 276.1, 617.5 278.1 Q 619.1 280.1, 622.1 280.1 " fill="#FF0000"/>
<path class="atom-21" d="M 634.3 262.2 L 637.0 262.2 L 637.0 270.6 L 647.1 270.6 L 647.1 262.2 L 649.8 262.2 L 649.8 282.0 L 647.1 282.0 L 647.1 272.9 L 637.0 272.9 L 637.0 282.0 L 634.3 282.0 L 634.3 262.2 " fill="#FF0000"/>
<path class="atom-23" d="M 494.8 346.6 Q 494.8 341.8, 497.2 339.2 Q 499.5 336.5, 503.9 336.5 Q 508.3 336.5, 510.7 339.2 Q 513.0 341.8, 513.0 346.6 Q 513.0 351.4, 510.6 354.1 Q 508.3 356.8, 503.9 356.8 Q 499.6 356.8, 497.2 354.1 Q 494.8 351.4, 494.8 346.6 M 503.9 354.6 Q 506.9 354.6, 508.6 352.6 Q 510.2 350.5, 510.2 346.6 Q 510.2 342.7, 508.6 340.7 Q 506.9 338.7, 503.9 338.7 Q 500.9 338.7, 499.3 340.7 Q 497.6 342.7, 497.6 346.6 Q 497.6 350.6, 499.3 352.6 Q 500.9 354.6, 503.9 354.6 " fill="#FF0000"/>
<path class="atom-23" d="M 516.1 336.7 L 518.8 336.7 L 518.8 345.1 L 528.9 345.1 L 528.9 336.7 L 531.6 336.7 L 531.6 356.5 L 528.9 356.5 L 528.9 347.4 L 518.8 347.4 L 518.8 356.5 L 516.1 356.5 L 516.1 336.7 " fill="#FF0000"/>
<path class="bond-0 atom-0 atom-1" d="M 930.3,575.2 L 907.1,589.1" style="fill:none;fill-rule:evenodd;stroke:#191919;stroke-width:2.0px;stroke-linecap:butt;stroke-linejoin:miter;stroke-opacity:1"/>
<path class="bond-0 atom-0 atom-1" d="M 907.1,589.1 L 883.9,603.0" style="fill:none;fill-rule:evenodd;stroke:#FF0000;stroke-width:2.0px;stroke-linecap:butt;stroke-linejoin:miter;stroke-opacity:1"/>
<path class="bond-1 atom-1 atom-2" d="M 861.1,603.5 L 836.3,589.7" style="fill:none;fill-rule:evenodd;stroke:#FF0000;stroke-width:2.0px;stroke-linecap:butt;stroke-linejoin:miter;stroke-opacity:1"/>
<path class="bond-1 atom-1 atom-2" d="M 836.3,589.7 L 811.5,575.9" style="fill:none;fill-rule:evenodd;stroke:#000000;stroke-width:2.0px;stroke-linecap:butt;stroke-linejoin:miter;stroke-opacity:1"/>
<path class="bond-2 atom-2 atom-3" d="M 811.5,575.9 L 751.5,611.8" style="fill:none;fill-rule:evenodd;stroke:#000000;stroke-width:2.0px;stroke-linecap:butt;stroke-linejoin:miter;stroke-opacity:1"/>
<path class="bond-3 atom-3 atom-4" d="M 751.5,611.8 L 690.5,577.9" style="fill:none;fill-rule:evenodd;stroke:#000000;stroke-width:2.0px;stroke-linecap:butt;stroke-linejoin:miter;stroke-opacity:1"/>
<path class="bond-4 atom-4 atom-5" d="M 690.5,577.9 L 630.5,613.8" style="fill:none;fill-rule:evenodd;stroke:#000000;stroke-width:2.0px;stroke-linecap:butt;stroke-linejoin:miter;stroke-opacity:1"/>
<path class="bond-5 atom-5 atom-6" d="M 630.5,613.8 L 605.7,600.0" style="fill:none;fill-rule:evenodd;stroke:#000000;stroke-width:2.0px;stroke-linecap:butt;stroke-linejoin:miter;stroke-opacity:1"/>
<path class="bond-5 atom-5 atom-6" d="M 605.7,600.0 L 580.9,586.2" style="fill:none;fill-rule:evenodd;stroke:#FF0000;stroke-width:2.0px;stroke-linecap:butt;stroke-linejoin:miter;stroke-opacity:1"/>
<path class="bond-6 atom-6 atom-7" d="M 558.1,586.7 L 533.8,601.3" style="fill:none;fill-rule:evenodd;stroke:#FF0000;stroke-width:2.0px;stroke-linecap:butt;stroke-linejoin:miter;stroke-opacity:1"/>
<path class="bond-6 atom-6 atom-7" d="M 533.8,601.3 L 509.5,615.8" style="fill:none;fill-rule:evenodd;stroke:#000000;stroke-width:2.0px;stroke-linecap:butt;stroke-linejoin:miter;stroke-opacity:1"/>
<path class="bond-7 atom-7 atom-8" d="M 504.3,612.9 L 504.7,643.2" style="fill:none;fill-rule:evenodd;stroke:#000000;stroke-width:2.0px;stroke-linecap:butt;stroke-linejoin:miter;stroke-opacity:1"/>
<path class="bond-7 atom-7 atom-8" d="M 504.7,643.2 L 505.2,673.4" style="fill:none;fill-rule:evenodd;stroke:#FF0000;stroke-width:2.0px;stroke-linecap:butt;stroke-linejoin:miter;stroke-opacity:1"/>
<path class="bond-7 atom-7 atom-8" d="M 514.7,612.7 L 515.2,643.0" style="fill:none;fill-rule:evenodd;stroke:#000000;stroke-width:2.0px;stroke-linecap:butt;stroke-linejoin:miter;stroke-opacity:1"/>
<path class="bond-7 atom-7 atom-8" d="M 515.2,643.0 L 515.7,673.3" style="fill:none;fill-rule:evenodd;stroke:#FF0000;stroke-width:2.0px;stroke-linecap:butt;stroke-linejoin:miter;stroke-opacity:1"/>
<path class="bond-8 atom-7 atom-9" d="M 509.5,615.8 L 448.5,581.9" style="fill:none;fill-rule:evenodd;stroke:#000000;stroke-width:2.0px;stroke-linecap:butt;stroke-linejoin:miter;stroke-opacity:1"/>
<path class="bond-9 atom-9 atom-10" d="M 448.5,581.9 L 388.5,617.8" style="fill:none;fill-rule:evenodd;stroke:#000000;stroke-width:2.0px;stroke-linecap:butt;stroke-linejoin:miter;stroke-opacity:1"/>
<path class="bond-10 atom-10 atom-11" d="M 388.5,617.8 L 327.5,583.9" style="fill:none;fill-rule:evenodd;stroke:#000000;stroke-width:2.0px;stroke-linecap:butt;stroke-linejoin:miter;stroke-opacity:1"/>
<path class="bond-11 atom-11 atom-12" d="M 327.5,583.9 L 301.0,599.7" style="fill:none;fill-rule:evenodd;stroke:#000000;stroke-width:2.0px;stroke-linecap:butt;stroke-linejoin:miter;stroke-opacity:1"/>
<path class="bond-11 atom-11 atom-12" d="M 301.0,599.7 L 274.5,615.6" style="fill:none;fill-rule:evenodd;stroke:#191919;stroke-width:2.0px;stroke-linecap:butt;stroke-linejoin:miter;stroke-opacity:1"/>
<path class="bond-12 atom-11 atom-13" d="M 332.8,586.8 L 332.3,556.7" style="fill:none;fill-rule:evenodd;stroke:#000000;stroke-width:2.0px;stroke-linecap:butt;stroke-linejoin:miter;stroke-opacity:1"/>
<path class="bond-12 atom-11 atom-13" d="M 332.3,556.7 L 331.8,526.6" style="fill:none;fill-rule:evenodd;stroke:#FF0000;stroke-width:2.0px;stroke-linecap:butt;stroke-linejoin:miter;stroke-opacity:1"/>
<path class="bond-12 atom-11 atom-13" d="M 322.3,587.0 L 321.8,556.9" style="fill:none;fill-rule:evenodd;stroke:#000000;stroke-width:2.0px;stroke-linecap:butt;stroke-linejoin:miter;stroke-opacity:1"/>
<path class="bond-12 atom-11 atom-13" d="M 321.8,556.9 L 321.3,526.7" style="fill:none;fill-rule:evenodd;stroke:#FF0000;stroke-width:2.0px;stroke-linecap:butt;stroke-linejoin:miter;stroke-opacity:1"/>
<path d="M 812.7,576.6 L 811.5,575.9 L 808.5,577.7" style="fill:none;stroke:#000000;stroke-width:2.0px;stroke-linecap:butt;stroke-linejoin:miter;stroke-opacity:1;"/>
<path d="M 754.5,610.0 L 751.5,611.8 L 748.5,610.1" style="fill:none;stroke:#000000;stroke-width:2.0px;stroke-linecap:butt;stroke-linejoin:miter;stroke-opacity:1;"/>
<path d="M 693.5,579.6 L 690.5,577.9 L 687.5,579.7" style="fill:none;stroke:#000000;stroke-width:2.0px;stroke-linecap:butt;stroke-linejoin:miter;stroke-opacity:1;"/>
<path d="M 633.5,612.0 L 630.5,613.8 L 629.3,613.1" style="fill:none;stroke:#000000;stroke-width:2.0px;stroke-linecap:butt;stroke-linejoin:miter;stroke-opacity:1;"/>
<path d="M 510.8,615.1 L 509.5,615.8 L 506.5,614.1" style="fill:none;stroke:#000000;stroke-width:2.0px;stroke-linecap:butt;stroke-linejoin:miter;stroke-opacity:1;"/>
<path d="M 451.5,583.6 L 448.5,581.9 L 445.5,583.7" style="fill:none;stroke:#000000;stroke-width:2.0px;stroke-linecap:butt;stroke-linejoin:miter;stroke-opacity:1;"/>
<path d="M 391.5,616.0 L 388.5,617.8 L 385.5,616.1" style="fill:none;stroke:#000000;stroke-width:2.0px;stroke-linecap:butt;stroke-linejoin:miter;stroke-opacity:1;"/>
<path d="M 330.5,585.6 L 327.5,583.9 L 326.1,584.7" style="fill:none;stroke:#000000;stroke-width:2.0px;stroke-linecap:butt;stroke-linejoin:miter;stroke-opacity:1;"/>
<path class="atom-0" d="M 928.7 571.7 L 931.6 568.7 L 927.8 568.0 L 928.4 566.0 L 931.9 567.8 L 931.4 563.9 L 933.5 563.9 L 932.9 567.7 L 936.5 566.1 L 937.1 568.0 L 933.2 568.7 L 936.0 571.7 L 934.3 572.9 L 932.4 569.2 L 930.4 572.9 L 928.7 571.7 " fill="#191919"/>
<path class="atom-1" d="M 863.4 609.9 Q 863.4 605.1, 865.8 602.5 Q 868.1 599.8, 872.5 599.8 Q 876.9 599.8, 879.3 602.5 Q 881.6 605.1, 881.6 609.9 Q 881.6 614.7, 879.2 617.4 Q 876.9 620.2, 872.5 620.2 Q 868.2 620.2, 865.8 617.4 Q 863.4 614.7, 863.4 609.9 M 872.5 617.9 Q 875.5 617.9, 877.2 615.9 Q 878.8 613.9, 878.8 609.9 Q 878.8 606.0, 877.2 604.1 Q 875.5 602.1, 872.5 602.1 Q 869.5 602.1, 867.9 604.0 Q 866.2 606.0, 866.2 609.9 Q 866.2 613.9, 867.9 615.9 Q 869.5 617.9, 872.5 617.9 " fill="#FF0000"/>
<path class="atom-6" d="M 560.4 579.9 Q 560.4 575.2, 562.7 572.5 Q 565.1 569.9, 569.5 569.9 Q 573.9 569.9, 576.2 572.5 Q 578.5 575.2, 578.5 579.9 Q 578.5 584.8, 576.2 587.5 Q 573.8 590.2, 569.5 590.2 Q 565.1 590.2, 562.7 587.5 Q 560.4 584.8, 560.4 579.9 M 569.5 588.0 Q 572.5 588.0, 574.1 586.0 Q 575.8 583.9, 575.8 579.9 Q 575.8 576.1, 574.1 574.1 Q 572.5 572.1, 569.5 572.1 Q 566.4 572.1, 564.8 574.1 Q 563.2 576.0, 563.2 579.9 Q 563.2 583.9, 564.8 586.0 Q 566.4 588.0, 569.5 588.0 " fill="#FF0000"/>
<path class="atom-8" d="M 501.6 685.7 Q 501.6 681.0, 504.0 678.3 Q 506.3 675.7, 510.7 675.7 Q 515.1 675.7, 517.4 678.3 Q 519.8 681.0, 519.8 685.7 Q 519.8 690.5, 517.4 693.3 Q 515.0 696.0, 510.7 696.0 Q 506.3 696.0, 504.0 693.3 Q 501.6 690.6, 501.6 685.7 M 510.7 693.8 Q 513.7 693.8, 515.3 691.7 Q 517.0 689.7, 517.0 685.7 Q 517.0 681.8, 515.3 679.9 Q 513.7 677.9, 510.7 677.9 Q 507.7 677.9, 506.0 679.9 Q 504.4 681.8, 504.4 685.7 Q 504.4 689.7, 506.0 691.7 Q 507.7 693.8, 510.7 693.8 " fill="#FF0000"/>
<path class="atom-12" d="M 263.8 617.6 L 266.7 614.6 L 262.9 613.8 L 263.5 611.9 L 267.0 613.7 L 266.5 609.8 L 268.6 609.7 L 268.0 613.6 L 271.6 611.9 L 272.2 613.8 L 268.3 614.6 L 271.1 617.6 L 269.4 618.8 L 267.5 615.1 L 265.5 618.8 L 263.8 617.6 " fill="#191919"/>
<path class="atom-13" d="M 317.2 514.1 Q 317.2 509.3, 319.6 506.7 Q 321.9 504.0, 326.3 504.0 Q 330.7 504.0, 333.1 506.7 Q 335.4 509.3, 335.4 514.1 Q 335.4 518.9, 333.0 521.6 Q 330.7 524.3, 326.3 524.3 Q 322.0 524.3, 319.6 521.6 Q 317.2 518.9, 317.2 514.1 M 326.3 522.1 Q 329.3 522.1, 331.0 520.1 Q 332.6 518.0, 332.6 514.1 Q 332.6 510.2, 331.0 508.2 Q 329.3 506.2, 326.3 506.2 Q 323.3 506.2, 321.7 508.2 Q 320.0 510.2, 320.0 514.1 Q 320.0 518.1, 321.7 520.1 Q 323.3 522.1, 326.3 522.1 " fill="#FF0000"/>
</svg>