<svg xmlns="http://www.w3.org/2000/svg" xmlns:rdkit="http://www.rdkit.org/xml" xmlns:xlink="http://www.w3.org/1999/xlink" version="1.1" baseProfile="full" xml:space="preserve" width="1200px" height="800px" viewBox="0 0 1200 800">
<!-- END OF HEADER -->
<rect style="opacity:1.0;fill:#FFFFFF;stroke:none" width="1200.0" height="800.0" x="0.0" y="0.0"> </rect>
<path class="bond-0 atom-0 atom-1" d="M 82.0,256.4 L 135.7,229.7" style="fill:none;fill-rule:evenodd;stroke:#191919;stroke-width:2.0px;stroke-linecap:butt;stroke-linejoin:miter;stroke-opacity:1"/>
<path class="bond-0 atom-0 atom-1" d="M 135.7,229.7 L 189.3,202.9" style="fill:none;fill-rule:evenodd;stroke:#FF0000;stroke-width:2.0px;stroke-linecap:butt;stroke-linejoin:miter;stroke-opacity:1"/>
<path class="bond-1 atom-1 atom-2" d="M 225.4,205.8 L 280.3,242.1" style="fill:none;fill-rule:evenodd;stroke:#FF0000;stroke-width:2.0px;stroke-linecap:butt;stroke-linejoin:miter;stroke-opacity:1"/>
<path class="bond-1 atom-1 atom-2" d="M 280.3,242.1 L 335.1,278.4" style="fill:none;fill-rule:evenodd;stroke:#000000;stroke-width:2.0px;stroke-linecap:butt;stroke-linejoin:miter;stroke-opacity:1"/>
<path class="bond-2 atom-2 atom-3" d="M 335.1,278.4 L 472.2,209.9" style="fill:none;fill-rule:evenodd;stroke:#000000;stroke-width:2.0px;stroke-linecap:butt;stroke-linejoin:miter;stroke-opacity:1"/>
<path class="bond-3 atom-3 atom-4" d="M 472.2,209.9 L 527.1,246.2" style="fill:none;fill-rule:evenodd;stroke:#000000;stroke-width:2.0px;stroke-linecap:butt;stroke-linejoin:miter;stroke-opacity:1"/>
<path class="bond-3 atom-3 atom-4" d="M 527.1,246.2 L 581.9,282.5" style="fill:none;fill-rule:evenodd;stroke:#FF0000;stroke-width:2.0px;stroke-linecap:butt;stroke-linejoin:miter;stroke-opacity:1"/>
<path class="bond-4 atom-4 atom-5" d="M 618.1,285.4 L 677.6,255.7" style="fill:none;fill-rule:evenodd;stroke:#FF0000;stroke-width:2.0px;stroke-linecap:butt;stroke-linejoin:miter;stroke-opacity:1"/>
<path class="bond-4 atom-4 atom-5" d="M 677.6,255.7 L 737.1,226.0" style="fill:none;fill-rule:evenodd;stroke:#000000;stroke-width:2.0px;stroke-linecap:butt;stroke-linejoin:miter;stroke-opacity:1"/>
<path class="bond-5 atom-5 atom-6" d="M 737.1,226.0 L 864.9,310.5" style="fill:none;fill-rule:evenodd;stroke:#000000;stroke-width:2.0px;stroke-linecap:butt;stroke-linejoin:miter;stroke-opacity:1"/>
<path class="bond-6 atom-6 atom-7" d="M 864.9,310.5 L 1001.9,242.1" style="fill:none;fill-rule:evenodd;stroke:#000000;stroke-width:2.0px;stroke-linecap:butt;stroke-linejoin:miter;stroke-opacity:1"/>
<path class="bond-7 atom-7 atom-8" d="M 1001.9,242.1 L 1060.0,280.5" style="fill:none;fill-rule:evenodd;stroke:#000000;stroke-width:2.0px;stroke-linecap:butt;stroke-linejoin:miter;stroke-opacity:1"/>
<path class="bond-7 atom-7 atom-8" d="M 1060.0,280.5 L 1118.0,318.8" style="fill:none;fill-rule:evenodd;stroke:#191919;stroke-width:2.0px;stroke-linecap:butt;stroke-linejoin:miter;stroke-opacity:1"/>
<path class="bond-8 atom-7 atom-9" d="M 1013.0,249.4 L 1017.2,179.5" style="fill:none;fill-rule:evenodd;stroke:#000000;stroke-width:2.0px;stroke-linecap:butt;stroke-linejoin:miter;stroke-opacity:1"/>
<path class="bond-8 atom-7 atom-9" d="M 1017.2,179.5 L 1021.5,109.7" style="fill:none;fill-rule:evenodd;stroke:#FF0000;stroke-width:2.0px;stroke-linecap:butt;stroke-linejoin:miter;stroke-opacity:1"/>
<path class="bond-8 atom-7 atom-9" d="M 990.1,248.0 L 994.3,178.2" style="fill:none;fill-rule:evenodd;stroke:#000000;stroke-width:2.0px;stroke-linecap:butt;stroke-linejoin:miter;stroke-opacity:1"/>
<path class="bond-8 atom-7 atom-9" d="M 994.3,178.2 L 998.6,108.3" style="fill:none;fill-rule:evenodd;stroke:#FF0000;stroke-width:2.0px;stroke-linecap:butt;stroke-linejoin:miter;stroke-opacity:1"/>
<path d="M 332.4,276.6 L 335.1,278.4 L 342.0,274.9" style="fill:none;stroke:#000000;stroke-width:2.0px;stroke-linecap:butt;stroke-linejoin:miter;stroke-opacity:1;"/>
<path d="M 465.4,213.4 L 472.2,209.9 L 474.9,211.8" style="fill:none;stroke:#000000;stroke-width:2.0px;stroke-linecap:butt;stroke-linejoin:miter;stroke-opacity:1;"/>
<path d="M 734.1,227.5 L 737.1,226.0 L 743.5,230.2" style="fill:none;stroke:#000000;stroke-width:2.0px;stroke-linecap:butt;stroke-linejoin:miter;stroke-opacity:1;"/>
<path d="M 858.5,306.3 L 864.9,310.5 L 871.7,307.1" style="fill:none;stroke:#000000;stroke-width:2.0px;stroke-linecap:butt;stroke-linejoin:miter;stroke-opacity:1;"/>
<path d="M 995.1,245.5 L 1001.9,242.1 L 1004.8,244.0" style="fill:none;stroke:#000000;stroke-width:2.0px;stroke-linecap:butt;stroke-linejoin:miter;stroke-opacity:1;"/>
<path class="atom-0" d="M 64.9 259.1 L 69.1 254.9 L 63.6 253.8 L 64.4 250.9 L 69.5 253.5 L 68.8 247.9 L 71.8 247.9 L 70.9 253.5 L 76.1 251.1 L 77.0 253.8 L 71.4 254.8 L 75.4 259.1 L 72.9 260.9 L 70.2 255.6 L 67.4 260.9 L 64.9 259.1 " fill="#191919"/>
<path class="atom-1" d="M 194.3 193.9 Q 194.3 187.1, 197.7 183.3 Q 201.1 179.5, 207.3 179.5 Q 213.6 179.5, 217.0 183.3 Q 220.3 187.1, 220.3 193.9 Q 220.3 200.8, 216.9 204.7 Q 213.5 208.6, 207.3 208.6 Q 201.1 208.6, 197.7 204.7 Q 194.3 200.9, 194.3 193.9 M 207.3 205.4 Q 211.7 205.4, 214.0 202.5 Q 216.3 199.6, 216.3 193.9 Q 216.3 188.4, 214.0 185.6 Q 211.7 182.7, 207.3 182.7 Q 203.0 182.7, 200.7 185.5 Q 198.3 188.3, 198.3 193.9 Q 198.3 199.7, 200.7 202.5 Q 203.0 205.4, 207.3 205.4 " fill="#FF0000"/>
<path class="atom-4" d="M 587.0 294.5 Q 587.0 287.7, 590.4 283.9 Q 593.7 280.1, 600.0 280.1 Q 606.3 280.1, 609.6 283.9 Q 613.0 287.7, 613.0 294.5 Q 613.0 301.4, 609.6 305.3 Q 606.2 309.2, 600.0 309.2 Q 593.8 309.2, 590.4 305.3 Q 587.0 301.4, 587.0 294.5 M 600.0 306.0 Q 604.3 306.0, 606.6 303.1 Q 609.0 300.2, 609.0 294.5 Q 609.0 289.0, 606.6 286.2 Q 604.3 283.3, 600.0 283.3 Q 595.7 283.3, 593.3 286.1 Q 591.0 288.9, 591.0 294.5 Q 591.0 300.2, 593.3 303.1 Q 595.7 306.0, 600.0 306.0 " fill="#FF0000"/>
<path class="atom-8" d="M 1124.4 323.4 L 1128.6 319.2 L 1123.0 318.1 L 1123.9 315.2 L 1129.0 317.8 L 1128.2 312.2 L 1131.2 312.2 L 1130.4 317.7 L 1135.6 315.3 L 1136.4 318.1 L 1130.8 319.1 L 1134.8 323.4 L 1132.4 325.1 L 1129.6 319.9 L 1126.8 325.1 L 1124.4 323.4 " fill="#191919"/>
<path class="atom-9" d="M 998.2 89.3 Q 998.2 82.5, 1001.6 78.7 Q 1004.9 74.9, 1011.2 74.9 Q 1017.5 74.9, 1020.9 78.7 Q 1024.2 82.5, 1024.2 89.3 Q 1024.2 96.1, 1020.8 100.1 Q 1017.4 103.9, 1011.2 103.9 Q 1005.0 103.9, 1001.6 100.1 Q 998.2 96.2, 998.2 89.3 M 1011.2 100.7 Q 1015.5 100.7, 1017.9 97.9 Q 1020.2 94.9, 1020.2 89.3 Q 1020.2 83.7, 1017.9 80.9 Q 1015.5 78.1, 1011.2 78.1 Q 1006.9 78.1, 1004.5 80.9 Q 1002.2 83.7, 1002.2 89.3 Q 1002.2 95.0, 1004.5 97.9 Q 1006.9 100.7, 1011.2 100.7 " fill="#FF0000"/>
<path class="bond-0 atom-0 atom-1" d="M 518.7,599.8 L 580.4,599.8" style="fill:none;fill-rule:evenodd;stroke:#191919;stroke-width:2.0px;stroke-linecap:butt;stroke-linejoin:miter;stroke-opacity:1"/>
<path class="bond-0 atom-0 atom-1" d="M 580.4,599.8 L 642.1,599.8" style="fill:none;fill-rule:evenodd;stroke:#FF0000;stroke-width:2.0px;stroke-linecap:butt;stroke-linejoin:miter;stroke-opacity:1"/>
<path class="atom-0" d="M 501.6 596.7 L 505.8 592.4 L 500.3 591.3 L 501.1 588.5 L 506.2 591.0 L 505.5 585.5 L 508.5 585.4 L 507.6 591.0 L 512.8 588.6 L 513.7 591.3 L 508.1 592.3 L 512.1 596.6 L 509.6 598.4 L 506.9 593.1 L 504.1 598.4 L 501.6 596.7 " fill="#191919"/>
<path class="atom-1" d="M 647.2 599.9 Q 647.2 593.1, 650.5 589.3 Q 653.9 585.5, 660.2 585.5 Q 666.4 585.5, 669.8 589.3 Q 673.2 593.1, 673.2 599.9 Q 673.2 606.8, 669.8 610.7 Q 666.4 614.6, 660.2 614.6 Q 653.9 614.6, 650.5 610.7 Q 647.2 606.8, 647.2 599.9 M 660.2 611.4 Q 664.5 611.4, 666.8 608.5 Q 669.2 605.6, 669.2 599.9 Q 669.2 594.3, 666.8 591.5 Q 664.5 588.7, 660.2 588.7 Q 655.8 588.7, 653.5 591.5 Q 651.2 594.3, 651.2 599.9 Q 651.2 605.6, 653.5 608.5 Q 655.8 611.4, 660.2 611.4 " fill="#FF0000"/>
<path class="atom-1" d="M 677.6 585.8 L 681.4 585.8 L 681.4 597.9 L 695.9 597.9 L 695.9 585.8 L 699.7 585.8 L 699.7 614.1 L 695.9 614.1 L 695.9 601.1 L 681.4 601.1 L 681.4 614.1 L 677.6 614.1 L 677.6 585.8 " fill="#FF0000"/>
</svg>