<svg xmlns="http://www.w3.org/2000/svg" xmlns:rdkit="http://www.rdkit.org/xml" xmlns:xlink="http://www.w3.org/1999/xlink" version="1.1" baseProfile="full" xml:space="preserve" width="1200px" height="2000px" viewBox="0 0 1200 2000">
<!-- END OF HEADER -->
<rect style="opacity:1.0;fill:#FFFFFF;stroke:none" width="1200.0" height="2000.0" x="0.0" y="0.0"> </rect>
<path class="bond-0 atom-0 atom-1" d="M 348.5,182.2 L 387.5,174.6" style="fill:none;fill-rule:evenodd;stroke:#191919;stroke-width:2.0px;stroke-linecap:butt;stroke-linejoin:miter;stroke-opacity:1"/>
<path class="bond-0 atom-0 atom-1" d="M 387.5,174.6 L 426.4,167.0" style="fill:none;fill-rule:evenodd;stroke:#000000;stroke-width:2.0px;stroke-linecap:butt;stroke-linejoin:miter;stroke-opacity:1"/>
<path class="bond-1 atom-1 atom-2" d="M 426.4,167.0 L 448.6,192.6" style="fill:none;fill-rule:evenodd;stroke:#000000;stroke-width:2.0px;stroke-linecap:butt;stroke-linejoin:miter;stroke-opacity:1"/>
<path class="bond-1 atom-1 atom-2" d="M 448.6,192.6 L 470.9,218.1" style="fill:none;fill-rule:evenodd;stroke:#FF0000;stroke-width:2.0px;stroke-linecap:butt;stroke-linejoin:miter;stroke-opacity:1"/>
<path class="bond-2 atom-2 atom-3" d="M 498.8,230.9 L 535.0,223.8" style="fill:none;fill-rule:evenodd;stroke:#FF0000;stroke-width:2.0px;stroke-linecap:butt;stroke-linejoin:miter;stroke-opacity:1"/>
<path class="bond-2 atom-2 atom-3" d="M 535.0,223.8 L 571.1,216.8" style="fill:none;fill-rule:evenodd;stroke:#000000;stroke-width:2.0px;stroke-linecap:butt;stroke-linejoin:miter;stroke-opacity:1"/>
<path class="bond-3 atom-3 atom-4" d="M 571.1,216.8 L 582.7,183.0" style="fill:none;fill-rule:evenodd;stroke:#000000;stroke-width:2.0px;stroke-linecap:butt;stroke-linejoin:miter;stroke-opacity:1"/>
<path class="bond-3 atom-3 atom-4" d="M 582.7,183.0 L 594.4,149.2" style="fill:none;fill-rule:evenodd;stroke:#FF0000;stroke-width:2.0px;stroke-linecap:butt;stroke-linejoin:miter;stroke-opacity:1"/>
<path class="bond-4 atom-4 atom-5" d="M 614.2,130.4 L 650.4,123.3" style="fill:none;fill-rule:evenodd;stroke:#FF0000;stroke-width:2.0px;stroke-linecap:butt;stroke-linejoin:miter;stroke-opacity:1"/>
<path class="bond-4 atom-4 atom-5" d="M 650.4,123.3 L 686.5,116.3" style="fill:none;fill-rule:evenodd;stroke:#000000;stroke-width:2.0px;stroke-linecap:butt;stroke-linejoin:miter;stroke-opacity:1"/>
<path class="bond-5 atom-5 atom-6" d="M 686.5,116.3 L 700.6,75.3" style="fill:none;fill-rule:evenodd;stroke:#000000;stroke-width:2.0px;stroke-linecap:butt;stroke-linejoin:miter;stroke-opacity:1"/>
<path class="bond-5 atom-5 atom-6" d="M 700.6,75.3 L 714.7,34.4" style="fill:none;fill-rule:evenodd;stroke:#191919;stroke-width:2.0px;stroke-linecap:butt;stroke-linejoin:miter;stroke-opacity:1"/>
<path class="bond-6 atom-5 atom-7" d="M 686.5,116.3 L 744.6,182.9" style="fill:none;fill-rule:evenodd;stroke:#000000;stroke-width:2.0px;stroke-linecap:butt;stroke-linejoin:miter;stroke-opacity:1"/>
<path class="bond-7 atom-7 atom-8" d="M 744.6,182.9 L 780.7,175.9" style="fill:none;fill-rule:evenodd;stroke:#000000;stroke-width:2.0px;stroke-linecap:butt;stroke-linejoin:miter;stroke-opacity:1"/>
<path class="bond-7 atom-7 atom-8" d="M 780.7,175.9 L 816.9,168.8" style="fill:none;fill-rule:evenodd;stroke:#FF0000;stroke-width:2.0px;stroke-linecap:butt;stroke-linejoin:miter;stroke-opacity:1"/>
<path class="bond-8 atom-7 atom-9" d="M 744.6,182.9 L 715.9,266.5" style="fill:none;fill-rule:evenodd;stroke:#000000;stroke-width:2.0px;stroke-linecap:butt;stroke-linejoin:miter;stroke-opacity:1"/>
<path class="bond-9 atom-9 atom-10" d="M 715.9,266.5 L 738.1,292.0" style="fill:none;fill-rule:evenodd;stroke:#000000;stroke-width:2.0px;stroke-linecap:butt;stroke-linejoin:miter;stroke-opacity:1"/>
<path class="bond-9 atom-9 atom-10" d="M 738.1,292.0 L 760.3,317.5" style="fill:none;fill-rule:evenodd;stroke:#FF0000;stroke-width:2.0px;stroke-linecap:butt;stroke-linejoin:miter;stroke-opacity:1"/>
<path class="bond-10 atom-9 atom-11" d="M 715.9,266.5 L 629.1,283.4" style="fill:none;fill-rule:evenodd;stroke:#000000;stroke-width:2.0px;stroke-linecap:butt;stroke-linejoin:miter;stroke-opacity:1"/>
<path class="bond-11 atom-11 atom-12" d="M 629.1,283.4 L 617.5,317.4" style="fill:none;fill-rule:evenodd;stroke:#000000;stroke-width:2.0px;stroke-linecap:butt;stroke-linejoin:miter;stroke-opacity:1"/>
<path class="bond-11 atom-11 atom-12" d="M 617.5,317.4 L 605.8,351.4" style="fill:none;fill-rule:evenodd;stroke:#FF0000;stroke-width:2.0px;stroke-linecap:butt;stroke-linejoin:miter;stroke-opacity:1"/>
<path class="bond-12 atom-11 atom-3" d="M 629.1,283.4 L 571.1,216.8" style="fill:none;fill-rule:evenodd;stroke:#000000;stroke-width:2.0px;stroke-linecap:butt;stroke-linejoin:miter;stroke-opacity:1"/>
<path d="M 424.5,167.4 L 426.4,167.0 L 427.5,168.3" style="fill:none;stroke:#000000;stroke-width:2.0px;stroke-linecap:butt;stroke-linejoin:miter;stroke-opacity:1;"/>
<path class="atom-0" d="M 335.0 181.2 L 338.6 177.4 L 333.8 176.4 L 334.5 173.9 L 339.0 176.2 L 338.4 171.3 L 341.0 171.2 L 340.3 176.2 L 344.8 174.0 L 345.6 176.4 L 340.7 177.4 L 344.2 181.1 L 342.0 182.7 L 339.6 178.0 L 337.1 182.7 L 335.0 181.2 " fill="#191919"/>
<path class="atom-2" d="M 472.9 233.8 Q 472.9 227.7, 475.9 224.4 Q 478.9 221.0, 484.4 221.0 Q 490.0 221.0, 492.9 224.4 Q 495.9 227.7, 495.9 233.8 Q 495.9 239.8, 492.9 243.3 Q 489.9 246.7, 484.4 246.7 Q 478.9 246.7, 475.9 243.3 Q 472.9 239.9, 472.9 233.8 M 484.4 243.9 Q 488.2 243.9, 490.3 241.4 Q 492.4 238.8, 492.4 233.8 Q 492.4 228.8, 490.3 226.4 Q 488.2 223.9, 484.4 223.9 Q 480.6 223.9, 478.5 226.3 Q 476.5 228.8, 476.5 233.8 Q 476.5 238.8, 478.5 241.4 Q 480.6 243.9, 484.4 243.9 " fill="#FF0000"/>
<path class="atom-4" d="M 588.3 133.3 Q 588.3 127.3, 591.3 123.9 Q 594.3 120.6, 599.8 120.6 Q 605.4 120.6, 608.3 123.9 Q 611.3 127.3, 611.3 133.3 Q 611.3 139.4, 608.3 142.8 Q 605.3 146.2, 599.8 146.2 Q 594.3 146.2, 591.3 142.8 Q 588.3 139.4, 588.3 133.3 M 599.8 143.4 Q 603.6 143.4, 605.7 140.9 Q 607.8 138.3, 607.8 133.3 Q 607.8 128.4, 605.7 125.9 Q 603.6 123.4, 599.8 123.4 Q 596.0 123.4, 593.9 125.9 Q 591.9 128.3, 591.9 133.3 Q 591.9 138.3, 593.9 140.9 Q 596.0 143.4, 599.8 143.4 " fill="#FF0000"/>
<path class="atom-6" d="M 710.5 29.9 L 714.2 26.2 L 709.3 25.2 L 710.1 22.7 L 714.6 24.9 L 713.9 20.0 L 716.6 20.0 L 715.8 24.9 L 720.4 22.8 L 721.2 25.2 L 716.2 26.1 L 719.8 29.9 L 717.6 31.5 L 715.2 26.8 L 712.7 31.5 L 710.5 29.9 " fill="#191919"/>
<path class="atom-8" d="M 819.8 166.1 Q 819.8 160.1, 822.8 156.7 Q 825.7 153.3, 831.3 153.3 Q 836.8 153.3, 839.8 156.7 Q 842.8 160.1, 842.8 166.1 Q 842.8 172.1, 839.8 175.6 Q 836.8 179.0, 831.3 179.0 Q 825.8 179.0, 822.8 175.6 Q 819.8 172.2, 819.8 166.1 M 831.3 176.2 Q 835.1 176.2, 837.1 173.7 Q 839.2 171.1, 839.2 166.1 Q 839.2 161.2, 837.1 158.7 Q 835.1 156.2, 831.3 156.2 Q 827.5 156.2, 825.4 158.6 Q 823.3 161.1, 823.3 166.1 Q 823.3 171.1, 825.4 173.7 Q 827.5 176.2, 831.3 176.2 " fill="#FF0000"/>
<path class="atom-8" d="M 846.7 153.6 L 850.1 153.6 L 850.1 164.3 L 862.8 164.3 L 862.8 153.6 L 866.2 153.6 L 866.2 178.7 L 862.8 178.7 L 862.8 167.1 L 850.1 167.1 L 850.1 178.7 L 846.7 178.7 L 846.7 153.6 " fill="#FF0000"/>
<path class="atom-10" d="M 762.4 333.2 Q 762.4 327.2, 765.4 323.8 Q 768.3 320.5, 773.9 320.5 Q 779.4 320.5, 782.4 323.8 Q 785.4 327.2, 785.4 333.2 Q 785.4 339.3, 782.4 342.7 Q 779.3 346.2, 773.9 346.2 Q 768.4 346.2, 765.4 342.7 Q 762.4 339.3, 762.4 333.2 M 773.9 343.3 Q 777.7 343.3, 779.7 340.8 Q 781.8 338.2, 781.8 333.2 Q 781.8 328.3, 779.7 325.8 Q 777.7 323.3, 773.9 323.3 Q 770.1 323.3, 768.0 325.8 Q 765.9 328.2, 765.9 333.2 Q 765.9 338.2, 768.0 340.8 Q 770.1 343.3, 773.9 343.3 " fill="#FF0000"/>
<path class="atom-10" d="M 789.2 320.7 L 792.6 320.7 L 792.6 331.4 L 805.4 331.4 L 805.4 320.7 L 808.8 320.7 L 808.8 345.8 L 805.4 345.8 L 805.4 334.2 L 792.6 334.2 L 792.6 345.8 L 789.2 345.8 L 789.2 320.7 " fill="#FF0000"/>
<path class="atom-12" d="M 589.0 367.0 Q 589.0 361.0, 591.9 357.7 Q 594.9 354.3, 600.4 354.3 Q 606.0 354.3, 609.0 357.7 Q 611.9 361.0, 611.9 367.0 Q 611.9 373.1, 608.9 376.6 Q 605.9 380.0, 600.4 380.0 Q 594.9 380.0, 591.9 376.6 Q 589.0 373.1, 589.0 367.0 M 600.4 377.2 Q 604.3 377.2, 606.3 374.6 Q 608.4 372.0, 608.4 367.0 Q 608.4 362.1, 606.3 359.6 Q 604.3 357.1, 600.4 357.1 Q 596.6 357.1, 594.5 359.6 Q 592.5 362.1, 592.5 367.0 Q 592.5 372.1, 594.5 374.6 Q 596.6 377.2, 600.4 377.2 " fill="#FF0000"/>
<path class="atom-12" d="M 615.8 354.6 L 619.2 354.6 L 619.2 365.2 L 632.0 365.2 L 632.0 354.6 L 635.4 354.6 L 635.4 379.6 L 632.0 379.6 L 632.0 368.1 L 619.2 368.1 L 619.2 379.6 L 615.8 379.6 L 615.8 354.6 " fill="#FF0000"/>
<path class="bond-0 atom-0 atom-1" d="M 401.1,683.7 L 433.5,692.4" style="fill:none;fill-rule:evenodd;stroke:#191919;stroke-width:2.0px;stroke-linecap:butt;stroke-linejoin:miter;stroke-opacity:1"/>
<path class="bond-0 atom-0 atom-1" d="M 433.5,692.4 L 465.9,701.1" style="fill:none;fill-rule:evenodd;stroke:#FF0000;stroke-width:2.0px;stroke-linecap:butt;stroke-linejoin:miter;stroke-opacity:1"/>
<path class="bond-1 atom-1 atom-2" d="M 494.7,690.5 L 518.8,666.5" style="fill:none;fill-rule:evenodd;stroke:#FF0000;stroke-width:2.0px;stroke-linecap:butt;stroke-linejoin:miter;stroke-opacity:1"/>
<path class="bond-1 atom-1 atom-2" d="M 518.8,666.5 L 542.8,642.5" style="fill:none;fill-rule:evenodd;stroke:#000000;stroke-width:2.0px;stroke-linecap:butt;stroke-linejoin:miter;stroke-opacity:1"/>
<path class="bond-2 atom-2 atom-3" d="M 542.8,642.5 L 519.9,557.1" style="fill:none;fill-rule:evenodd;stroke:#000000;stroke-width:2.0px;stroke-linecap:butt;stroke-linejoin:miter;stroke-opacity:1"/>
<path class="bond-3 atom-3 atom-4" d="M 519.9,557.1 L 434.6,534.3" style="fill:none;fill-rule:evenodd;stroke:#000000;stroke-width:2.0px;stroke-linecap:butt;stroke-linejoin:miter;stroke-opacity:1"/>
<path class="bond-4 atom-4 atom-5" d="M 434.6,534.3 L 425.3,499.6" style="fill:none;fill-rule:evenodd;stroke:#000000;stroke-width:2.0px;stroke-linecap:butt;stroke-linejoin:miter;stroke-opacity:1"/>
<path class="bond-4 atom-4 atom-5" d="M 425.3,499.6 L 416.0,464.9" style="fill:none;fill-rule:evenodd;stroke:#FF0000;stroke-width:2.0px;stroke-linecap:butt;stroke-linejoin:miter;stroke-opacity:1"/>
<path class="bond-5 atom-3 atom-6" d="M 519.9,557.1 L 544.0,533.1" style="fill:none;fill-rule:evenodd;stroke:#000000;stroke-width:2.0px;stroke-linecap:butt;stroke-linejoin:miter;stroke-opacity:1"/>
<path class="bond-5 atom-3 atom-6" d="M 544.0,533.1 L 568.0,509.1" style="fill:none;fill-rule:evenodd;stroke:#FF0000;stroke-width:2.0px;stroke-linecap:butt;stroke-linejoin:miter;stroke-opacity:1"/>
<path class="bond-6 atom-6 atom-7" d="M 596.8,498.5 L 632.3,508.0" style="fill:none;fill-rule:evenodd;stroke:#FF0000;stroke-width:2.0px;stroke-linecap:butt;stroke-linejoin:miter;stroke-opacity:1"/>
<path class="bond-6 atom-6 atom-7" d="M 632.3,508.0 L 667.8,517.5" style="fill:none;fill-rule:evenodd;stroke:#000000;stroke-width:2.0px;stroke-linecap:butt;stroke-linejoin:miter;stroke-opacity:1"/>
<path class="bond-7 atom-7 atom-8" d="M 667.8,517.5 L 698.2,487.1" style="fill:none;fill-rule:evenodd;stroke:#000000;stroke-width:2.0px;stroke-linecap:butt;stroke-linejoin:miter;stroke-opacity:1"/>
<path class="bond-7 atom-7 atom-8" d="M 698.2,487.1 L 728.6,456.7" style="fill:none;fill-rule:evenodd;stroke:#191919;stroke-width:2.0px;stroke-linecap:butt;stroke-linejoin:miter;stroke-opacity:1"/>
<path class="bond-8 atom-7 atom-9" d="M 667.8,517.5 L 690.6,602.9" style="fill:none;fill-rule:evenodd;stroke:#000000;stroke-width:2.0px;stroke-linecap:butt;stroke-linejoin:miter;stroke-opacity:1"/>
<path class="bond-9 atom-9 atom-10" d="M 690.6,602.9 L 726.1,612.4" style="fill:none;fill-rule:evenodd;stroke:#000000;stroke-width:2.0px;stroke-linecap:butt;stroke-linejoin:miter;stroke-opacity:1"/>
<path class="bond-9 atom-9 atom-10" d="M 726.1,612.4 L 761.6,621.9" style="fill:none;fill-rule:evenodd;stroke:#FF0000;stroke-width:2.0px;stroke-linecap:butt;stroke-linejoin:miter;stroke-opacity:1"/>
<path class="bond-10 atom-9 atom-11" d="M 690.6,602.9 L 628.2,665.3" style="fill:none;fill-rule:evenodd;stroke:#000000;stroke-width:2.0px;stroke-linecap:butt;stroke-linejoin:miter;stroke-opacity:1"/>
<path class="bond-11 atom-11 atom-12" d="M 628.2,665.3 L 637.5,700.2" style="fill:none;fill-rule:evenodd;stroke:#000000;stroke-width:2.0px;stroke-linecap:butt;stroke-linejoin:miter;stroke-opacity:1"/>
<path class="bond-11 atom-11 atom-12" d="M 637.5,700.2 L 646.8,735.1" style="fill:none;fill-rule:evenodd;stroke:#FF0000;stroke-width:2.0px;stroke-linecap:butt;stroke-linejoin:miter;stroke-opacity:1"/>
<path class="bond-12 atom-11 atom-2" d="M 628.2,665.3 L 542.8,642.5" style="fill:none;fill-rule:evenodd;stroke:#000000;stroke-width:2.0px;stroke-linecap:butt;stroke-linejoin:miter;stroke-opacity:1"/>
<path d="M 438.9,535.4 L 434.6,534.3 L 434.1,532.5" style="fill:none;stroke:#000000;stroke-width:2.0px;stroke-linecap:butt;stroke-linejoin:miter;stroke-opacity:1;"/>
<path class="atom-0" d="M 390.3 679.3 L 394.0 675.5 L 389.1 674.6 L 389.8 672.0 L 394.3 674.3 L 393.7 669.4 L 396.3 669.4 L 395.6 674.3 L 400.1 672.2 L 400.9 674.6 L 396.0 675.5 L 399.5 679.3 L 397.3 680.8 L 394.9 676.1 L 392.4 680.8 L 390.3 679.3 " fill="#191919"/>
<path class="atom-1" d="M 468.8 705.0 Q 468.8 699.0, 471.8 695.7 Q 474.8 692.3, 480.3 692.3 Q 485.9 692.3, 488.9 695.7 Q 491.8 699.0, 491.8 705.0 Q 491.8 711.1, 488.8 714.6 Q 485.8 718.0, 480.3 718.0 Q 474.8 718.0, 471.8 714.6 Q 468.8 711.1, 468.8 705.0 M 480.3 715.2 Q 484.2 715.2, 486.2 712.6 Q 488.3 710.0, 488.3 705.0 Q 488.3 700.1, 486.2 697.6 Q 484.2 695.1, 480.3 695.1 Q 476.5 695.1, 474.4 697.6 Q 472.4 700.1, 472.4 705.0 Q 472.4 710.1, 474.4 712.6 Q 476.5 715.2, 480.3 715.2 " fill="#FF0000"/>
<path class="atom-5" d="M 400.2 449.0 Q 400.2 443.0, 403.2 439.6 Q 406.2 436.3, 411.7 436.3 Q 417.3 436.3, 420.3 439.6 Q 423.2 443.0, 423.2 449.0 Q 423.2 455.1, 420.2 458.5 Q 417.2 462.0, 411.7 462.0 Q 406.2 462.0, 403.2 458.5 Q 400.2 455.1, 400.2 449.0 M 411.7 459.1 Q 415.6 459.1, 417.6 456.6 Q 419.7 454.0, 419.7 449.0 Q 419.7 444.1, 417.6 441.6 Q 415.6 439.1, 411.7 439.1 Q 407.9 439.1, 405.8 441.6 Q 403.8 444.0, 403.8 449.0 Q 403.8 454.1, 405.8 456.6 Q 407.9 459.1, 411.7 459.1 " fill="#FF0000"/>
<path class="atom-5" d="M 427.1 436.6 L 430.5 436.6 L 430.5 447.2 L 443.3 447.2 L 443.3 436.6 L 446.7 436.6 L 446.7 461.6 L 443.3 461.6 L 443.3 450.0 L 430.5 450.0 L 430.5 461.6 L 427.1 461.6 L 427.1 436.6 " fill="#FF0000"/>
<path class="atom-6" d="M 570.9 494.7 Q 570.9 488.7, 573.9 485.4 Q 576.9 482.0, 582.4 482.0 Q 588.0 482.0, 590.9 485.4 Q 593.9 488.7, 593.9 494.7 Q 593.9 500.8, 590.9 504.3 Q 587.9 507.7, 582.4 507.7 Q 576.9 507.7, 573.9 504.3 Q 570.9 500.8, 570.9 494.7 M 582.4 504.9 Q 586.2 504.9, 588.3 502.3 Q 590.4 499.7, 590.4 494.7 Q 590.4 489.8, 588.3 487.3 Q 586.2 484.8, 582.4 484.8 Q 578.6 484.8, 576.5 487.3 Q 574.5 489.8, 574.5 494.7 Q 574.5 499.8, 576.5 502.3 Q 578.6 504.9, 582.4 504.9 " fill="#FF0000"/>
<path class="atom-8" d="M 725.5 452.3 L 729.2 448.5 L 724.3 447.5 L 725.1 445.0 L 729.5 447.3 L 728.9 442.4 L 731.6 442.3 L 730.8 447.2 L 735.4 445.1 L 736.2 447.5 L 731.2 448.4 L 734.7 452.2 L 732.6 453.8 L 730.1 449.1 L 727.7 453.8 L 725.5 452.3 " fill="#191919"/>
<path class="atom-10" d="M 764.5 625.8 Q 764.5 619.8, 767.4 616.4 Q 770.4 613.1, 776.0 613.1 Q 781.5 613.1, 784.5 616.4 Q 787.5 619.8, 787.5 625.8 Q 787.5 631.9, 784.4 635.3 Q 781.4 638.8, 776.0 638.8 Q 770.5 638.8, 767.4 635.3 Q 764.5 631.9, 764.5 625.8 M 776.0 635.9 Q 779.8 635.9, 781.8 633.4 Q 783.9 630.8, 783.9 625.8 Q 783.9 620.9, 781.8 618.4 Q 779.8 615.9, 776.0 615.9 Q 772.1 615.9, 770.1 618.4 Q 768.0 620.9, 768.0 625.8 Q 768.0 630.9, 770.1 633.4 Q 772.1 635.9, 776.0 635.9 " fill="#FF0000"/>
<path class="atom-10" d="M 791.3 613.4 L 794.7 613.4 L 794.7 624.0 L 807.5 624.0 L 807.5 613.4 L 810.9 613.4 L 810.9 638.4 L 807.5 638.4 L 807.5 626.8 L 794.7 626.8 L 794.7 638.4 L 791.3 638.4 L 791.3 613.4 " fill="#FF0000"/>
<path class="atom-12" d="M 639.5 750.8 Q 639.5 744.7, 642.5 741.4 Q 645.5 738.0, 651.0 738.0 Q 656.6 738.0, 659.5 741.4 Q 662.5 744.7, 662.5 750.8 Q 662.5 756.8, 659.5 760.3 Q 656.5 763.7, 651.0 763.7 Q 645.5 763.7, 642.5 760.3 Q 639.5 756.9, 639.5 750.8 M 651.0 760.9 Q 654.8 760.9, 656.9 758.4 Q 659.0 755.8, 659.0 750.8 Q 659.0 745.8, 656.9 743.4 Q 654.8 740.9, 651.0 740.9 Q 647.2 740.9, 645.1 743.3 Q 643.1 745.8, 643.1 750.8 Q 643.1 755.8, 645.1 758.4 Q 647.2 760.9, 651.0 760.9 " fill="#FF0000"/>
<path class="atom-12" d="M 666.4 738.3 L 669.8 738.3 L 669.8 749.0 L 682.6 749.0 L 682.6 738.3 L 686.0 738.3 L 686.0 763.3 L 682.6 763.3 L 682.6 751.8 L 669.8 751.8 L 669.8 763.3 L 666.4 763.3 L 666.4 738.3 " fill="#FF0000"/>
<path class="bond-0 atom-0 atom-1" d="M 808.0,896.1 L 768.3,895.8" style="fill:none;fill-rule:evenodd;stroke:#191919;stroke-width:2.0px;stroke-linecap:butt;stroke-linejoin:miter;stroke-opacity:1"/>
<path class="bond-0 atom-0 atom-1" d="M 768.3,895.8 L 728.5,895.5" style="fill:none;fill-rule:evenodd;stroke:#000000;stroke-width:2.0px;stroke-linecap:butt;stroke-linejoin:miter;stroke-opacity:1"/>
<path class="bond-1 atom-1 atom-2" d="M 728.5,895.5 L 683.8,971.6" style="fill:none;fill-rule:evenodd;stroke:#000000;stroke-width:2.0px;stroke-linecap:butt;stroke-linejoin:miter;stroke-opacity:1"/>
<path class="bond-2 atom-2 atom-3" d="M 683.8,971.6 L 701.1,1002.3" style="fill:none;fill-rule:evenodd;stroke:#000000;stroke-width:2.0px;stroke-linecap:butt;stroke-linejoin:miter;stroke-opacity:1"/>
<path class="bond-2 atom-2 atom-3" d="M 701.1,1002.3 L 718.5,1032.9" style="fill:none;fill-rule:evenodd;stroke:#191919;stroke-width:2.0px;stroke-linecap:butt;stroke-linejoin:miter;stroke-opacity:1"/>
<path class="bond-3 atom-2 atom-4" d="M 683.8,971.6 L 595.4,971.0" style="fill:none;fill-rule:evenodd;stroke:#000000;stroke-width:2.0px;stroke-linecap:butt;stroke-linejoin:miter;stroke-opacity:1"/>
<path class="bond-4 atom-4 atom-5" d="M 595.4,971.0 L 544.0,899.1" style="fill:none;fill-rule:evenodd;stroke:#000000;stroke-width:2.0px;stroke-linecap:butt;stroke-linejoin:miter;stroke-opacity:1"/>
<path class="bond-5 atom-5 atom-6" d="M 544.0,899.1 L 459.8,925.8" style="fill:none;fill-rule:evenodd;stroke:#000000;stroke-width:2.0px;stroke-linecap:butt;stroke-linejoin:miter;stroke-opacity:1"/>
<path class="bond-6 atom-6 atom-7" d="M 467.6,923.3 L 437.3,901.0" style="fill:none;fill-rule:evenodd;stroke:#000000;stroke-width:2.0px;stroke-linecap:butt;stroke-linejoin:miter;stroke-opacity:1"/>
<path class="bond-6 atom-6 atom-7" d="M 437.3,901.0 L 407.0,878.6" style="fill:none;fill-rule:evenodd;stroke:#FF0000;stroke-width:2.0px;stroke-linecap:butt;stroke-linejoin:miter;stroke-opacity:1"/>
<path class="bond-6 atom-6 atom-7" d="M 459.7,934.0 L 429.4,911.6" style="fill:none;fill-rule:evenodd;stroke:#000000;stroke-width:2.0px;stroke-linecap:butt;stroke-linejoin:miter;stroke-opacity:1"/>
<path class="bond-6 atom-6 atom-7" d="M 429.4,911.6 L 399.2,889.3" style="fill:none;fill-rule:evenodd;stroke:#FF0000;stroke-width:2.0px;stroke-linecap:butt;stroke-linejoin:miter;stroke-opacity:1"/>
<path class="bond-7 atom-6 atom-8" d="M 459.8,925.8 L 459.5,962.2" style="fill:none;fill-rule:evenodd;stroke:#000000;stroke-width:2.0px;stroke-linecap:butt;stroke-linejoin:miter;stroke-opacity:1"/>
<path class="bond-7 atom-6 atom-8" d="M 459.5,962.2 L 459.2,998.6" style="fill:none;fill-rule:evenodd;stroke:#FF0000;stroke-width:2.0px;stroke-linecap:butt;stroke-linejoin:miter;stroke-opacity:1"/>
<path class="bond-8 atom-8 atom-9" d="M 473.5,1018.9 L 508.2,1030.5" style="fill:none;fill-rule:evenodd;stroke:#FF0000;stroke-width:2.0px;stroke-linecap:butt;stroke-linejoin:miter;stroke-opacity:1"/>
<path class="bond-8 atom-8 atom-9" d="M 508.2,1030.5 L 542.9,1042.1" style="fill:none;fill-rule:evenodd;stroke:#000000;stroke-width:2.0px;stroke-linecap:butt;stroke-linejoin:miter;stroke-opacity:1"/>
<path class="bond-9 atom-9 atom-10" d="M 535.2,1039.5 L 546.8,1076.1" style="fill:none;fill-rule:evenodd;stroke:#000000;stroke-width:2.0px;stroke-linecap:butt;stroke-linejoin:miter;stroke-opacity:1"/>
<path class="bond-9 atom-9 atom-10" d="M 546.8,1076.1 L 558.4,1112.7" style="fill:none;fill-rule:evenodd;stroke:#FF0000;stroke-width:2.0px;stroke-linecap:butt;stroke-linejoin:miter;stroke-opacity:1"/>
<path class="bond-9 atom-9 atom-10" d="M 547.8,1035.5 L 559.4,1072.1" style="fill:none;fill-rule:evenodd;stroke:#000000;stroke-width:2.0px;stroke-linecap:butt;stroke-linejoin:miter;stroke-opacity:1"/>
<path class="bond-9 atom-9 atom-10" d="M 559.4,1072.1 L 571.0,1108.7" style="fill:none;fill-rule:evenodd;stroke:#FF0000;stroke-width:2.0px;stroke-linecap:butt;stroke-linejoin:miter;stroke-opacity:1"/>
<path class="bond-10 atom-9 atom-4" d="M 542.9,1042.1 L 595.4,971.0" style="fill:none;fill-rule:evenodd;stroke:#000000;stroke-width:2.0px;stroke-linecap:butt;stroke-linejoin:miter;stroke-opacity:1"/>
<path d="M 730.5,895.5 L 728.5,895.5 L 726.3,899.3" style="fill:none;stroke:#000000;stroke-width:2.0px;stroke-linecap:butt;stroke-linejoin:miter;stroke-opacity:1;"/>
<path d="M 546.6,902.7 L 544.0,899.1 L 539.8,900.4" style="fill:none;stroke:#000000;stroke-width:2.0px;stroke-linecap:butt;stroke-linejoin:miter;stroke-opacity:1;"/>
<path d="M 464.0,924.4 L 459.8,925.8 L 459.8,927.6" style="fill:none;stroke:#000000;stroke-width:2.0px;stroke-linecap:butt;stroke-linejoin:miter;stroke-opacity:1;"/>
<path d="M 541.2,1041.5 L 542.9,1042.1 L 545.6,1038.5" style="fill:none;stroke:#000000;stroke-width:2.0px;stroke-linecap:butt;stroke-linejoin:miter;stroke-opacity:1;"/>
<path class="atom-0" d="M 812.1 893.3 L 815.8 889.6 L 810.9 888.6 L 811.7 886.1 L 816.2 888.4 L 815.5 883.4 L 818.2 883.4 L 817.4 888.3 L 822.0 886.2 L 822.8 888.6 L 817.8 889.5 L 821.4 893.3 L 819.2 894.9 L 816.8 890.2 L 814.3 894.9 L 812.1 893.3 " fill="#191919"/>
<path class="atom-3" d="M 722.6 1045.7 L 726.3 1042.0 L 721.4 1041.0 L 722.2 1038.5 L 726.7 1040.7 L 726.0 1035.8 L 728.7 1035.8 L 727.9 1040.7 L 732.5 1038.6 L 733.3 1041.0 L 728.3 1041.9 L 731.9 1045.7 L 729.7 1047.2 L 727.3 1042.6 L 724.8 1047.2 L 722.6 1045.7 " fill="#191919"/>
<path class="atom-7" d="M 377.2 873.4 Q 377.2 867.4, 380.2 864.0 Q 383.2 860.7, 388.7 860.7 Q 394.3 860.7, 397.2 864.0 Q 400.2 867.4, 400.2 873.4 Q 400.2 879.5, 397.2 882.9 Q 394.2 886.4, 388.7 886.4 Q 383.2 886.4, 380.2 882.9 Q 377.2 879.5, 377.2 873.4 M 388.7 883.5 Q 392.5 883.5, 394.6 881.0 Q 396.7 878.4, 396.7 873.4 Q 396.7 868.5, 394.6 866.0 Q 392.5 863.5, 388.7 863.5 Q 384.9 863.5, 382.8 866.0 Q 380.8 868.4, 380.8 873.4 Q 380.8 878.4, 382.8 881.0 Q 384.9 883.5, 388.7 883.5 " fill="#FF0000"/>
<path class="atom-8" d="M 447.6 1014.2 Q 447.6 1008.2, 450.6 1004.8 Q 453.6 1001.5, 459.1 1001.5 Q 464.7 1001.5, 467.6 1004.8 Q 470.6 1008.2, 470.6 1014.2 Q 470.6 1020.3, 467.6 1023.7 Q 464.6 1027.2, 459.1 1027.2 Q 453.6 1027.2, 450.6 1023.7 Q 447.6 1020.3, 447.6 1014.2 M 459.1 1024.3 Q 462.9 1024.3, 465.0 1021.8 Q 467.1 1019.2, 467.1 1014.2 Q 467.1 1009.3, 465.0 1006.8 Q 462.9 1004.3, 459.1 1004.3 Q 455.3 1004.3, 453.2 1006.8 Q 451.2 1009.3, 451.2 1014.2 Q 451.2 1019.3, 453.2 1021.8 Q 455.3 1024.3, 459.1 1024.3 " fill="#FF0000"/>
<path class="atom-10" d="M 558.1 1126.4 Q 558.1 1120.4, 561.1 1117.0 Q 564.1 1113.6, 569.6 1113.6 Q 575.2 1113.6, 578.1 1117.0 Q 581.1 1120.4, 581.1 1126.4 Q 581.1 1132.4, 578.1 1135.9 Q 575.1 1139.3, 569.6 1139.3 Q 564.1 1139.3, 561.1 1135.9 Q 558.1 1132.5, 558.1 1126.4 M 569.6 1136.5 Q 573.4 1136.5, 575.5 1134.0 Q 577.6 1131.4, 577.6 1126.4 Q 577.6 1121.5, 575.5 1119.0 Q 573.4 1116.5, 569.6 1116.5 Q 565.8 1116.5, 563.7 1118.9 Q 561.7 1121.4, 561.7 1126.4 Q 561.7 1131.4, 563.7 1134.0 Q 565.8 1136.5, 569.6 1136.5 " fill="#FF0000"/>
<path class="bond-0 atom-0 atom-1" d="M 903.2,1402.9 L 867.2,1425.7" style="fill:none;fill-rule:evenodd;stroke:#191919;stroke-width:2.0px;stroke-linecap:butt;stroke-linejoin:miter;stroke-opacity:1"/>
<path class="bond-0 atom-0 atom-1" d="M 867.2,1425.7 L 831.2,1448.6" style="fill:none;fill-rule:evenodd;stroke:#000000;stroke-width:2.0px;stroke-linecap:butt;stroke-linejoin:miter;stroke-opacity:1"/>
<path class="bond-1 atom-1 atom-2" d="M 831.2,1448.6 L 752.9,1407.6" style="fill:none;fill-rule:evenodd;stroke:#000000;stroke-width:2.0px;stroke-linecap:butt;stroke-linejoin:miter;stroke-opacity:1"/>
<path class="bond-2 atom-2 atom-3" d="M 752.9,1407.6 L 678.3,1454.9" style="fill:none;fill-rule:evenodd;stroke:#000000;stroke-width:2.0px;stroke-linecap:butt;stroke-linejoin:miter;stroke-opacity:1"/>
<path class="bond-3 atom-3 atom-4" d="M 678.3,1454.9 L 600.0,1413.9" style="fill:none;fill-rule:evenodd;stroke:#000000;stroke-width:2.0px;stroke-linecap:butt;stroke-linejoin:miter;stroke-opacity:1"/>
<path class="bond-4 atom-4 atom-5" d="M 600.0,1413.9 L 525.4,1461.3" style="fill:none;fill-rule:evenodd;stroke:#000000;stroke-width:2.0px;stroke-linecap:butt;stroke-linejoin:miter;stroke-opacity:1"/>
<path class="bond-5 atom-5 atom-6" d="M 525.4,1461.3 L 447.1,1420.3" style="fill:none;fill-rule:evenodd;stroke:#000000;stroke-width:2.0px;stroke-linecap:butt;stroke-linejoin:miter;stroke-opacity:1"/>
<path class="bond-6 atom-6 atom-7" d="M 453.9,1423.8 L 452.3,1385.8" style="fill:none;fill-rule:evenodd;stroke:#000000;stroke-width:2.0px;stroke-linecap:butt;stroke-linejoin:miter;stroke-opacity:1"/>
<path class="bond-6 atom-6 atom-7" d="M 452.3,1385.8 L 450.7,1347.7" style="fill:none;fill-rule:evenodd;stroke:#FF0000;stroke-width:2.0px;stroke-linecap:butt;stroke-linejoin:miter;stroke-opacity:1"/>
<path class="bond-6 atom-6 atom-7" d="M 440.6,1424.4 L 439.1,1386.3" style="fill:none;fill-rule:evenodd;stroke:#000000;stroke-width:2.0px;stroke-linecap:butt;stroke-linejoin:miter;stroke-opacity:1"/>
<path class="bond-6 atom-6 atom-7" d="M 439.1,1386.3 L 437.5,1348.2" style="fill:none;fill-rule:evenodd;stroke:#FF0000;stroke-width:2.0px;stroke-linecap:butt;stroke-linejoin:miter;stroke-opacity:1"/>
<path class="bond-7 atom-6 atom-8" d="M 447.1,1420.3 L 417.0,1439.4" style="fill:none;fill-rule:evenodd;stroke:#000000;stroke-width:2.0px;stroke-linecap:butt;stroke-linejoin:miter;stroke-opacity:1"/>
<path class="bond-7 atom-6 atom-8" d="M 417.0,1439.4 L 386.9,1458.5" style="fill:none;fill-rule:evenodd;stroke:#FF0000;stroke-width:2.0px;stroke-linecap:butt;stroke-linejoin:miter;stroke-opacity:1"/>
<path class="bond-8 atom-8 atom-9" d="M 358.1,1460.1 L 327.7,1444.2" style="fill:none;fill-rule:evenodd;stroke:#FF0000;stroke-width:2.0px;stroke-linecap:butt;stroke-linejoin:miter;stroke-opacity:1"/>
<path class="bond-8 atom-8 atom-9" d="M 327.7,1444.2 L 297.3,1428.3" style="fill:none;fill-rule:evenodd;stroke:#191919;stroke-width:2.0px;stroke-linecap:butt;stroke-linejoin:miter;stroke-opacity:1"/>
<path d="M 833.0,1447.4 L 831.2,1448.6 L 827.3,1446.5" style="fill:none;stroke:#000000;stroke-width:2.0px;stroke-linecap:butt;stroke-linejoin:miter;stroke-opacity:1;"/>
<path d="M 756.8,1409.6 L 752.9,1407.6 L 749.2,1410.0" style="fill:none;stroke:#000000;stroke-width:2.0px;stroke-linecap:butt;stroke-linejoin:miter;stroke-opacity:1;"/>
<path d="M 682.0,1452.5 L 678.3,1454.9 L 674.4,1452.9" style="fill:none;stroke:#000000;stroke-width:2.0px;stroke-linecap:butt;stroke-linejoin:miter;stroke-opacity:1;"/>
<path d="M 603.9,1416.0 L 600.0,1413.9 L 596.3,1416.3" style="fill:none;stroke:#000000;stroke-width:2.0px;stroke-linecap:butt;stroke-linejoin:miter;stroke-opacity:1;"/>
<path d="M 529.1,1458.9 L 525.4,1461.3 L 521.5,1459.2" style="fill:none;stroke:#000000;stroke-width:2.0px;stroke-linecap:butt;stroke-linejoin:miter;stroke-opacity:1;"/>
<path d="M 451.0,1422.3 L 447.1,1420.3 L 445.6,1421.2" style="fill:none;stroke:#000000;stroke-width:2.0px;stroke-linecap:butt;stroke-linejoin:miter;stroke-opacity:1;"/>
<path class="atom-0" d="M 901.1 1398.4 L 904.8 1394.7 L 899.9 1393.7 L 900.6 1391.2 L 905.1 1393.5 L 904.5 1388.6 L 907.1 1388.5 L 906.4 1393.4 L 910.9 1391.3 L 911.7 1393.7 L 906.8 1394.6 L 910.3 1398.4 L 908.1 1400.0 L 905.7 1395.3 L 903.2 1400.0 L 901.1 1398.4 " fill="#191919"/>
<path class="atom-7" d="M 432.0 1332.1 Q 432.0 1326.1, 434.9 1322.7 Q 437.9 1319.4, 443.4 1319.4 Q 449.0 1319.4, 452.0 1322.7 Q 454.9 1326.1, 454.9 1332.1 Q 454.9 1338.2, 451.9 1341.6 Q 448.9 1345.1, 443.4 1345.1 Q 437.9 1345.1, 434.9 1341.6 Q 432.0 1338.2, 432.0 1332.1 M 443.4 1342.2 Q 447.3 1342.2, 449.3 1339.7 Q 451.4 1337.1, 451.4 1332.1 Q 451.4 1327.2, 449.3 1324.7 Q 447.3 1322.2, 443.4 1322.2 Q 439.6 1322.2, 437.5 1324.7 Q 435.5 1327.1, 435.5 1332.1 Q 435.5 1337.1, 437.5 1339.7 Q 439.6 1342.2, 443.4 1342.2 " fill="#FF0000"/>
<path class="atom-8" d="M 361.0 1467.7 Q 361.0 1461.7, 364.0 1458.3 Q 366.9 1454.9, 372.5 1454.9 Q 378.0 1454.9, 381.0 1458.3 Q 384.0 1461.7, 384.0 1467.7 Q 384.0 1473.7, 381.0 1477.2 Q 378.0 1480.6, 372.5 1480.6 Q 367.0 1480.6, 364.0 1477.2 Q 361.0 1473.8, 361.0 1467.7 M 372.5 1477.8 Q 376.3 1477.8, 378.4 1475.3 Q 380.4 1472.7, 380.4 1467.7 Q 380.4 1462.8, 378.4 1460.3 Q 376.3 1457.8, 372.5 1457.8 Q 368.7 1457.8, 366.6 1460.2 Q 364.5 1462.7, 364.5 1467.7 Q 364.5 1472.7, 366.6 1475.3 Q 368.7 1477.8, 372.5 1477.8 " fill="#FF0000"/>
<path class="atom-9" d="M 289.5 1423.8 L 293.2 1420.1 L 288.3 1419.1 L 289.0 1416.6 L 293.5 1418.9 L 292.9 1413.9 L 295.5 1413.9 L 294.8 1418.8 L 299.3 1416.7 L 300.1 1419.1 L 295.2 1420.0 L 298.7 1423.8 L 296.6 1425.4 L 294.1 1420.7 L 291.6 1425.4 L 289.5 1423.8 " fill="#191919"/>
<path class="bond-0 atom-0 atom-1" d="M 492.2,1804.3 L 528.5,1788.9" style="fill:none;fill-rule:evenodd;stroke:#191919;stroke-width:2.0px;stroke-linecap:butt;stroke-linejoin:miter;stroke-opacity:1"/>
<path class="bond-0 atom-0 atom-1" d="M 528.5,1788.9 L 564.7,1773.4" style="fill:none;fill-rule:evenodd;stroke:#000000;stroke-width:2.0px;stroke-linecap:butt;stroke-linejoin:miter;stroke-opacity:1"/>
<path class="bond-1 atom-1 atom-2" d="M 564.7,1773.4 L 635.3,1826.6" style="fill:none;fill-rule:evenodd;stroke:#000000;stroke-width:2.0px;stroke-linecap:butt;stroke-linejoin:miter;stroke-opacity:1"/>
<path class="bond-2 atom-2 atom-3" d="M 635.3,1826.6 L 674.0,1810.1" style="fill:none;fill-rule:evenodd;stroke:#000000;stroke-width:2.0px;stroke-linecap:butt;stroke-linejoin:miter;stroke-opacity:1"/>
<path class="bond-2 atom-2 atom-3" d="M 674.0,1810.1 L 712.7,1793.6" style="fill:none;fill-rule:evenodd;stroke:#191919;stroke-width:2.0px;stroke-linecap:butt;stroke-linejoin:miter;stroke-opacity:1"/>
<path d="M 562.9,1774.2 L 564.7,1773.4 L 568.2,1776.1" style="fill:none;stroke:#000000;stroke-width:2.0px;stroke-linecap:butt;stroke-linejoin:miter;stroke-opacity:1;"/>
<path d="M 631.8,1823.9 L 635.3,1826.6 L 637.2,1825.7" style="fill:none;stroke:#000000;stroke-width:2.0px;stroke-linecap:butt;stroke-linejoin:miter;stroke-opacity:1;"/>
<path class="atom-0" d="M 478.7 1805.2 L 482.4 1801.5 L 477.5 1800.5 L 478.2 1798.0 L 482.7 1800.3 L 482.1 1795.4 L 484.7 1795.3 L 484.0 1800.2 L 488.5 1798.1 L 489.3 1800.5 L 484.4 1801.4 L 487.9 1805.2 L 485.7 1806.8 L 483.3 1802.1 L 480.8 1806.8 L 478.7 1805.2 " fill="#191919"/>
<path class="atom-3" d="M 711.9 1789.2 L 715.6 1785.4 L 710.7 1784.4 L 711.4 1781.9 L 715.9 1784.2 L 715.3 1779.3 L 717.9 1779.2 L 717.2 1784.1 L 721.7 1782.0 L 722.5 1784.4 L 717.6 1785.4 L 721.1 1789.1 L 719.0 1790.7 L 716.5 1786.0 L 714.0 1790.7 L 711.9 1789.2 " fill="#191919"/>
</svg>