<svg xmlns="http://www.w3.org/2000/svg" xmlns:rdkit="http://www.rdkit.org/xml" xmlns:xlink="http://www.w3.org/1999/xlink" version="1.1" baseProfile="full" xml:space="preserve" width="1200px" height="1200px" viewBox="0 0 1200 1200">
<!-- END OF HEADER -->
<rect style="opacity:1.0;fill:#FFFFFF;stroke:none" width="1200.0" height="1200.0" x="0.0" y="0.0"> </rect>
<path class="bond-0 atom-0 atom-1" d="M 869.2,65.8 L 817.4,65.4" style="fill:none;fill-rule:evenodd;stroke:#191919;stroke-width:2.0px;stroke-linecap:butt;stroke-linejoin:miter;stroke-opacity:1"/>
<path class="bond-0 atom-0 atom-1" d="M 817.4,65.4 L 765.6,65.0" style="fill:none;fill-rule:evenodd;stroke:#000000;stroke-width:2.0px;stroke-linecap:butt;stroke-linejoin:miter;stroke-opacity:1"/>
<path class="bond-1 atom-1 atom-2" d="M 765.6,65.0 L 707.8,163.4" style="fill:none;fill-rule:evenodd;stroke:#000000;stroke-width:2.0px;stroke-linecap:butt;stroke-linejoin:miter;stroke-opacity:1"/>
<path class="bond-2 atom-2 atom-3" d="M 707.8,163.4 L 730.8,204.0" style="fill:none;fill-rule:evenodd;stroke:#000000;stroke-width:2.0px;stroke-linecap:butt;stroke-linejoin:miter;stroke-opacity:1"/>
<path class="bond-2 atom-2 atom-3" d="M 730.8,204.0 L 753.8,244.5" style="fill:none;fill-rule:evenodd;stroke:#191919;stroke-width:2.0px;stroke-linecap:butt;stroke-linejoin:miter;stroke-opacity:1"/>
<path class="bond-3 atom-2 atom-4" d="M 707.8,163.4 L 593.6,162.5" style="fill:none;fill-rule:evenodd;stroke:#000000;stroke-width:2.0px;stroke-linecap:butt;stroke-linejoin:miter;stroke-opacity:1"/>
<path class="bond-4 atom-4 atom-5" d="M 593.6,162.5 L 527.2,69.7" style="fill:none;fill-rule:evenodd;stroke:#000000;stroke-width:2.0px;stroke-linecap:butt;stroke-linejoin:miter;stroke-opacity:1"/>
<path class="bond-5 atom-5 atom-6" d="M 527.2,69.7 L 418.4,104.2" style="fill:none;fill-rule:evenodd;stroke:#000000;stroke-width:2.0px;stroke-linecap:butt;stroke-linejoin:miter;stroke-opacity:1"/>
<path class="bond-6 atom-6 atom-7" d="M 428.5,101.0 L 388.5,71.4" style="fill:none;fill-rule:evenodd;stroke:#000000;stroke-width:2.0px;stroke-linecap:butt;stroke-linejoin:miter;stroke-opacity:1"/>
<path class="bond-6 atom-6 atom-7" d="M 388.5,71.4 L 348.4,41.9" style="fill:none;fill-rule:evenodd;stroke:#FF0000;stroke-width:2.0px;stroke-linecap:butt;stroke-linejoin:miter;stroke-opacity:1"/>
<path class="bond-6 atom-6 atom-7" d="M 418.3,114.7 L 378.3,85.2" style="fill:none;fill-rule:evenodd;stroke:#000000;stroke-width:2.0px;stroke-linecap:butt;stroke-linejoin:miter;stroke-opacity:1"/>
<path class="bond-6 atom-6 atom-7" d="M 378.3,85.2 L 338.3,55.6" style="fill:none;fill-rule:evenodd;stroke:#FF0000;stroke-width:2.0px;stroke-linecap:butt;stroke-linejoin:miter;stroke-opacity:1"/>
<path class="bond-7 atom-6 atom-8" d="M 418.4,104.2 L 418.1,152.2" style="fill:none;fill-rule:evenodd;stroke:#000000;stroke-width:2.0px;stroke-linecap:butt;stroke-linejoin:miter;stroke-opacity:1"/>
<path class="bond-7 atom-6 atom-8" d="M 418.1,152.2 L 417.7,200.2" style="fill:none;fill-rule:evenodd;stroke:#FF0000;stroke-width:2.0px;stroke-linecap:butt;stroke-linejoin:miter;stroke-opacity:1"/>
<path class="bond-8 atom-8 atom-9" d="M 434.3,223.9 L 480.1,239.1" style="fill:none;fill-rule:evenodd;stroke:#FF0000;stroke-width:2.0px;stroke-linecap:butt;stroke-linejoin:miter;stroke-opacity:1"/>
<path class="bond-8 atom-8 atom-9" d="M 480.1,239.1 L 525.8,254.4" style="fill:none;fill-rule:evenodd;stroke:#000000;stroke-width:2.0px;stroke-linecap:butt;stroke-linejoin:miter;stroke-opacity:1"/>
<path class="bond-9 atom-9 atom-10" d="M 515.8,251.0 L 531.1,299.4" style="fill:none;fill-rule:evenodd;stroke:#000000;stroke-width:2.0px;stroke-linecap:butt;stroke-linejoin:miter;stroke-opacity:1"/>
<path class="bond-9 atom-9 atom-10" d="M 531.1,299.4 L 546.4,347.7" style="fill:none;fill-rule:evenodd;stroke:#FF0000;stroke-width:2.0px;stroke-linecap:butt;stroke-linejoin:miter;stroke-opacity:1"/>
<path class="bond-9 atom-9 atom-10" d="M 532.1,245.9 L 547.4,294.2" style="fill:none;fill-rule:evenodd;stroke:#000000;stroke-width:2.0px;stroke-linecap:butt;stroke-linejoin:miter;stroke-opacity:1"/>
<path class="bond-9 atom-9 atom-10" d="M 547.4,294.2 L 562.7,342.5" style="fill:none;fill-rule:evenodd;stroke:#FF0000;stroke-width:2.0px;stroke-linecap:butt;stroke-linejoin:miter;stroke-opacity:1"/>
<path class="bond-10 atom-9 atom-4" d="M 525.8,254.4 L 593.6,162.5" style="fill:none;fill-rule:evenodd;stroke:#000000;stroke-width:2.0px;stroke-linecap:butt;stroke-linejoin:miter;stroke-opacity:1"/>
<path d="M 768.2,65.0 L 765.6,65.0 L 762.7,69.9" style="fill:none;stroke:#000000;stroke-width:2.0px;stroke-linecap:butt;stroke-linejoin:miter;stroke-opacity:1;"/>
<path d="M 530.6,74.3 L 527.2,69.7 L 521.8,71.4" style="fill:none;stroke:#000000;stroke-width:2.0px;stroke-linecap:butt;stroke-linejoin:miter;stroke-opacity:1;"/>
<path d="M 423.9,102.4 L 418.4,104.2 L 418.4,106.6" style="fill:none;stroke:#000000;stroke-width:2.0px;stroke-linecap:butt;stroke-linejoin:miter;stroke-opacity:1;"/>
<path d="M 523.6,253.6 L 525.8,254.4 L 529.2,249.8" style="fill:none;stroke:#000000;stroke-width:2.0px;stroke-linecap:butt;stroke-linejoin:miter;stroke-opacity:1;"/>
<path class="atom-0" d="M 874.4 62.7 L 878.5 58.4 L 873.0 57.3 L 873.8 54.5 L 878.9 57.0 L 878.2 51.5 L 881.2 51.4 L 880.4 57.0 L 885.5 54.6 L 886.4 57.3 L 880.8 58.4 L 884.8 62.6 L 882.4 64.4 L 879.6 59.1 L 876.8 64.4 L 874.4 62.7 " fill="#191919"/>
<path class="atom-3" d="M 758.7 259.5 L 762.9 255.3 L 757.4 254.2 L 758.2 251.3 L 763.3 253.9 L 762.6 248.3 L 765.6 248.3 L 764.7 253.8 L 769.9 251.4 L 770.8 254.2 L 765.2 255.2 L 769.2 259.5 L 766.7 261.2 L 764.0 256.0 L 761.2 261.2 L 758.7 259.5 " fill="#191919"/>
<path class="atom-7" d="M 313.6 36.5 Q 313.6 29.7, 317.0 25.9 Q 320.3 22.1, 326.6 22.1 Q 332.9 22.1, 336.2 25.9 Q 339.6 29.7, 339.6 36.5 Q 339.6 43.3, 336.2 47.3 Q 332.8 51.1, 326.6 51.1 Q 320.4 51.1, 317.0 47.3 Q 313.6 43.4, 313.6 36.5 M 326.6 47.9 Q 330.9 47.9, 333.2 45.1 Q 335.6 42.1, 335.6 36.5 Q 335.6 30.9, 333.2 28.1 Q 330.9 25.3, 326.6 25.3 Q 322.3 25.3, 319.9 28.1 Q 317.6 30.9, 317.6 36.5 Q 317.6 42.2, 319.9 45.1 Q 322.3 47.9, 326.6 47.9 " fill="#FF0000"/>
<path class="atom-8" d="M 404.6 218.4 Q 404.6 211.6, 407.9 207.8 Q 411.3 204.0, 417.6 204.0 Q 423.8 204.0, 427.2 207.8 Q 430.6 211.6, 430.6 218.4 Q 430.6 225.2, 427.2 229.2 Q 423.8 233.0, 417.6 233.0 Q 411.3 233.0, 407.9 229.2 Q 404.6 225.3, 404.6 218.4 M 417.6 229.8 Q 421.9 229.8, 424.2 227.0 Q 426.6 224.0, 426.6 218.4 Q 426.6 212.8, 424.2 210.0 Q 421.9 207.2, 417.6 207.2 Q 413.2 207.2, 410.9 210.0 Q 408.6 212.8, 408.6 218.4 Q 408.6 224.1, 410.9 227.0 Q 413.2 229.8, 417.6 229.8 " fill="#FF0000"/>
<path class="atom-10" d="M 547.3 363.3 Q 547.3 356.5, 550.7 352.7 Q 554.0 348.9, 560.3 348.9 Q 566.6 348.9, 569.9 352.7 Q 573.3 356.5, 573.3 363.3 Q 573.3 370.1, 569.9 374.1 Q 566.5 377.9, 560.3 377.9 Q 554.1 377.9, 550.7 374.1 Q 547.3 370.2, 547.3 363.3 M 560.3 374.7 Q 564.6 374.7, 566.9 371.9 Q 569.3 368.9, 569.3 363.3 Q 569.3 357.7, 566.9 354.9 Q 564.6 352.1, 560.3 352.1 Q 556.0 352.1, 553.6 354.9 Q 551.3 357.7, 551.3 363.3 Q 551.3 369.0, 553.6 371.9 Q 556.0 374.7, 560.3 374.7 " fill="#FF0000"/>
<path class="bond-0 atom-0 atom-1" d="M 769.9,560.1 L 747.2,599.3" style="fill:none;fill-rule:evenodd;stroke:#191919;stroke-width:2.0px;stroke-linecap:butt;stroke-linejoin:miter;stroke-opacity:1"/>
<path class="bond-0 atom-0 atom-1" d="M 747.2,599.3 L 724.6,638.5" style="fill:none;fill-rule:evenodd;stroke:#FF0000;stroke-width:2.0px;stroke-linecap:butt;stroke-linejoin:miter;stroke-opacity:1"/>
<path class="bond-1 atom-1 atom-2" d="M 697.4,656.6 L 648.7,656.6" style="fill:none;fill-rule:evenodd;stroke:#FF0000;stroke-width:2.0px;stroke-linecap:butt;stroke-linejoin:miter;stroke-opacity:1"/>
<path class="bond-1 atom-1 atom-2" d="M 648.7,656.6 L 600.0,656.6" style="fill:none;fill-rule:evenodd;stroke:#000000;stroke-width:2.0px;stroke-linecap:butt;stroke-linejoin:miter;stroke-opacity:1"/>
<path class="bond-2 atom-2 atom-3" d="M 600.0,656.6 L 542.9,755.4" style="fill:none;fill-rule:evenodd;stroke:#000000;stroke-width:2.0px;stroke-linecap:butt;stroke-linejoin:miter;stroke-opacity:1"/>
<path class="bond-3 atom-2 atom-4" d="M 600.0,656.6 L 542.9,557.7" style="fill:none;fill-rule:evenodd;stroke:#000000;stroke-width:2.0px;stroke-linecap:butt;stroke-linejoin:miter;stroke-opacity:1"/>
<path class="bond-4 atom-4 atom-5" d="M 542.9,557.7 L 491.1,557.7" style="fill:none;fill-rule:evenodd;stroke:#000000;stroke-width:2.0px;stroke-linecap:butt;stroke-linejoin:miter;stroke-opacity:1"/>
<path class="bond-4 atom-4 atom-5" d="M 491.1,557.7 L 439.3,557.7" style="fill:none;fill-rule:evenodd;stroke:#191919;stroke-width:2.0px;stroke-linecap:butt;stroke-linejoin:miter;stroke-opacity:1"/>
<path class="bond-5 atom-4 atom-6" d="M 547.9,566.3 L 572.3,524.0" style="fill:none;fill-rule:evenodd;stroke:#000000;stroke-width:2.0px;stroke-linecap:butt;stroke-linejoin:miter;stroke-opacity:1"/>
<path class="bond-5 atom-4 atom-6" d="M 572.3,524.0 L 596.7,481.7" style="fill:none;fill-rule:evenodd;stroke:#FF0000;stroke-width:2.0px;stroke-linecap:butt;stroke-linejoin:miter;stroke-opacity:1"/>
<path class="bond-5 atom-4 atom-6" d="M 533.0,557.7 L 557.5,515.4" style="fill:none;fill-rule:evenodd;stroke:#000000;stroke-width:2.0px;stroke-linecap:butt;stroke-linejoin:miter;stroke-opacity:1"/>
<path class="bond-5 atom-4 atom-6" d="M 557.5,515.4 L 581.9,473.1" style="fill:none;fill-rule:evenodd;stroke:#FF0000;stroke-width:2.0px;stroke-linecap:butt;stroke-linejoin:miter;stroke-opacity:1"/>
<path d="M 545.8,562.7 L 542.9,557.7 L 540.3,557.7" style="fill:none;stroke:#000000;stroke-width:2.0px;stroke-linecap:butt;stroke-linejoin:miter;stroke-opacity:1;"/>
<path class="atom-0" d="M 765.9 554.6 L 770.0 550.3 L 764.5 549.2 L 765.3 546.4 L 770.4 548.9 L 769.7 543.4 L 772.7 543.3 L 771.9 548.9 L 777.0 546.5 L 777.9 549.2 L 772.3 550.3 L 776.3 554.5 L 773.9 556.3 L 771.1 551.0 L 768.3 556.3 L 765.9 554.6 " fill="#191919"/>
<path class="atom-1" d="M 701.1 656.7 Q 701.1 649.9, 704.5 646.1 Q 707.9 642.3, 714.1 642.3 Q 720.4 642.3, 723.8 646.1 Q 727.1 649.9, 727.1 656.7 Q 727.1 663.5, 723.7 667.5 Q 720.3 671.3, 714.1 671.3 Q 707.9 671.3, 704.5 667.5 Q 701.1 663.6, 701.1 656.7 M 714.1 668.1 Q 718.5 668.1, 720.8 665.3 Q 723.1 662.3, 723.1 656.7 Q 723.1 651.1, 720.8 648.3 Q 718.5 645.5, 714.1 645.5 Q 709.8 645.5, 707.5 648.3 Q 705.1 651.1, 705.1 656.7 Q 705.1 662.4, 707.5 665.3 Q 709.8 668.1, 714.1 668.1 " fill="#FF0000"/>
<path class="atom-5" d="M 423.5 554.6 L 427.6 550.3 L 422.1 549.2 L 422.9 546.4 L 428.0 548.9 L 427.3 543.4 L 430.3 543.3 L 429.5 548.9 L 434.6 546.5 L 435.5 549.2 L 429.9 550.3 L 433.9 554.5 L 431.5 556.3 L 428.7 551.0 L 425.9 556.3 L 423.5 554.6 " fill="#191919"/>
<path class="atom-6" d="M 587.0 459.0 Q 587.0 452.2, 590.4 448.4 Q 593.7 444.6, 600.0 444.6 Q 606.3 444.6, 609.6 448.4 Q 613.0 452.2, 613.0 459.0 Q 613.0 465.9, 609.6 469.8 Q 606.2 473.7, 600.0 473.7 Q 593.8 473.7, 590.4 469.8 Q 587.0 465.9, 587.0 459.0 M 600.0 470.5 Q 604.3 470.5, 606.6 467.6 Q 609.0 464.7, 609.0 459.0 Q 609.0 453.4, 606.6 450.6 Q 604.3 447.8, 600.0 447.8 Q 595.7 447.8, 593.3 450.6 Q 591.0 453.4, 591.0 459.0 Q 591.0 464.7, 593.3 467.6 Q 595.7 470.5, 600.0 470.5 " fill="#FF0000"/>
<path class="bond-0 atom-0 atom-1" d="M 459.8,1005.9 L 507.1,985.8" style="fill:none;fill-rule:evenodd;stroke:#191919;stroke-width:2.0px;stroke-linecap:butt;stroke-linejoin:miter;stroke-opacity:1"/>
<path class="bond-0 atom-0 atom-1" d="M 507.1,985.8 L 554.4,965.7" style="fill:none;fill-rule:evenodd;stroke:#000000;stroke-width:2.0px;stroke-linecap:butt;stroke-linejoin:miter;stroke-opacity:1"/>
<path class="bond-1 atom-1 atom-2" d="M 554.4,965.7 L 645.6,1034.3" style="fill:none;fill-rule:evenodd;stroke:#000000;stroke-width:2.0px;stroke-linecap:butt;stroke-linejoin:miter;stroke-opacity:1"/>
<path class="bond-2 atom-2 atom-3" d="M 645.6,1034.3 L 695.4,1013.1" style="fill:none;fill-rule:evenodd;stroke:#000000;stroke-width:2.0px;stroke-linecap:butt;stroke-linejoin:miter;stroke-opacity:1"/>
<path class="bond-2 atom-2 atom-3" d="M 695.4,1013.1 L 745.2,991.9" style="fill:none;fill-rule:evenodd;stroke:#191919;stroke-width:2.0px;stroke-linecap:butt;stroke-linejoin:miter;stroke-opacity:1"/>
<path d="M 552.0,966.7 L 554.4,965.7 L 559.0,969.1" style="fill:none;stroke:#000000;stroke-width:2.0px;stroke-linecap:butt;stroke-linejoin:miter;stroke-opacity:1;"/>
<path d="M 641.0,1030.9 L 645.6,1034.3 L 648.1,1033.2" style="fill:none;stroke:#000000;stroke-width:2.0px;stroke-linecap:butt;stroke-linejoin:miter;stroke-opacity:1;"/>
<path class="atom-0" d="M 444.0 1007.2 L 448.2 1003.0 L 442.7 1001.9 L 443.5 999.0 L 448.6 1001.6 L 447.9 996.0 L 450.9 996.0 L 450.0 1001.5 L 455.2 999.1 L 456.1 1001.9 L 450.5 1002.9 L 454.5 1007.2 L 452.0 1008.9 L 449.3 1003.7 L 446.5 1008.9 L 444.0 1007.2 " fill="#191919"/>
<path class="atom-3" d="M 745.3 986.5 L 749.4 982.2 L 743.9 981.1 L 744.8 978.3 L 749.8 980.8 L 749.1 975.3 L 752.1 975.2 L 751.3 980.8 L 756.4 978.4 L 757.3 981.1 L 751.7 982.1 L 755.7 986.4 L 753.3 988.2 L 750.5 982.9 L 747.7 988.2 L 745.3 986.5 " fill="#191919"/>
</svg>