<svg xmlns="http://www.w3.org/2000/svg" xmlns:rdkit="http://www.rdkit.org/xml" xmlns:xlink="http://www.w3.org/1999/xlink" version="1.1" baseProfile="full" xml:space="preserve" width="1200px" height="800px" viewBox="0 0 1200 800">
<!-- END OF HEADER -->
<rect style="opacity:1.0;fill:#FFFFFF;stroke:none" width="1200.0" height="800.0" x="0.0" y="0.0"> </rect>
<path class="bond-0 atom-0 atom-1" d="M 938.8,117.9 L 913.3,143.4" style="fill:none;fill-rule:evenodd;stroke:#191919;stroke-width:2.0px;stroke-linecap:butt;stroke-linejoin:miter;stroke-opacity:1"/>
<path class="bond-0 atom-0 atom-1" d="M 913.3,143.4 L 887.7,169.0" style="fill:none;fill-rule:evenodd;stroke:#FF0000;stroke-width:2.0px;stroke-linecap:butt;stroke-linejoin:miter;stroke-opacity:1"/>
<path class="bond-1 atom-1 atom-2" d="M 856.1,180.6 L 817.1,170.1" style="fill:none;fill-rule:evenodd;stroke:#FF0000;stroke-width:2.0px;stroke-linecap:butt;stroke-linejoin:miter;stroke-opacity:1"/>
<path class="bond-1 atom-1 atom-2" d="M 817.1,170.1 L 778.1,159.7" style="fill:none;fill-rule:evenodd;stroke:#000000;stroke-width:2.0px;stroke-linecap:butt;stroke-linejoin:miter;stroke-opacity:1"/>
<path class="bond-2 atom-2 atom-3" d="M 778.1,159.7 L 709.4,228.3" style="fill:none;fill-rule:evenodd;stroke:#000000;stroke-width:2.0px;stroke-linecap:butt;stroke-linejoin:miter;stroke-opacity:1"/>
<path class="bond-3 atom-3 atom-4" d="M 709.4,228.3 L 670.4,217.9" style="fill:none;fill-rule:evenodd;stroke:#000000;stroke-width:2.0px;stroke-linecap:butt;stroke-linejoin:miter;stroke-opacity:1"/>
<path class="bond-3 atom-3 atom-4" d="M 670.4,217.9 L 631.5,207.4" style="fill:none;fill-rule:evenodd;stroke:#FF0000;stroke-width:2.0px;stroke-linecap:butt;stroke-linejoin:miter;stroke-opacity:1"/>
<path class="bond-4 atom-4 atom-5" d="M 599.8,219.0 L 573.4,245.4" style="fill:none;fill-rule:evenodd;stroke:#FF0000;stroke-width:2.0px;stroke-linecap:butt;stroke-linejoin:miter;stroke-opacity:1"/>
<path class="bond-4 atom-4 atom-5" d="M 573.4,245.4 L 547.0,271.9" style="fill:none;fill-rule:evenodd;stroke:#000000;stroke-width:2.0px;stroke-linecap:butt;stroke-linejoin:miter;stroke-opacity:1"/>
<path class="bond-5 atom-5 atom-6" d="M 538.8,269.7 L 549.7,310.1" style="fill:none;fill-rule:evenodd;stroke:#000000;stroke-width:2.0px;stroke-linecap:butt;stroke-linejoin:miter;stroke-opacity:1"/>
<path class="bond-5 atom-5 atom-6" d="M 549.7,310.1 L 560.5,350.4" style="fill:none;fill-rule:evenodd;stroke:#FF0000;stroke-width:2.0px;stroke-linecap:butt;stroke-linejoin:miter;stroke-opacity:1"/>
<path class="bond-5 atom-5 atom-6" d="M 552.9,265.9 L 563.7,306.3" style="fill:none;fill-rule:evenodd;stroke:#000000;stroke-width:2.0px;stroke-linecap:butt;stroke-linejoin:miter;stroke-opacity:1"/>
<path class="bond-5 atom-5 atom-6" d="M 563.7,306.3 L 574.5,346.7" style="fill:none;fill-rule:evenodd;stroke:#FF0000;stroke-width:2.0px;stroke-linecap:butt;stroke-linejoin:miter;stroke-opacity:1"/>
<path class="bond-6 atom-5 atom-7" d="M 547.0,271.9 L 453.2,246.7" style="fill:none;fill-rule:evenodd;stroke:#000000;stroke-width:2.0px;stroke-linecap:butt;stroke-linejoin:miter;stroke-opacity:1"/>
<path class="bond-7 atom-7 atom-8" d="M 453.2,246.7 L 384.5,315.4" style="fill:none;fill-rule:evenodd;stroke:#000000;stroke-width:2.0px;stroke-linecap:butt;stroke-linejoin:miter;stroke-opacity:1"/>
<path class="bond-8 atom-7 atom-9" d="M 453.2,246.7 L 428.0,152.9" style="fill:none;fill-rule:evenodd;stroke:#000000;stroke-width:2.0px;stroke-linecap:butt;stroke-linejoin:miter;stroke-opacity:1"/>
<path class="bond-8 atom-7 atom-9" d="M 436.9,242.4 L 416.1,164.8" style="fill:none;fill-rule:evenodd;stroke:#000000;stroke-width:2.0px;stroke-linecap:butt;stroke-linejoin:miter;stroke-opacity:1"/>
<path class="bond-9 atom-9 atom-10" d="M 428.0,152.9 L 334.2,127.8" style="fill:none;fill-rule:evenodd;stroke:#000000;stroke-width:2.0px;stroke-linecap:butt;stroke-linejoin:miter;stroke-opacity:1"/>
<path class="bond-10 atom-10 atom-11" d="M 334.2,127.8 L 321.9,81.8" style="fill:none;fill-rule:evenodd;stroke:#000000;stroke-width:2.0px;stroke-linecap:butt;stroke-linejoin:miter;stroke-opacity:1"/>
<path class="bond-10 atom-10 atom-11" d="M 321.9,81.8 L 309.6,35.8" style="fill:none;fill-rule:evenodd;stroke:#191919;stroke-width:2.0px;stroke-linecap:butt;stroke-linejoin:miter;stroke-opacity:1"/>
<path class="bond-11 atom-10 atom-12" d="M 332.0,119.7 L 304.1,147.6" style="fill:none;fill-rule:evenodd;stroke:#000000;stroke-width:2.0px;stroke-linecap:butt;stroke-linejoin:miter;stroke-opacity:1"/>
<path class="bond-11 atom-10 atom-12" d="M 304.1,147.6 L 276.2,175.5" style="fill:none;fill-rule:evenodd;stroke:#FF0000;stroke-width:2.0px;stroke-linecap:butt;stroke-linejoin:miter;stroke-opacity:1"/>
<path class="bond-11 atom-10 atom-12" d="M 342.3,130.0 L 314.4,157.9" style="fill:none;fill-rule:evenodd;stroke:#000000;stroke-width:2.0px;stroke-linecap:butt;stroke-linejoin:miter;stroke-opacity:1"/>
<path class="bond-11 atom-10 atom-12" d="M 314.4,157.9 L 286.5,185.8" style="fill:none;fill-rule:evenodd;stroke:#FF0000;stroke-width:2.0px;stroke-linecap:butt;stroke-linejoin:miter;stroke-opacity:1"/>
<path d="M 780.0,160.2 L 778.1,159.7 L 774.7,163.1" style="fill:none;stroke:#000000;stroke-width:2.0px;stroke-linecap:butt;stroke-linejoin:miter;stroke-opacity:1;"/>
<path d="M 712.9,224.9 L 709.4,228.3 L 707.5,227.8" style="fill:none;stroke:#000000;stroke-width:2.0px;stroke-linecap:butt;stroke-linejoin:miter;stroke-opacity:1;"/>
<path d="M 548.3,270.5 L 547.0,271.9 L 542.3,270.6" style="fill:none;stroke:#000000;stroke-width:2.0px;stroke-linecap:butt;stroke-linejoin:miter;stroke-opacity:1;"/>
<path d="M 429.3,157.6 L 428.0,152.9 L 423.3,151.7" style="fill:none;stroke:#000000;stroke-width:2.0px;stroke-linecap:butt;stroke-linejoin:miter;stroke-opacity:1;"/>
<path d="M 338.9,129.0 L 334.2,127.8 L 333.6,125.5" style="fill:none;stroke:#000000;stroke-width:2.0px;stroke-linecap:butt;stroke-linejoin:miter;stroke-opacity:1;"/>
<path class="atom-0" d="M 935.4 113.1 L 939.4 108.9 L 934.1 107.8 L 934.9 105.1 L 939.8 107.6 L 939.1 102.2 L 942.0 102.1 L 941.2 107.5 L 946.2 105.2 L 947.1 107.8 L 941.6 108.9 L 945.5 113.0 L 943.2 114.7 L 940.5 109.6 L 937.8 114.7 L 935.4 113.1 " fill="#191919"/>
<path class="atom-1" d="M 859.3 184.9 Q 859.3 178.3, 862.5 174.6 Q 865.8 170.9, 871.9 170.9 Q 878.0 170.9, 881.3 174.6 Q 884.5 178.3, 884.5 184.9 Q 884.5 191.6, 881.2 195.4 Q 877.9 199.1, 871.9 199.1 Q 865.8 199.1, 862.5 195.4 Q 859.3 191.6, 859.3 184.9 M 871.9 196.0 Q 876.1 196.0, 878.4 193.2 Q 880.6 190.4, 880.6 184.9 Q 880.6 179.5, 878.4 176.8 Q 876.1 174.0, 871.9 174.0 Q 867.7 174.0, 865.4 176.7 Q 863.2 179.4, 863.2 184.9 Q 863.2 190.4, 865.4 193.2 Q 867.7 196.0, 871.9 196.0 " fill="#FF0000"/>
<path class="atom-4" d="M 603.0 203.3 Q 603.0 196.7, 606.3 193.0 Q 609.5 189.3, 615.6 189.3 Q 621.7 189.3, 625.0 193.0 Q 628.3 196.7, 628.3 203.3 Q 628.3 210.0, 624.9 213.8 Q 621.6 217.5, 615.6 217.5 Q 609.6 217.5, 606.3 213.8 Q 603.0 210.0, 603.0 203.3 M 615.6 214.4 Q 619.8 214.4, 622.1 211.6 Q 624.4 208.8, 624.4 203.3 Q 624.4 197.9, 622.1 195.2 Q 619.8 192.4, 615.6 192.4 Q 611.4 192.4, 609.1 195.1 Q 606.9 197.8, 606.9 203.3 Q 606.9 208.8, 609.1 211.6 Q 611.4 214.4, 615.6 214.4 " fill="#FF0000"/>
<path class="atom-6" d="M 559.5 365.7 Q 559.5 359.1, 562.7 355.4 Q 566.0 351.8, 572.1 351.8 Q 578.2 351.8, 581.5 355.4 Q 584.7 359.1, 584.7 365.7 Q 584.7 372.4, 581.4 376.2 Q 578.1 380.0, 572.1 380.0 Q 566.0 380.0, 562.7 376.2 Q 559.5 372.5, 559.5 365.7 M 572.1 376.9 Q 576.3 376.9, 578.5 374.1 Q 580.8 371.3, 580.8 365.7 Q 580.8 360.3, 578.5 357.6 Q 576.3 354.9, 572.1 354.9 Q 567.9 354.9, 565.6 357.6 Q 563.4 360.3, 563.4 365.7 Q 563.4 371.3, 565.6 374.1 Q 567.9 376.9, 572.1 376.9 " fill="#FF0000"/>
<path class="atom-11" d="M 303.9 30.9 L 307.9 26.8 L 302.6 25.7 L 303.4 23.0 L 308.3 25.4 L 307.6 20.0 L 310.5 20.0 L 309.7 25.4 L 314.7 23.1 L 315.6 25.7 L 310.1 26.7 L 314.0 30.9 L 311.7 32.6 L 309.0 27.5 L 306.3 32.6 L 303.9 30.9 " fill="#191919"/>
<path class="atom-12" d="M 252.9 196.5 Q 252.9 189.9, 256.2 186.2 Q 259.4 182.6, 265.5 182.6 Q 271.6 182.6, 274.9 186.2 Q 278.2 189.9, 278.2 196.5 Q 278.2 203.2, 274.9 207.0 Q 271.6 210.8, 265.5 210.8 Q 259.5 210.8, 256.2 207.0 Q 252.9 203.3, 252.9 196.5 M 265.5 207.7 Q 269.7 207.7, 272.0 204.9 Q 274.3 202.1, 274.3 196.5 Q 274.3 191.1, 272.0 188.4 Q 269.7 185.7, 265.5 185.7 Q 261.3 185.7, 259.1 188.4 Q 256.8 191.1, 256.8 196.5 Q 256.8 202.1, 259.1 204.9 Q 261.3 207.7, 265.5 207.7 " fill="#FF0000"/>
<path class="bond-0 atom-0 atom-1" d="M 974.6,559.6 L 942.7,579.4" style="fill:none;fill-rule:evenodd;stroke:#191919;stroke-width:2.0px;stroke-linecap:butt;stroke-linejoin:miter;stroke-opacity:1"/>
<path class="bond-0 atom-0 atom-1" d="M 942.7,579.4 L 910.8,599.2" style="fill:none;fill-rule:evenodd;stroke:#FF0000;stroke-width:2.0px;stroke-linecap:butt;stroke-linejoin:miter;stroke-opacity:1"/>
<path class="bond-1 atom-1 atom-2" d="M 879.2,600.6 L 844.3,581.9" style="fill:none;fill-rule:evenodd;stroke:#FF0000;stroke-width:2.0px;stroke-linecap:butt;stroke-linejoin:miter;stroke-opacity:1"/>
<path class="bond-1 atom-1 atom-2" d="M 844.3,581.9 L 809.4,563.2" style="fill:none;fill-rule:evenodd;stroke:#000000;stroke-width:2.0px;stroke-linecap:butt;stroke-linejoin:miter;stroke-opacity:1"/>
<path class="bond-2 atom-2 atom-3" d="M 809.4,563.2 L 726.9,614.5" style="fill:none;fill-rule:evenodd;stroke:#000000;stroke-width:2.0px;stroke-linecap:butt;stroke-linejoin:miter;stroke-opacity:1"/>
<path class="bond-3 atom-3 atom-4" d="M 726.9,614.5 L 692.0,595.8" style="fill:none;fill-rule:evenodd;stroke:#000000;stroke-width:2.0px;stroke-linecap:butt;stroke-linejoin:miter;stroke-opacity:1"/>
<path class="bond-3 atom-3 atom-4" d="M 692.0,595.8 L 657.1,577.2" style="fill:none;fill-rule:evenodd;stroke:#FF0000;stroke-width:2.0px;stroke-linecap:butt;stroke-linejoin:miter;stroke-opacity:1"/>
<path class="bond-4 atom-4 atom-5" d="M 625.4,578.5 L 592.1,599.2" style="fill:none;fill-rule:evenodd;stroke:#FF0000;stroke-width:2.0px;stroke-linecap:butt;stroke-linejoin:miter;stroke-opacity:1"/>
<path class="bond-4 atom-4 atom-5" d="M 592.1,599.2 L 558.8,620.0" style="fill:none;fill-rule:evenodd;stroke:#000000;stroke-width:2.0px;stroke-linecap:butt;stroke-linejoin:miter;stroke-opacity:1"/>
<path class="bond-5 atom-5 atom-6" d="M 551.3,616.0 L 552.7,658.1" style="fill:none;fill-rule:evenodd;stroke:#000000;stroke-width:2.0px;stroke-linecap:butt;stroke-linejoin:miter;stroke-opacity:1"/>
<path class="bond-5 atom-5 atom-6" d="M 552.7,658.1 L 554.1,700.1" style="fill:none;fill-rule:evenodd;stroke:#FF0000;stroke-width:2.0px;stroke-linecap:butt;stroke-linejoin:miter;stroke-opacity:1"/>
<path class="bond-5 atom-5 atom-6" d="M 565.9,615.5 L 567.3,657.6" style="fill:none;fill-rule:evenodd;stroke:#000000;stroke-width:2.0px;stroke-linecap:butt;stroke-linejoin:miter;stroke-opacity:1"/>
<path class="bond-5 atom-5 atom-6" d="M 567.3,657.6 L 568.6,699.7" style="fill:none;fill-rule:evenodd;stroke:#FF0000;stroke-width:2.0px;stroke-linecap:butt;stroke-linejoin:miter;stroke-opacity:1"/>
<path class="bond-6 atom-5 atom-7" d="M 558.8,620.0 L 473.1,574.2" style="fill:none;fill-rule:evenodd;stroke:#000000;stroke-width:2.0px;stroke-linecap:butt;stroke-linejoin:miter;stroke-opacity:1"/>
<path class="bond-7 atom-7 atom-8" d="M 473.1,574.2 L 390.6,625.4" style="fill:none;fill-rule:evenodd;stroke:#000000;stroke-width:2.0px;stroke-linecap:butt;stroke-linejoin:miter;stroke-opacity:1"/>
<path class="bond-7 atom-7 atom-8" d="M 473.7,591.0 L 398.3,637.8" style="fill:none;fill-rule:evenodd;stroke:#000000;stroke-width:2.0px;stroke-linecap:butt;stroke-linejoin:miter;stroke-opacity:1"/>
<path class="bond-8 atom-8 atom-9" d="M 390.6,625.4 L 305.0,579.6" style="fill:none;fill-rule:evenodd;stroke:#000000;stroke-width:2.0px;stroke-linecap:butt;stroke-linejoin:miter;stroke-opacity:1"/>
<path class="bond-9 atom-9 atom-10" d="M 305.0,579.6 L 268.6,602.2" style="fill:none;fill-rule:evenodd;stroke:#000000;stroke-width:2.0px;stroke-linecap:butt;stroke-linejoin:miter;stroke-opacity:1"/>
<path class="bond-9 atom-9 atom-10" d="M 268.6,602.2 L 232.2,624.9" style="fill:none;fill-rule:evenodd;stroke:#191919;stroke-width:2.0px;stroke-linecap:butt;stroke-linejoin:miter;stroke-opacity:1"/>
<path class="bond-10 atom-9 atom-11" d="M 312.4,583.6 L 311.1,541.7" style="fill:none;fill-rule:evenodd;stroke:#000000;stroke-width:2.0px;stroke-linecap:butt;stroke-linejoin:miter;stroke-opacity:1"/>
<path class="bond-10 atom-9 atom-11" d="M 311.1,541.7 L 309.7,499.9" style="fill:none;fill-rule:evenodd;stroke:#FF0000;stroke-width:2.0px;stroke-linecap:butt;stroke-linejoin:miter;stroke-opacity:1"/>
<path class="bond-10 atom-9 atom-11" d="M 297.9,584.1 L 296.5,542.2" style="fill:none;fill-rule:evenodd;stroke:#000000;stroke-width:2.0px;stroke-linecap:butt;stroke-linejoin:miter;stroke-opacity:1"/>
<path class="bond-10 atom-9 atom-11" d="M 296.5,542.2 L 295.1,500.3" style="fill:none;fill-rule:evenodd;stroke:#FF0000;stroke-width:2.0px;stroke-linecap:butt;stroke-linejoin:miter;stroke-opacity:1"/>
<path d="M 811.1,564.2 L 809.4,563.2 L 805.2,565.8" style="fill:none;stroke:#000000;stroke-width:2.0px;stroke-linecap:butt;stroke-linejoin:miter;stroke-opacity:1;"/>
<path d="M 731.0,611.9 L 726.9,614.5 L 725.1,613.6" style="fill:none;stroke:#000000;stroke-width:2.0px;stroke-linecap:butt;stroke-linejoin:miter;stroke-opacity:1;"/>
<path d="M 560.4,618.9 L 558.8,620.0 L 554.5,617.7" style="fill:none;stroke:#000000;stroke-width:2.0px;stroke-linecap:butt;stroke-linejoin:miter;stroke-opacity:1;"/>
<path d="M 477.4,576.4 L 473.1,574.2 L 469.0,576.7" style="fill:none;stroke:#000000;stroke-width:2.0px;stroke-linecap:butt;stroke-linejoin:miter;stroke-opacity:1;"/>
<path d="M 394.8,622.9 L 390.6,625.4 L 386.4,623.1" style="fill:none;stroke:#000000;stroke-width:2.0px;stroke-linecap:butt;stroke-linejoin:miter;stroke-opacity:1;"/>
<path d="M 309.3,581.9 L 305.0,579.6 L 303.2,580.8" style="fill:none;stroke:#000000;stroke-width:2.0px;stroke-linecap:butt;stroke-linejoin:miter;stroke-opacity:1;"/>
<path class="atom-0" d="M 972.3 554.7 L 976.3 550.6 L 971.0 549.5 L 971.8 546.7 L 976.7 549.2 L 976.0 543.8 L 978.9 543.8 L 978.1 549.2 L 983.1 546.8 L 984.0 549.5 L 978.5 550.5 L 982.4 554.6 L 980.1 556.4 L 977.4 551.2 L 974.7 556.4 L 972.3 554.7 " fill="#191919"/>
<path class="atom-1" d="M 882.4 609.1 Q 882.4 602.5, 885.6 598.8 Q 888.9 595.1, 895.0 595.1 Q 901.1 595.1, 904.4 598.8 Q 907.6 602.5, 907.6 609.1 Q 907.6 615.8, 904.3 619.6 Q 901.0 623.3, 895.0 623.3 Q 888.9 623.3, 885.6 619.6 Q 882.4 615.8, 882.4 609.1 M 895.0 620.2 Q 899.2 620.2, 901.4 617.4 Q 903.7 614.6, 903.7 609.1 Q 903.7 603.7, 901.4 601.0 Q 899.2 598.2, 895.0 598.2 Q 890.8 598.2, 888.5 600.9 Q 886.3 603.7, 886.3 609.1 Q 886.3 614.6, 888.5 617.4 Q 890.8 620.2, 895.0 620.2 " fill="#FF0000"/>
<path class="atom-4" d="M 628.6 568.8 Q 628.6 562.2, 631.9 558.5 Q 635.1 554.8, 641.2 554.8 Q 647.3 554.8, 650.6 558.5 Q 653.9 562.2, 653.9 568.8 Q 653.9 575.4, 650.6 579.3 Q 647.3 583.0, 641.2 583.0 Q 635.2 583.0, 631.9 579.3 Q 628.6 575.5, 628.6 568.8 M 641.2 579.9 Q 645.4 579.9, 647.7 577.1 Q 650.0 574.3, 650.0 568.8 Q 650.0 563.4, 647.7 560.6 Q 645.4 557.9, 641.2 557.9 Q 637.0 557.9, 634.8 560.6 Q 632.5 563.3, 632.5 568.8 Q 632.5 574.3, 634.8 577.1 Q 637.0 579.9, 641.2 579.9 " fill="#FF0000"/>
<path class="atom-6" d="M 549.3 717.1 Q 549.3 710.5, 552.6 706.8 Q 555.8 703.1, 561.9 703.1 Q 568.0 703.1, 571.3 706.8 Q 574.5 710.5, 574.5 717.1 Q 574.5 723.8, 571.2 727.6 Q 567.9 731.3, 561.9 731.3 Q 555.9 731.3, 552.6 727.6 Q 549.3 723.8, 549.3 717.1 M 561.9 728.2 Q 566.1 728.2, 568.4 725.4 Q 570.7 722.6, 570.7 717.1 Q 570.7 711.7, 568.4 709.0 Q 566.1 706.2, 561.9 706.2 Q 557.7 706.2, 555.4 708.9 Q 553.2 711.7, 553.2 717.1 Q 553.2 722.6, 555.4 725.4 Q 557.7 728.2, 561.9 728.2 " fill="#FF0000"/>
<path class="atom-10" d="M 217.3 627.8 L 221.4 623.7 L 216.0 622.6 L 216.8 619.9 L 221.8 622.3 L 221.1 616.9 L 224.0 616.9 L 223.2 622.3 L 228.2 620.0 L 229.0 622.6 L 223.6 623.6 L 227.5 627.8 L 225.1 629.5 L 222.4 624.4 L 219.7 629.5 L 217.3 627.8 " fill="#191919"/>
<path class="atom-11" d="M 289.2 482.6 Q 289.2 476.0, 292.5 472.3 Q 295.8 468.7, 301.9 468.7 Q 307.9 468.7, 311.2 472.3 Q 314.5 476.0, 314.5 482.6 Q 314.5 489.3, 311.2 493.1 Q 307.9 496.9, 301.9 496.9 Q 295.8 496.9, 292.5 493.1 Q 289.2 489.4, 289.2 482.6 M 301.9 493.8 Q 306.0 493.8, 308.3 491.0 Q 310.6 488.2, 310.6 482.6 Q 310.6 477.2, 308.3 474.5 Q 306.0 471.8, 301.9 471.8 Q 297.7 471.8, 295.4 474.5 Q 293.1 477.2, 293.1 482.6 Q 293.1 488.2, 295.4 491.0 Q 297.7 493.8, 301.9 493.8 " fill="#FF0000"/>
</svg>