<svg xmlns="http://www.w3.org/2000/svg" xmlns:rdkit="http://www.rdkit.org/xml" xmlns:xlink="http://www.w3.org/1999/xlink" version="1.1" baseProfile="full" xml:space="preserve" width="1200px" height="800px" viewBox="0 0 1200 800">
<!-- END OF HEADER -->
<rect style="opacity:1.0;fill:#FFFFFF;stroke:none" width="1200.0" height="800.0" x="0.0" y="0.0"> </rect>
<path class="bond-0 atom-0 atom-1" d="M 219.3,124.6 L 263.3,108.3" style="fill:none;fill-rule:evenodd;stroke:#191919;stroke-width:2.0px;stroke-linecap:butt;stroke-linejoin:miter;stroke-opacity:1"/>
<path class="bond-0 atom-0 atom-1" d="M 263.3,108.3 L 307.3,92.0" style="fill:none;fill-rule:evenodd;stroke:#0000FF;stroke-width:2.0px;stroke-linecap:butt;stroke-linejoin:miter;stroke-opacity:1"/>
<path class="bond-1 atom-1 atom-2" d="M 336.8,98.8 L 376.0,131.2" style="fill:none;fill-rule:evenodd;stroke:#0000FF;stroke-width:2.0px;stroke-linecap:butt;stroke-linejoin:miter;stroke-opacity:1"/>
<path class="bond-1 atom-1 atom-2" d="M 376.0,131.2 L 415.2,163.7" style="fill:none;fill-rule:evenodd;stroke:#000000;stroke-width:2.0px;stroke-linecap:butt;stroke-linejoin:miter;stroke-opacity:1"/>
<path class="bond-2 atom-2 atom-3" d="M 415.2,163.7 L 528.6,121.7" style="fill:none;fill-rule:evenodd;stroke:#000000;stroke-width:2.0px;stroke-linecap:butt;stroke-linejoin:miter;stroke-opacity:1"/>
<path class="bond-3 atom-3 atom-4" d="M 528.6,121.7 L 621.7,198.9" style="fill:none;fill-rule:evenodd;stroke:#000000;stroke-width:2.0px;stroke-linecap:butt;stroke-linejoin:miter;stroke-opacity:1"/>
<path class="bond-4 atom-4 atom-5" d="M 621.7,198.9 L 735.2,156.8" style="fill:none;fill-rule:evenodd;stroke:#000000;stroke-width:2.0px;stroke-linecap:butt;stroke-linejoin:miter;stroke-opacity:1"/>
<path class="bond-5 atom-5 atom-6" d="M 735.2,156.8 L 828.3,234.1" style="fill:none;fill-rule:evenodd;stroke:#000000;stroke-width:2.0px;stroke-linecap:butt;stroke-linejoin:miter;stroke-opacity:1"/>
<path class="bond-6 atom-6 atom-7" d="M 828.3,234.1 L 877.6,215.8" style="fill:none;fill-rule:evenodd;stroke:#000000;stroke-width:2.0px;stroke-linecap:butt;stroke-linejoin:miter;stroke-opacity:1"/>
<path class="bond-6 atom-6 atom-7" d="M 877.6,215.8 L 927.0,197.5" style="fill:none;fill-rule:evenodd;stroke:#0000FF;stroke-width:2.0px;stroke-linecap:butt;stroke-linejoin:miter;stroke-opacity:1"/>
<path class="bond-7 atom-2 atom-8" d="M 415.2,163.7 L 394.9,283.0" style="fill:none;fill-rule:evenodd;stroke:#000000;stroke-width:2.0px;stroke-linecap:butt;stroke-linejoin:miter;stroke-opacity:1"/>
<path class="bond-8 atom-8 atom-9" d="M 394.9,283.0 L 436.1,317.2" style="fill:none;fill-rule:evenodd;stroke:#000000;stroke-width:2.0px;stroke-linecap:butt;stroke-linejoin:miter;stroke-opacity:1"/>
<path class="bond-8 atom-8 atom-9" d="M 436.1,317.2 L 477.3,351.4" style="fill:none;fill-rule:evenodd;stroke:#191919;stroke-width:2.0px;stroke-linecap:butt;stroke-linejoin:miter;stroke-opacity:1"/>
<path class="bond-9 atom-8 atom-10" d="M 396.6,272.7 L 345.9,291.5" style="fill:none;fill-rule:evenodd;stroke:#000000;stroke-width:2.0px;stroke-linecap:butt;stroke-linejoin:miter;stroke-opacity:1"/>
<path class="bond-9 atom-8 atom-10" d="M 345.9,291.5 L 295.3,310.3" style="fill:none;fill-rule:evenodd;stroke:#FF0000;stroke-width:2.0px;stroke-linecap:butt;stroke-linejoin:miter;stroke-opacity:1"/>
<path class="bond-9 atom-8 atom-10" d="M 402.9,289.7 L 352.2,308.5" style="fill:none;fill-rule:evenodd;stroke:#000000;stroke-width:2.0px;stroke-linecap:butt;stroke-linejoin:miter;stroke-opacity:1"/>
<path class="bond-9 atom-8 atom-10" d="M 352.2,308.5 L 301.6,327.3" style="fill:none;fill-rule:evenodd;stroke:#FF0000;stroke-width:2.0px;stroke-linecap:butt;stroke-linejoin:miter;stroke-opacity:1"/>
<path d="M 522.9,123.8 L 528.6,121.7 L 533.2,125.6" style="fill:none;stroke:#000000;stroke-width:2.0px;stroke-linecap:butt;stroke-linejoin:miter;stroke-opacity:1;"/>
<path d="M 617.1,195.0 L 621.7,198.9 L 627.4,196.8" style="fill:none;stroke:#000000;stroke-width:2.0px;stroke-linecap:butt;stroke-linejoin:miter;stroke-opacity:1;"/>
<path d="M 729.5,159.0 L 735.2,156.8 L 739.8,160.7" style="fill:none;stroke:#000000;stroke-width:2.0px;stroke-linecap:butt;stroke-linejoin:miter;stroke-opacity:1;"/>
<path d="M 823.6,230.2 L 828.3,234.1 L 830.8,233.1" style="fill:none;stroke:#000000;stroke-width:2.0px;stroke-linecap:butt;stroke-linejoin:miter;stroke-opacity:1;"/>
<path d="M 395.9,277.0 L 394.9,283.0 L 396.9,284.7" style="fill:none;stroke:#000000;stroke-width:2.0px;stroke-linecap:butt;stroke-linejoin:miter;stroke-opacity:1;"/>
<path class="atom-0" d="M 203.2 125.4 L 207.4 121.2 L 201.9 120.1 L 202.7 117.2 L 207.8 119.8 L 207.1 114.2 L 210.1 114.2 L 209.2 119.8 L 214.4 117.4 L 215.3 120.1 L 209.7 121.1 L 213.7 125.4 L 211.2 127.2 L 208.5 121.9 L 205.7 127.2 L 203.2 125.4 " fill="#191919"/>
<path class="atom-1" d="M 315.8 72.4 L 325.0 87.4 Q 326.0 88.9, 327.4 91.5 Q 328.9 94.2, 329.0 94.4 L 329.0 72.4 L 332.8 72.4 L 332.8 100.7 L 328.9 100.7 L 318.9 84.3 Q 317.8 82.4, 316.5 80.2 Q 315.3 78.0, 315.0 77.3 L 315.0 100.7 L 311.3 100.7 L 311.3 72.4 L 315.8 72.4 " fill="#0000FF"/>
<path class="atom-1" d="M 310.9 41.2 L 314.8 41.2 L 314.8 53.3 L 329.3 53.3 L 329.3 41.2 L 333.1 41.2 L 333.1 69.5 L 329.3 69.5 L 329.3 56.5 L 314.8 56.5 L 314.8 69.5 L 310.9 69.5 L 310.9 41.2 " fill="#0000FF"/>
<path class="atom-7" d="M 935.5 177.8 L 944.7 192.8 Q 945.7 194.3, 947.1 197.0 Q 948.6 199.7, 948.7 199.8 L 948.7 177.8 L 952.5 177.8 L 952.5 206.2 L 948.6 206.2 L 938.6 189.8 Q 937.5 187.8, 936.2 185.6 Q 935.0 183.4, 934.7 182.8 L 934.7 206.2 L 931.0 206.2 L 931.0 177.8 L 935.5 177.8 " fill="#0000FF"/>
<path class="atom-7" d="M 957.9 177.8 L 961.7 177.8 L 961.7 189.9 L 976.2 189.9 L 976.2 177.8 L 980.0 177.8 L 980.0 206.2 L 976.2 206.2 L 976.2 193.1 L 961.7 193.1 L 961.7 206.2 L 957.9 206.2 L 957.9 177.8 " fill="#0000FF"/>
<path class="atom-7" d="M 985.6 205.2 Q 986.3 203.4, 987.9 202.4 Q 989.5 201.4, 991.8 201.4 Q 994.6 201.4, 996.2 203.0 Q 997.8 204.5, 997.8 207.2 Q 997.8 210.0, 995.7 212.6 Q 993.7 215.1, 989.5 218.2 L 998.1 218.2 L 998.1 220.3 L 985.5 220.3 L 985.5 218.6 Q 989.0 216.1, 991.1 214.2 Q 993.1 212.4, 994.2 210.7 Q 995.2 209.1, 995.2 207.3 Q 995.2 205.5, 994.3 204.5 Q 993.4 203.5, 991.8 203.5 Q 990.3 203.5, 989.3 204.1 Q 988.3 204.7, 987.6 206.1 L 985.6 205.2 " fill="#0000FF"/>
<path class="atom-9" d="M 482.7 357.1 L 486.8 352.8 L 481.3 351.7 L 482.1 348.9 L 487.2 351.4 L 486.5 345.9 L 489.5 345.8 L 488.7 351.4 L 493.8 349.0 L 494.7 351.7 L 489.1 352.7 L 493.1 357.0 L 490.7 358.8 L 487.9 353.5 L 485.1 358.8 L 482.7 357.1 " fill="#191919"/>
<path class="atom-10" d="M 268.4 325.1 Q 268.4 318.3, 271.8 314.5 Q 275.1 310.7, 281.4 310.7 Q 287.7 310.7, 291.1 314.5 Q 294.4 318.3, 294.4 325.1 Q 294.4 332.0, 291.0 335.9 Q 287.6 339.8, 281.4 339.8 Q 275.2 339.8, 271.8 335.9 Q 268.4 332.1, 268.4 325.1 M 281.4 336.6 Q 285.7 336.6, 288.1 333.7 Q 290.4 330.8, 290.4 325.1 Q 290.4 319.6, 288.1 316.8 Q 285.7 313.9, 281.4 313.9 Q 277.1 313.9, 274.7 316.7 Q 272.4 319.5, 272.4 325.1 Q 272.4 330.9, 274.7 333.7 Q 277.1 336.6, 281.4 336.6 " fill="#FF0000"/>
<path class="bond-0 atom-0 atom-1" d="M 231.5,568.9 L 277.0,560.3" style="fill:none;fill-rule:evenodd;stroke:#191919;stroke-width:2.0px;stroke-linecap:butt;stroke-linejoin:miter;stroke-opacity:1"/>
<path class="bond-0 atom-0 atom-1" d="M 277.0,560.3 L 322.6,551.7" style="fill:none;fill-rule:evenodd;stroke:#FF0000;stroke-width:2.0px;stroke-linecap:butt;stroke-linejoin:miter;stroke-opacity:1"/>
<path class="bond-1 atom-1 atom-2" d="M 355.8,567.2 L 387.2,603.7" style="fill:none;fill-rule:evenodd;stroke:#FF0000;stroke-width:2.0px;stroke-linecap:butt;stroke-linejoin:miter;stroke-opacity:1"/>
<path class="bond-1 atom-1 atom-2" d="M 387.2,603.7 L 418.6,640.1" style="fill:none;fill-rule:evenodd;stroke:#000000;stroke-width:2.0px;stroke-linecap:butt;stroke-linejoin:miter;stroke-opacity:1"/>
<path class="bond-2 atom-2 atom-3" d="M 418.6,640.1 L 537.4,617.6" style="fill:none;fill-rule:evenodd;stroke:#000000;stroke-width:2.0px;stroke-linecap:butt;stroke-linejoin:miter;stroke-opacity:1"/>
<path class="bond-3 atom-3 atom-4" d="M 537.4,617.6 L 569.0,654.3" style="fill:none;fill-rule:evenodd;stroke:#000000;stroke-width:2.0px;stroke-linecap:butt;stroke-linejoin:miter;stroke-opacity:1"/>
<path class="bond-3 atom-3 atom-4" d="M 569.0,654.3 L 600.6,691.0" style="fill:none;fill-rule:evenodd;stroke:#FF0000;stroke-width:2.0px;stroke-linecap:butt;stroke-linejoin:miter;stroke-opacity:1"/>
<path class="bond-4 atom-4 atom-5" d="M 633.3,706.1 L 684.3,696.5" style="fill:none;fill-rule:evenodd;stroke:#FF0000;stroke-width:2.0px;stroke-linecap:butt;stroke-linejoin:miter;stroke-opacity:1"/>
<path class="bond-4 atom-4 atom-5" d="M 684.3,696.5 L 735.2,686.8" style="fill:none;fill-rule:evenodd;stroke:#000000;stroke-width:2.0px;stroke-linecap:butt;stroke-linejoin:miter;stroke-opacity:1"/>
<path class="bond-5 atom-5 atom-6" d="M 735.2,686.8 L 814.1,778.5" style="fill:none;fill-rule:evenodd;stroke:#000000;stroke-width:2.0px;stroke-linecap:butt;stroke-linejoin:miter;stroke-opacity:1"/>
<path class="bond-6 atom-5 atom-7" d="M 735.2,686.8 L 775.1,572.6" style="fill:none;fill-rule:evenodd;stroke:#000000;stroke-width:2.0px;stroke-linecap:butt;stroke-linejoin:miter;stroke-opacity:1"/>
<path class="bond-7 atom-7 atom-8" d="M 775.1,572.6 L 894.0,550.1" style="fill:none;fill-rule:evenodd;stroke:#000000;stroke-width:2.0px;stroke-linecap:butt;stroke-linejoin:miter;stroke-opacity:1"/>
<path class="bond-8 atom-8 atom-9" d="M 894.0,550.1 L 913.5,494.3" style="fill:none;fill-rule:evenodd;stroke:#000000;stroke-width:2.0px;stroke-linecap:butt;stroke-linejoin:miter;stroke-opacity:1"/>
<path class="bond-8 atom-8 atom-9" d="M 913.5,494.3 L 933.1,438.5" style="fill:none;fill-rule:evenodd;stroke:#191919;stroke-width:2.0px;stroke-linecap:butt;stroke-linejoin:miter;stroke-opacity:1"/>
<path class="bond-9 atom-8 atom-10" d="M 883.7,552.1 L 917.0,590.7" style="fill:none;fill-rule:evenodd;stroke:#000000;stroke-width:2.0px;stroke-linecap:butt;stroke-linejoin:miter;stroke-opacity:1"/>
<path class="bond-9 atom-8 atom-10" d="M 917.0,590.7 L 950.3,629.4" style="fill:none;fill-rule:evenodd;stroke:#FF0000;stroke-width:2.0px;stroke-linecap:butt;stroke-linejoin:miter;stroke-opacity:1"/>
<path class="bond-9 atom-8 atom-10" d="M 897.5,540.2 L 930.8,578.9" style="fill:none;fill-rule:evenodd;stroke:#000000;stroke-width:2.0px;stroke-linecap:butt;stroke-linejoin:miter;stroke-opacity:1"/>
<path class="bond-9 atom-8 atom-10" d="M 930.8,578.9 L 964.0,617.6" style="fill:none;fill-rule:evenodd;stroke:#FF0000;stroke-width:2.0px;stroke-linecap:butt;stroke-linejoin:miter;stroke-opacity:1"/>
<path d="M 417.0,638.3 L 418.6,640.1 L 424.5,639.0" style="fill:none;stroke:#000000;stroke-width:2.0px;stroke-linecap:butt;stroke-linejoin:miter;stroke-opacity:1;"/>
<path d="M 531.5,618.8 L 537.4,617.6 L 539.0,619.5" style="fill:none;stroke:#000000;stroke-width:2.0px;stroke-linecap:butt;stroke-linejoin:miter;stroke-opacity:1;"/>
<path d="M 773.1,578.3 L 775.1,572.6 L 781.1,571.5" style="fill:none;stroke:#000000;stroke-width:2.0px;stroke-linecap:butt;stroke-linejoin:miter;stroke-opacity:1;"/>
<path d="M 888.1,551.2 L 894.0,550.1 L 895.0,547.3" style="fill:none;stroke:#000000;stroke-width:2.0px;stroke-linecap:butt;stroke-linejoin:miter;stroke-opacity:1;"/>
<path class="atom-0" d="M 215.4 567.8 L 219.6 563.6 L 214.1 562.4 L 214.9 559.6 L 220.0 562.2 L 219.3 556.6 L 222.3 556.6 L 221.4 562.1 L 226.6 559.7 L 227.5 562.4 L 221.9 563.5 L 225.9 567.8 L 223.4 569.5 L 220.7 564.2 L 217.9 569.5 L 215.4 567.8 " fill="#191919"/>
<path class="atom-1" d="M 326.6 548.5 Q 326.6 541.7, 330.0 537.9 Q 333.4 534.1, 339.6 534.1 Q 345.9 534.1, 349.3 537.9 Q 352.6 541.7, 352.6 548.5 Q 352.6 555.4, 349.2 559.3 Q 345.8 563.2, 339.6 563.2 Q 333.4 563.2, 330.0 559.3 Q 326.6 555.5, 326.6 548.5 M 339.6 560.0 Q 344.0 560.0, 346.3 557.1 Q 348.6 554.2, 348.6 548.5 Q 348.6 543.0, 346.3 540.2 Q 344.0 537.3, 339.6 537.3 Q 335.3 537.3, 333.0 540.1 Q 330.6 542.9, 330.6 548.5 Q 330.6 554.3, 333.0 557.1 Q 335.3 560.0, 339.6 560.0 " fill="#FF0000"/>
<path class="atom-4" d="M 603.3 709.4 Q 603.3 702.6, 606.7 698.8 Q 610.1 695.0, 616.3 695.0 Q 622.6 695.0, 626.0 698.8 Q 629.3 702.6, 629.3 709.4 Q 629.3 716.3, 625.9 720.2 Q 622.5 724.1, 616.3 724.1 Q 610.1 724.1, 606.7 720.2 Q 603.3 716.3, 603.3 709.4 M 616.3 720.9 Q 620.7 720.9, 623.0 718.0 Q 625.3 715.1, 625.3 709.4 Q 625.3 703.8, 623.0 701.0 Q 620.7 698.2, 616.3 698.2 Q 612.0 698.2, 609.7 701.0 Q 607.3 703.8, 607.3 709.4 Q 607.3 715.1, 609.7 718.0 Q 612.0 720.9, 616.3 720.9 " fill="#FF0000"/>
<path class="atom-9" d="M 928.6 432.8 L 932.8 428.5 L 927.2 427.4 L 928.1 424.6 L 933.2 427.1 L 932.4 421.6 L 935.4 421.5 L 934.6 427.1 L 939.8 424.7 L 940.6 427.4 L 935.0 428.4 L 939.0 432.7 L 936.6 434.5 L 933.8 429.2 L 931.0 434.5 L 928.6 432.8 " fill="#191919"/>
<path class="atom-10" d="M 959.9 641.9 Q 959.9 635.1, 963.3 631.3 Q 966.7 627.5, 972.9 627.5 Q 979.2 627.5, 982.6 631.3 Q 985.9 635.1, 985.9 641.9 Q 985.9 648.7, 982.5 652.7 Q 979.1 656.5, 972.9 656.5 Q 966.7 656.5, 963.3 652.7 Q 959.9 648.8, 959.9 641.9 M 972.9 653.3 Q 977.3 653.3, 979.6 650.5 Q 981.9 647.5, 981.9 641.9 Q 981.9 636.3, 979.6 633.5 Q 977.3 630.7, 972.9 630.7 Q 968.6 630.7, 966.3 633.5 Q 963.9 636.3, 963.9 641.9 Q 963.9 647.6, 966.3 650.5 Q 968.6 653.3, 972.9 653.3 " fill="#FF0000"/>
</svg>