<svg xmlns="http://www.w3.org/2000/svg" xmlns:rdkit="http://www.rdkit.org/xml" xmlns:xlink="http://www.w3.org/1999/xlink" version="1.1" baseProfile="full" xml:space="preserve" width="1200px" height="1200px" viewBox="0 0 1200 1200">
<!-- END OF HEADER -->
<rect style="opacity:1.0;fill:#FFFFFF;stroke:none" width="1200.0" height="1200.0" x="0.0" y="0.0"> </rect>
<path class="bond-0 atom-0 atom-1" d="M 938.3,123.2 L 897.5,158.8" style="fill:none;fill-rule:evenodd;stroke:#191919;stroke-width:2.0px;stroke-linecap:butt;stroke-linejoin:miter;stroke-opacity:1"/>
<path class="bond-0 atom-0 atom-1" d="M 897.5,158.8 L 856.8,194.5" style="fill:none;fill-rule:evenodd;stroke:#CCCC00;stroke-width:2.0px;stroke-linecap:butt;stroke-linejoin:miter;stroke-opacity:1"/>
<path class="bond-1 atom-1 atom-2" d="M 830.0,201.6 L 775.0,182.9" style="fill:none;fill-rule:evenodd;stroke:#CCCC00;stroke-width:2.0px;stroke-linecap:butt;stroke-linejoin:miter;stroke-opacity:1"/>
<path class="bond-1 atom-1 atom-2" d="M 775.0,182.9 L 720.0,164.1" style="fill:none;fill-rule:evenodd;stroke:#000000;stroke-width:2.0px;stroke-linecap:butt;stroke-linejoin:miter;stroke-opacity:1"/>
<path class="bond-2 atom-2 atom-3" d="M 730.7,167.8 L 719.4,110.7" style="fill:none;fill-rule:evenodd;stroke:#000000;stroke-width:2.0px;stroke-linecap:butt;stroke-linejoin:miter;stroke-opacity:1"/>
<path class="bond-2 atom-2 atom-3" d="M 719.4,110.7 L 708.1,53.5" style="fill:none;fill-rule:evenodd;stroke:#CCCC00;stroke-width:2.0px;stroke-linecap:butt;stroke-linejoin:miter;stroke-opacity:1"/>
<path class="bond-2 atom-2 atom-3" d="M 711.5,171.6 L 700.2,114.5" style="fill:none;fill-rule:evenodd;stroke:#000000;stroke-width:2.0px;stroke-linecap:butt;stroke-linejoin:miter;stroke-opacity:1"/>
<path class="bond-2 atom-2 atom-3" d="M 700.2,114.5 L 689.0,57.3" style="fill:none;fill-rule:evenodd;stroke:#CCCC00;stroke-width:2.0px;stroke-linecap:butt;stroke-linejoin:miter;stroke-opacity:1"/>
<path class="bond-3 atom-2 atom-4" d="M 720.0,164.1 L 678.5,200.5" style="fill:none;fill-rule:evenodd;stroke:#000000;stroke-width:2.0px;stroke-linecap:butt;stroke-linejoin:miter;stroke-opacity:1"/>
<path class="bond-3 atom-2 atom-4" d="M 678.5,200.5 L 637.0,236.8" style="fill:none;fill-rule:evenodd;stroke:#0000FF;stroke-width:2.0px;stroke-linecap:butt;stroke-linejoin:miter;stroke-opacity:1"/>
<path class="bond-4 atom-4 atom-5" d="M 625.6,268.4 L 636.4,323.1" style="fill:none;fill-rule:evenodd;stroke:#0000FF;stroke-width:2.0px;stroke-linecap:butt;stroke-linejoin:miter;stroke-opacity:1"/>
<path class="bond-4 atom-4 atom-5" d="M 636.4,323.1 L 647.2,377.9" style="fill:none;fill-rule:evenodd;stroke:#000000;stroke-width:2.0px;stroke-linecap:butt;stroke-linejoin:miter;stroke-opacity:1"/>
<path class="bond-5 atom-4 atom-6" d="M 606.9,244.9 L 552.7,226.4" style="fill:none;fill-rule:evenodd;stroke:#0000FF;stroke-width:2.0px;stroke-linecap:butt;stroke-linejoin:miter;stroke-opacity:1"/>
<path class="bond-5 atom-4 atom-6" d="M 552.7,226.4 L 498.5,207.9" style="fill:none;fill-rule:evenodd;stroke:#000000;stroke-width:2.0px;stroke-linecap:butt;stroke-linejoin:miter;stroke-opacity:1"/>
<path class="bond-6 atom-6 atom-7" d="M 498.5,207.9 L 400.4,293.8" style="fill:none;fill-rule:evenodd;stroke:#000000;stroke-width:2.0px;stroke-linecap:butt;stroke-linejoin:miter;stroke-opacity:1"/>
<path class="bond-6 atom-6 atom-7" d="M 477.2,200.6 L 396.1,271.6" style="fill:none;fill-rule:evenodd;stroke:#000000;stroke-width:2.0px;stroke-linecap:butt;stroke-linejoin:miter;stroke-opacity:1"/>
<path class="bond-7 atom-7 atom-8" d="M 400.4,293.8 L 277.0,251.7" style="fill:none;fill-rule:evenodd;stroke:#000000;stroke-width:2.0px;stroke-linecap:butt;stroke-linejoin:miter;stroke-opacity:1"/>
<path class="bond-8 atom-8 atom-9" d="M 277.0,251.7 L 251.8,123.8" style="fill:none;fill-rule:evenodd;stroke:#000000;stroke-width:2.0px;stroke-linecap:butt;stroke-linejoin:miter;stroke-opacity:1"/>
<path class="bond-8 atom-8 atom-9" d="M 294.0,236.9 L 273.1,131.1" style="fill:none;fill-rule:evenodd;stroke:#000000;stroke-width:2.0px;stroke-linecap:butt;stroke-linejoin:miter;stroke-opacity:1"/>
<path class="bond-9 atom-9 atom-10" d="M 251.8,123.8 L 349.9,38.0" style="fill:none;fill-rule:evenodd;stroke:#000000;stroke-width:2.0px;stroke-linecap:butt;stroke-linejoin:miter;stroke-opacity:1"/>
<path class="bond-10 atom-10 atom-11" d="M 349.9,38.0 L 473.3,80.1" style="fill:none;fill-rule:evenodd;stroke:#000000;stroke-width:2.0px;stroke-linecap:butt;stroke-linejoin:miter;stroke-opacity:1"/>
<path class="bond-10 atom-10 atom-11" d="M 354.3,60.2 L 456.3,94.9" style="fill:none;fill-rule:evenodd;stroke:#000000;stroke-width:2.0px;stroke-linecap:butt;stroke-linejoin:miter;stroke-opacity:1"/>
<path class="bond-11 atom-11 atom-6" d="M 473.3,80.1 L 498.5,207.9" style="fill:none;fill-rule:evenodd;stroke:#000000;stroke-width:2.0px;stroke-linecap:butt;stroke-linejoin:miter;stroke-opacity:1"/>
<path d="M 722.8,165.1 L 720.0,164.1 L 718.0,166.0" style="fill:none;stroke:#000000;stroke-width:2.0px;stroke-linecap:butt;stroke-linejoin:miter;stroke-opacity:1;"/>
<path d="M 405.3,289.5 L 400.4,293.8 L 394.3,291.7" style="fill:none;stroke:#000000;stroke-width:2.0px;stroke-linecap:butt;stroke-linejoin:miter;stroke-opacity:1;"/>
<path d="M 283.2,253.8 L 277.0,251.7 L 275.8,245.3" style="fill:none;stroke:#000000;stroke-width:2.0px;stroke-linecap:butt;stroke-linejoin:miter;stroke-opacity:1;"/>
<path d="M 253.0,130.2 L 251.8,123.8 L 256.7,119.5" style="fill:none;stroke:#000000;stroke-width:2.0px;stroke-linecap:butt;stroke-linejoin:miter;stroke-opacity:1;"/>
<path d="M 345.0,42.3 L 349.9,38.0 L 356.0,40.1" style="fill:none;stroke:#000000;stroke-width:2.0px;stroke-linecap:butt;stroke-linejoin:miter;stroke-opacity:1;"/>
<path d="M 467.1,78.0 L 473.3,80.1 L 474.5,86.4" style="fill:none;stroke:#000000;stroke-width:2.0px;stroke-linecap:butt;stroke-linejoin:miter;stroke-opacity:1;"/>
<path class="atom-0" d="M 936.2 117.2 L 940.4 113.0 L 934.8 111.8 L 935.7 109.0 L 940.8 111.6 L 940.0 106.0 L 943.0 106.0 L 942.2 111.5 L 947.4 109.1 L 948.2 111.8 L 942.6 112.9 L 946.6 117.2 L 944.2 118.9 L 941.4 113.6 L 938.6 118.9 L 936.2 117.2 " fill="#191919"/>
<path class="atom-1" d="M 835.4 215.9 Q 835.7 216.0, 837.1 216.6 Q 838.4 217.1, 839.8 217.5 Q 841.3 217.8, 842.7 217.8 Q 845.4 217.8, 847.0 216.5 Q 848.5 215.2, 848.5 212.9 Q 848.5 211.4, 847.7 210.4 Q 847.0 209.5, 845.8 208.9 Q 844.6 208.4, 842.6 207.8 Q 840.1 207.1, 838.5 206.3 Q 837.1 205.6, 836.0 204.1 Q 834.9 202.6, 834.9 200.0 Q 834.9 196.5, 837.3 194.3 Q 839.8 192.1, 844.6 192.1 Q 847.9 192.1, 851.6 193.6 L 850.7 196.7 Q 847.3 195.3, 844.7 195.3 Q 841.9 195.3, 840.4 196.5 Q 838.9 197.6, 838.9 199.5 Q 838.9 201.1, 839.7 202.0 Q 840.5 202.9, 841.6 203.4 Q 842.8 203.9, 844.7 204.5 Q 847.3 205.3, 848.8 206.1 Q 850.3 206.9, 851.4 208.6 Q 852.5 210.2, 852.5 212.9 Q 852.5 216.9, 849.9 219.0 Q 847.3 221.1, 842.9 221.1 Q 840.4 221.1, 838.5 220.5 Q 836.6 220.0, 834.3 219.1 L 835.4 215.9 " fill="#CCCC00"/>
<path class="atom-3" d="M 686.8 46.0 Q 687.1 46.1, 688.4 46.7 Q 689.7 47.2, 691.2 47.6 Q 692.6 47.9, 694.1 47.9 Q 696.8 47.9, 698.3 46.6 Q 699.9 45.3, 699.9 43.0 Q 699.9 41.5, 699.1 40.5 Q 698.3 39.5, 697.1 39.0 Q 695.9 38.5, 693.9 37.9 Q 691.4 37.1, 689.9 36.4 Q 688.4 35.7, 687.3 34.2 Q 686.3 32.7, 686.3 30.1 Q 686.3 26.5, 688.7 24.3 Q 691.1 22.1, 695.9 22.1 Q 699.2 22.1, 702.9 23.7 L 702.0 26.8 Q 698.6 25.4, 696.0 25.4 Q 693.3 25.4, 691.8 26.5 Q 690.2 27.7, 690.3 29.6 Q 690.3 31.1, 691.0 32.1 Q 691.8 33.0, 693.0 33.5 Q 694.1 34.0, 696.0 34.6 Q 698.6 35.4, 700.1 36.2 Q 701.6 37.0, 702.7 38.7 Q 703.8 40.3, 703.8 43.0 Q 703.8 46.9, 701.2 49.1 Q 698.6 51.1, 694.2 51.1 Q 691.7 51.1, 689.8 50.6 Q 687.9 50.1, 685.7 49.1 L 686.8 46.0 " fill="#CCCC00"/>
<path class="atom-4" d="M 615.7 235.8 L 625.0 250.8 Q 625.9 252.3, 627.4 255.0 Q 628.8 257.7, 628.9 257.8 L 628.9 235.8 L 632.7 235.8 L 632.7 264.1 L 628.8 264.1 L 618.8 247.7 Q 617.7 245.8, 616.4 243.6 Q 615.2 241.4, 614.9 240.7 L 614.9 264.1 L 611.2 264.1 L 611.2 235.8 L 615.7 235.8 " fill="#0000FF"/>
<path class="bond-0 atom-0 atom-1" d="M 1046.7,609.4 L 993.9,642.9" style="fill:none;fill-rule:evenodd;stroke:#191919;stroke-width:2.0px;stroke-linecap:butt;stroke-linejoin:miter;stroke-opacity:1"/>
<path class="bond-0 atom-0 atom-1" d="M 993.9,642.9 L 941.1,676.4" style="fill:none;fill-rule:evenodd;stroke:#000000;stroke-width:2.0px;stroke-linecap:butt;stroke-linejoin:miter;stroke-opacity:1"/>
<path class="bond-1 atom-1 atom-2" d="M 941.1,676.4 L 825.6,615.9" style="fill:none;fill-rule:evenodd;stroke:#000000;stroke-width:2.0px;stroke-linecap:butt;stroke-linejoin:miter;stroke-opacity:1"/>
<path class="bond-2 atom-2 atom-3" d="M 825.6,615.9 L 715.5,685.8" style="fill:none;fill-rule:evenodd;stroke:#000000;stroke-width:2.0px;stroke-linecap:butt;stroke-linejoin:miter;stroke-opacity:1"/>
<path class="bond-3 atom-3 atom-4" d="M 715.5,685.8 L 600.0,625.3" style="fill:none;fill-rule:evenodd;stroke:#000000;stroke-width:2.0px;stroke-linecap:butt;stroke-linejoin:miter;stroke-opacity:1"/>
<path class="bond-4 atom-4 atom-5" d="M 600.0,625.3 L 553.6,654.7" style="fill:none;fill-rule:evenodd;stroke:#000000;stroke-width:2.0px;stroke-linecap:butt;stroke-linejoin:miter;stroke-opacity:1"/>
<path class="bond-4 atom-4 atom-5" d="M 553.6,654.7 L 507.2,684.1" style="fill:none;fill-rule:evenodd;stroke:#FF0000;stroke-width:2.0px;stroke-linecap:butt;stroke-linejoin:miter;stroke-opacity:1"/>
<path class="bond-5 atom-5 atom-6" d="M 472.6,686.1 L 423.5,660.4" style="fill:none;fill-rule:evenodd;stroke:#FF0000;stroke-width:2.0px;stroke-linecap:butt;stroke-linejoin:miter;stroke-opacity:1"/>
<path class="bond-5 atom-5 atom-6" d="M 423.5,660.4 L 374.4,634.7" style="fill:none;fill-rule:evenodd;stroke:#000000;stroke-width:2.0px;stroke-linecap:butt;stroke-linejoin:miter;stroke-opacity:1"/>
<path class="bond-6 atom-6 atom-7" d="M 384.4,639.9 L 382.0,581.5" style="fill:none;fill-rule:evenodd;stroke:#000000;stroke-width:2.0px;stroke-linecap:butt;stroke-linejoin:miter;stroke-opacity:1"/>
<path class="bond-6 atom-6 atom-7" d="M 382.0,581.5 L 379.6,523.1" style="fill:none;fill-rule:evenodd;stroke:#FF0000;stroke-width:2.0px;stroke-linecap:butt;stroke-linejoin:miter;stroke-opacity:1"/>
<path class="bond-6 atom-6 atom-7" d="M 364.9,640.7 L 362.5,582.3" style="fill:none;fill-rule:evenodd;stroke:#000000;stroke-width:2.0px;stroke-linecap:butt;stroke-linejoin:miter;stroke-opacity:1"/>
<path class="bond-6 atom-6 atom-7" d="M 362.5,582.3 L 360.0,523.9" style="fill:none;fill-rule:evenodd;stroke:#FF0000;stroke-width:2.0px;stroke-linecap:butt;stroke-linejoin:miter;stroke-opacity:1"/>
<path class="bond-7 atom-6 atom-8" d="M 374.4,634.7 L 264.3,704.5" style="fill:none;fill-rule:evenodd;stroke:#000000;stroke-width:2.0px;stroke-linecap:butt;stroke-linejoin:miter;stroke-opacity:1"/>
<path class="bond-8 atom-8 atom-9" d="M 264.3,704.5 L 209.3,675.7" style="fill:none;fill-rule:evenodd;stroke:#000000;stroke-width:2.0px;stroke-linecap:butt;stroke-linejoin:miter;stroke-opacity:1"/>
<path class="bond-8 atom-8 atom-9" d="M 209.3,675.7 L 154.3,646.9" style="fill:none;fill-rule:evenodd;stroke:#191919;stroke-width:2.0px;stroke-linecap:butt;stroke-linejoin:miter;stroke-opacity:1"/>
<path d="M 943.7,674.7 L 941.1,676.4 L 935.3,673.4" style="fill:none;stroke:#000000;stroke-width:2.0px;stroke-linecap:butt;stroke-linejoin:miter;stroke-opacity:1;"/>
<path d="M 831.4,619.0 L 825.6,615.9 L 820.1,619.4" style="fill:none;stroke:#000000;stroke-width:2.0px;stroke-linecap:butt;stroke-linejoin:miter;stroke-opacity:1;"/>
<path d="M 721.0,682.3 L 715.5,685.8 L 709.7,682.7" style="fill:none;stroke:#000000;stroke-width:2.0px;stroke-linecap:butt;stroke-linejoin:miter;stroke-opacity:1;"/>
<path d="M 605.8,628.3 L 600.0,625.3 L 597.7,626.8" style="fill:none;stroke:#000000;stroke-width:2.0px;stroke-linecap:butt;stroke-linejoin:miter;stroke-opacity:1;"/>
<path d="M 376.9,636.0 L 374.4,634.7 L 368.9,638.2" style="fill:none;stroke:#000000;stroke-width:2.0px;stroke-linecap:butt;stroke-linejoin:miter;stroke-opacity:1;"/>
<path d="M 269.8,701.0 L 264.3,704.5 L 261.6,703.0" style="fill:none;stroke:#000000;stroke-width:2.0px;stroke-linecap:butt;stroke-linejoin:miter;stroke-opacity:1;"/>
<path class="atom-0" d="M 1045.8 603.4 L 1050.0 599.2 L 1044.5 598.1 L 1045.3 595.2 L 1050.4 597.8 L 1049.7 592.2 L 1052.7 592.2 L 1051.8 597.7 L 1057.0 595.3 L 1057.9 598.1 L 1052.3 599.1 L 1056.3 603.4 L 1053.8 605.1 L 1051.1 599.9 L 1048.3 605.1 L 1045.8 603.4 " fill="#191919"/>
<path class="atom-5" d="M 476.9 695.2 Q 476.9 688.4, 480.3 684.6 Q 483.6 680.8, 489.9 680.8 Q 496.2 680.8, 499.6 684.6 Q 502.9 688.4, 502.9 695.2 Q 502.9 702.1, 499.5 706.0 Q 496.1 709.9, 489.9 709.9 Q 483.7 709.9, 480.3 706.0 Q 476.9 702.1, 476.9 695.2 M 489.9 706.7 Q 494.2 706.7, 496.6 703.8 Q 498.9 700.9, 498.9 695.2 Q 498.9 689.6, 496.6 686.8 Q 494.2 684.0, 489.9 684.0 Q 485.6 684.0, 483.2 686.8 Q 480.9 689.6, 480.9 695.2 Q 480.9 700.9, 483.2 703.8 Q 485.6 706.7, 489.9 706.7 " fill="#FF0000"/>
<path class="atom-7" d="M 356.0 504.5 Q 356.0 497.7, 359.4 493.9 Q 362.7 490.1, 369.0 490.1 Q 375.3 490.1, 378.6 493.9 Q 382.0 497.7, 382.0 504.5 Q 382.0 511.4, 378.6 515.3 Q 375.2 519.2, 369.0 519.2 Q 362.8 519.2, 359.4 515.3 Q 356.0 511.4, 356.0 504.5 M 369.0 516.0 Q 373.3 516.0, 375.6 513.1 Q 378.0 510.2, 378.0 504.5 Q 378.0 499.0, 375.6 496.2 Q 373.3 493.3, 369.0 493.3 Q 364.7 493.3, 362.3 496.1 Q 360.0 498.9, 360.0 504.5 Q 360.0 510.2, 362.3 513.1 Q 364.7 516.0, 369.0 516.0 " fill="#FF0000"/>
<path class="atom-9" d="M 143.5 640.9 L 147.6 636.7 L 142.1 635.5 L 143.0 632.7 L 148.0 635.3 L 147.3 629.7 L 150.3 629.7 L 149.5 635.2 L 154.6 632.8 L 155.5 635.5 L 149.9 636.6 L 153.9 640.9 L 151.5 642.6 L 148.7 637.3 L 145.9 642.6 L 143.5 640.9 " fill="#191919"/>
<path class="bond-0 atom-0 atom-1" d="M 441.7,960.9 L 492.6,931.5" style="fill:none;fill-rule:evenodd;stroke:#191919;stroke-width:2.0px;stroke-linecap:butt;stroke-linejoin:miter;stroke-opacity:1"/>
<path class="bond-0 atom-0 atom-1" d="M 492.6,931.5 L 543.6,902.1" style="fill:none;fill-rule:evenodd;stroke:#000000;stroke-width:2.0px;stroke-linecap:butt;stroke-linejoin:miter;stroke-opacity:1"/>
<path class="bond-1 atom-1 atom-2" d="M 543.6,902.1 L 656.4,967.2" style="fill:none;fill-rule:evenodd;stroke:#000000;stroke-width:2.0px;stroke-linecap:butt;stroke-linejoin:miter;stroke-opacity:1"/>
<path class="bond-2 atom-2 atom-3" d="M 656.4,967.2 L 710.4,936.1" style="fill:none;fill-rule:evenodd;stroke:#000000;stroke-width:2.0px;stroke-linecap:butt;stroke-linejoin:miter;stroke-opacity:1"/>
<path class="bond-2 atom-2 atom-3" d="M 710.4,936.1 L 764.4,904.9" style="fill:none;fill-rule:evenodd;stroke:#191919;stroke-width:2.0px;stroke-linecap:butt;stroke-linejoin:miter;stroke-opacity:1"/>
<path class="bond-3 atom-2 atom-4" d="M 656.4,967.2 L 656.4,1023.1" style="fill:none;fill-rule:evenodd;stroke:#000000;stroke-width:2.0px;stroke-linecap:butt;stroke-linejoin:miter;stroke-opacity:1"/>
<path class="bond-3 atom-2 atom-4" d="M 656.4,1023.1 L 656.4,1079.0" style="fill:none;fill-rule:evenodd;stroke:#FF0000;stroke-width:2.0px;stroke-linecap:butt;stroke-linejoin:miter;stroke-opacity:1"/>
<path d="M 541.0,903.5 L 543.6,902.1 L 549.2,905.3" style="fill:none;stroke:#000000;stroke-width:2.0px;stroke-linecap:butt;stroke-linejoin:miter;stroke-opacity:1;"/>
<path class="atom-0" d="M 425.3 964.1 L 429.5 959.8 L 424.0 958.7 L 424.8 955.9 L 429.9 958.4 L 429.2 952.9 L 432.2 952.8 L 431.3 958.4 L 436.5 956.0 L 437.4 958.7 L 431.8 959.8 L 435.8 964.0 L 433.3 965.8 L 430.6 960.5 L 427.8 965.8 L 425.3 964.1 " fill="#191919"/>
<path class="atom-3" d="M 764.0 898.9 L 768.2 894.7 L 762.6 893.5 L 763.5 890.7 L 768.6 893.3 L 767.8 887.7 L 770.8 887.7 L 770.0 893.2 L 775.2 890.8 L 776.0 893.5 L 770.4 894.6 L 774.4 898.9 L 772.0 900.6 L 769.2 895.3 L 766.4 900.6 L 764.0 898.9 " fill="#191919"/>
<path class="atom-4" d="M 643.4 1097.7 Q 643.4 1090.9, 646.8 1087.1 Q 650.2 1083.3, 656.4 1083.3 Q 662.7 1083.3, 666.1 1087.1 Q 669.4 1090.9, 669.4 1097.7 Q 669.4 1104.5, 666.0 1108.5 Q 662.6 1112.3, 656.4 1112.3 Q 650.2 1112.3, 646.8 1108.5 Q 643.4 1104.6, 643.4 1097.7 M 656.4 1109.1 Q 660.8 1109.1, 663.1 1106.3 Q 665.4 1103.3, 665.4 1097.7 Q 665.4 1092.1, 663.1 1089.3 Q 660.8 1086.5, 656.4 1086.5 Q 652.1 1086.5, 649.8 1089.3 Q 647.4 1092.1, 647.4 1097.7 Q 647.4 1103.4, 649.8 1106.3 Q 652.1 1109.1, 656.4 1109.1 " fill="#FF0000"/>
<path class="atom-4" d="M 673.9 1083.6 L 677.7 1083.6 L 677.7 1095.6 L 692.2 1095.6 L 692.2 1083.6 L 696.0 1083.6 L 696.0 1111.9 L 692.2 1111.9 L 692.2 1098.8 L 677.7 1098.8 L 677.7 1111.9 L 673.9 1111.9 L 673.9 1083.6 " fill="#FF0000"/>
</svg>