<svg xmlns="http://www.w3.org/2000/svg" xmlns:rdkit="http://www.rdkit.org/xml" xmlns:xlink="http://www.w3.org/1999/xlink" version="1.1" baseProfile="full" xml:space="preserve" width="1200px" height="1200px" viewBox="0 0 1200 1200">
<!-- END OF HEADER -->
<rect style="opacity:1.0;fill:#FFFFFF;stroke:none" width="1200.0" height="1200.0" x="0.0" y="0.0"> </rect>
<path class="bond-0 atom-0 atom-1" d="M 172.5,124.7 L 196.3,144.9" style="fill:none;fill-rule:evenodd;stroke:#191919;stroke-width:2.0px;stroke-linecap:butt;stroke-linejoin:miter;stroke-opacity:1"/>
<path class="bond-0 atom-0 atom-1" d="M 196.3,144.9 L 220.0,165.2" style="fill:none;fill-rule:evenodd;stroke:#FF0000;stroke-width:2.0px;stroke-linecap:butt;stroke-linejoin:miter;stroke-opacity:1"/>
<path class="bond-1 atom-1 atom-2" d="M 246.9,172.0 L 279.1,160.6" style="fill:none;fill-rule:evenodd;stroke:#FF0000;stroke-width:2.0px;stroke-linecap:butt;stroke-linejoin:miter;stroke-opacity:1"/>
<path class="bond-1 atom-1 atom-2" d="M 279.1,160.6 L 311.3,149.2" style="fill:none;fill-rule:evenodd;stroke:#000000;stroke-width:2.0px;stroke-linecap:butt;stroke-linejoin:miter;stroke-opacity:1"/>
<path class="bond-2 atom-2 atom-3" d="M 311.3,149.2 L 374.1,202.8" style="fill:none;fill-rule:evenodd;stroke:#000000;stroke-width:2.0px;stroke-linecap:butt;stroke-linejoin:miter;stroke-opacity:1"/>
<path class="bond-3 atom-3 atom-4" d="M 374.1,202.8 L 451.9,175.2" style="fill:none;fill-rule:evenodd;stroke:#000000;stroke-width:2.0px;stroke-linecap:butt;stroke-linejoin:miter;stroke-opacity:1"/>
<path class="bond-4 atom-4 atom-5" d="M 451.9,175.2 L 514.7,228.9" style="fill:none;fill-rule:evenodd;stroke:#000000;stroke-width:2.0px;stroke-linecap:butt;stroke-linejoin:miter;stroke-opacity:1"/>
<path class="bond-5 atom-5 atom-6" d="M 514.7,228.9 L 546.8,217.5" style="fill:none;fill-rule:evenodd;stroke:#000000;stroke-width:2.0px;stroke-linecap:butt;stroke-linejoin:miter;stroke-opacity:1"/>
<path class="bond-5 atom-5 atom-6" d="M 546.8,217.5 L 579.0,206.1" style="fill:none;fill-rule:evenodd;stroke:#FF0000;stroke-width:2.0px;stroke-linecap:butt;stroke-linejoin:miter;stroke-opacity:1"/>
<path class="bond-6 atom-6 atom-7" d="M 605.9,212.8 L 630.6,233.9" style="fill:none;fill-rule:evenodd;stroke:#FF0000;stroke-width:2.0px;stroke-linecap:butt;stroke-linejoin:miter;stroke-opacity:1"/>
<path class="bond-6 atom-6 atom-7" d="M 630.6,233.9 L 655.2,254.9" style="fill:none;fill-rule:evenodd;stroke:#000000;stroke-width:2.0px;stroke-linecap:butt;stroke-linejoin:miter;stroke-opacity:1"/>
<path class="bond-7 atom-7 atom-8" d="M 649.8,250.3 L 643.3,285.4" style="fill:none;fill-rule:evenodd;stroke:#000000;stroke-width:2.0px;stroke-linecap:butt;stroke-linejoin:miter;stroke-opacity:1"/>
<path class="bond-7 atom-7 atom-8" d="M 643.3,285.4 L 636.8,320.4" style="fill:none;fill-rule:evenodd;stroke:#FF0000;stroke-width:2.0px;stroke-linecap:butt;stroke-linejoin:miter;stroke-opacity:1"/>
<path class="bond-7 atom-7 atom-8" d="M 662.0,252.5 L 655.5,287.6" style="fill:none;fill-rule:evenodd;stroke:#000000;stroke-width:2.0px;stroke-linecap:butt;stroke-linejoin:miter;stroke-opacity:1"/>
<path class="bond-7 atom-7 atom-8" d="M 655.5,287.6 L 649.0,322.7" style="fill:none;fill-rule:evenodd;stroke:#FF0000;stroke-width:2.0px;stroke-linecap:butt;stroke-linejoin:miter;stroke-opacity:1"/>
<path class="bond-8 atom-7 atom-9" d="M 655.2,254.9 L 733.1,227.4" style="fill:none;fill-rule:evenodd;stroke:#000000;stroke-width:2.0px;stroke-linecap:butt;stroke-linejoin:miter;stroke-opacity:1"/>
<path class="bond-9 atom-9 atom-10" d="M 733.1,227.4 L 748.1,146.2" style="fill:none;fill-rule:evenodd;stroke:#000000;stroke-width:2.0px;stroke-linecap:butt;stroke-linejoin:miter;stroke-opacity:1"/>
<path class="bond-9 atom-9 atom-10" d="M 746.5,222.6 L 759.0,155.5" style="fill:none;fill-rule:evenodd;stroke:#000000;stroke-width:2.0px;stroke-linecap:butt;stroke-linejoin:miter;stroke-opacity:1"/>
<path class="bond-10 atom-10 atom-11" d="M 748.1,146.2 L 825.9,118.6" style="fill:none;fill-rule:evenodd;stroke:#000000;stroke-width:2.0px;stroke-linecap:butt;stroke-linejoin:miter;stroke-opacity:1"/>
<path class="bond-11 atom-11 atom-12" d="M 825.9,118.6 L 888.7,172.3" style="fill:none;fill-rule:evenodd;stroke:#000000;stroke-width:2.0px;stroke-linecap:butt;stroke-linejoin:miter;stroke-opacity:1"/>
<path class="bond-11 atom-11 atom-12" d="M 823.3,132.7 L 875.2,177.0" style="fill:none;fill-rule:evenodd;stroke:#000000;stroke-width:2.0px;stroke-linecap:butt;stroke-linejoin:miter;stroke-opacity:1"/>
<path class="bond-12 atom-12 atom-13" d="M 888.7,172.3 L 966.5,144.7" style="fill:none;fill-rule:evenodd;stroke:#000000;stroke-width:2.0px;stroke-linecap:butt;stroke-linejoin:miter;stroke-opacity:1"/>
<path class="bond-13 atom-13 atom-14" d="M 966.5,144.7 L 993.8,168.0" style="fill:none;fill-rule:evenodd;stroke:#000000;stroke-width:2.0px;stroke-linecap:butt;stroke-linejoin:miter;stroke-opacity:1"/>
<path class="bond-13 atom-13 atom-14" d="M 993.8,168.0 L 1021.0,191.3" style="fill:none;fill-rule:evenodd;stroke:#191919;stroke-width:2.0px;stroke-linecap:butt;stroke-linejoin:miter;stroke-opacity:1"/>
<path class="bond-14 atom-13 atom-15" d="M 972.0,149.4 L 978.4,114.5" style="fill:none;fill-rule:evenodd;stroke:#000000;stroke-width:2.0px;stroke-linecap:butt;stroke-linejoin:miter;stroke-opacity:1"/>
<path class="bond-14 atom-13 atom-15" d="M 978.4,114.5 L 984.9,79.6" style="fill:none;fill-rule:evenodd;stroke:#FF0000;stroke-width:2.0px;stroke-linecap:butt;stroke-linejoin:miter;stroke-opacity:1"/>
<path class="bond-14 atom-13 atom-15" d="M 959.8,147.1 L 966.3,112.2" style="fill:none;fill-rule:evenodd;stroke:#000000;stroke-width:2.0px;stroke-linecap:butt;stroke-linejoin:miter;stroke-opacity:1"/>
<path class="bond-14 atom-13 atom-15" d="M 966.3,112.2 L 972.7,77.3" style="fill:none;fill-rule:evenodd;stroke:#FF0000;stroke-width:2.0px;stroke-linecap:butt;stroke-linejoin:miter;stroke-opacity:1"/>
<path class="bond-15 atom-12 atom-16" d="M 888.7,172.3 L 873.7,253.4" style="fill:none;fill-rule:evenodd;stroke:#000000;stroke-width:2.0px;stroke-linecap:butt;stroke-linejoin:miter;stroke-opacity:1"/>
<path class="bond-16 atom-16 atom-17" d="M 873.7,253.4 L 795.8,281.0" style="fill:none;fill-rule:evenodd;stroke:#000000;stroke-width:2.0px;stroke-linecap:butt;stroke-linejoin:miter;stroke-opacity:1"/>
<path class="bond-16 atom-16 atom-17" d="M 862.8,244.1 L 798.4,266.9" style="fill:none;fill-rule:evenodd;stroke:#000000;stroke-width:2.0px;stroke-linecap:butt;stroke-linejoin:miter;stroke-opacity:1"/>
<path class="bond-17 atom-17 atom-9" d="M 795.8,281.0 L 733.1,227.4" style="fill:none;fill-rule:evenodd;stroke:#000000;stroke-width:2.0px;stroke-linecap:butt;stroke-linejoin:miter;stroke-opacity:1"/>
<path d="M 309.7,149.8 L 311.3,149.2 L 314.4,151.9" style="fill:none;stroke:#000000;stroke-width:2.0px;stroke-linecap:butt;stroke-linejoin:miter;stroke-opacity:1;"/>
<path d="M 370.9,200.1 L 374.1,202.8 L 378.0,201.4" style="fill:none;stroke:#000000;stroke-width:2.0px;stroke-linecap:butt;stroke-linejoin:miter;stroke-opacity:1;"/>
<path d="M 448.0,176.6 L 451.9,175.2 L 455.0,177.9" style="fill:none;stroke:#000000;stroke-width:2.0px;stroke-linecap:butt;stroke-linejoin:miter;stroke-opacity:1;"/>
<path d="M 511.5,226.2 L 514.7,228.9 L 516.3,228.3" style="fill:none;stroke:#000000;stroke-width:2.0px;stroke-linecap:butt;stroke-linejoin:miter;stroke-opacity:1;"/>
<path d="M 654.0,253.9 L 655.2,254.9 L 659.1,253.5" style="fill:none;stroke:#000000;stroke-width:2.0px;stroke-linecap:butt;stroke-linejoin:miter;stroke-opacity:1;"/>
<path d="M 747.4,150.3 L 748.1,146.2 L 752.0,144.8" style="fill:none;stroke:#000000;stroke-width:2.0px;stroke-linecap:butt;stroke-linejoin:miter;stroke-opacity:1;"/>
<path d="M 822.0,120.0 L 825.9,118.6 L 829.1,121.3" style="fill:none;stroke:#000000;stroke-width:2.0px;stroke-linecap:butt;stroke-linejoin:miter;stroke-opacity:1;"/>
<path d="M 962.6,146.1 L 966.5,144.7 L 967.9,145.9" style="fill:none;stroke:#000000;stroke-width:2.0px;stroke-linecap:butt;stroke-linejoin:miter;stroke-opacity:1;"/>
<path d="M 874.4,249.4 L 873.7,253.4 L 869.8,254.8" style="fill:none;stroke:#000000;stroke-width:2.0px;stroke-linecap:butt;stroke-linejoin:miter;stroke-opacity:1;"/>
<path d="M 799.7,279.6 L 795.8,281.0 L 792.7,278.3" style="fill:none;stroke:#000000;stroke-width:2.0px;stroke-linecap:butt;stroke-linejoin:miter;stroke-opacity:1;"/>
<path class="atom-0" d="M 166.3 120.5 L 169.7 117.0 L 165.2 116.1 L 165.9 113.7 L 170.1 115.9 L 169.5 111.3 L 171.9 111.2 L 171.2 115.8 L 175.5 113.8 L 176.2 116.1 L 171.6 116.9 L 174.9 120.5 L 172.9 121.9 L 170.6 117.6 L 168.3 121.9 L 166.3 120.5 " fill="#191919"/>
<path class="atom-1" d="M 222.7 176.8 Q 222.7 171.2, 225.5 168.1 Q 228.3 164.9, 233.5 164.9 Q 238.7 164.9, 241.4 168.1 Q 244.2 171.2, 244.2 176.8 Q 244.2 182.5, 241.4 185.7 Q 238.6 188.9, 233.5 188.9 Q 228.3 188.9, 225.5 185.7 Q 222.7 182.5, 222.7 176.8 M 233.5 186.3 Q 237.0 186.3, 238.9 183.9 Q 240.9 181.5, 240.9 176.8 Q 240.9 172.2, 238.9 169.9 Q 237.0 167.6, 233.5 167.6 Q 229.9 167.6, 228.0 169.9 Q 226.0 172.2, 226.0 176.8 Q 226.0 181.5, 228.0 183.9 Q 229.9 186.3, 233.5 186.3 " fill="#FF0000"/>
<path class="atom-6" d="M 581.7 201.4 Q 581.7 195.8, 584.5 192.6 Q 587.3 189.5, 592.5 189.5 Q 597.7 189.5, 600.4 192.6 Q 603.2 195.8, 603.2 201.4 Q 603.2 207.1, 600.4 210.3 Q 597.6 213.5, 592.5 213.5 Q 587.3 213.5, 584.5 210.3 Q 581.7 207.1, 581.7 201.4 M 592.5 210.9 Q 596.0 210.9, 598.0 208.5 Q 599.9 206.1, 599.9 201.4 Q 599.9 196.8, 598.0 194.5 Q 596.0 192.1, 592.5 192.1 Q 588.9 192.1, 587.0 194.4 Q 585.0 196.8, 585.0 201.4 Q 585.0 206.1, 587.0 208.5 Q 588.9 210.9, 592.5 210.9 " fill="#FF0000"/>
<path class="atom-8" d="M 629.5 336.2 Q 629.5 330.6, 632.2 327.4 Q 635.0 324.3, 640.2 324.3 Q 645.4 324.3, 648.2 327.4 Q 650.9 330.6, 650.9 336.2 Q 650.9 341.8, 648.1 345.1 Q 645.3 348.3, 640.2 348.3 Q 635.1 348.3, 632.2 345.1 Q 629.5 341.9, 629.5 336.2 M 640.2 345.6 Q 643.8 345.6, 645.7 343.3 Q 647.6 340.9, 647.6 336.2 Q 647.6 331.6, 645.7 329.3 Q 643.8 326.9, 640.2 326.9 Q 636.6 326.9, 634.7 329.2 Q 632.8 331.5, 632.8 336.2 Q 632.8 340.9, 634.7 343.3 Q 636.6 345.6, 640.2 345.6 " fill="#FF0000"/>
<path class="atom-14" d="M 1024.9 195.7 L 1028.3 192.2 L 1023.8 191.3 L 1024.5 188.9 L 1028.7 191.1 L 1028.1 186.5 L 1030.5 186.4 L 1029.8 191.0 L 1034.1 189.0 L 1034.8 191.3 L 1030.2 192.2 L 1033.5 195.7 L 1031.5 197.1 L 1029.2 192.8 L 1026.9 197.1 L 1024.9 195.7 " fill="#191919"/>
<path class="atom-15" d="M 970.8 63.6 Q 970.8 58.0, 973.6 54.9 Q 976.4 51.7, 981.6 51.7 Q 986.8 51.7, 989.5 54.9 Q 992.3 58.0, 992.3 63.6 Q 992.3 69.3, 989.5 72.5 Q 986.7 75.7, 981.6 75.7 Q 976.4 75.7, 973.6 72.5 Q 970.8 69.3, 970.8 63.6 M 981.6 73.1 Q 985.1 73.1, 987.1 70.7 Q 989.0 68.3, 989.0 63.6 Q 989.0 59.0, 987.1 56.7 Q 985.1 54.4, 981.6 54.4 Q 978.0 54.4, 976.1 56.7 Q 974.1 59.0, 974.1 63.6 Q 974.1 68.3, 976.1 70.7 Q 978.0 73.1, 981.6 73.1 " fill="#FF0000"/>
<path class="bond-0 atom-0 atom-1" d="M 108.0,645.1 L 133.3,631.3" style="fill:none;fill-rule:evenodd;stroke:#191919;stroke-width:2.0px;stroke-linecap:butt;stroke-linejoin:miter;stroke-opacity:1"/>
<path class="bond-0 atom-0 atom-1" d="M 133.3,631.3 L 158.7,617.5" style="fill:none;fill-rule:evenodd;stroke:#FF0000;stroke-width:2.0px;stroke-linecap:butt;stroke-linejoin:miter;stroke-opacity:1"/>
<path class="bond-1 atom-1 atom-2" d="M 185.7,618.4 L 214.1,635.8" style="fill:none;fill-rule:evenodd;stroke:#FF0000;stroke-width:2.0px;stroke-linecap:butt;stroke-linejoin:miter;stroke-opacity:1"/>
<path class="bond-1 atom-1 atom-2" d="M 214.1,635.8 L 242.6,653.2" style="fill:none;fill-rule:evenodd;stroke:#000000;stroke-width:2.0px;stroke-linecap:butt;stroke-linejoin:miter;stroke-opacity:1"/>
<path class="bond-2 atom-2 atom-3" d="M 242.6,653.2 L 315.1,613.7" style="fill:none;fill-rule:evenodd;stroke:#000000;stroke-width:2.0px;stroke-linecap:butt;stroke-linejoin:miter;stroke-opacity:1"/>
<path class="bond-3 atom-3 atom-4" d="M 315.1,613.7 L 385.6,656.8" style="fill:none;fill-rule:evenodd;stroke:#000000;stroke-width:2.0px;stroke-linecap:butt;stroke-linejoin:miter;stroke-opacity:1"/>
<path class="bond-4 atom-4 atom-5" d="M 385.6,656.8 L 458.1,617.3" style="fill:none;fill-rule:evenodd;stroke:#000000;stroke-width:2.0px;stroke-linecap:butt;stroke-linejoin:miter;stroke-opacity:1"/>
<path class="bond-5 atom-5 atom-6" d="M 458.1,617.3 L 486.6,634.7" style="fill:none;fill-rule:evenodd;stroke:#000000;stroke-width:2.0px;stroke-linecap:butt;stroke-linejoin:miter;stroke-opacity:1"/>
<path class="bond-5 atom-5 atom-6" d="M 486.6,634.7 L 515.1,652.1" style="fill:none;fill-rule:evenodd;stroke:#FF0000;stroke-width:2.0px;stroke-linecap:butt;stroke-linejoin:miter;stroke-opacity:1"/>
<path class="bond-6 atom-6 atom-7" d="M 542.0,653.0 L 571.5,636.9" style="fill:none;fill-rule:evenodd;stroke:#FF0000;stroke-width:2.0px;stroke-linecap:butt;stroke-linejoin:miter;stroke-opacity:1"/>
<path class="bond-6 atom-6 atom-7" d="M 571.5,636.9 L 601.0,620.9" style="fill:none;fill-rule:evenodd;stroke:#000000;stroke-width:2.0px;stroke-linecap:butt;stroke-linejoin:miter;stroke-opacity:1"/>
<path class="bond-7 atom-7 atom-8" d="M 607.1,624.6 L 608.0,589.0" style="fill:none;fill-rule:evenodd;stroke:#000000;stroke-width:2.0px;stroke-linecap:butt;stroke-linejoin:miter;stroke-opacity:1"/>
<path class="bond-7 atom-7 atom-8" d="M 608.0,589.0 L 608.9,553.4" style="fill:none;fill-rule:evenodd;stroke:#FF0000;stroke-width:2.0px;stroke-linecap:butt;stroke-linejoin:miter;stroke-opacity:1"/>
<path class="bond-7 atom-7 atom-8" d="M 594.8,624.3 L 595.6,588.7" style="fill:none;fill-rule:evenodd;stroke:#000000;stroke-width:2.0px;stroke-linecap:butt;stroke-linejoin:miter;stroke-opacity:1"/>
<path class="bond-7 atom-7 atom-8" d="M 595.6,588.7 L 596.5,553.1" style="fill:none;fill-rule:evenodd;stroke:#FF0000;stroke-width:2.0px;stroke-linecap:butt;stroke-linejoin:miter;stroke-opacity:1"/>
<path class="bond-8 atom-7 atom-9" d="M 601.0,620.9 L 671.5,663.9" style="fill:none;fill-rule:evenodd;stroke:#000000;stroke-width:2.0px;stroke-linecap:butt;stroke-linejoin:miter;stroke-opacity:1"/>
<path class="bond-9 atom-9 atom-10" d="M 671.5,663.9 L 744.0,624.5" style="fill:none;fill-rule:evenodd;stroke:#000000;stroke-width:2.0px;stroke-linecap:butt;stroke-linejoin:miter;stroke-opacity:1"/>
<path class="bond-10 atom-10 atom-11" d="M 744.0,624.5 L 814.4,667.5" style="fill:none;fill-rule:evenodd;stroke:#000000;stroke-width:2.0px;stroke-linecap:butt;stroke-linejoin:miter;stroke-opacity:1"/>
<path class="bond-11 atom-11 atom-12" d="M 814.4,667.5 L 886.9,628.0" style="fill:none;fill-rule:evenodd;stroke:#000000;stroke-width:2.0px;stroke-linecap:butt;stroke-linejoin:miter;stroke-opacity:1"/>
<path class="bond-12 atom-12 atom-13" d="M 886.9,628.0 L 957.4,671.1" style="fill:none;fill-rule:evenodd;stroke:#000000;stroke-width:2.0px;stroke-linecap:butt;stroke-linejoin:miter;stroke-opacity:1"/>
<path class="bond-13 atom-13 atom-14" d="M 957.4,671.1 L 1029.9,631.6" style="fill:none;fill-rule:evenodd;stroke:#000000;stroke-width:2.0px;stroke-linecap:butt;stroke-linejoin:miter;stroke-opacity:1"/>
<path class="bond-14 atom-14 atom-15" d="M 1029.9,631.6 L 1061.0,650.6" style="fill:none;fill-rule:evenodd;stroke:#000000;stroke-width:2.0px;stroke-linecap:butt;stroke-linejoin:miter;stroke-opacity:1"/>
<path class="bond-14 atom-14 atom-15" d="M 1061.0,650.6 L 1092.0,669.6" style="fill:none;fill-rule:evenodd;stroke:#191919;stroke-width:2.0px;stroke-linecap:butt;stroke-linejoin:miter;stroke-opacity:1"/>
<path class="bond-15 atom-14 atom-16" d="M 1036.0,635.3 L 1036.9,599.7" style="fill:none;fill-rule:evenodd;stroke:#000000;stroke-width:2.0px;stroke-linecap:butt;stroke-linejoin:miter;stroke-opacity:1"/>
<path class="bond-15 atom-14 atom-16" d="M 1036.9,599.7 L 1037.8,564.1" style="fill:none;fill-rule:evenodd;stroke:#FF0000;stroke-width:2.0px;stroke-linecap:butt;stroke-linejoin:miter;stroke-opacity:1"/>
<path class="bond-15 atom-14 atom-16" d="M 1023.6,635.0 L 1024.5,599.4" style="fill:none;fill-rule:evenodd;stroke:#000000;stroke-width:2.0px;stroke-linecap:butt;stroke-linejoin:miter;stroke-opacity:1"/>
<path class="bond-15 atom-14 atom-16" d="M 1024.5,599.4 L 1025.4,563.8" style="fill:none;fill-rule:evenodd;stroke:#FF0000;stroke-width:2.0px;stroke-linecap:butt;stroke-linejoin:miter;stroke-opacity:1"/>
<path d="M 241.2,652.3 L 242.6,653.2 L 246.3,651.2" style="fill:none;stroke:#000000;stroke-width:2.0px;stroke-linecap:butt;stroke-linejoin:miter;stroke-opacity:1;"/>
<path d="M 311.5,615.7 L 315.1,613.7 L 318.7,615.9" style="fill:none;stroke:#000000;stroke-width:2.0px;stroke-linecap:butt;stroke-linejoin:miter;stroke-opacity:1;"/>
<path d="M 382.1,654.6 L 385.6,656.8 L 389.2,654.8" style="fill:none;stroke:#000000;stroke-width:2.0px;stroke-linecap:butt;stroke-linejoin:miter;stroke-opacity:1;"/>
<path d="M 454.5,619.3 L 458.1,617.3 L 459.5,618.2" style="fill:none;stroke:#000000;stroke-width:2.0px;stroke-linecap:butt;stroke-linejoin:miter;stroke-opacity:1;"/>
<path d="M 599.6,621.7 L 601.0,620.9 L 604.6,623.0" style="fill:none;stroke:#000000;stroke-width:2.0px;stroke-linecap:butt;stroke-linejoin:miter;stroke-opacity:1;"/>
<path d="M 668.0,661.8 L 671.5,663.9 L 675.1,662.0" style="fill:none;stroke:#000000;stroke-width:2.0px;stroke-linecap:butt;stroke-linejoin:miter;stroke-opacity:1;"/>
<path d="M 740.4,626.4 L 744.0,624.5 L 747.5,626.6" style="fill:none;stroke:#000000;stroke-width:2.0px;stroke-linecap:butt;stroke-linejoin:miter;stroke-opacity:1;"/>
<path d="M 810.9,665.4 L 814.4,667.5 L 818.0,665.5" style="fill:none;stroke:#000000;stroke-width:2.0px;stroke-linecap:butt;stroke-linejoin:miter;stroke-opacity:1;"/>
<path d="M 883.3,630.0 L 886.9,628.0 L 890.4,630.2" style="fill:none;stroke:#000000;stroke-width:2.0px;stroke-linecap:butt;stroke-linejoin:miter;stroke-opacity:1;"/>
<path d="M 953.8,668.9 L 957.4,671.1 L 961.0,669.1" style="fill:none;stroke:#000000;stroke-width:2.0px;stroke-linecap:butt;stroke-linejoin:miter;stroke-opacity:1;"/>
<path d="M 1026.2,633.6 L 1029.9,631.6 L 1031.4,632.6" style="fill:none;stroke:#000000;stroke-width:2.0px;stroke-linecap:butt;stroke-linejoin:miter;stroke-opacity:1;"/>
<path class="atom-0" d="M 95.3 647.0 L 98.7 643.5 L 94.2 642.6 L 94.9 640.2 L 99.1 642.3 L 98.5 637.7 L 100.9 637.7 L 100.2 642.3 L 104.5 640.3 L 105.2 642.6 L 100.6 643.4 L 103.9 647.0 L 101.9 648.4 L 99.6 644.1 L 97.3 648.4 L 95.3 647.0 " fill="#191919"/>
<path class="atom-1" d="M 161.5 610.2 Q 161.5 604.6, 164.2 601.4 Q 167.0 598.3, 172.2 598.3 Q 177.4 598.3, 180.2 601.4 Q 182.9 604.6, 182.9 610.2 Q 182.9 615.9, 180.1 619.1 Q 177.3 622.3, 172.2 622.3 Q 167.0 622.3, 164.2 619.1 Q 161.5 615.9, 161.5 610.2 M 172.2 619.7 Q 175.8 619.7, 177.7 617.3 Q 179.6 614.9, 179.6 610.2 Q 179.6 605.6, 177.7 603.3 Q 175.8 600.9, 172.2 600.9 Q 168.6 600.9, 166.7 603.3 Q 164.8 605.6, 164.8 610.2 Q 164.8 614.9, 166.7 617.3 Q 168.6 619.7, 172.2 619.7 " fill="#FF0000"/>
<path class="atom-6" d="M 517.8 660.4 Q 517.8 654.8, 520.6 651.7 Q 523.3 648.5, 528.5 648.5 Q 533.7 648.5, 536.5 651.7 Q 539.3 654.8, 539.3 660.4 Q 539.3 666.1, 536.5 669.3 Q 533.6 672.5, 528.5 672.5 Q 523.4 672.5, 520.6 669.3 Q 517.8 666.1, 517.8 660.4 M 528.5 669.9 Q 532.1 669.9, 534.0 667.5 Q 536.0 665.1, 536.0 660.4 Q 536.0 655.8, 534.0 653.5 Q 532.1 651.2, 528.5 651.2 Q 525.0 651.2, 523.0 653.5 Q 521.1 655.8, 521.1 660.4 Q 521.1 665.1, 523.0 667.5 Q 525.0 669.9, 528.5 669.9 " fill="#FF0000"/>
<path class="atom-8" d="M 592.4 538.4 Q 592.4 532.8, 595.1 529.7 Q 597.9 526.5, 603.1 526.5 Q 608.3 526.5, 611.1 529.7 Q 613.8 532.8, 613.8 538.4 Q 613.8 544.1, 611.0 547.3 Q 608.2 550.5, 603.1 550.5 Q 598.0 550.5, 595.1 547.3 Q 592.4 544.1, 592.4 538.4 M 603.1 547.9 Q 606.7 547.9, 608.6 545.5 Q 610.5 543.1, 610.5 538.4 Q 610.5 533.8, 608.6 531.5 Q 606.7 529.2, 603.1 529.2 Q 599.5 529.2, 597.6 531.5 Q 595.7 533.8, 595.7 538.4 Q 595.7 543.1, 597.6 545.5 Q 599.5 547.9, 603.1 547.9 " fill="#FF0000"/>
<path class="atom-15" d="M 1095.9 672.1 L 1099.3 668.6 L 1094.8 667.6 L 1095.5 665.3 L 1099.7 667.4 L 1099.1 662.8 L 1101.5 662.8 L 1100.8 667.4 L 1105.1 665.4 L 1105.8 667.6 L 1101.2 668.5 L 1104.5 672.0 L 1102.5 673.5 L 1100.2 669.1 L 1097.9 673.5 L 1095.9 672.1 " fill="#191919"/>
<path class="atom-16" d="M 1021.2 549.2 Q 1021.2 543.5, 1024.0 540.4 Q 1026.7 537.3, 1031.9 537.3 Q 1037.1 537.3, 1039.9 540.4 Q 1042.7 543.5, 1042.7 549.2 Q 1042.7 554.8, 1039.9 558.1 Q 1037.1 561.3, 1031.9 561.3 Q 1026.8 561.3, 1024.0 558.1 Q 1021.2 554.9, 1021.2 549.2 M 1031.9 558.6 Q 1035.5 558.6, 1037.4 556.3 Q 1039.4 553.8, 1039.4 549.2 Q 1039.4 544.6, 1037.4 542.2 Q 1035.5 539.9, 1031.9 539.9 Q 1028.4 539.9, 1026.4 542.2 Q 1024.5 544.5, 1024.5 549.2 Q 1024.5 553.9, 1026.4 556.3 Q 1028.4 558.6, 1031.9 558.6 " fill="#FF0000"/>
<path class="bond-0 atom-0 atom-1" d="M 758.6,833.4 L 763.7,866.2" style="fill:none;fill-rule:evenodd;stroke:#191919;stroke-width:2.0px;stroke-linecap:butt;stroke-linejoin:miter;stroke-opacity:1"/>
<path class="bond-0 atom-0 atom-1" d="M 763.7,866.2 L 768.7,898.9" style="fill:none;fill-rule:evenodd;stroke:#FF0000;stroke-width:2.0px;stroke-linecap:butt;stroke-linejoin:miter;stroke-opacity:1"/>
<path class="bond-1 atom-1 atom-2" d="M 757.5,924.3 L 732.0,944.7" style="fill:none;fill-rule:evenodd;stroke:#FF0000;stroke-width:2.0px;stroke-linecap:butt;stroke-linejoin:miter;stroke-opacity:1"/>
<path class="bond-1 atom-1 atom-2" d="M 732.0,944.7 L 706.5,965.1" style="fill:none;fill-rule:evenodd;stroke:#000000;stroke-width:2.0px;stroke-linecap:butt;stroke-linejoin:miter;stroke-opacity:1"/>
<path class="bond-2 atom-2 atom-3" d="M 706.5,965.1 L 719.1,1046.7" style="fill:none;fill-rule:evenodd;stroke:#000000;stroke-width:2.0px;stroke-linecap:butt;stroke-linejoin:miter;stroke-opacity:1"/>
<path class="bond-3 atom-3 atom-4" d="M 719.1,1046.7 L 654.7,1098.4" style="fill:none;fill-rule:evenodd;stroke:#000000;stroke-width:2.0px;stroke-linecap:butt;stroke-linejoin:miter;stroke-opacity:1"/>
<path class="bond-4 atom-4 atom-5" d="M 654.7,1098.4 L 667.2,1180.0" style="fill:none;fill-rule:evenodd;stroke:#000000;stroke-width:2.0px;stroke-linecap:butt;stroke-linejoin:miter;stroke-opacity:1"/>
<path class="bond-5 atom-2 atom-6" d="M 706.5,965.1 L 629.6,935.2" style="fill:none;fill-rule:evenodd;stroke:#000000;stroke-width:2.0px;stroke-linecap:butt;stroke-linejoin:miter;stroke-opacity:1"/>
<path class="bond-6 atom-6 atom-7" d="M 629.6,935.2 L 565.2,986.9" style="fill:none;fill-rule:evenodd;stroke:#000000;stroke-width:2.0px;stroke-linecap:butt;stroke-linejoin:miter;stroke-opacity:1"/>
<path class="bond-7 atom-7 atom-8" d="M 565.2,986.9 L 488.3,956.9" style="fill:none;fill-rule:evenodd;stroke:#000000;stroke-width:2.0px;stroke-linecap:butt;stroke-linejoin:miter;stroke-opacity:1"/>
<path class="bond-8 atom-8 atom-9" d="M 488.3,956.9 L 460.2,979.5" style="fill:none;fill-rule:evenodd;stroke:#000000;stroke-width:2.0px;stroke-linecap:butt;stroke-linejoin:miter;stroke-opacity:1"/>
<path class="bond-8 atom-8 atom-9" d="M 460.2,979.5 L 432.1,1002.0" style="fill:none;fill-rule:evenodd;stroke:#191919;stroke-width:2.0px;stroke-linecap:butt;stroke-linejoin:miter;stroke-opacity:1"/>
<path class="bond-9 atom-8 atom-10" d="M 494.9,959.5 L 489.5,924.4" style="fill:none;fill-rule:evenodd;stroke:#000000;stroke-width:2.0px;stroke-linecap:butt;stroke-linejoin:miter;stroke-opacity:1"/>
<path class="bond-9 atom-8 atom-10" d="M 489.5,924.4 L 484.1,889.3" style="fill:none;fill-rule:evenodd;stroke:#FF0000;stroke-width:2.0px;stroke-linecap:butt;stroke-linejoin:miter;stroke-opacity:1"/>
<path class="bond-9 atom-8 atom-10" d="M 482.7,961.4 L 477.3,926.3" style="fill:none;fill-rule:evenodd;stroke:#000000;stroke-width:2.0px;stroke-linecap:butt;stroke-linejoin:miter;stroke-opacity:1"/>
<path class="bond-9 atom-8 atom-10" d="M 477.3,926.3 L 471.9,891.2" style="fill:none;fill-rule:evenodd;stroke:#FF0000;stroke-width:2.0px;stroke-linecap:butt;stroke-linejoin:miter;stroke-opacity:1"/>
<path d="M 718.4,1042.7 L 719.1,1046.7 L 715.9,1049.3" style="fill:none;stroke:#000000;stroke-width:2.0px;stroke-linecap:butt;stroke-linejoin:miter;stroke-opacity:1;"/>
<path d="M 657.9,1095.8 L 654.7,1098.4 L 655.3,1102.5" style="fill:none;stroke:#000000;stroke-width:2.0px;stroke-linecap:butt;stroke-linejoin:miter;stroke-opacity:1;"/>
<path d="M 633.4,936.7 L 629.6,935.2 L 626.4,937.8" style="fill:none;stroke:#000000;stroke-width:2.0px;stroke-linecap:butt;stroke-linejoin:miter;stroke-opacity:1;"/>
<path d="M 568.4,984.3 L 565.2,986.9 L 561.4,985.4" style="fill:none;stroke:#000000;stroke-width:2.0px;stroke-linecap:butt;stroke-linejoin:miter;stroke-opacity:1;"/>
<path d="M 492.1,958.4 L 488.3,956.9 L 486.9,958.1" style="fill:none;stroke:#000000;stroke-width:2.0px;stroke-linecap:butt;stroke-linejoin:miter;stroke-opacity:1;"/>
<path class="atom-0" d="M 754.0 829.3 L 757.4 825.8 L 752.8 824.9 L 753.5 822.5 L 757.7 824.6 L 757.1 820.0 L 759.6 820.0 L 758.9 824.6 L 763.2 822.6 L 763.9 824.9 L 759.3 825.7 L 762.6 829.2 L 760.6 830.7 L 758.3 826.3 L 756.0 830.7 L 754.0 829.3 " fill="#191919"/>
<path class="atom-1" d="M 760.2 913.6 Q 760.2 907.9, 763.0 904.8 Q 765.7 901.7, 770.9 901.7 Q 776.1 901.7, 778.9 904.8 Q 781.7 907.9, 781.7 913.6 Q 781.7 919.2, 778.8 922.5 Q 776.0 925.7, 770.9 925.7 Q 765.8 925.7, 763.0 922.5 Q 760.2 919.3, 760.2 913.6 M 770.9 923.0 Q 774.5 923.0, 776.4 920.6 Q 778.4 918.2, 778.4 913.6 Q 778.4 909.0, 776.4 906.6 Q 774.5 904.3, 770.9 904.3 Q 767.4 904.3, 765.4 906.6 Q 763.5 908.9, 763.5 913.6 Q 763.5 918.3, 765.4 920.6 Q 767.4 923.0, 770.9 923.0 " fill="#FF0000"/>
<path class="atom-9" d="M 419.5 1006.0 L 422.9 1002.5 L 418.3 1001.6 L 419.0 999.2 L 423.2 1001.3 L 422.6 996.7 L 425.1 996.7 L 424.4 1001.3 L 428.7 999.3 L 429.4 1001.6 L 424.8 1002.4 L 428.1 1006.0 L 426.1 1007.4 L 423.8 1003.1 L 421.5 1007.4 L 419.5 1006.0 " fill="#191919"/>
<path class="atom-10" d="M 465.0 875.4 Q 465.0 869.8, 467.8 866.7 Q 470.5 863.5, 475.7 863.5 Q 480.9 863.5, 483.7 866.7 Q 486.5 869.8, 486.5 875.4 Q 486.5 881.1, 483.6 884.3 Q 480.8 887.5, 475.7 887.5 Q 470.6 887.5, 467.8 884.3 Q 465.0 881.1, 465.0 875.4 M 475.7 884.9 Q 479.3 884.9, 481.2 882.5 Q 483.2 880.1, 483.2 875.4 Q 483.2 870.8, 481.2 868.5 Q 479.3 866.2, 475.7 866.2 Q 472.2 866.2, 470.2 868.5 Q 468.3 870.8, 468.3 875.4 Q 468.3 880.1, 470.2 882.5 Q 472.2 884.9, 475.7 884.9 " fill="#FF0000"/>
</svg>