<svg xmlns="http://www.w3.org/2000/svg" xmlns:rdkit="http://www.rdkit.org/xml" xmlns:xlink="http://www.w3.org/1999/xlink" version="1.1" baseProfile="full" xml:space="preserve" width="1200px" height="800px" viewBox="0 0 1200 800">
<!-- END OF HEADER -->
<rect style="opacity:1.0;fill:#FFFFFF;stroke:none" width="1200.0" height="800.0" x="0.0" y="0.0"> </rect>
<path class="bond-0 atom-0 atom-1" d="M 889.7,342.1 L 876.1,278.0" style="fill:none;fill-rule:evenodd;stroke:#191919;stroke-width:2.0px;stroke-linecap:butt;stroke-linejoin:miter;stroke-opacity:1"/>
<path class="bond-0 atom-0 atom-1" d="M 876.1,278.0 L 862.4,213.9" style="fill:none;fill-rule:evenodd;stroke:#000000;stroke-width:2.0px;stroke-linecap:butt;stroke-linejoin:miter;stroke-opacity:1"/>
<path class="bond-1 atom-1 atom-2" d="M 865.1,226.7 L 914.7,182.1" style="fill:none;fill-rule:evenodd;stroke:#000000;stroke-width:2.0px;stroke-linecap:butt;stroke-linejoin:miter;stroke-opacity:1"/>
<path class="bond-1 atom-1 atom-2" d="M 914.7,182.1 L 964.2,137.5" style="fill:none;fill-rule:evenodd;stroke:#FF0000;stroke-width:2.0px;stroke-linecap:butt;stroke-linejoin:miter;stroke-opacity:1"/>
<path class="bond-1 atom-1 atom-2" d="M 850.0,209.9 L 899.5,165.3" style="fill:none;fill-rule:evenodd;stroke:#000000;stroke-width:2.0px;stroke-linecap:butt;stroke-linejoin:miter;stroke-opacity:1"/>
<path class="bond-1 atom-1 atom-2" d="M 899.5,165.3 L 949.0,120.7" style="fill:none;fill-rule:evenodd;stroke:#FF0000;stroke-width:2.0px;stroke-linecap:butt;stroke-linejoin:miter;stroke-opacity:1"/>
<path class="bond-2 atom-1 atom-3" d="M 862.4,213.9 L 718.9,167.3" style="fill:none;fill-rule:evenodd;stroke:#000000;stroke-width:2.0px;stroke-linecap:butt;stroke-linejoin:miter;stroke-opacity:1"/>
<path class="bond-3 atom-3 atom-4" d="M 718.9,167.3 L 672.3,23.8" style="fill:none;fill-rule:evenodd;stroke:#000000;stroke-width:2.0px;stroke-linecap:butt;stroke-linejoin:miter;stroke-opacity:1"/>
<path class="bond-3 atom-3 atom-4" d="M 692.3,158.6 L 655.9,46.4" style="fill:none;fill-rule:evenodd;stroke:#000000;stroke-width:2.0px;stroke-linecap:butt;stroke-linejoin:miter;stroke-opacity:1"/>
<path class="bond-4 atom-4 atom-5" d="M 672.3,23.8 L 521.4,23.8" style="fill:none;fill-rule:evenodd;stroke:#000000;stroke-width:2.0px;stroke-linecap:butt;stroke-linejoin:miter;stroke-opacity:1"/>
<path class="bond-5 atom-5 atom-6" d="M 521.4,23.8 L 474.8,167.3" style="fill:none;fill-rule:evenodd;stroke:#000000;stroke-width:2.0px;stroke-linecap:butt;stroke-linejoin:miter;stroke-opacity:1"/>
<path class="bond-5 atom-5 atom-6" d="M 537.8,46.4 L 501.4,158.6" style="fill:none;fill-rule:evenodd;stroke:#000000;stroke-width:2.0px;stroke-linecap:butt;stroke-linejoin:miter;stroke-opacity:1"/>
<path class="bond-6 atom-6 atom-7" d="M 474.8,167.3 L 331.3,213.9" style="fill:none;fill-rule:evenodd;stroke:#000000;stroke-width:2.0px;stroke-linecap:butt;stroke-linejoin:miter;stroke-opacity:1"/>
<path class="bond-7 atom-7 atom-8" d="M 331.3,213.9 L 277.2,165.2" style="fill:none;fill-rule:evenodd;stroke:#000000;stroke-width:2.0px;stroke-linecap:butt;stroke-linejoin:miter;stroke-opacity:1"/>
<path class="bond-7 atom-7 atom-8" d="M 277.2,165.2 L 223.1,116.5" style="fill:none;fill-rule:evenodd;stroke:#191919;stroke-width:2.0px;stroke-linecap:butt;stroke-linejoin:miter;stroke-opacity:1"/>
<path class="bond-8 atom-7 atom-9" d="M 321.6,205.1 L 307.2,272.5" style="fill:none;fill-rule:evenodd;stroke:#000000;stroke-width:2.0px;stroke-linecap:butt;stroke-linejoin:miter;stroke-opacity:1"/>
<path class="bond-8 atom-7 atom-9" d="M 307.2,272.5 L 292.9,339.8" style="fill:none;fill-rule:evenodd;stroke:#FF0000;stroke-width:2.0px;stroke-linecap:butt;stroke-linejoin:miter;stroke-opacity:1"/>
<path class="bond-8 atom-7 atom-9" d="M 343.7,209.9 L 329.4,277.2" style="fill:none;fill-rule:evenodd;stroke:#000000;stroke-width:2.0px;stroke-linecap:butt;stroke-linejoin:miter;stroke-opacity:1"/>
<path class="bond-8 atom-7 atom-9" d="M 329.4,277.2 L 315.1,344.5" style="fill:none;fill-rule:evenodd;stroke:#FF0000;stroke-width:2.0px;stroke-linecap:butt;stroke-linejoin:miter;stroke-opacity:1"/>
<path class="bond-9 atom-6 atom-10" d="M 474.8,167.3 L 526.8,205.1" style="fill:none;fill-rule:evenodd;stroke:#000000;stroke-width:2.0px;stroke-linecap:butt;stroke-linejoin:miter;stroke-opacity:1"/>
<path class="bond-9 atom-6 atom-10" d="M 526.8,205.1 L 578.9,242.9" style="fill:none;fill-rule:evenodd;stroke:#FF0000;stroke-width:2.0px;stroke-linecap:butt;stroke-linejoin:miter;stroke-opacity:1"/>
<path class="bond-10 atom-10 atom-3" d="M 614.8,242.9 L 666.9,205.1" style="fill:none;fill-rule:evenodd;stroke:#FF0000;stroke-width:2.0px;stroke-linecap:butt;stroke-linejoin:miter;stroke-opacity:1"/>
<path class="bond-10 atom-10 atom-3" d="M 666.9,205.1 L 718.9,167.3" style="fill:none;fill-rule:evenodd;stroke:#000000;stroke-width:2.0px;stroke-linecap:butt;stroke-linejoin:miter;stroke-opacity:1"/>
<path d="M 863.1,217.1 L 862.4,213.9 L 855.3,211.6" style="fill:none;stroke:#000000;stroke-width:2.0px;stroke-linecap:butt;stroke-linejoin:miter;stroke-opacity:1;"/>
<path d="M 674.6,30.9 L 672.3,23.8 L 664.8,23.8" style="fill:none;stroke:#000000;stroke-width:2.0px;stroke-linecap:butt;stroke-linejoin:miter;stroke-opacity:1;"/>
<path d="M 528.9,23.8 L 521.4,23.8 L 519.1,30.9" style="fill:none;stroke:#000000;stroke-width:2.0px;stroke-linecap:butt;stroke-linejoin:miter;stroke-opacity:1;"/>
<path d="M 338.4,211.6 L 331.3,213.9 L 328.6,211.5" style="fill:none;stroke:#000000;stroke-width:2.0px;stroke-linecap:butt;stroke-linejoin:miter;stroke-opacity:1;"/>
<path class="atom-0" d="M 888.5 358.3 L 892.6 354.1 L 887.1 353.0 L 887.9 350.1 L 893.0 352.7 L 892.3 347.1 L 895.3 347.1 L 894.5 352.6 L 899.6 350.2 L 900.5 353.0 L 894.9 354.0 L 898.9 358.3 L 896.5 360.0 L 893.7 354.8 L 890.9 360.0 L 888.5 358.3 " fill="#191919"/>
<path class="atom-2" d="M 961.6 113.0 Q 961.6 106.2, 964.9 102.4 Q 968.3 98.6, 974.6 98.6 Q 980.8 98.6, 984.2 102.4 Q 987.6 106.2, 987.6 113.0 Q 987.6 119.9, 984.2 123.8 Q 980.8 127.7, 974.6 127.7 Q 968.3 127.7, 964.9 123.8 Q 961.6 119.9, 961.6 113.0 M 974.6 124.5 Q 978.9 124.5, 981.2 121.6 Q 983.6 118.7, 983.6 113.0 Q 983.6 107.4, 981.2 104.6 Q 978.9 101.8, 974.6 101.8 Q 970.2 101.8, 967.9 104.6 Q 965.6 107.4, 965.6 113.0 Q 965.6 118.7, 967.9 121.6 Q 970.2 124.5, 974.6 124.5 " fill="#FF0000"/>
<path class="atom-8" d="M 213.8 109.8 L 218.0 105.5 L 212.4 104.4 L 213.3 101.6 L 218.4 104.1 L 217.6 98.6 L 220.6 98.5 L 219.8 104.1 L 225.0 101.7 L 225.8 104.4 L 220.2 105.4 L 224.2 109.7 L 221.8 111.5 L 219.0 106.2 L 216.2 111.5 L 213.8 109.8 " fill="#191919"/>
<path class="atom-9" d="M 286.9 361.6 Q 286.9 354.8, 290.3 351.0 Q 293.6 347.2, 299.9 347.2 Q 306.2 347.2, 309.5 351.0 Q 312.9 354.8, 312.9 361.6 Q 312.9 368.4, 309.5 372.4 Q 306.1 376.2, 299.9 376.2 Q 293.7 376.2, 290.3 372.4 Q 286.9 368.5, 286.9 361.6 M 299.9 373.0 Q 304.2 373.0, 306.5 370.2 Q 308.9 367.2, 308.9 361.6 Q 308.9 356.0, 306.5 353.2 Q 304.2 350.4, 299.9 350.4 Q 295.6 350.4, 293.2 353.2 Q 290.9 356.0, 290.9 361.6 Q 290.9 367.3, 293.2 370.2 Q 295.6 373.0, 299.9 373.0 " fill="#FF0000"/>
<path class="atom-10" d="M 583.8 256.0 Q 583.8 249.2, 587.2 245.4 Q 590.6 241.6, 596.8 241.6 Q 603.1 241.6, 606.5 245.4 Q 609.8 249.2, 609.8 256.0 Q 609.8 262.9, 606.4 266.8 Q 603.0 270.7, 596.8 270.7 Q 590.6 270.7, 587.2 266.8 Q 583.8 263.0, 583.8 256.0 M 596.8 267.5 Q 601.2 267.5, 603.5 264.6 Q 605.8 261.7, 605.8 256.0 Q 605.8 250.5, 603.5 247.7 Q 601.2 244.8, 596.8 244.8 Q 592.5 244.8, 590.2 247.6 Q 587.8 250.4, 587.8 256.0 Q 587.8 261.8, 590.2 264.6 Q 592.5 267.5, 596.8 267.5 " fill="#FF0000"/>
<path class="bond-0 atom-0 atom-1" d="M 219.7,638.1 L 279.2,603.8" style="fill:none;fill-rule:evenodd;stroke:#191919;stroke-width:2.0px;stroke-linecap:butt;stroke-linejoin:miter;stroke-opacity:1"/>
<path class="bond-0 atom-0 atom-1" d="M 279.2,603.8 L 338.6,569.4" style="fill:none;fill-rule:evenodd;stroke:#000000;stroke-width:2.0px;stroke-linecap:butt;stroke-linejoin:miter;stroke-opacity:1"/>
<path class="bond-1 atom-1 atom-2" d="M 338.6,569.4 L 469.3,644.9" style="fill:none;fill-rule:evenodd;stroke:#000000;stroke-width:2.0px;stroke-linecap:butt;stroke-linejoin:miter;stroke-opacity:1"/>
<path class="bond-2 atom-2 atom-3" d="M 469.3,644.9 L 600.0,569.4" style="fill:none;fill-rule:evenodd;stroke:#000000;stroke-width:2.0px;stroke-linecap:butt;stroke-linejoin:miter;stroke-opacity:1"/>
<path class="bond-3 atom-3 atom-4" d="M 600.0,569.4 L 730.7,644.9" style="fill:none;fill-rule:evenodd;stroke:#000000;stroke-width:2.0px;stroke-linecap:butt;stroke-linejoin:miter;stroke-opacity:1"/>
<path class="bond-4 atom-4 atom-5" d="M 730.7,644.9 L 787.0,612.4" style="fill:none;fill-rule:evenodd;stroke:#000000;stroke-width:2.0px;stroke-linecap:butt;stroke-linejoin:miter;stroke-opacity:1"/>
<path class="bond-4 atom-4 atom-5" d="M 787.0,612.4 L 843.4,579.8" style="fill:none;fill-rule:evenodd;stroke:#FF0000;stroke-width:2.0px;stroke-linecap:butt;stroke-linejoin:miter;stroke-opacity:1"/>
<path class="bond-5 atom-5 atom-6" d="M 879.3,579.8 L 929.8,609.0" style="fill:none;fill-rule:evenodd;stroke:#FF0000;stroke-width:2.0px;stroke-linecap:butt;stroke-linejoin:miter;stroke-opacity:1"/>
<path class="bond-5 atom-5 atom-6" d="M 929.8,609.0 L 980.3,638.1" style="fill:none;fill-rule:evenodd;stroke:#191919;stroke-width:2.0px;stroke-linecap:butt;stroke-linejoin:miter;stroke-opacity:1"/>
<path d="M 335.7,571.2 L 338.6,569.4 L 345.2,573.2" style="fill:none;stroke:#000000;stroke-width:2.0px;stroke-linecap:butt;stroke-linejoin:miter;stroke-opacity:1;"/>
<path d="M 462.8,641.1 L 469.3,644.9 L 475.9,641.1" style="fill:none;stroke:#000000;stroke-width:2.0px;stroke-linecap:butt;stroke-linejoin:miter;stroke-opacity:1;"/>
<path d="M 593.5,573.2 L 600.0,569.4 L 606.5,573.2" style="fill:none;stroke:#000000;stroke-width:2.0px;stroke-linecap:butt;stroke-linejoin:miter;stroke-opacity:1;"/>
<path d="M 724.1,641.1 L 730.7,644.9 L 733.5,643.3" style="fill:none;stroke:#000000;stroke-width:2.0px;stroke-linecap:butt;stroke-linejoin:miter;stroke-opacity:1;"/>
<path class="atom-0" d="M 202.6 641.7 L 206.8 637.5 L 201.3 636.4 L 202.1 633.5 L 207.2 636.1 L 206.5 630.5 L 209.5 630.5 L 208.6 636.0 L 213.8 633.6 L 214.7 636.4 L 209.1 637.4 L 213.1 641.7 L 210.6 643.4 L 207.9 638.2 L 205.1 643.4 L 202.6 641.7 " fill="#191919"/>
<path class="atom-5" d="M 848.4 569.5 Q 848.4 562.7, 851.7 558.9 Q 855.1 555.1, 861.4 555.1 Q 867.6 555.1, 871.0 558.9 Q 874.4 562.7, 874.4 569.5 Q 874.4 576.4, 871.0 580.3 Q 867.6 584.2, 861.4 584.2 Q 855.1 584.2, 851.7 580.3 Q 848.4 576.4, 848.4 569.5 M 861.4 581.0 Q 865.7 581.0, 868.0 578.1 Q 870.4 575.2, 870.4 569.5 Q 870.4 564.0, 868.0 561.2 Q 865.7 558.3, 861.4 558.3 Q 857.0 558.3, 854.7 561.1 Q 852.4 563.9, 852.4 569.5 Q 852.4 575.2, 854.7 578.1 Q 857.0 581.0, 861.4 581.0 " fill="#FF0000"/>
<path class="atom-6" d="M 986.7 641.7 L 990.8 637.5 L 985.3 636.4 L 986.2 633.5 L 991.2 636.1 L 990.5 630.5 L 993.5 630.5 L 992.7 636.0 L 997.8 633.6 L 998.7 636.4 L 993.1 637.4 L 997.1 641.7 L 994.7 643.4 L 991.9 638.2 L 989.1 643.4 L 986.7 641.7 " fill="#191919"/>
</svg>