<svg xmlns="http://www.w3.org/2000/svg" xmlns:rdkit="http://www.rdkit.org/xml" xmlns:xlink="http://www.w3.org/1999/xlink" version="1.1" baseProfile="full" xml:space="preserve" width="1200px" height="800px" viewBox="0 0 1200 800">
<!-- END OF HEADER -->
<rect style="opacity:1.0;fill:#FFFFFF;stroke:none" width="1200.0" height="800.0" x="0.0" y="0.0"> </rect>
<path class="bond-0 atom-0 atom-1" d="M 1033.0,333.6 L 994.4,266.7" style="fill:none;fill-rule:evenodd;stroke:#191919;stroke-width:2.0px;stroke-linecap:butt;stroke-linejoin:miter;stroke-opacity:1"/>
<path class="bond-0 atom-0 atom-1" d="M 994.4,266.7 L 955.8,199.8" style="fill:none;fill-rule:evenodd;stroke:#000000;stroke-width:2.0px;stroke-linecap:butt;stroke-linejoin:miter;stroke-opacity:1"/>
<path class="bond-1 atom-1 atom-2" d="M 963.5,213.2 L 1003.9,143.1" style="fill:none;fill-rule:evenodd;stroke:#000000;stroke-width:2.0px;stroke-linecap:butt;stroke-linejoin:miter;stroke-opacity:1"/>
<path class="bond-1 atom-1 atom-2" d="M 1003.9,143.1 L 1044.4,73.1" style="fill:none;fill-rule:evenodd;stroke:#FF0000;stroke-width:2.0px;stroke-linecap:butt;stroke-linejoin:miter;stroke-opacity:1"/>
<path class="bond-1 atom-1 atom-2" d="M 940.4,199.8 L 980.8,129.8" style="fill:none;fill-rule:evenodd;stroke:#000000;stroke-width:2.0px;stroke-linecap:butt;stroke-linejoin:miter;stroke-opacity:1"/>
<path class="bond-1 atom-1 atom-2" d="M 980.8,129.8 L 1021.3,59.7" style="fill:none;fill-rule:evenodd;stroke:#FF0000;stroke-width:2.0px;stroke-linecap:butt;stroke-linejoin:miter;stroke-opacity:1"/>
<path class="bond-2 atom-1 atom-3" d="M 955.8,199.8 L 777.9,199.8" style="fill:none;fill-rule:evenodd;stroke:#000000;stroke-width:2.0px;stroke-linecap:butt;stroke-linejoin:miter;stroke-opacity:1"/>
<path class="bond-3 atom-3 atom-4" d="M 777.9,199.8 L 688.9,353.9" style="fill:none;fill-rule:evenodd;stroke:#000000;stroke-width:2.0px;stroke-linecap:butt;stroke-linejoin:miter;stroke-opacity:1"/>
<path class="bond-3 atom-3 atom-4" d="M 747.1,199.8 L 673.5,327.2" style="fill:none;fill-rule:evenodd;stroke:#000000;stroke-width:2.0px;stroke-linecap:butt;stroke-linejoin:miter;stroke-opacity:1"/>
<path class="bond-4 atom-4 atom-5" d="M 688.9,353.9 L 511.1,353.9" style="fill:none;fill-rule:evenodd;stroke:#000000;stroke-width:2.0px;stroke-linecap:butt;stroke-linejoin:miter;stroke-opacity:1"/>
<path class="bond-5 atom-5 atom-6" d="M 511.1,353.9 L 422.1,199.8" style="fill:none;fill-rule:evenodd;stroke:#000000;stroke-width:2.0px;stroke-linecap:butt;stroke-linejoin:miter;stroke-opacity:1"/>
<path class="bond-5 atom-5 atom-6" d="M 526.5,327.2 L 452.9,199.8" style="fill:none;fill-rule:evenodd;stroke:#000000;stroke-width:2.0px;stroke-linecap:butt;stroke-linejoin:miter;stroke-opacity:1"/>
<path class="bond-6 atom-6 atom-7" d="M 422.1,199.8 L 244.2,199.8" style="fill:none;fill-rule:evenodd;stroke:#000000;stroke-width:2.0px;stroke-linecap:butt;stroke-linejoin:miter;stroke-opacity:1"/>
<path class="bond-7 atom-7 atom-8" d="M 244.2,199.8 L 201.0,125.0" style="fill:none;fill-rule:evenodd;stroke:#000000;stroke-width:2.0px;stroke-linecap:butt;stroke-linejoin:miter;stroke-opacity:1"/>
<path class="bond-7 atom-7 atom-8" d="M 201.0,125.0 L 157.8,50.2" style="fill:none;fill-rule:evenodd;stroke:#191919;stroke-width:2.0px;stroke-linecap:butt;stroke-linejoin:miter;stroke-opacity:1"/>
<path class="bond-8 atom-7 atom-9" d="M 236.5,186.5 L 195.9,256.7" style="fill:none;fill-rule:evenodd;stroke:#000000;stroke-width:2.0px;stroke-linecap:butt;stroke-linejoin:miter;stroke-opacity:1"/>
<path class="bond-8 atom-7 atom-9" d="M 195.9,256.7 L 155.4,327.0" style="fill:none;fill-rule:evenodd;stroke:#FF0000;stroke-width:2.0px;stroke-linecap:butt;stroke-linejoin:miter;stroke-opacity:1"/>
<path class="bond-8 atom-7 atom-9" d="M 259.6,199.8 L 219.0,270.1" style="fill:none;fill-rule:evenodd;stroke:#000000;stroke-width:2.0px;stroke-linecap:butt;stroke-linejoin:miter;stroke-opacity:1"/>
<path class="bond-8 atom-7 atom-9" d="M 219.0,270.1 L 178.5,340.4" style="fill:none;fill-rule:evenodd;stroke:#FF0000;stroke-width:2.0px;stroke-linecap:butt;stroke-linejoin:miter;stroke-opacity:1"/>
<path class="bond-9 atom-6 atom-10" d="M 422.1,199.8 L 511.1,45.8" style="fill:none;fill-rule:evenodd;stroke:#000000;stroke-width:2.0px;stroke-linecap:butt;stroke-linejoin:miter;stroke-opacity:1"/>
<path class="bond-10 atom-10 atom-11" d="M 511.1,45.8 L 688.9,45.8" style="fill:none;fill-rule:evenodd;stroke:#000000;stroke-width:2.0px;stroke-linecap:butt;stroke-linejoin:miter;stroke-opacity:1"/>
<path class="bond-10 atom-10 atom-11" d="M 526.5,72.4 L 673.5,72.4" style="fill:none;fill-rule:evenodd;stroke:#000000;stroke-width:2.0px;stroke-linecap:butt;stroke-linejoin:miter;stroke-opacity:1"/>
<path class="bond-11 atom-11 atom-3" d="M 688.9,45.8 L 777.9,199.8" style="fill:none;fill-rule:evenodd;stroke:#000000;stroke-width:2.0px;stroke-linecap:butt;stroke-linejoin:miter;stroke-opacity:1"/>
<path d="M 957.7,203.2 L 955.8,199.8 L 946.9,199.8" style="fill:none;stroke:#000000;stroke-width:2.0px;stroke-linecap:butt;stroke-linejoin:miter;stroke-opacity:1;"/>
<path d="M 693.4,346.2 L 688.9,353.9 L 680.1,353.9" style="fill:none;stroke:#000000;stroke-width:2.0px;stroke-linecap:butt;stroke-linejoin:miter;stroke-opacity:1;"/>
<path d="M 519.9,353.9 L 511.1,353.9 L 506.6,346.2" style="fill:none;stroke:#000000;stroke-width:2.0px;stroke-linecap:butt;stroke-linejoin:miter;stroke-opacity:1;"/>
<path d="M 253.1,199.8 L 244.2,199.8 L 242.0,196.1" style="fill:none;stroke:#000000;stroke-width:2.0px;stroke-linecap:butt;stroke-linejoin:miter;stroke-opacity:1;"/>
<path d="M 506.6,53.5 L 511.1,45.8 L 519.9,45.8" style="fill:none;stroke:#000000;stroke-width:2.0px;stroke-linecap:butt;stroke-linejoin:miter;stroke-opacity:1;"/>
<path d="M 680.1,45.8 L 688.9,45.8 L 693.4,53.5" style="fill:none;stroke:#000000;stroke-width:2.0px;stroke-linecap:butt;stroke-linejoin:miter;stroke-opacity:1;"/>
<path class="atom-0" d="M 1039.4 350.7 L 1043.6 346.5 L 1038.0 345.4 L 1038.9 342.5 L 1044.0 345.1 L 1043.2 339.5 L 1046.2 339.5 L 1045.4 345.0 L 1050.6 342.6 L 1051.4 345.4 L 1045.8 346.4 L 1049.8 350.7 L 1047.4 352.4 L 1044.6 347.2 L 1041.8 352.4 L 1039.4 350.7 " fill="#191919"/>
<path class="atom-2" d="M 1031.7 45.8 Q 1031.7 39.0, 1035.1 35.2 Q 1038.5 31.4, 1044.7 31.4 Q 1051.0 31.4, 1054.4 35.2 Q 1057.7 39.0, 1057.7 45.8 Q 1057.7 52.7, 1054.3 56.6 Q 1050.9 60.5, 1044.7 60.5 Q 1038.5 60.5, 1035.1 56.6 Q 1031.7 52.8, 1031.7 45.8 M 1044.7 57.3 Q 1049.1 57.3, 1051.4 54.4 Q 1053.7 51.5, 1053.7 45.8 Q 1053.7 40.3, 1051.4 37.5 Q 1049.1 34.6, 1044.7 34.6 Q 1040.4 34.6, 1038.1 37.4 Q 1035.7 40.2, 1035.7 45.8 Q 1035.7 51.6, 1038.1 54.4 Q 1040.4 57.3, 1044.7 57.3 " fill="#FF0000"/>
<path class="atom-8" d="M 149.9 42.6 L 154.1 38.4 L 148.6 37.2 L 149.4 34.4 L 154.5 37.0 L 153.8 31.4 L 156.8 31.4 L 155.9 36.9 L 161.1 34.5 L 162.0 37.2 L 156.4 38.3 L 160.4 42.6 L 157.9 44.3 L 155.2 39.0 L 152.4 44.3 L 149.9 42.6 " fill="#191919"/>
<path class="atom-9" d="M 142.3 354.0 Q 142.3 347.2, 145.6 343.4 Q 149.0 339.6, 155.3 339.6 Q 161.5 339.6, 164.9 343.4 Q 168.3 347.2, 168.3 354.0 Q 168.3 360.8, 164.9 364.8 Q 161.5 368.6, 155.3 368.6 Q 149.0 368.6, 145.6 364.8 Q 142.3 360.9, 142.3 354.0 M 155.3 365.4 Q 159.6 365.4, 161.9 362.6 Q 164.3 359.6, 164.3 354.0 Q 164.3 348.4, 161.9 345.6 Q 159.6 342.8, 155.3 342.8 Q 150.9 342.8, 148.6 345.6 Q 146.3 348.4, 146.3 354.0 Q 146.3 359.7, 148.6 362.6 Q 150.9 365.4, 155.3 365.4 " fill="#FF0000"/>
<path class="bond-0 atom-0 atom-1" d="M 150.4,644.4 L 221.1,603.5" style="fill:none;fill-rule:evenodd;stroke:#191919;stroke-width:2.0px;stroke-linecap:butt;stroke-linejoin:miter;stroke-opacity:1"/>
<path class="bond-0 atom-0 atom-1" d="M 221.1,603.5 L 291.9,562.7" style="fill:none;fill-rule:evenodd;stroke:#000000;stroke-width:2.0px;stroke-linecap:butt;stroke-linejoin:miter;stroke-opacity:1"/>
<path class="bond-1 atom-1 atom-2" d="M 291.9,562.7 L 445.9,651.6" style="fill:none;fill-rule:evenodd;stroke:#000000;stroke-width:2.0px;stroke-linecap:butt;stroke-linejoin:miter;stroke-opacity:1"/>
<path class="bond-2 atom-2 atom-3" d="M 445.9,651.6 L 600.0,562.7" style="fill:none;fill-rule:evenodd;stroke:#000000;stroke-width:2.0px;stroke-linecap:butt;stroke-linejoin:miter;stroke-opacity:1"/>
<path class="bond-3 atom-3 atom-4" d="M 600.0,562.7 L 754.1,651.6" style="fill:none;fill-rule:evenodd;stroke:#000000;stroke-width:2.0px;stroke-linecap:butt;stroke-linejoin:miter;stroke-opacity:1"/>
<path class="bond-4 atom-4 atom-5" d="M 754.1,651.6 L 821.7,612.6" style="fill:none;fill-rule:evenodd;stroke:#000000;stroke-width:2.0px;stroke-linecap:butt;stroke-linejoin:miter;stroke-opacity:1"/>
<path class="bond-4 atom-4 atom-5" d="M 821.7,612.6 L 889.3,573.6" style="fill:none;fill-rule:evenodd;stroke:#FF0000;stroke-width:2.0px;stroke-linecap:butt;stroke-linejoin:miter;stroke-opacity:1"/>
<path class="bond-5 atom-5 atom-6" d="M 927.0,573.6 L 988.3,609.0" style="fill:none;fill-rule:evenodd;stroke:#FF0000;stroke-width:2.0px;stroke-linecap:butt;stroke-linejoin:miter;stroke-opacity:1"/>
<path class="bond-5 atom-5 atom-6" d="M 988.3,609.0 L 1049.6,644.4" style="fill:none;fill-rule:evenodd;stroke:#191919;stroke-width:2.0px;stroke-linecap:butt;stroke-linejoin:miter;stroke-opacity:1"/>
<path d="M 288.3,564.7 L 291.9,562.7 L 299.6,567.1" style="fill:none;stroke:#000000;stroke-width:2.0px;stroke-linecap:butt;stroke-linejoin:miter;stroke-opacity:1;"/>
<path d="M 438.2,647.2 L 445.9,651.6 L 453.6,647.2" style="fill:none;stroke:#000000;stroke-width:2.0px;stroke-linecap:butt;stroke-linejoin:miter;stroke-opacity:1;"/>
<path d="M 592.3,567.1 L 600.0,562.7 L 607.7,567.1" style="fill:none;stroke:#000000;stroke-width:2.0px;stroke-linecap:butt;stroke-linejoin:miter;stroke-opacity:1;"/>
<path d="M 746.4,647.2 L 754.1,651.6 L 757.4,649.7" style="fill:none;stroke:#000000;stroke-width:2.0px;stroke-linecap:butt;stroke-linejoin:miter;stroke-opacity:1;"/>
<path class="atom-0" d="M 132.5 648.5 L 136.6 644.2 L 131.1 643.1 L 132.0 640.3 L 137.0 642.8 L 136.3 637.3 L 139.3 637.2 L 138.5 642.8 L 143.6 640.4 L 144.5 643.1 L 138.9 644.2 L 142.9 648.4 L 140.5 650.2 L 137.7 644.9 L 134.9 650.2 L 132.5 648.5 " fill="#191919"/>
<path class="atom-5" d="M 895.1 562.8 Q 895.1 556.0, 898.5 552.2 Q 901.8 548.4, 908.1 548.4 Q 914.4 548.4, 917.8 552.2 Q 921.1 556.0, 921.1 562.8 Q 921.1 569.6, 917.7 573.6 Q 914.3 577.4, 908.1 577.4 Q 901.9 577.4, 898.5 573.6 Q 895.1 569.7, 895.1 562.8 M 908.1 574.2 Q 912.4 574.2, 914.8 571.4 Q 917.1 568.4, 917.1 562.8 Q 917.1 557.2, 914.8 554.4 Q 912.4 551.6, 908.1 551.6 Q 903.8 551.6, 901.4 554.4 Q 899.1 557.2, 899.1 562.8 Q 899.1 568.5, 901.4 571.4 Q 903.8 574.2, 908.1 574.2 " fill="#FF0000"/>
<path class="atom-6" d="M 1056.8 648.5 L 1061.0 644.2 L 1055.5 643.1 L 1056.3 640.3 L 1061.4 642.8 L 1060.7 637.3 L 1063.7 637.2 L 1062.8 642.8 L 1068.0 640.4 L 1068.9 643.1 L 1063.3 644.2 L 1067.3 648.4 L 1064.8 650.2 L 1062.1 644.9 L 1059.3 650.2 L 1056.8 648.5 " fill="#191919"/>
</svg>