<svg xmlns="http://www.w3.org/2000/svg" xmlns:rdkit="http://www.rdkit.org/xml" xmlns:xlink="http://www.w3.org/1999/xlink" version="1.1" baseProfile="full" xml:space="preserve" width="1200px" height="800px" viewBox="0 0 1200 800">
<!-- END OF HEADER -->
<rect style="opacity:1.0;fill:#FFFFFF;stroke:none" width="1200.0" height="800.0" x="0.0" y="0.0"> </rect>
<path class="bond-0 atom-0 atom-1" d="M 1070.4,106.2 L 1009.1,152.2" style="fill:none;fill-rule:evenodd;stroke:#191919;stroke-width:2.0px;stroke-linecap:butt;stroke-linejoin:miter;stroke-opacity:1"/>
<path class="bond-0 atom-0 atom-1" d="M 1009.1,152.2 L 947.8,198.1" style="fill:none;fill-rule:evenodd;stroke:#000000;stroke-width:2.0px;stroke-linecap:butt;stroke-linejoin:miter;stroke-opacity:1"/>
<path class="bond-1 atom-1 atom-2" d="M 935.1,192.7 L 943.9,265.6" style="fill:none;fill-rule:evenodd;stroke:#000000;stroke-width:2.0px;stroke-linecap:butt;stroke-linejoin:miter;stroke-opacity:1"/>
<path class="bond-1 atom-1 atom-2" d="M 943.9,265.6 L 952.6,338.4" style="fill:none;fill-rule:evenodd;stroke:#FF0000;stroke-width:2.0px;stroke-linecap:butt;stroke-linejoin:miter;stroke-opacity:1"/>
<path class="bond-1 atom-1 atom-2" d="M 958.9,189.8 L 967.6,262.7" style="fill:none;fill-rule:evenodd;stroke:#000000;stroke-width:2.0px;stroke-linecap:butt;stroke-linejoin:miter;stroke-opacity:1"/>
<path class="bond-1 atom-1 atom-2" d="M 967.6,262.7 L 976.4,335.6" style="fill:none;fill-rule:evenodd;stroke:#FF0000;stroke-width:2.0px;stroke-linecap:butt;stroke-linejoin:miter;stroke-opacity:1"/>
<path class="bond-2 atom-1 atom-3" d="M 947.8,198.1 L 801.1,135.4" style="fill:none;fill-rule:evenodd;stroke:#000000;stroke-width:2.0px;stroke-linecap:butt;stroke-linejoin:miter;stroke-opacity:1"/>
<path class="bond-3 atom-3 atom-4" d="M 801.1,135.4 L 673.4,231.1" style="fill:none;fill-rule:evenodd;stroke:#000000;stroke-width:2.0px;stroke-linecap:butt;stroke-linejoin:miter;stroke-opacity:1"/>
<path class="bond-4 atom-4 atom-5" d="M 673.4,231.1 L 526.6,168.4" style="fill:none;fill-rule:evenodd;stroke:#000000;stroke-width:2.0px;stroke-linecap:butt;stroke-linejoin:miter;stroke-opacity:1"/>
<path class="bond-5 atom-5 atom-6" d="M 526.6,168.4 L 398.9,264.2" style="fill:none;fill-rule:evenodd;stroke:#000000;stroke-width:2.0px;stroke-linecap:butt;stroke-linejoin:miter;stroke-opacity:1"/>
<path class="bond-6 atom-6 atom-7" d="M 398.9,264.2 L 252.2,201.4" style="fill:none;fill-rule:evenodd;stroke:#000000;stroke-width:2.0px;stroke-linecap:butt;stroke-linejoin:miter;stroke-opacity:1"/>
<path class="bond-7 atom-7 atom-8" d="M 252.2,201.4 L 194.3,244.8" style="fill:none;fill-rule:evenodd;stroke:#000000;stroke-width:2.0px;stroke-linecap:butt;stroke-linejoin:miter;stroke-opacity:1"/>
<path class="bond-7 atom-7 atom-8" d="M 194.3,244.8 L 136.5,288.2" style="fill:none;fill-rule:evenodd;stroke:#191919;stroke-width:2.0px;stroke-linecap:butt;stroke-linejoin:miter;stroke-opacity:1"/>
<path class="bond-8 atom-7 atom-9" d="M 264.9,206.9 L 256.2,134.2" style="fill:none;fill-rule:evenodd;stroke:#000000;stroke-width:2.0px;stroke-linecap:butt;stroke-linejoin:miter;stroke-opacity:1"/>
<path class="bond-8 atom-7 atom-9" d="M 256.2,134.2 L 247.4,61.6" style="fill:none;fill-rule:evenodd;stroke:#FF0000;stroke-width:2.0px;stroke-linecap:butt;stroke-linejoin:miter;stroke-opacity:1"/>
<path class="bond-8 atom-7 atom-9" d="M 241.1,209.7 L 232.4,137.1" style="fill:none;fill-rule:evenodd;stroke:#000000;stroke-width:2.0px;stroke-linecap:butt;stroke-linejoin:miter;stroke-opacity:1"/>
<path class="bond-8 atom-7 atom-9" d="M 232.4,137.1 L 223.6,64.4" style="fill:none;fill-rule:evenodd;stroke:#FF0000;stroke-width:2.0px;stroke-linecap:butt;stroke-linejoin:miter;stroke-opacity:1"/>
<path d="M 950.9,195.8 L 947.8,198.1 L 940.5,195.0" style="fill:none;stroke:#000000;stroke-width:2.0px;stroke-linecap:butt;stroke-linejoin:miter;stroke-opacity:1;"/>
<path d="M 808.4,138.5 L 801.1,135.4 L 794.7,140.2" style="fill:none;stroke:#000000;stroke-width:2.0px;stroke-linecap:butt;stroke-linejoin:miter;stroke-opacity:1;"/>
<path d="M 679.8,226.4 L 673.4,231.1 L 666.0,228.0" style="fill:none;stroke:#000000;stroke-width:2.0px;stroke-linecap:butt;stroke-linejoin:miter;stroke-opacity:1;"/>
<path d="M 534.0,171.6 L 526.6,168.4 L 520.2,173.2" style="fill:none;stroke:#000000;stroke-width:2.0px;stroke-linecap:butt;stroke-linejoin:miter;stroke-opacity:1;"/>
<path d="M 405.3,259.4 L 398.9,264.2 L 391.6,261.0" style="fill:none;stroke:#000000;stroke-width:2.0px;stroke-linecap:butt;stroke-linejoin:miter;stroke-opacity:1;"/>
<path d="M 259.5,204.6 L 252.2,201.4 L 249.3,203.6" style="fill:none;stroke:#000000;stroke-width:2.0px;stroke-linecap:butt;stroke-linejoin:miter;stroke-opacity:1;"/>
<path class="atom-0" d="M 1070.2 99.2 L 1074.3 95.0 L 1068.8 93.9 L 1069.6 91.0 L 1074.7 93.6 L 1074.0 88.0 L 1077.0 88.0 L 1076.2 93.6 L 1081.3 91.2 L 1082.2 93.9 L 1076.6 94.9 L 1080.6 99.2 L 1078.2 101.0 L 1075.4 95.7 L 1072.6 101.0 L 1070.2 99.2 " fill="#191919"/>
<path class="atom-2" d="M 953.9 356.7 Q 953.9 349.9, 957.2 346.1 Q 960.6 342.3, 966.9 342.3 Q 973.2 342.3, 976.5 346.1 Q 979.9 349.9, 979.9 356.7 Q 979.9 363.5, 976.5 367.5 Q 973.1 371.3, 966.9 371.3 Q 960.6 371.3, 957.2 367.5 Q 953.9 363.6, 953.9 356.7 M 966.9 368.1 Q 971.2 368.1, 973.5 365.3 Q 975.9 362.3, 975.9 356.7 Q 975.9 351.1, 973.5 348.3 Q 971.2 345.5, 966.9 345.5 Q 962.6 345.5, 960.2 348.3 Q 957.9 351.1, 957.9 356.7 Q 957.9 362.4, 960.2 365.3 Q 962.6 368.1, 966.9 368.1 " fill="#FF0000"/>
<path class="atom-8" d="M 119.2 294.0 L 123.3 289.8 L 117.8 288.6 L 118.6 285.8 L 123.7 288.4 L 123.0 282.8 L 126.0 282.8 L 125.2 288.3 L 130.3 285.9 L 131.2 288.6 L 125.6 289.7 L 129.6 294.0 L 127.2 295.7 L 124.4 290.4 L 121.6 295.7 L 119.2 294.0 " fill="#191919"/>
<path class="atom-9" d="M 220.1 43.1 Q 220.1 36.3, 223.5 32.5 Q 226.8 28.7, 233.1 28.7 Q 239.4 28.7, 242.8 32.5 Q 246.1 36.3, 246.1 43.1 Q 246.1 49.9, 242.7 53.9 Q 239.3 57.7, 233.1 57.7 Q 226.9 57.7, 223.5 53.9 Q 220.1 50.0, 220.1 43.1 M 233.1 54.5 Q 237.4 54.5, 239.8 51.7 Q 242.1 48.7, 242.1 43.1 Q 242.1 37.5, 239.8 34.7 Q 237.4 31.9, 233.1 31.9 Q 228.8 31.9, 226.4 34.7 Q 224.1 37.5, 224.1 43.1 Q 224.1 48.8, 226.4 51.7 Q 228.8 54.5, 233.1 54.5 " fill="#FF0000"/>
<path class="bond-0 atom-0 atom-1" d="M 197.3,640.1 L 260.5,603.7" style="fill:none;fill-rule:evenodd;stroke:#191919;stroke-width:2.0px;stroke-linecap:butt;stroke-linejoin:miter;stroke-opacity:1"/>
<path class="bond-0 atom-0 atom-1" d="M 260.5,603.7 L 323.6,567.3" style="fill:none;fill-rule:evenodd;stroke:#000000;stroke-width:2.0px;stroke-linecap:butt;stroke-linejoin:miter;stroke-opacity:1"/>
<path class="bond-1 atom-1 atom-2" d="M 323.6,567.3 L 461.8,647.1" style="fill:none;fill-rule:evenodd;stroke:#000000;stroke-width:2.0px;stroke-linecap:butt;stroke-linejoin:miter;stroke-opacity:1"/>
<path class="bond-2 atom-2 atom-3" d="M 461.8,647.1 L 600.0,567.3" style="fill:none;fill-rule:evenodd;stroke:#000000;stroke-width:2.0px;stroke-linecap:butt;stroke-linejoin:miter;stroke-opacity:1"/>
<path class="bond-3 atom-3 atom-4" d="M 600.0,567.3 L 738.2,647.1" style="fill:none;fill-rule:evenodd;stroke:#000000;stroke-width:2.0px;stroke-linecap:butt;stroke-linejoin:miter;stroke-opacity:1"/>
<path class="bond-4 atom-4 atom-5" d="M 738.2,647.1 L 798.2,612.4" style="fill:none;fill-rule:evenodd;stroke:#000000;stroke-width:2.0px;stroke-linecap:butt;stroke-linejoin:miter;stroke-opacity:1"/>
<path class="bond-4 atom-4 atom-5" d="M 798.2,612.4 L 858.2,577.8" style="fill:none;fill-rule:evenodd;stroke:#FF0000;stroke-width:2.0px;stroke-linecap:butt;stroke-linejoin:miter;stroke-opacity:1"/>
<path class="bond-5 atom-5 atom-6" d="M 894.7,577.8 L 948.7,609.0" style="fill:none;fill-rule:evenodd;stroke:#FF0000;stroke-width:2.0px;stroke-linecap:butt;stroke-linejoin:miter;stroke-opacity:1"/>
<path class="bond-5 atom-5 atom-6" d="M 948.7,609.0 L 1002.7,640.1" style="fill:none;fill-rule:evenodd;stroke:#191919;stroke-width:2.0px;stroke-linecap:butt;stroke-linejoin:miter;stroke-opacity:1"/>
<path d="M 320.4,569.1 L 323.6,567.3 L 330.5,571.3" style="fill:none;stroke:#000000;stroke-width:2.0px;stroke-linecap:butt;stroke-linejoin:miter;stroke-opacity:1;"/>
<path d="M 454.9,643.1 L 461.8,647.1 L 468.7,643.1" style="fill:none;stroke:#000000;stroke-width:2.0px;stroke-linecap:butt;stroke-linejoin:miter;stroke-opacity:1;"/>
<path d="M 593.1,571.3 L 600.0,567.3 L 606.9,571.3" style="fill:none;stroke:#000000;stroke-width:2.0px;stroke-linecap:butt;stroke-linejoin:miter;stroke-opacity:1;"/>
<path d="M 731.3,643.1 L 738.2,647.1 L 741.2,645.3" style="fill:none;stroke:#000000;stroke-width:2.0px;stroke-linecap:butt;stroke-linejoin:miter;stroke-opacity:1;"/>
<path class="atom-0" d="M 180.0 643.9 L 184.2 639.7 L 178.7 638.5 L 179.5 635.7 L 184.6 638.3 L 183.9 632.7 L 186.9 632.7 L 186.0 638.2 L 191.2 635.8 L 192.1 638.5 L 186.5 639.6 L 190.5 643.9 L 188.0 645.6 L 185.3 640.3 L 182.5 645.6 L 180.0 643.9 " fill="#191919"/>
<path class="atom-5" d="M 863.4 567.3 Q 863.4 560.5, 866.8 556.7 Q 870.1 552.9, 876.4 552.9 Q 882.7 552.9, 886.1 556.7 Q 889.4 560.5, 889.4 567.3 Q 889.4 574.2, 886.0 578.1 Q 882.6 582.0, 876.4 582.0 Q 870.2 582.0, 866.8 578.1 Q 863.4 574.3, 863.4 567.3 M 876.4 578.8 Q 880.7 578.8, 883.1 575.9 Q 885.4 573.0, 885.4 567.3 Q 885.4 561.8, 883.1 559.0 Q 880.7 556.1, 876.4 556.1 Q 872.1 556.1, 869.7 558.9 Q 867.4 561.7, 867.4 567.3 Q 867.4 573.1, 869.7 575.9 Q 872.1 578.8, 876.4 578.8 " fill="#FF0000"/>
<path class="atom-6" d="M 1009.3 643.9 L 1013.5 639.7 L 1007.9 638.5 L 1008.8 635.7 L 1013.9 638.3 L 1013.1 632.7 L 1016.1 632.7 L 1015.3 638.2 L 1020.5 635.8 L 1021.3 638.5 L 1015.7 639.6 L 1019.7 643.9 L 1017.3 645.6 L 1014.5 640.3 L 1011.7 645.6 L 1009.3 643.9 " fill="#191919"/>
</svg>