<svg xmlns="http://www.w3.org/2000/svg" xmlns:rdkit="http://www.rdkit.org/xml" xmlns:xlink="http://www.w3.org/1999/xlink" version="1.1" baseProfile="full" xml:space="preserve" width="1200px" height="800px" viewBox="0 0 1200 800">
<!-- END OF HEADER -->
<rect style="opacity:1.0;fill:#FFFFFF;stroke:none" width="1200.0" height="800.0" x="0.0" y="0.0"> </rect>
<path class="bond-0 atom-0 atom-1" d="M 1070.4,106.2 L 1009.1,152.2" style="fill:none;fill-rule:evenodd;stroke:#191919;stroke-width:2.0px;stroke-linecap:butt;stroke-linejoin:miter;stroke-opacity:1"/>
<path class="bond-0 atom-0 atom-1" d="M 1009.1,152.2 L 947.8,198.1" style="fill:none;fill-rule:evenodd;stroke:#000000;stroke-width:2.0px;stroke-linecap:butt;stroke-linejoin:miter;stroke-opacity:1"/>
<path class="bond-1 atom-1 atom-2" d="M 935.1,192.7 L 943.9,265.6" style="fill:none;fill-rule:evenodd;stroke:#000000;stroke-width:2.0px;stroke-linecap:butt;stroke-linejoin:miter;stroke-opacity:1"/>
<path class="bond-1 atom-1 atom-2" d="M 943.9,265.6 L 952.6,338.4" style="fill:none;fill-rule:evenodd;stroke:#FF0000;stroke-width:2.0px;stroke-linecap:butt;stroke-linejoin:miter;stroke-opacity:1"/>
<path class="bond-1 atom-1 atom-2" d="M 958.9,189.8 L 967.6,262.7" style="fill:none;fill-rule:evenodd;stroke:#000000;stroke-width:2.0px;stroke-linecap:butt;stroke-linejoin:miter;stroke-opacity:1"/>
<path class="bond-1 atom-1 atom-2" d="M 967.6,262.7 L 976.4,335.6" style="fill:none;fill-rule:evenodd;stroke:#FF0000;stroke-width:2.0px;stroke-linecap:butt;stroke-linejoin:miter;stroke-opacity:1"/>
<path class="bond-2 atom-1 atom-3" d="M 947.8,198.1 L 801.1,135.4" style="fill:none;fill-rule:evenodd;stroke:#000000;stroke-width:2.0px;stroke-linecap:butt;stroke-linejoin:miter;stroke-opacity:1"/>
<path class="bond-3 atom-3 atom-4" d="M 801.1,135.4 L 673.4,231.1" style="fill:none;fill-rule:evenodd;stroke:#000000;stroke-width:2.0px;stroke-linecap:butt;stroke-linejoin:miter;stroke-opacity:1"/>
<path class="bond-4 atom-4 atom-5" d="M 673.4,231.1 L 526.6,168.4" style="fill:none;fill-rule:evenodd;stroke:#000000;stroke-width:2.0px;stroke-linecap:butt;stroke-linejoin:miter;stroke-opacity:1"/>
<path class="bond-5 atom-5 atom-6" d="M 526.6,168.4 L 398.9,264.2" style="fill:none;fill-rule:evenodd;stroke:#000000;stroke-width:2.0px;stroke-linecap:butt;stroke-linejoin:miter;stroke-opacity:1"/>
<path class="bond-6 atom-6 atom-7" d="M 398.9,264.2 L 252.2,201.4" style="fill:none;fill-rule:evenodd;stroke:#000000;stroke-width:2.0px;stroke-linecap:butt;stroke-linejoin:miter;stroke-opacity:1"/>
<path class="bond-7 atom-7 atom-8" d="M 252.2,201.4 L 194.3,244.8" style="fill:none;fill-rule:evenodd;stroke:#000000;stroke-width:2.0px;stroke-linecap:butt;stroke-linejoin:miter;stroke-opacity:1"/>
<path class="bond-7 atom-7 atom-8" d="M 194.3,244.8 L 136.5,288.2" style="fill:none;fill-rule:evenodd;stroke:#191919;stroke-width:2.0px;stroke-linecap:butt;stroke-linejoin:miter;stroke-opacity:1"/>
<path class="bond-8 atom-7 atom-9" d="M 264.9,206.9 L 256.2,134.2" style="fill:none;fill-rule:evenodd;stroke:#000000;stroke-width:2.0px;stroke-linecap:butt;stroke-linejoin:miter;stroke-opacity:1"/>
<path class="bond-8 atom-7 atom-9" d="M 256.2,134.2 L 247.4,61.6" style="fill:none;fill-rule:evenodd;stroke:#FF0000;stroke-width:2.0px;stroke-linecap:butt;stroke-linejoin:miter;stroke-opacity:1"/>
<path class="bond-8 atom-7 atom-9" d="M 241.1,209.7 L 232.4,137.1" style="fill:none;fill-rule:evenodd;stroke:#000000;stroke-width:2.0px;stroke-linecap:butt;stroke-linejoin:miter;stroke-opacity:1"/>
<path class="bond-8 atom-7 atom-9" d="M 232.4,137.1 L 223.6,64.4" style="fill:none;fill-rule:evenodd;stroke:#FF0000;stroke-width:2.0px;stroke-linecap:butt;stroke-linejoin:miter;stroke-opacity:1"/>
<path d="M 950.9,195.8 L 947.8,198.1 L 940.5,195.0" style="fill:none;stroke:#000000;stroke-width:2.0px;stroke-linecap:butt;stroke-linejoin:miter;stroke-opacity:1;"/>
<path d="M 808.4,138.5 L 801.1,135.4 L 794.7,140.2" style="fill:none;stroke:#000000;stroke-width:2.0px;stroke-linecap:butt;stroke-linejoin:miter;stroke-opacity:1;"/>
<path d="M 679.8,226.4 L 673.4,231.1 L 666.0,228.0" style="fill:none;stroke:#000000;stroke-width:2.0px;stroke-linecap:butt;stroke-linejoin:miter;stroke-opacity:1;"/>
<path d="M 534.0,171.6 L 526.6,168.4 L 520.2,173.2" style="fill:none;stroke:#000000;stroke-width:2.0px;stroke-linecap:butt;stroke-linejoin:miter;stroke-opacity:1;"/>
<path d="M 405.3,259.4 L 398.9,264.2 L 391.6,261.0" style="fill:none;stroke:#000000;stroke-width:2.0px;stroke-linecap:butt;stroke-linejoin:miter;stroke-opacity:1;"/>
<path d="M 259.5,204.6 L 252.2,201.4 L 249.3,203.6" style="fill:none;stroke:#000000;stroke-width:2.0px;stroke-linecap:butt;stroke-linejoin:miter;stroke-opacity:1;"/>
<path class="atom-0" d="M 1070.2 99.2 L 1074.3 95.0 L 1068.8 93.9 L 1069.6 91.0 L 1074.7 93.6 L 1074.0 88.0 L 1077.0 88.0 L 1076.2 93.6 L 1081.3 91.2 L 1082.2 93.9 L 1076.6 94.9 L 1080.6 99.2 L 1078.2 101.0 L 1075.4 95.7 L 1072.6 101.0 L 1070.2 99.2 " fill="#191919"/>
<path class="atom-2" d="M 953.9 356.7 Q 953.9 349.9, 957.2 346.1 Q 960.6 342.3, 966.9 342.3 Q 973.2 342.3, 976.5 346.1 Q 979.9 349.9, 979.9 356.7 Q 979.9 363.5, 976.5 367.5 Q 973.1 371.3, 966.9 371.3 Q 960.6 371.3, 957.2 367.5 Q 953.9 363.6, 953.9 356.7 M 966.9 368.1 Q 971.2 368.1, 973.5 365.3 Q 975.9 362.3, 975.9 356.7 Q 975.9 351.1, 973.5 348.3 Q 971.2 345.5, 966.9 345.5 Q 962.6 345.5, 960.2 348.3 Q 957.9 351.1, 957.9 356.7 Q 957.9 362.4, 960.2 365.3 Q 962.6 368.1, 966.9 368.1 " fill="#FF0000"/>
<path class="atom-8" d="M 119.2 294.0 L 123.3 289.8 L 117.8 288.6 L 118.6 285.8 L 123.7 288.4 L 123.0 282.8 L 126.0 282.8 L 125.2 288.3 L 130.3 285.9 L 131.2 288.6 L 125.6 289.7 L 129.6 294.0 L 127.2 295.7 L 124.4 290.4 L 121.6 295.7 L 119.2 294.0 " fill="#191919"/>
<path class="atom-9" d="M 220.1 43.1 Q 220.1 36.3, 223.5 32.5 Q 226.8 28.7, 233.1 28.7 Q 239.4 28.7, 242.8 32.5 Q 246.1 36.3, 246.1 43.1 Q 246.1 49.9, 242.7 53.9 Q 239.3 57.7, 233.1 57.7 Q 226.9 57.7, 223.5 53.9 Q 220.1 50.0, 220.1 43.1 M 233.1 54.5 Q 237.4 54.5, 239.8 51.7 Q 242.1 48.7, 242.1 43.1 Q 242.1 37.5, 239.8 34.7 Q 237.4 31.9, 233.1 31.9 Q 228.8 31.9, 226.4 34.7 Q 224.1 37.5, 224.1 43.1 Q 224.1 48.8, 226.4 51.7 Q 228.8 54.5, 233.1 54.5 " fill="#FF0000"/>
<path class="bond-0 atom-0 atom-1" d="M 264.2,527.8 L 330.8,497.3" style="fill:none;fill-rule:evenodd;stroke:#191919;stroke-width:2.0px;stroke-linecap:butt;stroke-linejoin:miter;stroke-opacity:1"/>
<path class="bond-0 atom-0 atom-1" d="M 330.8,497.3 L 397.4,466.9" style="fill:none;fill-rule:evenodd;stroke:#000000;stroke-width:2.0px;stroke-linecap:butt;stroke-linejoin:miter;stroke-opacity:1"/>
<path class="bond-1 atom-1 atom-2" d="M 397.4,466.9 L 527.4,559.5" style="fill:none;fill-rule:evenodd;stroke:#000000;stroke-width:2.0px;stroke-linecap:butt;stroke-linejoin:miter;stroke-opacity:1"/>
<path class="bond-2 atom-2 atom-3" d="M 527.4,559.5 L 520.8,629.1" style="fill:none;fill-rule:evenodd;stroke:#000000;stroke-width:2.0px;stroke-linecap:butt;stroke-linejoin:miter;stroke-opacity:1"/>
<path class="bond-2 atom-2 atom-3" d="M 520.8,629.1 L 514.1,698.7" style="fill:none;fill-rule:evenodd;stroke:#FF0000;stroke-width:2.0px;stroke-linecap:butt;stroke-linejoin:miter;stroke-opacity:1"/>
<path class="bond-3 atom-2 atom-4" d="M 527.4,559.5 L 672.6,493.1" style="fill:none;fill-rule:evenodd;stroke:#000000;stroke-width:2.0px;stroke-linecap:butt;stroke-linejoin:miter;stroke-opacity:1"/>
<path class="bond-4 atom-4 atom-5" d="M 672.6,493.1 L 728.5,532.9" style="fill:none;fill-rule:evenodd;stroke:#000000;stroke-width:2.0px;stroke-linecap:butt;stroke-linejoin:miter;stroke-opacity:1"/>
<path class="bond-4 atom-4 atom-5" d="M 728.5,532.9 L 784.3,572.7" style="fill:none;fill-rule:evenodd;stroke:#FF0000;stroke-width:2.0px;stroke-linecap:butt;stroke-linejoin:miter;stroke-opacity:1"/>
<path class="bond-5 atom-5 atom-6" d="M 820.9,577.4 L 880.1,550.3" style="fill:none;fill-rule:evenodd;stroke:#FF0000;stroke-width:2.0px;stroke-linecap:butt;stroke-linejoin:miter;stroke-opacity:1"/>
<path class="bond-5 atom-5 atom-6" d="M 880.1,550.3 L 939.4,523.2" style="fill:none;fill-rule:evenodd;stroke:#191919;stroke-width:2.0px;stroke-linecap:butt;stroke-linejoin:miter;stroke-opacity:1"/>
<path d="M 394.1,468.4 L 397.4,466.9 L 403.9,471.5" style="fill:none;stroke:#000000;stroke-width:2.0px;stroke-linecap:butt;stroke-linejoin:miter;stroke-opacity:1;"/>
<path d="M 665.3,496.5 L 672.6,493.1 L 675.4,495.1" style="fill:none;stroke:#000000;stroke-width:2.0px;stroke-linecap:butt;stroke-linejoin:miter;stroke-opacity:1;"/>
<path class="atom-0" d="M 246.9 530.1 L 251.1 525.8 L 245.5 524.7 L 246.4 521.9 L 251.5 524.4 L 250.7 518.9 L 253.7 518.8 L 252.9 524.4 L 258.1 522.0 L 258.9 524.7 L 253.3 525.7 L 257.3 530.0 L 254.9 531.8 L 252.1 526.5 L 249.3 531.8 L 246.9 530.1 " fill="#191919"/>
<path class="atom-3" d="M 499.3 718.4 Q 499.3 711.6, 502.6 707.8 Q 506.0 704.0, 512.3 704.0 Q 518.6 704.0, 521.9 707.8 Q 525.3 711.6, 525.3 718.4 Q 525.3 725.3, 521.9 729.2 Q 518.5 733.1, 512.3 733.1 Q 506.0 733.1, 502.6 729.2 Q 499.3 725.3, 499.3 718.4 M 512.3 729.9 Q 516.6 729.9, 518.9 727.0 Q 521.3 724.1, 521.3 718.4 Q 521.3 712.9, 518.9 710.1 Q 516.6 707.2, 512.3 707.2 Q 508.0 707.2, 505.6 710.0 Q 503.3 712.8, 503.3 718.4 Q 503.3 724.1, 505.6 727.0 Q 508.0 729.9, 512.3 729.9 " fill="#FF0000"/>
<path class="atom-3" d="M 529.7 704.3 L 533.5 704.3 L 533.5 716.4 L 548.0 716.4 L 548.0 704.3 L 551.8 704.3 L 551.8 732.7 L 548.0 732.7 L 548.0 719.6 L 533.5 719.6 L 533.5 732.7 L 529.7 732.7 L 529.7 704.3 " fill="#FF0000"/>
<path class="atom-5" d="M 789.6 585.8 Q 789.6 579.0, 793.0 575.2 Q 796.3 571.4, 802.6 571.4 Q 808.9 571.4, 812.2 575.2 Q 815.6 579.0, 815.6 585.8 Q 815.6 592.7, 812.2 596.6 Q 808.8 600.5, 802.6 600.5 Q 796.4 600.5, 793.0 596.6 Q 789.6 592.7, 789.6 585.8 M 802.6 597.3 Q 806.9 597.3, 809.2 594.4 Q 811.6 591.5, 811.6 585.8 Q 811.6 580.2, 809.2 577.4 Q 806.9 574.6, 802.6 574.6 Q 798.3 574.6, 795.9 577.4 Q 793.6 580.2, 793.6 585.8 Q 793.6 591.5, 795.9 594.4 Q 798.3 597.3, 802.6 597.3 " fill="#FF0000"/>
<path class="atom-6" d="M 942.4 516.2 L 946.6 512.0 L 941.1 510.9 L 941.9 508.0 L 947.0 510.6 L 946.3 505.0 L 949.3 505.0 L 948.4 510.5 L 953.6 508.1 L 954.5 510.9 L 948.9 511.9 L 952.9 516.2 L 950.4 517.9 L 947.7 512.7 L 944.9 517.9 L 942.4 516.2 " fill="#191919"/>
</svg>