<svg xmlns="http://www.w3.org/2000/svg" xmlns:rdkit="http://www.rdkit.org/xml" xmlns:xlink="http://www.w3.org/1999/xlink" version="1.1" baseProfile="full" xml:space="preserve" width="1200px" height="1200px" viewBox="0 0 1200 1200">
<!-- END OF HEADER -->
<rect style="opacity:1.0;fill:#FFFFFF;stroke:none" width="1200.0" height="1200.0" x="0.0" y="0.0"> </rect>
<path class="bond-0 atom-0 atom-1" d="M 889.7,342.1 L 876.1,278.0" style="fill:none;fill-rule:evenodd;stroke:#191919;stroke-width:2.0px;stroke-linecap:butt;stroke-linejoin:miter;stroke-opacity:1"/>
<path class="bond-0 atom-0 atom-1" d="M 876.1,278.0 L 862.4,213.9" style="fill:none;fill-rule:evenodd;stroke:#000000;stroke-width:2.0px;stroke-linecap:butt;stroke-linejoin:miter;stroke-opacity:1"/>
<path class="bond-1 atom-1 atom-2" d="M 865.1,226.7 L 914.7,182.1" style="fill:none;fill-rule:evenodd;stroke:#000000;stroke-width:2.0px;stroke-linecap:butt;stroke-linejoin:miter;stroke-opacity:1"/>
<path class="bond-1 atom-1 atom-2" d="M 914.7,182.1 L 964.2,137.5" style="fill:none;fill-rule:evenodd;stroke:#FF0000;stroke-width:2.0px;stroke-linecap:butt;stroke-linejoin:miter;stroke-opacity:1"/>
<path class="bond-1 atom-1 atom-2" d="M 850.0,209.9 L 899.5,165.3" style="fill:none;fill-rule:evenodd;stroke:#000000;stroke-width:2.0px;stroke-linecap:butt;stroke-linejoin:miter;stroke-opacity:1"/>
<path class="bond-1 atom-1 atom-2" d="M 899.5,165.3 L 949.0,120.7" style="fill:none;fill-rule:evenodd;stroke:#FF0000;stroke-width:2.0px;stroke-linecap:butt;stroke-linejoin:miter;stroke-opacity:1"/>
<path class="bond-2 atom-1 atom-3" d="M 862.4,213.9 L 718.9,167.3" style="fill:none;fill-rule:evenodd;stroke:#000000;stroke-width:2.0px;stroke-linecap:butt;stroke-linejoin:miter;stroke-opacity:1"/>
<path class="bond-3 atom-3 atom-4" d="M 718.9,167.3 L 672.3,23.8" style="fill:none;fill-rule:evenodd;stroke:#000000;stroke-width:2.0px;stroke-linecap:butt;stroke-linejoin:miter;stroke-opacity:1"/>
<path class="bond-3 atom-3 atom-4" d="M 692.3,158.6 L 655.9,46.4" style="fill:none;fill-rule:evenodd;stroke:#000000;stroke-width:2.0px;stroke-linecap:butt;stroke-linejoin:miter;stroke-opacity:1"/>
<path class="bond-4 atom-4 atom-5" d="M 672.3,23.8 L 521.4,23.8" style="fill:none;fill-rule:evenodd;stroke:#000000;stroke-width:2.0px;stroke-linecap:butt;stroke-linejoin:miter;stroke-opacity:1"/>
<path class="bond-5 atom-5 atom-6" d="M 521.4,23.8 L 474.8,167.3" style="fill:none;fill-rule:evenodd;stroke:#000000;stroke-width:2.0px;stroke-linecap:butt;stroke-linejoin:miter;stroke-opacity:1"/>
<path class="bond-5 atom-5 atom-6" d="M 537.8,46.4 L 501.4,158.6" style="fill:none;fill-rule:evenodd;stroke:#000000;stroke-width:2.0px;stroke-linecap:butt;stroke-linejoin:miter;stroke-opacity:1"/>
<path class="bond-6 atom-6 atom-7" d="M 474.8,167.3 L 331.3,213.9" style="fill:none;fill-rule:evenodd;stroke:#000000;stroke-width:2.0px;stroke-linecap:butt;stroke-linejoin:miter;stroke-opacity:1"/>
<path class="bond-7 atom-7 atom-8" d="M 331.3,213.9 L 277.2,165.2" style="fill:none;fill-rule:evenodd;stroke:#000000;stroke-width:2.0px;stroke-linecap:butt;stroke-linejoin:miter;stroke-opacity:1"/>
<path class="bond-7 atom-7 atom-8" d="M 277.2,165.2 L 223.1,116.5" style="fill:none;fill-rule:evenodd;stroke:#191919;stroke-width:2.0px;stroke-linecap:butt;stroke-linejoin:miter;stroke-opacity:1"/>
<path class="bond-8 atom-7 atom-9" d="M 321.6,205.1 L 307.2,272.5" style="fill:none;fill-rule:evenodd;stroke:#000000;stroke-width:2.0px;stroke-linecap:butt;stroke-linejoin:miter;stroke-opacity:1"/>
<path class="bond-8 atom-7 atom-9" d="M 307.2,272.5 L 292.9,339.8" style="fill:none;fill-rule:evenodd;stroke:#FF0000;stroke-width:2.0px;stroke-linecap:butt;stroke-linejoin:miter;stroke-opacity:1"/>
<path class="bond-8 atom-7 atom-9" d="M 343.7,209.9 L 329.4,277.2" style="fill:none;fill-rule:evenodd;stroke:#000000;stroke-width:2.0px;stroke-linecap:butt;stroke-linejoin:miter;stroke-opacity:1"/>
<path class="bond-8 atom-7 atom-9" d="M 329.4,277.2 L 315.1,344.5" style="fill:none;fill-rule:evenodd;stroke:#FF0000;stroke-width:2.0px;stroke-linecap:butt;stroke-linejoin:miter;stroke-opacity:1"/>
<path class="bond-9 atom-6 atom-10" d="M 474.8,167.3 L 526.8,205.1" style="fill:none;fill-rule:evenodd;stroke:#000000;stroke-width:2.0px;stroke-linecap:butt;stroke-linejoin:miter;stroke-opacity:1"/>
<path class="bond-9 atom-6 atom-10" d="M 526.8,205.1 L 578.9,242.9" style="fill:none;fill-rule:evenodd;stroke:#FF0000;stroke-width:2.0px;stroke-linecap:butt;stroke-linejoin:miter;stroke-opacity:1"/>
<path class="bond-10 atom-10 atom-3" d="M 614.8,242.9 L 666.9,205.1" style="fill:none;fill-rule:evenodd;stroke:#FF0000;stroke-width:2.0px;stroke-linecap:butt;stroke-linejoin:miter;stroke-opacity:1"/>
<path class="bond-10 atom-10 atom-3" d="M 666.9,205.1 L 718.9,167.3" style="fill:none;fill-rule:evenodd;stroke:#000000;stroke-width:2.0px;stroke-linecap:butt;stroke-linejoin:miter;stroke-opacity:1"/>
<path d="M 863.1,217.1 L 862.4,213.9 L 855.3,211.6" style="fill:none;stroke:#000000;stroke-width:2.0px;stroke-linecap:butt;stroke-linejoin:miter;stroke-opacity:1;"/>
<path d="M 674.6,30.9 L 672.3,23.8 L 664.8,23.8" style="fill:none;stroke:#000000;stroke-width:2.0px;stroke-linecap:butt;stroke-linejoin:miter;stroke-opacity:1;"/>
<path d="M 528.9,23.8 L 521.4,23.8 L 519.1,30.9" style="fill:none;stroke:#000000;stroke-width:2.0px;stroke-linecap:butt;stroke-linejoin:miter;stroke-opacity:1;"/>
<path d="M 338.4,211.6 L 331.3,213.9 L 328.6,211.5" style="fill:none;stroke:#000000;stroke-width:2.0px;stroke-linecap:butt;stroke-linejoin:miter;stroke-opacity:1;"/>
<path class="atom-0" d="M 888.5 358.3 L 892.6 354.1 L 887.1 353.0 L 887.9 350.1 L 893.0 352.7 L 892.3 347.1 L 895.3 347.1 L 894.5 352.6 L 899.6 350.2 L 900.5 353.0 L 894.9 354.0 L 898.9 358.3 L 896.5 360.0 L 893.7 354.8 L 890.9 360.0 L 888.5 358.3 " fill="#191919"/>
<path class="atom-2" d="M 961.6 113.0 Q 961.6 106.2, 964.9 102.4 Q 968.3 98.6, 974.6 98.6 Q 980.8 98.6, 984.2 102.4 Q 987.6 106.2, 987.6 113.0 Q 987.6 119.9, 984.2 123.8 Q 980.8 127.7, 974.6 127.7 Q 968.3 127.7, 964.9 123.8 Q 961.6 119.9, 961.6 113.0 M 974.6 124.5 Q 978.9 124.5, 981.2 121.6 Q 983.6 118.7, 983.6 113.0 Q 983.6 107.4, 981.2 104.6 Q 978.9 101.8, 974.6 101.8 Q 970.2 101.8, 967.9 104.6 Q 965.6 107.4, 965.6 113.0 Q 965.6 118.7, 967.9 121.6 Q 970.2 124.5, 974.6 124.5 " fill="#FF0000"/>
<path class="atom-8" d="M 213.8 109.8 L 218.0 105.5 L 212.4 104.4 L 213.3 101.6 L 218.4 104.1 L 217.6 98.6 L 220.6 98.5 L 219.8 104.1 L 225.0 101.7 L 225.8 104.4 L 220.2 105.4 L 224.2 109.7 L 221.8 111.5 L 219.0 106.2 L 216.2 111.5 L 213.8 109.8 " fill="#191919"/>
<path class="atom-9" d="M 286.9 361.6 Q 286.9 354.8, 290.3 351.0 Q 293.6 347.2, 299.9 347.2 Q 306.2 347.2, 309.5 351.0 Q 312.9 354.8, 312.9 361.6 Q 312.9 368.4, 309.5 372.4 Q 306.1 376.2, 299.9 376.2 Q 293.7 376.2, 290.3 372.4 Q 286.9 368.5, 286.9 361.6 M 299.9 373.0 Q 304.2 373.0, 306.5 370.2 Q 308.9 367.2, 308.9 361.6 Q 308.9 356.0, 306.5 353.2 Q 304.2 350.4, 299.9 350.4 Q 295.6 350.4, 293.2 353.2 Q 290.9 356.0, 290.9 361.6 Q 290.9 367.3, 293.2 370.2 Q 295.6 373.0, 299.9 373.0 " fill="#FF0000"/>
<path class="atom-10" d="M 583.8 256.0 Q 583.8 249.2, 587.2 245.4 Q 590.6 241.6, 596.8 241.6 Q 603.1 241.6, 606.5 245.4 Q 609.8 249.2, 609.8 256.0 Q 609.8 262.9, 606.4 266.8 Q 603.0 270.7, 596.8 270.7 Q 590.6 270.7, 587.2 266.8 Q 583.8 263.0, 583.8 256.0 M 596.8 267.5 Q 601.2 267.5, 603.5 264.6 Q 605.8 261.7, 605.8 256.0 Q 605.8 250.5, 603.5 247.7 Q 601.2 244.8, 596.8 244.8 Q 592.5 244.8, 590.2 247.6 Q 587.8 250.4, 587.8 256.0 Q 587.8 261.8, 590.2 264.6 Q 592.5 267.5, 596.8 267.5 " fill="#FF0000"/>
<path class="bond-0 atom-0 atom-1" d="M 1044.9,511.2 L 986.9,554.7" style="fill:none;fill-rule:evenodd;stroke:#191919;stroke-width:2.0px;stroke-linecap:butt;stroke-linejoin:miter;stroke-opacity:1"/>
<path class="bond-0 atom-0 atom-1" d="M 986.9,554.7 L 928.9,598.2" style="fill:none;fill-rule:evenodd;stroke:#000000;stroke-width:2.0px;stroke-linecap:butt;stroke-linejoin:miter;stroke-opacity:1"/>
<path class="bond-1 atom-1 atom-2" d="M 916.8,593.1 L 925.1,661.6" style="fill:none;fill-rule:evenodd;stroke:#000000;stroke-width:2.0px;stroke-linecap:butt;stroke-linejoin:miter;stroke-opacity:1"/>
<path class="bond-1 atom-1 atom-2" d="M 925.1,661.6 L 933.3,730.1" style="fill:none;fill-rule:evenodd;stroke:#FF0000;stroke-width:2.0px;stroke-linecap:butt;stroke-linejoin:miter;stroke-opacity:1"/>
<path class="bond-1 atom-1 atom-2" d="M 939.3,590.4 L 947.6,658.9" style="fill:none;fill-rule:evenodd;stroke:#000000;stroke-width:2.0px;stroke-linecap:butt;stroke-linejoin:miter;stroke-opacity:1"/>
<path class="bond-1 atom-1 atom-2" d="M 947.6,658.9 L 955.8,727.4" style="fill:none;fill-rule:evenodd;stroke:#FF0000;stroke-width:2.0px;stroke-linecap:butt;stroke-linejoin:miter;stroke-opacity:1"/>
<path class="bond-2 atom-1 atom-3" d="M 928.9,598.2 L 790.1,538.9" style="fill:none;fill-rule:evenodd;stroke:#000000;stroke-width:2.0px;stroke-linecap:butt;stroke-linejoin:miter;stroke-opacity:1"/>
<path class="bond-3 atom-3 atom-4" d="M 790.1,538.9 L 669.4,629.4" style="fill:none;fill-rule:evenodd;stroke:#000000;stroke-width:2.0px;stroke-linecap:butt;stroke-linejoin:miter;stroke-opacity:1"/>
<path class="bond-4 atom-4 atom-5" d="M 669.4,629.4 L 530.6,570.1" style="fill:none;fill-rule:evenodd;stroke:#000000;stroke-width:2.0px;stroke-linecap:butt;stroke-linejoin:miter;stroke-opacity:1"/>
<path class="bond-5 atom-5 atom-6" d="M 530.6,570.1 L 409.9,660.6" style="fill:none;fill-rule:evenodd;stroke:#000000;stroke-width:2.0px;stroke-linecap:butt;stroke-linejoin:miter;stroke-opacity:1"/>
<path class="bond-6 atom-6 atom-7" d="M 409.9,660.6 L 271.1,601.3" style="fill:none;fill-rule:evenodd;stroke:#000000;stroke-width:2.0px;stroke-linecap:butt;stroke-linejoin:miter;stroke-opacity:1"/>
<path class="bond-7 atom-7 atom-8" d="M 271.1,601.3 L 216.6,642.2" style="fill:none;fill-rule:evenodd;stroke:#000000;stroke-width:2.0px;stroke-linecap:butt;stroke-linejoin:miter;stroke-opacity:1"/>
<path class="bond-7 atom-7 atom-8" d="M 216.6,642.2 L 162.1,683.1" style="fill:none;fill-rule:evenodd;stroke:#191919;stroke-width:2.0px;stroke-linecap:butt;stroke-linejoin:miter;stroke-opacity:1"/>
<path class="bond-8 atom-7 atom-9" d="M 283.2,606.5 L 274.9,538.2" style="fill:none;fill-rule:evenodd;stroke:#000000;stroke-width:2.0px;stroke-linecap:butt;stroke-linejoin:miter;stroke-opacity:1"/>
<path class="bond-8 atom-7 atom-9" d="M 274.9,538.2 L 266.7,469.9" style="fill:none;fill-rule:evenodd;stroke:#FF0000;stroke-width:2.0px;stroke-linecap:butt;stroke-linejoin:miter;stroke-opacity:1"/>
<path class="bond-8 atom-7 atom-9" d="M 260.7,609.2 L 252.5,540.9" style="fill:none;fill-rule:evenodd;stroke:#000000;stroke-width:2.0px;stroke-linecap:butt;stroke-linejoin:miter;stroke-opacity:1"/>
<path class="bond-8 atom-7 atom-9" d="M 252.5,540.9 L 244.3,472.6" style="fill:none;fill-rule:evenodd;stroke:#FF0000;stroke-width:2.0px;stroke-linecap:butt;stroke-linejoin:miter;stroke-opacity:1"/>
<path d="M 931.8,596.0 L 928.9,598.2 L 921.9,595.3" style="fill:none;stroke:#000000;stroke-width:2.0px;stroke-linecap:butt;stroke-linejoin:miter;stroke-opacity:1;"/>
<path d="M 797.0,541.9 L 790.1,538.9 L 784.1,543.4" style="fill:none;stroke:#000000;stroke-width:2.0px;stroke-linecap:butt;stroke-linejoin:miter;stroke-opacity:1;"/>
<path d="M 675.4,624.9 L 669.4,629.4 L 662.4,626.5" style="fill:none;stroke:#000000;stroke-width:2.0px;stroke-linecap:butt;stroke-linejoin:miter;stroke-opacity:1;"/>
<path d="M 537.6,573.1 L 530.6,570.1 L 524.6,574.7" style="fill:none;stroke:#000000;stroke-width:2.0px;stroke-linecap:butt;stroke-linejoin:miter;stroke-opacity:1;"/>
<path d="M 415.9,656.1 L 409.9,660.6 L 403.0,657.7" style="fill:none;stroke:#000000;stroke-width:2.0px;stroke-linecap:butt;stroke-linejoin:miter;stroke-opacity:1;"/>
<path d="M 278.1,604.3 L 271.1,601.3 L 268.4,603.4" style="fill:none;stroke:#000000;stroke-width:2.0px;stroke-linecap:butt;stroke-linejoin:miter;stroke-opacity:1;"/>
<path class="atom-0" d="M 1044.2 504.5 L 1048.4 500.3 L 1042.9 499.2 L 1043.7 496.3 L 1048.8 498.9 L 1048.1 493.3 L 1051.1 493.3 L 1050.2 498.9 L 1055.4 496.5 L 1056.3 499.2 L 1050.7 500.2 L 1054.7 504.5 L 1052.2 506.3 L 1049.5 501.0 L 1046.7 506.3 L 1044.2 504.5 " fill="#191919"/>
<path class="atom-2" d="M 933.9 748.1 Q 933.9 741.3, 937.2 737.5 Q 940.6 733.7, 946.9 733.7 Q 953.2 733.7, 956.5 737.5 Q 959.9 741.3, 959.9 748.1 Q 959.9 755.0, 956.5 758.9 Q 953.1 762.8, 946.9 762.8 Q 940.6 762.8, 937.2 758.9 Q 933.9 755.0, 933.9 748.1 M 946.9 759.6 Q 951.2 759.6, 953.5 756.7 Q 955.9 753.8, 955.9 748.1 Q 955.9 742.5, 953.5 739.7 Q 951.2 736.9, 946.9 736.9 Q 942.6 736.9, 940.2 739.7 Q 937.9 742.5, 937.9 748.1 Q 937.9 753.8, 940.2 756.7 Q 942.6 759.6, 946.9 759.6 " fill="#FF0000"/>
<path class="atom-8" d="M 145.1 688.7 L 149.2 684.5 L 143.7 683.3 L 144.6 680.5 L 149.6 683.1 L 148.9 677.5 L 151.9 677.5 L 151.1 683.0 L 156.2 680.6 L 157.1 683.3 L 151.5 684.4 L 155.5 688.7 L 153.1 690.4 L 150.3 685.1 L 147.5 690.4 L 145.1 688.7 " fill="#191919"/>
<path class="atom-9" d="M 240.1 451.6 Q 240.1 444.8, 243.5 441.0 Q 246.8 437.2, 253.1 437.2 Q 259.4 437.2, 262.8 441.0 Q 266.1 444.8, 266.1 451.6 Q 266.1 458.5, 262.7 462.4 Q 259.3 466.3, 253.1 466.3 Q 246.9 466.3, 243.5 462.4 Q 240.1 458.5, 240.1 451.6 M 253.1 463.1 Q 257.4 463.1, 259.8 460.2 Q 262.1 457.3, 262.1 451.6 Q 262.1 446.1, 259.8 443.3 Q 257.4 440.4, 253.1 440.4 Q 248.8 440.4, 246.4 443.2 Q 244.1 446.0, 244.1 451.6 Q 244.1 457.3, 246.4 460.2 Q 248.8 463.1, 253.1 463.1 " fill="#FF0000"/>
<path class="bond-0 atom-0 atom-1" d="M 219.7,1038.1 L 279.2,1003.8" style="fill:none;fill-rule:evenodd;stroke:#191919;stroke-width:2.0px;stroke-linecap:butt;stroke-linejoin:miter;stroke-opacity:1"/>
<path class="bond-0 atom-0 atom-1" d="M 279.2,1003.8 L 338.6,969.4" style="fill:none;fill-rule:evenodd;stroke:#000000;stroke-width:2.0px;stroke-linecap:butt;stroke-linejoin:miter;stroke-opacity:1"/>
<path class="bond-1 atom-1 atom-2" d="M 338.6,969.4 L 469.3,1044.9" style="fill:none;fill-rule:evenodd;stroke:#000000;stroke-width:2.0px;stroke-linecap:butt;stroke-linejoin:miter;stroke-opacity:1"/>
<path class="bond-2 atom-2 atom-3" d="M 469.3,1044.9 L 600.0,969.4" style="fill:none;fill-rule:evenodd;stroke:#000000;stroke-width:2.0px;stroke-linecap:butt;stroke-linejoin:miter;stroke-opacity:1"/>
<path class="bond-3 atom-3 atom-4" d="M 600.0,969.4 L 730.7,1044.9" style="fill:none;fill-rule:evenodd;stroke:#000000;stroke-width:2.0px;stroke-linecap:butt;stroke-linejoin:miter;stroke-opacity:1"/>
<path class="bond-4 atom-4 atom-5" d="M 730.7,1044.9 L 787.0,1012.4" style="fill:none;fill-rule:evenodd;stroke:#000000;stroke-width:2.0px;stroke-linecap:butt;stroke-linejoin:miter;stroke-opacity:1"/>
<path class="bond-4 atom-4 atom-5" d="M 787.0,1012.4 L 843.4,979.8" style="fill:none;fill-rule:evenodd;stroke:#FF0000;stroke-width:2.0px;stroke-linecap:butt;stroke-linejoin:miter;stroke-opacity:1"/>
<path class="bond-5 atom-5 atom-6" d="M 879.3,979.8 L 929.8,1009.0" style="fill:none;fill-rule:evenodd;stroke:#FF0000;stroke-width:2.0px;stroke-linecap:butt;stroke-linejoin:miter;stroke-opacity:1"/>
<path class="bond-5 atom-5 atom-6" d="M 929.8,1009.0 L 980.3,1038.1" style="fill:none;fill-rule:evenodd;stroke:#191919;stroke-width:2.0px;stroke-linecap:butt;stroke-linejoin:miter;stroke-opacity:1"/>
<path d="M 335.7,971.2 L 338.6,969.4 L 345.2,973.2" style="fill:none;stroke:#000000;stroke-width:2.0px;stroke-linecap:butt;stroke-linejoin:miter;stroke-opacity:1;"/>
<path d="M 462.8,1041.1 L 469.3,1044.9 L 475.9,1041.1" style="fill:none;stroke:#000000;stroke-width:2.0px;stroke-linecap:butt;stroke-linejoin:miter;stroke-opacity:1;"/>
<path d="M 593.5,973.2 L 600.0,969.4 L 606.5,973.2" style="fill:none;stroke:#000000;stroke-width:2.0px;stroke-linecap:butt;stroke-linejoin:miter;stroke-opacity:1;"/>
<path d="M 724.1,1041.1 L 730.7,1044.9 L 733.5,1043.3" style="fill:none;stroke:#000000;stroke-width:2.0px;stroke-linecap:butt;stroke-linejoin:miter;stroke-opacity:1;"/>
<path class="atom-0" d="M 202.6 1041.7 L 206.8 1037.5 L 201.3 1036.4 L 202.1 1033.5 L 207.2 1036.1 L 206.5 1030.5 L 209.5 1030.5 L 208.6 1036.0 L 213.8 1033.6 L 214.7 1036.4 L 209.1 1037.4 L 213.1 1041.7 L 210.6 1043.4 L 207.9 1038.2 L 205.1 1043.4 L 202.6 1041.7 " fill="#191919"/>
<path class="atom-5" d="M 848.4 969.5 Q 848.4 962.7, 851.7 958.9 Q 855.1 955.1, 861.4 955.1 Q 867.6 955.1, 871.0 958.9 Q 874.4 962.7, 874.4 969.5 Q 874.4 976.4, 871.0 980.3 Q 867.6 984.2, 861.4 984.2 Q 855.1 984.2, 851.7 980.3 Q 848.4 976.4, 848.4 969.5 M 861.4 981.0 Q 865.7 981.0, 868.0 978.1 Q 870.4 975.2, 870.4 969.5 Q 870.4 964.0, 868.0 961.2 Q 865.7 958.3, 861.4 958.3 Q 857.0 958.3, 854.7 961.1 Q 852.4 963.9, 852.4 969.5 Q 852.4 975.2, 854.7 978.1 Q 857.0 981.0, 861.4 981.0 " fill="#FF0000"/>
<path class="atom-6" d="M 986.7 1041.7 L 990.8 1037.5 L 985.3 1036.4 L 986.2 1033.5 L 991.2 1036.1 L 990.5 1030.5 L 993.5 1030.5 L 992.7 1036.0 L 997.8 1033.6 L 998.7 1036.4 L 993.1 1037.4 L 997.1 1041.7 L 994.7 1043.4 L 991.9 1038.2 L 989.1 1043.4 L 986.7 1041.7 " fill="#191919"/>
</svg>