<svg xmlns="http://www.w3.org/2000/svg" xmlns:rdkit="http://www.rdkit.org/xml" xmlns:xlink="http://www.w3.org/1999/xlink" version="1.1" baseProfile="full" xml:space="preserve" width="1200px" height="1200px" viewBox="0 0 1200 1200">
<!-- END OF HEADER -->
<rect style="opacity:1.0;fill:#FFFFFF;stroke:none" width="1200.0" height="1200.0" x="0.0" y="0.0"> </rect>
<path class="bond-0 atom-0 atom-1" d="M 987.6,318.4 L 953.4,259.1" style="fill:none;fill-rule:evenodd;stroke:#191919;stroke-width:2.0px;stroke-linecap:butt;stroke-linejoin:miter;stroke-opacity:1"/>
<path class="bond-0 atom-0 atom-1" d="M 953.4,259.1 L 919.2,199.8" style="fill:none;fill-rule:evenodd;stroke:#000000;stroke-width:2.0px;stroke-linecap:butt;stroke-linejoin:miter;stroke-opacity:1"/>
<path class="bond-1 atom-1 atom-2" d="M 926.1,211.8 L 961.9,149.7" style="fill:none;fill-rule:evenodd;stroke:#000000;stroke-width:2.0px;stroke-linecap:butt;stroke-linejoin:miter;stroke-opacity:1"/>
<path class="bond-1 atom-1 atom-2" d="M 961.9,149.7 L 997.8,87.6" style="fill:none;fill-rule:evenodd;stroke:#FF0000;stroke-width:2.0px;stroke-linecap:butt;stroke-linejoin:miter;stroke-opacity:1"/>
<path class="bond-1 atom-1 atom-2" d="M 905.4,199.8 L 941.2,137.7" style="fill:none;fill-rule:evenodd;stroke:#000000;stroke-width:2.0px;stroke-linecap:butt;stroke-linejoin:miter;stroke-opacity:1"/>
<path class="bond-1 atom-1 atom-2" d="M 941.2,137.7 L 977.1,75.7" style="fill:none;fill-rule:evenodd;stroke:#FF0000;stroke-width:2.0px;stroke-linecap:butt;stroke-linejoin:miter;stroke-opacity:1"/>
<path class="bond-2 atom-1 atom-3" d="M 919.2,199.8 L 759.6,199.8" style="fill:none;fill-rule:evenodd;stroke:#000000;stroke-width:2.0px;stroke-linecap:butt;stroke-linejoin:miter;stroke-opacity:1"/>
<path class="bond-3 atom-3 atom-4" d="M 759.6,199.8 L 679.8,338.0" style="fill:none;fill-rule:evenodd;stroke:#000000;stroke-width:2.0px;stroke-linecap:butt;stroke-linejoin:miter;stroke-opacity:1"/>
<path class="bond-3 atom-3 atom-4" d="M 731.9,199.8 L 666.0,314.1" style="fill:none;fill-rule:evenodd;stroke:#000000;stroke-width:2.0px;stroke-linecap:butt;stroke-linejoin:miter;stroke-opacity:1"/>
<path class="bond-4 atom-4 atom-5" d="M 679.8,338.0 L 520.2,338.0" style="fill:none;fill-rule:evenodd;stroke:#000000;stroke-width:2.0px;stroke-linecap:butt;stroke-linejoin:miter;stroke-opacity:1"/>
<path class="bond-5 atom-5 atom-6" d="M 520.2,338.0 L 440.4,199.8" style="fill:none;fill-rule:evenodd;stroke:#000000;stroke-width:2.0px;stroke-linecap:butt;stroke-linejoin:miter;stroke-opacity:1"/>
<path class="bond-5 atom-5 atom-6" d="M 534.0,314.1 L 468.1,199.8" style="fill:none;fill-rule:evenodd;stroke:#000000;stroke-width:2.0px;stroke-linecap:butt;stroke-linejoin:miter;stroke-opacity:1"/>
<path class="bond-6 atom-6 atom-7" d="M 440.4,199.8 L 280.8,199.8" style="fill:none;fill-rule:evenodd;stroke:#000000;stroke-width:2.0px;stroke-linecap:butt;stroke-linejoin:miter;stroke-opacity:1"/>
<path class="bond-7 atom-7 atom-8" d="M 280.8,199.8 L 242.0,132.6" style="fill:none;fill-rule:evenodd;stroke:#000000;stroke-width:2.0px;stroke-linecap:butt;stroke-linejoin:miter;stroke-opacity:1"/>
<path class="bond-7 atom-7 atom-8" d="M 242.0,132.6 L 203.2,65.4" style="fill:none;fill-rule:evenodd;stroke:#191919;stroke-width:2.0px;stroke-linecap:butt;stroke-linejoin:miter;stroke-opacity:1"/>
<path class="bond-8 atom-7 atom-9" d="M 273.9,187.9 L 237.9,250.2" style="fill:none;fill-rule:evenodd;stroke:#000000;stroke-width:2.0px;stroke-linecap:butt;stroke-linejoin:miter;stroke-opacity:1"/>
<path class="bond-8 atom-7 atom-9" d="M 237.9,250.2 L 202.0,312.5" style="fill:none;fill-rule:evenodd;stroke:#FF0000;stroke-width:2.0px;stroke-linecap:butt;stroke-linejoin:miter;stroke-opacity:1"/>
<path class="bond-8 atom-7 atom-9" d="M 294.6,199.8 L 258.7,262.1" style="fill:none;fill-rule:evenodd;stroke:#000000;stroke-width:2.0px;stroke-linecap:butt;stroke-linejoin:miter;stroke-opacity:1"/>
<path class="bond-8 atom-7 atom-9" d="M 258.7,262.1 L 222.7,324.4" style="fill:none;fill-rule:evenodd;stroke:#FF0000;stroke-width:2.0px;stroke-linecap:butt;stroke-linejoin:miter;stroke-opacity:1"/>
<path class="bond-9 atom-6 atom-10" d="M 440.4,199.8 L 520.2,61.6" style="fill:none;fill-rule:evenodd;stroke:#000000;stroke-width:2.0px;stroke-linecap:butt;stroke-linejoin:miter;stroke-opacity:1"/>
<path class="bond-10 atom-10 atom-11" d="M 520.2,61.6 L 679.8,61.6" style="fill:none;fill-rule:evenodd;stroke:#000000;stroke-width:2.0px;stroke-linecap:butt;stroke-linejoin:miter;stroke-opacity:1"/>
<path class="bond-10 atom-10 atom-11" d="M 534.0,85.5 L 666.0,85.5" style="fill:none;fill-rule:evenodd;stroke:#000000;stroke-width:2.0px;stroke-linecap:butt;stroke-linejoin:miter;stroke-opacity:1"/>
<path class="bond-11 atom-11 atom-3" d="M 679.8,61.6 L 759.6,199.8" style="fill:none;fill-rule:evenodd;stroke:#000000;stroke-width:2.0px;stroke-linecap:butt;stroke-linejoin:miter;stroke-opacity:1"/>
<path d="M 920.9,202.8 L 919.2,199.8 L 911.2,199.8" style="fill:none;stroke:#000000;stroke-width:2.0px;stroke-linecap:butt;stroke-linejoin:miter;stroke-opacity:1;"/>
<path d="M 683.8,331.1 L 679.8,338.0 L 671.8,338.0" style="fill:none;stroke:#000000;stroke-width:2.0px;stroke-linecap:butt;stroke-linejoin:miter;stroke-opacity:1;"/>
<path d="M 528.2,338.0 L 520.2,338.0 L 516.2,331.1" style="fill:none;stroke:#000000;stroke-width:2.0px;stroke-linecap:butt;stroke-linejoin:miter;stroke-opacity:1;"/>
<path d="M 288.8,199.8 L 280.8,199.8 L 278.9,196.5" style="fill:none;stroke:#000000;stroke-width:2.0px;stroke-linecap:butt;stroke-linejoin:miter;stroke-opacity:1;"/>
<path d="M 516.2,68.5 L 520.2,61.6 L 528.2,61.6" style="fill:none;stroke:#000000;stroke-width:2.0px;stroke-linecap:butt;stroke-linejoin:miter;stroke-opacity:1;"/>
<path d="M 671.8,61.6 L 679.8,61.6 L 683.8,68.5" style="fill:none;stroke:#000000;stroke-width:2.0px;stroke-linecap:butt;stroke-linejoin:miter;stroke-opacity:1;"/>
<path class="atom-0" d="M 993.6 334.9 L 997.8 330.6 L 992.3 329.5 L 993.1 326.7 L 998.2 329.2 L 997.5 323.7 L 1000.5 323.6 L 999.6 329.2 L 1004.8 326.8 L 1005.7 329.5 L 1000.1 330.6 L 1004.1 334.8 L 1001.6 336.6 L 998.9 331.3 L 996.1 336.6 L 993.6 334.9 " fill="#191919"/>
<path class="atom-2" d="M 986.0 61.7 Q 986.0 54.9, 989.3 51.1 Q 992.7 47.3, 999.0 47.3 Q 1005.3 47.3, 1008.6 51.1 Q 1012.0 54.9, 1012.0 61.7 Q 1012.0 68.6, 1008.6 72.5 Q 1005.2 76.4, 999.0 76.4 Q 992.7 76.4, 989.3 72.5 Q 986.0 68.6, 986.0 61.7 M 999.0 73.2 Q 1003.3 73.2, 1005.6 70.3 Q 1008.0 67.4, 1008.0 61.7 Q 1008.0 56.1, 1005.6 53.3 Q 1003.3 50.5, 999.0 50.5 Q 994.7 50.5, 992.3 53.3 Q 990.0 56.1, 990.0 61.7 Q 990.0 67.4, 992.3 70.3 Q 994.7 73.2, 999.0 73.2 " fill="#FF0000"/>
<path class="atom-8" d="M 195.7 58.4 L 199.8 54.2 L 194.3 53.1 L 195.2 50.2 L 200.2 52.8 L 199.5 47.2 L 202.5 47.2 L 201.7 52.8 L 206.8 50.4 L 207.7 53.1 L 202.1 54.1 L 206.1 58.4 L 203.7 60.2 L 200.9 54.9 L 198.1 60.2 L 195.7 58.4 " fill="#191919"/>
<path class="atom-9" d="M 188.0 338.1 Q 188.0 331.3, 191.4 327.5 Q 194.7 323.7, 201.0 323.7 Q 207.3 323.7, 210.7 327.5 Q 214.0 331.3, 214.0 338.1 Q 214.0 345.0, 210.6 348.9 Q 207.2 352.8, 201.0 352.8 Q 194.8 352.8, 191.4 348.9 Q 188.0 345.0, 188.0 338.1 M 201.0 349.6 Q 205.3 349.6, 207.7 346.7 Q 210.0 343.8, 210.0 338.1 Q 210.0 332.6, 207.7 329.8 Q 205.3 326.9, 201.0 326.9 Q 196.7 326.9, 194.3 329.7 Q 192.0 332.5, 192.0 338.1 Q 192.0 343.8, 194.3 346.7 Q 196.7 349.6, 201.0 349.6 " fill="#FF0000"/>
<path class="bond-0 atom-0 atom-1" d="M 1070.4,506.2 L 1009.1,552.2" style="fill:none;fill-rule:evenodd;stroke:#191919;stroke-width:2.0px;stroke-linecap:butt;stroke-linejoin:miter;stroke-opacity:1"/>
<path class="bond-0 atom-0 atom-1" d="M 1009.1,552.2 L 947.8,598.1" style="fill:none;fill-rule:evenodd;stroke:#000000;stroke-width:2.0px;stroke-linecap:butt;stroke-linejoin:miter;stroke-opacity:1"/>
<path class="bond-1 atom-1 atom-2" d="M 935.1,592.7 L 943.9,665.6" style="fill:none;fill-rule:evenodd;stroke:#000000;stroke-width:2.0px;stroke-linecap:butt;stroke-linejoin:miter;stroke-opacity:1"/>
<path class="bond-1 atom-1 atom-2" d="M 943.9,665.6 L 952.6,738.4" style="fill:none;fill-rule:evenodd;stroke:#FF0000;stroke-width:2.0px;stroke-linecap:butt;stroke-linejoin:miter;stroke-opacity:1"/>
<path class="bond-1 atom-1 atom-2" d="M 958.9,589.8 L 967.6,662.7" style="fill:none;fill-rule:evenodd;stroke:#000000;stroke-width:2.0px;stroke-linecap:butt;stroke-linejoin:miter;stroke-opacity:1"/>
<path class="bond-1 atom-1 atom-2" d="M 967.6,662.7 L 976.4,735.6" style="fill:none;fill-rule:evenodd;stroke:#FF0000;stroke-width:2.0px;stroke-linecap:butt;stroke-linejoin:miter;stroke-opacity:1"/>
<path class="bond-2 atom-1 atom-3" d="M 947.8,598.1 L 801.1,535.4" style="fill:none;fill-rule:evenodd;stroke:#000000;stroke-width:2.0px;stroke-linecap:butt;stroke-linejoin:miter;stroke-opacity:1"/>
<path class="bond-3 atom-3 atom-4" d="M 801.1,535.4 L 673.4,631.1" style="fill:none;fill-rule:evenodd;stroke:#000000;stroke-width:2.0px;stroke-linecap:butt;stroke-linejoin:miter;stroke-opacity:1"/>
<path class="bond-4 atom-4 atom-5" d="M 673.4,631.1 L 526.6,568.4" style="fill:none;fill-rule:evenodd;stroke:#000000;stroke-width:2.0px;stroke-linecap:butt;stroke-linejoin:miter;stroke-opacity:1"/>
<path class="bond-5 atom-5 atom-6" d="M 526.6,568.4 L 398.9,664.2" style="fill:none;fill-rule:evenodd;stroke:#000000;stroke-width:2.0px;stroke-linecap:butt;stroke-linejoin:miter;stroke-opacity:1"/>
<path class="bond-6 atom-6 atom-7" d="M 398.9,664.2 L 252.2,601.4" style="fill:none;fill-rule:evenodd;stroke:#000000;stroke-width:2.0px;stroke-linecap:butt;stroke-linejoin:miter;stroke-opacity:1"/>
<path class="bond-7 atom-7 atom-8" d="M 252.2,601.4 L 194.3,644.8" style="fill:none;fill-rule:evenodd;stroke:#000000;stroke-width:2.0px;stroke-linecap:butt;stroke-linejoin:miter;stroke-opacity:1"/>
<path class="bond-7 atom-7 atom-8" d="M 194.3,644.8 L 136.5,688.2" style="fill:none;fill-rule:evenodd;stroke:#191919;stroke-width:2.0px;stroke-linecap:butt;stroke-linejoin:miter;stroke-opacity:1"/>
<path class="bond-8 atom-7 atom-9" d="M 264.9,606.9 L 256.2,534.2" style="fill:none;fill-rule:evenodd;stroke:#000000;stroke-width:2.0px;stroke-linecap:butt;stroke-linejoin:miter;stroke-opacity:1"/>
<path class="bond-8 atom-7 atom-9" d="M 256.2,534.2 L 247.4,461.6" style="fill:none;fill-rule:evenodd;stroke:#FF0000;stroke-width:2.0px;stroke-linecap:butt;stroke-linejoin:miter;stroke-opacity:1"/>
<path class="bond-8 atom-7 atom-9" d="M 241.1,609.7 L 232.4,537.1" style="fill:none;fill-rule:evenodd;stroke:#000000;stroke-width:2.0px;stroke-linecap:butt;stroke-linejoin:miter;stroke-opacity:1"/>
<path class="bond-8 atom-7 atom-9" d="M 232.4,537.1 L 223.6,464.4" style="fill:none;fill-rule:evenodd;stroke:#FF0000;stroke-width:2.0px;stroke-linecap:butt;stroke-linejoin:miter;stroke-opacity:1"/>
<path d="M 950.9,595.8 L 947.8,598.1 L 940.5,595.0" style="fill:none;stroke:#000000;stroke-width:2.0px;stroke-linecap:butt;stroke-linejoin:miter;stroke-opacity:1;"/>
<path d="M 808.4,538.5 L 801.1,535.4 L 794.7,540.2" style="fill:none;stroke:#000000;stroke-width:2.0px;stroke-linecap:butt;stroke-linejoin:miter;stroke-opacity:1;"/>
<path d="M 679.8,626.4 L 673.4,631.1 L 666.0,628.0" style="fill:none;stroke:#000000;stroke-width:2.0px;stroke-linecap:butt;stroke-linejoin:miter;stroke-opacity:1;"/>
<path d="M 534.0,571.6 L 526.6,568.4 L 520.2,573.2" style="fill:none;stroke:#000000;stroke-width:2.0px;stroke-linecap:butt;stroke-linejoin:miter;stroke-opacity:1;"/>
<path d="M 405.3,659.4 L 398.9,664.2 L 391.6,661.0" style="fill:none;stroke:#000000;stroke-width:2.0px;stroke-linecap:butt;stroke-linejoin:miter;stroke-opacity:1;"/>
<path d="M 259.5,604.6 L 252.2,601.4 L 249.3,603.6" style="fill:none;stroke:#000000;stroke-width:2.0px;stroke-linecap:butt;stroke-linejoin:miter;stroke-opacity:1;"/>
<path class="atom-0" d="M 1070.2 499.2 L 1074.3 495.0 L 1068.8 493.9 L 1069.6 491.0 L 1074.7 493.6 L 1074.0 488.0 L 1077.0 488.0 L 1076.2 493.6 L 1081.3 491.2 L 1082.2 493.9 L 1076.6 494.9 L 1080.6 499.2 L 1078.2 501.0 L 1075.4 495.7 L 1072.6 501.0 L 1070.2 499.2 " fill="#191919"/>
<path class="atom-2" d="M 953.9 756.7 Q 953.9 749.9, 957.2 746.1 Q 960.6 742.3, 966.9 742.3 Q 973.2 742.3, 976.5 746.1 Q 979.9 749.9, 979.9 756.7 Q 979.9 763.5, 976.5 767.5 Q 973.1 771.3, 966.9 771.3 Q 960.6 771.3, 957.2 767.5 Q 953.9 763.6, 953.9 756.7 M 966.9 768.1 Q 971.2 768.1, 973.5 765.3 Q 975.9 762.3, 975.9 756.7 Q 975.9 751.1, 973.5 748.3 Q 971.2 745.5, 966.9 745.5 Q 962.6 745.5, 960.2 748.3 Q 957.9 751.1, 957.9 756.7 Q 957.9 762.4, 960.2 765.3 Q 962.6 768.1, 966.9 768.1 " fill="#FF0000"/>
<path class="atom-8" d="M 119.2 694.0 L 123.3 689.8 L 117.8 688.6 L 118.6 685.8 L 123.7 688.4 L 123.0 682.8 L 126.0 682.8 L 125.2 688.3 L 130.3 685.9 L 131.2 688.6 L 125.6 689.7 L 129.6 694.0 L 127.2 695.7 L 124.4 690.4 L 121.6 695.7 L 119.2 694.0 " fill="#191919"/>
<path class="atom-9" d="M 220.1 443.1 Q 220.1 436.3, 223.5 432.5 Q 226.8 428.7, 233.1 428.7 Q 239.4 428.7, 242.8 432.5 Q 246.1 436.3, 246.1 443.1 Q 246.1 449.9, 242.7 453.9 Q 239.3 457.7, 233.1 457.7 Q 226.9 457.7, 223.5 453.9 Q 220.1 450.0, 220.1 443.1 M 233.1 454.5 Q 237.4 454.5, 239.8 451.7 Q 242.1 448.7, 242.1 443.1 Q 242.1 437.5, 239.8 434.7 Q 237.4 431.9, 233.1 431.9 Q 228.8 431.9, 226.4 434.7 Q 224.1 437.5, 224.1 443.1 Q 224.1 448.8, 226.4 451.7 Q 228.8 454.5, 233.1 454.5 " fill="#FF0000"/>
<path class="bond-0 atom-0 atom-1" d="M 295.9,939.5 L 359.8,930.5" style="fill:none;fill-rule:evenodd;stroke:#191919;stroke-width:2.0px;stroke-linecap:butt;stroke-linejoin:miter;stroke-opacity:1"/>
<path class="bond-0 atom-0 atom-1" d="M 359.8,930.5 L 423.7,921.4" style="fill:none;fill-rule:evenodd;stroke:#FF0000;stroke-width:2.0px;stroke-linecap:butt;stroke-linejoin:miter;stroke-opacity:1"/>
<path class="bond-1 atom-1 atom-2" d="M 457.7,938.9 L 499.0,991.7" style="fill:none;fill-rule:evenodd;stroke:#FF0000;stroke-width:2.0px;stroke-linecap:butt;stroke-linejoin:miter;stroke-opacity:1"/>
<path class="bond-1 atom-1 atom-2" d="M 499.0,991.7 L 540.3,1044.5" style="fill:none;fill-rule:evenodd;stroke:#000000;stroke-width:2.0px;stroke-linecap:butt;stroke-linejoin:miter;stroke-opacity:1"/>
<path class="bond-2 atom-2 atom-3" d="M 540.3,1044.5 L 698.4,1022.2" style="fill:none;fill-rule:evenodd;stroke:#000000;stroke-width:2.0px;stroke-linecap:butt;stroke-linejoin:miter;stroke-opacity:1"/>
<path class="bond-3 atom-3 atom-4" d="M 698.4,1022.2 L 739.9,1075.2" style="fill:none;fill-rule:evenodd;stroke:#000000;stroke-width:2.0px;stroke-linecap:butt;stroke-linejoin:miter;stroke-opacity:1"/>
<path class="bond-3 atom-3 atom-4" d="M 739.9,1075.2 L 781.4,1128.3" style="fill:none;fill-rule:evenodd;stroke:#FF0000;stroke-width:2.0px;stroke-linecap:butt;stroke-linejoin:miter;stroke-opacity:1"/>
<path class="bond-4 atom-3 atom-5" d="M 698.4,1022.2 L 724.2,958.2" style="fill:none;fill-rule:evenodd;stroke:#000000;stroke-width:2.0px;stroke-linecap:butt;stroke-linejoin:miter;stroke-opacity:1"/>
<path class="bond-4 atom-3 atom-5" d="M 724.2,958.2 L 749.9,894.2" style="fill:none;fill-rule:evenodd;stroke:#FF0000;stroke-width:2.0px;stroke-linecap:butt;stroke-linejoin:miter;stroke-opacity:1"/>
<path class="bond-5 atom-5 atom-6" d="M 776.3,871.6 L 840.2,862.5" style="fill:none;fill-rule:evenodd;stroke:#FF0000;stroke-width:2.0px;stroke-linecap:butt;stroke-linejoin:miter;stroke-opacity:1"/>
<path class="bond-5 atom-5 atom-6" d="M 840.2,862.5 L 904.1,853.5" style="fill:none;fill-rule:evenodd;stroke:#191919;stroke-width:2.0px;stroke-linecap:butt;stroke-linejoin:miter;stroke-opacity:1"/>
<path d="M 538.3,1041.9 L 540.3,1044.5 L 548.2,1043.4" style="fill:none;stroke:#000000;stroke-width:2.0px;stroke-linecap:butt;stroke-linejoin:miter;stroke-opacity:1;"/>
<path class="atom-0" d="M 278.6 938.0 L 282.8 933.8 L 277.3 932.7 L 278.1 929.8 L 283.2 932.4 L 282.5 926.8 L 285.5 926.8 L 284.6 932.4 L 289.8 930.0 L 290.7 932.7 L 285.1 933.7 L 289.1 938.0 L 286.6 939.8 L 283.9 934.5 L 281.1 939.8 L 278.6 938.0 " fill="#191919"/>
<path class="atom-1" d="M 429.0 918.9 Q 429.0 912.1, 432.3 908.3 Q 435.7 904.5, 442.0 904.5 Q 448.3 904.5, 451.6 908.3 Q 455.0 912.1, 455.0 918.9 Q 455.0 925.8, 451.6 929.7 Q 448.2 933.6, 442.0 933.6 Q 435.7 933.6, 432.3 929.7 Q 429.0 925.9, 429.0 918.9 M 442.0 930.4 Q 446.3 930.4, 448.6 927.5 Q 451.0 924.6, 451.0 918.9 Q 451.0 913.4, 448.6 910.6 Q 446.3 907.7, 442.0 907.7 Q 437.7 907.7, 435.3 910.5 Q 433.0 913.3, 433.0 918.9 Q 433.0 924.7, 435.3 927.5 Q 437.7 930.4, 442.0 930.4 " fill="#FF0000"/>
<path class="atom-4" d="M 783.7 1147.9 Q 783.7 1141.1, 787.1 1137.3 Q 790.5 1133.5, 796.7 1133.5 Q 803.0 1133.5, 806.4 1137.3 Q 809.7 1141.1, 809.7 1147.9 Q 809.7 1154.8, 806.3 1158.7 Q 802.9 1162.6, 796.7 1162.6 Q 790.5 1162.6, 787.1 1158.7 Q 783.7 1154.8, 783.7 1147.9 M 796.7 1159.4 Q 801.1 1159.4, 803.4 1156.5 Q 805.7 1153.6, 805.7 1147.9 Q 805.7 1142.4, 803.4 1139.6 Q 801.1 1136.7, 796.7 1136.7 Q 792.4 1136.7, 790.1 1139.5 Q 787.7 1142.3, 787.7 1147.9 Q 787.7 1153.6, 790.1 1156.5 Q 792.4 1159.4, 796.7 1159.4 " fill="#FF0000"/>
<path class="atom-4" d="M 814.1 1133.8 L 818.0 1133.8 L 818.0 1145.9 L 832.5 1145.9 L 832.5 1133.8 L 836.3 1133.8 L 836.3 1162.2 L 832.5 1162.2 L 832.5 1149.1 L 818.0 1149.1 L 818.0 1162.2 L 814.1 1162.2 L 814.1 1133.8 " fill="#FF0000"/>
<path class="atom-5" d="M 745.0 874.2 Q 745.0 867.4, 748.4 863.6 Q 751.7 859.8, 758.0 859.8 Q 764.3 859.8, 767.7 863.6 Q 771.0 867.4, 771.0 874.2 Q 771.0 881.1, 767.6 885.0 Q 764.2 888.9, 758.0 888.9 Q 751.8 888.9, 748.4 885.0 Q 745.0 881.1, 745.0 874.2 M 758.0 885.7 Q 762.3 885.7, 764.7 882.8 Q 767.0 879.9, 767.0 874.2 Q 767.0 868.7, 764.7 865.9 Q 762.3 863.0, 758.0 863.0 Q 753.7 863.0, 751.3 865.8 Q 749.0 868.6, 749.0 874.2 Q 749.0 879.9, 751.3 882.8 Q 753.7 885.7, 758.0 885.7 " fill="#FF0000"/>
<path class="atom-6" d="M 910.7 848.6 L 914.9 844.4 L 909.3 843.3 L 910.2 840.4 L 915.3 843.0 L 914.5 837.4 L 917.5 837.4 L 916.7 843.0 L 921.9 840.6 L 922.7 843.3 L 917.1 844.3 L 921.1 848.6 L 918.7 850.4 L 915.9 845.1 L 913.1 850.4 L 910.7 848.6 " fill="#191919"/>
</svg>