<svg xmlns="http://www.w3.org/2000/svg" xmlns:rdkit="http://www.rdkit.org/xml" xmlns:xlink="http://www.w3.org/1999/xlink" version="1.1" baseProfile="full" xml:space="preserve" width="1200px" height="1200px" viewBox="0 0 1200 1200">
<!-- END OF HEADER -->
<rect style="opacity:1.0;fill:#FFFFFF;stroke:none" width="1200.0" height="1200.0" x="0.0" y="0.0"> </rect>
<path class="bond-0 atom-0 atom-1" d="M 1051.0,110.0 L 992.2,154.1" style="fill:none;fill-rule:evenodd;stroke:#191919;stroke-width:2.0px;stroke-linecap:butt;stroke-linejoin:miter;stroke-opacity:1"/>
<path class="bond-0 atom-0 atom-1" d="M 992.2,154.1 L 933.4,198.2" style="fill:none;fill-rule:evenodd;stroke:#000000;stroke-width:2.0px;stroke-linecap:butt;stroke-linejoin:miter;stroke-opacity:1"/>
<path class="bond-1 atom-1 atom-2" d="M 921.2,193.0 L 929.6,262.5" style="fill:none;fill-rule:evenodd;stroke:#000000;stroke-width:2.0px;stroke-linecap:butt;stroke-linejoin:miter;stroke-opacity:1"/>
<path class="bond-1 atom-1 atom-2" d="M 929.6,262.5 L 937.9,332.1" style="fill:none;fill-rule:evenodd;stroke:#FF0000;stroke-width:2.0px;stroke-linecap:butt;stroke-linejoin:miter;stroke-opacity:1"/>
<path class="bond-1 atom-1 atom-2" d="M 944.0,190.2 L 952.3,259.8" style="fill:none;fill-rule:evenodd;stroke:#000000;stroke-width:2.0px;stroke-linecap:butt;stroke-linejoin:miter;stroke-opacity:1"/>
<path class="bond-1 atom-1 atom-2" d="M 952.3,259.8 L 960.7,329.3" style="fill:none;fill-rule:evenodd;stroke:#FF0000;stroke-width:2.0px;stroke-linecap:butt;stroke-linejoin:miter;stroke-opacity:1"/>
<path class="bond-2 atom-1 atom-3" d="M 933.4,198.2 L 792.7,138.1" style="fill:none;fill-rule:evenodd;stroke:#000000;stroke-width:2.0px;stroke-linecap:butt;stroke-linejoin:miter;stroke-opacity:1"/>
<path class="bond-3 atom-3 atom-4" d="M 792.7,138.1 L 670.3,229.8" style="fill:none;fill-rule:evenodd;stroke:#000000;stroke-width:2.0px;stroke-linecap:butt;stroke-linejoin:miter;stroke-opacity:1"/>
<path class="bond-4 atom-4 atom-5" d="M 670.3,229.8 L 529.7,169.7" style="fill:none;fill-rule:evenodd;stroke:#000000;stroke-width:2.0px;stroke-linecap:butt;stroke-linejoin:miter;stroke-opacity:1"/>
<path class="bond-5 atom-5 atom-6" d="M 529.7,169.7 L 407.3,261.5" style="fill:none;fill-rule:evenodd;stroke:#000000;stroke-width:2.0px;stroke-linecap:butt;stroke-linejoin:miter;stroke-opacity:1"/>
<path class="bond-6 atom-6 atom-7" d="M 407.3,261.5 L 266.6,201.4" style="fill:none;fill-rule:evenodd;stroke:#000000;stroke-width:2.0px;stroke-linecap:butt;stroke-linejoin:miter;stroke-opacity:1"/>
<path class="bond-7 atom-7 atom-8" d="M 266.6,201.4 L 211.3,242.8" style="fill:none;fill-rule:evenodd;stroke:#000000;stroke-width:2.0px;stroke-linecap:butt;stroke-linejoin:miter;stroke-opacity:1"/>
<path class="bond-7 atom-7 atom-8" d="M 211.3,242.8 L 156.0,284.3" style="fill:none;fill-rule:evenodd;stroke:#191919;stroke-width:2.0px;stroke-linecap:butt;stroke-linejoin:miter;stroke-opacity:1"/>
<path class="bond-8 atom-7 atom-9" d="M 278.8,206.6 L 270.5,137.3" style="fill:none;fill-rule:evenodd;stroke:#000000;stroke-width:2.0px;stroke-linecap:butt;stroke-linejoin:miter;stroke-opacity:1"/>
<path class="bond-8 atom-7 atom-9" d="M 270.5,137.3 L 262.1,67.9" style="fill:none;fill-rule:evenodd;stroke:#FF0000;stroke-width:2.0px;stroke-linecap:butt;stroke-linejoin:miter;stroke-opacity:1"/>
<path class="bond-8 atom-7 atom-9" d="M 256.0,209.3 L 247.7,140.0" style="fill:none;fill-rule:evenodd;stroke:#000000;stroke-width:2.0px;stroke-linecap:butt;stroke-linejoin:miter;stroke-opacity:1"/>
<path class="bond-8 atom-7 atom-9" d="M 247.7,140.0 L 239.3,70.7" style="fill:none;fill-rule:evenodd;stroke:#FF0000;stroke-width:2.0px;stroke-linecap:butt;stroke-linejoin:miter;stroke-opacity:1"/>
<path d="M 936.3,196.0 L 933.4,198.2 L 926.3,195.2" style="fill:none;stroke:#000000;stroke-width:2.0px;stroke-linecap:butt;stroke-linejoin:miter;stroke-opacity:1;"/>
<path d="M 799.8,141.1 L 792.7,138.1 L 786.6,142.7" style="fill:none;stroke:#000000;stroke-width:2.0px;stroke-linecap:butt;stroke-linejoin:miter;stroke-opacity:1;"/>
<path d="M 676.4,225.2 L 670.3,229.8 L 663.3,226.8" style="fill:none;stroke:#000000;stroke-width:2.0px;stroke-linecap:butt;stroke-linejoin:miter;stroke-opacity:1;"/>
<path d="M 536.7,172.7 L 529.7,169.7 L 523.6,174.3" style="fill:none;stroke:#000000;stroke-width:2.0px;stroke-linecap:butt;stroke-linejoin:miter;stroke-opacity:1;"/>
<path d="M 413.4,256.9 L 407.3,261.5 L 400.2,258.5" style="fill:none;stroke:#000000;stroke-width:2.0px;stroke-linecap:butt;stroke-linejoin:miter;stroke-opacity:1;"/>
<path d="M 273.7,204.4 L 266.6,201.4 L 263.9,203.4" style="fill:none;stroke:#000000;stroke-width:2.0px;stroke-linecap:butt;stroke-linejoin:miter;stroke-opacity:1;"/>
<path class="atom-0" d="M 1050.4 103.3 L 1054.6 99.0 L 1049.1 97.9 L 1049.9 95.1 L 1055.0 97.6 L 1054.3 92.1 L 1057.3 92.0 L 1056.4 97.6 L 1061.6 95.2 L 1062.5 97.9 L 1056.9 99.0 L 1060.9 103.2 L 1058.4 105.0 L 1055.7 99.7 L 1052.9 105.0 L 1050.4 103.3 " fill="#191919"/>
<path class="atom-2" d="M 938.6 350.1 Q 938.6 343.3, 942.0 339.5 Q 945.4 335.7, 951.6 335.7 Q 957.9 335.7, 961.3 339.5 Q 964.6 343.3, 964.6 350.1 Q 964.6 357.0, 961.2 360.9 Q 957.8 364.8, 951.6 364.8 Q 945.4 364.8, 942.0 360.9 Q 938.6 357.1, 938.6 350.1 M 951.6 361.6 Q 956.0 361.6, 958.3 358.7 Q 960.6 355.8, 960.6 350.1 Q 960.6 344.6, 958.3 341.8 Q 956.0 338.9, 951.6 338.9 Q 947.3 338.9, 945.0 341.7 Q 942.6 344.5, 942.6 350.1 Q 942.6 355.9, 945.0 358.7 Q 947.3 361.6, 951.6 361.6 " fill="#FF0000"/>
<path class="atom-8" d="M 138.9 290.0 L 143.1 285.7 L 137.5 284.6 L 138.4 281.8 L 143.5 284.3 L 142.7 278.8 L 145.7 278.7 L 144.9 284.3 L 150.1 281.9 L 150.9 284.6 L 145.3 285.6 L 149.3 289.9 L 146.9 291.7 L 144.1 286.4 L 141.3 291.7 L 138.9 290.0 " fill="#191919"/>
<path class="atom-9" d="M 235.4 49.6 Q 235.4 42.8, 238.7 39.0 Q 242.1 35.2, 248.4 35.2 Q 254.6 35.2, 258.0 39.0 Q 261.4 42.8, 261.4 49.6 Q 261.4 56.5, 258.0 60.4 Q 254.6 64.3, 248.4 64.3 Q 242.1 64.3, 238.7 60.4 Q 235.4 56.5, 235.4 49.6 M 248.4 61.1 Q 252.7 61.1, 255.0 58.2 Q 257.4 55.3, 257.4 49.6 Q 257.4 44.0, 255.0 41.2 Q 252.7 38.4, 248.4 38.4 Q 244.0 38.4, 241.7 41.2 Q 239.4 44.0, 239.4 49.6 Q 239.4 55.3, 241.7 58.2 Q 244.0 61.1, 248.4 61.1 " fill="#FF0000"/>
<path class="bond-0 atom-0 atom-1" d="M 82.0,696.5 L 143.2,663.0" style="fill:none;fill-rule:evenodd;stroke:#191919;stroke-width:2.0px;stroke-linecap:butt;stroke-linejoin:miter;stroke-opacity:1"/>
<path class="bond-0 atom-0 atom-1" d="M 143.2,663.0 L 204.4,629.5" style="fill:none;fill-rule:evenodd;stroke:#000000;stroke-width:2.0px;stroke-linecap:butt;stroke-linejoin:miter;stroke-opacity:1"/>
<path class="bond-1 atom-1 atom-2" d="M 204.4,629.5 L 260.8,663.8" style="fill:none;fill-rule:evenodd;stroke:#000000;stroke-width:2.0px;stroke-linecap:butt;stroke-linejoin:miter;stroke-opacity:1"/>
<path class="bond-1 atom-1 atom-2" d="M 260.8,663.8 L 317.1,698.0" style="fill:none;fill-rule:evenodd;stroke:#FF0000;stroke-width:2.0px;stroke-linecap:butt;stroke-linejoin:miter;stroke-opacity:1"/>
<path class="bond-2 atom-2 atom-3" d="M 353.2,699.1 L 411.2,667.3" style="fill:none;fill-rule:evenodd;stroke:#FF0000;stroke-width:2.0px;stroke-linecap:butt;stroke-linejoin:miter;stroke-opacity:1"/>
<path class="bond-2 atom-2 atom-3" d="M 411.2,667.3 L 469.3,635.5" style="fill:none;fill-rule:evenodd;stroke:#000000;stroke-width:2.0px;stroke-linecap:butt;stroke-linejoin:miter;stroke-opacity:1"/>
<path class="bond-3 atom-3 atom-4" d="M 469.3,635.5 L 600.0,715.0" style="fill:none;fill-rule:evenodd;stroke:#000000;stroke-width:2.0px;stroke-linecap:butt;stroke-linejoin:miter;stroke-opacity:1"/>
<path class="bond-4 atom-4 atom-5" d="M 600.0,715.0 L 734.2,641.6" style="fill:none;fill-rule:evenodd;stroke:#000000;stroke-width:2.0px;stroke-linecap:butt;stroke-linejoin:miter;stroke-opacity:1"/>
<path class="bond-5 atom-5 atom-6" d="M 734.2,641.6 L 735.7,575.0" style="fill:none;fill-rule:evenodd;stroke:#000000;stroke-width:2.0px;stroke-linecap:butt;stroke-linejoin:miter;stroke-opacity:1"/>
<path class="bond-5 atom-5 atom-6" d="M 735.7,575.0 L 737.2,508.5" style="fill:none;fill-rule:evenodd;stroke:#FF0000;stroke-width:2.0px;stroke-linecap:butt;stroke-linejoin:miter;stroke-opacity:1"/>
<path class="bond-6 atom-5 atom-7" d="M 734.2,641.6 L 864.9,721.1" style="fill:none;fill-rule:evenodd;stroke:#000000;stroke-width:2.0px;stroke-linecap:butt;stroke-linejoin:miter;stroke-opacity:1"/>
<path class="bond-7 atom-7 atom-8" d="M 864.9,721.1 L 922.9,689.3" style="fill:none;fill-rule:evenodd;stroke:#000000;stroke-width:2.0px;stroke-linecap:butt;stroke-linejoin:miter;stroke-opacity:1"/>
<path class="bond-7 atom-7 atom-8" d="M 922.9,689.3 L 981.0,657.5" style="fill:none;fill-rule:evenodd;stroke:#FF0000;stroke-width:2.0px;stroke-linecap:butt;stroke-linejoin:miter;stroke-opacity:1"/>
<path class="bond-8 atom-8 atom-9" d="M 1017.1,658.6 L 1067.6,689.3" style="fill:none;fill-rule:evenodd;stroke:#FF0000;stroke-width:2.0px;stroke-linecap:butt;stroke-linejoin:miter;stroke-opacity:1"/>
<path class="bond-8 atom-8 atom-9" d="M 1067.6,689.3 L 1118.0,720.0" style="fill:none;fill-rule:evenodd;stroke:#191919;stroke-width:2.0px;stroke-linecap:butt;stroke-linejoin:miter;stroke-opacity:1"/>
<path d="M 201.4,631.2 L 204.4,629.5 L 207.2,631.2" style="fill:none;stroke:#000000;stroke-width:2.0px;stroke-linecap:butt;stroke-linejoin:miter;stroke-opacity:1;"/>
<path d="M 466.4,637.1 L 469.3,635.5 L 475.8,639.5" style="fill:none;stroke:#000000;stroke-width:2.0px;stroke-linecap:butt;stroke-linejoin:miter;stroke-opacity:1;"/>
<path d="M 593.5,711.0 L 600.0,715.0 L 606.7,711.4" style="fill:none;stroke:#000000;stroke-width:2.0px;stroke-linecap:butt;stroke-linejoin:miter;stroke-opacity:1;"/>
<path d="M 858.3,717.1 L 864.9,721.1 L 867.8,719.5" style="fill:none;stroke:#000000;stroke-width:2.0px;stroke-linecap:butt;stroke-linejoin:miter;stroke-opacity:1;"/>
<path class="atom-0" d="M 64.9 699.8 L 69.1 695.5 L 63.5 694.4 L 64.4 691.6 L 69.5 694.1 L 68.7 688.6 L 71.7 688.5 L 70.9 694.1 L 76.1 691.7 L 76.9 694.4 L 71.3 695.5 L 75.3 699.7 L 72.9 701.5 L 70.1 696.2 L 67.3 701.5 L 64.9 699.8 " fill="#191919"/>
<path class="atom-2" d="M 322.1 709.1 Q 322.1 702.3, 325.5 698.5 Q 328.8 694.7, 335.1 694.7 Q 341.4 694.7, 344.8 698.5 Q 348.1 702.3, 348.1 709.1 Q 348.1 715.9, 344.7 719.9 Q 341.3 723.7, 335.1 723.7 Q 328.9 723.7, 325.5 719.9 Q 322.1 716.0, 322.1 709.1 M 335.1 720.5 Q 339.4 720.5, 341.8 717.7 Q 344.1 714.7, 344.1 709.1 Q 344.1 703.5, 341.8 700.7 Q 339.4 697.9, 335.1 697.9 Q 330.8 697.9, 328.4 700.7 Q 326.1 703.5, 326.1 709.1 Q 326.1 714.8, 328.4 717.7 Q 330.8 720.5, 335.1 720.5 " fill="#FF0000"/>
<path class="atom-6" d="M 724.7 488.7 Q 724.7 481.9, 728.0 478.1 Q 731.4 474.3, 737.7 474.3 Q 743.9 474.3, 747.3 478.1 Q 750.7 481.9, 750.7 488.7 Q 750.7 495.6, 747.3 499.5 Q 743.9 503.4, 737.7 503.4 Q 731.4 503.4, 728.0 499.5 Q 724.7 495.7, 724.7 488.7 M 737.7 500.2 Q 742.0 500.2, 744.3 497.3 Q 746.7 494.4, 746.7 488.7 Q 746.7 483.2, 744.3 480.4 Q 742.0 477.5, 737.7 477.5 Q 733.3 477.5, 731.0 480.3 Q 728.7 483.1, 728.7 488.7 Q 728.7 494.5, 731.0 497.3 Q 733.3 500.2, 737.7 500.2 " fill="#FF0000"/>
<path class="atom-6" d="M 755.1 474.7 L 758.9 474.7 L 758.9 486.7 L 773.4 486.7 L 773.4 474.7 L 777.2 474.7 L 777.2 503.0 L 773.4 503.0 L 773.4 489.9 L 758.9 489.9 L 758.9 503.0 L 755.1 503.0 L 755.1 474.7 " fill="#FF0000"/>
<path class="atom-8" d="M 986.1 647.7 Q 986.1 640.9, 989.4 637.1 Q 992.8 633.3, 999.1 633.3 Q 1005.3 633.3, 1008.7 637.1 Q 1012.1 640.9, 1012.1 647.7 Q 1012.1 654.6, 1008.7 658.5 Q 1005.3 662.4, 999.1 662.4 Q 992.8 662.4, 989.4 658.5 Q 986.1 654.6, 986.1 647.7 M 999.1 659.2 Q 1003.4 659.2, 1005.7 656.3 Q 1008.1 653.4, 1008.1 647.7 Q 1008.1 642.1, 1005.7 639.3 Q 1003.4 636.5, 999.1 636.5 Q 994.7 636.5, 992.4 639.3 Q 990.1 642.1, 990.1 647.7 Q 990.1 653.4, 992.4 656.3 Q 994.7 659.2, 999.1 659.2 " fill="#FF0000"/>
<path class="atom-9" d="M 1124.4 723.9 L 1128.6 719.7 L 1123.1 718.6 L 1123.9 715.7 L 1129.0 718.3 L 1128.3 712.7 L 1131.3 712.7 L 1130.4 718.3 L 1135.6 715.9 L 1136.5 718.6 L 1130.9 719.6 L 1134.9 723.9 L 1132.4 725.7 L 1129.7 720.4 L 1126.9 725.7 L 1124.4 723.9 " fill="#191919"/>
<path class="bond-0 atom-0 atom-1" d="M 278.4,930.3 L 342.1,901.2" style="fill:none;fill-rule:evenodd;stroke:#191919;stroke-width:2.0px;stroke-linecap:butt;stroke-linejoin:miter;stroke-opacity:1"/>
<path class="bond-0 atom-0 atom-1" d="M 342.1,901.2 L 405.8,872.1" style="fill:none;fill-rule:evenodd;stroke:#000000;stroke-width:2.0px;stroke-linecap:butt;stroke-linejoin:miter;stroke-opacity:1"/>
<path class="bond-1 atom-1 atom-2" d="M 405.8,872.1 L 530.4,960.8" style="fill:none;fill-rule:evenodd;stroke:#000000;stroke-width:2.0px;stroke-linecap:butt;stroke-linejoin:miter;stroke-opacity:1"/>
<path class="bond-2 atom-2 atom-3" d="M 530.4,960.8 L 524.1,1027.3" style="fill:none;fill-rule:evenodd;stroke:#000000;stroke-width:2.0px;stroke-linecap:butt;stroke-linejoin:miter;stroke-opacity:1"/>
<path class="bond-2 atom-2 atom-3" d="M 524.1,1027.3 L 517.8,1093.7" style="fill:none;fill-rule:evenodd;stroke:#FF0000;stroke-width:2.0px;stroke-linecap:butt;stroke-linejoin:miter;stroke-opacity:1"/>
<path class="bond-3 atom-2 atom-4" d="M 530.4,960.8 L 669.6,897.3" style="fill:none;fill-rule:evenodd;stroke:#000000;stroke-width:2.0px;stroke-linecap:butt;stroke-linejoin:miter;stroke-opacity:1"/>
<path class="bond-4 atom-4 atom-5" d="M 669.6,897.3 L 722.9,935.2" style="fill:none;fill-rule:evenodd;stroke:#000000;stroke-width:2.0px;stroke-linecap:butt;stroke-linejoin:miter;stroke-opacity:1"/>
<path class="bond-4 atom-4 atom-5" d="M 722.9,935.2 L 776.1,973.1" style="fill:none;fill-rule:evenodd;stroke:#FF0000;stroke-width:2.0px;stroke-linecap:butt;stroke-linejoin:miter;stroke-opacity:1"/>
<path class="bond-5 atom-5 atom-6" d="M 812.2,977.7 L 868.8,951.9" style="fill:none;fill-rule:evenodd;stroke:#FF0000;stroke-width:2.0px;stroke-linecap:butt;stroke-linejoin:miter;stroke-opacity:1"/>
<path class="bond-5 atom-5 atom-6" d="M 868.8,951.9 L 925.4,926.0" style="fill:none;fill-rule:evenodd;stroke:#191919;stroke-width:2.0px;stroke-linecap:butt;stroke-linejoin:miter;stroke-opacity:1"/>
<path d="M 402.6,873.6 L 405.8,872.1 L 412.0,876.6" style="fill:none;stroke:#000000;stroke-width:2.0px;stroke-linecap:butt;stroke-linejoin:miter;stroke-opacity:1;"/>
<path d="M 662.6,900.5 L 669.6,897.3 L 672.2,899.2" style="fill:none;stroke:#000000;stroke-width:2.0px;stroke-linecap:butt;stroke-linejoin:miter;stroke-opacity:1;"/>
<path class="atom-0" d="M 261.3 932.5 L 265.5 928.3 L 260.0 927.2 L 260.8 924.3 L 265.9 926.9 L 265.2 921.3 L 268.2 921.3 L 267.3 926.8 L 272.5 924.4 L 273.4 927.2 L 267.8 928.2 L 271.8 932.5 L 269.3 934.2 L 266.6 929.0 L 263.8 934.2 L 261.3 932.5 " fill="#191919"/>
<path class="atom-3" d="M 502.9 1113.2 Q 502.9 1106.4, 506.3 1102.6 Q 509.6 1098.8, 515.9 1098.8 Q 522.2 1098.8, 525.6 1102.6 Q 528.9 1106.4, 528.9 1113.2 Q 528.9 1120.1, 525.5 1124.0 Q 522.1 1127.9, 515.9 1127.9 Q 509.7 1127.9, 506.3 1124.0 Q 502.9 1120.1, 502.9 1113.2 M 515.9 1124.7 Q 520.2 1124.7, 522.6 1121.8 Q 524.9 1118.9, 524.9 1113.2 Q 524.9 1107.6, 522.6 1104.8 Q 520.2 1102.0, 515.9 1102.0 Q 511.6 1102.0, 509.2 1104.8 Q 506.9 1107.6, 506.9 1113.2 Q 506.9 1118.9, 509.2 1121.8 Q 511.6 1124.7, 515.9 1124.7 " fill="#FF0000"/>
<path class="atom-3" d="M 533.3 1099.1 L 537.2 1099.1 L 537.2 1111.2 L 551.6 1111.2 L 551.6 1099.1 L 555.5 1099.1 L 555.5 1127.4 L 551.6 1127.4 L 551.6 1114.4 L 537.2 1114.4 L 537.2 1127.4 L 533.3 1127.4 L 533.3 1099.1 " fill="#FF0000"/>
<path class="atom-5" d="M 781.2 986.1 Q 781.2 979.3, 784.5 975.5 Q 787.9 971.7, 794.2 971.7 Q 800.5 971.7, 803.8 975.5 Q 807.2 979.3, 807.2 986.1 Q 807.2 992.9, 803.8 996.9 Q 800.4 1000.7, 794.2 1000.7 Q 787.9 1000.7, 784.5 996.9 Q 781.2 993.0, 781.2 986.1 M 794.2 997.5 Q 798.5 997.5, 800.8 994.7 Q 803.2 991.7, 803.2 986.1 Q 803.2 980.5, 800.8 977.7 Q 798.5 974.9, 794.2 974.9 Q 789.9 974.9, 787.5 977.7 Q 785.2 980.5, 785.2 986.1 Q 785.2 991.8, 787.5 994.7 Q 789.9 997.5, 794.2 997.5 " fill="#FF0000"/>
<path class="atom-6" d="M 928.0 919.3 L 932.1 915.0 L 926.6 913.9 L 927.5 911.1 L 932.5 913.6 L 931.8 908.1 L 934.8 908.0 L 934.0 913.6 L 939.1 911.2 L 940.0 913.9 L 934.4 914.9 L 938.4 919.2 L 936.0 921.0 L 933.2 915.7 L 930.4 921.0 L 928.0 919.3 " fill="#191919"/>
</svg>