<svg xmlns="http://www.w3.org/2000/svg" xmlns:rdkit="http://www.rdkit.org/xml" xmlns:xlink="http://www.w3.org/1999/xlink" version="1.1" baseProfile="full" xml:space="preserve" width="1200px" height="800px" viewBox="0 0 1200 800">
<!-- END OF HEADER -->
<rect style="opacity:1.0;fill:#FFFFFF;stroke:none" width="1200.0" height="800.0" x="0.0" y="0.0"> </rect>
<path class="bond-0 atom-0 atom-1" d="M 281.3,93.4 L 311.7,80.0" style="fill:none;fill-rule:evenodd;stroke:#191919;stroke-width:2.0px;stroke-linecap:butt;stroke-linejoin:miter;stroke-opacity:1"/>
<path class="bond-0 atom-0 atom-1" d="M 311.7,80.0 L 342.2,66.5" style="fill:none;fill-rule:evenodd;stroke:#0000FF;stroke-width:2.0px;stroke-linecap:butt;stroke-linejoin:miter;stroke-opacity:1"/>
<path class="bond-1 atom-1 atom-2" d="M 367.5,70.2 L 397.7,92.2" style="fill:none;fill-rule:evenodd;stroke:#0000FF;stroke-width:2.0px;stroke-linecap:butt;stroke-linejoin:miter;stroke-opacity:1"/>
<path class="bond-1 atom-1 atom-2" d="M 397.7,92.2 L 427.8,114.2" style="fill:none;fill-rule:evenodd;stroke:#000000;stroke-width:2.0px;stroke-linecap:butt;stroke-linejoin:miter;stroke-opacity:1"/>
<path class="bond-2 atom-2 atom-3" d="M 427.8,114.2 L 510.4,77.8" style="fill:none;fill-rule:evenodd;stroke:#000000;stroke-width:2.0px;stroke-linecap:butt;stroke-linejoin:miter;stroke-opacity:1"/>
<path class="bond-3 atom-3 atom-4" d="M 510.4,77.8 L 583.3,131.1" style="fill:none;fill-rule:evenodd;stroke:#000000;stroke-width:2.0px;stroke-linecap:butt;stroke-linejoin:miter;stroke-opacity:1"/>
<path class="bond-4 atom-4 atom-5" d="M 577.0,126.5 L 572.8,165.4" style="fill:none;fill-rule:evenodd;stroke:#000000;stroke-width:2.0px;stroke-linecap:butt;stroke-linejoin:miter;stroke-opacity:1"/>
<path class="bond-4 atom-4 atom-5" d="M 572.8,165.4 L 568.6,204.2" style="fill:none;fill-rule:evenodd;stroke:#FF0000;stroke-width:2.0px;stroke-linecap:butt;stroke-linejoin:miter;stroke-opacity:1"/>
<path class="bond-4 atom-4 atom-5" d="M 590.5,127.9 L 586.2,166.8" style="fill:none;fill-rule:evenodd;stroke:#000000;stroke-width:2.0px;stroke-linecap:butt;stroke-linejoin:miter;stroke-opacity:1"/>
<path class="bond-4 atom-4 atom-5" d="M 586.2,166.8 L 582.0,205.7" style="fill:none;fill-rule:evenodd;stroke:#FF0000;stroke-width:2.0px;stroke-linecap:butt;stroke-linejoin:miter;stroke-opacity:1"/>
<path class="bond-5 atom-4 atom-6" d="M 583.3,131.1 L 618.3,115.7" style="fill:none;fill-rule:evenodd;stroke:#000000;stroke-width:2.0px;stroke-linecap:butt;stroke-linejoin:miter;stroke-opacity:1"/>
<path class="bond-5 atom-4 atom-6" d="M 618.3,115.7 L 653.2,100.2" style="fill:none;fill-rule:evenodd;stroke:#0000FF;stroke-width:2.0px;stroke-linecap:butt;stroke-linejoin:miter;stroke-opacity:1"/>
<path class="bond-6 atom-6 atom-7" d="M 678.6,103.9 L 708.7,125.9" style="fill:none;fill-rule:evenodd;stroke:#0000FF;stroke-width:2.0px;stroke-linecap:butt;stroke-linejoin:miter;stroke-opacity:1"/>
<path class="bond-6 atom-6 atom-7" d="M 708.7,125.9 L 738.8,147.9" style="fill:none;fill-rule:evenodd;stroke:#000000;stroke-width:2.0px;stroke-linecap:butt;stroke-linejoin:miter;stroke-opacity:1"/>
<path class="bond-7 atom-7 atom-8" d="M 738.8,147.9 L 821.4,111.5" style="fill:none;fill-rule:evenodd;stroke:#000000;stroke-width:2.0px;stroke-linecap:butt;stroke-linejoin:miter;stroke-opacity:1"/>
<path class="bond-8 atom-8 atom-9" d="M 821.4,111.5 L 894.3,164.8" style="fill:none;fill-rule:evenodd;stroke:#000000;stroke-width:2.0px;stroke-linecap:butt;stroke-linejoin:miter;stroke-opacity:1"/>
<path class="bond-9 atom-9 atom-10" d="M 893.5,172.6 L 929.2,156.8" style="fill:none;fill-rule:evenodd;stroke:#000000;stroke-width:2.0px;stroke-linecap:butt;stroke-linejoin:miter;stroke-opacity:1"/>
<path class="bond-9 atom-9 atom-10" d="M 929.2,156.8 L 965.0,141.0" style="fill:none;fill-rule:evenodd;stroke:#FF0000;stroke-width:2.0px;stroke-linecap:butt;stroke-linejoin:miter;stroke-opacity:1"/>
<path class="bond-9 atom-9 atom-10" d="M 888.0,160.2 L 923.8,144.4" style="fill:none;fill-rule:evenodd;stroke:#000000;stroke-width:2.0px;stroke-linecap:butt;stroke-linejoin:miter;stroke-opacity:1"/>
<path class="bond-9 atom-9 atom-10" d="M 923.8,144.4 L 959.5,128.6" style="fill:none;fill-rule:evenodd;stroke:#FF0000;stroke-width:2.0px;stroke-linecap:butt;stroke-linejoin:miter;stroke-opacity:1"/>
<path class="bond-10 atom-9 atom-11" d="M 894.3,164.8 L 890.3,201.7" style="fill:none;fill-rule:evenodd;stroke:#000000;stroke-width:2.0px;stroke-linecap:butt;stroke-linejoin:miter;stroke-opacity:1"/>
<path class="bond-10 atom-9 atom-11" d="M 890.3,201.7 L 886.3,238.7" style="fill:none;fill-rule:evenodd;stroke:#FF0000;stroke-width:2.0px;stroke-linecap:butt;stroke-linejoin:miter;stroke-opacity:1"/>
<path class="bond-11 atom-11 atom-12" d="M 899.3,265.4 L 922.1,282.0" style="fill:none;fill-rule:evenodd;stroke:#FF0000;stroke-width:2.0px;stroke-linecap:butt;stroke-linejoin:miter;stroke-opacity:1"/>
<path class="bond-11 atom-11 atom-12" d="M 922.1,282.0 L 944.8,298.6" style="fill:none;fill-rule:evenodd;stroke:#000000;stroke-width:2.0px;stroke-linecap:butt;stroke-linejoin:miter;stroke-opacity:1"/>
<path class="bond-12 atom-7 atom-13" d="M 738.8,147.9 L 729.1,237.7" style="fill:none;fill-rule:evenodd;stroke:#000000;stroke-width:2.0px;stroke-linecap:butt;stroke-linejoin:miter;stroke-opacity:1"/>
<path class="bond-13 atom-13 atom-14" d="M 729.1,237.7 L 761.0,261.1" style="fill:none;fill-rule:evenodd;stroke:#000000;stroke-width:2.0px;stroke-linecap:butt;stroke-linejoin:miter;stroke-opacity:1"/>
<path class="bond-13 atom-13 atom-14" d="M 761.0,261.1 L 793.0,284.5" style="fill:none;fill-rule:evenodd;stroke:#191919;stroke-width:2.0px;stroke-linecap:butt;stroke-linejoin:miter;stroke-opacity:1"/>
<path class="bond-14 atom-13 atom-15" d="M 729.9,230.0 L 694.2,245.7" style="fill:none;fill-rule:evenodd;stroke:#000000;stroke-width:2.0px;stroke-linecap:butt;stroke-linejoin:miter;stroke-opacity:1"/>
<path class="bond-14 atom-13 atom-15" d="M 694.2,245.7 L 658.5,261.5" style="fill:none;fill-rule:evenodd;stroke:#FF0000;stroke-width:2.0px;stroke-linecap:butt;stroke-linejoin:miter;stroke-opacity:1"/>
<path class="bond-14 atom-13 atom-15" d="M 735.4,242.4 L 699.7,258.1" style="fill:none;fill-rule:evenodd;stroke:#000000;stroke-width:2.0px;stroke-linecap:butt;stroke-linejoin:miter;stroke-opacity:1"/>
<path class="bond-14 atom-13 atom-15" d="M 699.7,258.1 L 663.9,273.9" style="fill:none;fill-rule:evenodd;stroke:#FF0000;stroke-width:2.0px;stroke-linecap:butt;stroke-linejoin:miter;stroke-opacity:1"/>
<path class="bond-15 atom-2 atom-16" d="M 427.8,114.2 L 418.0,204.0" style="fill:none;fill-rule:evenodd;stroke:#000000;stroke-width:2.0px;stroke-linecap:butt;stroke-linejoin:miter;stroke-opacity:1"/>
<path class="bond-16 atom-16 atom-17" d="M 418.0,204.0 L 335.4,240.5" style="fill:none;fill-rule:evenodd;stroke:#000000;stroke-width:2.0px;stroke-linecap:butt;stroke-linejoin:miter;stroke-opacity:1"/>
<path class="bond-17 atom-17 atom-18" d="M 342.6,237.4 L 311.9,214.9" style="fill:none;fill-rule:evenodd;stroke:#000000;stroke-width:2.0px;stroke-linecap:butt;stroke-linejoin:miter;stroke-opacity:1"/>
<path class="bond-17 atom-17 atom-18" d="M 311.9,214.9 L 281.2,192.5" style="fill:none;fill-rule:evenodd;stroke:#FF0000;stroke-width:2.0px;stroke-linecap:butt;stroke-linejoin:miter;stroke-opacity:1"/>
<path class="bond-17 atom-17 atom-18" d="M 334.6,248.3 L 303.9,225.9" style="fill:none;fill-rule:evenodd;stroke:#000000;stroke-width:2.0px;stroke-linecap:butt;stroke-linejoin:miter;stroke-opacity:1"/>
<path class="bond-17 atom-17 atom-18" d="M 303.9,225.9 L 273.2,203.4" style="fill:none;fill-rule:evenodd;stroke:#FF0000;stroke-width:2.0px;stroke-linecap:butt;stroke-linejoin:miter;stroke-opacity:1"/>
<path class="bond-18 atom-17 atom-19" d="M 335.4,240.5 L 331.4,277.5" style="fill:none;fill-rule:evenodd;stroke:#000000;stroke-width:2.0px;stroke-linecap:butt;stroke-linejoin:miter;stroke-opacity:1"/>
<path class="bond-18 atom-17 atom-19" d="M 331.4,277.5 L 327.4,314.4" style="fill:none;fill-rule:evenodd;stroke:#FF0000;stroke-width:2.0px;stroke-linecap:butt;stroke-linejoin:miter;stroke-opacity:1"/>
<path class="bond-19 atom-19 atom-20" d="M 311.0,336.8 L 282.3,349.4" style="fill:none;fill-rule:evenodd;stroke:#FF0000;stroke-width:2.0px;stroke-linecap:butt;stroke-linejoin:miter;stroke-opacity:1"/>
<path class="bond-19 atom-19 atom-20" d="M 282.3,349.4 L 253.7,362.1" style="fill:none;fill-rule:evenodd;stroke:#000000;stroke-width:2.0px;stroke-linecap:butt;stroke-linejoin:miter;stroke-opacity:1"/>
<path d="M 506.3,79.6 L 510.4,77.8 L 514.0,80.4" style="fill:none;stroke:#000000;stroke-width:2.0px;stroke-linecap:butt;stroke-linejoin:miter;stroke-opacity:1;"/>
<path d="M 579.7,128.4 L 583.3,131.1 L 585.0,130.3" style="fill:none;stroke:#000000;stroke-width:2.0px;stroke-linecap:butt;stroke-linejoin:miter;stroke-opacity:1;"/>
<path d="M 817.3,113.3 L 821.4,111.5 L 825.1,114.1" style="fill:none;stroke:#000000;stroke-width:2.0px;stroke-linecap:butt;stroke-linejoin:miter;stroke-opacity:1;"/>
<path d="M 890.7,162.1 L 894.3,164.8 L 894.1,166.6" style="fill:none;stroke:#000000;stroke-width:2.0px;stroke-linecap:butt;stroke-linejoin:miter;stroke-opacity:1;"/>
<path d="M 729.6,233.3 L 729.1,237.7 L 730.7,238.9" style="fill:none;stroke:#000000;stroke-width:2.0px;stroke-linecap:butt;stroke-linejoin:miter;stroke-opacity:1;"/>
<path d="M 418.5,199.6 L 418.0,204.0 L 413.9,205.9" style="fill:none;stroke:#000000;stroke-width:2.0px;stroke-linecap:butt;stroke-linejoin:miter;stroke-opacity:1;"/>
<path d="M 339.5,238.7 L 335.4,240.5 L 335.2,242.4" style="fill:none;stroke:#000000;stroke-width:2.0px;stroke-linecap:butt;stroke-linejoin:miter;stroke-opacity:1;"/>
<path class="atom-0" d="M 267.4 94.5 L 271.2 90.7 L 266.2 89.7 L 266.9 87.1 L 271.5 89.4 L 270.9 84.4 L 273.6 84.4 L 272.8 89.4 L 277.5 87.2 L 278.3 89.7 L 273.2 90.6 L 276.8 94.5 L 274.6 96.1 L 272.2 91.3 L 269.6 96.1 L 267.4 94.5 " fill="#191919"/>
<path class="atom-1" d="M 349.2 48.1 L 357.6 61.7 Q 358.4 63.0, 359.8 65.4 Q 361.1 67.9, 361.2 68.0 L 361.2 48.1 L 364.6 48.1 L 364.6 73.7 L 361.1 73.7 L 352.1 58.9 Q 351.0 57.2, 349.9 55.2 Q 348.8 53.2, 348.5 52.6 L 348.5 73.7 L 345.2 73.7 L 345.2 48.1 L 349.2 48.1 " fill="#0000FF"/>
<path class="atom-1" d="M 344.9 20.0 L 348.3 20.0 L 348.3 30.9 L 361.4 30.9 L 361.4 20.0 L 364.9 20.0 L 364.9 45.6 L 361.4 45.6 L 361.4 33.8 L 348.3 33.8 L 348.3 45.6 L 344.9 45.6 L 344.9 20.0 " fill="#0000FF"/>
<path class="atom-5" d="M 561.8 221.0 Q 561.8 214.8, 564.9 211.4 Q 567.9 208.0, 573.6 208.0 Q 579.2 208.0, 582.3 211.4 Q 585.3 214.8, 585.3 221.0 Q 585.3 227.2, 582.2 230.7 Q 579.2 234.2, 573.6 234.2 Q 567.9 234.2, 564.9 230.7 Q 561.8 227.2, 561.8 221.0 M 573.6 231.3 Q 577.5 231.3, 579.6 228.7 Q 581.7 226.1, 581.7 221.0 Q 581.7 215.9, 579.6 213.4 Q 577.5 210.8, 573.6 210.8 Q 569.7 210.8, 567.5 213.4 Q 565.4 215.9, 565.4 221.0 Q 565.4 226.1, 567.5 228.7 Q 569.7 231.3, 573.6 231.3 " fill="#FF0000"/>
<path class="atom-6" d="M 660.3 81.8 L 668.7 95.4 Q 669.5 96.7, 670.8 99.1 Q 672.2 101.6, 672.2 101.7 L 672.2 81.8 L 675.6 81.8 L 675.6 107.4 L 672.1 107.4 L 663.1 92.6 Q 662.1 90.9, 661.0 88.9 Q 659.9 86.9, 659.5 86.3 L 659.5 107.4 L 656.2 107.4 L 656.2 81.8 L 660.3 81.8 " fill="#0000FF"/>
<path class="atom-6" d="M 655.9 53.7 L 659.4 53.7 L 659.4 64.6 L 672.5 64.6 L 672.5 53.7 L 675.9 53.7 L 675.9 79.3 L 672.5 79.3 L 672.5 67.5 L 659.4 67.5 L 659.4 79.3 L 655.9 79.3 L 655.9 53.7 " fill="#0000FF"/>
<path class="atom-10" d="M 965.2 128.4 Q 965.2 122.3, 968.3 118.8 Q 971.3 115.4, 977.0 115.4 Q 982.6 115.4, 985.7 118.8 Q 988.7 122.3, 988.7 128.4 Q 988.7 134.6, 985.6 138.2 Q 982.6 141.7, 977.0 141.7 Q 971.3 141.7, 968.3 138.2 Q 965.2 134.6, 965.2 128.4 M 977.0 138.8 Q 980.9 138.8, 983.0 136.2 Q 985.1 133.5, 985.1 128.4 Q 985.1 123.4, 983.0 120.8 Q 980.9 118.3, 977.0 118.3 Q 973.1 118.3, 970.9 120.8 Q 968.8 123.3, 968.8 128.4 Q 968.8 133.6, 970.9 136.2 Q 973.1 138.8, 977.0 138.8 " fill="#FF0000"/>
<path class="atom-11" d="M 872.9 254.7 Q 872.9 248.5, 875.9 245.1 Q 878.9 241.7, 884.6 241.7 Q 890.3 241.7, 893.3 245.1 Q 896.4 248.5, 896.4 254.7 Q 896.4 260.9, 893.3 264.4 Q 890.2 267.9, 884.6 267.9 Q 879.0 267.9, 875.9 264.4 Q 872.9 260.9, 872.9 254.7 M 884.6 265.0 Q 888.5 265.0, 890.6 262.4 Q 892.7 259.8, 892.7 254.7 Q 892.7 249.6, 890.6 247.1 Q 888.5 244.5, 884.6 244.5 Q 880.7 244.5, 878.6 247.1 Q 876.5 249.6, 876.5 254.7 Q 876.5 259.8, 878.6 262.4 Q 880.7 265.0, 884.6 265.0 " fill="#FF0000"/>
<path class="atom-12" d="M 951.9 295.1 L 960.2 308.7 Q 961.1 310.0, 962.4 312.4 Q 963.8 314.8, 963.8 315.0 L 963.8 295.1 L 967.2 295.1 L 967.2 320.7 L 963.7 320.7 L 954.7 305.9 Q 953.7 304.2, 952.6 302.2 Q 951.5 300.2, 951.1 299.6 L 951.1 320.7 L 947.8 320.7 L 947.8 295.1 L 951.9 295.1 " fill="#000000"/>
<path class="atom-12" d="M 972.0 315.7 Q 972.0 312.7, 974.3 311.1 Q 976.7 309.5, 981.1 309.5 L 983.8 309.5 L 983.8 308.7 Q 983.8 306.4, 982.9 305.5 Q 981.9 304.5, 979.6 304.5 Q 978.1 304.5, 977.0 304.8 Q 975.8 305.0, 974.0 305.8 L 973.0 303.5 Q 976.4 301.8, 979.7 301.8 Q 983.6 301.8, 985.4 303.5 Q 987.2 305.2, 987.2 308.8 L 987.2 320.7 L 984.6 320.7 Q 984.6 320.6, 984.5 320.0 Q 984.3 319.4, 984.1 318.5 Q 981.5 321.1, 978.1 321.1 Q 975.3 321.1, 973.6 319.7 Q 972.0 318.2, 972.0 315.7 M 975.3 315.6 Q 975.3 317.0, 976.2 317.7 Q 977.1 318.5, 978.7 318.5 Q 980.2 318.5, 981.5 317.8 Q 982.9 317.1, 983.8 316.0 L 983.8 312.0 L 981.3 312.0 Q 978.3 312.0, 976.8 312.9 Q 975.3 313.8, 975.3 315.6 " fill="#000000"/>
<path class="atom-14" d="M 797.2 288.2 L 800.9 284.4 L 795.9 283.4 L 796.7 280.8 L 801.3 283.1 L 800.6 278.1 L 803.3 278.1 L 802.6 283.1 L 807.2 280.9 L 808.0 283.4 L 803.0 284.3 L 806.6 288.2 L 804.4 289.8 L 801.9 285.0 L 799.4 289.8 L 797.2 288.2 " fill="#191919"/>
<path class="atom-15" d="M 634.7 274.3 Q 634.7 268.1, 637.8 264.7 Q 640.8 261.3, 646.5 261.3 Q 652.1 261.3, 655.2 264.7 Q 658.2 268.1, 658.2 274.3 Q 658.2 280.5, 655.1 284.0 Q 652.1 287.5, 646.5 287.5 Q 640.8 287.5, 637.8 284.0 Q 634.7 280.5, 634.7 274.3 M 646.5 284.7 Q 650.4 284.7, 652.5 282.1 Q 654.6 279.4, 654.6 274.3 Q 654.6 269.3, 652.5 266.7 Q 650.4 264.2, 646.5 264.2 Q 642.6 264.2, 640.4 266.7 Q 638.3 269.2, 638.3 274.3 Q 638.3 279.5, 640.4 282.1 Q 642.6 284.7, 646.5 284.7 " fill="#FF0000"/>
<path class="atom-18" d="M 250.8 187.3 Q 250.8 181.1, 253.8 177.7 Q 256.8 174.3, 262.5 174.3 Q 268.2 174.3, 271.2 177.7 Q 274.3 181.1, 274.3 187.3 Q 274.3 193.5, 271.2 197.0 Q 268.1 200.5, 262.5 200.5 Q 256.9 200.5, 253.8 197.0 Q 250.8 193.5, 250.8 187.3 M 262.5 197.6 Q 266.4 197.6, 268.5 195.0 Q 270.6 192.4, 270.6 187.3 Q 270.6 182.2, 268.5 179.7 Q 266.4 177.1, 262.5 177.1 Q 258.6 177.1, 256.5 179.7 Q 254.4 182.2, 254.4 187.3 Q 254.4 192.4, 256.5 195.0 Q 258.6 197.6, 262.5 197.6 " fill="#FF0000"/>
<path class="atom-19" d="M 313.9 330.4 Q 313.9 324.2, 317.0 320.8 Q 320.0 317.4, 325.7 317.4 Q 331.4 317.4, 334.4 320.8 Q 337.4 324.2, 337.4 330.4 Q 337.4 336.6, 334.4 340.1 Q 331.3 343.6, 325.7 343.6 Q 320.0 343.6, 317.0 340.1 Q 313.9 336.6, 313.9 330.4 M 325.7 340.7 Q 329.6 340.7, 331.7 338.1 Q 333.8 335.5, 333.8 330.4 Q 333.8 325.4, 331.7 322.8 Q 329.6 320.3, 325.7 320.3 Q 321.8 320.3, 319.7 322.8 Q 317.6 325.3, 317.6 330.4 Q 317.6 335.5, 319.7 338.1 Q 321.8 340.7, 325.7 340.7 " fill="#FF0000"/>
<path class="atom-20" d="M 215.3 354.0 L 223.7 367.5 Q 224.5 368.9, 225.9 371.3 Q 227.2 373.7, 227.3 373.9 L 227.3 354.0 L 230.7 354.0 L 230.7 379.6 L 227.2 379.6 L 218.2 364.8 Q 217.1 363.0, 216.0 361.0 Q 214.9 359.0, 214.6 358.4 L 214.6 379.6 L 211.3 379.6 L 211.3 354.0 L 215.3 354.0 " fill="#000000"/>
<path class="atom-20" d="M 235.4 374.5 Q 235.4 371.6, 237.8 370.0 Q 240.2 368.3, 244.6 368.3 L 247.3 368.3 L 247.3 367.6 Q 247.3 365.3, 246.3 364.3 Q 245.4 363.3, 243.1 363.3 Q 241.6 363.3, 240.4 363.6 Q 239.3 363.9, 237.5 364.7 L 236.5 362.3 Q 239.9 360.7, 243.1 360.7 Q 247.1 360.7, 248.9 362.4 Q 250.7 364.0, 250.7 367.7 L 250.7 379.6 L 248.1 379.6 Q 248.0 379.4, 247.9 378.9 Q 247.8 378.3, 247.6 377.4 Q 245.0 380.0, 241.5 380.0 Q 238.7 380.0, 237.1 378.5 Q 235.4 377.0, 235.4 374.5 M 238.8 374.5 Q 238.8 375.8, 239.7 376.6 Q 240.5 377.3, 242.2 377.3 Q 243.6 377.3, 245.0 376.7 Q 246.4 376.0, 247.3 374.8 L 247.3 370.9 L 244.8 370.9 Q 241.8 370.9, 240.3 371.8 Q 238.8 372.7, 238.8 374.5 " fill="#000000"/>
<path class="bond-0 atom-0 atom-1" d="M 334.3,617.5 L 370.5,600.1" style="fill:none;fill-rule:evenodd;stroke:#191919;stroke-width:2.0px;stroke-linecap:butt;stroke-linejoin:miter;stroke-opacity:1"/>
<path class="bond-0 atom-0 atom-1" d="M 370.5,600.1 L 406.6,582.6" style="fill:none;fill-rule:evenodd;stroke:#000000;stroke-width:2.0px;stroke-linecap:butt;stroke-linejoin:miter;stroke-opacity:1"/>
<path class="bond-1 atom-1 atom-2" d="M 406.6,582.6 L 481.3,633.4" style="fill:none;fill-rule:evenodd;stroke:#000000;stroke-width:2.0px;stroke-linecap:butt;stroke-linejoin:miter;stroke-opacity:1"/>
<path class="bond-2 atom-2 atom-3" d="M 481.3,633.4 L 562.7,594.1" style="fill:none;fill-rule:evenodd;stroke:#000000;stroke-width:2.0px;stroke-linecap:butt;stroke-linejoin:miter;stroke-opacity:1"/>
<path class="bond-3 atom-3 atom-4" d="M 562.7,594.1 L 637.3,644.9" style="fill:none;fill-rule:evenodd;stroke:#000000;stroke-width:2.0px;stroke-linecap:butt;stroke-linejoin:miter;stroke-opacity:1"/>
<path class="bond-4 atom-4 atom-5" d="M 637.3,644.9 L 718.7,605.6" style="fill:none;fill-rule:evenodd;stroke:#000000;stroke-width:2.0px;stroke-linecap:butt;stroke-linejoin:miter;stroke-opacity:1"/>
<path class="bond-5 atom-5 atom-6" d="M 725.1,610.0 L 728.0,571.2" style="fill:none;fill-rule:evenodd;stroke:#000000;stroke-width:2.0px;stroke-linecap:butt;stroke-linejoin:miter;stroke-opacity:1"/>
<path class="bond-5 atom-5 atom-6" d="M 728.0,571.2 L 730.9,532.4" style="fill:none;fill-rule:evenodd;stroke:#FF0000;stroke-width:2.0px;stroke-linecap:butt;stroke-linejoin:miter;stroke-opacity:1"/>
<path class="bond-5 atom-5 atom-6" d="M 711.6,609.0 L 714.5,570.2" style="fill:none;fill-rule:evenodd;stroke:#000000;stroke-width:2.0px;stroke-linecap:butt;stroke-linejoin:miter;stroke-opacity:1"/>
<path class="bond-5 atom-5 atom-6" d="M 714.5,570.2 L 717.4,531.4" style="fill:none;fill-rule:evenodd;stroke:#FF0000;stroke-width:2.0px;stroke-linecap:butt;stroke-linejoin:miter;stroke-opacity:1"/>
<path class="bond-6 atom-5 atom-7" d="M 718.7,605.6 L 749.7,626.7" style="fill:none;fill-rule:evenodd;stroke:#000000;stroke-width:2.0px;stroke-linecap:butt;stroke-linejoin:miter;stroke-opacity:1"/>
<path class="bond-6 atom-5 atom-7" d="M 749.7,626.7 L 780.7,647.8" style="fill:none;fill-rule:evenodd;stroke:#0000FF;stroke-width:2.0px;stroke-linecap:butt;stroke-linejoin:miter;stroke-opacity:1"/>
<path class="bond-7 atom-7 atom-8" d="M 806.0,650.3 L 838.6,634.6" style="fill:none;fill-rule:evenodd;stroke:#0000FF;stroke-width:2.0px;stroke-linecap:butt;stroke-linejoin:miter;stroke-opacity:1"/>
<path class="bond-7 atom-7 atom-8" d="M 838.6,634.6 L 871.2,618.8" style="fill:none;fill-rule:evenodd;stroke:#191919;stroke-width:2.0px;stroke-linecap:butt;stroke-linejoin:miter;stroke-opacity:1"/>
<path d="M 404.8,583.5 L 406.6,582.6 L 410.4,585.1" style="fill:none;stroke:#000000;stroke-width:2.0px;stroke-linecap:butt;stroke-linejoin:miter;stroke-opacity:1;"/>
<path d="M 477.6,630.9 L 481.3,633.4 L 485.4,631.4" style="fill:none;stroke:#000000;stroke-width:2.0px;stroke-linecap:butt;stroke-linejoin:miter;stroke-opacity:1;"/>
<path d="M 558.6,596.1 L 562.7,594.1 L 566.4,596.7" style="fill:none;stroke:#000000;stroke-width:2.0px;stroke-linecap:butt;stroke-linejoin:miter;stroke-opacity:1;"/>
<path d="M 633.6,642.4 L 637.3,644.9 L 641.4,643.0" style="fill:none;stroke:#000000;stroke-width:2.0px;stroke-linecap:butt;stroke-linejoin:miter;stroke-opacity:1;"/>
<path d="M 714.6,607.6 L 718.7,605.6 L 720.2,606.7" style="fill:none;stroke:#000000;stroke-width:2.0px;stroke-linecap:butt;stroke-linejoin:miter;stroke-opacity:1;"/>
<path class="atom-0" d="M 320.5 619.0 L 324.3 615.2 L 319.3 614.2 L 320.0 611.6 L 324.6 613.9 L 324.0 608.9 L 326.7 608.9 L 325.9 613.9 L 330.6 611.7 L 331.4 614.2 L 326.3 615.1 L 329.9 619.0 L 327.7 620.6 L 325.2 615.8 L 322.7 620.6 L 320.5 619.0 " fill="#191919"/>
<path class="atom-6" d="M 713.6 515.6 Q 713.6 509.5, 716.6 506.1 Q 719.6 502.6, 725.3 502.6 Q 731.0 502.6, 734.0 506.1 Q 737.1 509.5, 737.1 515.6 Q 737.1 521.9, 734.0 525.4 Q 730.9 528.9, 725.3 528.9 Q 719.7 528.9, 716.6 525.4 Q 713.6 521.9, 713.6 515.6 M 725.3 526.0 Q 729.2 526.0, 731.3 523.4 Q 733.5 520.8, 733.5 515.6 Q 733.5 510.6, 731.3 508.1 Q 729.2 505.5, 725.3 505.5 Q 721.4 505.5, 719.3 508.1 Q 717.2 510.6, 717.2 515.6 Q 717.2 520.8, 719.3 523.4 Q 721.4 526.0, 725.3 526.0 " fill="#FF0000"/>
<path class="atom-7" d="M 787.7 643.6 L 796.1 657.2 Q 796.9 658.5, 798.2 661.0 Q 799.6 663.4, 799.7 663.5 L 799.7 643.6 L 803.1 643.6 L 803.1 669.2 L 799.5 669.2 L 790.6 654.4 Q 789.5 652.7, 788.4 650.7 Q 787.3 648.7, 787.0 648.1 L 787.0 669.2 L 783.7 669.2 L 783.7 643.6 L 787.7 643.6 " fill="#0000FF"/>
<path class="atom-7" d="M 783.3 671.8 L 786.8 671.8 L 786.8 682.7 L 799.9 682.7 L 799.9 671.8 L 803.4 671.8 L 803.4 697.4 L 799.9 697.4 L 799.9 685.6 L 786.8 685.6 L 786.8 697.4 L 783.3 697.4 L 783.3 671.8 " fill="#0000FF"/>
<path class="atom-8" d="M 869.9 614.3 L 873.6 610.5 L 868.6 609.5 L 869.4 606.9 L 874.0 609.2 L 873.3 604.2 L 876.0 604.2 L 875.3 609.2 L 879.9 607.0 L 880.7 609.5 L 875.7 610.4 L 879.3 614.3 L 877.1 615.9 L 874.6 611.1 L 872.1 615.9 L 869.9 614.3 " fill="#191919"/>
</svg>