<svg xmlns="http://www.w3.org/2000/svg" xmlns:rdkit="http://www.rdkit.org/xml" xmlns:xlink="http://www.w3.org/1999/xlink" version="1.1" baseProfile="full" xml:space="preserve" width="1200px" height="1200px" viewBox="0 0 1200 1200">
<!-- END OF HEADER -->
<rect style="opacity:1.0;fill:#FFFFFF;stroke:none" width="1200.0" height="1200.0" x="0.0" y="0.0"> </rect>
<path class="bond-0 atom-0 atom-1" d="M 68.6,215.7 L 97.2,237.8" style="fill:none;fill-rule:evenodd;stroke:#191919;stroke-width:2.0px;stroke-linecap:butt;stroke-linejoin:miter;stroke-opacity:1"/>
<path class="bond-0 atom-0 atom-1" d="M 97.2,237.8 L 125.7,259.8" style="fill:none;fill-rule:evenodd;stroke:#FF0000;stroke-width:2.0px;stroke-linecap:butt;stroke-linejoin:miter;stroke-opacity:1"/>
<path class="bond-1 atom-1 atom-2" d="M 156.5,265.4 L 192.6,250.6" style="fill:none;fill-rule:evenodd;stroke:#FF0000;stroke-width:2.0px;stroke-linecap:butt;stroke-linejoin:miter;stroke-opacity:1"/>
<path class="bond-1 atom-1 atom-2" d="M 192.6,250.6 L 228.6,235.9" style="fill:none;fill-rule:evenodd;stroke:#000000;stroke-width:2.0px;stroke-linecap:butt;stroke-linejoin:miter;stroke-opacity:1"/>
<path class="bond-2 atom-2 atom-3" d="M 228.6,235.9 L 241.3,142.2" style="fill:none;fill-rule:evenodd;stroke:#000000;stroke-width:2.0px;stroke-linecap:butt;stroke-linejoin:miter;stroke-opacity:1"/>
<path class="bond-2 atom-2 atom-3" d="M 243.7,229.7 L 254.2,152.2" style="fill:none;fill-rule:evenodd;stroke:#000000;stroke-width:2.0px;stroke-linecap:butt;stroke-linejoin:miter;stroke-opacity:1"/>
<path class="bond-3 atom-3 atom-4" d="M 241.3,142.2 L 328.7,106.3" style="fill:none;fill-rule:evenodd;stroke:#000000;stroke-width:2.0px;stroke-linecap:butt;stroke-linejoin:miter;stroke-opacity:1"/>
<path class="bond-4 atom-4 atom-5" d="M 328.7,106.3 L 403.5,164.1" style="fill:none;fill-rule:evenodd;stroke:#000000;stroke-width:2.0px;stroke-linecap:butt;stroke-linejoin:miter;stroke-opacity:1"/>
<path class="bond-4 atom-4 atom-5" d="M 326.5,122.5 L 388.4,170.3" style="fill:none;fill-rule:evenodd;stroke:#000000;stroke-width:2.0px;stroke-linecap:butt;stroke-linejoin:miter;stroke-opacity:1"/>
<path class="bond-5 atom-5 atom-6" d="M 403.5,164.1 L 491.0,128.3" style="fill:none;fill-rule:evenodd;stroke:#000000;stroke-width:2.0px;stroke-linecap:butt;stroke-linejoin:miter;stroke-opacity:1"/>
<path class="bond-6 atom-6 atom-7" d="M 491.0,128.3 L 565.8,186.1" style="fill:none;fill-rule:evenodd;stroke:#000000;stroke-width:2.0px;stroke-linecap:butt;stroke-linejoin:miter;stroke-opacity:1"/>
<path class="bond-7 atom-7 atom-8" d="M 565.8,186.1 L 653.2,150.2" style="fill:none;fill-rule:evenodd;stroke:#000000;stroke-width:2.0px;stroke-linecap:butt;stroke-linejoin:miter;stroke-opacity:1"/>
<path class="bond-8 atom-8 atom-9" d="M 653.2,150.2 L 728.0,208.0" style="fill:none;fill-rule:evenodd;stroke:#000000;stroke-width:2.0px;stroke-linecap:butt;stroke-linejoin:miter;stroke-opacity:1"/>
<path class="bond-9 atom-9 atom-10" d="M 728.0,208.0 L 815.5,172.2" style="fill:none;fill-rule:evenodd;stroke:#000000;stroke-width:2.0px;stroke-linecap:butt;stroke-linejoin:miter;stroke-opacity:1"/>
<path class="bond-10 atom-10 atom-11" d="M 815.5,172.2 L 890.3,230.0" style="fill:none;fill-rule:evenodd;stroke:#000000;stroke-width:2.0px;stroke-linecap:butt;stroke-linejoin:miter;stroke-opacity:1"/>
<path class="bond-11 atom-11 atom-12" d="M 890.3,230.0 L 977.7,194.1" style="fill:none;fill-rule:evenodd;stroke:#000000;stroke-width:2.0px;stroke-linecap:butt;stroke-linejoin:miter;stroke-opacity:1"/>
<path class="bond-12 atom-12 atom-13" d="M 977.7,194.1 L 1052.5,251.9" style="fill:none;fill-rule:evenodd;stroke:#000000;stroke-width:2.0px;stroke-linecap:butt;stroke-linejoin:miter;stroke-opacity:1"/>
<path class="bond-13 atom-13 atom-14" d="M 1052.5,251.9 L 1140.0,216.1" style="fill:none;fill-rule:evenodd;stroke:#000000;stroke-width:2.0px;stroke-linecap:butt;stroke-linejoin:miter;stroke-opacity:1"/>
<path class="bond-14 atom-5 atom-15" d="M 403.5,164.1 L 390.8,257.8" style="fill:none;fill-rule:evenodd;stroke:#000000;stroke-width:2.0px;stroke-linecap:butt;stroke-linejoin:miter;stroke-opacity:1"/>
<path class="bond-15 atom-15 atom-16" d="M 390.8,257.8 L 303.4,293.7" style="fill:none;fill-rule:evenodd;stroke:#000000;stroke-width:2.0px;stroke-linecap:butt;stroke-linejoin:miter;stroke-opacity:1"/>
<path class="bond-15 atom-15 atom-16" d="M 377.9,247.8 L 305.6,277.5" style="fill:none;fill-rule:evenodd;stroke:#000000;stroke-width:2.0px;stroke-linecap:butt;stroke-linejoin:miter;stroke-opacity:1"/>
<path class="bond-16 atom-16 atom-2" d="M 303.4,293.7 L 228.6,235.9" style="fill:none;fill-rule:evenodd;stroke:#000000;stroke-width:2.0px;stroke-linecap:butt;stroke-linejoin:miter;stroke-opacity:1"/>
<path d="M 240.6,146.9 L 241.3,142.2 L 245.6,140.4" style="fill:none;stroke:#000000;stroke-width:2.0px;stroke-linecap:butt;stroke-linejoin:miter;stroke-opacity:1;"/>
<path d="M 324.3,108.1 L 328.7,106.3 L 332.5,109.2" style="fill:none;stroke:#000000;stroke-width:2.0px;stroke-linecap:butt;stroke-linejoin:miter;stroke-opacity:1;"/>
<path d="M 486.6,130.1 L 491.0,128.3 L 494.7,131.2" style="fill:none;stroke:#000000;stroke-width:2.0px;stroke-linecap:butt;stroke-linejoin:miter;stroke-opacity:1;"/>
<path d="M 562.0,183.2 L 565.8,186.1 L 570.1,184.3" style="fill:none;stroke:#000000;stroke-width:2.0px;stroke-linecap:butt;stroke-linejoin:miter;stroke-opacity:1;"/>
<path d="M 648.9,152.0 L 653.2,150.2 L 657.0,153.1" style="fill:none;stroke:#000000;stroke-width:2.0px;stroke-linecap:butt;stroke-linejoin:miter;stroke-opacity:1;"/>
<path d="M 724.3,205.1 L 728.0,208.0 L 732.4,206.2" style="fill:none;stroke:#000000;stroke-width:2.0px;stroke-linecap:butt;stroke-linejoin:miter;stroke-opacity:1;"/>
<path d="M 811.1,174.0 L 815.5,172.2 L 819.2,175.1" style="fill:none;stroke:#000000;stroke-width:2.0px;stroke-linecap:butt;stroke-linejoin:miter;stroke-opacity:1;"/>
<path d="M 886.5,227.1 L 890.3,230.0 L 894.7,228.2" style="fill:none;stroke:#000000;stroke-width:2.0px;stroke-linecap:butt;stroke-linejoin:miter;stroke-opacity:1;"/>
<path d="M 973.4,195.9 L 977.7,194.1 L 981.5,197.0" style="fill:none;stroke:#000000;stroke-width:2.0px;stroke-linecap:butt;stroke-linejoin:miter;stroke-opacity:1;"/>
<path d="M 1048.8,249.0 L 1052.5,251.9 L 1056.9,250.1" style="fill:none;stroke:#000000;stroke-width:2.0px;stroke-linecap:butt;stroke-linejoin:miter;stroke-opacity:1;"/>
<path d="M 391.5,253.1 L 390.8,257.8 L 386.5,259.6" style="fill:none;stroke:#000000;stroke-width:2.0px;stroke-linecap:butt;stroke-linejoin:miter;stroke-opacity:1;"/>
<path d="M 307.8,291.9 L 303.4,293.7 L 299.6,290.8" style="fill:none;stroke:#000000;stroke-width:2.0px;stroke-linecap:butt;stroke-linejoin:miter;stroke-opacity:1;"/>
<path class="atom-0" d="M 61.3 210.9 L 65.2 206.9 L 60.0 205.9 L 60.8 203.2 L 65.6 205.6 L 64.9 200.3 L 67.8 200.3 L 67.0 205.6 L 71.8 203.3 L 72.7 205.9 L 67.4 206.8 L 71.2 210.9 L 68.8 212.6 L 66.2 207.6 L 63.6 212.6 L 61.3 210.9 " fill="#191919"/>
<path class="atom-1" d="M 128.8 271.8 Q 128.8 265.4, 132.0 261.8 Q 135.2 258.2, 141.1 258.2 Q 147.1 258.2, 150.2 261.8 Q 153.4 265.4, 153.4 271.8 Q 153.4 278.3, 150.2 282.0 Q 147.0 285.7, 141.1 285.7 Q 135.2 285.7, 132.0 282.0 Q 128.8 278.3, 128.8 271.8 M 141.1 282.7 Q 145.2 282.7, 147.4 279.9 Q 149.6 277.2, 149.6 271.8 Q 149.6 266.6, 147.4 263.9 Q 145.2 261.2, 141.1 261.2 Q 137.0 261.2, 134.8 263.9 Q 132.6 266.5, 132.6 271.8 Q 132.6 277.2, 134.8 279.9 Q 137.0 282.7, 141.1 282.7 " fill="#FF0000"/>
<path class="bond-0 atom-0 atom-1" d="M 447.4,626.5 L 478.8,613.8" style="fill:none;fill-rule:evenodd;stroke:#191919;stroke-width:2.0px;stroke-linecap:butt;stroke-linejoin:miter;stroke-opacity:1"/>
<path class="bond-0 atom-0 atom-1" d="M 478.8,613.8 L 510.3,601.2" style="fill:none;fill-rule:evenodd;stroke:#FF0000;stroke-width:2.0px;stroke-linecap:butt;stroke-linejoin:miter;stroke-opacity:1"/>
<path class="bond-1 atom-1 atom-2" d="M 541.1,607.2 L 570.5,630.3" style="fill:none;fill-rule:evenodd;stroke:#FF0000;stroke-width:2.0px;stroke-linecap:butt;stroke-linejoin:miter;stroke-opacity:1"/>
<path class="bond-1 atom-1 atom-2" d="M 570.5,630.3 L 600.0,653.5" style="fill:none;fill-rule:evenodd;stroke:#000000;stroke-width:2.0px;stroke-linecap:butt;stroke-linejoin:miter;stroke-opacity:1"/>
<path class="bond-2 atom-2 atom-3" d="M 600.0,653.5 L 687.7,618.3" style="fill:none;fill-rule:evenodd;stroke:#000000;stroke-width:2.0px;stroke-linecap:butt;stroke-linejoin:miter;stroke-opacity:1"/>
<path class="bond-3 atom-3 atom-4" d="M 687.7,618.3 L 720.2,643.8" style="fill:none;fill-rule:evenodd;stroke:#000000;stroke-width:2.0px;stroke-linecap:butt;stroke-linejoin:miter;stroke-opacity:1"/>
<path class="bond-3 atom-3 atom-4" d="M 720.2,643.8 L 752.6,669.2" style="fill:none;fill-rule:evenodd;stroke:#191919;stroke-width:2.0px;stroke-linecap:butt;stroke-linejoin:miter;stroke-opacity:1"/>
<path class="bond-4 atom-3 atom-5" d="M 687.7,618.3 L 701.1,524.7" style="fill:none;fill-rule:evenodd;stroke:#000000;stroke-width:2.0px;stroke-linecap:butt;stroke-linejoin:miter;stroke-opacity:1"/>
<path d="M 598.5,652.3 L 600.0,653.5 L 604.4,651.7" style="fill:none;stroke:#000000;stroke-width:2.0px;stroke-linecap:butt;stroke-linejoin:miter;stroke-opacity:1;"/>
<path class="atom-0" d="M 432.9 627.3 L 436.8 623.2 L 431.6 622.2 L 432.4 619.5 L 437.2 621.9 L 436.5 616.7 L 439.3 616.6 L 438.5 621.9 L 443.4 619.6 L 444.3 622.2 L 439.0 623.2 L 442.7 627.2 L 440.4 628.9 L 437.8 623.9 L 435.2 628.9 L 432.9 627.3 " fill="#191919"/>
<path class="atom-1" d="M 513.4 595.1 Q 513.4 588.7, 516.5 585.1 Q 519.7 581.5, 525.7 581.5 Q 531.6 581.5, 534.8 585.1 Q 538.0 588.7, 538.0 595.1 Q 538.0 601.6, 534.7 605.3 Q 531.5 609.0, 525.7 609.0 Q 519.8 609.0, 516.5 605.3 Q 513.4 601.7, 513.4 595.1 M 525.7 606.0 Q 529.7 606.0, 531.9 603.3 Q 534.2 600.5, 534.2 595.1 Q 534.2 589.9, 531.9 587.2 Q 529.7 584.5, 525.7 584.5 Q 521.6 584.5, 519.3 587.2 Q 517.2 589.8, 517.2 595.1 Q 517.2 600.5, 519.3 603.3 Q 521.6 606.0, 525.7 606.0 " fill="#FF0000"/>
<path class="atom-4" d="M 757.0 673.7 L 761.0 669.7 L 755.7 668.6 L 756.5 665.9 L 761.3 668.3 L 760.7 663.1 L 763.5 663.1 L 762.7 668.3 L 767.6 666.0 L 768.4 668.6 L 763.1 669.6 L 766.9 673.6 L 764.6 675.3 L 762.0 670.3 L 759.3 675.3 L 757.0 673.7 " fill="#191919"/>
<path class="bond-0 atom-0 atom-1" d="M 740.8,926.7 L 717.7,966.8" style="fill:none;fill-rule:evenodd;stroke:#191919;stroke-width:2.0px;stroke-linecap:butt;stroke-linejoin:miter;stroke-opacity:1"/>
<path class="bond-0 atom-0 atom-1" d="M 717.7,966.8 L 694.5,1006.8" style="fill:none;fill-rule:evenodd;stroke:#000000;stroke-width:2.0px;stroke-linecap:butt;stroke-linejoin:miter;stroke-opacity:1"/>
<path class="bond-1 atom-1 atom-2" d="M 694.5,1006.8 L 600.0,1006.8" style="fill:none;fill-rule:evenodd;stroke:#000000;stroke-width:2.0px;stroke-linecap:butt;stroke-linejoin:miter;stroke-opacity:1"/>
<path class="bond-2 atom-2 atom-3" d="M 600.0,1006.8 L 552.7,1088.7" style="fill:none;fill-rule:evenodd;stroke:#000000;stroke-width:2.0px;stroke-linecap:butt;stroke-linejoin:miter;stroke-opacity:1"/>
<path class="bond-3 atom-2 atom-4" d="M 600.0,1006.8 L 581.3,974.4" style="fill:none;fill-rule:evenodd;stroke:#000000;stroke-width:2.0px;stroke-linecap:butt;stroke-linejoin:miter;stroke-opacity:1"/>
<path class="bond-3 atom-2 atom-4" d="M 581.3,974.4 L 562.6,942.0" style="fill:none;fill-rule:evenodd;stroke:#FF0000;stroke-width:2.0px;stroke-linecap:butt;stroke-linejoin:miter;stroke-opacity:1"/>
<path class="bond-4 atom-4 atom-5" d="M 537.3,924.9 L 502.5,924.9" style="fill:none;fill-rule:evenodd;stroke:#FF0000;stroke-width:2.0px;stroke-linecap:butt;stroke-linejoin:miter;stroke-opacity:1"/>
<path class="bond-4 atom-4 atom-5" d="M 502.5,924.9 L 467.7,924.9" style="fill:none;fill-rule:evenodd;stroke:#191919;stroke-width:2.0px;stroke-linecap:butt;stroke-linejoin:miter;stroke-opacity:1"/>
<path d="M 695.7,1004.8 L 694.5,1006.8 L 689.8,1006.8" style="fill:none;stroke:#000000;stroke-width:2.0px;stroke-linecap:butt;stroke-linejoin:miter;stroke-opacity:1;"/>
<path class="atom-0" d="M 736.7 922.0 L 740.7 917.9 L 735.5 916.9 L 736.3 914.2 L 741.1 916.6 L 740.4 911.4 L 743.2 911.3 L 742.4 916.6 L 747.3 914.3 L 748.1 916.9 L 742.8 917.9 L 746.6 921.9 L 744.3 923.6 L 741.7 918.6 L 739.1 923.6 L 736.7 922.0 " fill="#191919"/>
<path class="atom-4" d="M 540.4 925.0 Q 540.4 918.6, 543.6 915.0 Q 546.8 911.4, 552.7 911.4 Q 558.7 911.4, 561.8 915.0 Q 565.0 918.6, 565.0 925.0 Q 565.0 931.5, 561.8 935.2 Q 558.6 938.9, 552.7 938.9 Q 546.8 938.9, 543.6 935.2 Q 540.4 931.6, 540.4 925.0 M 552.7 935.9 Q 556.8 935.9, 559.0 933.1 Q 561.2 930.4, 561.2 925.0 Q 561.2 919.8, 559.0 917.1 Q 556.8 914.4, 552.7 914.4 Q 548.7 914.4, 546.4 917.1 Q 544.2 919.7, 544.2 925.0 Q 544.2 930.4, 546.4 933.1 Q 548.7 935.9, 552.7 935.9 " fill="#FF0000"/>
<path class="atom-5" d="M 453.2 922.0 L 457.1 917.9 L 451.9 916.9 L 452.7 914.2 L 457.5 916.6 L 456.8 911.4 L 459.6 911.3 L 458.8 916.6 L 463.7 914.3 L 464.5 916.9 L 459.2 917.9 L 463.0 921.9 L 460.7 923.6 L 458.1 918.6 L 455.5 923.6 L 453.2 922.0 " fill="#191919"/>
</svg>