<svg xmlns="http://www.w3.org/2000/svg" xmlns:rdkit="http://www.rdkit.org/xml" xmlns:xlink="http://www.w3.org/1999/xlink" version="1.1" baseProfile="full" xml:space="preserve" width="1200px" height="1200px" viewBox="0 0 1200 1200">
<!-- END OF HEADER -->
<rect style="opacity:1.0;fill:#FFFFFF;stroke:none" width="1200.0" height="1200.0" x="0.0" y="0.0"> </rect>
<path class="bond-0 atom-0 atom-1" d="M 68.6,215.7 L 97.2,237.8" style="fill:none;fill-rule:evenodd;stroke:#191919;stroke-width:2.0px;stroke-linecap:butt;stroke-linejoin:miter;stroke-opacity:1"/>
<path class="bond-0 atom-0 atom-1" d="M 97.2,237.8 L 125.7,259.8" style="fill:none;fill-rule:evenodd;stroke:#FF0000;stroke-width:2.0px;stroke-linecap:butt;stroke-linejoin:miter;stroke-opacity:1"/>
<path class="bond-1 atom-1 atom-2" d="M 156.5,265.4 L 192.6,250.6" style="fill:none;fill-rule:evenodd;stroke:#FF0000;stroke-width:2.0px;stroke-linecap:butt;stroke-linejoin:miter;stroke-opacity:1"/>
<path class="bond-1 atom-1 atom-2" d="M 192.6,250.6 L 228.6,235.9" style="fill:none;fill-rule:evenodd;stroke:#000000;stroke-width:2.0px;stroke-linecap:butt;stroke-linejoin:miter;stroke-opacity:1"/>
<path class="bond-2 atom-2 atom-3" d="M 228.6,235.9 L 241.3,142.2" style="fill:none;fill-rule:evenodd;stroke:#000000;stroke-width:2.0px;stroke-linecap:butt;stroke-linejoin:miter;stroke-opacity:1"/>
<path class="bond-2 atom-2 atom-3" d="M 243.7,229.7 L 254.2,152.2" style="fill:none;fill-rule:evenodd;stroke:#000000;stroke-width:2.0px;stroke-linecap:butt;stroke-linejoin:miter;stroke-opacity:1"/>
<path class="bond-3 atom-3 atom-4" d="M 241.3,142.2 L 328.7,106.3" style="fill:none;fill-rule:evenodd;stroke:#000000;stroke-width:2.0px;stroke-linecap:butt;stroke-linejoin:miter;stroke-opacity:1"/>
<path class="bond-4 atom-4 atom-5" d="M 328.7,106.3 L 403.5,164.1" style="fill:none;fill-rule:evenodd;stroke:#000000;stroke-width:2.0px;stroke-linecap:butt;stroke-linejoin:miter;stroke-opacity:1"/>
<path class="bond-4 atom-4 atom-5" d="M 326.5,122.5 L 388.4,170.3" style="fill:none;fill-rule:evenodd;stroke:#000000;stroke-width:2.0px;stroke-linecap:butt;stroke-linejoin:miter;stroke-opacity:1"/>
<path class="bond-5 atom-5 atom-6" d="M 403.5,164.1 L 491.0,128.3" style="fill:none;fill-rule:evenodd;stroke:#000000;stroke-width:2.0px;stroke-linecap:butt;stroke-linejoin:miter;stroke-opacity:1"/>
<path class="bond-6 atom-6 atom-7" d="M 491.0,128.3 L 565.8,186.1" style="fill:none;fill-rule:evenodd;stroke:#000000;stroke-width:2.0px;stroke-linecap:butt;stroke-linejoin:miter;stroke-opacity:1"/>
<path class="bond-7 atom-7 atom-8" d="M 565.8,186.1 L 653.2,150.2" style="fill:none;fill-rule:evenodd;stroke:#000000;stroke-width:2.0px;stroke-linecap:butt;stroke-linejoin:miter;stroke-opacity:1"/>
<path class="bond-8 atom-8 atom-9" d="M 653.2,150.2 L 728.0,208.0" style="fill:none;fill-rule:evenodd;stroke:#000000;stroke-width:2.0px;stroke-linecap:butt;stroke-linejoin:miter;stroke-opacity:1"/>
<path class="bond-9 atom-9 atom-10" d="M 728.0,208.0 L 815.5,172.2" style="fill:none;fill-rule:evenodd;stroke:#000000;stroke-width:2.0px;stroke-linecap:butt;stroke-linejoin:miter;stroke-opacity:1"/>
<path class="bond-10 atom-10 atom-11" d="M 815.5,172.2 L 890.3,230.0" style="fill:none;fill-rule:evenodd;stroke:#000000;stroke-width:2.0px;stroke-linecap:butt;stroke-linejoin:miter;stroke-opacity:1"/>
<path class="bond-11 atom-11 atom-12" d="M 890.3,230.0 L 977.7,194.1" style="fill:none;fill-rule:evenodd;stroke:#000000;stroke-width:2.0px;stroke-linecap:butt;stroke-linejoin:miter;stroke-opacity:1"/>
<path class="bond-12 atom-12 atom-13" d="M 977.7,194.1 L 1052.5,251.9" style="fill:none;fill-rule:evenodd;stroke:#000000;stroke-width:2.0px;stroke-linecap:butt;stroke-linejoin:miter;stroke-opacity:1"/>
<path class="bond-13 atom-13 atom-14" d="M 1052.5,251.9 L 1140.0,216.1" style="fill:none;fill-rule:evenodd;stroke:#000000;stroke-width:2.0px;stroke-linecap:butt;stroke-linejoin:miter;stroke-opacity:1"/>
<path class="bond-14 atom-5 atom-15" d="M 403.5,164.1 L 390.8,257.8" style="fill:none;fill-rule:evenodd;stroke:#000000;stroke-width:2.0px;stroke-linecap:butt;stroke-linejoin:miter;stroke-opacity:1"/>
<path class="bond-15 atom-15 atom-16" d="M 390.8,257.8 L 303.4,293.7" style="fill:none;fill-rule:evenodd;stroke:#000000;stroke-width:2.0px;stroke-linecap:butt;stroke-linejoin:miter;stroke-opacity:1"/>
<path class="bond-15 atom-15 atom-16" d="M 377.9,247.8 L 305.6,277.5" style="fill:none;fill-rule:evenodd;stroke:#000000;stroke-width:2.0px;stroke-linecap:butt;stroke-linejoin:miter;stroke-opacity:1"/>
<path class="bond-16 atom-16 atom-2" d="M 303.4,293.7 L 228.6,235.9" style="fill:none;fill-rule:evenodd;stroke:#000000;stroke-width:2.0px;stroke-linecap:butt;stroke-linejoin:miter;stroke-opacity:1"/>
<path d="M 240.6,146.9 L 241.3,142.2 L 245.6,140.4" style="fill:none;stroke:#000000;stroke-width:2.0px;stroke-linecap:butt;stroke-linejoin:miter;stroke-opacity:1;"/>
<path d="M 324.3,108.1 L 328.7,106.3 L 332.5,109.2" style="fill:none;stroke:#000000;stroke-width:2.0px;stroke-linecap:butt;stroke-linejoin:miter;stroke-opacity:1;"/>
<path d="M 486.6,130.1 L 491.0,128.3 L 494.7,131.2" style="fill:none;stroke:#000000;stroke-width:2.0px;stroke-linecap:butt;stroke-linejoin:miter;stroke-opacity:1;"/>
<path d="M 562.0,183.2 L 565.8,186.1 L 570.1,184.3" style="fill:none;stroke:#000000;stroke-width:2.0px;stroke-linecap:butt;stroke-linejoin:miter;stroke-opacity:1;"/>
<path d="M 648.9,152.0 L 653.2,150.2 L 657.0,153.1" style="fill:none;stroke:#000000;stroke-width:2.0px;stroke-linecap:butt;stroke-linejoin:miter;stroke-opacity:1;"/>
<path d="M 724.3,205.1 L 728.0,208.0 L 732.4,206.2" style="fill:none;stroke:#000000;stroke-width:2.0px;stroke-linecap:butt;stroke-linejoin:miter;stroke-opacity:1;"/>
<path d="M 811.1,174.0 L 815.5,172.2 L 819.2,175.1" style="fill:none;stroke:#000000;stroke-width:2.0px;stroke-linecap:butt;stroke-linejoin:miter;stroke-opacity:1;"/>
<path d="M 886.5,227.1 L 890.3,230.0 L 894.7,228.2" style="fill:none;stroke:#000000;stroke-width:2.0px;stroke-linecap:butt;stroke-linejoin:miter;stroke-opacity:1;"/>
<path d="M 973.4,195.9 L 977.7,194.1 L 981.5,197.0" style="fill:none;stroke:#000000;stroke-width:2.0px;stroke-linecap:butt;stroke-linejoin:miter;stroke-opacity:1;"/>
<path d="M 1048.8,249.0 L 1052.5,251.9 L 1056.9,250.1" style="fill:none;stroke:#000000;stroke-width:2.0px;stroke-linecap:butt;stroke-linejoin:miter;stroke-opacity:1;"/>
<path d="M 391.5,253.1 L 390.8,257.8 L 386.5,259.6" style="fill:none;stroke:#000000;stroke-width:2.0px;stroke-linecap:butt;stroke-linejoin:miter;stroke-opacity:1;"/>
<path d="M 307.8,291.9 L 303.4,293.7 L 299.6,290.8" style="fill:none;stroke:#000000;stroke-width:2.0px;stroke-linecap:butt;stroke-linejoin:miter;stroke-opacity:1;"/>
<path class="atom-0" d="M 61.3 210.9 L 65.2 206.9 L 60.0 205.9 L 60.8 203.2 L 65.6 205.6 L 64.9 200.3 L 67.8 200.3 L 67.0 205.6 L 71.8 203.3 L 72.7 205.9 L 67.4 206.8 L 71.2 210.9 L 68.8 212.6 L 66.2 207.6 L 63.6 212.6 L 61.3 210.9 " fill="#191919"/>
<path class="atom-1" d="M 128.8 271.8 Q 128.8 265.4, 132.0 261.8 Q 135.2 258.2, 141.1 258.2 Q 147.1 258.2, 150.2 261.8 Q 153.4 265.4, 153.4 271.8 Q 153.4 278.3, 150.2 282.0 Q 147.0 285.7, 141.1 285.7 Q 135.2 285.7, 132.0 282.0 Q 128.8 278.3, 128.8 271.8 M 141.1 282.7 Q 145.2 282.7, 147.4 279.9 Q 149.6 277.2, 149.6 271.8 Q 149.6 266.6, 147.4 263.9 Q 145.2 261.2, 141.1 261.2 Q 137.0 261.2, 134.8 263.9 Q 132.6 266.5, 132.6 271.8 Q 132.6 277.2, 134.8 279.9 Q 137.0 282.7, 141.1 282.7 " fill="#FF0000"/>
<path class="bond-0 atom-0 atom-1" d="M 740.8,526.7 L 717.7,566.8" style="fill:none;fill-rule:evenodd;stroke:#191919;stroke-width:2.0px;stroke-linecap:butt;stroke-linejoin:miter;stroke-opacity:1"/>
<path class="bond-0 atom-0 atom-1" d="M 717.7,566.8 L 694.5,606.8" style="fill:none;fill-rule:evenodd;stroke:#000000;stroke-width:2.0px;stroke-linecap:butt;stroke-linejoin:miter;stroke-opacity:1"/>
<path class="bond-1 atom-1 atom-2" d="M 694.5,606.8 L 600.0,606.8" style="fill:none;fill-rule:evenodd;stroke:#000000;stroke-width:2.0px;stroke-linecap:butt;stroke-linejoin:miter;stroke-opacity:1"/>
<path class="bond-2 atom-2 atom-3" d="M 600.0,606.8 L 552.7,688.7" style="fill:none;fill-rule:evenodd;stroke:#000000;stroke-width:2.0px;stroke-linecap:butt;stroke-linejoin:miter;stroke-opacity:1"/>
<path class="bond-3 atom-2 atom-4" d="M 600.0,606.8 L 581.3,574.4" style="fill:none;fill-rule:evenodd;stroke:#000000;stroke-width:2.0px;stroke-linecap:butt;stroke-linejoin:miter;stroke-opacity:1"/>
<path class="bond-3 atom-2 atom-4" d="M 581.3,574.4 L 562.6,542.0" style="fill:none;fill-rule:evenodd;stroke:#FF0000;stroke-width:2.0px;stroke-linecap:butt;stroke-linejoin:miter;stroke-opacity:1"/>
<path class="bond-4 atom-4 atom-5" d="M 537.3,524.9 L 502.5,524.9" style="fill:none;fill-rule:evenodd;stroke:#FF0000;stroke-width:2.0px;stroke-linecap:butt;stroke-linejoin:miter;stroke-opacity:1"/>
<path class="bond-4 atom-4 atom-5" d="M 502.5,524.9 L 467.7,524.9" style="fill:none;fill-rule:evenodd;stroke:#191919;stroke-width:2.0px;stroke-linecap:butt;stroke-linejoin:miter;stroke-opacity:1"/>
<path d="M 695.7,604.8 L 694.5,606.8 L 689.8,606.8" style="fill:none;stroke:#000000;stroke-width:2.0px;stroke-linecap:butt;stroke-linejoin:miter;stroke-opacity:1;"/>
<path class="atom-0" d="M 736.7 522.0 L 740.7 517.9 L 735.5 516.9 L 736.3 514.2 L 741.1 516.6 L 740.4 511.4 L 743.2 511.3 L 742.4 516.6 L 747.3 514.3 L 748.1 516.9 L 742.8 517.9 L 746.6 521.9 L 744.3 523.6 L 741.7 518.6 L 739.1 523.6 L 736.7 522.0 " fill="#191919"/>
<path class="atom-4" d="M 540.4 525.0 Q 540.4 518.6, 543.6 515.0 Q 546.8 511.4, 552.7 511.4 Q 558.7 511.4, 561.8 515.0 Q 565.0 518.6, 565.0 525.0 Q 565.0 531.5, 561.8 535.2 Q 558.6 538.9, 552.7 538.9 Q 546.8 538.9, 543.6 535.2 Q 540.4 531.6, 540.4 525.0 M 552.7 535.9 Q 556.8 535.9, 559.0 533.1 Q 561.2 530.4, 561.2 525.0 Q 561.2 519.8, 559.0 517.1 Q 556.8 514.4, 552.7 514.4 Q 548.7 514.4, 546.4 517.1 Q 544.2 519.7, 544.2 525.0 Q 544.2 530.4, 546.4 533.1 Q 548.7 535.9, 552.7 535.9 " fill="#FF0000"/>
<path class="atom-5" d="M 453.2 522.0 L 457.1 517.9 L 451.9 516.9 L 452.7 514.2 L 457.5 516.6 L 456.8 511.4 L 459.6 511.3 L 458.8 516.6 L 463.7 514.3 L 464.5 516.9 L 459.2 517.9 L 463.0 521.9 L 460.7 523.6 L 458.1 518.6 L 455.5 523.6 L 453.2 522.0 " fill="#191919"/>
<path class="bond-0 atom-0 atom-1" d="M 447.4,1026.5 L 478.8,1013.8" style="fill:none;fill-rule:evenodd;stroke:#191919;stroke-width:2.0px;stroke-linecap:butt;stroke-linejoin:miter;stroke-opacity:1"/>
<path class="bond-0 atom-0 atom-1" d="M 478.8,1013.8 L 510.3,1001.2" style="fill:none;fill-rule:evenodd;stroke:#FF0000;stroke-width:2.0px;stroke-linecap:butt;stroke-linejoin:miter;stroke-opacity:1"/>
<path class="bond-1 atom-1 atom-2" d="M 541.1,1007.2 L 570.5,1030.3" style="fill:none;fill-rule:evenodd;stroke:#FF0000;stroke-width:2.0px;stroke-linecap:butt;stroke-linejoin:miter;stroke-opacity:1"/>
<path class="bond-1 atom-1 atom-2" d="M 570.5,1030.3 L 600.0,1053.5" style="fill:none;fill-rule:evenodd;stroke:#000000;stroke-width:2.0px;stroke-linecap:butt;stroke-linejoin:miter;stroke-opacity:1"/>
<path class="bond-2 atom-2 atom-3" d="M 600.0,1053.5 L 687.7,1018.3" style="fill:none;fill-rule:evenodd;stroke:#000000;stroke-width:2.0px;stroke-linecap:butt;stroke-linejoin:miter;stroke-opacity:1"/>
<path class="bond-3 atom-3 atom-4" d="M 687.7,1018.3 L 720.2,1043.8" style="fill:none;fill-rule:evenodd;stroke:#000000;stroke-width:2.0px;stroke-linecap:butt;stroke-linejoin:miter;stroke-opacity:1"/>
<path class="bond-3 atom-3 atom-4" d="M 720.2,1043.8 L 752.6,1069.2" style="fill:none;fill-rule:evenodd;stroke:#191919;stroke-width:2.0px;stroke-linecap:butt;stroke-linejoin:miter;stroke-opacity:1"/>
<path class="bond-4 atom-3 atom-5" d="M 687.7,1018.3 L 701.1,924.7" style="fill:none;fill-rule:evenodd;stroke:#000000;stroke-width:2.0px;stroke-linecap:butt;stroke-linejoin:miter;stroke-opacity:1"/>
<path d="M 598.5,1052.3 L 600.0,1053.5 L 604.4,1051.7" style="fill:none;stroke:#000000;stroke-width:2.0px;stroke-linecap:butt;stroke-linejoin:miter;stroke-opacity:1;"/>
<path class="atom-0" d="M 432.9 1027.3 L 436.8 1023.2 L 431.6 1022.2 L 432.4 1019.5 L 437.2 1021.9 L 436.5 1016.7 L 439.3 1016.6 L 438.5 1021.9 L 443.4 1019.6 L 444.3 1022.2 L 439.0 1023.2 L 442.7 1027.2 L 440.4 1028.9 L 437.8 1023.9 L 435.2 1028.9 L 432.9 1027.3 " fill="#191919"/>
<path class="atom-1" d="M 513.4 995.1 Q 513.4 988.7, 516.5 985.1 Q 519.7 981.5, 525.7 981.5 Q 531.6 981.5, 534.8 985.1 Q 538.0 988.7, 538.0 995.1 Q 538.0 1001.6, 534.7 1005.3 Q 531.5 1009.0, 525.7 1009.0 Q 519.8 1009.0, 516.5 1005.3 Q 513.4 1001.7, 513.4 995.1 M 525.7 1006.0 Q 529.7 1006.0, 531.9 1003.3 Q 534.2 1000.5, 534.2 995.1 Q 534.2 989.9, 531.9 987.2 Q 529.7 984.5, 525.7 984.5 Q 521.6 984.5, 519.3 987.2 Q 517.2 989.8, 517.2 995.1 Q 517.2 1000.5, 519.3 1003.3 Q 521.6 1006.0, 525.7 1006.0 " fill="#FF0000"/>
<path class="atom-4" d="M 757.0 1073.7 L 761.0 1069.7 L 755.7 1068.6 L 756.5 1065.9 L 761.3 1068.3 L 760.7 1063.1 L 763.5 1063.1 L 762.7 1068.3 L 767.6 1066.0 L 768.4 1068.6 L 763.1 1069.6 L 766.9 1073.6 L 764.6 1075.3 L 762.0 1070.3 L 759.3 1075.3 L 757.0 1073.7 " fill="#191919"/>
</svg>