<svg xmlns="http://www.w3.org/2000/svg" xmlns:rdkit="http://www.rdkit.org/xml" xmlns:xlink="http://www.w3.org/1999/xlink" version="1.1" baseProfile="full" xml:space="preserve" width="1200px" height="800px" viewBox="0 0 1200 800">
<!-- END OF HEADER -->
<rect style="opacity:1.0;fill:#FFFFFF;stroke:none" width="1200.0" height="800.0" x="0.0" y="0.0"> </rect>
<path class="bond-0 atom-0 atom-1" d="M 275.7,199.5 L 325.4,187.0" style="fill:none;fill-rule:evenodd;stroke:#191919;stroke-width:2.0px;stroke-linecap:butt;stroke-linejoin:miter;stroke-opacity:1"/>
<path class="bond-0 atom-0 atom-1" d="M 325.4,187.0 L 375.1,174.5" style="fill:none;fill-rule:evenodd;stroke:#000000;stroke-width:2.0px;stroke-linecap:butt;stroke-linejoin:miter;stroke-opacity:1"/>
<path class="bond-1 atom-1 atom-2" d="M 375.1,174.5 L 454.0,255.9" style="fill:none;fill-rule:evenodd;stroke:#000000;stroke-width:2.0px;stroke-linecap:butt;stroke-linejoin:miter;stroke-opacity:1"/>
<path class="bond-1 atom-1 atom-2" d="M 369.8,193.4 L 441.8,267.7" style="fill:none;fill-rule:evenodd;stroke:#000000;stroke-width:2.0px;stroke-linecap:butt;stroke-linejoin:miter;stroke-opacity:1"/>
<path class="bond-2 atom-2 atom-3" d="M 454.0,255.9 L 563.9,228.2" style="fill:none;fill-rule:evenodd;stroke:#000000;stroke-width:2.0px;stroke-linecap:butt;stroke-linejoin:miter;stroke-opacity:1"/>
<path class="bond-3 atom-3 atom-4" d="M 563.9,228.2 L 595.0,260.3" style="fill:none;fill-rule:evenodd;stroke:#000000;stroke-width:2.0px;stroke-linecap:butt;stroke-linejoin:miter;stroke-opacity:1"/>
<path class="bond-3 atom-3 atom-4" d="M 595.0,260.3 L 626.0,292.3" style="fill:none;fill-rule:evenodd;stroke:#FF0000;stroke-width:2.0px;stroke-linecap:butt;stroke-linejoin:miter;stroke-opacity:1"/>
<path class="bond-4 atom-4 atom-5" d="M 659.5,305.4 L 706.1,293.7" style="fill:none;fill-rule:evenodd;stroke:#FF0000;stroke-width:2.0px;stroke-linecap:butt;stroke-linejoin:miter;stroke-opacity:1"/>
<path class="bond-4 atom-4 atom-5" d="M 706.1,293.7 L 752.7,281.9" style="fill:none;fill-rule:evenodd;stroke:#000000;stroke-width:2.0px;stroke-linecap:butt;stroke-linejoin:miter;stroke-opacity:1"/>
<path class="bond-5 atom-5 atom-6" d="M 752.7,281.9 L 783.7,314.0" style="fill:none;fill-rule:evenodd;stroke:#000000;stroke-width:2.0px;stroke-linecap:butt;stroke-linejoin:miter;stroke-opacity:1"/>
<path class="bond-5 atom-5 atom-6" d="M 783.7,314.0 L 814.8,346.0" style="fill:none;fill-rule:evenodd;stroke:#FF0000;stroke-width:2.0px;stroke-linecap:butt;stroke-linejoin:miter;stroke-opacity:1"/>
<path class="bond-6 atom-6 atom-7" d="M 848.3,359.1 L 894.9,347.4" style="fill:none;fill-rule:evenodd;stroke:#FF0000;stroke-width:2.0px;stroke-linecap:butt;stroke-linejoin:miter;stroke-opacity:1"/>
<path class="bond-6 atom-6 atom-7" d="M 894.9,347.4 L 941.5,335.7" style="fill:none;fill-rule:evenodd;stroke:#000000;stroke-width:2.0px;stroke-linecap:butt;stroke-linejoin:miter;stroke-opacity:1"/>
<path class="bond-7 atom-5 atom-8" d="M 752.7,281.9 L 765.6,236.7" style="fill:none;fill-rule:evenodd;stroke:#000000;stroke-width:2.0px;stroke-linecap:butt;stroke-linejoin:miter;stroke-opacity:1"/>
<path class="bond-7 atom-5 atom-8" d="M 765.6,236.7 L 778.4,191.5" style="fill:none;fill-rule:evenodd;stroke:#FF0000;stroke-width:2.0px;stroke-linecap:butt;stroke-linejoin:miter;stroke-opacity:1"/>
<path class="bond-8 atom-8 atom-9" d="M 800.4,168.8 L 847.0,157.0" style="fill:none;fill-rule:evenodd;stroke:#FF0000;stroke-width:2.0px;stroke-linecap:butt;stroke-linejoin:miter;stroke-opacity:1"/>
<path class="bond-8 atom-8 atom-9" d="M 847.0,157.0 L 893.6,145.3" style="fill:none;fill-rule:evenodd;stroke:#000000;stroke-width:2.0px;stroke-linecap:butt;stroke-linejoin:miter;stroke-opacity:1"/>
<path class="bond-9 atom-9 atom-10" d="M 893.6,145.3 L 908.8,92.0" style="fill:none;fill-rule:evenodd;stroke:#000000;stroke-width:2.0px;stroke-linecap:butt;stroke-linejoin:miter;stroke-opacity:1"/>
<path class="bond-9 atom-9 atom-10" d="M 908.8,92.0 L 924.0,38.6" style="fill:none;fill-rule:evenodd;stroke:#191919;stroke-width:2.0px;stroke-linecap:butt;stroke-linejoin:miter;stroke-opacity:1"/>
<path d="M 372.7,175.1 L 375.1,174.5 L 379.1,178.6" style="fill:none;stroke:#000000;stroke-width:2.0px;stroke-linecap:butt;stroke-linejoin:miter;stroke-opacity:1;"/>
<path d="M 450.1,251.8 L 454.0,255.9 L 459.5,254.5" style="fill:none;stroke:#000000;stroke-width:2.0px;stroke-linecap:butt;stroke-linejoin:miter;stroke-opacity:1;"/>
<path d="M 558.4,229.6 L 563.9,228.2 L 565.5,229.8" style="fill:none;stroke:#000000;stroke-width:2.0px;stroke-linecap:butt;stroke-linejoin:miter;stroke-opacity:1;"/>
<path d="M 891.3,145.9 L 893.6,145.3 L 894.3,142.7" style="fill:none;stroke:#000000;stroke-width:2.0px;stroke-linecap:butt;stroke-linejoin:miter;stroke-opacity:1;"/>
<path class="atom-0" d="M 259.9 199.0 L 264.1 194.7 L 258.5 193.6 L 259.4 190.8 L 264.5 193.3 L 263.7 187.8 L 266.7 187.7 L 265.9 193.3 L 271.1 190.9 L 271.9 193.6 L 266.3 194.7 L 270.3 198.9 L 267.9 200.7 L 265.1 195.4 L 262.3 200.7 L 259.9 199.0 " fill="#191919"/>
<path class="atom-4" d="M 629.8 309.7 Q 629.8 302.9, 633.1 299.1 Q 636.5 295.3, 642.8 295.3 Q 649.1 295.3, 652.4 299.1 Q 655.8 302.9, 655.8 309.7 Q 655.8 316.5, 652.4 320.5 Q 649.0 324.3, 642.8 324.3 Q 636.5 324.3, 633.1 320.5 Q 629.8 316.6, 629.8 309.7 M 642.8 321.1 Q 647.1 321.1, 649.4 318.3 Q 651.8 315.3, 651.8 309.7 Q 651.8 304.1, 649.4 301.3 Q 647.1 298.5, 642.8 298.5 Q 638.5 298.5, 636.1 301.3 Q 633.8 304.1, 633.8 309.7 Q 633.8 315.4, 636.1 318.3 Q 638.5 321.1, 642.8 321.1 " fill="#FF0000"/>
<path class="atom-6" d="M 818.6 363.4 Q 818.6 356.6, 821.9 352.8 Q 825.3 349.0, 831.6 349.0 Q 837.8 349.0, 841.2 352.8 Q 844.6 356.6, 844.6 363.4 Q 844.6 370.3, 841.2 374.2 Q 837.8 378.1, 831.6 378.1 Q 825.3 378.1, 821.9 374.2 Q 818.6 370.3, 818.6 363.4 M 831.6 374.9 Q 835.9 374.9, 838.2 372.0 Q 840.6 369.1, 840.6 363.4 Q 840.6 357.8, 838.2 355.0 Q 835.9 352.2, 831.6 352.2 Q 827.2 352.2, 824.9 355.0 Q 822.6 357.8, 822.6 363.4 Q 822.6 369.1, 824.9 372.0 Q 827.2 374.9, 831.6 374.9 " fill="#FF0000"/>
<path class="atom-8" d="M 770.7 173.0 Q 770.7 166.2, 774.1 162.4 Q 777.4 158.6, 783.7 158.6 Q 790.0 158.6, 793.3 162.4 Q 796.7 166.2, 796.7 173.0 Q 796.7 179.9, 793.3 183.8 Q 789.9 187.7, 783.7 187.7 Q 777.5 187.7, 774.1 183.8 Q 770.7 180.0, 770.7 173.0 M 783.7 184.5 Q 788.0 184.5, 790.3 181.6 Q 792.7 178.7, 792.7 173.0 Q 792.7 167.5, 790.3 164.7 Q 788.0 161.8, 783.7 161.8 Q 779.4 161.8, 777.0 164.6 Q 774.7 167.4, 774.7 173.0 Q 774.7 178.8, 777.0 181.6 Q 779.4 184.5, 783.7 184.5 " fill="#FF0000"/>
<path class="atom-10" d="M 919.3 33.2 L 923.4 28.9 L 917.9 27.8 L 918.7 25.0 L 923.8 27.5 L 923.1 22.0 L 926.1 21.9 L 925.3 27.5 L 930.4 25.1 L 931.3 27.8 L 925.7 28.9 L 929.7 33.1 L 927.3 34.9 L 924.5 29.6 L 921.7 34.9 L 919.3 33.2 " fill="#191919"/>
<path class="bond-0 atom-0 atom-1" d="M 168.4,609.5 L 212.8,584.9" style="fill:none;fill-rule:evenodd;stroke:#191919;stroke-width:2.0px;stroke-linecap:butt;stroke-linejoin:miter;stroke-opacity:1"/>
<path class="bond-0 atom-0 atom-1" d="M 212.8,584.9 L 257.1,560.3" style="fill:none;fill-rule:evenodd;stroke:#000000;stroke-width:2.0px;stroke-linecap:butt;stroke-linejoin:miter;stroke-opacity:1"/>
<path class="bond-1 atom-1 atom-2" d="M 257.1,560.3 L 354.2,618.7" style="fill:none;fill-rule:evenodd;stroke:#000000;stroke-width:2.0px;stroke-linecap:butt;stroke-linejoin:miter;stroke-opacity:1"/>
<path class="bond-1 atom-1 atom-2" d="M 256.7,579.9 L 345.4,633.3" style="fill:none;fill-rule:evenodd;stroke:#000000;stroke-width:2.0px;stroke-linecap:butt;stroke-linejoin:miter;stroke-opacity:1"/>
<path class="bond-2 atom-2 atom-3" d="M 354.2,618.7 L 453.3,563.8" style="fill:none;fill-rule:evenodd;stroke:#000000;stroke-width:2.0px;stroke-linecap:butt;stroke-linejoin:miter;stroke-opacity:1"/>
<path class="bond-3 atom-3 atom-4" d="M 453.3,563.8 L 550.4,622.2" style="fill:none;fill-rule:evenodd;stroke:#000000;stroke-width:2.0px;stroke-linecap:butt;stroke-linejoin:miter;stroke-opacity:1"/>
<path class="bond-4 atom-4 atom-5" d="M 550.4,622.2 L 649.6,567.3" style="fill:none;fill-rule:evenodd;stroke:#000000;stroke-width:2.0px;stroke-linecap:butt;stroke-linejoin:miter;stroke-opacity:1"/>
<path class="bond-5 atom-5 atom-6" d="M 649.6,567.3 L 746.7,625.6" style="fill:none;fill-rule:evenodd;stroke:#000000;stroke-width:2.0px;stroke-linecap:butt;stroke-linejoin:miter;stroke-opacity:1"/>
<path class="bond-5 atom-5 atom-6" d="M 649.2,586.9 L 737.9,640.2" style="fill:none;fill-rule:evenodd;stroke:#000000;stroke-width:2.0px;stroke-linecap:butt;stroke-linejoin:miter;stroke-opacity:1"/>
<path class="bond-6 atom-6 atom-7" d="M 746.7,625.6 L 845.8,570.7" style="fill:none;fill-rule:evenodd;stroke:#000000;stroke-width:2.0px;stroke-linecap:butt;stroke-linejoin:miter;stroke-opacity:1"/>
<path class="bond-7 atom-7 atom-8" d="M 845.8,570.7 L 942.9,629.1" style="fill:none;fill-rule:evenodd;stroke:#000000;stroke-width:2.0px;stroke-linecap:butt;stroke-linejoin:miter;stroke-opacity:1"/>
<path class="bond-8 atom-8 atom-9" d="M 942.9,629.1 L 990.4,602.8" style="fill:none;fill-rule:evenodd;stroke:#000000;stroke-width:2.0px;stroke-linecap:butt;stroke-linejoin:miter;stroke-opacity:1"/>
<path class="bond-8 atom-8 atom-9" d="M 990.4,602.8 L 1037.9,576.5" style="fill:none;fill-rule:evenodd;stroke:#191919;stroke-width:2.0px;stroke-linecap:butt;stroke-linejoin:miter;stroke-opacity:1"/>
<path d="M 254.9,561.6 L 257.1,560.3 L 261.9,563.2" style="fill:none;stroke:#000000;stroke-width:2.0px;stroke-linecap:butt;stroke-linejoin:miter;stroke-opacity:1;"/>
<path d="M 349.4,615.8 L 354.2,618.7 L 359.2,616.0" style="fill:none;stroke:#000000;stroke-width:2.0px;stroke-linecap:butt;stroke-linejoin:miter;stroke-opacity:1;"/>
<path d="M 448.4,566.5 L 453.3,563.8 L 458.2,566.7" style="fill:none;stroke:#000000;stroke-width:2.0px;stroke-linecap:butt;stroke-linejoin:miter;stroke-opacity:1;"/>
<path d="M 545.6,619.3 L 550.4,622.2 L 555.4,619.4" style="fill:none;stroke:#000000;stroke-width:2.0px;stroke-linecap:butt;stroke-linejoin:miter;stroke-opacity:1;"/>
<path d="M 644.6,570.0 L 649.6,567.3 L 654.4,570.2" style="fill:none;stroke:#000000;stroke-width:2.0px;stroke-linecap:butt;stroke-linejoin:miter;stroke-opacity:1;"/>
<path d="M 741.8,622.7 L 746.7,625.6 L 751.6,622.9" style="fill:none;stroke:#000000;stroke-width:2.0px;stroke-linecap:butt;stroke-linejoin:miter;stroke-opacity:1;"/>
<path d="M 840.8,573.5 L 845.8,570.7 L 850.6,573.6" style="fill:none;stroke:#000000;stroke-width:2.0px;stroke-linecap:butt;stroke-linejoin:miter;stroke-opacity:1;"/>
<path d="M 938.1,626.2 L 942.9,629.1 L 945.3,627.8" style="fill:none;stroke:#000000;stroke-width:2.0px;stroke-linecap:butt;stroke-linejoin:miter;stroke-opacity:1;"/>
<path class="atom-0" d="M 152.6 612.1 L 156.8 607.8 L 151.3 606.7 L 152.1 603.9 L 157.2 606.4 L 156.5 600.9 L 159.5 600.8 L 158.6 606.4 L 163.8 604.0 L 164.7 606.7 L 159.1 607.8 L 163.1 612.0 L 160.6 613.8 L 157.9 608.5 L 155.1 613.8 L 152.6 612.1 " fill="#191919"/>
<path class="atom-9" d="M 1036.7 571.0 L 1040.8 566.8 L 1035.3 565.7 L 1036.2 562.8 L 1041.2 565.4 L 1040.5 559.8 L 1043.5 559.8 L 1042.7 565.4 L 1047.8 563.0 L 1048.7 565.7 L 1043.1 566.7 L 1047.1 571.0 L 1044.7 572.8 L 1041.9 567.5 L 1039.1 572.8 L 1036.7 571.0 " fill="#191919"/>
</svg>