<svg xmlns="http://www.w3.org/2000/svg" xmlns:rdkit="http://www.rdkit.org/xml" xmlns:xlink="http://www.w3.org/1999/xlink" version="1.1" baseProfile="full" xml:space="preserve" width="1200px" height="800px" viewBox="0 0 1200 800">
<!-- END OF HEADER -->
<rect style="opacity:1.0;fill:#FFFFFF;stroke:none" width="1200.0" height="800.0" x="0.0" y="0.0"> </rect>
<path class="bond-0 atom-0 atom-1" d="M 964.8,57.1 L 933.9,108.0" style="fill:none;fill-rule:evenodd;stroke:#191919;stroke-width:2.0px;stroke-linecap:butt;stroke-linejoin:miter;stroke-opacity:1"/>
<path class="bond-0 atom-0 atom-1" d="M 933.9,108.0 L 902.9,158.9" style="fill:none;fill-rule:evenodd;stroke:#000000;stroke-width:2.0px;stroke-linecap:butt;stroke-linejoin:miter;stroke-opacity:1"/>
<path class="bond-1 atom-1 atom-2" d="M 902.9,158.9 L 780.8,156.1" style="fill:none;fill-rule:evenodd;stroke:#000000;stroke-width:2.0px;stroke-linecap:butt;stroke-linejoin:miter;stroke-opacity:1"/>
<path class="bond-2 atom-2 atom-3" d="M 780.8,156.1 L 754.6,199.1" style="fill:none;fill-rule:evenodd;stroke:#000000;stroke-width:2.0px;stroke-linecap:butt;stroke-linejoin:miter;stroke-opacity:1"/>
<path class="bond-2 atom-2 atom-3" d="M 754.6,199.1 L 728.4,242.1" style="fill:none;fill-rule:evenodd;stroke:#FF0000;stroke-width:2.0px;stroke-linecap:butt;stroke-linejoin:miter;stroke-opacity:1"/>
<path class="bond-3 atom-3 atom-4" d="M 700.2,260.1 L 647.7,258.9" style="fill:none;fill-rule:evenodd;stroke:#FF0000;stroke-width:2.0px;stroke-linecap:butt;stroke-linejoin:miter;stroke-opacity:1"/>
<path class="bond-3 atom-3 atom-4" d="M 647.7,258.9 L 595.1,257.6" style="fill:none;fill-rule:evenodd;stroke:#000000;stroke-width:2.0px;stroke-linecap:butt;stroke-linejoin:miter;stroke-opacity:1"/>
<path class="bond-4 atom-4 atom-5" d="M 595.1,257.6 L 568.9,300.6" style="fill:none;fill-rule:evenodd;stroke:#000000;stroke-width:2.0px;stroke-linecap:butt;stroke-linejoin:miter;stroke-opacity:1"/>
<path class="bond-4 atom-4 atom-5" d="M 568.9,300.6 L 542.8,343.7" style="fill:none;fill-rule:evenodd;stroke:#FF0000;stroke-width:2.0px;stroke-linecap:butt;stroke-linejoin:miter;stroke-opacity:1"/>
<path class="bond-5 atom-5 atom-6" d="M 514.6,361.6 L 462.0,360.4" style="fill:none;fill-rule:evenodd;stroke:#FF0000;stroke-width:2.0px;stroke-linecap:butt;stroke-linejoin:miter;stroke-opacity:1"/>
<path class="bond-5 atom-5 atom-6" d="M 462.0,360.4 L 409.5,359.2" style="fill:none;fill-rule:evenodd;stroke:#000000;stroke-width:2.0px;stroke-linecap:butt;stroke-linejoin:miter;stroke-opacity:1"/>
<path class="bond-6 atom-4 atom-7" d="M 595.1,257.6 L 570.9,213.4" style="fill:none;fill-rule:evenodd;stroke:#000000;stroke-width:2.0px;stroke-linecap:butt;stroke-linejoin:miter;stroke-opacity:1"/>
<path class="bond-6 atom-4 atom-7" d="M 570.9,213.4 L 546.8,169.2" style="fill:none;fill-rule:evenodd;stroke:#FF0000;stroke-width:2.0px;stroke-linecap:butt;stroke-linejoin:miter;stroke-opacity:1"/>
<path class="bond-7 atom-7 atom-8" d="M 519.5,150.1 L 466.9,148.9" style="fill:none;fill-rule:evenodd;stroke:#FF0000;stroke-width:2.0px;stroke-linecap:butt;stroke-linejoin:miter;stroke-opacity:1"/>
<path class="bond-7 atom-7 atom-8" d="M 466.9,148.9 L 414.3,147.6" style="fill:none;fill-rule:evenodd;stroke:#000000;stroke-width:2.0px;stroke-linecap:butt;stroke-linejoin:miter;stroke-opacity:1"/>
<path class="bond-8 atom-8 atom-9" d="M 414.3,147.6 L 355.7,40.5" style="fill:none;fill-rule:evenodd;stroke:#000000;stroke-width:2.0px;stroke-linecap:butt;stroke-linejoin:miter;stroke-opacity:1"/>
<path class="bond-9 atom-9 atom-10" d="M 355.7,40.5 L 300.0,39.2" style="fill:none;fill-rule:evenodd;stroke:#000000;stroke-width:2.0px;stroke-linecap:butt;stroke-linejoin:miter;stroke-opacity:1"/>
<path class="bond-9 atom-9 atom-10" d="M 300.0,39.2 L 244.3,37.9" style="fill:none;fill-rule:evenodd;stroke:#191919;stroke-width:2.0px;stroke-linecap:butt;stroke-linejoin:miter;stroke-opacity:1"/>
<path d="M 904.5,156.4 L 902.9,158.9 L 896.8,158.8" style="fill:none;stroke:#000000;stroke-width:2.0px;stroke-linecap:butt;stroke-linejoin:miter;stroke-opacity:1;"/>
<path d="M 786.9,156.2 L 780.8,156.1 L 779.5,158.2" style="fill:none;stroke:#000000;stroke-width:2.0px;stroke-linecap:butt;stroke-linejoin:miter;stroke-opacity:1;"/>
<path d="M 417.0,147.7 L 414.3,147.6 L 411.4,142.3" style="fill:none;stroke:#000000;stroke-width:2.0px;stroke-linecap:butt;stroke-linejoin:miter;stroke-opacity:1;"/>
<path d="M 358.7,45.8 L 355.7,40.5 L 352.9,40.4" style="fill:none;stroke:#000000;stroke-width:2.0px;stroke-linecap:butt;stroke-linejoin:miter;stroke-opacity:1;"/>
<path class="atom-0" d="M 961.1 51.4 L 965.2 47.1 L 959.7 46.0 L 960.6 43.2 L 965.6 45.7 L 964.9 40.2 L 967.9 40.1 L 967.1 45.7 L 972.2 43.3 L 973.1 46.0 L 967.5 47.1 L 971.5 51.3 L 969.1 53.1 L 966.3 47.8 L 963.5 53.1 L 961.1 51.4 " fill="#191919"/>
<path class="atom-3" d="M 704.3 260.5 Q 704.3 253.7, 707.6 249.9 Q 711.0 246.1, 717.3 246.1 Q 723.5 246.1, 726.9 249.9 Q 730.3 253.7, 730.3 260.5 Q 730.3 267.4, 726.9 271.3 Q 723.5 275.2, 717.3 275.2 Q 711.0 275.2, 707.6 271.3 Q 704.3 267.5, 704.3 260.5 M 717.3 272.0 Q 721.6 272.0, 723.9 269.1 Q 726.3 266.2, 726.3 260.5 Q 726.3 255.0, 723.9 252.2 Q 721.6 249.3, 717.3 249.3 Q 712.9 249.3, 710.6 252.1 Q 708.3 254.9, 708.3 260.5 Q 708.3 266.3, 710.6 269.1 Q 712.9 272.0, 717.3 272.0 " fill="#FF0000"/>
<path class="atom-5" d="M 518.6 362.1 Q 518.6 355.3, 522.0 351.5 Q 525.3 347.7, 531.6 347.7 Q 537.9 347.7, 541.2 351.5 Q 544.6 355.3, 544.6 362.1 Q 544.6 369.0, 541.2 372.9 Q 537.8 376.8, 531.6 376.8 Q 525.4 376.8, 522.0 372.9 Q 518.6 369.0, 518.6 362.1 M 531.6 373.6 Q 535.9 373.6, 538.2 370.7 Q 540.6 367.8, 540.6 362.1 Q 540.6 356.5, 538.2 353.7 Q 535.9 350.9, 531.6 350.9 Q 527.3 350.9, 524.9 353.7 Q 522.6 356.5, 522.6 362.1 Q 522.6 367.8, 524.9 370.7 Q 527.3 373.6, 531.6 373.6 " fill="#FF0000"/>
<path class="atom-7" d="M 523.5 150.5 Q 523.5 143.7, 526.8 139.9 Q 530.2 136.1, 536.5 136.1 Q 542.8 136.1, 546.1 139.9 Q 549.5 143.7, 549.5 150.5 Q 549.5 157.4, 546.1 161.3 Q 542.7 165.2, 536.5 165.2 Q 530.2 165.2, 526.8 161.3 Q 523.5 157.5, 523.5 150.5 M 536.5 162.0 Q 540.8 162.0, 543.1 159.1 Q 545.5 156.2, 545.5 150.5 Q 545.5 145.0, 543.1 142.2 Q 540.8 139.3, 536.5 139.3 Q 532.2 139.3, 529.8 142.1 Q 527.5 144.9, 527.5 150.5 Q 527.5 156.3, 529.8 159.1 Q 532.2 162.0, 536.5 162.0 " fill="#FF0000"/>
<path class="atom-10" d="M 228.2 34.5 L 232.4 30.2 L 226.9 29.1 L 227.7 26.3 L 232.8 28.8 L 232.1 23.3 L 235.1 23.2 L 234.2 28.8 L 239.4 26.4 L 240.3 29.1 L 234.7 30.2 L 238.7 34.4 L 236.2 36.2 L 233.5 30.9 L 230.7 36.2 L 228.2 34.5 " fill="#191919"/>
<path class="bond-0 atom-0 atom-1" d="M 134.1,616.2 L 182.2,589.6" style="fill:none;fill-rule:evenodd;stroke:#191919;stroke-width:2.0px;stroke-linecap:butt;stroke-linejoin:miter;stroke-opacity:1"/>
<path class="bond-0 atom-0 atom-1" d="M 182.2,589.6 L 230.3,562.9" style="fill:none;fill-rule:evenodd;stroke:#000000;stroke-width:2.0px;stroke-linecap:butt;stroke-linejoin:miter;stroke-opacity:1"/>
<path class="bond-1 atom-1 atom-2" d="M 230.3,562.9 L 335.0,625.9" style="fill:none;fill-rule:evenodd;stroke:#000000;stroke-width:2.0px;stroke-linecap:butt;stroke-linejoin:miter;stroke-opacity:1"/>
<path class="bond-2 atom-2 atom-3" d="M 335.0,625.9 L 441.9,566.7" style="fill:none;fill-rule:evenodd;stroke:#000000;stroke-width:2.0px;stroke-linecap:butt;stroke-linejoin:miter;stroke-opacity:1"/>
<path class="bond-3 atom-3 atom-4" d="M 441.9,566.7 L 546.6,629.6" style="fill:none;fill-rule:evenodd;stroke:#000000;stroke-width:2.0px;stroke-linecap:butt;stroke-linejoin:miter;stroke-opacity:1"/>
<path class="bond-4 atom-4 atom-5" d="M 546.6,629.6 L 653.4,570.4" style="fill:none;fill-rule:evenodd;stroke:#000000;stroke-width:2.0px;stroke-linecap:butt;stroke-linejoin:miter;stroke-opacity:1"/>
<path class="bond-5 atom-5 atom-6" d="M 653.4,570.4 L 758.1,633.3" style="fill:none;fill-rule:evenodd;stroke:#000000;stroke-width:2.0px;stroke-linecap:butt;stroke-linejoin:miter;stroke-opacity:1"/>
<path class="bond-6 atom-6 atom-7" d="M 758.1,633.3 L 865.0,574.1" style="fill:none;fill-rule:evenodd;stroke:#000000;stroke-width:2.0px;stroke-linecap:butt;stroke-linejoin:miter;stroke-opacity:1"/>
<path class="bond-7 atom-7 atom-8" d="M 865.0,574.1 L 969.7,637.1" style="fill:none;fill-rule:evenodd;stroke:#000000;stroke-width:2.0px;stroke-linecap:butt;stroke-linejoin:miter;stroke-opacity:1"/>
<path class="bond-8 atom-8 atom-9" d="M 969.7,637.1 L 1020.8,608.8" style="fill:none;fill-rule:evenodd;stroke:#000000;stroke-width:2.0px;stroke-linecap:butt;stroke-linejoin:miter;stroke-opacity:1"/>
<path class="bond-8 atom-8 atom-9" d="M 1020.8,608.8 L 1071.9,580.5" style="fill:none;fill-rule:evenodd;stroke:#191919;stroke-width:2.0px;stroke-linecap:butt;stroke-linejoin:miter;stroke-opacity:1"/>
<path d="M 227.9,564.3 L 230.3,562.9 L 235.5,566.1" style="fill:none;stroke:#000000;stroke-width:2.0px;stroke-linecap:butt;stroke-linejoin:miter;stroke-opacity:1;"/>
<path d="M 329.8,622.7 L 335.0,625.9 L 340.3,622.9" style="fill:none;stroke:#000000;stroke-width:2.0px;stroke-linecap:butt;stroke-linejoin:miter;stroke-opacity:1;"/>
<path d="M 436.5,569.6 L 441.9,566.7 L 447.1,569.8" style="fill:none;stroke:#000000;stroke-width:2.0px;stroke-linecap:butt;stroke-linejoin:miter;stroke-opacity:1;"/>
<path d="M 541.3,626.5 L 546.6,629.6 L 551.9,626.6" style="fill:none;stroke:#000000;stroke-width:2.0px;stroke-linecap:butt;stroke-linejoin:miter;stroke-opacity:1;"/>
<path d="M 648.1,573.4 L 653.4,570.4 L 658.7,573.5" style="fill:none;stroke:#000000;stroke-width:2.0px;stroke-linecap:butt;stroke-linejoin:miter;stroke-opacity:1;"/>
<path d="M 752.9,630.2 L 758.1,633.3 L 763.5,630.4" style="fill:none;stroke:#000000;stroke-width:2.0px;stroke-linecap:butt;stroke-linejoin:miter;stroke-opacity:1;"/>
<path d="M 859.7,577.1 L 865.0,574.1 L 870.2,577.3" style="fill:none;stroke:#000000;stroke-width:2.0px;stroke-linecap:butt;stroke-linejoin:miter;stroke-opacity:1;"/>
<path d="M 964.5,633.9 L 969.7,637.1 L 972.3,635.7" style="fill:none;stroke:#000000;stroke-width:2.0px;stroke-linecap:butt;stroke-linejoin:miter;stroke-opacity:1;"/>
<path class="atom-0" d="M 118.1 619.0 L 122.2 614.7 L 116.7 613.6 L 117.6 610.8 L 122.6 613.3 L 121.9 607.8 L 124.9 607.7 L 124.1 613.3 L 129.2 610.9 L 130.1 613.6 L 124.5 614.6 L 128.5 618.9 L 126.1 620.7 L 123.3 615.4 L 120.5 620.7 L 118.1 619.0 " fill="#191919"/>
<path class="atom-9" d="M 1071.2 574.7 L 1075.4 570.5 L 1069.9 569.4 L 1070.7 566.5 L 1075.8 569.1 L 1075.1 563.5 L 1078.1 563.5 L 1077.2 569.0 L 1082.4 566.6 L 1083.3 569.4 L 1077.7 570.4 L 1081.7 574.7 L 1079.2 576.4 L 1076.5 571.2 L 1073.7 576.4 L 1071.2 574.7 " fill="#191919"/>
</svg>