<svg xmlns="http://www.w3.org/2000/svg" xmlns:rdkit="http://www.rdkit.org/xml" xmlns:xlink="http://www.w3.org/1999/xlink" version="1.1" baseProfile="full" xml:space="preserve" width="1200px" height="800px" viewBox="0 0 1200 800">
<!-- END OF HEADER -->
<rect style="opacity:1.0;fill:#FFFFFF;stroke:none" width="1200.0" height="800.0" x="0.0" y="0.0"> </rect>
<path class="bond-0 atom-0 atom-1" d="M 853.7,376.8 L 830.8,361.7" style="fill:none;fill-rule:evenodd;stroke:#191919;stroke-width:2.0px;stroke-linecap:butt;stroke-linejoin:miter;stroke-opacity:1"/>
<path class="bond-0 atom-0 atom-1" d="M 830.8,361.7 L 807.9,346.5" style="fill:none;fill-rule:evenodd;stroke:#000000;stroke-width:2.0px;stroke-linecap:butt;stroke-linejoin:miter;stroke-opacity:1"/>
<path class="bond-1 atom-1 atom-2" d="M 807.9,346.5 L 811.7,284.3" style="fill:none;fill-rule:evenodd;stroke:#000000;stroke-width:2.0px;stroke-linecap:butt;stroke-linejoin:miter;stroke-opacity:1"/>
<path class="bond-2 atom-2 atom-3" d="M 811.4,289.7 L 835.4,277.7" style="fill:none;fill-rule:evenodd;stroke:#000000;stroke-width:2.0px;stroke-linecap:butt;stroke-linejoin:miter;stroke-opacity:1"/>
<path class="bond-2 atom-2 atom-3" d="M 835.4,277.7 L 859.4,265.7" style="fill:none;fill-rule:evenodd;stroke:#FF0000;stroke-width:2.0px;stroke-linecap:butt;stroke-linejoin:miter;stroke-opacity:1"/>
<path class="bond-2 atom-2 atom-3" d="M 807.2,281.3 L 831.2,269.3" style="fill:none;fill-rule:evenodd;stroke:#000000;stroke-width:2.0px;stroke-linecap:butt;stroke-linejoin:miter;stroke-opacity:1"/>
<path class="bond-2 atom-2 atom-3" d="M 831.2,269.3 L 855.2,257.4" style="fill:none;fill-rule:evenodd;stroke:#FF0000;stroke-width:2.0px;stroke-linecap:butt;stroke-linejoin:miter;stroke-opacity:1"/>
<path class="bond-3 atom-2 atom-4" d="M 811.7,284.3 L 759.7,249.9" style="fill:none;fill-rule:evenodd;stroke:#000000;stroke-width:2.0px;stroke-linecap:butt;stroke-linejoin:miter;stroke-opacity:1"/>
<path class="bond-4 atom-4 atom-5" d="M 759.7,249.9 L 703.9,277.8" style="fill:none;fill-rule:evenodd;stroke:#000000;stroke-width:2.0px;stroke-linecap:butt;stroke-linejoin:miter;stroke-opacity:1"/>
<path class="bond-4 atom-4 atom-5" d="M 750.7,244.0 L 704.6,267.0" style="fill:none;fill-rule:evenodd;stroke:#000000;stroke-width:2.0px;stroke-linecap:butt;stroke-linejoin:miter;stroke-opacity:1"/>
<path class="bond-5 atom-5 atom-6" d="M 703.9,277.8 L 651.9,243.4" style="fill:none;fill-rule:evenodd;stroke:#000000;stroke-width:2.0px;stroke-linecap:butt;stroke-linejoin:miter;stroke-opacity:1"/>
<path class="bond-6 atom-6 atom-7" d="M 651.9,243.4 L 596.2,271.3" style="fill:none;fill-rule:evenodd;stroke:#000000;stroke-width:2.0px;stroke-linecap:butt;stroke-linejoin:miter;stroke-opacity:1"/>
<path class="bond-7 atom-7 atom-8" d="M 591.7,268.3 L 590.0,295.3" style="fill:none;fill-rule:evenodd;stroke:#000000;stroke-width:2.0px;stroke-linecap:butt;stroke-linejoin:miter;stroke-opacity:1"/>
<path class="bond-7 atom-7 atom-8" d="M 590.0,295.3 L 588.4,322.2" style="fill:none;fill-rule:evenodd;stroke:#FF0000;stroke-width:2.0px;stroke-linecap:butt;stroke-linejoin:miter;stroke-opacity:1"/>
<path class="bond-7 atom-7 atom-8" d="M 601.0,268.9 L 599.4,295.8" style="fill:none;fill-rule:evenodd;stroke:#000000;stroke-width:2.0px;stroke-linecap:butt;stroke-linejoin:miter;stroke-opacity:1"/>
<path class="bond-7 atom-7 atom-8" d="M 599.4,295.8 L 597.7,322.8" style="fill:none;fill-rule:evenodd;stroke:#FF0000;stroke-width:2.0px;stroke-linecap:butt;stroke-linejoin:miter;stroke-opacity:1"/>
<path class="bond-8 atom-7 atom-9" d="M 596.2,271.3 L 575.2,257.5" style="fill:none;fill-rule:evenodd;stroke:#000000;stroke-width:2.0px;stroke-linecap:butt;stroke-linejoin:miter;stroke-opacity:1"/>
<path class="bond-8 atom-7 atom-9" d="M 575.2,257.5 L 554.3,243.6" style="fill:none;fill-rule:evenodd;stroke:#FF0000;stroke-width:2.0px;stroke-linecap:butt;stroke-linejoin:miter;stroke-opacity:1"/>
<path class="bond-9 atom-9 atom-10" d="M 534.0,242.0 L 511.2,253.4" style="fill:none;fill-rule:evenodd;stroke:#FF0000;stroke-width:2.0px;stroke-linecap:butt;stroke-linejoin:miter;stroke-opacity:1"/>
<path class="bond-9 atom-9 atom-10" d="M 511.2,253.4 L 488.4,264.8" style="fill:none;fill-rule:evenodd;stroke:#000000;stroke-width:2.0px;stroke-linecap:butt;stroke-linejoin:miter;stroke-opacity:1"/>
<path class="bond-10 atom-10 atom-11" d="M 488.4,264.8 L 436.4,230.4" style="fill:none;fill-rule:evenodd;stroke:#000000;stroke-width:2.0px;stroke-linecap:butt;stroke-linejoin:miter;stroke-opacity:1"/>
<path class="bond-11 atom-11 atom-12" d="M 436.4,230.4 L 413.6,241.8" style="fill:none;fill-rule:evenodd;stroke:#000000;stroke-width:2.0px;stroke-linecap:butt;stroke-linejoin:miter;stroke-opacity:1"/>
<path class="bond-11 atom-11 atom-12" d="M 413.6,241.8 L 390.8,253.2" style="fill:none;fill-rule:evenodd;stroke:#FF0000;stroke-width:2.0px;stroke-linecap:butt;stroke-linejoin:miter;stroke-opacity:1"/>
<path class="bond-12 atom-12 atom-13" d="M 370.5,251.6 L 350.4,238.3" style="fill:none;fill-rule:evenodd;stroke:#FF0000;stroke-width:2.0px;stroke-linecap:butt;stroke-linejoin:miter;stroke-opacity:1"/>
<path class="bond-12 atom-12 atom-13" d="M 350.4,238.3 L 330.4,225.1" style="fill:none;fill-rule:evenodd;stroke:#191919;stroke-width:2.0px;stroke-linecap:butt;stroke-linejoin:miter;stroke-opacity:1"/>
<path class="bond-13 atom-6 atom-14" d="M 651.9,243.4 L 655.7,181.2" style="fill:none;fill-rule:evenodd;stroke:#000000;stroke-width:2.0px;stroke-linecap:butt;stroke-linejoin:miter;stroke-opacity:1"/>
<path class="bond-13 atom-6 atom-14" d="M 661.6,238.6 L 664.7,187.2" style="fill:none;fill-rule:evenodd;stroke:#000000;stroke-width:2.0px;stroke-linecap:butt;stroke-linejoin:miter;stroke-opacity:1"/>
<path class="bond-14 atom-14 atom-15" d="M 655.7,181.2 L 711.4,153.4" style="fill:none;fill-rule:evenodd;stroke:#000000;stroke-width:2.0px;stroke-linecap:butt;stroke-linejoin:miter;stroke-opacity:1"/>
<path class="bond-15 atom-15 atom-16" d="M 711.4,153.4 L 713.0,127.9" style="fill:none;fill-rule:evenodd;stroke:#000000;stroke-width:2.0px;stroke-linecap:butt;stroke-linejoin:miter;stroke-opacity:1"/>
<path class="bond-15 atom-15 atom-16" d="M 713.0,127.9 L 714.5,102.5" style="fill:none;fill-rule:evenodd;stroke:#CCCC00;stroke-width:2.0px;stroke-linecap:butt;stroke-linejoin:miter;stroke-opacity:1"/>
<path class="bond-16 atom-16 atom-17" d="M 722.6,96.3 L 744.8,97.6" style="fill:none;fill-rule:evenodd;stroke:#CCCC00;stroke-width:2.0px;stroke-linecap:butt;stroke-linejoin:miter;stroke-opacity:1"/>
<path class="bond-16 atom-16 atom-17" d="M 744.8,97.6 L 767.0,99.0" style="fill:none;fill-rule:evenodd;stroke:#FF0000;stroke-width:2.0px;stroke-linecap:butt;stroke-linejoin:miter;stroke-opacity:1"/>
<path class="bond-16 atom-16 atom-17" d="M 723.2,86.9 L 745.4,88.3" style="fill:none;fill-rule:evenodd;stroke:#CCCC00;stroke-width:2.0px;stroke-linecap:butt;stroke-linejoin:miter;stroke-opacity:1"/>
<path class="bond-16 atom-16 atom-17" d="M 745.4,88.3 L 767.5,89.6" style="fill:none;fill-rule:evenodd;stroke:#FF0000;stroke-width:2.0px;stroke-linecap:butt;stroke-linejoin:miter;stroke-opacity:1"/>
<path class="bond-17 atom-16 atom-18" d="M 707.8,86.0 L 685.6,84.7" style="fill:none;fill-rule:evenodd;stroke:#CCCC00;stroke-width:2.0px;stroke-linecap:butt;stroke-linejoin:miter;stroke-opacity:1"/>
<path class="bond-17 atom-16 atom-18" d="M 685.6,84.7 L 663.4,83.3" style="fill:none;fill-rule:evenodd;stroke:#FF0000;stroke-width:2.0px;stroke-linecap:butt;stroke-linejoin:miter;stroke-opacity:1"/>
<path class="bond-17 atom-16 atom-18" d="M 707.2,95.3 L 685.0,94.0" style="fill:none;fill-rule:evenodd;stroke:#CCCC00;stroke-width:2.0px;stroke-linecap:butt;stroke-linejoin:miter;stroke-opacity:1"/>
<path class="bond-17 atom-16 atom-18" d="M 685.0,94.0 L 662.9,92.7" style="fill:none;fill-rule:evenodd;stroke:#FF0000;stroke-width:2.0px;stroke-linecap:butt;stroke-linejoin:miter;stroke-opacity:1"/>
<path class="bond-18 atom-16 atom-19" d="M 715.9,80.3 L 717.1,60.2" style="fill:none;fill-rule:evenodd;stroke:#CCCC00;stroke-width:2.0px;stroke-linecap:butt;stroke-linejoin:miter;stroke-opacity:1"/>
<path class="bond-18 atom-16 atom-19" d="M 717.1,60.2 L 718.3,40.2" style="fill:none;fill-rule:evenodd;stroke:#FF0000;stroke-width:2.0px;stroke-linecap:butt;stroke-linejoin:miter;stroke-opacity:1"/>
<path class="bond-19 atom-15 atom-20" d="M 711.4,153.4 L 763.4,187.7" style="fill:none;fill-rule:evenodd;stroke:#000000;stroke-width:2.0px;stroke-linecap:butt;stroke-linejoin:miter;stroke-opacity:1"/>
<path class="bond-19 atom-15 atom-20" d="M 710.8,164.1 L 753.8,192.6" style="fill:none;fill-rule:evenodd;stroke:#000000;stroke-width:2.0px;stroke-linecap:butt;stroke-linejoin:miter;stroke-opacity:1"/>
<path class="bond-20 atom-20 atom-4" d="M 763.4,187.7 L 759.7,249.9" style="fill:none;fill-rule:evenodd;stroke:#000000;stroke-width:2.0px;stroke-linecap:butt;stroke-linejoin:miter;stroke-opacity:1"/>
<path d="M 809.1,347.3 L 807.9,346.5 L 808.1,343.4" style="fill:none;stroke:#000000;stroke-width:2.0px;stroke-linecap:butt;stroke-linejoin:miter;stroke-opacity:1;"/>
<path d="M 811.5,287.4 L 811.7,284.3 L 809.1,282.6" style="fill:none;stroke:#000000;stroke-width:2.0px;stroke-linecap:butt;stroke-linejoin:miter;stroke-opacity:1;"/>
<path d="M 706.7,276.4 L 703.9,277.8 L 701.3,276.1" style="fill:none;stroke:#000000;stroke-width:2.0px;stroke-linecap:butt;stroke-linejoin:miter;stroke-opacity:1;"/>
<path d="M 598.9,269.9 L 596.2,271.3 L 595.1,270.6" style="fill:none;stroke:#000000;stroke-width:2.0px;stroke-linecap:butt;stroke-linejoin:miter;stroke-opacity:1;"/>
<path d="M 489.5,264.2 L 488.4,264.8 L 485.8,263.1" style="fill:none;stroke:#000000;stroke-width:2.0px;stroke-linecap:butt;stroke-linejoin:miter;stroke-opacity:1;"/>
<path d="M 439.0,232.1 L 436.4,230.4 L 435.2,231.0" style="fill:none;stroke:#000000;stroke-width:2.0px;stroke-linecap:butt;stroke-linejoin:miter;stroke-opacity:1;"/>
<path d="M 655.5,184.3 L 655.7,181.2 L 658.5,179.8" style="fill:none;stroke:#000000;stroke-width:2.0px;stroke-linecap:butt;stroke-linejoin:miter;stroke-opacity:1;"/>
<path d="M 760.8,186.0 L 763.4,187.7 L 763.3,190.8" style="fill:none;stroke:#000000;stroke-width:2.0px;stroke-linecap:butt;stroke-linejoin:miter;stroke-opacity:1;"/>
<path class="atom-0" d="M 856.6 378.9 L 859.2 376.3 L 855.8 375.6 L 856.3 373.8 L 859.5 375.4 L 859.0 371.9 L 860.9 371.9 L 860.4 375.4 L 863.6 373.9 L 864.1 375.6 L 860.6 376.2 L 863.1 378.9 L 861.6 380.0 L 859.9 376.7 L 858.1 380.0 L 856.6 378.9 " fill="#191919"/>
<path class="atom-3" d="M 859.4 256.5 Q 859.4 252.3, 861.4 249.9 Q 863.5 247.5, 867.5 247.5 Q 871.4 247.5, 873.5 249.9 Q 875.6 252.3, 875.6 256.5 Q 875.6 260.8, 873.4 263.2 Q 871.3 265.7, 867.5 265.7 Q 863.6 265.7, 861.4 263.2 Q 859.4 260.8, 859.4 256.5 M 867.5 263.7 Q 870.1 263.7, 871.6 261.9 Q 873.1 260.0, 873.1 256.5 Q 873.1 253.0, 871.6 251.3 Q 870.1 249.5, 867.5 249.5 Q 864.8 249.5, 863.3 251.3 Q 861.8 253.0, 861.8 256.5 Q 861.8 260.1, 863.3 261.9 Q 864.8 263.7, 867.5 263.7 " fill="#FF0000"/>
<path class="atom-8" d="M 584.3 333.6 Q 584.3 329.3, 586.4 327.0 Q 588.5 324.6, 592.4 324.6 Q 596.3 324.6, 598.4 327.0 Q 600.5 329.3, 600.5 333.6 Q 600.5 337.9, 598.4 340.3 Q 596.3 342.7, 592.4 342.7 Q 588.5 342.7, 586.4 340.3 Q 584.3 337.9, 584.3 333.6 M 592.4 340.7 Q 595.1 340.7, 596.5 338.9 Q 598.0 337.1, 598.0 333.6 Q 598.0 330.1, 596.5 328.4 Q 595.1 326.6, 592.4 326.6 Q 589.7 326.6, 588.2 328.3 Q 586.8 330.1, 586.8 333.6 Q 586.8 337.1, 588.2 338.9 Q 589.7 340.7, 592.4 340.7 " fill="#FF0000"/>
<path class="atom-9" d="M 536.0 237.0 Q 536.0 232.7, 538.1 230.4 Q 540.2 228.0, 544.2 228.0 Q 548.1 228.0, 550.2 230.4 Q 552.3 232.7, 552.3 237.0 Q 552.3 241.3, 550.1 243.7 Q 548.0 246.1, 544.2 246.1 Q 540.3 246.1, 538.1 243.7 Q 536.0 241.3, 536.0 237.0 M 544.2 244.1 Q 546.8 244.1, 548.3 242.3 Q 549.8 240.5, 549.8 237.0 Q 549.8 233.5, 548.3 231.8 Q 546.8 230.0, 544.2 230.0 Q 541.5 230.0, 540.0 231.7 Q 538.5 233.5, 538.5 237.0 Q 538.5 240.5, 540.0 242.3 Q 541.5 244.1, 544.2 244.1 " fill="#FF0000"/>
<path class="atom-12" d="M 372.5 258.3 Q 372.5 254.1, 374.6 251.7 Q 376.7 249.4, 380.6 249.4 Q 384.5 249.4, 386.6 251.7 Q 388.7 254.1, 388.7 258.3 Q 388.7 262.6, 386.6 265.1 Q 384.5 267.5, 380.6 267.5 Q 376.7 267.5, 374.6 265.1 Q 372.5 262.6, 372.5 258.3 M 380.6 265.5 Q 383.3 265.5, 384.8 263.7 Q 386.2 261.9, 386.2 258.3 Q 386.2 254.9, 384.8 253.1 Q 383.3 251.3, 380.6 251.3 Q 377.9 251.3, 376.5 253.1 Q 375.0 254.8, 375.0 258.3 Q 375.0 261.9, 376.5 263.7 Q 377.9 265.5, 380.6 265.5 " fill="#FF0000"/>
<path class="atom-13" d="M 325.3 221.9 L 327.9 219.3 L 324.4 218.6 L 325.0 216.8 L 328.1 218.4 L 327.7 215.0 L 329.6 214.9 L 329.0 218.4 L 332.2 216.9 L 332.8 218.6 L 329.3 219.2 L 331.8 221.9 L 330.3 223.0 L 328.6 219.7 L 326.8 223.0 L 325.3 221.9 " fill="#191919"/>
<path class="atom-16" d="M 710.2 97.2 Q 710.4 97.3, 711.2 97.6 Q 712.1 98.0, 713.0 98.2 Q 713.9 98.4, 714.8 98.4 Q 716.4 98.4, 717.4 97.6 Q 718.4 96.8, 718.4 95.4 Q 718.4 94.4, 717.9 93.8 Q 717.4 93.2, 716.7 92.9 Q 715.9 92.5, 714.7 92.2 Q 713.1 91.7, 712.2 91.2 Q 711.2 90.8, 710.6 89.8 Q 709.9 88.9, 709.9 87.3 Q 709.9 85.1, 711.4 83.7 Q 712.9 82.3, 715.9 82.3 Q 718.0 82.3, 720.3 83.3 L 719.7 85.2 Q 717.6 84.4, 716.0 84.4 Q 714.3 84.4, 713.3 85.1 Q 712.4 85.8, 712.4 87.0 Q 712.4 88.0, 712.9 88.5 Q 713.4 89.1, 714.1 89.4 Q 714.8 89.7, 716.0 90.1 Q 717.6 90.6, 718.5 91.1 Q 719.5 91.6, 720.2 92.6 Q 720.9 93.6, 720.9 95.4 Q 720.9 97.8, 719.2 99.1 Q 717.6 100.4, 714.9 100.4 Q 713.3 100.4, 712.1 100.1 Q 710.9 99.7, 709.5 99.2 L 710.2 97.2 " fill="#CCCC00"/>
<path class="atom-17" d="M 769.3 95.0 Q 769.3 90.7, 771.4 88.3 Q 773.5 86.0, 777.4 86.0 Q 781.3 86.0, 783.4 88.3 Q 785.5 90.7, 785.5 95.0 Q 785.5 99.2, 783.4 101.7 Q 781.3 104.1, 777.4 104.1 Q 773.5 104.1, 771.4 101.7 Q 769.3 99.3, 769.3 95.0 M 777.4 102.1 Q 780.1 102.1, 781.6 100.3 Q 783.0 98.5, 783.0 95.0 Q 783.0 91.5, 781.6 89.7 Q 780.1 88.0, 777.4 88.0 Q 774.7 88.0, 773.3 89.7 Q 771.8 91.5, 771.8 95.0 Q 771.8 98.5, 773.3 100.3 Q 774.7 102.1, 777.4 102.1 " fill="#FF0000"/>
<path class="atom-18" d="M 644.9 87.4 Q 644.9 83.2, 647.0 80.8 Q 649.1 78.5, 653.0 78.5 Q 656.9 78.5, 659.0 80.8 Q 661.1 83.2, 661.1 87.4 Q 661.1 91.7, 659.0 94.2 Q 656.8 96.6, 653.0 96.6 Q 649.1 96.6, 647.0 94.2 Q 644.9 91.8, 644.9 87.4 M 653.0 94.6 Q 655.7 94.6, 657.1 92.8 Q 658.6 91.0, 658.6 87.4 Q 658.6 84.0, 657.1 82.2 Q 655.7 80.5, 653.0 80.5 Q 650.3 80.5, 648.8 82.2 Q 647.4 83.9, 647.4 87.4 Q 647.4 91.0, 648.8 92.8 Q 650.3 94.6, 653.0 94.6 " fill="#FF0000"/>
<path class="atom-19" d="M 710.9 29.0 Q 710.9 24.7, 712.9 22.4 Q 715.0 20.0, 719.0 20.0 Q 722.9 20.0, 725.0 22.4 Q 727.1 24.7, 727.1 29.0 Q 727.1 33.3, 724.9 35.7 Q 722.8 38.1, 719.0 38.1 Q 715.1 38.1, 712.9 35.7 Q 710.9 33.3, 710.9 29.0 M 719.0 36.1 Q 721.7 36.1, 723.1 34.3 Q 724.6 32.5, 724.6 29.0 Q 724.6 25.5, 723.1 23.8 Q 721.7 22.0, 719.0 22.0 Q 716.3 22.0, 714.8 23.7 Q 713.3 25.5, 713.3 29.0 Q 713.3 32.5, 714.8 34.3 Q 716.3 36.1, 719.0 36.1 " fill="#FF0000"/>
<path class="atom-19" d="M 729.6 22.9 L 735.6 22.9 L 735.6 24.2 L 729.6 24.2 L 729.6 22.9 " fill="#FF0000"/>
<path class="bond-0 atom-0 atom-1" d="M 929.8,714.8 L 922.4,697.2" style="fill:none;fill-rule:evenodd;stroke:#191919;stroke-width:2.0px;stroke-linecap:butt;stroke-linejoin:miter;stroke-opacity:1"/>
<path class="bond-0 atom-0 atom-1" d="M 922.4,697.2 L 915.0,679.6" style="fill:none;fill-rule:evenodd;stroke:#FF0000;stroke-width:2.0px;stroke-linecap:butt;stroke-linejoin:miter;stroke-opacity:1"/>
<path class="bond-1 atom-1 atom-2" d="M 900.1,667.1 L 874.3,663.8" style="fill:none;fill-rule:evenodd;stroke:#FF0000;stroke-width:2.0px;stroke-linecap:butt;stroke-linejoin:miter;stroke-opacity:1"/>
<path class="bond-1 atom-1 atom-2" d="M 874.3,663.8 L 848.5,660.5" style="fill:none;fill-rule:evenodd;stroke:#000000;stroke-width:2.0px;stroke-linecap:butt;stroke-linejoin:miter;stroke-opacity:1"/>
<path class="bond-2 atom-2 atom-3" d="M 848.5,660.5 L 824.4,603.0" style="fill:none;fill-rule:evenodd;stroke:#000000;stroke-width:2.0px;stroke-linecap:butt;stroke-linejoin:miter;stroke-opacity:1"/>
<path class="bond-3 atom-3 atom-4" d="M 824.4,603.0 L 798.5,599.7" style="fill:none;fill-rule:evenodd;stroke:#000000;stroke-width:2.0px;stroke-linecap:butt;stroke-linejoin:miter;stroke-opacity:1"/>
<path class="bond-3 atom-3 atom-4" d="M 798.5,599.7 L 772.7,596.4" style="fill:none;fill-rule:evenodd;stroke:#FF0000;stroke-width:2.0px;stroke-linecap:butt;stroke-linejoin:miter;stroke-opacity:1"/>
<path class="bond-4 atom-4 atom-5" d="M 757.9,584.1 L 748.2,560.9" style="fill:none;fill-rule:evenodd;stroke:#FF0000;stroke-width:2.0px;stroke-linecap:butt;stroke-linejoin:miter;stroke-opacity:1"/>
<path class="bond-4 atom-4 atom-5" d="M 748.2,560.9 L 738.5,537.6" style="fill:none;fill-rule:evenodd;stroke:#000000;stroke-width:2.0px;stroke-linecap:butt;stroke-linejoin:miter;stroke-opacity:1"/>
<path class="bond-5 atom-5 atom-6" d="M 740.6,542.6 L 756.0,522.3" style="fill:none;fill-rule:evenodd;stroke:#000000;stroke-width:2.0px;stroke-linecap:butt;stroke-linejoin:miter;stroke-opacity:1"/>
<path class="bond-5 atom-5 atom-6" d="M 756.0,522.3 L 771.4,502.1" style="fill:none;fill-rule:evenodd;stroke:#FF0000;stroke-width:2.0px;stroke-linecap:butt;stroke-linejoin:miter;stroke-opacity:1"/>
<path class="bond-5 atom-5 atom-6" d="M 733.1,536.9 L 748.5,516.7" style="fill:none;fill-rule:evenodd;stroke:#000000;stroke-width:2.0px;stroke-linecap:butt;stroke-linejoin:miter;stroke-opacity:1"/>
<path class="bond-5 atom-5 atom-6" d="M 748.5,516.7 L 763.9,496.4" style="fill:none;fill-rule:evenodd;stroke:#FF0000;stroke-width:2.0px;stroke-linecap:butt;stroke-linejoin:miter;stroke-opacity:1"/>
<path class="bond-6 atom-5 atom-7" d="M 738.5,537.6 L 676.6,529.7" style="fill:none;fill-rule:evenodd;stroke:#000000;stroke-width:2.0px;stroke-linecap:butt;stroke-linejoin:miter;stroke-opacity:1"/>
<path class="bond-7 atom-7 atom-8" d="M 676.6,529.7 L 646.7,475.0" style="fill:none;fill-rule:evenodd;stroke:#000000;stroke-width:2.0px;stroke-linecap:butt;stroke-linejoin:miter;stroke-opacity:1"/>
<path class="bond-7 atom-7 atom-8" d="M 665.2,528.2 L 641.7,485.5" style="fill:none;fill-rule:evenodd;stroke:#000000;stroke-width:2.0px;stroke-linecap:butt;stroke-linejoin:miter;stroke-opacity:1"/>
<path class="bond-8 atom-8 atom-9" d="M 646.7,475.0 L 585.4,486.7" style="fill:none;fill-rule:evenodd;stroke:#000000;stroke-width:2.0px;stroke-linecap:butt;stroke-linejoin:miter;stroke-opacity:1"/>
<path class="bond-9 atom-9 atom-10" d="M 585.4,486.7 L 577.5,548.5" style="fill:none;fill-rule:evenodd;stroke:#000000;stroke-width:2.0px;stroke-linecap:butt;stroke-linejoin:miter;stroke-opacity:1"/>
<path class="bond-9 atom-9 atom-10" d="M 593.8,494.6 L 587.7,542.9" style="fill:none;fill-rule:evenodd;stroke:#000000;stroke-width:2.0px;stroke-linecap:butt;stroke-linejoin:miter;stroke-opacity:1"/>
<path class="bond-10 atom-10 atom-11" d="M 577.5,548.5 L 522.9,578.4" style="fill:none;fill-rule:evenodd;stroke:#000000;stroke-width:2.0px;stroke-linecap:butt;stroke-linejoin:miter;stroke-opacity:1"/>
<path class="bond-11 atom-11 atom-12" d="M 522.9,578.4 L 492.9,523.8" style="fill:none;fill-rule:evenodd;stroke:#000000;stroke-width:2.0px;stroke-linecap:butt;stroke-linejoin:miter;stroke-opacity:1"/>
<path class="bond-12 atom-11 atom-13" d="M 522.9,578.4 L 552.8,633.1" style="fill:none;fill-rule:evenodd;stroke:#000000;stroke-width:2.0px;stroke-linecap:butt;stroke-linejoin:miter;stroke-opacity:1"/>
<path class="bond-13 atom-11 atom-14" d="M 522.9,578.4 L 468.2,608.4" style="fill:none;fill-rule:evenodd;stroke:#000000;stroke-width:2.0px;stroke-linecap:butt;stroke-linejoin:miter;stroke-opacity:1"/>
<path class="bond-14 atom-14 atom-15" d="M 468.2,608.4 L 460.3,670.2" style="fill:none;fill-rule:evenodd;stroke:#000000;stroke-width:2.0px;stroke-linecap:butt;stroke-linejoin:miter;stroke-opacity:1"/>
<path class="bond-14 atom-14 atom-15" d="M 458.1,614.0 L 451.9,662.3" style="fill:none;fill-rule:evenodd;stroke:#000000;stroke-width:2.0px;stroke-linecap:butt;stroke-linejoin:miter;stroke-opacity:1"/>
<path class="bond-15 atom-15 atom-16" d="M 460.3,670.2 L 399.1,681.8" style="fill:none;fill-rule:evenodd;stroke:#000000;stroke-width:2.0px;stroke-linecap:butt;stroke-linejoin:miter;stroke-opacity:1"/>
<path class="bond-16 atom-16 atom-17" d="M 399.1,681.8 L 369.1,627.2" style="fill:none;fill-rule:evenodd;stroke:#000000;stroke-width:2.0px;stroke-linecap:butt;stroke-linejoin:miter;stroke-opacity:1"/>
<path class="bond-16 atom-16 atom-17" d="M 404.0,671.4 L 380.6,628.6" style="fill:none;fill-rule:evenodd;stroke:#000000;stroke-width:2.0px;stroke-linecap:butt;stroke-linejoin:miter;stroke-opacity:1"/>
<path class="bond-17 atom-17 atom-18" d="M 369.1,627.2 L 307.3,619.3" style="fill:none;fill-rule:evenodd;stroke:#000000;stroke-width:2.0px;stroke-linecap:butt;stroke-linejoin:miter;stroke-opacity:1"/>
<path class="bond-18 atom-18 atom-19" d="M 307.3,619.3 L 295.5,591.1" style="fill:none;fill-rule:evenodd;stroke:#000000;stroke-width:2.0px;stroke-linecap:butt;stroke-linejoin:miter;stroke-opacity:1"/>
<path class="bond-18 atom-18 atom-19" d="M 295.5,591.1 L 283.7,563.0" style="fill:none;fill-rule:evenodd;stroke:#191919;stroke-width:2.0px;stroke-linecap:butt;stroke-linejoin:miter;stroke-opacity:1"/>
<path class="bond-19 atom-18 atom-20" d="M 305.2,614.3 L 289.7,634.7" style="fill:none;fill-rule:evenodd;stroke:#000000;stroke-width:2.0px;stroke-linecap:butt;stroke-linejoin:miter;stroke-opacity:1"/>
<path class="bond-19 atom-18 atom-20" d="M 289.7,634.7 L 274.2,655.1" style="fill:none;fill-rule:evenodd;stroke:#FF0000;stroke-width:2.0px;stroke-linecap:butt;stroke-linejoin:miter;stroke-opacity:1"/>
<path class="bond-19 atom-18 atom-20" d="M 312.6,620.0 L 297.1,640.4" style="fill:none;fill-rule:evenodd;stroke:#000000;stroke-width:2.0px;stroke-linecap:butt;stroke-linejoin:miter;stroke-opacity:1"/>
<path class="bond-19 atom-18 atom-20" d="M 297.1,640.4 L 281.6,660.7" style="fill:none;fill-rule:evenodd;stroke:#FF0000;stroke-width:2.0px;stroke-linecap:butt;stroke-linejoin:miter;stroke-opacity:1"/>
<path class="bond-20 atom-17 atom-21" d="M 369.1,627.2 L 385.4,609.9" style="fill:none;fill-rule:evenodd;stroke:#000000;stroke-width:2.0px;stroke-linecap:butt;stroke-linejoin:miter;stroke-opacity:1"/>
<path class="bond-20 atom-17 atom-21" d="M 385.4,609.9 L 401.7,592.6" style="fill:none;fill-rule:evenodd;stroke:#FF0000;stroke-width:2.0px;stroke-linecap:butt;stroke-linejoin:miter;stroke-opacity:1"/>
<path class="bond-21 atom-10 atom-22" d="M 577.5,548.5 L 600.6,559.4" style="fill:none;fill-rule:evenodd;stroke:#000000;stroke-width:2.0px;stroke-linecap:butt;stroke-linejoin:miter;stroke-opacity:1"/>
<path class="bond-21 atom-10 atom-22" d="M 600.6,559.4 L 623.7,570.3" style="fill:none;fill-rule:evenodd;stroke:#FF0000;stroke-width:2.0px;stroke-linecap:butt;stroke-linejoin:miter;stroke-opacity:1"/>
<path class="bond-22 atom-22 atom-7" d="M 644.1,564.3 L 660.4,547.0" style="fill:none;fill-rule:evenodd;stroke:#FF0000;stroke-width:2.0px;stroke-linecap:butt;stroke-linejoin:miter;stroke-opacity:1"/>
<path class="bond-22 atom-22 atom-7" d="M 660.4,547.0 L 676.6,529.7" style="fill:none;fill-rule:evenodd;stroke:#000000;stroke-width:2.0px;stroke-linecap:butt;stroke-linejoin:miter;stroke-opacity:1"/>
<path class="bond-23 atom-21 atom-14" d="M 422.0,586.6 L 445.1,597.5" style="fill:none;fill-rule:evenodd;stroke:#FF0000;stroke-width:2.0px;stroke-linecap:butt;stroke-linejoin:miter;stroke-opacity:1"/>
<path class="bond-23 atom-21 atom-14" d="M 445.1,597.5 L 468.2,608.4" style="fill:none;fill-rule:evenodd;stroke:#000000;stroke-width:2.0px;stroke-linecap:butt;stroke-linejoin:miter;stroke-opacity:1"/>
<path d="M 849.8,660.6 L 848.5,660.5 L 847.3,657.6" style="fill:none;stroke:#000000;stroke-width:2.0px;stroke-linecap:butt;stroke-linejoin:miter;stroke-opacity:1;"/>
<path d="M 825.6,605.9 L 824.4,603.0 L 823.1,602.8" style="fill:none;stroke:#000000;stroke-width:2.0px;stroke-linecap:butt;stroke-linejoin:miter;stroke-opacity:1;"/>
<path d="M 739.0,538.8 L 738.5,537.6 L 735.4,537.2" style="fill:none;stroke:#000000;stroke-width:2.0px;stroke-linecap:butt;stroke-linejoin:miter;stroke-opacity:1;"/>
<path d="M 648.2,477.8 L 646.7,475.0 L 643.6,475.6" style="fill:none;stroke:#000000;stroke-width:2.0px;stroke-linecap:butt;stroke-linejoin:miter;stroke-opacity:1;"/>
<path d="M 588.5,486.1 L 585.4,486.7 L 585.0,489.7" style="fill:none;stroke:#000000;stroke-width:2.0px;stroke-linecap:butt;stroke-linejoin:miter;stroke-opacity:1;"/>
<path d="M 460.7,667.1 L 460.3,670.2 L 457.3,670.8" style="fill:none;stroke:#000000;stroke-width:2.0px;stroke-linecap:butt;stroke-linejoin:miter;stroke-opacity:1;"/>
<path d="M 402.2,681.3 L 399.1,681.8 L 397.6,679.1" style="fill:none;stroke:#000000;stroke-width:2.0px;stroke-linecap:butt;stroke-linejoin:miter;stroke-opacity:1;"/>
<path d="M 310.4,619.7 L 307.3,619.3 L 306.7,617.9" style="fill:none;stroke:#000000;stroke-width:2.0px;stroke-linecap:butt;stroke-linejoin:miter;stroke-opacity:1;"/>
<path class="atom-0" d="M 931.1 723.9 L 933.6 721.2 L 930.2 720.5 L 930.7 718.8 L 933.9 720.4 L 933.4 716.9 L 935.3 716.9 L 934.8 720.3 L 938.0 718.8 L 938.6 720.5 L 935.1 721.2 L 937.6 723.9 L 936.0 725.0 L 934.3 721.7 L 932.6 725.0 L 931.1 723.9 " fill="#191919"/>
<path class="atom-1" d="M 902.2 668.4 Q 902.2 664.2, 904.3 661.8 Q 906.4 659.4, 910.3 659.4 Q 914.2 659.4, 916.3 661.8 Q 918.4 664.2, 918.4 668.4 Q 918.4 672.7, 916.3 675.1 Q 914.2 677.6, 910.3 677.6 Q 906.4 677.6, 904.3 675.1 Q 902.2 672.7, 902.2 668.4 M 910.3 675.6 Q 913.0 675.6, 914.4 673.8 Q 915.9 671.9, 915.9 668.4 Q 915.9 664.9, 914.4 663.2 Q 913.0 661.4, 910.3 661.4 Q 907.6 661.4, 906.1 663.2 Q 904.7 664.9, 904.7 668.4 Q 904.7 672.0, 906.1 673.8 Q 907.6 675.6, 910.3 675.6 " fill="#FF0000"/>
<path class="atom-4" d="M 754.4 595.1 Q 754.4 590.9, 756.5 588.5 Q 758.6 586.2, 762.5 586.2 Q 766.5 586.2, 768.6 588.5 Q 770.7 590.9, 770.7 595.1 Q 770.7 599.4, 768.5 601.9 Q 766.4 604.3, 762.5 604.3 Q 758.7 604.3, 756.5 601.9 Q 754.4 599.5, 754.4 595.1 M 762.5 602.3 Q 765.2 602.3, 766.7 600.5 Q 768.2 598.7, 768.2 595.1 Q 768.2 591.7, 766.7 589.9 Q 765.2 588.2, 762.5 588.2 Q 759.9 588.2, 758.4 589.9 Q 756.9 591.6, 756.9 595.1 Q 756.9 598.7, 758.4 600.5 Q 759.9 602.3, 762.5 602.3 " fill="#FF0000"/>
<path class="atom-6" d="M 768.1 488.0 Q 768.1 483.8, 770.2 481.4 Q 772.3 479.1, 776.2 479.1 Q 780.1 479.1, 782.2 481.4 Q 784.3 483.8, 784.3 488.0 Q 784.3 492.3, 782.2 494.8 Q 780.1 497.2, 776.2 497.2 Q 772.3 497.2, 770.2 494.8 Q 768.1 492.4, 768.1 488.0 M 776.2 495.2 Q 778.9 495.2, 780.4 493.4 Q 781.8 491.6, 781.8 488.0 Q 781.8 484.6, 780.4 482.8 Q 778.9 481.1, 776.2 481.1 Q 773.5 481.1, 772.1 482.8 Q 770.6 484.6, 770.6 488.0 Q 770.6 491.6, 772.1 493.4 Q 773.5 495.2, 776.2 495.2 " fill="#FF0000"/>
<path class="atom-19" d="M 279.9 559.8 L 282.5 557.2 L 279.0 556.5 L 279.6 554.7 L 282.7 556.3 L 282.3 552.8 L 284.1 552.8 L 283.6 556.3 L 286.8 554.8 L 287.4 556.5 L 283.9 557.1 L 286.4 559.8 L 284.9 560.9 L 283.1 557.6 L 281.4 560.9 L 279.9 559.8 " fill="#191919"/>
<path class="atom-20" d="M 261.4 668.9 Q 261.4 664.7, 263.5 662.3 Q 265.6 660.0, 269.5 660.0 Q 273.5 660.0, 275.6 662.3 Q 277.7 664.7, 277.7 668.9 Q 277.7 673.2, 275.5 675.7 Q 273.4 678.1, 269.5 678.1 Q 265.7 678.1, 263.5 675.7 Q 261.4 673.3, 261.4 668.9 M 269.5 676.1 Q 272.2 676.1, 273.7 674.3 Q 275.2 672.5, 275.2 668.9 Q 275.2 665.5, 273.7 663.7 Q 272.2 662.0, 269.5 662.0 Q 266.9 662.0, 265.4 663.7 Q 263.9 665.5, 263.9 668.9 Q 263.9 672.5, 265.4 674.3 Q 266.9 676.1, 269.5 676.1 " fill="#FF0000"/>
<path class="atom-21" d="M 403.7 581.8 Q 403.7 577.6, 405.8 575.2 Q 407.9 572.9, 411.9 572.9 Q 415.8 572.9, 417.9 575.2 Q 420.0 577.6, 420.0 581.8 Q 420.0 586.1, 417.8 588.6 Q 415.7 591.0, 411.9 591.0 Q 408.0 591.0, 405.8 588.6 Q 403.7 586.2, 403.7 581.8 M 411.9 589.0 Q 414.5 589.0, 416.0 587.2 Q 417.5 585.4, 417.5 581.8 Q 417.5 578.4, 416.0 576.6 Q 414.5 574.9, 411.9 574.9 Q 409.2 574.9, 407.7 576.6 Q 406.2 578.4, 406.2 581.8 Q 406.2 585.4, 407.7 587.2 Q 409.2 589.0, 411.9 589.0 " fill="#FF0000"/>
<path class="atom-22" d="M 625.8 575.1 Q 625.8 570.9, 627.9 568.5 Q 630.0 566.2, 633.9 566.2 Q 637.8 566.2, 639.9 568.5 Q 642.0 570.9, 642.0 575.1 Q 642.0 579.4, 639.9 581.9 Q 637.8 584.3, 633.9 584.3 Q 630.0 584.3, 627.9 581.9 Q 625.8 579.5, 625.8 575.1 M 633.9 582.3 Q 636.6 582.3, 638.0 580.5 Q 639.5 578.7, 639.5 575.1 Q 639.5 571.7, 638.0 569.9 Q 636.6 568.2, 633.9 568.2 Q 631.2 568.2, 629.7 569.9 Q 628.3 571.7, 628.3 575.1 Q 628.3 578.7, 629.7 580.5 Q 631.2 582.3, 633.9 582.3 " fill="#FF0000"/>
</svg>