<svg xmlns="http://www.w3.org/2000/svg" xmlns:rdkit="http://www.rdkit.org/xml" xmlns:xlink="http://www.w3.org/1999/xlink" version="1.1" baseProfile="full" xml:space="preserve" width="1200px" height="800px" viewBox="0 0 1200 800">
<!-- END OF HEADER -->
<rect style="opacity:1.0;fill:#FFFFFF;stroke:none" width="1200.0" height="800.0" x="0.0" y="0.0"> </rect>
<path class="bond-0 atom-0 atom-1" d="M 827.5,377.1 L 807.0,363.6" style="fill:none;fill-rule:evenodd;stroke:#191919;stroke-width:2.0px;stroke-linecap:butt;stroke-linejoin:miter;stroke-opacity:1"/>
<path class="bond-0 atom-0 atom-1" d="M 807.0,363.6 L 786.5,350.0" style="fill:none;fill-rule:evenodd;stroke:#000000;stroke-width:2.0px;stroke-linecap:butt;stroke-linejoin:miter;stroke-opacity:1"/>
<path class="bond-1 atom-1 atom-2" d="M 786.5,350.0 L 789.8,294.2" style="fill:none;fill-rule:evenodd;stroke:#000000;stroke-width:2.0px;stroke-linecap:butt;stroke-linejoin:miter;stroke-opacity:1"/>
<path class="bond-2 atom-2 atom-3" d="M 789.5,299.0 L 811.1,288.3" style="fill:none;fill-rule:evenodd;stroke:#000000;stroke-width:2.0px;stroke-linecap:butt;stroke-linejoin:miter;stroke-opacity:1"/>
<path class="bond-2 atom-2 atom-3" d="M 811.1,288.3 L 832.6,277.5" style="fill:none;fill-rule:evenodd;stroke:#FF0000;stroke-width:2.0px;stroke-linecap:butt;stroke-linejoin:miter;stroke-opacity:1"/>
<path class="bond-2 atom-2 atom-3" d="M 785.8,291.5 L 807.3,280.8" style="fill:none;fill-rule:evenodd;stroke:#000000;stroke-width:2.0px;stroke-linecap:butt;stroke-linejoin:miter;stroke-opacity:1"/>
<path class="bond-2 atom-2 atom-3" d="M 807.3,280.8 L 828.9,270.0" style="fill:none;fill-rule:evenodd;stroke:#FF0000;stroke-width:2.0px;stroke-linecap:butt;stroke-linejoin:miter;stroke-opacity:1"/>
<path class="bond-3 atom-2 atom-4" d="M 789.8,294.2 L 743.2,263.4" style="fill:none;fill-rule:evenodd;stroke:#000000;stroke-width:2.0px;stroke-linecap:butt;stroke-linejoin:miter;stroke-opacity:1"/>
<path class="bond-4 atom-4 atom-5" d="M 743.2,263.4 L 693.2,288.4" style="fill:none;fill-rule:evenodd;stroke:#000000;stroke-width:2.0px;stroke-linecap:butt;stroke-linejoin:miter;stroke-opacity:1"/>
<path class="bond-4 atom-4 atom-5" d="M 735.1,258.0 L 693.8,278.7" style="fill:none;fill-rule:evenodd;stroke:#000000;stroke-width:2.0px;stroke-linecap:butt;stroke-linejoin:miter;stroke-opacity:1"/>
<path class="bond-5 atom-5 atom-6" d="M 693.2,288.4 L 646.6,257.5" style="fill:none;fill-rule:evenodd;stroke:#000000;stroke-width:2.0px;stroke-linecap:butt;stroke-linejoin:miter;stroke-opacity:1"/>
<path class="bond-6 atom-6 atom-7" d="M 646.6,257.5 L 596.6,282.5" style="fill:none;fill-rule:evenodd;stroke:#000000;stroke-width:2.0px;stroke-linecap:butt;stroke-linejoin:miter;stroke-opacity:1"/>
<path class="bond-7 atom-7 atom-8" d="M 592.5,279.9 L 591.1,304.0" style="fill:none;fill-rule:evenodd;stroke:#000000;stroke-width:2.0px;stroke-linecap:butt;stroke-linejoin:miter;stroke-opacity:1"/>
<path class="bond-7 atom-7 atom-8" d="M 591.1,304.0 L 589.6,328.2" style="fill:none;fill-rule:evenodd;stroke:#FF0000;stroke-width:2.0px;stroke-linecap:butt;stroke-linejoin:miter;stroke-opacity:1"/>
<path class="bond-7 atom-7 atom-8" d="M 600.9,280.4 L 599.4,304.5" style="fill:none;fill-rule:evenodd;stroke:#000000;stroke-width:2.0px;stroke-linecap:butt;stroke-linejoin:miter;stroke-opacity:1"/>
<path class="bond-7 atom-7 atom-8" d="M 599.4,304.5 L 598.0,328.7" style="fill:none;fill-rule:evenodd;stroke:#FF0000;stroke-width:2.0px;stroke-linecap:butt;stroke-linejoin:miter;stroke-opacity:1"/>
<path class="bond-8 atom-7 atom-9" d="M 596.6,282.5 L 577.8,270.1" style="fill:none;fill-rule:evenodd;stroke:#000000;stroke-width:2.0px;stroke-linecap:butt;stroke-linejoin:miter;stroke-opacity:1"/>
<path class="bond-8 atom-7 atom-9" d="M 577.8,270.1 L 559.0,257.7" style="fill:none;fill-rule:evenodd;stroke:#FF0000;stroke-width:2.0px;stroke-linecap:butt;stroke-linejoin:miter;stroke-opacity:1"/>
<path class="bond-9 atom-9 atom-10" d="M 540.8,256.3 L 520.4,266.5" style="fill:none;fill-rule:evenodd;stroke:#FF0000;stroke-width:2.0px;stroke-linecap:butt;stroke-linejoin:miter;stroke-opacity:1"/>
<path class="bond-9 atom-9 atom-10" d="M 520.4,266.5 L 499.9,276.7" style="fill:none;fill-rule:evenodd;stroke:#000000;stroke-width:2.0px;stroke-linecap:butt;stroke-linejoin:miter;stroke-opacity:1"/>
<path class="bond-10 atom-10 atom-11" d="M 499.9,276.7 L 453.3,245.9" style="fill:none;fill-rule:evenodd;stroke:#000000;stroke-width:2.0px;stroke-linecap:butt;stroke-linejoin:miter;stroke-opacity:1"/>
<path class="bond-11 atom-11 atom-12" d="M 453.3,245.9 L 432.8,256.1" style="fill:none;fill-rule:evenodd;stroke:#000000;stroke-width:2.0px;stroke-linecap:butt;stroke-linejoin:miter;stroke-opacity:1"/>
<path class="bond-11 atom-11 atom-12" d="M 432.8,256.1 L 412.4,266.3" style="fill:none;fill-rule:evenodd;stroke:#FF0000;stroke-width:2.0px;stroke-linecap:butt;stroke-linejoin:miter;stroke-opacity:1"/>
<path class="bond-12 atom-12 atom-13" d="M 394.2,264.8 L 376.2,252.9" style="fill:none;fill-rule:evenodd;stroke:#FF0000;stroke-width:2.0px;stroke-linecap:butt;stroke-linejoin:miter;stroke-opacity:1"/>
<path class="bond-12 atom-12 atom-13" d="M 376.2,252.9 L 358.2,241.1" style="fill:none;fill-rule:evenodd;stroke:#191919;stroke-width:2.0px;stroke-linecap:butt;stroke-linejoin:miter;stroke-opacity:1"/>
<path class="bond-13 atom-6 atom-14" d="M 646.6,257.5 L 649.9,201.7" style="fill:none;fill-rule:evenodd;stroke:#000000;stroke-width:2.0px;stroke-linecap:butt;stroke-linejoin:miter;stroke-opacity:1"/>
<path class="bond-13 atom-6 atom-14" d="M 655.2,253.2 L 658.0,207.1" style="fill:none;fill-rule:evenodd;stroke:#000000;stroke-width:2.0px;stroke-linecap:butt;stroke-linejoin:miter;stroke-opacity:1"/>
<path class="bond-14 atom-14 atom-15" d="M 649.9,201.7 L 699.9,176.8" style="fill:none;fill-rule:evenodd;stroke:#000000;stroke-width:2.0px;stroke-linecap:butt;stroke-linejoin:miter;stroke-opacity:1"/>
<path class="bond-15 atom-15 atom-16" d="M 699.9,176.8 L 701.3,154.0" style="fill:none;fill-rule:evenodd;stroke:#000000;stroke-width:2.0px;stroke-linecap:butt;stroke-linejoin:miter;stroke-opacity:1"/>
<path class="bond-15 atom-15 atom-16" d="M 701.3,154.0 L 702.7,131.1" style="fill:none;fill-rule:evenodd;stroke:#CCCC00;stroke-width:2.0px;stroke-linecap:butt;stroke-linejoin:miter;stroke-opacity:1"/>
<path class="bond-16 atom-16 atom-17" d="M 710.0,125.6 L 729.9,126.8" style="fill:none;fill-rule:evenodd;stroke:#CCCC00;stroke-width:2.0px;stroke-linecap:butt;stroke-linejoin:miter;stroke-opacity:1"/>
<path class="bond-16 atom-16 atom-17" d="M 729.9,126.8 L 749.7,128.0" style="fill:none;fill-rule:evenodd;stroke:#FF0000;stroke-width:2.0px;stroke-linecap:butt;stroke-linejoin:miter;stroke-opacity:1"/>
<path class="bond-16 atom-16 atom-17" d="M 710.5,117.2 L 730.4,118.4" style="fill:none;fill-rule:evenodd;stroke:#CCCC00;stroke-width:2.0px;stroke-linecap:butt;stroke-linejoin:miter;stroke-opacity:1"/>
<path class="bond-16 atom-16 atom-17" d="M 730.4,118.4 L 750.2,119.6" style="fill:none;fill-rule:evenodd;stroke:#FF0000;stroke-width:2.0px;stroke-linecap:butt;stroke-linejoin:miter;stroke-opacity:1"/>
<path class="bond-17 atom-16 atom-18" d="M 696.6,116.4 L 676.8,115.2" style="fill:none;fill-rule:evenodd;stroke:#CCCC00;stroke-width:2.0px;stroke-linecap:butt;stroke-linejoin:miter;stroke-opacity:1"/>
<path class="bond-17 atom-16 atom-18" d="M 676.8,115.2 L 656.9,114.0" style="fill:none;fill-rule:evenodd;stroke:#FF0000;stroke-width:2.0px;stroke-linecap:butt;stroke-linejoin:miter;stroke-opacity:1"/>
<path class="bond-17 atom-16 atom-18" d="M 696.1,124.7 L 676.2,123.5" style="fill:none;fill-rule:evenodd;stroke:#CCCC00;stroke-width:2.0px;stroke-linecap:butt;stroke-linejoin:miter;stroke-opacity:1"/>
<path class="bond-17 atom-16 atom-18" d="M 676.2,123.5 L 656.4,122.3" style="fill:none;fill-rule:evenodd;stroke:#FF0000;stroke-width:2.0px;stroke-linecap:butt;stroke-linejoin:miter;stroke-opacity:1"/>
<path class="bond-18 atom-16 atom-19" d="M 703.9,111.2 L 705.0,93.3" style="fill:none;fill-rule:evenodd;stroke:#CCCC00;stroke-width:2.0px;stroke-linecap:butt;stroke-linejoin:miter;stroke-opacity:1"/>
<path class="bond-18 atom-16 atom-19" d="M 705.0,93.3 L 706.1,75.3" style="fill:none;fill-rule:evenodd;stroke:#FF0000;stroke-width:2.0px;stroke-linecap:butt;stroke-linejoin:miter;stroke-opacity:1"/>
<path class="bond-19 atom-15 atom-20" d="M 699.9,176.8 L 746.6,207.6" style="fill:none;fill-rule:evenodd;stroke:#000000;stroke-width:2.0px;stroke-linecap:butt;stroke-linejoin:miter;stroke-opacity:1"/>
<path class="bond-19 atom-15 atom-20" d="M 699.3,186.4 L 737.9,211.9" style="fill:none;fill-rule:evenodd;stroke:#000000;stroke-width:2.0px;stroke-linecap:butt;stroke-linejoin:miter;stroke-opacity:1"/>
<path class="bond-20 atom-20 atom-4" d="M 746.6,207.6 L 743.2,263.4" style="fill:none;fill-rule:evenodd;stroke:#000000;stroke-width:2.0px;stroke-linecap:butt;stroke-linejoin:miter;stroke-opacity:1"/>
<path d="M 787.5,350.7 L 786.5,350.0 L 786.6,347.2" style="fill:none;stroke:#000000;stroke-width:2.0px;stroke-linecap:butt;stroke-linejoin:miter;stroke-opacity:1;"/>
<path d="M 789.7,297.0 L 789.8,294.2 L 787.5,292.7" style="fill:none;stroke:#000000;stroke-width:2.0px;stroke-linecap:butt;stroke-linejoin:miter;stroke-opacity:1;"/>
<path d="M 695.7,287.1 L 693.2,288.4 L 690.9,286.8" style="fill:none;stroke:#000000;stroke-width:2.0px;stroke-linecap:butt;stroke-linejoin:miter;stroke-opacity:1;"/>
<path d="M 599.1,281.3 L 596.6,282.5 L 595.6,281.9" style="fill:none;stroke:#000000;stroke-width:2.0px;stroke-linecap:butt;stroke-linejoin:miter;stroke-opacity:1;"/>
<path d="M 500.9,276.2 L 499.9,276.7 L 497.6,275.1" style="fill:none;stroke:#000000;stroke-width:2.0px;stroke-linecap:butt;stroke-linejoin:miter;stroke-opacity:1;"/>
<path d="M 455.6,247.4 L 453.3,245.9 L 452.3,246.4" style="fill:none;stroke:#000000;stroke-width:2.0px;stroke-linecap:butt;stroke-linejoin:miter;stroke-opacity:1;"/>
<path d="M 649.8,204.5 L 649.9,201.7 L 652.4,200.5" style="fill:none;stroke:#000000;stroke-width:2.0px;stroke-linecap:butt;stroke-linejoin:miter;stroke-opacity:1;"/>
<path d="M 744.2,206.0 L 746.6,207.6 L 746.4,210.4" style="fill:none;stroke:#000000;stroke-width:2.0px;stroke-linecap:butt;stroke-linejoin:miter;stroke-opacity:1;"/>
<path class="atom-0" d="M 830.1 379.0 L 832.4 376.7 L 829.4 376.0 L 829.8 374.5 L 832.7 375.9 L 832.3 372.8 L 833.9 372.8 L 833.5 375.9 L 836.4 374.5 L 836.8 376.0 L 833.7 376.6 L 835.9 379.0 L 834.6 380.0 L 833.0 377.0 L 831.5 380.0 L 830.1 379.0 " fill="#191919"/>
<path class="atom-3" d="M 832.6 269.3 Q 832.6 265.5, 834.4 263.3 Q 836.3 261.2, 839.8 261.2 Q 843.3 261.2, 845.2 263.3 Q 847.1 265.5, 847.1 269.3 Q 847.1 273.1, 845.2 275.3 Q 843.3 277.5, 839.8 277.5 Q 836.3 277.5, 834.4 275.3 Q 832.6 273.1, 832.6 269.3 M 839.8 275.7 Q 842.3 275.7, 843.5 274.1 Q 844.9 272.4, 844.9 269.3 Q 844.9 266.2, 843.5 264.6 Q 842.3 263.0, 839.8 263.0 Q 837.4 263.0, 836.1 264.6 Q 834.8 266.1, 834.8 269.3 Q 834.8 272.5, 836.1 274.1 Q 837.4 275.7, 839.8 275.7 " fill="#FF0000"/>
<path class="atom-8" d="M 585.9 338.4 Q 585.9 334.6, 587.8 332.4 Q 589.7 330.3, 593.2 330.3 Q 596.7 330.3, 598.6 332.4 Q 600.5 334.6, 600.5 338.4 Q 600.5 342.2, 598.6 344.4 Q 596.6 346.6, 593.2 346.6 Q 589.7 346.6, 587.8 344.4 Q 585.9 342.2, 585.9 338.4 M 593.2 344.8 Q 595.6 344.8, 596.9 343.2 Q 598.2 341.5, 598.2 338.4 Q 598.2 335.3, 596.9 333.7 Q 595.6 332.1, 593.2 332.1 Q 590.8 332.1, 589.5 333.7 Q 588.2 335.2, 588.2 338.4 Q 588.2 341.6, 589.5 343.2 Q 590.8 344.8, 593.2 344.8 " fill="#FF0000"/>
<path class="atom-9" d="M 542.7 251.7 Q 542.7 247.9, 544.5 245.8 Q 546.4 243.7, 549.9 243.7 Q 553.4 243.7, 555.3 245.8 Q 557.2 247.9, 557.2 251.7 Q 557.2 255.6, 555.3 257.8 Q 553.4 260.0, 549.9 260.0 Q 546.4 260.0, 544.5 257.8 Q 542.7 255.6, 542.7 251.7 M 549.9 258.2 Q 552.3 258.2, 553.6 256.6 Q 555.0 254.9, 555.0 251.7 Q 555.0 248.6, 553.6 247.1 Q 552.3 245.5, 549.9 245.5 Q 547.5 245.5, 546.2 247.1 Q 544.9 248.6, 544.9 251.7 Q 544.9 254.9, 546.2 256.6 Q 547.5 258.2, 549.9 258.2 " fill="#FF0000"/>
<path class="atom-12" d="M 396.0 270.9 Q 396.0 267.1, 397.9 265.0 Q 399.8 262.8, 403.3 262.8 Q 406.8 262.8, 408.7 265.0 Q 410.5 267.1, 410.5 270.9 Q 410.5 274.7, 408.6 276.9 Q 406.7 279.1, 403.3 279.1 Q 399.8 279.1, 397.9 276.9 Q 396.0 274.8, 396.0 270.9 M 403.3 277.3 Q 405.7 277.3, 407.0 275.7 Q 408.3 274.1, 408.3 270.9 Q 408.3 267.8, 407.0 266.2 Q 405.7 264.6, 403.3 264.6 Q 400.9 264.6, 399.5 266.2 Q 398.2 267.8, 398.2 270.9 Q 398.2 274.1, 399.5 275.7 Q 400.9 277.3, 403.3 277.3 " fill="#FF0000"/>
<path class="atom-13" d="M 353.7 238.3 L 356.0 235.9 L 352.9 235.3 L 353.4 233.7 L 356.2 235.1 L 355.8 232.0 L 357.5 232.0 L 357.0 235.1 L 359.9 233.7 L 360.4 235.3 L 357.3 235.8 L 359.5 238.2 L 358.1 239.2 L 356.6 236.3 L 355.0 239.2 L 353.7 238.3 " fill="#191919"/>
<path class="atom-16" d="M 698.8 126.4 Q 699.0 126.5, 699.7 126.8 Q 700.5 127.1, 701.3 127.3 Q 702.1 127.5, 702.9 127.5 Q 704.4 127.5, 705.3 126.8 Q 706.2 126.0, 706.2 124.8 Q 706.2 123.9, 705.7 123.3 Q 705.3 122.8, 704.6 122.5 Q 704.0 122.2, 702.8 121.9 Q 701.4 121.5, 700.6 121.1 Q 699.7 120.7, 699.1 119.8 Q 698.6 119.0, 698.6 117.5 Q 698.6 115.5, 699.9 114.3 Q 701.3 113.1, 704.0 113.1 Q 705.8 113.1, 707.9 114.0 L 707.4 115.7 Q 705.4 114.9, 704.0 114.9 Q 702.5 114.9, 701.6 115.5 Q 700.8 116.2, 700.8 117.3 Q 700.8 118.1, 701.2 118.6 Q 701.7 119.1, 702.3 119.4 Q 702.9 119.7, 704.0 120.1 Q 705.4 120.5, 706.3 121.0 Q 707.1 121.4, 707.8 122.3 Q 708.4 123.2, 708.4 124.8 Q 708.4 126.9, 706.9 128.1 Q 705.4 129.3, 703.0 129.3 Q 701.6 129.3, 700.5 129.0 Q 699.5 128.7, 698.2 128.2 L 698.8 126.4 " fill="#CCCC00"/>
<path class="atom-17" d="M 751.8 124.4 Q 751.8 120.6, 753.7 118.5 Q 755.6 116.3, 759.1 116.3 Q 762.6 116.3, 764.5 118.5 Q 766.4 120.6, 766.4 124.4 Q 766.4 128.2, 764.5 130.4 Q 762.6 132.6, 759.1 132.6 Q 755.6 132.6, 753.7 130.4 Q 751.8 128.3, 751.8 124.4 M 759.1 130.8 Q 761.5 130.8, 762.8 129.2 Q 764.1 127.6, 764.1 124.4 Q 764.1 121.3, 762.8 119.7 Q 761.5 118.1, 759.1 118.1 Q 756.7 118.1, 755.4 119.7 Q 754.1 121.3, 754.1 124.4 Q 754.1 127.6, 755.4 129.2 Q 756.7 130.8, 759.1 130.8 " fill="#FF0000"/>
<path class="atom-18" d="M 640.2 117.6 Q 640.2 113.8, 642.1 111.7 Q 644.0 109.6, 647.5 109.6 Q 651.0 109.6, 652.9 111.7 Q 654.8 113.8, 654.8 117.6 Q 654.8 121.5, 652.9 123.7 Q 651.0 125.9, 647.5 125.9 Q 644.0 125.9, 642.1 123.7 Q 640.2 121.5, 640.2 117.6 M 647.5 124.1 Q 649.9 124.1, 651.2 122.5 Q 652.5 120.8, 652.5 117.6 Q 652.5 114.5, 651.2 113.0 Q 649.9 111.4, 647.5 111.4 Q 645.1 111.4, 643.8 113.0 Q 642.5 114.5, 642.5 117.6 Q 642.5 120.8, 643.8 122.5 Q 645.1 124.1, 647.5 124.1 " fill="#FF0000"/>
<path class="atom-19" d="M 699.4 65.2 Q 699.4 61.4, 701.3 59.3 Q 703.2 57.2, 706.7 57.2 Q 710.2 57.2, 712.1 59.3 Q 713.9 61.4, 713.9 65.2 Q 713.9 69.1, 712.0 71.3 Q 710.1 73.4, 706.7 73.4 Q 703.2 73.4, 701.3 71.3 Q 699.4 69.1, 699.4 65.2 M 706.7 71.6 Q 709.1 71.6, 710.4 70.0 Q 711.7 68.4, 711.7 65.2 Q 711.7 62.1, 710.4 60.6 Q 709.1 59.0, 706.7 59.0 Q 704.3 59.0, 702.9 60.5 Q 701.6 62.1, 701.6 65.2 Q 701.6 68.4, 702.9 70.0 Q 704.3 71.6, 706.7 71.6 " fill="#FF0000"/>
<path class="atom-19" d="M 716.2 59.8 L 721.6 59.8 L 721.6 60.9 L 716.2 60.9 L 716.2 59.8 " fill="#FF0000"/>
<path class="atom-21" d="M 648.8 20.0 L 654.0 28.4 Q 654.5 29.2, 655.3 30.7 Q 656.1 32.2, 656.2 32.3 L 656.2 20.0 L 658.3 20.0 L 658.3 35.8 L 656.1 35.8 L 650.6 26.7 Q 649.9 25.6, 649.2 24.4 Q 648.5 23.1, 648.3 22.8 L 648.3 35.8 L 646.3 35.8 L 646.3 20.0 L 648.8 20.0 " fill="#000000"/>
<path class="atom-21" d="M 661.2 32.7 Q 661.2 30.9, 662.7 29.9 Q 664.2 28.9, 666.9 28.9 L 668.6 28.9 L 668.6 28.4 Q 668.6 27.0, 668.0 26.4 Q 667.4 25.8, 665.9 25.8 Q 665.0 25.8, 664.3 26.0 Q 663.6 26.1, 662.5 26.6 L 661.9 25.2 Q 664.0 24.1, 666.0 24.1 Q 668.4 24.1, 669.5 25.2 Q 670.7 26.2, 670.7 28.5 L 670.7 35.8 L 669.0 35.8 Q 669.0 35.7, 668.9 35.4 Q 668.9 35.0, 668.7 34.5 Q 667.1 36.1, 665.0 36.1 Q 663.3 36.1, 662.2 35.2 Q 661.2 34.3, 661.2 32.7 M 663.3 32.7 Q 663.3 33.5, 663.8 34.0 Q 664.4 34.4, 665.4 34.4 Q 666.3 34.4, 667.1 34.0 Q 668.0 33.6, 668.6 32.9 L 668.6 30.4 L 667.0 30.4 Q 665.2 30.4, 664.2 31.0 Q 663.3 31.6, 663.3 32.7 " fill="#000000"/>
<path class="atom-21" d="M 673.4 24.8 L 676.2 24.8 L 676.2 21.9 L 677.5 21.9 L 677.5 24.8 L 680.3 24.8 L 680.3 25.8 L 677.5 25.8 L 677.5 28.8 L 676.2 28.8 L 676.2 25.8 L 673.4 25.8 L 673.4 24.8 " fill="#000000"/>
<path class="bond-0 atom-0 atom-1" d="M 895.7,703.0 L 889.1,687.2" style="fill:none;fill-rule:evenodd;stroke:#191919;stroke-width:2.0px;stroke-linecap:butt;stroke-linejoin:miter;stroke-opacity:1"/>
<path class="bond-0 atom-0 atom-1" d="M 889.1,687.2 L 882.5,671.4" style="fill:none;fill-rule:evenodd;stroke:#FF0000;stroke-width:2.0px;stroke-linecap:butt;stroke-linejoin:miter;stroke-opacity:1"/>
<path class="bond-1 atom-1 atom-2" d="M 869.1,660.1 L 846.0,657.2" style="fill:none;fill-rule:evenodd;stroke:#FF0000;stroke-width:2.0px;stroke-linecap:butt;stroke-linejoin:miter;stroke-opacity:1"/>
<path class="bond-1 atom-1 atom-2" d="M 846.0,657.2 L 822.8,654.2" style="fill:none;fill-rule:evenodd;stroke:#000000;stroke-width:2.0px;stroke-linecap:butt;stroke-linejoin:miter;stroke-opacity:1"/>
<path class="bond-2 atom-2 atom-3" d="M 822.8,654.2 L 801.2,602.7" style="fill:none;fill-rule:evenodd;stroke:#000000;stroke-width:2.0px;stroke-linecap:butt;stroke-linejoin:miter;stroke-opacity:1"/>
<path class="bond-3 atom-3 atom-4" d="M 801.2,602.7 L 778.0,599.7" style="fill:none;fill-rule:evenodd;stroke:#000000;stroke-width:2.0px;stroke-linecap:butt;stroke-linejoin:miter;stroke-opacity:1"/>
<path class="bond-3 atom-3 atom-4" d="M 778.0,599.7 L 754.9,596.8" style="fill:none;fill-rule:evenodd;stroke:#FF0000;stroke-width:2.0px;stroke-linecap:butt;stroke-linejoin:miter;stroke-opacity:1"/>
<path class="bond-4 atom-4 atom-5" d="M 741.6,585.7 L 732.9,564.9" style="fill:none;fill-rule:evenodd;stroke:#FF0000;stroke-width:2.0px;stroke-linecap:butt;stroke-linejoin:miter;stroke-opacity:1"/>
<path class="bond-4 atom-4 atom-5" d="M 732.9,564.9 L 724.2,544.0" style="fill:none;fill-rule:evenodd;stroke:#000000;stroke-width:2.0px;stroke-linecap:butt;stroke-linejoin:miter;stroke-opacity:1"/>
<path class="bond-5 atom-5 atom-6" d="M 726.0,548.5 L 739.9,530.3" style="fill:none;fill-rule:evenodd;stroke:#000000;stroke-width:2.0px;stroke-linecap:butt;stroke-linejoin:miter;stroke-opacity:1"/>
<path class="bond-5 atom-5 atom-6" d="M 739.9,530.3 L 753.7,512.2" style="fill:none;fill-rule:evenodd;stroke:#FF0000;stroke-width:2.0px;stroke-linecap:butt;stroke-linejoin:miter;stroke-opacity:1"/>
<path class="bond-5 atom-5 atom-6" d="M 719.4,543.4 L 733.2,525.3" style="fill:none;fill-rule:evenodd;stroke:#000000;stroke-width:2.0px;stroke-linecap:butt;stroke-linejoin:miter;stroke-opacity:1"/>
<path class="bond-5 atom-5 atom-6" d="M 733.2,525.3 L 747.0,507.1" style="fill:none;fill-rule:evenodd;stroke:#FF0000;stroke-width:2.0px;stroke-linecap:butt;stroke-linejoin:miter;stroke-opacity:1"/>
<path class="bond-6 atom-5 atom-7" d="M 724.2,544.0 L 668.7,537.0" style="fill:none;fill-rule:evenodd;stroke:#000000;stroke-width:2.0px;stroke-linecap:butt;stroke-linejoin:miter;stroke-opacity:1"/>
<path class="bond-7 atom-7 atom-8" d="M 668.7,537.0 L 641.9,487.9" style="fill:none;fill-rule:evenodd;stroke:#000000;stroke-width:2.0px;stroke-linecap:butt;stroke-linejoin:miter;stroke-opacity:1"/>
<path class="bond-7 atom-7 atom-8" d="M 658.4,535.7 L 637.4,497.3" style="fill:none;fill-rule:evenodd;stroke:#000000;stroke-width:2.0px;stroke-linecap:butt;stroke-linejoin:miter;stroke-opacity:1"/>
<path class="bond-8 atom-8 atom-9" d="M 641.9,487.9 L 586.9,498.4" style="fill:none;fill-rule:evenodd;stroke:#000000;stroke-width:2.0px;stroke-linecap:butt;stroke-linejoin:miter;stroke-opacity:1"/>
<path class="bond-9 atom-9 atom-10" d="M 586.9,498.4 L 579.9,553.8" style="fill:none;fill-rule:evenodd;stroke:#000000;stroke-width:2.0px;stroke-linecap:butt;stroke-linejoin:miter;stroke-opacity:1"/>
<path class="bond-9 atom-9 atom-10" d="M 594.5,505.5 L 588.9,548.8" style="fill:none;fill-rule:evenodd;stroke:#000000;stroke-width:2.0px;stroke-linecap:butt;stroke-linejoin:miter;stroke-opacity:1"/>
<path class="bond-10 atom-10 atom-11" d="M 579.9,553.8 L 530.8,580.7" style="fill:none;fill-rule:evenodd;stroke:#000000;stroke-width:2.0px;stroke-linecap:butt;stroke-linejoin:miter;stroke-opacity:1"/>
<path class="bond-11 atom-11 atom-12" d="M 530.8,580.7 L 504.0,531.7" style="fill:none;fill-rule:evenodd;stroke:#000000;stroke-width:2.0px;stroke-linecap:butt;stroke-linejoin:miter;stroke-opacity:1"/>
<path class="bond-12 atom-11 atom-13" d="M 530.8,580.7 L 557.7,629.7" style="fill:none;fill-rule:evenodd;stroke:#000000;stroke-width:2.0px;stroke-linecap:butt;stroke-linejoin:miter;stroke-opacity:1"/>
<path class="bond-13 atom-11 atom-14" d="M 530.8,580.7 L 481.8,607.5" style="fill:none;fill-rule:evenodd;stroke:#000000;stroke-width:2.0px;stroke-linecap:butt;stroke-linejoin:miter;stroke-opacity:1"/>
<path class="bond-14 atom-14 atom-15" d="M 481.8,607.5 L 474.8,663.0" style="fill:none;fill-rule:evenodd;stroke:#000000;stroke-width:2.0px;stroke-linecap:butt;stroke-linejoin:miter;stroke-opacity:1"/>
<path class="bond-14 atom-14 atom-15" d="M 472.7,612.5 L 467.2,655.9" style="fill:none;fill-rule:evenodd;stroke:#000000;stroke-width:2.0px;stroke-linecap:butt;stroke-linejoin:miter;stroke-opacity:1"/>
<path class="bond-15 atom-15 atom-16" d="M 474.8,663.0 L 419.8,673.4" style="fill:none;fill-rule:evenodd;stroke:#000000;stroke-width:2.0px;stroke-linecap:butt;stroke-linejoin:miter;stroke-opacity:1"/>
<path class="bond-16 atom-16 atom-17" d="M 419.8,673.4 L 393.0,624.4" style="fill:none;fill-rule:evenodd;stroke:#000000;stroke-width:2.0px;stroke-linecap:butt;stroke-linejoin:miter;stroke-opacity:1"/>
<path class="bond-16 atom-16 atom-17" d="M 424.3,664.0 L 403.2,625.7" style="fill:none;fill-rule:evenodd;stroke:#000000;stroke-width:2.0px;stroke-linecap:butt;stroke-linejoin:miter;stroke-opacity:1"/>
<path class="bond-17 atom-17 atom-18" d="M 393.0,624.4 L 337.5,617.3" style="fill:none;fill-rule:evenodd;stroke:#000000;stroke-width:2.0px;stroke-linecap:butt;stroke-linejoin:miter;stroke-opacity:1"/>
<path class="bond-18 atom-18 atom-19" d="M 337.5,617.3 L 326.9,592.0" style="fill:none;fill-rule:evenodd;stroke:#000000;stroke-width:2.0px;stroke-linecap:butt;stroke-linejoin:miter;stroke-opacity:1"/>
<path class="bond-18 atom-18 atom-19" d="M 326.9,592.0 L 316.4,566.8" style="fill:none;fill-rule:evenodd;stroke:#191919;stroke-width:2.0px;stroke-linecap:butt;stroke-linejoin:miter;stroke-opacity:1"/>
<path class="bond-19 atom-18 atom-20" d="M 335.7,612.8 L 321.7,631.1" style="fill:none;fill-rule:evenodd;stroke:#000000;stroke-width:2.0px;stroke-linecap:butt;stroke-linejoin:miter;stroke-opacity:1"/>
<path class="bond-19 atom-18 atom-20" d="M 321.7,631.1 L 307.8,649.4" style="fill:none;fill-rule:evenodd;stroke:#FF0000;stroke-width:2.0px;stroke-linecap:butt;stroke-linejoin:miter;stroke-opacity:1"/>
<path class="bond-19 atom-18 atom-20" d="M 342.3,617.9 L 328.4,636.2" style="fill:none;fill-rule:evenodd;stroke:#000000;stroke-width:2.0px;stroke-linecap:butt;stroke-linejoin:miter;stroke-opacity:1"/>
<path class="bond-19 atom-18 atom-20" d="M 328.4,636.2 L 314.5,654.5" style="fill:none;fill-rule:evenodd;stroke:#FF0000;stroke-width:2.0px;stroke-linecap:butt;stroke-linejoin:miter;stroke-opacity:1"/>
<path class="bond-20 atom-17 atom-21" d="M 393.0,624.4 L 407.6,608.9" style="fill:none;fill-rule:evenodd;stroke:#000000;stroke-width:2.0px;stroke-linecap:butt;stroke-linejoin:miter;stroke-opacity:1"/>
<path class="bond-20 atom-17 atom-21" d="M 407.6,608.9 L 422.2,593.4" style="fill:none;fill-rule:evenodd;stroke:#FF0000;stroke-width:2.0px;stroke-linecap:butt;stroke-linejoin:miter;stroke-opacity:1"/>
<path class="bond-21 atom-10 atom-22" d="M 579.9,553.8 L 600.6,563.6" style="fill:none;fill-rule:evenodd;stroke:#000000;stroke-width:2.0px;stroke-linecap:butt;stroke-linejoin:miter;stroke-opacity:1"/>
<path class="bond-21 atom-10 atom-22" d="M 600.6,563.6 L 621.3,573.4" style="fill:none;fill-rule:evenodd;stroke:#FF0000;stroke-width:2.0px;stroke-linecap:butt;stroke-linejoin:miter;stroke-opacity:1"/>
<path class="bond-22 atom-22 atom-7" d="M 639.5,568.0 L 654.1,552.5" style="fill:none;fill-rule:evenodd;stroke:#FF0000;stroke-width:2.0px;stroke-linecap:butt;stroke-linejoin:miter;stroke-opacity:1"/>
<path class="bond-22 atom-22 atom-7" d="M 654.1,552.5 L 668.7,537.0" style="fill:none;fill-rule:evenodd;stroke:#000000;stroke-width:2.0px;stroke-linecap:butt;stroke-linejoin:miter;stroke-opacity:1"/>
<path class="bond-23 atom-21 atom-14" d="M 440.4,588.0 L 461.1,597.8" style="fill:none;fill-rule:evenodd;stroke:#FF0000;stroke-width:2.0px;stroke-linecap:butt;stroke-linejoin:miter;stroke-opacity:1"/>
<path class="bond-23 atom-21 atom-14" d="M 461.1,597.8 L 481.8,607.5" style="fill:none;fill-rule:evenodd;stroke:#000000;stroke-width:2.0px;stroke-linecap:butt;stroke-linejoin:miter;stroke-opacity:1"/>
<path d="M 824.0,654.4 L 822.8,654.2 L 821.7,651.6" style="fill:none;stroke:#000000;stroke-width:2.0px;stroke-linecap:butt;stroke-linejoin:miter;stroke-opacity:1;"/>
<path d="M 802.3,605.2 L 801.2,602.7 L 800.1,602.5" style="fill:none;stroke:#000000;stroke-width:2.0px;stroke-linecap:butt;stroke-linejoin:miter;stroke-opacity:1;"/>
<path d="M 724.6,545.1 L 724.2,544.0 L 721.4,543.7" style="fill:none;stroke:#000000;stroke-width:2.0px;stroke-linecap:butt;stroke-linejoin:miter;stroke-opacity:1;"/>
<path d="M 643.2,490.4 L 641.9,487.9 L 639.1,488.5" style="fill:none;stroke:#000000;stroke-width:2.0px;stroke-linecap:butt;stroke-linejoin:miter;stroke-opacity:1;"/>
<path d="M 589.7,497.8 L 586.9,498.4 L 586.6,501.1" style="fill:none;stroke:#000000;stroke-width:2.0px;stroke-linecap:butt;stroke-linejoin:miter;stroke-opacity:1;"/>
<path d="M 475.1,660.2 L 474.8,663.0 L 472.0,663.5" style="fill:none;stroke:#000000;stroke-width:2.0px;stroke-linecap:butt;stroke-linejoin:miter;stroke-opacity:1;"/>
<path d="M 422.6,672.9 L 419.8,673.4 L 418.5,670.9" style="fill:none;stroke:#000000;stroke-width:2.0px;stroke-linecap:butt;stroke-linejoin:miter;stroke-opacity:1;"/>
<path d="M 340.3,617.7 L 337.5,617.3 L 337.0,616.0" style="fill:none;stroke:#000000;stroke-width:2.0px;stroke-linecap:butt;stroke-linejoin:miter;stroke-opacity:1;"/>
<path class="atom-0" d="M 896.9 711.1 L 899.2 708.7 L 896.1 708.1 L 896.6 706.5 L 899.4 707.9 L 899.0 704.8 L 900.7 704.8 L 900.2 707.9 L 903.1 706.6 L 903.6 708.1 L 900.5 708.7 L 902.7 711.1 L 901.3 712.1 L 899.8 709.1 L 898.2 712.1 L 896.9 711.1 " fill="#191919"/>
<path class="atom-1" d="M 871.0 661.3 Q 871.0 657.5, 872.9 655.4 Q 874.7 653.3, 878.3 653.3 Q 881.8 653.3, 883.6 655.4 Q 885.5 657.5, 885.5 661.3 Q 885.5 665.2, 883.6 667.4 Q 881.7 669.6, 878.3 669.6 Q 874.8 669.6, 872.9 667.4 Q 871.0 665.2, 871.0 661.3 M 878.3 667.8 Q 880.7 667.8, 882.0 666.2 Q 883.3 664.5, 883.3 661.3 Q 883.3 658.2, 882.0 656.7 Q 880.7 655.1, 878.3 655.1 Q 875.8 655.1, 874.5 656.6 Q 873.2 658.2, 873.2 661.3 Q 873.2 664.5, 874.5 666.2 Q 875.8 667.8, 878.3 667.8 " fill="#FF0000"/>
<path class="atom-4" d="M 738.5 595.6 Q 738.5 591.8, 740.4 589.7 Q 742.3 587.6, 745.8 587.6 Q 749.3 587.6, 751.2 589.7 Q 753.0 591.8, 753.0 595.6 Q 753.0 599.5, 751.1 601.7 Q 749.2 603.8, 745.8 603.8 Q 742.3 603.8, 740.4 601.7 Q 738.5 599.5, 738.5 595.6 M 745.8 602.1 Q 748.2 602.1, 749.5 600.4 Q 750.8 598.8, 750.8 595.6 Q 750.8 592.5, 749.5 591.0 Q 748.2 589.4, 745.8 589.4 Q 743.3 589.4, 742.0 590.9 Q 740.7 592.5, 740.7 595.6 Q 740.7 598.8, 742.0 600.4 Q 743.3 602.1, 745.8 602.1 " fill="#FF0000"/>
<path class="atom-6" d="M 750.8 499.6 Q 750.8 495.8, 752.6 493.7 Q 754.5 491.6, 758.0 491.6 Q 761.5 491.6, 763.4 493.7 Q 765.3 495.8, 765.3 499.6 Q 765.3 503.4, 763.4 505.6 Q 761.5 507.8, 758.0 507.8 Q 754.5 507.8, 752.6 505.6 Q 750.8 503.5, 750.8 499.6 M 758.0 506.0 Q 760.4 506.0, 761.7 504.4 Q 763.0 502.8, 763.0 499.6 Q 763.0 496.5, 761.7 494.9 Q 760.4 493.3, 758.0 493.3 Q 755.6 493.3, 754.3 494.9 Q 753.0 496.5, 753.0 499.6 Q 753.0 502.8, 754.3 504.4 Q 755.6 506.0, 758.0 506.0 " fill="#FF0000"/>
<path class="atom-19" d="M 312.9 564.0 L 315.3 561.6 L 312.2 561.0 L 312.6 559.4 L 315.5 560.8 L 315.1 557.7 L 316.8 557.7 L 316.3 560.8 L 319.2 559.5 L 319.7 561.0 L 316.5 561.6 L 318.8 564.0 L 317.4 564.9 L 315.9 562.0 L 314.3 564.9 L 312.9 564.0 " fill="#191919"/>
<path class="atom-20" d="M 296.4 661.8 Q 296.4 658.0, 298.3 655.9 Q 300.2 653.8, 303.7 653.8 Q 307.2 653.8, 309.1 655.9 Q 310.9 658.0, 310.9 661.8 Q 310.9 665.7, 309.0 667.9 Q 307.1 670.0, 303.7 670.0 Q 300.2 670.0, 298.3 667.9 Q 296.4 665.7, 296.4 661.8 M 303.7 668.2 Q 306.1 668.2, 307.4 666.6 Q 308.7 665.0, 308.7 661.8 Q 308.7 658.7, 307.4 657.2 Q 306.1 655.6, 303.7 655.6 Q 301.3 655.6, 299.9 657.1 Q 298.6 658.7, 298.6 661.8 Q 298.6 665.0, 299.9 666.6 Q 301.3 668.2, 303.7 668.2 " fill="#FF0000"/>
<path class="atom-21" d="M 424.0 583.7 Q 424.0 579.9, 425.9 577.8 Q 427.8 575.7, 431.3 575.7 Q 434.8 575.7, 436.7 577.8 Q 438.5 579.9, 438.5 583.7 Q 438.5 587.6, 436.6 589.8 Q 434.7 591.9, 431.3 591.9 Q 427.8 591.9, 425.9 589.8 Q 424.0 587.6, 424.0 583.7 M 431.3 590.1 Q 433.7 590.1, 435.0 588.5 Q 436.3 586.9, 436.3 583.7 Q 436.3 580.6, 435.0 579.0 Q 433.7 577.5, 431.3 577.5 Q 428.9 577.5, 427.5 579.0 Q 426.3 580.6, 426.3 583.7 Q 426.3 586.9, 427.5 588.5 Q 428.9 590.1, 431.3 590.1 " fill="#FF0000"/>
<path class="atom-22" d="M 623.1 577.7 Q 623.1 573.9, 625.0 571.8 Q 626.9 569.7, 630.4 569.7 Q 633.9 569.7, 635.8 571.8 Q 637.7 573.9, 637.7 577.7 Q 637.7 581.6, 635.8 583.7 Q 633.9 585.9, 630.4 585.9 Q 626.9 585.9, 625.0 583.7 Q 623.1 581.6, 623.1 577.7 M 630.4 584.1 Q 632.8 584.1, 634.1 582.5 Q 635.4 580.9, 635.4 577.7 Q 635.4 574.6, 634.1 573.0 Q 632.8 571.4, 630.4 571.4 Q 628.0 571.4, 626.7 573.0 Q 625.4 574.6, 625.4 577.7 Q 625.4 580.9, 626.7 582.5 Q 628.0 584.1, 630.4 584.1 " fill="#FF0000"/>
</svg>