<svg xmlns="http://www.w3.org/2000/svg" xmlns:rdkit="http://www.rdkit.org/xml" xmlns:xlink="http://www.w3.org/1999/xlink" version="1.1" baseProfile="full" xml:space="preserve" width="1200px" height="1200px" viewBox="0 0 1200 1200">
<!-- END OF HEADER -->
<rect style="opacity:1.0;fill:#FFFFFF;stroke:none" width="1200.0" height="1200.0" x="0.0" y="0.0"> </rect>
<path class="bond-0 atom-0 atom-1" d="M 252.7,36.2 L 287.4,53.3" style="fill:none;fill-rule:evenodd;stroke:#191919;stroke-width:2.0px;stroke-linecap:butt;stroke-linejoin:miter;stroke-opacity:1"/>
<path class="bond-0 atom-0 atom-1" d="M 287.4,53.3 L 322.1,70.4" style="fill:none;fill-rule:evenodd;stroke:#FF0000;stroke-width:2.0px;stroke-linecap:butt;stroke-linejoin:miter;stroke-opacity:1"/>
<path class="bond-1 atom-1 atom-2" d="M 339.6,96.4 L 342.3,137.1" style="fill:none;fill-rule:evenodd;stroke:#FF0000;stroke-width:2.0px;stroke-linecap:butt;stroke-linejoin:miter;stroke-opacity:1"/>
<path class="bond-1 atom-1 atom-2" d="M 342.3,137.1 L 344.9,177.8" style="fill:none;fill-rule:evenodd;stroke:#000000;stroke-width:2.0px;stroke-linecap:butt;stroke-linejoin:miter;stroke-opacity:1"/>
<path class="bond-2 atom-2 atom-3" d="M 344.9,177.8 L 434.3,221.8" style="fill:none;fill-rule:evenodd;stroke:#000000;stroke-width:2.0px;stroke-linecap:butt;stroke-linejoin:miter;stroke-opacity:1"/>
<path class="bond-3 atom-3 atom-4" d="M 434.3,221.8 L 440.9,321.3" style="fill:none;fill-rule:evenodd;stroke:#000000;stroke-width:2.0px;stroke-linecap:butt;stroke-linejoin:miter;stroke-opacity:1"/>
<path class="bond-4 atom-4 atom-5" d="M 440.9,321.3 L 477.5,339.3" style="fill:none;fill-rule:evenodd;stroke:#000000;stroke-width:2.0px;stroke-linecap:butt;stroke-linejoin:miter;stroke-opacity:1"/>
<path class="bond-4 atom-4 atom-5" d="M 477.5,339.3 L 514.1,357.3" style="fill:none;fill-rule:evenodd;stroke:#FF0000;stroke-width:2.0px;stroke-linecap:butt;stroke-linejoin:miter;stroke-opacity:1"/>
<path class="bond-5 atom-3 atom-6" d="M 434.3,221.8 L 467.6,199.6" style="fill:none;fill-rule:evenodd;stroke:#000000;stroke-width:2.0px;stroke-linecap:butt;stroke-linejoin:miter;stroke-opacity:1"/>
<path class="bond-5 atom-3 atom-6" d="M 467.6,199.6 L 500.9,177.3" style="fill:none;fill-rule:evenodd;stroke:#FF0000;stroke-width:2.0px;stroke-linecap:butt;stroke-linejoin:miter;stroke-opacity:1"/>
<path class="bond-6 atom-6 atom-7" d="M 533.4,174.4 L 570.0,192.4" style="fill:none;fill-rule:evenodd;stroke:#FF0000;stroke-width:2.0px;stroke-linecap:butt;stroke-linejoin:miter;stroke-opacity:1"/>
<path class="bond-6 atom-6 atom-7" d="M 570.0,192.4 L 606.6,210.4" style="fill:none;fill-rule:evenodd;stroke:#000000;stroke-width:2.0px;stroke-linecap:butt;stroke-linejoin:miter;stroke-opacity:1"/>
<path class="bond-7 atom-7 atom-8" d="M 598.8,206.6 L 601.7,249.7" style="fill:none;fill-rule:evenodd;stroke:#000000;stroke-width:2.0px;stroke-linecap:butt;stroke-linejoin:miter;stroke-opacity:1"/>
<path class="bond-7 atom-7 atom-8" d="M 601.7,249.7 L 604.5,292.8" style="fill:none;fill-rule:evenodd;stroke:#FF0000;stroke-width:2.0px;stroke-linecap:butt;stroke-linejoin:miter;stroke-opacity:1"/>
<path class="bond-7 atom-7 atom-8" d="M 613.7,205.6 L 616.6,248.7" style="fill:none;fill-rule:evenodd;stroke:#000000;stroke-width:2.0px;stroke-linecap:butt;stroke-linejoin:miter;stroke-opacity:1"/>
<path class="bond-7 atom-7 atom-8" d="M 616.6,248.7 L 619.4,291.8" style="fill:none;fill-rule:evenodd;stroke:#FF0000;stroke-width:2.0px;stroke-linecap:butt;stroke-linejoin:miter;stroke-opacity:1"/>
<path class="bond-8 atom-7 atom-9" d="M 606.6,210.4 L 689.4,155.0" style="fill:none;fill-rule:evenodd;stroke:#000000;stroke-width:2.0px;stroke-linecap:butt;stroke-linejoin:miter;stroke-opacity:1"/>
<path class="bond-9 atom-9 atom-10" d="M 689.4,155.0 L 778.8,199.1" style="fill:none;fill-rule:evenodd;stroke:#000000;stroke-width:2.0px;stroke-linecap:butt;stroke-linejoin:miter;stroke-opacity:1"/>
<path class="bond-10 atom-10 atom-11" d="M 778.8,199.1 L 861.6,143.6" style="fill:none;fill-rule:evenodd;stroke:#000000;stroke-width:2.0px;stroke-linecap:butt;stroke-linejoin:miter;stroke-opacity:1"/>
<path class="bond-11 atom-11 atom-12" d="M 861.6,143.6 L 901.3,163.2" style="fill:none;fill-rule:evenodd;stroke:#000000;stroke-width:2.0px;stroke-linecap:butt;stroke-linejoin:miter;stroke-opacity:1"/>
<path class="bond-11 atom-11 atom-12" d="M 901.3,163.2 L 941.1,182.8" style="fill:none;fill-rule:evenodd;stroke:#191919;stroke-width:2.0px;stroke-linecap:butt;stroke-linejoin:miter;stroke-opacity:1"/>
<path class="bond-12 atom-11 atom-13" d="M 869.4,147.5 L 866.5,104.6" style="fill:none;fill-rule:evenodd;stroke:#000000;stroke-width:2.0px;stroke-linecap:butt;stroke-linejoin:miter;stroke-opacity:1"/>
<path class="bond-12 atom-11 atom-13" d="M 866.5,104.6 L 863.7,61.7" style="fill:none;fill-rule:evenodd;stroke:#FF0000;stroke-width:2.0px;stroke-linecap:butt;stroke-linejoin:miter;stroke-opacity:1"/>
<path class="bond-12 atom-11 atom-13" d="M 854.5,148.4 L 851.6,105.6" style="fill:none;fill-rule:evenodd;stroke:#000000;stroke-width:2.0px;stroke-linecap:butt;stroke-linejoin:miter;stroke-opacity:1"/>
<path class="bond-12 atom-11 atom-13" d="M 851.6,105.6 L 848.8,62.7" style="fill:none;fill-rule:evenodd;stroke:#FF0000;stroke-width:2.0px;stroke-linecap:butt;stroke-linejoin:miter;stroke-opacity:1"/>
<path d="M 344.8,175.8 L 344.9,177.8 L 349.4,180.0" style="fill:none;stroke:#000000;stroke-width:2.0px;stroke-linecap:butt;stroke-linejoin:miter;stroke-opacity:1;"/>
<path d="M 440.6,316.3 L 440.9,321.3 L 442.8,322.2" style="fill:none;stroke:#000000;stroke-width:2.0px;stroke-linecap:butt;stroke-linejoin:miter;stroke-opacity:1;"/>
<path d="M 604.7,209.5 L 606.6,210.4 L 610.7,207.7" style="fill:none;stroke:#000000;stroke-width:2.0px;stroke-linecap:butt;stroke-linejoin:miter;stroke-opacity:1;"/>
<path d="M 685.3,157.8 L 689.4,155.0 L 693.9,157.2" style="fill:none;stroke:#000000;stroke-width:2.0px;stroke-linecap:butt;stroke-linejoin:miter;stroke-opacity:1;"/>
<path d="M 774.3,196.9 L 778.8,199.1 L 782.9,196.3" style="fill:none;stroke:#000000;stroke-width:2.0px;stroke-linecap:butt;stroke-linejoin:miter;stroke-opacity:1;"/>
<path d="M 857.5,146.4 L 861.6,143.6 L 863.6,144.6" style="fill:none;stroke:#000000;stroke-width:2.0px;stroke-linecap:butt;stroke-linejoin:miter;stroke-opacity:1;"/>
<path class="atom-0" d="M 243.6 31.2 L 247.8 27.0 L 242.3 25.9 L 243.1 23.0 L 248.2 25.6 L 247.5 20.0 L 250.5 20.0 L 249.6 25.5 L 254.8 23.1 L 255.6 25.9 L 250.1 26.9 L 254.1 31.2 L 251.6 32.9 L 248.9 27.7 L 246.1 32.9 L 243.6 31.2 " fill="#191919"/>
<path class="atom-1" d="M 325.4 78.5 Q 325.4 71.7, 328.8 67.9 Q 332.1 64.1, 338.4 64.1 Q 344.6 64.1, 348.0 67.9 Q 351.3 71.7, 351.3 78.5 Q 351.3 85.3, 347.9 89.2 Q 344.5 93.1, 338.4 93.1 Q 332.2 93.1, 328.8 89.2 Q 325.4 85.3, 325.4 78.5 M 338.4 89.9 Q 342.7 89.9, 345.0 87.0 Q 347.3 84.1, 347.3 78.5 Q 347.3 72.9, 345.0 70.1 Q 342.7 67.3, 338.4 67.3 Q 334.1 67.3, 331.7 70.1 Q 329.4 72.9, 329.4 78.5 Q 329.4 84.2, 331.7 87.0 Q 334.1 89.9, 338.4 89.9 " fill="#FF0000"/>
<path class="atom-5" d="M 517.4 365.4 Q 517.4 358.6, 520.7 354.8 Q 524.1 351.0, 530.3 351.0 Q 536.6 351.0, 539.9 354.8 Q 543.3 358.6, 543.3 365.4 Q 543.3 372.2, 539.9 376.1 Q 536.5 380.0, 530.3 380.0 Q 524.1 380.0, 520.7 376.1 Q 517.4 372.3, 517.4 365.4 M 530.3 376.8 Q 534.6 376.8, 536.9 373.9 Q 539.3 371.0, 539.3 365.4 Q 539.3 359.8, 536.9 357.0 Q 534.6 354.2, 530.3 354.2 Q 526.0 354.2, 523.7 357.0 Q 521.4 359.8, 521.4 365.4 Q 521.4 371.1, 523.7 373.9 Q 526.0 376.8, 530.3 376.8 " fill="#FF0000"/>
<path class="atom-5" d="M 547.7 351.3 L 551.5 351.3 L 551.5 363.3 L 565.9 363.3 L 565.9 351.3 L 569.8 351.3 L 569.8 379.6 L 565.9 379.6 L 565.9 366.5 L 551.5 366.5 L 551.5 379.6 L 547.7 379.6 L 547.7 351.3 " fill="#FF0000"/>
<path class="atom-6" d="M 504.2 166.5 Q 504.2 159.7, 507.6 155.9 Q 510.9 152.1, 517.2 152.1 Q 523.4 152.1, 526.8 155.9 Q 530.1 159.7, 530.1 166.5 Q 530.1 173.4, 526.7 177.3 Q 523.4 181.1, 517.2 181.1 Q 511.0 181.1, 507.6 177.3 Q 504.2 173.4, 504.2 166.5 M 517.2 177.9 Q 521.5 177.9, 523.8 175.1 Q 526.1 172.2, 526.1 166.5 Q 526.1 161.0, 523.8 158.2 Q 521.5 155.3, 517.2 155.3 Q 512.9 155.3, 510.5 158.1 Q 508.2 160.9, 508.2 166.5 Q 508.2 172.2, 510.5 175.1 Q 512.9 177.9, 517.2 177.9 " fill="#FF0000"/>
<path class="atom-8" d="M 600.2 310.0 Q 600.2 303.2, 603.5 299.4 Q 606.9 295.6, 613.2 295.6 Q 619.4 295.6, 622.8 299.4 Q 626.1 303.2, 626.1 310.0 Q 626.1 316.8, 622.7 320.7 Q 619.3 324.6, 613.2 324.6 Q 606.9 324.6, 603.5 320.7 Q 600.2 316.9, 600.2 310.0 M 613.2 321.4 Q 617.5 321.4, 619.8 318.5 Q 622.1 315.6, 622.1 310.0 Q 622.1 304.4, 619.8 301.6 Q 617.5 298.8, 613.2 298.8 Q 608.8 298.8, 606.5 301.6 Q 604.2 304.4, 604.2 310.0 Q 604.2 315.7, 606.5 318.5 Q 608.8 321.4, 613.2 321.4 " fill="#FF0000"/>
<path class="atom-12" d="M 945.7 184.5 L 949.9 180.3 L 944.4 179.2 L 945.2 176.3 L 950.3 178.9 L 949.5 173.4 L 952.5 173.3 L 951.7 178.9 L 956.8 176.5 L 957.7 179.2 L 952.1 180.2 L 956.1 184.5 L 953.7 186.2 L 950.9 181.0 L 948.1 186.2 L 945.7 184.5 " fill="#191919"/>
<path class="atom-13" d="M 842.1 44.3 Q 842.1 37.5, 845.4 33.7 Q 848.8 29.9, 855.1 29.9 Q 861.3 29.9, 864.7 33.7 Q 868.0 37.5, 868.0 44.3 Q 868.0 51.1, 864.6 55.0 Q 861.2 58.9, 855.1 58.9 Q 848.8 58.9, 845.4 55.0 Q 842.1 51.2, 842.1 44.3 M 855.1 55.7 Q 859.4 55.7, 861.7 52.9 Q 864.0 49.9, 864.0 44.3 Q 864.0 38.7, 861.7 36.0 Q 859.4 33.1, 855.1 33.1 Q 850.7 33.1, 848.4 35.9 Q 846.1 38.7, 846.1 44.3 Q 846.1 50.0, 848.4 52.9 Q 850.7 55.7, 855.1 55.7 " fill="#FF0000"/>
<path class="bond-0 atom-0 atom-1" d="M 178.5,615.3 L 208.8,598.2" style="fill:none;fill-rule:evenodd;stroke:#191919;stroke-width:2.0px;stroke-linecap:butt;stroke-linejoin:miter;stroke-opacity:1"/>
<path class="bond-0 atom-0 atom-1" d="M 208.8,598.2 L 239.0,581.1" style="fill:none;fill-rule:evenodd;stroke:#FF0000;stroke-width:2.0px;stroke-linecap:butt;stroke-linejoin:miter;stroke-opacity:1"/>
<path class="bond-1 atom-1 atom-2" d="M 271.5,581.5 L 306.3,602.1" style="fill:none;fill-rule:evenodd;stroke:#FF0000;stroke-width:2.0px;stroke-linecap:butt;stroke-linejoin:miter;stroke-opacity:1"/>
<path class="bond-1 atom-1 atom-2" d="M 306.3,602.1 L 341.1,622.6" style="fill:none;fill-rule:evenodd;stroke:#000000;stroke-width:2.0px;stroke-linecap:butt;stroke-linejoin:miter;stroke-opacity:1"/>
<path class="bond-2 atom-2 atom-3" d="M 341.1,622.6 L 427.9,573.6" style="fill:none;fill-rule:evenodd;stroke:#000000;stroke-width:2.0px;stroke-linecap:butt;stroke-linejoin:miter;stroke-opacity:1"/>
<path class="bond-3 atom-3 atom-4" d="M 427.9,573.6 L 428.3,532.8" style="fill:none;fill-rule:evenodd;stroke:#000000;stroke-width:2.0px;stroke-linecap:butt;stroke-linejoin:miter;stroke-opacity:1"/>
<path class="bond-3 atom-3 atom-4" d="M 428.3,532.8 L 428.7,492.0" style="fill:none;fill-rule:evenodd;stroke:#FF0000;stroke-width:2.0px;stroke-linecap:butt;stroke-linejoin:miter;stroke-opacity:1"/>
<path class="bond-4 atom-3 atom-5" d="M 427.9,573.6 L 513.7,624.3" style="fill:none;fill-rule:evenodd;stroke:#000000;stroke-width:2.0px;stroke-linecap:butt;stroke-linejoin:miter;stroke-opacity:1"/>
<path class="bond-5 atom-5 atom-6" d="M 513.7,624.3 L 549.0,604.4" style="fill:none;fill-rule:evenodd;stroke:#000000;stroke-width:2.0px;stroke-linecap:butt;stroke-linejoin:miter;stroke-opacity:1"/>
<path class="bond-5 atom-5 atom-6" d="M 549.0,604.4 L 584.2,584.5" style="fill:none;fill-rule:evenodd;stroke:#FF0000;stroke-width:2.0px;stroke-linecap:butt;stroke-linejoin:miter;stroke-opacity:1"/>
<path class="bond-6 atom-6 atom-7" d="M 616.7,584.9 L 651.5,605.4" style="fill:none;fill-rule:evenodd;stroke:#FF0000;stroke-width:2.0px;stroke-linecap:butt;stroke-linejoin:miter;stroke-opacity:1"/>
<path class="bond-6 atom-6 atom-7" d="M 651.5,605.4 L 686.3,625.9" style="fill:none;fill-rule:evenodd;stroke:#000000;stroke-width:2.0px;stroke-linecap:butt;stroke-linejoin:miter;stroke-opacity:1"/>
<path class="bond-7 atom-7 atom-8" d="M 678.9,621.6 L 678.4,664.8" style="fill:none;fill-rule:evenodd;stroke:#000000;stroke-width:2.0px;stroke-linecap:butt;stroke-linejoin:miter;stroke-opacity:1"/>
<path class="bond-7 atom-7 atom-8" d="M 678.4,664.8 L 678.0,708.0" style="fill:none;fill-rule:evenodd;stroke:#FF0000;stroke-width:2.0px;stroke-linecap:butt;stroke-linejoin:miter;stroke-opacity:1"/>
<path class="bond-7 atom-7 atom-8" d="M 693.8,621.7 L 693.4,664.9" style="fill:none;fill-rule:evenodd;stroke:#000000;stroke-width:2.0px;stroke-linecap:butt;stroke-linejoin:miter;stroke-opacity:1"/>
<path class="bond-7 atom-7 atom-8" d="M 693.4,664.9 L 693.0,708.1" style="fill:none;fill-rule:evenodd;stroke:#FF0000;stroke-width:2.0px;stroke-linecap:butt;stroke-linejoin:miter;stroke-opacity:1"/>
<path class="bond-8 atom-7 atom-9" d="M 686.3,625.9 L 773.1,577.0" style="fill:none;fill-rule:evenodd;stroke:#000000;stroke-width:2.0px;stroke-linecap:butt;stroke-linejoin:miter;stroke-opacity:1"/>
<path class="bond-9 atom-9 atom-10" d="M 773.1,577.0 L 858.9,627.6" style="fill:none;fill-rule:evenodd;stroke:#000000;stroke-width:2.0px;stroke-linecap:butt;stroke-linejoin:miter;stroke-opacity:1"/>
<path class="bond-10 atom-10 atom-11" d="M 858.9,627.6 L 945.7,578.6" style="fill:none;fill-rule:evenodd;stroke:#000000;stroke-width:2.0px;stroke-linecap:butt;stroke-linejoin:miter;stroke-opacity:1"/>
<path class="bond-11 atom-11 atom-12" d="M 945.7,578.6 L 983.6,601.0" style="fill:none;fill-rule:evenodd;stroke:#000000;stroke-width:2.0px;stroke-linecap:butt;stroke-linejoin:miter;stroke-opacity:1"/>
<path class="bond-11 atom-11 atom-12" d="M 983.6,601.0 L 1021.5,623.4" style="fill:none;fill-rule:evenodd;stroke:#191919;stroke-width:2.0px;stroke-linecap:butt;stroke-linejoin:miter;stroke-opacity:1"/>
<path class="bond-12 atom-11 atom-13" d="M 953.1,583.0 L 953.5,540.0" style="fill:none;fill-rule:evenodd;stroke:#000000;stroke-width:2.0px;stroke-linecap:butt;stroke-linejoin:miter;stroke-opacity:1"/>
<path class="bond-12 atom-11 atom-13" d="M 953.5,540.0 L 953.9,497.1" style="fill:none;fill-rule:evenodd;stroke:#FF0000;stroke-width:2.0px;stroke-linecap:butt;stroke-linejoin:miter;stroke-opacity:1"/>
<path class="bond-12 atom-11 atom-13" d="M 938.2,582.9 L 938.6,539.9" style="fill:none;fill-rule:evenodd;stroke:#000000;stroke-width:2.0px;stroke-linecap:butt;stroke-linejoin:miter;stroke-opacity:1"/>
<path class="bond-12 atom-11 atom-13" d="M 938.6,539.9 L 939.0,496.9" style="fill:none;fill-rule:evenodd;stroke:#FF0000;stroke-width:2.0px;stroke-linecap:butt;stroke-linejoin:miter;stroke-opacity:1"/>
<path d="M 339.4,621.6 L 341.1,622.6 L 345.4,620.2" style="fill:none;stroke:#000000;stroke-width:2.0px;stroke-linecap:butt;stroke-linejoin:miter;stroke-opacity:1;"/>
<path d="M 509.4,621.7 L 513.7,624.3 L 515.5,623.3" style="fill:none;stroke:#000000;stroke-width:2.0px;stroke-linecap:butt;stroke-linejoin:miter;stroke-opacity:1;"/>
<path d="M 684.6,624.9 L 686.3,625.9 L 690.6,623.5" style="fill:none;stroke:#000000;stroke-width:2.0px;stroke-linecap:butt;stroke-linejoin:miter;stroke-opacity:1;"/>
<path d="M 768.7,579.4 L 773.1,577.0 L 777.4,579.5" style="fill:none;stroke:#000000;stroke-width:2.0px;stroke-linecap:butt;stroke-linejoin:miter;stroke-opacity:1;"/>
<path d="M 854.6,625.1 L 858.9,627.6 L 863.2,625.2" style="fill:none;stroke:#000000;stroke-width:2.0px;stroke-linecap:butt;stroke-linejoin:miter;stroke-opacity:1;"/>
<path d="M 941.3,581.1 L 945.7,578.6 L 947.6,579.8" style="fill:none;stroke:#000000;stroke-width:2.0px;stroke-linecap:butt;stroke-linejoin:miter;stroke-opacity:1;"/>
<path class="atom-0" d="M 163.2 617.8 L 167.3 613.6 L 161.8 612.4 L 162.7 609.6 L 167.7 612.2 L 167.0 606.6 L 170.0 606.6 L 169.2 612.1 L 174.3 609.7 L 175.2 612.4 L 169.6 613.5 L 173.6 617.7 L 171.2 619.5 L 168.4 614.2 L 165.6 619.5 L 163.2 617.8 " fill="#191919"/>
<path class="atom-1" d="M 242.3 572.0 Q 242.3 565.2, 245.7 561.5 Q 249.0 557.7, 255.3 557.7 Q 261.5 557.7, 264.9 561.5 Q 268.2 565.2, 268.2 572.0 Q 268.2 578.9, 264.9 582.8 Q 261.5 586.6, 255.3 586.6 Q 249.1 586.6, 245.7 582.8 Q 242.3 578.9, 242.3 572.0 M 255.3 583.5 Q 259.6 583.5, 261.9 580.6 Q 264.3 577.7, 264.3 572.0 Q 264.3 566.5, 261.9 563.7 Q 259.6 560.9, 255.3 560.9 Q 251.0 560.9, 248.6 563.6 Q 246.3 566.4, 246.3 572.0 Q 246.3 577.7, 248.6 580.6 Q 251.0 583.5, 255.3 583.5 " fill="#FF0000"/>
<path class="atom-4" d="M 415.9 474.0 Q 415.9 467.3, 419.2 463.5 Q 422.6 459.7, 428.9 459.7 Q 435.1 459.7, 438.5 463.5 Q 441.8 467.3, 441.8 474.0 Q 441.8 480.9, 438.4 484.8 Q 435.0 488.7, 428.9 488.7 Q 422.6 488.7, 419.2 484.8 Q 415.9 480.9, 415.9 474.0 M 428.9 485.5 Q 433.2 485.5, 435.5 482.6 Q 437.8 479.7, 437.8 474.0 Q 437.8 468.5, 435.5 465.7 Q 433.2 462.9, 428.9 462.9 Q 424.5 462.9, 422.2 465.7 Q 419.9 468.5, 419.9 474.0 Q 419.9 479.7, 422.2 482.6 Q 424.5 485.5, 428.9 485.5 " fill="#FF0000"/>
<path class="atom-4" d="M 446.2 460.0 L 450.0 460.0 L 450.0 472.0 L 464.5 472.0 L 464.5 460.0 L 468.3 460.0 L 468.3 488.2 L 464.5 488.2 L 464.5 475.2 L 450.0 475.2 L 450.0 488.2 L 446.2 488.2 L 446.2 460.0 " fill="#FF0000"/>
<path class="atom-6" d="M 587.5 575.4 Q 587.5 568.6, 590.9 564.8 Q 594.2 561.0, 600.5 561.0 Q 606.7 561.0, 610.1 564.8 Q 613.4 568.6, 613.4 575.4 Q 613.4 582.2, 610.0 586.1 Q 606.7 590.0, 600.5 590.0 Q 594.3 590.0, 590.9 586.1 Q 587.5 582.3, 587.5 575.4 M 600.5 586.8 Q 604.8 586.8, 607.1 583.9 Q 609.5 581.0, 609.5 575.4 Q 609.5 569.8, 607.1 567.0 Q 604.8 564.2, 600.5 564.2 Q 596.2 564.2, 593.8 567.0 Q 591.5 569.8, 591.5 575.4 Q 591.5 581.1, 593.8 583.9 Q 596.2 586.8, 600.5 586.8 " fill="#FF0000"/>
<path class="atom-8" d="M 672.4 725.7 Q 672.4 718.9, 675.7 715.1 Q 679.1 711.3, 685.3 711.3 Q 691.6 711.3, 694.9 715.1 Q 698.3 718.9, 698.3 725.7 Q 698.3 732.5, 694.9 736.4 Q 691.5 740.3, 685.3 740.3 Q 679.1 740.3, 675.7 736.4 Q 672.4 732.6, 672.4 725.7 M 685.3 737.1 Q 689.6 737.1, 691.9 734.2 Q 694.3 731.3, 694.3 725.7 Q 694.3 720.1, 691.9 717.3 Q 689.6 714.5, 685.3 714.5 Q 681.0 714.5, 678.7 717.3 Q 676.4 720.1, 676.4 725.7 Q 676.4 731.4, 678.7 734.2 Q 681.0 737.1, 685.3 737.1 " fill="#FF0000"/>
<path class="atom-12" d="M 1026.2 626.1 L 1030.3 621.9 L 1024.8 620.8 L 1025.7 618.0 L 1030.7 620.5 L 1030.0 615.0 L 1033.0 614.9 L 1032.1 620.5 L 1037.3 618.1 L 1038.2 620.8 L 1032.6 621.8 L 1036.6 626.1 L 1034.1 627.9 L 1031.4 622.6 L 1028.6 627.9 L 1026.2 626.1 " fill="#191919"/>
<path class="atom-13" d="M 933.7 479.1 Q 933.7 472.3, 937.0 468.5 Q 940.4 464.7, 946.6 464.7 Q 952.9 464.7, 956.2 468.5 Q 959.6 472.3, 959.6 479.1 Q 959.6 485.9, 956.2 489.8 Q 952.8 493.7, 946.6 493.7 Q 940.4 493.7, 937.0 489.8 Q 933.7 486.0, 933.7 479.1 M 946.6 490.5 Q 950.9 490.5, 953.3 487.6 Q 955.6 484.7, 955.6 479.1 Q 955.6 473.5, 953.3 470.7 Q 950.9 467.9, 946.6 467.9 Q 942.3 467.9, 940.0 470.7 Q 937.7 473.5, 937.7 479.1 Q 937.7 484.8, 940.0 487.6 Q 942.3 490.5, 946.6 490.5 " fill="#FF0000"/>
<path class="bond-0 atom-0 atom-1" d="M 249.3,1027.7 L 281.1,1012.4" style="fill:none;fill-rule:evenodd;stroke:#191919;stroke-width:2.0px;stroke-linecap:butt;stroke-linejoin:miter;stroke-opacity:1"/>
<path class="bond-0 atom-0 atom-1" d="M 281.1,1012.4 L 312.9,997.1" style="fill:none;fill-rule:evenodd;stroke:#FF0000;stroke-width:2.0px;stroke-linecap:butt;stroke-linejoin:miter;stroke-opacity:1"/>
<path class="bond-1 atom-1 atom-2" d="M 345.4,1000.3 L 378.4,1022.8" style="fill:none;fill-rule:evenodd;stroke:#FF0000;stroke-width:2.0px;stroke-linecap:butt;stroke-linejoin:miter;stroke-opacity:1"/>
<path class="bond-1 atom-1 atom-2" d="M 378.4,1022.8 L 411.5,1045.4" style="fill:none;fill-rule:evenodd;stroke:#000000;stroke-width:2.0px;stroke-linecap:butt;stroke-linejoin:miter;stroke-opacity:1"/>
<path class="bond-2 atom-2 atom-3" d="M 411.5,1045.4 L 501.3,1002.1" style="fill:none;fill-rule:evenodd;stroke:#000000;stroke-width:2.0px;stroke-linecap:butt;stroke-linejoin:miter;stroke-opacity:1"/>
<path class="bond-3 atom-3 atom-4" d="M 501.3,1002.1 L 534.3,1024.6" style="fill:none;fill-rule:evenodd;stroke:#000000;stroke-width:2.0px;stroke-linecap:butt;stroke-linejoin:miter;stroke-opacity:1"/>
<path class="bond-3 atom-3 atom-4" d="M 534.3,1024.6 L 567.4,1047.2" style="fill:none;fill-rule:evenodd;stroke:#FF0000;stroke-width:2.0px;stroke-linecap:butt;stroke-linejoin:miter;stroke-opacity:1"/>
<path class="bond-4 atom-4 atom-5" d="M 599.9,1050.4 L 636.6,1032.7" style="fill:none;fill-rule:evenodd;stroke:#FF0000;stroke-width:2.0px;stroke-linecap:butt;stroke-linejoin:miter;stroke-opacity:1"/>
<path class="bond-4 atom-4 atom-5" d="M 636.6,1032.7 L 673.4,1015.0" style="fill:none;fill-rule:evenodd;stroke:#000000;stroke-width:2.0px;stroke-linecap:butt;stroke-linejoin:miter;stroke-opacity:1"/>
<path class="bond-5 atom-5 atom-6" d="M 680.5,1019.8 L 683.7,977.0" style="fill:none;fill-rule:evenodd;stroke:#000000;stroke-width:2.0px;stroke-linecap:butt;stroke-linejoin:miter;stroke-opacity:1"/>
<path class="bond-5 atom-5 atom-6" d="M 683.7,977.0 L 686.9,934.2" style="fill:none;fill-rule:evenodd;stroke:#FF0000;stroke-width:2.0px;stroke-linecap:butt;stroke-linejoin:miter;stroke-opacity:1"/>
<path class="bond-5 atom-5 atom-6" d="M 665.6,1018.7 L 668.8,975.9" style="fill:none;fill-rule:evenodd;stroke:#000000;stroke-width:2.0px;stroke-linecap:butt;stroke-linejoin:miter;stroke-opacity:1"/>
<path class="bond-5 atom-5 atom-6" d="M 668.8,975.9 L 672.0,933.0" style="fill:none;fill-rule:evenodd;stroke:#FF0000;stroke-width:2.0px;stroke-linecap:butt;stroke-linejoin:miter;stroke-opacity:1"/>
<path class="bond-6 atom-5 atom-7" d="M 673.4,1015.0 L 755.7,1071.1" style="fill:none;fill-rule:evenodd;stroke:#000000;stroke-width:2.0px;stroke-linecap:butt;stroke-linejoin:miter;stroke-opacity:1"/>
<path class="bond-7 atom-7 atom-8" d="M 755.7,1071.1 L 845.5,1027.8" style="fill:none;fill-rule:evenodd;stroke:#000000;stroke-width:2.0px;stroke-linecap:butt;stroke-linejoin:miter;stroke-opacity:1"/>
<path class="bond-8 atom-8 atom-9" d="M 852.7,1032.7 L 855.9,989.9" style="fill:none;fill-rule:evenodd;stroke:#000000;stroke-width:2.0px;stroke-linecap:butt;stroke-linejoin:miter;stroke-opacity:1"/>
<path class="bond-8 atom-8 atom-9" d="M 855.9,989.9 L 859.1,947.0" style="fill:none;fill-rule:evenodd;stroke:#FF0000;stroke-width:2.0px;stroke-linecap:butt;stroke-linejoin:miter;stroke-opacity:1"/>
<path class="bond-8 atom-8 atom-9" d="M 837.7,1031.6 L 841.0,988.7" style="fill:none;fill-rule:evenodd;stroke:#000000;stroke-width:2.0px;stroke-linecap:butt;stroke-linejoin:miter;stroke-opacity:1"/>
<path class="bond-8 atom-8 atom-9" d="M 841.0,988.7 L 844.2,945.9" style="fill:none;fill-rule:evenodd;stroke:#FF0000;stroke-width:2.0px;stroke-linecap:butt;stroke-linejoin:miter;stroke-opacity:1"/>
<path class="bond-9 atom-8 atom-10" d="M 845.5,1027.8 L 878.6,1050.4" style="fill:none;fill-rule:evenodd;stroke:#000000;stroke-width:2.0px;stroke-linecap:butt;stroke-linejoin:miter;stroke-opacity:1"/>
<path class="bond-9 atom-8 atom-10" d="M 878.6,1050.4 L 911.6,1072.9" style="fill:none;fill-rule:evenodd;stroke:#FF0000;stroke-width:2.0px;stroke-linecap:butt;stroke-linejoin:miter;stroke-opacity:1"/>
<path d="M 409.8,1044.2 L 411.5,1045.4 L 416.0,1043.2" style="fill:none;stroke:#000000;stroke-width:2.0px;stroke-linecap:butt;stroke-linejoin:miter;stroke-opacity:1;"/>
<path d="M 496.8,1004.3 L 501.3,1002.1 L 502.9,1003.2" style="fill:none;stroke:#000000;stroke-width:2.0px;stroke-linecap:butt;stroke-linejoin:miter;stroke-opacity:1;"/>
<path d="M 671.6,1015.9 L 673.4,1015.0 L 677.5,1017.8" style="fill:none;stroke:#000000;stroke-width:2.0px;stroke-linecap:butt;stroke-linejoin:miter;stroke-opacity:1;"/>
<path d="M 751.6,1068.3 L 755.7,1071.1 L 760.2,1068.9" style="fill:none;stroke:#000000;stroke-width:2.0px;stroke-linecap:butt;stroke-linejoin:miter;stroke-opacity:1;"/>
<path d="M 841.0,1030.0 L 845.5,1027.8 L 847.2,1029.0" style="fill:none;stroke:#000000;stroke-width:2.0px;stroke-linecap:butt;stroke-linejoin:miter;stroke-opacity:1;"/>
<path class="atom-0" d="M 234.1 1029.4 L 238.2 1025.1 L 232.7 1024.0 L 233.5 1021.2 L 238.6 1023.7 L 237.9 1018.2 L 240.9 1018.2 L 240.0 1023.7 L 245.2 1021.3 L 246.1 1024.0 L 240.5 1025.0 L 244.5 1029.3 L 242.0 1031.1 L 239.3 1025.8 L 236.5 1031.1 L 234.1 1029.4 " fill="#191919"/>
<path class="atom-1" d="M 316.2 989.3 Q 316.2 982.5, 319.5 978.8 Q 322.9 975.0, 329.2 975.0 Q 335.4 975.0, 338.8 978.8 Q 342.1 982.5, 342.1 989.3 Q 342.1 996.2, 338.7 1000.1 Q 335.3 1004.0, 329.2 1004.0 Q 322.9 1004.0, 319.5 1000.1 Q 316.2 996.2, 316.2 989.3 M 329.2 1000.8 Q 333.5 1000.8, 335.8 997.9 Q 338.1 995.0, 338.1 989.3 Q 338.1 983.8, 335.8 981.0 Q 333.5 978.2, 329.2 978.2 Q 324.8 978.2, 322.5 981.0 Q 320.2 983.7, 320.2 989.3 Q 320.2 995.0, 322.5 997.9 Q 324.8 1000.8, 329.2 1000.8 " fill="#FF0000"/>
<path class="atom-4" d="M 570.7 1058.3 Q 570.7 1051.5, 574.0 1047.7 Q 577.4 1044.0, 583.6 1044.0 Q 589.9 1044.0, 593.2 1047.7 Q 596.6 1051.5, 596.6 1058.3 Q 596.6 1065.2, 593.2 1069.1 Q 589.8 1072.9, 583.6 1072.9 Q 577.4 1072.9, 574.0 1069.1 Q 570.7 1065.2, 570.7 1058.3 M 583.6 1069.8 Q 587.9 1069.8, 590.2 1066.9 Q 592.6 1064.0, 592.6 1058.3 Q 592.6 1052.8, 590.2 1050.0 Q 587.9 1047.1, 583.6 1047.1 Q 579.3 1047.1, 577.0 1049.9 Q 574.7 1052.7, 574.7 1058.3 Q 574.7 1064.0, 577.0 1066.9 Q 579.3 1069.8, 583.6 1069.8 " fill="#FF0000"/>
<path class="atom-6" d="M 667.9 915.7 Q 667.9 908.9, 671.2 905.1 Q 674.6 901.3, 680.8 901.3 Q 687.1 901.3, 690.4 905.1 Q 693.8 908.9, 693.8 915.7 Q 693.8 922.5, 690.4 926.4 Q 687.0 930.3, 680.8 930.3 Q 674.6 930.3, 671.2 926.4 Q 667.9 922.6, 667.9 915.7 M 680.8 927.1 Q 685.1 927.1, 687.4 924.2 Q 689.8 921.3, 689.8 915.7 Q 689.8 910.1, 687.4 907.3 Q 685.1 904.5, 680.8 904.5 Q 676.5 904.5, 674.2 907.3 Q 671.9 910.1, 671.9 915.7 Q 671.9 921.4, 674.2 924.2 Q 676.5 927.1, 680.8 927.1 " fill="#FF0000"/>
<path class="atom-9" d="M 840.0 928.5 Q 840.0 921.8, 843.3 918.0 Q 846.7 914.2, 853.0 914.2 Q 859.2 914.2, 862.6 918.0 Q 865.9 921.8, 865.9 928.5 Q 865.9 935.4, 862.5 939.3 Q 859.1 943.2, 853.0 943.2 Q 846.7 943.2, 843.3 939.3 Q 840.0 935.4, 840.0 928.5 M 853.0 940.0 Q 857.3 940.0, 859.6 937.1 Q 861.9 934.2, 861.9 928.5 Q 861.9 923.0, 859.6 920.2 Q 857.3 917.4, 853.0 917.4 Q 848.6 917.4, 846.3 920.2 Q 844.0 923.0, 844.0 928.5 Q 844.0 934.2, 846.3 937.1 Q 848.6 940.0, 853.0 940.0 " fill="#FF0000"/>
<path class="atom-10" d="M 914.9 1084.0 Q 914.9 1077.3, 918.3 1073.5 Q 921.6 1069.7, 927.9 1069.7 Q 934.1 1069.7, 937.5 1073.5 Q 940.8 1077.3, 940.8 1084.0 Q 940.8 1090.9, 937.4 1094.8 Q 934.0 1098.7, 927.9 1098.7 Q 921.7 1098.7, 918.3 1094.8 Q 914.9 1090.9, 914.9 1084.0 M 927.9 1095.5 Q 932.2 1095.5, 934.5 1092.6 Q 936.8 1089.7, 936.8 1084.0 Q 936.8 1078.5, 934.5 1075.7 Q 932.2 1072.9, 927.9 1072.9 Q 923.6 1072.9, 921.2 1075.7 Q 918.9 1078.5, 918.9 1084.0 Q 918.9 1089.7, 921.2 1092.6 Q 923.6 1095.5, 927.9 1095.5 " fill="#FF0000"/>
<path class="atom-10" d="M 945.2 1070.0 L 949.0 1070.0 L 949.0 1082.0 L 963.5 1082.0 L 963.5 1070.0 L 967.3 1070.0 L 967.3 1098.2 L 963.5 1098.2 L 963.5 1085.2 L 949.0 1085.2 L 949.0 1098.2 L 945.2 1098.2 L 945.2 1070.0 " fill="#FF0000"/>
</svg>