<svg xmlns="http://www.w3.org/2000/svg" xmlns:rdkit="http://www.rdkit.org/xml" xmlns:xlink="http://www.w3.org/1999/xlink" version="1.1" baseProfile="full" xml:space="preserve" width="1200px" height="800px" viewBox="0 0 1200 800">
<!-- END OF HEADER -->
<rect style="opacity:1.0;fill:#FFFFFF;stroke:none" width="1200.0" height="800.0" x="0.0" y="0.0"> </rect>
<path class="bond-0 atom-0 atom-1" d="M 544.0,30.9 L 571.4,48.2" style="fill:none;fill-rule:evenodd;stroke:#191919;stroke-width:2.0px;stroke-linecap:butt;stroke-linejoin:miter;stroke-opacity:1"/>
<path class="bond-0 atom-0 atom-1" d="M 571.4,48.2 L 598.9,65.4" style="fill:none;fill-rule:evenodd;stroke:#000000;stroke-width:2.0px;stroke-linecap:butt;stroke-linejoin:miter;stroke-opacity:1"/>
<path class="bond-1 atom-1 atom-2" d="M 598.9,65.4 L 596.3,132.5" style="fill:none;fill-rule:evenodd;stroke:#000000;stroke-width:2.0px;stroke-linecap:butt;stroke-linejoin:miter;stroke-opacity:1"/>
<path class="bond-2 atom-2 atom-3" d="M 596.3,132.5 L 593.8,199.6" style="fill:none;fill-rule:evenodd;stroke:#000000;stroke-width:2.0px;stroke-linecap:butt;stroke-linejoin:miter;stroke-opacity:1"/>
<path class="bond-3 atom-2 atom-4" d="M 596.3,132.5 L 529.2,130.0" style="fill:none;fill-rule:evenodd;stroke:#000000;stroke-width:2.0px;stroke-linecap:butt;stroke-linejoin:miter;stroke-opacity:1"/>
<path class="bond-4 atom-4 atom-5" d="M 529.2,130.0 L 515.0,152.5" style="fill:none;fill-rule:evenodd;stroke:#000000;stroke-width:2.0px;stroke-linecap:butt;stroke-linejoin:miter;stroke-opacity:1"/>
<path class="bond-4 atom-4 atom-5" d="M 515.0,152.5 L 500.9,175.0" style="fill:none;fill-rule:evenodd;stroke:#FF0000;stroke-width:2.0px;stroke-linecap:butt;stroke-linejoin:miter;stroke-opacity:1"/>
<path class="bond-5 atom-5 atom-6" d="M 482.5,186.4 L 454.4,185.3" style="fill:none;fill-rule:evenodd;stroke:#FF0000;stroke-width:2.0px;stroke-linecap:butt;stroke-linejoin:miter;stroke-opacity:1"/>
<path class="bond-5 atom-5 atom-6" d="M 454.4,185.3 L 426.3,184.3" style="fill:none;fill-rule:evenodd;stroke:#000000;stroke-width:2.0px;stroke-linecap:butt;stroke-linejoin:miter;stroke-opacity:1"/>
<path class="bond-6 atom-6 atom-7" d="M 432.1,184.5 L 419.0,159.6" style="fill:none;fill-rule:evenodd;stroke:#000000;stroke-width:2.0px;stroke-linecap:butt;stroke-linejoin:miter;stroke-opacity:1"/>
<path class="bond-6 atom-6 atom-7" d="M 419.0,159.6 L 405.8,134.7" style="fill:none;fill-rule:evenodd;stroke:#FF0000;stroke-width:2.0px;stroke-linecap:butt;stroke-linejoin:miter;stroke-opacity:1"/>
<path class="bond-6 atom-6 atom-7" d="M 423.2,189.2 L 410.1,164.3" style="fill:none;fill-rule:evenodd;stroke:#000000;stroke-width:2.0px;stroke-linecap:butt;stroke-linejoin:miter;stroke-opacity:1"/>
<path class="bond-6 atom-6 atom-7" d="M 410.1,164.3 L 396.9,139.4" style="fill:none;fill-rule:evenodd;stroke:#FF0000;stroke-width:2.0px;stroke-linecap:butt;stroke-linejoin:miter;stroke-opacity:1"/>
<path class="bond-7 atom-6 atom-8" d="M 426.3,184.3 L 412.2,206.8" style="fill:none;fill-rule:evenodd;stroke:#000000;stroke-width:2.0px;stroke-linecap:butt;stroke-linejoin:miter;stroke-opacity:1"/>
<path class="bond-7 atom-6 atom-8" d="M 412.2,206.8 L 398.0,229.3" style="fill:none;fill-rule:evenodd;stroke:#FF0000;stroke-width:2.0px;stroke-linecap:butt;stroke-linejoin:miter;stroke-opacity:1"/>
<path class="bond-8 atom-8 atom-9" d="M 379.6,240.7 L 354.9,239.8" style="fill:none;fill-rule:evenodd;stroke:#FF0000;stroke-width:2.0px;stroke-linecap:butt;stroke-linejoin:miter;stroke-opacity:1"/>
<path class="bond-8 atom-8 atom-9" d="M 354.9,239.8 L 330.2,238.8" style="fill:none;fill-rule:evenodd;stroke:#191919;stroke-width:2.0px;stroke-linecap:butt;stroke-linejoin:miter;stroke-opacity:1"/>
<path class="bond-9 atom-2 atom-10" d="M 596.3,132.5 L 663.4,135.1" style="fill:none;fill-rule:evenodd;stroke:#000000;stroke-width:2.0px;stroke-linecap:butt;stroke-linejoin:miter;stroke-opacity:1"/>
<path class="bond-10 atom-10 atom-11" d="M 666.1,140.2 L 681.0,116.6" style="fill:none;fill-rule:evenodd;stroke:#000000;stroke-width:2.0px;stroke-linecap:butt;stroke-linejoin:miter;stroke-opacity:1"/>
<path class="bond-10 atom-10 atom-11" d="M 681.0,116.6 L 695.8,93.1" style="fill:none;fill-rule:evenodd;stroke:#FF0000;stroke-width:2.0px;stroke-linecap:butt;stroke-linejoin:miter;stroke-opacity:1"/>
<path class="bond-10 atom-10 atom-11" d="M 657.6,134.9 L 672.4,111.3" style="fill:none;fill-rule:evenodd;stroke:#000000;stroke-width:2.0px;stroke-linecap:butt;stroke-linejoin:miter;stroke-opacity:1"/>
<path class="bond-10 atom-10 atom-11" d="M 672.4,111.3 L 687.3,87.7" style="fill:none;fill-rule:evenodd;stroke:#FF0000;stroke-width:2.0px;stroke-linecap:butt;stroke-linejoin:miter;stroke-opacity:1"/>
<path class="bond-11 atom-10 atom-12" d="M 663.4,135.1 L 676.0,158.9" style="fill:none;fill-rule:evenodd;stroke:#000000;stroke-width:2.0px;stroke-linecap:butt;stroke-linejoin:miter;stroke-opacity:1"/>
<path class="bond-11 atom-10 atom-12" d="M 676.0,158.9 L 688.6,182.7" style="fill:none;fill-rule:evenodd;stroke:#0000FF;stroke-width:2.0px;stroke-linecap:butt;stroke-linejoin:miter;stroke-opacity:1"/>
<path class="bond-12 atom-12 atom-13" d="M 704.2,194.8 L 733.0,195.9" style="fill:none;fill-rule:evenodd;stroke:#0000FF;stroke-width:2.0px;stroke-linecap:butt;stroke-linejoin:miter;stroke-opacity:1"/>
<path class="bond-12 atom-12 atom-13" d="M 733.0,195.9 L 761.9,197.0" style="fill:none;fill-rule:evenodd;stroke:#000000;stroke-width:2.0px;stroke-linecap:butt;stroke-linejoin:miter;stroke-opacity:1"/>
<path class="bond-13 atom-13 atom-14" d="M 761.9,197.0 L 776.0,174.5" style="fill:none;fill-rule:evenodd;stroke:#000000;stroke-width:2.0px;stroke-linecap:butt;stroke-linejoin:miter;stroke-opacity:1"/>
<path class="bond-13 atom-13 atom-14" d="M 776.0,174.5 L 790.2,151.9" style="fill:none;fill-rule:evenodd;stroke:#FF7F00;stroke-width:2.0px;stroke-linecap:butt;stroke-linejoin:miter;stroke-opacity:1"/>
<path class="bond-14 atom-14 atom-15" d="M 809.3,131.1 L 819.6,114.6" style="fill:none;fill-rule:evenodd;stroke:#FF7F00;stroke-width:2.0px;stroke-linecap:butt;stroke-linejoin:miter;stroke-opacity:1"/>
<path class="bond-14 atom-14 atom-15" d="M 819.6,114.6 L 830.0,98.2" style="fill:none;fill-rule:evenodd;stroke:#FF0000;stroke-width:2.0px;stroke-linecap:butt;stroke-linejoin:miter;stroke-opacity:1"/>
<path class="bond-14 atom-14 atom-15" d="M 800.7,125.8 L 811.1,109.3" style="fill:none;fill-rule:evenodd;stroke:#FF7F00;stroke-width:2.0px;stroke-linecap:butt;stroke-linejoin:miter;stroke-opacity:1"/>
<path class="bond-14 atom-14 atom-15" d="M 811.1,109.3 L 821.5,92.8" style="fill:none;fill-rule:evenodd;stroke:#FF0000;stroke-width:2.0px;stroke-linecap:butt;stroke-linejoin:miter;stroke-opacity:1"/>
<path class="bond-15 atom-14 atom-16" d="M 805.9,145.4 L 824.7,157.2" style="fill:none;fill-rule:evenodd;stroke:#FF7F00;stroke-width:2.0px;stroke-linecap:butt;stroke-linejoin:miter;stroke-opacity:1"/>
<path class="bond-15 atom-14 atom-16" d="M 824.7,157.2 L 843.5,169.1" style="fill:none;fill-rule:evenodd;stroke:#FF0000;stroke-width:2.0px;stroke-linecap:butt;stroke-linejoin:miter;stroke-opacity:1"/>
<path class="bond-16 atom-14 atom-17" d="M 789.3,135.0 L 770.5,123.1" style="fill:none;fill-rule:evenodd;stroke:#FF7F00;stroke-width:2.0px;stroke-linecap:butt;stroke-linejoin:miter;stroke-opacity:1"/>
<path class="bond-16 atom-14 atom-17" d="M 770.5,123.1 L 751.7,111.3" style="fill:none;fill-rule:evenodd;stroke:#FF0000;stroke-width:2.0px;stroke-linecap:butt;stroke-linejoin:miter;stroke-opacity:1"/>
<path class="bond-17 atom-12 atom-18" d="M 687.4,206.2 L 673.2,228.8" style="fill:none;fill-rule:evenodd;stroke:#0000FF;stroke-width:2.0px;stroke-linecap:butt;stroke-linejoin:miter;stroke-opacity:1"/>
<path class="bond-17 atom-12 atom-18" d="M 673.2,228.8 L 659.0,251.3" style="fill:none;fill-rule:evenodd;stroke:#000000;stroke-width:2.0px;stroke-linecap:butt;stroke-linejoin:miter;stroke-opacity:1"/>
<path class="bond-18 atom-18 atom-19" d="M 659.0,251.3 L 671.6,275.1" style="fill:none;fill-rule:evenodd;stroke:#000000;stroke-width:2.0px;stroke-linecap:butt;stroke-linejoin:miter;stroke-opacity:1"/>
<path class="bond-18 atom-18 atom-19" d="M 671.6,275.1 L 684.1,299.0" style="fill:none;fill-rule:evenodd;stroke:#FF7F00;stroke-width:2.0px;stroke-linecap:butt;stroke-linejoin:miter;stroke-opacity:1"/>
<path class="bond-19 atom-19 atom-20" d="M 692.1,324.8 L 701.5,342.7" style="fill:none;fill-rule:evenodd;stroke:#FF7F00;stroke-width:2.0px;stroke-linecap:butt;stroke-linejoin:miter;stroke-opacity:1"/>
<path class="bond-19 atom-19 atom-20" d="M 701.5,342.7 L 711.0,360.6" style="fill:none;fill-rule:evenodd;stroke:#FF0000;stroke-width:2.0px;stroke-linecap:butt;stroke-linejoin:miter;stroke-opacity:1"/>
<path class="bond-19 atom-19 atom-20" d="M 701.0,320.1 L 710.4,338.0" style="fill:none;fill-rule:evenodd;stroke:#FF7F00;stroke-width:2.0px;stroke-linecap:butt;stroke-linejoin:miter;stroke-opacity:1"/>
<path class="bond-19 atom-19 atom-20" d="M 710.4,338.0 L 719.9,355.9" style="fill:none;fill-rule:evenodd;stroke:#FF0000;stroke-width:2.0px;stroke-linecap:butt;stroke-linejoin:miter;stroke-opacity:1"/>
<path class="bond-20 atom-19 atom-21" d="M 698.6,306.3 L 718.7,295.7" style="fill:none;fill-rule:evenodd;stroke:#FF7F00;stroke-width:2.0px;stroke-linecap:butt;stroke-linejoin:miter;stroke-opacity:1"/>
<path class="bond-20 atom-19 atom-21" d="M 718.7,295.7 L 738.8,285.1" style="fill:none;fill-rule:evenodd;stroke:#FF0000;stroke-width:2.0px;stroke-linecap:butt;stroke-linejoin:miter;stroke-opacity:1"/>
<path class="bond-21 atom-19 atom-22" d="M 682.0,315.1 L 662.0,325.7" style="fill:none;fill-rule:evenodd;stroke:#FF7F00;stroke-width:2.0px;stroke-linecap:butt;stroke-linejoin:miter;stroke-opacity:1"/>
<path class="bond-21 atom-19 atom-22" d="M 662.0,325.7 L 641.9,336.3" style="fill:none;fill-rule:evenodd;stroke:#FF0000;stroke-width:2.0px;stroke-linecap:butt;stroke-linejoin:miter;stroke-opacity:1"/>
<path d="M 597.5,64.6 L 598.9,65.4 L 598.7,68.8" style="fill:none;stroke:#000000;stroke-width:2.0px;stroke-linecap:butt;stroke-linejoin:miter;stroke-opacity:1;"/>
<path d="M 532.6,130.1 L 529.2,130.0 L 528.5,131.1" style="fill:none;stroke:#000000;stroke-width:2.0px;stroke-linecap:butt;stroke-linejoin:miter;stroke-opacity:1;"/>
<path d="M 427.7,184.3 L 426.3,184.3 L 425.6,185.4" style="fill:none;stroke:#000000;stroke-width:2.0px;stroke-linecap:butt;stroke-linejoin:miter;stroke-opacity:1;"/>
<path d="M 660.1,135.0 L 663.4,135.1 L 664.0,136.3" style="fill:none;stroke:#000000;stroke-width:2.0px;stroke-linecap:butt;stroke-linejoin:miter;stroke-opacity:1;"/>
<path d="M 760.4,197.0 L 761.9,197.0 L 762.6,195.9" style="fill:none;stroke:#000000;stroke-width:2.0px;stroke-linecap:butt;stroke-linejoin:miter;stroke-opacity:1;"/>
<path d="M 659.7,250.2 L 659.0,251.3 L 659.6,252.5" style="fill:none;stroke:#000000;stroke-width:2.0px;stroke-linecap:butt;stroke-linejoin:miter;stroke-opacity:1;"/>
<path class="atom-0" d="M 538.4 27.5 L 541.2 24.7 L 537.5 23.9 L 538.1 22.0 L 541.5 23.8 L 541.0 20.0 L 543.0 20.0 L 542.5 23.7 L 545.9 22.1 L 546.5 23.9 L 542.8 24.6 L 545.4 27.5 L 543.8 28.7 L 541.9 25.2 L 540.1 28.7 L 538.4 27.5 " fill="#191919"/>
<path class="atom-5" d="M 484.7 186.9 Q 484.7 182.3, 487.0 179.8 Q 489.2 177.2, 493.4 177.2 Q 497.7 177.2, 499.9 179.8 Q 502.2 182.3, 502.2 186.9 Q 502.2 191.5, 499.9 194.1 Q 497.6 196.7, 493.4 196.7 Q 489.3 196.7, 487.0 194.1 Q 484.7 191.5, 484.7 186.9 M 493.4 194.6 Q 496.3 194.6, 497.9 192.7 Q 499.5 190.7, 499.5 186.9 Q 499.5 183.1, 497.9 181.3 Q 496.3 179.4, 493.4 179.4 Q 490.5 179.4, 489.0 181.2 Q 487.4 183.1, 487.4 186.9 Q 487.4 190.7, 489.0 192.7 Q 490.5 194.6, 493.4 194.6 " fill="#FF0000"/>
<path class="atom-7" d="M 386.3 124.9 Q 386.3 120.4, 388.5 117.8 Q 390.8 115.3, 395.0 115.3 Q 399.2 115.3, 401.5 117.8 Q 403.7 120.4, 403.7 124.9 Q 403.7 129.6, 401.4 132.2 Q 399.2 134.8, 395.0 134.8 Q 390.8 134.8, 388.5 132.2 Q 386.3 129.6, 386.3 124.9 M 395.0 132.6 Q 397.9 132.6, 399.5 130.7 Q 401.0 128.8, 401.0 124.9 Q 401.0 121.2, 399.5 119.3 Q 397.9 117.4, 395.0 117.4 Q 392.1 117.4, 390.5 119.3 Q 388.9 121.2, 388.9 124.9 Q 388.9 128.8, 390.5 130.7 Q 392.1 132.6, 395.0 132.6 " fill="#FF0000"/>
<path class="atom-8" d="M 381.8 241.2 Q 381.8 236.6, 384.1 234.0 Q 386.4 231.5, 390.6 231.5 Q 394.8 231.5, 397.1 234.0 Q 399.3 236.6, 399.3 241.2 Q 399.3 245.8, 397.0 248.4 Q 394.7 251.0, 390.6 251.0 Q 386.4 251.0, 384.1 248.4 Q 381.8 245.8, 381.8 241.2 M 390.6 248.9 Q 393.5 248.9, 395.0 246.9 Q 396.6 245.0, 396.6 241.2 Q 396.6 237.4, 395.0 235.6 Q 393.5 233.6, 390.6 233.6 Q 387.7 233.6, 386.1 235.5 Q 384.5 237.4, 384.5 241.2 Q 384.5 245.0, 386.1 246.9 Q 387.7 248.9, 390.6 248.9 " fill="#FF0000"/>
<path class="atom-9" d="M 319.9 236.4 L 322.7 233.6 L 319.0 232.8 L 319.5 230.9 L 322.9 232.7 L 322.5 228.9 L 324.5 228.9 L 323.9 232.6 L 327.4 231.0 L 328.0 232.8 L 324.2 233.5 L 326.9 236.4 L 325.3 237.6 L 323.4 234.0 L 321.5 237.6 L 319.9 236.4 " fill="#191919"/>
<path class="atom-11" d="M 690.4 78.3 Q 690.4 73.7, 692.7 71.2 Q 695.0 68.6, 699.2 68.6 Q 703.4 68.6, 705.6 71.2 Q 707.9 73.7, 707.9 78.3 Q 707.9 82.9, 705.6 85.6 Q 703.3 88.2, 699.2 88.2 Q 695.0 88.2, 692.7 85.6 Q 690.4 82.9, 690.4 78.3 M 699.2 86.0 Q 702.1 86.0, 703.6 84.1 Q 705.2 82.1, 705.2 78.3 Q 705.2 74.6, 703.6 72.7 Q 702.1 70.8, 699.2 70.8 Q 696.3 70.8, 694.7 72.7 Q 693.1 74.5, 693.1 78.3 Q 693.1 82.1, 694.7 84.1 Q 696.3 86.0, 699.2 86.0 " fill="#FF0000"/>
<path class="atom-12" d="M 690.5 185.0 L 696.8 195.0 Q 697.4 196.0, 698.4 197.8 Q 699.4 199.6, 699.4 199.7 L 699.4 185.0 L 702.0 185.0 L 702.0 204.0 L 699.4 204.0 L 692.7 193.0 Q 691.9 191.7, 691.1 190.2 Q 690.3 188.7, 690.0 188.3 L 690.0 204.0 L 687.5 204.0 L 687.5 185.0 L 690.5 185.0 " fill="#0000FF"/>
<path class="atom-14" d="M 797.2 130.7 Q 800.4 130.7, 802.0 132.2 Q 803.7 133.6, 803.7 136.3 Q 803.7 138.9, 802.0 140.4 Q 800.3 141.9, 797.2 141.9 L 794.1 141.9 L 794.1 149.7 L 791.5 149.7 L 791.5 130.7 L 797.2 130.7 M 797.2 139.7 Q 799.0 139.7, 800.0 138.8 Q 801.0 138.0, 801.0 136.3 Q 801.0 134.6, 800.0 133.7 Q 799.0 132.8, 797.2 132.8 L 794.1 132.8 L 794.1 139.7 L 797.2 139.7 " fill="#FF7F00"/>
<path class="atom-15" d="M 824.6 83.4 Q 824.6 78.8, 826.9 76.3 Q 829.2 73.7, 833.4 73.7 Q 837.6 73.7, 839.9 76.3 Q 842.1 78.8, 842.1 83.4 Q 842.1 88.0, 839.8 90.7 Q 837.5 93.3, 833.4 93.3 Q 829.2 93.3, 826.9 90.7 Q 824.6 88.0, 824.6 83.4 M 833.4 91.1 Q 836.3 91.1, 837.8 89.2 Q 839.4 87.2, 839.4 83.4 Q 839.4 79.7, 837.8 77.8 Q 836.3 75.9, 833.4 75.9 Q 830.5 75.9, 828.9 77.8 Q 827.3 79.6, 827.3 83.4 Q 827.3 87.2, 828.9 89.2 Q 830.5 91.1, 833.4 91.1 " fill="#FF0000"/>
<path class="atom-16" d="M 845.7 176.0 Q 845.7 171.4, 848.0 168.9 Q 850.2 166.3, 854.5 166.3 Q 858.7 166.3, 860.9 168.9 Q 863.2 171.4, 863.2 176.0 Q 863.2 180.6, 860.9 183.3 Q 858.6 185.9, 854.5 185.9 Q 850.3 185.9, 848.0 183.3 Q 845.7 180.6, 845.7 176.0 M 854.5 183.7 Q 857.4 183.7, 858.9 181.8 Q 860.5 179.8, 860.5 176.0 Q 860.5 172.3, 858.9 170.4 Q 857.4 168.5, 854.5 168.5 Q 851.6 168.5, 850.0 170.4 Q 848.4 172.2, 848.4 176.0 Q 848.4 179.8, 850.0 181.8 Q 851.6 183.7, 854.5 183.7 " fill="#FF0000"/>
<path class="atom-16" d="M 866.1 166.5 L 868.7 166.5 L 868.7 174.6 L 878.4 174.6 L 878.4 166.5 L 881.0 166.5 L 881.0 185.6 L 878.4 185.6 L 878.4 176.8 L 868.7 176.8 L 868.7 185.6 L 866.1 185.6 L 866.1 166.5 " fill="#FF0000"/>
<path class="atom-17" d="M 713.3 95.0 L 715.8 95.0 L 715.8 103.1 L 725.6 103.1 L 725.6 95.0 L 728.1 95.0 L 728.1 114.0 L 725.6 114.0 L 725.6 105.3 L 715.8 105.3 L 715.8 114.0 L 713.3 114.0 L 713.3 95.0 " fill="#FF0000"/>
<path class="atom-17" d="M 732.0 104.5 Q 732.0 99.9, 734.3 97.4 Q 736.6 94.8, 740.8 94.8 Q 745.0 94.8, 747.3 97.4 Q 749.5 99.9, 749.5 104.5 Q 749.5 109.1, 747.2 111.7 Q 744.9 114.3, 740.8 114.3 Q 736.6 114.3, 734.3 111.7 Q 732.0 109.1, 732.0 104.5 M 740.8 112.2 Q 743.7 112.2, 745.2 110.3 Q 746.8 108.3, 746.8 104.5 Q 746.8 100.7, 745.2 98.9 Q 743.7 97.0, 740.8 97.0 Q 737.9 97.0, 736.3 98.8 Q 734.7 100.7, 734.7 104.5 Q 734.7 108.3, 736.3 110.3 Q 737.9 112.2, 740.8 112.2 " fill="#FF0000"/>
<path class="atom-19" d="M 689.9 301.2 Q 693.1 301.2, 694.8 302.7 Q 696.4 304.1, 696.4 306.8 Q 696.4 309.4, 694.7 310.9 Q 693.0 312.4, 689.9 312.4 L 686.8 312.4 L 686.8 320.2 L 684.3 320.2 L 684.3 301.2 L 689.9 301.2 M 689.9 310.2 Q 691.7 310.2, 692.7 309.4 Q 693.7 308.5, 693.7 306.8 Q 693.7 305.1, 692.7 304.2 Q 691.8 303.3, 689.9 303.3 L 686.8 303.3 L 686.8 310.2 L 689.9 310.2 " fill="#FF7F00"/>
<path class="atom-20" d="M 712.9 370.1 Q 712.9 365.6, 715.2 363.0 Q 717.5 360.5, 721.7 360.5 Q 725.9 360.5, 728.2 363.0 Q 730.4 365.6, 730.4 370.1 Q 730.4 374.8, 728.1 377.4 Q 725.8 380.0, 721.7 380.0 Q 717.5 380.0, 715.2 377.4 Q 712.9 374.8, 712.9 370.1 M 721.7 377.9 Q 724.6 377.9, 726.1 375.9 Q 727.7 374.0, 727.7 370.1 Q 727.7 366.4, 726.1 364.5 Q 724.6 362.6, 721.7 362.6 Q 718.8 362.6, 717.2 364.5 Q 715.6 366.4, 715.6 370.1 Q 715.6 374.0, 717.2 375.9 Q 718.8 377.9, 721.7 377.9 " fill="#FF0000"/>
<path class="atom-21" d="M 741.0 279.4 Q 741.0 274.8, 743.3 272.3 Q 745.5 269.7, 749.7 269.7 Q 753.9 269.7, 756.2 272.3 Q 758.5 274.8, 758.5 279.4 Q 758.5 284.0, 756.2 286.7 Q 753.9 289.3, 749.7 289.3 Q 745.5 289.3, 743.3 286.7 Q 741.0 284.1, 741.0 279.4 M 749.7 287.1 Q 752.6 287.1, 754.2 285.2 Q 755.8 283.2, 755.8 279.4 Q 755.8 275.7, 754.2 273.8 Q 752.6 271.9, 749.7 271.9 Q 746.8 271.9, 745.2 273.8 Q 743.7 275.6, 743.7 279.4 Q 743.7 283.3, 745.2 285.2 Q 746.8 287.1, 749.7 287.1 " fill="#FF0000"/>
<path class="atom-21" d="M 761.4 270.0 L 764.0 270.0 L 764.0 278.0 L 773.7 278.0 L 773.7 270.0 L 776.3 270.0 L 776.3 289.0 L 773.7 289.0 L 773.7 280.2 L 764.0 280.2 L 764.0 289.0 L 761.4 289.0 L 761.4 270.0 " fill="#FF0000"/>
<path class="atom-22" d="M 603.4 332.6 L 606.0 332.6 L 606.0 340.7 L 615.7 340.7 L 615.7 332.6 L 618.3 332.6 L 618.3 351.7 L 615.7 351.7 L 615.7 342.9 L 606.0 342.9 L 606.0 351.7 L 603.4 351.7 L 603.4 332.6 " fill="#FF0000"/>
<path class="atom-22" d="M 622.2 342.1 Q 622.2 337.5, 624.5 335.0 Q 626.7 332.4, 630.9 332.4 Q 635.2 332.4, 637.4 335.0 Q 639.7 337.5, 639.7 342.1 Q 639.7 346.7, 637.4 349.3 Q 635.1 352.0, 630.9 352.0 Q 626.8 352.0, 624.5 349.3 Q 622.2 346.7, 622.2 342.1 M 630.9 349.8 Q 633.8 349.8, 635.4 347.9 Q 637.0 345.9, 637.0 342.1 Q 637.0 338.4, 635.4 336.5 Q 633.8 334.6, 630.9 334.6 Q 628.0 334.6, 626.5 336.5 Q 624.9 338.3, 624.9 342.1 Q 624.9 345.9, 626.5 347.9 Q 628.0 349.8, 630.9 349.8 " fill="#FF0000"/>
<path class="bond-0 atom-0 atom-1" d="M 673.6,496.8 L 693.2,523.1" style="fill:none;fill-rule:evenodd;stroke:#191919;stroke-width:2.0px;stroke-linecap:butt;stroke-linejoin:miter;stroke-opacity:1"/>
<path class="bond-0 atom-0 atom-1" d="M 693.2,523.1 L 712.9,549.3" style="fill:none;fill-rule:evenodd;stroke:#000000;stroke-width:2.0px;stroke-linecap:butt;stroke-linejoin:miter;stroke-opacity:1"/>
<path class="bond-1 atom-1 atom-2" d="M 712.9,549.3 L 686.5,611.1" style="fill:none;fill-rule:evenodd;stroke:#000000;stroke-width:2.0px;stroke-linecap:butt;stroke-linejoin:miter;stroke-opacity:1"/>
<path class="bond-2 atom-2 atom-3" d="M 686.5,611.1 L 660.1,672.8" style="fill:none;fill-rule:evenodd;stroke:#000000;stroke-width:2.0px;stroke-linecap:butt;stroke-linejoin:miter;stroke-opacity:1"/>
<path class="bond-3 atom-2 atom-4" d="M 686.5,611.1 L 624.8,584.7" style="fill:none;fill-rule:evenodd;stroke:#000000;stroke-width:2.0px;stroke-linecap:butt;stroke-linejoin:miter;stroke-opacity:1"/>
<path class="bond-4 atom-4 atom-5" d="M 624.8,584.7 L 603.4,600.7" style="fill:none;fill-rule:evenodd;stroke:#000000;stroke-width:2.0px;stroke-linecap:butt;stroke-linejoin:miter;stroke-opacity:1"/>
<path class="bond-4 atom-4 atom-5" d="M 603.4,600.7 L 582.0,616.7" style="fill:none;fill-rule:evenodd;stroke:#FF0000;stroke-width:2.0px;stroke-linecap:butt;stroke-linejoin:miter;stroke-opacity:1"/>
<path class="bond-5 atom-5 atom-6" d="M 560.1,620.3 L 534.7,609.4" style="fill:none;fill-rule:evenodd;stroke:#FF0000;stroke-width:2.0px;stroke-linecap:butt;stroke-linejoin:miter;stroke-opacity:1"/>
<path class="bond-5 atom-5 atom-6" d="M 534.7,609.4 L 509.3,598.5" style="fill:none;fill-rule:evenodd;stroke:#000000;stroke-width:2.0px;stroke-linecap:butt;stroke-linejoin:miter;stroke-opacity:1"/>
<path class="bond-6 atom-6 atom-7" d="M 509.3,598.5 L 487.9,614.6" style="fill:none;fill-rule:evenodd;stroke:#000000;stroke-width:2.0px;stroke-linecap:butt;stroke-linejoin:miter;stroke-opacity:1"/>
<path class="bond-6 atom-6 atom-7" d="M 487.9,614.6 L 466.5,630.6" style="fill:none;fill-rule:evenodd;stroke:#FF0000;stroke-width:2.0px;stroke-linecap:butt;stroke-linejoin:miter;stroke-opacity:1"/>
<path class="bond-7 atom-7 atom-8" d="M 444.6,634.1 L 420.7,623.9" style="fill:none;fill-rule:evenodd;stroke:#FF0000;stroke-width:2.0px;stroke-linecap:butt;stroke-linejoin:miter;stroke-opacity:1"/>
<path class="bond-7 atom-7 atom-8" d="M 420.7,623.9 L 396.7,613.7" style="fill:none;fill-rule:evenodd;stroke:#191919;stroke-width:2.0px;stroke-linecap:butt;stroke-linejoin:miter;stroke-opacity:1"/>
<path class="bond-8 atom-2 atom-9" d="M 686.5,611.1 L 748.2,637.5" style="fill:none;fill-rule:evenodd;stroke:#000000;stroke-width:2.0px;stroke-linecap:butt;stroke-linejoin:miter;stroke-opacity:1"/>
<path class="bond-9 atom-9 atom-10" d="M 748.9,643.3 L 771.5,626.4" style="fill:none;fill-rule:evenodd;stroke:#000000;stroke-width:2.0px;stroke-linecap:butt;stroke-linejoin:miter;stroke-opacity:1"/>
<path class="bond-9 atom-9 atom-10" d="M 771.5,626.4 L 794.1,609.4" style="fill:none;fill-rule:evenodd;stroke:#FF0000;stroke-width:2.0px;stroke-linecap:butt;stroke-linejoin:miter;stroke-opacity:1"/>
<path class="bond-9 atom-9 atom-10" d="M 742.9,635.2 L 765.5,618.3" style="fill:none;fill-rule:evenodd;stroke:#000000;stroke-width:2.0px;stroke-linecap:butt;stroke-linejoin:miter;stroke-opacity:1"/>
<path class="bond-9 atom-9 atom-10" d="M 765.5,618.3 L 788.0,601.4" style="fill:none;fill-rule:evenodd;stroke:#FF0000;stroke-width:2.0px;stroke-linecap:butt;stroke-linejoin:miter;stroke-opacity:1"/>
<path class="bond-10 atom-9 atom-11" d="M 748.2,637.5 L 751.5,664.9" style="fill:none;fill-rule:evenodd;stroke:#000000;stroke-width:2.0px;stroke-linecap:butt;stroke-linejoin:miter;stroke-opacity:1"/>
<path class="bond-10 atom-9 atom-11" d="M 751.5,664.9 L 754.8,692.3" style="fill:none;fill-rule:evenodd;stroke:#FF0000;stroke-width:2.0px;stroke-linecap:butt;stroke-linejoin:miter;stroke-opacity:1"/>
<path d="M 711.9,548.0 L 712.9,549.3 L 711.6,552.4" style="fill:none;stroke:#000000;stroke-width:2.0px;stroke-linecap:butt;stroke-linejoin:miter;stroke-opacity:1;"/>
<path d="M 627.8,586.0 L 624.8,584.7 L 623.7,585.5" style="fill:none;stroke:#000000;stroke-width:2.0px;stroke-linecap:butt;stroke-linejoin:miter;stroke-opacity:1;"/>
<path d="M 510.5,599.1 L 509.3,598.5 L 508.2,599.3" style="fill:none;stroke:#000000;stroke-width:2.0px;stroke-linecap:butt;stroke-linejoin:miter;stroke-opacity:1;"/>
<path d="M 745.2,636.2 L 748.2,637.5 L 748.4,638.9" style="fill:none;stroke:#000000;stroke-width:2.0px;stroke-linecap:butt;stroke-linejoin:miter;stroke-opacity:1;"/>
<path class="atom-0" d="M 669.0 493.5 L 671.8 490.6 L 668.1 489.9 L 668.7 488.0 L 672.1 489.7 L 671.6 486.0 L 673.6 485.9 L 673.1 489.7 L 676.5 488.1 L 677.1 489.9 L 673.4 490.6 L 676.1 493.5 L 674.4 494.6 L 672.6 491.1 L 670.7 494.6 L 669.0 493.5 " fill="#191919"/>
<path class="atom-5" d="M 562.3 625.0 Q 562.3 620.4, 564.5 617.9 Q 566.8 615.3, 571.0 615.3 Q 575.2 615.3, 577.5 617.9 Q 579.7 620.4, 579.7 625.0 Q 579.7 629.6, 577.5 632.3 Q 575.2 634.9, 571.0 634.9 Q 566.8 634.9, 564.5 632.3 Q 562.3 629.7, 562.3 625.0 M 571.0 632.7 Q 573.9 632.7, 575.5 630.8 Q 577.1 628.8, 577.1 625.0 Q 577.1 621.3, 575.5 619.4 Q 573.9 617.5, 571.0 617.5 Q 568.1 617.5, 566.5 619.4 Q 565.0 621.2, 565.0 625.0 Q 565.0 628.8, 566.5 630.8 Q 568.1 632.7, 571.0 632.7 " fill="#FF0000"/>
<path class="atom-7" d="M 446.8 638.9 Q 446.8 634.3, 449.1 631.8 Q 451.3 629.2, 455.5 629.2 Q 459.8 629.2, 462.0 631.8 Q 464.3 634.3, 464.3 638.9 Q 464.3 643.5, 462.0 646.1 Q 459.7 648.7, 455.5 648.7 Q 451.3 648.7, 449.1 646.1 Q 446.8 643.5, 446.8 638.9 M 455.5 646.6 Q 458.4 646.6, 460.0 644.6 Q 461.6 642.7, 461.6 638.9 Q 461.6 635.1, 460.0 633.3 Q 458.4 631.4, 455.5 631.4 Q 452.6 631.4, 451.0 633.2 Q 449.5 635.1, 449.5 638.9 Q 449.5 642.7, 451.0 644.6 Q 452.6 646.6, 455.5 646.6 " fill="#FF0000"/>
<path class="atom-8" d="M 390.2 610.3 L 393.0 607.4 L 389.3 606.7 L 389.9 604.8 L 393.3 606.5 L 392.8 602.8 L 394.8 602.7 L 394.2 606.5 L 397.7 604.9 L 398.3 606.7 L 394.5 607.4 L 397.2 610.3 L 395.6 611.4 L 393.7 607.9 L 391.8 611.4 L 390.2 610.3 " fill="#191919"/>
<path class="atom-10" d="M 793.2 597.3 Q 793.2 592.7, 795.5 590.1 Q 797.8 587.6, 802.0 587.6 Q 806.2 587.6, 808.5 590.1 Q 810.7 592.7, 810.7 597.3 Q 810.7 601.9, 808.4 604.5 Q 806.1 607.1, 802.0 607.1 Q 797.8 607.1, 795.5 604.5 Q 793.2 601.9, 793.2 597.3 M 802.0 605.0 Q 804.9 605.0, 806.4 603.0 Q 808.0 601.1, 808.0 597.3 Q 808.0 593.5, 806.4 591.7 Q 804.9 589.7, 802.0 589.7 Q 799.1 589.7, 797.5 591.6 Q 795.9 593.5, 795.9 597.3 Q 795.9 601.1, 797.5 603.0 Q 799.1 605.0, 802.0 605.0 " fill="#FF0000"/>
<path class="atom-11" d="M 747.5 704.2 Q 747.5 699.6, 749.8 697.1 Q 752.0 694.5, 756.2 694.5 Q 760.5 694.5, 762.7 697.1 Q 765.0 699.6, 765.0 704.2 Q 765.0 708.8, 762.7 711.5 Q 760.4 714.1, 756.2 714.1 Q 752.1 714.1, 749.8 711.5 Q 747.5 708.9, 747.5 704.2 M 756.2 711.9 Q 759.1 711.9, 760.7 710.0 Q 762.3 708.0, 762.3 704.2 Q 762.3 700.5, 760.7 698.6 Q 759.1 696.7, 756.2 696.7 Q 753.3 696.7, 751.8 698.6 Q 750.2 700.5, 750.2 704.2 Q 750.2 708.1, 751.8 710.0 Q 753.3 711.9, 756.2 711.9 " fill="#FF0000"/>
<path class="atom-11" d="M 767.9 694.8 L 770.5 694.8 L 770.5 702.8 L 780.2 702.8 L 780.2 694.8 L 782.8 694.8 L 782.8 713.8 L 780.2 713.8 L 780.2 705.0 L 770.5 705.0 L 770.5 713.8 L 767.9 713.8 L 767.9 694.8 " fill="#FF0000"/>
</svg>