<svg xmlns="http://www.w3.org/2000/svg" xmlns:rdkit="http://www.rdkit.org/xml" xmlns:xlink="http://www.w3.org/1999/xlink" version="1.1" baseProfile="full" xml:space="preserve" width="1200px" height="800px" viewBox="0 0 1200 800">
<!-- END OF HEADER -->
<rect style="opacity:1.0;fill:#FFFFFF;stroke:none" width="1200.0" height="800.0" x="0.0" y="0.0"> </rect>
<path class="bond-0 atom-0 atom-1" d="M 96.7,272.6 L 218.4,202.4" style="fill:none;fill-rule:evenodd;stroke:#191919;stroke-width:2.0px;stroke-linecap:butt;stroke-linejoin:miter;stroke-opacity:1"/>
<path class="bond-0 atom-0 atom-1" d="M 218.4,202.4 L 340.1,132.1" style="fill:none;fill-rule:evenodd;stroke:#000000;stroke-width:2.0px;stroke-linecap:butt;stroke-linejoin:miter;stroke-opacity:1"/>
<path class="bond-1 atom-1 atom-2" d="M 340.1,132.1 L 600.0,282.2" style="fill:none;fill-rule:evenodd;stroke:#000000;stroke-width:2.0px;stroke-linecap:butt;stroke-linejoin:miter;stroke-opacity:1"/>
<path class="bond-2 atom-2 atom-3" d="M 600.0,282.2 L 718.5,213.8" style="fill:none;fill-rule:evenodd;stroke:#000000;stroke-width:2.0px;stroke-linecap:butt;stroke-linejoin:miter;stroke-opacity:1"/>
<path class="bond-2 atom-2 atom-3" d="M 718.5,213.8 L 837.0,145.3" style="fill:none;fill-rule:evenodd;stroke:#FF0000;stroke-width:2.0px;stroke-linecap:butt;stroke-linejoin:miter;stroke-opacity:1"/>
<path class="bond-3 atom-3 atom-4" d="M 882.8,145.3 L 993.1,209.0" style="fill:none;fill-rule:evenodd;stroke:#FF0000;stroke-width:2.0px;stroke-linecap:butt;stroke-linejoin:miter;stroke-opacity:1"/>
<path class="bond-3 atom-3 atom-4" d="M 993.1,209.0 L 1103.3,272.6" style="fill:none;fill-rule:evenodd;stroke:#191919;stroke-width:2.0px;stroke-linecap:butt;stroke-linejoin:miter;stroke-opacity:1"/>
<path d="M 334.0,135.6 L 340.1,132.1 L 353.1,139.6" style="fill:none;stroke:#000000;stroke-width:2.0px;stroke-linecap:butt;stroke-linejoin:miter;stroke-opacity:1;"/>
<path d="M 587.0,274.7 L 600.0,282.2 L 605.9,278.8" style="fill:none;stroke:#000000;stroke-width:2.0px;stroke-linecap:butt;stroke-linejoin:miter;stroke-opacity:1;"/>
<path class="atom-0" d="M 74.8 279.0 L 78.9 274.8 L 73.4 273.7 L 74.3 270.8 L 79.3 273.4 L 78.6 267.8 L 81.6 267.8 L 80.8 273.4 L 85.9 271.0 L 86.8 273.7 L 81.2 274.7 L 85.2 279.0 L 82.8 280.8 L 80.0 275.5 L 77.2 280.8 L 74.8 279.0 " fill="#191919"/>
<path class="atom-3" d="M 846.9 132.2 Q 846.9 125.4, 850.3 121.6 Q 853.7 117.8, 859.9 117.8 Q 866.2 117.8, 869.6 121.6 Q 872.9 125.4, 872.9 132.2 Q 872.9 139.1, 869.5 143.0 Q 866.1 146.9, 859.9 146.9 Q 853.7 146.9, 850.3 143.0 Q 846.9 139.1, 846.9 132.2 M 859.9 143.7 Q 864.3 143.7, 866.6 140.8 Q 868.9 137.9, 868.9 132.2 Q 868.9 126.6, 866.6 123.8 Q 864.3 121.0, 859.9 121.0 Q 855.6 121.0, 853.3 123.8 Q 850.9 126.6, 850.9 132.2 Q 850.9 137.9, 853.3 140.8 Q 855.6 143.7, 859.9 143.7 " fill="#FF0000"/>
<path class="atom-4" d="M 1114.5 279.0 L 1118.7 274.8 L 1113.2 273.7 L 1114.0 270.8 L 1119.1 273.4 L 1118.4 267.8 L 1121.4 267.8 L 1120.5 273.4 L 1125.7 271.0 L 1126.6 273.7 L 1121.0 274.7 L 1125.0 279.0 L 1122.5 280.8 L 1119.8 275.5 L 1117.0 280.8 L 1114.5 279.0 " fill="#191919"/>
<path class="bond-0 atom-0 atom-1" d="M 450.1,599.8 L 580.4,599.8" style="fill:none;fill-rule:evenodd;stroke:#191919;stroke-width:2.0px;stroke-linecap:butt;stroke-linejoin:miter;stroke-opacity:1"/>
<path class="bond-0 atom-0 atom-1" d="M 580.4,599.8 L 710.7,599.8" style="fill:none;fill-rule:evenodd;stroke:#FF0000;stroke-width:2.0px;stroke-linecap:butt;stroke-linejoin:miter;stroke-opacity:1"/>
<path class="atom-0" d="M 428.1 596.7 L 432.3 592.4 L 426.8 591.3 L 427.6 588.5 L 432.7 591.0 L 432.0 585.5 L 435.0 585.4 L 434.1 591.0 L 439.3 588.6 L 440.2 591.3 L 434.6 592.3 L 438.6 596.6 L 436.1 598.4 L 433.4 593.1 L 430.6 598.4 L 428.1 596.7 " fill="#191919"/>
<path class="atom-1" d="M 720.6 599.9 Q 720.6 593.1, 724.0 589.3 Q 727.4 585.5, 733.6 585.5 Q 739.9 585.5, 743.3 589.3 Q 746.6 593.1, 746.6 599.9 Q 746.6 606.8, 743.2 610.7 Q 739.8 614.6, 733.6 614.6 Q 727.4 614.6, 724.0 610.7 Q 720.6 606.8, 720.6 599.9 M 733.6 611.4 Q 738.0 611.4, 740.3 608.5 Q 742.6 605.6, 742.6 599.9 Q 742.6 594.3, 740.3 591.5 Q 738.0 588.7, 733.6 588.7 Q 729.3 588.7, 727.0 591.5 Q 724.6 594.3, 724.6 599.9 Q 724.6 605.6, 727.0 608.5 Q 729.3 611.4, 733.6 611.4 " fill="#FF0000"/>
<path class="atom-1" d="M 751.1 585.8 L 754.9 585.8 L 754.9 597.9 L 769.4 597.9 L 769.4 585.8 L 773.2 585.8 L 773.2 614.1 L 769.4 614.1 L 769.4 601.1 L 754.9 601.1 L 754.9 614.1 L 751.1 614.1 L 751.1 585.8 " fill="#FF0000"/>
</svg>