<svg xmlns="http://www.w3.org/2000/svg" xmlns:rdkit="http://www.rdkit.org/xml" xmlns:xlink="http://www.w3.org/1999/xlink" version="1.1" baseProfile="full" xml:space="preserve" width="1200px" height="800px" viewBox="0 0 1200 800">
<!-- END OF HEADER -->
<rect style="opacity:1.0;fill:#FFFFFF;stroke:none" width="1200.0" height="800.0" x="0.0" y="0.0"> </rect>
<path class="bond-0 atom-0 atom-1" d="M 871.2,55.9 L 852.0,116.5" style="fill:none;fill-rule:evenodd;stroke:#191919;stroke-width:2.0px;stroke-linecap:butt;stroke-linejoin:miter;stroke-opacity:1"/>
<path class="bond-0 atom-0 atom-1" d="M 852.0,116.5 L 832.8,177.1" style="fill:none;fill-rule:evenodd;stroke:#FF0000;stroke-width:2.0px;stroke-linecap:butt;stroke-linejoin:miter;stroke-opacity:1"/>
<path class="bond-1 atom-1 atom-2" d="M 808.7,200.4 L 743.8,214.6" style="fill:none;fill-rule:evenodd;stroke:#FF0000;stroke-width:2.0px;stroke-linecap:butt;stroke-linejoin:miter;stroke-opacity:1"/>
<path class="bond-1 atom-1 atom-2" d="M 743.8,214.6 L 679.0,228.8" style="fill:none;fill-rule:evenodd;stroke:#000000;stroke-width:2.0px;stroke-linecap:butt;stroke-linejoin:miter;stroke-opacity:1"/>
<path class="bond-2 atom-2 atom-3" d="M 679.0,228.8 L 644.1,376.3 L 622.5,369.5 Z" style="fill:#000000;fill-rule:evenodd;fill-opacity:1;stroke:#000000;stroke-width:0.5px;stroke-linecap:butt;stroke-linejoin:miter;stroke-opacity:1;"/>
<path class="bond-3 atom-2 atom-4" d="M 679.0,228.8 L 577.1,117.2" style="fill:none;fill-rule:evenodd;stroke:#000000;stroke-width:2.0px;stroke-linecap:butt;stroke-linejoin:miter;stroke-opacity:1"/>
<path class="bond-4 atom-4 atom-5" d="M 577.1,117.2 L 429.5,149.7" style="fill:none;fill-rule:evenodd;stroke:#000000;stroke-width:2.0px;stroke-linecap:butt;stroke-linejoin:miter;stroke-opacity:1"/>
<path class="bond-5 atom-5 atom-6" d="M 429.5,149.7 L 380.2,95.7" style="fill:none;fill-rule:evenodd;stroke:#000000;stroke-width:2.0px;stroke-linecap:butt;stroke-linejoin:miter;stroke-opacity:1"/>
<path class="bond-5 atom-5 atom-6" d="M 380.2,95.7 L 330.9,41.6" style="fill:none;fill-rule:evenodd;stroke:#191919;stroke-width:2.0px;stroke-linecap:butt;stroke-linejoin:miter;stroke-opacity:1"/>
<path class="bond-6 atom-5 atom-7" d="M 420.7,140.0 L 399.9,205.5" style="fill:none;fill-rule:evenodd;stroke:#000000;stroke-width:2.0px;stroke-linecap:butt;stroke-linejoin:miter;stroke-opacity:1"/>
<path class="bond-6 atom-5 atom-7" d="M 399.9,205.5 L 379.2,271.0" style="fill:none;fill-rule:evenodd;stroke:#FF0000;stroke-width:2.0px;stroke-linecap:butt;stroke-linejoin:miter;stroke-opacity:1"/>
<path class="bond-6 atom-5 atom-7" d="M 442.3,146.9 L 421.6,212.4" style="fill:none;fill-rule:evenodd;stroke:#000000;stroke-width:2.0px;stroke-linecap:butt;stroke-linejoin:miter;stroke-opacity:1"/>
<path class="bond-6 atom-5 atom-7" d="M 421.6,212.4 L 400.8,277.8" style="fill:none;fill-rule:evenodd;stroke:#FF0000;stroke-width:2.0px;stroke-linecap:butt;stroke-linejoin:miter;stroke-opacity:1"/>
<path d="M 682.3,228.1 L 679.0,228.8 L 673.9,223.3" style="fill:none;stroke:#000000;stroke-width:2.0px;stroke-linecap:butt;stroke-linejoin:miter;stroke-opacity:1;"/>
<path d="M 582.2,122.8 L 577.1,117.2 L 569.8,118.9" style="fill:none;stroke:#000000;stroke-width:2.0px;stroke-linecap:butt;stroke-linejoin:miter;stroke-opacity:1;"/>
<path d="M 436.9,148.1 L 429.5,149.7 L 427.1,147.0" style="fill:none;stroke:#000000;stroke-width:2.0px;stroke-linecap:butt;stroke-linejoin:miter;stroke-opacity:1;"/>
<path class="atom-0" d="M 867.0 49.2 L 871.2 45.0 L 865.6 43.8 L 866.5 41.0 L 871.6 43.6 L 870.8 38.0 L 873.8 38.0 L 873.0 43.5 L 878.2 41.1 L 879.0 43.8 L 873.4 44.9 L 877.4 49.2 L 875.0 50.9 L 872.2 45.6 L 869.4 50.9 L 867.0 49.2 " fill="#191919"/>
<path class="atom-1" d="M 813.6 196.5 Q 813.6 189.7, 817.0 185.9 Q 820.4 182.1, 826.6 182.1 Q 832.9 182.1, 836.3 185.9 Q 839.6 189.7, 839.6 196.5 Q 839.6 203.4, 836.2 207.3 Q 832.8 211.2, 826.6 211.2 Q 820.4 211.2, 817.0 207.3 Q 813.6 203.4, 813.6 196.5 M 826.6 208.0 Q 831.0 208.0, 833.3 205.1 Q 835.6 202.2, 835.6 196.5 Q 835.6 190.9, 833.3 188.1 Q 831.0 185.3, 826.6 185.3 Q 822.3 185.3, 820.0 188.1 Q 817.6 190.9, 817.6 196.5 Q 817.6 202.2, 820.0 205.1 Q 822.3 208.0, 826.6 208.0 " fill="#FF0000"/>
<path class="atom-6" d="M 322.3 34.9 L 326.5 30.7 L 321.0 29.6 L 321.8 26.7 L 326.9 29.3 L 326.2 23.7 L 329.2 23.7 L 328.3 29.2 L 333.5 26.8 L 334.4 29.6 L 328.8 30.6 L 332.8 34.9 L 330.3 36.6 L 327.6 31.4 L 324.8 36.6 L 322.3 34.9 " fill="#191919"/>
<path class="atom-7" d="M 370.8 293.8 Q 370.8 287.0, 374.2 283.2 Q 377.6 279.4, 383.8 279.4 Q 390.1 279.4, 393.5 283.2 Q 396.8 287.0, 396.8 293.8 Q 396.8 300.7, 393.4 304.6 Q 390.0 308.5, 383.8 308.5 Q 377.6 308.5, 374.2 304.6 Q 370.8 300.7, 370.8 293.8 M 383.8 305.3 Q 388.2 305.3, 390.5 302.4 Q 392.8 299.5, 392.8 293.8 Q 392.8 288.2, 390.5 285.4 Q 388.2 282.6, 383.8 282.6 Q 379.5 282.6, 377.2 285.4 Q 374.8 288.2, 374.8 293.8 Q 374.8 299.5, 377.2 302.4 Q 379.5 305.3, 383.8 305.3 " fill="#FF0000"/>
<path class="bond-0 atom-0 atom-1" d="M 919.1,615.3 L 867.6,649.1" style="fill:none;fill-rule:evenodd;stroke:#191919;stroke-width:2.0px;stroke-linecap:butt;stroke-linejoin:miter;stroke-opacity:1"/>
<path class="bond-0 atom-0 atom-1" d="M 867.6,649.1 L 816.1,682.9" style="fill:none;fill-rule:evenodd;stroke:#FF0000;stroke-width:2.0px;stroke-linecap:butt;stroke-linejoin:miter;stroke-opacity:1"/>
<path class="bond-1 atom-1 atom-2" d="M 780.2,685.7 L 721.7,656.2" style="fill:none;fill-rule:evenodd;stroke:#FF0000;stroke-width:2.0px;stroke-linecap:butt;stroke-linejoin:miter;stroke-opacity:1"/>
<path class="bond-1 atom-1 atom-2" d="M 721.7,656.2 L 663.2,626.8" style="fill:none;fill-rule:evenodd;stroke:#000000;stroke-width:2.0px;stroke-linecap:butt;stroke-linejoin:miter;stroke-opacity:1"/>
<path class="bond-2 atom-2 atom-3" d="M 663.2,626.8 L 536.8,709.8" style="fill:none;fill-rule:evenodd;stroke:#000000;stroke-width:2.0px;stroke-linecap:butt;stroke-linejoin:miter;stroke-opacity:1"/>
<path class="bond-3 atom-3 atom-4" d="M 536.8,709.8 L 401.8,641.8" style="fill:none;fill-rule:evenodd;stroke:#000000;stroke-width:2.0px;stroke-linecap:butt;stroke-linejoin:miter;stroke-opacity:1"/>
<path class="bond-4 atom-4 atom-5" d="M 401.8,641.8 L 344.5,679.5" style="fill:none;fill-rule:evenodd;stroke:#000000;stroke-width:2.0px;stroke-linecap:butt;stroke-linejoin:miter;stroke-opacity:1"/>
<path class="bond-4 atom-4 atom-5" d="M 344.5,679.5 L 287.2,717.1" style="fill:none;fill-rule:evenodd;stroke:#191919;stroke-width:2.0px;stroke-linecap:butt;stroke-linejoin:miter;stroke-opacity:1"/>
<path class="bond-5 atom-4 atom-6" d="M 413.5,647.7 L 409.6,578.9" style="fill:none;fill-rule:evenodd;stroke:#000000;stroke-width:2.0px;stroke-linecap:butt;stroke-linejoin:miter;stroke-opacity:1"/>
<path class="bond-5 atom-4 atom-6" d="M 409.6,578.9 L 405.6,510.1" style="fill:none;fill-rule:evenodd;stroke:#FF0000;stroke-width:2.0px;stroke-linecap:butt;stroke-linejoin:miter;stroke-opacity:1"/>
<path class="bond-5 atom-4 atom-6" d="M 390.9,649.0 L 386.9,580.2" style="fill:none;fill-rule:evenodd;stroke:#000000;stroke-width:2.0px;stroke-linecap:butt;stroke-linejoin:miter;stroke-opacity:1"/>
<path class="bond-5 atom-4 atom-6" d="M 386.9,580.2 L 383.0,511.4" style="fill:none;fill-rule:evenodd;stroke:#FF0000;stroke-width:2.0px;stroke-linecap:butt;stroke-linejoin:miter;stroke-opacity:1"/>
<path d="M 666.1,628.3 L 663.2,626.8 L 656.8,630.9" style="fill:none;stroke:#000000;stroke-width:2.0px;stroke-linecap:butt;stroke-linejoin:miter;stroke-opacity:1;"/>
<path d="M 543.2,705.6 L 536.8,709.8 L 530.1,706.4" style="fill:none;stroke:#000000;stroke-width:2.0px;stroke-linecap:butt;stroke-linejoin:miter;stroke-opacity:1;"/>
<path d="M 408.6,645.2 L 401.8,641.8 L 399.0,643.7" style="fill:none;stroke:#000000;stroke-width:2.0px;stroke-linecap:butt;stroke-linejoin:miter;stroke-opacity:1;"/>
<path class="atom-0" d="M 919.1 608.6 L 923.3 604.4 L 917.8 603.2 L 918.6 600.4 L 923.7 603.0 L 923.0 597.4 L 926.0 597.4 L 925.1 602.9 L 930.3 600.5 L 931.2 603.2 L 925.6 604.3 L 929.6 608.6 L 927.1 610.3 L 924.4 605.0 L 921.6 610.3 L 919.1 608.6 " fill="#191919"/>
<path class="atom-1" d="M 785.2 694.8 Q 785.2 688.0, 788.5 684.2 Q 791.9 680.4, 798.2 680.4 Q 804.4 680.4, 807.8 684.2 Q 811.2 688.0, 811.2 694.8 Q 811.2 701.7, 807.8 705.6 Q 804.4 709.5, 798.2 709.5 Q 791.9 709.5, 788.5 705.6 Q 785.2 701.7, 785.2 694.8 M 798.2 706.3 Q 802.5 706.3, 804.8 703.4 Q 807.2 700.5, 807.2 694.8 Q 807.2 689.2, 804.8 686.4 Q 802.5 683.6, 798.2 683.6 Q 793.8 683.6, 791.5 686.4 Q 789.2 689.2, 789.2 694.8 Q 789.2 700.5, 791.5 703.4 Q 793.8 706.3, 798.2 706.3 " fill="#FF0000"/>
<path class="atom-5" d="M 270.2 721.6 L 274.3 717.4 L 268.8 716.3 L 269.7 713.4 L 274.7 716.0 L 274.0 710.4 L 277.0 710.4 L 276.2 716.0 L 281.3 713.6 L 282.2 716.3 L 276.6 717.3 L 280.6 721.6 L 278.2 723.4 L 275.4 718.1 L 272.6 723.4 L 270.2 721.6 " fill="#191919"/>
<path class="atom-6" d="M 380.2 491.0 Q 380.2 484.2, 383.5 480.4 Q 386.9 476.6, 393.2 476.6 Q 399.4 476.6, 402.8 480.4 Q 406.2 484.2, 406.2 491.0 Q 406.2 497.9, 402.8 501.8 Q 399.4 505.7, 393.2 505.7 Q 386.9 505.7, 383.5 501.8 Q 380.2 498.0, 380.2 491.0 M 393.2 502.5 Q 397.5 502.5, 399.8 499.6 Q 402.2 496.7, 402.2 491.0 Q 402.2 485.5, 399.8 482.7 Q 397.5 479.8, 393.2 479.8 Q 388.8 479.8, 386.5 482.6 Q 384.2 485.4, 384.2 491.0 Q 384.2 496.8, 386.5 499.6 Q 388.8 502.5, 393.2 502.5 " fill="#FF0000"/>
</svg>