<svg xmlns="http://www.w3.org/2000/svg" xmlns:rdkit="http://www.rdkit.org/xml" xmlns:xlink="http://www.w3.org/1999/xlink" version="1.1" baseProfile="full" xml:space="preserve" width="1200px" height="800px" viewBox="0 0 1200 800">
<!-- END OF HEADER -->
<rect style="opacity:1.0;fill:#FFFFFF;stroke:none" width="1200.0" height="800.0" x="0.0" y="0.0"> </rect>
<path class="bond-0 atom-0 atom-1" d="M 79.0,285.1 L 126.8,257.5" style="fill:none;fill-rule:evenodd;stroke:#191919;stroke-width:2.0px;stroke-linecap:butt;stroke-linejoin:miter;stroke-opacity:1"/>
<path class="bond-0 atom-0 atom-1" d="M 126.8,257.5 L 174.6,229.9" style="fill:none;fill-rule:evenodd;stroke:#000000;stroke-width:2.0px;stroke-linecap:butt;stroke-linejoin:miter;stroke-opacity:1"/>
<path class="bond-1 atom-1 atom-2" d="M 174.6,229.9 L 280.9,291.3" style="fill:none;fill-rule:evenodd;stroke:#000000;stroke-width:2.0px;stroke-linecap:butt;stroke-linejoin:miter;stroke-opacity:1"/>
<path class="bond-1 atom-1 atom-2" d="M 174.6,251.2 L 271.7,307.2" style="fill:none;fill-rule:evenodd;stroke:#000000;stroke-width:2.0px;stroke-linecap:butt;stroke-linejoin:miter;stroke-opacity:1"/>
<path class="bond-2 atom-2 atom-3" d="M 280.9,291.3 L 387.3,229.9" style="fill:none;fill-rule:evenodd;stroke:#000000;stroke-width:2.0px;stroke-linecap:butt;stroke-linejoin:miter;stroke-opacity:1"/>
<path class="bond-3 atom-3 atom-4" d="M 387.3,229.9 L 431.9,255.7" style="fill:none;fill-rule:evenodd;stroke:#000000;stroke-width:2.0px;stroke-linecap:butt;stroke-linejoin:miter;stroke-opacity:1"/>
<path class="bond-3 atom-3 atom-4" d="M 431.9,255.7 L 476.6,281.4" style="fill:none;fill-rule:evenodd;stroke:#FF0000;stroke-width:2.0px;stroke-linecap:butt;stroke-linejoin:miter;stroke-opacity:1"/>
<path class="bond-4 atom-4 atom-5" d="M 510.7,281.4 L 555.3,255.7" style="fill:none;fill-rule:evenodd;stroke:#FF0000;stroke-width:2.0px;stroke-linecap:butt;stroke-linejoin:miter;stroke-opacity:1"/>
<path class="bond-4 atom-4 atom-5" d="M 555.3,255.7 L 600.0,229.9" style="fill:none;fill-rule:evenodd;stroke:#000000;stroke-width:2.0px;stroke-linecap:butt;stroke-linejoin:miter;stroke-opacity:1"/>
<path class="bond-5 atom-5 atom-6" d="M 609.2,235.2 L 609.2,180.5" style="fill:none;fill-rule:evenodd;stroke:#000000;stroke-width:2.0px;stroke-linecap:butt;stroke-linejoin:miter;stroke-opacity:1"/>
<path class="bond-5 atom-5 atom-6" d="M 609.2,180.5 L 609.2,125.9" style="fill:none;fill-rule:evenodd;stroke:#FF0000;stroke-width:2.0px;stroke-linecap:butt;stroke-linejoin:miter;stroke-opacity:1"/>
<path class="bond-5 atom-5 atom-6" d="M 590.8,235.2 L 590.8,180.5" style="fill:none;fill-rule:evenodd;stroke:#000000;stroke-width:2.0px;stroke-linecap:butt;stroke-linejoin:miter;stroke-opacity:1"/>
<path class="bond-5 atom-5 atom-6" d="M 590.8,180.5 L 590.8,125.9" style="fill:none;fill-rule:evenodd;stroke:#FF0000;stroke-width:2.0px;stroke-linecap:butt;stroke-linejoin:miter;stroke-opacity:1"/>
<path class="bond-6 atom-5 atom-7" d="M 600.0,229.9 L 644.7,255.7" style="fill:none;fill-rule:evenodd;stroke:#000000;stroke-width:2.0px;stroke-linecap:butt;stroke-linejoin:miter;stroke-opacity:1"/>
<path class="bond-6 atom-5 atom-7" d="M 644.7,255.7 L 689.3,281.4" style="fill:none;fill-rule:evenodd;stroke:#FF0000;stroke-width:2.0px;stroke-linecap:butt;stroke-linejoin:miter;stroke-opacity:1"/>
<path class="bond-7 atom-7 atom-8" d="M 723.4,281.4 L 768.1,255.7" style="fill:none;fill-rule:evenodd;stroke:#FF0000;stroke-width:2.0px;stroke-linecap:butt;stroke-linejoin:miter;stroke-opacity:1"/>
<path class="bond-7 atom-7 atom-8" d="M 768.1,255.7 L 812.7,229.9" style="fill:none;fill-rule:evenodd;stroke:#000000;stroke-width:2.0px;stroke-linecap:butt;stroke-linejoin:miter;stroke-opacity:1"/>
<path class="bond-8 atom-8 atom-9" d="M 812.7,229.9 L 919.1,291.3" style="fill:none;fill-rule:evenodd;stroke:#000000;stroke-width:2.0px;stroke-linecap:butt;stroke-linejoin:miter;stroke-opacity:1"/>
<path class="bond-9 atom-9 atom-10" d="M 919.1,291.3 L 1025.4,229.9" style="fill:none;fill-rule:evenodd;stroke:#000000;stroke-width:2.0px;stroke-linecap:butt;stroke-linejoin:miter;stroke-opacity:1"/>
<path class="bond-9 atom-9 atom-10" d="M 919.1,270.0 L 1016.2,213.9" style="fill:none;fill-rule:evenodd;stroke:#000000;stroke-width:2.0px;stroke-linecap:butt;stroke-linejoin:miter;stroke-opacity:1"/>
<path class="bond-10 atom-10 atom-11" d="M 1025.4,229.9 L 1073.2,257.5" style="fill:none;fill-rule:evenodd;stroke:#000000;stroke-width:2.0px;stroke-linecap:butt;stroke-linejoin:miter;stroke-opacity:1"/>
<path class="bond-10 atom-10 atom-11" d="M 1073.2,257.5 L 1121.0,285.1" style="fill:none;fill-rule:evenodd;stroke:#191919;stroke-width:2.0px;stroke-linecap:butt;stroke-linejoin:miter;stroke-opacity:1"/>
<path d="M 172.2,231.3 L 174.6,229.9 L 179.9,233.0" style="fill:none;stroke:#000000;stroke-width:2.0px;stroke-linecap:butt;stroke-linejoin:miter;stroke-opacity:1;"/>
<path d="M 275.6,288.2 L 280.9,291.3 L 286.3,288.2" style="fill:none;stroke:#000000;stroke-width:2.0px;stroke-linecap:butt;stroke-linejoin:miter;stroke-opacity:1;"/>
<path d="M 382.0,233.0 L 387.3,229.9 L 389.5,231.2" style="fill:none;stroke:#000000;stroke-width:2.0px;stroke-linecap:butt;stroke-linejoin:miter;stroke-opacity:1;"/>
<path d="M 597.8,231.2 L 600.0,229.9 L 602.2,231.2" style="fill:none;stroke:#000000;stroke-width:2.0px;stroke-linecap:butt;stroke-linejoin:miter;stroke-opacity:1;"/>
<path d="M 810.5,231.2 L 812.7,229.9 L 818.0,233.0" style="fill:none;stroke:#000000;stroke-width:2.0px;stroke-linecap:butt;stroke-linejoin:miter;stroke-opacity:1;"/>
<path d="M 913.7,288.2 L 919.1,291.3 L 924.4,288.2" style="fill:none;stroke:#000000;stroke-width:2.0px;stroke-linecap:butt;stroke-linejoin:miter;stroke-opacity:1;"/>
<path d="M 1020.1,233.0 L 1025.4,229.9 L 1027.8,231.3" style="fill:none;stroke:#000000;stroke-width:2.0px;stroke-linecap:butt;stroke-linejoin:miter;stroke-opacity:1;"/>
<path class="atom-0" d="M 62.9 288.1 L 67.0 283.9 L 61.5 282.8 L 62.4 279.9 L 67.4 282.5 L 66.7 276.9 L 69.7 276.9 L 68.9 282.4 L 74.0 280.0 L 74.9 282.8 L 69.3 283.8 L 73.3 288.1 L 70.9 289.8 L 68.1 284.6 L 65.3 289.8 L 62.9 288.1 " fill="#191919"/>
<path class="atom-4" d="M 480.6 291.4 Q 480.6 284.6, 484.0 280.8 Q 487.4 277.0, 493.6 277.0 Q 499.9 277.0, 503.3 280.8 Q 506.6 284.6, 506.6 291.4 Q 506.6 298.2, 503.2 302.2 Q 499.8 306.0, 493.6 306.0 Q 487.4 306.0, 484.0 302.2 Q 480.6 298.3, 480.6 291.4 M 493.6 302.8 Q 498.0 302.8, 500.3 300.0 Q 502.6 297.0, 502.6 291.4 Q 502.6 285.8, 500.3 283.0 Q 498.0 280.2, 493.6 280.2 Q 489.3 280.2, 487.0 283.0 Q 484.6 285.8, 484.6 291.4 Q 484.6 297.1, 487.0 300.0 Q 489.3 302.8, 493.6 302.8 " fill="#FF0000"/>
<path class="atom-6" d="M 587.0 107.2 Q 587.0 100.4, 590.4 96.6 Q 593.7 92.8, 600.0 92.8 Q 606.3 92.8, 609.6 96.6 Q 613.0 100.4, 613.0 107.2 Q 613.0 114.0, 609.6 118.0 Q 606.2 121.8, 600.0 121.8 Q 593.8 121.8, 590.4 118.0 Q 587.0 114.1, 587.0 107.2 M 600.0 118.6 Q 604.3 118.6, 606.6 115.8 Q 609.0 112.8, 609.0 107.2 Q 609.0 101.6, 606.6 98.8 Q 604.3 96.0, 600.0 96.0 Q 595.7 96.0, 593.3 98.8 Q 591.0 101.6, 591.0 107.2 Q 591.0 112.9, 593.3 115.8 Q 595.7 118.6, 600.0 118.6 " fill="#FF0000"/>
<path class="atom-7" d="M 693.4 291.4 Q 693.4 284.6, 696.7 280.8 Q 700.1 277.0, 706.4 277.0 Q 712.6 277.0, 716.0 280.8 Q 719.4 284.6, 719.4 291.4 Q 719.4 298.2, 716.0 302.2 Q 712.6 306.0, 706.4 306.0 Q 700.1 306.0, 696.7 302.2 Q 693.4 298.3, 693.4 291.4 M 706.4 302.8 Q 710.7 302.8, 713.0 300.0 Q 715.4 297.0, 715.4 291.4 Q 715.4 285.8, 713.0 283.0 Q 710.7 280.2, 706.4 280.2 Q 702.0 280.2, 699.7 283.0 Q 697.4 285.8, 697.4 291.4 Q 697.4 297.1, 699.7 300.0 Q 702.0 302.8, 706.4 302.8 " fill="#FF0000"/>
<path class="atom-11" d="M 1126.4 288.1 L 1130.6 283.9 L 1125.1 282.8 L 1125.9 279.9 L 1131.0 282.5 L 1130.3 276.9 L 1133.3 276.9 L 1132.4 282.4 L 1137.6 280.0 L 1138.5 282.8 L 1132.9 283.8 L 1136.9 288.1 L 1134.4 289.8 L 1131.7 284.6 L 1128.9 289.8 L 1126.4 288.1 " fill="#191919"/>
<path class="bond-0 atom-0 atom-1" d="M 1020.9,604.4 L 971.1,636.0" style="fill:none;fill-rule:evenodd;stroke:#191919;stroke-width:2.0px;stroke-linecap:butt;stroke-linejoin:miter;stroke-opacity:1"/>
<path class="bond-0 atom-0 atom-1" d="M 971.1,636.0 L 921.3,667.5" style="fill:none;fill-rule:evenodd;stroke:#000000;stroke-width:2.0px;stroke-linecap:butt;stroke-linejoin:miter;stroke-opacity:1"/>
<path class="bond-1 atom-1 atom-2" d="M 921.3,667.5 L 812.5,610.6" style="fill:none;fill-rule:evenodd;stroke:#000000;stroke-width:2.0px;stroke-linecap:butt;stroke-linejoin:miter;stroke-opacity:1"/>
<path class="bond-2 atom-2 atom-3" d="M 812.5,610.6 L 708.8,676.4" style="fill:none;fill-rule:evenodd;stroke:#000000;stroke-width:2.0px;stroke-linecap:butt;stroke-linejoin:miter;stroke-opacity:1"/>
<path class="bond-3 atom-3 atom-4" d="M 708.8,676.4 L 600.0,619.4" style="fill:none;fill-rule:evenodd;stroke:#000000;stroke-width:2.0px;stroke-linecap:butt;stroke-linejoin:miter;stroke-opacity:1"/>
<path class="bond-4 atom-4 atom-5" d="M 600.0,619.4 L 496.3,685.2" style="fill:none;fill-rule:evenodd;stroke:#000000;stroke-width:2.0px;stroke-linecap:butt;stroke-linejoin:miter;stroke-opacity:1"/>
<path class="bond-5 atom-5 atom-6" d="M 496.3,685.2 L 387.5,628.2" style="fill:none;fill-rule:evenodd;stroke:#000000;stroke-width:2.0px;stroke-linecap:butt;stroke-linejoin:miter;stroke-opacity:1"/>
<path class="bond-6 atom-6 atom-7" d="M 396.9,633.2 L 394.6,578.6" style="fill:none;fill-rule:evenodd;stroke:#000000;stroke-width:2.0px;stroke-linecap:butt;stroke-linejoin:miter;stroke-opacity:1"/>
<path class="bond-6 atom-6 atom-7" d="M 394.6,578.6 L 392.4,524.0" style="fill:none;fill-rule:evenodd;stroke:#FF0000;stroke-width:2.0px;stroke-linecap:butt;stroke-linejoin:miter;stroke-opacity:1"/>
<path class="bond-6 atom-6 atom-7" d="M 378.5,633.9 L 376.2,579.3" style="fill:none;fill-rule:evenodd;stroke:#000000;stroke-width:2.0px;stroke-linecap:butt;stroke-linejoin:miter;stroke-opacity:1"/>
<path class="bond-6 atom-6 atom-7" d="M 376.2,579.3 L 374.0,524.7" style="fill:none;fill-rule:evenodd;stroke:#FF0000;stroke-width:2.0px;stroke-linecap:butt;stroke-linejoin:miter;stroke-opacity:1"/>
<path class="bond-7 atom-6 atom-8" d="M 387.5,628.2 L 344.1,655.7" style="fill:none;fill-rule:evenodd;stroke:#000000;stroke-width:2.0px;stroke-linecap:butt;stroke-linejoin:miter;stroke-opacity:1"/>
<path class="bond-7 atom-6 atom-8" d="M 344.1,655.7 L 300.8,683.2" style="fill:none;fill-rule:evenodd;stroke:#FF0000;stroke-width:2.0px;stroke-linecap:butt;stroke-linejoin:miter;stroke-opacity:1"/>
<path class="bond-8 atom-8 atom-9" d="M 266.7,685.1 L 223.3,662.4" style="fill:none;fill-rule:evenodd;stroke:#FF0000;stroke-width:2.0px;stroke-linecap:butt;stroke-linejoin:miter;stroke-opacity:1"/>
<path class="bond-8 atom-8 atom-9" d="M 223.3,662.4 L 179.9,639.7" style="fill:none;fill-rule:evenodd;stroke:#191919;stroke-width:2.0px;stroke-linecap:butt;stroke-linejoin:miter;stroke-opacity:1"/>
<path d="M 923.8,666.0 L 921.3,667.5 L 915.9,664.7" style="fill:none;stroke:#000000;stroke-width:2.0px;stroke-linecap:butt;stroke-linejoin:miter;stroke-opacity:1;"/>
<path d="M 818.0,613.4 L 812.5,610.6 L 807.3,613.9" style="fill:none;stroke:#000000;stroke-width:2.0px;stroke-linecap:butt;stroke-linejoin:miter;stroke-opacity:1;"/>
<path d="M 714.0,673.1 L 708.8,676.4 L 703.4,673.5" style="fill:none;stroke:#000000;stroke-width:2.0px;stroke-linecap:butt;stroke-linejoin:miter;stroke-opacity:1;"/>
<path d="M 605.4,622.3 L 600.0,619.4 L 594.8,622.7" style="fill:none;stroke:#000000;stroke-width:2.0px;stroke-linecap:butt;stroke-linejoin:miter;stroke-opacity:1;"/>
<path d="M 501.5,681.9 L 496.3,685.2 L 490.8,682.3" style="fill:none;stroke:#000000;stroke-width:2.0px;stroke-linecap:butt;stroke-linejoin:miter;stroke-opacity:1;"/>
<path d="M 392.9,631.1 L 387.5,628.2 L 385.3,629.6" style="fill:none;stroke:#000000;stroke-width:2.0px;stroke-linecap:butt;stroke-linejoin:miter;stroke-opacity:1;"/>
<path class="atom-0" d="M 1019.7 598.6 L 1023.9 594.4 L 1018.4 593.3 L 1019.2 590.4 L 1024.3 593.0 L 1023.6 587.4 L 1026.6 587.4 L 1025.7 592.9 L 1030.9 590.5 L 1031.8 593.3 L 1026.2 594.3 L 1030.2 598.6 L 1027.7 600.3 L 1025.0 595.1 L 1022.2 600.3 L 1019.7 598.6 " fill="#191919"/>
<path class="atom-7" d="M 369.4 505.6 Q 369.4 498.8, 372.7 495.0 Q 376.1 491.2, 382.4 491.2 Q 388.7 491.2, 392.0 495.0 Q 395.4 498.8, 395.4 505.6 Q 395.4 512.5, 392.0 516.4 Q 388.6 520.3, 382.4 520.3 Q 376.1 520.3, 372.7 516.4 Q 369.4 512.5, 369.4 505.6 M 382.4 517.1 Q 386.7 517.1, 389.0 514.2 Q 391.4 511.3, 391.4 505.6 Q 391.4 500.1, 389.0 497.3 Q 386.7 494.4, 382.4 494.4 Q 378.1 494.4, 375.7 497.2 Q 373.4 500.0, 373.4 505.6 Q 373.4 511.3, 375.7 514.2 Q 378.1 517.1, 382.4 517.1 " fill="#FF0000"/>
<path class="atom-8" d="M 270.8 694.1 Q 270.8 687.3, 274.1 683.5 Q 277.5 679.7, 283.8 679.7 Q 290.0 679.7, 293.4 683.5 Q 296.8 687.3, 296.8 694.1 Q 296.8 701.0, 293.4 704.9 Q 290.0 708.8, 283.8 708.8 Q 277.5 708.8, 274.1 704.9 Q 270.8 701.0, 270.8 694.1 M 283.8 705.6 Q 288.1 705.6, 290.4 702.7 Q 292.8 699.8, 292.8 694.1 Q 292.8 688.5, 290.4 685.7 Q 288.1 682.9, 283.8 682.9 Q 279.4 682.9, 277.1 685.7 Q 274.8 688.5, 274.8 694.1 Q 274.8 699.8, 277.1 702.7 Q 279.4 705.6, 283.8 705.6 " fill="#FF0000"/>
<path class="atom-9" d="M 169.6 633.9 L 173.8 629.7 L 168.2 628.6 L 169.1 625.7 L 174.2 628.3 L 173.4 622.7 L 176.4 622.7 L 175.6 628.2 L 180.8 625.8 L 181.6 628.6 L 176.0 629.6 L 180.0 633.9 L 177.6 635.6 L 174.8 630.4 L 172.0 635.6 L 169.6 633.9 " fill="#191919"/>
</svg>