<svg xmlns="http://www.w3.org/2000/svg" xmlns:rdkit="http://www.rdkit.org/xml" xmlns:xlink="http://www.w3.org/1999/xlink" version="1.1" baseProfile="full" xml:space="preserve" width="1200px" height="800px" viewBox="0 0 1200 800">
<!-- END OF HEADER -->
<rect style="opacity:1.0;fill:#FFFFFF;stroke:none" width="1200.0" height="800.0" x="0.0" y="0.0"> </rect>
<path class="bond-0 atom-0 atom-1" d="M 1131.9,173.2 L 1097.8,193.5" style="fill:none;fill-rule:evenodd;stroke:#191919;stroke-width:2.0px;stroke-linecap:butt;stroke-linejoin:miter;stroke-opacity:1"/>
<path class="bond-0 atom-0 atom-1" d="M 1097.8,193.5 L 1063.8,213.8" style="fill:none;fill-rule:evenodd;stroke:#000000;stroke-width:2.0px;stroke-linecap:butt;stroke-linejoin:miter;stroke-opacity:1"/>
<path class="bond-1 atom-1 atom-2" d="M 1063.8,213.8 L 991.9,173.7" style="fill:none;fill-rule:evenodd;stroke:#000000;stroke-width:2.0px;stroke-linecap:butt;stroke-linejoin:miter;stroke-opacity:1"/>
<path class="bond-1 atom-1 atom-2" d="M 1063.6,199.6 L 997.9,162.9" style="fill:none;fill-rule:evenodd;stroke:#000000;stroke-width:2.0px;stroke-linecap:butt;stroke-linejoin:miter;stroke-opacity:1"/>
<path class="bond-2 atom-2 atom-3" d="M 991.9,173.7 L 921.2,215.9" style="fill:none;fill-rule:evenodd;stroke:#000000;stroke-width:2.0px;stroke-linecap:butt;stroke-linejoin:miter;stroke-opacity:1"/>
<path class="bond-3 atom-3 atom-4" d="M 921.2,215.9 L 891.9,199.5" style="fill:none;fill-rule:evenodd;stroke:#000000;stroke-width:2.0px;stroke-linecap:butt;stroke-linejoin:miter;stroke-opacity:1"/>
<path class="bond-3 atom-3 atom-4" d="M 891.9,199.5 L 862.7,183.2" style="fill:none;fill-rule:evenodd;stroke:#FF0000;stroke-width:2.0px;stroke-linecap:butt;stroke-linejoin:miter;stroke-opacity:1"/>
<path class="bond-4 atom-4 atom-5" d="M 835.8,183.7 L 807.2,200.8" style="fill:none;fill-rule:evenodd;stroke:#FF0000;stroke-width:2.0px;stroke-linecap:butt;stroke-linejoin:miter;stroke-opacity:1"/>
<path class="bond-4 atom-4 atom-5" d="M 807.2,200.8 L 778.5,217.9" style="fill:none;fill-rule:evenodd;stroke:#000000;stroke-width:2.0px;stroke-linecap:butt;stroke-linejoin:miter;stroke-opacity:1"/>
<path class="bond-5 atom-5 atom-6" d="M 772.3,214.4 L 772.8,250.1" style="fill:none;fill-rule:evenodd;stroke:#000000;stroke-width:2.0px;stroke-linecap:butt;stroke-linejoin:miter;stroke-opacity:1"/>
<path class="bond-5 atom-5 atom-6" d="M 772.8,250.1 L 773.3,285.8" style="fill:none;fill-rule:evenodd;stroke:#FF0000;stroke-width:2.0px;stroke-linecap:butt;stroke-linejoin:miter;stroke-opacity:1"/>
<path class="bond-5 atom-5 atom-6" d="M 784.7,214.2 L 785.2,249.9" style="fill:none;fill-rule:evenodd;stroke:#000000;stroke-width:2.0px;stroke-linecap:butt;stroke-linejoin:miter;stroke-opacity:1"/>
<path class="bond-5 atom-5 atom-6" d="M 785.2,249.9 L 785.7,285.6" style="fill:none;fill-rule:evenodd;stroke:#FF0000;stroke-width:2.0px;stroke-linecap:butt;stroke-linejoin:miter;stroke-opacity:1"/>
<path class="bond-6 atom-5 atom-7" d="M 778.5,217.9 L 706.7,177.7" style="fill:none;fill-rule:evenodd;stroke:#000000;stroke-width:2.0px;stroke-linecap:butt;stroke-linejoin:miter;stroke-opacity:1"/>
<path class="bond-7 atom-7 atom-8" d="M 706.7,177.7 L 635.9,219.9" style="fill:none;fill-rule:evenodd;stroke:#000000;stroke-width:2.0px;stroke-linecap:butt;stroke-linejoin:miter;stroke-opacity:1"/>
<path class="bond-8 atom-8 atom-9" d="M 635.9,219.9 L 564.1,179.7" style="fill:none;fill-rule:evenodd;stroke:#000000;stroke-width:2.0px;stroke-linecap:butt;stroke-linejoin:miter;stroke-opacity:1"/>
<path class="bond-9 atom-9 atom-10" d="M 564.1,179.7 L 493.3,221.9" style="fill:none;fill-rule:evenodd;stroke:#000000;stroke-width:2.0px;stroke-linecap:butt;stroke-linejoin:miter;stroke-opacity:1"/>
<path class="bond-10 atom-10 atom-11" d="M 493.3,221.9 L 421.5,181.8" style="fill:none;fill-rule:evenodd;stroke:#000000;stroke-width:2.0px;stroke-linecap:butt;stroke-linejoin:miter;stroke-opacity:1"/>
<path class="bond-11 atom-11 atom-12" d="M 427.7,185.2 L 427.2,149.7" style="fill:none;fill-rule:evenodd;stroke:#000000;stroke-width:2.0px;stroke-linecap:butt;stroke-linejoin:miter;stroke-opacity:1"/>
<path class="bond-11 atom-11 atom-12" d="M 427.2,149.7 L 426.7,114.2" style="fill:none;fill-rule:evenodd;stroke:#FF0000;stroke-width:2.0px;stroke-linecap:butt;stroke-linejoin:miter;stroke-opacity:1"/>
<path class="bond-11 atom-11 atom-12" d="M 415.3,185.4 L 414.8,149.9" style="fill:none;fill-rule:evenodd;stroke:#000000;stroke-width:2.0px;stroke-linecap:butt;stroke-linejoin:miter;stroke-opacity:1"/>
<path class="bond-11 atom-11 atom-12" d="M 414.8,149.9 L 414.3,114.4" style="fill:none;fill-rule:evenodd;stroke:#FF0000;stroke-width:2.0px;stroke-linecap:butt;stroke-linejoin:miter;stroke-opacity:1"/>
<path class="bond-12 atom-11 atom-13" d="M 421.5,181.8 L 392.8,198.8" style="fill:none;fill-rule:evenodd;stroke:#000000;stroke-width:2.0px;stroke-linecap:butt;stroke-linejoin:miter;stroke-opacity:1"/>
<path class="bond-12 atom-11 atom-13" d="M 392.8,198.8 L 364.2,215.9" style="fill:none;fill-rule:evenodd;stroke:#FF0000;stroke-width:2.0px;stroke-linecap:butt;stroke-linejoin:miter;stroke-opacity:1"/>
<path class="bond-13 atom-13 atom-14" d="M 337.3,216.4 L 308.1,200.1" style="fill:none;fill-rule:evenodd;stroke:#FF0000;stroke-width:2.0px;stroke-linecap:butt;stroke-linejoin:miter;stroke-opacity:1"/>
<path class="bond-13 atom-13 atom-14" d="M 308.1,200.1 L 278.8,183.8" style="fill:none;fill-rule:evenodd;stroke:#000000;stroke-width:2.0px;stroke-linecap:butt;stroke-linejoin:miter;stroke-opacity:1"/>
<path class="bond-14 atom-14 atom-15" d="M 278.8,183.8 L 208.1,225.9" style="fill:none;fill-rule:evenodd;stroke:#000000;stroke-width:2.0px;stroke-linecap:butt;stroke-linejoin:miter;stroke-opacity:1"/>
<path class="bond-15 atom-15 atom-16" d="M 208.1,225.9 L 136.2,185.8" style="fill:none;fill-rule:evenodd;stroke:#000000;stroke-width:2.0px;stroke-linecap:butt;stroke-linejoin:miter;stroke-opacity:1"/>
<path class="bond-15 atom-15 atom-16" d="M 207.9,211.7 L 142.3,175.0" style="fill:none;fill-rule:evenodd;stroke:#000000;stroke-width:2.0px;stroke-linecap:butt;stroke-linejoin:miter;stroke-opacity:1"/>
<path class="bond-16 atom-16 atom-17" d="M 136.2,185.8 L 105.0,204.4" style="fill:none;fill-rule:evenodd;stroke:#000000;stroke-width:2.0px;stroke-linecap:butt;stroke-linejoin:miter;stroke-opacity:1"/>
<path class="bond-16 atom-16 atom-17" d="M 105.0,204.4 L 73.8,223.1" style="fill:none;fill-rule:evenodd;stroke:#191919;stroke-width:2.0px;stroke-linecap:butt;stroke-linejoin:miter;stroke-opacity:1"/>
<path d="M 1065.5,212.8 L 1063.8,213.8 L 1060.2,211.8" style="fill:none;stroke:#000000;stroke-width:2.0px;stroke-linecap:butt;stroke-linejoin:miter;stroke-opacity:1;"/>
<path d="M 995.5,175.7 L 991.9,173.7 L 988.3,175.8" style="fill:none;stroke:#000000;stroke-width:2.0px;stroke-linecap:butt;stroke-linejoin:miter;stroke-opacity:1;"/>
<path d="M 924.7,213.8 L 921.2,215.9 L 919.7,215.0" style="fill:none;stroke:#000000;stroke-width:2.0px;stroke-linecap:butt;stroke-linejoin:miter;stroke-opacity:1;"/>
<path d="M 780.0,217.0 L 778.5,217.9 L 775.0,215.9" style="fill:none;stroke:#000000;stroke-width:2.0px;stroke-linecap:butt;stroke-linejoin:miter;stroke-opacity:1;"/>
<path d="M 710.3,179.7 L 706.7,177.7 L 703.1,179.8" style="fill:none;stroke:#000000;stroke-width:2.0px;stroke-linecap:butt;stroke-linejoin:miter;stroke-opacity:1;"/>
<path d="M 639.5,217.8 L 635.9,219.9 L 632.3,217.9" style="fill:none;stroke:#000000;stroke-width:2.0px;stroke-linecap:butt;stroke-linejoin:miter;stroke-opacity:1;"/>
<path d="M 567.7,181.7 L 564.1,179.7 L 560.5,181.8" style="fill:none;stroke:#000000;stroke-width:2.0px;stroke-linecap:butt;stroke-linejoin:miter;stroke-opacity:1;"/>
<path d="M 496.9,219.8 L 493.3,221.9 L 489.7,219.9" style="fill:none;stroke:#000000;stroke-width:2.0px;stroke-linecap:butt;stroke-linejoin:miter;stroke-opacity:1;"/>
<path d="M 425.0,183.8 L 421.5,181.8 L 420.0,182.6" style="fill:none;stroke:#000000;stroke-width:2.0px;stroke-linecap:butt;stroke-linejoin:miter;stroke-opacity:1;"/>
<path d="M 280.3,184.6 L 278.8,183.8 L 275.3,185.9" style="fill:none;stroke:#000000;stroke-width:2.0px;stroke-linecap:butt;stroke-linejoin:miter;stroke-opacity:1;"/>
<path d="M 211.7,223.8 L 208.1,225.9 L 204.5,223.9" style="fill:none;stroke:#000000;stroke-width:2.0px;stroke-linecap:butt;stroke-linejoin:miter;stroke-opacity:1;"/>
<path d="M 139.8,187.8 L 136.2,185.8 L 134.7,186.7" style="fill:none;stroke:#000000;stroke-width:2.0px;stroke-linecap:butt;stroke-linejoin:miter;stroke-opacity:1;"/>
<path class="atom-0" d="M 1130.1 169.1 L 1133.5 165.6 L 1129.0 164.7 L 1129.7 162.3 L 1133.8 164.4 L 1133.2 159.8 L 1135.7 159.8 L 1135.0 164.4 L 1139.3 162.4 L 1140.0 164.7 L 1135.4 165.5 L 1138.7 169.0 L 1136.7 170.5 L 1134.4 166.1 L 1132.1 170.5 L 1130.1 169.1 " fill="#191919"/>
<path class="atom-4" d="M 838.6 175.8 Q 838.6 170.2, 841.3 167.0 Q 844.1 163.9, 849.3 163.9 Q 854.4 163.9, 857.2 167.0 Q 860.0 170.2, 860.0 175.8 Q 860.0 181.4, 857.2 184.7 Q 854.4 187.9, 849.3 187.9 Q 844.1 187.9, 841.3 184.7 Q 838.6 181.5, 838.6 175.8 M 849.3 185.2 Q 852.8 185.2, 854.7 182.9 Q 856.7 180.4, 856.7 175.8 Q 856.7 171.2, 854.7 168.9 Q 852.8 166.6, 849.3 166.6 Q 845.7 166.6, 843.8 168.9 Q 841.9 171.2, 841.9 175.8 Q 841.9 180.5, 843.8 182.9 Q 845.7 185.2, 849.3 185.2 " fill="#FF0000"/>
<path class="atom-6" d="M 769.0 300.3 Q 769.0 294.7, 771.8 291.6 Q 774.5 288.4, 779.7 288.4 Q 784.9 288.4, 787.7 291.6 Q 790.4 294.7, 790.4 300.3 Q 790.4 305.9, 787.6 309.2 Q 784.8 312.4, 779.7 312.4 Q 774.6 312.4, 771.8 309.2 Q 769.0 306.0, 769.0 300.3 M 779.7 309.7 Q 783.3 309.7, 785.2 307.4 Q 787.1 305.0, 787.1 300.3 Q 787.1 295.7, 785.2 293.4 Q 783.3 291.1, 779.7 291.1 Q 776.2 291.1, 774.2 293.4 Q 772.3 295.7, 772.3 300.3 Q 772.3 305.0, 774.2 307.4 Q 776.2 309.7, 779.7 309.7 " fill="#FF0000"/>
<path class="atom-12" d="M 409.6 99.5 Q 409.6 93.9, 412.3 90.8 Q 415.1 87.6, 420.3 87.6 Q 425.5 87.6, 428.2 90.8 Q 431.0 93.9, 431.0 99.5 Q 431.0 105.2, 428.2 108.4 Q 425.4 111.6, 420.3 111.6 Q 415.1 111.6, 412.3 108.4 Q 409.6 105.2, 409.6 99.5 M 420.3 108.9 Q 423.8 108.9, 425.8 106.6 Q 427.7 104.2, 427.7 99.5 Q 427.7 94.9, 425.8 92.6 Q 423.8 90.3, 420.3 90.3 Q 416.7 90.3, 414.8 92.6 Q 412.9 94.9, 412.9 99.5 Q 412.9 104.2, 414.8 106.6 Q 416.7 108.9, 420.3 108.9 " fill="#FF0000"/>
<path class="atom-13" d="M 340.0 224.0 Q 340.0 218.4, 342.8 215.3 Q 345.6 212.1, 350.7 212.1 Q 355.9 212.1, 358.7 215.3 Q 361.4 218.4, 361.4 224.0 Q 361.4 229.7, 358.6 232.9 Q 355.8 236.1, 350.7 236.1 Q 345.6 236.1, 342.8 232.9 Q 340.0 229.7, 340.0 224.0 M 350.7 233.4 Q 354.3 233.4, 356.2 231.1 Q 358.1 228.7, 358.1 224.0 Q 358.1 219.4, 356.2 217.1 Q 354.3 214.8, 350.7 214.8 Q 347.2 214.8, 345.2 217.1 Q 343.3 219.4, 343.3 224.0 Q 343.3 228.7, 345.2 231.1 Q 347.2 233.4, 350.7 233.4 " fill="#FF0000"/>
<path class="atom-17" d="M 61.1 225.4 L 64.5 221.9 L 60.0 220.9 L 60.7 218.6 L 64.9 220.7 L 64.3 216.1 L 66.8 216.1 L 66.1 220.7 L 70.3 218.7 L 71.0 220.9 L 66.4 221.8 L 69.7 225.3 L 67.7 226.8 L 65.4 222.4 L 63.1 226.8 L 61.1 225.4 " fill="#191919"/>
<path class="bond-0 atom-0 atom-1" d="M 882.6,602.7 L 849.0,624.0" style="fill:none;fill-rule:evenodd;stroke:#191919;stroke-width:2.0px;stroke-linecap:butt;stroke-linejoin:miter;stroke-opacity:1"/>
<path class="bond-0 atom-0 atom-1" d="M 849.0,624.0 L 815.5,645.2" style="fill:none;fill-rule:evenodd;stroke:#000000;stroke-width:2.0px;stroke-linecap:butt;stroke-linejoin:miter;stroke-opacity:1"/>
<path class="bond-1 atom-1 atom-2" d="M 815.5,645.2 L 742.5,607.1" style="fill:none;fill-rule:evenodd;stroke:#000000;stroke-width:2.0px;stroke-linecap:butt;stroke-linejoin:miter;stroke-opacity:1"/>
<path class="bond-2 atom-2 atom-3" d="M 742.5,607.1 L 673.0,651.2" style="fill:none;fill-rule:evenodd;stroke:#000000;stroke-width:2.0px;stroke-linecap:butt;stroke-linejoin:miter;stroke-opacity:1"/>
<path class="bond-3 atom-3 atom-4" d="M 673.0,651.2 L 600.0,613.0" style="fill:none;fill-rule:evenodd;stroke:#000000;stroke-width:2.0px;stroke-linecap:butt;stroke-linejoin:miter;stroke-opacity:1"/>
<path class="bond-4 atom-4 atom-5" d="M 600.0,613.0 L 530.5,657.1" style="fill:none;fill-rule:evenodd;stroke:#000000;stroke-width:2.0px;stroke-linecap:butt;stroke-linejoin:miter;stroke-opacity:1"/>
<path class="bond-5 atom-5 atom-6" d="M 530.5,657.1 L 457.5,618.9" style="fill:none;fill-rule:evenodd;stroke:#000000;stroke-width:2.0px;stroke-linecap:butt;stroke-linejoin:miter;stroke-opacity:1"/>
<path class="bond-6 atom-6 atom-7" d="M 463.8,622.2 L 462.3,586.7" style="fill:none;fill-rule:evenodd;stroke:#000000;stroke-width:2.0px;stroke-linecap:butt;stroke-linejoin:miter;stroke-opacity:1"/>
<path class="bond-6 atom-6 atom-7" d="M 462.3,586.7 L 460.9,551.3" style="fill:none;fill-rule:evenodd;stroke:#FF0000;stroke-width:2.0px;stroke-linecap:butt;stroke-linejoin:miter;stroke-opacity:1"/>
<path class="bond-6 atom-6 atom-7" d="M 451.5,622.7 L 450.0,587.2" style="fill:none;fill-rule:evenodd;stroke:#000000;stroke-width:2.0px;stroke-linecap:butt;stroke-linejoin:miter;stroke-opacity:1"/>
<path class="bond-6 atom-6 atom-7" d="M 450.0,587.2 L 448.5,551.8" style="fill:none;fill-rule:evenodd;stroke:#FF0000;stroke-width:2.0px;stroke-linecap:butt;stroke-linejoin:miter;stroke-opacity:1"/>
<path class="bond-7 atom-6 atom-8" d="M 457.5,618.9 L 429.4,636.7" style="fill:none;fill-rule:evenodd;stroke:#000000;stroke-width:2.0px;stroke-linecap:butt;stroke-linejoin:miter;stroke-opacity:1"/>
<path class="bond-7 atom-6 atom-8" d="M 429.4,636.7 L 401.4,654.5" style="fill:none;fill-rule:evenodd;stroke:#FF0000;stroke-width:2.0px;stroke-linecap:butt;stroke-linejoin:miter;stroke-opacity:1"/>
<path class="bond-8 atom-8 atom-9" d="M 374.5,656.0 L 346.2,641.2" style="fill:none;fill-rule:evenodd;stroke:#FF0000;stroke-width:2.0px;stroke-linecap:butt;stroke-linejoin:miter;stroke-opacity:1"/>
<path class="bond-8 atom-8 atom-9" d="M 346.2,641.2 L 317.9,626.4" style="fill:none;fill-rule:evenodd;stroke:#191919;stroke-width:2.0px;stroke-linecap:butt;stroke-linejoin:miter;stroke-opacity:1"/>
<path d="M 817.1,644.2 L 815.5,645.2 L 811.8,643.3" style="fill:none;stroke:#000000;stroke-width:2.0px;stroke-linecap:butt;stroke-linejoin:miter;stroke-opacity:1;"/>
<path d="M 746.1,609.0 L 742.5,607.1 L 739.0,609.3" style="fill:none;stroke:#000000;stroke-width:2.0px;stroke-linecap:butt;stroke-linejoin:miter;stroke-opacity:1;"/>
<path d="M 676.4,649.0 L 673.0,651.2 L 669.3,649.3" style="fill:none;stroke:#000000;stroke-width:2.0px;stroke-linecap:butt;stroke-linejoin:miter;stroke-opacity:1;"/>
<path d="M 603.6,614.9 L 600.0,613.0 L 596.5,615.2" style="fill:none;stroke:#000000;stroke-width:2.0px;stroke-linecap:butt;stroke-linejoin:miter;stroke-opacity:1;"/>
<path d="M 533.9,654.9 L 530.5,657.1 L 526.8,655.2" style="fill:none;stroke:#000000;stroke-width:2.0px;stroke-linecap:butt;stroke-linejoin:miter;stroke-opacity:1;"/>
<path d="M 461.1,620.8 L 457.5,618.9 L 456.1,619.8" style="fill:none;stroke:#000000;stroke-width:2.0px;stroke-linecap:butt;stroke-linejoin:miter;stroke-opacity:1;"/>
<path class="atom-0" d="M 880.6 598.6 L 884.0 595.1 L 879.5 594.1 L 880.2 591.8 L 884.4 593.9 L 883.8 589.3 L 886.2 589.3 L 885.5 593.9 L 889.8 591.9 L 890.5 594.1 L 885.9 595.0 L 889.2 598.5 L 887.2 600.0 L 884.9 595.6 L 882.6 600.0 L 880.6 598.6 " fill="#191919"/>
<path class="atom-7" d="M 443.4 536.7 Q 443.4 531.1, 446.1 528.0 Q 448.9 524.8, 454.1 524.8 Q 459.3 524.8, 462.0 528.0 Q 464.8 531.1, 464.8 536.7 Q 464.8 542.4, 462.0 545.6 Q 459.2 548.8, 454.1 548.8 Q 448.9 548.8, 446.1 545.6 Q 443.4 542.4, 443.4 536.7 M 454.1 546.2 Q 457.6 546.2, 459.6 543.8 Q 461.5 541.4, 461.5 536.7 Q 461.5 532.1, 459.6 529.8 Q 457.6 527.5, 454.1 527.5 Q 450.5 527.5, 448.6 529.8 Q 446.7 532.1, 446.7 536.7 Q 446.7 541.4, 448.6 543.8 Q 450.5 546.2, 454.1 546.2 " fill="#FF0000"/>
<path class="atom-8" d="M 377.3 663.1 Q 377.3 657.5, 380.0 654.3 Q 382.8 651.2, 388.0 651.2 Q 393.1 651.2, 395.9 654.3 Q 398.7 657.5, 398.7 663.1 Q 398.7 668.7, 395.9 672.0 Q 393.1 675.2, 388.0 675.2 Q 382.8 675.2, 380.0 672.0 Q 377.3 668.8, 377.3 663.1 M 388.0 672.5 Q 391.5 672.5, 393.4 670.1 Q 395.4 667.7, 395.4 663.1 Q 395.4 658.5, 393.4 656.2 Q 391.5 653.8, 388.0 653.8 Q 384.4 653.8, 382.5 656.2 Q 380.6 658.5, 380.6 663.1 Q 380.6 667.8, 382.5 670.1 Q 384.4 672.5, 388.0 672.5 " fill="#FF0000"/>
<path class="atom-9" d="M 310.6 622.2 L 314.0 618.7 L 309.5 617.8 L 310.2 615.5 L 314.4 617.6 L 313.8 613.0 L 316.2 613.0 L 315.5 617.5 L 319.8 615.6 L 320.5 617.8 L 315.9 618.7 L 319.2 622.2 L 317.2 623.6 L 314.9 619.3 L 312.6 623.6 L 310.6 622.2 " fill="#191919"/>
</svg>