<svg xmlns="http://www.w3.org/2000/svg" xmlns:rdkit="http://www.rdkit.org/xml" xmlns:xlink="http://www.w3.org/1999/xlink" version="1.1" baseProfile="full" xml:space="preserve" width="1200px" height="800px" viewBox="0 0 1200 800">
<!-- END OF HEADER -->
<rect style="opacity:1.0;fill:#FFFFFF;stroke:none" width="1200.0" height="800.0" x="0.0" y="0.0"> </rect>
<path class="bond-0 atom-0 atom-1" d="M 337.3,270.4 L 364.5,275.9" style="fill:none;fill-rule:evenodd;stroke:#191919;stroke-width:2.0px;stroke-linecap:butt;stroke-linejoin:miter;stroke-opacity:1"/>
<path class="bond-0 atom-0 atom-1" d="M 364.5,275.9 L 391.7,281.3" style="fill:none;fill-rule:evenodd;stroke:#000000;stroke-width:2.0px;stroke-linecap:butt;stroke-linejoin:miter;stroke-opacity:1"/>
<path class="bond-1 atom-1 atom-2" d="M 391.7,281.3 L 432.1,235.2" style="fill:none;fill-rule:evenodd;stroke:#000000;stroke-width:2.0px;stroke-linecap:butt;stroke-linejoin:miter;stroke-opacity:1"/>
<path class="bond-1 atom-1 atom-2" d="M 388.3,271.2 L 425.2,229.2" style="fill:none;fill-rule:evenodd;stroke:#000000;stroke-width:2.0px;stroke-linecap:butt;stroke-linejoin:miter;stroke-opacity:1"/>
<path class="bond-2 atom-2 atom-3" d="M 432.1,235.2 L 492.2,247.2" style="fill:none;fill-rule:evenodd;stroke:#000000;stroke-width:2.0px;stroke-linecap:butt;stroke-linejoin:miter;stroke-opacity:1"/>
<path class="bond-3 atom-3 atom-4" d="M 492.2,247.2 L 507.6,229.7" style="fill:none;fill-rule:evenodd;stroke:#000000;stroke-width:2.0px;stroke-linecap:butt;stroke-linejoin:miter;stroke-opacity:1"/>
<path class="bond-3 atom-3 atom-4" d="M 507.6,229.7 L 522.9,212.2" style="fill:none;fill-rule:evenodd;stroke:#FF0000;stroke-width:2.0px;stroke-linecap:butt;stroke-linejoin:miter;stroke-opacity:1"/>
<path class="bond-4 atom-4 atom-5" d="M 542.6,203.1 L 567.7,208.1" style="fill:none;fill-rule:evenodd;stroke:#FF0000;stroke-width:2.0px;stroke-linecap:butt;stroke-linejoin:miter;stroke-opacity:1"/>
<path class="bond-4 atom-4 atom-5" d="M 567.7,208.1 L 592.7,213.1" style="fill:none;fill-rule:evenodd;stroke:#000000;stroke-width:2.0px;stroke-linecap:butt;stroke-linejoin:miter;stroke-opacity:1"/>
<path class="bond-5 atom-5 atom-6" d="M 587.5,212.1 L 596.0,236.9" style="fill:none;fill-rule:evenodd;stroke:#000000;stroke-width:2.0px;stroke-linecap:butt;stroke-linejoin:miter;stroke-opacity:1"/>
<path class="bond-5 atom-5 atom-6" d="M 596.0,236.9 L 604.4,261.8" style="fill:none;fill-rule:evenodd;stroke:#FF0000;stroke-width:2.0px;stroke-linecap:butt;stroke-linejoin:miter;stroke-opacity:1"/>
<path class="bond-5 atom-5 atom-6" d="M 596.2,209.1 L 604.7,234.0" style="fill:none;fill-rule:evenodd;stroke:#000000;stroke-width:2.0px;stroke-linecap:butt;stroke-linejoin:miter;stroke-opacity:1"/>
<path class="bond-5 atom-5 atom-6" d="M 604.7,234.0 L 613.1,258.9" style="fill:none;fill-rule:evenodd;stroke:#FF0000;stroke-width:2.0px;stroke-linecap:butt;stroke-linejoin:miter;stroke-opacity:1"/>
<path class="bond-6 atom-5 atom-7" d="M 592.7,213.1 L 633.2,167.0" style="fill:none;fill-rule:evenodd;stroke:#000000;stroke-width:2.0px;stroke-linecap:butt;stroke-linejoin:miter;stroke-opacity:1"/>
<path class="bond-7 atom-7 atom-8" d="M 633.2,167.0 L 613.5,109.0" style="fill:none;fill-rule:evenodd;stroke:#000000;stroke-width:2.0px;stroke-linecap:butt;stroke-linejoin:miter;stroke-opacity:1"/>
<path class="bond-7 atom-7 atom-8" d="M 640.2,159.0 L 623.9,111.1" style="fill:none;fill-rule:evenodd;stroke:#000000;stroke-width:2.0px;stroke-linecap:butt;stroke-linejoin:miter;stroke-opacity:1"/>
<path class="bond-8 atom-8 atom-9" d="M 613.5,109.0 L 653.9,62.9" style="fill:none;fill-rule:evenodd;stroke:#000000;stroke-width:2.0px;stroke-linecap:butt;stroke-linejoin:miter;stroke-opacity:1"/>
<path class="bond-9 atom-9 atom-10" d="M 653.9,62.9 L 714.0,74.9" style="fill:none;fill-rule:evenodd;stroke:#000000;stroke-width:2.0px;stroke-linecap:butt;stroke-linejoin:miter;stroke-opacity:1"/>
<path class="bond-9 atom-9 atom-10" d="M 657.3,73.0 L 707.0,82.9" style="fill:none;fill-rule:evenodd;stroke:#000000;stroke-width:2.0px;stroke-linecap:butt;stroke-linejoin:miter;stroke-opacity:1"/>
<path class="bond-10 atom-10 atom-11" d="M 714.0,74.9 L 733.7,52.4" style="fill:none;fill-rule:evenodd;stroke:#000000;stroke-width:2.0px;stroke-linecap:butt;stroke-linejoin:miter;stroke-opacity:1"/>
<path class="bond-10 atom-10 atom-11" d="M 733.7,52.4 L 753.4,30.0" style="fill:none;fill-rule:evenodd;stroke:#191919;stroke-width:2.0px;stroke-linecap:butt;stroke-linejoin:miter;stroke-opacity:1"/>
<path class="bond-11 atom-10 atom-12" d="M 714.0,74.9 L 733.7,132.9" style="fill:none;fill-rule:evenodd;stroke:#000000;stroke-width:2.0px;stroke-linecap:butt;stroke-linejoin:miter;stroke-opacity:1"/>
<path class="bond-12 atom-12 atom-13" d="M 733.7,132.9 L 693.3,179.0" style="fill:none;fill-rule:evenodd;stroke:#000000;stroke-width:2.0px;stroke-linecap:butt;stroke-linejoin:miter;stroke-opacity:1"/>
<path class="bond-12 atom-12 atom-13" d="M 723.3,130.9 L 689.8,168.9" style="fill:none;fill-rule:evenodd;stroke:#000000;stroke-width:2.0px;stroke-linecap:butt;stroke-linejoin:miter;stroke-opacity:1"/>
<path class="bond-13 atom-13 atom-14" d="M 693.3,179.0 L 712.9,237.0" style="fill:none;fill-rule:evenodd;stroke:#000000;stroke-width:2.0px;stroke-linecap:butt;stroke-linejoin:miter;stroke-opacity:1"/>
<path class="bond-14 atom-14 atom-15" d="M 711.2,232.0 L 694.9,250.6" style="fill:none;fill-rule:evenodd;stroke:#000000;stroke-width:2.0px;stroke-linecap:butt;stroke-linejoin:miter;stroke-opacity:1"/>
<path class="bond-14 atom-14 atom-15" d="M 694.9,250.6 L 678.5,269.3" style="fill:none;fill-rule:evenodd;stroke:#FF0000;stroke-width:2.0px;stroke-linecap:butt;stroke-linejoin:miter;stroke-opacity:1"/>
<path class="bond-14 atom-14 atom-15" d="M 718.1,238.1 L 701.8,256.7" style="fill:none;fill-rule:evenodd;stroke:#000000;stroke-width:2.0px;stroke-linecap:butt;stroke-linejoin:miter;stroke-opacity:1"/>
<path class="bond-14 atom-14 atom-15" d="M 701.8,256.7 L 685.5,275.3" style="fill:none;fill-rule:evenodd;stroke:#FF0000;stroke-width:2.0px;stroke-linecap:butt;stroke-linejoin:miter;stroke-opacity:1"/>
<path class="bond-15 atom-14 atom-16" d="M 712.9,237.0 L 738.0,242.0" style="fill:none;fill-rule:evenodd;stroke:#000000;stroke-width:2.0px;stroke-linecap:butt;stroke-linejoin:miter;stroke-opacity:1"/>
<path class="bond-15 atom-14 atom-16" d="M 738.0,242.0 L 763.1,247.0" style="fill:none;fill-rule:evenodd;stroke:#FF0000;stroke-width:2.0px;stroke-linecap:butt;stroke-linejoin:miter;stroke-opacity:1"/>
<path class="bond-16 atom-16 atom-17" d="M 776.8,260.1 L 784.8,283.6" style="fill:none;fill-rule:evenodd;stroke:#FF0000;stroke-width:2.0px;stroke-linecap:butt;stroke-linejoin:miter;stroke-opacity:1"/>
<path class="bond-16 atom-16 atom-17" d="M 784.8,283.6 L 792.7,307.0" style="fill:none;fill-rule:evenodd;stroke:#000000;stroke-width:2.0px;stroke-linecap:butt;stroke-linejoin:miter;stroke-opacity:1"/>
<path class="bond-17 atom-17 atom-18" d="M 792.7,307.0 L 852.8,319.0" style="fill:none;fill-rule:evenodd;stroke:#000000;stroke-width:2.0px;stroke-linecap:butt;stroke-linejoin:miter;stroke-opacity:1"/>
<path class="bond-18 atom-18 atom-19" d="M 852.8,319.0 L 872.5,377.0" style="fill:none;fill-rule:evenodd;stroke:#000000;stroke-width:2.0px;stroke-linecap:butt;stroke-linejoin:miter;stroke-opacity:1"/>
<path class="bond-18 atom-18 atom-19" d="M 845.8,327.0 L 863.8,380.0" style="fill:none;fill-rule:evenodd;stroke:#000000;stroke-width:2.0px;stroke-linecap:butt;stroke-linejoin:miter;stroke-opacity:1"/>
<path class="bond-19 atom-13 atom-7" d="M 693.3,179.0 L 633.2,167.0" style="fill:none;fill-rule:evenodd;stroke:#000000;stroke-width:2.0px;stroke-linecap:butt;stroke-linejoin:miter;stroke-opacity:1"/>
<path d="M 390.3,281.0 L 391.7,281.3 L 393.7,279.0" style="fill:none;stroke:#000000;stroke-width:2.0px;stroke-linecap:butt;stroke-linejoin:miter;stroke-opacity:1;"/>
<path d="M 430.1,237.5 L 432.1,235.2 L 435.1,235.8" style="fill:none;stroke:#000000;stroke-width:2.0px;stroke-linecap:butt;stroke-linejoin:miter;stroke-opacity:1;"/>
<path d="M 489.2,246.6 L 492.2,247.2 L 493.0,246.3" style="fill:none;stroke:#000000;stroke-width:2.0px;stroke-linecap:butt;stroke-linejoin:miter;stroke-opacity:1;"/>
<path d="M 591.5,212.8 L 592.7,213.1 L 594.8,210.8" style="fill:none;stroke:#000000;stroke-width:2.0px;stroke-linecap:butt;stroke-linejoin:miter;stroke-opacity:1;"/>
<path d="M 614.5,111.9 L 613.5,109.0 L 615.5,106.7" style="fill:none;stroke:#000000;stroke-width:2.0px;stroke-linecap:butt;stroke-linejoin:miter;stroke-opacity:1;"/>
<path d="M 651.9,65.2 L 653.9,62.9 L 656.9,63.5" style="fill:none;stroke:#000000;stroke-width:2.0px;stroke-linecap:butt;stroke-linejoin:miter;stroke-opacity:1;"/>
<path d="M 732.7,130.0 L 733.7,132.9 L 731.7,135.2" style="fill:none;stroke:#000000;stroke-width:2.0px;stroke-linecap:butt;stroke-linejoin:miter;stroke-opacity:1;"/>
<path d="M 712.0,234.1 L 712.9,237.0 L 714.2,237.3" style="fill:none;stroke:#000000;stroke-width:2.0px;stroke-linecap:butt;stroke-linejoin:miter;stroke-opacity:1;"/>
<path d="M 792.3,305.9 L 792.7,307.0 L 795.7,307.6" style="fill:none;stroke:#000000;stroke-width:2.0px;stroke-linecap:butt;stroke-linejoin:miter;stroke-opacity:1;"/>
<path d="M 849.8,318.4 L 852.8,319.0 L 853.8,321.9" style="fill:none;stroke:#000000;stroke-width:2.0px;stroke-linecap:butt;stroke-linejoin:miter;stroke-opacity:1;"/>
<path class="atom-0" d="M 328.3 267.4 L 330.9 264.8 L 327.5 264.1 L 328.0 262.3 L 331.1 263.9 L 330.7 260.5 L 332.5 260.5 L 332.0 263.9 L 335.2 262.4 L 335.7 264.1 L 332.3 264.7 L 334.7 267.3 L 333.2 268.4 L 331.5 265.2 L 329.8 268.4 L 328.3 267.4 " fill="#191919"/>
<path class="atom-4" d="M 524.7 201.2 Q 524.7 197.0, 526.7 194.7 Q 528.8 192.3, 532.6 192.3 Q 536.5 192.3, 538.5 194.7 Q 540.6 197.0, 540.6 201.2 Q 540.6 205.4, 538.5 207.8 Q 536.4 210.2, 532.6 210.2 Q 528.8 210.2, 526.7 207.8 Q 524.7 205.4, 524.7 201.2 M 532.6 208.2 Q 535.3 208.2, 536.7 206.4 Q 538.1 204.6, 538.1 201.2 Q 538.1 197.8, 536.7 196.0 Q 535.3 194.3, 532.6 194.3 Q 530.0 194.3, 528.5 196.0 Q 527.1 197.7, 527.1 201.2 Q 527.1 204.7, 528.5 206.4 Q 530.0 208.2, 532.6 208.2 " fill="#FF0000"/>
<path class="atom-6" d="M 604.5 271.2 Q 604.5 267.0, 606.5 264.7 Q 608.6 262.4, 612.4 262.4 Q 616.3 262.4, 618.3 264.7 Q 620.4 267.0, 620.4 271.2 Q 620.4 275.4, 618.3 277.8 Q 616.2 280.2, 612.4 280.2 Q 608.6 280.2, 606.5 277.8 Q 604.5 275.4, 604.5 271.2 M 612.4 278.2 Q 615.1 278.2, 616.5 276.4 Q 617.9 274.7, 617.9 271.2 Q 617.9 267.8, 616.5 266.1 Q 615.1 264.3, 612.4 264.3 Q 609.8 264.3, 608.3 266.0 Q 606.9 267.7, 606.9 271.2 Q 606.9 274.7, 608.3 276.4 Q 609.8 278.2, 612.4 278.2 " fill="#FF0000"/>
<path class="atom-11" d="M 751.1 26.9 L 753.7 24.3 L 750.3 23.6 L 750.8 21.9 L 753.9 23.4 L 753.5 20.0 L 755.3 20.0 L 754.8 23.4 L 758.0 21.9 L 758.5 23.6 L 755.1 24.2 L 757.5 26.9 L 756.0 27.9 L 754.4 24.7 L 752.6 27.9 L 751.1 26.9 " fill="#191919"/>
<path class="atom-15" d="M 664.6 283.1 Q 664.6 279.0, 666.6 276.7 Q 668.7 274.3, 672.5 274.3 Q 676.4 274.3, 678.4 276.7 Q 680.5 279.0, 680.5 283.1 Q 680.5 287.4, 678.4 289.8 Q 676.3 292.1, 672.5 292.1 Q 668.7 292.1, 666.6 289.8 Q 664.6 287.4, 664.6 283.1 M 672.5 290.2 Q 675.2 290.2, 676.6 288.4 Q 678.0 286.6, 678.0 283.1 Q 678.0 279.7, 676.6 278.0 Q 675.2 276.3, 672.5 276.3 Q 669.9 276.3, 668.4 278.0 Q 667.0 279.7, 667.0 283.1 Q 667.0 286.7, 668.4 288.4 Q 669.9 290.2, 672.5 290.2 " fill="#FF0000"/>
<path class="atom-16" d="M 765.1 249.1 Q 765.1 244.9, 767.1 242.6 Q 769.2 240.2, 773.0 240.2 Q 776.9 240.2, 779.0 242.6 Q 781.0 244.9, 781.0 249.1 Q 781.0 253.3, 778.9 255.7 Q 776.8 258.0, 773.0 258.0 Q 769.2 258.0, 767.1 255.7 Q 765.1 253.3, 765.1 249.1 M 773.0 256.1 Q 775.7 256.1, 777.1 254.3 Q 778.6 252.5, 778.6 249.1 Q 778.6 245.6, 777.1 243.9 Q 775.7 242.2, 773.0 242.2 Q 770.4 242.2, 769.0 243.9 Q 767.5 245.6, 767.5 249.1 Q 767.5 252.6, 769.0 254.3 Q 770.4 256.1, 773.0 256.1 " fill="#FF0000"/>
<path class="bond-0 atom-0 atom-1" d="M 420.2,639.3 L 443.9,626.0" style="fill:none;fill-rule:evenodd;stroke:#191919;stroke-width:2.0px;stroke-linecap:butt;stroke-linejoin:miter;stroke-opacity:1"/>
<path class="bond-0 atom-0 atom-1" d="M 443.9,626.0 L 467.5,612.7" style="fill:none;fill-rule:evenodd;stroke:#000000;stroke-width:2.0px;stroke-linecap:butt;stroke-linejoin:miter;stroke-opacity:1"/>
<path class="bond-1 atom-1 atom-2" d="M 467.5,612.7 L 488.9,625.4" style="fill:none;fill-rule:evenodd;stroke:#000000;stroke-width:2.0px;stroke-linecap:butt;stroke-linejoin:miter;stroke-opacity:1"/>
<path class="bond-1 atom-1 atom-2" d="M 488.9,625.4 L 510.2,638.1" style="fill:none;fill-rule:evenodd;stroke:#FF0000;stroke-width:2.0px;stroke-linecap:butt;stroke-linejoin:miter;stroke-opacity:1"/>
<path class="bond-2 atom-2 atom-3" d="M 530.2,638.5 L 551.9,626.3" style="fill:none;fill-rule:evenodd;stroke:#FF0000;stroke-width:2.0px;stroke-linecap:butt;stroke-linejoin:miter;stroke-opacity:1"/>
<path class="bond-2 atom-2 atom-3" d="M 551.9,626.3 L 573.7,614.1" style="fill:none;fill-rule:evenodd;stroke:#000000;stroke-width:2.0px;stroke-linecap:butt;stroke-linejoin:miter;stroke-opacity:1"/>
<path class="bond-3 atom-3 atom-4" d="M 578.2,616.8 L 578.6,590.4" style="fill:none;fill-rule:evenodd;stroke:#000000;stroke-width:2.0px;stroke-linecap:butt;stroke-linejoin:miter;stroke-opacity:1"/>
<path class="bond-3 atom-3 atom-4" d="M 578.6,590.4 L 578.9,564.0" style="fill:none;fill-rule:evenodd;stroke:#FF0000;stroke-width:2.0px;stroke-linecap:butt;stroke-linejoin:miter;stroke-opacity:1"/>
<path class="bond-3 atom-3 atom-4" d="M 569.0,616.7 L 569.4,590.3" style="fill:none;fill-rule:evenodd;stroke:#000000;stroke-width:2.0px;stroke-linecap:butt;stroke-linejoin:miter;stroke-opacity:1"/>
<path class="bond-3 atom-3 atom-4" d="M 569.4,590.3 L 569.7,563.8" style="fill:none;fill-rule:evenodd;stroke:#FF0000;stroke-width:2.0px;stroke-linecap:butt;stroke-linejoin:miter;stroke-opacity:1"/>
<path class="bond-4 atom-3 atom-5" d="M 573.7,614.1 L 626.3,645.4" style="fill:none;fill-rule:evenodd;stroke:#000000;stroke-width:2.0px;stroke-linecap:butt;stroke-linejoin:miter;stroke-opacity:1"/>
<path class="bond-5 atom-5 atom-6" d="M 626.3,645.4 L 679.8,615.5" style="fill:none;fill-rule:evenodd;stroke:#000000;stroke-width:2.0px;stroke-linecap:butt;stroke-linejoin:miter;stroke-opacity:1"/>
<path class="bond-6 atom-6 atom-7" d="M 679.8,615.5 L 702.3,628.9" style="fill:none;fill-rule:evenodd;stroke:#000000;stroke-width:2.0px;stroke-linecap:butt;stroke-linejoin:miter;stroke-opacity:1"/>
<path class="bond-6 atom-6 atom-7" d="M 702.3,628.9 L 724.9,642.3" style="fill:none;fill-rule:evenodd;stroke:#CCCC00;stroke-width:2.0px;stroke-linecap:butt;stroke-linejoin:miter;stroke-opacity:1"/>
<path class="bond-7 atom-7 atom-8" d="M 740.1,642.6 L 762.0,630.3" style="fill:none;fill-rule:evenodd;stroke:#CCCC00;stroke-width:2.0px;stroke-linecap:butt;stroke-linejoin:miter;stroke-opacity:1"/>
<path class="bond-7 atom-7 atom-8" d="M 762.0,630.3 L 783.9,618.0" style="fill:none;fill-rule:evenodd;stroke:#191919;stroke-width:2.0px;stroke-linecap:butt;stroke-linejoin:miter;stroke-opacity:1"/>
<path d="M 466.3,613.4 L 467.5,612.7 L 468.6,613.4" style="fill:none;stroke:#000000;stroke-width:2.0px;stroke-linecap:butt;stroke-linejoin:miter;stroke-opacity:1;"/>
<path d="M 572.6,614.7 L 573.7,614.1 L 576.3,615.7" style="fill:none;stroke:#000000;stroke-width:2.0px;stroke-linecap:butt;stroke-linejoin:miter;stroke-opacity:1;"/>
<path d="M 623.7,643.9 L 626.3,645.4 L 629.0,643.9" style="fill:none;stroke:#000000;stroke-width:2.0px;stroke-linecap:butt;stroke-linejoin:miter;stroke-opacity:1;"/>
<path d="M 677.1,617.0 L 679.8,615.5 L 680.9,616.2" style="fill:none;stroke:#000000;stroke-width:2.0px;stroke-linecap:butt;stroke-linejoin:miter;stroke-opacity:1;"/>
<path class="atom-0" d="M 410.8 640.8 L 413.3 638.2 L 410.0 637.5 L 410.5 635.7 L 413.6 637.3 L 413.1 633.9 L 415.0 633.9 L 414.5 637.3 L 417.6 635.8 L 418.2 637.5 L 414.7 638.1 L 417.2 640.7 L 415.7 641.8 L 414.0 638.6 L 412.3 641.8 L 410.8 640.8 " fill="#191919"/>
<path class="atom-2" d="M 512.2 644.1 Q 512.2 640.0, 514.3 637.6 Q 516.3 635.3, 520.2 635.3 Q 524.0 635.3, 526.1 637.6 Q 528.2 640.0, 528.2 644.1 Q 528.2 648.3, 526.1 650.7 Q 524.0 653.1, 520.2 653.1 Q 516.4 653.1, 514.3 650.7 Q 512.2 648.4, 512.2 644.1 M 520.2 651.2 Q 522.8 651.2, 524.3 649.4 Q 525.7 647.6, 525.7 644.1 Q 525.7 640.7, 524.3 639.0 Q 522.8 637.3, 520.2 637.3 Q 517.6 637.3, 516.1 639.0 Q 514.7 640.7, 514.7 644.1 Q 514.7 647.6, 516.1 649.4 Q 517.6 651.2, 520.2 651.2 " fill="#FF0000"/>
<path class="atom-4" d="M 566.5 552.9 Q 566.5 548.7, 568.5 546.4 Q 570.6 544.1, 574.5 544.1 Q 578.3 544.1, 580.4 546.4 Q 582.4 548.7, 582.4 552.9 Q 582.4 557.1, 580.3 559.5 Q 578.3 561.9, 574.5 561.9 Q 570.6 561.9, 568.5 559.5 Q 566.5 557.1, 566.5 552.9 M 574.5 559.9 Q 577.1 559.9, 578.5 558.2 Q 580.0 556.4, 580.0 552.9 Q 580.0 549.5, 578.5 547.8 Q 577.1 546.0, 574.5 546.0 Q 571.8 546.0, 570.4 547.7 Q 568.9 549.5, 568.9 552.9 Q 568.9 556.4, 570.4 558.2 Q 571.8 559.9, 574.5 559.9 " fill="#FF0000"/>
<path class="atom-7" d="M 727.6 652.8 Q 727.8 652.8, 728.6 653.2 Q 729.4 653.5, 730.3 653.8 Q 731.2 654.0, 732.1 654.0 Q 733.7 654.0, 734.7 653.2 Q 735.6 652.4, 735.6 651.0 Q 735.6 650.0, 735.1 649.4 Q 734.7 648.8, 733.9 648.5 Q 733.2 648.2, 732.0 647.8 Q 730.4 647.4, 729.5 646.9 Q 728.6 646.5, 727.9 645.5 Q 727.3 644.6, 727.3 643.0 Q 727.3 640.9, 728.7 639.5 Q 730.2 638.2, 733.2 638.2 Q 735.2 638.2, 737.5 639.1 L 736.9 641.0 Q 734.8 640.1, 733.3 640.1 Q 731.6 640.1, 730.6 640.9 Q 729.7 641.5, 729.7 642.7 Q 729.7 643.7, 730.2 644.2 Q 730.7 644.8, 731.4 645.1 Q 732.1 645.4, 733.3 645.8 Q 734.8 646.3, 735.8 646.8 Q 736.7 647.3, 737.4 648.3 Q 738.0 649.3, 738.0 651.0 Q 738.0 653.4, 736.4 654.7 Q 734.8 655.9, 732.2 655.9 Q 730.6 655.9, 729.4 655.6 Q 728.3 655.3, 726.9 654.7 L 727.6 652.8 " fill="#CCCC00"/>
<path class="atom-8" d="M 782.7 614.9 L 785.2 612.3 L 781.8 611.6 L 782.4 609.9 L 785.5 611.5 L 785.0 608.1 L 786.9 608.0 L 786.3 611.4 L 789.5 610.0 L 790.0 611.6 L 786.6 612.3 L 789.1 614.9 L 787.6 616.0 L 785.9 612.7 L 784.2 616.0 L 782.7 614.9 " fill="#191919"/>
</svg>