<svg xmlns="http://www.w3.org/2000/svg" xmlns:rdkit="http://www.rdkit.org/xml" xmlns:xlink="http://www.w3.org/1999/xlink" version="1.1" baseProfile="full" xml:space="preserve" width="1200px" height="800px" viewBox="0 0 1200 800">
<!-- END OF HEADER -->
<rect style="opacity:1.0;fill:#FFFFFF;stroke:none" width="1200.0" height="800.0" x="0.0" y="0.0"> </rect>
<path class="bond-0 atom-0 atom-1" d="M 75.8,191.9 L 113.0,172.3" style="fill:none;fill-rule:evenodd;stroke:#191919;stroke-width:2.0px;stroke-linecap:butt;stroke-linejoin:miter;stroke-opacity:1"/>
<path class="bond-0 atom-0 atom-1" d="M 113.0,172.3 L 150.1,152.7" style="fill:none;fill-rule:evenodd;stroke:#000000;stroke-width:2.0px;stroke-linecap:butt;stroke-linejoin:miter;stroke-opacity:1"/>
<path class="bond-1 atom-1 atom-2" d="M 150.1,152.7 L 230.3,203.1" style="fill:none;fill-rule:evenodd;stroke:#000000;stroke-width:2.0px;stroke-linecap:butt;stroke-linejoin:miter;stroke-opacity:1"/>
<path class="bond-2 atom-2 atom-3" d="M 230.3,203.1 L 314.0,158.9" style="fill:none;fill-rule:evenodd;stroke:#000000;stroke-width:2.0px;stroke-linecap:butt;stroke-linejoin:miter;stroke-opacity:1"/>
<path class="bond-3 atom-3 atom-4" d="M 314.0,158.9 L 394.2,209.4" style="fill:none;fill-rule:evenodd;stroke:#000000;stroke-width:2.0px;stroke-linecap:butt;stroke-linejoin:miter;stroke-opacity:1"/>
<path class="bond-4 atom-4 atom-5" d="M 394.2,209.4 L 428.4,191.4" style="fill:none;fill-rule:evenodd;stroke:#000000;stroke-width:2.0px;stroke-linecap:butt;stroke-linejoin:miter;stroke-opacity:1"/>
<path class="bond-4 atom-4 atom-5" d="M 428.4,191.4 L 462.5,173.3" style="fill:none;fill-rule:evenodd;stroke:#FF0000;stroke-width:2.0px;stroke-linecap:butt;stroke-linejoin:miter;stroke-opacity:1"/>
<path class="bond-5 atom-5 atom-6" d="M 493.4,174.9 L 525.8,195.3" style="fill:none;fill-rule:evenodd;stroke:#FF0000;stroke-width:2.0px;stroke-linecap:butt;stroke-linejoin:miter;stroke-opacity:1"/>
<path class="bond-5 atom-5 atom-6" d="M 525.8,195.3 L 558.1,215.6" style="fill:none;fill-rule:evenodd;stroke:#000000;stroke-width:2.0px;stroke-linecap:butt;stroke-linejoin:miter;stroke-opacity:1"/>
<path class="bond-6 atom-6 atom-7" d="M 551.2,211.3 L 549.6,252.3" style="fill:none;fill-rule:evenodd;stroke:#000000;stroke-width:2.0px;stroke-linecap:butt;stroke-linejoin:miter;stroke-opacity:1"/>
<path class="bond-6 atom-6 atom-7" d="M 549.6,252.3 L 548.0,293.3" style="fill:none;fill-rule:evenodd;stroke:#FF0000;stroke-width:2.0px;stroke-linecap:butt;stroke-linejoin:miter;stroke-opacity:1"/>
<path class="bond-6 atom-6 atom-7" d="M 565.4,211.8 L 563.8,252.8" style="fill:none;fill-rule:evenodd;stroke:#000000;stroke-width:2.0px;stroke-linecap:butt;stroke-linejoin:miter;stroke-opacity:1"/>
<path class="bond-6 atom-6 atom-7" d="M 563.8,252.8 L 562.2,293.9" style="fill:none;fill-rule:evenodd;stroke:#FF0000;stroke-width:2.0px;stroke-linecap:butt;stroke-linejoin:miter;stroke-opacity:1"/>
<path class="bond-7 atom-6 atom-8" d="M 558.1,215.6 L 641.9,171.4" style="fill:none;fill-rule:evenodd;stroke:#000000;stroke-width:2.0px;stroke-linecap:butt;stroke-linejoin:miter;stroke-opacity:1"/>
<path class="bond-8 atom-8 atom-9" d="M 641.9,171.4 L 722.0,221.9" style="fill:none;fill-rule:evenodd;stroke:#000000;stroke-width:2.0px;stroke-linecap:butt;stroke-linejoin:miter;stroke-opacity:1"/>
<path class="bond-9 atom-9 atom-10" d="M 722.0,221.9 L 805.8,177.7" style="fill:none;fill-rule:evenodd;stroke:#000000;stroke-width:2.0px;stroke-linecap:butt;stroke-linejoin:miter;stroke-opacity:1"/>
<path class="bond-10 atom-10 atom-11" d="M 805.8,177.7 L 886.0,228.1" style="fill:none;fill-rule:evenodd;stroke:#000000;stroke-width:2.0px;stroke-linecap:butt;stroke-linejoin:miter;stroke-opacity:1"/>
<path class="bond-11 atom-11 atom-12" d="M 886.0,228.1 L 969.7,184.0" style="fill:none;fill-rule:evenodd;stroke:#000000;stroke-width:2.0px;stroke-linecap:butt;stroke-linejoin:miter;stroke-opacity:1"/>
<path class="bond-12 atom-12 atom-13" d="M 976.7,188.3 L 978.2,147.5" style="fill:none;fill-rule:evenodd;stroke:#000000;stroke-width:2.0px;stroke-linecap:butt;stroke-linejoin:miter;stroke-opacity:1"/>
<path class="bond-12 atom-12 atom-13" d="M 978.2,147.5 L 979.8,106.7" style="fill:none;fill-rule:evenodd;stroke:#FF0000;stroke-width:2.0px;stroke-linecap:butt;stroke-linejoin:miter;stroke-opacity:1"/>
<path class="bond-12 atom-12 atom-13" d="M 962.5,187.8 L 964.0,147.0" style="fill:none;fill-rule:evenodd;stroke:#000000;stroke-width:2.0px;stroke-linecap:butt;stroke-linejoin:miter;stroke-opacity:1"/>
<path class="bond-12 atom-12 atom-13" d="M 964.0,147.0 L 965.6,106.1" style="fill:none;fill-rule:evenodd;stroke:#FF0000;stroke-width:2.0px;stroke-linecap:butt;stroke-linejoin:miter;stroke-opacity:1"/>
<path class="bond-13 atom-12 atom-14" d="M 969.7,184.0 L 1002.1,204.3" style="fill:none;fill-rule:evenodd;stroke:#000000;stroke-width:2.0px;stroke-linecap:butt;stroke-linejoin:miter;stroke-opacity:1"/>
<path class="bond-13 atom-12 atom-14" d="M 1002.1,204.3 L 1034.4,224.7" style="fill:none;fill-rule:evenodd;stroke:#FF0000;stroke-width:2.0px;stroke-linecap:butt;stroke-linejoin:miter;stroke-opacity:1"/>
<path class="bond-14 atom-14 atom-15" d="M 1065.3,226.3 L 1097.8,209.1" style="fill:none;fill-rule:evenodd;stroke:#FF0000;stroke-width:2.0px;stroke-linecap:butt;stroke-linejoin:miter;stroke-opacity:1"/>
<path class="bond-14 atom-14 atom-15" d="M 1097.8,209.1 L 1130.3,192.0" style="fill:none;fill-rule:evenodd;stroke:#191919;stroke-width:2.0px;stroke-linecap:butt;stroke-linejoin:miter;stroke-opacity:1"/>
<path d="M 148.3,153.6 L 150.1,152.7 L 154.1,155.2" style="fill:none;stroke:#000000;stroke-width:2.0px;stroke-linecap:butt;stroke-linejoin:miter;stroke-opacity:1;"/>
<path d="M 226.3,200.6 L 230.3,203.1 L 234.5,200.9" style="fill:none;stroke:#000000;stroke-width:2.0px;stroke-linecap:butt;stroke-linejoin:miter;stroke-opacity:1;"/>
<path d="M 309.8,161.1 L 314.0,158.9 L 318.0,161.4" style="fill:none;stroke:#000000;stroke-width:2.0px;stroke-linecap:butt;stroke-linejoin:miter;stroke-opacity:1;"/>
<path d="M 390.2,206.9 L 394.2,209.4 L 395.9,208.5" style="fill:none;stroke:#000000;stroke-width:2.0px;stroke-linecap:butt;stroke-linejoin:miter;stroke-opacity:1;"/>
<path d="M 556.5,214.6 L 558.1,215.6 L 562.3,213.4" style="fill:none;stroke:#000000;stroke-width:2.0px;stroke-linecap:butt;stroke-linejoin:miter;stroke-opacity:1;"/>
<path d="M 637.7,173.6 L 641.9,171.4 L 645.9,174.0" style="fill:none;stroke:#000000;stroke-width:2.0px;stroke-linecap:butt;stroke-linejoin:miter;stroke-opacity:1;"/>
<path d="M 718.0,219.4 L 722.0,221.9 L 726.2,219.7" style="fill:none;stroke:#000000;stroke-width:2.0px;stroke-linecap:butt;stroke-linejoin:miter;stroke-opacity:1;"/>
<path d="M 801.6,179.9 L 805.8,177.7 L 809.8,180.2" style="fill:none;stroke:#000000;stroke-width:2.0px;stroke-linecap:butt;stroke-linejoin:miter;stroke-opacity:1;"/>
<path d="M 882.0,225.6 L 886.0,228.1 L 890.2,225.9" style="fill:none;stroke:#000000;stroke-width:2.0px;stroke-linecap:butt;stroke-linejoin:miter;stroke-opacity:1;"/>
<path d="M 965.5,186.2 L 969.7,184.0 L 971.3,185.0" style="fill:none;stroke:#000000;stroke-width:2.0px;stroke-linecap:butt;stroke-linejoin:miter;stroke-opacity:1;"/>
<path class="atom-0" d="M 61.3 193.9 L 65.2 189.9 L 60.0 188.8 L 60.8 186.1 L 65.6 188.5 L 64.9 183.3 L 67.8 183.2 L 67.0 188.5 L 71.9 186.2 L 72.7 188.8 L 67.4 189.8 L 71.2 193.8 L 68.9 195.5 L 66.3 190.5 L 63.6 195.5 L 61.3 193.9 " fill="#191919"/>
<path class="atom-5" d="M 465.6 165.3 Q 465.6 158.8, 468.8 155.2 Q 472.0 151.6, 478.0 151.6 Q 483.9 151.6, 487.1 155.2 Q 490.3 158.8, 490.3 165.3 Q 490.3 171.8, 487.1 175.5 Q 483.8 179.2, 478.0 179.2 Q 472.1 179.2, 468.8 175.5 Q 465.6 171.8, 465.6 165.3 M 478.0 176.1 Q 482.1 176.1, 484.2 173.4 Q 486.5 170.6, 486.5 165.3 Q 486.5 160.0, 484.2 157.3 Q 482.1 154.7, 478.0 154.7 Q 473.9 154.7, 471.6 157.3 Q 469.4 160.0, 469.4 165.3 Q 469.4 170.7, 471.6 173.4 Q 473.9 176.1, 478.0 176.1 " fill="#FF0000"/>
<path class="atom-7" d="M 542.2 310.3 Q 542.2 303.9, 545.4 300.3 Q 548.6 296.7, 554.5 296.7 Q 560.5 296.7, 563.6 300.3 Q 566.8 303.9, 566.8 310.3 Q 566.8 316.9, 563.6 320.6 Q 560.4 324.3, 554.5 324.3 Q 548.6 324.3, 545.4 320.6 Q 542.2 316.9, 542.2 310.3 M 554.5 321.2 Q 558.6 321.2, 560.8 318.5 Q 563.0 315.7, 563.0 310.3 Q 563.0 305.1, 560.8 302.4 Q 558.6 299.7, 554.5 299.7 Q 550.4 299.7, 548.2 302.4 Q 546.0 305.0, 546.0 310.3 Q 546.0 315.8, 548.2 318.5 Q 550.4 321.2, 554.5 321.2 " fill="#FF0000"/>
<path class="atom-13" d="M 961.0 89.4 Q 961.0 82.9, 964.2 79.3 Q 967.4 75.7, 973.3 75.7 Q 979.3 75.7, 982.5 79.3 Q 985.7 82.9, 985.7 89.4 Q 985.7 95.9, 982.4 99.6 Q 979.2 103.3, 973.3 103.3 Q 967.4 103.3, 964.2 99.6 Q 961.0 95.9, 961.0 89.4 M 973.3 100.3 Q 977.4 100.3, 979.6 97.5 Q 981.9 94.8, 981.9 89.4 Q 981.9 84.1, 979.6 81.5 Q 977.4 78.8, 973.3 78.8 Q 969.3 78.8, 967.0 81.4 Q 964.8 84.1, 964.8 89.4 Q 964.8 94.8, 967.0 97.5 Q 969.3 100.3, 973.3 100.3 " fill="#FF0000"/>
<path class="atom-14" d="M 1037.6 234.5 Q 1037.6 228.0, 1040.8 224.4 Q 1043.9 220.8, 1049.9 220.8 Q 1055.8 220.8, 1059.0 224.4 Q 1062.2 228.0, 1062.2 234.5 Q 1062.2 241.0, 1059.0 244.7 Q 1055.8 248.4, 1049.9 248.4 Q 1044.0 248.4, 1040.8 244.7 Q 1037.6 241.0, 1037.6 234.5 M 1049.9 245.3 Q 1054.0 245.3, 1056.2 242.6 Q 1058.4 239.9, 1058.4 234.5 Q 1058.4 229.2, 1056.2 226.6 Q 1054.0 223.9, 1049.9 223.9 Q 1045.8 223.9, 1043.6 226.5 Q 1041.4 229.2, 1041.4 234.5 Q 1041.4 239.9, 1043.6 242.6 Q 1045.8 245.3, 1049.9 245.3 " fill="#FF0000"/>
<path class="atom-15" d="M 1128.6 187.2 L 1132.5 183.2 L 1127.3 182.1 L 1128.1 179.4 L 1132.9 181.9 L 1132.2 176.6 L 1135.1 176.6 L 1134.3 181.8 L 1139.2 179.6 L 1140.0 182.1 L 1134.7 183.1 L 1138.5 187.2 L 1136.2 188.8 L 1133.6 183.8 L 1130.9 188.8 L 1128.6 187.2 " fill="#191919"/>
<path class="bond-0 atom-0 atom-1" d="M 546.6,599.8 L 581.5,599.8" style="fill:none;fill-rule:evenodd;stroke:#191919;stroke-width:2.0px;stroke-linecap:butt;stroke-linejoin:miter;stroke-opacity:1"/>
<path class="bond-0 atom-0 atom-1" d="M 581.5,599.8 L 616.4,599.8" style="fill:none;fill-rule:evenodd;stroke:#FF0000;stroke-width:2.0px;stroke-linecap:butt;stroke-linejoin:miter;stroke-opacity:1"/>
<path class="atom-0" d="M 532.0 596.8 L 536.0 592.8 L 530.7 591.8 L 531.5 589.1 L 536.3 591.5 L 535.7 586.2 L 538.5 586.2 L 537.7 591.5 L 542.6 589.2 L 543.4 591.8 L 538.1 592.7 L 541.9 596.8 L 539.6 598.5 L 537.0 593.5 L 534.3 598.5 L 532.0 596.8 " fill="#191919"/>
<path class="atom-1" d="M 619.5 599.9 Q 619.5 593.5, 622.7 589.9 Q 625.8 586.3, 631.8 586.3 Q 637.7 586.3, 640.9 589.9 Q 644.1 593.5, 644.1 599.9 Q 644.1 606.4, 640.9 610.1 Q 637.7 613.8, 631.8 613.8 Q 625.9 613.8, 622.7 610.1 Q 619.5 606.5, 619.5 599.9 M 631.8 610.8 Q 635.9 610.8, 638.1 608.1 Q 640.3 605.3, 640.3 599.9 Q 640.3 594.6, 638.1 592.0 Q 635.9 589.3, 631.8 589.3 Q 627.7 589.3, 625.5 591.9 Q 623.3 594.6, 623.3 599.9 Q 623.3 605.3, 625.5 608.1 Q 627.7 610.8, 631.8 610.8 " fill="#FF0000"/>
<path class="atom-1" d="M 648.3 586.6 L 651.9 586.6 L 651.9 598.0 L 665.6 598.0 L 665.6 586.6 L 669.3 586.6 L 669.3 613.4 L 665.6 613.4 L 665.6 601.0 L 651.9 601.0 L 651.9 613.4 L 648.3 613.4 L 648.3 586.6 " fill="#FF0000"/>
</svg>