<svg xmlns="http://www.w3.org/2000/svg" xmlns:rdkit="http://www.rdkit.org/xml" xmlns:xlink="http://www.w3.org/1999/xlink" version="1.1" baseProfile="full" xml:space="preserve" width="1200px" height="800px" viewBox="0 0 1200 800">
<!-- END OF HEADER -->
<rect style="opacity:1.0;fill:#FFFFFF;stroke:none" width="1200.0" height="800.0" x="0.0" y="0.0"> </rect>
<path class="bond-0 atom-0 atom-1" d="M 66.9,195.1 L 95.7,211.2" style="fill:none;fill-rule:evenodd;stroke:#191919;stroke-width:2.0px;stroke-linecap:butt;stroke-linejoin:miter;stroke-opacity:1"/>
<path class="bond-0 atom-0 atom-1" d="M 95.7,211.2 L 124.5,227.3" style="fill:none;fill-rule:evenodd;stroke:#000000;stroke-width:2.0px;stroke-linecap:butt;stroke-linejoin:miter;stroke-opacity:1"/>
<path class="bond-1 atom-1 atom-2" d="M 124.5,227.3 L 183.4,192.1" style="fill:none;fill-rule:evenodd;stroke:#000000;stroke-width:2.0px;stroke-linecap:butt;stroke-linejoin:miter;stroke-opacity:1"/>
<path class="bond-2 atom-2 atom-3" d="M 183.4,192.1 L 207.7,205.7" style="fill:none;fill-rule:evenodd;stroke:#000000;stroke-width:2.0px;stroke-linecap:butt;stroke-linejoin:miter;stroke-opacity:1"/>
<path class="bond-2 atom-2 atom-3" d="M 207.7,205.7 L 232.0,219.3" style="fill:none;fill-rule:evenodd;stroke:#FF0000;stroke-width:2.0px;stroke-linecap:butt;stroke-linejoin:miter;stroke-opacity:1"/>
<path class="bond-3 atom-3 atom-4" d="M 254.4,218.9 L 278.3,204.7" style="fill:none;fill-rule:evenodd;stroke:#FF0000;stroke-width:2.0px;stroke-linecap:butt;stroke-linejoin:miter;stroke-opacity:1"/>
<path class="bond-3 atom-3 atom-4" d="M 278.3,204.7 L 302.1,190.4" style="fill:none;fill-rule:evenodd;stroke:#000000;stroke-width:2.0px;stroke-linecap:butt;stroke-linejoin:miter;stroke-opacity:1"/>
<path class="bond-4 atom-4 atom-5" d="M 302.1,190.4 L 362.0,223.9" style="fill:none;fill-rule:evenodd;stroke:#000000;stroke-width:2.0px;stroke-linecap:butt;stroke-linejoin:miter;stroke-opacity:1"/>
<path class="bond-5 atom-5 atom-6" d="M 362.0,223.9 L 420.9,188.7" style="fill:none;fill-rule:evenodd;stroke:#000000;stroke-width:2.0px;stroke-linecap:butt;stroke-linejoin:miter;stroke-opacity:1"/>
<path class="bond-6 atom-6 atom-7" d="M 420.9,188.7 L 445.2,202.3" style="fill:none;fill-rule:evenodd;stroke:#000000;stroke-width:2.0px;stroke-linecap:butt;stroke-linejoin:miter;stroke-opacity:1"/>
<path class="bond-6 atom-6 atom-7" d="M 445.2,202.3 L 469.6,215.9" style="fill:none;fill-rule:evenodd;stroke:#FF0000;stroke-width:2.0px;stroke-linecap:butt;stroke-linejoin:miter;stroke-opacity:1"/>
<path class="bond-7 atom-7 atom-8" d="M 491.9,215.5 L 515.8,201.3" style="fill:none;fill-rule:evenodd;stroke:#FF0000;stroke-width:2.0px;stroke-linecap:butt;stroke-linejoin:miter;stroke-opacity:1"/>
<path class="bond-7 atom-7 atom-8" d="M 515.8,201.3 L 539.6,187.0" style="fill:none;fill-rule:evenodd;stroke:#000000;stroke-width:2.0px;stroke-linecap:butt;stroke-linejoin:miter;stroke-opacity:1"/>
<path class="bond-8 atom-8 atom-9" d="M 544.8,189.9 L 544.4,160.4" style="fill:none;fill-rule:evenodd;stroke:#000000;stroke-width:2.0px;stroke-linecap:butt;stroke-linejoin:miter;stroke-opacity:1"/>
<path class="bond-8 atom-8 atom-9" d="M 544.4,160.4 L 544.0,130.8" style="fill:none;fill-rule:evenodd;stroke:#FF0000;stroke-width:2.0px;stroke-linecap:butt;stroke-linejoin:miter;stroke-opacity:1"/>
<path class="bond-8 atom-8 atom-9" d="M 534.5,190.1 L 534.1,160.5" style="fill:none;fill-rule:evenodd;stroke:#000000;stroke-width:2.0px;stroke-linecap:butt;stroke-linejoin:miter;stroke-opacity:1"/>
<path class="bond-8 atom-8 atom-9" d="M 534.1,160.5 L 533.7,130.9" style="fill:none;fill-rule:evenodd;stroke:#FF0000;stroke-width:2.0px;stroke-linecap:butt;stroke-linejoin:miter;stroke-opacity:1"/>
<path class="bond-9 atom-8 atom-10" d="M 539.6,187.0 L 564.8,201.1" style="fill:none;fill-rule:evenodd;stroke:#000000;stroke-width:2.0px;stroke-linecap:butt;stroke-linejoin:miter;stroke-opacity:1"/>
<path class="bond-9 atom-8 atom-10" d="M 564.8,201.1 L 589.9,215.1" style="fill:none;fill-rule:evenodd;stroke:#0000FF;stroke-width:2.0px;stroke-linecap:butt;stroke-linejoin:miter;stroke-opacity:1"/>
<path class="bond-10 atom-10 atom-11" d="M 609.1,214.7 L 633.8,200.0" style="fill:none;fill-rule:evenodd;stroke:#0000FF;stroke-width:2.0px;stroke-linecap:butt;stroke-linejoin:miter;stroke-opacity:1"/>
<path class="bond-10 atom-10 atom-11" d="M 633.8,200.0 L 658.4,185.3" style="fill:none;fill-rule:evenodd;stroke:#000000;stroke-width:2.0px;stroke-linecap:butt;stroke-linejoin:miter;stroke-opacity:1"/>
<path class="bond-11 atom-11 atom-12" d="M 658.4,185.3 L 657.4,116.8" style="fill:none;fill-rule:evenodd;stroke:#000000;stroke-width:2.0px;stroke-linecap:butt;stroke-linejoin:miter;stroke-opacity:1"/>
<path class="bond-11 atom-11 atom-12" d="M 668.6,179.2 L 667.8,122.6" style="fill:none;fill-rule:evenodd;stroke:#000000;stroke-width:2.0px;stroke-linecap:butt;stroke-linejoin:miter;stroke-opacity:1"/>
<path class="bond-12 atom-12 atom-13" d="M 657.4,116.8 L 716.3,81.6" style="fill:none;fill-rule:evenodd;stroke:#000000;stroke-width:2.0px;stroke-linecap:butt;stroke-linejoin:miter;stroke-opacity:1"/>
<path class="bond-13 atom-13 atom-14" d="M 716.3,81.6 L 776.2,115.1" style="fill:none;fill-rule:evenodd;stroke:#000000;stroke-width:2.0px;stroke-linecap:butt;stroke-linejoin:miter;stroke-opacity:1"/>
<path class="bond-13 atom-13 atom-14" d="M 716.5,93.5 L 766.0,121.2" style="fill:none;fill-rule:evenodd;stroke:#000000;stroke-width:2.0px;stroke-linecap:butt;stroke-linejoin:miter;stroke-opacity:1"/>
<path class="bond-14 atom-14 atom-15" d="M 776.2,115.1 L 835.1,79.9" style="fill:none;fill-rule:evenodd;stroke:#000000;stroke-width:2.0px;stroke-linecap:butt;stroke-linejoin:miter;stroke-opacity:1"/>
<path class="bond-15 atom-15 atom-16" d="M 835.1,79.9 L 894.9,113.4" style="fill:none;fill-rule:evenodd;stroke:#000000;stroke-width:2.0px;stroke-linecap:butt;stroke-linejoin:miter;stroke-opacity:1"/>
<path class="bond-16 atom-16 atom-17" d="M 894.9,113.4 L 895.9,181.9" style="fill:none;fill-rule:evenodd;stroke:#000000;stroke-width:2.0px;stroke-linecap:butt;stroke-linejoin:miter;stroke-opacity:1"/>
<path class="bond-16 atom-16 atom-17" d="M 905.3,119.2 L 906.1,175.8" style="fill:none;fill-rule:evenodd;stroke:#000000;stroke-width:2.0px;stroke-linecap:butt;stroke-linejoin:miter;stroke-opacity:1"/>
<path class="bond-17 atom-17 atom-18" d="M 895.9,181.9 L 955.8,215.4" style="fill:none;fill-rule:evenodd;stroke:#000000;stroke-width:2.0px;stroke-linecap:butt;stroke-linejoin:miter;stroke-opacity:1"/>
<path class="bond-18 atom-18 atom-19" d="M 955.8,215.4 L 1014.7,180.2" style="fill:none;fill-rule:evenodd;stroke:#000000;stroke-width:2.0px;stroke-linecap:butt;stroke-linejoin:miter;stroke-opacity:1"/>
<path class="bond-18 atom-18 atom-19" d="M 955.6,203.5 L 1004.3,174.4" style="fill:none;fill-rule:evenodd;stroke:#000000;stroke-width:2.0px;stroke-linecap:butt;stroke-linejoin:miter;stroke-opacity:1"/>
<path class="bond-19 atom-19 atom-20" d="M 1014.7,180.2 L 1039.8,194.3" style="fill:none;fill-rule:evenodd;stroke:#000000;stroke-width:2.0px;stroke-linecap:butt;stroke-linejoin:miter;stroke-opacity:1"/>
<path class="bond-19 atom-19 atom-20" d="M 1039.8,194.3 L 1064.9,208.3" style="fill:none;fill-rule:evenodd;stroke:#0000FF;stroke-width:2.0px;stroke-linecap:butt;stroke-linejoin:miter;stroke-opacity:1"/>
<path class="bond-20 atom-20 atom-21" d="M 1074.7,225.6 L 1075.1,253.9" style="fill:none;fill-rule:evenodd;stroke:#0000FF;stroke-width:2.0px;stroke-linecap:butt;stroke-linejoin:miter;stroke-opacity:1"/>
<path class="bond-20 atom-20 atom-21" d="M 1075.1,253.9 L 1075.5,282.2" style="fill:none;fill-rule:evenodd;stroke:#000000;stroke-width:2.0px;stroke-linecap:butt;stroke-linejoin:miter;stroke-opacity:1"/>
<path class="bond-21 atom-21 atom-22" d="M 1075.5,282.2 L 1102.0,297.0" style="fill:none;fill-rule:evenodd;stroke:#000000;stroke-width:2.0px;stroke-linecap:butt;stroke-linejoin:miter;stroke-opacity:1"/>
<path class="bond-21 atom-21 atom-22" d="M 1102.0,297.0 L 1128.5,311.8" style="fill:none;fill-rule:evenodd;stroke:#191919;stroke-width:2.0px;stroke-linecap:butt;stroke-linejoin:miter;stroke-opacity:1"/>
<path class="bond-22 atom-21 atom-23" d="M 1075.4,276.3 L 1014.0,312.9" style="fill:none;fill-rule:evenodd;stroke:#000000;stroke-width:2.0px;stroke-linecap:butt;stroke-linejoin:miter;stroke-opacity:1"/>
<path class="bond-22 atom-21 atom-23" d="M 1080.7,285.1 L 1019.3,321.8" style="fill:none;fill-rule:evenodd;stroke:#000000;stroke-width:2.0px;stroke-linecap:butt;stroke-linejoin:miter;stroke-opacity:1"/>
<path class="bond-23 atom-19 atom-24" d="M 1014.7,180.2 L 1013.7,111.7" style="fill:none;fill-rule:evenodd;stroke:#000000;stroke-width:2.0px;stroke-linecap:butt;stroke-linejoin:miter;stroke-opacity:1"/>
<path class="bond-24 atom-24 atom-25" d="M 1013.7,111.7 L 953.8,78.2" style="fill:none;fill-rule:evenodd;stroke:#000000;stroke-width:2.0px;stroke-linecap:butt;stroke-linejoin:miter;stroke-opacity:1"/>
<path class="bond-24 atom-24 atom-25" d="M 1003.5,117.7 L 954.0,90.1" style="fill:none;fill-rule:evenodd;stroke:#000000;stroke-width:2.0px;stroke-linecap:butt;stroke-linejoin:miter;stroke-opacity:1"/>
<path class="bond-25 atom-14 atom-26" d="M 776.2,115.1 L 777.2,183.6" style="fill:none;fill-rule:evenodd;stroke:#000000;stroke-width:2.0px;stroke-linecap:butt;stroke-linejoin:miter;stroke-opacity:1"/>
<path class="bond-26 atom-26 atom-27" d="M 777.2,183.6 L 718.3,218.8" style="fill:none;fill-rule:evenodd;stroke:#000000;stroke-width:2.0px;stroke-linecap:butt;stroke-linejoin:miter;stroke-opacity:1"/>
<path class="bond-26 atom-26 atom-27" d="M 766.8,177.8 L 718.1,206.9" style="fill:none;fill-rule:evenodd;stroke:#000000;stroke-width:2.0px;stroke-linecap:butt;stroke-linejoin:miter;stroke-opacity:1"/>
<path class="bond-27 atom-27 atom-11" d="M 718.3,218.8 L 658.4,185.3" style="fill:none;fill-rule:evenodd;stroke:#000000;stroke-width:2.0px;stroke-linecap:butt;stroke-linejoin:miter;stroke-opacity:1"/>
<path class="bond-28 atom-25 atom-16" d="M 953.8,78.2 L 894.9,113.4" style="fill:none;fill-rule:evenodd;stroke:#000000;stroke-width:2.0px;stroke-linecap:butt;stroke-linejoin:miter;stroke-opacity:1"/>
<path d="M 123.0,226.5 L 124.5,227.3 L 127.4,225.5" style="fill:none;stroke:#000000;stroke-width:2.0px;stroke-linecap:butt;stroke-linejoin:miter;stroke-opacity:1;"/>
<path d="M 180.4,193.9 L 183.4,192.1 L 184.6,192.8" style="fill:none;stroke:#000000;stroke-width:2.0px;stroke-linecap:butt;stroke-linejoin:miter;stroke-opacity:1;"/>
<path d="M 300.9,191.2 L 302.1,190.4 L 305.1,192.1" style="fill:none;stroke:#000000;stroke-width:2.0px;stroke-linecap:butt;stroke-linejoin:miter;stroke-opacity:1;"/>
<path d="M 359.0,222.2 L 362.0,223.9 L 364.9,222.1" style="fill:none;stroke:#000000;stroke-width:2.0px;stroke-linecap:butt;stroke-linejoin:miter;stroke-opacity:1;"/>
<path d="M 417.9,190.5 L 420.9,188.7 L 422.1,189.4" style="fill:none;stroke:#000000;stroke-width:2.0px;stroke-linecap:butt;stroke-linejoin:miter;stroke-opacity:1;"/>
<path d="M 538.4,187.7 L 539.6,187.0 L 540.9,187.7" style="fill:none;stroke:#000000;stroke-width:2.0px;stroke-linecap:butt;stroke-linejoin:miter;stroke-opacity:1;"/>
<path d="M 657.5,120.2 L 657.4,116.8 L 660.4,115.0" style="fill:none;stroke:#000000;stroke-width:2.0px;stroke-linecap:butt;stroke-linejoin:miter;stroke-opacity:1;"/>
<path d="M 713.4,83.4 L 716.3,81.6 L 719.3,83.3" style="fill:none;stroke:#000000;stroke-width:2.0px;stroke-linecap:butt;stroke-linejoin:miter;stroke-opacity:1;"/>
<path d="M 832.1,81.7 L 835.1,79.9 L 838.1,81.6" style="fill:none;stroke:#000000;stroke-width:2.0px;stroke-linecap:butt;stroke-linejoin:miter;stroke-opacity:1;"/>
<path d="M 895.9,178.5 L 895.9,181.9 L 898.9,183.6" style="fill:none;stroke:#000000;stroke-width:2.0px;stroke-linecap:butt;stroke-linejoin:miter;stroke-opacity:1;"/>
<path d="M 952.8,213.7 L 955.8,215.4 L 958.7,213.6" style="fill:none;stroke:#000000;stroke-width:2.0px;stroke-linecap:butt;stroke-linejoin:miter;stroke-opacity:1;"/>
<path d="M 1075.5,280.8 L 1075.5,282.2 L 1076.9,283.0" style="fill:none;stroke:#000000;stroke-width:2.0px;stroke-linecap:butt;stroke-linejoin:miter;stroke-opacity:1;"/>
<path d="M 1013.7,115.1 L 1013.7,111.7 L 1010.7,110.0" style="fill:none;stroke:#000000;stroke-width:2.0px;stroke-linecap:butt;stroke-linejoin:miter;stroke-opacity:1;"/>
<path d="M 956.8,79.9 L 953.8,78.2 L 950.9,80.0" style="fill:none;stroke:#000000;stroke-width:2.0px;stroke-linecap:butt;stroke-linejoin:miter;stroke-opacity:1;"/>
<path d="M 777.1,180.2 L 777.2,183.6 L 774.2,185.4" style="fill:none;stroke:#000000;stroke-width:2.0px;stroke-linecap:butt;stroke-linejoin:miter;stroke-opacity:1;"/>
<path d="M 721.2,217.0 L 718.3,218.8 L 715.3,217.1" style="fill:none;stroke:#000000;stroke-width:2.0px;stroke-linecap:butt;stroke-linejoin:miter;stroke-opacity:1;"/>
<path class="atom-0" d="M 60.9 191.7 L 63.8 188.8 L 60.0 188.0 L 60.6 186.1 L 64.1 187.8 L 63.6 184.0 L 65.6 184.0 L 65.0 187.8 L 68.6 186.1 L 69.2 188.0 L 65.3 188.7 L 68.1 191.7 L 66.4 192.9 L 64.5 189.2 L 62.6 192.9 L 60.9 191.7 " fill="#191919"/>
<path class="atom-3" d="M 234.3 225.6 Q 234.3 221.0, 236.6 218.4 Q 238.9 215.8, 243.2 215.8 Q 247.5 215.8, 249.8 218.4 Q 252.1 221.0, 252.1 225.6 Q 252.1 230.4, 249.8 233.0 Q 247.5 235.7, 243.2 235.7 Q 238.9 235.7, 236.6 233.0 Q 234.3 230.4, 234.3 225.6 M 243.2 233.5 Q 246.2 233.5, 247.8 231.5 Q 249.4 229.5, 249.4 225.6 Q 249.4 221.8, 247.8 219.9 Q 246.2 218.0, 243.2 218.0 Q 240.3 218.0, 238.6 219.9 Q 237.1 221.8, 237.1 225.6 Q 237.1 229.6, 238.6 231.5 Q 240.3 233.5, 243.2 233.5 " fill="#FF0000"/>
<path class="atom-7" d="M 471.8 222.2 Q 471.8 217.6, 474.1 215.0 Q 476.4 212.4, 480.7 212.4 Q 485.1 212.4, 487.4 215.0 Q 489.7 217.6, 489.7 222.2 Q 489.7 226.9, 487.3 229.6 Q 485.0 232.3, 480.7 232.3 Q 476.5 232.3, 474.1 229.6 Q 471.8 227.0, 471.8 222.2 M 480.7 230.1 Q 483.7 230.1, 485.3 228.1 Q 486.9 226.1, 486.9 222.2 Q 486.9 218.4, 485.3 216.5 Q 483.7 214.5, 480.7 214.5 Q 477.8 214.5, 476.2 216.5 Q 474.6 218.4, 474.6 222.2 Q 474.6 226.1, 476.2 228.1 Q 477.8 230.1, 480.7 230.1 " fill="#FF0000"/>
<path class="atom-9" d="M 529.7 118.5 Q 529.7 113.9, 532.0 111.3 Q 534.3 108.7, 538.7 108.7 Q 543.0 108.7, 545.3 111.3 Q 547.6 113.9, 547.6 118.5 Q 547.6 123.2, 545.2 125.9 Q 542.9 128.6, 538.7 128.6 Q 534.4 128.6, 532.0 125.9 Q 529.7 123.3, 529.7 118.5 M 538.7 126.4 Q 541.6 126.4, 543.2 124.4 Q 544.8 122.4, 544.8 118.5 Q 544.8 114.7, 543.2 112.8 Q 541.6 110.8, 538.7 110.8 Q 535.7 110.8, 534.1 112.8 Q 532.5 114.7, 532.5 118.5 Q 532.5 122.4, 534.1 124.4 Q 535.7 126.4, 538.7 126.4 " fill="#FF0000"/>
<path class="atom-10" d="M 595.2 210.8 L 601.6 221.0 Q 602.2 222.1, 603.2 223.9 Q 604.2 225.7, 604.3 225.8 L 604.3 210.8 L 606.9 210.8 L 606.9 230.2 L 604.2 230.2 L 597.4 218.9 Q 596.6 217.6, 595.7 216.1 Q 594.9 214.6, 594.7 214.1 L 594.7 230.2 L 592.1 230.2 L 592.1 210.8 L 595.2 210.8 " fill="#0000FF"/>
<path class="atom-10" d="M 591.9 232.1 L 594.5 232.1 L 594.5 240.4 L 604.5 240.4 L 604.5 232.1 L 607.1 232.1 L 607.1 251.5 L 604.5 251.5 L 604.5 242.6 L 594.5 242.6 L 594.5 251.5 L 591.9 251.5 L 591.9 232.1 " fill="#0000FF"/>
<path class="atom-20" d="M 1070.3 203.9 L 1076.6 214.2 Q 1077.3 215.2, 1078.3 217.1 Q 1079.3 218.9, 1079.3 219.0 L 1079.3 203.9 L 1081.9 203.9 L 1081.9 223.4 L 1079.3 223.4 L 1072.4 212.1 Q 1071.6 210.8, 1070.8 209.3 Q 1070.0 207.8, 1069.7 207.3 L 1069.7 223.4 L 1067.2 223.4 L 1067.2 203.9 L 1070.3 203.9 " fill="#0000FF"/>
<path class="atom-20" d="M 1085.7 203.9 L 1088.3 203.9 L 1088.3 212.2 L 1098.3 212.2 L 1098.3 203.9 L 1100.9 203.9 L 1100.9 223.4 L 1098.3 223.4 L 1098.3 214.4 L 1088.3 214.4 L 1088.3 223.4 L 1085.7 223.4 L 1085.7 203.9 " fill="#0000FF"/>
<path class="atom-22" d="M 1131.7 313.5 L 1134.6 310.6 L 1130.8 309.8 L 1131.4 307.9 L 1134.9 309.6 L 1134.4 305.8 L 1136.4 305.8 L 1135.9 309.6 L 1139.4 307.9 L 1140.0 309.8 L 1136.2 310.5 L 1138.9 313.5 L 1137.2 314.7 L 1135.3 311.0 L 1133.4 314.7 L 1131.7 313.5 " fill="#191919"/>
<path class="bond-0 atom-0 atom-1" d="M 183.1,631.2 L 212.6,645.5" style="fill:none;fill-rule:evenodd;stroke:#191919;stroke-width:2.0px;stroke-linecap:butt;stroke-linejoin:miter;stroke-opacity:1"/>
<path class="bond-0 atom-0 atom-1" d="M 212.6,645.5 L 242.1,659.8" style="fill:none;fill-rule:evenodd;stroke:#000000;stroke-width:2.0px;stroke-linecap:butt;stroke-linejoin:miter;stroke-opacity:1"/>
<path class="bond-1 atom-1 atom-2" d="M 242.1,659.8 L 298.9,621.3" style="fill:none;fill-rule:evenodd;stroke:#000000;stroke-width:2.0px;stroke-linecap:butt;stroke-linejoin:miter;stroke-opacity:1"/>
<path class="bond-2 atom-2 atom-3" d="M 304.2,623.9 L 302.1,594.4" style="fill:none;fill-rule:evenodd;stroke:#000000;stroke-width:2.0px;stroke-linecap:butt;stroke-linejoin:miter;stroke-opacity:1"/>
<path class="bond-2 atom-2 atom-3" d="M 302.1,594.4 L 300.0,565.0" style="fill:none;fill-rule:evenodd;stroke:#FF0000;stroke-width:2.0px;stroke-linecap:butt;stroke-linejoin:miter;stroke-opacity:1"/>
<path class="bond-2 atom-2 atom-3" d="M 294.0,624.7 L 291.9,595.2" style="fill:none;fill-rule:evenodd;stroke:#000000;stroke-width:2.0px;stroke-linecap:butt;stroke-linejoin:miter;stroke-opacity:1"/>
<path class="bond-2 atom-2 atom-3" d="M 291.9,595.2 L 289.7,565.7" style="fill:none;fill-rule:evenodd;stroke:#FF0000;stroke-width:2.0px;stroke-linecap:butt;stroke-linejoin:miter;stroke-opacity:1"/>
<path class="bond-3 atom-2 atom-4" d="M 298.9,621.3 L 324.2,633.6" style="fill:none;fill-rule:evenodd;stroke:#000000;stroke-width:2.0px;stroke-linecap:butt;stroke-linejoin:miter;stroke-opacity:1"/>
<path class="bond-3 atom-2 atom-4" d="M 324.2,633.6 L 349.4,645.8" style="fill:none;fill-rule:evenodd;stroke:#FF0000;stroke-width:2.0px;stroke-linecap:butt;stroke-linejoin:miter;stroke-opacity:1"/>
<path class="bond-4 atom-4 atom-5" d="M 371.8,643.7 L 394.6,628.3" style="fill:none;fill-rule:evenodd;stroke:#FF0000;stroke-width:2.0px;stroke-linecap:butt;stroke-linejoin:miter;stroke-opacity:1"/>
<path class="bond-4 atom-4 atom-5" d="M 394.6,628.3 L 417.4,612.8" style="fill:none;fill-rule:evenodd;stroke:#000000;stroke-width:2.0px;stroke-linecap:butt;stroke-linejoin:miter;stroke-opacity:1"/>
<path class="bond-5 atom-5 atom-6" d="M 422.7,615.4 L 420.6,585.9" style="fill:none;fill-rule:evenodd;stroke:#000000;stroke-width:2.0px;stroke-linecap:butt;stroke-linejoin:miter;stroke-opacity:1"/>
<path class="bond-5 atom-5 atom-6" d="M 420.6,585.9 L 418.5,556.4" style="fill:none;fill-rule:evenodd;stroke:#FF0000;stroke-width:2.0px;stroke-linecap:butt;stroke-linejoin:miter;stroke-opacity:1"/>
<path class="bond-5 atom-5 atom-6" d="M 412.5,616.1 L 410.3,586.6" style="fill:none;fill-rule:evenodd;stroke:#000000;stroke-width:2.0px;stroke-linecap:butt;stroke-linejoin:miter;stroke-opacity:1"/>
<path class="bond-5 atom-5 atom-6" d="M 410.3,586.6 L 408.2,557.2" style="fill:none;fill-rule:evenodd;stroke:#FF0000;stroke-width:2.0px;stroke-linecap:butt;stroke-linejoin:miter;stroke-opacity:1"/>
<path class="bond-6 atom-5 atom-7" d="M 417.4,612.8 L 443.4,625.4" style="fill:none;fill-rule:evenodd;stroke:#000000;stroke-width:2.0px;stroke-linecap:butt;stroke-linejoin:miter;stroke-opacity:1"/>
<path class="bond-6 atom-5 atom-7" d="M 443.4,625.4 L 469.4,638.1" style="fill:none;fill-rule:evenodd;stroke:#0000FF;stroke-width:2.0px;stroke-linecap:butt;stroke-linejoin:miter;stroke-opacity:1"/>
<path class="bond-7 atom-7 atom-8" d="M 488.7,636.2 L 512.3,620.2" style="fill:none;fill-rule:evenodd;stroke:#0000FF;stroke-width:2.0px;stroke-linecap:butt;stroke-linejoin:miter;stroke-opacity:1"/>
<path class="bond-7 atom-7 atom-8" d="M 512.3,620.2 L 535.8,604.3" style="fill:none;fill-rule:evenodd;stroke:#000000;stroke-width:2.0px;stroke-linecap:butt;stroke-linejoin:miter;stroke-opacity:1"/>
<path class="bond-8 atom-8 atom-9" d="M 535.8,604.3 L 530.9,535.9" style="fill:none;fill-rule:evenodd;stroke:#000000;stroke-width:2.0px;stroke-linecap:butt;stroke-linejoin:miter;stroke-opacity:1"/>
<path class="bond-8 atom-8 atom-9" d="M 545.7,597.6 L 541.6,541.0" style="fill:none;fill-rule:evenodd;stroke:#000000;stroke-width:2.0px;stroke-linecap:butt;stroke-linejoin:miter;stroke-opacity:1"/>
<path class="bond-9 atom-9 atom-10" d="M 530.9,535.9 L 587.7,497.4" style="fill:none;fill-rule:evenodd;stroke:#000000;stroke-width:2.0px;stroke-linecap:butt;stroke-linejoin:miter;stroke-opacity:1"/>
<path class="bond-10 atom-10 atom-11" d="M 587.7,497.4 L 649.4,527.3" style="fill:none;fill-rule:evenodd;stroke:#000000;stroke-width:2.0px;stroke-linecap:butt;stroke-linejoin:miter;stroke-opacity:1"/>
<path class="bond-10 atom-10 atom-11" d="M 588.5,509.2 L 639.5,534.0" style="fill:none;fill-rule:evenodd;stroke:#000000;stroke-width:2.0px;stroke-linecap:butt;stroke-linejoin:miter;stroke-opacity:1"/>
<path class="bond-11 atom-11 atom-12" d="M 649.4,527.3 L 706.1,488.9" style="fill:none;fill-rule:evenodd;stroke:#000000;stroke-width:2.0px;stroke-linecap:butt;stroke-linejoin:miter;stroke-opacity:1"/>
<path class="bond-12 atom-12 atom-13" d="M 706.1,488.9 L 767.8,518.8" style="fill:none;fill-rule:evenodd;stroke:#000000;stroke-width:2.0px;stroke-linecap:butt;stroke-linejoin:miter;stroke-opacity:1"/>
<path class="bond-13 atom-13 atom-14" d="M 767.8,518.8 L 772.8,587.2" style="fill:none;fill-rule:evenodd;stroke:#000000;stroke-width:2.0px;stroke-linecap:butt;stroke-linejoin:miter;stroke-opacity:1"/>
<path class="bond-13 atom-13 atom-14" d="M 778.5,524.0 L 782.6,580.5" style="fill:none;fill-rule:evenodd;stroke:#000000;stroke-width:2.0px;stroke-linecap:butt;stroke-linejoin:miter;stroke-opacity:1"/>
<path class="bond-14 atom-14 atom-15" d="M 772.8,587.2 L 834.5,617.1" style="fill:none;fill-rule:evenodd;stroke:#000000;stroke-width:2.0px;stroke-linecap:butt;stroke-linejoin:miter;stroke-opacity:1"/>
<path class="bond-15 atom-15 atom-16" d="M 834.5,617.1 L 891.2,578.6" style="fill:none;fill-rule:evenodd;stroke:#000000;stroke-width:2.0px;stroke-linecap:butt;stroke-linejoin:miter;stroke-opacity:1"/>
<path class="bond-15 atom-15 atom-16" d="M 833.6,605.3 L 880.5,573.5" style="fill:none;fill-rule:evenodd;stroke:#000000;stroke-width:2.0px;stroke-linecap:butt;stroke-linejoin:miter;stroke-opacity:1"/>
<path class="bond-16 atom-16 atom-17" d="M 891.2,578.6 L 917.3,591.3" style="fill:none;fill-rule:evenodd;stroke:#000000;stroke-width:2.0px;stroke-linecap:butt;stroke-linejoin:miter;stroke-opacity:1"/>
<path class="bond-16 atom-16 atom-17" d="M 917.3,591.3 L 943.3,603.9" style="fill:none;fill-rule:evenodd;stroke:#0000FF;stroke-width:2.0px;stroke-linecap:butt;stroke-linejoin:miter;stroke-opacity:1"/>
<path class="bond-17 atom-17 atom-18" d="M 953.8,620.5 L 955.8,648.7" style="fill:none;fill-rule:evenodd;stroke:#0000FF;stroke-width:2.0px;stroke-linecap:butt;stroke-linejoin:miter;stroke-opacity:1"/>
<path class="bond-17 atom-17 atom-18" d="M 955.8,648.7 L 957.9,677.0" style="fill:none;fill-rule:evenodd;stroke:#000000;stroke-width:2.0px;stroke-linecap:butt;stroke-linejoin:miter;stroke-opacity:1"/>
<path class="bond-18 atom-18 atom-19" d="M 957.9,677.0 L 985.3,690.3" style="fill:none;fill-rule:evenodd;stroke:#000000;stroke-width:2.0px;stroke-linecap:butt;stroke-linejoin:miter;stroke-opacity:1"/>
<path class="bond-18 atom-18 atom-19" d="M 985.3,690.3 L 1012.7,703.6" style="fill:none;fill-rule:evenodd;stroke:#191919;stroke-width:2.0px;stroke-linecap:butt;stroke-linejoin:miter;stroke-opacity:1"/>
<path class="bond-19 atom-18 atom-20" d="M 957.4,671.0 L 898.2,711.2" style="fill:none;fill-rule:evenodd;stroke:#000000;stroke-width:2.0px;stroke-linecap:butt;stroke-linejoin:miter;stroke-opacity:1"/>
<path class="bond-19 atom-18 atom-20" d="M 963.2,679.6 L 904.0,719.7" style="fill:none;fill-rule:evenodd;stroke:#000000;stroke-width:2.0px;stroke-linecap:butt;stroke-linejoin:miter;stroke-opacity:1"/>
<path class="bond-20 atom-16 atom-21" d="M 891.2,578.6 L 886.3,510.2" style="fill:none;fill-rule:evenodd;stroke:#000000;stroke-width:2.0px;stroke-linecap:butt;stroke-linejoin:miter;stroke-opacity:1"/>
<path class="bond-21 atom-21 atom-22" d="M 886.3,510.2 L 824.6,480.3" style="fill:none;fill-rule:evenodd;stroke:#000000;stroke-width:2.0px;stroke-linecap:butt;stroke-linejoin:miter;stroke-opacity:1"/>
<path class="bond-21 atom-21 atom-22" d="M 876.5,516.9 L 825.5,492.2" style="fill:none;fill-rule:evenodd;stroke:#000000;stroke-width:2.0px;stroke-linecap:butt;stroke-linejoin:miter;stroke-opacity:1"/>
<path class="bond-22 atom-11 atom-23" d="M 649.4,527.3 L 654.3,595.7" style="fill:none;fill-rule:evenodd;stroke:#000000;stroke-width:2.0px;stroke-linecap:butt;stroke-linejoin:miter;stroke-opacity:1"/>
<path class="bond-23 atom-23 atom-24" d="M 654.3,595.7 L 597.5,634.2" style="fill:none;fill-rule:evenodd;stroke:#000000;stroke-width:2.0px;stroke-linecap:butt;stroke-linejoin:miter;stroke-opacity:1"/>
<path class="bond-23 atom-23 atom-24" d="M 643.6,590.5 L 596.7,622.3" style="fill:none;fill-rule:evenodd;stroke:#000000;stroke-width:2.0px;stroke-linecap:butt;stroke-linejoin:miter;stroke-opacity:1"/>
<path class="bond-24 atom-24 atom-8" d="M 597.5,634.2 L 535.8,604.3" style="fill:none;fill-rule:evenodd;stroke:#000000;stroke-width:2.0px;stroke-linecap:butt;stroke-linejoin:miter;stroke-opacity:1"/>
<path class="bond-25 atom-22 atom-13" d="M 824.6,480.3 L 767.8,518.8" style="fill:none;fill-rule:evenodd;stroke:#000000;stroke-width:2.0px;stroke-linecap:butt;stroke-linejoin:miter;stroke-opacity:1"/>
<path d="M 240.7,659.1 L 242.1,659.8 L 245.0,657.9" style="fill:none;stroke:#000000;stroke-width:2.0px;stroke-linecap:butt;stroke-linejoin:miter;stroke-opacity:1;"/>
<path d="M 296.1,623.3 L 298.9,621.3 L 300.2,622.0" style="fill:none;stroke:#000000;stroke-width:2.0px;stroke-linecap:butt;stroke-linejoin:miter;stroke-opacity:1;"/>
<path d="M 416.2,613.6 L 417.4,612.8 L 418.7,613.4" style="fill:none;stroke:#000000;stroke-width:2.0px;stroke-linecap:butt;stroke-linejoin:miter;stroke-opacity:1;"/>
<path d="M 531.2,539.3 L 530.9,535.9 L 533.7,533.9" style="fill:none;stroke:#000000;stroke-width:2.0px;stroke-linecap:butt;stroke-linejoin:miter;stroke-opacity:1;"/>
<path d="M 584.8,499.3 L 587.7,497.4 L 590.8,498.9" style="fill:none;stroke:#000000;stroke-width:2.0px;stroke-linecap:butt;stroke-linejoin:miter;stroke-opacity:1;"/>
<path d="M 703.3,490.8 L 706.1,488.9 L 709.2,490.4" style="fill:none;stroke:#000000;stroke-width:2.0px;stroke-linecap:butt;stroke-linejoin:miter;stroke-opacity:1;"/>
<path d="M 772.5,583.8 L 772.8,587.2 L 775.9,588.7" style="fill:none;stroke:#000000;stroke-width:2.0px;stroke-linecap:butt;stroke-linejoin:miter;stroke-opacity:1;"/>
<path d="M 831.4,615.6 L 834.5,617.1 L 837.3,615.2" style="fill:none;stroke:#000000;stroke-width:2.0px;stroke-linecap:butt;stroke-linejoin:miter;stroke-opacity:1;"/>
<path d="M 957.8,675.5 L 957.9,677.0 L 959.2,677.6" style="fill:none;stroke:#000000;stroke-width:2.0px;stroke-linecap:butt;stroke-linejoin:miter;stroke-opacity:1;"/>
<path d="M 886.5,513.7 L 886.3,510.2 L 883.2,508.7" style="fill:none;stroke:#000000;stroke-width:2.0px;stroke-linecap:butt;stroke-linejoin:miter;stroke-opacity:1;"/>
<path d="M 827.7,481.8 L 824.6,480.3 L 821.8,482.2" style="fill:none;stroke:#000000;stroke-width:2.0px;stroke-linecap:butt;stroke-linejoin:miter;stroke-opacity:1;"/>
<path d="M 654.1,592.3 L 654.3,595.7 L 651.5,597.6" style="fill:none;stroke:#000000;stroke-width:2.0px;stroke-linecap:butt;stroke-linejoin:miter;stroke-opacity:1;"/>
<path d="M 600.4,632.3 L 597.5,634.2 L 594.4,632.7" style="fill:none;stroke:#000000;stroke-width:2.0px;stroke-linecap:butt;stroke-linejoin:miter;stroke-opacity:1;"/>
<path class="atom-0" d="M 176.8 627.7 L 179.6 624.8 L 175.8 624.0 L 176.4 622.1 L 179.9 623.9 L 179.4 620.0 L 181.5 620.0 L 180.9 623.8 L 184.4 622.2 L 185.0 624.0 L 181.2 624.8 L 183.9 627.7 L 182.3 628.9 L 180.4 625.3 L 178.5 628.9 L 176.8 627.7 " fill="#191919"/>
<path class="atom-3" d="M 285.1 553.0 Q 285.1 548.3, 287.4 545.7 Q 289.7 543.1, 294.0 543.1 Q 298.3 543.1, 300.6 545.7 Q 302.9 548.3, 302.9 553.0 Q 302.9 557.7, 300.6 560.4 Q 298.2 563.1, 294.0 563.1 Q 289.7 563.1, 287.4 560.4 Q 285.1 557.7, 285.1 553.0 M 294.0 560.9 Q 296.9 560.9, 298.5 558.9 Q 300.1 556.9, 300.1 553.0 Q 300.1 549.2, 298.5 547.3 Q 296.9 545.3, 294.0 545.3 Q 291.0 545.3, 289.4 547.2 Q 287.8 549.2, 287.8 553.0 Q 287.8 556.9, 289.4 558.9 Q 291.0 560.9, 294.0 560.9 " fill="#FF0000"/>
<path class="atom-4" d="M 351.7 651.3 Q 351.7 646.7, 354.0 644.1 Q 356.3 641.5, 360.6 641.5 Q 364.9 641.5, 367.2 644.1 Q 369.5 646.7, 369.5 651.3 Q 369.5 656.0, 367.2 658.7 Q 364.9 661.4, 360.6 661.4 Q 356.3 661.4, 354.0 658.7 Q 351.7 656.1, 351.7 651.3 M 360.6 659.2 Q 363.6 659.2, 365.2 657.2 Q 366.8 655.2, 366.8 651.3 Q 366.8 647.5, 365.2 645.6 Q 363.6 643.6, 360.6 643.6 Q 357.6 643.6, 356.0 645.6 Q 354.4 647.5, 354.4 651.3 Q 354.4 655.2, 356.0 657.2 Q 357.6 659.2, 360.6 659.2 " fill="#FF0000"/>
<path class="atom-6" d="M 403.5 544.5 Q 403.5 539.8, 405.8 537.2 Q 408.1 534.6, 412.4 534.6 Q 416.7 534.6, 419.0 537.2 Q 421.4 539.8, 421.4 544.5 Q 421.4 549.2, 419.0 551.9 Q 416.7 554.5, 412.4 554.5 Q 408.2 554.5, 405.8 551.9 Q 403.5 549.2, 403.5 544.5 M 412.4 552.3 Q 415.4 552.3, 417.0 550.4 Q 418.6 548.4, 418.6 544.5 Q 418.6 540.6, 417.0 538.7 Q 415.4 536.8, 412.4 536.8 Q 409.5 536.8, 407.9 538.7 Q 406.3 540.6, 406.3 544.5 Q 406.3 548.4, 407.9 550.4 Q 409.5 552.3, 412.4 552.3 " fill="#FF0000"/>
<path class="atom-7" d="M 474.8 633.0 L 481.1 643.3 Q 481.8 644.3, 482.8 646.2 Q 483.8 648.0, 483.9 648.1 L 483.9 633.0 L 486.4 633.0 L 486.4 652.4 L 483.8 652.4 L 476.9 641.2 Q 476.1 639.9, 475.3 638.4 Q 474.5 636.9, 474.2 636.4 L 474.2 652.4 L 471.7 652.4 L 471.7 633.0 L 474.8 633.0 " fill="#0000FF"/>
<path class="atom-7" d="M 471.5 654.4 L 474.1 654.4 L 474.1 662.6 L 484.0 662.6 L 484.0 654.4 L 486.7 654.4 L 486.7 673.8 L 484.0 673.8 L 484.0 664.8 L 474.1 664.8 L 474.1 673.8 L 471.5 673.8 L 471.5 654.4 " fill="#0000FF"/>
<path class="atom-17" d="M 948.6 598.9 L 955.0 609.1 Q 955.6 610.2, 956.6 612.0 Q 957.7 613.8, 957.7 613.9 L 957.7 598.9 L 960.3 598.9 L 960.3 618.3 L 957.6 618.3 L 950.8 607.0 Q 950.0 605.7, 949.2 604.2 Q 948.3 602.7, 948.1 602.2 L 948.1 618.3 L 945.6 618.3 L 945.6 598.9 L 948.6 598.9 " fill="#0000FF"/>
<path class="atom-17" d="M 964.1 598.9 L 966.7 598.9 L 966.7 607.1 L 976.6 607.1 L 976.6 598.9 L 979.3 598.9 L 979.3 618.3 L 976.6 618.3 L 976.6 609.3 L 966.7 609.3 L 966.7 618.3 L 964.1 618.3 L 964.1 598.9 " fill="#0000FF"/>
<path class="atom-19" d="M 1015.9 704.7 L 1018.8 701.8 L 1015.0 701.0 L 1015.5 699.1 L 1019.0 700.9 L 1018.5 697.0 L 1020.6 697.0 L 1020.0 700.8 L 1023.6 699.2 L 1024.2 701.0 L 1020.3 701.8 L 1023.1 704.7 L 1021.4 705.9 L 1019.5 702.3 L 1017.6 705.9 L 1015.9 704.7 " fill="#191919"/>
</svg>