<svg xmlns="http://www.w3.org/2000/svg" xmlns:rdkit="http://www.rdkit.org/xml" xmlns:xlink="http://www.w3.org/1999/xlink" version="1.1" baseProfile="full" xml:space="preserve" width="1200px" height="800px" viewBox="0 0 1200 800">
<!-- END OF HEADER -->
<rect style="opacity:1.0;fill:#FFFFFF;stroke:none" width="1200.0" height="800.0" x="0.0" y="0.0"> </rect>
<path class="bond-0 atom-0 atom-1" d="M 183.1,231.2 L 212.6,245.5" style="fill:none;fill-rule:evenodd;stroke:#191919;stroke-width:2.0px;stroke-linecap:butt;stroke-linejoin:miter;stroke-opacity:1"/>
<path class="bond-0 atom-0 atom-1" d="M 212.6,245.5 L 242.1,259.8" style="fill:none;fill-rule:evenodd;stroke:#000000;stroke-width:2.0px;stroke-linecap:butt;stroke-linejoin:miter;stroke-opacity:1"/>
<path class="bond-1 atom-1 atom-2" d="M 242.1,259.8 L 298.9,221.3" style="fill:none;fill-rule:evenodd;stroke:#000000;stroke-width:2.0px;stroke-linecap:butt;stroke-linejoin:miter;stroke-opacity:1"/>
<path class="bond-2 atom-2 atom-3" d="M 304.2,223.9 L 302.1,194.4" style="fill:none;fill-rule:evenodd;stroke:#000000;stroke-width:2.0px;stroke-linecap:butt;stroke-linejoin:miter;stroke-opacity:1"/>
<path class="bond-2 atom-2 atom-3" d="M 302.1,194.4 L 300.0,165.0" style="fill:none;fill-rule:evenodd;stroke:#FF0000;stroke-width:2.0px;stroke-linecap:butt;stroke-linejoin:miter;stroke-opacity:1"/>
<path class="bond-2 atom-2 atom-3" d="M 294.0,224.7 L 291.9,195.2" style="fill:none;fill-rule:evenodd;stroke:#000000;stroke-width:2.0px;stroke-linecap:butt;stroke-linejoin:miter;stroke-opacity:1"/>
<path class="bond-2 atom-2 atom-3" d="M 291.9,195.2 L 289.7,165.7" style="fill:none;fill-rule:evenodd;stroke:#FF0000;stroke-width:2.0px;stroke-linecap:butt;stroke-linejoin:miter;stroke-opacity:1"/>
<path class="bond-3 atom-2 atom-4" d="M 298.9,221.3 L 324.2,233.6" style="fill:none;fill-rule:evenodd;stroke:#000000;stroke-width:2.0px;stroke-linecap:butt;stroke-linejoin:miter;stroke-opacity:1"/>
<path class="bond-3 atom-2 atom-4" d="M 324.2,233.6 L 349.4,245.8" style="fill:none;fill-rule:evenodd;stroke:#FF0000;stroke-width:2.0px;stroke-linecap:butt;stroke-linejoin:miter;stroke-opacity:1"/>
<path class="bond-4 atom-4 atom-5" d="M 371.8,243.7 L 394.6,228.3" style="fill:none;fill-rule:evenodd;stroke:#FF0000;stroke-width:2.0px;stroke-linecap:butt;stroke-linejoin:miter;stroke-opacity:1"/>
<path class="bond-4 atom-4 atom-5" d="M 394.6,228.3 L 417.4,212.8" style="fill:none;fill-rule:evenodd;stroke:#000000;stroke-width:2.0px;stroke-linecap:butt;stroke-linejoin:miter;stroke-opacity:1"/>
<path class="bond-5 atom-5 atom-6" d="M 422.7,215.4 L 420.6,185.9" style="fill:none;fill-rule:evenodd;stroke:#000000;stroke-width:2.0px;stroke-linecap:butt;stroke-linejoin:miter;stroke-opacity:1"/>
<path class="bond-5 atom-5 atom-6" d="M 420.6,185.9 L 418.5,156.4" style="fill:none;fill-rule:evenodd;stroke:#FF0000;stroke-width:2.0px;stroke-linecap:butt;stroke-linejoin:miter;stroke-opacity:1"/>
<path class="bond-5 atom-5 atom-6" d="M 412.5,216.1 L 410.3,186.6" style="fill:none;fill-rule:evenodd;stroke:#000000;stroke-width:2.0px;stroke-linecap:butt;stroke-linejoin:miter;stroke-opacity:1"/>
<path class="bond-5 atom-5 atom-6" d="M 410.3,186.6 L 408.2,157.2" style="fill:none;fill-rule:evenodd;stroke:#FF0000;stroke-width:2.0px;stroke-linecap:butt;stroke-linejoin:miter;stroke-opacity:1"/>
<path class="bond-6 atom-5 atom-7" d="M 417.4,212.8 L 443.4,225.4" style="fill:none;fill-rule:evenodd;stroke:#000000;stroke-width:2.0px;stroke-linecap:butt;stroke-linejoin:miter;stroke-opacity:1"/>
<path class="bond-6 atom-5 atom-7" d="M 443.4,225.4 L 469.4,238.1" style="fill:none;fill-rule:evenodd;stroke:#0000FF;stroke-width:2.0px;stroke-linecap:butt;stroke-linejoin:miter;stroke-opacity:1"/>
<path class="bond-7 atom-7 atom-8" d="M 488.7,236.2 L 512.3,220.2" style="fill:none;fill-rule:evenodd;stroke:#0000FF;stroke-width:2.0px;stroke-linecap:butt;stroke-linejoin:miter;stroke-opacity:1"/>
<path class="bond-7 atom-7 atom-8" d="M 512.3,220.2 L 535.8,204.3" style="fill:none;fill-rule:evenodd;stroke:#000000;stroke-width:2.0px;stroke-linecap:butt;stroke-linejoin:miter;stroke-opacity:1"/>
<path class="bond-8 atom-8 atom-9" d="M 535.8,204.3 L 530.9,135.9" style="fill:none;fill-rule:evenodd;stroke:#000000;stroke-width:2.0px;stroke-linecap:butt;stroke-linejoin:miter;stroke-opacity:1"/>
<path class="bond-8 atom-8 atom-9" d="M 545.7,197.6 L 541.6,141.0" style="fill:none;fill-rule:evenodd;stroke:#000000;stroke-width:2.0px;stroke-linecap:butt;stroke-linejoin:miter;stroke-opacity:1"/>
<path class="bond-9 atom-9 atom-10" d="M 530.9,135.9 L 587.7,97.4" style="fill:none;fill-rule:evenodd;stroke:#000000;stroke-width:2.0px;stroke-linecap:butt;stroke-linejoin:miter;stroke-opacity:1"/>
<path class="bond-10 atom-10 atom-11" d="M 587.7,97.4 L 649.4,127.3" style="fill:none;fill-rule:evenodd;stroke:#000000;stroke-width:2.0px;stroke-linecap:butt;stroke-linejoin:miter;stroke-opacity:1"/>
<path class="bond-10 atom-10 atom-11" d="M 588.5,109.2 L 639.5,134.0" style="fill:none;fill-rule:evenodd;stroke:#000000;stroke-width:2.0px;stroke-linecap:butt;stroke-linejoin:miter;stroke-opacity:1"/>
<path class="bond-11 atom-11 atom-12" d="M 649.4,127.3 L 706.1,88.9" style="fill:none;fill-rule:evenodd;stroke:#000000;stroke-width:2.0px;stroke-linecap:butt;stroke-linejoin:miter;stroke-opacity:1"/>
<path class="bond-12 atom-12 atom-13" d="M 706.1,88.9 L 767.8,118.8" style="fill:none;fill-rule:evenodd;stroke:#000000;stroke-width:2.0px;stroke-linecap:butt;stroke-linejoin:miter;stroke-opacity:1"/>
<path class="bond-13 atom-13 atom-14" d="M 767.8,118.8 L 772.8,187.2" style="fill:none;fill-rule:evenodd;stroke:#000000;stroke-width:2.0px;stroke-linecap:butt;stroke-linejoin:miter;stroke-opacity:1"/>
<path class="bond-13 atom-13 atom-14" d="M 778.5,124.0 L 782.6,180.5" style="fill:none;fill-rule:evenodd;stroke:#000000;stroke-width:2.0px;stroke-linecap:butt;stroke-linejoin:miter;stroke-opacity:1"/>
<path class="bond-14 atom-14 atom-15" d="M 772.8,187.2 L 834.5,217.1" style="fill:none;fill-rule:evenodd;stroke:#000000;stroke-width:2.0px;stroke-linecap:butt;stroke-linejoin:miter;stroke-opacity:1"/>
<path class="bond-15 atom-15 atom-16" d="M 834.5,217.1 L 891.2,178.6" style="fill:none;fill-rule:evenodd;stroke:#000000;stroke-width:2.0px;stroke-linecap:butt;stroke-linejoin:miter;stroke-opacity:1"/>
<path class="bond-15 atom-15 atom-16" d="M 833.6,205.3 L 880.5,173.5" style="fill:none;fill-rule:evenodd;stroke:#000000;stroke-width:2.0px;stroke-linecap:butt;stroke-linejoin:miter;stroke-opacity:1"/>
<path class="bond-16 atom-16 atom-17" d="M 891.2,178.6 L 917.3,191.3" style="fill:none;fill-rule:evenodd;stroke:#000000;stroke-width:2.0px;stroke-linecap:butt;stroke-linejoin:miter;stroke-opacity:1"/>
<path class="bond-16 atom-16 atom-17" d="M 917.3,191.3 L 943.3,203.9" style="fill:none;fill-rule:evenodd;stroke:#0000FF;stroke-width:2.0px;stroke-linecap:butt;stroke-linejoin:miter;stroke-opacity:1"/>
<path class="bond-17 atom-17 atom-18" d="M 953.8,220.5 L 955.8,248.7" style="fill:none;fill-rule:evenodd;stroke:#0000FF;stroke-width:2.0px;stroke-linecap:butt;stroke-linejoin:miter;stroke-opacity:1"/>
<path class="bond-17 atom-17 atom-18" d="M 955.8,248.7 L 957.9,277.0" style="fill:none;fill-rule:evenodd;stroke:#000000;stroke-width:2.0px;stroke-linecap:butt;stroke-linejoin:miter;stroke-opacity:1"/>
<path class="bond-18 atom-18 atom-19" d="M 957.9,277.0 L 985.3,290.3" style="fill:none;fill-rule:evenodd;stroke:#000000;stroke-width:2.0px;stroke-linecap:butt;stroke-linejoin:miter;stroke-opacity:1"/>
<path class="bond-18 atom-18 atom-19" d="M 985.3,290.3 L 1012.7,303.6" style="fill:none;fill-rule:evenodd;stroke:#191919;stroke-width:2.0px;stroke-linecap:butt;stroke-linejoin:miter;stroke-opacity:1"/>
<path class="bond-19 atom-18 atom-20" d="M 957.4,271.0 L 898.2,311.2" style="fill:none;fill-rule:evenodd;stroke:#000000;stroke-width:2.0px;stroke-linecap:butt;stroke-linejoin:miter;stroke-opacity:1"/>
<path class="bond-19 atom-18 atom-20" d="M 963.2,279.6 L 904.0,319.7" style="fill:none;fill-rule:evenodd;stroke:#000000;stroke-width:2.0px;stroke-linecap:butt;stroke-linejoin:miter;stroke-opacity:1"/>
<path class="bond-20 atom-16 atom-21" d="M 891.2,178.6 L 886.3,110.2" style="fill:none;fill-rule:evenodd;stroke:#000000;stroke-width:2.0px;stroke-linecap:butt;stroke-linejoin:miter;stroke-opacity:1"/>
<path class="bond-21 atom-21 atom-22" d="M 886.3,110.2 L 824.6,80.3" style="fill:none;fill-rule:evenodd;stroke:#000000;stroke-width:2.0px;stroke-linecap:butt;stroke-linejoin:miter;stroke-opacity:1"/>
<path class="bond-21 atom-21 atom-22" d="M 876.5,116.9 L 825.5,92.2" style="fill:none;fill-rule:evenodd;stroke:#000000;stroke-width:2.0px;stroke-linecap:butt;stroke-linejoin:miter;stroke-opacity:1"/>
<path class="bond-22 atom-11 atom-23" d="M 649.4,127.3 L 654.3,195.7" style="fill:none;fill-rule:evenodd;stroke:#000000;stroke-width:2.0px;stroke-linecap:butt;stroke-linejoin:miter;stroke-opacity:1"/>
<path class="bond-23 atom-23 atom-24" d="M 654.3,195.7 L 597.5,234.2" style="fill:none;fill-rule:evenodd;stroke:#000000;stroke-width:2.0px;stroke-linecap:butt;stroke-linejoin:miter;stroke-opacity:1"/>
<path class="bond-23 atom-23 atom-24" d="M 643.6,190.5 L 596.7,222.3" style="fill:none;fill-rule:evenodd;stroke:#000000;stroke-width:2.0px;stroke-linecap:butt;stroke-linejoin:miter;stroke-opacity:1"/>
<path class="bond-24 atom-24 atom-8" d="M 597.5,234.2 L 535.8,204.3" style="fill:none;fill-rule:evenodd;stroke:#000000;stroke-width:2.0px;stroke-linecap:butt;stroke-linejoin:miter;stroke-opacity:1"/>
<path class="bond-25 atom-22 atom-13" d="M 824.6,80.3 L 767.8,118.8" style="fill:none;fill-rule:evenodd;stroke:#000000;stroke-width:2.0px;stroke-linecap:butt;stroke-linejoin:miter;stroke-opacity:1"/>
<path d="M 240.7,259.1 L 242.1,259.8 L 245.0,257.9" style="fill:none;stroke:#000000;stroke-width:2.0px;stroke-linecap:butt;stroke-linejoin:miter;stroke-opacity:1;"/>
<path d="M 296.1,223.3 L 298.9,221.3 L 300.2,222.0" style="fill:none;stroke:#000000;stroke-width:2.0px;stroke-linecap:butt;stroke-linejoin:miter;stroke-opacity:1;"/>
<path d="M 416.2,213.6 L 417.4,212.8 L 418.7,213.4" style="fill:none;stroke:#000000;stroke-width:2.0px;stroke-linecap:butt;stroke-linejoin:miter;stroke-opacity:1;"/>
<path d="M 531.2,139.3 L 530.9,135.9 L 533.7,133.9" style="fill:none;stroke:#000000;stroke-width:2.0px;stroke-linecap:butt;stroke-linejoin:miter;stroke-opacity:1;"/>
<path d="M 584.8,99.3 L 587.7,97.4 L 590.8,98.9" style="fill:none;stroke:#000000;stroke-width:2.0px;stroke-linecap:butt;stroke-linejoin:miter;stroke-opacity:1;"/>
<path d="M 703.3,90.8 L 706.1,88.9 L 709.2,90.4" style="fill:none;stroke:#000000;stroke-width:2.0px;stroke-linecap:butt;stroke-linejoin:miter;stroke-opacity:1;"/>
<path d="M 772.5,183.8 L 772.8,187.2 L 775.9,188.7" style="fill:none;stroke:#000000;stroke-width:2.0px;stroke-linecap:butt;stroke-linejoin:miter;stroke-opacity:1;"/>
<path d="M 831.4,215.6 L 834.5,217.1 L 837.3,215.2" style="fill:none;stroke:#000000;stroke-width:2.0px;stroke-linecap:butt;stroke-linejoin:miter;stroke-opacity:1;"/>
<path d="M 957.8,275.5 L 957.9,277.0 L 959.2,277.6" style="fill:none;stroke:#000000;stroke-width:2.0px;stroke-linecap:butt;stroke-linejoin:miter;stroke-opacity:1;"/>
<path d="M 886.5,113.7 L 886.3,110.2 L 883.2,108.7" style="fill:none;stroke:#000000;stroke-width:2.0px;stroke-linecap:butt;stroke-linejoin:miter;stroke-opacity:1;"/>
<path d="M 827.7,81.8 L 824.6,80.3 L 821.8,82.2" style="fill:none;stroke:#000000;stroke-width:2.0px;stroke-linecap:butt;stroke-linejoin:miter;stroke-opacity:1;"/>
<path d="M 654.1,192.3 L 654.3,195.7 L 651.5,197.6" style="fill:none;stroke:#000000;stroke-width:2.0px;stroke-linecap:butt;stroke-linejoin:miter;stroke-opacity:1;"/>
<path d="M 600.4,232.3 L 597.5,234.2 L 594.4,232.7" style="fill:none;stroke:#000000;stroke-width:2.0px;stroke-linecap:butt;stroke-linejoin:miter;stroke-opacity:1;"/>
<path class="atom-0" d="M 176.8 227.7 L 179.6 224.8 L 175.8 224.0 L 176.4 222.1 L 179.9 223.9 L 179.4 220.0 L 181.5 220.0 L 180.9 223.8 L 184.4 222.2 L 185.0 224.0 L 181.2 224.8 L 183.9 227.7 L 182.3 228.9 L 180.4 225.3 L 178.5 228.9 L 176.8 227.7 " fill="#191919"/>
<path class="atom-3" d="M 285.1 153.0 Q 285.1 148.3, 287.4 145.7 Q 289.7 143.1, 294.0 143.1 Q 298.3 143.1, 300.6 145.7 Q 302.9 148.3, 302.9 153.0 Q 302.9 157.7, 300.6 160.4 Q 298.2 163.1, 294.0 163.1 Q 289.7 163.1, 287.4 160.4 Q 285.1 157.7, 285.1 153.0 M 294.0 160.9 Q 296.9 160.9, 298.5 158.9 Q 300.1 156.9, 300.1 153.0 Q 300.1 149.2, 298.5 147.3 Q 296.9 145.3, 294.0 145.3 Q 291.0 145.3, 289.4 147.2 Q 287.8 149.2, 287.8 153.0 Q 287.8 156.9, 289.4 158.9 Q 291.0 160.9, 294.0 160.9 " fill="#FF0000"/>
<path class="atom-4" d="M 351.7 251.3 Q 351.7 246.7, 354.0 244.1 Q 356.3 241.5, 360.6 241.5 Q 364.9 241.5, 367.2 244.1 Q 369.5 246.7, 369.5 251.3 Q 369.5 256.0, 367.2 258.7 Q 364.9 261.4, 360.6 261.4 Q 356.3 261.4, 354.0 258.7 Q 351.7 256.1, 351.7 251.3 M 360.6 259.2 Q 363.6 259.2, 365.2 257.2 Q 366.8 255.2, 366.8 251.3 Q 366.8 247.5, 365.2 245.6 Q 363.6 243.6, 360.6 243.6 Q 357.6 243.6, 356.0 245.6 Q 354.4 247.5, 354.4 251.3 Q 354.4 255.2, 356.0 257.2 Q 357.6 259.2, 360.6 259.2 " fill="#FF0000"/>
<path class="atom-6" d="M 403.5 144.5 Q 403.5 139.8, 405.8 137.2 Q 408.1 134.6, 412.4 134.6 Q 416.7 134.6, 419.0 137.2 Q 421.4 139.8, 421.4 144.5 Q 421.4 149.2, 419.0 151.9 Q 416.7 154.5, 412.4 154.5 Q 408.2 154.5, 405.8 151.9 Q 403.5 149.2, 403.5 144.5 M 412.4 152.3 Q 415.4 152.3, 417.0 150.4 Q 418.6 148.4, 418.6 144.5 Q 418.6 140.6, 417.0 138.7 Q 415.4 136.8, 412.4 136.8 Q 409.5 136.8, 407.9 138.7 Q 406.3 140.6, 406.3 144.5 Q 406.3 148.4, 407.9 150.4 Q 409.5 152.3, 412.4 152.3 " fill="#FF0000"/>
<path class="atom-7" d="M 474.8 233.0 L 481.1 243.3 Q 481.8 244.3, 482.8 246.2 Q 483.8 248.0, 483.9 248.1 L 483.9 233.0 L 486.4 233.0 L 486.4 252.4 L 483.8 252.4 L 476.9 241.2 Q 476.1 239.9, 475.3 238.4 Q 474.5 236.9, 474.2 236.4 L 474.2 252.4 L 471.7 252.4 L 471.7 233.0 L 474.8 233.0 " fill="#0000FF"/>
<path class="atom-7" d="M 471.5 254.4 L 474.1 254.4 L 474.1 262.6 L 484.0 262.6 L 484.0 254.4 L 486.7 254.4 L 486.7 273.8 L 484.0 273.8 L 484.0 264.8 L 474.1 264.8 L 474.1 273.8 L 471.5 273.8 L 471.5 254.4 " fill="#0000FF"/>
<path class="atom-17" d="M 948.6 198.9 L 955.0 209.1 Q 955.6 210.2, 956.6 212.0 Q 957.7 213.8, 957.7 213.9 L 957.7 198.9 L 960.3 198.9 L 960.3 218.3 L 957.6 218.3 L 950.8 207.0 Q 950.0 205.7, 949.2 204.2 Q 948.3 202.7, 948.1 202.2 L 948.1 218.3 L 945.6 218.3 L 945.6 198.9 L 948.6 198.9 " fill="#0000FF"/>
<path class="atom-17" d="M 964.1 198.9 L 966.7 198.9 L 966.7 207.1 L 976.6 207.1 L 976.6 198.9 L 979.3 198.9 L 979.3 218.3 L 976.6 218.3 L 976.6 209.3 L 966.7 209.3 L 966.7 218.3 L 964.1 218.3 L 964.1 198.9 " fill="#0000FF"/>
<path class="atom-19" d="M 1015.9 304.7 L 1018.8 301.8 L 1015.0 301.0 L 1015.5 299.1 L 1019.0 300.9 L 1018.5 297.0 L 1020.6 297.0 L 1020.0 300.8 L 1023.6 299.2 L 1024.2 301.0 L 1020.3 301.8 L 1023.1 304.7 L 1021.4 305.9 L 1019.5 302.3 L 1017.6 305.9 L 1015.9 304.7 " fill="#191919"/>
<path class="bond-0 atom-0 atom-1" d="M 66.9,595.1 L 95.7,611.2" style="fill:none;fill-rule:evenodd;stroke:#191919;stroke-width:2.0px;stroke-linecap:butt;stroke-linejoin:miter;stroke-opacity:1"/>
<path class="bond-0 atom-0 atom-1" d="M 95.7,611.2 L 124.5,627.3" style="fill:none;fill-rule:evenodd;stroke:#000000;stroke-width:2.0px;stroke-linecap:butt;stroke-linejoin:miter;stroke-opacity:1"/>
<path class="bond-1 atom-1 atom-2" d="M 124.5,627.3 L 183.4,592.1" style="fill:none;fill-rule:evenodd;stroke:#000000;stroke-width:2.0px;stroke-linecap:butt;stroke-linejoin:miter;stroke-opacity:1"/>
<path class="bond-2 atom-2 atom-3" d="M 183.4,592.1 L 207.7,605.7" style="fill:none;fill-rule:evenodd;stroke:#000000;stroke-width:2.0px;stroke-linecap:butt;stroke-linejoin:miter;stroke-opacity:1"/>
<path class="bond-2 atom-2 atom-3" d="M 207.7,605.7 L 232.0,619.3" style="fill:none;fill-rule:evenodd;stroke:#FF0000;stroke-width:2.0px;stroke-linecap:butt;stroke-linejoin:miter;stroke-opacity:1"/>
<path class="bond-3 atom-3 atom-4" d="M 254.4,618.9 L 278.3,604.7" style="fill:none;fill-rule:evenodd;stroke:#FF0000;stroke-width:2.0px;stroke-linecap:butt;stroke-linejoin:miter;stroke-opacity:1"/>
<path class="bond-3 atom-3 atom-4" d="M 278.3,604.7 L 302.1,590.4" style="fill:none;fill-rule:evenodd;stroke:#000000;stroke-width:2.0px;stroke-linecap:butt;stroke-linejoin:miter;stroke-opacity:1"/>
<path class="bond-4 atom-4 atom-5" d="M 302.1,590.4 L 362.0,623.9" style="fill:none;fill-rule:evenodd;stroke:#000000;stroke-width:2.0px;stroke-linecap:butt;stroke-linejoin:miter;stroke-opacity:1"/>
<path class="bond-5 atom-5 atom-6" d="M 362.0,623.9 L 420.9,588.7" style="fill:none;fill-rule:evenodd;stroke:#000000;stroke-width:2.0px;stroke-linecap:butt;stroke-linejoin:miter;stroke-opacity:1"/>
<path class="bond-6 atom-6 atom-7" d="M 420.9,588.7 L 445.2,602.3" style="fill:none;fill-rule:evenodd;stroke:#000000;stroke-width:2.0px;stroke-linecap:butt;stroke-linejoin:miter;stroke-opacity:1"/>
<path class="bond-6 atom-6 atom-7" d="M 445.2,602.3 L 469.6,615.9" style="fill:none;fill-rule:evenodd;stroke:#FF0000;stroke-width:2.0px;stroke-linecap:butt;stroke-linejoin:miter;stroke-opacity:1"/>
<path class="bond-7 atom-7 atom-8" d="M 491.9,615.5 L 515.8,601.3" style="fill:none;fill-rule:evenodd;stroke:#FF0000;stroke-width:2.0px;stroke-linecap:butt;stroke-linejoin:miter;stroke-opacity:1"/>
<path class="bond-7 atom-7 atom-8" d="M 515.8,601.3 L 539.6,587.0" style="fill:none;fill-rule:evenodd;stroke:#000000;stroke-width:2.0px;stroke-linecap:butt;stroke-linejoin:miter;stroke-opacity:1"/>
<path class="bond-8 atom-8 atom-9" d="M 544.8,589.9 L 544.4,560.4" style="fill:none;fill-rule:evenodd;stroke:#000000;stroke-width:2.0px;stroke-linecap:butt;stroke-linejoin:miter;stroke-opacity:1"/>
<path class="bond-8 atom-8 atom-9" d="M 544.4,560.4 L 544.0,530.8" style="fill:none;fill-rule:evenodd;stroke:#FF0000;stroke-width:2.0px;stroke-linecap:butt;stroke-linejoin:miter;stroke-opacity:1"/>
<path class="bond-8 atom-8 atom-9" d="M 534.5,590.1 L 534.1,560.5" style="fill:none;fill-rule:evenodd;stroke:#000000;stroke-width:2.0px;stroke-linecap:butt;stroke-linejoin:miter;stroke-opacity:1"/>
<path class="bond-8 atom-8 atom-9" d="M 534.1,560.5 L 533.7,530.9" style="fill:none;fill-rule:evenodd;stroke:#FF0000;stroke-width:2.0px;stroke-linecap:butt;stroke-linejoin:miter;stroke-opacity:1"/>
<path class="bond-9 atom-8 atom-10" d="M 539.6,587.0 L 564.8,601.1" style="fill:none;fill-rule:evenodd;stroke:#000000;stroke-width:2.0px;stroke-linecap:butt;stroke-linejoin:miter;stroke-opacity:1"/>
<path class="bond-9 atom-8 atom-10" d="M 564.8,601.1 L 589.9,615.1" style="fill:none;fill-rule:evenodd;stroke:#0000FF;stroke-width:2.0px;stroke-linecap:butt;stroke-linejoin:miter;stroke-opacity:1"/>
<path class="bond-10 atom-10 atom-11" d="M 609.1,614.7 L 633.8,600.0" style="fill:none;fill-rule:evenodd;stroke:#0000FF;stroke-width:2.0px;stroke-linecap:butt;stroke-linejoin:miter;stroke-opacity:1"/>
<path class="bond-10 atom-10 atom-11" d="M 633.8,600.0 L 658.4,585.3" style="fill:none;fill-rule:evenodd;stroke:#000000;stroke-width:2.0px;stroke-linecap:butt;stroke-linejoin:miter;stroke-opacity:1"/>
<path class="bond-11 atom-11 atom-12" d="M 658.4,585.3 L 657.4,516.8" style="fill:none;fill-rule:evenodd;stroke:#000000;stroke-width:2.0px;stroke-linecap:butt;stroke-linejoin:miter;stroke-opacity:1"/>
<path class="bond-11 atom-11 atom-12" d="M 668.6,579.2 L 667.8,522.6" style="fill:none;fill-rule:evenodd;stroke:#000000;stroke-width:2.0px;stroke-linecap:butt;stroke-linejoin:miter;stroke-opacity:1"/>
<path class="bond-12 atom-12 atom-13" d="M 657.4,516.8 L 716.3,481.6" style="fill:none;fill-rule:evenodd;stroke:#000000;stroke-width:2.0px;stroke-linecap:butt;stroke-linejoin:miter;stroke-opacity:1"/>
<path class="bond-13 atom-13 atom-14" d="M 716.3,481.6 L 776.2,515.1" style="fill:none;fill-rule:evenodd;stroke:#000000;stroke-width:2.0px;stroke-linecap:butt;stroke-linejoin:miter;stroke-opacity:1"/>
<path class="bond-13 atom-13 atom-14" d="M 716.5,493.5 L 766.0,521.2" style="fill:none;fill-rule:evenodd;stroke:#000000;stroke-width:2.0px;stroke-linecap:butt;stroke-linejoin:miter;stroke-opacity:1"/>
<path class="bond-14 atom-14 atom-15" d="M 776.2,515.1 L 835.1,479.9" style="fill:none;fill-rule:evenodd;stroke:#000000;stroke-width:2.0px;stroke-linecap:butt;stroke-linejoin:miter;stroke-opacity:1"/>
<path class="bond-15 atom-15 atom-16" d="M 835.1,479.9 L 894.9,513.4" style="fill:none;fill-rule:evenodd;stroke:#000000;stroke-width:2.0px;stroke-linecap:butt;stroke-linejoin:miter;stroke-opacity:1"/>
<path class="bond-16 atom-16 atom-17" d="M 894.9,513.4 L 895.9,581.9" style="fill:none;fill-rule:evenodd;stroke:#000000;stroke-width:2.0px;stroke-linecap:butt;stroke-linejoin:miter;stroke-opacity:1"/>
<path class="bond-16 atom-16 atom-17" d="M 905.3,519.2 L 906.1,575.8" style="fill:none;fill-rule:evenodd;stroke:#000000;stroke-width:2.0px;stroke-linecap:butt;stroke-linejoin:miter;stroke-opacity:1"/>
<path class="bond-17 atom-17 atom-18" d="M 895.9,581.9 L 955.8,615.4" style="fill:none;fill-rule:evenodd;stroke:#000000;stroke-width:2.0px;stroke-linecap:butt;stroke-linejoin:miter;stroke-opacity:1"/>
<path class="bond-18 atom-18 atom-19" d="M 955.8,615.4 L 1014.7,580.2" style="fill:none;fill-rule:evenodd;stroke:#000000;stroke-width:2.0px;stroke-linecap:butt;stroke-linejoin:miter;stroke-opacity:1"/>
<path class="bond-18 atom-18 atom-19" d="M 955.6,603.5 L 1004.3,574.4" style="fill:none;fill-rule:evenodd;stroke:#000000;stroke-width:2.0px;stroke-linecap:butt;stroke-linejoin:miter;stroke-opacity:1"/>
<path class="bond-19 atom-19 atom-20" d="M 1014.7,580.2 L 1039.8,594.3" style="fill:none;fill-rule:evenodd;stroke:#000000;stroke-width:2.0px;stroke-linecap:butt;stroke-linejoin:miter;stroke-opacity:1"/>
<path class="bond-19 atom-19 atom-20" d="M 1039.8,594.3 L 1064.9,608.3" style="fill:none;fill-rule:evenodd;stroke:#0000FF;stroke-width:2.0px;stroke-linecap:butt;stroke-linejoin:miter;stroke-opacity:1"/>
<path class="bond-20 atom-20 atom-21" d="M 1074.7,625.6 L 1075.1,653.9" style="fill:none;fill-rule:evenodd;stroke:#0000FF;stroke-width:2.0px;stroke-linecap:butt;stroke-linejoin:miter;stroke-opacity:1"/>
<path class="bond-20 atom-20 atom-21" d="M 1075.1,653.9 L 1075.5,682.2" style="fill:none;fill-rule:evenodd;stroke:#000000;stroke-width:2.0px;stroke-linecap:butt;stroke-linejoin:miter;stroke-opacity:1"/>
<path class="bond-21 atom-21 atom-22" d="M 1075.5,682.2 L 1102.0,697.0" style="fill:none;fill-rule:evenodd;stroke:#000000;stroke-width:2.0px;stroke-linecap:butt;stroke-linejoin:miter;stroke-opacity:1"/>
<path class="bond-21 atom-21 atom-22" d="M 1102.0,697.0 L 1128.5,711.8" style="fill:none;fill-rule:evenodd;stroke:#191919;stroke-width:2.0px;stroke-linecap:butt;stroke-linejoin:miter;stroke-opacity:1"/>
<path class="bond-22 atom-21 atom-23" d="M 1075.4,676.3 L 1014.0,712.9" style="fill:none;fill-rule:evenodd;stroke:#000000;stroke-width:2.0px;stroke-linecap:butt;stroke-linejoin:miter;stroke-opacity:1"/>
<path class="bond-22 atom-21 atom-23" d="M 1080.7,685.1 L 1019.3,721.8" style="fill:none;fill-rule:evenodd;stroke:#000000;stroke-width:2.0px;stroke-linecap:butt;stroke-linejoin:miter;stroke-opacity:1"/>
<path class="bond-23 atom-19 atom-24" d="M 1014.7,580.2 L 1013.7,511.7" style="fill:none;fill-rule:evenodd;stroke:#000000;stroke-width:2.0px;stroke-linecap:butt;stroke-linejoin:miter;stroke-opacity:1"/>
<path class="bond-24 atom-24 atom-25" d="M 1013.7,511.7 L 953.8,478.2" style="fill:none;fill-rule:evenodd;stroke:#000000;stroke-width:2.0px;stroke-linecap:butt;stroke-linejoin:miter;stroke-opacity:1"/>
<path class="bond-24 atom-24 atom-25" d="M 1003.5,517.7 L 954.0,490.1" style="fill:none;fill-rule:evenodd;stroke:#000000;stroke-width:2.0px;stroke-linecap:butt;stroke-linejoin:miter;stroke-opacity:1"/>
<path class="bond-25 atom-14 atom-26" d="M 776.2,515.1 L 777.2,583.6" style="fill:none;fill-rule:evenodd;stroke:#000000;stroke-width:2.0px;stroke-linecap:butt;stroke-linejoin:miter;stroke-opacity:1"/>
<path class="bond-26 atom-26 atom-27" d="M 777.2,583.6 L 718.3,618.8" style="fill:none;fill-rule:evenodd;stroke:#000000;stroke-width:2.0px;stroke-linecap:butt;stroke-linejoin:miter;stroke-opacity:1"/>
<path class="bond-26 atom-26 atom-27" d="M 766.8,577.8 L 718.1,606.9" style="fill:none;fill-rule:evenodd;stroke:#000000;stroke-width:2.0px;stroke-linecap:butt;stroke-linejoin:miter;stroke-opacity:1"/>
<path class="bond-27 atom-27 atom-11" d="M 718.3,618.8 L 658.4,585.3" style="fill:none;fill-rule:evenodd;stroke:#000000;stroke-width:2.0px;stroke-linecap:butt;stroke-linejoin:miter;stroke-opacity:1"/>
<path class="bond-28 atom-25 atom-16" d="M 953.8,478.2 L 894.9,513.4" style="fill:none;fill-rule:evenodd;stroke:#000000;stroke-width:2.0px;stroke-linecap:butt;stroke-linejoin:miter;stroke-opacity:1"/>
<path d="M 123.0,626.5 L 124.5,627.3 L 127.4,625.5" style="fill:none;stroke:#000000;stroke-width:2.0px;stroke-linecap:butt;stroke-linejoin:miter;stroke-opacity:1;"/>
<path d="M 180.4,593.9 L 183.4,592.1 L 184.6,592.8" style="fill:none;stroke:#000000;stroke-width:2.0px;stroke-linecap:butt;stroke-linejoin:miter;stroke-opacity:1;"/>
<path d="M 300.9,591.2 L 302.1,590.4 L 305.1,592.1" style="fill:none;stroke:#000000;stroke-width:2.0px;stroke-linecap:butt;stroke-linejoin:miter;stroke-opacity:1;"/>
<path d="M 359.0,622.2 L 362.0,623.9 L 364.9,622.1" style="fill:none;stroke:#000000;stroke-width:2.0px;stroke-linecap:butt;stroke-linejoin:miter;stroke-opacity:1;"/>
<path d="M 417.9,590.5 L 420.9,588.7 L 422.1,589.4" style="fill:none;stroke:#000000;stroke-width:2.0px;stroke-linecap:butt;stroke-linejoin:miter;stroke-opacity:1;"/>
<path d="M 538.4,587.7 L 539.6,587.0 L 540.9,587.7" style="fill:none;stroke:#000000;stroke-width:2.0px;stroke-linecap:butt;stroke-linejoin:miter;stroke-opacity:1;"/>
<path d="M 657.5,520.2 L 657.4,516.8 L 660.4,515.0" style="fill:none;stroke:#000000;stroke-width:2.0px;stroke-linecap:butt;stroke-linejoin:miter;stroke-opacity:1;"/>
<path d="M 713.4,483.4 L 716.3,481.6 L 719.3,483.3" style="fill:none;stroke:#000000;stroke-width:2.0px;stroke-linecap:butt;stroke-linejoin:miter;stroke-opacity:1;"/>
<path d="M 832.1,481.7 L 835.1,479.9 L 838.1,481.6" style="fill:none;stroke:#000000;stroke-width:2.0px;stroke-linecap:butt;stroke-linejoin:miter;stroke-opacity:1;"/>
<path d="M 895.9,578.5 L 895.9,581.9 L 898.9,583.6" style="fill:none;stroke:#000000;stroke-width:2.0px;stroke-linecap:butt;stroke-linejoin:miter;stroke-opacity:1;"/>
<path d="M 952.8,613.7 L 955.8,615.4 L 958.7,613.6" style="fill:none;stroke:#000000;stroke-width:2.0px;stroke-linecap:butt;stroke-linejoin:miter;stroke-opacity:1;"/>
<path d="M 1075.5,680.8 L 1075.5,682.2 L 1076.9,683.0" style="fill:none;stroke:#000000;stroke-width:2.0px;stroke-linecap:butt;stroke-linejoin:miter;stroke-opacity:1;"/>
<path d="M 1013.7,515.1 L 1013.7,511.7 L 1010.7,510.0" style="fill:none;stroke:#000000;stroke-width:2.0px;stroke-linecap:butt;stroke-linejoin:miter;stroke-opacity:1;"/>
<path d="M 956.8,479.9 L 953.8,478.2 L 950.9,480.0" style="fill:none;stroke:#000000;stroke-width:2.0px;stroke-linecap:butt;stroke-linejoin:miter;stroke-opacity:1;"/>
<path d="M 777.1,580.2 L 777.2,583.6 L 774.2,585.4" style="fill:none;stroke:#000000;stroke-width:2.0px;stroke-linecap:butt;stroke-linejoin:miter;stroke-opacity:1;"/>
<path d="M 721.2,617.0 L 718.3,618.8 L 715.3,617.1" style="fill:none;stroke:#000000;stroke-width:2.0px;stroke-linecap:butt;stroke-linejoin:miter;stroke-opacity:1;"/>
<path class="atom-0" d="M 60.9 591.7 L 63.8 588.8 L 60.0 588.0 L 60.6 586.1 L 64.1 587.8 L 63.6 584.0 L 65.6 584.0 L 65.0 587.8 L 68.6 586.1 L 69.2 588.0 L 65.3 588.7 L 68.1 591.7 L 66.4 592.9 L 64.5 589.2 L 62.6 592.9 L 60.9 591.7 " fill="#191919"/>
<path class="atom-3" d="M 234.3 625.6 Q 234.3 621.0, 236.6 618.4 Q 238.9 615.8, 243.2 615.8 Q 247.5 615.8, 249.8 618.4 Q 252.1 621.0, 252.1 625.6 Q 252.1 630.4, 249.8 633.0 Q 247.5 635.7, 243.2 635.7 Q 238.9 635.7, 236.6 633.0 Q 234.3 630.4, 234.3 625.6 M 243.2 633.5 Q 246.2 633.5, 247.8 631.5 Q 249.4 629.5, 249.4 625.6 Q 249.4 621.8, 247.8 619.9 Q 246.2 618.0, 243.2 618.0 Q 240.3 618.0, 238.6 619.9 Q 237.1 621.8, 237.1 625.6 Q 237.1 629.6, 238.6 631.5 Q 240.3 633.5, 243.2 633.5 " fill="#FF0000"/>
<path class="atom-7" d="M 471.8 622.2 Q 471.8 617.6, 474.1 615.0 Q 476.4 612.4, 480.7 612.4 Q 485.1 612.4, 487.4 615.0 Q 489.7 617.6, 489.7 622.2 Q 489.7 626.9, 487.3 629.6 Q 485.0 632.3, 480.7 632.3 Q 476.5 632.3, 474.1 629.6 Q 471.8 627.0, 471.8 622.2 M 480.7 630.1 Q 483.7 630.1, 485.3 628.1 Q 486.9 626.1, 486.9 622.2 Q 486.9 618.4, 485.3 616.5 Q 483.7 614.5, 480.7 614.5 Q 477.8 614.5, 476.2 616.5 Q 474.6 618.4, 474.6 622.2 Q 474.6 626.1, 476.2 628.1 Q 477.8 630.1, 480.7 630.1 " fill="#FF0000"/>
<path class="atom-9" d="M 529.7 518.5 Q 529.7 513.9, 532.0 511.3 Q 534.3 508.7, 538.7 508.7 Q 543.0 508.7, 545.3 511.3 Q 547.6 513.9, 547.6 518.5 Q 547.6 523.2, 545.2 525.9 Q 542.9 528.6, 538.7 528.6 Q 534.4 528.6, 532.0 525.9 Q 529.7 523.3, 529.7 518.5 M 538.7 526.4 Q 541.6 526.4, 543.2 524.4 Q 544.8 522.4, 544.8 518.5 Q 544.8 514.7, 543.2 512.8 Q 541.6 510.8, 538.7 510.8 Q 535.7 510.8, 534.1 512.8 Q 532.5 514.7, 532.5 518.5 Q 532.5 522.4, 534.1 524.4 Q 535.7 526.4, 538.7 526.4 " fill="#FF0000"/>
<path class="atom-10" d="M 595.2 610.8 L 601.6 621.0 Q 602.2 622.1, 603.2 623.9 Q 604.2 625.7, 604.3 625.8 L 604.3 610.8 L 606.9 610.8 L 606.9 630.2 L 604.2 630.2 L 597.4 618.9 Q 596.6 617.6, 595.7 616.1 Q 594.9 614.6, 594.7 614.1 L 594.7 630.2 L 592.1 630.2 L 592.1 610.8 L 595.2 610.8 " fill="#0000FF"/>
<path class="atom-10" d="M 591.9 632.1 L 594.5 632.1 L 594.5 640.4 L 604.5 640.4 L 604.5 632.1 L 607.1 632.1 L 607.1 651.5 L 604.5 651.5 L 604.5 642.6 L 594.5 642.6 L 594.5 651.5 L 591.9 651.5 L 591.9 632.1 " fill="#0000FF"/>
<path class="atom-20" d="M 1070.3 603.9 L 1076.6 614.2 Q 1077.3 615.2, 1078.3 617.1 Q 1079.3 618.9, 1079.3 619.0 L 1079.3 603.9 L 1081.9 603.9 L 1081.9 623.4 L 1079.3 623.4 L 1072.4 612.1 Q 1071.6 610.8, 1070.8 609.3 Q 1070.0 607.8, 1069.7 607.3 L 1069.7 623.4 L 1067.2 623.4 L 1067.2 603.9 L 1070.3 603.9 " fill="#0000FF"/>
<path class="atom-20" d="M 1085.7 603.9 L 1088.3 603.9 L 1088.3 612.2 L 1098.3 612.2 L 1098.3 603.9 L 1100.9 603.9 L 1100.9 623.4 L 1098.3 623.4 L 1098.3 614.4 L 1088.3 614.4 L 1088.3 623.4 L 1085.7 623.4 L 1085.7 603.9 " fill="#0000FF"/>
<path class="atom-22" d="M 1131.7 713.5 L 1134.6 710.6 L 1130.8 709.8 L 1131.4 707.9 L 1134.9 709.6 L 1134.4 705.8 L 1136.4 705.8 L 1135.9 709.6 L 1139.4 707.9 L 1140.0 709.8 L 1136.2 710.5 L 1138.9 713.5 L 1137.2 714.7 L 1135.3 711.0 L 1133.4 714.7 L 1131.7 713.5 " fill="#191919"/>
</svg>