<svg xmlns="http://www.w3.org/2000/svg" xmlns:rdkit="http://www.rdkit.org/xml" xmlns:xlink="http://www.w3.org/1999/xlink" version="1.1" baseProfile="full" xml:space="preserve" width="1200px" height="1200px" viewBox="0 0 1200 1200">
<!-- END OF HEADER -->
<rect style="opacity:1.0;fill:#FFFFFF;stroke:none" width="1200.0" height="1200.0" x="0.0" y="0.0"> </rect>
<path class="bond-0 atom-0 atom-1" d="M 75.7,171.3 L 107.0,158.8" style="fill:none;fill-rule:evenodd;stroke:#191919;stroke-width:2.0px;stroke-linecap:butt;stroke-linejoin:miter;stroke-opacity:1"/>
<path class="bond-0 atom-0 atom-1" d="M 107.0,158.8 L 138.3,146.4" style="fill:none;fill-rule:evenodd;stroke:#FF0000;stroke-width:2.0px;stroke-linecap:butt;stroke-linejoin:miter;stroke-opacity:1"/>
<path class="bond-1 atom-1 atom-2" d="M 169.0,152.4 L 198.2,175.5" style="fill:none;fill-rule:evenodd;stroke:#FF0000;stroke-width:2.0px;stroke-linecap:butt;stroke-linejoin:miter;stroke-opacity:1"/>
<path class="bond-1 atom-1 atom-2" d="M 198.2,175.5 L 227.4,198.6" style="fill:none;fill-rule:evenodd;stroke:#000000;stroke-width:2.0px;stroke-linecap:butt;stroke-linejoin:miter;stroke-opacity:1"/>
<path class="bond-2 atom-2 atom-3" d="M 227.4,198.6 L 314.7,163.9" style="fill:none;fill-rule:evenodd;stroke:#000000;stroke-width:2.0px;stroke-linecap:butt;stroke-linejoin:miter;stroke-opacity:1"/>
<path class="bond-3 atom-3 atom-4" d="M 321.1,168.9 L 327.0,128.9" style="fill:none;fill-rule:evenodd;stroke:#000000;stroke-width:2.0px;stroke-linecap:butt;stroke-linejoin:miter;stroke-opacity:1"/>
<path class="bond-3 atom-3 atom-4" d="M 327.0,128.9 L 332.8,88.8" style="fill:none;fill-rule:evenodd;stroke:#FF0000;stroke-width:2.0px;stroke-linecap:butt;stroke-linejoin:miter;stroke-opacity:1"/>
<path class="bond-3 atom-3 atom-4" d="M 307.1,166.9 L 313.0,126.8" style="fill:none;fill-rule:evenodd;stroke:#000000;stroke-width:2.0px;stroke-linecap:butt;stroke-linejoin:miter;stroke-opacity:1"/>
<path class="bond-3 atom-3 atom-4" d="M 313.0,126.8 L 318.9,86.8" style="fill:none;fill-rule:evenodd;stroke:#FF0000;stroke-width:2.0px;stroke-linecap:butt;stroke-linejoin:miter;stroke-opacity:1"/>
<path class="bond-4 atom-3 atom-5" d="M 314.7,163.9 L 343.9,186.9" style="fill:none;fill-rule:evenodd;stroke:#000000;stroke-width:2.0px;stroke-linecap:butt;stroke-linejoin:miter;stroke-opacity:1"/>
<path class="bond-4 atom-3 atom-5" d="M 343.9,186.9 L 373.1,210.0" style="fill:none;fill-rule:evenodd;stroke:#FF0000;stroke-width:2.0px;stroke-linecap:butt;stroke-linejoin:miter;stroke-opacity:1"/>
<path class="bond-5 atom-5 atom-6" d="M 403.8,216.0 L 439.8,201.7" style="fill:none;fill-rule:evenodd;stroke:#FF0000;stroke-width:2.0px;stroke-linecap:butt;stroke-linejoin:miter;stroke-opacity:1"/>
<path class="bond-5 atom-5 atom-6" d="M 439.8,201.7 L 475.8,187.4" style="fill:none;fill-rule:evenodd;stroke:#000000;stroke-width:2.0px;stroke-linecap:butt;stroke-linejoin:miter;stroke-opacity:1"/>
<path class="bond-6 atom-6 atom-7" d="M 475.8,187.4 L 549.5,245.7" style="fill:none;fill-rule:evenodd;stroke:#000000;stroke-width:2.0px;stroke-linecap:butt;stroke-linejoin:miter;stroke-opacity:1"/>
<path class="bond-7 atom-7 atom-8" d="M 549.5,245.7 L 585.5,231.4" style="fill:none;fill-rule:evenodd;stroke:#000000;stroke-width:2.0px;stroke-linecap:butt;stroke-linejoin:miter;stroke-opacity:1"/>
<path class="bond-7 atom-7 atom-8" d="M 585.5,231.4 L 621.5,217.1" style="fill:none;fill-rule:evenodd;stroke:#FF0000;stroke-width:2.0px;stroke-linecap:butt;stroke-linejoin:miter;stroke-opacity:1"/>
<path class="bond-8 atom-8 atom-9" d="M 652.2,223.1 L 681.4,246.2" style="fill:none;fill-rule:evenodd;stroke:#FF0000;stroke-width:2.0px;stroke-linecap:butt;stroke-linejoin:miter;stroke-opacity:1"/>
<path class="bond-8 atom-8 atom-9" d="M 681.4,246.2 L 710.6,269.2" style="fill:none;fill-rule:evenodd;stroke:#000000;stroke-width:2.0px;stroke-linecap:butt;stroke-linejoin:miter;stroke-opacity:1"/>
<path class="bond-9 atom-9 atom-10" d="M 704.2,264.2 L 698.3,304.4" style="fill:none;fill-rule:evenodd;stroke:#000000;stroke-width:2.0px;stroke-linecap:butt;stroke-linejoin:miter;stroke-opacity:1"/>
<path class="bond-9 atom-9 atom-10" d="M 698.3,304.4 L 692.5,344.7" style="fill:none;fill-rule:evenodd;stroke:#FF0000;stroke-width:2.0px;stroke-linecap:butt;stroke-linejoin:miter;stroke-opacity:1"/>
<path class="bond-9 atom-9 atom-10" d="M 718.2,266.2 L 712.3,306.5" style="fill:none;fill-rule:evenodd;stroke:#000000;stroke-width:2.0px;stroke-linecap:butt;stroke-linejoin:miter;stroke-opacity:1"/>
<path class="bond-9 atom-9 atom-10" d="M 712.3,306.5 L 706.4,346.7" style="fill:none;fill-rule:evenodd;stroke:#FF0000;stroke-width:2.0px;stroke-linecap:butt;stroke-linejoin:miter;stroke-opacity:1"/>
<path class="bond-10 atom-9 atom-11" d="M 710.6,269.2 L 797.9,234.5" style="fill:none;fill-rule:evenodd;stroke:#000000;stroke-width:2.0px;stroke-linecap:butt;stroke-linejoin:miter;stroke-opacity:1"/>
<path class="bond-11 atom-11 atom-12" d="M 797.9,234.5 L 811.5,141.5" style="fill:none;fill-rule:evenodd;stroke:#000000;stroke-width:2.0px;stroke-linecap:butt;stroke-linejoin:miter;stroke-opacity:1"/>
<path class="bond-11 atom-11 atom-12" d="M 813.1,228.5 L 824.3,151.6" style="fill:none;fill-rule:evenodd;stroke:#000000;stroke-width:2.0px;stroke-linecap:butt;stroke-linejoin:miter;stroke-opacity:1"/>
<path class="bond-12 atom-12 atom-13" d="M 811.5,141.5 L 898.9,106.8" style="fill:none;fill-rule:evenodd;stroke:#000000;stroke-width:2.0px;stroke-linecap:butt;stroke-linejoin:miter;stroke-opacity:1"/>
<path class="bond-13 atom-13 atom-14" d="M 898.9,106.8 L 972.6,165.1" style="fill:none;fill-rule:evenodd;stroke:#000000;stroke-width:2.0px;stroke-linecap:butt;stroke-linejoin:miter;stroke-opacity:1"/>
<path class="bond-13 atom-13 atom-14" d="M 896.5,122.9 L 957.5,171.1" style="fill:none;fill-rule:evenodd;stroke:#000000;stroke-width:2.0px;stroke-linecap:butt;stroke-linejoin:miter;stroke-opacity:1"/>
<path class="bond-14 atom-14 atom-15" d="M 972.6,165.1 L 1060.0,130.3" style="fill:none;fill-rule:evenodd;stroke:#000000;stroke-width:2.0px;stroke-linecap:butt;stroke-linejoin:miter;stroke-opacity:1"/>
<path class="bond-15 atom-15 atom-16" d="M 1060.0,130.3 L 1092.1,155.8" style="fill:none;fill-rule:evenodd;stroke:#000000;stroke-width:2.0px;stroke-linecap:butt;stroke-linejoin:miter;stroke-opacity:1"/>
<path class="bond-15 atom-15 atom-16" d="M 1092.1,155.8 L 1124.3,181.2" style="fill:none;fill-rule:evenodd;stroke:#191919;stroke-width:2.0px;stroke-linecap:butt;stroke-linejoin:miter;stroke-opacity:1"/>
<path class="bond-16 atom-15 atom-17" d="M 1066.3,135.4 L 1072.2,95.4" style="fill:none;fill-rule:evenodd;stroke:#000000;stroke-width:2.0px;stroke-linecap:butt;stroke-linejoin:miter;stroke-opacity:1"/>
<path class="bond-16 atom-15 atom-17" d="M 1072.2,95.4 L 1078.1,55.3" style="fill:none;fill-rule:evenodd;stroke:#FF0000;stroke-width:2.0px;stroke-linecap:butt;stroke-linejoin:miter;stroke-opacity:1"/>
<path class="bond-16 atom-15 atom-17" d="M 1052.4,133.4 L 1058.3,93.3" style="fill:none;fill-rule:evenodd;stroke:#000000;stroke-width:2.0px;stroke-linecap:butt;stroke-linejoin:miter;stroke-opacity:1"/>
<path class="bond-16 atom-15 atom-17" d="M 1058.3,93.3 L 1064.1,53.3" style="fill:none;fill-rule:evenodd;stroke:#FF0000;stroke-width:2.0px;stroke-linecap:butt;stroke-linejoin:miter;stroke-opacity:1"/>
<path class="bond-17 atom-14 atom-18" d="M 972.6,165.1 L 959.0,258.1" style="fill:none;fill-rule:evenodd;stroke:#000000;stroke-width:2.0px;stroke-linecap:butt;stroke-linejoin:miter;stroke-opacity:1"/>
<path class="bond-18 atom-18 atom-19" d="M 959.0,258.1 L 871.7,292.8" style="fill:none;fill-rule:evenodd;stroke:#000000;stroke-width:2.0px;stroke-linecap:butt;stroke-linejoin:miter;stroke-opacity:1"/>
<path class="bond-18 atom-18 atom-19" d="M 946.3,248.0 L 874.0,276.7" style="fill:none;fill-rule:evenodd;stroke:#000000;stroke-width:2.0px;stroke-linecap:butt;stroke-linejoin:miter;stroke-opacity:1"/>
<path class="bond-19 atom-19 atom-11" d="M 871.7,292.8 L 797.9,234.5" style="fill:none;fill-rule:evenodd;stroke:#000000;stroke-width:2.0px;stroke-linecap:butt;stroke-linejoin:miter;stroke-opacity:1"/>
<path d="M 225.9,197.4 L 227.4,198.6 L 231.7,196.8" style="fill:none;stroke:#000000;stroke-width:2.0px;stroke-linecap:butt;stroke-linejoin:miter;stroke-opacity:1;"/>
<path d="M 310.3,165.6 L 314.7,163.9 L 316.2,165.0" style="fill:none;stroke:#000000;stroke-width:2.0px;stroke-linecap:butt;stroke-linejoin:miter;stroke-opacity:1;"/>
<path d="M 474.0,188.1 L 475.8,187.4 L 479.5,190.3" style="fill:none;stroke:#000000;stroke-width:2.0px;stroke-linecap:butt;stroke-linejoin:miter;stroke-opacity:1;"/>
<path d="M 545.8,242.8 L 549.5,245.7 L 551.3,245.0" style="fill:none;stroke:#000000;stroke-width:2.0px;stroke-linecap:butt;stroke-linejoin:miter;stroke-opacity:1;"/>
<path d="M 709.1,268.1 L 710.6,269.2 L 715.0,267.5" style="fill:none;stroke:#000000;stroke-width:2.0px;stroke-linecap:butt;stroke-linejoin:miter;stroke-opacity:1;"/>
<path d="M 810.9,146.2 L 811.5,141.5 L 815.9,139.8" style="fill:none;stroke:#000000;stroke-width:2.0px;stroke-linecap:butt;stroke-linejoin:miter;stroke-opacity:1;"/>
<path d="M 894.5,108.5 L 898.9,106.8 L 902.6,109.7" style="fill:none;stroke:#000000;stroke-width:2.0px;stroke-linecap:butt;stroke-linejoin:miter;stroke-opacity:1;"/>
<path d="M 1055.6,132.1 L 1060.0,130.3 L 1061.6,131.6" style="fill:none;stroke:#000000;stroke-width:2.0px;stroke-linecap:butt;stroke-linejoin:miter;stroke-opacity:1;"/>
<path d="M 959.7,253.4 L 959.0,258.1 L 954.7,259.8" style="fill:none;stroke:#000000;stroke-width:2.0px;stroke-linecap:butt;stroke-linejoin:miter;stroke-opacity:1;"/>
<path d="M 876.1,291.1 L 871.7,292.8 L 868.0,289.9" style="fill:none;stroke:#000000;stroke-width:2.0px;stroke-linecap:butt;stroke-linejoin:miter;stroke-opacity:1;"/>
<path class="atom-0" d="M 61.3 172.1 L 65.2 168.1 L 60.0 167.0 L 60.8 164.3 L 65.6 166.8 L 64.9 161.5 L 67.7 161.5 L 66.9 166.7 L 71.8 164.5 L 72.6 167.0 L 67.3 168.0 L 71.1 172.0 L 68.8 173.7 L 66.2 168.7 L 63.6 173.7 L 61.3 172.1 " fill="#191919"/>
<path class="atom-1" d="M 141.4 140.4 Q 141.4 134.0, 144.6 130.4 Q 147.7 126.8, 153.6 126.8 Q 159.5 126.8, 162.7 130.4 Q 165.9 134.0, 165.9 140.4 Q 165.9 146.8, 162.7 150.5 Q 159.5 154.2, 153.6 154.2 Q 147.8 154.2, 144.6 150.5 Q 141.4 146.9, 141.4 140.4 M 153.6 151.2 Q 157.7 151.2, 159.9 148.5 Q 162.1 145.7, 162.1 140.4 Q 162.1 135.1, 159.9 132.5 Q 157.7 129.8, 153.6 129.8 Q 149.6 129.8, 147.4 132.5 Q 145.2 135.1, 145.2 140.4 Q 145.2 145.8, 147.4 148.5 Q 149.6 151.2, 153.6 151.2 " fill="#FF0000"/>
<path class="atom-4" d="M 316.1 70.9 Q 316.1 64.5, 319.3 61.0 Q 322.4 57.4, 328.3 57.4 Q 334.2 57.4, 337.4 61.0 Q 340.5 64.5, 340.5 70.9 Q 340.5 77.4, 337.3 81.1 Q 334.1 84.7, 328.3 84.7 Q 322.4 84.7, 319.3 81.1 Q 316.1 77.4, 316.1 70.9 M 328.3 81.7 Q 332.4 81.7, 334.6 79.0 Q 336.8 76.3, 336.8 70.9 Q 336.8 65.7, 334.6 63.1 Q 332.4 60.4, 328.3 60.4 Q 324.3 60.4, 322.0 63.0 Q 319.9 65.7, 319.9 70.9 Q 319.9 76.3, 322.0 79.0 Q 324.3 81.7, 328.3 81.7 " fill="#FF0000"/>
<path class="atom-5" d="M 376.2 222.2 Q 376.2 215.8, 379.4 212.2 Q 382.6 208.7, 388.5 208.7 Q 394.4 208.7, 397.5 212.2 Q 400.7 215.8, 400.7 222.2 Q 400.7 228.7, 397.5 232.4 Q 394.3 236.0, 388.5 236.0 Q 382.6 236.0, 379.4 232.4 Q 376.2 228.7, 376.2 222.2 M 388.5 233.0 Q 392.5 233.0, 394.7 230.3 Q 396.9 227.5, 396.9 222.2 Q 396.9 217.0, 394.7 214.3 Q 392.5 211.7, 388.5 211.7 Q 384.4 211.7, 382.2 214.3 Q 380.0 216.9, 380.0 222.2 Q 380.0 227.6, 382.2 230.3 Q 384.4 233.0, 388.5 233.0 " fill="#FF0000"/>
<path class="atom-8" d="M 624.7 211.0 Q 624.7 204.6, 627.8 201.1 Q 631.0 197.5, 636.9 197.5 Q 642.8 197.5, 645.9 201.1 Q 649.1 204.6, 649.1 211.0 Q 649.1 217.5, 645.9 221.2 Q 642.7 224.8, 636.9 224.8 Q 631.0 224.8, 627.8 221.2 Q 624.7 217.5, 624.7 211.0 M 636.9 221.8 Q 640.9 221.8, 643.1 219.1 Q 645.3 216.4, 645.3 211.0 Q 645.3 205.8, 643.1 203.2 Q 640.9 200.5, 636.9 200.5 Q 632.8 200.5, 630.6 203.1 Q 628.4 205.8, 628.4 211.0 Q 628.4 216.4, 630.6 219.1 Q 632.8 221.8, 636.9 221.8 " fill="#FF0000"/>
<path class="atom-10" d="M 684.8 362.3 Q 684.8 355.9, 688.0 352.3 Q 691.1 348.8, 697.0 348.8 Q 702.9 348.8, 706.1 352.3 Q 709.2 355.9, 709.2 362.3 Q 709.2 368.8, 706.0 372.5 Q 702.8 376.1, 697.0 376.1 Q 691.1 376.1, 688.0 372.5 Q 684.8 368.8, 684.8 362.3 M 697.0 373.1 Q 701.1 373.1, 703.3 370.4 Q 705.5 367.6, 705.5 362.3 Q 705.5 357.1, 703.3 354.5 Q 701.1 351.8, 697.0 351.8 Q 693.0 351.8, 690.7 354.4 Q 688.6 357.0, 688.6 362.3 Q 688.6 367.7, 690.7 370.4 Q 693.0 373.1, 697.0 373.1 " fill="#FF0000"/>
<path class="atom-16" d="M 1128.7 185.7 L 1132.6 181.7 L 1127.4 180.6 L 1128.2 177.9 L 1133.0 180.4 L 1132.3 175.1 L 1135.1 175.1 L 1134.3 180.3 L 1139.2 178.1 L 1140.0 180.6 L 1134.7 181.6 L 1138.5 185.6 L 1136.2 187.3 L 1133.6 182.3 L 1131.0 187.3 L 1128.7 185.7 " fill="#191919"/>
<path class="atom-17" d="M 1061.3 37.4 Q 1061.3 31.0, 1064.5 27.5 Q 1067.7 23.9, 1073.6 23.9 Q 1079.5 23.9, 1082.6 27.5 Q 1085.8 31.0, 1085.8 37.4 Q 1085.8 43.9, 1082.6 47.6 Q 1079.4 51.2, 1073.6 51.2 Q 1067.7 51.2, 1064.5 47.6 Q 1061.3 43.9, 1061.3 37.4 M 1073.6 48.2 Q 1077.6 48.2, 1079.8 45.5 Q 1082.0 42.8, 1082.0 37.4 Q 1082.0 32.2, 1079.8 29.6 Q 1077.6 26.9, 1073.6 26.9 Q 1069.5 26.9, 1067.3 29.5 Q 1065.1 32.2, 1065.1 37.4 Q 1065.1 42.8, 1067.3 45.5 Q 1069.5 48.2, 1073.6 48.2 " fill="#FF0000"/>
<path class="bond-0 atom-0 atom-1" d="M 76.0,553.1 L 107.7,541.3" style="fill:none;fill-rule:evenodd;stroke:#191919;stroke-width:2.0px;stroke-linecap:butt;stroke-linejoin:miter;stroke-opacity:1"/>
<path class="bond-0 atom-0 atom-1" d="M 107.7,541.3 L 139.4,529.5" style="fill:none;fill-rule:evenodd;stroke:#FF0000;stroke-width:2.0px;stroke-linecap:butt;stroke-linejoin:miter;stroke-opacity:1"/>
<path class="bond-1 atom-1 atom-2" d="M 170.0,536.5 L 198.5,560.1" style="fill:none;fill-rule:evenodd;stroke:#FF0000;stroke-width:2.0px;stroke-linecap:butt;stroke-linejoin:miter;stroke-opacity:1"/>
<path class="bond-1 atom-1 atom-2" d="M 198.5,560.1 L 227.1,583.7" style="fill:none;fill-rule:evenodd;stroke:#000000;stroke-width:2.0px;stroke-linecap:butt;stroke-linejoin:miter;stroke-opacity:1"/>
<path class="bond-2 atom-2 atom-3" d="M 227.1,583.7 L 315.2,551.0" style="fill:none;fill-rule:evenodd;stroke:#000000;stroke-width:2.0px;stroke-linecap:butt;stroke-linejoin:miter;stroke-opacity:1"/>
<path class="bond-3 atom-3 atom-4" d="M 315.2,551.0 L 343.7,574.6" style="fill:none;fill-rule:evenodd;stroke:#000000;stroke-width:2.0px;stroke-linecap:butt;stroke-linejoin:miter;stroke-opacity:1"/>
<path class="bond-3 atom-3 atom-4" d="M 343.7,574.6 L 372.3,598.2" style="fill:none;fill-rule:evenodd;stroke:#FF0000;stroke-width:2.0px;stroke-linecap:butt;stroke-linejoin:miter;stroke-opacity:1"/>
<path class="bond-4 atom-4 atom-5" d="M 402.9,605.2 L 439.3,591.7" style="fill:none;fill-rule:evenodd;stroke:#FF0000;stroke-width:2.0px;stroke-linecap:butt;stroke-linejoin:miter;stroke-opacity:1"/>
<path class="bond-4 atom-4 atom-5" d="M 439.3,591.7 L 475.7,578.2" style="fill:none;fill-rule:evenodd;stroke:#000000;stroke-width:2.0px;stroke-linecap:butt;stroke-linejoin:miter;stroke-opacity:1"/>
<path class="bond-5 atom-5 atom-6" d="M 475.7,578.2 L 548.1,638.1" style="fill:none;fill-rule:evenodd;stroke:#000000;stroke-width:2.0px;stroke-linecap:butt;stroke-linejoin:miter;stroke-opacity:1"/>
<path class="bond-6 atom-6 atom-7" d="M 548.1,638.1 L 584.5,624.6" style="fill:none;fill-rule:evenodd;stroke:#000000;stroke-width:2.0px;stroke-linecap:butt;stroke-linejoin:miter;stroke-opacity:1"/>
<path class="bond-6 atom-6 atom-7" d="M 584.5,624.6 L 620.9,611.1" style="fill:none;fill-rule:evenodd;stroke:#FF0000;stroke-width:2.0px;stroke-linecap:butt;stroke-linejoin:miter;stroke-opacity:1"/>
<path class="bond-7 atom-7 atom-8" d="M 651.5,618.0 L 680.1,641.7" style="fill:none;fill-rule:evenodd;stroke:#FF0000;stroke-width:2.0px;stroke-linecap:butt;stroke-linejoin:miter;stroke-opacity:1"/>
<path class="bond-7 atom-7 atom-8" d="M 680.1,641.7 L 708.6,665.3" style="fill:none;fill-rule:evenodd;stroke:#000000;stroke-width:2.0px;stroke-linecap:butt;stroke-linejoin:miter;stroke-opacity:1"/>
<path class="bond-8 atom-8 atom-9" d="M 702.3,660.1 L 695.6,700.2" style="fill:none;fill-rule:evenodd;stroke:#000000;stroke-width:2.0px;stroke-linecap:butt;stroke-linejoin:miter;stroke-opacity:1"/>
<path class="bond-8 atom-8 atom-9" d="M 695.6,700.2 L 688.8,740.2" style="fill:none;fill-rule:evenodd;stroke:#FF0000;stroke-width:2.0px;stroke-linecap:butt;stroke-linejoin:miter;stroke-opacity:1"/>
<path class="bond-8 atom-8 atom-9" d="M 716.2,662.4 L 709.5,702.5" style="fill:none;fill-rule:evenodd;stroke:#000000;stroke-width:2.0px;stroke-linecap:butt;stroke-linejoin:miter;stroke-opacity:1"/>
<path class="bond-8 atom-8 atom-9" d="M 709.5,702.5 L 702.7,742.6" style="fill:none;fill-rule:evenodd;stroke:#FF0000;stroke-width:2.0px;stroke-linecap:butt;stroke-linejoin:miter;stroke-opacity:1"/>
<path class="bond-9 atom-8 atom-10" d="M 708.6,665.3 L 796.7,632.5" style="fill:none;fill-rule:evenodd;stroke:#000000;stroke-width:2.0px;stroke-linecap:butt;stroke-linejoin:miter;stroke-opacity:1"/>
<path class="bond-10 atom-10 atom-11" d="M 796.7,632.5 L 812.4,539.9" style="fill:none;fill-rule:evenodd;stroke:#000000;stroke-width:2.0px;stroke-linecap:butt;stroke-linejoin:miter;stroke-opacity:1"/>
<path class="bond-10 atom-10 atom-11" d="M 812.0,626.9 L 824.9,550.2" style="fill:none;fill-rule:evenodd;stroke:#000000;stroke-width:2.0px;stroke-linecap:butt;stroke-linejoin:miter;stroke-opacity:1"/>
<path class="bond-11 atom-11 atom-12" d="M 812.4,539.9 L 900.5,507.1" style="fill:none;fill-rule:evenodd;stroke:#000000;stroke-width:2.0px;stroke-linecap:butt;stroke-linejoin:miter;stroke-opacity:1"/>
<path class="bond-12 atom-12 atom-13" d="M 900.5,507.1 L 972.9,567.0" style="fill:none;fill-rule:evenodd;stroke:#000000;stroke-width:2.0px;stroke-linecap:butt;stroke-linejoin:miter;stroke-opacity:1"/>
<path class="bond-12 atom-12 atom-13" d="M 897.8,523.2 L 957.6,572.7" style="fill:none;fill-rule:evenodd;stroke:#000000;stroke-width:2.0px;stroke-linecap:butt;stroke-linejoin:miter;stroke-opacity:1"/>
<path class="bond-13 atom-13 atom-14" d="M 972.9,567.0 L 1061.0,534.3" style="fill:none;fill-rule:evenodd;stroke:#000000;stroke-width:2.0px;stroke-linecap:butt;stroke-linejoin:miter;stroke-opacity:1"/>
<path class="bond-14 atom-14 atom-15" d="M 1061.0,534.3 L 1092.5,560.4" style="fill:none;fill-rule:evenodd;stroke:#000000;stroke-width:2.0px;stroke-linecap:butt;stroke-linejoin:miter;stroke-opacity:1"/>
<path class="bond-14 atom-14 atom-15" d="M 1092.5,560.4 L 1124.0,586.4" style="fill:none;fill-rule:evenodd;stroke:#191919;stroke-width:2.0px;stroke-linecap:butt;stroke-linejoin:miter;stroke-opacity:1"/>
<path class="bond-15 atom-14 atom-16" d="M 1067.3,539.5 L 1074.0,499.6" style="fill:none;fill-rule:evenodd;stroke:#000000;stroke-width:2.0px;stroke-linecap:butt;stroke-linejoin:miter;stroke-opacity:1"/>
<path class="bond-15 atom-14 atom-16" d="M 1074.0,499.6 L 1080.8,459.8" style="fill:none;fill-rule:evenodd;stroke:#FF0000;stroke-width:2.0px;stroke-linecap:butt;stroke-linejoin:miter;stroke-opacity:1"/>
<path class="bond-15 atom-14 atom-16" d="M 1053.4,537.1 L 1060.1,497.3" style="fill:none;fill-rule:evenodd;stroke:#000000;stroke-width:2.0px;stroke-linecap:butt;stroke-linejoin:miter;stroke-opacity:1"/>
<path class="bond-15 atom-14 atom-16" d="M 1060.1,497.3 L 1066.9,457.4" style="fill:none;fill-rule:evenodd;stroke:#FF0000;stroke-width:2.0px;stroke-linecap:butt;stroke-linejoin:miter;stroke-opacity:1"/>
<path class="bond-16 atom-13 atom-17" d="M 972.9,567.0 L 957.2,659.7" style="fill:none;fill-rule:evenodd;stroke:#000000;stroke-width:2.0px;stroke-linecap:butt;stroke-linejoin:miter;stroke-opacity:1"/>
<path class="bond-17 atom-17 atom-18" d="M 957.2,659.7 L 869.1,692.5" style="fill:none;fill-rule:evenodd;stroke:#000000;stroke-width:2.0px;stroke-linecap:butt;stroke-linejoin:miter;stroke-opacity:1"/>
<path class="bond-17 atom-17 atom-18" d="M 944.7,649.3 L 871.8,676.4" style="fill:none;fill-rule:evenodd;stroke:#000000;stroke-width:2.0px;stroke-linecap:butt;stroke-linejoin:miter;stroke-opacity:1"/>
<path class="bond-18 atom-18 atom-10" d="M 869.1,692.5 L 796.7,632.5" style="fill:none;fill-rule:evenodd;stroke:#000000;stroke-width:2.0px;stroke-linecap:butt;stroke-linejoin:miter;stroke-opacity:1"/>
<path d="M 225.7,582.6 L 227.1,583.7 L 231.5,582.1" style="fill:none;stroke:#000000;stroke-width:2.0px;stroke-linecap:butt;stroke-linejoin:miter;stroke-opacity:1;"/>
<path d="M 310.8,552.6 L 315.2,551.0 L 316.6,552.2" style="fill:none;stroke:#000000;stroke-width:2.0px;stroke-linecap:butt;stroke-linejoin:miter;stroke-opacity:1;"/>
<path d="M 473.9,578.9 L 475.7,578.2 L 479.3,581.2" style="fill:none;stroke:#000000;stroke-width:2.0px;stroke-linecap:butt;stroke-linejoin:miter;stroke-opacity:1;"/>
<path d="M 544.5,635.1 L 548.1,638.1 L 549.9,637.4" style="fill:none;stroke:#000000;stroke-width:2.0px;stroke-linecap:butt;stroke-linejoin:miter;stroke-opacity:1;"/>
<path d="M 707.2,664.1 L 708.6,665.3 L 713.0,663.6" style="fill:none;stroke:#000000;stroke-width:2.0px;stroke-linecap:butt;stroke-linejoin:miter;stroke-opacity:1;"/>
<path d="M 811.6,544.5 L 812.4,539.9 L 816.8,538.2" style="fill:none;stroke:#000000;stroke-width:2.0px;stroke-linecap:butt;stroke-linejoin:miter;stroke-opacity:1;"/>
<path d="M 896.1,508.8 L 900.5,507.1 L 904.1,510.1" style="fill:none;stroke:#000000;stroke-width:2.0px;stroke-linecap:butt;stroke-linejoin:miter;stroke-opacity:1;"/>
<path d="M 1056.6,535.9 L 1061.0,534.3 L 1062.6,535.6" style="fill:none;stroke:#000000;stroke-width:2.0px;stroke-linecap:butt;stroke-linejoin:miter;stroke-opacity:1;"/>
<path d="M 958.0,655.1 L 957.2,659.7 L 952.8,661.4" style="fill:none;stroke:#000000;stroke-width:2.0px;stroke-linecap:butt;stroke-linejoin:miter;stroke-opacity:1;"/>
<path d="M 873.5,690.8 L 869.1,692.5 L 865.5,689.5" style="fill:none;stroke:#000000;stroke-width:2.0px;stroke-linecap:butt;stroke-linejoin:miter;stroke-opacity:1;"/>
<path class="atom-0" d="M 61.6 553.6 L 65.5 549.6 L 60.3 548.6 L 61.1 545.9 L 65.9 548.3 L 65.2 543.1 L 68.0 543.0 L 67.2 548.3 L 72.1 546.0 L 72.9 548.6 L 67.6 549.5 L 71.4 553.6 L 69.1 555.2 L 66.5 550.3 L 63.9 555.2 L 61.6 553.6 " fill="#191919"/>
<path class="atom-1" d="M 142.5 523.9 Q 142.5 517.5, 145.6 513.9 Q 148.8 510.4, 154.7 510.4 Q 160.6 510.4, 163.7 513.9 Q 166.9 517.5, 166.9 523.9 Q 166.9 530.4, 163.7 534.1 Q 160.5 537.7, 154.7 537.7 Q 148.8 537.7, 145.6 534.1 Q 142.5 530.4, 142.5 523.9 M 154.7 534.7 Q 158.7 534.7, 160.9 532.0 Q 163.1 529.2, 163.1 523.9 Q 163.1 518.7, 160.9 516.0 Q 158.7 513.4, 154.7 513.4 Q 150.6 513.4, 148.4 516.0 Q 146.2 518.6, 146.2 523.9 Q 146.2 529.3, 148.4 532.0 Q 150.6 534.7, 154.7 534.7 " fill="#FF0000"/>
<path class="atom-4" d="M 375.4 611.0 Q 375.4 604.6, 378.5 601.0 Q 381.7 597.5, 387.6 597.5 Q 393.5 597.5, 396.7 601.0 Q 399.8 604.6, 399.8 611.0 Q 399.8 617.5, 396.6 621.2 Q 393.4 624.8, 387.6 624.8 Q 381.7 624.8, 378.5 621.2 Q 375.4 617.5, 375.4 611.0 M 387.6 621.8 Q 391.7 621.8, 393.8 619.1 Q 396.1 616.3, 396.1 611.0 Q 396.1 605.8, 393.8 603.1 Q 391.7 600.5, 387.6 600.5 Q 383.5 600.5, 381.3 603.1 Q 379.1 605.7, 379.1 611.0 Q 379.1 616.4, 381.3 619.1 Q 383.5 621.8, 387.6 621.8 " fill="#FF0000"/>
<path class="atom-7" d="M 624.0 605.4 Q 624.0 599.0, 627.1 595.5 Q 630.3 591.9, 636.2 591.9 Q 642.1 591.9, 645.3 595.5 Q 648.4 599.0, 648.4 605.4 Q 648.4 611.9, 645.2 615.6 Q 642.0 619.2, 636.2 619.2 Q 630.3 619.2, 627.1 615.6 Q 624.0 611.9, 624.0 605.4 M 636.2 616.2 Q 640.3 616.2, 642.4 613.5 Q 644.7 610.8, 644.7 605.4 Q 644.7 600.2, 642.4 597.6 Q 640.3 594.9, 636.2 594.9 Q 632.1 594.9, 629.9 597.5 Q 627.7 600.2, 627.7 605.4 Q 627.7 610.8, 629.9 613.5 Q 632.1 616.2, 636.2 616.2 " fill="#FF0000"/>
<path class="atom-9" d="M 680.7 758.0 Q 680.7 751.6, 683.9 748.1 Q 687.0 744.5, 692.9 744.5 Q 698.8 744.5, 702.0 748.1 Q 705.1 751.6, 705.1 758.0 Q 705.1 764.5, 701.9 768.2 Q 698.7 771.8, 692.9 771.8 Q 687.1 771.8, 683.9 768.2 Q 680.7 764.5, 680.7 758.0 M 692.9 768.8 Q 697.0 768.8, 699.2 766.1 Q 701.4 763.4, 701.4 758.0 Q 701.4 752.8, 699.2 750.2 Q 697.0 747.5, 692.9 747.5 Q 688.9 747.5, 686.6 750.1 Q 684.5 752.8, 684.5 758.0 Q 684.5 763.4, 686.6 766.1 Q 688.9 768.8, 692.9 768.8 " fill="#FF0000"/>
<path class="atom-15" d="M 1128.4 591.3 L 1132.3 587.3 L 1127.1 586.2 L 1127.9 583.5 L 1132.7 586.0 L 1132.0 580.7 L 1134.8 580.7 L 1134.0 585.9 L 1138.9 583.7 L 1139.7 586.2 L 1134.4 587.2 L 1138.2 591.2 L 1135.9 592.9 L 1133.3 587.9 L 1130.7 592.9 L 1128.4 591.3 " fill="#191919"/>
<path class="atom-16" d="M 1064.5 441.7 Q 1064.5 435.3, 1067.6 431.7 Q 1070.8 428.2, 1076.7 428.2 Q 1082.6 428.2, 1085.8 431.7 Q 1088.9 435.3, 1088.9 441.7 Q 1088.9 448.2, 1085.7 451.9 Q 1082.5 455.5, 1076.7 455.5 Q 1070.8 455.5, 1067.6 451.9 Q 1064.5 448.2, 1064.5 441.7 M 1076.7 452.5 Q 1080.8 452.5, 1082.9 449.8 Q 1085.2 447.0, 1085.2 441.7 Q 1085.2 436.5, 1082.9 433.9 Q 1080.8 431.2, 1076.7 431.2 Q 1072.6 431.2, 1070.4 433.8 Q 1068.2 436.4, 1068.2 441.7 Q 1068.2 447.1, 1070.4 449.8 Q 1072.6 452.5, 1076.7 452.5 " fill="#FF0000"/>
<path class="bond-0 atom-0 atom-1" d="M 195.9,905.6 L 220.9,930.1" style="fill:none;fill-rule:evenodd;stroke:#191919;stroke-width:2.0px;stroke-linecap:butt;stroke-linejoin:miter;stroke-opacity:1"/>
<path class="bond-0 atom-0 atom-1" d="M 220.9,930.1 L 246.0,954.6" style="fill:none;fill-rule:evenodd;stroke:#FF0000;stroke-width:2.0px;stroke-linecap:butt;stroke-linejoin:miter;stroke-opacity:1"/>
<path class="bond-1 atom-1 atom-2" d="M 276.6,965.3 L 314.2,954.8" style="fill:none;fill-rule:evenodd;stroke:#FF0000;stroke-width:2.0px;stroke-linecap:butt;stroke-linejoin:miter;stroke-opacity:1"/>
<path class="bond-1 atom-1 atom-2" d="M 314.2,954.8 L 351.8,944.3" style="fill:none;fill-rule:evenodd;stroke:#000000;stroke-width:2.0px;stroke-linecap:butt;stroke-linejoin:miter;stroke-opacity:1"/>
<path class="bond-2 atom-2 atom-3" d="M 351.8,944.3 L 419.0,1010.0" style="fill:none;fill-rule:evenodd;stroke:#000000;stroke-width:2.0px;stroke-linecap:butt;stroke-linejoin:miter;stroke-opacity:1"/>
<path class="bond-3 atom-3 atom-4" d="M 419.0,1010.0 L 456.6,999.5" style="fill:none;fill-rule:evenodd;stroke:#000000;stroke-width:2.0px;stroke-linecap:butt;stroke-linejoin:miter;stroke-opacity:1"/>
<path class="bond-3 atom-3 atom-4" d="M 456.6,999.5 L 494.2,989.0" style="fill:none;fill-rule:evenodd;stroke:#FF0000;stroke-width:2.0px;stroke-linecap:butt;stroke-linejoin:miter;stroke-opacity:1"/>
<path class="bond-4 atom-4 atom-5" d="M 524.8,999.7 L 550.7,1025.1" style="fill:none;fill-rule:evenodd;stroke:#FF0000;stroke-width:2.0px;stroke-linecap:butt;stroke-linejoin:miter;stroke-opacity:1"/>
<path class="bond-4 atom-4 atom-5" d="M 550.7,1025.1 L 576.7,1050.4" style="fill:none;fill-rule:evenodd;stroke:#000000;stroke-width:2.0px;stroke-linecap:butt;stroke-linejoin:miter;stroke-opacity:1"/>
<path class="bond-5 atom-5 atom-6" d="M 570.9,1044.7 L 560.8,1084.0" style="fill:none;fill-rule:evenodd;stroke:#000000;stroke-width:2.0px;stroke-linecap:butt;stroke-linejoin:miter;stroke-opacity:1"/>
<path class="bond-5 atom-5 atom-6" d="M 560.8,1084.0 L 550.8,1123.2" style="fill:none;fill-rule:evenodd;stroke:#FF0000;stroke-width:2.0px;stroke-linecap:butt;stroke-linejoin:miter;stroke-opacity:1"/>
<path class="bond-5 atom-5 atom-6" d="M 584.5,1048.2 L 574.5,1087.5" style="fill:none;fill-rule:evenodd;stroke:#000000;stroke-width:2.0px;stroke-linecap:butt;stroke-linejoin:miter;stroke-opacity:1"/>
<path class="bond-5 atom-5 atom-6" d="M 574.5,1087.5 L 564.4,1126.7" style="fill:none;fill-rule:evenodd;stroke:#FF0000;stroke-width:2.0px;stroke-linecap:butt;stroke-linejoin:miter;stroke-opacity:1"/>
<path class="bond-6 atom-5 atom-7" d="M 576.7,1050.4 L 667.2,1025.1" style="fill:none;fill-rule:evenodd;stroke:#000000;stroke-width:2.0px;stroke-linecap:butt;stroke-linejoin:miter;stroke-opacity:1"/>
<path class="bond-7 atom-7 atom-8" d="M 667.2,1025.1 L 690.5,934.1" style="fill:none;fill-rule:evenodd;stroke:#000000;stroke-width:2.0px;stroke-linecap:butt;stroke-linejoin:miter;stroke-opacity:1"/>
<path class="bond-7 atom-7 atom-8" d="M 682.9,1020.7 L 702.1,945.5" style="fill:none;fill-rule:evenodd;stroke:#000000;stroke-width:2.0px;stroke-linecap:butt;stroke-linejoin:miter;stroke-opacity:1"/>
<path class="bond-8 atom-8 atom-9" d="M 690.5,934.1 L 781.0,908.7" style="fill:none;fill-rule:evenodd;stroke:#000000;stroke-width:2.0px;stroke-linecap:butt;stroke-linejoin:miter;stroke-opacity:1"/>
<path class="bond-9 atom-9 atom-10" d="M 781.0,908.7 L 848.2,974.5" style="fill:none;fill-rule:evenodd;stroke:#000000;stroke-width:2.0px;stroke-linecap:butt;stroke-linejoin:miter;stroke-opacity:1"/>
<path class="bond-9 atom-9 atom-10" d="M 777.0,924.5 L 832.5,978.9" style="fill:none;fill-rule:evenodd;stroke:#000000;stroke-width:2.0px;stroke-linecap:butt;stroke-linejoin:miter;stroke-opacity:1"/>
<path class="bond-10 atom-10 atom-11" d="M 848.2,974.5 L 938.7,949.2" style="fill:none;fill-rule:evenodd;stroke:#000000;stroke-width:2.0px;stroke-linecap:butt;stroke-linejoin:miter;stroke-opacity:1"/>
<path class="bond-11 atom-11 atom-12" d="M 938.7,949.2 L 967.6,977.4" style="fill:none;fill-rule:evenodd;stroke:#000000;stroke-width:2.0px;stroke-linecap:butt;stroke-linejoin:miter;stroke-opacity:1"/>
<path class="bond-11 atom-11 atom-12" d="M 967.6,977.4 L 996.5,1005.7" style="fill:none;fill-rule:evenodd;stroke:#191919;stroke-width:2.0px;stroke-linecap:butt;stroke-linejoin:miter;stroke-opacity:1"/>
<path class="bond-12 atom-11 atom-13" d="M 944.5,954.8 L 954.5,915.8" style="fill:none;fill-rule:evenodd;stroke:#000000;stroke-width:2.0px;stroke-linecap:butt;stroke-linejoin:miter;stroke-opacity:1"/>
<path class="bond-12 atom-11 atom-13" d="M 954.5,915.8 L 964.5,876.8" style="fill:none;fill-rule:evenodd;stroke:#FF0000;stroke-width:2.0px;stroke-linecap:butt;stroke-linejoin:miter;stroke-opacity:1"/>
<path class="bond-12 atom-11 atom-13" d="M 930.9,951.3 L 940.9,912.3" style="fill:none;fill-rule:evenodd;stroke:#000000;stroke-width:2.0px;stroke-linecap:butt;stroke-linejoin:miter;stroke-opacity:1"/>
<path class="bond-12 atom-11 atom-13" d="M 940.9,912.3 L 950.9,873.3" style="fill:none;fill-rule:evenodd;stroke:#FF0000;stroke-width:2.0px;stroke-linecap:butt;stroke-linejoin:miter;stroke-opacity:1"/>
<path class="bond-13 atom-10 atom-14" d="M 848.2,974.5 L 824.9,1065.5" style="fill:none;fill-rule:evenodd;stroke:#000000;stroke-width:2.0px;stroke-linecap:butt;stroke-linejoin:miter;stroke-opacity:1"/>
<path class="bond-14 atom-14 atom-15" d="M 824.9,1065.5 L 734.4,1090.8" style="fill:none;fill-rule:evenodd;stroke:#000000;stroke-width:2.0px;stroke-linecap:butt;stroke-linejoin:miter;stroke-opacity:1"/>
<path class="bond-14 atom-14 atom-15" d="M 813.2,1054.1 L 738.4,1075.1" style="fill:none;fill-rule:evenodd;stroke:#000000;stroke-width:2.0px;stroke-linecap:butt;stroke-linejoin:miter;stroke-opacity:1"/>
<path class="bond-15 atom-15 atom-7" d="M 734.4,1090.8 L 667.2,1025.1" style="fill:none;fill-rule:evenodd;stroke:#000000;stroke-width:2.0px;stroke-linecap:butt;stroke-linejoin:miter;stroke-opacity:1"/>
<path d="M 349.9,944.8 L 351.8,944.3 L 355.1,947.6" style="fill:none;stroke:#000000;stroke-width:2.0px;stroke-linecap:butt;stroke-linejoin:miter;stroke-opacity:1;"/>
<path d="M 415.6,1006.7 L 419.0,1010.0 L 420.9,1009.5" style="fill:none;stroke:#000000;stroke-width:2.0px;stroke-linecap:butt;stroke-linejoin:miter;stroke-opacity:1;"/>
<path d="M 575.4,1049.2 L 576.7,1050.4 L 581.2,1049.2" style="fill:none;stroke:#000000;stroke-width:2.0px;stroke-linecap:butt;stroke-linejoin:miter;stroke-opacity:1;"/>
<path d="M 689.3,938.6 L 690.5,934.1 L 695.0,932.8" style="fill:none;stroke:#000000;stroke-width:2.0px;stroke-linecap:butt;stroke-linejoin:miter;stroke-opacity:1;"/>
<path d="M 776.5,910.0 L 781.0,908.7 L 784.4,912.0" style="fill:none;stroke:#000000;stroke-width:2.0px;stroke-linecap:butt;stroke-linejoin:miter;stroke-opacity:1;"/>
<path d="M 934.2,950.4 L 938.7,949.2 L 940.2,950.6" style="fill:none;stroke:#000000;stroke-width:2.0px;stroke-linecap:butt;stroke-linejoin:miter;stroke-opacity:1;"/>
<path d="M 826.0,1061.0 L 824.9,1065.5 L 820.4,1066.8" style="fill:none;stroke:#000000;stroke-width:2.0px;stroke-linecap:butt;stroke-linejoin:miter;stroke-opacity:1;"/>
<path d="M 738.9,1089.6 L 734.4,1090.8 L 731.0,1087.6" style="fill:none;stroke:#000000;stroke-width:2.0px;stroke-linecap:butt;stroke-linejoin:miter;stroke-opacity:1;"/>
<path class="atom-0" d="M 189.1 900.9 L 193.0 896.9 L 187.8 895.9 L 188.6 893.2 L 193.4 895.6 L 192.7 890.4 L 195.5 890.4 L 194.7 895.6 L 199.6 893.3 L 200.4 895.9 L 195.1 896.9 L 198.9 900.9 L 196.6 902.5 L 194.0 897.6 L 191.4 902.5 L 189.1 900.9 " fill="#191919"/>
<path class="atom-1" d="M 249.1 969.7 Q 249.1 963.3, 252.2 959.7 Q 255.4 956.2, 261.3 956.2 Q 267.2 956.2, 270.3 959.7 Q 273.5 963.3, 273.5 969.7 Q 273.5 976.2, 270.3 979.9 Q 267.1 983.5, 261.3 983.5 Q 255.4 983.5, 252.2 979.9 Q 249.1 976.2, 249.1 969.7 M 261.3 980.5 Q 265.3 980.5, 267.5 977.8 Q 269.7 975.0, 269.7 969.7 Q 269.7 964.5, 267.5 961.8 Q 265.3 959.2, 261.3 959.2 Q 257.2 959.2, 255.0 961.8 Q 252.8 964.4, 252.8 969.7 Q 252.8 975.1, 255.0 977.8 Q 257.2 980.5, 261.3 980.5 " fill="#FF0000"/>
<path class="atom-4" d="M 497.3 984.8 Q 497.3 978.4, 500.4 974.8 Q 503.6 971.3, 509.5 971.3 Q 515.4 971.3, 518.5 974.8 Q 521.7 978.4, 521.7 984.8 Q 521.7 991.3, 518.5 994.9 Q 515.3 998.6, 509.5 998.6 Q 503.6 998.6, 500.4 994.9 Q 497.3 991.3, 497.3 984.8 M 509.5 995.6 Q 513.5 995.6, 515.7 992.9 Q 517.9 990.1, 517.9 984.8 Q 517.9 979.6, 515.7 976.9 Q 513.5 974.3, 509.5 974.3 Q 505.4 974.3, 503.2 976.9 Q 501.0 979.5, 501.0 984.8 Q 501.0 990.2, 503.2 992.9 Q 505.4 995.6, 509.5 995.6 " fill="#FF0000"/>
<path class="atom-6" d="M 541.1 1141.6 Q 541.1 1135.2, 544.3 1131.6 Q 547.4 1128.0, 553.3 1128.0 Q 559.2 1128.0, 562.4 1131.6 Q 565.6 1135.2, 565.6 1141.6 Q 565.6 1148.0, 562.4 1151.7 Q 559.2 1155.4, 553.3 1155.4 Q 547.5 1155.4, 544.3 1151.7 Q 541.1 1148.1, 541.1 1141.6 M 553.3 1152.3 Q 557.4 1152.3, 559.6 1149.6 Q 561.8 1146.9, 561.8 1141.6 Q 561.8 1136.3, 559.6 1133.7 Q 557.4 1131.0, 553.3 1131.0 Q 549.3 1131.0, 547.1 1133.7 Q 544.9 1136.3, 544.9 1141.6 Q 544.9 1146.9, 547.1 1149.6 Q 549.3 1152.3, 553.3 1152.3 " fill="#FF0000"/>
<path class="atom-12" d="M 1000.9 1011.9 L 1004.8 1007.9 L 999.6 1006.9 L 1000.4 1004.2 L 1005.2 1006.6 L 1004.5 1001.4 L 1007.3 1001.3 L 1006.5 1006.6 L 1011.4 1004.3 L 1012.2 1006.9 L 1006.9 1007.8 L 1010.7 1011.9 L 1008.4 1013.5 L 1005.8 1008.6 L 1003.2 1013.5 L 1000.9 1011.9 " fill="#191919"/>
<path class="atom-13" d="M 949.8 858.2 Q 949.8 851.8, 953.0 848.2 Q 956.1 844.6, 962.0 844.6 Q 968.0 844.6, 971.1 848.2 Q 974.3 851.8, 974.3 858.2 Q 974.3 864.6, 971.1 868.3 Q 967.9 872.0, 962.0 872.0 Q 956.2 872.0, 953.0 868.3 Q 949.8 864.7, 949.8 858.2 M 962.0 869.0 Q 966.1 869.0, 968.3 866.3 Q 970.5 863.5, 970.5 858.2 Q 970.5 853.0, 968.3 850.3 Q 966.1 847.7, 962.0 847.7 Q 958.0 847.7, 955.8 850.3 Q 953.6 852.9, 953.6 858.2 Q 953.6 863.6, 955.8 866.3 Q 958.0 869.0, 962.0 869.0 " fill="#FF0000"/>
</svg>