<svg xmlns="http://www.w3.org/2000/svg" xmlns:rdkit="http://www.rdkit.org/xml" xmlns:xlink="http://www.w3.org/1999/xlink" version="1.1" baseProfile="full" xml:space="preserve" width="1200px" height="1200px" viewBox="0 0 1200 1200">
<!-- END OF HEADER -->
<rect style="opacity:1.0;fill:#FFFFFF;stroke:none" width="1200.0" height="1200.0" x="0.0" y="0.0"> </rect>
<path class="bond-0 atom-0 atom-1" d="M 795.3,153.2 L 768.7,199.3" style="fill:none;fill-rule:evenodd;stroke:#191919;stroke-width:2.0px;stroke-linecap:butt;stroke-linejoin:miter;stroke-opacity:1"/>
<path class="bond-0 atom-0 atom-1" d="M 768.7,199.3 L 742.1,245.4" style="fill:none;fill-rule:evenodd;stroke:#FF0000;stroke-width:2.0px;stroke-linecap:butt;stroke-linejoin:miter;stroke-opacity:1"/>
<path class="bond-1 atom-1 atom-2" d="M 714.0,264.0 L 657.0,264.0" style="fill:none;fill-rule:evenodd;stroke:#FF0000;stroke-width:2.0px;stroke-linecap:butt;stroke-linejoin:miter;stroke-opacity:1"/>
<path class="bond-1 atom-1 atom-2" d="M 657.0,264.0 L 600.0,264.0" style="fill:none;fill-rule:evenodd;stroke:#000000;stroke-width:2.0px;stroke-linecap:butt;stroke-linejoin:miter;stroke-opacity:1"/>
<path class="bond-2 atom-2 atom-3" d="M 600.0,264.0 L 534.3,377.8" style="fill:none;fill-rule:evenodd;stroke:#000000;stroke-width:2.0px;stroke-linecap:butt;stroke-linejoin:miter;stroke-opacity:1"/>
<path class="bond-3 atom-2 atom-4" d="M 600.0,264.0 L 534.3,150.3" style="fill:none;fill-rule:evenodd;stroke:#000000;stroke-width:2.0px;stroke-linecap:butt;stroke-linejoin:miter;stroke-opacity:1"/>
<path class="bond-4 atom-4 atom-5" d="M 534.3,150.3 L 474.2,150.3" style="fill:none;fill-rule:evenodd;stroke:#000000;stroke-width:2.0px;stroke-linecap:butt;stroke-linejoin:miter;stroke-opacity:1"/>
<path class="bond-4 atom-4 atom-5" d="M 474.2,150.3 L 414.0,150.3" style="fill:none;fill-rule:evenodd;stroke:#191919;stroke-width:2.0px;stroke-linecap:butt;stroke-linejoin:miter;stroke-opacity:1"/>
<path class="bond-5 atom-4 atom-6" d="M 540.0,160.1 L 568.8,110.4" style="fill:none;fill-rule:evenodd;stroke:#000000;stroke-width:2.0px;stroke-linecap:butt;stroke-linejoin:miter;stroke-opacity:1"/>
<path class="bond-5 atom-4 atom-6" d="M 568.8,110.4 L 597.5,60.6" style="fill:none;fill-rule:evenodd;stroke:#FF0000;stroke-width:2.0px;stroke-linecap:butt;stroke-linejoin:miter;stroke-opacity:1"/>
<path class="bond-5 atom-4 atom-6" d="M 523.0,150.3 L 551.7,100.5" style="fill:none;fill-rule:evenodd;stroke:#000000;stroke-width:2.0px;stroke-linecap:butt;stroke-linejoin:miter;stroke-opacity:1"/>
<path class="bond-5 atom-4 atom-6" d="M 551.7,100.5 L 580.4,50.7" style="fill:none;fill-rule:evenodd;stroke:#FF0000;stroke-width:2.0px;stroke-linecap:butt;stroke-linejoin:miter;stroke-opacity:1"/>
<path d="M 537.6,156.0 L 534.3,150.3 L 531.3,150.3" style="fill:none;stroke:#000000;stroke-width:2.0px;stroke-linecap:butt;stroke-linejoin:miter;stroke-opacity:1;"/>
<path class="atom-0" d="M 791.6 147.1 L 795.8 142.9 L 790.3 141.8 L 791.1 138.9 L 796.2 141.5 L 795.5 135.9 L 798.5 135.9 L 797.6 141.5 L 802.8 139.1 L 803.7 141.8 L 798.1 142.8 L 802.1 147.1 L 799.6 148.9 L 796.9 143.6 L 794.1 148.9 L 791.6 147.1 " fill="#191919"/>
<path class="atom-1" d="M 718.3 264.1 Q 718.3 257.3, 721.7 253.5 Q 725.0 249.7, 731.3 249.7 Q 737.6 249.7, 741.0 253.5 Q 744.3 257.3, 744.3 264.1 Q 744.3 271.0, 740.9 274.9 Q 737.5 278.8, 731.3 278.8 Q 725.1 278.8, 721.7 274.9 Q 718.3 271.0, 718.3 264.1 M 731.3 275.6 Q 735.6 275.6, 738.0 272.7 Q 740.3 269.8, 740.3 264.1 Q 740.3 258.5, 738.0 255.7 Q 735.6 252.9, 731.3 252.9 Q 727.0 252.9, 724.6 255.7 Q 722.3 258.5, 722.3 264.1 Q 722.3 269.8, 724.6 272.7 Q 727.0 275.6, 731.3 275.6 " fill="#FF0000"/>
<path class="atom-5" d="M 397.7 147.1 L 401.8 142.9 L 396.3 141.8 L 397.2 138.9 L 402.2 141.5 L 401.5 135.9 L 404.5 135.9 L 403.7 141.5 L 408.8 139.1 L 409.7 141.8 L 404.1 142.8 L 408.1 147.1 L 405.7 148.9 L 402.9 143.6 L 400.1 148.9 L 397.7 147.1 " fill="#191919"/>
<path class="atom-6" d="M 587.0 36.6 Q 587.0 29.8, 590.4 26.0 Q 593.7 22.2, 600.0 22.2 Q 606.3 22.2, 609.6 26.0 Q 613.0 29.8, 613.0 36.6 Q 613.0 43.5, 609.6 47.4 Q 606.2 51.3, 600.0 51.3 Q 593.8 51.3, 590.4 47.4 Q 587.0 43.6, 587.0 36.6 M 600.0 48.1 Q 604.3 48.1, 606.6 45.2 Q 609.0 42.3, 609.0 36.6 Q 609.0 31.1, 606.6 28.3 Q 604.3 25.4, 600.0 25.4 Q 595.7 25.4, 593.3 28.2 Q 591.0 31.0, 591.0 36.6 Q 591.0 42.4, 593.3 45.2 Q 595.7 48.1, 600.0 48.1 " fill="#FF0000"/>
<path class="bond-0 atom-0 atom-1" d="M 385.9,644.5 L 432.6,625.8" style="fill:none;fill-rule:evenodd;stroke:#191919;stroke-width:2.0px;stroke-linecap:butt;stroke-linejoin:miter;stroke-opacity:1"/>
<path class="bond-0 atom-0 atom-1" d="M 432.6,625.8 L 479.4,607.0" style="fill:none;fill-rule:evenodd;stroke:#FF0000;stroke-width:2.0px;stroke-linecap:butt;stroke-linejoin:miter;stroke-opacity:1"/>
<path class="bond-1 atom-1 atom-2" d="M 514.1,613.7 L 557.0,647.4" style="fill:none;fill-rule:evenodd;stroke:#FF0000;stroke-width:2.0px;stroke-linecap:butt;stroke-linejoin:miter;stroke-opacity:1"/>
<path class="bond-1 atom-1 atom-2" d="M 557.0,647.4 L 600.0,681.2" style="fill:none;fill-rule:evenodd;stroke:#000000;stroke-width:2.0px;stroke-linecap:butt;stroke-linejoin:miter;stroke-opacity:1"/>
<path class="bond-2 atom-2 atom-3" d="M 600.0,681.2 L 721.9,632.3" style="fill:none;fill-rule:evenodd;stroke:#000000;stroke-width:2.0px;stroke-linecap:butt;stroke-linejoin:miter;stroke-opacity:1"/>
<path class="bond-3 atom-3 atom-4" d="M 721.9,632.3 L 768.0,668.5" style="fill:none;fill-rule:evenodd;stroke:#000000;stroke-width:2.0px;stroke-linecap:butt;stroke-linejoin:miter;stroke-opacity:1"/>
<path class="bond-3 atom-3 atom-4" d="M 768.0,668.5 L 814.1,704.8" style="fill:none;fill-rule:evenodd;stroke:#191919;stroke-width:2.0px;stroke-linecap:butt;stroke-linejoin:miter;stroke-opacity:1"/>
<path class="bond-4 atom-3 atom-5" d="M 730.8,639.3 L 739.2,581.1" style="fill:none;fill-rule:evenodd;stroke:#000000;stroke-width:2.0px;stroke-linecap:butt;stroke-linejoin:miter;stroke-opacity:1"/>
<path class="bond-4 atom-3 atom-5" d="M 739.2,581.1 L 747.5,522.8" style="fill:none;fill-rule:evenodd;stroke:#FF0000;stroke-width:2.0px;stroke-linecap:butt;stroke-linejoin:miter;stroke-opacity:1"/>
<path class="bond-4 atom-3 atom-5" d="M 711.3,636.6 L 719.7,578.3" style="fill:none;fill-rule:evenodd;stroke:#000000;stroke-width:2.0px;stroke-linecap:butt;stroke-linejoin:miter;stroke-opacity:1"/>
<path class="bond-4 atom-3 atom-5" d="M 719.7,578.3 L 728.0,520.0" style="fill:none;fill-rule:evenodd;stroke:#FF0000;stroke-width:2.0px;stroke-linecap:butt;stroke-linejoin:miter;stroke-opacity:1"/>
<path d="M 597.9,679.5 L 600.0,681.2 L 606.1,678.8" style="fill:none;stroke:#000000;stroke-width:2.0px;stroke-linecap:butt;stroke-linejoin:miter;stroke-opacity:1;"/>
<path d="M 715.8,634.8 L 721.9,632.3 L 724.2,634.1" style="fill:none;stroke:#000000;stroke-width:2.0px;stroke-linecap:butt;stroke-linejoin:miter;stroke-opacity:1;"/>
<path class="atom-0" d="M 369.5 645.8 L 373.7 641.5 L 368.1 640.4 L 369.0 637.6 L 374.1 640.1 L 373.3 634.6 L 376.3 634.5 L 375.5 640.1 L 380.7 637.7 L 381.5 640.4 L 375.9 641.5 L 379.9 645.7 L 377.5 647.5 L 374.7 642.2 L 371.9 647.5 L 369.5 645.8 " fill="#191919"/>
<path class="atom-1" d="M 483.7 600.2 Q 483.7 593.4, 487.1 589.6 Q 490.4 585.8, 496.7 585.8 Q 503.0 585.8, 506.4 589.6 Q 509.7 593.4, 509.7 600.2 Q 509.7 607.0, 506.3 611.0 Q 502.9 614.8, 496.7 614.8 Q 490.5 614.8, 487.1 611.0 Q 483.7 607.1, 483.7 600.2 M 496.7 611.6 Q 501.0 611.6, 503.4 608.8 Q 505.7 605.8, 505.7 600.2 Q 505.7 594.6, 503.4 591.8 Q 501.0 589.0, 496.7 589.0 Q 492.4 589.0, 490.0 591.8 Q 487.7 594.6, 487.7 600.2 Q 487.7 605.9, 490.0 608.8 Q 492.4 611.6, 496.7 611.6 " fill="#FF0000"/>
<path class="atom-4" d="M 819.8 710.3 L 824.0 706.0 L 818.5 704.9 L 819.3 702.1 L 824.4 704.6 L 823.7 699.1 L 826.7 699.0 L 825.8 704.6 L 831.0 702.2 L 831.9 704.9 L 826.3 706.0 L 830.3 710.2 L 827.8 712.0 L 825.1 706.7 L 822.3 712.0 L 819.8 710.3 " fill="#191919"/>
<path class="atom-5" d="M 727.5 502.4 Q 727.5 495.6, 730.9 491.8 Q 734.2 488.0, 740.5 488.0 Q 746.8 488.0, 750.1 491.8 Q 753.5 495.6, 753.5 502.4 Q 753.5 509.3, 750.1 513.2 Q 746.7 517.1, 740.5 517.1 Q 734.3 517.1, 730.9 513.2 Q 727.5 509.3, 727.5 502.4 M 740.5 513.9 Q 744.8 513.9, 747.1 511.0 Q 749.5 508.1, 749.5 502.4 Q 749.5 496.8, 747.1 494.0 Q 744.8 491.2, 740.5 491.2 Q 736.2 491.2, 733.8 494.0 Q 731.5 496.8, 731.5 502.4 Q 731.5 508.1, 733.8 511.0 Q 736.2 513.9, 740.5 513.9 " fill="#FF0000"/>
<path class="bond-0 atom-0 atom-1" d="M 253.4,1026.2 L 296.1,1001.6" style="fill:none;fill-rule:evenodd;stroke:#191919;stroke-width:2.0px;stroke-linecap:butt;stroke-linejoin:miter;stroke-opacity:1"/>
<path class="bond-0 atom-0 atom-1" d="M 296.1,1001.6 L 338.8,977.0" style="fill:none;fill-rule:evenodd;stroke:#FF0000;stroke-width:2.0px;stroke-linecap:butt;stroke-linejoin:miter;stroke-opacity:1"/>
<path class="bond-1 atom-1 atom-2" d="M 373.4,977.0 L 421.6,1004.8" style="fill:none;fill-rule:evenodd;stroke:#FF0000;stroke-width:2.0px;stroke-linecap:butt;stroke-linejoin:miter;stroke-opacity:1"/>
<path class="bond-1 atom-1 atom-2" d="M 421.6,1004.8 L 469.8,1032.6" style="fill:none;fill-rule:evenodd;stroke:#000000;stroke-width:2.0px;stroke-linecap:butt;stroke-linejoin:miter;stroke-opacity:1"/>
<path class="bond-2 atom-2 atom-3" d="M 469.8,1032.6 L 583.6,966.9" style="fill:none;fill-rule:evenodd;stroke:#000000;stroke-width:2.0px;stroke-linecap:butt;stroke-linejoin:miter;stroke-opacity:1"/>
<path class="bond-3 atom-3 atom-4" d="M 583.6,966.9 L 697.3,1032.6" style="fill:none;fill-rule:evenodd;stroke:#000000;stroke-width:2.0px;stroke-linecap:butt;stroke-linejoin:miter;stroke-opacity:1"/>
<path class="bond-4 atom-4 atom-5" d="M 697.3,1032.6 L 811.0,966.9" style="fill:none;fill-rule:evenodd;stroke:#000000;stroke-width:2.0px;stroke-linecap:butt;stroke-linejoin:miter;stroke-opacity:1"/>
<path class="bond-5 atom-5 atom-6" d="M 811.0,966.9 L 859.2,994.8" style="fill:none;fill-rule:evenodd;stroke:#000000;stroke-width:2.0px;stroke-linecap:butt;stroke-linejoin:miter;stroke-opacity:1"/>
<path class="bond-5 atom-5 atom-6" d="M 859.2,994.8 L 907.4,1022.6" style="fill:none;fill-rule:evenodd;stroke:#FF0000;stroke-width:2.0px;stroke-linecap:butt;stroke-linejoin:miter;stroke-opacity:1"/>
<path d="M 467.4,1031.2 L 469.8,1032.6 L 475.5,1029.3" style="fill:none;stroke:#000000;stroke-width:2.0px;stroke-linecap:butt;stroke-linejoin:miter;stroke-opacity:1;"/>
<path d="M 577.9,970.2 L 583.6,966.9 L 589.3,970.2" style="fill:none;stroke:#000000;stroke-width:2.0px;stroke-linecap:butt;stroke-linejoin:miter;stroke-opacity:1;"/>
<path d="M 691.6,1029.3 L 697.3,1032.6 L 703.0,1029.3" style="fill:none;stroke:#000000;stroke-width:2.0px;stroke-linecap:butt;stroke-linejoin:miter;stroke-opacity:1;"/>
<path d="M 805.3,970.2 L 811.0,966.9 L 813.4,968.3" style="fill:none;stroke:#000000;stroke-width:2.0px;stroke-linecap:butt;stroke-linejoin:miter;stroke-opacity:1;"/>
<path class="atom-0" d="M 237.0 1029.5 L 241.2 1025.2 L 235.7 1024.1 L 236.5 1021.3 L 241.6 1023.8 L 240.9 1018.3 L 243.9 1018.2 L 243.0 1023.8 L 248.2 1021.4 L 249.1 1024.1 L 243.5 1025.1 L 247.5 1029.4 L 245.0 1031.2 L 242.3 1025.9 L 239.5 1031.2 L 237.0 1029.5 " fill="#191919"/>
<path class="atom-1" d="M 343.1 967.0 Q 343.1 960.2, 346.5 956.4 Q 349.8 952.6, 356.1 952.6 Q 362.4 952.6, 365.7 956.4 Q 369.1 960.2, 369.1 967.0 Q 369.1 973.9, 365.7 977.8 Q 362.3 981.7, 356.1 981.7 Q 349.9 981.7, 346.5 977.8 Q 343.1 973.9, 343.1 967.0 M 356.1 978.5 Q 360.4 978.5, 362.7 975.6 Q 365.1 972.7, 365.1 967.0 Q 365.1 961.5, 362.7 958.7 Q 360.4 955.8, 356.1 955.8 Q 351.8 955.8, 349.4 958.6 Q 347.1 961.4, 347.1 967.0 Q 347.1 972.7, 349.4 975.6 Q 351.8 978.5, 356.1 978.5 " fill="#FF0000"/>
<path class="atom-6" d="M 911.8 1032.7 Q 911.8 1025.9, 915.1 1022.1 Q 918.5 1018.3, 924.8 1018.3 Q 931.0 1018.3, 934.4 1022.1 Q 937.8 1025.9, 937.8 1032.7 Q 937.8 1039.6, 934.4 1043.5 Q 931.0 1047.4, 924.8 1047.4 Q 918.5 1047.4, 915.1 1043.5 Q 911.8 1039.6, 911.8 1032.7 M 924.8 1044.2 Q 929.1 1044.2, 931.4 1041.3 Q 933.8 1038.4, 933.8 1032.7 Q 933.8 1027.1, 931.4 1024.3 Q 929.1 1021.5, 924.8 1021.5 Q 920.4 1021.5, 918.1 1024.3 Q 915.8 1027.1, 915.8 1032.7 Q 915.8 1038.4, 918.1 1041.3 Q 920.4 1044.2, 924.8 1044.2 " fill="#FF0000"/>
<path class="atom-6" d="M 942.2 1018.6 L 946.0 1018.6 L 946.0 1030.7 L 960.5 1030.7 L 960.5 1018.6 L 964.3 1018.6 L 964.3 1046.9 L 960.5 1046.9 L 960.5 1033.9 L 946.0 1033.9 L 946.0 1046.9 L 942.2 1046.9 L 942.2 1018.6 " fill="#FF0000"/>
</svg>