<svg xmlns="http://www.w3.org/2000/svg" xmlns:rdkit="http://www.rdkit.org/xml" xmlns:xlink="http://www.w3.org/1999/xlink" version="1.1" baseProfile="full" xml:space="preserve" width="1200px" height="800px" viewBox="0 0 1200 800">
<!-- END OF HEADER -->
<rect style="opacity:1.0;fill:#FFFFFF;stroke:none" width="1200.0" height="800.0" x="0.0" y="0.0"> </rect>
<path class="bond-0 atom-0 atom-1" d="M 77.0,186.0 L 109.7,169.6" style="fill:none;fill-rule:evenodd;stroke:#191919;stroke-width:2.0px;stroke-linecap:butt;stroke-linejoin:miter;stroke-opacity:1"/>
<path class="bond-0 atom-0 atom-1" d="M 109.7,169.6 L 142.4,153.2" style="fill:none;fill-rule:evenodd;stroke:#FF0000;stroke-width:2.0px;stroke-linecap:butt;stroke-linejoin:miter;stroke-opacity:1"/>
<path class="bond-1 atom-1 atom-2" d="M 175.2,155.8 L 209.9,178.7" style="fill:none;fill-rule:evenodd;stroke:#FF0000;stroke-width:2.0px;stroke-linecap:butt;stroke-linejoin:miter;stroke-opacity:1"/>
<path class="bond-1 atom-1 atom-2" d="M 209.9,178.7 L 244.6,201.6" style="fill:none;fill-rule:evenodd;stroke:#000000;stroke-width:2.0px;stroke-linecap:butt;stroke-linejoin:miter;stroke-opacity:1"/>
<path class="bond-2 atom-2 atom-3" d="M 237.2,196.7 L 234.5,241.4" style="fill:none;fill-rule:evenodd;stroke:#000000;stroke-width:2.0px;stroke-linecap:butt;stroke-linejoin:miter;stroke-opacity:1"/>
<path class="bond-2 atom-2 atom-3" d="M 234.5,241.4 L 231.8,286.0" style="fill:none;fill-rule:evenodd;stroke:#FF0000;stroke-width:2.0px;stroke-linecap:butt;stroke-linejoin:miter;stroke-opacity:1"/>
<path class="bond-2 atom-2 atom-3" d="M 252.6,197.6 L 249.9,242.3" style="fill:none;fill-rule:evenodd;stroke:#000000;stroke-width:2.0px;stroke-linecap:butt;stroke-linejoin:miter;stroke-opacity:1"/>
<path class="bond-2 atom-2 atom-3" d="M 249.9,242.3 L 247.2,287.0" style="fill:none;fill-rule:evenodd;stroke:#FF0000;stroke-width:2.0px;stroke-linecap:butt;stroke-linejoin:miter;stroke-opacity:1"/>
<path class="bond-3 atom-2 atom-4" d="M 244.6,201.6 L 336.5,155.6" style="fill:none;fill-rule:evenodd;stroke:#000000;stroke-width:2.0px;stroke-linecap:butt;stroke-linejoin:miter;stroke-opacity:1"/>
<path class="bond-4 atom-4 atom-5" d="M 336.5,155.6 L 422.3,212.2" style="fill:none;fill-rule:evenodd;stroke:#000000;stroke-width:2.0px;stroke-linecap:butt;stroke-linejoin:miter;stroke-opacity:1"/>
<path class="bond-5 atom-5 atom-6" d="M 422.3,212.2 L 514.2,166.2" style="fill:none;fill-rule:evenodd;stroke:#000000;stroke-width:2.0px;stroke-linecap:butt;stroke-linejoin:miter;stroke-opacity:1"/>
<path class="bond-6 atom-6 atom-7" d="M 514.2,166.2 L 600.0,222.8" style="fill:none;fill-rule:evenodd;stroke:#000000;stroke-width:2.0px;stroke-linecap:butt;stroke-linejoin:miter;stroke-opacity:1"/>
<path class="bond-7 atom-7 atom-8" d="M 600.0,222.8 L 691.9,176.8" style="fill:none;fill-rule:evenodd;stroke:#000000;stroke-width:2.0px;stroke-linecap:butt;stroke-linejoin:miter;stroke-opacity:1"/>
<path class="bond-8 atom-8 atom-9" d="M 691.9,176.8 L 777.7,233.4" style="fill:none;fill-rule:evenodd;stroke:#000000;stroke-width:2.0px;stroke-linecap:butt;stroke-linejoin:miter;stroke-opacity:1"/>
<path class="bond-9 atom-9 atom-10" d="M 777.7,233.4 L 869.6,187.4" style="fill:none;fill-rule:evenodd;stroke:#000000;stroke-width:2.0px;stroke-linecap:butt;stroke-linejoin:miter;stroke-opacity:1"/>
<path class="bond-10 atom-10 atom-11" d="M 869.6,187.4 L 955.4,243.9" style="fill:none;fill-rule:evenodd;stroke:#000000;stroke-width:2.0px;stroke-linecap:butt;stroke-linejoin:miter;stroke-opacity:1"/>
<path class="bond-11 atom-11 atom-12" d="M 955.4,243.9 L 1047.3,197.9" style="fill:none;fill-rule:evenodd;stroke:#000000;stroke-width:2.0px;stroke-linecap:butt;stroke-linejoin:miter;stroke-opacity:1"/>
<path class="bond-12 atom-12 atom-13" d="M 1047.3,197.9 L 1085.2,222.9" style="fill:none;fill-rule:evenodd;stroke:#000000;stroke-width:2.0px;stroke-linecap:butt;stroke-linejoin:miter;stroke-opacity:1"/>
<path class="bond-12 atom-12 atom-13" d="M 1085.2,222.9 L 1123.0,247.9" style="fill:none;fill-rule:evenodd;stroke:#191919;stroke-width:2.0px;stroke-linecap:butt;stroke-linejoin:miter;stroke-opacity:1"/>
<path class="bond-13 atom-12 atom-14" d="M 1054.7,202.8 L 1057.4,158.4" style="fill:none;fill-rule:evenodd;stroke:#000000;stroke-width:2.0px;stroke-linecap:butt;stroke-linejoin:miter;stroke-opacity:1"/>
<path class="bond-13 atom-12 atom-14" d="M 1057.4,158.4 L 1060.0,114.0" style="fill:none;fill-rule:evenodd;stroke:#FF0000;stroke-width:2.0px;stroke-linecap:butt;stroke-linejoin:miter;stroke-opacity:1"/>
<path class="bond-13 atom-12 atom-14" d="M 1039.4,201.9 L 1042.0,157.5" style="fill:none;fill-rule:evenodd;stroke:#000000;stroke-width:2.0px;stroke-linecap:butt;stroke-linejoin:miter;stroke-opacity:1"/>
<path class="bond-13 atom-12 atom-14" d="M 1042.0,157.5 L 1044.7,113.0" style="fill:none;fill-rule:evenodd;stroke:#FF0000;stroke-width:2.0px;stroke-linecap:butt;stroke-linejoin:miter;stroke-opacity:1"/>
<path d="M 242.9,200.5 L 244.6,201.6 L 249.2,199.3" style="fill:none;stroke:#000000;stroke-width:2.0px;stroke-linecap:butt;stroke-linejoin:miter;stroke-opacity:1;"/>
<path d="M 331.9,157.9 L 336.5,155.6 L 340.8,158.4" style="fill:none;stroke:#000000;stroke-width:2.0px;stroke-linecap:butt;stroke-linejoin:miter;stroke-opacity:1;"/>
<path d="M 418.0,209.4 L 422.3,212.2 L 426.9,209.9" style="fill:none;stroke:#000000;stroke-width:2.0px;stroke-linecap:butt;stroke-linejoin:miter;stroke-opacity:1;"/>
<path d="M 509.6,168.5 L 514.2,166.2 L 518.5,169.0" style="fill:none;stroke:#000000;stroke-width:2.0px;stroke-linecap:butt;stroke-linejoin:miter;stroke-opacity:1;"/>
<path d="M 595.7,220.0 L 600.0,222.8 L 604.6,220.5" style="fill:none;stroke:#000000;stroke-width:2.0px;stroke-linecap:butt;stroke-linejoin:miter;stroke-opacity:1;"/>
<path d="M 687.3,179.1 L 691.9,176.8 L 696.2,179.6" style="fill:none;stroke:#000000;stroke-width:2.0px;stroke-linecap:butt;stroke-linejoin:miter;stroke-opacity:1;"/>
<path d="M 773.4,230.5 L 777.7,233.4 L 782.3,231.1" style="fill:none;stroke:#000000;stroke-width:2.0px;stroke-linecap:butt;stroke-linejoin:miter;stroke-opacity:1;"/>
<path d="M 865.0,189.7 L 869.6,187.4 L 873.9,190.2" style="fill:none;stroke:#000000;stroke-width:2.0px;stroke-linecap:butt;stroke-linejoin:miter;stroke-opacity:1;"/>
<path d="M 951.1,241.1 L 955.4,243.9 L 960.0,241.6" style="fill:none;stroke:#000000;stroke-width:2.0px;stroke-linecap:butt;stroke-linejoin:miter;stroke-opacity:1;"/>
<path d="M 1042.7,200.2 L 1047.3,197.9 L 1049.2,199.2" style="fill:none;stroke:#000000;stroke-width:2.0px;stroke-linecap:butt;stroke-linejoin:miter;stroke-opacity:1;"/>
<path class="atom-0" d="M 61.5 187.9 L 65.7 183.6 L 60.2 182.5 L 61.0 179.7 L 66.1 182.2 L 65.4 176.7 L 68.4 176.6 L 67.5 182.2 L 72.7 179.8 L 73.6 182.5 L 68.0 183.6 L 72.0 187.8 L 69.5 189.6 L 66.8 184.3 L 64.0 189.6 L 61.5 187.9 " fill="#191919"/>
<path class="atom-1" d="M 145.8 145.1 Q 145.8 138.3, 149.2 134.5 Q 152.5 130.7, 158.8 130.7 Q 165.1 130.7, 168.4 134.5 Q 171.8 138.3, 171.8 145.1 Q 171.8 152.0, 168.4 155.9 Q 165.0 159.8, 158.8 159.8 Q 152.6 159.8, 149.2 155.9 Q 145.8 152.0, 145.8 145.1 M 158.8 156.6 Q 163.1 156.6, 165.4 153.7 Q 167.8 150.8, 167.8 145.1 Q 167.8 139.5, 165.4 136.7 Q 163.1 133.9, 158.8 133.9 Q 154.5 133.9, 152.1 136.7 Q 149.8 139.5, 149.8 145.1 Q 149.8 150.8, 152.1 153.7 Q 154.5 156.6, 158.8 156.6 " fill="#FF0000"/>
<path class="atom-3" d="M 225.5 304.3 Q 225.5 297.5, 228.8 293.7 Q 232.2 289.9, 238.5 289.9 Q 244.8 289.9, 248.1 293.7 Q 251.5 297.5, 251.5 304.3 Q 251.5 311.2, 248.1 315.1 Q 244.7 319.0, 238.5 319.0 Q 232.2 319.0, 228.8 315.1 Q 225.5 311.2, 225.5 304.3 M 238.5 315.8 Q 242.8 315.8, 245.1 312.9 Q 247.5 310.0, 247.5 304.3 Q 247.5 298.7, 245.1 295.9 Q 242.8 293.1, 238.5 293.1 Q 234.2 293.1, 231.8 295.9 Q 229.5 298.7, 229.5 304.3 Q 229.5 310.0, 231.8 312.9 Q 234.2 315.8, 238.5 315.8 " fill="#FF0000"/>
<path class="atom-13" d="M 1127.8 251.4 L 1131.9 247.1 L 1126.4 246.0 L 1127.3 243.2 L 1132.3 245.7 L 1131.6 240.2 L 1134.6 240.1 L 1133.8 245.7 L 1138.9 243.3 L 1139.8 246.0 L 1134.2 247.1 L 1138.2 251.3 L 1135.8 253.1 L 1133.0 247.8 L 1130.2 253.1 L 1127.8 251.4 " fill="#191919"/>
<path class="atom-14" d="M 1040.4 95.4 Q 1040.4 88.6, 1043.8 84.8 Q 1047.1 81.0, 1053.4 81.0 Q 1059.7 81.0, 1063.1 84.8 Q 1066.4 88.6, 1066.4 95.4 Q 1066.4 102.3, 1063.0 106.2 Q 1059.6 110.1, 1053.4 110.1 Q 1047.2 110.1, 1043.8 106.2 Q 1040.4 102.3, 1040.4 95.4 M 1053.4 106.9 Q 1057.7 106.9, 1060.1 104.0 Q 1062.4 101.1, 1062.4 95.4 Q 1062.4 89.9, 1060.1 87.1 Q 1057.7 84.2, 1053.4 84.2 Q 1049.1 84.2, 1046.7 87.0 Q 1044.4 89.8, 1044.4 95.4 Q 1044.4 101.1, 1046.7 104.0 Q 1049.1 106.9, 1053.4 106.9 " fill="#FF0000"/>
<path class="bond-0 atom-0 atom-1" d="M 432.1,627.0 L 471.5,604.2" style="fill:none;fill-rule:evenodd;stroke:#191919;stroke-width:2.0px;stroke-linecap:butt;stroke-linejoin:miter;stroke-opacity:1"/>
<path class="bond-0 atom-0 atom-1" d="M 471.5,604.2 L 511.0,581.5" style="fill:none;fill-rule:evenodd;stroke:#000000;stroke-width:2.0px;stroke-linecap:butt;stroke-linejoin:miter;stroke-opacity:1"/>
<path class="bond-1 atom-1 atom-2" d="M 511.0,581.5 L 600.0,632.9" style="fill:none;fill-rule:evenodd;stroke:#000000;stroke-width:2.0px;stroke-linecap:butt;stroke-linejoin:miter;stroke-opacity:1"/>
<path class="bond-2 atom-2 atom-3" d="M 600.0,632.9 L 636.3,611.9" style="fill:none;fill-rule:evenodd;stroke:#000000;stroke-width:2.0px;stroke-linecap:butt;stroke-linejoin:miter;stroke-opacity:1"/>
<path class="bond-2 atom-2 atom-3" d="M 636.3,611.9 L 672.6,590.9" style="fill:none;fill-rule:evenodd;stroke:#FF0000;stroke-width:2.0px;stroke-linecap:butt;stroke-linejoin:miter;stroke-opacity:1"/>
<path class="bond-3 atom-3 atom-4" d="M 705.4,590.9 L 736.7,609.0" style="fill:none;fill-rule:evenodd;stroke:#FF0000;stroke-width:2.0px;stroke-linecap:butt;stroke-linejoin:miter;stroke-opacity:1"/>
<path class="bond-3 atom-3 atom-4" d="M 736.7,609.0 L 767.9,627.0" style="fill:none;fill-rule:evenodd;stroke:#191919;stroke-width:2.0px;stroke-linecap:butt;stroke-linejoin:miter;stroke-opacity:1"/>
<path d="M 509.0,582.6 L 511.0,581.5 L 515.4,584.0" style="fill:none;stroke:#000000;stroke-width:2.0px;stroke-linecap:butt;stroke-linejoin:miter;stroke-opacity:1;"/>
<path d="M 595.5,630.3 L 600.0,632.9 L 601.8,631.8" style="fill:none;stroke:#000000;stroke-width:2.0px;stroke-linecap:butt;stroke-linejoin:miter;stroke-opacity:1;"/>
<path class="atom-0" d="M 416.6 629.7 L 420.8 625.5 L 415.3 624.3 L 416.1 621.5 L 421.2 624.1 L 420.5 618.5 L 423.5 618.5 L 422.6 624.0 L 427.8 621.6 L 428.7 624.3 L 423.1 625.4 L 427.1 629.7 L 424.6 631.4 L 421.9 626.1 L 419.1 631.4 L 416.6 629.7 " fill="#191919"/>
<path class="atom-3" d="M 676.0 581.5 Q 676.0 574.7, 679.4 570.9 Q 682.7 567.1, 689.0 567.1 Q 695.3 567.1, 698.6 570.9 Q 702.0 574.7, 702.0 581.5 Q 702.0 588.4, 698.6 592.3 Q 695.2 596.2, 689.0 596.2 Q 682.8 596.2, 679.4 592.3 Q 676.0 588.5, 676.0 581.5 M 689.0 593.0 Q 693.3 593.0, 695.6 590.1 Q 698.0 587.2, 698.0 581.5 Q 698.0 576.0, 695.6 573.2 Q 693.3 570.3, 689.0 570.3 Q 684.7 570.3, 682.3 573.1 Q 680.0 575.9, 680.0 581.5 Q 680.0 587.3, 682.3 590.1 Q 684.7 593.0, 689.0 593.0 " fill="#FF0000"/>
<path class="atom-4" d="M 772.7 629.7 L 776.8 625.5 L 771.3 624.3 L 772.2 621.5 L 777.2 624.1 L 776.5 618.5 L 779.5 618.5 L 778.7 624.0 L 783.8 621.6 L 784.7 624.3 L 779.1 625.4 L 783.1 629.7 L 780.7 631.4 L 777.9 626.1 L 775.1 631.4 L 772.7 629.7 " fill="#191919"/>
</svg>