<svg xmlns="http://www.w3.org/2000/svg" xmlns:rdkit="http://www.rdkit.org/xml" xmlns:xlink="http://www.w3.org/1999/xlink" version="1.1" baseProfile="full" xml:space="preserve" width="1200px" height="800px" viewBox="0 0 1200 800">
<!-- END OF HEADER -->
<rect style="opacity:1.0;fill:#FFFFFF;stroke:none" width="1200.0" height="800.0" x="0.0" y="0.0"> </rect>
<path class="bond-0 atom-0 atom-1" d="M 131.9,90.8 L 161.4,119.7" style="fill:none;fill-rule:evenodd;stroke:#191919;stroke-width:2.0px;stroke-linecap:butt;stroke-linejoin:miter;stroke-opacity:1"/>
<path class="bond-0 atom-0 atom-1" d="M 161.4,119.7 L 190.9,148.6" style="fill:none;fill-rule:evenodd;stroke:#FF0000;stroke-width:2.0px;stroke-linecap:butt;stroke-linejoin:miter;stroke-opacity:1"/>
<path class="bond-1 atom-1 atom-2" d="M 224.1,160.2 L 268.3,147.8" style="fill:none;fill-rule:evenodd;stroke:#FF0000;stroke-width:2.0px;stroke-linecap:butt;stroke-linejoin:miter;stroke-opacity:1"/>
<path class="bond-1 atom-1 atom-2" d="M 268.3,147.8 L 312.4,135.5" style="fill:none;fill-rule:evenodd;stroke:#000000;stroke-width:2.0px;stroke-linecap:butt;stroke-linejoin:miter;stroke-opacity:1"/>
<path class="bond-2 atom-2 atom-3" d="M 312.4,135.5 L 390.3,211.6" style="fill:none;fill-rule:evenodd;stroke:#000000;stroke-width:2.0px;stroke-linecap:butt;stroke-linejoin:miter;stroke-opacity:1"/>
<path class="bond-3 atom-3 atom-4" d="M 390.3,211.6 L 434.4,199.3" style="fill:none;fill-rule:evenodd;stroke:#000000;stroke-width:2.0px;stroke-linecap:butt;stroke-linejoin:miter;stroke-opacity:1"/>
<path class="bond-3 atom-3 atom-4" d="M 434.4,199.3 L 478.5,186.9" style="fill:none;fill-rule:evenodd;stroke:#FF0000;stroke-width:2.0px;stroke-linecap:butt;stroke-linejoin:miter;stroke-opacity:1"/>
<path class="bond-4 atom-4 atom-5" d="M 511.7,198.5 L 542.3,228.5" style="fill:none;fill-rule:evenodd;stroke:#FF0000;stroke-width:2.0px;stroke-linecap:butt;stroke-linejoin:miter;stroke-opacity:1"/>
<path class="bond-4 atom-4 atom-5" d="M 542.3,228.5 L 573.0,258.5" style="fill:none;fill-rule:evenodd;stroke:#000000;stroke-width:2.0px;stroke-linecap:butt;stroke-linejoin:miter;stroke-opacity:1"/>
<path class="bond-5 atom-5 atom-6" d="M 566.2,251.9 L 554.4,297.9" style="fill:none;fill-rule:evenodd;stroke:#000000;stroke-width:2.0px;stroke-linecap:butt;stroke-linejoin:miter;stroke-opacity:1"/>
<path class="bond-5 atom-5 atom-6" d="M 554.4,297.9 L 542.6,344.0" style="fill:none;fill-rule:evenodd;stroke:#FF0000;stroke-width:2.0px;stroke-linecap:butt;stroke-linejoin:miter;stroke-opacity:1"/>
<path class="bond-5 atom-5 atom-6" d="M 582.1,255.9 L 570.2,302.0" style="fill:none;fill-rule:evenodd;stroke:#000000;stroke-width:2.0px;stroke-linecap:butt;stroke-linejoin:miter;stroke-opacity:1"/>
<path class="bond-5 atom-5 atom-6" d="M 570.2,302.0 L 558.4,348.1" style="fill:none;fill-rule:evenodd;stroke:#FF0000;stroke-width:2.0px;stroke-linecap:butt;stroke-linejoin:miter;stroke-opacity:1"/>
<path class="bond-6 atom-5 atom-7" d="M 573.0,258.5 L 677.8,229.1" style="fill:none;fill-rule:evenodd;stroke:#000000;stroke-width:2.0px;stroke-linecap:butt;stroke-linejoin:miter;stroke-opacity:1"/>
<path class="bond-7 atom-7 atom-8" d="M 677.8,229.1 L 704.9,123.6" style="fill:none;fill-rule:evenodd;stroke:#000000;stroke-width:2.0px;stroke-linecap:butt;stroke-linejoin:miter;stroke-opacity:1"/>
<path class="bond-7 atom-7 atom-8" d="M 696.0,224.0 L 718.4,136.8" style="fill:none;fill-rule:evenodd;stroke:#000000;stroke-width:2.0px;stroke-linecap:butt;stroke-linejoin:miter;stroke-opacity:1"/>
<path class="bond-8 atom-8 atom-9" d="M 704.9,123.6 L 809.7,94.3" style="fill:none;fill-rule:evenodd;stroke:#000000;stroke-width:2.0px;stroke-linecap:butt;stroke-linejoin:miter;stroke-opacity:1"/>
<path class="bond-9 atom-9 atom-10" d="M 809.7,94.3 L 887.6,170.4" style="fill:none;fill-rule:evenodd;stroke:#000000;stroke-width:2.0px;stroke-linecap:butt;stroke-linejoin:miter;stroke-opacity:1"/>
<path class="bond-9 atom-9 atom-10" d="M 805.1,112.6 L 869.4,175.5" style="fill:none;fill-rule:evenodd;stroke:#000000;stroke-width:2.0px;stroke-linecap:butt;stroke-linejoin:miter;stroke-opacity:1"/>
<path class="bond-10 atom-10 atom-11" d="M 887.6,170.4 L 992.5,141.1" style="fill:none;fill-rule:evenodd;stroke:#000000;stroke-width:2.0px;stroke-linecap:butt;stroke-linejoin:miter;stroke-opacity:1"/>
<path class="bond-11 atom-11 atom-12" d="M 992.5,141.1 L 1026.2,174.1" style="fill:none;fill-rule:evenodd;stroke:#000000;stroke-width:2.0px;stroke-linecap:butt;stroke-linejoin:miter;stroke-opacity:1"/>
<path class="bond-11 atom-11 atom-12" d="M 1026.2,174.1 L 1060.0,207.2" style="fill:none;fill-rule:evenodd;stroke:#191919;stroke-width:2.0px;stroke-linecap:butt;stroke-linejoin:miter;stroke-opacity:1"/>
<path class="bond-12 atom-11 atom-13" d="M 999.2,147.7 L 1010.9,101.8" style="fill:none;fill-rule:evenodd;stroke:#000000;stroke-width:2.0px;stroke-linecap:butt;stroke-linejoin:miter;stroke-opacity:1"/>
<path class="bond-12 atom-11 atom-13" d="M 1010.9,101.8 L 1022.7,56.0" style="fill:none;fill-rule:evenodd;stroke:#FF0000;stroke-width:2.0px;stroke-linecap:butt;stroke-linejoin:miter;stroke-opacity:1"/>
<path class="bond-12 atom-11 atom-13" d="M 983.4,143.6 L 995.1,97.8" style="fill:none;fill-rule:evenodd;stroke:#000000;stroke-width:2.0px;stroke-linecap:butt;stroke-linejoin:miter;stroke-opacity:1"/>
<path class="bond-12 atom-11 atom-13" d="M 995.1,97.8 L 1006.9,51.9" style="fill:none;fill-rule:evenodd;stroke:#FF0000;stroke-width:2.0px;stroke-linecap:butt;stroke-linejoin:miter;stroke-opacity:1"/>
<path class="bond-13 atom-10 atom-14" d="M 887.6,170.4 L 860.6,275.9" style="fill:none;fill-rule:evenodd;stroke:#000000;stroke-width:2.0px;stroke-linecap:butt;stroke-linejoin:miter;stroke-opacity:1"/>
<path class="bond-14 atom-14 atom-15" d="M 860.6,275.9 L 755.7,305.3" style="fill:none;fill-rule:evenodd;stroke:#000000;stroke-width:2.0px;stroke-linecap:butt;stroke-linejoin:miter;stroke-opacity:1"/>
<path class="bond-14 atom-14 atom-15" d="M 847.1,262.7 L 760.4,287.0" style="fill:none;fill-rule:evenodd;stroke:#000000;stroke-width:2.0px;stroke-linecap:butt;stroke-linejoin:miter;stroke-opacity:1"/>
<path class="bond-15 atom-15 atom-7" d="M 755.7,305.3 L 677.8,229.1" style="fill:none;fill-rule:evenodd;stroke:#000000;stroke-width:2.0px;stroke-linecap:butt;stroke-linejoin:miter;stroke-opacity:1"/>
<path d="M 310.2,136.1 L 312.4,135.5 L 316.3,139.3" style="fill:none;stroke:#000000;stroke-width:2.0px;stroke-linecap:butt;stroke-linejoin:miter;stroke-opacity:1;"/>
<path d="M 386.4,207.8 L 390.3,211.6 L 392.5,211.0" style="fill:none;stroke:#000000;stroke-width:2.0px;stroke-linecap:butt;stroke-linejoin:miter;stroke-opacity:1;"/>
<path d="M 571.4,257.0 L 573.0,258.5 L 578.2,257.0" style="fill:none;stroke:#000000;stroke-width:2.0px;stroke-linecap:butt;stroke-linejoin:miter;stroke-opacity:1;"/>
<path d="M 703.5,128.9 L 704.9,123.6 L 710.1,122.2" style="fill:none;stroke:#000000;stroke-width:2.0px;stroke-linecap:butt;stroke-linejoin:miter;stroke-opacity:1;"/>
<path d="M 804.5,95.8 L 809.7,94.3 L 813.6,98.1" style="fill:none;stroke:#000000;stroke-width:2.0px;stroke-linecap:butt;stroke-linejoin:miter;stroke-opacity:1;"/>
<path d="M 987.2,142.6 L 992.5,141.1 L 994.1,142.8" style="fill:none;stroke:#000000;stroke-width:2.0px;stroke-linecap:butt;stroke-linejoin:miter;stroke-opacity:1;"/>
<path d="M 861.9,270.7 L 860.6,275.9 L 855.3,277.4" style="fill:none;stroke:#000000;stroke-width:2.0px;stroke-linecap:butt;stroke-linejoin:miter;stroke-opacity:1;"/>
<path d="M 760.9,303.8 L 755.7,305.3 L 751.8,301.5" style="fill:none;stroke:#000000;stroke-width:2.0px;stroke-linecap:butt;stroke-linejoin:miter;stroke-opacity:1;"/>
<path class="atom-0" d="M 124.4 85.5 L 128.5 81.3 L 123.0 80.2 L 123.8 77.3 L 128.9 79.9 L 128.2 74.3 L 131.2 74.3 L 130.4 79.8 L 135.5 77.4 L 136.4 80.2 L 130.8 81.2 L 134.8 85.5 L 132.4 87.2 L 129.6 82.0 L 126.8 87.2 L 124.4 85.5 " fill="#191919"/>
<path class="atom-1" d="M 194.5 164.9 Q 194.5 158.1, 197.9 154.3 Q 201.3 150.5, 207.5 150.5 Q 213.8 150.5, 217.2 154.3 Q 220.5 158.1, 220.5 164.9 Q 220.5 171.8, 217.1 175.7 Q 213.7 179.6, 207.5 179.6 Q 201.3 179.6, 197.9 175.7 Q 194.5 171.8, 194.5 164.9 M 207.5 176.4 Q 211.9 176.4, 214.2 173.5 Q 216.5 170.6, 216.5 164.9 Q 216.5 159.3, 214.2 156.5 Q 211.9 153.7, 207.5 153.7 Q 203.2 153.7, 200.9 156.5 Q 198.5 159.3, 198.5 164.9 Q 198.5 170.6, 200.9 173.5 Q 203.2 176.4, 207.5 176.4 " fill="#FF0000"/>
<path class="atom-4" d="M 482.1 182.4 Q 482.1 175.6, 485.5 171.8 Q 488.8 168.0, 495.1 168.0 Q 501.4 168.0, 504.8 171.8 Q 508.1 175.6, 508.1 182.4 Q 508.1 189.3, 504.7 193.2 Q 501.3 197.1, 495.1 197.1 Q 488.9 197.1, 485.5 193.2 Q 482.1 189.3, 482.1 182.4 M 495.1 193.9 Q 499.4 193.9, 501.8 191.0 Q 504.1 188.1, 504.1 182.4 Q 504.1 176.8, 501.8 174.0 Q 499.4 171.2, 495.1 171.2 Q 490.8 171.2, 488.4 174.0 Q 486.1 176.8, 486.1 182.4 Q 486.1 188.1, 488.4 191.0 Q 490.8 193.9, 495.1 193.9 " fill="#FF0000"/>
<path class="atom-6" d="M 532.9 364.0 Q 532.9 357.2, 536.3 353.4 Q 539.7 349.6, 545.9 349.6 Q 552.2 349.6, 555.6 353.4 Q 558.9 357.2, 558.9 364.0 Q 558.9 370.9, 555.5 374.8 Q 552.1 378.7, 545.9 378.7 Q 539.7 378.7, 536.3 374.8 Q 532.9 370.9, 532.9 364.0 M 545.9 375.5 Q 550.3 375.5, 552.6 372.6 Q 554.9 369.7, 554.9 364.0 Q 554.9 358.5, 552.6 355.7 Q 550.3 352.8, 545.9 352.8 Q 541.6 352.8, 539.3 355.6 Q 536.9 358.4, 536.9 364.0 Q 536.9 369.7, 539.3 372.6 Q 541.6 375.5, 545.9 375.5 " fill="#FF0000"/>
<path class="atom-12" d="M 1065.0 214.1 L 1069.1 209.9 L 1063.6 208.7 L 1064.4 205.9 L 1069.5 208.5 L 1068.8 202.9 L 1071.8 202.9 L 1071.0 208.4 L 1076.1 206.0 L 1077.0 208.7 L 1071.4 209.8 L 1075.4 214.1 L 1073.0 215.8 L 1070.2 210.5 L 1067.4 215.8 L 1065.0 214.1 " fill="#191919"/>
<path class="atom-13" d="M 1006.5 35.7 Q 1006.5 28.9, 1009.8 25.1 Q 1013.2 21.3, 1019.5 21.3 Q 1025.8 21.3, 1029.1 25.1 Q 1032.5 28.9, 1032.5 35.7 Q 1032.5 42.6, 1029.1 46.5 Q 1025.7 50.4, 1019.5 50.4 Q 1013.2 50.4, 1009.8 46.5 Q 1006.5 42.6, 1006.5 35.7 M 1019.5 47.2 Q 1023.8 47.2, 1026.1 44.3 Q 1028.5 41.4, 1028.5 35.7 Q 1028.5 30.1, 1026.1 27.3 Q 1023.8 24.5, 1019.5 24.5 Q 1015.2 24.5, 1012.8 27.3 Q 1010.5 30.1, 1010.5 35.7 Q 1010.5 41.4, 1012.8 44.3 Q 1015.2 47.2, 1019.5 47.2 " fill="#FF0000"/>
<path class="bond-0 atom-0 atom-1" d="M 405.2,621.1 L 439.0,601.6" style="fill:none;fill-rule:evenodd;stroke:#191919;stroke-width:2.0px;stroke-linecap:butt;stroke-linejoin:miter;stroke-opacity:1"/>
<path class="bond-0 atom-0 atom-1" d="M 439.0,601.6 L 472.7,582.1" style="fill:none;fill-rule:evenodd;stroke:#FF0000;stroke-width:2.0px;stroke-linecap:butt;stroke-linejoin:miter;stroke-opacity:1"/>
<path class="bond-1 atom-1 atom-2" d="M 505.9,582.1 L 544.7,604.6" style="fill:none;fill-rule:evenodd;stroke:#FF0000;stroke-width:2.0px;stroke-linecap:butt;stroke-linejoin:miter;stroke-opacity:1"/>
<path class="bond-1 atom-1 atom-2" d="M 544.7,604.6 L 583.6,627.0" style="fill:none;fill-rule:evenodd;stroke:#000000;stroke-width:2.0px;stroke-linecap:butt;stroke-linejoin:miter;stroke-opacity:1"/>
<path class="bond-2 atom-2 atom-3" d="M 583.6,627.0 L 677.9,572.6" style="fill:none;fill-rule:evenodd;stroke:#000000;stroke-width:2.0px;stroke-linecap:butt;stroke-linejoin:miter;stroke-opacity:1"/>
<path class="bond-3 atom-3 atom-4" d="M 677.9,572.6 L 716.7,595.0" style="fill:none;fill-rule:evenodd;stroke:#000000;stroke-width:2.0px;stroke-linecap:butt;stroke-linejoin:miter;stroke-opacity:1"/>
<path class="bond-3 atom-3 atom-4" d="M 716.7,595.0 L 755.6,617.4" style="fill:none;fill-rule:evenodd;stroke:#FF0000;stroke-width:2.0px;stroke-linecap:butt;stroke-linejoin:miter;stroke-opacity:1"/>
<path d="M 581.6,625.9 L 583.6,627.0 L 588.3,624.3" style="fill:none;stroke:#000000;stroke-width:2.0px;stroke-linecap:butt;stroke-linejoin:miter;stroke-opacity:1;"/>
<path d="M 673.2,575.3 L 677.9,572.6 L 679.8,573.7" style="fill:none;stroke:#000000;stroke-width:2.0px;stroke-linecap:butt;stroke-linejoin:miter;stroke-opacity:1;"/>
<path class="atom-0" d="M 389.6 623.8 L 393.8 619.6 L 388.2 618.5 L 389.1 615.6 L 394.2 618.2 L 393.4 612.6 L 396.4 612.6 L 395.6 618.2 L 400.8 615.8 L 401.6 618.5 L 396.0 619.5 L 400.0 623.8 L 397.6 625.6 L 394.8 620.3 L 392.0 625.6 L 389.6 623.8 " fill="#191919"/>
<path class="atom-1" d="M 476.3 572.6 Q 476.3 565.8, 479.6 562.0 Q 483.0 558.2, 489.3 558.2 Q 495.5 558.2, 498.9 562.0 Q 502.3 565.8, 502.3 572.6 Q 502.3 579.5, 498.9 583.4 Q 495.5 587.3, 489.3 587.3 Q 483.0 587.3, 479.6 583.4 Q 476.3 579.6, 476.3 572.6 M 489.3 584.1 Q 493.6 584.1, 495.9 581.2 Q 498.3 578.3, 498.3 572.6 Q 498.3 567.1, 495.9 564.3 Q 493.6 561.4, 489.3 561.4 Q 484.9 561.4, 482.6 564.2 Q 480.3 567.0, 480.3 572.6 Q 480.3 578.4, 482.6 581.2 Q 484.9 584.1, 489.3 584.1 " fill="#FF0000"/>
<path class="atom-4" d="M 759.2 627.1 Q 759.2 620.3, 762.5 616.5 Q 765.9 612.7, 772.2 612.7 Q 778.5 612.7, 781.8 616.5 Q 785.2 620.3, 785.2 627.1 Q 785.2 634.0, 781.8 637.9 Q 778.4 641.8, 772.2 641.8 Q 765.9 641.8, 762.5 637.9 Q 759.2 634.0, 759.2 627.1 M 772.2 638.6 Q 776.5 638.6, 778.8 635.7 Q 781.2 632.8, 781.2 627.1 Q 781.2 621.5, 778.8 618.7 Q 776.5 615.9, 772.2 615.9 Q 767.9 615.9, 765.5 618.7 Q 763.2 621.5, 763.2 627.1 Q 763.2 632.8, 765.5 635.7 Q 767.9 638.6, 772.2 638.6 " fill="#FF0000"/>
<path class="atom-4" d="M 789.6 613.0 L 793.4 613.0 L 793.4 625.0 L 807.9 625.0 L 807.9 613.0 L 811.8 613.0 L 811.8 641.3 L 807.9 641.3 L 807.9 628.2 L 793.4 628.2 L 793.4 641.3 L 789.6 641.3 L 789.6 613.0 " fill="#FF0000"/>
</svg>