<svg xmlns="http://www.w3.org/2000/svg" xmlns:rdkit="http://www.rdkit.org/xml" xmlns:xlink="http://www.w3.org/1999/xlink" version="1.1" baseProfile="full" xml:space="preserve" width="1200px" height="800px" viewBox="0 0 1200 800">
<!-- END OF HEADER -->
<rect style="opacity:1.0;fill:#FFFFFF;stroke:none" width="1200.0" height="800.0" x="0.0" y="0.0"> </rect>
<path class="bond-0 atom-0 atom-1" d="M 1132.4,179.7 L 1100.4,198.6" style="fill:none;fill-rule:evenodd;stroke:#191919;stroke-width:2.0px;stroke-linecap:butt;stroke-linejoin:miter;stroke-opacity:1"/>
<path class="bond-0 atom-0 atom-1" d="M 1100.4,198.6 L 1068.3,217.5" style="fill:none;fill-rule:evenodd;stroke:#000000;stroke-width:2.0px;stroke-linecap:butt;stroke-linejoin:miter;stroke-opacity:1"/>
<path class="bond-1 atom-1 atom-2" d="M 1068.3,217.5 L 1001.1,179.6" style="fill:none;fill-rule:evenodd;stroke:#000000;stroke-width:2.0px;stroke-linecap:butt;stroke-linejoin:miter;stroke-opacity:1"/>
<path class="bond-2 atom-2 atom-3" d="M 1001.1,179.6 L 1000.8,147.9" style="fill:none;fill-rule:evenodd;stroke:#000000;stroke-width:2.0px;stroke-linecap:butt;stroke-linejoin:miter;stroke-opacity:1"/>
<path class="bond-2 atom-2 atom-3" d="M 1000.8,147.9 L 1000.5,116.3" style="fill:none;fill-rule:evenodd;stroke:#FF0000;stroke-width:2.0px;stroke-linecap:butt;stroke-linejoin:miter;stroke-opacity:1"/>
<path class="bond-3 atom-2 atom-4" d="M 1001.1,179.6 L 934.6,218.8" style="fill:none;fill-rule:evenodd;stroke:#000000;stroke-width:2.0px;stroke-linecap:butt;stroke-linejoin:miter;stroke-opacity:1"/>
<path class="bond-4 atom-4 atom-5" d="M 934.6,218.8 L 907.3,203.4" style="fill:none;fill-rule:evenodd;stroke:#000000;stroke-width:2.0px;stroke-linecap:butt;stroke-linejoin:miter;stroke-opacity:1"/>
<path class="bond-4 atom-4 atom-5" d="M 907.3,203.4 L 880.0,188.0" style="fill:none;fill-rule:evenodd;stroke:#FF0000;stroke-width:2.0px;stroke-linecap:butt;stroke-linejoin:miter;stroke-opacity:1"/>
<path class="bond-5 atom-5 atom-6" d="M 854.8,188.3 L 827.9,204.2" style="fill:none;fill-rule:evenodd;stroke:#FF0000;stroke-width:2.0px;stroke-linecap:butt;stroke-linejoin:miter;stroke-opacity:1"/>
<path class="bond-5 atom-5 atom-6" d="M 827.9,204.2 L 800.9,220.1" style="fill:none;fill-rule:evenodd;stroke:#000000;stroke-width:2.0px;stroke-linecap:butt;stroke-linejoin:miter;stroke-opacity:1"/>
<path class="bond-6 atom-6 atom-7" d="M 795.1,216.8 L 795.4,250.3" style="fill:none;fill-rule:evenodd;stroke:#000000;stroke-width:2.0px;stroke-linecap:butt;stroke-linejoin:miter;stroke-opacity:1"/>
<path class="bond-6 atom-6 atom-7" d="M 795.4,250.3 L 795.7,283.7" style="fill:none;fill-rule:evenodd;stroke:#FF0000;stroke-width:2.0px;stroke-linecap:butt;stroke-linejoin:miter;stroke-opacity:1"/>
<path class="bond-6 atom-6 atom-7" d="M 806.7,216.7 L 807.0,250.2" style="fill:none;fill-rule:evenodd;stroke:#000000;stroke-width:2.0px;stroke-linecap:butt;stroke-linejoin:miter;stroke-opacity:1"/>
<path class="bond-6 atom-6 atom-7" d="M 807.0,250.2 L 807.3,283.6" style="fill:none;fill-rule:evenodd;stroke:#FF0000;stroke-width:2.0px;stroke-linecap:butt;stroke-linejoin:miter;stroke-opacity:1"/>
<path class="bond-7 atom-6 atom-8" d="M 800.9,220.1 L 733.7,182.1" style="fill:none;fill-rule:evenodd;stroke:#000000;stroke-width:2.0px;stroke-linecap:butt;stroke-linejoin:miter;stroke-opacity:1"/>
<path class="bond-8 atom-8 atom-9" d="M 733.7,182.1 L 667.2,221.4" style="fill:none;fill-rule:evenodd;stroke:#000000;stroke-width:2.0px;stroke-linecap:butt;stroke-linejoin:miter;stroke-opacity:1"/>
<path class="bond-9 atom-9 atom-10" d="M 667.2,221.4 L 600.0,183.4" style="fill:none;fill-rule:evenodd;stroke:#000000;stroke-width:2.0px;stroke-linecap:butt;stroke-linejoin:miter;stroke-opacity:1"/>
<path class="bond-10 atom-10 atom-11" d="M 600.0,183.4 L 533.5,222.6" style="fill:none;fill-rule:evenodd;stroke:#000000;stroke-width:2.0px;stroke-linecap:butt;stroke-linejoin:miter;stroke-opacity:1"/>
<path class="bond-11 atom-11 atom-12" d="M 533.5,222.6 L 466.3,184.7" style="fill:none;fill-rule:evenodd;stroke:#000000;stroke-width:2.0px;stroke-linecap:butt;stroke-linejoin:miter;stroke-opacity:1"/>
<path class="bond-12 atom-12 atom-13" d="M 466.3,184.7 L 399.8,223.9" style="fill:none;fill-rule:evenodd;stroke:#000000;stroke-width:2.0px;stroke-linecap:butt;stroke-linejoin:miter;stroke-opacity:1"/>
<path class="bond-13 atom-13 atom-14" d="M 399.8,223.9 L 332.6,186.0" style="fill:none;fill-rule:evenodd;stroke:#000000;stroke-width:2.0px;stroke-linecap:butt;stroke-linejoin:miter;stroke-opacity:1"/>
<path class="bond-14 atom-14 atom-15" d="M 332.6,186.0 L 266.1,225.2" style="fill:none;fill-rule:evenodd;stroke:#000000;stroke-width:2.0px;stroke-linecap:butt;stroke-linejoin:miter;stroke-opacity:1"/>
<path class="bond-15 atom-15 atom-16" d="M 266.1,225.2 L 198.9,187.2" style="fill:none;fill-rule:evenodd;stroke:#000000;stroke-width:2.0px;stroke-linecap:butt;stroke-linejoin:miter;stroke-opacity:1"/>
<path class="bond-16 atom-16 atom-17" d="M 204.7,190.5 L 204.4,157.2" style="fill:none;fill-rule:evenodd;stroke:#000000;stroke-width:2.0px;stroke-linecap:butt;stroke-linejoin:miter;stroke-opacity:1"/>
<path class="bond-16 atom-16 atom-17" d="M 204.4,157.2 L 204.1,123.9" style="fill:none;fill-rule:evenodd;stroke:#FF0000;stroke-width:2.0px;stroke-linecap:butt;stroke-linejoin:miter;stroke-opacity:1"/>
<path class="bond-16 atom-16 atom-17" d="M 193.1,190.6 L 192.8,157.3" style="fill:none;fill-rule:evenodd;stroke:#000000;stroke-width:2.0px;stroke-linecap:butt;stroke-linejoin:miter;stroke-opacity:1"/>
<path class="bond-16 atom-16 atom-17" d="M 192.8,157.3 L 192.5,124.0" style="fill:none;fill-rule:evenodd;stroke:#FF0000;stroke-width:2.0px;stroke-linecap:butt;stroke-linejoin:miter;stroke-opacity:1"/>
<path class="bond-17 atom-16 atom-18" d="M 198.9,187.2 L 171.9,203.1" style="fill:none;fill-rule:evenodd;stroke:#000000;stroke-width:2.0px;stroke-linecap:butt;stroke-linejoin:miter;stroke-opacity:1"/>
<path class="bond-17 atom-16 atom-18" d="M 171.9,203.1 L 145.0,219.0" style="fill:none;fill-rule:evenodd;stroke:#FF0000;stroke-width:2.0px;stroke-linecap:butt;stroke-linejoin:miter;stroke-opacity:1"/>
<path class="bond-18 atom-18 atom-19" d="M 119.8,219.4 L 93.8,204.6" style="fill:none;fill-rule:evenodd;stroke:#FF0000;stroke-width:2.0px;stroke-linecap:butt;stroke-linejoin:miter;stroke-opacity:1"/>
<path class="bond-18 atom-18 atom-19" d="M 93.8,204.6 L 67.7,189.9" style="fill:none;fill-rule:evenodd;stroke:#191919;stroke-width:2.0px;stroke-linecap:butt;stroke-linejoin:miter;stroke-opacity:1"/>
<path d="M 1069.9,216.6 L 1068.3,217.5 L 1065.0,215.6" style="fill:none;stroke:#000000;stroke-width:2.0px;stroke-linecap:butt;stroke-linejoin:miter;stroke-opacity:1;"/>
<path d="M 938.0,216.8 L 934.6,218.8 L 933.3,218.0" style="fill:none;stroke:#000000;stroke-width:2.0px;stroke-linecap:butt;stroke-linejoin:miter;stroke-opacity:1;"/>
<path d="M 802.3,219.3 L 800.9,220.1 L 797.6,218.2" style="fill:none;stroke:#000000;stroke-width:2.0px;stroke-linecap:butt;stroke-linejoin:miter;stroke-opacity:1;"/>
<path d="M 737.1,184.0 L 733.7,182.1 L 730.4,184.1" style="fill:none;stroke:#000000;stroke-width:2.0px;stroke-linecap:butt;stroke-linejoin:miter;stroke-opacity:1;"/>
<path d="M 670.5,219.4 L 667.2,221.4 L 663.9,219.5" style="fill:none;stroke:#000000;stroke-width:2.0px;stroke-linecap:butt;stroke-linejoin:miter;stroke-opacity:1;"/>
<path d="M 603.4,185.3 L 600.0,183.4 L 596.7,185.4" style="fill:none;stroke:#000000;stroke-width:2.0px;stroke-linecap:butt;stroke-linejoin:miter;stroke-opacity:1;"/>
<path d="M 536.8,220.7 L 533.5,222.6 L 530.2,220.7" style="fill:none;stroke:#000000;stroke-width:2.0px;stroke-linecap:butt;stroke-linejoin:miter;stroke-opacity:1;"/>
<path d="M 469.7,186.6 L 466.3,184.7 L 463.0,186.6" style="fill:none;stroke:#000000;stroke-width:2.0px;stroke-linecap:butt;stroke-linejoin:miter;stroke-opacity:1;"/>
<path d="M 403.1,222.0 L 399.8,223.9 L 396.4,222.0" style="fill:none;stroke:#000000;stroke-width:2.0px;stroke-linecap:butt;stroke-linejoin:miter;stroke-opacity:1;"/>
<path d="M 335.9,187.9 L 332.6,186.0 L 329.3,187.9" style="fill:none;stroke:#000000;stroke-width:2.0px;stroke-linecap:butt;stroke-linejoin:miter;stroke-opacity:1;"/>
<path d="M 269.4,223.2 L 266.1,225.2 L 262.7,223.3" style="fill:none;stroke:#000000;stroke-width:2.0px;stroke-linecap:butt;stroke-linejoin:miter;stroke-opacity:1;"/>
<path d="M 202.2,189.1 L 198.9,187.2 L 197.5,188.0" style="fill:none;stroke:#000000;stroke-width:2.0px;stroke-linecap:butt;stroke-linejoin:miter;stroke-opacity:1;"/>
<path class="atom-0" d="M 1130.7 175.9 L 1133.9 172.6 L 1129.7 171.7 L 1130.3 169.5 L 1134.2 171.5 L 1133.7 167.2 L 1136.0 167.2 L 1135.3 171.5 L 1139.3 169.6 L 1140.0 171.7 L 1135.7 172.5 L 1138.8 175.8 L 1136.9 177.2 L 1134.8 173.1 L 1132.6 177.2 L 1130.7 175.9 " fill="#191919"/>
<path class="atom-3" d="M 990.3 102.4 Q 990.3 97.2, 992.9 94.3 Q 995.5 91.3, 1000.4 91.3 Q 1005.2 91.3, 1007.8 94.3 Q 1010.4 97.2, 1010.4 102.4 Q 1010.4 107.8, 1007.8 110.8 Q 1005.2 113.8, 1000.4 113.8 Q 995.6 113.8, 992.9 110.8 Q 990.3 107.8, 990.3 102.4 M 1000.4 111.3 Q 1003.7 111.3, 1005.5 109.1 Q 1007.3 106.8, 1007.3 102.4 Q 1007.3 98.1, 1005.5 96.0 Q 1003.7 93.8, 1000.4 93.8 Q 997.0 93.8, 995.2 96.0 Q 993.4 98.1, 993.4 102.4 Q 993.4 106.9, 995.2 109.1 Q 997.0 111.3, 1000.4 111.3 " fill="#FF0000"/>
<path class="atom-3" d="M 1013.8 91.6 L 1016.8 91.6 L 1016.8 100.9 L 1028.0 100.9 L 1028.0 91.6 L 1030.9 91.6 L 1030.9 113.4 L 1028.0 113.4 L 1028.0 103.3 L 1016.8 103.3 L 1016.8 113.4 L 1013.8 113.4 L 1013.8 91.6 " fill="#FF0000"/>
<path class="atom-5" d="M 857.4 180.9 Q 857.4 175.7, 860.0 172.7 Q 862.6 169.8, 867.4 169.8 Q 872.3 169.8, 874.9 172.7 Q 877.4 175.7, 877.4 180.9 Q 877.4 186.2, 874.8 189.2 Q 872.2 192.2, 867.4 192.2 Q 862.6 192.2, 860.0 189.2 Q 857.4 186.3, 857.4 180.9 M 867.4 189.8 Q 870.7 189.8, 872.5 187.6 Q 874.4 185.3, 874.4 180.9 Q 874.4 176.6, 872.5 174.5 Q 870.7 172.3, 867.4 172.3 Q 864.1 172.3, 862.3 174.4 Q 860.5 176.6, 860.5 180.9 Q 860.5 185.3, 862.3 187.6 Q 864.1 189.8, 867.4 189.8 " fill="#FF0000"/>
<path class="atom-7" d="M 791.6 297.3 Q 791.6 292.1, 794.2 289.2 Q 796.8 286.2, 801.7 286.2 Q 806.5 286.2, 809.1 289.2 Q 811.7 292.1, 811.7 297.3 Q 811.7 302.7, 809.1 305.7 Q 806.5 308.7, 801.7 308.7 Q 796.8 308.7, 794.2 305.7 Q 791.6 302.7, 791.6 297.3 M 801.7 306.2 Q 805.0 306.2, 806.8 304.0 Q 808.6 301.7, 808.6 297.3 Q 808.6 293.1, 806.8 290.9 Q 805.0 288.7, 801.7 288.7 Q 798.3 288.7, 796.5 290.9 Q 794.7 293.0, 794.7 297.3 Q 794.7 301.8, 796.5 304.0 Q 798.3 306.2, 801.7 306.2 " fill="#FF0000"/>
<path class="atom-17" d="M 188.1 110.1 Q 188.1 104.8, 190.7 101.9 Q 193.3 99.0, 198.1 99.0 Q 203.0 99.0, 205.6 101.9 Q 208.2 104.8, 208.2 110.1 Q 208.2 115.4, 205.6 118.4 Q 202.9 121.4, 198.1 121.4 Q 193.3 121.4, 190.7 118.4 Q 188.1 115.4, 188.1 110.1 M 198.1 119.0 Q 201.5 119.0, 203.3 116.7 Q 205.1 114.5, 205.1 110.1 Q 205.1 105.8, 203.3 103.6 Q 201.5 101.4, 198.1 101.4 Q 194.8 101.4, 193.0 103.6 Q 191.2 105.8, 191.2 110.1 Q 191.2 114.5, 193.0 116.7 Q 194.8 119.0, 198.1 119.0 " fill="#FF0000"/>
<path class="atom-18" d="M 122.4 226.5 Q 122.4 221.3, 125.0 218.3 Q 127.5 215.4, 132.4 215.4 Q 137.2 215.4, 139.8 218.3 Q 142.4 221.3, 142.4 226.5 Q 142.4 231.8, 139.8 234.9 Q 137.2 237.9, 132.4 237.9 Q 127.6 237.9, 125.0 234.9 Q 122.4 231.9, 122.4 226.5 M 132.4 235.4 Q 135.7 235.4, 137.5 233.2 Q 139.3 230.9, 139.3 226.5 Q 139.3 222.2, 137.5 220.1 Q 135.7 217.9, 132.4 217.9 Q 129.1 217.9, 127.2 220.0 Q 125.4 222.2, 125.4 226.5 Q 125.4 230.9, 127.2 233.2 Q 129.1 235.4, 132.4 235.4 " fill="#FF0000"/>
<path class="atom-19" d="M 61.0 186.1 L 64.3 182.8 L 60.0 181.9 L 60.6 179.7 L 64.6 181.7 L 64.0 177.4 L 66.3 177.4 L 65.7 181.7 L 69.7 179.8 L 70.3 181.9 L 66.0 182.7 L 69.1 186.0 L 67.2 187.4 L 65.1 183.3 L 62.9 187.4 L 61.0 186.1 " fill="#191919"/>
<path class="bond-0 atom-0 atom-1" d="M 864.9,602.5 L 833.5,622.5" style="fill:none;fill-rule:evenodd;stroke:#191919;stroke-width:2.0px;stroke-linecap:butt;stroke-linejoin:miter;stroke-opacity:1"/>
<path class="bond-0 atom-0 atom-1" d="M 833.5,622.5 L 802.0,642.4" style="fill:none;fill-rule:evenodd;stroke:#000000;stroke-width:2.0px;stroke-linecap:butt;stroke-linejoin:miter;stroke-opacity:1"/>
<path class="bond-1 atom-1 atom-2" d="M 802.0,642.4 L 733.6,606.6" style="fill:none;fill-rule:evenodd;stroke:#000000;stroke-width:2.0px;stroke-linecap:butt;stroke-linejoin:miter;stroke-opacity:1"/>
<path class="bond-2 atom-2 atom-3" d="M 733.6,606.6 L 668.4,648.0" style="fill:none;fill-rule:evenodd;stroke:#000000;stroke-width:2.0px;stroke-linecap:butt;stroke-linejoin:miter;stroke-opacity:1"/>
<path class="bond-3 atom-3 atom-4" d="M 668.4,648.0 L 600.0,612.2" style="fill:none;fill-rule:evenodd;stroke:#000000;stroke-width:2.0px;stroke-linecap:butt;stroke-linejoin:miter;stroke-opacity:1"/>
<path class="bond-4 atom-4 atom-5" d="M 600.0,612.2 L 534.8,653.5" style="fill:none;fill-rule:evenodd;stroke:#000000;stroke-width:2.0px;stroke-linecap:butt;stroke-linejoin:miter;stroke-opacity:1"/>
<path class="bond-5 atom-5 atom-6" d="M 534.8,653.5 L 466.4,617.7" style="fill:none;fill-rule:evenodd;stroke:#000000;stroke-width:2.0px;stroke-linecap:butt;stroke-linejoin:miter;stroke-opacity:1"/>
<path class="bond-6 atom-6 atom-7" d="M 472.3,620.8 L 470.9,587.6" style="fill:none;fill-rule:evenodd;stroke:#000000;stroke-width:2.0px;stroke-linecap:butt;stroke-linejoin:miter;stroke-opacity:1"/>
<path class="bond-6 atom-6 atom-7" d="M 470.9,587.6 L 469.6,554.3" style="fill:none;fill-rule:evenodd;stroke:#FF0000;stroke-width:2.0px;stroke-linecap:butt;stroke-linejoin:miter;stroke-opacity:1"/>
<path class="bond-6 atom-6 atom-7" d="M 460.8,621.3 L 459.4,588.0" style="fill:none;fill-rule:evenodd;stroke:#000000;stroke-width:2.0px;stroke-linecap:butt;stroke-linejoin:miter;stroke-opacity:1"/>
<path class="bond-6 atom-6 atom-7" d="M 459.4,588.0 L 458.0,554.8" style="fill:none;fill-rule:evenodd;stroke:#FF0000;stroke-width:2.0px;stroke-linecap:butt;stroke-linejoin:miter;stroke-opacity:1"/>
<path class="bond-7 atom-6 atom-8" d="M 466.4,617.7 L 440.1,634.4" style="fill:none;fill-rule:evenodd;stroke:#000000;stroke-width:2.0px;stroke-linecap:butt;stroke-linejoin:miter;stroke-opacity:1"/>
<path class="bond-7 atom-6 atom-8" d="M 440.1,634.4 L 413.8,651.1" style="fill:none;fill-rule:evenodd;stroke:#FF0000;stroke-width:2.0px;stroke-linecap:butt;stroke-linejoin:miter;stroke-opacity:1"/>
<path class="bond-8 atom-8 atom-9" d="M 388.6,652.5 L 362.1,638.6" style="fill:none;fill-rule:evenodd;stroke:#FF0000;stroke-width:2.0px;stroke-linecap:butt;stroke-linejoin:miter;stroke-opacity:1"/>
<path class="bond-8 atom-8 atom-9" d="M 362.1,638.6 L 335.5,624.7" style="fill:none;fill-rule:evenodd;stroke:#191919;stroke-width:2.0px;stroke-linecap:butt;stroke-linejoin:miter;stroke-opacity:1"/>
<path d="M 803.6,641.4 L 802.0,642.4 L 798.6,640.6" style="fill:none;stroke:#000000;stroke-width:2.0px;stroke-linecap:butt;stroke-linejoin:miter;stroke-opacity:1;"/>
<path d="M 737.0,608.4 L 733.6,606.6 L 730.3,608.7" style="fill:none;stroke:#000000;stroke-width:2.0px;stroke-linecap:butt;stroke-linejoin:miter;stroke-opacity:1;"/>
<path d="M 671.7,645.9 L 668.4,648.0 L 665.0,646.2" style="fill:none;stroke:#000000;stroke-width:2.0px;stroke-linecap:butt;stroke-linejoin:miter;stroke-opacity:1;"/>
<path d="M 603.4,614.0 L 600.0,612.2 L 596.7,614.2" style="fill:none;stroke:#000000;stroke-width:2.0px;stroke-linecap:butt;stroke-linejoin:miter;stroke-opacity:1;"/>
<path d="M 538.1,651.5 L 534.8,653.5 L 531.4,651.7" style="fill:none;stroke:#000000;stroke-width:2.0px;stroke-linecap:butt;stroke-linejoin:miter;stroke-opacity:1;"/>
<path d="M 469.8,619.5 L 466.4,617.7 L 465.1,618.6" style="fill:none;stroke:#000000;stroke-width:2.0px;stroke-linecap:butt;stroke-linejoin:miter;stroke-opacity:1;"/>
<path class="atom-0" d="M 863.1 598.6 L 866.3 595.4 L 862.0 594.5 L 862.7 592.3 L 866.6 594.3 L 866.0 590.0 L 868.4 590.0 L 867.7 594.3 L 871.7 592.4 L 872.4 594.5 L 868.0 595.3 L 871.1 598.6 L 869.2 600.0 L 867.1 595.9 L 865.0 600.0 L 863.1 598.6 " fill="#191919"/>
<path class="atom-7" d="M 453.2 540.7 Q 453.2 535.4, 455.8 532.5 Q 458.4 529.5, 463.2 529.5 Q 468.0 529.5, 470.6 532.5 Q 473.2 535.4, 473.2 540.7 Q 473.2 546.0, 470.6 549.0 Q 468.0 552.0, 463.2 552.0 Q 458.4 552.0, 455.8 549.0 Q 453.2 546.0, 453.2 540.7 M 463.2 549.5 Q 466.5 549.5, 468.3 547.3 Q 470.1 545.0, 470.1 540.7 Q 470.1 536.4, 468.3 534.2 Q 466.5 532.0, 463.2 532.0 Q 459.9 532.0, 458.0 534.2 Q 456.3 536.3, 456.3 540.7 Q 456.3 545.1, 458.0 547.3 Q 459.9 549.5, 463.2 549.5 " fill="#FF0000"/>
<path class="atom-8" d="M 391.2 659.1 Q 391.2 653.9, 393.8 650.9 Q 396.4 648.0, 401.2 648.0 Q 406.1 648.0, 408.6 650.9 Q 411.2 653.9, 411.2 659.1 Q 411.2 664.4, 408.6 667.5 Q 406.0 670.5, 401.2 670.5 Q 396.4 670.5, 393.8 667.5 Q 391.2 664.5, 391.2 659.1 M 401.2 668.0 Q 404.5 668.0, 406.3 665.8 Q 408.2 663.5, 408.2 659.1 Q 408.2 654.8, 406.3 652.7 Q 404.5 650.5, 401.2 650.5 Q 397.9 650.5, 396.0 652.6 Q 394.3 654.8, 394.3 659.1 Q 394.3 663.5, 396.0 665.8 Q 397.9 668.0, 401.2 668.0 " fill="#FF0000"/>
<path class="atom-9" d="M 328.7 620.8 L 331.9 617.6 L 327.6 616.7 L 328.3 614.5 L 332.2 616.5 L 331.6 612.2 L 334.0 612.2 L 333.3 616.4 L 337.3 614.6 L 338.0 616.7 L 333.7 617.5 L 336.7 620.8 L 334.9 622.2 L 332.7 618.1 L 330.6 622.2 L 328.7 620.8 " fill="#191919"/>
</svg>