<svg xmlns="http://www.w3.org/2000/svg" xmlns:rdkit="http://www.rdkit.org/xml" xmlns:xlink="http://www.w3.org/1999/xlink" version="1.1" baseProfile="full" xml:space="preserve" width="1200px" height="800px" viewBox="0 0 1200 800">
<!-- END OF HEADER -->
<rect style="opacity:1.0;fill:#FFFFFF;stroke:none" width="1200.0" height="800.0" x="0.0" y="0.0"> </rect>
<path class="bond-0 atom-0 atom-1" d="M 1007.3,72.6 L 993.8,122.1" style="fill:none;fill-rule:evenodd;stroke:#191919;stroke-width:2.0px;stroke-linecap:butt;stroke-linejoin:miter;stroke-opacity:1"/>
<path class="bond-0 atom-0 atom-1" d="M 993.8,122.1 L 980.4,171.6" style="fill:none;fill-rule:evenodd;stroke:#FF0000;stroke-width:2.0px;stroke-linecap:butt;stroke-linejoin:miter;stroke-opacity:1"/>
<path class="bond-1 atom-1 atom-2" d="M 958.3,194.6 L 906.7,208.2" style="fill:none;fill-rule:evenodd;stroke:#FF0000;stroke-width:2.0px;stroke-linecap:butt;stroke-linejoin:miter;stroke-opacity:1"/>
<path class="bond-1 atom-1 atom-2" d="M 906.7,208.2 L 855.1,221.9" style="fill:none;fill-rule:evenodd;stroke:#000000;stroke-width:2.0px;stroke-linecap:butt;stroke-linejoin:miter;stroke-opacity:1"/>
<path class="bond-2 atom-2 atom-3" d="M 855.1,221.9 L 822.4,342.0" style="fill:none;fill-rule:evenodd;stroke:#000000;stroke-width:2.0px;stroke-linecap:butt;stroke-linejoin:miter;stroke-opacity:1"/>
<path class="bond-3 atom-2 atom-4" d="M 855.1,221.9 L 767.3,133.6" style="fill:none;fill-rule:evenodd;stroke:#000000;stroke-width:2.0px;stroke-linecap:butt;stroke-linejoin:miter;stroke-opacity:1"/>
<path class="bond-4 atom-4 atom-5" d="M 767.3,133.6 L 647.0,165.4" style="fill:none;fill-rule:evenodd;stroke:#000000;stroke-width:2.0px;stroke-linecap:butt;stroke-linejoin:miter;stroke-opacity:1"/>
<path class="bond-5 atom-5 atom-6" d="M 639.4,157.7 L 624.9,211.2" style="fill:none;fill-rule:evenodd;stroke:#000000;stroke-width:2.0px;stroke-linecap:butt;stroke-linejoin:miter;stroke-opacity:1"/>
<path class="bond-5 atom-5 atom-6" d="M 624.9,211.2 L 610.4,264.6" style="fill:none;fill-rule:evenodd;stroke:#FF0000;stroke-width:2.0px;stroke-linecap:butt;stroke-linejoin:miter;stroke-opacity:1"/>
<path class="bond-5 atom-5 atom-6" d="M 657.4,162.6 L 642.9,216.1" style="fill:none;fill-rule:evenodd;stroke:#000000;stroke-width:2.0px;stroke-linecap:butt;stroke-linejoin:miter;stroke-opacity:1"/>
<path class="bond-5 atom-5 atom-6" d="M 642.9,216.1 L 628.4,269.5" style="fill:none;fill-rule:evenodd;stroke:#FF0000;stroke-width:2.0px;stroke-linecap:butt;stroke-linejoin:miter;stroke-opacity:1"/>
<path class="bond-6 atom-5 atom-7" d="M 647.0,165.4 L 611.7,129.8" style="fill:none;fill-rule:evenodd;stroke:#000000;stroke-width:2.0px;stroke-linecap:butt;stroke-linejoin:miter;stroke-opacity:1"/>
<path class="bond-6 atom-5 atom-7" d="M 611.7,129.8 L 576.4,94.3" style="fill:none;fill-rule:evenodd;stroke:#FF0000;stroke-width:2.0px;stroke-linecap:butt;stroke-linejoin:miter;stroke-opacity:1"/>
<path class="bond-7 atom-7 atom-8" d="M 542.2,81.6 L 490.6,95.2" style="fill:none;fill-rule:evenodd;stroke:#FF0000;stroke-width:2.0px;stroke-linecap:butt;stroke-linejoin:miter;stroke-opacity:1"/>
<path class="bond-7 atom-7 atom-8" d="M 490.6,95.2 L 439.0,108.9" style="fill:none;fill-rule:evenodd;stroke:#000000;stroke-width:2.0px;stroke-linecap:butt;stroke-linejoin:miter;stroke-opacity:1"/>
<path class="bond-8 atom-8 atom-9" d="M 439.0,108.9 L 351.2,20.5" style="fill:none;fill-rule:evenodd;stroke:#000000;stroke-width:2.0px;stroke-linecap:butt;stroke-linejoin:miter;stroke-opacity:1"/>
<path class="bond-9 atom-9 atom-10" d="M 351.2,20.5 L 230.9,52.3" style="fill:none;fill-rule:evenodd;stroke:#000000;stroke-width:2.0px;stroke-linecap:butt;stroke-linejoin:miter;stroke-opacity:1"/>
<path class="bond-10 atom-8 atom-11" d="M 439.0,108.9 L 406.3,229.0" style="fill:none;fill-rule:evenodd;stroke:#000000;stroke-width:2.0px;stroke-linecap:butt;stroke-linejoin:miter;stroke-opacity:1"/>
<path class="bond-11 atom-11 atom-12" d="M 406.3,229.0 L 286.0,260.8" style="fill:none;fill-rule:evenodd;stroke:#000000;stroke-width:2.0px;stroke-linecap:butt;stroke-linejoin:miter;stroke-opacity:1"/>
<path class="bond-12 atom-12 atom-13" d="M 286.0,260.8 L 272.2,311.6" style="fill:none;fill-rule:evenodd;stroke:#000000;stroke-width:2.0px;stroke-linecap:butt;stroke-linejoin:miter;stroke-opacity:1"/>
<path class="bond-12 atom-12 atom-13" d="M 272.2,311.6 L 258.4,362.4" style="fill:none;fill-rule:evenodd;stroke:#191919;stroke-width:2.0px;stroke-linecap:butt;stroke-linejoin:miter;stroke-opacity:1"/>
<path class="bond-13 atom-12 atom-14" d="M 296.4,258.0 L 259.2,220.6" style="fill:none;fill-rule:evenodd;stroke:#000000;stroke-width:2.0px;stroke-linecap:butt;stroke-linejoin:miter;stroke-opacity:1"/>
<path class="bond-13 atom-12 atom-14" d="M 259.2,220.6 L 222.0,183.1" style="fill:none;fill-rule:evenodd;stroke:#FF0000;stroke-width:2.0px;stroke-linecap:butt;stroke-linejoin:miter;stroke-opacity:1"/>
<path class="bond-13 atom-12 atom-14" d="M 283.2,271.2 L 246.0,233.7" style="fill:none;fill-rule:evenodd;stroke:#000000;stroke-width:2.0px;stroke-linecap:butt;stroke-linejoin:miter;stroke-opacity:1"/>
<path class="bond-13 atom-12 atom-14" d="M 246.0,233.7 L 208.8,196.3" style="fill:none;fill-rule:evenodd;stroke:#FF0000;stroke-width:2.0px;stroke-linecap:butt;stroke-linejoin:miter;stroke-opacity:1"/>
<path d="M 771.7,138.0 L 767.3,133.6 L 761.3,135.1" style="fill:none;stroke:#000000;stroke-width:2.0px;stroke-linecap:butt;stroke-linejoin:miter;stroke-opacity:1;"/>
<path d="M 653.0,163.8 L 647.0,165.4 L 645.2,163.6" style="fill:none;stroke:#000000;stroke-width:2.0px;stroke-linecap:butt;stroke-linejoin:miter;stroke-opacity:1;"/>
<path d="M 355.6,25.0 L 351.2,20.5 L 345.2,22.1" style="fill:none;stroke:#000000;stroke-width:2.0px;stroke-linecap:butt;stroke-linejoin:miter;stroke-opacity:1;"/>
<path d="M 408.0,223.0 L 406.3,229.0 L 400.3,230.6" style="fill:none;stroke:#000000;stroke-width:2.0px;stroke-linecap:butt;stroke-linejoin:miter;stroke-opacity:1;"/>
<path d="M 292.0,259.2 L 286.0,260.8 L 285.3,263.3" style="fill:none;stroke:#000000;stroke-width:2.0px;stroke-linecap:butt;stroke-linejoin:miter;stroke-opacity:1;"/>
<path class="atom-0" d="M 1002.7 66.8 L 1006.8 62.5 L 1001.3 61.4 L 1002.2 58.6 L 1007.2 61.1 L 1006.5 55.6 L 1009.5 55.5 L 1008.7 61.1 L 1013.8 58.7 L 1014.7 61.4 L 1009.1 62.5 L 1013.1 66.7 L 1010.7 68.5 L 1007.9 63.2 L 1005.1 68.5 L 1002.7 66.8 " fill="#191919"/>
<path class="atom-1" d="M 962.4 190.1 Q 962.4 183.3, 965.8 179.5 Q 969.1 175.7, 975.4 175.7 Q 981.7 175.7, 985.0 179.5 Q 988.4 183.3, 988.4 190.1 Q 988.4 197.0, 985.0 200.9 Q 981.6 204.8, 975.4 204.8 Q 969.2 204.8, 965.8 200.9 Q 962.4 197.1, 962.4 190.1 M 975.4 201.6 Q 979.7 201.6, 982.0 198.7 Q 984.4 195.8, 984.4 190.1 Q 984.4 184.6, 982.0 181.8 Q 979.7 178.9, 975.4 178.9 Q 971.1 178.9, 968.7 181.7 Q 966.4 184.5, 966.4 190.1 Q 966.4 195.9, 968.7 198.7 Q 971.1 201.6, 975.4 201.6 " fill="#FF0000"/>
<path class="atom-6" d="M 601.4 285.6 Q 601.4 278.8, 604.7 275.0 Q 608.1 271.2, 614.4 271.2 Q 620.7 271.2, 624.0 275.0 Q 627.4 278.8, 627.4 285.6 Q 627.4 292.4, 624.0 296.4 Q 620.6 300.2, 614.4 300.2 Q 608.1 300.2, 604.7 296.4 Q 601.4 292.5, 601.4 285.6 M 614.4 297.0 Q 618.7 297.0, 621.0 294.2 Q 623.4 291.2, 623.4 285.6 Q 623.4 280.0, 621.0 277.2 Q 618.7 274.4, 614.4 274.4 Q 610.1 274.4, 607.7 277.2 Q 605.4 280.0, 605.4 285.6 Q 605.4 291.3, 607.7 294.2 Q 610.1 297.0, 614.4 297.0 " fill="#FF0000"/>
<path class="atom-7" d="M 546.3 77.1 Q 546.3 70.3, 549.7 66.5 Q 553.0 62.7, 559.3 62.7 Q 565.6 62.7, 568.9 66.5 Q 572.3 70.3, 572.3 77.1 Q 572.3 84.0, 568.9 87.9 Q 565.5 91.8, 559.3 91.8 Q 553.1 91.8, 549.7 87.9 Q 546.3 84.0, 546.3 77.1 M 559.3 88.6 Q 563.6 88.6, 565.9 85.7 Q 568.3 82.8, 568.3 77.1 Q 568.3 71.6, 565.9 68.8 Q 563.6 65.9, 559.3 65.9 Q 555.0 65.9, 552.6 68.7 Q 550.3 71.5, 550.3 77.1 Q 550.3 82.8, 552.6 85.7 Q 555.0 88.6, 559.3 88.6 " fill="#FF0000"/>
<path class="atom-13" d="M 248.0 377.7 L 252.2 373.5 L 246.7 372.4 L 247.5 369.5 L 252.6 372.1 L 251.9 366.5 L 254.9 366.5 L 254.0 372.1 L 259.2 369.7 L 260.1 372.4 L 254.5 373.4 L 258.5 377.7 L 256.0 379.5 L 253.3 374.2 L 250.5 379.5 L 248.0 377.7 " fill="#191919"/>
<path class="atom-14" d="M 185.3 172.5 Q 185.3 165.7, 188.6 161.9 Q 192.0 158.1, 198.3 158.1 Q 204.6 158.1, 207.9 161.9 Q 211.3 165.7, 211.3 172.5 Q 211.3 179.4, 207.9 183.3 Q 204.5 187.2, 198.3 187.2 Q 192.0 187.2, 188.6 183.3 Q 185.3 179.5, 185.3 172.5 M 198.3 184.0 Q 202.6 184.0, 204.9 181.1 Q 207.3 178.2, 207.3 172.5 Q 207.3 167.0, 204.9 164.2 Q 202.6 161.3, 198.3 161.3 Q 194.0 161.3, 191.6 164.1 Q 189.3 166.9, 189.3 172.5 Q 189.3 178.3, 191.6 181.1 Q 194.0 184.0, 198.3 184.0 " fill="#FF0000"/>
<path class="bond-0 atom-0 atom-1" d="M 958.1,440.6 L 946.2,500.3" style="fill:none;fill-rule:evenodd;stroke:#191919;stroke-width:2.0px;stroke-linecap:butt;stroke-linejoin:miter;stroke-opacity:1"/>
<path class="bond-0 atom-0 atom-1" d="M 946.2,500.3 L 934.2,560.0" style="fill:none;fill-rule:evenodd;stroke:#000000;stroke-width:2.0px;stroke-linecap:butt;stroke-linejoin:miter;stroke-opacity:1"/>
<path class="bond-1 atom-1 atom-2" d="M 934.2,560.0 L 816.3,599.8" style="fill:none;fill-rule:evenodd;stroke:#000000;stroke-width:2.0px;stroke-linecap:butt;stroke-linejoin:miter;stroke-opacity:1"/>
<path class="bond-2 atom-2 atom-3" d="M 816.3,599.8 L 796.8,542.2" style="fill:none;fill-rule:evenodd;stroke:#000000;stroke-width:2.0px;stroke-linecap:butt;stroke-linejoin:miter;stroke-opacity:1"/>
<path class="bond-2 atom-2 atom-3" d="M 796.8,542.2 L 777.4,484.6" style="fill:none;fill-rule:evenodd;stroke:#191919;stroke-width:2.0px;stroke-linecap:butt;stroke-linejoin:miter;stroke-opacity:1"/>
<path class="bond-3 atom-2 atom-4" d="M 816.3,599.8 L 856.1,717.7" style="fill:none;fill-rule:evenodd;stroke:#000000;stroke-width:2.0px;stroke-linecap:butt;stroke-linejoin:miter;stroke-opacity:1"/>
<path class="bond-4 atom-2 atom-5" d="M 816.3,599.8 L 698.3,639.6" style="fill:none;fill-rule:evenodd;stroke:#000000;stroke-width:2.0px;stroke-linecap:butt;stroke-linejoin:miter;stroke-opacity:1"/>
<path class="bond-5 atom-5 atom-6" d="M 690.2,632.5 L 679.3,687.0" style="fill:none;fill-rule:evenodd;stroke:#000000;stroke-width:2.0px;stroke-linecap:butt;stroke-linejoin:miter;stroke-opacity:1"/>
<path class="bond-5 atom-5 atom-6" d="M 679.3,687.0 L 668.4,741.4" style="fill:none;fill-rule:evenodd;stroke:#FF0000;stroke-width:2.0px;stroke-linecap:butt;stroke-linejoin:miter;stroke-opacity:1"/>
<path class="bond-5 atom-5 atom-6" d="M 708.6,636.2 L 697.6,690.6" style="fill:none;fill-rule:evenodd;stroke:#000000;stroke-width:2.0px;stroke-linecap:butt;stroke-linejoin:miter;stroke-opacity:1"/>
<path class="bond-5 atom-5 atom-6" d="M 697.6,690.6 L 686.7,745.1" style="fill:none;fill-rule:evenodd;stroke:#FF0000;stroke-width:2.0px;stroke-linecap:butt;stroke-linejoin:miter;stroke-opacity:1"/>
<path class="bond-6 atom-5 atom-7" d="M 698.3,639.6 L 660.2,606.1" style="fill:none;fill-rule:evenodd;stroke:#000000;stroke-width:2.0px;stroke-linecap:butt;stroke-linejoin:miter;stroke-opacity:1"/>
<path class="bond-6 atom-5 atom-7" d="M 660.2,606.1 L 622.0,572.5" style="fill:none;fill-rule:evenodd;stroke:#FF0000;stroke-width:2.0px;stroke-linecap:butt;stroke-linejoin:miter;stroke-opacity:1"/>
<path class="bond-7 atom-7 atom-8" d="M 587.8,563.2 L 537.4,580.2" style="fill:none;fill-rule:evenodd;stroke:#FF0000;stroke-width:2.0px;stroke-linecap:butt;stroke-linejoin:miter;stroke-opacity:1"/>
<path class="bond-7 atom-7 atom-8" d="M 537.4,580.2 L 487.0,597.2" style="fill:none;fill-rule:evenodd;stroke:#000000;stroke-width:2.0px;stroke-linecap:butt;stroke-linejoin:miter;stroke-opacity:1"/>
<path class="bond-8 atom-8 atom-9" d="M 487.0,597.2 L 393.5,515.0" style="fill:none;fill-rule:evenodd;stroke:#000000;stroke-width:2.0px;stroke-linecap:butt;stroke-linejoin:miter;stroke-opacity:1"/>
<path class="bond-9 atom-9 atom-10" d="M 393.5,515.0 L 343.1,532.0" style="fill:none;fill-rule:evenodd;stroke:#000000;stroke-width:2.0px;stroke-linecap:butt;stroke-linejoin:miter;stroke-opacity:1"/>
<path class="bond-9 atom-9 atom-10" d="M 343.1,532.0 L 292.7,549.0" style="fill:none;fill-rule:evenodd;stroke:#FF0000;stroke-width:2.0px;stroke-linecap:butt;stroke-linejoin:miter;stroke-opacity:1"/>
<path d="M 934.8,557.0 L 934.2,560.0 L 928.3,562.0" style="fill:none;stroke:#000000;stroke-width:2.0px;stroke-linecap:butt;stroke-linejoin:miter;stroke-opacity:1;"/>
<path d="M 704.2,637.6 L 698.3,639.6 L 696.4,638.0" style="fill:none;stroke:#000000;stroke-width:2.0px;stroke-linecap:butt;stroke-linejoin:miter;stroke-opacity:1;"/>
<path d="M 489.5,596.4 L 487.0,597.2 L 482.3,593.1" style="fill:none;stroke:#000000;stroke-width:2.0px;stroke-linecap:butt;stroke-linejoin:miter;stroke-opacity:1;"/>
<path d="M 398.2,519.1 L 393.5,515.0 L 391.0,515.9" style="fill:none;stroke:#000000;stroke-width:2.0px;stroke-linecap:butt;stroke-linejoin:miter;stroke-opacity:1;"/>
<path class="atom-0" d="M 953.3 434.8 L 957.5 430.6 L 952.0 429.4 L 952.8 426.6 L 957.9 429.2 L 957.2 423.6 L 960.2 423.6 L 959.3 429.1 L 964.5 426.7 L 965.4 429.4 L 959.8 430.5 L 963.8 434.8 L 961.3 436.5 L 958.6 431.2 L 955.8 436.5 L 953.3 434.8 " fill="#191919"/>
<path class="atom-3" d="M 771.1 478.7 L 775.3 474.5 L 769.8 473.4 L 770.6 470.5 L 775.7 473.1 L 775.0 467.5 L 778.0 467.5 L 777.1 473.1 L 782.3 470.7 L 783.2 473.4 L 777.6 474.4 L 781.6 478.7 L 779.1 480.5 L 776.4 475.2 L 773.6 480.5 L 771.1 478.7 " fill="#191919"/>
<path class="atom-6" d="M 660.9 761.8 Q 660.9 755.0, 664.2 751.2 Q 667.6 747.4, 673.9 747.4 Q 680.1 747.4, 683.5 751.2 Q 686.9 755.0, 686.9 761.8 Q 686.9 768.6, 683.5 772.6 Q 680.1 776.4, 673.9 776.4 Q 667.6 776.4, 664.2 772.6 Q 660.9 768.7, 660.9 761.8 M 673.9 773.2 Q 678.2 773.2, 680.5 770.4 Q 682.9 767.4, 682.9 761.8 Q 682.9 756.2, 680.5 753.4 Q 678.2 750.6, 673.9 750.6 Q 669.5 750.6, 667.2 753.4 Q 664.9 756.2, 664.9 761.8 Q 664.9 767.5, 667.2 770.4 Q 669.5 773.2, 673.9 773.2 " fill="#FF0000"/>
<path class="atom-7" d="M 591.9 557.5 Q 591.9 550.7, 595.3 546.9 Q 598.6 543.1, 604.9 543.1 Q 611.2 543.1, 614.5 546.9 Q 617.9 550.7, 617.9 557.5 Q 617.9 564.4, 614.5 568.3 Q 611.1 572.2, 604.9 572.2 Q 598.7 572.2, 595.3 568.3 Q 591.9 564.4, 591.9 557.5 M 604.9 569.0 Q 609.2 569.0, 611.5 566.1 Q 613.9 563.2, 613.9 557.5 Q 613.9 551.9, 611.5 549.1 Q 609.2 546.3, 604.9 546.3 Q 600.6 546.3, 598.2 549.1 Q 595.9 551.9, 595.9 557.5 Q 595.9 563.2, 598.2 566.1 Q 600.6 569.0, 604.9 569.0 " fill="#FF0000"/>
<path class="atom-10" d="M 234.6 540.8 L 238.5 540.8 L 238.5 552.9 L 252.9 552.9 L 252.9 540.8 L 256.8 540.8 L 256.8 569.1 L 252.9 569.1 L 252.9 556.1 L 238.5 556.1 L 238.5 569.1 L 234.6 569.1 L 234.6 540.8 " fill="#FF0000"/>
<path class="atom-10" d="M 262.6 554.9 Q 262.6 548.1, 265.9 544.3 Q 269.3 540.5, 275.6 540.5 Q 281.9 540.5, 285.2 544.3 Q 288.6 548.1, 288.6 554.9 Q 288.6 561.8, 285.2 565.7 Q 281.8 569.6, 275.6 569.6 Q 269.3 569.6, 265.9 565.7 Q 262.6 561.8, 262.6 554.9 M 275.6 566.4 Q 279.9 566.4, 282.2 563.5 Q 284.6 560.6, 284.6 554.9 Q 284.6 549.3, 282.2 546.5 Q 279.9 543.7, 275.6 543.7 Q 271.3 543.7, 268.9 546.5 Q 266.6 549.3, 266.6 554.9 Q 266.6 560.6, 268.9 563.5 Q 271.3 566.4, 275.6 566.4 " fill="#FF0000"/>
</svg>