<svg xmlns="http://www.w3.org/2000/svg" xmlns:rdkit="http://www.rdkit.org/xml" xmlns:xlink="http://www.w3.org/1999/xlink" version="1.1" baseProfile="full" xml:space="preserve" width="1200px" height="800px" viewBox="0 0 1200 800">
<!-- END OF HEADER -->
<rect style="opacity:1.0;fill:#FFFFFF;stroke:none" width="1200.0" height="800.0" x="0.0" y="0.0"> </rect>
<path class="bond-0 atom-0 atom-1" d="M 72.7,278.1 L 97.6,267.6" style="fill:none;fill-rule:evenodd;stroke:#191919;stroke-width:2.0px;stroke-linecap:butt;stroke-linejoin:miter;stroke-opacity:1"/>
<path class="bond-0 atom-0 atom-1" d="M 97.6,267.6 L 122.5,257.1" style="fill:none;fill-rule:evenodd;stroke:#FF0000;stroke-width:2.0px;stroke-linecap:butt;stroke-linejoin:miter;stroke-opacity:1"/>
<path class="bond-1 atom-1 atom-2" d="M 136.6,238.6 L 140.5,207.6" style="fill:none;fill-rule:evenodd;stroke:#FF0000;stroke-width:2.0px;stroke-linecap:butt;stroke-linejoin:miter;stroke-opacity:1"/>
<path class="bond-1 atom-1 atom-2" d="M 140.5,207.6 L 144.4,176.7" style="fill:none;fill-rule:evenodd;stroke:#000000;stroke-width:2.0px;stroke-linecap:butt;stroke-linejoin:miter;stroke-opacity:1"/>
<path class="bond-2 atom-2 atom-3" d="M 144.4,176.7 L 84.0,131.0" style="fill:none;fill-rule:evenodd;stroke:#000000;stroke-width:2.0px;stroke-linecap:butt;stroke-linejoin:miter;stroke-opacity:1"/>
<path class="bond-3 atom-2 atom-4" d="M 144.4,176.7 L 214.2,147.3" style="fill:none;fill-rule:evenodd;stroke:#000000;stroke-width:2.0px;stroke-linecap:butt;stroke-linejoin:miter;stroke-opacity:1"/>
<path class="bond-4 atom-4 atom-5" d="M 219.4,151.3 L 223.5,118.9" style="fill:none;fill-rule:evenodd;stroke:#000000;stroke-width:2.0px;stroke-linecap:butt;stroke-linejoin:miter;stroke-opacity:1"/>
<path class="bond-4 atom-4 atom-5" d="M 223.5,118.9 L 227.5,86.6" style="fill:none;fill-rule:evenodd;stroke:#FF0000;stroke-width:2.0px;stroke-linecap:butt;stroke-linejoin:miter;stroke-opacity:1"/>
<path class="bond-4 atom-4 atom-5" d="M 208.1,149.9 L 212.2,117.5" style="fill:none;fill-rule:evenodd;stroke:#000000;stroke-width:2.0px;stroke-linecap:butt;stroke-linejoin:miter;stroke-opacity:1"/>
<path class="bond-4 atom-4 atom-5" d="M 212.2,117.5 L 216.3,85.2" style="fill:none;fill-rule:evenodd;stroke:#FF0000;stroke-width:2.0px;stroke-linecap:butt;stroke-linejoin:miter;stroke-opacity:1"/>
<path class="bond-5 atom-4 atom-6" d="M 214.2,147.3 L 238.2,165.6" style="fill:none;fill-rule:evenodd;stroke:#000000;stroke-width:2.0px;stroke-linecap:butt;stroke-linejoin:miter;stroke-opacity:1"/>
<path class="bond-5 atom-4 atom-6" d="M 238.2,165.6 L 262.2,183.8" style="fill:none;fill-rule:evenodd;stroke:#FF0000;stroke-width:2.0px;stroke-linecap:butt;stroke-linejoin:miter;stroke-opacity:1"/>
<path class="bond-6 atom-6 atom-7" d="M 286.9,187.9 L 315.6,175.8" style="fill:none;fill-rule:evenodd;stroke:#FF0000;stroke-width:2.0px;stroke-linecap:butt;stroke-linejoin:miter;stroke-opacity:1"/>
<path class="bond-6 atom-6 atom-7" d="M 315.6,175.8 L 344.4,163.7" style="fill:none;fill-rule:evenodd;stroke:#000000;stroke-width:2.0px;stroke-linecap:butt;stroke-linejoin:miter;stroke-opacity:1"/>
<path class="bond-7 atom-7 atom-8" d="M 344.4,163.7 L 404.7,209.5" style="fill:none;fill-rule:evenodd;stroke:#000000;stroke-width:2.0px;stroke-linecap:butt;stroke-linejoin:miter;stroke-opacity:1"/>
<path class="bond-8 atom-8 atom-9" d="M 404.7,209.5 L 474.5,180.1" style="fill:none;fill-rule:evenodd;stroke:#000000;stroke-width:2.0px;stroke-linecap:butt;stroke-linejoin:miter;stroke-opacity:1"/>
<path class="bond-9 atom-9 atom-10" d="M 474.5,180.1 L 534.9,225.9" style="fill:none;fill-rule:evenodd;stroke:#000000;stroke-width:2.0px;stroke-linecap:butt;stroke-linejoin:miter;stroke-opacity:1"/>
<path class="bond-10 atom-10 atom-11" d="M 534.9,225.9 L 604.7,196.5" style="fill:none;fill-rule:evenodd;stroke:#000000;stroke-width:2.0px;stroke-linecap:butt;stroke-linejoin:miter;stroke-opacity:1"/>
<path class="bond-11 atom-11 atom-12" d="M 604.7,196.5 L 665.1,242.2" style="fill:none;fill-rule:evenodd;stroke:#000000;stroke-width:2.0px;stroke-linecap:butt;stroke-linejoin:miter;stroke-opacity:1"/>
<path class="bond-12 atom-12 atom-13" d="M 665.1,242.2 L 693.8,230.1" style="fill:none;fill-rule:evenodd;stroke:#000000;stroke-width:2.0px;stroke-linecap:butt;stroke-linejoin:miter;stroke-opacity:1"/>
<path class="bond-12 atom-12 atom-13" d="M 693.8,230.1 L 722.6,218.0" style="fill:none;fill-rule:evenodd;stroke:#FF0000;stroke-width:2.0px;stroke-linecap:butt;stroke-linejoin:miter;stroke-opacity:1"/>
<path class="bond-13 atom-13 atom-14" d="M 747.3,222.2 L 771.3,240.4" style="fill:none;fill-rule:evenodd;stroke:#FF0000;stroke-width:2.0px;stroke-linecap:butt;stroke-linejoin:miter;stroke-opacity:1"/>
<path class="bond-13 atom-13 atom-14" d="M 771.3,240.4 L 795.3,258.6" style="fill:none;fill-rule:evenodd;stroke:#000000;stroke-width:2.0px;stroke-linecap:butt;stroke-linejoin:miter;stroke-opacity:1"/>
<path class="bond-14 atom-14 atom-15" d="M 790.1,254.7 L 786.0,287.2" style="fill:none;fill-rule:evenodd;stroke:#000000;stroke-width:2.0px;stroke-linecap:butt;stroke-linejoin:miter;stroke-opacity:1"/>
<path class="bond-14 atom-14 atom-15" d="M 786.0,287.2 L 781.9,319.7" style="fill:none;fill-rule:evenodd;stroke:#FF0000;stroke-width:2.0px;stroke-linecap:butt;stroke-linejoin:miter;stroke-opacity:1"/>
<path class="bond-14 atom-14 atom-15" d="M 801.3,256.1 L 797.2,288.6" style="fill:none;fill-rule:evenodd;stroke:#000000;stroke-width:2.0px;stroke-linecap:butt;stroke-linejoin:miter;stroke-opacity:1"/>
<path class="bond-14 atom-14 atom-15" d="M 797.2,288.6 L 793.1,321.1" style="fill:none;fill-rule:evenodd;stroke:#FF0000;stroke-width:2.0px;stroke-linecap:butt;stroke-linejoin:miter;stroke-opacity:1"/>
<path class="bond-15 atom-14 atom-16" d="M 795.3,258.6 L 865.1,229.2" style="fill:none;fill-rule:evenodd;stroke:#000000;stroke-width:2.0px;stroke-linecap:butt;stroke-linejoin:miter;stroke-opacity:1"/>
<path class="bond-16 atom-16 atom-17" d="M 865.1,229.2 L 874.6,154.1" style="fill:none;fill-rule:evenodd;stroke:#000000;stroke-width:2.0px;stroke-linecap:butt;stroke-linejoin:miter;stroke-opacity:1"/>
<path class="bond-16 atom-16 atom-17" d="M 877.2,224.1 L 885.0,162.0" style="fill:none;fill-rule:evenodd;stroke:#000000;stroke-width:2.0px;stroke-linecap:butt;stroke-linejoin:miter;stroke-opacity:1"/>
<path class="bond-17 atom-17 atom-18" d="M 874.6,154.1 L 944.4,124.7" style="fill:none;fill-rule:evenodd;stroke:#000000;stroke-width:2.0px;stroke-linecap:butt;stroke-linejoin:miter;stroke-opacity:1"/>
<path class="bond-18 atom-18 atom-19" d="M 944.4,124.7 L 1004.7,170.4" style="fill:none;fill-rule:evenodd;stroke:#000000;stroke-width:2.0px;stroke-linecap:butt;stroke-linejoin:miter;stroke-opacity:1"/>
<path class="bond-18 atom-18 atom-19" d="M 942.7,137.7 L 992.6,175.5" style="fill:none;fill-rule:evenodd;stroke:#000000;stroke-width:2.0px;stroke-linecap:butt;stroke-linejoin:miter;stroke-opacity:1"/>
<path class="bond-19 atom-19 atom-20" d="M 1004.7,170.4 L 1074.6,141.0" style="fill:none;fill-rule:evenodd;stroke:#000000;stroke-width:2.0px;stroke-linecap:butt;stroke-linejoin:miter;stroke-opacity:1"/>
<path class="bond-20 atom-20 atom-21" d="M 1074.6,141.0 L 1101.0,161.1" style="fill:none;fill-rule:evenodd;stroke:#000000;stroke-width:2.0px;stroke-linecap:butt;stroke-linejoin:miter;stroke-opacity:1"/>
<path class="bond-20 atom-20 atom-21" d="M 1101.0,161.1 L 1127.3,181.1" style="fill:none;fill-rule:evenodd;stroke:#191919;stroke-width:2.0px;stroke-linecap:butt;stroke-linejoin:miter;stroke-opacity:1"/>
<path class="bond-21 atom-20 atom-22" d="M 1079.8,145.0 L 1083.9,112.6" style="fill:none;fill-rule:evenodd;stroke:#000000;stroke-width:2.0px;stroke-linecap:butt;stroke-linejoin:miter;stroke-opacity:1"/>
<path class="bond-21 atom-20 atom-22" d="M 1083.9,112.6 L 1087.9,80.3" style="fill:none;fill-rule:evenodd;stroke:#FF0000;stroke-width:2.0px;stroke-linecap:butt;stroke-linejoin:miter;stroke-opacity:1"/>
<path class="bond-21 atom-20 atom-22" d="M 1068.5,143.6 L 1072.6,111.2" style="fill:none;fill-rule:evenodd;stroke:#000000;stroke-width:2.0px;stroke-linecap:butt;stroke-linejoin:miter;stroke-opacity:1"/>
<path class="bond-21 atom-20 atom-22" d="M 1072.6,111.2 L 1076.7,78.9" style="fill:none;fill-rule:evenodd;stroke:#FF0000;stroke-width:2.0px;stroke-linecap:butt;stroke-linejoin:miter;stroke-opacity:1"/>
<path class="bond-22 atom-19 atom-23" d="M 1004.7,170.4 L 995.3,245.6" style="fill:none;fill-rule:evenodd;stroke:#000000;stroke-width:2.0px;stroke-linecap:butt;stroke-linejoin:miter;stroke-opacity:1"/>
<path class="bond-23 atom-23 atom-24" d="M 995.3,245.6 L 925.5,275.0" style="fill:none;fill-rule:evenodd;stroke:#000000;stroke-width:2.0px;stroke-linecap:butt;stroke-linejoin:miter;stroke-opacity:1"/>
<path class="bond-23 atom-23 atom-24" d="M 984.8,237.7 L 927.1,262.0" style="fill:none;fill-rule:evenodd;stroke:#000000;stroke-width:2.0px;stroke-linecap:butt;stroke-linejoin:miter;stroke-opacity:1"/>
<path class="bond-24 atom-24 atom-16" d="M 925.5,275.0 L 865.1,229.2" style="fill:none;fill-rule:evenodd;stroke:#000000;stroke-width:2.0px;stroke-linecap:butt;stroke-linejoin:miter;stroke-opacity:1"/>
<path d="M 210.7,148.8 L 214.2,147.3 L 215.4,148.3" style="fill:none;stroke:#000000;stroke-width:2.0px;stroke-linecap:butt;stroke-linejoin:miter;stroke-opacity:1;"/>
<path d="M 342.9,164.3 L 344.4,163.7 L 347.4,166.0" style="fill:none;stroke:#000000;stroke-width:2.0px;stroke-linecap:butt;stroke-linejoin:miter;stroke-opacity:1;"/>
<path d="M 401.7,207.2 L 404.7,209.5 L 408.2,208.0" style="fill:none;stroke:#000000;stroke-width:2.0px;stroke-linecap:butt;stroke-linejoin:miter;stroke-opacity:1;"/>
<path d="M 471.1,181.6 L 474.5,180.1 L 477.6,182.4" style="fill:none;stroke:#000000;stroke-width:2.0px;stroke-linecap:butt;stroke-linejoin:miter;stroke-opacity:1;"/>
<path d="M 531.9,223.6 L 534.9,225.9 L 538.4,224.4" style="fill:none;stroke:#000000;stroke-width:2.0px;stroke-linecap:butt;stroke-linejoin:miter;stroke-opacity:1;"/>
<path d="M 601.2,197.9 L 604.7,196.5 L 607.7,198.8" style="fill:none;stroke:#000000;stroke-width:2.0px;stroke-linecap:butt;stroke-linejoin:miter;stroke-opacity:1;"/>
<path d="M 662.1,240.0 L 665.1,242.2 L 666.5,241.6" style="fill:none;stroke:#000000;stroke-width:2.0px;stroke-linecap:butt;stroke-linejoin:miter;stroke-opacity:1;"/>
<path d="M 794.1,257.7 L 795.3,258.6 L 798.8,257.2" style="fill:none;stroke:#000000;stroke-width:2.0px;stroke-linecap:butt;stroke-linejoin:miter;stroke-opacity:1;"/>
<path d="M 874.1,157.8 L 874.6,154.1 L 878.0,152.6" style="fill:none;stroke:#000000;stroke-width:2.0px;stroke-linecap:butt;stroke-linejoin:miter;stroke-opacity:1;"/>
<path d="M 940.9,126.1 L 944.4,124.7 L 947.4,127.0" style="fill:none;stroke:#000000;stroke-width:2.0px;stroke-linecap:butt;stroke-linejoin:miter;stroke-opacity:1;"/>
<path d="M 1071.1,142.5 L 1074.6,141.0 L 1075.9,142.0" style="fill:none;stroke:#000000;stroke-width:2.0px;stroke-linecap:butt;stroke-linejoin:miter;stroke-opacity:1;"/>
<path d="M 995.8,241.8 L 995.3,245.6 L 991.8,247.1" style="fill:none;stroke:#000000;stroke-width:2.0px;stroke-linecap:butt;stroke-linejoin:miter;stroke-opacity:1;"/>
<path d="M 929.0,273.5 L 925.5,275.0 L 922.4,272.7" style="fill:none;stroke:#000000;stroke-width:2.0px;stroke-linecap:butt;stroke-linejoin:miter;stroke-opacity:1;"/>
<path class="atom-0" d="M 61.0 278.9 L 64.2 275.7 L 60.0 274.8 L 60.6 272.7 L 64.5 274.6 L 63.9 270.4 L 66.2 270.4 L 65.6 274.6 L 69.5 272.8 L 70.2 274.8 L 65.9 275.6 L 68.9 278.9 L 67.1 280.2 L 65.0 276.2 L 62.9 280.2 L 61.0 278.9 " fill="#191919"/>
<path class="atom-1" d="M 125.0 252.0 Q 125.0 246.8, 127.6 243.9 Q 130.1 241.1, 134.9 241.1 Q 139.7 241.1, 142.2 243.9 Q 144.7 246.8, 144.7 252.0 Q 144.7 257.2, 142.2 260.1 Q 139.6 263.1, 134.9 263.1 Q 130.2 263.1, 127.6 260.1 Q 125.0 257.2, 125.0 252.0 M 134.9 260.7 Q 138.2 260.7, 139.9 258.5 Q 141.7 256.3, 141.7 252.0 Q 141.7 247.8, 139.9 245.6 Q 138.2 243.5, 134.9 243.5 Q 131.6 243.5, 129.8 245.6 Q 128.1 247.7, 128.1 252.0 Q 128.1 256.3, 129.8 258.5 Q 131.6 260.7, 134.9 260.7 " fill="#FF0000"/>
<path class="atom-5" d="M 213.8 72.2 Q 213.8 67.1, 216.3 64.2 Q 218.9 61.3, 223.6 61.3 Q 228.4 61.3, 230.9 64.2 Q 233.5 67.1, 233.5 72.2 Q 233.5 77.5, 230.9 80.4 Q 228.3 83.4, 223.6 83.4 Q 218.9 83.4, 216.3 80.4 Q 213.8 77.5, 213.8 72.2 M 223.6 80.9 Q 226.9 80.9, 228.7 78.8 Q 230.4 76.5, 230.4 72.2 Q 230.4 68.0, 228.7 65.9 Q 226.9 63.8, 223.6 63.8 Q 220.4 63.8, 218.6 65.9 Q 216.8 68.0, 216.8 72.2 Q 216.8 76.6, 218.6 78.8 Q 220.4 80.9, 223.6 80.9 " fill="#FF0000"/>
<path class="atom-6" d="M 264.7 193.2 Q 264.7 188.0, 267.2 185.1 Q 269.8 182.3, 274.5 182.3 Q 279.3 182.3, 281.8 185.1 Q 284.4 188.0, 284.4 193.2 Q 284.4 198.4, 281.8 201.4 Q 279.2 204.3, 274.5 204.3 Q 269.8 204.3, 267.2 201.4 Q 264.7 198.4, 264.7 193.2 M 274.5 201.9 Q 277.8 201.9, 279.6 199.7 Q 281.4 197.5, 281.4 193.2 Q 281.4 189.0, 279.6 186.8 Q 277.8 184.7, 274.5 184.7 Q 271.3 184.7, 269.5 186.8 Q 267.7 188.9, 267.7 193.2 Q 267.7 197.5, 269.5 199.7 Q 271.3 201.9, 274.5 201.9 " fill="#FF0000"/>
<path class="atom-13" d="M 725.1 212.9 Q 725.1 207.8, 727.6 204.9 Q 730.2 202.0, 734.9 202.0 Q 739.7 202.0, 742.2 204.9 Q 744.8 207.8, 744.8 212.9 Q 744.8 218.1, 742.2 221.1 Q 739.6 224.0, 734.9 224.0 Q 730.2 224.0, 727.6 221.1 Q 725.1 218.2, 725.1 212.9 M 734.9 221.6 Q 738.2 221.6, 739.9 219.4 Q 741.7 217.2, 741.7 212.9 Q 741.7 208.7, 739.9 206.6 Q 738.2 204.4, 734.9 204.4 Q 731.6 204.4, 729.9 206.5 Q 728.1 208.7, 728.1 212.9 Q 728.1 217.2, 729.9 219.4 Q 731.6 221.6, 734.9 221.6 " fill="#FF0000"/>
<path class="atom-15" d="M 776.0 333.8 Q 776.0 328.7, 778.5 325.8 Q 781.1 322.9, 785.8 322.9 Q 790.6 322.9, 793.1 325.8 Q 795.7 328.7, 795.7 333.8 Q 795.7 339.1, 793.1 342.0 Q 790.5 345.0, 785.8 345.0 Q 781.1 345.0, 778.5 342.0 Q 776.0 339.1, 776.0 333.8 M 785.8 342.5 Q 789.1 342.5, 790.9 340.4 Q 792.6 338.1, 792.6 333.8 Q 792.6 329.6, 790.9 327.5 Q 789.1 325.4, 785.8 325.4 Q 782.6 325.4, 780.8 327.5 Q 779.0 329.6, 779.0 333.8 Q 779.0 338.2, 780.8 340.4 Q 782.6 342.5, 785.8 342.5 " fill="#FF0000"/>
<path class="atom-21" d="M 1130.9 184.4 L 1134.0 181.2 L 1129.8 180.4 L 1130.5 178.2 L 1134.3 180.1 L 1133.8 175.9 L 1136.1 175.9 L 1135.4 180.1 L 1139.3 178.3 L 1140.0 180.4 L 1135.8 181.1 L 1138.8 184.4 L 1136.9 185.7 L 1134.8 181.7 L 1132.7 185.7 L 1130.9 184.4 " fill="#191919"/>
<path class="atom-22" d="M 1074.2 65.9 Q 1074.2 60.8, 1076.7 57.9 Q 1079.3 55.0, 1084.0 55.0 Q 1088.8 55.0, 1091.3 57.9 Q 1093.9 60.8, 1093.9 65.9 Q 1093.9 71.2, 1091.3 74.1 Q 1088.7 77.1, 1084.0 77.1 Q 1079.3 77.1, 1076.7 74.1 Q 1074.2 71.2, 1074.2 65.9 M 1084.0 74.6 Q 1087.3 74.6, 1089.0 72.5 Q 1090.8 70.2, 1090.8 65.9 Q 1090.8 61.7, 1089.0 59.6 Q 1087.3 57.5, 1084.0 57.5 Q 1080.7 57.5, 1079.0 59.6 Q 1077.2 61.7, 1077.2 65.9 Q 1077.2 70.3, 1079.0 72.5 Q 1080.7 74.6, 1084.0 74.6 " fill="#FF0000"/>
<path class="bond-0 atom-0 atom-1" d="M 141.8,537.6 L 164.5,555.4" style="fill:none;fill-rule:evenodd;stroke:#191919;stroke-width:2.0px;stroke-linecap:butt;stroke-linejoin:miter;stroke-opacity:1"/>
<path class="bond-0 atom-0 atom-1" d="M 164.5,555.4 L 187.3,573.2" style="fill:none;fill-rule:evenodd;stroke:#FF0000;stroke-width:2.0px;stroke-linecap:butt;stroke-linejoin:miter;stroke-opacity:1"/>
<path class="bond-1 atom-1 atom-2" d="M 212.0,577.9 L 240.9,566.2" style="fill:none;fill-rule:evenodd;stroke:#FF0000;stroke-width:2.0px;stroke-linecap:butt;stroke-linejoin:miter;stroke-opacity:1"/>
<path class="bond-1 atom-1 atom-2" d="M 240.9,566.2 L 269.9,554.6" style="fill:none;fill-rule:evenodd;stroke:#000000;stroke-width:2.0px;stroke-linecap:butt;stroke-linejoin:miter;stroke-opacity:1"/>
<path class="bond-2 atom-2 atom-3" d="M 269.9,554.6 L 329.5,601.3" style="fill:none;fill-rule:evenodd;stroke:#000000;stroke-width:2.0px;stroke-linecap:butt;stroke-linejoin:miter;stroke-opacity:1"/>
<path class="bond-3 atom-3 atom-4" d="M 329.5,601.3 L 399.8,573.0" style="fill:none;fill-rule:evenodd;stroke:#000000;stroke-width:2.0px;stroke-linecap:butt;stroke-linejoin:miter;stroke-opacity:1"/>
<path class="bond-4 atom-4 atom-5" d="M 399.8,573.0 L 459.5,619.7" style="fill:none;fill-rule:evenodd;stroke:#000000;stroke-width:2.0px;stroke-linecap:butt;stroke-linejoin:miter;stroke-opacity:1"/>
<path class="bond-5 atom-5 atom-6" d="M 459.5,619.7 L 529.7,591.4" style="fill:none;fill-rule:evenodd;stroke:#000000;stroke-width:2.0px;stroke-linecap:butt;stroke-linejoin:miter;stroke-opacity:1"/>
<path class="bond-6 atom-6 atom-7" d="M 529.7,591.4 L 589.4,638.1" style="fill:none;fill-rule:evenodd;stroke:#000000;stroke-width:2.0px;stroke-linecap:butt;stroke-linejoin:miter;stroke-opacity:1"/>
<path class="bond-7 atom-7 atom-8" d="M 589.4,638.1 L 618.3,626.4" style="fill:none;fill-rule:evenodd;stroke:#000000;stroke-width:2.0px;stroke-linecap:butt;stroke-linejoin:miter;stroke-opacity:1"/>
<path class="bond-7 atom-7 atom-8" d="M 618.3,626.4 L 647.3,614.7" style="fill:none;fill-rule:evenodd;stroke:#FF0000;stroke-width:2.0px;stroke-linecap:butt;stroke-linejoin:miter;stroke-opacity:1"/>
<path class="bond-8 atom-8 atom-9" d="M 672.0,619.4 L 695.6,637.9" style="fill:none;fill-rule:evenodd;stroke:#FF0000;stroke-width:2.0px;stroke-linecap:butt;stroke-linejoin:miter;stroke-opacity:1"/>
<path class="bond-8 atom-8 atom-9" d="M 695.6,637.9 L 719.3,656.4" style="fill:none;fill-rule:evenodd;stroke:#000000;stroke-width:2.0px;stroke-linecap:butt;stroke-linejoin:miter;stroke-opacity:1"/>
<path class="bond-9 atom-9 atom-10" d="M 714.1,652.4 L 709.5,684.9" style="fill:none;fill-rule:evenodd;stroke:#000000;stroke-width:2.0px;stroke-linecap:butt;stroke-linejoin:miter;stroke-opacity:1"/>
<path class="bond-9 atom-9 atom-10" d="M 709.5,684.9 L 704.9,717.3" style="fill:none;fill-rule:evenodd;stroke:#FF0000;stroke-width:2.0px;stroke-linecap:butt;stroke-linejoin:miter;stroke-opacity:1"/>
<path class="bond-9 atom-9 atom-10" d="M 725.4,654.0 L 720.8,686.5" style="fill:none;fill-rule:evenodd;stroke:#000000;stroke-width:2.0px;stroke-linecap:butt;stroke-linejoin:miter;stroke-opacity:1"/>
<path class="bond-9 atom-9 atom-10" d="M 720.8,686.5 L 716.2,718.9" style="fill:none;fill-rule:evenodd;stroke:#FF0000;stroke-width:2.0px;stroke-linecap:butt;stroke-linejoin:miter;stroke-opacity:1"/>
<path class="bond-10 atom-9 atom-11" d="M 719.3,656.4 L 789.6,628.1" style="fill:none;fill-rule:evenodd;stroke:#000000;stroke-width:2.0px;stroke-linecap:butt;stroke-linejoin:miter;stroke-opacity:1"/>
<path class="bond-11 atom-11 atom-12" d="M 789.6,628.1 L 800.2,553.1" style="fill:none;fill-rule:evenodd;stroke:#000000;stroke-width:2.0px;stroke-linecap:butt;stroke-linejoin:miter;stroke-opacity:1"/>
<path class="bond-11 atom-11 atom-12" d="M 801.7,623.2 L 810.5,561.2" style="fill:none;fill-rule:evenodd;stroke:#000000;stroke-width:2.0px;stroke-linecap:butt;stroke-linejoin:miter;stroke-opacity:1"/>
<path class="bond-12 atom-12 atom-13" d="M 800.2,553.1 L 870.5,524.8" style="fill:none;fill-rule:evenodd;stroke:#000000;stroke-width:2.0px;stroke-linecap:butt;stroke-linejoin:miter;stroke-opacity:1"/>
<path class="bond-13 atom-13 atom-14" d="M 870.5,524.8 L 930.1,571.5" style="fill:none;fill-rule:evenodd;stroke:#000000;stroke-width:2.0px;stroke-linecap:butt;stroke-linejoin:miter;stroke-opacity:1"/>
<path class="bond-13 atom-13 atom-14" d="M 868.6,537.8 L 917.9,576.4" style="fill:none;fill-rule:evenodd;stroke:#000000;stroke-width:2.0px;stroke-linecap:butt;stroke-linejoin:miter;stroke-opacity:1"/>
<path class="bond-14 atom-14 atom-15" d="M 930.1,571.5 L 1000.4,543.2" style="fill:none;fill-rule:evenodd;stroke:#000000;stroke-width:2.0px;stroke-linecap:butt;stroke-linejoin:miter;stroke-opacity:1"/>
<path class="bond-15 atom-15 atom-16" d="M 1000.4,543.2 L 1026.4,563.6" style="fill:none;fill-rule:evenodd;stroke:#000000;stroke-width:2.0px;stroke-linecap:butt;stroke-linejoin:miter;stroke-opacity:1"/>
<path class="bond-15 atom-15 atom-16" d="M 1026.4,563.6 L 1052.4,584.0" style="fill:none;fill-rule:evenodd;stroke:#191919;stroke-width:2.0px;stroke-linecap:butt;stroke-linejoin:miter;stroke-opacity:1"/>
<path class="bond-16 atom-15 atom-17" d="M 1005.5,547.3 L 1010.1,515.0" style="fill:none;fill-rule:evenodd;stroke:#000000;stroke-width:2.0px;stroke-linecap:butt;stroke-linejoin:miter;stroke-opacity:1"/>
<path class="bond-16 atom-15 atom-17" d="M 1010.1,515.0 L 1014.7,482.7" style="fill:none;fill-rule:evenodd;stroke:#FF0000;stroke-width:2.0px;stroke-linecap:butt;stroke-linejoin:miter;stroke-opacity:1"/>
<path class="bond-16 atom-15 atom-17" d="M 994.3,545.7 L 998.9,513.4" style="fill:none;fill-rule:evenodd;stroke:#000000;stroke-width:2.0px;stroke-linecap:butt;stroke-linejoin:miter;stroke-opacity:1"/>
<path class="bond-16 atom-15 atom-17" d="M 998.9,513.4 L 1003.4,481.1" style="fill:none;fill-rule:evenodd;stroke:#FF0000;stroke-width:2.0px;stroke-linecap:butt;stroke-linejoin:miter;stroke-opacity:1"/>
<path class="bond-17 atom-14 atom-18" d="M 930.1,571.5 L 919.5,646.5" style="fill:none;fill-rule:evenodd;stroke:#000000;stroke-width:2.0px;stroke-linecap:butt;stroke-linejoin:miter;stroke-opacity:1"/>
<path class="bond-18 atom-18 atom-19" d="M 919.5,646.5 L 849.2,674.8" style="fill:none;fill-rule:evenodd;stroke:#000000;stroke-width:2.0px;stroke-linecap:butt;stroke-linejoin:miter;stroke-opacity:1"/>
<path class="bond-18 atom-18 atom-19" d="M 909.2,638.4 L 851.1,661.8" style="fill:none;fill-rule:evenodd;stroke:#000000;stroke-width:2.0px;stroke-linecap:butt;stroke-linejoin:miter;stroke-opacity:1"/>
<path class="bond-19 atom-19 atom-11" d="M 849.2,674.8 L 789.6,628.1" style="fill:none;fill-rule:evenodd;stroke:#000000;stroke-width:2.0px;stroke-linecap:butt;stroke-linejoin:miter;stroke-opacity:1"/>
<path d="M 268.5,555.2 L 269.9,554.6 L 272.9,556.9" style="fill:none;stroke:#000000;stroke-width:2.0px;stroke-linecap:butt;stroke-linejoin:miter;stroke-opacity:1;"/>
<path d="M 326.6,598.9 L 329.5,601.3 L 333.1,599.9" style="fill:none;stroke:#000000;stroke-width:2.0px;stroke-linecap:butt;stroke-linejoin:miter;stroke-opacity:1;"/>
<path d="M 396.3,574.4 L 399.8,573.0 L 402.8,575.3" style="fill:none;stroke:#000000;stroke-width:2.0px;stroke-linecap:butt;stroke-linejoin:miter;stroke-opacity:1;"/>
<path d="M 456.5,617.3 L 459.5,619.7 L 463.0,618.3" style="fill:none;stroke:#000000;stroke-width:2.0px;stroke-linecap:butt;stroke-linejoin:miter;stroke-opacity:1;"/>
<path d="M 526.2,592.8 L 529.7,591.4 L 532.7,593.7" style="fill:none;stroke:#000000;stroke-width:2.0px;stroke-linecap:butt;stroke-linejoin:miter;stroke-opacity:1;"/>
<path d="M 586.4,635.7 L 589.4,638.1 L 590.8,637.5" style="fill:none;stroke:#000000;stroke-width:2.0px;stroke-linecap:butt;stroke-linejoin:miter;stroke-opacity:1;"/>
<path d="M 718.1,655.5 L 719.3,656.4 L 722.8,655.0" style="fill:none;stroke:#000000;stroke-width:2.0px;stroke-linecap:butt;stroke-linejoin:miter;stroke-opacity:1;"/>
<path d="M 799.7,556.9 L 800.2,553.1 L 803.7,551.7" style="fill:none;stroke:#000000;stroke-width:2.0px;stroke-linecap:butt;stroke-linejoin:miter;stroke-opacity:1;"/>
<path d="M 866.9,526.2 L 870.5,524.8 L 873.4,527.2" style="fill:none;stroke:#000000;stroke-width:2.0px;stroke-linecap:butt;stroke-linejoin:miter;stroke-opacity:1;"/>
<path d="M 996.9,544.6 L 1000.4,543.2 L 1001.7,544.2" style="fill:none;stroke:#000000;stroke-width:2.0px;stroke-linecap:butt;stroke-linejoin:miter;stroke-opacity:1;"/>
<path d="M 920.0,642.8 L 919.5,646.5 L 916.0,647.9" style="fill:none;stroke:#000000;stroke-width:2.0px;stroke-linecap:butt;stroke-linejoin:miter;stroke-opacity:1;"/>
<path d="M 852.7,673.4 L 849.2,674.8 L 846.2,672.5" style="fill:none;stroke:#000000;stroke-width:2.0px;stroke-linecap:butt;stroke-linejoin:miter;stroke-opacity:1;"/>
<path class="atom-0" d="M 135.9 533.8 L 139.1 530.6 L 134.9 529.7 L 135.5 527.6 L 139.4 529.5 L 138.8 525.3 L 141.1 525.3 L 140.5 529.5 L 144.4 527.7 L 145.1 529.7 L 140.8 530.5 L 143.8 533.8 L 142.0 535.1 L 139.9 531.1 L 137.8 535.1 L 135.9 533.8 " fill="#191919"/>
<path class="atom-1" d="M 189.8 582.9 Q 189.8 577.8, 192.3 574.9 Q 194.9 572.0, 199.6 572.0 Q 204.4 572.0, 206.9 574.9 Q 209.5 577.8, 209.5 582.9 Q 209.5 588.2, 206.9 591.1 Q 204.3 594.1, 199.6 594.1 Q 194.9 594.1, 192.3 591.1 Q 189.8 588.2, 189.8 582.9 M 199.6 591.6 Q 202.9 591.6, 204.7 589.5 Q 206.5 587.2, 206.5 582.9 Q 206.5 578.7, 204.7 576.6 Q 202.9 574.5, 199.6 574.5 Q 196.4 574.5, 194.6 576.6 Q 192.8 578.7, 192.8 582.9 Q 192.8 587.3, 194.6 589.5 Q 196.4 591.6, 199.6 591.6 " fill="#FF0000"/>
<path class="atom-8" d="M 649.8 609.8 Q 649.8 604.7, 652.3 601.8 Q 654.9 598.9, 659.6 598.9 Q 664.4 598.9, 667.0 601.8 Q 669.5 604.7, 669.5 609.8 Q 669.5 615.0, 666.9 618.0 Q 664.3 620.9, 659.6 620.9 Q 654.9 620.9, 652.3 618.0 Q 649.8 615.1, 649.8 609.8 M 659.6 618.5 Q 662.9 618.5, 664.7 616.3 Q 666.5 614.1, 666.5 609.8 Q 666.5 605.6, 664.7 603.5 Q 662.9 601.3, 659.6 601.3 Q 656.4 601.3, 654.6 603.4 Q 652.8 605.6, 652.8 609.8 Q 652.8 614.1, 654.6 616.3 Q 656.4 618.5, 659.6 618.5 " fill="#FF0000"/>
<path class="atom-10" d="M 698.8 731.5 Q 698.8 726.4, 701.4 723.5 Q 703.9 720.6, 708.7 720.6 Q 713.4 720.6, 716.0 723.5 Q 718.5 726.4, 718.5 731.5 Q 718.5 736.7, 716.0 739.7 Q 713.4 742.6, 708.7 742.6 Q 704.0 742.6, 701.4 739.7 Q 698.8 736.8, 698.8 731.5 M 708.7 740.2 Q 712.0 740.2, 713.7 738.0 Q 715.5 735.8, 715.5 731.5 Q 715.5 727.3, 713.7 725.2 Q 712.0 723.0, 708.7 723.0 Q 705.4 723.0, 703.6 725.2 Q 701.9 727.3, 701.9 731.5 Q 701.9 735.9, 703.6 738.0 Q 705.4 740.2, 708.7 740.2 " fill="#FF0000"/>
<path class="atom-16" d="M 1056.0 587.5 L 1059.1 584.3 L 1054.9 583.5 L 1055.6 581.3 L 1059.4 583.2 L 1058.9 579.0 L 1061.2 579.0 L 1060.5 583.2 L 1064.4 581.4 L 1065.1 583.5 L 1060.8 584.2 L 1063.9 587.5 L 1062.0 588.8 L 1059.9 584.8 L 1057.8 588.8 L 1056.0 587.5 " fill="#191919"/>
<path class="atom-17" d="M 1001.1 468.3 Q 1001.1 463.1, 1003.7 460.2 Q 1006.2 457.4, 1011.0 457.4 Q 1015.7 457.4, 1018.3 460.2 Q 1020.8 463.1, 1020.8 468.3 Q 1020.8 473.5, 1018.3 476.5 Q 1015.7 479.4, 1011.0 479.4 Q 1006.3 479.4, 1003.7 476.5 Q 1001.1 473.5, 1001.1 468.3 M 1011.0 477.0 Q 1014.3 477.0, 1016.0 474.8 Q 1017.8 472.6, 1017.8 468.3 Q 1017.8 464.1, 1016.0 461.9 Q 1014.3 459.8, 1011.0 459.8 Q 1007.7 459.8, 1005.9 461.9 Q 1004.2 464.0, 1004.2 468.3 Q 1004.2 472.6, 1005.9 474.8 Q 1007.7 477.0, 1011.0 477.0 " fill="#FF0000"/>
</svg>