<svg xmlns="http://www.w3.org/2000/svg" xmlns:rdkit="http://www.rdkit.org/xml" xmlns:xlink="http://www.w3.org/1999/xlink" version="1.1" baseProfile="full" xml:space="preserve" width="1200px" height="800px" viewBox="0 0 1200 800">
<!-- END OF HEADER -->
<rect style="opacity:1.0;fill:#FFFFFF;stroke:none" width="1200.0" height="800.0" x="0.0" y="0.0"> </rect>
<path class="bond-0 atom-0 atom-1" d="M 317.3,141.2 L 377.4,142.9" style="fill:none;fill-rule:evenodd;stroke:#191919;stroke-width:2.0px;stroke-linecap:butt;stroke-linejoin:miter;stroke-opacity:1"/>
<path class="bond-0 atom-0 atom-1" d="M 377.4,142.9 L 437.6,144.6" style="fill:none;fill-rule:evenodd;stroke:#000000;stroke-width:2.0px;stroke-linecap:butt;stroke-linejoin:miter;stroke-opacity:1"/>
<path class="bond-1 atom-1 atom-2" d="M 437.6,144.6 L 500.1,260.2" style="fill:none;fill-rule:evenodd;stroke:#000000;stroke-width:2.0px;stroke-linecap:butt;stroke-linejoin:miter;stroke-opacity:1"/>
<path class="bond-2 atom-2 atom-3" d="M 500.1,260.2 L 558.2,261.8" style="fill:none;fill-rule:evenodd;stroke:#000000;stroke-width:2.0px;stroke-linecap:butt;stroke-linejoin:miter;stroke-opacity:1"/>
<path class="bond-2 atom-2 atom-3" d="M 558.2,261.8 L 616.3,263.4" style="fill:none;fill-rule:evenodd;stroke:#0000FF;stroke-width:2.0px;stroke-linecap:butt;stroke-linejoin:miter;stroke-opacity:1"/>
<path class="bond-3 atom-3 atom-4" d="M 641.4,282.3 L 662.6,321.5" style="fill:none;fill-rule:evenodd;stroke:#0000FF;stroke-width:2.0px;stroke-linecap:butt;stroke-linejoin:miter;stroke-opacity:1"/>
<path class="bond-3 atom-3 atom-4" d="M 662.6,321.5 L 683.8,360.7" style="fill:none;fill-rule:evenodd;stroke:#191919;stroke-width:2.0px;stroke-linecap:butt;stroke-linejoin:miter;stroke-opacity:1"/>
<path class="bond-4 atom-3 atom-5" d="M 642.8,245.3 L 671.5,198.6" style="fill:none;fill-rule:evenodd;stroke:#0000FF;stroke-width:2.0px;stroke-linecap:butt;stroke-linejoin:miter;stroke-opacity:1"/>
<path class="bond-4 atom-3 atom-5" d="M 671.5,198.6 L 700.3,151.9" style="fill:none;fill-rule:evenodd;stroke:#000000;stroke-width:2.0px;stroke-linecap:butt;stroke-linejoin:miter;stroke-opacity:1"/>
<path class="bond-5 atom-5 atom-6" d="M 711.6,152.2 L 684.2,101.5" style="fill:none;fill-rule:evenodd;stroke:#000000;stroke-width:2.0px;stroke-linecap:butt;stroke-linejoin:miter;stroke-opacity:1"/>
<path class="bond-5 atom-5 atom-6" d="M 684.2,101.5 L 656.8,50.8" style="fill:none;fill-rule:evenodd;stroke:#FF0000;stroke-width:2.0px;stroke-linecap:butt;stroke-linejoin:miter;stroke-opacity:1"/>
<path class="bond-5 atom-5 atom-6" d="M 694.3,161.6 L 666.9,110.9" style="fill:none;fill-rule:evenodd;stroke:#000000;stroke-width:2.0px;stroke-linecap:butt;stroke-linejoin:miter;stroke-opacity:1"/>
<path class="bond-5 atom-5 atom-6" d="M 666.9,110.9 L 639.4,60.1" style="fill:none;fill-rule:evenodd;stroke:#FF0000;stroke-width:2.0px;stroke-linecap:butt;stroke-linejoin:miter;stroke-opacity:1"/>
<path class="bond-6 atom-5 atom-7" d="M 700.3,151.9 L 831.6,155.6" style="fill:none;fill-rule:evenodd;stroke:#000000;stroke-width:2.0px;stroke-linecap:butt;stroke-linejoin:miter;stroke-opacity:1"/>
<path class="bond-7 atom-7 atom-8" d="M 831.6,155.6 L 900.5,43.7" style="fill:none;fill-rule:evenodd;stroke:#000000;stroke-width:2.0px;stroke-linecap:butt;stroke-linejoin:miter;stroke-opacity:1"/>
<path class="bond-8 atom-7 atom-9" d="M 831.6,155.6 L 894.1,271.2" style="fill:none;fill-rule:evenodd;stroke:#000000;stroke-width:2.0px;stroke-linecap:butt;stroke-linejoin:miter;stroke-opacity:1"/>
<path d="M 434.6,144.5 L 437.6,144.6 L 440.7,150.4" style="fill:none;stroke:#000000;stroke-width:2.0px;stroke-linecap:butt;stroke-linejoin:miter;stroke-opacity:1;"/>
<path d="M 497.0,254.4 L 500.1,260.2 L 503.0,260.3" style="fill:none;stroke:#000000;stroke-width:2.0px;stroke-linecap:butt;stroke-linejoin:miter;stroke-opacity:1;"/>
<path d="M 698.8,154.3 L 700.3,151.9 L 706.8,152.1" style="fill:none;stroke:#000000;stroke-width:2.0px;stroke-linecap:butt;stroke-linejoin:miter;stroke-opacity:1;"/>
<path class="atom-0" d="M 300.9 137.8 L 305.1 133.5 L 299.5 132.4 L 300.4 129.6 L 305.5 132.1 L 304.7 126.6 L 307.7 126.5 L 306.9 132.1 L 312.1 129.7 L 312.9 132.4 L 307.3 133.4 L 311.3 137.7 L 308.9 139.5 L 306.1 134.2 L 303.3 139.5 L 300.9 137.8 " fill="#191919"/>
<path class="atom-3" d="M 625.2 249.7 L 634.4 264.7 Q 635.4 266.2, 636.8 268.8 Q 638.3 271.5, 638.4 271.7 L 638.4 249.7 L 642.2 249.7 L 642.2 278.0 L 638.3 278.0 L 628.3 261.6 Q 627.2 259.7, 625.9 257.5 Q 624.7 255.3, 624.4 254.6 L 624.4 278.0 L 620.7 278.0 L 620.7 249.7 L 625.2 249.7 " fill="#0000FF"/>
<path class="atom-4" d="M 688.6 376.3 L 692.7 372.0 L 687.2 370.9 L 688.1 368.1 L 693.1 370.6 L 692.4 365.1 L 695.4 365.0 L 694.6 370.6 L 699.7 368.2 L 700.6 370.9 L 695.0 371.9 L 699.0 376.2 L 696.6 378.0 L 693.8 372.7 L 691.0 378.0 L 688.6 376.3 " fill="#191919"/>
<path class="atom-6" d="M 624.8 36.4 Q 624.8 29.6, 628.1 25.8 Q 631.5 22.0, 637.8 22.0 Q 644.1 22.0, 647.4 25.8 Q 650.8 29.6, 650.8 36.4 Q 650.8 43.3, 647.4 47.2 Q 644.0 51.1, 637.8 51.1 Q 631.5 51.1, 628.1 47.2 Q 624.8 43.3, 624.8 36.4 M 637.8 47.9 Q 642.1 47.9, 644.4 45.0 Q 646.8 42.1, 646.8 36.4 Q 646.8 30.9, 644.4 28.1 Q 642.1 25.2, 637.8 25.2 Q 633.5 25.2, 631.1 28.0 Q 628.8 30.8, 628.8 36.4 Q 628.8 42.1, 631.1 45.0 Q 633.5 47.9, 637.8 47.9 " fill="#FF0000"/>
<path class="bond-0 atom-0 atom-1" d="M 520.5,593.0 L 573.1,593.0" style="fill:none;fill-rule:evenodd;stroke:#191919;stroke-width:2.0px;stroke-linecap:butt;stroke-linejoin:miter;stroke-opacity:1"/>
<path class="bond-0 atom-0 atom-1" d="M 573.1,593.0 L 625.8,593.0" style="fill:none;fill-rule:evenodd;stroke:#0000FF;stroke-width:2.0px;stroke-linecap:butt;stroke-linejoin:miter;stroke-opacity:1"/>
<path class="atom-0" d="M 504.1 589.9 L 508.3 585.6 L 502.8 584.5 L 503.6 581.7 L 508.7 584.2 L 508.0 578.7 L 511.0 578.6 L 510.1 584.2 L 515.3 581.8 L 516.2 584.5 L 510.6 585.6 L 514.6 589.8 L 512.1 591.6 L 509.4 586.3 L 506.6 591.6 L 504.1 589.9 " fill="#191919"/>
<path class="atom-1" d="M 634.6 578.9 L 643.9 593.9 Q 644.8 595.4, 646.3 598.0 Q 647.8 600.7, 647.8 600.9 L 647.8 578.9 L 651.6 578.9 L 651.6 607.2 L 647.7 607.2 L 637.8 590.8 Q 636.6 588.9, 635.4 586.7 Q 634.2 584.5, 633.8 583.8 L 633.8 607.2 L 630.1 607.2 L 630.1 578.9 L 634.6 578.9 " fill="#0000FF"/>
<path class="atom-1" d="M 657.0 578.9 L 660.8 578.9 L 660.8 590.9 L 675.3 590.9 L 675.3 578.9 L 679.2 578.9 L 679.2 607.2 L 675.3 607.2 L 675.3 594.1 L 660.8 594.1 L 660.8 607.2 L 657.0 607.2 L 657.0 578.9 " fill="#0000FF"/>
<path class="atom-1" d="M 684.7 606.2 Q 685.4 604.4, 687.0 603.5 Q 688.7 602.5, 690.9 602.5 Q 693.8 602.5, 695.3 604.0 Q 696.9 605.5, 696.9 608.2 Q 696.9 611.0, 694.9 613.6 Q 692.8 616.2, 688.6 619.2 L 697.2 619.2 L 697.2 621.4 L 684.7 621.4 L 684.7 619.6 Q 688.1 617.1, 690.2 615.3 Q 692.3 613.4, 693.3 611.8 Q 694.3 610.1, 694.3 608.4 Q 694.3 606.6, 693.4 605.6 Q 692.5 604.6, 690.9 604.6 Q 689.4 604.6, 688.4 605.2 Q 687.4 605.8, 686.7 607.1 L 684.7 606.2 " fill="#0000FF"/>
</svg>