<svg xmlns="http://www.w3.org/2000/svg" xmlns:rdkit="http://www.rdkit.org/xml" xmlns:xlink="http://www.w3.org/1999/xlink" version="1.1" baseProfile="full" xml:space="preserve" width="1200px" height="800px" viewBox="0 0 1200 800">
<!-- END OF HEADER -->
<rect style="opacity:1.0;fill:#FFFFFF;stroke:none" width="1200.0" height="800.0" x="0.0" y="0.0"> </rect>
<path class="bond-0 atom-0 atom-1" d="M 1012.2,129.0 L 965.9,160.4" style="fill:none;fill-rule:evenodd;stroke:#191919;stroke-width:2.0px;stroke-linecap:butt;stroke-linejoin:miter;stroke-opacity:1"/>
<path class="bond-0 atom-0 atom-1" d="M 965.9,160.4 L 919.7,191.8" style="fill:none;fill-rule:evenodd;stroke:#FF0000;stroke-width:2.0px;stroke-linecap:butt;stroke-linejoin:miter;stroke-opacity:1"/>
<path class="bond-1 atom-1 atom-2" d="M 884.5,195.2 L 830.9,169.3" style="fill:none;fill-rule:evenodd;stroke:#FF0000;stroke-width:2.0px;stroke-linecap:butt;stroke-linejoin:miter;stroke-opacity:1"/>
<path class="bond-1 atom-1 atom-2" d="M 830.9,169.3 L 777.2,143.3" style="fill:none;fill-rule:evenodd;stroke:#000000;stroke-width:2.0px;stroke-linecap:butt;stroke-linejoin:miter;stroke-opacity:1"/>
<path class="bond-2 atom-2 atom-3" d="M 777.2,143.3 L 662.4,221.2" style="fill:none;fill-rule:evenodd;stroke:#000000;stroke-width:2.0px;stroke-linecap:butt;stroke-linejoin:miter;stroke-opacity:1"/>
<path class="bond-3 atom-3 atom-4" d="M 651.6,216.0 L 656.2,278.7" style="fill:none;fill-rule:evenodd;stroke:#000000;stroke-width:2.0px;stroke-linecap:butt;stroke-linejoin:miter;stroke-opacity:1"/>
<path class="bond-3 atom-3 atom-4" d="M 656.2,278.7 L 660.8,341.5" style="fill:none;fill-rule:evenodd;stroke:#FF0000;stroke-width:2.0px;stroke-linecap:butt;stroke-linejoin:miter;stroke-opacity:1"/>
<path class="bond-3 atom-3 atom-4" d="M 672.4,214.5 L 677.0,277.2" style="fill:none;fill-rule:evenodd;stroke:#000000;stroke-width:2.0px;stroke-linecap:butt;stroke-linejoin:miter;stroke-opacity:1"/>
<path class="bond-3 atom-3 atom-4" d="M 677.0,277.2 L 681.5,340.0" style="fill:none;fill-rule:evenodd;stroke:#FF0000;stroke-width:2.0px;stroke-linecap:butt;stroke-linejoin:miter;stroke-opacity:1"/>
<path class="bond-4 atom-3 atom-5" d="M 662.4,221.2 L 537.6,160.8" style="fill:none;fill-rule:evenodd;stroke:#000000;stroke-width:2.0px;stroke-linecap:butt;stroke-linejoin:miter;stroke-opacity:1"/>
<path class="bond-5 atom-5 atom-6" d="M 537.6,160.8 L 422.8,238.7" style="fill:none;fill-rule:evenodd;stroke:#000000;stroke-width:2.0px;stroke-linecap:butt;stroke-linejoin:miter;stroke-opacity:1"/>
<path class="bond-6 atom-6 atom-7" d="M 422.8,238.7 L 297.9,178.3" style="fill:none;fill-rule:evenodd;stroke:#000000;stroke-width:2.0px;stroke-linecap:butt;stroke-linejoin:miter;stroke-opacity:1"/>
<path class="bond-7 atom-7 atom-8" d="M 297.9,178.3 L 246.2,213.4" style="fill:none;fill-rule:evenodd;stroke:#000000;stroke-width:2.0px;stroke-linecap:butt;stroke-linejoin:miter;stroke-opacity:1"/>
<path class="bond-7 atom-7 atom-8" d="M 246.2,213.4 L 194.4,248.6" style="fill:none;fill-rule:evenodd;stroke:#191919;stroke-width:2.0px;stroke-linecap:butt;stroke-linejoin:miter;stroke-opacity:1"/>
<path class="bond-8 atom-7 atom-9" d="M 308.7,183.5 L 304.2,121.0" style="fill:none;fill-rule:evenodd;stroke:#000000;stroke-width:2.0px;stroke-linecap:butt;stroke-linejoin:miter;stroke-opacity:1"/>
<path class="bond-8 atom-7 atom-9" d="M 304.2,121.0 L 299.6,58.5" style="fill:none;fill-rule:evenodd;stroke:#FF0000;stroke-width:2.0px;stroke-linecap:butt;stroke-linejoin:miter;stroke-opacity:1"/>
<path class="bond-8 atom-7 atom-9" d="M 288.0,185.1 L 283.4,122.6" style="fill:none;fill-rule:evenodd;stroke:#000000;stroke-width:2.0px;stroke-linecap:butt;stroke-linejoin:miter;stroke-opacity:1"/>
<path class="bond-8 atom-7 atom-9" d="M 283.4,122.6 L 278.9,60.0" style="fill:none;fill-rule:evenodd;stroke:#FF0000;stroke-width:2.0px;stroke-linecap:butt;stroke-linejoin:miter;stroke-opacity:1"/>
<path d="M 779.9,144.6 L 777.2,143.3 L 771.5,147.2" style="fill:none;stroke:#000000;stroke-width:2.0px;stroke-linecap:butt;stroke-linejoin:miter;stroke-opacity:1;"/>
<path d="M 668.2,217.4 L 662.4,221.2 L 656.2,218.2" style="fill:none;stroke:#000000;stroke-width:2.0px;stroke-linecap:butt;stroke-linejoin:miter;stroke-opacity:1;"/>
<path d="M 543.8,163.8 L 537.6,160.8 L 531.8,164.7" style="fill:none;stroke:#000000;stroke-width:2.0px;stroke-linecap:butt;stroke-linejoin:miter;stroke-opacity:1;"/>
<path d="M 428.5,234.8 L 422.8,238.7 L 416.5,235.7" style="fill:none;stroke:#000000;stroke-width:2.0px;stroke-linecap:butt;stroke-linejoin:miter;stroke-opacity:1;"/>
<path d="M 304.2,181.3 L 297.9,178.3 L 295.3,180.1" style="fill:none;stroke:#000000;stroke-width:2.0px;stroke-linecap:butt;stroke-linejoin:miter;stroke-opacity:1;"/>
<path class="atom-0" d="M 1011.5 122.7 L 1015.7 118.4 L 1010.2 117.3 L 1011.0 114.5 L 1016.1 117.0 L 1015.4 111.5 L 1018.4 111.4 L 1017.5 117.0 L 1022.7 114.6 L 1023.6 117.3 L 1018.0 118.3 L 1022.0 122.6 L 1019.5 124.4 L 1016.8 119.1 L 1014.0 124.4 L 1011.5 122.7 " fill="#191919"/>
<path class="atom-1" d="M 889.1 203.8 Q 889.1 197.0, 892.4 193.2 Q 895.8 189.4, 902.1 189.4 Q 908.4 189.4, 911.7 193.2 Q 915.1 197.0, 915.1 203.8 Q 915.1 210.7, 911.7 214.6 Q 908.3 218.5, 902.1 218.5 Q 895.8 218.5, 892.4 214.6 Q 889.1 210.8, 889.1 203.8 M 902.1 215.3 Q 906.4 215.3, 908.7 212.4 Q 911.1 209.5, 911.1 203.8 Q 911.1 198.3, 908.7 195.5 Q 906.4 192.6, 902.1 192.6 Q 897.8 192.6, 895.4 195.4 Q 893.1 198.2, 893.1 203.8 Q 893.1 209.6, 895.4 212.4 Q 897.8 215.3, 902.1 215.3 " fill="#FF0000"/>
<path class="atom-4" d="M 659.5 359.7 Q 659.5 352.9, 662.9 349.1 Q 666.3 345.3, 672.5 345.3 Q 678.8 345.3, 682.2 349.1 Q 685.5 352.9, 685.5 359.7 Q 685.5 366.6, 682.1 370.5 Q 678.7 374.4, 672.5 374.4 Q 666.3 374.4, 662.9 370.5 Q 659.5 366.6, 659.5 359.7 M 672.5 371.2 Q 676.9 371.2, 679.2 368.3 Q 681.5 365.4, 681.5 359.7 Q 681.5 354.1, 679.2 351.3 Q 676.9 348.5, 672.5 348.5 Q 668.2 348.5, 665.9 351.3 Q 663.5 354.1, 663.5 359.7 Q 663.5 365.4, 665.9 368.3 Q 668.2 371.2, 672.5 371.2 " fill="#FF0000"/>
<path class="atom-8" d="M 177.8 253.1 L 182.0 248.8 L 176.4 247.7 L 177.3 244.9 L 182.4 247.4 L 181.6 241.9 L 184.6 241.8 L 183.8 247.4 L 189.0 245.0 L 189.8 247.7 L 184.2 248.8 L 188.2 253.0 L 185.8 254.8 L 183.0 249.5 L 180.2 254.8 L 177.8 253.1 " fill="#191919"/>
<path class="atom-9" d="M 274.8 40.0 Q 274.8 33.2, 278.2 29.4 Q 281.5 25.6, 287.8 25.6 Q 294.1 25.6, 297.5 29.4 Q 300.8 33.2, 300.8 40.0 Q 300.8 46.9, 297.4 50.8 Q 294.0 54.7, 287.8 54.7 Q 281.6 54.7, 278.2 50.8 Q 274.8 47.0, 274.8 40.0 M 287.8 51.5 Q 292.1 51.5, 294.5 48.6 Q 296.8 45.7, 296.8 40.0 Q 296.8 34.5, 294.5 31.7 Q 292.1 28.8, 287.8 28.8 Q 283.5 28.8, 281.1 31.6 Q 278.8 34.4, 278.8 40.0 Q 278.8 45.8, 281.1 48.6 Q 283.5 51.5, 287.8 51.5 " fill="#FF0000"/>
<path class="bond-0 atom-0 atom-1" d="M 297.1,594.7 L 350.1,581.9" style="fill:none;fill-rule:evenodd;stroke:#191919;stroke-width:2.0px;stroke-linecap:butt;stroke-linejoin:miter;stroke-opacity:1"/>
<path class="bond-0 atom-0 atom-1" d="M 350.1,581.9 L 403.1,569.1" style="fill:none;fill-rule:evenodd;stroke:#FF0000;stroke-width:2.0px;stroke-linecap:butt;stroke-linejoin:miter;stroke-opacity:1"/>
<path class="bond-1 atom-1 atom-2" d="M 438.3,583.3 L 477.3,624.3" style="fill:none;fill-rule:evenodd;stroke:#FF0000;stroke-width:2.0px;stroke-linecap:butt;stroke-linejoin:miter;stroke-opacity:1"/>
<path class="bond-1 atom-1 atom-2" d="M 477.3,624.3 L 516.4,665.3" style="fill:none;fill-rule:evenodd;stroke:#000000;stroke-width:2.0px;stroke-linecap:butt;stroke-linejoin:miter;stroke-opacity:1"/>
<path class="bond-2 atom-2 atom-3" d="M 516.4,665.3 L 651.2,632.6" style="fill:none;fill-rule:evenodd;stroke:#000000;stroke-width:2.0px;stroke-linecap:butt;stroke-linejoin:miter;stroke-opacity:1"/>
<path class="bond-3 atom-3 atom-4" d="M 651.2,632.6 L 690.3,499.5" style="fill:none;fill-rule:evenodd;stroke:#000000;stroke-width:2.0px;stroke-linecap:butt;stroke-linejoin:miter;stroke-opacity:1"/>
<path class="bond-3 atom-3 atom-4" d="M 674.5,627.0 L 706.9,516.9" style="fill:none;fill-rule:evenodd;stroke:#000000;stroke-width:2.0px;stroke-linecap:butt;stroke-linejoin:miter;stroke-opacity:1"/>
<path class="bond-4 atom-4 atom-5" d="M 690.3,499.5 L 825.2,466.9" style="fill:none;fill-rule:evenodd;stroke:#000000;stroke-width:2.0px;stroke-linecap:butt;stroke-linejoin:miter;stroke-opacity:1"/>
<path class="bond-5 atom-5 atom-6" d="M 825.2,466.9 L 920.9,567.4" style="fill:none;fill-rule:evenodd;stroke:#000000;stroke-width:2.0px;stroke-linecap:butt;stroke-linejoin:miter;stroke-opacity:1"/>
<path class="bond-5 atom-5 atom-6" d="M 818.4,490.0 L 897.5,573.0" style="fill:none;fill-rule:evenodd;stroke:#000000;stroke-width:2.0px;stroke-linecap:butt;stroke-linejoin:miter;stroke-opacity:1"/>
<path class="bond-6 atom-6 atom-7" d="M 920.9,567.4 L 881.7,700.5" style="fill:none;fill-rule:evenodd;stroke:#000000;stroke-width:2.0px;stroke-linecap:butt;stroke-linejoin:miter;stroke-opacity:1"/>
<path class="bond-7 atom-7 atom-8" d="M 881.7,700.5 L 746.9,733.1" style="fill:none;fill-rule:evenodd;stroke:#000000;stroke-width:2.0px;stroke-linecap:butt;stroke-linejoin:miter;stroke-opacity:1"/>
<path class="bond-7 atom-7 atom-8" d="M 865.1,683.1 L 753.7,710.0" style="fill:none;fill-rule:evenodd;stroke:#000000;stroke-width:2.0px;stroke-linecap:butt;stroke-linejoin:miter;stroke-opacity:1"/>
<path class="bond-8 atom-8 atom-3" d="M 746.9,733.1 L 651.2,632.6" style="fill:none;fill-rule:evenodd;stroke:#000000;stroke-width:2.0px;stroke-linecap:butt;stroke-linejoin:miter;stroke-opacity:1"/>
<path d="M 514.4,663.2 L 516.4,665.3 L 523.1,663.6" style="fill:none;stroke:#000000;stroke-width:2.0px;stroke-linecap:butt;stroke-linejoin:miter;stroke-opacity:1;"/>
<path d="M 688.4,506.2 L 690.3,499.5 L 697.1,497.9" style="fill:none;stroke:#000000;stroke-width:2.0px;stroke-linecap:butt;stroke-linejoin:miter;stroke-opacity:1;"/>
<path d="M 818.4,468.5 L 825.2,466.9 L 830.0,471.9" style="fill:none;stroke:#000000;stroke-width:2.0px;stroke-linecap:butt;stroke-linejoin:miter;stroke-opacity:1;"/>
<path d="M 916.1,562.3 L 920.9,567.4 L 918.9,574.0" style="fill:none;stroke:#000000;stroke-width:2.0px;stroke-linecap:butt;stroke-linejoin:miter;stroke-opacity:1;"/>
<path d="M 883.7,693.8 L 881.7,700.5 L 875.0,702.1" style="fill:none;stroke:#000000;stroke-width:2.0px;stroke-linecap:butt;stroke-linejoin:miter;stroke-opacity:1;"/>
<path d="M 753.6,731.5 L 746.9,733.1 L 742.1,728.1" style="fill:none;stroke:#000000;stroke-width:2.0px;stroke-linecap:butt;stroke-linejoin:miter;stroke-opacity:1;"/>
<path class="atom-0" d="M 280.5 594.3 L 284.7 590.1 L 279.1 588.9 L 280.0 586.1 L 285.1 588.7 L 284.3 583.1 L 287.3 583.1 L 286.5 588.6 L 291.7 586.2 L 292.5 588.9 L 286.9 590.0 L 290.9 594.3 L 288.5 596.0 L 285.7 590.7 L 282.9 596.0 L 280.5 594.3 " fill="#191919"/>
<path class="atom-1" d="M 407.7 564.9 Q 407.7 558.1, 411.0 554.3 Q 414.4 550.5, 420.7 550.5 Q 427.0 550.5, 430.3 554.3 Q 433.7 558.1, 433.7 564.9 Q 433.7 571.8, 430.3 575.7 Q 426.9 579.6, 420.7 579.6 Q 414.4 579.6, 411.0 575.7 Q 407.7 571.8, 407.7 564.9 M 420.7 576.4 Q 425.0 576.4, 427.3 573.5 Q 429.7 570.6, 429.7 564.9 Q 429.7 559.3, 427.3 556.5 Q 425.0 553.7, 420.7 553.7 Q 416.4 553.7, 414.0 556.5 Q 411.7 559.3, 411.7 564.9 Q 411.7 570.6, 414.0 573.5 Q 416.4 576.4, 420.7 576.4 " fill="#FF0000"/>
</svg>