<svg xmlns="http://www.w3.org/2000/svg" xmlns:rdkit="http://www.rdkit.org/xml" xmlns:xlink="http://www.w3.org/1999/xlink" version="1.1" baseProfile="full" xml:space="preserve" width="1200px" height="800px" viewBox="0 0 1200 800">
<!-- END OF HEADER -->
<rect style="opacity:1.0;fill:#FFFFFF;stroke:none" width="1200.0" height="800.0" x="0.0" y="0.0"> </rect>
<path class="bond-0 atom-0 atom-1" d="M 1053.6,111.1 L 1051.8,155.9" style="fill:none;fill-rule:evenodd;stroke:#191919;stroke-width:2.0px;stroke-linecap:butt;stroke-linejoin:miter;stroke-opacity:1"/>
<path class="bond-0 atom-0 atom-1" d="M 1051.8,155.9 L 1050.0,200.7" style="fill:none;fill-rule:evenodd;stroke:#FF0000;stroke-width:2.0px;stroke-linecap:butt;stroke-linejoin:miter;stroke-opacity:1"/>
<path class="bond-1 atom-1 atom-2" d="M 1032.7,227.3 L 992.4,248.5" style="fill:none;fill-rule:evenodd;stroke:#FF0000;stroke-width:2.0px;stroke-linecap:butt;stroke-linejoin:miter;stroke-opacity:1"/>
<path class="bond-1 atom-1 atom-2" d="M 992.4,248.5 L 952.1,269.6" style="fill:none;fill-rule:evenodd;stroke:#000000;stroke-width:2.0px;stroke-linecap:butt;stroke-linejoin:miter;stroke-opacity:1"/>
<path class="bond-2 atom-2 atom-3" d="M 952.1,269.6 L 947.7,379.3" style="fill:none;fill-rule:evenodd;stroke:#000000;stroke-width:2.0px;stroke-linecap:butt;stroke-linejoin:miter;stroke-opacity:1"/>
<path class="bond-3 atom-2 atom-4" d="M 952.1,269.6 L 859.3,211.0" style="fill:none;fill-rule:evenodd;stroke:#000000;stroke-width:2.0px;stroke-linecap:butt;stroke-linejoin:miter;stroke-opacity:1"/>
<path class="bond-4 atom-4 atom-5" d="M 867.4,216.1 L 869.3,168.1" style="fill:none;fill-rule:evenodd;stroke:#000000;stroke-width:2.0px;stroke-linecap:butt;stroke-linejoin:miter;stroke-opacity:1"/>
<path class="bond-4 atom-4 atom-5" d="M 869.3,168.1 L 871.2,120.1" style="fill:none;fill-rule:evenodd;stroke:#FF0000;stroke-width:2.0px;stroke-linecap:butt;stroke-linejoin:miter;stroke-opacity:1"/>
<path class="bond-4 atom-4 atom-5" d="M 850.9,215.4 L 852.9,167.4" style="fill:none;fill-rule:evenodd;stroke:#000000;stroke-width:2.0px;stroke-linecap:butt;stroke-linejoin:miter;stroke-opacity:1"/>
<path class="bond-4 atom-4 atom-5" d="M 852.9,167.4 L 854.8,119.4" style="fill:none;fill-rule:evenodd;stroke:#FF0000;stroke-width:2.0px;stroke-linecap:butt;stroke-linejoin:miter;stroke-opacity:1"/>
<path class="bond-5 atom-4 atom-6" d="M 859.3,211.0 L 817.9,232.7" style="fill:none;fill-rule:evenodd;stroke:#000000;stroke-width:2.0px;stroke-linecap:butt;stroke-linejoin:miter;stroke-opacity:1"/>
<path class="bond-5 atom-4 atom-6" d="M 817.9,232.7 L 776.5,254.5" style="fill:none;fill-rule:evenodd;stroke:#0000FF;stroke-width:2.0px;stroke-linecap:butt;stroke-linejoin:miter;stroke-opacity:1"/>
<path class="bond-6 atom-6 atom-7" d="M 747.8,253.0 L 708.6,228.2" style="fill:none;fill-rule:evenodd;stroke:#0000FF;stroke-width:2.0px;stroke-linecap:butt;stroke-linejoin:miter;stroke-opacity:1"/>
<path class="bond-6 atom-6 atom-7" d="M 708.6,228.2 L 669.4,203.4" style="fill:none;fill-rule:evenodd;stroke:#000000;stroke-width:2.0px;stroke-linecap:butt;stroke-linejoin:miter;stroke-opacity:1"/>
<path class="bond-7 atom-7 atom-8" d="M 669.4,203.4 L 572.2,254.4" style="fill:none;fill-rule:evenodd;stroke:#000000;stroke-width:2.0px;stroke-linecap:butt;stroke-linejoin:miter;stroke-opacity:1"/>
<path class="bond-8 atom-8 atom-9" d="M 572.2,254.4 L 479.5,195.8" style="fill:none;fill-rule:evenodd;stroke:#000000;stroke-width:2.0px;stroke-linecap:butt;stroke-linejoin:miter;stroke-opacity:1"/>
<path class="bond-9 atom-9 atom-10" d="M 479.5,195.8 L 382.3,246.8" style="fill:none;fill-rule:evenodd;stroke:#000000;stroke-width:2.0px;stroke-linecap:butt;stroke-linejoin:miter;stroke-opacity:1"/>
<path class="bond-10 atom-10 atom-11" d="M 382.3,246.8 L 289.5,188.2" style="fill:none;fill-rule:evenodd;stroke:#000000;stroke-width:2.0px;stroke-linecap:butt;stroke-linejoin:miter;stroke-opacity:1"/>
<path class="bond-11 atom-11 atom-12" d="M 289.5,188.2 L 248.1,209.9" style="fill:none;fill-rule:evenodd;stroke:#000000;stroke-width:2.0px;stroke-linecap:butt;stroke-linejoin:miter;stroke-opacity:1"/>
<path class="bond-11 atom-11 atom-12" d="M 248.1,209.9 L 206.7,231.6" style="fill:none;fill-rule:evenodd;stroke:#0000FF;stroke-width:2.0px;stroke-linecap:butt;stroke-linejoin:miter;stroke-opacity:1"/>
<path class="bond-12 atom-7 atom-13" d="M 669.4,203.4 L 673.8,93.7" style="fill:none;fill-rule:evenodd;stroke:#000000;stroke-width:2.0px;stroke-linecap:butt;stroke-linejoin:miter;stroke-opacity:1"/>
<path class="bond-13 atom-13 atom-14" d="M 673.8,93.7 L 629.1,65.5" style="fill:none;fill-rule:evenodd;stroke:#000000;stroke-width:2.0px;stroke-linecap:butt;stroke-linejoin:miter;stroke-opacity:1"/>
<path class="bond-13 atom-13 atom-14" d="M 629.1,65.5 L 584.5,37.3" style="fill:none;fill-rule:evenodd;stroke:#191919;stroke-width:2.0px;stroke-linecap:butt;stroke-linejoin:miter;stroke-opacity:1"/>
<path class="bond-14 atom-13 atom-15" d="M 673.4,103.2 L 715.8,81.0" style="fill:none;fill-rule:evenodd;stroke:#000000;stroke-width:2.0px;stroke-linecap:butt;stroke-linejoin:miter;stroke-opacity:1"/>
<path class="bond-14 atom-13 atom-15" d="M 715.8,81.0 L 758.2,58.7" style="fill:none;fill-rule:evenodd;stroke:#FF0000;stroke-width:2.0px;stroke-linecap:butt;stroke-linejoin:miter;stroke-opacity:1"/>
<path class="bond-14 atom-13 atom-15" d="M 665.8,88.7 L 708.1,66.4" style="fill:none;fill-rule:evenodd;stroke:#000000;stroke-width:2.0px;stroke-linecap:butt;stroke-linejoin:miter;stroke-opacity:1"/>
<path class="bond-14 atom-13 atom-15" d="M 708.1,66.4 L 750.5,44.2" style="fill:none;fill-rule:evenodd;stroke:#FF0000;stroke-width:2.0px;stroke-linecap:butt;stroke-linejoin:miter;stroke-opacity:1"/>
<path d="M 864.0,213.9 L 859.3,211.0 L 857.3,212.1" style="fill:none;stroke:#000000;stroke-width:2.0px;stroke-linecap:butt;stroke-linejoin:miter;stroke-opacity:1;"/>
<path d="M 577.1,251.9 L 572.2,254.4 L 567.6,251.5" style="fill:none;stroke:#000000;stroke-width:2.0px;stroke-linecap:butt;stroke-linejoin:miter;stroke-opacity:1;"/>
<path d="M 484.1,198.7 L 479.5,195.8 L 474.6,198.3" style="fill:none;stroke:#000000;stroke-width:2.0px;stroke-linecap:butt;stroke-linejoin:miter;stroke-opacity:1;"/>
<path d="M 387.2,244.3 L 382.3,246.8 L 377.7,243.9" style="fill:none;stroke:#000000;stroke-width:2.0px;stroke-linecap:butt;stroke-linejoin:miter;stroke-opacity:1;"/>
<path d="M 294.2,191.1 L 289.5,188.2 L 287.5,189.3" style="fill:none;stroke:#000000;stroke-width:2.0px;stroke-linecap:butt;stroke-linejoin:miter;stroke-opacity:1;"/>
<path d="M 673.6,99.2 L 673.8,93.7 L 671.6,92.3" style="fill:none;stroke:#000000;stroke-width:2.0px;stroke-linecap:butt;stroke-linejoin:miter;stroke-opacity:1;"/>
<path class="atom-0" d="M 1048.3 105.8 L 1052.5 101.6 L 1047.0 100.4 L 1047.8 97.6 L 1052.9 100.2 L 1052.2 94.6 L 1055.2 94.6 L 1054.3 100.1 L 1059.5 97.7 L 1060.4 100.4 L 1054.8 101.5 L 1058.8 105.8 L 1056.3 107.5 L 1053.6 102.2 L 1050.8 107.5 L 1048.3 105.8 " fill="#191919"/>
<path class="atom-1" d="M 1036.3 218.7 Q 1036.3 211.9, 1039.6 208.1 Q 1043.0 204.3, 1049.3 204.3 Q 1055.6 204.3, 1058.9 208.1 Q 1062.3 211.9, 1062.3 218.7 Q 1062.3 225.6, 1058.9 229.5 Q 1055.5 233.4, 1049.3 233.4 Q 1043.0 233.4, 1039.6 229.5 Q 1036.3 225.6, 1036.3 218.7 M 1049.3 230.2 Q 1053.6 230.2, 1055.9 227.3 Q 1058.3 224.4, 1058.3 218.7 Q 1058.3 213.1, 1055.9 210.3 Q 1053.6 207.5, 1049.3 207.5 Q 1045.0 207.5, 1042.6 210.3 Q 1040.3 213.1, 1040.3 218.7 Q 1040.3 224.4, 1042.6 227.3 Q 1045.0 230.2, 1049.3 230.2 " fill="#FF0000"/>
<path class="atom-5" d="M 850.7 101.4 Q 850.7 94.6, 854.1 90.8 Q 857.5 87.0, 863.7 87.0 Q 870.0 87.0, 873.4 90.8 Q 876.7 94.6, 876.7 101.4 Q 876.7 108.3, 873.3 112.2 Q 869.9 116.1, 863.7 116.1 Q 857.5 116.1, 854.1 112.2 Q 850.7 108.3, 850.7 101.4 M 863.7 112.9 Q 868.1 112.9, 870.4 110.0 Q 872.7 107.1, 872.7 101.4 Q 872.7 95.9, 870.4 93.1 Q 868.1 90.2, 863.7 90.2 Q 859.4 90.2, 857.1 93.0 Q 854.7 95.8, 854.7 101.4 Q 854.7 107.1, 857.1 110.0 Q 859.4 112.9, 863.7 112.9 " fill="#FF0000"/>
<path class="atom-6" d="M 755.9 247.9 L 765.2 262.9 Q 766.1 264.3, 767.6 267.0 Q 769.1 269.7, 769.2 269.9 L 769.2 247.9 L 772.9 247.9 L 772.9 276.2 L 769.0 276.2 L 759.1 259.8 Q 757.9 257.9, 756.7 255.7 Q 755.5 253.5, 755.1 252.8 L 755.1 276.2 L 751.4 276.2 L 751.4 247.9 L 755.9 247.9 " fill="#0000FF"/>
<path class="atom-6" d="M 751.1 279.0 L 754.9 279.0 L 754.9 291.1 L 769.4 291.1 L 769.4 279.0 L 773.3 279.0 L 773.3 307.3 L 769.4 307.3 L 769.4 294.3 L 754.9 294.3 L 754.9 307.3 L 751.1 307.3 L 751.1 279.0 " fill="#0000FF"/>
<path class="atom-12" d="M 137.7 225.0 L 141.6 225.0 L 141.6 237.1 L 156.0 237.1 L 156.0 225.0 L 159.9 225.0 L 159.9 253.3 L 156.0 253.3 L 156.0 240.3 L 141.6 240.3 L 141.6 253.3 L 137.7 253.3 L 137.7 225.0 " fill="#0000FF"/>
<path class="atom-12" d="M 165.4 252.4 Q 166.1 250.6, 167.8 249.6 Q 169.4 248.6, 171.7 248.6 Q 174.5 248.6, 176.1 250.1 Q 177.7 251.7, 177.7 254.4 Q 177.7 257.2, 175.6 259.7 Q 173.6 262.3, 169.3 265.4 L 178.0 265.4 L 178.0 267.5 L 165.4 267.5 L 165.4 265.7 Q 168.9 263.3, 170.9 261.4 Q 173.0 259.6, 174.0 257.9 Q 175.0 256.2, 175.0 254.5 Q 175.0 252.7, 174.1 251.7 Q 173.2 250.7, 171.7 250.7 Q 170.2 250.7, 169.2 251.3 Q 168.1 251.9, 167.4 253.3 L 165.4 252.4 " fill="#0000FF"/>
<path class="atom-12" d="M 186.1 225.0 L 195.4 240.0 Q 196.3 241.5, 197.8 244.2 Q 199.3 246.9, 199.4 247.0 L 199.4 225.0 L 203.1 225.0 L 203.1 253.3 L 199.2 253.3 L 189.3 236.9 Q 188.1 235.0, 186.9 232.8 Q 185.7 230.6, 185.3 229.9 L 185.3 253.3 L 181.6 253.3 L 181.6 225.0 L 186.1 225.0 " fill="#0000FF"/>
<path class="atom-14" d="M 575.7 31.9 L 579.9 27.7 L 574.3 26.6 L 575.2 23.7 L 580.3 26.3 L 579.5 20.7 L 582.5 20.7 L 581.7 26.3 L 586.9 23.9 L 587.7 26.6 L 582.1 27.6 L 586.1 31.9 L 583.7 33.7 L 580.9 28.4 L 578.1 33.7 L 575.7 31.9 " fill="#191919"/>
<path class="atom-15" d="M 758.0 42.8 Q 758.0 36.0, 761.3 32.2 Q 764.7 28.4, 771.0 28.4 Q 777.2 28.4, 780.6 32.2 Q 784.0 36.0, 784.0 42.8 Q 784.0 49.7, 780.6 53.6 Q 777.2 57.5, 771.0 57.5 Q 764.7 57.5, 761.3 53.6 Q 758.0 49.7, 758.0 42.8 M 771.0 54.3 Q 775.3 54.3, 777.6 51.4 Q 780.0 48.5, 780.0 42.8 Q 780.0 37.2, 777.6 34.4 Q 775.3 31.6, 771.0 31.6 Q 766.6 31.6, 764.3 34.4 Q 762.0 37.2, 762.0 42.8 Q 762.0 48.5, 764.3 51.4 Q 766.6 54.3, 771.0 54.3 " fill="#FF0000"/>
<path class="bond-0 atom-0 atom-1" d="M 823.2,465.1 L 832.9,508.6" style="fill:none;fill-rule:evenodd;stroke:#191919;stroke-width:2.0px;stroke-linecap:butt;stroke-linejoin:miter;stroke-opacity:1"/>
<path class="bond-0 atom-0 atom-1" d="M 832.9,508.6 L 842.7,552.1" style="fill:none;fill-rule:evenodd;stroke:#FF0000;stroke-width:2.0px;stroke-linecap:butt;stroke-linejoin:miter;stroke-opacity:1"/>
<path class="bond-1 atom-1 atom-2" d="M 830.1,585.3 L 798.0,614.9" style="fill:none;fill-rule:evenodd;stroke:#FF0000;stroke-width:2.0px;stroke-linecap:butt;stroke-linejoin:miter;stroke-opacity:1"/>
<path class="bond-1 atom-1 atom-2" d="M 798.0,614.9 L 766.0,644.4" style="fill:none;fill-rule:evenodd;stroke:#000000;stroke-width:2.0px;stroke-linecap:butt;stroke-linejoin:miter;stroke-opacity:1"/>
<path class="bond-2 atom-2 atom-3" d="M 766.0,644.4 L 790.0,751.5" style="fill:none;fill-rule:evenodd;stroke:#000000;stroke-width:2.0px;stroke-linecap:butt;stroke-linejoin:miter;stroke-opacity:1"/>
<path class="bond-3 atom-2 atom-4" d="M 766.0,644.4 L 661.2,611.6" style="fill:none;fill-rule:evenodd;stroke:#000000;stroke-width:2.0px;stroke-linecap:butt;stroke-linejoin:miter;stroke-opacity:1"/>
<path class="bond-4 atom-4 atom-5" d="M 670.3,614.5 L 659.8,567.8" style="fill:none;fill-rule:evenodd;stroke:#000000;stroke-width:2.0px;stroke-linecap:butt;stroke-linejoin:miter;stroke-opacity:1"/>
<path class="bond-4 atom-4 atom-5" d="M 659.8,567.8 L 649.4,521.1" style="fill:none;fill-rule:evenodd;stroke:#FF0000;stroke-width:2.0px;stroke-linecap:butt;stroke-linejoin:miter;stroke-opacity:1"/>
<path class="bond-4 atom-4 atom-5" d="M 654.2,618.1 L 643.8,571.4" style="fill:none;fill-rule:evenodd;stroke:#000000;stroke-width:2.0px;stroke-linecap:butt;stroke-linejoin:miter;stroke-opacity:1"/>
<path class="bond-4 atom-4 atom-5" d="M 643.8,571.4 L 633.3,524.7" style="fill:none;fill-rule:evenodd;stroke:#FF0000;stroke-width:2.0px;stroke-linecap:butt;stroke-linejoin:miter;stroke-opacity:1"/>
<path class="bond-5 atom-4 atom-6" d="M 661.2,611.6 L 629.2,641.1" style="fill:none;fill-rule:evenodd;stroke:#000000;stroke-width:2.0px;stroke-linecap:butt;stroke-linejoin:miter;stroke-opacity:1"/>
<path class="bond-5 atom-4 atom-6" d="M 629.2,641.1 L 597.1,670.7" style="fill:none;fill-rule:evenodd;stroke:#FF0000;stroke-width:2.0px;stroke-linecap:butt;stroke-linejoin:miter;stroke-opacity:1"/>
<path class="bond-6 atom-6 atom-7" d="M 563.9,680.8 L 519.8,667.0" style="fill:none;fill-rule:evenodd;stroke:#FF0000;stroke-width:2.0px;stroke-linecap:butt;stroke-linejoin:miter;stroke-opacity:1"/>
<path class="bond-6 atom-6 atom-7" d="M 519.8,667.0 L 475.8,653.2" style="fill:none;fill-rule:evenodd;stroke:#000000;stroke-width:2.0px;stroke-linecap:butt;stroke-linejoin:miter;stroke-opacity:1"/>
<path class="bond-7 atom-7 atom-8" d="M 475.8,653.2 L 395.0,727.6" style="fill:none;fill-rule:evenodd;stroke:#000000;stroke-width:2.0px;stroke-linecap:butt;stroke-linejoin:miter;stroke-opacity:1"/>
<path class="bond-8 atom-7 atom-9" d="M 475.8,653.2 L 451.7,546.2" style="fill:none;fill-rule:evenodd;stroke:#000000;stroke-width:2.0px;stroke-linecap:butt;stroke-linejoin:miter;stroke-opacity:1"/>
<path class="bond-9 atom-9 atom-10" d="M 451.7,546.2 L 402.9,530.9" style="fill:none;fill-rule:evenodd;stroke:#000000;stroke-width:2.0px;stroke-linecap:butt;stroke-linejoin:miter;stroke-opacity:1"/>
<path class="bond-9 atom-9 atom-10" d="M 402.9,530.9 L 354.0,515.6" style="fill:none;fill-rule:evenodd;stroke:#191919;stroke-width:2.0px;stroke-linecap:butt;stroke-linejoin:miter;stroke-opacity:1"/>
<path class="bond-10 atom-9 atom-11" d="M 453.8,555.4 L 487.6,524.3" style="fill:none;fill-rule:evenodd;stroke:#000000;stroke-width:2.0px;stroke-linecap:butt;stroke-linejoin:miter;stroke-opacity:1"/>
<path class="bond-10 atom-9 atom-11" d="M 487.6,524.3 L 521.4,493.2" style="fill:none;fill-rule:evenodd;stroke:#FF0000;stroke-width:2.0px;stroke-linecap:butt;stroke-linejoin:miter;stroke-opacity:1"/>
<path class="bond-10 atom-9 atom-11" d="M 442.7,543.3 L 476.5,512.2" style="fill:none;fill-rule:evenodd;stroke:#000000;stroke-width:2.0px;stroke-linecap:butt;stroke-linejoin:miter;stroke-opacity:1"/>
<path class="bond-10 atom-9 atom-11" d="M 476.5,512.2 L 510.3,481.1" style="fill:none;fill-rule:evenodd;stroke:#FF0000;stroke-width:2.0px;stroke-linecap:butt;stroke-linejoin:miter;stroke-opacity:1"/>
<path d="M 666.5,613.3 L 661.2,611.6 L 659.6,613.1" style="fill:none;stroke:#000000;stroke-width:2.0px;stroke-linecap:butt;stroke-linejoin:miter;stroke-opacity:1;"/>
<path d="M 452.9,551.5 L 451.7,546.2 L 449.3,545.4" style="fill:none;stroke:#000000;stroke-width:2.0px;stroke-linecap:butt;stroke-linejoin:miter;stroke-opacity:1;"/>
<path class="atom-0" d="M 817.3 459.8 L 821.5 455.5 L 816.0 454.4 L 816.8 451.6 L 821.9 454.1 L 821.2 448.6 L 824.2 448.5 L 823.3 454.1 L 828.5 451.7 L 829.4 454.4 L 823.8 455.5 L 827.8 459.7 L 825.3 461.5 L 822.6 456.2 L 819.8 461.5 L 817.3 459.8 " fill="#191919"/>
<path class="atom-1" d="M 833.7 570.1 Q 833.7 563.3, 837.1 559.5 Q 840.4 555.7, 846.7 555.7 Q 853.0 555.7, 856.3 559.5 Q 859.7 563.3, 859.7 570.1 Q 859.7 577.0, 856.3 580.9 Q 852.9 584.8, 846.7 584.8 Q 840.5 584.8, 837.1 580.9 Q 833.7 577.0, 833.7 570.1 M 846.7 581.6 Q 851.0 581.6, 853.3 578.7 Q 855.7 575.8, 855.7 570.1 Q 855.7 564.5, 853.3 561.7 Q 851.0 558.9, 846.7 558.9 Q 842.4 558.9, 840.0 561.7 Q 837.7 564.5, 837.7 570.1 Q 837.7 575.8, 840.0 578.7 Q 842.4 581.6, 846.7 581.6 " fill="#FF0000"/>
<path class="atom-5" d="M 624.2 504.6 Q 624.2 497.8, 627.6 494.0 Q 630.9 490.2, 637.2 490.2 Q 643.5 490.2, 646.9 494.0 Q 650.2 497.8, 650.2 504.6 Q 650.2 511.5, 646.8 515.4 Q 643.4 519.3, 637.2 519.3 Q 631.0 519.3, 627.6 515.4 Q 624.2 511.5, 624.2 504.6 M 637.2 516.1 Q 641.5 516.1, 643.9 513.2 Q 646.2 510.3, 646.2 504.6 Q 646.2 499.1, 643.9 496.3 Q 641.5 493.4, 637.2 493.4 Q 632.9 493.4, 630.5 496.2 Q 628.2 499.0, 628.2 504.6 Q 628.2 510.3, 630.5 513.2 Q 632.9 516.1, 637.2 516.1 " fill="#FF0000"/>
<path class="atom-6" d="M 567.5 686.1 Q 567.5 679.3, 570.9 675.5 Q 574.2 671.7, 580.5 671.7 Q 586.8 671.7, 590.1 675.5 Q 593.5 679.3, 593.5 686.1 Q 593.5 692.9, 590.1 696.9 Q 586.7 700.7, 580.5 700.7 Q 574.3 700.7, 570.9 696.9 Q 567.5 693.0, 567.5 686.1 M 580.5 697.5 Q 584.8 697.5, 587.1 694.7 Q 589.5 691.7, 589.5 686.1 Q 589.5 680.5, 587.1 677.7 Q 584.8 674.9, 580.5 674.9 Q 576.2 674.9, 573.8 677.7 Q 571.5 680.5, 571.5 686.1 Q 571.5 691.8, 573.8 694.7 Q 576.2 697.5, 580.5 697.5 " fill="#FF0000"/>
<path class="atom-10" d="M 341.7 510.2 L 345.8 506.0 L 340.3 504.9 L 341.1 502.0 L 346.2 504.6 L 345.5 499.0 L 348.5 499.0 L 347.7 504.6 L 352.8 502.2 L 353.7 504.9 L 348.1 505.9 L 352.1 510.2 L 349.7 512.0 L 346.9 506.7 L 344.1 512.0 L 341.7 510.2 " fill="#191919"/>
<path class="atom-11" d="M 519.5 471.9 Q 519.5 465.1, 522.8 461.3 Q 526.2 457.5, 532.5 457.5 Q 538.7 457.5, 542.1 461.3 Q 545.5 465.1, 545.5 471.9 Q 545.5 478.8, 542.1 482.7 Q 538.7 486.6, 532.5 486.6 Q 526.2 486.6, 522.8 482.7 Q 519.5 478.8, 519.5 471.9 M 532.5 483.4 Q 536.8 483.4, 539.1 480.5 Q 541.5 477.6, 541.5 471.9 Q 541.5 466.3, 539.1 463.5 Q 536.8 460.7, 532.5 460.7 Q 528.1 460.7, 525.8 463.5 Q 523.5 466.3, 523.5 471.9 Q 523.5 477.6, 525.8 480.5 Q 528.1 483.4, 532.5 483.4 " fill="#FF0000"/>
</svg>