<svg xmlns="http://www.w3.org/2000/svg" xmlns:rdkit="http://www.rdkit.org/xml" xmlns:xlink="http://www.w3.org/1999/xlink" version="1.1" baseProfile="full" xml:space="preserve" width="1200px" height="1200px" viewBox="0 0 1200 1200">
<!-- END OF HEADER -->
<rect style="opacity:1.0;fill:#FFFFFF;stroke:none" width="1200.0" height="1200.0" x="0.0" y="0.0"> </rect>
<path class="bond-0 atom-0 atom-1" d="M 481.7,277.1 L 463.0,253.6" style="fill:none;fill-rule:evenodd;stroke:#191919;stroke-width:2.0px;stroke-linecap:butt;stroke-linejoin:miter;stroke-opacity:1"/>
<path class="bond-0 atom-0 atom-1" d="M 463.0,253.6 L 444.2,230.1" style="fill:none;fill-rule:evenodd;stroke:#000000;stroke-width:2.0px;stroke-linecap:butt;stroke-linejoin:miter;stroke-opacity:1"/>
<path class="bond-1 atom-1 atom-2" d="M 444.2,230.1 L 373.4,240.8" style="fill:none;fill-rule:evenodd;stroke:#000000;stroke-width:2.0px;stroke-linecap:butt;stroke-linejoin:miter;stroke-opacity:1"/>
<path class="bond-2 atom-2 atom-3" d="M 373.4,240.8 L 356.1,219.1" style="fill:none;fill-rule:evenodd;stroke:#000000;stroke-width:2.0px;stroke-linecap:butt;stroke-linejoin:miter;stroke-opacity:1"/>
<path class="bond-2 atom-2 atom-3" d="M 356.1,219.1 L 338.7,197.4" style="fill:none;fill-rule:evenodd;stroke:#0000FF;stroke-width:2.0px;stroke-linecap:butt;stroke-linejoin:miter;stroke-opacity:1"/>
<path class="bond-3 atom-3 atom-4" d="M 318.7,186.4 L 288.3,191.0" style="fill:none;fill-rule:evenodd;stroke:#0000FF;stroke-width:2.0px;stroke-linecap:butt;stroke-linejoin:miter;stroke-opacity:1"/>
<path class="bond-3 atom-3 atom-4" d="M 288.3,191.0 L 258.0,195.6" style="fill:none;fill-rule:evenodd;stroke:#000000;stroke-width:2.0px;stroke-linecap:butt;stroke-linejoin:miter;stroke-opacity:1"/>
<path class="bond-4 atom-3 atom-5" d="M 333.7,172.4 L 344.3,145.3" style="fill:none;fill-rule:evenodd;stroke:#0000FF;stroke-width:2.0px;stroke-linecap:butt;stroke-linejoin:miter;stroke-opacity:1"/>
<path class="bond-4 atom-3 atom-5" d="M 344.3,145.3 L 354.9,118.2" style="fill:none;fill-rule:evenodd;stroke:#000000;stroke-width:2.0px;stroke-linecap:butt;stroke-linejoin:miter;stroke-opacity:1"/>
<path class="bond-5 atom-5 atom-6" d="M 354.9,118.2 L 425.7,107.5" style="fill:none;fill-rule:evenodd;stroke:#000000;stroke-width:2.0px;stroke-linecap:butt;stroke-linejoin:miter;stroke-opacity:1"/>
<path class="bond-6 atom-6 atom-7" d="M 425.7,107.5 L 443.0,129.2" style="fill:none;fill-rule:evenodd;stroke:#000000;stroke-width:2.0px;stroke-linecap:butt;stroke-linejoin:miter;stroke-opacity:1"/>
<path class="bond-6 atom-6 atom-7" d="M 443.0,129.2 L 460.4,151.0" style="fill:none;fill-rule:evenodd;stroke:#0000FF;stroke-width:2.0px;stroke-linecap:butt;stroke-linejoin:miter;stroke-opacity:1"/>
<path class="bond-7 atom-7 atom-8" d="M 480.4,162.0 L 510.8,157.4" style="fill:none;fill-rule:evenodd;stroke:#0000FF;stroke-width:2.0px;stroke-linecap:butt;stroke-linejoin:miter;stroke-opacity:1"/>
<path class="bond-7 atom-7 atom-8" d="M 510.8,157.4 L 541.2,152.8" style="fill:none;fill-rule:evenodd;stroke:#000000;stroke-width:2.0px;stroke-linecap:butt;stroke-linejoin:miter;stroke-opacity:1"/>
<path class="bond-8 atom-8 atom-9" d="M 541.2,152.8 L 567.3,86.1" style="fill:none;fill-rule:evenodd;stroke:#000000;stroke-width:2.0px;stroke-linecap:butt;stroke-linejoin:miter;stroke-opacity:1"/>
<path class="bond-8 atom-8 atom-9" d="M 553.4,150.9 L 575.0,95.8" style="fill:none;fill-rule:evenodd;stroke:#000000;stroke-width:2.0px;stroke-linecap:butt;stroke-linejoin:miter;stroke-opacity:1"/>
<path class="bond-9 atom-9 atom-10" d="M 567.3,86.1 L 549.2,63.4" style="fill:none;fill-rule:evenodd;stroke:#000000;stroke-width:2.0px;stroke-linecap:butt;stroke-linejoin:miter;stroke-opacity:1"/>
<path class="bond-9 atom-9 atom-10" d="M 549.2,63.4 L 531.0,40.7" style="fill:none;fill-rule:evenodd;stroke:#33CCCC;stroke-width:2.0px;stroke-linecap:butt;stroke-linejoin:miter;stroke-opacity:1"/>
<path class="bond-10 atom-9 atom-11" d="M 567.3,86.1 L 638.1,75.4" style="fill:none;fill-rule:evenodd;stroke:#000000;stroke-width:2.0px;stroke-linecap:butt;stroke-linejoin:miter;stroke-opacity:1"/>
<path class="bond-11 atom-11 atom-12" d="M 638.1,75.4 L 682.8,131.4" style="fill:none;fill-rule:evenodd;stroke:#000000;stroke-width:2.0px;stroke-linecap:butt;stroke-linejoin:miter;stroke-opacity:1"/>
<path class="bond-11 atom-11 atom-12" d="M 633.6,87.0 L 670.5,133.2" style="fill:none;fill-rule:evenodd;stroke:#000000;stroke-width:2.0px;stroke-linecap:butt;stroke-linejoin:miter;stroke-opacity:1"/>
<path class="bond-12 atom-12 atom-13" d="M 682.8,131.4 L 753.6,120.7" style="fill:none;fill-rule:evenodd;stroke:#000000;stroke-width:2.0px;stroke-linecap:butt;stroke-linejoin:miter;stroke-opacity:1"/>
<path class="bond-13 atom-13 atom-14" d="M 757.4,125.5 L 768.5,97.2" style="fill:none;fill-rule:evenodd;stroke:#000000;stroke-width:2.0px;stroke-linecap:butt;stroke-linejoin:miter;stroke-opacity:1"/>
<path class="bond-13 atom-13 atom-14" d="M 768.5,97.2 L 779.6,68.9" style="fill:none;fill-rule:evenodd;stroke:#FF0000;stroke-width:2.0px;stroke-linecap:butt;stroke-linejoin:miter;stroke-opacity:1"/>
<path class="bond-13 atom-13 atom-14" d="M 747.4,121.6 L 758.5,93.3" style="fill:none;fill-rule:evenodd;stroke:#000000;stroke-width:2.0px;stroke-linecap:butt;stroke-linejoin:miter;stroke-opacity:1"/>
<path class="bond-13 atom-13 atom-14" d="M 758.5,93.3 L 769.6,65.0" style="fill:none;fill-rule:evenodd;stroke:#FF0000;stroke-width:2.0px;stroke-linecap:butt;stroke-linejoin:miter;stroke-opacity:1"/>
<path class="bond-14 atom-13 atom-15" d="M 753.6,120.7 L 798.2,176.7" style="fill:none;fill-rule:evenodd;stroke:#000000;stroke-width:2.0px;stroke-linecap:butt;stroke-linejoin:miter;stroke-opacity:1"/>
<path class="bond-15 atom-15 atom-16" d="M 798.2,176.7 L 869.0,166.0" style="fill:none;fill-rule:evenodd;stroke:#000000;stroke-width:2.0px;stroke-linecap:butt;stroke-linejoin:miter;stroke-opacity:1"/>
<path class="bond-16 atom-16 atom-17" d="M 872.9,170.8 L 884.0,142.5" style="fill:none;fill-rule:evenodd;stroke:#000000;stroke-width:2.0px;stroke-linecap:butt;stroke-linejoin:miter;stroke-opacity:1"/>
<path class="bond-16 atom-16 atom-17" d="M 884.0,142.5 L 895.1,114.2" style="fill:none;fill-rule:evenodd;stroke:#FF0000;stroke-width:2.0px;stroke-linecap:butt;stroke-linejoin:miter;stroke-opacity:1"/>
<path class="bond-16 atom-16 atom-17" d="M 862.9,166.9 L 874.0,138.6" style="fill:none;fill-rule:evenodd;stroke:#000000;stroke-width:2.0px;stroke-linecap:butt;stroke-linejoin:miter;stroke-opacity:1"/>
<path class="bond-16 atom-16 atom-17" d="M 874.0,138.6 L 885.1,110.3" style="fill:none;fill-rule:evenodd;stroke:#FF0000;stroke-width:2.0px;stroke-linecap:butt;stroke-linejoin:miter;stroke-opacity:1"/>
<path class="bond-17 atom-16 atom-18" d="M 869.0,166.0 L 886.3,187.6" style="fill:none;fill-rule:evenodd;stroke:#000000;stroke-width:2.0px;stroke-linecap:butt;stroke-linejoin:miter;stroke-opacity:1"/>
<path class="bond-17 atom-16 atom-18" d="M 886.3,187.6 L 903.6,209.3" style="fill:none;fill-rule:evenodd;stroke:#FF0000;stroke-width:2.0px;stroke-linecap:butt;stroke-linejoin:miter;stroke-opacity:1"/>
<path class="bond-18 atom-15 atom-19" d="M 798.2,176.7 L 772.1,243.3" style="fill:none;fill-rule:evenodd;stroke:#000000;stroke-width:2.0px;stroke-linecap:butt;stroke-linejoin:miter;stroke-opacity:1"/>
<path class="bond-18 atom-15 atom-19" d="M 786.0,178.5 L 764.4,233.6" style="fill:none;fill-rule:evenodd;stroke:#000000;stroke-width:2.0px;stroke-linecap:butt;stroke-linejoin:miter;stroke-opacity:1"/>
<path class="bond-19 atom-19 atom-20" d="M 772.1,243.3 L 741.7,247.9" style="fill:none;fill-rule:evenodd;stroke:#000000;stroke-width:2.0px;stroke-linecap:butt;stroke-linejoin:miter;stroke-opacity:1"/>
<path class="bond-19 atom-19 atom-20" d="M 741.7,247.9 L 711.4,252.5" style="fill:none;fill-rule:evenodd;stroke:#0000FF;stroke-width:2.0px;stroke-linecap:butt;stroke-linejoin:miter;stroke-opacity:1"/>
<path class="bond-20 atom-20 atom-21" d="M 691.3,241.5 L 674.0,219.8" style="fill:none;fill-rule:evenodd;stroke:#0000FF;stroke-width:2.0px;stroke-linecap:butt;stroke-linejoin:miter;stroke-opacity:1"/>
<path class="bond-20 atom-20 atom-21" d="M 674.0,219.8 L 656.6,198.0" style="fill:none;fill-rule:evenodd;stroke:#000000;stroke-width:2.0px;stroke-linecap:butt;stroke-linejoin:miter;stroke-opacity:1"/>
<path class="bond-21 atom-21 atom-22" d="M 656.6,198.0 L 585.8,208.7" style="fill:none;fill-rule:evenodd;stroke:#000000;stroke-width:2.0px;stroke-linecap:butt;stroke-linejoin:miter;stroke-opacity:1"/>
<path class="bond-21 atom-21 atom-22" d="M 648.9,188.4 L 590.4,197.2" style="fill:none;fill-rule:evenodd;stroke:#000000;stroke-width:2.0px;stroke-linecap:butt;stroke-linejoin:miter;stroke-opacity:1"/>
<path class="bond-22 atom-22 atom-23" d="M 585.8,208.7 L 575.2,235.8" style="fill:none;fill-rule:evenodd;stroke:#000000;stroke-width:2.0px;stroke-linecap:butt;stroke-linejoin:miter;stroke-opacity:1"/>
<path class="bond-22 atom-22 atom-23" d="M 575.2,235.8 L 564.6,262.8" style="fill:none;fill-rule:evenodd;stroke:#FF0000;stroke-width:2.0px;stroke-linecap:butt;stroke-linejoin:miter;stroke-opacity:1"/>
<path class="bond-23 atom-23 atom-24" d="M 570.0,288.3 L 587.2,309.9" style="fill:none;fill-rule:evenodd;stroke:#FF0000;stroke-width:2.0px;stroke-linecap:butt;stroke-linejoin:miter;stroke-opacity:1"/>
<path class="bond-23 atom-23 atom-24" d="M 587.2,309.9 L 604.4,331.4" style="fill:none;fill-rule:evenodd;stroke:#000000;stroke-width:2.0px;stroke-linecap:butt;stroke-linejoin:miter;stroke-opacity:1"/>
<path class="bond-24 atom-24 atom-25" d="M 604.4,331.4 L 675.2,320.7" style="fill:none;fill-rule:evenodd;stroke:#000000;stroke-width:2.0px;stroke-linecap:butt;stroke-linejoin:miter;stroke-opacity:1"/>
<path class="bond-25 atom-25 atom-26" d="M 675.2,320.7 L 724.0,373.3 L 715.6,380.0 Z" style="fill:#000000;fill-rule:evenodd;fill-opacity:1;stroke:#000000;stroke-width:0.5px;stroke-linecap:butt;stroke-linejoin:miter;stroke-opacity:1;"/>
<path class="bond-26 atom-7 atom-1" d="M 465.5,176.0 L 454.8,203.1" style="fill:none;fill-rule:evenodd;stroke:#0000FF;stroke-width:2.0px;stroke-linecap:butt;stroke-linejoin:miter;stroke-opacity:1"/>
<path class="bond-26 atom-7 atom-1" d="M 454.8,203.1 L 444.2,230.1" style="fill:none;fill-rule:evenodd;stroke:#000000;stroke-width:2.0px;stroke-linecap:butt;stroke-linejoin:miter;stroke-opacity:1"/>
<path class="bond-27 atom-22 atom-8" d="M 585.8,208.7 L 541.2,152.8" style="fill:none;fill-rule:evenodd;stroke:#000000;stroke-width:2.0px;stroke-linecap:butt;stroke-linejoin:miter;stroke-opacity:1"/>
<path class="bond-28 atom-21 atom-12" d="M 656.6,198.0 L 682.8,131.4" style="fill:none;fill-rule:evenodd;stroke:#000000;stroke-width:2.0px;stroke-linecap:butt;stroke-linejoin:miter;stroke-opacity:1"/>
<path class="bond-29 atom-25 atom-20" d="M 675.2,320.7 L 685.8,293.6" style="fill:none;fill-rule:evenodd;stroke:#000000;stroke-width:2.0px;stroke-linecap:butt;stroke-linejoin:miter;stroke-opacity:1"/>
<path class="bond-29 atom-25 atom-20" d="M 685.8,293.6 L 696.4,266.5" style="fill:none;fill-rule:evenodd;stroke:#0000FF;stroke-width:2.0px;stroke-linecap:butt;stroke-linejoin:miter;stroke-opacity:1"/>
<path d="M 377.0,240.3 L 373.4,240.8 L 372.6,239.7" style="fill:none;stroke:#000000;stroke-width:2.0px;stroke-linecap:butt;stroke-linejoin:miter;stroke-opacity:1;"/>
<path d="M 354.4,119.5 L 354.9,118.2 L 358.4,117.7" style="fill:none;stroke:#000000;stroke-width:2.0px;stroke-linecap:butt;stroke-linejoin:miter;stroke-opacity:1;"/>
<path d="M 422.2,108.0 L 425.7,107.5 L 426.6,108.6" style="fill:none;stroke:#000000;stroke-width:2.0px;stroke-linecap:butt;stroke-linejoin:miter;stroke-opacity:1;"/>
<path d="M 634.6,75.9 L 638.1,75.4 L 640.3,78.2" style="fill:none;stroke:#000000;stroke-width:2.0px;stroke-linecap:butt;stroke-linejoin:miter;stroke-opacity:1;"/>
<path d="M 750.0,121.2 L 753.6,120.7 L 755.8,123.5" style="fill:none;stroke:#000000;stroke-width:2.0px;stroke-linecap:butt;stroke-linejoin:miter;stroke-opacity:1;"/>
<path d="M 865.5,166.5 L 869.0,166.0 L 869.9,167.0" style="fill:none;stroke:#000000;stroke-width:2.0px;stroke-linecap:butt;stroke-linejoin:miter;stroke-opacity:1;"/>
<path d="M 773.4,240.0 L 772.1,243.3 L 770.6,243.6" style="fill:none;stroke:#000000;stroke-width:2.0px;stroke-linecap:butt;stroke-linejoin:miter;stroke-opacity:1;"/>
<path d="M 603.5,330.3 L 604.4,331.4 L 607.9,330.8" style="fill:none;stroke:#000000;stroke-width:2.0px;stroke-linecap:butt;stroke-linejoin:miter;stroke-opacity:1;"/>
<path d="M 671.6,321.2 L 675.2,320.7 L 675.7,319.3" style="fill:none;stroke:#000000;stroke-width:2.0px;stroke-linecap:butt;stroke-linejoin:miter;stroke-opacity:1;"/>
<path class="atom-0" d="M 485.1 283.8 L 488.0 280.8 L 484.1 280.0 L 484.7 278.0 L 488.3 279.8 L 487.8 275.8 L 490.0 275.8 L 489.4 279.8 L 493.1 278.1 L 493.7 280.0 L 489.7 280.7 L 492.5 283.8 L 490.8 285.1 L 488.8 281.3 L 486.8 285.1 L 485.1 283.8 " fill="#191919"/>
<path class="atom-3" d="M 324.3 174.7 L 330.9 185.5 Q 331.6 186.5, 332.6 188.4 Q 333.7 190.4, 333.8 190.5 L 333.8 174.7 L 336.5 174.7 L 336.5 195.0 L 333.7 195.0 L 326.5 183.3 Q 325.7 181.9, 324.8 180.3 Q 324.0 178.7, 323.7 178.2 L 323.7 195.0 L 321.1 195.0 L 321.1 174.7 L 324.3 174.7 " fill="#0000FF"/>
<path class="atom-7" d="M 465.9 153.3 L 472.5 164.1 Q 473.2 165.1, 474.2 167.0 Q 475.3 169.0, 475.4 169.1 L 475.4 153.3 L 478.1 153.3 L 478.1 173.6 L 475.3 173.6 L 468.1 161.9 Q 467.3 160.5, 466.4 158.9 Q 465.6 157.3, 465.3 156.9 L 465.3 173.6 L 462.7 173.6 L 462.7 153.3 L 465.9 153.3 " fill="#0000FF"/>
<path class="atom-10" d="M 516.6 20.0 L 528.7 20.0 L 528.7 22.3 L 519.3 22.3 L 519.3 28.5 L 527.6 28.5 L 527.6 30.8 L 519.3 30.8 L 519.3 40.3 L 516.6 40.3 L 516.6 20.0 " fill="#33CCCC"/>
<path class="atom-14" d="M 770.4 54.1 Q 770.4 49.2, 772.8 46.5 Q 775.2 43.8, 779.7 43.8 Q 784.2 43.8, 786.6 46.5 Q 789.0 49.2, 789.0 54.1 Q 789.0 59.0, 786.6 61.8 Q 784.2 64.6, 779.7 64.6 Q 775.2 64.6, 772.8 61.8 Q 770.4 59.0, 770.4 54.1 M 779.7 62.3 Q 782.8 62.3, 784.5 60.2 Q 786.2 58.1, 786.2 54.1 Q 786.2 50.1, 784.5 48.1 Q 782.8 46.1, 779.7 46.1 Q 776.6 46.1, 774.9 48.1 Q 773.3 50.1, 773.3 54.1 Q 773.3 58.2, 774.9 60.2 Q 776.6 62.3, 779.7 62.3 " fill="#FF0000"/>
<path class="atom-17" d="M 885.9 99.4 Q 885.9 94.5, 888.3 91.8 Q 890.7 89.0, 895.2 89.0 Q 899.7 89.0, 902.1 91.8 Q 904.5 94.5, 904.5 99.4 Q 904.5 104.3, 902.1 107.1 Q 899.6 109.9, 895.2 109.9 Q 890.7 109.9, 888.3 107.1 Q 885.9 104.3, 885.9 99.4 M 895.2 107.6 Q 898.3 107.6, 899.9 105.5 Q 901.6 103.4, 901.6 99.4 Q 901.6 95.4, 899.9 93.4 Q 898.3 91.3, 895.2 91.3 Q 892.1 91.3, 890.4 93.3 Q 888.7 95.3, 888.7 99.4 Q 888.7 103.4, 890.4 105.5 Q 892.1 107.6, 895.2 107.6 " fill="#FF0000"/>
<path class="atom-18" d="M 904.4 222.0 Q 904.4 217.1, 906.8 214.4 Q 909.2 211.7, 913.7 211.7 Q 918.2 211.7, 920.6 214.4 Q 923.0 217.1, 923.0 222.0 Q 923.0 226.9, 920.6 229.7 Q 918.1 232.5, 913.7 232.5 Q 909.2 232.5, 906.8 229.7 Q 904.4 226.9, 904.4 222.0 M 913.7 230.2 Q 916.8 230.2, 918.5 228.1 Q 920.2 226.1, 920.2 222.0 Q 920.2 218.0, 918.5 216.0 Q 916.8 214.0, 913.7 214.0 Q 910.6 214.0, 908.9 216.0 Q 907.3 218.0, 907.3 222.0 Q 907.3 226.1, 908.9 228.1 Q 910.6 230.2, 913.7 230.2 " fill="#FF0000"/>
<path class="atom-18" d="M 926.2 211.9 L 928.9 211.9 L 928.9 220.5 L 939.3 220.5 L 939.3 211.9 L 942.0 211.9 L 942.0 232.2 L 939.3 232.2 L 939.3 222.8 L 928.9 222.8 L 928.9 232.2 L 926.2 232.2 L 926.2 211.9 " fill="#FF0000"/>
<path class="atom-20" d="M 696.8 243.9 L 703.5 254.6 Q 704.1 255.7, 705.2 257.6 Q 706.2 259.5, 706.3 259.6 L 706.3 243.9 L 709.0 243.9 L 709.0 264.2 L 706.2 264.2 L 699.1 252.4 Q 698.2 251.0, 697.4 249.5 Q 696.5 247.9, 696.2 247.4 L 696.2 264.2 L 693.6 264.2 L 693.6 243.9 L 696.8 243.9 " fill="#0000FF"/>
<path class="atom-23" d="M 550.4 275.5 Q 550.4 270.6, 552.8 267.9 Q 555.2 265.2, 559.7 265.2 Q 564.2 265.2, 566.6 267.9 Q 569.0 270.6, 569.0 275.5 Q 569.0 280.4, 566.6 283.2 Q 564.1 286.0, 559.7 286.0 Q 555.2 286.0, 552.8 283.2 Q 550.4 280.4, 550.4 275.5 M 559.7 283.7 Q 562.8 283.7, 564.4 281.6 Q 566.1 279.5, 566.1 275.5 Q 566.1 271.5, 564.4 269.5 Q 562.8 267.4, 559.7 267.4 Q 556.6 267.4, 554.9 269.4 Q 553.3 271.5, 553.3 275.5 Q 553.3 279.6, 554.9 281.6 Q 556.6 283.7, 559.7 283.7 " fill="#FF0000"/>
<path class="bond-0 atom-0 atom-1" d="M 486.1,576.0 L 510.9,568.3" style="fill:none;fill-rule:evenodd;stroke:#191919;stroke-width:2.0px;stroke-linecap:butt;stroke-linejoin:miter;stroke-opacity:1"/>
<path class="bond-0 atom-0 atom-1" d="M 510.9,568.3 L 535.7,560.5" style="fill:none;fill-rule:evenodd;stroke:#FF0000;stroke-width:2.0px;stroke-linecap:butt;stroke-linejoin:miter;stroke-opacity:1"/>
<path class="bond-1 atom-1 atom-2" d="M 559.0,567.6 L 579.5,586.5" style="fill:none;fill-rule:evenodd;stroke:#FF0000;stroke-width:2.0px;stroke-linecap:butt;stroke-linejoin:miter;stroke-opacity:1"/>
<path class="bond-1 atom-1 atom-2" d="M 579.5,586.5 L 600.0,605.4" style="fill:none;fill-rule:evenodd;stroke:#000000;stroke-width:2.0px;stroke-linecap:butt;stroke-linejoin:miter;stroke-opacity:1"/>
<path class="bond-2 atom-2 atom-3" d="M 595.4,601.2 L 588.7,631.3" style="fill:none;fill-rule:evenodd;stroke:#000000;stroke-width:2.0px;stroke-linecap:butt;stroke-linejoin:miter;stroke-opacity:1"/>
<path class="bond-2 atom-2 atom-3" d="M 588.7,631.3 L 581.9,661.5" style="fill:none;fill-rule:evenodd;stroke:#FF0000;stroke-width:2.0px;stroke-linecap:butt;stroke-linejoin:miter;stroke-opacity:1"/>
<path class="bond-2 atom-2 atom-3" d="M 605.9,603.5 L 599.2,633.7" style="fill:none;fill-rule:evenodd;stroke:#000000;stroke-width:2.0px;stroke-linecap:butt;stroke-linejoin:miter;stroke-opacity:1"/>
<path class="bond-2 atom-2 atom-3" d="M 599.2,633.7 L 592.4,663.8" style="fill:none;fill-rule:evenodd;stroke:#FF0000;stroke-width:2.0px;stroke-linecap:butt;stroke-linejoin:miter;stroke-opacity:1"/>
<path class="bond-3 atom-2 atom-4" d="M 600.0,605.4 L 668.3,584.0" style="fill:none;fill-rule:evenodd;stroke:#000000;stroke-width:2.0px;stroke-linecap:butt;stroke-linejoin:miter;stroke-opacity:1"/>
<path class="bond-4 atom-4 atom-5" d="M 668.3,584.0 L 691.1,605.0" style="fill:none;fill-rule:evenodd;stroke:#000000;stroke-width:2.0px;stroke-linecap:butt;stroke-linejoin:miter;stroke-opacity:1"/>
<path class="bond-4 atom-4 atom-5" d="M 691.1,605.0 L 713.9,625.9" style="fill:none;fill-rule:evenodd;stroke:#191919;stroke-width:2.0px;stroke-linecap:butt;stroke-linejoin:miter;stroke-opacity:1"/>
<path class="bond-5 atom-4 atom-6" d="M 668.3,584.0 L 684.0,514.2" style="fill:none;fill-rule:evenodd;stroke:#000000;stroke-width:2.0px;stroke-linecap:butt;stroke-linejoin:miter;stroke-opacity:1"/>
<path d="M 599.0,604.5 L 600.0,605.4 L 603.4,604.3" style="fill:none;stroke:#000000;stroke-width:2.0px;stroke-linecap:butt;stroke-linejoin:miter;stroke-opacity:1;"/>
<path class="atom-0" d="M 475.2 576.0 L 478.1 573.0 L 474.2 572.2 L 474.8 570.1 L 478.4 572.0 L 477.9 568.0 L 480.1 567.9 L 479.5 571.9 L 483.1 570.2 L 483.8 572.2 L 479.8 572.9 L 482.6 576.0 L 480.9 577.2 L 478.9 573.4 L 476.9 577.2 L 475.2 576.0 " fill="#191919"/>
<path class="atom-1" d="M 538.0 556.9 Q 538.0 552.1, 540.4 549.4 Q 542.8 546.6, 547.3 546.6 Q 551.8 546.6, 554.2 549.4 Q 556.6 552.1, 556.6 556.9 Q 556.6 561.9, 554.2 564.7 Q 551.8 567.5, 547.3 567.5 Q 542.9 567.5, 540.4 564.7 Q 538.0 561.9, 538.0 556.9 M 547.3 565.2 Q 550.4 565.2, 552.1 563.1 Q 553.8 561.0, 553.8 556.9 Q 553.8 553.0, 552.1 551.0 Q 550.4 548.9, 547.3 548.9 Q 544.2 548.9, 542.5 550.9 Q 540.9 552.9, 540.9 556.9 Q 540.9 561.0, 542.5 563.1 Q 544.2 565.2, 547.3 565.2 " fill="#FF0000"/>
<path class="atom-3" d="M 575.0 675.3 Q 575.0 670.5, 577.4 667.7 Q 579.8 665.0, 584.3 665.0 Q 588.8 665.0, 591.2 667.7 Q 593.6 670.5, 593.6 675.3 Q 593.6 680.3, 591.2 683.1 Q 588.8 685.8, 584.3 685.8 Q 579.9 685.8, 577.4 683.1 Q 575.0 680.3, 575.0 675.3 M 584.3 683.5 Q 587.4 683.5, 589.1 681.5 Q 590.8 679.4, 590.8 675.3 Q 590.8 671.3, 589.1 669.3 Q 587.4 667.3, 584.3 667.3 Q 581.2 667.3, 579.5 669.3 Q 577.9 671.3, 577.9 675.3 Q 577.9 679.4, 579.5 681.5 Q 581.2 683.5, 584.3 683.5 " fill="#FF0000"/>
<path class="atom-5" d="M 717.2 630.3 L 720.2 627.2 L 716.2 626.4 L 716.8 624.4 L 720.5 626.2 L 719.9 622.3 L 722.1 622.2 L 721.5 626.2 L 725.2 624.5 L 725.8 626.4 L 721.8 627.2 L 724.7 630.3 L 722.9 631.5 L 720.9 627.7 L 718.9 631.5 L 717.2 630.3 " fill="#191919"/>
<path class="bond-0 atom-0 atom-1" d="M 483.1,977.8 L 510.6,962.0" style="fill:none;fill-rule:evenodd;stroke:#191919;stroke-width:2.0px;stroke-linecap:butt;stroke-linejoin:miter;stroke-opacity:1"/>
<path class="bond-0 atom-0 atom-1" d="M 510.6,962.0 L 538.0,946.1" style="fill:none;fill-rule:evenodd;stroke:#000000;stroke-width:2.0px;stroke-linecap:butt;stroke-linejoin:miter;stroke-opacity:1"/>
<path class="bond-1 atom-1 atom-2" d="M 538.0,946.1 L 600.0,981.9" style="fill:none;fill-rule:evenodd;stroke:#000000;stroke-width:2.0px;stroke-linecap:butt;stroke-linejoin:miter;stroke-opacity:1"/>
<path class="bond-2 atom-2 atom-3" d="M 594.6,978.8 L 594.6,1009.9" style="fill:none;fill-rule:evenodd;stroke:#000000;stroke-width:2.0px;stroke-linecap:butt;stroke-linejoin:miter;stroke-opacity:1"/>
<path class="bond-2 atom-2 atom-3" d="M 594.6,1009.9 L 594.6,1040.9" style="fill:none;fill-rule:evenodd;stroke:#FF0000;stroke-width:2.0px;stroke-linecap:butt;stroke-linejoin:miter;stroke-opacity:1"/>
<path class="bond-2 atom-2 atom-3" d="M 605.4,978.8 L 605.4,1009.9" style="fill:none;fill-rule:evenodd;stroke:#000000;stroke-width:2.0px;stroke-linecap:butt;stroke-linejoin:miter;stroke-opacity:1"/>
<path class="bond-2 atom-2 atom-3" d="M 605.4,1009.9 L 605.4,1040.9" style="fill:none;fill-rule:evenodd;stroke:#FF0000;stroke-width:2.0px;stroke-linecap:butt;stroke-linejoin:miter;stroke-opacity:1"/>
<path class="bond-3 atom-2 atom-4" d="M 600.0,981.9 L 625.2,967.4" style="fill:none;fill-rule:evenodd;stroke:#000000;stroke-width:2.0px;stroke-linecap:butt;stroke-linejoin:miter;stroke-opacity:1"/>
<path class="bond-3 atom-2 atom-4" d="M 625.2,967.4 L 650.3,952.9" style="fill:none;fill-rule:evenodd;stroke:#FF0000;stroke-width:2.0px;stroke-linecap:butt;stroke-linejoin:miter;stroke-opacity:1"/>
<path class="bond-4 atom-4 atom-5" d="M 673.7,952.9 L 695.3,965.3" style="fill:none;fill-rule:evenodd;stroke:#FF0000;stroke-width:2.0px;stroke-linecap:butt;stroke-linejoin:miter;stroke-opacity:1"/>
<path class="bond-4 atom-4 atom-5" d="M 695.3,965.3 L 716.9,977.8" style="fill:none;fill-rule:evenodd;stroke:#191919;stroke-width:2.0px;stroke-linecap:butt;stroke-linejoin:miter;stroke-opacity:1"/>
<path d="M 536.6,946.9 L 538.0,946.1 L 541.1,947.9" style="fill:none;stroke:#000000;stroke-width:2.0px;stroke-linecap:butt;stroke-linejoin:miter;stroke-opacity:1;"/>
<path d="M 596.9,980.2 L 600.0,981.9 L 601.3,981.2" style="fill:none;stroke:#000000;stroke-width:2.0px;stroke-linecap:butt;stroke-linejoin:miter;stroke-opacity:1;"/>
<path class="atom-0" d="M 472.2 979.7 L 475.1 976.6 L 471.2 975.8 L 471.8 973.8 L 475.4 975.6 L 474.9 971.7 L 477.0 971.6 L 476.4 975.6 L 480.1 973.9 L 480.8 975.8 L 476.8 976.6 L 479.6 979.6 L 477.9 980.9 L 475.9 977.1 L 473.9 980.9 L 472.2 979.7 " fill="#191919"/>
<path class="atom-3" d="M 590.7 1053.6 Q 590.7 1048.7, 593.1 1046.0 Q 595.5 1043.3, 600.0 1043.3 Q 604.5 1043.3, 606.9 1046.0 Q 609.3 1048.7, 609.3 1053.6 Q 609.3 1058.5, 606.9 1061.3 Q 604.4 1064.1, 600.0 1064.1 Q 595.5 1064.1, 593.1 1061.3 Q 590.7 1058.6, 590.7 1053.6 M 600.0 1061.8 Q 603.1 1061.8, 604.8 1059.8 Q 606.4 1057.7, 606.4 1053.6 Q 606.4 1049.6, 604.8 1047.6 Q 603.1 1045.6, 600.0 1045.6 Q 596.9 1045.6, 595.2 1047.6 Q 593.6 1049.6, 593.6 1053.6 Q 593.6 1057.7, 595.2 1059.8 Q 596.9 1061.8, 600.0 1061.8 " fill="#FF0000"/>
<path class="atom-4" d="M 652.7 946.2 Q 652.7 941.3, 655.1 938.6 Q 657.5 935.9, 662.0 935.9 Q 666.5 935.9, 668.9 938.6 Q 671.3 941.3, 671.3 946.2 Q 671.3 951.1, 668.9 953.9 Q 666.5 956.7, 662.0 956.7 Q 657.5 956.7, 655.1 953.9 Q 652.7 951.2, 652.7 946.2 M 662.0 954.4 Q 665.1 954.4, 666.8 952.4 Q 668.5 950.3, 668.5 946.2 Q 668.5 942.2, 666.8 940.2 Q 665.1 938.2, 662.0 938.2 Q 658.9 938.2, 657.2 940.2 Q 655.6 942.2, 655.6 946.2 Q 655.6 950.3, 657.2 952.4 Q 658.9 954.4, 662.0 954.4 " fill="#FF0000"/>
<path class="atom-5" d="M 720.2 979.7 L 723.2 976.6 L 719.2 975.8 L 719.8 973.8 L 723.5 975.6 L 723.0 971.7 L 725.1 971.6 L 724.5 975.6 L 728.2 973.9 L 728.8 975.8 L 724.8 976.6 L 727.7 979.6 L 725.9 980.9 L 724.0 977.1 L 721.9 980.9 L 720.2 979.7 " fill="#191919"/>
</svg>