<svg xmlns="http://www.w3.org/2000/svg" xmlns:rdkit="http://www.rdkit.org/xml" xmlns:xlink="http://www.w3.org/1999/xlink" version="1.1" baseProfile="full" xml:space="preserve" width="1200px" height="800px" viewBox="0 0 1200 800">
<!-- END OF HEADER -->
<rect style="opacity:1.0;fill:#FFFFFF;stroke:none" width="1200.0" height="800.0" x="0.0" y="0.0"> </rect>
<path class="bond-0 atom-0 atom-1" d="M 253.9,72.8 L 311.6,86.6" style="fill:none;fill-rule:evenodd;stroke:#191919;stroke-width:2.0px;stroke-linecap:butt;stroke-linejoin:miter;stroke-opacity:1"/>
<path class="bond-0 atom-0 atom-1" d="M 311.6,86.6 L 369.2,100.4" style="fill:none;fill-rule:evenodd;stroke:#000000;stroke-width:2.0px;stroke-linecap:butt;stroke-linejoin:miter;stroke-opacity:1"/>
<path class="bond-1 atom-1 atom-2" d="M 369.2,100.4 L 406.3,224.9" style="fill:none;fill-rule:evenodd;stroke:#000000;stroke-width:2.0px;stroke-linecap:butt;stroke-linejoin:miter;stroke-opacity:1"/>
<path class="bond-2 atom-2 atom-3" d="M 406.3,224.9 L 461.9,238.2" style="fill:none;fill-rule:evenodd;stroke:#000000;stroke-width:2.0px;stroke-linecap:butt;stroke-linejoin:miter;stroke-opacity:1"/>
<path class="bond-2 atom-2 atom-3" d="M 461.9,238.2 L 517.6,251.4" style="fill:none;fill-rule:evenodd;stroke:#0000FF;stroke-width:2.0px;stroke-linecap:butt;stroke-linejoin:miter;stroke-opacity:1"/>
<path class="bond-3 atom-3 atom-4" d="M 538.1,273.5 L 551.1,317.2" style="fill:none;fill-rule:evenodd;stroke:#0000FF;stroke-width:2.0px;stroke-linecap:butt;stroke-linejoin:miter;stroke-opacity:1"/>
<path class="bond-3 atom-3 atom-4" d="M 551.1,317.2 L 564.0,360.8" style="fill:none;fill-rule:evenodd;stroke:#191919;stroke-width:2.0px;stroke-linecap:butt;stroke-linejoin:miter;stroke-opacity:1"/>
<path class="bond-4 atom-3 atom-5" d="M 547.6,239.2 L 584.7,199.9" style="fill:none;fill-rule:evenodd;stroke:#0000FF;stroke-width:2.0px;stroke-linecap:butt;stroke-linejoin:miter;stroke-opacity:1"/>
<path class="bond-4 atom-3 atom-5" d="M 584.7,199.9 L 621.9,160.7" style="fill:none;fill-rule:evenodd;stroke:#000000;stroke-width:2.0px;stroke-linecap:butt;stroke-linejoin:miter;stroke-opacity:1"/>
<path class="bond-5 atom-5 atom-6" d="M 632.8,163.3 L 616.3,107.9" style="fill:none;fill-rule:evenodd;stroke:#000000;stroke-width:2.0px;stroke-linecap:butt;stroke-linejoin:miter;stroke-opacity:1"/>
<path class="bond-5 atom-5 atom-6" d="M 616.3,107.9 L 599.8,52.5" style="fill:none;fill-rule:evenodd;stroke:#FF0000;stroke-width:2.0px;stroke-linecap:butt;stroke-linejoin:miter;stroke-opacity:1"/>
<path class="bond-5 atom-5 atom-6" d="M 614.1,168.9 L 597.6,113.5" style="fill:none;fill-rule:evenodd;stroke:#000000;stroke-width:2.0px;stroke-linecap:butt;stroke-linejoin:miter;stroke-opacity:1"/>
<path class="bond-5 atom-5 atom-6" d="M 597.6,113.5 L 581.2,58.1" style="fill:none;fill-rule:evenodd;stroke:#FF0000;stroke-width:2.0px;stroke-linecap:butt;stroke-linejoin:miter;stroke-opacity:1"/>
<path class="bond-6 atom-5 atom-7" d="M 621.9,160.7 L 748.2,190.9" style="fill:none;fill-rule:evenodd;stroke:#000000;stroke-width:2.0px;stroke-linecap:butt;stroke-linejoin:miter;stroke-opacity:1"/>
<path class="bond-7 atom-7 atom-8" d="M 748.2,190.9 L 837.5,96.6" style="fill:none;fill-rule:evenodd;stroke:#000000;stroke-width:2.0px;stroke-linecap:butt;stroke-linejoin:miter;stroke-opacity:1"/>
<path class="bond-8 atom-8 atom-9" d="M 837.5,96.6 L 963.8,126.8" style="fill:none;fill-rule:evenodd;stroke:#000000;stroke-width:2.0px;stroke-linecap:butt;stroke-linejoin:miter;stroke-opacity:1"/>
<path d="M 366.3,99.7 L 369.2,100.4 L 371.1,106.6" style="fill:none;stroke:#000000;stroke-width:2.0px;stroke-linecap:butt;stroke-linejoin:miter;stroke-opacity:1;"/>
<path d="M 404.4,218.6 L 406.3,224.9 L 409.0,225.5" style="fill:none;stroke:#000000;stroke-width:2.0px;stroke-linecap:butt;stroke-linejoin:miter;stroke-opacity:1;"/>
<path d="M 620.0,162.7 L 621.9,160.7 L 628.2,162.2" style="fill:none;stroke:#000000;stroke-width:2.0px;stroke-linecap:butt;stroke-linejoin:miter;stroke-opacity:1;"/>
<path d="M 741.9,189.4 L 748.2,190.9 L 752.6,186.2" style="fill:none;stroke:#000000;stroke-width:2.0px;stroke-linecap:butt;stroke-linejoin:miter;stroke-opacity:1;"/>
<path d="M 833.0,101.3 L 837.5,96.6 L 843.8,98.1" style="fill:none;stroke:#000000;stroke-width:2.0px;stroke-linecap:butt;stroke-linejoin:miter;stroke-opacity:1;"/>
<path class="atom-0" d="M 237.6 67.1 L 241.7 62.8 L 236.2 61.7 L 237.0 58.9 L 242.1 61.4 L 241.4 55.9 L 244.4 55.8 L 243.6 61.4 L 248.7 59.0 L 249.6 61.7 L 244.0 62.7 L 248.0 67.0 L 245.6 68.8 L 242.8 63.5 L 240.0 68.8 L 237.6 67.1 " fill="#191919"/>
<path class="atom-3" d="M 526.3 240.9 L 535.6 255.9 Q 536.5 257.4, 538.0 260.0 Q 539.5 262.7, 539.6 262.9 L 539.6 240.9 L 543.3 240.9 L 543.3 269.2 L 539.4 269.2 L 529.5 252.8 Q 528.3 250.9, 527.1 248.7 Q 525.9 246.5, 525.5 245.8 L 525.5 269.2 L 521.8 269.2 L 521.8 240.9 L 526.3 240.9 " fill="#0000FF"/>
<path class="atom-4" d="M 564.3 376.4 L 568.4 372.1 L 562.9 371.0 L 563.7 368.2 L 568.8 370.7 L 568.1 365.2 L 571.1 365.1 L 570.3 370.7 L 575.4 368.3 L 576.3 371.0 L 570.7 372.0 L 574.7 376.3 L 572.3 378.1 L 569.5 372.8 L 566.7 378.1 L 564.3 376.4 " fill="#191919"/>
<path class="atom-6" d="M 571.8 36.3 Q 571.8 29.5, 575.2 25.7 Q 578.6 21.9, 584.8 21.9 Q 591.1 21.9, 594.5 25.7 Q 597.8 29.5, 597.8 36.3 Q 597.8 43.2, 594.4 47.1 Q 591.0 51.0, 584.8 51.0 Q 578.6 51.0, 575.2 47.1 Q 571.8 43.2, 571.8 36.3 M 584.8 47.8 Q 589.2 47.8, 591.5 44.9 Q 593.8 42.0, 593.8 36.3 Q 593.8 30.8, 591.5 28.0 Q 589.2 25.1, 584.8 25.1 Q 580.5 25.1, 578.2 27.9 Q 575.8 30.7, 575.8 36.3 Q 575.8 42.0, 578.2 44.9 Q 580.5 47.8, 584.8 47.8 " fill="#FF0000"/>
<path class="bond-0 atom-0 atom-1" d="M 414.7,607.1 L 461.5,587.3" style="fill:none;fill-rule:evenodd;stroke:#191919;stroke-width:2.0px;stroke-linecap:butt;stroke-linejoin:miter;stroke-opacity:1"/>
<path class="bond-0 atom-0 atom-1" d="M 461.5,587.3 L 508.2,567.4" style="fill:none;fill-rule:evenodd;stroke:#0000FF;stroke-width:2.0px;stroke-linecap:butt;stroke-linejoin:miter;stroke-opacity:1"/>
<path class="bond-1 atom-1 atom-2" d="M 538.3,572.3 L 612.0,627.7" style="fill:none;fill-rule:evenodd;stroke:#0000FF;stroke-width:2.0px;stroke-linecap:butt;stroke-linejoin:miter;stroke-opacity:1"/>
<path class="bond-2 atom-2 atom-3" d="M 642.1,632.6 L 731.5,594.6" style="fill:none;fill-rule:evenodd;stroke:#0000FF;stroke-width:2.0px;stroke-linecap:butt;stroke-linejoin:miter;stroke-opacity:1"/>
<path class="atom-0" d="M 398.4 608.7 L 402.6 604.4 L 397.1 603.3 L 397.9 600.5 L 403.0 603.0 L 402.3 597.5 L 405.3 597.4 L 404.4 603.0 L 409.6 600.6 L 410.5 603.3 L 404.9 604.3 L 408.9 608.6 L 406.4 610.4 L 403.7 605.1 L 400.9 610.4 L 398.4 608.7 " fill="#191919"/>
<path class="atom-1" d="M 517.0 546.8 L 526.3 561.8 Q 527.2 563.3, 528.7 566.0 Q 530.2 568.6, 530.2 568.8 L 530.2 546.8 L 534.0 546.8 L 534.0 575.1 L 530.1 575.1 L 520.2 558.7 Q 519.0 556.8, 517.8 554.6 Q 516.6 552.4, 516.2 551.7 L 516.2 575.1 L 512.5 575.1 L 512.5 546.8 L 517.0 546.8 " fill="#0000FF"/>
<path class="atom-1" d="M 512.2 515.7 L 516.0 515.7 L 516.0 527.7 L 530.5 527.7 L 530.5 515.7 L 534.3 515.7 L 534.3 544.0 L 530.5 544.0 L 530.5 530.9 L 516.0 530.9 L 516.0 544.0 L 512.2 544.0 L 512.2 515.7 " fill="#0000FF"/>
<path class="atom-2" d="M 620.8 624.9 L 630.1 639.9 Q 631.0 641.4, 632.5 644.0 Q 633.9 646.7, 634.0 646.9 L 634.0 624.9 L 637.8 624.9 L 637.8 653.2 L 633.9 653.2 L 623.9 636.8 Q 622.8 634.9, 621.5 632.7 Q 620.3 630.5, 620.0 629.8 L 620.0 653.2 L 616.3 653.2 L 616.3 624.9 L 620.8 624.9 " fill="#0000FF"/>
<path class="atom-2" d="M 616.0 656.0 L 619.8 656.0 L 619.8 668.1 L 634.3 668.1 L 634.3 656.0 L 638.1 656.0 L 638.1 684.3 L 634.3 684.3 L 634.3 671.3 L 619.8 671.3 L 619.8 684.3 L 616.0 684.3 L 616.0 656.0 " fill="#0000FF"/>
<path class="atom-3" d="M 740.3 574.0 L 749.6 589.0 Q 750.5 590.5, 752.0 593.2 Q 753.5 595.9, 753.5 596.0 L 753.5 574.0 L 757.3 574.0 L 757.3 602.3 L 753.4 602.3 L 743.5 585.9 Q 742.3 584.0, 741.1 581.8 Q 739.9 579.6, 739.5 578.9 L 739.5 602.3 L 735.8 602.3 L 735.8 574.0 L 740.3 574.0 " fill="#0000FF"/>
<path class="atom-3" d="M 762.7 574.0 L 766.5 574.0 L 766.5 586.1 L 781.0 586.1 L 781.0 574.0 L 784.9 574.0 L 784.9 602.3 L 781.0 602.3 L 781.0 589.3 L 766.5 589.3 L 766.5 602.3 L 762.7 602.3 L 762.7 574.0 " fill="#0000FF"/>
<path class="atom-3" d="M 790.4 601.3 Q 791.1 599.6, 792.7 598.6 Q 794.4 597.6, 796.6 597.6 Q 799.5 597.6, 801.0 599.1 Q 802.6 600.7, 802.6 603.4 Q 802.6 606.2, 800.6 608.7 Q 798.5 611.3, 794.3 614.4 L 802.9 614.4 L 802.9 616.5 L 790.4 616.5 L 790.4 614.7 Q 793.8 612.3, 795.9 610.4 Q 798.0 608.6, 799.0 606.9 Q 800.0 605.2, 800.0 603.5 Q 800.0 601.7, 799.1 600.7 Q 798.2 599.7, 796.6 599.7 Q 795.1 599.7, 794.1 600.3 Q 793.1 600.9, 792.4 602.3 L 790.4 601.3 " fill="#0000FF"/>
</svg>