<svg xmlns="http://www.w3.org/2000/svg" xmlns:rdkit="http://www.rdkit.org/xml" xmlns:xlink="http://www.w3.org/1999/xlink" version="1.1" baseProfile="full" xml:space="preserve" width="1200px" height="800px" viewBox="0 0 1200 800">
<!-- END OF HEADER -->
<rect style="opacity:1.0;fill:#FFFFFF;stroke:none" width="1200.0" height="800.0" x="0.0" y="0.0"> </rect>
<path class="bond-0 atom-0 atom-1" d="M 871.3,49.2 L 848.8,120.4" style="fill:none;fill-rule:evenodd;stroke:#191919;stroke-width:2.0px;stroke-linecap:butt;stroke-linejoin:miter;stroke-opacity:1"/>
<path class="bond-0 atom-0 atom-1" d="M 848.8,120.4 L 826.2,191.5" style="fill:none;fill-rule:evenodd;stroke:#000000;stroke-width:2.0px;stroke-linecap:butt;stroke-linejoin:miter;stroke-opacity:1"/>
<path class="bond-1 atom-1 atom-2" d="M 826.2,191.5 L 676.7,224.4" style="fill:none;fill-rule:evenodd;stroke:#000000;stroke-width:2.0px;stroke-linecap:butt;stroke-linejoin:miter;stroke-opacity:1"/>
<path class="bond-2 atom-2 atom-3" d="M 676.7,224.4 L 656.6,287.6" style="fill:none;fill-rule:evenodd;stroke:#000000;stroke-width:2.0px;stroke-linecap:butt;stroke-linejoin:miter;stroke-opacity:1"/>
<path class="bond-2 atom-2 atom-3" d="M 656.6,287.6 L 636.6,350.8" style="fill:none;fill-rule:evenodd;stroke:#191919;stroke-width:2.0px;stroke-linecap:butt;stroke-linejoin:miter;stroke-opacity:1"/>
<path class="bond-3 atom-2 atom-4" d="M 676.7,224.4 L 634.1,177.8" style="fill:none;fill-rule:evenodd;stroke:#000000;stroke-width:2.0px;stroke-linecap:butt;stroke-linejoin:miter;stroke-opacity:1"/>
<path class="bond-3 atom-2 atom-4" d="M 634.1,177.8 L 591.6,131.1" style="fill:none;fill-rule:evenodd;stroke:#FF0000;stroke-width:2.0px;stroke-linecap:butt;stroke-linejoin:miter;stroke-opacity:1"/>
<path class="bond-4 atom-4 atom-5" d="M 555.5,115.3 L 489.7,129.8" style="fill:none;fill-rule:evenodd;stroke:#FF0000;stroke-width:2.0px;stroke-linecap:butt;stroke-linejoin:miter;stroke-opacity:1"/>
<path class="bond-4 atom-4 atom-5" d="M 489.7,129.8 L 424.0,144.2" style="fill:none;fill-rule:evenodd;stroke:#000000;stroke-width:2.0px;stroke-linecap:butt;stroke-linejoin:miter;stroke-opacity:1"/>
<path class="bond-5 atom-5 atom-6" d="M 424.0,144.2 L 320.8,31.2" style="fill:none;fill-rule:evenodd;stroke:#000000;stroke-width:2.0px;stroke-linecap:butt;stroke-linejoin:miter;stroke-opacity:1"/>
<path class="bond-6 atom-5 atom-7" d="M 415.1,134.4 L 394.0,200.8" style="fill:none;fill-rule:evenodd;stroke:#000000;stroke-width:2.0px;stroke-linecap:butt;stroke-linejoin:miter;stroke-opacity:1"/>
<path class="bond-6 atom-5 atom-7" d="M 394.0,200.8 L 372.9,267.2" style="fill:none;fill-rule:evenodd;stroke:#FF0000;stroke-width:2.0px;stroke-linecap:butt;stroke-linejoin:miter;stroke-opacity:1"/>
<path class="bond-6 atom-5 atom-7" d="M 437.0,141.4 L 415.9,207.8" style="fill:none;fill-rule:evenodd;stroke:#000000;stroke-width:2.0px;stroke-linecap:butt;stroke-linejoin:miter;stroke-opacity:1"/>
<path class="bond-6 atom-5 atom-7" d="M 415.9,207.8 L 394.8,274.2" style="fill:none;fill-rule:evenodd;stroke:#FF0000;stroke-width:2.0px;stroke-linecap:butt;stroke-linejoin:miter;stroke-opacity:1"/>
<path d="M 827.3,188.0 L 826.2,191.5 L 818.7,193.2" style="fill:none;stroke:#000000;stroke-width:2.0px;stroke-linecap:butt;stroke-linejoin:miter;stroke-opacity:1;"/>
<path d="M 427.3,143.5 L 424.0,144.2 L 418.9,138.6" style="fill:none;stroke:#000000;stroke-width:2.0px;stroke-linecap:butt;stroke-linejoin:miter;stroke-opacity:1;"/>
<path class="atom-0" d="M 867.1 42.5 L 871.3 38.2 L 865.8 37.1 L 866.6 34.3 L 871.7 36.8 L 871.0 31.3 L 874.0 31.2 L 873.1 36.8 L 878.3 34.4 L 879.2 37.1 L 873.6 38.2 L 877.6 42.4 L 875.1 44.2 L 872.4 38.9 L 869.6 44.2 L 867.1 42.5 " fill="#191919"/>
<path class="atom-3" d="M 625.1 367.1 L 629.2 362.9 L 623.7 361.7 L 624.6 358.9 L 629.6 361.5 L 628.9 355.9 L 631.9 355.9 L 631.1 361.4 L 636.2 359.0 L 637.1 361.7 L 631.5 362.8 L 635.5 367.1 L 633.1 368.8 L 630.3 363.5 L 627.5 368.8 L 625.1 367.1 " fill="#191919"/>
<path class="atom-4" d="M 560.5 111.4 Q 560.5 104.6, 563.9 100.8 Q 567.2 97.0, 573.5 97.0 Q 579.8 97.0, 583.1 100.8 Q 586.5 104.6, 586.5 111.4 Q 586.5 118.3, 583.1 122.2 Q 579.7 126.1, 573.5 126.1 Q 567.3 126.1, 563.9 122.2 Q 560.5 118.3, 560.5 111.4 M 573.5 122.9 Q 577.8 122.9, 580.1 120.0 Q 582.5 117.1, 582.5 111.4 Q 582.5 105.9, 580.1 103.1 Q 577.8 100.2, 573.5 100.2 Q 569.2 100.2, 566.8 103.0 Q 564.5 105.8, 564.5 111.4 Q 564.5 117.1, 566.8 120.0 Q 569.2 122.9, 573.5 122.9 " fill="#FF0000"/>
<path class="atom-7" d="M 364.7 290.2 Q 364.7 283.4, 368.1 279.6 Q 371.4 275.8, 377.7 275.8 Q 384.0 275.8, 387.4 279.6 Q 390.7 283.4, 390.7 290.2 Q 390.7 297.1, 387.3 301.0 Q 383.9 304.9, 377.7 304.9 Q 371.5 304.9, 368.1 301.0 Q 364.7 297.1, 364.7 290.2 M 377.7 301.7 Q 382.0 301.7, 384.4 298.8 Q 386.7 295.9, 386.7 290.2 Q 386.7 284.6, 384.4 281.8 Q 382.0 279.0, 377.7 279.0 Q 373.4 279.0, 371.0 281.8 Q 368.7 284.6, 368.7 290.2 Q 368.7 295.9, 371.0 298.8 Q 373.4 301.7, 377.7 301.7 " fill="#FF0000"/>
<path class="bond-0 atom-0 atom-1" d="M 1124.1,611.4 L 1062.3,650.5" style="fill:none;fill-rule:evenodd;stroke:#191919;stroke-width:2.0px;stroke-linecap:butt;stroke-linejoin:miter;stroke-opacity:1"/>
<path class="bond-0 atom-0 atom-1" d="M 1062.3,650.5 L 1000.5,689.7" style="fill:none;fill-rule:evenodd;stroke:#000000;stroke-width:2.0px;stroke-linecap:butt;stroke-linejoin:miter;stroke-opacity:1"/>
<path class="bond-1 atom-1 atom-2" d="M 1000.5,689.7 L 864.9,618.8" style="fill:none;fill-rule:evenodd;stroke:#000000;stroke-width:2.0px;stroke-linecap:butt;stroke-linejoin:miter;stroke-opacity:1"/>
<path class="bond-2 atom-2 atom-3" d="M 864.9,618.8 L 735.6,700.7" style="fill:none;fill-rule:evenodd;stroke:#000000;stroke-width:2.0px;stroke-linecap:butt;stroke-linejoin:miter;stroke-opacity:1"/>
<path class="bond-3 atom-3 atom-4" d="M 735.6,700.7 L 600.0,629.8" style="fill:none;fill-rule:evenodd;stroke:#000000;stroke-width:2.0px;stroke-linecap:butt;stroke-linejoin:miter;stroke-opacity:1"/>
<path class="bond-4 atom-4 atom-5" d="M 600.0,629.8 L 544.4,665.0" style="fill:none;fill-rule:evenodd;stroke:#000000;stroke-width:2.0px;stroke-linecap:butt;stroke-linejoin:miter;stroke-opacity:1"/>
<path class="bond-4 atom-4 atom-5" d="M 544.4,665.0 L 488.8,700.3" style="fill:none;fill-rule:evenodd;stroke:#FF0000;stroke-width:2.0px;stroke-linecap:butt;stroke-linejoin:miter;stroke-opacity:1"/>
<path class="bond-5 atom-5 atom-6" d="M 452.7,702.3 L 393.9,671.5" style="fill:none;fill-rule:evenodd;stroke:#FF0000;stroke-width:2.0px;stroke-linecap:butt;stroke-linejoin:miter;stroke-opacity:1"/>
<path class="bond-5 atom-5 atom-6" d="M 393.9,671.5 L 335.1,640.8" style="fill:none;fill-rule:evenodd;stroke:#000000;stroke-width:2.0px;stroke-linecap:butt;stroke-linejoin:miter;stroke-opacity:1"/>
<path class="bond-6 atom-6 atom-7" d="M 346.9,646.9 L 344.0,577.0" style="fill:none;fill-rule:evenodd;stroke:#000000;stroke-width:2.0px;stroke-linecap:butt;stroke-linejoin:miter;stroke-opacity:1"/>
<path class="bond-6 atom-6 atom-7" d="M 344.0,577.0 L 341.1,507.2" style="fill:none;fill-rule:evenodd;stroke:#FF0000;stroke-width:2.0px;stroke-linecap:butt;stroke-linejoin:miter;stroke-opacity:1"/>
<path class="bond-6 atom-6 atom-7" d="M 323.9,647.9 L 321.0,578.0" style="fill:none;fill-rule:evenodd;stroke:#000000;stroke-width:2.0px;stroke-linecap:butt;stroke-linejoin:miter;stroke-opacity:1"/>
<path class="bond-6 atom-6 atom-7" d="M 321.0,578.0 L 318.1,508.1" style="fill:none;fill-rule:evenodd;stroke:#FF0000;stroke-width:2.0px;stroke-linecap:butt;stroke-linejoin:miter;stroke-opacity:1"/>
<path class="bond-7 atom-6 atom-8" d="M 335.1,640.8 L 205.9,722.7" style="fill:none;fill-rule:evenodd;stroke:#000000;stroke-width:2.0px;stroke-linecap:butt;stroke-linejoin:miter;stroke-opacity:1"/>
<path class="bond-8 atom-8 atom-9" d="M 205.9,722.7 L 141.5,689.0" style="fill:none;fill-rule:evenodd;stroke:#000000;stroke-width:2.0px;stroke-linecap:butt;stroke-linejoin:miter;stroke-opacity:1"/>
<path class="bond-8 atom-8 atom-9" d="M 141.5,689.0 L 77.2,655.4" style="fill:none;fill-rule:evenodd;stroke:#191919;stroke-width:2.0px;stroke-linecap:butt;stroke-linejoin:miter;stroke-opacity:1"/>
<path d="M 1003.6,687.8 L 1000.5,689.7 L 993.7,686.2" style="fill:none;stroke:#000000;stroke-width:2.0px;stroke-linecap:butt;stroke-linejoin:miter;stroke-opacity:1;"/>
<path d="M 871.7,622.3 L 864.9,618.8 L 858.4,622.9" style="fill:none;stroke:#000000;stroke-width:2.0px;stroke-linecap:butt;stroke-linejoin:miter;stroke-opacity:1;"/>
<path d="M 742.1,696.6 L 735.6,700.7 L 728.8,697.2" style="fill:none;stroke:#000000;stroke-width:2.0px;stroke-linecap:butt;stroke-linejoin:miter;stroke-opacity:1;"/>
<path d="M 606.8,633.3 L 600.0,629.8 L 597.2,631.5" style="fill:none;stroke:#000000;stroke-width:2.0px;stroke-linecap:butt;stroke-linejoin:miter;stroke-opacity:1;"/>
<path d="M 338.1,642.3 L 335.1,640.8 L 328.7,644.9" style="fill:none;stroke:#000000;stroke-width:2.0px;stroke-linecap:butt;stroke-linejoin:miter;stroke-opacity:1;"/>
<path d="M 212.3,718.6 L 205.9,722.7 L 202.6,721.0" style="fill:none;stroke:#000000;stroke-width:2.0px;stroke-linecap:butt;stroke-linejoin:miter;stroke-opacity:1;"/>
<path class="atom-0" d="M 1124.4 604.6 L 1128.6 600.4 L 1123.0 599.2 L 1123.9 596.4 L 1129.0 599.0 L 1128.2 593.4 L 1131.2 593.4 L 1130.4 598.9 L 1135.6 596.5 L 1136.4 599.2 L 1130.8 600.3 L 1134.8 604.6 L 1132.4 606.3 L 1129.6 601.0 L 1126.8 606.3 L 1124.4 604.6 " fill="#191919"/>
<path class="atom-5" d="M 457.7 711.8 Q 457.7 705.0, 461.1 701.2 Q 464.5 697.4, 470.7 697.4 Q 477.0 697.4, 480.4 701.2 Q 483.7 705.0, 483.7 711.8 Q 483.7 718.7, 480.3 722.6 Q 476.9 726.5, 470.7 726.5 Q 464.5 726.5, 461.1 722.6 Q 457.7 718.7, 457.7 711.8 M 470.7 723.3 Q 475.1 723.3, 477.4 720.4 Q 479.7 717.5, 479.7 711.8 Q 479.7 706.2, 477.4 703.4 Q 475.1 700.6, 470.7 700.6 Q 466.4 700.6, 464.1 703.4 Q 461.7 706.2, 461.7 711.8 Q 461.7 717.5, 464.1 720.4 Q 466.4 723.3, 470.7 723.3 " fill="#FF0000"/>
<path class="atom-7" d="M 315.8 487.9 Q 315.8 481.1, 319.1 477.3 Q 322.5 473.5, 328.8 473.5 Q 335.1 473.5, 338.4 477.3 Q 341.8 481.1, 341.8 487.9 Q 341.8 494.8, 338.4 498.7 Q 335.0 502.6, 328.8 502.6 Q 322.5 502.6, 319.1 498.7 Q 315.8 494.8, 315.8 487.9 M 328.8 499.4 Q 333.1 499.4, 335.4 496.5 Q 337.8 493.6, 337.8 487.9 Q 337.8 482.4, 335.4 479.6 Q 333.1 476.7, 328.8 476.7 Q 324.5 476.7, 322.1 479.5 Q 319.8 482.3, 319.8 487.9 Q 319.8 493.6, 322.1 496.5 Q 324.5 499.4, 328.8 499.4 " fill="#FF0000"/>
<path class="atom-9" d="M 64.9 648.6 L 69.1 644.4 L 63.6 643.2 L 64.4 640.4 L 69.5 643.0 L 68.8 637.4 L 71.8 637.4 L 70.9 642.9 L 76.1 640.5 L 77.0 643.2 L 71.4 644.3 L 75.4 648.6 L 72.9 650.3 L 70.2 645.0 L 67.4 650.3 L 64.9 648.6 " fill="#191919"/>
</svg>