<svg xmlns="http://www.w3.org/2000/svg" xmlns:rdkit="http://www.rdkit.org/xml" xmlns:xlink="http://www.w3.org/1999/xlink" version="1.1" baseProfile="full" xml:space="preserve" width="1200px" height="1200px" viewBox="0 0 1200 1200">
<!-- END OF HEADER -->
<rect style="opacity:1.0;fill:#FFFFFF;stroke:none" width="1200.0" height="1200.0" x="0.0" y="0.0"> </rect>
<path class="bond-0 atom-0 atom-1" d="M 902.1,69.3 L 865.9,133.8" style="fill:none;fill-rule:evenodd;stroke:#191919;stroke-width:2.0px;stroke-linecap:butt;stroke-linejoin:miter;stroke-opacity:1"/>
<path class="bond-0 atom-0 atom-1" d="M 865.9,133.8 L 829.6,198.3" style="fill:none;fill-rule:evenodd;stroke:#000000;stroke-width:2.0px;stroke-linecap:butt;stroke-linejoin:miter;stroke-opacity:1"/>
<path class="bond-1 atom-1 atom-2" d="M 829.6,198.3 L 677.5,200.0" style="fill:none;fill-rule:evenodd;stroke:#000000;stroke-width:2.0px;stroke-linecap:butt;stroke-linejoin:miter;stroke-opacity:1"/>
<path class="bond-2 atom-2 atom-3" d="M 677.5,200.0 L 675.8,47.9" style="fill:none;fill-rule:evenodd;stroke:#000000;stroke-width:2.0px;stroke-linecap:butt;stroke-linejoin:miter;stroke-opacity:1"/>
<path class="bond-3 atom-2 atom-4" d="M 677.5,200.0 L 679.2,352.1" style="fill:none;fill-rule:evenodd;stroke:#000000;stroke-width:2.0px;stroke-linecap:butt;stroke-linejoin:miter;stroke-opacity:1"/>
<path class="bond-4 atom-2 atom-5" d="M 677.5,200.0 L 525.4,201.7" style="fill:none;fill-rule:evenodd;stroke:#000000;stroke-width:2.0px;stroke-linecap:butt;stroke-linejoin:miter;stroke-opacity:1"/>
<path class="bond-5 atom-5 atom-6" d="M 518.7,190.4 L 485.3,249.9" style="fill:none;fill-rule:evenodd;stroke:#000000;stroke-width:2.0px;stroke-linecap:butt;stroke-linejoin:miter;stroke-opacity:1"/>
<path class="bond-5 atom-5 atom-6" d="M 485.3,249.9 L 451.8,309.3" style="fill:none;fill-rule:evenodd;stroke:#FF0000;stroke-width:2.0px;stroke-linecap:butt;stroke-linejoin:miter;stroke-opacity:1"/>
<path class="bond-5 atom-5 atom-6" d="M 538.6,201.6 L 505.2,261.0" style="fill:none;fill-rule:evenodd;stroke:#000000;stroke-width:2.0px;stroke-linecap:butt;stroke-linejoin:miter;stroke-opacity:1"/>
<path class="bond-5 atom-5 atom-6" d="M 505.2,261.0 L 471.7,320.5" style="fill:none;fill-rule:evenodd;stroke:#FF0000;stroke-width:2.0px;stroke-linecap:butt;stroke-linejoin:miter;stroke-opacity:1"/>
<path class="bond-6 atom-5 atom-7" d="M 525.4,201.7 L 492.5,146.2" style="fill:none;fill-rule:evenodd;stroke:#000000;stroke-width:2.0px;stroke-linecap:butt;stroke-linejoin:miter;stroke-opacity:1"/>
<path class="bond-6 atom-5 atom-7" d="M 492.5,146.2 L 459.7,90.7" style="fill:none;fill-rule:evenodd;stroke:#FF0000;stroke-width:2.0px;stroke-linecap:butt;stroke-linejoin:miter;stroke-opacity:1"/>
<path class="bond-7 atom-7 atom-8" d="M 429.9,71.1 L 368.8,71.8" style="fill:none;fill-rule:evenodd;stroke:#FF0000;stroke-width:2.0px;stroke-linecap:butt;stroke-linejoin:miter;stroke-opacity:1"/>
<path class="bond-7 atom-7 atom-8" d="M 368.8,71.8 L 307.6,72.5" style="fill:none;fill-rule:evenodd;stroke:#191919;stroke-width:2.0px;stroke-linecap:butt;stroke-linejoin:miter;stroke-opacity:1"/>
<path d="M 831.4,195.1 L 829.6,198.3 L 822.0,198.4" style="fill:none;stroke:#000000;stroke-width:2.0px;stroke-linecap:butt;stroke-linejoin:miter;stroke-opacity:1;"/>
<path d="M 533.1,201.6 L 525.4,201.7 L 523.8,198.9" style="fill:none;stroke:#000000;stroke-width:2.0px;stroke-linecap:butt;stroke-linejoin:miter;stroke-opacity:1;"/>
<path class="atom-0" d="M 898.8 62.6 L 903.0 58.3 L 897.4 57.2 L 898.3 54.4 L 903.4 56.9 L 902.6 51.4 L 905.6 51.3 L 904.8 56.9 L 910.0 54.5 L 910.8 57.2 L 905.2 58.3 L 909.2 62.5 L 906.8 64.3 L 904.0 59.0 L 901.2 64.3 L 898.8 62.6 " fill="#191919"/>
<path class="atom-6" d="M 437.9 334.3 Q 437.9 327.5, 441.3 323.7 Q 444.6 319.9, 450.9 319.9 Q 457.2 319.9, 460.5 323.7 Q 463.9 327.5, 463.9 334.3 Q 463.9 341.2, 460.5 345.1 Q 457.1 349.0, 450.9 349.0 Q 444.7 349.0, 441.3 345.1 Q 437.9 341.3, 437.9 334.3 M 450.9 345.8 Q 455.2 345.8, 457.5 342.9 Q 459.9 340.0, 459.9 334.3 Q 459.9 328.8, 457.5 326.0 Q 455.2 323.1, 450.9 323.1 Q 446.6 323.1, 444.2 325.9 Q 441.9 328.7, 441.9 334.3 Q 441.9 340.1, 444.2 342.9 Q 446.6 345.8, 450.9 345.8 " fill="#FF0000"/>
<path class="atom-7" d="M 434.9 71.0 Q 434.9 64.2, 438.3 60.4 Q 441.7 56.6, 447.9 56.6 Q 454.2 56.6, 457.6 60.4 Q 460.9 64.2, 460.9 71.0 Q 460.9 77.8, 457.5 81.8 Q 454.1 85.6, 447.9 85.6 Q 441.7 85.6, 438.3 81.8 Q 434.9 77.9, 434.9 71.0 M 447.9 82.4 Q 452.3 82.4, 454.6 79.6 Q 456.9 76.6, 456.9 71.0 Q 456.9 65.4, 454.6 62.6 Q 452.3 59.8, 447.9 59.8 Q 443.6 59.8, 441.3 62.6 Q 438.9 65.4, 438.9 71.0 Q 438.9 76.7, 441.3 79.6 Q 443.6 82.4, 447.9 82.4 " fill="#FF0000"/>
<path class="atom-8" d="M 290.5 69.4 L 294.7 65.2 L 289.2 64.1 L 290.0 61.2 L 295.1 63.8 L 294.4 58.2 L 297.4 58.2 L 296.5 63.7 L 301.7 61.3 L 302.6 64.1 L 297.0 65.1 L 301.0 69.4 L 298.5 71.1 L 295.8 65.9 L 293.0 71.1 L 290.5 69.4 " fill="#191919"/>
<path class="bond-0 atom-0 atom-1" d="M 856.0,575.5 L 802.3,625.5" style="fill:none;fill-rule:evenodd;stroke:#191919;stroke-width:2.0px;stroke-linecap:butt;stroke-linejoin:miter;stroke-opacity:1"/>
<path class="bond-0 atom-0 atom-1" d="M 802.3,625.5 L 748.5,675.5" style="fill:none;fill-rule:evenodd;stroke:#000000;stroke-width:2.0px;stroke-linecap:butt;stroke-linejoin:miter;stroke-opacity:1"/>
<path class="bond-1 atom-1 atom-2" d="M 748.5,675.5 L 603.1,630.9" style="fill:none;fill-rule:evenodd;stroke:#000000;stroke-width:2.0px;stroke-linecap:butt;stroke-linejoin:miter;stroke-opacity:1"/>
<path class="bond-2 atom-2 atom-3" d="M 603.1,630.9 L 647.8,485.5" style="fill:none;fill-rule:evenodd;stroke:#000000;stroke-width:2.0px;stroke-linecap:butt;stroke-linejoin:miter;stroke-opacity:1"/>
<path class="bond-3 atom-2 atom-4" d="M 603.1,630.9 L 558.5,776.3" style="fill:none;fill-rule:evenodd;stroke:#000000;stroke-width:2.0px;stroke-linecap:butt;stroke-linejoin:miter;stroke-opacity:1"/>
<path class="bond-4 atom-2 atom-5" d="M 603.1,630.9 L 457.8,586.3" style="fill:none;fill-rule:evenodd;stroke:#000000;stroke-width:2.0px;stroke-linecap:butt;stroke-linejoin:miter;stroke-opacity:1"/>
<path class="bond-5 atom-5 atom-6" d="M 454.8,573.4 L 405.8,619.1" style="fill:none;fill-rule:evenodd;stroke:#000000;stroke-width:2.0px;stroke-linecap:butt;stroke-linejoin:miter;stroke-opacity:1"/>
<path class="bond-5 atom-5 atom-6" d="M 405.8,619.1 L 356.7,664.7" style="fill:none;fill-rule:evenodd;stroke:#FF0000;stroke-width:2.0px;stroke-linecap:butt;stroke-linejoin:miter;stroke-opacity:1"/>
<path class="bond-5 atom-5 atom-6" d="M 470.4,590.1 L 421.3,635.8" style="fill:none;fill-rule:evenodd;stroke:#000000;stroke-width:2.0px;stroke-linecap:butt;stroke-linejoin:miter;stroke-opacity:1"/>
<path class="bond-5 atom-5 atom-6" d="M 421.3,635.8 L 372.2,681.4" style="fill:none;fill-rule:evenodd;stroke:#FF0000;stroke-width:2.0px;stroke-linecap:butt;stroke-linejoin:miter;stroke-opacity:1"/>
<path class="bond-6 atom-5 atom-7" d="M 457.8,586.3 L 443.0,522.0" style="fill:none;fill-rule:evenodd;stroke:#000000;stroke-width:2.0px;stroke-linecap:butt;stroke-linejoin:miter;stroke-opacity:1"/>
<path class="bond-6 atom-5 atom-7" d="M 443.0,522.0 L 428.3,457.8" style="fill:none;fill-rule:evenodd;stroke:#FF0000;stroke-width:2.0px;stroke-linecap:butt;stroke-linejoin:miter;stroke-opacity:1"/>
<path d="M 751.2,673.0 L 748.5,675.5 L 741.3,673.3" style="fill:none;stroke:#000000;stroke-width:2.0px;stroke-linecap:butt;stroke-linejoin:miter;stroke-opacity:1;"/>
<path d="M 465.0,588.5 L 457.8,586.3 L 457.0,583.1" style="fill:none;stroke:#000000;stroke-width:2.0px;stroke-linecap:butt;stroke-linejoin:miter;stroke-opacity:1;"/>
<path class="atom-0" d="M 854.5 568.8 L 858.7 564.5 L 853.2 563.4 L 854.0 560.6 L 859.1 563.1 L 858.4 557.6 L 861.4 557.5 L 860.5 563.1 L 865.7 560.7 L 866.6 563.4 L 861.0 564.4 L 865.0 568.7 L 862.5 570.5 L 859.8 565.2 L 857.0 570.5 L 854.5 568.8 " fill="#191919"/>
<path class="atom-6" d="M 333.4 689.9 Q 333.4 683.1, 336.8 679.3 Q 340.2 675.5, 346.4 675.5 Q 352.7 675.5, 356.1 679.3 Q 359.4 683.1, 359.4 689.9 Q 359.4 696.8, 356.0 700.7 Q 352.6 704.6, 346.4 704.6 Q 340.2 704.6, 336.8 700.7 Q 333.4 696.9, 333.4 689.9 M 346.4 701.4 Q 350.8 701.4, 353.1 698.5 Q 355.4 695.6, 355.4 689.9 Q 355.4 684.4, 353.1 681.6 Q 350.8 678.7, 346.4 678.7 Q 342.1 678.7, 339.8 681.5 Q 337.4 684.3, 337.4 689.9 Q 337.4 695.7, 339.8 698.5 Q 342.1 701.4, 346.4 701.4 " fill="#FF0000"/>
<path class="atom-7" d="M 410.7 438.1 Q 410.7 431.3, 414.1 427.5 Q 417.4 423.7, 423.7 423.7 Q 430.0 423.7, 433.4 427.5 Q 436.7 431.3, 436.7 438.1 Q 436.7 445.0, 433.3 448.9 Q 429.9 452.8, 423.7 452.8 Q 417.5 452.8, 414.1 448.9 Q 410.7 445.0, 410.7 438.1 M 423.7 449.6 Q 428.0 449.6, 430.4 446.7 Q 432.7 443.8, 432.7 438.1 Q 432.7 432.6, 430.4 429.8 Q 428.0 426.9, 423.7 426.9 Q 419.4 426.9, 417.0 429.7 Q 414.7 432.5, 414.7 438.1 Q 414.7 443.8, 417.0 446.7 Q 419.4 449.6, 423.7 449.6 " fill="#FF0000"/>
<path class="atom-7" d="M 441.1 424.0 L 445.0 424.0 L 445.0 436.1 L 459.5 436.1 L 459.5 424.0 L 463.3 424.0 L 463.3 452.4 L 459.5 452.4 L 459.5 439.3 L 445.0 439.3 L 445.0 452.4 L 441.1 452.4 L 441.1 424.0 " fill="#FF0000"/>
<path class="bond-0 atom-0 atom-1" d="M 824.3,871.9 L 787.3,935.9" style="fill:none;fill-rule:evenodd;stroke:#191919;stroke-width:2.0px;stroke-linecap:butt;stroke-linejoin:miter;stroke-opacity:1"/>
<path class="bond-0 atom-0 atom-1" d="M 787.3,935.9 L 750.3,1000.0" style="fill:none;fill-rule:evenodd;stroke:#000000;stroke-width:2.0px;stroke-linecap:butt;stroke-linejoin:miter;stroke-opacity:1"/>
<path class="bond-1 atom-1 atom-2" d="M 750.3,1000.0 L 598.2,1000.0" style="fill:none;fill-rule:evenodd;stroke:#000000;stroke-width:2.0px;stroke-linecap:butt;stroke-linejoin:miter;stroke-opacity:1"/>
<path class="bond-2 atom-2 atom-3" d="M 598.2,1000.0 L 598.2,847.9" style="fill:none;fill-rule:evenodd;stroke:#000000;stroke-width:2.0px;stroke-linecap:butt;stroke-linejoin:miter;stroke-opacity:1"/>
<path class="bond-3 atom-2 atom-4" d="M 598.2,1000.0 L 598.2,1152.1" style="fill:none;fill-rule:evenodd;stroke:#000000;stroke-width:2.0px;stroke-linecap:butt;stroke-linejoin:miter;stroke-opacity:1"/>
<path class="bond-4 atom-2 atom-5" d="M 598.2,1000.0 L 446.1,1000.0" style="fill:none;fill-rule:evenodd;stroke:#000000;stroke-width:2.0px;stroke-linecap:butt;stroke-linejoin:miter;stroke-opacity:1"/>
<path class="bond-5 atom-5 atom-6" d="M 446.1,1000.0 L 413.8,944.0" style="fill:none;fill-rule:evenodd;stroke:#000000;stroke-width:2.0px;stroke-linecap:butt;stroke-linejoin:miter;stroke-opacity:1"/>
<path class="bond-5 atom-5 atom-6" d="M 413.8,944.0 L 381.5,888.1" style="fill:none;fill-rule:evenodd;stroke:#FF0000;stroke-width:2.0px;stroke-linecap:butt;stroke-linejoin:miter;stroke-opacity:1"/>
<path class="bond-5 atom-5 atom-6" d="M 459.3,977.2 L 433.6,932.6" style="fill:none;fill-rule:evenodd;stroke:#000000;stroke-width:2.0px;stroke-linecap:butt;stroke-linejoin:miter;stroke-opacity:1"/>
<path class="bond-5 atom-5 atom-6" d="M 433.6,932.6 L 401.3,876.7" style="fill:none;fill-rule:evenodd;stroke:#FF0000;stroke-width:2.0px;stroke-linecap:butt;stroke-linejoin:miter;stroke-opacity:1"/>
<path d="M 752.1,996.8 L 750.3,1000.0 L 742.7,1000.0" style="fill:none;stroke:#000000;stroke-width:2.0px;stroke-linecap:butt;stroke-linejoin:miter;stroke-opacity:1;"/>
<path d="M 453.7,1000.0 L 446.1,1000.0 L 444.5,997.2" style="fill:none;stroke:#000000;stroke-width:2.0px;stroke-linecap:butt;stroke-linejoin:miter;stroke-opacity:1;"/>
<path class="atom-0" d="M 821.0 865.1 L 825.1 860.9 L 819.6 859.8 L 820.5 856.9 L 825.5 859.5 L 824.8 853.9 L 827.8 853.9 L 827.0 859.5 L 832.1 857.1 L 833.0 859.8 L 827.4 860.8 L 831.4 865.1 L 829.0 866.9 L 826.2 861.6 L 823.4 866.9 L 821.0 865.1 " fill="#191919"/>
<path class="atom-6" d="M 367.0 862.7 Q 367.0 855.9, 370.3 852.1 Q 373.7 848.3, 380.0 848.3 Q 386.3 848.3, 389.6 852.1 Q 393.0 855.9, 393.0 862.7 Q 393.0 869.6, 389.6 873.5 Q 386.2 877.4, 380.0 877.4 Q 373.7 877.4, 370.3 873.5 Q 367.0 869.6, 367.0 862.7 M 380.0 874.2 Q 384.3 874.2, 386.6 871.3 Q 389.0 868.4, 389.0 862.7 Q 389.0 857.1, 386.6 854.3 Q 384.3 851.5, 380.0 851.5 Q 375.7 851.5, 373.3 854.3 Q 371.0 857.1, 371.0 862.7 Q 371.0 868.4, 373.3 871.3 Q 375.7 874.2, 380.0 874.2 " fill="#FF0000"/>
</svg>