<svg xmlns="http://www.w3.org/2000/svg" xmlns:rdkit="http://www.rdkit.org/xml" xmlns:xlink="http://www.w3.org/1999/xlink" version="1.1" baseProfile="full" xml:space="preserve" width="1200px" height="800px" viewBox="0 0 1200 800">
<!-- END OF HEADER -->
<rect style="opacity:1.0;fill:#FFFFFF;stroke:none" width="1200.0" height="800.0" x="0.0" y="0.0"> </rect>
<path class="bond-0 atom-0 atom-1" d="M 329.5,144.4 L 417.3,93.7" style="fill:none;fill-rule:evenodd;stroke:#191919;stroke-width:2.0px;stroke-linecap:butt;stroke-linejoin:miter;stroke-opacity:1"/>
<path class="bond-0 atom-0 atom-1" d="M 417.3,93.7 L 505.2,43.0" style="fill:none;fill-rule:evenodd;stroke:#000000;stroke-width:2.0px;stroke-linecap:butt;stroke-linejoin:miter;stroke-opacity:1"/>
<path class="bond-1 atom-1 atom-2" d="M 505.2,43.0 L 694.8,152.5" style="fill:none;fill-rule:evenodd;stroke:#000000;stroke-width:2.0px;stroke-linecap:butt;stroke-linejoin:miter;stroke-opacity:1"/>
<path class="bond-2 atom-2 atom-3" d="M 694.8,152.5 L 784.6,100.6" style="fill:none;fill-rule:evenodd;stroke:#000000;stroke-width:2.0px;stroke-linecap:butt;stroke-linejoin:miter;stroke-opacity:1"/>
<path class="bond-2 atom-2 atom-3" d="M 784.6,100.6 L 874.4,48.8" style="fill:none;fill-rule:evenodd;stroke:#191919;stroke-width:2.0px;stroke-linecap:butt;stroke-linejoin:miter;stroke-opacity:1"/>
<path class="bond-3 atom-2 atom-4" d="M 694.8,152.5 L 694.8,371.4" style="fill:none;fill-rule:evenodd;stroke:#000000;stroke-width:2.0px;stroke-linecap:butt;stroke-linejoin:miter;stroke-opacity:1"/>
<path d="M 500.8,45.5 L 505.2,43.0 L 514.7,48.4" style="fill:none;stroke:#000000;stroke-width:2.0px;stroke-linecap:butt;stroke-linejoin:miter;stroke-opacity:1;"/>
<path class="atom-0" d="M 310.2 149.3 L 314.4 145.1 L 308.8 143.9 L 309.7 141.1 L 314.8 143.7 L 314.0 138.1 L 317.0 138.1 L 316.2 143.6 L 321.4 141.2 L 322.2 143.9 L 316.6 145.0 L 320.6 149.3 L 318.2 151.0 L 315.4 145.7 L 312.6 151.0 L 310.2 149.3 " fill="#191919"/>
<path class="atom-3" d="M 879.1 39.8 L 883.3 35.6 L 877.8 34.4 L 878.6 31.6 L 883.7 34.2 L 883.0 28.6 L 886.0 28.6 L 885.1 34.1 L 890.3 31.7 L 891.2 34.4 L 885.6 35.5 L 889.6 39.8 L 887.1 41.5 L 884.4 36.2 L 881.6 41.5 L 879.1 39.8 " fill="#191919"/>
<path class="bond-0 atom-0 atom-1" d="M 324.9,614.0 L 418.7,574.1" style="fill:none;fill-rule:evenodd;stroke:#191919;stroke-width:2.0px;stroke-linecap:butt;stroke-linejoin:miter;stroke-opacity:1"/>
<path class="bond-0 atom-0 atom-1" d="M 418.7,574.1 L 512.5,534.2" style="fill:none;fill-rule:evenodd;stroke:#000000;stroke-width:2.0px;stroke-linecap:butt;stroke-linejoin:miter;stroke-opacity:1"/>
<path class="bond-1 atom-1 atom-2" d="M 512.5,534.2 L 687.5,665.8" style="fill:none;fill-rule:evenodd;stroke:#000000;stroke-width:2.0px;stroke-linecap:butt;stroke-linejoin:miter;stroke-opacity:1"/>
<path class="bond-2 atom-2 atom-3" d="M 687.5,665.8 L 781.4,625.8" style="fill:none;fill-rule:evenodd;stroke:#000000;stroke-width:2.0px;stroke-linecap:butt;stroke-linejoin:miter;stroke-opacity:1"/>
<path class="bond-2 atom-2 atom-3" d="M 781.4,625.8 L 875.4,585.9" style="fill:none;fill-rule:evenodd;stroke:#191919;stroke-width:2.0px;stroke-linecap:butt;stroke-linejoin:miter;stroke-opacity:1"/>
<path d="M 507.8,536.2 L 512.5,534.2 L 521.2,540.8" style="fill:none;stroke:#000000;stroke-width:2.0px;stroke-linecap:butt;stroke-linejoin:miter;stroke-opacity:1;"/>
<path d="M 678.8,659.2 L 687.5,665.8 L 692.2,663.8" style="fill:none;stroke:#000000;stroke-width:2.0px;stroke-linecap:butt;stroke-linejoin:miter;stroke-opacity:1;"/>
<path class="atom-0" d="M 305.7 616.8 L 309.8 612.5 L 304.3 611.4 L 305.1 608.6 L 310.2 611.1 L 309.5 605.6 L 312.5 605.5 L 311.7 611.1 L 316.8 608.7 L 317.7 611.4 L 312.1 612.4 L 316.1 616.7 L 313.7 618.5 L 310.9 613.2 L 308.1 618.5 L 305.7 616.8 " fill="#191919"/>
<path class="atom-3" d="M 883.7 576.9 L 887.8 572.7 L 882.3 571.6 L 883.1 568.7 L 888.2 571.3 L 887.5 565.7 L 890.5 565.7 L 889.7 571.2 L 894.8 568.8 L 895.7 571.6 L 890.1 572.6 L 894.1 576.9 L 891.7 578.6 L 888.9 573.4 L 886.1 578.6 L 883.7 576.9 " fill="#191919"/>
</svg>