<svg xmlns="http://www.w3.org/2000/svg" xmlns:rdkit="http://www.rdkit.org/xml" xmlns:xlink="http://www.w3.org/1999/xlink" version="1.1" baseProfile="full" xml:space="preserve" width="1200px" height="1200px" viewBox="0 0 1200 1200">
<!-- END OF HEADER -->
<rect style="opacity:1.0;fill:#FFFFFF;stroke:none" width="1200.0" height="1200.0" x="0.0" y="0.0"> </rect>
<path class="bond-0 atom-0 atom-1" d="M 1135.6,188.6 L 1117.2,199.3" style="fill:none;fill-rule:evenodd;stroke:#191919;stroke-width:2.0px;stroke-linecap:butt;stroke-linejoin:miter;stroke-opacity:1"/>
<path class="bond-0 atom-0 atom-1" d="M 1117.2,199.3 L 1098.7,210.0" style="fill:none;fill-rule:evenodd;stroke:#000000;stroke-width:2.0px;stroke-linecap:butt;stroke-linejoin:miter;stroke-opacity:1"/>
<path class="bond-1 atom-1 atom-2" d="M 1098.7,210.0 L 1060.3,187.9" style="fill:none;fill-rule:evenodd;stroke:#000000;stroke-width:2.0px;stroke-linecap:butt;stroke-linejoin:miter;stroke-opacity:1"/>
<path class="bond-2 atom-2 atom-3" d="M 1060.3,187.9 L 1022.0,210.1" style="fill:none;fill-rule:evenodd;stroke:#000000;stroke-width:2.0px;stroke-linecap:butt;stroke-linejoin:miter;stroke-opacity:1"/>
<path class="bond-3 atom-3 atom-4" d="M 1022.0,210.1 L 1006.4,201.1" style="fill:none;fill-rule:evenodd;stroke:#000000;stroke-width:2.0px;stroke-linecap:butt;stroke-linejoin:miter;stroke-opacity:1"/>
<path class="bond-3 atom-3 atom-4" d="M 1006.4,201.1 L 990.8,192.2" style="fill:none;fill-rule:evenodd;stroke:#FF0000;stroke-width:2.0px;stroke-linecap:butt;stroke-linejoin:miter;stroke-opacity:1"/>
<path class="bond-4 atom-4 atom-5" d="M 976.4,192.2 L 960.8,201.2" style="fill:none;fill-rule:evenodd;stroke:#FF0000;stroke-width:2.0px;stroke-linecap:butt;stroke-linejoin:miter;stroke-opacity:1"/>
<path class="bond-4 atom-4 atom-5" d="M 960.8,201.2 L 945.3,210.3" style="fill:none;fill-rule:evenodd;stroke:#000000;stroke-width:2.0px;stroke-linecap:butt;stroke-linejoin:miter;stroke-opacity:1"/>
<path class="bond-5 atom-5 atom-6" d="M 941.9,208.3 L 942.0,227.5" style="fill:none;fill-rule:evenodd;stroke:#000000;stroke-width:2.0px;stroke-linecap:butt;stroke-linejoin:miter;stroke-opacity:1"/>
<path class="bond-5 atom-5 atom-6" d="M 942.0,227.5 L 942.0,246.7" style="fill:none;fill-rule:evenodd;stroke:#FF0000;stroke-width:2.0px;stroke-linecap:butt;stroke-linejoin:miter;stroke-opacity:1"/>
<path class="bond-5 atom-5 atom-6" d="M 948.6,208.3 L 948.6,227.5" style="fill:none;fill-rule:evenodd;stroke:#000000;stroke-width:2.0px;stroke-linecap:butt;stroke-linejoin:miter;stroke-opacity:1"/>
<path class="bond-5 atom-5 atom-6" d="M 948.6,227.5 L 948.7,246.7" style="fill:none;fill-rule:evenodd;stroke:#FF0000;stroke-width:2.0px;stroke-linecap:butt;stroke-linejoin:miter;stroke-opacity:1"/>
<path class="bond-6 atom-5 atom-7" d="M 945.3,210.3 L 906.9,188.2" style="fill:none;fill-rule:evenodd;stroke:#000000;stroke-width:2.0px;stroke-linecap:butt;stroke-linejoin:miter;stroke-opacity:1"/>
<path class="bond-7 atom-7 atom-8" d="M 906.9,188.2 L 868.6,210.4" style="fill:none;fill-rule:evenodd;stroke:#000000;stroke-width:2.0px;stroke-linecap:butt;stroke-linejoin:miter;stroke-opacity:1"/>
<path class="bond-8 atom-8 atom-9" d="M 868.6,210.4 L 830.2,188.3" style="fill:none;fill-rule:evenodd;stroke:#000000;stroke-width:2.0px;stroke-linecap:butt;stroke-linejoin:miter;stroke-opacity:1"/>
<path class="bond-9 atom-9 atom-10" d="M 833.5,190.2 L 833.4,171.1" style="fill:none;fill-rule:evenodd;stroke:#000000;stroke-width:2.0px;stroke-linecap:butt;stroke-linejoin:miter;stroke-opacity:1"/>
<path class="bond-9 atom-9 atom-10" d="M 833.4,171.1 L 833.4,152.0" style="fill:none;fill-rule:evenodd;stroke:#FF0000;stroke-width:2.0px;stroke-linecap:butt;stroke-linejoin:miter;stroke-opacity:1"/>
<path class="bond-9 atom-9 atom-10" d="M 826.8,190.2 L 826.8,171.1" style="fill:none;fill-rule:evenodd;stroke:#000000;stroke-width:2.0px;stroke-linecap:butt;stroke-linejoin:miter;stroke-opacity:1"/>
<path class="bond-9 atom-9 atom-10" d="M 826.8,171.1 L 826.8,152.0" style="fill:none;fill-rule:evenodd;stroke:#FF0000;stroke-width:2.0px;stroke-linecap:butt;stroke-linejoin:miter;stroke-opacity:1"/>
<path class="bond-10 atom-9 atom-11" d="M 830.2,188.3 L 814.6,197.3" style="fill:none;fill-rule:evenodd;stroke:#000000;stroke-width:2.0px;stroke-linecap:butt;stroke-linejoin:miter;stroke-opacity:1"/>
<path class="bond-10 atom-9 atom-11" d="M 814.6,197.3 L 799.1,206.3" style="fill:none;fill-rule:evenodd;stroke:#FF0000;stroke-width:2.0px;stroke-linecap:butt;stroke-linejoin:miter;stroke-opacity:1"/>
<path class="bond-11 atom-11 atom-12" d="M 784.6,206.4 L 769.0,197.4" style="fill:none;fill-rule:evenodd;stroke:#FF0000;stroke-width:2.0px;stroke-linecap:butt;stroke-linejoin:miter;stroke-opacity:1"/>
<path class="bond-11 atom-11 atom-12" d="M 769.0,197.4 L 753.4,188.4" style="fill:none;fill-rule:evenodd;stroke:#000000;stroke-width:2.0px;stroke-linecap:butt;stroke-linejoin:miter;stroke-opacity:1"/>
<path class="bond-12 atom-12 atom-13" d="M 753.4,188.4 L 715.1,210.7" style="fill:none;fill-rule:evenodd;stroke:#000000;stroke-width:2.0px;stroke-linecap:butt;stroke-linejoin:miter;stroke-opacity:1"/>
<path class="bond-13 atom-13 atom-14" d="M 715.1,210.7 L 676.7,188.6" style="fill:none;fill-rule:evenodd;stroke:#000000;stroke-width:2.0px;stroke-linecap:butt;stroke-linejoin:miter;stroke-opacity:1"/>
<path class="bond-14 atom-14 atom-15" d="M 676.7,188.6 L 661.2,197.6" style="fill:none;fill-rule:evenodd;stroke:#000000;stroke-width:2.0px;stroke-linecap:butt;stroke-linejoin:miter;stroke-opacity:1"/>
<path class="bond-14 atom-14 atom-15" d="M 661.2,197.6 L 645.6,206.6" style="fill:none;fill-rule:evenodd;stroke:#FF0000;stroke-width:2.0px;stroke-linecap:butt;stroke-linejoin:miter;stroke-opacity:1"/>
<path class="bond-15 atom-15 atom-16" d="M 631.2,206.7 L 615.6,197.7" style="fill:none;fill-rule:evenodd;stroke:#FF0000;stroke-width:2.0px;stroke-linecap:butt;stroke-linejoin:miter;stroke-opacity:1"/>
<path class="bond-15 atom-15 atom-16" d="M 615.6,197.7 L 600.0,188.7" style="fill:none;fill-rule:evenodd;stroke:#000000;stroke-width:2.0px;stroke-linecap:butt;stroke-linejoin:miter;stroke-opacity:1"/>
<path class="bond-16 atom-16 atom-17" d="M 603.3,190.6 L 603.3,171.5" style="fill:none;fill-rule:evenodd;stroke:#000000;stroke-width:2.0px;stroke-linecap:butt;stroke-linejoin:miter;stroke-opacity:1"/>
<path class="bond-16 atom-16 atom-17" d="M 603.3,171.5 L 603.3,152.4" style="fill:none;fill-rule:evenodd;stroke:#FF0000;stroke-width:2.0px;stroke-linecap:butt;stroke-linejoin:miter;stroke-opacity:1"/>
<path class="bond-16 atom-16 atom-17" d="M 596.7,190.6 L 596.6,171.5" style="fill:none;fill-rule:evenodd;stroke:#000000;stroke-width:2.0px;stroke-linecap:butt;stroke-linejoin:miter;stroke-opacity:1"/>
<path class="bond-16 atom-16 atom-17" d="M 596.6,171.5 L 596.6,152.4" style="fill:none;fill-rule:evenodd;stroke:#FF0000;stroke-width:2.0px;stroke-linecap:butt;stroke-linejoin:miter;stroke-opacity:1"/>
<path class="bond-17 atom-16 atom-18" d="M 600.0,188.7 L 561.7,210.9" style="fill:none;fill-rule:evenodd;stroke:#000000;stroke-width:2.0px;stroke-linecap:butt;stroke-linejoin:miter;stroke-opacity:1"/>
<path class="bond-18 atom-18 atom-19" d="M 561.7,210.9 L 523.3,188.9" style="fill:none;fill-rule:evenodd;stroke:#000000;stroke-width:2.0px;stroke-linecap:butt;stroke-linejoin:miter;stroke-opacity:1"/>
<path class="bond-19 atom-19 atom-20" d="M 523.3,188.9 L 485.0,211.1" style="fill:none;fill-rule:evenodd;stroke:#000000;stroke-width:2.0px;stroke-linecap:butt;stroke-linejoin:miter;stroke-opacity:1"/>
<path class="bond-20 atom-20 atom-21" d="M 481.6,209.2 L 481.7,228.4" style="fill:none;fill-rule:evenodd;stroke:#000000;stroke-width:2.0px;stroke-linecap:butt;stroke-linejoin:miter;stroke-opacity:1"/>
<path class="bond-20 atom-20 atom-21" d="M 481.7,228.4 L 481.7,247.6" style="fill:none;fill-rule:evenodd;stroke:#FF0000;stroke-width:2.0px;stroke-linecap:butt;stroke-linejoin:miter;stroke-opacity:1"/>
<path class="bond-20 atom-20 atom-21" d="M 488.3,209.2 L 488.3,228.4" style="fill:none;fill-rule:evenodd;stroke:#000000;stroke-width:2.0px;stroke-linecap:butt;stroke-linejoin:miter;stroke-opacity:1"/>
<path class="bond-20 atom-20 atom-21" d="M 488.3,228.4 L 488.3,247.6" style="fill:none;fill-rule:evenodd;stroke:#FF0000;stroke-width:2.0px;stroke-linecap:butt;stroke-linejoin:miter;stroke-opacity:1"/>
<path class="bond-21 atom-20 atom-22" d="M 485.0,211.1 L 469.4,202.1" style="fill:none;fill-rule:evenodd;stroke:#000000;stroke-width:2.0px;stroke-linecap:butt;stroke-linejoin:miter;stroke-opacity:1"/>
<path class="bond-21 atom-20 atom-22" d="M 469.4,202.1 L 453.8,193.2" style="fill:none;fill-rule:evenodd;stroke:#FF0000;stroke-width:2.0px;stroke-linecap:butt;stroke-linejoin:miter;stroke-opacity:1"/>
<path class="bond-22 atom-22 atom-23" d="M 439.3,193.2 L 423.8,202.2" style="fill:none;fill-rule:evenodd;stroke:#FF0000;stroke-width:2.0px;stroke-linecap:butt;stroke-linejoin:miter;stroke-opacity:1"/>
<path class="bond-22 atom-22 atom-23" d="M 423.8,202.2 L 408.2,211.2" style="fill:none;fill-rule:evenodd;stroke:#000000;stroke-width:2.0px;stroke-linecap:butt;stroke-linejoin:miter;stroke-opacity:1"/>
<path class="bond-23 atom-23 atom-24" d="M 408.2,211.2 L 369.8,189.1" style="fill:none;fill-rule:evenodd;stroke:#000000;stroke-width:2.0px;stroke-linecap:butt;stroke-linejoin:miter;stroke-opacity:1"/>
<path class="bond-24 atom-24 atom-25" d="M 369.8,189.1 L 331.5,211.4" style="fill:none;fill-rule:evenodd;stroke:#000000;stroke-width:2.0px;stroke-linecap:butt;stroke-linejoin:miter;stroke-opacity:1"/>
<path class="bond-25 atom-25 atom-26" d="M 331.5,211.4 L 315.9,202.4" style="fill:none;fill-rule:evenodd;stroke:#000000;stroke-width:2.0px;stroke-linecap:butt;stroke-linejoin:miter;stroke-opacity:1"/>
<path class="bond-25 atom-25 atom-26" d="M 315.9,202.4 L 300.3,193.4" style="fill:none;fill-rule:evenodd;stroke:#FF0000;stroke-width:2.0px;stroke-linecap:butt;stroke-linejoin:miter;stroke-opacity:1"/>
<path class="bond-26 atom-26 atom-27" d="M 285.9,193.5 L 270.4,202.5" style="fill:none;fill-rule:evenodd;stroke:#FF0000;stroke-width:2.0px;stroke-linecap:butt;stroke-linejoin:miter;stroke-opacity:1"/>
<path class="bond-26 atom-26 atom-27" d="M 270.4,202.5 L 254.8,211.5" style="fill:none;fill-rule:evenodd;stroke:#000000;stroke-width:2.0px;stroke-linecap:butt;stroke-linejoin:miter;stroke-opacity:1"/>
<path class="bond-27 atom-27 atom-28" d="M 251.5,209.6 L 251.5,228.8" style="fill:none;fill-rule:evenodd;stroke:#000000;stroke-width:2.0px;stroke-linecap:butt;stroke-linejoin:miter;stroke-opacity:1"/>
<path class="bond-27 atom-27 atom-28" d="M 251.5,228.8 L 251.5,248.0" style="fill:none;fill-rule:evenodd;stroke:#FF0000;stroke-width:2.0px;stroke-linecap:butt;stroke-linejoin:miter;stroke-opacity:1"/>
<path class="bond-27 atom-27 atom-28" d="M 258.1,209.6 L 258.2,228.8" style="fill:none;fill-rule:evenodd;stroke:#000000;stroke-width:2.0px;stroke-linecap:butt;stroke-linejoin:miter;stroke-opacity:1"/>
<path class="bond-27 atom-27 atom-28" d="M 258.2,228.8 L 258.2,248.0" style="fill:none;fill-rule:evenodd;stroke:#FF0000;stroke-width:2.0px;stroke-linecap:butt;stroke-linejoin:miter;stroke-opacity:1"/>
<path class="bond-28 atom-27 atom-29" d="M 254.8,211.5 L 216.4,189.4" style="fill:none;fill-rule:evenodd;stroke:#000000;stroke-width:2.0px;stroke-linecap:butt;stroke-linejoin:miter;stroke-opacity:1"/>
<path class="bond-29 atom-29 atom-30" d="M 216.4,189.4 L 178.1,211.6" style="fill:none;fill-rule:evenodd;stroke:#000000;stroke-width:2.0px;stroke-linecap:butt;stroke-linejoin:miter;stroke-opacity:1"/>
<path class="bond-30 atom-30 atom-31" d="M 178.1,211.6 L 139.7,189.6" style="fill:none;fill-rule:evenodd;stroke:#000000;stroke-width:2.0px;stroke-linecap:butt;stroke-linejoin:miter;stroke-opacity:1"/>
<path class="bond-31 atom-31 atom-32" d="M 143.0,191.5 L 143.0,172.4" style="fill:none;fill-rule:evenodd;stroke:#000000;stroke-width:2.0px;stroke-linecap:butt;stroke-linejoin:miter;stroke-opacity:1"/>
<path class="bond-31 atom-31 atom-32" d="M 143.0,172.4 L 142.9,153.3" style="fill:none;fill-rule:evenodd;stroke:#FF0000;stroke-width:2.0px;stroke-linecap:butt;stroke-linejoin:miter;stroke-opacity:1"/>
<path class="bond-31 atom-31 atom-32" d="M 136.4,191.5 L 136.3,172.4" style="fill:none;fill-rule:evenodd;stroke:#000000;stroke-width:2.0px;stroke-linecap:butt;stroke-linejoin:miter;stroke-opacity:1"/>
<path class="bond-31 atom-31 atom-32" d="M 136.3,172.4 L 136.3,153.3" style="fill:none;fill-rule:evenodd;stroke:#FF0000;stroke-width:2.0px;stroke-linecap:butt;stroke-linejoin:miter;stroke-opacity:1"/>
<path class="bond-32 atom-31 atom-33" d="M 139.7,189.6 L 124.1,198.6" style="fill:none;fill-rule:evenodd;stroke:#000000;stroke-width:2.0px;stroke-linecap:butt;stroke-linejoin:miter;stroke-opacity:1"/>
<path class="bond-32 atom-31 atom-33" d="M 124.1,198.6 L 108.6,207.6" style="fill:none;fill-rule:evenodd;stroke:#FF0000;stroke-width:2.0px;stroke-linecap:butt;stroke-linejoin:miter;stroke-opacity:1"/>
<path class="bond-33 atom-33 atom-34" d="M 94.1,207.6 L 79.3,199.1" style="fill:none;fill-rule:evenodd;stroke:#FF0000;stroke-width:2.0px;stroke-linecap:butt;stroke-linejoin:miter;stroke-opacity:1"/>
<path class="bond-33 atom-33 atom-34" d="M 79.3,199.1 L 64.4,190.5" style="fill:none;fill-rule:evenodd;stroke:#191919;stroke-width:2.0px;stroke-linecap:butt;stroke-linejoin:miter;stroke-opacity:1"/>
<path d="M 1099.6,209.4 L 1098.7,210.0 L 1096.8,208.9" style="fill:none;stroke:#000000;stroke-width:2.0px;stroke-linecap:butt;stroke-linejoin:miter;stroke-opacity:1;"/>
<path d="M 1062.2,189.0 L 1060.3,187.9 L 1058.4,189.0" style="fill:none;stroke:#000000;stroke-width:2.0px;stroke-linecap:butt;stroke-linejoin:miter;stroke-opacity:1;"/>
<path d="M 1023.9,209.0 L 1022.0,210.1 L 1021.2,209.7" style="fill:none;stroke:#000000;stroke-width:2.0px;stroke-linecap:butt;stroke-linejoin:miter;stroke-opacity:1;"/>
<path d="M 946.1,209.8 L 945.3,210.3 L 943.4,209.1" style="fill:none;stroke:#000000;stroke-width:2.0px;stroke-linecap:butt;stroke-linejoin:miter;stroke-opacity:1;"/>
<path d="M 908.8,189.3 L 906.9,188.2 L 905.0,189.3" style="fill:none;stroke:#000000;stroke-width:2.0px;stroke-linecap:butt;stroke-linejoin:miter;stroke-opacity:1;"/>
<path d="M 870.5,209.3 L 868.6,210.4 L 866.6,209.3" style="fill:none;stroke:#000000;stroke-width:2.0px;stroke-linecap:butt;stroke-linejoin:miter;stroke-opacity:1;"/>
<path d="M 832.1,189.4 L 830.2,188.3 L 829.4,188.8" style="fill:none;stroke:#000000;stroke-width:2.0px;stroke-linecap:butt;stroke-linejoin:miter;stroke-opacity:1;"/>
<path d="M 754.2,188.9 L 753.4,188.4 L 751.5,189.6" style="fill:none;stroke:#000000;stroke-width:2.0px;stroke-linecap:butt;stroke-linejoin:miter;stroke-opacity:1;"/>
<path d="M 717.0,209.6 L 715.1,210.7 L 713.2,209.6" style="fill:none;stroke:#000000;stroke-width:2.0px;stroke-linecap:butt;stroke-linejoin:miter;stroke-opacity:1;"/>
<path d="M 678.6,189.7 L 676.7,188.6 L 675.9,189.0" style="fill:none;stroke:#000000;stroke-width:2.0px;stroke-linecap:butt;stroke-linejoin:miter;stroke-opacity:1;"/>
<path d="M 600.8,189.2 L 600.0,188.7 L 598.1,189.8" style="fill:none;stroke:#000000;stroke-width:2.0px;stroke-linecap:butt;stroke-linejoin:miter;stroke-opacity:1;"/>
<path d="M 563.6,209.8 L 561.7,210.9 L 559.8,209.8" style="fill:none;stroke:#000000;stroke-width:2.0px;stroke-linecap:butt;stroke-linejoin:miter;stroke-opacity:1;"/>
<path d="M 525.2,190.0 L 523.3,188.9 L 521.4,190.0" style="fill:none;stroke:#000000;stroke-width:2.0px;stroke-linecap:butt;stroke-linejoin:miter;stroke-opacity:1;"/>
<path d="M 486.9,210.0 L 485.0,211.1 L 484.2,210.6" style="fill:none;stroke:#000000;stroke-width:2.0px;stroke-linecap:butt;stroke-linejoin:miter;stroke-opacity:1;"/>
<path d="M 409.0,210.8 L 408.2,211.2 L 406.3,210.1" style="fill:none;stroke:#000000;stroke-width:2.0px;stroke-linecap:butt;stroke-linejoin:miter;stroke-opacity:1;"/>
<path d="M 371.8,190.2 L 369.8,189.1 L 367.9,190.3" style="fill:none;stroke:#000000;stroke-width:2.0px;stroke-linecap:butt;stroke-linejoin:miter;stroke-opacity:1;"/>
<path d="M 333.4,210.2 L 331.5,211.4 L 330.7,210.9" style="fill:none;stroke:#000000;stroke-width:2.0px;stroke-linecap:butt;stroke-linejoin:miter;stroke-opacity:1;"/>
<path d="M 255.6,211.0 L 254.8,211.5 L 252.9,210.4" style="fill:none;stroke:#000000;stroke-width:2.0px;stroke-linecap:butt;stroke-linejoin:miter;stroke-opacity:1;"/>
<path d="M 218.3,190.5 L 216.4,189.4 L 214.5,190.5" style="fill:none;stroke:#000000;stroke-width:2.0px;stroke-linecap:butt;stroke-linejoin:miter;stroke-opacity:1;"/>
<path d="M 180.0,210.5 L 178.1,211.6 L 176.2,210.5" style="fill:none;stroke:#000000;stroke-width:2.0px;stroke-linecap:butt;stroke-linejoin:miter;stroke-opacity:1;"/>
<path d="M 141.6,190.7 L 139.7,189.6 L 138.9,190.0" style="fill:none;stroke:#000000;stroke-width:2.0px;stroke-linecap:butt;stroke-linejoin:miter;stroke-opacity:1;"/>
<path class="atom-0" d="M 1134.7 186.4 L 1136.5 184.5 L 1134.1 184.0 L 1134.4 182.7 L 1136.7 183.9 L 1136.4 181.4 L 1137.7 181.4 L 1137.3 183.8 L 1139.6 182.8 L 1140.0 184.0 L 1137.5 184.4 L 1139.3 186.3 L 1138.2 187.1 L 1137.0 184.8 L 1135.7 187.1 L 1134.7 186.4 " fill="#191919"/>
<path class="atom-4" d="M 977.8 188.1 Q 977.8 185.1, 979.3 183.4 Q 980.8 181.7, 983.6 181.7 Q 986.4 181.7, 987.9 183.4 Q 989.4 185.1, 989.4 188.1 Q 989.4 191.1, 987.8 192.9 Q 986.3 194.6, 983.6 194.6 Q 980.8 194.6, 979.3 192.9 Q 977.8 191.1, 977.8 188.1 M 983.6 193.2 Q 985.5 193.2, 986.5 191.9 Q 987.6 190.6, 987.6 188.1 Q 987.6 185.6, 986.5 184.4 Q 985.5 183.1, 983.6 183.1 Q 981.7 183.1, 980.6 184.3 Q 979.6 185.6, 979.6 188.1 Q 979.6 190.6, 980.6 191.9 Q 981.7 193.2, 983.6 193.2 " fill="#FF0000"/>
<path class="atom-6" d="M 939.6 254.6 Q 939.6 251.6, 941.1 249.9 Q 942.6 248.2, 945.4 248.2 Q 948.1 248.2, 949.6 249.9 Q 951.1 251.6, 951.1 254.6 Q 951.1 257.6, 949.6 259.4 Q 948.1 261.1, 945.4 261.1 Q 942.6 261.1, 941.1 259.4 Q 939.6 257.6, 939.6 254.6 M 945.4 259.7 Q 947.3 259.7, 948.3 258.4 Q 949.3 257.1, 949.3 254.6 Q 949.3 252.1, 948.3 250.9 Q 947.3 249.6, 945.4 249.6 Q 943.4 249.6, 942.4 250.9 Q 941.4 252.1, 941.4 254.6 Q 941.4 257.1, 942.4 258.4 Q 943.4 259.7, 945.4 259.7 " fill="#FF0000"/>
<path class="atom-10" d="M 824.3 144.1 Q 824.3 141.0, 825.8 139.4 Q 827.3 137.7, 830.1 137.7 Q 832.9 137.7, 834.3 139.4 Q 835.8 141.0, 835.8 144.1 Q 835.8 147.1, 834.3 148.8 Q 832.8 150.6, 830.1 150.6 Q 827.3 150.6, 825.8 148.8 Q 824.3 147.1, 824.3 144.1 M 830.1 149.1 Q 832.0 149.1, 833.0 147.9 Q 834.1 146.6, 834.1 144.1 Q 834.1 141.6, 833.0 140.3 Q 832.0 139.1, 830.1 139.1 Q 828.2 139.1, 827.1 140.3 Q 826.1 141.6, 826.1 144.1 Q 826.1 146.6, 827.1 147.9 Q 828.2 149.1, 830.1 149.1 " fill="#FF0000"/>
<path class="atom-11" d="M 786.1 210.6 Q 786.1 207.6, 787.6 205.9 Q 789.1 204.2, 791.8 204.2 Q 794.6 204.2, 796.1 205.9 Q 797.6 207.6, 797.6 210.6 Q 797.6 213.6, 796.1 215.3 Q 794.6 217.1, 791.8 217.1 Q 789.1 217.1, 787.6 215.3 Q 786.1 213.6, 786.1 210.6 M 791.8 215.6 Q 793.8 215.6, 794.8 214.4 Q 795.8 213.1, 795.8 210.6 Q 795.8 208.1, 794.8 206.9 Q 793.8 205.6, 791.8 205.6 Q 789.9 205.6, 788.9 206.8 Q 787.9 208.1, 787.9 210.6 Q 787.9 213.1, 788.9 214.4 Q 789.9 215.6, 791.8 215.6 " fill="#FF0000"/>
<path class="atom-15" d="M 632.6 210.8 Q 632.6 207.8, 634.1 206.1 Q 635.6 204.5, 638.4 204.5 Q 641.2 204.5, 642.7 206.1 Q 644.2 207.8, 644.2 210.8 Q 644.2 213.9, 642.7 215.6 Q 641.1 217.3, 638.4 217.3 Q 635.6 217.3, 634.1 215.6 Q 632.6 213.9, 632.6 210.8 M 638.4 215.9 Q 640.3 215.9, 641.3 214.6 Q 642.4 213.4, 642.4 210.8 Q 642.4 208.4, 641.3 207.1 Q 640.3 205.9, 638.4 205.9 Q 636.5 205.9, 635.4 207.1 Q 634.4 208.4, 634.4 210.8 Q 634.4 213.4, 635.4 214.6 Q 636.5 215.9, 638.4 215.9 " fill="#FF0000"/>
<path class="atom-17" d="M 594.2 144.5 Q 594.2 141.5, 595.7 139.8 Q 597.1 138.1, 599.9 138.1 Q 602.7 138.1, 604.2 139.8 Q 605.7 141.5, 605.7 144.5 Q 605.7 147.5, 604.2 149.3 Q 602.7 151.0, 599.9 151.0 Q 597.2 151.0, 595.7 149.3 Q 594.2 147.5, 594.2 144.5 M 599.9 149.6 Q 601.8 149.6, 602.9 148.3 Q 603.9 147.0, 603.9 144.5 Q 603.9 142.0, 602.9 140.8 Q 601.8 139.5, 599.9 139.5 Q 598.0 139.5, 597.0 140.7 Q 595.9 142.0, 595.9 144.5 Q 595.9 147.0, 597.0 148.3 Q 598.0 149.6, 599.9 149.6 " fill="#FF0000"/>
<path class="atom-21" d="M 479.3 255.4 Q 479.3 252.4, 480.8 250.7 Q 482.3 249.0, 485.0 249.0 Q 487.8 249.0, 489.3 250.7 Q 490.8 252.4, 490.8 255.4 Q 490.8 258.5, 489.3 260.2 Q 487.8 261.9, 485.0 261.9 Q 482.3 261.9, 480.8 260.2 Q 479.3 258.5, 479.3 255.4 M 485.0 260.5 Q 487.0 260.5, 488.0 259.2 Q 489.0 257.9, 489.0 255.4 Q 489.0 252.9, 488.0 251.7 Q 487.0 250.4, 485.0 250.4 Q 483.1 250.4, 482.1 251.7 Q 481.1 252.9, 481.1 255.4 Q 481.1 257.9, 482.1 259.2 Q 483.1 260.5, 485.0 260.5 " fill="#FF0000"/>
<path class="atom-22" d="M 440.8 189.0 Q 440.8 186.0, 442.3 184.3 Q 443.8 182.7, 446.6 182.7 Q 449.3 182.7, 450.8 184.3 Q 452.3 186.0, 452.3 189.0 Q 452.3 192.1, 450.8 193.8 Q 449.3 195.5, 446.6 195.5 Q 443.8 195.5, 442.3 193.8 Q 440.8 192.1, 440.8 189.0 M 446.6 194.1 Q 448.5 194.1, 449.5 192.8 Q 450.5 191.6, 450.5 189.0 Q 450.5 186.6, 449.5 185.3 Q 448.5 184.1, 446.6 184.1 Q 444.6 184.1, 443.6 185.3 Q 442.6 186.6, 442.6 189.0 Q 442.6 191.6, 443.6 192.8 Q 444.6 194.1, 446.6 194.1 " fill="#FF0000"/>
<path class="atom-26" d="M 287.4 189.3 Q 287.4 186.3, 288.9 184.6 Q 290.3 182.9, 293.1 182.9 Q 295.9 182.9, 297.4 184.6 Q 298.9 186.3, 298.9 189.3 Q 298.9 192.4, 297.4 194.1 Q 295.9 195.8, 293.1 195.8 Q 290.4 195.8, 288.9 194.1 Q 287.4 192.4, 287.4 189.3 M 293.1 194.4 Q 295.0 194.4, 296.1 193.1 Q 297.1 191.8, 297.1 189.3 Q 297.1 186.9, 296.1 185.6 Q 295.0 184.4, 293.1 184.4 Q 291.2 184.4, 290.2 185.6 Q 289.1 186.8, 289.1 189.3 Q 289.1 191.8, 290.2 193.1 Q 291.2 194.4, 293.1 194.4 " fill="#FF0000"/>
<path class="atom-28" d="M 249.1 255.8 Q 249.1 252.8, 250.6 251.1 Q 252.1 249.4, 254.9 249.4 Q 257.7 249.4, 259.2 251.1 Q 260.6 252.8, 260.6 255.8 Q 260.6 258.9, 259.1 260.6 Q 257.6 262.3, 254.9 262.3 Q 252.1 262.3, 250.6 260.6 Q 249.1 258.9, 249.1 255.8 M 254.9 260.9 Q 256.8 260.9, 257.8 259.6 Q 258.9 258.3, 258.9 255.8 Q 258.9 253.4, 257.8 252.1 Q 256.8 250.9, 254.9 250.9 Q 253.0 250.9, 251.9 252.1 Q 250.9 253.3, 250.9 255.8 Q 250.9 258.4, 251.9 259.6 Q 253.0 260.9, 254.9 260.9 " fill="#FF0000"/>
<path class="atom-32" d="M 133.8 145.3 Q 133.8 142.3, 135.3 140.6 Q 136.8 138.9, 139.6 138.9 Q 142.4 138.9, 143.9 140.6 Q 145.4 142.3, 145.4 145.3 Q 145.4 148.3, 143.9 150.1 Q 142.4 151.8, 139.6 151.8 Q 136.8 151.8, 135.3 150.1 Q 133.8 148.4, 133.8 145.3 M 139.6 150.4 Q 141.5 150.4, 142.5 149.1 Q 143.6 147.8, 143.6 145.3 Q 143.6 142.8, 142.5 141.6 Q 141.5 140.3, 139.6 140.3 Q 137.7 140.3, 136.6 141.6 Q 135.6 142.8, 135.6 145.3 Q 135.6 147.8, 136.6 149.1 Q 137.7 150.4, 139.6 150.4 " fill="#FF0000"/>
<path class="atom-33" d="M 95.6 211.8 Q 95.6 208.8, 97.1 207.1 Q 98.6 205.4, 101.4 205.4 Q 104.1 205.4, 105.6 207.1 Q 107.1 208.8, 107.1 211.8 Q 107.1 214.9, 105.6 216.6 Q 104.1 218.3, 101.4 218.3 Q 98.6 218.3, 97.1 216.6 Q 95.6 214.9, 95.6 211.8 M 101.4 216.9 Q 103.3 216.9, 104.3 215.6 Q 105.4 214.3, 105.4 211.8 Q 105.4 209.3, 104.3 208.1 Q 103.3 206.8, 101.4 206.8 Q 99.5 206.8, 98.4 208.1 Q 97.4 209.3, 97.4 211.8 Q 97.4 214.3, 98.4 215.6 Q 99.5 216.9, 101.4 216.9 " fill="#FF0000"/>
<path class="atom-34" d="M 60.6 188.3 L 62.4 186.4 L 60.0 185.9 L 60.4 184.7 L 62.6 185.8 L 62.3 183.3 L 63.6 183.3 L 63.3 185.8 L 65.5 184.7 L 65.9 185.9 L 63.5 186.4 L 65.2 188.3 L 64.1 189.1 L 62.9 186.7 L 61.7 189.1 L 60.6 188.3 " fill="#191919"/>
<path class="bond-0 atom-0 atom-1" d="M 529.2,611.7 L 542.5,604.0" style="fill:none;fill-rule:evenodd;stroke:#191919;stroke-width:2.0px;stroke-linecap:butt;stroke-linejoin:miter;stroke-opacity:1"/>
<path class="bond-0 atom-0 atom-1" d="M 542.5,604.0 L 555.9,596.3" style="fill:none;fill-rule:evenodd;stroke:#FF0000;stroke-width:2.0px;stroke-linecap:butt;stroke-linejoin:miter;stroke-opacity:1"/>
<path class="bond-1 atom-1 atom-2" d="M 570.3,596.3 L 585.9,605.3" style="fill:none;fill-rule:evenodd;stroke:#FF0000;stroke-width:2.0px;stroke-linecap:butt;stroke-linejoin:miter;stroke-opacity:1"/>
<path class="bond-1 atom-1 atom-2" d="M 585.9,605.3 L 601.5,614.2" style="fill:none;fill-rule:evenodd;stroke:#000000;stroke-width:2.0px;stroke-linecap:butt;stroke-linejoin:miter;stroke-opacity:1"/>
<path class="bond-2 atom-2 atom-3" d="M 601.5,614.2 L 639.8,592.1" style="fill:none;fill-rule:evenodd;stroke:#000000;stroke-width:2.0px;stroke-linecap:butt;stroke-linejoin:miter;stroke-opacity:1"/>
<path class="bond-3 atom-3 atom-4" d="M 639.8,592.1 L 678.2,614.2" style="fill:none;fill-rule:evenodd;stroke:#000000;stroke-width:2.0px;stroke-linecap:butt;stroke-linejoin:miter;stroke-opacity:1"/>
<path d="M 600.7,613.8 L 601.5,614.2 L 603.4,613.1" style="fill:none;stroke:#000000;stroke-width:2.0px;stroke-linecap:butt;stroke-linejoin:miter;stroke-opacity:1;"/>
<path d="M 637.9,593.2 L 639.8,592.1 L 641.8,593.2" style="fill:none;stroke:#000000;stroke-width:2.0px;stroke-linecap:butt;stroke-linejoin:miter;stroke-opacity:1;"/>
<path class="atom-0" d="M 522.4 612.8 L 524.2 611.0 L 521.8 610.5 L 522.2 609.2 L 524.4 610.3 L 524.1 607.9 L 525.4 607.9 L 525.1 610.3 L 527.3 609.3 L 527.7 610.5 L 525.3 610.9 L 527.0 612.8 L 525.9 613.6 L 524.7 611.3 L 523.5 613.6 L 522.4 612.8 " fill="#191919"/>
<path class="atom-1" d="M 557.4 592.1 Q 557.4 589.1, 558.9 587.4 Q 560.3 585.8, 563.1 585.8 Q 565.9 585.8, 567.4 587.4 Q 568.9 589.1, 568.9 592.1 Q 568.9 595.2, 567.4 596.9 Q 565.9 598.6, 563.1 598.6 Q 560.4 598.6, 558.9 596.9 Q 557.4 595.2, 557.4 592.1 M 563.1 597.2 Q 565.0 597.2, 566.1 595.9 Q 567.1 594.6, 567.1 592.1 Q 567.1 589.7, 566.1 588.4 Q 565.0 587.2, 563.1 587.2 Q 561.2 587.2, 560.2 588.4 Q 559.1 589.7, 559.1 592.1 Q 559.1 594.7, 560.2 595.9 Q 561.2 597.2, 563.1 597.2 " fill="#FF0000"/>
<path class="bond-0 atom-0 atom-1" d="M 575.0,999.9 L 591.3,999.9" style="fill:none;fill-rule:evenodd;stroke:#191919;stroke-width:2.0px;stroke-linecap:butt;stroke-linejoin:miter;stroke-opacity:1"/>
<path class="bond-0 atom-0 atom-1" d="M 591.3,999.9 L 607.6,999.9" style="fill:none;fill-rule:evenodd;stroke:#FF0000;stroke-width:2.0px;stroke-linecap:butt;stroke-linejoin:miter;stroke-opacity:1"/>
<path class="atom-0" d="M 568.2 998.5 L 570.1 996.6 L 567.6 996.1 L 568.0 994.9 L 570.2 996.0 L 569.9 993.6 L 571.2 993.5 L 570.9 996.0 L 573.2 994.9 L 573.5 996.1 L 571.1 996.6 L 572.8 998.5 L 571.8 999.3 L 570.5 996.9 L 569.3 999.3 L 568.2 998.5 " fill="#191919"/>
<path class="atom-1" d="M 609.1 1000.0 Q 609.1 996.9, 610.6 995.3 Q 612.1 993.6, 614.9 993.6 Q 617.6 993.6, 619.1 995.3 Q 620.6 996.9, 620.6 1000.0 Q 620.6 1003.0, 619.1 1004.7 Q 617.6 1006.5, 614.9 1006.5 Q 612.1 1006.5, 610.6 1004.7 Q 609.1 1003.0, 609.1 1000.0 M 614.9 1005.0 Q 616.8 1005.0, 617.8 1003.8 Q 618.9 1002.5, 618.9 1000.0 Q 618.9 997.5, 617.8 996.3 Q 616.8 995.0, 614.9 995.0 Q 613.0 995.0, 611.9 996.2 Q 610.9 997.5, 610.9 1000.0 Q 610.9 1002.5, 611.9 1003.8 Q 613.0 1005.0, 614.9 1005.0 " fill="#FF0000"/>
<path class="atom-1" d="M 622.6 993.7 L 624.3 993.7 L 624.3 999.1 L 630.7 999.1 L 630.7 993.7 L 632.4 993.7 L 632.4 1006.3 L 630.7 1006.3 L 630.7 1000.5 L 624.3 1000.5 L 624.3 1006.3 L 622.6 1006.3 L 622.6 993.7 " fill="#FF0000"/>
</svg>