<svg xmlns="http://www.w3.org/2000/svg" xmlns:rdkit="http://www.rdkit.org/xml" xmlns:xlink="http://www.w3.org/1999/xlink" version="1.1" baseProfile="full" xml:space="preserve" width="1200px" height="800px" viewBox="0 0 1200 800">
<!-- END OF HEADER -->
<rect style="opacity:1.0;fill:#FFFFFF;stroke:none" width="1200.0" height="800.0" x="0.0" y="0.0"> </rect>
<path class="bond-0 atom-0 atom-1" d="M 104.1,137.5 L 141.0,126.0" style="fill:none;fill-rule:evenodd;stroke:#191919;stroke-width:2.0px;stroke-linecap:butt;stroke-linejoin:miter;stroke-opacity:1"/>
<path class="bond-0 atom-0 atom-1" d="M 141.0,126.0 L 178.0,114.6" style="fill:none;fill-rule:evenodd;stroke:#FF0000;stroke-width:2.0px;stroke-linecap:butt;stroke-linejoin:miter;stroke-opacity:1"/>
<path class="bond-1 atom-1 atom-2" d="M 210.9,124.8 L 241.2,152.9" style="fill:none;fill-rule:evenodd;stroke:#FF0000;stroke-width:2.0px;stroke-linecap:butt;stroke-linejoin:miter;stroke-opacity:1"/>
<path class="bond-1 atom-1 atom-2" d="M 241.2,152.9 L 271.6,181.0" style="fill:none;fill-rule:evenodd;stroke:#000000;stroke-width:2.0px;stroke-linecap:butt;stroke-linejoin:miter;stroke-opacity:1"/>
<path class="bond-2 atom-2 atom-3" d="M 271.6,181.0 L 372.1,150.0" style="fill:none;fill-rule:evenodd;stroke:#000000;stroke-width:2.0px;stroke-linecap:butt;stroke-linejoin:miter;stroke-opacity:1"/>
<path class="bond-3 atom-3 atom-4" d="M 372.1,150.0 L 449.2,221.5" style="fill:none;fill-rule:evenodd;stroke:#000000;stroke-width:2.0px;stroke-linecap:butt;stroke-linejoin:miter;stroke-opacity:1"/>
<path class="bond-4 atom-4 atom-5" d="M 449.2,221.5 L 491.3,208.5" style="fill:none;fill-rule:evenodd;stroke:#000000;stroke-width:2.0px;stroke-linecap:butt;stroke-linejoin:miter;stroke-opacity:1"/>
<path class="bond-4 atom-4 atom-5" d="M 491.3,208.5 L 533.3,195.5" style="fill:none;fill-rule:evenodd;stroke:#FF0000;stroke-width:2.0px;stroke-linecap:butt;stroke-linejoin:miter;stroke-opacity:1"/>
<path class="bond-5 atom-5 atom-6" d="M 566.2,205.7 L 596.6,233.8" style="fill:none;fill-rule:evenodd;stroke:#FF0000;stroke-width:2.0px;stroke-linecap:butt;stroke-linejoin:miter;stroke-opacity:1"/>
<path class="bond-5 atom-5 atom-6" d="M 596.6,233.8 L 626.9,261.9" style="fill:none;fill-rule:evenodd;stroke:#000000;stroke-width:2.0px;stroke-linecap:butt;stroke-linejoin:miter;stroke-opacity:1"/>
<path class="bond-6 atom-6 atom-7" d="M 620.2,255.7 L 610.1,300.3" style="fill:none;fill-rule:evenodd;stroke:#000000;stroke-width:2.0px;stroke-linecap:butt;stroke-linejoin:miter;stroke-opacity:1"/>
<path class="bond-6 atom-6 atom-7" d="M 610.1,300.3 L 599.9,344.9" style="fill:none;fill-rule:evenodd;stroke:#FF0000;stroke-width:2.0px;stroke-linecap:butt;stroke-linejoin:miter;stroke-opacity:1"/>
<path class="bond-6 atom-6 atom-7" d="M 635.6,259.2 L 625.5,303.8" style="fill:none;fill-rule:evenodd;stroke:#000000;stroke-width:2.0px;stroke-linecap:butt;stroke-linejoin:miter;stroke-opacity:1"/>
<path class="bond-6 atom-6 atom-7" d="M 625.5,303.8 L 615.3,348.4" style="fill:none;fill-rule:evenodd;stroke:#FF0000;stroke-width:2.0px;stroke-linecap:butt;stroke-linejoin:miter;stroke-opacity:1"/>
<path class="bond-7 atom-6 atom-8" d="M 626.9,261.9 L 727.4,230.8" style="fill:none;fill-rule:evenodd;stroke:#000000;stroke-width:2.0px;stroke-linecap:butt;stroke-linejoin:miter;stroke-opacity:1"/>
<path class="bond-8 atom-8 atom-9" d="M 727.4,230.8 L 750.8,128.3" style="fill:none;fill-rule:evenodd;stroke:#000000;stroke-width:2.0px;stroke-linecap:butt;stroke-linejoin:miter;stroke-opacity:1"/>
<path class="bond-8 atom-8 atom-9" d="M 744.8,225.5 L 764.1,140.7" style="fill:none;fill-rule:evenodd;stroke:#000000;stroke-width:2.0px;stroke-linecap:butt;stroke-linejoin:miter;stroke-opacity:1"/>
<path class="bond-9 atom-9 atom-10" d="M 750.8,128.3 L 851.3,97.2" style="fill:none;fill-rule:evenodd;stroke:#000000;stroke-width:2.0px;stroke-linecap:butt;stroke-linejoin:miter;stroke-opacity:1"/>
<path class="bond-10 atom-10 atom-11" d="M 851.3,97.2 L 928.4,168.7" style="fill:none;fill-rule:evenodd;stroke:#000000;stroke-width:2.0px;stroke-linecap:butt;stroke-linejoin:miter;stroke-opacity:1"/>
<path class="bond-10 atom-10 atom-11" d="M 847.2,115.0 L 911.0,174.1" style="fill:none;fill-rule:evenodd;stroke:#000000;stroke-width:2.0px;stroke-linecap:butt;stroke-linejoin:miter;stroke-opacity:1"/>
<path class="bond-11 atom-11 atom-12" d="M 928.4,168.7 L 1028.9,137.6" style="fill:none;fill-rule:evenodd;stroke:#000000;stroke-width:2.0px;stroke-linecap:butt;stroke-linejoin:miter;stroke-opacity:1"/>
<path class="bond-12 atom-12 atom-13" d="M 1028.9,137.6 L 1062.4,168.7" style="fill:none;fill-rule:evenodd;stroke:#000000;stroke-width:2.0px;stroke-linecap:butt;stroke-linejoin:miter;stroke-opacity:1"/>
<path class="bond-12 atom-12 atom-13" d="M 1062.4,168.7 L 1095.9,199.7" style="fill:none;fill-rule:evenodd;stroke:#191919;stroke-width:2.0px;stroke-linecap:butt;stroke-linejoin:miter;stroke-opacity:1"/>
<path class="bond-13 atom-12 atom-14" d="M 1035.6,143.8 L 1045.7,99.4" style="fill:none;fill-rule:evenodd;stroke:#000000;stroke-width:2.0px;stroke-linecap:butt;stroke-linejoin:miter;stroke-opacity:1"/>
<path class="bond-13 atom-12 atom-14" d="M 1045.7,99.4 L 1055.8,55.1" style="fill:none;fill-rule:evenodd;stroke:#FF0000;stroke-width:2.0px;stroke-linecap:butt;stroke-linejoin:miter;stroke-opacity:1"/>
<path class="bond-13 atom-12 atom-14" d="M 1020.2,140.3 L 1030.3,95.9" style="fill:none;fill-rule:evenodd;stroke:#000000;stroke-width:2.0px;stroke-linecap:butt;stroke-linejoin:miter;stroke-opacity:1"/>
<path class="bond-13 atom-12 atom-14" d="M 1030.3,95.9 L 1040.4,51.6" style="fill:none;fill-rule:evenodd;stroke:#FF0000;stroke-width:2.0px;stroke-linecap:butt;stroke-linejoin:miter;stroke-opacity:1"/>
<path class="bond-14 atom-11 atom-15" d="M 928.4,168.7 L 905.1,271.3" style="fill:none;fill-rule:evenodd;stroke:#000000;stroke-width:2.0px;stroke-linecap:butt;stroke-linejoin:miter;stroke-opacity:1"/>
<path class="bond-15 atom-15 atom-16" d="M 905.1,271.3 L 804.6,302.4" style="fill:none;fill-rule:evenodd;stroke:#000000;stroke-width:2.0px;stroke-linecap:butt;stroke-linejoin:miter;stroke-opacity:1"/>
<path class="bond-15 atom-15 atom-16" d="M 891.7,258.9 L 808.6,284.6" style="fill:none;fill-rule:evenodd;stroke:#000000;stroke-width:2.0px;stroke-linecap:butt;stroke-linejoin:miter;stroke-opacity:1"/>
<path class="bond-16 atom-16 atom-8" d="M 804.6,302.4 L 727.4,230.8" style="fill:none;fill-rule:evenodd;stroke:#000000;stroke-width:2.0px;stroke-linecap:butt;stroke-linejoin:miter;stroke-opacity:1"/>
<path d="M 270.1,179.6 L 271.6,181.0 L 276.6,179.5" style="fill:none;stroke:#000000;stroke-width:2.0px;stroke-linecap:butt;stroke-linejoin:miter;stroke-opacity:1;"/>
<path d="M 367.1,151.5 L 372.1,150.0 L 375.9,153.5" style="fill:none;stroke:#000000;stroke-width:2.0px;stroke-linecap:butt;stroke-linejoin:miter;stroke-opacity:1;"/>
<path d="M 445.4,217.9 L 449.2,221.5 L 451.3,220.8" style="fill:none;stroke:#000000;stroke-width:2.0px;stroke-linecap:butt;stroke-linejoin:miter;stroke-opacity:1;"/>
<path d="M 625.4,260.5 L 626.9,261.9 L 631.9,260.4" style="fill:none;stroke:#000000;stroke-width:2.0px;stroke-linecap:butt;stroke-linejoin:miter;stroke-opacity:1;"/>
<path d="M 749.6,133.4 L 750.8,128.3 L 755.8,126.7" style="fill:none;stroke:#000000;stroke-width:2.0px;stroke-linecap:butt;stroke-linejoin:miter;stroke-opacity:1;"/>
<path d="M 846.2,98.8 L 851.3,97.2 L 855.1,100.8" style="fill:none;stroke:#000000;stroke-width:2.0px;stroke-linecap:butt;stroke-linejoin:miter;stroke-opacity:1;"/>
<path d="M 1023.9,139.2 L 1028.9,137.6 L 1030.6,139.2" style="fill:none;stroke:#000000;stroke-width:2.0px;stroke-linecap:butt;stroke-linejoin:miter;stroke-opacity:1;"/>
<path d="M 906.2,266.2 L 905.1,271.3 L 900.0,272.8" style="fill:none;stroke:#000000;stroke-width:2.0px;stroke-linecap:butt;stroke-linejoin:miter;stroke-opacity:1;"/>
<path d="M 809.6,300.8 L 804.6,302.4 L 800.7,298.8" style="fill:none;stroke:#000000;stroke-width:2.0px;stroke-linecap:butt;stroke-linejoin:miter;stroke-opacity:1;"/>
<path class="atom-0" d="M 88.6 137.4 L 92.8 133.2 L 87.2 132.1 L 88.1 129.2 L 93.2 131.8 L 92.4 126.2 L 95.4 126.2 L 94.6 131.8 L 99.8 129.4 L 100.6 132.1 L 95.0 133.1 L 99.0 137.4 L 96.6 139.2 L 93.8 133.9 L 91.0 139.2 L 88.6 137.4 " fill="#191919"/>
<path class="atom-1" d="M 181.4 109.6 Q 181.4 102.8, 184.8 99.0 Q 188.2 95.2, 194.4 95.2 Q 200.7 95.2, 204.1 99.0 Q 207.4 102.8, 207.4 109.6 Q 207.4 116.5, 204.0 120.4 Q 200.6 124.3, 194.4 124.3 Q 188.2 124.3, 184.8 120.4 Q 181.4 116.5, 181.4 109.6 M 194.4 121.1 Q 198.8 121.1, 201.1 118.2 Q 203.4 115.3, 203.4 109.6 Q 203.4 104.1, 201.1 101.3 Q 198.8 98.4, 194.4 98.4 Q 190.1 98.4, 187.8 101.2 Q 185.4 104.0, 185.4 109.6 Q 185.4 115.3, 187.8 118.2 Q 190.1 121.1, 194.4 121.1 " fill="#FF0000"/>
<path class="atom-5" d="M 536.7 190.5 Q 536.7 183.7, 540.1 179.9 Q 543.5 176.1, 549.7 176.1 Q 556.0 176.1, 559.4 179.9 Q 562.7 183.7, 562.7 190.5 Q 562.7 197.4, 559.3 201.3 Q 555.9 205.2, 549.7 205.2 Q 543.5 205.2, 540.1 201.3 Q 536.7 197.4, 536.7 190.5 M 549.7 202.0 Q 554.1 202.0, 556.4 199.1 Q 558.7 196.2, 558.7 190.5 Q 558.7 184.9, 556.4 182.1 Q 554.1 179.3, 549.7 179.3 Q 545.4 179.3, 543.1 182.1 Q 540.7 184.9, 540.7 190.5 Q 540.7 196.2, 543.1 199.1 Q 545.4 202.0, 549.7 202.0 " fill="#FF0000"/>
<path class="atom-7" d="M 590.6 364.6 Q 590.6 357.8, 593.9 354.0 Q 597.3 350.2, 603.6 350.2 Q 609.8 350.2, 613.2 354.0 Q 616.6 357.8, 616.6 364.6 Q 616.6 371.4, 613.2 375.4 Q 609.8 379.2, 603.6 379.2 Q 597.3 379.2, 593.9 375.4 Q 590.6 371.5, 590.6 364.6 M 603.6 376.0 Q 607.9 376.0, 610.2 373.2 Q 612.6 370.2, 612.6 364.6 Q 612.6 359.0, 610.2 356.2 Q 607.9 353.4, 603.6 353.4 Q 599.2 353.4, 596.9 356.2 Q 594.6 359.0, 594.6 364.6 Q 594.6 370.3, 596.9 373.2 Q 599.2 376.0, 603.6 376.0 " fill="#FF0000"/>
<path class="atom-13" d="M 1100.7 206.0 L 1104.9 201.7 L 1099.4 200.6 L 1100.2 197.8 L 1105.3 200.3 L 1104.6 194.8 L 1107.6 194.7 L 1106.7 200.3 L 1111.9 197.9 L 1112.8 200.6 L 1107.2 201.7 L 1111.2 205.9 L 1108.7 207.7 L 1106.0 202.4 L 1103.2 207.7 L 1100.7 206.0 " fill="#191919"/>
<path class="atom-14" d="M 1039.3 35.2 Q 1039.3 28.4, 1042.6 24.6 Q 1046.0 20.8, 1052.3 20.8 Q 1058.5 20.8, 1061.9 24.6 Q 1065.3 28.4, 1065.3 35.2 Q 1065.3 42.0, 1061.9 46.0 Q 1058.5 49.8, 1052.3 49.8 Q 1046.0 49.8, 1042.6 46.0 Q 1039.3 42.1, 1039.3 35.2 M 1052.3 46.6 Q 1056.6 46.6, 1058.9 43.8 Q 1061.3 40.8, 1061.3 35.2 Q 1061.3 29.6, 1058.9 26.8 Q 1056.6 24.0, 1052.3 24.0 Q 1047.9 24.0, 1045.6 26.8 Q 1043.3 29.6, 1043.3 35.2 Q 1043.3 40.9, 1045.6 43.8 Q 1047.9 46.6, 1052.3 46.6 " fill="#FF0000"/>
<path class="bond-0 atom-0 atom-1" d="M 155.0,595.4 L 188.1,577.9" style="fill:none;fill-rule:evenodd;stroke:#191919;stroke-width:2.0px;stroke-linecap:butt;stroke-linejoin:miter;stroke-opacity:1"/>
<path class="bond-0 atom-0 atom-1" d="M 188.1,577.9 L 221.3,560.3" style="fill:none;fill-rule:evenodd;stroke:#FF0000;stroke-width:2.0px;stroke-linecap:butt;stroke-linejoin:miter;stroke-opacity:1"/>
<path class="bond-1 atom-1 atom-2" d="M 254.3,562.0 L 290.6,584.8" style="fill:none;fill-rule:evenodd;stroke:#FF0000;stroke-width:2.0px;stroke-linecap:butt;stroke-linejoin:miter;stroke-opacity:1"/>
<path class="bond-1 atom-1 atom-2" d="M 290.6,584.8 L 326.9,607.6" style="fill:none;fill-rule:evenodd;stroke:#000000;stroke-width:2.0px;stroke-linecap:butt;stroke-linejoin:miter;stroke-opacity:1"/>
<path class="bond-2 atom-2 atom-3" d="M 326.9,607.6 L 419.9,558.4" style="fill:none;fill-rule:evenodd;stroke:#000000;stroke-width:2.0px;stroke-linecap:butt;stroke-linejoin:miter;stroke-opacity:1"/>
<path class="bond-3 atom-3 atom-4" d="M 419.9,558.4 L 509.0,614.3" style="fill:none;fill-rule:evenodd;stroke:#000000;stroke-width:2.0px;stroke-linecap:butt;stroke-linejoin:miter;stroke-opacity:1"/>
<path class="bond-4 atom-4 atom-5" d="M 509.0,614.3 L 547.2,594.0" style="fill:none;fill-rule:evenodd;stroke:#000000;stroke-width:2.0px;stroke-linecap:butt;stroke-linejoin:miter;stroke-opacity:1"/>
<path class="bond-4 atom-4 atom-5" d="M 547.2,594.0 L 585.5,573.8" style="fill:none;fill-rule:evenodd;stroke:#FF0000;stroke-width:2.0px;stroke-linecap:butt;stroke-linejoin:miter;stroke-opacity:1"/>
<path class="bond-5 atom-5 atom-6" d="M 618.4,575.4 L 654.7,598.2" style="fill:none;fill-rule:evenodd;stroke:#FF0000;stroke-width:2.0px;stroke-linecap:butt;stroke-linejoin:miter;stroke-opacity:1"/>
<path class="bond-5 atom-5 atom-6" d="M 654.7,598.2 L 691.0,621.0" style="fill:none;fill-rule:evenodd;stroke:#000000;stroke-width:2.0px;stroke-linecap:butt;stroke-linejoin:miter;stroke-opacity:1"/>
<path class="bond-6 atom-6 atom-7" d="M 683.3,616.2 L 681.6,662.1" style="fill:none;fill-rule:evenodd;stroke:#000000;stroke-width:2.0px;stroke-linecap:butt;stroke-linejoin:miter;stroke-opacity:1"/>
<path class="bond-6 atom-6 atom-7" d="M 681.6,662.1 L 679.9,708.1" style="fill:none;fill-rule:evenodd;stroke:#FF0000;stroke-width:2.0px;stroke-linecap:butt;stroke-linejoin:miter;stroke-opacity:1"/>
<path class="bond-6 atom-6 atom-7" d="M 699.1,616.8 L 697.4,662.7" style="fill:none;fill-rule:evenodd;stroke:#000000;stroke-width:2.0px;stroke-linecap:butt;stroke-linejoin:miter;stroke-opacity:1"/>
<path class="bond-6 atom-6 atom-7" d="M 697.4,662.7 L 695.7,708.6" style="fill:none;fill-rule:evenodd;stroke:#FF0000;stroke-width:2.0px;stroke-linecap:butt;stroke-linejoin:miter;stroke-opacity:1"/>
<path class="bond-7 atom-6 atom-8" d="M 691.0,621.0 L 784.0,571.8" style="fill:none;fill-rule:evenodd;stroke:#000000;stroke-width:2.0px;stroke-linecap:butt;stroke-linejoin:miter;stroke-opacity:1"/>
<path class="bond-8 atom-8 atom-9" d="M 784.0,571.8 L 873.1,627.7" style="fill:none;fill-rule:evenodd;stroke:#000000;stroke-width:2.0px;stroke-linecap:butt;stroke-linejoin:miter;stroke-opacity:1"/>
<path class="bond-9 atom-9 atom-10" d="M 873.1,627.7 L 966.1,578.5" style="fill:none;fill-rule:evenodd;stroke:#000000;stroke-width:2.0px;stroke-linecap:butt;stroke-linejoin:miter;stroke-opacity:1"/>
<path class="bond-10 atom-10 atom-11" d="M 966.1,578.5 L 1005.6,603.3" style="fill:none;fill-rule:evenodd;stroke:#000000;stroke-width:2.0px;stroke-linecap:butt;stroke-linejoin:miter;stroke-opacity:1"/>
<path class="bond-10 atom-10 atom-11" d="M 1005.6,603.3 L 1045.0,628.1" style="fill:none;fill-rule:evenodd;stroke:#191919;stroke-width:2.0px;stroke-linecap:butt;stroke-linejoin:miter;stroke-opacity:1"/>
<path class="bond-11 atom-10 atom-12" d="M 973.8,583.4 L 975.5,537.7" style="fill:none;fill-rule:evenodd;stroke:#000000;stroke-width:2.0px;stroke-linecap:butt;stroke-linejoin:miter;stroke-opacity:1"/>
<path class="bond-11 atom-10 atom-12" d="M 975.5,537.7 L 977.2,491.9" style="fill:none;fill-rule:evenodd;stroke:#FF0000;stroke-width:2.0px;stroke-linecap:butt;stroke-linejoin:miter;stroke-opacity:1"/>
<path class="bond-11 atom-10 atom-12" d="M 958.0,582.8 L 959.7,537.1" style="fill:none;fill-rule:evenodd;stroke:#000000;stroke-width:2.0px;stroke-linecap:butt;stroke-linejoin:miter;stroke-opacity:1"/>
<path class="bond-11 atom-10 atom-12" d="M 959.7,537.1 L 961.4,491.4" style="fill:none;fill-rule:evenodd;stroke:#FF0000;stroke-width:2.0px;stroke-linecap:butt;stroke-linejoin:miter;stroke-opacity:1"/>
<path d="M 325.1,606.4 L 326.9,607.6 L 331.5,605.1" style="fill:none;stroke:#000000;stroke-width:2.0px;stroke-linecap:butt;stroke-linejoin:miter;stroke-opacity:1;"/>
<path d="M 415.2,560.8 L 419.9,558.4 L 424.3,561.2" style="fill:none;stroke:#000000;stroke-width:2.0px;stroke-linecap:butt;stroke-linejoin:miter;stroke-opacity:1;"/>
<path d="M 504.5,611.5 L 509.0,614.3 L 510.9,613.3" style="fill:none;stroke:#000000;stroke-width:2.0px;stroke-linecap:butt;stroke-linejoin:miter;stroke-opacity:1;"/>
<path d="M 689.2,619.9 L 691.0,621.0 L 695.7,618.6" style="fill:none;stroke:#000000;stroke-width:2.0px;stroke-linecap:butt;stroke-linejoin:miter;stroke-opacity:1;"/>
<path d="M 779.4,574.3 L 784.0,571.8 L 788.5,574.6" style="fill:none;stroke:#000000;stroke-width:2.0px;stroke-linecap:butt;stroke-linejoin:miter;stroke-opacity:1;"/>
<path d="M 868.7,624.9 L 873.1,627.7 L 877.8,625.3" style="fill:none;stroke:#000000;stroke-width:2.0px;stroke-linecap:butt;stroke-linejoin:miter;stroke-opacity:1;"/>
<path d="M 961.4,581.0 L 966.1,578.5 L 968.1,579.8" style="fill:none;stroke:#000000;stroke-width:2.0px;stroke-linecap:butt;stroke-linejoin:miter;stroke-opacity:1;"/>
<path class="atom-0" d="M 139.5 597.7 L 143.6 593.4 L 138.1 592.3 L 138.9 589.5 L 144.0 592.0 L 143.3 586.5 L 146.3 586.4 L 145.5 592.0 L 150.6 589.6 L 151.5 592.3 L 145.9 593.3 L 149.9 597.6 L 147.5 599.4 L 144.7 594.1 L 141.9 599.4 L 139.5 597.7 " fill="#191919"/>
<path class="atom-1" d="M 224.8 551.7 Q 224.8 544.9, 228.1 541.1 Q 231.5 537.3, 237.8 537.3 Q 244.1 537.3, 247.4 541.1 Q 250.8 544.9, 250.8 551.7 Q 250.8 558.6, 247.4 562.5 Q 244.0 566.4, 237.8 566.4 Q 231.5 566.4, 228.1 562.5 Q 224.8 558.6, 224.8 551.7 M 237.8 563.2 Q 242.1 563.2, 244.4 560.3 Q 246.8 557.4, 246.8 551.7 Q 246.8 546.1, 244.4 543.3 Q 242.1 540.5, 237.8 540.5 Q 233.5 540.5, 231.1 543.3 Q 228.8 546.1, 228.8 551.7 Q 228.8 557.4, 231.1 560.3 Q 233.5 563.2, 237.8 563.2 " fill="#FF0000"/>
<path class="atom-5" d="M 588.9 565.2 Q 588.9 558.4, 592.3 554.6 Q 595.7 550.8, 601.9 550.8 Q 608.2 550.8, 611.6 554.6 Q 614.9 558.4, 614.9 565.2 Q 614.9 572.0, 611.5 576.0 Q 608.1 579.8, 601.9 579.8 Q 595.7 579.8, 592.3 576.0 Q 588.9 572.1, 588.9 565.2 M 601.9 576.6 Q 606.3 576.6, 608.6 573.8 Q 610.9 570.8, 610.9 565.2 Q 610.9 559.6, 608.6 556.8 Q 606.3 554.0, 601.9 554.0 Q 597.6 554.0, 595.3 556.8 Q 592.9 559.6, 592.9 565.2 Q 592.9 570.9, 595.3 573.8 Q 597.6 576.6, 601.9 576.6 " fill="#FF0000"/>
<path class="atom-7" d="M 674.2 726.2 Q 674.2 719.4, 677.5 715.6 Q 680.9 711.8, 687.2 711.8 Q 693.4 711.8, 696.8 715.6 Q 700.2 719.4, 700.2 726.2 Q 700.2 733.1, 696.8 737.0 Q 693.4 740.9, 687.2 740.9 Q 680.9 740.9, 677.5 737.0 Q 674.2 733.1, 674.2 726.2 M 687.2 737.7 Q 691.5 737.7, 693.8 734.8 Q 696.2 731.9, 696.2 726.2 Q 696.2 720.7, 693.8 717.9 Q 691.5 715.0, 687.2 715.0 Q 682.8 715.0, 680.5 717.8 Q 678.2 720.6, 678.2 726.2 Q 678.2 731.9, 680.5 734.8 Q 682.8 737.7, 687.2 737.7 " fill="#FF0000"/>
<path class="atom-11" d="M 1049.9 631.3 L 1054.0 627.1 L 1048.5 626.0 L 1049.3 623.1 L 1054.4 625.7 L 1053.7 620.1 L 1056.7 620.1 L 1055.9 625.6 L 1061.0 623.2 L 1061.9 626.0 L 1056.3 627.0 L 1060.3 631.3 L 1057.9 633.0 L 1055.1 627.8 L 1052.3 633.0 L 1049.9 631.3 " fill="#191919"/>
<path class="atom-12" d="M 957.0 473.5 Q 957.0 466.7, 960.3 462.9 Q 963.7 459.1, 970.0 459.1 Q 976.3 459.1, 979.6 462.9 Q 983.0 466.7, 983.0 473.5 Q 983.0 480.4, 979.6 484.3 Q 976.2 488.2, 970.0 488.2 Q 963.7 488.2, 960.3 484.3 Q 957.0 480.4, 957.0 473.5 M 970.0 485.0 Q 974.3 485.0, 976.6 482.1 Q 979.0 479.2, 979.0 473.5 Q 979.0 467.9, 976.6 465.1 Q 974.3 462.3, 970.0 462.3 Q 965.7 462.3, 963.3 465.1 Q 961.0 467.9, 961.0 473.5 Q 961.0 479.2, 963.3 482.1 Q 965.7 485.0, 970.0 485.0 " fill="#FF0000"/>
</svg>