<svg xmlns="http://www.w3.org/2000/svg" xmlns:rdkit="http://www.rdkit.org/xml" xmlns:xlink="http://www.w3.org/1999/xlink" version="1.1" baseProfile="full" xml:space="preserve" width="1200px" height="800px" viewBox="0 0 1200 800">
<!-- END OF HEADER -->
<rect style="opacity:1.0;fill:#FFFFFF;stroke:none" width="1200.0" height="800.0" x="0.0" y="0.0"> </rect>
<path class="bond-0 atom-0 atom-1" d="M 455.6,183.1 L 471.9,185.9" style="fill:none;fill-rule:evenodd;stroke:#191919;stroke-width:2.0px;stroke-linecap:butt;stroke-linejoin:miter;stroke-opacity:1"/>
<path class="bond-0 atom-0 atom-1" d="M 471.9,185.9 L 488.2,188.7" style="fill:none;fill-rule:evenodd;stroke:#FF0000;stroke-width:2.0px;stroke-linecap:butt;stroke-linejoin:miter;stroke-opacity:1"/>
<path class="bond-1 atom-1 atom-2" d="M 498.6,198.1 L 504.9,215.2" style="fill:none;fill-rule:evenodd;stroke:#FF0000;stroke-width:2.0px;stroke-linecap:butt;stroke-linejoin:miter;stroke-opacity:1"/>
<path class="bond-1 atom-1 atom-2" d="M 504.9,215.2 L 511.2,232.3" style="fill:none;fill-rule:evenodd;stroke:#000000;stroke-width:2.0px;stroke-linecap:butt;stroke-linejoin:miter;stroke-opacity:1"/>
<path class="bond-2 atom-2 atom-3" d="M 511.2,232.3 L 555.7,239.9" style="fill:none;fill-rule:evenodd;stroke:#000000;stroke-width:2.0px;stroke-linecap:butt;stroke-linejoin:miter;stroke-opacity:1"/>
<path class="bond-3 atom-3 atom-4" d="M 555.7,239.9 L 600.1,247.5" style="fill:none;fill-rule:evenodd;stroke:#000000;stroke-width:2.0px;stroke-linecap:butt;stroke-linejoin:miter;stroke-opacity:1"/>
<path class="bond-4 atom-4 atom-5" d="M 600.1,247.5 L 611.2,234.2" style="fill:none;fill-rule:evenodd;stroke:#000000;stroke-width:2.0px;stroke-linecap:butt;stroke-linejoin:miter;stroke-opacity:1"/>
<path class="bond-4 atom-4 atom-5" d="M 611.2,234.2 L 622.2,221.0" style="fill:none;fill-rule:evenodd;stroke:#FF0000;stroke-width:2.0px;stroke-linecap:butt;stroke-linejoin:miter;stroke-opacity:1"/>
<path class="bond-5 atom-5 atom-6" d="M 636.3,214.1 L 654.9,217.2" style="fill:none;fill-rule:evenodd;stroke:#FF0000;stroke-width:2.0px;stroke-linecap:butt;stroke-linejoin:miter;stroke-opacity:1"/>
<path class="bond-5 atom-5 atom-6" d="M 654.9,217.2 L 673.4,220.4" style="fill:none;fill-rule:evenodd;stroke:#000000;stroke-width:2.0px;stroke-linecap:butt;stroke-linejoin:miter;stroke-opacity:1"/>
<path class="bond-6 atom-6 atom-7" d="M 673.4,220.4 L 702.3,185.7" style="fill:none;fill-rule:evenodd;stroke:#000000;stroke-width:2.0px;stroke-linecap:butt;stroke-linejoin:miter;stroke-opacity:1"/>
<path class="bond-7 atom-7 atom-8" d="M 702.3,185.7 L 746.8,193.3" style="fill:none;fill-rule:evenodd;stroke:#000000;stroke-width:2.0px;stroke-linecap:butt;stroke-linejoin:miter;stroke-opacity:1"/>
<path class="bond-7 atom-7 atom-8" d="M 707.3,179.7 L 744.0,186.0" style="fill:none;fill-rule:evenodd;stroke:#000000;stroke-width:2.0px;stroke-linecap:butt;stroke-linejoin:miter;stroke-opacity:1"/>
<path class="bond-8 atom-8 atom-9" d="M 746.8,193.3 L 775.6,158.6" style="fill:none;fill-rule:evenodd;stroke:#000000;stroke-width:2.0px;stroke-linecap:butt;stroke-linejoin:miter;stroke-opacity:1"/>
<path class="bond-9 atom-9 atom-10" d="M 775.6,158.6 L 759.9,116.3" style="fill:none;fill-rule:evenodd;stroke:#000000;stroke-width:2.0px;stroke-linecap:butt;stroke-linejoin:miter;stroke-opacity:1"/>
<path class="bond-9 atom-9 atom-10" d="M 767.9,157.3 L 754.9,122.3" style="fill:none;fill-rule:evenodd;stroke:#000000;stroke-width:2.0px;stroke-linecap:butt;stroke-linejoin:miter;stroke-opacity:1"/>
<path class="bond-10 atom-10 atom-11" d="M 759.9,116.3 L 715.5,108.7" style="fill:none;fill-rule:evenodd;stroke:#000000;stroke-width:2.0px;stroke-linecap:butt;stroke-linejoin:miter;stroke-opacity:1"/>
<path class="bond-11 atom-11 atom-12" d="M 715.5,108.7 L 686.6,143.4" style="fill:none;fill-rule:evenodd;stroke:#000000;stroke-width:2.0px;stroke-linecap:butt;stroke-linejoin:miter;stroke-opacity:1"/>
<path class="bond-11 atom-11 atom-12" d="M 718.2,116.0 L 694.3,144.7" style="fill:none;fill-rule:evenodd;stroke:#000000;stroke-width:2.0px;stroke-linecap:butt;stroke-linejoin:miter;stroke-opacity:1"/>
<path class="bond-12 atom-3 atom-13" d="M 555.7,239.9 L 563.3,195.4" style="fill:none;fill-rule:evenodd;stroke:#000000;stroke-width:2.0px;stroke-linecap:butt;stroke-linejoin:miter;stroke-opacity:1"/>
<path class="bond-13 atom-13 atom-14" d="M 563.3,195.4 L 549.6,184.1" style="fill:none;fill-rule:evenodd;stroke:#000000;stroke-width:2.0px;stroke-linecap:butt;stroke-linejoin:miter;stroke-opacity:1"/>
<path class="bond-13 atom-13 atom-14" d="M 549.6,184.1 L 535.9,172.7" style="fill:none;fill-rule:evenodd;stroke:#FF0000;stroke-width:2.0px;stroke-linecap:butt;stroke-linejoin:miter;stroke-opacity:1"/>
<path class="bond-14 atom-14 atom-15" d="M 529.9,158.7 L 533.0,140.4" style="fill:none;fill-rule:evenodd;stroke:#FF0000;stroke-width:2.0px;stroke-linecap:butt;stroke-linejoin:miter;stroke-opacity:1"/>
<path class="bond-14 atom-14 atom-15" d="M 533.0,140.4 L 536.2,122.1" style="fill:none;fill-rule:evenodd;stroke:#000000;stroke-width:2.0px;stroke-linecap:butt;stroke-linejoin:miter;stroke-opacity:1"/>
<path class="bond-15 atom-15 atom-16" d="M 536.2,122.1 L 501.5,93.3" style="fill:none;fill-rule:evenodd;stroke:#000000;stroke-width:2.0px;stroke-linecap:butt;stroke-linejoin:miter;stroke-opacity:1"/>
<path class="bond-16 atom-16 atom-17" d="M 501.5,93.3 L 509.1,48.8" style="fill:none;fill-rule:evenodd;stroke:#000000;stroke-width:2.0px;stroke-linecap:butt;stroke-linejoin:miter;stroke-opacity:1"/>
<path class="bond-16 atom-16 atom-17" d="M 495.4,88.3 L 501.7,51.5" style="fill:none;fill-rule:evenodd;stroke:#000000;stroke-width:2.0px;stroke-linecap:butt;stroke-linejoin:miter;stroke-opacity:1"/>
<path class="bond-17 atom-17 atom-18" d="M 509.1,48.8 L 474.4,20.0" style="fill:none;fill-rule:evenodd;stroke:#000000;stroke-width:2.0px;stroke-linecap:butt;stroke-linejoin:miter;stroke-opacity:1"/>
<path class="bond-18 atom-18 atom-19" d="M 474.4,20.0 L 432.0,35.6" style="fill:none;fill-rule:evenodd;stroke:#000000;stroke-width:2.0px;stroke-linecap:butt;stroke-linejoin:miter;stroke-opacity:1"/>
<path class="bond-18 atom-18 atom-19" d="M 473.0,27.7 L 438.0,40.6" style="fill:none;fill-rule:evenodd;stroke:#000000;stroke-width:2.0px;stroke-linecap:butt;stroke-linejoin:miter;stroke-opacity:1"/>
<path class="bond-19 atom-19 atom-20" d="M 432.0,35.6 L 424.4,80.1" style="fill:none;fill-rule:evenodd;stroke:#000000;stroke-width:2.0px;stroke-linecap:butt;stroke-linejoin:miter;stroke-opacity:1"/>
<path class="bond-20 atom-20 atom-21" d="M 424.4,80.1 L 459.1,109.0" style="fill:none;fill-rule:evenodd;stroke:#000000;stroke-width:2.0px;stroke-linecap:butt;stroke-linejoin:miter;stroke-opacity:1"/>
<path class="bond-20 atom-20 atom-21" d="M 431.8,77.4 L 460.5,101.2" style="fill:none;fill-rule:evenodd;stroke:#000000;stroke-width:2.0px;stroke-linecap:butt;stroke-linejoin:miter;stroke-opacity:1"/>
<path class="bond-21 atom-3 atom-22" d="M 555.7,239.9 L 548.1,284.4" style="fill:none;fill-rule:evenodd;stroke:#000000;stroke-width:2.0px;stroke-linecap:butt;stroke-linejoin:miter;stroke-opacity:1"/>
<path class="bond-22 atom-22 atom-23" d="M 548.1,284.4 L 530.6,290.9" style="fill:none;fill-rule:evenodd;stroke:#000000;stroke-width:2.0px;stroke-linecap:butt;stroke-linejoin:miter;stroke-opacity:1"/>
<path class="bond-22 atom-22 atom-23" d="M 530.6,290.9 L 513.1,297.3" style="fill:none;fill-rule:evenodd;stroke:#FF0000;stroke-width:2.0px;stroke-linecap:butt;stroke-linejoin:miter;stroke-opacity:1"/>
<path class="bond-23 atom-23 atom-24" d="M 504.3,308.2 L 501.2,326.3" style="fill:none;fill-rule:evenodd;stroke:#FF0000;stroke-width:2.0px;stroke-linecap:butt;stroke-linejoin:miter;stroke-opacity:1"/>
<path class="bond-23 atom-23 atom-24" d="M 501.2,326.3 L 498.1,344.5" style="fill:none;fill-rule:evenodd;stroke:#000000;stroke-width:2.0px;stroke-linecap:butt;stroke-linejoin:miter;stroke-opacity:1"/>
<path class="bond-24 atom-24 atom-25" d="M 498.1,344.5 L 479.2,351.5" style="fill:none;fill-rule:evenodd;stroke:#000000;stroke-width:2.0px;stroke-linecap:butt;stroke-linejoin:miter;stroke-opacity:1"/>
<path class="bond-24 atom-24 atom-25" d="M 479.2,351.5 L 460.3,358.5" style="fill:none;fill-rule:evenodd;stroke:#191919;stroke-width:2.0px;stroke-linecap:butt;stroke-linejoin:miter;stroke-opacity:1"/>
<path class="bond-25 atom-24 atom-26" d="M 494.5,345.9 L 508.9,357.9" style="fill:none;fill-rule:evenodd;stroke:#000000;stroke-width:2.0px;stroke-linecap:butt;stroke-linejoin:miter;stroke-opacity:1"/>
<path class="bond-25 atom-24 atom-26" d="M 508.9,357.9 L 523.3,369.8" style="fill:none;fill-rule:evenodd;stroke:#FF0000;stroke-width:2.0px;stroke-linecap:butt;stroke-linejoin:miter;stroke-opacity:1"/>
<path class="bond-25 atom-24 atom-26" d="M 498.8,340.7 L 513.2,352.6" style="fill:none;fill-rule:evenodd;stroke:#000000;stroke-width:2.0px;stroke-linecap:butt;stroke-linejoin:miter;stroke-opacity:1"/>
<path class="bond-25 atom-24 atom-26" d="M 513.2,352.6 L 527.7,364.6" style="fill:none;fill-rule:evenodd;stroke:#FF0000;stroke-width:2.0px;stroke-linecap:butt;stroke-linejoin:miter;stroke-opacity:1"/>
<path class="bond-26 atom-12 atom-7" d="M 686.6,143.4 L 702.3,185.7" style="fill:none;fill-rule:evenodd;stroke:#000000;stroke-width:2.0px;stroke-linecap:butt;stroke-linejoin:miter;stroke-opacity:1"/>
<path class="bond-27 atom-21 atom-16" d="M 459.1,109.0 L 501.5,93.3" style="fill:none;fill-rule:evenodd;stroke:#000000;stroke-width:2.0px;stroke-linecap:butt;stroke-linejoin:miter;stroke-opacity:1"/>
<path d="M 510.9,231.4 L 511.2,232.3 L 513.4,232.7" style="fill:none;stroke:#000000;stroke-width:2.0px;stroke-linecap:butt;stroke-linejoin:miter;stroke-opacity:1;"/>
<path d="M 597.9,247.1 L 600.1,247.5 L 600.7,246.9" style="fill:none;stroke:#000000;stroke-width:2.0px;stroke-linecap:butt;stroke-linejoin:miter;stroke-opacity:1;"/>
<path d="M 672.5,220.3 L 673.4,220.4 L 674.9,218.7" style="fill:none;stroke:#000000;stroke-width:2.0px;stroke-linecap:butt;stroke-linejoin:miter;stroke-opacity:1;"/>
<path d="M 744.5,192.9 L 746.8,193.3 L 748.2,191.6" style="fill:none;stroke:#000000;stroke-width:2.0px;stroke-linecap:butt;stroke-linejoin:miter;stroke-opacity:1;"/>
<path d="M 774.1,160.3 L 775.6,158.6 L 774.8,156.5" style="fill:none;stroke:#000000;stroke-width:2.0px;stroke-linecap:butt;stroke-linejoin:miter;stroke-opacity:1;"/>
<path d="M 760.7,118.4 L 759.9,116.3 L 757.7,115.9" style="fill:none;stroke:#000000;stroke-width:2.0px;stroke-linecap:butt;stroke-linejoin:miter;stroke-opacity:1;"/>
<path d="M 717.7,109.0 L 715.5,108.7 L 714.0,110.4" style="fill:none;stroke:#000000;stroke-width:2.0px;stroke-linecap:butt;stroke-linejoin:miter;stroke-opacity:1;"/>
<path d="M 688.1,141.6 L 686.6,143.4 L 687.4,145.5" style="fill:none;stroke:#000000;stroke-width:2.0px;stroke-linecap:butt;stroke-linejoin:miter;stroke-opacity:1;"/>
<path d="M 562.9,197.7 L 563.3,195.4 L 562.6,194.9" style="fill:none;stroke:#000000;stroke-width:2.0px;stroke-linecap:butt;stroke-linejoin:miter;stroke-opacity:1;"/>
<path d="M 536.0,123.0 L 536.2,122.1 L 534.4,120.7" style="fill:none;stroke:#000000;stroke-width:2.0px;stroke-linecap:butt;stroke-linejoin:miter;stroke-opacity:1;"/>
<path d="M 508.7,51.1 L 509.1,48.8 L 507.3,47.4" style="fill:none;stroke:#000000;stroke-width:2.0px;stroke-linecap:butt;stroke-linejoin:miter;stroke-opacity:1;"/>
<path d="M 476.1,21.4 L 474.4,20.0 L 472.2,20.8" style="fill:none;stroke:#000000;stroke-width:2.0px;stroke-linecap:butt;stroke-linejoin:miter;stroke-opacity:1;"/>
<path d="M 434.1,34.9 L 432.0,35.6 L 431.6,37.9" style="fill:none;stroke:#000000;stroke-width:2.0px;stroke-linecap:butt;stroke-linejoin:miter;stroke-opacity:1;"/>
<path d="M 424.8,77.9 L 424.4,80.1 L 426.2,81.6" style="fill:none;stroke:#000000;stroke-width:2.0px;stroke-linecap:butt;stroke-linejoin:miter;stroke-opacity:1;"/>
<path d="M 457.4,107.5 L 459.1,109.0 L 461.3,108.2" style="fill:none;stroke:#000000;stroke-width:2.0px;stroke-linecap:butt;stroke-linejoin:miter;stroke-opacity:1;"/>
<path d="M 548.4,282.2 L 548.1,284.4 L 547.2,284.7" style="fill:none;stroke:#000000;stroke-width:2.0px;stroke-linecap:butt;stroke-linejoin:miter;stroke-opacity:1;"/>
<path d="M 498.3,343.6 L 498.1,344.5 L 497.2,344.9" style="fill:none;stroke:#000000;stroke-width:2.0px;stroke-linecap:butt;stroke-linejoin:miter;stroke-opacity:1;"/>
<path class="atom-0" d="M 448.7 180.9 L 450.5 179.0 L 448.0 178.5 L 448.4 177.2 L 450.7 178.4 L 450.4 175.9 L 451.7 175.9 L 451.4 178.4 L 453.7 177.3 L 454.1 178.5 L 451.6 179.0 L 453.4 180.9 L 452.3 181.7 L 451.0 179.3 L 449.8 181.7 L 448.7 180.9 " fill="#191919"/>
<path class="atom-1" d="M 489.7 190.0 Q 489.7 186.9, 491.2 185.2 Q 492.7 183.5, 495.5 183.5 Q 498.4 183.5, 499.9 185.2 Q 501.4 186.9, 501.4 190.0 Q 501.4 193.1, 499.9 194.9 Q 498.3 196.6, 495.5 196.6 Q 492.7 196.6, 491.2 194.9 Q 489.7 193.1, 489.7 190.0 M 495.5 195.2 Q 497.5 195.2, 498.5 193.9 Q 499.6 192.6, 499.6 190.0 Q 499.6 187.5, 498.5 186.2 Q 497.5 185.0, 495.5 185.0 Q 493.6 185.0, 492.5 186.2 Q 491.5 187.5, 491.5 190.0 Q 491.5 192.6, 492.5 193.9 Q 493.6 195.2, 495.5 195.2 " fill="#FF0000"/>
<path class="atom-5" d="M 623.1 212.8 Q 623.1 209.8, 624.6 208.1 Q 626.1 206.3, 629.0 206.3 Q 631.8 206.3, 633.3 208.1 Q 634.8 209.8, 634.8 212.8 Q 634.8 215.9, 633.3 217.7 Q 631.8 219.5, 629.0 219.5 Q 626.2 219.5, 624.6 217.7 Q 623.1 216.0, 623.1 212.8 M 629.0 218.0 Q 630.9 218.0, 632.0 216.7 Q 633.0 215.4, 633.0 212.8 Q 633.0 210.3, 632.0 209.1 Q 630.9 207.8, 629.0 207.8 Q 627.0 207.8, 626.0 209.1 Q 624.9 210.3, 624.9 212.8 Q 624.9 215.4, 626.0 216.7 Q 627.0 218.0, 629.0 218.0 " fill="#FF0000"/>
<path class="atom-14" d="M 522.7 166.6 Q 522.7 163.6, 524.2 161.9 Q 525.7 160.1, 528.6 160.1 Q 531.4 160.1, 532.9 161.9 Q 534.4 163.6, 534.4 166.6 Q 534.4 169.7, 532.9 171.5 Q 531.4 173.3, 528.6 173.3 Q 525.7 173.3, 524.2 171.5 Q 522.7 169.8, 522.7 166.6 M 528.6 171.8 Q 530.5 171.8, 531.6 170.5 Q 532.6 169.2, 532.6 166.6 Q 532.6 164.1, 531.6 162.9 Q 530.5 161.6, 528.6 161.6 Q 526.6 161.6, 525.5 162.9 Q 524.5 164.1, 524.5 166.6 Q 524.5 169.2, 525.5 170.5 Q 526.6 171.8, 528.6 171.8 " fill="#FF0000"/>
<path class="atom-23" d="M 499.9 300.1 Q 499.9 297.0, 501.4 295.3 Q 502.9 293.6, 505.7 293.6 Q 508.6 293.6, 510.1 295.3 Q 511.6 297.0, 511.6 300.1 Q 511.6 303.2, 510.1 304.9 Q 508.5 306.7, 505.7 306.7 Q 502.9 306.7, 501.4 304.9 Q 499.9 303.2, 499.9 300.1 M 505.7 305.3 Q 507.7 305.3, 508.7 304.0 Q 509.8 302.6, 509.8 300.1 Q 509.8 297.6, 508.7 296.3 Q 507.7 295.0, 505.7 295.0 Q 503.8 295.0, 502.7 296.3 Q 501.7 297.5, 501.7 300.1 Q 501.7 302.7, 502.7 304.0 Q 503.8 305.3, 505.7 305.3 " fill="#FF0000"/>
<path class="atom-25" d="M 453.4 358.7 L 455.3 356.8 L 452.8 356.3 L 453.2 355.0 L 455.5 356.2 L 455.1 353.7 L 456.5 353.7 L 456.1 356.2 L 458.4 355.1 L 458.8 356.3 L 456.3 356.8 L 458.1 358.7 L 457.0 359.5 L 455.8 357.1 L 454.5 359.5 L 453.4 358.7 " fill="#191919"/>
<path class="atom-26" d="M 527.0 373.4 Q 527.0 370.3, 528.5 368.6 Q 530.0 366.9, 532.8 366.9 Q 535.7 366.9, 537.2 368.6 Q 538.7 370.3, 538.7 373.4 Q 538.7 376.5, 537.2 378.2 Q 535.6 380.0, 532.8 380.0 Q 530.0 380.0, 528.5 378.2 Q 527.0 376.5, 527.0 373.4 M 532.8 378.6 Q 534.8 378.6, 535.8 377.3 Q 536.9 375.9, 536.9 373.4 Q 536.9 370.9, 535.8 369.6 Q 534.8 368.3, 532.8 368.3 Q 530.9 368.3, 529.8 369.6 Q 528.8 370.8, 528.8 373.4 Q 528.8 376.0, 529.8 377.3 Q 530.9 378.6, 532.8 378.6 " fill="#FF0000"/>
<path class="bond-0 atom-0 atom-1" d="M 528.7,612.3 L 543.7,606.3" style="fill:none;fill-rule:evenodd;stroke:#191919;stroke-width:2.0px;stroke-linecap:butt;stroke-linejoin:miter;stroke-opacity:1"/>
<path class="bond-0 atom-0 atom-1" d="M 543.7,606.3 L 558.7,600.3" style="fill:none;fill-rule:evenodd;stroke:#FF0000;stroke-width:2.0px;stroke-linecap:butt;stroke-linejoin:miter;stroke-opacity:1"/>
<path class="bond-1 atom-1 atom-2" d="M 573.4,603.1 L 587.4,614.1" style="fill:none;fill-rule:evenodd;stroke:#FF0000;stroke-width:2.0px;stroke-linecap:butt;stroke-linejoin:miter;stroke-opacity:1"/>
<path class="bond-1 atom-1 atom-2" d="M 587.4,614.1 L 601.5,625.2" style="fill:none;fill-rule:evenodd;stroke:#000000;stroke-width:2.0px;stroke-linecap:butt;stroke-linejoin:miter;stroke-opacity:1"/>
<path class="bond-2 atom-2 atom-3" d="M 601.5,625.2 L 643.4,608.4" style="fill:none;fill-rule:evenodd;stroke:#000000;stroke-width:2.0px;stroke-linecap:butt;stroke-linejoin:miter;stroke-opacity:1"/>
<path class="bond-3 atom-3 atom-4" d="M 643.4,608.4 L 678.9,636.3" style="fill:none;fill-rule:evenodd;stroke:#000000;stroke-width:2.0px;stroke-linecap:butt;stroke-linejoin:miter;stroke-opacity:1"/>
<path class="bond-4 atom-3 atom-5" d="M 643.4,608.4 L 649.8,563.7" style="fill:none;fill-rule:evenodd;stroke:#000000;stroke-width:2.0px;stroke-linecap:butt;stroke-linejoin:miter;stroke-opacity:1"/>
<path d="M 600.8,624.6 L 601.5,625.2 L 603.6,624.4" style="fill:none;stroke:#000000;stroke-width:2.0px;stroke-linecap:butt;stroke-linejoin:miter;stroke-opacity:1;"/>
<path class="atom-0" d="M 521.7 612.7 L 523.6 610.8 L 521.1 610.3 L 521.5 609.0 L 523.8 610.1 L 523.5 607.6 L 524.8 607.6 L 524.4 610.1 L 526.8 609.0 L 527.2 610.3 L 524.6 610.7 L 526.4 612.7 L 525.3 613.5 L 524.1 611.1 L 522.8 613.5 L 521.7 612.7 " fill="#191919"/>
<path class="atom-1" d="M 560.2 597.4 Q 560.2 594.3, 561.7 592.6 Q 563.2 590.9, 566.0 590.9 Q 568.9 590.9, 570.4 592.6 Q 571.9 594.3, 571.9 597.4 Q 571.9 600.5, 570.4 602.2 Q 568.8 604.0, 566.0 604.0 Q 563.2 604.0, 561.7 602.2 Q 560.2 600.5, 560.2 597.4 M 566.0 602.5 Q 568.0 602.5, 569.0 601.2 Q 570.1 599.9, 570.1 597.4 Q 570.1 594.8, 569.0 593.6 Q 568.0 592.3, 566.0 592.3 Q 564.1 592.3, 563.0 593.6 Q 562.0 594.8, 562.0 597.4 Q 562.0 599.9, 563.0 601.2 Q 564.1 602.5, 566.0 602.5 " fill="#FF0000"/>
</svg>