<svg xmlns="http://www.w3.org/2000/svg" xmlns:rdkit="http://www.rdkit.org/xml" xmlns:xlink="http://www.w3.org/1999/xlink" version="1.1" baseProfile="full" xml:space="preserve" width="1200px" height="800px" viewBox="0 0 1200 800">
<!-- END OF HEADER -->
<rect style="opacity:1.0;fill:#FFFFFF;stroke:none" width="1200.0" height="800.0" x="0.0" y="0.0"> </rect>
<path class="bond-0 atom-0 atom-1" d="M 442.4,40.4 L 448.2,67.0" style="fill:none;fill-rule:evenodd;stroke:#191919;stroke-width:2.0px;stroke-linecap:butt;stroke-linejoin:miter;stroke-opacity:1"/>
<path class="bond-0 atom-0 atom-1" d="M 448.2,67.0 L 454.0,93.6" style="fill:none;fill-rule:evenodd;stroke:#FF0000;stroke-width:2.0px;stroke-linecap:butt;stroke-linejoin:miter;stroke-opacity:1"/>
<path class="bond-1 atom-1 atom-2" d="M 467.7,109.2 L 494.5,117.8" style="fill:none;fill-rule:evenodd;stroke:#FF0000;stroke-width:2.0px;stroke-linecap:butt;stroke-linejoin:miter;stroke-opacity:1"/>
<path class="bond-1 atom-1 atom-2" d="M 494.5,117.8 L 521.4,126.4" style="fill:none;fill-rule:evenodd;stroke:#000000;stroke-width:2.0px;stroke-linecap:butt;stroke-linejoin:miter;stroke-opacity:1"/>
<path class="bond-2 atom-2 atom-3" d="M 521.4,126.4 L 535.8,192.9" style="fill:none;fill-rule:evenodd;stroke:#000000;stroke-width:2.0px;stroke-linecap:butt;stroke-linejoin:miter;stroke-opacity:1"/>
<path class="bond-3 atom-3 atom-4" d="M 535.8,192.9 L 550.2,259.4" style="fill:none;fill-rule:evenodd;stroke:#000000;stroke-width:2.0px;stroke-linecap:butt;stroke-linejoin:miter;stroke-opacity:1"/>
<path class="bond-4 atom-3 atom-5" d="M 535.8,192.9 L 469.3,207.3" style="fill:none;fill-rule:evenodd;stroke:#000000;stroke-width:2.0px;stroke-linecap:butt;stroke-linejoin:miter;stroke-opacity:1"/>
<path class="bond-5 atom-5 atom-6" d="M 469.3,207.3 L 460.8,233.7" style="fill:none;fill-rule:evenodd;stroke:#000000;stroke-width:2.0px;stroke-linecap:butt;stroke-linejoin:miter;stroke-opacity:1"/>
<path class="bond-5 atom-5 atom-6" d="M 460.8,233.7 L 452.4,260.1" style="fill:none;fill-rule:evenodd;stroke:#FF0000;stroke-width:2.0px;stroke-linecap:butt;stroke-linejoin:miter;stroke-opacity:1"/>
<path class="bond-6 atom-6 atom-7" d="M 437.4,274.5 L 409.7,280.5" style="fill:none;fill-rule:evenodd;stroke:#FF0000;stroke-width:2.0px;stroke-linecap:butt;stroke-linejoin:miter;stroke-opacity:1"/>
<path class="bond-6 atom-6 atom-7" d="M 409.7,280.5 L 382.0,286.6" style="fill:none;fill-rule:evenodd;stroke:#000000;stroke-width:2.0px;stroke-linecap:butt;stroke-linejoin:miter;stroke-opacity:1"/>
<path class="bond-7 atom-7 atom-8" d="M 382.0,286.6 L 373.6,312.9" style="fill:none;fill-rule:evenodd;stroke:#000000;stroke-width:2.0px;stroke-linecap:butt;stroke-linejoin:miter;stroke-opacity:1"/>
<path class="bond-7 atom-7 atom-8" d="M 373.6,312.9 L 365.1,339.3" style="fill:none;fill-rule:evenodd;stroke:#191919;stroke-width:2.0px;stroke-linecap:butt;stroke-linejoin:miter;stroke-opacity:1"/>
<path class="bond-8 atom-7 atom-9" d="M 387.8,285.3 L 369.5,265.1" style="fill:none;fill-rule:evenodd;stroke:#000000;stroke-width:2.0px;stroke-linecap:butt;stroke-linejoin:miter;stroke-opacity:1"/>
<path class="bond-8 atom-7 atom-9" d="M 369.5,265.1 L 351.2,245.0" style="fill:none;fill-rule:evenodd;stroke:#FF0000;stroke-width:2.0px;stroke-linecap:butt;stroke-linejoin:miter;stroke-opacity:1"/>
<path class="bond-8 atom-7 atom-9" d="M 380.2,292.2 L 361.9,272.0" style="fill:none;fill-rule:evenodd;stroke:#000000;stroke-width:2.0px;stroke-linecap:butt;stroke-linejoin:miter;stroke-opacity:1"/>
<path class="bond-8 atom-7 atom-9" d="M 361.9,272.0 L 343.6,251.8" style="fill:none;fill-rule:evenodd;stroke:#FF0000;stroke-width:2.0px;stroke-linecap:butt;stroke-linejoin:miter;stroke-opacity:1"/>
<path class="bond-9 atom-3 atom-10" d="M 535.8,192.9 L 602.3,178.5" style="fill:none;fill-rule:evenodd;stroke:#000000;stroke-width:2.0px;stroke-linecap:butt;stroke-linejoin:miter;stroke-opacity:1"/>
<path class="bond-10 atom-10 atom-11" d="M 602.3,178.5 L 619.7,197.7" style="fill:none;fill-rule:evenodd;stroke:#000000;stroke-width:2.0px;stroke-linecap:butt;stroke-linejoin:miter;stroke-opacity:1"/>
<path class="bond-10 atom-10 atom-11" d="M 619.7,197.7 L 637.2,216.9" style="fill:none;fill-rule:evenodd;stroke:#FF0000;stroke-width:2.0px;stroke-linecap:butt;stroke-linejoin:miter;stroke-opacity:1"/>
<path class="bond-11 atom-11 atom-12" d="M 659.1,226.4 L 686.9,220.4" style="fill:none;fill-rule:evenodd;stroke:#FF0000;stroke-width:2.0px;stroke-linecap:butt;stroke-linejoin:miter;stroke-opacity:1"/>
<path class="bond-11 atom-11 atom-12" d="M 686.9,220.4 L 714.6,214.4" style="fill:none;fill-rule:evenodd;stroke:#000000;stroke-width:2.0px;stroke-linecap:butt;stroke-linejoin:miter;stroke-opacity:1"/>
<path class="bond-12 atom-12 atom-13" d="M 714.6,214.4 L 760.3,264.8" style="fill:none;fill-rule:evenodd;stroke:#000000;stroke-width:2.0px;stroke-linecap:butt;stroke-linejoin:miter;stroke-opacity:1"/>
<path class="bond-13 atom-13 atom-14" d="M 760.3,264.8 L 739.5,329.6" style="fill:none;fill-rule:evenodd;stroke:#000000;stroke-width:2.0px;stroke-linecap:butt;stroke-linejoin:miter;stroke-opacity:1"/>
<path class="bond-13 atom-13 atom-14" d="M 768.2,273.5 L 751.1,327.1" style="fill:none;fill-rule:evenodd;stroke:#000000;stroke-width:2.0px;stroke-linecap:butt;stroke-linejoin:miter;stroke-opacity:1"/>
<path class="bond-14 atom-14 atom-15" d="M 739.5,329.6 L 785.3,380.0" style="fill:none;fill-rule:evenodd;stroke:#000000;stroke-width:2.0px;stroke-linecap:butt;stroke-linejoin:miter;stroke-opacity:1"/>
<path class="bond-15 atom-15 atom-16" d="M 785.3,380.0 L 851.8,365.6" style="fill:none;fill-rule:evenodd;stroke:#000000;stroke-width:2.0px;stroke-linecap:butt;stroke-linejoin:miter;stroke-opacity:1"/>
<path class="bond-15 atom-15 atom-16" d="M 788.9,368.8 L 843.9,356.8" style="fill:none;fill-rule:evenodd;stroke:#000000;stroke-width:2.0px;stroke-linecap:butt;stroke-linejoin:miter;stroke-opacity:1"/>
<path class="bond-16 atom-16 atom-17" d="M 851.8,365.6 L 872.6,300.8" style="fill:none;fill-rule:evenodd;stroke:#000000;stroke-width:2.0px;stroke-linecap:butt;stroke-linejoin:miter;stroke-opacity:1"/>
<path class="bond-17 atom-17 atom-18" d="M 872.6,300.8 L 826.8,250.4" style="fill:none;fill-rule:evenodd;stroke:#000000;stroke-width:2.0px;stroke-linecap:butt;stroke-linejoin:miter;stroke-opacity:1"/>
<path class="bond-17 atom-17 atom-18" d="M 861.0,303.3 L 823.2,261.6" style="fill:none;fill-rule:evenodd;stroke:#000000;stroke-width:2.0px;stroke-linecap:butt;stroke-linejoin:miter;stroke-opacity:1"/>
<path class="bond-18 atom-12 atom-19" d="M 714.6,214.4 L 735.3,149.6" style="fill:none;fill-rule:evenodd;stroke:#000000;stroke-width:2.0px;stroke-linecap:butt;stroke-linejoin:miter;stroke-opacity:1"/>
<path class="bond-19 atom-19 atom-20" d="M 735.3,149.6 L 801.8,135.2" style="fill:none;fill-rule:evenodd;stroke:#000000;stroke-width:2.0px;stroke-linecap:butt;stroke-linejoin:miter;stroke-opacity:1"/>
<path class="bond-19 atom-19 atom-20" d="M 738.9,138.4 L 793.9,126.5" style="fill:none;fill-rule:evenodd;stroke:#000000;stroke-width:2.0px;stroke-linecap:butt;stroke-linejoin:miter;stroke-opacity:1"/>
<path class="bond-20 atom-20 atom-21" d="M 801.8,135.2 L 822.6,70.4" style="fill:none;fill-rule:evenodd;stroke:#000000;stroke-width:2.0px;stroke-linecap:butt;stroke-linejoin:miter;stroke-opacity:1"/>
<path class="bond-21 atom-21 atom-22" d="M 822.6,70.4 L 776.8,20.0" style="fill:none;fill-rule:evenodd;stroke:#000000;stroke-width:2.0px;stroke-linecap:butt;stroke-linejoin:miter;stroke-opacity:1"/>
<path class="bond-21 atom-21 atom-22" d="M 811.1,72.9 L 773.2,31.2" style="fill:none;fill-rule:evenodd;stroke:#000000;stroke-width:2.0px;stroke-linecap:butt;stroke-linejoin:miter;stroke-opacity:1"/>
<path class="bond-22 atom-22 atom-23" d="M 776.8,20.0 L 710.3,34.4" style="fill:none;fill-rule:evenodd;stroke:#000000;stroke-width:2.0px;stroke-linecap:butt;stroke-linejoin:miter;stroke-opacity:1"/>
<path class="bond-23 atom-23 atom-24" d="M 710.3,34.4 L 689.6,99.2" style="fill:none;fill-rule:evenodd;stroke:#000000;stroke-width:2.0px;stroke-linecap:butt;stroke-linejoin:miter;stroke-opacity:1"/>
<path class="bond-23 atom-23 atom-24" d="M 718.3,43.2 L 701.1,96.7" style="fill:none;fill-rule:evenodd;stroke:#000000;stroke-width:2.0px;stroke-linecap:butt;stroke-linejoin:miter;stroke-opacity:1"/>
<path class="bond-24 atom-18 atom-13" d="M 826.8,250.4 L 760.3,264.8" style="fill:none;fill-rule:evenodd;stroke:#000000;stroke-width:2.0px;stroke-linecap:butt;stroke-linejoin:miter;stroke-opacity:1"/>
<path class="bond-25 atom-24 atom-19" d="M 689.6,99.2 L 735.3,149.6" style="fill:none;fill-rule:evenodd;stroke:#000000;stroke-width:2.0px;stroke-linecap:butt;stroke-linejoin:miter;stroke-opacity:1"/>
<path d="M 520.0,126.0 L 521.4,126.4 L 522.1,129.7" style="fill:none;stroke:#000000;stroke-width:2.0px;stroke-linecap:butt;stroke-linejoin:miter;stroke-opacity:1;"/>
<path d="M 472.6,206.6 L 469.3,207.3 L 468.9,208.6" style="fill:none;stroke:#000000;stroke-width:2.0px;stroke-linecap:butt;stroke-linejoin:miter;stroke-opacity:1;"/>
<path d="M 383.4,286.3 L 382.0,286.6 L 381.6,287.9" style="fill:none;stroke:#000000;stroke-width:2.0px;stroke-linecap:butt;stroke-linejoin:miter;stroke-opacity:1;"/>
<path d="M 599.0,179.2 L 602.3,178.5 L 603.2,179.4" style="fill:none;stroke:#000000;stroke-width:2.0px;stroke-linecap:butt;stroke-linejoin:miter;stroke-opacity:1;"/>
<path d="M 740.6,326.4 L 739.5,329.6 L 741.8,332.1" style="fill:none;stroke:#000000;stroke-width:2.0px;stroke-linecap:butt;stroke-linejoin:miter;stroke-opacity:1;"/>
<path d="M 783.0,377.5 L 785.3,380.0 L 788.6,379.3" style="fill:none;stroke:#000000;stroke-width:2.0px;stroke-linecap:butt;stroke-linejoin:miter;stroke-opacity:1;"/>
<path d="M 848.5,366.3 L 851.8,365.6 L 852.8,362.3" style="fill:none;stroke:#000000;stroke-width:2.0px;stroke-linecap:butt;stroke-linejoin:miter;stroke-opacity:1;"/>
<path d="M 871.5,304.0 L 872.6,300.8 L 870.3,298.2" style="fill:none;stroke:#000000;stroke-width:2.0px;stroke-linecap:butt;stroke-linejoin:miter;stroke-opacity:1;"/>
<path d="M 829.1,252.9 L 826.8,250.4 L 823.5,251.1" style="fill:none;stroke:#000000;stroke-width:2.0px;stroke-linecap:butt;stroke-linejoin:miter;stroke-opacity:1;"/>
<path d="M 798.5,135.9 L 801.8,135.2 L 802.9,132.0" style="fill:none;stroke:#000000;stroke-width:2.0px;stroke-linecap:butt;stroke-linejoin:miter;stroke-opacity:1;"/>
<path d="M 821.5,73.6 L 822.6,70.4 L 820.3,67.9" style="fill:none;stroke:#000000;stroke-width:2.0px;stroke-linecap:butt;stroke-linejoin:miter;stroke-opacity:1;"/>
<path d="M 779.1,22.5 L 776.8,20.0 L 773.5,20.7" style="fill:none;stroke:#000000;stroke-width:2.0px;stroke-linecap:butt;stroke-linejoin:miter;stroke-opacity:1;"/>
<path d="M 713.7,33.7 L 710.3,34.4 L 709.3,37.7" style="fill:none;stroke:#000000;stroke-width:2.0px;stroke-linecap:butt;stroke-linejoin:miter;stroke-opacity:1;"/>
<path d="M 690.6,96.0 L 689.6,99.2 L 691.9,101.8" style="fill:none;stroke:#000000;stroke-width:2.0px;stroke-linecap:butt;stroke-linejoin:miter;stroke-opacity:1;"/>
<path class="atom-0" d="M 438.5 37.0 L 441.3 34.1 L 437.6 33.3 L 438.2 31.4 L 441.6 33.1 L 441.1 29.4 L 443.2 29.3 L 442.6 33.1 L 446.1 31.5 L 446.7 33.3 L 442.9 34.0 L 445.6 36.9 L 444.0 38.1 L 442.1 34.6 L 440.2 38.1 L 438.5 37.0 " fill="#191919"/>
<path class="atom-1" d="M 447.7 105.7 Q 447.7 101.1, 450.0 98.5 Q 452.3 95.9, 456.6 95.9 Q 460.8 95.9, 463.1 98.5 Q 465.4 101.1, 465.4 105.7 Q 465.4 110.4, 463.1 113.0 Q 460.8 115.7, 456.6 115.7 Q 452.3 115.7, 450.0 113.0 Q 447.7 110.4, 447.7 105.7 M 456.6 113.5 Q 459.5 113.5, 461.1 111.5 Q 462.7 109.6, 462.7 105.7 Q 462.7 101.9, 461.1 100.0 Q 459.5 98.1, 456.6 98.1 Q 453.6 98.1, 452.0 100.0 Q 450.4 101.9, 450.4 105.7 Q 450.4 109.6, 452.0 111.5 Q 453.6 113.5, 456.6 113.5 " fill="#FF0000"/>
<path class="atom-6" d="M 439.7 272.2 Q 439.7 267.6, 442.0 265.0 Q 444.3 262.4, 448.5 262.4 Q 452.8 262.4, 455.1 265.0 Q 457.4 267.6, 457.4 272.2 Q 457.4 276.9, 455.1 279.5 Q 452.8 282.2, 448.5 282.2 Q 444.3 282.2, 442.0 279.5 Q 439.7 276.9, 439.7 272.2 M 448.5 280.0 Q 451.5 280.0, 453.1 278.0 Q 454.7 276.1, 454.7 272.2 Q 454.7 268.4, 453.1 266.5 Q 451.5 264.6, 448.5 264.6 Q 445.6 264.6, 444.0 266.5 Q 442.4 268.4, 442.4 272.2 Q 442.4 276.1, 444.0 278.0 Q 445.6 280.0, 448.5 280.0 " fill="#FF0000"/>
<path class="atom-8" d="M 357.6 349.2 L 360.5 346.3 L 356.7 345.6 L 357.3 343.6 L 360.7 345.4 L 360.3 341.6 L 362.3 341.6 L 361.7 345.4 L 365.2 343.7 L 365.8 345.6 L 362.0 346.3 L 364.7 349.2 L 363.1 350.4 L 361.2 346.8 L 359.3 350.4 L 357.6 349.2 " fill="#191919"/>
<path class="atom-9" d="M 327.4 236.2 Q 327.4 231.6, 329.7 229.0 Q 332.0 226.4, 336.3 226.4 Q 340.6 226.4, 342.8 229.0 Q 345.1 231.6, 345.1 236.2 Q 345.1 240.9, 342.8 243.6 Q 340.5 246.2, 336.3 246.2 Q 332.0 246.2, 329.7 243.6 Q 327.4 240.9, 327.4 236.2 M 336.3 244.0 Q 339.2 244.0, 340.8 242.1 Q 342.4 240.1, 342.4 236.2 Q 342.4 232.4, 340.8 230.5 Q 339.2 228.6, 336.3 228.6 Q 333.3 228.6, 331.7 230.5 Q 330.2 232.4, 330.2 236.2 Q 330.2 240.1, 331.7 242.1 Q 333.3 244.0, 336.3 244.0 " fill="#FF0000"/>
<path class="atom-11" d="M 639.2 228.9 Q 639.2 224.3, 641.5 221.7 Q 643.8 219.1, 648.1 219.1 Q 652.3 219.1, 654.6 221.7 Q 656.9 224.3, 656.9 228.9 Q 656.9 233.6, 654.6 236.3 Q 652.3 238.9, 648.1 238.9 Q 643.8 238.9, 641.5 236.3 Q 639.2 233.6, 639.2 228.9 M 648.1 236.7 Q 651.0 236.7, 652.6 234.8 Q 654.2 232.8, 654.2 228.9 Q 654.2 225.1, 652.6 223.2 Q 651.0 221.3, 648.1 221.3 Q 645.1 221.3, 643.5 223.2 Q 641.9 225.1, 641.9 228.9 Q 641.9 232.8, 643.5 234.8 Q 645.1 236.7, 648.1 236.7 " fill="#FF0000"/>
<path class="bond-0 atom-0 atom-1" d="M 492.4,618.6 L 515.0,609.5" style="fill:none;fill-rule:evenodd;stroke:#191919;stroke-width:2.0px;stroke-linecap:butt;stroke-linejoin:miter;stroke-opacity:1"/>
<path class="bond-0 atom-0 atom-1" d="M 515.0,609.5 L 537.7,600.4" style="fill:none;fill-rule:evenodd;stroke:#FF0000;stroke-width:2.0px;stroke-linecap:butt;stroke-linejoin:miter;stroke-opacity:1"/>
<path class="bond-1 atom-1 atom-2" d="M 559.9,604.7 L 581.1,621.3" style="fill:none;fill-rule:evenodd;stroke:#FF0000;stroke-width:2.0px;stroke-linecap:butt;stroke-linejoin:miter;stroke-opacity:1"/>
<path class="bond-1 atom-1 atom-2" d="M 581.1,621.3 L 602.3,638.0" style="fill:none;fill-rule:evenodd;stroke:#000000;stroke-width:2.0px;stroke-linecap:butt;stroke-linejoin:miter;stroke-opacity:1"/>
<path class="bond-2 atom-2 atom-3" d="M 602.3,638.0 L 665.4,612.7" style="fill:none;fill-rule:evenodd;stroke:#000000;stroke-width:2.0px;stroke-linecap:butt;stroke-linejoin:miter;stroke-opacity:1"/>
<path class="bond-3 atom-3 atom-4" d="M 665.4,612.7 L 719.0,654.7" style="fill:none;fill-rule:evenodd;stroke:#000000;stroke-width:2.0px;stroke-linecap:butt;stroke-linejoin:miter;stroke-opacity:1"/>
<path class="bond-4 atom-3 atom-5" d="M 665.4,612.7 L 675.1,545.3" style="fill:none;fill-rule:evenodd;stroke:#000000;stroke-width:2.0px;stroke-linecap:butt;stroke-linejoin:miter;stroke-opacity:1"/>
<path d="M 601.2,637.2 L 602.3,638.0 L 605.4,636.7" style="fill:none;stroke:#000000;stroke-width:2.0px;stroke-linecap:butt;stroke-linejoin:miter;stroke-opacity:1;"/>
<path class="atom-0" d="M 482.0 619.1 L 484.8 616.2 L 481.0 615.5 L 481.6 613.6 L 485.1 615.3 L 484.6 611.5 L 486.6 611.5 L 486.0 615.3 L 489.6 613.6 L 490.2 615.5 L 486.3 616.2 L 489.1 619.1 L 487.4 620.3 L 485.5 616.7 L 483.6 620.3 L 482.0 619.1 " fill="#191919"/>
<path class="atom-1" d="M 539.9 596.0 Q 539.9 591.4, 542.2 588.8 Q 544.5 586.2, 548.8 586.2 Q 553.0 586.2, 555.3 588.8 Q 557.6 591.4, 557.6 596.0 Q 557.6 600.7, 555.3 603.4 Q 553.0 606.0, 548.8 606.0 Q 544.5 606.0, 542.2 603.4 Q 539.9 600.7, 539.9 596.0 M 548.8 603.8 Q 551.7 603.8, 553.3 601.9 Q 554.9 599.9, 554.9 596.0 Q 554.9 592.2, 553.3 590.3 Q 551.7 588.4, 548.8 588.4 Q 545.8 588.4, 544.2 590.3 Q 542.6 592.2, 542.6 596.0 Q 542.6 599.9, 544.2 601.9 Q 545.8 603.8, 548.8 603.8 " fill="#FF0000"/>
</svg>