<svg xmlns="http://www.w3.org/2000/svg" xmlns:rdkit="http://www.rdkit.org/xml" xmlns:xlink="http://www.w3.org/1999/xlink" version="1.1" baseProfile="full" xml:space="preserve" width="1200px" height="800px" viewBox="0 0 1200 800">
<!-- END OF HEADER -->
<rect style="opacity:1.0;fill:#FFFFFF;stroke:none" width="1200.0" height="800.0" x="0.0" y="0.0"> </rect>
<path class="bond-0 atom-0 atom-1" d="M 760.4,345.3 L 756.0,326.3" style="fill:none;fill-rule:evenodd;stroke:#191919;stroke-width:2.0px;stroke-linecap:butt;stroke-linejoin:miter;stroke-opacity:1"/>
<path class="bond-0 atom-0 atom-1" d="M 756.0,326.3 L 751.7,307.3" style="fill:none;fill-rule:evenodd;stroke:#FF0000;stroke-width:2.0px;stroke-linecap:butt;stroke-linejoin:miter;stroke-opacity:1"/>
<path class="bond-1 atom-1 atom-2" d="M 739.2,293.1 L 714.8,285.6" style="fill:none;fill-rule:evenodd;stroke:#FF0000;stroke-width:2.0px;stroke-linecap:butt;stroke-linejoin:miter;stroke-opacity:1"/>
<path class="bond-1 atom-1 atom-2" d="M 714.8,285.6 L 690.5,278.0" style="fill:none;fill-rule:evenodd;stroke:#000000;stroke-width:2.0px;stroke-linecap:butt;stroke-linejoin:miter;stroke-opacity:1"/>
<path class="bond-2 atom-2 atom-3" d="M 690.5,278.0 L 676.9,218.0" style="fill:none;fill-rule:evenodd;stroke:#000000;stroke-width:2.0px;stroke-linecap:butt;stroke-linejoin:miter;stroke-opacity:1"/>
<path class="bond-3 atom-3 atom-4" d="M 676.9,218.0 L 663.3,158.0" style="fill:none;fill-rule:evenodd;stroke:#000000;stroke-width:2.0px;stroke-linecap:butt;stroke-linejoin:miter;stroke-opacity:1"/>
<path class="bond-4 atom-3 atom-5" d="M 676.9,218.0 L 736.9,204.4" style="fill:none;fill-rule:evenodd;stroke:#000000;stroke-width:2.0px;stroke-linecap:butt;stroke-linejoin:miter;stroke-opacity:1"/>
<path class="bond-5 atom-5 atom-6" d="M 736.9,204.4 L 744.3,180.6" style="fill:none;fill-rule:evenodd;stroke:#000000;stroke-width:2.0px;stroke-linecap:butt;stroke-linejoin:miter;stroke-opacity:1"/>
<path class="bond-5 atom-5 atom-6" d="M 744.3,180.6 L 751.7,156.8" style="fill:none;fill-rule:evenodd;stroke:#FF0000;stroke-width:2.0px;stroke-linecap:butt;stroke-linejoin:miter;stroke-opacity:1"/>
<path class="bond-6 atom-6 atom-7" d="M 765.1,143.4 L 790.1,137.7" style="fill:none;fill-rule:evenodd;stroke:#FF0000;stroke-width:2.0px;stroke-linecap:butt;stroke-linejoin:miter;stroke-opacity:1"/>
<path class="bond-6 atom-6 atom-7" d="M 790.1,137.7 L 815.1,132.1" style="fill:none;fill-rule:evenodd;stroke:#000000;stroke-width:2.0px;stroke-linecap:butt;stroke-linejoin:miter;stroke-opacity:1"/>
<path class="bond-7 atom-7 atom-8" d="M 815.1,132.1 L 824.1,103.3" style="fill:none;fill-rule:evenodd;stroke:#000000;stroke-width:2.0px;stroke-linecap:butt;stroke-linejoin:miter;stroke-opacity:1"/>
<path class="bond-7 atom-7 atom-8" d="M 824.1,103.3 L 833.0,74.4" style="fill:none;fill-rule:evenodd;stroke:#191919;stroke-width:2.0px;stroke-linecap:butt;stroke-linejoin:miter;stroke-opacity:1"/>
<path class="bond-8 atom-7 atom-9" d="M 809.9,133.2 L 826.7,151.4" style="fill:none;fill-rule:evenodd;stroke:#000000;stroke-width:2.0px;stroke-linecap:butt;stroke-linejoin:miter;stroke-opacity:1"/>
<path class="bond-8 atom-7 atom-9" d="M 826.7,151.4 L 843.5,169.5" style="fill:none;fill-rule:evenodd;stroke:#FF0000;stroke-width:2.0px;stroke-linecap:butt;stroke-linejoin:miter;stroke-opacity:1"/>
<path class="bond-8 atom-7 atom-9" d="M 816.7,127.0 L 833.5,145.1" style="fill:none;fill-rule:evenodd;stroke:#000000;stroke-width:2.0px;stroke-linecap:butt;stroke-linejoin:miter;stroke-opacity:1"/>
<path class="bond-8 atom-7 atom-9" d="M 833.5,145.1 L 850.2,163.3" style="fill:none;fill-rule:evenodd;stroke:#FF0000;stroke-width:2.0px;stroke-linecap:butt;stroke-linejoin:miter;stroke-opacity:1"/>
<path class="bond-9 atom-3 atom-10" d="M 676.9,218.0 L 616.9,231.6" style="fill:none;fill-rule:evenodd;stroke:#000000;stroke-width:2.0px;stroke-linecap:butt;stroke-linejoin:miter;stroke-opacity:1"/>
<path class="bond-10 atom-10 atom-11" d="M 616.9,231.6 L 601.0,214.4" style="fill:none;fill-rule:evenodd;stroke:#000000;stroke-width:2.0px;stroke-linecap:butt;stroke-linejoin:miter;stroke-opacity:1"/>
<path class="bond-10 atom-10 atom-11" d="M 601.0,214.4 L 585.1,197.3" style="fill:none;fill-rule:evenodd;stroke:#FF0000;stroke-width:2.0px;stroke-linecap:butt;stroke-linejoin:miter;stroke-opacity:1"/>
<path class="bond-11 atom-11 atom-12" d="M 565.1,188.7 L 540.1,194.3" style="fill:none;fill-rule:evenodd;stroke:#FF0000;stroke-width:2.0px;stroke-linecap:butt;stroke-linejoin:miter;stroke-opacity:1"/>
<path class="bond-11 atom-11 atom-12" d="M 540.1,194.3 L 515.1,200.0" style="fill:none;fill-rule:evenodd;stroke:#000000;stroke-width:2.0px;stroke-linecap:butt;stroke-linejoin:miter;stroke-opacity:1"/>
<path class="bond-12 atom-12 atom-13" d="M 515.1,200.0 L 501.5,140.0" style="fill:none;fill-rule:evenodd;stroke:#000000;stroke-width:2.0px;stroke-linecap:butt;stroke-linejoin:miter;stroke-opacity:1"/>
<path class="bond-13 atom-13 atom-14" d="M 501.5,140.0 L 546.7,98.2" style="fill:none;fill-rule:evenodd;stroke:#000000;stroke-width:2.0px;stroke-linecap:butt;stroke-linejoin:miter;stroke-opacity:1"/>
<path class="bond-13 atom-13 atom-14" d="M 499.2,129.6 L 536.5,95.1" style="fill:none;fill-rule:evenodd;stroke:#000000;stroke-width:2.0px;stroke-linecap:butt;stroke-linejoin:miter;stroke-opacity:1"/>
<path class="bond-14 atom-14 atom-15" d="M 546.7,98.2 L 533.1,38.2" style="fill:none;fill-rule:evenodd;stroke:#000000;stroke-width:2.0px;stroke-linecap:butt;stroke-linejoin:miter;stroke-opacity:1"/>
<path class="bond-15 atom-15 atom-16" d="M 533.1,38.2 L 474.4,20.0" style="fill:none;fill-rule:evenodd;stroke:#000000;stroke-width:2.0px;stroke-linecap:butt;stroke-linejoin:miter;stroke-opacity:1"/>
<path class="bond-15 atom-15 atom-16" d="M 525.3,45.5 L 476.7,30.4" style="fill:none;fill-rule:evenodd;stroke:#000000;stroke-width:2.0px;stroke-linecap:butt;stroke-linejoin:miter;stroke-opacity:1"/>
<path class="bond-16 atom-16 atom-17" d="M 474.4,20.0 L 429.2,61.8" style="fill:none;fill-rule:evenodd;stroke:#000000;stroke-width:2.0px;stroke-linecap:butt;stroke-linejoin:miter;stroke-opacity:1"/>
<path class="bond-17 atom-17 atom-18" d="M 429.2,61.8 L 442.8,121.8" style="fill:none;fill-rule:evenodd;stroke:#000000;stroke-width:2.0px;stroke-linecap:butt;stroke-linejoin:miter;stroke-opacity:1"/>
<path class="bond-17 atom-17 atom-18" d="M 439.4,64.9 L 450.6,114.5" style="fill:none;fill-rule:evenodd;stroke:#000000;stroke-width:2.0px;stroke-linecap:butt;stroke-linejoin:miter;stroke-opacity:1"/>
<path class="bond-18 atom-12 atom-19" d="M 515.1,200.0 L 528.7,260.0" style="fill:none;fill-rule:evenodd;stroke:#000000;stroke-width:2.0px;stroke-linecap:butt;stroke-linejoin:miter;stroke-opacity:1"/>
<path class="bond-19 atom-19 atom-20" d="M 528.7,260.0 L 483.5,301.8" style="fill:none;fill-rule:evenodd;stroke:#000000;stroke-width:2.0px;stroke-linecap:butt;stroke-linejoin:miter;stroke-opacity:1"/>
<path class="bond-19 atom-19 atom-20" d="M 531.1,270.4 L 493.7,304.9" style="fill:none;fill-rule:evenodd;stroke:#000000;stroke-width:2.0px;stroke-linecap:butt;stroke-linejoin:miter;stroke-opacity:1"/>
<path class="bond-20 atom-20 atom-21" d="M 483.5,301.8 L 497.1,361.8" style="fill:none;fill-rule:evenodd;stroke:#000000;stroke-width:2.0px;stroke-linecap:butt;stroke-linejoin:miter;stroke-opacity:1"/>
<path class="bond-21 atom-21 atom-22" d="M 497.1,361.8 L 555.9,380.0" style="fill:none;fill-rule:evenodd;stroke:#000000;stroke-width:2.0px;stroke-linecap:butt;stroke-linejoin:miter;stroke-opacity:1"/>
<path class="bond-21 atom-21 atom-22" d="M 504.9,354.5 L 553.5,369.6" style="fill:none;fill-rule:evenodd;stroke:#000000;stroke-width:2.0px;stroke-linecap:butt;stroke-linejoin:miter;stroke-opacity:1"/>
<path class="bond-22 atom-22 atom-23" d="M 555.9,380.0 L 601.0,338.2" style="fill:none;fill-rule:evenodd;stroke:#000000;stroke-width:2.0px;stroke-linecap:butt;stroke-linejoin:miter;stroke-opacity:1"/>
<path class="bond-23 atom-23 atom-24" d="M 601.0,338.2 L 587.5,278.2" style="fill:none;fill-rule:evenodd;stroke:#000000;stroke-width:2.0px;stroke-linecap:butt;stroke-linejoin:miter;stroke-opacity:1"/>
<path class="bond-23 atom-23 atom-24" d="M 590.9,335.1 L 579.6,285.5" style="fill:none;fill-rule:evenodd;stroke:#000000;stroke-width:2.0px;stroke-linecap:butt;stroke-linejoin:miter;stroke-opacity:1"/>
<path class="bond-24 atom-12 atom-25" d="M 515.1,200.0 L 455.1,213.6" style="fill:none;fill-rule:evenodd;stroke:#000000;stroke-width:2.0px;stroke-linecap:butt;stroke-linejoin:miter;stroke-opacity:1"/>
<path class="bond-25 atom-25 atom-26" d="M 455.1,213.6 L 413.3,168.4" style="fill:none;fill-rule:evenodd;stroke:#000000;stroke-width:2.0px;stroke-linecap:butt;stroke-linejoin:miter;stroke-opacity:1"/>
<path class="bond-25 atom-25 atom-26" d="M 444.7,215.9 L 410.2,178.6" style="fill:none;fill-rule:evenodd;stroke:#000000;stroke-width:2.0px;stroke-linecap:butt;stroke-linejoin:miter;stroke-opacity:1"/>
<path class="bond-26 atom-26 atom-27" d="M 413.3,168.4 L 353.3,182.0" style="fill:none;fill-rule:evenodd;stroke:#000000;stroke-width:2.0px;stroke-linecap:butt;stroke-linejoin:miter;stroke-opacity:1"/>
<path class="bond-27 atom-27 atom-28" d="M 353.3,182.0 L 335.1,240.8" style="fill:none;fill-rule:evenodd;stroke:#000000;stroke-width:2.0px;stroke-linecap:butt;stroke-linejoin:miter;stroke-opacity:1"/>
<path class="bond-27 atom-27 atom-28" d="M 360.6,189.8 L 345.5,238.4" style="fill:none;fill-rule:evenodd;stroke:#000000;stroke-width:2.0px;stroke-linecap:butt;stroke-linejoin:miter;stroke-opacity:1"/>
<path class="bond-28 atom-28 atom-29" d="M 335.1,240.8 L 376.9,285.9" style="fill:none;fill-rule:evenodd;stroke:#000000;stroke-width:2.0px;stroke-linecap:butt;stroke-linejoin:miter;stroke-opacity:1"/>
<path class="bond-29 atom-29 atom-30" d="M 376.9,285.9 L 436.9,272.3" style="fill:none;fill-rule:evenodd;stroke:#000000;stroke-width:2.0px;stroke-linecap:butt;stroke-linejoin:miter;stroke-opacity:1"/>
<path class="bond-29 atom-29 atom-30" d="M 380.0,275.8 L 429.7,264.5" style="fill:none;fill-rule:evenodd;stroke:#000000;stroke-width:2.0px;stroke-linecap:butt;stroke-linejoin:miter;stroke-opacity:1"/>
<path class="bond-30 atom-18 atom-13" d="M 442.8,121.8 L 501.5,140.0" style="fill:none;fill-rule:evenodd;stroke:#000000;stroke-width:2.0px;stroke-linecap:butt;stroke-linejoin:miter;stroke-opacity:1"/>
<path class="bond-31 atom-24 atom-19" d="M 587.5,278.2 L 528.7,260.0" style="fill:none;fill-rule:evenodd;stroke:#000000;stroke-width:2.0px;stroke-linecap:butt;stroke-linejoin:miter;stroke-opacity:1"/>
<path class="bond-32 atom-30 atom-25" d="M 436.9,272.3 L 455.1,213.6" style="fill:none;fill-rule:evenodd;stroke:#000000;stroke-width:2.0px;stroke-linecap:butt;stroke-linejoin:miter;stroke-opacity:1"/>
<path d="M 691.7,278.4 L 690.5,278.0 L 689.8,275.0" style="fill:none;stroke:#000000;stroke-width:2.0px;stroke-linecap:butt;stroke-linejoin:miter;stroke-opacity:1;"/>
<path d="M 733.9,205.1 L 736.9,204.4 L 737.3,203.2" style="fill:none;stroke:#000000;stroke-width:2.0px;stroke-linecap:butt;stroke-linejoin:miter;stroke-opacity:1;"/>
<path d="M 813.9,132.3 L 815.1,132.1 L 815.6,130.6" style="fill:none;stroke:#000000;stroke-width:2.0px;stroke-linecap:butt;stroke-linejoin:miter;stroke-opacity:1;"/>
<path d="M 619.9,230.9 L 616.9,231.6 L 616.1,230.7" style="fill:none;stroke:#000000;stroke-width:2.0px;stroke-linecap:butt;stroke-linejoin:miter;stroke-opacity:1;"/>
<path d="M 544.4,100.3 L 546.7,98.2 L 546.0,95.2" style="fill:none;stroke:#000000;stroke-width:2.0px;stroke-linecap:butt;stroke-linejoin:miter;stroke-opacity:1;"/>
<path d="M 533.8,41.2 L 533.1,38.2 L 530.2,37.3" style="fill:none;stroke:#000000;stroke-width:2.0px;stroke-linecap:butt;stroke-linejoin:miter;stroke-opacity:1;"/>
<path d="M 477.3,20.9 L 474.4,20.0 L 472.1,22.1" style="fill:none;stroke:#000000;stroke-width:2.0px;stroke-linecap:butt;stroke-linejoin:miter;stroke-opacity:1;"/>
<path d="M 431.4,59.7 L 429.2,61.8 L 429.9,64.8" style="fill:none;stroke:#000000;stroke-width:2.0px;stroke-linecap:butt;stroke-linejoin:miter;stroke-opacity:1;"/>
<path d="M 442.1,118.8 L 442.8,121.8 L 445.7,122.7" style="fill:none;stroke:#000000;stroke-width:2.0px;stroke-linecap:butt;stroke-linejoin:miter;stroke-opacity:1;"/>
<path d="M 485.8,299.7 L 483.5,301.8 L 484.2,304.8" style="fill:none;stroke:#000000;stroke-width:2.0px;stroke-linecap:butt;stroke-linejoin:miter;stroke-opacity:1;"/>
<path d="M 496.4,358.8 L 497.1,361.8 L 500.1,362.7" style="fill:none;stroke:#000000;stroke-width:2.0px;stroke-linecap:butt;stroke-linejoin:miter;stroke-opacity:1;"/>
<path d="M 552.9,379.1 L 555.9,380.0 L 558.1,377.9" style="fill:none;stroke:#000000;stroke-width:2.0px;stroke-linecap:butt;stroke-linejoin:miter;stroke-opacity:1;"/>
<path d="M 598.8,340.3 L 601.0,338.2 L 600.4,335.2" style="fill:none;stroke:#000000;stroke-width:2.0px;stroke-linecap:butt;stroke-linejoin:miter;stroke-opacity:1;"/>
<path d="M 588.1,281.2 L 587.5,278.2 L 584.5,277.3" style="fill:none;stroke:#000000;stroke-width:2.0px;stroke-linecap:butt;stroke-linejoin:miter;stroke-opacity:1;"/>
<path d="M 415.4,170.7 L 413.3,168.4 L 410.3,169.1" style="fill:none;stroke:#000000;stroke-width:2.0px;stroke-linecap:butt;stroke-linejoin:miter;stroke-opacity:1;"/>
<path d="M 356.3,181.3 L 353.3,182.0 L 352.4,184.9" style="fill:none;stroke:#000000;stroke-width:2.0px;stroke-linecap:butt;stroke-linejoin:miter;stroke-opacity:1;"/>
<path d="M 336.0,237.8 L 335.1,240.8 L 337.2,243.0" style="fill:none;stroke:#000000;stroke-width:2.0px;stroke-linecap:butt;stroke-linejoin:miter;stroke-opacity:1;"/>
<path d="M 374.8,283.7 L 376.9,285.9 L 379.9,285.3" style="fill:none;stroke:#000000;stroke-width:2.0px;stroke-linecap:butt;stroke-linejoin:miter;stroke-opacity:1;"/>
<path d="M 433.9,273.0 L 436.9,272.3 L 437.8,269.4" style="fill:none;stroke:#000000;stroke-width:2.0px;stroke-linecap:butt;stroke-linejoin:miter;stroke-opacity:1;"/>
<path class="atom-0" d="M 759.5 354.3 L 762.1 351.7 L 758.7 351.0 L 759.2 349.2 L 762.3 350.8 L 761.9 347.4 L 763.7 347.4 L 763.2 350.8 L 766.4 349.3 L 766.9 351.0 L 763.5 351.6 L 766.0 354.3 L 764.5 355.3 L 762.8 352.1 L 761.0 355.3 L 759.5 354.3 " fill="#191919"/>
<path class="atom-1" d="M 741.2 296.3 Q 741.2 292.1, 743.3 289.8 Q 745.4 287.4, 749.2 287.4 Q 753.1 287.4, 755.2 289.8 Q 757.2 292.1, 757.2 296.3 Q 757.2 300.5, 755.1 302.9 Q 753.0 305.3, 749.2 305.3 Q 745.4 305.3, 743.3 302.9 Q 741.2 300.5, 741.2 296.3 M 749.2 303.3 Q 751.9 303.3, 753.3 301.6 Q 754.8 299.8, 754.8 296.3 Q 754.8 292.9, 753.3 291.1 Q 751.9 289.4, 749.2 289.4 Q 746.6 289.4, 745.1 291.1 Q 743.7 292.8, 743.7 296.3 Q 743.7 299.8, 745.1 301.6 Q 746.6 303.3, 749.2 303.3 " fill="#FF0000"/>
<path class="atom-6" d="M 747.1 145.7 Q 747.1 141.5, 749.2 139.2 Q 751.3 136.8, 755.1 136.8 Q 759.0 136.8, 761.0 139.2 Q 763.1 141.5, 763.1 145.7 Q 763.1 149.9, 761.0 152.3 Q 758.9 154.7, 755.1 154.7 Q 751.3 154.7, 749.2 152.3 Q 747.1 150.0, 747.1 145.7 M 755.1 152.8 Q 757.8 152.8, 759.2 151.0 Q 760.7 149.2, 760.7 145.7 Q 760.7 142.3, 759.2 140.6 Q 757.8 138.8, 755.1 138.8 Q 752.5 138.8, 751.0 140.5 Q 749.6 142.3, 749.6 145.7 Q 749.6 149.2, 751.0 151.0 Q 752.5 152.8, 755.1 152.8 " fill="#FF0000"/>
<path class="atom-8" d="M 830.1 71.4 L 832.6 68.8 L 829.2 68.1 L 829.7 66.3 L 832.9 67.9 L 832.4 64.5 L 834.3 64.4 L 833.8 67.9 L 836.9 66.4 L 837.5 68.1 L 834.0 68.7 L 836.5 71.3 L 835.0 72.4 L 833.3 69.2 L 831.6 72.4 L 830.1 71.4 " fill="#191919"/>
<path class="atom-9" d="M 848.9 177.3 Q 848.9 173.1, 851.0 170.8 Q 853.0 168.4, 856.9 168.4 Q 860.7 168.4, 862.8 170.8 Q 864.9 173.1, 864.9 177.3 Q 864.9 181.5, 862.8 183.9 Q 860.7 186.3, 856.9 186.3 Q 853.0 186.3, 851.0 183.9 Q 848.9 181.5, 848.9 177.3 M 856.9 184.3 Q 859.5 184.3, 861.0 182.6 Q 862.4 180.8, 862.4 177.3 Q 862.4 173.9, 861.0 172.1 Q 859.5 170.4, 856.9 170.4 Q 854.2 170.4, 852.8 172.1 Q 851.3 173.8, 851.3 177.3 Q 851.3 180.8, 852.8 182.6 Q 854.2 184.3, 856.9 184.3 " fill="#FF0000"/>
<path class="atom-11" d="M 567.1 186.5 Q 567.1 182.3, 569.2 179.9 Q 571.3 177.6, 575.1 177.6 Q 579.0 177.6, 581.0 179.9 Q 583.1 182.3, 583.1 186.5 Q 583.1 190.7, 581.0 193.1 Q 578.9 195.5, 575.1 195.5 Q 571.3 195.5, 569.2 193.1 Q 567.1 190.7, 567.1 186.5 M 575.1 193.5 Q 577.8 193.5, 579.2 191.8 Q 580.7 190.0, 580.7 186.5 Q 580.7 183.0, 579.2 181.3 Q 577.8 179.6, 575.1 179.6 Q 572.5 179.6, 571.0 181.3 Q 569.6 183.0, 569.6 186.5 Q 569.6 190.0, 571.0 191.8 Q 572.5 193.5, 575.1 193.5 " fill="#FF0000"/>
<path class="bond-0 atom-0 atom-1" d="M 502.7,616.8 L 523.2,608.6" style="fill:none;fill-rule:evenodd;stroke:#191919;stroke-width:2.0px;stroke-linecap:butt;stroke-linejoin:miter;stroke-opacity:1"/>
<path class="bond-0 atom-0 atom-1" d="M 523.2,608.6 L 543.7,600.4" style="fill:none;fill-rule:evenodd;stroke:#FF0000;stroke-width:2.0px;stroke-linecap:butt;stroke-linejoin:miter;stroke-opacity:1"/>
<path class="bond-1 atom-1 atom-2" d="M 563.7,604.2 L 582.9,619.3" style="fill:none;fill-rule:evenodd;stroke:#FF0000;stroke-width:2.0px;stroke-linecap:butt;stroke-linejoin:miter;stroke-opacity:1"/>
<path class="bond-1 atom-1 atom-2" d="M 582.9,619.3 L 602.1,634.3" style="fill:none;fill-rule:evenodd;stroke:#000000;stroke-width:2.0px;stroke-linecap:butt;stroke-linejoin:miter;stroke-opacity:1"/>
<path class="bond-2 atom-2 atom-3" d="M 602.1,634.3 L 659.2,611.4" style="fill:none;fill-rule:evenodd;stroke:#000000;stroke-width:2.0px;stroke-linecap:butt;stroke-linejoin:miter;stroke-opacity:1"/>
<path class="bond-3 atom-3 atom-4" d="M 659.2,611.4 L 707.5,649.5" style="fill:none;fill-rule:evenodd;stroke:#000000;stroke-width:2.0px;stroke-linecap:butt;stroke-linejoin:miter;stroke-opacity:1"/>
<path class="bond-4 atom-3 atom-5" d="M 659.2,611.4 L 667.9,550.5" style="fill:none;fill-rule:evenodd;stroke:#000000;stroke-width:2.0px;stroke-linecap:butt;stroke-linejoin:miter;stroke-opacity:1"/>
<path d="M 601.1,633.6 L 602.1,634.3 L 604.9,633.2" style="fill:none;stroke:#000000;stroke-width:2.0px;stroke-linecap:butt;stroke-linejoin:miter;stroke-opacity:1;"/>
<path class="atom-0" d="M 493.3 617.3 L 495.9 614.7 L 492.5 614.0 L 493.0 612.2 L 496.1 613.8 L 495.7 610.4 L 497.5 610.4 L 497.0 613.8 L 500.2 612.3 L 500.7 614.0 L 497.3 614.6 L 499.7 617.3 L 498.2 618.4 L 496.5 615.1 L 494.8 618.4 L 493.3 617.3 " fill="#191919"/>
<path class="atom-1" d="M 545.7 596.4 Q 545.7 592.2, 547.8 589.9 Q 549.8 587.5, 553.7 587.5 Q 557.5 587.5, 559.6 589.9 Q 561.7 592.2, 561.7 596.4 Q 561.7 600.6, 559.6 603.0 Q 557.5 605.4, 553.7 605.4 Q 549.8 605.4, 547.8 603.0 Q 545.7 600.6, 545.7 596.4 M 553.7 603.5 Q 556.3 603.5, 557.8 601.7 Q 559.2 599.9, 559.2 596.4 Q 559.2 593.0, 557.8 591.2 Q 556.3 589.5, 553.7 589.5 Q 551.0 589.5, 549.6 591.2 Q 548.1 592.9, 548.1 596.4 Q 548.1 599.9, 549.6 601.7 Q 551.0 603.5, 553.7 603.5 " fill="#FF0000"/>
</svg>