<svg xmlns="http://www.w3.org/2000/svg" xmlns:rdkit="http://www.rdkit.org/xml" xmlns:xlink="http://www.w3.org/1999/xlink" version="1.1" baseProfile="full" xml:space="preserve" width="1200px" height="800px" viewBox="0 0 1200 800">
<!-- END OF HEADER -->
<rect style="opacity:1.0;fill:#FFFFFF;stroke:none" width="1200.0" height="800.0" x="0.0" y="0.0"> </rect>
<path class="bond-0 atom-0 atom-1" d="M 871.2,55.9 L 852.0,116.5" style="fill:none;fill-rule:evenodd;stroke:#191919;stroke-width:2.0px;stroke-linecap:butt;stroke-linejoin:miter;stroke-opacity:1"/>
<path class="bond-0 atom-0 atom-1" d="M 852.0,116.5 L 832.8,177.1" style="fill:none;fill-rule:evenodd;stroke:#FF0000;stroke-width:2.0px;stroke-linecap:butt;stroke-linejoin:miter;stroke-opacity:1"/>
<path class="bond-1 atom-1 atom-2" d="M 808.7,200.4 L 743.8,214.6" style="fill:none;fill-rule:evenodd;stroke:#FF0000;stroke-width:2.0px;stroke-linecap:butt;stroke-linejoin:miter;stroke-opacity:1"/>
<path class="bond-1 atom-1 atom-2" d="M 743.8,214.6 L 679.0,228.8" style="fill:none;fill-rule:evenodd;stroke:#000000;stroke-width:2.0px;stroke-linecap:butt;stroke-linejoin:miter;stroke-opacity:1"/>
<path class="bond-2 atom-2 atom-3" d="M 679.0,228.8 L 644.1,376.3 L 622.5,369.5 Z" style="fill:#000000;fill-rule:evenodd;fill-opacity:1;stroke:#000000;stroke-width:0.5px;stroke-linecap:butt;stroke-linejoin:miter;stroke-opacity:1;"/>
<path class="bond-3 atom-2 atom-4" d="M 679.0,228.8 L 577.1,117.2" style="fill:none;fill-rule:evenodd;stroke:#000000;stroke-width:2.0px;stroke-linecap:butt;stroke-linejoin:miter;stroke-opacity:1"/>
<path class="bond-4 atom-4 atom-5" d="M 577.1,117.2 L 429.5,149.7" style="fill:none;fill-rule:evenodd;stroke:#000000;stroke-width:2.0px;stroke-linecap:butt;stroke-linejoin:miter;stroke-opacity:1"/>
<path class="bond-5 atom-5 atom-6" d="M 429.5,149.7 L 380.2,95.7" style="fill:none;fill-rule:evenodd;stroke:#000000;stroke-width:2.0px;stroke-linecap:butt;stroke-linejoin:miter;stroke-opacity:1"/>
<path class="bond-5 atom-5 atom-6" d="M 380.2,95.7 L 330.9,41.6" style="fill:none;fill-rule:evenodd;stroke:#191919;stroke-width:2.0px;stroke-linecap:butt;stroke-linejoin:miter;stroke-opacity:1"/>
<path class="bond-6 atom-5 atom-7" d="M 420.7,140.0 L 399.9,205.5" style="fill:none;fill-rule:evenodd;stroke:#000000;stroke-width:2.0px;stroke-linecap:butt;stroke-linejoin:miter;stroke-opacity:1"/>
<path class="bond-6 atom-5 atom-7" d="M 399.9,205.5 L 379.2,271.0" style="fill:none;fill-rule:evenodd;stroke:#FF0000;stroke-width:2.0px;stroke-linecap:butt;stroke-linejoin:miter;stroke-opacity:1"/>
<path class="bond-6 atom-5 atom-7" d="M 442.3,146.9 L 421.6,212.4" style="fill:none;fill-rule:evenodd;stroke:#000000;stroke-width:2.0px;stroke-linecap:butt;stroke-linejoin:miter;stroke-opacity:1"/>
<path class="bond-6 atom-5 atom-7" d="M 421.6,212.4 L 400.8,277.8" style="fill:none;fill-rule:evenodd;stroke:#FF0000;stroke-width:2.0px;stroke-linecap:butt;stroke-linejoin:miter;stroke-opacity:1"/>
<path d="M 682.3,228.1 L 679.0,228.8 L 673.9,223.3" style="fill:none;stroke:#000000;stroke-width:2.0px;stroke-linecap:butt;stroke-linejoin:miter;stroke-opacity:1;"/>
<path d="M 582.2,122.8 L 577.1,117.2 L 569.8,118.9" style="fill:none;stroke:#000000;stroke-width:2.0px;stroke-linecap:butt;stroke-linejoin:miter;stroke-opacity:1;"/>
<path d="M 436.9,148.1 L 429.5,149.7 L 427.1,147.0" style="fill:none;stroke:#000000;stroke-width:2.0px;stroke-linecap:butt;stroke-linejoin:miter;stroke-opacity:1;"/>
<path class="atom-0" d="M 867.0 49.2 L 871.2 45.0 L 865.6 43.8 L 866.5 41.0 L 871.6 43.6 L 870.8 38.0 L 873.8 38.0 L 873.0 43.5 L 878.2 41.1 L 879.0 43.8 L 873.4 44.9 L 877.4 49.2 L 875.0 50.9 L 872.2 45.6 L 869.4 50.9 L 867.0 49.2 " fill="#191919"/>
<path class="atom-1" d="M 813.6 196.5 Q 813.6 189.7, 817.0 185.9 Q 820.4 182.1, 826.6 182.1 Q 832.9 182.1, 836.3 185.9 Q 839.6 189.7, 839.6 196.5 Q 839.6 203.4, 836.2 207.3 Q 832.8 211.2, 826.6 211.2 Q 820.4 211.2, 817.0 207.3 Q 813.6 203.4, 813.6 196.5 M 826.6 208.0 Q 831.0 208.0, 833.3 205.1 Q 835.6 202.2, 835.6 196.5 Q 835.6 190.9, 833.3 188.1 Q 831.0 185.3, 826.6 185.3 Q 822.3 185.3, 820.0 188.1 Q 817.6 190.9, 817.6 196.5 Q 817.6 202.2, 820.0 205.1 Q 822.3 208.0, 826.6 208.0 " fill="#FF0000"/>
<path class="atom-6" d="M 322.3 34.9 L 326.5 30.7 L 321.0 29.6 L 321.8 26.7 L 326.9 29.3 L 326.2 23.7 L 329.2 23.7 L 328.3 29.2 L 333.5 26.8 L 334.4 29.6 L 328.8 30.6 L 332.8 34.9 L 330.3 36.6 L 327.6 31.4 L 324.8 36.6 L 322.3 34.9 " fill="#191919"/>
<path class="atom-7" d="M 370.8 293.8 Q 370.8 287.0, 374.2 283.2 Q 377.6 279.4, 383.8 279.4 Q 390.1 279.4, 393.5 283.2 Q 396.8 287.0, 396.8 293.8 Q 396.8 300.7, 393.4 304.6 Q 390.0 308.5, 383.8 308.5 Q 377.6 308.5, 374.2 304.6 Q 370.8 300.7, 370.8 293.8 M 383.8 305.3 Q 388.2 305.3, 390.5 302.4 Q 392.8 299.5, 392.8 293.8 Q 392.8 288.2, 390.5 285.4 Q 388.2 282.6, 383.8 282.6 Q 379.5 282.6, 377.2 285.4 Q 374.8 288.2, 374.8 293.8 Q 374.8 299.5, 377.2 302.4 Q 379.5 305.3, 383.8 305.3 " fill="#FF0000"/>
<path class="bond-0 atom-0 atom-1" d="M 220.6,651.6 L 274.3,626.7" style="fill:none;fill-rule:evenodd;stroke:#191919;stroke-width:2.0px;stroke-linecap:butt;stroke-linejoin:miter;stroke-opacity:1"/>
<path class="bond-0 atom-0 atom-1" d="M 274.3,626.7 L 328.0,601.7" style="fill:none;fill-rule:evenodd;stroke:#FF0000;stroke-width:2.0px;stroke-linecap:butt;stroke-linejoin:miter;stroke-opacity:1"/>
<path class="bond-1 atom-1 atom-2" d="M 364.0,606.0 L 416.8,643.1" style="fill:none;fill-rule:evenodd;stroke:#FF0000;stroke-width:2.0px;stroke-linecap:butt;stroke-linejoin:miter;stroke-opacity:1"/>
<path class="bond-1 atom-1 atom-2" d="M 416.8,643.1 L 469.6,680.2" style="fill:none;fill-rule:evenodd;stroke:#000000;stroke-width:2.0px;stroke-linecap:butt;stroke-linejoin:miter;stroke-opacity:1"/>
<path class="bond-2 atom-2 atom-3" d="M 469.6,680.2 L 606.7,616.5" style="fill:none;fill-rule:evenodd;stroke:#000000;stroke-width:2.0px;stroke-linecap:butt;stroke-linejoin:miter;stroke-opacity:1"/>
<path class="bond-3 atom-3 atom-4" d="M 606.7,616.5 L 730.4,703.4" style="fill:none;fill-rule:evenodd;stroke:#000000;stroke-width:2.0px;stroke-linecap:butt;stroke-linejoin:miter;stroke-opacity:1"/>
<path class="bond-4 atom-4 atom-5" d="M 730.4,703.4 L 867.4,639.7" style="fill:none;fill-rule:evenodd;stroke:#000000;stroke-width:2.0px;stroke-linecap:butt;stroke-linejoin:miter;stroke-opacity:1"/>
<path class="bond-5 atom-5 atom-6" d="M 867.4,639.7 L 923.4,679.0" style="fill:none;fill-rule:evenodd;stroke:#000000;stroke-width:2.0px;stroke-linecap:butt;stroke-linejoin:miter;stroke-opacity:1"/>
<path class="bond-5 atom-5 atom-6" d="M 923.4,679.0 L 979.4,718.4" style="fill:none;fill-rule:evenodd;stroke:#191919;stroke-width:2.0px;stroke-linecap:butt;stroke-linejoin:miter;stroke-opacity:1"/>
<path class="bond-6 atom-5 atom-7" d="M 878.1,647.2 L 884.2,578.6" style="fill:none;fill-rule:evenodd;stroke:#000000;stroke-width:2.0px;stroke-linecap:butt;stroke-linejoin:miter;stroke-opacity:1"/>
<path class="bond-6 atom-5 atom-7" d="M 884.2,578.6 L 890.3,509.9" style="fill:none;fill-rule:evenodd;stroke:#FF0000;stroke-width:2.0px;stroke-linecap:butt;stroke-linejoin:miter;stroke-opacity:1"/>
<path class="bond-6 atom-5 atom-7" d="M 855.5,645.2 L 861.6,576.6" style="fill:none;fill-rule:evenodd;stroke:#000000;stroke-width:2.0px;stroke-linecap:butt;stroke-linejoin:miter;stroke-opacity:1"/>
<path class="bond-6 atom-5 atom-7" d="M 861.6,576.6 L 867.7,507.9" style="fill:none;fill-rule:evenodd;stroke:#FF0000;stroke-width:2.0px;stroke-linecap:butt;stroke-linejoin:miter;stroke-opacity:1"/>
<path d="M 467.0,678.4 L 469.6,680.2 L 476.5,677.0" style="fill:none;stroke:#000000;stroke-width:2.0px;stroke-linecap:butt;stroke-linejoin:miter;stroke-opacity:1;"/>
<path d="M 599.8,619.7 L 606.7,616.5 L 612.9,620.9" style="fill:none;stroke:#000000;stroke-width:2.0px;stroke-linecap:butt;stroke-linejoin:miter;stroke-opacity:1;"/>
<path d="M 724.2,699.1 L 730.4,703.4 L 737.2,700.2" style="fill:none;stroke:#000000;stroke-width:2.0px;stroke-linecap:butt;stroke-linejoin:miter;stroke-opacity:1;"/>
<path d="M 860.6,642.9 L 867.4,639.7 L 870.2,641.7" style="fill:none;stroke:#000000;stroke-width:2.0px;stroke-linecap:butt;stroke-linejoin:miter;stroke-opacity:1;"/>
<path class="atom-0" d="M 203.6 653.9 L 207.7 649.6 L 202.2 648.5 L 203.1 645.7 L 208.1 648.2 L 207.4 642.7 L 210.4 642.6 L 209.6 648.2 L 214.7 645.8 L 215.6 648.5 L 210.0 649.6 L 214.0 653.8 L 211.6 655.6 L 208.8 650.3 L 206.0 655.6 L 203.6 653.9 " fill="#191919"/>
<path class="atom-1" d="M 333.0 593.5 Q 333.0 586.7, 336.3 582.9 Q 339.7 579.1, 346.0 579.1 Q 352.2 579.1, 355.6 582.9 Q 359.0 586.7, 359.0 593.5 Q 359.0 600.3, 355.6 604.3 Q 352.2 608.1, 346.0 608.1 Q 339.7 608.1, 336.3 604.3 Q 333.0 600.4, 333.0 593.5 M 346.0 604.9 Q 350.3 604.9, 352.6 602.1 Q 355.0 599.1, 355.0 593.5 Q 355.0 587.9, 352.6 585.1 Q 350.3 582.3, 346.0 582.3 Q 341.6 582.3, 339.3 585.1 Q 337.0 587.9, 337.0 593.5 Q 337.0 599.2, 339.3 602.1 Q 341.6 604.9, 346.0 604.9 " fill="#FF0000"/>
<path class="atom-6" d="M 985.7 723.4 L 989.9 719.2 L 984.4 718.0 L 985.2 715.2 L 990.3 717.8 L 989.6 712.2 L 992.6 712.2 L 991.7 717.7 L 996.9 715.3 L 997.8 718.0 L 992.2 719.1 L 996.2 723.4 L 993.7 725.1 L 991.0 719.8 L 988.2 725.1 L 985.7 723.4 " fill="#191919"/>
<path class="atom-7" d="M 867.8 489.3 Q 867.8 482.5, 871.1 478.7 Q 874.5 474.9, 880.8 474.9 Q 887.1 474.9, 890.4 478.7 Q 893.8 482.5, 893.8 489.3 Q 893.8 496.2, 890.4 500.1 Q 887.0 504.0, 880.8 504.0 Q 874.5 504.0, 871.1 500.1 Q 867.8 496.2, 867.8 489.3 M 880.8 500.8 Q 885.1 500.8, 887.4 497.9 Q 889.8 495.0, 889.8 489.3 Q 889.8 483.7, 887.4 480.9 Q 885.1 478.1, 880.8 478.1 Q 876.5 478.1, 874.1 480.9 Q 871.8 483.7, 871.8 489.3 Q 871.8 495.0, 874.1 497.9 Q 876.5 500.8, 880.8 500.8 " fill="#FF0000"/>
</svg>