<svg xmlns="http://www.w3.org/2000/svg" xmlns:rdkit="http://www.rdkit.org/xml" xmlns:xlink="http://www.w3.org/1999/xlink" version="1.1" baseProfile="full" xml:space="preserve" width="1200px" height="800px" viewBox="0 0 1200 800">
<!-- END OF HEADER -->
<rect style="opacity:1.0;fill:#FFFFFF;stroke:none" width="1200.0" height="800.0" x="0.0" y="0.0"> </rect>
<path class="bond-0 atom-0 atom-1" d="M 327.1,192.2 L 400.4,149.9" style="fill:none;fill-rule:evenodd;stroke:#191919;stroke-width:2.0px;stroke-linecap:butt;stroke-linejoin:miter;stroke-opacity:1"/>
<path class="bond-0 atom-0 atom-1" d="M 400.4,149.9 L 473.7,107.5" style="fill:none;fill-rule:evenodd;stroke:#FF0000;stroke-width:2.0px;stroke-linecap:butt;stroke-linejoin:miter;stroke-opacity:1"/>
<path class="bond-1 atom-1 atom-2" d="M 513.4,107.5 L 583.9,148.2" style="fill:none;fill-rule:evenodd;stroke:#FF0000;stroke-width:2.0px;stroke-linecap:butt;stroke-linejoin:miter;stroke-opacity:1"/>
<path class="bond-1 atom-1 atom-2" d="M 583.9,148.2 L 654.3,188.9" style="fill:none;fill-rule:evenodd;stroke:#000000;stroke-width:2.0px;stroke-linecap:butt;stroke-linejoin:miter;stroke-opacity:1"/>
<path class="bond-2 atom-2 atom-3" d="M 685.7,179.0 L 777.5,20.0" style="fill:none;fill-rule:evenodd;stroke:#000000;stroke-width:2.0px;stroke-linecap:butt;stroke-linejoin:miter;stroke-opacity:1"/>
<path class="bond-3 atom-2 atom-4" d="M 661.0,221.8 L 569.6,380.0" style="fill:none;fill-rule:evenodd;stroke:#000000;stroke-width:2.0px;stroke-linecap:butt;stroke-linejoin:miter;stroke-opacity:1"/>
<path class="bond-4 atom-2 atom-5" d="M 692.8,211.1 L 763.3,251.8" style="fill:none;fill-rule:evenodd;stroke:#000000;stroke-width:2.0px;stroke-linecap:butt;stroke-linejoin:miter;stroke-opacity:1"/>
<path class="bond-4 atom-2 atom-5" d="M 763.3,251.8 L 833.7,292.5" style="fill:none;fill-rule:evenodd;stroke:#FF0000;stroke-width:2.0px;stroke-linecap:butt;stroke-linejoin:miter;stroke-opacity:1"/>
<path class="atom-0" d="M 308.2 196.8 L 312.4 192.6 L 306.9 191.5 L 307.7 188.6 L 312.8 191.2 L 312.1 185.6 L 315.1 185.6 L 314.2 191.2 L 319.4 188.8 L 320.3 191.5 L 314.7 192.5 L 318.7 196.8 L 316.2 198.6 L 313.5 193.3 L 310.7 198.6 L 308.2 196.8 " fill="#191919"/>
<path class="atom-1" d="M 480.6 96.2 Q 480.6 89.4, 483.9 85.6 Q 487.3 81.8, 493.6 81.8 Q 499.8 81.8, 503.2 85.6 Q 506.6 89.4, 506.6 96.2 Q 506.6 103.0, 503.2 107.0 Q 499.8 110.8, 493.6 110.8 Q 487.3 110.8, 483.9 107.0 Q 480.6 103.1, 480.6 96.2 M 493.6 107.6 Q 497.9 107.6, 500.2 104.8 Q 502.6 101.8, 502.6 96.2 Q 502.6 90.6, 500.2 87.8 Q 497.9 85.0, 493.6 85.0 Q 489.2 85.0, 486.9 87.8 Q 484.6 90.6, 484.6 96.2 Q 484.6 101.9, 486.9 104.8 Q 489.2 107.6, 493.6 107.6 " fill="#FF0000"/>
<path class="atom-2" d="M 662.2 209.8 Q 662.6 209.9, 663.9 210.4 Q 665.2 211.0, 666.6 211.4 Q 668.1 211.7, 669.6 211.7 Q 672.2 211.7, 673.8 210.4 Q 675.4 209.1, 675.4 206.8 Q 675.4 205.2, 674.6 204.3 Q 673.8 203.3, 672.6 202.8 Q 671.4 202.3, 669.4 201.7 Q 666.9 200.9, 665.4 200.2 Q 663.9 199.5, 662.8 198.0 Q 661.8 196.4, 661.8 193.9 Q 661.8 190.3, 664.2 188.1 Q 666.6 185.9, 671.4 185.9 Q 674.7 185.9, 678.4 187.5 L 677.5 190.6 Q 674.1 189.2, 671.5 189.2 Q 668.8 189.2, 667.2 190.3 Q 665.7 191.4, 665.8 193.4 Q 665.8 194.9, 666.5 195.8 Q 667.3 196.8, 668.4 197.3 Q 669.6 197.8, 671.5 198.4 Q 674.1 199.2, 675.6 200.0 Q 677.1 200.8, 678.2 202.4 Q 679.3 204.0, 679.3 206.8 Q 679.3 210.7, 676.7 212.8 Q 674.1 214.9, 669.7 214.9 Q 667.2 214.9, 665.3 214.4 Q 663.4 213.8, 661.2 212.9 L 662.2 209.8 " fill="#000000"/>
<path class="atom-2" d="M 682.3 185.8 L 686.0 185.8 L 686.0 189.3 L 682.3 189.3 L 682.3 185.8 M 682.3 193.6 L 686.0 193.6 L 686.0 214.2 L 682.3 214.2 L 682.3 193.6 " fill="#000000"/>
<path class="atom-5" d="M 840.6 304.0 Q 840.6 297.2, 843.9 293.4 Q 847.3 289.6, 853.6 289.6 Q 859.8 289.6, 863.2 293.4 Q 866.6 297.2, 866.6 304.0 Q 866.6 310.9, 863.2 314.8 Q 859.8 318.7, 853.6 318.7 Q 847.3 318.7, 843.9 314.8 Q 840.6 310.9, 840.6 304.0 M 853.6 315.5 Q 857.9 315.5, 860.2 312.6 Q 862.6 309.7, 862.6 304.0 Q 862.6 298.4, 860.2 295.6 Q 857.9 292.8, 853.6 292.8 Q 849.2 292.8, 846.9 295.6 Q 844.6 298.4, 844.6 304.0 Q 844.6 309.7, 846.9 312.6 Q 849.2 315.5, 853.6 315.5 " fill="#FF0000"/>
<path class="atom-5" d="M 871.0 289.9 L 874.8 289.9 L 874.8 302.0 L 889.3 302.0 L 889.3 289.9 L 893.1 289.9 L 893.1 318.2 L 889.3 318.2 L 889.3 305.2 L 874.8 305.2 L 874.8 318.2 L 871.0 318.2 L 871.0 289.9 " fill="#FF0000"/>
<path class="bond-0 atom-0 atom-1" d="M 253.6,651.3 L 336.8,603.2" style="fill:none;fill-rule:evenodd;stroke:#191919;stroke-width:2.0px;stroke-linecap:butt;stroke-linejoin:miter;stroke-opacity:1"/>
<path class="bond-0 atom-0 atom-1" d="M 336.8,603.2 L 420.0,555.2" style="fill:none;fill-rule:evenodd;stroke:#000000;stroke-width:2.0px;stroke-linecap:butt;stroke-linejoin:miter;stroke-opacity:1"/>
<path class="bond-1 atom-1 atom-2" d="M 420.0,555.2 L 600.0,659.1" style="fill:none;fill-rule:evenodd;stroke:#000000;stroke-width:2.0px;stroke-linecap:butt;stroke-linejoin:miter;stroke-opacity:1"/>
<path class="bond-2 atom-2 atom-3" d="M 600.0,659.1 L 680.1,612.9" style="fill:none;fill-rule:evenodd;stroke:#000000;stroke-width:2.0px;stroke-linecap:butt;stroke-linejoin:miter;stroke-opacity:1"/>
<path class="bond-2 atom-2 atom-3" d="M 680.1,612.9 L 760.1,566.7" style="fill:none;fill-rule:evenodd;stroke:#FF0000;stroke-width:2.0px;stroke-linecap:butt;stroke-linejoin:miter;stroke-opacity:1"/>
<path class="bond-3 atom-3 atom-4" d="M 799.9,566.7 L 873.1,609.0" style="fill:none;fill-rule:evenodd;stroke:#FF0000;stroke-width:2.0px;stroke-linecap:butt;stroke-linejoin:miter;stroke-opacity:1"/>
<path class="bond-3 atom-3 atom-4" d="M 873.1,609.0 L 946.4,651.3" style="fill:none;fill-rule:evenodd;stroke:#191919;stroke-width:2.0px;stroke-linecap:butt;stroke-linejoin:miter;stroke-opacity:1"/>
<path d="M 415.8,557.6 L 420.0,555.2 L 429.0,560.4" style="fill:none;stroke:#000000;stroke-width:2.0px;stroke-linecap:butt;stroke-linejoin:miter;stroke-opacity:1;"/>
<path d="M 591.0,653.9 L 600.0,659.1 L 604.0,656.8" style="fill:none;stroke:#000000;stroke-width:2.0px;stroke-linecap:butt;stroke-linejoin:miter;stroke-opacity:1;"/>
<path class="atom-0" d="M 234.7 656.0 L 238.8 651.7 L 233.3 650.6 L 234.1 647.8 L 239.2 650.3 L 238.5 644.8 L 241.5 644.7 L 240.7 650.3 L 245.8 647.9 L 246.7 650.6 L 241.1 651.6 L 245.1 655.9 L 242.7 657.7 L 239.9 652.4 L 237.1 657.7 L 234.7 656.0 " fill="#191919"/>
<path class="atom-3" d="M 767.0 555.3 Q 767.0 548.5, 770.4 544.7 Q 773.7 540.9, 780.0 540.9 Q 786.3 540.9, 789.6 544.7 Q 793.0 548.5, 793.0 555.3 Q 793.0 562.2, 789.6 566.1 Q 786.2 570.0, 780.0 570.0 Q 773.8 570.0, 770.4 566.1 Q 767.0 562.2, 767.0 555.3 M 780.0 566.8 Q 784.3 566.8, 786.6 563.9 Q 789.0 561.0, 789.0 555.3 Q 789.0 549.7, 786.6 546.9 Q 784.3 544.1, 780.0 544.1 Q 775.7 544.1, 773.3 546.9 Q 771.0 549.7, 771.0 555.3 Q 771.0 561.0, 773.3 563.9 Q 775.7 566.8, 780.0 566.8 " fill="#FF0000"/>
<path class="atom-4" d="M 954.7 656.0 L 958.8 651.7 L 953.3 650.6 L 954.1 647.8 L 959.2 650.3 L 958.5 644.8 L 961.5 644.7 L 960.7 650.3 L 965.8 647.9 L 966.7 650.6 L 961.1 651.6 L 965.1 655.9 L 962.7 657.7 L 959.9 652.4 L 957.1 657.7 L 954.7 656.0 " fill="#191919"/>
</svg>