<svg xmlns="http://www.w3.org/2000/svg" xmlns:rdkit="http://www.rdkit.org/xml" xmlns:xlink="http://www.w3.org/1999/xlink" version="1.1" baseProfile="full" xml:space="preserve" width="1200px" height="800px" viewBox="0 0 1200 800">
<!-- END OF HEADER -->
<rect style="opacity:1.0;fill:#FFFFFF;stroke:none" width="1200.0" height="800.0" x="0.0" y="0.0"> </rect>
<path class="bond-0 atom-0 atom-1" d="M 813.3,243.7 L 782.9,270.0" style="fill:none;fill-rule:evenodd;stroke:#191919;stroke-width:2.0px;stroke-linecap:butt;stroke-linejoin:miter;stroke-opacity:1"/>
<path class="bond-0 atom-0 atom-1" d="M 782.9,270.0 L 752.5,296.4" style="fill:none;fill-rule:evenodd;stroke:#FF0000;stroke-width:2.0px;stroke-linecap:butt;stroke-linejoin:miter;stroke-opacity:1"/>
<path class="bond-1 atom-1 atom-2" d="M 719.5,304.9 L 678.0,290.6" style="fill:none;fill-rule:evenodd;stroke:#FF0000;stroke-width:2.0px;stroke-linecap:butt;stroke-linejoin:miter;stroke-opacity:1"/>
<path class="bond-1 atom-1 atom-2" d="M 678.0,290.6 L 636.5,276.2" style="fill:none;fill-rule:evenodd;stroke:#000000;stroke-width:2.0px;stroke-linecap:butt;stroke-linejoin:miter;stroke-opacity:1"/>
<path class="bond-2 atom-2 atom-3" d="M 636.5,276.2 L 556.8,345.1" style="fill:none;fill-rule:evenodd;stroke:#000000;stroke-width:2.0px;stroke-linecap:butt;stroke-linejoin:miter;stroke-opacity:1"/>
<path class="bond-3 atom-3 atom-4" d="M 556.8,345.1 L 457.3,310.6" style="fill:none;fill-rule:evenodd;stroke:#000000;stroke-width:2.0px;stroke-linecap:butt;stroke-linejoin:miter;stroke-opacity:1"/>
<path class="bond-4 atom-4 atom-5" d="M 457.3,310.6 L 377.7,379.6" style="fill:none;fill-rule:evenodd;stroke:#000000;stroke-width:2.0px;stroke-linecap:butt;stroke-linejoin:miter;stroke-opacity:1"/>
<path class="bond-5 atom-2 atom-6" d="M 636.5,276.2 L 616.6,172.7" style="fill:none;fill-rule:evenodd;stroke:#000000;stroke-width:2.0px;stroke-linecap:butt;stroke-linejoin:miter;stroke-opacity:1"/>
<path class="bond-6 atom-6 atom-7" d="M 616.6,172.7 L 517.0,138.2" style="fill:none;fill-rule:evenodd;stroke:#000000;stroke-width:2.0px;stroke-linecap:butt;stroke-linejoin:miter;stroke-opacity:1"/>
<path class="bond-7 atom-7 atom-8" d="M 517.0,138.2 L 507.3,87.5" style="fill:none;fill-rule:evenodd;stroke:#000000;stroke-width:2.0px;stroke-linecap:butt;stroke-linejoin:miter;stroke-opacity:1"/>
<path class="bond-7 atom-7 atom-8" d="M 507.3,87.5 L 497.5,36.8" style="fill:none;fill-rule:evenodd;stroke:#191919;stroke-width:2.0px;stroke-linecap:butt;stroke-linejoin:miter;stroke-opacity:1"/>
<path class="bond-8 atom-7 atom-9" d="M 515.3,129.3 L 482.0,158.1" style="fill:none;fill-rule:evenodd;stroke:#000000;stroke-width:2.0px;stroke-linecap:butt;stroke-linejoin:miter;stroke-opacity:1"/>
<path class="bond-8 atom-7 atom-9" d="M 482.0,158.1 L 448.7,187.0" style="fill:none;fill-rule:evenodd;stroke:#FF0000;stroke-width:2.0px;stroke-linecap:butt;stroke-linejoin:miter;stroke-opacity:1"/>
<path class="bond-8 atom-7 atom-9" d="M 525.6,141.2 L 492.3,170.1" style="fill:none;fill-rule:evenodd;stroke:#000000;stroke-width:2.0px;stroke-linecap:butt;stroke-linejoin:miter;stroke-opacity:1"/>
<path class="bond-8 atom-7 atom-9" d="M 492.3,170.1 L 459.0,198.9" style="fill:none;fill-rule:evenodd;stroke:#FF0000;stroke-width:2.0px;stroke-linecap:butt;stroke-linejoin:miter;stroke-opacity:1"/>
<path d="M 560.8,341.7 L 556.8,345.1 L 551.9,343.4" style="fill:none;stroke:#000000;stroke-width:2.0px;stroke-linecap:butt;stroke-linejoin:miter;stroke-opacity:1;"/>
<path d="M 462.3,312.4 L 457.3,310.6 L 453.3,314.1" style="fill:none;stroke:#000000;stroke-width:2.0px;stroke-linecap:butt;stroke-linejoin:miter;stroke-opacity:1;"/>
<path d="M 617.6,177.9 L 616.6,172.7 L 611.6,171.0" style="fill:none;stroke:#000000;stroke-width:2.0px;stroke-linecap:butt;stroke-linejoin:miter;stroke-opacity:1;"/>
<path d="M 522.0,140.0 L 517.0,138.2 L 516.5,135.7" style="fill:none;stroke:#000000;stroke-width:2.0px;stroke-linecap:butt;stroke-linejoin:miter;stroke-opacity:1;"/>
<path class="atom-0" d="M 810.3 238.5 L 814.5 234.3 L 808.9 233.2 L 809.8 230.3 L 814.9 232.9 L 814.1 227.3 L 817.1 227.3 L 816.3 232.8 L 821.5 230.4 L 822.3 233.2 L 816.7 234.2 L 820.7 238.5 L 818.3 240.2 L 815.5 235.0 L 812.7 240.2 L 810.3 238.5 " fill="#191919"/>
<path class="atom-1" d="M 723.0 310.7 Q 723.0 303.9, 726.4 300.1 Q 729.7 296.3, 736.0 296.3 Q 742.3 296.3, 745.7 300.1 Q 749.0 303.9, 749.0 310.7 Q 749.0 317.6, 745.6 321.5 Q 742.2 325.4, 736.0 325.4 Q 729.8 325.4, 726.4 321.5 Q 723.0 317.6, 723.0 310.7 M 736.0 322.2 Q 740.3 322.2, 742.7 319.3 Q 745.0 316.4, 745.0 310.7 Q 745.0 305.2, 742.7 302.4 Q 740.3 299.5, 736.0 299.5 Q 731.7 299.5, 729.3 302.3 Q 727.0 305.1, 727.0 310.7 Q 727.0 316.4, 729.3 319.3 Q 731.7 322.2, 736.0 322.2 " fill="#FF0000"/>
<path class="atom-8" d="M 491.8 31.6 L 495.9 27.4 L 490.4 26.3 L 491.2 23.4 L 496.3 26.0 L 495.6 20.4 L 498.6 20.4 L 497.8 25.9 L 502.9 23.5 L 503.8 26.3 L 498.2 27.3 L 502.2 31.6 L 499.8 33.3 L 497.0 28.1 L 494.2 33.3 L 491.8 31.6 " fill="#191919"/>
<path class="atom-9" d="M 424.4 207.3 Q 424.4 200.5, 427.7 196.7 Q 431.1 192.9, 437.4 192.9 Q 443.7 192.9, 447.0 196.7 Q 450.4 200.5, 450.4 207.3 Q 450.4 214.2, 447.0 218.1 Q 443.6 222.0, 437.4 222.0 Q 431.1 222.0, 427.7 218.1 Q 424.4 214.2, 424.4 207.3 M 437.4 218.8 Q 441.7 218.8, 444.0 215.9 Q 446.4 213.0, 446.4 207.3 Q 446.4 201.7, 444.0 198.9 Q 441.7 196.1, 437.4 196.1 Q 433.1 196.1, 430.7 198.9 Q 428.4 201.7, 428.4 207.3 Q 428.4 213.0, 430.7 215.9 Q 433.1 218.8, 437.4 218.8 " fill="#FF0000"/>
<path class="bond-0 atom-0 atom-1" d="M 789.2,502.5 L 776.4,542.8" style="fill:none;fill-rule:evenodd;stroke:#191919;stroke-width:2.0px;stroke-linecap:butt;stroke-linejoin:miter;stroke-opacity:1"/>
<path class="bond-0 atom-0 atom-1" d="M 776.4,542.8 L 763.6,583.1" style="fill:none;fill-rule:evenodd;stroke:#FF0000;stroke-width:2.0px;stroke-linecap:butt;stroke-linejoin:miter;stroke-opacity:1"/>
<path class="bond-1 atom-1 atom-2" d="M 741.5,604.5 L 698.3,614.0" style="fill:none;fill-rule:evenodd;stroke:#FF0000;stroke-width:2.0px;stroke-linecap:butt;stroke-linejoin:miter;stroke-opacity:1"/>
<path class="bond-1 atom-1 atom-2" d="M 698.3,614.0 L 655.1,623.5" style="fill:none;fill-rule:evenodd;stroke:#000000;stroke-width:2.0px;stroke-linecap:butt;stroke-linejoin:miter;stroke-opacity:1"/>
<path class="bond-2 atom-2 atom-3" d="M 655.1,623.5 L 623.2,723.9" style="fill:none;fill-rule:evenodd;stroke:#000000;stroke-width:2.0px;stroke-linecap:butt;stroke-linejoin:miter;stroke-opacity:1"/>
<path class="bond-3 atom-2 atom-4" d="M 655.1,623.5 L 584.1,545.7" style="fill:none;fill-rule:evenodd;stroke:#000000;stroke-width:2.0px;stroke-linecap:butt;stroke-linejoin:miter;stroke-opacity:1"/>
<path class="bond-4 atom-4 atom-5" d="M 584.1,545.7 L 481.2,568.3" style="fill:none;fill-rule:evenodd;stroke:#000000;stroke-width:2.0px;stroke-linecap:butt;stroke-linejoin:miter;stroke-opacity:1"/>
<path class="bond-5 atom-5 atom-6" d="M 481.2,568.3 L 446.6,530.4" style="fill:none;fill-rule:evenodd;stroke:#000000;stroke-width:2.0px;stroke-linecap:butt;stroke-linejoin:miter;stroke-opacity:1"/>
<path class="bond-5 atom-5 atom-6" d="M 446.6,530.4 L 412.0,492.5" style="fill:none;fill-rule:evenodd;stroke:#191919;stroke-width:2.0px;stroke-linecap:butt;stroke-linejoin:miter;stroke-opacity:1"/>
<path class="bond-6 atom-5 atom-7" d="M 475.0,561.6 L 461.2,605.0" style="fill:none;fill-rule:evenodd;stroke:#000000;stroke-width:2.0px;stroke-linecap:butt;stroke-linejoin:miter;stroke-opacity:1"/>
<path class="bond-6 atom-5 atom-7" d="M 461.2,605.0 L 447.4,648.5" style="fill:none;fill-rule:evenodd;stroke:#FF0000;stroke-width:2.0px;stroke-linecap:butt;stroke-linejoin:miter;stroke-opacity:1"/>
<path class="bond-6 atom-5 atom-7" d="M 490.1,566.3 L 476.3,609.8" style="fill:none;fill-rule:evenodd;stroke:#000000;stroke-width:2.0px;stroke-linecap:butt;stroke-linejoin:miter;stroke-opacity:1"/>
<path class="bond-6 atom-5 atom-7" d="M 476.3,609.8 L 462.5,653.3" style="fill:none;fill-rule:evenodd;stroke:#FF0000;stroke-width:2.0px;stroke-linecap:butt;stroke-linejoin:miter;stroke-opacity:1"/>
<path d="M 587.6,549.6 L 584.1,545.7 L 578.9,546.8" style="fill:none;stroke:#000000;stroke-width:2.0px;stroke-linecap:butt;stroke-linejoin:miter;stroke-opacity:1;"/>
<path d="M 486.3,567.2 L 481.2,568.3 L 479.4,566.4" style="fill:none;stroke:#000000;stroke-width:2.0px;stroke-linecap:butt;stroke-linejoin:miter;stroke-opacity:1;"/>
<path class="atom-0" d="M 784.5 497.3 L 788.7 493.1 L 783.2 491.9 L 784.0 489.1 L 789.1 491.7 L 788.4 486.1 L 791.4 486.1 L 790.5 491.6 L 795.7 489.2 L 796.6 491.9 L 791.0 493.0 L 795.0 497.3 L 792.5 499.0 L 789.8 493.7 L 787.0 499.0 L 784.5 497.3 " fill="#191919"/>
<path class="atom-1" d="M 745.0 601.0 Q 745.0 594.2, 748.4 590.4 Q 751.7 586.6, 758.0 586.6 Q 764.3 586.6, 767.6 590.4 Q 771.0 594.2, 771.0 601.0 Q 771.0 607.8, 767.6 611.8 Q 764.2 615.6, 758.0 615.6 Q 751.8 615.6, 748.4 611.8 Q 745.0 607.9, 745.0 601.0 M 758.0 612.4 Q 762.3 612.4, 764.6 609.6 Q 767.0 606.6, 767.0 601.0 Q 767.0 595.4, 764.6 592.6 Q 762.3 589.8, 758.0 589.8 Q 753.7 589.8, 751.3 592.6 Q 749.0 595.4, 749.0 601.0 Q 749.0 606.7, 751.3 609.6 Q 753.7 612.4, 758.0 612.4 " fill="#FF0000"/>
<path class="atom-6" d="M 404.8 487.3 L 409.0 483.1 L 403.4 482.0 L 404.3 479.1 L 409.4 481.7 L 408.6 476.1 L 411.6 476.1 L 410.8 481.7 L 416.0 479.3 L 416.8 482.0 L 411.2 483.0 L 415.2 487.3 L 412.8 489.1 L 410.0 483.8 L 407.2 489.1 L 404.8 487.3 " fill="#191919"/>
<path class="atom-7" d="M 436.3 668.8 Q 436.3 662.0, 439.7 658.2 Q 443.0 654.4, 449.3 654.4 Q 455.6 654.4, 459.0 658.2 Q 462.3 662.0, 462.3 668.8 Q 462.3 675.7, 458.9 679.6 Q 455.5 683.5, 449.3 683.5 Q 443.1 683.5, 439.7 679.6 Q 436.3 675.7, 436.3 668.8 M 449.3 680.3 Q 453.6 680.3, 456.0 677.4 Q 458.3 674.5, 458.3 668.8 Q 458.3 663.2, 456.0 660.4 Q 453.6 657.6, 449.3 657.6 Q 445.0 657.6, 442.6 660.4 Q 440.3 663.2, 440.3 668.8 Q 440.3 674.5, 442.6 677.4 Q 445.0 680.3, 449.3 680.3 " fill="#FF0000"/>
</svg>