<svg xmlns="http://www.w3.org/2000/svg" xmlns:rdkit="http://www.rdkit.org/xml" xmlns:xlink="http://www.w3.org/1999/xlink" version="1.1" baseProfile="full" xml:space="preserve" width="1200px" height="1600px" viewBox="0 0 1200 1600">
<!-- END OF HEADER -->
<rect style="opacity:1.0;fill:#FFFFFF;stroke:none" width="1200.0" height="1600.0" x="0.0" y="0.0"> </rect>
<path class="bond-0 atom-0 atom-1" d="M 111.0,300.2 L 147.6,273.8" style="fill:none;fill-rule:evenodd;stroke:#191919;stroke-width:2.0px;stroke-linecap:butt;stroke-linejoin:miter;stroke-opacity:1"/>
<path class="bond-0 atom-0 atom-1" d="M 147.6,273.8 L 184.2,247.4" style="fill:none;fill-rule:evenodd;stroke:#000000;stroke-width:2.0px;stroke-linecap:butt;stroke-linejoin:miter;stroke-opacity:1"/>
<path class="bond-1 atom-1 atom-2" d="M 192.3,251.0 L 187.8,206.8" style="fill:none;fill-rule:evenodd;stroke:#000000;stroke-width:2.0px;stroke-linecap:butt;stroke-linejoin:miter;stroke-opacity:1"/>
<path class="bond-1 atom-1 atom-2" d="M 187.8,206.8 L 183.3,162.6" style="fill:none;fill-rule:evenodd;stroke:#FF0000;stroke-width:2.0px;stroke-linecap:butt;stroke-linejoin:miter;stroke-opacity:1"/>
<path class="bond-1 atom-1 atom-2" d="M 177.0,252.6 L 172.5,208.4" style="fill:none;fill-rule:evenodd;stroke:#000000;stroke-width:2.0px;stroke-linecap:butt;stroke-linejoin:miter;stroke-opacity:1"/>
<path class="bond-1 atom-1 atom-2" d="M 172.5,208.4 L 168.0,164.2" style="fill:none;fill-rule:evenodd;stroke:#FF0000;stroke-width:2.0px;stroke-linecap:butt;stroke-linejoin:miter;stroke-opacity:1"/>
<path class="bond-2 atom-1 atom-3" d="M 184.2,247.4 L 224.0,265.2" style="fill:none;fill-rule:evenodd;stroke:#000000;stroke-width:2.0px;stroke-linecap:butt;stroke-linejoin:miter;stroke-opacity:1"/>
<path class="bond-2 atom-1 atom-3" d="M 224.0,265.2 L 263.7,283.1" style="fill:none;fill-rule:evenodd;stroke:#0000FF;stroke-width:2.0px;stroke-linecap:butt;stroke-linejoin:miter;stroke-opacity:1"/>
<path class="bond-3 atom-3 atom-4" d="M 292.0,279.2 L 326.5,254.3" style="fill:none;fill-rule:evenodd;stroke:#0000FF;stroke-width:2.0px;stroke-linecap:butt;stroke-linejoin:miter;stroke-opacity:1"/>
<path class="bond-3 atom-3 atom-4" d="M 326.5,254.3 L 361.1,229.3" style="fill:none;fill-rule:evenodd;stroke:#000000;stroke-width:2.0px;stroke-linecap:butt;stroke-linejoin:miter;stroke-opacity:1"/>
<path class="bond-4 atom-4 atom-5" d="M 361.1,229.3 L 350.7,127.2" style="fill:none;fill-rule:evenodd;stroke:#000000;stroke-width:2.0px;stroke-linecap:butt;stroke-linejoin:miter;stroke-opacity:1"/>
<path class="bond-5 atom-5 atom-6" d="M 350.7,127.2 L 433.9,67.1" style="fill:none;fill-rule:evenodd;stroke:#000000;stroke-width:2.0px;stroke-linecap:butt;stroke-linejoin:miter;stroke-opacity:1"/>
<path class="bond-6 atom-6 atom-7" d="M 433.9,67.1 L 527.6,109.1" style="fill:none;fill-rule:evenodd;stroke:#000000;stroke-width:2.0px;stroke-linecap:butt;stroke-linejoin:miter;stroke-opacity:1"/>
<path class="bond-7 atom-7 atom-8" d="M 527.6,109.1 L 610.8,49.0" style="fill:none;fill-rule:evenodd;stroke:#000000;stroke-width:2.0px;stroke-linecap:butt;stroke-linejoin:miter;stroke-opacity:1"/>
<path class="bond-8 atom-8 atom-9" d="M 610.8,49.0 L 704.5,91.0" style="fill:none;fill-rule:evenodd;stroke:#000000;stroke-width:2.0px;stroke-linecap:butt;stroke-linejoin:miter;stroke-opacity:1"/>
<path class="bond-9 atom-9 atom-10" d="M 704.5,91.0 L 714.9,193.2" style="fill:none;fill-rule:evenodd;stroke:#000000;stroke-width:2.0px;stroke-linecap:butt;stroke-linejoin:miter;stroke-opacity:1"/>
<path class="bond-10 atom-10 atom-11" d="M 714.9,193.2 L 808.6,235.2" style="fill:none;fill-rule:evenodd;stroke:#000000;stroke-width:2.0px;stroke-linecap:butt;stroke-linejoin:miter;stroke-opacity:1"/>
<path class="bond-11 atom-11 atom-12" d="M 808.6,235.2 L 891.8,175.1" style="fill:none;fill-rule:evenodd;stroke:#000000;stroke-width:2.0px;stroke-linecap:butt;stroke-linejoin:miter;stroke-opacity:1"/>
<path class="bond-12 atom-12 atom-13" d="M 891.8,175.1 L 931.6,193.0" style="fill:none;fill-rule:evenodd;stroke:#000000;stroke-width:2.0px;stroke-linecap:butt;stroke-linejoin:miter;stroke-opacity:1"/>
<path class="bond-12 atom-12 atom-13" d="M 931.6,193.0 L 971.4,210.8" style="fill:none;fill-rule:evenodd;stroke:#0000FF;stroke-width:2.0px;stroke-linecap:butt;stroke-linejoin:miter;stroke-opacity:1"/>
<path class="bond-13 atom-13 atom-14" d="M 987.3,234.7 L 991.6,277.0" style="fill:none;fill-rule:evenodd;stroke:#0000FF;stroke-width:2.0px;stroke-linecap:butt;stroke-linejoin:miter;stroke-opacity:1"/>
<path class="bond-13 atom-13 atom-14" d="M 991.6,277.0 L 995.9,319.3" style="fill:none;fill-rule:evenodd;stroke:#000000;stroke-width:2.0px;stroke-linecap:butt;stroke-linejoin:miter;stroke-opacity:1"/>
<path class="bond-14 atom-14 atom-15" d="M 995.9,319.3 L 1034.6,336.6" style="fill:none;fill-rule:evenodd;stroke:#000000;stroke-width:2.0px;stroke-linecap:butt;stroke-linejoin:miter;stroke-opacity:1"/>
<path class="bond-14 atom-14 atom-15" d="M 1034.6,336.6 L 1073.2,354.0" style="fill:none;fill-rule:evenodd;stroke:#FF0000;stroke-width:2.0px;stroke-linecap:butt;stroke-linejoin:miter;stroke-opacity:1"/>
<path class="bond-14 atom-14 atom-15" d="M 1010.3,308.9 L 1040.9,322.6" style="fill:none;fill-rule:evenodd;stroke:#000000;stroke-width:2.0px;stroke-linecap:butt;stroke-linejoin:miter;stroke-opacity:1"/>
<path class="bond-14 atom-14 atom-15" d="M 1040.9,322.6 L 1079.5,339.9" style="fill:none;fill-rule:evenodd;stroke:#FF0000;stroke-width:2.0px;stroke-linecap:butt;stroke-linejoin:miter;stroke-opacity:1"/>
<path class="bond-15 atom-12 atom-16" d="M 891.8,175.1 L 881.4,73.0" style="fill:none;fill-rule:evenodd;stroke:#000000;stroke-width:2.0px;stroke-linecap:butt;stroke-linejoin:miter;stroke-opacity:1"/>
<path class="bond-16 atom-16 atom-17" d="M 881.4,73.0 L 787.7,30.9" style="fill:none;fill-rule:evenodd;stroke:#000000;stroke-width:2.0px;stroke-linecap:butt;stroke-linejoin:miter;stroke-opacity:1"/>
<path class="bond-17 atom-7 atom-18" d="M 527.6,109.1 L 538.0,211.2" style="fill:none;fill-rule:evenodd;stroke:#000000;stroke-width:2.0px;stroke-linecap:butt;stroke-linejoin:miter;stroke-opacity:1"/>
<path class="bond-18 atom-18 atom-19" d="M 538.0,211.2 L 454.8,271.3" style="fill:none;fill-rule:evenodd;stroke:#000000;stroke-width:2.0px;stroke-linecap:butt;stroke-linejoin:miter;stroke-opacity:1"/>
<path class="bond-19 atom-19 atom-4" d="M 454.8,271.3 L 361.1,229.3" style="fill:none;fill-rule:evenodd;stroke:#000000;stroke-width:2.0px;stroke-linecap:butt;stroke-linejoin:miter;stroke-opacity:1"/>
<path class="bond-20 atom-17 atom-9" d="M 787.7,30.9 L 704.5,91.0" style="fill:none;fill-rule:evenodd;stroke:#000000;stroke-width:2.0px;stroke-linecap:butt;stroke-linejoin:miter;stroke-opacity:1"/>
<path d="M 182.4,248.7 L 184.2,247.4 L 186.2,248.3" style="fill:none;stroke:#000000;stroke-width:2.0px;stroke-linecap:butt;stroke-linejoin:miter;stroke-opacity:1;"/>
<path d="M 351.2,132.3 L 350.7,127.2 L 354.8,124.2" style="fill:none;stroke:#000000;stroke-width:2.0px;stroke-linecap:butt;stroke-linejoin:miter;stroke-opacity:1;"/>
<path d="M 429.7,70.1 L 433.9,67.1 L 438.6,69.2" style="fill:none;stroke:#000000;stroke-width:2.0px;stroke-linecap:butt;stroke-linejoin:miter;stroke-opacity:1;"/>
<path d="M 606.7,52.0 L 610.8,49.0 L 615.5,51.1" style="fill:none;stroke:#000000;stroke-width:2.0px;stroke-linecap:butt;stroke-linejoin:miter;stroke-opacity:1;"/>
<path d="M 714.4,188.1 L 714.9,193.2 L 719.6,195.3" style="fill:none;stroke:#000000;stroke-width:2.0px;stroke-linecap:butt;stroke-linejoin:miter;stroke-opacity:1;"/>
<path d="M 803.9,233.1 L 808.6,235.2 L 812.7,232.2" style="fill:none;stroke:#000000;stroke-width:2.0px;stroke-linecap:butt;stroke-linejoin:miter;stroke-opacity:1;"/>
<path d="M 995.7,317.2 L 995.9,319.3 L 997.9,320.2" style="fill:none;stroke:#000000;stroke-width:2.0px;stroke-linecap:butt;stroke-linejoin:miter;stroke-opacity:1;"/>
<path d="M 881.9,78.1 L 881.4,73.0 L 876.7,70.9" style="fill:none;stroke:#000000;stroke-width:2.0px;stroke-linecap:butt;stroke-linejoin:miter;stroke-opacity:1;"/>
<path d="M 792.4,33.0 L 787.7,30.9 L 783.6,33.9" style="fill:none;stroke:#000000;stroke-width:2.0px;stroke-linecap:butt;stroke-linejoin:miter;stroke-opacity:1;"/>
<path d="M 537.5,206.1 L 538.0,211.2 L 533.8,214.3" style="fill:none;stroke:#000000;stroke-width:2.0px;stroke-linecap:butt;stroke-linejoin:miter;stroke-opacity:1;"/>
<path d="M 458.9,268.3 L 454.8,271.3 L 450.1,269.2" style="fill:none;stroke:#000000;stroke-width:2.0px;stroke-linecap:butt;stroke-linejoin:miter;stroke-opacity:1;"/>
<path class="atom-0" d="M 95.6 304.3 L 99.8 300.1 L 94.3 299.0 L 95.1 296.1 L 100.2 298.7 L 99.5 293.1 L 102.5 293.1 L 101.6 298.6 L 106.8 296.2 L 107.7 299.0 L 102.1 300.0 L 106.1 304.3 L 103.6 306.0 L 100.9 300.8 L 98.1 306.0 L 95.6 304.3 " fill="#191919"/>
<path class="atom-2" d="M 160.8 145.3 Q 160.8 138.5, 164.1 134.7 Q 167.5 130.9, 173.8 130.9 Q 180.0 130.9, 183.4 134.7 Q 186.8 138.5, 186.8 145.3 Q 186.8 152.2, 183.4 156.1 Q 180.0 160.0, 173.8 160.0 Q 167.5 160.0, 164.1 156.1 Q 160.8 152.2, 160.8 145.3 M 173.8 156.8 Q 178.1 156.8, 180.4 153.9 Q 182.8 151.0, 182.8 145.3 Q 182.8 139.8, 180.4 137.0 Q 178.1 134.1, 173.8 134.1 Q 169.4 134.1, 167.1 136.9 Q 164.8 139.7, 164.8 145.3 Q 164.8 151.0, 167.1 153.9 Q 169.4 156.8, 173.8 156.8 " fill="#FF0000"/>
<path class="atom-3" d="M 271.6 275.3 L 280.9 290.3 Q 281.8 291.7, 283.3 294.4 Q 284.8 297.1, 284.8 297.3 L 284.8 275.3 L 288.6 275.3 L 288.6 303.6 L 284.7 303.6 L 274.8 287.2 Q 273.6 285.3, 272.4 283.1 Q 271.2 280.9, 270.8 280.2 L 270.8 303.6 L 267.1 303.6 L 267.1 275.3 L 271.6 275.3 " fill="#0000FF"/>
<path class="atom-3" d="M 266.8 306.4 L 270.6 306.4 L 270.6 318.4 L 285.1 318.4 L 285.1 306.4 L 288.9 306.4 L 288.9 334.7 L 285.1 334.7 L 285.1 321.6 L 270.6 321.6 L 270.6 334.7 L 266.8 334.7 L 266.8 306.4 " fill="#0000FF"/>
<path class="atom-13" d="M 979.2 203.0 L 988.5 218.0 Q 989.4 219.5, 990.9 222.2 Q 992.4 224.8, 992.5 225.0 L 992.5 203.0 L 996.2 203.0 L 996.2 231.3 L 992.3 231.3 L 982.4 214.9 Q 981.2 213.0, 980.0 210.8 Q 978.8 208.6, 978.4 207.9 L 978.4 231.3 L 974.7 231.3 L 974.7 203.0 L 979.2 203.0 " fill="#0000FF"/>
<path class="atom-13" d="M 1001.7 203.0 L 1005.6 203.0 L 1005.6 215.0 L 1020.1 215.0 L 1020.1 203.0 L 1023.9 203.0 L 1023.9 231.3 L 1020.1 231.3 L 1020.1 218.2 L 1005.6 218.2 L 1005.6 231.3 L 1001.7 231.3 L 1001.7 203.0 " fill="#0000FF"/>
<path class="atom-15" d="M 1079.7 354.4 Q 1079.7 347.6, 1083.1 343.8 Q 1086.5 340.0, 1092.7 340.0 Q 1099.0 340.0, 1102.4 343.8 Q 1105.7 347.6, 1105.7 354.4 Q 1105.7 361.3, 1102.3 365.2 Q 1098.9 369.1, 1092.7 369.1 Q 1086.5 369.1, 1083.1 365.2 Q 1079.7 361.3, 1079.7 354.4 M 1092.7 365.9 Q 1097.1 365.9, 1099.4 363.0 Q 1101.7 360.1, 1101.7 354.4 Q 1101.7 348.8, 1099.4 346.0 Q 1097.1 343.2, 1092.7 343.2 Q 1088.4 343.2, 1086.1 346.0 Q 1083.7 348.8, 1083.7 354.4 Q 1083.7 360.1, 1086.1 363.0 Q 1088.4 365.9, 1092.7 365.9 " fill="#FF0000"/>
<path class="bond-0 atom-0 atom-1" d="M 77.0,592.5 L 109.1,575.5" style="fill:none;fill-rule:evenodd;stroke:#191919;stroke-width:2.0px;stroke-linecap:butt;stroke-linejoin:miter;stroke-opacity:1"/>
<path class="bond-0 atom-0 atom-1" d="M 109.1,575.5 L 141.2,558.5" style="fill:none;fill-rule:evenodd;stroke:#FF0000;stroke-width:2.0px;stroke-linecap:butt;stroke-linejoin:miter;stroke-opacity:1"/>
<path class="bond-1 atom-1 atom-2" d="M 174.0,560.1 L 209.3,582.2" style="fill:none;fill-rule:evenodd;stroke:#FF0000;stroke-width:2.0px;stroke-linecap:butt;stroke-linejoin:miter;stroke-opacity:1"/>
<path class="bond-1 atom-1 atom-2" d="M 209.3,582.2 L 244.6,604.3" style="fill:none;fill-rule:evenodd;stroke:#000000;stroke-width:2.0px;stroke-linecap:butt;stroke-linejoin:miter;stroke-opacity:1"/>
<path class="bond-2 atom-2 atom-3" d="M 244.6,604.3 L 335.3,556.3" style="fill:none;fill-rule:evenodd;stroke:#000000;stroke-width:2.0px;stroke-linecap:butt;stroke-linejoin:miter;stroke-opacity:1"/>
<path class="bond-3 atom-3 atom-4" d="M 335.3,556.3 L 422.3,610.8" style="fill:none;fill-rule:evenodd;stroke:#000000;stroke-width:2.0px;stroke-linecap:butt;stroke-linejoin:miter;stroke-opacity:1"/>
<path class="bond-4 atom-4 atom-5" d="M 422.3,610.8 L 513.0,562.8" style="fill:none;fill-rule:evenodd;stroke:#000000;stroke-width:2.0px;stroke-linecap:butt;stroke-linejoin:miter;stroke-opacity:1"/>
<path class="bond-5 atom-5 atom-6" d="M 513.0,562.8 L 600.0,617.3" style="fill:none;fill-rule:evenodd;stroke:#000000;stroke-width:2.0px;stroke-linecap:butt;stroke-linejoin:miter;stroke-opacity:1"/>
<path class="bond-6 atom-6 atom-7" d="M 592.5,612.6 L 590.8,657.3" style="fill:none;fill-rule:evenodd;stroke:#000000;stroke-width:2.0px;stroke-linecap:butt;stroke-linejoin:miter;stroke-opacity:1"/>
<path class="bond-6 atom-6 atom-7" d="M 590.8,657.3 L 589.2,701.9" style="fill:none;fill-rule:evenodd;stroke:#FF0000;stroke-width:2.0px;stroke-linecap:butt;stroke-linejoin:miter;stroke-opacity:1"/>
<path class="bond-6 atom-6 atom-7" d="M 607.9,613.2 L 606.2,657.8" style="fill:none;fill-rule:evenodd;stroke:#000000;stroke-width:2.0px;stroke-linecap:butt;stroke-linejoin:miter;stroke-opacity:1"/>
<path class="bond-6 atom-6 atom-7" d="M 606.2,657.8 L 604.6,702.5" style="fill:none;fill-rule:evenodd;stroke:#FF0000;stroke-width:2.0px;stroke-linecap:butt;stroke-linejoin:miter;stroke-opacity:1"/>
<path class="bond-7 atom-6 atom-8" d="M 600.0,617.3 L 690.7,569.3" style="fill:none;fill-rule:evenodd;stroke:#000000;stroke-width:2.0px;stroke-linecap:butt;stroke-linejoin:miter;stroke-opacity:1"/>
<path class="bond-8 atom-8 atom-9" d="M 690.7,569.3 L 777.7,623.8" style="fill:none;fill-rule:evenodd;stroke:#000000;stroke-width:2.0px;stroke-linecap:butt;stroke-linejoin:miter;stroke-opacity:1"/>
<path class="bond-9 atom-9 atom-10" d="M 777.7,623.8 L 868.4,575.8" style="fill:none;fill-rule:evenodd;stroke:#000000;stroke-width:2.0px;stroke-linecap:butt;stroke-linejoin:miter;stroke-opacity:1"/>
<path class="bond-10 atom-10 atom-11" d="M 868.4,575.8 L 955.4,630.3" style="fill:none;fill-rule:evenodd;stroke:#000000;stroke-width:2.0px;stroke-linecap:butt;stroke-linejoin:miter;stroke-opacity:1"/>
<path class="bond-11 atom-11 atom-12" d="M 955.4,630.3 L 1046.1,582.2" style="fill:none;fill-rule:evenodd;stroke:#000000;stroke-width:2.0px;stroke-linecap:butt;stroke-linejoin:miter;stroke-opacity:1"/>
<path class="bond-12 atom-12 atom-13" d="M 1046.1,582.2 L 1084.6,606.3" style="fill:none;fill-rule:evenodd;stroke:#000000;stroke-width:2.0px;stroke-linecap:butt;stroke-linejoin:miter;stroke-opacity:1"/>
<path class="bond-12 atom-12 atom-13" d="M 1084.6,606.3 L 1123.0,630.5" style="fill:none;fill-rule:evenodd;stroke:#191919;stroke-width:2.0px;stroke-linecap:butt;stroke-linejoin:miter;stroke-opacity:1"/>
<path class="bond-13 atom-12 atom-14" d="M 1053.7,587.0 L 1055.3,542.5" style="fill:none;fill-rule:evenodd;stroke:#000000;stroke-width:2.0px;stroke-linecap:butt;stroke-linejoin:miter;stroke-opacity:1"/>
<path class="bond-13 atom-12 atom-14" d="M 1055.3,542.5 L 1056.9,498.1" style="fill:none;fill-rule:evenodd;stroke:#FF0000;stroke-width:2.0px;stroke-linecap:butt;stroke-linejoin:miter;stroke-opacity:1"/>
<path class="bond-13 atom-12 atom-14" d="M 1038.3,586.4 L 1039.9,542.0" style="fill:none;fill-rule:evenodd;stroke:#000000;stroke-width:2.0px;stroke-linecap:butt;stroke-linejoin:miter;stroke-opacity:1"/>
<path class="bond-13 atom-12 atom-14" d="M 1039.9,542.0 L 1041.5,497.5" style="fill:none;fill-rule:evenodd;stroke:#FF0000;stroke-width:2.0px;stroke-linecap:butt;stroke-linejoin:miter;stroke-opacity:1"/>
<path d="M 242.8,603.2 L 244.6,604.3 L 249.1,601.9" style="fill:none;stroke:#000000;stroke-width:2.0px;stroke-linecap:butt;stroke-linejoin:miter;stroke-opacity:1;"/>
<path d="M 330.8,558.7 L 335.3,556.3 L 339.7,559.0" style="fill:none;stroke:#000000;stroke-width:2.0px;stroke-linecap:butt;stroke-linejoin:miter;stroke-opacity:1;"/>
<path d="M 417.9,608.1 L 422.3,610.8 L 426.8,608.4" style="fill:none;stroke:#000000;stroke-width:2.0px;stroke-linecap:butt;stroke-linejoin:miter;stroke-opacity:1;"/>
<path d="M 508.5,565.2 L 513.0,562.8 L 517.4,565.5" style="fill:none;stroke:#000000;stroke-width:2.0px;stroke-linecap:butt;stroke-linejoin:miter;stroke-opacity:1;"/>
<path d="M 595.7,614.6 L 600.0,617.3 L 604.5,614.9" style="fill:none;stroke:#000000;stroke-width:2.0px;stroke-linecap:butt;stroke-linejoin:miter;stroke-opacity:1;"/>
<path d="M 686.2,571.7 L 690.7,569.3 L 695.1,572.0" style="fill:none;stroke:#000000;stroke-width:2.0px;stroke-linecap:butt;stroke-linejoin:miter;stroke-opacity:1;"/>
<path d="M 773.4,621.1 L 777.7,623.8 L 782.2,621.4" style="fill:none;stroke:#000000;stroke-width:2.0px;stroke-linecap:butt;stroke-linejoin:miter;stroke-opacity:1;"/>
<path d="M 863.9,578.2 L 868.4,575.8 L 872.8,578.5" style="fill:none;stroke:#000000;stroke-width:2.0px;stroke-linecap:butt;stroke-linejoin:miter;stroke-opacity:1;"/>
<path d="M 951.1,627.6 L 955.4,630.3 L 960.0,627.9" style="fill:none;stroke:#000000;stroke-width:2.0px;stroke-linecap:butt;stroke-linejoin:miter;stroke-opacity:1;"/>
<path d="M 1041.6,584.6 L 1046.1,582.2 L 1048.1,583.4" style="fill:none;stroke:#000000;stroke-width:2.0px;stroke-linecap:butt;stroke-linejoin:miter;stroke-opacity:1;"/>
<path class="atom-0" d="M 61.5 594.7 L 65.7 590.5 L 60.2 589.3 L 61.0 586.5 L 66.1 589.1 L 65.4 583.5 L 68.4 583.5 L 67.5 589.0 L 72.7 586.6 L 73.6 589.3 L 68.0 590.4 L 72.0 594.7 L 69.5 596.4 L 66.8 591.1 L 64.0 596.4 L 61.5 594.7 " fill="#191919"/>
<path class="atom-1" d="M 144.6 549.9 Q 144.6 543.1, 148.0 539.3 Q 151.3 535.5, 157.6 535.5 Q 163.9 535.5, 167.2 539.3 Q 170.6 543.1, 170.6 549.9 Q 170.6 556.8, 167.2 560.7 Q 163.8 564.6, 157.6 564.6 Q 151.4 564.6, 148.0 560.7 Q 144.6 556.8, 144.6 549.9 M 157.6 561.4 Q 161.9 561.4, 164.2 558.5 Q 166.6 555.6, 166.6 549.9 Q 166.6 544.3, 164.2 541.5 Q 161.9 538.7, 157.6 538.7 Q 153.3 538.7, 150.9 541.5 Q 148.6 544.3, 148.6 549.9 Q 148.6 555.6, 150.9 558.5 Q 153.3 561.4, 157.6 561.4 " fill="#FF0000"/>
<path class="atom-7" d="M 583.3 720.0 Q 583.3 713.2, 586.6 709.4 Q 590.0 705.6, 596.3 705.6 Q 602.5 705.6, 605.9 709.4 Q 609.3 713.2, 609.3 720.0 Q 609.3 726.9, 605.9 730.8 Q 602.5 734.7, 596.3 734.7 Q 590.0 734.7, 586.6 730.8 Q 583.3 726.9, 583.3 720.0 M 596.3 731.5 Q 600.6 731.5, 602.9 728.6 Q 605.3 725.7, 605.3 720.0 Q 605.3 714.4, 602.9 711.6 Q 600.6 708.8, 596.3 708.8 Q 591.9 708.8, 589.6 711.6 Q 587.3 714.4, 587.3 720.0 Q 587.3 725.7, 589.6 728.6 Q 591.9 731.5, 596.3 731.5 " fill="#FF0000"/>
<path class="atom-13" d="M 1127.8 633.6 L 1131.9 629.4 L 1126.4 628.3 L 1127.3 625.4 L 1132.3 628.0 L 1131.6 622.4 L 1134.6 622.4 L 1133.8 627.9 L 1138.9 625.5 L 1139.8 628.3 L 1134.2 629.3 L 1138.2 633.6 L 1135.8 635.3 L 1133.0 630.1 L 1130.2 635.3 L 1127.8 633.6 " fill="#191919"/>
<path class="atom-14" d="M 1036.9 479.7 Q 1036.9 472.9, 1040.2 469.1 Q 1043.6 465.3, 1049.9 465.3 Q 1056.2 465.3, 1059.5 469.1 Q 1062.9 472.9, 1062.9 479.7 Q 1062.9 486.6, 1059.5 490.5 Q 1056.1 494.4, 1049.9 494.4 Q 1043.6 494.4, 1040.2 490.5 Q 1036.9 486.6, 1036.9 479.7 M 1049.9 491.2 Q 1054.2 491.2, 1056.5 488.3 Q 1058.9 485.4, 1058.9 479.7 Q 1058.9 474.2, 1056.5 471.4 Q 1054.2 468.5, 1049.9 468.5 Q 1045.6 468.5, 1043.2 471.3 Q 1040.9 474.1, 1040.9 479.7 Q 1040.9 485.4, 1043.2 488.3 Q 1045.6 491.2, 1049.9 491.2 " fill="#FF0000"/>
<path class="bond-0 atom-0 atom-1" d="M 752.9,964.7 L 732.9,999.3" style="fill:none;fill-rule:evenodd;stroke:#191919;stroke-width:2.0px;stroke-linecap:butt;stroke-linejoin:miter;stroke-opacity:1"/>
<path class="bond-0 atom-0 atom-1" d="M 732.9,999.3 L 712.9,1033.9" style="fill:none;fill-rule:evenodd;stroke:#FF0000;stroke-width:2.0px;stroke-linecap:butt;stroke-linejoin:miter;stroke-opacity:1"/>
<path class="bond-1 atom-1 atom-2" d="M 686.3,1051.6 L 643.1,1051.6" style="fill:none;fill-rule:evenodd;stroke:#FF0000;stroke-width:2.0px;stroke-linecap:butt;stroke-linejoin:miter;stroke-opacity:1"/>
<path class="bond-1 atom-1 atom-2" d="M 643.1,1051.6 L 600.0,1051.6" style="fill:none;fill-rule:evenodd;stroke:#000000;stroke-width:2.0px;stroke-linecap:butt;stroke-linejoin:miter;stroke-opacity:1"/>
<path class="bond-2 atom-2 atom-3" d="M 600.0,1051.6 L 548.7,1140.5" style="fill:none;fill-rule:evenodd;stroke:#000000;stroke-width:2.0px;stroke-linecap:butt;stroke-linejoin:miter;stroke-opacity:1"/>
<path class="bond-3 atom-2 atom-4" d="M 600.0,1051.6 L 548.7,962.7" style="fill:none;fill-rule:evenodd;stroke:#000000;stroke-width:2.0px;stroke-linecap:butt;stroke-linejoin:miter;stroke-opacity:1"/>
<path class="bond-4 atom-4 atom-5" d="M 548.7,962.7 L 502.4,962.7" style="fill:none;fill-rule:evenodd;stroke:#000000;stroke-width:2.0px;stroke-linecap:butt;stroke-linejoin:miter;stroke-opacity:1"/>
<path class="bond-4 atom-4 atom-5" d="M 502.4,962.7 L 456.1,962.7" style="fill:none;fill-rule:evenodd;stroke:#191919;stroke-width:2.0px;stroke-linecap:butt;stroke-linejoin:miter;stroke-opacity:1"/>
<path class="bond-5 atom-4 atom-6" d="M 553.1,970.4 L 574.7,933.1" style="fill:none;fill-rule:evenodd;stroke:#000000;stroke-width:2.0px;stroke-linecap:butt;stroke-linejoin:miter;stroke-opacity:1"/>
<path class="bond-5 atom-4 atom-6" d="M 574.7,933.1 L 596.2,895.8" style="fill:none;fill-rule:evenodd;stroke:#FF0000;stroke-width:2.0px;stroke-linecap:butt;stroke-linejoin:miter;stroke-opacity:1"/>
<path class="bond-5 atom-4 atom-6" d="M 539.8,962.7 L 561.3,925.4" style="fill:none;fill-rule:evenodd;stroke:#000000;stroke-width:2.0px;stroke-linecap:butt;stroke-linejoin:miter;stroke-opacity:1"/>
<path class="bond-5 atom-4 atom-6" d="M 561.3,925.4 L 582.9,888.1" style="fill:none;fill-rule:evenodd;stroke:#FF0000;stroke-width:2.0px;stroke-linecap:butt;stroke-linejoin:miter;stroke-opacity:1"/>
<path d="M 551.2,967.1 L 548.7,962.7 L 546.4,962.7" style="fill:none;stroke:#000000;stroke-width:2.0px;stroke-linecap:butt;stroke-linejoin:miter;stroke-opacity:1;"/>
<path class="atom-0" d="M 748.7 959.5 L 752.8 955.3 L 747.3 954.2 L 748.1 951.3 L 753.2 953.9 L 752.5 948.3 L 755.5 948.3 L 754.7 953.9 L 759.8 951.5 L 760.7 954.2 L 755.1 955.2 L 759.1 959.5 L 756.7 961.3 L 753.9 956.0 L 751.1 961.3 L 748.7 959.5 " fill="#191919"/>
<path class="atom-1" d="M 689.7 1051.7 Q 689.7 1044.9, 693.0 1041.1 Q 696.4 1037.3, 702.7 1037.3 Q 708.9 1037.3, 712.3 1041.1 Q 715.7 1044.9, 715.7 1051.7 Q 715.7 1058.6, 712.3 1062.5 Q 708.9 1066.4, 702.7 1066.4 Q 696.4 1066.4, 693.0 1062.5 Q 689.7 1058.6, 689.7 1051.7 M 702.7 1063.2 Q 707.0 1063.2, 709.3 1060.3 Q 711.7 1057.4, 711.7 1051.7 Q 711.7 1046.1, 709.3 1043.3 Q 707.0 1040.5, 702.7 1040.5 Q 698.3 1040.5, 696.0 1043.3 Q 693.7 1046.1, 693.7 1051.7 Q 693.7 1057.4, 696.0 1060.3 Q 698.3 1063.2, 702.7 1063.2 " fill="#FF0000"/>
<path class="atom-5" d="M 440.7 959.5 L 444.8 955.3 L 439.3 954.2 L 440.1 951.3 L 445.2 953.9 L 444.5 948.3 L 447.5 948.3 L 446.7 953.9 L 451.8 951.5 L 452.7 954.2 L 447.1 955.2 L 451.1 959.5 L 448.7 961.3 L 445.9 956.0 L 443.1 961.3 L 440.7 959.5 " fill="#191919"/>
<path class="atom-6" d="M 587.0 873.9 Q 587.0 867.1, 590.4 863.3 Q 593.7 859.5, 600.0 859.5 Q 606.3 859.5, 609.6 863.3 Q 613.0 867.1, 613.0 873.9 Q 613.0 880.8, 609.6 884.7 Q 606.2 888.6, 600.0 888.6 Q 593.8 888.6, 590.4 884.7 Q 587.0 880.8, 587.0 873.9 M 600.0 885.4 Q 604.3 885.4, 606.6 882.5 Q 609.0 879.6, 609.0 873.9 Q 609.0 868.3, 606.6 865.5 Q 604.3 862.7, 600.0 862.7 Q 595.7 862.7, 593.3 865.5 Q 591.0 868.3, 591.0 873.9 Q 591.0 879.6, 593.3 882.5 Q 595.7 885.4, 600.0 885.4 " fill="#FF0000"/>
<path class="bond-0 atom-0 atom-1" d="M 434.1,1435.9 L 468.5,1422.1" style="fill:none;fill-rule:evenodd;stroke:#191919;stroke-width:2.0px;stroke-linecap:butt;stroke-linejoin:miter;stroke-opacity:1"/>
<path class="bond-0 atom-0 atom-1" d="M 468.5,1422.1 L 502.9,1408.3" style="fill:none;fill-rule:evenodd;stroke:#FF0000;stroke-width:2.0px;stroke-linecap:butt;stroke-linejoin:miter;stroke-opacity:1"/>
<path class="bond-1 atom-1 atom-2" d="M 535.7,1414.6 L 567.8,1439.9" style="fill:none;fill-rule:evenodd;stroke:#FF0000;stroke-width:2.0px;stroke-linecap:butt;stroke-linejoin:miter;stroke-opacity:1"/>
<path class="bond-1 atom-1 atom-2" d="M 567.8,1439.9 L 600.0,1465.2" style="fill:none;fill-rule:evenodd;stroke:#000000;stroke-width:2.0px;stroke-linecap:butt;stroke-linejoin:miter;stroke-opacity:1"/>
<path class="bond-2 atom-2 atom-3" d="M 600.0,1465.2 L 695.3,1427.0" style="fill:none;fill-rule:evenodd;stroke:#000000;stroke-width:2.0px;stroke-linecap:butt;stroke-linejoin:miter;stroke-opacity:1"/>
<path class="bond-3 atom-3 atom-4" d="M 695.3,1427.0 L 730.6,1454.7" style="fill:none;fill-rule:evenodd;stroke:#000000;stroke-width:2.0px;stroke-linecap:butt;stroke-linejoin:miter;stroke-opacity:1"/>
<path class="bond-3 atom-3 atom-4" d="M 730.6,1454.7 L 765.9,1482.5" style="fill:none;fill-rule:evenodd;stroke:#191919;stroke-width:2.0px;stroke-linecap:butt;stroke-linejoin:miter;stroke-opacity:1"/>
<path class="bond-4 atom-3 atom-5" d="M 702.3,1432.5 L 708.6,1388.5" style="fill:none;fill-rule:evenodd;stroke:#000000;stroke-width:2.0px;stroke-linecap:butt;stroke-linejoin:miter;stroke-opacity:1"/>
<path class="bond-4 atom-3 atom-5" d="M 708.6,1388.5 L 714.9,1344.6" style="fill:none;fill-rule:evenodd;stroke:#FF0000;stroke-width:2.0px;stroke-linecap:butt;stroke-linejoin:miter;stroke-opacity:1"/>
<path class="bond-4 atom-3 atom-5" d="M 687.0,1430.3 L 693.3,1386.4" style="fill:none;fill-rule:evenodd;stroke:#000000;stroke-width:2.0px;stroke-linecap:butt;stroke-linejoin:miter;stroke-opacity:1"/>
<path class="bond-4 atom-3 atom-5" d="M 693.3,1386.4 L 699.6,1342.4" style="fill:none;fill-rule:evenodd;stroke:#FF0000;stroke-width:2.0px;stroke-linecap:butt;stroke-linejoin:miter;stroke-opacity:1"/>
<path d="M 598.4,1463.9 L 600.0,1465.2 L 604.8,1463.3" style="fill:none;stroke:#000000;stroke-width:2.0px;stroke-linecap:butt;stroke-linejoin:miter;stroke-opacity:1;"/>
<path d="M 690.5,1428.9 L 695.3,1427.0 L 697.1,1428.4" style="fill:none;stroke:#000000;stroke-width:2.0px;stroke-linecap:butt;stroke-linejoin:miter;stroke-opacity:1;"/>
<path class="atom-0" d="M 418.6 1436.8 L 422.8 1432.6 L 417.3 1431.5 L 418.1 1428.6 L 423.2 1431.2 L 422.5 1425.6 L 425.5 1425.6 L 424.6 1431.1 L 429.8 1428.7 L 430.7 1431.5 L 425.1 1432.5 L 429.1 1436.8 L 426.6 1438.5 L 423.9 1433.3 L 421.1 1438.5 L 418.6 1436.8 " fill="#191919"/>
<path class="atom-1" d="M 506.3 1401.9 Q 506.3 1395.1, 509.6 1391.3 Q 513.0 1387.5, 519.3 1387.5 Q 525.5 1387.5, 528.9 1391.3 Q 532.3 1395.1, 532.3 1401.9 Q 532.3 1408.7, 528.9 1412.7 Q 525.5 1416.5, 519.3 1416.5 Q 513.0 1416.5, 509.6 1412.7 Q 506.3 1408.8, 506.3 1401.9 M 519.3 1413.3 Q 523.6 1413.3, 525.9 1410.5 Q 528.3 1407.5, 528.3 1401.9 Q 528.3 1396.3, 525.9 1393.5 Q 523.6 1390.7, 519.3 1390.7 Q 514.9 1390.7, 512.6 1393.5 Q 510.3 1396.3, 510.3 1401.9 Q 510.3 1407.6, 512.6 1410.5 Q 514.9 1413.3, 519.3 1413.3 " fill="#FF0000"/>
<path class="atom-4" d="M 770.7 1487.2 L 774.8 1483.0 L 769.3 1481.9 L 770.2 1479.0 L 775.2 1481.6 L 774.5 1476.0 L 777.5 1476.0 L 776.7 1481.6 L 781.8 1479.2 L 782.7 1481.9 L 777.1 1482.9 L 781.1 1487.2 L 778.7 1489.0 L 775.9 1483.7 L 773.1 1489.0 L 770.7 1487.2 " fill="#191919"/>
<path class="atom-5" d="M 696.8 1325.4 Q 696.8 1318.6, 700.2 1314.8 Q 703.6 1311.0, 709.8 1311.0 Q 716.1 1311.0, 719.5 1314.8 Q 722.8 1318.6, 722.8 1325.4 Q 722.8 1332.3, 719.4 1336.2 Q 716.0 1340.1, 709.8 1340.1 Q 703.6 1340.1, 700.2 1336.2 Q 696.8 1332.4, 696.8 1325.4 M 709.8 1336.9 Q 714.2 1336.9, 716.5 1334.0 Q 718.8 1331.1, 718.8 1325.4 Q 718.8 1319.9, 716.5 1317.1 Q 714.2 1314.2, 709.8 1314.2 Q 705.5 1314.2, 703.2 1317.0 Q 700.8 1319.8, 700.8 1325.4 Q 700.8 1331.2, 703.2 1334.0 Q 705.5 1336.9, 709.8 1336.9 " fill="#FF0000"/>
</svg>