<svg xmlns="http://www.w3.org/2000/svg" xmlns:rdkit="http://www.rdkit.org/xml" xmlns:xlink="http://www.w3.org/1999/xlink" version="1.1" baseProfile="full" xml:space="preserve" width="1200px" height="800px" viewBox="0 0 1200 800">
<!-- END OF HEADER -->
<rect style="opacity:1.0;fill:#FFFFFF;stroke:none" width="1200.0" height="800.0" x="0.0" y="0.0"> </rect>
<path class="bond-0 atom-0 atom-1" d="M 863.1,39.3 L 874.8,91.6" style="fill:none;fill-rule:evenodd;stroke:#191919;stroke-width:2.0px;stroke-linecap:butt;stroke-linejoin:miter;stroke-opacity:1"/>
<path class="bond-0 atom-0 atom-1" d="M 874.8,91.6 L 886.5,143.8" style="fill:none;fill-rule:evenodd;stroke:#FF0000;stroke-width:2.0px;stroke-linecap:butt;stroke-linejoin:miter;stroke-opacity:1"/>
<path class="bond-1 atom-1 atom-2" d="M 873.4,178.3 L 834.6,214.1" style="fill:none;fill-rule:evenodd;stroke:#FF0000;stroke-width:2.0px;stroke-linecap:butt;stroke-linejoin:miter;stroke-opacity:1"/>
<path class="bond-1 atom-1 atom-2" d="M 834.6,214.1 L 795.8,249.9" style="fill:none;fill-rule:evenodd;stroke:#000000;stroke-width:2.0px;stroke-linecap:butt;stroke-linejoin:miter;stroke-opacity:1"/>
<path class="bond-2 atom-2 atom-3" d="M 795.8,249.9 L 833.4,373.7 L 814.6,377.9 Z" style="fill:#000000;fill-rule:evenodd;fill-opacity:1;stroke:#000000;stroke-width:0.5px;stroke-linecap:butt;stroke-linejoin:miter;stroke-opacity:1;"/>
<path class="bond-3 atom-2 atom-4" d="M 795.8,249.9 L 672.6,211.4" style="fill:none;fill-rule:evenodd;stroke:#000000;stroke-width:2.0px;stroke-linecap:butt;stroke-linejoin:miter;stroke-opacity:1"/>
<path class="bond-4 atom-4 atom-5" d="M 683.2,214.7 L 670.6,158.5" style="fill:none;fill-rule:evenodd;stroke:#000000;stroke-width:2.0px;stroke-linecap:butt;stroke-linejoin:miter;stroke-opacity:1"/>
<path class="bond-4 atom-4 atom-5" d="M 670.6,158.5 L 658.0,102.3" style="fill:none;fill-rule:evenodd;stroke:#FF0000;stroke-width:2.0px;stroke-linecap:butt;stroke-linejoin:miter;stroke-opacity:1"/>
<path class="bond-4 atom-4 atom-5" d="M 664.3,218.9 L 651.7,162.7" style="fill:none;fill-rule:evenodd;stroke:#000000;stroke-width:2.0px;stroke-linecap:butt;stroke-linejoin:miter;stroke-opacity:1"/>
<path class="bond-4 atom-4 atom-5" d="M 651.7,162.7 L 639.1,106.6" style="fill:none;fill-rule:evenodd;stroke:#FF0000;stroke-width:2.0px;stroke-linecap:butt;stroke-linejoin:miter;stroke-opacity:1"/>
<path class="bond-5 atom-4 atom-6" d="M 672.6,211.4 L 633.7,247.1" style="fill:none;fill-rule:evenodd;stroke:#000000;stroke-width:2.0px;stroke-linecap:butt;stroke-linejoin:miter;stroke-opacity:1"/>
<path class="bond-5 atom-4 atom-6" d="M 633.7,247.1 L 594.9,282.9" style="fill:none;fill-rule:evenodd;stroke:#FF0000;stroke-width:2.0px;stroke-linecap:butt;stroke-linejoin:miter;stroke-opacity:1"/>
<path class="bond-6 atom-6 atom-7" d="M 560.4,293.4 L 507.4,276.8" style="fill:none;fill-rule:evenodd;stroke:#FF0000;stroke-width:2.0px;stroke-linecap:butt;stroke-linejoin:miter;stroke-opacity:1"/>
<path class="bond-6 atom-6 atom-7" d="M 507.4,276.8 L 454.4,260.3" style="fill:none;fill-rule:evenodd;stroke:#000000;stroke-width:2.0px;stroke-linecap:butt;stroke-linejoin:miter;stroke-opacity:1"/>
<path class="bond-7 atom-7 atom-8" d="M 452.1,262.8 L 451.7,262.4" style="fill:none;fill-rule:evenodd;stroke:#000000;stroke-width:1.0px;stroke-linecap:butt;stroke-linejoin:miter;stroke-opacity:1"/>
<path class="bond-7 atom-7 atom-8" d="M 449.7,265.4 L 449.0,264.6" style="fill:none;fill-rule:evenodd;stroke:#000000;stroke-width:1.0px;stroke-linecap:butt;stroke-linejoin:miter;stroke-opacity:1"/>
<path class="bond-7 atom-7 atom-8" d="M 447.3,267.9 L 446.2,266.8" style="fill:none;fill-rule:evenodd;stroke:#000000;stroke-width:1.0px;stroke-linecap:butt;stroke-linejoin:miter;stroke-opacity:1"/>
<path class="bond-7 atom-7 atom-8" d="M 444.9,270.5 L 443.5,269.0" style="fill:none;fill-rule:evenodd;stroke:#000000;stroke-width:1.0px;stroke-linecap:butt;stroke-linejoin:miter;stroke-opacity:1"/>
<path class="bond-7 atom-7 atom-8" d="M 442.5,273.1 L 440.7,271.1" style="fill:none;fill-rule:evenodd;stroke:#000000;stroke-width:1.0px;stroke-linecap:butt;stroke-linejoin:miter;stroke-opacity:1"/>
<path class="bond-7 atom-7 atom-8" d="M 440.1,275.6 L 438.0,273.3" style="fill:none;fill-rule:evenodd;stroke:#000000;stroke-width:1.0px;stroke-linecap:butt;stroke-linejoin:miter;stroke-opacity:1"/>
<path class="bond-7 atom-7 atom-8" d="M 437.7,278.2 L 435.2,275.5" style="fill:none;fill-rule:evenodd;stroke:#000000;stroke-width:1.0px;stroke-linecap:butt;stroke-linejoin:miter;stroke-opacity:1"/>
<path class="bond-7 atom-7 atom-8" d="M 435.3,280.7 L 432.5,277.6" style="fill:none;fill-rule:evenodd;stroke:#000000;stroke-width:1.0px;stroke-linecap:butt;stroke-linejoin:miter;stroke-opacity:1"/>
<path class="bond-7 atom-7 atom-8" d="M 432.9,283.3 L 429.8,279.8" style="fill:none;fill-rule:evenodd;stroke:#000000;stroke-width:1.0px;stroke-linecap:butt;stroke-linejoin:miter;stroke-opacity:1"/>
<path class="bond-7 atom-7 atom-8" d="M 430.6,285.8 L 427.0,282.0" style="fill:none;fill-rule:evenodd;stroke:#000000;stroke-width:1.0px;stroke-linecap:butt;stroke-linejoin:miter;stroke-opacity:1"/>
<path class="bond-7 atom-7 atom-8" d="M 428.2,288.4 L 424.3,284.2" style="fill:none;fill-rule:evenodd;stroke:#000000;stroke-width:1.0px;stroke-linecap:butt;stroke-linejoin:miter;stroke-opacity:1"/>
<path class="bond-7 atom-7 atom-8" d="M 425.8,290.9 L 421.5,286.3" style="fill:none;fill-rule:evenodd;stroke:#000000;stroke-width:1.0px;stroke-linecap:butt;stroke-linejoin:miter;stroke-opacity:1"/>
<path class="bond-7 atom-7 atom-8" d="M 423.4,293.5 L 418.8,288.5" style="fill:none;fill-rule:evenodd;stroke:#000000;stroke-width:1.0px;stroke-linecap:butt;stroke-linejoin:miter;stroke-opacity:1"/>
<path class="bond-7 atom-7 atom-8" d="M 421.0,296.1 L 416.0,290.7" style="fill:none;fill-rule:evenodd;stroke:#000000;stroke-width:1.0px;stroke-linecap:butt;stroke-linejoin:miter;stroke-opacity:1"/>
<path class="bond-7 atom-7 atom-8" d="M 418.6,298.6 L 413.3,292.8" style="fill:none;fill-rule:evenodd;stroke:#000000;stroke-width:1.0px;stroke-linecap:butt;stroke-linejoin:miter;stroke-opacity:1"/>
<path class="bond-7 atom-7 atom-8" d="M 416.2,301.2 L 410.6,295.0" style="fill:none;fill-rule:evenodd;stroke:#000000;stroke-width:1.0px;stroke-linecap:butt;stroke-linejoin:miter;stroke-opacity:1"/>
<path class="bond-7 atom-7 atom-8" d="M 413.8,303.7 L 407.8,297.2" style="fill:none;fill-rule:evenodd;stroke:#000000;stroke-width:1.0px;stroke-linecap:butt;stroke-linejoin:miter;stroke-opacity:1"/>
<path class="bond-7 atom-7 atom-8" d="M 411.4,306.3 L 405.1,299.3" style="fill:none;fill-rule:evenodd;stroke:#000000;stroke-width:1.0px;stroke-linecap:butt;stroke-linejoin:miter;stroke-opacity:1"/>
<path class="bond-7 atom-7 atom-8" d="M 409.1,308.8 L 402.3,301.5" style="fill:none;fill-rule:evenodd;stroke:#000000;stroke-width:1.0px;stroke-linecap:butt;stroke-linejoin:miter;stroke-opacity:1"/>
<path class="bond-7 atom-7 atom-8" d="M 406.7,311.4 L 399.6,303.7" style="fill:none;fill-rule:evenodd;stroke:#000000;stroke-width:1.0px;stroke-linecap:butt;stroke-linejoin:miter;stroke-opacity:1"/>
<path class="bond-7 atom-7 atom-8" d="M 404.3,313.9 L 396.8,305.9" style="fill:none;fill-rule:evenodd;stroke:#000000;stroke-width:1.0px;stroke-linecap:butt;stroke-linejoin:miter;stroke-opacity:1"/>
<path class="bond-7 atom-7 atom-8" d="M 401.9,316.5 L 394.1,308.0" style="fill:none;fill-rule:evenodd;stroke:#000000;stroke-width:1.0px;stroke-linecap:butt;stroke-linejoin:miter;stroke-opacity:1"/>
<path class="bond-7 atom-7 atom-8" d="M 399.5,319.1 L 391.4,310.2" style="fill:none;fill-rule:evenodd;stroke:#000000;stroke-width:1.0px;stroke-linecap:butt;stroke-linejoin:miter;stroke-opacity:1"/>
<path class="bond-7 atom-7 atom-8" d="M 397.1,321.6 L 388.6,312.4" style="fill:none;fill-rule:evenodd;stroke:#000000;stroke-width:1.0px;stroke-linecap:butt;stroke-linejoin:miter;stroke-opacity:1"/>
<path class="bond-7 atom-7 atom-8" d="M 394.7,324.2 L 385.9,314.5" style="fill:none;fill-rule:evenodd;stroke:#000000;stroke-width:1.0px;stroke-linecap:butt;stroke-linejoin:miter;stroke-opacity:1"/>
<path class="bond-7 atom-7 atom-8" d="M 392.3,326.7 L 383.1,316.7" style="fill:none;fill-rule:evenodd;stroke:#000000;stroke-width:1.0px;stroke-linecap:butt;stroke-linejoin:miter;stroke-opacity:1"/>
<path class="bond-7 atom-7 atom-8" d="M 389.9,329.3 L 380.4,318.9" style="fill:none;fill-rule:evenodd;stroke:#000000;stroke-width:1.0px;stroke-linecap:butt;stroke-linejoin:miter;stroke-opacity:1"/>
<path class="bond-7 atom-7 atom-8" d="M 387.6,331.8 L 377.6,321.1" style="fill:none;fill-rule:evenodd;stroke:#000000;stroke-width:1.0px;stroke-linecap:butt;stroke-linejoin:miter;stroke-opacity:1"/>
<path class="bond-7 atom-7 atom-8" d="M 385.2,334.4 L 374.9,323.2" style="fill:none;fill-rule:evenodd;stroke:#000000;stroke-width:1.0px;stroke-linecap:butt;stroke-linejoin:miter;stroke-opacity:1"/>
<path class="bond-7 atom-7 atom-8" d="M 382.8,336.9 L 372.2,325.4" style="fill:none;fill-rule:evenodd;stroke:#000000;stroke-width:1.0px;stroke-linecap:butt;stroke-linejoin:miter;stroke-opacity:1"/>
<path class="bond-7 atom-7 atom-8" d="M 380.4,339.5 L 369.4,327.6" style="fill:none;fill-rule:evenodd;stroke:#000000;stroke-width:1.0px;stroke-linecap:butt;stroke-linejoin:miter;stroke-opacity:1"/>
<path class="bond-7 atom-7 atom-8" d="M 378.0,342.1 L 366.7,329.7" style="fill:none;fill-rule:evenodd;stroke:#000000;stroke-width:1.0px;stroke-linecap:butt;stroke-linejoin:miter;stroke-opacity:1"/>
<path class="bond-7 atom-7 atom-8" d="M 375.6,344.6 L 363.9,331.9" style="fill:none;fill-rule:evenodd;stroke:#000000;stroke-width:1.0px;stroke-linecap:butt;stroke-linejoin:miter;stroke-opacity:1"/>
<path class="bond-7 atom-7 atom-8" d="M 373.2,347.2 L 361.2,334.1" style="fill:none;fill-rule:evenodd;stroke:#000000;stroke-width:1.0px;stroke-linecap:butt;stroke-linejoin:miter;stroke-opacity:1"/>
<path class="bond-7 atom-7 atom-8" d="M 370.8,349.7 L 358.4,336.2" style="fill:none;fill-rule:evenodd;stroke:#000000;stroke-width:1.0px;stroke-linecap:butt;stroke-linejoin:miter;stroke-opacity:1"/>
<path class="bond-7 atom-7 atom-8" d="M 368.5,352.3 L 355.7,338.4" style="fill:none;fill-rule:evenodd;stroke:#000000;stroke-width:1.0px;stroke-linecap:butt;stroke-linejoin:miter;stroke-opacity:1"/>
<path class="bond-7 atom-7 atom-8" d="M 366.1,354.8 L 352.9,340.6" style="fill:none;fill-rule:evenodd;stroke:#000000;stroke-width:1.0px;stroke-linecap:butt;stroke-linejoin:miter;stroke-opacity:1"/>
<path class="bond-8 atom-7 atom-9" d="M 454.4,260.3 L 426.2,134.3" style="fill:none;fill-rule:evenodd;stroke:#000000;stroke-width:2.0px;stroke-linecap:butt;stroke-linejoin:miter;stroke-opacity:1"/>
<path class="bond-9 atom-9 atom-10" d="M 426.2,134.3 L 369.1,116.5" style="fill:none;fill-rule:evenodd;stroke:#000000;stroke-width:2.0px;stroke-linecap:butt;stroke-linejoin:miter;stroke-opacity:1"/>
<path class="bond-9 atom-9 atom-10" d="M 369.1,116.5 L 312.0,98.7" style="fill:none;fill-rule:evenodd;stroke:#191919;stroke-width:2.0px;stroke-linecap:butt;stroke-linejoin:miter;stroke-opacity:1"/>
<path class="bond-10 atom-9 atom-11" d="M 428.6,145.3 L 469.5,107.6" style="fill:none;fill-rule:evenodd;stroke:#000000;stroke-width:2.0px;stroke-linecap:butt;stroke-linejoin:miter;stroke-opacity:1"/>
<path class="bond-10 atom-9 atom-11" d="M 469.5,107.6 L 510.4,69.9" style="fill:none;fill-rule:evenodd;stroke:#FF0000;stroke-width:2.0px;stroke-linecap:butt;stroke-linejoin:miter;stroke-opacity:1"/>
<path class="bond-10 atom-9 atom-11" d="M 415.5,131.0 L 456.4,93.3" style="fill:none;fill-rule:evenodd;stroke:#000000;stroke-width:2.0px;stroke-linecap:butt;stroke-linejoin:miter;stroke-opacity:1"/>
<path class="bond-10 atom-9 atom-11" d="M 456.4,93.3 L 497.3,55.7" style="fill:none;fill-rule:evenodd;stroke:#FF0000;stroke-width:2.0px;stroke-linecap:butt;stroke-linejoin:miter;stroke-opacity:1"/>
<path d="M 797.7,248.1 L 795.8,249.9 L 789.6,247.9" style="fill:none;stroke:#000000;stroke-width:2.0px;stroke-linecap:butt;stroke-linejoin:miter;stroke-opacity:1;"/>
<path d="M 678.7,213.3 L 672.6,211.4 L 670.6,213.1" style="fill:none;stroke:#000000;stroke-width:2.0px;stroke-linecap:butt;stroke-linejoin:miter;stroke-opacity:1;"/>
<path d="M 457.1,261.1 L 454.4,260.3 L 453.0,254.0" style="fill:none;stroke:#000000;stroke-width:2.0px;stroke-linecap:butt;stroke-linejoin:miter;stroke-opacity:1;"/>
<path d="M 427.6,140.6 L 426.2,134.3 L 423.3,133.5" style="fill:none;stroke:#000000;stroke-width:2.0px;stroke-linecap:butt;stroke-linejoin:miter;stroke-opacity:1;"/>
<path class="atom-0" d="M 857.1 33.3 L 861.3 29.1 L 855.7 28.0 L 856.6 25.1 L 861.7 27.7 L 860.9 22.1 L 863.9 22.1 L 863.1 27.7 L 868.3 25.3 L 869.1 28.0 L 863.5 29.0 L 867.5 33.3 L 865.1 35.1 L 862.3 29.8 L 859.5 35.1 L 857.1 33.3 " fill="#191919"/>
<path class="atom-1" d="M 877.7 162.5 Q 877.7 155.7, 881.0 151.9 Q 884.4 148.1, 890.7 148.1 Q 897.0 148.1, 900.3 151.9 Q 903.7 155.7, 903.7 162.5 Q 903.7 169.4, 900.3 173.3 Q 896.9 177.2, 890.7 177.2 Q 884.4 177.2, 881.0 173.3 Q 877.7 169.4, 877.7 162.5 M 890.7 174.0 Q 895.0 174.0, 897.3 171.1 Q 899.7 168.2, 899.7 162.5 Q 899.7 156.9, 897.3 154.1 Q 895.0 151.3, 890.7 151.3 Q 886.4 151.3, 884.0 154.1 Q 881.7 156.9, 881.7 162.5 Q 881.7 168.2, 884.0 171.1 Q 886.4 174.0, 890.7 174.0 " fill="#FF0000"/>
<path class="atom-5" d="M 631.3 85.5 Q 631.3 78.7, 634.7 74.9 Q 638.0 71.1, 644.3 71.1 Q 650.6 71.1, 654.0 74.9 Q 657.3 78.7, 657.3 85.5 Q 657.3 92.4, 653.9 96.3 Q 650.5 100.2, 644.3 100.2 Q 638.1 100.2, 634.7 96.3 Q 631.3 92.4, 631.3 85.5 M 644.3 97.0 Q 648.6 97.0, 651.0 94.1 Q 653.3 91.2, 653.3 85.5 Q 653.3 79.9, 651.0 77.1 Q 648.6 74.3, 644.3 74.3 Q 640.0 74.3, 637.6 77.1 Q 635.3 79.9, 635.3 85.5 Q 635.3 91.2, 637.6 94.1 Q 640.0 97.0, 644.3 97.0 " fill="#FF0000"/>
<path class="atom-6" d="M 564.6 298.9 Q 564.6 292.1, 568.0 288.3 Q 571.3 284.5, 577.6 284.5 Q 583.9 284.5, 587.3 288.3 Q 590.6 292.1, 590.6 298.9 Q 590.6 305.7, 587.2 309.7 Q 583.8 313.5, 577.6 313.5 Q 571.4 313.5, 568.0 309.7 Q 564.6 305.8, 564.6 298.9 M 577.6 310.3 Q 581.9 310.3, 584.3 307.5 Q 586.6 304.5, 586.6 298.9 Q 586.6 293.3, 584.3 290.5 Q 581.9 287.7, 577.6 287.7 Q 573.3 287.7, 570.9 290.5 Q 568.6 293.3, 568.6 298.9 Q 568.6 304.6, 570.9 307.5 Q 573.3 310.3, 577.6 310.3 " fill="#FF0000"/>
<path class="atom-10" d="M 297.7 92.7 L 301.8 88.4 L 296.3 87.3 L 297.2 84.5 L 302.2 87.0 L 301.5 81.5 L 304.5 81.4 L 303.7 87.0 L 308.8 84.6 L 309.7 87.3 L 304.1 88.4 L 308.1 92.6 L 305.7 94.4 L 302.9 89.1 L 300.1 94.4 L 297.7 92.7 " fill="#191919"/>
<path class="atom-11" d="M 508.1 47.0 Q 508.1 40.2, 511.5 36.4 Q 514.9 32.6, 521.1 32.6 Q 527.4 32.6, 530.8 36.4 Q 534.1 40.2, 534.1 47.0 Q 534.1 53.9, 530.7 57.8 Q 527.3 61.7, 521.1 61.7 Q 514.9 61.7, 511.5 57.8 Q 508.1 53.9, 508.1 47.0 M 521.1 58.5 Q 525.5 58.5, 527.8 55.6 Q 530.1 52.7, 530.1 47.0 Q 530.1 41.4, 527.8 38.6 Q 525.5 35.8, 521.1 35.8 Q 516.8 35.8, 514.5 38.6 Q 512.1 41.4, 512.1 47.0 Q 512.1 52.7, 514.5 55.6 Q 516.8 58.5, 521.1 58.5 " fill="#FF0000"/>
<path class="bond-0 atom-0 atom-1" d="M 277.0,644.8 L 321.4,624.1" style="fill:none;fill-rule:evenodd;stroke:#191919;stroke-width:2.0px;stroke-linecap:butt;stroke-linejoin:miter;stroke-opacity:1"/>
<path class="bond-0 atom-0 atom-1" d="M 321.4,624.1 L 365.8,603.5" style="fill:none;fill-rule:evenodd;stroke:#FF0000;stroke-width:2.0px;stroke-linecap:butt;stroke-linejoin:miter;stroke-opacity:1"/>
<path class="bond-1 atom-1 atom-2" d="M 400.3,607.6 L 444.5,638.6" style="fill:none;fill-rule:evenodd;stroke:#FF0000;stroke-width:2.0px;stroke-linecap:butt;stroke-linejoin:miter;stroke-opacity:1"/>
<path class="bond-1 atom-1 atom-2" d="M 444.5,638.6 L 488.7,669.7" style="fill:none;fill-rule:evenodd;stroke:#000000;stroke-width:2.0px;stroke-linecap:butt;stroke-linejoin:miter;stroke-opacity:1"/>
<path class="bond-2 atom-2 atom-3" d="M 488.7,669.7 L 538.6,646.5" style="fill:none;fill-rule:evenodd;stroke:#000000;stroke-width:2.0px;stroke-linecap:butt;stroke-linejoin:miter;stroke-opacity:1"/>
<path class="bond-2 atom-2 atom-3" d="M 538.6,646.5 L 588.5,623.3" style="fill:none;fill-rule:evenodd;stroke:#FF0000;stroke-width:2.0px;stroke-linecap:butt;stroke-linejoin:miter;stroke-opacity:1"/>
<path class="bond-3 atom-3 atom-4" d="M 623.0,627.4 L 667.2,658.4" style="fill:none;fill-rule:evenodd;stroke:#FF0000;stroke-width:2.0px;stroke-linecap:butt;stroke-linejoin:miter;stroke-opacity:1"/>
<path class="bond-3 atom-3 atom-4" d="M 667.2,658.4 L 711.3,689.5" style="fill:none;fill-rule:evenodd;stroke:#000000;stroke-width:2.0px;stroke-linecap:butt;stroke-linejoin:miter;stroke-opacity:1"/>
<path class="bond-4 atom-4 atom-5" d="M 711.3,689.5 L 828.4,635.1" style="fill:none;fill-rule:evenodd;stroke:#000000;stroke-width:2.0px;stroke-linecap:butt;stroke-linejoin:miter;stroke-opacity:1"/>
<path class="bond-5 atom-5 atom-6" d="M 828.4,635.1 L 875.7,668.3" style="fill:none;fill-rule:evenodd;stroke:#000000;stroke-width:2.0px;stroke-linecap:butt;stroke-linejoin:miter;stroke-opacity:1"/>
<path class="bond-5 atom-5 atom-6" d="M 875.7,668.3 L 923.0,701.5" style="fill:none;fill-rule:evenodd;stroke:#191919;stroke-width:2.0px;stroke-linecap:butt;stroke-linejoin:miter;stroke-opacity:1"/>
<path class="bond-6 atom-5 atom-7" d="M 837.5,641.5 L 842.6,583.9" style="fill:none;fill-rule:evenodd;stroke:#000000;stroke-width:2.0px;stroke-linecap:butt;stroke-linejoin:miter;stroke-opacity:1"/>
<path class="bond-6 atom-5 atom-7" d="M 842.6,583.9 L 847.8,526.4" style="fill:none;fill-rule:evenodd;stroke:#FF0000;stroke-width:2.0px;stroke-linecap:butt;stroke-linejoin:miter;stroke-opacity:1"/>
<path class="bond-6 atom-5 atom-7" d="M 818.2,639.8 L 823.4,582.2" style="fill:none;fill-rule:evenodd;stroke:#000000;stroke-width:2.0px;stroke-linecap:butt;stroke-linejoin:miter;stroke-opacity:1"/>
<path class="bond-6 atom-5 atom-7" d="M 823.4,582.2 L 828.5,524.7" style="fill:none;fill-rule:evenodd;stroke:#FF0000;stroke-width:2.0px;stroke-linecap:butt;stroke-linejoin:miter;stroke-opacity:1"/>
<path d="M 486.5,668.1 L 488.7,669.7 L 491.2,668.5" style="fill:none;stroke:#000000;stroke-width:2.0px;stroke-linecap:butt;stroke-linejoin:miter;stroke-opacity:1;"/>
<path d="M 709.1,687.9 L 711.3,689.5 L 717.2,686.7" style="fill:none;stroke:#000000;stroke-width:2.0px;stroke-linecap:butt;stroke-linejoin:miter;stroke-opacity:1;"/>
<path d="M 822.5,637.8 L 828.4,635.1 L 830.7,636.7" style="fill:none;stroke:#000000;stroke-width:2.0px;stroke-linecap:butt;stroke-linejoin:miter;stroke-opacity:1;"/>
<path class="atom-0" d="M 260.7 646.7 L 264.8 642.5 L 259.3 641.4 L 260.1 638.5 L 265.2 641.1 L 264.5 635.5 L 267.5 635.5 L 266.7 641.0 L 271.8 638.6 L 272.7 641.4 L 267.1 642.4 L 271.1 646.7 L 268.7 648.4 L 265.9 643.2 L 263.1 648.4 L 260.7 646.7 " fill="#191919"/>
<path class="atom-1" d="M 370.0 595.6 Q 370.0 588.8, 373.4 585.0 Q 376.8 581.2, 383.0 581.2 Q 389.3 581.2, 392.7 585.0 Q 396.0 588.8, 396.0 595.6 Q 396.0 602.4, 392.6 606.4 Q 389.2 610.2, 383.0 610.2 Q 376.8 610.2, 373.4 606.4 Q 370.0 602.5, 370.0 595.6 M 383.0 607.0 Q 387.4 607.0, 389.7 604.2 Q 392.0 601.2, 392.0 595.6 Q 392.0 590.0, 389.7 587.2 Q 387.4 584.4, 383.0 584.4 Q 378.7 584.4, 376.4 587.2 Q 374.0 590.0, 374.0 595.6 Q 374.0 601.3, 376.4 604.2 Q 378.7 607.0, 383.0 607.0 " fill="#FF0000"/>
<path class="atom-3" d="M 592.7 615.4 Q 592.7 608.6, 596.1 604.8 Q 599.4 601.0, 605.7 601.0 Q 612.0 601.0, 615.4 604.8 Q 618.7 608.6, 618.7 615.4 Q 618.7 622.2, 615.3 626.2 Q 611.9 630.0, 605.7 630.0 Q 599.5 630.0, 596.1 626.2 Q 592.7 622.3, 592.7 615.4 M 605.7 626.8 Q 610.0 626.8, 612.4 624.0 Q 614.7 621.0, 614.7 615.4 Q 614.7 609.8, 612.4 607.0 Q 610.0 604.2, 605.7 604.2 Q 601.4 604.2, 599.0 607.0 Q 596.7 609.8, 596.7 615.4 Q 596.7 621.1, 599.0 624.0 Q 601.4 626.8, 605.7 626.8 " fill="#FF0000"/>
<path class="atom-6" d="M 928.7 706.1 L 932.8 701.8 L 927.3 700.7 L 928.1 697.9 L 933.2 700.4 L 932.5 694.9 L 935.5 694.8 L 934.7 700.4 L 939.8 698.0 L 940.7 700.7 L 935.1 701.8 L 939.1 706.0 L 936.7 707.8 L 933.9 702.5 L 931.1 707.8 L 928.7 706.1 " fill="#191919"/>
<path class="atom-7" d="M 826.8 506.6 Q 826.8 499.8, 830.2 496.0 Q 833.5 492.2, 839.8 492.2 Q 846.1 492.2, 849.4 496.0 Q 852.8 499.8, 852.8 506.6 Q 852.8 513.5, 849.4 517.4 Q 846.0 521.3, 839.8 521.3 Q 833.6 521.3, 830.2 517.4 Q 826.8 513.5, 826.8 506.6 M 839.8 518.1 Q 844.1 518.1, 846.4 515.2 Q 848.8 512.3, 848.8 506.6 Q 848.8 501.0, 846.4 498.2 Q 844.1 495.4, 839.8 495.4 Q 835.5 495.4, 833.1 498.2 Q 830.8 501.0, 830.8 506.6 Q 830.8 512.3, 833.1 515.2 Q 835.5 518.1, 839.8 518.1 " fill="#FF0000"/>
</svg>