<svg xmlns="http://www.w3.org/2000/svg" xmlns:rdkit="http://www.rdkit.org/xml" xmlns:xlink="http://www.w3.org/1999/xlink" version="1.1" baseProfile="full" xml:space="preserve" width="1200px" height="1600px" viewBox="0 0 1200 1600">
<!-- END OF HEADER -->
<rect style="opacity:1.0;fill:#FFFFFF;stroke:none" width="1200.0" height="1600.0" x="0.0" y="0.0"> </rect>
<path class="bond-0 atom-0 atom-1" d="M 143.6,119.6 L 169.0,141.2" style="fill:none;fill-rule:evenodd;stroke:#191919;stroke-width:2.0px;stroke-linecap:butt;stroke-linejoin:miter;stroke-opacity:1"/>
<path class="bond-0 atom-0 atom-1" d="M 169.0,141.2 L 194.3,162.9" style="fill:none;fill-rule:evenodd;stroke:#FF0000;stroke-width:2.0px;stroke-linecap:butt;stroke-linejoin:miter;stroke-opacity:1"/>
<path class="bond-1 atom-1 atom-2" d="M 223.1,170.1 L 257.4,157.9" style="fill:none;fill-rule:evenodd;stroke:#FF0000;stroke-width:2.0px;stroke-linecap:butt;stroke-linejoin:miter;stroke-opacity:1"/>
<path class="bond-1 atom-1 atom-2" d="M 257.4,157.9 L 291.8,145.8" style="fill:none;fill-rule:evenodd;stroke:#000000;stroke-width:2.0px;stroke-linecap:butt;stroke-linejoin:miter;stroke-opacity:1"/>
<path class="bond-2 atom-2 atom-3" d="M 291.8,145.8 L 358.8,203.0" style="fill:none;fill-rule:evenodd;stroke:#000000;stroke-width:2.0px;stroke-linecap:butt;stroke-linejoin:miter;stroke-opacity:1"/>
<path class="bond-3 atom-3 atom-4" d="M 358.8,203.0 L 441.9,173.6" style="fill:none;fill-rule:evenodd;stroke:#000000;stroke-width:2.0px;stroke-linecap:butt;stroke-linejoin:miter;stroke-opacity:1"/>
<path class="bond-4 atom-4 atom-5" d="M 441.9,173.6 L 508.9,230.8" style="fill:none;fill-rule:evenodd;stroke:#000000;stroke-width:2.0px;stroke-linecap:butt;stroke-linejoin:miter;stroke-opacity:1"/>
<path class="bond-5 atom-5 atom-6" d="M 508.9,230.8 L 543.2,218.6" style="fill:none;fill-rule:evenodd;stroke:#000000;stroke-width:2.0px;stroke-linecap:butt;stroke-linejoin:miter;stroke-opacity:1"/>
<path class="bond-5 atom-5 atom-6" d="M 543.2,218.6 L 577.6,206.5" style="fill:none;fill-rule:evenodd;stroke:#FF0000;stroke-width:2.0px;stroke-linecap:butt;stroke-linejoin:miter;stroke-opacity:1"/>
<path class="bond-6 atom-6 atom-7" d="M 606.3,213.7 L 632.7,236.2" style="fill:none;fill-rule:evenodd;stroke:#FF0000;stroke-width:2.0px;stroke-linecap:butt;stroke-linejoin:miter;stroke-opacity:1"/>
<path class="bond-6 atom-6 atom-7" d="M 632.7,236.2 L 659.0,258.6" style="fill:none;fill-rule:evenodd;stroke:#000000;stroke-width:2.0px;stroke-linecap:butt;stroke-linejoin:miter;stroke-opacity:1"/>
<path class="bond-7 atom-7 atom-8" d="M 653.2,253.7 L 646.2,291.1" style="fill:none;fill-rule:evenodd;stroke:#000000;stroke-width:2.0px;stroke-linecap:butt;stroke-linejoin:miter;stroke-opacity:1"/>
<path class="bond-7 atom-7 atom-8" d="M 646.2,291.1 L 639.3,328.6" style="fill:none;fill-rule:evenodd;stroke:#FF0000;stroke-width:2.0px;stroke-linecap:butt;stroke-linejoin:miter;stroke-opacity:1"/>
<path class="bond-7 atom-7 atom-8" d="M 666.2,256.1 L 659.2,293.5" style="fill:none;fill-rule:evenodd;stroke:#000000;stroke-width:2.0px;stroke-linecap:butt;stroke-linejoin:miter;stroke-opacity:1"/>
<path class="bond-7 atom-7 atom-8" d="M 659.2,293.5 L 652.3,331.0" style="fill:none;fill-rule:evenodd;stroke:#FF0000;stroke-width:2.0px;stroke-linecap:butt;stroke-linejoin:miter;stroke-opacity:1"/>
<path class="bond-8 atom-7 atom-9" d="M 659.0,258.6 L 742.1,229.2" style="fill:none;fill-rule:evenodd;stroke:#000000;stroke-width:2.0px;stroke-linecap:butt;stroke-linejoin:miter;stroke-opacity:1"/>
<path class="bond-9 atom-9 atom-10" d="M 742.1,229.2 L 758.1,142.6" style="fill:none;fill-rule:evenodd;stroke:#000000;stroke-width:2.0px;stroke-linecap:butt;stroke-linejoin:miter;stroke-opacity:1"/>
<path class="bond-9 atom-9 atom-10" d="M 756.4,224.1 L 769.7,152.5" style="fill:none;fill-rule:evenodd;stroke:#000000;stroke-width:2.0px;stroke-linecap:butt;stroke-linejoin:miter;stroke-opacity:1"/>
<path class="bond-10 atom-10 atom-11" d="M 758.1,142.6 L 841.2,113.2" style="fill:none;fill-rule:evenodd;stroke:#000000;stroke-width:2.0px;stroke-linecap:butt;stroke-linejoin:miter;stroke-opacity:1"/>
<path class="bond-11 atom-11 atom-12" d="M 841.2,113.2 L 908.2,170.4" style="fill:none;fill-rule:evenodd;stroke:#000000;stroke-width:2.0px;stroke-linecap:butt;stroke-linejoin:miter;stroke-opacity:1"/>
<path class="bond-11 atom-11 atom-12" d="M 838.4,128.2 L 893.8,175.5" style="fill:none;fill-rule:evenodd;stroke:#000000;stroke-width:2.0px;stroke-linecap:butt;stroke-linejoin:miter;stroke-opacity:1"/>
<path class="bond-12 atom-12 atom-13" d="M 908.2,170.4 L 991.3,141.0" style="fill:none;fill-rule:evenodd;stroke:#000000;stroke-width:2.0px;stroke-linecap:butt;stroke-linejoin:miter;stroke-opacity:1"/>
<path class="bond-13 atom-13 atom-14" d="M 991.3,141.0 L 1020.4,165.8" style="fill:none;fill-rule:evenodd;stroke:#000000;stroke-width:2.0px;stroke-linecap:butt;stroke-linejoin:miter;stroke-opacity:1"/>
<path class="bond-13 atom-13 atom-14" d="M 1020.4,165.8 L 1049.5,190.7" style="fill:none;fill-rule:evenodd;stroke:#191919;stroke-width:2.0px;stroke-linecap:butt;stroke-linejoin:miter;stroke-opacity:1"/>
<path class="bond-14 atom-13 atom-15" d="M 997.1,145.9 L 1004.0,108.7" style="fill:none;fill-rule:evenodd;stroke:#000000;stroke-width:2.0px;stroke-linecap:butt;stroke-linejoin:miter;stroke-opacity:1"/>
<path class="bond-14 atom-13 atom-15" d="M 1004.0,108.7 L 1010.9,71.4" style="fill:none;fill-rule:evenodd;stroke:#FF0000;stroke-width:2.0px;stroke-linecap:butt;stroke-linejoin:miter;stroke-opacity:1"/>
<path class="bond-14 atom-13 atom-15" d="M 984.1,143.5 L 991.0,106.3" style="fill:none;fill-rule:evenodd;stroke:#000000;stroke-width:2.0px;stroke-linecap:butt;stroke-linejoin:miter;stroke-opacity:1"/>
<path class="bond-14 atom-13 atom-15" d="M 991.0,106.3 L 997.9,69.0" style="fill:none;fill-rule:evenodd;stroke:#FF0000;stroke-width:2.0px;stroke-linecap:butt;stroke-linejoin:miter;stroke-opacity:1"/>
<path class="bond-15 atom-12 atom-16" d="M 908.2,170.4 L 892.1,257.0" style="fill:none;fill-rule:evenodd;stroke:#000000;stroke-width:2.0px;stroke-linecap:butt;stroke-linejoin:miter;stroke-opacity:1"/>
<path class="bond-16 atom-16 atom-17" d="M 892.1,257.0 L 809.1,286.5" style="fill:none;fill-rule:evenodd;stroke:#000000;stroke-width:2.0px;stroke-linecap:butt;stroke-linejoin:miter;stroke-opacity:1"/>
<path class="bond-16 atom-16 atom-17" d="M 880.5,247.1 L 811.9,271.5" style="fill:none;fill-rule:evenodd;stroke:#000000;stroke-width:2.0px;stroke-linecap:butt;stroke-linejoin:miter;stroke-opacity:1"/>
<path class="bond-17 atom-17 atom-9" d="M 809.1,286.5 L 742.1,229.2" style="fill:none;fill-rule:evenodd;stroke:#000000;stroke-width:2.0px;stroke-linecap:butt;stroke-linejoin:miter;stroke-opacity:1"/>
<path d="M 290.1,146.4 L 291.8,145.8 L 295.1,148.6" style="fill:none;stroke:#000000;stroke-width:2.0px;stroke-linecap:butt;stroke-linejoin:miter;stroke-opacity:1;"/>
<path d="M 355.5,200.1 L 358.8,203.0 L 363.0,201.5" style="fill:none;stroke:#000000;stroke-width:2.0px;stroke-linecap:butt;stroke-linejoin:miter;stroke-opacity:1;"/>
<path d="M 437.7,175.0 L 441.9,173.6 L 445.2,176.4" style="fill:none;stroke:#000000;stroke-width:2.0px;stroke-linecap:butt;stroke-linejoin:miter;stroke-opacity:1;"/>
<path d="M 505.5,228.0 L 508.9,230.8 L 510.6,230.2" style="fill:none;stroke:#000000;stroke-width:2.0px;stroke-linecap:butt;stroke-linejoin:miter;stroke-opacity:1;"/>
<path d="M 657.7,257.5 L 659.0,258.6 L 663.1,257.2" style="fill:none;stroke:#000000;stroke-width:2.0px;stroke-linecap:butt;stroke-linejoin:miter;stroke-opacity:1;"/>
<path d="M 757.3,146.9 L 758.1,142.6 L 762.3,141.1" style="fill:none;stroke:#000000;stroke-width:2.0px;stroke-linecap:butt;stroke-linejoin:miter;stroke-opacity:1;"/>
<path d="M 837.0,114.6 L 841.2,113.2 L 844.5,116.0" style="fill:none;stroke:#000000;stroke-width:2.0px;stroke-linecap:butt;stroke-linejoin:miter;stroke-opacity:1;"/>
<path d="M 987.1,142.4 L 991.3,141.0 L 992.7,142.2" style="fill:none;stroke:#000000;stroke-width:2.0px;stroke-linecap:butt;stroke-linejoin:miter;stroke-opacity:1;"/>
<path d="M 893.0,252.7 L 892.1,257.0 L 888.0,258.5" style="fill:none;stroke:#000000;stroke-width:2.0px;stroke-linecap:butt;stroke-linejoin:miter;stroke-opacity:1;"/>
<path d="M 813.2,285.0 L 809.1,286.5 L 805.7,283.6" style="fill:none;stroke:#000000;stroke-width:2.0px;stroke-linecap:butt;stroke-linejoin:miter;stroke-opacity:1;"/>
<path class="atom-0" d="M 137.0 115.1 L 140.7 111.4 L 135.8 110.4 L 136.5 107.9 L 141.0 110.2 L 140.4 105.3 L 143.0 105.2 L 142.3 110.1 L 146.8 108.0 L 147.6 110.4 L 142.7 111.3 L 146.2 115.1 L 144.0 116.7 L 141.6 112.0 L 139.1 116.7 L 137.0 115.1 " fill="#191919"/>
<path class="atom-1" d="M 197.3 175.2 Q 197.3 169.2, 200.2 165.9 Q 203.2 162.5, 208.7 162.5 Q 214.2 162.5, 217.2 165.9 Q 220.2 169.2, 220.2 175.2 Q 220.2 181.3, 217.2 184.8 Q 214.2 188.2, 208.7 188.2 Q 203.2 188.2, 200.2 184.8 Q 197.3 181.3, 197.3 175.2 M 208.7 185.4 Q 212.5 185.4, 214.6 182.8 Q 216.6 180.2, 216.6 175.2 Q 216.6 170.3, 214.6 167.9 Q 212.5 165.4, 208.7 165.4 Q 204.9 165.4, 202.8 167.8 Q 200.8 170.3, 200.8 175.2 Q 200.8 180.3, 202.8 182.8 Q 204.9 185.4, 208.7 185.4 " fill="#FF0000"/>
<path class="atom-6" d="M 580.5 201.5 Q 580.5 195.5, 583.5 192.1 Q 586.4 188.8, 592.0 188.8 Q 597.5 188.8, 600.5 192.1 Q 603.4 195.5, 603.4 201.5 Q 603.4 207.5, 600.4 211.0 Q 597.4 214.4, 592.0 214.4 Q 586.5 214.4, 583.5 211.0 Q 580.5 207.6, 580.5 201.5 M 592.0 211.6 Q 595.8 211.6, 597.8 209.0 Q 599.9 206.5, 599.9 201.5 Q 599.9 196.6, 597.8 194.1 Q 595.8 191.6, 592.0 191.6 Q 588.2 191.6, 586.1 194.1 Q 584.0 196.5, 584.0 201.5 Q 584.0 206.5, 586.1 209.0 Q 588.2 211.6, 592.0 211.6 " fill="#FF0000"/>
<path class="atom-8" d="M 631.5 345.4 Q 631.5 339.4, 634.4 336.0 Q 637.4 332.7, 642.9 332.7 Q 648.5 332.7, 651.4 336.0 Q 654.4 339.4, 654.4 345.4 Q 654.4 351.4, 651.4 354.9 Q 648.4 358.3, 642.9 358.3 Q 637.4 358.3, 634.4 354.9 Q 631.5 351.5, 631.5 345.4 M 642.9 355.5 Q 646.7 355.5, 648.8 352.9 Q 650.8 350.4, 650.8 345.4 Q 650.8 340.5, 648.8 338.0 Q 646.7 335.5, 642.9 335.5 Q 639.1 335.5, 637.0 338.0 Q 635.0 340.4, 635.0 345.4 Q 635.0 350.4, 637.0 352.9 Q 639.1 355.5, 642.9 355.5 " fill="#FF0000"/>
<path class="atom-14" d="M 1053.6 195.4 L 1057.3 191.7 L 1052.4 190.7 L 1053.1 188.2 L 1057.6 190.5 L 1057.0 185.6 L 1059.6 185.5 L 1058.9 190.4 L 1063.4 188.3 L 1064.2 190.7 L 1059.3 191.6 L 1062.8 195.4 L 1060.6 196.9 L 1058.2 192.3 L 1055.7 196.9 L 1053.6 195.4 " fill="#191919"/>
<path class="atom-15" d="M 995.9 54.4 Q 995.9 48.4, 998.9 45.0 Q 1001.8 41.7, 1007.4 41.7 Q 1012.9 41.7, 1015.8 45.0 Q 1018.8 48.4, 1018.8 54.4 Q 1018.8 60.5, 1015.8 63.9 Q 1012.8 67.3, 1007.4 67.3 Q 1001.9 67.3, 998.9 63.9 Q 995.9 60.5, 995.9 54.4 M 1007.4 64.5 Q 1011.2 64.5, 1013.2 62.0 Q 1015.3 59.4, 1015.3 54.4 Q 1015.3 49.5, 1013.2 47.0 Q 1011.2 44.5, 1007.4 44.5 Q 1003.5 44.5, 1001.5 47.0 Q 999.4 49.5, 999.4 54.4 Q 999.4 59.4, 1001.5 62.0 Q 1003.5 64.5, 1007.4 64.5 " fill="#FF0000"/>
<path class="bond-0 atom-0 atom-1" d="M 74.7,648.2 L 101.8,633.4" style="fill:none;fill-rule:evenodd;stroke:#191919;stroke-width:2.0px;stroke-linecap:butt;stroke-linejoin:miter;stroke-opacity:1"/>
<path class="bond-0 atom-0 atom-1" d="M 101.8,633.4 L 128.9,618.6" style="fill:none;fill-rule:evenodd;stroke:#FF0000;stroke-width:2.0px;stroke-linecap:butt;stroke-linejoin:miter;stroke-opacity:1"/>
<path class="bond-1 atom-1 atom-2" d="M 157.7,619.6 L 188.1,638.2" style="fill:none;fill-rule:evenodd;stroke:#FF0000;stroke-width:2.0px;stroke-linecap:butt;stroke-linejoin:miter;stroke-opacity:1"/>
<path class="bond-1 atom-1 atom-2" d="M 188.1,638.2 L 218.5,656.8" style="fill:none;fill-rule:evenodd;stroke:#000000;stroke-width:2.0px;stroke-linecap:butt;stroke-linejoin:miter;stroke-opacity:1"/>
<path class="bond-2 atom-2 atom-3" d="M 218.5,656.8 L 295.9,614.6" style="fill:none;fill-rule:evenodd;stroke:#000000;stroke-width:2.0px;stroke-linecap:butt;stroke-linejoin:miter;stroke-opacity:1"/>
<path class="bond-3 atom-3 atom-4" d="M 295.9,614.6 L 371.1,660.6" style="fill:none;fill-rule:evenodd;stroke:#000000;stroke-width:2.0px;stroke-linecap:butt;stroke-linejoin:miter;stroke-opacity:1"/>
<path class="bond-4 atom-4 atom-5" d="M 371.1,660.6 L 448.5,618.5" style="fill:none;fill-rule:evenodd;stroke:#000000;stroke-width:2.0px;stroke-linecap:butt;stroke-linejoin:miter;stroke-opacity:1"/>
<path class="bond-5 atom-5 atom-6" d="M 448.5,618.5 L 478.9,637.0" style="fill:none;fill-rule:evenodd;stroke:#000000;stroke-width:2.0px;stroke-linecap:butt;stroke-linejoin:miter;stroke-opacity:1"/>
<path class="bond-5 atom-5 atom-6" d="M 478.9,637.0 L 509.3,655.6" style="fill:none;fill-rule:evenodd;stroke:#FF0000;stroke-width:2.0px;stroke-linecap:butt;stroke-linejoin:miter;stroke-opacity:1"/>
<path class="bond-6 atom-6 atom-7" d="M 538.1,656.6 L 569.6,639.4" style="fill:none;fill-rule:evenodd;stroke:#FF0000;stroke-width:2.0px;stroke-linecap:butt;stroke-linejoin:miter;stroke-opacity:1"/>
<path class="bond-6 atom-6 atom-7" d="M 569.6,639.4 L 601.1,622.3" style="fill:none;fill-rule:evenodd;stroke:#000000;stroke-width:2.0px;stroke-linecap:butt;stroke-linejoin:miter;stroke-opacity:1"/>
<path class="bond-7 atom-7 atom-8" d="M 607.6,626.3 L 608.6,588.3" style="fill:none;fill-rule:evenodd;stroke:#000000;stroke-width:2.0px;stroke-linecap:butt;stroke-linejoin:miter;stroke-opacity:1"/>
<path class="bond-7 atom-7 atom-8" d="M 608.6,588.3 L 609.5,550.3" style="fill:none;fill-rule:evenodd;stroke:#FF0000;stroke-width:2.0px;stroke-linecap:butt;stroke-linejoin:miter;stroke-opacity:1"/>
<path class="bond-7 atom-7 atom-8" d="M 594.4,625.9 L 595.4,587.9" style="fill:none;fill-rule:evenodd;stroke:#000000;stroke-width:2.0px;stroke-linecap:butt;stroke-linejoin:miter;stroke-opacity:1"/>
<path class="bond-7 atom-7 atom-8" d="M 595.4,587.9 L 596.3,549.9" style="fill:none;fill-rule:evenodd;stroke:#FF0000;stroke-width:2.0px;stroke-linecap:butt;stroke-linejoin:miter;stroke-opacity:1"/>
<path class="bond-8 atom-7 atom-9" d="M 601.1,622.3 L 676.3,668.2" style="fill:none;fill-rule:evenodd;stroke:#000000;stroke-width:2.0px;stroke-linecap:butt;stroke-linejoin:miter;stroke-opacity:1"/>
<path class="bond-9 atom-9 atom-10" d="M 676.3,668.2 L 753.7,626.1" style="fill:none;fill-rule:evenodd;stroke:#000000;stroke-width:2.0px;stroke-linecap:butt;stroke-linejoin:miter;stroke-opacity:1"/>
<path class="bond-10 atom-10 atom-11" d="M 753.7,626.1 L 828.9,672.1" style="fill:none;fill-rule:evenodd;stroke:#000000;stroke-width:2.0px;stroke-linecap:butt;stroke-linejoin:miter;stroke-opacity:1"/>
<path class="bond-11 atom-11 atom-12" d="M 828.9,672.1 L 906.3,629.9" style="fill:none;fill-rule:evenodd;stroke:#000000;stroke-width:2.0px;stroke-linecap:butt;stroke-linejoin:miter;stroke-opacity:1"/>
<path class="bond-12 atom-12 atom-13" d="M 906.3,629.9 L 981.5,675.9" style="fill:none;fill-rule:evenodd;stroke:#000000;stroke-width:2.0px;stroke-linecap:butt;stroke-linejoin:miter;stroke-opacity:1"/>
<path class="bond-13 atom-13 atom-14" d="M 981.5,675.9 L 1058.9,633.7" style="fill:none;fill-rule:evenodd;stroke:#000000;stroke-width:2.0px;stroke-linecap:butt;stroke-linejoin:miter;stroke-opacity:1"/>
<path class="bond-14 atom-14 atom-15" d="M 1058.9,633.7 L 1092.1,654.0" style="fill:none;fill-rule:evenodd;stroke:#000000;stroke-width:2.0px;stroke-linecap:butt;stroke-linejoin:miter;stroke-opacity:1"/>
<path class="bond-14 atom-14 atom-15" d="M 1092.1,654.0 L 1125.3,674.3" style="fill:none;fill-rule:evenodd;stroke:#191919;stroke-width:2.0px;stroke-linecap:butt;stroke-linejoin:miter;stroke-opacity:1"/>
<path class="bond-15 atom-14 atom-16" d="M 1065.4,637.7 L 1066.4,599.7" style="fill:none;fill-rule:evenodd;stroke:#000000;stroke-width:2.0px;stroke-linecap:butt;stroke-linejoin:miter;stroke-opacity:1"/>
<path class="bond-15 atom-14 atom-16" d="M 1066.4,599.7 L 1067.3,561.7" style="fill:none;fill-rule:evenodd;stroke:#FF0000;stroke-width:2.0px;stroke-linecap:butt;stroke-linejoin:miter;stroke-opacity:1"/>
<path class="bond-15 atom-14 atom-16" d="M 1052.2,637.4 L 1053.1,599.4" style="fill:none;fill-rule:evenodd;stroke:#000000;stroke-width:2.0px;stroke-linecap:butt;stroke-linejoin:miter;stroke-opacity:1"/>
<path class="bond-15 atom-14 atom-16" d="M 1053.1,599.4 L 1054.1,561.4" style="fill:none;fill-rule:evenodd;stroke:#FF0000;stroke-width:2.0px;stroke-linecap:butt;stroke-linejoin:miter;stroke-opacity:1"/>
<path d="M 217.0,655.8 L 218.5,656.8 L 222.4,654.7" style="fill:none;stroke:#000000;stroke-width:2.0px;stroke-linecap:butt;stroke-linejoin:miter;stroke-opacity:1;"/>
<path d="M 292.0,616.7 L 295.9,614.6 L 299.7,616.9" style="fill:none;stroke:#000000;stroke-width:2.0px;stroke-linecap:butt;stroke-linejoin:miter;stroke-opacity:1;"/>
<path d="M 367.3,658.3 L 371.1,660.6 L 375.0,658.5" style="fill:none;stroke:#000000;stroke-width:2.0px;stroke-linecap:butt;stroke-linejoin:miter;stroke-opacity:1;"/>
<path d="M 444.6,620.6 L 448.5,618.5 L 450.0,619.4" style="fill:none;stroke:#000000;stroke-width:2.0px;stroke-linecap:butt;stroke-linejoin:miter;stroke-opacity:1;"/>
<path d="M 599.5,623.1 L 601.1,622.3 L 604.9,624.6" style="fill:none;stroke:#000000;stroke-width:2.0px;stroke-linecap:butt;stroke-linejoin:miter;stroke-opacity:1;"/>
<path d="M 672.5,665.9 L 676.3,668.2 L 680.2,666.1" style="fill:none;stroke:#000000;stroke-width:2.0px;stroke-linecap:butt;stroke-linejoin:miter;stroke-opacity:1;"/>
<path d="M 749.8,628.2 L 753.7,626.1 L 757.5,628.4" style="fill:none;stroke:#000000;stroke-width:2.0px;stroke-linecap:butt;stroke-linejoin:miter;stroke-opacity:1;"/>
<path d="M 825.1,669.8 L 828.9,672.1 L 832.8,670.0" style="fill:none;stroke:#000000;stroke-width:2.0px;stroke-linecap:butt;stroke-linejoin:miter;stroke-opacity:1;"/>
<path d="M 902.4,632.0 L 906.3,629.9 L 910.1,632.2" style="fill:none;stroke:#000000;stroke-width:2.0px;stroke-linecap:butt;stroke-linejoin:miter;stroke-opacity:1;"/>
<path d="M 977.7,673.6 L 981.5,675.9 L 985.4,673.8" style="fill:none;stroke:#000000;stroke-width:2.0px;stroke-linecap:butt;stroke-linejoin:miter;stroke-opacity:1;"/>
<path d="M 1055.0,635.9 L 1058.9,633.7 L 1060.6,634.8" style="fill:none;stroke:#000000;stroke-width:2.0px;stroke-linecap:butt;stroke-linejoin:miter;stroke-opacity:1;"/>
<path class="atom-0" d="M 61.2 650.2 L 64.9 646.4 L 60.0 645.4 L 60.7 642.9 L 65.2 645.2 L 64.6 640.3 L 67.2 640.3 L 66.5 645.2 L 71.0 643.0 L 71.8 645.4 L 66.9 646.4 L 70.4 650.1 L 68.2 651.7 L 65.8 647.0 L 63.3 651.7 L 61.2 650.2 " fill="#191919"/>
<path class="atom-1" d="M 131.9 610.9 Q 131.9 604.9, 134.8 601.5 Q 137.8 598.2, 143.3 598.2 Q 148.8 598.2, 151.8 601.5 Q 154.8 604.9, 154.8 610.9 Q 154.8 616.9, 151.8 620.4 Q 148.8 623.8, 143.3 623.8 Q 137.8 623.8, 134.8 620.4 Q 131.9 617.0, 131.9 610.9 M 143.3 621.0 Q 147.1 621.0, 149.2 618.5 Q 151.2 615.9, 151.2 610.9 Q 151.2 606.0, 149.2 603.5 Q 147.1 601.0, 143.3 601.0 Q 139.5 601.0, 137.4 603.5 Q 135.4 605.9, 135.4 610.9 Q 135.4 615.9, 137.4 618.5 Q 139.5 621.0, 143.3 621.0 " fill="#FF0000"/>
<path class="atom-6" d="M 512.2 664.5 Q 512.2 658.5, 515.2 655.1 Q 518.2 651.8, 523.7 651.8 Q 529.2 651.8, 532.2 655.1 Q 535.2 658.5, 535.2 664.5 Q 535.2 670.6, 532.2 674.0 Q 529.2 677.4, 523.7 677.4 Q 518.2 677.4, 515.2 674.0 Q 512.2 670.6, 512.2 664.5 M 523.7 674.6 Q 527.5 674.6, 529.6 672.1 Q 531.6 669.5, 531.6 664.5 Q 531.6 659.6, 529.6 657.1 Q 527.5 654.6, 523.7 654.6 Q 519.9 654.6, 517.8 657.1 Q 515.8 659.6, 515.8 664.5 Q 515.8 669.5, 517.8 672.1 Q 519.9 674.6, 523.7 674.6 " fill="#FF0000"/>
<path class="atom-8" d="M 591.9 534.2 Q 591.9 528.3, 594.8 524.9 Q 597.8 521.6, 603.3 521.6 Q 608.8 521.6, 611.8 524.9 Q 614.8 528.3, 614.8 534.2 Q 614.8 540.3, 611.8 543.8 Q 608.8 547.2, 603.3 547.2 Q 597.8 547.2, 594.8 543.8 Q 591.9 540.3, 591.9 534.2 M 603.3 544.4 Q 607.1 544.4, 609.2 541.8 Q 611.2 539.3, 611.2 534.2 Q 611.2 529.3, 609.2 526.9 Q 607.1 524.4, 603.3 524.4 Q 599.5 524.4, 597.4 526.8 Q 595.4 529.3, 595.4 534.2 Q 595.4 539.3, 597.4 541.8 Q 599.5 544.4, 603.3 544.4 " fill="#FF0000"/>
<path class="atom-15" d="M 1129.4 676.9 L 1133.1 673.2 L 1128.2 672.2 L 1128.9 669.7 L 1133.4 672.0 L 1132.8 667.1 L 1135.4 667.0 L 1134.7 671.9 L 1139.2 669.8 L 1140.0 672.2 L 1135.1 673.1 L 1138.6 676.9 L 1136.4 678.4 L 1134.0 673.8 L 1131.5 678.4 L 1129.4 676.9 " fill="#191919"/>
<path class="atom-16" d="M 1049.7 545.7 Q 1049.7 539.7, 1052.6 536.4 Q 1055.6 533.0, 1061.1 533.0 Q 1066.6 533.0, 1069.6 536.4 Q 1072.6 539.7, 1072.6 545.7 Q 1072.6 551.8, 1069.6 555.2 Q 1066.6 558.7, 1061.1 558.7 Q 1055.6 558.7, 1052.6 555.2 Q 1049.7 551.8, 1049.7 545.7 M 1061.1 555.8 Q 1064.9 555.8, 1067.0 553.3 Q 1069.0 550.7, 1069.0 545.7 Q 1069.0 540.8, 1067.0 538.3 Q 1064.9 535.8, 1061.1 535.8 Q 1057.3 535.8, 1055.2 538.3 Q 1053.2 540.8, 1053.2 545.7 Q 1053.2 550.8, 1055.2 553.3 Q 1057.3 555.8, 1061.1 555.8 " fill="#FF0000"/>
<path class="bond-0 atom-0 atom-1" d="M 778.4,1036.8 L 753.2,1058.6" style="fill:none;fill-rule:evenodd;stroke:#191919;stroke-width:2.0px;stroke-linecap:butt;stroke-linejoin:miter;stroke-opacity:1"/>
<path class="bond-0 atom-0 atom-1" d="M 753.2,1058.6 L 728.0,1080.4" style="fill:none;fill-rule:evenodd;stroke:#FF0000;stroke-width:2.0px;stroke-linecap:butt;stroke-linejoin:miter;stroke-opacity:1"/>
<path class="bond-1 atom-1 atom-2" d="M 699.3,1087.9 L 664.8,1076.0" style="fill:none;fill-rule:evenodd;stroke:#FF0000;stroke-width:2.0px;stroke-linecap:butt;stroke-linejoin:miter;stroke-opacity:1"/>
<path class="bond-1 atom-1 atom-2" d="M 664.8,1076.0 L 630.4,1064.0" style="fill:none;fill-rule:evenodd;stroke:#000000;stroke-width:2.0px;stroke-linecap:butt;stroke-linejoin:miter;stroke-opacity:1"/>
<path class="bond-2 atom-2 atom-3" d="M 630.4,1064.0 L 570.6,1124.1 L 556.2,1119.1 Z" style="fill:#000000;fill-rule:evenodd;fill-opacity:1;stroke:#000000;stroke-width:0.5px;stroke-linecap:butt;stroke-linejoin:miter;stroke-opacity:1;"/>
<path class="bond-3 atom-3 atom-4" d="M 570.6,1124.1 L 480.5,1092.9" style="fill:none;fill-rule:evenodd;stroke:#000000;stroke-width:2.0px;stroke-linecap:butt;stroke-linejoin:miter;stroke-opacity:1"/>
<path class="bond-4 atom-4 atom-5" d="M 480.5,1092.9 L 413.8,1150.6" style="fill:none;fill-rule:evenodd;stroke:#000000;stroke-width:2.0px;stroke-linecap:butt;stroke-linejoin:miter;stroke-opacity:1"/>
<path class="bond-5 atom-2 atom-6" d="M 630.4,1064.0 L 613.7,977.5" style="fill:none;fill-rule:evenodd;stroke:#000000;stroke-width:2.0px;stroke-linecap:butt;stroke-linejoin:miter;stroke-opacity:1"/>
<path class="bond-6 atom-6 atom-7" d="M 613.7,977.5 L 530.4,948.7" style="fill:none;fill-rule:evenodd;stroke:#000000;stroke-width:2.0px;stroke-linecap:butt;stroke-linejoin:miter;stroke-opacity:1"/>
<path class="bond-7 atom-7 atom-8" d="M 530.4,948.7 L 522.3,906.2" style="fill:none;fill-rule:evenodd;stroke:#000000;stroke-width:2.0px;stroke-linecap:butt;stroke-linejoin:miter;stroke-opacity:1"/>
<path class="bond-7 atom-7 atom-8" d="M 522.3,906.2 L 514.1,863.7" style="fill:none;fill-rule:evenodd;stroke:#191919;stroke-width:2.0px;stroke-linecap:butt;stroke-linejoin:miter;stroke-opacity:1"/>
<path class="bond-8 atom-7 atom-9" d="M 529.0,941.2 L 501.4,965.0" style="fill:none;fill-rule:evenodd;stroke:#000000;stroke-width:2.0px;stroke-linecap:butt;stroke-linejoin:miter;stroke-opacity:1"/>
<path class="bond-8 atom-7 atom-9" d="M 501.4,965.0 L 473.8,988.9" style="fill:none;fill-rule:evenodd;stroke:#FF0000;stroke-width:2.0px;stroke-linecap:butt;stroke-linejoin:miter;stroke-opacity:1"/>
<path class="bond-8 atom-7 atom-9" d="M 537.6,951.1 L 510.1,975.0" style="fill:none;fill-rule:evenodd;stroke:#000000;stroke-width:2.0px;stroke-linecap:butt;stroke-linejoin:miter;stroke-opacity:1"/>
<path class="bond-8 atom-7 atom-9" d="M 510.1,975.0 L 482.5,998.9" style="fill:none;fill-rule:evenodd;stroke:#FF0000;stroke-width:2.0px;stroke-linecap:butt;stroke-linejoin:miter;stroke-opacity:1"/>
<path d="M 632.1,1064.6 L 630.4,1064.0 L 629.5,1059.7" style="fill:none;stroke:#000000;stroke-width:2.0px;stroke-linecap:butt;stroke-linejoin:miter;stroke-opacity:1;"/>
<path d="M 485.0,1094.4 L 480.5,1092.9 L 477.1,1095.8" style="fill:none;stroke:#000000;stroke-width:2.0px;stroke-linecap:butt;stroke-linejoin:miter;stroke-opacity:1;"/>
<path d="M 614.5,981.8 L 613.7,977.5 L 609.5,976.1" style="fill:none;stroke:#000000;stroke-width:2.0px;stroke-linecap:butt;stroke-linejoin:miter;stroke-opacity:1;"/>
<path d="M 534.6,950.1 L 530.4,948.7 L 530.0,946.5" style="fill:none;stroke:#000000;stroke-width:2.0px;stroke-linecap:butt;stroke-linejoin:miter;stroke-opacity:1;"/>
<path class="atom-0" d="M 775.5 1032.4 L 779.2 1028.7 L 774.3 1027.7 L 775.1 1025.2 L 779.6 1027.4 L 778.9 1022.5 L 781.6 1022.5 L 780.8 1027.4 L 785.4 1025.3 L 786.2 1027.7 L 781.2 1028.6 L 784.7 1032.4 L 782.6 1033.9 L 780.2 1029.3 L 777.7 1033.9 L 775.5 1032.4 " fill="#191919"/>
<path class="atom-1" d="M 702.2 1093.0 Q 702.2 1087.0, 705.1 1083.6 Q 708.1 1080.3, 713.6 1080.3 Q 719.2 1080.3, 722.1 1083.6 Q 725.1 1087.0, 725.1 1093.0 Q 725.1 1099.0, 722.1 1102.5 Q 719.1 1105.9, 713.6 1105.9 Q 708.1 1105.9, 705.1 1102.5 Q 702.2 1099.1, 702.2 1093.0 M 713.6 1103.1 Q 717.4 1103.1, 719.5 1100.5 Q 721.6 1098.0, 721.6 1093.0 Q 721.6 1088.1, 719.5 1085.6 Q 717.4 1083.1, 713.6 1083.1 Q 709.8 1083.1, 707.7 1085.6 Q 705.7 1088.0, 705.7 1093.0 Q 705.7 1098.0, 707.7 1100.5 Q 709.8 1103.1, 713.6 1103.1 " fill="#FF0000"/>
<path class="atom-8" d="M 509.1 859.3 L 512.7 855.6 L 507.9 854.6 L 508.6 852.1 L 513.1 854.4 L 512.5 849.5 L 515.1 849.4 L 514.4 854.3 L 518.9 852.2 L 519.7 854.6 L 514.7 855.5 L 518.3 859.3 L 516.1 860.8 L 513.7 856.2 L 511.2 860.8 L 509.1 859.3 " fill="#191919"/>
<path class="atom-9" d="M 452.3 1006.4 Q 452.3 1000.4, 455.3 997.1 Q 458.3 993.7, 463.8 993.7 Q 469.3 993.7, 472.3 997.1 Q 475.3 1000.4, 475.3 1006.4 Q 475.3 1012.5, 472.3 1015.9 Q 469.3 1019.4, 463.8 1019.4 Q 458.3 1019.4, 455.3 1015.9 Q 452.3 1012.5, 452.3 1006.4 M 463.8 1016.5 Q 467.6 1016.5, 469.7 1014.0 Q 471.7 1011.4, 471.7 1006.4 Q 471.7 1001.5, 469.7 999.0 Q 467.6 996.5, 463.8 996.5 Q 460.0 996.5, 457.9 999.0 Q 455.9 1001.5, 455.9 1006.4 Q 455.9 1011.5, 457.9 1014.0 Q 460.0 1016.5, 463.8 1016.5 " fill="#FF0000"/>
<path class="bond-0 atom-0 atom-1" d="M 758.3,1317.7 L 747.7,1351.1" style="fill:none;fill-rule:evenodd;stroke:#191919;stroke-width:2.0px;stroke-linecap:butt;stroke-linejoin:miter;stroke-opacity:1"/>
<path class="bond-0 atom-0 atom-1" d="M 747.7,1351.1 L 737.1,1384.5" style="fill:none;fill-rule:evenodd;stroke:#FF0000;stroke-width:2.0px;stroke-linecap:butt;stroke-linejoin:miter;stroke-opacity:1"/>
<path class="bond-1 atom-1 atom-2" d="M 717.8,1403.2 L 681.9,1411.1" style="fill:none;fill-rule:evenodd;stroke:#FF0000;stroke-width:2.0px;stroke-linecap:butt;stroke-linejoin:miter;stroke-opacity:1"/>
<path class="bond-1 atom-1 atom-2" d="M 681.9,1411.1 L 646.1,1419.0" style="fill:none;fill-rule:evenodd;stroke:#000000;stroke-width:2.0px;stroke-linecap:butt;stroke-linejoin:miter;stroke-opacity:1"/>
<path class="bond-2 atom-2 atom-3" d="M 646.1,1419.0 L 625.7,1505.0 L 613.1,1501.0 Z" style="fill:#000000;fill-rule:evenodd;fill-opacity:1;stroke:#000000;stroke-width:0.5px;stroke-linecap:butt;stroke-linejoin:miter;stroke-opacity:1;"/>
<path class="bond-3 atom-2 atom-4" d="M 646.1,1419.0 L 586.7,1353.9" style="fill:none;fill-rule:evenodd;stroke:#000000;stroke-width:2.0px;stroke-linecap:butt;stroke-linejoin:miter;stroke-opacity:1"/>
<path class="bond-4 atom-4 atom-5" d="M 586.7,1353.9 L 500.6,1372.8" style="fill:none;fill-rule:evenodd;stroke:#000000;stroke-width:2.0px;stroke-linecap:butt;stroke-linejoin:miter;stroke-opacity:1"/>
<path class="bond-5 atom-5 atom-6" d="M 500.6,1372.8 L 471.6,1341.1" style="fill:none;fill-rule:evenodd;stroke:#000000;stroke-width:2.0px;stroke-linecap:butt;stroke-linejoin:miter;stroke-opacity:1"/>
<path class="bond-5 atom-5 atom-6" d="M 471.6,1341.1 L 442.7,1309.4" style="fill:none;fill-rule:evenodd;stroke:#191919;stroke-width:2.0px;stroke-linecap:butt;stroke-linejoin:miter;stroke-opacity:1"/>
<path class="bond-6 atom-5 atom-7" d="M 495.5,1367.2 L 484.0,1403.2" style="fill:none;fill-rule:evenodd;stroke:#000000;stroke-width:2.0px;stroke-linecap:butt;stroke-linejoin:miter;stroke-opacity:1"/>
<path class="bond-6 atom-5 atom-7" d="M 484.0,1403.2 L 472.6,1439.3" style="fill:none;fill-rule:evenodd;stroke:#FF0000;stroke-width:2.0px;stroke-linecap:butt;stroke-linejoin:miter;stroke-opacity:1"/>
<path class="bond-6 atom-5 atom-7" d="M 508.1,1371.2 L 496.6,1407.2" style="fill:none;fill-rule:evenodd;stroke:#000000;stroke-width:2.0px;stroke-linecap:butt;stroke-linejoin:miter;stroke-opacity:1"/>
<path class="bond-6 atom-5 atom-7" d="M 496.6,1407.2 L 485.2,1443.3" style="fill:none;fill-rule:evenodd;stroke:#FF0000;stroke-width:2.0px;stroke-linecap:butt;stroke-linejoin:miter;stroke-opacity:1"/>
<path d="M 647.9,1418.6 L 646.1,1419.0 L 643.1,1415.7" style="fill:none;stroke:#000000;stroke-width:2.0px;stroke-linecap:butt;stroke-linejoin:miter;stroke-opacity:1;"/>
<path d="M 589.6,1357.1 L 586.7,1353.9 L 582.4,1354.8" style="fill:none;stroke:#000000;stroke-width:2.0px;stroke-linecap:butt;stroke-linejoin:miter;stroke-opacity:1;"/>
<path d="M 504.9,1371.9 L 500.6,1372.8 L 499.1,1371.2" style="fill:none;stroke:#000000;stroke-width:2.0px;stroke-linecap:butt;stroke-linejoin:miter;stroke-opacity:1;"/>
<path class="atom-0" d="M 754.1 1313.3 L 757.8 1309.5 L 752.9 1308.5 L 753.7 1306.0 L 758.1 1308.3 L 757.5 1303.4 L 760.1 1303.4 L 759.4 1308.3 L 764.0 1306.1 L 764.7 1308.5 L 759.8 1309.5 L 763.3 1313.2 L 761.2 1314.8 L 758.7 1310.1 L 756.3 1314.8 L 754.1 1313.3 " fill="#191919"/>
<path class="atom-1" d="M 720.7 1400.1 Q 720.7 1394.1, 723.7 1390.8 Q 726.6 1387.4, 732.2 1387.4 Q 737.7 1387.4, 740.7 1390.8 Q 743.6 1394.1, 743.6 1400.1 Q 743.6 1406.2, 740.6 1409.6 Q 737.6 1413.1, 732.2 1413.1 Q 726.7 1413.1, 723.7 1409.6 Q 720.7 1406.2, 720.7 1400.1 M 732.2 1410.2 Q 736.0 1410.2, 738.0 1407.7 Q 740.1 1405.1, 740.1 1400.1 Q 740.1 1395.2, 738.0 1392.8 Q 736.0 1390.3, 732.2 1390.3 Q 728.4 1390.3, 726.3 1392.7 Q 724.2 1395.2, 724.2 1400.1 Q 724.2 1405.2, 726.3 1407.7 Q 728.4 1410.2, 732.2 1410.2 " fill="#FF0000"/>
<path class="atom-6" d="M 436.5 1304.9 L 440.1 1301.2 L 435.3 1300.2 L 436.0 1297.7 L 440.5 1300.0 L 439.9 1295.1 L 442.5 1295.0 L 441.8 1299.9 L 446.3 1297.8 L 447.1 1300.2 L 442.1 1301.1 L 445.7 1304.9 L 443.5 1306.4 L 441.1 1301.8 L 438.6 1306.4 L 436.5 1304.9 " fill="#191919"/>
<path class="atom-7" d="M 462.5 1456.9 Q 462.5 1450.9, 465.4 1447.5 Q 468.4 1444.2, 473.9 1444.2 Q 479.5 1444.2, 482.4 1447.5 Q 485.4 1450.9, 485.4 1456.9 Q 485.4 1462.9, 482.4 1466.4 Q 479.4 1469.8, 473.9 1469.8 Q 468.4 1469.8, 465.4 1466.4 Q 462.5 1463.0, 462.5 1456.9 M 473.9 1467.0 Q 477.7 1467.0, 479.8 1464.5 Q 481.9 1461.9, 481.9 1456.9 Q 481.9 1452.0, 479.8 1449.5 Q 477.7 1447.0, 473.9 1447.0 Q 470.1 1447.0, 468.1 1449.5 Q 466.0 1451.9, 466.0 1456.9 Q 466.0 1461.9, 468.1 1464.5 Q 470.1 1467.0, 473.9 1467.0 " fill="#FF0000"/>
</svg>