<svg xmlns="http://www.w3.org/2000/svg" xmlns:rdkit="http://www.rdkit.org/xml" xmlns:xlink="http://www.w3.org/1999/xlink" version="1.1" baseProfile="full" xml:space="preserve" width="1200px" height="1200px" viewBox="0 0 1200 1200">
<!-- END OF HEADER -->
<rect style="opacity:1.0;fill:#FFFFFF;stroke:none" width="1200.0" height="1200.0" x="0.0" y="0.0"> </rect>
<path class="bond-0 atom-0 atom-1" d="M 1097.9,162.7 L 1062.6,183.8" style="fill:none;fill-rule:evenodd;stroke:#191919;stroke-width:2.0px;stroke-linecap:butt;stroke-linejoin:miter;stroke-opacity:1"/>
<path class="bond-0 atom-0 atom-1" d="M 1062.6,183.8 L 1027.4,205.0" style="fill:none;fill-rule:evenodd;stroke:#FF0000;stroke-width:2.0px;stroke-linecap:butt;stroke-linejoin:miter;stroke-opacity:1"/>
<path class="bond-1 atom-1 atom-2" d="M 994.5,205.7 L 956.6,184.7" style="fill:none;fill-rule:evenodd;stroke:#FF0000;stroke-width:2.0px;stroke-linecap:butt;stroke-linejoin:miter;stroke-opacity:1"/>
<path class="bond-1 atom-1 atom-2" d="M 956.6,184.7 L 918.8,163.7" style="fill:none;fill-rule:evenodd;stroke:#000000;stroke-width:2.0px;stroke-linecap:butt;stroke-linejoin:miter;stroke-opacity:1"/>
<path class="bond-2 atom-2 atom-3" d="M 918.8,163.7 L 828.5,217.9" style="fill:none;fill-rule:evenodd;stroke:#000000;stroke-width:2.0px;stroke-linecap:butt;stroke-linejoin:miter;stroke-opacity:1"/>
<path class="bond-3 atom-3 atom-4" d="M 828.5,217.9 L 736.4,166.7" style="fill:none;fill-rule:evenodd;stroke:#000000;stroke-width:2.0px;stroke-linecap:butt;stroke-linejoin:miter;stroke-opacity:1"/>
<path class="bond-4 atom-4 atom-5" d="M 736.4,166.7 L 646.0,220.9" style="fill:none;fill-rule:evenodd;stroke:#000000;stroke-width:2.0px;stroke-linecap:butt;stroke-linejoin:miter;stroke-opacity:1"/>
<path class="bond-5 atom-5 atom-6" d="M 646.0,220.9 L 608.2,199.9" style="fill:none;fill-rule:evenodd;stroke:#000000;stroke-width:2.0px;stroke-linecap:butt;stroke-linejoin:miter;stroke-opacity:1"/>
<path class="bond-5 atom-5 atom-6" d="M 608.2,199.9 L 570.4,178.8" style="fill:none;fill-rule:evenodd;stroke:#FF0000;stroke-width:2.0px;stroke-linecap:butt;stroke-linejoin:miter;stroke-opacity:1"/>
<path class="bond-6 atom-6 atom-7" d="M 537.5,179.6 L 500.5,201.7" style="fill:none;fill-rule:evenodd;stroke:#FF0000;stroke-width:2.0px;stroke-linecap:butt;stroke-linejoin:miter;stroke-opacity:1"/>
<path class="bond-6 atom-6 atom-7" d="M 500.5,201.7 L 463.6,223.9" style="fill:none;fill-rule:evenodd;stroke:#000000;stroke-width:2.0px;stroke-linecap:butt;stroke-linejoin:miter;stroke-opacity:1"/>
<path class="bond-7 atom-7 atom-8" d="M 455.6,219.4 L 456.4,265.5" style="fill:none;fill-rule:evenodd;stroke:#000000;stroke-width:2.0px;stroke-linecap:butt;stroke-linejoin:miter;stroke-opacity:1"/>
<path class="bond-7 atom-7 atom-8" d="M 456.4,265.5 L 457.1,311.5" style="fill:none;fill-rule:evenodd;stroke:#FF0000;stroke-width:2.0px;stroke-linecap:butt;stroke-linejoin:miter;stroke-opacity:1"/>
<path class="bond-7 atom-7 atom-8" d="M 471.4,219.2 L 472.2,265.2" style="fill:none;fill-rule:evenodd;stroke:#000000;stroke-width:2.0px;stroke-linecap:butt;stroke-linejoin:miter;stroke-opacity:1"/>
<path class="bond-7 atom-7 atom-8" d="M 472.2,265.2 L 472.9,311.3" style="fill:none;fill-rule:evenodd;stroke:#FF0000;stroke-width:2.0px;stroke-linecap:butt;stroke-linejoin:miter;stroke-opacity:1"/>
<path class="bond-8 atom-7 atom-9" d="M 463.6,223.9 L 371.5,172.7" style="fill:none;fill-rule:evenodd;stroke:#000000;stroke-width:2.0px;stroke-linecap:butt;stroke-linejoin:miter;stroke-opacity:1"/>
<path class="bond-9 atom-9 atom-10" d="M 371.5,172.7 L 281.2,226.9" style="fill:none;fill-rule:evenodd;stroke:#000000;stroke-width:2.0px;stroke-linecap:butt;stroke-linejoin:miter;stroke-opacity:1"/>
<path class="bond-10 atom-10 atom-11" d="M 281.2,226.9 L 189.1,175.7" style="fill:none;fill-rule:evenodd;stroke:#000000;stroke-width:2.0px;stroke-linecap:butt;stroke-linejoin:miter;stroke-opacity:1"/>
<path class="bond-11 atom-11 atom-12" d="M 189.1,175.7 L 149.0,199.7" style="fill:none;fill-rule:evenodd;stroke:#000000;stroke-width:2.0px;stroke-linecap:butt;stroke-linejoin:miter;stroke-opacity:1"/>
<path class="bond-11 atom-11 atom-12" d="M 149.0,199.7 L 108.9,223.8" style="fill:none;fill-rule:evenodd;stroke:#191919;stroke-width:2.0px;stroke-linecap:butt;stroke-linejoin:miter;stroke-opacity:1"/>
<path class="bond-12 atom-11 atom-13" d="M 197.0,180.1 L 196.3,134.3" style="fill:none;fill-rule:evenodd;stroke:#000000;stroke-width:2.0px;stroke-linecap:butt;stroke-linejoin:miter;stroke-opacity:1"/>
<path class="bond-12 atom-11 atom-13" d="M 196.3,134.3 L 195.5,88.5" style="fill:none;fill-rule:evenodd;stroke:#FF0000;stroke-width:2.0px;stroke-linecap:butt;stroke-linejoin:miter;stroke-opacity:1"/>
<path class="bond-12 atom-11 atom-13" d="M 181.2,180.4 L 180.5,134.6" style="fill:none;fill-rule:evenodd;stroke:#000000;stroke-width:2.0px;stroke-linecap:butt;stroke-linejoin:miter;stroke-opacity:1"/>
<path class="bond-12 atom-11 atom-13" d="M 180.5,134.6 L 179.7,88.7" style="fill:none;fill-rule:evenodd;stroke:#FF0000;stroke-width:2.0px;stroke-linecap:butt;stroke-linejoin:miter;stroke-opacity:1"/>
<path d="M 920.7,164.7 L 918.8,163.7 L 914.3,166.4" style="fill:none;stroke:#000000;stroke-width:2.0px;stroke-linecap:butt;stroke-linejoin:miter;stroke-opacity:1;"/>
<path d="M 833.0,215.1 L 828.5,217.9 L 823.9,215.3" style="fill:none;stroke:#000000;stroke-width:2.0px;stroke-linecap:butt;stroke-linejoin:miter;stroke-opacity:1;"/>
<path d="M 741.0,169.2 L 736.4,166.7 L 731.9,169.4" style="fill:none;stroke:#000000;stroke-width:2.0px;stroke-linecap:butt;stroke-linejoin:miter;stroke-opacity:1;"/>
<path d="M 650.6,218.1 L 646.0,220.9 L 644.2,219.8" style="fill:none;stroke:#000000;stroke-width:2.0px;stroke-linecap:butt;stroke-linejoin:miter;stroke-opacity:1;"/>
<path d="M 465.4,222.8 L 463.6,223.9 L 459.0,221.3" style="fill:none;stroke:#000000;stroke-width:2.0px;stroke-linecap:butt;stroke-linejoin:miter;stroke-opacity:1;"/>
<path d="M 376.1,175.3 L 371.5,172.7 L 367.0,175.4" style="fill:none;stroke:#000000;stroke-width:2.0px;stroke-linecap:butt;stroke-linejoin:miter;stroke-opacity:1;"/>
<path d="M 285.7,224.2 L 281.2,226.9 L 276.6,224.3" style="fill:none;stroke:#000000;stroke-width:2.0px;stroke-linecap:butt;stroke-linejoin:miter;stroke-opacity:1;"/>
<path d="M 193.7,178.3 L 189.1,175.7 L 187.1,176.9" style="fill:none;stroke:#000000;stroke-width:2.0px;stroke-linecap:butt;stroke-linejoin:miter;stroke-opacity:1;"/>
<path class="atom-0" d="M 1095.9 157.5 L 1100.1 153.3 L 1094.6 152.2 L 1095.4 149.3 L 1100.5 151.9 L 1099.8 146.3 L 1102.8 146.3 L 1101.9 151.8 L 1107.1 149.4 L 1108.0 152.2 L 1102.4 153.2 L 1106.4 157.5 L 1103.9 159.2 L 1101.2 154.0 L 1098.4 159.2 L 1095.9 157.5 " fill="#191919"/>
<path class="atom-1" d="M 997.9 214.9 Q 997.9 208.1, 1001.3 204.3 Q 1004.6 200.5, 1010.9 200.5 Q 1017.2 200.5, 1020.6 204.3 Q 1023.9 208.1, 1023.9 214.9 Q 1023.9 221.8, 1020.5 225.7 Q 1017.1 229.6, 1010.9 229.6 Q 1004.7 229.6, 1001.3 225.7 Q 997.9 221.8, 997.9 214.9 M 1010.9 226.4 Q 1015.2 226.4, 1017.6 223.5 Q 1019.9 220.6, 1019.9 214.9 Q 1019.9 209.4, 1017.6 206.6 Q 1015.2 203.7, 1010.9 203.7 Q 1006.6 203.7, 1004.2 206.5 Q 1001.9 209.3, 1001.9 214.9 Q 1001.9 220.6, 1004.2 223.5 Q 1006.6 226.4, 1010.9 226.4 " fill="#FF0000"/>
<path class="atom-6" d="M 541.0 169.8 Q 541.0 163.0, 544.3 159.2 Q 547.7 155.4, 554.0 155.4 Q 560.2 155.4, 563.6 159.2 Q 567.0 163.0, 567.0 169.8 Q 567.0 176.7, 563.6 180.6 Q 560.2 184.5, 554.0 184.5 Q 547.7 184.5, 544.3 180.6 Q 541.0 176.7, 541.0 169.8 M 554.0 181.3 Q 558.3 181.3, 560.6 178.4 Q 563.0 175.5, 563.0 169.8 Q 563.0 164.2, 560.6 161.4 Q 558.3 158.6, 554.0 158.6 Q 549.6 158.6, 547.3 161.4 Q 545.0 164.2, 545.0 169.8 Q 545.0 175.5, 547.3 178.4 Q 549.6 181.3, 554.0 181.3 " fill="#FF0000"/>
<path class="atom-8" d="M 452.3 329.3 Q 452.3 322.5, 455.7 318.7 Q 459.1 314.9, 465.3 314.9 Q 471.6 314.9, 475.0 318.7 Q 478.3 322.5, 478.3 329.3 Q 478.3 336.2, 474.9 340.1 Q 471.5 344.0, 465.3 344.0 Q 459.1 344.0, 455.7 340.1 Q 452.3 336.2, 452.3 329.3 M 465.3 340.8 Q 469.7 340.8, 472.0 337.9 Q 474.3 335.0, 474.3 329.3 Q 474.3 323.7, 472.0 320.9 Q 469.7 318.1, 465.3 318.1 Q 461.0 318.1, 458.7 320.9 Q 456.3 323.7, 456.3 329.3 Q 456.3 335.0, 458.7 337.9 Q 461.0 340.8, 465.3 340.8 " fill="#FF0000"/>
<path class="atom-12" d="M 93.4 226.7 L 97.5 222.5 L 92.0 221.3 L 92.9 218.5 L 97.9 221.1 L 97.2 215.5 L 100.2 215.5 L 99.4 221.0 L 104.5 218.6 L 105.4 221.3 L 99.8 222.4 L 103.8 226.7 L 101.4 228.4 L 98.6 223.1 L 95.8 228.4 L 93.4 226.7 " fill="#191919"/>
<path class="atom-13" d="M 174.3 70.4 Q 174.3 63.6, 177.7 59.8 Q 181.1 56.0, 187.3 56.0 Q 193.6 56.0, 197.0 59.8 Q 200.3 63.6, 200.3 70.4 Q 200.3 77.3, 196.9 81.2 Q 193.5 85.1, 187.3 85.1 Q 181.1 85.1, 177.7 81.2 Q 174.3 77.4, 174.3 70.4 M 187.3 81.9 Q 191.7 81.9, 194.0 79.0 Q 196.3 76.1, 196.3 70.4 Q 196.3 64.9, 194.0 62.1 Q 191.7 59.2, 187.3 59.2 Q 183.0 59.2, 180.7 62.0 Q 178.3 64.8, 178.3 70.4 Q 178.3 76.2, 180.7 79.0 Q 183.0 81.9, 187.3 81.9 " fill="#FF0000"/>
<path class="bond-0 atom-0 atom-1" d="M 813.3,643.7 L 782.9,670.0" style="fill:none;fill-rule:evenodd;stroke:#191919;stroke-width:2.0px;stroke-linecap:butt;stroke-linejoin:miter;stroke-opacity:1"/>
<path class="bond-0 atom-0 atom-1" d="M 782.9,670.0 L 752.5,696.4" style="fill:none;fill-rule:evenodd;stroke:#FF0000;stroke-width:2.0px;stroke-linecap:butt;stroke-linejoin:miter;stroke-opacity:1"/>
<path class="bond-1 atom-1 atom-2" d="M 719.5,704.9 L 678.0,690.6" style="fill:none;fill-rule:evenodd;stroke:#FF0000;stroke-width:2.0px;stroke-linecap:butt;stroke-linejoin:miter;stroke-opacity:1"/>
<path class="bond-1 atom-1 atom-2" d="M 678.0,690.6 L 636.5,676.2" style="fill:none;fill-rule:evenodd;stroke:#000000;stroke-width:2.0px;stroke-linecap:butt;stroke-linejoin:miter;stroke-opacity:1"/>
<path class="bond-2 atom-2 atom-3" d="M 636.5,676.2 L 565.1,748.0 L 547.8,742.0 Z" style="fill:#000000;fill-rule:evenodd;fill-opacity:1;stroke:#000000;stroke-width:0.5px;stroke-linecap:butt;stroke-linejoin:miter;stroke-opacity:1;"/>
<path class="bond-3 atom-3 atom-4" d="M 565.1,748.0 L 457.3,710.6" style="fill:none;fill-rule:evenodd;stroke:#000000;stroke-width:2.0px;stroke-linecap:butt;stroke-linejoin:miter;stroke-opacity:1"/>
<path class="bond-4 atom-4 atom-5" d="M 457.3,710.6 L 377.7,779.6" style="fill:none;fill-rule:evenodd;stroke:#000000;stroke-width:2.0px;stroke-linecap:butt;stroke-linejoin:miter;stroke-opacity:1"/>
<path class="bond-5 atom-2 atom-6" d="M 636.5,676.2 L 616.6,572.7" style="fill:none;fill-rule:evenodd;stroke:#000000;stroke-width:2.0px;stroke-linecap:butt;stroke-linejoin:miter;stroke-opacity:1"/>
<path class="bond-6 atom-6 atom-7" d="M 616.6,572.7 L 517.0,538.2" style="fill:none;fill-rule:evenodd;stroke:#000000;stroke-width:2.0px;stroke-linecap:butt;stroke-linejoin:miter;stroke-opacity:1"/>
<path class="bond-7 atom-7 atom-8" d="M 517.0,538.2 L 507.3,487.5" style="fill:none;fill-rule:evenodd;stroke:#000000;stroke-width:2.0px;stroke-linecap:butt;stroke-linejoin:miter;stroke-opacity:1"/>
<path class="bond-7 atom-7 atom-8" d="M 507.3,487.5 L 497.5,436.8" style="fill:none;fill-rule:evenodd;stroke:#191919;stroke-width:2.0px;stroke-linecap:butt;stroke-linejoin:miter;stroke-opacity:1"/>
<path class="bond-8 atom-7 atom-9" d="M 515.3,529.3 L 482.0,558.1" style="fill:none;fill-rule:evenodd;stroke:#000000;stroke-width:2.0px;stroke-linecap:butt;stroke-linejoin:miter;stroke-opacity:1"/>
<path class="bond-8 atom-7 atom-9" d="M 482.0,558.1 L 448.7,587.0" style="fill:none;fill-rule:evenodd;stroke:#FF0000;stroke-width:2.0px;stroke-linecap:butt;stroke-linejoin:miter;stroke-opacity:1"/>
<path class="bond-8 atom-7 atom-9" d="M 525.6,541.2 L 492.3,570.1" style="fill:none;fill-rule:evenodd;stroke:#000000;stroke-width:2.0px;stroke-linecap:butt;stroke-linejoin:miter;stroke-opacity:1"/>
<path class="bond-8 atom-7 atom-9" d="M 492.3,570.1 L 459.0,598.9" style="fill:none;fill-rule:evenodd;stroke:#FF0000;stroke-width:2.0px;stroke-linecap:butt;stroke-linejoin:miter;stroke-opacity:1"/>
<path d="M 638.5,676.9 L 636.5,676.2 L 635.5,671.0" style="fill:none;stroke:#000000;stroke-width:2.0px;stroke-linecap:butt;stroke-linejoin:miter;stroke-opacity:1;"/>
<path d="M 462.7,712.5 L 457.3,710.6 L 453.3,714.1" style="fill:none;stroke:#000000;stroke-width:2.0px;stroke-linecap:butt;stroke-linejoin:miter;stroke-opacity:1;"/>
<path d="M 617.6,577.9 L 616.6,572.7 L 611.6,571.0" style="fill:none;stroke:#000000;stroke-width:2.0px;stroke-linecap:butt;stroke-linejoin:miter;stroke-opacity:1;"/>
<path d="M 522.0,540.0 L 517.0,538.2 L 516.5,535.7" style="fill:none;stroke:#000000;stroke-width:2.0px;stroke-linecap:butt;stroke-linejoin:miter;stroke-opacity:1;"/>
<path class="atom-0" d="M 810.3 638.5 L 814.5 634.3 L 808.9 633.2 L 809.8 630.3 L 814.9 632.9 L 814.1 627.3 L 817.1 627.3 L 816.3 632.8 L 821.5 630.4 L 822.3 633.2 L 816.7 634.2 L 820.7 638.5 L 818.3 640.2 L 815.5 635.0 L 812.7 640.2 L 810.3 638.5 " fill="#191919"/>
<path class="atom-1" d="M 723.0 710.7 Q 723.0 703.9, 726.4 700.1 Q 729.7 696.3, 736.0 696.3 Q 742.3 696.3, 745.7 700.1 Q 749.0 703.9, 749.0 710.7 Q 749.0 717.6, 745.6 721.5 Q 742.2 725.4, 736.0 725.4 Q 729.8 725.4, 726.4 721.5 Q 723.0 717.6, 723.0 710.7 M 736.0 722.2 Q 740.3 722.2, 742.7 719.3 Q 745.0 716.4, 745.0 710.7 Q 745.0 705.2, 742.7 702.4 Q 740.3 699.5, 736.0 699.5 Q 731.7 699.5, 729.3 702.3 Q 727.0 705.1, 727.0 710.7 Q 727.0 716.4, 729.3 719.3 Q 731.7 722.2, 736.0 722.2 " fill="#FF0000"/>
<path class="atom-8" d="M 491.8 431.6 L 495.9 427.4 L 490.4 426.3 L 491.2 423.4 L 496.3 426.0 L 495.6 420.4 L 498.6 420.4 L 497.8 425.9 L 502.9 423.5 L 503.8 426.3 L 498.2 427.3 L 502.2 431.6 L 499.8 433.3 L 497.0 428.1 L 494.2 433.3 L 491.8 431.6 " fill="#191919"/>
<path class="atom-9" d="M 424.4 607.3 Q 424.4 600.5, 427.7 596.7 Q 431.1 592.9, 437.4 592.9 Q 443.7 592.9, 447.0 596.7 Q 450.4 600.5, 450.4 607.3 Q 450.4 614.2, 447.0 618.1 Q 443.6 622.0, 437.4 622.0 Q 431.1 622.0, 427.7 618.1 Q 424.4 614.2, 424.4 607.3 M 437.4 618.8 Q 441.7 618.8, 444.0 615.9 Q 446.4 613.0, 446.4 607.3 Q 446.4 601.7, 444.0 598.9 Q 441.7 596.1, 437.4 596.1 Q 433.1 596.1, 430.7 598.9 Q 428.4 601.7, 428.4 607.3 Q 428.4 613.0, 430.7 615.9 Q 433.1 618.8, 437.4 618.8 " fill="#FF0000"/>
<path class="bond-0 atom-0 atom-1" d="M 789.2,901.3 L 776.4,941.6" style="fill:none;fill-rule:evenodd;stroke:#191919;stroke-width:2.0px;stroke-linecap:butt;stroke-linejoin:miter;stroke-opacity:1"/>
<path class="bond-0 atom-0 atom-1" d="M 776.4,941.6 L 763.6,981.9" style="fill:none;fill-rule:evenodd;stroke:#FF0000;stroke-width:2.0px;stroke-linecap:butt;stroke-linejoin:miter;stroke-opacity:1"/>
<path class="bond-1 atom-1 atom-2" d="M 741.5,1003.3 L 698.3,1012.8" style="fill:none;fill-rule:evenodd;stroke:#FF0000;stroke-width:2.0px;stroke-linecap:butt;stroke-linejoin:miter;stroke-opacity:1"/>
<path class="bond-1 atom-1 atom-2" d="M 698.3,1012.8 L 655.1,1022.3" style="fill:none;fill-rule:evenodd;stroke:#000000;stroke-width:2.0px;stroke-linecap:butt;stroke-linejoin:miter;stroke-opacity:1"/>
<path class="bond-2 atom-2 atom-3" d="M 655.1,1022.3 L 630.8,1125.1 L 615.7,1120.3 Z" style="fill:#000000;fill-rule:evenodd;fill-opacity:1;stroke:#000000;stroke-width:0.5px;stroke-linecap:butt;stroke-linejoin:miter;stroke-opacity:1;"/>
<path class="bond-3 atom-2 atom-4" d="M 655.1,1022.3 L 584.1,944.5" style="fill:none;fill-rule:evenodd;stroke:#000000;stroke-width:2.0px;stroke-linecap:butt;stroke-linejoin:miter;stroke-opacity:1"/>
<path class="bond-4 atom-4 atom-5" d="M 584.1,944.5 L 481.2,967.1" style="fill:none;fill-rule:evenodd;stroke:#000000;stroke-width:2.0px;stroke-linecap:butt;stroke-linejoin:miter;stroke-opacity:1"/>
<path class="bond-5 atom-5 atom-6" d="M 481.2,967.1 L 446.6,929.2" style="fill:none;fill-rule:evenodd;stroke:#000000;stroke-width:2.0px;stroke-linecap:butt;stroke-linejoin:miter;stroke-opacity:1"/>
<path class="bond-5 atom-5 atom-6" d="M 446.6,929.2 L 412.0,891.3" style="fill:none;fill-rule:evenodd;stroke:#191919;stroke-width:2.0px;stroke-linecap:butt;stroke-linejoin:miter;stroke-opacity:1"/>
<path class="bond-6 atom-5 atom-7" d="M 475.0,960.4 L 461.2,1003.9" style="fill:none;fill-rule:evenodd;stroke:#000000;stroke-width:2.0px;stroke-linecap:butt;stroke-linejoin:miter;stroke-opacity:1"/>
<path class="bond-6 atom-5 atom-7" d="M 461.2,1003.9 L 447.4,1047.3" style="fill:none;fill-rule:evenodd;stroke:#FF0000;stroke-width:2.0px;stroke-linecap:butt;stroke-linejoin:miter;stroke-opacity:1"/>
<path class="bond-6 atom-5 atom-7" d="M 490.1,965.1 L 476.3,1008.6" style="fill:none;fill-rule:evenodd;stroke:#000000;stroke-width:2.0px;stroke-linecap:butt;stroke-linejoin:miter;stroke-opacity:1"/>
<path class="bond-6 atom-5 atom-7" d="M 476.3,1008.6 L 462.5,1052.1" style="fill:none;fill-rule:evenodd;stroke:#FF0000;stroke-width:2.0px;stroke-linecap:butt;stroke-linejoin:miter;stroke-opacity:1"/>
<path d="M 657.3,1021.8 L 655.1,1022.3 L 651.5,1018.4" style="fill:none;stroke:#000000;stroke-width:2.0px;stroke-linecap:butt;stroke-linejoin:miter;stroke-opacity:1;"/>
<path d="M 587.6,948.4 L 584.1,944.5 L 578.9,945.6" style="fill:none;stroke:#000000;stroke-width:2.0px;stroke-linecap:butt;stroke-linejoin:miter;stroke-opacity:1;"/>
<path d="M 486.3,966.0 L 481.2,967.1 L 479.4,965.2" style="fill:none;stroke:#000000;stroke-width:2.0px;stroke-linecap:butt;stroke-linejoin:miter;stroke-opacity:1;"/>
<path class="atom-0" d="M 784.5 896.1 L 788.7 891.9 L 783.2 890.7 L 784.0 887.9 L 789.1 890.5 L 788.4 884.9 L 791.4 884.9 L 790.5 890.4 L 795.7 888.0 L 796.6 890.7 L 791.0 891.8 L 795.0 896.1 L 792.5 897.8 L 789.8 892.5 L 787.0 897.8 L 784.5 896.1 " fill="#191919"/>
<path class="atom-1" d="M 745.0 999.8 Q 745.0 993.0, 748.4 989.2 Q 751.7 985.4, 758.0 985.4 Q 764.3 985.4, 767.6 989.2 Q 771.0 993.0, 771.0 999.8 Q 771.0 1006.6, 767.6 1010.6 Q 764.2 1014.4, 758.0 1014.4 Q 751.8 1014.4, 748.4 1010.6 Q 745.0 1006.7, 745.0 999.8 M 758.0 1011.2 Q 762.3 1011.2, 764.6 1008.4 Q 767.0 1005.4, 767.0 999.8 Q 767.0 994.2, 764.6 991.4 Q 762.3 988.6, 758.0 988.6 Q 753.7 988.6, 751.3 991.4 Q 749.0 994.2, 749.0 999.8 Q 749.0 1005.5, 751.3 1008.4 Q 753.7 1011.2, 758.0 1011.2 " fill="#FF0000"/>
<path class="atom-6" d="M 404.8 886.1 L 409.0 881.9 L 403.4 880.8 L 404.3 877.9 L 409.4 880.5 L 408.6 874.9 L 411.6 874.9 L 410.8 880.5 L 416.0 878.1 L 416.8 880.8 L 411.2 881.8 L 415.2 886.1 L 412.8 887.9 L 410.0 882.6 L 407.2 887.9 L 404.8 886.1 " fill="#191919"/>
<path class="atom-7" d="M 436.3 1067.6 Q 436.3 1060.8, 439.7 1057.0 Q 443.0 1053.2, 449.3 1053.2 Q 455.6 1053.2, 459.0 1057.0 Q 462.3 1060.8, 462.3 1067.6 Q 462.3 1074.5, 458.9 1078.4 Q 455.5 1082.3, 449.3 1082.3 Q 443.1 1082.3, 439.7 1078.4 Q 436.3 1074.5, 436.3 1067.6 M 449.3 1079.1 Q 453.6 1079.1, 456.0 1076.2 Q 458.3 1073.3, 458.3 1067.6 Q 458.3 1062.0, 456.0 1059.2 Q 453.6 1056.4, 449.3 1056.4 Q 445.0 1056.4, 442.6 1059.2 Q 440.3 1062.0, 440.3 1067.6 Q 440.3 1073.3, 442.6 1076.2 Q 445.0 1079.1, 449.3 1079.1 " fill="#FF0000"/>
</svg>