<svg xmlns="http://www.w3.org/2000/svg" xmlns:rdkit="http://www.rdkit.org/xml" xmlns:xlink="http://www.w3.org/1999/xlink" version="1.1" baseProfile="full" xml:space="preserve" width="1200px" height="1200px" viewBox="0 0 1200 1200">
<!-- END OF HEADER -->
<rect style="opacity:1.0;fill:#FFFFFF;stroke:none" width="1200.0" height="1200.0" x="0.0" y="0.0"> </rect>
<path class="bond-0 atom-0 atom-1" d="M 813.3,243.7 L 782.9,270.0" style="fill:none;fill-rule:evenodd;stroke:#191919;stroke-width:2.0px;stroke-linecap:butt;stroke-linejoin:miter;stroke-opacity:1"/>
<path class="bond-0 atom-0 atom-1" d="M 782.9,270.0 L 752.5,296.4" style="fill:none;fill-rule:evenodd;stroke:#FF0000;stroke-width:2.0px;stroke-linecap:butt;stroke-linejoin:miter;stroke-opacity:1"/>
<path class="bond-1 atom-1 atom-2" d="M 719.5,304.9 L 678.0,290.6" style="fill:none;fill-rule:evenodd;stroke:#FF0000;stroke-width:2.0px;stroke-linecap:butt;stroke-linejoin:miter;stroke-opacity:1"/>
<path class="bond-1 atom-1 atom-2" d="M 678.0,290.6 L 636.5,276.2" style="fill:none;fill-rule:evenodd;stroke:#000000;stroke-width:2.0px;stroke-linecap:butt;stroke-linejoin:miter;stroke-opacity:1"/>
<path class="bond-2 atom-2 atom-3" d="M 636.5,276.2 L 565.1,348.0 L 547.8,342.0 Z" style="fill:#000000;fill-rule:evenodd;fill-opacity:1;stroke:#000000;stroke-width:0.5px;stroke-linecap:butt;stroke-linejoin:miter;stroke-opacity:1;"/>
<path class="bond-3 atom-3 atom-4" d="M 565.1,348.0 L 457.3,310.6" style="fill:none;fill-rule:evenodd;stroke:#000000;stroke-width:2.0px;stroke-linecap:butt;stroke-linejoin:miter;stroke-opacity:1"/>
<path class="bond-4 atom-4 atom-5" d="M 457.3,310.6 L 377.7,379.6" style="fill:none;fill-rule:evenodd;stroke:#000000;stroke-width:2.0px;stroke-linecap:butt;stroke-linejoin:miter;stroke-opacity:1"/>
<path class="bond-5 atom-2 atom-6" d="M 636.5,276.2 L 616.6,172.7" style="fill:none;fill-rule:evenodd;stroke:#000000;stroke-width:2.0px;stroke-linecap:butt;stroke-linejoin:miter;stroke-opacity:1"/>
<path class="bond-6 atom-6 atom-7" d="M 616.6,172.7 L 517.0,138.2" style="fill:none;fill-rule:evenodd;stroke:#000000;stroke-width:2.0px;stroke-linecap:butt;stroke-linejoin:miter;stroke-opacity:1"/>
<path class="bond-7 atom-7 atom-8" d="M 517.0,138.2 L 507.3,87.5" style="fill:none;fill-rule:evenodd;stroke:#000000;stroke-width:2.0px;stroke-linecap:butt;stroke-linejoin:miter;stroke-opacity:1"/>
<path class="bond-7 atom-7 atom-8" d="M 507.3,87.5 L 497.5,36.8" style="fill:none;fill-rule:evenodd;stroke:#191919;stroke-width:2.0px;stroke-linecap:butt;stroke-linejoin:miter;stroke-opacity:1"/>
<path class="bond-8 atom-7 atom-9" d="M 515.3,129.3 L 482.0,158.1" style="fill:none;fill-rule:evenodd;stroke:#000000;stroke-width:2.0px;stroke-linecap:butt;stroke-linejoin:miter;stroke-opacity:1"/>
<path class="bond-8 atom-7 atom-9" d="M 482.0,158.1 L 448.7,187.0" style="fill:none;fill-rule:evenodd;stroke:#FF0000;stroke-width:2.0px;stroke-linecap:butt;stroke-linejoin:miter;stroke-opacity:1"/>
<path class="bond-8 atom-7 atom-9" d="M 525.6,141.2 L 492.3,170.1" style="fill:none;fill-rule:evenodd;stroke:#000000;stroke-width:2.0px;stroke-linecap:butt;stroke-linejoin:miter;stroke-opacity:1"/>
<path class="bond-8 atom-7 atom-9" d="M 492.3,170.1 L 459.0,198.9" style="fill:none;fill-rule:evenodd;stroke:#FF0000;stroke-width:2.0px;stroke-linecap:butt;stroke-linejoin:miter;stroke-opacity:1"/>
<path d="M 638.5,276.9 L 636.5,276.2 L 635.5,271.0" style="fill:none;stroke:#000000;stroke-width:2.0px;stroke-linecap:butt;stroke-linejoin:miter;stroke-opacity:1;"/>
<path d="M 462.7,312.5 L 457.3,310.6 L 453.3,314.1" style="fill:none;stroke:#000000;stroke-width:2.0px;stroke-linecap:butt;stroke-linejoin:miter;stroke-opacity:1;"/>
<path d="M 617.6,177.9 L 616.6,172.7 L 611.6,171.0" style="fill:none;stroke:#000000;stroke-width:2.0px;stroke-linecap:butt;stroke-linejoin:miter;stroke-opacity:1;"/>
<path d="M 522.0,140.0 L 517.0,138.2 L 516.5,135.7" style="fill:none;stroke:#000000;stroke-width:2.0px;stroke-linecap:butt;stroke-linejoin:miter;stroke-opacity:1;"/>
<path class="atom-0" d="M 810.3 238.5 L 814.5 234.3 L 808.9 233.2 L 809.8 230.3 L 814.9 232.9 L 814.1 227.3 L 817.1 227.3 L 816.3 232.8 L 821.5 230.4 L 822.3 233.2 L 816.7 234.2 L 820.7 238.5 L 818.3 240.2 L 815.5 235.0 L 812.7 240.2 L 810.3 238.5 " fill="#191919"/>
<path class="atom-1" d="M 723.0 310.7 Q 723.0 303.9, 726.4 300.1 Q 729.7 296.3, 736.0 296.3 Q 742.3 296.3, 745.7 300.1 Q 749.0 303.9, 749.0 310.7 Q 749.0 317.6, 745.6 321.5 Q 742.2 325.4, 736.0 325.4 Q 729.8 325.4, 726.4 321.5 Q 723.0 317.6, 723.0 310.7 M 736.0 322.2 Q 740.3 322.2, 742.7 319.3 Q 745.0 316.4, 745.0 310.7 Q 745.0 305.2, 742.7 302.4 Q 740.3 299.5, 736.0 299.5 Q 731.7 299.5, 729.3 302.3 Q 727.0 305.1, 727.0 310.7 Q 727.0 316.4, 729.3 319.3 Q 731.7 322.2, 736.0 322.2 " fill="#FF0000"/>
<path class="atom-8" d="M 491.8 31.6 L 495.9 27.4 L 490.4 26.3 L 491.2 23.4 L 496.3 26.0 L 495.6 20.4 L 498.6 20.4 L 497.8 25.9 L 502.9 23.5 L 503.8 26.3 L 498.2 27.3 L 502.2 31.6 L 499.8 33.3 L 497.0 28.1 L 494.2 33.3 L 491.8 31.6 " fill="#191919"/>
<path class="atom-9" d="M 424.4 207.3 Q 424.4 200.5, 427.7 196.7 Q 431.1 192.9, 437.4 192.9 Q 443.7 192.9, 447.0 196.7 Q 450.4 200.5, 450.4 207.3 Q 450.4 214.2, 447.0 218.1 Q 443.6 222.0, 437.4 222.0 Q 431.1 222.0, 427.7 218.1 Q 424.4 214.2, 424.4 207.3 M 437.4 218.8 Q 441.7 218.8, 444.0 215.9 Q 446.4 213.0, 446.4 207.3 Q 446.4 201.7, 444.0 198.9 Q 441.7 196.1, 437.4 196.1 Q 433.1 196.1, 430.7 198.9 Q 428.4 201.7, 428.4 207.3 Q 428.4 213.0, 430.7 215.9 Q 433.1 218.8, 437.4 218.8 " fill="#FF0000"/>
<path class="bond-0 atom-0 atom-1" d="M 789.2,501.3 L 776.4,541.6" style="fill:none;fill-rule:evenodd;stroke:#191919;stroke-width:2.0px;stroke-linecap:butt;stroke-linejoin:miter;stroke-opacity:1"/>
<path class="bond-0 atom-0 atom-1" d="M 776.4,541.6 L 763.6,581.9" style="fill:none;fill-rule:evenodd;stroke:#FF0000;stroke-width:2.0px;stroke-linecap:butt;stroke-linejoin:miter;stroke-opacity:1"/>
<path class="bond-1 atom-1 atom-2" d="M 741.5,603.3 L 698.3,612.8" style="fill:none;fill-rule:evenodd;stroke:#FF0000;stroke-width:2.0px;stroke-linecap:butt;stroke-linejoin:miter;stroke-opacity:1"/>
<path class="bond-1 atom-1 atom-2" d="M 698.3,612.8 L 655.1,622.3" style="fill:none;fill-rule:evenodd;stroke:#000000;stroke-width:2.0px;stroke-linecap:butt;stroke-linejoin:miter;stroke-opacity:1"/>
<path class="bond-2 atom-2 atom-3" d="M 655.1,622.3 L 630.8,725.1 L 615.7,720.3 Z" style="fill:#000000;fill-rule:evenodd;fill-opacity:1;stroke:#000000;stroke-width:0.5px;stroke-linecap:butt;stroke-linejoin:miter;stroke-opacity:1;"/>
<path class="bond-3 atom-2 atom-4" d="M 655.1,622.3 L 584.1,544.5" style="fill:none;fill-rule:evenodd;stroke:#000000;stroke-width:2.0px;stroke-linecap:butt;stroke-linejoin:miter;stroke-opacity:1"/>
<path class="bond-4 atom-4 atom-5" d="M 584.1,544.5 L 481.2,567.1" style="fill:none;fill-rule:evenodd;stroke:#000000;stroke-width:2.0px;stroke-linecap:butt;stroke-linejoin:miter;stroke-opacity:1"/>
<path class="bond-5 atom-5 atom-6" d="M 481.2,567.1 L 446.6,529.2" style="fill:none;fill-rule:evenodd;stroke:#000000;stroke-width:2.0px;stroke-linecap:butt;stroke-linejoin:miter;stroke-opacity:1"/>
<path class="bond-5 atom-5 atom-6" d="M 446.6,529.2 L 412.0,491.3" style="fill:none;fill-rule:evenodd;stroke:#191919;stroke-width:2.0px;stroke-linecap:butt;stroke-linejoin:miter;stroke-opacity:1"/>
<path class="bond-6 atom-5 atom-7" d="M 475.0,560.4 L 461.2,603.9" style="fill:none;fill-rule:evenodd;stroke:#000000;stroke-width:2.0px;stroke-linecap:butt;stroke-linejoin:miter;stroke-opacity:1"/>
<path class="bond-6 atom-5 atom-7" d="M 461.2,603.9 L 447.4,647.3" style="fill:none;fill-rule:evenodd;stroke:#FF0000;stroke-width:2.0px;stroke-linecap:butt;stroke-linejoin:miter;stroke-opacity:1"/>
<path class="bond-6 atom-5 atom-7" d="M 490.1,565.1 L 476.3,608.6" style="fill:none;fill-rule:evenodd;stroke:#000000;stroke-width:2.0px;stroke-linecap:butt;stroke-linejoin:miter;stroke-opacity:1"/>
<path class="bond-6 atom-5 atom-7" d="M 476.3,608.6 L 462.5,652.1" style="fill:none;fill-rule:evenodd;stroke:#FF0000;stroke-width:2.0px;stroke-linecap:butt;stroke-linejoin:miter;stroke-opacity:1"/>
<path d="M 657.3,621.8 L 655.1,622.3 L 651.5,618.4" style="fill:none;stroke:#000000;stroke-width:2.0px;stroke-linecap:butt;stroke-linejoin:miter;stroke-opacity:1;"/>
<path d="M 587.6,548.4 L 584.1,544.5 L 578.9,545.6" style="fill:none;stroke:#000000;stroke-width:2.0px;stroke-linecap:butt;stroke-linejoin:miter;stroke-opacity:1;"/>
<path d="M 486.3,566.0 L 481.2,567.1 L 479.4,565.2" style="fill:none;stroke:#000000;stroke-width:2.0px;stroke-linecap:butt;stroke-linejoin:miter;stroke-opacity:1;"/>
<path class="atom-0" d="M 784.5 496.1 L 788.7 491.9 L 783.2 490.7 L 784.0 487.9 L 789.1 490.5 L 788.4 484.9 L 791.4 484.9 L 790.5 490.4 L 795.7 488.0 L 796.6 490.7 L 791.0 491.8 L 795.0 496.1 L 792.5 497.8 L 789.8 492.5 L 787.0 497.8 L 784.5 496.1 " fill="#191919"/>
<path class="atom-1" d="M 745.0 599.8 Q 745.0 593.0, 748.4 589.2 Q 751.7 585.4, 758.0 585.4 Q 764.3 585.4, 767.6 589.2 Q 771.0 593.0, 771.0 599.8 Q 771.0 606.6, 767.6 610.6 Q 764.2 614.4, 758.0 614.4 Q 751.8 614.4, 748.4 610.6 Q 745.0 606.7, 745.0 599.8 M 758.0 611.2 Q 762.3 611.2, 764.6 608.4 Q 767.0 605.4, 767.0 599.8 Q 767.0 594.2, 764.6 591.4 Q 762.3 588.6, 758.0 588.6 Q 753.7 588.6, 751.3 591.4 Q 749.0 594.2, 749.0 599.8 Q 749.0 605.5, 751.3 608.4 Q 753.7 611.2, 758.0 611.2 " fill="#FF0000"/>
<path class="atom-6" d="M 404.8 486.1 L 409.0 481.9 L 403.4 480.8 L 404.3 477.9 L 409.4 480.5 L 408.6 474.9 L 411.6 474.9 L 410.8 480.5 L 416.0 478.1 L 416.8 480.8 L 411.2 481.8 L 415.2 486.1 L 412.8 487.9 L 410.0 482.6 L 407.2 487.9 L 404.8 486.1 " fill="#191919"/>
<path class="atom-7" d="M 436.3 667.6 Q 436.3 660.8, 439.7 657.0 Q 443.0 653.2, 449.3 653.2 Q 455.6 653.2, 459.0 657.0 Q 462.3 660.8, 462.3 667.6 Q 462.3 674.5, 458.9 678.4 Q 455.5 682.3, 449.3 682.3 Q 443.1 682.3, 439.7 678.4 Q 436.3 674.5, 436.3 667.6 M 449.3 679.1 Q 453.6 679.1, 456.0 676.2 Q 458.3 673.3, 458.3 667.6 Q 458.3 662.0, 456.0 659.2 Q 453.6 656.4, 449.3 656.4 Q 445.0 656.4, 442.6 659.2 Q 440.3 662.0, 440.3 667.6 Q 440.3 673.3, 442.6 676.2 Q 445.0 679.1, 449.3 679.1 " fill="#FF0000"/>
<path class="bond-0 atom-0 atom-1" d="M 756.8,963.6 L 736.2,999.3" style="fill:none;fill-rule:evenodd;stroke:#191919;stroke-width:2.0px;stroke-linecap:butt;stroke-linejoin:miter;stroke-opacity:1"/>
<path class="bond-0 atom-0 atom-1" d="M 736.2,999.3 L 715.6,1035.0" style="fill:none;fill-rule:evenodd;stroke:#FF0000;stroke-width:2.0px;stroke-linecap:butt;stroke-linejoin:miter;stroke-opacity:1"/>
<path class="bond-1 atom-1 atom-2" d="M 688.9,1052.8 L 644.4,1052.8" style="fill:none;fill-rule:evenodd;stroke:#FF0000;stroke-width:2.0px;stroke-linecap:butt;stroke-linejoin:miter;stroke-opacity:1"/>
<path class="bond-1 atom-1 atom-2" d="M 644.4,1052.8 L 600.0,1052.8" style="fill:none;fill-rule:evenodd;stroke:#000000;stroke-width:2.0px;stroke-linecap:butt;stroke-linejoin:miter;stroke-opacity:1"/>
<path class="bond-2 atom-2 atom-3" d="M 600.0,1052.8 L 547.3,1144.0" style="fill:none;fill-rule:evenodd;stroke:#000000;stroke-width:2.0px;stroke-linecap:butt;stroke-linejoin:miter;stroke-opacity:1"/>
<path class="bond-3 atom-2 atom-4" d="M 600.0,1052.8 L 547.3,961.5" style="fill:none;fill-rule:evenodd;stroke:#000000;stroke-width:2.0px;stroke-linecap:butt;stroke-linejoin:miter;stroke-opacity:1"/>
<path class="bond-4 atom-4 atom-5" d="M 547.3,961.5 L 499.7,961.5" style="fill:none;fill-rule:evenodd;stroke:#000000;stroke-width:2.0px;stroke-linecap:butt;stroke-linejoin:miter;stroke-opacity:1"/>
<path class="bond-4 atom-4 atom-5" d="M 499.7,961.5 L 452.2,961.5" style="fill:none;fill-rule:evenodd;stroke:#191919;stroke-width:2.0px;stroke-linecap:butt;stroke-linejoin:miter;stroke-opacity:1"/>
<path class="bond-5 atom-4 atom-6" d="M 551.9,969.4 L 574.1,931.0" style="fill:none;fill-rule:evenodd;stroke:#000000;stroke-width:2.0px;stroke-linecap:butt;stroke-linejoin:miter;stroke-opacity:1"/>
<path class="bond-5 atom-4 atom-6" d="M 574.1,931.0 L 596.3,892.5" style="fill:none;fill-rule:evenodd;stroke:#FF0000;stroke-width:2.0px;stroke-linecap:butt;stroke-linejoin:miter;stroke-opacity:1"/>
<path class="bond-5 atom-4 atom-6" d="M 538.2,961.5 L 560.4,923.1" style="fill:none;fill-rule:evenodd;stroke:#000000;stroke-width:2.0px;stroke-linecap:butt;stroke-linejoin:miter;stroke-opacity:1"/>
<path class="bond-5 atom-4 atom-6" d="M 560.4,923.1 L 582.6,884.6" style="fill:none;fill-rule:evenodd;stroke:#FF0000;stroke-width:2.0px;stroke-linecap:butt;stroke-linejoin:miter;stroke-opacity:1"/>
<path d="M 550.0,966.1 L 547.3,961.5 L 544.9,961.5" style="fill:none;stroke:#000000;stroke-width:2.0px;stroke-linecap:butt;stroke-linejoin:miter;stroke-opacity:1;"/>
<path class="atom-0" d="M 752.7 958.4 L 756.8 954.1 L 751.3 953.0 L 752.2 950.2 L 757.2 952.7 L 756.5 947.2 L 759.5 947.1 L 758.7 952.7 L 763.8 950.3 L 764.7 953.0 L 759.1 954.1 L 763.1 958.3 L 760.7 960.1 L 757.9 954.8 L 755.1 960.1 L 752.7 958.4 " fill="#191919"/>
<path class="atom-1" d="M 692.3 1052.9 Q 692.3 1046.1, 695.7 1042.3 Q 699.1 1038.5, 705.3 1038.5 Q 711.6 1038.5, 715.0 1042.3 Q 718.3 1046.1, 718.3 1052.9 Q 718.3 1059.7, 714.9 1063.7 Q 711.5 1067.5, 705.3 1067.5 Q 699.1 1067.5, 695.7 1063.7 Q 692.3 1059.8, 692.3 1052.9 M 705.3 1064.3 Q 709.7 1064.3, 712.0 1061.5 Q 714.3 1058.5, 714.3 1052.9 Q 714.3 1047.3, 712.0 1044.5 Q 709.7 1041.7, 705.3 1041.7 Q 701.0 1041.7, 698.7 1044.5 Q 696.3 1047.3, 696.3 1052.9 Q 696.3 1058.6, 698.7 1061.5 Q 701.0 1064.3, 705.3 1064.3 " fill="#FF0000"/>
<path class="atom-5" d="M 436.6 958.4 L 440.8 954.1 L 435.3 953.0 L 436.1 950.2 L 441.2 952.7 L 440.5 947.2 L 443.5 947.1 L 442.6 952.7 L 447.8 950.3 L 448.7 953.0 L 443.1 954.1 L 447.1 958.3 L 444.6 960.1 L 441.9 954.8 L 439.1 960.1 L 436.6 958.4 " fill="#191919"/>
<path class="atom-6" d="M 587.0 870.4 Q 587.0 863.6, 590.4 859.8 Q 593.7 856.0, 600.0 856.0 Q 606.3 856.0, 609.6 859.8 Q 613.0 863.6, 613.0 870.4 Q 613.0 877.3, 609.6 881.2 Q 606.2 885.1, 600.0 885.1 Q 593.8 885.1, 590.4 881.2 Q 587.0 877.3, 587.0 870.4 M 600.0 881.9 Q 604.3 881.9, 606.6 879.0 Q 609.0 876.1, 609.0 870.4 Q 609.0 864.8, 606.6 862.0 Q 604.3 859.2, 600.0 859.2 Q 595.7 859.2, 593.3 862.0 Q 591.0 864.8, 591.0 870.4 Q 591.0 876.1, 593.3 879.0 Q 595.7 881.9, 600.0 881.9 " fill="#FF0000"/>
</svg>