<svg xmlns="http://www.w3.org/2000/svg" xmlns:rdkit="http://www.rdkit.org/xml" xmlns:xlink="http://www.w3.org/1999/xlink" version="1.1" baseProfile="full" xml:space="preserve" width="1200px" height="800px" viewBox="0 0 1200 800">
<!-- END OF HEADER -->
<rect style="opacity:1.0;fill:#FFFFFF;stroke:none" width="1200.0" height="800.0" x="0.0" y="0.0"> </rect>
<path class="bond-0 atom-0 atom-1" d="M 873.8,56.2 L 854.4,117.4" style="fill:none;fill-rule:evenodd;stroke:#191919;stroke-width:2.0px;stroke-linecap:butt;stroke-linejoin:miter;stroke-opacity:1"/>
<path class="bond-0 atom-0 atom-1" d="M 854.4,117.4 L 835.0,178.7" style="fill:none;fill-rule:evenodd;stroke:#FF0000;stroke-width:2.0px;stroke-linecap:butt;stroke-linejoin:miter;stroke-opacity:1"/>
<path class="bond-1 atom-1 atom-2" d="M 810.8,202.0 L 745.3,216.4" style="fill:none;fill-rule:evenodd;stroke:#FF0000;stroke-width:2.0px;stroke-linecap:butt;stroke-linejoin:miter;stroke-opacity:1"/>
<path class="bond-1 atom-1 atom-2" d="M 745.3,216.4 L 679.8,230.8" style="fill:none;fill-rule:evenodd;stroke:#000000;stroke-width:2.0px;stroke-linecap:butt;stroke-linejoin:miter;stroke-opacity:1"/>
<path class="bond-2 atom-2 atom-3" d="M 679.8,230.8 L 633.7,376.2" style="fill:none;fill-rule:evenodd;stroke:#000000;stroke-width:2.0px;stroke-linecap:butt;stroke-linejoin:miter;stroke-opacity:1"/>
<path class="bond-3 atom-2 atom-4" d="M 679.8,230.8 L 576.9,118.1" style="fill:none;fill-rule:evenodd;stroke:#000000;stroke-width:2.0px;stroke-linecap:butt;stroke-linejoin:miter;stroke-opacity:1"/>
<path class="bond-4 atom-4 atom-5" d="M 576.9,118.1 L 427.9,150.9" style="fill:none;fill-rule:evenodd;stroke:#000000;stroke-width:2.0px;stroke-linecap:butt;stroke-linejoin:miter;stroke-opacity:1"/>
<path class="bond-5 atom-5 atom-6" d="M 427.9,150.9 L 378.1,96.3" style="fill:none;fill-rule:evenodd;stroke:#000000;stroke-width:2.0px;stroke-linecap:butt;stroke-linejoin:miter;stroke-opacity:1"/>
<path class="bond-5 atom-5 atom-6" d="M 378.1,96.3 L 328.3,41.8" style="fill:none;fill-rule:evenodd;stroke:#191919;stroke-width:2.0px;stroke-linecap:butt;stroke-linejoin:miter;stroke-opacity:1"/>
<path class="bond-6 atom-5 atom-7" d="M 419.0,141.1 L 398.0,207.3" style="fill:none;fill-rule:evenodd;stroke:#000000;stroke-width:2.0px;stroke-linecap:butt;stroke-linejoin:miter;stroke-opacity:1"/>
<path class="bond-6 atom-5 atom-7" d="M 398.0,207.3 L 377.0,273.5" style="fill:none;fill-rule:evenodd;stroke:#FF0000;stroke-width:2.0px;stroke-linecap:butt;stroke-linejoin:miter;stroke-opacity:1"/>
<path class="bond-6 atom-5 atom-7" d="M 440.8,148.0 L 419.8,214.2" style="fill:none;fill-rule:evenodd;stroke:#000000;stroke-width:2.0px;stroke-linecap:butt;stroke-linejoin:miter;stroke-opacity:1"/>
<path class="bond-6 atom-5 atom-7" d="M 419.8,214.2 L 398.8,280.4" style="fill:none;fill-rule:evenodd;stroke:#FF0000;stroke-width:2.0px;stroke-linecap:butt;stroke-linejoin:miter;stroke-opacity:1"/>
<path d="M 582.1,123.7 L 576.9,118.1 L 569.5,119.7" style="fill:none;stroke:#000000;stroke-width:2.0px;stroke-linecap:butt;stroke-linejoin:miter;stroke-opacity:1;"/>
<path d="M 435.4,149.2 L 427.9,150.9 L 425.4,148.1" style="fill:none;stroke:#000000;stroke-width:2.0px;stroke-linecap:butt;stroke-linejoin:miter;stroke-opacity:1;"/>
<path class="atom-0" d="M 869.6 49.4 L 873.8 45.2 L 868.3 44.1 L 869.1 41.2 L 874.2 43.8 L 873.5 38.2 L 876.5 38.2 L 875.6 43.8 L 880.8 41.4 L 881.7 44.1 L 876.1 45.1 L 880.1 49.4 L 877.6 51.2 L 874.9 45.9 L 872.1 51.2 L 869.6 49.4 " fill="#191919"/>
<path class="atom-1" d="M 815.8 198.1 Q 815.8 191.3, 819.2 187.5 Q 822.5 183.7, 828.8 183.7 Q 835.1 183.7, 838.5 187.5 Q 841.8 191.3, 841.8 198.1 Q 841.8 205.0, 838.4 208.9 Q 835.0 212.8, 828.8 212.8 Q 822.6 212.8, 819.2 208.9 Q 815.8 205.0, 815.8 198.1 M 828.8 209.6 Q 833.1 209.6, 835.5 206.7 Q 837.8 203.8, 837.8 198.1 Q 837.8 192.6, 835.5 189.8 Q 833.1 186.9, 828.8 186.9 Q 824.5 186.9, 822.1 189.7 Q 819.8 192.5, 819.8 198.1 Q 819.8 203.8, 822.1 206.7 Q 824.5 209.6, 828.8 209.6 " fill="#FF0000"/>
<path class="atom-6" d="M 319.7 35.0 L 323.9 30.8 L 318.3 29.7 L 319.2 26.8 L 324.3 29.4 L 323.5 23.8 L 326.5 23.8 L 325.7 29.3 L 330.9 26.9 L 331.7 29.7 L 326.1 30.7 L 330.1 35.0 L 327.7 36.7 L 324.9 31.5 L 322.1 36.7 L 319.7 35.0 " fill="#191919"/>
<path class="atom-7" d="M 368.8 296.4 Q 368.8 289.6, 372.1 285.8 Q 375.5 282.0, 381.8 282.0 Q 388.0 282.0, 391.4 285.8 Q 394.8 289.6, 394.8 296.4 Q 394.8 303.2, 391.4 307.2 Q 388.0 311.0, 381.8 311.0 Q 375.5 311.0, 372.1 307.2 Q 368.8 303.3, 368.8 296.4 M 381.8 307.8 Q 386.1 307.8, 388.4 305.0 Q 390.8 302.0, 390.8 296.4 Q 390.8 290.8, 388.4 288.0 Q 386.1 285.2, 381.8 285.2 Q 377.4 285.2, 375.1 288.0 Q 372.8 290.8, 372.8 296.4 Q 372.8 302.1, 375.1 305.0 Q 377.4 307.8, 381.8 307.8 " fill="#FF0000"/>
<path class="bond-0 atom-0 atom-1" d="M 216.9,652.1 L 271.2,626.8" style="fill:none;fill-rule:evenodd;stroke:#191919;stroke-width:2.0px;stroke-linecap:butt;stroke-linejoin:miter;stroke-opacity:1"/>
<path class="bond-0 atom-0 atom-1" d="M 271.2,626.8 L 325.5,601.6" style="fill:none;fill-rule:evenodd;stroke:#FF0000;stroke-width:2.0px;stroke-linecap:butt;stroke-linejoin:miter;stroke-opacity:1"/>
<path class="bond-1 atom-1 atom-2" d="M 361.6,605.9 L 415.0,643.4" style="fill:none;fill-rule:evenodd;stroke:#FF0000;stroke-width:2.0px;stroke-linecap:butt;stroke-linejoin:miter;stroke-opacity:1"/>
<path class="bond-1 atom-1 atom-2" d="M 415.0,643.4 L 468.4,680.9" style="fill:none;fill-rule:evenodd;stroke:#000000;stroke-width:2.0px;stroke-linecap:butt;stroke-linejoin:miter;stroke-opacity:1"/>
<path class="bond-2 atom-2 atom-3" d="M 468.4,680.9 L 606.8,616.6" style="fill:none;fill-rule:evenodd;stroke:#000000;stroke-width:2.0px;stroke-linecap:butt;stroke-linejoin:miter;stroke-opacity:1"/>
<path class="bond-3 atom-3 atom-4" d="M 606.8,616.6 L 731.6,704.3" style="fill:none;fill-rule:evenodd;stroke:#000000;stroke-width:2.0px;stroke-linecap:butt;stroke-linejoin:miter;stroke-opacity:1"/>
<path class="bond-4 atom-4 atom-5" d="M 731.6,704.3 L 870.0,640.0" style="fill:none;fill-rule:evenodd;stroke:#000000;stroke-width:2.0px;stroke-linecap:butt;stroke-linejoin:miter;stroke-opacity:1"/>
<path class="bond-5 atom-5 atom-6" d="M 870.0,640.0 L 926.5,679.7" style="fill:none;fill-rule:evenodd;stroke:#000000;stroke-width:2.0px;stroke-linecap:butt;stroke-linejoin:miter;stroke-opacity:1"/>
<path class="bond-5 atom-5 atom-6" d="M 926.5,679.7 L 983.1,719.5" style="fill:none;fill-rule:evenodd;stroke:#191919;stroke-width:2.0px;stroke-linecap:butt;stroke-linejoin:miter;stroke-opacity:1"/>
<path class="bond-6 atom-5 atom-7" d="M 880.8,647.6 L 887.0,578.2" style="fill:none;fill-rule:evenodd;stroke:#000000;stroke-width:2.0px;stroke-linecap:butt;stroke-linejoin:miter;stroke-opacity:1"/>
<path class="bond-6 atom-5 atom-7" d="M 887.0,578.2 L 893.1,508.9" style="fill:none;fill-rule:evenodd;stroke:#FF0000;stroke-width:2.0px;stroke-linecap:butt;stroke-linejoin:miter;stroke-opacity:1"/>
<path class="bond-6 atom-5 atom-7" d="M 858.0,645.6 L 864.2,576.2" style="fill:none;fill-rule:evenodd;stroke:#000000;stroke-width:2.0px;stroke-linecap:butt;stroke-linejoin:miter;stroke-opacity:1"/>
<path class="bond-6 atom-5 atom-7" d="M 864.2,576.2 L 870.3,506.8" style="fill:none;fill-rule:evenodd;stroke:#FF0000;stroke-width:2.0px;stroke-linecap:butt;stroke-linejoin:miter;stroke-opacity:1"/>
<path d="M 465.7,679.0 L 468.4,680.9 L 475.3,677.7" style="fill:none;stroke:#000000;stroke-width:2.0px;stroke-linecap:butt;stroke-linejoin:miter;stroke-opacity:1;"/>
<path d="M 599.8,619.8 L 606.8,616.6 L 613.0,621.0" style="fill:none;stroke:#000000;stroke-width:2.0px;stroke-linecap:butt;stroke-linejoin:miter;stroke-opacity:1;"/>
<path d="M 725.4,699.9 L 731.6,704.3 L 738.5,701.1" style="fill:none;stroke:#000000;stroke-width:2.0px;stroke-linecap:butt;stroke-linejoin:miter;stroke-opacity:1;"/>
<path d="M 863.1,643.2 L 870.0,640.0 L 872.8,642.0" style="fill:none;stroke:#000000;stroke-width:2.0px;stroke-linecap:butt;stroke-linejoin:miter;stroke-opacity:1;"/>
<path class="atom-0" d="M 199.8 654.4 L 204.0 650.1 L 198.5 649.0 L 199.3 646.2 L 204.4 648.7 L 203.7 643.2 L 206.7 643.1 L 205.8 648.7 L 211.0 646.3 L 211.9 649.0 L 206.3 650.0 L 210.3 654.3 L 207.8 656.1 L 205.1 650.8 L 202.3 656.1 L 199.8 654.4 " fill="#191919"/>
<path class="atom-1" d="M 330.5 593.3 Q 330.5 586.5, 333.9 582.7 Q 337.2 578.9, 343.5 578.9 Q 349.8 578.9, 353.2 582.7 Q 356.5 586.5, 356.5 593.3 Q 356.5 600.2, 353.1 604.1 Q 349.7 608.0, 343.5 608.0 Q 337.3 608.0, 333.9 604.1 Q 330.5 600.2, 330.5 593.3 M 343.5 604.8 Q 347.8 604.8, 350.2 601.9 Q 352.5 599.0, 352.5 593.3 Q 352.5 587.8, 350.2 585.0 Q 347.8 582.1, 343.5 582.1 Q 339.2 582.1, 336.8 584.9 Q 334.5 587.7, 334.5 593.3 Q 334.5 599.0, 336.8 601.9 Q 339.2 604.8, 343.5 604.8 " fill="#FF0000"/>
<path class="atom-6" d="M 989.5 724.5 L 993.7 720.3 L 988.1 719.2 L 989.0 716.3 L 994.1 718.9 L 993.3 713.3 L 996.3 713.3 L 995.5 718.9 L 1000.7 716.5 L 1001.5 719.2 L 995.9 720.2 L 999.9 724.5 L 997.5 726.3 L 994.7 721.0 L 991.9 726.3 L 989.5 724.5 " fill="#191919"/>
<path class="atom-7" d="M 870.5 488.1 Q 870.5 481.3, 873.8 477.5 Q 877.2 473.7, 883.5 473.7 Q 889.8 473.7, 893.1 477.5 Q 896.5 481.3, 896.5 488.1 Q 896.5 495.0, 893.1 498.9 Q 889.7 502.8, 883.5 502.8 Q 877.2 502.8, 873.8 498.9 Q 870.5 495.1, 870.5 488.1 M 883.5 499.6 Q 887.8 499.6, 890.1 496.7 Q 892.5 493.8, 892.5 488.1 Q 892.5 482.6, 890.1 479.8 Q 887.8 476.9, 883.5 476.9 Q 879.2 476.9, 876.8 479.7 Q 874.5 482.5, 874.5 488.1 Q 874.5 493.9, 876.8 496.7 Q 879.2 499.6, 883.5 499.6 " fill="#FF0000"/>
</svg>