<svg xmlns="http://www.w3.org/2000/svg" xmlns:rdkit="http://www.rdkit.org/xml" xmlns:xlink="http://www.w3.org/1999/xlink" version="1.1" baseProfile="full" xml:space="preserve" width="1200px" height="800px" viewBox="0 0 1200 800">
<!-- END OF HEADER -->
<rect style="opacity:1.0;fill:#FFFFFF;stroke:none" width="1200.0" height="800.0" x="0.0" y="0.0"> </rect>
<path class="bond-0 atom-0 atom-1" d="M 597.0,25.9 L 581.6,34.4" style="fill:none;fill-rule:evenodd;stroke:#191919;stroke-width:2.0px;stroke-linecap:butt;stroke-linejoin:miter;stroke-opacity:1"/>
<path class="bond-0 atom-0 atom-1" d="M 581.6,34.4 L 566.2,42.8" style="fill:none;fill-rule:evenodd;stroke:#000000;stroke-width:2.0px;stroke-linecap:butt;stroke-linejoin:miter;stroke-opacity:1"/>
<path class="bond-1 atom-1 atom-2" d="M 566.2,42.8 L 565.4,79.3" style="fill:none;fill-rule:evenodd;stroke:#000000;stroke-width:2.0px;stroke-linecap:butt;stroke-linejoin:miter;stroke-opacity:1"/>
<path class="bond-2 atom-2 atom-3" d="M 565.4,79.3 L 565.1,94.4" style="fill:none;fill-rule:evenodd;stroke:#000000;stroke-width:2.0px;stroke-linecap:butt;stroke-linejoin:miter;stroke-opacity:1"/>
<path class="bond-2 atom-2 atom-3" d="M 565.1,94.4 L 564.7,109.4" style="fill:none;fill-rule:evenodd;stroke:#191919;stroke-width:2.0px;stroke-linecap:butt;stroke-linejoin:miter;stroke-opacity:1"/>
<path class="bond-3 atom-2 atom-4" d="M 565.4,79.3 L 528.9,78.5" style="fill:none;fill-rule:evenodd;stroke:#000000;stroke-width:2.0px;stroke-linecap:butt;stroke-linejoin:miter;stroke-opacity:1"/>
<path class="bond-4 atom-4 atom-5" d="M 528.9,78.5 L 509.9,109.7" style="fill:none;fill-rule:evenodd;stroke:#000000;stroke-width:2.0px;stroke-linecap:butt;stroke-linejoin:miter;stroke-opacity:1"/>
<path class="bond-5 atom-5 atom-6" d="M 506.8,109.7 L 514.2,123.2" style="fill:none;fill-rule:evenodd;stroke:#000000;stroke-width:2.0px;stroke-linecap:butt;stroke-linejoin:miter;stroke-opacity:1"/>
<path class="bond-5 atom-5 atom-6" d="M 514.2,123.2 L 521.6,136.6" style="fill:none;fill-rule:evenodd;stroke:#FF0000;stroke-width:2.0px;stroke-linecap:butt;stroke-linejoin:miter;stroke-opacity:1"/>
<path class="bond-5 atom-5 atom-6" d="M 511.6,107.0 L 519.0,120.5" style="fill:none;fill-rule:evenodd;stroke:#000000;stroke-width:2.0px;stroke-linecap:butt;stroke-linejoin:miter;stroke-opacity:1"/>
<path class="bond-5 atom-5 atom-6" d="M 519.0,120.5 L 526.4,134.0" style="fill:none;fill-rule:evenodd;stroke:#FF0000;stroke-width:2.0px;stroke-linecap:butt;stroke-linejoin:miter;stroke-opacity:1"/>
<path class="bond-6 atom-5 atom-7" d="M 509.9,109.7 L 494.7,109.4" style="fill:none;fill-rule:evenodd;stroke:#000000;stroke-width:2.0px;stroke-linecap:butt;stroke-linejoin:miter;stroke-opacity:1"/>
<path class="bond-6 atom-5 atom-7" d="M 494.7,109.4 L 479.4,109.1" style="fill:none;fill-rule:evenodd;stroke:#FF0000;stroke-width:2.0px;stroke-linecap:butt;stroke-linejoin:miter;stroke-opacity:1"/>
<path class="bond-7 atom-7 atom-8" d="M 469.4,115.5 L 462.0,127.8" style="fill:none;fill-rule:evenodd;stroke:#FF0000;stroke-width:2.0px;stroke-linecap:butt;stroke-linejoin:miter;stroke-opacity:1"/>
<path class="bond-7 atom-7 atom-8" d="M 462.0,127.8 L 454.5,140.2" style="fill:none;fill-rule:evenodd;stroke:#000000;stroke-width:2.0px;stroke-linecap:butt;stroke-linejoin:miter;stroke-opacity:1"/>
<path class="bond-8 atom-8 atom-9" d="M 454.5,140.2 L 468.6,173.8" style="fill:none;fill-rule:evenodd;stroke:#000000;stroke-width:2.0px;stroke-linecap:butt;stroke-linejoin:miter;stroke-opacity:1"/>
<path class="bond-8 atom-8 atom-9" d="M 451.0,145.9 L 462.0,172.3" style="fill:none;fill-rule:evenodd;stroke:#000000;stroke-width:2.0px;stroke-linecap:butt;stroke-linejoin:miter;stroke-opacity:1"/>
<path class="bond-9 atom-9 atom-10" d="M 468.6,173.8 L 457.3,183.5" style="fill:none;fill-rule:evenodd;stroke:#000000;stroke-width:2.0px;stroke-linecap:butt;stroke-linejoin:miter;stroke-opacity:1"/>
<path class="bond-9 atom-9 atom-10" d="M 457.3,183.5 L 446.1,193.3" style="fill:none;fill-rule:evenodd;stroke:#0000FF;stroke-width:2.0px;stroke-linecap:butt;stroke-linejoin:miter;stroke-opacity:1"/>
<path class="bond-10 atom-10 atom-11" d="M 441.5,204.0 L 442.7,219.1" style="fill:none;fill-rule:evenodd;stroke:#0000FF;stroke-width:2.0px;stroke-linecap:butt;stroke-linejoin:miter;stroke-opacity:1"/>
<path class="bond-10 atom-10 atom-11" d="M 442.7,219.1 L 444.0,234.1" style="fill:none;fill-rule:evenodd;stroke:#000000;stroke-width:2.0px;stroke-linecap:butt;stroke-linejoin:miter;stroke-opacity:1"/>
<path class="bond-11 atom-11 atom-12" d="M 444.0,234.1 L 414.0,254.9" style="fill:none;fill-rule:evenodd;stroke:#000000;stroke-width:2.0px;stroke-linecap:butt;stroke-linejoin:miter;stroke-opacity:1"/>
<path class="bond-12 atom-12 atom-13" d="M 414.0,254.9 L 417.0,291.3" style="fill:none;fill-rule:evenodd;stroke:#000000;stroke-width:2.0px;stroke-linecap:butt;stroke-linejoin:miter;stroke-opacity:1"/>
<path class="bond-13 atom-13 atom-14" d="M 417.0,291.3 L 430.3,299.4" style="fill:none;fill-rule:evenodd;stroke:#000000;stroke-width:2.0px;stroke-linecap:butt;stroke-linejoin:miter;stroke-opacity:1"/>
<path class="bond-13 atom-13 atom-14" d="M 430.3,299.4 L 443.7,307.5" style="fill:none;fill-rule:evenodd;stroke:#CCCC00;stroke-width:2.0px;stroke-linecap:butt;stroke-linejoin:miter;stroke-opacity:1"/>
<path class="bond-14 atom-14 atom-15" d="M 446.6,316.9 L 443.2,331.3" style="fill:none;fill-rule:evenodd;stroke:#CCCC00;stroke-width:2.0px;stroke-linecap:butt;stroke-linejoin:miter;stroke-opacity:1"/>
<path class="bond-14 atom-14 atom-15" d="M 443.2,331.3 L 439.8,345.8" style="fill:none;fill-rule:evenodd;stroke:#000000;stroke-width:2.0px;stroke-linecap:butt;stroke-linejoin:miter;stroke-opacity:1"/>
<path class="bond-15 atom-15 atom-16" d="M 439.8,345.8 L 427.4,346.8" style="fill:none;fill-rule:evenodd;stroke:#000000;stroke-width:2.0px;stroke-linecap:butt;stroke-linejoin:miter;stroke-opacity:1"/>
<path class="bond-15 atom-15 atom-16" d="M 427.4,346.8 L 415.0,347.8" style="fill:none;fill-rule:evenodd;stroke:#0000FF;stroke-width:2.0px;stroke-linecap:butt;stroke-linejoin:miter;stroke-opacity:1"/>
<path class="bond-15 atom-15 atom-16" d="M 435.4,340.6 L 425.0,341.5" style="fill:none;fill-rule:evenodd;stroke:#000000;stroke-width:2.0px;stroke-linecap:butt;stroke-linejoin:miter;stroke-opacity:1"/>
<path class="bond-15 atom-15 atom-16" d="M 425.0,341.5 L 414.5,342.4" style="fill:none;fill-rule:evenodd;stroke:#0000FF;stroke-width:2.0px;stroke-linecap:butt;stroke-linejoin:miter;stroke-opacity:1"/>
<path class="bond-16 atom-16 atom-17" d="M 399.6,355.2 L 392.0,367.6" style="fill:none;fill-rule:evenodd;stroke:#0000FF;stroke-width:2.0px;stroke-linecap:butt;stroke-linejoin:miter;stroke-opacity:1"/>
<path class="bond-16 atom-16 atom-17" d="M 392.0,367.6 L 384.5,380.0" style="fill:none;fill-rule:evenodd;stroke:#000000;stroke-width:2.0px;stroke-linecap:butt;stroke-linejoin:miter;stroke-opacity:1"/>
<path class="bond-17 atom-16 atom-18" d="M 400.7,342.4 L 395.0,328.8" style="fill:none;fill-rule:evenodd;stroke:#0000FF;stroke-width:2.0px;stroke-linecap:butt;stroke-linejoin:miter;stroke-opacity:1"/>
<path class="bond-17 atom-16 atom-18" d="M 395.0,328.8 L 389.3,315.1" style="fill:none;fill-rule:evenodd;stroke:#000000;stroke-width:2.0px;stroke-linecap:butt;stroke-linejoin:miter;stroke-opacity:1"/>
<path class="bond-18 atom-18 atom-19" d="M 389.3,315.1 L 353.8,306.7" style="fill:none;fill-rule:evenodd;stroke:#000000;stroke-width:2.0px;stroke-linecap:butt;stroke-linejoin:miter;stroke-opacity:1"/>
<path class="bond-19 atom-10 atom-20" d="M 435.8,194.6 L 414.8,181.8" style="fill:none;fill-rule:evenodd;stroke:#0000FF;stroke-width:2.0px;stroke-linecap:butt;stroke-linejoin:miter;stroke-opacity:1"/>
<path class="bond-20 atom-20 atom-21" d="M 411.2,172.3 L 416.6,149.6" style="fill:none;fill-rule:evenodd;stroke:#0000FF;stroke-width:2.0px;stroke-linecap:butt;stroke-linejoin:miter;stroke-opacity:1"/>
<path class="bond-20 atom-20 atom-21" d="M 416.6,173.6 L 421.9,150.8" style="fill:none;fill-rule:evenodd;stroke:#0000FF;stroke-width:2.0px;stroke-linecap:butt;stroke-linejoin:miter;stroke-opacity:1"/>
<path class="bond-21 atom-21 atom-22" d="M 413.0,137.2 L 403.6,126.4" style="fill:none;fill-rule:evenodd;stroke:#0000FF;stroke-width:2.0px;stroke-linecap:butt;stroke-linejoin:miter;stroke-opacity:1"/>
<path class="bond-21 atom-21 atom-22" d="M 403.6,126.4 L 394.3,115.5" style="fill:none;fill-rule:evenodd;stroke:#000000;stroke-width:2.0px;stroke-linecap:butt;stroke-linejoin:miter;stroke-opacity:1"/>
<path class="bond-22 atom-2 atom-23" d="M 565.4,79.3 L 601.9,80.1" style="fill:none;fill-rule:evenodd;stroke:#000000;stroke-width:2.0px;stroke-linecap:butt;stroke-linejoin:miter;stroke-opacity:1"/>
<path class="bond-23 atom-23 atom-24" d="M 603.4,82.9 L 611.3,69.9" style="fill:none;fill-rule:evenodd;stroke:#000000;stroke-width:2.0px;stroke-linecap:butt;stroke-linejoin:miter;stroke-opacity:1"/>
<path class="bond-23 atom-23 atom-24" d="M 611.3,69.9 L 619.2,56.9" style="fill:none;fill-rule:evenodd;stroke:#FF0000;stroke-width:2.0px;stroke-linecap:butt;stroke-linejoin:miter;stroke-opacity:1"/>
<path class="bond-23 atom-23 atom-24" d="M 598.8,80.1 L 606.6,67.1" style="fill:none;fill-rule:evenodd;stroke:#000000;stroke-width:2.0px;stroke-linecap:butt;stroke-linejoin:miter;stroke-opacity:1"/>
<path class="bond-23 atom-23 atom-24" d="M 606.6,67.1 L 614.5,54.1" style="fill:none;fill-rule:evenodd;stroke:#FF0000;stroke-width:2.0px;stroke-linecap:butt;stroke-linejoin:miter;stroke-opacity:1"/>
<path class="bond-24 atom-23 atom-25" d="M 601.9,80.1 L 608.9,92.9" style="fill:none;fill-rule:evenodd;stroke:#000000;stroke-width:2.0px;stroke-linecap:butt;stroke-linejoin:miter;stroke-opacity:1"/>
<path class="bond-24 atom-23 atom-25" d="M 608.9,92.9 L 615.9,105.7" style="fill:none;fill-rule:evenodd;stroke:#FF0000;stroke-width:2.0px;stroke-linecap:butt;stroke-linejoin:miter;stroke-opacity:1"/>
<path class="bond-25 atom-25 atom-26" d="M 625.4,112.3 L 640.7,112.6" style="fill:none;fill-rule:evenodd;stroke:#FF0000;stroke-width:2.0px;stroke-linecap:butt;stroke-linejoin:miter;stroke-opacity:1"/>
<path class="bond-25 atom-25 atom-26" d="M 640.7,112.6 L 656.0,112.9" style="fill:none;fill-rule:evenodd;stroke:#000000;stroke-width:2.0px;stroke-linecap:butt;stroke-linejoin:miter;stroke-opacity:1"/>
<path class="bond-26 atom-26 atom-27" d="M 656.0,112.9 L 673.5,145.0" style="fill:none;fill-rule:evenodd;stroke:#000000;stroke-width:2.0px;stroke-linecap:butt;stroke-linejoin:miter;stroke-opacity:1"/>
<path class="bond-27 atom-27 atom-28" d="M 673.5,145.0 L 709.8,149.6" style="fill:none;fill-rule:evenodd;stroke:#000000;stroke-width:2.0px;stroke-linecap:butt;stroke-linejoin:miter;stroke-opacity:1"/>
<path class="bond-27 atom-27 atom-28" d="M 676.8,150.9 L 705.1,154.5" style="fill:none;fill-rule:evenodd;stroke:#000000;stroke-width:2.0px;stroke-linecap:butt;stroke-linejoin:miter;stroke-opacity:1"/>
<path class="bond-28 atom-28 atom-29" d="M 709.8,149.6 L 712.6,164.3" style="fill:none;fill-rule:evenodd;stroke:#000000;stroke-width:2.0px;stroke-linecap:butt;stroke-linejoin:miter;stroke-opacity:1"/>
<path class="bond-28 atom-28 atom-29" d="M 712.6,164.3 L 715.4,179.1" style="fill:none;fill-rule:evenodd;stroke:#0000FF;stroke-width:2.0px;stroke-linecap:butt;stroke-linejoin:miter;stroke-opacity:1"/>
<path class="bond-29 atom-29 atom-30" d="M 721.7,187.9 L 735.7,194.5" style="fill:none;fill-rule:evenodd;stroke:#0000FF;stroke-width:2.0px;stroke-linecap:butt;stroke-linejoin:miter;stroke-opacity:1"/>
<path class="bond-29 atom-29 atom-30" d="M 735.7,194.5 L 749.6,201.0" style="fill:none;fill-rule:evenodd;stroke:#000000;stroke-width:2.0px;stroke-linecap:butt;stroke-linejoin:miter;stroke-opacity:1"/>
<path class="bond-30 atom-30 atom-31" d="M 749.6,201.0 L 752.6,237.4" style="fill:none;fill-rule:evenodd;stroke:#000000;stroke-width:2.0px;stroke-linecap:butt;stroke-linejoin:miter;stroke-opacity:1"/>
<path class="bond-31 atom-31 atom-32" d="M 752.6,237.4 L 785.6,253.0" style="fill:none;fill-rule:evenodd;stroke:#000000;stroke-width:2.0px;stroke-linecap:butt;stroke-linejoin:miter;stroke-opacity:1"/>
<path class="bond-32 atom-32 atom-33" d="M 785.6,253.0 L 799.4,245.5" style="fill:none;fill-rule:evenodd;stroke:#000000;stroke-width:2.0px;stroke-linecap:butt;stroke-linejoin:miter;stroke-opacity:1"/>
<path class="bond-32 atom-32 atom-33" d="M 799.4,245.5 L 813.1,237.9" style="fill:none;fill-rule:evenodd;stroke:#CCCC00;stroke-width:2.0px;stroke-linecap:butt;stroke-linejoin:miter;stroke-opacity:1"/>
<path class="bond-33 atom-33 atom-34" d="M 822.2,239.7 L 833.2,250.1" style="fill:none;fill-rule:evenodd;stroke:#CCCC00;stroke-width:2.0px;stroke-linecap:butt;stroke-linejoin:miter;stroke-opacity:1"/>
<path class="bond-33 atom-33 atom-34" d="M 833.2,250.1 L 844.3,260.5" style="fill:none;fill-rule:evenodd;stroke:#000000;stroke-width:2.0px;stroke-linecap:butt;stroke-linejoin:miter;stroke-opacity:1"/>
<path class="bond-34 atom-34 atom-35" d="M 844.3,260.5 L 838.0,273.8" style="fill:none;fill-rule:evenodd;stroke:#000000;stroke-width:2.0px;stroke-linecap:butt;stroke-linejoin:miter;stroke-opacity:1"/>
<path class="bond-34 atom-34 atom-35" d="M 838.0,273.8 L 831.7,287.1" style="fill:none;fill-rule:evenodd;stroke:#0000FF;stroke-width:2.0px;stroke-linecap:butt;stroke-linejoin:miter;stroke-opacity:1"/>
<path class="bond-34 atom-34 atom-35" d="M 837.6,261.7 L 832.2,273.3" style="fill:none;fill-rule:evenodd;stroke:#000000;stroke-width:2.0px;stroke-linecap:butt;stroke-linejoin:miter;stroke-opacity:1"/>
<path class="bond-34 atom-34 atom-35" d="M 832.2,273.3 L 826.7,284.8" style="fill:none;fill-rule:evenodd;stroke:#0000FF;stroke-width:2.0px;stroke-linecap:butt;stroke-linejoin:miter;stroke-opacity:1"/>
<path class="bond-35 atom-35 atom-36" d="M 832.2,299.9 L 839.2,312.7" style="fill:none;fill-rule:evenodd;stroke:#0000FF;stroke-width:2.0px;stroke-linecap:butt;stroke-linejoin:miter;stroke-opacity:1"/>
<path class="bond-35 atom-35 atom-36" d="M 839.2,312.7 L 846.2,325.5" style="fill:none;fill-rule:evenodd;stroke:#000000;stroke-width:2.0px;stroke-linecap:butt;stroke-linejoin:miter;stroke-opacity:1"/>
<path class="bond-36 atom-35 atom-37" d="M 823.6,292.9 L 808.0,290.9" style="fill:none;fill-rule:evenodd;stroke:#0000FF;stroke-width:2.0px;stroke-linecap:butt;stroke-linejoin:miter;stroke-opacity:1"/>
<path class="bond-36 atom-35 atom-37" d="M 808.0,290.9 L 792.5,288.9" style="fill:none;fill-rule:evenodd;stroke:#000000;stroke-width:2.0px;stroke-linecap:butt;stroke-linejoin:miter;stroke-opacity:1"/>
<path class="bond-37 atom-37 atom-38" d="M 792.5,288.9 L 767.4,315.5" style="fill:none;fill-rule:evenodd;stroke:#000000;stroke-width:2.0px;stroke-linecap:butt;stroke-linejoin:miter;stroke-opacity:1"/>
<path class="bond-38 atom-29 atom-39" d="M 711.4,188.3 L 689.7,200.2" style="fill:none;fill-rule:evenodd;stroke:#0000FF;stroke-width:2.0px;stroke-linecap:butt;stroke-linejoin:miter;stroke-opacity:1"/>
<path class="bond-39 atom-39 atom-40" d="M 679.4,198.2 L 663.1,182.8" style="fill:none;fill-rule:evenodd;stroke:#0000FF;stroke-width:2.0px;stroke-linecap:butt;stroke-linejoin:miter;stroke-opacity:1"/>
<path class="bond-39 atom-39 atom-40" d="M 683.2,194.2 L 666.8,178.8" style="fill:none;fill-rule:evenodd;stroke:#0000FF;stroke-width:2.0px;stroke-linecap:butt;stroke-linejoin:miter;stroke-opacity:1"/>
<path class="bond-40 atom-40 atom-41" d="M 652.8,179.0 L 637.5,181.9" style="fill:none;fill-rule:evenodd;stroke:#0000FF;stroke-width:2.0px;stroke-linecap:butt;stroke-linejoin:miter;stroke-opacity:1"/>
<path class="bond-40 atom-40 atom-41" d="M 637.5,181.9 L 622.1,184.8" style="fill:none;fill-rule:evenodd;stroke:#000000;stroke-width:2.0px;stroke-linecap:butt;stroke-linejoin:miter;stroke-opacity:1"/>
<path class="bond-41 atom-21 atom-8" d="M 429.7,142.2 L 442.1,141.2" style="fill:none;fill-rule:evenodd;stroke:#0000FF;stroke-width:2.0px;stroke-linecap:butt;stroke-linejoin:miter;stroke-opacity:1"/>
<path class="bond-41 atom-21 atom-8" d="M 442.1,141.2 L 454.5,140.2" style="fill:none;fill-rule:evenodd;stroke:#000000;stroke-width:2.0px;stroke-linecap:butt;stroke-linejoin:miter;stroke-opacity:1"/>
<path class="bond-42 atom-40 atom-27" d="M 661.0,171.6 L 667.3,158.3" style="fill:none;fill-rule:evenodd;stroke:#0000FF;stroke-width:2.0px;stroke-linecap:butt;stroke-linejoin:miter;stroke-opacity:1"/>
<path class="bond-42 atom-40 atom-27" d="M 667.3,158.3 L 673.5,145.0" style="fill:none;fill-rule:evenodd;stroke:#000000;stroke-width:2.0px;stroke-linecap:butt;stroke-linejoin:miter;stroke-opacity:1"/>
<path class="bond-43 atom-18 atom-13" d="M 389.3,315.1 L 417.0,291.3" style="fill:none;fill-rule:evenodd;stroke:#000000;stroke-width:2.0px;stroke-linecap:butt;stroke-linejoin:miter;stroke-opacity:1"/>
<path class="bond-43 atom-18 atom-13" d="M 395.9,316.7 L 417.5,298.0" style="fill:none;fill-rule:evenodd;stroke:#000000;stroke-width:2.0px;stroke-linecap:butt;stroke-linejoin:miter;stroke-opacity:1"/>
<path class="bond-44 atom-37 atom-32" d="M 792.5,288.9 L 785.6,253.0" style="fill:none;fill-rule:evenodd;stroke:#000000;stroke-width:2.0px;stroke-linecap:butt;stroke-linejoin:miter;stroke-opacity:1"/>
<path class="bond-44 atom-37 atom-32" d="M 797.1,284.0 L 791.8,255.9" style="fill:none;fill-rule:evenodd;stroke:#000000;stroke-width:2.0px;stroke-linecap:butt;stroke-linejoin:miter;stroke-opacity:1"/>
<path d="M 567.0,42.4 L 566.2,42.8 L 566.2,44.6" style="fill:none;stroke:#000000;stroke-width:2.0px;stroke-linecap:butt;stroke-linejoin:miter;stroke-opacity:1;"/>
<path d="M 530.7,78.6 L 528.9,78.5 L 527.9,80.1" style="fill:none;stroke:#000000;stroke-width:2.0px;stroke-linecap:butt;stroke-linejoin:miter;stroke-opacity:1;"/>
<path d="M 510.9,108.2 L 509.9,109.7 L 509.2,109.7" style="fill:none;stroke:#000000;stroke-width:2.0px;stroke-linecap:butt;stroke-linejoin:miter;stroke-opacity:1;"/>
<path d="M 467.9,172.2 L 468.6,173.8 L 468.0,174.3" style="fill:none;stroke:#000000;stroke-width:2.0px;stroke-linecap:butt;stroke-linejoin:miter;stroke-opacity:1;"/>
<path d="M 443.9,233.3 L 444.0,234.1 L 442.5,235.1" style="fill:none;stroke:#000000;stroke-width:2.0px;stroke-linecap:butt;stroke-linejoin:miter;stroke-opacity:1;"/>
<path d="M 415.5,253.8 L 414.0,254.9 L 414.1,256.7" style="fill:none;stroke:#000000;stroke-width:2.0px;stroke-linecap:butt;stroke-linejoin:miter;stroke-opacity:1;"/>
<path d="M 440.0,345.0 L 439.8,345.8 L 439.2,345.8" style="fill:none;stroke:#000000;stroke-width:2.0px;stroke-linecap:butt;stroke-linejoin:miter;stroke-opacity:1;"/>
<path d="M 600.1,80.1 L 601.9,80.1 L 602.3,80.8" style="fill:none;stroke:#000000;stroke-width:2.0px;stroke-linecap:butt;stroke-linejoin:miter;stroke-opacity:1;"/>
<path d="M 655.2,112.9 L 656.0,112.9 L 656.9,114.5" style="fill:none;stroke:#000000;stroke-width:2.0px;stroke-linecap:butt;stroke-linejoin:miter;stroke-opacity:1;"/>
<path d="M 708.0,149.3 L 709.8,149.6 L 709.9,150.3" style="fill:none;stroke:#000000;stroke-width:2.0px;stroke-linecap:butt;stroke-linejoin:miter;stroke-opacity:1;"/>
<path d="M 748.9,200.7 L 749.6,201.0 L 749.8,202.9" style="fill:none;stroke:#000000;stroke-width:2.0px;stroke-linecap:butt;stroke-linejoin:miter;stroke-opacity:1;"/>
<path d="M 752.5,235.6 L 752.6,237.4 L 754.3,238.2" style="fill:none;stroke:#000000;stroke-width:2.0px;stroke-linecap:butt;stroke-linejoin:miter;stroke-opacity:1;"/>
<path d="M 843.7,260.0 L 844.3,260.5 L 843.9,261.1" style="fill:none;stroke:#000000;stroke-width:2.0px;stroke-linecap:butt;stroke-linejoin:miter;stroke-opacity:1;"/>
<path class="atom-0" d="M 596.3 24.1 L 597.8 22.6 L 595.8 22.1 L 596.1 21.1 L 597.9 22.0 L 597.7 20.0 L 598.8 20.0 L 598.5 22.0 L 600.3 21.2 L 600.7 22.1 L 598.6 22.5 L 600.1 24.1 L 599.2 24.7 L 598.2 22.8 L 597.2 24.7 L 596.3 24.1 " fill="#191919"/>
<path class="atom-3" d="M 562.7 114.7 L 564.2 113.1 L 562.2 112.7 L 562.5 111.7 L 564.3 112.6 L 564.1 110.6 L 565.1 110.6 L 564.8 112.6 L 566.7 111.7 L 567.0 112.7 L 565.0 113.1 L 566.5 114.7 L 565.6 115.3 L 564.6 113.4 L 563.5 115.3 L 562.7 114.7 " fill="#191919"/>
<path class="atom-6" d="M 522.8 141.8 Q 522.8 139.3, 524.0 137.9 Q 525.2 136.5, 527.5 136.5 Q 529.8 136.5, 531.0 137.9 Q 532.3 139.3, 532.3 141.8 Q 532.3 144.3, 531.0 145.7 Q 529.8 147.2, 527.5 147.2 Q 525.2 147.2, 524.0 145.7 Q 522.8 144.3, 522.8 141.8 M 527.5 146.0 Q 529.1 146.0, 529.9 144.9 Q 530.8 143.9, 530.8 141.8 Q 530.8 139.8, 529.9 138.7 Q 529.1 137.7, 527.5 137.7 Q 525.9 137.7, 525.1 138.7 Q 524.2 139.7, 524.2 141.8 Q 524.2 143.9, 525.1 144.9 Q 525.9 146.0, 527.5 146.0 " fill="#FF0000"/>
<path class="atom-7" d="M 468.7 109.0 Q 468.7 106.5, 469.9 105.1 Q 471.1 103.7, 473.4 103.7 Q 475.7 103.7, 477.0 105.1 Q 478.2 106.5, 478.2 109.0 Q 478.2 111.5, 476.9 112.9 Q 475.7 114.3, 473.4 114.3 Q 471.2 114.3, 469.9 112.9 Q 468.7 111.5, 468.7 109.0 M 473.4 113.2 Q 475.0 113.2, 475.9 112.1 Q 476.7 111.0, 476.7 109.0 Q 476.7 106.9, 475.9 105.9 Q 475.0 104.9, 473.4 104.9 Q 471.9 104.9, 471.0 105.9 Q 470.2 106.9, 470.2 109.0 Q 470.2 111.1, 471.0 112.1 Q 471.9 113.2, 473.4 113.2 " fill="#FF0000"/>
<path class="atom-10" d="M 438.7 192.5 L 442.0 198.0 Q 442.4 198.5, 442.9 199.5 Q 443.5 200.5, 443.5 200.5 L 443.5 192.5 L 444.9 192.5 L 444.9 202.8 L 443.4 202.8 L 439.8 196.9 Q 439.4 196.2, 438.9 195.4 Q 438.5 194.5, 438.4 194.3 L 438.4 202.8 L 437.0 202.8 L 437.0 192.5 L 438.7 192.5 " fill="#0000FF"/>
<path class="atom-14" d="M 445.3 313.8 Q 445.4 313.8, 445.9 314.0 Q 446.3 314.2, 446.9 314.4 Q 447.4 314.5, 447.9 314.5 Q 448.9 314.5, 449.5 314.0 Q 450.1 313.5, 450.1 312.7 Q 450.1 312.1, 449.8 311.8 Q 449.5 311.4, 449.0 311.2 Q 448.6 311.0, 447.9 310.8 Q 447.0 310.5, 446.4 310.3 Q 445.9 310.0, 445.5 309.5 Q 445.1 308.9, 445.1 308.0 Q 445.1 306.7, 446.0 305.9 Q 446.9 305.1, 448.6 305.1 Q 449.8 305.1, 451.2 305.6 L 450.8 306.8 Q 449.6 306.2, 448.7 306.2 Q 447.6 306.2, 447.1 306.7 Q 446.5 307.1, 446.6 307.8 Q 446.6 308.3, 446.8 308.7 Q 447.1 309.0, 447.5 309.2 Q 448.0 309.4, 448.7 309.6 Q 449.6 309.9, 450.1 310.2 Q 450.7 310.5, 451.1 311.1 Q 451.5 311.7, 451.5 312.7 Q 451.5 314.1, 450.5 314.9 Q 449.6 315.7, 448.0 315.7 Q 447.1 315.7, 446.4 315.4 Q 445.7 315.3, 444.9 314.9 L 445.3 313.8 " fill="#CCCC00"/>
<path class="atom-16" d="M 401.1 343.6 L 404.5 349.1 Q 404.9 349.6, 405.4 350.6 Q 405.9 351.6, 406.0 351.6 L 406.0 343.6 L 407.3 343.6 L 407.3 354.0 L 405.9 354.0 L 402.3 348.0 Q 401.9 347.3, 401.4 346.5 Q 401.0 345.7, 400.8 345.4 L 400.8 354.0 L 399.5 354.0 L 399.5 343.6 L 401.1 343.6 " fill="#0000FF"/>
<path class="atom-16" d="M 409.3 345.5 L 411.1 345.5 L 411.1 343.6 L 411.9 343.6 L 411.9 345.5 L 413.8 345.5 L 413.8 346.2 L 411.9 346.2 L 411.9 348.1 L 411.1 348.1 L 411.1 346.2 L 409.3 346.2 L 409.3 345.5 " fill="#0000FF"/>
<path class="atom-20" d="M 407.4 173.6 L 410.8 179.0 Q 411.2 179.6, 411.7 180.6 Q 412.2 181.5, 412.3 181.6 L 412.3 173.6 L 413.6 173.6 L 413.6 183.9 L 412.2 183.9 L 408.6 177.9 Q 408.2 177.2, 407.7 176.4 Q 407.3 175.6, 407.1 175.4 L 407.1 183.9 L 405.8 183.9 L 405.8 173.6 L 407.4 173.6 " fill="#0000FF"/>
<path class="atom-21" d="M 415.8 138.0 L 419.2 143.5 Q 419.5 144.0, 420.1 145.0 Q 420.6 146.0, 420.6 146.0 L 420.6 138.0 L 422.0 138.0 L 422.0 148.4 L 420.6 148.4 L 417.0 142.4 Q 416.5 141.7, 416.1 140.9 Q 415.6 140.1, 415.5 139.8 L 415.5 148.4 L 414.2 148.4 L 414.2 138.0 L 415.8 138.0 " fill="#0000FF"/>
<path class="atom-21" d="M 424.0 139.9 L 425.8 139.9 L 425.8 138.0 L 426.6 138.0 L 426.6 139.9 L 428.5 139.9 L 428.5 140.6 L 426.6 140.6 L 426.6 142.5 L 425.8 142.5 L 425.8 140.6 L 424.0 140.6 L 424.0 139.9 " fill="#0000FF"/>
<path class="atom-24" d="M 616.1 48.9 Q 616.1 46.5, 617.3 45.1 Q 618.6 43.7, 620.9 43.7 Q 623.2 43.7, 624.4 45.1 Q 625.6 46.5, 625.6 48.9 Q 625.6 51.5, 624.4 52.9 Q 623.1 54.3, 620.9 54.3 Q 618.6 54.3, 617.3 52.9 Q 616.1 51.5, 616.1 48.9 M 620.9 53.1 Q 622.4 53.1, 623.3 52.1 Q 624.1 51.0, 624.1 48.9 Q 624.1 46.9, 623.3 45.9 Q 622.4 44.9, 620.9 44.9 Q 619.3 44.9, 618.4 45.9 Q 617.6 46.9, 617.6 48.9 Q 617.6 51.0, 618.4 52.1 Q 619.3 53.1, 620.9 53.1 " fill="#FF0000"/>
<path class="atom-25" d="M 614.7 112.2 Q 614.7 109.7, 616.0 108.3 Q 617.2 106.9, 619.5 106.9 Q 621.8 106.9, 623.0 108.3 Q 624.2 109.7, 624.2 112.2 Q 624.2 114.7, 623.0 116.1 Q 621.7 117.5, 619.5 117.5 Q 617.2 117.5, 616.0 116.1 Q 614.7 114.7, 614.7 112.2 M 619.5 116.4 Q 621.1 116.4, 621.9 115.3 Q 622.8 114.3, 622.8 112.2 Q 622.8 110.1, 621.9 109.1 Q 621.1 108.1, 619.5 108.1 Q 617.9 108.1, 617.0 109.1 Q 616.2 110.1, 616.2 112.2 Q 616.2 114.3, 617.0 115.3 Q 617.9 116.4, 619.5 116.4 " fill="#FF0000"/>
<path class="atom-29" d="M 714.3 180.3 L 717.7 185.8 Q 718.0 186.3, 718.6 187.3 Q 719.1 188.3, 719.1 188.3 L 719.1 180.3 L 720.5 180.3 L 720.5 190.6 L 719.1 190.6 L 715.4 184.6 Q 715.0 183.9, 714.6 183.1 Q 714.1 182.3, 714.0 182.1 L 714.0 190.6 L 712.7 190.6 L 712.7 180.3 L 714.3 180.3 " fill="#0000FF"/>
<path class="atom-33" d="M 814.7 239.0 Q 814.9 239.0, 815.3 239.3 Q 815.8 239.5, 816.4 239.6 Q 816.9 239.7, 817.4 239.7 Q 818.4 239.7, 819.0 239.2 Q 819.5 238.8, 819.5 237.9 Q 819.5 237.4, 819.2 237.0 Q 819.0 236.7, 818.5 236.5 Q 818.1 236.3, 817.4 236.1 Q 816.4 235.8, 815.9 235.5 Q 815.3 235.2, 814.9 234.7 Q 814.6 234.1, 814.6 233.2 Q 814.6 231.9, 815.4 231.1 Q 816.3 230.3, 818.1 230.3 Q 819.3 230.3, 820.6 230.9 L 820.3 232.0 Q 819.1 231.5, 818.1 231.5 Q 817.1 231.5, 816.6 231.9 Q 816.0 232.3, 816.0 233.0 Q 816.0 233.6, 816.3 233.9 Q 816.6 234.3, 817.0 234.4 Q 817.4 234.6, 818.1 234.9 Q 819.1 235.1, 819.6 235.4 Q 820.2 235.7, 820.6 236.3 Q 821.0 236.9, 821.0 237.9 Q 821.0 239.4, 820.0 240.1 Q 819.1 240.9, 817.5 240.9 Q 816.6 240.9, 815.9 240.7 Q 815.2 240.5, 814.4 240.2 L 814.7 239.0 " fill="#CCCC00"/>
<path class="atom-35" d="M 826.4 288.3 L 829.8 293.8 Q 830.1 294.4, 830.7 295.3 Q 831.2 296.3, 831.2 296.4 L 831.2 288.3 L 832.6 288.3 L 832.6 298.7 L 831.2 298.7 L 827.5 292.7 Q 827.1 292.0, 826.7 291.2 Q 826.2 290.4, 826.1 290.1 L 826.1 298.7 L 824.8 298.7 L 824.8 288.3 L 826.4 288.3 " fill="#0000FF"/>
<path class="atom-35" d="M 834.5 290.2 L 836.4 290.2 L 836.4 288.3 L 837.2 288.3 L 837.2 290.2 L 839.1 290.2 L 839.1 290.9 L 837.2 290.9 L 837.2 292.8 L 836.4 292.8 L 836.4 290.9 L 834.5 290.9 L 834.5 290.2 " fill="#0000FF"/>
<path class="atom-39" d="M 682.3 197.8 L 685.7 203.3 Q 686.0 203.9, 686.5 204.8 Q 687.1 205.8, 687.1 205.9 L 687.1 197.8 L 688.5 197.8 L 688.5 208.2 L 687.1 208.2 L 683.4 202.2 Q 683.0 201.5, 682.5 200.7 Q 682.1 199.9, 682.0 199.6 L 682.0 208.2 L 680.6 208.2 L 680.6 197.8 L 682.3 197.8 " fill="#0000FF"/>
<path class="atom-40" d="M 655.7 172.8 L 659.1 178.3 Q 659.4 178.8, 659.9 179.8 Q 660.5 180.8, 660.5 180.9 L 660.5 172.8 L 661.9 172.8 L 661.9 183.2 L 660.5 183.2 L 656.8 177.2 Q 656.4 176.5, 656.0 175.7 Q 655.5 174.9, 655.4 174.6 L 655.4 183.2 L 654.0 183.2 L 654.0 172.8 L 655.7 172.8 " fill="#0000FF"/>
<path class="atom-40" d="M 663.8 174.7 L 665.7 174.7 L 665.7 172.8 L 666.5 172.8 L 666.5 174.7 L 668.3 174.7 L 668.3 175.4 L 666.5 175.4 L 666.5 177.3 L 665.7 177.3 L 665.7 175.4 L 663.8 175.4 L 663.8 174.7 " fill="#0000FF"/>
<path class="bond-0 atom-0 atom-1" d="M 606.8,544.5 L 619.2,557.2" style="fill:none;fill-rule:evenodd;stroke:#191919;stroke-width:2.0px;stroke-linecap:butt;stroke-linejoin:miter;stroke-opacity:1"/>
<path class="bond-0 atom-0 atom-1" d="M 619.2,557.2 L 631.6,570.0" style="fill:none;fill-rule:evenodd;stroke:#000000;stroke-width:2.0px;stroke-linecap:butt;stroke-linejoin:miter;stroke-opacity:1"/>
<path class="bond-1 atom-1 atom-2" d="M 631.6,570.0 L 621.7,605.1" style="fill:none;fill-rule:evenodd;stroke:#000000;stroke-width:2.0px;stroke-linecap:butt;stroke-linejoin:miter;stroke-opacity:1"/>
<path class="bond-2 atom-2 atom-3" d="M 621.7,605.1 L 617.6,619.5" style="fill:none;fill-rule:evenodd;stroke:#000000;stroke-width:2.0px;stroke-linecap:butt;stroke-linejoin:miter;stroke-opacity:1"/>
<path class="bond-2 atom-2 atom-3" d="M 617.6,619.5 L 613.6,633.8" style="fill:none;fill-rule:evenodd;stroke:#191919;stroke-width:2.0px;stroke-linecap:butt;stroke-linejoin:miter;stroke-opacity:1"/>
<path class="bond-3 atom-2 atom-4" d="M 621.7,605.1 L 586.5,595.2" style="fill:none;fill-rule:evenodd;stroke:#000000;stroke-width:2.0px;stroke-linecap:butt;stroke-linejoin:miter;stroke-opacity:1"/>
<path class="bond-4 atom-4 atom-5" d="M 586.5,595.2 L 560.4,620.7" style="fill:none;fill-rule:evenodd;stroke:#000000;stroke-width:2.0px;stroke-linecap:butt;stroke-linejoin:miter;stroke-opacity:1"/>
<path class="bond-5 atom-5 atom-6" d="M 557.3,619.8 L 561.2,635.1" style="fill:none;fill-rule:evenodd;stroke:#000000;stroke-width:2.0px;stroke-linecap:butt;stroke-linejoin:miter;stroke-opacity:1"/>
<path class="bond-5 atom-5 atom-6" d="M 561.2,635.1 L 565.1,650.3" style="fill:none;fill-rule:evenodd;stroke:#FF0000;stroke-width:2.0px;stroke-linecap:butt;stroke-linejoin:miter;stroke-opacity:1"/>
<path class="bond-5 atom-5 atom-6" d="M 562.6,618.5 L 566.5,633.7" style="fill:none;fill-rule:evenodd;stroke:#000000;stroke-width:2.0px;stroke-linecap:butt;stroke-linejoin:miter;stroke-opacity:1"/>
<path class="bond-5 atom-5 atom-6" d="M 566.5,633.7 L 570.4,649.0" style="fill:none;fill-rule:evenodd;stroke:#FF0000;stroke-width:2.0px;stroke-linecap:butt;stroke-linejoin:miter;stroke-opacity:1"/>
<path class="bond-6 atom-5 atom-7" d="M 560.4,620.7 L 545.8,616.5" style="fill:none;fill-rule:evenodd;stroke:#000000;stroke-width:2.0px;stroke-linecap:butt;stroke-linejoin:miter;stroke-opacity:1"/>
<path class="bond-6 atom-5 atom-7" d="M 545.8,616.5 L 531.2,612.4" style="fill:none;fill-rule:evenodd;stroke:#FF0000;stroke-width:2.0px;stroke-linecap:butt;stroke-linejoin:miter;stroke-opacity:1"/>
<path class="bond-7 atom-7 atom-8" d="M 519.3,616.5 L 509.2,626.4" style="fill:none;fill-rule:evenodd;stroke:#FF0000;stroke-width:2.0px;stroke-linecap:butt;stroke-linejoin:miter;stroke-opacity:1"/>
<path class="bond-7 atom-7 atom-8" d="M 509.2,626.4 L 499.1,636.2" style="fill:none;fill-rule:evenodd;stroke:#000000;stroke-width:2.0px;stroke-linecap:butt;stroke-linejoin:miter;stroke-opacity:1"/>
<path class="bond-8 atom-2 atom-9" d="M 621.7,605.1 L 656.8,615.0" style="fill:none;fill-rule:evenodd;stroke:#000000;stroke-width:2.0px;stroke-linecap:butt;stroke-linejoin:miter;stroke-opacity:1"/>
<path class="bond-9 atom-9 atom-10" d="M 657.6,618.1 L 668.3,607.7" style="fill:none;fill-rule:evenodd;stroke:#000000;stroke-width:2.0px;stroke-linecap:butt;stroke-linejoin:miter;stroke-opacity:1"/>
<path class="bond-9 atom-9 atom-10" d="M 668.3,607.7 L 678.9,597.3" style="fill:none;fill-rule:evenodd;stroke:#FF0000;stroke-width:2.0px;stroke-linecap:butt;stroke-linejoin:miter;stroke-opacity:1"/>
<path class="bond-9 atom-9 atom-10" d="M 653.8,614.2 L 664.5,603.8" style="fill:none;fill-rule:evenodd;stroke:#000000;stroke-width:2.0px;stroke-linecap:butt;stroke-linejoin:miter;stroke-opacity:1"/>
<path class="bond-9 atom-9 atom-10" d="M 664.5,603.8 L 675.1,593.4" style="fill:none;fill-rule:evenodd;stroke:#FF0000;stroke-width:2.0px;stroke-linecap:butt;stroke-linejoin:miter;stroke-opacity:1"/>
<path class="bond-10 atom-9 atom-11" d="M 656.8,615.0 L 660.5,629.5" style="fill:none;fill-rule:evenodd;stroke:#000000;stroke-width:2.0px;stroke-linecap:butt;stroke-linejoin:miter;stroke-opacity:1"/>
<path class="bond-10 atom-9 atom-11" d="M 660.5,629.5 L 664.2,644.0" style="fill:none;fill-rule:evenodd;stroke:#FF0000;stroke-width:2.0px;stroke-linecap:butt;stroke-linejoin:miter;stroke-opacity:1"/>
<path class="bond-11 atom-11 atom-12" d="M 671.8,652.1 L 686.3,656.2" style="fill:none;fill-rule:evenodd;stroke:#FF0000;stroke-width:2.0px;stroke-linecap:butt;stroke-linejoin:miter;stroke-opacity:1"/>
<path class="bond-11 atom-11 atom-12" d="M 686.3,656.2 L 700.9,660.4" style="fill:none;fill-rule:evenodd;stroke:#000000;stroke-width:2.0px;stroke-linecap:butt;stroke-linejoin:miter;stroke-opacity:1"/>
<path d="M 631.0,569.3 L 631.6,570.0 L 631.1,571.7" style="fill:none;stroke:#000000;stroke-width:2.0px;stroke-linecap:butt;stroke-linejoin:miter;stroke-opacity:1;"/>
<path d="M 588.3,595.7 L 586.5,595.2 L 585.2,596.5" style="fill:none;stroke:#000000;stroke-width:2.0px;stroke-linecap:butt;stroke-linejoin:miter;stroke-opacity:1;"/>
<path d="M 561.7,619.4 L 560.4,620.7 L 559.6,620.5" style="fill:none;stroke:#000000;stroke-width:2.0px;stroke-linecap:butt;stroke-linejoin:miter;stroke-opacity:1;"/>
<path d="M 655.1,614.5 L 656.8,615.0 L 657.0,615.8" style="fill:none;stroke:#000000;stroke-width:2.0px;stroke-linecap:butt;stroke-linejoin:miter;stroke-opacity:1;"/>
<path class="atom-0" d="M 604.2 542.7 L 605.7 541.1 L 603.7 540.7 L 604.0 539.7 L 605.8 540.6 L 605.6 538.6 L 606.7 538.5 L 606.4 540.6 L 608.3 539.7 L 608.6 540.7 L 606.5 541.1 L 608.0 542.6 L 607.1 543.3 L 606.1 541.4 L 605.1 543.3 L 604.2 542.7 " fill="#191919"/>
<path class="atom-3" d="M 609.8 639.1 L 611.3 637.6 L 609.3 637.1 L 609.6 636.1 L 611.5 637.0 L 611.2 635.0 L 612.3 635.0 L 612.0 637.0 L 613.9 636.2 L 614.2 637.1 L 612.2 637.5 L 613.6 639.1 L 612.7 639.7 L 611.7 637.8 L 610.7 639.7 L 609.8 639.1 " fill="#191919"/>
<path class="atom-6" d="M 564.6 656.1 Q 564.6 653.6, 565.8 652.2 Q 567.1 650.8, 569.3 650.8 Q 571.6 650.8, 572.9 652.2 Q 574.1 653.6, 574.1 656.1 Q 574.1 658.6, 572.9 660.0 Q 571.6 661.5, 569.3 661.5 Q 567.1 661.5, 565.8 660.0 Q 564.6 658.6, 564.6 656.1 M 569.3 660.3 Q 570.9 660.3, 571.8 659.2 Q 572.6 658.2, 572.6 656.1 Q 572.6 654.1, 571.8 653.0 Q 570.9 652.0, 569.3 652.0 Q 567.8 652.0, 566.9 653.0 Q 566.1 654.0, 566.1 656.1 Q 566.1 658.2, 566.9 659.2 Q 567.8 660.3, 569.3 660.3 " fill="#FF0000"/>
<path class="atom-7" d="M 520.5 610.8 Q 520.5 608.3, 521.7 606.9 Q 522.9 605.5, 525.2 605.5 Q 527.5 605.5, 528.7 606.9 Q 530.0 608.3, 530.0 610.8 Q 530.0 613.3, 528.7 614.7 Q 527.5 616.1, 525.2 616.1 Q 522.9 616.1, 521.7 614.7 Q 520.5 613.3, 520.5 610.8 M 525.2 615.0 Q 526.8 615.0, 527.6 613.9 Q 528.5 612.8, 528.5 610.8 Q 528.5 608.7, 527.6 607.7 Q 526.8 606.7, 525.2 606.7 Q 523.6 606.7, 522.8 607.7 Q 521.9 608.7, 521.9 610.8 Q 521.9 612.9, 522.8 613.9 Q 523.6 615.0, 525.2 615.0 " fill="#FF0000"/>
<path class="atom-10" d="M 678.2 589.6 Q 678.2 587.1, 679.5 585.7 Q 680.7 584.3, 683.0 584.3 Q 685.3 584.3, 686.5 585.7 Q 687.7 587.1, 687.7 589.6 Q 687.7 592.1, 686.5 593.5 Q 685.3 595.0, 683.0 595.0 Q 680.7 595.0, 679.5 593.5 Q 678.2 592.1, 678.2 589.6 M 683.0 593.8 Q 684.6 593.8, 685.4 592.7 Q 686.3 591.7, 686.3 589.6 Q 686.3 587.6, 685.4 586.5 Q 684.6 585.5, 683.0 585.5 Q 681.4 585.5, 680.5 586.5 Q 679.7 587.5, 679.7 589.6 Q 679.7 591.7, 680.5 592.7 Q 681.4 593.8, 683.0 593.8 " fill="#FF0000"/>
<path class="atom-11" d="M 661.1 650.5 Q 661.1 648.0, 662.3 646.6 Q 663.5 645.2, 665.8 645.2 Q 668.1 645.2, 669.3 646.6 Q 670.5 648.0, 670.5 650.5 Q 670.5 653.0, 669.3 654.4 Q 668.1 655.8, 665.8 655.8 Q 663.5 655.8, 662.3 654.4 Q 661.1 653.0, 661.1 650.5 M 665.8 654.7 Q 667.4 654.7, 668.2 653.6 Q 669.1 652.5, 669.1 650.5 Q 669.1 648.4, 668.2 647.4 Q 667.4 646.4, 665.8 646.4 Q 664.2 646.4, 663.4 647.4 Q 662.5 648.4, 662.5 650.5 Q 662.5 652.6, 663.4 653.6 Q 664.2 654.7, 665.8 654.7 " fill="#FF0000"/>
</svg>