<svg xmlns="http://www.w3.org/2000/svg" xmlns:rdkit="http://www.rdkit.org/xml" xmlns:xlink="http://www.w3.org/1999/xlink" version="1.1" baseProfile="full" xml:space="preserve" width="1200px" height="1200px" viewBox="0 0 1200 1200">
<!-- END OF HEADER -->
<rect style="opacity:1.0;fill:#FFFFFF;stroke:none" width="1200.0" height="1200.0" x="0.0" y="0.0"> </rect>
<path class="bond-0 atom-0 atom-1" d="M 163.8,125.4 L 185.9,144.5" style="fill:none;fill-rule:evenodd;stroke:#191919;stroke-width:2.0px;stroke-linecap:butt;stroke-linejoin:miter;stroke-opacity:1"/>
<path class="bond-0 atom-0 atom-1" d="M 185.9,144.5 L 207.9,163.6" style="fill:none;fill-rule:evenodd;stroke:#FF0000;stroke-width:2.0px;stroke-linecap:butt;stroke-linejoin:miter;stroke-opacity:1"/>
<path class="bond-1 atom-1 atom-2" d="M 233.1,170.1 L 263.3,159.7" style="fill:none;fill-rule:evenodd;stroke:#FF0000;stroke-width:2.0px;stroke-linecap:butt;stroke-linejoin:miter;stroke-opacity:1"/>
<path class="bond-1 atom-1 atom-2" d="M 263.3,159.7 L 293.5,149.2" style="fill:none;fill-rule:evenodd;stroke:#000000;stroke-width:2.0px;stroke-linecap:butt;stroke-linejoin:miter;stroke-opacity:1"/>
<path class="bond-2 atom-2 atom-3" d="M 293.5,149.2 L 351.9,199.8" style="fill:none;fill-rule:evenodd;stroke:#000000;stroke-width:2.0px;stroke-linecap:butt;stroke-linejoin:miter;stroke-opacity:1"/>
<path class="bond-3 atom-3 atom-4" d="M 351.9,199.8 L 424.9,174.5" style="fill:none;fill-rule:evenodd;stroke:#000000;stroke-width:2.0px;stroke-linecap:butt;stroke-linejoin:miter;stroke-opacity:1"/>
<path class="bond-4 atom-4 atom-5" d="M 424.9,174.5 L 483.2,225.1" style="fill:none;fill-rule:evenodd;stroke:#000000;stroke-width:2.0px;stroke-linecap:butt;stroke-linejoin:miter;stroke-opacity:1"/>
<path class="bond-5 atom-5 atom-6" d="M 483.2,225.1 L 513.4,214.6" style="fill:none;fill-rule:evenodd;stroke:#000000;stroke-width:2.0px;stroke-linecap:butt;stroke-linejoin:miter;stroke-opacity:1"/>
<path class="bond-5 atom-5 atom-6" d="M 513.4,214.6 L 543.6,204.2" style="fill:none;fill-rule:evenodd;stroke:#FF0000;stroke-width:2.0px;stroke-linecap:butt;stroke-linejoin:miter;stroke-opacity:1"/>
<path class="bond-6 atom-6 atom-7" d="M 568.8,210.7 L 591.7,230.5" style="fill:none;fill-rule:evenodd;stroke:#FF0000;stroke-width:2.0px;stroke-linecap:butt;stroke-linejoin:miter;stroke-opacity:1"/>
<path class="bond-6 atom-6 atom-7" d="M 591.7,230.5 L 614.6,250.4" style="fill:none;fill-rule:evenodd;stroke:#000000;stroke-width:2.0px;stroke-linecap:butt;stroke-linejoin:miter;stroke-opacity:1"/>
<path class="bond-7 atom-7 atom-8" d="M 609.5,246.0 L 603.2,278.7" style="fill:none;fill-rule:evenodd;stroke:#000000;stroke-width:2.0px;stroke-linecap:butt;stroke-linejoin:miter;stroke-opacity:1"/>
<path class="bond-7 atom-7 atom-8" d="M 603.2,278.7 L 596.9,311.5" style="fill:none;fill-rule:evenodd;stroke:#FF0000;stroke-width:2.0px;stroke-linecap:butt;stroke-linejoin:miter;stroke-opacity:1"/>
<path class="bond-7 atom-7 atom-8" d="M 620.9,248.2 L 614.6,280.9" style="fill:none;fill-rule:evenodd;stroke:#000000;stroke-width:2.0px;stroke-linecap:butt;stroke-linejoin:miter;stroke-opacity:1"/>
<path class="bond-7 atom-7 atom-8" d="M 614.6,280.9 L 608.3,313.7" style="fill:none;fill-rule:evenodd;stroke:#FF0000;stroke-width:2.0px;stroke-linecap:butt;stroke-linejoin:miter;stroke-opacity:1"/>
<path class="bond-8 atom-7 atom-9" d="M 614.6,250.4 L 687.6,225.1" style="fill:none;fill-rule:evenodd;stroke:#000000;stroke-width:2.0px;stroke-linecap:butt;stroke-linejoin:miter;stroke-opacity:1"/>
<path class="bond-9 atom-9 atom-10" d="M 687.6,225.1 L 702.2,149.3" style="fill:none;fill-rule:evenodd;stroke:#000000;stroke-width:2.0px;stroke-linecap:butt;stroke-linejoin:miter;stroke-opacity:1"/>
<path class="bond-9 atom-9 atom-10" d="M 700.2,220.7 L 712.3,158.0" style="fill:none;fill-rule:evenodd;stroke:#000000;stroke-width:2.0px;stroke-linecap:butt;stroke-linejoin:miter;stroke-opacity:1"/>
<path class="bond-10 atom-10 atom-11" d="M 702.2,149.3 L 775.1,124.0" style="fill:none;fill-rule:evenodd;stroke:#000000;stroke-width:2.0px;stroke-linecap:butt;stroke-linejoin:miter;stroke-opacity:1"/>
<path class="bond-11 atom-11 atom-12" d="M 775.1,124.0 L 833.5,174.6" style="fill:none;fill-rule:evenodd;stroke:#000000;stroke-width:2.0px;stroke-linecap:butt;stroke-linejoin:miter;stroke-opacity:1"/>
<path class="bond-11 atom-11 atom-12" d="M 772.6,137.1 L 820.9,178.9" style="fill:none;fill-rule:evenodd;stroke:#000000;stroke-width:2.0px;stroke-linecap:butt;stroke-linejoin:miter;stroke-opacity:1"/>
<path class="bond-12 atom-12 atom-13" d="M 833.5,174.6 L 906.5,149.3" style="fill:none;fill-rule:evenodd;stroke:#000000;stroke-width:2.0px;stroke-linecap:butt;stroke-linejoin:miter;stroke-opacity:1"/>
<path class="bond-13 atom-13 atom-14" d="M 911.5,153.7 L 917.8,121.1" style="fill:none;fill-rule:evenodd;stroke:#000000;stroke-width:2.0px;stroke-linecap:butt;stroke-linejoin:miter;stroke-opacity:1"/>
<path class="bond-13 atom-13 atom-14" d="M 917.8,121.1 L 924.1,88.5" style="fill:none;fill-rule:evenodd;stroke:#FF0000;stroke-width:2.0px;stroke-linecap:butt;stroke-linejoin:miter;stroke-opacity:1"/>
<path class="bond-13 atom-13 atom-14" d="M 900.2,151.5 L 906.4,118.9" style="fill:none;fill-rule:evenodd;stroke:#000000;stroke-width:2.0px;stroke-linecap:butt;stroke-linejoin:miter;stroke-opacity:1"/>
<path class="bond-13 atom-13 atom-14" d="M 906.4,118.9 L 912.7,86.3" style="fill:none;fill-rule:evenodd;stroke:#FF0000;stroke-width:2.0px;stroke-linecap:butt;stroke-linejoin:miter;stroke-opacity:1"/>
<path class="bond-14 atom-13 atom-15" d="M 906.5,149.3 L 929.4,169.1" style="fill:none;fill-rule:evenodd;stroke:#000000;stroke-width:2.0px;stroke-linecap:butt;stroke-linejoin:miter;stroke-opacity:1"/>
<path class="bond-14 atom-13 atom-15" d="M 929.4,169.1 L 952.3,188.9" style="fill:none;fill-rule:evenodd;stroke:#FF0000;stroke-width:2.0px;stroke-linecap:butt;stroke-linejoin:miter;stroke-opacity:1"/>
<path class="bond-15 atom-15 atom-16" d="M 977.4,195.5 L 1005.6,185.8" style="fill:none;fill-rule:evenodd;stroke:#FF0000;stroke-width:2.0px;stroke-linecap:butt;stroke-linejoin:miter;stroke-opacity:1"/>
<path class="bond-15 atom-15 atom-16" d="M 1005.6,185.8 L 1033.7,176.0" style="fill:none;fill-rule:evenodd;stroke:#191919;stroke-width:2.0px;stroke-linecap:butt;stroke-linejoin:miter;stroke-opacity:1"/>
<path class="bond-16 atom-12 atom-17" d="M 833.5,174.6 L 818.9,250.4" style="fill:none;fill-rule:evenodd;stroke:#000000;stroke-width:2.0px;stroke-linecap:butt;stroke-linejoin:miter;stroke-opacity:1"/>
<path class="bond-17 atom-17 atom-18" d="M 818.9,250.4 L 745.9,275.7" style="fill:none;fill-rule:evenodd;stroke:#000000;stroke-width:2.0px;stroke-linecap:butt;stroke-linejoin:miter;stroke-opacity:1"/>
<path class="bond-17 atom-17 atom-18" d="M 808.8,241.6 L 748.5,262.5" style="fill:none;fill-rule:evenodd;stroke:#000000;stroke-width:2.0px;stroke-linecap:butt;stroke-linejoin:miter;stroke-opacity:1"/>
<path class="bond-18 atom-18 atom-9" d="M 745.9,275.7 L 687.6,225.1" style="fill:none;fill-rule:evenodd;stroke:#000000;stroke-width:2.0px;stroke-linecap:butt;stroke-linejoin:miter;stroke-opacity:1"/>
<path d="M 292.0,149.7 L 293.5,149.2 L 296.4,151.8" style="fill:none;stroke:#000000;stroke-width:2.0px;stroke-linecap:butt;stroke-linejoin:miter;stroke-opacity:1;"/>
<path d="M 349.0,197.3 L 351.9,199.8 L 355.5,198.5" style="fill:none;stroke:#000000;stroke-width:2.0px;stroke-linecap:butt;stroke-linejoin:miter;stroke-opacity:1;"/>
<path d="M 421.2,175.8 L 424.9,174.5 L 427.8,177.0" style="fill:none;stroke:#000000;stroke-width:2.0px;stroke-linecap:butt;stroke-linejoin:miter;stroke-opacity:1;"/>
<path d="M 480.3,222.6 L 483.2,225.1 L 484.7,224.6" style="fill:none;stroke:#000000;stroke-width:2.0px;stroke-linecap:butt;stroke-linejoin:miter;stroke-opacity:1;"/>
<path d="M 613.4,249.4 L 614.6,250.4 L 618.2,249.1" style="fill:none;stroke:#000000;stroke-width:2.0px;stroke-linecap:butt;stroke-linejoin:miter;stroke-opacity:1;"/>
<path d="M 701.4,153.1 L 702.2,149.3 L 705.8,148.0" style="fill:none;stroke:#000000;stroke-width:2.0px;stroke-linecap:butt;stroke-linejoin:miter;stroke-opacity:1;"/>
<path d="M 771.5,125.3 L 775.1,124.0 L 778.1,126.5" style="fill:none;stroke:#000000;stroke-width:2.0px;stroke-linecap:butt;stroke-linejoin:miter;stroke-opacity:1;"/>
<path d="M 902.8,150.6 L 906.5,149.3 L 907.6,150.3" style="fill:none;stroke:#000000;stroke-width:2.0px;stroke-linecap:butt;stroke-linejoin:miter;stroke-opacity:1;"/>
<path d="M 819.6,246.6 L 818.9,250.4 L 815.3,251.7" style="fill:none;stroke:#000000;stroke-width:2.0px;stroke-linecap:butt;stroke-linejoin:miter;stroke-opacity:1;"/>
<path d="M 749.6,274.4 L 745.9,275.7 L 743.0,273.1" style="fill:none;stroke:#000000;stroke-width:2.0px;stroke-linecap:butt;stroke-linejoin:miter;stroke-opacity:1;"/>
<path class="atom-0" d="M 158.0 121.5 L 161.3 118.2 L 157.0 117.4 L 157.6 115.2 L 161.6 117.1 L 161.0 112.8 L 163.3 112.8 L 162.7 117.1 L 166.7 115.3 L 167.3 117.4 L 163.0 118.2 L 166.1 121.5 L 164.2 122.8 L 162.1 118.7 L 159.9 122.8 L 158.0 121.5 " fill="#191919"/>
<path class="atom-1" d="M 210.5 174.6 Q 210.5 169.3, 213.1 166.4 Q 215.7 163.4, 220.5 163.4 Q 225.4 163.4, 228.0 166.4 Q 230.6 169.3, 230.6 174.6 Q 230.6 179.9, 228.0 182.9 Q 225.3 185.9, 220.5 185.9 Q 215.7 185.9, 213.1 182.9 Q 210.5 179.9, 210.5 174.6 M 220.5 183.4 Q 223.9 183.4, 225.7 181.2 Q 227.5 178.9, 227.5 174.6 Q 227.5 170.3, 225.7 168.1 Q 223.9 165.9, 220.5 165.9 Q 217.2 165.9, 215.4 168.1 Q 213.6 170.2, 213.6 174.6 Q 213.6 179.0, 215.4 181.2 Q 217.2 183.4, 220.5 183.4 " fill="#FF0000"/>
<path class="atom-6" d="M 546.2 199.9 Q 546.2 194.6, 548.8 191.7 Q 551.4 188.8, 556.2 188.8 Q 561.1 188.8, 563.7 191.7 Q 566.3 194.6, 566.3 199.9 Q 566.3 205.2, 563.6 208.2 Q 561.0 211.2, 556.2 211.2 Q 551.4 211.2, 548.8 208.2 Q 546.2 205.2, 546.2 199.9 M 556.2 208.7 Q 559.5 208.7, 561.3 206.5 Q 563.2 204.3, 563.2 199.9 Q 563.2 195.6, 561.3 193.4 Q 559.5 191.2, 556.2 191.2 Q 552.9 191.2, 551.1 193.4 Q 549.3 195.5, 549.3 199.9 Q 549.3 204.3, 551.1 206.5 Q 552.9 208.7, 556.2 208.7 " fill="#FF0000"/>
<path class="atom-8" d="M 589.9 326.3 Q 589.9 321.0, 592.5 318.1 Q 595.1 315.1, 600.0 315.1 Q 604.8 315.1, 607.4 318.1 Q 610.0 321.0, 610.0 326.3 Q 610.0 331.6, 607.4 334.6 Q 604.8 337.6, 600.0 337.6 Q 595.2 337.6, 592.5 334.6 Q 589.9 331.6, 589.9 326.3 M 600.0 335.1 Q 603.3 335.1, 605.1 332.9 Q 606.9 330.7, 606.9 326.3 Q 606.9 322.0, 605.1 319.8 Q 603.3 317.6, 600.0 317.6 Q 596.6 317.6, 594.8 319.8 Q 593.0 321.9, 593.0 326.3 Q 593.0 330.7, 594.8 332.9 Q 596.6 335.1, 600.0 335.1 " fill="#FF0000"/>
<path class="atom-14" d="M 911.0 73.5 Q 911.0 68.3, 913.6 65.3 Q 916.2 62.4, 921.1 62.4 Q 925.9 62.4, 928.5 65.3 Q 931.1 68.3, 931.1 73.5 Q 931.1 78.8, 928.5 81.9 Q 925.9 84.9, 921.1 84.9 Q 916.3 84.9, 913.6 81.9 Q 911.0 78.9, 911.0 73.5 M 921.1 82.4 Q 924.4 82.4, 926.2 80.2 Q 928.0 77.9, 928.0 73.5 Q 928.0 69.2, 926.2 67.1 Q 924.4 64.9, 921.1 64.9 Q 917.8 64.9, 915.9 67.0 Q 914.1 69.2, 914.1 73.5 Q 914.1 77.9, 915.9 80.2 Q 917.8 82.4, 921.1 82.4 " fill="#FF0000"/>
<path class="atom-15" d="M 954.8 199.9 Q 954.8 194.7, 957.4 191.7 Q 960.0 188.8, 964.9 188.8 Q 969.7 188.8, 972.3 191.7 Q 974.9 194.7, 974.9 199.9 Q 974.9 205.2, 972.3 208.3 Q 969.6 211.2, 964.9 211.2 Q 960.0 211.2, 957.4 208.3 Q 954.8 205.3, 954.8 199.9 M 964.9 208.8 Q 968.2 208.8, 970.0 206.6 Q 971.8 204.3, 971.8 199.9 Q 971.8 195.6, 970.0 193.5 Q 968.2 191.3, 964.9 191.3 Q 961.5 191.3, 959.7 193.4 Q 957.9 195.6, 957.9 199.9 Q 957.9 204.3, 959.7 206.6 Q 961.5 208.8, 964.9 208.8 " fill="#FF0000"/>
<path class="atom-16" d="M 1033.7 172.1 L 1036.9 168.9 L 1032.7 168.0 L 1033.3 165.8 L 1037.2 167.8 L 1036.7 163.5 L 1039.0 163.5 L 1038.3 167.8 L 1042.3 165.9 L 1043.0 168.0 L 1038.7 168.8 L 1041.8 172.1 L 1039.9 173.5 L 1037.8 169.4 L 1035.6 173.5 L 1033.7 172.1 " fill="#191919"/>
<path class="bond-0 atom-0 atom-1" d="M 72.9,594.8 L 103.0,578.5" style="fill:none;fill-rule:evenodd;stroke:#191919;stroke-width:2.0px;stroke-linecap:butt;stroke-linejoin:miter;stroke-opacity:1"/>
<path class="bond-0 atom-0 atom-1" d="M 103.0,578.5 L 133.1,562.3" style="fill:none;fill-rule:evenodd;stroke:#000000;stroke-width:2.0px;stroke-linecap:butt;stroke-linejoin:miter;stroke-opacity:1"/>
<path class="bond-1 atom-1 atom-2" d="M 133.1,562.3 L 198.9,602.8" style="fill:none;fill-rule:evenodd;stroke:#000000;stroke-width:2.0px;stroke-linecap:butt;stroke-linejoin:miter;stroke-opacity:1"/>
<path class="bond-2 atom-2 atom-3" d="M 198.9,602.8 L 266.8,566.1" style="fill:none;fill-rule:evenodd;stroke:#000000;stroke-width:2.0px;stroke-linecap:butt;stroke-linejoin:miter;stroke-opacity:1"/>
<path class="bond-3 atom-3 atom-4" d="M 266.8,566.1 L 332.6,606.6" style="fill:none;fill-rule:evenodd;stroke:#000000;stroke-width:2.0px;stroke-linecap:butt;stroke-linejoin:miter;stroke-opacity:1"/>
<path class="bond-4 atom-4 atom-5" d="M 332.6,606.6 L 360.3,591.7" style="fill:none;fill-rule:evenodd;stroke:#000000;stroke-width:2.0px;stroke-linecap:butt;stroke-linejoin:miter;stroke-opacity:1"/>
<path class="bond-4 atom-4 atom-5" d="M 360.3,591.7 L 388.0,576.8" style="fill:none;fill-rule:evenodd;stroke:#FF0000;stroke-width:2.0px;stroke-linecap:butt;stroke-linejoin:miter;stroke-opacity:1"/>
<path class="bond-5 atom-5 atom-6" d="M 413.1,577.7 L 439.7,594.1" style="fill:none;fill-rule:evenodd;stroke:#FF0000;stroke-width:2.0px;stroke-linecap:butt;stroke-linejoin:miter;stroke-opacity:1"/>
<path class="bond-5 atom-5 atom-6" d="M 439.7,594.1 L 466.3,610.5" style="fill:none;fill-rule:evenodd;stroke:#000000;stroke-width:2.0px;stroke-linecap:butt;stroke-linejoin:miter;stroke-opacity:1"/>
<path class="bond-6 atom-6 atom-7" d="M 460.6,607.0 L 459.6,640.4" style="fill:none;fill-rule:evenodd;stroke:#000000;stroke-width:2.0px;stroke-linecap:butt;stroke-linejoin:miter;stroke-opacity:1"/>
<path class="bond-6 atom-6 atom-7" d="M 459.6,640.4 L 458.7,673.9" style="fill:none;fill-rule:evenodd;stroke:#FF0000;stroke-width:2.0px;stroke-linecap:butt;stroke-linejoin:miter;stroke-opacity:1"/>
<path class="bond-6 atom-6 atom-7" d="M 472.2,607.3 L 471.2,640.8" style="fill:none;fill-rule:evenodd;stroke:#000000;stroke-width:2.0px;stroke-linecap:butt;stroke-linejoin:miter;stroke-opacity:1"/>
<path class="bond-6 atom-6 atom-7" d="M 471.2,640.8 L 470.3,674.2" style="fill:none;fill-rule:evenodd;stroke:#FF0000;stroke-width:2.0px;stroke-linecap:butt;stroke-linejoin:miter;stroke-opacity:1"/>
<path class="bond-7 atom-6 atom-8" d="M 466.3,610.5 L 534.3,573.8" style="fill:none;fill-rule:evenodd;stroke:#000000;stroke-width:2.0px;stroke-linecap:butt;stroke-linejoin:miter;stroke-opacity:1"/>
<path class="bond-8 atom-8 atom-9" d="M 534.3,573.8 L 600.0,614.3" style="fill:none;fill-rule:evenodd;stroke:#000000;stroke-width:2.0px;stroke-linecap:butt;stroke-linejoin:miter;stroke-opacity:1"/>
<path class="bond-9 atom-9 atom-10" d="M 600.0,614.3 L 668.0,577.6" style="fill:none;fill-rule:evenodd;stroke:#000000;stroke-width:2.0px;stroke-linecap:butt;stroke-linejoin:miter;stroke-opacity:1"/>
<path class="bond-10 atom-10 atom-11" d="M 668.0,577.6 L 733.7,618.2" style="fill:none;fill-rule:evenodd;stroke:#000000;stroke-width:2.0px;stroke-linecap:butt;stroke-linejoin:miter;stroke-opacity:1"/>
<path class="bond-11 atom-11 atom-12" d="M 733.7,618.2 L 801.7,581.5" style="fill:none;fill-rule:evenodd;stroke:#000000;stroke-width:2.0px;stroke-linecap:butt;stroke-linejoin:miter;stroke-opacity:1"/>
<path class="bond-12 atom-12 atom-13" d="M 801.7,581.5 L 867.4,622.0" style="fill:none;fill-rule:evenodd;stroke:#000000;stroke-width:2.0px;stroke-linecap:butt;stroke-linejoin:miter;stroke-opacity:1"/>
<path class="bond-13 atom-13 atom-14" d="M 867.4,622.0 L 935.4,585.3" style="fill:none;fill-rule:evenodd;stroke:#000000;stroke-width:2.0px;stroke-linecap:butt;stroke-linejoin:miter;stroke-opacity:1"/>
<path class="bond-14 atom-14 atom-15" d="M 935.4,585.3 L 1001.1,625.9" style="fill:none;fill-rule:evenodd;stroke:#000000;stroke-width:2.0px;stroke-linecap:butt;stroke-linejoin:miter;stroke-opacity:1"/>
<path class="bond-15 atom-15 atom-16" d="M 1001.1,625.9 L 1069.1,589.2" style="fill:none;fill-rule:evenodd;stroke:#000000;stroke-width:2.0px;stroke-linecap:butt;stroke-linejoin:miter;stroke-opacity:1"/>
<path class="bond-16 atom-16 atom-17" d="M 1069.1,589.2 L 1098.1,607.1" style="fill:none;fill-rule:evenodd;stroke:#000000;stroke-width:2.0px;stroke-linecap:butt;stroke-linejoin:miter;stroke-opacity:1"/>
<path class="bond-16 atom-16 atom-17" d="M 1098.1,607.1 L 1127.1,624.9" style="fill:none;fill-rule:evenodd;stroke:#191919;stroke-width:2.0px;stroke-linecap:butt;stroke-linejoin:miter;stroke-opacity:1"/>
<path class="bond-17 atom-16 atom-18" d="M 1074.8,592.7 L 1075.7,559.4" style="fill:none;fill-rule:evenodd;stroke:#000000;stroke-width:2.0px;stroke-linecap:butt;stroke-linejoin:miter;stroke-opacity:1"/>
<path class="bond-17 atom-16 atom-18" d="M 1075.7,559.4 L 1076.7,526.1" style="fill:none;fill-rule:evenodd;stroke:#FF0000;stroke-width:2.0px;stroke-linecap:butt;stroke-linejoin:miter;stroke-opacity:1"/>
<path class="bond-17 atom-16 atom-18" d="M 1063.2,592.4 L 1064.2,559.1" style="fill:none;fill-rule:evenodd;stroke:#000000;stroke-width:2.0px;stroke-linecap:butt;stroke-linejoin:miter;stroke-opacity:1"/>
<path class="bond-17 atom-16 atom-18" d="M 1064.2,559.1 L 1065.1,525.8" style="fill:none;fill-rule:evenodd;stroke:#FF0000;stroke-width:2.0px;stroke-linecap:butt;stroke-linejoin:miter;stroke-opacity:1"/>
<path d="M 131.6,563.1 L 133.1,562.3 L 136.4,564.3" style="fill:none;stroke:#000000;stroke-width:2.0px;stroke-linecap:butt;stroke-linejoin:miter;stroke-opacity:1;"/>
<path d="M 195.6,600.8 L 198.9,602.8 L 202.3,601.0" style="fill:none;stroke:#000000;stroke-width:2.0px;stroke-linecap:butt;stroke-linejoin:miter;stroke-opacity:1;"/>
<path d="M 263.4,567.9 L 266.8,566.1 L 270.1,568.1" style="fill:none;stroke:#000000;stroke-width:2.0px;stroke-linecap:butt;stroke-linejoin:miter;stroke-opacity:1;"/>
<path d="M 329.3,604.6 L 332.6,606.6 L 334.0,605.9" style="fill:none;stroke:#000000;stroke-width:2.0px;stroke-linecap:butt;stroke-linejoin:miter;stroke-opacity:1;"/>
<path d="M 465.0,609.7 L 466.3,610.5 L 469.7,608.6" style="fill:none;stroke:#000000;stroke-width:2.0px;stroke-linecap:butt;stroke-linejoin:miter;stroke-opacity:1;"/>
<path d="M 530.9,575.6 L 534.3,573.8 L 537.5,575.8" style="fill:none;stroke:#000000;stroke-width:2.0px;stroke-linecap:butt;stroke-linejoin:miter;stroke-opacity:1;"/>
<path d="M 596.7,612.3 L 600.0,614.3 L 603.4,612.5" style="fill:none;stroke:#000000;stroke-width:2.0px;stroke-linecap:butt;stroke-linejoin:miter;stroke-opacity:1;"/>
<path d="M 664.6,579.5 L 668.0,577.6 L 671.3,579.7" style="fill:none;stroke:#000000;stroke-width:2.0px;stroke-linecap:butt;stroke-linejoin:miter;stroke-opacity:1;"/>
<path d="M 730.4,616.1 L 733.7,618.2 L 737.1,616.3" style="fill:none;stroke:#000000;stroke-width:2.0px;stroke-linecap:butt;stroke-linejoin:miter;stroke-opacity:1;"/>
<path d="M 798.3,583.3 L 801.7,581.5 L 805.0,583.5" style="fill:none;stroke:#000000;stroke-width:2.0px;stroke-linecap:butt;stroke-linejoin:miter;stroke-opacity:1;"/>
<path d="M 864.1,620.0 L 867.4,622.0 L 870.8,620.2" style="fill:none;stroke:#000000;stroke-width:2.0px;stroke-linecap:butt;stroke-linejoin:miter;stroke-opacity:1;"/>
<path d="M 932.0,587.2 L 935.4,585.3 L 938.7,587.4" style="fill:none;stroke:#000000;stroke-width:2.0px;stroke-linecap:butt;stroke-linejoin:miter;stroke-opacity:1;"/>
<path d="M 997.8,623.8 L 1001.1,625.9 L 1004.5,624.0" style="fill:none;stroke:#000000;stroke-width:2.0px;stroke-linecap:butt;stroke-linejoin:miter;stroke-opacity:1;"/>
<path d="M 1065.7,591.0 L 1069.1,589.2 L 1070.5,590.1" style="fill:none;stroke:#000000;stroke-width:2.0px;stroke-linecap:butt;stroke-linejoin:miter;stroke-opacity:1;"/>
<path class="atom-0" d="M 61.1 596.5 L 64.3 593.2 L 60.0 592.4 L 60.6 590.2 L 64.6 592.2 L 64.0 587.9 L 66.3 587.8 L 65.7 592.1 L 69.7 590.3 L 70.3 592.4 L 66.0 593.2 L 69.1 596.5 L 67.2 597.8 L 65.1 593.8 L 62.9 597.8 L 61.1 596.5 " fill="#191919"/>
<path class="atom-5" d="M 390.5 570.0 Q 390.5 564.8, 393.1 561.8 Q 395.7 558.9, 400.6 558.9 Q 405.4 558.9, 408.0 561.8 Q 410.6 564.8, 410.6 570.0 Q 410.6 575.3, 408.0 578.4 Q 405.3 581.4, 400.6 581.4 Q 395.7 581.4, 393.1 578.4 Q 390.5 575.4, 390.5 570.0 M 400.6 578.9 Q 403.9 578.9, 405.7 576.7 Q 407.5 574.4, 407.5 570.0 Q 407.5 565.7, 405.7 563.6 Q 403.9 561.4, 400.6 561.4 Q 397.2 561.4, 395.4 563.5 Q 393.6 565.7, 393.6 570.0 Q 393.6 574.4, 395.4 576.7 Q 397.2 578.9, 400.6 578.9 " fill="#FF0000"/>
<path class="atom-7" d="M 454.0 687.7 Q 454.0 682.5, 456.6 679.6 Q 459.2 676.6, 464.1 676.6 Q 468.9 676.6, 471.5 679.6 Q 474.1 682.5, 474.1 687.7 Q 474.1 693.1, 471.5 696.1 Q 468.9 699.1, 464.1 699.1 Q 459.3 699.1, 456.6 696.1 Q 454.0 693.1, 454.0 687.7 M 464.1 696.6 Q 467.4 696.6, 469.2 694.4 Q 471.0 692.1, 471.0 687.7 Q 471.0 683.4, 469.2 681.3 Q 467.4 679.1, 464.1 679.1 Q 460.7 679.1, 458.9 681.2 Q 457.1 683.4, 457.1 687.7 Q 457.1 692.2, 458.9 694.4 Q 460.7 696.6, 464.1 696.6 " fill="#FF0000"/>
<path class="atom-17" d="M 1130.7 627.3 L 1133.9 624.0 L 1129.7 623.1 L 1130.3 620.9 L 1134.2 622.9 L 1133.7 618.6 L 1136.0 618.6 L 1135.3 622.9 L 1139.3 621.0 L 1140.0 623.1 L 1135.7 623.9 L 1138.8 627.2 L 1136.9 628.6 L 1134.7 624.5 L 1132.6 628.6 L 1130.7 627.3 " fill="#191919"/>
<path class="atom-18" d="M 1061.3 512.0 Q 1061.3 506.8, 1063.9 503.9 Q 1066.5 500.9, 1071.3 500.9 Q 1076.2 500.9, 1078.7 503.9 Q 1081.3 506.8, 1081.3 512.0 Q 1081.3 517.4, 1078.7 520.4 Q 1076.1 523.4, 1071.3 523.4 Q 1066.5 523.4, 1063.9 520.4 Q 1061.3 517.4, 1061.3 512.0 M 1071.3 520.9 Q 1074.6 520.9, 1076.4 518.7 Q 1078.3 516.4, 1078.3 512.0 Q 1078.3 507.8, 1076.4 505.6 Q 1074.6 503.4, 1071.3 503.4 Q 1068.0 503.4, 1066.1 505.6 Q 1064.4 507.7, 1064.4 512.0 Q 1064.4 516.5, 1066.1 518.7 Q 1068.0 520.9, 1071.3 520.9 " fill="#FF0000"/>
<path class="bond-0 atom-0 atom-1" d="M 556.4,999.9 L 584.9,999.9" style="fill:none;fill-rule:evenodd;stroke:#191919;stroke-width:2.0px;stroke-linecap:butt;stroke-linejoin:miter;stroke-opacity:1"/>
<path class="bond-0 atom-0 atom-1" d="M 584.9,999.9 L 613.3,999.9" style="fill:none;fill-rule:evenodd;stroke:#FF0000;stroke-width:2.0px;stroke-linecap:butt;stroke-linejoin:miter;stroke-opacity:1"/>
<path class="atom-0" d="M 544.6 997.4 L 547.8 994.1 L 543.5 993.3 L 544.2 991.1 L 548.1 993.1 L 547.5 988.8 L 549.9 988.7 L 549.2 993.0 L 553.2 991.2 L 553.9 993.3 L 549.5 994.1 L 552.6 997.4 L 550.7 998.7 L 548.6 994.7 L 546.5 998.7 L 544.6 997.4 " fill="#191919"/>
<path class="atom-1" d="M 615.9 999.9 Q 615.9 994.7, 618.5 991.7 Q 621.1 988.8, 625.9 988.8 Q 630.8 988.8, 633.4 991.7 Q 636.0 994.7, 636.0 999.9 Q 636.0 1005.2, 633.3 1008.3 Q 630.7 1011.3, 625.9 1011.3 Q 621.1 1011.3, 618.5 1008.3 Q 615.9 1005.3, 615.9 999.9 M 625.9 1008.8 Q 629.3 1008.8, 631.1 1006.6 Q 632.9 1004.3, 632.9 999.9 Q 632.9 995.6, 631.1 993.5 Q 629.3 991.3, 625.9 991.3 Q 622.6 991.3, 620.8 993.4 Q 619.0 995.6, 619.0 999.9 Q 619.0 1004.3, 620.8 1006.6 Q 622.6 1008.8, 625.9 1008.8 " fill="#FF0000"/>
<path class="atom-1" d="M 639.4 989.0 L 642.3 989.0 L 642.3 998.3 L 653.5 998.3 L 653.5 989.0 L 656.5 989.0 L 656.5 1010.9 L 653.5 1010.9 L 653.5 1000.8 L 642.3 1000.8 L 642.3 1010.9 L 639.4 1010.9 L 639.4 989.0 " fill="#FF0000"/>
</svg>