<svg xmlns="http://www.w3.org/2000/svg" xmlns:rdkit="http://www.rdkit.org/xml" xmlns:xlink="http://www.w3.org/1999/xlink" version="1.1" baseProfile="full" xml:space="preserve" width="1200px" height="800px" viewBox="0 0 1200 800">
<!-- END OF HEADER -->
<rect style="opacity:1.0;fill:#FFFFFF;stroke:none" width="1200.0" height="800.0" x="0.0" y="0.0"> </rect>
<path class="bond-0 atom-0 atom-1" d="M 1132.9,210.4 L 1108.7,224.8" style="fill:none;fill-rule:evenodd;stroke:#191919;stroke-width:2.0px;stroke-linecap:butt;stroke-linejoin:miter;stroke-opacity:1"/>
<path class="bond-0 atom-0 atom-1" d="M 1108.7,224.8 L 1084.5,239.2" style="fill:none;fill-rule:evenodd;stroke:#FF0000;stroke-width:2.0px;stroke-linecap:butt;stroke-linejoin:miter;stroke-opacity:1"/>
<path class="bond-1 atom-1 atom-2" d="M 1060.8,239.7 L 1035.0,225.2" style="fill:none;fill-rule:evenodd;stroke:#FF0000;stroke-width:2.0px;stroke-linecap:butt;stroke-linejoin:miter;stroke-opacity:1"/>
<path class="bond-1 atom-1 atom-2" d="M 1035.0,225.2 L 1009.2,210.8" style="fill:none;fill-rule:evenodd;stroke:#000000;stroke-width:2.0px;stroke-linecap:butt;stroke-linejoin:miter;stroke-opacity:1"/>
<path class="bond-2 atom-2 atom-3" d="M 1009.2,210.8 L 946.7,248.1" style="fill:none;fill-rule:evenodd;stroke:#000000;stroke-width:2.0px;stroke-linecap:butt;stroke-linejoin:miter;stroke-opacity:1"/>
<path class="bond-3 atom-3 atom-4" d="M 946.7,248.1 L 883.2,212.6" style="fill:none;fill-rule:evenodd;stroke:#000000;stroke-width:2.0px;stroke-linecap:butt;stroke-linejoin:miter;stroke-opacity:1"/>
<path class="bond-4 atom-4 atom-5" d="M 883.2,212.6 L 820.7,249.9" style="fill:none;fill-rule:evenodd;stroke:#000000;stroke-width:2.0px;stroke-linecap:butt;stroke-linejoin:miter;stroke-opacity:1"/>
<path class="bond-5 atom-5 atom-6" d="M 820.7,249.9 L 757.2,214.4" style="fill:none;fill-rule:evenodd;stroke:#000000;stroke-width:2.0px;stroke-linecap:butt;stroke-linejoin:miter;stroke-opacity:1"/>
<path class="bond-5 atom-5 atom-6" d="M 820.5,237.3 L 762.5,204.9" style="fill:none;fill-rule:evenodd;stroke:#000000;stroke-width:2.0px;stroke-linecap:butt;stroke-linejoin:miter;stroke-opacity:1"/>
<path class="bond-6 atom-6 atom-7" d="M 757.2,214.4 L 694.7,251.7" style="fill:none;fill-rule:evenodd;stroke:#000000;stroke-width:2.0px;stroke-linecap:butt;stroke-linejoin:miter;stroke-opacity:1"/>
<path class="bond-7 atom-7 atom-8" d="M 694.7,251.7 L 631.2,216.2" style="fill:none;fill-rule:evenodd;stroke:#000000;stroke-width:2.0px;stroke-linecap:butt;stroke-linejoin:miter;stroke-opacity:1"/>
<path class="bond-8 atom-8 atom-9" d="M 631.2,216.2 L 568.8,253.5" style="fill:none;fill-rule:evenodd;stroke:#000000;stroke-width:2.0px;stroke-linecap:butt;stroke-linejoin:miter;stroke-opacity:1"/>
<path class="bond-9 atom-9 atom-10" d="M 568.8,253.5 L 505.3,218.0" style="fill:none;fill-rule:evenodd;stroke:#000000;stroke-width:2.0px;stroke-linecap:butt;stroke-linejoin:miter;stroke-opacity:1"/>
<path class="bond-10 atom-10 atom-11" d="M 505.3,218.0 L 442.8,255.3" style="fill:none;fill-rule:evenodd;stroke:#000000;stroke-width:2.0px;stroke-linecap:butt;stroke-linejoin:miter;stroke-opacity:1"/>
<path class="bond-11 atom-11 atom-12" d="M 442.8,255.3 L 379.3,219.9" style="fill:none;fill-rule:evenodd;stroke:#000000;stroke-width:2.0px;stroke-linecap:butt;stroke-linejoin:miter;stroke-opacity:1"/>
<path class="bond-12 atom-12 atom-13" d="M 379.3,219.9 L 316.8,257.1" style="fill:none;fill-rule:evenodd;stroke:#000000;stroke-width:2.0px;stroke-linecap:butt;stroke-linejoin:miter;stroke-opacity:1"/>
<path class="bond-13 atom-13 atom-14" d="M 316.8,257.1 L 253.3,221.7" style="fill:none;fill-rule:evenodd;stroke:#000000;stroke-width:2.0px;stroke-linecap:butt;stroke-linejoin:miter;stroke-opacity:1"/>
<path class="bond-14 atom-14 atom-15" d="M 253.3,221.7 L 190.8,258.9" style="fill:none;fill-rule:evenodd;stroke:#000000;stroke-width:2.0px;stroke-linecap:butt;stroke-linejoin:miter;stroke-opacity:1"/>
<path class="bond-15 atom-15 atom-16" d="M 190.8,258.9 L 127.3,223.5" style="fill:none;fill-rule:evenodd;stroke:#000000;stroke-width:2.0px;stroke-linecap:butt;stroke-linejoin:miter;stroke-opacity:1"/>
<path class="bond-16 atom-16 atom-17" d="M 127.3,223.5 L 99.7,239.9" style="fill:none;fill-rule:evenodd;stroke:#000000;stroke-width:2.0px;stroke-linecap:butt;stroke-linejoin:miter;stroke-opacity:1"/>
<path class="bond-16 atom-16 atom-17" d="M 99.7,239.9 L 72.1,256.4" style="fill:none;fill-rule:evenodd;stroke:#191919;stroke-width:2.0px;stroke-linecap:butt;stroke-linejoin:miter;stroke-opacity:1"/>
<path class="bond-17 atom-16 atom-18" d="M 132.8,226.5 L 132.4,195.2" style="fill:none;fill-rule:evenodd;stroke:#000000;stroke-width:2.0px;stroke-linecap:butt;stroke-linejoin:miter;stroke-opacity:1"/>
<path class="bond-17 atom-16 atom-18" d="M 132.4,195.2 L 131.9,163.8" style="fill:none;fill-rule:evenodd;stroke:#FF0000;stroke-width:2.0px;stroke-linecap:butt;stroke-linejoin:miter;stroke-opacity:1"/>
<path class="bond-17 atom-16 atom-18" d="M 121.9,226.7 L 121.5,195.3" style="fill:none;fill-rule:evenodd;stroke:#000000;stroke-width:2.0px;stroke-linecap:butt;stroke-linejoin:miter;stroke-opacity:1"/>
<path class="bond-17 atom-16 atom-18" d="M 121.5,195.3 L 121.0,163.9" style="fill:none;fill-rule:evenodd;stroke:#FF0000;stroke-width:2.0px;stroke-linecap:butt;stroke-linejoin:miter;stroke-opacity:1"/>
<path d="M 1010.4,211.5 L 1009.2,210.8 L 1006.0,212.7" style="fill:none;stroke:#000000;stroke-width:2.0px;stroke-linecap:butt;stroke-linejoin:miter;stroke-opacity:1;"/>
<path d="M 949.8,246.2 L 946.7,248.1 L 943.5,246.3" style="fill:none;stroke:#000000;stroke-width:2.0px;stroke-linecap:butt;stroke-linejoin:miter;stroke-opacity:1;"/>
<path d="M 886.4,214.4 L 883.2,212.6 L 880.1,214.5" style="fill:none;stroke:#000000;stroke-width:2.0px;stroke-linecap:butt;stroke-linejoin:miter;stroke-opacity:1;"/>
<path d="M 823.8,248.0 L 820.7,249.9 L 817.5,248.1" style="fill:none;stroke:#000000;stroke-width:2.0px;stroke-linecap:butt;stroke-linejoin:miter;stroke-opacity:1;"/>
<path d="M 760.4,216.2 L 757.2,214.4 L 754.1,216.3" style="fill:none;stroke:#000000;stroke-width:2.0px;stroke-linecap:butt;stroke-linejoin:miter;stroke-opacity:1;"/>
<path d="M 697.9,249.8 L 694.7,251.7 L 691.6,249.9" style="fill:none;stroke:#000000;stroke-width:2.0px;stroke-linecap:butt;stroke-linejoin:miter;stroke-opacity:1;"/>
<path d="M 634.4,218.0 L 631.2,216.2 L 628.1,218.1" style="fill:none;stroke:#000000;stroke-width:2.0px;stroke-linecap:butt;stroke-linejoin:miter;stroke-opacity:1;"/>
<path d="M 571.9,251.6 L 568.8,253.5 L 565.6,251.7" style="fill:none;stroke:#000000;stroke-width:2.0px;stroke-linecap:butt;stroke-linejoin:miter;stroke-opacity:1;"/>
<path d="M 508.4,219.8 L 505.3,218.0 L 502.1,219.9" style="fill:none;stroke:#000000;stroke-width:2.0px;stroke-linecap:butt;stroke-linejoin:miter;stroke-opacity:1;"/>
<path d="M 445.9,253.5 L 442.8,255.3 L 439.6,253.5" style="fill:none;stroke:#000000;stroke-width:2.0px;stroke-linecap:butt;stroke-linejoin:miter;stroke-opacity:1;"/>
<path d="M 382.5,221.6 L 379.3,219.9 L 376.2,221.7" style="fill:none;stroke:#000000;stroke-width:2.0px;stroke-linecap:butt;stroke-linejoin:miter;stroke-opacity:1;"/>
<path d="M 319.9,255.3 L 316.8,257.1 L 313.6,255.3" style="fill:none;stroke:#000000;stroke-width:2.0px;stroke-linecap:butt;stroke-linejoin:miter;stroke-opacity:1;"/>
<path d="M 256.5,223.4 L 253.3,221.7 L 250.2,223.5" style="fill:none;stroke:#000000;stroke-width:2.0px;stroke-linecap:butt;stroke-linejoin:miter;stroke-opacity:1;"/>
<path d="M 194.0,257.1 L 190.8,258.9 L 187.7,257.2" style="fill:none;stroke:#000000;stroke-width:2.0px;stroke-linecap:butt;stroke-linejoin:miter;stroke-opacity:1;"/>
<path d="M 130.5,225.2 L 127.3,223.5 L 126.0,224.3" style="fill:none;stroke:#000000;stroke-width:2.0px;stroke-linecap:butt;stroke-linejoin:miter;stroke-opacity:1;"/>
<path class="atom-0" d="M 1131.2 206.7 L 1134.3 203.6 L 1130.3 202.8 L 1130.9 200.8 L 1134.6 202.6 L 1134.0 198.6 L 1136.2 198.5 L 1135.6 202.6 L 1139.4 200.8 L 1140.0 202.8 L 1135.9 203.6 L 1138.8 206.7 L 1137.1 208.0 L 1135.1 204.1 L 1133.0 208.0 L 1131.2 206.7 " fill="#191919"/>
<path class="atom-1" d="M 1063.2 246.3 Q 1063.2 241.4, 1065.6 238.6 Q 1068.1 235.9, 1072.7 235.9 Q 1077.2 235.9, 1079.7 238.6 Q 1082.1 241.4, 1082.1 246.3 Q 1082.1 251.4, 1079.6 254.2 Q 1077.2 257.0, 1072.7 257.0 Q 1068.1 257.0, 1065.6 254.2 Q 1063.2 251.4, 1063.2 246.3 M 1072.7 254.7 Q 1075.8 254.7, 1077.5 252.6 Q 1079.2 250.5, 1079.2 246.3 Q 1079.2 242.3, 1077.5 240.3 Q 1075.8 238.2, 1072.7 238.2 Q 1069.5 238.2, 1067.8 240.2 Q 1066.1 242.3, 1066.1 246.3 Q 1066.1 250.5, 1067.8 252.6 Q 1069.5 254.7, 1072.7 254.7 " fill="#FF0000"/>
<path class="atom-17" d="M 61.0 258.4 L 64.0 255.3 L 60.0 254.5 L 60.6 252.5 L 64.3 254.3 L 63.8 250.3 L 66.0 250.3 L 65.4 254.3 L 69.1 252.6 L 69.7 254.5 L 65.7 255.3 L 68.6 258.4 L 66.8 259.7 L 64.8 255.8 L 62.8 259.7 L 61.0 258.4 " fill="#191919"/>
<path class="atom-18" d="M 116.8 150.8 Q 116.8 145.8, 119.3 143.1 Q 121.7 140.3, 126.3 140.3 Q 130.9 140.3, 133.3 143.1 Q 135.8 145.8, 135.8 150.8 Q 135.8 155.8, 133.3 158.6 Q 130.8 161.5, 126.3 161.5 Q 121.8 161.5, 119.3 158.6 Q 116.8 155.8, 116.8 150.8 M 126.3 159.1 Q 129.4 159.1, 131.1 157.0 Q 132.8 154.9, 132.8 150.8 Q 132.8 146.7, 131.1 144.7 Q 129.4 142.6, 126.3 142.6 Q 123.2 142.6, 121.4 144.7 Q 119.8 146.7, 119.8 150.8 Q 119.8 155.0, 121.4 157.0 Q 123.2 159.1, 126.3 159.1 " fill="#FF0000"/>
<path class="bond-0 atom-0 atom-1" d="M 355.8,627.9 L 378.7,616.5" style="fill:none;fill-rule:evenodd;stroke:#191919;stroke-width:2.0px;stroke-linecap:butt;stroke-linejoin:miter;stroke-opacity:1"/>
<path class="bond-0 atom-0 atom-1" d="M 378.7,616.5 L 401.7,605.0" style="fill:none;fill-rule:evenodd;stroke:#FF0000;stroke-width:2.0px;stroke-linecap:butt;stroke-linejoin:miter;stroke-opacity:1"/>
<path class="bond-1 atom-1 atom-2" d="M 425.4,606.9 L 449.8,623.1" style="fill:none;fill-rule:evenodd;stroke:#FF0000;stroke-width:2.0px;stroke-linecap:butt;stroke-linejoin:miter;stroke-opacity:1"/>
<path class="bond-1 atom-1 atom-2" d="M 449.8,623.1 L 474.2,639.2" style="fill:none;fill-rule:evenodd;stroke:#000000;stroke-width:2.0px;stroke-linecap:butt;stroke-linejoin:miter;stroke-opacity:1"/>
<path class="bond-2 atom-2 atom-3" d="M 474.2,639.2 L 539.3,606.7" style="fill:none;fill-rule:evenodd;stroke:#000000;stroke-width:2.0px;stroke-linecap:butt;stroke-linejoin:miter;stroke-opacity:1"/>
<path class="bond-3 atom-3 atom-4" d="M 539.3,606.7 L 600.0,646.8" style="fill:none;fill-rule:evenodd;stroke:#000000;stroke-width:2.0px;stroke-linecap:butt;stroke-linejoin:miter;stroke-opacity:1"/>
<path class="bond-4 atom-4 atom-5" d="M 600.0,646.8 L 665.1,614.3" style="fill:none;fill-rule:evenodd;stroke:#000000;stroke-width:2.0px;stroke-linecap:butt;stroke-linejoin:miter;stroke-opacity:1"/>
<path class="bond-5 atom-5 atom-6" d="M 665.1,614.3 L 725.8,654.5" style="fill:none;fill-rule:evenodd;stroke:#000000;stroke-width:2.0px;stroke-linecap:butt;stroke-linejoin:miter;stroke-opacity:1"/>
<path class="bond-6 atom-6 atom-7" d="M 725.8,654.5 L 790.8,622.0" style="fill:none;fill-rule:evenodd;stroke:#000000;stroke-width:2.0px;stroke-linecap:butt;stroke-linejoin:miter;stroke-opacity:1"/>
<path class="bond-7 atom-7 atom-8" d="M 790.8,622.0 L 817.5,639.6" style="fill:none;fill-rule:evenodd;stroke:#000000;stroke-width:2.0px;stroke-linecap:butt;stroke-linejoin:miter;stroke-opacity:1"/>
<path class="bond-7 atom-7 atom-8" d="M 817.5,639.6 L 844.2,657.3" style="fill:none;fill-rule:evenodd;stroke:#191919;stroke-width:2.0px;stroke-linecap:butt;stroke-linejoin:miter;stroke-opacity:1"/>
<path class="bond-8 atom-7 atom-9" d="M 796.1,625.4 L 798.0,594.1" style="fill:none;fill-rule:evenodd;stroke:#000000;stroke-width:2.0px;stroke-linecap:butt;stroke-linejoin:miter;stroke-opacity:1"/>
<path class="bond-8 atom-7 atom-9" d="M 798.0,594.1 L 799.9,562.8" style="fill:none;fill-rule:evenodd;stroke:#FF0000;stroke-width:2.0px;stroke-linecap:butt;stroke-linejoin:miter;stroke-opacity:1"/>
<path class="bond-8 atom-7 atom-9" d="M 785.2,624.8 L 787.1,593.5" style="fill:none;fill-rule:evenodd;stroke:#000000;stroke-width:2.0px;stroke-linecap:butt;stroke-linejoin:miter;stroke-opacity:1"/>
<path class="bond-8 atom-7 atom-9" d="M 787.1,593.5 L 789.0,562.2" style="fill:none;fill-rule:evenodd;stroke:#FF0000;stroke-width:2.0px;stroke-linecap:butt;stroke-linejoin:miter;stroke-opacity:1"/>
<path d="M 473.0,638.4 L 474.2,639.2 L 477.5,637.6" style="fill:none;stroke:#000000;stroke-width:2.0px;stroke-linecap:butt;stroke-linejoin:miter;stroke-opacity:1;"/>
<path d="M 536.1,608.3 L 539.3,606.7 L 542.4,608.7" style="fill:none;stroke:#000000;stroke-width:2.0px;stroke-linecap:butt;stroke-linejoin:miter;stroke-opacity:1;"/>
<path d="M 597.0,644.8 L 600.0,646.8 L 603.3,645.2" style="fill:none;stroke:#000000;stroke-width:2.0px;stroke-linecap:butt;stroke-linejoin:miter;stroke-opacity:1;"/>
<path d="M 661.8,616.0 L 665.1,614.3 L 668.1,616.3" style="fill:none;stroke:#000000;stroke-width:2.0px;stroke-linecap:butt;stroke-linejoin:miter;stroke-opacity:1;"/>
<path d="M 722.7,652.5 L 725.8,654.5 L 729.0,652.8" style="fill:none;stroke:#000000;stroke-width:2.0px;stroke-linecap:butt;stroke-linejoin:miter;stroke-opacity:1;"/>
<path d="M 787.6,623.6 L 790.8,622.0 L 792.2,622.9" style="fill:none;stroke:#000000;stroke-width:2.0px;stroke-linecap:butt;stroke-linejoin:miter;stroke-opacity:1;"/>
<path class="atom-0" d="M 344.6 629.3 L 347.6 626.2 L 343.6 625.4 L 344.2 623.3 L 347.9 625.2 L 347.4 621.1 L 349.6 621.1 L 349.0 625.1 L 352.7 623.4 L 353.4 625.4 L 349.3 626.1 L 352.2 629.2 L 350.4 630.5 L 348.4 626.7 L 346.4 630.5 L 344.6 629.3 " fill="#191919"/>
<path class="atom-1" d="M 404.1 599.1 Q 404.1 594.2, 406.6 591.4 Q 409.0 588.7, 413.6 588.7 Q 418.1 588.7, 420.6 591.4 Q 423.0 594.2, 423.0 599.1 Q 423.0 604.1, 420.6 607.0 Q 418.1 609.8, 413.6 609.8 Q 409.0 609.8, 406.6 607.0 Q 404.1 604.2, 404.1 599.1 M 413.6 607.5 Q 416.7 607.5, 418.4 605.4 Q 420.1 603.3, 420.1 599.1 Q 420.1 595.1, 418.4 593.1 Q 416.7 591.0, 413.6 591.0 Q 410.4 591.0, 408.7 593.0 Q 407.0 595.1, 407.0 599.1 Q 407.0 603.3, 408.7 605.4 Q 410.4 607.5, 413.6 607.5 " fill="#FF0000"/>
<path class="atom-8" d="M 847.6 659.8 L 850.7 656.7 L 846.6 655.9 L 847.2 653.8 L 850.9 655.7 L 850.4 651.6 L 852.6 651.6 L 852.0 655.7 L 855.7 653.9 L 856.4 655.9 L 852.3 656.7 L 855.2 659.8 L 853.4 661.0 L 851.4 657.2 L 849.4 661.0 L 847.6 659.8 " fill="#191919"/>
<path class="atom-9" d="M 785.8 549.4 Q 785.8 544.5, 788.2 541.7 Q 790.7 539.0, 795.2 539.0 Q 799.8 539.0, 802.3 541.7 Q 804.7 544.5, 804.7 549.4 Q 804.7 554.4, 802.2 557.3 Q 799.8 560.1, 795.2 560.1 Q 790.7 560.1, 788.2 557.3 Q 785.8 554.5, 785.8 549.4 M 795.2 557.8 Q 798.4 557.8, 800.1 555.7 Q 801.8 553.6, 801.8 549.4 Q 801.8 545.4, 800.1 543.3 Q 798.4 541.3, 795.2 541.3 Q 792.1 541.3, 790.4 543.3 Q 788.7 545.4, 788.7 549.4 Q 788.7 553.6, 790.4 555.7 Q 792.1 557.8, 795.2 557.8 " fill="#FF0000"/>
</svg>