<svg xmlns="http://www.w3.org/2000/svg" xmlns:rdkit="http://www.rdkit.org/xml" xmlns:xlink="http://www.w3.org/1999/xlink" version="1.1" baseProfile="full" xml:space="preserve" width="1200px" height="1200px" viewBox="0 0 1200 1200">
<!-- END OF HEADER -->
<rect style="opacity:1.0;fill:#FFFFFF;stroke:none" width="1200.0" height="1200.0" x="0.0" y="0.0"> </rect>
<path class="bond-0 atom-0 atom-1" d="M 1024.7,29.6 L 1007.5,43.9" style="fill:none;fill-rule:evenodd;stroke:#191919;stroke-width:2.0px;stroke-linecap:butt;stroke-linejoin:miter;stroke-opacity:1"/>
<path class="bond-0 atom-0 atom-1" d="M 1007.5,43.9 L 990.2,58.2" style="fill:none;fill-rule:evenodd;stroke:#FF0000;stroke-width:2.0px;stroke-linecap:butt;stroke-linejoin:miter;stroke-opacity:1"/>
<path class="bond-1 atom-1 atom-2" d="M 971.0,62.7 L 948.1,54.2" style="fill:none;fill-rule:evenodd;stroke:#FF0000;stroke-width:2.0px;stroke-linecap:butt;stroke-linejoin:miter;stroke-opacity:1"/>
<path class="bond-1 atom-1 atom-2" d="M 948.1,54.2 L 925.2,45.7" style="fill:none;fill-rule:evenodd;stroke:#000000;stroke-width:2.0px;stroke-linecap:butt;stroke-linejoin:miter;stroke-opacity:1"/>
<path class="bond-2 atom-2 atom-3" d="M 925.2,45.7 L 879.8,83.5" style="fill:none;fill-rule:evenodd;stroke:#000000;stroke-width:2.0px;stroke-linecap:butt;stroke-linejoin:miter;stroke-opacity:1"/>
<path class="bond-3 atom-3 atom-4" d="M 879.8,83.5 L 824.4,63.0" style="fill:none;fill-rule:evenodd;stroke:#000000;stroke-width:2.0px;stroke-linecap:butt;stroke-linejoin:miter;stroke-opacity:1"/>
<path class="bond-4 atom-4 atom-5" d="M 824.4,63.0 L 778.9,100.7" style="fill:none;fill-rule:evenodd;stroke:#000000;stroke-width:2.0px;stroke-linecap:butt;stroke-linejoin:miter;stroke-opacity:1"/>
<path class="bond-5 atom-5 atom-6" d="M 778.9,100.7 L 723.6,80.2" style="fill:none;fill-rule:evenodd;stroke:#000000;stroke-width:2.0px;stroke-linecap:butt;stroke-linejoin:miter;stroke-opacity:1"/>
<path class="bond-6 atom-6 atom-7" d="M 723.6,80.2 L 678.1,117.9" style="fill:none;fill-rule:evenodd;stroke:#000000;stroke-width:2.0px;stroke-linecap:butt;stroke-linejoin:miter;stroke-opacity:1"/>
<path class="bond-7 atom-7 atom-8" d="M 678.1,117.9 L 622.7,97.4" style="fill:none;fill-rule:evenodd;stroke:#000000;stroke-width:2.0px;stroke-linecap:butt;stroke-linejoin:miter;stroke-opacity:1"/>
<path class="bond-8 atom-8 atom-9" d="M 622.7,97.4 L 577.3,135.2" style="fill:none;fill-rule:evenodd;stroke:#000000;stroke-width:2.0px;stroke-linecap:butt;stroke-linejoin:miter;stroke-opacity:1"/>
<path class="bond-9 atom-9 atom-10" d="M 577.3,135.2 L 521.9,114.7" style="fill:none;fill-rule:evenodd;stroke:#000000;stroke-width:2.0px;stroke-linecap:butt;stroke-linejoin:miter;stroke-opacity:1"/>
<path class="bond-10 atom-10 atom-11" d="M 521.9,114.7 L 476.4,152.4" style="fill:none;fill-rule:evenodd;stroke:#000000;stroke-width:2.0px;stroke-linecap:butt;stroke-linejoin:miter;stroke-opacity:1"/>
<path class="bond-11 atom-11 atom-12" d="M 476.4,152.4 L 421.1,131.9" style="fill:none;fill-rule:evenodd;stroke:#000000;stroke-width:2.0px;stroke-linecap:butt;stroke-linejoin:miter;stroke-opacity:1"/>
<path class="bond-12 atom-12 atom-13" d="M 421.1,131.9 L 375.6,169.6" style="fill:none;fill-rule:evenodd;stroke:#000000;stroke-width:2.0px;stroke-linecap:butt;stroke-linejoin:miter;stroke-opacity:1"/>
<path class="bond-13 atom-13 atom-14" d="M 375.6,169.6 L 320.2,149.1" style="fill:none;fill-rule:evenodd;stroke:#000000;stroke-width:2.0px;stroke-linecap:butt;stroke-linejoin:miter;stroke-opacity:1"/>
<path class="bond-14 atom-14 atom-15" d="M 320.2,149.1 L 274.8,186.9" style="fill:none;fill-rule:evenodd;stroke:#000000;stroke-width:2.0px;stroke-linecap:butt;stroke-linejoin:miter;stroke-opacity:1"/>
<path class="bond-15 atom-15 atom-16" d="M 274.8,186.9 L 219.4,166.4" style="fill:none;fill-rule:evenodd;stroke:#000000;stroke-width:2.0px;stroke-linecap:butt;stroke-linejoin:miter;stroke-opacity:1"/>
<path class="bond-16 atom-16 atom-17" d="M 219.4,166.4 L 199.6,182.8" style="fill:none;fill-rule:evenodd;stroke:#000000;stroke-width:2.0px;stroke-linecap:butt;stroke-linejoin:miter;stroke-opacity:1"/>
<path class="bond-16 atom-16 atom-17" d="M 199.6,182.8 L 179.9,199.2" style="fill:none;fill-rule:evenodd;stroke:#191919;stroke-width:2.0px;stroke-linecap:butt;stroke-linejoin:miter;stroke-opacity:1"/>
<path class="bond-17 atom-16 atom-18" d="M 224.2,168.2 L 219.9,143.1" style="fill:none;fill-rule:evenodd;stroke:#000000;stroke-width:2.0px;stroke-linecap:butt;stroke-linejoin:miter;stroke-opacity:1"/>
<path class="bond-17 atom-16 atom-18" d="M 219.9,143.1 L 215.6,118.1" style="fill:none;fill-rule:evenodd;stroke:#FF0000;stroke-width:2.0px;stroke-linecap:butt;stroke-linejoin:miter;stroke-opacity:1"/>
<path class="bond-17 atom-16 atom-18" d="M 215.5,169.6 L 211.2,144.6" style="fill:none;fill-rule:evenodd;stroke:#000000;stroke-width:2.0px;stroke-linecap:butt;stroke-linejoin:miter;stroke-opacity:1"/>
<path class="bond-17 atom-16 atom-18" d="M 211.2,144.6 L 206.9,119.6" style="fill:none;fill-rule:evenodd;stroke:#FF0000;stroke-width:2.0px;stroke-linecap:butt;stroke-linejoin:miter;stroke-opacity:1"/>
<path class="bond-18 atom-5 atom-19" d="M 778.9,100.7 L 783.0,124.7" style="fill:none;fill-rule:evenodd;stroke:#000000;stroke-width:2.0px;stroke-linecap:butt;stroke-linejoin:miter;stroke-opacity:1"/>
<path class="bond-18 atom-5 atom-19" d="M 783.0,124.7 L 787.1,148.6" style="fill:none;fill-rule:evenodd;stroke:#CCCC00;stroke-width:2.0px;stroke-linecap:butt;stroke-linejoin:miter;stroke-opacity:1"/>
<path class="bond-19 atom-19 atom-20" d="M 781.6,165.0 L 762.5,180.8" style="fill:none;fill-rule:evenodd;stroke:#CCCC00;stroke-width:2.0px;stroke-linecap:butt;stroke-linejoin:miter;stroke-opacity:1"/>
<path class="bond-19 atom-19 atom-20" d="M 762.5,180.8 L 743.5,196.6" style="fill:none;fill-rule:evenodd;stroke:#000000;stroke-width:2.0px;stroke-linecap:butt;stroke-linejoin:miter;stroke-opacity:1"/>
<path class="bond-20 atom-20 atom-21" d="M 743.5,196.6 L 753.4,254.9" style="fill:none;fill-rule:evenodd;stroke:#000000;stroke-width:2.0px;stroke-linecap:butt;stroke-linejoin:miter;stroke-opacity:1"/>
<path class="bond-21 atom-21 atom-22" d="M 753.4,254.9 L 777.0,263.6" style="fill:none;fill-rule:evenodd;stroke:#000000;stroke-width:2.0px;stroke-linecap:butt;stroke-linejoin:miter;stroke-opacity:1"/>
<path class="bond-21 atom-21 atom-22" d="M 777.0,263.6 L 800.5,272.3" style="fill:none;fill-rule:evenodd;stroke:#0000FF;stroke-width:2.0px;stroke-linecap:butt;stroke-linejoin:miter;stroke-opacity:1"/>
<path class="bond-22 atom-22 atom-23" d="M 810.6,285.7 L 814.6,309.6" style="fill:none;fill-rule:evenodd;stroke:#0000FF;stroke-width:2.0px;stroke-linecap:butt;stroke-linejoin:miter;stroke-opacity:1"/>
<path class="bond-22 atom-22 atom-23" d="M 814.6,309.6 L 818.7,333.6" style="fill:none;fill-rule:evenodd;stroke:#000000;stroke-width:2.0px;stroke-linecap:butt;stroke-linejoin:miter;stroke-opacity:1"/>
<path class="bond-23 atom-23 atom-24" d="M 818.7,333.6 L 874.1,354.0" style="fill:none;fill-rule:evenodd;stroke:#000000;stroke-width:2.0px;stroke-linecap:butt;stroke-linejoin:miter;stroke-opacity:1"/>
<path class="bond-24 atom-23 atom-25" d="M 817.9,328.5 L 799.0,344.2" style="fill:none;fill-rule:evenodd;stroke:#000000;stroke-width:2.0px;stroke-linecap:butt;stroke-linejoin:miter;stroke-opacity:1"/>
<path class="bond-24 atom-23 atom-25" d="M 799.0,344.2 L 780.1,359.9" style="fill:none;fill-rule:evenodd;stroke:#FF0000;stroke-width:2.0px;stroke-linecap:butt;stroke-linejoin:miter;stroke-opacity:1"/>
<path class="bond-24 atom-23 atom-25" d="M 823.5,335.3 L 804.7,351.0" style="fill:none;fill-rule:evenodd;stroke:#000000;stroke-width:2.0px;stroke-linecap:butt;stroke-linejoin:miter;stroke-opacity:1"/>
<path class="bond-24 atom-23 atom-25" d="M 804.7,351.0 L 785.8,366.7" style="fill:none;fill-rule:evenodd;stroke:#FF0000;stroke-width:2.0px;stroke-linecap:butt;stroke-linejoin:miter;stroke-opacity:1"/>
<path class="bond-25 atom-21 atom-26" d="M 753.4,254.9 L 708.0,292.6" style="fill:none;fill-rule:evenodd;stroke:#000000;stroke-width:2.0px;stroke-linecap:butt;stroke-linejoin:miter;stroke-opacity:1"/>
<path class="bond-26 atom-26 atom-27" d="M 711.9,289.3 L 687.8,280.4" style="fill:none;fill-rule:evenodd;stroke:#000000;stroke-width:2.0px;stroke-linecap:butt;stroke-linejoin:miter;stroke-opacity:1"/>
<path class="bond-26 atom-26 atom-27" d="M 687.8,280.4 L 663.7,271.5" style="fill:none;fill-rule:evenodd;stroke:#FF0000;stroke-width:2.0px;stroke-linecap:butt;stroke-linejoin:miter;stroke-opacity:1"/>
<path class="bond-26 atom-26 atom-27" d="M 708.8,297.6 L 684.7,288.7" style="fill:none;fill-rule:evenodd;stroke:#000000;stroke-width:2.0px;stroke-linecap:butt;stroke-linejoin:miter;stroke-opacity:1"/>
<path class="bond-26 atom-26 atom-27" d="M 684.7,288.7 L 660.7,279.8" style="fill:none;fill-rule:evenodd;stroke:#FF0000;stroke-width:2.0px;stroke-linecap:butt;stroke-linejoin:miter;stroke-opacity:1"/>
<path class="bond-27 atom-26 atom-28" d="M 708.0,292.6 L 712.0,316.5" style="fill:none;fill-rule:evenodd;stroke:#000000;stroke-width:2.0px;stroke-linecap:butt;stroke-linejoin:miter;stroke-opacity:1"/>
<path class="bond-27 atom-26 atom-28" d="M 712.0,316.5 L 716.1,340.4" style="fill:none;fill-rule:evenodd;stroke:#FF0000;stroke-width:2.0px;stroke-linecap:butt;stroke-linejoin:miter;stroke-opacity:1"/>
<path d="M 926.4,46.2 L 925.2,45.7 L 922.9,47.6" style="fill:none;stroke:#000000;stroke-width:2.0px;stroke-linecap:butt;stroke-linejoin:miter;stroke-opacity:1;"/>
<path d="M 882.0,81.6 L 879.8,83.5 L 877.0,82.4" style="fill:none;stroke:#000000;stroke-width:2.0px;stroke-linecap:butt;stroke-linejoin:miter;stroke-opacity:1;"/>
<path d="M 827.2,64.0 L 824.4,63.0 L 822.1,64.9" style="fill:none;stroke:#000000;stroke-width:2.0px;stroke-linecap:butt;stroke-linejoin:miter;stroke-opacity:1;"/>
<path d="M 726.3,81.2 L 723.6,80.2 L 721.3,82.1" style="fill:none;stroke:#000000;stroke-width:2.0px;stroke-linecap:butt;stroke-linejoin:miter;stroke-opacity:1;"/>
<path d="M 680.4,116.0 L 678.1,117.9 L 675.3,116.9" style="fill:none;stroke:#000000;stroke-width:2.0px;stroke-linecap:butt;stroke-linejoin:miter;stroke-opacity:1;"/>
<path d="M 625.5,98.5 L 622.7,97.4 L 620.4,99.3" style="fill:none;stroke:#000000;stroke-width:2.0px;stroke-linecap:butt;stroke-linejoin:miter;stroke-opacity:1;"/>
<path d="M 579.6,133.3 L 577.3,135.2 L 574.5,134.1" style="fill:none;stroke:#000000;stroke-width:2.0px;stroke-linecap:butt;stroke-linejoin:miter;stroke-opacity:1;"/>
<path d="M 524.7,115.7 L 521.9,114.7 L 519.6,116.6" style="fill:none;stroke:#000000;stroke-width:2.0px;stroke-linecap:butt;stroke-linejoin:miter;stroke-opacity:1;"/>
<path d="M 478.7,150.5 L 476.4,152.4 L 473.7,151.4" style="fill:none;stroke:#000000;stroke-width:2.0px;stroke-linecap:butt;stroke-linejoin:miter;stroke-opacity:1;"/>
<path d="M 423.8,132.9 L 421.1,131.9 L 418.8,133.8" style="fill:none;stroke:#000000;stroke-width:2.0px;stroke-linecap:butt;stroke-linejoin:miter;stroke-opacity:1;"/>
<path d="M 377.9,167.8 L 375.6,169.6 L 372.8,168.6" style="fill:none;stroke:#000000;stroke-width:2.0px;stroke-linecap:butt;stroke-linejoin:miter;stroke-opacity:1;"/>
<path d="M 323.0,150.2 L 320.2,149.1 L 318.0,151.0" style="fill:none;stroke:#000000;stroke-width:2.0px;stroke-linecap:butt;stroke-linejoin:miter;stroke-opacity:1;"/>
<path d="M 277.1,185.0 L 274.8,186.9 L 272.0,185.8" style="fill:none;stroke:#000000;stroke-width:2.0px;stroke-linecap:butt;stroke-linejoin:miter;stroke-opacity:1;"/>
<path d="M 222.2,167.4 L 219.4,166.4 L 218.4,167.2" style="fill:none;stroke:#000000;stroke-width:2.0px;stroke-linecap:butt;stroke-linejoin:miter;stroke-opacity:1;"/>
<path d="M 744.4,195.8 L 743.5,196.6 L 743.9,199.5" style="fill:none;stroke:#000000;stroke-width:2.0px;stroke-linecap:butt;stroke-linejoin:miter;stroke-opacity:1;"/>
<path d="M 818.5,332.4 L 818.7,333.6 L 821.5,334.6" style="fill:none;stroke:#000000;stroke-width:2.0px;stroke-linecap:butt;stroke-linejoin:miter;stroke-opacity:1;"/>
<path d="M 710.2,290.7 L 708.0,292.6 L 708.2,293.8" style="fill:none;stroke:#000000;stroke-width:2.0px;stroke-linecap:butt;stroke-linejoin:miter;stroke-opacity:1;"/>
<path class="atom-0" d="M 1022.9 26.6 L 1025.3 24.1 L 1022.1 23.5 L 1022.6 21.8 L 1025.6 23.3 L 1025.2 20.0 L 1026.9 20.0 L 1026.4 23.3 L 1029.5 21.9 L 1030.0 23.5 L 1026.7 24.1 L 1029.1 26.6 L 1027.6 27.7 L 1026.0 24.5 L 1024.3 27.7 L 1022.9 26.6 " fill="#191919"/>
<path class="atom-1" d="M 972.9 66.3 Q 972.9 62.3, 974.9 60.0 Q 976.9 57.8, 980.6 57.8 Q 984.3 57.8, 986.3 60.0 Q 988.3 62.3, 988.3 66.3 Q 988.3 70.3, 986.3 72.7 Q 984.3 74.9, 980.6 74.9 Q 976.9 74.9, 974.9 72.7 Q 972.9 70.4, 972.9 66.3 M 980.6 73.1 Q 983.2 73.1, 984.5 71.4 Q 985.9 69.6, 985.9 66.3 Q 985.9 63.0, 984.5 61.3 Q 983.2 59.7, 980.6 59.7 Q 978.1 59.7, 976.7 61.3 Q 975.3 63.0, 975.3 66.3 Q 975.3 69.7, 976.7 71.4 Q 978.1 73.1, 980.6 73.1 " fill="#FF0000"/>
<path class="atom-17" d="M 170.8 202.2 L 173.3 199.7 L 170.0 199.1 L 170.5 197.4 L 173.5 198.9 L 173.1 195.6 L 174.8 195.6 L 174.3 198.9 L 177.4 197.5 L 177.9 199.1 L 174.6 199.7 L 177.0 202.2 L 175.5 203.3 L 173.9 200.1 L 172.2 203.3 L 170.8 202.2 " fill="#191919"/>
<path class="atom-18" d="M 201.8 108.2 Q 201.8 104.2, 203.8 102.0 Q 205.7 99.7, 209.4 99.7 Q 213.2 99.7, 215.1 102.0 Q 217.1 104.2, 217.1 108.2 Q 217.1 112.3, 215.1 114.6 Q 213.1 116.9, 209.4 116.9 Q 205.8 116.9, 203.8 114.6 Q 201.8 112.3, 201.8 108.2 M 209.4 115.0 Q 212.0 115.0, 213.4 113.3 Q 214.8 111.6, 214.8 108.2 Q 214.8 104.9, 213.4 103.3 Q 212.0 101.6, 209.4 101.6 Q 206.9 101.6, 205.5 103.3 Q 204.1 104.9, 204.1 108.2 Q 204.1 111.6, 205.5 113.3 Q 206.9 115.0, 209.4 115.0 " fill="#FF0000"/>
<path class="atom-19" d="M 784.2 164.7 Q 784.4 164.7, 785.1 165.1 Q 785.9 165.4, 786.8 165.6 Q 787.6 165.8, 788.5 165.8 Q 790.1 165.8, 791.0 165.0 Q 791.9 164.3, 791.9 162.9 Q 791.9 162.0, 791.4 161.4 Q 791.0 160.9, 790.3 160.5 Q 789.6 160.2, 788.4 159.9 Q 786.9 159.4, 786.0 159.0 Q 785.1 158.6, 784.5 157.7 Q 783.9 156.8, 783.9 155.3 Q 783.9 153.2, 785.3 151.9 Q 786.7 150.6, 789.6 150.6 Q 791.5 150.6, 793.7 151.5 L 793.2 153.3 Q 791.2 152.5, 789.6 152.5 Q 788.0 152.5, 787.1 153.2 Q 786.2 153.8, 786.2 155.0 Q 786.2 155.9, 786.7 156.4 Q 787.2 157.0, 787.8 157.3 Q 788.5 157.6, 789.6 157.9 Q 791.2 158.4, 792.1 158.9 Q 793.0 159.4, 793.6 160.3 Q 794.3 161.3, 794.3 162.9 Q 794.3 165.2, 792.7 166.5 Q 791.2 167.7, 788.6 167.7 Q 787.1 167.7, 786.0 167.4 Q 784.9 167.1, 783.5 166.5 L 784.2 164.7 " fill="#CCCC00"/>
<path class="atom-22" d="M 805.1 267.0 L 810.6 275.8 Q 811.1 276.7, 812.0 278.3 Q 812.9 279.9, 812.9 280.0 L 812.9 267.0 L 815.1 267.0 L 815.1 283.7 L 812.8 283.7 L 807.0 274.0 Q 806.3 272.9, 805.5 271.6 Q 804.8 270.3, 804.6 269.9 L 804.6 283.7 L 802.5 283.7 L 802.5 267.0 L 805.1 267.0 " fill="#0000FF"/>
<path class="atom-22" d="M 818.4 267.0 L 820.7 267.0 L 820.7 274.1 L 829.2 274.1 L 829.2 267.0 L 831.5 267.0 L 831.5 283.7 L 829.2 283.7 L 829.2 276.0 L 820.7 276.0 L 820.7 283.7 L 818.4 283.7 L 818.4 267.0 " fill="#0000FF"/>
<path class="atom-25" d="M 765.6 371.3 Q 765.6 367.3, 767.6 365.1 Q 769.6 362.8, 773.3 362.8 Q 777.0 362.8, 779.0 365.1 Q 781.0 367.3, 781.0 371.3 Q 781.0 375.4, 779.0 377.7 Q 777.0 380.0, 773.3 380.0 Q 769.6 380.0, 767.6 377.7 Q 765.6 375.4, 765.6 371.3 M 773.3 378.1 Q 775.9 378.1, 777.2 376.4 Q 778.6 374.7, 778.6 371.3 Q 778.6 368.0, 777.2 366.4 Q 775.9 364.7, 773.3 364.7 Q 770.8 364.7, 769.4 366.4 Q 768.0 368.0, 768.0 371.3 Q 768.0 374.7, 769.4 376.4 Q 770.8 378.1, 773.3 378.1 " fill="#FF0000"/>
<path class="atom-27" d="M 644.9 272.1 Q 644.9 268.1, 646.9 265.9 Q 648.9 263.6, 652.6 263.6 Q 656.3 263.6, 658.3 265.9 Q 660.2 268.1, 660.2 272.1 Q 660.2 276.2, 658.2 278.5 Q 656.2 280.8, 652.6 280.8 Q 648.9 280.8, 646.9 278.5 Q 644.9 276.2, 644.9 272.1 M 652.6 278.9 Q 655.1 278.9, 656.5 277.2 Q 657.9 275.5, 657.9 272.1 Q 657.9 268.9, 656.5 267.2 Q 655.1 265.5, 652.6 265.5 Q 650.0 265.5, 648.6 267.2 Q 647.3 268.8, 647.3 272.1 Q 647.3 275.5, 648.6 277.2 Q 650.0 278.9, 652.6 278.9 " fill="#FF0000"/>
<path class="atom-28" d="M 710.2 350.8 Q 710.2 346.8, 712.2 344.6 Q 714.2 342.3, 717.9 342.3 Q 721.6 342.3, 723.6 344.6 Q 725.6 346.8, 725.6 350.8 Q 725.6 354.9, 723.6 357.2 Q 721.6 359.5, 717.9 359.5 Q 714.2 359.5, 712.2 357.2 Q 710.2 354.9, 710.2 350.8 M 717.9 357.6 Q 720.5 357.6, 721.8 355.9 Q 723.2 354.2, 723.2 350.8 Q 723.2 347.6, 721.8 345.9 Q 720.5 344.2, 717.9 344.2 Q 715.4 344.2, 714.0 345.9 Q 712.6 347.5, 712.6 350.8 Q 712.6 354.2, 714.0 355.9 Q 715.4 357.6, 717.9 357.6 " fill="#FF0000"/>
<path class="atom-28" d="M 728.2 342.5 L 730.5 342.5 L 730.5 349.6 L 739.0 349.6 L 739.0 342.5 L 741.3 342.5 L 741.3 359.2 L 739.0 359.2 L 739.0 351.5 L 730.5 351.5 L 730.5 359.2 L 728.2 359.2 L 728.2 342.5 " fill="#FF0000"/>
<path class="bond-0 atom-0 atom-1" d="M 467.1,656.0 L 488.7,661.8" style="fill:none;fill-rule:evenodd;stroke:#191919;stroke-width:2.0px;stroke-linecap:butt;stroke-linejoin:miter;stroke-opacity:1"/>
<path class="bond-0 atom-0 atom-1" d="M 488.7,661.8 L 510.4,667.6" style="fill:none;fill-rule:evenodd;stroke:#FF0000;stroke-width:2.0px;stroke-linecap:butt;stroke-linejoin:miter;stroke-opacity:1"/>
<path class="bond-1 atom-1 atom-2" d="M 529.6,660.5 L 545.7,644.5" style="fill:none;fill-rule:evenodd;stroke:#FF0000;stroke-width:2.0px;stroke-linecap:butt;stroke-linejoin:miter;stroke-opacity:1"/>
<path class="bond-1 atom-1 atom-2" d="M 545.7,644.5 L 561.8,628.4" style="fill:none;fill-rule:evenodd;stroke:#000000;stroke-width:2.0px;stroke-linecap:butt;stroke-linejoin:miter;stroke-opacity:1"/>
<path class="bond-2 atom-2 atom-3" d="M 561.8,628.4 L 546.5,571.3" style="fill:none;fill-rule:evenodd;stroke:#000000;stroke-width:2.0px;stroke-linecap:butt;stroke-linejoin:miter;stroke-opacity:1"/>
<path class="bond-3 atom-3 atom-4" d="M 546.5,571.3 L 489.4,556.1" style="fill:none;fill-rule:evenodd;stroke:#000000;stroke-width:2.0px;stroke-linecap:butt;stroke-linejoin:miter;stroke-opacity:1"/>
<path class="bond-4 atom-4 atom-5" d="M 489.4,556.1 L 483.2,532.9" style="fill:none;fill-rule:evenodd;stroke:#000000;stroke-width:2.0px;stroke-linecap:butt;stroke-linejoin:miter;stroke-opacity:1"/>
<path class="bond-4 atom-4 atom-5" d="M 483.2,532.9 L 477.0,509.7" style="fill:none;fill-rule:evenodd;stroke:#FF0000;stroke-width:2.0px;stroke-linecap:butt;stroke-linejoin:miter;stroke-opacity:1"/>
<path class="bond-5 atom-3 atom-6" d="M 546.5,571.3 L 562.6,555.3" style="fill:none;fill-rule:evenodd;stroke:#000000;stroke-width:2.0px;stroke-linecap:butt;stroke-linejoin:miter;stroke-opacity:1"/>
<path class="bond-5 atom-3 atom-6" d="M 562.6,555.3 L 578.6,539.2" style="fill:none;fill-rule:evenodd;stroke:#FF0000;stroke-width:2.0px;stroke-linecap:butt;stroke-linejoin:miter;stroke-opacity:1"/>
<path class="bond-6 atom-6 atom-7" d="M 597.9,532.2 L 621.6,538.5" style="fill:none;fill-rule:evenodd;stroke:#FF0000;stroke-width:2.0px;stroke-linecap:butt;stroke-linejoin:miter;stroke-opacity:1"/>
<path class="bond-6 atom-6 atom-7" d="M 621.6,538.5 L 645.3,544.9" style="fill:none;fill-rule:evenodd;stroke:#000000;stroke-width:2.0px;stroke-linecap:butt;stroke-linejoin:miter;stroke-opacity:1"/>
<path class="bond-7 atom-7 atom-8" d="M 645.3,544.9 L 665.6,524.5" style="fill:none;fill-rule:evenodd;stroke:#000000;stroke-width:2.0px;stroke-linecap:butt;stroke-linejoin:miter;stroke-opacity:1"/>
<path class="bond-7 atom-7 atom-8" d="M 665.6,524.5 L 686.0,504.2" style="fill:none;fill-rule:evenodd;stroke:#191919;stroke-width:2.0px;stroke-linecap:butt;stroke-linejoin:miter;stroke-opacity:1"/>
<path class="bond-8 atom-7 atom-9" d="M 645.3,544.9 L 660.6,601.9" style="fill:none;fill-rule:evenodd;stroke:#000000;stroke-width:2.0px;stroke-linecap:butt;stroke-linejoin:miter;stroke-opacity:1"/>
<path class="bond-9 atom-9 atom-10" d="M 660.6,601.9 L 684.3,608.3" style="fill:none;fill-rule:evenodd;stroke:#000000;stroke-width:2.0px;stroke-linecap:butt;stroke-linejoin:miter;stroke-opacity:1"/>
<path class="bond-9 atom-9 atom-10" d="M 684.3,608.3 L 708.0,614.6" style="fill:none;fill-rule:evenodd;stroke:#FF0000;stroke-width:2.0px;stroke-linecap:butt;stroke-linejoin:miter;stroke-opacity:1"/>
<path class="bond-10 atom-9 atom-11" d="M 660.6,601.9 L 618.8,643.7" style="fill:none;fill-rule:evenodd;stroke:#000000;stroke-width:2.0px;stroke-linecap:butt;stroke-linejoin:miter;stroke-opacity:1"/>
<path class="bond-11 atom-11 atom-12" d="M 618.8,643.7 L 625.1,667.0" style="fill:none;fill-rule:evenodd;stroke:#000000;stroke-width:2.0px;stroke-linecap:butt;stroke-linejoin:miter;stroke-opacity:1"/>
<path class="bond-11 atom-11 atom-12" d="M 625.1,667.0 L 631.3,690.3" style="fill:none;fill-rule:evenodd;stroke:#FF0000;stroke-width:2.0px;stroke-linecap:butt;stroke-linejoin:miter;stroke-opacity:1"/>
<path class="bond-12 atom-11 atom-2" d="M 618.8,643.7 L 561.8,628.4" style="fill:none;fill-rule:evenodd;stroke:#000000;stroke-width:2.0px;stroke-linecap:butt;stroke-linejoin:miter;stroke-opacity:1"/>
<path d="M 492.3,556.8 L 489.4,556.1 L 489.1,554.9" style="fill:none;stroke:#000000;stroke-width:2.0px;stroke-linecap:butt;stroke-linejoin:miter;stroke-opacity:1;"/>
<path class="atom-0" d="M 459.8 653.0 L 462.3 650.5 L 459.0 649.8 L 459.5 648.2 L 462.5 649.7 L 462.1 646.4 L 463.8 646.4 L 463.4 649.6 L 466.4 648.2 L 466.9 649.8 L 463.6 650.5 L 466.0 653.0 L 464.5 654.0 L 462.9 650.9 L 461.3 654.0 L 459.8 653.0 " fill="#191919"/>
<path class="atom-1" d="M 512.3 670.2 Q 512.3 666.2, 514.3 663.9 Q 516.3 661.7, 520.0 661.7 Q 523.7 661.7, 525.7 663.9 Q 527.7 666.2, 527.7 670.2 Q 527.7 674.3, 525.7 676.6 Q 523.7 678.9, 520.0 678.9 Q 516.3 678.9, 514.3 676.6 Q 512.3 674.3, 512.3 670.2 M 520.0 677.0 Q 522.6 677.0, 523.9 675.3 Q 525.3 673.6, 525.3 670.2 Q 525.3 666.9, 523.9 665.3 Q 522.6 663.6, 520.0 663.6 Q 517.5 663.6, 516.1 665.2 Q 514.7 666.9, 514.7 670.2 Q 514.7 673.6, 516.1 675.3 Q 517.5 677.0, 520.0 677.0 " fill="#FF0000"/>
<path class="atom-5" d="M 466.5 499.1 Q 466.5 495.0, 468.5 492.8 Q 470.4 490.6, 474.2 490.6 Q 477.9 490.6, 479.8 492.8 Q 481.8 495.0, 481.8 499.1 Q 481.8 503.1, 479.8 505.4 Q 477.8 507.7, 474.2 507.7 Q 470.5 507.7, 468.5 505.4 Q 466.5 503.1, 466.5 499.1 M 474.2 505.8 Q 476.7 505.8, 478.1 504.1 Q 479.5 502.4, 479.5 499.1 Q 479.5 495.8, 478.1 494.1 Q 476.7 492.4, 474.2 492.4 Q 471.6 492.4, 470.2 494.1 Q 468.8 495.8, 468.8 499.1 Q 468.8 502.4, 470.2 504.1 Q 471.6 505.8, 474.2 505.8 " fill="#FF0000"/>
<path class="atom-5" d="M 484.4 490.7 L 486.7 490.7 L 486.7 497.9 L 495.3 497.9 L 495.3 490.7 L 497.5 490.7 L 497.5 507.5 L 495.3 507.5 L 495.3 499.7 L 486.7 499.7 L 486.7 507.5 L 484.4 507.5 L 484.4 490.7 " fill="#FF0000"/>
<path class="atom-6" d="M 580.6 529.6 Q 580.6 525.6, 582.6 523.4 Q 584.5 521.1, 588.2 521.1 Q 592.0 521.1, 593.9 523.4 Q 595.9 525.6, 595.9 529.6 Q 595.9 533.7, 593.9 536.0 Q 591.9 538.3, 588.2 538.3 Q 584.6 538.3, 582.6 536.0 Q 580.6 533.7, 580.6 529.6 M 588.2 536.4 Q 590.8 536.4, 592.2 534.7 Q 593.6 533.0, 593.6 529.6 Q 593.6 526.3, 592.2 524.7 Q 590.8 523.0, 588.2 523.0 Q 585.7 523.0, 584.3 524.7 Q 582.9 526.3, 582.9 529.6 Q 582.9 533.0, 584.3 534.7 Q 585.7 536.4, 588.2 536.4 " fill="#FF0000"/>
<path class="atom-8" d="M 683.9 501.2 L 686.4 498.7 L 683.1 498.1 L 683.6 496.4 L 686.6 497.9 L 686.2 494.6 L 687.9 494.6 L 687.4 497.9 L 690.5 496.5 L 691.0 498.1 L 687.7 498.7 L 690.1 501.2 L 688.6 502.3 L 687.0 499.1 L 685.3 502.3 L 683.9 501.2 " fill="#191919"/>
<path class="atom-10" d="M 709.9 617.3 Q 709.9 613.2, 711.9 611.0 Q 713.9 608.7, 717.6 608.7 Q 721.3 608.7, 723.3 611.0 Q 725.3 613.2, 725.3 617.3 Q 725.3 621.3, 723.3 623.6 Q 721.3 625.9, 717.6 625.9 Q 713.9 625.9, 711.9 623.6 Q 709.9 621.3, 709.9 617.3 M 717.6 624.0 Q 720.2 624.0, 721.5 622.3 Q 722.9 620.6, 722.9 617.3 Q 722.9 614.0, 721.5 612.3 Q 720.2 610.6, 717.6 610.6 Q 715.1 610.6, 713.7 612.3 Q 712.3 613.9, 712.3 617.3 Q 712.3 620.6, 713.7 622.3 Q 715.1 624.0, 717.6 624.0 " fill="#FF0000"/>
<path class="atom-10" d="M 727.9 608.9 L 730.2 608.9 L 730.2 616.0 L 738.7 616.0 L 738.7 608.9 L 741.0 608.9 L 741.0 625.7 L 738.7 625.7 L 738.7 617.9 L 730.2 617.9 L 730.2 625.7 L 727.9 625.7 L 727.9 608.9 " fill="#FF0000"/>
<path class="atom-12" d="M 626.4 700.8 Q 626.4 696.8, 628.4 694.5 Q 630.4 692.3, 634.1 692.3 Q 637.8 692.3, 639.8 694.5 Q 641.8 696.8, 641.8 700.8 Q 641.8 704.8, 639.8 707.2 Q 637.8 709.4, 634.1 709.4 Q 630.4 709.4, 628.4 707.2 Q 626.4 704.9, 626.4 700.8 M 634.1 707.6 Q 636.7 707.6, 638.0 705.9 Q 639.4 704.1, 639.4 700.8 Q 639.4 697.5, 638.0 695.8 Q 636.7 694.2, 634.1 694.2 Q 631.6 694.2, 630.2 695.8 Q 628.8 697.5, 628.8 700.8 Q 628.8 704.2, 630.2 705.9 Q 631.6 707.6, 634.1 707.6 " fill="#FF0000"/>
<path class="atom-12" d="M 644.4 692.5 L 646.7 692.5 L 646.7 699.6 L 655.2 699.6 L 655.2 692.5 L 657.5 692.5 L 657.5 709.2 L 655.2 709.2 L 655.2 701.5 L 646.7 701.5 L 646.7 709.2 L 644.4 709.2 L 644.4 692.5 " fill="#FF0000"/>
<path class="bond-0 atom-0 atom-1" d="M 401.7,1022.7 L 420.3,1013.4" style="fill:none;fill-rule:evenodd;stroke:#191919;stroke-width:2.0px;stroke-linecap:butt;stroke-linejoin:miter;stroke-opacity:1"/>
<path class="bond-0 atom-0 atom-1" d="M 420.3,1013.4 L 439.0,1004.1" style="fill:none;fill-rule:evenodd;stroke:#FF0000;stroke-width:2.0px;stroke-linecap:butt;stroke-linejoin:miter;stroke-opacity:1"/>
<path class="bond-1 atom-1 atom-2" d="M 458.3,1005.6 L 478.1,1018.7" style="fill:none;fill-rule:evenodd;stroke:#FF0000;stroke-width:2.0px;stroke-linecap:butt;stroke-linejoin:miter;stroke-opacity:1"/>
<path class="bond-1 atom-1 atom-2" d="M 478.1,1018.7 L 497.9,1031.8" style="fill:none;fill-rule:evenodd;stroke:#000000;stroke-width:2.0px;stroke-linecap:butt;stroke-linejoin:miter;stroke-opacity:1"/>
<path class="bond-2 atom-2 atom-3" d="M 497.9,1031.8 L 550.7,1005.4" style="fill:none;fill-rule:evenodd;stroke:#000000;stroke-width:2.0px;stroke-linecap:butt;stroke-linejoin:miter;stroke-opacity:1"/>
<path class="bond-3 atom-3 atom-4" d="M 550.7,1005.4 L 600.0,1038.0" style="fill:none;fill-rule:evenodd;stroke:#000000;stroke-width:2.0px;stroke-linecap:butt;stroke-linejoin:miter;stroke-opacity:1"/>
<path class="bond-4 atom-4 atom-5" d="M 600.0,1038.0 L 652.8,1011.6" style="fill:none;fill-rule:evenodd;stroke:#000000;stroke-width:2.0px;stroke-linecap:butt;stroke-linejoin:miter;stroke-opacity:1"/>
<path class="bond-5 atom-5 atom-6" d="M 652.8,1011.6 L 702.1,1044.2" style="fill:none;fill-rule:evenodd;stroke:#000000;stroke-width:2.0px;stroke-linecap:butt;stroke-linejoin:miter;stroke-opacity:1"/>
<path class="bond-6 atom-6 atom-7" d="M 702.1,1044.2 L 754.9,1017.8" style="fill:none;fill-rule:evenodd;stroke:#000000;stroke-width:2.0px;stroke-linecap:butt;stroke-linejoin:miter;stroke-opacity:1"/>
<path class="bond-7 atom-7 atom-8" d="M 754.9,1017.8 L 776.6,1032.2" style="fill:none;fill-rule:evenodd;stroke:#000000;stroke-width:2.0px;stroke-linecap:butt;stroke-linejoin:miter;stroke-opacity:1"/>
<path class="bond-7 atom-7 atom-8" d="M 776.6,1032.2 L 798.3,1046.5" style="fill:none;fill-rule:evenodd;stroke:#191919;stroke-width:2.0px;stroke-linecap:butt;stroke-linejoin:miter;stroke-opacity:1"/>
<path class="bond-8 atom-7 atom-9" d="M 759.2,1020.7 L 760.8,995.2" style="fill:none;fill-rule:evenodd;stroke:#000000;stroke-width:2.0px;stroke-linecap:butt;stroke-linejoin:miter;stroke-opacity:1"/>
<path class="bond-8 atom-7 atom-9" d="M 760.8,995.2 L 762.3,969.8" style="fill:none;fill-rule:evenodd;stroke:#FF0000;stroke-width:2.0px;stroke-linecap:butt;stroke-linejoin:miter;stroke-opacity:1"/>
<path class="bond-8 atom-7 atom-9" d="M 750.4,1020.1 L 751.9,994.7" style="fill:none;fill-rule:evenodd;stroke:#000000;stroke-width:2.0px;stroke-linecap:butt;stroke-linejoin:miter;stroke-opacity:1"/>
<path class="bond-8 atom-7 atom-9" d="M 751.9,994.7 L 753.5,969.3" style="fill:none;fill-rule:evenodd;stroke:#FF0000;stroke-width:2.0px;stroke-linecap:butt;stroke-linejoin:miter;stroke-opacity:1"/>
<path d="M 496.9,1031.2 L 497.9,1031.8 L 500.5,1030.5" style="fill:none;stroke:#000000;stroke-width:2.0px;stroke-linecap:butt;stroke-linejoin:miter;stroke-opacity:1;"/>
<path d="M 548.1,1006.8 L 550.7,1005.4 L 553.2,1007.1" style="fill:none;stroke:#000000;stroke-width:2.0px;stroke-linecap:butt;stroke-linejoin:miter;stroke-opacity:1;"/>
<path d="M 597.5,1036.4 L 600.0,1038.0 L 602.6,1036.7" style="fill:none;stroke:#000000;stroke-width:2.0px;stroke-linecap:butt;stroke-linejoin:miter;stroke-opacity:1;"/>
<path d="M 650.2,1013.0 L 652.8,1011.6 L 655.3,1013.3" style="fill:none;stroke:#000000;stroke-width:2.0px;stroke-linecap:butt;stroke-linejoin:miter;stroke-opacity:1;"/>
<path d="M 699.6,1042.6 L 702.1,1044.2 L 704.7,1042.9" style="fill:none;stroke:#000000;stroke-width:2.0px;stroke-linecap:butt;stroke-linejoin:miter;stroke-opacity:1;"/>
<path d="M 752.3,1019.2 L 754.9,1017.8 L 756.0,1018.6" style="fill:none;stroke:#000000;stroke-width:2.0px;stroke-linecap:butt;stroke-linejoin:miter;stroke-opacity:1;"/>
<path class="atom-0" d="M 392.6 1023.8 L 395.1 1021.3 L 391.8 1020.6 L 392.3 1018.9 L 395.3 1020.4 L 394.9 1017.1 L 396.7 1017.1 L 396.2 1020.4 L 399.2 1019.0 L 399.7 1020.6 L 396.4 1021.2 L 398.8 1023.7 L 397.4 1024.8 L 395.7 1021.7 L 394.1 1024.8 L 392.6 1023.8 " fill="#191919"/>
<path class="atom-1" d="M 441.0 999.3 Q 441.0 995.3, 442.9 993.0 Q 444.9 990.8, 448.6 990.8 Q 452.3 990.8, 454.3 993.0 Q 456.3 995.3, 456.3 999.3 Q 456.3 1003.4, 454.3 1005.7 Q 452.3 1008.0, 448.6 1008.0 Q 444.9 1008.0, 442.9 1005.7 Q 441.0 1003.4, 441.0 999.3 M 448.6 1006.1 Q 451.2 1006.1, 452.6 1004.4 Q 453.9 1002.7, 453.9 999.3 Q 453.9 996.0, 452.6 994.4 Q 451.2 992.7, 448.6 992.7 Q 446.1 992.7, 444.7 994.3 Q 443.3 996.0, 443.3 999.3 Q 443.3 1002.7, 444.7 1004.4 Q 446.1 1006.1, 448.6 1006.1 " fill="#FF0000"/>
<path class="atom-8" d="M 801.1 1048.5 L 803.5 1046.0 L 800.3 1045.4 L 800.8 1043.7 L 803.8 1045.2 L 803.3 1041.9 L 805.1 1041.9 L 804.6 1045.2 L 807.6 1043.8 L 808.2 1045.4 L 804.9 1046.0 L 807.2 1048.5 L 805.8 1049.6 L 804.2 1046.4 L 802.5 1049.6 L 801.1 1048.5 " fill="#191919"/>
<path class="atom-9" d="M 750.8 958.9 Q 750.8 954.9, 752.8 952.7 Q 754.8 950.4, 758.5 950.4 Q 762.2 950.4, 764.2 952.7 Q 766.2 954.9, 766.2 958.9 Q 766.2 963.0, 764.2 965.3 Q 762.2 967.6, 758.5 967.6 Q 754.8 967.6, 752.8 965.3 Q 750.8 963.0, 750.8 958.9 M 758.5 965.7 Q 761.1 965.7, 762.4 964.0 Q 763.8 962.3, 763.8 958.9 Q 763.8 955.7, 762.4 954.0 Q 761.1 952.3, 758.5 952.3 Q 756.0 952.3, 754.6 954.0 Q 753.2 955.6, 753.2 958.9 Q 753.2 962.3, 754.6 964.0 Q 756.0 965.7, 758.5 965.7 " fill="#FF0000"/>
</svg>