<svg xmlns="http://www.w3.org/2000/svg" xmlns:rdkit="http://www.rdkit.org/xml" xmlns:xlink="http://www.w3.org/1999/xlink" version="1.1" baseProfile="full" xml:space="preserve" width="1200px" height="1200px" viewBox="0 0 1200 1200">
<!-- END OF HEADER -->
<rect style="opacity:1.0;fill:#FFFFFF;stroke:none" width="1200.0" height="1200.0" x="0.0" y="0.0"> </rect>
<path class="bond-0 atom-0 atom-1" d="M 982.5,156.7 L 929.1,202.8" style="fill:none;fill-rule:evenodd;stroke:#191919;stroke-width:2.0px;stroke-linecap:butt;stroke-linejoin:miter;stroke-opacity:1"/>
<path class="bond-0 atom-0 atom-1" d="M 929.1,202.8 L 875.6,248.9" style="fill:none;fill-rule:evenodd;stroke:#FF0000;stroke-width:2.0px;stroke-linecap:butt;stroke-linejoin:miter;stroke-opacity:1"/>
<path class="bond-1 atom-1 atom-2" d="M 838.2,258.5 L 766.2,233.4" style="fill:none;fill-rule:evenodd;stroke:#FF0000;stroke-width:2.0px;stroke-linecap:butt;stroke-linejoin:miter;stroke-opacity:1"/>
<path class="bond-1 atom-1 atom-2" d="M 766.2,233.4 L 694.2,208.3" style="fill:none;fill-rule:evenodd;stroke:#000000;stroke-width:2.0px;stroke-linecap:butt;stroke-linejoin:miter;stroke-opacity:1"/>
<path class="bond-2 atom-2 atom-3" d="M 708.3,213.2 L 693.4,135.1" style="fill:none;fill-rule:evenodd;stroke:#000000;stroke-width:2.0px;stroke-linecap:butt;stroke-linejoin:miter;stroke-opacity:1"/>
<path class="bond-2 atom-2 atom-3" d="M 693.4,135.1 L 678.5,57.0" style="fill:none;fill-rule:evenodd;stroke:#FF0000;stroke-width:2.0px;stroke-linecap:butt;stroke-linejoin:miter;stroke-opacity:1"/>
<path class="bond-2 atom-2 atom-3" d="M 682.9,218.0 L 668.0,139.9" style="fill:none;fill-rule:evenodd;stroke:#000000;stroke-width:2.0px;stroke-linecap:butt;stroke-linejoin:miter;stroke-opacity:1"/>
<path class="bond-2 atom-2 atom-3" d="M 668.0,139.9 L 653.1,61.8" style="fill:none;fill-rule:evenodd;stroke:#FF0000;stroke-width:2.0px;stroke-linecap:butt;stroke-linejoin:miter;stroke-opacity:1"/>
<path class="bond-3 atom-2 atom-4" d="M 694.2,208.3 L 563.7,320.9" style="fill:none;fill-rule:evenodd;stroke:#000000;stroke-width:2.0px;stroke-linecap:butt;stroke-linejoin:miter;stroke-opacity:1"/>
<path class="bond-4 atom-4 atom-5" d="M 563.7,320.9 L 400.9,264.2" style="fill:none;fill-rule:evenodd;stroke:#000000;stroke-width:2.0px;stroke-linecap:butt;stroke-linejoin:miter;stroke-opacity:1"/>
<path class="bond-5 atom-5 atom-6" d="M 400.9,264.2 L 341.9,315.1" style="fill:none;fill-rule:evenodd;stroke:#000000;stroke-width:2.0px;stroke-linecap:butt;stroke-linejoin:miter;stroke-opacity:1"/>
<path class="bond-5 atom-5 atom-6" d="M 341.9,315.1 L 282.8,366.1" style="fill:none;fill-rule:evenodd;stroke:#191919;stroke-width:2.0px;stroke-linecap:butt;stroke-linejoin:miter;stroke-opacity:1"/>
<path class="bond-6 atom-5 atom-7" d="M 400.9,264.2 L 368.6,94.9" style="fill:none;fill-rule:evenodd;stroke:#000000;stroke-width:2.0px;stroke-linecap:butt;stroke-linejoin:miter;stroke-opacity:1"/>
<path class="bond-7 atom-7 atom-8" d="M 368.6,94.9 L 205.9,38.2" style="fill:none;fill-rule:evenodd;stroke:#000000;stroke-width:2.0px;stroke-linecap:butt;stroke-linejoin:miter;stroke-opacity:1"/>
<path d="M 697.8,209.5 L 694.2,208.3 L 687.6,213.9" style="fill:none;stroke:#000000;stroke-width:2.0px;stroke-linecap:butt;stroke-linejoin:miter;stroke-opacity:1;"/>
<path d="M 570.2,315.3 L 563.7,320.9 L 555.5,318.1" style="fill:none;stroke:#000000;stroke-width:2.0px;stroke-linecap:butt;stroke-linejoin:miter;stroke-opacity:1;"/>
<path d="M 370.3,103.3 L 368.6,94.9 L 360.5,92.0" style="fill:none;stroke:#000000;stroke-width:2.0px;stroke-linecap:butt;stroke-linejoin:miter;stroke-opacity:1;"/>
<path class="atom-0" d="M 982.1 149.2 L 986.2 145.0 L 980.7 143.9 L 981.6 141.0 L 986.6 143.6 L 985.9 138.0 L 988.9 138.0 L 988.1 143.6 L 993.2 141.2 L 994.1 143.9 L 988.5 144.9 L 992.5 149.2 L 990.1 151.0 L 987.3 145.7 L 984.5 151.0 L 982.1 149.2 " fill="#191919"/>
<path class="atom-1" d="M 843.9 265.1 Q 843.9 258.3, 847.3 254.5 Q 850.6 250.7, 856.9 250.7 Q 863.2 250.7, 866.6 254.5 Q 869.9 258.3, 869.9 265.1 Q 869.9 272.0, 866.5 275.9 Q 863.1 279.8, 856.9 279.8 Q 850.7 279.8, 847.3 275.9 Q 843.9 272.0, 843.9 265.1 M 856.9 276.6 Q 861.2 276.6, 863.6 273.7 Q 865.9 270.8, 865.9 265.1 Q 865.9 259.5, 863.6 256.7 Q 861.2 253.9, 856.9 253.9 Q 852.6 253.9, 850.2 256.7 Q 847.9 259.5, 847.9 265.1 Q 847.9 270.8, 850.2 273.7 Q 852.6 276.6, 856.9 276.6 " fill="#FF0000"/>
<path class="atom-3" d="M 648.9 39.1 Q 648.9 32.3, 652.3 28.5 Q 655.6 24.7, 661.9 24.7 Q 668.2 24.7, 671.5 28.5 Q 674.9 32.3, 674.9 39.1 Q 674.9 45.9, 671.5 49.9 Q 668.1 53.7, 661.9 53.7 Q 655.7 53.7, 652.3 49.9 Q 648.9 46.0, 648.9 39.1 M 661.9 50.5 Q 666.2 50.5, 668.5 47.7 Q 670.9 44.7, 670.9 39.1 Q 670.9 33.5, 668.5 30.7 Q 666.2 27.9, 661.9 27.9 Q 657.6 27.9, 655.2 30.7 Q 652.9 33.5, 652.9 39.1 Q 652.9 44.8, 655.2 47.7 Q 657.6 50.5, 661.9 50.5 " fill="#FF0000"/>
<path class="atom-6" d="M 265.1 373.6 L 269.2 369.4 L 263.7 368.3 L 264.5 365.4 L 269.6 368.0 L 268.9 362.4 L 271.9 362.4 L 271.1 367.9 L 276.2 365.5 L 277.1 368.3 L 271.5 369.3 L 275.5 373.6 L 273.1 375.3 L 270.3 370.1 L 267.5 375.3 L 265.1 373.6 " fill="#191919"/>
<path class="bond-0 atom-0 atom-1" d="M 965.4,644.1 L 904.3,680.5" style="fill:none;fill-rule:evenodd;stroke:#191919;stroke-width:2.0px;stroke-linecap:butt;stroke-linejoin:miter;stroke-opacity:1"/>
<path class="bond-0 atom-0 atom-1" d="M 904.3,680.5 L 843.1,716.9" style="fill:none;fill-rule:evenodd;stroke:#FF0000;stroke-width:2.0px;stroke-linecap:butt;stroke-linejoin:miter;stroke-opacity:1"/>
<path class="bond-1 atom-1 atom-2" d="M 805.8,717.6 L 739.9,680.7" style="fill:none;fill-rule:evenodd;stroke:#FF0000;stroke-width:2.0px;stroke-linecap:butt;stroke-linejoin:miter;stroke-opacity:1"/>
<path class="bond-1 atom-1 atom-2" d="M 739.9,680.7 L 674.1,643.9" style="fill:none;fill-rule:evenodd;stroke:#000000;stroke-width:2.0px;stroke-linecap:butt;stroke-linejoin:miter;stroke-opacity:1"/>
<path class="bond-2 atom-2 atom-3" d="M 687.1,651.2 L 686.0,571.5" style="fill:none;fill-rule:evenodd;stroke:#000000;stroke-width:2.0px;stroke-linecap:butt;stroke-linejoin:miter;stroke-opacity:1"/>
<path class="bond-2 atom-2 atom-3" d="M 686.0,571.5 L 685.0,491.8" style="fill:none;fill-rule:evenodd;stroke:#FF0000;stroke-width:2.0px;stroke-linecap:butt;stroke-linejoin:miter;stroke-opacity:1"/>
<path class="bond-2 atom-2 atom-3" d="M 661.2,651.5 L 660.2,571.8" style="fill:none;fill-rule:evenodd;stroke:#000000;stroke-width:2.0px;stroke-linecap:butt;stroke-linejoin:miter;stroke-opacity:1"/>
<path class="bond-2 atom-2 atom-3" d="M 660.2,571.8 L 659.1,492.1" style="fill:none;fill-rule:evenodd;stroke:#FF0000;stroke-width:2.0px;stroke-linecap:butt;stroke-linejoin:miter;stroke-opacity:1"/>
<path class="bond-3 atom-2 atom-4" d="M 674.1,643.9 L 525.9,732.0" style="fill:none;fill-rule:evenodd;stroke:#000000;stroke-width:2.0px;stroke-linecap:butt;stroke-linejoin:miter;stroke-opacity:1"/>
<path class="bond-4 atom-4 atom-5" d="M 525.9,732.0 L 375.5,647.8" style="fill:none;fill-rule:evenodd;stroke:#000000;stroke-width:2.0px;stroke-linecap:butt;stroke-linejoin:miter;stroke-opacity:1"/>
<path class="bond-5 atom-5 atom-6" d="M 375.5,647.8 L 307.7,688.2" style="fill:none;fill-rule:evenodd;stroke:#000000;stroke-width:2.0px;stroke-linecap:butt;stroke-linejoin:miter;stroke-opacity:1"/>
<path class="bond-5 atom-5 atom-6" d="M 307.7,688.2 L 239.8,728.6" style="fill:none;fill-rule:evenodd;stroke:#191919;stroke-width:2.0px;stroke-linecap:butt;stroke-linejoin:miter;stroke-opacity:1"/>
<path class="bond-6 atom-5 atom-7" d="M 375.5,647.8 L 373.2,475.5" style="fill:none;fill-rule:evenodd;stroke:#000000;stroke-width:2.0px;stroke-linecap:butt;stroke-linejoin:miter;stroke-opacity:1"/>
<path d="M 677.3,645.7 L 674.1,643.9 L 666.6,648.3" style="fill:none;stroke:#000000;stroke-width:2.0px;stroke-linecap:butt;stroke-linejoin:miter;stroke-opacity:1;"/>
<path d="M 533.4,727.6 L 525.9,732.0 L 518.4,727.8" style="fill:none;stroke:#000000;stroke-width:2.0px;stroke-linecap:butt;stroke-linejoin:miter;stroke-opacity:1;"/>
<path class="atom-0" d="M 967.2 636.7 L 971.4 632.5 L 965.9 631.4 L 966.7 628.5 L 971.8 631.1 L 971.1 625.5 L 974.1 625.5 L 973.2 631.0 L 978.4 628.6 L 979.3 631.4 L 973.7 632.4 L 977.7 636.7 L 975.2 638.4 L 972.5 633.2 L 969.7 638.4 L 967.2 636.7 " fill="#191919"/>
<path class="atom-1" d="M 811.5 728.1 Q 811.5 721.3, 814.8 717.5 Q 818.2 713.7, 824.5 713.7 Q 830.7 713.7, 834.1 717.5 Q 837.5 721.3, 837.5 728.1 Q 837.5 735.0, 834.1 738.9 Q 830.7 742.8, 824.5 742.8 Q 818.2 742.8, 814.8 738.9 Q 811.5 735.0, 811.5 728.1 M 824.5 739.6 Q 828.8 739.6, 831.1 736.7 Q 833.5 733.8, 833.5 728.1 Q 833.5 722.6, 831.1 719.8 Q 828.8 716.9, 824.5 716.9 Q 820.1 716.9, 817.8 719.7 Q 815.5 722.5, 815.5 728.1 Q 815.5 733.8, 817.8 736.7 Q 820.1 739.6, 824.5 739.6 " fill="#FF0000"/>
<path class="atom-3" d="M 658.8 471.6 Q 658.8 464.8, 662.1 461.0 Q 665.5 457.2, 671.8 457.2 Q 678.0 457.2, 681.4 461.0 Q 684.8 464.8, 684.8 471.6 Q 684.8 478.5, 681.4 482.4 Q 678.0 486.3, 671.8 486.3 Q 665.5 486.3, 662.1 482.4 Q 658.8 478.5, 658.8 471.6 M 671.8 483.1 Q 676.1 483.1, 678.4 480.2 Q 680.8 477.3, 680.8 471.6 Q 680.8 466.0, 678.4 463.2 Q 676.1 460.4, 671.8 460.4 Q 667.4 460.4, 665.1 463.2 Q 662.8 466.0, 662.8 471.6 Q 662.8 477.3, 665.1 480.2 Q 667.4 483.1, 671.8 483.1 " fill="#FF0000"/>
<path class="atom-6" d="M 222.1 732.8 L 226.3 728.6 L 220.7 727.5 L 221.6 724.6 L 226.7 727.2 L 225.9 721.6 L 228.9 721.6 L 228.1 727.2 L 233.3 724.8 L 234.1 727.5 L 228.5 728.5 L 232.5 732.8 L 230.1 734.6 L 227.3 729.3 L 224.5 734.6 L 222.1 732.8 " fill="#191919"/>
<path class="bond-0 atom-0 atom-1" d="M 509.8,999.8 L 580.4,999.8" style="fill:none;fill-rule:evenodd;stroke:#191919;stroke-width:2.0px;stroke-linecap:butt;stroke-linejoin:miter;stroke-opacity:1"/>
<path class="bond-0 atom-0 atom-1" d="M 580.4,999.8 L 651.1,999.8" style="fill:none;fill-rule:evenodd;stroke:#FF0000;stroke-width:2.0px;stroke-linecap:butt;stroke-linejoin:miter;stroke-opacity:1"/>
<path class="atom-0" d="M 492.0 996.7 L 496.2 992.4 L 490.7 991.3 L 491.5 988.5 L 496.6 991.0 L 495.9 985.5 L 498.9 985.4 L 498.0 991.0 L 503.2 988.6 L 504.1 991.3 L 498.5 992.3 L 502.5 996.6 L 500.0 998.4 L 497.3 993.1 L 494.5 998.4 L 492.0 996.7 " fill="#191919"/>
<path class="atom-1" d="M 656.7 999.9 Q 656.7 993.1, 660.1 989.3 Q 663.5 985.5, 669.7 985.5 Q 676.0 985.5, 679.4 989.3 Q 682.7 993.1, 682.7 999.9 Q 682.7 1006.8, 679.3 1010.7 Q 675.9 1014.6, 669.7 1014.6 Q 663.5 1014.6, 660.1 1010.7 Q 656.7 1006.8, 656.7 999.9 M 669.7 1011.4 Q 674.1 1011.4, 676.4 1008.5 Q 678.7 1005.6, 678.7 999.9 Q 678.7 994.3, 676.4 991.5 Q 674.1 988.7, 669.7 988.7 Q 665.4 988.7, 663.1 991.5 Q 660.7 994.3, 660.7 999.9 Q 660.7 1005.6, 663.1 1008.5 Q 665.4 1011.4, 669.7 1011.4 " fill="#FF0000"/>
<path class="atom-1" d="M 687.2 985.8 L 691.0 985.8 L 691.0 997.9 L 705.5 997.9 L 705.5 985.8 L 709.3 985.8 L 709.3 1014.1 L 705.5 1014.1 L 705.5 1001.1 L 691.0 1001.1 L 691.0 1014.1 L 687.2 1014.1 L 687.2 985.8 " fill="#FF0000"/>
</svg>