<svg xmlns="http://www.w3.org/2000/svg" xmlns:rdkit="http://www.rdkit.org/xml" xmlns:xlink="http://www.w3.org/1999/xlink" version="1.1" baseProfile="full" xml:space="preserve" width="1200px" height="1200px" viewBox="0 0 1200 1200">
<!-- END OF HEADER -->
<rect style="opacity:1.0;fill:#FFFFFF;stroke:none" width="1200.0" height="1200.0" x="0.0" y="0.0"> </rect>
<path class="bond-0 atom-0 atom-1" d="M 867.4,47.2 L 859.4,84.3" style="fill:none;fill-rule:evenodd;stroke:#191919;stroke-width:2.0px;stroke-linecap:butt;stroke-linejoin:miter;stroke-opacity:1"/>
<path class="bond-0 atom-0 atom-1" d="M 859.4,84.3 L 851.3,121.5" style="fill:none;fill-rule:evenodd;stroke:#FF0000;stroke-width:2.0px;stroke-linecap:butt;stroke-linejoin:miter;stroke-opacity:1"/>
<path class="bond-1 atom-1 atom-2" d="M 832.2,143.1 L 794.8,155.1" style="fill:none;fill-rule:evenodd;stroke:#FF0000;stroke-width:2.0px;stroke-linecap:butt;stroke-linejoin:miter;stroke-opacity:1"/>
<path class="bond-1 atom-1 atom-2" d="M 794.8,155.1 L 757.4,167.1" style="fill:none;fill-rule:evenodd;stroke:#000000;stroke-width:2.0px;stroke-linecap:butt;stroke-linejoin:miter;stroke-opacity:1"/>
<path class="bond-2 atom-2 atom-3" d="M 765.2,164.6 L 736.3,138.3" style="fill:none;fill-rule:evenodd;stroke:#000000;stroke-width:2.0px;stroke-linecap:butt;stroke-linejoin:miter;stroke-opacity:1"/>
<path class="bond-2 atom-2 atom-3" d="M 736.3,138.3 L 707.4,112.1" style="fill:none;fill-rule:evenodd;stroke:#FF0000;stroke-width:2.0px;stroke-linecap:butt;stroke-linejoin:miter;stroke-opacity:1"/>
<path class="bond-2 atom-2 atom-3" d="M 755.6,175.1 L 726.7,148.9" style="fill:none;fill-rule:evenodd;stroke:#000000;stroke-width:2.0px;stroke-linecap:butt;stroke-linejoin:miter;stroke-opacity:1"/>
<path class="bond-2 atom-2 atom-3" d="M 726.7,148.9 L 697.8,122.6" style="fill:none;fill-rule:evenodd;stroke:#FF0000;stroke-width:2.0px;stroke-linecap:butt;stroke-linejoin:miter;stroke-opacity:1"/>
<path class="bond-3 atom-2 atom-4" d="M 757.4,167.1 L 737.2,259.8" style="fill:none;fill-rule:evenodd;stroke:#000000;stroke-width:2.0px;stroke-linecap:butt;stroke-linejoin:miter;stroke-opacity:1"/>
<path class="bond-4 atom-4 atom-5" d="M 737.2,259.8 L 646.9,288.7" style="fill:none;fill-rule:evenodd;stroke:#000000;stroke-width:2.0px;stroke-linecap:butt;stroke-linejoin:miter;stroke-opacity:1"/>
<path class="bond-5 atom-5 atom-6" d="M 646.9,288.7 L 638.7,326.6" style="fill:none;fill-rule:evenodd;stroke:#000000;stroke-width:2.0px;stroke-linecap:butt;stroke-linejoin:miter;stroke-opacity:1"/>
<path class="bond-5 atom-5 atom-6" d="M 638.7,326.6 L 630.4,364.6" style="fill:none;fill-rule:evenodd;stroke:#191919;stroke-width:2.0px;stroke-linecap:butt;stroke-linejoin:miter;stroke-opacity:1"/>
<path class="bond-6 atom-5 atom-7" d="M 646.9,288.7 L 576.7,224.9" style="fill:none;fill-rule:evenodd;stroke:#000000;stroke-width:2.0px;stroke-linecap:butt;stroke-linejoin:miter;stroke-opacity:1"/>
<path class="bond-7 atom-7 atom-8" d="M 576.7,224.9 L 486.4,253.8" style="fill:none;fill-rule:evenodd;stroke:#000000;stroke-width:2.0px;stroke-linecap:butt;stroke-linejoin:miter;stroke-opacity:1"/>
<path class="bond-8 atom-8 atom-9" d="M 486.4,253.8 L 416.2,190.0" style="fill:none;fill-rule:evenodd;stroke:#000000;stroke-width:2.0px;stroke-linecap:butt;stroke-linejoin:miter;stroke-opacity:1"/>
<path class="bond-9 atom-9 atom-10" d="M 416.2,190.0 L 325.8,219.0" style="fill:none;fill-rule:evenodd;stroke:#000000;stroke-width:2.0px;stroke-linecap:butt;stroke-linejoin:miter;stroke-opacity:1"/>
<path class="bond-10 atom-9 atom-11" d="M 416.2,190.0 L 436.3,97.4" style="fill:none;fill-rule:evenodd;stroke:#000000;stroke-width:2.0px;stroke-linecap:butt;stroke-linejoin:miter;stroke-opacity:1"/>
<path class="bond-11 atom-11 atom-12" d="M 434.5,105.4 L 473.9,92.8" style="fill:none;fill-rule:evenodd;stroke:#000000;stroke-width:2.0px;stroke-linecap:butt;stroke-linejoin:miter;stroke-opacity:1"/>
<path class="bond-11 atom-11 atom-12" d="M 473.9,92.8 L 513.3,80.2" style="fill:none;fill-rule:evenodd;stroke:#FF0000;stroke-width:2.0px;stroke-linecap:butt;stroke-linejoin:miter;stroke-opacity:1"/>
<path class="bond-11 atom-11 atom-12" d="M 430.2,91.8 L 469.6,79.2" style="fill:none;fill-rule:evenodd;stroke:#000000;stroke-width:2.0px;stroke-linecap:butt;stroke-linejoin:miter;stroke-opacity:1"/>
<path class="bond-11 atom-11 atom-12" d="M 469.6,79.2 L 509.0,66.6" style="fill:none;fill-rule:evenodd;stroke:#FF0000;stroke-width:2.0px;stroke-linecap:butt;stroke-linejoin:miter;stroke-opacity:1"/>
<path class="bond-12 atom-11 atom-13" d="M 436.3,97.4 L 408.9,72.5" style="fill:none;fill-rule:evenodd;stroke:#000000;stroke-width:2.0px;stroke-linecap:butt;stroke-linejoin:miter;stroke-opacity:1"/>
<path class="bond-12 atom-11 atom-13" d="M 408.9,72.5 L 381.5,47.6" style="fill:none;fill-rule:evenodd;stroke:#FF0000;stroke-width:2.0px;stroke-linecap:butt;stroke-linejoin:miter;stroke-opacity:1"/>
<path d="M 759.2,166.5 L 757.4,167.1 L 756.4,171.7" style="fill:none;stroke:#000000;stroke-width:2.0px;stroke-linecap:butt;stroke-linejoin:miter;stroke-opacity:1;"/>
<path d="M 738.2,255.1 L 737.2,259.8 L 732.7,261.2" style="fill:none;stroke:#000000;stroke-width:2.0px;stroke-linecap:butt;stroke-linejoin:miter;stroke-opacity:1;"/>
<path d="M 580.2,228.1 L 576.7,224.9 L 572.2,226.4" style="fill:none;stroke:#000000;stroke-width:2.0px;stroke-linecap:butt;stroke-linejoin:miter;stroke-opacity:1;"/>
<path d="M 490.9,252.4 L 486.4,253.8 L 482.9,250.6" style="fill:none;stroke:#000000;stroke-width:2.0px;stroke-linecap:butt;stroke-linejoin:miter;stroke-opacity:1;"/>
<path d="M 435.3,102.0 L 436.3,97.4 L 434.9,96.1" style="fill:none;stroke:#000000;stroke-width:2.0px;stroke-linecap:butt;stroke-linejoin:miter;stroke-opacity:1;"/>
<path class="atom-0" d="M 862.8 42.5 L 866.7 38.5 L 861.5 37.4 L 862.3 34.7 L 867.1 37.1 L 866.4 31.9 L 869.2 31.8 L 868.4 37.1 L 873.3 34.8 L 874.2 37.4 L 868.9 38.4 L 872.7 42.4 L 870.3 44.1 L 867.7 39.1 L 865.1 44.1 L 862.8 42.5 " fill="#191919"/>
<path class="atom-1" d="M 835.4 138.2 Q 835.4 131.8, 838.6 128.2 Q 841.7 124.6, 847.7 124.6 Q 853.7 124.6, 856.8 128.2 Q 860.0 131.8, 860.0 138.2 Q 860.0 144.8, 856.8 148.5 Q 853.6 152.2, 847.7 152.2 Q 841.8 152.2, 838.6 148.5 Q 835.4 144.8, 835.4 138.2 M 847.7 149.1 Q 851.8 149.1, 854.0 146.4 Q 856.2 143.6, 856.2 138.2 Q 856.2 133.0, 854.0 130.3 Q 851.8 127.6, 847.7 127.6 Q 843.6 127.6, 841.4 130.3 Q 839.2 132.9, 839.2 138.2 Q 839.2 143.7, 841.4 146.4 Q 843.6 149.1, 847.7 149.1 " fill="#FF0000"/>
<path class="atom-3" d="M 674.8 103.4 Q 674.8 96.9, 678.0 93.3 Q 681.2 89.7, 687.2 89.7 Q 693.1 89.7, 696.3 93.3 Q 699.5 96.9, 699.5 103.4 Q 699.5 109.9, 696.3 113.6 Q 693.0 117.3, 687.2 117.3 Q 681.2 117.3, 678.0 113.6 Q 674.8 109.9, 674.8 103.4 M 687.2 114.3 Q 691.3 114.3, 693.5 111.5 Q 695.7 108.8, 695.7 103.4 Q 695.7 98.1, 693.5 95.5 Q 691.3 92.8, 687.2 92.8 Q 683.1 92.8, 680.8 95.4 Q 678.6 98.1, 678.6 103.4 Q 678.6 108.8, 680.8 111.5 Q 683.1 114.3, 687.2 114.3 " fill="#FF0000"/>
<path class="atom-6" d="M 621.7 378.4 L 625.7 374.3 L 620.4 373.3 L 621.2 370.6 L 626.0 373.0 L 625.4 367.7 L 628.2 367.7 L 627.4 373.0 L 632.3 370.7 L 633.1 373.3 L 627.8 374.3 L 631.6 378.3 L 629.3 380.0 L 626.7 375.0 L 624.0 380.0 L 621.7 378.4 " fill="#191919"/>
<path class="atom-12" d="M 514.3 68.5 Q 514.3 62.1, 517.5 58.5 Q 520.7 54.9, 526.6 54.9 Q 532.6 54.9, 535.8 58.5 Q 538.9 62.1, 538.9 68.5 Q 538.9 75.0, 535.7 78.8 Q 532.5 82.4, 526.6 82.4 Q 520.7 82.4, 517.5 78.8 Q 514.3 75.1, 514.3 68.5 M 526.6 79.4 Q 530.7 79.4, 532.9 76.7 Q 535.2 73.9, 535.2 68.5 Q 535.2 63.2, 532.9 60.6 Q 530.7 57.9, 526.6 57.9 Q 522.5 57.9, 520.3 60.6 Q 518.1 63.2, 518.1 68.5 Q 518.1 73.9, 520.3 76.7 Q 522.5 79.4, 526.6 79.4 " fill="#FF0000"/>
<path class="atom-13" d="M 327.2 20.3 L 330.9 20.3 L 330.9 31.7 L 344.6 31.7 L 344.6 20.3 L 348.2 20.3 L 348.2 47.2 L 344.6 47.2 L 344.6 34.8 L 330.9 34.8 L 330.9 47.2 L 327.2 47.2 L 327.2 20.3 " fill="#FF0000"/>
<path class="atom-13" d="M 353.7 33.7 Q 353.7 27.2, 356.9 23.6 Q 360.1 20.0, 366.1 20.0 Q 372.0 20.0, 375.2 23.6 Q 378.4 27.2, 378.4 33.7 Q 378.4 40.2, 375.2 43.9 Q 372.0 47.6, 366.1 47.6 Q 360.2 47.6, 356.9 43.9 Q 353.7 40.2, 353.7 33.7 M 366.1 44.5 Q 370.2 44.5, 372.4 41.8 Q 374.6 39.0, 374.6 33.7 Q 374.6 28.4, 372.4 25.7 Q 370.2 23.0, 366.1 23.0 Q 362.0 23.0, 359.7 25.7 Q 357.5 28.3, 357.5 33.7 Q 357.5 39.1, 359.7 41.8 Q 362.0 44.5, 366.1 44.5 " fill="#FF0000"/>
<path class="bond-0 atom-0 atom-1" d="M 809.8,578.7 L 782.7,602.1" style="fill:none;fill-rule:evenodd;stroke:#191919;stroke-width:2.0px;stroke-linecap:butt;stroke-linejoin:miter;stroke-opacity:1"/>
<path class="bond-0 atom-0 atom-1" d="M 782.7,602.1 L 755.5,625.6" style="fill:none;fill-rule:evenodd;stroke:#FF0000;stroke-width:2.0px;stroke-linecap:butt;stroke-linejoin:miter;stroke-opacity:1"/>
<path class="bond-1 atom-1 atom-2" d="M 724.6,633.5 L 687.5,620.6" style="fill:none;fill-rule:evenodd;stroke:#FF0000;stroke-width:2.0px;stroke-linecap:butt;stroke-linejoin:miter;stroke-opacity:1"/>
<path class="bond-1 atom-1 atom-2" d="M 687.5,620.6 L 650.5,607.7" style="fill:none;fill-rule:evenodd;stroke:#000000;stroke-width:2.0px;stroke-linecap:butt;stroke-linejoin:miter;stroke-opacity:1"/>
<path class="bond-2 atom-2 atom-3" d="M 658.2,610.4 L 650.6,570.4" style="fill:none;fill-rule:evenodd;stroke:#000000;stroke-width:2.0px;stroke-linecap:butt;stroke-linejoin:miter;stroke-opacity:1"/>
<path class="bond-2 atom-2 atom-3" d="M 650.6,570.4 L 643.0,530.3" style="fill:none;fill-rule:evenodd;stroke:#FF0000;stroke-width:2.0px;stroke-linecap:butt;stroke-linejoin:miter;stroke-opacity:1"/>
<path class="bond-2 atom-2 atom-3" d="M 644.3,613.1 L 636.6,573.0" style="fill:none;fill-rule:evenodd;stroke:#000000;stroke-width:2.0px;stroke-linecap:butt;stroke-linejoin:miter;stroke-opacity:1"/>
<path class="bond-2 atom-2 atom-3" d="M 636.6,573.0 L 629.0,533.0" style="fill:none;fill-rule:evenodd;stroke:#FF0000;stroke-width:2.0px;stroke-linecap:butt;stroke-linejoin:miter;stroke-opacity:1"/>
<path class="bond-3 atom-2 atom-4" d="M 650.5,607.7 L 578.7,669.7" style="fill:none;fill-rule:evenodd;stroke:#000000;stroke-width:2.0px;stroke-linecap:butt;stroke-linejoin:miter;stroke-opacity:1"/>
<path class="bond-4 atom-4 atom-5" d="M 578.7,669.7 L 489.1,638.5" style="fill:none;fill-rule:evenodd;stroke:#000000;stroke-width:2.0px;stroke-linecap:butt;stroke-linejoin:miter;stroke-opacity:1"/>
<path class="bond-5 atom-5 atom-6" d="M 489.1,638.5 L 457.9,665.3" style="fill:none;fill-rule:evenodd;stroke:#000000;stroke-width:2.0px;stroke-linecap:butt;stroke-linejoin:miter;stroke-opacity:1"/>
<path class="bond-5 atom-5 atom-6" d="M 457.9,665.3 L 426.8,692.2" style="fill:none;fill-rule:evenodd;stroke:#191919;stroke-width:2.0px;stroke-linecap:butt;stroke-linejoin:miter;stroke-opacity:1"/>
<path class="bond-6 atom-5 atom-7" d="M 489.1,638.5 L 471.4,545.3" style="fill:none;fill-rule:evenodd;stroke:#000000;stroke-width:2.0px;stroke-linecap:butt;stroke-linejoin:miter;stroke-opacity:1"/>
<path class="bond-7 atom-7 atom-8" d="M 471.4,545.3 L 381.8,514.1" style="fill:none;fill-rule:evenodd;stroke:#000000;stroke-width:2.0px;stroke-linecap:butt;stroke-linejoin:miter;stroke-opacity:1"/>
<path d="M 652.3,608.3 L 650.5,607.7 L 646.9,610.8" style="fill:none;stroke:#000000;stroke-width:2.0px;stroke-linecap:butt;stroke-linejoin:miter;stroke-opacity:1;"/>
<path d="M 582.3,666.6 L 578.7,669.7 L 574.2,668.1" style="fill:none;stroke:#000000;stroke-width:2.0px;stroke-linecap:butt;stroke-linejoin:miter;stroke-opacity:1;"/>
<path d="M 472.2,549.9 L 471.4,545.3 L 466.9,543.7" style="fill:none;stroke:#000000;stroke-width:2.0px;stroke-linecap:butt;stroke-linejoin:miter;stroke-opacity:1;"/>
<path class="atom-0" d="M 806.8 574.0 L 810.7 569.9 L 805.5 568.9 L 806.3 566.2 L 811.1 568.6 L 810.4 563.3 L 813.3 563.3 L 812.5 568.6 L 817.4 566.3 L 818.2 568.9 L 812.9 569.9 L 816.7 573.9 L 814.4 575.6 L 811.8 570.6 L 809.1 575.6 L 806.8 574.0 " fill="#191919"/>
<path class="atom-1" d="M 727.7 639.0 Q 727.7 632.5, 730.9 628.9 Q 734.1 625.3, 740.0 625.3 Q 746.0 625.3, 749.2 628.9 Q 752.4 632.5, 752.4 639.0 Q 752.4 645.5, 749.2 649.2 Q 745.9 652.9, 740.0 652.9 Q 734.1 652.9, 730.9 649.2 Q 727.7 645.5, 727.7 639.0 M 740.0 649.9 Q 744.1 649.9, 746.3 647.1 Q 748.6 644.4, 748.6 639.0 Q 748.6 633.7, 746.3 631.1 Q 744.1 628.4, 740.0 628.4 Q 736.0 628.4, 733.7 631.0 Q 731.5 633.7, 731.5 639.0 Q 731.5 644.4, 733.7 647.1 Q 736.0 649.9, 740.0 649.9 " fill="#FF0000"/>
<path class="atom-3" d="M 620.4 514.6 Q 620.4 508.2, 623.6 504.6 Q 626.8 500.9, 632.7 500.9 Q 638.7 500.9, 641.9 504.6 Q 645.1 508.2, 645.1 514.6 Q 645.1 521.1, 641.8 524.9 Q 638.6 528.5, 632.7 528.5 Q 626.8 528.5, 623.6 524.9 Q 620.4 521.2, 620.4 514.6 M 632.7 525.5 Q 636.8 525.5, 639.0 522.8 Q 641.3 520.0, 641.3 514.6 Q 641.3 509.3, 639.0 506.7 Q 636.8 504.0, 632.7 504.0 Q 628.6 504.0, 626.4 506.6 Q 624.2 509.3, 624.2 514.6 Q 624.2 520.0, 626.4 522.8 Q 628.6 525.5, 632.7 525.5 " fill="#FF0000"/>
<path class="atom-6" d="M 412.2 697.4 L 416.2 693.4 L 410.9 692.3 L 411.7 689.6 L 416.6 692.1 L 415.9 686.8 L 418.7 686.8 L 417.9 692.0 L 422.8 689.8 L 423.7 692.3 L 418.3 693.3 L 422.1 697.4 L 419.8 699.1 L 417.2 694.0 L 414.5 699.1 L 412.2 697.4 " fill="#191919"/>
<path class="bond-0 atom-0 atom-1" d="M 546.5,999.8 L 581.4,999.8" style="fill:none;fill-rule:evenodd;stroke:#191919;stroke-width:2.0px;stroke-linecap:butt;stroke-linejoin:miter;stroke-opacity:1"/>
<path class="bond-0 atom-0 atom-1" d="M 581.4,999.8 L 616.4,999.8" style="fill:none;fill-rule:evenodd;stroke:#FF0000;stroke-width:2.0px;stroke-linecap:butt;stroke-linejoin:miter;stroke-opacity:1"/>
<path class="atom-0" d="M 531.9 996.8 L 535.9 992.8 L 530.6 991.7 L 531.4 989.1 L 536.2 991.5 L 535.6 986.2 L 538.4 986.2 L 537.6 991.4 L 542.5 989.2 L 543.3 991.7 L 538.0 992.7 L 541.8 996.8 L 539.5 998.5 L 536.9 993.5 L 534.2 998.5 L 531.9 996.8 " fill="#191919"/>
<path class="atom-1" d="M 619.5 999.9 Q 619.5 993.5, 622.7 989.9 Q 625.9 986.2, 631.8 986.2 Q 637.8 986.2, 641.0 989.9 Q 644.2 993.5, 644.2 999.9 Q 644.2 1006.4, 640.9 1010.1 Q 637.7 1013.8, 631.8 1013.8 Q 625.9 1013.8, 622.7 1010.1 Q 619.5 1006.5, 619.5 999.9 M 631.8 1010.8 Q 635.9 1010.8, 638.1 1008.1 Q 640.4 1005.3, 640.4 999.9 Q 640.4 994.6, 638.1 992.0 Q 635.9 989.3, 631.8 989.3 Q 627.7 989.3, 625.5 991.9 Q 623.3 994.6, 623.3 999.9 Q 623.3 1005.3, 625.5 1008.1 Q 627.7 1010.8, 631.8 1010.8 " fill="#FF0000"/>
<path class="atom-1" d="M 648.3 986.6 L 652.0 986.6 L 652.0 998.0 L 665.7 998.0 L 665.7 986.6 L 669.4 986.6 L 669.4 1013.4 L 665.7 1013.4 L 665.7 1001.0 L 652.0 1001.0 L 652.0 1013.4 L 648.3 1013.4 L 648.3 986.6 " fill="#FF0000"/>
</svg>