<svg xmlns="http://www.w3.org/2000/svg" xmlns:rdkit="http://www.rdkit.org/xml" xmlns:xlink="http://www.w3.org/1999/xlink" version="1.1" baseProfile="full" xml:space="preserve" width="1200px" height="1200px" viewBox="0 0 1200 1200">
<!-- END OF HEADER -->
<rect style="opacity:1.0;fill:#FFFFFF;stroke:none" width="1200.0" height="1200.0" x="0.0" y="0.0"> </rect>
<path class="bond-0 atom-0 atom-1" d="M 915.6,38.0 L 894.8,53.9" style="fill:none;fill-rule:evenodd;stroke:#191919;stroke-width:2.0px;stroke-linecap:butt;stroke-linejoin:miter;stroke-opacity:1"/>
<path class="bond-0 atom-0 atom-1" d="M 894.8,53.9 L 874.1,69.7" style="fill:none;fill-rule:evenodd;stroke:#FF0000;stroke-width:2.0px;stroke-linecap:butt;stroke-linejoin:miter;stroke-opacity:1"/>
<path class="bond-1 atom-1 atom-2" d="M 864.5,90.6 L 868.1,118.3" style="fill:none;fill-rule:evenodd;stroke:#FF0000;stroke-width:2.0px;stroke-linecap:butt;stroke-linejoin:miter;stroke-opacity:1"/>
<path class="bond-1 atom-1 atom-2" d="M 868.1,118.3 L 871.7,146.1" style="fill:none;fill-rule:evenodd;stroke:#000000;stroke-width:2.0px;stroke-linecap:butt;stroke-linejoin:miter;stroke-opacity:1"/>
<path class="bond-2 atom-2 atom-3" d="M 867.0,149.7 L 894.3,161.1" style="fill:none;fill-rule:evenodd;stroke:#000000;stroke-width:2.0px;stroke-linecap:butt;stroke-linejoin:miter;stroke-opacity:1"/>
<path class="bond-2 atom-2 atom-3" d="M 894.3,161.1 L 921.7,172.5" style="fill:none;fill-rule:evenodd;stroke:#FF0000;stroke-width:2.0px;stroke-linecap:butt;stroke-linejoin:miter;stroke-opacity:1"/>
<path class="bond-2 atom-2 atom-3" d="M 870.9,140.2 L 898.3,151.6" style="fill:none;fill-rule:evenodd;stroke:#000000;stroke-width:2.0px;stroke-linecap:butt;stroke-linejoin:miter;stroke-opacity:1"/>
<path class="bond-2 atom-2 atom-3" d="M 898.3,151.6 L 925.7,163.0" style="fill:none;fill-rule:evenodd;stroke:#FF0000;stroke-width:2.0px;stroke-linecap:butt;stroke-linejoin:miter;stroke-opacity:1"/>
<path class="bond-3 atom-2 atom-4" d="M 871.7,146.1 L 817.3,187.6" style="fill:none;fill-rule:evenodd;stroke:#000000;stroke-width:2.0px;stroke-linecap:butt;stroke-linejoin:miter;stroke-opacity:1"/>
<path class="bond-4 atom-4 atom-5" d="M 817.3,187.6 L 826.1,255.4" style="fill:none;fill-rule:evenodd;stroke:#000000;stroke-width:2.0px;stroke-linecap:butt;stroke-linejoin:miter;stroke-opacity:1"/>
<path class="bond-5 atom-5 atom-6" d="M 826.1,255.4 L 854.3,267.1" style="fill:none;fill-rule:evenodd;stroke:#000000;stroke-width:2.0px;stroke-linecap:butt;stroke-linejoin:miter;stroke-opacity:1"/>
<path class="bond-5 atom-5 atom-6" d="M 854.3,267.1 L 882.4,278.9" style="fill:none;fill-rule:evenodd;stroke:#191919;stroke-width:2.0px;stroke-linecap:butt;stroke-linejoin:miter;stroke-opacity:1"/>
<path class="bond-6 atom-5 atom-7" d="M 826.1,255.4 L 771.8,296.9" style="fill:none;fill-rule:evenodd;stroke:#000000;stroke-width:2.0px;stroke-linecap:butt;stroke-linejoin:miter;stroke-opacity:1"/>
<path class="bond-7 atom-7 atom-8" d="M 771.8,296.9 L 708.7,270.6" style="fill:none;fill-rule:evenodd;stroke:#000000;stroke-width:2.0px;stroke-linecap:butt;stroke-linejoin:miter;stroke-opacity:1"/>
<path class="bond-8 atom-8 atom-9" d="M 708.7,270.6 L 654.3,312.2" style="fill:none;fill-rule:evenodd;stroke:#000000;stroke-width:2.0px;stroke-linecap:butt;stroke-linejoin:miter;stroke-opacity:1"/>
<path class="bond-9 atom-9 atom-10" d="M 654.3,312.2 L 663.1,380.0" style="fill:none;fill-rule:evenodd;stroke:#000000;stroke-width:2.0px;stroke-linecap:butt;stroke-linejoin:miter;stroke-opacity:1"/>
<path class="bond-10 atom-9 atom-11" d="M 654.3,312.2 L 591.2,285.9" style="fill:none;fill-rule:evenodd;stroke:#000000;stroke-width:2.0px;stroke-linecap:butt;stroke-linejoin:miter;stroke-opacity:1"/>
<path class="bond-11 atom-11 atom-12" d="M 590.4,280.0 L 567.6,297.4" style="fill:none;fill-rule:evenodd;stroke:#000000;stroke-width:2.0px;stroke-linecap:butt;stroke-linejoin:miter;stroke-opacity:1"/>
<path class="bond-11 atom-11 atom-12" d="M 567.6,297.4 L 544.9,314.8" style="fill:none;fill-rule:evenodd;stroke:#FF0000;stroke-width:2.0px;stroke-linecap:butt;stroke-linejoin:miter;stroke-opacity:1"/>
<path class="bond-11 atom-11 atom-12" d="M 596.6,288.2 L 573.9,305.6" style="fill:none;fill-rule:evenodd;stroke:#000000;stroke-width:2.0px;stroke-linecap:butt;stroke-linejoin:miter;stroke-opacity:1"/>
<path class="bond-11 atom-11 atom-12" d="M 573.9,305.6 L 551.1,323.0" style="fill:none;fill-rule:evenodd;stroke:#FF0000;stroke-width:2.0px;stroke-linecap:butt;stroke-linejoin:miter;stroke-opacity:1"/>
<path class="bond-12 atom-11 atom-13" d="M 591.2,285.9 L 587.6,258.1" style="fill:none;fill-rule:evenodd;stroke:#000000;stroke-width:2.0px;stroke-linecap:butt;stroke-linejoin:miter;stroke-opacity:1"/>
<path class="bond-12 atom-11 atom-13" d="M 587.6,258.1 L 584.0,230.4" style="fill:none;fill-rule:evenodd;stroke:#FF0000;stroke-width:2.0px;stroke-linecap:butt;stroke-linejoin:miter;stroke-opacity:1"/>
<path class="bond-13 atom-13 atom-14" d="M 571.2,213.4 L 545.3,202.6" style="fill:none;fill-rule:evenodd;stroke:#FF0000;stroke-width:2.0px;stroke-linecap:butt;stroke-linejoin:miter;stroke-opacity:1"/>
<path class="bond-13 atom-13 atom-14" d="M 545.3,202.6 L 519.3,191.7" style="fill:none;fill-rule:evenodd;stroke:#000000;stroke-width:2.0px;stroke-linecap:butt;stroke-linejoin:miter;stroke-opacity:1"/>
<path class="bond-14 atom-14 atom-15" d="M 519.3,191.7 L 464.9,233.3" style="fill:none;fill-rule:evenodd;stroke:#000000;stroke-width:2.0px;stroke-linecap:butt;stroke-linejoin:miter;stroke-opacity:1"/>
<path class="bond-15 atom-15 atom-16" d="M 464.9,233.3 L 401.8,207.0" style="fill:none;fill-rule:evenodd;stroke:#000000;stroke-width:2.0px;stroke-linecap:butt;stroke-linejoin:miter;stroke-opacity:1"/>
<path class="bond-16 atom-16 atom-17" d="M 401.8,207.0 L 347.4,248.5" style="fill:none;fill-rule:evenodd;stroke:#000000;stroke-width:2.0px;stroke-linecap:butt;stroke-linejoin:miter;stroke-opacity:1"/>
<path class="bond-17 atom-17 atom-18" d="M 347.4,248.5 L 321.4,237.7" style="fill:none;fill-rule:evenodd;stroke:#000000;stroke-width:2.0px;stroke-linecap:butt;stroke-linejoin:miter;stroke-opacity:1"/>
<path class="bond-17 atom-17 atom-18" d="M 321.4,237.7 L 295.4,226.8" style="fill:none;fill-rule:evenodd;stroke:#FF0000;stroke-width:2.0px;stroke-linecap:butt;stroke-linejoin:miter;stroke-opacity:1"/>
<path class="bond-18 atom-16 atom-19" d="M 401.8,207.0 L 398.2,179.2" style="fill:none;fill-rule:evenodd;stroke:#000000;stroke-width:2.0px;stroke-linecap:butt;stroke-linejoin:miter;stroke-opacity:1"/>
<path class="bond-18 atom-16 atom-19" d="M 398.2,179.2 L 394.6,151.5" style="fill:none;fill-rule:evenodd;stroke:#FF0000;stroke-width:2.0px;stroke-linecap:butt;stroke-linejoin:miter;stroke-opacity:1"/>
<path class="bond-19 atom-19 atom-20" d="M 404.1,130.6 L 425.7,114.1" style="fill:none;fill-rule:evenodd;stroke:#FF0000;stroke-width:2.0px;stroke-linecap:butt;stroke-linejoin:miter;stroke-opacity:1"/>
<path class="bond-19 atom-19 atom-20" d="M 425.7,114.1 L 447.3,97.6" style="fill:none;fill-rule:evenodd;stroke:#000000;stroke-width:2.0px;stroke-linecap:butt;stroke-linejoin:miter;stroke-opacity:1"/>
<path class="bond-20 atom-20 atom-21" d="M 447.3,97.6 L 443.7,69.9" style="fill:none;fill-rule:evenodd;stroke:#000000;stroke-width:2.0px;stroke-linecap:butt;stroke-linejoin:miter;stroke-opacity:1"/>
<path class="bond-20 atom-20 atom-21" d="M 443.7,69.9 L 440.1,42.1" style="fill:none;fill-rule:evenodd;stroke:#FF0000;stroke-width:2.0px;stroke-linecap:butt;stroke-linejoin:miter;stroke-opacity:1"/>
<path class="bond-21 atom-20 atom-22" d="M 447.3,97.6 L 510.5,123.9" style="fill:none;fill-rule:evenodd;stroke:#000000;stroke-width:2.0px;stroke-linecap:butt;stroke-linejoin:miter;stroke-opacity:1"/>
<path class="bond-22 atom-22 atom-23" d="M 510.5,123.9 L 532.1,107.4" style="fill:none;fill-rule:evenodd;stroke:#000000;stroke-width:2.0px;stroke-linecap:butt;stroke-linejoin:miter;stroke-opacity:1"/>
<path class="bond-22 atom-22 atom-23" d="M 532.1,107.4 L 553.7,90.9" style="fill:none;fill-rule:evenodd;stroke:#FF0000;stroke-width:2.0px;stroke-linecap:butt;stroke-linejoin:miter;stroke-opacity:1"/>
<path class="bond-23 atom-22 atom-14" d="M 510.5,123.9 L 519.3,191.7" style="fill:none;fill-rule:evenodd;stroke:#000000;stroke-width:2.0px;stroke-linecap:butt;stroke-linejoin:miter;stroke-opacity:1"/>
<path d="M 871.5,144.7 L 871.7,146.1 L 869.0,148.1" style="fill:none;stroke:#000000;stroke-width:2.0px;stroke-linecap:butt;stroke-linejoin:miter;stroke-opacity:1;"/>
<path d="M 820.1,185.5 L 817.3,187.6 L 817.8,191.0" style="fill:none;stroke:#000000;stroke-width:2.0px;stroke-linecap:butt;stroke-linejoin:miter;stroke-opacity:1;"/>
<path d="M 774.5,294.9 L 771.8,296.9 L 768.6,295.6" style="fill:none;stroke:#000000;stroke-width:2.0px;stroke-linecap:butt;stroke-linejoin:miter;stroke-opacity:1;"/>
<path d="M 711.8,272.0 L 708.7,270.6 L 705.9,272.7" style="fill:none;stroke:#000000;stroke-width:2.0px;stroke-linecap:butt;stroke-linejoin:miter;stroke-opacity:1;"/>
<path d="M 594.3,287.2 L 591.2,285.9 L 591.0,284.5" style="fill:none;stroke:#000000;stroke-width:2.0px;stroke-linecap:butt;stroke-linejoin:miter;stroke-opacity:1;"/>
<path d="M 467.6,231.2 L 464.9,233.3 L 461.8,232.0" style="fill:none;stroke:#000000;stroke-width:2.0px;stroke-linecap:butt;stroke-linejoin:miter;stroke-opacity:1;"/>
<path d="M 350.2,246.4 L 347.4,248.5 L 346.1,248.0" style="fill:none;stroke:#000000;stroke-width:2.0px;stroke-linecap:butt;stroke-linejoin:miter;stroke-opacity:1;"/>
<path class="atom-0" d="M 913.6 34.6 L 916.4 31.7 L 912.7 30.9 L 913.2 28.9 L 916.7 30.7 L 916.2 26.9 L 918.3 26.9 L 917.7 30.7 L 921.2 29.0 L 921.8 30.9 L 918.0 31.6 L 920.7 34.5 L 919.1 35.7 L 917.2 32.1 L 915.3 35.7 L 913.6 34.6 " fill="#191919"/>
<path class="atom-1" d="M 854.0 78.3 Q 854.0 73.6, 856.3 71.1 Q 858.6 68.5, 862.9 68.5 Q 867.2 68.5, 869.5 71.1 Q 871.8 73.6, 871.8 78.3 Q 871.8 83.0, 869.5 85.7 Q 867.1 88.3, 862.9 88.3 Q 858.6 88.3, 856.3 85.7 Q 854.0 83.0, 854.0 78.3 M 862.9 86.2 Q 865.9 86.2, 867.4 84.2 Q 869.1 82.2, 869.1 78.3 Q 869.1 74.5, 867.4 72.6 Q 865.9 70.6, 862.9 70.6 Q 859.9 70.6, 858.3 72.6 Q 856.7 74.5, 856.7 78.3 Q 856.7 82.2, 858.3 84.2 Q 859.9 86.2, 862.9 86.2 " fill="#FF0000"/>
<path class="atom-3" d="M 925.9 172.4 Q 925.9 167.8, 928.2 165.2 Q 930.5 162.6, 934.8 162.6 Q 939.1 162.6, 941.4 165.2 Q 943.7 167.8, 943.7 172.4 Q 943.7 177.1, 941.4 179.8 Q 939.1 182.5, 934.8 182.5 Q 930.6 182.5, 928.2 179.8 Q 925.9 177.2, 925.9 172.4 M 934.8 180.3 Q 937.8 180.3, 939.4 178.3 Q 941.0 176.3, 941.0 172.4 Q 941.0 168.6, 939.4 166.7 Q 937.8 164.8, 934.8 164.8 Q 931.9 164.8, 930.3 166.7 Q 928.7 168.6, 928.7 172.4 Q 928.7 176.3, 930.3 178.3 Q 931.9 180.3, 934.8 180.3 " fill="#FF0000"/>
<path class="atom-6" d="M 885.6 279.6 L 888.5 276.7 L 884.7 275.9 L 885.3 274.0 L 888.7 275.7 L 888.2 271.9 L 890.3 271.9 L 889.7 275.7 L 893.3 274.0 L 893.9 275.9 L 890.0 276.6 L 892.8 279.5 L 891.1 280.7 L 889.2 277.1 L 887.3 280.7 L 885.6 279.6 " fill="#191919"/>
<path class="atom-12" d="M 527.9 327.5 Q 527.9 322.8, 530.2 320.2 Q 532.5 317.6, 536.8 317.6 Q 541.1 317.6, 543.4 320.2 Q 545.7 322.8, 545.7 327.5 Q 545.7 332.2, 543.4 334.8 Q 541.1 337.5, 536.8 337.5 Q 532.6 337.5, 530.2 334.8 Q 527.9 332.2, 527.9 327.5 M 536.8 335.3 Q 539.8 335.3, 541.4 333.3 Q 543.0 331.3, 543.0 327.5 Q 543.0 323.7, 541.4 321.7 Q 539.8 319.8, 536.8 319.8 Q 533.9 319.8, 532.3 321.7 Q 530.7 323.6, 530.7 327.5 Q 530.7 331.4, 532.3 333.3 Q 533.9 335.3, 536.8 335.3 " fill="#FF0000"/>
<path class="atom-13" d="M 573.5 218.1 Q 573.5 213.5, 575.8 210.9 Q 578.1 208.3, 582.4 208.3 Q 586.7 208.3, 589.0 210.9 Q 591.3 213.5, 591.3 218.1 Q 591.3 222.8, 589.0 225.5 Q 586.6 228.1, 582.4 228.1 Q 578.1 228.1, 575.8 225.5 Q 573.5 222.8, 573.5 218.1 M 582.4 226.0 Q 585.3 226.0, 586.9 224.0 Q 588.5 222.0, 588.5 218.1 Q 588.5 214.3, 586.9 212.4 Q 585.3 210.4, 582.4 210.4 Q 579.4 210.4, 577.8 212.4 Q 576.2 214.3, 576.2 218.1 Q 576.2 222.0, 577.8 224.0 Q 579.4 226.0, 582.4 226.0 " fill="#FF0000"/>
<path class="atom-18" d="M 256.3 212.6 L 258.9 212.6 L 258.9 220.9 L 268.8 220.9 L 268.8 212.6 L 271.4 212.6 L 271.4 232.0 L 268.8 232.0 L 268.8 223.0 L 258.9 223.0 L 258.9 232.0 L 256.3 232.0 L 256.3 212.6 " fill="#FF0000"/>
<path class="atom-18" d="M 275.4 222.3 Q 275.4 217.6, 277.7 215.0 Q 280.0 212.4, 284.3 212.4 Q 288.6 212.4, 290.9 215.0 Q 293.2 217.6, 293.2 222.3 Q 293.2 227.0, 290.9 229.6 Q 288.5 232.3, 284.3 232.3 Q 280.0 232.3, 277.7 229.6 Q 275.4 227.0, 275.4 222.3 M 284.3 230.1 Q 287.3 230.1, 288.8 228.1 Q 290.5 226.1, 290.5 222.3 Q 290.5 218.4, 288.8 216.5 Q 287.3 214.6, 284.3 214.6 Q 281.3 214.6, 279.7 216.5 Q 278.1 218.4, 278.1 222.3 Q 278.1 226.2, 279.7 228.1 Q 281.3 230.1, 284.3 230.1 " fill="#FF0000"/>
<path class="atom-19" d="M 384.1 139.2 Q 384.1 134.5, 386.4 132.0 Q 388.7 129.4, 393.0 129.4 Q 397.3 129.4, 399.6 132.0 Q 401.9 134.5, 401.9 139.2 Q 401.9 143.9, 399.6 146.6 Q 397.2 149.2, 393.0 149.2 Q 388.7 149.2, 386.4 146.6 Q 384.1 143.9, 384.1 139.2 M 393.0 147.1 Q 395.9 147.1, 397.5 145.1 Q 399.1 143.1, 399.1 139.2 Q 399.1 135.4, 397.5 133.5 Q 395.9 131.5, 393.0 131.5 Q 390.0 131.5, 388.4 133.5 Q 386.8 135.4, 386.8 139.2 Q 386.8 143.1, 388.4 145.1 Q 390.0 147.1, 393.0 147.1 " fill="#FF0000"/>
<path class="atom-21" d="M 429.7 29.8 Q 429.7 25.2, 431.9 22.6 Q 434.2 20.0, 438.5 20.0 Q 442.8 20.0, 445.1 22.6 Q 447.4 25.2, 447.4 29.8 Q 447.4 34.6, 445.1 37.2 Q 442.8 39.9, 438.5 39.9 Q 434.3 39.9, 431.9 37.2 Q 429.7 34.6, 429.7 29.8 M 438.5 37.7 Q 441.5 37.7, 443.1 35.7 Q 444.7 33.7, 444.7 29.8 Q 444.7 26.0, 443.1 24.1 Q 441.5 22.2, 438.5 22.2 Q 435.6 22.2, 434.0 24.1 Q 432.4 26.0, 432.4 29.8 Q 432.4 33.8, 434.0 35.7 Q 435.6 37.7, 438.5 37.7 " fill="#FF0000"/>
<path class="atom-21" d="M 450.4 20.2 L 453.1 20.2 L 453.1 28.5 L 463.0 28.5 L 463.0 20.2 L 465.6 20.2 L 465.6 39.6 L 463.0 39.6 L 463.0 30.6 L 453.1 30.6 L 453.1 39.6 L 450.4 39.6 L 450.4 20.2 " fill="#FF0000"/>
<path class="atom-23" d="M 555.9 82.4 Q 555.9 77.8, 558.2 75.2 Q 560.5 72.6, 564.8 72.6 Q 569.1 72.6, 571.4 75.2 Q 573.7 77.8, 573.7 82.4 Q 573.7 87.2, 571.4 89.8 Q 569.1 92.5, 564.8 92.5 Q 560.5 92.5, 558.2 89.8 Q 555.9 87.2, 555.9 82.4 M 564.8 90.3 Q 567.8 90.3, 569.4 88.3 Q 571.0 86.3, 571.0 82.4 Q 571.0 78.6, 569.4 76.7 Q 567.8 74.8, 564.8 74.8 Q 561.9 74.8, 560.2 76.7 Q 558.7 78.6, 558.7 82.4 Q 558.7 86.4, 560.2 88.3 Q 561.9 90.3, 564.8 90.3 " fill="#FF0000"/>
<path class="atom-23" d="M 576.7 72.8 L 579.3 72.8 L 579.3 81.1 L 589.2 81.1 L 589.2 72.8 L 591.9 72.8 L 591.9 92.2 L 589.2 92.2 L 589.2 83.2 L 579.3 83.2 L 579.3 92.2 L 576.7 92.2 L 576.7 72.8 " fill="#FF0000"/>
<path class="bond-0 atom-0 atom-1" d="M 751.3,584.6 L 731.7,601.5" style="fill:none;fill-rule:evenodd;stroke:#191919;stroke-width:2.0px;stroke-linecap:butt;stroke-linejoin:miter;stroke-opacity:1"/>
<path class="bond-0 atom-0 atom-1" d="M 731.7,601.5 L 712.1,618.4" style="fill:none;fill-rule:evenodd;stroke:#FF0000;stroke-width:2.0px;stroke-linecap:butt;stroke-linejoin:miter;stroke-opacity:1"/>
<path class="bond-1 atom-1 atom-2" d="M 689.8,624.2 L 663.1,614.9" style="fill:none;fill-rule:evenodd;stroke:#FF0000;stroke-width:2.0px;stroke-linecap:butt;stroke-linejoin:miter;stroke-opacity:1"/>
<path class="bond-1 atom-1 atom-2" d="M 663.1,614.9 L 636.4,605.6" style="fill:none;fill-rule:evenodd;stroke:#000000;stroke-width:2.0px;stroke-linecap:butt;stroke-linejoin:miter;stroke-opacity:1"/>
<path class="bond-2 atom-2 atom-3" d="M 642.0,607.5 L 636.5,578.6" style="fill:none;fill-rule:evenodd;stroke:#000000;stroke-width:2.0px;stroke-linecap:butt;stroke-linejoin:miter;stroke-opacity:1"/>
<path class="bond-2 atom-2 atom-3" d="M 636.5,578.6 L 631.0,549.8" style="fill:none;fill-rule:evenodd;stroke:#FF0000;stroke-width:2.0px;stroke-linecap:butt;stroke-linejoin:miter;stroke-opacity:1"/>
<path class="bond-2 atom-2 atom-3" d="M 631.9,609.4 L 626.4,580.6" style="fill:none;fill-rule:evenodd;stroke:#000000;stroke-width:2.0px;stroke-linecap:butt;stroke-linejoin:miter;stroke-opacity:1"/>
<path class="bond-2 atom-2 atom-3" d="M 626.4,580.6 L 620.9,551.7" style="fill:none;fill-rule:evenodd;stroke:#FF0000;stroke-width:2.0px;stroke-linecap:butt;stroke-linejoin:miter;stroke-opacity:1"/>
<path class="bond-3 atom-2 atom-4" d="M 636.4,605.6 L 584.6,650.2" style="fill:none;fill-rule:evenodd;stroke:#000000;stroke-width:2.0px;stroke-linecap:butt;stroke-linejoin:miter;stroke-opacity:1"/>
<path class="bond-4 atom-4 atom-5" d="M 584.6,650.2 L 520.0,627.7" style="fill:none;fill-rule:evenodd;stroke:#000000;stroke-width:2.0px;stroke-linecap:butt;stroke-linejoin:miter;stroke-opacity:1"/>
<path class="bond-5 atom-5 atom-6" d="M 520.0,627.7 L 497.6,647.1" style="fill:none;fill-rule:evenodd;stroke:#000000;stroke-width:2.0px;stroke-linecap:butt;stroke-linejoin:miter;stroke-opacity:1"/>
<path class="bond-5 atom-5 atom-6" d="M 497.6,647.1 L 475.1,666.5" style="fill:none;fill-rule:evenodd;stroke:#191919;stroke-width:2.0px;stroke-linecap:butt;stroke-linejoin:miter;stroke-opacity:1"/>
<path class="bond-6 atom-5 atom-7" d="M 520.0,627.7 L 507.2,560.5" style="fill:none;fill-rule:evenodd;stroke:#000000;stroke-width:2.0px;stroke-linecap:butt;stroke-linejoin:miter;stroke-opacity:1"/>
<path class="bond-7 atom-7 atom-8" d="M 507.2,560.5 L 442.6,538.0" style="fill:none;fill-rule:evenodd;stroke:#000000;stroke-width:2.0px;stroke-linecap:butt;stroke-linejoin:miter;stroke-opacity:1"/>
<path d="M 637.7,606.0 L 636.4,605.6 L 633.8,607.8" style="fill:none;stroke:#000000;stroke-width:2.0px;stroke-linecap:butt;stroke-linejoin:miter;stroke-opacity:1;"/>
<path d="M 587.2,648.0 L 584.6,650.2 L 581.4,649.1" style="fill:none;stroke:#000000;stroke-width:2.0px;stroke-linecap:butt;stroke-linejoin:miter;stroke-opacity:1;"/>
<path d="M 507.9,563.9 L 507.2,560.5 L 504.0,559.4" style="fill:none;stroke:#000000;stroke-width:2.0px;stroke-linecap:butt;stroke-linejoin:miter;stroke-opacity:1;"/>
<path class="atom-0" d="M 749.1 581.2 L 752.0 578.3 L 748.2 577.6 L 748.8 575.6 L 752.2 577.4 L 751.7 573.6 L 753.8 573.5 L 753.2 577.3 L 756.8 575.7 L 757.4 577.6 L 753.5 578.3 L 756.3 581.2 L 754.6 582.4 L 752.7 578.8 L 750.8 582.4 L 749.1 581.2 " fill="#191919"/>
<path class="atom-1" d="M 692.1 628.1 Q 692.1 623.5, 694.4 620.9 Q 696.7 618.3, 701.0 618.3 Q 705.3 618.3, 707.6 620.9 Q 709.9 623.5, 709.9 628.1 Q 709.9 632.8, 707.6 635.5 Q 705.2 638.2, 701.0 638.2 Q 696.7 638.2, 694.4 635.5 Q 692.1 632.8, 692.1 628.1 M 701.0 636.0 Q 703.9 636.0, 705.5 634.0 Q 707.1 632.0, 707.1 628.1 Q 707.1 624.3, 705.5 622.4 Q 703.9 620.5, 701.0 620.5 Q 698.0 620.5, 696.4 622.4 Q 694.8 624.3, 694.8 628.1 Q 694.8 632.0, 696.4 634.0 Q 698.0 636.0, 701.0 636.0 " fill="#FF0000"/>
<path class="atom-3" d="M 614.7 538.4 Q 614.7 533.8, 617.0 531.2 Q 619.3 528.6, 623.6 528.6 Q 627.9 528.6, 630.2 531.2 Q 632.5 533.8, 632.5 538.4 Q 632.5 543.1, 630.2 545.8 Q 627.8 548.5, 623.6 548.5 Q 619.3 548.5, 617.0 545.8 Q 614.7 543.2, 614.7 538.4 M 623.6 546.3 Q 626.6 546.3, 628.1 544.3 Q 629.8 542.3, 629.8 538.4 Q 629.8 534.6, 628.1 532.7 Q 626.6 530.8, 623.6 530.8 Q 620.6 530.8, 619.0 532.7 Q 617.4 534.6, 617.4 538.4 Q 617.4 542.3, 619.0 544.3 Q 620.6 546.3, 623.6 546.3 " fill="#FF0000"/>
<path class="atom-6" d="M 464.6 670.2 L 467.4 667.3 L 463.7 666.6 L 464.2 664.6 L 467.7 666.4 L 467.2 662.6 L 469.3 662.6 L 468.7 666.4 L 472.2 664.7 L 472.8 666.6 L 469.0 667.3 L 471.7 670.2 L 470.1 671.4 L 468.2 667.8 L 466.3 671.4 L 464.6 670.2 " fill="#191919"/>
<path class="bond-0 atom-0 atom-1" d="M 561.4,999.9 L 586.6,999.9" style="fill:none;fill-rule:evenodd;stroke:#191919;stroke-width:2.0px;stroke-linecap:butt;stroke-linejoin:miter;stroke-opacity:1"/>
<path class="bond-0 atom-0 atom-1" d="M 586.6,999.9 L 611.8,999.9" style="fill:none;fill-rule:evenodd;stroke:#FF0000;stroke-width:2.0px;stroke-linecap:butt;stroke-linejoin:miter;stroke-opacity:1"/>
<path class="atom-0" d="M 550.9 997.7 L 553.8 994.8 L 550.0 994.0 L 550.6 992.1 L 554.0 993.9 L 553.5 990.1 L 555.6 990.0 L 555.0 993.8 L 558.5 992.2 L 559.1 994.0 L 555.3 994.8 L 558.1 997.7 L 556.4 998.9 L 554.5 995.3 L 552.6 998.9 L 550.9 997.7 " fill="#191919"/>
<path class="atom-1" d="M 614.1 999.9 Q 614.1 995.3, 616.4 992.7 Q 618.7 990.1, 623.0 990.1 Q 627.3 990.1, 629.6 992.7 Q 631.8 995.3, 631.8 999.9 Q 631.8 1004.6, 629.5 1007.3 Q 627.2 1010.0, 623.0 1010.0 Q 618.7 1010.0, 616.4 1007.3 Q 614.1 1004.7, 614.1 999.9 M 623.0 1007.8 Q 625.9 1007.8, 627.5 1005.8 Q 629.1 1003.8, 629.1 999.9 Q 629.1 996.1, 627.5 994.2 Q 625.9 992.3, 623.0 992.3 Q 620.0 992.3, 618.4 994.2 Q 616.8 996.1, 616.8 999.9 Q 616.8 1003.8, 618.4 1005.8 Q 620.0 1007.8, 623.0 1007.8 " fill="#FF0000"/>
<path class="atom-1" d="M 634.9 990.3 L 637.5 990.3 L 637.5 998.5 L 647.4 998.5 L 647.4 990.3 L 650.0 990.3 L 650.0 1009.7 L 647.4 1009.7 L 647.4 1000.7 L 637.5 1000.7 L 637.5 1009.7 L 634.9 1009.7 L 634.9 990.3 " fill="#FF0000"/>
</svg>