<svg xmlns="http://www.w3.org/2000/svg" xmlns:rdkit="http://www.rdkit.org/xml" xmlns:xlink="http://www.w3.org/1999/xlink" version="1.1" baseProfile="full" xml:space="preserve" width="1200px" height="1200px" viewBox="0 0 1200 1200">
<!-- END OF HEADER -->
<rect style="opacity:1.0;fill:#FFFFFF;stroke:none" width="1200.0" height="1200.0" x="0.0" y="0.0"> </rect>
<path class="bond-0 atom-0 atom-1" d="M 607.2,159.8 L 596.0,163.7" style="fill:none;fill-rule:evenodd;stroke:#191919;stroke-width:2.0px;stroke-linecap:butt;stroke-linejoin:miter;stroke-opacity:1"/>
<path class="bond-0 atom-0 atom-1" d="M 596.0,163.7 L 584.8,167.6" style="fill:none;fill-rule:evenodd;stroke:#FF0000;stroke-width:2.0px;stroke-linecap:butt;stroke-linejoin:miter;stroke-opacity:1"/>
<path class="bond-1 atom-1 atom-2" d="M 574.5,178.8 L 568.7,197.0" style="fill:none;fill-rule:evenodd;stroke:#FF0000;stroke-width:2.0px;stroke-linecap:butt;stroke-linejoin:miter;stroke-opacity:1"/>
<path class="bond-1 atom-1 atom-2" d="M 568.7,197.0 L 562.9,215.2" style="fill:none;fill-rule:evenodd;stroke:#000000;stroke-width:2.0px;stroke-linecap:butt;stroke-linejoin:miter;stroke-opacity:1"/>
<path class="bond-2 atom-2 atom-3" d="M 562.9,215.2 L 607.7,229.5" style="fill:none;fill-rule:evenodd;stroke:#000000;stroke-width:2.0px;stroke-linecap:butt;stroke-linejoin:miter;stroke-opacity:1"/>
<path class="bond-3 atom-3 atom-4" d="M 607.7,229.5 L 642.6,197.8" style="fill:none;fill-rule:evenodd;stroke:#000000;stroke-width:2.0px;stroke-linecap:butt;stroke-linejoin:miter;stroke-opacity:1"/>
<path class="bond-4 atom-4 atom-5" d="M 646.1,198.9 L 644.9,185.3" style="fill:none;fill-rule:evenodd;stroke:#000000;stroke-width:2.0px;stroke-linecap:butt;stroke-linejoin:miter;stroke-opacity:1"/>
<path class="bond-4 atom-4 atom-5" d="M 644.9,185.3 L 643.6,171.7" style="fill:none;fill-rule:evenodd;stroke:#FF0000;stroke-width:2.0px;stroke-linecap:butt;stroke-linejoin:miter;stroke-opacity:1"/>
<path class="bond-4 atom-4 atom-5" d="M 639.4,200.7 L 638.0,186.0" style="fill:none;fill-rule:evenodd;stroke:#000000;stroke-width:2.0px;stroke-linecap:butt;stroke-linejoin:miter;stroke-opacity:1"/>
<path class="bond-4 atom-4 atom-5" d="M 638.0,186.0 L 636.7,172.4" style="fill:none;fill-rule:evenodd;stroke:#FF0000;stroke-width:2.0px;stroke-linecap:butt;stroke-linejoin:miter;stroke-opacity:1"/>
<path class="bond-5 atom-4 atom-6" d="M 642.6,197.8 L 661.2,203.7" style="fill:none;fill-rule:evenodd;stroke:#000000;stroke-width:2.0px;stroke-linecap:butt;stroke-linejoin:miter;stroke-opacity:1"/>
<path class="bond-5 atom-4 atom-6" d="M 661.2,203.7 L 679.8,209.6" style="fill:none;fill-rule:evenodd;stroke:#FF0000;stroke-width:2.0px;stroke-linecap:butt;stroke-linejoin:miter;stroke-opacity:1"/>
<path class="bond-6 atom-6 atom-7" d="M 695.1,205.1 L 708.7,192.7" style="fill:none;fill-rule:evenodd;stroke:#FF0000;stroke-width:2.0px;stroke-linecap:butt;stroke-linejoin:miter;stroke-opacity:1"/>
<path class="bond-6 atom-6 atom-7" d="M 708.7,192.7 L 722.3,180.3" style="fill:none;fill-rule:evenodd;stroke:#000000;stroke-width:2.0px;stroke-linecap:butt;stroke-linejoin:miter;stroke-opacity:1"/>
<path class="bond-7 atom-7 atom-8" d="M 722.3,180.3 L 767.1,194.6" style="fill:none;fill-rule:evenodd;stroke:#000000;stroke-width:2.0px;stroke-linecap:butt;stroke-linejoin:miter;stroke-opacity:1"/>
<path class="bond-8 atom-8 atom-9" d="M 767.1,194.6 L 801.9,162.9" style="fill:none;fill-rule:evenodd;stroke:#000000;stroke-width:2.0px;stroke-linecap:butt;stroke-linejoin:miter;stroke-opacity:1"/>
<path class="bond-9 atom-9 atom-10" d="M 801.9,162.9 L 846.8,177.2" style="fill:none;fill-rule:evenodd;stroke:#000000;stroke-width:2.0px;stroke-linecap:butt;stroke-linejoin:miter;stroke-opacity:1"/>
<path class="bond-10 atom-2 atom-11" d="M 562.9,215.2 L 518.0,200.9" style="fill:none;fill-rule:evenodd;stroke:#000000;stroke-width:2.0px;stroke-linecap:butt;stroke-linejoin:miter;stroke-opacity:1"/>
<path class="bond-11 atom-11 atom-12" d="M 518.0,200.9 L 507.9,154.9" style="fill:none;fill-rule:evenodd;stroke:#000000;stroke-width:2.0px;stroke-linecap:butt;stroke-linejoin:miter;stroke-opacity:1"/>
<path class="bond-12 atom-12 atom-13" d="M 508.8,158.8 L 523.1,145.7" style="fill:none;fill-rule:evenodd;stroke:#000000;stroke-width:2.0px;stroke-linecap:butt;stroke-linejoin:miter;stroke-opacity:1"/>
<path class="bond-12 atom-12 atom-13" d="M 523.1,145.7 L 537.4,132.7" style="fill:none;fill-rule:evenodd;stroke:#FF0000;stroke-width:2.0px;stroke-linecap:butt;stroke-linejoin:miter;stroke-opacity:1"/>
<path class="bond-12 atom-12 atom-13" d="M 504.1,153.7 L 518.5,140.6" style="fill:none;fill-rule:evenodd;stroke:#000000;stroke-width:2.0px;stroke-linecap:butt;stroke-linejoin:miter;stroke-opacity:1"/>
<path class="bond-12 atom-12 atom-13" d="M 518.5,140.6 L 532.8,127.6" style="fill:none;fill-rule:evenodd;stroke:#FF0000;stroke-width:2.0px;stroke-linecap:butt;stroke-linejoin:miter;stroke-opacity:1"/>
<path class="bond-13 atom-12 atom-14" d="M 507.9,154.9 L 489.3,149.0" style="fill:none;fill-rule:evenodd;stroke:#000000;stroke-width:2.0px;stroke-linecap:butt;stroke-linejoin:miter;stroke-opacity:1"/>
<path class="bond-13 atom-12 atom-14" d="M 489.3,149.0 L 470.7,143.0" style="fill:none;fill-rule:evenodd;stroke:#FF0000;stroke-width:2.0px;stroke-linecap:butt;stroke-linejoin:miter;stroke-opacity:1"/>
<path class="bond-14 atom-14 atom-15" d="M 461.3,132.3 L 457.1,113.5" style="fill:none;fill-rule:evenodd;stroke:#FF0000;stroke-width:2.0px;stroke-linecap:butt;stroke-linejoin:miter;stroke-opacity:1"/>
<path class="bond-14 atom-14 atom-15" d="M 457.1,113.5 L 453.0,94.6" style="fill:none;fill-rule:evenodd;stroke:#000000;stroke-width:2.0px;stroke-linecap:butt;stroke-linejoin:miter;stroke-opacity:1"/>
<path class="bond-15 atom-15 atom-16" d="M 453.0,94.6 L 408.1,80.3" style="fill:none;fill-rule:evenodd;stroke:#000000;stroke-width:2.0px;stroke-linecap:butt;stroke-linejoin:miter;stroke-opacity:1"/>
<path class="bond-16 atom-16 atom-17" d="M 408.1,80.3 L 398.1,34.3" style="fill:none;fill-rule:evenodd;stroke:#000000;stroke-width:2.0px;stroke-linecap:butt;stroke-linejoin:miter;stroke-opacity:1"/>
<path class="bond-17 atom-17 atom-18" d="M 398.1,34.3 L 353.2,20.0" style="fill:none;fill-rule:evenodd;stroke:#000000;stroke-width:2.0px;stroke-linecap:butt;stroke-linejoin:miter;stroke-opacity:1"/>
<path class="bond-18 atom-2 atom-19" d="M 562.9,215.2 L 548.6,260.1" style="fill:none;fill-rule:evenodd;stroke:#000000;stroke-width:2.0px;stroke-linecap:butt;stroke-linejoin:miter;stroke-opacity:1"/>
<path class="bond-19 atom-19 atom-20" d="M 544.7,260.9 L 557.5,274.9" style="fill:none;fill-rule:evenodd;stroke:#000000;stroke-width:2.0px;stroke-linecap:butt;stroke-linejoin:miter;stroke-opacity:1"/>
<path class="bond-19 atom-19 atom-20" d="M 557.5,274.9 L 570.2,288.9" style="fill:none;fill-rule:evenodd;stroke:#FF0000;stroke-width:2.0px;stroke-linecap:butt;stroke-linejoin:miter;stroke-opacity:1"/>
<path class="bond-19 atom-19 atom-20" d="M 549.8,256.3 L 562.6,270.3" style="fill:none;fill-rule:evenodd;stroke:#000000;stroke-width:2.0px;stroke-linecap:butt;stroke-linejoin:miter;stroke-opacity:1"/>
<path class="bond-19 atom-19 atom-20" d="M 562.6,270.3 L 575.3,284.3" style="fill:none;fill-rule:evenodd;stroke:#FF0000;stroke-width:2.0px;stroke-linecap:butt;stroke-linejoin:miter;stroke-opacity:1"/>
<path class="bond-20 atom-19 atom-21" d="M 548.6,260.1 L 529.4,264.3" style="fill:none;fill-rule:evenodd;stroke:#000000;stroke-width:2.0px;stroke-linecap:butt;stroke-linejoin:miter;stroke-opacity:1"/>
<path class="bond-20 atom-19 atom-21" d="M 529.4,264.3 L 510.2,268.5" style="fill:none;fill-rule:evenodd;stroke:#FF0000;stroke-width:2.0px;stroke-linecap:butt;stroke-linejoin:miter;stroke-opacity:1"/>
<path class="bond-21 atom-21 atom-22" d="M 499.9,278.6 L 494.1,296.8" style="fill:none;fill-rule:evenodd;stroke:#FF0000;stroke-width:2.0px;stroke-linecap:butt;stroke-linejoin:miter;stroke-opacity:1"/>
<path class="bond-21 atom-21 atom-22" d="M 494.1,296.8 L 488.3,315.0" style="fill:none;fill-rule:evenodd;stroke:#000000;stroke-width:2.0px;stroke-linecap:butt;stroke-linejoin:miter;stroke-opacity:1"/>
<path class="bond-22 atom-22 atom-23" d="M 488.3,315.0 L 442.3,325.1" style="fill:none;fill-rule:evenodd;stroke:#000000;stroke-width:2.0px;stroke-linecap:butt;stroke-linejoin:miter;stroke-opacity:1"/>
<path class="bond-23 atom-23 atom-24" d="M 442.3,325.1 L 428.0,369.9" style="fill:none;fill-rule:evenodd;stroke:#000000;stroke-width:2.0px;stroke-linecap:butt;stroke-linejoin:miter;stroke-opacity:1"/>
<path class="bond-24 atom-24 atom-25" d="M 428.0,369.9 L 382.0,380.0" style="fill:none;fill-rule:evenodd;stroke:#000000;stroke-width:2.0px;stroke-linecap:butt;stroke-linejoin:miter;stroke-opacity:1"/>
<path d="M 605.5,228.8 L 607.7,229.5 L 609.5,227.9" style="fill:none;stroke:#000000;stroke-width:2.0px;stroke-linecap:butt;stroke-linejoin:miter;stroke-opacity:1;"/>
<path d="M 640.8,199.3 L 642.6,197.8 L 643.5,198.1" style="fill:none;stroke:#000000;stroke-width:2.0px;stroke-linecap:butt;stroke-linejoin:miter;stroke-opacity:1;"/>
<path d="M 721.6,180.9 L 722.3,180.3 L 724.5,181.0" style="fill:none;stroke:#000000;stroke-width:2.0px;stroke-linecap:butt;stroke-linejoin:miter;stroke-opacity:1;"/>
<path d="M 764.9,193.9 L 767.1,194.6 L 768.9,193.0" style="fill:none;stroke:#000000;stroke-width:2.0px;stroke-linecap:butt;stroke-linejoin:miter;stroke-opacity:1;"/>
<path d="M 800.2,164.5 L 801.9,162.9 L 804.2,163.6" style="fill:none;stroke:#000000;stroke-width:2.0px;stroke-linecap:butt;stroke-linejoin:miter;stroke-opacity:1;"/>
<path d="M 520.2,201.6 L 518.0,200.9 L 517.5,198.6" style="fill:none;stroke:#000000;stroke-width:2.0px;stroke-linecap:butt;stroke-linejoin:miter;stroke-opacity:1;"/>
<path d="M 508.4,157.2 L 507.9,154.9 L 507.0,154.6" style="fill:none;stroke:#000000;stroke-width:2.0px;stroke-linecap:butt;stroke-linejoin:miter;stroke-opacity:1;"/>
<path d="M 453.2,95.5 L 453.0,94.6 L 450.8,93.9" style="fill:none;stroke:#000000;stroke-width:2.0px;stroke-linecap:butt;stroke-linejoin:miter;stroke-opacity:1;"/>
<path d="M 410.4,81.0 L 408.1,80.3 L 407.6,78.0" style="fill:none;stroke:#000000;stroke-width:2.0px;stroke-linecap:butt;stroke-linejoin:miter;stroke-opacity:1;"/>
<path d="M 398.6,36.6 L 398.1,34.3 L 395.8,33.6" style="fill:none;stroke:#000000;stroke-width:2.0px;stroke-linecap:butt;stroke-linejoin:miter;stroke-opacity:1;"/>
<path d="M 549.3,257.8 L 548.6,260.1 L 547.6,260.3" style="fill:none;stroke:#000000;stroke-width:2.0px;stroke-linecap:butt;stroke-linejoin:miter;stroke-opacity:1;"/>
<path d="M 488.6,314.1 L 488.3,315.0 L 486.0,315.5" style="fill:none;stroke:#000000;stroke-width:2.0px;stroke-linecap:butt;stroke-linejoin:miter;stroke-opacity:1;"/>
<path d="M 444.6,324.6 L 442.3,325.1 L 441.6,327.3" style="fill:none;stroke:#000000;stroke-width:2.0px;stroke-linecap:butt;stroke-linejoin:miter;stroke-opacity:1;"/>
<path d="M 428.7,367.7 L 428.0,369.9 L 425.7,370.4" style="fill:none;stroke:#000000;stroke-width:2.0px;stroke-linecap:butt;stroke-linejoin:miter;stroke-opacity:1;"/>
<path class="atom-0" d="M 607.0 157.5 L 609.0 155.5 L 606.4 154.9 L 606.8 153.6 L 609.2 154.8 L 608.9 152.2 L 610.3 152.2 L 609.9 154.8 L 612.3 153.6 L 612.7 154.9 L 610.1 155.4 L 612.0 157.4 L 610.8 158.3 L 609.5 155.8 L 608.2 158.3 L 607.0 157.5 " fill="#191919"/>
<path class="atom-1" d="M 571.0 170.3 Q 571.0 167.1, 572.6 165.4 Q 574.2 163.6, 577.2 163.6 Q 580.1 163.6, 581.7 165.4 Q 583.3 167.1, 583.3 170.3 Q 583.3 173.6, 581.7 175.4 Q 580.1 177.3, 577.2 177.3 Q 574.2 177.3, 572.6 175.4 Q 571.0 173.6, 571.0 170.3 M 577.2 175.8 Q 579.2 175.8, 580.3 174.4 Q 581.4 173.0, 581.4 170.3 Q 581.4 167.7, 580.3 166.4 Q 579.2 165.1, 577.2 165.1 Q 575.1 165.1, 574.0 166.4 Q 572.9 167.7, 572.9 170.3 Q 572.9 173.0, 574.0 174.4 Q 575.1 175.8, 577.2 175.8 " fill="#FF0000"/>
<path class="atom-5" d="M 633.2 163.6 Q 633.2 160.4, 634.8 158.6 Q 636.4 156.8, 639.4 156.8 Q 642.3 156.8, 643.9 158.6 Q 645.5 160.4, 645.5 163.6 Q 645.5 166.9, 643.9 168.7 Q 642.3 170.5, 639.4 170.5 Q 636.4 170.5, 634.8 168.7 Q 633.2 166.9, 633.2 163.6 M 639.4 169.0 Q 641.4 169.0, 642.5 167.7 Q 643.6 166.3, 643.6 163.6 Q 643.6 161.0, 642.5 159.7 Q 641.4 158.3, 639.4 158.3 Q 637.3 158.3, 636.2 159.7 Q 635.1 161.0, 635.1 163.6 Q 635.1 166.3, 636.2 167.7 Q 637.3 169.0, 639.4 169.0 " fill="#FF0000"/>
<path class="atom-6" d="M 681.3 212.1 Q 681.3 208.9, 682.9 207.1 Q 684.5 205.3, 687.4 205.3 Q 690.4 205.3, 692.0 207.1 Q 693.6 208.9, 693.6 212.1 Q 693.6 215.3, 692.0 217.2 Q 690.4 219.0, 687.4 219.0 Q 684.5 219.0, 682.9 217.2 Q 681.3 215.3, 681.3 212.1 M 687.4 217.5 Q 689.5 217.5, 690.6 216.1 Q 691.7 214.8, 691.7 212.1 Q 691.7 209.5, 690.6 208.1 Q 689.5 206.8, 687.4 206.8 Q 685.4 206.8, 684.3 208.1 Q 683.2 209.4, 683.2 212.1 Q 683.2 214.8, 684.3 216.1 Q 685.4 217.5, 687.4 217.5 " fill="#FF0000"/>
<path class="atom-13" d="M 536.6 123.2 Q 536.6 120.0, 538.2 118.2 Q 539.8 116.4, 542.7 116.4 Q 545.7 116.4, 547.3 118.2 Q 548.9 120.0, 548.9 123.2 Q 548.9 126.4, 547.3 128.3 Q 545.7 130.1, 542.7 130.1 Q 539.8 130.1, 538.2 128.3 Q 536.6 126.5, 536.6 123.2 M 542.7 128.6 Q 544.8 128.6, 545.9 127.3 Q 547.0 125.9, 547.0 123.2 Q 547.0 120.6, 545.9 119.3 Q 544.8 117.9, 542.7 117.9 Q 540.7 117.9, 539.6 119.3 Q 538.5 120.6, 538.5 123.2 Q 538.5 125.9, 539.6 127.3 Q 540.7 128.6, 542.7 128.6 " fill="#FF0000"/>
<path class="atom-14" d="M 456.9 140.6 Q 456.9 137.4, 458.5 135.6 Q 460.1 133.9, 463.1 133.9 Q 466.0 133.9, 467.6 135.6 Q 469.2 137.4, 469.2 140.6 Q 469.2 143.9, 467.6 145.7 Q 466.0 147.5, 463.1 147.5 Q 460.1 147.5, 458.5 145.7 Q 456.9 143.9, 456.9 140.6 M 463.1 146.0 Q 465.1 146.0, 466.2 144.7 Q 467.3 143.3, 467.3 140.6 Q 467.3 138.0, 466.2 136.7 Q 465.1 135.4, 463.1 135.4 Q 461.0 135.4, 459.9 136.7 Q 458.8 138.0, 458.8 140.6 Q 458.8 143.3, 459.9 144.7 Q 461.0 146.0, 463.1 146.0 " fill="#FF0000"/>
<path class="atom-20" d="M 574.2 294.9 Q 574.2 291.7, 575.8 289.9 Q 577.3 288.1, 580.3 288.1 Q 583.3 288.1, 584.8 289.9 Q 586.4 291.7, 586.4 294.9 Q 586.4 298.2, 584.8 300.0 Q 583.2 301.8, 580.3 301.8 Q 577.4 301.8, 575.8 300.0 Q 574.2 298.2, 574.2 294.9 M 580.3 300.3 Q 582.3 300.3, 583.4 299.0 Q 584.5 297.6, 584.5 294.9 Q 584.5 292.3, 583.4 291.0 Q 582.3 289.6, 580.3 289.6 Q 578.3 289.6, 577.2 291.0 Q 576.1 292.3, 576.1 294.9 Q 576.1 297.6, 577.2 299.0 Q 578.3 300.3, 580.3 300.3 " fill="#FF0000"/>
<path class="atom-21" d="M 496.5 270.2 Q 496.5 267.0, 498.0 265.2 Q 499.6 263.4, 502.6 263.4 Q 505.5 263.4, 507.1 265.2 Q 508.7 267.0, 508.7 270.2 Q 508.7 273.4, 507.1 275.2 Q 505.5 277.1, 502.6 277.1 Q 499.6 277.1, 498.0 275.2 Q 496.5 273.4, 496.5 270.2 M 502.6 275.6 Q 504.6 275.6, 505.7 274.2 Q 506.8 272.8, 506.8 270.2 Q 506.8 267.5, 505.7 266.2 Q 504.6 264.9, 502.6 264.9 Q 500.5 264.9, 499.4 266.2 Q 498.3 267.5, 498.3 270.2 Q 498.3 272.9, 499.4 274.2 Q 500.5 275.6, 502.6 275.6 " fill="#FF0000"/>
<path class="bond-0 atom-0 atom-1" d="M 684.6,556.5 L 678.9,574.4" style="fill:none;fill-rule:evenodd;stroke:#191919;stroke-width:2.0px;stroke-linecap:butt;stroke-linejoin:miter;stroke-opacity:1"/>
<path class="bond-0 atom-0 atom-1" d="M 678.9,574.4 L 673.3,592.3" style="fill:none;fill-rule:evenodd;stroke:#FF0000;stroke-width:2.0px;stroke-linecap:butt;stroke-linejoin:miter;stroke-opacity:1"/>
<path class="bond-1 atom-1 atom-2" d="M 663.0,602.2 L 643.8,606.5" style="fill:none;fill-rule:evenodd;stroke:#FF0000;stroke-width:2.0px;stroke-linecap:butt;stroke-linejoin:miter;stroke-opacity:1"/>
<path class="bond-1 atom-1 atom-2" d="M 643.8,606.5 L 624.6,610.7" style="fill:none;fill-rule:evenodd;stroke:#000000;stroke-width:2.0px;stroke-linecap:butt;stroke-linejoin:miter;stroke-opacity:1"/>
<path class="bond-2 atom-2 atom-3" d="M 624.6,610.7 L 610.4,655.6" style="fill:none;fill-rule:evenodd;stroke:#000000;stroke-width:2.0px;stroke-linecap:butt;stroke-linejoin:miter;stroke-opacity:1"/>
<path class="bond-3 atom-2 atom-4" d="M 624.6,610.7 L 592.9,575.9" style="fill:none;fill-rule:evenodd;stroke:#000000;stroke-width:2.0px;stroke-linecap:butt;stroke-linejoin:miter;stroke-opacity:1"/>
<path class="bond-4 atom-4 atom-5" d="M 592.9,575.9 L 546.9,586.0" style="fill:none;fill-rule:evenodd;stroke:#000000;stroke-width:2.0px;stroke-linecap:butt;stroke-linejoin:miter;stroke-opacity:1"/>
<path class="bond-5 atom-5 atom-6" d="M 546.9,586.0 L 531.4,569.0" style="fill:none;fill-rule:evenodd;stroke:#000000;stroke-width:2.0px;stroke-linecap:butt;stroke-linejoin:miter;stroke-opacity:1"/>
<path class="bond-5 atom-5 atom-6" d="M 531.4,569.0 L 515.9,552.1" style="fill:none;fill-rule:evenodd;stroke:#191919;stroke-width:2.0px;stroke-linecap:butt;stroke-linejoin:miter;stroke-opacity:1"/>
<path class="bond-6 atom-5 atom-7" d="M 544.1,583.0 L 538.0,602.3" style="fill:none;fill-rule:evenodd;stroke:#000000;stroke-width:2.0px;stroke-linecap:butt;stroke-linejoin:miter;stroke-opacity:1"/>
<path class="bond-6 atom-5 atom-7" d="M 538.0,602.3 L 531.9,621.5" style="fill:none;fill-rule:evenodd;stroke:#FF0000;stroke-width:2.0px;stroke-linecap:butt;stroke-linejoin:miter;stroke-opacity:1"/>
<path class="bond-6 atom-5 atom-7" d="M 550.9,585.1 L 544.7,604.4" style="fill:none;fill-rule:evenodd;stroke:#000000;stroke-width:2.0px;stroke-linecap:butt;stroke-linejoin:miter;stroke-opacity:1"/>
<path class="bond-6 atom-5 atom-7" d="M 544.7,604.4 L 538.6,623.7" style="fill:none;fill-rule:evenodd;stroke:#FF0000;stroke-width:2.0px;stroke-linecap:butt;stroke-linejoin:miter;stroke-opacity:1"/>
<path d="M 594.5,577.6 L 592.9,575.9 L 590.6,576.4" style="fill:none;stroke:#000000;stroke-width:2.0px;stroke-linecap:butt;stroke-linejoin:miter;stroke-opacity:1;"/>
<path d="M 549.2,585.5 L 546.9,586.0 L 546.1,585.2" style="fill:none;stroke:#000000;stroke-width:2.0px;stroke-linecap:butt;stroke-linejoin:miter;stroke-opacity:1;"/>
<path class="atom-0" d="M 682.4 554.2 L 684.3 552.2 L 681.7 551.7 L 682.1 550.3 L 684.5 551.5 L 684.2 548.9 L 685.6 548.9 L 685.2 551.5 L 687.6 550.4 L 688.0 551.7 L 685.4 552.1 L 687.3 554.2 L 686.1 555.0 L 684.8 552.5 L 683.5 555.0 L 682.4 554.2 " fill="#191919"/>
<path class="atom-1" d="M 664.5 600.6 Q 664.5 597.4, 666.1 595.6 Q 667.7 593.8, 670.6 593.8 Q 673.6 593.8, 675.2 595.6 Q 676.8 597.4, 676.8 600.6 Q 676.8 603.8, 675.2 605.7 Q 673.6 607.5, 670.6 607.5 Q 667.7 607.5, 666.1 605.7 Q 664.5 603.9, 664.5 600.6 M 670.6 606.0 Q 672.7 606.0, 673.8 604.6 Q 674.9 603.3, 674.9 600.6 Q 674.9 598.0, 673.8 596.7 Q 672.7 595.3, 670.6 595.3 Q 668.6 595.3, 667.5 596.6 Q 666.4 598.0, 666.4 600.6 Q 666.4 603.3, 667.5 604.6 Q 668.6 606.0, 670.6 606.0 " fill="#FF0000"/>
<path class="atom-6" d="M 512.6 549.7 L 514.6 547.7 L 512.0 547.2 L 512.4 545.9 L 514.8 547.1 L 514.4 544.5 L 515.8 544.4 L 515.4 547.1 L 517.9 545.9 L 518.3 547.2 L 515.6 547.7 L 517.5 549.7 L 516.4 550.5 L 515.1 548.1 L 513.8 550.5 L 512.6 549.7 " fill="#191919"/>
<path class="atom-7" d="M 526.5 630.9 Q 526.5 627.7, 528.1 625.9 Q 529.7 624.1, 532.6 624.1 Q 535.6 624.1, 537.2 625.9 Q 538.8 627.7, 538.8 630.9 Q 538.8 634.2, 537.2 636.0 Q 535.6 637.8, 532.6 637.8 Q 529.7 637.8, 528.1 636.0 Q 526.5 634.2, 526.5 630.9 M 532.6 636.3 Q 534.7 636.3, 535.8 635.0 Q 536.9 633.6, 536.9 630.9 Q 536.9 628.3, 535.8 627.0 Q 534.7 625.7, 532.6 625.7 Q 530.6 625.7, 529.5 627.0 Q 528.4 628.3, 528.4 630.9 Q 528.4 633.6, 529.5 635.0 Q 530.6 636.3, 532.6 636.3 " fill="#FF0000"/>
<path class="bond-0 atom-0 atom-1" d="M 573.4,999.9 L 590.8,999.9" style="fill:none;fill-rule:evenodd;stroke:#191919;stroke-width:2.0px;stroke-linecap:butt;stroke-linejoin:miter;stroke-opacity:1"/>
<path class="bond-0 atom-0 atom-1" d="M 590.8,999.9 L 608.1,999.9" style="fill:none;fill-rule:evenodd;stroke:#FF0000;stroke-width:2.0px;stroke-linecap:butt;stroke-linejoin:miter;stroke-opacity:1"/>
<path class="atom-0" d="M 566.2 998.4 L 568.2 996.4 L 565.6 995.9 L 566.0 994.6 L 568.3 995.8 L 568.0 993.2 L 569.4 993.1 L 569.0 995.8 L 571.5 994.6 L 571.9 995.9 L 569.2 996.4 L 571.1 998.4 L 570.0 999.2 L 568.7 996.8 L 567.3 999.2 L 566.2 998.4 " fill="#191919"/>
<path class="atom-1" d="M 609.7 1000.0 Q 609.7 996.8, 611.3 995.0 Q 612.9 993.2, 615.8 993.2 Q 618.8 993.2, 620.3 995.0 Q 621.9 996.8, 621.9 1000.0 Q 621.9 1003.2, 620.3 1005.0 Q 618.7 1006.9, 615.8 1006.9 Q 612.9 1006.9, 611.3 1005.0 Q 609.7 1003.2, 609.7 1000.0 M 615.8 1005.4 Q 617.8 1005.4, 618.9 1004.0 Q 620.0 1002.6, 620.0 1000.0 Q 620.0 997.3, 618.9 996.0 Q 617.8 994.7, 615.8 994.7 Q 613.8 994.7, 612.7 996.0 Q 611.6 997.3, 611.6 1000.0 Q 611.6 1002.6, 612.7 1004.0 Q 613.8 1005.4, 615.8 1005.4 " fill="#FF0000"/>
<path class="atom-1" d="M 624.0 993.3 L 625.8 993.3 L 625.8 999.0 L 632.6 999.0 L 632.6 993.3 L 634.4 993.3 L 634.4 1006.7 L 632.6 1006.7 L 632.6 1000.5 L 625.8 1000.5 L 625.8 1006.7 L 624.0 1006.7 L 624.0 993.3 " fill="#FF0000"/>
</svg>