<svg xmlns="http://www.w3.org/2000/svg" xmlns:rdkit="http://www.rdkit.org/xml" xmlns:xlink="http://www.w3.org/1999/xlink" version="1.1" baseProfile="full" xml:space="preserve" width="1200px" height="800px" viewBox="0 0 1200 800">
<!-- END OF HEADER -->
<rect style="opacity:1.0;fill:#FFFFFF;stroke:none" width="1200.0" height="800.0" x="0.0" y="0.0"> </rect>
<path class="bond-0 atom-0 atom-1" d="M 730.8,28.3 L 717.1,49.1" style="fill:none;fill-rule:evenodd;stroke:#191919;stroke-width:2.0px;stroke-linecap:butt;stroke-linejoin:miter;stroke-opacity:1"/>
<path class="bond-0 atom-0 atom-1" d="M 717.1,49.1 L 703.4,70.0" style="fill:none;fill-rule:evenodd;stroke:#000000;stroke-width:2.0px;stroke-linecap:butt;stroke-linejoin:miter;stroke-opacity:1"/>
<path class="bond-1 atom-1 atom-2" d="M 703.4,70.0 L 652.5,67.1" style="fill:none;fill-rule:evenodd;stroke:#000000;stroke-width:2.0px;stroke-linecap:butt;stroke-linejoin:miter;stroke-opacity:1"/>
<path class="bond-2 atom-2 atom-3" d="M 652.5,67.1 L 624.6,109.8" style="fill:none;fill-rule:evenodd;stroke:#000000;stroke-width:2.0px;stroke-linecap:butt;stroke-linejoin:miter;stroke-opacity:1"/>
<path class="bond-3 atom-3 atom-4" d="M 624.6,109.8 L 573.7,106.9" style="fill:none;fill-rule:evenodd;stroke:#000000;stroke-width:2.0px;stroke-linecap:butt;stroke-linejoin:miter;stroke-opacity:1"/>
<path class="bond-4 atom-4 atom-5" d="M 573.7,106.9 L 545.8,149.6" style="fill:none;fill-rule:evenodd;stroke:#000000;stroke-width:2.0px;stroke-linecap:butt;stroke-linejoin:miter;stroke-opacity:1"/>
<path class="bond-5 atom-5 atom-6" d="M 545.8,149.6 L 524.5,148.4" style="fill:none;fill-rule:evenodd;stroke:#000000;stroke-width:2.0px;stroke-linecap:butt;stroke-linejoin:miter;stroke-opacity:1"/>
<path class="bond-5 atom-5 atom-6" d="M 524.5,148.4 L 503.2,147.2" style="fill:none;fill-rule:evenodd;stroke:#FF0000;stroke-width:2.0px;stroke-linecap:butt;stroke-linejoin:miter;stroke-opacity:1"/>
<path class="bond-6 atom-6 atom-7" d="M 488.9,155.9 L 477.9,172.6" style="fill:none;fill-rule:evenodd;stroke:#FF0000;stroke-width:2.0px;stroke-linecap:butt;stroke-linejoin:miter;stroke-opacity:1"/>
<path class="bond-6 atom-6 atom-7" d="M 477.9,172.6 L 467.0,189.4" style="fill:none;fill-rule:evenodd;stroke:#000000;stroke-width:2.0px;stroke-linecap:butt;stroke-linejoin:miter;stroke-opacity:1"/>
<path class="bond-7 atom-7 atom-8" d="M 467.0,189.4 L 416.1,186.5" style="fill:none;fill-rule:evenodd;stroke:#000000;stroke-width:2.0px;stroke-linecap:butt;stroke-linejoin:miter;stroke-opacity:1"/>
<path class="bond-8 atom-7 atom-9" d="M 462.5,189.1 L 472.3,208.4" style="fill:none;fill-rule:evenodd;stroke:#000000;stroke-width:2.0px;stroke-linecap:butt;stroke-linejoin:miter;stroke-opacity:1"/>
<path class="bond-8 atom-7 atom-9" d="M 472.3,208.4 L 482.0,227.6" style="fill:none;fill-rule:evenodd;stroke:#FF0000;stroke-width:2.0px;stroke-linecap:butt;stroke-linejoin:miter;stroke-opacity:1"/>
<path class="bond-8 atom-7 atom-9" d="M 469.4,185.7 L 479.1,204.9" style="fill:none;fill-rule:evenodd;stroke:#000000;stroke-width:2.0px;stroke-linecap:butt;stroke-linejoin:miter;stroke-opacity:1"/>
<path class="bond-8 atom-7 atom-9" d="M 479.1,204.9 L 488.8,224.2" style="fill:none;fill-rule:evenodd;stroke:#FF0000;stroke-width:2.0px;stroke-linecap:butt;stroke-linejoin:miter;stroke-opacity:1"/>
<path class="bond-9 atom-1 atom-10" d="M 703.4,70.0 L 726.4,115.5" style="fill:none;fill-rule:evenodd;stroke:#000000;stroke-width:2.0px;stroke-linecap:butt;stroke-linejoin:miter;stroke-opacity:1"/>
<path class="bond-10 atom-10 atom-11" d="M 724.0,119.2 L 746.4,120.5" style="fill:none;fill-rule:evenodd;stroke:#000000;stroke-width:2.0px;stroke-linecap:butt;stroke-linejoin:miter;stroke-opacity:1"/>
<path class="bond-10 atom-10 atom-11" d="M 746.4,120.5 L 768.8,121.7" style="fill:none;fill-rule:evenodd;stroke:#FF0000;stroke-width:2.0px;stroke-linecap:butt;stroke-linejoin:miter;stroke-opacity:1"/>
<path class="bond-10 atom-10 atom-11" d="M 724.4,111.6 L 746.8,112.8" style="fill:none;fill-rule:evenodd;stroke:#000000;stroke-width:2.0px;stroke-linecap:butt;stroke-linejoin:miter;stroke-opacity:1"/>
<path class="bond-10 atom-10 atom-11" d="M 746.8,112.8 L 769.2,114.1" style="fill:none;fill-rule:evenodd;stroke:#FF0000;stroke-width:2.0px;stroke-linecap:butt;stroke-linejoin:miter;stroke-opacity:1"/>
<path class="bond-11 atom-10 atom-12" d="M 726.4,115.5 L 715.4,132.3" style="fill:none;fill-rule:evenodd;stroke:#000000;stroke-width:2.0px;stroke-linecap:butt;stroke-linejoin:miter;stroke-opacity:1"/>
<path class="bond-11 atom-10 atom-12" d="M 715.4,132.3 L 704.4,149.2" style="fill:none;fill-rule:evenodd;stroke:#FF0000;stroke-width:2.0px;stroke-linecap:butt;stroke-linejoin:miter;stroke-opacity:1"/>
<path class="bond-12 atom-12 atom-13" d="M 703.1,167.4 L 712.3,185.5" style="fill:none;fill-rule:evenodd;stroke:#FF0000;stroke-width:2.0px;stroke-linecap:butt;stroke-linejoin:miter;stroke-opacity:1"/>
<path class="bond-12 atom-12 atom-13" d="M 712.3,185.5 L 721.5,203.7" style="fill:none;fill-rule:evenodd;stroke:#000000;stroke-width:2.0px;stroke-linecap:butt;stroke-linejoin:miter;stroke-opacity:1"/>
<path class="bond-13 atom-13 atom-14" d="M 721.5,203.7 L 693.5,246.3" style="fill:none;fill-rule:evenodd;stroke:#000000;stroke-width:2.0px;stroke-linecap:butt;stroke-linejoin:miter;stroke-opacity:1"/>
<path class="bond-14 atom-14 atom-15" d="M 693.5,246.3 L 716.5,291.8" style="fill:none;fill-rule:evenodd;stroke:#000000;stroke-width:2.0px;stroke-linecap:butt;stroke-linejoin:miter;stroke-opacity:1"/>
<path class="bond-15 atom-15 atom-16" d="M 716.5,291.8 L 688.6,334.5" style="fill:none;fill-rule:evenodd;stroke:#000000;stroke-width:2.0px;stroke-linecap:butt;stroke-linejoin:miter;stroke-opacity:1"/>
<path class="bond-16 atom-16 atom-17" d="M 688.6,334.5 L 711.6,380.0" style="fill:none;fill-rule:evenodd;stroke:#000000;stroke-width:2.0px;stroke-linecap:butt;stroke-linejoin:miter;stroke-opacity:1"/>
<path d="M 655.1,67.3 L 652.5,67.1 L 651.1,69.3" style="fill:none;stroke:#000000;stroke-width:2.0px;stroke-linecap:butt;stroke-linejoin:miter;stroke-opacity:1;"/>
<path d="M 626.0,107.7 L 624.6,109.8 L 622.1,109.6" style="fill:none;stroke:#000000;stroke-width:2.0px;stroke-linecap:butt;stroke-linejoin:miter;stroke-opacity:1;"/>
<path d="M 576.3,107.1 L 573.7,106.9 L 572.3,109.1" style="fill:none;stroke:#000000;stroke-width:2.0px;stroke-linecap:butt;stroke-linejoin:miter;stroke-opacity:1;"/>
<path d="M 547.2,147.4 L 545.8,149.6 L 544.7,149.5" style="fill:none;stroke:#000000;stroke-width:2.0px;stroke-linecap:butt;stroke-linejoin:miter;stroke-opacity:1;"/>
<path d="M 467.5,188.5 L 467.0,189.4 L 464.4,189.2" style="fill:none;stroke:#000000;stroke-width:2.0px;stroke-linecap:butt;stroke-linejoin:miter;stroke-opacity:1;"/>
<path d="M 725.3,113.2 L 726.4,115.5 L 725.9,116.3" style="fill:none;stroke:#000000;stroke-width:2.0px;stroke-linecap:butt;stroke-linejoin:miter;stroke-opacity:1;"/>
<path d="M 721.0,202.8 L 721.5,203.7 L 720.1,205.8" style="fill:none;stroke:#000000;stroke-width:2.0px;stroke-linecap:butt;stroke-linejoin:miter;stroke-opacity:1;"/>
<path d="M 694.9,244.2 L 693.5,246.3 L 694.7,248.6" style="fill:none;stroke:#000000;stroke-width:2.0px;stroke-linecap:butt;stroke-linejoin:miter;stroke-opacity:1;"/>
<path d="M 715.4,289.6 L 716.5,291.8 L 715.1,294.0" style="fill:none;stroke:#000000;stroke-width:2.0px;stroke-linecap:butt;stroke-linejoin:miter;stroke-opacity:1;"/>
<path d="M 690.0,332.4 L 688.6,334.5 L 689.7,336.8" style="fill:none;stroke:#000000;stroke-width:2.0px;stroke-linecap:butt;stroke-linejoin:miter;stroke-opacity:1;"/>
<path class="atom-0" d="M 728.6 25.7 L 730.8 23.6 L 728.0 23.0 L 728.4 21.5 L 731.0 22.9 L 730.6 20.0 L 732.1 20.0 L 731.7 22.8 L 734.3 21.6 L 734.8 23.0 L 731.9 23.5 L 734.0 25.7 L 732.7 26.6 L 731.3 23.9 L 729.9 26.6 L 728.6 25.7 " fill="#191919"/>
<path class="atom-6" d="M 488.3 146.8 Q 488.3 143.3, 490.0 141.4 Q 491.7 139.4, 494.9 139.4 Q 498.1 139.4, 499.8 141.4 Q 501.5 143.3, 501.5 146.8 Q 501.5 150.3, 499.8 152.3 Q 498.0 154.2, 494.9 154.2 Q 491.7 154.2, 490.0 152.3 Q 488.3 150.3, 488.3 146.8 M 494.9 152.6 Q 497.1 152.6, 498.3 151.1 Q 499.5 149.7, 499.5 146.8 Q 499.5 143.9, 498.3 142.5 Q 497.1 141.0, 494.9 141.0 Q 492.7 141.0, 491.5 142.5 Q 490.3 143.9, 490.3 146.8 Q 490.3 149.7, 491.5 151.1 Q 492.7 152.6, 494.9 152.6 " fill="#FF0000"/>
<path class="atom-9" d="M 483.3 234.9 Q 483.3 231.5, 485.0 229.5 Q 486.7 227.6, 489.9 227.6 Q 493.1 227.6, 494.8 229.5 Q 496.6 231.5, 496.6 234.9 Q 496.6 238.4, 494.8 240.4 Q 493.1 242.4, 489.9 242.4 Q 486.7 242.4, 485.0 240.4 Q 483.3 238.5, 483.3 234.9 M 489.9 240.8 Q 492.1 240.8, 493.3 239.3 Q 494.5 237.8, 494.5 234.9 Q 494.5 232.1, 493.3 230.7 Q 492.1 229.2, 489.9 229.2 Q 487.7 229.2, 486.5 230.6 Q 485.3 232.1, 485.3 234.9 Q 485.3 237.8, 486.5 239.3 Q 487.7 240.8, 489.9 240.8 " fill="#FF0000"/>
<path class="atom-11" d="M 770.7 118.4 Q 770.7 114.9, 772.4 113.0 Q 774.1 111.1, 777.3 111.1 Q 780.5 111.1, 782.2 113.0 Q 783.9 114.9, 783.9 118.4 Q 783.9 121.9, 782.2 123.9 Q 780.5 125.9, 777.3 125.9 Q 774.1 125.9, 772.4 123.9 Q 770.7 121.9, 770.7 118.4 M 777.3 124.3 Q 779.5 124.3, 780.7 122.8 Q 781.9 121.3, 781.9 118.4 Q 781.9 115.6, 780.7 114.1 Q 779.5 112.7, 777.3 112.7 Q 775.1 112.7, 773.9 114.1 Q 772.7 115.6, 772.7 118.4 Q 772.7 121.3, 773.9 122.8 Q 775.1 124.3, 777.3 124.3 " fill="#FF0000"/>
<path class="atom-12" d="M 691.9 158.2 Q 691.9 154.7, 693.6 152.8 Q 695.3 150.9, 698.5 150.9 Q 701.7 150.9, 703.4 152.8 Q 705.1 154.7, 705.1 158.2 Q 705.1 161.7, 703.4 163.7 Q 701.7 165.7, 698.5 165.7 Q 695.3 165.7, 693.6 163.7 Q 691.9 161.7, 691.9 158.2 M 698.5 164.1 Q 700.7 164.1, 701.9 162.6 Q 703.1 161.1, 703.1 158.2 Q 703.1 155.4, 701.9 153.9 Q 700.7 152.5, 698.5 152.5 Q 696.3 152.5, 695.1 153.9 Q 693.9 155.3, 693.9 158.2 Q 693.9 161.1, 695.1 162.6 Q 696.3 164.1, 698.5 164.1 " fill="#FF0000"/>
<path class="bond-0 atom-0 atom-1" d="M 775.0,603.5 L 754.2,616.7" style="fill:none;fill-rule:evenodd;stroke:#191919;stroke-width:2.0px;stroke-linecap:butt;stroke-linejoin:miter;stroke-opacity:1"/>
<path class="bond-0 atom-0 atom-1" d="M 754.2,616.7 L 733.4,629.8" style="fill:none;fill-rule:evenodd;stroke:#000000;stroke-width:2.0px;stroke-linecap:butt;stroke-linejoin:miter;stroke-opacity:1"/>
<path class="bond-1 atom-1 atom-2" d="M 733.4,629.8 L 688.2,606.2" style="fill:none;fill-rule:evenodd;stroke:#000000;stroke-width:2.0px;stroke-linecap:butt;stroke-linejoin:miter;stroke-opacity:1"/>
<path class="bond-2 atom-2 atom-3" d="M 688.2,606.2 L 645.2,633.5" style="fill:none;fill-rule:evenodd;stroke:#000000;stroke-width:2.0px;stroke-linecap:butt;stroke-linejoin:miter;stroke-opacity:1"/>
<path class="bond-3 atom-3 atom-4" d="M 645.2,633.5 L 600.0,609.9" style="fill:none;fill-rule:evenodd;stroke:#000000;stroke-width:2.0px;stroke-linecap:butt;stroke-linejoin:miter;stroke-opacity:1"/>
<path class="bond-4 atom-4 atom-5" d="M 600.0,609.9 L 582.6,620.9" style="fill:none;fill-rule:evenodd;stroke:#000000;stroke-width:2.0px;stroke-linecap:butt;stroke-linejoin:miter;stroke-opacity:1"/>
<path class="bond-4 atom-4 atom-5" d="M 582.6,620.9 L 565.3,631.9" style="fill:none;fill-rule:evenodd;stroke:#FF0000;stroke-width:2.0px;stroke-linecap:butt;stroke-linejoin:miter;stroke-opacity:1"/>
<path class="bond-5 atom-5 atom-6" d="M 548.6,632.8 L 530.2,623.2" style="fill:none;fill-rule:evenodd;stroke:#FF0000;stroke-width:2.0px;stroke-linecap:butt;stroke-linejoin:miter;stroke-opacity:1"/>
<path class="bond-5 atom-5 atom-6" d="M 530.2,623.2 L 511.8,613.5" style="fill:none;fill-rule:evenodd;stroke:#000000;stroke-width:2.0px;stroke-linecap:butt;stroke-linejoin:miter;stroke-opacity:1"/>
<path class="bond-6 atom-6 atom-7" d="M 515.7,615.6 L 514.8,593.6" style="fill:none;fill-rule:evenodd;stroke:#000000;stroke-width:2.0px;stroke-linecap:butt;stroke-linejoin:miter;stroke-opacity:1"/>
<path class="bond-6 atom-6 atom-7" d="M 514.8,593.6 L 513.9,571.6" style="fill:none;fill-rule:evenodd;stroke:#FF0000;stroke-width:2.0px;stroke-linecap:butt;stroke-linejoin:miter;stroke-opacity:1"/>
<path class="bond-6 atom-6 atom-7" d="M 508.0,615.9 L 507.1,593.9" style="fill:none;fill-rule:evenodd;stroke:#000000;stroke-width:2.0px;stroke-linecap:butt;stroke-linejoin:miter;stroke-opacity:1"/>
<path class="bond-6 atom-6 atom-7" d="M 507.1,593.9 L 506.2,572.0" style="fill:none;fill-rule:evenodd;stroke:#FF0000;stroke-width:2.0px;stroke-linecap:butt;stroke-linejoin:miter;stroke-opacity:1"/>
<path class="bond-7 atom-6 atom-8" d="M 511.8,613.5 L 468.7,640.8" style="fill:none;fill-rule:evenodd;stroke:#000000;stroke-width:2.0px;stroke-linecap:butt;stroke-linejoin:miter;stroke-opacity:1"/>
<path class="bond-8 atom-8 atom-9" d="M 468.7,640.8 L 447.0,629.5" style="fill:none;fill-rule:evenodd;stroke:#000000;stroke-width:2.0px;stroke-linecap:butt;stroke-linejoin:miter;stroke-opacity:1"/>
<path class="bond-8 atom-8 atom-9" d="M 447.0,629.5 L 425.4,618.2" style="fill:none;fill-rule:evenodd;stroke:#191919;stroke-width:2.0px;stroke-linecap:butt;stroke-linejoin:miter;stroke-opacity:1"/>
<path d="M 734.4,629.2 L 733.4,629.8 L 731.1,628.7" style="fill:none;stroke:#000000;stroke-width:2.0px;stroke-linecap:butt;stroke-linejoin:miter;stroke-opacity:1;"/>
<path d="M 690.5,607.4 L 688.2,606.2 L 686.1,607.6" style="fill:none;stroke:#000000;stroke-width:2.0px;stroke-linecap:butt;stroke-linejoin:miter;stroke-opacity:1;"/>
<path d="M 647.3,632.1 L 645.2,633.5 L 642.9,632.3" style="fill:none;stroke:#000000;stroke-width:2.0px;stroke-linecap:butt;stroke-linejoin:miter;stroke-opacity:1;"/>
<path d="M 602.3,611.1 L 600.0,609.9 L 599.1,610.4" style="fill:none;stroke:#000000;stroke-width:2.0px;stroke-linecap:butt;stroke-linejoin:miter;stroke-opacity:1;"/>
<path d="M 512.7,614.0 L 511.8,613.5 L 509.6,614.9" style="fill:none;stroke:#000000;stroke-width:2.0px;stroke-linecap:butt;stroke-linejoin:miter;stroke-opacity:1;"/>
<path d="M 470.9,639.5 L 468.7,640.8 L 467.6,640.3" style="fill:none;stroke:#000000;stroke-width:2.0px;stroke-linecap:butt;stroke-linejoin:miter;stroke-opacity:1;"/>
<path class="atom-0" d="M 773.7 600.9 L 775.9 598.8 L 773.0 598.2 L 773.5 596.8 L 776.1 598.1 L 775.7 595.2 L 777.2 595.2 L 776.8 598.0 L 779.4 596.8 L 779.9 598.2 L 777.0 598.7 L 779.1 600.9 L 777.8 601.8 L 776.4 599.1 L 775.0 601.8 L 773.7 600.9 " fill="#191919"/>
<path class="atom-5" d="M 550.3 637.2 Q 550.3 633.7, 552.0 631.8 Q 553.7 629.9, 556.9 629.9 Q 560.1 629.9, 561.9 631.8 Q 563.6 633.7, 563.6 637.2 Q 563.6 640.7, 561.8 642.7 Q 560.1 644.7, 556.9 644.7 Q 553.8 644.7, 552.0 642.7 Q 550.3 640.7, 550.3 637.2 M 556.9 643.1 Q 559.1 643.1, 560.3 641.6 Q 561.5 640.1, 561.5 637.2 Q 561.5 634.4, 560.3 633.0 Q 559.1 631.5, 556.9 631.5 Q 554.7 631.5, 553.5 632.9 Q 552.4 634.4, 552.4 637.2 Q 552.4 640.1, 553.5 641.6 Q 554.7 643.1, 556.9 643.1 " fill="#FF0000"/>
<path class="atom-7" d="M 503.0 562.6 Q 503.0 559.2, 504.7 557.2 Q 506.5 555.3, 509.7 555.3 Q 512.9 555.3, 514.6 557.2 Q 516.3 559.2, 516.3 562.6 Q 516.3 566.1, 514.6 568.1 Q 512.8 570.1, 509.7 570.1 Q 506.5 570.1, 504.7 568.1 Q 503.0 566.2, 503.0 562.6 M 509.7 568.5 Q 511.9 568.5, 513.0 567.0 Q 514.2 565.5, 514.2 562.6 Q 514.2 559.8, 513.0 558.4 Q 511.9 556.9, 509.7 556.9 Q 507.5 556.9, 506.3 558.4 Q 505.1 559.8, 505.1 562.6 Q 505.1 565.6, 506.3 567.0 Q 507.5 568.5, 509.7 568.5 " fill="#FF0000"/>
<path class="atom-9" d="M 420.8 615.6 L 422.9 613.4 L 420.1 612.9 L 420.6 611.4 L 423.1 612.7 L 422.8 609.9 L 424.3 609.9 L 423.9 612.7 L 426.5 611.5 L 427.0 612.9 L 424.1 613.4 L 426.1 615.6 L 424.9 616.5 L 423.5 613.8 L 422.1 616.5 L 420.8 615.6 " fill="#191919"/>
</svg>