<svg xmlns="http://www.w3.org/2000/svg" xmlns:rdkit="http://www.rdkit.org/xml" xmlns:xlink="http://www.w3.org/1999/xlink" version="1.1" baseProfile="full" xml:space="preserve" width="1200px" height="800px" viewBox="0 0 1200 800">
<!-- END OF HEADER -->
<rect style="opacity:1.0;fill:#FFFFFF;stroke:none" width="1200.0" height="800.0" x="0.0" y="0.0"> </rect>
<path class="bond-0 atom-0 atom-1" d="M 83.5,162.9 L 147.7,134.4" style="fill:none;fill-rule:evenodd;stroke:#191919;stroke-width:2.0px;stroke-linecap:butt;stroke-linejoin:miter;stroke-opacity:1"/>
<path class="bond-0 atom-0 atom-1" d="M 147.7,134.4 L 211.8,105.8" style="fill:none;fill-rule:evenodd;stroke:#000000;stroke-width:2.0px;stroke-linecap:butt;stroke-linejoin:miter;stroke-opacity:1"/>
<path class="bond-1 atom-1 atom-2" d="M 211.8,105.8 L 335.9,196.0" style="fill:none;fill-rule:evenodd;stroke:#000000;stroke-width:2.0px;stroke-linecap:butt;stroke-linejoin:miter;stroke-opacity:1"/>
<path class="bond-2 atom-2 atom-3" d="M 325.1,188.2 L 317.8,258.0" style="fill:none;fill-rule:evenodd;stroke:#000000;stroke-width:2.0px;stroke-linecap:butt;stroke-linejoin:miter;stroke-opacity:1"/>
<path class="bond-2 atom-2 atom-3" d="M 317.8,258.0 L 310.4,327.9" style="fill:none;fill-rule:evenodd;stroke:#FF0000;stroke-width:2.0px;stroke-linecap:butt;stroke-linejoin:miter;stroke-opacity:1"/>
<path class="bond-2 atom-2 atom-3" d="M 348.0,190.6 L 340.6,260.4" style="fill:none;fill-rule:evenodd;stroke:#000000;stroke-width:2.0px;stroke-linecap:butt;stroke-linejoin:miter;stroke-opacity:1"/>
<path class="bond-2 atom-2 atom-3" d="M 340.6,260.4 L 333.3,330.3" style="fill:none;fill-rule:evenodd;stroke:#FF0000;stroke-width:2.0px;stroke-linecap:butt;stroke-linejoin:miter;stroke-opacity:1"/>
<path class="bond-3 atom-2 atom-4" d="M 335.9,196.0 L 396.9,168.8" style="fill:none;fill-rule:evenodd;stroke:#000000;stroke-width:2.0px;stroke-linecap:butt;stroke-linejoin:miter;stroke-opacity:1"/>
<path class="bond-3 atom-2 atom-4" d="M 396.9,168.8 L 457.9,141.7" style="fill:none;fill-rule:evenodd;stroke:#FF0000;stroke-width:2.0px;stroke-linecap:butt;stroke-linejoin:miter;stroke-opacity:1"/>
<path class="bond-4 atom-4 atom-5" d="M 494.0,146.8 L 547.0,185.3" style="fill:none;fill-rule:evenodd;stroke:#FF0000;stroke-width:2.0px;stroke-linecap:butt;stroke-linejoin:miter;stroke-opacity:1"/>
<path class="bond-4 atom-4 atom-5" d="M 547.0,185.3 L 600.0,223.8" style="fill:none;fill-rule:evenodd;stroke:#000000;stroke-width:2.0px;stroke-linecap:butt;stroke-linejoin:miter;stroke-opacity:1"/>
<path class="bond-5 atom-5 atom-6" d="M 600.0,223.8 L 740.1,161.5" style="fill:none;fill-rule:evenodd;stroke:#000000;stroke-width:2.0px;stroke-linecap:butt;stroke-linejoin:miter;stroke-opacity:1"/>
<path class="bond-6 atom-6 atom-7" d="M 740.1,161.5 L 864.1,251.6" style="fill:none;fill-rule:evenodd;stroke:#000000;stroke-width:2.0px;stroke-linecap:butt;stroke-linejoin:miter;stroke-opacity:1"/>
<path class="bond-7 atom-7 atom-8" d="M 864.1,251.6 L 1004.2,189.3" style="fill:none;fill-rule:evenodd;stroke:#000000;stroke-width:2.0px;stroke-linecap:butt;stroke-linejoin:miter;stroke-opacity:1"/>
<path class="bond-8 atom-8 atom-9" d="M 1004.2,189.3 L 1060.4,230.1" style="fill:none;fill-rule:evenodd;stroke:#000000;stroke-width:2.0px;stroke-linecap:butt;stroke-linejoin:miter;stroke-opacity:1"/>
<path class="bond-8 atom-8 atom-9" d="M 1060.4,230.1 L 1116.5,270.9" style="fill:none;fill-rule:evenodd;stroke:#191919;stroke-width:2.0px;stroke-linecap:butt;stroke-linejoin:miter;stroke-opacity:1"/>
<path class="bond-9 atom-8 atom-10" d="M 1004.2,189.3 L 1020.3,36.8" style="fill:none;fill-rule:evenodd;stroke:#000000;stroke-width:2.0px;stroke-linecap:butt;stroke-linejoin:miter;stroke-opacity:1"/>
<path d="M 208.6,107.2 L 211.8,105.8 L 218.0,110.3" style="fill:none;stroke:#000000;stroke-width:2.0px;stroke-linecap:butt;stroke-linejoin:miter;stroke-opacity:1;"/>
<path d="M 329.7,191.5 L 335.9,196.0 L 338.9,194.6" style="fill:none;stroke:#000000;stroke-width:2.0px;stroke-linecap:butt;stroke-linejoin:miter;stroke-opacity:1;"/>
<path d="M 597.4,221.9 L 600.0,223.8 L 607.0,220.7" style="fill:none;stroke:#000000;stroke-width:2.0px;stroke-linecap:butt;stroke-linejoin:miter;stroke-opacity:1;"/>
<path d="M 733.1,164.6 L 740.1,161.5 L 746.3,166.0" style="fill:none;stroke:#000000;stroke-width:2.0px;stroke-linecap:butt;stroke-linejoin:miter;stroke-opacity:1;"/>
<path d="M 857.9,247.1 L 864.1,251.6 L 871.1,248.5" style="fill:none;stroke:#000000;stroke-width:2.0px;stroke-linecap:butt;stroke-linejoin:miter;stroke-opacity:1;"/>
<path class="atom-0" d="M 66.4 165.0 L 70.5 160.7 L 65.0 159.6 L 65.9 156.8 L 70.9 159.3 L 70.2 153.8 L 73.2 153.7 L 72.4 159.3 L 77.5 156.9 L 78.4 159.6 L 72.8 160.7 L 76.8 164.9 L 74.4 166.7 L 71.6 161.4 L 68.8 166.7 L 66.4 165.0 " fill="#191919"/>
<path class="atom-3" d="M 306.8 348.5 Q 306.8 341.7, 310.2 337.9 Q 313.5 334.1, 319.8 334.1 Q 326.1 334.1, 329.4 337.9 Q 332.8 341.7, 332.8 348.5 Q 332.8 355.4, 329.4 359.3 Q 326.0 363.2, 319.8 363.2 Q 313.6 363.2, 310.2 359.3 Q 306.8 355.5, 306.8 348.5 M 319.8 360.0 Q 324.1 360.0, 326.4 357.1 Q 328.8 354.2, 328.8 348.5 Q 328.8 343.0, 326.4 340.2 Q 324.1 337.3, 319.8 337.3 Q 315.5 337.3, 313.1 340.1 Q 310.8 342.9, 310.8 348.5 Q 310.8 354.3, 313.1 357.1 Q 315.5 360.0, 319.8 360.0 " fill="#FF0000"/>
<path class="atom-4" d="M 463.0 133.7 Q 463.0 126.9, 466.3 123.1 Q 469.7 119.3, 476.0 119.3 Q 482.2 119.3, 485.6 123.1 Q 489.0 126.9, 489.0 133.7 Q 489.0 140.6, 485.6 144.5 Q 482.2 148.4, 476.0 148.4 Q 469.7 148.4, 466.3 144.5 Q 463.0 140.6, 463.0 133.7 M 476.0 145.2 Q 480.3 145.2, 482.6 142.3 Q 485.0 139.4, 485.0 133.7 Q 485.0 128.1, 482.6 125.3 Q 480.3 122.5, 476.0 122.5 Q 471.6 122.5, 469.3 125.3 Q 467.0 128.1, 467.0 133.7 Q 467.0 139.4, 469.3 142.3 Q 471.6 145.2, 476.0 145.2 " fill="#FF0000"/>
<path class="atom-9" d="M 1122.9 276.3 L 1127.1 272.0 L 1121.6 270.9 L 1122.4 268.1 L 1127.5 270.6 L 1126.8 265.1 L 1129.8 265.0 L 1128.9 270.6 L 1134.1 268.2 L 1135.0 270.9 L 1129.4 272.0 L 1133.4 276.2 L 1130.9 278.0 L 1128.2 272.7 L 1125.4 278.0 L 1122.9 276.3 " fill="#191919"/>
<path class="bond-0 atom-0 atom-1" d="M 82.0,652.6 L 145.2,622.1" style="fill:none;fill-rule:evenodd;stroke:#191919;stroke-width:2.0px;stroke-linecap:butt;stroke-linejoin:miter;stroke-opacity:1"/>
<path class="bond-0 atom-0 atom-1" d="M 145.2,622.1 L 208.4,591.7" style="fill:none;fill-rule:evenodd;stroke:#000000;stroke-width:2.0px;stroke-linecap:butt;stroke-linejoin:miter;stroke-opacity:1"/>
<path class="bond-1 atom-1 atom-2" d="M 208.4,591.7 L 335.1,678.0" style="fill:none;fill-rule:evenodd;stroke:#000000;stroke-width:2.0px;stroke-linecap:butt;stroke-linejoin:miter;stroke-opacity:1"/>
<path class="bond-2 atom-2 atom-3" d="M 335.1,678.0 L 473.3,611.5" style="fill:none;fill-rule:evenodd;stroke:#000000;stroke-width:2.0px;stroke-linecap:butt;stroke-linejoin:miter;stroke-opacity:1"/>
<path class="bond-3 atom-3 atom-4" d="M 473.3,611.5 L 600.0,697.8" style="fill:none;fill-rule:evenodd;stroke:#000000;stroke-width:2.0px;stroke-linecap:butt;stroke-linejoin:miter;stroke-opacity:1"/>
<path class="bond-4 atom-4 atom-5" d="M 600.0,697.8 L 738.1,631.3" style="fill:none;fill-rule:evenodd;stroke:#000000;stroke-width:2.0px;stroke-linecap:butt;stroke-linejoin:miter;stroke-opacity:1"/>
<path class="bond-5 atom-5 atom-6" d="M 749.1,638.7 L 754.3,568.9" style="fill:none;fill-rule:evenodd;stroke:#000000;stroke-width:2.0px;stroke-linecap:butt;stroke-linejoin:miter;stroke-opacity:1"/>
<path class="bond-5 atom-5 atom-6" d="M 754.3,568.9 L 759.6,499.0" style="fill:none;fill-rule:evenodd;stroke:#FF0000;stroke-width:2.0px;stroke-linecap:butt;stroke-linejoin:miter;stroke-opacity:1"/>
<path class="bond-5 atom-5 atom-6" d="M 726.2,637.0 L 731.4,567.2" style="fill:none;fill-rule:evenodd;stroke:#000000;stroke-width:2.0px;stroke-linecap:butt;stroke-linejoin:miter;stroke-opacity:1"/>
<path class="bond-5 atom-5 atom-6" d="M 731.4,567.2 L 736.6,497.3" style="fill:none;fill-rule:evenodd;stroke:#FF0000;stroke-width:2.0px;stroke-linecap:butt;stroke-linejoin:miter;stroke-opacity:1"/>
<path class="bond-6 atom-5 atom-7" d="M 738.1,631.3 L 792.5,668.3" style="fill:none;fill-rule:evenodd;stroke:#000000;stroke-width:2.0px;stroke-linecap:butt;stroke-linejoin:miter;stroke-opacity:1"/>
<path class="bond-6 atom-5 atom-7" d="M 792.5,668.3 L 846.8,705.3" style="fill:none;fill-rule:evenodd;stroke:#FF0000;stroke-width:2.0px;stroke-linecap:butt;stroke-linejoin:miter;stroke-opacity:1"/>
<path class="bond-7 atom-7 atom-8" d="M 882.9,708.9 L 943.0,680.0" style="fill:none;fill-rule:evenodd;stroke:#FF0000;stroke-width:2.0px;stroke-linecap:butt;stroke-linejoin:miter;stroke-opacity:1"/>
<path class="bond-7 atom-7 atom-8" d="M 943.0,680.0 L 1003.0,651.1" style="fill:none;fill-rule:evenodd;stroke:#000000;stroke-width:2.0px;stroke-linecap:butt;stroke-linejoin:miter;stroke-opacity:1"/>
<path class="bond-8 atom-8 atom-9" d="M 1003.0,651.1 L 1060.5,690.2" style="fill:none;fill-rule:evenodd;stroke:#000000;stroke-width:2.0px;stroke-linecap:butt;stroke-linejoin:miter;stroke-opacity:1"/>
<path class="bond-8 atom-8 atom-9" d="M 1060.5,690.2 L 1118.0,729.4" style="fill:none;fill-rule:evenodd;stroke:#191919;stroke-width:2.0px;stroke-linecap:butt;stroke-linejoin:miter;stroke-opacity:1"/>
<path class="bond-9 atom-8 atom-10" d="M 1003.0,651.1 L 1014.4,498.1" style="fill:none;fill-rule:evenodd;stroke:#000000;stroke-width:2.0px;stroke-linecap:butt;stroke-linejoin:miter;stroke-opacity:1"/>
<path d="M 205.3,593.2 L 208.4,591.7 L 214.8,596.0" style="fill:none;stroke:#000000;stroke-width:2.0px;stroke-linecap:butt;stroke-linejoin:miter;stroke-opacity:1;"/>
<path d="M 328.8,673.7 L 335.1,678.0 L 342.0,674.7" style="fill:none;stroke:#000000;stroke-width:2.0px;stroke-linecap:butt;stroke-linejoin:miter;stroke-opacity:1;"/>
<path d="M 466.4,614.8 L 473.3,611.5 L 479.6,615.8" style="fill:none;stroke:#000000;stroke-width:2.0px;stroke-linecap:butt;stroke-linejoin:miter;stroke-opacity:1;"/>
<path d="M 593.7,693.5 L 600.0,697.8 L 606.9,694.5" style="fill:none;stroke:#000000;stroke-width:2.0px;stroke-linecap:butt;stroke-linejoin:miter;stroke-opacity:1;"/>
<path d="M 731.2,634.6 L 738.1,631.3 L 740.9,633.1" style="fill:none;stroke:#000000;stroke-width:2.0px;stroke-linecap:butt;stroke-linejoin:miter;stroke-opacity:1;"/>
<path class="atom-0" d="M 64.9 655.1 L 69.1 650.8 L 63.6 649.7 L 64.4 646.9 L 69.5 649.4 L 68.8 643.9 L 71.8 643.8 L 70.9 649.4 L 76.1 647.0 L 77.0 649.7 L 71.4 650.7 L 75.4 655.0 L 72.9 656.8 L 70.2 651.5 L 67.4 656.8 L 64.9 655.1 " fill="#191919"/>
<path class="atom-6" d="M 736.6 478.4 Q 736.6 471.6, 739.9 467.8 Q 743.3 464.0, 749.6 464.0 Q 755.9 464.0, 759.2 467.8 Q 762.6 471.6, 762.6 478.4 Q 762.6 485.3, 759.2 489.2 Q 755.8 493.1, 749.6 493.1 Q 743.3 493.1, 739.9 489.2 Q 736.6 485.3, 736.6 478.4 M 749.6 489.9 Q 753.9 489.9, 756.2 487.0 Q 758.6 484.1, 758.6 478.4 Q 758.6 472.9, 756.2 470.1 Q 753.9 467.2, 749.6 467.2 Q 745.3 467.2, 742.9 470.0 Q 740.6 472.8, 740.6 478.4 Q 740.6 484.1, 742.9 487.0 Q 745.3 489.9, 749.6 489.9 " fill="#FF0000"/>
<path class="atom-7" d="M 851.9 717.7 Q 851.9 710.9, 855.2 707.1 Q 858.6 703.3, 864.9 703.3 Q 871.1 703.3, 874.5 707.1 Q 877.9 710.9, 877.9 717.7 Q 877.9 724.6, 874.5 728.5 Q 871.1 732.4, 864.9 732.4 Q 858.6 732.4, 855.2 728.5 Q 851.9 724.6, 851.9 717.7 M 864.9 729.2 Q 869.2 729.2, 871.5 726.3 Q 873.9 723.4, 873.9 717.7 Q 873.9 712.1, 871.5 709.3 Q 869.2 706.5, 864.9 706.5 Q 860.5 706.5, 858.2 709.3 Q 855.9 712.1, 855.9 717.7 Q 855.9 723.4, 858.2 726.3 Q 860.5 729.2, 864.9 729.2 " fill="#FF0000"/>
<path class="atom-9" d="M 1124.4 734.3 L 1128.5 730.0 L 1123.0 728.9 L 1123.9 726.1 L 1128.9 728.6 L 1128.2 723.1 L 1131.2 723.0 L 1130.4 728.6 L 1135.5 726.2 L 1136.4 728.9 L 1130.8 729.9 L 1134.8 734.2 L 1132.4 736.0 L 1129.6 730.7 L 1126.8 736.0 L 1124.4 734.3 " fill="#191919"/>
</svg>