<svg xmlns="http://www.w3.org/2000/svg" xmlns:rdkit="http://www.rdkit.org/xml" xmlns:xlink="http://www.w3.org/1999/xlink" version="1.1" baseProfile="full" xml:space="preserve" width="1200px" height="800px" viewBox="0 0 1200 800">
<!-- END OF HEADER -->
<rect style="opacity:1.0;fill:#FFFFFF;stroke:none" width="1200.0" height="800.0" x="0.0" y="0.0"> </rect>
<path class="bond-0 atom-0 atom-1" d="M 1083.0,43.4 L 1088.1,97.1" style="fill:none;fill-rule:evenodd;stroke:#191919;stroke-width:2.0px;stroke-linecap:butt;stroke-linejoin:miter;stroke-opacity:1"/>
<path class="bond-0 atom-0 atom-1" d="M 1088.1,97.1 L 1093.2,150.8" style="fill:none;fill-rule:evenodd;stroke:#0000FF;stroke-width:2.0px;stroke-linecap:butt;stroke-linejoin:miter;stroke-opacity:1"/>
<path class="bond-1 atom-1 atom-2" d="M 1080.0,179.9 L 1034.8,212.1" style="fill:none;fill-rule:evenodd;stroke:#0000FF;stroke-width:2.0px;stroke-linecap:butt;stroke-linejoin:miter;stroke-opacity:1"/>
<path class="bond-1 atom-1 atom-2" d="M 1034.8,212.1 L 989.7,244.2" style="fill:none;fill-rule:evenodd;stroke:#000000;stroke-width:2.0px;stroke-linecap:butt;stroke-linejoin:miter;stroke-opacity:1"/>
<path class="bond-2 atom-2 atom-3" d="M 990.2,247.7 L 989.7,247.7" style="fill:none;fill-rule:evenodd;stroke:#000000;stroke-width:1.0px;stroke-linecap:butt;stroke-linejoin:miter;stroke-opacity:1"/>
<path class="bond-2 atom-2 atom-3" d="M 990.8,251.1 L 989.8,251.2" style="fill:none;fill-rule:evenodd;stroke:#000000;stroke-width:1.0px;stroke-linecap:butt;stroke-linejoin:miter;stroke-opacity:1"/>
<path class="bond-2 atom-2 atom-3" d="M 991.4,254.6 L 989.9,254.7" style="fill:none;fill-rule:evenodd;stroke:#000000;stroke-width:1.0px;stroke-linecap:butt;stroke-linejoin:miter;stroke-opacity:1"/>
<path class="bond-2 atom-2 atom-3" d="M 992.0,258.1 L 989.9,258.2" style="fill:none;fill-rule:evenodd;stroke:#000000;stroke-width:1.0px;stroke-linecap:butt;stroke-linejoin:miter;stroke-opacity:1"/>
<path class="bond-2 atom-2 atom-3" d="M 992.6,261.5 L 990.0,261.8" style="fill:none;fill-rule:evenodd;stroke:#000000;stroke-width:1.0px;stroke-linecap:butt;stroke-linejoin:miter;stroke-opacity:1"/>
<path class="bond-2 atom-2 atom-3" d="M 993.2,265.0 L 990.1,265.3" style="fill:none;fill-rule:evenodd;stroke:#000000;stroke-width:1.0px;stroke-linecap:butt;stroke-linejoin:miter;stroke-opacity:1"/>
<path class="bond-2 atom-2 atom-3" d="M 993.8,268.4 L 990.1,268.8" style="fill:none;fill-rule:evenodd;stroke:#000000;stroke-width:1.0px;stroke-linecap:butt;stroke-linejoin:miter;stroke-opacity:1"/>
<path class="bond-2 atom-2 atom-3" d="M 994.4,271.9 L 990.2,272.3" style="fill:none;fill-rule:evenodd;stroke:#000000;stroke-width:1.0px;stroke-linecap:butt;stroke-linejoin:miter;stroke-opacity:1"/>
<path class="bond-2 atom-2 atom-3" d="M 995.0,275.3 L 990.3,275.8" style="fill:none;fill-rule:evenodd;stroke:#000000;stroke-width:1.0px;stroke-linecap:butt;stroke-linejoin:miter;stroke-opacity:1"/>
<path class="bond-2 atom-2 atom-3" d="M 995.6,278.8 L 990.4,279.3" style="fill:none;fill-rule:evenodd;stroke:#000000;stroke-width:1.0px;stroke-linecap:butt;stroke-linejoin:miter;stroke-opacity:1"/>
<path class="bond-2 atom-2 atom-3" d="M 996.2,282.2 L 990.4,282.8" style="fill:none;fill-rule:evenodd;stroke:#000000;stroke-width:1.0px;stroke-linecap:butt;stroke-linejoin:miter;stroke-opacity:1"/>
<path class="bond-2 atom-2 atom-3" d="M 996.8,285.7 L 990.5,286.3" style="fill:none;fill-rule:evenodd;stroke:#000000;stroke-width:1.0px;stroke-linecap:butt;stroke-linejoin:miter;stroke-opacity:1"/>
<path class="bond-2 atom-2 atom-3" d="M 997.4,289.1 L 990.6,289.8" style="fill:none;fill-rule:evenodd;stroke:#000000;stroke-width:1.0px;stroke-linecap:butt;stroke-linejoin:miter;stroke-opacity:1"/>
<path class="bond-2 atom-2 atom-3" d="M 997.9,292.6 L 990.6,293.3" style="fill:none;fill-rule:evenodd;stroke:#000000;stroke-width:1.0px;stroke-linecap:butt;stroke-linejoin:miter;stroke-opacity:1"/>
<path class="bond-2 atom-2 atom-3" d="M 998.5,296.0 L 990.7,296.8" style="fill:none;fill-rule:evenodd;stroke:#000000;stroke-width:1.0px;stroke-linecap:butt;stroke-linejoin:miter;stroke-opacity:1"/>
<path class="bond-2 atom-2 atom-3" d="M 999.1,299.5 L 990.8,300.3" style="fill:none;fill-rule:evenodd;stroke:#000000;stroke-width:1.0px;stroke-linecap:butt;stroke-linejoin:miter;stroke-opacity:1"/>
<path class="bond-2 atom-2 atom-3" d="M 999.7,303.0 L 990.9,303.8" style="fill:none;fill-rule:evenodd;stroke:#000000;stroke-width:1.0px;stroke-linecap:butt;stroke-linejoin:miter;stroke-opacity:1"/>
<path class="bond-2 atom-2 atom-3" d="M 1000.3,306.4 L 990.9,307.3" style="fill:none;fill-rule:evenodd;stroke:#000000;stroke-width:1.0px;stroke-linecap:butt;stroke-linejoin:miter;stroke-opacity:1"/>
<path class="bond-2 atom-2 atom-3" d="M 1000.9,309.9 L 991.0,310.8" style="fill:none;fill-rule:evenodd;stroke:#000000;stroke-width:1.0px;stroke-linecap:butt;stroke-linejoin:miter;stroke-opacity:1"/>
<path class="bond-2 atom-2 atom-3" d="M 1001.5,313.3 L 991.1,314.3" style="fill:none;fill-rule:evenodd;stroke:#000000;stroke-width:1.0px;stroke-linecap:butt;stroke-linejoin:miter;stroke-opacity:1"/>
<path class="bond-2 atom-2 atom-3" d="M 1002.1,316.8 L 991.1,317.8" style="fill:none;fill-rule:evenodd;stroke:#000000;stroke-width:1.0px;stroke-linecap:butt;stroke-linejoin:miter;stroke-opacity:1"/>
<path class="bond-2 atom-2 atom-3" d="M 1002.7,320.2 L 991.2,321.3" style="fill:none;fill-rule:evenodd;stroke:#000000;stroke-width:1.0px;stroke-linecap:butt;stroke-linejoin:miter;stroke-opacity:1"/>
<path class="bond-2 atom-2 atom-3" d="M 1003.3,323.7 L 991.3,324.8" style="fill:none;fill-rule:evenodd;stroke:#000000;stroke-width:1.0px;stroke-linecap:butt;stroke-linejoin:miter;stroke-opacity:1"/>
<path class="bond-2 atom-2 atom-3" d="M 1003.9,327.1 L 991.4,328.3" style="fill:none;fill-rule:evenodd;stroke:#000000;stroke-width:1.0px;stroke-linecap:butt;stroke-linejoin:miter;stroke-opacity:1"/>
<path class="bond-2 atom-2 atom-3" d="M 1004.5,330.6 L 991.4,331.8" style="fill:none;fill-rule:evenodd;stroke:#000000;stroke-width:1.0px;stroke-linecap:butt;stroke-linejoin:miter;stroke-opacity:1"/>
<path class="bond-2 atom-2 atom-3" d="M 1005.1,334.0 L 991.5,335.3" style="fill:none;fill-rule:evenodd;stroke:#000000;stroke-width:1.0px;stroke-linecap:butt;stroke-linejoin:miter;stroke-opacity:1"/>
<path class="bond-2 atom-2 atom-3" d="M 1005.7,337.5 L 991.6,338.8" style="fill:none;fill-rule:evenodd;stroke:#000000;stroke-width:1.0px;stroke-linecap:butt;stroke-linejoin:miter;stroke-opacity:1"/>
<path class="bond-2 atom-2 atom-3" d="M 1006.2,340.9 L 991.6,342.3" style="fill:none;fill-rule:evenodd;stroke:#000000;stroke-width:1.0px;stroke-linecap:butt;stroke-linejoin:miter;stroke-opacity:1"/>
<path class="bond-2 atom-2 atom-3" d="M 1006.8,344.4 L 991.7,345.8" style="fill:none;fill-rule:evenodd;stroke:#000000;stroke-width:1.0px;stroke-linecap:butt;stroke-linejoin:miter;stroke-opacity:1"/>
<path class="bond-2 atom-2 atom-3" d="M 1007.4,347.9 L 991.8,349.3" style="fill:none;fill-rule:evenodd;stroke:#000000;stroke-width:1.0px;stroke-linecap:butt;stroke-linejoin:miter;stroke-opacity:1"/>
<path class="bond-2 atom-2 atom-3" d="M 1008.0,351.3 L 991.8,352.9" style="fill:none;fill-rule:evenodd;stroke:#000000;stroke-width:1.0px;stroke-linecap:butt;stroke-linejoin:miter;stroke-opacity:1"/>
<path class="bond-2 atom-2 atom-3" d="M 1008.6,354.8 L 991.9,356.4" style="fill:none;fill-rule:evenodd;stroke:#000000;stroke-width:1.0px;stroke-linecap:butt;stroke-linejoin:miter;stroke-opacity:1"/>
<path class="bond-2 atom-2 atom-3" d="M 1009.2,358.2 L 992.0,359.9" style="fill:none;fill-rule:evenodd;stroke:#000000;stroke-width:1.0px;stroke-linecap:butt;stroke-linejoin:miter;stroke-opacity:1"/>
<path class="bond-2 atom-2 atom-3" d="M 1009.8,361.7 L 992.1,363.4" style="fill:none;fill-rule:evenodd;stroke:#000000;stroke-width:1.0px;stroke-linecap:butt;stroke-linejoin:miter;stroke-opacity:1"/>
<path class="bond-2 atom-2 atom-3" d="M 1010.4,365.1 L 992.1,366.9" style="fill:none;fill-rule:evenodd;stroke:#000000;stroke-width:1.0px;stroke-linecap:butt;stroke-linejoin:miter;stroke-opacity:1"/>
<path class="bond-2 atom-2 atom-3" d="M 1011.0,368.6 L 992.2,370.4" style="fill:none;fill-rule:evenodd;stroke:#000000;stroke-width:1.0px;stroke-linecap:butt;stroke-linejoin:miter;stroke-opacity:1"/>
<path class="bond-2 atom-2 atom-3" d="M 1011.6,372.0 L 992.3,373.9" style="fill:none;fill-rule:evenodd;stroke:#000000;stroke-width:1.0px;stroke-linecap:butt;stroke-linejoin:miter;stroke-opacity:1"/>
<path class="bond-3 atom-2 atom-4" d="M 989.7,244.2 L 872.0,190.5" style="fill:none;fill-rule:evenodd;stroke:#000000;stroke-width:2.0px;stroke-linecap:butt;stroke-linejoin:miter;stroke-opacity:1"/>
<path class="bond-4 atom-4 atom-5" d="M 882.2,195.2 L 876.7,137.5" style="fill:none;fill-rule:evenodd;stroke:#000000;stroke-width:2.0px;stroke-linecap:butt;stroke-linejoin:miter;stroke-opacity:1"/>
<path class="bond-4 atom-4 atom-5" d="M 876.7,137.5 L 871.2,79.9" style="fill:none;fill-rule:evenodd;stroke:#FF0000;stroke-width:2.0px;stroke-linecap:butt;stroke-linejoin:miter;stroke-opacity:1"/>
<path class="bond-4 atom-4 atom-5" d="M 862.9,197.0 L 857.4,139.4" style="fill:none;fill-rule:evenodd;stroke:#000000;stroke-width:2.0px;stroke-linecap:butt;stroke-linejoin:miter;stroke-opacity:1"/>
<path class="bond-4 atom-4 atom-5" d="M 857.4,139.4 L 851.9,81.7" style="fill:none;fill-rule:evenodd;stroke:#FF0000;stroke-width:2.0px;stroke-linecap:butt;stroke-linejoin:miter;stroke-opacity:1"/>
<path class="bond-5 atom-4 atom-6" d="M 872.0,190.5 L 826.9,222.7" style="fill:none;fill-rule:evenodd;stroke:#000000;stroke-width:2.0px;stroke-linecap:butt;stroke-linejoin:miter;stroke-opacity:1"/>
<path class="bond-5 atom-4 atom-6" d="M 826.9,222.7 L 781.7,254.8" style="fill:none;fill-rule:evenodd;stroke:#0000FF;stroke-width:2.0px;stroke-linecap:butt;stroke-linejoin:miter;stroke-opacity:1"/>
<path class="bond-6 atom-6 atom-7" d="M 751.7,258.6 L 700.4,235.2" style="fill:none;fill-rule:evenodd;stroke:#0000FF;stroke-width:2.0px;stroke-linecap:butt;stroke-linejoin:miter;stroke-opacity:1"/>
<path class="bond-6 atom-6 atom-7" d="M 700.4,235.2 L 649.1,211.8" style="fill:none;fill-rule:evenodd;stroke:#000000;stroke-width:2.0px;stroke-linecap:butt;stroke-linejoin:miter;stroke-opacity:1"/>
<path class="bond-7 atom-7 atom-8" d="M 649.1,211.8 L 543.8,286.8" style="fill:none;fill-rule:evenodd;stroke:#000000;stroke-width:2.0px;stroke-linecap:butt;stroke-linejoin:miter;stroke-opacity:1"/>
<path class="bond-8 atom-8 atom-9" d="M 543.8,286.8 L 426.1,233.0" style="fill:none;fill-rule:evenodd;stroke:#000000;stroke-width:2.0px;stroke-linecap:butt;stroke-linejoin:miter;stroke-opacity:1"/>
<path class="bond-9 atom-9 atom-10" d="M 436.3,237.7 L 430.8,180.0" style="fill:none;fill-rule:evenodd;stroke:#000000;stroke-width:2.0px;stroke-linecap:butt;stroke-linejoin:miter;stroke-opacity:1"/>
<path class="bond-9 atom-9 atom-10" d="M 430.8,180.0 L 425.3,122.4" style="fill:none;fill-rule:evenodd;stroke:#FF0000;stroke-width:2.0px;stroke-linecap:butt;stroke-linejoin:miter;stroke-opacity:1"/>
<path class="bond-9 atom-9 atom-10" d="M 417.0,239.5 L 411.5,181.9" style="fill:none;fill-rule:evenodd;stroke:#000000;stroke-width:2.0px;stroke-linecap:butt;stroke-linejoin:miter;stroke-opacity:1"/>
<path class="bond-9 atom-9 atom-10" d="M 411.5,181.9 L 406.0,124.2" style="fill:none;fill-rule:evenodd;stroke:#FF0000;stroke-width:2.0px;stroke-linecap:butt;stroke-linejoin:miter;stroke-opacity:1"/>
<path class="bond-10 atom-9 atom-11" d="M 426.1,233.0 L 381.0,265.2" style="fill:none;fill-rule:evenodd;stroke:#000000;stroke-width:2.0px;stroke-linecap:butt;stroke-linejoin:miter;stroke-opacity:1"/>
<path class="bond-10 atom-9 atom-11" d="M 381.0,265.2 L 335.8,297.3" style="fill:none;fill-rule:evenodd;stroke:#0000FF;stroke-width:2.0px;stroke-linecap:butt;stroke-linejoin:miter;stroke-opacity:1"/>
<path class="bond-11 atom-11 atom-12" d="M 305.8,301.2 L 254.5,277.7" style="fill:none;fill-rule:evenodd;stroke:#0000FF;stroke-width:2.0px;stroke-linecap:butt;stroke-linejoin:miter;stroke-opacity:1"/>
<path class="bond-11 atom-11 atom-12" d="M 254.5,277.7 L 203.2,254.3" style="fill:none;fill-rule:evenodd;stroke:#000000;stroke-width:2.0px;stroke-linecap:butt;stroke-linejoin:miter;stroke-opacity:1"/>
<path class="bond-12 atom-12 atom-13" d="M 200.5,256.5 L 200.2,256.1" style="fill:none;fill-rule:evenodd;stroke:#000000;stroke-width:1.0px;stroke-linecap:butt;stroke-linejoin:miter;stroke-opacity:1"/>
<path class="bond-12 atom-12 atom-13" d="M 197.8,258.8 L 197.2,257.9" style="fill:none;fill-rule:evenodd;stroke:#000000;stroke-width:1.0px;stroke-linecap:butt;stroke-linejoin:miter;stroke-opacity:1"/>
<path class="bond-12 atom-12 atom-13" d="M 195.1,261.0 L 194.2,259.7" style="fill:none;fill-rule:evenodd;stroke:#000000;stroke-width:1.0px;stroke-linecap:butt;stroke-linejoin:miter;stroke-opacity:1"/>
<path class="bond-12 atom-12 atom-13" d="M 192.4,263.2 L 191.2,261.5" style="fill:none;fill-rule:evenodd;stroke:#000000;stroke-width:1.0px;stroke-linecap:butt;stroke-linejoin:miter;stroke-opacity:1"/>
<path class="bond-12 atom-12 atom-13" d="M 189.7,265.5 L 188.2,263.3" style="fill:none;fill-rule:evenodd;stroke:#000000;stroke-width:1.0px;stroke-linecap:butt;stroke-linejoin:miter;stroke-opacity:1"/>
<path class="bond-12 atom-12 atom-13" d="M 187.0,267.7 L 185.2,265.2" style="fill:none;fill-rule:evenodd;stroke:#000000;stroke-width:1.0px;stroke-linecap:butt;stroke-linejoin:miter;stroke-opacity:1"/>
<path class="bond-12 atom-12 atom-13" d="M 184.3,270.0 L 182.2,267.0" style="fill:none;fill-rule:evenodd;stroke:#000000;stroke-width:1.0px;stroke-linecap:butt;stroke-linejoin:miter;stroke-opacity:1"/>
<path class="bond-12 atom-12 atom-13" d="M 181.6,272.2 L 179.2,268.8" style="fill:none;fill-rule:evenodd;stroke:#000000;stroke-width:1.0px;stroke-linecap:butt;stroke-linejoin:miter;stroke-opacity:1"/>
<path class="bond-12 atom-12 atom-13" d="M 178.9,274.4 L 176.2,270.6" style="fill:none;fill-rule:evenodd;stroke:#000000;stroke-width:1.0px;stroke-linecap:butt;stroke-linejoin:miter;stroke-opacity:1"/>
<path class="bond-12 atom-12 atom-13" d="M 176.2,276.7 L 173.2,272.4" style="fill:none;fill-rule:evenodd;stroke:#000000;stroke-width:1.0px;stroke-linecap:butt;stroke-linejoin:miter;stroke-opacity:1"/>
<path class="bond-12 atom-12 atom-13" d="M 173.5,278.9 L 170.2,274.2" style="fill:none;fill-rule:evenodd;stroke:#000000;stroke-width:1.0px;stroke-linecap:butt;stroke-linejoin:miter;stroke-opacity:1"/>
<path class="bond-12 atom-12 atom-13" d="M 170.9,281.2 L 167.2,276.0" style="fill:none;fill-rule:evenodd;stroke:#000000;stroke-width:1.0px;stroke-linecap:butt;stroke-linejoin:miter;stroke-opacity:1"/>
<path class="bond-12 atom-12 atom-13" d="M 168.2,283.4 L 164.2,277.8" style="fill:none;fill-rule:evenodd;stroke:#000000;stroke-width:1.0px;stroke-linecap:butt;stroke-linejoin:miter;stroke-opacity:1"/>
<path class="bond-12 atom-12 atom-13" d="M 165.5,285.6 L 161.2,279.7" style="fill:none;fill-rule:evenodd;stroke:#000000;stroke-width:1.0px;stroke-linecap:butt;stroke-linejoin:miter;stroke-opacity:1"/>
<path class="bond-12 atom-12 atom-13" d="M 162.8,287.9 L 158.2,281.5" style="fill:none;fill-rule:evenodd;stroke:#000000;stroke-width:1.0px;stroke-linecap:butt;stroke-linejoin:miter;stroke-opacity:1"/>
<path class="bond-12 atom-12 atom-13" d="M 160.1,290.1 L 155.2,283.3" style="fill:none;fill-rule:evenodd;stroke:#000000;stroke-width:1.0px;stroke-linecap:butt;stroke-linejoin:miter;stroke-opacity:1"/>
<path class="bond-12 atom-12 atom-13" d="M 157.4,292.4 L 152.2,285.1" style="fill:none;fill-rule:evenodd;stroke:#000000;stroke-width:1.0px;stroke-linecap:butt;stroke-linejoin:miter;stroke-opacity:1"/>
<path class="bond-12 atom-12 atom-13" d="M 154.7,294.6 L 149.2,286.9" style="fill:none;fill-rule:evenodd;stroke:#000000;stroke-width:1.0px;stroke-linecap:butt;stroke-linejoin:miter;stroke-opacity:1"/>
<path class="bond-12 atom-12 atom-13" d="M 152.0,296.8 L 146.2,288.7" style="fill:none;fill-rule:evenodd;stroke:#000000;stroke-width:1.0px;stroke-linecap:butt;stroke-linejoin:miter;stroke-opacity:1"/>
<path class="bond-12 atom-12 atom-13" d="M 149.3,299.1 L 143.2,290.5" style="fill:none;fill-rule:evenodd;stroke:#000000;stroke-width:1.0px;stroke-linecap:butt;stroke-linejoin:miter;stroke-opacity:1"/>
<path class="bond-12 atom-12 atom-13" d="M 146.6,301.3 L 140.2,292.4" style="fill:none;fill-rule:evenodd;stroke:#000000;stroke-width:1.0px;stroke-linecap:butt;stroke-linejoin:miter;stroke-opacity:1"/>
<path class="bond-12 atom-12 atom-13" d="M 143.9,303.6 L 137.2,294.2" style="fill:none;fill-rule:evenodd;stroke:#000000;stroke-width:1.0px;stroke-linecap:butt;stroke-linejoin:miter;stroke-opacity:1"/>
<path class="bond-12 atom-12 atom-13" d="M 141.2,305.8 L 134.2,296.0" style="fill:none;fill-rule:evenodd;stroke:#000000;stroke-width:1.0px;stroke-linecap:butt;stroke-linejoin:miter;stroke-opacity:1"/>
<path class="bond-12 atom-12 atom-13" d="M 138.5,308.0 L 131.2,297.8" style="fill:none;fill-rule:evenodd;stroke:#000000;stroke-width:1.0px;stroke-linecap:butt;stroke-linejoin:miter;stroke-opacity:1"/>
<path class="bond-12 atom-12 atom-13" d="M 135.8,310.3 L 128.2,299.6" style="fill:none;fill-rule:evenodd;stroke:#000000;stroke-width:1.0px;stroke-linecap:butt;stroke-linejoin:miter;stroke-opacity:1"/>
<path class="bond-12 atom-12 atom-13" d="M 133.1,312.5 L 125.2,301.4" style="fill:none;fill-rule:evenodd;stroke:#000000;stroke-width:1.0px;stroke-linecap:butt;stroke-linejoin:miter;stroke-opacity:1"/>
<path class="bond-12 atom-12 atom-13" d="M 130.4,314.8 L 122.2,303.2" style="fill:none;fill-rule:evenodd;stroke:#000000;stroke-width:1.0px;stroke-linecap:butt;stroke-linejoin:miter;stroke-opacity:1"/>
<path class="bond-12 atom-12 atom-13" d="M 127.7,317.0 L 119.2,305.0" style="fill:none;fill-rule:evenodd;stroke:#000000;stroke-width:1.0px;stroke-linecap:butt;stroke-linejoin:miter;stroke-opacity:1"/>
<path class="bond-12 atom-12 atom-13" d="M 125.0,319.2 L 116.2,306.9" style="fill:none;fill-rule:evenodd;stroke:#000000;stroke-width:1.0px;stroke-linecap:butt;stroke-linejoin:miter;stroke-opacity:1"/>
<path class="bond-12 atom-12 atom-13" d="M 122.3,321.5 L 113.2,308.7" style="fill:none;fill-rule:evenodd;stroke:#000000;stroke-width:1.0px;stroke-linecap:butt;stroke-linejoin:miter;stroke-opacity:1"/>
<path class="bond-12 atom-12 atom-13" d="M 119.6,323.7 L 110.2,310.5" style="fill:none;fill-rule:evenodd;stroke:#000000;stroke-width:1.0px;stroke-linecap:butt;stroke-linejoin:miter;stroke-opacity:1"/>
<path class="bond-12 atom-12 atom-13" d="M 117.0,326.0 L 107.2,312.3" style="fill:none;fill-rule:evenodd;stroke:#000000;stroke-width:1.0px;stroke-linecap:butt;stroke-linejoin:miter;stroke-opacity:1"/>
<path class="bond-12 atom-12 atom-13" d="M 114.3,328.2 L 104.2,314.1" style="fill:none;fill-rule:evenodd;stroke:#000000;stroke-width:1.0px;stroke-linecap:butt;stroke-linejoin:miter;stroke-opacity:1"/>
<path class="bond-12 atom-12 atom-13" d="M 111.6,330.4 L 101.2,315.9" style="fill:none;fill-rule:evenodd;stroke:#000000;stroke-width:1.0px;stroke-linecap:butt;stroke-linejoin:miter;stroke-opacity:1"/>
<path class="bond-12 atom-12 atom-13" d="M 108.9,332.7 L 98.2,317.7" style="fill:none;fill-rule:evenodd;stroke:#000000;stroke-width:1.0px;stroke-linecap:butt;stroke-linejoin:miter;stroke-opacity:1"/>
<path class="bond-12 atom-12 atom-13" d="M 106.2,334.9 L 95.2,319.6" style="fill:none;fill-rule:evenodd;stroke:#000000;stroke-width:1.0px;stroke-linecap:butt;stroke-linejoin:miter;stroke-opacity:1"/>
<path class="bond-12 atom-12 atom-13" d="M 103.5,337.2 L 92.2,321.4" style="fill:none;fill-rule:evenodd;stroke:#000000;stroke-width:1.0px;stroke-linecap:butt;stroke-linejoin:miter;stroke-opacity:1"/>
<path class="bond-13 atom-12 atom-14" d="M 203.2,254.3 L 190.9,125.6" style="fill:none;fill-rule:evenodd;stroke:#000000;stroke-width:2.0px;stroke-linecap:butt;stroke-linejoin:miter;stroke-opacity:1"/>
<path class="bond-14 atom-14 atom-15" d="M 190.9,125.6 L 135.2,100.1" style="fill:none;fill-rule:evenodd;stroke:#000000;stroke-width:2.0px;stroke-linecap:butt;stroke-linejoin:miter;stroke-opacity:1"/>
<path class="bond-14 atom-14 atom-15" d="M 135.2,100.1 L 79.5,74.7" style="fill:none;fill-rule:evenodd;stroke:#191919;stroke-width:2.0px;stroke-linecap:butt;stroke-linejoin:miter;stroke-opacity:1"/>
<path class="bond-15 atom-14 atom-16" d="M 192.0,136.7 L 238.3,103.7" style="fill:none;fill-rule:evenodd;stroke:#000000;stroke-width:2.0px;stroke-linecap:butt;stroke-linejoin:miter;stroke-opacity:1"/>
<path class="bond-15 atom-14 atom-16" d="M 238.3,103.7 L 284.6,70.8" style="fill:none;fill-rule:evenodd;stroke:#FF0000;stroke-width:2.0px;stroke-linecap:butt;stroke-linejoin:miter;stroke-opacity:1"/>
<path class="bond-15 atom-14 atom-16" d="M 180.7,120.9 L 227.1,87.9" style="fill:none;fill-rule:evenodd;stroke:#000000;stroke-width:2.0px;stroke-linecap:butt;stroke-linejoin:miter;stroke-opacity:1"/>
<path class="bond-15 atom-14 atom-16" d="M 227.1,87.9 L 273.4,55.0" style="fill:none;fill-rule:evenodd;stroke:#FF0000;stroke-width:2.0px;stroke-linecap:butt;stroke-linejoin:miter;stroke-opacity:1"/>
<path d="M 991.9,242.6 L 989.7,244.2 L 983.8,241.5" style="fill:none;stroke:#000000;stroke-width:2.0px;stroke-linecap:butt;stroke-linejoin:miter;stroke-opacity:1;"/>
<path d="M 877.9,193.2 L 872.0,190.5 L 869.8,192.1" style="fill:none;stroke:#000000;stroke-width:2.0px;stroke-linecap:butt;stroke-linejoin:miter;stroke-opacity:1;"/>
<path d="M 651.7,212.9 L 649.1,211.8 L 643.8,215.5" style="fill:none;stroke:#000000;stroke-width:2.0px;stroke-linecap:butt;stroke-linejoin:miter;stroke-opacity:1;"/>
<path d="M 549.0,283.0 L 543.8,286.8 L 537.9,284.1" style="fill:none;stroke:#000000;stroke-width:2.0px;stroke-linecap:butt;stroke-linejoin:miter;stroke-opacity:1;"/>
<path d="M 432.0,235.7 L 426.1,233.0 L 423.9,234.6" style="fill:none;stroke:#000000;stroke-width:2.0px;stroke-linecap:butt;stroke-linejoin:miter;stroke-opacity:1;"/>
<path d="M 205.8,255.5 L 203.2,254.3 L 202.6,247.8" style="fill:none;stroke:#000000;stroke-width:2.0px;stroke-linecap:butt;stroke-linejoin:miter;stroke-opacity:1;"/>
<path d="M 191.5,132.0 L 190.9,125.6 L 188.1,124.3" style="fill:none;stroke:#000000;stroke-width:2.0px;stroke-linecap:butt;stroke-linejoin:miter;stroke-opacity:1;"/>
<path class="atom-0" d="M 1077.4 37.4 L 1081.5 33.1 L 1076.0 32.0 L 1076.9 29.2 L 1081.9 31.7 L 1081.2 26.2 L 1084.2 26.1 L 1083.4 31.7 L 1088.5 29.3 L 1089.4 32.0 L 1083.8 33.0 L 1087.8 37.3 L 1085.4 39.1 L 1082.6 33.8 L 1079.8 39.1 L 1077.4 37.4 " fill="#191919"/>
<path class="atom-1" d="M 1088.7 155.1 L 1098.0 170.1 Q 1098.9 171.6, 1100.4 174.2 Q 1101.9 176.9, 1102.0 177.1 L 1102.0 155.1 L 1105.7 155.1 L 1105.7 183.4 L 1101.8 183.4 L 1091.9 167.0 Q 1090.7 165.1, 1089.5 162.9 Q 1088.3 160.7, 1087.9 160.0 L 1087.9 183.4 L 1084.2 183.4 L 1084.2 155.1 L 1088.7 155.1 " fill="#0000FF"/>
<path class="atom-1" d="M 1111.2 155.1 L 1115.1 155.1 L 1115.1 167.1 L 1129.6 167.1 L 1129.6 155.1 L 1133.4 155.1 L 1133.4 183.4 L 1129.6 183.4 L 1129.6 170.3 L 1115.1 170.3 L 1115.1 183.4 L 1111.2 183.4 L 1111.2 155.1 " fill="#0000FF"/>
<path class="atom-5" d="M 846.8 61.9 Q 846.8 55.1, 850.1 51.3 Q 853.5 47.5, 859.8 47.5 Q 866.0 47.5, 869.4 51.3 Q 872.8 55.1, 872.8 61.9 Q 872.8 68.7, 869.4 72.7 Q 866.0 76.5, 859.8 76.5 Q 853.5 76.5, 850.1 72.7 Q 846.8 68.8, 846.8 61.9 M 859.8 73.3 Q 864.1 73.3, 866.4 70.5 Q 868.8 67.5, 868.8 61.9 Q 868.8 56.3, 866.4 53.5 Q 864.1 50.7, 859.8 50.7 Q 855.4 50.7, 853.1 53.5 Q 850.8 56.3, 850.8 61.9 Q 850.8 67.6, 853.1 70.5 Q 855.4 73.3, 859.8 73.3 " fill="#FF0000"/>
<path class="atom-6" d="M 760.4 251.3 L 769.7 266.3 Q 770.6 267.8, 772.1 270.5 Q 773.6 273.2, 773.7 273.3 L 773.7 251.3 L 777.4 251.3 L 777.4 279.7 L 773.6 279.7 L 763.6 263.3 Q 762.4 261.3, 761.2 259.1 Q 760.0 256.9, 759.6 256.3 L 759.6 279.7 L 756.0 279.7 L 756.0 251.3 L 760.4 251.3 " fill="#0000FF"/>
<path class="atom-6" d="M 755.6 282.5 L 759.5 282.5 L 759.5 294.5 L 773.9 294.5 L 773.9 282.5 L 777.8 282.5 L 777.8 310.8 L 773.9 310.8 L 773.9 297.7 L 759.5 297.7 L 759.5 310.8 L 755.6 310.8 L 755.6 282.5 " fill="#0000FF"/>
<path class="atom-10" d="M 400.9 104.4 Q 400.9 97.6, 404.2 93.8 Q 407.6 90.0, 413.9 90.0 Q 420.1 90.0, 423.5 93.8 Q 426.9 97.6, 426.9 104.4 Q 426.9 111.3, 423.5 115.2 Q 420.1 119.1, 413.9 119.1 Q 407.6 119.1, 404.2 115.2 Q 400.9 111.3, 400.9 104.4 M 413.9 115.9 Q 418.2 115.9, 420.5 113.0 Q 422.9 110.1, 422.9 104.4 Q 422.9 98.8, 420.5 96.0 Q 418.2 93.2, 413.9 93.2 Q 409.5 93.2, 407.2 96.0 Q 404.9 98.8, 404.9 104.4 Q 404.9 110.1, 407.2 113.0 Q 409.5 115.9, 413.9 115.9 " fill="#FF0000"/>
<path class="atom-11" d="M 314.5 293.8 L 323.8 308.8 Q 324.7 310.3, 326.2 313.0 Q 327.7 315.7, 327.8 315.8 L 327.8 293.8 L 331.5 293.8 L 331.5 322.2 L 327.7 322.2 L 317.7 305.8 Q 316.5 303.8, 315.3 301.6 Q 314.1 299.4, 313.7 298.8 L 313.7 322.2 L 310.1 322.2 L 310.1 293.8 L 314.5 293.8 " fill="#0000FF"/>
<path class="atom-11" d="M 309.7 325.0 L 313.6 325.0 L 313.6 337.0 L 328.0 337.0 L 328.0 325.0 L 331.9 325.0 L 331.9 353.3 L 328.0 353.3 L 328.0 340.2 L 313.6 340.2 L 313.6 353.3 L 309.7 353.3 L 309.7 325.0 " fill="#0000FF"/>
<path class="atom-15" d="M 68.0 68.7 L 72.1 64.4 L 66.6 63.3 L 67.4 60.5 L 72.5 63.0 L 71.8 57.5 L 74.8 57.4 L 74.0 63.0 L 79.1 60.6 L 80.0 63.3 L 74.4 64.3 L 78.4 68.6 L 76.0 70.4 L 73.2 65.1 L 70.4 70.4 L 68.0 68.7 " fill="#191919"/>
<path class="atom-16" d="M 283.3 50.6 Q 283.3 43.8, 286.6 40.0 Q 290.0 36.2, 296.3 36.2 Q 302.5 36.2, 305.9 40.0 Q 309.3 43.8, 309.3 50.6 Q 309.3 57.5, 305.9 61.4 Q 302.5 65.3, 296.3 65.3 Q 290.0 65.3, 286.6 61.4 Q 283.3 57.6, 283.3 50.6 M 296.3 62.1 Q 300.6 62.1, 302.9 59.2 Q 305.3 56.3, 305.3 50.6 Q 305.3 45.1, 302.9 42.3 Q 300.6 39.4, 296.3 39.4 Q 291.9 39.4, 289.6 42.2 Q 287.3 45.0, 287.3 50.6 Q 287.3 56.4, 289.6 59.2 Q 291.9 62.1, 296.3 62.1 " fill="#FF0000"/>
<path class="bond-0 atom-0 atom-1" d="M 423.9,607.1 L 477.9,584.1" style="fill:none;fill-rule:evenodd;stroke:#191919;stroke-width:2.0px;stroke-linecap:butt;stroke-linejoin:miter;stroke-opacity:1"/>
<path class="bond-0 atom-0 atom-1" d="M 477.9,584.1 L 531.9,561.1" style="fill:none;fill-rule:evenodd;stroke:#000000;stroke-width:2.0px;stroke-linecap:butt;stroke-linejoin:miter;stroke-opacity:1"/>
<path class="bond-1 atom-1 atom-2" d="M 531.9,561.1 L 635.2,638.9" style="fill:none;fill-rule:evenodd;stroke:#000000;stroke-width:2.0px;stroke-linecap:butt;stroke-linejoin:miter;stroke-opacity:1"/>
<path class="bond-2 atom-2 atom-3" d="M 635.2,638.9 L 686.1,617.2" style="fill:none;fill-rule:evenodd;stroke:#000000;stroke-width:2.0px;stroke-linecap:butt;stroke-linejoin:miter;stroke-opacity:1"/>
<path class="bond-2 atom-2 atom-3" d="M 686.1,617.2 L 736.9,595.6" style="fill:none;fill-rule:evenodd;stroke:#FF0000;stroke-width:2.0px;stroke-linecap:butt;stroke-linejoin:miter;stroke-opacity:1"/>
<path d="M 529.2,562.3 L 531.9,561.1 L 537.1,565.0" style="fill:none;stroke:#000000;stroke-width:2.0px;stroke-linecap:butt;stroke-linejoin:miter;stroke-opacity:1;"/>
<path d="M 630.1,635.0 L 635.2,638.9 L 637.8,637.8" style="fill:none;stroke:#000000;stroke-width:2.0px;stroke-linecap:butt;stroke-linejoin:miter;stroke-opacity:1;"/>
<path class="atom-0" d="M 407.6 608.6 L 411.7 604.4 L 406.2 603.2 L 407.1 600.4 L 412.1 603.0 L 411.4 597.4 L 414.4 597.4 L 413.6 602.9 L 418.7 600.5 L 419.6 603.2 L 414.0 604.3 L 418.0 608.6 L 415.6 610.3 L 412.8 605.0 L 410.0 610.3 L 407.6 608.6 " fill="#191919"/>
<path class="atom-3" d="M 741.2 588.3 Q 741.2 581.5, 744.6 577.7 Q 747.9 573.9, 754.2 573.9 Q 760.5 573.9, 763.9 577.7 Q 767.2 581.5, 767.2 588.3 Q 767.2 595.2, 763.8 599.1 Q 760.4 603.0, 754.2 603.0 Q 748.0 603.0, 744.6 599.1 Q 741.2 595.2, 741.2 588.3 M 754.2 599.8 Q 758.5 599.8, 760.9 596.9 Q 763.2 594.0, 763.2 588.3 Q 763.2 582.8, 760.9 580.0 Q 758.5 577.1, 754.2 577.1 Q 749.9 577.1, 747.5 579.9 Q 745.2 582.7, 745.2 588.3 Q 745.2 594.0, 747.5 596.9 Q 749.9 599.8, 754.2 599.8 " fill="#FF0000"/>
<path class="atom-3" d="M 771.6 574.2 L 775.5 574.2 L 775.5 586.3 L 789.9 586.3 L 789.9 574.2 L 793.8 574.2 L 793.8 602.6 L 789.9 602.6 L 789.9 589.5 L 775.5 589.5 L 775.5 602.6 L 771.6 602.6 L 771.6 574.2 " fill="#FF0000"/>
</svg>