<svg xmlns="http://www.w3.org/2000/svg" xmlns:rdkit="http://www.rdkit.org/xml" xmlns:xlink="http://www.w3.org/1999/xlink" version="1.1" baseProfile="full" xml:space="preserve" width="1200px" height="800px" viewBox="0 0 1200 800">
<!-- END OF HEADER -->
<rect style="opacity:1.0;fill:#FFFFFF;stroke:none" width="1200.0" height="800.0" x="0.0" y="0.0"> </rect>
<path class="bond-0 atom-0 atom-1" d="M 1114.8,90.7 L 1107.8,137.8" style="fill:none;fill-rule:evenodd;stroke:#191919;stroke-width:2.0px;stroke-linecap:butt;stroke-linejoin:miter;stroke-opacity:1"/>
<path class="bond-0 atom-0 atom-1" d="M 1107.8,137.8 L 1100.7,185.0" style="fill:none;fill-rule:evenodd;stroke:#0000FF;stroke-width:2.0px;stroke-linecap:butt;stroke-linejoin:miter;stroke-opacity:1"/>
<path class="bond-1 atom-1 atom-2" d="M 1083.4,208.7 L 1036.7,227.1" style="fill:none;fill-rule:evenodd;stroke:#0000FF;stroke-width:2.0px;stroke-linecap:butt;stroke-linejoin:miter;stroke-opacity:1"/>
<path class="bond-1 atom-1 atom-2" d="M 1036.7,227.1 L 990.1,245.5" style="fill:none;fill-rule:evenodd;stroke:#000000;stroke-width:2.0px;stroke-linecap:butt;stroke-linejoin:miter;stroke-opacity:1"/>
<path class="bond-2 atom-2 atom-3" d="M 989.8,249.0 L 989.3,248.9" style="fill:none;fill-rule:evenodd;stroke:#000000;stroke-width:1.0px;stroke-linecap:butt;stroke-linejoin:miter;stroke-opacity:1"/>
<path class="bond-2 atom-2 atom-3" d="M 989.5,252.5 L 988.5,252.3" style="fill:none;fill-rule:evenodd;stroke:#000000;stroke-width:1.0px;stroke-linecap:butt;stroke-linejoin:miter;stroke-opacity:1"/>
<path class="bond-2 atom-2 atom-3" d="M 989.3,256.0 L 987.7,255.8" style="fill:none;fill-rule:evenodd;stroke:#000000;stroke-width:1.0px;stroke-linecap:butt;stroke-linejoin:miter;stroke-opacity:1"/>
<path class="bond-2 atom-2 atom-3" d="M 989.0,259.5 L 986.9,259.2" style="fill:none;fill-rule:evenodd;stroke:#000000;stroke-width:1.0px;stroke-linecap:butt;stroke-linejoin:miter;stroke-opacity:1"/>
<path class="bond-2 atom-2 atom-3" d="M 988.8,263.0 L 986.2,262.6" style="fill:none;fill-rule:evenodd;stroke:#000000;stroke-width:1.0px;stroke-linecap:butt;stroke-linejoin:miter;stroke-opacity:1"/>
<path class="bond-2 atom-2 atom-3" d="M 988.5,266.5 L 985.4,266.1" style="fill:none;fill-rule:evenodd;stroke:#000000;stroke-width:1.0px;stroke-linecap:butt;stroke-linejoin:miter;stroke-opacity:1"/>
<path class="bond-2 atom-2 atom-3" d="M 988.2,270.1 L 984.6,269.5" style="fill:none;fill-rule:evenodd;stroke:#000000;stroke-width:1.0px;stroke-linecap:butt;stroke-linejoin:miter;stroke-opacity:1"/>
<path class="bond-2 atom-2 atom-3" d="M 988.0,273.6 L 983.8,272.9" style="fill:none;fill-rule:evenodd;stroke:#000000;stroke-width:1.0px;stroke-linecap:butt;stroke-linejoin:miter;stroke-opacity:1"/>
<path class="bond-2 atom-2 atom-3" d="M 987.7,277.1 L 983.0,276.4" style="fill:none;fill-rule:evenodd;stroke:#000000;stroke-width:1.0px;stroke-linecap:butt;stroke-linejoin:miter;stroke-opacity:1"/>
<path class="bond-2 atom-2 atom-3" d="M 987.5,280.6 L 982.3,279.8" style="fill:none;fill-rule:evenodd;stroke:#000000;stroke-width:1.0px;stroke-linecap:butt;stroke-linejoin:miter;stroke-opacity:1"/>
<path class="bond-2 atom-2 atom-3" d="M 987.2,284.1 L 981.5,283.3" style="fill:none;fill-rule:evenodd;stroke:#000000;stroke-width:1.0px;stroke-linecap:butt;stroke-linejoin:miter;stroke-opacity:1"/>
<path class="bond-2 atom-2 atom-3" d="M 986.9,287.6 L 980.7,286.7" style="fill:none;fill-rule:evenodd;stroke:#000000;stroke-width:1.0px;stroke-linecap:butt;stroke-linejoin:miter;stroke-opacity:1"/>
<path class="bond-2 atom-2 atom-3" d="M 986.7,291.1 L 979.9,290.1" style="fill:none;fill-rule:evenodd;stroke:#000000;stroke-width:1.0px;stroke-linecap:butt;stroke-linejoin:miter;stroke-opacity:1"/>
<path class="bond-2 atom-2 atom-3" d="M 986.4,294.7 L 979.1,293.6" style="fill:none;fill-rule:evenodd;stroke:#000000;stroke-width:1.0px;stroke-linecap:butt;stroke-linejoin:miter;stroke-opacity:1"/>
<path class="bond-2 atom-2 atom-3" d="M 986.2,298.2 L 978.3,297.0" style="fill:none;fill-rule:evenodd;stroke:#000000;stroke-width:1.0px;stroke-linecap:butt;stroke-linejoin:miter;stroke-opacity:1"/>
<path class="bond-2 atom-2 atom-3" d="M 985.9,301.7 L 977.6,300.4" style="fill:none;fill-rule:evenodd;stroke:#000000;stroke-width:1.0px;stroke-linecap:butt;stroke-linejoin:miter;stroke-opacity:1"/>
<path class="bond-2 atom-2 atom-3" d="M 985.6,305.2 L 976.8,303.9" style="fill:none;fill-rule:evenodd;stroke:#000000;stroke-width:1.0px;stroke-linecap:butt;stroke-linejoin:miter;stroke-opacity:1"/>
<path class="bond-2 atom-2 atom-3" d="M 985.4,308.7 L 976.0,307.3" style="fill:none;fill-rule:evenodd;stroke:#000000;stroke-width:1.0px;stroke-linecap:butt;stroke-linejoin:miter;stroke-opacity:1"/>
<path class="bond-2 atom-2 atom-3" d="M 985.1,312.2 L 975.2,310.7" style="fill:none;fill-rule:evenodd;stroke:#000000;stroke-width:1.0px;stroke-linecap:butt;stroke-linejoin:miter;stroke-opacity:1"/>
<path class="bond-2 atom-2 atom-3" d="M 984.9,315.7 L 974.4,314.2" style="fill:none;fill-rule:evenodd;stroke:#000000;stroke-width:1.0px;stroke-linecap:butt;stroke-linejoin:miter;stroke-opacity:1"/>
<path class="bond-2 atom-2 atom-3" d="M 984.6,319.3 L 973.7,317.6" style="fill:none;fill-rule:evenodd;stroke:#000000;stroke-width:1.0px;stroke-linecap:butt;stroke-linejoin:miter;stroke-opacity:1"/>
<path class="bond-2 atom-2 atom-3" d="M 984.3,322.8 L 972.9,321.1" style="fill:none;fill-rule:evenodd;stroke:#000000;stroke-width:1.0px;stroke-linecap:butt;stroke-linejoin:miter;stroke-opacity:1"/>
<path class="bond-2 atom-2 atom-3" d="M 984.1,326.3 L 972.1,324.5" style="fill:none;fill-rule:evenodd;stroke:#000000;stroke-width:1.0px;stroke-linecap:butt;stroke-linejoin:miter;stroke-opacity:1"/>
<path class="bond-2 atom-2 atom-3" d="M 983.8,329.8 L 971.3,327.9" style="fill:none;fill-rule:evenodd;stroke:#000000;stroke-width:1.0px;stroke-linecap:butt;stroke-linejoin:miter;stroke-opacity:1"/>
<path class="bond-2 atom-2 atom-3" d="M 983.6,333.3 L 970.5,331.4" style="fill:none;fill-rule:evenodd;stroke:#000000;stroke-width:1.0px;stroke-linecap:butt;stroke-linejoin:miter;stroke-opacity:1"/>
<path class="bond-2 atom-2 atom-3" d="M 983.3,336.8 L 969.7,334.8" style="fill:none;fill-rule:evenodd;stroke:#000000;stroke-width:1.0px;stroke-linecap:butt;stroke-linejoin:miter;stroke-opacity:1"/>
<path class="bond-2 atom-2 atom-3" d="M 983.0,340.3 L 969.0,338.2" style="fill:none;fill-rule:evenodd;stroke:#000000;stroke-width:1.0px;stroke-linecap:butt;stroke-linejoin:miter;stroke-opacity:1"/>
<path class="bond-2 atom-2 atom-3" d="M 982.8,343.9 L 968.2,341.7" style="fill:none;fill-rule:evenodd;stroke:#000000;stroke-width:1.0px;stroke-linecap:butt;stroke-linejoin:miter;stroke-opacity:1"/>
<path class="bond-2 atom-2 atom-3" d="M 982.5,347.4 L 967.4,345.1" style="fill:none;fill-rule:evenodd;stroke:#000000;stroke-width:1.0px;stroke-linecap:butt;stroke-linejoin:miter;stroke-opacity:1"/>
<path class="bond-2 atom-2 atom-3" d="M 982.3,350.9 L 966.6,348.5" style="fill:none;fill-rule:evenodd;stroke:#000000;stroke-width:1.0px;stroke-linecap:butt;stroke-linejoin:miter;stroke-opacity:1"/>
<path class="bond-2 atom-2 atom-3" d="M 982.0,354.4 L 965.8,352.0" style="fill:none;fill-rule:evenodd;stroke:#000000;stroke-width:1.0px;stroke-linecap:butt;stroke-linejoin:miter;stroke-opacity:1"/>
<path class="bond-2 atom-2 atom-3" d="M 981.7,357.9 L 965.1,355.4" style="fill:none;fill-rule:evenodd;stroke:#000000;stroke-width:1.0px;stroke-linecap:butt;stroke-linejoin:miter;stroke-opacity:1"/>
<path class="bond-2 atom-2 atom-3" d="M 981.5,361.4 L 964.3,358.9" style="fill:none;fill-rule:evenodd;stroke:#000000;stroke-width:1.0px;stroke-linecap:butt;stroke-linejoin:miter;stroke-opacity:1"/>
<path class="bond-3 atom-2 atom-4" d="M 990.1,245.5 L 899.3,173.2" style="fill:none;fill-rule:evenodd;stroke:#000000;stroke-width:2.0px;stroke-linecap:butt;stroke-linejoin:miter;stroke-opacity:1"/>
<path class="bond-4 atom-4 atom-5" d="M 907.2,179.5 L 914.8,128.9" style="fill:none;fill-rule:evenodd;stroke:#000000;stroke-width:2.0px;stroke-linecap:butt;stroke-linejoin:miter;stroke-opacity:1"/>
<path class="bond-4 atom-4 atom-5" d="M 914.8,128.9 L 922.3,78.4" style="fill:none;fill-rule:evenodd;stroke:#FF0000;stroke-width:2.0px;stroke-linecap:butt;stroke-linejoin:miter;stroke-opacity:1"/>
<path class="bond-4 atom-4 atom-5" d="M 890.0,176.9 L 897.6,126.4" style="fill:none;fill-rule:evenodd;stroke:#000000;stroke-width:2.0px;stroke-linecap:butt;stroke-linejoin:miter;stroke-opacity:1"/>
<path class="bond-4 atom-4 atom-5" d="M 897.6,126.4 L 905.1,75.8" style="fill:none;fill-rule:evenodd;stroke:#FF0000;stroke-width:2.0px;stroke-linecap:butt;stroke-linejoin:miter;stroke-opacity:1"/>
<path class="bond-5 atom-4 atom-6" d="M 899.3,173.2 L 852.7,191.6" style="fill:none;fill-rule:evenodd;stroke:#000000;stroke-width:2.0px;stroke-linecap:butt;stroke-linejoin:miter;stroke-opacity:1"/>
<path class="bond-5 atom-4 atom-6" d="M 852.7,191.6 L 806.0,209.9" style="fill:none;fill-rule:evenodd;stroke:#0000FF;stroke-width:2.0px;stroke-linecap:butt;stroke-linejoin:miter;stroke-opacity:1"/>
<path class="bond-6 atom-6 atom-7" d="M 776.8,204.1 L 738.8,173.8" style="fill:none;fill-rule:evenodd;stroke:#0000FF;stroke-width:2.0px;stroke-linecap:butt;stroke-linejoin:miter;stroke-opacity:1"/>
<path class="bond-6 atom-6 atom-7" d="M 738.8,173.8 L 700.7,143.4" style="fill:none;fill-rule:evenodd;stroke:#000000;stroke-width:2.0px;stroke-linecap:butt;stroke-linejoin:miter;stroke-opacity:1"/>
<path class="bond-7 atom-7 atom-8" d="M 700.7,143.4 L 592.7,185.9" style="fill:none;fill-rule:evenodd;stroke:#000000;stroke-width:2.0px;stroke-linecap:butt;stroke-linejoin:miter;stroke-opacity:1"/>
<path class="bond-8 atom-8 atom-9" d="M 592.7,185.9 L 502.0,113.7" style="fill:none;fill-rule:evenodd;stroke:#000000;stroke-width:2.0px;stroke-linecap:butt;stroke-linejoin:miter;stroke-opacity:1"/>
<path class="bond-9 atom-9 atom-10" d="M 502.0,113.7 L 394.1,156.1" style="fill:none;fill-rule:evenodd;stroke:#000000;stroke-width:2.0px;stroke-linecap:butt;stroke-linejoin:miter;stroke-opacity:1"/>
<path class="bond-10 atom-10 atom-11" d="M 386.2,149.9 L 378.6,200.6" style="fill:none;fill-rule:evenodd;stroke:#000000;stroke-width:2.0px;stroke-linecap:butt;stroke-linejoin:miter;stroke-opacity:1"/>
<path class="bond-10 atom-10 atom-11" d="M 378.6,200.6 L 371.0,251.4" style="fill:none;fill-rule:evenodd;stroke:#FF0000;stroke-width:2.0px;stroke-linecap:butt;stroke-linejoin:miter;stroke-opacity:1"/>
<path class="bond-10 atom-10 atom-11" d="M 403.4,152.4 L 395.8,203.2" style="fill:none;fill-rule:evenodd;stroke:#000000;stroke-width:2.0px;stroke-linecap:butt;stroke-linejoin:miter;stroke-opacity:1"/>
<path class="bond-10 atom-10 atom-11" d="M 395.8,203.2 L 388.2,254.0" style="fill:none;fill-rule:evenodd;stroke:#FF0000;stroke-width:2.0px;stroke-linecap:butt;stroke-linejoin:miter;stroke-opacity:1"/>
<path class="bond-11 atom-10 atom-12" d="M 394.1,156.1 L 356.0,125.8" style="fill:none;fill-rule:evenodd;stroke:#000000;stroke-width:2.0px;stroke-linecap:butt;stroke-linejoin:miter;stroke-opacity:1"/>
<path class="bond-11 atom-10 atom-12" d="M 356.0,125.8 L 317.9,95.5" style="fill:none;fill-rule:evenodd;stroke:#0000FF;stroke-width:2.0px;stroke-linecap:butt;stroke-linejoin:miter;stroke-opacity:1"/>
<path class="bond-12 atom-12 atom-13" d="M 288.8,89.6 L 242.1,108.0" style="fill:none;fill-rule:evenodd;stroke:#0000FF;stroke-width:2.0px;stroke-linecap:butt;stroke-linejoin:miter;stroke-opacity:1"/>
<path class="bond-12 atom-12 atom-13" d="M 242.1,108.0 L 195.4,126.3" style="fill:none;fill-rule:evenodd;stroke:#000000;stroke-width:2.0px;stroke-linecap:butt;stroke-linejoin:miter;stroke-opacity:1"/>
<path class="bond-13 atom-13 atom-14" d="M 195.4,126.3 L 99.3,60.9 L 110.1,47.3 Z" style="fill:#000000;fill-rule:evenodd;fill-opacity:1;stroke:#000000;stroke-width:0.5px;stroke-linecap:butt;stroke-linejoin:miter;stroke-opacity:1;"/>
<path class="bond-14 atom-13 atom-15" d="M 195.4,126.3 L 178.2,241.0" style="fill:none;fill-rule:evenodd;stroke:#000000;stroke-width:2.0px;stroke-linecap:butt;stroke-linejoin:miter;stroke-opacity:1"/>
<path class="bond-15 atom-15 atom-16" d="M 178.2,241.0 L 129.5,260.2" style="fill:none;fill-rule:evenodd;stroke:#000000;stroke-width:2.0px;stroke-linecap:butt;stroke-linejoin:miter;stroke-opacity:1"/>
<path class="bond-15 atom-15 atom-16" d="M 129.5,260.2 L 80.8,279.3" style="fill:none;fill-rule:evenodd;stroke:#191919;stroke-width:2.0px;stroke-linecap:butt;stroke-linejoin:miter;stroke-opacity:1"/>
<path class="bond-16 atom-15 atom-17" d="M 168.9,244.7 L 207.8,275.7" style="fill:none;fill-rule:evenodd;stroke:#000000;stroke-width:2.0px;stroke-linecap:butt;stroke-linejoin:miter;stroke-opacity:1"/>
<path class="bond-16 atom-15 atom-17" d="M 207.8,275.7 L 246.7,306.7" style="fill:none;fill-rule:evenodd;stroke:#FF0000;stroke-width:2.0px;stroke-linecap:butt;stroke-linejoin:miter;stroke-opacity:1"/>
<path class="bond-16 atom-15 atom-17" d="M 179.7,231.1 L 218.6,262.1" style="fill:none;fill-rule:evenodd;stroke:#000000;stroke-width:2.0px;stroke-linecap:butt;stroke-linejoin:miter;stroke-opacity:1"/>
<path class="bond-16 atom-15 atom-17" d="M 218.6,262.1 L 257.6,293.1" style="fill:none;fill-rule:evenodd;stroke:#FF0000;stroke-width:2.0px;stroke-linecap:butt;stroke-linejoin:miter;stroke-opacity:1"/>
<path d="M 992.4,244.5 L 990.1,245.5 L 985.5,241.8" style="fill:none;stroke:#000000;stroke-width:2.0px;stroke-linecap:butt;stroke-linejoin:miter;stroke-opacity:1;"/>
<path d="M 903.9,176.8 L 899.3,173.2 L 897.0,174.1" style="fill:none;stroke:#000000;stroke-width:2.0px;stroke-linecap:butt;stroke-linejoin:miter;stroke-opacity:1;"/>
<path d="M 702.6,144.9 L 700.7,143.4 L 695.3,145.6" style="fill:none;stroke:#000000;stroke-width:2.0px;stroke-linecap:butt;stroke-linejoin:miter;stroke-opacity:1;"/>
<path d="M 598.1,183.8 L 592.7,185.9 L 588.2,182.3" style="fill:none;stroke:#000000;stroke-width:2.0px;stroke-linecap:butt;stroke-linejoin:miter;stroke-opacity:1;"/>
<path d="M 506.5,117.3 L 502.0,113.7 L 496.6,115.8" style="fill:none;stroke:#000000;stroke-width:2.0px;stroke-linecap:butt;stroke-linejoin:miter;stroke-opacity:1;"/>
<path d="M 399.5,154.0 L 394.1,156.1 L 392.2,154.6" style="fill:none;stroke:#000000;stroke-width:2.0px;stroke-linecap:butt;stroke-linejoin:miter;stroke-opacity:1;"/>
<path d="M 197.8,125.4 L 195.4,126.3 L 194.6,132.1" style="fill:none;stroke:#000000;stroke-width:2.0px;stroke-linecap:butt;stroke-linejoin:miter;stroke-opacity:1;"/>
<path d="M 179.1,235.3 L 178.2,241.0 L 175.8,242.0" style="fill:none;stroke:#000000;stroke-width:2.0px;stroke-linecap:butt;stroke-linejoin:miter;stroke-opacity:1;"/>
<path class="atom-0" d="M 1109.8 85.1 L 1114.0 80.9 L 1108.5 79.8 L 1109.3 76.9 L 1114.4 79.5 L 1113.7 73.9 L 1116.7 73.9 L 1115.8 79.5 L 1121.0 77.1 L 1121.9 79.8 L 1116.3 80.8 L 1120.3 85.1 L 1117.8 86.9 L 1115.1 81.6 L 1112.3 86.9 L 1109.8 85.1 " fill="#191919"/>
<path class="atom-1" d="M 1091.7 188.8 L 1101.0 203.8 Q 1101.9 205.3, 1103.4 208.0 Q 1104.9 210.7, 1105.0 210.8 L 1105.0 188.8 L 1108.7 188.8 L 1108.7 217.2 L 1104.9 217.2 L 1094.9 200.8 Q 1093.7 198.8, 1092.5 196.6 Q 1091.3 194.4, 1090.9 193.8 L 1090.9 217.2 L 1087.3 217.2 L 1087.3 188.8 L 1091.7 188.8 " fill="#0000FF"/>
<path class="atom-1" d="M 1114.2 188.8 L 1118.1 188.8 L 1118.1 200.9 L 1132.6 200.9 L 1132.6 188.8 L 1136.4 188.8 L 1136.4 217.2 L 1132.6 217.2 L 1132.6 204.1 L 1118.1 204.1 L 1118.1 217.2 L 1114.2 217.2 L 1114.2 188.8 " fill="#0000FF"/>
<path class="atom-5" d="M 903.5 58.6 Q 903.5 51.8, 906.9 48.0 Q 910.2 44.2, 916.5 44.2 Q 922.8 44.2, 926.2 48.0 Q 929.5 51.8, 929.5 58.6 Q 929.5 65.5, 926.1 69.4 Q 922.7 73.3, 916.5 73.3 Q 910.3 73.3, 906.9 69.4 Q 903.5 65.5, 903.5 58.6 M 916.5 70.1 Q 920.8 70.1, 923.2 67.2 Q 925.5 64.3, 925.5 58.6 Q 925.5 53.0, 923.2 50.2 Q 920.8 47.4, 916.5 47.4 Q 912.2 47.4, 909.8 50.2 Q 907.5 53.0, 907.5 58.6 Q 907.5 64.3, 909.8 67.2 Q 912.2 70.1, 916.5 70.1 " fill="#FF0000"/>
<path class="atom-6" d="M 785.1 201.5 L 794.4 216.5 Q 795.3 218.0, 796.8 220.7 Q 798.3 223.4, 798.4 223.5 L 798.4 201.5 L 802.1 201.5 L 802.1 229.8 L 798.3 229.8 L 788.3 213.4 Q 787.1 211.5, 785.9 209.3 Q 784.7 207.1, 784.3 206.4 L 784.3 229.8 L 780.7 229.8 L 780.7 201.5 L 785.1 201.5 " fill="#0000FF"/>
<path class="atom-6" d="M 780.3 232.7 L 784.2 232.7 L 784.2 244.7 L 798.6 244.7 L 798.6 232.7 L 802.5 232.7 L 802.5 261.0 L 798.6 261.0 L 798.6 247.9 L 784.2 247.9 L 784.2 261.0 L 780.3 261.0 L 780.3 232.7 " fill="#0000FF"/>
<path class="atom-11" d="M 363.9 270.9 Q 363.9 264.1, 367.3 260.3 Q 370.6 256.5, 376.9 256.5 Q 383.2 256.5, 386.5 260.3 Q 389.9 264.1, 389.9 270.9 Q 389.9 277.8, 386.5 281.7 Q 383.1 285.6, 376.9 285.6 Q 370.7 285.6, 367.3 281.7 Q 363.9 277.8, 363.9 270.9 M 376.9 282.4 Q 381.2 282.4, 383.5 279.5 Q 385.9 276.6, 385.9 270.9 Q 385.9 265.3, 383.5 262.5 Q 381.2 259.7, 376.9 259.7 Q 372.6 259.7, 370.2 262.5 Q 367.9 265.3, 367.9 270.9 Q 367.9 276.6, 370.2 279.5 Q 372.6 282.4, 376.9 282.4 " fill="#FF0000"/>
<path class="atom-12" d="M 297.1 69.7 L 306.4 84.7 Q 307.3 86.2, 308.8 88.9 Q 310.3 91.6, 310.3 91.7 L 310.3 69.7 L 314.1 69.7 L 314.1 98.0 L 310.2 98.0 L 300.3 81.6 Q 299.1 79.7, 297.9 77.5 Q 296.7 75.3, 296.3 74.6 L 296.3 98.0 L 292.6 98.0 L 292.6 69.7 L 297.1 69.7 " fill="#0000FF"/>
<path class="atom-12" d="M 292.3 38.6 L 296.1 38.6 L 296.1 50.6 L 310.6 50.6 L 310.6 38.6 L 314.4 38.6 L 314.4 66.9 L 310.6 66.9 L 310.6 53.8 L 296.1 53.8 L 296.1 66.9 L 292.3 66.9 L 292.3 38.6 " fill="#0000FF"/>
<path class="atom-16" d="M 65.0 280.3 L 69.1 276.1 L 63.6 275.0 L 64.4 272.1 L 69.5 274.7 L 68.8 269.1 L 71.8 269.1 L 71.0 274.6 L 76.1 272.2 L 77.0 275.0 L 71.4 276.0 L 75.4 280.3 L 73.0 282.0 L 70.2 276.8 L 67.4 282.0 L 65.0 280.3 " fill="#191919"/>
<path class="atom-17" d="M 256.0 313.3 Q 256.0 306.5, 259.3 302.7 Q 262.7 298.9, 269.0 298.9 Q 275.2 298.9, 278.6 302.7 Q 282.0 306.5, 282.0 313.3 Q 282.0 320.2, 278.6 324.1 Q 275.2 328.0, 269.0 328.0 Q 262.7 328.0, 259.3 324.1 Q 256.0 320.3, 256.0 313.3 M 269.0 324.8 Q 273.3 324.8, 275.6 321.9 Q 278.0 319.0, 278.0 313.3 Q 278.0 307.8, 275.6 305.0 Q 273.3 302.1, 269.0 302.1 Q 264.6 302.1, 262.3 304.9 Q 260.0 307.7, 260.0 313.3 Q 260.0 319.1, 262.3 321.9 Q 264.6 324.8, 269.0 324.8 " fill="#FF0000"/>
<path class="bond-0 atom-0 atom-1" d="M 441.0,606.1 L 489.1,585.6" style="fill:none;fill-rule:evenodd;stroke:#191919;stroke-width:2.0px;stroke-linecap:butt;stroke-linejoin:miter;stroke-opacity:1"/>
<path class="bond-0 atom-0 atom-1" d="M 489.1,585.6 L 537.2,565.1" style="fill:none;fill-rule:evenodd;stroke:#000000;stroke-width:2.0px;stroke-linecap:butt;stroke-linejoin:miter;stroke-opacity:1"/>
<path class="bond-1 atom-1 atom-2" d="M 537.2,565.1 L 629.9,634.9" style="fill:none;fill-rule:evenodd;stroke:#000000;stroke-width:2.0px;stroke-linecap:butt;stroke-linejoin:miter;stroke-opacity:1"/>
<path class="bond-2 atom-2 atom-3" d="M 629.9,634.9 L 674.9,615.7" style="fill:none;fill-rule:evenodd;stroke:#000000;stroke-width:2.0px;stroke-linecap:butt;stroke-linejoin:miter;stroke-opacity:1"/>
<path class="bond-2 atom-2 atom-3" d="M 674.9,615.7 L 719.8,596.6" style="fill:none;fill-rule:evenodd;stroke:#FF0000;stroke-width:2.0px;stroke-linecap:butt;stroke-linejoin:miter;stroke-opacity:1"/>
<path d="M 534.8,566.2 L 537.2,565.1 L 541.9,568.6" style="fill:none;stroke:#000000;stroke-width:2.0px;stroke-linecap:butt;stroke-linejoin:miter;stroke-opacity:1;"/>
<path d="M 625.3,631.4 L 629.9,634.9 L 632.2,633.9" style="fill:none;stroke:#000000;stroke-width:2.0px;stroke-linecap:butt;stroke-linejoin:miter;stroke-opacity:1;"/>
<path class="atom-0" d="M 425.2 607.4 L 429.3 603.2 L 423.8 602.0 L 424.6 599.2 L 429.7 601.8 L 429.0 596.2 L 432.0 596.2 L 431.2 601.7 L 436.3 599.3 L 437.2 602.0 L 431.6 603.1 L 435.6 607.4 L 433.2 609.1 L 430.4 603.8 L 427.6 609.1 L 425.2 607.4 " fill="#191919"/>
<path class="atom-3" d="M 723.6 589.5 Q 723.6 582.7, 727.0 578.9 Q 730.3 575.1, 736.6 575.1 Q 742.9 575.1, 746.3 578.9 Q 749.6 582.7, 749.6 589.5 Q 749.6 596.4, 746.2 600.3 Q 742.8 604.2, 736.6 604.2 Q 730.4 604.2, 727.0 600.3 Q 723.6 596.4, 723.6 589.5 M 736.6 601.0 Q 740.9 601.0, 743.3 598.1 Q 745.6 595.2, 745.6 589.5 Q 745.6 584.0, 743.3 581.2 Q 740.9 578.3, 736.6 578.3 Q 732.3 578.3, 729.9 581.1 Q 727.6 583.9, 727.6 589.5 Q 727.6 595.2, 729.9 598.1 Q 732.3 601.0, 736.6 601.0 " fill="#FF0000"/>
<path class="atom-3" d="M 754.0 575.4 L 757.9 575.4 L 757.9 587.5 L 772.4 587.5 L 772.4 575.4 L 776.2 575.4 L 776.2 603.8 L 772.4 603.8 L 772.4 590.7 L 757.9 590.7 L 757.9 603.8 L 754.0 603.8 L 754.0 575.4 " fill="#FF0000"/>
</svg>