<svg xmlns="http://www.w3.org/2000/svg" xmlns:rdkit="http://www.rdkit.org/xml" xmlns:xlink="http://www.w3.org/1999/xlink" version="1.1" baseProfile="full" xml:space="preserve" width="1200px" height="800px" viewBox="0 0 1200 800">
<!-- END OF HEADER -->
<rect style="opacity:1.0;fill:#FFFFFF;stroke:none" width="1200.0" height="800.0" x="0.0" y="0.0"> </rect>
<path class="bond-0 atom-0 atom-1" d="M 1092.3,71.8 L 1095.5,115.4" style="fill:none;fill-rule:evenodd;stroke:#191919;stroke-width:2.0px;stroke-linecap:butt;stroke-linejoin:miter;stroke-opacity:1"/>
<path class="bond-0 atom-0 atom-1" d="M 1095.5,115.4 L 1098.7,159.1" style="fill:none;fill-rule:evenodd;stroke:#0000FF;stroke-width:2.0px;stroke-linecap:butt;stroke-linejoin:miter;stroke-opacity:1"/>
<path class="bond-1 atom-1 atom-2" d="M 1085.7,186.5 L 1048.4,211.8" style="fill:none;fill-rule:evenodd;stroke:#0000FF;stroke-width:2.0px;stroke-linecap:butt;stroke-linejoin:miter;stroke-opacity:1"/>
<path class="bond-1 atom-1 atom-2" d="M 1048.4,211.8 L 1011.1,237.1" style="fill:none;fill-rule:evenodd;stroke:#000000;stroke-width:2.0px;stroke-linecap:butt;stroke-linejoin:miter;stroke-opacity:1"/>
<path class="bond-2 atom-2 atom-3" d="M 1011.6,240.5 L 1011.1,240.5" style="fill:none;fill-rule:evenodd;stroke:#000000;stroke-width:1.0px;stroke-linecap:butt;stroke-linejoin:miter;stroke-opacity:1"/>
<path class="bond-2 atom-2 atom-3" d="M 1012.2,243.9 L 1011.1,244.0" style="fill:none;fill-rule:evenodd;stroke:#000000;stroke-width:1.0px;stroke-linecap:butt;stroke-linejoin:miter;stroke-opacity:1"/>
<path class="bond-2 atom-2 atom-3" d="M 1012.7,247.4 L 1011.1,247.5" style="fill:none;fill-rule:evenodd;stroke:#000000;stroke-width:1.0px;stroke-linecap:butt;stroke-linejoin:miter;stroke-opacity:1"/>
<path class="bond-2 atom-2 atom-3" d="M 1013.2,250.8 L 1011.1,250.9" style="fill:none;fill-rule:evenodd;stroke:#000000;stroke-width:1.0px;stroke-linecap:butt;stroke-linejoin:miter;stroke-opacity:1"/>
<path class="bond-2 atom-2 atom-3" d="M 1013.7,254.2 L 1011.1,254.4" style="fill:none;fill-rule:evenodd;stroke:#000000;stroke-width:1.0px;stroke-linecap:butt;stroke-linejoin:miter;stroke-opacity:1"/>
<path class="bond-2 atom-2 atom-3" d="M 1014.2,257.7 L 1011.1,257.9" style="fill:none;fill-rule:evenodd;stroke:#000000;stroke-width:1.0px;stroke-linecap:butt;stroke-linejoin:miter;stroke-opacity:1"/>
<path class="bond-2 atom-2 atom-3" d="M 1014.7,261.1 L 1011.1,261.4" style="fill:none;fill-rule:evenodd;stroke:#000000;stroke-width:1.0px;stroke-linecap:butt;stroke-linejoin:miter;stroke-opacity:1"/>
<path class="bond-2 atom-2 atom-3" d="M 1015.2,264.5 L 1011.1,264.8" style="fill:none;fill-rule:evenodd;stroke:#000000;stroke-width:1.0px;stroke-linecap:butt;stroke-linejoin:miter;stroke-opacity:1"/>
<path class="bond-2 atom-2 atom-3" d="M 1015.7,268.0 L 1011.1,268.3" style="fill:none;fill-rule:evenodd;stroke:#000000;stroke-width:1.0px;stroke-linecap:butt;stroke-linejoin:miter;stroke-opacity:1"/>
<path class="bond-2 atom-2 atom-3" d="M 1016.2,271.4 L 1011.1,271.8" style="fill:none;fill-rule:evenodd;stroke:#000000;stroke-width:1.0px;stroke-linecap:butt;stroke-linejoin:miter;stroke-opacity:1"/>
<path class="bond-2 atom-2 atom-3" d="M 1016.8,274.8 L 1011.1,275.3" style="fill:none;fill-rule:evenodd;stroke:#000000;stroke-width:1.0px;stroke-linecap:butt;stroke-linejoin:miter;stroke-opacity:1"/>
<path class="bond-2 atom-2 atom-3" d="M 1017.3,278.3 L 1011.0,278.7" style="fill:none;fill-rule:evenodd;stroke:#000000;stroke-width:1.0px;stroke-linecap:butt;stroke-linejoin:miter;stroke-opacity:1"/>
<path class="bond-2 atom-2 atom-3" d="M 1017.8,281.7 L 1011.0,282.2" style="fill:none;fill-rule:evenodd;stroke:#000000;stroke-width:1.0px;stroke-linecap:butt;stroke-linejoin:miter;stroke-opacity:1"/>
<path class="bond-2 atom-2 atom-3" d="M 1018.3,285.1 L 1011.0,285.7" style="fill:none;fill-rule:evenodd;stroke:#000000;stroke-width:1.0px;stroke-linecap:butt;stroke-linejoin:miter;stroke-opacity:1"/>
<path class="bond-2 atom-2 atom-3" d="M 1018.8,288.6 L 1011.0,289.1" style="fill:none;fill-rule:evenodd;stroke:#000000;stroke-width:1.0px;stroke-linecap:butt;stroke-linejoin:miter;stroke-opacity:1"/>
<path class="bond-2 atom-2 atom-3" d="M 1019.3,292.0 L 1011.0,292.6" style="fill:none;fill-rule:evenodd;stroke:#000000;stroke-width:1.0px;stroke-linecap:butt;stroke-linejoin:miter;stroke-opacity:1"/>
<path class="bond-2 atom-2 atom-3" d="M 1019.8,295.4 L 1011.0,296.1" style="fill:none;fill-rule:evenodd;stroke:#000000;stroke-width:1.0px;stroke-linecap:butt;stroke-linejoin:miter;stroke-opacity:1"/>
<path class="bond-2 atom-2 atom-3" d="M 1020.3,298.9 L 1011.0,299.6" style="fill:none;fill-rule:evenodd;stroke:#000000;stroke-width:1.0px;stroke-linecap:butt;stroke-linejoin:miter;stroke-opacity:1"/>
<path class="bond-2 atom-2 atom-3" d="M 1020.8,302.3 L 1011.0,303.0" style="fill:none;fill-rule:evenodd;stroke:#000000;stroke-width:1.0px;stroke-linecap:butt;stroke-linejoin:miter;stroke-opacity:1"/>
<path class="bond-2 atom-2 atom-3" d="M 1021.4,305.7 L 1011.0,306.5" style="fill:none;fill-rule:evenodd;stroke:#000000;stroke-width:1.0px;stroke-linecap:butt;stroke-linejoin:miter;stroke-opacity:1"/>
<path class="bond-2 atom-2 atom-3" d="M 1021.9,309.2 L 1011.0,310.0" style="fill:none;fill-rule:evenodd;stroke:#000000;stroke-width:1.0px;stroke-linecap:butt;stroke-linejoin:miter;stroke-opacity:1"/>
<path class="bond-2 atom-2 atom-3" d="M 1022.4,312.6 L 1011.0,313.4" style="fill:none;fill-rule:evenodd;stroke:#000000;stroke-width:1.0px;stroke-linecap:butt;stroke-linejoin:miter;stroke-opacity:1"/>
<path class="bond-2 atom-2 atom-3" d="M 1022.9,316.0 L 1011.0,316.9" style="fill:none;fill-rule:evenodd;stroke:#000000;stroke-width:1.0px;stroke-linecap:butt;stroke-linejoin:miter;stroke-opacity:1"/>
<path class="bond-2 atom-2 atom-3" d="M 1023.4,319.5 L 1011.0,320.4" style="fill:none;fill-rule:evenodd;stroke:#000000;stroke-width:1.0px;stroke-linecap:butt;stroke-linejoin:miter;stroke-opacity:1"/>
<path class="bond-2 atom-2 atom-3" d="M 1023.9,322.9 L 1011.0,323.9" style="fill:none;fill-rule:evenodd;stroke:#000000;stroke-width:1.0px;stroke-linecap:butt;stroke-linejoin:miter;stroke-opacity:1"/>
<path class="bond-2 atom-2 atom-3" d="M 1024.4,326.4 L 1010.9,327.3" style="fill:none;fill-rule:evenodd;stroke:#000000;stroke-width:1.0px;stroke-linecap:butt;stroke-linejoin:miter;stroke-opacity:1"/>
<path class="bond-2 atom-2 atom-3" d="M 1024.9,329.8 L 1010.9,330.8" style="fill:none;fill-rule:evenodd;stroke:#000000;stroke-width:1.0px;stroke-linecap:butt;stroke-linejoin:miter;stroke-opacity:1"/>
<path class="bond-2 atom-2 atom-3" d="M 1025.4,333.2 L 1010.9,334.3" style="fill:none;fill-rule:evenodd;stroke:#000000;stroke-width:1.0px;stroke-linecap:butt;stroke-linejoin:miter;stroke-opacity:1"/>
<path class="bond-2 atom-2 atom-3" d="M 1025.9,336.7 L 1010.9,337.8" style="fill:none;fill-rule:evenodd;stroke:#000000;stroke-width:1.0px;stroke-linecap:butt;stroke-linejoin:miter;stroke-opacity:1"/>
<path class="bond-2 atom-2 atom-3" d="M 1026.5,340.1 L 1010.9,341.2" style="fill:none;fill-rule:evenodd;stroke:#000000;stroke-width:1.0px;stroke-linecap:butt;stroke-linejoin:miter;stroke-opacity:1"/>
<path class="bond-2 atom-2 atom-3" d="M 1027.0,343.5 L 1010.9,344.7" style="fill:none;fill-rule:evenodd;stroke:#000000;stroke-width:1.0px;stroke-linecap:butt;stroke-linejoin:miter;stroke-opacity:1"/>
<path class="bond-3 atom-2 atom-4" d="M 1011.1,237.1 L 914.5,190.3" style="fill:none;fill-rule:evenodd;stroke:#000000;stroke-width:2.0px;stroke-linecap:butt;stroke-linejoin:miter;stroke-opacity:1"/>
<path class="bond-4 atom-4 atom-5" d="M 922.9,194.3 L 919.5,147.6" style="fill:none;fill-rule:evenodd;stroke:#000000;stroke-width:2.0px;stroke-linecap:butt;stroke-linejoin:miter;stroke-opacity:1"/>
<path class="bond-4 atom-4 atom-5" d="M 919.5,147.6 L 916.1,100.9" style="fill:none;fill-rule:evenodd;stroke:#FF0000;stroke-width:2.0px;stroke-linecap:butt;stroke-linejoin:miter;stroke-opacity:1"/>
<path class="bond-4 atom-4 atom-5" d="M 906.8,195.5 L 903.4,148.8" style="fill:none;fill-rule:evenodd;stroke:#000000;stroke-width:2.0px;stroke-linecap:butt;stroke-linejoin:miter;stroke-opacity:1"/>
<path class="bond-4 atom-4 atom-5" d="M 903.4,148.8 L 900.0,102.1" style="fill:none;fill-rule:evenodd;stroke:#FF0000;stroke-width:2.0px;stroke-linecap:butt;stroke-linejoin:miter;stroke-opacity:1"/>
<path class="bond-5 atom-4 atom-6" d="M 914.5,190.3 L 877.2,215.6" style="fill:none;fill-rule:evenodd;stroke:#000000;stroke-width:2.0px;stroke-linecap:butt;stroke-linejoin:miter;stroke-opacity:1"/>
<path class="bond-5 atom-4 atom-6" d="M 877.2,215.6 L 840.0,240.9" style="fill:none;fill-rule:evenodd;stroke:#0000FF;stroke-width:2.0px;stroke-linecap:butt;stroke-linejoin:miter;stroke-opacity:1"/>
<path class="bond-6 atom-6 atom-7" d="M 811.4,243.7 L 770.2,223.7" style="fill:none;fill-rule:evenodd;stroke:#0000FF;stroke-width:2.0px;stroke-linecap:butt;stroke-linejoin:miter;stroke-opacity:1"/>
<path class="bond-6 atom-6 atom-7" d="M 770.2,223.7 L 729.1,203.8" style="fill:none;fill-rule:evenodd;stroke:#000000;stroke-width:2.0px;stroke-linecap:butt;stroke-linejoin:miter;stroke-opacity:1"/>
<path class="bond-7 atom-7 atom-8" d="M 729.1,203.8 L 640.3,264.1" style="fill:none;fill-rule:evenodd;stroke:#000000;stroke-width:2.0px;stroke-linecap:butt;stroke-linejoin:miter;stroke-opacity:1"/>
<path class="bond-8 atom-8 atom-9" d="M 640.3,264.1 L 543.6,217.3" style="fill:none;fill-rule:evenodd;stroke:#000000;stroke-width:2.0px;stroke-linecap:butt;stroke-linejoin:miter;stroke-opacity:1"/>
<path class="bond-9 atom-9 atom-10" d="M 543.6,217.3 L 454.8,277.6" style="fill:none;fill-rule:evenodd;stroke:#000000;stroke-width:2.0px;stroke-linecap:butt;stroke-linejoin:miter;stroke-opacity:1"/>
<path class="bond-10 atom-10 atom-11" d="M 454.8,277.6 L 358.2,230.9" style="fill:none;fill-rule:evenodd;stroke:#000000;stroke-width:2.0px;stroke-linecap:butt;stroke-linejoin:miter;stroke-opacity:1"/>
<path class="bond-11 atom-11 atom-12" d="M 366.6,234.9 L 363.2,188.2" style="fill:none;fill-rule:evenodd;stroke:#000000;stroke-width:2.0px;stroke-linecap:butt;stroke-linejoin:miter;stroke-opacity:1"/>
<path class="bond-11 atom-11 atom-12" d="M 363.2,188.2 L 359.8,141.5" style="fill:none;fill-rule:evenodd;stroke:#FF0000;stroke-width:2.0px;stroke-linecap:butt;stroke-linejoin:miter;stroke-opacity:1"/>
<path class="bond-11 atom-11 atom-12" d="M 350.5,236.1 L 347.1,189.4" style="fill:none;fill-rule:evenodd;stroke:#000000;stroke-width:2.0px;stroke-linecap:butt;stroke-linejoin:miter;stroke-opacity:1"/>
<path class="bond-11 atom-11 atom-12" d="M 347.1,189.4 L 343.7,142.7" style="fill:none;fill-rule:evenodd;stroke:#FF0000;stroke-width:2.0px;stroke-linecap:butt;stroke-linejoin:miter;stroke-opacity:1"/>
<path class="bond-12 atom-11 atom-13" d="M 358.2,230.9 L 321.0,256.2" style="fill:none;fill-rule:evenodd;stroke:#000000;stroke-width:2.0px;stroke-linecap:butt;stroke-linejoin:miter;stroke-opacity:1"/>
<path class="bond-12 atom-11 atom-13" d="M 321.0,256.2 L 283.7,281.5" style="fill:none;fill-rule:evenodd;stroke:#0000FF;stroke-width:2.0px;stroke-linecap:butt;stroke-linejoin:miter;stroke-opacity:1"/>
<path class="bond-13 atom-13 atom-14" d="M 255.1,284.3 L 214.0,264.3" style="fill:none;fill-rule:evenodd;stroke:#0000FF;stroke-width:2.0px;stroke-linecap:butt;stroke-linejoin:miter;stroke-opacity:1"/>
<path class="bond-13 atom-13 atom-14" d="M 214.0,264.3 L 172.8,244.4" style="fill:none;fill-rule:evenodd;stroke:#000000;stroke-width:2.0px;stroke-linecap:butt;stroke-linejoin:miter;stroke-opacity:1"/>
<path class="bond-14 atom-14 atom-15" d="M 170.1,246.6 L 169.8,246.1" style="fill:none;fill-rule:evenodd;stroke:#000000;stroke-width:1.0px;stroke-linecap:butt;stroke-linejoin:miter;stroke-opacity:1"/>
<path class="bond-14 atom-14 atom-15" d="M 167.3,248.7 L 166.8,247.9" style="fill:none;fill-rule:evenodd;stroke:#000000;stroke-width:1.0px;stroke-linecap:butt;stroke-linejoin:miter;stroke-opacity:1"/>
<path class="bond-14 atom-14 atom-15" d="M 164.6,250.9 L 163.8,249.6" style="fill:none;fill-rule:evenodd;stroke:#000000;stroke-width:1.0px;stroke-linecap:butt;stroke-linejoin:miter;stroke-opacity:1"/>
<path class="bond-14 atom-14 atom-15" d="M 161.9,253.0 L 160.7,251.3" style="fill:none;fill-rule:evenodd;stroke:#000000;stroke-width:1.0px;stroke-linecap:butt;stroke-linejoin:miter;stroke-opacity:1"/>
<path class="bond-14 atom-14 atom-15" d="M 159.2,255.2 L 157.7,253.1" style="fill:none;fill-rule:evenodd;stroke:#000000;stroke-width:1.0px;stroke-linecap:butt;stroke-linejoin:miter;stroke-opacity:1"/>
<path class="bond-14 atom-14 atom-15" d="M 156.5,257.4 L 154.7,254.8" style="fill:none;fill-rule:evenodd;stroke:#000000;stroke-width:1.0px;stroke-linecap:butt;stroke-linejoin:miter;stroke-opacity:1"/>
<path class="bond-14 atom-14 atom-15" d="M 153.8,259.5 L 151.7,256.5" style="fill:none;fill-rule:evenodd;stroke:#000000;stroke-width:1.0px;stroke-linecap:butt;stroke-linejoin:miter;stroke-opacity:1"/>
<path class="bond-14 atom-14 atom-15" d="M 151.0,261.7 L 148.7,258.2" style="fill:none;fill-rule:evenodd;stroke:#000000;stroke-width:1.0px;stroke-linecap:butt;stroke-linejoin:miter;stroke-opacity:1"/>
<path class="bond-14 atom-14 atom-15" d="M 148.3,263.8 L 145.7,260.0" style="fill:none;fill-rule:evenodd;stroke:#000000;stroke-width:1.0px;stroke-linecap:butt;stroke-linejoin:miter;stroke-opacity:1"/>
<path class="bond-14 atom-14 atom-15" d="M 145.6,266.0 L 142.7,261.7" style="fill:none;fill-rule:evenodd;stroke:#000000;stroke-width:1.0px;stroke-linecap:butt;stroke-linejoin:miter;stroke-opacity:1"/>
<path class="bond-14 atom-14 atom-15" d="M 142.9,268.2 L 139.7,263.4" style="fill:none;fill-rule:evenodd;stroke:#000000;stroke-width:1.0px;stroke-linecap:butt;stroke-linejoin:miter;stroke-opacity:1"/>
<path class="bond-14 atom-14 atom-15" d="M 140.2,270.3 L 136.7,265.2" style="fill:none;fill-rule:evenodd;stroke:#000000;stroke-width:1.0px;stroke-linecap:butt;stroke-linejoin:miter;stroke-opacity:1"/>
<path class="bond-14 atom-14 atom-15" d="M 137.4,272.5 L 133.6,266.9" style="fill:none;fill-rule:evenodd;stroke:#000000;stroke-width:1.0px;stroke-linecap:butt;stroke-linejoin:miter;stroke-opacity:1"/>
<path class="bond-14 atom-14 atom-15" d="M 134.7,274.6 L 130.6,268.6" style="fill:none;fill-rule:evenodd;stroke:#000000;stroke-width:1.0px;stroke-linecap:butt;stroke-linejoin:miter;stroke-opacity:1"/>
<path class="bond-14 atom-14 atom-15" d="M 132.0,276.8 L 127.6,270.4" style="fill:none;fill-rule:evenodd;stroke:#000000;stroke-width:1.0px;stroke-linecap:butt;stroke-linejoin:miter;stroke-opacity:1"/>
<path class="bond-14 atom-14 atom-15" d="M 129.3,279.0 L 124.6,272.1" style="fill:none;fill-rule:evenodd;stroke:#000000;stroke-width:1.0px;stroke-linecap:butt;stroke-linejoin:miter;stroke-opacity:1"/>
<path class="bond-14 atom-14 atom-15" d="M 126.6,281.1 L 121.6,273.8" style="fill:none;fill-rule:evenodd;stroke:#000000;stroke-width:1.0px;stroke-linecap:butt;stroke-linejoin:miter;stroke-opacity:1"/>
<path class="bond-14 atom-14 atom-15" d="M 123.8,283.3 L 118.6,275.5" style="fill:none;fill-rule:evenodd;stroke:#000000;stroke-width:1.0px;stroke-linecap:butt;stroke-linejoin:miter;stroke-opacity:1"/>
<path class="bond-14 atom-14 atom-15" d="M 121.1,285.4 L 115.6,277.3" style="fill:none;fill-rule:evenodd;stroke:#000000;stroke-width:1.0px;stroke-linecap:butt;stroke-linejoin:miter;stroke-opacity:1"/>
<path class="bond-14 atom-14 atom-15" d="M 118.4,287.6 L 112.6,279.0" style="fill:none;fill-rule:evenodd;stroke:#000000;stroke-width:1.0px;stroke-linecap:butt;stroke-linejoin:miter;stroke-opacity:1"/>
<path class="bond-14 atom-14 atom-15" d="M 115.7,289.8 L 109.6,280.7" style="fill:none;fill-rule:evenodd;stroke:#000000;stroke-width:1.0px;stroke-linecap:butt;stroke-linejoin:miter;stroke-opacity:1"/>
<path class="bond-14 atom-14 atom-15" d="M 113.0,291.9 L 106.6,282.5" style="fill:none;fill-rule:evenodd;stroke:#000000;stroke-width:1.0px;stroke-linecap:butt;stroke-linejoin:miter;stroke-opacity:1"/>
<path class="bond-14 atom-14 atom-15" d="M 110.3,294.1 L 103.5,284.2" style="fill:none;fill-rule:evenodd;stroke:#000000;stroke-width:1.0px;stroke-linecap:butt;stroke-linejoin:miter;stroke-opacity:1"/>
<path class="bond-14 atom-14 atom-15" d="M 107.5,296.2 L 100.5,285.9" style="fill:none;fill-rule:evenodd;stroke:#000000;stroke-width:1.0px;stroke-linecap:butt;stroke-linejoin:miter;stroke-opacity:1"/>
<path class="bond-14 atom-14 atom-15" d="M 104.8,298.4 L 97.5,287.7" style="fill:none;fill-rule:evenodd;stroke:#000000;stroke-width:1.0px;stroke-linecap:butt;stroke-linejoin:miter;stroke-opacity:1"/>
<path class="bond-14 atom-14 atom-15" d="M 102.1,300.6 L 94.5,289.4" style="fill:none;fill-rule:evenodd;stroke:#000000;stroke-width:1.0px;stroke-linecap:butt;stroke-linejoin:miter;stroke-opacity:1"/>
<path class="bond-14 atom-14 atom-15" d="M 99.4,302.7 L 91.5,291.1" style="fill:none;fill-rule:evenodd;stroke:#000000;stroke-width:1.0px;stroke-linecap:butt;stroke-linejoin:miter;stroke-opacity:1"/>
<path class="bond-14 atom-14 atom-15" d="M 96.7,304.9 L 88.5,292.8" style="fill:none;fill-rule:evenodd;stroke:#000000;stroke-width:1.0px;stroke-linecap:butt;stroke-linejoin:miter;stroke-opacity:1"/>
<path class="bond-14 atom-14 atom-15" d="M 93.9,307.0 L 85.5,294.6" style="fill:none;fill-rule:evenodd;stroke:#000000;stroke-width:1.0px;stroke-linecap:butt;stroke-linejoin:miter;stroke-opacity:1"/>
<path class="bond-14 atom-14 atom-15" d="M 91.2,309.2 L 82.5,296.3" style="fill:none;fill-rule:evenodd;stroke:#000000;stroke-width:1.0px;stroke-linecap:butt;stroke-linejoin:miter;stroke-opacity:1"/>
<path class="bond-14 atom-14 atom-15" d="M 88.5,311.4 L 79.5,298.0" style="fill:none;fill-rule:evenodd;stroke:#000000;stroke-width:1.0px;stroke-linecap:butt;stroke-linejoin:miter;stroke-opacity:1"/>
<path class="bond-15 atom-14 atom-16" d="M 172.8,244.4 L 165.0,137.3" style="fill:none;fill-rule:evenodd;stroke:#000000;stroke-width:2.0px;stroke-linecap:butt;stroke-linejoin:miter;stroke-opacity:1"/>
<path class="bond-16 atom-16 atom-17" d="M 165.0,137.3 L 118.8,115.0" style="fill:none;fill-rule:evenodd;stroke:#000000;stroke-width:2.0px;stroke-linecap:butt;stroke-linejoin:miter;stroke-opacity:1"/>
<path class="bond-16 atom-16 atom-17" d="M 118.8,115.0 L 72.7,92.7" style="fill:none;fill-rule:evenodd;stroke:#191919;stroke-width:2.0px;stroke-linecap:butt;stroke-linejoin:miter;stroke-opacity:1"/>
<path class="bond-17 atom-16 atom-18" d="M 165.7,146.6 L 203.7,120.8" style="fill:none;fill-rule:evenodd;stroke:#000000;stroke-width:2.0px;stroke-linecap:butt;stroke-linejoin:miter;stroke-opacity:1"/>
<path class="bond-17 atom-16 atom-18" d="M 203.7,120.8 L 241.8,94.9" style="fill:none;fill-rule:evenodd;stroke:#FF0000;stroke-width:2.0px;stroke-linecap:butt;stroke-linejoin:miter;stroke-opacity:1"/>
<path class="bond-17 atom-16 atom-18" d="M 156.6,133.3 L 194.7,107.5" style="fill:none;fill-rule:evenodd;stroke:#000000;stroke-width:2.0px;stroke-linecap:butt;stroke-linejoin:miter;stroke-opacity:1"/>
<path class="bond-17 atom-16 atom-18" d="M 194.7,107.5 L 232.7,81.6" style="fill:none;fill-rule:evenodd;stroke:#FF0000;stroke-width:2.0px;stroke-linecap:butt;stroke-linejoin:miter;stroke-opacity:1"/>
<path d="M 1013.0,235.8 L 1011.1,237.1 L 1006.3,234.7" style="fill:none;stroke:#000000;stroke-width:2.0px;stroke-linecap:butt;stroke-linejoin:miter;stroke-opacity:1;"/>
<path d="M 919.3,192.6 L 914.5,190.3 L 912.6,191.6" style="fill:none;stroke:#000000;stroke-width:2.0px;stroke-linecap:butt;stroke-linejoin:miter;stroke-opacity:1;"/>
<path d="M 731.1,204.8 L 729.1,203.8 L 724.6,206.8" style="fill:none;stroke:#000000;stroke-width:2.0px;stroke-linecap:butt;stroke-linejoin:miter;stroke-opacity:1;"/>
<path d="M 644.7,261.1 L 640.3,264.1 L 635.4,261.8" style="fill:none;stroke:#000000;stroke-width:2.0px;stroke-linecap:butt;stroke-linejoin:miter;stroke-opacity:1;"/>
<path d="M 548.5,219.7 L 543.6,217.3 L 539.2,220.4" style="fill:none;stroke:#000000;stroke-width:2.0px;stroke-linecap:butt;stroke-linejoin:miter;stroke-opacity:1;"/>
<path d="M 459.3,274.6 L 454.8,277.6 L 450.0,275.3" style="fill:none;stroke:#000000;stroke-width:2.0px;stroke-linecap:butt;stroke-linejoin:miter;stroke-opacity:1;"/>
<path d="M 363.0,233.2 L 358.2,230.9 L 356.4,232.1" style="fill:none;stroke:#000000;stroke-width:2.0px;stroke-linecap:butt;stroke-linejoin:miter;stroke-opacity:1;"/>
<path d="M 174.8,245.4 L 172.8,244.4 L 172.4,239.0" style="fill:none;stroke:#000000;stroke-width:2.0px;stroke-linecap:butt;stroke-linejoin:miter;stroke-opacity:1;"/>
<path d="M 165.4,142.7 L 165.0,137.3 L 162.7,136.2" style="fill:none;stroke:#000000;stroke-width:2.0px;stroke-linecap:butt;stroke-linejoin:miter;stroke-opacity:1;"/>
<path class="atom-0" d="M 1086.8 66.5 L 1091.0 62.3 L 1085.4 61.2 L 1086.3 58.3 L 1091.4 60.9 L 1090.6 55.3 L 1093.6 55.3 L 1092.8 60.9 L 1098.0 58.5 L 1098.8 61.2 L 1093.2 62.2 L 1097.2 66.5 L 1094.8 68.3 L 1092.0 63.0 L 1089.2 68.3 L 1086.8 66.5 " fill="#191919"/>
<path class="atom-1" d="M 1093.7 162.6 L 1103.0 177.6 Q 1103.9 179.1, 1105.4 181.8 Q 1106.8 184.4, 1106.9 184.6 L 1106.9 162.6 L 1110.7 162.6 L 1110.7 190.9 L 1106.8 190.9 L 1096.8 174.5 Q 1095.7 172.6, 1094.4 170.4 Q 1093.2 168.2, 1092.9 167.5 L 1092.9 190.9 L 1089.2 190.9 L 1089.2 162.6 L 1093.7 162.6 " fill="#0000FF"/>
<path class="atom-1" d="M 1116.2 162.6 L 1120.0 162.6 L 1120.0 174.6 L 1134.5 174.6 L 1134.5 162.6 L 1138.3 162.6 L 1138.3 190.9 L 1134.5 190.9 L 1134.5 177.8 L 1120.0 177.8 L 1120.0 190.9 L 1116.2 190.9 L 1116.2 162.6 " fill="#0000FF"/>
<path class="atom-5" d="M 893.7 83.3 Q 893.7 76.5, 897.1 72.7 Q 900.4 68.9, 906.7 68.9 Q 913.0 68.9, 916.3 72.7 Q 919.7 76.5, 919.7 83.3 Q 919.7 90.2, 916.3 94.1 Q 912.9 98.0, 906.7 98.0 Q 900.5 98.0, 897.1 94.1 Q 893.7 90.2, 893.7 83.3 M 906.7 94.8 Q 911.0 94.8, 913.3 91.9 Q 915.7 89.0, 915.7 83.3 Q 915.7 77.7, 913.3 74.9 Q 911.0 72.1, 906.7 72.1 Q 902.4 72.1, 900.0 74.9 Q 897.7 77.7, 897.7 83.3 Q 897.7 89.0, 900.0 91.9 Q 902.4 94.8, 906.7 94.8 " fill="#FF0000"/>
<path class="atom-6" d="M 819.4 236.4 L 828.7 251.4 Q 829.6 252.9, 831.1 255.6 Q 832.6 258.3, 832.7 258.4 L 832.7 236.4 L 836.4 236.4 L 836.4 264.7 L 832.6 264.7 L 822.6 248.3 Q 821.4 246.4, 820.2 244.2 Q 819.0 242.0, 818.6 241.3 L 818.6 264.7 L 815.0 264.7 L 815.0 236.4 L 819.4 236.4 " fill="#0000FF"/>
<path class="atom-6" d="M 814.6 267.6 L 818.5 267.6 L 818.5 279.6 L 832.9 279.6 L 832.9 267.6 L 836.8 267.6 L 836.8 295.9 L 832.9 295.9 L 832.9 282.8 L 818.5 282.8 L 818.5 295.9 L 814.6 295.9 L 814.6 267.6 " fill="#0000FF"/>
<path class="atom-12" d="M 337.4 123.9 Q 337.4 117.1, 340.8 113.3 Q 344.1 109.5, 350.4 109.5 Q 356.7 109.5, 360.0 113.3 Q 363.4 117.1, 363.4 123.9 Q 363.4 130.8, 360.0 134.7 Q 356.6 138.6, 350.4 138.6 Q 344.2 138.6, 340.8 134.7 Q 337.4 130.8, 337.4 123.9 M 350.4 135.4 Q 354.7 135.4, 357.0 132.5 Q 359.4 129.6, 359.4 123.9 Q 359.4 118.3, 357.0 115.5 Q 354.7 112.7, 350.4 112.7 Q 346.1 112.7, 343.7 115.5 Q 341.4 118.3, 341.4 123.9 Q 341.4 129.6, 343.7 132.5 Q 346.1 135.4, 350.4 135.4 " fill="#FF0000"/>
<path class="atom-13" d="M 263.1 277.0 L 272.4 292.0 Q 273.3 293.5, 274.8 296.2 Q 276.3 298.8, 276.4 299.0 L 276.4 277.0 L 280.1 277.0 L 280.1 305.3 L 276.3 305.3 L 266.3 288.9 Q 265.1 287.0, 263.9 284.8 Q 262.7 282.6, 262.3 281.9 L 262.3 305.3 L 258.7 305.3 L 258.7 277.0 L 263.1 277.0 " fill="#0000FF"/>
<path class="atom-13" d="M 258.3 308.2 L 262.2 308.2 L 262.2 320.2 L 276.6 320.2 L 276.6 308.2 L 280.5 308.2 L 280.5 336.5 L 276.6 336.5 L 276.6 323.4 L 262.2 323.4 L 262.2 336.5 L 258.3 336.5 L 258.3 308.2 " fill="#0000FF"/>
<path class="atom-17" d="M 63.0 87.4 L 67.2 83.2 L 61.7 82.1 L 62.5 79.2 L 67.6 81.8 L 66.9 76.2 L 69.9 76.2 L 69.0 81.7 L 74.2 79.3 L 75.1 82.1 L 69.5 83.1 L 73.5 87.4 L 71.0 89.1 L 68.3 83.9 L 65.5 89.1 L 63.0 87.4 " fill="#191919"/>
<path class="atom-18" d="M 240.8 77.1 Q 240.8 70.3, 244.1 66.5 Q 247.5 62.7, 253.8 62.7 Q 260.1 62.7, 263.4 66.5 Q 266.8 70.3, 266.8 77.1 Q 266.8 84.0, 263.4 87.9 Q 260.0 91.8, 253.8 91.8 Q 247.5 91.8, 244.1 87.9 Q 240.8 84.0, 240.8 77.1 M 253.8 88.6 Q 258.1 88.6, 260.4 85.7 Q 262.8 82.8, 262.8 77.1 Q 262.8 71.6, 260.4 68.8 Q 258.1 65.9, 253.8 65.9 Q 249.5 65.9, 247.1 68.7 Q 244.8 71.5, 244.8 77.1 Q 244.8 82.8, 247.1 85.7 Q 249.5 88.6, 253.8 88.6 " fill="#FF0000"/>
<path class="bond-0 atom-0 atom-1" d="M 452.1,605.4 L 496.4,586.6" style="fill:none;fill-rule:evenodd;stroke:#191919;stroke-width:2.0px;stroke-linecap:butt;stroke-linejoin:miter;stroke-opacity:1"/>
<path class="bond-0 atom-0 atom-1" d="M 496.4,586.6 L 540.7,567.7" style="fill:none;fill-rule:evenodd;stroke:#000000;stroke-width:2.0px;stroke-linecap:butt;stroke-linejoin:miter;stroke-opacity:1"/>
<path class="bond-1 atom-1 atom-2" d="M 540.7,567.7 L 626.5,632.3" style="fill:none;fill-rule:evenodd;stroke:#000000;stroke-width:2.0px;stroke-linecap:butt;stroke-linejoin:miter;stroke-opacity:1"/>
<path class="bond-2 atom-2 atom-3" d="M 626.5,632.3 L 667.6,614.8" style="fill:none;fill-rule:evenodd;stroke:#000000;stroke-width:2.0px;stroke-linecap:butt;stroke-linejoin:miter;stroke-opacity:1"/>
<path class="bond-2 atom-2 atom-3" d="M 667.6,614.8 L 708.7,597.3" style="fill:none;fill-rule:evenodd;stroke:#FF0000;stroke-width:2.0px;stroke-linecap:butt;stroke-linejoin:miter;stroke-opacity:1"/>
<path d="M 538.5,568.7 L 540.7,567.7 L 545.0,571.0" style="fill:none;stroke:#000000;stroke-width:2.0px;stroke-linecap:butt;stroke-linejoin:miter;stroke-opacity:1;"/>
<path d="M 622.2,629.0 L 626.5,632.3 L 628.5,631.4" style="fill:none;stroke:#000000;stroke-width:2.0px;stroke-linecap:butt;stroke-linejoin:miter;stroke-opacity:1;"/>
<path class="atom-0" d="M 436.6 606.6 L 440.7 602.4 L 435.2 601.2 L 436.0 598.4 L 441.1 601.0 L 440.4 595.4 L 443.4 595.4 L 442.6 600.9 L 447.7 598.5 L 448.6 601.2 L 443.0 602.3 L 447.0 606.6 L 444.6 608.3 L 441.8 603.0 L 439.0 608.3 L 436.6 606.6 " fill="#191919"/>
<path class="atom-3" d="M 712.2 590.3 Q 712.2 583.5, 715.6 579.7 Q 719.0 575.9, 725.2 575.9 Q 731.5 575.9, 734.9 579.7 Q 738.2 583.5, 738.2 590.3 Q 738.2 597.2, 734.8 601.1 Q 731.4 605.0, 725.2 605.0 Q 719.0 605.0, 715.6 601.1 Q 712.2 597.2, 712.2 590.3 M 725.2 601.8 Q 729.6 601.8, 731.9 598.9 Q 734.2 596.0, 734.2 590.3 Q 734.2 584.8, 731.9 582.0 Q 729.6 579.1, 725.2 579.1 Q 720.9 579.1, 718.6 581.9 Q 716.2 584.7, 716.2 590.3 Q 716.2 596.0, 718.6 598.9 Q 720.9 601.8, 725.2 601.8 " fill="#FF0000"/>
<path class="atom-3" d="M 742.6 576.2 L 746.5 576.2 L 746.5 588.3 L 761.0 588.3 L 761.0 576.2 L 764.8 576.2 L 764.8 604.6 L 761.0 604.6 L 761.0 591.5 L 746.5 591.5 L 746.5 604.6 L 742.6 604.6 L 742.6 576.2 " fill="#FF0000"/>
</svg>