<svg xmlns="http://www.w3.org/2000/svg" xmlns:rdkit="http://www.rdkit.org/xml" xmlns:xlink="http://www.w3.org/1999/xlink" version="1.1" baseProfile="full" xml:space="preserve" width="1200px" height="800px" viewBox="0 0 1200 800">
<!-- END OF HEADER -->
<rect style="opacity:1.0;fill:#FFFFFF;stroke:none" width="1200.0" height="800.0" x="0.0" y="0.0"> </rect>
<path class="bond-0 atom-0 atom-1" d="M 1128.7,160.5 L 1091.0,183.1" style="fill:none;fill-rule:evenodd;stroke:#191919;stroke-width:2.0px;stroke-linecap:butt;stroke-linejoin:miter;stroke-opacity:1"/>
<path class="bond-0 atom-0 atom-1" d="M 1091.0,183.1 L 1053.2,205.8" style="fill:none;fill-rule:evenodd;stroke:#FF0000;stroke-width:2.0px;stroke-linecap:butt;stroke-linejoin:miter;stroke-opacity:1"/>
<path class="bond-1 atom-1 atom-2" d="M 1019.8,206.5 L 979.3,184.0" style="fill:none;fill-rule:evenodd;stroke:#FF0000;stroke-width:2.0px;stroke-linecap:butt;stroke-linejoin:miter;stroke-opacity:1"/>
<path class="bond-1 atom-1 atom-2" d="M 979.3,184.0 L 938.7,161.4" style="fill:none;fill-rule:evenodd;stroke:#000000;stroke-width:2.0px;stroke-linecap:butt;stroke-linejoin:miter;stroke-opacity:1"/>
<path class="bond-2 atom-2 atom-3" d="M 938.7,161.4 L 842.7,219.0" style="fill:none;fill-rule:evenodd;stroke:#000000;stroke-width:2.0px;stroke-linecap:butt;stroke-linejoin:miter;stroke-opacity:1"/>
<path class="bond-3 atom-3 atom-4" d="M 842.7,219.0 L 744.9,164.6" style="fill:none;fill-rule:evenodd;stroke:#000000;stroke-width:2.0px;stroke-linecap:butt;stroke-linejoin:miter;stroke-opacity:1"/>
<path class="bond-4 atom-4 atom-5" d="M 744.9,164.6 L 648.9,222.2" style="fill:none;fill-rule:evenodd;stroke:#000000;stroke-width:2.0px;stroke-linecap:butt;stroke-linejoin:miter;stroke-opacity:1"/>
<path class="bond-5 atom-5 atom-6" d="M 648.9,222.2 L 608.3,199.6" style="fill:none;fill-rule:evenodd;stroke:#000000;stroke-width:2.0px;stroke-linecap:butt;stroke-linejoin:miter;stroke-opacity:1"/>
<path class="bond-5 atom-5 atom-6" d="M 608.3,199.6 L 567.8,177.1" style="fill:none;fill-rule:evenodd;stroke:#FF0000;stroke-width:2.0px;stroke-linecap:butt;stroke-linejoin:miter;stroke-opacity:1"/>
<path class="bond-6 atom-6 atom-7" d="M 534.4,177.8 L 494.8,201.6" style="fill:none;fill-rule:evenodd;stroke:#FF0000;stroke-width:2.0px;stroke-linecap:butt;stroke-linejoin:miter;stroke-opacity:1"/>
<path class="bond-6 atom-6 atom-7" d="M 494.8,201.6 L 455.1,225.4" style="fill:none;fill-rule:evenodd;stroke:#000000;stroke-width:2.0px;stroke-linecap:butt;stroke-linejoin:miter;stroke-opacity:1"/>
<path class="bond-7 atom-7 atom-8" d="M 446.6,220.7 L 447.4,270.0" style="fill:none;fill-rule:evenodd;stroke:#000000;stroke-width:2.0px;stroke-linecap:butt;stroke-linejoin:miter;stroke-opacity:1"/>
<path class="bond-7 atom-7 atom-8" d="M 447.4,270.0 L 448.3,319.4" style="fill:none;fill-rule:evenodd;stroke:#FF0000;stroke-width:2.0px;stroke-linecap:butt;stroke-linejoin:miter;stroke-opacity:1"/>
<path class="bond-7 atom-7 atom-8" d="M 463.4,220.4 L 464.2,269.7" style="fill:none;fill-rule:evenodd;stroke:#000000;stroke-width:2.0px;stroke-linecap:butt;stroke-linejoin:miter;stroke-opacity:1"/>
<path class="bond-7 atom-7 atom-8" d="M 464.2,269.7 L 465.0,319.1" style="fill:none;fill-rule:evenodd;stroke:#FF0000;stroke-width:2.0px;stroke-linecap:butt;stroke-linejoin:miter;stroke-opacity:1"/>
<path class="bond-8 atom-7 atom-9" d="M 455.1,225.4 L 357.3,171.0" style="fill:none;fill-rule:evenodd;stroke:#000000;stroke-width:2.0px;stroke-linecap:butt;stroke-linejoin:miter;stroke-opacity:1"/>
<path class="bond-9 atom-9 atom-10" d="M 357.3,171.0 L 261.3,228.6" style="fill:none;fill-rule:evenodd;stroke:#000000;stroke-width:2.0px;stroke-linecap:butt;stroke-linejoin:miter;stroke-opacity:1"/>
<path class="bond-10 atom-10 atom-11" d="M 261.3,228.6 L 163.5,174.2" style="fill:none;fill-rule:evenodd;stroke:#000000;stroke-width:2.0px;stroke-linecap:butt;stroke-linejoin:miter;stroke-opacity:1"/>
<path class="bond-11 atom-11 atom-12" d="M 163.5,174.2 L 120.7,199.9" style="fill:none;fill-rule:evenodd;stroke:#000000;stroke-width:2.0px;stroke-linecap:butt;stroke-linejoin:miter;stroke-opacity:1"/>
<path class="bond-11 atom-11 atom-12" d="M 120.7,199.9 L 77.9,225.5" style="fill:none;fill-rule:evenodd;stroke:#191919;stroke-width:2.0px;stroke-linecap:butt;stroke-linejoin:miter;stroke-opacity:1"/>
<path class="bond-12 atom-11 atom-13" d="M 172.0,178.9 L 171.1,129.8" style="fill:none;fill-rule:evenodd;stroke:#000000;stroke-width:2.0px;stroke-linecap:butt;stroke-linejoin:miter;stroke-opacity:1"/>
<path class="bond-12 atom-11 atom-13" d="M 171.1,129.8 L 170.3,80.6" style="fill:none;fill-rule:evenodd;stroke:#FF0000;stroke-width:2.0px;stroke-linecap:butt;stroke-linejoin:miter;stroke-opacity:1"/>
<path class="bond-12 atom-11 atom-13" d="M 155.2,179.2 L 154.4,130.0" style="fill:none;fill-rule:evenodd;stroke:#000000;stroke-width:2.0px;stroke-linecap:butt;stroke-linejoin:miter;stroke-opacity:1"/>
<path class="bond-12 atom-11 atom-13" d="M 154.4,130.0 L 153.5,80.9" style="fill:none;fill-rule:evenodd;stroke:#FF0000;stroke-width:2.0px;stroke-linecap:butt;stroke-linejoin:miter;stroke-opacity:1"/>
<path d="M 940.7,162.6 L 938.7,161.4 L 933.9,164.3" style="fill:none;stroke:#000000;stroke-width:2.0px;stroke-linecap:butt;stroke-linejoin:miter;stroke-opacity:1;"/>
<path d="M 847.5,216.1 L 842.7,219.0 L 837.8,216.3" style="fill:none;stroke:#000000;stroke-width:2.0px;stroke-linecap:butt;stroke-linejoin:miter;stroke-opacity:1;"/>
<path d="M 749.8,167.3 L 744.9,164.6 L 740.1,167.5" style="fill:none;stroke:#000000;stroke-width:2.0px;stroke-linecap:butt;stroke-linejoin:miter;stroke-opacity:1;"/>
<path d="M 653.7,219.3 L 648.9,222.2 L 646.9,221.0" style="fill:none;stroke:#000000;stroke-width:2.0px;stroke-linecap:butt;stroke-linejoin:miter;stroke-opacity:1;"/>
<path d="M 457.1,224.2 L 455.1,225.4 L 450.2,222.6" style="fill:none;stroke:#000000;stroke-width:2.0px;stroke-linecap:butt;stroke-linejoin:miter;stroke-opacity:1;"/>
<path d="M 362.2,173.7 L 357.3,171.0 L 352.5,173.9" style="fill:none;stroke:#000000;stroke-width:2.0px;stroke-linecap:butt;stroke-linejoin:miter;stroke-opacity:1;"/>
<path d="M 266.1,225.7 L 261.3,228.6 L 256.4,225.8" style="fill:none;stroke:#000000;stroke-width:2.0px;stroke-linecap:butt;stroke-linejoin:miter;stroke-opacity:1;"/>
<path d="M 168.4,176.9 L 163.5,174.2 L 161.3,175.5" style="fill:none;stroke:#000000;stroke-width:2.0px;stroke-linecap:butt;stroke-linejoin:miter;stroke-opacity:1;"/>
<path class="atom-0" d="M 1127.2 155.1 L 1131.3 150.8 L 1125.8 149.7 L 1126.6 146.9 L 1131.7 149.4 L 1131.0 143.9 L 1134.0 143.8 L 1133.2 149.4 L 1138.3 147.0 L 1139.2 149.7 L 1133.6 150.8 L 1137.6 155.0 L 1135.2 156.8 L 1132.4 151.5 L 1129.6 156.8 L 1127.2 155.1 " fill="#191919"/>
<path class="atom-1" d="M 1023.5 215.9 Q 1023.5 209.1, 1026.9 205.3 Q 1030.2 201.5, 1036.5 201.5 Q 1042.8 201.5, 1046.2 205.3 Q 1049.5 209.1, 1049.5 215.9 Q 1049.5 222.7, 1046.1 226.7 Q 1042.7 230.5, 1036.5 230.5 Q 1030.3 230.5, 1026.9 226.7 Q 1023.5 222.8, 1023.5 215.9 M 1036.5 227.3 Q 1040.8 227.3, 1043.2 224.5 Q 1045.5 221.5, 1045.5 215.9 Q 1045.5 210.3, 1043.2 207.5 Q 1040.8 204.7, 1036.5 204.7 Q 1032.2 204.7, 1029.8 207.5 Q 1027.5 210.3, 1027.5 215.9 Q 1027.5 221.6, 1029.8 224.5 Q 1032.2 227.3, 1036.5 227.3 " fill="#FF0000"/>
<path class="atom-6" d="M 538.1 167.9 Q 538.1 161.1, 541.4 157.3 Q 544.8 153.5, 551.1 153.5 Q 557.4 153.5, 560.7 157.3 Q 564.1 161.1, 564.1 167.9 Q 564.1 174.8, 560.7 178.7 Q 557.3 182.6, 551.1 182.6 Q 544.8 182.6, 541.4 178.7 Q 538.1 174.8, 538.1 167.9 M 551.1 179.4 Q 555.4 179.4, 557.7 176.5 Q 560.1 173.6, 560.1 167.9 Q 560.1 162.3, 557.7 159.5 Q 555.4 156.7, 551.1 156.7 Q 546.8 156.7, 544.4 159.5 Q 542.1 162.3, 542.1 167.9 Q 542.1 173.6, 544.4 176.5 Q 546.8 179.4, 551.1 179.4 " fill="#FF0000"/>
<path class="atom-8" d="M 443.9 337.3 Q 443.9 330.5, 447.3 326.7 Q 450.7 322.9, 456.9 322.9 Q 463.2 322.9, 466.6 326.7 Q 469.9 330.5, 469.9 337.3 Q 469.9 344.2, 466.5 348.1 Q 463.1 352.0, 456.9 352.0 Q 450.7 352.0, 447.3 348.1 Q 443.9 344.3, 443.9 337.3 M 456.9 348.8 Q 461.3 348.8, 463.6 345.9 Q 465.9 343.0, 465.9 337.3 Q 465.9 331.8, 463.6 329.0 Q 461.3 326.1, 456.9 326.1 Q 452.6 326.1, 450.3 328.9 Q 447.9 331.7, 447.9 337.3 Q 447.9 343.1, 450.3 345.9 Q 452.6 348.8, 456.9 348.8 " fill="#FF0000"/>
<path class="atom-12" d="M 62.2 228.6 L 66.3 224.3 L 60.8 223.2 L 61.6 220.4 L 66.7 222.9 L 66.0 217.4 L 69.0 217.3 L 68.2 222.9 L 73.3 220.5 L 74.2 223.2 L 68.6 224.3 L 72.6 228.5 L 70.2 230.3 L 67.4 225.0 L 64.6 230.3 L 62.2 228.6 " fill="#191919"/>
<path class="atom-13" d="M 148.6 62.4 Q 148.6 55.6, 152.0 51.8 Q 155.4 48.0, 161.6 48.0 Q 167.9 48.0, 171.3 51.8 Q 174.6 55.6, 174.6 62.4 Q 174.6 69.3, 171.2 73.2 Q 167.8 77.1, 161.6 77.1 Q 155.4 77.1, 152.0 73.2 Q 148.6 69.3, 148.6 62.4 M 161.6 73.9 Q 166.0 73.9, 168.3 71.0 Q 170.6 68.1, 170.6 62.4 Q 170.6 56.8, 168.3 54.0 Q 166.0 51.2, 161.6 51.2 Q 157.3 51.2, 155.0 54.0 Q 152.6 56.8, 152.6 62.4 Q 152.6 68.1, 155.0 71.0 Q 157.3 73.9, 161.6 73.9 " fill="#FF0000"/>
<path class="bond-0 atom-0 atom-1" d="M 1031.4,553.6 L 994.0,576.8" style="fill:none;fill-rule:evenodd;stroke:#191919;stroke-width:2.0px;stroke-linecap:butt;stroke-linejoin:miter;stroke-opacity:1"/>
<path class="bond-0 atom-0 atom-1" d="M 994.0,576.8 L 956.6,600.0" style="fill:none;fill-rule:evenodd;stroke:#FF0000;stroke-width:2.0px;stroke-linecap:butt;stroke-linejoin:miter;stroke-opacity:1"/>
<path class="bond-1 atom-1 atom-2" d="M 923.2,601.5 L 882.2,579.6" style="fill:none;fill-rule:evenodd;stroke:#FF0000;stroke-width:2.0px;stroke-linecap:butt;stroke-linejoin:miter;stroke-opacity:1"/>
<path class="bond-1 atom-1 atom-2" d="M 882.2,579.6 L 841.3,557.6" style="fill:none;fill-rule:evenodd;stroke:#000000;stroke-width:2.0px;stroke-linecap:butt;stroke-linejoin:miter;stroke-opacity:1"/>
<path class="bond-2 atom-2 atom-3" d="M 841.3,557.6 L 746.2,616.7" style="fill:none;fill-rule:evenodd;stroke:#000000;stroke-width:2.0px;stroke-linecap:butt;stroke-linejoin:miter;stroke-opacity:1"/>
<path class="bond-3 atom-3 atom-4" d="M 746.2,616.7 L 705.2,594.8" style="fill:none;fill-rule:evenodd;stroke:#000000;stroke-width:2.0px;stroke-linecap:butt;stroke-linejoin:miter;stroke-opacity:1"/>
<path class="bond-3 atom-3 atom-4" d="M 705.2,594.8 L 664.2,572.9" style="fill:none;fill-rule:evenodd;stroke:#FF0000;stroke-width:2.0px;stroke-linecap:butt;stroke-linejoin:miter;stroke-opacity:1"/>
<path class="bond-4 atom-4 atom-5" d="M 630.8,574.3 L 591.7,598.7" style="fill:none;fill-rule:evenodd;stroke:#FF0000;stroke-width:2.0px;stroke-linecap:butt;stroke-linejoin:miter;stroke-opacity:1"/>
<path class="bond-4 atom-4 atom-5" d="M 591.7,598.7 L 552.5,623.0" style="fill:none;fill-rule:evenodd;stroke:#000000;stroke-width:2.0px;stroke-linecap:butt;stroke-linejoin:miter;stroke-opacity:1"/>
<path class="bond-5 atom-5 atom-6" d="M 543.9,618.4 L 545.5,667.8" style="fill:none;fill-rule:evenodd;stroke:#000000;stroke-width:2.0px;stroke-linecap:butt;stroke-linejoin:miter;stroke-opacity:1"/>
<path class="bond-5 atom-5 atom-6" d="M 545.5,667.8 L 547.1,717.1" style="fill:none;fill-rule:evenodd;stroke:#FF0000;stroke-width:2.0px;stroke-linecap:butt;stroke-linejoin:miter;stroke-opacity:1"/>
<path class="bond-5 atom-5 atom-6" d="M 560.7,617.9 L 562.3,667.2" style="fill:none;fill-rule:evenodd;stroke:#000000;stroke-width:2.0px;stroke-linecap:butt;stroke-linejoin:miter;stroke-opacity:1"/>
<path class="bond-5 atom-5 atom-6" d="M 562.3,667.2 L 563.9,716.6" style="fill:none;fill-rule:evenodd;stroke:#FF0000;stroke-width:2.0px;stroke-linecap:butt;stroke-linejoin:miter;stroke-opacity:1"/>
<path class="bond-6 atom-5 atom-7" d="M 552.5,623.0 L 453.8,570.2" style="fill:none;fill-rule:evenodd;stroke:#000000;stroke-width:2.0px;stroke-linecap:butt;stroke-linejoin:miter;stroke-opacity:1"/>
<path class="bond-7 atom-7 atom-8" d="M 453.8,570.2 L 358.7,629.3" style="fill:none;fill-rule:evenodd;stroke:#000000;stroke-width:2.0px;stroke-linecap:butt;stroke-linejoin:miter;stroke-opacity:1"/>
<path class="bond-8 atom-8 atom-9" d="M 358.7,629.3 L 260.1,576.5" style="fill:none;fill-rule:evenodd;stroke:#000000;stroke-width:2.0px;stroke-linecap:butt;stroke-linejoin:miter;stroke-opacity:1"/>
<path class="bond-9 atom-9 atom-10" d="M 260.1,576.5 L 217.7,602.9" style="fill:none;fill-rule:evenodd;stroke:#000000;stroke-width:2.0px;stroke-linecap:butt;stroke-linejoin:miter;stroke-opacity:1"/>
<path class="bond-9 atom-9 atom-10" d="M 217.7,602.9 L 175.4,629.2" style="fill:none;fill-rule:evenodd;stroke:#191919;stroke-width:2.0px;stroke-linecap:butt;stroke-linejoin:miter;stroke-opacity:1"/>
<path class="bond-10 atom-9 atom-11" d="M 268.6,581.1 L 267.0,532.0" style="fill:none;fill-rule:evenodd;stroke:#000000;stroke-width:2.0px;stroke-linecap:butt;stroke-linejoin:miter;stroke-opacity:1"/>
<path class="bond-10 atom-9 atom-11" d="M 267.0,532.0 L 265.4,482.9" style="fill:none;fill-rule:evenodd;stroke:#FF0000;stroke-width:2.0px;stroke-linecap:butt;stroke-linejoin:miter;stroke-opacity:1"/>
<path class="bond-10 atom-9 atom-11" d="M 251.8,581.7 L 250.2,532.5" style="fill:none;fill-rule:evenodd;stroke:#000000;stroke-width:2.0px;stroke-linecap:butt;stroke-linejoin:miter;stroke-opacity:1"/>
<path class="bond-10 atom-9 atom-11" d="M 250.2,532.5 L 248.6,483.4" style="fill:none;fill-rule:evenodd;stroke:#FF0000;stroke-width:2.0px;stroke-linecap:butt;stroke-linejoin:miter;stroke-opacity:1"/>
<path d="M 843.3,558.7 L 841.3,557.6 L 836.5,560.6" style="fill:none;stroke:#000000;stroke-width:2.0px;stroke-linecap:butt;stroke-linejoin:miter;stroke-opacity:1;"/>
<path d="M 751.0,613.8 L 746.2,616.7 L 744.2,615.6" style="fill:none;stroke:#000000;stroke-width:2.0px;stroke-linecap:butt;stroke-linejoin:miter;stroke-opacity:1;"/>
<path d="M 554.4,621.8 L 552.5,623.0 L 547.5,620.4" style="fill:none;stroke:#000000;stroke-width:2.0px;stroke-linecap:butt;stroke-linejoin:miter;stroke-opacity:1;"/>
<path d="M 458.7,572.9 L 453.8,570.2 L 449.0,573.2" style="fill:none;stroke:#000000;stroke-width:2.0px;stroke-linecap:butt;stroke-linejoin:miter;stroke-opacity:1;"/>
<path d="M 363.5,626.4 L 358.7,629.3 L 353.8,626.7" style="fill:none;stroke:#000000;stroke-width:2.0px;stroke-linecap:butt;stroke-linejoin:miter;stroke-opacity:1;"/>
<path d="M 265.0,579.2 L 260.1,576.5 L 257.9,577.9" style="fill:none;stroke:#000000;stroke-width:2.0px;stroke-linecap:butt;stroke-linejoin:miter;stroke-opacity:1;"/>
<path class="atom-0" d="M 1029.6 548.2 L 1033.8 543.9 L 1028.3 542.8 L 1029.1 540.0 L 1034.2 542.5 L 1033.5 537.0 L 1036.5 536.9 L 1035.6 542.5 L 1040.8 540.1 L 1041.7 542.8 L 1036.1 543.9 L 1040.1 548.1 L 1037.6 549.9 L 1034.9 544.6 L 1032.1 549.9 L 1029.6 548.2 " fill="#191919"/>
<path class="atom-1" d="M 926.9 610.5 Q 926.9 603.7, 930.3 599.9 Q 933.7 596.1, 939.9 596.1 Q 946.2 596.1, 949.6 599.9 Q 952.9 603.7, 952.9 610.5 Q 952.9 617.4, 949.5 621.3 Q 946.1 625.2, 939.9 625.2 Q 933.7 625.2, 930.3 621.3 Q 926.9 617.4, 926.9 610.5 M 939.9 622.0 Q 944.3 622.0, 946.6 619.1 Q 948.9 616.2, 948.9 610.5 Q 948.9 604.9, 946.6 602.1 Q 944.3 599.3, 939.9 599.3 Q 935.6 599.3, 933.3 602.1 Q 930.9 604.9, 930.9 610.5 Q 930.9 616.2, 933.3 619.1 Q 935.6 622.0, 939.9 622.0 " fill="#FF0000"/>
<path class="atom-4" d="M 634.5 564.0 Q 634.5 557.2, 637.9 553.4 Q 641.2 549.6, 647.5 549.6 Q 653.8 549.6, 657.2 553.4 Q 660.5 557.2, 660.5 564.0 Q 660.5 570.9, 657.1 574.8 Q 653.7 578.7, 647.5 578.7 Q 641.3 578.7, 637.9 574.8 Q 634.5 570.9, 634.5 564.0 M 647.5 575.5 Q 651.8 575.5, 654.2 572.6 Q 656.5 569.7, 656.5 564.0 Q 656.5 558.5, 654.2 555.7 Q 651.8 552.8, 647.5 552.8 Q 643.2 552.8, 640.8 555.6 Q 638.5 558.4, 638.5 564.0 Q 638.5 569.7, 640.8 572.6 Q 643.2 575.5, 647.5 575.5 " fill="#FF0000"/>
<path class="atom-6" d="M 543.1 734.9 Q 543.1 728.1, 546.5 724.3 Q 549.8 720.5, 556.1 720.5 Q 562.4 720.5, 565.8 724.3 Q 569.1 728.1, 569.1 734.9 Q 569.1 741.8, 565.7 745.7 Q 562.3 749.6, 556.1 749.6 Q 549.9 749.6, 546.5 745.7 Q 543.1 741.9, 543.1 734.9 M 556.1 746.4 Q 560.4 746.4, 562.8 743.5 Q 565.1 740.6, 565.1 734.9 Q 565.1 729.4, 562.8 726.6 Q 560.4 723.7, 556.1 723.7 Q 551.8 723.7, 549.4 726.5 Q 547.1 729.3, 547.1 734.9 Q 547.1 740.7, 549.4 743.5 Q 551.8 746.4, 556.1 746.4 " fill="#FF0000"/>
<path class="atom-10" d="M 159.7 632.5 L 163.8 628.2 L 158.3 627.1 L 159.2 624.3 L 164.2 626.8 L 163.5 621.3 L 166.5 621.2 L 165.7 626.8 L 170.8 624.4 L 171.7 627.1 L 166.1 628.1 L 170.1 632.4 L 167.7 634.2 L 164.9 628.9 L 162.1 634.2 L 159.7 632.5 " fill="#191919"/>
<path class="atom-11" d="M 243.4 464.8 Q 243.4 458.0, 246.8 454.2 Q 250.1 450.4, 256.4 450.4 Q 262.7 450.4, 266.1 454.2 Q 269.4 458.0, 269.4 464.8 Q 269.4 471.7, 266.0 475.6 Q 262.6 479.5, 256.4 479.5 Q 250.2 479.5, 246.8 475.6 Q 243.4 471.7, 243.4 464.8 M 256.4 476.3 Q 260.7 476.3, 263.1 473.4 Q 265.4 470.5, 265.4 464.8 Q 265.4 459.2, 263.1 456.4 Q 260.7 453.6, 256.4 453.6 Q 252.1 453.6, 249.7 456.4 Q 247.4 459.2, 247.4 464.8 Q 247.4 470.5, 249.7 473.4 Q 252.1 476.3, 256.4 476.3 " fill="#FF0000"/>
</svg>