<svg xmlns="http://www.w3.org/2000/svg" xmlns:rdkit="http://www.rdkit.org/xml" xmlns:xlink="http://www.w3.org/1999/xlink" version="1.1" baseProfile="full" xml:space="preserve" width="1200px" height="800px" viewBox="0 0 1200 800">
<!-- END OF HEADER -->
<rect style="opacity:1.0;fill:#FFFFFF;stroke:none" width="1200.0" height="800.0" x="0.0" y="0.0"> </rect>
<path class="bond-0 atom-0 atom-1" d="M 1128.7,160.5 L 1091.0,183.1" style="fill:none;fill-rule:evenodd;stroke:#191919;stroke-width:2.0px;stroke-linecap:butt;stroke-linejoin:miter;stroke-opacity:1"/>
<path class="bond-0 atom-0 atom-1" d="M 1091.0,183.1 L 1053.2,205.8" style="fill:none;fill-rule:evenodd;stroke:#FF0000;stroke-width:2.0px;stroke-linecap:butt;stroke-linejoin:miter;stroke-opacity:1"/>
<path class="bond-1 atom-1 atom-2" d="M 1019.8,206.5 L 979.3,184.0" style="fill:none;fill-rule:evenodd;stroke:#FF0000;stroke-width:2.0px;stroke-linecap:butt;stroke-linejoin:miter;stroke-opacity:1"/>
<path class="bond-1 atom-1 atom-2" d="M 979.3,184.0 L 938.7,161.4" style="fill:none;fill-rule:evenodd;stroke:#000000;stroke-width:2.0px;stroke-linecap:butt;stroke-linejoin:miter;stroke-opacity:1"/>
<path class="bond-2 atom-2 atom-3" d="M 938.7,161.4 L 842.7,219.0" style="fill:none;fill-rule:evenodd;stroke:#000000;stroke-width:2.0px;stroke-linecap:butt;stroke-linejoin:miter;stroke-opacity:1"/>
<path class="bond-3 atom-3 atom-4" d="M 842.7,219.0 L 744.9,164.6" style="fill:none;fill-rule:evenodd;stroke:#000000;stroke-width:2.0px;stroke-linecap:butt;stroke-linejoin:miter;stroke-opacity:1"/>
<path class="bond-4 atom-4 atom-5" d="M 744.9,164.6 L 648.9,222.2" style="fill:none;fill-rule:evenodd;stroke:#000000;stroke-width:2.0px;stroke-linecap:butt;stroke-linejoin:miter;stroke-opacity:1"/>
<path class="bond-5 atom-5 atom-6" d="M 648.9,222.2 L 608.3,199.6" style="fill:none;fill-rule:evenodd;stroke:#000000;stroke-width:2.0px;stroke-linecap:butt;stroke-linejoin:miter;stroke-opacity:1"/>
<path class="bond-5 atom-5 atom-6" d="M 608.3,199.6 L 567.8,177.1" style="fill:none;fill-rule:evenodd;stroke:#FF0000;stroke-width:2.0px;stroke-linecap:butt;stroke-linejoin:miter;stroke-opacity:1"/>
<path class="bond-6 atom-6 atom-7" d="M 534.4,177.8 L 494.8,201.6" style="fill:none;fill-rule:evenodd;stroke:#FF0000;stroke-width:2.0px;stroke-linecap:butt;stroke-linejoin:miter;stroke-opacity:1"/>
<path class="bond-6 atom-6 atom-7" d="M 494.8,201.6 L 455.1,225.4" style="fill:none;fill-rule:evenodd;stroke:#000000;stroke-width:2.0px;stroke-linecap:butt;stroke-linejoin:miter;stroke-opacity:1"/>
<path class="bond-7 atom-7 atom-8" d="M 446.6,220.7 L 447.4,270.0" style="fill:none;fill-rule:evenodd;stroke:#000000;stroke-width:2.0px;stroke-linecap:butt;stroke-linejoin:miter;stroke-opacity:1"/>
<path class="bond-7 atom-7 atom-8" d="M 447.4,270.0 L 448.3,319.4" style="fill:none;fill-rule:evenodd;stroke:#FF0000;stroke-width:2.0px;stroke-linecap:butt;stroke-linejoin:miter;stroke-opacity:1"/>
<path class="bond-7 atom-7 atom-8" d="M 463.4,220.4 L 464.2,269.7" style="fill:none;fill-rule:evenodd;stroke:#000000;stroke-width:2.0px;stroke-linecap:butt;stroke-linejoin:miter;stroke-opacity:1"/>
<path class="bond-7 atom-7 atom-8" d="M 464.2,269.7 L 465.0,319.1" style="fill:none;fill-rule:evenodd;stroke:#FF0000;stroke-width:2.0px;stroke-linecap:butt;stroke-linejoin:miter;stroke-opacity:1"/>
<path class="bond-8 atom-7 atom-9" d="M 455.1,225.4 L 357.3,171.0" style="fill:none;fill-rule:evenodd;stroke:#000000;stroke-width:2.0px;stroke-linecap:butt;stroke-linejoin:miter;stroke-opacity:1"/>
<path class="bond-9 atom-9 atom-10" d="M 357.3,171.0 L 261.3,228.6" style="fill:none;fill-rule:evenodd;stroke:#000000;stroke-width:2.0px;stroke-linecap:butt;stroke-linejoin:miter;stroke-opacity:1"/>
<path class="bond-10 atom-10 atom-11" d="M 261.3,228.6 L 163.5,174.2" style="fill:none;fill-rule:evenodd;stroke:#000000;stroke-width:2.0px;stroke-linecap:butt;stroke-linejoin:miter;stroke-opacity:1"/>
<path class="bond-11 atom-11 atom-12" d="M 163.5,174.2 L 120.7,199.9" style="fill:none;fill-rule:evenodd;stroke:#000000;stroke-width:2.0px;stroke-linecap:butt;stroke-linejoin:miter;stroke-opacity:1"/>
<path class="bond-11 atom-11 atom-12" d="M 120.7,199.9 L 77.9,225.5" style="fill:none;fill-rule:evenodd;stroke:#191919;stroke-width:2.0px;stroke-linecap:butt;stroke-linejoin:miter;stroke-opacity:1"/>
<path class="bond-12 atom-11 atom-13" d="M 172.0,178.9 L 171.1,129.8" style="fill:none;fill-rule:evenodd;stroke:#000000;stroke-width:2.0px;stroke-linecap:butt;stroke-linejoin:miter;stroke-opacity:1"/>
<path class="bond-12 atom-11 atom-13" d="M 171.1,129.8 L 170.3,80.6" style="fill:none;fill-rule:evenodd;stroke:#FF0000;stroke-width:2.0px;stroke-linecap:butt;stroke-linejoin:miter;stroke-opacity:1"/>
<path class="bond-12 atom-11 atom-13" d="M 155.2,179.2 L 154.4,130.0" style="fill:none;fill-rule:evenodd;stroke:#000000;stroke-width:2.0px;stroke-linecap:butt;stroke-linejoin:miter;stroke-opacity:1"/>
<path class="bond-12 atom-11 atom-13" d="M 154.4,130.0 L 153.5,80.9" style="fill:none;fill-rule:evenodd;stroke:#FF0000;stroke-width:2.0px;stroke-linecap:butt;stroke-linejoin:miter;stroke-opacity:1"/>
<path d="M 940.7,162.6 L 938.7,161.4 L 933.9,164.3" style="fill:none;stroke:#000000;stroke-width:2.0px;stroke-linecap:butt;stroke-linejoin:miter;stroke-opacity:1;"/>
<path d="M 847.5,216.1 L 842.7,219.0 L 837.8,216.3" style="fill:none;stroke:#000000;stroke-width:2.0px;stroke-linecap:butt;stroke-linejoin:miter;stroke-opacity:1;"/>
<path d="M 749.8,167.3 L 744.9,164.6 L 740.1,167.5" style="fill:none;stroke:#000000;stroke-width:2.0px;stroke-linecap:butt;stroke-linejoin:miter;stroke-opacity:1;"/>
<path d="M 653.7,219.3 L 648.9,222.2 L 646.9,221.0" style="fill:none;stroke:#000000;stroke-width:2.0px;stroke-linecap:butt;stroke-linejoin:miter;stroke-opacity:1;"/>
<path d="M 457.1,224.2 L 455.1,225.4 L 450.2,222.6" style="fill:none;stroke:#000000;stroke-width:2.0px;stroke-linecap:butt;stroke-linejoin:miter;stroke-opacity:1;"/>
<path d="M 362.2,173.7 L 357.3,171.0 L 352.5,173.9" style="fill:none;stroke:#000000;stroke-width:2.0px;stroke-linecap:butt;stroke-linejoin:miter;stroke-opacity:1;"/>
<path d="M 266.1,225.7 L 261.3,228.6 L 256.4,225.8" style="fill:none;stroke:#000000;stroke-width:2.0px;stroke-linecap:butt;stroke-linejoin:miter;stroke-opacity:1;"/>
<path d="M 168.4,176.9 L 163.5,174.2 L 161.3,175.5" style="fill:none;stroke:#000000;stroke-width:2.0px;stroke-linecap:butt;stroke-linejoin:miter;stroke-opacity:1;"/>
<path class="atom-0" d="M 1127.2 155.1 L 1131.3 150.8 L 1125.8 149.7 L 1126.6 146.9 L 1131.7 149.4 L 1131.0 143.9 L 1134.0 143.8 L 1133.2 149.4 L 1138.3 147.0 L 1139.2 149.7 L 1133.6 150.8 L 1137.6 155.0 L 1135.2 156.8 L 1132.4 151.5 L 1129.6 156.8 L 1127.2 155.1 " fill="#191919"/>
<path class="atom-1" d="M 1023.5 215.9 Q 1023.5 209.1, 1026.9 205.3 Q 1030.2 201.5, 1036.5 201.5 Q 1042.8 201.5, 1046.2 205.3 Q 1049.5 209.1, 1049.5 215.9 Q 1049.5 222.7, 1046.1 226.7 Q 1042.7 230.5, 1036.5 230.5 Q 1030.3 230.5, 1026.9 226.7 Q 1023.5 222.8, 1023.5 215.9 M 1036.5 227.3 Q 1040.8 227.3, 1043.2 224.5 Q 1045.5 221.5, 1045.5 215.9 Q 1045.5 210.3, 1043.2 207.5 Q 1040.8 204.7, 1036.5 204.7 Q 1032.2 204.7, 1029.8 207.5 Q 1027.5 210.3, 1027.5 215.9 Q 1027.5 221.6, 1029.8 224.5 Q 1032.2 227.3, 1036.5 227.3 " fill="#FF0000"/>
<path class="atom-6" d="M 538.1 167.9 Q 538.1 161.1, 541.4 157.3 Q 544.8 153.5, 551.1 153.5 Q 557.4 153.5, 560.7 157.3 Q 564.1 161.1, 564.1 167.9 Q 564.1 174.8, 560.7 178.7 Q 557.3 182.6, 551.1 182.6 Q 544.8 182.6, 541.4 178.7 Q 538.1 174.8, 538.1 167.9 M 551.1 179.4 Q 555.4 179.4, 557.7 176.5 Q 560.1 173.6, 560.1 167.9 Q 560.1 162.3, 557.7 159.5 Q 555.4 156.7, 551.1 156.7 Q 546.8 156.7, 544.4 159.5 Q 542.1 162.3, 542.1 167.9 Q 542.1 173.6, 544.4 176.5 Q 546.8 179.4, 551.1 179.4 " fill="#FF0000"/>
<path class="atom-8" d="M 443.9 337.3 Q 443.9 330.5, 447.3 326.7 Q 450.7 322.9, 456.9 322.9 Q 463.2 322.9, 466.6 326.7 Q 469.9 330.5, 469.9 337.3 Q 469.9 344.2, 466.5 348.1 Q 463.1 352.0, 456.9 352.0 Q 450.7 352.0, 447.3 348.1 Q 443.9 344.3, 443.9 337.3 M 456.9 348.8 Q 461.3 348.8, 463.6 345.9 Q 465.9 343.0, 465.9 337.3 Q 465.9 331.8, 463.6 329.0 Q 461.3 326.1, 456.9 326.1 Q 452.6 326.1, 450.3 328.9 Q 447.9 331.7, 447.9 337.3 Q 447.9 343.1, 450.3 345.9 Q 452.6 348.8, 456.9 348.8 " fill="#FF0000"/>
<path class="atom-12" d="M 62.2 228.6 L 66.3 224.3 L 60.8 223.2 L 61.6 220.4 L 66.7 222.9 L 66.0 217.4 L 69.0 217.3 L 68.2 222.9 L 73.3 220.5 L 74.2 223.2 L 68.6 224.3 L 72.6 228.5 L 70.2 230.3 L 67.4 225.0 L 64.6 230.3 L 62.2 228.6 " fill="#191919"/>
<path class="atom-13" d="M 148.6 62.4 Q 148.6 55.6, 152.0 51.8 Q 155.4 48.0, 161.6 48.0 Q 167.9 48.0, 171.3 51.8 Q 174.6 55.6, 174.6 62.4 Q 174.6 69.3, 171.2 73.2 Q 167.8 77.1, 161.6 77.1 Q 155.4 77.1, 152.0 73.2 Q 148.6 69.3, 148.6 62.4 M 161.6 73.9 Q 166.0 73.9, 168.3 71.0 Q 170.6 68.1, 170.6 62.4 Q 170.6 56.8, 168.3 54.0 Q 166.0 51.2, 161.6 51.2 Q 157.3 51.2, 155.0 54.0 Q 152.6 56.8, 152.6 62.4 Q 152.6 68.1, 155.0 71.0 Q 157.3 73.9, 161.6 73.9 " fill="#FF0000"/>
<path class="bond-0 atom-0 atom-1" d="M 223.4,640.2 L 260.0,622.0" style="fill:none;fill-rule:evenodd;stroke:#191919;stroke-width:2.0px;stroke-linecap:butt;stroke-linejoin:miter;stroke-opacity:1"/>
<path class="bond-0 atom-0 atom-1" d="M 260.0,622.0 L 296.5,603.7" style="fill:none;fill-rule:evenodd;stroke:#FF0000;stroke-width:2.0px;stroke-linecap:butt;stroke-linejoin:miter;stroke-opacity:1"/>
<path class="bond-1 atom-1 atom-2" d="M 329.9,606.5 L 368.2,631.8" style="fill:none;fill-rule:evenodd;stroke:#FF0000;stroke-width:2.0px;stroke-linecap:butt;stroke-linejoin:miter;stroke-opacity:1"/>
<path class="bond-1 atom-1 atom-2" d="M 368.2,631.8 L 406.5,657.1" style="fill:none;fill-rule:evenodd;stroke:#000000;stroke-width:2.0px;stroke-linecap:butt;stroke-linejoin:miter;stroke-opacity:1"/>
<path class="bond-2 atom-2 atom-3" d="M 406.5,657.1 L 506.7,607.2" style="fill:none;fill-rule:evenodd;stroke:#000000;stroke-width:2.0px;stroke-linecap:butt;stroke-linejoin:miter;stroke-opacity:1"/>
<path class="bond-3 atom-3 atom-4" d="M 506.7,607.2 L 600.0,668.9" style="fill:none;fill-rule:evenodd;stroke:#000000;stroke-width:2.0px;stroke-linecap:butt;stroke-linejoin:miter;stroke-opacity:1"/>
<path class="bond-4 atom-4 atom-5" d="M 600.0,668.9 L 700.1,618.9" style="fill:none;fill-rule:evenodd;stroke:#000000;stroke-width:2.0px;stroke-linecap:butt;stroke-linejoin:miter;stroke-opacity:1"/>
<path class="bond-5 atom-5 atom-6" d="M 700.1,618.9 L 738.5,644.2" style="fill:none;fill-rule:evenodd;stroke:#000000;stroke-width:2.0px;stroke-linecap:butt;stroke-linejoin:miter;stroke-opacity:1"/>
<path class="bond-5 atom-5 atom-6" d="M 738.5,644.2 L 776.8,669.6" style="fill:none;fill-rule:evenodd;stroke:#FF0000;stroke-width:2.0px;stroke-linecap:butt;stroke-linejoin:miter;stroke-opacity:1"/>
<path class="bond-6 atom-6 atom-7" d="M 810.2,672.3 L 851.9,651.5" style="fill:none;fill-rule:evenodd;stroke:#FF0000;stroke-width:2.0px;stroke-linecap:butt;stroke-linejoin:miter;stroke-opacity:1"/>
<path class="bond-6 atom-6 atom-7" d="M 851.9,651.5 L 893.6,630.6" style="fill:none;fill-rule:evenodd;stroke:#000000;stroke-width:2.0px;stroke-linecap:butt;stroke-linejoin:miter;stroke-opacity:1"/>
<path class="bond-7 atom-7 atom-8" d="M 893.6,630.6 L 935.1,658.1" style="fill:none;fill-rule:evenodd;stroke:#000000;stroke-width:2.0px;stroke-linecap:butt;stroke-linejoin:miter;stroke-opacity:1"/>
<path class="bond-7 atom-7 atom-8" d="M 935.1,658.1 L 976.6,685.5" style="fill:none;fill-rule:evenodd;stroke:#191919;stroke-width:2.0px;stroke-linecap:butt;stroke-linejoin:miter;stroke-opacity:1"/>
<path class="bond-8 atom-7 atom-9" d="M 901.7,636.0 L 904.7,586.9" style="fill:none;fill-rule:evenodd;stroke:#000000;stroke-width:2.0px;stroke-linecap:butt;stroke-linejoin:miter;stroke-opacity:1"/>
<path class="bond-8 atom-7 atom-9" d="M 904.7,586.9 L 907.6,537.9" style="fill:none;fill-rule:evenodd;stroke:#FF0000;stroke-width:2.0px;stroke-linecap:butt;stroke-linejoin:miter;stroke-opacity:1"/>
<path class="bond-8 atom-7 atom-9" d="M 884.9,635.0 L 887.9,585.9" style="fill:none;fill-rule:evenodd;stroke:#000000;stroke-width:2.0px;stroke-linecap:butt;stroke-linejoin:miter;stroke-opacity:1"/>
<path class="bond-8 atom-7 atom-9" d="M 887.9,585.9 L 890.9,536.9" style="fill:none;fill-rule:evenodd;stroke:#FF0000;stroke-width:2.0px;stroke-linecap:butt;stroke-linejoin:miter;stroke-opacity:1"/>
<path d="M 404.6,655.9 L 406.5,657.1 L 411.5,654.6" style="fill:none;stroke:#000000;stroke-width:2.0px;stroke-linecap:butt;stroke-linejoin:miter;stroke-opacity:1;"/>
<path d="M 501.6,609.7 L 506.7,607.2 L 511.3,610.2" style="fill:none;stroke:#000000;stroke-width:2.0px;stroke-linecap:butt;stroke-linejoin:miter;stroke-opacity:1;"/>
<path d="M 595.3,665.8 L 600.0,668.9 L 605.0,666.4" style="fill:none;stroke:#000000;stroke-width:2.0px;stroke-linecap:butt;stroke-linejoin:miter;stroke-opacity:1;"/>
<path d="M 695.1,621.4 L 700.1,618.9 L 702.0,620.2" style="fill:none;stroke:#000000;stroke-width:2.0px;stroke-linecap:butt;stroke-linejoin:miter;stroke-opacity:1;"/>
<path d="M 891.5,631.7 L 893.6,630.6 L 895.7,632.0" style="fill:none;stroke:#000000;stroke-width:2.0px;stroke-linecap:butt;stroke-linejoin:miter;stroke-opacity:1;"/>
<path class="atom-0" d="M 207.7 642.2 L 211.9 638.0 L 206.4 636.9 L 207.2 634.0 L 212.3 636.6 L 211.6 631.0 L 214.6 631.0 L 213.7 636.6 L 218.9 634.2 L 219.8 636.9 L 214.2 637.9 L 218.2 642.2 L 215.7 644.0 L 213.0 638.7 L 210.2 644.0 L 207.7 642.2 " fill="#191919"/>
<path class="atom-1" d="M 300.2 595.5 Q 300.2 588.7, 303.5 584.9 Q 306.9 581.1, 313.2 581.1 Q 319.5 581.1, 322.8 584.9 Q 326.2 588.7, 326.2 595.5 Q 326.2 602.4, 322.8 606.3 Q 319.4 610.2, 313.2 610.2 Q 306.9 610.2, 303.5 606.3 Q 300.2 602.4, 300.2 595.5 M 313.2 607.0 Q 317.5 607.0, 319.8 604.1 Q 322.2 601.2, 322.2 595.5 Q 322.2 589.9, 319.8 587.1 Q 317.5 584.3, 313.2 584.3 Q 308.9 584.3, 306.5 587.1 Q 304.2 589.9, 304.2 595.5 Q 304.2 601.2, 306.5 604.1 Q 308.9 607.0, 313.2 607.0 " fill="#FF0000"/>
<path class="atom-6" d="M 780.5 680.7 Q 780.5 673.9, 783.8 670.1 Q 787.2 666.3, 793.5 666.3 Q 799.8 666.3, 803.1 670.1 Q 806.5 673.9, 806.5 680.7 Q 806.5 687.6, 803.1 691.5 Q 799.7 695.4, 793.5 695.4 Q 787.2 695.4, 783.8 691.5 Q 780.5 687.6, 780.5 680.7 M 793.5 692.2 Q 797.8 692.2, 800.1 689.3 Q 802.5 686.4, 802.5 680.7 Q 802.5 675.1, 800.1 672.3 Q 797.8 669.5, 793.5 669.5 Q 789.2 669.5, 786.8 672.3 Q 784.5 675.1, 784.5 680.7 Q 784.5 686.4, 786.8 689.3 Q 789.2 692.2, 793.5 692.2 " fill="#FF0000"/>
<path class="atom-8" d="M 981.6 689.2 L 985.8 685.0 L 980.2 683.8 L 981.1 681.0 L 986.2 683.6 L 985.4 678.0 L 988.4 678.0 L 987.6 683.5 L 992.8 681.1 L 993.6 683.8 L 988.0 684.9 L 992.0 689.2 L 989.6 690.9 L 986.8 685.6 L 984.0 690.9 L 981.6 689.2 " fill="#191919"/>
<path class="atom-9" d="M 887.4 519.0 Q 887.4 512.2, 890.7 508.4 Q 894.1 504.6, 900.4 504.6 Q 906.7 504.6, 910.0 508.4 Q 913.4 512.2, 913.4 519.0 Q 913.4 525.9, 910.0 529.8 Q 906.6 533.7, 900.4 533.7 Q 894.1 533.7, 890.7 529.8 Q 887.4 525.9, 887.4 519.0 M 900.4 530.5 Q 904.7 530.5, 907.0 527.6 Q 909.4 524.7, 909.4 519.0 Q 909.4 513.5, 907.0 510.7 Q 904.7 507.8, 900.4 507.8 Q 896.1 507.8, 893.7 510.6 Q 891.4 513.4, 891.4 519.0 Q 891.4 524.7, 893.7 527.6 Q 896.1 530.5, 900.4 530.5 " fill="#FF0000"/>
</svg>