<svg xmlns="http://www.w3.org/2000/svg" xmlns:rdkit="http://www.rdkit.org/xml" xmlns:xlink="http://www.w3.org/1999/xlink" version="1.1" baseProfile="full" xml:space="preserve" width="1200px" height="1200px" viewBox="0 0 1200 1200">
<!-- END OF HEADER -->
<rect style="opacity:1.0;fill:#FFFFFF;stroke:none" width="1200.0" height="1200.0" x="0.0" y="0.0"> </rect>
<path class="bond-0 atom-0 atom-1" d="M 723.4,285.7 L 727.0,271.9" style="fill:none;fill-rule:evenodd;stroke:#191919;stroke-width:2.0px;stroke-linecap:butt;stroke-linejoin:miter;stroke-opacity:1"/>
<path class="bond-0 atom-0 atom-1" d="M 727.0,271.9 L 730.7,258.1" style="fill:none;fill-rule:evenodd;stroke:#FF0000;stroke-width:2.0px;stroke-linecap:butt;stroke-linejoin:miter;stroke-opacity:1"/>
<path class="bond-1 atom-1 atom-2" d="M 725.4,242.6 L 713.0,230.3" style="fill:none;fill-rule:evenodd;stroke:#FF0000;stroke-width:2.0px;stroke-linecap:butt;stroke-linejoin:miter;stroke-opacity:1"/>
<path class="bond-1 atom-1 atom-2" d="M 713.0,230.3 L 700.6,218.0" style="fill:none;fill-rule:evenodd;stroke:#000000;stroke-width:2.0px;stroke-linecap:butt;stroke-linejoin:miter;stroke-opacity:1"/>
<path class="bond-2 atom-2 atom-3" d="M 700.6,218.0 L 656.9,229.9" style="fill:none;fill-rule:evenodd;stroke:#000000;stroke-width:2.0px;stroke-linecap:butt;stroke-linejoin:miter;stroke-opacity:1"/>
<path class="bond-3 atom-3 atom-4" d="M 656.9,229.9 L 645.3,273.8" style="fill:none;fill-rule:evenodd;stroke:#000000;stroke-width:2.0px;stroke-linecap:butt;stroke-linejoin:miter;stroke-opacity:1"/>
<path class="bond-4 atom-4 atom-5" d="M 645.3,273.8 L 627.2,278.7" style="fill:none;fill-rule:evenodd;stroke:#000000;stroke-width:2.0px;stroke-linecap:butt;stroke-linejoin:miter;stroke-opacity:1"/>
<path class="bond-4 atom-4 atom-5" d="M 627.2,278.7 L 609.0,283.6" style="fill:none;fill-rule:evenodd;stroke:#FF0000;stroke-width:2.0px;stroke-linecap:butt;stroke-linejoin:miter;stroke-opacity:1"/>
<path class="bond-5 atom-5 atom-6" d="M 599.5,293.8 L 595.8,307.7" style="fill:none;fill-rule:evenodd;stroke:#FF0000;stroke-width:2.0px;stroke-linecap:butt;stroke-linejoin:miter;stroke-opacity:1"/>
<path class="bond-5 atom-5 atom-6" d="M 595.8,307.7 L 592.1,321.6" style="fill:none;fill-rule:evenodd;stroke:#CCCC00;stroke-width:2.0px;stroke-linecap:butt;stroke-linejoin:miter;stroke-opacity:1"/>
<path class="bond-6 atom-6 atom-7" d="M 584.4,328.0 L 569.0,323.9" style="fill:none;fill-rule:evenodd;stroke:#CCCC00;stroke-width:2.0px;stroke-linecap:butt;stroke-linejoin:miter;stroke-opacity:1"/>
<path class="bond-6 atom-6 atom-7" d="M 569.0,323.9 L 553.6,319.9" style="fill:none;fill-rule:evenodd;stroke:#FF0000;stroke-width:2.0px;stroke-linecap:butt;stroke-linejoin:miter;stroke-opacity:1"/>
<path class="bond-7 atom-6 atom-8" d="M 595.7,331.0 L 611.1,335.0" style="fill:none;fill-rule:evenodd;stroke:#CCCC00;stroke-width:2.0px;stroke-linecap:butt;stroke-linejoin:miter;stroke-opacity:1"/>
<path class="bond-7 atom-6 atom-8" d="M 611.1,335.0 L 626.5,339.1" style="fill:none;fill-rule:evenodd;stroke:#FF0000;stroke-width:2.0px;stroke-linecap:butt;stroke-linejoin:miter;stroke-opacity:1"/>
<path class="bond-8 atom-6 atom-9" d="M 587.9,337.7 L 584.2,351.5" style="fill:none;fill-rule:evenodd;stroke:#CCCC00;stroke-width:2.0px;stroke-linecap:butt;stroke-linejoin:miter;stroke-opacity:1"/>
<path class="bond-8 atom-6 atom-9" d="M 584.2,351.5 L 580.6,365.3" style="fill:none;fill-rule:evenodd;stroke:#FF0000;stroke-width:2.0px;stroke-linecap:butt;stroke-linejoin:miter;stroke-opacity:1"/>
<path class="bond-9 atom-3 atom-10" d="M 656.9,229.9 L 644.5,217.6" style="fill:none;fill-rule:evenodd;stroke:#000000;stroke-width:2.0px;stroke-linecap:butt;stroke-linejoin:miter;stroke-opacity:1"/>
<path class="bond-9 atom-3 atom-10" d="M 644.5,217.6 L 632.1,205.3" style="fill:none;fill-rule:evenodd;stroke:#FF0000;stroke-width:2.0px;stroke-linecap:butt;stroke-linejoin:miter;stroke-opacity:1"/>
<path class="bond-10 atom-10 atom-11" d="M 626.8,190.0 L 631.6,172.1" style="fill:none;fill-rule:evenodd;stroke:#FF0000;stroke-width:2.0px;stroke-linecap:butt;stroke-linejoin:miter;stroke-opacity:1"/>
<path class="bond-10 atom-10 atom-11" d="M 631.6,172.1 L 636.3,154.2" style="fill:none;fill-rule:evenodd;stroke:#000000;stroke-width:2.0px;stroke-linecap:butt;stroke-linejoin:miter;stroke-opacity:1"/>
<path class="bond-11 atom-11 atom-12" d="M 636.3,154.2 L 623.9,141.9" style="fill:none;fill-rule:evenodd;stroke:#000000;stroke-width:2.0px;stroke-linecap:butt;stroke-linejoin:miter;stroke-opacity:1"/>
<path class="bond-11 atom-11 atom-12" d="M 623.9,141.9 L 611.5,129.6" style="fill:none;fill-rule:evenodd;stroke:#FF0000;stroke-width:2.0px;stroke-linecap:butt;stroke-linejoin:miter;stroke-opacity:1"/>
<path class="bond-12 atom-12 atom-13" d="M 596.7,124.3 L 578.5,129.2" style="fill:none;fill-rule:evenodd;stroke:#FF0000;stroke-width:2.0px;stroke-linecap:butt;stroke-linejoin:miter;stroke-opacity:1"/>
<path class="bond-12 atom-12 atom-13" d="M 578.5,129.2 L 560.4,134.2" style="fill:none;fill-rule:evenodd;stroke:#000000;stroke-width:2.0px;stroke-linecap:butt;stroke-linejoin:miter;stroke-opacity:1"/>
<path class="bond-13 atom-13 atom-14" d="M 560.4,134.2 L 528.2,102.2" style="fill:none;fill-rule:evenodd;stroke:#000000;stroke-width:2.0px;stroke-linecap:butt;stroke-linejoin:miter;stroke-opacity:1"/>
<path class="bond-14 atom-14 atom-15" d="M 528.2,102.2 L 539.8,58.4" style="fill:none;fill-rule:evenodd;stroke:#000000;stroke-width:2.0px;stroke-linecap:butt;stroke-linejoin:miter;stroke-opacity:1"/>
<path class="bond-15 atom-15 atom-16" d="M 539.8,58.4 L 527.4,46.1" style="fill:none;fill-rule:evenodd;stroke:#000000;stroke-width:2.0px;stroke-linecap:butt;stroke-linejoin:miter;stroke-opacity:1"/>
<path class="bond-15 atom-15 atom-16" d="M 527.4,46.1 L 515.0,33.8" style="fill:none;fill-rule:evenodd;stroke:#FF0000;stroke-width:2.0px;stroke-linecap:butt;stroke-linejoin:miter;stroke-opacity:1"/>
<path class="bond-16 atom-14 atom-17" d="M 528.2,102.2 L 510.0,107.2" style="fill:none;fill-rule:evenodd;stroke:#000000;stroke-width:2.0px;stroke-linecap:butt;stroke-linejoin:miter;stroke-opacity:1"/>
<path class="bond-16 atom-14 atom-17" d="M 510.0,107.2 L 491.9,112.1" style="fill:none;fill-rule:evenodd;stroke:#FF0000;stroke-width:2.0px;stroke-linecap:butt;stroke-linejoin:miter;stroke-opacity:1"/>
<path class="bond-17 atom-17 atom-18" d="M 482.3,122.3 L 477.6,140.2" style="fill:none;fill-rule:evenodd;stroke:#FF0000;stroke-width:2.0px;stroke-linecap:butt;stroke-linejoin:miter;stroke-opacity:1"/>
<path class="bond-17 atom-17 atom-18" d="M 477.6,140.2 L 472.9,158.0" style="fill:none;fill-rule:evenodd;stroke:#000000;stroke-width:2.0px;stroke-linecap:butt;stroke-linejoin:miter;stroke-opacity:1"/>
<path class="bond-18 atom-18 atom-19" d="M 472.9,158.0 L 453.3,163.3" style="fill:none;fill-rule:evenodd;stroke:#000000;stroke-width:2.0px;stroke-linecap:butt;stroke-linejoin:miter;stroke-opacity:1"/>
<path class="bond-18 atom-18 atom-19" d="M 453.3,163.3 L 433.7,168.6" style="fill:none;fill-rule:evenodd;stroke:#191919;stroke-width:2.0px;stroke-linecap:butt;stroke-linejoin:miter;stroke-opacity:1"/>
<path class="bond-19 atom-18 atom-20" d="M 472.9,158.0 L 505.1,189.9" style="fill:none;fill-rule:evenodd;stroke:#000000;stroke-width:2.0px;stroke-linecap:butt;stroke-linejoin:miter;stroke-opacity:1"/>
<path class="bond-20 atom-20 atom-21" d="M 505.1,189.9 L 500.4,207.8" style="fill:none;fill-rule:evenodd;stroke:#000000;stroke-width:2.0px;stroke-linecap:butt;stroke-linejoin:miter;stroke-opacity:1"/>
<path class="bond-20 atom-20 atom-21" d="M 500.4,207.8 L 495.6,225.8" style="fill:none;fill-rule:evenodd;stroke:#0000FF;stroke-width:2.0px;stroke-linecap:butt;stroke-linejoin:miter;stroke-opacity:1"/>
<path class="bond-21 atom-20 atom-22" d="M 505.1,189.9 L 548.8,178.0" style="fill:none;fill-rule:evenodd;stroke:#000000;stroke-width:2.0px;stroke-linecap:butt;stroke-linejoin:miter;stroke-opacity:1"/>
<path class="bond-22 atom-22 atom-23" d="M 548.8,178.0 L 561.2,190.3" style="fill:none;fill-rule:evenodd;stroke:#000000;stroke-width:2.0px;stroke-linecap:butt;stroke-linejoin:miter;stroke-opacity:1"/>
<path class="bond-22 atom-22 atom-23" d="M 561.2,190.3 L 573.6,202.6" style="fill:none;fill-rule:evenodd;stroke:#FF0000;stroke-width:2.0px;stroke-linecap:butt;stroke-linejoin:miter;stroke-opacity:1"/>
<path class="bond-23 atom-11 atom-24" d="M 636.3,154.2 L 680.0,142.3" style="fill:none;fill-rule:evenodd;stroke:#000000;stroke-width:2.0px;stroke-linecap:butt;stroke-linejoin:miter;stroke-opacity:1"/>
<path class="bond-24 atom-24 atom-25" d="M 680.0,142.3 L 684.8,124.3" style="fill:none;fill-rule:evenodd;stroke:#000000;stroke-width:2.0px;stroke-linecap:butt;stroke-linejoin:miter;stroke-opacity:1"/>
<path class="bond-24 atom-24 atom-25" d="M 684.8,124.3 L 689.5,106.4" style="fill:none;fill-rule:evenodd;stroke:#0000FF;stroke-width:2.0px;stroke-linecap:butt;stroke-linejoin:miter;stroke-opacity:1"/>
<path class="bond-25 atom-25 atom-26" d="M 697.9,96.7 L 716.6,91.6" style="fill:none;fill-rule:evenodd;stroke:#0000FF;stroke-width:2.0px;stroke-linecap:butt;stroke-linejoin:miter;stroke-opacity:1"/>
<path class="bond-25 atom-25 atom-26" d="M 716.6,91.6 L 735.3,86.5" style="fill:none;fill-rule:evenodd;stroke:#000000;stroke-width:2.0px;stroke-linecap:butt;stroke-linejoin:miter;stroke-opacity:1"/>
<path class="bond-26 atom-26 atom-27" d="M 735.3,86.5 L 746.9,42.7" style="fill:none;fill-rule:evenodd;stroke:#000000;stroke-width:2.0px;stroke-linecap:butt;stroke-linejoin:miter;stroke-opacity:1"/>
<path class="bond-27 atom-26 atom-28" d="M 731.5,87.6 L 744.6,100.6" style="fill:none;fill-rule:evenodd;stroke:#000000;stroke-width:2.0px;stroke-linecap:butt;stroke-linejoin:miter;stroke-opacity:1"/>
<path class="bond-27 atom-26 atom-28" d="M 744.6,100.6 L 757.7,113.5" style="fill:none;fill-rule:evenodd;stroke:#FF0000;stroke-width:2.0px;stroke-linecap:butt;stroke-linejoin:miter;stroke-opacity:1"/>
<path class="bond-27 atom-26 atom-28" d="M 736.3,82.7 L 749.4,95.7" style="fill:none;fill-rule:evenodd;stroke:#000000;stroke-width:2.0px;stroke-linecap:butt;stroke-linejoin:miter;stroke-opacity:1"/>
<path class="bond-27 atom-26 atom-28" d="M 749.4,95.7 L 762.5,108.7" style="fill:none;fill-rule:evenodd;stroke:#FF0000;stroke-width:2.0px;stroke-linecap:butt;stroke-linejoin:miter;stroke-opacity:1"/>
<path class="bond-28 atom-24 atom-29" d="M 680.0,142.3 L 712.2,174.2" style="fill:none;fill-rule:evenodd;stroke:#000000;stroke-width:2.0px;stroke-linecap:butt;stroke-linejoin:miter;stroke-opacity:1"/>
<path class="bond-29 atom-29 atom-30" d="M 712.2,174.2 L 730.4,169.2" style="fill:none;fill-rule:evenodd;stroke:#000000;stroke-width:2.0px;stroke-linecap:butt;stroke-linejoin:miter;stroke-opacity:1"/>
<path class="bond-29 atom-29 atom-30" d="M 730.4,169.2 L 748.5,164.3" style="fill:none;fill-rule:evenodd;stroke:#FF0000;stroke-width:2.0px;stroke-linecap:butt;stroke-linejoin:miter;stroke-opacity:1"/>
<path class="bond-30 atom-29 atom-2" d="M 712.2,174.2 L 700.6,218.0" style="fill:none;fill-rule:evenodd;stroke:#000000;stroke-width:2.0px;stroke-linecap:butt;stroke-linejoin:miter;stroke-opacity:1"/>
<path class="bond-31 atom-22 atom-13" d="M 548.8,178.0 L 560.4,134.2" style="fill:none;fill-rule:evenodd;stroke:#000000;stroke-width:2.0px;stroke-linecap:butt;stroke-linejoin:miter;stroke-opacity:1"/>
<path d="M 645.9,271.6 L 645.3,273.8 L 644.4,274.0" style="fill:none;stroke:#000000;stroke-width:2.0px;stroke-linecap:butt;stroke-linejoin:miter;stroke-opacity:1;"/>
<path d="M 539.2,60.6 L 539.8,58.4 L 539.1,57.8" style="fill:none;stroke:#000000;stroke-width:2.0px;stroke-linecap:butt;stroke-linejoin:miter;stroke-opacity:1;"/>
<path d="M 734.4,86.8 L 735.3,86.5 L 735.9,84.3" style="fill:none;stroke:#000000;stroke-width:2.0px;stroke-linecap:butt;stroke-linejoin:miter;stroke-opacity:1;"/>
<path class="atom-0" d="M 718.8 292.3 L 720.7 290.4 L 718.2 289.9 L 718.6 288.6 L 720.9 289.8 L 720.6 287.3 L 721.9 287.2 L 721.6 289.8 L 723.9 288.7 L 724.3 289.9 L 721.8 290.4 L 723.6 292.3 L 722.5 293.1 L 721.2 290.7 L 719.9 293.1 L 718.8 292.3 " fill="#191919"/>
<path class="atom-1" d="M 726.9 250.0 Q 726.9 246.9, 728.4 245.2 Q 730.0 243.4, 732.8 243.4 Q 735.7 243.4, 737.2 245.2 Q 738.7 246.9, 738.7 250.0 Q 738.7 253.1, 737.2 254.9 Q 735.6 256.6, 732.8 256.6 Q 730.0 256.6, 728.4 254.9 Q 726.9 253.1, 726.9 250.0 M 732.8 255.2 Q 734.8 255.2, 735.8 253.9 Q 736.9 252.6, 736.9 250.0 Q 736.9 247.5, 735.8 246.2 Q 734.8 244.9, 732.8 244.9 Q 730.9 244.9, 729.8 246.2 Q 728.7 247.4, 728.7 250.0 Q 728.7 252.6, 729.8 253.9 Q 730.9 255.2, 732.8 255.2 " fill="#FF0000"/>
<path class="atom-5" d="M 595.7 285.7 Q 595.7 282.6, 597.2 280.9 Q 598.8 279.2, 601.6 279.2 Q 604.5 279.2, 606.0 280.9 Q 607.5 282.6, 607.5 285.7 Q 607.5 288.8, 606.0 290.6 Q 604.4 292.3, 601.6 292.3 Q 598.8 292.3, 597.2 290.6 Q 595.7 288.8, 595.7 285.7 M 601.6 290.9 Q 603.6 290.9, 604.6 289.6 Q 605.7 288.3, 605.7 285.7 Q 605.7 283.2, 604.6 281.9 Q 603.6 280.6, 601.6 280.6 Q 599.7 280.6, 598.6 281.9 Q 597.5 283.2, 597.5 285.7 Q 597.5 288.3, 598.6 289.6 Q 599.7 290.9, 601.6 290.9 " fill="#FF0000"/>
<path class="atom-6" d="M 586.4 333.9 Q 586.6 333.9, 587.2 334.2 Q 587.8 334.5, 588.4 334.6 Q 589.1 334.8, 589.8 334.8 Q 591.0 334.8, 591.7 334.2 Q 592.4 333.6, 592.4 332.5 Q 592.4 331.8, 592.0 331.4 Q 591.7 331.0, 591.1 330.7 Q 590.6 330.5, 589.7 330.2 Q 588.5 329.9, 587.8 329.6 Q 587.2 329.2, 586.7 328.5 Q 586.2 327.9, 586.2 326.7 Q 586.2 325.1, 587.3 324.1 Q 588.4 323.1, 590.6 323.1 Q 592.1 323.1, 593.8 323.8 L 593.3 325.2 Q 591.8 324.6, 590.6 324.6 Q 589.4 324.6, 588.7 325.1 Q 588.0 325.6, 588.0 326.5 Q 588.0 327.2, 588.4 327.6 Q 588.7 328.0, 589.2 328.2 Q 589.8 328.5, 590.6 328.7 Q 591.8 329.1, 592.5 329.5 Q 593.2 329.8, 593.7 330.6 Q 594.2 331.3, 594.2 332.5 Q 594.2 334.3, 593.0 335.3 Q 591.8 336.2, 589.8 336.2 Q 588.7 336.2, 587.8 336.0 Q 587.0 335.7, 585.9 335.3 L 586.4 333.9 " fill="#CCCC00"/>
<path class="atom-7" d="M 527.7 311.6 L 529.4 311.6 L 529.4 317.0 L 536.0 317.0 L 536.0 311.6 L 537.7 311.6 L 537.7 324.4 L 536.0 324.4 L 536.0 318.5 L 529.4 318.5 L 529.4 324.4 L 527.7 324.4 L 527.7 311.6 " fill="#FF0000"/>
<path class="atom-7" d="M 540.3 318.0 Q 540.3 314.9, 541.9 313.2 Q 543.4 311.4, 546.2 311.4 Q 549.1 311.4, 550.6 313.2 Q 552.1 314.9, 552.1 318.0 Q 552.1 321.1, 550.6 322.9 Q 549.0 324.6, 546.2 324.6 Q 543.4 324.6, 541.9 322.9 Q 540.3 321.1, 540.3 318.0 M 546.2 323.2 Q 548.2 323.2, 549.2 321.9 Q 550.3 320.5, 550.3 318.0 Q 550.3 315.4, 549.2 314.2 Q 548.2 312.9, 546.2 312.9 Q 544.3 312.9, 543.2 314.2 Q 542.2 315.4, 542.2 318.0 Q 542.2 320.6, 543.2 321.9 Q 544.3 323.2, 546.2 323.2 " fill="#FF0000"/>
<path class="atom-8" d="M 628.0 341.1 Q 628.0 338.0, 629.5 336.3 Q 631.0 334.5, 633.9 334.5 Q 636.7 334.5, 638.3 336.3 Q 639.8 338.0, 639.8 341.1 Q 639.8 344.2, 638.2 346.0 Q 636.7 347.7, 633.9 347.7 Q 631.1 347.7, 629.5 346.0 Q 628.0 344.2, 628.0 341.1 M 633.9 346.3 Q 635.8 346.3, 636.9 345.0 Q 638.0 343.7, 638.0 341.1 Q 638.0 338.6, 636.9 337.3 Q 635.8 336.0, 633.9 336.0 Q 631.9 336.0, 630.9 337.3 Q 629.8 338.5, 629.8 341.1 Q 629.8 343.7, 630.9 345.0 Q 631.9 346.3, 633.9 346.3 " fill="#FF0000"/>
<path class="atom-8" d="M 641.8 334.7 L 643.5 334.7 L 643.5 340.2 L 650.1 340.2 L 650.1 334.7 L 651.8 334.7 L 651.8 347.5 L 650.1 347.5 L 650.1 341.6 L 643.5 341.6 L 643.5 347.5 L 641.8 347.5 L 641.8 334.7 " fill="#FF0000"/>
<path class="atom-9" d="M 572.6 373.3 Q 572.6 370.3, 574.1 368.5 Q 575.7 366.8, 578.5 366.8 Q 581.4 366.8, 582.9 368.5 Q 584.4 370.3, 584.4 373.3 Q 584.4 376.5, 582.9 378.2 Q 581.3 380.0, 578.5 380.0 Q 575.7 380.0, 574.1 378.2 Q 572.6 376.5, 572.6 373.3 M 578.5 378.5 Q 580.5 378.5, 581.5 377.2 Q 582.6 375.9, 582.6 373.3 Q 582.6 370.8, 581.5 369.6 Q 580.5 368.3, 578.5 368.3 Q 576.5 368.3, 575.5 369.5 Q 574.4 370.8, 574.4 373.3 Q 574.4 375.9, 575.5 377.2 Q 576.5 378.5, 578.5 378.5 " fill="#FF0000"/>
<path class="atom-9" d="M 586.4 367.0 L 588.1 367.0 L 588.1 372.4 L 594.7 372.4 L 594.7 367.0 L 596.4 367.0 L 596.4 379.8 L 594.7 379.8 L 594.7 373.9 L 588.1 373.9 L 588.1 379.8 L 586.4 379.8 L 586.4 367.0 " fill="#FF0000"/>
<path class="atom-10" d="M 618.8 198.0 Q 618.8 195.0, 620.4 193.2 Q 621.9 191.5, 624.7 191.5 Q 627.6 191.5, 629.1 193.2 Q 630.6 195.0, 630.6 198.0 Q 630.6 201.2, 629.1 202.9 Q 627.5 204.7, 624.7 204.7 Q 621.9 204.7, 620.4 202.9 Q 618.8 201.2, 618.8 198.0 M 624.7 203.2 Q 626.7 203.2, 627.7 201.9 Q 628.8 200.6, 628.8 198.0 Q 628.8 195.5, 627.7 194.2 Q 626.7 193.0, 624.7 193.0 Q 622.8 193.0, 621.7 194.2 Q 620.6 195.5, 620.6 198.0 Q 620.6 200.6, 621.7 201.9 Q 622.8 203.2, 624.7 203.2 " fill="#FF0000"/>
<path class="atom-12" d="M 598.2 122.3 Q 598.2 119.2, 599.7 117.5 Q 601.3 115.8, 604.1 115.8 Q 607.0 115.8, 608.5 117.5 Q 610.0 119.2, 610.0 122.3 Q 610.0 125.4, 608.5 127.2 Q 606.9 128.9, 604.1 128.9 Q 601.3 128.9, 599.7 127.2 Q 598.2 125.4, 598.2 122.3 M 604.1 127.5 Q 606.1 127.5, 607.1 126.2 Q 608.2 124.9, 608.2 122.3 Q 608.2 119.8, 607.1 118.5 Q 606.1 117.2, 604.1 117.2 Q 602.1 117.2, 601.1 118.5 Q 600.0 119.8, 600.0 122.3 Q 600.0 124.9, 601.1 126.2 Q 602.1 127.5, 604.1 127.5 " fill="#FF0000"/>
<path class="atom-16" d="M 489.0 20.1 L 490.7 20.1 L 490.7 25.6 L 497.3 25.6 L 497.3 20.1 L 499.1 20.1 L 499.1 33.0 L 497.3 33.0 L 497.3 27.1 L 490.7 27.1 L 490.7 33.0 L 489.0 33.0 L 489.0 20.1 " fill="#FF0000"/>
<path class="atom-16" d="M 501.7 26.5 Q 501.7 23.4, 503.2 21.7 Q 504.7 20.0, 507.6 20.0 Q 510.4 20.0, 511.9 21.7 Q 513.5 23.4, 513.5 26.5 Q 513.5 29.6, 511.9 31.4 Q 510.4 33.2, 507.6 33.2 Q 504.7 33.2, 503.2 31.4 Q 501.7 29.7, 501.7 26.5 M 507.6 31.7 Q 509.5 31.7, 510.6 30.4 Q 511.7 29.1, 511.7 26.5 Q 511.7 24.0, 510.6 22.7 Q 509.5 21.5, 507.6 21.5 Q 505.6 21.5, 504.5 22.7 Q 503.5 24.0, 503.5 26.5 Q 503.5 29.1, 504.5 30.4 Q 505.6 31.7, 507.6 31.7 " fill="#FF0000"/>
<path class="atom-17" d="M 478.6 114.2 Q 478.6 111.1, 480.1 109.4 Q 481.6 107.7, 484.5 107.7 Q 487.3 107.7, 488.8 109.4 Q 490.4 111.1, 490.4 114.2 Q 490.4 117.3, 488.8 119.1 Q 487.3 120.8, 484.5 120.8 Q 481.6 120.8, 480.1 119.1 Q 478.6 117.3, 478.6 114.2 M 484.5 119.4 Q 486.4 119.4, 487.5 118.1 Q 488.5 116.8, 488.5 114.2 Q 488.5 111.7, 487.5 110.4 Q 486.4 109.1, 484.5 109.1 Q 482.5 109.1, 481.4 110.4 Q 480.4 111.6, 480.4 114.2 Q 480.4 116.8, 481.4 118.1 Q 482.5 119.4, 484.5 119.4 " fill="#FF0000"/>
<path class="atom-19" d="M 426.8 168.4 L 428.6 166.5 L 426.1 166.0 L 426.5 164.7 L 428.8 165.9 L 428.5 163.4 L 429.9 163.3 L 429.5 165.9 L 431.8 164.8 L 432.2 166.0 L 429.7 166.5 L 431.5 168.4 L 430.4 169.2 L 429.1 166.8 L 427.9 169.2 L 426.8 168.4 " fill="#191919"/>
<path class="atom-21" d="M 490.7 227.3 L 494.9 234.1 Q 495.3 234.8, 496.0 236.0 Q 496.7 237.2, 496.7 237.3 L 496.7 227.3 L 498.4 227.3 L 498.4 240.1 L 496.6 240.1 L 492.1 232.7 Q 491.6 231.8, 491.0 230.8 Q 490.5 229.8, 490.3 229.5 L 490.3 240.1 L 488.7 240.1 L 488.7 227.3 L 490.7 227.3 " fill="#0000FF"/>
<path class="atom-21" d="M 500.8 227.3 L 502.6 227.3 L 502.6 232.8 L 509.2 232.8 L 509.2 227.3 L 510.9 227.3 L 510.9 240.1 L 509.2 240.1 L 509.2 234.2 L 502.6 234.2 L 502.6 240.1 L 500.8 240.1 L 500.8 227.3 " fill="#0000FF"/>
<path class="atom-21" d="M 513.4 239.7 Q 513.7 238.9, 514.5 238.4 Q 515.2 238.0, 516.2 238.0 Q 517.5 238.0, 518.2 238.7 Q 518.9 239.4, 518.9 240.6 Q 518.9 241.9, 518.0 243.0 Q 517.1 244.2, 515.2 245.6 L 519.1 245.6 L 519.1 246.6 L 513.4 246.6 L 513.4 245.8 Q 515.0 244.6, 515.9 243.8 Q 516.8 243.0, 517.3 242.2 Q 517.7 241.4, 517.7 240.7 Q 517.7 239.9, 517.3 239.4 Q 516.9 238.9, 516.2 238.9 Q 515.5 238.9, 515.1 239.2 Q 514.6 239.5, 514.3 240.1 L 513.4 239.7 " fill="#0000FF"/>
<path class="atom-23" d="M 575.1 209.9 Q 575.1 206.9, 576.6 205.1 Q 578.1 203.4, 581.0 203.4 Q 583.8 203.4, 585.4 205.1 Q 586.9 206.9, 586.9 209.9 Q 586.9 213.1, 585.3 214.8 Q 583.8 216.6, 581.0 216.6 Q 578.2 216.6, 576.6 214.8 Q 575.1 213.1, 575.1 209.9 M 581.0 215.1 Q 583.0 215.1, 584.0 213.8 Q 585.1 212.5, 585.1 209.9 Q 585.1 207.4, 584.0 206.2 Q 583.0 204.9, 581.0 204.9 Q 579.0 204.9, 578.0 206.1 Q 576.9 207.4, 576.9 209.9 Q 576.9 212.5, 578.0 213.8 Q 579.0 215.1, 581.0 215.1 " fill="#FF0000"/>
<path class="atom-23" d="M 588.9 203.6 L 590.6 203.6 L 590.6 209.0 L 597.2 209.0 L 597.2 203.6 L 598.9 203.6 L 598.9 216.4 L 597.2 216.4 L 597.2 210.5 L 590.6 210.5 L 590.6 216.4 L 588.9 216.4 L 588.9 203.6 " fill="#FF0000"/>
<path class="atom-25" d="M 674.1 92.0 L 675.9 92.0 L 675.9 97.5 L 682.4 97.5 L 682.4 92.0 L 684.2 92.0 L 684.2 104.9 L 682.4 104.9 L 682.4 98.9 L 675.9 98.9 L 675.9 104.9 L 674.1 104.9 L 674.1 92.0 " fill="#0000FF"/>
<path class="atom-25" d="M 688.7 92.0 L 692.9 98.8 Q 693.4 99.5, 694.0 100.7 Q 694.7 101.9, 694.7 102.0 L 694.7 92.0 L 696.4 92.0 L 696.4 104.9 L 694.7 104.9 L 690.2 97.4 Q 689.6 96.6, 689.1 95.6 Q 688.5 94.6, 688.4 94.3 L 688.4 104.9 L 686.7 104.9 L 686.7 92.0 L 688.7 92.0 " fill="#0000FF"/>
<path class="atom-28" d="M 761.6 118.5 Q 761.6 115.4, 763.1 113.7 Q 764.6 112.0, 767.5 112.0 Q 770.3 112.0, 771.9 113.7 Q 773.4 115.4, 773.4 118.5 Q 773.4 121.6, 771.8 123.4 Q 770.3 125.1, 767.5 125.1 Q 764.7 125.1, 763.1 123.4 Q 761.6 121.6, 761.6 118.5 M 767.5 123.7 Q 769.4 123.7, 770.5 122.4 Q 771.6 121.1, 771.6 118.5 Q 771.6 116.0, 770.5 114.7 Q 769.4 113.4, 767.5 113.4 Q 765.5 113.4, 764.5 114.7 Q 763.4 116.0, 763.4 118.5 Q 763.4 121.1, 764.5 122.4 Q 765.5 123.7, 767.5 123.7 " fill="#FF0000"/>
<path class="atom-30" d="M 750.0 162.3 Q 750.0 159.2, 751.6 157.5 Q 753.1 155.8, 755.9 155.8 Q 758.8 155.8, 760.3 157.5 Q 761.8 159.2, 761.8 162.3 Q 761.8 165.4, 760.3 167.2 Q 758.7 169.0, 755.9 169.0 Q 753.1 169.0, 751.6 167.2 Q 750.0 165.5, 750.0 162.3 M 755.9 167.5 Q 757.9 167.5, 758.9 166.2 Q 760.0 164.9, 760.0 162.3 Q 760.0 159.8, 758.9 158.5 Q 757.9 157.2, 755.9 157.2 Q 754.0 157.2, 752.9 158.5 Q 751.8 159.8, 751.8 162.3 Q 751.8 164.9, 752.9 166.2 Q 754.0 167.5, 755.9 167.5 " fill="#FF0000"/>
<path class="atom-30" d="M 763.8 155.9 L 765.6 155.9 L 765.6 161.4 L 772.1 161.4 L 772.1 155.9 L 773.9 155.9 L 773.9 168.8 L 772.1 168.8 L 772.1 162.8 L 765.6 162.8 L 765.6 168.8 L 763.8 168.8 L 763.8 155.9 " fill="#FF0000"/>
<path class="bond-0 atom-0 atom-1" d="M 381.7,557.8 L 394.0,569.5" style="fill:none;fill-rule:evenodd;stroke:#191919;stroke-width:2.0px;stroke-linecap:butt;stroke-linejoin:miter;stroke-opacity:1"/>
<path class="bond-0 atom-0 atom-1" d="M 394.0,569.5 L 406.2,581.2" style="fill:none;fill-rule:evenodd;stroke:#FF0000;stroke-width:2.0px;stroke-linecap:butt;stroke-linejoin:miter;stroke-opacity:1"/>
<path class="bond-1 atom-1 atom-2" d="M 421.0,586.0 L 439.1,580.7" style="fill:none;fill-rule:evenodd;stroke:#FF0000;stroke-width:2.0px;stroke-linecap:butt;stroke-linejoin:miter;stroke-opacity:1"/>
<path class="bond-1 atom-1 atom-2" d="M 439.1,580.7 L 457.1,575.5" style="fill:none;fill-rule:evenodd;stroke:#000000;stroke-width:2.0px;stroke-linecap:butt;stroke-linejoin:miter;stroke-opacity:1"/>
<path class="bond-2 atom-2 atom-3" d="M 457.1,575.5 L 489.9,606.8" style="fill:none;fill-rule:evenodd;stroke:#000000;stroke-width:2.0px;stroke-linecap:butt;stroke-linejoin:miter;stroke-opacity:1"/>
<path class="bond-3 atom-3 atom-4" d="M 489.9,606.8 L 533.4,594.0" style="fill:none;fill-rule:evenodd;stroke:#000000;stroke-width:2.0px;stroke-linecap:butt;stroke-linejoin:miter;stroke-opacity:1"/>
<path class="bond-4 atom-4 atom-5" d="M 533.4,594.0 L 566.2,625.3" style="fill:none;fill-rule:evenodd;stroke:#000000;stroke-width:2.0px;stroke-linecap:butt;stroke-linejoin:miter;stroke-opacity:1"/>
<path class="bond-5 atom-5 atom-6" d="M 566.2,625.3 L 584.3,620.0" style="fill:none;fill-rule:evenodd;stroke:#000000;stroke-width:2.0px;stroke-linecap:butt;stroke-linejoin:miter;stroke-opacity:1"/>
<path class="bond-5 atom-5 atom-6" d="M 584.3,620.0 L 602.3,614.7" style="fill:none;fill-rule:evenodd;stroke:#FF0000;stroke-width:2.0px;stroke-linecap:butt;stroke-linejoin:miter;stroke-opacity:1"/>
<path class="bond-6 atom-6 atom-7" d="M 617.1,619.6 L 629.8,631.7" style="fill:none;fill-rule:evenodd;stroke:#FF0000;stroke-width:2.0px;stroke-linecap:butt;stroke-linejoin:miter;stroke-opacity:1"/>
<path class="bond-6 atom-6 atom-7" d="M 629.8,631.7 L 642.5,643.8" style="fill:none;fill-rule:evenodd;stroke:#000000;stroke-width:2.0px;stroke-linecap:butt;stroke-linejoin:miter;stroke-opacity:1"/>
<path class="bond-7 atom-7 atom-8" d="M 639.6,641.1 L 635.0,660.1" style="fill:none;fill-rule:evenodd;stroke:#000000;stroke-width:2.0px;stroke-linecap:butt;stroke-linejoin:miter;stroke-opacity:1"/>
<path class="bond-7 atom-7 atom-8" d="M 635.0,660.1 L 630.4,679.1" style="fill:none;fill-rule:evenodd;stroke:#FF0000;stroke-width:2.0px;stroke-linecap:butt;stroke-linejoin:miter;stroke-opacity:1"/>
<path class="bond-7 atom-7 atom-8" d="M 646.3,642.7 L 641.6,661.7" style="fill:none;fill-rule:evenodd;stroke:#000000;stroke-width:2.0px;stroke-linecap:butt;stroke-linejoin:miter;stroke-opacity:1"/>
<path class="bond-7 atom-7 atom-8" d="M 641.6,661.7 L 637.0,680.7" style="fill:none;fill-rule:evenodd;stroke:#FF0000;stroke-width:2.0px;stroke-linecap:butt;stroke-linejoin:miter;stroke-opacity:1"/>
<path class="bond-8 atom-7 atom-9" d="M 642.5,643.8 L 686.0,631.1" style="fill:none;fill-rule:evenodd;stroke:#000000;stroke-width:2.0px;stroke-linecap:butt;stroke-linejoin:miter;stroke-opacity:1"/>
<path class="bond-9 atom-9 atom-10" d="M 686.0,631.1 L 721.9,658.8" style="fill:none;fill-rule:evenodd;stroke:#000000;stroke-width:2.0px;stroke-linecap:butt;stroke-linejoin:miter;stroke-opacity:1"/>
<path class="bond-9 atom-9 atom-10" d="M 694.0,628.7 L 722.1,650.4" style="fill:none;fill-rule:evenodd;stroke:#000000;stroke-width:2.0px;stroke-linecap:butt;stroke-linejoin:miter;stroke-opacity:1"/>
<path class="bond-10 atom-10 atom-11" d="M 721.9,658.8 L 759.3,633.2" style="fill:none;fill-rule:evenodd;stroke:#000000;stroke-width:2.0px;stroke-linecap:butt;stroke-linejoin:miter;stroke-opacity:1"/>
<path class="bond-11 atom-11 atom-12" d="M 759.3,633.2 L 746.5,589.7" style="fill:none;fill-rule:evenodd;stroke:#000000;stroke-width:2.0px;stroke-linecap:butt;stroke-linejoin:miter;stroke-opacity:1"/>
<path class="bond-11 atom-11 atom-12" d="M 751.4,630.4 L 741.4,596.4" style="fill:none;fill-rule:evenodd;stroke:#000000;stroke-width:2.0px;stroke-linecap:butt;stroke-linejoin:miter;stroke-opacity:1"/>
<path class="bond-12 atom-12 atom-13" d="M 746.5,589.7 L 774.2,553.8" style="fill:none;fill-rule:evenodd;stroke:#000000;stroke-width:2.0px;stroke-linecap:butt;stroke-linejoin:miter;stroke-opacity:1"/>
<path class="bond-13 atom-13 atom-14" d="M 774.2,553.8 L 794.4,556.6" style="fill:none;fill-rule:evenodd;stroke:#000000;stroke-width:2.0px;stroke-linecap:butt;stroke-linejoin:miter;stroke-opacity:1"/>
<path class="bond-13 atom-13 atom-14" d="M 794.4,556.6 L 814.6,559.3" style="fill:none;fill-rule:evenodd;stroke:#191919;stroke-width:2.0px;stroke-linecap:butt;stroke-linejoin:miter;stroke-opacity:1"/>
<path class="bond-14 atom-13 atom-15" d="M 778.1,554.4 L 770.8,536.6" style="fill:none;fill-rule:evenodd;stroke:#000000;stroke-width:2.0px;stroke-linecap:butt;stroke-linejoin:miter;stroke-opacity:1"/>
<path class="bond-14 atom-13 atom-15" d="M 770.8,536.6 L 763.5,518.8" style="fill:none;fill-rule:evenodd;stroke:#FF0000;stroke-width:2.0px;stroke-linecap:butt;stroke-linejoin:miter;stroke-opacity:1"/>
<path class="bond-14 atom-13 atom-15" d="M 771.8,557.0 L 764.5,539.2" style="fill:none;fill-rule:evenodd;stroke:#000000;stroke-width:2.0px;stroke-linecap:butt;stroke-linejoin:miter;stroke-opacity:1"/>
<path class="bond-14 atom-13 atom-15" d="M 764.5,539.2 L 757.2,521.4" style="fill:none;fill-rule:evenodd;stroke:#FF0000;stroke-width:2.0px;stroke-linecap:butt;stroke-linejoin:miter;stroke-opacity:1"/>
<path class="bond-15 atom-12 atom-16" d="M 746.5,589.7 L 727.6,589.2" style="fill:none;fill-rule:evenodd;stroke:#000000;stroke-width:2.0px;stroke-linecap:butt;stroke-linejoin:miter;stroke-opacity:1"/>
<path class="bond-15 atom-12 atom-16" d="M 727.6,589.2 L 708.6,588.6" style="fill:none;fill-rule:evenodd;stroke:#FF0000;stroke-width:2.0px;stroke-linecap:butt;stroke-linejoin:miter;stroke-opacity:1"/>
<path class="bond-16 atom-16 atom-9" d="M 698.3,596.6 L 692.1,613.8" style="fill:none;fill-rule:evenodd;stroke:#FF0000;stroke-width:2.0px;stroke-linecap:butt;stroke-linejoin:miter;stroke-opacity:1"/>
<path class="bond-16 atom-16 atom-9" d="M 692.1,613.8 L 686.0,631.1" style="fill:none;fill-rule:evenodd;stroke:#000000;stroke-width:2.0px;stroke-linecap:butt;stroke-linejoin:miter;stroke-opacity:1"/>
<path d="M 456.2,575.7 L 457.1,575.5 L 458.8,577.0" style="fill:none;stroke:#000000;stroke-width:2.0px;stroke-linecap:butt;stroke-linejoin:miter;stroke-opacity:1;"/>
<path d="M 488.3,605.2 L 489.9,606.8 L 492.1,606.1" style="fill:none;stroke:#000000;stroke-width:2.0px;stroke-linecap:butt;stroke-linejoin:miter;stroke-opacity:1;"/>
<path d="M 531.2,594.6 L 533.4,594.0 L 535.1,595.6" style="fill:none;stroke:#000000;stroke-width:2.0px;stroke-linecap:butt;stroke-linejoin:miter;stroke-opacity:1;"/>
<path d="M 564.6,623.7 L 566.2,625.3 L 567.1,625.0" style="fill:none;stroke:#000000;stroke-width:2.0px;stroke-linecap:butt;stroke-linejoin:miter;stroke-opacity:1;"/>
<path d="M 641.9,643.2 L 642.5,643.8 L 644.7,643.2" style="fill:none;stroke:#000000;stroke-width:2.0px;stroke-linecap:butt;stroke-linejoin:miter;stroke-opacity:1;"/>
<path d="M 720.1,657.4 L 721.9,658.8 L 723.7,657.5" style="fill:none;stroke:#000000;stroke-width:2.0px;stroke-linecap:butt;stroke-linejoin:miter;stroke-opacity:1;"/>
<path d="M 757.4,634.5 L 759.3,633.2 L 758.6,631.0" style="fill:none;stroke:#000000;stroke-width:2.0px;stroke-linecap:butt;stroke-linejoin:miter;stroke-opacity:1;"/>
<path d="M 772.8,555.6 L 774.2,553.8 L 775.2,554.0" style="fill:none;stroke:#000000;stroke-width:2.0px;stroke-linecap:butt;stroke-linejoin:miter;stroke-opacity:1;"/>
<path class="atom-0" d="M 378.4 555.5 L 380.3 553.6 L 377.8 553.1 L 378.2 551.8 L 380.5 552.9 L 380.2 550.4 L 381.5 550.4 L 381.1 552.9 L 383.5 551.8 L 383.9 553.1 L 381.3 553.5 L 383.2 555.5 L 382.1 556.3 L 380.8 553.9 L 379.5 556.3 L 378.4 555.5 " fill="#191919"/>
<path class="atom-1" d="M 407.7 588.2 Q 407.7 585.2, 409.3 583.4 Q 410.8 581.7, 413.6 581.7 Q 416.5 581.7, 418.0 583.4 Q 419.5 585.2, 419.5 588.2 Q 419.5 591.4, 418.0 593.1 Q 416.4 594.9, 413.6 594.9 Q 410.8 594.9, 409.3 593.1 Q 407.7 591.4, 407.7 588.2 M 413.6 593.4 Q 415.6 593.4, 416.6 592.1 Q 417.7 590.8, 417.7 588.2 Q 417.7 585.7, 416.6 584.5 Q 415.6 583.2, 413.6 583.2 Q 411.7 583.2, 410.6 584.4 Q 409.6 585.7, 409.6 588.2 Q 409.6 590.8, 410.6 592.1 Q 411.7 593.4, 413.6 593.4 " fill="#FF0000"/>
<path class="atom-6" d="M 603.8 612.6 Q 603.8 609.5, 605.3 607.8 Q 606.9 606.1, 609.7 606.1 Q 612.5 606.1, 614.1 607.8 Q 615.6 609.5, 615.6 612.6 Q 615.6 615.7, 614.0 617.5 Q 612.5 619.2, 609.7 619.2 Q 606.9 619.2, 605.3 617.5 Q 603.8 615.7, 603.8 612.6 M 609.7 617.8 Q 611.7 617.8, 612.7 616.5 Q 613.8 615.2, 613.8 612.6 Q 613.8 610.1, 612.7 608.8 Q 611.7 607.5, 609.7 607.5 Q 607.7 607.5, 606.7 608.8 Q 605.6 610.0, 605.6 612.6 Q 605.6 615.2, 606.7 616.5 Q 607.7 617.8, 609.7 617.8 " fill="#FF0000"/>
<path class="atom-8" d="M 625.9 687.9 Q 625.9 684.8, 627.4 683.1 Q 628.9 681.4, 631.8 681.4 Q 634.6 681.4, 636.1 683.1 Q 637.7 684.8, 637.7 687.9 Q 637.7 691.0, 636.1 692.8 Q 634.6 694.6, 631.8 694.6 Q 629.0 694.6, 627.4 692.8 Q 625.9 691.1, 625.9 687.9 M 631.8 693.1 Q 633.7 693.1, 634.8 691.8 Q 635.9 690.5, 635.9 687.9 Q 635.9 685.4, 634.8 684.1 Q 633.7 682.8, 631.8 682.8 Q 629.8 682.8, 628.8 684.1 Q 627.7 685.4, 627.7 687.9 Q 627.7 690.5, 628.8 691.8 Q 629.8 693.1, 631.8 693.1 " fill="#FF0000"/>
<path class="atom-14" d="M 816.7 558.5 L 818.6 556.5 L 816.1 556.0 L 816.5 554.7 L 818.8 555.9 L 818.5 553.4 L 819.8 553.4 L 819.5 555.9 L 821.8 554.8 L 822.2 556.0 L 819.7 556.5 L 821.5 558.4 L 820.4 559.2 L 819.1 556.8 L 817.8 559.2 L 816.7 558.5 " fill="#191919"/>
<path class="atom-15" d="M 751.1 512.0 Q 751.1 508.9, 752.6 507.2 Q 754.2 505.4, 757.0 505.4 Q 759.9 505.4, 761.4 507.2 Q 762.9 508.9, 762.9 512.0 Q 762.9 515.1, 761.4 516.9 Q 759.8 518.6, 757.0 518.6 Q 754.2 518.6, 752.6 516.9 Q 751.1 515.1, 751.1 512.0 M 757.0 517.2 Q 759.0 517.2, 760.0 515.9 Q 761.1 514.5, 761.1 512.0 Q 761.1 509.4, 760.0 508.2 Q 759.0 506.9, 757.0 506.9 Q 755.0 506.9, 754.0 508.1 Q 752.9 509.4, 752.9 512.0 Q 752.9 514.5, 754.0 515.9 Q 755.0 517.2, 757.0 517.2 " fill="#FF0000"/>
<path class="atom-16" d="M 695.3 588.4 Q 695.3 585.4, 696.9 583.6 Q 698.4 581.9, 701.2 581.9 Q 704.1 581.9, 705.6 583.6 Q 707.1 585.4, 707.1 588.4 Q 707.1 591.6, 705.6 593.3 Q 704.0 595.1, 701.2 595.1 Q 698.4 595.1, 696.9 593.3 Q 695.3 591.6, 695.3 588.4 M 701.2 593.6 Q 703.2 593.6, 704.2 592.3 Q 705.3 591.0, 705.3 588.4 Q 705.3 585.9, 704.2 584.7 Q 703.2 583.4, 701.2 583.4 Q 699.3 583.4, 698.2 584.6 Q 697.2 585.9, 697.2 588.4 Q 697.2 591.0, 698.2 592.3 Q 699.3 593.6, 701.2 593.6 " fill="#FF0000"/>
<path class="bond-0 atom-0 atom-1" d="M 853.5,981.7 L 838.5,990.8" style="fill:none;fill-rule:evenodd;stroke:#191919;stroke-width:2.0px;stroke-linecap:butt;stroke-linejoin:miter;stroke-opacity:1"/>
<path class="bond-0 atom-0 atom-1" d="M 838.5,990.8 L 823.5,999.8" style="fill:none;fill-rule:evenodd;stroke:#FF0000;stroke-width:2.0px;stroke-linecap:butt;stroke-linejoin:miter;stroke-opacity:1"/>
<path class="bond-1 atom-1 atom-2" d="M 808.7,1000.2 L 792.5,991.4" style="fill:none;fill-rule:evenodd;stroke:#FF0000;stroke-width:2.0px;stroke-linecap:butt;stroke-linejoin:miter;stroke-opacity:1"/>
<path class="bond-1 atom-1 atom-2" d="M 792.5,991.4 L 776.4,982.5" style="fill:none;fill-rule:evenodd;stroke:#000000;stroke-width:2.0px;stroke-linecap:butt;stroke-linejoin:miter;stroke-opacity:1"/>
<path class="bond-2 atom-2 atom-3" d="M 776.4,982.5 L 737.6,1005.9" style="fill:none;fill-rule:evenodd;stroke:#000000;stroke-width:2.0px;stroke-linecap:butt;stroke-linejoin:miter;stroke-opacity:1"/>
<path class="bond-3 atom-3 atom-4" d="M 737.6,1005.9 L 697.9,984.1" style="fill:none;fill-rule:evenodd;stroke:#000000;stroke-width:2.0px;stroke-linecap:butt;stroke-linejoin:miter;stroke-opacity:1"/>
<path class="bond-4 atom-4 atom-5" d="M 697.9,984.1 L 659.1,1007.6" style="fill:none;fill-rule:evenodd;stroke:#000000;stroke-width:2.0px;stroke-linecap:butt;stroke-linejoin:miter;stroke-opacity:1"/>
<path class="bond-5 atom-5 atom-6" d="M 659.1,1007.6 L 642.9,998.7" style="fill:none;fill-rule:evenodd;stroke:#000000;stroke-width:2.0px;stroke-linecap:butt;stroke-linejoin:miter;stroke-opacity:1"/>
<path class="bond-5 atom-5 atom-6" d="M 642.9,998.7 L 626.8,989.8" style="fill:none;fill-rule:evenodd;stroke:#FF0000;stroke-width:2.0px;stroke-linecap:butt;stroke-linejoin:miter;stroke-opacity:1"/>
<path class="bond-6 atom-6 atom-7" d="M 612.0,990.2 L 596.3,999.7" style="fill:none;fill-rule:evenodd;stroke:#FF0000;stroke-width:2.0px;stroke-linecap:butt;stroke-linejoin:miter;stroke-opacity:1"/>
<path class="bond-6 atom-6 atom-7" d="M 596.3,999.7 L 580.6,1009.2" style="fill:none;fill-rule:evenodd;stroke:#000000;stroke-width:2.0px;stroke-linecap:butt;stroke-linejoin:miter;stroke-opacity:1"/>
<path class="bond-7 atom-7 atom-8" d="M 577.2,1007.3 L 577.6,1026.9" style="fill:none;fill-rule:evenodd;stroke:#000000;stroke-width:2.0px;stroke-linecap:butt;stroke-linejoin:miter;stroke-opacity:1"/>
<path class="bond-7 atom-7 atom-8" d="M 577.6,1026.9 L 578.0,1046.6" style="fill:none;fill-rule:evenodd;stroke:#FF0000;stroke-width:2.0px;stroke-linecap:butt;stroke-linejoin:miter;stroke-opacity:1"/>
<path class="bond-7 atom-7 atom-8" d="M 584.0,1007.2 L 584.4,1026.8" style="fill:none;fill-rule:evenodd;stroke:#000000;stroke-width:2.0px;stroke-linecap:butt;stroke-linejoin:miter;stroke-opacity:1"/>
<path class="bond-7 atom-7 atom-8" d="M 584.4,1026.8 L 584.8,1046.5" style="fill:none;fill-rule:evenodd;stroke:#FF0000;stroke-width:2.0px;stroke-linecap:butt;stroke-linejoin:miter;stroke-opacity:1"/>
<path class="bond-8 atom-7 atom-9" d="M 580.6,1009.2 L 540.9,987.4" style="fill:none;fill-rule:evenodd;stroke:#000000;stroke-width:2.0px;stroke-linecap:butt;stroke-linejoin:miter;stroke-opacity:1"/>
<path class="bond-9 atom-9 atom-10" d="M 540.9,987.4 L 502.1,1010.8" style="fill:none;fill-rule:evenodd;stroke:#000000;stroke-width:2.0px;stroke-linecap:butt;stroke-linejoin:miter;stroke-opacity:1"/>
<path class="bond-10 atom-10 atom-11" d="M 502.1,1010.8 L 462.4,989.0" style="fill:none;fill-rule:evenodd;stroke:#000000;stroke-width:2.0px;stroke-linecap:butt;stroke-linejoin:miter;stroke-opacity:1"/>
<path class="bond-11 atom-11 atom-12" d="M 462.4,989.0 L 423.6,1012.4" style="fill:none;fill-rule:evenodd;stroke:#000000;stroke-width:2.0px;stroke-linecap:butt;stroke-linejoin:miter;stroke-opacity:1"/>
<path class="bond-12 atom-12 atom-13" d="M 423.6,1012.4 L 383.9,990.6" style="fill:none;fill-rule:evenodd;stroke:#000000;stroke-width:2.0px;stroke-linecap:butt;stroke-linejoin:miter;stroke-opacity:1"/>
<path class="bond-13 atom-13 atom-14" d="M 383.9,990.6 L 366.8,1001.0" style="fill:none;fill-rule:evenodd;stroke:#000000;stroke-width:2.0px;stroke-linecap:butt;stroke-linejoin:miter;stroke-opacity:1"/>
<path class="bond-13 atom-13 atom-14" d="M 366.8,1001.0 L 349.7,1011.3" style="fill:none;fill-rule:evenodd;stroke:#191919;stroke-width:2.0px;stroke-linecap:butt;stroke-linejoin:miter;stroke-opacity:1"/>
<path class="bond-14 atom-13 atom-15" d="M 387.4,992.5 L 387.0,973.0" style="fill:none;fill-rule:evenodd;stroke:#000000;stroke-width:2.0px;stroke-linecap:butt;stroke-linejoin:miter;stroke-opacity:1"/>
<path class="bond-14 atom-13 atom-15" d="M 387.0,973.0 L 386.6,953.4" style="fill:none;fill-rule:evenodd;stroke:#FF0000;stroke-width:2.0px;stroke-linecap:butt;stroke-linejoin:miter;stroke-opacity:1"/>
<path class="bond-14 atom-13 atom-15" d="M 380.6,992.6 L 380.2,973.1" style="fill:none;fill-rule:evenodd;stroke:#000000;stroke-width:2.0px;stroke-linecap:butt;stroke-linejoin:miter;stroke-opacity:1"/>
<path class="bond-14 atom-13 atom-15" d="M 380.2,973.1 L 379.8,953.5" style="fill:none;fill-rule:evenodd;stroke:#FF0000;stroke-width:2.0px;stroke-linecap:butt;stroke-linejoin:miter;stroke-opacity:1"/>
<path d="M 777.2,982.9 L 776.4,982.5 L 774.4,983.6" style="fill:none;stroke:#000000;stroke-width:2.0px;stroke-linecap:butt;stroke-linejoin:miter;stroke-opacity:1;"/>
<path d="M 739.5,1004.8 L 737.6,1005.9 L 735.6,1004.8" style="fill:none;stroke:#000000;stroke-width:2.0px;stroke-linecap:butt;stroke-linejoin:miter;stroke-opacity:1;"/>
<path d="M 699.9,985.2 L 697.9,984.1 L 695.9,985.3" style="fill:none;stroke:#000000;stroke-width:2.0px;stroke-linecap:butt;stroke-linejoin:miter;stroke-opacity:1;"/>
<path d="M 661.0,1006.4 L 659.1,1007.6 L 658.3,1007.1" style="fill:none;stroke:#000000;stroke-width:2.0px;stroke-linecap:butt;stroke-linejoin:miter;stroke-opacity:1;"/>
<path d="M 581.4,1008.7 L 580.6,1009.2 L 578.6,1008.1" style="fill:none;stroke:#000000;stroke-width:2.0px;stroke-linecap:butt;stroke-linejoin:miter;stroke-opacity:1;"/>
<path d="M 542.9,988.4 L 540.9,987.4 L 539.0,988.5" style="fill:none;stroke:#000000;stroke-width:2.0px;stroke-linecap:butt;stroke-linejoin:miter;stroke-opacity:1;"/>
<path d="M 504.1,1009.6 L 502.1,1010.8 L 500.1,1009.7" style="fill:none;stroke:#000000;stroke-width:2.0px;stroke-linecap:butt;stroke-linejoin:miter;stroke-opacity:1;"/>
<path d="M 464.4,990.1 L 462.4,989.0 L 460.5,990.2" style="fill:none;stroke:#000000;stroke-width:2.0px;stroke-linecap:butt;stroke-linejoin:miter;stroke-opacity:1;"/>
<path d="M 425.6,1011.3 L 423.6,1012.4 L 421.7,1011.4" style="fill:none;stroke:#000000;stroke-width:2.0px;stroke-linecap:butt;stroke-linejoin:miter;stroke-opacity:1;"/>
<path d="M 385.9,991.7 L 383.9,990.6 L 383.1,991.1" style="fill:none;stroke:#000000;stroke-width:2.0px;stroke-linecap:butt;stroke-linejoin:miter;stroke-opacity:1;"/>
<path class="atom-0" d="M 852.4 979.4 L 854.3 977.5 L 851.8 977.0 L 852.2 975.7 L 854.5 976.9 L 854.2 974.3 L 855.5 974.3 L 855.2 976.8 L 857.5 975.7 L 857.9 977.0 L 855.3 977.4 L 857.2 979.4 L 856.1 980.2 L 854.8 977.8 L 853.5 980.2 L 852.4 979.4 " fill="#191919"/>
<path class="atom-1" d="M 810.2 1004.3 Q 810.2 1001.3, 811.7 999.5 Q 813.2 997.8, 816.1 997.8 Q 818.9 997.8, 820.4 999.5 Q 822.0 1001.3, 822.0 1004.3 Q 822.0 1007.5, 820.4 1009.2 Q 818.9 1011.0, 816.1 1011.0 Q 813.2 1011.0, 811.7 1009.2 Q 810.2 1007.5, 810.2 1004.3 M 816.1 1009.5 Q 818.0 1009.5, 819.1 1008.2 Q 820.2 1006.9, 820.2 1004.3 Q 820.2 1001.8, 819.1 1000.6 Q 818.0 999.3, 816.1 999.3 Q 814.1 999.3, 813.0 1000.5 Q 812.0 1001.8, 812.0 1004.3 Q 812.0 1006.9, 813.0 1008.2 Q 814.1 1009.5, 816.1 1009.5 " fill="#FF0000"/>
<path class="atom-6" d="M 613.5 985.8 Q 613.5 982.7, 615.0 981.0 Q 616.5 979.2, 619.4 979.2 Q 622.2 979.2, 623.8 981.0 Q 625.3 982.7, 625.3 985.8 Q 625.3 988.9, 623.7 990.7 Q 622.2 992.4, 619.4 992.4 Q 616.6 992.4, 615.0 990.7 Q 613.5 988.9, 613.5 985.8 M 619.4 991.0 Q 621.3 991.0, 622.4 989.7 Q 623.5 988.3, 623.5 985.8 Q 623.5 983.2, 622.4 982.0 Q 621.3 980.7, 619.4 980.7 Q 617.4 980.7, 616.4 982.0 Q 615.3 983.2, 615.3 985.8 Q 615.3 988.4, 616.4 989.7 Q 617.4 991.0, 619.4 991.0 " fill="#FF0000"/>
<path class="atom-8" d="M 575.7 1054.5 Q 575.7 1051.5, 577.2 1049.7 Q 578.7 1048.0, 581.6 1048.0 Q 584.4 1048.0, 585.9 1049.7 Q 587.4 1051.5, 587.4 1054.5 Q 587.4 1057.7, 585.9 1059.4 Q 584.4 1061.2, 581.6 1061.2 Q 578.7 1061.2, 577.2 1059.4 Q 575.7 1057.7, 575.7 1054.5 M 581.6 1059.7 Q 583.5 1059.7, 584.6 1058.4 Q 585.6 1057.1, 585.6 1054.5 Q 585.6 1052.0, 584.6 1050.8 Q 583.5 1049.5, 581.6 1049.5 Q 579.6 1049.5, 578.5 1050.7 Q 577.5 1052.0, 577.5 1054.5 Q 577.5 1057.1, 578.5 1058.4 Q 579.6 1059.7, 581.6 1059.7 " fill="#FF0000"/>
<path class="atom-14" d="M 342.7 1012.6 L 344.6 1010.7 L 342.1 1010.2 L 342.5 1008.9 L 344.8 1010.1 L 344.5 1007.6 L 345.8 1007.6 L 345.4 1010.1 L 347.8 1009.0 L 348.2 1010.2 L 345.6 1010.7 L 347.5 1012.6 L 346.4 1013.4 L 345.1 1011.0 L 343.8 1013.4 L 342.7 1012.6 " fill="#191919"/>
<path class="atom-15" d="M 377.1 945.3 Q 377.1 942.2, 378.6 940.5 Q 380.1 938.8, 383.0 938.8 Q 385.8 938.8, 387.4 940.5 Q 388.9 942.2, 388.9 945.3 Q 388.9 948.4, 387.3 950.2 Q 385.8 952.0, 383.0 952.0 Q 380.2 952.0, 378.6 950.2 Q 377.1 948.5, 377.1 945.3 M 383.0 950.5 Q 384.9 950.5, 386.0 949.2 Q 387.1 947.9, 387.1 945.3 Q 387.1 942.8, 386.0 941.5 Q 384.9 940.3, 383.0 940.3 Q 381.0 940.3, 380.0 941.5 Q 378.9 942.8, 378.9 945.3 Q 378.9 947.9, 380.0 949.2 Q 381.0 950.5, 383.0 950.5 " fill="#FF0000"/>
</svg>