<svg xmlns="http://www.w3.org/2000/svg" xmlns:rdkit="http://www.rdkit.org/xml" xmlns:xlink="http://www.w3.org/1999/xlink" version="1.1" baseProfile="full" xml:space="preserve" width="1200px" height="800px" viewBox="0 0 1200 800">
<!-- END OF HEADER -->
<rect style="opacity:1.0;fill:#FFFFFF;stroke:none" width="1200.0" height="800.0" x="0.0" y="0.0"> </rect>
<path class="bond-0 atom-0 atom-1" d="M 197.4,154.6 L 257.4,131.1" style="fill:none;fill-rule:evenodd;stroke:#191919;stroke-width:2.0px;stroke-linecap:butt;stroke-linejoin:miter;stroke-opacity:1"/>
<path class="bond-0 atom-0 atom-1" d="M 257.4,131.1 L 317.4,107.6" style="fill:none;fill-rule:evenodd;stroke:#FF0000;stroke-width:2.0px;stroke-linecap:butt;stroke-linejoin:miter;stroke-opacity:1"/>
<path class="bond-1 atom-1 atom-2" d="M 354.0,115.0 L 407.9,158.1" style="fill:none;fill-rule:evenodd;stroke:#FF0000;stroke-width:2.0px;stroke-linecap:butt;stroke-linejoin:miter;stroke-opacity:1"/>
<path class="bond-1 atom-1 atom-2" d="M 407.9,158.1 L 461.8,201.1" style="fill:none;fill-rule:evenodd;stroke:#000000;stroke-width:2.0px;stroke-linecap:butt;stroke-linejoin:miter;stroke-opacity:1"/>
<path class="bond-2 atom-2 atom-3" d="M 450.9,192.4 L 439.8,265.8" style="fill:none;fill-rule:evenodd;stroke:#000000;stroke-width:2.0px;stroke-linecap:butt;stroke-linejoin:miter;stroke-opacity:1"/>
<path class="bond-2 atom-2 atom-3" d="M 439.8,265.8 L 428.6,339.2" style="fill:none;fill-rule:evenodd;stroke:#FF0000;stroke-width:2.0px;stroke-linecap:butt;stroke-linejoin:miter;stroke-opacity:1"/>
<path class="bond-2 atom-2 atom-3" d="M 474.8,196.0 L 463.7,269.5" style="fill:none;fill-rule:evenodd;stroke:#000000;stroke-width:2.0px;stroke-linecap:butt;stroke-linejoin:miter;stroke-opacity:1"/>
<path class="bond-2 atom-2 atom-3" d="M 463.7,269.5 L 452.6,342.9" style="fill:none;fill-rule:evenodd;stroke:#FF0000;stroke-width:2.0px;stroke-linecap:butt;stroke-linejoin:miter;stroke-opacity:1"/>
<path class="bond-3 atom-2 atom-4" d="M 461.8,201.1 L 612.1,142.3" style="fill:none;fill-rule:evenodd;stroke:#000000;stroke-width:2.0px;stroke-linecap:butt;stroke-linejoin:miter;stroke-opacity:1"/>
<path class="bond-4 atom-4 atom-5" d="M 612.1,142.3 L 738.2,243.0" style="fill:none;fill-rule:evenodd;stroke:#000000;stroke-width:2.0px;stroke-linecap:butt;stroke-linejoin:miter;stroke-opacity:1"/>
<path class="bond-5 atom-5 atom-6" d="M 738.2,243.0 L 888.5,184.1" style="fill:none;fill-rule:evenodd;stroke:#000000;stroke-width:2.0px;stroke-linecap:butt;stroke-linejoin:miter;stroke-opacity:1"/>
<path class="bond-5 atom-5 atom-6" d="M 742.4,215.3 L 866.6,166.7" style="fill:none;fill-rule:evenodd;stroke:#000000;stroke-width:2.0px;stroke-linecap:butt;stroke-linejoin:miter;stroke-opacity:1"/>
<path class="bond-6 atom-6 atom-7" d="M 888.5,184.1 L 945.5,229.7" style="fill:none;fill-rule:evenodd;stroke:#000000;stroke-width:2.0px;stroke-linecap:butt;stroke-linejoin:miter;stroke-opacity:1"/>
<path class="bond-6 atom-6 atom-7" d="M 945.5,229.7 L 1002.6,275.2" style="fill:none;fill-rule:evenodd;stroke:#191919;stroke-width:2.0px;stroke-linecap:butt;stroke-linejoin:miter;stroke-opacity:1"/>
<path class="bond-7 atom-6 atom-8" d="M 888.5,184.1 L 912.7,24.5" style="fill:none;fill-rule:evenodd;stroke:#000000;stroke-width:2.0px;stroke-linecap:butt;stroke-linejoin:miter;stroke-opacity:1"/>
<path d="M 459.1,199.0 L 461.8,201.1 L 469.3,198.2" style="fill:none;stroke:#000000;stroke-width:2.0px;stroke-linecap:butt;stroke-linejoin:miter;stroke-opacity:1;"/>
<path d="M 604.6,145.2 L 612.1,142.3 L 618.4,147.3" style="fill:none;stroke:#000000;stroke-width:2.0px;stroke-linecap:butt;stroke-linejoin:miter;stroke-opacity:1;"/>
<path d="M 731.9,237.9 L 738.2,243.0 L 745.7,240.0" style="fill:none;stroke:#000000;stroke-width:2.0px;stroke-linecap:butt;stroke-linejoin:miter;stroke-opacity:1;"/>
<path class="atom-0" d="M 180.1 156.1 L 184.2 151.9 L 178.7 150.8 L 179.5 147.9 L 184.6 150.5 L 183.9 144.9 L 186.9 144.9 L 186.1 150.4 L 191.2 148.0 L 192.1 150.8 L 186.5 151.8 L 190.5 156.1 L 188.1 157.8 L 185.3 152.6 L 182.5 157.8 L 180.1 156.1 " fill="#191919"/>
<path class="atom-1" d="M 322.7 100.5 Q 322.7 93.7, 326.0 89.9 Q 329.4 86.1, 335.7 86.1 Q 342.0 86.1, 345.3 89.9 Q 348.7 93.7, 348.7 100.5 Q 348.7 107.4, 345.3 111.3 Q 341.9 115.2, 335.7 115.2 Q 329.4 115.2, 326.0 111.3 Q 322.7 107.4, 322.7 100.5 M 335.7 112.0 Q 340.0 112.0, 342.3 109.1 Q 344.7 106.2, 344.7 100.5 Q 344.7 94.9, 342.3 92.1 Q 340.0 89.3, 335.7 89.3 Q 331.4 89.3, 329.0 92.1 Q 326.7 94.9, 326.7 100.5 Q 326.7 106.2, 329.0 109.1 Q 331.4 112.0, 335.7 112.0 " fill="#FF0000"/>
<path class="atom-3" d="M 424.6 360.8 Q 424.6 354.0, 428.0 350.2 Q 431.4 346.4, 437.6 346.4 Q 443.9 346.4, 447.3 350.2 Q 450.6 354.0, 450.6 360.8 Q 450.6 367.7, 447.2 371.6 Q 443.8 375.5, 437.6 375.5 Q 431.4 375.5, 428.0 371.6 Q 424.6 367.7, 424.6 360.8 M 437.6 372.3 Q 442.0 372.3, 444.3 369.4 Q 446.6 366.5, 446.6 360.8 Q 446.6 355.2, 444.3 352.4 Q 442.0 349.6, 437.6 349.6 Q 433.3 349.6, 431.0 352.4 Q 428.6 355.2, 428.6 360.8 Q 428.6 366.5, 431.0 369.4 Q 433.3 372.3, 437.6 372.3 " fill="#FF0000"/>
<path class="atom-7" d="M 1009.3 281.7 L 1013.4 277.4 L 1007.9 276.3 L 1008.7 273.5 L 1013.8 276.0 L 1013.1 270.5 L 1016.1 270.4 L 1015.3 276.0 L 1020.4 273.6 L 1021.3 276.3 L 1015.7 277.4 L 1019.7 281.6 L 1017.3 283.4 L 1014.5 278.1 L 1011.7 283.4 L 1009.3 281.7 " fill="#191919"/>
<path class="bond-0 atom-0 atom-1" d="M 953.8,514.2 L 879.9,504.2" style="fill:none;fill-rule:evenodd;stroke:#191919;stroke-width:2.0px;stroke-linecap:butt;stroke-linejoin:miter;stroke-opacity:1"/>
<path class="bond-0 atom-0 atom-1" d="M 879.9,504.2 L 805.9,494.3" style="fill:none;fill-rule:evenodd;stroke:#000000;stroke-width:2.0px;stroke-linecap:butt;stroke-linejoin:miter;stroke-opacity:1"/>
<path class="bond-1 atom-1 atom-2" d="M 805.9,494.3 L 707.3,622.2" style="fill:none;fill-rule:evenodd;stroke:#000000;stroke-width:2.0px;stroke-linecap:butt;stroke-linejoin:miter;stroke-opacity:1"/>
<path class="bond-2 atom-2 atom-3" d="M 707.3,622.2 L 734.0,686.9" style="fill:none;fill-rule:evenodd;stroke:#000000;stroke-width:2.0px;stroke-linecap:butt;stroke-linejoin:miter;stroke-opacity:1"/>
<path class="bond-2 atom-2 atom-3" d="M 734.0,686.9 L 760.7,751.7" style="fill:none;fill-rule:evenodd;stroke:#191919;stroke-width:2.0px;stroke-linecap:butt;stroke-linejoin:miter;stroke-opacity:1"/>
<path class="bond-3 atom-2 atom-4" d="M 707.3,622.2 L 547.4,600.7" style="fill:none;fill-rule:evenodd;stroke:#000000;stroke-width:2.0px;stroke-linecap:butt;stroke-linejoin:miter;stroke-opacity:1"/>
<path class="bond-4 atom-4 atom-5" d="M 547.4,600.7 L 448.8,728.5" style="fill:none;fill-rule:evenodd;stroke:#000000;stroke-width:2.0px;stroke-linecap:butt;stroke-linejoin:miter;stroke-opacity:1"/>
<path class="bond-4 atom-4 atom-5" d="M 519.7,597.0 L 438.2,702.7" style="fill:none;fill-rule:evenodd;stroke:#000000;stroke-width:2.0px;stroke-linecap:butt;stroke-linejoin:miter;stroke-opacity:1"/>
<path class="bond-5 atom-5 atom-6" d="M 448.8,728.5 L 288.9,707.1" style="fill:none;fill-rule:evenodd;stroke:#000000;stroke-width:2.0px;stroke-linecap:butt;stroke-linejoin:miter;stroke-opacity:1"/>
<path class="bond-6 atom-6 atom-7" d="M 288.9,707.1 L 227.4,557.8" style="fill:none;fill-rule:evenodd;stroke:#000000;stroke-width:2.0px;stroke-linecap:butt;stroke-linejoin:miter;stroke-opacity:1"/>
<path class="bond-6 atom-6 atom-7" d="M 305.9,685.0 L 255.1,561.6" style="fill:none;fill-rule:evenodd;stroke:#000000;stroke-width:2.0px;stroke-linecap:butt;stroke-linejoin:miter;stroke-opacity:1"/>
<path class="bond-7 atom-7 atom-8" d="M 227.4,557.8 L 326.0,430.0" style="fill:none;fill-rule:evenodd;stroke:#000000;stroke-width:2.0px;stroke-linecap:butt;stroke-linejoin:miter;stroke-opacity:1"/>
<path class="bond-8 atom-8 atom-9" d="M 326.0,430.0 L 486.0,451.5" style="fill:none;fill-rule:evenodd;stroke:#000000;stroke-width:2.0px;stroke-linecap:butt;stroke-linejoin:miter;stroke-opacity:1"/>
<path class="bond-8 atom-8 atom-9" d="M 336.6,455.9 L 468.9,473.6" style="fill:none;fill-rule:evenodd;stroke:#000000;stroke-width:2.0px;stroke-linecap:butt;stroke-linejoin:miter;stroke-opacity:1"/>
<path class="bond-9 atom-9 atom-4" d="M 486.0,451.5 L 547.4,600.7" style="fill:none;fill-rule:evenodd;stroke:#000000;stroke-width:2.0px;stroke-linecap:butt;stroke-linejoin:miter;stroke-opacity:1"/>
<path d="M 809.6,494.8 L 805.9,494.3 L 801.0,500.7" style="fill:none;stroke:#000000;stroke-width:2.0px;stroke-linecap:butt;stroke-linejoin:miter;stroke-opacity:1;"/>
<path d="M 453.8,722.2 L 448.8,728.5 L 440.8,727.5" style="fill:none;stroke:#000000;stroke-width:2.0px;stroke-linecap:butt;stroke-linejoin:miter;stroke-opacity:1;"/>
<path d="M 296.9,708.2 L 288.9,707.1 L 285.8,699.6" style="fill:none;stroke:#000000;stroke-width:2.0px;stroke-linecap:butt;stroke-linejoin:miter;stroke-opacity:1;"/>
<path d="M 230.5,565.3 L 227.4,557.8 L 232.4,551.5" style="fill:none;stroke:#000000;stroke-width:2.0px;stroke-linecap:butt;stroke-linejoin:miter;stroke-opacity:1;"/>
<path d="M 321.1,436.4 L 326.0,430.0 L 334.0,431.1" style="fill:none;stroke:#000000;stroke-width:2.0px;stroke-linecap:butt;stroke-linejoin:miter;stroke-opacity:1;"/>
<path d="M 478.0,450.4 L 486.0,451.5 L 489.0,458.9" style="fill:none;stroke:#000000;stroke-width:2.0px;stroke-linecap:butt;stroke-linejoin:miter;stroke-opacity:1;"/>
<path class="atom-0" d="M 960.5 512.6 L 964.7 508.4 L 959.2 507.2 L 960.0 504.4 L 965.1 507.0 L 964.4 501.4 L 967.4 501.4 L 966.5 506.9 L 971.7 504.5 L 972.6 507.2 L 967.0 508.3 L 971.0 512.6 L 968.5 514.3 L 965.8 509.0 L 963.0 514.3 L 960.5 512.6 " fill="#191919"/>
<path class="atom-3" d="M 763.4 768.3 L 767.6 764.0 L 762.1 762.9 L 762.9 760.1 L 768.0 762.6 L 767.3 757.1 L 770.3 757.0 L 769.4 762.6 L 774.6 760.2 L 775.5 762.9 L 769.9 763.9 L 773.9 768.2 L 771.4 770.0 L 768.7 764.7 L 765.9 770.0 L 763.4 768.3 " fill="#191919"/>
</svg>