<svg xmlns="http://www.w3.org/2000/svg" xmlns:rdkit="http://www.rdkit.org/xml" xmlns:xlink="http://www.w3.org/1999/xlink" version="1.1" baseProfile="full" xml:space="preserve" width="1200px" height="800px" viewBox="0 0 1200 800">
<!-- END OF HEADER -->
<rect style="opacity:1.0;fill:#FFFFFF;stroke:none" width="1200.0" height="800.0" x="0.0" y="0.0"> </rect>
<path class="bond-0 atom-0 atom-1" d="M 68.3,200.1 L 83.8,192.1" style="fill:none;fill-rule:evenodd;stroke:#191919;stroke-width:2.0px;stroke-linecap:butt;stroke-linejoin:miter;stroke-opacity:1"/>
<path class="bond-0 atom-0 atom-1" d="M 83.8,192.1 L 99.3,184.1" style="fill:none;fill-rule:evenodd;stroke:#FF0000;stroke-width:2.0px;stroke-linecap:butt;stroke-linejoin:miter;stroke-opacity:1"/>
<path class="bond-1 atom-1 atom-2" d="M 115.4,185.2 L 132.1,196.0" style="fill:none;fill-rule:evenodd;stroke:#FF0000;stroke-width:2.0px;stroke-linecap:butt;stroke-linejoin:miter;stroke-opacity:1"/>
<path class="bond-1 atom-1 atom-2" d="M 132.1,196.0 L 148.9,206.8" style="fill:none;fill-rule:evenodd;stroke:#000000;stroke-width:2.0px;stroke-linecap:butt;stroke-linejoin:miter;stroke-opacity:1"/>
<path class="bond-2 atom-2 atom-3" d="M 148.9,206.8 L 192.9,184.3" style="fill:none;fill-rule:evenodd;stroke:#000000;stroke-width:2.0px;stroke-linecap:butt;stroke-linejoin:miter;stroke-opacity:1"/>
<path class="bond-3 atom-3 atom-4" d="M 192.9,184.3 L 234.5,211.1" style="fill:none;fill-rule:evenodd;stroke:#000000;stroke-width:2.0px;stroke-linecap:butt;stroke-linejoin:miter;stroke-opacity:1"/>
<path class="bond-4 atom-4 atom-5" d="M 234.5,211.1 L 278.5,188.5" style="fill:none;fill-rule:evenodd;stroke:#000000;stroke-width:2.0px;stroke-linecap:butt;stroke-linejoin:miter;stroke-opacity:1"/>
<path class="bond-5 atom-5 atom-6" d="M 278.5,188.5 L 295.2,199.3" style="fill:none;fill-rule:evenodd;stroke:#000000;stroke-width:2.0px;stroke-linecap:butt;stroke-linejoin:miter;stroke-opacity:1"/>
<path class="bond-5 atom-5 atom-6" d="M 295.2,199.3 L 312.0,210.1" style="fill:none;fill-rule:evenodd;stroke:#FF0000;stroke-width:2.0px;stroke-linecap:butt;stroke-linejoin:miter;stroke-opacity:1"/>
<path class="bond-6 atom-6 atom-7" d="M 328.1,211.2 L 346.1,202.0" style="fill:none;fill-rule:evenodd;stroke:#FF0000;stroke-width:2.0px;stroke-linecap:butt;stroke-linejoin:miter;stroke-opacity:1"/>
<path class="bond-6 atom-6 atom-7" d="M 346.1,202.0 L 364.1,192.7" style="fill:none;fill-rule:evenodd;stroke:#000000;stroke-width:2.0px;stroke-linecap:butt;stroke-linejoin:miter;stroke-opacity:1"/>
<path class="bond-7 atom-7 atom-8" d="M 367.7,195.1 L 368.7,173.8" style="fill:none;fill-rule:evenodd;stroke:#000000;stroke-width:2.0px;stroke-linecap:butt;stroke-linejoin:miter;stroke-opacity:1"/>
<path class="bond-7 atom-7 atom-8" d="M 368.7,173.8 L 369.8,152.5" style="fill:none;fill-rule:evenodd;stroke:#FF0000;stroke-width:2.0px;stroke-linecap:butt;stroke-linejoin:miter;stroke-opacity:1"/>
<path class="bond-7 atom-7 atom-8" d="M 360.2,194.7 L 361.3,173.4" style="fill:none;fill-rule:evenodd;stroke:#000000;stroke-width:2.0px;stroke-linecap:butt;stroke-linejoin:miter;stroke-opacity:1"/>
<path class="bond-7 atom-7 atom-8" d="M 361.3,173.4 L 362.4,152.1" style="fill:none;fill-rule:evenodd;stroke:#FF0000;stroke-width:2.0px;stroke-linecap:butt;stroke-linejoin:miter;stroke-opacity:1"/>
<path class="bond-8 atom-7 atom-9" d="M 364.1,192.7 L 405.6,219.6" style="fill:none;fill-rule:evenodd;stroke:#000000;stroke-width:2.0px;stroke-linecap:butt;stroke-linejoin:miter;stroke-opacity:1"/>
<path class="bond-9 atom-9 atom-10" d="M 405.6,219.6 L 449.6,197.0" style="fill:none;fill-rule:evenodd;stroke:#000000;stroke-width:2.0px;stroke-linecap:butt;stroke-linejoin:miter;stroke-opacity:1"/>
<path class="bond-10 atom-10 atom-11" d="M 449.6,197.0 L 491.2,223.8" style="fill:none;fill-rule:evenodd;stroke:#000000;stroke-width:2.0px;stroke-linecap:butt;stroke-linejoin:miter;stroke-opacity:1"/>
<path class="bond-11 atom-11 atom-12" d="M 491.2,223.8 L 535.2,201.2" style="fill:none;fill-rule:evenodd;stroke:#000000;stroke-width:2.0px;stroke-linecap:butt;stroke-linejoin:miter;stroke-opacity:1"/>
<path class="bond-12 atom-12 atom-13" d="M 535.2,201.2 L 576.8,228.1" style="fill:none;fill-rule:evenodd;stroke:#000000;stroke-width:2.0px;stroke-linecap:butt;stroke-linejoin:miter;stroke-opacity:1"/>
<path class="bond-13 atom-13 atom-14" d="M 576.8,228.1 L 620.8,205.5" style="fill:none;fill-rule:evenodd;stroke:#000000;stroke-width:2.0px;stroke-linecap:butt;stroke-linejoin:miter;stroke-opacity:1"/>
<path class="bond-14 atom-14 atom-15" d="M 624.4,207.8 L 625.4,186.5" style="fill:none;fill-rule:evenodd;stroke:#000000;stroke-width:2.0px;stroke-linecap:butt;stroke-linejoin:miter;stroke-opacity:1"/>
<path class="bond-14 atom-14 atom-15" d="M 625.4,186.5 L 626.5,165.2" style="fill:none;fill-rule:evenodd;stroke:#FF0000;stroke-width:2.0px;stroke-linecap:butt;stroke-linejoin:miter;stroke-opacity:1"/>
<path class="bond-14 atom-14 atom-15" d="M 617.0,207.4 L 618.0,186.1" style="fill:none;fill-rule:evenodd;stroke:#000000;stroke-width:2.0px;stroke-linecap:butt;stroke-linejoin:miter;stroke-opacity:1"/>
<path class="bond-14 atom-14 atom-15" d="M 618.0,186.1 L 619.1,164.8" style="fill:none;fill-rule:evenodd;stroke:#FF0000;stroke-width:2.0px;stroke-linecap:butt;stroke-linejoin:miter;stroke-opacity:1"/>
<path class="bond-15 atom-14 atom-16" d="M 620.8,205.5 L 637.5,216.3" style="fill:none;fill-rule:evenodd;stroke:#000000;stroke-width:2.0px;stroke-linecap:butt;stroke-linejoin:miter;stroke-opacity:1"/>
<path class="bond-15 atom-14 atom-16" d="M 637.5,216.3 L 654.3,227.1" style="fill:none;fill-rule:evenodd;stroke:#FF0000;stroke-width:2.0px;stroke-linecap:butt;stroke-linejoin:miter;stroke-opacity:1"/>
<path class="bond-16 atom-16 atom-17" d="M 670.4,228.2 L 688.4,219.0" style="fill:none;fill-rule:evenodd;stroke:#FF0000;stroke-width:2.0px;stroke-linecap:butt;stroke-linejoin:miter;stroke-opacity:1"/>
<path class="bond-16 atom-16 atom-17" d="M 688.4,219.0 L 706.4,209.7" style="fill:none;fill-rule:evenodd;stroke:#000000;stroke-width:2.0px;stroke-linecap:butt;stroke-linejoin:miter;stroke-opacity:1"/>
<path class="bond-17 atom-17 atom-18" d="M 706.4,209.7 L 747.9,236.6" style="fill:none;fill-rule:evenodd;stroke:#000000;stroke-width:2.0px;stroke-linecap:butt;stroke-linejoin:miter;stroke-opacity:1"/>
<path class="bond-18 atom-18 atom-19" d="M 747.9,236.6 L 791.9,214.0" style="fill:none;fill-rule:evenodd;stroke:#000000;stroke-width:2.0px;stroke-linecap:butt;stroke-linejoin:miter;stroke-opacity:1"/>
<path class="bond-19 atom-19 atom-20" d="M 791.9,214.0 L 833.5,240.8" style="fill:none;fill-rule:evenodd;stroke:#000000;stroke-width:2.0px;stroke-linecap:butt;stroke-linejoin:miter;stroke-opacity:1"/>
<path class="bond-20 atom-20 atom-21" d="M 833.5,240.8 L 851.5,231.6" style="fill:none;fill-rule:evenodd;stroke:#000000;stroke-width:2.0px;stroke-linecap:butt;stroke-linejoin:miter;stroke-opacity:1"/>
<path class="bond-20 atom-20 atom-21" d="M 851.5,231.6 L 869.4,222.4" style="fill:none;fill-rule:evenodd;stroke:#FF0000;stroke-width:2.0px;stroke-linecap:butt;stroke-linejoin:miter;stroke-opacity:1"/>
<path class="bond-21 atom-21 atom-22" d="M 885.6,223.4 L 902.3,234.2" style="fill:none;fill-rule:evenodd;stroke:#FF0000;stroke-width:2.0px;stroke-linecap:butt;stroke-linejoin:miter;stroke-opacity:1"/>
<path class="bond-21 atom-21 atom-22" d="M 902.3,234.2 L 919.1,245.1" style="fill:none;fill-rule:evenodd;stroke:#000000;stroke-width:2.0px;stroke-linecap:butt;stroke-linejoin:miter;stroke-opacity:1"/>
<path class="bond-22 atom-22 atom-23" d="M 915.5,242.7 L 914.4,264.1" style="fill:none;fill-rule:evenodd;stroke:#000000;stroke-width:2.0px;stroke-linecap:butt;stroke-linejoin:miter;stroke-opacity:1"/>
<path class="bond-22 atom-22 atom-23" d="M 914.4,264.1 L 913.3,285.6" style="fill:none;fill-rule:evenodd;stroke:#FF0000;stroke-width:2.0px;stroke-linecap:butt;stroke-linejoin:miter;stroke-opacity:1"/>
<path class="bond-22 atom-22 atom-23" d="M 922.9,243.1 L 921.8,264.5" style="fill:none;fill-rule:evenodd;stroke:#000000;stroke-width:2.0px;stroke-linecap:butt;stroke-linejoin:miter;stroke-opacity:1"/>
<path class="bond-22 atom-22 atom-23" d="M 921.8,264.5 L 920.8,285.9" style="fill:none;fill-rule:evenodd;stroke:#FF0000;stroke-width:2.0px;stroke-linecap:butt;stroke-linejoin:miter;stroke-opacity:1"/>
<path class="bond-23 atom-22 atom-24" d="M 919.1,245.1 L 963.1,222.5" style="fill:none;fill-rule:evenodd;stroke:#000000;stroke-width:2.0px;stroke-linecap:butt;stroke-linejoin:miter;stroke-opacity:1"/>
<path class="bond-24 atom-24 atom-25" d="M 963.1,222.5 L 965.5,173.1" style="fill:none;fill-rule:evenodd;stroke:#000000;stroke-width:2.0px;stroke-linecap:butt;stroke-linejoin:miter;stroke-opacity:1"/>
<path class="bond-24 atom-24 atom-25" d="M 970.7,218.6 L 972.7,177.7" style="fill:none;fill-rule:evenodd;stroke:#000000;stroke-width:2.0px;stroke-linecap:butt;stroke-linejoin:miter;stroke-opacity:1"/>
<path class="bond-25 atom-25 atom-26" d="M 965.5,173.1 L 1009.5,150.5" style="fill:none;fill-rule:evenodd;stroke:#000000;stroke-width:2.0px;stroke-linecap:butt;stroke-linejoin:miter;stroke-opacity:1"/>
<path class="bond-26 atom-26 atom-27" d="M 1009.5,150.5 L 1051.1,177.3" style="fill:none;fill-rule:evenodd;stroke:#000000;stroke-width:2.0px;stroke-linecap:butt;stroke-linejoin:miter;stroke-opacity:1"/>
<path class="bond-26 atom-26 atom-27" d="M 1009.1,159.0 L 1043.5,181.2" style="fill:none;fill-rule:evenodd;stroke:#000000;stroke-width:2.0px;stroke-linecap:butt;stroke-linejoin:miter;stroke-opacity:1"/>
<path class="bond-27 atom-27 atom-28" d="M 1051.1,177.3 L 1095.1,154.7" style="fill:none;fill-rule:evenodd;stroke:#000000;stroke-width:2.0px;stroke-linecap:butt;stroke-linejoin:miter;stroke-opacity:1"/>
<path class="bond-28 atom-28 atom-29" d="M 1095.1,154.7 L 1113.4,166.5" style="fill:none;fill-rule:evenodd;stroke:#000000;stroke-width:2.0px;stroke-linecap:butt;stroke-linejoin:miter;stroke-opacity:1"/>
<path class="bond-28 atom-28 atom-29" d="M 1113.4,166.5 L 1131.7,178.4" style="fill:none;fill-rule:evenodd;stroke:#191919;stroke-width:2.0px;stroke-linecap:butt;stroke-linejoin:miter;stroke-opacity:1"/>
<path class="bond-29 atom-28 atom-30" d="M 1098.7,157.1 L 1099.8,135.7" style="fill:none;fill-rule:evenodd;stroke:#000000;stroke-width:2.0px;stroke-linecap:butt;stroke-linejoin:miter;stroke-opacity:1"/>
<path class="bond-29 atom-28 atom-30" d="M 1099.8,135.7 L 1100.8,114.4" style="fill:none;fill-rule:evenodd;stroke:#FF0000;stroke-width:2.0px;stroke-linecap:butt;stroke-linejoin:miter;stroke-opacity:1"/>
<path class="bond-29 atom-28 atom-30" d="M 1091.3,156.7 L 1092.4,135.4" style="fill:none;fill-rule:evenodd;stroke:#000000;stroke-width:2.0px;stroke-linecap:butt;stroke-linejoin:miter;stroke-opacity:1"/>
<path class="bond-29 atom-28 atom-30" d="M 1092.4,135.4 L 1093.4,114.1" style="fill:none;fill-rule:evenodd;stroke:#FF0000;stroke-width:2.0px;stroke-linecap:butt;stroke-linejoin:miter;stroke-opacity:1"/>
<path class="bond-30 atom-27 atom-31" d="M 1051.1,177.3 L 1048.7,226.7" style="fill:none;fill-rule:evenodd;stroke:#000000;stroke-width:2.0px;stroke-linecap:butt;stroke-linejoin:miter;stroke-opacity:1"/>
<path class="bond-31 atom-31 atom-32" d="M 1048.7,226.7 L 1004.6,249.3" style="fill:none;fill-rule:evenodd;stroke:#000000;stroke-width:2.0px;stroke-linecap:butt;stroke-linejoin:miter;stroke-opacity:1"/>
<path class="bond-31 atom-31 atom-32" d="M 1041.5,222.1 L 1005.1,240.7" style="fill:none;fill-rule:evenodd;stroke:#000000;stroke-width:2.0px;stroke-linecap:butt;stroke-linejoin:miter;stroke-opacity:1"/>
<path class="bond-32 atom-32 atom-24" d="M 1004.6,249.3 L 963.1,222.5" style="fill:none;fill-rule:evenodd;stroke:#000000;stroke-width:2.0px;stroke-linecap:butt;stroke-linejoin:miter;stroke-opacity:1"/>
<path d="M 148.1,206.3 L 148.9,206.8 L 151.1,205.7" style="fill:none;stroke:#000000;stroke-width:2.0px;stroke-linecap:butt;stroke-linejoin:miter;stroke-opacity:1;"/>
<path d="M 190.7,185.4 L 192.9,184.3 L 195.0,185.6" style="fill:none;stroke:#000000;stroke-width:2.0px;stroke-linecap:butt;stroke-linejoin:miter;stroke-opacity:1;"/>
<path d="M 232.4,209.7 L 234.5,211.1 L 236.7,210.0" style="fill:none;stroke:#000000;stroke-width:2.0px;stroke-linecap:butt;stroke-linejoin:miter;stroke-opacity:1;"/>
<path d="M 276.3,189.6 L 278.5,188.5 L 279.3,189.0" style="fill:none;stroke:#000000;stroke-width:2.0px;stroke-linecap:butt;stroke-linejoin:miter;stroke-opacity:1;"/>
<path d="M 363.2,193.2 L 364.1,192.7 L 366.1,194.1" style="fill:none;stroke:#000000;stroke-width:2.0px;stroke-linecap:butt;stroke-linejoin:miter;stroke-opacity:1;"/>
<path d="M 403.5,218.2 L 405.6,219.6 L 407.8,218.4" style="fill:none;stroke:#000000;stroke-width:2.0px;stroke-linecap:butt;stroke-linejoin:miter;stroke-opacity:1;"/>
<path d="M 447.4,198.1 L 449.6,197.0 L 451.7,198.3" style="fill:none;stroke:#000000;stroke-width:2.0px;stroke-linecap:butt;stroke-linejoin:miter;stroke-opacity:1;"/>
<path d="M 489.1,222.5 L 491.2,223.8 L 493.4,222.7" style="fill:none;stroke:#000000;stroke-width:2.0px;stroke-linecap:butt;stroke-linejoin:miter;stroke-opacity:1;"/>
<path d="M 533.0,202.4 L 535.2,201.2 L 537.3,202.6" style="fill:none;stroke:#000000;stroke-width:2.0px;stroke-linecap:butt;stroke-linejoin:miter;stroke-opacity:1;"/>
<path d="M 574.7,226.7 L 576.8,228.1 L 579.0,226.9" style="fill:none;stroke:#000000;stroke-width:2.0px;stroke-linecap:butt;stroke-linejoin:miter;stroke-opacity:1;"/>
<path d="M 618.6,206.6 L 620.8,205.5 L 621.6,206.0" style="fill:none;stroke:#000000;stroke-width:2.0px;stroke-linecap:butt;stroke-linejoin:miter;stroke-opacity:1;"/>
<path d="M 705.5,210.2 L 706.4,209.7 L 708.4,211.1" style="fill:none;stroke:#000000;stroke-width:2.0px;stroke-linecap:butt;stroke-linejoin:miter;stroke-opacity:1;"/>
<path d="M 745.8,235.2 L 747.9,236.6 L 750.1,235.4" style="fill:none;stroke:#000000;stroke-width:2.0px;stroke-linecap:butt;stroke-linejoin:miter;stroke-opacity:1;"/>
<path d="M 789.7,215.1 L 791.9,214.0 L 794.0,215.3" style="fill:none;stroke:#000000;stroke-width:2.0px;stroke-linecap:butt;stroke-linejoin:miter;stroke-opacity:1;"/>
<path d="M 831.4,239.5 L 833.5,240.8 L 834.4,240.3" style="fill:none;stroke:#000000;stroke-width:2.0px;stroke-linecap:butt;stroke-linejoin:miter;stroke-opacity:1;"/>
<path d="M 918.2,244.5 L 919.1,245.1 L 921.3,243.9" style="fill:none;stroke:#000000;stroke-width:2.0px;stroke-linecap:butt;stroke-linejoin:miter;stroke-opacity:1;"/>
<path d="M 965.4,175.5 L 965.5,173.1 L 967.7,171.9" style="fill:none;stroke:#000000;stroke-width:2.0px;stroke-linecap:butt;stroke-linejoin:miter;stroke-opacity:1;"/>
<path d="M 1007.3,151.6 L 1009.5,150.5 L 1011.6,151.8" style="fill:none;stroke:#000000;stroke-width:2.0px;stroke-linecap:butt;stroke-linejoin:miter;stroke-opacity:1;"/>
<path d="M 1092.9,155.9 L 1095.1,154.7 L 1096.0,155.3" style="fill:none;stroke:#000000;stroke-width:2.0px;stroke-linecap:butt;stroke-linejoin:miter;stroke-opacity:1;"/>
<path d="M 1048.8,224.2 L 1048.7,226.7 L 1046.5,227.8" style="fill:none;stroke:#000000;stroke-width:2.0px;stroke-linecap:butt;stroke-linejoin:miter;stroke-opacity:1;"/>
<path d="M 1006.8,248.2 L 1004.6,249.3 L 1002.6,248.0" style="fill:none;stroke:#000000;stroke-width:2.0px;stroke-linecap:butt;stroke-linejoin:miter;stroke-opacity:1;"/>
<path class="atom-0" d="M 60.7 201.0 L 62.7 198.9 L 60.0 198.4 L 60.4 197.0 L 62.9 198.2 L 62.6 195.5 L 64.1 195.5 L 63.6 198.2 L 66.2 197.0 L 66.6 198.4 L 63.9 198.9 L 65.8 201.0 L 64.6 201.9 L 63.3 199.3 L 61.9 201.9 L 60.7 201.0 " fill="#191919"/>
<path class="atom-1" d="M 100.9 180.0 Q 100.9 176.7, 102.6 174.8 Q 104.2 172.9, 107.3 172.9 Q 110.4 172.9, 112.1 174.8 Q 113.8 176.7, 113.8 180.0 Q 113.8 183.5, 112.1 185.4 Q 110.4 187.3, 107.3 187.3 Q 104.2 187.3, 102.6 185.4 Q 100.9 183.5, 100.9 180.0 M 107.3 185.7 Q 109.5 185.7, 110.6 184.3 Q 111.8 182.9, 111.8 180.0 Q 111.8 177.3, 110.6 175.9 Q 109.5 174.5, 107.3 174.5 Q 105.2 174.5, 104.0 175.9 Q 102.9 177.3, 102.9 180.0 Q 102.9 182.9, 104.0 184.3 Q 105.2 185.7, 107.3 185.7 " fill="#FF0000"/>
<path class="atom-6" d="M 313.6 215.4 Q 313.6 212.0, 315.3 210.1 Q 316.9 208.2, 320.0 208.2 Q 323.1 208.2, 324.8 210.1 Q 326.5 212.0, 326.5 215.4 Q 326.5 218.8, 324.8 220.7 Q 323.1 222.6, 320.0 222.6 Q 317.0 222.6, 315.3 220.7 Q 313.6 218.8, 313.6 215.4 M 320.0 221.0 Q 322.2 221.0, 323.3 219.6 Q 324.5 218.2, 324.5 215.4 Q 324.5 212.6, 323.3 211.2 Q 322.2 209.8, 320.0 209.8 Q 317.9 209.8, 316.7 211.2 Q 315.6 212.6, 315.6 215.4 Q 315.6 218.2, 316.7 219.6 Q 317.9 221.0, 320.0 221.0 " fill="#FF0000"/>
<path class="atom-8" d="M 360.1 143.4 Q 360.1 140.0, 361.7 138.1 Q 363.4 136.3, 366.5 136.3 Q 369.6 136.3, 371.3 138.1 Q 372.9 140.0, 372.9 143.4 Q 372.9 146.8, 371.3 148.7 Q 369.6 150.6, 366.5 150.6 Q 363.4 150.6, 361.7 148.7 Q 360.1 146.8, 360.1 143.4 M 366.5 149.1 Q 368.6 149.1, 369.8 147.6 Q 371.0 146.2, 371.0 143.4 Q 371.0 140.6, 369.8 139.2 Q 368.6 137.8, 366.5 137.8 Q 364.4 137.8, 363.2 139.2 Q 362.1 140.6, 362.1 143.4 Q 362.1 146.2, 363.2 147.6 Q 364.4 149.1, 366.5 149.1 " fill="#FF0000"/>
<path class="atom-15" d="M 616.8 156.1 Q 616.8 152.8, 618.5 150.9 Q 620.1 149.0, 623.2 149.0 Q 626.3 149.0, 628.0 150.9 Q 629.7 152.8, 629.7 156.1 Q 629.7 159.5, 628.0 161.5 Q 626.3 163.4, 623.2 163.4 Q 620.1 163.4, 618.5 161.5 Q 616.8 159.5, 616.8 156.1 M 623.2 161.8 Q 625.4 161.8, 626.5 160.4 Q 627.7 158.9, 627.7 156.1 Q 627.7 153.4, 626.5 152.0 Q 625.4 150.6, 623.2 150.6 Q 621.1 150.6, 619.9 152.0 Q 618.8 153.3, 618.8 156.1 Q 618.8 158.9, 619.9 160.4 Q 621.1 161.8, 623.2 161.8 " fill="#FF0000"/>
<path class="atom-16" d="M 655.9 232.4 Q 655.9 229.0, 657.6 227.1 Q 659.2 225.2, 662.3 225.2 Q 665.4 225.2, 667.1 227.1 Q 668.8 229.0, 668.8 232.4 Q 668.8 235.8, 667.1 237.7 Q 665.4 239.6, 662.3 239.6 Q 659.3 239.6, 657.6 237.7 Q 655.9 235.8, 655.9 232.4 M 662.3 238.0 Q 664.5 238.0, 665.6 236.6 Q 666.8 235.2, 666.8 232.4 Q 666.8 229.6, 665.6 228.2 Q 664.5 226.8, 662.3 226.8 Q 660.2 226.8, 659.0 228.2 Q 657.9 229.6, 657.9 232.4 Q 657.9 235.2, 659.0 236.6 Q 660.2 238.0, 662.3 238.0 " fill="#FF0000"/>
<path class="atom-21" d="M 871.1 218.3 Q 871.1 214.9, 872.7 213.0 Q 874.4 211.1, 877.5 211.1 Q 880.6 211.1, 882.3 213.0 Q 883.9 214.9, 883.9 218.3 Q 883.9 221.7, 882.3 223.6 Q 880.6 225.5, 877.5 225.5 Q 874.4 225.5, 872.7 223.6 Q 871.1 221.7, 871.1 218.3 M 877.5 223.9 Q 879.6 223.9, 880.8 222.5 Q 882.0 221.1, 882.0 218.3 Q 882.0 215.5, 880.8 214.1 Q 879.6 212.7, 877.5 212.7 Q 875.4 212.7, 874.2 214.1 Q 873.1 215.5, 873.1 218.3 Q 873.1 221.1, 874.2 222.5 Q 875.4 223.9, 877.5 223.9 " fill="#FF0000"/>
<path class="atom-23" d="M 910.2 294.5 Q 910.2 291.1, 911.8 289.3 Q 913.5 287.4, 916.6 287.4 Q 919.7 287.4, 921.4 289.3 Q 923.0 291.1, 923.0 294.5 Q 923.0 297.9, 921.4 299.8 Q 919.7 301.8, 916.6 301.8 Q 913.5 301.8, 911.8 299.8 Q 910.2 297.9, 910.2 294.5 M 916.6 300.2 Q 918.8 300.2, 919.9 298.8 Q 921.1 297.3, 921.1 294.5 Q 921.1 291.7, 919.9 290.4 Q 918.8 289.0, 916.6 289.0 Q 914.5 289.0, 913.3 290.3 Q 912.2 291.7, 912.2 294.5 Q 912.2 297.3, 913.3 298.8 Q 914.5 300.2, 916.6 300.2 " fill="#FF0000"/>
<path class="atom-29" d="M 1134.0 180.0 L 1136.1 177.9 L 1133.4 177.3 L 1133.8 175.9 L 1136.3 177.2 L 1135.9 174.5 L 1137.4 174.4 L 1137.0 177.2 L 1139.6 176.0 L 1140.0 177.3 L 1137.2 177.9 L 1139.2 180.0 L 1138.0 180.8 L 1136.6 178.2 L 1135.3 180.8 L 1134.0 180.0 " fill="#191919"/>
<path class="atom-30" d="M 1091.1 105.4 Q 1091.1 102.0, 1092.8 100.1 Q 1094.5 98.2, 1097.6 98.2 Q 1100.7 98.2, 1102.3 100.1 Q 1104.0 102.0, 1104.0 105.4 Q 1104.0 108.8, 1102.3 110.7 Q 1100.6 112.6, 1097.6 112.6 Q 1094.5 112.6, 1092.8 110.7 Q 1091.1 108.8, 1091.1 105.4 M 1097.6 111.0 Q 1099.7 111.0, 1100.9 109.6 Q 1102.0 108.2, 1102.0 105.4 Q 1102.0 102.6, 1100.9 101.2 Q 1099.7 99.8, 1097.6 99.8 Q 1095.4 99.8, 1094.3 101.2 Q 1093.1 102.6, 1093.1 105.4 Q 1093.1 108.2, 1094.3 109.6 Q 1095.4 111.0, 1097.6 111.0 " fill="#FF0000"/>
<path class="bond-0 atom-0 atom-1" d="M 698.7,586.9 L 678.2,578.8" style="fill:none;fill-rule:evenodd;stroke:#191919;stroke-width:2.0px;stroke-linecap:butt;stroke-linejoin:miter;stroke-opacity:1"/>
<path class="bond-0 atom-0 atom-1" d="M 678.2,578.8 L 657.6,570.8" style="fill:none;fill-rule:evenodd;stroke:#000000;stroke-width:2.0px;stroke-linecap:butt;stroke-linejoin:miter;stroke-opacity:1"/>
<path class="bond-1 atom-1 atom-2" d="M 657.6,570.8 L 619.0,601.7" style="fill:none;fill-rule:evenodd;stroke:#000000;stroke-width:2.0px;stroke-linecap:butt;stroke-linejoin:miter;stroke-opacity:1"/>
<path class="bond-1 atom-1 atom-2" d="M 658.9,579.3 L 623.6,607.5" style="fill:none;fill-rule:evenodd;stroke:#000000;stroke-width:2.0px;stroke-linecap:butt;stroke-linejoin:miter;stroke-opacity:1"/>
<path class="bond-2 atom-2 atom-3" d="M 619.0,601.7 L 599.4,594.1" style="fill:none;fill-rule:evenodd;stroke:#000000;stroke-width:2.0px;stroke-linecap:butt;stroke-linejoin:miter;stroke-opacity:1"/>
<path class="bond-2 atom-2 atom-3" d="M 599.4,594.1 L 579.9,586.4" style="fill:none;fill-rule:evenodd;stroke:#0000FF;stroke-width:2.0px;stroke-linecap:butt;stroke-linejoin:miter;stroke-opacity:1"/>
<path class="bond-3 atom-3 atom-4" d="M 570.6,575.1 L 565.5,555.4" style="fill:none;fill-rule:evenodd;stroke:#0000FF;stroke-width:2.0px;stroke-linecap:butt;stroke-linejoin:miter;stroke-opacity:1"/>
<path class="bond-3 atom-3 atom-4" d="M 565.5,555.4 L 560.4,535.8" style="fill:none;fill-rule:evenodd;stroke:#000000;stroke-width:2.0px;stroke-linecap:butt;stroke-linejoin:miter;stroke-opacity:1"/>
<path class="bond-4 atom-4 atom-5" d="M 560.4,535.8 L 511.0,532.9" style="fill:none;fill-rule:evenodd;stroke:#000000;stroke-width:2.0px;stroke-linecap:butt;stroke-linejoin:miter;stroke-opacity:1"/>
<path class="bond-5 atom-5 atom-6" d="M 511.0,532.9 L 493.0,579.0" style="fill:none;fill-rule:evenodd;stroke:#000000;stroke-width:2.0px;stroke-linecap:butt;stroke-linejoin:miter;stroke-opacity:1"/>
<path class="bond-6 atom-6 atom-7" d="M 493.0,579.0 L 531.3,610.4" style="fill:none;fill-rule:evenodd;stroke:#000000;stroke-width:2.0px;stroke-linecap:butt;stroke-linejoin:miter;stroke-opacity:1"/>
<path class="bond-7 atom-7 atom-8" d="M 527.7,607.5 L 526.4,629.1" style="fill:none;fill-rule:evenodd;stroke:#000000;stroke-width:2.0px;stroke-linecap:butt;stroke-linejoin:miter;stroke-opacity:1"/>
<path class="bond-7 atom-7 atom-8" d="M 526.4,629.1 L 525.2,650.8" style="fill:none;fill-rule:evenodd;stroke:#FF0000;stroke-width:2.0px;stroke-linecap:butt;stroke-linejoin:miter;stroke-opacity:1"/>
<path class="bond-7 atom-7 atom-8" d="M 535.1,607.9 L 533.8,629.6" style="fill:none;fill-rule:evenodd;stroke:#000000;stroke-width:2.0px;stroke-linecap:butt;stroke-linejoin:miter;stroke-opacity:1"/>
<path class="bond-7 atom-7 atom-8" d="M 533.8,629.6 L 532.6,651.3" style="fill:none;fill-rule:evenodd;stroke:#FF0000;stroke-width:2.0px;stroke-linecap:butt;stroke-linejoin:miter;stroke-opacity:1"/>
<path class="bond-8 atom-7 atom-3" d="M 531.3,610.4 L 548.6,599.3" style="fill:none;fill-rule:evenodd;stroke:#000000;stroke-width:2.0px;stroke-linecap:butt;stroke-linejoin:miter;stroke-opacity:1"/>
<path class="bond-8 atom-7 atom-3" d="M 548.6,599.3 L 566.0,588.1" style="fill:none;fill-rule:evenodd;stroke:#0000FF;stroke-width:2.0px;stroke-linecap:butt;stroke-linejoin:miter;stroke-opacity:1"/>
<path d="M 658.6,571.2 L 657.6,570.8 L 655.7,572.4" style="fill:none;stroke:#000000;stroke-width:2.0px;stroke-linecap:butt;stroke-linejoin:miter;stroke-opacity:1;"/>
<path d="M 620.9,600.2 L 619.0,601.7 L 618.0,601.3" style="fill:none;stroke:#000000;stroke-width:2.0px;stroke-linecap:butt;stroke-linejoin:miter;stroke-opacity:1;"/>
<path d="M 560.7,536.8 L 560.4,535.8 L 557.9,535.7" style="fill:none;stroke:#000000;stroke-width:2.0px;stroke-linecap:butt;stroke-linejoin:miter;stroke-opacity:1;"/>
<path d="M 513.5,533.1 L 511.0,532.9 L 510.1,535.2" style="fill:none;stroke:#000000;stroke-width:2.0px;stroke-linecap:butt;stroke-linejoin:miter;stroke-opacity:1;"/>
<path d="M 493.9,576.7 L 493.0,579.0 L 494.9,580.6" style="fill:none;stroke:#000000;stroke-width:2.0px;stroke-linecap:butt;stroke-linejoin:miter;stroke-opacity:1;"/>
<path d="M 529.3,608.8 L 531.3,610.4 L 532.1,609.8" style="fill:none;stroke:#000000;stroke-width:2.0px;stroke-linecap:butt;stroke-linejoin:miter;stroke-opacity:1;"/>
<path class="atom-0" d="M 701.0 587.3 L 703.1 585.2 L 700.4 584.6 L 700.8 583.2 L 703.3 584.5 L 702.9 581.7 L 704.4 581.7 L 704.0 584.4 L 706.6 583.3 L 707.0 584.6 L 704.2 585.1 L 706.2 587.2 L 705.0 588.1 L 703.6 585.5 L 702.2 588.1 L 701.0 587.3 " fill="#191919"/>
<path class="atom-3" d="M 569.8 576.7 L 574.4 584.1 Q 574.9 584.8, 575.6 586.2 Q 576.3 587.5, 576.4 587.6 L 576.4 576.7 L 578.2 576.7 L 578.2 590.7 L 576.3 590.7 L 571.4 582.6 Q 570.8 581.6, 570.2 580.5 Q 569.6 579.5, 569.4 579.1 L 569.4 590.7 L 567.6 590.7 L 567.6 576.7 L 569.8 576.7 " fill="#0000FF"/>
<path class="atom-8" d="M 521.9 659.8 Q 521.9 656.4, 523.6 654.6 Q 525.3 652.7, 528.4 652.7 Q 531.5 652.7, 533.1 654.6 Q 534.8 656.4, 534.8 659.8 Q 534.8 663.2, 533.1 665.1 Q 531.4 667.1, 528.4 667.1 Q 525.3 667.1, 523.6 665.1 Q 521.9 663.2, 521.9 659.8 M 528.4 665.5 Q 530.5 665.5, 531.6 664.1 Q 532.8 662.6, 532.8 659.8 Q 532.8 657.0, 531.6 655.7 Q 530.5 654.3, 528.4 654.3 Q 526.2 654.3, 525.1 655.6 Q 523.9 657.0, 523.9 659.8 Q 523.9 662.6, 525.1 664.1 Q 526.2 665.5, 528.4 665.5 " fill="#FF0000"/>
</svg>