<svg xmlns="http://www.w3.org/2000/svg" xmlns:rdkit="http://www.rdkit.org/xml" xmlns:xlink="http://www.w3.org/1999/xlink" version="1.1" baseProfile="full" xml:space="preserve" width="1200px" height="1200px" viewBox="0 0 1200 1200">
<!-- END OF HEADER -->
<rect style="opacity:1.0;fill:#FFFFFF;stroke:none" width="1200.0" height="1200.0" x="0.0" y="0.0"> </rect>
<path class="bond-0 atom-0 atom-1" d="M 873.8,56.2 L 854.4,117.4" style="fill:none;fill-rule:evenodd;stroke:#191919;stroke-width:2.0px;stroke-linecap:butt;stroke-linejoin:miter;stroke-opacity:1"/>
<path class="bond-0 atom-0 atom-1" d="M 854.4,117.4 L 835.0,178.7" style="fill:none;fill-rule:evenodd;stroke:#FF0000;stroke-width:2.0px;stroke-linecap:butt;stroke-linejoin:miter;stroke-opacity:1"/>
<path class="bond-1 atom-1 atom-2" d="M 810.8,202.0 L 745.3,216.4" style="fill:none;fill-rule:evenodd;stroke:#FF0000;stroke-width:2.0px;stroke-linecap:butt;stroke-linejoin:miter;stroke-opacity:1"/>
<path class="bond-1 atom-1 atom-2" d="M 745.3,216.4 L 679.8,230.8" style="fill:none;fill-rule:evenodd;stroke:#000000;stroke-width:2.0px;stroke-linecap:butt;stroke-linejoin:miter;stroke-opacity:1"/>
<path class="bond-2 atom-2 atom-3" d="M 679.8,230.8 L 633.7,376.2" style="fill:none;fill-rule:evenodd;stroke:#000000;stroke-width:2.0px;stroke-linecap:butt;stroke-linejoin:miter;stroke-opacity:1"/>
<path class="bond-3 atom-2 atom-4" d="M 679.8,230.8 L 576.9,118.1" style="fill:none;fill-rule:evenodd;stroke:#000000;stroke-width:2.0px;stroke-linecap:butt;stroke-linejoin:miter;stroke-opacity:1"/>
<path class="bond-4 atom-4 atom-5" d="M 576.9,118.1 L 427.9,150.9" style="fill:none;fill-rule:evenodd;stroke:#000000;stroke-width:2.0px;stroke-linecap:butt;stroke-linejoin:miter;stroke-opacity:1"/>
<path class="bond-5 atom-5 atom-6" d="M 427.9,150.9 L 378.1,96.3" style="fill:none;fill-rule:evenodd;stroke:#000000;stroke-width:2.0px;stroke-linecap:butt;stroke-linejoin:miter;stroke-opacity:1"/>
<path class="bond-5 atom-5 atom-6" d="M 378.1,96.3 L 328.3,41.8" style="fill:none;fill-rule:evenodd;stroke:#191919;stroke-width:2.0px;stroke-linecap:butt;stroke-linejoin:miter;stroke-opacity:1"/>
<path class="bond-6 atom-5 atom-7" d="M 419.0,141.1 L 398.0,207.3" style="fill:none;fill-rule:evenodd;stroke:#000000;stroke-width:2.0px;stroke-linecap:butt;stroke-linejoin:miter;stroke-opacity:1"/>
<path class="bond-6 atom-5 atom-7" d="M 398.0,207.3 L 377.0,273.5" style="fill:none;fill-rule:evenodd;stroke:#FF0000;stroke-width:2.0px;stroke-linecap:butt;stroke-linejoin:miter;stroke-opacity:1"/>
<path class="bond-6 atom-5 atom-7" d="M 440.8,148.0 L 419.8,214.2" style="fill:none;fill-rule:evenodd;stroke:#000000;stroke-width:2.0px;stroke-linecap:butt;stroke-linejoin:miter;stroke-opacity:1"/>
<path class="bond-6 atom-5 atom-7" d="M 419.8,214.2 L 398.8,280.4" style="fill:none;fill-rule:evenodd;stroke:#FF0000;stroke-width:2.0px;stroke-linecap:butt;stroke-linejoin:miter;stroke-opacity:1"/>
<path d="M 582.1,123.7 L 576.9,118.1 L 569.5,119.7" style="fill:none;stroke:#000000;stroke-width:2.0px;stroke-linecap:butt;stroke-linejoin:miter;stroke-opacity:1;"/>
<path d="M 435.4,149.2 L 427.9,150.9 L 425.4,148.1" style="fill:none;stroke:#000000;stroke-width:2.0px;stroke-linecap:butt;stroke-linejoin:miter;stroke-opacity:1;"/>
<path class="atom-0" d="M 869.6 49.4 L 873.8 45.2 L 868.3 44.1 L 869.1 41.2 L 874.2 43.8 L 873.5 38.2 L 876.5 38.2 L 875.6 43.8 L 880.8 41.4 L 881.7 44.1 L 876.1 45.1 L 880.1 49.4 L 877.6 51.2 L 874.9 45.9 L 872.1 51.2 L 869.6 49.4 " fill="#191919"/>
<path class="atom-1" d="M 815.8 198.1 Q 815.8 191.3, 819.2 187.5 Q 822.5 183.7, 828.8 183.7 Q 835.1 183.7, 838.5 187.5 Q 841.8 191.3, 841.8 198.1 Q 841.8 205.0, 838.4 208.9 Q 835.0 212.8, 828.8 212.8 Q 822.6 212.8, 819.2 208.9 Q 815.8 205.0, 815.8 198.1 M 828.8 209.6 Q 833.1 209.6, 835.5 206.7 Q 837.8 203.8, 837.8 198.1 Q 837.8 192.6, 835.5 189.8 Q 833.1 186.9, 828.8 186.9 Q 824.5 186.9, 822.1 189.7 Q 819.8 192.5, 819.8 198.1 Q 819.8 203.8, 822.1 206.7 Q 824.5 209.6, 828.8 209.6 " fill="#FF0000"/>
<path class="atom-6" d="M 319.7 35.0 L 323.9 30.8 L 318.3 29.7 L 319.2 26.8 L 324.3 29.4 L 323.5 23.8 L 326.5 23.8 L 325.7 29.3 L 330.9 26.9 L 331.7 29.7 L 326.1 30.7 L 330.1 35.0 L 327.7 36.7 L 324.9 31.5 L 322.1 36.7 L 319.7 35.0 " fill="#191919"/>
<path class="atom-7" d="M 368.8 296.4 Q 368.8 289.6, 372.1 285.8 Q 375.5 282.0, 381.8 282.0 Q 388.0 282.0, 391.4 285.8 Q 394.8 289.6, 394.8 296.4 Q 394.8 303.2, 391.4 307.2 Q 388.0 311.0, 381.8 311.0 Q 375.5 311.0, 372.1 307.2 Q 368.8 303.3, 368.8 296.4 M 381.8 307.8 Q 386.1 307.8, 388.4 305.0 Q 390.8 302.0, 390.8 296.4 Q 390.8 290.8, 388.4 288.0 Q 386.1 285.2, 381.8 285.2 Q 377.4 285.2, 375.1 288.0 Q 372.8 290.8, 372.8 296.4 Q 372.8 302.1, 375.1 305.0 Q 377.4 307.8, 381.8 307.8 " fill="#FF0000"/>
<path class="bond-0 atom-0 atom-1" d="M 347.5,707.4 L 407.7,672.7" style="fill:none;fill-rule:evenodd;stroke:#191919;stroke-width:2.0px;stroke-linecap:butt;stroke-linejoin:miter;stroke-opacity:1"/>
<path class="bond-0 atom-0 atom-1" d="M 407.7,672.7 L 467.9,637.9" style="fill:none;fill-rule:evenodd;stroke:#000000;stroke-width:2.0px;stroke-linecap:butt;stroke-linejoin:miter;stroke-opacity:1"/>
<path class="bond-1 atom-1 atom-2" d="M 479.3,644.5 L 479.3,574.8" style="fill:none;fill-rule:evenodd;stroke:#000000;stroke-width:2.0px;stroke-linecap:butt;stroke-linejoin:miter;stroke-opacity:1"/>
<path class="bond-1 atom-1 atom-2" d="M 479.3,574.8 L 479.3,505.1" style="fill:none;fill-rule:evenodd;stroke:#FF0000;stroke-width:2.0px;stroke-linecap:butt;stroke-linejoin:miter;stroke-opacity:1"/>
<path class="bond-1 atom-1 atom-2" d="M 456.4,644.5 L 456.4,574.8" style="fill:none;fill-rule:evenodd;stroke:#000000;stroke-width:2.0px;stroke-linecap:butt;stroke-linejoin:miter;stroke-opacity:1"/>
<path class="bond-1 atom-1 atom-2" d="M 456.4,574.8 L 456.4,505.1" style="fill:none;fill-rule:evenodd;stroke:#FF0000;stroke-width:2.0px;stroke-linecap:butt;stroke-linejoin:miter;stroke-opacity:1"/>
<path class="bond-2 atom-1 atom-3" d="M 467.9,637.9 L 524.9,670.9" style="fill:none;fill-rule:evenodd;stroke:#000000;stroke-width:2.0px;stroke-linecap:butt;stroke-linejoin:miter;stroke-opacity:1"/>
<path class="bond-2 atom-1 atom-3" d="M 524.9,670.9 L 582.0,703.8" style="fill:none;fill-rule:evenodd;stroke:#FF0000;stroke-width:2.0px;stroke-linecap:butt;stroke-linejoin:miter;stroke-opacity:1"/>
<path class="bond-3 atom-3 atom-4" d="M 618.0,703.8 L 675.1,670.9" style="fill:none;fill-rule:evenodd;stroke:#FF0000;stroke-width:2.0px;stroke-linecap:butt;stroke-linejoin:miter;stroke-opacity:1"/>
<path class="bond-3 atom-3 atom-4" d="M 675.1,670.9 L 732.1,637.9" style="fill:none;fill-rule:evenodd;stroke:#000000;stroke-width:2.0px;stroke-linecap:butt;stroke-linejoin:miter;stroke-opacity:1"/>
<path class="bond-4 atom-4 atom-5" d="M 732.1,637.9 L 792.3,672.7" style="fill:none;fill-rule:evenodd;stroke:#000000;stroke-width:2.0px;stroke-linecap:butt;stroke-linejoin:miter;stroke-opacity:1"/>
<path class="bond-4 atom-4 atom-5" d="M 792.3,672.7 L 852.5,707.4" style="fill:none;fill-rule:evenodd;stroke:#191919;stroke-width:2.0px;stroke-linecap:butt;stroke-linejoin:miter;stroke-opacity:1"/>
<path class="bond-5 atom-4 atom-6" d="M 732.1,637.9 L 732.1,485.3" style="fill:none;fill-rule:evenodd;stroke:#000000;stroke-width:2.0px;stroke-linecap:butt;stroke-linejoin:miter;stroke-opacity:1"/>
<path d="M 464.9,639.7 L 467.9,637.9 L 470.7,639.6" style="fill:none;stroke:#000000;stroke-width:2.0px;stroke-linecap:butt;stroke-linejoin:miter;stroke-opacity:1;"/>
<path class="atom-0" d="M 330.4 711.1 L 334.6 706.8 L 329.0 705.7 L 329.9 702.9 L 335.0 705.4 L 334.2 699.9 L 337.2 699.8 L 336.4 705.4 L 341.6 703.0 L 342.4 705.7 L 336.8 706.7 L 340.8 711.0 L 338.4 712.8 L 335.6 707.5 L 332.8 712.8 L 330.4 711.1 " fill="#191919"/>
<path class="atom-2" d="M 454.9 485.4 Q 454.9 478.6, 458.2 474.8 Q 461.6 471.0, 467.9 471.0 Q 474.1 471.0, 477.5 474.8 Q 480.9 478.6, 480.9 485.4 Q 480.9 492.3, 477.5 496.2 Q 474.1 500.1, 467.9 500.1 Q 461.6 500.1, 458.2 496.2 Q 454.9 492.3, 454.9 485.4 M 467.9 496.9 Q 472.2 496.9, 474.5 494.0 Q 476.9 491.1, 476.9 485.4 Q 476.9 479.9, 474.5 477.1 Q 472.2 474.2, 467.9 474.2 Q 463.5 474.2, 461.2 477.0 Q 458.9 479.8, 458.9 485.4 Q 458.9 491.1, 461.2 494.0 Q 463.5 496.9, 467.9 496.9 " fill="#FF0000"/>
<path class="atom-3" d="M 587.0 714.3 Q 587.0 707.5, 590.4 703.7 Q 593.7 699.9, 600.0 699.9 Q 606.3 699.9, 609.6 703.7 Q 613.0 707.5, 613.0 714.3 Q 613.0 721.2, 609.6 725.1 Q 606.2 729.0, 600.0 729.0 Q 593.8 729.0, 590.4 725.1 Q 587.0 721.2, 587.0 714.3 M 600.0 725.8 Q 604.3 725.8, 606.6 722.9 Q 609.0 720.0, 609.0 714.3 Q 609.0 708.7, 606.6 705.9 Q 604.3 703.1, 600.0 703.1 Q 595.7 703.1, 593.3 705.9 Q 591.0 708.7, 591.0 714.3 Q 591.0 720.0, 593.3 722.9 Q 595.7 725.8, 600.0 725.8 " fill="#FF0000"/>
<path class="atom-5" d="M 858.9 711.1 L 863.1 706.8 L 857.6 705.7 L 858.4 702.9 L 863.5 705.4 L 862.8 699.9 L 865.8 699.8 L 864.9 705.4 L 870.1 703.0 L 871.0 705.7 L 865.4 706.7 L 869.4 711.0 L 866.9 712.8 L 864.2 707.5 L 861.4 712.8 L 858.9 711.1 " fill="#191919"/>
<path class="bond-0 atom-0 atom-1" d="M 216.9,1052.1 L 271.2,1026.8" style="fill:none;fill-rule:evenodd;stroke:#191919;stroke-width:2.0px;stroke-linecap:butt;stroke-linejoin:miter;stroke-opacity:1"/>
<path class="bond-0 atom-0 atom-1" d="M 271.2,1026.8 L 325.5,1001.6" style="fill:none;fill-rule:evenodd;stroke:#FF0000;stroke-width:2.0px;stroke-linecap:butt;stroke-linejoin:miter;stroke-opacity:1"/>
<path class="bond-1 atom-1 atom-2" d="M 361.6,1005.9 L 415.0,1043.4" style="fill:none;fill-rule:evenodd;stroke:#FF0000;stroke-width:2.0px;stroke-linecap:butt;stroke-linejoin:miter;stroke-opacity:1"/>
<path class="bond-1 atom-1 atom-2" d="M 415.0,1043.4 L 468.4,1080.9" style="fill:none;fill-rule:evenodd;stroke:#000000;stroke-width:2.0px;stroke-linecap:butt;stroke-linejoin:miter;stroke-opacity:1"/>
<path class="bond-2 atom-2 atom-3" d="M 468.4,1080.9 L 606.8,1016.6" style="fill:none;fill-rule:evenodd;stroke:#000000;stroke-width:2.0px;stroke-linecap:butt;stroke-linejoin:miter;stroke-opacity:1"/>
<path class="bond-3 atom-3 atom-4" d="M 606.8,1016.6 L 731.6,1104.3" style="fill:none;fill-rule:evenodd;stroke:#000000;stroke-width:2.0px;stroke-linecap:butt;stroke-linejoin:miter;stroke-opacity:1"/>
<path class="bond-4 atom-4 atom-5" d="M 731.6,1104.3 L 870.0,1040.0" style="fill:none;fill-rule:evenodd;stroke:#000000;stroke-width:2.0px;stroke-linecap:butt;stroke-linejoin:miter;stroke-opacity:1"/>
<path class="bond-5 atom-5 atom-6" d="M 870.0,1040.0 L 926.5,1079.7" style="fill:none;fill-rule:evenodd;stroke:#000000;stroke-width:2.0px;stroke-linecap:butt;stroke-linejoin:miter;stroke-opacity:1"/>
<path class="bond-5 atom-5 atom-6" d="M 926.5,1079.7 L 983.1,1119.5" style="fill:none;fill-rule:evenodd;stroke:#191919;stroke-width:2.0px;stroke-linecap:butt;stroke-linejoin:miter;stroke-opacity:1"/>
<path class="bond-6 atom-5 atom-7" d="M 880.8,1047.6 L 887.0,978.2" style="fill:none;fill-rule:evenodd;stroke:#000000;stroke-width:2.0px;stroke-linecap:butt;stroke-linejoin:miter;stroke-opacity:1"/>
<path class="bond-6 atom-5 atom-7" d="M 887.0,978.2 L 893.1,908.9" style="fill:none;fill-rule:evenodd;stroke:#FF0000;stroke-width:2.0px;stroke-linecap:butt;stroke-linejoin:miter;stroke-opacity:1"/>
<path class="bond-6 atom-5 atom-7" d="M 858.0,1045.6 L 864.2,976.2" style="fill:none;fill-rule:evenodd;stroke:#000000;stroke-width:2.0px;stroke-linecap:butt;stroke-linejoin:miter;stroke-opacity:1"/>
<path class="bond-6 atom-5 atom-7" d="M 864.2,976.2 L 870.3,906.8" style="fill:none;fill-rule:evenodd;stroke:#FF0000;stroke-width:2.0px;stroke-linecap:butt;stroke-linejoin:miter;stroke-opacity:1"/>
<path d="M 465.7,1079.0 L 468.4,1080.9 L 475.3,1077.7" style="fill:none;stroke:#000000;stroke-width:2.0px;stroke-linecap:butt;stroke-linejoin:miter;stroke-opacity:1;"/>
<path d="M 599.8,1019.8 L 606.8,1016.6 L 613.0,1021.0" style="fill:none;stroke:#000000;stroke-width:2.0px;stroke-linecap:butt;stroke-linejoin:miter;stroke-opacity:1;"/>
<path d="M 725.4,1099.9 L 731.6,1104.3 L 738.5,1101.1" style="fill:none;stroke:#000000;stroke-width:2.0px;stroke-linecap:butt;stroke-linejoin:miter;stroke-opacity:1;"/>
<path d="M 863.1,1043.2 L 870.0,1040.0 L 872.8,1042.0" style="fill:none;stroke:#000000;stroke-width:2.0px;stroke-linecap:butt;stroke-linejoin:miter;stroke-opacity:1;"/>
<path class="atom-0" d="M 199.8 1054.4 L 204.0 1050.1 L 198.5 1049.0 L 199.3 1046.2 L 204.4 1048.7 L 203.7 1043.2 L 206.7 1043.1 L 205.8 1048.7 L 211.0 1046.3 L 211.9 1049.0 L 206.3 1050.0 L 210.3 1054.3 L 207.8 1056.1 L 205.1 1050.8 L 202.3 1056.1 L 199.8 1054.4 " fill="#191919"/>
<path class="atom-1" d="M 330.5 993.3 Q 330.5 986.5, 333.9 982.7 Q 337.2 978.9, 343.5 978.9 Q 349.8 978.9, 353.2 982.7 Q 356.5 986.5, 356.5 993.3 Q 356.5 1000.2, 353.1 1004.1 Q 349.7 1008.0, 343.5 1008.0 Q 337.3 1008.0, 333.9 1004.1 Q 330.5 1000.2, 330.5 993.3 M 343.5 1004.8 Q 347.8 1004.8, 350.2 1001.9 Q 352.5 999.0, 352.5 993.3 Q 352.5 987.8, 350.2 985.0 Q 347.8 982.1, 343.5 982.1 Q 339.2 982.1, 336.8 984.9 Q 334.5 987.7, 334.5 993.3 Q 334.5 999.0, 336.8 1001.9 Q 339.2 1004.8, 343.5 1004.8 " fill="#FF0000"/>
<path class="atom-6" d="M 989.5 1124.5 L 993.7 1120.3 L 988.1 1119.2 L 989.0 1116.3 L 994.1 1118.9 L 993.3 1113.3 L 996.3 1113.3 L 995.5 1118.9 L 1000.7 1116.5 L 1001.5 1119.2 L 995.9 1120.2 L 999.9 1124.5 L 997.5 1126.3 L 994.7 1121.0 L 991.9 1126.3 L 989.5 1124.5 " fill="#191919"/>
<path class="atom-7" d="M 870.5 888.1 Q 870.5 881.3, 873.8 877.5 Q 877.2 873.7, 883.5 873.7 Q 889.8 873.7, 893.1 877.5 Q 896.5 881.3, 896.5 888.1 Q 896.5 895.0, 893.1 898.9 Q 889.7 902.8, 883.5 902.8 Q 877.2 902.8, 873.8 898.9 Q 870.5 895.1, 870.5 888.1 M 883.5 899.6 Q 887.8 899.6, 890.1 896.7 Q 892.5 893.8, 892.5 888.1 Q 892.5 882.6, 890.1 879.8 Q 887.8 876.9, 883.5 876.9 Q 879.2 876.9, 876.8 879.7 Q 874.5 882.5, 874.5 888.1 Q 874.5 893.9, 876.8 896.7 Q 879.2 899.6, 883.5 899.6 " fill="#FF0000"/>
</svg>