<svg xmlns="http://www.w3.org/2000/svg" xmlns:rdkit="http://www.rdkit.org/xml" xmlns:xlink="http://www.w3.org/1999/xlink" version="1.1" baseProfile="full" xml:space="preserve" width="1200px" height="1600px" viewBox="0 0 1200 1600">
<!-- END OF HEADER -->
<rect style="opacity:1.0;fill:#FFFFFF;stroke:none" width="1200.0" height="1600.0" x="0.0" y="0.0"> </rect>
<path class="bond-0 atom-0 atom-1" d="M 401.1,283.7 L 433.5,292.4" style="fill:none;fill-rule:evenodd;stroke:#191919;stroke-width:2.0px;stroke-linecap:butt;stroke-linejoin:miter;stroke-opacity:1"/>
<path class="bond-0 atom-0 atom-1" d="M 433.5,292.4 L 465.9,301.1" style="fill:none;fill-rule:evenodd;stroke:#FF0000;stroke-width:2.0px;stroke-linecap:butt;stroke-linejoin:miter;stroke-opacity:1"/>
<path class="bond-1 atom-1 atom-2" d="M 494.7,290.5 L 518.8,266.5" style="fill:none;fill-rule:evenodd;stroke:#FF0000;stroke-width:2.0px;stroke-linecap:butt;stroke-linejoin:miter;stroke-opacity:1"/>
<path class="bond-1 atom-1 atom-2" d="M 518.8,266.5 L 542.8,242.5" style="fill:none;fill-rule:evenodd;stroke:#000000;stroke-width:2.0px;stroke-linecap:butt;stroke-linejoin:miter;stroke-opacity:1"/>
<path class="bond-2 atom-2 atom-3" d="M 542.8,242.5 L 519.9,157.1" style="fill:none;fill-rule:evenodd;stroke:#000000;stroke-width:2.0px;stroke-linecap:butt;stroke-linejoin:miter;stroke-opacity:1"/>
<path class="bond-3 atom-3 atom-4" d="M 519.9,157.1 L 434.6,134.3" style="fill:none;fill-rule:evenodd;stroke:#000000;stroke-width:2.0px;stroke-linecap:butt;stroke-linejoin:miter;stroke-opacity:1"/>
<path class="bond-4 atom-4 atom-5" d="M 434.6,134.3 L 425.3,99.6" style="fill:none;fill-rule:evenodd;stroke:#000000;stroke-width:2.0px;stroke-linecap:butt;stroke-linejoin:miter;stroke-opacity:1"/>
<path class="bond-4 atom-4 atom-5" d="M 425.3,99.6 L 416.0,64.9" style="fill:none;fill-rule:evenodd;stroke:#FF0000;stroke-width:2.0px;stroke-linecap:butt;stroke-linejoin:miter;stroke-opacity:1"/>
<path class="bond-5 atom-3 atom-6" d="M 519.9,157.1 L 544.0,133.1" style="fill:none;fill-rule:evenodd;stroke:#000000;stroke-width:2.0px;stroke-linecap:butt;stroke-linejoin:miter;stroke-opacity:1"/>
<path class="bond-5 atom-3 atom-6" d="M 544.0,133.1 L 568.0,109.1" style="fill:none;fill-rule:evenodd;stroke:#FF0000;stroke-width:2.0px;stroke-linecap:butt;stroke-linejoin:miter;stroke-opacity:1"/>
<path class="bond-6 atom-6 atom-7" d="M 596.8,98.5 L 632.3,108.0" style="fill:none;fill-rule:evenodd;stroke:#FF0000;stroke-width:2.0px;stroke-linecap:butt;stroke-linejoin:miter;stroke-opacity:1"/>
<path class="bond-6 atom-6 atom-7" d="M 632.3,108.0 L 667.8,117.5" style="fill:none;fill-rule:evenodd;stroke:#000000;stroke-width:2.0px;stroke-linecap:butt;stroke-linejoin:miter;stroke-opacity:1"/>
<path class="bond-7 atom-7 atom-8" d="M 667.8,117.5 L 698.2,87.1" style="fill:none;fill-rule:evenodd;stroke:#000000;stroke-width:2.0px;stroke-linecap:butt;stroke-linejoin:miter;stroke-opacity:1"/>
<path class="bond-7 atom-7 atom-8" d="M 698.2,87.1 L 728.6,56.7" style="fill:none;fill-rule:evenodd;stroke:#191919;stroke-width:2.0px;stroke-linecap:butt;stroke-linejoin:miter;stroke-opacity:1"/>
<path class="bond-8 atom-7 atom-9" d="M 667.8,117.5 L 690.6,202.9" style="fill:none;fill-rule:evenodd;stroke:#000000;stroke-width:2.0px;stroke-linecap:butt;stroke-linejoin:miter;stroke-opacity:1"/>
<path class="bond-9 atom-9 atom-10" d="M 690.6,202.9 L 726.1,212.4" style="fill:none;fill-rule:evenodd;stroke:#000000;stroke-width:2.0px;stroke-linecap:butt;stroke-linejoin:miter;stroke-opacity:1"/>
<path class="bond-9 atom-9 atom-10" d="M 726.1,212.4 L 761.6,221.9" style="fill:none;fill-rule:evenodd;stroke:#FF0000;stroke-width:2.0px;stroke-linecap:butt;stroke-linejoin:miter;stroke-opacity:1"/>
<path class="bond-10 atom-9 atom-11" d="M 690.6,202.9 L 628.2,265.3" style="fill:none;fill-rule:evenodd;stroke:#000000;stroke-width:2.0px;stroke-linecap:butt;stroke-linejoin:miter;stroke-opacity:1"/>
<path class="bond-11 atom-11 atom-12" d="M 628.2,265.3 L 637.5,300.2" style="fill:none;fill-rule:evenodd;stroke:#000000;stroke-width:2.0px;stroke-linecap:butt;stroke-linejoin:miter;stroke-opacity:1"/>
<path class="bond-11 atom-11 atom-12" d="M 637.5,300.2 L 646.8,335.1" style="fill:none;fill-rule:evenodd;stroke:#FF0000;stroke-width:2.0px;stroke-linecap:butt;stroke-linejoin:miter;stroke-opacity:1"/>
<path class="bond-12 atom-11 atom-2" d="M 628.2,265.3 L 542.8,242.5" style="fill:none;fill-rule:evenodd;stroke:#000000;stroke-width:2.0px;stroke-linecap:butt;stroke-linejoin:miter;stroke-opacity:1"/>
<path d="M 438.9,135.4 L 434.6,134.3 L 434.1,132.5" style="fill:none;stroke:#000000;stroke-width:2.0px;stroke-linecap:butt;stroke-linejoin:miter;stroke-opacity:1;"/>
<path class="atom-0" d="M 390.3 279.3 L 394.0 275.5 L 389.1 274.6 L 389.8 272.0 L 394.3 274.3 L 393.7 269.4 L 396.3 269.4 L 395.6 274.3 L 400.1 272.2 L 400.9 274.6 L 396.0 275.5 L 399.5 279.3 L 397.3 280.8 L 394.9 276.1 L 392.4 280.8 L 390.3 279.3 " fill="#191919"/>
<path class="atom-1" d="M 468.8 305.0 Q 468.8 299.0, 471.8 295.7 Q 474.8 292.3, 480.3 292.3 Q 485.9 292.3, 488.9 295.7 Q 491.8 299.0, 491.8 305.0 Q 491.8 311.1, 488.8 314.6 Q 485.8 318.0, 480.3 318.0 Q 474.8 318.0, 471.8 314.6 Q 468.8 311.1, 468.8 305.0 M 480.3 315.2 Q 484.2 315.2, 486.2 312.6 Q 488.3 310.0, 488.3 305.0 Q 488.3 300.1, 486.2 297.6 Q 484.2 295.1, 480.3 295.1 Q 476.5 295.1, 474.4 297.6 Q 472.4 300.1, 472.4 305.0 Q 472.4 310.1, 474.4 312.6 Q 476.5 315.2, 480.3 315.2 " fill="#FF0000"/>
<path class="atom-5" d="M 400.2 49.0 Q 400.2 43.0, 403.2 39.6 Q 406.2 36.3, 411.7 36.3 Q 417.3 36.3, 420.3 39.6 Q 423.2 43.0, 423.2 49.0 Q 423.2 55.1, 420.2 58.5 Q 417.2 62.0, 411.7 62.0 Q 406.2 62.0, 403.2 58.5 Q 400.2 55.1, 400.2 49.0 M 411.7 59.1 Q 415.6 59.1, 417.6 56.6 Q 419.7 54.0, 419.7 49.0 Q 419.7 44.1, 417.6 41.6 Q 415.6 39.1, 411.7 39.1 Q 407.9 39.1, 405.8 41.6 Q 403.8 44.0, 403.8 49.0 Q 403.8 54.1, 405.8 56.6 Q 407.9 59.1, 411.7 59.1 " fill="#FF0000"/>
<path class="atom-5" d="M 427.1 36.6 L 430.5 36.6 L 430.5 47.2 L 443.3 47.2 L 443.3 36.6 L 446.7 36.6 L 446.7 61.6 L 443.3 61.6 L 443.3 50.0 L 430.5 50.0 L 430.5 61.6 L 427.1 61.6 L 427.1 36.6 " fill="#FF0000"/>
<path class="atom-6" d="M 570.9 94.7 Q 570.9 88.7, 573.9 85.4 Q 576.9 82.0, 582.4 82.0 Q 588.0 82.0, 590.9 85.4 Q 593.9 88.7, 593.9 94.7 Q 593.9 100.8, 590.9 104.3 Q 587.9 107.7, 582.4 107.7 Q 576.9 107.7, 573.9 104.3 Q 570.9 100.8, 570.9 94.7 M 582.4 104.9 Q 586.2 104.9, 588.3 102.3 Q 590.4 99.7, 590.4 94.7 Q 590.4 89.8, 588.3 87.3 Q 586.2 84.8, 582.4 84.8 Q 578.6 84.8, 576.5 87.3 Q 574.5 89.8, 574.5 94.7 Q 574.5 99.8, 576.5 102.3 Q 578.6 104.9, 582.4 104.9 " fill="#FF0000"/>
<path class="atom-8" d="M 725.5 52.3 L 729.2 48.5 L 724.3 47.5 L 725.1 45.0 L 729.5 47.3 L 728.9 42.4 L 731.6 42.3 L 730.8 47.2 L 735.4 45.1 L 736.2 47.5 L 731.2 48.4 L 734.7 52.2 L 732.6 53.8 L 730.1 49.1 L 727.7 53.8 L 725.5 52.3 " fill="#191919"/>
<path class="atom-10" d="M 764.5 225.8 Q 764.5 219.8, 767.4 216.4 Q 770.4 213.1, 776.0 213.1 Q 781.5 213.1, 784.5 216.4 Q 787.5 219.8, 787.5 225.8 Q 787.5 231.9, 784.4 235.3 Q 781.4 238.8, 776.0 238.8 Q 770.5 238.8, 767.4 235.3 Q 764.5 231.9, 764.5 225.8 M 776.0 235.9 Q 779.8 235.9, 781.8 233.4 Q 783.9 230.8, 783.9 225.8 Q 783.9 220.9, 781.8 218.4 Q 779.8 215.9, 776.0 215.9 Q 772.1 215.9, 770.1 218.4 Q 768.0 220.9, 768.0 225.8 Q 768.0 230.9, 770.1 233.4 Q 772.1 235.9, 776.0 235.9 " fill="#FF0000"/>
<path class="atom-10" d="M 791.3 213.4 L 794.7 213.4 L 794.7 224.0 L 807.5 224.0 L 807.5 213.4 L 810.9 213.4 L 810.9 238.4 L 807.5 238.4 L 807.5 226.8 L 794.7 226.8 L 794.7 238.4 L 791.3 238.4 L 791.3 213.4 " fill="#FF0000"/>
<path class="atom-12" d="M 639.5 350.8 Q 639.5 344.7, 642.5 341.4 Q 645.5 338.0, 651.0 338.0 Q 656.6 338.0, 659.5 341.4 Q 662.5 344.7, 662.5 350.8 Q 662.5 356.8, 659.5 360.3 Q 656.5 363.7, 651.0 363.7 Q 645.5 363.7, 642.5 360.3 Q 639.5 356.9, 639.5 350.8 M 651.0 360.9 Q 654.8 360.9, 656.9 358.4 Q 659.0 355.8, 659.0 350.8 Q 659.0 345.8, 656.9 343.4 Q 654.8 340.9, 651.0 340.9 Q 647.2 340.9, 645.1 343.3 Q 643.1 345.8, 643.1 350.8 Q 643.1 355.8, 645.1 358.4 Q 647.2 360.9, 651.0 360.9 " fill="#FF0000"/>
<path class="atom-12" d="M 666.4 338.3 L 669.8 338.3 L 669.8 349.0 L 682.6 349.0 L 682.6 338.3 L 686.0 338.3 L 686.0 363.3 L 682.6 363.3 L 682.6 351.8 L 669.8 351.8 L 669.8 363.3 L 666.4 363.3 L 666.4 338.3 " fill="#FF0000"/>
<path class="bond-0 atom-0 atom-1" d="M 348.5,582.2 L 387.5,574.6" style="fill:none;fill-rule:evenodd;stroke:#191919;stroke-width:2.0px;stroke-linecap:butt;stroke-linejoin:miter;stroke-opacity:1"/>
<path class="bond-0 atom-0 atom-1" d="M 387.5,574.6 L 426.4,567.0" style="fill:none;fill-rule:evenodd;stroke:#000000;stroke-width:2.0px;stroke-linecap:butt;stroke-linejoin:miter;stroke-opacity:1"/>
<path class="bond-1 atom-1 atom-2" d="M 426.4,567.0 L 448.6,592.6" style="fill:none;fill-rule:evenodd;stroke:#000000;stroke-width:2.0px;stroke-linecap:butt;stroke-linejoin:miter;stroke-opacity:1"/>
<path class="bond-1 atom-1 atom-2" d="M 448.6,592.6 L 470.9,618.1" style="fill:none;fill-rule:evenodd;stroke:#FF0000;stroke-width:2.0px;stroke-linecap:butt;stroke-linejoin:miter;stroke-opacity:1"/>
<path class="bond-2 atom-2 atom-3" d="M 498.8,630.9 L 535.0,623.8" style="fill:none;fill-rule:evenodd;stroke:#FF0000;stroke-width:2.0px;stroke-linecap:butt;stroke-linejoin:miter;stroke-opacity:1"/>
<path class="bond-2 atom-2 atom-3" d="M 535.0,623.8 L 571.1,616.8" style="fill:none;fill-rule:evenodd;stroke:#000000;stroke-width:2.0px;stroke-linecap:butt;stroke-linejoin:miter;stroke-opacity:1"/>
<path class="bond-3 atom-3 atom-4" d="M 571.1,616.8 L 582.7,583.0" style="fill:none;fill-rule:evenodd;stroke:#000000;stroke-width:2.0px;stroke-linecap:butt;stroke-linejoin:miter;stroke-opacity:1"/>
<path class="bond-3 atom-3 atom-4" d="M 582.7,583.0 L 594.4,549.2" style="fill:none;fill-rule:evenodd;stroke:#FF0000;stroke-width:2.0px;stroke-linecap:butt;stroke-linejoin:miter;stroke-opacity:1"/>
<path class="bond-4 atom-4 atom-5" d="M 614.2,530.4 L 650.4,523.3" style="fill:none;fill-rule:evenodd;stroke:#FF0000;stroke-width:2.0px;stroke-linecap:butt;stroke-linejoin:miter;stroke-opacity:1"/>
<path class="bond-4 atom-4 atom-5" d="M 650.4,523.3 L 686.5,516.3" style="fill:none;fill-rule:evenodd;stroke:#000000;stroke-width:2.0px;stroke-linecap:butt;stroke-linejoin:miter;stroke-opacity:1"/>
<path class="bond-5 atom-5 atom-6" d="M 686.5,516.3 L 700.6,475.3" style="fill:none;fill-rule:evenodd;stroke:#000000;stroke-width:2.0px;stroke-linecap:butt;stroke-linejoin:miter;stroke-opacity:1"/>
<path class="bond-5 atom-5 atom-6" d="M 700.6,475.3 L 714.7,434.4" style="fill:none;fill-rule:evenodd;stroke:#191919;stroke-width:2.0px;stroke-linecap:butt;stroke-linejoin:miter;stroke-opacity:1"/>
<path class="bond-6 atom-5 atom-7" d="M 686.5,516.3 L 744.6,582.9" style="fill:none;fill-rule:evenodd;stroke:#000000;stroke-width:2.0px;stroke-linecap:butt;stroke-linejoin:miter;stroke-opacity:1"/>
<path class="bond-7 atom-7 atom-8" d="M 744.6,582.9 L 780.7,575.9" style="fill:none;fill-rule:evenodd;stroke:#000000;stroke-width:2.0px;stroke-linecap:butt;stroke-linejoin:miter;stroke-opacity:1"/>
<path class="bond-7 atom-7 atom-8" d="M 780.7,575.9 L 816.9,568.8" style="fill:none;fill-rule:evenodd;stroke:#FF0000;stroke-width:2.0px;stroke-linecap:butt;stroke-linejoin:miter;stroke-opacity:1"/>
<path class="bond-8 atom-7 atom-9" d="M 744.6,582.9 L 715.9,666.5" style="fill:none;fill-rule:evenodd;stroke:#000000;stroke-width:2.0px;stroke-linecap:butt;stroke-linejoin:miter;stroke-opacity:1"/>
<path class="bond-9 atom-9 atom-10" d="M 715.9,666.5 L 738.1,692.0" style="fill:none;fill-rule:evenodd;stroke:#000000;stroke-width:2.0px;stroke-linecap:butt;stroke-linejoin:miter;stroke-opacity:1"/>
<path class="bond-9 atom-9 atom-10" d="M 738.1,692.0 L 760.3,717.5" style="fill:none;fill-rule:evenodd;stroke:#FF0000;stroke-width:2.0px;stroke-linecap:butt;stroke-linejoin:miter;stroke-opacity:1"/>
<path class="bond-10 atom-9 atom-11" d="M 715.9,666.5 L 629.1,683.4" style="fill:none;fill-rule:evenodd;stroke:#000000;stroke-width:2.0px;stroke-linecap:butt;stroke-linejoin:miter;stroke-opacity:1"/>
<path class="bond-11 atom-11 atom-12" d="M 629.1,683.4 L 617.5,717.4" style="fill:none;fill-rule:evenodd;stroke:#000000;stroke-width:2.0px;stroke-linecap:butt;stroke-linejoin:miter;stroke-opacity:1"/>
<path class="bond-11 atom-11 atom-12" d="M 617.5,717.4 L 605.8,751.4" style="fill:none;fill-rule:evenodd;stroke:#FF0000;stroke-width:2.0px;stroke-linecap:butt;stroke-linejoin:miter;stroke-opacity:1"/>
<path class="bond-12 atom-11 atom-3" d="M 629.1,683.4 L 571.1,616.8" style="fill:none;fill-rule:evenodd;stroke:#000000;stroke-width:2.0px;stroke-linecap:butt;stroke-linejoin:miter;stroke-opacity:1"/>
<path d="M 424.5,567.4 L 426.4,567.0 L 427.5,568.3" style="fill:none;stroke:#000000;stroke-width:2.0px;stroke-linecap:butt;stroke-linejoin:miter;stroke-opacity:1;"/>
<path class="atom-0" d="M 335.0 581.2 L 338.6 577.4 L 333.8 576.4 L 334.5 573.9 L 339.0 576.2 L 338.4 571.3 L 341.0 571.2 L 340.3 576.2 L 344.8 574.0 L 345.6 576.4 L 340.7 577.4 L 344.2 581.1 L 342.0 582.7 L 339.6 578.0 L 337.1 582.7 L 335.0 581.2 " fill="#191919"/>
<path class="atom-2" d="M 472.9 633.8 Q 472.9 627.7, 475.9 624.4 Q 478.9 621.0, 484.4 621.0 Q 490.0 621.0, 492.9 624.4 Q 495.9 627.7, 495.9 633.8 Q 495.9 639.8, 492.9 643.3 Q 489.9 646.7, 484.4 646.7 Q 478.9 646.7, 475.9 643.3 Q 472.9 639.9, 472.9 633.8 M 484.4 643.9 Q 488.2 643.9, 490.3 641.4 Q 492.4 638.8, 492.4 633.8 Q 492.4 628.8, 490.3 626.4 Q 488.2 623.9, 484.4 623.9 Q 480.6 623.9, 478.5 626.3 Q 476.5 628.8, 476.5 633.8 Q 476.5 638.8, 478.5 641.4 Q 480.6 643.9, 484.4 643.9 " fill="#FF0000"/>
<path class="atom-4" d="M 588.3 533.3 Q 588.3 527.3, 591.3 523.9 Q 594.3 520.6, 599.8 520.6 Q 605.4 520.6, 608.3 523.9 Q 611.3 527.3, 611.3 533.3 Q 611.3 539.4, 608.3 542.8 Q 605.3 546.2, 599.8 546.2 Q 594.3 546.2, 591.3 542.8 Q 588.3 539.4, 588.3 533.3 M 599.8 543.4 Q 603.6 543.4, 605.7 540.9 Q 607.8 538.3, 607.8 533.3 Q 607.8 528.4, 605.7 525.9 Q 603.6 523.4, 599.8 523.4 Q 596.0 523.4, 593.9 525.9 Q 591.9 528.3, 591.9 533.3 Q 591.9 538.3, 593.9 540.9 Q 596.0 543.4, 599.8 543.4 " fill="#FF0000"/>
<path class="atom-6" d="M 710.5 429.9 L 714.2 426.2 L 709.3 425.2 L 710.1 422.7 L 714.6 424.9 L 713.9 420.0 L 716.6 420.0 L 715.8 424.9 L 720.4 422.8 L 721.2 425.2 L 716.2 426.1 L 719.8 429.9 L 717.6 431.5 L 715.2 426.8 L 712.7 431.5 L 710.5 429.9 " fill="#191919"/>
<path class="atom-8" d="M 819.8 566.1 Q 819.8 560.1, 822.8 556.7 Q 825.7 553.3, 831.3 553.3 Q 836.8 553.3, 839.8 556.7 Q 842.8 560.1, 842.8 566.1 Q 842.8 572.1, 839.8 575.6 Q 836.8 579.0, 831.3 579.0 Q 825.8 579.0, 822.8 575.6 Q 819.8 572.2, 819.8 566.1 M 831.3 576.2 Q 835.1 576.2, 837.1 573.7 Q 839.2 571.1, 839.2 566.1 Q 839.2 561.2, 837.1 558.7 Q 835.1 556.2, 831.3 556.2 Q 827.5 556.2, 825.4 558.6 Q 823.3 561.1, 823.3 566.1 Q 823.3 571.1, 825.4 573.7 Q 827.5 576.2, 831.3 576.2 " fill="#FF0000"/>
<path class="atom-8" d="M 846.7 553.6 L 850.1 553.6 L 850.1 564.3 L 862.8 564.3 L 862.8 553.6 L 866.2 553.6 L 866.2 578.7 L 862.8 578.7 L 862.8 567.1 L 850.1 567.1 L 850.1 578.7 L 846.7 578.7 L 846.7 553.6 " fill="#FF0000"/>
<path class="atom-10" d="M 762.4 733.2 Q 762.4 727.2, 765.4 723.8 Q 768.3 720.5, 773.9 720.5 Q 779.4 720.5, 782.4 723.8 Q 785.4 727.2, 785.4 733.2 Q 785.4 739.3, 782.4 742.7 Q 779.3 746.2, 773.9 746.2 Q 768.4 746.2, 765.4 742.7 Q 762.4 739.3, 762.4 733.2 M 773.9 743.3 Q 777.7 743.3, 779.7 740.8 Q 781.8 738.2, 781.8 733.2 Q 781.8 728.3, 779.7 725.8 Q 777.7 723.3, 773.9 723.3 Q 770.1 723.3, 768.0 725.8 Q 765.9 728.2, 765.9 733.2 Q 765.9 738.2, 768.0 740.8 Q 770.1 743.3, 773.9 743.3 " fill="#FF0000"/>
<path class="atom-10" d="M 789.2 720.7 L 792.6 720.7 L 792.6 731.4 L 805.4 731.4 L 805.4 720.7 L 808.8 720.7 L 808.8 745.8 L 805.4 745.8 L 805.4 734.2 L 792.6 734.2 L 792.6 745.8 L 789.2 745.8 L 789.2 720.7 " fill="#FF0000"/>
<path class="atom-12" d="M 589.0 767.0 Q 589.0 761.0, 591.9 757.7 Q 594.9 754.3, 600.4 754.3 Q 606.0 754.3, 609.0 757.7 Q 611.9 761.0, 611.9 767.0 Q 611.9 773.1, 608.9 776.6 Q 605.9 780.0, 600.4 780.0 Q 594.9 780.0, 591.9 776.6 Q 589.0 773.1, 589.0 767.0 M 600.4 777.2 Q 604.3 777.2, 606.3 774.6 Q 608.4 772.0, 608.4 767.0 Q 608.4 762.1, 606.3 759.6 Q 604.3 757.1, 600.4 757.1 Q 596.6 757.1, 594.5 759.6 Q 592.5 762.1, 592.5 767.0 Q 592.5 772.1, 594.5 774.6 Q 596.6 777.2, 600.4 777.2 " fill="#FF0000"/>
<path class="atom-12" d="M 615.8 754.6 L 619.2 754.6 L 619.2 765.2 L 632.0 765.2 L 632.0 754.6 L 635.4 754.6 L 635.4 779.6 L 632.0 779.6 L 632.0 768.1 L 619.2 768.1 L 619.2 779.6 L 615.8 779.6 L 615.8 754.6 " fill="#FF0000"/>
<path class="bond-0 atom-0 atom-1" d="M 494.1,972.7 L 527.9,953.1" style="fill:none;fill-rule:evenodd;stroke:#191919;stroke-width:2.0px;stroke-linecap:butt;stroke-linejoin:miter;stroke-opacity:1"/>
<path class="bond-0 atom-0 atom-1" d="M 527.9,953.1 L 561.7,933.6" style="fill:none;fill-rule:evenodd;stroke:#000000;stroke-width:2.0px;stroke-linecap:butt;stroke-linejoin:miter;stroke-opacity:1"/>
<path class="bond-1 atom-1 atom-2" d="M 561.7,933.6 L 638.3,977.8" style="fill:none;fill-rule:evenodd;stroke:#000000;stroke-width:2.0px;stroke-linecap:butt;stroke-linejoin:miter;stroke-opacity:1"/>
<path class="bond-2 atom-2 atom-3" d="M 638.3,977.8 L 675.1,956.5" style="fill:none;fill-rule:evenodd;stroke:#000000;stroke-width:2.0px;stroke-linecap:butt;stroke-linejoin:miter;stroke-opacity:1"/>
<path class="bond-2 atom-2 atom-3" d="M 675.1,956.5 L 711.9,935.2" style="fill:none;fill-rule:evenodd;stroke:#191919;stroke-width:2.0px;stroke-linecap:butt;stroke-linejoin:miter;stroke-opacity:1"/>
<path class="bond-3 atom-2 atom-4" d="M 638.3,977.8 L 638.3,1014.1" style="fill:none;fill-rule:evenodd;stroke:#000000;stroke-width:2.0px;stroke-linecap:butt;stroke-linejoin:miter;stroke-opacity:1"/>
<path class="bond-3 atom-2 atom-4" d="M 638.3,1014.1 L 638.3,1050.5" style="fill:none;fill-rule:evenodd;stroke:#FF0000;stroke-width:2.0px;stroke-linecap:butt;stroke-linejoin:miter;stroke-opacity:1"/>
<path d="M 560.1,934.6 L 561.7,933.6 L 565.6,935.8" style="fill:none;stroke:#000000;stroke-width:2.0px;stroke-linecap:butt;stroke-linejoin:miter;stroke-opacity:1;"/>
<path class="atom-0" d="M 480.5 975.0 L 484.2 971.2 L 479.3 970.2 L 480.1 967.7 L 484.5 970.0 L 483.9 965.1 L 486.6 965.0 L 485.8 969.9 L 490.4 967.8 L 491.1 970.2 L 486.2 971.1 L 489.7 974.9 L 487.6 976.5 L 485.1 971.8 L 482.7 976.5 L 480.5 975.0 " fill="#191919"/>
<path class="atom-3" d="M 710.1 930.8 L 713.7 927.0 L 708.9 926.0 L 709.6 923.5 L 714.1 925.8 L 713.4 920.9 L 716.1 920.9 L 715.4 925.8 L 719.9 923.6 L 720.7 926.0 L 715.7 927.0 L 719.3 930.7 L 717.1 932.3 L 714.7 927.6 L 712.2 932.3 L 710.1 930.8 " fill="#191919"/>
<path class="atom-4" d="M 626.8 1066.2 Q 626.8 1060.2, 629.7 1056.8 Q 632.7 1053.5, 638.3 1053.5 Q 643.8 1053.5, 646.8 1056.8 Q 649.7 1060.2, 649.7 1066.2 Q 649.7 1072.3, 646.7 1075.7 Q 643.7 1079.1, 638.3 1079.1 Q 632.7 1079.1, 629.7 1075.7 Q 626.8 1072.3, 626.8 1066.2 M 638.3 1076.3 Q 642.1 1076.3, 644.1 1073.8 Q 646.2 1071.2, 646.2 1066.2 Q 646.2 1061.3, 644.1 1058.8 Q 642.1 1056.3, 638.3 1056.3 Q 634.4 1056.3, 632.4 1058.8 Q 630.3 1061.2, 630.3 1066.2 Q 630.3 1071.2, 632.4 1073.8 Q 634.4 1076.3, 638.3 1076.3 " fill="#FF0000"/>
<path class="atom-4" d="M 653.6 1053.7 L 657.0 1053.7 L 657.0 1064.4 L 669.8 1064.4 L 669.8 1053.7 L 673.2 1053.7 L 673.2 1078.8 L 669.8 1078.8 L 669.8 1067.2 L 657.0 1067.2 L 657.0 1078.8 L 653.6 1078.8 L 653.6 1053.7 " fill="#FF0000"/>
<path class="bond-0 atom-0 atom-1" d="M 492.2,1404.3 L 528.5,1388.9" style="fill:none;fill-rule:evenodd;stroke:#191919;stroke-width:2.0px;stroke-linecap:butt;stroke-linejoin:miter;stroke-opacity:1"/>
<path class="bond-0 atom-0 atom-1" d="M 528.5,1388.9 L 564.7,1373.4" style="fill:none;fill-rule:evenodd;stroke:#000000;stroke-width:2.0px;stroke-linecap:butt;stroke-linejoin:miter;stroke-opacity:1"/>
<path class="bond-1 atom-1 atom-2" d="M 564.7,1373.4 L 635.3,1426.6" style="fill:none;fill-rule:evenodd;stroke:#000000;stroke-width:2.0px;stroke-linecap:butt;stroke-linejoin:miter;stroke-opacity:1"/>
<path class="bond-2 atom-2 atom-3" d="M 635.3,1426.6 L 674.0,1410.1" style="fill:none;fill-rule:evenodd;stroke:#000000;stroke-width:2.0px;stroke-linecap:butt;stroke-linejoin:miter;stroke-opacity:1"/>
<path class="bond-2 atom-2 atom-3" d="M 674.0,1410.1 L 712.7,1393.6" style="fill:none;fill-rule:evenodd;stroke:#191919;stroke-width:2.0px;stroke-linecap:butt;stroke-linejoin:miter;stroke-opacity:1"/>
<path d="M 562.9,1374.2 L 564.7,1373.4 L 568.2,1376.1" style="fill:none;stroke:#000000;stroke-width:2.0px;stroke-linecap:butt;stroke-linejoin:miter;stroke-opacity:1;"/>
<path d="M 631.8,1423.9 L 635.3,1426.6 L 637.2,1425.7" style="fill:none;stroke:#000000;stroke-width:2.0px;stroke-linecap:butt;stroke-linejoin:miter;stroke-opacity:1;"/>
<path class="atom-0" d="M 478.7 1405.2 L 482.4 1401.5 L 477.5 1400.5 L 478.2 1398.0 L 482.7 1400.3 L 482.1 1395.4 L 484.7 1395.3 L 484.0 1400.2 L 488.5 1398.1 L 489.3 1400.5 L 484.4 1401.4 L 487.9 1405.2 L 485.7 1406.8 L 483.3 1402.1 L 480.8 1406.8 L 478.7 1405.2 " fill="#191919"/>
<path class="atom-3" d="M 711.9 1389.2 L 715.6 1385.4 L 710.7 1384.4 L 711.4 1381.9 L 715.9 1384.2 L 715.3 1379.3 L 717.9 1379.2 L 717.2 1384.1 L 721.7 1382.0 L 722.5 1384.4 L 717.6 1385.4 L 721.1 1389.1 L 719.0 1390.7 L 716.5 1386.0 L 714.0 1390.7 L 711.9 1389.2 " fill="#191919"/>
</svg>