<svg xmlns="http://www.w3.org/2000/svg" xmlns:rdkit="http://www.rdkit.org/xml" xmlns:xlink="http://www.w3.org/1999/xlink" version="1.1" baseProfile="full" xml:space="preserve" width="1200px" height="800px" viewBox="0 0 1200 800">
<!-- END OF HEADER -->
<rect style="opacity:1.0;fill:#FFFFFF;stroke:none" width="1200.0" height="800.0" x="0.0" y="0.0"> </rect>
<path class="bond-0 atom-0 atom-1" d="M 1028.6,252.1 L 955.9,295.4" style="fill:none;fill-rule:evenodd;stroke:#191919;stroke-width:2.0px;stroke-linecap:butt;stroke-linejoin:miter;stroke-opacity:1"/>
<path class="bond-0 atom-0 atom-1" d="M 955.9,295.4 L 883.2,338.6" style="fill:none;fill-rule:evenodd;stroke:#FF0000;stroke-width:2.0px;stroke-linecap:butt;stroke-linejoin:miter;stroke-opacity:1"/>
<path class="bond-1 atom-1 atom-2" d="M 843.8,339.3 L 765.4,295.4" style="fill:none;fill-rule:evenodd;stroke:#FF0000;stroke-width:2.0px;stroke-linecap:butt;stroke-linejoin:miter;stroke-opacity:1"/>
<path class="bond-1 atom-1 atom-2" d="M 765.4,295.4 L 686.9,251.5" style="fill:none;fill-rule:evenodd;stroke:#000000;stroke-width:2.0px;stroke-linecap:butt;stroke-linejoin:miter;stroke-opacity:1"/>
<path class="bond-2 atom-2 atom-3" d="M 702.2,260.1 L 701.0,165.3" style="fill:none;fill-rule:evenodd;stroke:#000000;stroke-width:2.0px;stroke-linecap:butt;stroke-linejoin:miter;stroke-opacity:1"/>
<path class="bond-2 atom-2 atom-3" d="M 701.0,165.3 L 699.7,70.4" style="fill:none;fill-rule:evenodd;stroke:#FF0000;stroke-width:2.0px;stroke-linecap:butt;stroke-linejoin:miter;stroke-opacity:1"/>
<path class="bond-2 atom-2 atom-3" d="M 671.9,260.5 L 670.6,165.7" style="fill:none;fill-rule:evenodd;stroke:#000000;stroke-width:2.0px;stroke-linecap:butt;stroke-linejoin:miter;stroke-opacity:1"/>
<path class="bond-2 atom-2 atom-3" d="M 670.6,165.7 L 669.4,70.8" style="fill:none;fill-rule:evenodd;stroke:#FF0000;stroke-width:2.0px;stroke-linecap:butt;stroke-linejoin:miter;stroke-opacity:1"/>
<path class="bond-3 atom-2 atom-4" d="M 686.9,251.5 L 513.1,355.0" style="fill:none;fill-rule:evenodd;stroke:#000000;stroke-width:2.0px;stroke-linecap:butt;stroke-linejoin:miter;stroke-opacity:1"/>
<path class="bond-4 atom-4 atom-5" d="M 513.1,355.0 L 336.5,256.2" style="fill:none;fill-rule:evenodd;stroke:#000000;stroke-width:2.0px;stroke-linecap:butt;stroke-linejoin:miter;stroke-opacity:1"/>
<path class="bond-5 atom-5 atom-6" d="M 336.5,256.2 L 256.2,304.0" style="fill:none;fill-rule:evenodd;stroke:#000000;stroke-width:2.0px;stroke-linecap:butt;stroke-linejoin:miter;stroke-opacity:1"/>
<path class="bond-5 atom-5 atom-6" d="M 256.2,304.0 L 176.0,351.7" style="fill:none;fill-rule:evenodd;stroke:#191919;stroke-width:2.0px;stroke-linecap:butt;stroke-linejoin:miter;stroke-opacity:1"/>
<path class="bond-6 atom-5 atom-7" d="M 336.5,256.2 L 333.8,53.9" style="fill:none;fill-rule:evenodd;stroke:#000000;stroke-width:2.0px;stroke-linecap:butt;stroke-linejoin:miter;stroke-opacity:1"/>
<path d="M 690.9,253.7 L 686.9,251.5 L 678.2,256.7" style="fill:none;stroke:#000000;stroke-width:2.0px;stroke-linecap:butt;stroke-linejoin:miter;stroke-opacity:1;"/>
<path d="M 521.8,349.9 L 513.1,355.0 L 504.2,350.1" style="fill:none;stroke:#000000;stroke-width:2.0px;stroke-linecap:butt;stroke-linejoin:miter;stroke-opacity:1;"/>
<path class="atom-0" d="M 1032.0 243.7 L 1036.2 239.5 L 1030.7 238.3 L 1031.5 235.5 L 1036.6 238.1 L 1035.9 232.5 L 1038.9 232.5 L 1038.0 238.0 L 1043.2 235.6 L 1044.1 238.3 L 1038.5 239.4 L 1042.5 243.7 L 1040.0 245.4 L 1037.3 240.1 L 1034.5 245.4 L 1032.0 243.7 " fill="#191919"/>
<path class="atom-1" d="M 850.5 350.4 Q 850.5 343.6, 853.9 339.8 Q 857.2 336.0, 863.5 336.0 Q 869.8 336.0, 873.1 339.8 Q 876.5 343.6, 876.5 350.4 Q 876.5 357.3, 873.1 361.2 Q 869.7 365.1, 863.5 365.1 Q 857.3 365.1, 853.9 361.2 Q 850.5 357.4, 850.5 350.4 M 863.5 361.9 Q 867.8 361.9, 870.1 359.0 Q 872.5 356.1, 872.5 350.4 Q 872.5 344.9, 870.1 342.1 Q 867.8 339.2, 863.5 339.2 Q 859.2 339.2, 856.8 342.0 Q 854.5 344.8, 854.5 350.4 Q 854.5 356.2, 856.8 359.0 Q 859.2 361.9, 863.5 361.9 " fill="#FF0000"/>
<path class="atom-3" d="M 671.2 49.3 Q 671.2 42.5, 674.6 38.7 Q 678.0 34.9, 684.2 34.9 Q 690.5 34.9, 693.9 38.7 Q 697.2 42.5, 697.2 49.3 Q 697.2 56.2, 693.8 60.1 Q 690.4 64.0, 684.2 64.0 Q 678.0 64.0, 674.6 60.1 Q 671.2 56.2, 671.2 49.3 M 684.2 60.8 Q 688.6 60.8, 690.9 57.9 Q 693.2 55.0, 693.2 49.3 Q 693.2 43.7, 690.9 40.9 Q 688.6 38.1, 684.2 38.1 Q 679.9 38.1, 677.6 40.9 Q 675.2 43.7, 675.2 49.3 Q 675.2 55.0, 677.6 57.9 Q 679.9 60.8, 684.2 60.8 " fill="#FF0000"/>
<path class="atom-6" d="M 157.3 356.5 L 161.4 352.3 L 155.9 351.2 L 156.8 348.3 L 161.8 350.9 L 161.1 345.3 L 164.1 345.3 L 163.3 350.9 L 168.4 348.5 L 169.3 351.2 L 163.7 352.2 L 167.7 356.5 L 165.3 358.3 L 162.5 353.0 L 159.7 358.3 L 157.3 356.5 " fill="#191919"/>
<path class="bond-0 atom-0 atom-1" d="M 262.9,650.0 L 343.8,603.3" style="fill:none;fill-rule:evenodd;stroke:#191919;stroke-width:2.0px;stroke-linecap:butt;stroke-linejoin:miter;stroke-opacity:1"/>
<path class="bond-0 atom-0 atom-1" d="M 343.8,603.3 L 424.8,556.6" style="fill:none;fill-rule:evenodd;stroke:#000000;stroke-width:2.0px;stroke-linecap:butt;stroke-linejoin:miter;stroke-opacity:1"/>
<path class="bond-1 atom-1 atom-2" d="M 424.8,556.6 L 600.0,657.7" style="fill:none;fill-rule:evenodd;stroke:#000000;stroke-width:2.0px;stroke-linecap:butt;stroke-linejoin:miter;stroke-opacity:1"/>
<path class="bond-2 atom-2 atom-3" d="M 600.0,657.7 L 677.8,612.8" style="fill:none;fill-rule:evenodd;stroke:#000000;stroke-width:2.0px;stroke-linecap:butt;stroke-linejoin:miter;stroke-opacity:1"/>
<path class="bond-2 atom-2 atom-3" d="M 677.8,612.8 L 755.6,567.9" style="fill:none;fill-rule:evenodd;stroke:#FF0000;stroke-width:2.0px;stroke-linecap:butt;stroke-linejoin:miter;stroke-opacity:1"/>
<path class="bond-3 atom-3 atom-4" d="M 794.9,567.9 L 866.0,609.0" style="fill:none;fill-rule:evenodd;stroke:#FF0000;stroke-width:2.0px;stroke-linecap:butt;stroke-linejoin:miter;stroke-opacity:1"/>
<path class="bond-3 atom-3 atom-4" d="M 866.0,609.0 L 937.1,650.0" style="fill:none;fill-rule:evenodd;stroke:#191919;stroke-width:2.0px;stroke-linecap:butt;stroke-linejoin:miter;stroke-opacity:1"/>
<path d="M 420.7,558.9 L 424.8,556.6 L 433.5,561.6" style="fill:none;stroke:#000000;stroke-width:2.0px;stroke-linecap:butt;stroke-linejoin:miter;stroke-opacity:1;"/>
<path d="M 591.2,652.7 L 600.0,657.7 L 603.9,655.5" style="fill:none;stroke:#000000;stroke-width:2.0px;stroke-linecap:butt;stroke-linejoin:miter;stroke-opacity:1;"/>
<path class="atom-0" d="M 244.2 654.6 L 248.3 650.3 L 242.8 649.2 L 243.7 646.4 L 248.7 648.9 L 248.0 643.4 L 251.0 643.3 L 250.2 648.9 L 255.3 646.5 L 256.2 649.2 L 250.6 650.3 L 254.6 654.5 L 252.2 656.3 L 249.4 651.0 L 246.6 656.3 L 244.2 654.6 " fill="#191919"/>
<path class="atom-3" d="M 762.2 556.7 Q 762.2 549.9, 765.6 546.1 Q 769.0 542.3, 775.2 542.3 Q 781.5 542.3, 784.9 546.1 Q 788.2 549.9, 788.2 556.7 Q 788.2 563.5, 784.8 567.5 Q 781.4 571.3, 775.2 571.3 Q 769.0 571.3, 765.6 567.5 Q 762.2 563.6, 762.2 556.7 M 775.2 568.1 Q 779.6 568.1, 781.9 565.3 Q 784.2 562.3, 784.2 556.7 Q 784.2 551.1, 781.9 548.3 Q 779.6 545.5, 775.2 545.5 Q 770.9 545.5, 768.6 548.3 Q 766.2 551.1, 766.2 556.7 Q 766.2 562.4, 768.6 565.3 Q 770.9 568.1, 775.2 568.1 " fill="#FF0000"/>
<path class="atom-4" d="M 945.1 654.6 L 949.3 650.3 L 943.8 649.2 L 944.6 646.4 L 949.7 648.9 L 949.0 643.4 L 952.0 643.3 L 951.1 648.9 L 956.3 646.5 L 957.2 649.2 L 951.6 650.3 L 955.6 654.5 L 953.1 656.3 L 950.4 651.0 L 947.6 656.3 L 945.1 654.6 " fill="#191919"/>
</svg>