<svg xmlns="http://www.w3.org/2000/svg" xmlns:rdkit="http://www.rdkit.org/xml" xmlns:xlink="http://www.w3.org/1999/xlink" version="1.1" baseProfile="full" xml:space="preserve" width="1200px" height="800px" viewBox="0 0 1200 800">
<!-- END OF HEADER -->
<rect style="opacity:1.0;fill:#FFFFFF;stroke:none" width="1200.0" height="800.0" x="0.0" y="0.0"> </rect>
<path class="bond-0 atom-0 atom-1" d="M 397.4,289.9 L 432.8,299.8" style="fill:none;fill-rule:evenodd;stroke:#191919;stroke-width:2.0px;stroke-linecap:butt;stroke-linejoin:miter;stroke-opacity:1"/>
<path class="bond-0 atom-0 atom-1" d="M 432.8,299.8 L 468.2,309.6" style="fill:none;fill-rule:evenodd;stroke:#FF0000;stroke-width:2.0px;stroke-linecap:butt;stroke-linejoin:miter;stroke-opacity:1"/>
<path class="bond-1 atom-2 atom-1" d="M 552.8,246.5 L 530.3,273.6 L 525.2,268.4 Z" style="fill:#000000;fill-rule:evenodd;fill-opacity:1;stroke:#000000;stroke-width:0.5px;stroke-linecap:butt;stroke-linejoin:miter;stroke-opacity:1;"/>
<path class="bond-1 atom-2 atom-1" d="M 530.3,273.6 L 497.7,290.3 L 507.9,300.6 Z" style="fill:#FF0000;fill-rule:evenodd;fill-opacity:1;stroke:#FF0000;stroke-width:0.5px;stroke-linecap:butt;stroke-linejoin:miter;stroke-opacity:1;"/>
<path class="bond-1 atom-2 atom-1" d="M 530.3,273.6 L 525.2,268.4 L 497.7,290.3 Z" style="fill:#FF0000;fill-rule:evenodd;fill-opacity:1;stroke:#FF0000;stroke-width:0.5px;stroke-linecap:butt;stroke-linejoin:miter;stroke-opacity:1;"/>
<path class="bond-2 atom-2 atom-3" d="M 552.8,246.5 L 528.7,153.1" style="fill:none;fill-rule:evenodd;stroke:#000000;stroke-width:2.0px;stroke-linecap:butt;stroke-linejoin:miter;stroke-opacity:1"/>
<path class="bond-3 atom-3 atom-4" d="M 528.7,153.1 L 435.8,127.2" style="fill:none;fill-rule:evenodd;stroke:#000000;stroke-width:2.0px;stroke-linecap:butt;stroke-linejoin:miter;stroke-opacity:1"/>
<path class="bond-4 atom-4 atom-5" d="M 433.7,119.1 L 405.7,146.6" style="fill:none;fill-rule:evenodd;stroke:#000000;stroke-width:2.0px;stroke-linecap:butt;stroke-linejoin:miter;stroke-opacity:1"/>
<path class="bond-4 atom-4 atom-5" d="M 405.7,146.6 L 377.6,174.1" style="fill:none;fill-rule:evenodd;stroke:#FF0000;stroke-width:2.0px;stroke-linecap:butt;stroke-linejoin:miter;stroke-opacity:1"/>
<path class="bond-4 atom-4 atom-5" d="M 443.9,129.4 L 415.8,157.0" style="fill:none;fill-rule:evenodd;stroke:#000000;stroke-width:2.0px;stroke-linecap:butt;stroke-linejoin:miter;stroke-opacity:1"/>
<path class="bond-4 atom-4 atom-5" d="M 415.8,157.0 L 387.7,184.5" style="fill:none;fill-rule:evenodd;stroke:#FF0000;stroke-width:2.0px;stroke-linecap:butt;stroke-linejoin:miter;stroke-opacity:1"/>
<path class="bond-5 atom-4 atom-6" d="M 435.8,127.2 L 426.1,89.2" style="fill:none;fill-rule:evenodd;stroke:#000000;stroke-width:2.0px;stroke-linecap:butt;stroke-linejoin:miter;stroke-opacity:1"/>
<path class="bond-5 atom-4 atom-6" d="M 426.1,89.2 L 416.3,51.2" style="fill:none;fill-rule:evenodd;stroke:#FF0000;stroke-width:2.0px;stroke-linecap:butt;stroke-linejoin:miter;stroke-opacity:1"/>
<path class="bond-6 atom-3 atom-7" d="M 528.7,153.1 L 555.3,127.0" style="fill:none;fill-rule:evenodd;stroke:#000000;stroke-width:2.0px;stroke-linecap:butt;stroke-linejoin:miter;stroke-opacity:1"/>
<path class="bond-6 atom-3 atom-7" d="M 555.3,127.0 L 581.9,101.0" style="fill:none;fill-rule:evenodd;stroke:#FF0000;stroke-width:2.0px;stroke-linecap:butt;stroke-linejoin:miter;stroke-opacity:1"/>
<path class="bond-7 atom-7 atom-8" d="M 613.3,90.0 L 651.9,100.7" style="fill:none;fill-rule:evenodd;stroke:#FF0000;stroke-width:2.0px;stroke-linecap:butt;stroke-linejoin:miter;stroke-opacity:1"/>
<path class="bond-7 atom-7 atom-8" d="M 651.9,100.7 L 690.5,111.5" style="fill:none;fill-rule:evenodd;stroke:#000000;stroke-width:2.0px;stroke-linecap:butt;stroke-linejoin:miter;stroke-opacity:1"/>
<path class="bond-8 atom-8 atom-9" d="M 690.5,111.5 L 724.0,78.6" style="fill:none;fill-rule:evenodd;stroke:#000000;stroke-width:2.0px;stroke-linecap:butt;stroke-linejoin:miter;stroke-opacity:1"/>
<path class="bond-8 atom-8 atom-9" d="M 724.0,78.6 L 757.5,45.8" style="fill:none;fill-rule:evenodd;stroke:#191919;stroke-width:2.0px;stroke-linecap:butt;stroke-linejoin:miter;stroke-opacity:1"/>
<path class="bond-9 atom-8 atom-10" d="M 690.5,111.5 L 714.5,204.9" style="fill:none;fill-rule:evenodd;stroke:#000000;stroke-width:2.0px;stroke-linecap:butt;stroke-linejoin:miter;stroke-opacity:1"/>
<path class="bond-10 atom-10 atom-11" d="M 714.5,204.9 L 752.5,211.7 L 750.5,218.7 Z" style="fill:#000000;fill-rule:evenodd;fill-opacity:1;stroke:#000000;stroke-width:0.5px;stroke-linecap:butt;stroke-linejoin:miter;stroke-opacity:1;"/>
<path class="bond-10 atom-10 atom-11" d="M 752.5,211.7 L 786.6,232.4 L 790.5,218.5 Z" style="fill:#FF0000;fill-rule:evenodd;fill-opacity:1;stroke:#FF0000;stroke-width:0.5px;stroke-linecap:butt;stroke-linejoin:miter;stroke-opacity:1;"/>
<path class="bond-10 atom-10 atom-11" d="M 752.5,211.7 L 750.5,218.7 L 786.6,232.4 Z" style="fill:#FF0000;fill-rule:evenodd;fill-opacity:1;stroke:#FF0000;stroke-width:0.5px;stroke-linecap:butt;stroke-linejoin:miter;stroke-opacity:1;"/>
<path class="bond-11 atom-10 atom-12" d="M 714.5,204.9 L 645.7,272.4" style="fill:none;fill-rule:evenodd;stroke:#000000;stroke-width:2.0px;stroke-linecap:butt;stroke-linejoin:miter;stroke-opacity:1"/>
<path class="bond-12 atom-12 atom-13" d="M 645.7,272.4 L 658.6,308.1 L 651.6,309.9 Z" style="fill:#000000;fill-rule:evenodd;fill-opacity:1;stroke:#000000;stroke-width:0.5px;stroke-linecap:butt;stroke-linejoin:miter;stroke-opacity:1;"/>
<path class="bond-12 atom-12 atom-13" d="M 658.6,308.1 L 657.5,347.4 L 671.5,343.8 Z" style="fill:#FF0000;fill-rule:evenodd;fill-opacity:1;stroke:#FF0000;stroke-width:0.5px;stroke-linecap:butt;stroke-linejoin:miter;stroke-opacity:1;"/>
<path class="bond-12 atom-12 atom-13" d="M 658.6,308.1 L 651.6,309.9 L 657.5,347.4 Z" style="fill:#FF0000;fill-rule:evenodd;fill-opacity:1;stroke:#FF0000;stroke-width:0.5px;stroke-linecap:butt;stroke-linejoin:miter;stroke-opacity:1;"/>
<path class="bond-13 atom-12 atom-2" d="M 645.7,272.4 L 552.8,246.5" style="fill:none;fill-rule:evenodd;stroke:#000000;stroke-width:2.0px;stroke-linecap:butt;stroke-linejoin:miter;stroke-opacity:1"/>
<path d="M 551.6,241.8 L 552.8,246.5 L 557.4,247.8" style="fill:none;stroke:#000000;stroke-width:2.0px;stroke-linecap:butt;stroke-linejoin:miter;stroke-opacity:1;"/>
<path d="M 440.5,128.5 L 435.8,127.2 L 435.3,125.3" style="fill:none;stroke:#000000;stroke-width:2.0px;stroke-linecap:butt;stroke-linejoin:miter;stroke-opacity:1;"/>
<path d="M 713.3,200.2 L 714.5,204.9 L 711.1,208.2" style="fill:none;stroke:#000000;stroke-width:2.0px;stroke-linecap:butt;stroke-linejoin:miter;stroke-opacity:1;"/>
<path d="M 649.1,269.0 L 645.7,272.4 L 641.0,271.1" style="fill:none;stroke:#000000;stroke-width:2.0px;stroke-linecap:butt;stroke-linejoin:miter;stroke-opacity:1;"/>
<path class="atom-0" d="M 385.8 285.1 L 389.9 281.0 L 384.5 279.9 L 385.3 277.2 L 390.2 279.6 L 389.5 274.3 L 392.4 274.2 L 391.6 279.6 L 396.6 277.3 L 397.5 279.9 L 392.1 280.9 L 395.9 285.0 L 393.6 286.7 L 390.9 281.6 L 388.2 286.7 L 385.8 285.1 " fill="#191919"/>
<path class="atom-1" d="M 471.4 314.1 Q 471.4 307.5, 474.6 303.8 Q 477.8 300.2, 483.9 300.2 Q 489.9 300.2, 493.2 303.8 Q 496.4 307.5, 496.4 314.1 Q 496.4 320.7, 493.1 324.5 Q 489.9 328.2, 483.9 328.2 Q 477.9 328.2, 474.6 324.5 Q 471.4 320.7, 471.4 314.1 M 483.9 325.1 Q 488.1 325.1, 490.3 322.4 Q 492.6 319.5, 492.6 314.1 Q 492.6 308.7, 490.3 306.0 Q 488.1 303.3, 483.9 303.3 Q 479.7 303.3, 477.4 306.0 Q 475.2 308.7, 475.2 314.1 Q 475.2 319.6, 477.4 322.4 Q 479.7 325.1, 483.9 325.1 " fill="#FF0000"/>
<path class="atom-5" d="M 354.4 194.8 Q 354.4 188.2, 357.7 184.6 Q 360.9 180.9, 367.0 180.9 Q 373.0 180.9, 376.3 184.6 Q 379.5 188.2, 379.5 194.8 Q 379.5 201.4, 376.2 205.2 Q 372.9 208.9, 367.0 208.9 Q 360.9 208.9, 357.7 205.2 Q 354.4 201.5, 354.4 194.8 M 367.0 205.9 Q 371.1 205.9, 373.4 203.1 Q 375.6 200.3, 375.6 194.8 Q 375.6 189.4, 373.4 186.7 Q 371.1 184.0, 367.0 184.0 Q 362.8 184.0, 360.5 186.7 Q 358.3 189.4, 358.3 194.8 Q 358.3 200.3, 360.5 203.1 Q 362.8 205.9, 367.0 205.9 " fill="#FF0000"/>
<path class="atom-6" d="M 399.3 33.9 Q 399.3 27.3, 402.5 23.7 Q 405.7 20.0, 411.8 20.0 Q 417.9 20.0, 421.1 23.7 Q 424.3 27.3, 424.3 33.9 Q 424.3 40.5, 421.1 44.3 Q 417.8 48.0, 411.8 48.0 Q 405.8 48.0, 402.5 44.3 Q 399.3 40.6, 399.3 33.9 M 411.8 45.0 Q 416.0 45.0, 418.2 42.2 Q 420.5 39.4, 420.5 33.9 Q 420.5 28.5, 418.2 25.8 Q 416.0 23.1, 411.8 23.1 Q 407.6 23.1, 405.4 25.8 Q 403.1 28.5, 403.1 33.9 Q 403.1 39.4, 405.4 42.2 Q 407.6 45.0, 411.8 45.0 " fill="#FF0000"/>
<path class="atom-6" d="M 428.6 20.3 L 432.3 20.3 L 432.3 31.9 L 446.3 31.9 L 446.3 20.3 L 450.0 20.3 L 450.0 47.6 L 446.3 47.6 L 446.3 35.0 L 432.3 35.0 L 432.3 47.6 L 428.6 47.6 L 428.6 20.3 " fill="#FF0000"/>
<path class="atom-7" d="M 585.1 85.7 Q 585.1 79.1, 588.3 75.4 Q 591.5 71.8, 597.6 71.8 Q 603.6 71.8, 606.9 75.4 Q 610.1 79.1, 610.1 85.7 Q 610.1 92.3, 606.8 96.1 Q 603.6 99.8, 597.6 99.8 Q 591.6 99.8, 588.3 96.1 Q 585.1 92.3, 585.1 85.7 M 597.6 96.7 Q 601.8 96.7, 604.0 94.0 Q 606.3 91.1, 606.3 85.7 Q 606.3 80.3, 604.0 77.6 Q 601.8 74.9, 597.6 74.9 Q 593.4 74.9, 591.1 77.6 Q 588.9 80.3, 588.9 85.7 Q 588.9 91.2, 591.1 94.0 Q 593.4 96.7, 597.6 96.7 " fill="#FF0000"/>
<path class="atom-9" d="M 754.2 40.9 L 758.2 36.8 L 752.9 35.7 L 753.7 33.0 L 758.6 35.5 L 757.9 30.1 L 760.8 30.1 L 760.0 35.4 L 765.0 33.1 L 765.8 35.7 L 760.4 36.7 L 764.3 40.9 L 761.9 42.6 L 759.3 37.5 L 756.6 42.6 L 754.2 40.9 " fill="#191919"/>
<path class="atom-11" d="M 794.9 230.8 Q 794.9 224.3, 798.1 220.6 Q 801.4 216.9, 807.4 216.9 Q 813.5 216.9, 816.7 220.6 Q 820.0 224.3, 820.0 230.8 Q 820.0 237.5, 816.7 241.2 Q 813.4 245.0, 807.4 245.0 Q 801.4 245.0, 798.1 241.2 Q 794.9 237.5, 794.9 230.8 M 807.4 241.9 Q 811.6 241.9, 813.8 239.1 Q 816.1 236.3, 816.1 230.8 Q 816.1 225.5, 813.8 222.8 Q 811.6 220.0, 807.4 220.0 Q 803.3 220.0, 801.0 222.7 Q 798.7 225.4, 798.7 230.8 Q 798.7 236.3, 801.0 239.1 Q 803.3 241.9, 807.4 241.9 " fill="#FF0000"/>
<path class="atom-11" d="M 824.2 217.2 L 827.9 217.2 L 827.9 228.9 L 841.9 228.9 L 841.9 217.2 L 845.6 217.2 L 845.6 244.6 L 841.9 244.6 L 841.9 231.9 L 827.9 231.9 L 827.9 244.6 L 824.2 244.6 L 824.2 217.2 " fill="#FF0000"/>
<path class="atom-13" d="M 657.1 365.8 Q 657.1 359.3, 660.4 355.6 Q 663.6 352.0, 669.7 352.0 Q 675.7 352.0, 679.0 355.6 Q 682.2 359.3, 682.2 365.8 Q 682.2 372.5, 678.9 376.3 Q 675.7 380.0, 669.7 380.0 Q 663.7 380.0, 660.4 376.3 Q 657.1 372.5, 657.1 365.8 M 669.7 376.9 Q 673.9 376.9, 676.1 374.1 Q 678.4 371.3, 678.4 365.8 Q 678.4 360.5, 676.1 357.8 Q 673.9 355.0, 669.7 355.0 Q 665.5 355.0, 663.2 357.7 Q 661.0 360.4, 661.0 365.8 Q 661.0 371.4, 663.2 374.1 Q 665.5 376.9, 669.7 376.9 " fill="#FF0000"/>
<path class="atom-13" d="M 686.5 352.3 L 690.2 352.3 L 690.2 363.9 L 704.1 363.9 L 704.1 352.3 L 707.8 352.3 L 707.8 379.6 L 704.1 379.6 L 704.1 367.0 L 690.2 367.0 L 690.2 379.6 L 686.5 379.6 L 686.5 352.3 " fill="#FF0000"/>
<path class="bond-0 atom-0 atom-1" d="M 545.6,599.8 L 581.1,599.8" style="fill:none;fill-rule:evenodd;stroke:#191919;stroke-width:2.0px;stroke-linecap:butt;stroke-linejoin:miter;stroke-opacity:1"/>
<path class="bond-0 atom-0 atom-1" d="M 581.1,599.8 L 616.7,599.8" style="fill:none;fill-rule:evenodd;stroke:#FF0000;stroke-width:2.0px;stroke-linecap:butt;stroke-linejoin:miter;stroke-opacity:1"/>
<path class="atom-0" d="M 530.8 596.8 L 534.8 592.7 L 529.5 591.6 L 530.3 588.9 L 535.2 591.3 L 534.5 586.0 L 537.4 585.9 L 536.6 591.3 L 541.5 589.0 L 542.4 591.6 L 537.0 592.6 L 540.9 596.7 L 538.5 598.4 L 535.8 593.3 L 533.1 598.4 L 530.8 596.8 " fill="#191919"/>
<path class="atom-1" d="M 619.8 599.9 Q 619.8 593.3, 623.1 589.7 Q 626.3 586.0, 632.4 586.0 Q 638.4 586.0, 641.7 589.7 Q 644.9 593.3, 644.9 599.9 Q 644.9 606.5, 641.6 610.3 Q 638.3 614.1, 632.4 614.1 Q 626.4 614.1, 623.1 610.3 Q 619.8 606.6, 619.8 599.9 M 632.4 611.0 Q 636.5 611.0, 638.8 608.2 Q 641.0 605.4, 641.0 599.9 Q 641.0 594.5, 638.8 591.8 Q 636.5 589.1, 632.4 589.1 Q 628.2 589.1, 625.9 591.8 Q 623.7 594.5, 623.7 599.9 Q 623.7 605.4, 625.9 608.2 Q 628.2 611.0, 632.4 611.0 " fill="#FF0000"/>
<path class="atom-1" d="M 649.2 586.3 L 652.9 586.3 L 652.9 597.9 L 666.8 597.9 L 666.8 586.3 L 670.5 586.3 L 670.5 613.6 L 666.8 613.6 L 666.8 601.0 L 652.9 601.0 L 652.9 613.6 L 649.2 613.6 L 649.2 586.3 " fill="#FF0000"/>
</svg>