<svg xmlns="http://www.w3.org/2000/svg" xmlns:rdkit="http://www.rdkit.org/xml" xmlns:xlink="http://www.w3.org/1999/xlink" version="1.1" baseProfile="full" xml:space="preserve" width="1200px" height="800px" viewBox="0 0 1200 800">
<!-- END OF HEADER -->
<rect style="opacity:1.0;fill:#FFFFFF;stroke:none" width="1200.0" height="800.0" x="0.0" y="0.0"> </rect>
<path class="bond-0 atom-0 atom-1" d="M 108.5,113.4 L 135.8,136.7" style="fill:none;fill-rule:evenodd;stroke:#191919;stroke-width:2.0px;stroke-linecap:butt;stroke-linejoin:miter;stroke-opacity:1"/>
<path class="bond-0 atom-0 atom-1" d="M 135.8,136.7 L 163.2,160.0" style="fill:none;fill-rule:evenodd;stroke:#FF0000;stroke-width:2.0px;stroke-linecap:butt;stroke-linejoin:miter;stroke-opacity:1"/>
<path class="bond-1 atom-1 atom-2" d="M 194.1,167.8 L 231.1,154.7" style="fill:none;fill-rule:evenodd;stroke:#FF0000;stroke-width:2.0px;stroke-linecap:butt;stroke-linejoin:miter;stroke-opacity:1"/>
<path class="bond-1 atom-1 atom-2" d="M 231.1,154.7 L 268.1,141.6" style="fill:none;fill-rule:evenodd;stroke:#000000;stroke-width:2.0px;stroke-linecap:butt;stroke-linejoin:miter;stroke-opacity:1"/>
<path class="bond-2 atom-2 atom-3" d="M 268.1,141.6 L 340.3,203.2" style="fill:none;fill-rule:evenodd;stroke:#000000;stroke-width:2.0px;stroke-linecap:butt;stroke-linejoin:miter;stroke-opacity:1"/>
<path class="bond-3 atom-3 atom-4" d="M 340.3,203.2 L 429.7,171.5" style="fill:none;fill-rule:evenodd;stroke:#000000;stroke-width:2.0px;stroke-linecap:butt;stroke-linejoin:miter;stroke-opacity:1"/>
<path class="bond-4 atom-4 atom-5" d="M 429.7,171.5 L 501.9,233.2" style="fill:none;fill-rule:evenodd;stroke:#000000;stroke-width:2.0px;stroke-linecap:butt;stroke-linejoin:miter;stroke-opacity:1"/>
<path class="bond-5 atom-5 atom-6" d="M 501.9,233.2 L 538.9,220.1" style="fill:none;fill-rule:evenodd;stroke:#000000;stroke-width:2.0px;stroke-linecap:butt;stroke-linejoin:miter;stroke-opacity:1"/>
<path class="bond-5 atom-5 atom-6" d="M 538.9,220.1 L 575.9,207.0" style="fill:none;fill-rule:evenodd;stroke:#FF0000;stroke-width:2.0px;stroke-linecap:butt;stroke-linejoin:miter;stroke-opacity:1"/>
<path class="bond-6 atom-6 atom-7" d="M 606.8,214.7 L 635.2,238.9" style="fill:none;fill-rule:evenodd;stroke:#FF0000;stroke-width:2.0px;stroke-linecap:butt;stroke-linejoin:miter;stroke-opacity:1"/>
<path class="bond-6 atom-6 atom-7" d="M 635.2,238.9 L 663.5,263.1" style="fill:none;fill-rule:evenodd;stroke:#000000;stroke-width:2.0px;stroke-linecap:butt;stroke-linejoin:miter;stroke-opacity:1"/>
<path class="bond-7 atom-7 atom-8" d="M 657.3,257.8 L 649.8,298.1" style="fill:none;fill-rule:evenodd;stroke:#000000;stroke-width:2.0px;stroke-linecap:butt;stroke-linejoin:miter;stroke-opacity:1"/>
<path class="bond-7 atom-7 atom-8" d="M 649.8,298.1 L 642.3,338.4" style="fill:none;fill-rule:evenodd;stroke:#FF0000;stroke-width:2.0px;stroke-linecap:butt;stroke-linejoin:miter;stroke-opacity:1"/>
<path class="bond-7 atom-7 atom-8" d="M 671.3,260.4 L 663.8,300.7" style="fill:none;fill-rule:evenodd;stroke:#000000;stroke-width:2.0px;stroke-linecap:butt;stroke-linejoin:miter;stroke-opacity:1"/>
<path class="bond-7 atom-7 atom-8" d="M 663.8,300.7 L 656.3,341.0" style="fill:none;fill-rule:evenodd;stroke:#FF0000;stroke-width:2.0px;stroke-linecap:butt;stroke-linejoin:miter;stroke-opacity:1"/>
<path class="bond-8 atom-7 atom-9" d="M 663.5,263.1 L 753.0,231.5" style="fill:none;fill-rule:evenodd;stroke:#000000;stroke-width:2.0px;stroke-linecap:butt;stroke-linejoin:miter;stroke-opacity:1"/>
<path class="bond-9 atom-9 atom-10" d="M 753.0,231.5 L 770.3,138.2" style="fill:none;fill-rule:evenodd;stroke:#000000;stroke-width:2.0px;stroke-linecap:butt;stroke-linejoin:miter;stroke-opacity:1"/>
<path class="bond-9 atom-9 atom-10" d="M 768.5,226.0 L 782.8,148.8" style="fill:none;fill-rule:evenodd;stroke:#000000;stroke-width:2.0px;stroke-linecap:butt;stroke-linejoin:miter;stroke-opacity:1"/>
<path class="bond-10 atom-10 atom-11" d="M 770.3,138.2 L 859.7,106.5" style="fill:none;fill-rule:evenodd;stroke:#000000;stroke-width:2.0px;stroke-linecap:butt;stroke-linejoin:miter;stroke-opacity:1"/>
<path class="bond-11 atom-11 atom-12" d="M 859.7,106.5 L 931.9,168.1" style="fill:none;fill-rule:evenodd;stroke:#000000;stroke-width:2.0px;stroke-linecap:butt;stroke-linejoin:miter;stroke-opacity:1"/>
<path class="bond-11 atom-11 atom-12" d="M 856.7,122.6 L 916.4,173.6" style="fill:none;fill-rule:evenodd;stroke:#000000;stroke-width:2.0px;stroke-linecap:butt;stroke-linejoin:miter;stroke-opacity:1"/>
<path class="bond-12 atom-12 atom-13" d="M 931.9,168.1 L 1021.4,136.4" style="fill:none;fill-rule:evenodd;stroke:#000000;stroke-width:2.0px;stroke-linecap:butt;stroke-linejoin:miter;stroke-opacity:1"/>
<path class="bond-13 atom-13 atom-14" d="M 1021.4,136.4 L 1052.7,163.2" style="fill:none;fill-rule:evenodd;stroke:#000000;stroke-width:2.0px;stroke-linecap:butt;stroke-linejoin:miter;stroke-opacity:1"/>
<path class="bond-13 atom-13 atom-14" d="M 1052.7,163.2 L 1084.0,190.0" style="fill:none;fill-rule:evenodd;stroke:#191919;stroke-width:2.0px;stroke-linecap:butt;stroke-linejoin:miter;stroke-opacity:1"/>
<path class="bond-14 atom-13 atom-15" d="M 1027.6,141.8 L 1035.1,101.7" style="fill:none;fill-rule:evenodd;stroke:#000000;stroke-width:2.0px;stroke-linecap:butt;stroke-linejoin:miter;stroke-opacity:1"/>
<path class="bond-14 atom-13 atom-15" d="M 1035.1,101.7 L 1042.5,61.6" style="fill:none;fill-rule:evenodd;stroke:#FF0000;stroke-width:2.0px;stroke-linecap:butt;stroke-linejoin:miter;stroke-opacity:1"/>
<path class="bond-14 atom-13 atom-15" d="M 1013.6,139.2 L 1021.1,99.1" style="fill:none;fill-rule:evenodd;stroke:#000000;stroke-width:2.0px;stroke-linecap:butt;stroke-linejoin:miter;stroke-opacity:1"/>
<path class="bond-14 atom-13 atom-15" d="M 1021.1,99.1 L 1028.5,59.0" style="fill:none;fill-rule:evenodd;stroke:#FF0000;stroke-width:2.0px;stroke-linecap:butt;stroke-linejoin:miter;stroke-opacity:1"/>
<path class="bond-15 atom-12 atom-16" d="M 931.9,168.1 L 914.6,261.4" style="fill:none;fill-rule:evenodd;stroke:#000000;stroke-width:2.0px;stroke-linecap:butt;stroke-linejoin:miter;stroke-opacity:1"/>
<path class="bond-16 atom-16 atom-17" d="M 914.6,261.4 L 825.1,293.1" style="fill:none;fill-rule:evenodd;stroke:#000000;stroke-width:2.0px;stroke-linecap:butt;stroke-linejoin:miter;stroke-opacity:1"/>
<path class="bond-16 atom-16 atom-17" d="M 902.1,250.8 L 828.1,276.9" style="fill:none;fill-rule:evenodd;stroke:#000000;stroke-width:2.0px;stroke-linecap:butt;stroke-linejoin:miter;stroke-opacity:1"/>
<path class="bond-17 atom-17 atom-9" d="M 825.1,293.1 L 753.0,231.5" style="fill:none;fill-rule:evenodd;stroke:#000000;stroke-width:2.0px;stroke-linecap:butt;stroke-linejoin:miter;stroke-opacity:1"/>
<path d="M 266.2,142.2 L 268.1,141.6 L 271.7,144.7" style="fill:none;stroke:#000000;stroke-width:2.0px;stroke-linecap:butt;stroke-linejoin:miter;stroke-opacity:1;"/>
<path d="M 336.6,200.1 L 340.3,203.2 L 344.7,201.6" style="fill:none;stroke:#000000;stroke-width:2.0px;stroke-linecap:butt;stroke-linejoin:miter;stroke-opacity:1;"/>
<path d="M 425.2,173.1 L 429.7,171.5 L 433.3,174.6" style="fill:none;stroke:#000000;stroke-width:2.0px;stroke-linecap:butt;stroke-linejoin:miter;stroke-opacity:1;"/>
<path d="M 498.3,230.1 L 501.9,233.2 L 503.7,232.5" style="fill:none;stroke:#000000;stroke-width:2.0px;stroke-linecap:butt;stroke-linejoin:miter;stroke-opacity:1;"/>
<path d="M 662.1,261.9 L 663.5,263.1 L 668.0,261.6" style="fill:none;stroke:#000000;stroke-width:2.0px;stroke-linecap:butt;stroke-linejoin:miter;stroke-opacity:1;"/>
<path d="M 769.4,142.8 L 770.3,138.2 L 774.8,136.6" style="fill:none;stroke:#000000;stroke-width:2.0px;stroke-linecap:butt;stroke-linejoin:miter;stroke-opacity:1;"/>
<path d="M 855.3,108.1 L 859.7,106.5 L 863.4,109.6" style="fill:none;stroke:#000000;stroke-width:2.0px;stroke-linecap:butt;stroke-linejoin:miter;stroke-opacity:1;"/>
<path d="M 1016.9,138.0 L 1021.4,136.4 L 1022.9,137.8" style="fill:none;stroke:#000000;stroke-width:2.0px;stroke-linecap:butt;stroke-linejoin:miter;stroke-opacity:1;"/>
<path d="M 915.5,256.8 L 914.6,261.4 L 910.1,263.0" style="fill:none;stroke:#000000;stroke-width:2.0px;stroke-linecap:butt;stroke-linejoin:miter;stroke-opacity:1;"/>
<path d="M 829.6,291.5 L 825.1,293.1 L 821.5,290.0" style="fill:none;stroke:#000000;stroke-width:2.0px;stroke-linecap:butt;stroke-linejoin:miter;stroke-opacity:1;"/>
<path class="atom-0" d="M 101.4 108.6 L 105.3 104.6 L 100.1 103.5 L 100.9 100.8 L 105.7 103.3 L 105.0 98.0 L 107.9 98.0 L 107.1 103.2 L 112.0 100.9 L 112.8 103.5 L 107.5 104.5 L 111.3 108.6 L 109.0 110.3 L 106.4 105.2 L 103.7 110.3 L 101.4 108.6 " fill="#191919"/>
<path class="atom-1" d="M 166.3 173.3 Q 166.3 166.9, 169.5 163.3 Q 172.7 159.7, 178.6 159.7 Q 184.6 159.7, 187.8 163.3 Q 191.0 166.9, 191.0 173.3 Q 191.0 179.9, 187.7 183.6 Q 184.5 187.3, 178.6 187.3 Q 172.7 187.3, 169.5 183.6 Q 166.3 179.9, 166.3 173.3 M 178.6 184.2 Q 182.7 184.2, 184.9 181.5 Q 187.2 178.7, 187.2 173.3 Q 187.2 168.1, 184.9 165.4 Q 182.7 162.7, 178.6 162.7 Q 174.5 162.7, 172.3 165.4 Q 170.1 168.0, 170.1 173.3 Q 170.1 178.8, 172.3 181.5 Q 174.5 184.2, 178.6 184.2 " fill="#FF0000"/>
<path class="atom-6" d="M 579.0 201.6 Q 579.0 195.1, 582.2 191.5 Q 585.4 187.9, 591.4 187.9 Q 597.3 187.9, 600.5 191.5 Q 603.7 195.1, 603.7 201.6 Q 603.7 208.1, 600.5 211.8 Q 597.2 215.5, 591.4 215.5 Q 585.4 215.5, 582.2 211.8 Q 579.0 208.1, 579.0 201.6 M 591.4 212.5 Q 595.5 212.5, 597.7 209.7 Q 599.9 207.0, 599.9 201.6 Q 599.9 196.3, 597.7 193.6 Q 595.5 191.0, 591.4 191.0 Q 587.3 191.0, 585.0 193.6 Q 582.8 196.3, 582.8 201.6 Q 582.8 207.0, 585.0 209.7 Q 587.3 212.5, 591.4 212.5 " fill="#FF0000"/>
<path class="atom-8" d="M 633.9 356.5 Q 633.9 350.1, 637.1 346.5 Q 640.3 342.9, 646.2 342.9 Q 652.2 342.9, 655.4 346.5 Q 658.6 350.1, 658.6 356.5 Q 658.6 363.1, 655.3 366.8 Q 652.1 370.5, 646.2 370.5 Q 640.3 370.5, 637.1 366.8 Q 633.9 363.1, 633.9 356.5 M 646.2 367.4 Q 650.3 367.4, 652.5 364.7 Q 654.8 361.9, 654.8 356.5 Q 654.8 351.3, 652.5 348.6 Q 650.3 345.9, 646.2 345.9 Q 642.1 345.9, 639.9 348.6 Q 637.7 351.2, 637.7 356.5 Q 637.7 362.0, 639.9 364.7 Q 642.1 367.4, 646.2 367.4 " fill="#FF0000"/>
<path class="atom-14" d="M 1088.5 195.1 L 1092.4 191.1 L 1087.2 190.0 L 1088.0 187.3 L 1092.8 189.7 L 1092.1 184.4 L 1095.0 184.4 L 1094.2 189.7 L 1099.1 187.4 L 1099.9 190.0 L 1094.6 191.0 L 1098.4 195.0 L 1096.1 196.7 L 1093.4 191.7 L 1090.8 196.7 L 1088.5 195.1 " fill="#191919"/>
<path class="atom-15" d="M 1026.3 43.2 Q 1026.3 36.7, 1029.5 33.1 Q 1032.7 29.5, 1038.7 29.5 Q 1044.6 29.5, 1047.8 33.1 Q 1051.0 36.7, 1051.0 43.2 Q 1051.0 49.7, 1047.8 53.4 Q 1044.6 57.1, 1038.7 57.1 Q 1032.8 57.1, 1029.5 53.4 Q 1026.3 49.8, 1026.3 43.2 M 1038.7 54.1 Q 1042.8 54.1, 1045.0 51.4 Q 1047.2 48.6, 1047.2 43.2 Q 1047.2 37.9, 1045.0 35.3 Q 1042.8 32.6, 1038.7 32.6 Q 1034.6 32.6, 1032.3 35.2 Q 1030.1 37.9, 1030.1 43.2 Q 1030.1 48.6, 1032.3 51.4 Q 1034.6 54.1, 1038.7 54.1 " fill="#FF0000"/>
<path class="bond-0 atom-0 atom-1" d="M 1130.7,561.6 L 1099.3,580.7" style="fill:none;fill-rule:evenodd;stroke:#191919;stroke-width:2.0px;stroke-linecap:butt;stroke-linejoin:miter;stroke-opacity:1"/>
<path class="bond-0 atom-0 atom-1" d="M 1099.3,580.7 L 1067.9,599.7" style="fill:none;fill-rule:evenodd;stroke:#FF0000;stroke-width:2.0px;stroke-linecap:butt;stroke-linejoin:miter;stroke-opacity:1"/>
<path class="bond-1 atom-1 atom-2" d="M 1037.0,600.5 L 1003.1,581.9" style="fill:none;fill-rule:evenodd;stroke:#FF0000;stroke-width:2.0px;stroke-linecap:butt;stroke-linejoin:miter;stroke-opacity:1"/>
<path class="bond-1 atom-1 atom-2" d="M 1003.1,581.9 L 969.3,563.3" style="fill:none;fill-rule:evenodd;stroke:#000000;stroke-width:2.0px;stroke-linecap:butt;stroke-linejoin:miter;stroke-opacity:1"/>
<path class="bond-2 atom-2 atom-3" d="M 969.3,563.3 L 888.1,612.4" style="fill:none;fill-rule:evenodd;stroke:#000000;stroke-width:2.0px;stroke-linecap:butt;stroke-linejoin:miter;stroke-opacity:1"/>
<path class="bond-3 atom-3 atom-4" d="M 888.1,612.4 L 804.9,566.7" style="fill:none;fill-rule:evenodd;stroke:#000000;stroke-width:2.0px;stroke-linecap:butt;stroke-linejoin:miter;stroke-opacity:1"/>
<path class="bond-4 atom-4 atom-5" d="M 804.9,566.7 L 723.8,615.8" style="fill:none;fill-rule:evenodd;stroke:#000000;stroke-width:2.0px;stroke-linecap:butt;stroke-linejoin:miter;stroke-opacity:1"/>
<path class="bond-5 atom-5 atom-6" d="M 723.8,615.8 L 689.9,597.2" style="fill:none;fill-rule:evenodd;stroke:#000000;stroke-width:2.0px;stroke-linecap:butt;stroke-linejoin:miter;stroke-opacity:1"/>
<path class="bond-5 atom-5 atom-6" d="M 689.9,597.2 L 656.1,578.6" style="fill:none;fill-rule:evenodd;stroke:#FF0000;stroke-width:2.0px;stroke-linecap:butt;stroke-linejoin:miter;stroke-opacity:1"/>
<path class="bond-6 atom-6 atom-7" d="M 625.1,579.5 L 592.3,599.4" style="fill:none;fill-rule:evenodd;stroke:#FF0000;stroke-width:2.0px;stroke-linecap:butt;stroke-linejoin:miter;stroke-opacity:1"/>
<path class="bond-6 atom-6 atom-7" d="M 592.3,599.4 L 559.4,619.3" style="fill:none;fill-rule:evenodd;stroke:#000000;stroke-width:2.0px;stroke-linecap:butt;stroke-linejoin:miter;stroke-opacity:1"/>
<path class="bond-7 atom-7 atom-8" d="M 552.2,615.3 L 553.1,656.4" style="fill:none;fill-rule:evenodd;stroke:#000000;stroke-width:2.0px;stroke-linecap:butt;stroke-linejoin:miter;stroke-opacity:1"/>
<path class="bond-7 atom-7 atom-8" d="M 553.1,656.4 L 553.9,697.6" style="fill:none;fill-rule:evenodd;stroke:#FF0000;stroke-width:2.0px;stroke-linecap:butt;stroke-linejoin:miter;stroke-opacity:1"/>
<path class="bond-7 atom-7 atom-8" d="M 566.4,615.0 L 567.3,656.1" style="fill:none;fill-rule:evenodd;stroke:#000000;stroke-width:2.0px;stroke-linecap:butt;stroke-linejoin:miter;stroke-opacity:1"/>
<path class="bond-7 atom-7 atom-8" d="M 567.3,656.1 L 568.1,697.3" style="fill:none;fill-rule:evenodd;stroke:#FF0000;stroke-width:2.0px;stroke-linecap:butt;stroke-linejoin:miter;stroke-opacity:1"/>
<path class="bond-8 atom-7 atom-9" d="M 559.4,619.3 L 476.2,573.5" style="fill:none;fill-rule:evenodd;stroke:#000000;stroke-width:2.0px;stroke-linecap:butt;stroke-linejoin:miter;stroke-opacity:1"/>
<path class="bond-9 atom-9 atom-10" d="M 476.2,573.5 L 395.1,622.7" style="fill:none;fill-rule:evenodd;stroke:#000000;stroke-width:2.0px;stroke-linecap:butt;stroke-linejoin:miter;stroke-opacity:1"/>
<path class="bond-10 atom-10 atom-11" d="M 395.1,622.7 L 311.9,576.9" style="fill:none;fill-rule:evenodd;stroke:#000000;stroke-width:2.0px;stroke-linecap:butt;stroke-linejoin:miter;stroke-opacity:1"/>
<path class="bond-11 atom-11 atom-12" d="M 311.9,576.9 L 230.7,626.1" style="fill:none;fill-rule:evenodd;stroke:#000000;stroke-width:2.0px;stroke-linecap:butt;stroke-linejoin:miter;stroke-opacity:1"/>
<path class="bond-12 atom-12 atom-13" d="M 230.7,626.1 L 147.5,580.3" style="fill:none;fill-rule:evenodd;stroke:#000000;stroke-width:2.0px;stroke-linecap:butt;stroke-linejoin:miter;stroke-opacity:1"/>
<path class="bond-13 atom-13 atom-14" d="M 147.5,580.3 L 111.7,602.0" style="fill:none;fill-rule:evenodd;stroke:#000000;stroke-width:2.0px;stroke-linecap:butt;stroke-linejoin:miter;stroke-opacity:1"/>
<path class="bond-13 atom-13 atom-14" d="M 111.7,602.0 L 75.8,623.7" style="fill:none;fill-rule:evenodd;stroke:#191919;stroke-width:2.0px;stroke-linecap:butt;stroke-linejoin:miter;stroke-opacity:1"/>
<path class="bond-14 atom-13 atom-15" d="M 154.8,584.3 L 153.9,543.4" style="fill:none;fill-rule:evenodd;stroke:#000000;stroke-width:2.0px;stroke-linecap:butt;stroke-linejoin:miter;stroke-opacity:1"/>
<path class="bond-14 atom-13 atom-15" d="M 153.9,543.4 L 153.1,502.4" style="fill:none;fill-rule:evenodd;stroke:#FF0000;stroke-width:2.0px;stroke-linecap:butt;stroke-linejoin:miter;stroke-opacity:1"/>
<path class="bond-14 atom-13 atom-15" d="M 140.5,584.6 L 139.7,543.7" style="fill:none;fill-rule:evenodd;stroke:#000000;stroke-width:2.0px;stroke-linecap:butt;stroke-linejoin:miter;stroke-opacity:1"/>
<path class="bond-14 atom-13 atom-15" d="M 139.7,543.7 L 138.8,502.7" style="fill:none;fill-rule:evenodd;stroke:#FF0000;stroke-width:2.0px;stroke-linecap:butt;stroke-linejoin:miter;stroke-opacity:1"/>
<path d="M 971.0,564.2 L 969.3,563.3 L 965.2,565.7" style="fill:none;stroke:#000000;stroke-width:2.0px;stroke-linecap:butt;stroke-linejoin:miter;stroke-opacity:1;"/>
<path d="M 892.2,610.0 L 888.1,612.4 L 883.9,610.1" style="fill:none;stroke:#000000;stroke-width:2.0px;stroke-linecap:butt;stroke-linejoin:miter;stroke-opacity:1;"/>
<path d="M 809.1,569.0 L 804.9,566.7 L 800.9,569.2" style="fill:none;stroke:#000000;stroke-width:2.0px;stroke-linecap:butt;stroke-linejoin:miter;stroke-opacity:1;"/>
<path d="M 727.8,613.4 L 723.8,615.8 L 722.1,614.9" style="fill:none;stroke:#000000;stroke-width:2.0px;stroke-linecap:butt;stroke-linejoin:miter;stroke-opacity:1;"/>
<path d="M 561.0,618.3 L 559.4,619.3 L 555.2,617.0" style="fill:none;stroke:#000000;stroke-width:2.0px;stroke-linecap:butt;stroke-linejoin:miter;stroke-opacity:1;"/>
<path d="M 480.4,575.8 L 476.2,573.5 L 472.2,576.0" style="fill:none;stroke:#000000;stroke-width:2.0px;stroke-linecap:butt;stroke-linejoin:miter;stroke-opacity:1;"/>
<path d="M 399.1,620.2 L 395.1,622.7 L 390.9,620.4" style="fill:none;stroke:#000000;stroke-width:2.0px;stroke-linecap:butt;stroke-linejoin:miter;stroke-opacity:1;"/>
<path d="M 316.1,579.2 L 311.9,576.9 L 307.8,579.4" style="fill:none;stroke:#000000;stroke-width:2.0px;stroke-linecap:butt;stroke-linejoin:miter;stroke-opacity:1;"/>
<path d="M 234.8,623.6 L 230.7,626.1 L 226.5,623.8" style="fill:none;stroke:#000000;stroke-width:2.0px;stroke-linecap:butt;stroke-linejoin:miter;stroke-opacity:1;"/>
<path d="M 151.7,582.6 L 147.5,580.3 L 145.8,581.4" style="fill:none;stroke:#000000;stroke-width:2.0px;stroke-linecap:butt;stroke-linejoin:miter;stroke-opacity:1;"/>
<path class="atom-0" d="M 1128.6 556.9 L 1132.5 552.9 L 1127.3 551.8 L 1128.1 549.1 L 1132.9 551.5 L 1132.2 546.2 L 1135.1 546.2 L 1134.3 551.5 L 1139.2 549.2 L 1140.0 551.8 L 1134.7 552.8 L 1138.5 556.8 L 1136.2 558.5 L 1133.5 553.5 L 1130.9 558.5 L 1128.6 556.9 " fill="#191919"/>
<path class="atom-1" d="M 1040.1 609.1 Q 1040.1 602.6, 1043.3 599.0 Q 1046.5 595.4, 1052.5 595.4 Q 1058.4 595.4, 1061.6 599.0 Q 1064.8 602.6, 1064.8 609.1 Q 1064.8 615.6, 1061.6 619.4 Q 1058.3 623.0, 1052.5 623.0 Q 1046.5 623.0, 1043.3 619.4 Q 1040.1 615.7, 1040.1 609.1 M 1052.5 620.0 Q 1056.6 620.0, 1058.8 617.3 Q 1061.0 614.5, 1061.0 609.1 Q 1061.0 603.8, 1058.8 601.2 Q 1056.6 598.5, 1052.5 598.5 Q 1048.4 598.5, 1046.1 601.1 Q 1043.9 603.8, 1043.9 609.1 Q 1043.9 614.5, 1046.1 617.3 Q 1048.4 620.0, 1052.5 620.0 " fill="#FF0000"/>
<path class="atom-6" d="M 628.3 570.2 Q 628.3 563.7, 631.4 560.1 Q 634.6 556.5, 640.6 556.5 Q 646.6 556.5, 649.7 560.1 Q 652.9 563.7, 652.9 570.2 Q 652.9 576.7, 649.7 580.4 Q 646.5 584.1, 640.6 584.1 Q 634.7 584.1, 631.4 580.4 Q 628.3 576.7, 628.3 570.2 M 640.6 581.1 Q 644.7 581.1, 646.9 578.3 Q 649.1 575.6, 649.1 570.2 Q 649.1 564.9, 646.9 562.2 Q 644.7 559.6, 640.6 559.6 Q 636.5 559.6, 634.3 562.2 Q 632.1 564.9, 632.1 570.2 Q 632.1 575.6, 634.3 578.3 Q 636.5 581.1, 640.6 581.1 " fill="#FF0000"/>
<path class="atom-8" d="M 549.0 714.2 Q 549.0 707.8, 552.2 704.2 Q 555.4 700.5, 561.4 700.5 Q 567.3 700.5, 570.5 704.2 Q 573.7 707.8, 573.7 714.2 Q 573.7 720.7, 570.5 724.5 Q 567.3 728.1, 561.4 728.1 Q 555.5 728.1, 552.2 724.5 Q 549.0 720.8, 549.0 714.2 M 561.4 725.1 Q 565.5 725.1, 567.7 722.4 Q 569.9 719.6, 569.9 714.2 Q 569.9 708.9, 567.7 706.3 Q 565.5 703.6, 561.4 703.6 Q 557.3 703.6, 555.0 706.2 Q 552.8 708.9, 552.8 714.2 Q 552.8 719.6, 555.0 722.4 Q 557.3 725.1, 561.4 725.1 " fill="#FF0000"/>
<path class="atom-14" d="M 61.3 626.5 L 65.2 622.5 L 60.0 621.4 L 60.8 618.7 L 65.6 621.1 L 64.9 615.8 L 67.8 615.8 L 67.0 621.1 L 71.9 618.8 L 72.7 621.4 L 67.4 622.4 L 71.2 626.4 L 68.9 628.1 L 66.3 623.1 L 63.6 628.1 L 61.3 626.5 " fill="#191919"/>
<path class="atom-15" d="M 133.2 485.5 Q 133.2 479.1, 136.4 475.5 Q 139.6 471.9, 145.6 471.9 Q 151.5 471.9, 154.7 475.5 Q 157.9 479.1, 157.9 485.5 Q 157.9 492.0, 154.7 495.8 Q 151.5 499.5, 145.6 499.5 Q 139.7 499.5, 136.4 495.8 Q 133.2 492.1, 133.2 485.5 M 145.6 496.4 Q 149.7 496.4, 151.9 493.7 Q 154.1 490.9, 154.1 485.5 Q 154.1 480.2, 151.9 477.6 Q 149.7 474.9, 145.6 474.9 Q 141.5 474.9, 139.2 477.5 Q 137.0 480.2, 137.0 485.5 Q 137.0 490.9, 139.2 493.7 Q 141.5 496.4, 145.6 496.4 " fill="#FF0000"/>
</svg>