<svg xmlns="http://www.w3.org/2000/svg" xmlns:rdkit="http://www.rdkit.org/xml" xmlns:xlink="http://www.w3.org/1999/xlink" version="1.1" baseProfile="full" xml:space="preserve" width="1200px" height="800px" viewBox="0 0 1200 800">
<!-- END OF HEADER -->
<rect style="opacity:1.0;fill:#FFFFFF;stroke:none" width="1200.0" height="800.0" x="0.0" y="0.0"> </rect>
<path class="bond-0 atom-0 atom-1" d="M 401.9,367.3 L 418.6,367.8" style="fill:none;fill-rule:evenodd;stroke:#191919;stroke-width:2.0px;stroke-linecap:butt;stroke-linejoin:miter;stroke-opacity:1"/>
<path class="bond-0 atom-0 atom-1" d="M 418.6,367.8 L 435.3,368.4" style="fill:none;fill-rule:evenodd;stroke:#FF0000;stroke-width:2.0px;stroke-linecap:butt;stroke-linejoin:miter;stroke-opacity:1"/>
<path class="bond-1 atom-1 atom-2" d="M 447.7,360.6 L 457.2,345.3" style="fill:none;fill-rule:evenodd;stroke:#FF0000;stroke-width:2.0px;stroke-linecap:butt;stroke-linejoin:miter;stroke-opacity:1"/>
<path class="bond-1 atom-1 atom-2" d="M 457.2,345.3 L 466.7,330.0" style="fill:none;fill-rule:evenodd;stroke:#000000;stroke-width:2.0px;stroke-linecap:butt;stroke-linejoin:miter;stroke-opacity:1"/>
<path class="bond-2 atom-2 atom-3" d="M 466.7,330.0 L 445.2,290.0" style="fill:none;fill-rule:evenodd;stroke:#000000;stroke-width:2.0px;stroke-linecap:butt;stroke-linejoin:miter;stroke-opacity:1"/>
<path class="bond-3 atom-3 atom-4" d="M 445.2,290.0 L 469.1,251.5" style="fill:none;fill-rule:evenodd;stroke:#000000;stroke-width:2.0px;stroke-linecap:butt;stroke-linejoin:miter;stroke-opacity:1"/>
<path class="bond-4 atom-4 atom-5" d="M 469.1,251.5 L 447.7,211.5" style="fill:none;fill-rule:evenodd;stroke:#000000;stroke-width:2.0px;stroke-linecap:butt;stroke-linejoin:miter;stroke-opacity:1"/>
<path class="bond-5 atom-5 atom-6" d="M 447.7,211.5 L 457.1,196.3" style="fill:none;fill-rule:evenodd;stroke:#000000;stroke-width:2.0px;stroke-linecap:butt;stroke-linejoin:miter;stroke-opacity:1"/>
<path class="bond-5 atom-5 atom-6" d="M 457.1,196.3 L 466.5,181.1" style="fill:none;fill-rule:evenodd;stroke:#FF0000;stroke-width:2.0px;stroke-linecap:butt;stroke-linejoin:miter;stroke-opacity:1"/>
<path class="bond-6 atom-4 atom-7" d="M 469.1,251.5 L 514.5,252.9" style="fill:none;fill-rule:evenodd;stroke:#000000;stroke-width:2.0px;stroke-linecap:butt;stroke-linejoin:miter;stroke-opacity:1"/>
<path class="bond-7 atom-7 atom-8" d="M 514.5,252.9 L 523.9,237.7" style="fill:none;fill-rule:evenodd;stroke:#000000;stroke-width:2.0px;stroke-linecap:butt;stroke-linejoin:miter;stroke-opacity:1"/>
<path class="bond-7 atom-7 atom-8" d="M 523.9,237.7 L 533.3,222.5" style="fill:none;fill-rule:evenodd;stroke:#FF0000;stroke-width:2.0px;stroke-linecap:butt;stroke-linejoin:miter;stroke-opacity:1"/>
<path class="bond-8 atom-8 atom-9" d="M 545.8,214.5 L 564.8,215.1" style="fill:none;fill-rule:evenodd;stroke:#FF0000;stroke-width:2.0px;stroke-linecap:butt;stroke-linejoin:miter;stroke-opacity:1"/>
<path class="bond-8 atom-8 atom-9" d="M 564.8,215.1 L 583.8,215.7" style="fill:none;fill-rule:evenodd;stroke:#000000;stroke-width:2.0px;stroke-linecap:butt;stroke-linejoin:miter;stroke-opacity:1"/>
<path class="bond-9 atom-9 atom-10" d="M 583.8,215.7 L 605.2,255.7" style="fill:none;fill-rule:evenodd;stroke:#000000;stroke-width:2.0px;stroke-linecap:butt;stroke-linejoin:miter;stroke-opacity:1"/>
<path class="bond-10 atom-10 atom-11" d="M 605.2,255.7 L 650.6,257.2" style="fill:none;fill-rule:evenodd;stroke:#000000;stroke-width:2.0px;stroke-linecap:butt;stroke-linejoin:miter;stroke-opacity:1"/>
<path class="bond-11 atom-11 atom-12" d="M 650.6,257.2 L 672.0,297.2" style="fill:none;fill-rule:evenodd;stroke:#000000;stroke-width:2.0px;stroke-linecap:butt;stroke-linejoin:miter;stroke-opacity:1"/>
<path class="bond-12 atom-12 atom-13" d="M 672.0,297.2 L 691.0,297.7" style="fill:none;fill-rule:evenodd;stroke:#000000;stroke-width:2.0px;stroke-linecap:butt;stroke-linejoin:miter;stroke-opacity:1"/>
<path class="bond-12 atom-12 atom-13" d="M 691.0,297.7 L 710.0,298.3" style="fill:none;fill-rule:evenodd;stroke:#FF0000;stroke-width:2.0px;stroke-linecap:butt;stroke-linejoin:miter;stroke-opacity:1"/>
<path class="bond-13 atom-13 atom-14" d="M 721.8,306.8 L 730.3,322.7" style="fill:none;fill-rule:evenodd;stroke:#FF0000;stroke-width:2.0px;stroke-linecap:butt;stroke-linejoin:miter;stroke-opacity:1"/>
<path class="bond-13 atom-13 atom-14" d="M 730.3,322.7 L 738.9,338.6" style="fill:none;fill-rule:evenodd;stroke:#000000;stroke-width:2.0px;stroke-linecap:butt;stroke-linejoin:miter;stroke-opacity:1"/>
<path class="bond-14 atom-14 atom-15" d="M 738.9,338.6 L 757.8,339.2" style="fill:none;fill-rule:evenodd;stroke:#000000;stroke-width:2.0px;stroke-linecap:butt;stroke-linejoin:miter;stroke-opacity:1"/>
<path class="bond-14 atom-14 atom-15" d="M 757.8,339.2 L 776.8,339.8" style="fill:none;fill-rule:evenodd;stroke:#FF0000;stroke-width:2.0px;stroke-linecap:butt;stroke-linejoin:miter;stroke-opacity:1"/>
<path class="bond-15 atom-15 atom-16" d="M 788.6,348.2 L 797.1,364.1" style="fill:none;fill-rule:evenodd;stroke:#FF0000;stroke-width:2.0px;stroke-linecap:butt;stroke-linejoin:miter;stroke-opacity:1"/>
<path class="bond-15 atom-15 atom-16" d="M 797.1,364.1 L 805.7,380.0" style="fill:none;fill-rule:evenodd;stroke:#000000;stroke-width:2.0px;stroke-linecap:butt;stroke-linejoin:miter;stroke-opacity:1"/>
<path class="bond-16 atom-11 atom-17" d="M 650.6,257.2 L 674.5,218.6" style="fill:none;fill-rule:evenodd;stroke:#000000;stroke-width:2.0px;stroke-linecap:butt;stroke-linejoin:miter;stroke-opacity:1"/>
<path class="bond-17 atom-17 atom-18" d="M 674.5,218.6 L 694.9,219.2" style="fill:none;fill-rule:evenodd;stroke:#000000;stroke-width:2.0px;stroke-linecap:butt;stroke-linejoin:miter;stroke-opacity:1"/>
<path class="bond-17 atom-17 atom-18" d="M 694.9,219.2 L 715.3,219.9" style="fill:none;fill-rule:evenodd;stroke:#191919;stroke-width:2.0px;stroke-linecap:butt;stroke-linejoin:miter;stroke-opacity:1"/>
<path class="bond-18 atom-17 atom-19" d="M 674.5,218.6 L 653.1,178.6" style="fill:none;fill-rule:evenodd;stroke:#000000;stroke-width:2.0px;stroke-linecap:butt;stroke-linejoin:miter;stroke-opacity:1"/>
<path class="bond-19 atom-19 atom-20" d="M 653.1,178.6 L 662.5,163.4" style="fill:none;fill-rule:evenodd;stroke:#000000;stroke-width:2.0px;stroke-linecap:butt;stroke-linejoin:miter;stroke-opacity:1"/>
<path class="bond-19 atom-19 atom-20" d="M 662.5,163.4 L 671.9,148.2" style="fill:none;fill-rule:evenodd;stroke:#FF0000;stroke-width:2.0px;stroke-linecap:butt;stroke-linejoin:miter;stroke-opacity:1"/>
<path class="bond-20 atom-19 atom-21" d="M 653.1,178.6 L 607.7,177.2" style="fill:none;fill-rule:evenodd;stroke:#000000;stroke-width:2.0px;stroke-linecap:butt;stroke-linejoin:miter;stroke-opacity:1"/>
<path class="bond-21 atom-21 atom-22" d="M 607.7,177.2 L 599.2,161.2" style="fill:none;fill-rule:evenodd;stroke:#000000;stroke-width:2.0px;stroke-linecap:butt;stroke-linejoin:miter;stroke-opacity:1"/>
<path class="bond-21 atom-21 atom-22" d="M 599.2,161.2 L 590.6,145.3" style="fill:none;fill-rule:evenodd;stroke:#FF0000;stroke-width:2.0px;stroke-linecap:butt;stroke-linejoin:miter;stroke-opacity:1"/>
<path class="bond-22 atom-22 atom-23" d="M 591.2,129.2 L 600.7,113.9" style="fill:none;fill-rule:evenodd;stroke:#FF0000;stroke-width:2.0px;stroke-linecap:butt;stroke-linejoin:miter;stroke-opacity:1"/>
<path class="bond-22 atom-22 atom-23" d="M 600.7,113.9 L 610.2,98.6" style="fill:none;fill-rule:evenodd;stroke:#000000;stroke-width:2.0px;stroke-linecap:butt;stroke-linejoin:miter;stroke-opacity:1"/>
<path class="bond-23 atom-23 atom-24" d="M 610.2,98.6 L 601.6,82.7" style="fill:none;fill-rule:evenodd;stroke:#000000;stroke-width:2.0px;stroke-linecap:butt;stroke-linejoin:miter;stroke-opacity:1"/>
<path class="bond-23 atom-23 atom-24" d="M 601.6,82.7 L 593.1,66.8" style="fill:none;fill-rule:evenodd;stroke:#FF0000;stroke-width:2.0px;stroke-linecap:butt;stroke-linejoin:miter;stroke-opacity:1"/>
<path class="bond-24 atom-24 atom-25" d="M 593.7,50.6 L 603.1,35.3" style="fill:none;fill-rule:evenodd;stroke:#FF0000;stroke-width:2.0px;stroke-linecap:butt;stroke-linejoin:miter;stroke-opacity:1"/>
<path class="bond-24 atom-24 atom-25" d="M 603.1,35.3 L 612.6,20.0" style="fill:none;fill-rule:evenodd;stroke:#000000;stroke-width:2.0px;stroke-linecap:butt;stroke-linejoin:miter;stroke-opacity:1"/>
<path class="bond-25 atom-7 atom-26" d="M 514.5,252.9 L 535.9,292.9" style="fill:none;fill-rule:evenodd;stroke:#000000;stroke-width:2.0px;stroke-linecap:butt;stroke-linejoin:miter;stroke-opacity:1"/>
<path class="bond-26 atom-26 atom-27" d="M 535.9,292.9 L 554.9,293.5" style="fill:none;fill-rule:evenodd;stroke:#000000;stroke-width:2.0px;stroke-linecap:butt;stroke-linejoin:miter;stroke-opacity:1"/>
<path class="bond-26 atom-26 atom-27" d="M 554.9,293.5 L 573.9,294.1" style="fill:none;fill-rule:evenodd;stroke:#FF0000;stroke-width:2.0px;stroke-linecap:butt;stroke-linejoin:miter;stroke-opacity:1"/>
<path class="bond-27 atom-27 atom-28" d="M 585.7,302.5 L 594.2,318.4" style="fill:none;fill-rule:evenodd;stroke:#FF0000;stroke-width:2.0px;stroke-linecap:butt;stroke-linejoin:miter;stroke-opacity:1"/>
<path class="bond-27 atom-27 atom-28" d="M 594.2,318.4 L 602.8,334.3" style="fill:none;fill-rule:evenodd;stroke:#000000;stroke-width:2.0px;stroke-linecap:butt;stroke-linejoin:miter;stroke-opacity:1"/>
<path class="bond-28 atom-28 atom-29" d="M 602.8,334.3 L 621.7,334.9" style="fill:none;fill-rule:evenodd;stroke:#000000;stroke-width:2.0px;stroke-linecap:butt;stroke-linejoin:miter;stroke-opacity:1"/>
<path class="bond-28 atom-28 atom-29" d="M 621.7,334.9 L 640.7,335.5" style="fill:none;fill-rule:evenodd;stroke:#FF0000;stroke-width:2.0px;stroke-linecap:butt;stroke-linejoin:miter;stroke-opacity:1"/>
<path class="bond-29 atom-29 atom-30" d="M 652.5,343.9 L 661.0,359.8" style="fill:none;fill-rule:evenodd;stroke:#FF0000;stroke-width:2.0px;stroke-linecap:butt;stroke-linejoin:miter;stroke-opacity:1"/>
<path class="bond-29 atom-29 atom-30" d="M 661.0,359.8 L 669.6,375.7" style="fill:none;fill-rule:evenodd;stroke:#000000;stroke-width:2.0px;stroke-linecap:butt;stroke-linejoin:miter;stroke-opacity:1"/>
<path class="bond-30 atom-26 atom-31" d="M 535.9,292.9 L 512.0,331.5" style="fill:none;fill-rule:evenodd;stroke:#000000;stroke-width:2.0px;stroke-linecap:butt;stroke-linejoin:miter;stroke-opacity:1"/>
<path class="bond-31 atom-31 atom-32" d="M 512.0,331.5 L 520.6,347.5" style="fill:none;fill-rule:evenodd;stroke:#000000;stroke-width:2.0px;stroke-linecap:butt;stroke-linejoin:miter;stroke-opacity:1"/>
<path class="bond-31 atom-31 atom-32" d="M 520.6,347.5 L 529.2,363.5" style="fill:none;fill-rule:evenodd;stroke:#FF0000;stroke-width:2.0px;stroke-linecap:butt;stroke-linejoin:miter;stroke-opacity:1"/>
<path class="bond-32 atom-31 atom-2" d="M 512.0,331.5 L 466.7,330.0" style="fill:none;fill-rule:evenodd;stroke:#000000;stroke-width:2.0px;stroke-linecap:butt;stroke-linejoin:miter;stroke-opacity:1"/>
<path class="bond-33 atom-21 atom-9" d="M 607.7,177.2 L 583.8,215.7" style="fill:none;fill-rule:evenodd;stroke:#000000;stroke-width:2.0px;stroke-linecap:butt;stroke-linejoin:miter;stroke-opacity:1"/>
<path d="M 446.3,292.0 L 445.2,290.0 L 446.4,288.1" style="fill:none;stroke:#000000;stroke-width:2.0px;stroke-linecap:butt;stroke-linejoin:miter;stroke-opacity:1;"/>
<path d="M 448.8,213.5 L 447.7,211.5 L 448.1,210.7" style="fill:none;stroke:#000000;stroke-width:2.0px;stroke-linecap:butt;stroke-linejoin:miter;stroke-opacity:1;"/>
<path d="M 604.1,253.7 L 605.2,255.7 L 607.5,255.8" style="fill:none;stroke:#000000;stroke-width:2.0px;stroke-linecap:butt;stroke-linejoin:miter;stroke-opacity:1;"/>
<path d="M 671.0,295.2 L 672.0,297.2 L 673.0,297.2" style="fill:none;stroke:#000000;stroke-width:2.0px;stroke-linecap:butt;stroke-linejoin:miter;stroke-opacity:1;"/>
<path d="M 738.4,337.8 L 738.9,338.6 L 739.8,338.6" style="fill:none;stroke:#000000;stroke-width:2.0px;stroke-linecap:butt;stroke-linejoin:miter;stroke-opacity:1;"/>
<path d="M 609.7,99.3 L 610.2,98.6 L 609.7,97.8" style="fill:none;stroke:#000000;stroke-width:2.0px;stroke-linecap:butt;stroke-linejoin:miter;stroke-opacity:1;"/>
<path d="M 602.3,333.5 L 602.8,334.3 L 603.7,334.3" style="fill:none;stroke:#000000;stroke-width:2.0px;stroke-linecap:butt;stroke-linejoin:miter;stroke-opacity:1;"/>
<path class="atom-0" d="M 395.0 365.7 L 396.8 363.8 L 394.3 363.3 L 394.7 362.0 L 397.0 363.2 L 396.7 360.7 L 398.1 360.6 L 397.7 363.2 L 400.0 362.1 L 400.4 363.3 L 397.9 363.8 L 399.7 365.7 L 398.6 366.5 L 397.3 364.1 L 396.1 366.5 L 395.0 365.7 " fill="#191919"/>
<path class="atom-1" d="M 436.8 368.6 Q 436.8 365.6, 438.4 363.8 Q 439.9 362.1, 442.7 362.1 Q 445.6 362.1, 447.1 363.8 Q 448.6 365.6, 448.6 368.6 Q 448.6 371.8, 447.1 373.5 Q 445.6 375.3, 442.7 375.3 Q 439.9 375.3, 438.4 373.5 Q 436.8 371.8, 436.8 368.6 M 442.7 373.8 Q 444.7 373.8, 445.8 372.5 Q 446.8 371.2, 446.8 368.6 Q 446.8 366.1, 445.8 364.8 Q 444.7 363.6, 442.7 363.6 Q 440.8 363.6, 439.7 364.8 Q 438.7 366.1, 438.7 368.6 Q 438.7 371.2, 439.7 372.5 Q 440.8 373.8, 442.7 373.8 " fill="#FF0000"/>
<path class="atom-6" d="M 465.7 172.9 Q 465.7 169.8, 467.2 168.1 Q 468.7 166.4, 471.6 166.4 Q 474.4 166.4, 476.0 168.1 Q 477.5 169.8, 477.5 172.9 Q 477.5 176.0, 476.0 177.8 Q 474.4 179.6, 471.6 179.6 Q 468.8 179.6, 467.2 177.8 Q 465.7 176.1, 465.7 172.9 M 471.6 178.1 Q 473.6 178.1, 474.6 176.8 Q 475.7 175.5, 475.7 172.9 Q 475.7 170.4, 474.6 169.1 Q 473.6 167.8, 471.6 167.8 Q 469.6 167.8, 468.6 169.1 Q 467.5 170.4, 467.5 172.9 Q 467.5 175.5, 468.6 176.8 Q 469.6 178.1, 471.6 178.1 " fill="#FF0000"/>
<path class="atom-6" d="M 479.5 166.5 L 481.2 166.5 L 481.2 172.0 L 487.8 172.0 L 487.8 166.5 L 489.6 166.5 L 489.6 179.4 L 487.8 179.4 L 487.8 173.4 L 481.2 173.4 L 481.2 179.4 L 479.5 179.4 L 479.5 166.5 " fill="#FF0000"/>
<path class="atom-8" d="M 532.5 214.3 Q 532.5 211.3, 534.0 209.5 Q 535.6 207.8, 538.4 207.8 Q 541.3 207.8, 542.8 209.5 Q 544.3 211.3, 544.3 214.3 Q 544.3 217.5, 542.8 219.2 Q 541.2 221.0, 538.4 221.0 Q 535.6 221.0, 534.0 219.2 Q 532.5 217.5, 532.5 214.3 M 538.4 219.5 Q 540.4 219.5, 541.4 218.2 Q 542.5 216.9, 542.5 214.3 Q 542.5 211.8, 541.4 210.5 Q 540.4 209.3, 538.4 209.3 Q 536.4 209.3, 535.4 210.5 Q 534.3 211.8, 534.3 214.3 Q 534.3 216.9, 535.4 218.2 Q 536.4 219.5, 538.4 219.5 " fill="#FF0000"/>
<path class="atom-13" d="M 711.5 298.6 Q 711.5 295.5, 713.0 293.8 Q 714.6 292.1, 717.4 292.1 Q 720.3 292.1, 721.8 293.8 Q 723.3 295.5, 723.3 298.6 Q 723.3 301.7, 721.8 303.5 Q 720.2 305.3, 717.4 305.3 Q 714.6 305.3, 713.0 303.5 Q 711.5 301.8, 711.5 298.6 M 717.4 303.8 Q 719.4 303.8, 720.4 302.5 Q 721.5 301.2, 721.5 298.6 Q 721.5 296.1, 720.4 294.8 Q 719.4 293.5, 717.4 293.5 Q 715.4 293.5, 714.4 294.8 Q 713.3 296.1, 713.3 298.6 Q 713.3 301.2, 714.4 302.5 Q 715.4 303.8, 717.4 303.8 " fill="#FF0000"/>
<path class="atom-15" d="M 778.3 340.0 Q 778.3 336.9, 779.8 335.2 Q 781.4 333.5, 784.2 333.5 Q 787.1 333.5, 788.6 335.2 Q 790.1 336.9, 790.1 340.0 Q 790.1 343.2, 788.6 344.9 Q 787.0 346.7, 784.2 346.7 Q 781.4 346.7, 779.8 344.9 Q 778.3 343.2, 778.3 340.0 M 784.2 345.2 Q 786.2 345.2, 787.2 343.9 Q 788.3 342.6, 788.3 340.0 Q 788.3 337.5, 787.2 336.2 Q 786.2 335.0, 784.2 335.0 Q 782.3 335.0, 781.2 336.2 Q 780.1 337.5, 780.1 340.0 Q 780.1 342.6, 781.2 343.9 Q 782.3 345.2, 784.2 345.2 " fill="#FF0000"/>
<path class="atom-18" d="M 717.4 218.6 L 719.3 216.6 L 716.8 216.1 L 717.2 214.8 L 719.5 216.0 L 719.2 213.5 L 720.6 213.5 L 720.2 216.0 L 722.5 214.9 L 722.9 216.1 L 720.4 216.6 L 722.2 218.5 L 721.1 219.3 L 719.8 216.9 L 718.6 219.3 L 717.4 218.6 " fill="#191919"/>
<path class="atom-20" d="M 671.1 140.0 Q 671.1 136.9, 672.6 135.2 Q 674.1 133.5, 677.0 133.5 Q 679.8 133.5, 681.3 135.2 Q 682.9 136.9, 682.9 140.0 Q 682.9 143.2, 681.3 144.9 Q 679.8 146.7, 677.0 146.7 Q 674.1 146.7, 672.6 144.9 Q 671.1 143.2, 671.1 140.0 M 677.0 145.2 Q 678.9 145.2, 680.0 143.9 Q 681.1 142.6, 681.1 140.0 Q 681.1 137.5, 680.0 136.2 Q 678.9 135.0, 677.0 135.0 Q 675.0 135.0, 673.9 136.2 Q 672.9 137.5, 672.9 140.0 Q 672.9 142.6, 673.9 143.9 Q 675.0 145.2, 677.0 145.2 " fill="#FF0000"/>
<path class="atom-20" d="M 684.9 133.6 L 686.6 133.6 L 686.6 139.1 L 693.2 139.1 L 693.2 133.6 L 694.9 133.6 L 694.9 146.5 L 693.2 146.5 L 693.2 140.6 L 686.6 140.6 L 686.6 146.5 L 684.9 146.5 L 684.9 133.6 " fill="#FF0000"/>
<path class="atom-22" d="M 580.3 137.2 Q 580.3 134.1, 581.9 132.4 Q 583.4 130.7, 586.2 130.7 Q 589.1 130.7, 590.6 132.4 Q 592.1 134.1, 592.1 137.2 Q 592.1 140.3, 590.6 142.1 Q 589.1 143.8, 586.2 143.8 Q 583.4 143.8, 581.9 142.1 Q 580.3 140.3, 580.3 137.2 M 586.2 142.4 Q 588.2 142.4, 589.3 141.1 Q 590.3 139.8, 590.3 137.2 Q 590.3 134.7, 589.3 133.4 Q 588.2 132.1, 586.2 132.1 Q 584.3 132.1, 583.2 133.4 Q 582.2 134.6, 582.2 137.2 Q 582.2 139.8, 583.2 141.1 Q 584.3 142.4, 586.2 142.4 " fill="#FF0000"/>
<path class="atom-24" d="M 582.8 58.6 Q 582.8 55.5, 584.3 53.8 Q 585.9 52.1, 588.7 52.1 Q 591.6 52.1, 593.1 53.8 Q 594.6 55.5, 594.6 58.6 Q 594.6 61.7, 593.1 63.5 Q 591.5 65.3, 588.7 65.3 Q 585.9 65.3, 584.3 63.5 Q 582.8 61.8, 582.8 58.6 M 588.7 63.8 Q 590.7 63.8, 591.7 62.5 Q 592.8 61.2, 592.8 58.6 Q 592.8 56.1, 591.7 54.8 Q 590.7 53.5, 588.7 53.5 Q 586.7 53.5, 585.7 54.8 Q 584.6 56.1, 584.6 58.6 Q 584.6 61.2, 585.7 62.5 Q 586.7 63.8, 588.7 63.8 " fill="#FF0000"/>
<path class="atom-27" d="M 575.4 294.3 Q 575.4 291.3, 576.9 289.5 Q 578.5 287.8, 581.3 287.8 Q 584.2 287.8, 585.7 289.5 Q 587.2 291.3, 587.2 294.3 Q 587.2 297.5, 585.7 299.2 Q 584.1 301.0, 581.3 301.0 Q 578.5 301.0, 576.9 299.2 Q 575.4 297.5, 575.4 294.3 M 581.3 299.5 Q 583.3 299.5, 584.3 298.2 Q 585.4 296.9, 585.4 294.3 Q 585.4 291.8, 584.3 290.5 Q 583.3 289.3, 581.3 289.3 Q 579.3 289.3, 578.3 290.5 Q 577.2 291.8, 577.2 294.3 Q 577.2 296.9, 578.3 298.2 Q 579.3 299.5, 581.3 299.5 " fill="#FF0000"/>
<path class="atom-29" d="M 642.2 335.8 Q 642.2 332.7, 643.7 331.0 Q 645.3 329.2, 648.1 329.2 Q 651.0 329.2, 652.5 331.0 Q 654.0 332.7, 654.0 335.8 Q 654.0 338.9, 652.5 340.7 Q 650.9 342.4, 648.1 342.4 Q 645.3 342.4, 643.7 340.7 Q 642.2 338.9, 642.2 335.8 M 648.1 341.0 Q 650.1 341.0, 651.1 339.7 Q 652.2 338.3, 652.2 335.8 Q 652.2 333.2, 651.1 332.0 Q 650.1 330.7, 648.1 330.7 Q 646.2 330.7, 645.1 331.9 Q 644.0 333.2, 644.0 335.8 Q 644.0 338.4, 645.1 339.7 Q 646.2 341.0, 648.1 341.0 " fill="#FF0000"/>
<path class="atom-32" d="M 527.6 371.5 Q 527.6 368.4, 529.1 366.7 Q 530.6 365.0, 533.5 365.0 Q 536.3 365.0, 537.8 366.7 Q 539.4 368.4, 539.4 371.5 Q 539.4 374.6, 537.8 376.4 Q 536.3 378.1, 533.5 378.1 Q 530.6 378.1, 529.1 376.4 Q 527.6 374.6, 527.6 371.5 M 533.5 376.7 Q 535.4 376.7, 536.5 375.4 Q 537.6 374.1, 537.6 371.5 Q 537.6 369.0, 536.5 367.7 Q 535.4 366.4, 533.5 366.4 Q 531.5 366.4, 530.4 367.7 Q 529.4 368.9, 529.4 371.5 Q 529.4 374.1, 530.4 375.4 Q 531.5 376.7, 533.5 376.7 " fill="#FF0000"/>
<path class="atom-32" d="M 541.4 365.1 L 543.1 365.1 L 543.1 370.6 L 549.7 370.6 L 549.7 365.1 L 551.4 365.1 L 551.4 378.0 L 549.7 378.0 L 549.7 372.0 L 543.1 372.0 L 543.1 378.0 L 541.4 378.0 L 541.4 365.1 " fill="#FF0000"/>
<path class="bond-0 atom-0 atom-1" d="M 735.6,604.1 L 720.8,613.6" style="fill:none;fill-rule:evenodd;stroke:#191919;stroke-width:2.0px;stroke-linecap:butt;stroke-linejoin:miter;stroke-opacity:1"/>
<path class="bond-0 atom-0 atom-1" d="M 720.8,613.6 L 706.1,623.0" style="fill:none;fill-rule:evenodd;stroke:#FF0000;stroke-width:2.0px;stroke-linecap:butt;stroke-linejoin:miter;stroke-opacity:1"/>
<path class="bond-1 atom-1 atom-2" d="M 691.3,623.9 L 674.8,615.4" style="fill:none;fill-rule:evenodd;stroke:#FF0000;stroke-width:2.0px;stroke-linecap:butt;stroke-linejoin:miter;stroke-opacity:1"/>
<path class="bond-1 atom-1 atom-2" d="M 674.8,615.4 L 658.4,606.9" style="fill:none;fill-rule:evenodd;stroke:#000000;stroke-width:2.0px;stroke-linecap:butt;stroke-linejoin:miter;stroke-opacity:1"/>
<path class="bond-2 atom-2 atom-3" d="M 658.4,606.9 L 620.1,631.3" style="fill:none;fill-rule:evenodd;stroke:#000000;stroke-width:2.0px;stroke-linecap:butt;stroke-linejoin:miter;stroke-opacity:1"/>
<path class="bond-3 atom-3 atom-4" d="M 620.1,631.3 L 603.7,622.8" style="fill:none;fill-rule:evenodd;stroke:#000000;stroke-width:2.0px;stroke-linecap:butt;stroke-linejoin:miter;stroke-opacity:1"/>
<path class="bond-3 atom-3 atom-4" d="M 603.7,622.8 L 587.2,614.3" style="fill:none;fill-rule:evenodd;stroke:#FF0000;stroke-width:2.0px;stroke-linecap:butt;stroke-linejoin:miter;stroke-opacity:1"/>
<path class="bond-4 atom-4 atom-5" d="M 572.5,615.2 L 557.0,625.0" style="fill:none;fill-rule:evenodd;stroke:#FF0000;stroke-width:2.0px;stroke-linecap:butt;stroke-linejoin:miter;stroke-opacity:1"/>
<path class="bond-4 atom-4 atom-5" d="M 557.0,625.0 L 541.6,634.9" style="fill:none;fill-rule:evenodd;stroke:#000000;stroke-width:2.0px;stroke-linecap:butt;stroke-linejoin:miter;stroke-opacity:1"/>
<path class="bond-5 atom-5 atom-6" d="M 541.6,634.9 L 501.3,614.0" style="fill:none;fill-rule:evenodd;stroke:#000000;stroke-width:2.0px;stroke-linecap:butt;stroke-linejoin:miter;stroke-opacity:1"/>
<path class="bond-6 atom-6 atom-7" d="M 501.3,614.0 L 484.5,624.8" style="fill:none;fill-rule:evenodd;stroke:#000000;stroke-width:2.0px;stroke-linecap:butt;stroke-linejoin:miter;stroke-opacity:1"/>
<path class="bond-6 atom-6 atom-7" d="M 484.5,624.8 L 467.6,635.6" style="fill:none;fill-rule:evenodd;stroke:#191919;stroke-width:2.0px;stroke-linecap:butt;stroke-linejoin:miter;stroke-opacity:1"/>
<path class="bond-7 atom-6 atom-8" d="M 504.8,615.8 L 503.9,596.3" style="fill:none;fill-rule:evenodd;stroke:#000000;stroke-width:2.0px;stroke-linecap:butt;stroke-linejoin:miter;stroke-opacity:1"/>
<path class="bond-7 atom-6 atom-8" d="M 503.9,596.3 L 503.0,576.7" style="fill:none;fill-rule:evenodd;stroke:#FF0000;stroke-width:2.0px;stroke-linecap:butt;stroke-linejoin:miter;stroke-opacity:1"/>
<path class="bond-7 atom-6 atom-8" d="M 498.0,616.1 L 497.1,596.6" style="fill:none;fill-rule:evenodd;stroke:#000000;stroke-width:2.0px;stroke-linecap:butt;stroke-linejoin:miter;stroke-opacity:1"/>
<path class="bond-7 atom-6 atom-8" d="M 497.1,596.6 L 496.2,577.0" style="fill:none;fill-rule:evenodd;stroke:#FF0000;stroke-width:2.0px;stroke-linecap:butt;stroke-linejoin:miter;stroke-opacity:1"/>
<path d="M 659.2,607.3 L 658.4,606.9 L 656.5,608.1" style="fill:none;stroke:#000000;stroke-width:2.0px;stroke-linecap:butt;stroke-linejoin:miter;stroke-opacity:1;"/>
<path d="M 622.1,630.1 L 620.1,631.3 L 619.3,630.9" style="fill:none;stroke:#000000;stroke-width:2.0px;stroke-linecap:butt;stroke-linejoin:miter;stroke-opacity:1;"/>
<path d="M 542.4,634.4 L 541.6,634.9 L 539.6,633.9" style="fill:none;stroke:#000000;stroke-width:2.0px;stroke-linecap:butt;stroke-linejoin:miter;stroke-opacity:1;"/>
<path d="M 503.3,615.1 L 501.3,614.0 L 500.5,614.6" style="fill:none;stroke:#000000;stroke-width:2.0px;stroke-linecap:butt;stroke-linejoin:miter;stroke-opacity:1;"/>
<path class="atom-0" d="M 734.5 601.9 L 736.4 599.9 L 733.9 599.4 L 734.3 598.1 L 736.6 599.3 L 736.2 596.8 L 737.6 596.8 L 737.2 599.3 L 739.6 598.2 L 740.0 599.4 L 737.4 599.9 L 739.2 601.8 L 738.1 602.6 L 736.9 600.3 L 735.6 602.6 L 734.5 601.9 " fill="#191919"/>
<path class="atom-1" d="M 692.8 627.8 Q 692.8 624.7, 694.3 623.0 Q 695.8 621.3, 698.7 621.3 Q 701.5 621.3, 703.1 623.0 Q 704.6 624.7, 704.6 627.8 Q 704.6 630.9, 703.0 632.7 Q 701.5 634.5, 698.7 634.5 Q 695.8 634.5, 694.3 632.7 Q 692.8 630.9, 692.8 627.8 M 698.7 633.0 Q 700.6 633.0, 701.7 631.7 Q 702.8 630.4, 702.8 627.8 Q 702.8 625.3, 701.7 624.0 Q 700.6 622.7, 698.7 622.7 Q 696.7 622.7, 695.6 624.0 Q 694.6 625.3, 694.6 627.8 Q 694.6 630.4, 695.6 631.7 Q 696.7 633.0, 698.7 633.0 " fill="#FF0000"/>
<path class="atom-4" d="M 574.0 610.5 Q 574.0 607.4, 575.5 605.7 Q 577.0 603.9, 579.9 603.9 Q 582.7 603.9, 584.2 605.7 Q 585.8 607.4, 585.8 610.5 Q 585.8 613.6, 584.2 615.4 Q 582.7 617.1, 579.9 617.1 Q 577.0 617.1, 575.5 615.4 Q 574.0 613.6, 574.0 610.5 M 579.9 615.7 Q 581.8 615.7, 582.9 614.4 Q 583.9 613.1, 583.9 610.5 Q 583.9 608.0, 582.9 606.7 Q 581.8 605.4, 579.9 605.4 Q 577.9 605.4, 576.8 606.7 Q 575.8 607.9, 575.8 610.5 Q 575.8 613.1, 576.8 614.4 Q 577.9 615.7, 579.9 615.7 " fill="#FF0000"/>
<path class="atom-7" d="M 460.7 637.0 L 462.5 635.1 L 460.0 634.6 L 460.4 633.3 L 462.7 634.5 L 462.4 632.0 L 463.8 631.9 L 463.4 634.5 L 465.7 633.4 L 466.1 634.6 L 463.6 635.1 L 465.4 637.0 L 464.3 637.8 L 463.0 635.4 L 461.8 637.8 L 460.7 637.0 " fill="#191919"/>
<path class="atom-8" d="M 493.4 568.7 Q 493.4 565.6, 494.9 563.9 Q 496.4 562.2, 499.3 562.2 Q 502.1 562.2, 503.6 563.9 Q 505.2 565.6, 505.2 568.7 Q 505.2 571.8, 503.6 573.6 Q 502.1 575.4, 499.3 575.4 Q 496.4 575.4, 494.9 573.6 Q 493.4 571.9, 493.4 568.7 M 499.3 573.9 Q 501.2 573.9, 502.3 572.6 Q 503.3 571.3, 503.3 568.7 Q 503.3 566.2, 502.3 564.9 Q 501.2 563.6, 499.3 563.6 Q 497.3 563.6, 496.2 564.9 Q 495.2 566.2, 495.2 568.7 Q 495.2 571.3, 496.2 572.6 Q 497.3 573.9, 499.3 573.9 " fill="#FF0000"/>
</svg>