<svg xmlns="http://www.w3.org/2000/svg" xmlns:rdkit="http://www.rdkit.org/xml" xmlns:xlink="http://www.w3.org/1999/xlink" version="1.1" baseProfile="full" xml:space="preserve" width="1200px" height="800px" viewBox="0 0 1200 800">
<!-- END OF HEADER -->
<rect style="opacity:1.0;fill:#FFFFFF;stroke:none" width="1200.0" height="800.0" x="0.0" y="0.0"> </rect>
<path class="bond-0 atom-0 atom-1" d="M 624.2,33.5 L 620.9,60.1" style="fill:none;fill-rule:evenodd;stroke:#191919;stroke-width:2.0px;stroke-linecap:butt;stroke-linejoin:miter;stroke-opacity:1"/>
<path class="bond-0 atom-0 atom-1" d="M 620.9,60.1 L 617.6,86.6" style="fill:none;fill-rule:evenodd;stroke:#FF0000;stroke-width:2.0px;stroke-linecap:butt;stroke-linejoin:miter;stroke-opacity:1"/>
<path class="bond-1 atom-1 atom-2" d="M 626.9,106.6 L 648.1,122.6" style="fill:none;fill-rule:evenodd;stroke:#FF0000;stroke-width:2.0px;stroke-linecap:butt;stroke-linejoin:miter;stroke-opacity:1"/>
<path class="bond-1 atom-1 atom-2" d="M 648.1,122.6 L 669.2,138.6" style="fill:none;fill-rule:evenodd;stroke:#000000;stroke-width:2.0px;stroke-linecap:butt;stroke-linejoin:miter;stroke-opacity:1"/>
<path class="bond-2 atom-2 atom-3" d="M 669.2,138.6 L 709.4,85.5" style="fill:none;fill-rule:evenodd;stroke:#000000;stroke-width:2.0px;stroke-linecap:butt;stroke-linejoin:miter;stroke-opacity:1"/>
<path class="bond-3 atom-2 atom-4" d="M 669.2,138.6 L 722.3,178.8" style="fill:none;fill-rule:evenodd;stroke:#000000;stroke-width:2.0px;stroke-linecap:butt;stroke-linejoin:miter;stroke-opacity:1"/>
<path class="bond-4 atom-4 atom-5" d="M 721.6,184.5 L 748.2,173.3" style="fill:none;fill-rule:evenodd;stroke:#000000;stroke-width:2.0px;stroke-linecap:butt;stroke-linejoin:miter;stroke-opacity:1"/>
<path class="bond-4 atom-4 atom-5" d="M 748.2,173.3 L 774.7,162.0" style="fill:none;fill-rule:evenodd;stroke:#FF0000;stroke-width:2.0px;stroke-linecap:butt;stroke-linejoin:miter;stroke-opacity:1"/>
<path class="bond-4 atom-4 atom-5" d="M 717.7,175.3 L 744.3,164.1" style="fill:none;fill-rule:evenodd;stroke:#000000;stroke-width:2.0px;stroke-linecap:butt;stroke-linejoin:miter;stroke-opacity:1"/>
<path class="bond-4 atom-4 atom-5" d="M 744.3,164.1 L 770.8,152.8" style="fill:none;fill-rule:evenodd;stroke:#FF0000;stroke-width:2.0px;stroke-linecap:butt;stroke-linejoin:miter;stroke-opacity:1"/>
<path class="bond-5 atom-4 atom-6" d="M 722.3,178.8 L 718.9,205.9" style="fill:none;fill-rule:evenodd;stroke:#000000;stroke-width:2.0px;stroke-linecap:butt;stroke-linejoin:miter;stroke-opacity:1"/>
<path class="bond-5 atom-4 atom-6" d="M 718.9,205.9 L 715.5,233.1" style="fill:none;fill-rule:evenodd;stroke:#FF0000;stroke-width:2.0px;stroke-linecap:butt;stroke-linejoin:miter;stroke-opacity:1"/>
<path class="bond-6 atom-6 atom-7" d="M 724.9,253.1 L 746.0,269.0" style="fill:none;fill-rule:evenodd;stroke:#FF0000;stroke-width:2.0px;stroke-linecap:butt;stroke-linejoin:miter;stroke-opacity:1"/>
<path class="bond-6 atom-6 atom-7" d="M 746.0,269.0 L 767.1,285.0" style="fill:none;fill-rule:evenodd;stroke:#000000;stroke-width:2.0px;stroke-linecap:butt;stroke-linejoin:miter;stroke-opacity:1"/>
<path class="bond-7 atom-7 atom-8" d="M 767.1,285.0 L 758.9,351.1" style="fill:none;fill-rule:evenodd;stroke:#000000;stroke-width:2.0px;stroke-linecap:butt;stroke-linejoin:miter;stroke-opacity:1"/>
<path class="bond-8 atom-7 atom-9" d="M 767.1,285.0 L 828.5,259.1" style="fill:none;fill-rule:evenodd;stroke:#000000;stroke-width:2.0px;stroke-linecap:butt;stroke-linejoin:miter;stroke-opacity:1"/>
<path class="bond-9 atom-9 atom-10" d="M 828.5,259.1 L 851.7,276.7" style="fill:none;fill-rule:evenodd;stroke:#000000;stroke-width:2.0px;stroke-linecap:butt;stroke-linejoin:miter;stroke-opacity:1"/>
<path class="bond-9 atom-9 atom-10" d="M 851.7,276.7 L 874.9,294.3" style="fill:none;fill-rule:evenodd;stroke:#191919;stroke-width:2.0px;stroke-linecap:butt;stroke-linejoin:miter;stroke-opacity:1"/>
<path class="bond-10 atom-9 atom-11" d="M 833.1,262.6 L 836.6,234.2" style="fill:none;fill-rule:evenodd;stroke:#000000;stroke-width:2.0px;stroke-linecap:butt;stroke-linejoin:miter;stroke-opacity:1"/>
<path class="bond-10 atom-9 atom-11" d="M 836.6,234.2 L 840.2,205.7" style="fill:none;fill-rule:evenodd;stroke:#FF0000;stroke-width:2.0px;stroke-linecap:butt;stroke-linejoin:miter;stroke-opacity:1"/>
<path class="bond-10 atom-9 atom-11" d="M 823.2,261.4 L 826.7,232.9" style="fill:none;fill-rule:evenodd;stroke:#000000;stroke-width:2.0px;stroke-linecap:butt;stroke-linejoin:miter;stroke-opacity:1"/>
<path class="bond-10 atom-9 atom-11" d="M 826.7,232.9 L 830.3,204.5" style="fill:none;fill-rule:evenodd;stroke:#FF0000;stroke-width:2.0px;stroke-linecap:butt;stroke-linejoin:miter;stroke-opacity:1"/>
<path class="bond-11 atom-2 atom-12" d="M 669.2,138.6 L 629.0,191.7" style="fill:none;fill-rule:evenodd;stroke:#000000;stroke-width:2.0px;stroke-linecap:butt;stroke-linejoin:miter;stroke-opacity:1"/>
<path class="bond-12 atom-12 atom-13" d="M 629.0,191.7 L 654.9,253.0" style="fill:none;fill-rule:evenodd;stroke:#000000;stroke-width:2.0px;stroke-linecap:butt;stroke-linejoin:miter;stroke-opacity:1"/>
<path class="bond-13 atom-13 atom-14" d="M 654.9,253.0 L 614.7,306.1" style="fill:none;fill-rule:evenodd;stroke:#000000;stroke-width:2.0px;stroke-linecap:butt;stroke-linejoin:miter;stroke-opacity:1"/>
<path class="bond-14 atom-14 atom-15" d="M 618.2,301.5 L 589.1,297.9" style="fill:none;fill-rule:evenodd;stroke:#000000;stroke-width:2.0px;stroke-linecap:butt;stroke-linejoin:miter;stroke-opacity:1"/>
<path class="bond-14 atom-14 atom-15" d="M 589.1,297.9 L 560.1,294.3" style="fill:none;fill-rule:evenodd;stroke:#FF0000;stroke-width:2.0px;stroke-linecap:butt;stroke-linejoin:miter;stroke-opacity:1"/>
<path class="bond-14 atom-14 atom-15" d="M 616.9,311.4 L 587.9,307.8" style="fill:none;fill-rule:evenodd;stroke:#000000;stroke-width:2.0px;stroke-linecap:butt;stroke-linejoin:miter;stroke-opacity:1"/>
<path class="bond-14 atom-14 atom-15" d="M 587.9,307.8 L 558.8,304.2" style="fill:none;fill-rule:evenodd;stroke:#FF0000;stroke-width:2.0px;stroke-linecap:butt;stroke-linejoin:miter;stroke-opacity:1"/>
<path class="bond-15 atom-14 atom-16" d="M 614.7,306.1 L 625.2,330.9" style="fill:none;fill-rule:evenodd;stroke:#000000;stroke-width:2.0px;stroke-linecap:butt;stroke-linejoin:miter;stroke-opacity:1"/>
<path class="bond-15 atom-14 atom-16" d="M 625.2,330.9 L 635.6,355.7" style="fill:none;fill-rule:evenodd;stroke:#FF0000;stroke-width:2.0px;stroke-linecap:butt;stroke-linejoin:miter;stroke-opacity:1"/>
<path class="bond-16 atom-12 atom-17" d="M 629.0,191.7 L 562.9,183.4" style="fill:none;fill-rule:evenodd;stroke:#000000;stroke-width:2.0px;stroke-linecap:butt;stroke-linejoin:miter;stroke-opacity:1"/>
<path class="bond-17 atom-17 atom-18" d="M 568.6,184.1 L 557.7,158.1" style="fill:none;fill-rule:evenodd;stroke:#000000;stroke-width:2.0px;stroke-linecap:butt;stroke-linejoin:miter;stroke-opacity:1"/>
<path class="bond-17 atom-17 atom-18" d="M 557.7,158.1 L 546.7,132.1" style="fill:none;fill-rule:evenodd;stroke:#FF0000;stroke-width:2.0px;stroke-linecap:butt;stroke-linejoin:miter;stroke-opacity:1"/>
<path class="bond-17 atom-17 atom-18" d="M 559.4,188.0 L 548.5,162.0" style="fill:none;fill-rule:evenodd;stroke:#000000;stroke-width:2.0px;stroke-linecap:butt;stroke-linejoin:miter;stroke-opacity:1"/>
<path class="bond-17 atom-17 atom-18" d="M 548.5,162.0 L 537.5,136.0" style="fill:none;fill-rule:evenodd;stroke:#FF0000;stroke-width:2.0px;stroke-linecap:butt;stroke-linejoin:miter;stroke-opacity:1"/>
<path class="bond-18 atom-17 atom-19" d="M 562.9,183.4 L 547.2,204.1" style="fill:none;fill-rule:evenodd;stroke:#000000;stroke-width:2.0px;stroke-linecap:butt;stroke-linejoin:miter;stroke-opacity:1"/>
<path class="bond-18 atom-17 atom-19" d="M 547.2,204.1 L 531.5,224.9" style="fill:none;fill-rule:evenodd;stroke:#0000FF;stroke-width:2.0px;stroke-linecap:butt;stroke-linejoin:miter;stroke-opacity:1"/>
<path class="bond-19 atom-19 atom-20" d="M 513.4,235.3 L 485.0,231.8" style="fill:none;fill-rule:evenodd;stroke:#0000FF;stroke-width:2.0px;stroke-linecap:butt;stroke-linejoin:miter;stroke-opacity:1"/>
<path class="bond-19 atom-19 atom-20" d="M 485.0,231.8 L 456.6,228.2" style="fill:none;fill-rule:evenodd;stroke:#000000;stroke-width:2.0px;stroke-linecap:butt;stroke-linejoin:miter;stroke-opacity:1"/>
<path class="bond-20 atom-20 atom-21" d="M 456.6,228.2 L 416.4,281.3" style="fill:none;fill-rule:evenodd;stroke:#000000;stroke-width:2.0px;stroke-linecap:butt;stroke-linejoin:miter;stroke-opacity:1"/>
<path class="bond-21 atom-21 atom-22" d="M 416.4,281.3 L 388.1,277.8" style="fill:none;fill-rule:evenodd;stroke:#000000;stroke-width:2.0px;stroke-linecap:butt;stroke-linejoin:miter;stroke-opacity:1"/>
<path class="bond-21 atom-21 atom-22" d="M 388.1,277.8 L 359.7,274.3" style="fill:none;fill-rule:evenodd;stroke:#0000FF;stroke-width:2.0px;stroke-linecap:butt;stroke-linejoin:miter;stroke-opacity:1"/>
<path d="M 719.6,176.7 L 722.3,178.8 L 722.1,180.1" style="fill:none;stroke:#000000;stroke-width:2.0px;stroke-linecap:butt;stroke-linejoin:miter;stroke-opacity:1;"/>
<path d="M 825.4,260.4 L 828.5,259.1 L 829.7,260.0" style="fill:none;stroke:#000000;stroke-width:2.0px;stroke-linecap:butt;stroke-linejoin:miter;stroke-opacity:1;"/>
<path d="M 653.6,250.0 L 654.9,253.0 L 652.9,255.7" style="fill:none;stroke:#000000;stroke-width:2.0px;stroke-linecap:butt;stroke-linejoin:miter;stroke-opacity:1;"/>
<path d="M 616.7,303.5 L 614.7,306.1 L 615.2,307.4" style="fill:none;stroke:#000000;stroke-width:2.0px;stroke-linecap:butt;stroke-linejoin:miter;stroke-opacity:1;"/>
<path d="M 566.2,183.8 L 562.9,183.4 L 562.1,184.4" style="fill:none;stroke:#000000;stroke-width:2.0px;stroke-linecap:butt;stroke-linejoin:miter;stroke-opacity:1;"/>
<path d="M 458.0,228.4 L 456.6,228.2 L 454.6,230.9" style="fill:none;stroke:#000000;stroke-width:2.0px;stroke-linecap:butt;stroke-linejoin:miter;stroke-opacity:1;"/>
<path d="M 418.4,278.7 L 416.4,281.3 L 415.0,281.2" style="fill:none;stroke:#000000;stroke-width:2.0px;stroke-linecap:butt;stroke-linejoin:miter;stroke-opacity:1;"/>
<path class="atom-0" d="M 620.8 30.2 L 623.6 27.4 L 619.9 26.6 L 620.4 24.7 L 623.8 26.4 L 623.3 22.7 L 625.3 22.7 L 624.8 26.4 L 628.2 24.8 L 628.8 26.6 L 625.1 27.3 L 627.7 30.1 L 626.1 31.3 L 624.3 27.8 L 622.4 31.3 L 620.8 30.2 " fill="#191919"/>
<path class="atom-1" d="M 607.4 98.4 Q 607.4 93.9, 609.7 91.4 Q 611.9 88.8, 616.1 88.8 Q 620.3 88.8, 622.5 91.4 Q 624.7 93.9, 624.7 98.4 Q 624.7 103.0, 622.5 105.6 Q 620.2 108.2, 616.1 108.2 Q 611.9 108.2, 609.7 105.6 Q 607.4 103.0, 607.4 98.4 M 616.1 106.1 Q 619.0 106.1, 620.5 104.1 Q 622.1 102.2, 622.1 98.4 Q 622.1 94.7, 620.5 92.8 Q 619.0 91.0, 616.1 91.0 Q 613.2 91.0, 611.6 92.8 Q 610.1 94.7, 610.1 98.4 Q 610.1 102.2, 611.6 104.1 Q 613.2 106.1, 616.1 106.1 " fill="#FF0000"/>
<path class="atom-5" d="M 775.0 152.9 Q 775.0 148.4, 777.2 145.9 Q 779.5 143.3, 783.6 143.3 Q 787.8 143.3, 790.1 145.9 Q 792.3 148.4, 792.3 152.9 Q 792.3 157.5, 790.0 160.1 Q 787.8 162.7, 783.6 162.7 Q 779.5 162.7, 777.2 160.1 Q 775.0 157.5, 775.0 152.9 M 783.6 160.6 Q 786.5 160.6, 788.1 158.6 Q 789.6 156.7, 789.6 152.9 Q 789.6 149.2, 788.1 147.3 Q 786.5 145.5, 783.6 145.5 Q 780.8 145.5, 779.2 147.3 Q 777.7 149.2, 777.7 152.9 Q 777.7 156.7, 779.2 158.6 Q 780.8 160.6, 783.6 160.6 " fill="#FF0000"/>
<path class="atom-6" d="M 705.4 244.9 Q 705.4 240.4, 707.6 237.8 Q 709.8 235.3, 714.0 235.3 Q 718.2 235.3, 720.4 237.8 Q 722.7 240.4, 722.7 244.9 Q 722.7 249.5, 720.4 252.1 Q 718.2 254.7, 714.0 254.7 Q 709.9 254.7, 707.6 252.1 Q 705.4 249.5, 705.4 244.9 M 714.0 252.5 Q 716.9 252.5, 718.5 250.6 Q 720.0 248.7, 720.0 244.9 Q 720.0 241.2, 718.5 239.3 Q 716.9 237.4, 714.0 237.4 Q 711.2 237.4, 709.6 239.3 Q 708.0 241.2, 708.0 244.9 Q 708.0 248.7, 709.6 250.6 Q 711.2 252.5, 714.0 252.5 " fill="#FF0000"/>
<path class="atom-10" d="M 878.0 297.2 L 880.8 294.4 L 877.1 293.7 L 877.7 291.8 L 881.1 293.5 L 880.6 289.8 L 882.6 289.7 L 882.0 293.4 L 885.5 291.9 L 886.1 293.7 L 882.3 294.4 L 885.0 297.2 L 883.4 298.4 L 881.5 294.9 L 879.7 298.4 L 878.0 297.2 " fill="#191919"/>
<path class="atom-11" d="M 828.1 193.1 Q 828.1 188.6, 830.3 186.1 Q 832.6 183.5, 836.7 183.5 Q 840.9 183.5, 843.2 186.1 Q 845.4 188.6, 845.4 193.1 Q 845.4 197.7, 843.1 200.3 Q 840.9 202.9, 836.7 202.9 Q 832.6 202.9, 830.3 200.3 Q 828.1 197.7, 828.1 193.1 M 836.7 200.8 Q 839.6 200.8, 841.2 198.8 Q 842.7 196.9, 842.7 193.1 Q 842.7 189.4, 841.2 187.5 Q 839.6 185.7, 836.7 185.7 Q 833.9 185.7, 832.3 187.5 Q 830.8 189.4, 830.8 193.1 Q 830.8 196.9, 832.3 198.8 Q 833.9 200.8, 836.7 200.8 " fill="#FF0000"/>
<path class="atom-15" d="M 539.9 297.9 Q 539.9 293.4, 542.2 290.9 Q 544.4 288.3, 548.6 288.3 Q 552.8 288.3, 555.0 290.9 Q 557.3 293.4, 557.3 297.9 Q 557.3 302.5, 555.0 305.1 Q 552.7 307.7, 548.6 307.7 Q 544.4 307.7, 542.2 305.1 Q 539.9 302.5, 539.9 297.9 M 548.6 305.6 Q 551.5 305.6, 553.0 303.6 Q 554.6 301.7, 554.6 297.9 Q 554.6 294.2, 553.0 292.3 Q 551.5 290.5, 548.6 290.5 Q 545.7 290.5, 544.2 292.3 Q 542.6 294.2, 542.6 297.9 Q 542.6 301.7, 544.2 303.6 Q 545.7 305.6, 548.6 305.6 " fill="#FF0000"/>
<path class="atom-16" d="M 631.9 367.5 Q 631.9 363.0, 634.2 360.5 Q 636.4 357.9, 640.6 357.9 Q 644.8 357.9, 647.0 360.5 Q 649.2 363.0, 649.2 367.5 Q 649.2 372.1, 647.0 374.7 Q 644.7 377.3, 640.6 377.3 Q 636.4 377.3, 634.2 374.7 Q 631.9 372.1, 631.9 367.5 M 640.6 375.2 Q 643.5 375.2, 645.0 373.3 Q 646.6 371.3, 646.6 367.5 Q 646.6 363.8, 645.0 362.0 Q 643.5 360.1, 640.6 360.1 Q 637.7 360.1, 636.1 361.9 Q 634.6 363.8, 634.6 367.5 Q 634.6 371.3, 636.1 373.3 Q 637.7 375.2, 640.6 375.2 " fill="#FF0000"/>
<path class="atom-16" d="M 652.2 358.2 L 654.7 358.2 L 654.7 366.2 L 664.4 366.2 L 664.4 358.2 L 666.9 358.2 L 666.9 377.0 L 664.4 377.0 L 664.4 368.3 L 654.7 368.3 L 654.7 377.0 L 652.2 377.0 L 652.2 358.2 " fill="#FF0000"/>
<path class="atom-18" d="M 528.4 122.1 Q 528.4 117.6, 530.6 115.0 Q 532.8 112.5, 537.0 112.5 Q 541.2 112.5, 543.4 115.0 Q 545.7 117.6, 545.7 122.1 Q 545.7 126.7, 543.4 129.3 Q 541.1 131.9, 537.0 131.9 Q 532.9 131.9, 530.6 129.3 Q 528.4 126.7, 528.4 122.1 M 537.0 129.7 Q 539.9 129.7, 541.4 127.8 Q 543.0 125.9, 543.0 122.1 Q 543.0 118.4, 541.4 116.5 Q 539.9 114.6, 537.0 114.6 Q 534.1 114.6, 532.6 116.5 Q 531.0 118.4, 531.0 122.1 Q 531.0 125.9, 532.6 127.8 Q 534.1 129.7, 537.0 129.7 " fill="#FF0000"/>
<path class="atom-19" d="M 518.5 227.1 L 524.7 237.1 Q 525.3 238.0, 526.3 239.8 Q 527.3 241.6, 527.4 241.7 L 527.4 227.1 L 529.9 227.1 L 529.9 245.9 L 527.3 245.9 L 520.6 235.0 Q 519.9 233.7, 519.0 232.3 Q 518.2 230.8, 518.0 230.3 L 518.0 245.9 L 515.6 245.9 L 515.6 227.1 L 518.5 227.1 " fill="#0000FF"/>
<path class="atom-19" d="M 533.5 227.1 L 536.1 227.1 L 536.1 235.1 L 545.7 235.1 L 545.7 227.1 L 548.3 227.1 L 548.3 245.9 L 545.7 245.9 L 545.7 237.2 L 536.1 237.2 L 536.1 245.9 L 533.5 245.9 L 533.5 227.1 " fill="#0000FF"/>
<path class="atom-22" d="M 313.9 263.7 L 316.5 263.7 L 316.5 271.7 L 326.1 271.7 L 326.1 263.7 L 328.7 263.7 L 328.7 282.5 L 326.1 282.5 L 326.1 273.8 L 316.5 273.8 L 316.5 282.5 L 313.9 282.5 L 313.9 263.7 " fill="#0000FF"/>
<path class="atom-22" d="M 332.4 281.9 Q 332.9 280.7, 333.9 280.0 Q 335.0 279.4, 336.5 279.4 Q 338.4 279.4, 339.5 280.4 Q 340.5 281.4, 340.5 283.2 Q 340.5 285.1, 339.2 286.8 Q 337.8 288.5, 335.0 290.5 L 340.7 290.5 L 340.7 291.9 L 332.4 291.9 L 332.4 290.8 Q 334.7 289.1, 336.1 287.9 Q 337.4 286.7, 338.1 285.5 Q 338.8 284.4, 338.8 283.3 Q 338.8 282.1, 338.2 281.4 Q 337.6 280.8, 336.5 280.8 Q 335.5 280.8, 334.9 281.2 Q 334.2 281.6, 333.7 282.5 L 332.4 281.9 " fill="#0000FF"/>
<path class="atom-22" d="M 346.2 263.7 L 352.4 273.6 Q 353.0 274.6, 354.0 276.4 Q 354.9 278.2, 355.0 278.3 L 355.0 263.7 L 357.5 263.7 L 357.5 282.5 L 354.9 282.5 L 348.3 271.6 Q 347.5 270.3, 346.7 268.9 Q 345.9 267.4, 345.6 266.9 L 345.6 282.5 L 343.2 282.5 L 343.2 263.7 L 346.2 263.7 " fill="#0000FF"/>
<path class="bond-0 atom-0 atom-1" d="M 522.1,430.8 L 538.1,449.8" style="fill:none;fill-rule:evenodd;stroke:#191919;stroke-width:2.0px;stroke-linecap:butt;stroke-linejoin:miter;stroke-opacity:1"/>
<path class="bond-0 atom-0 atom-1" d="M 538.1,449.8 L 554.1,468.7" style="fill:none;fill-rule:evenodd;stroke:#FF0000;stroke-width:2.0px;stroke-linecap:butt;stroke-linejoin:miter;stroke-opacity:1"/>
<path class="bond-1 atom-1 atom-2" d="M 559.7,492.5 L 550.6,517.8" style="fill:none;fill-rule:evenodd;stroke:#FF0000;stroke-width:2.0px;stroke-linecap:butt;stroke-linejoin:miter;stroke-opacity:1"/>
<path class="bond-1 atom-1 atom-2" d="M 550.6,517.8 L 541.5,543.1" style="fill:none;fill-rule:evenodd;stroke:#000000;stroke-width:2.0px;stroke-linecap:butt;stroke-linejoin:miter;stroke-opacity:1"/>
<path class="bond-2 atom-2 atom-3" d="M 541.5,543.1 L 476.0,554.9" style="fill:none;fill-rule:evenodd;stroke:#000000;stroke-width:2.0px;stroke-linecap:butt;stroke-linejoin:miter;stroke-opacity:1"/>
<path class="bond-3 atom-3 atom-4" d="M 481.6,553.9 L 464.3,533.4" style="fill:none;fill-rule:evenodd;stroke:#000000;stroke-width:2.0px;stroke-linecap:butt;stroke-linejoin:miter;stroke-opacity:1"/>
<path class="bond-3 atom-3 atom-4" d="M 464.3,533.4 L 447.0,512.9" style="fill:none;fill-rule:evenodd;stroke:#FF0000;stroke-width:2.0px;stroke-linecap:butt;stroke-linejoin:miter;stroke-opacity:1"/>
<path class="bond-3 atom-3 atom-4" d="M 474.0,560.3 L 456.7,539.8" style="fill:none;fill-rule:evenodd;stroke:#000000;stroke-width:2.0px;stroke-linecap:butt;stroke-linejoin:miter;stroke-opacity:1"/>
<path class="bond-3 atom-3 atom-4" d="M 456.7,539.8 L 439.3,519.3" style="fill:none;fill-rule:evenodd;stroke:#FF0000;stroke-width:2.0px;stroke-linecap:butt;stroke-linejoin:miter;stroke-opacity:1"/>
<path class="bond-4 atom-3 atom-5" d="M 476.0,554.9 L 466.8,580.4" style="fill:none;fill-rule:evenodd;stroke:#000000;stroke-width:2.0px;stroke-linecap:butt;stroke-linejoin:miter;stroke-opacity:1"/>
<path class="bond-4 atom-3 atom-5" d="M 466.8,580.4 L 457.6,605.8" style="fill:none;fill-rule:evenodd;stroke:#FF0000;stroke-width:2.0px;stroke-linecap:butt;stroke-linejoin:miter;stroke-opacity:1"/>
<path class="bond-5 atom-5 atom-6" d="M 442.6,619.5 L 415.2,624.5" style="fill:none;fill-rule:evenodd;stroke:#FF0000;stroke-width:2.0px;stroke-linecap:butt;stroke-linejoin:miter;stroke-opacity:1"/>
<path class="bond-5 atom-5 atom-6" d="M 415.2,624.5 L 387.9,629.4" style="fill:none;fill-rule:evenodd;stroke:#000000;stroke-width:2.0px;stroke-linecap:butt;stroke-linejoin:miter;stroke-opacity:1"/>
<path class="bond-6 atom-6 atom-7" d="M 387.9,629.4 L 365.3,692.0" style="fill:none;fill-rule:evenodd;stroke:#000000;stroke-width:2.0px;stroke-linecap:butt;stroke-linejoin:miter;stroke-opacity:1"/>
<path class="bond-7 atom-7 atom-8" d="M 365.3,692.0 L 335.9,697.3" style="fill:none;fill-rule:evenodd;stroke:#000000;stroke-width:2.0px;stroke-linecap:butt;stroke-linejoin:miter;stroke-opacity:1"/>
<path class="bond-7 atom-7 atom-8" d="M 335.9,697.3 L 306.4,702.6" style="fill:none;fill-rule:evenodd;stroke:#191919;stroke-width:2.0px;stroke-linecap:butt;stroke-linejoin:miter;stroke-opacity:1"/>
<path class="bond-8 atom-7 atom-9" d="M 359.6,693.1 L 377.1,713.7" style="fill:none;fill-rule:evenodd;stroke:#000000;stroke-width:2.0px;stroke-linecap:butt;stroke-linejoin:miter;stroke-opacity:1"/>
<path class="bond-8 atom-7 atom-9" d="M 377.1,713.7 L 394.6,734.4" style="fill:none;fill-rule:evenodd;stroke:#FF0000;stroke-width:2.0px;stroke-linecap:butt;stroke-linejoin:miter;stroke-opacity:1"/>
<path class="bond-8 atom-7 atom-9" d="M 367.3,686.6 L 384.7,707.3" style="fill:none;fill-rule:evenodd;stroke:#000000;stroke-width:2.0px;stroke-linecap:butt;stroke-linejoin:miter;stroke-opacity:1"/>
<path class="bond-8 atom-7 atom-9" d="M 384.7,707.3 L 402.2,728.0" style="fill:none;fill-rule:evenodd;stroke:#FF0000;stroke-width:2.0px;stroke-linecap:butt;stroke-linejoin:miter;stroke-opacity:1"/>
<path class="bond-9 atom-2 atom-10" d="M 541.5,543.1 L 584.5,594.0" style="fill:none;fill-rule:evenodd;stroke:#000000;stroke-width:2.0px;stroke-linecap:butt;stroke-linejoin:miter;stroke-opacity:1"/>
<path class="bond-10 atom-10 atom-11" d="M 584.5,594.0 L 562.0,656.6" style="fill:none;fill-rule:evenodd;stroke:#000000;stroke-width:2.0px;stroke-linecap:butt;stroke-linejoin:miter;stroke-opacity:1"/>
<path class="bond-11 atom-11 atom-12" d="M 562.0,656.6 L 604.9,707.5" style="fill:none;fill-rule:evenodd;stroke:#000000;stroke-width:2.0px;stroke-linecap:butt;stroke-linejoin:miter;stroke-opacity:1"/>
<path class="bond-12 atom-12 atom-13" d="M 603.0,712.9 L 631.8,707.8" style="fill:none;fill-rule:evenodd;stroke:#000000;stroke-width:2.0px;stroke-linecap:butt;stroke-linejoin:miter;stroke-opacity:1"/>
<path class="bond-12 atom-12 atom-13" d="M 631.8,707.8 L 660.5,702.6" style="fill:none;fill-rule:evenodd;stroke:#FF0000;stroke-width:2.0px;stroke-linecap:butt;stroke-linejoin:miter;stroke-opacity:1"/>
<path class="bond-12 atom-12 atom-13" d="M 601.2,703.1 L 630.0,697.9" style="fill:none;fill-rule:evenodd;stroke:#000000;stroke-width:2.0px;stroke-linecap:butt;stroke-linejoin:miter;stroke-opacity:1"/>
<path class="bond-12 atom-12 atom-13" d="M 630.0,697.9 L 658.8,692.7" style="fill:none;fill-rule:evenodd;stroke:#FF0000;stroke-width:2.0px;stroke-linecap:butt;stroke-linejoin:miter;stroke-opacity:1"/>
<path class="bond-13 atom-12 atom-14" d="M 604.9,707.5 L 595.8,733.0" style="fill:none;fill-rule:evenodd;stroke:#000000;stroke-width:2.0px;stroke-linecap:butt;stroke-linejoin:miter;stroke-opacity:1"/>
<path class="bond-13 atom-12 atom-14" d="M 595.8,733.0 L 586.6,758.4" style="fill:none;fill-rule:evenodd;stroke:#FF0000;stroke-width:2.0px;stroke-linecap:butt;stroke-linejoin:miter;stroke-opacity:1"/>
<path class="bond-14 atom-10 atom-15" d="M 584.5,594.0 L 650.1,582.2" style="fill:none;fill-rule:evenodd;stroke:#000000;stroke-width:2.0px;stroke-linecap:butt;stroke-linejoin:miter;stroke-opacity:1"/>
<path class="bond-15 atom-15 atom-16" d="M 653.8,586.6 L 663.4,559.9" style="fill:none;fill-rule:evenodd;stroke:#000000;stroke-width:2.0px;stroke-linecap:butt;stroke-linejoin:miter;stroke-opacity:1"/>
<path class="bond-15 atom-15 atom-16" d="M 663.4,559.9 L 673.0,533.2" style="fill:none;fill-rule:evenodd;stroke:#FF0000;stroke-width:2.0px;stroke-linecap:butt;stroke-linejoin:miter;stroke-opacity:1"/>
<path class="bond-15 atom-15 atom-16" d="M 644.4,583.2 L 654.0,556.5" style="fill:none;fill-rule:evenodd;stroke:#000000;stroke-width:2.0px;stroke-linecap:butt;stroke-linejoin:miter;stroke-opacity:1"/>
<path class="bond-15 atom-15 atom-16" d="M 654.0,556.5 L 663.6,529.9" style="fill:none;fill-rule:evenodd;stroke:#FF0000;stroke-width:2.0px;stroke-linecap:butt;stroke-linejoin:miter;stroke-opacity:1"/>
<path class="bond-16 atom-15 atom-17" d="M 650.1,582.2 L 666.9,602.1" style="fill:none;fill-rule:evenodd;stroke:#000000;stroke-width:2.0px;stroke-linecap:butt;stroke-linejoin:miter;stroke-opacity:1"/>
<path class="bond-16 atom-15 atom-17" d="M 666.9,602.1 L 683.7,622.0" style="fill:none;fill-rule:evenodd;stroke:#0000FF;stroke-width:2.0px;stroke-linecap:butt;stroke-linejoin:miter;stroke-opacity:1"/>
<path class="bond-17 atom-17 atom-18" d="M 702.4,631.4 L 730.5,626.3" style="fill:none;fill-rule:evenodd;stroke:#0000FF;stroke-width:2.0px;stroke-linecap:butt;stroke-linejoin:miter;stroke-opacity:1"/>
<path class="bond-17 atom-17 atom-18" d="M 730.5,626.3 L 758.6,621.2" style="fill:none;fill-rule:evenodd;stroke:#000000;stroke-width:2.0px;stroke-linecap:butt;stroke-linejoin:miter;stroke-opacity:1"/>
<path class="bond-18 atom-18 atom-19" d="M 758.6,621.2 L 801.6,672.1" style="fill:none;fill-rule:evenodd;stroke:#000000;stroke-width:2.0px;stroke-linecap:butt;stroke-linejoin:miter;stroke-opacity:1"/>
<path class="bond-19 atom-19 atom-20" d="M 801.6,672.1 L 829.7,667.0" style="fill:none;fill-rule:evenodd;stroke:#000000;stroke-width:2.0px;stroke-linecap:butt;stroke-linejoin:miter;stroke-opacity:1"/>
<path class="bond-19 atom-19 atom-20" d="M 829.7,667.0 L 857.8,662.0" style="fill:none;fill-rule:evenodd;stroke:#0000FF;stroke-width:2.0px;stroke-linecap:butt;stroke-linejoin:miter;stroke-opacity:1"/>
<path d="M 479.2,554.3 L 476.0,554.9 L 475.5,556.2" style="fill:none;stroke:#000000;stroke-width:2.0px;stroke-linecap:butt;stroke-linejoin:miter;stroke-opacity:1;"/>
<path d="M 389.2,629.1 L 387.9,629.4 L 386.7,632.5" style="fill:none;stroke:#000000;stroke-width:2.0px;stroke-linecap:butt;stroke-linejoin:miter;stroke-opacity:1;"/>
<path d="M 366.4,688.9 L 365.3,692.0 L 363.9,692.3" style="fill:none;stroke:#000000;stroke-width:2.0px;stroke-linecap:butt;stroke-linejoin:miter;stroke-opacity:1;"/>
<path d="M 563.1,653.5 L 562.0,656.6 L 564.1,659.2" style="fill:none;stroke:#000000;stroke-width:2.0px;stroke-linecap:butt;stroke-linejoin:miter;stroke-opacity:1;"/>
<path d="M 602.8,705.0 L 604.9,707.5 L 604.5,708.8" style="fill:none;stroke:#000000;stroke-width:2.0px;stroke-linecap:butt;stroke-linejoin:miter;stroke-opacity:1;"/>
<path d="M 646.8,582.8 L 650.1,582.2 L 650.9,583.2" style="fill:none;stroke:#000000;stroke-width:2.0px;stroke-linecap:butt;stroke-linejoin:miter;stroke-opacity:1;"/>
<path d="M 757.2,621.5 L 758.6,621.2 L 760.7,623.8" style="fill:none;stroke:#000000;stroke-width:2.0px;stroke-linecap:butt;stroke-linejoin:miter;stroke-opacity:1;"/>
<path d="M 799.4,669.6 L 801.6,672.1 L 803.0,671.9" style="fill:none;stroke:#000000;stroke-width:2.0px;stroke-linecap:butt;stroke-linejoin:miter;stroke-opacity:1;"/>
<path class="atom-0" d="M 517.5 427.5 L 520.3 424.7 L 516.6 423.9 L 517.2 422.0 L 520.6 423.7 L 520.1 420.0 L 522.1 420.0 L 521.5 423.7 L 525.0 422.1 L 525.5 423.9 L 521.8 424.6 L 524.5 427.5 L 522.8 428.6 L 521.0 425.1 L 519.1 428.6 L 517.5 427.5 " fill="#191919"/>
<path class="atom-1" d="M 555.4 480.5 Q 555.4 476.0, 557.6 473.4 Q 559.9 470.9, 564.1 470.9 Q 568.3 470.9, 570.5 473.4 Q 572.7 476.0, 572.7 480.5 Q 572.7 485.1, 570.5 487.7 Q 568.2 490.3, 564.1 490.3 Q 559.9 490.3, 557.6 487.7 Q 555.4 485.1, 555.4 480.5 M 564.1 488.2 Q 566.9 488.2, 568.5 486.2 Q 570.1 484.3, 570.1 480.5 Q 570.1 476.8, 568.5 474.9 Q 566.9 473.0, 564.1 473.0 Q 561.2 473.0, 559.6 474.9 Q 558.1 476.8, 558.1 480.5 Q 558.1 484.3, 559.6 486.2 Q 561.2 488.2, 564.1 488.2 " fill="#FF0000"/>
<path class="atom-4" d="M 424.3 504.1 Q 424.3 499.6, 426.6 497.0 Q 428.8 494.5, 433.0 494.5 Q 437.2 494.5, 439.4 497.0 Q 441.6 499.6, 441.6 504.1 Q 441.6 508.7, 439.4 511.3 Q 437.1 513.9, 433.0 513.9 Q 428.8 513.9, 426.6 511.3 Q 424.3 508.7, 424.3 504.1 M 433.0 511.8 Q 435.9 511.8, 437.4 509.8 Q 439.0 507.9, 439.0 504.1 Q 439.0 500.4, 437.4 498.5 Q 435.9 496.6, 433.0 496.6 Q 430.1 496.6, 428.5 498.5 Q 427.0 500.4, 427.0 504.1 Q 427.0 507.9, 428.5 509.8 Q 430.1 511.8, 433.0 511.8 " fill="#FF0000"/>
<path class="atom-5" d="M 444.8 617.6 Q 444.8 613.1, 447.0 610.6 Q 449.2 608.0, 453.4 608.0 Q 457.6 608.0, 459.8 610.6 Q 462.1 613.1, 462.1 617.6 Q 462.1 622.2, 459.8 624.8 Q 457.5 627.4, 453.4 627.4 Q 449.3 627.4, 447.0 624.8 Q 444.8 622.2, 444.8 617.6 M 453.4 625.3 Q 456.3 625.3, 457.8 623.4 Q 459.4 621.4, 459.4 617.6 Q 459.4 613.9, 457.8 612.1 Q 456.3 610.2, 453.4 610.2 Q 450.5 610.2, 449.0 612.0 Q 447.4 613.9, 447.4 617.6 Q 447.4 621.4, 449.0 623.4 Q 450.5 625.3, 453.4 625.3 " fill="#FF0000"/>
<path class="atom-8" d="M 296.2 701.7 L 299.0 698.9 L 295.3 698.2 L 295.9 696.3 L 299.3 698.0 L 298.8 694.3 L 300.8 694.3 L 300.2 698.0 L 303.7 696.4 L 304.2 698.2 L 300.5 698.9 L 303.2 701.7 L 301.5 702.9 L 299.7 699.4 L 297.8 702.9 L 296.2 701.7 " fill="#191919"/>
<path class="atom-9" d="M 399.7 743.0 Q 399.7 738.4, 401.9 735.9 Q 404.1 733.4, 408.3 733.4 Q 412.5 733.4, 414.7 735.9 Q 417.0 738.4, 417.0 743.0 Q 417.0 747.5, 414.7 750.2 Q 412.4 752.7, 408.3 752.7 Q 404.2 752.7, 401.9 750.2 Q 399.7 747.6, 399.7 743.0 M 408.3 750.6 Q 411.2 750.6, 412.7 748.7 Q 414.3 746.7, 414.3 743.0 Q 414.3 739.3, 412.7 737.4 Q 411.2 735.5, 408.3 735.5 Q 405.4 735.5, 403.9 737.4 Q 402.3 739.2, 402.3 743.0 Q 402.3 746.8, 403.9 748.7 Q 405.4 750.6, 408.3 750.6 " fill="#FF0000"/>
<path class="atom-13" d="M 661.8 695.8 Q 661.8 691.2, 664.1 688.7 Q 666.3 686.2, 670.5 686.2 Q 674.7 686.2, 676.9 688.7 Q 679.2 691.2, 679.2 695.8 Q 679.2 700.3, 676.9 703.0 Q 674.6 705.5, 670.5 705.5 Q 666.3 705.5, 664.1 703.0 Q 661.8 700.4, 661.8 695.8 M 670.5 703.4 Q 673.4 703.4, 674.9 701.5 Q 676.5 699.5, 676.5 695.8 Q 676.5 692.1, 674.9 690.2 Q 673.4 688.3, 670.5 688.3 Q 667.6 688.3, 666.0 690.2 Q 664.5 692.0, 664.5 695.8 Q 664.5 699.6, 666.0 701.5 Q 667.6 703.4, 670.5 703.4 " fill="#FF0000"/>
<path class="atom-14" d="M 573.7 770.2 Q 573.7 765.7, 576.0 763.2 Q 578.2 760.6, 582.4 760.6 Q 586.6 760.6, 588.8 763.2 Q 591.1 765.7, 591.1 770.2 Q 591.1 774.8, 588.8 777.4 Q 586.5 780.0, 582.4 780.0 Q 578.2 780.0, 576.0 777.4 Q 573.7 774.8, 573.7 770.2 M 582.4 777.9 Q 585.3 777.9, 586.8 776.0 Q 588.4 774.0, 588.4 770.2 Q 588.4 766.5, 586.8 764.7 Q 585.3 762.8, 582.4 762.8 Q 579.5 762.8, 577.9 764.6 Q 576.4 766.5, 576.4 770.2 Q 576.4 774.0, 577.9 776.0 Q 579.5 777.9, 582.4 777.9 " fill="#FF0000"/>
<path class="atom-14" d="M 594.0 760.8 L 596.5 760.8 L 596.5 768.9 L 606.2 768.9 L 606.2 760.8 L 608.7 760.8 L 608.7 779.7 L 606.2 779.7 L 606.2 771.0 L 596.5 771.0 L 596.5 779.7 L 594.0 779.7 L 594.0 760.8 " fill="#FF0000"/>
<path class="atom-16" d="M 663.9 519.6 Q 663.9 515.0, 666.2 512.5 Q 668.4 510.0, 672.6 510.0 Q 676.8 510.0, 679.0 512.5 Q 681.3 515.0, 681.3 519.6 Q 681.3 524.2, 679.0 526.8 Q 676.7 529.3, 672.6 529.3 Q 668.4 529.3, 666.2 526.8 Q 663.9 524.2, 663.9 519.6 M 672.6 527.2 Q 675.5 527.2, 677.0 525.3 Q 678.6 523.4, 678.6 519.6 Q 678.6 515.9, 677.0 514.0 Q 675.5 512.1, 672.6 512.1 Q 669.7 512.1, 668.2 514.0 Q 666.6 515.8, 666.6 519.6 Q 666.6 523.4, 668.2 525.3 Q 669.7 527.2, 672.6 527.2 " fill="#FF0000"/>
<path class="atom-17" d="M 688.9 623.6 L 695.1 633.6 Q 695.7 634.6, 696.7 636.4 Q 697.6 638.2, 697.7 638.3 L 697.7 623.6 L 700.2 623.6 L 700.2 642.5 L 697.6 642.5 L 691.0 631.5 Q 690.2 630.3, 689.4 628.8 Q 688.6 627.3, 688.3 626.9 L 688.3 642.5 L 685.9 642.5 L 685.9 623.6 L 688.9 623.6 " fill="#0000FF"/>
<path class="atom-17" d="M 685.7 644.4 L 688.2 644.4 L 688.2 652.4 L 697.9 652.4 L 697.9 644.4 L 700.4 644.4 L 700.4 663.2 L 697.9 663.2 L 697.9 654.5 L 688.2 654.5 L 688.2 663.2 L 685.7 663.2 L 685.7 644.4 " fill="#0000FF"/>
<path class="atom-20" d="M 863.0 650.9 L 869.1 660.9 Q 869.8 661.8, 870.7 663.6 Q 871.7 665.4, 871.8 665.5 L 871.8 650.9 L 874.3 650.9 L 874.3 669.7 L 871.7 669.7 L 865.1 658.8 Q 864.3 657.5, 863.5 656.1 Q 862.7 654.6, 862.4 654.1 L 862.4 669.7 L 860.0 669.7 L 860.0 650.9 L 863.0 650.9 " fill="#0000FF"/>
<path class="atom-20" d="M 877.9 650.9 L 880.4 650.9 L 880.4 658.9 L 890.1 658.9 L 890.1 650.9 L 892.6 650.9 L 892.6 669.7 L 890.1 669.7 L 890.1 661.0 L 880.4 661.0 L 880.4 669.7 L 877.9 669.7 L 877.9 650.9 " fill="#0000FF"/>
<path class="atom-20" d="M 896.3 669.1 Q 896.8 667.9, 897.9 667.2 Q 899.0 666.6, 900.5 666.6 Q 902.4 666.6, 903.4 667.6 Q 904.5 668.6, 904.5 670.4 Q 904.5 672.3, 903.1 674.0 Q 901.7 675.7, 898.9 677.8 L 904.7 677.8 L 904.7 679.2 L 896.3 679.2 L 896.3 678.0 Q 898.6 676.3, 900.0 675.1 Q 901.4 673.9, 902.0 672.8 Q 902.7 671.7, 902.7 670.5 Q 902.7 669.3, 902.1 668.6 Q 901.5 668.0, 900.5 668.0 Q 899.5 668.0, 898.8 668.4 Q 898.1 668.8, 897.7 669.7 L 896.3 669.1 " fill="#0000FF"/>
</svg>