<svg xmlns="http://www.w3.org/2000/svg" xmlns:rdkit="http://www.rdkit.org/xml" xmlns:xlink="http://www.w3.org/1999/xlink" version="1.1" baseProfile="full" xml:space="preserve" width="1200px" height="1200px" viewBox="0 0 1200 1200">
<!-- END OF HEADER -->
<rect style="opacity:1.0;fill:#FFFFFF;stroke:none" width="1200.0" height="1200.0" x="0.0" y="0.0"> </rect>
<path class="bond-0 atom-0 atom-1" d="M 1052.3,209.6 L 998.9,243.5" style="fill:none;fill-rule:evenodd;stroke:#191919;stroke-width:2.0px;stroke-linecap:butt;stroke-linejoin:miter;stroke-opacity:1"/>
<path class="bond-0 atom-0 atom-1" d="M 998.9,243.5 L 945.4,277.4" style="fill:none;fill-rule:evenodd;stroke:#000000;stroke-width:2.0px;stroke-linecap:butt;stroke-linejoin:miter;stroke-opacity:1"/>
<path class="bond-1 atom-1 atom-2" d="M 945.4,277.4 L 828.5,216.2" style="fill:none;fill-rule:evenodd;stroke:#000000;stroke-width:2.0px;stroke-linecap:butt;stroke-linejoin:miter;stroke-opacity:1"/>
<path class="bond-2 atom-2 atom-3" d="M 828.5,216.2 L 717.0,286.8" style="fill:none;fill-rule:evenodd;stroke:#000000;stroke-width:2.0px;stroke-linecap:butt;stroke-linejoin:miter;stroke-opacity:1"/>
<path class="bond-3 atom-3 atom-4" d="M 717.0,286.8 L 600.0,225.6" style="fill:none;fill-rule:evenodd;stroke:#000000;stroke-width:2.0px;stroke-linecap:butt;stroke-linejoin:miter;stroke-opacity:1"/>
<path class="bond-4 atom-4 atom-5" d="M 600.0,225.6 L 552.9,255.5" style="fill:none;fill-rule:evenodd;stroke:#000000;stroke-width:2.0px;stroke-linecap:butt;stroke-linejoin:miter;stroke-opacity:1"/>
<path class="bond-4 atom-4 atom-5" d="M 552.9,255.5 L 505.9,285.3" style="fill:none;fill-rule:evenodd;stroke:#FF0000;stroke-width:2.0px;stroke-linecap:butt;stroke-linejoin:miter;stroke-opacity:1"/>
<path class="bond-5 atom-5 atom-6" d="M 471.1,287.3 L 421.3,261.2" style="fill:none;fill-rule:evenodd;stroke:#FF0000;stroke-width:2.0px;stroke-linecap:butt;stroke-linejoin:miter;stroke-opacity:1"/>
<path class="bond-5 atom-5 atom-6" d="M 421.3,261.2 L 371.5,235.1" style="fill:none;fill-rule:evenodd;stroke:#000000;stroke-width:2.0px;stroke-linecap:butt;stroke-linejoin:miter;stroke-opacity:1"/>
<path class="bond-6 atom-6 atom-7" d="M 381.7,240.4 L 379.2,181.2" style="fill:none;fill-rule:evenodd;stroke:#000000;stroke-width:2.0px;stroke-linecap:butt;stroke-linejoin:miter;stroke-opacity:1"/>
<path class="bond-6 atom-6 atom-7" d="M 379.2,181.2 L 376.7,121.9" style="fill:none;fill-rule:evenodd;stroke:#FF0000;stroke-width:2.0px;stroke-linecap:butt;stroke-linejoin:miter;stroke-opacity:1"/>
<path class="bond-6 atom-6 atom-7" d="M 361.9,241.3 L 359.4,182.0" style="fill:none;fill-rule:evenodd;stroke:#000000;stroke-width:2.0px;stroke-linecap:butt;stroke-linejoin:miter;stroke-opacity:1"/>
<path class="bond-6 atom-6 atom-7" d="M 359.4,182.0 L 357.0,122.8" style="fill:none;fill-rule:evenodd;stroke:#FF0000;stroke-width:2.0px;stroke-linecap:butt;stroke-linejoin:miter;stroke-opacity:1"/>
<path class="bond-7 atom-6 atom-8" d="M 371.5,235.1 L 260.0,305.8" style="fill:none;fill-rule:evenodd;stroke:#000000;stroke-width:2.0px;stroke-linecap:butt;stroke-linejoin:miter;stroke-opacity:1"/>
<path class="bond-8 atom-8 atom-9" d="M 260.0,305.8 L 204.3,276.7" style="fill:none;fill-rule:evenodd;stroke:#000000;stroke-width:2.0px;stroke-linecap:butt;stroke-linejoin:miter;stroke-opacity:1"/>
<path class="bond-8 atom-8 atom-9" d="M 204.3,276.7 L 148.6,247.5" style="fill:none;fill-rule:evenodd;stroke:#191919;stroke-width:2.0px;stroke-linecap:butt;stroke-linejoin:miter;stroke-opacity:1"/>
<path d="M 948.1,275.7 L 945.4,277.4 L 939.6,274.3" style="fill:none;stroke:#000000;stroke-width:2.0px;stroke-linecap:butt;stroke-linejoin:miter;stroke-opacity:1;"/>
<path d="M 834.3,219.2 L 828.5,216.2 L 822.9,219.7" style="fill:none;stroke:#000000;stroke-width:2.0px;stroke-linecap:butt;stroke-linejoin:miter;stroke-opacity:1;"/>
<path d="M 722.5,283.3 L 717.0,286.8 L 711.1,283.8" style="fill:none;stroke:#000000;stroke-width:2.0px;stroke-linecap:butt;stroke-linejoin:miter;stroke-opacity:1;"/>
<path d="M 605.8,228.7 L 600.0,225.6 L 597.6,227.1" style="fill:none;stroke:#000000;stroke-width:2.0px;stroke-linecap:butt;stroke-linejoin:miter;stroke-opacity:1;"/>
<path d="M 374.0,236.4 L 371.5,235.1 L 366.0,238.7" style="fill:none;stroke:#000000;stroke-width:2.0px;stroke-linecap:butt;stroke-linejoin:miter;stroke-opacity:1;"/>
<path d="M 265.6,302.3 L 260.0,305.8 L 257.3,304.4" style="fill:none;stroke:#000000;stroke-width:2.0px;stroke-linecap:butt;stroke-linejoin:miter;stroke-opacity:1;"/>
<path class="atom-0" d="M 1051.6 203.5 L 1055.8 199.3 L 1050.2 198.1 L 1051.1 195.3 L 1056.2 197.9 L 1055.4 192.3 L 1058.4 192.3 L 1057.6 197.8 L 1062.8 195.4 L 1063.6 198.1 L 1058.0 199.2 L 1062.0 203.5 L 1059.6 205.2 L 1056.8 199.9 L 1054.0 205.2 L 1051.6 203.5 " fill="#191919"/>
<path class="atom-5" d="M 475.5 296.4 Q 475.5 289.6, 478.9 285.8 Q 482.2 282.0, 488.5 282.0 Q 494.8 282.0, 498.1 285.8 Q 501.5 289.6, 501.5 296.4 Q 501.5 303.3, 498.1 307.2 Q 494.7 311.1, 488.5 311.1 Q 482.3 311.1, 478.9 307.2 Q 475.5 303.3, 475.5 296.4 M 488.5 307.9 Q 492.8 307.9, 495.1 305.0 Q 497.5 302.1, 497.5 296.4 Q 497.5 290.9, 495.1 288.1 Q 492.8 285.2, 488.5 285.2 Q 484.2 285.2, 481.8 288.0 Q 479.5 290.8, 479.5 296.4 Q 479.5 302.1, 481.8 305.0 Q 484.2 307.9, 488.5 307.9 " fill="#FF0000"/>
<path class="atom-7" d="M 353.1 103.3 Q 353.1 96.5, 356.4 92.7 Q 359.8 88.9, 366.1 88.9 Q 372.3 88.9, 375.7 92.7 Q 379.1 96.5, 379.1 103.3 Q 379.1 110.2, 375.7 114.1 Q 372.3 118.0, 366.1 118.0 Q 359.8 118.0, 356.4 114.1 Q 353.1 110.2, 353.1 103.3 M 366.1 114.8 Q 370.4 114.8, 372.7 111.9 Q 375.1 109.0, 375.1 103.3 Q 375.1 97.7, 372.7 94.9 Q 370.4 92.1, 366.1 92.1 Q 361.7 92.1, 359.4 94.9 Q 357.1 97.7, 357.1 103.3 Q 357.1 109.0, 359.4 111.9 Q 361.7 114.8, 366.1 114.8 " fill="#FF0000"/>
<path class="atom-9" d="M 137.7 241.5 L 141.9 237.2 L 136.4 236.1 L 137.2 233.3 L 142.3 235.8 L 141.6 230.3 L 144.6 230.2 L 143.7 235.8 L 148.9 233.4 L 149.8 236.1 L 144.2 237.1 L 148.2 241.4 L 145.7 243.2 L 143.0 237.9 L 140.2 243.2 L 137.7 241.5 " fill="#191919"/>
<path class="bond-0 atom-0 atom-1" d="M 813.5,553.6 L 781.3,609.3" style="fill:none;fill-rule:evenodd;stroke:#191919;stroke-width:2.0px;stroke-linecap:butt;stroke-linejoin:miter;stroke-opacity:1"/>
<path class="bond-0 atom-0 atom-1" d="M 781.3,609.3 L 749.2,665.0" style="fill:none;fill-rule:evenodd;stroke:#000000;stroke-width:2.0px;stroke-linecap:butt;stroke-linejoin:miter;stroke-opacity:1"/>
<path class="bond-1 atom-1 atom-2" d="M 749.2,665.0 L 617.1,665.0" style="fill:none;fill-rule:evenodd;stroke:#000000;stroke-width:2.0px;stroke-linecap:butt;stroke-linejoin:miter;stroke-opacity:1"/>
<path class="bond-2 atom-2 atom-3" d="M 617.1,665.0 L 589.5,712.8" style="fill:none;fill-rule:evenodd;stroke:#000000;stroke-width:2.0px;stroke-linecap:butt;stroke-linejoin:miter;stroke-opacity:1"/>
<path class="bond-2 atom-2 atom-3" d="M 589.5,712.8 L 562.0,760.6" style="fill:none;fill-rule:evenodd;stroke:#191919;stroke-width:2.0px;stroke-linecap:butt;stroke-linejoin:miter;stroke-opacity:1"/>
<path class="bond-3 atom-2 atom-4" d="M 617.1,665.0 L 551.1,550.7" style="fill:none;fill-rule:evenodd;stroke:#000000;stroke-width:2.0px;stroke-linecap:butt;stroke-linejoin:miter;stroke-opacity:1"/>
<path class="bond-4 atom-4 atom-5" d="M 556.8,560.6 L 585.8,510.5" style="fill:none;fill-rule:evenodd;stroke:#000000;stroke-width:2.0px;stroke-linecap:butt;stroke-linejoin:miter;stroke-opacity:1"/>
<path class="bond-4 atom-4 atom-5" d="M 585.8,510.5 L 614.7,460.4" style="fill:none;fill-rule:evenodd;stroke:#FF0000;stroke-width:2.0px;stroke-linecap:butt;stroke-linejoin:miter;stroke-opacity:1"/>
<path class="bond-4 atom-4 atom-5" d="M 539.7,550.7 L 568.6,500.6" style="fill:none;fill-rule:evenodd;stroke:#000000;stroke-width:2.0px;stroke-linecap:butt;stroke-linejoin:miter;stroke-opacity:1"/>
<path class="bond-4 atom-4 atom-5" d="M 568.6,500.6 L 597.5,450.5" style="fill:none;fill-rule:evenodd;stroke:#FF0000;stroke-width:2.0px;stroke-linecap:butt;stroke-linejoin:miter;stroke-opacity:1"/>
<path class="bond-5 atom-4 atom-6" d="M 551.1,550.7 L 493.8,550.7" style="fill:none;fill-rule:evenodd;stroke:#000000;stroke-width:2.0px;stroke-linecap:butt;stroke-linejoin:miter;stroke-opacity:1"/>
<path class="bond-5 atom-4 atom-6" d="M 493.8,550.7 L 436.5,550.7" style="fill:none;fill-rule:evenodd;stroke:#FF0000;stroke-width:2.0px;stroke-linecap:butt;stroke-linejoin:miter;stroke-opacity:1"/>
<path d="M 750.8,662.3 L 749.2,665.0 L 742.6,665.0" style="fill:none;stroke:#000000;stroke-width:2.0px;stroke-linecap:butt;stroke-linejoin:miter;stroke-opacity:1;"/>
<path d="M 554.4,556.4 L 551.1,550.7 L 548.3,550.7" style="fill:none;stroke:#000000;stroke-width:2.0px;stroke-linecap:butt;stroke-linejoin:miter;stroke-opacity:1;"/>
<path class="atom-0" d="M 809.8 547.6 L 814.0 543.3 L 808.5 542.2 L 809.3 539.4 L 814.4 541.9 L 813.7 536.4 L 816.7 536.3 L 815.8 541.9 L 821.0 539.5 L 821.9 542.2 L 816.3 543.2 L 820.3 547.5 L 817.8 549.3 L 815.1 544.0 L 812.3 549.3 L 809.8 547.6 " fill="#191919"/>
<path class="atom-3" d="M 545.8 776.2 L 549.9 772.0 L 544.4 770.9 L 545.3 768.0 L 550.3 770.6 L 549.6 765.0 L 552.6 765.0 L 551.8 770.5 L 556.9 768.1 L 557.8 770.9 L 552.2 771.9 L 556.2 776.2 L 553.8 777.9 L 551.0 772.7 L 548.2 777.9 L 545.8 776.2 " fill="#191919"/>
<path class="atom-5" d="M 604.1 436.5 Q 604.1 429.7, 607.5 425.9 Q 610.9 422.1, 617.1 422.1 Q 623.4 422.1, 626.8 425.9 Q 630.1 429.7, 630.1 436.5 Q 630.1 443.3, 626.7 447.3 Q 623.3 451.1, 617.1 451.1 Q 610.9 451.1, 607.5 447.3 Q 604.1 443.4, 604.1 436.5 M 617.1 447.9 Q 621.5 447.9, 623.8 445.1 Q 626.1 442.1, 626.1 436.5 Q 626.1 430.9, 623.8 428.1 Q 621.5 425.3, 617.1 425.3 Q 612.8 425.3, 610.5 428.1 Q 608.1 430.9, 608.1 436.5 Q 608.1 442.2, 610.5 445.1 Q 612.8 447.9, 617.1 447.9 " fill="#FF0000"/>
<path class="atom-6" d="M 378.1 536.7 L 382.0 536.7 L 382.0 548.8 L 396.5 548.8 L 396.5 536.7 L 400.3 536.7 L 400.3 565.0 L 396.5 565.0 L 396.5 552.0 L 382.0 552.0 L 382.0 565.0 L 378.1 565.0 L 378.1 536.7 " fill="#FF0000"/>
<path class="atom-6" d="M 406.1 550.8 Q 406.1 544.0, 409.5 540.2 Q 412.8 536.4, 419.1 536.4 Q 425.4 536.4, 428.7 540.2 Q 432.1 544.0, 432.1 550.8 Q 432.1 557.7, 428.7 561.6 Q 425.3 565.5, 419.1 565.5 Q 412.9 565.5, 409.5 561.6 Q 406.1 557.7, 406.1 550.8 M 419.1 562.3 Q 423.4 562.3, 425.7 559.4 Q 428.1 556.5, 428.1 550.8 Q 428.1 545.2, 425.7 542.4 Q 423.4 539.6, 419.1 539.6 Q 414.8 539.6, 412.4 542.4 Q 410.1 545.2, 410.1 550.8 Q 410.1 556.5, 412.4 559.4 Q 414.8 562.3, 419.1 562.3 " fill="#FF0000"/>
<path class="bond-0 atom-0 atom-1" d="M 439.6,960.4 L 491.2,930.6" style="fill:none;fill-rule:evenodd;stroke:#191919;stroke-width:2.0px;stroke-linecap:butt;stroke-linejoin:miter;stroke-opacity:1"/>
<path class="bond-0 atom-0 atom-1" d="M 491.2,930.6 L 542.8,900.8" style="fill:none;fill-rule:evenodd;stroke:#000000;stroke-width:2.0px;stroke-linecap:butt;stroke-linejoin:miter;stroke-opacity:1"/>
<path class="bond-1 atom-1 atom-2" d="M 542.8,900.8 L 657.2,966.8" style="fill:none;fill-rule:evenodd;stroke:#000000;stroke-width:2.0px;stroke-linecap:butt;stroke-linejoin:miter;stroke-opacity:1"/>
<path class="bond-2 atom-2 atom-3" d="M 657.2,966.8 L 711.8,935.3" style="fill:none;fill-rule:evenodd;stroke:#000000;stroke-width:2.0px;stroke-linecap:butt;stroke-linejoin:miter;stroke-opacity:1"/>
<path class="bond-2 atom-2 atom-3" d="M 711.8,935.3 L 766.4,903.7" style="fill:none;fill-rule:evenodd;stroke:#191919;stroke-width:2.0px;stroke-linecap:butt;stroke-linejoin:miter;stroke-opacity:1"/>
<path class="bond-3 atom-2 atom-4" d="M 647.3,961.1 L 647.3,1020.6" style="fill:none;fill-rule:evenodd;stroke:#000000;stroke-width:2.0px;stroke-linecap:butt;stroke-linejoin:miter;stroke-opacity:1"/>
<path class="bond-3 atom-2 atom-4" d="M 647.3,1020.6 L 647.3,1080.2" style="fill:none;fill-rule:evenodd;stroke:#FF0000;stroke-width:2.0px;stroke-linecap:butt;stroke-linejoin:miter;stroke-opacity:1"/>
<path class="bond-3 atom-2 atom-4" d="M 667.1,961.1 L 667.1,1020.6" style="fill:none;fill-rule:evenodd;stroke:#000000;stroke-width:2.0px;stroke-linecap:butt;stroke-linejoin:miter;stroke-opacity:1"/>
<path class="bond-3 atom-2 atom-4" d="M 667.1,1020.6 L 667.1,1080.2" style="fill:none;fill-rule:evenodd;stroke:#FF0000;stroke-width:2.0px;stroke-linecap:butt;stroke-linejoin:miter;stroke-opacity:1"/>
<path d="M 540.3,902.3 L 542.8,900.8 L 548.6,904.1" style="fill:none;stroke:#000000;stroke-width:2.0px;stroke-linecap:butt;stroke-linejoin:miter;stroke-opacity:1;"/>
<path d="M 651.4,963.5 L 657.2,966.8 L 659.9,965.2" style="fill:none;stroke:#000000;stroke-width:2.0px;stroke-linecap:butt;stroke-linejoin:miter;stroke-opacity:1;"/>
<path class="atom-0" d="M 423.2 963.7 L 427.3 959.4 L 421.8 958.3 L 422.6 955.5 L 427.7 958.0 L 427.0 952.5 L 430.0 952.4 L 429.2 958.0 L 434.3 955.6 L 435.2 958.3 L 429.6 959.3 L 433.6 963.6 L 431.2 965.4 L 428.4 960.1 L 425.6 965.4 L 423.2 963.7 " fill="#191919"/>
<path class="atom-3" d="M 766.2 897.6 L 770.3 893.4 L 764.8 892.3 L 765.6 889.4 L 770.7 892.0 L 770.0 886.4 L 773.0 886.4 L 772.2 892.0 L 777.3 889.6 L 778.2 892.3 L 772.6 893.3 L 776.6 897.6 L 774.2 899.4 L 771.4 894.1 L 768.6 899.4 L 766.2 897.6 " fill="#191919"/>
<path class="atom-4" d="M 644.2 1098.9 Q 644.2 1092.1, 647.5 1088.3 Q 650.9 1084.5, 657.2 1084.5 Q 663.4 1084.5, 666.8 1088.3 Q 670.2 1092.1, 670.2 1098.9 Q 670.2 1105.8, 666.8 1109.7 Q 663.4 1113.6, 657.2 1113.6 Q 650.9 1113.6, 647.5 1109.7 Q 644.2 1105.8, 644.2 1098.9 M 657.2 1110.4 Q 661.5 1110.4, 663.8 1107.5 Q 666.2 1104.6, 666.2 1098.9 Q 666.2 1093.4, 663.8 1090.6 Q 661.5 1087.7, 657.2 1087.7 Q 652.8 1087.7, 650.5 1090.5 Q 648.2 1093.3, 648.2 1098.9 Q 648.2 1104.6, 650.5 1107.5 Q 652.8 1110.4, 657.2 1110.4 " fill="#FF0000"/>
</svg>