<svg xmlns="http://www.w3.org/2000/svg" xmlns:rdkit="http://www.rdkit.org/xml" xmlns:xlink="http://www.w3.org/1999/xlink" version="1.1" baseProfile="full" xml:space="preserve" width="1200px" height="800px" viewBox="0 0 1200 800">
<!-- END OF HEADER -->
<rect style="opacity:1.0;fill:#FFFFFF;stroke:none" width="1200.0" height="800.0" x="0.0" y="0.0"> </rect>
<path class="bond-0 atom-0 atom-1" d="M 795.3,153.2 L 768.7,199.3" style="fill:none;fill-rule:evenodd;stroke:#191919;stroke-width:2.0px;stroke-linecap:butt;stroke-linejoin:miter;stroke-opacity:1"/>
<path class="bond-0 atom-0 atom-1" d="M 768.7,199.3 L 742.1,245.4" style="fill:none;fill-rule:evenodd;stroke:#FF0000;stroke-width:2.0px;stroke-linecap:butt;stroke-linejoin:miter;stroke-opacity:1"/>
<path class="bond-1 atom-1 atom-2" d="M 714.0,264.0 L 657.0,264.0" style="fill:none;fill-rule:evenodd;stroke:#FF0000;stroke-width:2.0px;stroke-linecap:butt;stroke-linejoin:miter;stroke-opacity:1"/>
<path class="bond-1 atom-1 atom-2" d="M 657.0,264.0 L 600.0,264.0" style="fill:none;fill-rule:evenodd;stroke:#000000;stroke-width:2.0px;stroke-linecap:butt;stroke-linejoin:miter;stroke-opacity:1"/>
<path class="bond-2 atom-2 atom-3" d="M 600.0,264.0 L 534.3,377.8" style="fill:none;fill-rule:evenodd;stroke:#000000;stroke-width:2.0px;stroke-linecap:butt;stroke-linejoin:miter;stroke-opacity:1"/>
<path class="bond-3 atom-2 atom-4" d="M 600.0,264.0 L 534.3,150.3" style="fill:none;fill-rule:evenodd;stroke:#000000;stroke-width:2.0px;stroke-linecap:butt;stroke-linejoin:miter;stroke-opacity:1"/>
<path class="bond-4 atom-4 atom-5" d="M 534.3,150.3 L 474.2,150.3" style="fill:none;fill-rule:evenodd;stroke:#000000;stroke-width:2.0px;stroke-linecap:butt;stroke-linejoin:miter;stroke-opacity:1"/>
<path class="bond-4 atom-4 atom-5" d="M 474.2,150.3 L 414.0,150.3" style="fill:none;fill-rule:evenodd;stroke:#191919;stroke-width:2.0px;stroke-linecap:butt;stroke-linejoin:miter;stroke-opacity:1"/>
<path class="bond-5 atom-4 atom-6" d="M 540.0,160.1 L 568.8,110.4" style="fill:none;fill-rule:evenodd;stroke:#000000;stroke-width:2.0px;stroke-linecap:butt;stroke-linejoin:miter;stroke-opacity:1"/>
<path class="bond-5 atom-4 atom-6" d="M 568.8,110.4 L 597.5,60.6" style="fill:none;fill-rule:evenodd;stroke:#FF0000;stroke-width:2.0px;stroke-linecap:butt;stroke-linejoin:miter;stroke-opacity:1"/>
<path class="bond-5 atom-4 atom-6" d="M 523.0,150.3 L 551.7,100.5" style="fill:none;fill-rule:evenodd;stroke:#000000;stroke-width:2.0px;stroke-linecap:butt;stroke-linejoin:miter;stroke-opacity:1"/>
<path class="bond-5 atom-4 atom-6" d="M 551.7,100.5 L 580.4,50.7" style="fill:none;fill-rule:evenodd;stroke:#FF0000;stroke-width:2.0px;stroke-linecap:butt;stroke-linejoin:miter;stroke-opacity:1"/>
<path d="M 537.6,156.0 L 534.3,150.3 L 531.3,150.3" style="fill:none;stroke:#000000;stroke-width:2.0px;stroke-linecap:butt;stroke-linejoin:miter;stroke-opacity:1;"/>
<path class="atom-0" d="M 791.6 147.1 L 795.8 142.9 L 790.3 141.8 L 791.1 138.9 L 796.2 141.5 L 795.5 135.9 L 798.5 135.9 L 797.6 141.5 L 802.8 139.1 L 803.7 141.8 L 798.1 142.8 L 802.1 147.1 L 799.6 148.9 L 796.9 143.6 L 794.1 148.9 L 791.6 147.1 " fill="#191919"/>
<path class="atom-1" d="M 718.3 264.1 Q 718.3 257.3, 721.7 253.5 Q 725.0 249.7, 731.3 249.7 Q 737.6 249.7, 741.0 253.5 Q 744.3 257.3, 744.3 264.1 Q 744.3 271.0, 740.9 274.9 Q 737.5 278.8, 731.3 278.8 Q 725.1 278.8, 721.7 274.9 Q 718.3 271.0, 718.3 264.1 M 731.3 275.6 Q 735.6 275.6, 738.0 272.7 Q 740.3 269.8, 740.3 264.1 Q 740.3 258.5, 738.0 255.7 Q 735.6 252.9, 731.3 252.9 Q 727.0 252.9, 724.6 255.7 Q 722.3 258.5, 722.3 264.1 Q 722.3 269.8, 724.6 272.7 Q 727.0 275.6, 731.3 275.6 " fill="#FF0000"/>
<path class="atom-5" d="M 397.7 147.1 L 401.8 142.9 L 396.3 141.8 L 397.2 138.9 L 402.2 141.5 L 401.5 135.9 L 404.5 135.9 L 403.7 141.5 L 408.8 139.1 L 409.7 141.8 L 404.1 142.8 L 408.1 147.1 L 405.7 148.9 L 402.9 143.6 L 400.1 148.9 L 397.7 147.1 " fill="#191919"/>
<path class="atom-6" d="M 587.0 36.6 Q 587.0 29.8, 590.4 26.0 Q 593.7 22.2, 600.0 22.2 Q 606.3 22.2, 609.6 26.0 Q 613.0 29.8, 613.0 36.6 Q 613.0 43.5, 609.6 47.4 Q 606.2 51.3, 600.0 51.3 Q 593.8 51.3, 590.4 47.4 Q 587.0 43.6, 587.0 36.6 M 600.0 48.1 Q 604.3 48.1, 606.6 45.2 Q 609.0 42.3, 609.0 36.6 Q 609.0 31.1, 606.6 28.3 Q 604.3 25.4, 600.0 25.4 Q 595.7 25.4, 593.3 28.2 Q 591.0 31.0, 591.0 36.6 Q 591.0 42.4, 593.3 45.2 Q 595.7 48.1, 600.0 48.1 " fill="#FF0000"/>
<path class="bond-0 atom-0 atom-1" d="M 383.6,633.6 L 434.9,604.0" style="fill:none;fill-rule:evenodd;stroke:#191919;stroke-width:2.0px;stroke-linecap:butt;stroke-linejoin:miter;stroke-opacity:1"/>
<path class="bond-0 atom-0 atom-1" d="M 434.9,604.0 L 486.3,574.3" style="fill:none;fill-rule:evenodd;stroke:#000000;stroke-width:2.0px;stroke-linecap:butt;stroke-linejoin:miter;stroke-opacity:1"/>
<path class="bond-1 atom-1 atom-2" d="M 486.3,574.3 L 600.0,640.0" style="fill:none;fill-rule:evenodd;stroke:#000000;stroke-width:2.0px;stroke-linecap:butt;stroke-linejoin:miter;stroke-opacity:1"/>
<path class="bond-2 atom-2 atom-3" d="M 600.0,640.0 L 648.2,612.2" style="fill:none;fill-rule:evenodd;stroke:#000000;stroke-width:2.0px;stroke-linecap:butt;stroke-linejoin:miter;stroke-opacity:1"/>
<path class="bond-2 atom-2 atom-3" d="M 648.2,612.2 L 696.4,584.3" style="fill:none;fill-rule:evenodd;stroke:#FF0000;stroke-width:2.0px;stroke-linecap:butt;stroke-linejoin:miter;stroke-opacity:1"/>
<path class="bond-3 atom-3 atom-4" d="M 731.1,584.3 L 773.7,609.0" style="fill:none;fill-rule:evenodd;stroke:#FF0000;stroke-width:2.0px;stroke-linecap:butt;stroke-linejoin:miter;stroke-opacity:1"/>
<path class="bond-3 atom-3 atom-4" d="M 773.7,609.0 L 816.4,633.6" style="fill:none;fill-rule:evenodd;stroke:#191919;stroke-width:2.0px;stroke-linecap:butt;stroke-linejoin:miter;stroke-opacity:1"/>
<path d="M 483.7,575.8 L 486.3,574.3 L 492.0,577.6" style="fill:none;stroke:#000000;stroke-width:2.0px;stroke-linecap:butt;stroke-linejoin:miter;stroke-opacity:1;"/>
<path d="M 594.3,636.7 L 600.0,640.0 L 602.4,638.6" style="fill:none;stroke:#000000;stroke-width:2.0px;stroke-linecap:butt;stroke-linejoin:miter;stroke-opacity:1;"/>
<path class="atom-0" d="M 367.2 636.8 L 371.4 632.6 L 365.8 631.5 L 366.7 628.6 L 371.8 631.2 L 371.0 625.6 L 374.0 625.6 L 373.2 631.2 L 378.4 628.8 L 379.2 631.5 L 373.6 632.5 L 377.6 636.8 L 375.2 638.6 L 372.4 633.3 L 369.6 638.6 L 367.2 636.8 " fill="#191919"/>
<path class="atom-3" d="M 700.7 574.4 Q 700.7 567.6, 704.1 563.8 Q 707.5 560.0, 713.7 560.0 Q 720.0 560.0, 723.4 563.8 Q 726.7 567.6, 726.7 574.4 Q 726.7 581.3, 723.3 585.2 Q 719.9 589.1, 713.7 589.1 Q 707.5 589.1, 704.1 585.2 Q 700.7 581.3, 700.7 574.4 M 713.7 585.9 Q 718.1 585.9, 720.4 583.0 Q 722.7 580.1, 722.7 574.4 Q 722.7 568.8, 720.4 566.0 Q 718.1 563.2, 713.7 563.2 Q 709.4 563.2, 707.1 566.0 Q 704.7 568.8, 704.7 574.4 Q 704.7 580.1, 707.1 583.0 Q 709.4 585.9, 713.7 585.9 " fill="#FF0000"/>
<path class="atom-4" d="M 822.1 636.8 L 826.3 632.6 L 820.8 631.5 L 821.6 628.6 L 826.7 631.2 L 826.0 625.6 L 829.0 625.6 L 828.1 631.2 L 833.3 628.8 L 834.2 631.5 L 828.6 632.5 L 832.6 636.8 L 830.1 638.6 L 827.4 633.3 L 824.6 638.6 L 822.1 636.8 " fill="#191919"/>
</svg>