<svg xmlns="http://www.w3.org/2000/svg" xmlns:rdkit="http://www.rdkit.org/xml" xmlns:xlink="http://www.w3.org/1999/xlink" version="1.1" baseProfile="full" xml:space="preserve" width="1200px" height="800px" viewBox="0 0 1200 800">
<!-- END OF HEADER -->
<rect style="opacity:1.0;fill:#FFFFFF;stroke:none" width="1200.0" height="800.0" x="0.0" y="0.0"> </rect>
<path class="bond-0 atom-0 atom-1" d="M 703.6,364.3 L 686.7,329.4" style="fill:none;fill-rule:evenodd;stroke:#191919;stroke-width:2.0px;stroke-linecap:butt;stroke-linejoin:miter;stroke-opacity:1"/>
<path class="bond-0 atom-0 atom-1" d="M 686.7,329.4 L 669.8,294.5" style="fill:none;fill-rule:evenodd;stroke:#000000;stroke-width:2.0px;stroke-linecap:butt;stroke-linejoin:miter;stroke-opacity:1"/>
<path class="bond-1 atom-1 atom-2" d="M 669.8,294.5 L 629.6,291.6" style="fill:none;fill-rule:evenodd;stroke:#000000;stroke-width:2.0px;stroke-linecap:butt;stroke-linejoin:miter;stroke-opacity:1"/>
<path class="bond-1 atom-1 atom-2" d="M 629.6,291.6 L 589.3,288.6" style="fill:none;fill-rule:evenodd;stroke:#FF0000;stroke-width:2.0px;stroke-linecap:butt;stroke-linejoin:miter;stroke-opacity:1"/>
<path class="bond-2 atom-2 atom-3" d="M 565.3,270.5 L 548.4,235.6" style="fill:none;fill-rule:evenodd;stroke:#FF0000;stroke-width:2.0px;stroke-linecap:butt;stroke-linejoin:miter;stroke-opacity:1"/>
<path class="bond-2 atom-2 atom-3" d="M 548.4,235.6 L 531.5,200.6" style="fill:none;fill-rule:evenodd;stroke:#000000;stroke-width:2.0px;stroke-linecap:butt;stroke-linejoin:miter;stroke-opacity:1"/>
<path class="bond-3 atom-3 atom-4" d="M 531.5,200.6 L 435.3,193.6" style="fill:none;fill-rule:evenodd;stroke:#000000;stroke-width:2.0px;stroke-linecap:butt;stroke-linejoin:miter;stroke-opacity:1"/>
<path class="bond-4 atom-4 atom-5" d="M 435.3,193.6 L 413.9,225.0" style="fill:none;fill-rule:evenodd;stroke:#000000;stroke-width:2.0px;stroke-linecap:butt;stroke-linejoin:miter;stroke-opacity:1"/>
<path class="bond-4 atom-4 atom-5" d="M 413.9,225.0 L 392.6,256.4" style="fill:none;fill-rule:evenodd;stroke:#FF0000;stroke-width:2.0px;stroke-linecap:butt;stroke-linejoin:miter;stroke-opacity:1"/>
<path class="bond-5 atom-3 atom-6" d="M 531.5,200.6 L 585.7,120.8" style="fill:none;fill-rule:evenodd;stroke:#000000;stroke-width:2.0px;stroke-linecap:butt;stroke-linejoin:miter;stroke-opacity:1"/>
<path class="bond-6 atom-6 atom-7" d="M 585.7,120.8 L 565.2,78.2" style="fill:none;fill-rule:evenodd;stroke:#000000;stroke-width:2.0px;stroke-linecap:butt;stroke-linejoin:miter;stroke-opacity:1"/>
<path class="bond-6 atom-6 atom-7" d="M 565.2,78.2 L 544.6,35.7" style="fill:none;fill-rule:evenodd;stroke:#191919;stroke-width:2.0px;stroke-linecap:butt;stroke-linejoin:miter;stroke-opacity:1"/>
<path class="bond-7 atom-6 atom-8" d="M 585.7,120.8 L 682.0,127.8" style="fill:none;fill-rule:evenodd;stroke:#000000;stroke-width:2.0px;stroke-linecap:butt;stroke-linejoin:miter;stroke-opacity:1"/>
<path class="bond-8 atom-8 atom-9" d="M 682.0,127.8 L 703.2,96.6" style="fill:none;fill-rule:evenodd;stroke:#000000;stroke-width:2.0px;stroke-linecap:butt;stroke-linejoin:miter;stroke-opacity:1"/>
<path class="bond-8 atom-8 atom-9" d="M 703.2,96.6 L 724.4,65.4" style="fill:none;fill-rule:evenodd;stroke:#FF0000;stroke-width:2.0px;stroke-linecap:butt;stroke-linejoin:miter;stroke-opacity:1"/>
<path class="bond-9 atom-8 atom-10" d="M 682.0,127.8 L 724.0,214.7" style="fill:none;fill-rule:evenodd;stroke:#000000;stroke-width:2.0px;stroke-linecap:butt;stroke-linejoin:miter;stroke-opacity:1"/>
<path class="bond-10 atom-10 atom-11" d="M 724.0,214.7 L 764.3,217.6" style="fill:none;fill-rule:evenodd;stroke:#000000;stroke-width:2.0px;stroke-linecap:butt;stroke-linejoin:miter;stroke-opacity:1"/>
<path class="bond-10 atom-10 atom-11" d="M 764.3,217.6 L 804.6,220.5" style="fill:none;fill-rule:evenodd;stroke:#FF0000;stroke-width:2.0px;stroke-linecap:butt;stroke-linejoin:miter;stroke-opacity:1"/>
<path class="bond-11 atom-10 atom-1" d="M 724.0,214.7 L 669.8,294.5" style="fill:none;fill-rule:evenodd;stroke:#000000;stroke-width:2.0px;stroke-linecap:butt;stroke-linejoin:miter;stroke-opacity:1"/>
<path d="M 440.1,193.9 L 435.3,193.6 L 434.2,195.2" style="fill:none;stroke:#000000;stroke-width:2.0px;stroke-linecap:butt;stroke-linejoin:miter;stroke-opacity:1;"/>
<path class="atom-0" d="M 706.7 378.3 L 710.7 374.2 L 705.4 373.2 L 706.2 370.4 L 711.1 372.9 L 710.4 367.5 L 713.3 367.5 L 712.5 372.9 L 717.5 370.5 L 718.3 373.2 L 712.9 374.2 L 716.8 378.3 L 714.4 380.0 L 711.8 374.9 L 709.1 380.0 L 706.7 378.3 " fill="#191919"/>
<path class="atom-2" d="M 561.0 287.6 Q 561.0 281.0, 564.3 277.3 Q 567.5 273.7, 573.6 273.7 Q 579.6 273.7, 582.9 277.3 Q 586.1 281.0, 586.1 287.6 Q 586.1 294.2, 582.8 298.0 Q 579.6 301.7, 573.6 301.7 Q 567.5 301.7, 564.3 298.0 Q 561.0 294.2, 561.0 287.6 M 573.6 298.6 Q 577.7 298.6, 580.0 295.9 Q 582.3 293.0, 582.3 287.6 Q 582.3 282.2, 580.0 279.5 Q 577.7 276.8, 573.6 276.8 Q 569.4 276.8, 567.1 279.5 Q 564.9 282.2, 564.9 287.6 Q 564.9 293.1, 567.1 295.9 Q 569.4 298.6, 573.6 298.6 " fill="#FF0000"/>
<path class="atom-5" d="M 341.5 259.9 L 345.2 259.9 L 345.2 271.5 L 359.2 271.5 L 359.2 259.9 L 362.9 259.9 L 362.9 287.3 L 359.2 287.3 L 359.2 274.6 L 345.2 274.6 L 345.2 287.3 L 341.5 287.3 L 341.5 259.9 " fill="#FF0000"/>
<path class="atom-5" d="M 368.5 273.5 Q 368.5 267.0, 371.8 263.3 Q 375.0 259.6, 381.1 259.6 Q 387.1 259.6, 390.4 263.3 Q 393.6 267.0, 393.6 273.5 Q 393.6 280.2, 390.3 283.9 Q 387.0 287.7, 381.1 287.7 Q 375.0 287.7, 371.8 283.9 Q 368.5 280.2, 368.5 273.5 M 381.1 284.6 Q 385.2 284.6, 387.5 281.8 Q 389.7 279.0, 389.7 273.5 Q 389.7 268.1, 387.5 265.4 Q 385.2 262.7, 381.1 262.7 Q 376.9 262.7, 374.6 265.4 Q 372.4 268.1, 372.4 273.5 Q 372.4 279.0, 374.6 281.8 Q 376.9 284.6, 381.1 284.6 " fill="#FF0000"/>
<path class="atom-7" d="M 538.5 30.8 L 542.6 26.8 L 537.2 25.7 L 538.0 22.9 L 542.9 25.4 L 542.2 20.0 L 545.1 20.0 L 544.3 25.4 L 549.3 23.0 L 550.2 25.7 L 544.8 26.7 L 548.6 30.8 L 546.3 32.5 L 543.6 27.4 L 540.9 32.5 L 538.5 30.8 " fill="#191919"/>
<path class="atom-9" d="M 723.7 48.0 Q 723.7 41.5, 726.9 37.8 Q 730.1 34.1, 736.2 34.1 Q 742.3 34.1, 745.5 37.8 Q 748.8 41.5, 748.8 48.0 Q 748.8 54.7, 745.5 58.5 Q 742.2 62.2, 736.2 62.2 Q 730.2 62.2, 726.9 58.5 Q 723.7 54.7, 723.7 48.0 M 736.2 59.1 Q 740.4 59.1, 742.6 56.3 Q 744.9 53.5, 744.9 48.0 Q 744.9 42.7, 742.6 40.0 Q 740.4 37.2, 736.2 37.2 Q 732.0 37.2, 729.8 39.9 Q 727.5 42.6, 727.5 48.0 Q 727.5 53.5, 729.8 56.3 Q 732.0 59.1, 736.2 59.1 " fill="#FF0000"/>
<path class="atom-9" d="M 753.0 34.4 L 756.7 34.4 L 756.7 46.1 L 770.7 46.1 L 770.7 34.4 L 774.4 34.4 L 774.4 61.8 L 770.7 61.8 L 770.7 49.1 L 756.7 49.1 L 756.7 61.8 L 753.0 61.8 L 753.0 34.4 " fill="#FF0000"/>
<path class="atom-11" d="M 807.7 221.8 Q 807.7 215.2, 811.0 211.5 Q 814.2 207.9, 820.3 207.9 Q 826.4 207.9, 829.6 211.5 Q 832.8 215.2, 832.8 221.8 Q 832.8 228.4, 829.6 232.2 Q 826.3 235.9, 820.3 235.9 Q 814.3 235.9, 811.0 232.2 Q 807.7 228.5, 807.7 221.8 M 820.3 232.9 Q 824.5 232.9, 826.7 230.1 Q 829.0 227.3, 829.0 221.8 Q 829.0 216.4, 826.7 213.7 Q 824.5 211.0, 820.3 211.0 Q 816.1 211.0, 813.8 213.7 Q 811.6 216.4, 811.6 221.8 Q 811.6 227.3, 813.8 230.1 Q 816.1 232.9, 820.3 232.9 " fill="#FF0000"/>
<path class="atom-11" d="M 837.1 208.2 L 840.8 208.2 L 840.8 219.8 L 854.8 219.8 L 854.8 208.2 L 858.5 208.2 L 858.5 235.5 L 854.8 235.5 L 854.8 222.9 L 840.8 222.9 L 840.8 235.5 L 837.1 235.5 L 837.1 208.2 " fill="#FF0000"/>
<path class="bond-0 atom-0 atom-1" d="M 545.5,599.8 L 581.1,599.8" style="fill:none;fill-rule:evenodd;stroke:#191919;stroke-width:2.0px;stroke-linecap:butt;stroke-linejoin:miter;stroke-opacity:1"/>
<path class="bond-0 atom-0 atom-1" d="M 581.1,599.8 L 616.7,599.8" style="fill:none;fill-rule:evenodd;stroke:#FF0000;stroke-width:2.0px;stroke-linecap:butt;stroke-linejoin:miter;stroke-opacity:1"/>
<path class="atom-0" d="M 530.7 596.8 L 534.7 592.7 L 529.4 591.6 L 530.2 588.9 L 535.1 591.3 L 534.4 586.0 L 537.3 585.9 L 536.5 591.3 L 541.5 589.0 L 542.3 591.6 L 536.9 592.6 L 540.8 596.7 L 538.5 598.4 L 535.8 593.3 L 533.1 598.4 L 530.7 596.8 " fill="#191919"/>
<path class="atom-1" d="M 619.8 599.9 Q 619.8 593.3, 623.1 589.7 Q 626.3 586.0, 632.4 586.0 Q 638.5 586.0, 641.7 589.7 Q 644.9 593.3, 644.9 599.9 Q 644.9 606.5, 641.7 610.3 Q 638.4 614.1, 632.4 614.1 Q 626.4 614.1, 623.1 610.3 Q 619.8 606.6, 619.8 599.9 M 632.4 611.0 Q 636.6 611.0, 638.8 608.2 Q 641.1 605.4, 641.1 599.9 Q 641.1 594.5, 638.8 591.8 Q 636.6 589.1, 632.4 589.1 Q 628.2 589.1, 625.9 591.8 Q 623.7 594.5, 623.7 599.9 Q 623.7 605.4, 625.9 608.2 Q 628.2 611.0, 632.4 611.0 " fill="#FF0000"/>
<path class="atom-1" d="M 649.2 586.3 L 652.9 586.3 L 652.9 597.9 L 666.9 597.9 L 666.9 586.3 L 670.6 586.3 L 670.6 613.6 L 666.9 613.6 L 666.9 601.0 L 652.9 601.0 L 652.9 613.6 L 649.2 613.6 L 649.2 586.3 " fill="#FF0000"/>
</svg>