<svg xmlns="http://www.w3.org/2000/svg" xmlns:rdkit="http://www.rdkit.org/xml" xmlns:xlink="http://www.w3.org/1999/xlink" version="1.1" baseProfile="full" xml:space="preserve" width="1200px" height="800px" viewBox="0 0 1200 800">
<!-- END OF HEADER -->
<rect style="opacity:1.0;fill:#FFFFFF;stroke:none" width="1200.0" height="800.0" x="0.0" y="0.0"> </rect>
<path class="bond-0 atom-0 atom-1" d="M 929.1,91.6 L 900.5,132.7" style="fill:none;fill-rule:evenodd;stroke:#191919;stroke-width:2.0px;stroke-linecap:butt;stroke-linejoin:miter;stroke-opacity:1"/>
<path class="bond-0 atom-0 atom-1" d="M 900.5,132.7 L 871.9,173.8" style="fill:none;fill-rule:evenodd;stroke:#FF0000;stroke-width:2.0px;stroke-linecap:butt;stroke-linejoin:miter;stroke-opacity:1"/>
<path class="bond-1 atom-1 atom-2" d="M 841.9,190.9 L 787.7,186.3" style="fill:none;fill-rule:evenodd;stroke:#FF0000;stroke-width:2.0px;stroke-linecap:butt;stroke-linejoin:miter;stroke-opacity:1"/>
<path class="bond-1 atom-1 atom-2" d="M 787.7,186.3 L 733.6,181.8" style="fill:none;fill-rule:evenodd;stroke:#000000;stroke-width:2.0px;stroke-linecap:butt;stroke-linejoin:miter;stroke-opacity:1"/>
<path class="bond-2 atom-2 atom-3" d="M 733.6,181.8 L 661.7,285.2" style="fill:none;fill-rule:evenodd;stroke:#000000;stroke-width:2.0px;stroke-linecap:butt;stroke-linejoin:miter;stroke-opacity:1"/>
<path class="bond-3 atom-3 atom-4" d="M 661.7,285.2 L 612.5,281.1" style="fill:none;fill-rule:evenodd;stroke:#000000;stroke-width:2.0px;stroke-linecap:butt;stroke-linejoin:miter;stroke-opacity:1"/>
<path class="bond-3 atom-3 atom-4" d="M 612.5,281.1 L 563.3,277.0" style="fill:none;fill-rule:evenodd;stroke:#0000FF;stroke-width:2.0px;stroke-linecap:butt;stroke-linejoin:miter;stroke-opacity:1"/>
<path class="bond-4 atom-4 atom-5" d="M 520.9,296.6 L 492.6,337.4" style="fill:none;fill-rule:evenodd;stroke:#0000FF;stroke-width:2.0px;stroke-linecap:butt;stroke-linejoin:miter;stroke-opacity:1"/>
<path class="bond-4 atom-4 atom-5" d="M 492.6,337.4 L 464.2,378.1" style="fill:none;fill-rule:evenodd;stroke:#000000;stroke-width:2.0px;stroke-linecap:butt;stroke-linejoin:miter;stroke-opacity:1"/>
<path class="bond-5 atom-4 atom-6" d="M 527.5,256.4 L 505.0,208.5" style="fill:none;fill-rule:evenodd;stroke:#0000FF;stroke-width:2.0px;stroke-linecap:butt;stroke-linejoin:miter;stroke-opacity:1"/>
<path class="bond-5 atom-4 atom-6" d="M 505.0,208.5 L 482.5,160.7" style="fill:none;fill-rule:evenodd;stroke:#000000;stroke-width:2.0px;stroke-linecap:butt;stroke-linejoin:miter;stroke-opacity:1"/>
<path class="bond-6 atom-6 atom-7" d="M 482.5,160.7 L 356.9,150.2" style="fill:none;fill-rule:evenodd;stroke:#000000;stroke-width:2.0px;stroke-linecap:butt;stroke-linejoin:miter;stroke-opacity:1"/>
<path class="bond-7 atom-7 atom-8" d="M 356.9,150.2 L 334.6,102.6" style="fill:none;fill-rule:evenodd;stroke:#000000;stroke-width:2.0px;stroke-linecap:butt;stroke-linejoin:miter;stroke-opacity:1"/>
<path class="bond-7 atom-7 atom-8" d="M 334.6,102.6 L 312.2,55.1" style="fill:none;fill-rule:evenodd;stroke:#FF0000;stroke-width:2.0px;stroke-linecap:butt;stroke-linejoin:miter;stroke-opacity:1"/>
<path d="M 736.3,182.0 L 733.6,181.8 L 730.0,186.9" style="fill:none;stroke:#000000;stroke-width:2.0px;stroke-linecap:butt;stroke-linejoin:miter;stroke-opacity:1;"/>
<path d="M 665.3,280.0 L 661.7,285.2 L 659.2,285.0" style="fill:none;stroke:#000000;stroke-width:2.0px;stroke-linecap:butt;stroke-linejoin:miter;stroke-opacity:1;"/>
<path d="M 483.6,163.1 L 482.5,160.7 L 476.2,160.2" style="fill:none;stroke:#000000;stroke-width:2.0px;stroke-linecap:butt;stroke-linejoin:miter;stroke-opacity:1;"/>
<path d="M 363.2,150.7 L 356.9,150.2 L 355.8,147.8" style="fill:none;stroke:#000000;stroke-width:2.0px;stroke-linecap:butt;stroke-linejoin:miter;stroke-opacity:1;"/>
<path class="atom-0" d="M 925.6 85.7 L 929.8 81.4 L 924.3 80.3 L 925.1 77.5 L 930.2 80.0 L 929.5 74.5 L 932.5 74.4 L 931.6 80.0 L 936.8 77.6 L 937.7 80.3 L 932.1 81.4 L 936.1 85.6 L 933.6 87.4 L 930.9 82.1 L 928.1 87.4 L 925.6 85.7 " fill="#191919"/>
<path class="atom-1" d="M 846.1 192.4 Q 846.1 185.6, 849.5 181.8 Q 852.8 178.0, 859.1 178.0 Q 865.4 178.0, 868.7 181.8 Q 872.1 185.6, 872.1 192.4 Q 872.1 199.3, 868.7 203.2 Q 865.3 207.1, 859.1 207.1 Q 852.9 207.1, 849.5 203.2 Q 846.1 199.3, 846.1 192.4 M 859.1 203.9 Q 863.4 203.9, 865.7 201.0 Q 868.1 198.1, 868.1 192.4 Q 868.1 186.8, 865.7 184.0 Q 863.4 181.2, 859.1 181.2 Q 854.8 181.2, 852.4 184.0 Q 850.1 186.8, 850.1 192.4 Q 850.1 198.1, 852.4 201.0 Q 854.8 203.9, 859.1 203.9 " fill="#FF0000"/>
<path class="atom-4" d="M 529.9 260.5 L 539.1 275.5 Q 540.1 277.0, 541.5 279.7 Q 543.0 282.4, 543.1 282.5 L 543.1 260.5 L 546.9 260.5 L 546.9 288.8 L 543.0 288.8 L 533.0 272.4 Q 531.9 270.5, 530.6 268.3 Q 529.4 266.1, 529.1 265.4 L 529.1 288.8 L 525.4 288.8 L 525.4 260.5 L 529.9 260.5 " fill="#0000FF"/>
<path class="atom-4" d="M 552.2 265.6 L 557.2 265.6 L 557.2 260.4 L 559.4 260.4 L 559.4 265.6 L 564.5 265.6 L 564.5 267.5 L 559.4 267.5 L 559.4 272.8 L 557.2 272.8 L 557.2 267.5 L 552.2 267.5 L 552.2 265.6 " fill="#0000FF"/>
<path class="atom-4" d="M 525.0 291.7 L 528.9 291.7 L 528.9 303.7 L 543.4 303.7 L 543.4 291.7 L 547.2 291.7 L 547.2 320.0 L 543.4 320.0 L 543.4 306.9 L 528.9 306.9 L 528.9 320.0 L 525.0 320.0 L 525.0 291.7 " fill="#0000FF"/>
<path class="atom-8" d="M 262.3 22.2 L 266.2 22.2 L 266.2 34.2 L 280.6 34.2 L 280.6 22.2 L 284.5 22.2 L 284.5 50.5 L 280.6 50.5 L 280.6 37.4 L 266.2 37.4 L 266.2 50.5 L 262.3 50.5 L 262.3 22.2 " fill="#FF0000"/>
<path class="atom-8" d="M 290.3 36.3 Q 290.3 29.5, 293.6 25.7 Q 297.0 21.9, 303.3 21.9 Q 309.6 21.9, 312.9 25.7 Q 316.3 29.5, 316.3 36.3 Q 316.3 43.1, 312.9 47.1 Q 309.5 50.9, 303.3 50.9 Q 297.0 50.9, 293.6 47.1 Q 290.3 43.2, 290.3 36.3 M 303.3 47.7 Q 307.6 47.7, 309.9 44.9 Q 312.3 41.9, 312.3 36.3 Q 312.3 30.7, 309.9 27.9 Q 307.6 25.1, 303.3 25.1 Q 299.0 25.1, 296.6 27.9 Q 294.3 30.7, 294.3 36.3 Q 294.3 42.0, 296.6 44.9 Q 299.0 47.7, 303.3 47.7 " fill="#FF0000"/>
<path class="bond-0 atom-0 atom-1" d="M 1031.7,604.5 L 980.7,636.9" style="fill:none;fill-rule:evenodd;stroke:#191919;stroke-width:2.0px;stroke-linecap:butt;stroke-linejoin:miter;stroke-opacity:1"/>
<path class="bond-0 atom-0 atom-1" d="M 980.7,636.9 L 929.6,669.3" style="fill:none;fill-rule:evenodd;stroke:#000000;stroke-width:2.0px;stroke-linecap:butt;stroke-linejoin:miter;stroke-opacity:1"/>
<path class="bond-1 atom-1 atom-2" d="M 929.6,669.3 L 818.0,610.9" style="fill:none;fill-rule:evenodd;stroke:#000000;stroke-width:2.0px;stroke-linecap:butt;stroke-linejoin:miter;stroke-opacity:1"/>
<path class="bond-2 atom-2 atom-3" d="M 818.0,610.9 L 711.6,678.3" style="fill:none;fill-rule:evenodd;stroke:#000000;stroke-width:2.0px;stroke-linecap:butt;stroke-linejoin:miter;stroke-opacity:1"/>
<path class="bond-3 atom-3 atom-4" d="M 711.6,678.3 L 600.0,619.9" style="fill:none;fill-rule:evenodd;stroke:#000000;stroke-width:2.0px;stroke-linecap:butt;stroke-linejoin:miter;stroke-opacity:1"/>
<path class="bond-4 atom-4 atom-5" d="M 600.0,619.9 L 493.6,687.4" style="fill:none;fill-rule:evenodd;stroke:#000000;stroke-width:2.0px;stroke-linecap:butt;stroke-linejoin:miter;stroke-opacity:1"/>
<path class="bond-5 atom-5 atom-6" d="M 493.6,687.4 L 382.0,629.0" style="fill:none;fill-rule:evenodd;stroke:#000000;stroke-width:2.0px;stroke-linecap:butt;stroke-linejoin:miter;stroke-opacity:1"/>
<path class="bond-6 atom-6 atom-7" d="M 391.6,634.0 L 389.3,577.8" style="fill:none;fill-rule:evenodd;stroke:#000000;stroke-width:2.0px;stroke-linecap:butt;stroke-linejoin:miter;stroke-opacity:1"/>
<path class="bond-6 atom-6 atom-7" d="M 389.3,577.8 L 387.0,521.6" style="fill:none;fill-rule:evenodd;stroke:#FF0000;stroke-width:2.0px;stroke-linecap:butt;stroke-linejoin:miter;stroke-opacity:1"/>
<path class="bond-6 atom-6 atom-7" d="M 372.8,634.8 L 370.4,578.6" style="fill:none;fill-rule:evenodd;stroke:#000000;stroke-width:2.0px;stroke-linecap:butt;stroke-linejoin:miter;stroke-opacity:1"/>
<path class="bond-6 atom-6 atom-7" d="M 370.4,578.6 L 368.1,522.4" style="fill:none;fill-rule:evenodd;stroke:#FF0000;stroke-width:2.0px;stroke-linecap:butt;stroke-linejoin:miter;stroke-opacity:1"/>
<path class="bond-7 atom-6 atom-8" d="M 382.0,629.0 L 337.4,657.3" style="fill:none;fill-rule:evenodd;stroke:#000000;stroke-width:2.0px;stroke-linecap:butt;stroke-linejoin:miter;stroke-opacity:1"/>
<path class="bond-7 atom-6 atom-8" d="M 337.4,657.3 L 292.7,685.6" style="fill:none;fill-rule:evenodd;stroke:#FF0000;stroke-width:2.0px;stroke-linecap:butt;stroke-linejoin:miter;stroke-opacity:1"/>
<path class="bond-8 atom-8 atom-9" d="M 258.4,687.5 L 213.8,664.1" style="fill:none;fill-rule:evenodd;stroke:#FF0000;stroke-width:2.0px;stroke-linecap:butt;stroke-linejoin:miter;stroke-opacity:1"/>
<path class="bond-8 atom-8 atom-9" d="M 213.8,664.1 L 169.2,640.8" style="fill:none;fill-rule:evenodd;stroke:#191919;stroke-width:2.0px;stroke-linecap:butt;stroke-linejoin:miter;stroke-opacity:1"/>
<path d="M 932.2,667.7 L 929.6,669.3 L 924.1,666.4" style="fill:none;stroke:#000000;stroke-width:2.0px;stroke-linecap:butt;stroke-linejoin:miter;stroke-opacity:1;"/>
<path d="M 823.6,613.8 L 818.0,610.9 L 812.7,614.3" style="fill:none;stroke:#000000;stroke-width:2.0px;stroke-linecap:butt;stroke-linejoin:miter;stroke-opacity:1;"/>
<path d="M 716.9,675.0 L 711.6,678.3 L 706.0,675.4" style="fill:none;stroke:#000000;stroke-width:2.0px;stroke-linecap:butt;stroke-linejoin:miter;stroke-opacity:1;"/>
<path d="M 605.6,622.9 L 600.0,619.9 L 594.7,623.3" style="fill:none;stroke:#000000;stroke-width:2.0px;stroke-linecap:butt;stroke-linejoin:miter;stroke-opacity:1;"/>
<path d="M 498.9,684.0 L 493.6,687.4 L 488.0,684.5" style="fill:none;stroke:#000000;stroke-width:2.0px;stroke-linecap:butt;stroke-linejoin:miter;stroke-opacity:1;"/>
<path d="M 387.6,631.9 L 382.0,629.0 L 379.8,630.4" style="fill:none;stroke:#000000;stroke-width:2.0px;stroke-linecap:butt;stroke-linejoin:miter;stroke-opacity:1;"/>
<path class="atom-0" d="M 1030.7 598.7 L 1034.9 594.4 L 1029.3 593.3 L 1030.2 590.5 L 1035.3 593.0 L 1034.5 587.5 L 1037.5 587.4 L 1036.7 593.0 L 1041.9 590.6 L 1042.7 593.3 L 1037.1 594.3 L 1041.1 598.6 L 1038.7 600.4 L 1035.9 595.1 L 1033.1 600.4 L 1030.7 598.7 " fill="#191919"/>
<path class="atom-7" d="M 363.8 503.2 Q 363.8 496.4, 367.1 492.6 Q 370.5 488.8, 376.8 488.8 Q 383.0 488.8, 386.4 492.6 Q 389.8 496.4, 389.8 503.2 Q 389.8 510.1, 386.4 514.0 Q 383.0 517.9, 376.8 517.9 Q 370.5 517.9, 367.1 514.0 Q 363.8 510.1, 363.8 503.2 M 376.8 514.7 Q 381.1 514.7, 383.4 511.8 Q 385.8 508.9, 385.8 503.2 Q 385.8 497.6, 383.4 494.8 Q 381.1 492.0, 376.8 492.0 Q 372.4 492.0, 370.1 494.8 Q 367.8 497.6, 367.8 503.2 Q 367.8 508.9, 370.1 511.8 Q 372.4 514.7, 376.8 514.7 " fill="#FF0000"/>
<path class="atom-8" d="M 262.6 696.5 Q 262.6 689.7, 265.9 685.9 Q 269.3 682.1, 275.6 682.1 Q 281.9 682.1, 285.2 685.9 Q 288.6 689.7, 288.6 696.5 Q 288.6 703.4, 285.2 707.3 Q 281.8 711.2, 275.6 711.2 Q 269.3 711.2, 265.9 707.3 Q 262.6 703.4, 262.6 696.5 M 275.6 708.0 Q 279.9 708.0, 282.2 705.1 Q 284.6 702.2, 284.6 696.5 Q 284.6 691.0, 282.2 688.2 Q 279.9 685.3, 275.6 685.3 Q 271.3 685.3, 268.9 688.1 Q 266.6 690.9, 266.6 696.5 Q 266.6 702.2, 268.9 705.1 Q 271.3 708.0, 275.6 708.0 " fill="#FF0000"/>
<path class="atom-9" d="M 158.6 634.9 L 162.8 630.6 L 157.3 629.5 L 158.1 626.7 L 163.2 629.2 L 162.5 623.7 L 165.5 623.6 L 164.6 629.2 L 169.8 626.8 L 170.7 629.5 L 165.1 630.6 L 169.1 634.8 L 166.6 636.6 L 163.9 631.3 L 161.1 636.6 L 158.6 634.9 " fill="#191919"/>
</svg>