<svg xmlns="http://www.w3.org/2000/svg" xmlns:rdkit="http://www.rdkit.org/xml" xmlns:xlink="http://www.w3.org/1999/xlink" version="1.1" baseProfile="full" xml:space="preserve" width="1200px" height="800px" viewBox="0 0 1200 800">
<!-- END OF HEADER -->
<rect style="opacity:1.0;fill:#FFFFFF;stroke:none" width="1200.0" height="800.0" x="0.0" y="0.0"> </rect>
<path class="bond-0 atom-0 atom-1" d="M 772.2,50.2 L 729.0,125.0" style="fill:none;fill-rule:evenodd;stroke:#191919;stroke-width:2.0px;stroke-linecap:butt;stroke-linejoin:miter;stroke-opacity:1"/>
<path class="bond-0 atom-0 atom-1" d="M 729.0,125.0 L 685.8,199.8" style="fill:none;fill-rule:evenodd;stroke:#000000;stroke-width:2.0px;stroke-linecap:butt;stroke-linejoin:miter;stroke-opacity:1"/>
<path class="bond-1 atom-1 atom-2" d="M 670.4,199.8 L 711.0,270.1" style="fill:none;fill-rule:evenodd;stroke:#000000;stroke-width:2.0px;stroke-linecap:butt;stroke-linejoin:miter;stroke-opacity:1"/>
<path class="bond-1 atom-1 atom-2" d="M 711.0,270.1 L 751.5,340.4" style="fill:none;fill-rule:evenodd;stroke:#FF0000;stroke-width:2.0px;stroke-linecap:butt;stroke-linejoin:miter;stroke-opacity:1"/>
<path class="bond-1 atom-1 atom-2" d="M 693.5,186.5 L 734.1,256.7" style="fill:none;fill-rule:evenodd;stroke:#000000;stroke-width:2.0px;stroke-linecap:butt;stroke-linejoin:miter;stroke-opacity:1"/>
<path class="bond-1 atom-1 atom-2" d="M 734.1,256.7 L 774.6,327.0" style="fill:none;fill-rule:evenodd;stroke:#FF0000;stroke-width:2.0px;stroke-linecap:butt;stroke-linejoin:miter;stroke-opacity:1"/>
<path class="bond-2 atom-1 atom-3" d="M 685.8,199.8 L 507.9,199.8" style="fill:none;fill-rule:evenodd;stroke:#000000;stroke-width:2.0px;stroke-linecap:butt;stroke-linejoin:miter;stroke-opacity:1"/>
<path class="bond-3 atom-3 atom-4" d="M 507.9,199.8 L 476.8,267.1 L 465.2,260.4 Z" style="fill:#000000;fill-rule:evenodd;fill-opacity:1;stroke:#000000;stroke-width:0.5px;stroke-linecap:butt;stroke-linejoin:miter;stroke-opacity:1;"/>
<path class="bond-3 atom-3 atom-4" d="M 476.8,267.1 L 422.5,321.1 L 445.6,334.4 Z" style="fill:#191919;fill-rule:evenodd;fill-opacity:1;stroke:#191919;stroke-width:0.5px;stroke-linecap:butt;stroke-linejoin:miter;stroke-opacity:1;"/>
<path class="bond-3 atom-3 atom-4" d="M 476.8,267.1 L 465.2,260.4 L 422.5,321.1 Z" style="fill:#191919;fill-rule:evenodd;fill-opacity:1;stroke:#191919;stroke-width:0.5px;stroke-linecap:butt;stroke-linejoin:miter;stroke-opacity:1;"/>
<path class="bond-4 atom-3 atom-5" d="M 507.9,199.8 L 419.0,45.8" style="fill:none;fill-rule:evenodd;stroke:#000000;stroke-width:2.0px;stroke-linecap:butt;stroke-linejoin:miter;stroke-opacity:1"/>
<path d="M 688.0,196.1 L 685.8,199.8 L 676.9,199.8" style="fill:none;stroke:#000000;stroke-width:2.0px;stroke-linecap:butt;stroke-linejoin:miter;stroke-opacity:1;"/>
<path d="M 516.8,199.8 L 507.9,199.8 L 503.5,192.1" style="fill:none;stroke:#000000;stroke-width:2.0px;stroke-linecap:butt;stroke-linejoin:miter;stroke-opacity:1;"/>
<path class="atom-0" d="M 769.4 42.6 L 773.6 38.4 L 768.0 37.2 L 768.9 34.4 L 774.0 37.0 L 773.2 31.4 L 776.2 31.4 L 775.4 36.9 L 780.6 34.5 L 781.4 37.2 L 775.8 38.3 L 779.8 42.6 L 777.4 44.3 L 774.6 39.0 L 771.8 44.3 L 769.4 42.6 " fill="#191919"/>
<path class="atom-2" d="M 761.7 354.0 Q 761.7 347.2, 765.1 343.4 Q 768.5 339.6, 774.7 339.6 Q 781.0 339.6, 784.4 343.4 Q 787.7 347.2, 787.7 354.0 Q 787.7 360.8, 784.3 364.8 Q 780.9 368.6, 774.7 368.6 Q 768.5 368.6, 765.1 364.8 Q 761.7 360.9, 761.7 354.0 M 774.7 365.4 Q 779.1 365.4, 781.4 362.6 Q 783.7 359.6, 783.7 354.0 Q 783.7 348.4, 781.4 345.6 Q 779.1 342.8, 774.7 342.8 Q 770.4 342.8, 768.1 345.6 Q 765.7 348.4, 765.7 354.0 Q 765.7 359.7, 768.1 362.6 Q 770.4 365.4, 774.7 365.4 " fill="#FF0000"/>
<path class="atom-4" d="M 413.6 350.7 L 417.8 346.5 L 412.3 345.4 L 413.1 342.5 L 418.2 345.1 L 417.5 339.5 L 420.5 339.5 L 419.6 345.0 L 424.8 342.6 L 425.7 345.4 L 420.1 346.4 L 424.1 350.7 L 421.6 352.4 L 418.9 347.2 L 416.1 352.4 L 413.6 350.7 " fill="#191919"/>
<path class="bond-0 atom-0 atom-1" d="M 975.2,616.9 L 913.7,657.3" style="fill:none;fill-rule:evenodd;stroke:#191919;stroke-width:2.0px;stroke-linecap:butt;stroke-linejoin:miter;stroke-opacity:1"/>
<path class="bond-0 atom-0 atom-1" d="M 913.7,657.3 L 852.1,697.7" style="fill:none;fill-rule:evenodd;stroke:#FF0000;stroke-width:2.0px;stroke-linecap:butt;stroke-linejoin:miter;stroke-opacity:1"/>
<path class="bond-1 atom-1 atom-2" d="M 814.4,700.6 L 744.4,665.4" style="fill:none;fill-rule:evenodd;stroke:#FF0000;stroke-width:2.0px;stroke-linecap:butt;stroke-linejoin:miter;stroke-opacity:1"/>
<path class="bond-1 atom-1 atom-2" d="M 744.4,665.4 L 674.3,630.2" style="fill:none;fill-rule:evenodd;stroke:#000000;stroke-width:2.0px;stroke-linecap:butt;stroke-linejoin:miter;stroke-opacity:1"/>
<path class="bond-2 atom-2 atom-3" d="M 674.3,630.2 L 525.7,727.8" style="fill:none;fill-rule:evenodd;stroke:#000000;stroke-width:2.0px;stroke-linecap:butt;stroke-linejoin:miter;stroke-opacity:1"/>
<path class="bond-3 atom-3 atom-4" d="M 525.7,727.8 L 366.7,647.9" style="fill:none;fill-rule:evenodd;stroke:#000000;stroke-width:2.0px;stroke-linecap:butt;stroke-linejoin:miter;stroke-opacity:1"/>
<path class="bond-4 atom-4 atom-5" d="M 366.7,647.9 L 298.7,692.6" style="fill:none;fill-rule:evenodd;stroke:#000000;stroke-width:2.0px;stroke-linecap:butt;stroke-linejoin:miter;stroke-opacity:1"/>
<path class="bond-4 atom-4 atom-5" d="M 298.7,692.6 L 230.6,737.3" style="fill:none;fill-rule:evenodd;stroke:#191919;stroke-width:2.0px;stroke-linecap:butt;stroke-linejoin:miter;stroke-opacity:1"/>
<path class="bond-5 atom-4 atom-6" d="M 380.5,654.8 L 375.8,572.4" style="fill:none;fill-rule:evenodd;stroke:#000000;stroke-width:2.0px;stroke-linecap:butt;stroke-linejoin:miter;stroke-opacity:1"/>
<path class="bond-5 atom-4 atom-6" d="M 375.8,572.4 L 371.0,490.1" style="fill:none;fill-rule:evenodd;stroke:#FF0000;stroke-width:2.0px;stroke-linecap:butt;stroke-linejoin:miter;stroke-opacity:1"/>
<path class="bond-5 atom-4 atom-6" d="M 353.9,656.3 L 349.1,574.0" style="fill:none;fill-rule:evenodd;stroke:#000000;stroke-width:2.0px;stroke-linecap:butt;stroke-linejoin:miter;stroke-opacity:1"/>
<path class="bond-5 atom-4 atom-6" d="M 349.1,574.0 L 344.4,491.6" style="fill:none;fill-rule:evenodd;stroke:#FF0000;stroke-width:2.0px;stroke-linecap:butt;stroke-linejoin:miter;stroke-opacity:1"/>
<path d="M 677.9,631.9 L 674.3,630.2 L 666.9,635.0" style="fill:none;stroke:#000000;stroke-width:2.0px;stroke-linecap:butt;stroke-linejoin:miter;stroke-opacity:1;"/>
<path d="M 533.1,722.9 L 525.7,727.8 L 517.7,723.8" style="fill:none;stroke:#000000;stroke-width:2.0px;stroke-linecap:butt;stroke-linejoin:miter;stroke-opacity:1;"/>
<path d="M 374.7,651.9 L 366.7,647.9 L 363.3,650.1" style="fill:none;stroke:#000000;stroke-width:2.0px;stroke-linecap:butt;stroke-linejoin:miter;stroke-opacity:1;"/>
<path class="atom-0" d="M 976.6 609.3 L 980.8 605.1 L 975.3 603.9 L 976.1 601.1 L 981.2 603.7 L 980.5 598.1 L 983.5 598.1 L 982.6 603.6 L 987.8 601.2 L 988.7 603.9 L 983.1 605.0 L 987.1 609.3 L 984.6 611.0 L 981.9 605.7 L 979.1 611.0 L 976.6 609.3 " fill="#191919"/>
<path class="atom-1" d="M 820.3 710.2 Q 820.3 703.4, 823.6 699.6 Q 827.0 695.8, 833.3 695.8 Q 839.5 695.8, 842.9 699.6 Q 846.3 703.4, 846.3 710.2 Q 846.3 717.1, 842.9 721.0 Q 839.5 724.9, 833.3 724.9 Q 827.0 724.9, 823.6 721.0 Q 820.3 717.1, 820.3 710.2 M 833.3 721.7 Q 837.6 721.7, 839.9 718.8 Q 842.3 715.9, 842.3 710.2 Q 842.3 704.6, 839.9 701.8 Q 837.6 699.0, 833.3 699.0 Q 828.9 699.0, 826.6 701.8 Q 824.3 704.6, 824.3 710.2 Q 824.3 715.9, 826.6 718.8 Q 828.9 721.7, 833.3 721.7 " fill="#FF0000"/>
<path class="atom-5" d="M 212.7 742.3 L 216.9 738.1 L 211.3 737.0 L 212.2 734.1 L 217.3 736.7 L 216.5 731.1 L 219.5 731.1 L 218.7 736.7 L 223.9 734.3 L 224.7 737.0 L 219.1 738.0 L 223.1 742.3 L 220.7 744.1 L 217.9 738.8 L 215.1 744.1 L 212.7 742.3 " fill="#191919"/>
<path class="atom-6" d="M 343.5 470.3 Q 343.5 463.5, 346.9 459.7 Q 350.2 455.9, 356.5 455.9 Q 362.8 455.9, 366.2 459.7 Q 369.5 463.5, 369.5 470.3 Q 369.5 477.2, 366.1 481.1 Q 362.7 485.0, 356.5 485.0 Q 350.3 485.0, 346.9 481.1 Q 343.5 477.3, 343.5 470.3 M 356.5 481.8 Q 360.8 481.8, 363.2 478.9 Q 365.5 476.0, 365.5 470.3 Q 365.5 464.8, 363.2 462.0 Q 360.8 459.1, 356.5 459.1 Q 352.2 459.1, 349.8 461.9 Q 347.5 464.7, 347.5 470.3 Q 347.5 476.1, 349.8 478.9 Q 352.2 481.8, 356.5 481.8 " fill="#FF0000"/>
</svg>