<svg xmlns="http://www.w3.org/2000/svg" xmlns:rdkit="http://www.rdkit.org/xml" xmlns:xlink="http://www.w3.org/1999/xlink" version="1.1" baseProfile="full" xml:space="preserve" width="1200px" height="1600px" viewBox="0 0 1200 1600">
<!-- END OF HEADER -->
<rect style="opacity:1.0;fill:#FFFFFF;stroke:none" width="1200.0" height="1600.0" x="0.0" y="0.0"> </rect>
<path class="bond-0 atom-0 atom-1" d="M 348.5,182.2 L 387.5,174.6" style="fill:none;fill-rule:evenodd;stroke:#191919;stroke-width:2.0px;stroke-linecap:butt;stroke-linejoin:miter;stroke-opacity:1"/>
<path class="bond-0 atom-0 atom-1" d="M 387.5,174.6 L 426.4,167.0" style="fill:none;fill-rule:evenodd;stroke:#000000;stroke-width:2.0px;stroke-linecap:butt;stroke-linejoin:miter;stroke-opacity:1"/>
<path class="bond-1 atom-1 atom-2" d="M 426.4,167.0 L 448.6,192.6" style="fill:none;fill-rule:evenodd;stroke:#000000;stroke-width:2.0px;stroke-linecap:butt;stroke-linejoin:miter;stroke-opacity:1"/>
<path class="bond-1 atom-1 atom-2" d="M 448.6,192.6 L 470.9,218.1" style="fill:none;fill-rule:evenodd;stroke:#FF0000;stroke-width:2.0px;stroke-linecap:butt;stroke-linejoin:miter;stroke-opacity:1"/>
<path class="bond-2 atom-2 atom-3" d="M 498.8,230.9 L 535.0,223.8" style="fill:none;fill-rule:evenodd;stroke:#FF0000;stroke-width:2.0px;stroke-linecap:butt;stroke-linejoin:miter;stroke-opacity:1"/>
<path class="bond-2 atom-2 atom-3" d="M 535.0,223.8 L 571.1,216.8" style="fill:none;fill-rule:evenodd;stroke:#000000;stroke-width:2.0px;stroke-linecap:butt;stroke-linejoin:miter;stroke-opacity:1"/>
<path class="bond-3 atom-3 atom-4" d="M 571.1,216.8 L 582.7,183.0" style="fill:none;fill-rule:evenodd;stroke:#000000;stroke-width:2.0px;stroke-linecap:butt;stroke-linejoin:miter;stroke-opacity:1"/>
<path class="bond-3 atom-3 atom-4" d="M 582.7,183.0 L 594.4,149.2" style="fill:none;fill-rule:evenodd;stroke:#FF0000;stroke-width:2.0px;stroke-linecap:butt;stroke-linejoin:miter;stroke-opacity:1"/>
<path class="bond-4 atom-4 atom-5" d="M 614.2,130.4 L 650.4,123.3" style="fill:none;fill-rule:evenodd;stroke:#FF0000;stroke-width:2.0px;stroke-linecap:butt;stroke-linejoin:miter;stroke-opacity:1"/>
<path class="bond-4 atom-4 atom-5" d="M 650.4,123.3 L 686.5,116.3" style="fill:none;fill-rule:evenodd;stroke:#000000;stroke-width:2.0px;stroke-linecap:butt;stroke-linejoin:miter;stroke-opacity:1"/>
<path class="bond-5 atom-5 atom-6" d="M 686.5,116.3 L 700.6,75.3" style="fill:none;fill-rule:evenodd;stroke:#000000;stroke-width:2.0px;stroke-linecap:butt;stroke-linejoin:miter;stroke-opacity:1"/>
<path class="bond-5 atom-5 atom-6" d="M 700.6,75.3 L 714.7,34.4" style="fill:none;fill-rule:evenodd;stroke:#191919;stroke-width:2.0px;stroke-linecap:butt;stroke-linejoin:miter;stroke-opacity:1"/>
<path class="bond-6 atom-5 atom-7" d="M 686.5,116.3 L 744.6,182.9" style="fill:none;fill-rule:evenodd;stroke:#000000;stroke-width:2.0px;stroke-linecap:butt;stroke-linejoin:miter;stroke-opacity:1"/>
<path class="bond-7 atom-7 atom-8" d="M 744.6,182.9 L 780.7,175.9" style="fill:none;fill-rule:evenodd;stroke:#000000;stroke-width:2.0px;stroke-linecap:butt;stroke-linejoin:miter;stroke-opacity:1"/>
<path class="bond-7 atom-7 atom-8" d="M 780.7,175.9 L 816.9,168.8" style="fill:none;fill-rule:evenodd;stroke:#FF0000;stroke-width:2.0px;stroke-linecap:butt;stroke-linejoin:miter;stroke-opacity:1"/>
<path class="bond-8 atom-7 atom-9" d="M 744.6,182.9 L 715.9,266.5" style="fill:none;fill-rule:evenodd;stroke:#000000;stroke-width:2.0px;stroke-linecap:butt;stroke-linejoin:miter;stroke-opacity:1"/>
<path class="bond-9 atom-9 atom-10" d="M 715.9,266.5 L 738.1,292.0" style="fill:none;fill-rule:evenodd;stroke:#000000;stroke-width:2.0px;stroke-linecap:butt;stroke-linejoin:miter;stroke-opacity:1"/>
<path class="bond-9 atom-9 atom-10" d="M 738.1,292.0 L 760.3,317.5" style="fill:none;fill-rule:evenodd;stroke:#FF0000;stroke-width:2.0px;stroke-linecap:butt;stroke-linejoin:miter;stroke-opacity:1"/>
<path class="bond-10 atom-9 atom-11" d="M 715.9,266.5 L 629.1,283.4" style="fill:none;fill-rule:evenodd;stroke:#000000;stroke-width:2.0px;stroke-linecap:butt;stroke-linejoin:miter;stroke-opacity:1"/>
<path class="bond-11 atom-11 atom-12" d="M 629.1,283.4 L 617.5,317.4" style="fill:none;fill-rule:evenodd;stroke:#000000;stroke-width:2.0px;stroke-linecap:butt;stroke-linejoin:miter;stroke-opacity:1"/>
<path class="bond-11 atom-11 atom-12" d="M 617.5,317.4 L 605.8,351.4" style="fill:none;fill-rule:evenodd;stroke:#FF0000;stroke-width:2.0px;stroke-linecap:butt;stroke-linejoin:miter;stroke-opacity:1"/>
<path class="bond-12 atom-11 atom-3" d="M 629.1,283.4 L 571.1,216.8" style="fill:none;fill-rule:evenodd;stroke:#000000;stroke-width:2.0px;stroke-linecap:butt;stroke-linejoin:miter;stroke-opacity:1"/>
<path d="M 424.5,167.4 L 426.4,167.0 L 427.5,168.3" style="fill:none;stroke:#000000;stroke-width:2.0px;stroke-linecap:butt;stroke-linejoin:miter;stroke-opacity:1;"/>
<path class="atom-0" d="M 335.0 181.2 L 338.6 177.4 L 333.8 176.4 L 334.5 173.9 L 339.0 176.2 L 338.4 171.3 L 341.0 171.2 L 340.3 176.2 L 344.8 174.0 L 345.6 176.4 L 340.7 177.4 L 344.2 181.1 L 342.0 182.7 L 339.6 178.0 L 337.1 182.7 L 335.0 181.2 " fill="#191919"/>
<path class="atom-2" d="M 472.9 233.8 Q 472.9 227.7, 475.9 224.4 Q 478.9 221.0, 484.4 221.0 Q 490.0 221.0, 492.9 224.4 Q 495.9 227.7, 495.9 233.8 Q 495.9 239.8, 492.9 243.3 Q 489.9 246.7, 484.4 246.7 Q 478.9 246.7, 475.9 243.3 Q 472.9 239.9, 472.9 233.8 M 484.4 243.9 Q 488.2 243.9, 490.3 241.4 Q 492.4 238.8, 492.4 233.8 Q 492.4 228.8, 490.3 226.4 Q 488.2 223.9, 484.4 223.9 Q 480.6 223.9, 478.5 226.3 Q 476.5 228.8, 476.5 233.8 Q 476.5 238.8, 478.5 241.4 Q 480.6 243.9, 484.4 243.9 " fill="#FF0000"/>
<path class="atom-4" d="M 588.3 133.3 Q 588.3 127.3, 591.3 123.9 Q 594.3 120.6, 599.8 120.6 Q 605.4 120.6, 608.3 123.9 Q 611.3 127.3, 611.3 133.3 Q 611.3 139.4, 608.3 142.8 Q 605.3 146.2, 599.8 146.2 Q 594.3 146.2, 591.3 142.8 Q 588.3 139.4, 588.3 133.3 M 599.8 143.4 Q 603.6 143.4, 605.7 140.9 Q 607.8 138.3, 607.8 133.3 Q 607.8 128.4, 605.7 125.9 Q 603.6 123.4, 599.8 123.4 Q 596.0 123.4, 593.9 125.9 Q 591.9 128.3, 591.9 133.3 Q 591.9 138.3, 593.9 140.9 Q 596.0 143.4, 599.8 143.4 " fill="#FF0000"/>
<path class="atom-6" d="M 710.5 29.9 L 714.2 26.2 L 709.3 25.2 L 710.1 22.7 L 714.6 24.9 L 713.9 20.0 L 716.6 20.0 L 715.8 24.9 L 720.4 22.8 L 721.2 25.2 L 716.2 26.1 L 719.8 29.9 L 717.6 31.5 L 715.2 26.8 L 712.7 31.5 L 710.5 29.9 " fill="#191919"/>
<path class="atom-8" d="M 819.8 166.1 Q 819.8 160.1, 822.8 156.7 Q 825.7 153.3, 831.3 153.3 Q 836.8 153.3, 839.8 156.7 Q 842.8 160.1, 842.8 166.1 Q 842.8 172.1, 839.8 175.6 Q 836.8 179.0, 831.3 179.0 Q 825.8 179.0, 822.8 175.6 Q 819.8 172.2, 819.8 166.1 M 831.3 176.2 Q 835.1 176.2, 837.1 173.7 Q 839.2 171.1, 839.2 166.1 Q 839.2 161.2, 837.1 158.7 Q 835.1 156.2, 831.3 156.2 Q 827.5 156.2, 825.4 158.6 Q 823.3 161.1, 823.3 166.1 Q 823.3 171.1, 825.4 173.7 Q 827.5 176.2, 831.3 176.2 " fill="#FF0000"/>
<path class="atom-8" d="M 846.7 153.6 L 850.1 153.6 L 850.1 164.3 L 862.8 164.3 L 862.8 153.6 L 866.2 153.6 L 866.2 178.7 L 862.8 178.7 L 862.8 167.1 L 850.1 167.1 L 850.1 178.7 L 846.7 178.7 L 846.7 153.6 " fill="#FF0000"/>
<path class="atom-10" d="M 762.4 333.2 Q 762.4 327.2, 765.4 323.8 Q 768.3 320.5, 773.9 320.5 Q 779.4 320.5, 782.4 323.8 Q 785.4 327.2, 785.4 333.2 Q 785.4 339.3, 782.4 342.7 Q 779.3 346.2, 773.9 346.2 Q 768.4 346.2, 765.4 342.7 Q 762.4 339.3, 762.4 333.2 M 773.9 343.3 Q 777.7 343.3, 779.7 340.8 Q 781.8 338.2, 781.8 333.2 Q 781.8 328.3, 779.7 325.8 Q 777.7 323.3, 773.9 323.3 Q 770.1 323.3, 768.0 325.8 Q 765.9 328.2, 765.9 333.2 Q 765.9 338.2, 768.0 340.8 Q 770.1 343.3, 773.9 343.3 " fill="#FF0000"/>
<path class="atom-10" d="M 789.2 320.7 L 792.6 320.7 L 792.6 331.4 L 805.4 331.4 L 805.4 320.7 L 808.8 320.7 L 808.8 345.8 L 805.4 345.8 L 805.4 334.2 L 792.6 334.2 L 792.6 345.8 L 789.2 345.8 L 789.2 320.7 " fill="#FF0000"/>
<path class="atom-12" d="M 589.0 367.0 Q 589.0 361.0, 591.9 357.7 Q 594.9 354.3, 600.4 354.3 Q 606.0 354.3, 609.0 357.7 Q 611.9 361.0, 611.9 367.0 Q 611.9 373.1, 608.9 376.6 Q 605.9 380.0, 600.4 380.0 Q 594.9 380.0, 591.9 376.6 Q 589.0 373.1, 589.0 367.0 M 600.4 377.2 Q 604.3 377.2, 606.3 374.6 Q 608.4 372.0, 608.4 367.0 Q 608.4 362.1, 606.3 359.6 Q 604.3 357.1, 600.4 357.1 Q 596.6 357.1, 594.5 359.6 Q 592.5 362.1, 592.5 367.0 Q 592.5 372.1, 594.5 374.6 Q 596.6 377.2, 600.4 377.2 " fill="#FF0000"/>
<path class="atom-12" d="M 615.8 354.6 L 619.2 354.6 L 619.2 365.2 L 632.0 365.2 L 632.0 354.6 L 635.4 354.6 L 635.4 379.6 L 632.0 379.6 L 632.0 368.1 L 619.2 368.1 L 619.2 379.6 L 615.8 379.6 L 615.8 354.6 " fill="#FF0000"/>
<path class="bond-0 atom-0 atom-1" d="M 401.1,683.7 L 433.5,692.4" style="fill:none;fill-rule:evenodd;stroke:#191919;stroke-width:2.0px;stroke-linecap:butt;stroke-linejoin:miter;stroke-opacity:1"/>
<path class="bond-0 atom-0 atom-1" d="M 433.5,692.4 L 465.9,701.1" style="fill:none;fill-rule:evenodd;stroke:#FF0000;stroke-width:2.0px;stroke-linecap:butt;stroke-linejoin:miter;stroke-opacity:1"/>
<path class="bond-1 atom-1 atom-2" d="M 494.7,690.5 L 518.8,666.5" style="fill:none;fill-rule:evenodd;stroke:#FF0000;stroke-width:2.0px;stroke-linecap:butt;stroke-linejoin:miter;stroke-opacity:1"/>
<path class="bond-1 atom-1 atom-2" d="M 518.8,666.5 L 542.8,642.5" style="fill:none;fill-rule:evenodd;stroke:#000000;stroke-width:2.0px;stroke-linecap:butt;stroke-linejoin:miter;stroke-opacity:1"/>
<path class="bond-2 atom-2 atom-3" d="M 542.8,642.5 L 519.9,557.1" style="fill:none;fill-rule:evenodd;stroke:#000000;stroke-width:2.0px;stroke-linecap:butt;stroke-linejoin:miter;stroke-opacity:1"/>
<path class="bond-3 atom-3 atom-4" d="M 519.9,557.1 L 434.6,534.3" style="fill:none;fill-rule:evenodd;stroke:#000000;stroke-width:2.0px;stroke-linecap:butt;stroke-linejoin:miter;stroke-opacity:1"/>
<path class="bond-4 atom-4 atom-5" d="M 434.6,534.3 L 425.3,499.6" style="fill:none;fill-rule:evenodd;stroke:#000000;stroke-width:2.0px;stroke-linecap:butt;stroke-linejoin:miter;stroke-opacity:1"/>
<path class="bond-4 atom-4 atom-5" d="M 425.3,499.6 L 416.0,464.9" style="fill:none;fill-rule:evenodd;stroke:#FF0000;stroke-width:2.0px;stroke-linecap:butt;stroke-linejoin:miter;stroke-opacity:1"/>
<path class="bond-5 atom-3 atom-6" d="M 519.9,557.1 L 544.0,533.1" style="fill:none;fill-rule:evenodd;stroke:#000000;stroke-width:2.0px;stroke-linecap:butt;stroke-linejoin:miter;stroke-opacity:1"/>
<path class="bond-5 atom-3 atom-6" d="M 544.0,533.1 L 568.0,509.1" style="fill:none;fill-rule:evenodd;stroke:#FF0000;stroke-width:2.0px;stroke-linecap:butt;stroke-linejoin:miter;stroke-opacity:1"/>
<path class="bond-6 atom-6 atom-7" d="M 596.8,498.5 L 632.3,508.0" style="fill:none;fill-rule:evenodd;stroke:#FF0000;stroke-width:2.0px;stroke-linecap:butt;stroke-linejoin:miter;stroke-opacity:1"/>
<path class="bond-6 atom-6 atom-7" d="M 632.3,508.0 L 667.8,517.5" style="fill:none;fill-rule:evenodd;stroke:#000000;stroke-width:2.0px;stroke-linecap:butt;stroke-linejoin:miter;stroke-opacity:1"/>
<path class="bond-7 atom-7 atom-8" d="M 667.8,517.5 L 698.2,487.1" style="fill:none;fill-rule:evenodd;stroke:#000000;stroke-width:2.0px;stroke-linecap:butt;stroke-linejoin:miter;stroke-opacity:1"/>
<path class="bond-7 atom-7 atom-8" d="M 698.2,487.1 L 728.6,456.7" style="fill:none;fill-rule:evenodd;stroke:#191919;stroke-width:2.0px;stroke-linecap:butt;stroke-linejoin:miter;stroke-opacity:1"/>
<path class="bond-8 atom-7 atom-9" d="M 667.8,517.5 L 690.6,602.9" style="fill:none;fill-rule:evenodd;stroke:#000000;stroke-width:2.0px;stroke-linecap:butt;stroke-linejoin:miter;stroke-opacity:1"/>
<path class="bond-9 atom-9 atom-10" d="M 690.6,602.9 L 726.1,612.4" style="fill:none;fill-rule:evenodd;stroke:#000000;stroke-width:2.0px;stroke-linecap:butt;stroke-linejoin:miter;stroke-opacity:1"/>
<path class="bond-9 atom-9 atom-10" d="M 726.1,612.4 L 761.6,621.9" style="fill:none;fill-rule:evenodd;stroke:#FF0000;stroke-width:2.0px;stroke-linecap:butt;stroke-linejoin:miter;stroke-opacity:1"/>
<path class="bond-10 atom-9 atom-11" d="M 690.6,602.9 L 628.2,665.3" style="fill:none;fill-rule:evenodd;stroke:#000000;stroke-width:2.0px;stroke-linecap:butt;stroke-linejoin:miter;stroke-opacity:1"/>
<path class="bond-11 atom-11 atom-12" d="M 628.2,665.3 L 637.5,700.2" style="fill:none;fill-rule:evenodd;stroke:#000000;stroke-width:2.0px;stroke-linecap:butt;stroke-linejoin:miter;stroke-opacity:1"/>
<path class="bond-11 atom-11 atom-12" d="M 637.5,700.2 L 646.8,735.1" style="fill:none;fill-rule:evenodd;stroke:#FF0000;stroke-width:2.0px;stroke-linecap:butt;stroke-linejoin:miter;stroke-opacity:1"/>
<path class="bond-12 atom-11 atom-2" d="M 628.2,665.3 L 542.8,642.5" style="fill:none;fill-rule:evenodd;stroke:#000000;stroke-width:2.0px;stroke-linecap:butt;stroke-linejoin:miter;stroke-opacity:1"/>
<path d="M 438.9,535.4 L 434.6,534.3 L 434.1,532.5" style="fill:none;stroke:#000000;stroke-width:2.0px;stroke-linecap:butt;stroke-linejoin:miter;stroke-opacity:1;"/>
<path class="atom-0" d="M 390.3 679.3 L 394.0 675.5 L 389.1 674.6 L 389.8 672.0 L 394.3 674.3 L 393.7 669.4 L 396.3 669.4 L 395.6 674.3 L 400.1 672.2 L 400.9 674.6 L 396.0 675.5 L 399.5 679.3 L 397.3 680.8 L 394.9 676.1 L 392.4 680.8 L 390.3 679.3 " fill="#191919"/>
<path class="atom-1" d="M 468.8 705.0 Q 468.8 699.0, 471.8 695.7 Q 474.8 692.3, 480.3 692.3 Q 485.9 692.3, 488.9 695.7 Q 491.8 699.0, 491.8 705.0 Q 491.8 711.1, 488.8 714.6 Q 485.8 718.0, 480.3 718.0 Q 474.8 718.0, 471.8 714.6 Q 468.8 711.1, 468.8 705.0 M 480.3 715.2 Q 484.2 715.2, 486.2 712.6 Q 488.3 710.0, 488.3 705.0 Q 488.3 700.1, 486.2 697.6 Q 484.2 695.1, 480.3 695.1 Q 476.5 695.1, 474.4 697.6 Q 472.4 700.1, 472.4 705.0 Q 472.4 710.1, 474.4 712.6 Q 476.5 715.2, 480.3 715.2 " fill="#FF0000"/>
<path class="atom-5" d="M 400.2 449.0 Q 400.2 443.0, 403.2 439.6 Q 406.2 436.3, 411.7 436.3 Q 417.3 436.3, 420.3 439.6 Q 423.2 443.0, 423.2 449.0 Q 423.2 455.1, 420.2 458.5 Q 417.2 462.0, 411.7 462.0 Q 406.2 462.0, 403.2 458.5 Q 400.2 455.1, 400.2 449.0 M 411.7 459.1 Q 415.6 459.1, 417.6 456.6 Q 419.7 454.0, 419.7 449.0 Q 419.7 444.1, 417.6 441.6 Q 415.6 439.1, 411.7 439.1 Q 407.9 439.1, 405.8 441.6 Q 403.8 444.0, 403.8 449.0 Q 403.8 454.1, 405.8 456.6 Q 407.9 459.1, 411.7 459.1 " fill="#FF0000"/>
<path class="atom-5" d="M 427.1 436.6 L 430.5 436.6 L 430.5 447.2 L 443.3 447.2 L 443.3 436.6 L 446.7 436.6 L 446.7 461.6 L 443.3 461.6 L 443.3 450.0 L 430.5 450.0 L 430.5 461.6 L 427.1 461.6 L 427.1 436.6 " fill="#FF0000"/>
<path class="atom-6" d="M 570.9 494.7 Q 570.9 488.7, 573.9 485.4 Q 576.9 482.0, 582.4 482.0 Q 588.0 482.0, 590.9 485.4 Q 593.9 488.7, 593.9 494.7 Q 593.9 500.8, 590.9 504.3 Q 587.9 507.7, 582.4 507.7 Q 576.9 507.7, 573.9 504.3 Q 570.9 500.8, 570.9 494.7 M 582.4 504.9 Q 586.2 504.9, 588.3 502.3 Q 590.4 499.7, 590.4 494.7 Q 590.4 489.8, 588.3 487.3 Q 586.2 484.8, 582.4 484.8 Q 578.6 484.8, 576.5 487.3 Q 574.5 489.8, 574.5 494.7 Q 574.5 499.8, 576.5 502.3 Q 578.6 504.9, 582.4 504.9 " fill="#FF0000"/>
<path class="atom-8" d="M 725.5 452.3 L 729.2 448.5 L 724.3 447.5 L 725.1 445.0 L 729.5 447.3 L 728.9 442.4 L 731.6 442.3 L 730.8 447.2 L 735.4 445.1 L 736.2 447.5 L 731.2 448.4 L 734.7 452.2 L 732.6 453.8 L 730.1 449.1 L 727.7 453.8 L 725.5 452.3 " fill="#191919"/>
<path class="atom-10" d="M 764.5 625.8 Q 764.5 619.8, 767.4 616.4 Q 770.4 613.1, 776.0 613.1 Q 781.5 613.1, 784.5 616.4 Q 787.5 619.8, 787.5 625.8 Q 787.5 631.9, 784.4 635.3 Q 781.4 638.8, 776.0 638.8 Q 770.5 638.8, 767.4 635.3 Q 764.5 631.9, 764.5 625.8 M 776.0 635.9 Q 779.8 635.9, 781.8 633.4 Q 783.9 630.8, 783.9 625.8 Q 783.9 620.9, 781.8 618.4 Q 779.8 615.9, 776.0 615.9 Q 772.1 615.9, 770.1 618.4 Q 768.0 620.9, 768.0 625.8 Q 768.0 630.9, 770.1 633.4 Q 772.1 635.9, 776.0 635.9 " fill="#FF0000"/>
<path class="atom-10" d="M 791.3 613.4 L 794.7 613.4 L 794.7 624.0 L 807.5 624.0 L 807.5 613.4 L 810.9 613.4 L 810.9 638.4 L 807.5 638.4 L 807.5 626.8 L 794.7 626.8 L 794.7 638.4 L 791.3 638.4 L 791.3 613.4 " fill="#FF0000"/>
<path class="atom-12" d="M 639.5 750.8 Q 639.5 744.7, 642.5 741.4 Q 645.5 738.0, 651.0 738.0 Q 656.6 738.0, 659.5 741.4 Q 662.5 744.7, 662.5 750.8 Q 662.5 756.8, 659.5 760.3 Q 656.5 763.7, 651.0 763.7 Q 645.5 763.7, 642.5 760.3 Q 639.5 756.9, 639.5 750.8 M 651.0 760.9 Q 654.8 760.9, 656.9 758.4 Q 659.0 755.8, 659.0 750.8 Q 659.0 745.8, 656.9 743.4 Q 654.8 740.9, 651.0 740.9 Q 647.2 740.9, 645.1 743.3 Q 643.1 745.8, 643.1 750.8 Q 643.1 755.8, 645.1 758.4 Q 647.2 760.9, 651.0 760.9 " fill="#FF0000"/>
<path class="atom-12" d="M 666.4 738.3 L 669.8 738.3 L 669.8 749.0 L 682.6 749.0 L 682.6 738.3 L 686.0 738.3 L 686.0 763.3 L 682.6 763.3 L 682.6 751.8 L 669.8 751.8 L 669.8 763.3 L 666.4 763.3 L 666.4 738.3 " fill="#FF0000"/>
<path class="bond-0 atom-0 atom-1" d="M 756.5,946.1 L 741.7,977.4" style="fill:none;fill-rule:evenodd;stroke:#191919;stroke-width:2.0px;stroke-linecap:butt;stroke-linejoin:miter;stroke-opacity:1"/>
<path class="bond-0 atom-0 atom-1" d="M 741.7,977.4 L 726.9,1008.8" style="fill:none;fill-rule:evenodd;stroke:#FF0000;stroke-width:2.0px;stroke-linecap:butt;stroke-linejoin:miter;stroke-opacity:1"/>
<path class="bond-1 atom-1 atom-2" d="M 705.2,1025.5 L 668.4,1028.6" style="fill:none;fill-rule:evenodd;stroke:#FF0000;stroke-width:2.0px;stroke-linecap:butt;stroke-linejoin:miter;stroke-opacity:1"/>
<path class="bond-1 atom-1 atom-2" d="M 668.4,1028.6 L 631.5,1031.7" style="fill:none;fill-rule:evenodd;stroke:#000000;stroke-width:2.0px;stroke-linecap:butt;stroke-linejoin:miter;stroke-opacity:1"/>
<path class="bond-2 atom-2 atom-3" d="M 631.5,1031.7 L 593.9,1111.6" style="fill:none;fill-rule:evenodd;stroke:#000000;stroke-width:2.0px;stroke-linecap:butt;stroke-linejoin:miter;stroke-opacity:1"/>
<path class="bond-3 atom-3 atom-4" d="M 593.9,1111.6 L 505.8,1118.9" style="fill:none;fill-rule:evenodd;stroke:#000000;stroke-width:2.0px;stroke-linecap:butt;stroke-linejoin:miter;stroke-opacity:1"/>
<path class="bond-4 atom-2 atom-5" d="M 631.5,1031.7 L 581.2,959.1" style="fill:none;fill-rule:evenodd;stroke:#000000;stroke-width:2.0px;stroke-linecap:butt;stroke-linejoin:miter;stroke-opacity:1"/>
<path class="bond-5 atom-5 atom-6" d="M 581.2,959.1 L 493.1,966.4" style="fill:none;fill-rule:evenodd;stroke:#000000;stroke-width:2.0px;stroke-linecap:butt;stroke-linejoin:miter;stroke-opacity:1"/>
<path class="bond-6 atom-6 atom-7" d="M 493.1,966.4 L 468.5,930.9" style="fill:none;fill-rule:evenodd;stroke:#000000;stroke-width:2.0px;stroke-linecap:butt;stroke-linejoin:miter;stroke-opacity:1"/>
<path class="bond-6 atom-6 atom-7" d="M 468.5,930.9 L 443.9,895.5" style="fill:none;fill-rule:evenodd;stroke:#191919;stroke-width:2.0px;stroke-linecap:butt;stroke-linejoin:miter;stroke-opacity:1"/>
<path class="bond-7 atom-6 atom-8" d="M 488.8,960.1 L 472.8,994.0" style="fill:none;fill-rule:evenodd;stroke:#000000;stroke-width:2.0px;stroke-linecap:butt;stroke-linejoin:miter;stroke-opacity:1"/>
<path class="bond-7 atom-6 atom-8" d="M 472.8,994.0 L 456.8,1027.9" style="fill:none;fill-rule:evenodd;stroke:#FF0000;stroke-width:2.0px;stroke-linecap:butt;stroke-linejoin:miter;stroke-opacity:1"/>
<path class="bond-7 atom-6 atom-8" d="M 500.7,965.8 L 484.8,999.7" style="fill:none;fill-rule:evenodd;stroke:#000000;stroke-width:2.0px;stroke-linecap:butt;stroke-linejoin:miter;stroke-opacity:1"/>
<path class="bond-7 atom-6 atom-8" d="M 484.8,999.7 L 468.8,1033.6" style="fill:none;fill-rule:evenodd;stroke:#FF0000;stroke-width:2.0px;stroke-linecap:butt;stroke-linejoin:miter;stroke-opacity:1"/>
<path d="M 595.7,1107.6 L 593.9,1111.6 L 589.5,1111.9" style="fill:none;stroke:#000000;stroke-width:2.0px;stroke-linecap:butt;stroke-linejoin:miter;stroke-opacity:1;"/>
<path d="M 583.7,962.7 L 581.2,959.1 L 576.8,959.4" style="fill:none;stroke:#000000;stroke-width:2.0px;stroke-linecap:butt;stroke-linejoin:miter;stroke-opacity:1;"/>
<path d="M 497.5,966.0 L 493.1,966.4 L 491.9,964.6" style="fill:none;stroke:#000000;stroke-width:2.0px;stroke-linecap:butt;stroke-linejoin:miter;stroke-opacity:1;"/>
<path class="atom-0" d="M 752.5 941.6 L 756.2 937.9 L 751.3 936.9 L 752.1 934.4 L 756.6 936.6 L 755.9 931.7 L 758.6 931.7 L 757.8 936.6 L 762.4 934.5 L 763.2 936.9 L 758.2 937.8 L 761.8 941.6 L 759.6 943.1 L 757.2 938.5 L 754.7 943.1 L 752.5 941.6 " fill="#191919"/>
<path class="atom-1" d="M 708.1 1024.4 Q 708.1 1018.4, 711.1 1015.0 Q 714.0 1011.7, 719.6 1011.7 Q 725.1 1011.7, 728.1 1015.0 Q 731.1 1018.4, 731.1 1024.4 Q 731.1 1030.5, 728.1 1033.9 Q 725.1 1037.4, 719.6 1037.4 Q 714.1 1037.4, 711.1 1033.9 Q 708.1 1030.5, 708.1 1024.4 M 719.6 1034.5 Q 723.4 1034.5, 725.4 1032.0 Q 727.5 1029.4, 727.5 1024.4 Q 727.5 1019.5, 725.4 1017.0 Q 723.4 1014.5, 719.6 1014.5 Q 715.8 1014.5, 713.7 1017.0 Q 711.6 1019.5, 711.6 1024.4 Q 711.6 1029.5, 713.7 1032.0 Q 715.8 1034.5, 719.6 1034.5 " fill="#FF0000"/>
<path class="atom-7" d="M 438.0 891.0 L 441.7 887.3 L 436.8 886.3 L 437.6 883.8 L 442.1 886.0 L 441.4 881.1 L 444.1 881.1 L 443.3 886.0 L 447.9 883.9 L 448.7 886.3 L 443.7 887.2 L 447.2 891.0 L 445.1 892.5 L 442.7 887.9 L 440.2 892.5 L 438.0 891.0 " fill="#191919"/>
<path class="atom-8" d="M 444.0 1046.4 Q 444.0 1040.4, 446.9 1037.0 Q 449.9 1033.7, 455.4 1033.7 Q 461.0 1033.7, 464.0 1037.0 Q 466.9 1040.4, 466.9 1046.4 Q 466.9 1052.5, 463.9 1055.9 Q 460.9 1059.4, 455.4 1059.4 Q 449.9 1059.4, 446.9 1055.9 Q 444.0 1052.5, 444.0 1046.4 M 455.4 1056.5 Q 459.3 1056.5, 461.3 1054.0 Q 463.4 1051.4, 463.4 1046.4 Q 463.4 1041.5, 461.3 1039.0 Q 459.3 1036.5, 455.4 1036.5 Q 451.6 1036.5, 449.5 1039.0 Q 447.5 1041.4, 447.5 1046.4 Q 447.5 1051.4, 449.5 1054.0 Q 451.6 1056.5, 455.4 1056.5 " fill="#FF0000"/>
<path class="bond-0 atom-0 atom-1" d="M 758.7,1318.5 L 748.1,1352.0" style="fill:none;fill-rule:evenodd;stroke:#191919;stroke-width:2.0px;stroke-linecap:butt;stroke-linejoin:miter;stroke-opacity:1"/>
<path class="bond-0 atom-0 atom-1" d="M 748.1,1352.0 L 737.4,1385.5" style="fill:none;fill-rule:evenodd;stroke:#FF0000;stroke-width:2.0px;stroke-linecap:butt;stroke-linejoin:miter;stroke-opacity:1"/>
<path class="bond-1 atom-1 atom-2" d="M 718.1,1404.2 L 682.2,1412.1" style="fill:none;fill-rule:evenodd;stroke:#FF0000;stroke-width:2.0px;stroke-linecap:butt;stroke-linejoin:miter;stroke-opacity:1"/>
<path class="bond-1 atom-1 atom-2" d="M 682.2,1412.1 L 646.2,1420.0" style="fill:none;fill-rule:evenodd;stroke:#000000;stroke-width:2.0px;stroke-linecap:butt;stroke-linejoin:miter;stroke-opacity:1"/>
<path class="bond-2 atom-2 atom-3" d="M 646.2,1420.0 L 619.5,1504.2" style="fill:none;fill-rule:evenodd;stroke:#000000;stroke-width:2.0px;stroke-linecap:butt;stroke-linejoin:miter;stroke-opacity:1"/>
<path class="bond-3 atom-2 atom-4" d="M 646.2,1420.0 L 586.6,1354.8" style="fill:none;fill-rule:evenodd;stroke:#000000;stroke-width:2.0px;stroke-linecap:butt;stroke-linejoin:miter;stroke-opacity:1"/>
<path class="bond-4 atom-4 atom-5" d="M 586.6,1354.8 L 500.3,1373.7" style="fill:none;fill-rule:evenodd;stroke:#000000;stroke-width:2.0px;stroke-linecap:butt;stroke-linejoin:miter;stroke-opacity:1"/>
<path class="bond-5 atom-5 atom-6" d="M 500.3,1373.7 L 471.3,1341.9" style="fill:none;fill-rule:evenodd;stroke:#000000;stroke-width:2.0px;stroke-linecap:butt;stroke-linejoin:miter;stroke-opacity:1"/>
<path class="bond-5 atom-5 atom-6" d="M 471.3,1341.9 L 442.3,1310.1" style="fill:none;fill-rule:evenodd;stroke:#191919;stroke-width:2.0px;stroke-linecap:butt;stroke-linejoin:miter;stroke-opacity:1"/>
<path class="bond-6 atom-5 atom-7" d="M 495.2,1368.1 L 483.7,1404.2" style="fill:none;fill-rule:evenodd;stroke:#000000;stroke-width:2.0px;stroke-linecap:butt;stroke-linejoin:miter;stroke-opacity:1"/>
<path class="bond-6 atom-5 atom-7" d="M 483.7,1404.2 L 472.2,1440.4" style="fill:none;fill-rule:evenodd;stroke:#FF0000;stroke-width:2.0px;stroke-linecap:butt;stroke-linejoin:miter;stroke-opacity:1"/>
<path class="bond-6 atom-5 atom-7" d="M 507.8,1372.1 L 496.4,1408.2" style="fill:none;fill-rule:evenodd;stroke:#000000;stroke-width:2.0px;stroke-linecap:butt;stroke-linejoin:miter;stroke-opacity:1"/>
<path class="bond-6 atom-5 atom-7" d="M 496.4,1408.2 L 484.9,1444.4" style="fill:none;fill-rule:evenodd;stroke:#FF0000;stroke-width:2.0px;stroke-linecap:butt;stroke-linejoin:miter;stroke-opacity:1"/>
<path d="M 589.6,1358.0 L 586.6,1354.8 L 582.3,1355.7" style="fill:none;stroke:#000000;stroke-width:2.0px;stroke-linecap:butt;stroke-linejoin:miter;stroke-opacity:1;"/>
<path d="M 504.7,1372.8 L 500.3,1373.7 L 498.9,1372.1" style="fill:none;stroke:#000000;stroke-width:2.0px;stroke-linecap:butt;stroke-linejoin:miter;stroke-opacity:1;"/>
<path class="atom-0" d="M 754.5 1314.0 L 758.2 1310.3 L 753.3 1309.3 L 754.0 1306.8 L 758.5 1309.1 L 757.9 1304.2 L 760.5 1304.1 L 759.8 1309.0 L 764.4 1306.9 L 765.1 1309.3 L 760.2 1310.2 L 763.7 1314.0 L 761.6 1315.6 L 759.1 1310.9 L 756.7 1315.6 L 754.5 1314.0 " fill="#191919"/>
<path class="atom-1" d="M 721.0 1401.1 Q 721.0 1395.1, 724.0 1391.8 Q 727.0 1388.4, 732.5 1388.4 Q 738.1 1388.4, 741.0 1391.8 Q 744.0 1395.1, 744.0 1401.1 Q 744.0 1407.2, 741.0 1410.7 Q 738.0 1414.1, 732.5 1414.1 Q 727.0 1414.1, 724.0 1410.7 Q 721.0 1407.2, 721.0 1401.1 M 732.5 1411.3 Q 736.3 1411.3, 738.4 1408.7 Q 740.5 1406.1, 740.5 1401.1 Q 740.5 1396.2, 738.4 1393.7 Q 736.3 1391.2, 732.5 1391.2 Q 728.7 1391.2, 726.6 1393.7 Q 724.6 1396.2, 724.6 1401.1 Q 724.6 1406.2, 726.6 1408.7 Q 728.7 1411.3, 732.5 1411.3 " fill="#FF0000"/>
<path class="atom-6" d="M 436.1 1305.7 L 439.7 1302.0 L 434.9 1301.0 L 435.6 1298.5 L 440.1 1300.7 L 439.5 1295.8 L 442.1 1295.8 L 441.4 1300.7 L 445.9 1298.6 L 446.7 1301.0 L 441.7 1301.9 L 445.3 1305.7 L 443.1 1307.2 L 440.7 1302.6 L 438.2 1307.2 L 436.1 1305.7 " fill="#191919"/>
<path class="atom-7" d="M 462.1 1458.0 Q 462.1 1452.0, 465.1 1448.7 Q 468.1 1445.3, 473.6 1445.3 Q 479.2 1445.3, 482.1 1448.7 Q 485.1 1452.0, 485.1 1458.0 Q 485.1 1464.1, 482.1 1467.6 Q 479.1 1471.0, 473.6 1471.0 Q 468.1 1471.0, 465.1 1467.6 Q 462.1 1464.1, 462.1 1458.0 M 473.6 1468.2 Q 477.4 1468.2, 479.5 1465.6 Q 481.6 1463.0, 481.6 1458.0 Q 481.6 1453.1, 479.5 1450.6 Q 477.4 1448.1, 473.6 1448.1 Q 469.8 1448.1, 467.7 1450.6 Q 465.7 1453.1, 465.7 1458.0 Q 465.7 1463.1, 467.7 1465.6 Q 469.8 1468.2, 473.6 1468.2 " fill="#FF0000"/>
</svg>