<svg xmlns="http://www.w3.org/2000/svg" xmlns:rdkit="http://www.rdkit.org/xml" xmlns:xlink="http://www.w3.org/1999/xlink" version="1.1" baseProfile="full" xml:space="preserve" width="1200px" height="1600px" viewBox="0 0 1200 1600">
<!-- END OF HEADER -->
<rect style="opacity:1.0;fill:#FFFFFF;stroke:none" width="1200.0" height="1600.0" x="0.0" y="0.0"> </rect>
<path class="bond-0 atom-0 atom-1" d="M 287.5,178.4 L 314.1,167.7" style="fill:none;fill-rule:evenodd;stroke:#191919;stroke-width:2.0px;stroke-linecap:butt;stroke-linejoin:miter;stroke-opacity:1"/>
<path class="bond-0 atom-0 atom-1" d="M 314.1,167.7 L 340.7,156.9" style="fill:none;fill-rule:evenodd;stroke:#FF0000;stroke-width:2.0px;stroke-linecap:butt;stroke-linejoin:miter;stroke-opacity:1"/>
<path class="bond-1 atom-1 atom-2" d="M 366.9,161.8 L 391.9,181.4" style="fill:none;fill-rule:evenodd;stroke:#FF0000;stroke-width:2.0px;stroke-linecap:butt;stroke-linejoin:miter;stroke-opacity:1"/>
<path class="bond-1 atom-1 atom-2" d="M 391.9,181.4 L 417.0,201.0" style="fill:none;fill-rule:evenodd;stroke:#000000;stroke-width:2.0px;stroke-linecap:butt;stroke-linejoin:miter;stroke-opacity:1"/>
<path class="bond-2 atom-2 atom-3" d="M 411.5,196.7 L 406.7,231.0" style="fill:none;fill-rule:evenodd;stroke:#000000;stroke-width:2.0px;stroke-linecap:butt;stroke-linejoin:miter;stroke-opacity:1"/>
<path class="bond-2 atom-2 atom-3" d="M 406.7,231.0 L 401.9,265.4" style="fill:none;fill-rule:evenodd;stroke:#FF0000;stroke-width:2.0px;stroke-linecap:butt;stroke-linejoin:miter;stroke-opacity:1"/>
<path class="bond-2 atom-2 atom-3" d="M 423.4,198.3 L 418.6,232.7" style="fill:none;fill-rule:evenodd;stroke:#000000;stroke-width:2.0px;stroke-linecap:butt;stroke-linejoin:miter;stroke-opacity:1"/>
<path class="bond-2 atom-2 atom-3" d="M 418.6,232.7 L 413.8,267.0" style="fill:none;fill-rule:evenodd;stroke:#FF0000;stroke-width:2.0px;stroke-linecap:butt;stroke-linejoin:miter;stroke-opacity:1"/>
<path class="bond-3 atom-2 atom-4" d="M 417.0,201.0 L 491.3,170.9" style="fill:none;fill-rule:evenodd;stroke:#000000;stroke-width:2.0px;stroke-linecap:butt;stroke-linejoin:miter;stroke-opacity:1"/>
<path class="bond-4 atom-4 atom-5" d="M 491.3,170.9 L 554.4,220.2" style="fill:none;fill-rule:evenodd;stroke:#000000;stroke-width:2.0px;stroke-linecap:butt;stroke-linejoin:miter;stroke-opacity:1"/>
<path class="bond-5 atom-5 atom-6" d="M 554.4,220.2 L 533.8,246.7" style="fill:none;fill-rule:evenodd;stroke:#000000;stroke-width:2.0px;stroke-linecap:butt;stroke-linejoin:miter;stroke-opacity:1"/>
<path class="bond-5 atom-5 atom-6" d="M 533.8,246.7 L 513.1,273.1" style="fill:none;fill-rule:evenodd;stroke:#191919;stroke-width:2.0px;stroke-linecap:butt;stroke-linejoin:miter;stroke-opacity:1"/>
<path class="bond-6 atom-5 atom-7" d="M 554.4,220.2 L 603.7,157.1" style="fill:none;fill-rule:evenodd;stroke:#000000;stroke-width:2.0px;stroke-linecap:butt;stroke-linejoin:miter;stroke-opacity:1"/>
<path class="bond-7 atom-7 atom-8" d="M 603.7,157.1 L 573.7,82.8" style="fill:none;fill-rule:evenodd;stroke:#000000;stroke-width:2.0px;stroke-linecap:butt;stroke-linejoin:miter;stroke-opacity:1"/>
<path class="bond-8 atom-5 atom-9" d="M 554.4,220.2 L 579.5,239.8" style="fill:none;fill-rule:evenodd;stroke:#000000;stroke-width:2.0px;stroke-linecap:butt;stroke-linejoin:miter;stroke-opacity:1"/>
<path class="bond-8 atom-5 atom-9" d="M 579.5,239.8 L 604.5,259.3" style="fill:none;fill-rule:evenodd;stroke:#FF0000;stroke-width:2.0px;stroke-linecap:butt;stroke-linejoin:miter;stroke-opacity:1"/>
<path class="bond-9 atom-9 atom-10" d="M 630.6,264.3 L 661.2,251.9" style="fill:none;fill-rule:evenodd;stroke:#FF0000;stroke-width:2.0px;stroke-linecap:butt;stroke-linejoin:miter;stroke-opacity:1"/>
<path class="bond-9 atom-9 atom-10" d="M 661.2,251.9 L 691.9,239.5" style="fill:none;fill-rule:evenodd;stroke:#000000;stroke-width:2.0px;stroke-linecap:butt;stroke-linejoin:miter;stroke-opacity:1"/>
<path class="bond-10 atom-10 atom-11" d="M 691.9,239.5 L 703.0,160.1" style="fill:none;fill-rule:evenodd;stroke:#000000;stroke-width:2.0px;stroke-linecap:butt;stroke-linejoin:miter;stroke-opacity:1"/>
<path class="bond-11 atom-11 atom-12" d="M 703.0,160.1 L 639.8,110.8" style="fill:none;fill-rule:evenodd;stroke:#000000;stroke-width:2.0px;stroke-linecap:butt;stroke-linejoin:miter;stroke-opacity:1"/>
<path class="bond-12 atom-12 atom-13" d="M 639.8,110.8 L 644.4,78.4" style="fill:none;fill-rule:evenodd;stroke:#000000;stroke-width:2.0px;stroke-linecap:butt;stroke-linejoin:miter;stroke-opacity:1"/>
<path class="bond-12 atom-12 atom-13" d="M 644.4,78.4 L 648.9,45.9" style="fill:none;fill-rule:evenodd;stroke:#FF0000;stroke-width:2.0px;stroke-linecap:butt;stroke-linejoin:miter;stroke-opacity:1"/>
<path class="bond-13 atom-11 atom-14" d="M 703.0,160.1 L 733.6,147.8" style="fill:none;fill-rule:evenodd;stroke:#000000;stroke-width:2.0px;stroke-linecap:butt;stroke-linejoin:miter;stroke-opacity:1"/>
<path class="bond-13 atom-11 atom-14" d="M 733.6,147.8 L 764.2,135.4" style="fill:none;fill-rule:evenodd;stroke:#FF0000;stroke-width:2.0px;stroke-linecap:butt;stroke-linejoin:miter;stroke-opacity:1"/>
<path class="bond-14 atom-14 atom-15" d="M 790.3,140.3 L 815.4,159.9" style="fill:none;fill-rule:evenodd;stroke:#FF0000;stroke-width:2.0px;stroke-linecap:butt;stroke-linejoin:miter;stroke-opacity:1"/>
<path class="bond-14 atom-14 atom-15" d="M 815.4,159.9 L 840.4,179.4" style="fill:none;fill-rule:evenodd;stroke:#000000;stroke-width:2.0px;stroke-linecap:butt;stroke-linejoin:miter;stroke-opacity:1"/>
<path class="bond-15 atom-15 atom-16" d="M 840.4,179.4 L 871.0,167.0" style="fill:none;fill-rule:evenodd;stroke:#000000;stroke-width:2.0px;stroke-linecap:butt;stroke-linejoin:miter;stroke-opacity:1"/>
<path class="bond-15 atom-15 atom-16" d="M 871.0,167.0 L 901.7,154.7" style="fill:none;fill-rule:evenodd;stroke:#FF0000;stroke-width:2.0px;stroke-linecap:butt;stroke-linejoin:miter;stroke-opacity:1"/>
<path class="bond-16 atom-16 atom-17" d="M 916.7,135.3 L 921.3,102.6" style="fill:none;fill-rule:evenodd;stroke:#FF0000;stroke-width:2.0px;stroke-linecap:butt;stroke-linejoin:miter;stroke-opacity:1"/>
<path class="bond-16 atom-16 atom-17" d="M 921.3,102.6 L 925.9,70.0" style="fill:none;fill-rule:evenodd;stroke:#000000;stroke-width:2.0px;stroke-linecap:butt;stroke-linejoin:miter;stroke-opacity:1"/>
<path class="bond-17 atom-15 atom-18" d="M 840.4,179.4 L 829.3,258.8" style="fill:none;fill-rule:evenodd;stroke:#000000;stroke-width:2.0px;stroke-linecap:butt;stroke-linejoin:miter;stroke-opacity:1"/>
<path class="bond-18 atom-18 atom-19" d="M 829.3,258.8 L 854.4,278.3" style="fill:none;fill-rule:evenodd;stroke:#000000;stroke-width:2.0px;stroke-linecap:butt;stroke-linejoin:miter;stroke-opacity:1"/>
<path class="bond-18 atom-18 atom-19" d="M 854.4,278.3 L 879.4,297.9" style="fill:none;fill-rule:evenodd;stroke:#FF0000;stroke-width:2.0px;stroke-linecap:butt;stroke-linejoin:miter;stroke-opacity:1"/>
<path class="bond-19 atom-18 atom-20" d="M 829.3,258.8 L 755.0,288.8" style="fill:none;fill-rule:evenodd;stroke:#000000;stroke-width:2.0px;stroke-linecap:butt;stroke-linejoin:miter;stroke-opacity:1"/>
<path class="bond-20 atom-20 atom-21" d="M 755.0,288.8 L 750.4,321.4" style="fill:none;fill-rule:evenodd;stroke:#000000;stroke-width:2.0px;stroke-linecap:butt;stroke-linejoin:miter;stroke-opacity:1"/>
<path class="bond-20 atom-20 atom-21" d="M 750.4,321.4 L 745.9,354.1" style="fill:none;fill-rule:evenodd;stroke:#FF0000;stroke-width:2.0px;stroke-linecap:butt;stroke-linejoin:miter;stroke-opacity:1"/>
<path class="bond-21 atom-20 atom-10" d="M 755.0,288.8 L 691.9,239.5" style="fill:none;fill-rule:evenodd;stroke:#000000;stroke-width:2.0px;stroke-linecap:butt;stroke-linejoin:miter;stroke-opacity:1"/>
<path d="M 415.7,200.0 L 417.0,201.0 L 420.7,199.4" style="fill:none;stroke:#000000;stroke-width:2.0px;stroke-linecap:butt;stroke-linejoin:miter;stroke-opacity:1;"/>
<path d="M 487.5,172.4 L 491.3,170.9 L 494.4,173.4" style="fill:none;stroke:#000000;stroke-width:2.0px;stroke-linecap:butt;stroke-linejoin:miter;stroke-opacity:1;"/>
<path d="M 601.3,160.2 L 603.7,157.1 L 602.2,153.4" style="fill:none;stroke:#000000;stroke-width:2.0px;stroke-linecap:butt;stroke-linejoin:miter;stroke-opacity:1;"/>
<path d="M 643.0,113.3 L 639.8,110.8 L 640.1,109.2" style="fill:none;stroke:#000000;stroke-width:2.0px;stroke-linecap:butt;stroke-linejoin:miter;stroke-opacity:1;"/>
<path class="atom-0" d="M 275.2 179.1 L 278.6 175.7 L 274.1 174.8 L 274.8 172.6 L 278.9 174.6 L 278.3 170.2 L 280.7 170.1 L 280.0 174.6 L 284.2 172.7 L 284.9 174.8 L 280.4 175.7 L 283.6 179.1 L 281.6 180.5 L 279.4 176.3 L 277.2 180.5 L 275.2 179.1 " fill="#191919"/>
<path class="atom-1" d="M 343.4 151.7 Q 343.4 146.3, 346.1 143.2 Q 348.8 140.2, 353.8 140.2 Q 358.8 140.2, 361.5 143.2 Q 364.2 146.3, 364.2 151.7 Q 364.2 157.2, 361.5 160.4 Q 358.8 163.5, 353.8 163.5 Q 348.8 163.5, 346.1 160.4 Q 343.4 157.2, 343.4 151.7 M 353.8 160.9 Q 357.3 160.9, 359.1 158.6 Q 361.0 156.3, 361.0 151.7 Q 361.0 147.2, 359.1 145.0 Q 357.3 142.7, 353.8 142.7 Q 350.3 142.7, 348.5 145.0 Q 346.6 147.2, 346.6 151.7 Q 346.6 156.3, 348.5 158.6 Q 350.3 160.9, 353.8 160.9 " fill="#FF0000"/>
<path class="atom-3" d="M 395.4 280.4 Q 395.4 274.9, 398.1 271.9 Q 400.8 268.8, 405.8 268.8 Q 410.9 268.8, 413.6 271.9 Q 416.3 274.9, 416.3 280.4 Q 416.3 285.9, 413.5 289.0 Q 410.8 292.1, 405.8 292.1 Q 400.8 292.1, 398.1 289.0 Q 395.4 285.9, 395.4 280.4 M 405.8 289.6 Q 409.3 289.6, 411.2 287.3 Q 413.0 284.9, 413.0 280.4 Q 413.0 275.9, 411.2 273.7 Q 409.3 271.4, 405.8 271.4 Q 402.4 271.4, 400.5 273.6 Q 398.6 275.9, 398.6 280.4 Q 398.6 285.0, 400.5 287.3 Q 402.4 289.6, 405.8 289.6 " fill="#FF0000"/>
<path class="atom-6" d="M 500.8 280.9 L 504.2 277.5 L 499.7 276.6 L 500.4 274.3 L 504.5 276.3 L 503.9 271.9 L 506.3 271.8 L 505.6 276.3 L 509.8 274.4 L 510.5 276.6 L 506.0 277.4 L 509.2 280.8 L 507.2 282.2 L 505.0 278.0 L 502.8 282.2 L 500.8 280.9 " fill="#191919"/>
<path class="atom-9" d="M 607.2 269.6 Q 607.2 264.2, 609.8 261.1 Q 612.5 258.1, 617.6 258.1 Q 622.6 258.1, 625.3 261.1 Q 628.0 264.2, 628.0 269.6 Q 628.0 275.1, 625.3 278.3 Q 622.5 281.4, 617.6 281.4 Q 612.6 281.4, 609.8 278.3 Q 607.2 275.2, 607.2 269.6 M 617.6 278.8 Q 621.0 278.8, 622.9 276.5 Q 624.8 274.2, 624.8 269.6 Q 624.8 265.2, 622.9 262.9 Q 621.0 260.6, 617.6 260.6 Q 614.1 260.6, 612.2 262.9 Q 610.4 265.1, 610.4 269.6 Q 610.4 274.2, 612.2 276.5 Q 614.1 278.8, 617.6 278.8 " fill="#FF0000"/>
<path class="atom-13" d="M 640.5 31.5 Q 640.5 26.1, 643.2 23.0 Q 645.9 20.0, 651.0 20.0 Q 656.0 20.0, 658.7 23.0 Q 661.4 26.1, 661.4 31.5 Q 661.4 37.1, 658.6 40.2 Q 655.9 43.3, 651.0 43.3 Q 646.0 43.3, 643.2 40.2 Q 640.5 37.1, 640.5 31.5 M 651.0 40.7 Q 654.4 40.7, 656.3 38.4 Q 658.2 36.1, 658.2 31.5 Q 658.2 27.1, 656.3 24.8 Q 654.4 22.6, 651.0 22.6 Q 647.5 22.6, 645.6 24.8 Q 643.7 27.1, 643.7 31.5 Q 643.7 36.1, 645.6 38.4 Q 647.5 40.7, 651.0 40.7 " fill="#FF0000"/>
<path class="atom-13" d="M 664.9 20.3 L 668.0 20.3 L 668.0 29.9 L 679.6 29.9 L 679.6 20.3 L 682.7 20.3 L 682.7 42.9 L 679.6 42.9 L 679.6 32.5 L 668.0 32.5 L 668.0 42.9 L 664.9 42.9 L 664.9 20.3 " fill="#FF0000"/>
<path class="atom-14" d="M 766.9 130.2 Q 766.9 124.7, 769.6 121.7 Q 772.2 118.6, 777.3 118.6 Q 782.3 118.6, 785.0 121.7 Q 787.7 124.7, 787.7 130.2 Q 787.7 135.7, 785.0 138.8 Q 782.2 141.9, 777.3 141.9 Q 772.3 141.9, 769.6 138.8 Q 766.9 135.7, 766.9 130.2 M 777.3 139.4 Q 780.7 139.4, 782.6 137.1 Q 784.5 134.7, 784.5 130.2 Q 784.5 125.7, 782.6 123.5 Q 780.7 121.2, 777.3 121.2 Q 773.8 121.2, 771.9 123.4 Q 770.1 125.7, 770.1 130.2 Q 770.1 134.8, 771.9 137.1 Q 773.8 139.4, 777.3 139.4 " fill="#FF0000"/>
<path class="atom-16" d="M 904.3 149.4 Q 904.3 144.0, 907.0 141.0 Q 909.7 137.9, 914.7 137.9 Q 919.8 137.9, 922.4 141.0 Q 925.1 144.0, 925.1 149.4 Q 925.1 155.0, 922.4 158.1 Q 919.7 161.2, 914.7 161.2 Q 909.7 161.2, 907.0 158.1 Q 904.3 155.0, 904.3 149.4 M 914.7 158.6 Q 918.2 158.6, 920.0 156.3 Q 921.9 154.0, 921.9 149.4 Q 921.9 145.0, 920.0 142.7 Q 918.2 140.5, 914.7 140.5 Q 911.3 140.5, 909.4 142.7 Q 907.5 145.0, 907.5 149.4 Q 907.5 154.0, 909.4 156.3 Q 911.3 158.6, 914.7 158.6 " fill="#FF0000"/>
<path class="atom-19" d="M 882.0 308.2 Q 882.0 302.7, 884.7 299.7 Q 887.4 296.6, 892.5 296.6 Q 897.5 296.6, 900.2 299.7 Q 902.9 302.7, 902.9 308.2 Q 902.9 313.7, 900.2 316.8 Q 897.4 319.9, 892.5 319.9 Q 887.5 319.9, 884.7 316.8 Q 882.0 313.7, 882.0 308.2 M 892.5 317.4 Q 895.9 317.4, 897.8 315.0 Q 899.7 312.7, 899.7 308.2 Q 899.7 303.7, 897.8 301.5 Q 895.9 299.2, 892.5 299.2 Q 889.0 299.2, 887.1 301.4 Q 885.3 303.7, 885.3 308.2 Q 885.3 312.7, 887.1 315.0 Q 889.0 317.4, 892.5 317.4 " fill="#FF0000"/>
<path class="atom-19" d="M 906.4 296.9 L 909.5 296.9 L 909.5 306.5 L 921.1 306.5 L 921.1 296.9 L 924.2 296.9 L 924.2 319.6 L 921.1 319.6 L 921.1 309.1 L 909.5 309.1 L 909.5 319.6 L 906.4 319.6 L 906.4 296.9 " fill="#FF0000"/>
<path class="atom-21" d="M 733.5 368.2 Q 733.5 362.8, 736.2 359.7 Q 738.9 356.7, 743.9 356.7 Q 748.9 356.7, 751.6 359.7 Q 754.3 362.8, 754.3 368.2 Q 754.3 373.7, 751.6 376.9 Q 748.9 380.0, 743.9 380.0 Q 738.9 380.0, 736.2 376.9 Q 733.5 373.8, 733.5 368.2 M 743.9 377.4 Q 747.4 377.4, 749.2 375.1 Q 751.1 372.8, 751.1 368.2 Q 751.1 363.8, 749.2 361.5 Q 747.4 359.3, 743.9 359.3 Q 740.4 359.3, 738.5 361.5 Q 736.7 363.7, 736.7 368.2 Q 736.7 372.8, 738.5 375.1 Q 740.4 377.4, 743.9 377.4 " fill="#FF0000"/>
<path class="atom-21" d="M 757.8 357.0 L 760.9 357.0 L 760.9 366.6 L 772.5 366.6 L 772.5 357.0 L 775.6 357.0 L 775.6 379.6 L 772.5 379.6 L 772.5 369.2 L 760.9 369.2 L 760.9 379.6 L 757.8 379.6 L 757.8 357.0 " fill="#FF0000"/>
<path class="bond-0 atom-0 atom-1" d="M 319.3,492.1 L 326.4,523.4" style="fill:none;fill-rule:evenodd;stroke:#191919;stroke-width:2.0px;stroke-linecap:butt;stroke-linejoin:miter;stroke-opacity:1"/>
<path class="bond-0 atom-0 atom-1" d="M 326.4,523.4 L 333.5,554.7" style="fill:none;fill-rule:evenodd;stroke:#FF0000;stroke-width:2.0px;stroke-linecap:butt;stroke-linejoin:miter;stroke-opacity:1"/>
<path class="bond-1 atom-1 atom-2" d="M 349.7,572.8 L 381.5,582.7" style="fill:none;fill-rule:evenodd;stroke:#FF0000;stroke-width:2.0px;stroke-linecap:butt;stroke-linejoin:miter;stroke-opacity:1"/>
<path class="bond-1 atom-1 atom-2" d="M 381.5,582.7 L 413.2,592.5" style="fill:none;fill-rule:evenodd;stroke:#000000;stroke-width:2.0px;stroke-linecap:butt;stroke-linejoin:miter;stroke-opacity:1"/>
<path class="bond-2 atom-2 atom-3" d="M 414.7,599.3 L 438.9,577.0" style="fill:none;fill-rule:evenodd;stroke:#000000;stroke-width:2.0px;stroke-linecap:butt;stroke-linejoin:miter;stroke-opacity:1"/>
<path class="bond-2 atom-2 atom-3" d="M 438.9,577.0 L 463.1,554.6" style="fill:none;fill-rule:evenodd;stroke:#FF0000;stroke-width:2.0px;stroke-linecap:butt;stroke-linejoin:miter;stroke-opacity:1"/>
<path class="bond-2 atom-2 atom-3" d="M 406.6,590.5 L 430.7,568.1" style="fill:none;fill-rule:evenodd;stroke:#000000;stroke-width:2.0px;stroke-linecap:butt;stroke-linejoin:miter;stroke-opacity:1"/>
<path class="bond-2 atom-2 atom-3" d="M 430.7,568.1 L 454.9,545.8" style="fill:none;fill-rule:evenodd;stroke:#FF0000;stroke-width:2.0px;stroke-linecap:butt;stroke-linejoin:miter;stroke-opacity:1"/>
<path class="bond-3 atom-2 atom-4" d="M 413.2,592.5 L 430.9,670.7" style="fill:none;fill-rule:evenodd;stroke:#000000;stroke-width:2.0px;stroke-linecap:butt;stroke-linejoin:miter;stroke-opacity:1"/>
<path class="bond-4 atom-4 atom-5" d="M 430.9,670.7 L 507.4,694.4" style="fill:none;fill-rule:evenodd;stroke:#000000;stroke-width:2.0px;stroke-linecap:butt;stroke-linejoin:miter;stroke-opacity:1"/>
<path class="bond-5 atom-5 atom-6" d="M 507.4,694.4 L 497.7,725.6" style="fill:none;fill-rule:evenodd;stroke:#000000;stroke-width:2.0px;stroke-linecap:butt;stroke-linejoin:miter;stroke-opacity:1"/>
<path class="bond-5 atom-5 atom-6" d="M 497.7,725.6 L 488.1,756.8" style="fill:none;fill-rule:evenodd;stroke:#191919;stroke-width:2.0px;stroke-linecap:butt;stroke-linejoin:miter;stroke-opacity:1"/>
<path class="bond-6 atom-5 atom-7" d="M 507.4,694.4 L 531.2,617.9" style="fill:none;fill-rule:evenodd;stroke:#000000;stroke-width:2.0px;stroke-linecap:butt;stroke-linejoin:miter;stroke-opacity:1"/>
<path class="bond-7 atom-5 atom-8" d="M 507.4,694.4 L 539.2,704.3" style="fill:none;fill-rule:evenodd;stroke:#000000;stroke-width:2.0px;stroke-linecap:butt;stroke-linejoin:miter;stroke-opacity:1"/>
<path class="bond-7 atom-5 atom-8" d="M 539.2,704.3 L 570.9,714.1" style="fill:none;fill-rule:evenodd;stroke:#FF0000;stroke-width:2.0px;stroke-linecap:butt;stroke-linejoin:miter;stroke-opacity:1"/>
<path class="bond-8 atom-8 atom-9" d="M 597.0,706.1 L 619.9,685.0" style="fill:none;fill-rule:evenodd;stroke:#FF0000;stroke-width:2.0px;stroke-linecap:butt;stroke-linejoin:miter;stroke-opacity:1"/>
<path class="bond-8 atom-8 atom-9" d="M 619.9,685.0 L 642.8,663.8" style="fill:none;fill-rule:evenodd;stroke:#000000;stroke-width:2.0px;stroke-linecap:butt;stroke-linejoin:miter;stroke-opacity:1"/>
<path class="bond-9 atom-9 atom-10" d="M 642.8,663.8 L 625.1,585.6" style="fill:none;fill-rule:evenodd;stroke:#000000;stroke-width:2.0px;stroke-linecap:butt;stroke-linejoin:miter;stroke-opacity:1"/>
<path class="bond-10 atom-10 atom-11" d="M 625.1,585.6 L 548.6,561.9" style="fill:none;fill-rule:evenodd;stroke:#000000;stroke-width:2.0px;stroke-linecap:butt;stroke-linejoin:miter;stroke-opacity:1"/>
<path class="bond-11 atom-11 atom-12" d="M 548.6,561.9 L 541.4,530.1" style="fill:none;fill-rule:evenodd;stroke:#000000;stroke-width:2.0px;stroke-linecap:butt;stroke-linejoin:miter;stroke-opacity:1"/>
<path class="bond-11 atom-11 atom-12" d="M 541.4,530.1 L 534.2,498.2" style="fill:none;fill-rule:evenodd;stroke:#FF0000;stroke-width:2.0px;stroke-linecap:butt;stroke-linejoin:miter;stroke-opacity:1"/>
<path class="bond-12 atom-10 atom-13" d="M 625.1,585.6 L 648.0,564.5" style="fill:none;fill-rule:evenodd;stroke:#000000;stroke-width:2.0px;stroke-linecap:butt;stroke-linejoin:miter;stroke-opacity:1"/>
<path class="bond-12 atom-10 atom-13" d="M 648.0,564.5 L 670.9,543.3" style="fill:none;fill-rule:evenodd;stroke:#FF0000;stroke-width:2.0px;stroke-linecap:butt;stroke-linejoin:miter;stroke-opacity:1"/>
<path class="bond-13 atom-13 atom-14" d="M 697.0,535.3 L 728.7,545.2" style="fill:none;fill-rule:evenodd;stroke:#FF0000;stroke-width:2.0px;stroke-linecap:butt;stroke-linejoin:miter;stroke-opacity:1"/>
<path class="bond-13 atom-13 atom-14" d="M 728.7,545.2 L 760.5,555.0" style="fill:none;fill-rule:evenodd;stroke:#000000;stroke-width:2.0px;stroke-linecap:butt;stroke-linejoin:miter;stroke-opacity:1"/>
<path class="bond-14 atom-14 atom-15" d="M 760.5,555.0 L 783.4,533.8" style="fill:none;fill-rule:evenodd;stroke:#000000;stroke-width:2.0px;stroke-linecap:butt;stroke-linejoin:miter;stroke-opacity:1"/>
<path class="bond-14 atom-14 atom-15" d="M 783.4,533.8 L 806.2,512.7" style="fill:none;fill-rule:evenodd;stroke:#FF0000;stroke-width:2.0px;stroke-linecap:butt;stroke-linejoin:miter;stroke-opacity:1"/>
<path class="bond-15 atom-15 atom-16" d="M 816.1,486.5 L 808.9,454.5" style="fill:none;fill-rule:evenodd;stroke:#FF0000;stroke-width:2.0px;stroke-linecap:butt;stroke-linejoin:miter;stroke-opacity:1"/>
<path class="bond-15 atom-15 atom-16" d="M 808.9,454.5 L 801.6,422.5" style="fill:none;fill-rule:evenodd;stroke:#000000;stroke-width:2.0px;stroke-linecap:butt;stroke-linejoin:miter;stroke-opacity:1"/>
<path class="bond-16 atom-14 atom-17" d="M 760.5,555.0 L 778.2,633.2" style="fill:none;fill-rule:evenodd;stroke:#000000;stroke-width:2.0px;stroke-linecap:butt;stroke-linejoin:miter;stroke-opacity:1"/>
<path class="bond-17 atom-17 atom-18" d="M 778.2,633.2 L 809.9,643.0" style="fill:none;fill-rule:evenodd;stroke:#000000;stroke-width:2.0px;stroke-linecap:butt;stroke-linejoin:miter;stroke-opacity:1"/>
<path class="bond-17 atom-17 atom-18" d="M 809.9,643.0 L 841.6,652.9" style="fill:none;fill-rule:evenodd;stroke:#FF0000;stroke-width:2.0px;stroke-linecap:butt;stroke-linejoin:miter;stroke-opacity:1"/>
<path class="bond-18 atom-17 atom-19" d="M 778.2,633.2 L 719.3,687.6" style="fill:none;fill-rule:evenodd;stroke:#000000;stroke-width:2.0px;stroke-linecap:butt;stroke-linejoin:miter;stroke-opacity:1"/>
<path class="bond-19 atom-19 atom-20" d="M 719.3,687.6 L 726.6,719.6" style="fill:none;fill-rule:evenodd;stroke:#000000;stroke-width:2.0px;stroke-linecap:butt;stroke-linejoin:miter;stroke-opacity:1"/>
<path class="bond-19 atom-19 atom-20" d="M 726.6,719.6 L 733.8,751.6" style="fill:none;fill-rule:evenodd;stroke:#FF0000;stroke-width:2.0px;stroke-linecap:butt;stroke-linejoin:miter;stroke-opacity:1"/>
<path class="bond-20 atom-19 atom-9" d="M 719.3,687.6 L 642.8,663.8" style="fill:none;fill-rule:evenodd;stroke:#000000;stroke-width:2.0px;stroke-linecap:butt;stroke-linejoin:miter;stroke-opacity:1"/>
<path d="M 411.6,592.0 L 413.2,592.5 L 414.1,596.4" style="fill:none;stroke:#000000;stroke-width:2.0px;stroke-linecap:butt;stroke-linejoin:miter;stroke-opacity:1;"/>
<path d="M 430.0,666.8 L 430.9,670.7 L 434.7,671.9" style="fill:none;stroke:#000000;stroke-width:2.0px;stroke-linecap:butt;stroke-linejoin:miter;stroke-opacity:1;"/>
<path d="M 552.4,563.1 L 548.6,561.9 L 548.2,560.3" style="fill:none;stroke:#000000;stroke-width:2.0px;stroke-linecap:butt;stroke-linejoin:miter;stroke-opacity:1;"/>
<path class="atom-0" d="M 314.7 488.1 L 318.0 484.7 L 313.6 483.8 L 314.3 481.5 L 318.4 483.6 L 317.8 479.1 L 320.2 479.1 L 319.5 483.5 L 323.6 481.6 L 324.3 483.8 L 319.9 484.6 L 323.1 488.1 L 321.1 489.5 L 318.9 485.2 L 316.7 489.5 L 314.7 488.1 " fill="#191919"/>
<path class="atom-1" d="M 326.3 568.8 Q 326.3 563.4, 328.9 560.3 Q 331.6 557.3, 336.7 557.3 Q 341.7 557.3, 344.4 560.3 Q 347.1 563.4, 347.1 568.8 Q 347.1 574.4, 344.4 577.5 Q 341.6 580.6, 336.7 580.6 Q 331.7 580.6, 328.9 577.5 Q 326.3 574.4, 326.3 568.8 M 336.7 578.0 Q 340.1 578.0, 342.0 575.7 Q 343.9 573.4, 343.9 568.8 Q 343.9 564.4, 342.0 562.1 Q 340.1 559.9, 336.7 559.9 Q 333.2 559.9, 331.3 562.1 Q 329.5 564.4, 329.5 568.8 Q 329.5 573.4, 331.3 575.7 Q 333.2 578.0, 336.7 578.0 " fill="#FF0000"/>
<path class="atom-3" d="M 461.6 538.2 Q 461.6 532.7, 464.3 529.7 Q 467.0 526.7, 472.0 526.7 Q 477.1 526.7, 479.8 529.7 Q 482.5 532.7, 482.5 538.2 Q 482.5 543.7, 479.7 546.9 Q 477.0 550.0, 472.0 550.0 Q 467.0 550.0, 464.3 546.9 Q 461.6 543.7, 461.6 538.2 M 472.0 547.4 Q 475.5 547.4, 477.4 545.1 Q 479.2 542.8, 479.2 538.2 Q 479.2 533.7, 477.4 531.5 Q 475.5 529.2, 472.0 529.2 Q 468.6 529.2, 466.7 531.5 Q 464.8 533.7, 464.8 538.2 Q 464.8 542.8, 466.7 545.1 Q 468.6 547.4, 472.0 547.4 " fill="#FF0000"/>
<path class="atom-6" d="M 479.4 768.4 L 482.7 765.0 L 478.3 764.1 L 479.0 761.9 L 483.0 763.9 L 482.5 759.5 L 484.9 759.4 L 484.2 763.9 L 488.3 762.0 L 489.0 764.1 L 484.5 765.0 L 487.7 768.4 L 485.8 769.8 L 483.6 765.6 L 481.3 769.8 L 479.4 768.4 " fill="#191919"/>
<path class="atom-8" d="M 573.5 718.3 Q 573.5 712.8, 576.2 709.8 Q 578.9 706.7, 583.9 706.7 Q 589.0 706.7, 591.7 709.8 Q 594.4 712.8, 594.4 718.3 Q 594.4 723.8, 591.6 726.9 Q 588.9 730.0, 583.9 730.0 Q 578.9 730.0, 576.2 726.9 Q 573.5 723.8, 573.5 718.3 M 583.9 727.5 Q 587.4 727.5, 589.3 725.2 Q 591.2 722.8, 591.2 718.3 Q 591.2 713.8, 589.3 711.6 Q 587.4 709.3, 583.9 709.3 Q 580.5 709.3, 578.6 711.5 Q 576.7 713.8, 576.7 718.3 Q 576.7 722.8, 578.6 725.2 Q 580.5 727.5, 583.9 727.5 " fill="#FF0000"/>
<path class="atom-12" d="M 520.5 483.8 Q 520.5 478.4, 523.2 475.3 Q 525.8 472.3, 530.9 472.3 Q 535.9 472.3, 538.6 475.3 Q 541.3 478.4, 541.3 483.8 Q 541.3 489.3, 538.6 492.5 Q 535.8 495.6, 530.9 495.6 Q 525.9 495.6, 523.2 492.5 Q 520.5 489.3, 520.5 483.8 M 530.9 493.0 Q 534.3 493.0, 536.2 490.7 Q 538.1 488.4, 538.1 483.8 Q 538.1 479.3, 536.2 477.1 Q 534.3 474.8, 530.9 474.8 Q 527.4 474.8, 525.5 477.1 Q 523.7 479.3, 523.7 483.8 Q 523.7 488.4, 525.5 490.7 Q 527.4 493.0, 530.9 493.0 " fill="#FF0000"/>
<path class="atom-12" d="M 544.8 472.5 L 547.9 472.5 L 547.9 482.2 L 559.5 482.2 L 559.5 472.5 L 562.6 472.5 L 562.6 495.2 L 559.5 495.2 L 559.5 484.7 L 547.9 484.7 L 547.9 495.2 L 544.8 495.2 L 544.8 472.5 " fill="#FF0000"/>
<path class="atom-13" d="M 673.5 531.3 Q 673.5 525.9, 676.2 522.8 Q 678.9 519.8, 683.9 519.8 Q 689.0 519.8, 691.7 522.8 Q 694.4 525.9, 694.4 531.3 Q 694.4 536.8, 691.6 540.0 Q 688.9 543.1, 683.9 543.1 Q 678.9 543.1, 676.2 540.0 Q 673.5 536.9, 673.5 531.3 M 683.9 540.5 Q 687.4 540.5, 689.3 538.2 Q 691.1 535.9, 691.1 531.3 Q 691.1 526.9, 689.3 524.6 Q 687.4 522.3, 683.9 522.3 Q 680.5 522.3, 678.6 524.6 Q 676.7 526.8, 676.7 531.3 Q 676.7 535.9, 678.6 538.2 Q 680.5 540.5, 683.9 540.5 " fill="#FF0000"/>
<path class="atom-15" d="M 808.9 500.7 Q 808.9 495.2, 811.6 492.2 Q 814.3 489.1, 819.3 489.1 Q 824.3 489.1, 827.0 492.2 Q 829.7 495.2, 829.7 500.7 Q 829.7 506.2, 827.0 509.3 Q 824.3 512.4, 819.3 512.4 Q 814.3 512.4, 811.6 509.3 Q 808.9 506.2, 808.9 500.7 M 819.3 509.9 Q 822.8 509.9, 824.6 507.6 Q 826.5 505.2, 826.5 500.7 Q 826.5 496.2, 824.6 494.0 Q 822.8 491.7, 819.3 491.7 Q 815.8 491.7, 814.0 493.9 Q 812.1 496.2, 812.1 500.7 Q 812.1 505.3, 814.0 507.6 Q 815.8 509.9, 819.3 509.9 " fill="#FF0000"/>
<path class="atom-18" d="M 844.3 657.0 Q 844.3 651.5, 847.0 648.5 Q 849.7 645.4, 854.7 645.4 Q 859.7 645.4, 862.4 648.5 Q 865.1 651.5, 865.1 657.0 Q 865.1 662.5, 862.4 665.6 Q 859.7 668.7, 854.7 668.7 Q 849.7 668.7, 847.0 665.6 Q 844.3 662.5, 844.3 657.0 M 854.7 666.2 Q 858.1 666.2, 860.0 663.9 Q 861.9 661.5, 861.9 657.0 Q 861.9 652.5, 860.0 650.3 Q 858.1 648.0, 854.7 648.0 Q 851.2 648.0, 849.3 650.3 Q 847.5 652.5, 847.5 657.0 Q 847.5 661.6, 849.3 663.9 Q 851.2 666.2, 854.7 666.2 " fill="#FF0000"/>
<path class="atom-18" d="M 868.6 645.7 L 871.7 645.7 L 871.7 655.4 L 883.3 655.4 L 883.3 645.7 L 886.4 645.7 L 886.4 668.4 L 883.3 668.4 L 883.3 657.9 L 871.7 657.9 L 871.7 668.4 L 868.6 668.4 L 868.6 645.7 " fill="#FF0000"/>
<path class="atom-20" d="M 726.6 765.8 Q 726.6 760.3, 729.3 757.3 Q 732.0 754.2, 737.0 754.2 Q 742.0 754.2, 744.7 757.3 Q 747.4 760.3, 747.4 765.8 Q 747.4 771.3, 744.7 774.4 Q 742.0 777.5, 737.0 777.5 Q 732.0 777.5, 729.3 774.4 Q 726.6 771.3, 726.6 765.8 M 737.0 775.0 Q 740.5 775.0, 742.3 772.7 Q 744.2 770.3, 744.2 765.8 Q 744.2 761.3, 742.3 759.1 Q 740.5 756.8, 737.0 756.8 Q 733.5 756.8, 731.7 759.0 Q 729.8 761.3, 729.8 765.8 Q 729.8 770.4, 731.7 772.7 Q 733.5 775.0, 737.0 775.0 " fill="#FF0000"/>
<path class="atom-20" d="M 751.0 754.5 L 754.0 754.5 L 754.0 764.1 L 765.6 764.1 L 765.6 754.5 L 768.7 754.5 L 768.7 777.2 L 765.6 777.2 L 765.6 766.7 L 754.0 766.7 L 754.0 777.2 L 751.0 777.2 L 751.0 754.5 " fill="#FF0000"/>
<path class="bond-0 atom-0 atom-1" d="M 777.3,982.0 L 754.3,1001.8" style="fill:none;fill-rule:evenodd;stroke:#191919;stroke-width:2.0px;stroke-linecap:butt;stroke-linejoin:miter;stroke-opacity:1"/>
<path class="bond-0 atom-0 atom-1" d="M 754.3,1001.8 L 731.4,1021.6" style="fill:none;fill-rule:evenodd;stroke:#FF0000;stroke-width:2.0px;stroke-linecap:butt;stroke-linejoin:miter;stroke-opacity:1"/>
<path class="bond-1 atom-1 atom-2" d="M 705.3,1028.3 L 674.0,1017.4" style="fill:none;fill-rule:evenodd;stroke:#FF0000;stroke-width:2.0px;stroke-linecap:butt;stroke-linejoin:miter;stroke-opacity:1"/>
<path class="bond-1 atom-1 atom-2" d="M 674.0,1017.4 L 642.7,1006.5" style="fill:none;fill-rule:evenodd;stroke:#000000;stroke-width:2.0px;stroke-linecap:butt;stroke-linejoin:miter;stroke-opacity:1"/>
<path class="bond-2 atom-2 atom-3" d="M 649.2,1008.8 L 642.8,975.0" style="fill:none;fill-rule:evenodd;stroke:#000000;stroke-width:2.0px;stroke-linecap:butt;stroke-linejoin:miter;stroke-opacity:1"/>
<path class="bond-2 atom-2 atom-3" d="M 642.8,975.0 L 636.3,941.1" style="fill:none;fill-rule:evenodd;stroke:#FF0000;stroke-width:2.0px;stroke-linecap:butt;stroke-linejoin:miter;stroke-opacity:1"/>
<path class="bond-2 atom-2 atom-3" d="M 637.4,1011.0 L 631.0,977.2" style="fill:none;fill-rule:evenodd;stroke:#000000;stroke-width:2.0px;stroke-linecap:butt;stroke-linejoin:miter;stroke-opacity:1"/>
<path class="bond-2 atom-2 atom-3" d="M 631.0,977.2 L 624.5,943.4" style="fill:none;fill-rule:evenodd;stroke:#FF0000;stroke-width:2.0px;stroke-linecap:butt;stroke-linejoin:miter;stroke-opacity:1"/>
<path class="bond-3 atom-2 atom-4" d="M 642.7,1006.5 L 582.0,1058.9" style="fill:none;fill-rule:evenodd;stroke:#000000;stroke-width:2.0px;stroke-linecap:butt;stroke-linejoin:miter;stroke-opacity:1"/>
<path class="bond-4 atom-4 atom-5" d="M 582.0,1058.9 L 506.3,1032.5" style="fill:none;fill-rule:evenodd;stroke:#000000;stroke-width:2.0px;stroke-linecap:butt;stroke-linejoin:miter;stroke-opacity:1"/>
<path class="bond-5 atom-5 atom-6" d="M 506.3,1032.5 L 480.0,1055.2" style="fill:none;fill-rule:evenodd;stroke:#000000;stroke-width:2.0px;stroke-linecap:butt;stroke-linejoin:miter;stroke-opacity:1"/>
<path class="bond-5 atom-5 atom-6" d="M 480.0,1055.2 L 453.7,1077.9" style="fill:none;fill-rule:evenodd;stroke:#191919;stroke-width:2.0px;stroke-linecap:butt;stroke-linejoin:miter;stroke-opacity:1"/>
<path class="bond-6 atom-5 atom-7" d="M 506.3,1032.5 L 491.3,953.8" style="fill:none;fill-rule:evenodd;stroke:#000000;stroke-width:2.0px;stroke-linecap:butt;stroke-linejoin:miter;stroke-opacity:1"/>
<path class="bond-7 atom-7 atom-8" d="M 491.3,953.8 L 415.6,927.4" style="fill:none;fill-rule:evenodd;stroke:#000000;stroke-width:2.0px;stroke-linecap:butt;stroke-linejoin:miter;stroke-opacity:1"/>
<path d="M 644.2,1007.1 L 642.7,1006.5 L 639.6,1009.1" style="fill:none;stroke:#000000;stroke-width:2.0px;stroke-linecap:butt;stroke-linejoin:miter;stroke-opacity:1;"/>
<path d="M 585.0,1056.2 L 582.0,1058.9 L 578.2,1057.5" style="fill:none;stroke:#000000;stroke-width:2.0px;stroke-linecap:butt;stroke-linejoin:miter;stroke-opacity:1;"/>
<path d="M 492.1,957.7 L 491.3,953.8 L 487.5,952.5" style="fill:none;stroke:#000000;stroke-width:2.0px;stroke-linecap:butt;stroke-linejoin:miter;stroke-opacity:1;"/>
<path class="atom-0" d="M 774.7 978.0 L 778.0 974.6 L 773.6 973.7 L 774.3 971.4 L 778.4 973.5 L 777.8 969.0 L 780.2 969.0 L 779.5 973.4 L 783.7 971.5 L 784.4 973.7 L 779.9 974.5 L 783.1 978.0 L 781.1 979.4 L 778.9 975.1 L 776.7 979.4 L 774.7 978.0 " fill="#191919"/>
<path class="atom-1" d="M 707.9 1032.9 Q 707.9 1027.5, 710.6 1024.4 Q 713.3 1021.4, 718.3 1021.4 Q 723.4 1021.4, 726.0 1024.4 Q 728.7 1027.5, 728.7 1032.9 Q 728.7 1038.5, 726.0 1041.6 Q 723.3 1044.7, 718.3 1044.7 Q 713.3 1044.7, 710.6 1041.6 Q 707.9 1038.5, 707.9 1032.9 M 718.3 1042.1 Q 721.8 1042.1, 723.6 1039.8 Q 725.5 1037.5, 725.5 1032.9 Q 725.5 1028.5, 723.6 1026.2 Q 721.8 1024.0, 718.3 1024.0 Q 714.9 1024.0, 713.0 1026.2 Q 711.1 1028.4, 711.1 1032.9 Q 711.1 1037.5, 713.0 1039.8 Q 714.9 1042.1, 718.3 1042.1 " fill="#FF0000"/>
<path class="atom-3" d="M 617.2 927.9 Q 617.2 922.4, 619.9 919.4 Q 622.6 916.3, 627.7 916.3 Q 632.7 916.3, 635.4 919.4 Q 638.1 922.4, 638.1 927.9 Q 638.1 933.4, 635.3 936.5 Q 632.6 939.6, 627.7 939.6 Q 622.6 939.6, 619.9 936.5 Q 617.2 933.4, 617.2 927.9 M 627.7 937.1 Q 631.1 937.1, 633.0 934.7 Q 634.9 932.4, 634.9 927.9 Q 634.9 923.4, 633.0 921.2 Q 631.1 918.9, 627.7 918.9 Q 624.2 918.9, 622.3 921.1 Q 620.4 923.4, 620.4 927.9 Q 620.4 932.4, 622.3 934.7 Q 624.2 937.1, 627.7 937.1 " fill="#FF0000"/>
<path class="atom-6" d="M 441.4 1082.3 L 444.7 1078.9 L 440.3 1078.0 L 440.9 1075.7 L 445.0 1077.8 L 444.4 1073.3 L 446.8 1073.3 L 446.2 1077.8 L 450.3 1075.8 L 451.0 1078.0 L 446.5 1078.8 L 449.7 1082.3 L 447.8 1083.7 L 445.6 1079.5 L 443.3 1083.7 L 441.4 1082.3 " fill="#191919"/>
<path class="bond-0 atom-0 atom-1" d="M 770.7,1420.0 L 744.1,1435.8" style="fill:none;fill-rule:evenodd;stroke:#191919;stroke-width:2.0px;stroke-linecap:butt;stroke-linejoin:miter;stroke-opacity:1"/>
<path class="bond-0 atom-0 atom-1" d="M 744.1,1435.8 L 717.4,1451.7" style="fill:none;fill-rule:evenodd;stroke:#FF0000;stroke-width:2.0px;stroke-linecap:butt;stroke-linejoin:miter;stroke-opacity:1"/>
<path class="bond-1 atom-1 atom-2" d="M 691.3,1452.1 L 662.9,1436.2" style="fill:none;fill-rule:evenodd;stroke:#FF0000;stroke-width:2.0px;stroke-linecap:butt;stroke-linejoin:miter;stroke-opacity:1"/>
<path class="bond-1 atom-1 atom-2" d="M 662.9,1436.2 L 634.4,1420.3" style="fill:none;fill-rule:evenodd;stroke:#000000;stroke-width:2.0px;stroke-linecap:butt;stroke-linejoin:miter;stroke-opacity:1"/>
<path class="bond-2 atom-2 atom-3" d="M 640.5,1423.7 L 640.0,1389.1" style="fill:none;fill-rule:evenodd;stroke:#000000;stroke-width:2.0px;stroke-linecap:butt;stroke-linejoin:miter;stroke-opacity:1"/>
<path class="bond-2 atom-2 atom-3" d="M 640.0,1389.1 L 639.6,1354.6" style="fill:none;fill-rule:evenodd;stroke:#FF0000;stroke-width:2.0px;stroke-linecap:butt;stroke-linejoin:miter;stroke-opacity:1"/>
<path class="bond-2 atom-2 atom-3" d="M 628.5,1423.9 L 628.0,1389.3" style="fill:none;fill-rule:evenodd;stroke:#000000;stroke-width:2.0px;stroke-linecap:butt;stroke-linejoin:miter;stroke-opacity:1"/>
<path class="bond-2 atom-2 atom-3" d="M 628.0,1389.3 L 627.5,1354.7" style="fill:none;fill-rule:evenodd;stroke:#FF0000;stroke-width:2.0px;stroke-linecap:butt;stroke-linejoin:miter;stroke-opacity:1"/>
<path class="bond-3 atom-2 atom-4" d="M 634.4,1420.3 L 565.6,1461.3" style="fill:none;fill-rule:evenodd;stroke:#000000;stroke-width:2.0px;stroke-linecap:butt;stroke-linejoin:miter;stroke-opacity:1"/>
<path class="bond-4 atom-4 atom-5" d="M 565.6,1461.3 L 495.6,1422.2" style="fill:none;fill-rule:evenodd;stroke:#000000;stroke-width:2.0px;stroke-linecap:butt;stroke-linejoin:miter;stroke-opacity:1"/>
<path class="bond-5 atom-5 atom-6" d="M 495.6,1422.2 L 465.2,1440.3" style="fill:none;fill-rule:evenodd;stroke:#000000;stroke-width:2.0px;stroke-linecap:butt;stroke-linejoin:miter;stroke-opacity:1"/>
<path class="bond-5 atom-5 atom-6" d="M 465.2,1440.3 L 434.8,1458.4" style="fill:none;fill-rule:evenodd;stroke:#191919;stroke-width:2.0px;stroke-linecap:butt;stroke-linejoin:miter;stroke-opacity:1"/>
<path class="bond-6 atom-5 atom-7" d="M 495.6,1422.2 L 494.6,1342.0" style="fill:none;fill-rule:evenodd;stroke:#000000;stroke-width:2.0px;stroke-linecap:butt;stroke-linejoin:miter;stroke-opacity:1"/>
<path d="M 635.8,1421.1 L 634.4,1420.3 L 631.0,1422.4" style="fill:none;stroke:#000000;stroke-width:2.0px;stroke-linecap:butt;stroke-linejoin:miter;stroke-opacity:1;"/>
<path d="M 569.0,1459.3 L 565.6,1461.3 L 562.1,1459.3" style="fill:none;stroke:#000000;stroke-width:2.0px;stroke-linecap:butt;stroke-linejoin:miter;stroke-opacity:1;"/>
<path class="atom-0" d="M 768.9 1415.9 L 772.3 1412.5 L 767.8 1411.6 L 768.5 1409.4 L 772.6 1411.4 L 772.0 1407.0 L 774.4 1406.9 L 773.7 1411.4 L 777.9 1409.5 L 778.6 1411.6 L 774.1 1412.5 L 777.3 1415.9 L 775.3 1417.3 L 773.1 1413.1 L 770.9 1417.3 L 768.9 1415.9 " fill="#191919"/>
<path class="atom-1" d="M 693.9 1459.5 Q 693.9 1454.1, 696.6 1451.0 Q 699.3 1448.0, 704.4 1448.0 Q 709.4 1448.0, 712.1 1451.0 Q 714.8 1454.1, 714.8 1459.5 Q 714.8 1465.0, 712.0 1468.2 Q 709.3 1471.3, 704.4 1471.3 Q 699.4 1471.3, 696.6 1468.2 Q 693.9 1465.1, 693.9 1459.5 M 704.4 1468.7 Q 707.8 1468.7, 709.7 1466.4 Q 711.6 1464.1, 711.6 1459.5 Q 711.6 1455.1, 709.7 1452.8 Q 707.8 1450.5, 704.4 1450.5 Q 700.9 1450.5, 699.0 1452.8 Q 697.1 1455.0, 697.1 1459.5 Q 697.1 1464.1, 699.0 1466.4 Q 700.9 1468.7, 704.4 1468.7 " fill="#FF0000"/>
<path class="atom-3" d="M 622.9 1340.3 Q 622.9 1334.8, 625.6 1331.8 Q 628.3 1328.7, 633.4 1328.7 Q 638.4 1328.7, 641.1 1331.8 Q 643.8 1334.8, 643.8 1340.3 Q 643.8 1345.8, 641.1 1348.9 Q 638.3 1352.0, 633.4 1352.0 Q 628.4 1352.0, 625.6 1348.9 Q 622.9 1345.8, 622.9 1340.3 M 633.4 1349.5 Q 636.8 1349.5, 638.7 1347.1 Q 640.6 1344.8, 640.6 1340.3 Q 640.6 1335.8, 638.7 1333.6 Q 636.8 1331.3, 633.4 1331.3 Q 629.9 1331.3, 628.0 1333.5 Q 626.1 1335.8, 626.1 1340.3 Q 626.1 1344.8, 628.0 1347.1 Q 629.9 1349.5, 633.4 1349.5 " fill="#FF0000"/>
<path class="atom-6" d="M 422.5 1460.6 L 425.8 1457.2 L 421.4 1456.3 L 422.1 1454.0 L 426.2 1456.1 L 425.6 1451.6 L 428.0 1451.6 L 427.3 1456.1 L 431.5 1454.1 L 432.2 1456.3 L 427.7 1457.2 L 430.9 1460.6 L 428.9 1462.0 L 426.7 1457.8 L 424.5 1462.0 L 422.5 1460.6 " fill="#191919"/>
</svg>