<svg xmlns="http://www.w3.org/2000/svg" xmlns:rdkit="http://www.rdkit.org/xml" xmlns:xlink="http://www.w3.org/1999/xlink" version="1.1" baseProfile="full" xml:space="preserve" width="1200px" height="1200px" viewBox="0 0 1200 1200">
<!-- END OF HEADER -->
<rect style="opacity:1.0;fill:#FFFFFF;stroke:none" width="1200.0" height="1200.0" x="0.0" y="0.0"> </rect>
<path class="bond-0 atom-0 atom-1" d="M 1134.9,114.9 L 1134.3,151.8" style="fill:none;fill-rule:evenodd;stroke:#191919;stroke-width:2.0px;stroke-linecap:butt;stroke-linejoin:miter;stroke-opacity:1"/>
<path class="bond-0 atom-0 atom-1" d="M 1134.3,151.8 L 1133.6,188.7" style="fill:none;fill-rule:evenodd;stroke:#000000;stroke-width:2.0px;stroke-linecap:butt;stroke-linejoin:miter;stroke-opacity:1"/>
<path class="bond-1 atom-1 atom-2" d="M 1133.6,188.7 L 1067.7,225.2" style="fill:none;fill-rule:evenodd;stroke:#000000;stroke-width:2.0px;stroke-linecap:butt;stroke-linejoin:miter;stroke-opacity:1"/>
<path class="bond-2 atom-2 atom-3" d="M 1062.2,221.8 L 1060.7,300.3" style="fill:none;fill-rule:evenodd;stroke:#000000;stroke-width:2.0px;stroke-linecap:butt;stroke-linejoin:miter;stroke-opacity:1"/>
<path class="bond-2 atom-2 atom-3" d="M 1073.4,222.0 L 1072.0,300.5" style="fill:none;fill-rule:evenodd;stroke:#000000;stroke-width:2.0px;stroke-linecap:butt;stroke-linejoin:miter;stroke-opacity:1"/>
<path class="bond-3 atom-2 atom-4" d="M 1067.7,225.2 L 1003.2,186.3" style="fill:none;fill-rule:evenodd;stroke:#000000;stroke-width:2.0px;stroke-linecap:butt;stroke-linejoin:miter;stroke-opacity:1"/>
<path class="bond-4 atom-4 atom-5" d="M 1008.8,189.7 L 1009.4,157.2" style="fill:none;fill-rule:evenodd;stroke:#000000;stroke-width:2.0px;stroke-linecap:butt;stroke-linejoin:miter;stroke-opacity:1"/>
<path class="bond-4 atom-4 atom-5" d="M 1009.4,157.2 L 1010.0,124.8" style="fill:none;fill-rule:evenodd;stroke:#FF0000;stroke-width:2.0px;stroke-linecap:butt;stroke-linejoin:miter;stroke-opacity:1"/>
<path class="bond-4 atom-4 atom-5" d="M 997.5,189.5 L 998.1,157.0" style="fill:none;fill-rule:evenodd;stroke:#000000;stroke-width:2.0px;stroke-linecap:butt;stroke-linejoin:miter;stroke-opacity:1"/>
<path class="bond-4 atom-4 atom-5" d="M 998.1,157.0 L 998.7,124.6" style="fill:none;fill-rule:evenodd;stroke:#FF0000;stroke-width:2.0px;stroke-linecap:butt;stroke-linejoin:miter;stroke-opacity:1"/>
<path class="bond-5 atom-4 atom-6" d="M 1003.2,186.3 L 975.6,201.6" style="fill:none;fill-rule:evenodd;stroke:#000000;stroke-width:2.0px;stroke-linecap:butt;stroke-linejoin:miter;stroke-opacity:1"/>
<path class="bond-5 atom-4 atom-6" d="M 975.6,201.6 L 948.0,216.9" style="fill:none;fill-rule:evenodd;stroke:#0000FF;stroke-width:2.0px;stroke-linecap:butt;stroke-linejoin:miter;stroke-opacity:1"/>
<path class="bond-6 atom-6 atom-7" d="M 926.8,216.4 L 899.9,200.2" style="fill:none;fill-rule:evenodd;stroke:#0000FF;stroke-width:2.0px;stroke-linecap:butt;stroke-linejoin:miter;stroke-opacity:1"/>
<path class="bond-6 atom-6 atom-7" d="M 899.9,200.2 L 872.9,184.0" style="fill:none;fill-rule:evenodd;stroke:#000000;stroke-width:2.0px;stroke-linecap:butt;stroke-linejoin:miter;stroke-opacity:1"/>
<path class="bond-7 atom-7 atom-8" d="M 872.9,184.0 L 807.0,220.4" style="fill:none;fill-rule:evenodd;stroke:#000000;stroke-width:2.0px;stroke-linecap:butt;stroke-linejoin:miter;stroke-opacity:1"/>
<path class="bond-8 atom-8 atom-9" d="M 801.5,217.1 L 800.9,249.7" style="fill:none;fill-rule:evenodd;stroke:#000000;stroke-width:2.0px;stroke-linecap:butt;stroke-linejoin:miter;stroke-opacity:1"/>
<path class="bond-8 atom-8 atom-9" d="M 800.9,249.7 L 800.3,282.3" style="fill:none;fill-rule:evenodd;stroke:#FF0000;stroke-width:2.0px;stroke-linecap:butt;stroke-linejoin:miter;stroke-opacity:1"/>
<path class="bond-8 atom-8 atom-9" d="M 812.8,217.3 L 812.2,249.9" style="fill:none;fill-rule:evenodd;stroke:#000000;stroke-width:2.0px;stroke-linecap:butt;stroke-linejoin:miter;stroke-opacity:1"/>
<path class="bond-8 atom-8 atom-9" d="M 812.2,249.9 L 811.6,282.5" style="fill:none;fill-rule:evenodd;stroke:#FF0000;stroke-width:2.0px;stroke-linecap:butt;stroke-linejoin:miter;stroke-opacity:1"/>
<path class="bond-9 atom-8 atom-10" d="M 807.0,220.4 L 780.1,204.2" style="fill:none;fill-rule:evenodd;stroke:#000000;stroke-width:2.0px;stroke-linecap:butt;stroke-linejoin:miter;stroke-opacity:1"/>
<path class="bond-9 atom-8 atom-10" d="M 780.1,204.2 L 753.1,188.0" style="fill:none;fill-rule:evenodd;stroke:#0000FF;stroke-width:2.0px;stroke-linecap:butt;stroke-linejoin:miter;stroke-opacity:1"/>
<path class="bond-10 atom-10 atom-11" d="M 732.0,187.5 L 704.3,202.8" style="fill:none;fill-rule:evenodd;stroke:#0000FF;stroke-width:2.0px;stroke-linecap:butt;stroke-linejoin:miter;stroke-opacity:1"/>
<path class="bond-10 atom-10 atom-11" d="M 704.3,202.8 L 676.7,218.1" style="fill:none;fill-rule:evenodd;stroke:#000000;stroke-width:2.0px;stroke-linecap:butt;stroke-linejoin:miter;stroke-opacity:1"/>
<path class="bond-11 atom-11 atom-12" d="M 676.7,218.1 L 612.2,179.2" style="fill:none;fill-rule:evenodd;stroke:#000000;stroke-width:2.0px;stroke-linecap:butt;stroke-linejoin:miter;stroke-opacity:1"/>
<path class="bond-12 atom-12 atom-13" d="M 617.8,182.6 L 618.4,150.1" style="fill:none;fill-rule:evenodd;stroke:#000000;stroke-width:2.0px;stroke-linecap:butt;stroke-linejoin:miter;stroke-opacity:1"/>
<path class="bond-12 atom-12 atom-13" d="M 618.4,150.1 L 619.0,117.7" style="fill:none;fill-rule:evenodd;stroke:#FF0000;stroke-width:2.0px;stroke-linecap:butt;stroke-linejoin:miter;stroke-opacity:1"/>
<path class="bond-12 atom-12 atom-13" d="M 606.5,182.4 L 607.1,149.9" style="fill:none;fill-rule:evenodd;stroke:#000000;stroke-width:2.0px;stroke-linecap:butt;stroke-linejoin:miter;stroke-opacity:1"/>
<path class="bond-12 atom-12 atom-13" d="M 607.1,149.9 L 607.7,117.5" style="fill:none;fill-rule:evenodd;stroke:#FF0000;stroke-width:2.0px;stroke-linecap:butt;stroke-linejoin:miter;stroke-opacity:1"/>
<path class="bond-13 atom-12 atom-14" d="M 612.2,179.2 L 584.6,194.5" style="fill:none;fill-rule:evenodd;stroke:#000000;stroke-width:2.0px;stroke-linecap:butt;stroke-linejoin:miter;stroke-opacity:1"/>
<path class="bond-13 atom-12 atom-14" d="M 584.6,194.5 L 556.9,209.8" style="fill:none;fill-rule:evenodd;stroke:#0000FF;stroke-width:2.0px;stroke-linecap:butt;stroke-linejoin:miter;stroke-opacity:1"/>
<path class="bond-14 atom-14 atom-15" d="M 535.8,209.3 L 508.8,193.1" style="fill:none;fill-rule:evenodd;stroke:#0000FF;stroke-width:2.0px;stroke-linecap:butt;stroke-linejoin:miter;stroke-opacity:1"/>
<path class="bond-14 atom-14 atom-15" d="M 508.8,193.1 L 481.9,176.9" style="fill:none;fill-rule:evenodd;stroke:#000000;stroke-width:2.0px;stroke-linecap:butt;stroke-linejoin:miter;stroke-opacity:1"/>
<path class="bond-15 atom-15 atom-16" d="M 481.9,176.9 L 416.0,213.3" style="fill:none;fill-rule:evenodd;stroke:#000000;stroke-width:2.0px;stroke-linecap:butt;stroke-linejoin:miter;stroke-opacity:1"/>
<path class="bond-16 atom-16 atom-17" d="M 410.4,210.0 L 409.8,242.6" style="fill:none;fill-rule:evenodd;stroke:#000000;stroke-width:2.0px;stroke-linecap:butt;stroke-linejoin:miter;stroke-opacity:1"/>
<path class="bond-16 atom-16 atom-17" d="M 409.8,242.6 L 409.2,275.2" style="fill:none;fill-rule:evenodd;stroke:#FF0000;stroke-width:2.0px;stroke-linecap:butt;stroke-linejoin:miter;stroke-opacity:1"/>
<path class="bond-16 atom-16 atom-17" d="M 421.7,210.2 L 421.1,242.8" style="fill:none;fill-rule:evenodd;stroke:#000000;stroke-width:2.0px;stroke-linecap:butt;stroke-linejoin:miter;stroke-opacity:1"/>
<path class="bond-16 atom-16 atom-17" d="M 421.1,242.8 L 420.5,275.4" style="fill:none;fill-rule:evenodd;stroke:#FF0000;stroke-width:2.0px;stroke-linecap:butt;stroke-linejoin:miter;stroke-opacity:1"/>
<path class="bond-17 atom-16 atom-18" d="M 416.0,213.3 L 389.1,197.1" style="fill:none;fill-rule:evenodd;stroke:#000000;stroke-width:2.0px;stroke-linecap:butt;stroke-linejoin:miter;stroke-opacity:1"/>
<path class="bond-17 atom-16 atom-18" d="M 389.1,197.1 L 362.1,180.9" style="fill:none;fill-rule:evenodd;stroke:#0000FF;stroke-width:2.0px;stroke-linecap:butt;stroke-linejoin:miter;stroke-opacity:1"/>
<path class="bond-18 atom-18 atom-19" d="M 341.0,180.4 L 313.3,195.7" style="fill:none;fill-rule:evenodd;stroke:#0000FF;stroke-width:2.0px;stroke-linecap:butt;stroke-linejoin:miter;stroke-opacity:1"/>
<path class="bond-18 atom-18 atom-19" d="M 313.3,195.7 L 285.7,211.0" style="fill:none;fill-rule:evenodd;stroke:#000000;stroke-width:2.0px;stroke-linecap:butt;stroke-linejoin:miter;stroke-opacity:1"/>
<path class="bond-19 atom-19 atom-20" d="M 285.7,211.0 L 221.2,172.1" style="fill:none;fill-rule:evenodd;stroke:#000000;stroke-width:2.0px;stroke-linecap:butt;stroke-linejoin:miter;stroke-opacity:1"/>
<path class="bond-20 atom-20 atom-21" d="M 221.2,172.1 L 155.3,208.6" style="fill:none;fill-rule:evenodd;stroke:#000000;stroke-width:2.0px;stroke-linecap:butt;stroke-linejoin:miter;stroke-opacity:1"/>
<path class="bond-21 atom-21 atom-22" d="M 155.3,208.6 L 129.2,192.9" style="fill:none;fill-rule:evenodd;stroke:#000000;stroke-width:2.0px;stroke-linecap:butt;stroke-linejoin:miter;stroke-opacity:1"/>
<path class="bond-21 atom-21 atom-22" d="M 129.2,192.9 L 103.1,177.2" style="fill:none;fill-rule:evenodd;stroke:#FF0000;stroke-width:2.0px;stroke-linecap:butt;stroke-linejoin:miter;stroke-opacity:1"/>
<path d="M 1133.6,186.9 L 1133.6,188.7 L 1130.3,190.5" style="fill:none;stroke:#000000;stroke-width:2.0px;stroke-linecap:butt;stroke-linejoin:miter;stroke-opacity:1;"/>
<path d="M 1071.0,223.3 L 1067.7,225.2 L 1064.5,223.2" style="fill:none;stroke:#000000;stroke-width:2.0px;stroke-linecap:butt;stroke-linejoin:miter;stroke-opacity:1;"/>
<path d="M 1006.5,188.3 L 1003.2,186.3 L 1001.9,187.1" style="fill:none;stroke:#000000;stroke-width:2.0px;stroke-linecap:butt;stroke-linejoin:miter;stroke-opacity:1;"/>
<path d="M 874.3,184.8 L 872.9,184.0 L 869.6,185.8" style="fill:none;stroke:#000000;stroke-width:2.0px;stroke-linecap:butt;stroke-linejoin:miter;stroke-opacity:1;"/>
<path d="M 810.3,218.6 L 807.0,220.4 L 805.7,219.6" style="fill:none;stroke:#000000;stroke-width:2.0px;stroke-linecap:butt;stroke-linejoin:miter;stroke-opacity:1;"/>
<path d="M 678.1,217.3 L 676.7,218.1 L 673.5,216.1" style="fill:none;stroke:#000000;stroke-width:2.0px;stroke-linecap:butt;stroke-linejoin:miter;stroke-opacity:1;"/>
<path d="M 615.4,181.2 L 612.2,179.2 L 610.8,180.0" style="fill:none;stroke:#000000;stroke-width:2.0px;stroke-linecap:butt;stroke-linejoin:miter;stroke-opacity:1;"/>
<path d="M 483.2,177.7 L 481.9,176.9 L 478.6,178.7" style="fill:none;stroke:#000000;stroke-width:2.0px;stroke-linecap:butt;stroke-linejoin:miter;stroke-opacity:1;"/>
<path d="M 419.3,211.5 L 416.0,213.3 L 414.7,212.5" style="fill:none;stroke:#000000;stroke-width:2.0px;stroke-linecap:butt;stroke-linejoin:miter;stroke-opacity:1;"/>
<path d="M 287.1,210.2 L 285.7,211.0 L 282.4,209.0" style="fill:none;stroke:#000000;stroke-width:2.0px;stroke-linecap:butt;stroke-linejoin:miter;stroke-opacity:1;"/>
<path d="M 224.4,174.1 L 221.2,172.1 L 217.9,174.0" style="fill:none;stroke:#000000;stroke-width:2.0px;stroke-linecap:butt;stroke-linejoin:miter;stroke-opacity:1;"/>
<path d="M 158.6,206.8 L 155.3,208.6 L 154.0,207.8" style="fill:none;stroke:#000000;stroke-width:2.0px;stroke-linecap:butt;stroke-linejoin:miter;stroke-opacity:1;"/>
<path class="atom-0" d="M 1130.9 111.1 L 1134.1 107.9 L 1129.9 107.0 L 1130.5 104.9 L 1134.4 106.8 L 1133.8 102.6 L 1136.1 102.6 L 1135.5 106.8 L 1139.3 105.0 L 1140.0 107.0 L 1135.8 107.8 L 1138.8 111.0 L 1137.0 112.4 L 1134.9 108.4 L 1132.8 112.4 L 1130.9 111.1 " fill="#191919"/>
<path class="atom-5" d="M 994.8 111.2 Q 994.8 106.0, 997.4 103.2 Q 999.9 100.3, 1004.6 100.3 Q 1009.3 100.3, 1011.9 103.2 Q 1014.4 106.0, 1014.4 111.2 Q 1014.4 116.3, 1011.8 119.3 Q 1009.3 122.2, 1004.6 122.2 Q 999.9 122.2, 997.4 119.3 Q 994.8 116.4, 994.8 111.2 M 1004.6 119.8 Q 1007.9 119.8, 1009.6 117.6 Q 1011.4 115.4, 1011.4 111.2 Q 1011.4 107.0, 1009.6 104.9 Q 1007.9 102.7, 1004.6 102.7 Q 1001.4 102.7, 999.6 104.8 Q 997.8 106.9, 997.8 111.2 Q 997.8 115.5, 999.6 117.6 Q 1001.4 119.8, 1004.6 119.8 " fill="#FF0000"/>
<path class="atom-6" d="M 932.7 212.1 L 939.7 223.4 Q 940.4 224.5, 941.5 226.6 Q 942.6 228.6, 942.6 228.7 L 942.6 212.1 L 945.5 212.1 L 945.5 233.4 L 942.6 233.4 L 935.1 221.1 Q 934.2 219.7, 933.3 218.0 Q 932.3 216.3, 932.1 215.8 L 932.1 233.4 L 929.3 233.4 L 929.3 212.1 L 932.7 212.1 " fill="#0000FF"/>
<path class="atom-6" d="M 929.1 235.6 L 931.9 235.6 L 931.9 244.6 L 942.8 244.6 L 942.8 235.6 L 945.7 235.6 L 945.7 256.9 L 942.8 256.9 L 942.8 247.0 L 931.9 247.0 L 931.9 256.9 L 929.1 256.9 L 929.1 235.6 " fill="#0000FF"/>
<path class="atom-9" d="M 795.9 295.7 Q 795.9 290.6, 798.4 287.8 Q 801.0 284.9, 805.7 284.9 Q 810.4 284.9, 812.9 287.8 Q 815.5 290.6, 815.5 295.7 Q 815.5 300.9, 812.9 303.9 Q 810.3 306.8, 805.7 306.8 Q 801.0 306.8, 798.4 303.9 Q 795.9 300.9, 795.9 295.7 M 805.7 304.4 Q 808.9 304.4, 810.7 302.2 Q 812.5 300.0, 812.5 295.7 Q 812.5 291.6, 810.7 289.4 Q 808.9 287.3, 805.7 287.3 Q 802.4 287.3, 800.7 289.4 Q 798.9 291.5, 798.9 295.7 Q 798.9 300.0, 800.7 302.2 Q 802.4 304.4, 805.7 304.4 " fill="#FF0000"/>
<path class="atom-10" d="M 737.8 171.0 L 744.8 182.2 Q 745.5 183.4, 746.6 185.4 Q 747.8 187.4, 747.8 187.5 L 747.8 171.0 L 750.6 171.0 L 750.6 192.3 L 747.7 192.3 L 740.2 179.9 Q 739.4 178.5, 738.4 176.8 Q 737.5 175.2, 737.2 174.7 L 737.2 192.3 L 734.5 192.3 L 734.5 171.0 L 737.8 171.0 " fill="#0000FF"/>
<path class="atom-10" d="M 734.2 147.5 L 737.1 147.5 L 737.1 156.6 L 748.0 156.6 L 748.0 147.5 L 750.9 147.5 L 750.9 168.8 L 748.0 168.8 L 748.0 159.0 L 737.1 159.0 L 737.1 168.8 L 734.2 168.8 L 734.2 147.5 " fill="#0000FF"/>
<path class="atom-13" d="M 603.8 104.1 Q 603.8 98.9, 606.3 96.1 Q 608.9 93.2, 613.6 93.2 Q 618.3 93.2, 620.8 96.1 Q 623.4 98.9, 623.4 104.1 Q 623.4 109.2, 620.8 112.2 Q 618.2 115.1, 613.6 115.1 Q 608.9 115.1, 606.3 112.2 Q 603.8 109.3, 603.8 104.1 M 613.6 112.7 Q 616.8 112.7, 618.6 110.5 Q 620.4 108.3, 620.4 104.1 Q 620.4 99.9, 618.6 97.8 Q 616.8 95.6, 613.6 95.6 Q 610.3 95.6, 608.6 97.7 Q 606.8 99.8, 606.8 104.1 Q 606.8 108.4, 608.6 110.5 Q 610.3 112.7, 613.6 112.7 " fill="#FF0000"/>
<path class="atom-14" d="M 541.6 205.0 L 548.6 216.3 Q 549.3 217.4, 550.4 219.5 Q 551.6 221.5, 551.6 221.6 L 551.6 205.0 L 554.4 205.0 L 554.4 226.3 L 551.5 226.3 L 544.0 214.0 Q 543.2 212.6, 542.2 210.9 Q 541.3 209.2, 541.0 208.7 L 541.0 226.3 L 538.3 226.3 L 538.3 205.0 L 541.6 205.0 " fill="#0000FF"/>
<path class="atom-14" d="M 538.0 228.5 L 540.9 228.5 L 540.9 237.5 L 551.8 237.5 L 551.8 228.5 L 554.7 228.5 L 554.7 249.8 L 551.8 249.8 L 551.8 240.0 L 540.9 240.0 L 540.9 249.8 L 538.0 249.8 L 538.0 228.5 " fill="#0000FF"/>
<path class="atom-17" d="M 404.9 288.6 Q 404.9 283.5, 407.4 280.7 Q 409.9 277.8, 414.6 277.8 Q 419.4 277.8, 421.9 280.7 Q 424.4 283.5, 424.4 288.6 Q 424.4 293.8, 421.9 296.8 Q 419.3 299.7, 414.6 299.7 Q 410.0 299.7, 407.4 296.8 Q 404.9 293.8, 404.9 288.6 M 414.6 297.3 Q 417.9 297.3, 419.6 295.1 Q 421.4 292.9, 421.4 288.6 Q 421.4 284.5, 419.6 282.3 Q 417.9 280.2, 414.6 280.2 Q 411.4 280.2, 409.6 282.3 Q 407.9 284.4, 407.9 288.6 Q 407.9 292.9, 409.6 295.1 Q 411.4 297.3, 414.6 297.3 " fill="#FF0000"/>
<path class="atom-18" d="M 346.8 163.9 L 353.8 175.1 Q 354.5 176.3, 355.6 178.3 Q 356.7 180.3, 356.8 180.4 L 356.8 163.9 L 359.6 163.9 L 359.6 185.2 L 356.7 185.2 L 349.2 172.8 Q 348.3 171.4, 347.4 169.7 Q 346.5 168.1, 346.2 167.6 L 346.2 185.2 L 343.4 185.2 L 343.4 163.9 L 346.8 163.9 " fill="#0000FF"/>
<path class="atom-18" d="M 343.2 140.4 L 346.1 140.4 L 346.1 149.5 L 357.0 149.5 L 357.0 140.4 L 359.9 140.4 L 359.9 161.7 L 357.0 161.7 L 357.0 151.9 L 346.1 151.9 L 346.1 161.7 L 343.2 161.7 L 343.2 140.4 " fill="#0000FF"/>
<path class="atom-22" d="M 60.0 159.2 L 62.9 159.2 L 62.9 168.3 L 73.8 168.3 L 73.8 159.2 L 76.7 159.2 L 76.7 180.6 L 73.8 180.6 L 73.8 170.7 L 62.9 170.7 L 62.9 180.6 L 60.0 180.6 L 60.0 159.2 " fill="#FF0000"/>
<path class="atom-22" d="M 81.1 169.8 Q 81.1 164.7, 83.6 161.9 Q 86.1 159.0, 90.8 159.0 Q 95.6 159.0, 98.1 161.9 Q 100.6 164.7, 100.6 169.8 Q 100.6 175.0, 98.1 178.0 Q 95.5 180.9, 90.8 180.9 Q 86.1 180.9, 83.6 178.0 Q 81.1 175.1, 81.1 169.8 M 90.8 178.5 Q 94.1 178.5, 95.8 176.3 Q 97.6 174.1, 97.6 169.8 Q 97.6 165.7, 95.8 163.6 Q 94.1 161.4, 90.8 161.4 Q 87.6 161.4, 85.8 163.5 Q 84.1 165.6, 84.1 169.8 Q 84.1 174.1, 85.8 176.3 Q 87.6 178.5, 90.8 178.5 " fill="#FF0000"/>
<path class="bond-0 atom-0 atom-1" d="M 88.6,613.4 L 117.4,596.8" style="fill:none;fill-rule:evenodd;stroke:#191919;stroke-width:2.0px;stroke-linecap:butt;stroke-linejoin:miter;stroke-opacity:1"/>
<path class="bond-0 atom-0 atom-1" d="M 117.4,596.8 L 146.3,580.2" style="fill:none;fill-rule:evenodd;stroke:#000000;stroke-width:2.0px;stroke-linecap:butt;stroke-linejoin:miter;stroke-opacity:1"/>
<path class="bond-1 atom-1 atom-2" d="M 146.3,580.2 L 211.4,617.9" style="fill:none;fill-rule:evenodd;stroke:#000000;stroke-width:2.0px;stroke-linecap:butt;stroke-linejoin:miter;stroke-opacity:1"/>
<path class="bond-2 atom-2 atom-3" d="M 211.4,617.9 L 276.7,580.4" style="fill:none;fill-rule:evenodd;stroke:#000000;stroke-width:2.0px;stroke-linecap:butt;stroke-linejoin:miter;stroke-opacity:1"/>
<path class="bond-3 atom-3 atom-4" d="M 276.7,580.4 L 303.9,596.2" style="fill:none;fill-rule:evenodd;stroke:#000000;stroke-width:2.0px;stroke-linecap:butt;stroke-linejoin:miter;stroke-opacity:1"/>
<path class="bond-3 atom-3 atom-4" d="M 303.9,596.2 L 331.2,612.0" style="fill:none;fill-rule:evenodd;stroke:#0000FF;stroke-width:2.0px;stroke-linecap:butt;stroke-linejoin:miter;stroke-opacity:1"/>
<path class="bond-4 atom-4 atom-5" d="M 352.4,612.0 L 379.7,596.3" style="fill:none;fill-rule:evenodd;stroke:#0000FF;stroke-width:2.0px;stroke-linecap:butt;stroke-linejoin:miter;stroke-opacity:1"/>
<path class="bond-4 atom-4 atom-5" d="M 379.7,596.3 L 407.0,580.6" style="fill:none;fill-rule:evenodd;stroke:#000000;stroke-width:2.0px;stroke-linecap:butt;stroke-linejoin:miter;stroke-opacity:1"/>
<path class="bond-5 atom-5 atom-6" d="M 412.7,583.8 L 412.7,551.4" style="fill:none;fill-rule:evenodd;stroke:#000000;stroke-width:2.0px;stroke-linecap:butt;stroke-linejoin:miter;stroke-opacity:1"/>
<path class="bond-5 atom-5 atom-6" d="M 412.7,551.4 L 412.8,518.9" style="fill:none;fill-rule:evenodd;stroke:#FF0000;stroke-width:2.0px;stroke-linecap:butt;stroke-linejoin:miter;stroke-opacity:1"/>
<path class="bond-5 atom-5 atom-6" d="M 401.4,583.8 L 401.4,551.3" style="fill:none;fill-rule:evenodd;stroke:#000000;stroke-width:2.0px;stroke-linecap:butt;stroke-linejoin:miter;stroke-opacity:1"/>
<path class="bond-5 atom-5 atom-6" d="M 401.4,551.3 L 401.5,518.9" style="fill:none;fill-rule:evenodd;stroke:#FF0000;stroke-width:2.0px;stroke-linecap:butt;stroke-linejoin:miter;stroke-opacity:1"/>
<path class="bond-6 atom-5 atom-7" d="M 407.0,580.6 L 472.2,618.3" style="fill:none;fill-rule:evenodd;stroke:#000000;stroke-width:2.0px;stroke-linecap:butt;stroke-linejoin:miter;stroke-opacity:1"/>
<path class="bond-7 atom-7 atom-8" d="M 472.2,618.3 L 499.5,602.6" style="fill:none;fill-rule:evenodd;stroke:#000000;stroke-width:2.0px;stroke-linecap:butt;stroke-linejoin:miter;stroke-opacity:1"/>
<path class="bond-7 atom-7 atom-8" d="M 499.5,602.6 L 526.8,586.8" style="fill:none;fill-rule:evenodd;stroke:#0000FF;stroke-width:2.0px;stroke-linecap:butt;stroke-linejoin:miter;stroke-opacity:1"/>
<path class="bond-8 atom-8 atom-9" d="M 548.0,586.9 L 575.2,602.7" style="fill:none;fill-rule:evenodd;stroke:#0000FF;stroke-width:2.0px;stroke-linecap:butt;stroke-linejoin:miter;stroke-opacity:1"/>
<path class="bond-8 atom-8 atom-9" d="M 575.2,602.7 L 602.5,618.5" style="fill:none;fill-rule:evenodd;stroke:#000000;stroke-width:2.0px;stroke-linecap:butt;stroke-linejoin:miter;stroke-opacity:1"/>
<path class="bond-9 atom-9 atom-10" d="M 596.9,615.2 L 596.8,647.9" style="fill:none;fill-rule:evenodd;stroke:#000000;stroke-width:2.0px;stroke-linecap:butt;stroke-linejoin:miter;stroke-opacity:1"/>
<path class="bond-9 atom-9 atom-10" d="M 596.8,647.9 L 596.8,680.5" style="fill:none;fill-rule:evenodd;stroke:#FF0000;stroke-width:2.0px;stroke-linecap:butt;stroke-linejoin:miter;stroke-opacity:1"/>
<path class="bond-9 atom-9 atom-10" d="M 608.2,615.2 L 608.1,647.9" style="fill:none;fill-rule:evenodd;stroke:#000000;stroke-width:2.0px;stroke-linecap:butt;stroke-linejoin:miter;stroke-opacity:1"/>
<path class="bond-9 atom-9 atom-10" d="M 608.1,647.9 L 608.1,680.5" style="fill:none;fill-rule:evenodd;stroke:#FF0000;stroke-width:2.0px;stroke-linecap:butt;stroke-linejoin:miter;stroke-opacity:1"/>
<path class="bond-10 atom-9 atom-11" d="M 602.5,618.5 L 667.8,581.0" style="fill:none;fill-rule:evenodd;stroke:#000000;stroke-width:2.0px;stroke-linecap:butt;stroke-linejoin:miter;stroke-opacity:1"/>
<path class="bond-11 atom-11 atom-12" d="M 667.8,581.0 L 695.0,596.8" style="fill:none;fill-rule:evenodd;stroke:#000000;stroke-width:2.0px;stroke-linecap:butt;stroke-linejoin:miter;stroke-opacity:1"/>
<path class="bond-11 atom-11 atom-12" d="M 695.0,596.8 L 722.3,612.6" style="fill:none;fill-rule:evenodd;stroke:#0000FF;stroke-width:2.0px;stroke-linecap:butt;stroke-linejoin:miter;stroke-opacity:1"/>
<path class="bond-12 atom-12 atom-13" d="M 743.5,612.6 L 770.8,596.9" style="fill:none;fill-rule:evenodd;stroke:#0000FF;stroke-width:2.0px;stroke-linecap:butt;stroke-linejoin:miter;stroke-opacity:1"/>
<path class="bond-12 atom-12 atom-13" d="M 770.8,596.9 L 798.1,581.2" style="fill:none;fill-rule:evenodd;stroke:#000000;stroke-width:2.0px;stroke-linecap:butt;stroke-linejoin:miter;stroke-opacity:1"/>
<path class="bond-13 atom-13 atom-14" d="M 803.8,584.4 L 803.8,552.0" style="fill:none;fill-rule:evenodd;stroke:#000000;stroke-width:2.0px;stroke-linecap:butt;stroke-linejoin:miter;stroke-opacity:1"/>
<path class="bond-13 atom-13 atom-14" d="M 803.8,552.0 L 803.9,519.5" style="fill:none;fill-rule:evenodd;stroke:#FF0000;stroke-width:2.0px;stroke-linecap:butt;stroke-linejoin:miter;stroke-opacity:1"/>
<path class="bond-13 atom-13 atom-14" d="M 792.5,584.4 L 792.5,552.0" style="fill:none;fill-rule:evenodd;stroke:#000000;stroke-width:2.0px;stroke-linecap:butt;stroke-linejoin:miter;stroke-opacity:1"/>
<path class="bond-13 atom-13 atom-14" d="M 792.5,552.0 L 792.6,519.5" style="fill:none;fill-rule:evenodd;stroke:#FF0000;stroke-width:2.0px;stroke-linecap:butt;stroke-linejoin:miter;stroke-opacity:1"/>
<path class="bond-14 atom-13 atom-15" d="M 798.1,581.2 L 863.3,618.9" style="fill:none;fill-rule:evenodd;stroke:#000000;stroke-width:2.0px;stroke-linecap:butt;stroke-linejoin:miter;stroke-opacity:1"/>
<path class="bond-15 atom-15 atom-16" d="M 863.3,618.9 L 890.6,603.2" style="fill:none;fill-rule:evenodd;stroke:#000000;stroke-width:2.0px;stroke-linecap:butt;stroke-linejoin:miter;stroke-opacity:1"/>
<path class="bond-15 atom-15 atom-16" d="M 890.6,603.2 L 917.9,587.5" style="fill:none;fill-rule:evenodd;stroke:#0000FF;stroke-width:2.0px;stroke-linecap:butt;stroke-linejoin:miter;stroke-opacity:1"/>
<path class="bond-16 atom-16 atom-17" d="M 939.1,587.5 L 966.3,603.3" style="fill:none;fill-rule:evenodd;stroke:#0000FF;stroke-width:2.0px;stroke-linecap:butt;stroke-linejoin:miter;stroke-opacity:1"/>
<path class="bond-16 atom-16 atom-17" d="M 966.3,603.3 L 993.6,619.1" style="fill:none;fill-rule:evenodd;stroke:#000000;stroke-width:2.0px;stroke-linecap:butt;stroke-linejoin:miter;stroke-opacity:1"/>
<path class="bond-17 atom-17 atom-18" d="M 988.0,615.8 L 987.9,648.5" style="fill:none;fill-rule:evenodd;stroke:#000000;stroke-width:2.0px;stroke-linecap:butt;stroke-linejoin:miter;stroke-opacity:1"/>
<path class="bond-17 atom-17 atom-18" d="M 987.9,648.5 L 987.9,681.1" style="fill:none;fill-rule:evenodd;stroke:#FF0000;stroke-width:2.0px;stroke-linecap:butt;stroke-linejoin:miter;stroke-opacity:1"/>
<path class="bond-17 atom-17 atom-18" d="M 999.3,615.9 L 999.2,648.5" style="fill:none;fill-rule:evenodd;stroke:#000000;stroke-width:2.0px;stroke-linecap:butt;stroke-linejoin:miter;stroke-opacity:1"/>
<path class="bond-17 atom-17 atom-18" d="M 999.2,648.5 L 999.2,681.1" style="fill:none;fill-rule:evenodd;stroke:#FF0000;stroke-width:2.0px;stroke-linecap:butt;stroke-linejoin:miter;stroke-opacity:1"/>
<path class="bond-18 atom-17 atom-19" d="M 993.6,619.1 L 1058.9,581.6" style="fill:none;fill-rule:evenodd;stroke:#000000;stroke-width:2.0px;stroke-linecap:butt;stroke-linejoin:miter;stroke-opacity:1"/>
<path class="bond-19 atom-19 atom-20" d="M 1064.5,584.8 L 1064.6,506.3" style="fill:none;fill-rule:evenodd;stroke:#000000;stroke-width:2.0px;stroke-linecap:butt;stroke-linejoin:miter;stroke-opacity:1"/>
<path class="bond-19 atom-19 atom-20" d="M 1053.2,584.8 L 1053.3,506.3" style="fill:none;fill-rule:evenodd;stroke:#000000;stroke-width:2.0px;stroke-linecap:butt;stroke-linejoin:miter;stroke-opacity:1"/>
<path class="bond-20 atom-19 atom-21" d="M 1058.9,581.6 L 1124.0,619.3" style="fill:none;fill-rule:evenodd;stroke:#000000;stroke-width:2.0px;stroke-linecap:butt;stroke-linejoin:miter;stroke-opacity:1"/>
<path d="M 144.9,581.0 L 146.3,580.2 L 149.6,582.0" style="fill:none;stroke:#000000;stroke-width:2.0px;stroke-linecap:butt;stroke-linejoin:miter;stroke-opacity:1;"/>
<path d="M 208.2,616.0 L 211.4,617.9 L 214.7,616.0" style="fill:none;stroke:#000000;stroke-width:2.0px;stroke-linecap:butt;stroke-linejoin:miter;stroke-opacity:1;"/>
<path d="M 273.4,582.2 L 276.7,580.4 L 278.0,581.2" style="fill:none;stroke:#000000;stroke-width:2.0px;stroke-linecap:butt;stroke-linejoin:miter;stroke-opacity:1;"/>
<path d="M 405.7,581.3 L 407.0,580.6 L 410.3,582.5" style="fill:none;stroke:#000000;stroke-width:2.0px;stroke-linecap:butt;stroke-linejoin:miter;stroke-opacity:1;"/>
<path d="M 468.9,616.4 L 472.2,618.3 L 473.5,617.5" style="fill:none;stroke:#000000;stroke-width:2.0px;stroke-linecap:butt;stroke-linejoin:miter;stroke-opacity:1;"/>
<path d="M 601.2,617.7 L 602.5,618.5 L 605.8,616.6" style="fill:none;stroke:#000000;stroke-width:2.0px;stroke-linecap:butt;stroke-linejoin:miter;stroke-opacity:1;"/>
<path d="M 664.5,582.8 L 667.8,581.0 L 669.1,581.8" style="fill:none;stroke:#000000;stroke-width:2.0px;stroke-linecap:butt;stroke-linejoin:miter;stroke-opacity:1;"/>
<path d="M 796.8,582.0 L 798.1,581.2 L 801.4,583.1" style="fill:none;stroke:#000000;stroke-width:2.0px;stroke-linecap:butt;stroke-linejoin:miter;stroke-opacity:1;"/>
<path d="M 860.0,617.0 L 863.3,618.9 L 864.6,618.1" style="fill:none;stroke:#000000;stroke-width:2.0px;stroke-linecap:butt;stroke-linejoin:miter;stroke-opacity:1;"/>
<path d="M 992.3,618.3 L 993.6,619.1 L 996.9,617.2" style="fill:none;stroke:#000000;stroke-width:2.0px;stroke-linecap:butt;stroke-linejoin:miter;stroke-opacity:1;"/>
<path d="M 1055.6,583.4 L 1058.9,581.6 L 1062.1,583.5" style="fill:none;stroke:#000000;stroke-width:2.0px;stroke-linecap:butt;stroke-linejoin:miter;stroke-opacity:1;"/>
<path class="atom-0" d="M 77.0 615.3 L 80.2 612.1 L 76.0 611.3 L 76.6 609.1 L 80.5 611.1 L 79.9 606.9 L 82.2 606.9 L 81.6 611.0 L 85.4 609.2 L 86.1 611.3 L 81.9 612.1 L 84.9 615.3 L 83.1 616.6 L 81.0 612.6 L 78.9 616.6 L 77.0 615.3 " fill="#191919"/>
<path class="atom-4" d="M 337.1 607.4 L 344.1 618.7 Q 344.8 619.8, 345.9 621.9 Q 347.0 623.9, 347.0 624.0 L 347.0 607.4 L 349.9 607.4 L 349.9 628.8 L 347.0 628.8 L 339.5 616.4 Q 338.6 615.0, 337.7 613.3 Q 336.7 611.7, 336.5 611.1 L 336.5 628.8 L 333.7 628.8 L 333.7 607.4 L 337.1 607.4 " fill="#0000FF"/>
<path class="atom-4" d="M 333.5 630.9 L 336.3 630.9 L 336.3 639.9 L 347.2 639.9 L 347.2 630.9 L 350.1 630.9 L 350.1 652.2 L 347.2 652.2 L 347.2 642.4 L 336.3 642.4 L 336.3 652.2 L 333.5 652.2 L 333.5 630.9 " fill="#0000FF"/>
<path class="atom-6" d="M 397.4 505.4 Q 397.4 500.2, 399.9 497.4 Q 402.4 494.5, 407.1 494.5 Q 411.9 494.5, 414.4 497.4 Q 416.9 500.2, 416.9 505.4 Q 416.9 510.5, 414.4 513.5 Q 411.8 516.4, 407.1 516.4 Q 402.5 516.4, 399.9 513.5 Q 397.4 510.6, 397.4 505.4 M 407.1 514.0 Q 410.4 514.0, 412.1 511.8 Q 413.9 509.6, 413.9 505.4 Q 413.9 501.2, 412.1 499.1 Q 410.4 496.9, 407.1 496.9 Q 403.9 496.9, 402.1 499.0 Q 400.4 501.1, 400.4 505.4 Q 400.4 509.7, 402.1 511.8 Q 403.9 514.0, 407.1 514.0 " fill="#FF0000"/>
<path class="atom-8" d="M 532.7 570.1 L 539.7 581.4 Q 540.4 582.5, 541.5 584.5 Q 542.6 586.5, 542.7 586.7 L 542.7 570.1 L 545.5 570.1 L 545.5 591.4 L 542.6 591.4 L 535.1 579.1 Q 534.2 577.6, 533.3 576.0 Q 532.4 574.3, 532.1 573.8 L 532.1 591.4 L 529.3 591.4 L 529.3 570.1 L 532.7 570.1 " fill="#0000FF"/>
<path class="atom-8" d="M 529.1 546.7 L 531.9 546.7 L 531.9 555.7 L 542.8 555.7 L 542.8 546.7 L 545.7 546.7 L 545.7 568.0 L 542.8 568.0 L 542.8 558.1 L 531.9 558.1 L 531.9 568.0 L 529.1 568.0 L 529.1 546.7 " fill="#0000FF"/>
<path class="atom-10" d="M 592.6 693.8 Q 592.6 688.7, 595.1 685.8 Q 597.7 683.0, 602.4 683.0 Q 607.1 683.0, 609.7 685.8 Q 612.2 688.7, 612.2 693.8 Q 612.2 699.0, 609.6 702.0 Q 607.1 704.9, 602.4 704.9 Q 597.7 704.9, 595.1 702.0 Q 592.6 699.0, 592.6 693.8 M 602.4 702.5 Q 605.7 702.5, 607.4 700.3 Q 609.2 698.1, 609.2 693.8 Q 609.2 689.6, 607.4 687.5 Q 605.7 685.4, 602.4 685.4 Q 599.2 685.4, 597.4 687.5 Q 595.6 689.6, 595.6 693.8 Q 595.6 698.1, 597.4 700.3 Q 599.2 702.5, 602.4 702.5 " fill="#FF0000"/>
<path class="atom-12" d="M 728.2 608.0 L 735.2 619.3 Q 735.9 620.4, 737.0 622.5 Q 738.1 624.5, 738.1 624.6 L 738.1 608.0 L 741.0 608.0 L 741.0 629.4 L 738.1 629.4 L 730.6 617.0 Q 729.7 615.6, 728.7 613.9 Q 727.8 612.3, 727.6 611.7 L 727.6 629.4 L 724.8 629.4 L 724.8 608.0 L 728.2 608.0 " fill="#0000FF"/>
<path class="atom-12" d="M 724.5 631.5 L 727.4 631.5 L 727.4 640.6 L 738.3 640.6 L 738.3 631.5 L 741.2 631.5 L 741.2 652.8 L 738.3 652.8 L 738.3 643.0 L 727.4 643.0 L 727.4 652.8 L 724.5 652.8 L 724.5 631.5 " fill="#0000FF"/>
<path class="atom-14" d="M 788.5 506.0 Q 788.5 500.8, 791.0 498.0 Q 793.5 495.1, 798.2 495.1 Q 803.0 495.1, 805.5 498.0 Q 808.0 500.8, 808.0 506.0 Q 808.0 511.1, 805.5 514.1 Q 802.9 517.0, 798.2 517.0 Q 793.5 517.0, 791.0 514.1 Q 788.5 511.2, 788.5 506.0 M 798.2 514.6 Q 801.5 514.6, 803.2 512.4 Q 805.0 510.2, 805.0 506.0 Q 805.0 501.8, 803.2 499.7 Q 801.5 497.5, 798.2 497.5 Q 795.0 497.5, 793.2 499.6 Q 791.5 501.7, 791.5 506.0 Q 791.5 510.3, 793.2 512.4 Q 795.0 514.6, 798.2 514.6 " fill="#FF0000"/>
<path class="atom-16" d="M 923.8 570.7 L 930.8 582.0 Q 931.5 583.1, 932.6 585.1 Q 933.7 587.2, 933.7 587.3 L 933.7 570.7 L 936.6 570.7 L 936.6 592.0 L 933.7 592.0 L 926.2 579.7 Q 925.3 578.2, 924.4 576.6 Q 923.5 574.9, 923.2 574.4 L 923.2 592.0 L 920.4 592.0 L 920.4 570.7 L 923.8 570.7 " fill="#0000FF"/>
<path class="atom-16" d="M 920.2 547.3 L 923.0 547.3 L 923.0 556.3 L 933.9 556.3 L 933.9 547.3 L 936.8 547.3 L 936.8 568.6 L 933.9 568.6 L 933.9 558.7 L 923.0 558.7 L 923.0 568.6 L 920.2 568.6 L 920.2 547.3 " fill="#0000FF"/>
<path class="atom-18" d="M 983.7 694.4 Q 983.7 689.3, 986.2 686.5 Q 988.8 683.6, 993.5 683.6 Q 998.2 683.6, 1000.8 686.5 Q 1003.3 689.3, 1003.3 694.4 Q 1003.3 699.6, 1000.7 702.6 Q 998.2 705.5, 993.5 705.5 Q 988.8 705.5, 986.2 702.6 Q 983.7 699.6, 983.7 694.4 M 993.5 703.1 Q 996.8 703.1, 998.5 700.9 Q 1000.3 698.7, 1000.3 694.4 Q 1000.3 690.2, 998.5 688.1 Q 996.8 686.0, 993.5 686.0 Q 990.3 686.0, 988.5 688.1 Q 986.7 690.2, 986.7 694.4 Q 986.7 698.7, 988.5 700.9 Q 990.3 703.1, 993.5 703.1 " fill="#FF0000"/>
<path class="bond-0 atom-0 atom-1" d="M 477.2,1019.9 L 506.0,1003.2" style="fill:none;fill-rule:evenodd;stroke:#191919;stroke-width:2.0px;stroke-linecap:butt;stroke-linejoin:miter;stroke-opacity:1"/>
<path class="bond-0 atom-0 atom-1" d="M 506.0,1003.2 L 534.8,986.6" style="fill:none;fill-rule:evenodd;stroke:#000000;stroke-width:2.0px;stroke-linecap:butt;stroke-linejoin:miter;stroke-opacity:1"/>
<path class="bond-1 atom-1 atom-2" d="M 534.8,986.6 L 600.0,1024.2" style="fill:none;fill-rule:evenodd;stroke:#000000;stroke-width:2.0px;stroke-linecap:butt;stroke-linejoin:miter;stroke-opacity:1"/>
<path class="bond-2 atom-2 atom-3" d="M 600.0,1024.2 L 626.5,1008.9" style="fill:none;fill-rule:evenodd;stroke:#000000;stroke-width:2.0px;stroke-linecap:butt;stroke-linejoin:miter;stroke-opacity:1"/>
<path class="bond-2 atom-2 atom-3" d="M 626.5,1008.9 L 652.9,993.7" style="fill:none;fill-rule:evenodd;stroke:#FF0000;stroke-width:2.0px;stroke-linecap:butt;stroke-linejoin:miter;stroke-opacity:1"/>
<path class="bond-3 atom-3 atom-4" d="M 677.5,993.7 L 700.1,1006.8" style="fill:none;fill-rule:evenodd;stroke:#FF0000;stroke-width:2.0px;stroke-linecap:butt;stroke-linejoin:miter;stroke-opacity:1"/>
<path class="bond-3 atom-3 atom-4" d="M 700.1,1006.8 L 722.8,1019.9" style="fill:none;fill-rule:evenodd;stroke:#191919;stroke-width:2.0px;stroke-linecap:butt;stroke-linejoin:miter;stroke-opacity:1"/>
<path d="M 533.4,987.4 L 534.8,986.6 L 538.1,988.5" style="fill:none;stroke:#000000;stroke-width:2.0px;stroke-linecap:butt;stroke-linejoin:miter;stroke-opacity:1;"/>
<path d="M 596.7,1022.3 L 600.0,1024.2 L 601.3,1023.4" style="fill:none;stroke:#000000;stroke-width:2.0px;stroke-linecap:butt;stroke-linejoin:miter;stroke-opacity:1;"/>
<path class="atom-0" d="M 465.6 1021.8 L 468.7 1018.6 L 464.6 1017.8 L 465.2 1015.7 L 469.0 1017.6 L 468.5 1013.4 L 470.8 1013.4 L 470.1 1017.6 L 474.0 1015.7 L 474.7 1017.8 L 470.5 1018.6 L 473.5 1021.8 L 471.6 1023.1 L 469.6 1019.1 L 467.5 1023.1 L 465.6 1021.8 " fill="#191919"/>
<path class="atom-3" d="M 655.4 986.6 Q 655.4 981.5, 657.9 978.7 Q 660.5 975.8, 665.2 975.8 Q 669.9 975.8, 672.4 978.7 Q 675.0 981.5, 675.0 986.6 Q 675.0 991.8, 672.4 994.8 Q 669.8 997.7, 665.2 997.7 Q 660.5 997.7, 657.9 994.8 Q 655.4 991.8, 655.4 986.6 M 665.2 995.3 Q 668.4 995.3, 670.2 993.1 Q 672.0 990.9, 672.0 986.6 Q 672.0 982.4, 670.2 980.3 Q 668.4 978.2, 665.2 978.2 Q 661.9 978.2, 660.2 980.3 Q 658.4 982.4, 658.4 986.6 Q 658.4 990.9, 660.2 993.1 Q 661.9 995.3, 665.2 995.3 " fill="#FF0000"/>
<path class="atom-4" d="M 726.3 1021.8 L 729.5 1018.6 L 725.3 1017.8 L 726.0 1015.7 L 729.8 1017.6 L 729.2 1013.4 L 731.5 1013.4 L 730.9 1017.6 L 734.7 1015.7 L 735.4 1017.8 L 731.2 1018.6 L 734.2 1021.8 L 732.4 1023.1 L 730.3 1019.1 L 728.2 1023.1 L 726.3 1021.8 " fill="#191919"/>
</svg>