<svg xmlns="http://www.w3.org/2000/svg" xmlns:rdkit="http://www.rdkit.org/xml" xmlns:xlink="http://www.w3.org/1999/xlink" version="1.1" baseProfile="full" xml:space="preserve" width="1200px" height="800px" viewBox="0 0 1200 800">
<!-- END OF HEADER -->
<rect style="opacity:1.0;fill:#FFFFFF;stroke:none" width="1200.0" height="800.0" x="0.0" y="0.0"> </rect>
<path class="bond-0 atom-0 atom-1" d="M 197.4,154.6 L 257.4,131.1" style="fill:none;fill-rule:evenodd;stroke:#191919;stroke-width:2.0px;stroke-linecap:butt;stroke-linejoin:miter;stroke-opacity:1"/>
<path class="bond-0 atom-0 atom-1" d="M 257.4,131.1 L 317.4,107.6" style="fill:none;fill-rule:evenodd;stroke:#FF0000;stroke-width:2.0px;stroke-linecap:butt;stroke-linejoin:miter;stroke-opacity:1"/>
<path class="bond-1 atom-1 atom-2" d="M 354.0,115.0 L 407.9,158.1" style="fill:none;fill-rule:evenodd;stroke:#FF0000;stroke-width:2.0px;stroke-linecap:butt;stroke-linejoin:miter;stroke-opacity:1"/>
<path class="bond-1 atom-1 atom-2" d="M 407.9,158.1 L 461.8,201.1" style="fill:none;fill-rule:evenodd;stroke:#000000;stroke-width:2.0px;stroke-linecap:butt;stroke-linejoin:miter;stroke-opacity:1"/>
<path class="bond-2 atom-2 atom-3" d="M 450.9,192.4 L 439.8,265.8" style="fill:none;fill-rule:evenodd;stroke:#000000;stroke-width:2.0px;stroke-linecap:butt;stroke-linejoin:miter;stroke-opacity:1"/>
<path class="bond-2 atom-2 atom-3" d="M 439.8,265.8 L 428.6,339.2" style="fill:none;fill-rule:evenodd;stroke:#FF0000;stroke-width:2.0px;stroke-linecap:butt;stroke-linejoin:miter;stroke-opacity:1"/>
<path class="bond-2 atom-2 atom-3" d="M 474.8,196.0 L 463.7,269.5" style="fill:none;fill-rule:evenodd;stroke:#000000;stroke-width:2.0px;stroke-linecap:butt;stroke-linejoin:miter;stroke-opacity:1"/>
<path class="bond-2 atom-2 atom-3" d="M 463.7,269.5 L 452.6,342.9" style="fill:none;fill-rule:evenodd;stroke:#FF0000;stroke-width:2.0px;stroke-linecap:butt;stroke-linejoin:miter;stroke-opacity:1"/>
<path class="bond-3 atom-2 atom-4" d="M 461.8,201.1 L 612.1,142.3" style="fill:none;fill-rule:evenodd;stroke:#000000;stroke-width:2.0px;stroke-linecap:butt;stroke-linejoin:miter;stroke-opacity:1"/>
<path class="bond-4 atom-4 atom-5" d="M 612.1,142.3 L 738.2,243.0" style="fill:none;fill-rule:evenodd;stroke:#000000;stroke-width:2.0px;stroke-linecap:butt;stroke-linejoin:miter;stroke-opacity:1"/>
<path class="bond-5 atom-5 atom-6" d="M 738.2,243.0 L 888.5,184.1" style="fill:none;fill-rule:evenodd;stroke:#000000;stroke-width:2.0px;stroke-linecap:butt;stroke-linejoin:miter;stroke-opacity:1"/>
<path class="bond-5 atom-5 atom-6" d="M 742.4,215.3 L 866.6,166.7" style="fill:none;fill-rule:evenodd;stroke:#000000;stroke-width:2.0px;stroke-linecap:butt;stroke-linejoin:miter;stroke-opacity:1"/>
<path class="bond-6 atom-6 atom-7" d="M 888.5,184.1 L 945.5,229.7" style="fill:none;fill-rule:evenodd;stroke:#000000;stroke-width:2.0px;stroke-linecap:butt;stroke-linejoin:miter;stroke-opacity:1"/>
<path class="bond-6 atom-6 atom-7" d="M 945.5,229.7 L 1002.6,275.2" style="fill:none;fill-rule:evenodd;stroke:#191919;stroke-width:2.0px;stroke-linecap:butt;stroke-linejoin:miter;stroke-opacity:1"/>
<path class="bond-7 atom-6 atom-8" d="M 888.5,184.1 L 912.7,24.5" style="fill:none;fill-rule:evenodd;stroke:#000000;stroke-width:2.0px;stroke-linecap:butt;stroke-linejoin:miter;stroke-opacity:1"/>
<path d="M 459.1,199.0 L 461.8,201.1 L 469.3,198.2" style="fill:none;stroke:#000000;stroke-width:2.0px;stroke-linecap:butt;stroke-linejoin:miter;stroke-opacity:1;"/>
<path d="M 604.6,145.2 L 612.1,142.3 L 618.4,147.3" style="fill:none;stroke:#000000;stroke-width:2.0px;stroke-linecap:butt;stroke-linejoin:miter;stroke-opacity:1;"/>
<path d="M 731.9,237.9 L 738.2,243.0 L 745.7,240.0" style="fill:none;stroke:#000000;stroke-width:2.0px;stroke-linecap:butt;stroke-linejoin:miter;stroke-opacity:1;"/>
<path class="atom-0" d="M 180.1 156.1 L 184.2 151.9 L 178.7 150.8 L 179.5 147.9 L 184.6 150.5 L 183.9 144.9 L 186.9 144.9 L 186.1 150.4 L 191.2 148.0 L 192.1 150.8 L 186.5 151.8 L 190.5 156.1 L 188.1 157.8 L 185.3 152.6 L 182.5 157.8 L 180.1 156.1 " fill="#191919"/>
<path class="atom-1" d="M 322.7 100.5 Q 322.7 93.7, 326.0 89.9 Q 329.4 86.1, 335.7 86.1 Q 342.0 86.1, 345.3 89.9 Q 348.7 93.7, 348.7 100.5 Q 348.7 107.4, 345.3 111.3 Q 341.9 115.2, 335.7 115.2 Q 329.4 115.2, 326.0 111.3 Q 322.7 107.4, 322.7 100.5 M 335.7 112.0 Q 340.0 112.0, 342.3 109.1 Q 344.7 106.2, 344.7 100.5 Q 344.7 94.9, 342.3 92.1 Q 340.0 89.3, 335.7 89.3 Q 331.4 89.3, 329.0 92.1 Q 326.7 94.9, 326.7 100.5 Q 326.7 106.2, 329.0 109.1 Q 331.4 112.0, 335.7 112.0 " fill="#FF0000"/>
<path class="atom-3" d="M 424.6 360.8 Q 424.6 354.0, 428.0 350.2 Q 431.4 346.4, 437.6 346.4 Q 443.9 346.4, 447.3 350.2 Q 450.6 354.0, 450.6 360.8 Q 450.6 367.7, 447.2 371.6 Q 443.8 375.5, 437.6 375.5 Q 431.4 375.5, 428.0 371.6 Q 424.6 367.7, 424.6 360.8 M 437.6 372.3 Q 442.0 372.3, 444.3 369.4 Q 446.6 366.5, 446.6 360.8 Q 446.6 355.2, 444.3 352.4 Q 442.0 349.6, 437.6 349.6 Q 433.3 349.6, 431.0 352.4 Q 428.6 355.2, 428.6 360.8 Q 428.6 366.5, 431.0 369.4 Q 433.3 372.3, 437.6 372.3 " fill="#FF0000"/>
<path class="atom-7" d="M 1009.3 281.7 L 1013.4 277.4 L 1007.9 276.3 L 1008.7 273.5 L 1013.8 276.0 L 1013.1 270.5 L 1016.1 270.4 L 1015.3 276.0 L 1020.4 273.6 L 1021.3 276.3 L 1015.7 277.4 L 1019.7 281.6 L 1017.3 283.4 L 1014.5 278.1 L 1011.7 283.4 L 1009.3 281.7 " fill="#191919"/>
<path class="bond-0 atom-0 atom-1" d="M 514.9,599.8 L 580.4,599.8" style="fill:none;fill-rule:evenodd;stroke:#191919;stroke-width:2.0px;stroke-linecap:butt;stroke-linejoin:miter;stroke-opacity:1"/>
<path class="bond-0 atom-0 atom-1" d="M 580.4,599.8 L 645.9,599.8" style="fill:none;fill-rule:evenodd;stroke:#FF0000;stroke-width:2.0px;stroke-linecap:butt;stroke-linejoin:miter;stroke-opacity:1"/>
<path class="atom-0" d="M 497.5 596.7 L 501.7 592.4 L 496.2 591.3 L 497.0 588.5 L 502.1 591.0 L 501.4 585.5 L 504.4 585.4 L 503.5 591.0 L 508.7 588.6 L 509.6 591.3 L 504.0 592.3 L 508.0 596.6 L 505.5 598.4 L 502.8 593.1 L 500.0 598.4 L 497.5 596.7 " fill="#191919"/>
<path class="atom-1" d="M 651.3 599.9 Q 651.3 593.1, 654.6 589.3 Q 658.0 585.5, 664.3 585.5 Q 670.5 585.5, 673.9 589.3 Q 677.3 593.1, 677.3 599.9 Q 677.3 606.8, 673.9 610.7 Q 670.5 614.6, 664.3 614.6 Q 658.0 614.6, 654.6 610.7 Q 651.3 606.8, 651.3 599.9 M 664.3 611.4 Q 668.6 611.4, 670.9 608.5 Q 673.3 605.6, 673.3 599.9 Q 673.3 594.3, 670.9 591.5 Q 668.6 588.7, 664.3 588.7 Q 659.9 588.7, 657.6 591.5 Q 655.3 594.3, 655.3 599.9 Q 655.3 605.6, 657.6 608.5 Q 659.9 611.4, 664.3 611.4 " fill="#FF0000"/>
<path class="atom-1" d="M 681.7 585.8 L 685.5 585.8 L 685.5 597.9 L 700.0 597.9 L 700.0 585.8 L 703.8 585.8 L 703.8 614.1 L 700.0 614.1 L 700.0 601.1 L 685.5 601.1 L 685.5 614.1 L 681.7 614.1 L 681.7 585.8 " fill="#FF0000"/>
</svg>