<svg xmlns="http://www.w3.org/2000/svg" xmlns:rdkit="http://www.rdkit.org/xml" xmlns:xlink="http://www.w3.org/1999/xlink" version="1.1" baseProfile="full" xml:space="preserve" width="1200px" height="800px" viewBox="0 0 1200 800">
<!-- END OF HEADER -->
<rect style="opacity:1.0;fill:#FFFFFF;stroke:none" width="1200.0" height="800.0" x="0.0" y="0.0"> </rect>
<path class="bond-0 atom-0 atom-1" d="M 1133.6,172.3 L 1112.0,185.3" style="fill:none;fill-rule:evenodd;stroke:#191919;stroke-width:2.0px;stroke-linecap:butt;stroke-linejoin:miter;stroke-opacity:1"/>
<path class="bond-0 atom-0 atom-1" d="M 1112.0,185.3 L 1090.4,198.3" style="fill:none;fill-rule:evenodd;stroke:#FF0000;stroke-width:2.0px;stroke-linecap:butt;stroke-linejoin:miter;stroke-opacity:1"/>
<path class="bond-1 atom-1 atom-2" d="M 1069.2,198.8 L 1046.0,186.0" style="fill:none;fill-rule:evenodd;stroke:#FF0000;stroke-width:2.0px;stroke-linecap:butt;stroke-linejoin:miter;stroke-opacity:1"/>
<path class="bond-1 atom-1 atom-2" d="M 1046.0,186.0 L 1022.8,173.1" style="fill:none;fill-rule:evenodd;stroke:#000000;stroke-width:2.0px;stroke-linecap:butt;stroke-linejoin:miter;stroke-opacity:1"/>
<path class="bond-2 atom-2 atom-3" d="M 1022.8,173.1 L 967.0,206.7" style="fill:none;fill-rule:evenodd;stroke:#000000;stroke-width:2.0px;stroke-linecap:butt;stroke-linejoin:miter;stroke-opacity:1"/>
<path class="bond-3 atom-3 atom-4" d="M 967.0,206.7 L 910.0,175.1" style="fill:none;fill-rule:evenodd;stroke:#000000;stroke-width:2.0px;stroke-linecap:butt;stroke-linejoin:miter;stroke-opacity:1"/>
<path class="bond-4 atom-4 atom-5" d="M 910.0,175.1 L 854.1,208.7" style="fill:none;fill-rule:evenodd;stroke:#000000;stroke-width:2.0px;stroke-linecap:butt;stroke-linejoin:miter;stroke-opacity:1"/>
<path class="bond-5 atom-5 atom-6" d="M 854.1,208.7 L 831.0,195.8" style="fill:none;fill-rule:evenodd;stroke:#000000;stroke-width:2.0px;stroke-linecap:butt;stroke-linejoin:miter;stroke-opacity:1"/>
<path class="bond-5 atom-5 atom-6" d="M 831.0,195.8 L 807.8,183.0" style="fill:none;fill-rule:evenodd;stroke:#FF0000;stroke-width:2.0px;stroke-linecap:butt;stroke-linejoin:miter;stroke-opacity:1"/>
<path class="bond-6 atom-6 atom-7" d="M 786.5,183.5 L 763.9,197.1" style="fill:none;fill-rule:evenodd;stroke:#FF0000;stroke-width:2.0px;stroke-linecap:butt;stroke-linejoin:miter;stroke-opacity:1"/>
<path class="bond-6 atom-6 atom-7" d="M 763.9,197.1 L 741.3,210.7" style="fill:none;fill-rule:evenodd;stroke:#000000;stroke-width:2.0px;stroke-linecap:butt;stroke-linejoin:miter;stroke-opacity:1"/>
<path class="bond-7 atom-7 atom-8" d="M 736.4,207.9 L 736.9,236.2" style="fill:none;fill-rule:evenodd;stroke:#000000;stroke-width:2.0px;stroke-linecap:butt;stroke-linejoin:miter;stroke-opacity:1"/>
<path class="bond-7 atom-7 atom-8" d="M 736.9,236.2 L 737.4,264.4" style="fill:none;fill-rule:evenodd;stroke:#FF0000;stroke-width:2.0px;stroke-linecap:butt;stroke-linejoin:miter;stroke-opacity:1"/>
<path class="bond-7 atom-7 atom-8" d="M 746.2,207.8 L 746.7,236.0" style="fill:none;fill-rule:evenodd;stroke:#000000;stroke-width:2.0px;stroke-linecap:butt;stroke-linejoin:miter;stroke-opacity:1"/>
<path class="bond-7 atom-7 atom-8" d="M 746.7,236.0 L 747.2,264.2" style="fill:none;fill-rule:evenodd;stroke:#FF0000;stroke-width:2.0px;stroke-linecap:butt;stroke-linejoin:miter;stroke-opacity:1"/>
<path class="bond-8 atom-7 atom-9" d="M 741.3,210.7 L 684.3,179.1" style="fill:none;fill-rule:evenodd;stroke:#000000;stroke-width:2.0px;stroke-linecap:butt;stroke-linejoin:miter;stroke-opacity:1"/>
<path class="bond-9 atom-9 atom-10" d="M 684.3,179.1 L 628.5,212.7" style="fill:none;fill-rule:evenodd;stroke:#000000;stroke-width:2.0px;stroke-linecap:butt;stroke-linejoin:miter;stroke-opacity:1"/>
<path class="bond-10 atom-10 atom-11" d="M 628.5,212.7 L 571.5,181.1" style="fill:none;fill-rule:evenodd;stroke:#000000;stroke-width:2.0px;stroke-linecap:butt;stroke-linejoin:miter;stroke-opacity:1"/>
<path class="bond-11 atom-11 atom-12" d="M 571.5,181.1 L 515.7,214.6" style="fill:none;fill-rule:evenodd;stroke:#000000;stroke-width:2.0px;stroke-linecap:butt;stroke-linejoin:miter;stroke-opacity:1"/>
<path class="bond-12 atom-12 atom-13" d="M 515.7,214.6 L 458.7,183.1" style="fill:none;fill-rule:evenodd;stroke:#000000;stroke-width:2.0px;stroke-linecap:butt;stroke-linejoin:miter;stroke-opacity:1"/>
<path class="bond-13 atom-13 atom-14" d="M 458.7,183.1 L 402.8,216.6" style="fill:none;fill-rule:evenodd;stroke:#000000;stroke-width:2.0px;stroke-linecap:butt;stroke-linejoin:miter;stroke-opacity:1"/>
<path class="bond-14 atom-14 atom-15" d="M 402.8,216.6 L 345.9,185.1" style="fill:none;fill-rule:evenodd;stroke:#000000;stroke-width:2.0px;stroke-linecap:butt;stroke-linejoin:miter;stroke-opacity:1"/>
<path class="bond-15 atom-15 atom-16" d="M 345.9,185.1 L 290.0,218.6" style="fill:none;fill-rule:evenodd;stroke:#000000;stroke-width:2.0px;stroke-linecap:butt;stroke-linejoin:miter;stroke-opacity:1"/>
<path class="bond-16 atom-16 atom-17" d="M 290.0,218.6 L 233.0,187.1" style="fill:none;fill-rule:evenodd;stroke:#000000;stroke-width:2.0px;stroke-linecap:butt;stroke-linejoin:miter;stroke-opacity:1"/>
<path class="bond-17 atom-17 atom-18" d="M 233.0,187.1 L 177.2,220.6" style="fill:none;fill-rule:evenodd;stroke:#000000;stroke-width:2.0px;stroke-linecap:butt;stroke-linejoin:miter;stroke-opacity:1"/>
<path class="bond-18 atom-18 atom-19" d="M 177.2,220.6 L 120.2,189.0" style="fill:none;fill-rule:evenodd;stroke:#000000;stroke-width:2.0px;stroke-linecap:butt;stroke-linejoin:miter;stroke-opacity:1"/>
<path class="bond-19 atom-19 atom-20" d="M 120.2,189.0 L 95.5,203.9" style="fill:none;fill-rule:evenodd;stroke:#000000;stroke-width:2.0px;stroke-linecap:butt;stroke-linejoin:miter;stroke-opacity:1"/>
<path class="bond-19 atom-19 atom-20" d="M 95.5,203.9 L 70.9,218.7" style="fill:none;fill-rule:evenodd;stroke:#191919;stroke-width:2.0px;stroke-linecap:butt;stroke-linejoin:miter;stroke-opacity:1"/>
<path class="bond-20 atom-19 atom-21" d="M 125.1,191.8 L 124.6,163.7" style="fill:none;fill-rule:evenodd;stroke:#000000;stroke-width:2.0px;stroke-linecap:butt;stroke-linejoin:miter;stroke-opacity:1"/>
<path class="bond-20 atom-19 atom-21" d="M 124.6,163.7 L 124.1,135.6" style="fill:none;fill-rule:evenodd;stroke:#FF0000;stroke-width:2.0px;stroke-linecap:butt;stroke-linejoin:miter;stroke-opacity:1"/>
<path class="bond-20 atom-19 atom-21" d="M 115.4,192.0 L 114.9,163.9" style="fill:none;fill-rule:evenodd;stroke:#000000;stroke-width:2.0px;stroke-linecap:butt;stroke-linejoin:miter;stroke-opacity:1"/>
<path class="bond-20 atom-19 atom-21" d="M 114.9,163.9 L 114.4,135.8" style="fill:none;fill-rule:evenodd;stroke:#FF0000;stroke-width:2.0px;stroke-linecap:butt;stroke-linejoin:miter;stroke-opacity:1"/>
<path d="M 1024.0,173.8 L 1022.8,173.1 L 1020.0,174.8" style="fill:none;stroke:#000000;stroke-width:2.0px;stroke-linecap:butt;stroke-linejoin:miter;stroke-opacity:1;"/>
<path d="M 969.8,205.0 L 967.0,206.7 L 964.1,205.1" style="fill:none;stroke:#000000;stroke-width:2.0px;stroke-linecap:butt;stroke-linejoin:miter;stroke-opacity:1;"/>
<path d="M 912.8,176.7 L 910.0,175.1 L 907.2,176.8" style="fill:none;stroke:#000000;stroke-width:2.0px;stroke-linecap:butt;stroke-linejoin:miter;stroke-opacity:1;"/>
<path d="M 856.9,207.0 L 854.1,208.7 L 853.0,208.0" style="fill:none;stroke:#000000;stroke-width:2.0px;stroke-linecap:butt;stroke-linejoin:miter;stroke-opacity:1;"/>
<path d="M 742.4,210.0 L 741.3,210.7 L 738.5,209.1" style="fill:none;stroke:#000000;stroke-width:2.0px;stroke-linecap:butt;stroke-linejoin:miter;stroke-opacity:1;"/>
<path d="M 687.2,180.7 L 684.3,179.1 L 681.5,180.8" style="fill:none;stroke:#000000;stroke-width:2.0px;stroke-linecap:butt;stroke-linejoin:miter;stroke-opacity:1;"/>
<path d="M 631.3,211.0 L 628.5,212.7 L 625.6,211.1" style="fill:none;stroke:#000000;stroke-width:2.0px;stroke-linecap:butt;stroke-linejoin:miter;stroke-opacity:1;"/>
<path d="M 574.4,182.7 L 571.5,181.1 L 568.7,182.8" style="fill:none;stroke:#000000;stroke-width:2.0px;stroke-linecap:butt;stroke-linejoin:miter;stroke-opacity:1;"/>
<path d="M 518.5,213.0 L 515.7,214.6 L 512.8,213.1" style="fill:none;stroke:#000000;stroke-width:2.0px;stroke-linecap:butt;stroke-linejoin:miter;stroke-opacity:1;"/>
<path d="M 461.5,184.7 L 458.7,183.1 L 455.9,184.8" style="fill:none;stroke:#000000;stroke-width:2.0px;stroke-linecap:butt;stroke-linejoin:miter;stroke-opacity:1;"/>
<path d="M 405.6,215.0 L 402.8,216.6 L 400.0,215.1" style="fill:none;stroke:#000000;stroke-width:2.0px;stroke-linecap:butt;stroke-linejoin:miter;stroke-opacity:1;"/>
<path d="M 348.7,186.6 L 345.9,185.1 L 343.1,186.7" style="fill:none;stroke:#000000;stroke-width:2.0px;stroke-linecap:butt;stroke-linejoin:miter;stroke-opacity:1;"/>
<path d="M 292.8,217.0 L 290.0,218.6 L 287.2,217.1" style="fill:none;stroke:#000000;stroke-width:2.0px;stroke-linecap:butt;stroke-linejoin:miter;stroke-opacity:1;"/>
<path d="M 235.9,188.6 L 233.0,187.1 L 230.2,188.7" style="fill:none;stroke:#000000;stroke-width:2.0px;stroke-linecap:butt;stroke-linejoin:miter;stroke-opacity:1;"/>
<path d="M 180.0,218.9 L 177.2,220.6 L 174.3,219.0" style="fill:none;stroke:#000000;stroke-width:2.0px;stroke-linecap:butt;stroke-linejoin:miter;stroke-opacity:1;"/>
<path d="M 123.1,190.6 L 120.2,189.0 L 119.0,189.8" style="fill:none;stroke:#000000;stroke-width:2.0px;stroke-linecap:butt;stroke-linejoin:miter;stroke-opacity:1;"/>
<path class="atom-0" d="M 1132.2 169.1 L 1134.9 166.3 L 1131.3 165.6 L 1131.8 163.7 L 1135.1 165.4 L 1134.7 161.8 L 1136.6 161.7 L 1136.1 165.4 L 1139.4 163.8 L 1140.0 165.6 L 1136.4 166.3 L 1139.0 169.0 L 1137.4 170.2 L 1135.6 166.8 L 1133.7 170.2 L 1132.2 169.1 " fill="#191919"/>
<path class="atom-1" d="M 1071.3 204.7 Q 1071.3 200.3, 1073.5 197.8 Q 1075.7 195.4, 1079.8 195.4 Q 1083.9 195.4, 1086.1 197.8 Q 1088.3 200.3, 1088.3 204.7 Q 1088.3 209.2, 1086.1 211.8 Q 1083.8 214.3, 1079.8 214.3 Q 1075.7 214.3, 1073.5 211.8 Q 1071.3 209.3, 1071.3 204.7 M 1079.8 212.2 Q 1082.6 212.2, 1084.1 210.4 Q 1085.7 208.4, 1085.7 204.7 Q 1085.7 201.1, 1084.1 199.3 Q 1082.6 197.5, 1079.8 197.5 Q 1077.0 197.5, 1075.4 199.3 Q 1073.9 201.1, 1073.9 204.7 Q 1073.9 208.5, 1075.4 210.4 Q 1077.0 212.2, 1079.8 212.2 " fill="#FF0000"/>
<path class="atom-6" d="M 788.7 177.2 Q 788.7 172.7, 790.9 170.2 Q 793.1 167.8, 797.2 167.8 Q 801.2 167.8, 803.4 170.2 Q 805.6 172.7, 805.6 177.2 Q 805.6 181.6, 803.4 184.2 Q 801.2 186.7, 797.2 186.7 Q 793.1 186.7, 790.9 184.2 Q 788.7 181.7, 788.7 177.2 M 797.2 184.6 Q 800.0 184.6, 801.5 182.8 Q 803.0 180.9, 803.0 177.2 Q 803.0 173.5, 801.5 171.7 Q 800.0 169.9, 797.2 169.9 Q 794.3 169.9, 792.8 171.7 Q 791.3 173.5, 791.3 177.2 Q 791.3 180.9, 792.8 182.8 Q 794.3 184.6, 797.2 184.6 " fill="#FF0000"/>
<path class="atom-8" d="M 734.0 275.9 Q 734.0 271.4, 736.2 269.0 Q 738.4 266.5, 742.5 266.5 Q 746.6 266.5, 748.7 269.0 Q 750.9 271.4, 750.9 275.9 Q 750.9 280.3, 748.7 282.9 Q 746.5 285.4, 742.5 285.4 Q 738.4 285.4, 736.2 282.9 Q 734.0 280.4, 734.0 275.9 M 742.5 283.3 Q 745.3 283.3, 746.8 281.5 Q 748.3 279.6, 748.3 275.9 Q 748.3 272.2, 746.8 270.4 Q 745.3 268.6, 742.5 268.6 Q 739.7 268.6, 738.1 270.4 Q 736.6 272.2, 736.6 275.9 Q 736.6 279.6, 738.1 281.5 Q 739.7 283.3, 742.5 283.3 " fill="#FF0000"/>
<path class="atom-20" d="M 60.9 220.6 L 63.6 217.8 L 60.0 217.1 L 60.5 215.2 L 63.9 216.9 L 63.4 213.3 L 65.3 213.2 L 64.8 216.9 L 68.2 215.3 L 68.7 217.1 L 65.1 217.7 L 67.7 220.5 L 66.1 221.7 L 64.3 218.2 L 62.5 221.7 L 60.9 220.6 " fill="#191919"/>
<path class="atom-21" d="M 110.6 124.0 Q 110.6 119.5, 112.8 117.1 Q 115.0 114.6, 119.1 114.6 Q 123.1 114.6, 125.3 117.1 Q 127.5 119.5, 127.5 124.0 Q 127.5 128.4, 125.3 131.0 Q 123.1 133.5, 119.1 133.5 Q 115.0 133.5, 112.8 131.0 Q 110.6 128.5, 110.6 124.0 M 119.1 131.4 Q 121.9 131.4, 123.4 129.6 Q 124.9 127.7, 124.9 124.0 Q 124.9 120.3, 123.4 118.5 Q 121.9 116.7, 119.1 116.7 Q 116.2 116.7, 114.7 118.5 Q 113.2 120.3, 113.2 124.0 Q 113.2 127.7, 114.7 129.6 Q 116.2 131.4, 119.1 131.4 " fill="#FF0000"/>
<path class="bond-0 atom-0 atom-1" d="M 262.6,540.5 L 281.4,556.6" style="fill:none;fill-rule:evenodd;stroke:#191919;stroke-width:2.0px;stroke-linecap:butt;stroke-linejoin:miter;stroke-opacity:1"/>
<path class="bond-0 atom-0 atom-1" d="M 281.4,556.6 L 300.1,572.6" style="fill:none;fill-rule:evenodd;stroke:#FF0000;stroke-width:2.0px;stroke-linecap:butt;stroke-linejoin:miter;stroke-opacity:1"/>
<path class="bond-1 atom-1 atom-2" d="M 321.4,577.9 L 346.8,568.9" style="fill:none;fill-rule:evenodd;stroke:#FF0000;stroke-width:2.0px;stroke-linecap:butt;stroke-linejoin:miter;stroke-opacity:1"/>
<path class="bond-1 atom-1 atom-2" d="M 346.8,568.9 L 372.2,559.9" style="fill:none;fill-rule:evenodd;stroke:#000000;stroke-width:2.0px;stroke-linecap:butt;stroke-linejoin:miter;stroke-opacity:1"/>
<path class="bond-2 atom-2 atom-3" d="M 372.2,559.9 L 421.7,602.2" style="fill:none;fill-rule:evenodd;stroke:#000000;stroke-width:2.0px;stroke-linecap:butt;stroke-linejoin:miter;stroke-opacity:1"/>
<path class="bond-3 atom-3 atom-4" d="M 421.7,602.2 L 483.1,580.5" style="fill:none;fill-rule:evenodd;stroke:#000000;stroke-width:2.0px;stroke-linecap:butt;stroke-linejoin:miter;stroke-opacity:1"/>
<path class="bond-4 atom-4 atom-5" d="M 483.1,580.5 L 532.6,622.8" style="fill:none;fill-rule:evenodd;stroke:#000000;stroke-width:2.0px;stroke-linecap:butt;stroke-linejoin:miter;stroke-opacity:1"/>
<path class="bond-5 atom-5 atom-6" d="M 532.6,622.8 L 558.0,613.8" style="fill:none;fill-rule:evenodd;stroke:#000000;stroke-width:2.0px;stroke-linecap:butt;stroke-linejoin:miter;stroke-opacity:1"/>
<path class="bond-5 atom-5 atom-6" d="M 558.0,613.8 L 583.4,604.8" style="fill:none;fill-rule:evenodd;stroke:#FF0000;stroke-width:2.0px;stroke-linecap:butt;stroke-linejoin:miter;stroke-opacity:1"/>
<path class="bond-6 atom-6 atom-7" d="M 604.7,610.1 L 624.1,626.7" style="fill:none;fill-rule:evenodd;stroke:#FF0000;stroke-width:2.0px;stroke-linecap:butt;stroke-linejoin:miter;stroke-opacity:1"/>
<path class="bond-6 atom-6 atom-7" d="M 624.1,626.7 L 643.6,643.3" style="fill:none;fill-rule:evenodd;stroke:#000000;stroke-width:2.0px;stroke-linecap:butt;stroke-linejoin:miter;stroke-opacity:1"/>
<path class="bond-7 atom-7 atom-8" d="M 639.3,639.7 L 634.2,667.4" style="fill:none;fill-rule:evenodd;stroke:#000000;stroke-width:2.0px;stroke-linecap:butt;stroke-linejoin:miter;stroke-opacity:1"/>
<path class="bond-7 atom-7 atom-8" d="M 634.2,667.4 L 629.0,695.0" style="fill:none;fill-rule:evenodd;stroke:#FF0000;stroke-width:2.0px;stroke-linecap:butt;stroke-linejoin:miter;stroke-opacity:1"/>
<path class="bond-7 atom-7 atom-8" d="M 648.9,641.5 L 643.8,669.1" style="fill:none;fill-rule:evenodd;stroke:#000000;stroke-width:2.0px;stroke-linecap:butt;stroke-linejoin:miter;stroke-opacity:1"/>
<path class="bond-7 atom-7 atom-8" d="M 643.8,669.1 L 638.7,696.8" style="fill:none;fill-rule:evenodd;stroke:#FF0000;stroke-width:2.0px;stroke-linecap:butt;stroke-linejoin:miter;stroke-opacity:1"/>
<path class="bond-8 atom-7 atom-9" d="M 643.6,643.3 L 705.0,621.6" style="fill:none;fill-rule:evenodd;stroke:#000000;stroke-width:2.0px;stroke-linecap:butt;stroke-linejoin:miter;stroke-opacity:1"/>
<path class="bond-9 atom-9 atom-10" d="M 705.0,621.6 L 716.9,557.5" style="fill:none;fill-rule:evenodd;stroke:#000000;stroke-width:2.0px;stroke-linecap:butt;stroke-linejoin:miter;stroke-opacity:1"/>
<path class="bond-10 atom-10 atom-11" d="M 716.9,557.5 L 778.3,535.8" style="fill:none;fill-rule:evenodd;stroke:#000000;stroke-width:2.0px;stroke-linecap:butt;stroke-linejoin:miter;stroke-opacity:1"/>
<path class="bond-11 atom-11 atom-12" d="M 778.3,535.8 L 827.8,578.1" style="fill:none;fill-rule:evenodd;stroke:#000000;stroke-width:2.0px;stroke-linecap:butt;stroke-linejoin:miter;stroke-opacity:1"/>
<path class="bond-12 atom-12 atom-13" d="M 827.8,578.1 L 889.3,556.4" style="fill:none;fill-rule:evenodd;stroke:#000000;stroke-width:2.0px;stroke-linecap:butt;stroke-linejoin:miter;stroke-opacity:1"/>
<path class="bond-13 atom-13 atom-14" d="M 889.3,556.4 L 910.8,574.7" style="fill:none;fill-rule:evenodd;stroke:#000000;stroke-width:2.0px;stroke-linecap:butt;stroke-linejoin:miter;stroke-opacity:1"/>
<path class="bond-13 atom-13 atom-14" d="M 910.8,574.7 L 932.3,593.1" style="fill:none;fill-rule:evenodd;stroke:#191919;stroke-width:2.0px;stroke-linecap:butt;stroke-linejoin:miter;stroke-opacity:1"/>
<path class="bond-14 atom-13 atom-15" d="M 893.5,560.0 L 898.7,532.5" style="fill:none;fill-rule:evenodd;stroke:#000000;stroke-width:2.0px;stroke-linecap:butt;stroke-linejoin:miter;stroke-opacity:1"/>
<path class="bond-14 atom-13 atom-15" d="M 898.7,532.5 L 903.8,505.0" style="fill:none;fill-rule:evenodd;stroke:#FF0000;stroke-width:2.0px;stroke-linecap:butt;stroke-linejoin:miter;stroke-opacity:1"/>
<path class="bond-14 atom-13 atom-15" d="M 883.9,558.2 L 889.0,530.7" style="fill:none;fill-rule:evenodd;stroke:#000000;stroke-width:2.0px;stroke-linecap:butt;stroke-linejoin:miter;stroke-opacity:1"/>
<path class="bond-14 atom-13 atom-15" d="M 889.0,530.7 L 894.1,503.2" style="fill:none;fill-rule:evenodd;stroke:#FF0000;stroke-width:2.0px;stroke-linecap:butt;stroke-linejoin:miter;stroke-opacity:1"/>
<path class="bond-15 atom-12 atom-16" d="M 827.8,578.1 L 816.0,642.2" style="fill:none;fill-rule:evenodd;stroke:#000000;stroke-width:2.0px;stroke-linecap:butt;stroke-linejoin:miter;stroke-opacity:1"/>
<path class="bond-16 atom-16 atom-17" d="M 816.0,642.2 L 754.6,663.9" style="fill:none;fill-rule:evenodd;stroke:#000000;stroke-width:2.0px;stroke-linecap:butt;stroke-linejoin:miter;stroke-opacity:1"/>
<path class="bond-17 atom-17 atom-9" d="M 754.6,663.9 L 705.0,621.6" style="fill:none;fill-rule:evenodd;stroke:#000000;stroke-width:2.0px;stroke-linecap:butt;stroke-linejoin:miter;stroke-opacity:1"/>
<path d="M 370.9,560.3 L 372.2,559.9 L 374.6,562.0" style="fill:none;stroke:#000000;stroke-width:2.0px;stroke-linecap:butt;stroke-linejoin:miter;stroke-opacity:1;"/>
<path d="M 419.2,600.1 L 421.7,602.2 L 424.8,601.1" style="fill:none;stroke:#000000;stroke-width:2.0px;stroke-linecap:butt;stroke-linejoin:miter;stroke-opacity:1;"/>
<path d="M 480.0,581.6 L 483.1,580.5 L 485.6,582.6" style="fill:none;stroke:#000000;stroke-width:2.0px;stroke-linecap:butt;stroke-linejoin:miter;stroke-opacity:1;"/>
<path d="M 530.2,620.7 L 532.6,622.8 L 533.9,622.3" style="fill:none;stroke:#000000;stroke-width:2.0px;stroke-linecap:butt;stroke-linejoin:miter;stroke-opacity:1;"/>
<path d="M 642.6,642.5 L 643.6,643.3 L 646.7,642.3" style="fill:none;stroke:#000000;stroke-width:2.0px;stroke-linecap:butt;stroke-linejoin:miter;stroke-opacity:1;"/>
<path d="M 716.3,560.7 L 716.9,557.5 L 720.0,556.5" style="fill:none;stroke:#000000;stroke-width:2.0px;stroke-linecap:butt;stroke-linejoin:miter;stroke-opacity:1;"/>
<path d="M 775.2,536.9 L 778.3,535.8 L 780.8,537.9" style="fill:none;stroke:#000000;stroke-width:2.0px;stroke-linecap:butt;stroke-linejoin:miter;stroke-opacity:1;"/>
<path d="M 886.2,557.5 L 889.3,556.4 L 890.3,557.3" style="fill:none;stroke:#000000;stroke-width:2.0px;stroke-linecap:butt;stroke-linejoin:miter;stroke-opacity:1;"/>
<path d="M 816.6,639.0 L 816.0,642.2 L 812.9,643.3" style="fill:none;stroke:#000000;stroke-width:2.0px;stroke-linecap:butt;stroke-linejoin:miter;stroke-opacity:1;"/>
<path d="M 757.6,662.8 L 754.6,663.9 L 752.1,661.8" style="fill:none;stroke:#000000;stroke-width:2.0px;stroke-linecap:butt;stroke-linejoin:miter;stroke-opacity:1;"/>
<path class="atom-0" d="M 257.7 537.3 L 260.4 534.5 L 256.8 533.8 L 257.4 531.9 L 260.7 533.6 L 260.2 530.0 L 262.2 529.9 L 261.6 533.6 L 265.0 532.0 L 265.6 533.8 L 261.9 534.5 L 264.5 537.2 L 262.9 538.4 L 261.1 535.0 L 259.3 538.4 L 257.7 537.3 " fill="#191919"/>
<path class="atom-1" d="M 302.3 581.7 Q 302.3 577.3, 304.5 574.8 Q 306.7 572.3, 310.7 572.3 Q 314.8 572.3, 317.0 574.8 Q 319.2 577.3, 319.2 581.7 Q 319.2 586.2, 317.0 588.7 Q 314.8 591.3, 310.7 591.3 Q 306.7 591.3, 304.5 588.7 Q 302.3 586.2, 302.3 581.7 M 310.7 589.2 Q 313.6 589.2, 315.1 587.3 Q 316.6 585.4, 316.6 581.7 Q 316.6 578.1, 315.1 576.2 Q 313.6 574.4, 310.7 574.4 Q 307.9 574.4, 306.4 576.2 Q 304.9 578.0, 304.9 581.7 Q 304.9 585.4, 306.4 587.3 Q 307.9 589.2, 310.7 589.2 " fill="#FF0000"/>
<path class="atom-6" d="M 585.6 601.1 Q 585.6 596.7, 587.8 594.2 Q 590.0 591.7, 594.1 591.7 Q 598.2 591.7, 600.3 594.2 Q 602.5 596.7, 602.5 601.1 Q 602.5 605.6, 600.3 608.1 Q 598.1 610.6, 594.1 610.6 Q 590.0 610.6, 587.8 608.1 Q 585.6 605.6, 585.6 601.1 M 594.1 608.6 Q 596.9 608.6, 598.4 606.7 Q 599.9 604.8, 599.9 601.1 Q 599.9 597.5, 598.4 595.6 Q 596.9 593.8, 594.1 593.8 Q 591.2 593.8, 589.7 595.6 Q 588.2 597.4, 588.2 601.1 Q 588.2 604.8, 589.7 606.7 Q 591.2 608.6, 594.1 608.6 " fill="#FF0000"/>
<path class="atom-8" d="M 623.3 707.5 Q 623.3 703.0, 625.4 700.6 Q 627.6 698.1, 631.7 698.1 Q 635.8 698.1, 638.0 700.6 Q 640.2 703.0, 640.2 707.5 Q 640.2 711.9, 638.0 714.5 Q 635.8 717.0, 631.7 717.0 Q 627.7 717.0, 625.4 714.5 Q 623.3 712.0, 623.3 707.5 M 631.7 714.9 Q 634.5 714.9, 636.1 713.1 Q 637.6 711.2, 637.6 707.5 Q 637.6 703.8, 636.1 702.0 Q 634.5 700.2, 631.7 700.2 Q 628.9 700.2, 627.4 702.0 Q 625.9 703.8, 625.9 707.5 Q 625.9 711.2, 627.4 713.1 Q 628.9 714.9, 631.7 714.9 " fill="#FF0000"/>
<path class="atom-14" d="M 935.3 596.6 L 938.0 593.9 L 934.4 593.1 L 935.0 591.3 L 938.3 592.9 L 937.8 589.3 L 939.8 589.3 L 939.2 592.9 L 942.6 591.4 L 943.2 593.1 L 939.5 593.8 L 942.1 596.6 L 940.5 597.7 L 938.7 594.3 L 936.9 597.7 L 935.3 596.6 " fill="#191919"/>
<path class="atom-15" d="M 892.7 492.4 Q 892.7 487.9, 894.9 485.5 Q 897.0 483.0, 901.1 483.0 Q 905.2 483.0, 907.4 485.5 Q 909.6 487.9, 909.6 492.4 Q 909.6 496.8, 907.4 499.4 Q 905.2 501.9, 901.1 501.9 Q 897.1 501.9, 894.9 499.4 Q 892.7 496.9, 892.7 492.4 M 901.1 499.8 Q 903.9 499.8, 905.5 498.0 Q 907.0 496.1, 907.0 492.4 Q 907.0 488.7, 905.5 486.9 Q 903.9 485.1, 901.1 485.1 Q 898.3 485.1, 896.8 486.9 Q 895.3 488.7, 895.3 492.4 Q 895.3 496.1, 896.8 498.0 Q 898.3 499.8, 901.1 499.8 " fill="#FF0000"/>
</svg>