<svg xmlns="http://www.w3.org/2000/svg" xmlns:rdkit="http://www.rdkit.org/xml" xmlns:xlink="http://www.w3.org/1999/xlink" version="1.1" baseProfile="full" xml:space="preserve" width="1200px" height="800px" viewBox="0 0 1200 800">
<!-- END OF HEADER -->
<rect style="opacity:1.0;fill:#FFFFFF;stroke:none" width="1200.0" height="800.0" x="0.0" y="0.0"> </rect>
<path class="bond-0 atom-0 atom-1" d="M 1128.7,160.5 L 1091.0,183.1" style="fill:none;fill-rule:evenodd;stroke:#191919;stroke-width:2.0px;stroke-linecap:butt;stroke-linejoin:miter;stroke-opacity:1"/>
<path class="bond-0 atom-0 atom-1" d="M 1091.0,183.1 L 1053.2,205.8" style="fill:none;fill-rule:evenodd;stroke:#FF0000;stroke-width:2.0px;stroke-linecap:butt;stroke-linejoin:miter;stroke-opacity:1"/>
<path class="bond-1 atom-1 atom-2" d="M 1019.8,206.5 L 979.3,184.0" style="fill:none;fill-rule:evenodd;stroke:#FF0000;stroke-width:2.0px;stroke-linecap:butt;stroke-linejoin:miter;stroke-opacity:1"/>
<path class="bond-1 atom-1 atom-2" d="M 979.3,184.0 L 938.7,161.4" style="fill:none;fill-rule:evenodd;stroke:#000000;stroke-width:2.0px;stroke-linecap:butt;stroke-linejoin:miter;stroke-opacity:1"/>
<path class="bond-2 atom-2 atom-3" d="M 938.7,161.4 L 842.7,219.0" style="fill:none;fill-rule:evenodd;stroke:#000000;stroke-width:2.0px;stroke-linecap:butt;stroke-linejoin:miter;stroke-opacity:1"/>
<path class="bond-3 atom-3 atom-4" d="M 842.7,219.0 L 744.9,164.6" style="fill:none;fill-rule:evenodd;stroke:#000000;stroke-width:2.0px;stroke-linecap:butt;stroke-linejoin:miter;stroke-opacity:1"/>
<path class="bond-4 atom-4 atom-5" d="M 744.9,164.6 L 648.9,222.2" style="fill:none;fill-rule:evenodd;stroke:#000000;stroke-width:2.0px;stroke-linecap:butt;stroke-linejoin:miter;stroke-opacity:1"/>
<path class="bond-5 atom-5 atom-6" d="M 648.9,222.2 L 608.3,199.6" style="fill:none;fill-rule:evenodd;stroke:#000000;stroke-width:2.0px;stroke-linecap:butt;stroke-linejoin:miter;stroke-opacity:1"/>
<path class="bond-5 atom-5 atom-6" d="M 608.3,199.6 L 567.8,177.1" style="fill:none;fill-rule:evenodd;stroke:#FF0000;stroke-width:2.0px;stroke-linecap:butt;stroke-linejoin:miter;stroke-opacity:1"/>
<path class="bond-6 atom-6 atom-7" d="M 534.4,177.8 L 494.8,201.6" style="fill:none;fill-rule:evenodd;stroke:#FF0000;stroke-width:2.0px;stroke-linecap:butt;stroke-linejoin:miter;stroke-opacity:1"/>
<path class="bond-6 atom-6 atom-7" d="M 494.8,201.6 L 455.1,225.4" style="fill:none;fill-rule:evenodd;stroke:#000000;stroke-width:2.0px;stroke-linecap:butt;stroke-linejoin:miter;stroke-opacity:1"/>
<path class="bond-7 atom-7 atom-8" d="M 446.6,220.7 L 447.4,270.0" style="fill:none;fill-rule:evenodd;stroke:#000000;stroke-width:2.0px;stroke-linecap:butt;stroke-linejoin:miter;stroke-opacity:1"/>
<path class="bond-7 atom-7 atom-8" d="M 447.4,270.0 L 448.3,319.4" style="fill:none;fill-rule:evenodd;stroke:#FF0000;stroke-width:2.0px;stroke-linecap:butt;stroke-linejoin:miter;stroke-opacity:1"/>
<path class="bond-7 atom-7 atom-8" d="M 463.4,220.4 L 464.2,269.7" style="fill:none;fill-rule:evenodd;stroke:#000000;stroke-width:2.0px;stroke-linecap:butt;stroke-linejoin:miter;stroke-opacity:1"/>
<path class="bond-7 atom-7 atom-8" d="M 464.2,269.7 L 465.0,319.1" style="fill:none;fill-rule:evenodd;stroke:#FF0000;stroke-width:2.0px;stroke-linecap:butt;stroke-linejoin:miter;stroke-opacity:1"/>
<path class="bond-8 atom-7 atom-9" d="M 455.1,225.4 L 357.3,171.0" style="fill:none;fill-rule:evenodd;stroke:#000000;stroke-width:2.0px;stroke-linecap:butt;stroke-linejoin:miter;stroke-opacity:1"/>
<path class="bond-9 atom-9 atom-10" d="M 357.3,171.0 L 261.3,228.6" style="fill:none;fill-rule:evenodd;stroke:#000000;stroke-width:2.0px;stroke-linecap:butt;stroke-linejoin:miter;stroke-opacity:1"/>
<path class="bond-10 atom-10 atom-11" d="M 261.3,228.6 L 163.5,174.2" style="fill:none;fill-rule:evenodd;stroke:#000000;stroke-width:2.0px;stroke-linecap:butt;stroke-linejoin:miter;stroke-opacity:1"/>
<path class="bond-11 atom-11 atom-12" d="M 163.5,174.2 L 120.7,199.9" style="fill:none;fill-rule:evenodd;stroke:#000000;stroke-width:2.0px;stroke-linecap:butt;stroke-linejoin:miter;stroke-opacity:1"/>
<path class="bond-11 atom-11 atom-12" d="M 120.7,199.9 L 77.9,225.5" style="fill:none;fill-rule:evenodd;stroke:#191919;stroke-width:2.0px;stroke-linecap:butt;stroke-linejoin:miter;stroke-opacity:1"/>
<path class="bond-12 atom-11 atom-13" d="M 172.0,178.9 L 171.1,129.8" style="fill:none;fill-rule:evenodd;stroke:#000000;stroke-width:2.0px;stroke-linecap:butt;stroke-linejoin:miter;stroke-opacity:1"/>
<path class="bond-12 atom-11 atom-13" d="M 171.1,129.8 L 170.3,80.6" style="fill:none;fill-rule:evenodd;stroke:#FF0000;stroke-width:2.0px;stroke-linecap:butt;stroke-linejoin:miter;stroke-opacity:1"/>
<path class="bond-12 atom-11 atom-13" d="M 155.2,179.2 L 154.4,130.0" style="fill:none;fill-rule:evenodd;stroke:#000000;stroke-width:2.0px;stroke-linecap:butt;stroke-linejoin:miter;stroke-opacity:1"/>
<path class="bond-12 atom-11 atom-13" d="M 154.4,130.0 L 153.5,80.9" style="fill:none;fill-rule:evenodd;stroke:#FF0000;stroke-width:2.0px;stroke-linecap:butt;stroke-linejoin:miter;stroke-opacity:1"/>
<path d="M 940.7,162.6 L 938.7,161.4 L 933.9,164.3" style="fill:none;stroke:#000000;stroke-width:2.0px;stroke-linecap:butt;stroke-linejoin:miter;stroke-opacity:1;"/>
<path d="M 847.5,216.1 L 842.7,219.0 L 837.8,216.3" style="fill:none;stroke:#000000;stroke-width:2.0px;stroke-linecap:butt;stroke-linejoin:miter;stroke-opacity:1;"/>
<path d="M 749.8,167.3 L 744.9,164.6 L 740.1,167.5" style="fill:none;stroke:#000000;stroke-width:2.0px;stroke-linecap:butt;stroke-linejoin:miter;stroke-opacity:1;"/>
<path d="M 653.7,219.3 L 648.9,222.2 L 646.9,221.0" style="fill:none;stroke:#000000;stroke-width:2.0px;stroke-linecap:butt;stroke-linejoin:miter;stroke-opacity:1;"/>
<path d="M 457.1,224.2 L 455.1,225.4 L 450.2,222.6" style="fill:none;stroke:#000000;stroke-width:2.0px;stroke-linecap:butt;stroke-linejoin:miter;stroke-opacity:1;"/>
<path d="M 362.2,173.7 L 357.3,171.0 L 352.5,173.9" style="fill:none;stroke:#000000;stroke-width:2.0px;stroke-linecap:butt;stroke-linejoin:miter;stroke-opacity:1;"/>
<path d="M 266.1,225.7 L 261.3,228.6 L 256.4,225.8" style="fill:none;stroke:#000000;stroke-width:2.0px;stroke-linecap:butt;stroke-linejoin:miter;stroke-opacity:1;"/>
<path d="M 168.4,176.9 L 163.5,174.2 L 161.3,175.5" style="fill:none;stroke:#000000;stroke-width:2.0px;stroke-linecap:butt;stroke-linejoin:miter;stroke-opacity:1;"/>
<path class="atom-0" d="M 1127.2 155.1 L 1131.3 150.8 L 1125.8 149.7 L 1126.6 146.9 L 1131.7 149.4 L 1131.0 143.9 L 1134.0 143.8 L 1133.2 149.4 L 1138.3 147.0 L 1139.2 149.7 L 1133.6 150.8 L 1137.6 155.0 L 1135.2 156.8 L 1132.4 151.5 L 1129.6 156.8 L 1127.2 155.1 " fill="#191919"/>
<path class="atom-1" d="M 1023.5 215.9 Q 1023.5 209.1, 1026.9 205.3 Q 1030.2 201.5, 1036.5 201.5 Q 1042.8 201.5, 1046.2 205.3 Q 1049.5 209.1, 1049.5 215.9 Q 1049.5 222.7, 1046.1 226.7 Q 1042.7 230.5, 1036.5 230.5 Q 1030.3 230.5, 1026.9 226.7 Q 1023.5 222.8, 1023.5 215.9 M 1036.5 227.3 Q 1040.8 227.3, 1043.2 224.5 Q 1045.5 221.5, 1045.5 215.9 Q 1045.5 210.3, 1043.2 207.5 Q 1040.8 204.7, 1036.5 204.7 Q 1032.2 204.7, 1029.8 207.5 Q 1027.5 210.3, 1027.5 215.9 Q 1027.5 221.6, 1029.8 224.5 Q 1032.2 227.3, 1036.5 227.3 " fill="#FF0000"/>
<path class="atom-6" d="M 538.1 167.9 Q 538.1 161.1, 541.4 157.3 Q 544.8 153.5, 551.1 153.5 Q 557.4 153.5, 560.7 157.3 Q 564.1 161.1, 564.1 167.9 Q 564.1 174.8, 560.7 178.7 Q 557.3 182.6, 551.1 182.6 Q 544.8 182.6, 541.4 178.7 Q 538.1 174.8, 538.1 167.9 M 551.1 179.4 Q 555.4 179.4, 557.7 176.5 Q 560.1 173.6, 560.1 167.9 Q 560.1 162.3, 557.7 159.5 Q 555.4 156.7, 551.1 156.7 Q 546.8 156.7, 544.4 159.5 Q 542.1 162.3, 542.1 167.9 Q 542.1 173.6, 544.4 176.5 Q 546.8 179.4, 551.1 179.4 " fill="#FF0000"/>
<path class="atom-8" d="M 443.9 337.3 Q 443.9 330.5, 447.3 326.7 Q 450.7 322.9, 456.9 322.9 Q 463.2 322.9, 466.6 326.7 Q 469.9 330.5, 469.9 337.3 Q 469.9 344.2, 466.5 348.1 Q 463.1 352.0, 456.9 352.0 Q 450.7 352.0, 447.3 348.1 Q 443.9 344.3, 443.9 337.3 M 456.9 348.8 Q 461.3 348.8, 463.6 345.9 Q 465.9 343.0, 465.9 337.3 Q 465.9 331.8, 463.6 329.0 Q 461.3 326.1, 456.9 326.1 Q 452.6 326.1, 450.3 328.9 Q 447.9 331.7, 447.9 337.3 Q 447.9 343.1, 450.3 345.9 Q 452.6 348.8, 456.9 348.8 " fill="#FF0000"/>
<path class="atom-12" d="M 62.2 228.6 L 66.3 224.3 L 60.8 223.2 L 61.6 220.4 L 66.7 222.9 L 66.0 217.4 L 69.0 217.3 L 68.2 222.9 L 73.3 220.5 L 74.2 223.2 L 68.6 224.3 L 72.6 228.5 L 70.2 230.3 L 67.4 225.0 L 64.6 230.3 L 62.2 228.6 " fill="#191919"/>
<path class="atom-13" d="M 148.6 62.4 Q 148.6 55.6, 152.0 51.8 Q 155.4 48.0, 161.6 48.0 Q 167.9 48.0, 171.3 51.8 Q 174.6 55.6, 174.6 62.4 Q 174.6 69.3, 171.2 73.2 Q 167.8 77.1, 161.6 77.1 Q 155.4 77.1, 152.0 73.2 Q 148.6 69.3, 148.6 62.4 M 161.6 73.9 Q 166.0 73.9, 168.3 71.0 Q 170.6 68.1, 170.6 62.4 Q 170.6 56.8, 168.3 54.0 Q 166.0 51.2, 161.6 51.2 Q 157.3 51.2, 155.0 54.0 Q 152.6 56.8, 152.6 62.4 Q 152.6 68.1, 155.0 71.0 Q 157.3 73.9, 161.6 73.9 " fill="#FF0000"/>
<path class="bond-0 atom-0 atom-1" d="M 801.0,496.1 L 787.3,539.3" style="fill:none;fill-rule:evenodd;stroke:#191919;stroke-width:2.0px;stroke-linecap:butt;stroke-linejoin:miter;stroke-opacity:1"/>
<path class="bond-0 atom-0 atom-1" d="M 787.3,539.3 L 773.5,582.5" style="fill:none;fill-rule:evenodd;stroke:#FF0000;stroke-width:2.0px;stroke-linecap:butt;stroke-linejoin:miter;stroke-opacity:1"/>
<path class="bond-1 atom-1 atom-2" d="M 751.1,604.1 L 704.8,614.3" style="fill:none;fill-rule:evenodd;stroke:#FF0000;stroke-width:2.0px;stroke-linecap:butt;stroke-linejoin:miter;stroke-opacity:1"/>
<path class="bond-1 atom-1 atom-2" d="M 704.8,614.3 L 658.5,624.5" style="fill:none;fill-rule:evenodd;stroke:#000000;stroke-width:2.0px;stroke-linecap:butt;stroke-linejoin:miter;stroke-opacity:1"/>
<path class="bond-2 atom-2 atom-3" d="M 658.5,624.5 L 624.7,731.2" style="fill:none;fill-rule:evenodd;stroke:#000000;stroke-width:2.0px;stroke-linecap:butt;stroke-linejoin:miter;stroke-opacity:1"/>
<path class="bond-3 atom-2 atom-4" d="M 658.5,624.5 L 583.1,541.9" style="fill:none;fill-rule:evenodd;stroke:#000000;stroke-width:2.0px;stroke-linecap:butt;stroke-linejoin:miter;stroke-opacity:1"/>
<path class="bond-4 atom-4 atom-5" d="M 583.1,541.9 L 473.8,565.9" style="fill:none;fill-rule:evenodd;stroke:#000000;stroke-width:2.0px;stroke-linecap:butt;stroke-linejoin:miter;stroke-opacity:1"/>
<path class="bond-5 atom-5 atom-6" d="M 473.8,565.9 L 437.1,525.7" style="fill:none;fill-rule:evenodd;stroke:#000000;stroke-width:2.0px;stroke-linecap:butt;stroke-linejoin:miter;stroke-opacity:1"/>
<path class="bond-5 atom-5 atom-6" d="M 437.1,525.7 L 400.4,485.5" style="fill:none;fill-rule:evenodd;stroke:#191919;stroke-width:2.0px;stroke-linecap:butt;stroke-linejoin:miter;stroke-opacity:1"/>
<path class="bond-6 atom-5 atom-7" d="M 467.2,558.7 L 452.4,605.4" style="fill:none;fill-rule:evenodd;stroke:#000000;stroke-width:2.0px;stroke-linecap:butt;stroke-linejoin:miter;stroke-opacity:1"/>
<path class="bond-6 atom-5 atom-7" d="M 452.4,605.4 L 437.6,652.0" style="fill:none;fill-rule:evenodd;stroke:#FF0000;stroke-width:2.0px;stroke-linecap:butt;stroke-linejoin:miter;stroke-opacity:1"/>
<path class="bond-6 atom-5 atom-7" d="M 483.2,563.8 L 468.4,610.4" style="fill:none;fill-rule:evenodd;stroke:#000000;stroke-width:2.0px;stroke-linecap:butt;stroke-linejoin:miter;stroke-opacity:1"/>
<path class="bond-6 atom-5 atom-7" d="M 468.4,610.4 L 453.6,657.1" style="fill:none;fill-rule:evenodd;stroke:#FF0000;stroke-width:2.0px;stroke-linecap:butt;stroke-linejoin:miter;stroke-opacity:1"/>
<path d="M 586.8,546.0 L 583.1,541.9 L 577.6,543.1" style="fill:none;stroke:#000000;stroke-width:2.0px;stroke-linecap:butt;stroke-linejoin:miter;stroke-opacity:1;"/>
<path d="M 479.2,564.7 L 473.8,565.9 L 471.9,563.9" style="fill:none;stroke:#000000;stroke-width:2.0px;stroke-linecap:butt;stroke-linejoin:miter;stroke-opacity:1;"/>
<path class="atom-0" d="M 796.3 490.7 L 800.5 486.4 L 795.0 485.3 L 795.8 482.5 L 800.9 485.0 L 800.2 479.5 L 803.2 479.4 L 802.3 485.0 L 807.5 482.6 L 808.4 485.3 L 802.8 486.3 L 806.8 490.6 L 804.3 492.4 L 801.6 487.1 L 798.8 492.4 L 796.3 490.7 " fill="#191919"/>
<path class="atom-1" d="M 754.8 600.6 Q 754.8 593.8, 758.2 590.0 Q 761.6 586.2, 767.8 586.2 Q 774.1 586.2, 777.5 590.0 Q 780.8 593.8, 780.8 600.6 Q 780.8 607.4, 777.4 611.4 Q 774.0 615.2, 767.8 615.2 Q 761.6 615.2, 758.2 611.4 Q 754.8 607.5, 754.8 600.6 M 767.8 612.0 Q 772.2 612.0, 774.5 609.2 Q 776.8 606.2, 776.8 600.6 Q 776.8 595.0, 774.5 592.2 Q 772.2 589.4, 767.8 589.4 Q 763.5 589.4, 761.2 592.2 Q 758.8 595.0, 758.8 600.6 Q 758.8 606.3, 761.2 609.2 Q 763.5 612.0, 767.8 612.0 " fill="#FF0000"/>
<path class="atom-6" d="M 393.0 480.1 L 397.1 475.8 L 391.6 474.7 L 392.5 471.9 L 397.5 474.4 L 396.8 468.9 L 399.8 468.8 L 399.0 474.4 L 404.1 472.0 L 405.0 474.7 L 399.4 475.8 L 403.4 480.0 L 401.0 481.8 L 398.2 476.5 L 395.4 481.8 L 393.0 480.1 " fill="#191919"/>
<path class="atom-7" d="M 426.9 672.6 Q 426.9 665.8, 430.3 662.0 Q 433.7 658.2, 439.9 658.2 Q 446.2 658.2, 449.6 662.0 Q 452.9 665.8, 452.9 672.6 Q 452.9 679.5, 449.5 683.4 Q 446.1 687.3, 439.9 687.3 Q 433.7 687.3, 430.3 683.4 Q 426.9 679.5, 426.9 672.6 M 439.9 684.1 Q 444.3 684.1, 446.6 681.2 Q 448.9 678.3, 448.9 672.6 Q 448.9 667.1, 446.6 664.3 Q 444.3 661.4, 439.9 661.4 Q 435.6 661.4, 433.3 664.2 Q 430.9 667.0, 430.9 672.6 Q 430.9 678.3, 433.3 681.2 Q 435.6 684.1, 439.9 684.1 " fill="#FF0000"/>
</svg>