<svg xmlns="http://www.w3.org/2000/svg" xmlns:rdkit="http://www.rdkit.org/xml" xmlns:xlink="http://www.w3.org/1999/xlink" version="1.1" baseProfile="full" xml:space="preserve" width="1200px" height="1200px" viewBox="0 0 1200 1200">
<!-- END OF HEADER -->
<rect style="opacity:1.0;fill:#FFFFFF;stroke:none" width="1200.0" height="1200.0" x="0.0" y="0.0"> </rect>
<path class="bond-0 atom-0 atom-1" d="M 348.5,182.2 L 387.5,174.6" style="fill:none;fill-rule:evenodd;stroke:#191919;stroke-width:2.0px;stroke-linecap:butt;stroke-linejoin:miter;stroke-opacity:1"/>
<path class="bond-0 atom-0 atom-1" d="M 387.5,174.6 L 426.4,167.0" style="fill:none;fill-rule:evenodd;stroke:#000000;stroke-width:2.0px;stroke-linecap:butt;stroke-linejoin:miter;stroke-opacity:1"/>
<path class="bond-1 atom-1 atom-2" d="M 426.4,167.0 L 448.6,192.6" style="fill:none;fill-rule:evenodd;stroke:#000000;stroke-width:2.0px;stroke-linecap:butt;stroke-linejoin:miter;stroke-opacity:1"/>
<path class="bond-1 atom-1 atom-2" d="M 448.6,192.6 L 470.9,218.1" style="fill:none;fill-rule:evenodd;stroke:#FF0000;stroke-width:2.0px;stroke-linecap:butt;stroke-linejoin:miter;stroke-opacity:1"/>
<path class="bond-2 atom-2 atom-3" d="M 498.8,230.9 L 535.0,223.8" style="fill:none;fill-rule:evenodd;stroke:#FF0000;stroke-width:2.0px;stroke-linecap:butt;stroke-linejoin:miter;stroke-opacity:1"/>
<path class="bond-2 atom-2 atom-3" d="M 535.0,223.8 L 571.1,216.8" style="fill:none;fill-rule:evenodd;stroke:#000000;stroke-width:2.0px;stroke-linecap:butt;stroke-linejoin:miter;stroke-opacity:1"/>
<path class="bond-3 atom-3 atom-4" d="M 571.1,216.8 L 582.7,183.0" style="fill:none;fill-rule:evenodd;stroke:#000000;stroke-width:2.0px;stroke-linecap:butt;stroke-linejoin:miter;stroke-opacity:1"/>
<path class="bond-3 atom-3 atom-4" d="M 582.7,183.0 L 594.4,149.2" style="fill:none;fill-rule:evenodd;stroke:#FF0000;stroke-width:2.0px;stroke-linecap:butt;stroke-linejoin:miter;stroke-opacity:1"/>
<path class="bond-4 atom-4 atom-5" d="M 614.2,130.4 L 650.4,123.3" style="fill:none;fill-rule:evenodd;stroke:#FF0000;stroke-width:2.0px;stroke-linecap:butt;stroke-linejoin:miter;stroke-opacity:1"/>
<path class="bond-4 atom-4 atom-5" d="M 650.4,123.3 L 686.5,116.3" style="fill:none;fill-rule:evenodd;stroke:#000000;stroke-width:2.0px;stroke-linecap:butt;stroke-linejoin:miter;stroke-opacity:1"/>
<path class="bond-5 atom-5 atom-6" d="M 686.5,116.3 L 700.6,75.3" style="fill:none;fill-rule:evenodd;stroke:#000000;stroke-width:2.0px;stroke-linecap:butt;stroke-linejoin:miter;stroke-opacity:1"/>
<path class="bond-5 atom-5 atom-6" d="M 700.6,75.3 L 714.7,34.4" style="fill:none;fill-rule:evenodd;stroke:#191919;stroke-width:2.0px;stroke-linecap:butt;stroke-linejoin:miter;stroke-opacity:1"/>
<path class="bond-6 atom-5 atom-7" d="M 686.5,116.3 L 744.6,182.9" style="fill:none;fill-rule:evenodd;stroke:#000000;stroke-width:2.0px;stroke-linecap:butt;stroke-linejoin:miter;stroke-opacity:1"/>
<path class="bond-7 atom-7 atom-8" d="M 744.6,182.9 L 780.7,175.9" style="fill:none;fill-rule:evenodd;stroke:#000000;stroke-width:2.0px;stroke-linecap:butt;stroke-linejoin:miter;stroke-opacity:1"/>
<path class="bond-7 atom-7 atom-8" d="M 780.7,175.9 L 816.9,168.8" style="fill:none;fill-rule:evenodd;stroke:#FF0000;stroke-width:2.0px;stroke-linecap:butt;stroke-linejoin:miter;stroke-opacity:1"/>
<path class="bond-8 atom-7 atom-9" d="M 744.6,182.9 L 715.9,266.5" style="fill:none;fill-rule:evenodd;stroke:#000000;stroke-width:2.0px;stroke-linecap:butt;stroke-linejoin:miter;stroke-opacity:1"/>
<path class="bond-9 atom-9 atom-10" d="M 715.9,266.5 L 738.1,292.0" style="fill:none;fill-rule:evenodd;stroke:#000000;stroke-width:2.0px;stroke-linecap:butt;stroke-linejoin:miter;stroke-opacity:1"/>
<path class="bond-9 atom-9 atom-10" d="M 738.1,292.0 L 760.3,317.5" style="fill:none;fill-rule:evenodd;stroke:#FF0000;stroke-width:2.0px;stroke-linecap:butt;stroke-linejoin:miter;stroke-opacity:1"/>
<path class="bond-10 atom-9 atom-11" d="M 715.9,266.5 L 629.1,283.4" style="fill:none;fill-rule:evenodd;stroke:#000000;stroke-width:2.0px;stroke-linecap:butt;stroke-linejoin:miter;stroke-opacity:1"/>
<path class="bond-11 atom-11 atom-12" d="M 629.1,283.4 L 617.5,317.4" style="fill:none;fill-rule:evenodd;stroke:#000000;stroke-width:2.0px;stroke-linecap:butt;stroke-linejoin:miter;stroke-opacity:1"/>
<path class="bond-11 atom-11 atom-12" d="M 617.5,317.4 L 605.8,351.4" style="fill:none;fill-rule:evenodd;stroke:#FF0000;stroke-width:2.0px;stroke-linecap:butt;stroke-linejoin:miter;stroke-opacity:1"/>
<path class="bond-12 atom-11 atom-3" d="M 629.1,283.4 L 571.1,216.8" style="fill:none;fill-rule:evenodd;stroke:#000000;stroke-width:2.0px;stroke-linecap:butt;stroke-linejoin:miter;stroke-opacity:1"/>
<path d="M 424.5,167.4 L 426.4,167.0 L 427.5,168.3" style="fill:none;stroke:#000000;stroke-width:2.0px;stroke-linecap:butt;stroke-linejoin:miter;stroke-opacity:1;"/>
<path class="atom-0" d="M 335.0 181.2 L 338.6 177.4 L 333.8 176.4 L 334.5 173.9 L 339.0 176.2 L 338.4 171.3 L 341.0 171.2 L 340.3 176.2 L 344.8 174.0 L 345.6 176.4 L 340.7 177.4 L 344.2 181.1 L 342.0 182.7 L 339.6 178.0 L 337.1 182.7 L 335.0 181.2 " fill="#191919"/>
<path class="atom-2" d="M 472.9 233.8 Q 472.9 227.7, 475.9 224.4 Q 478.9 221.0, 484.4 221.0 Q 490.0 221.0, 492.9 224.4 Q 495.9 227.7, 495.9 233.8 Q 495.9 239.8, 492.9 243.3 Q 489.9 246.7, 484.4 246.7 Q 478.9 246.7, 475.9 243.3 Q 472.9 239.9, 472.9 233.8 M 484.4 243.9 Q 488.2 243.9, 490.3 241.4 Q 492.4 238.8, 492.4 233.8 Q 492.4 228.8, 490.3 226.4 Q 488.2 223.9, 484.4 223.9 Q 480.6 223.9, 478.5 226.3 Q 476.5 228.8, 476.5 233.8 Q 476.5 238.8, 478.5 241.4 Q 480.6 243.9, 484.4 243.9 " fill="#FF0000"/>
<path class="atom-4" d="M 588.3 133.3 Q 588.3 127.3, 591.3 123.9 Q 594.3 120.6, 599.8 120.6 Q 605.4 120.6, 608.3 123.9 Q 611.3 127.3, 611.3 133.3 Q 611.3 139.4, 608.3 142.8 Q 605.3 146.2, 599.8 146.2 Q 594.3 146.2, 591.3 142.8 Q 588.3 139.4, 588.3 133.3 M 599.8 143.4 Q 603.6 143.4, 605.7 140.9 Q 607.8 138.3, 607.8 133.3 Q 607.8 128.4, 605.7 125.9 Q 603.6 123.4, 599.8 123.4 Q 596.0 123.4, 593.9 125.9 Q 591.9 128.3, 591.9 133.3 Q 591.9 138.3, 593.9 140.9 Q 596.0 143.4, 599.8 143.4 " fill="#FF0000"/>
<path class="atom-6" d="M 710.5 29.9 L 714.2 26.2 L 709.3 25.2 L 710.1 22.7 L 714.6 24.9 L 713.9 20.0 L 716.6 20.0 L 715.8 24.9 L 720.4 22.8 L 721.2 25.2 L 716.2 26.1 L 719.8 29.9 L 717.6 31.5 L 715.2 26.8 L 712.7 31.5 L 710.5 29.9 " fill="#191919"/>
<path class="atom-8" d="M 819.8 166.1 Q 819.8 160.1, 822.8 156.7 Q 825.7 153.3, 831.3 153.3 Q 836.8 153.3, 839.8 156.7 Q 842.8 160.1, 842.8 166.1 Q 842.8 172.1, 839.8 175.6 Q 836.8 179.0, 831.3 179.0 Q 825.8 179.0, 822.8 175.6 Q 819.8 172.2, 819.8 166.1 M 831.3 176.2 Q 835.1 176.2, 837.1 173.7 Q 839.2 171.1, 839.2 166.1 Q 839.2 161.2, 837.1 158.7 Q 835.1 156.2, 831.3 156.2 Q 827.5 156.2, 825.4 158.6 Q 823.3 161.1, 823.3 166.1 Q 823.3 171.1, 825.4 173.7 Q 827.5 176.2, 831.3 176.2 " fill="#FF0000"/>
<path class="atom-8" d="M 846.7 153.6 L 850.1 153.6 L 850.1 164.3 L 862.8 164.3 L 862.8 153.6 L 866.2 153.6 L 866.2 178.7 L 862.8 178.7 L 862.8 167.1 L 850.1 167.1 L 850.1 178.7 L 846.7 178.7 L 846.7 153.6 " fill="#FF0000"/>
<path class="atom-10" d="M 762.4 333.2 Q 762.4 327.2, 765.4 323.8 Q 768.3 320.5, 773.9 320.5 Q 779.4 320.5, 782.4 323.8 Q 785.4 327.2, 785.4 333.2 Q 785.4 339.3, 782.4 342.7 Q 779.3 346.2, 773.9 346.2 Q 768.4 346.2, 765.4 342.7 Q 762.4 339.3, 762.4 333.2 M 773.9 343.3 Q 777.7 343.3, 779.7 340.8 Q 781.8 338.2, 781.8 333.2 Q 781.8 328.3, 779.7 325.8 Q 777.7 323.3, 773.9 323.3 Q 770.1 323.3, 768.0 325.8 Q 765.9 328.2, 765.9 333.2 Q 765.9 338.2, 768.0 340.8 Q 770.1 343.3, 773.9 343.3 " fill="#FF0000"/>
<path class="atom-10" d="M 789.2 320.7 L 792.6 320.7 L 792.6 331.4 L 805.4 331.4 L 805.4 320.7 L 808.8 320.7 L 808.8 345.8 L 805.4 345.8 L 805.4 334.2 L 792.6 334.2 L 792.6 345.8 L 789.2 345.8 L 789.2 320.7 " fill="#FF0000"/>
<path class="atom-12" d="M 589.0 367.0 Q 589.0 361.0, 591.9 357.7 Q 594.9 354.3, 600.4 354.3 Q 606.0 354.3, 609.0 357.7 Q 611.9 361.0, 611.9 367.0 Q 611.9 373.1, 608.9 376.6 Q 605.9 380.0, 600.4 380.0 Q 594.9 380.0, 591.9 376.6 Q 589.0 373.1, 589.0 367.0 M 600.4 377.2 Q 604.3 377.2, 606.3 374.6 Q 608.4 372.0, 608.4 367.0 Q 608.4 362.1, 606.3 359.6 Q 604.3 357.1, 600.4 357.1 Q 596.6 357.1, 594.5 359.6 Q 592.5 362.1, 592.5 367.0 Q 592.5 372.1, 594.5 374.6 Q 596.6 377.2, 600.4 377.2 " fill="#FF0000"/>
<path class="atom-12" d="M 615.8 354.6 L 619.2 354.6 L 619.2 365.2 L 632.0 365.2 L 632.0 354.6 L 635.4 354.6 L 635.4 379.6 L 632.0 379.6 L 632.0 368.1 L 619.2 368.1 L 619.2 379.6 L 615.8 379.6 L 615.8 354.6 " fill="#FF0000"/>
<path class="bond-0 atom-0 atom-1" d="M 401.1,683.7 L 433.5,692.4" style="fill:none;fill-rule:evenodd;stroke:#191919;stroke-width:2.0px;stroke-linecap:butt;stroke-linejoin:miter;stroke-opacity:1"/>
<path class="bond-0 atom-0 atom-1" d="M 433.5,692.4 L 465.9,701.1" style="fill:none;fill-rule:evenodd;stroke:#FF0000;stroke-width:2.0px;stroke-linecap:butt;stroke-linejoin:miter;stroke-opacity:1"/>
<path class="bond-1 atom-1 atom-2" d="M 494.7,690.5 L 518.8,666.5" style="fill:none;fill-rule:evenodd;stroke:#FF0000;stroke-width:2.0px;stroke-linecap:butt;stroke-linejoin:miter;stroke-opacity:1"/>
<path class="bond-1 atom-1 atom-2" d="M 518.8,666.5 L 542.8,642.5" style="fill:none;fill-rule:evenodd;stroke:#000000;stroke-width:2.0px;stroke-linecap:butt;stroke-linejoin:miter;stroke-opacity:1"/>
<path class="bond-2 atom-2 atom-3" d="M 542.8,642.5 L 519.9,557.1" style="fill:none;fill-rule:evenodd;stroke:#000000;stroke-width:2.0px;stroke-linecap:butt;stroke-linejoin:miter;stroke-opacity:1"/>
<path class="bond-3 atom-3 atom-4" d="M 519.9,557.1 L 434.6,534.3" style="fill:none;fill-rule:evenodd;stroke:#000000;stroke-width:2.0px;stroke-linecap:butt;stroke-linejoin:miter;stroke-opacity:1"/>
<path class="bond-4 atom-4 atom-5" d="M 434.6,534.3 L 425.3,499.6" style="fill:none;fill-rule:evenodd;stroke:#000000;stroke-width:2.0px;stroke-linecap:butt;stroke-linejoin:miter;stroke-opacity:1"/>
<path class="bond-4 atom-4 atom-5" d="M 425.3,499.6 L 416.0,464.9" style="fill:none;fill-rule:evenodd;stroke:#FF0000;stroke-width:2.0px;stroke-linecap:butt;stroke-linejoin:miter;stroke-opacity:1"/>
<path class="bond-5 atom-3 atom-6" d="M 519.9,557.1 L 544.0,533.1" style="fill:none;fill-rule:evenodd;stroke:#000000;stroke-width:2.0px;stroke-linecap:butt;stroke-linejoin:miter;stroke-opacity:1"/>
<path class="bond-5 atom-3 atom-6" d="M 544.0,533.1 L 568.0,509.1" style="fill:none;fill-rule:evenodd;stroke:#FF0000;stroke-width:2.0px;stroke-linecap:butt;stroke-linejoin:miter;stroke-opacity:1"/>
<path class="bond-6 atom-6 atom-7" d="M 596.8,498.5 L 632.3,508.0" style="fill:none;fill-rule:evenodd;stroke:#FF0000;stroke-width:2.0px;stroke-linecap:butt;stroke-linejoin:miter;stroke-opacity:1"/>
<path class="bond-6 atom-6 atom-7" d="M 632.3,508.0 L 667.8,517.5" style="fill:none;fill-rule:evenodd;stroke:#000000;stroke-width:2.0px;stroke-linecap:butt;stroke-linejoin:miter;stroke-opacity:1"/>
<path class="bond-7 atom-7 atom-8" d="M 667.8,517.5 L 698.2,487.1" style="fill:none;fill-rule:evenodd;stroke:#000000;stroke-width:2.0px;stroke-linecap:butt;stroke-linejoin:miter;stroke-opacity:1"/>
<path class="bond-7 atom-7 atom-8" d="M 698.2,487.1 L 728.6,456.7" style="fill:none;fill-rule:evenodd;stroke:#191919;stroke-width:2.0px;stroke-linecap:butt;stroke-linejoin:miter;stroke-opacity:1"/>
<path class="bond-8 atom-7 atom-9" d="M 667.8,517.5 L 690.6,602.9" style="fill:none;fill-rule:evenodd;stroke:#000000;stroke-width:2.0px;stroke-linecap:butt;stroke-linejoin:miter;stroke-opacity:1"/>
<path class="bond-9 atom-9 atom-10" d="M 690.6,602.9 L 726.1,612.4" style="fill:none;fill-rule:evenodd;stroke:#000000;stroke-width:2.0px;stroke-linecap:butt;stroke-linejoin:miter;stroke-opacity:1"/>
<path class="bond-9 atom-9 atom-10" d="M 726.1,612.4 L 761.6,621.9" style="fill:none;fill-rule:evenodd;stroke:#FF0000;stroke-width:2.0px;stroke-linecap:butt;stroke-linejoin:miter;stroke-opacity:1"/>
<path class="bond-10 atom-9 atom-11" d="M 690.6,602.9 L 628.2,665.3" style="fill:none;fill-rule:evenodd;stroke:#000000;stroke-width:2.0px;stroke-linecap:butt;stroke-linejoin:miter;stroke-opacity:1"/>
<path class="bond-11 atom-11 atom-12" d="M 628.2,665.3 L 637.5,700.2" style="fill:none;fill-rule:evenodd;stroke:#000000;stroke-width:2.0px;stroke-linecap:butt;stroke-linejoin:miter;stroke-opacity:1"/>
<path class="bond-11 atom-11 atom-12" d="M 637.5,700.2 L 646.8,735.1" style="fill:none;fill-rule:evenodd;stroke:#FF0000;stroke-width:2.0px;stroke-linecap:butt;stroke-linejoin:miter;stroke-opacity:1"/>
<path class="bond-12 atom-11 atom-2" d="M 628.2,665.3 L 542.8,642.5" style="fill:none;fill-rule:evenodd;stroke:#000000;stroke-width:2.0px;stroke-linecap:butt;stroke-linejoin:miter;stroke-opacity:1"/>
<path d="M 438.9,535.4 L 434.6,534.3 L 434.1,532.5" style="fill:none;stroke:#000000;stroke-width:2.0px;stroke-linecap:butt;stroke-linejoin:miter;stroke-opacity:1;"/>
<path class="atom-0" d="M 390.3 679.3 L 394.0 675.5 L 389.1 674.6 L 389.8 672.0 L 394.3 674.3 L 393.7 669.4 L 396.3 669.4 L 395.6 674.3 L 400.1 672.2 L 400.9 674.6 L 396.0 675.5 L 399.5 679.3 L 397.3 680.8 L 394.9 676.1 L 392.4 680.8 L 390.3 679.3 " fill="#191919"/>
<path class="atom-1" d="M 468.8 705.0 Q 468.8 699.0, 471.8 695.7 Q 474.8 692.3, 480.3 692.3 Q 485.9 692.3, 488.9 695.7 Q 491.8 699.0, 491.8 705.0 Q 491.8 711.1, 488.8 714.6 Q 485.8 718.0, 480.3 718.0 Q 474.8 718.0, 471.8 714.6 Q 468.8 711.1, 468.8 705.0 M 480.3 715.2 Q 484.2 715.2, 486.2 712.6 Q 488.3 710.0, 488.3 705.0 Q 488.3 700.1, 486.2 697.6 Q 484.2 695.1, 480.3 695.1 Q 476.5 695.1, 474.4 697.6 Q 472.4 700.1, 472.4 705.0 Q 472.4 710.1, 474.4 712.6 Q 476.5 715.2, 480.3 715.2 " fill="#FF0000"/>
<path class="atom-5" d="M 400.2 449.0 Q 400.2 443.0, 403.2 439.6 Q 406.2 436.3, 411.7 436.3 Q 417.3 436.3, 420.3 439.6 Q 423.2 443.0, 423.2 449.0 Q 423.2 455.1, 420.2 458.5 Q 417.2 462.0, 411.7 462.0 Q 406.2 462.0, 403.2 458.5 Q 400.2 455.1, 400.2 449.0 M 411.7 459.1 Q 415.6 459.1, 417.6 456.6 Q 419.7 454.0, 419.7 449.0 Q 419.7 444.1, 417.6 441.6 Q 415.6 439.1, 411.7 439.1 Q 407.9 439.1, 405.8 441.6 Q 403.8 444.0, 403.8 449.0 Q 403.8 454.1, 405.8 456.6 Q 407.9 459.1, 411.7 459.1 " fill="#FF0000"/>
<path class="atom-5" d="M 427.1 436.6 L 430.5 436.6 L 430.5 447.2 L 443.3 447.2 L 443.3 436.6 L 446.7 436.6 L 446.7 461.6 L 443.3 461.6 L 443.3 450.0 L 430.5 450.0 L 430.5 461.6 L 427.1 461.6 L 427.1 436.6 " fill="#FF0000"/>
<path class="atom-6" d="M 570.9 494.7 Q 570.9 488.7, 573.9 485.4 Q 576.9 482.0, 582.4 482.0 Q 588.0 482.0, 590.9 485.4 Q 593.9 488.7, 593.9 494.7 Q 593.9 500.8, 590.9 504.3 Q 587.9 507.7, 582.4 507.7 Q 576.9 507.7, 573.9 504.3 Q 570.9 500.8, 570.9 494.7 M 582.4 504.9 Q 586.2 504.9, 588.3 502.3 Q 590.4 499.7, 590.4 494.7 Q 590.4 489.8, 588.3 487.3 Q 586.2 484.8, 582.4 484.8 Q 578.6 484.8, 576.5 487.3 Q 574.5 489.8, 574.5 494.7 Q 574.5 499.8, 576.5 502.3 Q 578.6 504.9, 582.4 504.9 " fill="#FF0000"/>
<path class="atom-8" d="M 725.5 452.3 L 729.2 448.5 L 724.3 447.5 L 725.1 445.0 L 729.5 447.3 L 728.9 442.4 L 731.6 442.3 L 730.8 447.2 L 735.4 445.1 L 736.2 447.5 L 731.2 448.4 L 734.7 452.2 L 732.6 453.8 L 730.1 449.1 L 727.7 453.8 L 725.5 452.3 " fill="#191919"/>
<path class="atom-10" d="M 764.5 625.8 Q 764.5 619.8, 767.4 616.4 Q 770.4 613.1, 776.0 613.1 Q 781.5 613.1, 784.5 616.4 Q 787.5 619.8, 787.5 625.8 Q 787.5 631.9, 784.4 635.3 Q 781.4 638.8, 776.0 638.8 Q 770.5 638.8, 767.4 635.3 Q 764.5 631.9, 764.5 625.8 M 776.0 635.9 Q 779.8 635.9, 781.8 633.4 Q 783.9 630.8, 783.9 625.8 Q 783.9 620.9, 781.8 618.4 Q 779.8 615.9, 776.0 615.9 Q 772.1 615.9, 770.1 618.4 Q 768.0 620.9, 768.0 625.8 Q 768.0 630.9, 770.1 633.4 Q 772.1 635.9, 776.0 635.9 " fill="#FF0000"/>
<path class="atom-10" d="M 791.3 613.4 L 794.7 613.4 L 794.7 624.0 L 807.5 624.0 L 807.5 613.4 L 810.9 613.4 L 810.9 638.4 L 807.5 638.4 L 807.5 626.8 L 794.7 626.8 L 794.7 638.4 L 791.3 638.4 L 791.3 613.4 " fill="#FF0000"/>
<path class="atom-12" d="M 639.5 750.8 Q 639.5 744.7, 642.5 741.4 Q 645.5 738.0, 651.0 738.0 Q 656.6 738.0, 659.5 741.4 Q 662.5 744.7, 662.5 750.8 Q 662.5 756.8, 659.5 760.3 Q 656.5 763.7, 651.0 763.7 Q 645.5 763.7, 642.5 760.3 Q 639.5 756.9, 639.5 750.8 M 651.0 760.9 Q 654.8 760.9, 656.9 758.4 Q 659.0 755.8, 659.0 750.8 Q 659.0 745.8, 656.9 743.4 Q 654.8 740.9, 651.0 740.9 Q 647.2 740.9, 645.1 743.3 Q 643.1 745.8, 643.1 750.8 Q 643.1 755.8, 645.1 758.4 Q 647.2 760.9, 651.0 760.9 " fill="#FF0000"/>
<path class="atom-12" d="M 666.4 738.3 L 669.8 738.3 L 669.8 749.0 L 682.6 749.0 L 682.6 738.3 L 686.0 738.3 L 686.0 763.3 L 682.6 763.3 L 682.6 751.8 L 669.8 751.8 L 669.8 763.3 L 666.4 763.3 L 666.4 738.3 " fill="#FF0000"/>
<path class="bond-0 atom-0 atom-1" d="M 1017.7,968.7 L 988.4,986.2" style="fill:none;fill-rule:evenodd;stroke:#191919;stroke-width:2.0px;stroke-linecap:butt;stroke-linejoin:miter;stroke-opacity:1"/>
<path class="bond-0 atom-0 atom-1" d="M 988.4,986.2 L 959.0,1003.8" style="fill:none;fill-rule:evenodd;stroke:#FF0000;stroke-width:2.0px;stroke-linecap:butt;stroke-linejoin:miter;stroke-opacity:1"/>
<path class="bond-1 atom-1 atom-2" d="M 930.2,1004.4 L 898.8,987.0" style="fill:none;fill-rule:evenodd;stroke:#FF0000;stroke-width:2.0px;stroke-linecap:butt;stroke-linejoin:miter;stroke-opacity:1"/>
<path class="bond-1 atom-1 atom-2" d="M 898.8,987.0 L 867.4,969.5" style="fill:none;fill-rule:evenodd;stroke:#000000;stroke-width:2.0px;stroke-linecap:butt;stroke-linejoin:miter;stroke-opacity:1"/>
<path class="bond-2 atom-2 atom-3" d="M 867.4,969.5 L 791.6,1015.0" style="fill:none;fill-rule:evenodd;stroke:#000000;stroke-width:2.0px;stroke-linecap:butt;stroke-linejoin:miter;stroke-opacity:1"/>
<path class="bond-3 atom-3 atom-4" d="M 791.6,1015.0 L 714.4,972.1" style="fill:none;fill-rule:evenodd;stroke:#000000;stroke-width:2.0px;stroke-linecap:butt;stroke-linejoin:miter;stroke-opacity:1"/>
<path class="bond-4 atom-4 atom-5" d="M 714.4,972.1 L 638.6,1017.5" style="fill:none;fill-rule:evenodd;stroke:#000000;stroke-width:2.0px;stroke-linecap:butt;stroke-linejoin:miter;stroke-opacity:1"/>
<path class="bond-5 atom-5 atom-6" d="M 638.6,1017.5 L 607.2,1000.0" style="fill:none;fill-rule:evenodd;stroke:#000000;stroke-width:2.0px;stroke-linecap:butt;stroke-linejoin:miter;stroke-opacity:1"/>
<path class="bond-5 atom-5 atom-6" d="M 607.2,1000.0 L 575.8,982.6" style="fill:none;fill-rule:evenodd;stroke:#FF0000;stroke-width:2.0px;stroke-linecap:butt;stroke-linejoin:miter;stroke-opacity:1"/>
<path class="bond-6 atom-6 atom-7" d="M 547.0,983.2 L 516.3,1001.6" style="fill:none;fill-rule:evenodd;stroke:#FF0000;stroke-width:2.0px;stroke-linecap:butt;stroke-linejoin:miter;stroke-opacity:1"/>
<path class="bond-6 atom-6 atom-7" d="M 516.3,1001.6 L 485.6,1020.0" style="fill:none;fill-rule:evenodd;stroke:#000000;stroke-width:2.0px;stroke-linecap:butt;stroke-linejoin:miter;stroke-opacity:1"/>
<path class="bond-7 atom-7 atom-8" d="M 478.9,1016.3 L 479.5,1054.6" style="fill:none;fill-rule:evenodd;stroke:#000000;stroke-width:2.0px;stroke-linecap:butt;stroke-linejoin:miter;stroke-opacity:1"/>
<path class="bond-7 atom-7 atom-8" d="M 479.5,1054.6 L 480.2,1092.9" style="fill:none;fill-rule:evenodd;stroke:#FF0000;stroke-width:2.0px;stroke-linecap:butt;stroke-linejoin:miter;stroke-opacity:1"/>
<path class="bond-7 atom-7 atom-8" d="M 492.2,1016.1 L 492.8,1054.4" style="fill:none;fill-rule:evenodd;stroke:#000000;stroke-width:2.0px;stroke-linecap:butt;stroke-linejoin:miter;stroke-opacity:1"/>
<path class="bond-7 atom-7 atom-8" d="M 492.8,1054.4 L 493.4,1092.7" style="fill:none;fill-rule:evenodd;stroke:#FF0000;stroke-width:2.0px;stroke-linecap:butt;stroke-linejoin:miter;stroke-opacity:1"/>
<path class="bond-8 atom-7 atom-9" d="M 485.6,1020.0 L 408.4,977.1" style="fill:none;fill-rule:evenodd;stroke:#000000;stroke-width:2.0px;stroke-linecap:butt;stroke-linejoin:miter;stroke-opacity:1"/>
<path class="bond-9 atom-9 atom-10" d="M 408.4,977.1 L 332.6,1022.5" style="fill:none;fill-rule:evenodd;stroke:#000000;stroke-width:2.0px;stroke-linecap:butt;stroke-linejoin:miter;stroke-opacity:1"/>
<path class="bond-10 atom-10 atom-11" d="M 332.6,1022.5 L 255.4,979.6" style="fill:none;fill-rule:evenodd;stroke:#000000;stroke-width:2.0px;stroke-linecap:butt;stroke-linejoin:miter;stroke-opacity:1"/>
<path class="bond-11 atom-11 atom-12" d="M 255.4,979.6 L 221.9,999.7" style="fill:none;fill-rule:evenodd;stroke:#000000;stroke-width:2.0px;stroke-linecap:butt;stroke-linejoin:miter;stroke-opacity:1"/>
<path class="bond-11 atom-11 atom-12" d="M 221.9,999.7 L 188.4,1019.7" style="fill:none;fill-rule:evenodd;stroke:#191919;stroke-width:2.0px;stroke-linecap:butt;stroke-linejoin:miter;stroke-opacity:1"/>
<path class="bond-12 atom-11 atom-13" d="M 262.1,983.3 L 261.4,945.2" style="fill:none;fill-rule:evenodd;stroke:#000000;stroke-width:2.0px;stroke-linecap:butt;stroke-linejoin:miter;stroke-opacity:1"/>
<path class="bond-12 atom-11 atom-13" d="M 261.4,945.2 L 260.8,907.1" style="fill:none;fill-rule:evenodd;stroke:#FF0000;stroke-width:2.0px;stroke-linecap:butt;stroke-linejoin:miter;stroke-opacity:1"/>
<path class="bond-12 atom-11 atom-13" d="M 248.8,983.5 L 248.2,945.4" style="fill:none;fill-rule:evenodd;stroke:#000000;stroke-width:2.0px;stroke-linecap:butt;stroke-linejoin:miter;stroke-opacity:1"/>
<path class="bond-12 atom-11 atom-13" d="M 248.2,945.4 L 247.5,907.3" style="fill:none;fill-rule:evenodd;stroke:#FF0000;stroke-width:2.0px;stroke-linecap:butt;stroke-linejoin:miter;stroke-opacity:1"/>
<path d="M 869.0,970.4 L 867.4,969.5 L 863.6,971.8" style="fill:none;stroke:#000000;stroke-width:2.0px;stroke-linecap:butt;stroke-linejoin:miter;stroke-opacity:1;"/>
<path d="M 795.4,1012.7 L 791.6,1015.0 L 787.8,1012.8" style="fill:none;stroke:#000000;stroke-width:2.0px;stroke-linecap:butt;stroke-linejoin:miter;stroke-opacity:1;"/>
<path d="M 718.3,974.2 L 714.4,972.1 L 710.6,974.3" style="fill:none;stroke:#000000;stroke-width:2.0px;stroke-linecap:butt;stroke-linejoin:miter;stroke-opacity:1;"/>
<path d="M 642.4,1015.2 L 638.6,1017.5 L 637.0,1016.6" style="fill:none;stroke:#000000;stroke-width:2.0px;stroke-linecap:butt;stroke-linejoin:miter;stroke-opacity:1;"/>
<path d="M 487.1,1019.1 L 485.6,1020.0 L 481.7,1017.9" style="fill:none;stroke:#000000;stroke-width:2.0px;stroke-linecap:butt;stroke-linejoin:miter;stroke-opacity:1;"/>
<path d="M 412.2,979.2 L 408.4,977.1 L 404.6,979.4" style="fill:none;stroke:#000000;stroke-width:2.0px;stroke-linecap:butt;stroke-linejoin:miter;stroke-opacity:1;"/>
<path d="M 336.4,1020.2 L 332.6,1022.5 L 328.7,1020.4" style="fill:none;stroke:#000000;stroke-width:2.0px;stroke-linecap:butt;stroke-linejoin:miter;stroke-opacity:1;"/>
<path d="M 259.2,981.8 L 255.4,979.6 L 253.7,980.6" style="fill:none;stroke:#000000;stroke-width:2.0px;stroke-linecap:butt;stroke-linejoin:miter;stroke-opacity:1;"/>
<path class="atom-0" d="M 1015.7 964.2 L 1019.4 960.5 L 1014.5 959.5 L 1015.2 957.0 L 1019.7 959.2 L 1019.1 954.3 L 1021.7 954.3 L 1021.0 959.2 L 1025.6 957.1 L 1026.3 959.5 L 1021.4 960.4 L 1024.9 964.2 L 1022.8 965.7 L 1020.3 961.1 L 1017.8 965.7 L 1015.7 964.2 " fill="#191919"/>
<path class="atom-1" d="M 933.1 1012.5 Q 933.1 1006.5, 936.1 1003.1 Q 939.1 999.8, 944.6 999.8 Q 950.2 999.8, 953.2 1003.1 Q 956.1 1006.5, 956.1 1012.5 Q 956.1 1018.6, 953.1 1022.1 Q 950.1 1025.5, 944.6 1025.5 Q 939.1 1025.5, 936.1 1022.1 Q 933.1 1018.6, 933.1 1012.5 M 944.6 1022.7 Q 948.5 1022.7, 950.5 1020.1 Q 952.6 1017.5, 952.6 1012.5 Q 952.6 1007.6, 950.5 1005.1 Q 948.5 1002.6, 944.6 1002.6 Q 940.8 1002.6, 938.7 1005.1 Q 936.7 1007.6, 936.7 1012.5 Q 936.7 1017.6, 938.7 1020.1 Q 940.8 1022.7, 944.6 1022.7 " fill="#FF0000"/>
<path class="atom-6" d="M 549.9 974.6 Q 549.9 968.6, 552.9 965.3 Q 555.8 961.9, 561.4 961.9 Q 566.9 961.9, 569.9 965.3 Q 572.9 968.6, 572.9 974.6 Q 572.9 980.7, 569.9 984.2 Q 566.9 987.6, 561.4 987.6 Q 555.9 987.6, 552.9 984.2 Q 549.9 980.8, 549.9 974.6 M 561.4 984.8 Q 565.2 984.8, 567.3 982.2 Q 569.3 979.7, 569.3 974.6 Q 569.3 969.7, 567.3 967.3 Q 565.2 964.7, 561.4 964.7 Q 557.6 964.7, 555.5 967.2 Q 553.4 969.7, 553.4 974.6 Q 553.4 979.7, 555.5 982.2 Q 557.6 984.8, 561.4 984.8 " fill="#FF0000"/>
<path class="atom-8" d="M 475.6 1108.4 Q 475.6 1102.4, 478.5 1099.0 Q 481.5 1095.7, 487.1 1095.7 Q 492.6 1095.7, 495.6 1099.0 Q 498.5 1102.4, 498.5 1108.4 Q 498.5 1114.5, 495.5 1118.0 Q 492.5 1121.4, 487.1 1121.4 Q 481.5 1121.4, 478.5 1118.0 Q 475.6 1114.5, 475.6 1108.4 M 487.1 1118.6 Q 490.9 1118.6, 492.9 1116.0 Q 495.0 1113.4, 495.0 1108.4 Q 495.0 1103.5, 492.9 1101.0 Q 490.9 1098.5, 487.1 1098.5 Q 483.2 1098.5, 481.2 1101.0 Q 479.1 1103.5, 479.1 1108.4 Q 479.1 1113.5, 481.2 1116.0 Q 483.2 1118.6, 487.1 1118.6 " fill="#FF0000"/>
<path class="atom-12" d="M 174.9 1022.2 L 178.5 1018.5 L 173.7 1017.5 L 174.4 1015.0 L 178.9 1017.3 L 178.3 1012.4 L 180.9 1012.3 L 180.2 1017.2 L 184.7 1015.1 L 185.5 1017.5 L 180.6 1018.4 L 184.1 1022.2 L 181.9 1023.8 L 179.5 1019.1 L 177.0 1023.8 L 174.9 1022.2 " fill="#191919"/>
<path class="atom-13" d="M 242.4 891.3 Q 242.4 885.3, 245.4 882.0 Q 248.4 878.6, 253.9 878.6 Q 259.5 878.6, 262.4 882.0 Q 265.4 885.3, 265.4 891.3 Q 265.4 897.4, 262.4 900.9 Q 259.4 904.3, 253.9 904.3 Q 248.4 904.3, 245.4 900.9 Q 242.4 897.5, 242.4 891.3 M 253.9 901.5 Q 257.7 901.5, 259.8 898.9 Q 261.9 896.4, 261.9 891.3 Q 261.9 886.4, 259.8 884.0 Q 257.7 881.4, 253.9 881.4 Q 250.1 881.4, 248.0 883.9 Q 246.0 886.4, 246.0 891.3 Q 246.0 896.4, 248.0 898.9 Q 250.1 901.5, 253.9 901.5 " fill="#FF0000"/>
</svg>