<svg xmlns="http://www.w3.org/2000/svg" xmlns:rdkit="http://www.rdkit.org/xml" xmlns:xlink="http://www.w3.org/1999/xlink" version="1.1" baseProfile="full" xml:space="preserve" width="1200px" height="800px" viewBox="0 0 1200 800">
<!-- END OF HEADER -->
<rect style="opacity:1.0;fill:#FFFFFF;stroke:none" width="1200.0" height="800.0" x="0.0" y="0.0"> </rect>
<path class="bond-0 atom-0 atom-1" d="M 283.7,73.0 L 320.2,57.5" style="fill:none;fill-rule:evenodd;stroke:#191919;stroke-width:2.0px;stroke-linecap:butt;stroke-linejoin:miter;stroke-opacity:1"/>
<path class="bond-0 atom-0 atom-1" d="M 320.2,57.5 L 356.8,41.9" style="fill:none;fill-rule:evenodd;stroke:#FF0000;stroke-width:2.0px;stroke-linecap:butt;stroke-linejoin:miter;stroke-opacity:1"/>
<path class="bond-1 atom-1 atom-2" d="M 389.9,47.3 L 425.0,73.7" style="fill:none;fill-rule:evenodd;stroke:#FF0000;stroke-width:2.0px;stroke-linecap:butt;stroke-linejoin:miter;stroke-opacity:1"/>
<path class="bond-1 atom-1 atom-2" d="M 425.0,73.7 L 460.1,100.1" style="fill:none;fill-rule:evenodd;stroke:#000000;stroke-width:2.0px;stroke-linecap:butt;stroke-linejoin:miter;stroke-opacity:1"/>
<path class="bond-2 atom-2 atom-3" d="M 460.1,100.1 L 560.0,57.6" style="fill:none;fill-rule:evenodd;stroke:#000000;stroke-width:2.0px;stroke-linecap:butt;stroke-linejoin:miter;stroke-opacity:1"/>
<path class="bond-3 atom-3 atom-4" d="M 560.0,57.6 L 646.7,122.9" style="fill:none;fill-rule:evenodd;stroke:#000000;stroke-width:2.0px;stroke-linecap:butt;stroke-linejoin:miter;stroke-opacity:1"/>
<path class="bond-4 atom-4 atom-5" d="M 646.7,122.9 L 746.6,80.4" style="fill:none;fill-rule:evenodd;stroke:#000000;stroke-width:2.0px;stroke-linecap:butt;stroke-linejoin:miter;stroke-opacity:1"/>
<path class="bond-5 atom-5 atom-6" d="M 746.6,80.4 L 833.4,145.6" style="fill:none;fill-rule:evenodd;stroke:#000000;stroke-width:2.0px;stroke-linecap:butt;stroke-linejoin:miter;stroke-opacity:1"/>
<path class="bond-6 atom-6 atom-7" d="M 833.4,145.6 L 933.3,103.1" style="fill:none;fill-rule:evenodd;stroke:#000000;stroke-width:2.0px;stroke-linecap:butt;stroke-linejoin:miter;stroke-opacity:1"/>
<path class="bond-7 atom-2 atom-8" d="M 460.1,100.1 L 447.0,207.9" style="fill:none;fill-rule:evenodd;stroke:#000000;stroke-width:2.0px;stroke-linecap:butt;stroke-linejoin:miter;stroke-opacity:1"/>
<path class="bond-8 atom-8 atom-9" d="M 447.0,207.9 L 533.7,273.1" style="fill:none;fill-rule:evenodd;stroke:#000000;stroke-width:2.0px;stroke-linecap:butt;stroke-linejoin:miter;stroke-opacity:1"/>
<path class="bond-9 atom-9 atom-10" d="M 533.7,273.1 L 528.2,318.0" style="fill:none;fill-rule:evenodd;stroke:#000000;stroke-width:2.0px;stroke-linecap:butt;stroke-linejoin:miter;stroke-opacity:1"/>
<path class="bond-9 atom-9 atom-10" d="M 528.2,318.0 L 522.8,362.9" style="fill:none;fill-rule:evenodd;stroke:#191919;stroke-width:2.0px;stroke-linecap:butt;stroke-linejoin:miter;stroke-opacity:1"/>
<path class="bond-10 atom-9 atom-11" d="M 532.6,282.5 L 576.4,263.8" style="fill:none;fill-rule:evenodd;stroke:#000000;stroke-width:2.0px;stroke-linecap:butt;stroke-linejoin:miter;stroke-opacity:1"/>
<path class="bond-10 atom-9 atom-11" d="M 576.4,263.8 L 620.2,245.2" style="fill:none;fill-rule:evenodd;stroke:#FF0000;stroke-width:2.0px;stroke-linecap:butt;stroke-linejoin:miter;stroke-opacity:1"/>
<path class="bond-10 atom-9 atom-11" d="M 526.2,267.5 L 570.0,248.8" style="fill:none;fill-rule:evenodd;stroke:#000000;stroke-width:2.0px;stroke-linecap:butt;stroke-linejoin:miter;stroke-opacity:1"/>
<path class="bond-10 atom-9 atom-11" d="M 570.0,248.8 L 613.8,230.2" style="fill:none;fill-rule:evenodd;stroke:#FF0000;stroke-width:2.0px;stroke-linecap:butt;stroke-linejoin:miter;stroke-opacity:1"/>
<path d="M 555.0,59.7 L 560.0,57.6 L 564.3,60.9" style="fill:none;stroke:#000000;stroke-width:2.0px;stroke-linecap:butt;stroke-linejoin:miter;stroke-opacity:1;"/>
<path d="M 642.4,119.6 L 646.7,122.9 L 651.7,120.7" style="fill:none;stroke:#000000;stroke-width:2.0px;stroke-linecap:butt;stroke-linejoin:miter;stroke-opacity:1;"/>
<path d="M 741.6,82.5 L 746.6,80.4 L 751.0,83.6" style="fill:none;stroke:#000000;stroke-width:2.0px;stroke-linecap:butt;stroke-linejoin:miter;stroke-opacity:1;"/>
<path d="M 829.0,142.4 L 833.4,145.6 L 838.4,143.5" style="fill:none;stroke:#000000;stroke-width:2.0px;stroke-linecap:butt;stroke-linejoin:miter;stroke-opacity:1;"/>
<path d="M 447.6,202.5 L 447.0,207.9 L 451.3,211.1" style="fill:none;stroke:#000000;stroke-width:2.0px;stroke-linecap:butt;stroke-linejoin:miter;stroke-opacity:1;"/>
<path d="M 529.4,269.9 L 533.7,273.1 L 533.4,275.4" style="fill:none;stroke:#000000;stroke-width:2.0px;stroke-linecap:butt;stroke-linejoin:miter;stroke-opacity:1;"/>
<path class="atom-0" d="M 268.1 74.2 L 272.3 70.0 L 266.7 68.9 L 267.6 66.0 L 272.7 68.6 L 271.9 63.0 L 274.9 63.0 L 274.1 68.5 L 279.3 66.1 L 280.1 68.9 L 274.5 69.9 L 278.5 74.2 L 276.1 75.9 L 273.3 70.7 L 270.5 75.9 L 268.1 74.2 " fill="#191919"/>
<path class="atom-1" d="M 360.3 35.0 Q 360.3 28.2, 363.7 24.4 Q 367.1 20.6, 373.3 20.6 Q 379.6 20.6, 383.0 24.4 Q 386.3 28.2, 386.3 35.0 Q 386.3 41.8, 382.9 45.8 Q 379.5 49.6, 373.3 49.6 Q 367.1 49.6, 363.7 45.8 Q 360.3 41.9, 360.3 35.0 M 373.3 46.4 Q 377.7 46.4, 380.0 43.6 Q 382.3 40.6, 382.3 35.0 Q 382.3 29.4, 380.0 26.6 Q 377.7 23.8, 373.3 23.8 Q 369.0 23.8, 366.7 26.6 Q 364.3 29.4, 364.3 35.0 Q 364.3 40.7, 366.7 43.6 Q 369.0 46.4, 373.3 46.4 " fill="#FF0000"/>
<path class="atom-10" d="M 515.2 377.7 L 519.4 373.5 L 513.9 372.4 L 514.7 369.5 L 519.8 372.1 L 519.1 366.5 L 522.1 366.5 L 521.2 372.0 L 526.4 369.6 L 527.3 372.4 L 521.7 373.4 L 525.7 377.7 L 523.2 379.4 L 520.5 374.2 L 517.7 379.4 L 515.2 377.7 " fill="#191919"/>
<path class="atom-11" d="M 620.6 230.7 Q 620.6 223.9, 624.0 220.1 Q 627.3 216.3, 633.6 216.3 Q 639.9 216.3, 643.2 220.1 Q 646.6 223.9, 646.6 230.7 Q 646.6 237.6, 643.2 241.5 Q 639.8 245.4, 633.6 245.4 Q 627.4 245.4, 624.0 241.5 Q 620.6 237.6, 620.6 230.7 M 633.6 242.2 Q 637.9 242.2, 640.2 239.3 Q 642.6 236.4, 642.6 230.7 Q 642.6 225.1, 640.2 222.3 Q 637.9 219.5, 633.6 219.5 Q 629.3 219.5, 626.9 222.3 Q 624.6 225.1, 624.6 230.7 Q 624.6 236.4, 626.9 239.3 Q 629.3 242.2, 633.6 242.2 " fill="#FF0000"/>
<path class="bond-0 atom-0 atom-1" d="M 795.0,499.4 L 781.7,541.1" style="fill:none;fill-rule:evenodd;stroke:#191919;stroke-width:2.0px;stroke-linecap:butt;stroke-linejoin:miter;stroke-opacity:1"/>
<path class="bond-0 atom-0 atom-1" d="M 781.7,541.1 L 768.5,582.8" style="fill:none;fill-rule:evenodd;stroke:#FF0000;stroke-width:2.0px;stroke-linecap:butt;stroke-linejoin:miter;stroke-opacity:1"/>
<path class="bond-1 atom-1 atom-2" d="M 746.2,604.3 L 701.5,614.2" style="fill:none;fill-rule:evenodd;stroke:#FF0000;stroke-width:2.0px;stroke-linecap:butt;stroke-linejoin:miter;stroke-opacity:1"/>
<path class="bond-1 atom-1 atom-2" d="M 701.5,614.2 L 656.8,624.0" style="fill:none;fill-rule:evenodd;stroke:#000000;stroke-width:2.0px;stroke-linecap:butt;stroke-linejoin:miter;stroke-opacity:1"/>
<path class="bond-2 atom-2 atom-3" d="M 656.8,624.0 L 623.9,727.5" style="fill:none;fill-rule:evenodd;stroke:#000000;stroke-width:2.0px;stroke-linecap:butt;stroke-linejoin:miter;stroke-opacity:1"/>
<path class="bond-3 atom-2 atom-4" d="M 656.8,624.0 L 583.6,543.8" style="fill:none;fill-rule:evenodd;stroke:#000000;stroke-width:2.0px;stroke-linecap:butt;stroke-linejoin:miter;stroke-opacity:1"/>
<path class="bond-4 atom-4 atom-5" d="M 583.6,543.8 L 477.6,567.1" style="fill:none;fill-rule:evenodd;stroke:#000000;stroke-width:2.0px;stroke-linecap:butt;stroke-linejoin:miter;stroke-opacity:1"/>
<path class="bond-5 atom-5 atom-6" d="M 477.6,567.1 L 441.9,528.1" style="fill:none;fill-rule:evenodd;stroke:#000000;stroke-width:2.0px;stroke-linecap:butt;stroke-linejoin:miter;stroke-opacity:1"/>
<path class="bond-5 atom-5 atom-6" d="M 441.9,528.1 L 406.3,489.1" style="fill:none;fill-rule:evenodd;stroke:#191919;stroke-width:2.0px;stroke-linecap:butt;stroke-linejoin:miter;stroke-opacity:1"/>
<path class="bond-6 atom-5 atom-7" d="M 471.2,560.2 L 456.9,605.2" style="fill:none;fill-rule:evenodd;stroke:#000000;stroke-width:2.0px;stroke-linecap:butt;stroke-linejoin:miter;stroke-opacity:1"/>
<path class="bond-6 atom-5 atom-7" d="M 456.9,605.2 L 442.6,650.2" style="fill:none;fill-rule:evenodd;stroke:#FF0000;stroke-width:2.0px;stroke-linecap:butt;stroke-linejoin:miter;stroke-opacity:1"/>
<path class="bond-6 atom-5 atom-7" d="M 486.7,565.1 L 472.5,610.1" style="fill:none;fill-rule:evenodd;stroke:#000000;stroke-width:2.0px;stroke-linecap:butt;stroke-linejoin:miter;stroke-opacity:1"/>
<path class="bond-6 atom-5 atom-7" d="M 472.5,610.1 L 458.2,655.1" style="fill:none;fill-rule:evenodd;stroke:#FF0000;stroke-width:2.0px;stroke-linecap:butt;stroke-linejoin:miter;stroke-opacity:1"/>
<path d="M 587.2,547.8 L 583.6,543.8 L 578.3,545.0" style="fill:none;stroke:#000000;stroke-width:2.0px;stroke-linecap:butt;stroke-linejoin:miter;stroke-opacity:1;"/>
<path d="M 482.9,566.0 L 477.6,567.1 L 475.8,565.2" style="fill:none;stroke:#000000;stroke-width:2.0px;stroke-linecap:butt;stroke-linejoin:miter;stroke-opacity:1;"/>
<path class="atom-0" d="M 790.3 494.0 L 794.5 489.8 L 788.9 488.7 L 789.8 485.8 L 794.9 488.4 L 794.1 482.8 L 797.1 482.8 L 796.3 488.4 L 801.5 486.0 L 802.3 488.7 L 796.7 489.7 L 800.7 494.0 L 798.3 495.8 L 795.5 490.5 L 792.7 495.8 L 790.3 494.0 " fill="#191919"/>
<path class="atom-1" d="M 749.8 600.8 Q 749.8 594.0, 753.2 590.2 Q 756.5 586.4, 762.8 586.4 Q 769.1 586.4, 772.4 590.2 Q 775.8 594.0, 775.8 600.8 Q 775.8 607.6, 772.4 611.6 Q 769.0 615.4, 762.8 615.4 Q 756.6 615.4, 753.2 611.6 Q 749.8 607.7, 749.8 600.8 M 762.8 612.2 Q 767.1 612.2, 769.4 609.4 Q 771.8 606.4, 771.8 600.8 Q 771.8 595.2, 769.4 592.4 Q 767.1 589.6, 762.8 589.6 Q 758.5 589.6, 756.1 592.4 Q 753.8 595.2, 753.8 600.8 Q 753.8 606.5, 756.1 609.4 Q 758.5 612.2, 762.8 612.2 " fill="#FF0000"/>
<path class="atom-6" d="M 399.0 483.8 L 403.2 479.5 L 397.7 478.4 L 398.5 475.6 L 403.6 478.1 L 402.9 472.6 L 405.9 472.5 L 405.0 478.1 L 410.2 475.7 L 411.1 478.4 L 405.5 479.5 L 409.5 483.7 L 407.0 485.5 L 404.3 480.2 L 401.5 485.5 L 399.0 483.8 " fill="#191919"/>
<path class="atom-7" d="M 431.7 670.7 Q 431.7 663.9, 435.1 660.1 Q 438.4 656.3, 444.7 656.3 Q 451.0 656.3, 454.4 660.1 Q 457.7 663.9, 457.7 670.7 Q 457.7 677.5, 454.3 681.5 Q 450.9 685.3, 444.7 685.3 Q 438.5 685.3, 435.1 681.5 Q 431.7 677.6, 431.7 670.7 M 444.7 682.1 Q 449.0 682.1, 451.4 679.3 Q 453.7 676.3, 453.7 670.7 Q 453.7 665.1, 451.4 662.3 Q 449.0 659.5, 444.7 659.5 Q 440.4 659.5, 438.0 662.3 Q 435.7 665.1, 435.7 670.7 Q 435.7 676.4, 438.0 679.3 Q 440.4 682.1, 444.7 682.1 " fill="#FF0000"/>
</svg>