<svg xmlns="http://www.w3.org/2000/svg" xmlns:rdkit="http://www.rdkit.org/xml" xmlns:xlink="http://www.w3.org/1999/xlink" version="1.1" baseProfile="full" xml:space="preserve" width="1200px" height="800px" viewBox="0 0 1200 800">
<!-- END OF HEADER -->
<rect style="opacity:1.0;fill:#FFFFFF;stroke:none" width="1200.0" height="800.0" x="0.0" y="0.0"> </rect>
<path class="bond-0 atom-0 atom-1" d="M 835.8,77.0 L 819.3,128.8" style="fill:none;fill-rule:evenodd;stroke:#191919;stroke-width:2.0px;stroke-linecap:butt;stroke-linejoin:miter;stroke-opacity:1"/>
<path class="bond-0 atom-0 atom-1" d="M 819.3,128.8 L 802.9,180.7" style="fill:none;fill-rule:evenodd;stroke:#FF0000;stroke-width:2.0px;stroke-linecap:butt;stroke-linejoin:miter;stroke-opacity:1"/>
<path class="bond-1 atom-1 atom-2" d="M 779.6,203.1 L 724.2,215.3" style="fill:none;fill-rule:evenodd;stroke:#FF0000;stroke-width:2.0px;stroke-linecap:butt;stroke-linejoin:miter;stroke-opacity:1"/>
<path class="bond-1 atom-1 atom-2" d="M 724.2,215.3 L 668.7,227.5" style="fill:none;fill-rule:evenodd;stroke:#000000;stroke-width:2.0px;stroke-linecap:butt;stroke-linejoin:miter;stroke-opacity:1"/>
<path class="bond-2 atom-2 atom-3" d="M 668.7,227.5 L 629.0,352.7" style="fill:none;fill-rule:evenodd;stroke:#000000;stroke-width:2.0px;stroke-linecap:butt;stroke-linejoin:miter;stroke-opacity:1"/>
<path class="bond-3 atom-2 atom-4" d="M 668.7,227.5 L 580.1,130.5" style="fill:none;fill-rule:evenodd;stroke:#000000;stroke-width:2.0px;stroke-linecap:butt;stroke-linejoin:miter;stroke-opacity:1"/>
<path class="bond-4 atom-4 atom-5" d="M 580.1,130.5 L 451.9,158.7" style="fill:none;fill-rule:evenodd;stroke:#000000;stroke-width:2.0px;stroke-linecap:butt;stroke-linejoin:miter;stroke-opacity:1"/>
<path class="bond-5 atom-5 atom-6" d="M 451.9,158.7 L 408.9,111.7" style="fill:none;fill-rule:evenodd;stroke:#000000;stroke-width:2.0px;stroke-linecap:butt;stroke-linejoin:miter;stroke-opacity:1"/>
<path class="bond-5 atom-5 atom-6" d="M 408.9,111.7 L 366.0,64.6" style="fill:none;fill-rule:evenodd;stroke:#191919;stroke-width:2.0px;stroke-linecap:butt;stroke-linejoin:miter;stroke-opacity:1"/>
<path class="bond-6 atom-5 atom-7" d="M 444.2,150.3 L 426.4,206.3" style="fill:none;fill-rule:evenodd;stroke:#000000;stroke-width:2.0px;stroke-linecap:butt;stroke-linejoin:miter;stroke-opacity:1"/>
<path class="bond-6 atom-5 atom-7" d="M 426.4,206.3 L 408.7,262.3" style="fill:none;fill-rule:evenodd;stroke:#FF0000;stroke-width:2.0px;stroke-linecap:butt;stroke-linejoin:miter;stroke-opacity:1"/>
<path class="bond-6 atom-5 atom-7" d="M 463.0,156.3 L 445.2,212.2" style="fill:none;fill-rule:evenodd;stroke:#000000;stroke-width:2.0px;stroke-linecap:butt;stroke-linejoin:miter;stroke-opacity:1"/>
<path class="bond-6 atom-5 atom-7" d="M 445.2,212.2 L 427.5,268.2" style="fill:none;fill-rule:evenodd;stroke:#FF0000;stroke-width:2.0px;stroke-linecap:butt;stroke-linejoin:miter;stroke-opacity:1"/>
<path d="M 584.6,135.4 L 580.1,130.5 L 573.7,131.9" style="fill:none;stroke:#000000;stroke-width:2.0px;stroke-linecap:butt;stroke-linejoin:miter;stroke-opacity:1;"/>
<path d="M 458.3,157.3 L 451.9,158.7 L 449.7,156.4" style="fill:none;stroke:#000000;stroke-width:2.0px;stroke-linecap:butt;stroke-linejoin:miter;stroke-opacity:1;"/>
<path class="atom-0" d="M 831.3 71.0 L 835.5 66.7 L 830.0 65.6 L 830.8 62.8 L 835.9 65.3 L 835.2 59.8 L 838.2 59.7 L 837.3 65.3 L 842.5 62.9 L 843.4 65.6 L 837.8 66.7 L 841.8 70.9 L 839.3 72.7 L 836.6 67.4 L 833.8 72.7 L 831.3 71.0 " fill="#191919"/>
<path class="atom-1" d="M 784.0 199.4 Q 784.0 192.6, 787.3 188.8 Q 790.7 185.0, 797.0 185.0 Q 803.2 185.0, 806.6 188.8 Q 810.0 192.6, 810.0 199.4 Q 810.0 206.3, 806.6 210.2 Q 803.2 214.1, 797.0 214.1 Q 790.7 214.1, 787.3 210.2 Q 784.0 206.3, 784.0 199.4 M 797.0 210.9 Q 801.3 210.9, 803.6 208.0 Q 806.0 205.1, 806.0 199.4 Q 806.0 193.8, 803.6 191.0 Q 801.3 188.2, 797.0 188.2 Q 792.6 188.2, 790.3 191.0 Q 788.0 193.8, 788.0 199.4 Q 788.0 205.1, 790.3 208.0 Q 792.6 210.9, 797.0 210.9 " fill="#FF0000"/>
<path class="atom-6" d="M 358.0 58.6 L 362.2 54.3 L 356.6 53.2 L 357.5 50.4 L 362.6 52.9 L 361.8 47.4 L 364.8 47.3 L 364.0 52.9 L 369.2 50.5 L 370.0 53.2 L 364.4 54.2 L 368.4 58.5 L 366.0 60.3 L 363.2 55.0 L 360.4 60.3 L 358.0 58.6 " fill="#191919"/>
<path class="atom-7" d="M 399.2 284.0 Q 399.2 277.2, 402.5 273.4 Q 405.9 269.6, 412.2 269.6 Q 418.4 269.6, 421.8 273.4 Q 425.2 277.2, 425.2 284.0 Q 425.2 290.8, 421.8 294.8 Q 418.4 298.6, 412.2 298.6 Q 405.9 298.6, 402.5 294.8 Q 399.2 290.9, 399.2 284.0 M 412.2 295.4 Q 416.5 295.4, 418.8 292.6 Q 421.2 289.6, 421.2 284.0 Q 421.2 278.4, 418.8 275.6 Q 416.5 272.8, 412.2 272.8 Q 407.8 272.8, 405.5 275.6 Q 403.2 278.4, 403.2 284.0 Q 403.2 289.7, 405.5 292.6 Q 407.8 295.4, 412.2 295.4 " fill="#FF0000"/>
<path class="bond-0 atom-0 atom-1" d="M 795.3,553.2 L 768.7,599.3" style="fill:none;fill-rule:evenodd;stroke:#191919;stroke-width:2.0px;stroke-linecap:butt;stroke-linejoin:miter;stroke-opacity:1"/>
<path class="bond-0 atom-0 atom-1" d="M 768.7,599.3 L 742.1,645.4" style="fill:none;fill-rule:evenodd;stroke:#FF0000;stroke-width:2.0px;stroke-linecap:butt;stroke-linejoin:miter;stroke-opacity:1"/>
<path class="bond-1 atom-1 atom-2" d="M 714.0,664.0 L 657.0,664.0" style="fill:none;fill-rule:evenodd;stroke:#FF0000;stroke-width:2.0px;stroke-linecap:butt;stroke-linejoin:miter;stroke-opacity:1"/>
<path class="bond-1 atom-1 atom-2" d="M 657.0,664.0 L 600.0,664.0" style="fill:none;fill-rule:evenodd;stroke:#000000;stroke-width:2.0px;stroke-linecap:butt;stroke-linejoin:miter;stroke-opacity:1"/>
<path class="bond-2 atom-2 atom-3" d="M 600.0,664.0 L 534.3,777.8" style="fill:none;fill-rule:evenodd;stroke:#000000;stroke-width:2.0px;stroke-linecap:butt;stroke-linejoin:miter;stroke-opacity:1"/>
<path class="bond-3 atom-2 atom-4" d="M 600.0,664.0 L 534.3,550.3" style="fill:none;fill-rule:evenodd;stroke:#000000;stroke-width:2.0px;stroke-linecap:butt;stroke-linejoin:miter;stroke-opacity:1"/>
<path class="bond-4 atom-4 atom-5" d="M 534.3,550.3 L 474.2,550.3" style="fill:none;fill-rule:evenodd;stroke:#000000;stroke-width:2.0px;stroke-linecap:butt;stroke-linejoin:miter;stroke-opacity:1"/>
<path class="bond-4 atom-4 atom-5" d="M 474.2,550.3 L 414.0,550.3" style="fill:none;fill-rule:evenodd;stroke:#191919;stroke-width:2.0px;stroke-linecap:butt;stroke-linejoin:miter;stroke-opacity:1"/>
<path class="bond-5 atom-4 atom-6" d="M 540.0,560.1 L 568.8,510.4" style="fill:none;fill-rule:evenodd;stroke:#000000;stroke-width:2.0px;stroke-linecap:butt;stroke-linejoin:miter;stroke-opacity:1"/>
<path class="bond-5 atom-4 atom-6" d="M 568.8,510.4 L 597.5,460.6" style="fill:none;fill-rule:evenodd;stroke:#FF0000;stroke-width:2.0px;stroke-linecap:butt;stroke-linejoin:miter;stroke-opacity:1"/>
<path class="bond-5 atom-4 atom-6" d="M 523.0,550.3 L 551.7,500.5" style="fill:none;fill-rule:evenodd;stroke:#000000;stroke-width:2.0px;stroke-linecap:butt;stroke-linejoin:miter;stroke-opacity:1"/>
<path class="bond-5 atom-4 atom-6" d="M 551.7,500.5 L 580.4,450.7" style="fill:none;fill-rule:evenodd;stroke:#FF0000;stroke-width:2.0px;stroke-linecap:butt;stroke-linejoin:miter;stroke-opacity:1"/>
<path d="M 537.6,556.0 L 534.3,550.3 L 531.3,550.3" style="fill:none;stroke:#000000;stroke-width:2.0px;stroke-linecap:butt;stroke-linejoin:miter;stroke-opacity:1;"/>
<path class="atom-0" d="M 791.6 547.1 L 795.8 542.9 L 790.3 541.8 L 791.1 538.9 L 796.2 541.5 L 795.5 535.9 L 798.5 535.9 L 797.6 541.5 L 802.8 539.1 L 803.7 541.8 L 798.1 542.8 L 802.1 547.1 L 799.6 548.9 L 796.9 543.6 L 794.1 548.9 L 791.6 547.1 " fill="#191919"/>
<path class="atom-1" d="M 718.3 664.1 Q 718.3 657.3, 721.7 653.5 Q 725.0 649.7, 731.3 649.7 Q 737.6 649.7, 741.0 653.5 Q 744.3 657.3, 744.3 664.1 Q 744.3 671.0, 740.9 674.9 Q 737.5 678.8, 731.3 678.8 Q 725.1 678.8, 721.7 674.9 Q 718.3 671.0, 718.3 664.1 M 731.3 675.6 Q 735.6 675.6, 738.0 672.7 Q 740.3 669.8, 740.3 664.1 Q 740.3 658.5, 738.0 655.7 Q 735.6 652.9, 731.3 652.9 Q 727.0 652.9, 724.6 655.7 Q 722.3 658.5, 722.3 664.1 Q 722.3 669.8, 724.6 672.7 Q 727.0 675.6, 731.3 675.6 " fill="#FF0000"/>
<path class="atom-5" d="M 397.7 547.1 L 401.8 542.9 L 396.3 541.8 L 397.2 538.9 L 402.2 541.5 L 401.5 535.9 L 404.5 535.9 L 403.7 541.5 L 408.8 539.1 L 409.7 541.8 L 404.1 542.8 L 408.1 547.1 L 405.7 548.9 L 402.9 543.6 L 400.1 548.9 L 397.7 547.1 " fill="#191919"/>
<path class="atom-6" d="M 587.0 436.6 Q 587.0 429.8, 590.4 426.0 Q 593.7 422.2, 600.0 422.2 Q 606.3 422.2, 609.6 426.0 Q 613.0 429.8, 613.0 436.6 Q 613.0 443.5, 609.6 447.4 Q 606.2 451.3, 600.0 451.3 Q 593.8 451.3, 590.4 447.4 Q 587.0 443.6, 587.0 436.6 M 600.0 448.1 Q 604.3 448.1, 606.6 445.2 Q 609.0 442.3, 609.0 436.6 Q 609.0 431.1, 606.6 428.3 Q 604.3 425.4, 600.0 425.4 Q 595.7 425.4, 593.3 428.2 Q 591.0 431.0, 591.0 436.6 Q 591.0 442.4, 593.3 445.2 Q 595.7 448.1, 600.0 448.1 " fill="#FF0000"/>
</svg>