<svg xmlns="http://www.w3.org/2000/svg" xmlns:rdkit="http://www.rdkit.org/xml" xmlns:xlink="http://www.w3.org/1999/xlink" version="1.1" baseProfile="full" xml:space="preserve" width="1200px" height="1200px" viewBox="0 0 1200 1200">
<!-- END OF HEADER -->
<rect style="opacity:1.0;fill:#FFFFFF;stroke:none" width="1200.0" height="1200.0" x="0.0" y="0.0"> </rect>
<path class="bond-0 atom-0 atom-1" d="M 82.1,64.1 L 164.3,46.0" style="fill:none;fill-rule:evenodd;stroke:#191919;stroke-width:2.0px;stroke-linecap:butt;stroke-linejoin:miter;stroke-opacity:1"/>
<path class="bond-0 atom-0 atom-1" d="M 164.3,46.0 L 246.5,27.9" style="fill:none;fill-rule:evenodd;stroke:#000000;stroke-width:2.0px;stroke-linecap:butt;stroke-linejoin:miter;stroke-opacity:1"/>
<path class="bond-1 atom-1 atom-2" d="M 246.5,27.9 L 368.8,161.7" style="fill:none;fill-rule:evenodd;stroke:#000000;stroke-width:2.0px;stroke-linecap:butt;stroke-linejoin:miter;stroke-opacity:1"/>
<path class="bond-2 atom-2 atom-3" d="M 368.8,161.7 L 545.9,122.7" style="fill:none;fill-rule:evenodd;stroke:#000000;stroke-width:2.0px;stroke-linecap:butt;stroke-linejoin:miter;stroke-opacity:1"/>
<path class="bond-3 atom-3 atom-4" d="M 545.9,122.7 L 597.8,179.5" style="fill:none;fill-rule:evenodd;stroke:#000000;stroke-width:2.0px;stroke-linecap:butt;stroke-linejoin:miter;stroke-opacity:1"/>
<path class="bond-3 atom-3 atom-4" d="M 597.8,179.5 L 649.7,236.2" style="fill:none;fill-rule:evenodd;stroke:#FF0000;stroke-width:2.0px;stroke-linecap:butt;stroke-linejoin:miter;stroke-opacity:1"/>
<path class="bond-4 atom-4 atom-5" d="M 687.2,252.4 L 766.2,234.9" style="fill:none;fill-rule:evenodd;stroke:#FF0000;stroke-width:2.0px;stroke-linecap:butt;stroke-linejoin:miter;stroke-opacity:1"/>
<path class="bond-4 atom-4 atom-5" d="M 766.2,234.9 L 845.3,217.5" style="fill:none;fill-rule:evenodd;stroke:#000000;stroke-width:2.0px;stroke-linecap:butt;stroke-linejoin:miter;stroke-opacity:1"/>
<path class="bond-5 atom-5 atom-6" d="M 845.3,217.5 L 980.9,337.9" style="fill:none;fill-rule:evenodd;stroke:#000000;stroke-width:2.0px;stroke-linecap:butt;stroke-linejoin:miter;stroke-opacity:1"/>
<path class="bond-6 atom-6 atom-7" d="M 980.9,337.9 L 1137.3,246.0" style="fill:none;fill-rule:evenodd;stroke:#000000;stroke-width:2.0px;stroke-linecap:butt;stroke-linejoin:miter;stroke-opacity:1"/>
<path class="bond-7 atom-7 atom-8" d="M 1137.3,246.0 L 1098.3,69.0" style="fill:none;fill-rule:evenodd;stroke:#000000;stroke-width:2.0px;stroke-linecap:butt;stroke-linejoin:miter;stroke-opacity:1"/>
<path class="bond-8 atom-8 atom-9" d="M 1098.3,69.0 L 1017.5,61.1" style="fill:none;fill-rule:evenodd;stroke:#000000;stroke-width:2.0px;stroke-linecap:butt;stroke-linejoin:miter;stroke-opacity:1"/>
<path class="bond-8 atom-8 atom-9" d="M 1017.5,61.1 L 936.8,53.2" style="fill:none;fill-rule:evenodd;stroke:#FF0000;stroke-width:2.0px;stroke-linecap:butt;stroke-linejoin:miter;stroke-opacity:1"/>
<path class="bond-9 atom-2 atom-10" d="M 368.8,161.7 L 344.7,238.0" style="fill:none;fill-rule:evenodd;stroke:#000000;stroke-width:2.0px;stroke-linecap:butt;stroke-linejoin:miter;stroke-opacity:1"/>
<path class="bond-9 atom-2 atom-10" d="M 344.7,238.0 L 320.5,314.3" style="fill:none;fill-rule:evenodd;stroke:#FF0000;stroke-width:2.0px;stroke-linecap:butt;stroke-linejoin:miter;stroke-opacity:1"/>
<path class="bond-10 atom-10 atom-11" d="M 295.1,338.7 L 222.4,354.8" style="fill:none;fill-rule:evenodd;stroke:#FF0000;stroke-width:2.0px;stroke-linecap:butt;stroke-linejoin:miter;stroke-opacity:1"/>
<path class="bond-10 atom-10 atom-11" d="M 222.4,354.8 L 149.7,370.8" style="fill:none;fill-rule:evenodd;stroke:#191919;stroke-width:2.0px;stroke-linecap:butt;stroke-linejoin:miter;stroke-opacity:1"/>
<path class="bond-11 atom-9 atom-5" d="M 908.8,72.1 L 877.0,144.8" style="fill:none;fill-rule:evenodd;stroke:#FF0000;stroke-width:2.0px;stroke-linecap:butt;stroke-linejoin:miter;stroke-opacity:1"/>
<path class="bond-11 atom-9 atom-5" d="M 877.0,144.8 L 845.3,217.5" style="fill:none;fill-rule:evenodd;stroke:#000000;stroke-width:2.0px;stroke-linecap:butt;stroke-linejoin:miter;stroke-opacity:1"/>
<path d="M 242.4,28.8 L 246.5,27.9 L 252.6,34.6" style="fill:none;stroke:#000000;stroke-width:2.0px;stroke-linecap:butt;stroke-linejoin:miter;stroke-opacity:1;"/>
<path d="M 537.0,124.6 L 545.9,122.7 L 548.5,125.5" style="fill:none;stroke:#000000;stroke-width:2.0px;stroke-linecap:butt;stroke-linejoin:miter;stroke-opacity:1;"/>
<path d="M 974.1,331.8 L 980.9,337.9 L 988.7,333.3" style="fill:none;stroke:#000000;stroke-width:2.0px;stroke-linecap:butt;stroke-linejoin:miter;stroke-opacity:1;"/>
<path d="M 1129.5,250.6 L 1137.3,246.0 L 1135.3,237.2" style="fill:none;stroke:#000000;stroke-width:2.0px;stroke-linecap:butt;stroke-linejoin:miter;stroke-opacity:1;"/>
<path d="M 1100.2,77.8 L 1098.3,69.0 L 1094.2,68.6" style="fill:none;stroke:#000000;stroke-width:2.0px;stroke-linecap:butt;stroke-linejoin:miter;stroke-opacity:1;"/>
<path class="atom-0" d="M 64.1 63.7 L 68.2 59.5 L 62.7 58.4 L 63.6 55.5 L 68.6 58.1 L 67.9 52.5 L 70.9 52.5 L 70.1 58.0 L 75.2 55.6 L 76.1 58.4 L 70.5 59.4 L 74.5 63.7 L 72.1 65.4 L 69.3 60.2 L 66.5 65.4 L 64.1 63.7 " fill="#191919"/>
<path class="atom-4" d="M 655.2 256.6 Q 655.2 249.8, 658.6 246.0 Q 661.9 242.2, 668.2 242.2 Q 674.5 242.2, 677.9 246.0 Q 681.2 249.8, 681.2 256.6 Q 681.2 263.5, 677.8 267.4 Q 674.4 271.3, 668.2 271.3 Q 662.0 271.3, 658.6 267.4 Q 655.2 263.5, 655.2 256.6 M 668.2 268.1 Q 672.5 268.1, 674.9 265.2 Q 677.2 262.3, 677.2 256.6 Q 677.2 251.1, 674.9 248.3 Q 672.5 245.4, 668.2 245.4 Q 663.9 245.4, 661.5 248.2 Q 659.2 251.0, 659.2 256.6 Q 659.2 262.3, 661.5 265.2 Q 663.9 268.1, 668.2 268.1 " fill="#FF0000"/>
<path class="atom-9" d="M 904.8 51.4 Q 904.8 44.6, 908.2 40.8 Q 911.5 37.0, 917.8 37.0 Q 924.1 37.0, 927.4 40.8 Q 930.8 44.6, 930.8 51.4 Q 930.8 58.3, 927.4 62.2 Q 924.0 66.1, 917.8 66.1 Q 911.6 66.1, 908.2 62.2 Q 904.8 58.3, 904.8 51.4 M 917.8 62.9 Q 922.1 62.9, 924.4 60.0 Q 926.8 57.1, 926.8 51.4 Q 926.8 45.9, 924.4 43.1 Q 922.1 40.2, 917.8 40.2 Q 913.5 40.2, 911.1 43.0 Q 908.8 45.8, 908.8 51.4 Q 908.8 57.1, 911.1 60.0 Q 913.5 62.9, 917.8 62.9 " fill="#FF0000"/>
<path class="atom-10" d="M 301.1 334.6 Q 301.1 327.8, 304.4 324.0 Q 307.8 320.2, 314.1 320.2 Q 320.3 320.2, 323.7 324.0 Q 327.1 327.8, 327.1 334.6 Q 327.1 341.5, 323.7 345.4 Q 320.3 349.3, 314.1 349.3 Q 307.8 349.3, 304.4 345.4 Q 301.1 341.6, 301.1 334.6 M 314.1 346.1 Q 318.4 346.1, 320.7 343.2 Q 323.1 340.3, 323.1 334.6 Q 323.1 329.1, 320.7 326.3 Q 318.4 323.4, 314.1 323.4 Q 309.7 323.4, 307.4 326.2 Q 305.1 329.0, 305.1 334.6 Q 305.1 340.4, 307.4 343.2 Q 309.7 346.1, 314.1 346.1 " fill="#FF0000"/>
<path class="atom-11" d="M 131.7 370.4 L 135.8 366.2 L 130.3 365.1 L 131.1 362.2 L 136.2 364.8 L 135.5 359.2 L 138.5 359.2 L 137.7 364.7 L 142.8 362.3 L 143.7 365.1 L 138.1 366.1 L 142.1 370.4 L 139.7 372.1 L 136.9 366.9 L 134.1 372.1 L 131.7 370.4 " fill="#191919"/>
<path class="bond-0 atom-0 atom-1" d="M 298.6,645.2 L 370.8,603.5" style="fill:none;fill-rule:evenodd;stroke:#191919;stroke-width:2.0px;stroke-linecap:butt;stroke-linejoin:miter;stroke-opacity:1"/>
<path class="bond-0 atom-0 atom-1" d="M 370.8,603.5 L 443.0,561.8" style="fill:none;fill-rule:evenodd;stroke:#000000;stroke-width:2.0px;stroke-linecap:butt;stroke-linejoin:miter;stroke-opacity:1"/>
<path class="bond-1 atom-1 atom-2" d="M 443.0,561.8 L 600.0,652.5" style="fill:none;fill-rule:evenodd;stroke:#000000;stroke-width:2.0px;stroke-linecap:butt;stroke-linejoin:miter;stroke-opacity:1"/>
<path class="bond-2 atom-2 atom-3" d="M 600.0,652.5 L 669.0,612.6" style="fill:none;fill-rule:evenodd;stroke:#000000;stroke-width:2.0px;stroke-linecap:butt;stroke-linejoin:miter;stroke-opacity:1"/>
<path class="bond-2 atom-2 atom-3" d="M 669.0,612.6 L 738.0,572.8" style="fill:none;fill-rule:evenodd;stroke:#FF0000;stroke-width:2.0px;stroke-linecap:butt;stroke-linejoin:miter;stroke-opacity:1"/>
<path class="bond-3 atom-3 atom-4" d="M 776.0,572.8 L 838.7,609.0" style="fill:none;fill-rule:evenodd;stroke:#FF0000;stroke-width:2.0px;stroke-linecap:butt;stroke-linejoin:miter;stroke-opacity:1"/>
<path class="bond-3 atom-3 atom-4" d="M 838.7,609.0 L 901.4,645.2" style="fill:none;fill-rule:evenodd;stroke:#191919;stroke-width:2.0px;stroke-linecap:butt;stroke-linejoin:miter;stroke-opacity:1"/>
<path d="M 439.4,563.9 L 443.0,561.8 L 450.8,566.4" style="fill:none;stroke:#000000;stroke-width:2.0px;stroke-linecap:butt;stroke-linejoin:miter;stroke-opacity:1;"/>
<path d="M 592.1,648.0 L 600.0,652.5 L 603.5,650.5" style="fill:none;stroke:#000000;stroke-width:2.0px;stroke-linecap:butt;stroke-linejoin:miter;stroke-opacity:1;"/>
<path class="atom-0" d="M 280.6 649.3 L 284.8 645.1 L 279.2 644.0 L 280.1 641.1 L 285.2 643.7 L 284.4 638.1 L 287.4 638.1 L 286.6 643.6 L 291.8 641.2 L 292.6 644.0 L 287.0 645.0 L 291.0 649.3 L 288.6 651.0 L 285.8 645.8 L 283.0 651.0 L 280.6 649.3 " fill="#191919"/>
<path class="atom-3" d="M 744.0 561.9 Q 744.0 555.1, 747.4 551.3 Q 750.7 547.5, 757.0 547.5 Q 763.3 547.5, 766.7 551.3 Q 770.0 555.1, 770.0 561.9 Q 770.0 568.8, 766.6 572.7 Q 763.2 576.6, 757.0 576.6 Q 750.8 576.6, 747.4 572.7 Q 744.0 568.8, 744.0 561.9 M 757.0 573.4 Q 761.3 573.4, 763.7 570.5 Q 766.0 567.6, 766.0 561.9 Q 766.0 556.4, 763.7 553.6 Q 761.3 550.7, 757.0 550.7 Q 752.7 550.7, 750.3 553.5 Q 748.0 556.3, 748.0 561.9 Q 748.0 567.6, 750.3 570.5 Q 752.7 573.4, 757.0 573.4 " fill="#FF0000"/>
<path class="atom-4" d="M 908.7 649.3 L 912.9 645.1 L 907.4 644.0 L 908.2 641.1 L 913.3 643.7 L 912.6 638.1 L 915.6 638.1 L 914.7 643.6 L 919.9 641.2 L 920.8 644.0 L 915.2 645.0 L 919.2 649.3 L 916.7 651.0 L 914.0 645.8 L 911.2 651.0 L 908.7 649.3 " fill="#191919"/>
<path class="bond-0 atom-0 atom-1" d="M 505.6,999.8 L 580.4,999.8" style="fill:none;fill-rule:evenodd;stroke:#191919;stroke-width:2.0px;stroke-linecap:butt;stroke-linejoin:miter;stroke-opacity:1"/>
<path class="bond-0 atom-0 atom-1" d="M 580.4,999.8 L 655.2,999.8" style="fill:none;fill-rule:evenodd;stroke:#FF0000;stroke-width:2.0px;stroke-linecap:butt;stroke-linejoin:miter;stroke-opacity:1"/>
<path class="atom-0" d="M 487.6 996.7 L 491.7 992.4 L 486.2 991.3 L 487.0 988.5 L 492.1 991.0 L 491.4 985.5 L 494.4 985.4 L 493.6 991.0 L 498.7 988.6 L 499.6 991.3 L 494.0 992.3 L 498.0 996.6 L 495.6 998.4 L 492.8 993.1 L 490.0 998.4 L 487.6 996.7 " fill="#191919"/>
<path class="atom-1" d="M 661.2 999.9 Q 661.2 993.1, 664.6 989.3 Q 667.9 985.5, 674.2 985.5 Q 680.5 985.5, 683.9 989.3 Q 687.2 993.1, 687.2 999.9 Q 687.2 1006.8, 683.8 1010.7 Q 680.4 1014.6, 674.2 1014.6 Q 668.0 1014.6, 664.6 1010.7 Q 661.2 1006.8, 661.2 999.9 M 674.2 1011.4 Q 678.5 1011.4, 680.9 1008.5 Q 683.2 1005.6, 683.2 999.9 Q 683.2 994.3, 680.9 991.5 Q 678.5 988.7, 674.2 988.7 Q 669.9 988.7, 667.5 991.5 Q 665.2 994.3, 665.2 999.9 Q 665.2 1005.6, 667.5 1008.5 Q 669.9 1011.4, 674.2 1011.4 " fill="#FF0000"/>
<path class="atom-1" d="M 691.6 985.8 L 695.5 985.8 L 695.5 997.9 L 710.0 997.9 L 710.0 985.8 L 713.8 985.8 L 713.8 1014.1 L 710.0 1014.1 L 710.0 1001.1 L 695.5 1001.1 L 695.5 1014.1 L 691.6 1014.1 L 691.6 985.8 " fill="#FF0000"/>
</svg>