<svg xmlns="http://www.w3.org/2000/svg" xmlns:rdkit="http://www.rdkit.org/xml" xmlns:xlink="http://www.w3.org/1999/xlink" version="1.1" baseProfile="full" xml:space="preserve" width="1200px" height="1200px" viewBox="0 0 1200 1200">
<!-- END OF HEADER -->
<rect style="opacity:1.0;fill:#FFFFFF;stroke:none" width="1200.0" height="1200.0" x="0.0" y="0.0"> </rect>
<path class="bond-0 atom-0 atom-1" d="M 81.5,76.3 L 159.2,59.9" style="fill:none;fill-rule:evenodd;stroke:#191919;stroke-width:2.0px;stroke-linecap:butt;stroke-linejoin:miter;stroke-opacity:1"/>
<path class="bond-0 atom-0 atom-1" d="M 159.2,59.9 L 237.0,43.5" style="fill:none;fill-rule:evenodd;stroke:#000000;stroke-width:2.0px;stroke-linecap:butt;stroke-linejoin:miter;stroke-opacity:1"/>
<path class="bond-1 atom-1 atom-2" d="M 237.0,43.5 L 351.6,171.2" style="fill:none;fill-rule:evenodd;stroke:#000000;stroke-width:2.0px;stroke-linecap:butt;stroke-linejoin:miter;stroke-opacity:1"/>
<path class="bond-2 atom-2 atom-3" d="M 351.6,171.2 L 519.4,135.8" style="fill:none;fill-rule:evenodd;stroke:#000000;stroke-width:2.0px;stroke-linecap:butt;stroke-linejoin:miter;stroke-opacity:1"/>
<path class="bond-3 atom-3 atom-4" d="M 519.4,135.8 L 567.7,189.6" style="fill:none;fill-rule:evenodd;stroke:#000000;stroke-width:2.0px;stroke-linecap:butt;stroke-linejoin:miter;stroke-opacity:1"/>
<path class="bond-3 atom-3 atom-4" d="M 567.7,189.6 L 616.1,243.5" style="fill:none;fill-rule:evenodd;stroke:#FF0000;stroke-width:2.0px;stroke-linecap:butt;stroke-linejoin:miter;stroke-opacity:1"/>
<path class="bond-4 atom-4 atom-5" d="M 652.7,259.5 L 727.3,243.8" style="fill:none;fill-rule:evenodd;stroke:#FF0000;stroke-width:2.0px;stroke-linecap:butt;stroke-linejoin:miter;stroke-opacity:1"/>
<path class="bond-4 atom-4 atom-5" d="M 727.3,243.8 L 801.9,228.0" style="fill:none;fill-rule:evenodd;stroke:#000000;stroke-width:2.0px;stroke-linecap:butt;stroke-linejoin:miter;stroke-opacity:1"/>
<path class="bond-5 atom-5 atom-6" d="M 801.9,228.0 L 855.1,65.0" style="fill:none;fill-rule:evenodd;stroke:#000000;stroke-width:2.0px;stroke-linecap:butt;stroke-linejoin:miter;stroke-opacity:1"/>
<path class="bond-6 atom-6 atom-7" d="M 855.1,65.0 L 1023.0,29.5" style="fill:none;fill-rule:evenodd;stroke:#000000;stroke-width:2.0px;stroke-linecap:butt;stroke-linejoin:miter;stroke-opacity:1"/>
<path class="bond-7 atom-7 atom-8" d="M 1023.0,29.5 L 1137.6,157.2" style="fill:none;fill-rule:evenodd;stroke:#000000;stroke-width:2.0px;stroke-linecap:butt;stroke-linejoin:miter;stroke-opacity:1"/>
<path class="bond-8 atom-8 atom-9" d="M 1137.6,157.2 L 1084.3,320.3" style="fill:none;fill-rule:evenodd;stroke:#000000;stroke-width:2.0px;stroke-linecap:butt;stroke-linejoin:miter;stroke-opacity:1"/>
<path class="bond-9 atom-9 atom-10" d="M 1084.3,320.3 L 1009.7,336.0" style="fill:none;fill-rule:evenodd;stroke:#000000;stroke-width:2.0px;stroke-linecap:butt;stroke-linejoin:miter;stroke-opacity:1"/>
<path class="bond-9 atom-9 atom-10" d="M 1009.7,336.0 L 935.1,351.8" style="fill:none;fill-rule:evenodd;stroke:#FF0000;stroke-width:2.0px;stroke-linecap:butt;stroke-linejoin:miter;stroke-opacity:1"/>
<path class="bond-10 atom-2 atom-11" d="M 351.6,171.2 L 328.2,242.7" style="fill:none;fill-rule:evenodd;stroke:#000000;stroke-width:2.0px;stroke-linecap:butt;stroke-linejoin:miter;stroke-opacity:1"/>
<path class="bond-10 atom-2 atom-11" d="M 328.2,242.7 L 304.8,314.3" style="fill:none;fill-rule:evenodd;stroke:#FF0000;stroke-width:2.0px;stroke-linecap:butt;stroke-linejoin:miter;stroke-opacity:1"/>
<path class="bond-11 atom-11 atom-12" d="M 279.6,338.2 L 211.2,352.6" style="fill:none;fill-rule:evenodd;stroke:#FF0000;stroke-width:2.0px;stroke-linecap:butt;stroke-linejoin:miter;stroke-opacity:1"/>
<path class="bond-11 atom-11 atom-12" d="M 211.2,352.6 L 142.8,367.0" style="fill:none;fill-rule:evenodd;stroke:#191919;stroke-width:2.0px;stroke-linecap:butt;stroke-linejoin:miter;stroke-opacity:1"/>
<path class="bond-12 atom-10 atom-5" d="M 898.5,335.7 L 850.2,281.9" style="fill:none;fill-rule:evenodd;stroke:#FF0000;stroke-width:2.0px;stroke-linecap:butt;stroke-linejoin:miter;stroke-opacity:1"/>
<path class="bond-12 atom-10 atom-5" d="M 850.2,281.9 L 801.9,228.0" style="fill:none;fill-rule:evenodd;stroke:#000000;stroke-width:2.0px;stroke-linecap:butt;stroke-linejoin:miter;stroke-opacity:1"/>
<path d="M 233.1,44.3 L 237.0,43.5 L 242.7,49.9" style="fill:none;stroke:#000000;stroke-width:2.0px;stroke-linecap:butt;stroke-linejoin:miter;stroke-opacity:1;"/>
<path d="M 511.0,137.5 L 519.4,135.8 L 521.8,138.5" style="fill:none;stroke:#000000;stroke-width:2.0px;stroke-linecap:butt;stroke-linejoin:miter;stroke-opacity:1;"/>
<path d="M 852.5,73.1 L 855.1,65.0 L 863.5,63.2" style="fill:none;stroke:#000000;stroke-width:2.0px;stroke-linecap:butt;stroke-linejoin:miter;stroke-opacity:1;"/>
<path d="M 1014.6,31.3 L 1023.0,29.5 L 1028.7,35.9" style="fill:none;stroke:#000000;stroke-width:2.0px;stroke-linecap:butt;stroke-linejoin:miter;stroke-opacity:1;"/>
<path d="M 1131.9,150.8 L 1137.6,157.2 L 1134.9,165.4" style="fill:none;stroke:#000000;stroke-width:2.0px;stroke-linecap:butt;stroke-linejoin:miter;stroke-opacity:1;"/>
<path d="M 1087.0,312.1 L 1084.3,320.3 L 1080.6,321.1" style="fill:none;stroke:#000000;stroke-width:2.0px;stroke-linecap:butt;stroke-linejoin:miter;stroke-opacity:1;"/>
<path class="atom-0" d="M 63.8 75.7 L 67.9 71.5 L 62.4 70.4 L 63.2 67.5 L 68.3 70.1 L 67.6 64.5 L 70.6 64.5 L 69.8 70.1 L 74.9 67.7 L 75.8 70.4 L 70.2 71.4 L 74.2 75.7 L 71.8 77.5 L 69.0 72.2 L 66.2 77.5 L 63.8 75.7 " fill="#191919"/>
<path class="atom-4" d="M 621.0 263.5 Q 621.0 256.7, 624.4 252.9 Q 627.7 249.1, 634.0 249.1 Q 640.3 249.1, 643.7 252.9 Q 647.0 256.7, 647.0 263.5 Q 647.0 270.4, 643.6 274.3 Q 640.2 278.2, 634.0 278.2 Q 627.8 278.2, 624.4 274.3 Q 621.0 270.4, 621.0 263.5 M 634.0 275.0 Q 638.3 275.0, 640.7 272.1 Q 643.0 269.2, 643.0 263.5 Q 643.0 258.0, 640.7 255.2 Q 638.3 252.3, 634.0 252.3 Q 629.7 252.3, 627.3 255.1 Q 625.0 257.9, 625.0 263.5 Q 625.0 269.2, 627.3 272.1 Q 629.7 275.0, 634.0 275.0 " fill="#FF0000"/>
<path class="atom-10" d="M 903.5 355.8 Q 903.5 349.0, 906.8 345.2 Q 910.2 341.4, 916.5 341.4 Q 922.8 341.4, 926.1 345.2 Q 929.5 349.0, 929.5 355.8 Q 929.5 362.7, 926.1 366.6 Q 922.7 370.5, 916.5 370.5 Q 910.2 370.5, 906.8 366.6 Q 903.5 362.7, 903.5 355.8 M 916.5 367.3 Q 920.8 367.3, 923.1 364.4 Q 925.5 361.5, 925.5 355.8 Q 925.5 350.2, 923.1 347.4 Q 920.8 344.6, 916.5 344.6 Q 912.2 344.6, 909.8 347.4 Q 907.5 350.2, 907.5 355.8 Q 907.5 361.5, 909.8 364.4 Q 912.2 367.3, 916.5 367.3 " fill="#FF0000"/>
<path class="atom-11" d="M 285.3 334.3 Q 285.3 327.5, 288.6 323.7 Q 292.0 319.9, 298.3 319.9 Q 304.6 319.9, 307.9 323.7 Q 311.3 327.5, 311.3 334.3 Q 311.3 341.2, 307.9 345.1 Q 304.5 349.0, 298.3 349.0 Q 292.0 349.0, 288.6 345.1 Q 285.3 341.2, 285.3 334.3 M 298.3 345.8 Q 302.6 345.8, 304.9 342.9 Q 307.3 340.0, 307.3 334.3 Q 307.3 328.8, 304.9 326.0 Q 302.6 323.1, 298.3 323.1 Q 294.0 323.1, 291.6 325.9 Q 289.3 328.7, 289.3 334.3 Q 289.3 340.0, 291.6 342.9 Q 294.0 345.8, 298.3 345.8 " fill="#FF0000"/>
<path class="atom-12" d="M 125.1 366.5 L 129.2 362.3 L 123.7 361.1 L 124.6 358.3 L 129.6 360.9 L 128.9 355.3 L 131.9 355.3 L 131.1 360.8 L 136.2 358.4 L 137.1 361.1 L 131.5 362.2 L 135.5 366.5 L 133.1 368.2 L 130.3 362.9 L 127.5 368.2 L 125.1 366.5 " fill="#191919"/>
<path class="bond-0 atom-0 atom-1" d="M 315.2,642.9 L 383.3,603.6" style="fill:none;fill-rule:evenodd;stroke:#191919;stroke-width:2.0px;stroke-linecap:butt;stroke-linejoin:miter;stroke-opacity:1"/>
<path class="bond-0 atom-0 atom-1" d="M 383.3,603.6 L 451.4,564.3" style="fill:none;fill-rule:evenodd;stroke:#000000;stroke-width:2.0px;stroke-linecap:butt;stroke-linejoin:miter;stroke-opacity:1"/>
<path class="bond-1 atom-1 atom-2" d="M 451.4,564.3 L 600.0,650.0" style="fill:none;fill-rule:evenodd;stroke:#000000;stroke-width:2.0px;stroke-linecap:butt;stroke-linejoin:miter;stroke-opacity:1"/>
<path class="bond-2 atom-2 atom-3" d="M 600.0,650.0 L 665.0,612.5" style="fill:none;fill-rule:evenodd;stroke:#000000;stroke-width:2.0px;stroke-linecap:butt;stroke-linejoin:miter;stroke-opacity:1"/>
<path class="bond-2 atom-2 atom-3" d="M 665.0,612.5 L 729.9,575.0" style="fill:none;fill-rule:evenodd;stroke:#FF0000;stroke-width:2.0px;stroke-linecap:butt;stroke-linejoin:miter;stroke-opacity:1"/>
<path class="bond-3 atom-3 atom-4" d="M 767.2,575.0 L 826.0,609.0" style="fill:none;fill-rule:evenodd;stroke:#FF0000;stroke-width:2.0px;stroke-linecap:butt;stroke-linejoin:miter;stroke-opacity:1"/>
<path class="bond-3 atom-3 atom-4" d="M 826.0,609.0 L 884.8,642.9" style="fill:none;fill-rule:evenodd;stroke:#191919;stroke-width:2.0px;stroke-linecap:butt;stroke-linejoin:miter;stroke-opacity:1"/>
<path d="M 448.0,566.2 L 451.4,564.3 L 458.9,568.6" style="fill:none;stroke:#000000;stroke-width:2.0px;stroke-linecap:butt;stroke-linejoin:miter;stroke-opacity:1;"/>
<path d="M 592.6,645.8 L 600.0,650.0 L 603.2,648.2" style="fill:none;stroke:#000000;stroke-width:2.0px;stroke-linecap:butt;stroke-linejoin:miter;stroke-opacity:1;"/>
<path class="atom-0" d="M 297.5 646.9 L 301.7 642.6 L 296.2 641.5 L 297.0 638.7 L 302.1 641.2 L 301.4 635.7 L 304.4 635.6 L 303.5 641.2 L 308.7 638.8 L 309.6 641.5 L 304.0 642.6 L 308.0 646.8 L 305.5 648.6 L 302.8 643.3 L 300.0 648.6 L 297.5 646.9 " fill="#191919"/>
<path class="atom-3" d="M 735.6 564.4 Q 735.6 557.6, 738.9 553.8 Q 742.3 550.0, 748.6 550.0 Q 754.9 550.0, 758.2 553.8 Q 761.6 557.6, 761.6 564.4 Q 761.6 571.2, 758.2 575.2 Q 754.8 579.0, 748.6 579.0 Q 742.3 579.0, 738.9 575.2 Q 735.6 571.3, 735.6 564.4 M 748.6 575.8 Q 752.9 575.8, 755.2 573.0 Q 757.6 570.0, 757.6 564.4 Q 757.6 558.8, 755.2 556.0 Q 752.9 553.2, 748.6 553.2 Q 744.3 553.2, 741.9 556.0 Q 739.6 558.8, 739.6 564.4 Q 739.6 570.1, 741.9 573.0 Q 744.3 575.8, 748.6 575.8 " fill="#FF0000"/>
<path class="atom-4" d="M 891.8 646.9 L 896.0 642.6 L 890.4 641.5 L 891.3 638.7 L 896.4 641.2 L 895.6 635.7 L 898.6 635.6 L 897.8 641.2 L 903.0 638.8 L 903.8 641.5 L 898.2 642.6 L 902.2 646.8 L 899.8 648.6 L 897.0 643.3 L 894.2 648.6 L 891.8 646.9 " fill="#191919"/>
<path class="bond-0 atom-0 atom-1" d="M 510.1,999.8 L 580.4,999.8" style="fill:none;fill-rule:evenodd;stroke:#191919;stroke-width:2.0px;stroke-linecap:butt;stroke-linejoin:miter;stroke-opacity:1"/>
<path class="bond-0 atom-0 atom-1" d="M 580.4,999.8 L 650.7,999.8" style="fill:none;fill-rule:evenodd;stroke:#FF0000;stroke-width:2.0px;stroke-linecap:butt;stroke-linejoin:miter;stroke-opacity:1"/>
<path class="atom-0" d="M 492.4 996.7 L 496.6 992.4 L 491.1 991.3 L 491.9 988.5 L 497.0 991.0 L 496.3 985.5 L 499.3 985.4 L 498.4 991.0 L 503.6 988.6 L 504.5 991.3 L 498.9 992.3 L 502.9 996.6 L 500.4 998.4 L 497.7 993.1 L 494.9 998.4 L 492.4 996.7 " fill="#191919"/>
<path class="atom-1" d="M 656.3 999.9 Q 656.3 993.1, 659.7 989.3 Q 663.1 985.5, 669.3 985.5 Q 675.6 985.5, 679.0 989.3 Q 682.3 993.1, 682.3 999.9 Q 682.3 1006.8, 678.9 1010.7 Q 675.5 1014.6, 669.3 1014.6 Q 663.1 1014.6, 659.7 1010.7 Q 656.3 1006.8, 656.3 999.9 M 669.3 1011.4 Q 673.7 1011.4, 676.0 1008.5 Q 678.3 1005.6, 678.3 999.9 Q 678.3 994.3, 676.0 991.5 Q 673.7 988.7, 669.3 988.7 Q 665.0 988.7, 662.7 991.5 Q 660.3 994.3, 660.3 999.9 Q 660.3 1005.6, 662.7 1008.5 Q 665.0 1011.4, 669.3 1011.4 " fill="#FF0000"/>
<path class="atom-1" d="M 686.8 985.8 L 690.6 985.8 L 690.6 997.9 L 705.1 997.9 L 705.1 985.8 L 708.9 985.8 L 708.9 1014.1 L 705.1 1014.1 L 705.1 1001.1 L 690.6 1001.1 L 690.6 1014.1 L 686.8 1014.1 L 686.8 985.8 " fill="#FF0000"/>
</svg>