<svg xmlns="http://www.w3.org/2000/svg" xmlns:rdkit="http://www.rdkit.org/xml" xmlns:xlink="http://www.w3.org/1999/xlink" version="1.1" baseProfile="full" xml:space="preserve" width="1200px" height="800px" viewBox="0 0 1200 800">
<!-- END OF HEADER -->
<rect style="opacity:1.0;fill:#FFFFFF;stroke:none" width="1200.0" height="800.0" x="0.0" y="0.0"> </rect>
<path class="bond-0 atom-0 atom-1" d="M 358.6,180.9 L 414.2,174.8" style="fill:none;fill-rule:evenodd;stroke:#191919;stroke-width:2.0px;stroke-linecap:butt;stroke-linejoin:miter;stroke-opacity:1"/>
<path class="bond-0 atom-0 atom-1" d="M 414.2,174.8 L 469.8,168.7" style="fill:none;fill-rule:evenodd;stroke:#000000;stroke-width:2.0px;stroke-linecap:butt;stroke-linejoin:miter;stroke-opacity:1"/>
<path class="bond-1 atom-1 atom-2" d="M 469.8,168.7 L 542.4,267.6" style="fill:none;fill-rule:evenodd;stroke:#000000;stroke-width:2.0px;stroke-linecap:butt;stroke-linejoin:miter;stroke-opacity:1"/>
<path class="bond-2 atom-2 atom-3" d="M 542.4,267.6 L 521.8,314.6" style="fill:none;fill-rule:evenodd;stroke:#000000;stroke-width:2.0px;stroke-linecap:butt;stroke-linejoin:miter;stroke-opacity:1"/>
<path class="bond-2 atom-2 atom-3" d="M 521.8,314.6 L 501.2,361.5" style="fill:none;fill-rule:evenodd;stroke:#191919;stroke-width:2.0px;stroke-linecap:butt;stroke-linejoin:miter;stroke-opacity:1"/>
<path class="bond-3 atom-2 atom-4" d="M 542.4,267.6 L 596.0,261.7" style="fill:none;fill-rule:evenodd;stroke:#000000;stroke-width:2.0px;stroke-linecap:butt;stroke-linejoin:miter;stroke-opacity:1"/>
<path class="bond-3 atom-2 atom-4" d="M 596.0,261.7 L 649.6,255.8" style="fill:none;fill-rule:evenodd;stroke:#0000FF;stroke-width:2.0px;stroke-linecap:butt;stroke-linejoin:miter;stroke-opacity:1"/>
<path class="bond-4 atom-4 atom-5" d="M 679.2,270.5 L 713.1,307.8" style="fill:none;fill-rule:evenodd;stroke:#0000FF;stroke-width:2.0px;stroke-linecap:butt;stroke-linejoin:miter;stroke-opacity:1"/>
<path class="bond-4 atom-4 atom-5" d="M 713.1,307.8 L 747.0,345.0" style="fill:none;fill-rule:evenodd;stroke:#000000;stroke-width:2.0px;stroke-linecap:butt;stroke-linejoin:miter;stroke-opacity:1"/>
<path class="bond-5 atom-5 atom-6" d="M 747.0,345.0 L 858.8,294.6" style="fill:none;fill-rule:evenodd;stroke:#000000;stroke-width:2.0px;stroke-linecap:butt;stroke-linejoin:miter;stroke-opacity:1"/>
<path class="bond-6 atom-6 atom-7" d="M 858.8,294.6 L 845.4,172.6" style="fill:none;fill-rule:evenodd;stroke:#000000;stroke-width:2.0px;stroke-linecap:butt;stroke-linejoin:miter;stroke-opacity:1"/>
<path class="bond-7 atom-7 atom-8" d="M 845.4,172.6 L 725.3,147.6" style="fill:none;fill-rule:evenodd;stroke:#000000;stroke-width:2.0px;stroke-linecap:butt;stroke-linejoin:miter;stroke-opacity:1"/>
<path class="bond-8 atom-8 atom-9" d="M 736.4,150.0 L 714.1,100.4" style="fill:none;fill-rule:evenodd;stroke:#000000;stroke-width:2.0px;stroke-linecap:butt;stroke-linejoin:miter;stroke-opacity:1"/>
<path class="bond-8 atom-8 atom-9" d="M 714.1,100.4 L 691.7,50.8" style="fill:none;fill-rule:evenodd;stroke:#FF0000;stroke-width:2.0px;stroke-linecap:butt;stroke-linejoin:miter;stroke-opacity:1"/>
<path class="bond-8 atom-8 atom-9" d="M 719.6,157.5 L 697.3,108.0" style="fill:none;fill-rule:evenodd;stroke:#000000;stroke-width:2.0px;stroke-linecap:butt;stroke-linejoin:miter;stroke-opacity:1"/>
<path class="bond-8 atom-8 atom-9" d="M 697.3,108.0 L 674.9,58.4" style="fill:none;fill-rule:evenodd;stroke:#FF0000;stroke-width:2.0px;stroke-linecap:butt;stroke-linejoin:miter;stroke-opacity:1"/>
<path class="bond-9 atom-8 atom-4" d="M 725.3,147.6 L 700.0,191.8" style="fill:none;fill-rule:evenodd;stroke:#000000;stroke-width:2.0px;stroke-linecap:butt;stroke-linejoin:miter;stroke-opacity:1"/>
<path class="bond-9 atom-8 atom-4" d="M 700.0,191.8 L 674.8,236.0" style="fill:none;fill-rule:evenodd;stroke:#0000FF;stroke-width:2.0px;stroke-linecap:butt;stroke-linejoin:miter;stroke-opacity:1"/>
<path d="M 467.1,169.0 L 469.8,168.7 L 473.5,173.6" style="fill:none;stroke:#000000;stroke-width:2.0px;stroke-linecap:butt;stroke-linejoin:miter;stroke-opacity:1;"/>
<path d="M 745.3,343.2 L 747.0,345.0 L 752.6,342.5" style="fill:none;stroke:#000000;stroke-width:2.0px;stroke-linecap:butt;stroke-linejoin:miter;stroke-opacity:1;"/>
<path d="M 853.2,297.1 L 858.8,294.6 L 858.2,288.5" style="fill:none;stroke:#000000;stroke-width:2.0px;stroke-linecap:butt;stroke-linejoin:miter;stroke-opacity:1;"/>
<path d="M 846.1,178.7 L 845.4,172.6 L 839.4,171.3" style="fill:none;stroke:#000000;stroke-width:2.0px;stroke-linecap:butt;stroke-linejoin:miter;stroke-opacity:1;"/>
<path d="M 731.3,148.9 L 725.3,147.6 L 724.0,149.9" style="fill:none;stroke:#000000;stroke-width:2.0px;stroke-linecap:butt;stroke-linejoin:miter;stroke-opacity:1;"/>
<path class="atom-0" d="M 342.5 179.0 L 346.7 174.7 L 341.2 173.6 L 342.0 170.8 L 347.1 173.3 L 346.4 167.8 L 349.4 167.7 L 348.5 173.3 L 353.7 170.9 L 354.6 173.6 L 349.0 174.6 L 353.0 178.9 L 350.5 180.7 L 347.8 175.4 L 345.0 180.7 L 342.5 179.0 " fill="#191919"/>
<path class="atom-3" d="M 487.7 376.8 L 491.9 372.6 L 486.4 371.5 L 487.2 368.6 L 492.3 371.2 L 491.6 365.6 L 494.6 365.6 L 493.7 371.1 L 498.9 368.7 L 499.8 371.5 L 494.2 372.5 L 498.2 376.8 L 495.7 378.5 L 493.0 373.3 L 490.2 378.5 L 487.7 376.8 " fill="#191919"/>
<path class="atom-4" d="M 658.2 240.1 L 667.4 255.1 Q 668.4 256.5, 669.8 259.2 Q 671.3 261.9, 671.4 262.1 L 671.4 240.1 L 675.2 240.1 L 675.2 268.4 L 671.3 268.4 L 661.3 252.0 Q 660.2 250.1, 658.9 247.9 Q 657.7 245.7, 657.4 245.0 L 657.4 268.4 L 653.7 268.4 L 653.7 240.1 L 658.2 240.1 " fill="#0000FF"/>
<path class="atom-9" d="M 661.8 35.9 Q 661.8 29.1, 665.2 25.3 Q 668.5 21.5, 674.8 21.5 Q 681.1 21.5, 684.5 25.3 Q 687.8 29.1, 687.8 35.9 Q 687.8 42.7, 684.4 46.7 Q 681.0 50.5, 674.8 50.5 Q 668.6 50.5, 665.2 46.7 Q 661.8 42.8, 661.8 35.9 M 674.8 47.3 Q 679.1 47.3, 681.5 44.5 Q 683.8 41.5, 683.8 35.9 Q 683.8 30.3, 681.5 27.5 Q 679.1 24.7, 674.8 24.7 Q 670.5 24.7, 668.1 27.5 Q 665.8 30.3, 665.8 35.9 Q 665.8 41.6, 668.1 44.5 Q 670.5 47.3, 674.8 47.3 " fill="#FF0000"/>
<path class="bond-0 atom-0 atom-1" d="M 131.5,648.2 L 180.9,623.2" style="fill:none;fill-rule:evenodd;stroke:#191919;stroke-width:2.0px;stroke-linecap:butt;stroke-linejoin:miter;stroke-opacity:1"/>
<path class="bond-0 atom-0 atom-1" d="M 180.9,623.2 L 230.3,598.2" style="fill:none;fill-rule:evenodd;stroke:#000000;stroke-width:2.0px;stroke-linecap:butt;stroke-linejoin:miter;stroke-opacity:1"/>
<path class="bond-1 atom-1 atom-2" d="M 230.3,598.2 L 333.0,665.4" style="fill:none;fill-rule:evenodd;stroke:#000000;stroke-width:2.0px;stroke-linecap:butt;stroke-linejoin:miter;stroke-opacity:1"/>
<path class="bond-2 atom-2 atom-3" d="M 333.0,665.4 L 379.2,642.0" style="fill:none;fill-rule:evenodd;stroke:#000000;stroke-width:2.0px;stroke-linecap:butt;stroke-linejoin:miter;stroke-opacity:1"/>
<path class="bond-2 atom-2 atom-3" d="M 379.2,642.0 L 425.5,618.6" style="fill:none;fill-rule:evenodd;stroke:#FF0000;stroke-width:2.0px;stroke-linecap:butt;stroke-linejoin:miter;stroke-opacity:1"/>
<path class="bond-3 atom-3 atom-4" d="M 459.6,621.1 L 502.4,649.1" style="fill:none;fill-rule:evenodd;stroke:#FF0000;stroke-width:2.0px;stroke-linecap:butt;stroke-linejoin:miter;stroke-opacity:1"/>
<path class="bond-3 atom-3 atom-4" d="M 502.4,649.1 L 545.3,677.1" style="fill:none;fill-rule:evenodd;stroke:#000000;stroke-width:2.0px;stroke-linecap:butt;stroke-linejoin:miter;stroke-opacity:1"/>
<path class="bond-4 atom-4 atom-5" d="M 545.3,677.1 L 654.7,621.6" style="fill:none;fill-rule:evenodd;stroke:#000000;stroke-width:2.0px;stroke-linecap:butt;stroke-linejoin:miter;stroke-opacity:1"/>
<path class="bond-5 atom-5 atom-6" d="M 654.7,621.6 L 697.6,649.6" style="fill:none;fill-rule:evenodd;stroke:#000000;stroke-width:2.0px;stroke-linecap:butt;stroke-linejoin:miter;stroke-opacity:1"/>
<path class="bond-5 atom-5 atom-6" d="M 697.6,649.6 L 740.4,677.6" style="fill:none;fill-rule:evenodd;stroke:#FF0000;stroke-width:2.0px;stroke-linecap:butt;stroke-linejoin:miter;stroke-opacity:1"/>
<path class="bond-6 atom-6 atom-7" d="M 774.5,680.1 L 820.8,656.7" style="fill:none;fill-rule:evenodd;stroke:#FF0000;stroke-width:2.0px;stroke-linecap:butt;stroke-linejoin:miter;stroke-opacity:1"/>
<path class="bond-6 atom-6 atom-7" d="M 820.8,656.7 L 867.0,633.3" style="fill:none;fill-rule:evenodd;stroke:#000000;stroke-width:2.0px;stroke-linecap:butt;stroke-linejoin:miter;stroke-opacity:1"/>
<path class="bond-7 atom-7 atom-8" d="M 875.9,639.1 L 878.9,584.6" style="fill:none;fill-rule:evenodd;stroke:#000000;stroke-width:2.0px;stroke-linecap:butt;stroke-linejoin:miter;stroke-opacity:1"/>
<path class="bond-7 atom-7 atom-8" d="M 878.9,584.6 L 881.9,530.1" style="fill:none;fill-rule:evenodd;stroke:#FF0000;stroke-width:2.0px;stroke-linecap:butt;stroke-linejoin:miter;stroke-opacity:1"/>
<path class="bond-7 atom-7 atom-8" d="M 857.5,638.1 L 860.5,583.6" style="fill:none;fill-rule:evenodd;stroke:#000000;stroke-width:2.0px;stroke-linecap:butt;stroke-linejoin:miter;stroke-opacity:1"/>
<path class="bond-7 atom-7 atom-8" d="M 860.5,583.6 L 863.5,529.1" style="fill:none;fill-rule:evenodd;stroke:#FF0000;stroke-width:2.0px;stroke-linecap:butt;stroke-linejoin:miter;stroke-opacity:1"/>
<path class="bond-8 atom-7 atom-9" d="M 867.0,633.3 L 969.7,700.5" style="fill:none;fill-rule:evenodd;stroke:#000000;stroke-width:2.0px;stroke-linecap:butt;stroke-linejoin:miter;stroke-opacity:1"/>
<path class="bond-9 atom-9 atom-10" d="M 969.7,700.5 L 1021.9,674.0" style="fill:none;fill-rule:evenodd;stroke:#000000;stroke-width:2.0px;stroke-linecap:butt;stroke-linejoin:miter;stroke-opacity:1"/>
<path class="bond-9 atom-9 atom-10" d="M 1021.9,674.0 L 1074.0,647.6" style="fill:none;fill-rule:evenodd;stroke:#191919;stroke-width:2.0px;stroke-linecap:butt;stroke-linejoin:miter;stroke-opacity:1"/>
<path d="M 227.8,599.5 L 230.3,598.2 L 235.4,601.6" style="fill:none;stroke:#000000;stroke-width:2.0px;stroke-linecap:butt;stroke-linejoin:miter;stroke-opacity:1;"/>
<path d="M 327.9,662.0 L 333.0,665.4 L 335.3,664.2" style="fill:none;stroke:#000000;stroke-width:2.0px;stroke-linecap:butt;stroke-linejoin:miter;stroke-opacity:1;"/>
<path d="M 543.1,675.7 L 545.3,677.1 L 550.7,674.3" style="fill:none;stroke:#000000;stroke-width:2.0px;stroke-linecap:butt;stroke-linejoin:miter;stroke-opacity:1;"/>
<path d="M 649.3,624.4 L 654.7,621.6 L 656.9,623.0" style="fill:none;stroke:#000000;stroke-width:2.0px;stroke-linecap:butt;stroke-linejoin:miter;stroke-opacity:1;"/>
<path d="M 864.7,634.5 L 867.0,633.3 L 872.1,636.7" style="fill:none;stroke:#000000;stroke-width:2.0px;stroke-linecap:butt;stroke-linejoin:miter;stroke-opacity:1;"/>
<path d="M 964.6,697.1 L 969.7,700.5 L 972.3,699.1" style="fill:none;stroke:#000000;stroke-width:2.0px;stroke-linecap:butt;stroke-linejoin:miter;stroke-opacity:1;"/>
<path class="atom-0" d="M 115.5 650.5 L 119.6 646.3 L 114.1 645.1 L 114.9 642.3 L 120.0 644.9 L 119.3 639.3 L 122.3 639.3 L 121.5 644.8 L 126.6 642.4 L 127.5 645.1 L 121.9 646.2 L 125.9 650.5 L 123.5 652.2 L 120.7 646.9 L 117.9 652.2 L 115.5 650.5 " fill="#191919"/>
<path class="atom-3" d="M 429.5 610.0 Q 429.5 603.2, 432.9 599.4 Q 436.2 595.6, 442.5 595.6 Q 448.8 595.6, 452.2 599.4 Q 455.5 603.2, 455.5 610.0 Q 455.5 616.9, 452.1 620.8 Q 448.7 624.7, 442.5 624.7 Q 436.3 624.7, 432.9 620.8 Q 429.5 616.9, 429.5 610.0 M 442.5 621.5 Q 446.8 621.5, 449.2 618.6 Q 451.5 615.7, 451.5 610.0 Q 451.5 604.5, 449.2 601.7 Q 446.8 598.8, 442.5 598.8 Q 438.2 598.8, 435.8 601.6 Q 433.5 604.4, 433.5 610.0 Q 433.5 615.7, 435.8 618.6 Q 438.2 621.5, 442.5 621.5 " fill="#FF0000"/>
<path class="atom-6" d="M 744.5 688.8 Q 744.5 682.0, 747.8 678.2 Q 751.2 674.4, 757.5 674.4 Q 763.8 674.4, 767.1 678.2 Q 770.5 682.0, 770.5 688.8 Q 770.5 695.7, 767.1 699.6 Q 763.7 703.5, 757.5 703.5 Q 751.2 703.5, 747.8 699.6 Q 744.5 695.8, 744.5 688.8 M 757.5 700.3 Q 761.8 700.3, 764.1 697.4 Q 766.5 694.5, 766.5 688.8 Q 766.5 683.3, 764.1 680.5 Q 761.8 677.6, 757.5 677.6 Q 753.2 677.6, 750.8 680.4 Q 748.5 683.2, 748.5 688.8 Q 748.5 694.6, 750.8 697.4 Q 753.2 700.3, 757.5 700.3 " fill="#FF0000"/>
<path class="atom-8" d="M 860.7 510.9 Q 860.7 504.1, 864.1 500.3 Q 867.4 496.5, 873.7 496.5 Q 880.0 496.5, 883.4 500.3 Q 886.7 504.1, 886.7 510.9 Q 886.7 517.8, 883.3 521.7 Q 879.9 525.6, 873.7 525.6 Q 867.5 525.6, 864.1 521.7 Q 860.7 517.8, 860.7 510.9 M 873.7 522.4 Q 878.0 522.4, 880.4 519.5 Q 882.7 516.6, 882.7 510.9 Q 882.7 505.3, 880.4 502.5 Q 878.0 499.7, 873.7 499.7 Q 869.4 499.7, 867.0 502.5 Q 864.7 505.3, 864.7 510.9 Q 864.7 516.6, 867.0 519.5 Q 869.4 522.4, 873.7 522.4 " fill="#FF0000"/>
<path class="atom-10" d="M 1073.9 641.9 L 1078.0 637.6 L 1072.5 636.5 L 1073.3 633.7 L 1078.4 636.2 L 1077.7 630.7 L 1080.7 630.6 L 1079.9 636.2 L 1085.0 633.8 L 1085.9 636.5 L 1080.3 637.6 L 1084.3 641.8 L 1081.9 643.6 L 1079.1 638.3 L 1076.3 643.6 L 1073.9 641.9 " fill="#191919"/>
</svg>