<svg xmlns="http://www.w3.org/2000/svg" xmlns:rdkit="http://www.rdkit.org/xml" xmlns:xlink="http://www.w3.org/1999/xlink" version="1.1" baseProfile="full" xml:space="preserve" width="1200px" height="2000px" viewBox="0 0 1200 2000">
<!-- END OF HEADER -->
<rect style="opacity:1.0;fill:#FFFFFF;stroke:none" width="1200.0" height="2000.0" x="0.0" y="0.0"> </rect>
<path class="bond-0 atom-0 atom-1" d="M 83.8,118.4 L 131.1,170.8" style="fill:none;fill-rule:evenodd;stroke:#191919;stroke-width:2.0px;stroke-linecap:butt;stroke-linejoin:miter;stroke-opacity:1"/>
<path class="bond-0 atom-0 atom-1" d="M 131.1,170.8 L 178.5,223.2" style="fill:none;fill-rule:evenodd;stroke:#000000;stroke-width:2.0px;stroke-linecap:butt;stroke-linejoin:miter;stroke-opacity:1"/>
<path class="bond-1 atom-1 atom-2" d="M 178.5,223.2 L 159.2,283.0" style="fill:none;fill-rule:evenodd;stroke:#000000;stroke-width:2.0px;stroke-linecap:butt;stroke-linejoin:miter;stroke-opacity:1"/>
<path class="bond-1 atom-1 atom-2" d="M 159.2,283.0 L 139.9,342.7" style="fill:none;fill-rule:evenodd;stroke:#FF0000;stroke-width:2.0px;stroke-linecap:butt;stroke-linejoin:miter;stroke-opacity:1"/>
<path class="bond-2 atom-1 atom-3" d="M 178.5,223.2 L 321.0,192.6" style="fill:none;fill-rule:evenodd;stroke:#000000;stroke-width:2.0px;stroke-linecap:butt;stroke-linejoin:miter;stroke-opacity:1"/>
<path class="bond-3 atom-3 atom-4" d="M 321.0,192.6 L 365.8,53.9" style="fill:none;fill-rule:evenodd;stroke:#000000;stroke-width:2.0px;stroke-linecap:butt;stroke-linejoin:miter;stroke-opacity:1"/>
<path class="bond-3 atom-3 atom-4" d="M 345.7,187.3 L 382.7,72.7" style="fill:none;fill-rule:evenodd;stroke:#000000;stroke-width:2.0px;stroke-linecap:butt;stroke-linejoin:miter;stroke-opacity:1"/>
<path class="bond-4 atom-4 atom-5" d="M 365.8,53.9 L 508.2,23.4" style="fill:none;fill-rule:evenodd;stroke:#000000;stroke-width:2.0px;stroke-linecap:butt;stroke-linejoin:miter;stroke-opacity:1"/>
<path class="bond-5 atom-5 atom-6" d="M 508.2,23.4 L 606.0,131.5" style="fill:none;fill-rule:evenodd;stroke:#000000;stroke-width:2.0px;stroke-linecap:butt;stroke-linejoin:miter;stroke-opacity:1"/>
<path class="bond-5 atom-5 atom-6" d="M 500.5,47.4 L 581.3,136.8" style="fill:none;fill-rule:evenodd;stroke:#000000;stroke-width:2.0px;stroke-linecap:butt;stroke-linejoin:miter;stroke-opacity:1"/>
<path class="bond-6 atom-6 atom-7" d="M 606.0,131.5 L 668.3,118.1" style="fill:none;fill-rule:evenodd;stroke:#000000;stroke-width:2.0px;stroke-linecap:butt;stroke-linejoin:miter;stroke-opacity:1"/>
<path class="bond-6 atom-6 atom-7" d="M 668.3,118.1 L 730.6,104.8" style="fill:none;fill-rule:evenodd;stroke:#FF0000;stroke-width:2.0px;stroke-linecap:butt;stroke-linejoin:miter;stroke-opacity:1"/>
<path class="bond-7 atom-7 atom-8" d="M 766.1,120.5 L 806.1,164.8" style="fill:none;fill-rule:evenodd;stroke:#FF0000;stroke-width:2.0px;stroke-linecap:butt;stroke-linejoin:miter;stroke-opacity:1"/>
<path class="bond-7 atom-7 atom-8" d="M 806.1,164.8 L 846.2,209.1" style="fill:none;fill-rule:evenodd;stroke:#000000;stroke-width:2.0px;stroke-linecap:butt;stroke-linejoin:miter;stroke-opacity:1"/>
<path class="bond-8 atom-8 atom-9" d="M 846.2,209.1 L 988.7,178.5" style="fill:none;fill-rule:evenodd;stroke:#000000;stroke-width:2.0px;stroke-linecap:butt;stroke-linejoin:miter;stroke-opacity:1"/>
<path class="bond-9 atom-9 atom-10" d="M 988.7,178.5 L 1028.9,223.0" style="fill:none;fill-rule:evenodd;stroke:#000000;stroke-width:2.0px;stroke-linecap:butt;stroke-linejoin:miter;stroke-opacity:1"/>
<path class="bond-9 atom-9 atom-10" d="M 1028.9,223.0 L 1069.1,267.5" style="fill:none;fill-rule:evenodd;stroke:#FF0000;stroke-width:2.0px;stroke-linecap:butt;stroke-linejoin:miter;stroke-opacity:1"/>
<path class="bond-10 atom-6 atom-11" d="M 606.0,131.5 L 561.2,270.2" style="fill:none;fill-rule:evenodd;stroke:#000000;stroke-width:2.0px;stroke-linecap:butt;stroke-linejoin:miter;stroke-opacity:1"/>
<path class="bond-11 atom-11 atom-12" d="M 561.2,270.2 L 418.7,300.7" style="fill:none;fill-rule:evenodd;stroke:#000000;stroke-width:2.0px;stroke-linecap:butt;stroke-linejoin:miter;stroke-opacity:1"/>
<path class="bond-11 atom-11 atom-12" d="M 544.3,251.4 L 426.4,276.7" style="fill:none;fill-rule:evenodd;stroke:#000000;stroke-width:2.0px;stroke-linecap:butt;stroke-linejoin:miter;stroke-opacity:1"/>
<path class="bond-12 atom-12 atom-3" d="M 418.7,300.7 L 321.0,192.6" style="fill:none;fill-rule:evenodd;stroke:#000000;stroke-width:2.0px;stroke-linecap:butt;stroke-linejoin:miter;stroke-opacity:1"/>
<path d="M 363.5,60.9 L 365.8,53.9 L 372.9,52.4" style="fill:none;stroke:#000000;stroke-width:2.0px;stroke-linecap:butt;stroke-linejoin:miter;stroke-opacity:1;"/>
<path d="M 501.1,24.9 L 508.2,23.4 L 513.1,28.8" style="fill:none;stroke:#000000;stroke-width:2.0px;stroke-linecap:butt;stroke-linejoin:miter;stroke-opacity:1;"/>
<path d="M 844.2,206.8 L 846.2,209.1 L 853.3,207.5" style="fill:none;stroke:#000000;stroke-width:2.0px;stroke-linecap:butt;stroke-linejoin:miter;stroke-opacity:1;"/>
<path d="M 981.5,180.0 L 988.7,178.5 L 990.7,180.7" style="fill:none;stroke:#000000;stroke-width:2.0px;stroke-linecap:butt;stroke-linejoin:miter;stroke-opacity:1;"/>
<path d="M 563.4,263.2 L 561.2,270.2 L 554.1,271.7" style="fill:none;stroke:#000000;stroke-width:2.0px;stroke-linecap:butt;stroke-linejoin:miter;stroke-opacity:1;"/>
<path d="M 425.8,299.2 L 418.7,300.7 L 413.8,295.3" style="fill:none;stroke:#000000;stroke-width:2.0px;stroke-linecap:butt;stroke-linejoin:miter;stroke-opacity:1;"/>
<path class="atom-0" d="M 75.4 111.9 L 79.6 107.7 L 74.1 106.5 L 74.9 103.7 L 80.0 106.3 L 79.3 100.7 L 82.3 100.7 L 81.4 106.2 L 86.6 103.8 L 87.5 106.5 L 81.9 107.6 L 85.9 111.9 L 83.4 113.6 L 80.7 108.3 L 77.9 113.6 L 75.4 111.9 " fill="#191919"/>
<path class="atom-2" d="M 120.7 361.9 Q 120.7 355.1, 124.1 351.3 Q 127.4 347.5, 133.7 347.5 Q 140.0 347.5, 143.3 351.3 Q 146.7 355.1, 146.7 361.9 Q 146.7 368.8, 143.3 372.7 Q 139.9 376.6, 133.7 376.6 Q 127.5 376.6, 124.1 372.7 Q 120.7 368.9, 120.7 361.9 M 133.7 373.4 Q 138.0 373.4, 140.3 370.5 Q 142.7 367.6, 142.7 361.9 Q 142.7 356.4, 140.3 353.6 Q 138.0 350.7, 133.7 350.7 Q 129.4 350.7, 127.0 353.5 Q 124.7 356.3, 124.7 361.9 Q 124.7 367.7, 127.0 370.5 Q 129.4 373.4, 133.7 373.4 " fill="#FF0000"/>
<path class="atom-2" d="M 151.1 347.9 L 155.0 347.9 L 155.0 359.9 L 169.4 359.9 L 169.4 347.9 L 173.3 347.9 L 173.3 376.2 L 169.4 376.2 L 169.4 363.1 L 155.0 363.1 L 155.0 376.2 L 151.1 376.2 L 151.1 347.9 " fill="#FF0000"/>
<path class="atom-7" d="M 735.4 101.0 Q 735.4 94.2, 738.8 90.4 Q 742.2 86.6, 748.4 86.6 Q 754.7 86.6, 758.1 90.4 Q 761.4 94.2, 761.4 101.0 Q 761.4 107.9, 758.0 111.8 Q 754.6 115.7, 748.4 115.7 Q 742.2 115.7, 738.8 111.8 Q 735.4 107.9, 735.4 101.0 M 748.4 112.5 Q 752.8 112.5, 755.1 109.6 Q 757.4 106.7, 757.4 101.0 Q 757.4 95.5, 755.1 92.7 Q 752.8 89.8, 748.4 89.8 Q 744.1 89.8, 741.8 92.6 Q 739.4 95.4, 739.4 101.0 Q 739.4 106.7, 741.8 109.6 Q 744.1 112.5, 748.4 112.5 " fill="#FF0000"/>
<path class="atom-10" d="M 1073.4 286.7 Q 1073.4 279.9, 1076.7 276.1 Q 1080.1 272.3, 1086.4 272.3 Q 1092.6 272.3, 1096.0 276.1 Q 1099.4 279.9, 1099.4 286.7 Q 1099.4 293.6, 1096.0 297.5 Q 1092.6 301.4, 1086.4 301.4 Q 1080.1 301.4, 1076.7 297.5 Q 1073.4 293.6, 1073.4 286.7 M 1086.4 298.2 Q 1090.7 298.2, 1093.0 295.3 Q 1095.4 292.4, 1095.4 286.7 Q 1095.4 281.1, 1093.0 278.3 Q 1090.7 275.5, 1086.4 275.5 Q 1082.0 275.5, 1079.7 278.3 Q 1077.4 281.1, 1077.4 286.7 Q 1077.4 292.4, 1079.7 295.3 Q 1082.0 298.2, 1086.4 298.2 " fill="#FF0000"/>
<path class="atom-10" d="M 1103.8 272.6 L 1107.6 272.6 L 1107.6 284.6 L 1122.1 284.6 L 1122.1 272.6 L 1125.9 272.6 L 1125.9 300.9 L 1122.1 300.9 L 1122.1 287.8 L 1107.6 287.8 L 1107.6 300.9 L 1103.8 300.9 L 1103.8 272.6 " fill="#FF0000"/>
<path class="bond-0 atom-0 atom-1" d="M 1099.1,605.5 L 1040.2,642.8" style="fill:none;fill-rule:evenodd;stroke:#191919;stroke-width:2.0px;stroke-linecap:butt;stroke-linejoin:miter;stroke-opacity:1"/>
<path class="bond-0 atom-0 atom-1" d="M 1040.2,642.8 L 981.3,680.2" style="fill:none;fill-rule:evenodd;stroke:#000000;stroke-width:2.0px;stroke-linecap:butt;stroke-linejoin:miter;stroke-opacity:1"/>
<path class="bond-1 atom-1 atom-2" d="M 981.3,680.2 L 852.2,612.6" style="fill:none;fill-rule:evenodd;stroke:#000000;stroke-width:2.0px;stroke-linecap:butt;stroke-linejoin:miter;stroke-opacity:1"/>
<path class="bond-2 atom-2 atom-3" d="M 852.2,612.6 L 729.1,690.7" style="fill:none;fill-rule:evenodd;stroke:#000000;stroke-width:2.0px;stroke-linecap:butt;stroke-linejoin:miter;stroke-opacity:1"/>
<path class="bond-3 atom-3 atom-4" d="M 729.1,690.7 L 600.0,623.1" style="fill:none;fill-rule:evenodd;stroke:#000000;stroke-width:2.0px;stroke-linecap:butt;stroke-linejoin:miter;stroke-opacity:1"/>
<path class="bond-4 atom-4 atom-5" d="M 600.0,623.1 L 476.9,701.1" style="fill:none;fill-rule:evenodd;stroke:#000000;stroke-width:2.0px;stroke-linecap:butt;stroke-linejoin:miter;stroke-opacity:1"/>
<path class="bond-5 atom-5 atom-6" d="M 476.9,701.1 L 347.8,633.6" style="fill:none;fill-rule:evenodd;stroke:#000000;stroke-width:2.0px;stroke-linecap:butt;stroke-linejoin:miter;stroke-opacity:1"/>
<path class="bond-6 atom-6 atom-7" d="M 359.0,639.4 L 356.2,573.2" style="fill:none;fill-rule:evenodd;stroke:#000000;stroke-width:2.0px;stroke-linecap:butt;stroke-linejoin:miter;stroke-opacity:1"/>
<path class="bond-6 atom-6 atom-7" d="M 356.2,573.2 L 353.5,507.1" style="fill:none;fill-rule:evenodd;stroke:#FF0000;stroke-width:2.0px;stroke-linecap:butt;stroke-linejoin:miter;stroke-opacity:1"/>
<path class="bond-6 atom-6 atom-7" d="M 337.1,640.3 L 334.4,574.2" style="fill:none;fill-rule:evenodd;stroke:#000000;stroke-width:2.0px;stroke-linecap:butt;stroke-linejoin:miter;stroke-opacity:1"/>
<path class="bond-6 atom-6 atom-7" d="M 334.4,574.2 L 331.6,508.0" style="fill:none;fill-rule:evenodd;stroke:#FF0000;stroke-width:2.0px;stroke-linecap:butt;stroke-linejoin:miter;stroke-opacity:1"/>
<path class="bond-7 atom-6 atom-8" d="M 347.8,633.6 L 295.2,666.9" style="fill:none;fill-rule:evenodd;stroke:#000000;stroke-width:2.0px;stroke-linecap:butt;stroke-linejoin:miter;stroke-opacity:1"/>
<path class="bond-7 atom-6 atom-8" d="M 295.2,666.9 L 242.5,700.3" style="fill:none;fill-rule:evenodd;stroke:#FF0000;stroke-width:2.0px;stroke-linecap:butt;stroke-linejoin:miter;stroke-opacity:1"/>
<path class="bond-8 atom-8 atom-9" d="M 206.9,702.3 L 154.5,674.8" style="fill:none;fill-rule:evenodd;stroke:#FF0000;stroke-width:2.0px;stroke-linecap:butt;stroke-linejoin:miter;stroke-opacity:1"/>
<path class="bond-8 atom-8 atom-9" d="M 154.5,674.8 L 102.0,647.4" style="fill:none;fill-rule:evenodd;stroke:#191919;stroke-width:2.0px;stroke-linecap:butt;stroke-linejoin:miter;stroke-opacity:1"/>
<path d="M 984.3,678.3 L 981.3,680.2 L 974.9,676.8" style="fill:none;stroke:#000000;stroke-width:2.0px;stroke-linecap:butt;stroke-linejoin:miter;stroke-opacity:1;"/>
<path d="M 858.7,616.0 L 852.2,612.6 L 846.0,616.5" style="fill:none;stroke:#000000;stroke-width:2.0px;stroke-linecap:butt;stroke-linejoin:miter;stroke-opacity:1;"/>
<path d="M 735.3,686.8 L 729.1,690.7 L 722.7,687.3" style="fill:none;stroke:#000000;stroke-width:2.0px;stroke-linecap:butt;stroke-linejoin:miter;stroke-opacity:1;"/>
<path d="M 606.5,626.5 L 600.0,623.1 L 593.8,627.0" style="fill:none;stroke:#000000;stroke-width:2.0px;stroke-linecap:butt;stroke-linejoin:miter;stroke-opacity:1;"/>
<path d="M 483.1,697.2 L 476.9,701.1 L 470.5,697.8" style="fill:none;stroke:#000000;stroke-width:2.0px;stroke-linecap:butt;stroke-linejoin:miter;stroke-opacity:1;"/>
<path d="M 354.3,636.9 L 347.8,633.6 L 345.2,635.2" style="fill:none;stroke:#000000;stroke-width:2.0px;stroke-linecap:butt;stroke-linejoin:miter;stroke-opacity:1;"/>
<path class="atom-0" d="M 1099.1 599.0 L 1103.2 594.7 L 1097.7 593.6 L 1098.5 590.8 L 1103.6 593.3 L 1102.9 587.8 L 1105.9 587.7 L 1105.1 593.3 L 1110.2 590.9 L 1111.1 593.6 L 1105.5 594.7 L 1109.5 598.9 L 1107.1 600.7 L 1104.3 595.4 L 1101.5 600.7 L 1099.1 599.0 " fill="#191919"/>
<path class="atom-7" d="M 328.8 488.0 Q 328.8 481.2, 332.1 477.4 Q 335.5 473.6, 341.8 473.6 Q 348.0 473.6, 351.4 477.4 Q 354.8 481.2, 354.8 488.0 Q 354.8 494.9, 351.4 498.8 Q 348.0 502.7, 341.8 502.7 Q 335.5 502.7, 332.1 498.8 Q 328.8 495.0, 328.8 488.0 M 341.8 499.5 Q 346.1 499.5, 348.4 496.6 Q 350.8 493.7, 350.8 488.0 Q 350.8 482.5, 348.4 479.7 Q 346.1 476.8, 341.8 476.8 Q 337.4 476.8, 335.1 479.6 Q 332.8 482.4, 332.8 488.0 Q 332.8 493.8, 335.1 496.6 Q 337.4 499.5, 341.8 499.5 " fill="#FF0000"/>
<path class="atom-8" d="M 211.7 711.7 Q 211.7 704.9, 215.1 701.1 Q 218.4 697.3, 224.7 697.3 Q 231.0 697.3, 234.4 701.1 Q 237.7 704.9, 237.7 711.7 Q 237.7 718.6, 234.3 722.5 Q 230.9 726.4, 224.7 726.4 Q 218.5 726.4, 215.1 722.5 Q 211.7 718.6, 211.7 711.7 M 224.7 723.2 Q 229.0 723.2, 231.4 720.3 Q 233.7 717.4, 233.7 711.7 Q 233.7 706.1, 231.4 703.3 Q 229.0 700.5, 224.7 700.5 Q 220.4 700.5, 218.0 703.3 Q 215.7 706.1, 215.7 711.7 Q 215.7 717.4, 218.0 720.3 Q 220.4 723.2, 224.7 723.2 " fill="#FF0000"/>
<path class="atom-9" d="M 90.3 640.9 L 94.4 636.6 L 88.9 635.5 L 89.7 632.7 L 94.8 635.2 L 94.1 629.7 L 97.1 629.6 L 96.3 635.2 L 101.4 632.8 L 102.3 635.5 L 96.7 636.6 L 100.7 640.8 L 98.3 642.6 L 95.5 637.3 L 92.7 642.6 L 90.3 640.9 " fill="#191919"/>
<path class="bond-0 atom-0 atom-1" d="M 422.2,956.7 L 479.5,923.6" style="fill:none;fill-rule:evenodd;stroke:#191919;stroke-width:2.0px;stroke-linecap:butt;stroke-linejoin:miter;stroke-opacity:1"/>
<path class="bond-0 atom-0 atom-1" d="M 479.5,923.6 L 536.9,890.5" style="fill:none;fill-rule:evenodd;stroke:#000000;stroke-width:2.0px;stroke-linecap:butt;stroke-linejoin:miter;stroke-opacity:1"/>
<path class="bond-1 atom-1 atom-2" d="M 536.9,890.5 L 663.1,963.4" style="fill:none;fill-rule:evenodd;stroke:#000000;stroke-width:2.0px;stroke-linecap:butt;stroke-linejoin:miter;stroke-opacity:1"/>
<path class="bond-2 atom-2 atom-3" d="M 663.1,963.4 L 723.3,928.6" style="fill:none;fill-rule:evenodd;stroke:#000000;stroke-width:2.0px;stroke-linecap:butt;stroke-linejoin:miter;stroke-opacity:1"/>
<path class="bond-2 atom-2 atom-3" d="M 723.3,928.6 L 783.5,893.9" style="fill:none;fill-rule:evenodd;stroke:#191919;stroke-width:2.0px;stroke-linecap:butt;stroke-linejoin:miter;stroke-opacity:1"/>
<path class="bond-3 atom-2 atom-4" d="M 663.1,963.4 L 663.1,1026.7" style="fill:none;fill-rule:evenodd;stroke:#000000;stroke-width:2.0px;stroke-linecap:butt;stroke-linejoin:miter;stroke-opacity:1"/>
<path class="bond-3 atom-2 atom-4" d="M 663.1,1026.7 L 663.1,1090.0" style="fill:none;fill-rule:evenodd;stroke:#FF0000;stroke-width:2.0px;stroke-linecap:butt;stroke-linejoin:miter;stroke-opacity:1"/>
<path d="M 534.0,892.2 L 536.9,890.5 L 543.2,894.2" style="fill:none;stroke:#000000;stroke-width:2.0px;stroke-linecap:butt;stroke-linejoin:miter;stroke-opacity:1;"/>
<path class="atom-0" d="M 405.3 960.2 L 409.5 956.0 L 404.0 954.9 L 404.8 952.0 L 409.9 954.6 L 409.2 949.0 L 412.2 949.0 L 411.3 954.5 L 416.5 952.1 L 417.4 954.9 L 411.8 955.9 L 415.8 960.2 L 413.3 961.9 L 410.6 956.7 L 407.8 961.9 L 405.3 960.2 " fill="#191919"/>
<path class="atom-3" d="M 784.0 887.4 L 788.1 883.1 L 782.6 882.0 L 783.5 879.2 L 788.5 881.7 L 787.8 876.2 L 790.8 876.1 L 790.0 881.7 L 795.1 879.3 L 796.0 882.0 L 790.4 883.0 L 794.4 887.3 L 792.0 889.1 L 789.2 883.8 L 786.4 889.1 L 784.0 887.4 " fill="#191919"/>
<path class="atom-4" d="M 650.1 1109.2 Q 650.1 1102.4, 653.5 1098.6 Q 656.8 1094.8, 663.1 1094.8 Q 669.4 1094.8, 672.7 1098.6 Q 676.1 1102.4, 676.1 1109.2 Q 676.1 1116.1, 672.7 1120.0 Q 669.3 1123.9, 663.1 1123.9 Q 656.9 1123.9, 653.5 1120.0 Q 650.1 1116.1, 650.1 1109.2 M 663.1 1120.7 Q 667.4 1120.7, 669.7 1117.8 Q 672.1 1114.9, 672.1 1109.2 Q 672.1 1103.6, 669.7 1100.8 Q 667.4 1098.0, 663.1 1098.0 Q 658.8 1098.0, 656.4 1100.8 Q 654.1 1103.6, 654.1 1109.2 Q 654.1 1114.9, 656.4 1117.8 Q 658.8 1120.7, 663.1 1120.7 " fill="#FF0000"/>
<path class="atom-4" d="M 680.5 1095.1 L 684.4 1095.1 L 684.4 1107.2 L 698.8 1107.2 L 698.8 1095.1 L 702.7 1095.1 L 702.7 1123.4 L 698.8 1123.4 L 698.8 1110.4 L 684.4 1110.4 L 684.4 1123.4 L 680.5 1123.4 L 680.5 1095.1 " fill="#FF0000"/>
<path class="bond-0 atom-0 atom-1" d="M 484.9,1417.7 L 542.2,1384.6" style="fill:none;fill-rule:evenodd;stroke:#191919;stroke-width:2.0px;stroke-linecap:butt;stroke-linejoin:miter;stroke-opacity:1"/>
<path class="bond-0 atom-0 atom-1" d="M 542.2,1384.6 L 599.6,1351.5" style="fill:none;fill-rule:evenodd;stroke:#000000;stroke-width:2.0px;stroke-linecap:butt;stroke-linejoin:miter;stroke-opacity:1"/>
<path class="bond-1 atom-1 atom-2" d="M 599.6,1351.5 L 653.8,1382.7" style="fill:none;fill-rule:evenodd;stroke:#000000;stroke-width:2.0px;stroke-linecap:butt;stroke-linejoin:miter;stroke-opacity:1"/>
<path class="bond-1 atom-1 atom-2" d="M 653.8,1382.7 L 708.0,1414.0" style="fill:none;fill-rule:evenodd;stroke:#FF0000;stroke-width:2.0px;stroke-linecap:butt;stroke-linejoin:miter;stroke-opacity:1"/>
<path class="bond-1 atom-1 atom-2" d="M 599.6,1376.7 L 642.9,1401.7" style="fill:none;fill-rule:evenodd;stroke:#000000;stroke-width:2.0px;stroke-linecap:butt;stroke-linejoin:miter;stroke-opacity:1"/>
<path class="bond-1 atom-1 atom-2" d="M 642.9,1401.7 L 697.1,1433.0" style="fill:none;fill-rule:evenodd;stroke:#FF0000;stroke-width:2.0px;stroke-linecap:butt;stroke-linejoin:miter;stroke-opacity:1"/>
<path d="M 596.7,1353.1 L 599.6,1351.5 L 602.3,1353.0" style="fill:none;stroke:#000000;stroke-width:2.0px;stroke-linecap:butt;stroke-linejoin:miter;stroke-opacity:1;"/>
<path class="atom-0" d="M 468.0 1421.2 L 472.2 1416.9 L 466.7 1415.8 L 467.5 1413.0 L 472.6 1415.5 L 471.9 1410.0 L 474.9 1409.9 L 474.0 1415.5 L 479.2 1413.1 L 480.1 1415.8 L 474.5 1416.8 L 478.5 1421.1 L 476.0 1422.9 L 473.3 1417.6 L 470.5 1422.9 L 468.0 1421.2 " fill="#191919"/>
<path class="atom-2" d="M 707.3 1433.9 Q 707.3 1427.1, 710.7 1423.3 Q 714.0 1419.5, 720.3 1419.5 Q 726.6 1419.5, 730.0 1423.3 Q 733.3 1427.1, 733.3 1433.9 Q 733.3 1440.7, 729.9 1444.7 Q 726.5 1448.5, 720.3 1448.5 Q 714.1 1448.5, 710.7 1444.7 Q 707.3 1440.8, 707.3 1433.9 M 720.3 1445.3 Q 724.6 1445.3, 727.0 1442.5 Q 729.3 1439.5, 729.3 1433.9 Q 729.3 1428.3, 727.0 1425.5 Q 724.6 1422.7, 720.3 1422.7 Q 716.0 1422.7, 713.6 1425.5 Q 711.3 1428.3, 711.3 1433.9 Q 711.3 1439.6, 713.6 1442.5 Q 716.0 1445.3, 720.3 1445.3 " fill="#FF0000"/>
<path class="bond-0 atom-0 atom-1" d="M 422.5,1815.5 L 474.9,1793.2" style="fill:none;fill-rule:evenodd;stroke:#191919;stroke-width:2.0px;stroke-linecap:butt;stroke-linejoin:miter;stroke-opacity:1"/>
<path class="bond-0 atom-0 atom-1" d="M 474.9,1793.2 L 527.3,1770.9" style="fill:none;fill-rule:evenodd;stroke:#FF0000;stroke-width:2.0px;stroke-linecap:butt;stroke-linejoin:miter;stroke-opacity:1"/>
<path class="bond-1 atom-1 atom-2" d="M 562.9,1776.8 L 612.3,1813.9" style="fill:none;fill-rule:evenodd;stroke:#FF0000;stroke-width:2.0px;stroke-linecap:butt;stroke-linejoin:miter;stroke-opacity:1"/>
<path class="bond-1 atom-1 atom-2" d="M 612.3,1813.9 L 661.6,1851.0" style="fill:none;fill-rule:evenodd;stroke:#000000;stroke-width:2.0px;stroke-linecap:butt;stroke-linejoin:miter;stroke-opacity:1"/>
<path class="bond-2 atom-2 atom-3" d="M 661.6,1851.0 L 795.7,1793.9" style="fill:none;fill-rule:evenodd;stroke:#000000;stroke-width:2.0px;stroke-linecap:butt;stroke-linejoin:miter;stroke-opacity:1"/>
<path d="M 659.1,1849.1 L 661.6,1851.0 L 668.3,1848.1" style="fill:none;stroke:#000000;stroke-width:2.0px;stroke-linecap:butt;stroke-linejoin:miter;stroke-opacity:1;"/>
<path class="atom-0" d="M 405.7 1817.3 L 409.8 1813.0 L 404.3 1811.9 L 405.2 1809.1 L 410.2 1811.6 L 409.5 1806.1 L 412.5 1806.0 L 411.7 1811.6 L 416.8 1809.2 L 417.7 1811.9 L 412.1 1812.9 L 416.1 1817.2 L 413.7 1819.0 L 410.9 1813.7 L 408.1 1819.0 L 405.7 1817.3 " fill="#191919"/>
<path class="atom-1" d="M 532.1 1763.4 Q 532.1 1756.6, 535.5 1752.8 Q 538.8 1749.0, 545.1 1749.0 Q 551.4 1749.0, 554.8 1752.8 Q 558.1 1756.6, 558.1 1763.4 Q 558.1 1770.3, 554.7 1774.2 Q 551.3 1778.1, 545.1 1778.1 Q 538.9 1778.1, 535.5 1774.2 Q 532.1 1770.4, 532.1 1763.4 M 545.1 1774.9 Q 549.4 1774.9, 551.8 1772.0 Q 554.1 1769.1, 554.1 1763.4 Q 554.1 1757.9, 551.8 1755.1 Q 549.4 1752.2, 545.1 1752.2 Q 540.8 1752.2, 538.4 1755.0 Q 536.1 1757.8, 536.1 1763.4 Q 536.1 1769.2, 538.4 1772.0 Q 540.8 1774.9, 545.1 1774.9 " fill="#FF0000"/>
</svg>