<svg xmlns="http://www.w3.org/2000/svg" xmlns:rdkit="http://www.rdkit.org/xml" xmlns:xlink="http://www.w3.org/1999/xlink" version="1.1" baseProfile="full" xml:space="preserve" width="1200px" height="1200px" viewBox="0 0 1200 1200">
<!-- END OF HEADER -->
<rect style="opacity:1.0;fill:#FFFFFF;stroke:none" width="1200.0" height="1200.0" x="0.0" y="0.0"> </rect>
<path class="bond-0 atom-0 atom-1" d="M 392.4,166.1 L 440.9,151.0" style="fill:none;fill-rule:evenodd;stroke:#191919;stroke-width:2.0px;stroke-linecap:butt;stroke-linejoin:miter;stroke-opacity:1"/>
<path class="bond-0 atom-0 atom-1" d="M 440.9,151.0 L 489.4,135.8" style="fill:none;fill-rule:evenodd;stroke:#FF0000;stroke-width:2.0px;stroke-linecap:butt;stroke-linejoin:miter;stroke-opacity:1"/>
<path class="bond-1 atom-1 atom-2" d="M 524.1,146.4 L 563.7,182.9" style="fill:none;fill-rule:evenodd;stroke:#FF0000;stroke-width:2.0px;stroke-linecap:butt;stroke-linejoin:miter;stroke-opacity:1"/>
<path class="bond-1 atom-1 atom-2" d="M 563.7,182.9 L 603.4,219.4" style="fill:none;fill-rule:evenodd;stroke:#000000;stroke-width:2.0px;stroke-linecap:butt;stroke-linejoin:miter;stroke-opacity:1"/>
<path class="bond-2 atom-2 atom-3" d="M 595.0,211.7 L 582.1,269.2" style="fill:none;fill-rule:evenodd;stroke:#000000;stroke-width:2.0px;stroke-linecap:butt;stroke-linejoin:miter;stroke-opacity:1"/>
<path class="bond-2 atom-2 atom-3" d="M 582.1,269.2 L 569.2,326.7" style="fill:none;fill-rule:evenodd;stroke:#FF0000;stroke-width:2.0px;stroke-linecap:butt;stroke-linejoin:miter;stroke-opacity:1"/>
<path class="bond-2 atom-2 atom-3" d="M 614.2,216.0 L 601.3,273.5" style="fill:none;fill-rule:evenodd;stroke:#000000;stroke-width:2.0px;stroke-linecap:butt;stroke-linejoin:miter;stroke-opacity:1"/>
<path class="bond-2 atom-2 atom-3" d="M 601.3,273.5 L 588.4,331.0" style="fill:none;fill-rule:evenodd;stroke:#FF0000;stroke-width:2.0px;stroke-linecap:butt;stroke-linejoin:miter;stroke-opacity:1"/>
<path class="bond-3 atom-2 atom-4" d="M 603.4,219.4 L 728.7,180.2" style="fill:none;fill-rule:evenodd;stroke:#000000;stroke-width:2.0px;stroke-linecap:butt;stroke-linejoin:miter;stroke-opacity:1"/>
<path class="bond-4 atom-4 atom-5" d="M 728.7,180.2 L 825.3,269.2" style="fill:none;fill-rule:evenodd;stroke:#000000;stroke-width:2.0px;stroke-linecap:butt;stroke-linejoin:miter;stroke-opacity:1"/>
<path class="bond-5 atom-4 atom-6" d="M 728.7,180.2 L 740.9,125.7" style="fill:none;fill-rule:evenodd;stroke:#000000;stroke-width:2.0px;stroke-linecap:butt;stroke-linejoin:miter;stroke-opacity:1"/>
<path class="bond-5 atom-4 atom-6" d="M 740.9,125.7 L 753.2,71.1" style="fill:none;fill-rule:evenodd;stroke:#FF0000;stroke-width:2.0px;stroke-linecap:butt;stroke-linejoin:miter;stroke-opacity:1"/>
<path d="M 601.4,217.5 L 603.4,219.4 L 609.6,217.4" style="fill:none;stroke:#000000;stroke-width:2.0px;stroke-linecap:butt;stroke-linejoin:miter;stroke-opacity:1;"/>
<path class="atom-0" d="M 376.1 166.4 L 380.2 162.2 L 374.7 161.1 L 375.5 158.2 L 380.6 160.8 L 379.9 155.2 L 382.9 155.2 L 382.1 160.7 L 387.2 158.3 L 388.1 161.1 L 382.5 162.1 L 386.5 166.4 L 384.1 168.1 L 381.3 162.9 L 378.5 168.1 L 376.1 166.4 " fill="#191919"/>
<path class="atom-1" d="M 493.7 130.5 Q 493.7 123.7, 497.1 119.9 Q 500.5 116.1, 506.7 116.1 Q 513.0 116.1, 516.4 119.9 Q 519.7 123.7, 519.7 130.5 Q 519.7 137.4, 516.3 141.3 Q 512.9 145.2, 506.7 145.2 Q 500.5 145.2, 497.1 141.3 Q 493.7 137.4, 493.7 130.5 M 506.7 142.0 Q 511.1 142.0, 513.4 139.1 Q 515.7 136.2, 515.7 130.5 Q 515.7 124.9, 513.4 122.1 Q 511.1 119.3, 506.7 119.3 Q 502.4 119.3, 500.1 122.1 Q 497.7 124.9, 497.7 130.5 Q 497.7 136.2, 500.1 139.1 Q 502.4 142.0, 506.7 142.0 " fill="#FF0000"/>
<path class="atom-3" d="M 561.6 347.6 Q 561.6 340.8, 565.0 337.0 Q 568.3 333.2, 574.6 333.2 Q 580.9 333.2, 584.2 337.0 Q 587.6 340.8, 587.6 347.6 Q 587.6 354.5, 584.2 358.4 Q 580.8 362.3, 574.6 362.3 Q 568.4 362.3, 565.0 358.4 Q 561.6 354.5, 561.6 347.6 M 574.6 359.1 Q 578.9 359.1, 581.2 356.2 Q 583.6 353.3, 583.6 347.6 Q 583.6 342.0, 581.2 339.2 Q 578.9 336.4, 574.6 336.4 Q 570.3 336.4, 567.9 339.2 Q 565.6 342.0, 565.6 347.6 Q 565.6 353.3, 567.9 356.2 Q 570.3 359.1, 574.6 359.1 " fill="#FF0000"/>
<path class="atom-6" d="M 744.4 52.1 Q 744.4 45.3, 747.8 41.5 Q 751.2 37.7, 757.4 37.7 Q 763.7 37.7, 767.1 41.5 Q 770.4 45.3, 770.4 52.1 Q 770.4 59.0, 767.0 62.9 Q 763.6 66.8, 757.4 66.8 Q 751.2 66.8, 747.8 62.9 Q 744.4 59.0, 744.4 52.1 M 757.4 63.6 Q 761.8 63.6, 764.1 60.7 Q 766.4 57.8, 766.4 52.1 Q 766.4 46.6, 764.1 43.8 Q 761.8 40.9, 757.4 40.9 Q 753.1 40.9, 750.8 43.7 Q 748.4 46.5, 748.4 52.1 Q 748.4 57.8, 750.8 60.7 Q 753.1 63.6, 757.4 63.6 " fill="#FF0000"/>
<path class="atom-6" d="M 774.8 38.0 L 778.7 38.0 L 778.7 50.1 L 793.2 50.1 L 793.2 38.0 L 797.0 38.0 L 797.0 66.4 L 793.2 66.4 L 793.2 53.3 L 778.7 53.3 L 778.7 66.4 L 774.8 66.4 L 774.8 38.0 " fill="#FF0000"/>
<path class="bond-0 atom-0 atom-1" d="M 795.3,553.2 L 768.7,599.3" style="fill:none;fill-rule:evenodd;stroke:#191919;stroke-width:2.0px;stroke-linecap:butt;stroke-linejoin:miter;stroke-opacity:1"/>
<path class="bond-0 atom-0 atom-1" d="M 768.7,599.3 L 742.1,645.4" style="fill:none;fill-rule:evenodd;stroke:#FF0000;stroke-width:2.0px;stroke-linecap:butt;stroke-linejoin:miter;stroke-opacity:1"/>
<path class="bond-1 atom-1 atom-2" d="M 714.0,664.0 L 657.0,664.0" style="fill:none;fill-rule:evenodd;stroke:#FF0000;stroke-width:2.0px;stroke-linecap:butt;stroke-linejoin:miter;stroke-opacity:1"/>
<path class="bond-1 atom-1 atom-2" d="M 657.0,664.0 L 600.0,664.0" style="fill:none;fill-rule:evenodd;stroke:#000000;stroke-width:2.0px;stroke-linecap:butt;stroke-linejoin:miter;stroke-opacity:1"/>
<path class="bond-2 atom-2 atom-3" d="M 600.0,664.0 L 534.3,777.8" style="fill:none;fill-rule:evenodd;stroke:#000000;stroke-width:2.0px;stroke-linecap:butt;stroke-linejoin:miter;stroke-opacity:1"/>
<path class="bond-3 atom-2 atom-4" d="M 600.0,664.0 L 534.3,550.3" style="fill:none;fill-rule:evenodd;stroke:#000000;stroke-width:2.0px;stroke-linecap:butt;stroke-linejoin:miter;stroke-opacity:1"/>
<path class="bond-4 atom-4 atom-5" d="M 534.3,550.3 L 474.2,550.3" style="fill:none;fill-rule:evenodd;stroke:#000000;stroke-width:2.0px;stroke-linecap:butt;stroke-linejoin:miter;stroke-opacity:1"/>
<path class="bond-4 atom-4 atom-5" d="M 474.2,550.3 L 414.0,550.3" style="fill:none;fill-rule:evenodd;stroke:#191919;stroke-width:2.0px;stroke-linecap:butt;stroke-linejoin:miter;stroke-opacity:1"/>
<path class="bond-5 atom-4 atom-6" d="M 540.0,560.1 L 568.8,510.4" style="fill:none;fill-rule:evenodd;stroke:#000000;stroke-width:2.0px;stroke-linecap:butt;stroke-linejoin:miter;stroke-opacity:1"/>
<path class="bond-5 atom-4 atom-6" d="M 568.8,510.4 L 597.5,460.6" style="fill:none;fill-rule:evenodd;stroke:#FF0000;stroke-width:2.0px;stroke-linecap:butt;stroke-linejoin:miter;stroke-opacity:1"/>
<path class="bond-5 atom-4 atom-6" d="M 523.0,550.3 L 551.7,500.5" style="fill:none;fill-rule:evenodd;stroke:#000000;stroke-width:2.0px;stroke-linecap:butt;stroke-linejoin:miter;stroke-opacity:1"/>
<path class="bond-5 atom-4 atom-6" d="M 551.7,500.5 L 580.4,450.7" style="fill:none;fill-rule:evenodd;stroke:#FF0000;stroke-width:2.0px;stroke-linecap:butt;stroke-linejoin:miter;stroke-opacity:1"/>
<path d="M 537.6,556.0 L 534.3,550.3 L 531.3,550.3" style="fill:none;stroke:#000000;stroke-width:2.0px;stroke-linecap:butt;stroke-linejoin:miter;stroke-opacity:1;"/>
<path class="atom-0" d="M 791.6 547.1 L 795.8 542.9 L 790.3 541.8 L 791.1 538.9 L 796.2 541.5 L 795.5 535.9 L 798.5 535.9 L 797.6 541.5 L 802.8 539.1 L 803.7 541.8 L 798.1 542.8 L 802.1 547.1 L 799.6 548.9 L 796.9 543.6 L 794.1 548.9 L 791.6 547.1 " fill="#191919"/>
<path class="atom-1" d="M 718.3 664.1 Q 718.3 657.3, 721.7 653.5 Q 725.0 649.7, 731.3 649.7 Q 737.6 649.7, 741.0 653.5 Q 744.3 657.3, 744.3 664.1 Q 744.3 671.0, 740.9 674.9 Q 737.5 678.8, 731.3 678.8 Q 725.1 678.8, 721.7 674.9 Q 718.3 671.0, 718.3 664.1 M 731.3 675.6 Q 735.6 675.6, 738.0 672.7 Q 740.3 669.8, 740.3 664.1 Q 740.3 658.5, 738.0 655.7 Q 735.6 652.9, 731.3 652.9 Q 727.0 652.9, 724.6 655.7 Q 722.3 658.5, 722.3 664.1 Q 722.3 669.8, 724.6 672.7 Q 727.0 675.6, 731.3 675.6 " fill="#FF0000"/>
<path class="atom-5" d="M 397.7 547.1 L 401.8 542.9 L 396.3 541.8 L 397.2 538.9 L 402.2 541.5 L 401.5 535.9 L 404.5 535.9 L 403.7 541.5 L 408.8 539.1 L 409.7 541.8 L 404.1 542.8 L 408.1 547.1 L 405.7 548.9 L 402.9 543.6 L 400.1 548.9 L 397.7 547.1 " fill="#191919"/>
<path class="atom-6" d="M 587.0 436.6 Q 587.0 429.8, 590.4 426.0 Q 593.7 422.2, 600.0 422.2 Q 606.3 422.2, 609.6 426.0 Q 613.0 429.8, 613.0 436.6 Q 613.0 443.5, 609.6 447.4 Q 606.2 451.3, 600.0 451.3 Q 593.8 451.3, 590.4 447.4 Q 587.0 443.6, 587.0 436.6 M 600.0 448.1 Q 604.3 448.1, 606.6 445.2 Q 609.0 442.3, 609.0 436.6 Q 609.0 431.1, 606.6 428.3 Q 604.3 425.4, 600.0 425.4 Q 595.7 425.4, 593.3 428.2 Q 591.0 431.0, 591.0 436.6 Q 591.0 442.4, 593.3 445.2 Q 595.7 448.1, 600.0 448.1 " fill="#FF0000"/>
<path class="bond-0 atom-0 atom-1" d="M 369.3,964.2 L 412.5,1011.0" style="fill:none;fill-rule:evenodd;stroke:#191919;stroke-width:2.0px;stroke-linecap:butt;stroke-linejoin:miter;stroke-opacity:1"/>
<path class="bond-0 atom-0 atom-1" d="M 412.5,1011.0 L 455.7,1057.8" style="fill:none;fill-rule:evenodd;stroke:#000000;stroke-width:2.0px;stroke-linecap:butt;stroke-linejoin:miter;stroke-opacity:1"/>
<path class="bond-1 atom-1 atom-2" d="M 455.7,1057.8 L 583.8,1028.9" style="fill:none;fill-rule:evenodd;stroke:#000000;stroke-width:2.0px;stroke-linecap:butt;stroke-linejoin:miter;stroke-opacity:1"/>
<path class="bond-2 atom-2 atom-3" d="M 583.8,1028.9 L 622.9,903.5" style="fill:none;fill-rule:evenodd;stroke:#000000;stroke-width:2.0px;stroke-linecap:butt;stroke-linejoin:miter;stroke-opacity:1"/>
<path class="bond-2 atom-2 atom-3" d="M 606.0,1023.9 L 638.3,920.2" style="fill:none;fill-rule:evenodd;stroke:#000000;stroke-width:2.0px;stroke-linecap:butt;stroke-linejoin:miter;stroke-opacity:1"/>
<path class="bond-3 atom-3 atom-4" d="M 622.9,903.5 L 751.0,874.6" style="fill:none;fill-rule:evenodd;stroke:#000000;stroke-width:2.0px;stroke-linecap:butt;stroke-linejoin:miter;stroke-opacity:1"/>
<path class="bond-4 atom-4 atom-5" d="M 751.0,874.6 L 840.0,971.1" style="fill:none;fill-rule:evenodd;stroke:#000000;stroke-width:2.0px;stroke-linecap:butt;stroke-linejoin:miter;stroke-opacity:1"/>
<path class="bond-4 atom-4 atom-5" d="M 744.2,896.3 L 817.9,976.1" style="fill:none;fill-rule:evenodd;stroke:#000000;stroke-width:2.0px;stroke-linecap:butt;stroke-linejoin:miter;stroke-opacity:1"/>
<path class="bond-5 atom-5 atom-6" d="M 840.0,971.1 L 801.0,1096.5" style="fill:none;fill-rule:evenodd;stroke:#000000;stroke-width:2.0px;stroke-linecap:butt;stroke-linejoin:miter;stroke-opacity:1"/>
<path class="bond-6 atom-6 atom-7" d="M 801.0,1096.5 L 672.9,1125.4" style="fill:none;fill-rule:evenodd;stroke:#000000;stroke-width:2.0px;stroke-linecap:butt;stroke-linejoin:miter;stroke-opacity:1"/>
<path class="bond-6 atom-6 atom-7" d="M 785.6,1079.8 L 679.7,1103.7" style="fill:none;fill-rule:evenodd;stroke:#000000;stroke-width:2.0px;stroke-linecap:butt;stroke-linejoin:miter;stroke-opacity:1"/>
<path class="bond-7 atom-7 atom-2" d="M 672.9,1125.4 L 583.8,1028.9" style="fill:none;fill-rule:evenodd;stroke:#000000;stroke-width:2.0px;stroke-linecap:butt;stroke-linejoin:miter;stroke-opacity:1"/>
<path d="M 453.6,1055.4 L 455.7,1057.8 L 462.1,1056.3" style="fill:none;stroke:#000000;stroke-width:2.0px;stroke-linecap:butt;stroke-linejoin:miter;stroke-opacity:1;"/>
<path d="M 620.9,909.8 L 622.9,903.5 L 629.3,902.1" style="fill:none;stroke:#000000;stroke-width:2.0px;stroke-linecap:butt;stroke-linejoin:miter;stroke-opacity:1;"/>
<path d="M 744.6,876.1 L 751.0,874.6 L 755.4,879.4" style="fill:none;stroke:#000000;stroke-width:2.0px;stroke-linecap:butt;stroke-linejoin:miter;stroke-opacity:1;"/>
<path d="M 835.6,966.3 L 840.0,971.1 L 838.1,977.4" style="fill:none;stroke:#000000;stroke-width:2.0px;stroke-linecap:butt;stroke-linejoin:miter;stroke-opacity:1;"/>
<path d="M 803.0,1090.2 L 801.0,1096.5 L 794.6,1097.9" style="fill:none;stroke:#000000;stroke-width:2.0px;stroke-linecap:butt;stroke-linejoin:miter;stroke-opacity:1;"/>
<path d="M 679.3,1123.9 L 672.9,1125.4 L 668.5,1120.6" style="fill:none;stroke:#000000;stroke-width:2.0px;stroke-linecap:butt;stroke-linejoin:miter;stroke-opacity:1;"/>
<path class="atom-0" d="M 361.3 958.1 L 365.5 953.9 L 360.0 952.8 L 360.8 949.9 L 365.9 952.5 L 365.2 946.9 L 368.2 946.9 L 367.3 952.4 L 372.5 950.0 L 373.4 952.8 L 367.8 953.8 L 371.8 958.1 L 369.3 959.8 L 366.6 954.6 L 363.8 959.8 L 361.3 958.1 " fill="#191919"/>
</svg>