<svg xmlns="http://www.w3.org/2000/svg" xmlns:rdkit="http://www.rdkit.org/xml" xmlns:xlink="http://www.w3.org/1999/xlink" version="1.1" baseProfile="full" xml:space="preserve" width="1200px" height="1200px" viewBox="0 0 1200 1200">
<!-- END OF HEADER -->
<rect style="opacity:1.0;fill:#FFFFFF;stroke:none" width="1200.0" height="1200.0" x="0.0" y="0.0"> </rect>
<path class="bond-0 atom-0 atom-1" d="M 795.3,153.2 L 768.7,199.3" style="fill:none;fill-rule:evenodd;stroke:#191919;stroke-width:2.0px;stroke-linecap:butt;stroke-linejoin:miter;stroke-opacity:1"/>
<path class="bond-0 atom-0 atom-1" d="M 768.7,199.3 L 742.1,245.4" style="fill:none;fill-rule:evenodd;stroke:#FF0000;stroke-width:2.0px;stroke-linecap:butt;stroke-linejoin:miter;stroke-opacity:1"/>
<path class="bond-1 atom-1 atom-2" d="M 714.0,264.0 L 657.0,264.0" style="fill:none;fill-rule:evenodd;stroke:#FF0000;stroke-width:2.0px;stroke-linecap:butt;stroke-linejoin:miter;stroke-opacity:1"/>
<path class="bond-1 atom-1 atom-2" d="M 657.0,264.0 L 600.0,264.0" style="fill:none;fill-rule:evenodd;stroke:#000000;stroke-width:2.0px;stroke-linecap:butt;stroke-linejoin:miter;stroke-opacity:1"/>
<path class="bond-2 atom-2 atom-3" d="M 600.0,264.0 L 534.3,377.8" style="fill:none;fill-rule:evenodd;stroke:#000000;stroke-width:2.0px;stroke-linecap:butt;stroke-linejoin:miter;stroke-opacity:1"/>
<path class="bond-3 atom-2 atom-4" d="M 600.0,264.0 L 534.3,150.3" style="fill:none;fill-rule:evenodd;stroke:#000000;stroke-width:2.0px;stroke-linecap:butt;stroke-linejoin:miter;stroke-opacity:1"/>
<path class="bond-4 atom-4 atom-5" d="M 534.3,150.3 L 474.2,150.3" style="fill:none;fill-rule:evenodd;stroke:#000000;stroke-width:2.0px;stroke-linecap:butt;stroke-linejoin:miter;stroke-opacity:1"/>
<path class="bond-4 atom-4 atom-5" d="M 474.2,150.3 L 414.0,150.3" style="fill:none;fill-rule:evenodd;stroke:#191919;stroke-width:2.0px;stroke-linecap:butt;stroke-linejoin:miter;stroke-opacity:1"/>
<path class="bond-5 atom-4 atom-6" d="M 540.0,160.1 L 568.8,110.4" style="fill:none;fill-rule:evenodd;stroke:#000000;stroke-width:2.0px;stroke-linecap:butt;stroke-linejoin:miter;stroke-opacity:1"/>
<path class="bond-5 atom-4 atom-6" d="M 568.8,110.4 L 597.5,60.6" style="fill:none;fill-rule:evenodd;stroke:#FF0000;stroke-width:2.0px;stroke-linecap:butt;stroke-linejoin:miter;stroke-opacity:1"/>
<path class="bond-5 atom-4 atom-6" d="M 523.0,150.3 L 551.7,100.5" style="fill:none;fill-rule:evenodd;stroke:#000000;stroke-width:2.0px;stroke-linecap:butt;stroke-linejoin:miter;stroke-opacity:1"/>
<path class="bond-5 atom-4 atom-6" d="M 551.7,100.5 L 580.4,50.7" style="fill:none;fill-rule:evenodd;stroke:#FF0000;stroke-width:2.0px;stroke-linecap:butt;stroke-linejoin:miter;stroke-opacity:1"/>
<path d="M 537.6,156.0 L 534.3,150.3 L 531.3,150.3" style="fill:none;stroke:#000000;stroke-width:2.0px;stroke-linecap:butt;stroke-linejoin:miter;stroke-opacity:1;"/>
<path class="atom-0" d="M 791.6 147.1 L 795.8 142.9 L 790.3 141.8 L 791.1 138.9 L 796.2 141.5 L 795.5 135.9 L 798.5 135.9 L 797.6 141.5 L 802.8 139.1 L 803.7 141.8 L 798.1 142.8 L 802.1 147.1 L 799.6 148.9 L 796.9 143.6 L 794.1 148.9 L 791.6 147.1 " fill="#191919"/>
<path class="atom-1" d="M 718.3 264.1 Q 718.3 257.3, 721.7 253.5 Q 725.0 249.7, 731.3 249.7 Q 737.6 249.7, 741.0 253.5 Q 744.3 257.3, 744.3 264.1 Q 744.3 271.0, 740.9 274.9 Q 737.5 278.8, 731.3 278.8 Q 725.1 278.8, 721.7 274.9 Q 718.3 271.0, 718.3 264.1 M 731.3 275.6 Q 735.6 275.6, 738.0 272.7 Q 740.3 269.8, 740.3 264.1 Q 740.3 258.5, 738.0 255.7 Q 735.6 252.9, 731.3 252.9 Q 727.0 252.9, 724.6 255.7 Q 722.3 258.5, 722.3 264.1 Q 722.3 269.8, 724.6 272.7 Q 727.0 275.6, 731.3 275.6 " fill="#FF0000"/>
<path class="atom-5" d="M 397.7 147.1 L 401.8 142.9 L 396.3 141.8 L 397.2 138.9 L 402.2 141.5 L 401.5 135.9 L 404.5 135.9 L 403.7 141.5 L 408.8 139.1 L 409.7 141.8 L 404.1 142.8 L 408.1 147.1 L 405.7 148.9 L 402.9 143.6 L 400.1 148.9 L 397.7 147.1 " fill="#191919"/>
<path class="atom-6" d="M 587.0 36.6 Q 587.0 29.8, 590.4 26.0 Q 593.7 22.2, 600.0 22.2 Q 606.3 22.2, 609.6 26.0 Q 613.0 29.8, 613.0 36.6 Q 613.0 43.5, 609.6 47.4 Q 606.2 51.3, 600.0 51.3 Q 593.8 51.3, 590.4 47.4 Q 587.0 43.6, 587.0 36.6 M 600.0 48.1 Q 604.3 48.1, 606.6 45.2 Q 609.0 42.3, 609.0 36.6 Q 609.0 31.1, 606.6 28.3 Q 604.3 25.4, 600.0 25.4 Q 595.7 25.4, 593.3 28.2 Q 591.0 31.0, 591.0 36.6 Q 591.0 42.4, 593.3 45.2 Q 595.7 48.1, 600.0 48.1 " fill="#FF0000"/>
<path class="bond-0 atom-0 atom-1" d="M 392.4,566.1 L 440.9,551.0" style="fill:none;fill-rule:evenodd;stroke:#191919;stroke-width:2.0px;stroke-linecap:butt;stroke-linejoin:miter;stroke-opacity:1"/>
<path class="bond-0 atom-0 atom-1" d="M 440.9,551.0 L 489.4,535.8" style="fill:none;fill-rule:evenodd;stroke:#FF0000;stroke-width:2.0px;stroke-linecap:butt;stroke-linejoin:miter;stroke-opacity:1"/>
<path class="bond-1 atom-1 atom-2" d="M 524.1,546.4 L 563.7,582.9" style="fill:none;fill-rule:evenodd;stroke:#FF0000;stroke-width:2.0px;stroke-linecap:butt;stroke-linejoin:miter;stroke-opacity:1"/>
<path class="bond-1 atom-1 atom-2" d="M 563.7,582.9 L 603.4,619.4" style="fill:none;fill-rule:evenodd;stroke:#000000;stroke-width:2.0px;stroke-linecap:butt;stroke-linejoin:miter;stroke-opacity:1"/>
<path class="bond-2 atom-2 atom-3" d="M 595.0,611.7 L 582.1,669.2" style="fill:none;fill-rule:evenodd;stroke:#000000;stroke-width:2.0px;stroke-linecap:butt;stroke-linejoin:miter;stroke-opacity:1"/>
<path class="bond-2 atom-2 atom-3" d="M 582.1,669.2 L 569.2,726.7" style="fill:none;fill-rule:evenodd;stroke:#FF0000;stroke-width:2.0px;stroke-linecap:butt;stroke-linejoin:miter;stroke-opacity:1"/>
<path class="bond-2 atom-2 atom-3" d="M 614.2,616.0 L 601.3,673.5" style="fill:none;fill-rule:evenodd;stroke:#000000;stroke-width:2.0px;stroke-linecap:butt;stroke-linejoin:miter;stroke-opacity:1"/>
<path class="bond-2 atom-2 atom-3" d="M 601.3,673.5 L 588.4,731.0" style="fill:none;fill-rule:evenodd;stroke:#FF0000;stroke-width:2.0px;stroke-linecap:butt;stroke-linejoin:miter;stroke-opacity:1"/>
<path class="bond-3 atom-2 atom-4" d="M 603.4,619.4 L 728.7,580.2" style="fill:none;fill-rule:evenodd;stroke:#000000;stroke-width:2.0px;stroke-linecap:butt;stroke-linejoin:miter;stroke-opacity:1"/>
<path class="bond-4 atom-4 atom-5" d="M 728.7,580.2 L 825.3,669.2" style="fill:none;fill-rule:evenodd;stroke:#000000;stroke-width:2.0px;stroke-linecap:butt;stroke-linejoin:miter;stroke-opacity:1"/>
<path class="bond-5 atom-4 atom-6" d="M 728.7,580.2 L 740.9,525.7" style="fill:none;fill-rule:evenodd;stroke:#000000;stroke-width:2.0px;stroke-linecap:butt;stroke-linejoin:miter;stroke-opacity:1"/>
<path class="bond-5 atom-4 atom-6" d="M 740.9,525.7 L 753.2,471.1" style="fill:none;fill-rule:evenodd;stroke:#FF0000;stroke-width:2.0px;stroke-linecap:butt;stroke-linejoin:miter;stroke-opacity:1"/>
<path d="M 601.4,617.5 L 603.4,619.4 L 609.6,617.4" style="fill:none;stroke:#000000;stroke-width:2.0px;stroke-linecap:butt;stroke-linejoin:miter;stroke-opacity:1;"/>
<path class="atom-0" d="M 376.1 566.4 L 380.2 562.2 L 374.7 561.1 L 375.5 558.2 L 380.6 560.8 L 379.9 555.2 L 382.9 555.2 L 382.1 560.7 L 387.2 558.3 L 388.1 561.1 L 382.5 562.1 L 386.5 566.4 L 384.1 568.1 L 381.3 562.9 L 378.5 568.1 L 376.1 566.4 " fill="#191919"/>
<path class="atom-1" d="M 493.7 530.5 Q 493.7 523.7, 497.1 519.9 Q 500.5 516.1, 506.7 516.1 Q 513.0 516.1, 516.4 519.9 Q 519.7 523.7, 519.7 530.5 Q 519.7 537.4, 516.3 541.3 Q 512.9 545.2, 506.7 545.2 Q 500.5 545.2, 497.1 541.3 Q 493.7 537.4, 493.7 530.5 M 506.7 542.0 Q 511.1 542.0, 513.4 539.1 Q 515.7 536.2, 515.7 530.5 Q 515.7 524.9, 513.4 522.1 Q 511.1 519.3, 506.7 519.3 Q 502.4 519.3, 500.1 522.1 Q 497.7 524.9, 497.7 530.5 Q 497.7 536.2, 500.1 539.1 Q 502.4 542.0, 506.7 542.0 " fill="#FF0000"/>
<path class="atom-3" d="M 561.6 747.6 Q 561.6 740.8, 565.0 737.0 Q 568.3 733.2, 574.6 733.2 Q 580.9 733.2, 584.2 737.0 Q 587.6 740.8, 587.6 747.6 Q 587.6 754.5, 584.2 758.4 Q 580.8 762.3, 574.6 762.3 Q 568.4 762.3, 565.0 758.4 Q 561.6 754.5, 561.6 747.6 M 574.6 759.1 Q 578.9 759.1, 581.2 756.2 Q 583.6 753.3, 583.6 747.6 Q 583.6 742.0, 581.2 739.2 Q 578.9 736.4, 574.6 736.4 Q 570.3 736.4, 567.9 739.2 Q 565.6 742.0, 565.6 747.6 Q 565.6 753.3, 567.9 756.2 Q 570.3 759.1, 574.6 759.1 " fill="#FF0000"/>
<path class="atom-6" d="M 744.4 452.1 Q 744.4 445.3, 747.8 441.5 Q 751.2 437.7, 757.4 437.7 Q 763.7 437.7, 767.1 441.5 Q 770.4 445.3, 770.4 452.1 Q 770.4 459.0, 767.0 462.9 Q 763.6 466.8, 757.4 466.8 Q 751.2 466.8, 747.8 462.9 Q 744.4 459.0, 744.4 452.1 M 757.4 463.6 Q 761.8 463.6, 764.1 460.7 Q 766.4 457.8, 766.4 452.1 Q 766.4 446.6, 764.1 443.8 Q 761.8 440.9, 757.4 440.9 Q 753.1 440.9, 750.8 443.7 Q 748.4 446.5, 748.4 452.1 Q 748.4 457.8, 750.8 460.7 Q 753.1 463.6, 757.4 463.6 " fill="#FF0000"/>
<path class="atom-6" d="M 774.8 438.0 L 778.7 438.0 L 778.7 450.1 L 793.2 450.1 L 793.2 438.0 L 797.0 438.0 L 797.0 466.4 L 793.2 466.4 L 793.2 453.3 L 778.7 453.3 L 778.7 466.4 L 774.8 466.4 L 774.8 438.0 " fill="#FF0000"/>
<path class="bond-0 atom-0 atom-1" d="M 369.3,964.2 L 412.5,1011.0" style="fill:none;fill-rule:evenodd;stroke:#191919;stroke-width:2.0px;stroke-linecap:butt;stroke-linejoin:miter;stroke-opacity:1"/>
<path class="bond-0 atom-0 atom-1" d="M 412.5,1011.0 L 455.7,1057.8" style="fill:none;fill-rule:evenodd;stroke:#000000;stroke-width:2.0px;stroke-linecap:butt;stroke-linejoin:miter;stroke-opacity:1"/>
<path class="bond-1 atom-1 atom-2" d="M 455.7,1057.8 L 583.8,1028.9" style="fill:none;fill-rule:evenodd;stroke:#000000;stroke-width:2.0px;stroke-linecap:butt;stroke-linejoin:miter;stroke-opacity:1"/>
<path class="bond-2 atom-2 atom-3" d="M 583.8,1028.9 L 622.9,903.5" style="fill:none;fill-rule:evenodd;stroke:#000000;stroke-width:2.0px;stroke-linecap:butt;stroke-linejoin:miter;stroke-opacity:1"/>
<path class="bond-2 atom-2 atom-3" d="M 606.0,1023.9 L 638.3,920.2" style="fill:none;fill-rule:evenodd;stroke:#000000;stroke-width:2.0px;stroke-linecap:butt;stroke-linejoin:miter;stroke-opacity:1"/>
<path class="bond-3 atom-3 atom-4" d="M 622.9,903.5 L 751.0,874.6" style="fill:none;fill-rule:evenodd;stroke:#000000;stroke-width:2.0px;stroke-linecap:butt;stroke-linejoin:miter;stroke-opacity:1"/>
<path class="bond-4 atom-4 atom-5" d="M 751.0,874.6 L 840.0,971.1" style="fill:none;fill-rule:evenodd;stroke:#000000;stroke-width:2.0px;stroke-linecap:butt;stroke-linejoin:miter;stroke-opacity:1"/>
<path class="bond-4 atom-4 atom-5" d="M 744.2,896.3 L 817.9,976.1" style="fill:none;fill-rule:evenodd;stroke:#000000;stroke-width:2.0px;stroke-linecap:butt;stroke-linejoin:miter;stroke-opacity:1"/>
<path class="bond-5 atom-5 atom-6" d="M 840.0,971.1 L 801.0,1096.5" style="fill:none;fill-rule:evenodd;stroke:#000000;stroke-width:2.0px;stroke-linecap:butt;stroke-linejoin:miter;stroke-opacity:1"/>
<path class="bond-6 atom-6 atom-7" d="M 801.0,1096.5 L 672.9,1125.4" style="fill:none;fill-rule:evenodd;stroke:#000000;stroke-width:2.0px;stroke-linecap:butt;stroke-linejoin:miter;stroke-opacity:1"/>
<path class="bond-6 atom-6 atom-7" d="M 785.6,1079.8 L 679.7,1103.7" style="fill:none;fill-rule:evenodd;stroke:#000000;stroke-width:2.0px;stroke-linecap:butt;stroke-linejoin:miter;stroke-opacity:1"/>
<path class="bond-7 atom-7 atom-2" d="M 672.9,1125.4 L 583.8,1028.9" style="fill:none;fill-rule:evenodd;stroke:#000000;stroke-width:2.0px;stroke-linecap:butt;stroke-linejoin:miter;stroke-opacity:1"/>
<path d="M 453.6,1055.4 L 455.7,1057.8 L 462.1,1056.3" style="fill:none;stroke:#000000;stroke-width:2.0px;stroke-linecap:butt;stroke-linejoin:miter;stroke-opacity:1;"/>
<path d="M 620.9,909.8 L 622.9,903.5 L 629.3,902.1" style="fill:none;stroke:#000000;stroke-width:2.0px;stroke-linecap:butt;stroke-linejoin:miter;stroke-opacity:1;"/>
<path d="M 744.6,876.1 L 751.0,874.6 L 755.4,879.4" style="fill:none;stroke:#000000;stroke-width:2.0px;stroke-linecap:butt;stroke-linejoin:miter;stroke-opacity:1;"/>
<path d="M 835.6,966.3 L 840.0,971.1 L 838.1,977.4" style="fill:none;stroke:#000000;stroke-width:2.0px;stroke-linecap:butt;stroke-linejoin:miter;stroke-opacity:1;"/>
<path d="M 803.0,1090.2 L 801.0,1096.5 L 794.6,1097.9" style="fill:none;stroke:#000000;stroke-width:2.0px;stroke-linecap:butt;stroke-linejoin:miter;stroke-opacity:1;"/>
<path d="M 679.3,1123.9 L 672.9,1125.4 L 668.5,1120.6" style="fill:none;stroke:#000000;stroke-width:2.0px;stroke-linecap:butt;stroke-linejoin:miter;stroke-opacity:1;"/>
<path class="atom-0" d="M 361.3 958.1 L 365.5 953.9 L 360.0 952.8 L 360.8 949.9 L 365.9 952.5 L 365.2 946.9 L 368.2 946.9 L 367.3 952.4 L 372.5 950.0 L 373.4 952.8 L 367.8 953.8 L 371.8 958.1 L 369.3 959.8 L 366.6 954.6 L 363.8 959.8 L 361.3 958.1 " fill="#191919"/>
</svg>