<svg xmlns="http://www.w3.org/2000/svg" xmlns:rdkit="http://www.rdkit.org/xml" xmlns:xlink="http://www.w3.org/1999/xlink" version="1.1" baseProfile="full" xml:space="preserve" width="1200px" height="1200px" viewBox="0 0 1200 1200">
<!-- END OF HEADER -->
<rect style="opacity:1.0;fill:#FFFFFF;stroke:none" width="1200.0" height="1200.0" x="0.0" y="0.0"> </rect>
<path class="bond-0 atom-0 atom-1" d="M 864.7,39.4 L 876.5,92.0" style="fill:none;fill-rule:evenodd;stroke:#191919;stroke-width:2.0px;stroke-linecap:butt;stroke-linejoin:miter;stroke-opacity:1"/>
<path class="bond-0 atom-0 atom-1" d="M 876.5,92.0 L 888.3,144.6" style="fill:none;fill-rule:evenodd;stroke:#FF0000;stroke-width:2.0px;stroke-linecap:butt;stroke-linejoin:miter;stroke-opacity:1"/>
<path class="bond-1 atom-1 atom-2" d="M 875.1,179.1 L 836.0,215.2" style="fill:none;fill-rule:evenodd;stroke:#FF0000;stroke-width:2.0px;stroke-linecap:butt;stroke-linejoin:miter;stroke-opacity:1"/>
<path class="bond-1 atom-1 atom-2" d="M 836.0,215.2 L 796.9,251.2" style="fill:none;fill-rule:evenodd;stroke:#000000;stroke-width:2.0px;stroke-linecap:butt;stroke-linejoin:miter;stroke-opacity:1"/>
<path class="bond-2 atom-2 atom-3" d="M 796.9,251.2 L 825.3,377.9" style="fill:none;fill-rule:evenodd;stroke:#000000;stroke-width:2.0px;stroke-linecap:butt;stroke-linejoin:miter;stroke-opacity:1"/>
<path class="bond-3 atom-2 atom-4" d="M 796.9,251.2 L 673.0,212.4" style="fill:none;fill-rule:evenodd;stroke:#000000;stroke-width:2.0px;stroke-linecap:butt;stroke-linejoin:miter;stroke-opacity:1"/>
<path class="bond-4 atom-4 atom-5" d="M 683.7,215.8 L 671.1,159.2" style="fill:none;fill-rule:evenodd;stroke:#000000;stroke-width:2.0px;stroke-linecap:butt;stroke-linejoin:miter;stroke-opacity:1"/>
<path class="bond-4 atom-4 atom-5" d="M 671.1,159.2 L 658.4,102.7" style="fill:none;fill-rule:evenodd;stroke:#FF0000;stroke-width:2.0px;stroke-linecap:butt;stroke-linejoin:miter;stroke-opacity:1"/>
<path class="bond-4 atom-4 atom-5" d="M 664.7,220.1 L 652.1,163.5" style="fill:none;fill-rule:evenodd;stroke:#000000;stroke-width:2.0px;stroke-linecap:butt;stroke-linejoin:miter;stroke-opacity:1"/>
<path class="bond-4 atom-4 atom-5" d="M 652.1,163.5 L 639.4,106.9" style="fill:none;fill-rule:evenodd;stroke:#FF0000;stroke-width:2.0px;stroke-linecap:butt;stroke-linejoin:miter;stroke-opacity:1"/>
<path class="bond-5 atom-4 atom-6" d="M 673.0,212.4 L 633.9,248.5" style="fill:none;fill-rule:evenodd;stroke:#000000;stroke-width:2.0px;stroke-linecap:butt;stroke-linejoin:miter;stroke-opacity:1"/>
<path class="bond-5 atom-4 atom-6" d="M 633.9,248.5 L 594.8,284.5" style="fill:none;fill-rule:evenodd;stroke:#FF0000;stroke-width:2.0px;stroke-linecap:butt;stroke-linejoin:miter;stroke-opacity:1"/>
<path class="bond-6 atom-6 atom-7" d="M 560.2,295.0 L 506.9,278.3" style="fill:none;fill-rule:evenodd;stroke:#FF0000;stroke-width:2.0px;stroke-linecap:butt;stroke-linejoin:miter;stroke-opacity:1"/>
<path class="bond-6 atom-6 atom-7" d="M 506.9,278.3 L 453.6,261.7" style="fill:none;fill-rule:evenodd;stroke:#000000;stroke-width:2.0px;stroke-linecap:butt;stroke-linejoin:miter;stroke-opacity:1"/>
<path class="bond-7 atom-7 atom-8" d="M 453.6,261.7 L 358.1,349.6" style="fill:none;fill-rule:evenodd;stroke:#000000;stroke-width:2.0px;stroke-linecap:butt;stroke-linejoin:miter;stroke-opacity:1"/>
<path class="bond-8 atom-7 atom-9" d="M 453.6,261.7 L 425.2,135.0" style="fill:none;fill-rule:evenodd;stroke:#000000;stroke-width:2.0px;stroke-linecap:butt;stroke-linejoin:miter;stroke-opacity:1"/>
<path class="bond-9 atom-9 atom-10" d="M 425.2,135.0 L 367.8,117.0" style="fill:none;fill-rule:evenodd;stroke:#000000;stroke-width:2.0px;stroke-linecap:butt;stroke-linejoin:miter;stroke-opacity:1"/>
<path class="bond-9 atom-9 atom-10" d="M 367.8,117.0 L 310.4,99.1" style="fill:none;fill-rule:evenodd;stroke:#191919;stroke-width:2.0px;stroke-linecap:butt;stroke-linejoin:miter;stroke-opacity:1"/>
<path class="bond-10 atom-9 atom-11" d="M 427.6,145.9 L 468.8,108.0" style="fill:none;fill-rule:evenodd;stroke:#000000;stroke-width:2.0px;stroke-linecap:butt;stroke-linejoin:miter;stroke-opacity:1"/>
<path class="bond-10 atom-9 atom-11" d="M 468.8,108.0 L 510.0,70.1" style="fill:none;fill-rule:evenodd;stroke:#FF0000;stroke-width:2.0px;stroke-linecap:butt;stroke-linejoin:miter;stroke-opacity:1"/>
<path class="bond-10 atom-9 atom-11" d="M 414.5,131.6 L 455.6,93.7" style="fill:none;fill-rule:evenodd;stroke:#000000;stroke-width:2.0px;stroke-linecap:butt;stroke-linejoin:miter;stroke-opacity:1"/>
<path class="bond-10 atom-9 atom-11" d="M 455.6,93.7 L 496.8,55.8" style="fill:none;fill-rule:evenodd;stroke:#FF0000;stroke-width:2.0px;stroke-linecap:butt;stroke-linejoin:miter;stroke-opacity:1"/>
<path d="M 679.2,214.4 L 673.0,212.4 L 671.1,214.2" style="fill:none;stroke:#000000;stroke-width:2.0px;stroke-linecap:butt;stroke-linejoin:miter;stroke-opacity:1;"/>
<path d="M 426.6,141.3 L 425.2,135.0 L 422.3,134.1" style="fill:none;stroke:#000000;stroke-width:2.0px;stroke-linecap:butt;stroke-linejoin:miter;stroke-opacity:1;"/>
<path class="atom-0" d="M 858.7 33.4 L 862.8 29.1 L 857.3 28.0 L 858.2 25.2 L 863.2 27.7 L 862.5 22.2 L 865.5 22.1 L 864.7 27.7 L 869.8 25.3 L 870.7 28.0 L 865.1 29.1 L 869.1 33.3 L 866.7 35.1 L 863.9 29.8 L 861.1 35.1 L 858.7 33.4 " fill="#191919"/>
<path class="atom-1" d="M 879.4 163.3 Q 879.4 156.5, 882.8 152.7 Q 886.1 148.9, 892.4 148.9 Q 898.7 148.9, 902.1 152.7 Q 905.4 156.5, 905.4 163.3 Q 905.4 170.2, 902.0 174.1 Q 898.6 178.0, 892.4 178.0 Q 886.2 178.0, 882.8 174.1 Q 879.4 170.2, 879.4 163.3 M 892.4 174.8 Q 896.7 174.8, 899.1 171.9 Q 901.4 169.0, 901.4 163.3 Q 901.4 157.7, 899.1 154.9 Q 896.7 152.1, 892.4 152.1 Q 888.1 152.1, 885.7 154.9 Q 883.4 157.7, 883.4 163.3 Q 883.4 169.0, 885.7 171.9 Q 888.1 174.8, 892.4 174.8 " fill="#FF0000"/>
<path class="atom-5" d="M 631.6 85.8 Q 631.6 79.0, 635.0 75.2 Q 638.3 71.4, 644.6 71.4 Q 650.9 71.4, 654.2 75.2 Q 657.6 79.0, 657.6 85.8 Q 657.6 92.7, 654.2 96.6 Q 650.8 100.5, 644.6 100.5 Q 638.4 100.5, 635.0 96.6 Q 631.6 92.8, 631.6 85.8 M 644.6 97.3 Q 648.9 97.3, 651.2 94.4 Q 653.6 91.5, 653.6 85.8 Q 653.6 80.3, 651.2 77.5 Q 648.9 74.6, 644.6 74.6 Q 640.3 74.6, 637.9 77.4 Q 635.6 80.2, 635.6 85.8 Q 635.6 91.6, 637.9 94.4 Q 640.3 97.3, 644.6 97.3 " fill="#FF0000"/>
<path class="atom-6" d="M 564.5 300.5 Q 564.5 293.7, 567.9 289.9 Q 571.2 286.1, 577.5 286.1 Q 583.8 286.1, 587.2 289.9 Q 590.5 293.7, 590.5 300.5 Q 590.5 307.3, 587.1 311.3 Q 583.7 315.1, 577.5 315.1 Q 571.3 315.1, 567.9 311.3 Q 564.5 307.4, 564.5 300.5 M 577.5 311.9 Q 581.8 311.9, 584.2 309.1 Q 586.5 306.1, 586.5 300.5 Q 586.5 294.9, 584.2 292.1 Q 581.8 289.3, 577.5 289.3 Q 573.2 289.3, 570.8 292.1 Q 568.5 294.9, 568.5 300.5 Q 568.5 306.2, 570.8 309.1 Q 573.2 311.9, 577.5 311.9 " fill="#FF0000"/>
<path class="atom-10" d="M 295.9 93.1 L 300.1 88.8 L 294.6 87.7 L 295.4 84.9 L 300.5 87.4 L 299.8 81.9 L 302.8 81.8 L 301.9 87.4 L 307.1 85.0 L 308.0 87.7 L 302.4 88.8 L 306.4 93.0 L 303.9 94.8 L 301.2 89.5 L 298.4 94.8 L 295.9 93.1 " fill="#191919"/>
<path class="atom-11" d="M 507.7 47.1 Q 507.7 40.3, 511.0 36.5 Q 514.4 32.7, 520.7 32.7 Q 527.0 32.7, 530.3 36.5 Q 533.7 40.3, 533.7 47.1 Q 533.7 54.0, 530.3 57.9 Q 526.9 61.8, 520.7 61.8 Q 514.4 61.8, 511.0 57.9 Q 507.7 54.0, 507.7 47.1 M 520.7 58.6 Q 525.0 58.6, 527.3 55.7 Q 529.7 52.8, 529.7 47.1 Q 529.7 41.6, 527.3 38.8 Q 525.0 35.9, 520.7 35.9 Q 516.4 35.9, 514.0 38.7 Q 511.7 41.5, 511.7 47.1 Q 511.7 52.8, 514.0 55.7 Q 516.4 58.6, 520.7 58.6 " fill="#FF0000"/>
<path class="bond-0 atom-0 atom-1" d="M 1095.9,527.9 L 1043.6,561.7" style="fill:none;fill-rule:evenodd;stroke:#191919;stroke-width:2.0px;stroke-linecap:butt;stroke-linejoin:miter;stroke-opacity:1"/>
<path class="bond-0 atom-0 atom-1" d="M 1043.6,561.7 L 991.3,595.5" style="fill:none;fill-rule:evenodd;stroke:#000000;stroke-width:2.0px;stroke-linecap:butt;stroke-linejoin:miter;stroke-opacity:1"/>
<path class="bond-1 atom-1 atom-2" d="M 981.3,590.4 L 984.2,648.7" style="fill:none;fill-rule:evenodd;stroke:#000000;stroke-width:2.0px;stroke-linecap:butt;stroke-linejoin:miter;stroke-opacity:1"/>
<path class="bond-1 atom-1 atom-2" d="M 984.2,648.7 L 987.2,707.1" style="fill:none;fill-rule:evenodd;stroke:#FF0000;stroke-width:2.0px;stroke-linecap:butt;stroke-linejoin:miter;stroke-opacity:1"/>
<path class="bond-1 atom-1 atom-2" d="M 1000.7,589.4 L 1003.7,647.8" style="fill:none;fill-rule:evenodd;stroke:#000000;stroke-width:2.0px;stroke-linecap:butt;stroke-linejoin:miter;stroke-opacity:1"/>
<path class="bond-1 atom-1 atom-2" d="M 1003.7,647.8 L 1006.6,706.1" style="fill:none;fill-rule:evenodd;stroke:#FF0000;stroke-width:2.0px;stroke-linecap:butt;stroke-linejoin:miter;stroke-opacity:1"/>
<path class="bond-2 atom-1 atom-3" d="M 991.3,595.5 L 875.8,536.3" style="fill:none;fill-rule:evenodd;stroke:#000000;stroke-width:2.0px;stroke-linecap:butt;stroke-linejoin:miter;stroke-opacity:1"/>
<path class="bond-3 atom-3 atom-4" d="M 875.8,536.3 L 766.7,606.8" style="fill:none;fill-rule:evenodd;stroke:#000000;stroke-width:2.0px;stroke-linecap:butt;stroke-linejoin:miter;stroke-opacity:1"/>
<path class="bond-4 atom-4 atom-5" d="M 766.7,606.8 L 651.2,547.6" style="fill:none;fill-rule:evenodd;stroke:#000000;stroke-width:2.0px;stroke-linecap:butt;stroke-linejoin:miter;stroke-opacity:1"/>
<path class="bond-5 atom-5 atom-6" d="M 651.2,547.6 L 542.1,618.1" style="fill:none;fill-rule:evenodd;stroke:#000000;stroke-width:2.0px;stroke-linecap:butt;stroke-linejoin:miter;stroke-opacity:1"/>
<path class="bond-6 atom-6 atom-7" d="M 542.1,618.1 L 493.0,592.9" style="fill:none;fill-rule:evenodd;stroke:#000000;stroke-width:2.0px;stroke-linecap:butt;stroke-linejoin:miter;stroke-opacity:1"/>
<path class="bond-6 atom-6 atom-7" d="M 493.0,592.9 L 443.9,567.8" style="fill:none;fill-rule:evenodd;stroke:#FF0000;stroke-width:2.0px;stroke-linecap:butt;stroke-linejoin:miter;stroke-opacity:1"/>
<path class="bond-7 atom-7 atom-8" d="M 409.3,570.1 L 363.4,599.7" style="fill:none;fill-rule:evenodd;stroke:#FF0000;stroke-width:2.0px;stroke-linecap:butt;stroke-linejoin:miter;stroke-opacity:1"/>
<path class="bond-7 atom-7 atom-8" d="M 363.4,599.7 L 317.5,629.4" style="fill:none;fill-rule:evenodd;stroke:#000000;stroke-width:2.0px;stroke-linecap:butt;stroke-linejoin:miter;stroke-opacity:1"/>
<path class="bond-8 atom-8 atom-9" d="M 307.5,624.2 L 310.5,682.6" style="fill:none;fill-rule:evenodd;stroke:#000000;stroke-width:2.0px;stroke-linecap:butt;stroke-linejoin:miter;stroke-opacity:1"/>
<path class="bond-8 atom-8 atom-9" d="M 310.5,682.6 L 313.4,740.9" style="fill:none;fill-rule:evenodd;stroke:#FF0000;stroke-width:2.0px;stroke-linecap:butt;stroke-linejoin:miter;stroke-opacity:1"/>
<path class="bond-8 atom-8 atom-9" d="M 327.0,623.3 L 329.9,681.6" style="fill:none;fill-rule:evenodd;stroke:#000000;stroke-width:2.0px;stroke-linecap:butt;stroke-linejoin:miter;stroke-opacity:1"/>
<path class="bond-8 atom-8 atom-9" d="M 329.9,681.6 L 332.9,739.9" style="fill:none;fill-rule:evenodd;stroke:#FF0000;stroke-width:2.0px;stroke-linecap:butt;stroke-linejoin:miter;stroke-opacity:1"/>
<path class="bond-9 atom-8 atom-10" d="M 317.5,629.4 L 202.0,570.2" style="fill:none;fill-rule:evenodd;stroke:#000000;stroke-width:2.0px;stroke-linecap:butt;stroke-linejoin:miter;stroke-opacity:1"/>
<path class="bond-10 atom-10 atom-11" d="M 202.0,570.2 L 93.0,640.7" style="fill:none;fill-rule:evenodd;stroke:#000000;stroke-width:2.0px;stroke-linecap:butt;stroke-linejoin:miter;stroke-opacity:1"/>
<path class="bond-11 atom-10 atom-12" d="M 202.0,570.2 L 199.2,514.9" style="fill:none;fill-rule:evenodd;stroke:#000000;stroke-width:2.0px;stroke-linecap:butt;stroke-linejoin:miter;stroke-opacity:1"/>
<path class="bond-11 atom-10 atom-12" d="M 199.2,514.9 L 196.4,459.6" style="fill:none;fill-rule:evenodd;stroke:#FF0000;stroke-width:2.0px;stroke-linecap:butt;stroke-linejoin:miter;stroke-opacity:1"/>
<path d="M 993.9,593.8 L 991.3,595.5 L 985.5,592.6" style="fill:none;stroke:#000000;stroke-width:2.0px;stroke-linecap:butt;stroke-linejoin:miter;stroke-opacity:1;"/>
<path d="M 881.5,539.3 L 875.8,536.3 L 870.3,539.9" style="fill:none;stroke:#000000;stroke-width:2.0px;stroke-linecap:butt;stroke-linejoin:miter;stroke-opacity:1;"/>
<path d="M 772.2,603.3 L 766.7,606.8 L 760.9,603.9" style="fill:none;stroke:#000000;stroke-width:2.0px;stroke-linecap:butt;stroke-linejoin:miter;stroke-opacity:1;"/>
<path d="M 656.9,550.6 L 651.2,547.6 L 645.7,551.1" style="fill:none;stroke:#000000;stroke-width:2.0px;stroke-linecap:butt;stroke-linejoin:miter;stroke-opacity:1;"/>
<path d="M 547.6,614.6 L 542.1,618.1 L 539.7,616.8" style="fill:none;stroke:#000000;stroke-width:2.0px;stroke-linecap:butt;stroke-linejoin:miter;stroke-opacity:1;"/>
<path d="M 319.8,627.9 L 317.5,629.4 L 311.8,626.4" style="fill:none;stroke:#000000;stroke-width:2.0px;stroke-linecap:butt;stroke-linejoin:miter;stroke-opacity:1;"/>
<path class="atom-0" d="M 1095.0 521.9 L 1099.2 517.7 L 1093.6 516.5 L 1094.5 513.7 L 1099.6 516.3 L 1098.8 510.7 L 1101.8 510.7 L 1101.0 516.2 L 1106.2 513.8 L 1107.0 516.5 L 1101.4 517.6 L 1105.4 521.9 L 1103.0 523.6 L 1100.2 518.3 L 1097.4 523.6 L 1095.0 521.9 " fill="#191919"/>
<path class="atom-2" d="M 984.8 725.3 Q 984.8 718.5, 988.2 714.7 Q 991.5 710.9, 997.8 710.9 Q 1004.1 710.9, 1007.5 714.7 Q 1010.8 718.5, 1010.8 725.3 Q 1010.8 732.2, 1007.4 736.1 Q 1004.0 740.0, 997.8 740.0 Q 991.6 740.0, 988.2 736.1 Q 984.8 732.2, 984.8 725.3 M 997.8 736.8 Q 1002.1 736.8, 1004.5 733.9 Q 1006.8 731.0, 1006.8 725.3 Q 1006.8 719.7, 1004.5 716.9 Q 1002.1 714.1, 997.8 714.1 Q 993.5 714.1, 991.1 716.9 Q 988.8 719.7, 988.8 725.3 Q 988.8 731.0, 991.1 733.9 Q 993.5 736.8, 997.8 736.8 " fill="#FF0000"/>
<path class="atom-7" d="M 413.6 559.0 Q 413.6 552.2, 416.9 548.4 Q 420.3 544.6, 426.6 544.6 Q 432.9 544.6, 436.2 548.4 Q 439.6 552.2, 439.6 559.0 Q 439.6 565.9, 436.2 569.8 Q 432.8 573.7, 426.6 573.7 Q 420.3 573.7, 416.9 569.8 Q 413.6 565.9, 413.6 559.0 M 426.6 570.5 Q 430.9 570.5, 433.2 567.6 Q 435.6 564.7, 435.6 559.0 Q 435.6 553.4, 433.2 550.6 Q 430.9 547.8, 426.6 547.8 Q 422.3 547.8, 419.9 550.6 Q 417.6 553.4, 417.6 559.0 Q 417.6 564.7, 419.9 567.6 Q 422.3 570.5, 426.6 570.5 " fill="#FF0000"/>
<path class="atom-9" d="M 311.1 759.1 Q 311.1 752.3, 314.4 748.5 Q 317.8 744.7, 324.1 744.7 Q 330.3 744.7, 333.7 748.5 Q 337.1 752.3, 337.1 759.1 Q 337.1 766.0, 333.7 769.9 Q 330.3 773.8, 324.1 773.8 Q 317.8 773.8, 314.4 769.9 Q 311.1 766.0, 311.1 759.1 M 324.1 770.6 Q 328.4 770.6, 330.7 767.7 Q 333.1 764.8, 333.1 759.1 Q 333.1 753.6, 330.7 750.8 Q 328.4 747.9, 324.1 747.9 Q 319.7 747.9, 317.4 750.7 Q 315.1 753.5, 315.1 759.1 Q 315.1 764.8, 317.4 767.7 Q 319.7 770.6, 324.1 770.6 " fill="#FF0000"/>
<path class="atom-12" d="M 182.5 440.6 Q 182.5 433.8, 185.8 430.0 Q 189.2 426.2, 195.5 426.2 Q 201.8 426.2, 205.1 430.0 Q 208.5 433.8, 208.5 440.6 Q 208.5 447.5, 205.1 451.4 Q 201.7 455.3, 195.5 455.3 Q 189.2 455.3, 185.8 451.4 Q 182.5 447.5, 182.5 440.6 M 195.5 452.1 Q 199.8 452.1, 202.1 449.2 Q 204.5 446.3, 204.5 440.6 Q 204.5 435.0, 202.1 432.2 Q 199.8 429.4, 195.5 429.4 Q 191.2 429.4, 188.8 432.2 Q 186.5 435.0, 186.5 440.6 Q 186.5 446.3, 188.8 449.2 Q 191.2 452.1, 195.5 452.1 " fill="#FF0000"/>
<path class="atom-12" d="M 212.9 426.5 L 216.7 426.5 L 216.7 438.6 L 231.2 438.6 L 231.2 426.5 L 235.1 426.5 L 235.1 454.8 L 231.2 454.8 L 231.2 441.8 L 216.7 441.8 L 216.7 454.8 L 212.9 454.8 L 212.9 426.5 " fill="#FF0000"/>
<path class="bond-0 atom-0 atom-1" d="M 987.2,1009.9 L 943.4,1038.0" style="fill:none;fill-rule:evenodd;stroke:#191919;stroke-width:2.0px;stroke-linecap:butt;stroke-linejoin:miter;stroke-opacity:1"/>
<path class="bond-0 atom-0 atom-1" d="M 943.4,1038.0 L 899.6,1066.0" style="fill:none;fill-rule:evenodd;stroke:#FF0000;stroke-width:2.0px;stroke-linecap:butt;stroke-linejoin:miter;stroke-opacity:1"/>
<path class="bond-1 atom-1 atom-2" d="M 865.0,1068.1 L 816.0,1042.7" style="fill:none;fill-rule:evenodd;stroke:#FF0000;stroke-width:2.0px;stroke-linecap:butt;stroke-linejoin:miter;stroke-opacity:1"/>
<path class="bond-1 atom-1 atom-2" d="M 816.0,1042.7 L 767.0,1017.3" style="fill:none;fill-rule:evenodd;stroke:#000000;stroke-width:2.0px;stroke-linecap:butt;stroke-linejoin:miter;stroke-opacity:1"/>
<path class="bond-2 atom-2 atom-3" d="M 767.0,1017.3 L 657.6,1087.3" style="fill:none;fill-rule:evenodd;stroke:#000000;stroke-width:2.0px;stroke-linecap:butt;stroke-linejoin:miter;stroke-opacity:1"/>
<path class="bond-3 atom-3 atom-4" d="M 657.6,1087.3 L 542.4,1027.5" style="fill:none;fill-rule:evenodd;stroke:#000000;stroke-width:2.0px;stroke-linecap:butt;stroke-linejoin:miter;stroke-opacity:1"/>
<path class="bond-4 atom-4 atom-5" d="M 542.4,1027.5 L 433.0,1097.5" style="fill:none;fill-rule:evenodd;stroke:#000000;stroke-width:2.0px;stroke-linecap:butt;stroke-linejoin:miter;stroke-opacity:1"/>
<path class="bond-5 atom-5 atom-6" d="M 433.0,1097.5 L 317.7,1037.7" style="fill:none;fill-rule:evenodd;stroke:#000000;stroke-width:2.0px;stroke-linecap:butt;stroke-linejoin:miter;stroke-opacity:1"/>
<path class="bond-6 atom-6 atom-7" d="M 317.7,1037.7 L 268.5,1069.2" style="fill:none;fill-rule:evenodd;stroke:#000000;stroke-width:2.0px;stroke-linecap:butt;stroke-linejoin:miter;stroke-opacity:1"/>
<path class="bond-6 atom-6 atom-7" d="M 268.5,1069.2 L 219.3,1100.7" style="fill:none;fill-rule:evenodd;stroke:#191919;stroke-width:2.0px;stroke-linecap:butt;stroke-linejoin:miter;stroke-opacity:1"/>
<path class="bond-7 atom-6 atom-8" d="M 327.7,1042.9 L 325.1,984.8" style="fill:none;fill-rule:evenodd;stroke:#000000;stroke-width:2.0px;stroke-linecap:butt;stroke-linejoin:miter;stroke-opacity:1"/>
<path class="bond-7 atom-6 atom-8" d="M 325.1,984.8 L 322.4,926.7" style="fill:none;fill-rule:evenodd;stroke:#FF0000;stroke-width:2.0px;stroke-linecap:butt;stroke-linejoin:miter;stroke-opacity:1"/>
<path class="bond-7 atom-6 atom-8" d="M 308.3,1043.8 L 305.6,985.7" style="fill:none;fill-rule:evenodd;stroke:#000000;stroke-width:2.0px;stroke-linecap:butt;stroke-linejoin:miter;stroke-opacity:1"/>
<path class="bond-7 atom-6 atom-8" d="M 305.6,985.7 L 303.0,927.5" style="fill:none;fill-rule:evenodd;stroke:#FF0000;stroke-width:2.0px;stroke-linecap:butt;stroke-linejoin:miter;stroke-opacity:1"/>
<path d="M 769.5,1018.6 L 767.0,1017.3 L 761.5,1020.8" style="fill:none;stroke:#000000;stroke-width:2.0px;stroke-linecap:butt;stroke-linejoin:miter;stroke-opacity:1;"/>
<path d="M 663.1,1083.8 L 657.6,1087.3 L 651.9,1084.3" style="fill:none;stroke:#000000;stroke-width:2.0px;stroke-linecap:butt;stroke-linejoin:miter;stroke-opacity:1;"/>
<path d="M 548.1,1030.5 L 542.4,1027.5 L 536.9,1031.0" style="fill:none;stroke:#000000;stroke-width:2.0px;stroke-linecap:butt;stroke-linejoin:miter;stroke-opacity:1;"/>
<path d="M 438.5,1094.0 L 433.0,1097.5 L 427.2,1094.5" style="fill:none;stroke:#000000;stroke-width:2.0px;stroke-linecap:butt;stroke-linejoin:miter;stroke-opacity:1;"/>
<path d="M 323.5,1040.7 L 317.7,1037.7 L 315.3,1039.3" style="fill:none;stroke:#000000;stroke-width:2.0px;stroke-linecap:butt;stroke-linejoin:miter;stroke-opacity:1;"/>
<path class="atom-0" d="M 986.3 1003.9 L 990.5 999.7 L 984.9 998.6 L 985.8 995.7 L 990.9 998.3 L 990.1 992.7 L 993.1 992.7 L 992.3 998.3 L 997.5 995.9 L 998.3 998.6 L 992.7 999.6 L 996.7 1003.9 L 994.3 1005.7 L 991.5 1000.4 L 988.7 1005.7 L 986.3 1003.9 " fill="#191919"/>
<path class="atom-1" d="M 869.3 1077.1 Q 869.3 1070.3, 872.6 1066.5 Q 876.0 1062.7, 882.3 1062.7 Q 888.5 1062.7, 891.9 1066.5 Q 895.3 1070.3, 895.3 1077.1 Q 895.3 1084.0, 891.9 1087.9 Q 888.5 1091.8, 882.3 1091.8 Q 876.0 1091.8, 872.6 1087.9 Q 869.3 1084.1, 869.3 1077.1 M 882.3 1088.6 Q 886.6 1088.6, 888.9 1085.7 Q 891.3 1082.8, 891.3 1077.1 Q 891.3 1071.6, 888.9 1068.8 Q 886.6 1065.9, 882.3 1065.9 Q 877.9 1065.9, 875.6 1068.7 Q 873.3 1071.5, 873.3 1077.1 Q 873.3 1082.9, 875.6 1085.7 Q 877.9 1088.6, 882.3 1088.6 " fill="#FF0000"/>
<path class="atom-7" d="M 203.0 1104.5 L 207.2 1100.3 L 201.7 1099.2 L 202.5 1096.3 L 207.6 1098.9 L 206.9 1093.3 L 209.9 1093.3 L 209.0 1098.9 L 214.2 1096.5 L 215.1 1099.2 L 209.5 1100.2 L 213.5 1104.5 L 211.0 1106.3 L 208.3 1101.0 L 205.5 1106.3 L 203.0 1104.5 " fill="#191919"/>
<path class="atom-8" d="M 298.8 908.1 Q 298.8 901.3, 302.2 897.5 Q 305.6 893.7, 311.8 893.7 Q 318.1 893.7, 321.5 897.5 Q 324.8 901.3, 324.8 908.1 Q 324.8 915.0, 321.4 918.9 Q 318.0 922.8, 311.8 922.8 Q 305.6 922.8, 302.2 918.9 Q 298.8 915.1, 298.8 908.1 M 311.8 919.6 Q 316.2 919.6, 318.5 916.7 Q 320.8 913.8, 320.8 908.1 Q 320.8 902.6, 318.5 899.8 Q 316.2 896.9, 311.8 896.9 Q 307.5 896.9, 305.2 899.7 Q 302.8 902.5, 302.8 908.1 Q 302.8 913.9, 305.2 916.7 Q 307.5 919.6, 311.8 919.6 " fill="#FF0000"/>
</svg>