<svg xmlns="http://www.w3.org/2000/svg" xmlns:rdkit="http://www.rdkit.org/xml" xmlns:xlink="http://www.w3.org/1999/xlink" version="1.1" baseProfile="full" xml:space="preserve" width="1200px" height="800px" viewBox="0 0 1200 800">
<!-- END OF HEADER -->
<rect style="opacity:1.0;fill:#FFFFFF;stroke:none" width="1200.0" height="800.0" x="0.0" y="0.0"> </rect>
<path class="bond-0 atom-0 atom-1" d="M 873.8,56.2 L 854.4,117.4" style="fill:none;fill-rule:evenodd;stroke:#191919;stroke-width:2.0px;stroke-linecap:butt;stroke-linejoin:miter;stroke-opacity:1"/>
<path class="bond-0 atom-0 atom-1" d="M 854.4,117.4 L 835.0,178.7" style="fill:none;fill-rule:evenodd;stroke:#FF0000;stroke-width:2.0px;stroke-linecap:butt;stroke-linejoin:miter;stroke-opacity:1"/>
<path class="bond-1 atom-1 atom-2" d="M 810.8,202.0 L 745.3,216.4" style="fill:none;fill-rule:evenodd;stroke:#FF0000;stroke-width:2.0px;stroke-linecap:butt;stroke-linejoin:miter;stroke-opacity:1"/>
<path class="bond-1 atom-1 atom-2" d="M 745.3,216.4 L 679.8,230.8" style="fill:none;fill-rule:evenodd;stroke:#000000;stroke-width:2.0px;stroke-linecap:butt;stroke-linejoin:miter;stroke-opacity:1"/>
<path class="bond-2 atom-2 atom-3" d="M 679.8,230.8 L 633.7,376.2" style="fill:none;fill-rule:evenodd;stroke:#000000;stroke-width:2.0px;stroke-linecap:butt;stroke-linejoin:miter;stroke-opacity:1"/>
<path class="bond-3 atom-2 atom-4" d="M 679.8,230.8 L 576.9,118.1" style="fill:none;fill-rule:evenodd;stroke:#000000;stroke-width:2.0px;stroke-linecap:butt;stroke-linejoin:miter;stroke-opacity:1"/>
<path class="bond-4 atom-4 atom-5" d="M 576.9,118.1 L 427.9,150.9" style="fill:none;fill-rule:evenodd;stroke:#000000;stroke-width:2.0px;stroke-linecap:butt;stroke-linejoin:miter;stroke-opacity:1"/>
<path class="bond-5 atom-5 atom-6" d="M 427.9,150.9 L 378.1,96.3" style="fill:none;fill-rule:evenodd;stroke:#000000;stroke-width:2.0px;stroke-linecap:butt;stroke-linejoin:miter;stroke-opacity:1"/>
<path class="bond-5 atom-5 atom-6" d="M 378.1,96.3 L 328.3,41.8" style="fill:none;fill-rule:evenodd;stroke:#191919;stroke-width:2.0px;stroke-linecap:butt;stroke-linejoin:miter;stroke-opacity:1"/>
<path class="bond-6 atom-5 atom-7" d="M 419.0,141.1 L 398.0,207.3" style="fill:none;fill-rule:evenodd;stroke:#000000;stroke-width:2.0px;stroke-linecap:butt;stroke-linejoin:miter;stroke-opacity:1"/>
<path class="bond-6 atom-5 atom-7" d="M 398.0,207.3 L 377.0,273.5" style="fill:none;fill-rule:evenodd;stroke:#FF0000;stroke-width:2.0px;stroke-linecap:butt;stroke-linejoin:miter;stroke-opacity:1"/>
<path class="bond-6 atom-5 atom-7" d="M 440.8,148.0 L 419.8,214.2" style="fill:none;fill-rule:evenodd;stroke:#000000;stroke-width:2.0px;stroke-linecap:butt;stroke-linejoin:miter;stroke-opacity:1"/>
<path class="bond-6 atom-5 atom-7" d="M 419.8,214.2 L 398.8,280.4" style="fill:none;fill-rule:evenodd;stroke:#FF0000;stroke-width:2.0px;stroke-linecap:butt;stroke-linejoin:miter;stroke-opacity:1"/>
<path d="M 582.1,123.7 L 576.9,118.1 L 569.5,119.7" style="fill:none;stroke:#000000;stroke-width:2.0px;stroke-linecap:butt;stroke-linejoin:miter;stroke-opacity:1;"/>
<path d="M 435.4,149.2 L 427.9,150.9 L 425.4,148.1" style="fill:none;stroke:#000000;stroke-width:2.0px;stroke-linecap:butt;stroke-linejoin:miter;stroke-opacity:1;"/>
<path class="atom-0" d="M 869.6 49.4 L 873.8 45.2 L 868.3 44.1 L 869.1 41.2 L 874.2 43.8 L 873.5 38.2 L 876.5 38.2 L 875.6 43.8 L 880.8 41.4 L 881.7 44.1 L 876.1 45.1 L 880.1 49.4 L 877.6 51.2 L 874.9 45.9 L 872.1 51.2 L 869.6 49.4 " fill="#191919"/>
<path class="atom-1" d="M 815.8 198.1 Q 815.8 191.3, 819.2 187.5 Q 822.5 183.7, 828.8 183.7 Q 835.1 183.7, 838.5 187.5 Q 841.8 191.3, 841.8 198.1 Q 841.8 205.0, 838.4 208.9 Q 835.0 212.8, 828.8 212.8 Q 822.6 212.8, 819.2 208.9 Q 815.8 205.0, 815.8 198.1 M 828.8 209.6 Q 833.1 209.6, 835.5 206.7 Q 837.8 203.8, 837.8 198.1 Q 837.8 192.6, 835.5 189.8 Q 833.1 186.9, 828.8 186.9 Q 824.5 186.9, 822.1 189.7 Q 819.8 192.5, 819.8 198.1 Q 819.8 203.8, 822.1 206.7 Q 824.5 209.6, 828.8 209.6 " fill="#FF0000"/>
<path class="atom-6" d="M 319.7 35.0 L 323.9 30.8 L 318.3 29.7 L 319.2 26.8 L 324.3 29.4 L 323.5 23.8 L 326.5 23.8 L 325.7 29.3 L 330.9 26.9 L 331.7 29.7 L 326.1 30.7 L 330.1 35.0 L 327.7 36.7 L 324.9 31.5 L 322.1 36.7 L 319.7 35.0 " fill="#191919"/>
<path class="atom-7" d="M 368.8 296.4 Q 368.8 289.6, 372.1 285.8 Q 375.5 282.0, 381.8 282.0 Q 388.0 282.0, 391.4 285.8 Q 394.8 289.6, 394.8 296.4 Q 394.8 303.2, 391.4 307.2 Q 388.0 311.0, 381.8 311.0 Q 375.5 311.0, 372.1 307.2 Q 368.8 303.3, 368.8 296.4 M 381.8 307.8 Q 386.1 307.8, 388.4 305.0 Q 390.8 302.0, 390.8 296.4 Q 390.8 290.8, 388.4 288.0 Q 386.1 285.2, 381.8 285.2 Q 377.4 285.2, 375.1 288.0 Q 372.8 290.8, 372.8 296.4 Q 372.8 302.1, 375.1 305.0 Q 377.4 307.8, 381.8 307.8 " fill="#FF0000"/>
<path class="bond-0 atom-0 atom-1" d="M 519.0,599.8 L 580.4,599.8" style="fill:none;fill-rule:evenodd;stroke:#191919;stroke-width:2.0px;stroke-linecap:butt;stroke-linejoin:miter;stroke-opacity:1"/>
<path class="bond-0 atom-0 atom-1" d="M 580.4,599.8 L 641.8,599.8" style="fill:none;fill-rule:evenodd;stroke:#FF0000;stroke-width:2.0px;stroke-linecap:butt;stroke-linejoin:miter;stroke-opacity:1"/>
<path class="atom-0" d="M 501.9 596.7 L 506.1 592.4 L 500.6 591.3 L 501.4 588.5 L 506.5 591.0 L 505.8 585.5 L 508.8 585.4 L 507.9 591.0 L 513.1 588.6 L 514.0 591.3 L 508.4 592.3 L 512.4 596.6 L 509.9 598.4 L 507.2 593.1 L 504.4 598.4 L 501.9 596.7 " fill="#191919"/>
<path class="atom-1" d="M 646.9 599.9 Q 646.9 593.1, 650.2 589.3 Q 653.6 585.5, 659.9 585.5 Q 666.1 585.5, 669.5 589.3 Q 672.9 593.1, 672.9 599.9 Q 672.9 606.8, 669.5 610.7 Q 666.1 614.6, 659.9 614.6 Q 653.6 614.6, 650.2 610.7 Q 646.9 606.8, 646.9 599.9 M 659.9 611.4 Q 664.2 611.4, 666.5 608.5 Q 668.9 605.6, 668.9 599.9 Q 668.9 594.3, 666.5 591.5 Q 664.2 588.7, 659.9 588.7 Q 655.5 588.7, 653.2 591.5 Q 650.9 594.3, 650.9 599.9 Q 650.9 605.6, 653.2 608.5 Q 655.5 611.4, 659.9 611.4 " fill="#FF0000"/>
<path class="atom-1" d="M 677.3 585.8 L 681.1 585.8 L 681.1 597.9 L 695.6 597.9 L 695.6 585.8 L 699.4 585.8 L 699.4 614.1 L 695.6 614.1 L 695.6 601.1 L 681.1 601.1 L 681.1 614.1 L 677.3 614.1 L 677.3 585.8 " fill="#FF0000"/>
</svg>