<svg xmlns="http://www.w3.org/2000/svg" xmlns:rdkit="http://www.rdkit.org/xml" xmlns:xlink="http://www.w3.org/1999/xlink" version="1.1" baseProfile="full" xml:space="preserve" width="1200px" height="800px" viewBox="0 0 1200 800">
<!-- END OF HEADER -->
<rect style="opacity:1.0;fill:#FFFFFF;stroke:none" width="1200.0" height="800.0" x="0.0" y="0.0"> </rect>
<path class="bond-0 atom-0 atom-1" d="M 170.4,36.2 L 204.1,55.1" style="fill:none;fill-rule:evenodd;stroke:#191919;stroke-width:2.0px;stroke-linecap:butt;stroke-linejoin:miter;stroke-opacity:1"/>
<path class="bond-0 atom-0 atom-1" d="M 204.1,55.1 L 237.8,74.0" style="fill:none;fill-rule:evenodd;stroke:#FF0000;stroke-width:2.0px;stroke-linecap:butt;stroke-linejoin:miter;stroke-opacity:1"/>
<path class="bond-1 atom-1 atom-2" d="M 254.2,101.1 L 254.8,142.0" style="fill:none;fill-rule:evenodd;stroke:#FF0000;stroke-width:2.0px;stroke-linecap:butt;stroke-linejoin:miter;stroke-opacity:1"/>
<path class="bond-1 atom-1 atom-2" d="M 254.8,142.0 L 255.3,182.8" style="fill:none;fill-rule:evenodd;stroke:#000000;stroke-width:2.0px;stroke-linecap:butt;stroke-linejoin:miter;stroke-opacity:1"/>
<path class="bond-2 atom-2 atom-3" d="M 255.3,182.8 L 342.3,231.6" style="fill:none;fill-rule:evenodd;stroke:#000000;stroke-width:2.0px;stroke-linecap:butt;stroke-linejoin:miter;stroke-opacity:1"/>
<path class="bond-3 atom-3 atom-4" d="M 342.3,231.6 L 343.5,331.2" style="fill:none;fill-rule:evenodd;stroke:#000000;stroke-width:2.0px;stroke-linecap:butt;stroke-linejoin:miter;stroke-opacity:1"/>
<path class="bond-4 atom-4 atom-5" d="M 343.5,331.2 L 430.5,380.0" style="fill:none;fill-rule:evenodd;stroke:#000000;stroke-width:2.0px;stroke-linecap:butt;stroke-linejoin:miter;stroke-opacity:1"/>
<path class="bond-5 atom-3 atom-6" d="M 342.3,231.6 L 377.0,210.9" style="fill:none;fill-rule:evenodd;stroke:#000000;stroke-width:2.0px;stroke-linecap:butt;stroke-linejoin:miter;stroke-opacity:1"/>
<path class="bond-5 atom-3 atom-6" d="M 377.0,210.9 L 411.7,190.3" style="fill:none;fill-rule:evenodd;stroke:#FF0000;stroke-width:2.0px;stroke-linecap:butt;stroke-linejoin:miter;stroke-opacity:1"/>
<path class="bond-6 atom-6 atom-7" d="M 444.2,189.7 L 479.6,209.5" style="fill:none;fill-rule:evenodd;stroke:#FF0000;stroke-width:2.0px;stroke-linecap:butt;stroke-linejoin:miter;stroke-opacity:1"/>
<path class="bond-6 atom-6 atom-7" d="M 479.6,209.5 L 514.9,229.4" style="fill:none;fill-rule:evenodd;stroke:#000000;stroke-width:2.0px;stroke-linecap:butt;stroke-linejoin:miter;stroke-opacity:1"/>
<path class="bond-7 atom-7 atom-8" d="M 507.4,225.1 L 507.9,268.4" style="fill:none;fill-rule:evenodd;stroke:#000000;stroke-width:2.0px;stroke-linecap:butt;stroke-linejoin:miter;stroke-opacity:1"/>
<path class="bond-7 atom-7 atom-8" d="M 507.9,268.4 L 508.5,311.6" style="fill:none;fill-rule:evenodd;stroke:#FF0000;stroke-width:2.0px;stroke-linecap:butt;stroke-linejoin:miter;stroke-opacity:1"/>
<path class="bond-7 atom-7 atom-8" d="M 522.3,225.0 L 522.9,268.2" style="fill:none;fill-rule:evenodd;stroke:#000000;stroke-width:2.0px;stroke-linecap:butt;stroke-linejoin:miter;stroke-opacity:1"/>
<path class="bond-7 atom-7 atom-8" d="M 522.9,268.2 L 523.4,311.4" style="fill:none;fill-rule:evenodd;stroke:#FF0000;stroke-width:2.0px;stroke-linecap:butt;stroke-linejoin:miter;stroke-opacity:1"/>
<path class="bond-8 atom-7 atom-9" d="M 514.9,229.4 L 600.6,178.4" style="fill:none;fill-rule:evenodd;stroke:#000000;stroke-width:2.0px;stroke-linecap:butt;stroke-linejoin:miter;stroke-opacity:1"/>
<path class="bond-9 atom-9 atom-10" d="M 600.6,178.4 L 687.6,227.2" style="fill:none;fill-rule:evenodd;stroke:#000000;stroke-width:2.0px;stroke-linecap:butt;stroke-linejoin:miter;stroke-opacity:1"/>
<path class="bond-10 atom-10 atom-11" d="M 687.6,227.2 L 773.3,176.2" style="fill:none;fill-rule:evenodd;stroke:#000000;stroke-width:2.0px;stroke-linecap:butt;stroke-linejoin:miter;stroke-opacity:1"/>
<path class="bond-11 atom-11 atom-12" d="M 773.3,176.2 L 860.3,225.0" style="fill:none;fill-rule:evenodd;stroke:#000000;stroke-width:2.0px;stroke-linecap:butt;stroke-linejoin:miter;stroke-opacity:1"/>
<path class="bond-12 atom-12 atom-13" d="M 860.3,225.0 L 946.0,174.0" style="fill:none;fill-rule:evenodd;stroke:#000000;stroke-width:2.0px;stroke-linecap:butt;stroke-linejoin:miter;stroke-opacity:1"/>
<path class="bond-13 atom-13 atom-14" d="M 946.0,174.0 L 984.5,195.6" style="fill:none;fill-rule:evenodd;stroke:#000000;stroke-width:2.0px;stroke-linecap:butt;stroke-linejoin:miter;stroke-opacity:1"/>
<path class="bond-13 atom-13 atom-14" d="M 984.5,195.6 L 1023.0,217.2" style="fill:none;fill-rule:evenodd;stroke:#191919;stroke-width:2.0px;stroke-linecap:butt;stroke-linejoin:miter;stroke-opacity:1"/>
<path class="bond-14 atom-13 atom-15" d="M 953.5,178.3 L 953.0,135.3" style="fill:none;fill-rule:evenodd;stroke:#000000;stroke-width:2.0px;stroke-linecap:butt;stroke-linejoin:miter;stroke-opacity:1"/>
<path class="bond-14 atom-13 atom-15" d="M 953.0,135.3 L 952.4,92.3" style="fill:none;fill-rule:evenodd;stroke:#FF0000;stroke-width:2.0px;stroke-linecap:butt;stroke-linejoin:miter;stroke-opacity:1"/>
<path class="bond-14 atom-13 atom-15" d="M 938.6,178.4 L 938.0,135.4" style="fill:none;fill-rule:evenodd;stroke:#000000;stroke-width:2.0px;stroke-linecap:butt;stroke-linejoin:miter;stroke-opacity:1"/>
<path class="bond-14 atom-13 atom-15" d="M 938.0,135.4 L 937.5,92.4" style="fill:none;fill-rule:evenodd;stroke:#FF0000;stroke-width:2.0px;stroke-linecap:butt;stroke-linejoin:miter;stroke-opacity:1"/>
<path d="M 255.3,180.8 L 255.3,182.8 L 259.6,185.2" style="fill:none;stroke:#000000;stroke-width:2.0px;stroke-linecap:butt;stroke-linejoin:miter;stroke-opacity:1;"/>
<path d="M 343.5,326.3 L 343.5,331.2 L 347.9,333.7" style="fill:none;stroke:#000000;stroke-width:2.0px;stroke-linecap:butt;stroke-linejoin:miter;stroke-opacity:1;"/>
<path d="M 513.2,228.4 L 514.9,229.4 L 519.2,226.8" style="fill:none;stroke:#000000;stroke-width:2.0px;stroke-linecap:butt;stroke-linejoin:miter;stroke-opacity:1;"/>
<path d="M 596.3,181.0 L 600.6,178.4 L 605.0,180.9" style="fill:none;stroke:#000000;stroke-width:2.0px;stroke-linecap:butt;stroke-linejoin:miter;stroke-opacity:1;"/>
<path d="M 683.3,224.7 L 687.6,227.2 L 691.9,224.6" style="fill:none;stroke:#000000;stroke-width:2.0px;stroke-linecap:butt;stroke-linejoin:miter;stroke-opacity:1;"/>
<path d="M 769.0,178.8 L 773.3,176.2 L 777.7,178.7" style="fill:none;stroke:#000000;stroke-width:2.0px;stroke-linecap:butt;stroke-linejoin:miter;stroke-opacity:1;"/>
<path d="M 855.9,222.5 L 860.3,225.0 L 864.6,222.4" style="fill:none;stroke:#000000;stroke-width:2.0px;stroke-linecap:butt;stroke-linejoin:miter;stroke-opacity:1;"/>
<path d="M 941.7,176.6 L 946.0,174.0 L 947.9,175.1" style="fill:none;stroke:#000000;stroke-width:2.0px;stroke-linecap:butt;stroke-linejoin:miter;stroke-opacity:1;"/>
<path class="atom-0" d="M 161.7 31.2 L 165.9 27.0 L 160.4 25.9 L 161.2 23.0 L 166.3 25.6 L 165.5 20.0 L 168.5 20.0 L 167.7 25.5 L 172.8 23.2 L 173.7 25.9 L 168.1 26.9 L 172.1 31.2 L 169.7 32.9 L 166.9 27.7 L 164.2 32.9 L 161.7 31.2 " fill="#191919"/>
<path class="atom-1" d="M 241.1 83.2 Q 241.1 76.4, 244.4 72.6 Q 247.8 68.8, 254.0 68.8 Q 260.3 68.8, 263.6 72.6 Q 267.0 76.4, 267.0 83.2 Q 267.0 90.0, 263.6 94.0 Q 260.2 97.8, 254.0 97.8 Q 247.8 97.8, 244.4 94.0 Q 241.1 90.1, 241.1 83.2 M 254.0 94.6 Q 258.3 94.6, 260.6 91.8 Q 263.0 88.9, 263.0 83.2 Q 263.0 77.6, 260.6 74.9 Q 258.3 72.0, 254.0 72.0 Q 249.7 72.0, 247.4 74.8 Q 245.0 77.6, 245.0 83.2 Q 245.0 88.9, 247.4 91.8 Q 249.7 94.6, 254.0 94.6 " fill="#FF0000"/>
<path class="atom-6" d="M 415.0 180.7 Q 415.0 173.9, 418.3 170.1 Q 421.7 166.3, 428.0 166.3 Q 434.2 166.3, 437.6 170.1 Q 440.9 173.9, 440.9 180.7 Q 440.9 187.6, 437.5 191.5 Q 434.1 195.3, 428.0 195.3 Q 421.7 195.3, 418.3 191.5 Q 415.0 187.6, 415.0 180.7 M 428.0 192.1 Q 432.3 192.1, 434.6 189.3 Q 436.9 186.4, 436.9 180.7 Q 436.9 175.1, 434.6 172.4 Q 432.3 169.5, 428.0 169.5 Q 423.6 169.5, 421.3 172.3 Q 419.0 175.1, 419.0 180.7 Q 419.0 186.4, 421.3 189.3 Q 423.6 192.1, 428.0 192.1 " fill="#FF0000"/>
<path class="atom-8" d="M 503.2 329.1 Q 503.2 322.4, 506.6 318.6 Q 509.9 314.8, 516.2 314.8 Q 522.5 314.8, 525.8 318.6 Q 529.2 322.4, 529.2 329.1 Q 529.2 336.0, 525.8 339.9 Q 522.4 343.8, 516.2 343.8 Q 510.0 343.8, 506.6 339.9 Q 503.2 336.0, 503.2 329.1 M 516.2 340.6 Q 520.5 340.6, 522.8 337.7 Q 525.2 334.8, 525.2 329.1 Q 525.2 323.6, 522.8 320.8 Q 520.5 318.0, 516.2 318.0 Q 511.9 318.0, 509.5 320.8 Q 507.2 323.6, 507.2 329.1 Q 507.2 334.8, 509.5 337.7 Q 511.9 340.6, 516.2 340.6 " fill="#FF0000"/>
<path class="atom-14" d="M 1027.6 219.6 L 1031.8 215.4 L 1026.3 214.3 L 1027.1 211.5 L 1032.2 214.0 L 1031.5 208.5 L 1034.5 208.4 L 1033.6 214.0 L 1038.8 211.6 L 1039.6 214.3 L 1034.1 215.3 L 1038.0 219.6 L 1035.6 221.4 L 1032.9 216.1 L 1030.1 221.4 L 1027.6 219.6 " fill="#191919"/>
<path class="atom-15" d="M 931.8 74.4 Q 931.8 67.6, 935.1 63.9 Q 938.5 60.1, 944.7 60.1 Q 951.0 60.1, 954.3 63.9 Q 957.7 67.6, 957.7 74.4 Q 957.7 81.3, 954.3 85.2 Q 950.9 89.1, 944.7 89.1 Q 938.5 89.1, 935.1 85.2 Q 931.8 81.3, 931.8 74.4 M 944.7 85.9 Q 949.0 85.9, 951.3 83.0 Q 953.7 80.1, 953.7 74.4 Q 953.7 68.9, 951.3 66.1 Q 949.0 63.3, 944.7 63.3 Q 940.4 63.3, 938.1 66.0 Q 935.7 68.8, 935.7 74.4 Q 935.7 80.1, 938.1 83.0 Q 940.4 85.9, 944.7 85.9 " fill="#FF0000"/>
<path class="bond-0 atom-0 atom-1" d="M 1070.8,554.2 L 1038.1,574.6" style="fill:none;fill-rule:evenodd;stroke:#191919;stroke-width:2.0px;stroke-linecap:butt;stroke-linejoin:miter;stroke-opacity:1"/>
<path class="bond-0 atom-0 atom-1" d="M 1038.1,574.6 L 1005.4,595.0" style="fill:none;fill-rule:evenodd;stroke:#FF0000;stroke-width:2.0px;stroke-linecap:butt;stroke-linejoin:miter;stroke-opacity:1"/>
<path class="bond-1 atom-1 atom-2" d="M 972.9,596.5 L 937.0,577.4" style="fill:none;fill-rule:evenodd;stroke:#FF0000;stroke-width:2.0px;stroke-linecap:butt;stroke-linejoin:miter;stroke-opacity:1"/>
<path class="bond-1 atom-1 atom-2" d="M 937.0,577.4 L 901.2,558.3" style="fill:none;fill-rule:evenodd;stroke:#000000;stroke-width:2.0px;stroke-linecap:butt;stroke-linejoin:miter;stroke-opacity:1"/>
<path class="bond-2 atom-2 atom-3" d="M 901.2,558.3 L 816.6,611.2" style="fill:none;fill-rule:evenodd;stroke:#000000;stroke-width:2.0px;stroke-linecap:butt;stroke-linejoin:miter;stroke-opacity:1"/>
<path class="bond-3 atom-3 atom-4" d="M 816.6,611.2 L 780.7,592.1" style="fill:none;fill-rule:evenodd;stroke:#000000;stroke-width:2.0px;stroke-linecap:butt;stroke-linejoin:miter;stroke-opacity:1"/>
<path class="bond-3 atom-3 atom-4" d="M 780.7,592.1 L 744.8,573.0" style="fill:none;fill-rule:evenodd;stroke:#FF0000;stroke-width:2.0px;stroke-linecap:butt;stroke-linejoin:miter;stroke-opacity:1"/>
<path class="bond-4 atom-4 atom-5" d="M 712.3,574.5 L 678.2,595.8" style="fill:none;fill-rule:evenodd;stroke:#FF0000;stroke-width:2.0px;stroke-linecap:butt;stroke-linejoin:miter;stroke-opacity:1"/>
<path class="bond-4 atom-4 atom-5" d="M 678.2,595.8 L 644.0,617.2" style="fill:none;fill-rule:evenodd;stroke:#000000;stroke-width:2.0px;stroke-linecap:butt;stroke-linejoin:miter;stroke-opacity:1"/>
<path class="bond-5 atom-5 atom-6" d="M 636.4,613.1 L 637.9,656.3" style="fill:none;fill-rule:evenodd;stroke:#000000;stroke-width:2.0px;stroke-linecap:butt;stroke-linejoin:miter;stroke-opacity:1"/>
<path class="bond-5 atom-5 atom-6" d="M 637.9,656.3 L 639.4,699.5" style="fill:none;fill-rule:evenodd;stroke:#FF0000;stroke-width:2.0px;stroke-linecap:butt;stroke-linejoin:miter;stroke-opacity:1"/>
<path class="bond-5 atom-5 atom-6" d="M 651.3,612.6 L 652.8,655.8" style="fill:none;fill-rule:evenodd;stroke:#000000;stroke-width:2.0px;stroke-linecap:butt;stroke-linejoin:miter;stroke-opacity:1"/>
<path class="bond-5 atom-5 atom-6" d="M 652.8,655.8 L 654.3,699.0" style="fill:none;fill-rule:evenodd;stroke:#FF0000;stroke-width:2.0px;stroke-linecap:butt;stroke-linejoin:miter;stroke-opacity:1"/>
<path class="bond-6 atom-5 atom-7" d="M 644.0,617.2 L 556.0,570.4" style="fill:none;fill-rule:evenodd;stroke:#000000;stroke-width:2.0px;stroke-linecap:butt;stroke-linejoin:miter;stroke-opacity:1"/>
<path class="bond-7 atom-7 atom-8" d="M 556.0,570.4 L 471.4,623.2" style="fill:none;fill-rule:evenodd;stroke:#000000;stroke-width:2.0px;stroke-linecap:butt;stroke-linejoin:miter;stroke-opacity:1"/>
<path class="bond-8 atom-8 atom-9" d="M 471.4,623.2 L 383.4,576.4" style="fill:none;fill-rule:evenodd;stroke:#000000;stroke-width:2.0px;stroke-linecap:butt;stroke-linejoin:miter;stroke-opacity:1"/>
<path class="bond-9 atom-9 atom-10" d="M 383.4,576.4 L 298.8,629.2" style="fill:none;fill-rule:evenodd;stroke:#000000;stroke-width:2.0px;stroke-linecap:butt;stroke-linejoin:miter;stroke-opacity:1"/>
<path class="bond-10 atom-10 atom-11" d="M 298.8,629.2 L 210.8,582.4" style="fill:none;fill-rule:evenodd;stroke:#000000;stroke-width:2.0px;stroke-linecap:butt;stroke-linejoin:miter;stroke-opacity:1"/>
<path class="bond-11 atom-11 atom-12" d="M 210.8,582.4 L 173.5,605.7" style="fill:none;fill-rule:evenodd;stroke:#000000;stroke-width:2.0px;stroke-linecap:butt;stroke-linejoin:miter;stroke-opacity:1"/>
<path class="bond-11 atom-11 atom-12" d="M 173.5,605.7 L 136.2,629.0" style="fill:none;fill-rule:evenodd;stroke:#191919;stroke-width:2.0px;stroke-linecap:butt;stroke-linejoin:miter;stroke-opacity:1"/>
<path class="bond-12 atom-11 atom-13" d="M 218.4,586.4 L 216.9,543.5" style="fill:none;fill-rule:evenodd;stroke:#000000;stroke-width:2.0px;stroke-linecap:butt;stroke-linejoin:miter;stroke-opacity:1"/>
<path class="bond-12 atom-11 atom-13" d="M 216.9,543.5 L 215.4,500.5" style="fill:none;fill-rule:evenodd;stroke:#FF0000;stroke-width:2.0px;stroke-linecap:butt;stroke-linejoin:miter;stroke-opacity:1"/>
<path class="bond-12 atom-11 atom-13" d="M 203.5,587.0 L 202.0,544.0" style="fill:none;fill-rule:evenodd;stroke:#000000;stroke-width:2.0px;stroke-linecap:butt;stroke-linejoin:miter;stroke-opacity:1"/>
<path class="bond-12 atom-11 atom-13" d="M 202.0,544.0 L 200.5,501.0" style="fill:none;fill-rule:evenodd;stroke:#FF0000;stroke-width:2.0px;stroke-linecap:butt;stroke-linejoin:miter;stroke-opacity:1"/>
<path d="M 903.0,559.3 L 901.2,558.3 L 896.9,561.0" style="fill:none;stroke:#000000;stroke-width:2.0px;stroke-linecap:butt;stroke-linejoin:miter;stroke-opacity:1;"/>
<path d="M 820.8,608.5 L 816.6,611.2 L 814.8,610.2" style="fill:none;stroke:#000000;stroke-width:2.0px;stroke-linecap:butt;stroke-linejoin:miter;stroke-opacity:1;"/>
<path d="M 645.7,616.1 L 644.0,617.2 L 639.6,614.8" style="fill:none;stroke:#000000;stroke-width:2.0px;stroke-linecap:butt;stroke-linejoin:miter;stroke-opacity:1;"/>
<path d="M 560.4,572.7 L 556.0,570.4 L 551.8,573.0" style="fill:none;stroke:#000000;stroke-width:2.0px;stroke-linecap:butt;stroke-linejoin:miter;stroke-opacity:1;"/>
<path d="M 475.7,620.5 L 471.4,623.2 L 467.0,620.8" style="fill:none;stroke:#000000;stroke-width:2.0px;stroke-linecap:butt;stroke-linejoin:miter;stroke-opacity:1;"/>
<path d="M 387.8,578.7 L 383.4,576.4 L 379.2,579.0" style="fill:none;stroke:#000000;stroke-width:2.0px;stroke-linecap:butt;stroke-linejoin:miter;stroke-opacity:1;"/>
<path d="M 303.1,626.6 L 298.8,629.2 L 294.4,626.9" style="fill:none;stroke:#000000;stroke-width:2.0px;stroke-linecap:butt;stroke-linejoin:miter;stroke-opacity:1;"/>
<path d="M 215.2,584.7 L 210.8,582.4 L 209.0,583.6" style="fill:none;stroke:#000000;stroke-width:2.0px;stroke-linecap:butt;stroke-linejoin:miter;stroke-opacity:1;"/>
<path class="atom-0" d="M 1068.4 549.2 L 1072.6 544.9 L 1067.1 543.8 L 1067.9 541.0 L 1073.0 543.5 L 1072.2 538.0 L 1075.2 538.0 L 1074.4 543.5 L 1079.5 541.1 L 1080.4 543.8 L 1074.8 544.9 L 1078.8 549.1 L 1076.4 550.9 L 1073.6 545.6 L 1070.8 550.9 L 1068.4 549.2 " fill="#191919"/>
<path class="atom-1" d="M 976.2 605.2 Q 976.2 598.4, 979.6 594.7 Q 982.9 590.9, 989.2 590.9 Q 995.4 590.9, 998.8 594.7 Q 1002.1 598.4, 1002.1 605.2 Q 1002.1 612.1, 998.8 616.0 Q 995.4 619.9, 989.2 619.9 Q 983.0 619.9, 979.6 616.0 Q 976.2 612.1, 976.2 605.2 M 989.2 616.7 Q 993.5 616.7, 995.8 613.8 Q 998.2 610.9, 998.2 605.2 Q 998.2 599.7, 995.8 596.9 Q 993.5 594.1, 989.2 594.1 Q 984.9 594.1, 982.5 596.8 Q 980.2 599.6, 980.2 605.2 Q 980.2 610.9, 982.5 613.8 Q 984.9 616.7, 989.2 616.7 " fill="#FF0000"/>
<path class="atom-4" d="M 715.6 564.4 Q 715.6 557.6, 719.0 553.9 Q 722.3 550.1, 728.6 550.1 Q 734.8 550.1, 738.2 553.9 Q 741.5 557.6, 741.5 564.4 Q 741.5 571.3, 738.1 575.2 Q 734.8 579.1, 728.6 579.1 Q 722.3 579.1, 719.0 575.2 Q 715.6 571.3, 715.6 564.4 M 728.6 575.9 Q 732.9 575.9, 735.2 573.0 Q 737.5 570.1, 737.5 564.4 Q 737.5 558.9, 735.2 556.1 Q 732.9 553.3, 728.6 553.3 Q 724.3 553.3, 721.9 556.0 Q 719.6 558.8, 719.6 564.4 Q 719.6 570.1, 721.9 573.0 Q 724.3 575.9, 728.6 575.9 " fill="#FF0000"/>
<path class="atom-6" d="M 634.5 716.9 Q 634.5 710.1, 637.9 706.3 Q 641.2 702.5, 647.5 702.5 Q 653.7 702.5, 657.1 706.3 Q 660.4 710.1, 660.4 716.9 Q 660.4 723.8, 657.1 727.7 Q 653.7 731.5, 647.5 731.5 Q 641.3 731.5, 637.9 727.7 Q 634.5 723.8, 634.5 716.9 M 647.5 728.3 Q 651.8 728.3, 654.1 725.5 Q 656.5 722.6, 656.5 716.9 Q 656.5 711.4, 654.1 708.6 Q 651.8 705.7, 647.5 705.7 Q 643.2 705.7, 640.8 708.5 Q 638.5 711.3, 638.5 716.9 Q 638.5 722.6, 640.8 725.5 Q 643.2 728.3, 647.5 728.3 " fill="#FF0000"/>
<path class="atom-12" d="M 120.9 632.1 L 125.1 627.8 L 119.6 626.7 L 120.4 623.9 L 125.5 626.4 L 124.8 620.9 L 127.8 620.9 L 126.9 626.4 L 132.1 624.0 L 132.9 626.7 L 127.4 627.8 L 131.3 632.0 L 128.9 633.8 L 126.2 628.5 L 123.4 633.8 L 120.9 632.1 " fill="#191919"/>
<path class="atom-13" d="M 194.4 482.8 Q 194.4 476.0, 197.7 472.3 Q 201.1 468.5, 207.3 468.5 Q 213.6 468.5, 217.0 472.3 Q 220.3 476.0, 220.3 482.8 Q 220.3 489.7, 216.9 493.6 Q 213.5 497.5, 207.3 497.5 Q 201.1 497.5, 197.7 493.6 Q 194.4 489.7, 194.4 482.8 M 207.3 494.3 Q 211.6 494.3, 214.0 491.4 Q 216.3 488.5, 216.3 482.8 Q 216.3 477.3, 214.0 474.5 Q 211.6 471.7, 207.3 471.7 Q 203.0 471.7, 200.7 474.5 Q 198.4 477.2, 198.4 482.8 Q 198.4 488.5, 200.7 491.4 Q 203.0 494.3, 207.3 494.3 " fill="#FF0000"/>
</svg>