<svg xmlns="http://www.w3.org/2000/svg" xmlns:rdkit="http://www.rdkit.org/xml" xmlns:xlink="http://www.w3.org/1999/xlink" version="1.1" baseProfile="full" xml:space="preserve" width="1200px" height="800px" viewBox="0 0 1200 800">
<!-- END OF HEADER -->
<rect style="opacity:1.0;fill:#FFFFFF;stroke:none" width="1200.0" height="800.0" x="0.0" y="0.0"> </rect>
<path class="bond-0 atom-0 atom-1" d="M 409.6,150.9 L 426.0,152.5" style="fill:none;fill-rule:evenodd;stroke:#191919;stroke-width:2.0px;stroke-linecap:butt;stroke-linejoin:miter;stroke-opacity:1"/>
<path class="bond-0 atom-0 atom-1" d="M 426.0,152.5 L 442.4,154.1" style="fill:none;fill-rule:evenodd;stroke:#FF0000;stroke-width:2.0px;stroke-linecap:butt;stroke-linejoin:miter;stroke-opacity:1"/>
<path class="bond-1 atom-1 atom-2" d="M 453.3,162.8 L 460.8,179.2" style="fill:none;fill-rule:evenodd;stroke:#FF0000;stroke-width:2.0px;stroke-linecap:butt;stroke-linejoin:miter;stroke-opacity:1"/>
<path class="bond-1 atom-1 atom-2" d="M 460.8,179.2 L 468.2,195.5" style="fill:none;fill-rule:evenodd;stroke:#000000;stroke-width:2.0px;stroke-linecap:butt;stroke-linejoin:miter;stroke-opacity:1"/>
<path class="bond-2 atom-2 atom-3" d="M 468.2,195.5 L 512.7,199.8" style="fill:none;fill-rule:evenodd;stroke:#000000;stroke-width:2.0px;stroke-linecap:butt;stroke-linejoin:miter;stroke-opacity:1"/>
<path class="bond-3 atom-3 atom-4" d="M 512.7,199.8 L 531.2,240.5" style="fill:none;fill-rule:evenodd;stroke:#000000;stroke-width:2.0px;stroke-linecap:butt;stroke-linejoin:miter;stroke-opacity:1"/>
<path class="bond-4 atom-4 atom-5" d="M 531.2,240.5 L 575.8,244.9" style="fill:none;fill-rule:evenodd;stroke:#000000;stroke-width:2.0px;stroke-linecap:butt;stroke-linejoin:miter;stroke-opacity:1"/>
<path class="bond-5 atom-5 atom-6" d="M 575.8,244.9 L 594.3,285.6" style="fill:none;fill-rule:evenodd;stroke:#000000;stroke-width:2.0px;stroke-linecap:butt;stroke-linejoin:miter;stroke-opacity:1"/>
<path class="bond-6 atom-6 atom-7" d="M 594.3,285.6 L 638.8,289.9" style="fill:none;fill-rule:evenodd;stroke:#000000;stroke-width:2.0px;stroke-linecap:butt;stroke-linejoin:miter;stroke-opacity:1"/>
<path class="bond-7 atom-7 atom-8" d="M 638.8,289.9 L 657.4,330.6" style="fill:none;fill-rule:evenodd;stroke:#000000;stroke-width:2.0px;stroke-linecap:butt;stroke-linejoin:miter;stroke-opacity:1"/>
<path class="bond-8 atom-8 atom-9" d="M 657.4,330.6 L 701.9,335.0" style="fill:none;fill-rule:evenodd;stroke:#000000;stroke-width:2.0px;stroke-linecap:butt;stroke-linejoin:miter;stroke-opacity:1"/>
<path class="bond-9 atom-9 atom-10" d="M 701.9,335.0 L 720.4,375.7" style="fill:none;fill-rule:evenodd;stroke:#000000;stroke-width:2.0px;stroke-linecap:butt;stroke-linejoin:miter;stroke-opacity:1"/>
<path class="bond-10 atom-10 atom-11" d="M 720.4,375.7 L 765.0,380.0" style="fill:none;fill-rule:evenodd;stroke:#000000;stroke-width:2.0px;stroke-linecap:butt;stroke-linejoin:miter;stroke-opacity:1"/>
<path class="bond-11 atom-3 atom-12" d="M 512.7,199.8 L 522.8,185.6" style="fill:none;fill-rule:evenodd;stroke:#000000;stroke-width:2.0px;stroke-linecap:butt;stroke-linejoin:miter;stroke-opacity:1"/>
<path class="bond-11 atom-3 atom-12" d="M 522.8,185.6 L 532.9,171.5" style="fill:none;fill-rule:evenodd;stroke:#FF0000;stroke-width:2.0px;stroke-linecap:butt;stroke-linejoin:miter;stroke-opacity:1"/>
<path class="bond-12 atom-12 atom-13" d="M 546.0,164.1 L 564.6,165.9" style="fill:none;fill-rule:evenodd;stroke:#FF0000;stroke-width:2.0px;stroke-linecap:butt;stroke-linejoin:miter;stroke-opacity:1"/>
<path class="bond-12 atom-12 atom-13" d="M 564.6,165.9 L 583.3,167.7" style="fill:none;fill-rule:evenodd;stroke:#000000;stroke-width:2.0px;stroke-linecap:butt;stroke-linejoin:miter;stroke-opacity:1"/>
<path class="bond-13 atom-13 atom-14" d="M 579.4,167.3 L 587.3,184.7" style="fill:none;fill-rule:evenodd;stroke:#000000;stroke-width:2.0px;stroke-linecap:butt;stroke-linejoin:miter;stroke-opacity:1"/>
<path class="bond-13 atom-13 atom-14" d="M 587.3,184.7 L 595.1,202.0" style="fill:none;fill-rule:evenodd;stroke:#FF0000;stroke-width:2.0px;stroke-linecap:butt;stroke-linejoin:miter;stroke-opacity:1"/>
<path class="bond-13 atom-13 atom-14" d="M 585.5,164.6 L 593.4,181.9" style="fill:none;fill-rule:evenodd;stroke:#000000;stroke-width:2.0px;stroke-linecap:butt;stroke-linejoin:miter;stroke-opacity:1"/>
<path class="bond-13 atom-13 atom-14" d="M 593.4,181.9 L 601.3,199.2" style="fill:none;fill-rule:evenodd;stroke:#FF0000;stroke-width:2.0px;stroke-linecap:butt;stroke-linejoin:miter;stroke-opacity:1"/>
<path class="bond-14 atom-13 atom-15" d="M 583.3,167.7 L 609.3,131.3" style="fill:none;fill-rule:evenodd;stroke:#000000;stroke-width:2.0px;stroke-linecap:butt;stroke-linejoin:miter;stroke-opacity:1"/>
<path class="bond-15 atom-15 atom-16" d="M 609.3,131.3 L 653.8,135.6" style="fill:none;fill-rule:evenodd;stroke:#000000;stroke-width:2.0px;stroke-linecap:butt;stroke-linejoin:miter;stroke-opacity:1"/>
<path class="bond-16 atom-16 atom-17" d="M 653.8,135.6 L 679.8,99.2" style="fill:none;fill-rule:evenodd;stroke:#000000;stroke-width:2.0px;stroke-linecap:butt;stroke-linejoin:miter;stroke-opacity:1"/>
<path class="bond-17 atom-17 atom-18" d="M 679.8,99.2 L 724.3,103.5" style="fill:none;fill-rule:evenodd;stroke:#000000;stroke-width:2.0px;stroke-linecap:butt;stroke-linejoin:miter;stroke-opacity:1"/>
<path class="bond-18 atom-18 atom-19" d="M 724.3,103.5 L 750.3,67.1" style="fill:none;fill-rule:evenodd;stroke:#000000;stroke-width:2.0px;stroke-linecap:butt;stroke-linejoin:miter;stroke-opacity:1"/>
<path class="bond-19 atom-19 atom-20" d="M 750.3,67.1 L 770.4,69.1" style="fill:none;fill-rule:evenodd;stroke:#000000;stroke-width:2.0px;stroke-linecap:butt;stroke-linejoin:miter;stroke-opacity:1"/>
<path class="bond-19 atom-19 atom-20" d="M 770.4,69.1 L 790.4,71.0" style="fill:none;fill-rule:evenodd;stroke:#191919;stroke-width:2.0px;stroke-linecap:butt;stroke-linejoin:miter;stroke-opacity:1"/>
<path class="bond-20 atom-19 atom-21" d="M 754.2,67.5 L 746.4,50.3" style="fill:none;fill-rule:evenodd;stroke:#000000;stroke-width:2.0px;stroke-linecap:butt;stroke-linejoin:miter;stroke-opacity:1"/>
<path class="bond-20 atom-19 atom-21" d="M 746.4,50.3 L 738.6,33.1" style="fill:none;fill-rule:evenodd;stroke:#FF0000;stroke-width:2.0px;stroke-linecap:butt;stroke-linejoin:miter;stroke-opacity:1"/>
<path class="bond-20 atom-19 atom-21" d="M 748.1,70.3 L 740.3,53.1" style="fill:none;fill-rule:evenodd;stroke:#000000;stroke-width:2.0px;stroke-linecap:butt;stroke-linejoin:miter;stroke-opacity:1"/>
<path class="bond-20 atom-19 atom-21" d="M 740.3,53.1 L 732.4,35.9" style="fill:none;fill-rule:evenodd;stroke:#FF0000;stroke-width:2.0px;stroke-linecap:butt;stroke-linejoin:miter;stroke-opacity:1"/>
<path d="M 467.8,194.7 L 468.2,195.5 L 470.4,195.7" style="fill:none;stroke:#000000;stroke-width:2.0px;stroke-linecap:butt;stroke-linejoin:miter;stroke-opacity:1;"/>
<path d="M 530.3,238.5 L 531.2,240.5 L 533.5,240.8" style="fill:none;stroke:#000000;stroke-width:2.0px;stroke-linecap:butt;stroke-linejoin:miter;stroke-opacity:1;"/>
<path d="M 573.5,244.6 L 575.8,244.9 L 576.7,246.9" style="fill:none;stroke:#000000;stroke-width:2.0px;stroke-linecap:butt;stroke-linejoin:miter;stroke-opacity:1;"/>
<path d="M 593.4,283.6 L 594.3,285.6 L 596.5,285.8" style="fill:none;stroke:#000000;stroke-width:2.0px;stroke-linecap:butt;stroke-linejoin:miter;stroke-opacity:1;"/>
<path d="M 636.6,289.7 L 638.8,289.9 L 639.8,291.9" style="fill:none;stroke:#000000;stroke-width:2.0px;stroke-linecap:butt;stroke-linejoin:miter;stroke-opacity:1;"/>
<path d="M 656.4,328.6 L 657.4,330.6 L 659.6,330.9" style="fill:none;stroke:#000000;stroke-width:2.0px;stroke-linecap:butt;stroke-linejoin:miter;stroke-opacity:1;"/>
<path d="M 699.7,334.7 L 701.9,335.0 L 702.8,337.0" style="fill:none;stroke:#000000;stroke-width:2.0px;stroke-linecap:butt;stroke-linejoin:miter;stroke-opacity:1;"/>
<path d="M 719.5,373.6 L 720.4,375.7 L 722.7,375.9" style="fill:none;stroke:#000000;stroke-width:2.0px;stroke-linecap:butt;stroke-linejoin:miter;stroke-opacity:1;"/>
<path d="M 582.3,167.6 L 583.3,167.7 L 584.6,165.9" style="fill:none;stroke:#000000;stroke-width:2.0px;stroke-linecap:butt;stroke-linejoin:miter;stroke-opacity:1;"/>
<path d="M 608.0,133.1 L 609.3,131.3 L 611.5,131.5" style="fill:none;stroke:#000000;stroke-width:2.0px;stroke-linecap:butt;stroke-linejoin:miter;stroke-opacity:1;"/>
<path d="M 651.6,135.4 L 653.8,135.6 L 655.1,133.8" style="fill:none;stroke:#000000;stroke-width:2.0px;stroke-linecap:butt;stroke-linejoin:miter;stroke-opacity:1;"/>
<path d="M 678.5,101.0 L 679.8,99.2 L 682.0,99.4" style="fill:none;stroke:#000000;stroke-width:2.0px;stroke-linecap:butt;stroke-linejoin:miter;stroke-opacity:1;"/>
<path d="M 722.1,103.3 L 724.3,103.5 L 725.6,101.7" style="fill:none;stroke:#000000;stroke-width:2.0px;stroke-linecap:butt;stroke-linejoin:miter;stroke-opacity:1;"/>
<path d="M 749.0,69.0 L 750.3,67.1 L 751.3,67.2" style="fill:none;stroke:#000000;stroke-width:2.0px;stroke-linecap:butt;stroke-linejoin:miter;stroke-opacity:1;"/>
<path class="atom-0" d="M 402.7 149.0 L 404.6 147.1 L 402.1 146.6 L 402.5 145.4 L 404.8 146.5 L 404.4 144.0 L 405.8 144.0 L 405.4 146.5 L 407.7 145.4 L 408.1 146.6 L 405.6 147.1 L 407.4 149.0 L 406.3 149.8 L 405.1 147.4 L 403.8 149.8 L 402.7 149.0 " fill="#191919"/>
<path class="atom-1" d="M 443.8 154.8 Q 443.8 151.8, 445.3 150.1 Q 446.8 148.4, 449.7 148.4 Q 452.5 148.4, 454.0 150.1 Q 455.5 151.8, 455.5 154.8 Q 455.5 157.9, 453.9 159.6 Q 452.4 161.4, 449.7 161.4 Q 446.9 161.4, 445.3 159.6 Q 443.8 157.9, 443.8 154.8 M 449.7 159.9 Q 451.6 159.9, 452.6 158.7 Q 453.7 157.3, 453.7 154.8 Q 453.7 152.3, 452.6 151.1 Q 451.6 149.8, 449.7 149.8 Q 447.7 149.8, 446.7 151.0 Q 445.6 152.3, 445.6 154.8 Q 445.6 157.4, 446.7 158.7 Q 447.7 159.9, 449.7 159.9 " fill="#FF0000"/>
<path class="atom-12" d="M 532.9 163.4 Q 532.9 160.4, 534.4 158.7 Q 535.9 157.0, 538.7 157.0 Q 541.5 157.0, 543.0 158.7 Q 544.5 160.4, 544.5 163.4 Q 544.5 166.5, 543.0 168.3 Q 541.5 170.0, 538.7 170.0 Q 535.9 170.0, 534.4 168.3 Q 532.9 166.5, 532.9 163.4 M 538.7 168.6 Q 540.7 168.6, 541.7 167.3 Q 542.7 166.0, 542.7 163.4 Q 542.7 161.0, 541.7 159.7 Q 540.7 158.4, 538.7 158.4 Q 536.8 158.4, 535.7 159.7 Q 534.7 160.9, 534.7 163.4 Q 534.7 166.0, 535.7 167.3 Q 536.8 168.6, 538.7 168.6 " fill="#FF0000"/>
<path class="atom-14" d="M 596.0 208.5 Q 596.0 205.4, 597.5 203.7 Q 599.0 202.0, 601.8 202.0 Q 604.6 202.0, 606.1 203.7 Q 607.6 205.4, 607.6 208.5 Q 607.6 211.6, 606.1 213.3 Q 604.6 215.1, 601.8 215.1 Q 599.0 215.1, 597.5 213.3 Q 596.0 211.6, 596.0 208.5 M 601.8 213.6 Q 603.7 213.6, 604.8 212.3 Q 605.8 211.0, 605.8 208.5 Q 605.8 206.0, 604.8 204.7 Q 603.7 203.5, 601.8 203.5 Q 599.9 203.5, 598.8 204.7 Q 597.8 206.0, 597.8 208.5 Q 597.8 211.0, 598.8 212.3 Q 599.9 213.6, 601.8 213.6 " fill="#FF0000"/>
<path class="atom-20" d="M 792.5 70.0 L 794.4 68.1 L 791.9 67.6 L 792.3 66.4 L 794.5 67.5 L 794.2 65.0 L 795.6 65.0 L 795.2 67.5 L 797.5 66.4 L 797.9 67.6 L 795.4 68.1 L 797.2 70.0 L 796.1 70.8 L 794.8 68.4 L 793.6 70.8 L 792.5 70.0 " fill="#191919"/>
<path class="atom-21" d="M 726.0 26.4 Q 726.0 23.4, 727.5 21.7 Q 729.0 20.0, 731.8 20.0 Q 734.6 20.0, 736.1 21.7 Q 737.6 23.4, 737.6 26.4 Q 737.6 29.5, 736.1 31.3 Q 734.6 33.0, 731.8 33.0 Q 729.0 33.0, 727.5 31.3 Q 726.0 29.5, 726.0 26.4 M 731.8 31.6 Q 733.8 31.6, 734.8 30.3 Q 735.8 29.0, 735.8 26.4 Q 735.8 24.0, 734.8 22.7 Q 733.8 21.4, 731.8 21.4 Q 729.9 21.4, 728.8 22.7 Q 727.8 23.9, 727.8 26.4 Q 727.8 29.0, 728.8 30.3 Q 729.9 31.6, 731.8 31.6 " fill="#FF0000"/>
<path class="bond-0 atom-0 atom-1" d="M 811.3,579.4 L 796.6,588.6" style="fill:none;fill-rule:evenodd;stroke:#191919;stroke-width:2.0px;stroke-linecap:butt;stroke-linejoin:miter;stroke-opacity:1"/>
<path class="bond-0 atom-0 atom-1" d="M 796.6,588.6 L 781.9,597.8" style="fill:none;fill-rule:evenodd;stroke:#FF0000;stroke-width:2.0px;stroke-linecap:butt;stroke-linejoin:miter;stroke-opacity:1"/>
<path class="bond-1 atom-1 atom-2" d="M 767.4,598.4 L 751.3,589.9" style="fill:none;fill-rule:evenodd;stroke:#FF0000;stroke-width:2.0px;stroke-linecap:butt;stroke-linejoin:miter;stroke-opacity:1"/>
<path class="bond-1 atom-1 atom-2" d="M 751.3,589.9 L 735.2,581.3" style="fill:none;fill-rule:evenodd;stroke:#000000;stroke-width:2.0px;stroke-linecap:butt;stroke-linejoin:miter;stroke-opacity:1"/>
<path class="bond-2 atom-2 atom-3" d="M 735.2,581.3 L 697.2,605.0" style="fill:none;fill-rule:evenodd;stroke:#000000;stroke-width:2.0px;stroke-linecap:butt;stroke-linejoin:miter;stroke-opacity:1"/>
<path class="bond-3 atom-3 atom-4" d="M 697.2,605.0 L 681.1,596.4" style="fill:none;fill-rule:evenodd;stroke:#000000;stroke-width:2.0px;stroke-linecap:butt;stroke-linejoin:miter;stroke-opacity:1"/>
<path class="bond-3 atom-3 atom-4" d="M 681.1,596.4 L 665.0,587.9" style="fill:none;fill-rule:evenodd;stroke:#FF0000;stroke-width:2.0px;stroke-linecap:butt;stroke-linejoin:miter;stroke-opacity:1"/>
<path class="bond-4 atom-4 atom-5" d="M 650.4,588.6 L 635.1,598.1" style="fill:none;fill-rule:evenodd;stroke:#FF0000;stroke-width:2.0px;stroke-linecap:butt;stroke-linejoin:miter;stroke-opacity:1"/>
<path class="bond-4 atom-4 atom-5" d="M 635.1,598.1 L 619.8,607.7" style="fill:none;fill-rule:evenodd;stroke:#000000;stroke-width:2.0px;stroke-linecap:butt;stroke-linejoin:miter;stroke-opacity:1"/>
<path class="bond-5 atom-5 atom-6" d="M 616.3,605.9 L 617.0,625.3" style="fill:none;fill-rule:evenodd;stroke:#000000;stroke-width:2.0px;stroke-linecap:butt;stroke-linejoin:miter;stroke-opacity:1"/>
<path class="bond-5 atom-5 atom-6" d="M 617.0,625.3 L 617.7,644.7" style="fill:none;fill-rule:evenodd;stroke:#FF0000;stroke-width:2.0px;stroke-linecap:butt;stroke-linejoin:miter;stroke-opacity:1"/>
<path class="bond-5 atom-5 atom-6" d="M 623.0,605.7 L 623.7,625.0" style="fill:none;fill-rule:evenodd;stroke:#000000;stroke-width:2.0px;stroke-linecap:butt;stroke-linejoin:miter;stroke-opacity:1"/>
<path class="bond-5 atom-5 atom-6" d="M 623.7,625.0 L 624.4,644.4" style="fill:none;fill-rule:evenodd;stroke:#FF0000;stroke-width:2.0px;stroke-linecap:butt;stroke-linejoin:miter;stroke-opacity:1"/>
<path class="bond-6 atom-5 atom-7" d="M 619.8,607.7 L 580.2,586.7" style="fill:none;fill-rule:evenodd;stroke:#000000;stroke-width:2.0px;stroke-linecap:butt;stroke-linejoin:miter;stroke-opacity:1"/>
<path class="bond-7 atom-7 atom-8" d="M 580.2,586.7 L 542.3,610.4" style="fill:none;fill-rule:evenodd;stroke:#000000;stroke-width:2.0px;stroke-linecap:butt;stroke-linejoin:miter;stroke-opacity:1"/>
<path class="bond-8 atom-8 atom-9" d="M 542.3,610.4 L 502.8,589.4" style="fill:none;fill-rule:evenodd;stroke:#000000;stroke-width:2.0px;stroke-linecap:butt;stroke-linejoin:miter;stroke-opacity:1"/>
<path class="bond-9 atom-9 atom-10" d="M 502.8,589.4 L 464.8,613.1" style="fill:none;fill-rule:evenodd;stroke:#000000;stroke-width:2.0px;stroke-linecap:butt;stroke-linejoin:miter;stroke-opacity:1"/>
<path class="bond-10 atom-10 atom-11" d="M 464.8,613.1 L 425.3,592.1" style="fill:none;fill-rule:evenodd;stroke:#000000;stroke-width:2.0px;stroke-linecap:butt;stroke-linejoin:miter;stroke-opacity:1"/>
<path class="bond-11 atom-11 atom-12" d="M 425.3,592.1 L 408.6,602.6" style="fill:none;fill-rule:evenodd;stroke:#000000;stroke-width:2.0px;stroke-linecap:butt;stroke-linejoin:miter;stroke-opacity:1"/>
<path class="bond-11 atom-11 atom-12" d="M 408.6,602.6 L 391.9,613.0" style="fill:none;fill-rule:evenodd;stroke:#191919;stroke-width:2.0px;stroke-linecap:butt;stroke-linejoin:miter;stroke-opacity:1"/>
<path class="bond-12 atom-11 atom-13" d="M 428.8,593.9 L 428.1,574.6" style="fill:none;fill-rule:evenodd;stroke:#000000;stroke-width:2.0px;stroke-linecap:butt;stroke-linejoin:miter;stroke-opacity:1"/>
<path class="bond-12 atom-11 atom-13" d="M 428.1,574.6 L 427.4,555.3" style="fill:none;fill-rule:evenodd;stroke:#FF0000;stroke-width:2.0px;stroke-linecap:butt;stroke-linejoin:miter;stroke-opacity:1"/>
<path class="bond-12 atom-11 atom-13" d="M 422.1,594.1 L 421.4,574.9" style="fill:none;fill-rule:evenodd;stroke:#000000;stroke-width:2.0px;stroke-linecap:butt;stroke-linejoin:miter;stroke-opacity:1"/>
<path class="bond-12 atom-11 atom-13" d="M 421.4,574.9 L 420.7,555.6" style="fill:none;fill-rule:evenodd;stroke:#FF0000;stroke-width:2.0px;stroke-linecap:butt;stroke-linejoin:miter;stroke-opacity:1"/>
<path d="M 736.0,581.7 L 735.2,581.3 L 733.3,582.5" style="fill:none;stroke:#000000;stroke-width:2.0px;stroke-linecap:butt;stroke-linejoin:miter;stroke-opacity:1;"/>
<path d="M 699.1,603.8 L 697.2,605.0 L 696.4,604.6" style="fill:none;stroke:#000000;stroke-width:2.0px;stroke-linecap:butt;stroke-linejoin:miter;stroke-opacity:1;"/>
<path d="M 620.5,607.2 L 619.8,607.7 L 617.8,606.7" style="fill:none;stroke:#000000;stroke-width:2.0px;stroke-linecap:butt;stroke-linejoin:miter;stroke-opacity:1;"/>
<path d="M 582.2,587.7 L 580.2,586.7 L 578.4,587.9" style="fill:none;stroke:#000000;stroke-width:2.0px;stroke-linecap:butt;stroke-linejoin:miter;stroke-opacity:1;"/>
<path d="M 544.2,609.2 L 542.3,610.4 L 540.3,609.4" style="fill:none;stroke:#000000;stroke-width:2.0px;stroke-linecap:butt;stroke-linejoin:miter;stroke-opacity:1;"/>
<path d="M 504.8,590.4 L 502.8,589.4 L 500.9,590.6" style="fill:none;stroke:#000000;stroke-width:2.0px;stroke-linecap:butt;stroke-linejoin:miter;stroke-opacity:1;"/>
<path d="M 466.7,611.9 L 464.8,613.1 L 462.9,612.1" style="fill:none;stroke:#000000;stroke-width:2.0px;stroke-linecap:butt;stroke-linejoin:miter;stroke-opacity:1;"/>
<path d="M 427.3,593.1 L 425.3,592.1 L 424.5,592.6" style="fill:none;stroke:#000000;stroke-width:2.0px;stroke-linecap:butt;stroke-linejoin:miter;stroke-opacity:1;"/>
<path class="atom-0" d="M 810.2 577.2 L 812.1 575.3 L 809.6 574.8 L 810.0 573.5 L 812.3 574.7 L 811.9 572.2 L 813.3 572.2 L 812.9 574.6 L 815.2 573.6 L 815.6 574.8 L 813.1 575.3 L 814.9 577.2 L 813.8 578.0 L 812.6 575.6 L 811.3 578.0 L 810.2 577.2 " fill="#191919"/>
<path class="atom-1" d="M 768.8 602.3 Q 768.8 599.3, 770.3 597.6 Q 771.8 595.9, 774.7 595.9 Q 777.5 595.9, 779.0 597.6 Q 780.5 599.3, 780.5 602.3 Q 780.5 605.4, 779.0 607.2 Q 777.4 608.9, 774.7 608.9 Q 771.9 608.9, 770.3 607.2 Q 768.8 605.4, 768.8 602.3 M 774.7 607.5 Q 776.6 607.5, 777.6 606.2 Q 778.7 604.9, 778.7 602.3 Q 778.7 599.9, 777.6 598.6 Q 776.6 597.3, 774.7 597.3 Q 772.7 597.3, 771.7 598.6 Q 770.6 599.8, 770.6 602.3 Q 770.6 604.9, 771.7 606.2 Q 772.7 607.5, 774.7 607.5 " fill="#FF0000"/>
<path class="atom-4" d="M 651.9 584.0 Q 651.9 581.0, 653.4 579.3 Q 654.9 577.6, 657.7 577.6 Q 660.5 577.6, 662.0 579.3 Q 663.5 581.0, 663.5 584.0 Q 663.5 587.1, 662.0 588.9 Q 660.5 590.6, 657.7 590.6 Q 654.9 590.6, 653.4 588.9 Q 651.9 587.1, 651.9 584.0 M 657.7 589.2 Q 659.6 589.2, 660.7 587.9 Q 661.7 586.6, 661.7 584.0 Q 661.7 581.5, 660.7 580.3 Q 659.6 579.0, 657.7 579.0 Q 655.8 579.0, 654.7 580.3 Q 653.7 581.5, 653.7 584.0 Q 653.7 586.6, 654.7 587.9 Q 655.8 589.2, 657.7 589.2 " fill="#FF0000"/>
<path class="atom-6" d="M 615.5 652.5 Q 615.5 649.4, 617.0 647.7 Q 618.5 646.0, 621.3 646.0 Q 624.1 646.0, 625.6 647.7 Q 627.1 649.4, 627.1 652.5 Q 627.1 655.5, 625.6 657.3 Q 624.1 659.0, 621.3 659.0 Q 618.5 659.0, 617.0 657.3 Q 615.5 655.6, 615.5 652.5 M 621.3 657.6 Q 623.2 657.6, 624.3 656.3 Q 625.3 655.0, 625.3 652.5 Q 625.3 650.0, 624.3 648.7 Q 623.2 647.4, 621.3 647.4 Q 619.4 647.4, 618.3 648.7 Q 617.3 650.0, 617.3 652.5 Q 617.3 655.0, 618.3 656.3 Q 619.4 657.6, 621.3 657.6 " fill="#FF0000"/>
<path class="atom-12" d="M 385.0 614.4 L 386.9 612.5 L 384.4 612.0 L 384.8 610.7 L 387.0 611.9 L 386.7 609.4 L 388.1 609.4 L 387.7 611.8 L 390.0 610.8 L 390.4 612.0 L 387.9 612.5 L 389.7 614.4 L 388.6 615.2 L 387.4 612.8 L 386.1 615.2 L 385.0 614.4 " fill="#191919"/>
<path class="atom-13" d="M 418.0 547.4 Q 418.0 544.4, 419.5 542.7 Q 421.0 541.0, 423.8 541.0 Q 426.6 541.0, 428.1 542.7 Q 429.6 544.4, 429.6 547.4 Q 429.6 550.5, 428.1 552.2 Q 426.6 554.0, 423.8 554.0 Q 421.0 554.0, 419.5 552.2 Q 418.0 550.5, 418.0 547.4 M 423.8 552.6 Q 425.7 552.6, 426.8 551.3 Q 427.8 550.0, 427.8 547.4 Q 427.8 544.9, 426.8 543.7 Q 425.7 542.4, 423.8 542.4 Q 421.9 542.4, 420.8 543.7 Q 419.8 544.9, 419.8 547.4 Q 419.8 550.0, 420.8 551.3 Q 421.9 552.6, 423.8 552.6 " fill="#FF0000"/>
</svg>