<svg xmlns="http://www.w3.org/2000/svg" xmlns:rdkit="http://www.rdkit.org/xml" xmlns:xlink="http://www.w3.org/1999/xlink" version="1.1" baseProfile="full" xml:space="preserve" width="1200px" height="800px" viewBox="0 0 1200 800">
<!-- END OF HEADER -->
<rect style="opacity:1.0;fill:#FFFFFF;stroke:none" width="1200.0" height="800.0" x="0.0" y="0.0"> </rect>
<path class="bond-0 atom-0 atom-1" d="M 892.3,30.2 L 873.0,44.7" style="fill:none;fill-rule:evenodd;stroke:#191919;stroke-width:2.0px;stroke-linecap:butt;stroke-linejoin:miter;stroke-opacity:1"/>
<path class="bond-0 atom-0 atom-1" d="M 873.0,44.7 L 853.7,59.2" style="fill:none;fill-rule:evenodd;stroke:#FF0000;stroke-width:2.0px;stroke-linecap:butt;stroke-linejoin:miter;stroke-opacity:1"/>
<path class="bond-1 atom-1 atom-2" d="M 833.2,62.5 L 809.4,52.3" style="fill:none;fill-rule:evenodd;stroke:#FF0000;stroke-width:2.0px;stroke-linecap:butt;stroke-linejoin:miter;stroke-opacity:1"/>
<path class="bond-1 atom-1 atom-2" d="M 809.4,52.3 L 785.5,42.1" style="fill:none;fill-rule:evenodd;stroke:#000000;stroke-width:2.0px;stroke-linecap:butt;stroke-linejoin:miter;stroke-opacity:1"/>
<path class="bond-2 atom-2 atom-3" d="M 785.5,42.1 L 735.2,79.9" style="fill:none;fill-rule:evenodd;stroke:#000000;stroke-width:2.0px;stroke-linecap:butt;stroke-linejoin:miter;stroke-opacity:1"/>
<path class="bond-3 atom-3 atom-4" d="M 735.2,79.9 L 677.2,55.2" style="fill:none;fill-rule:evenodd;stroke:#000000;stroke-width:2.0px;stroke-linecap:butt;stroke-linejoin:miter;stroke-opacity:1"/>
<path class="bond-4 atom-4 atom-5" d="M 677.2,55.2 L 626.9,93.0" style="fill:none;fill-rule:evenodd;stroke:#000000;stroke-width:2.0px;stroke-linecap:butt;stroke-linejoin:miter;stroke-opacity:1"/>
<path class="bond-5 atom-5 atom-6" d="M 626.9,93.0 L 568.9,68.3" style="fill:none;fill-rule:evenodd;stroke:#000000;stroke-width:2.0px;stroke-linecap:butt;stroke-linejoin:miter;stroke-opacity:1"/>
<path class="bond-6 atom-6 atom-7" d="M 568.9,68.3 L 518.5,106.1" style="fill:none;fill-rule:evenodd;stroke:#000000;stroke-width:2.0px;stroke-linecap:butt;stroke-linejoin:miter;stroke-opacity:1"/>
<path class="bond-7 atom-7 atom-8" d="M 518.5,106.1 L 460.6,81.3" style="fill:none;fill-rule:evenodd;stroke:#000000;stroke-width:2.0px;stroke-linecap:butt;stroke-linejoin:miter;stroke-opacity:1"/>
<path class="bond-8 atom-8 atom-9" d="M 460.6,81.3 L 410.2,119.1" style="fill:none;fill-rule:evenodd;stroke:#000000;stroke-width:2.0px;stroke-linecap:butt;stroke-linejoin:miter;stroke-opacity:1"/>
<path class="bond-9 atom-9 atom-10" d="M 410.2,119.1 L 352.3,94.4" style="fill:none;fill-rule:evenodd;stroke:#000000;stroke-width:2.0px;stroke-linecap:butt;stroke-linejoin:miter;stroke-opacity:1"/>
<path class="bond-10 atom-10 atom-11" d="M 352.3,94.4 L 301.9,132.2" style="fill:none;fill-rule:evenodd;stroke:#000000;stroke-width:2.0px;stroke-linecap:butt;stroke-linejoin:miter;stroke-opacity:1"/>
<path class="bond-11 atom-3 atom-12" d="M 735.2,79.9 L 738.3,105.6" style="fill:none;fill-rule:evenodd;stroke:#000000;stroke-width:2.0px;stroke-linecap:butt;stroke-linejoin:miter;stroke-opacity:1"/>
<path class="bond-11 atom-3 atom-12" d="M 738.3,105.6 L 741.4,131.4" style="fill:none;fill-rule:evenodd;stroke:#FF0000;stroke-width:2.0px;stroke-linecap:butt;stroke-linejoin:miter;stroke-opacity:1"/>
<path class="bond-12 atom-12 atom-13" d="M 732.4,150.2 L 712.4,165.2" style="fill:none;fill-rule:evenodd;stroke:#FF0000;stroke-width:2.0px;stroke-linecap:butt;stroke-linejoin:miter;stroke-opacity:1"/>
<path class="bond-12 atom-12 atom-13" d="M 712.4,165.2 L 692.3,180.3" style="fill:none;fill-rule:evenodd;stroke:#000000;stroke-width:2.0px;stroke-linecap:butt;stroke-linejoin:miter;stroke-opacity:1"/>
<path class="bond-13 atom-13 atom-14" d="M 696.7,177.0 L 671.6,166.3" style="fill:none;fill-rule:evenodd;stroke:#000000;stroke-width:2.0px;stroke-linecap:butt;stroke-linejoin:miter;stroke-opacity:1"/>
<path class="bond-13 atom-13 atom-14" d="M 671.6,166.3 L 646.5,155.6" style="fill:none;fill-rule:evenodd;stroke:#FF0000;stroke-width:2.0px;stroke-linecap:butt;stroke-linejoin:miter;stroke-opacity:1"/>
<path class="bond-13 atom-13 atom-14" d="M 693.0,185.7 L 667.9,175.0" style="fill:none;fill-rule:evenodd;stroke:#000000;stroke-width:2.0px;stroke-linecap:butt;stroke-linejoin:miter;stroke-opacity:1"/>
<path class="bond-13 atom-13 atom-14" d="M 667.9,175.0 L 642.8,164.2" style="fill:none;fill-rule:evenodd;stroke:#FF0000;stroke-width:2.0px;stroke-linecap:butt;stroke-linejoin:miter;stroke-opacity:1"/>
<path class="bond-14 atom-13 atom-15" d="M 692.3,180.3 L 699.9,242.8" style="fill:none;fill-rule:evenodd;stroke:#000000;stroke-width:2.0px;stroke-linecap:butt;stroke-linejoin:miter;stroke-opacity:1"/>
<path class="bond-15 atom-15 atom-16" d="M 699.9,242.8 L 649.5,280.6" style="fill:none;fill-rule:evenodd;stroke:#000000;stroke-width:2.0px;stroke-linecap:butt;stroke-linejoin:miter;stroke-opacity:1"/>
<path class="bond-16 atom-16 atom-17" d="M 649.5,280.6 L 657.0,343.1" style="fill:none;fill-rule:evenodd;stroke:#000000;stroke-width:2.0px;stroke-linecap:butt;stroke-linejoin:miter;stroke-opacity:1"/>
<path class="bond-17 atom-17 atom-18" d="M 657.0,343.1 L 635.0,359.6" style="fill:none;fill-rule:evenodd;stroke:#000000;stroke-width:2.0px;stroke-linecap:butt;stroke-linejoin:miter;stroke-opacity:1"/>
<path class="bond-17 atom-17 atom-18" d="M 635.0,359.6 L 612.9,376.2" style="fill:none;fill-rule:evenodd;stroke:#191919;stroke-width:2.0px;stroke-linecap:butt;stroke-linejoin:miter;stroke-opacity:1"/>
<path class="bond-18 atom-17 atom-19" d="M 652.7,346.4 L 677.7,357.1" style="fill:none;fill-rule:evenodd;stroke:#000000;stroke-width:2.0px;stroke-linecap:butt;stroke-linejoin:miter;stroke-opacity:1"/>
<path class="bond-18 atom-17 atom-19" d="M 677.7,357.1 L 702.8,367.8" style="fill:none;fill-rule:evenodd;stroke:#FF0000;stroke-width:2.0px;stroke-linecap:butt;stroke-linejoin:miter;stroke-opacity:1"/>
<path class="bond-18 atom-17 atom-19" d="M 656.4,337.7 L 681.4,348.4" style="fill:none;fill-rule:evenodd;stroke:#000000;stroke-width:2.0px;stroke-linecap:butt;stroke-linejoin:miter;stroke-opacity:1"/>
<path class="bond-18 atom-17 atom-19" d="M 681.4,348.4 L 706.5,359.1" style="fill:none;fill-rule:evenodd;stroke:#FF0000;stroke-width:2.0px;stroke-linecap:butt;stroke-linejoin:miter;stroke-opacity:1"/>
<path d="M 786.7,42.6 L 785.5,42.1 L 783.0,44.0" style="fill:none;stroke:#000000;stroke-width:2.0px;stroke-linecap:butt;stroke-linejoin:miter;stroke-opacity:1;"/>
<path d="M 680.1,56.4 L 677.2,55.2 L 674.7,57.1" style="fill:none;stroke:#000000;stroke-width:2.0px;stroke-linecap:butt;stroke-linejoin:miter;stroke-opacity:1;"/>
<path d="M 629.4,91.1 L 626.9,93.0 L 624.0,91.8" style="fill:none;stroke:#000000;stroke-width:2.0px;stroke-linecap:butt;stroke-linejoin:miter;stroke-opacity:1;"/>
<path d="M 571.8,69.5 L 568.9,68.3 L 566.4,70.1" style="fill:none;stroke:#000000;stroke-width:2.0px;stroke-linecap:butt;stroke-linejoin:miter;stroke-opacity:1;"/>
<path d="M 521.1,104.2 L 518.5,106.1 L 515.7,104.8" style="fill:none;stroke:#000000;stroke-width:2.0px;stroke-linecap:butt;stroke-linejoin:miter;stroke-opacity:1;"/>
<path d="M 463.5,82.6 L 460.6,81.3 L 458.1,83.2" style="fill:none;stroke:#000000;stroke-width:2.0px;stroke-linecap:butt;stroke-linejoin:miter;stroke-opacity:1;"/>
<path d="M 412.8,117.2 L 410.2,119.1 L 407.3,117.9" style="fill:none;stroke:#000000;stroke-width:2.0px;stroke-linecap:butt;stroke-linejoin:miter;stroke-opacity:1;"/>
<path d="M 355.2,95.6 L 352.3,94.4 L 349.8,96.3" style="fill:none;stroke:#000000;stroke-width:2.0px;stroke-linecap:butt;stroke-linejoin:miter;stroke-opacity:1;"/>
<path d="M 693.3,179.5 L 692.3,180.3 L 692.7,183.4" style="fill:none;stroke:#000000;stroke-width:2.0px;stroke-linecap:butt;stroke-linejoin:miter;stroke-opacity:1;"/>
<path d="M 699.5,239.7 L 699.9,242.8 L 697.3,244.7" style="fill:none;stroke:#000000;stroke-width:2.0px;stroke-linecap:butt;stroke-linejoin:miter;stroke-opacity:1;"/>
<path d="M 652.0,278.7 L 649.5,280.6 L 649.9,283.7" style="fill:none;stroke:#000000;stroke-width:2.0px;stroke-linecap:butt;stroke-linejoin:miter;stroke-opacity:1;"/>
<path d="M 656.6,340.0 L 657.0,343.1 L 655.9,343.9" style="fill:none;stroke:#000000;stroke-width:2.0px;stroke-linecap:butt;stroke-linejoin:miter;stroke-opacity:1;"/>
<path class="atom-0" d="M 890.5 27.1 L 893.1 24.4 L 889.6 23.7 L 890.2 21.9 L 893.4 23.5 L 892.9 20.0 L 894.8 20.0 L 894.3 23.5 L 897.5 22.0 L 898.1 23.7 L 894.5 24.4 L 897.1 27.1 L 895.5 28.2 L 893.8 24.8 L 892.0 28.2 L 890.5 27.1 " fill="#191919"/>
<path class="atom-1" d="M 835.3 66.9 Q 835.3 62.6, 837.4 60.2 Q 839.5 57.8, 843.5 57.8 Q 847.4 57.8, 849.5 60.2 Q 851.6 62.6, 851.6 66.9 Q 851.6 71.2, 849.5 73.7 Q 847.4 76.2, 843.5 76.2 Q 839.5 76.2, 837.4 73.7 Q 835.3 71.3, 835.3 66.9 M 843.5 74.1 Q 846.2 74.1, 847.6 72.3 Q 849.1 70.5, 849.1 66.9 Q 849.1 63.4, 847.6 61.7 Q 846.2 59.9, 843.5 59.9 Q 840.7 59.9, 839.3 61.6 Q 837.8 63.4, 837.8 66.9 Q 837.8 70.5, 839.3 72.3 Q 840.7 74.1, 843.5 74.1 " fill="#FF0000"/>
<path class="atom-12" d="M 734.5 142.5 Q 734.5 138.2, 736.6 135.8 Q 738.7 133.4, 742.7 133.4 Q 746.7 133.4, 748.8 135.8 Q 750.9 138.2, 750.9 142.5 Q 750.9 146.8, 748.7 149.3 Q 746.6 151.8, 742.7 151.8 Q 738.8 151.8, 736.6 149.3 Q 734.5 146.9, 734.5 142.5 M 742.7 149.7 Q 745.4 149.7, 746.9 147.9 Q 748.4 146.1, 748.4 142.5 Q 748.4 139.0, 746.9 137.2 Q 745.4 135.5, 742.7 135.5 Q 740.0 135.5, 738.5 137.2 Q 737.0 139.0, 737.0 142.5 Q 737.0 146.1, 738.5 147.9 Q 740.0 149.7, 742.7 149.7 " fill="#FF0000"/>
<path class="atom-14" d="M 626.2 155.6 Q 626.2 151.3, 628.3 148.9 Q 630.4 146.5, 634.4 146.5 Q 638.3 146.5, 640.5 148.9 Q 642.6 151.3, 642.6 155.6 Q 642.6 159.9, 640.4 162.4 Q 638.3 164.8, 634.4 164.8 Q 630.5 164.8, 628.3 162.4 Q 626.2 159.9, 626.2 155.6 M 634.4 162.8 Q 637.1 162.8, 638.6 161.0 Q 640.1 159.1, 640.1 155.6 Q 640.1 152.1, 638.6 150.3 Q 637.1 148.5, 634.4 148.5 Q 631.7 148.5, 630.2 150.3 Q 628.7 152.0, 628.7 155.6 Q 628.7 159.2, 630.2 161.0 Q 631.7 162.8, 634.4 162.8 " fill="#FF0000"/>
<path class="atom-18" d="M 603.3 378.9 L 605.9 376.2 L 602.4 375.5 L 602.9 373.8 L 606.1 375.4 L 605.7 371.9 L 607.6 371.8 L 607.1 375.3 L 610.3 373.8 L 610.9 375.5 L 607.3 376.2 L 609.8 378.9 L 608.3 380.0 L 606.6 376.7 L 604.8 380.0 L 603.3 378.9 " fill="#191919"/>
<path class="atom-19" d="M 706.8 367.9 Q 706.8 363.6, 708.9 361.2 Q 711.0 358.8, 714.9 358.8 Q 718.9 358.8, 721.0 361.2 Q 723.1 363.6, 723.1 367.9 Q 723.1 372.2, 721.0 374.7 Q 718.8 377.1, 714.9 377.1 Q 711.0 377.1, 708.9 374.7 Q 706.8 372.3, 706.8 367.9 M 714.9 375.1 Q 717.7 375.1, 719.1 373.3 Q 720.6 371.5, 720.6 367.9 Q 720.6 364.4, 719.1 362.6 Q 717.7 360.8, 714.9 360.8 Q 712.2 360.8, 710.7 362.6 Q 709.3 364.4, 709.3 367.9 Q 709.3 371.5, 710.7 373.3 Q 712.2 375.1, 714.9 375.1 " fill="#FF0000"/>
<path class="bond-0 atom-0 atom-1" d="M 897.7,577.7 L 876.8,590.2" style="fill:none;fill-rule:evenodd;stroke:#191919;stroke-width:2.0px;stroke-linecap:butt;stroke-linejoin:miter;stroke-opacity:1"/>
<path class="bond-0 atom-0 atom-1" d="M 876.8,590.2 L 855.9,602.7" style="fill:none;fill-rule:evenodd;stroke:#FF0000;stroke-width:2.0px;stroke-linecap:butt;stroke-linejoin:miter;stroke-opacity:1"/>
<path class="bond-1 atom-1 atom-2" d="M 835.4,603.2 L 813.0,590.7" style="fill:none;fill-rule:evenodd;stroke:#FF0000;stroke-width:2.0px;stroke-linecap:butt;stroke-linejoin:miter;stroke-opacity:1"/>
<path class="bond-1 atom-1 atom-2" d="M 813.0,590.7 L 790.6,578.3" style="fill:none;fill-rule:evenodd;stroke:#000000;stroke-width:2.0px;stroke-linecap:butt;stroke-linejoin:miter;stroke-opacity:1"/>
<path class="bond-2 atom-2 atom-3" d="M 790.6,578.3 L 736.6,610.7" style="fill:none;fill-rule:evenodd;stroke:#000000;stroke-width:2.0px;stroke-linecap:butt;stroke-linejoin:miter;stroke-opacity:1"/>
<path class="bond-3 atom-3 atom-4" d="M 736.6,610.7 L 681.5,580.1" style="fill:none;fill-rule:evenodd;stroke:#000000;stroke-width:2.0px;stroke-linecap:butt;stroke-linejoin:miter;stroke-opacity:1"/>
<path class="bond-4 atom-4 atom-5" d="M 681.5,580.1 L 627.5,612.5" style="fill:none;fill-rule:evenodd;stroke:#000000;stroke-width:2.0px;stroke-linecap:butt;stroke-linejoin:miter;stroke-opacity:1"/>
<path class="bond-5 atom-5 atom-6" d="M 627.5,612.5 L 605.1,600.0" style="fill:none;fill-rule:evenodd;stroke:#000000;stroke-width:2.0px;stroke-linecap:butt;stroke-linejoin:miter;stroke-opacity:1"/>
<path class="bond-5 atom-5 atom-6" d="M 605.1,600.0 L 582.7,587.6" style="fill:none;fill-rule:evenodd;stroke:#FF0000;stroke-width:2.0px;stroke-linecap:butt;stroke-linejoin:miter;stroke-opacity:1"/>
<path class="bond-6 atom-6 atom-7" d="M 562.2,588.0 L 540.3,601.1" style="fill:none;fill-rule:evenodd;stroke:#FF0000;stroke-width:2.0px;stroke-linecap:butt;stroke-linejoin:miter;stroke-opacity:1"/>
<path class="bond-6 atom-6 atom-7" d="M 540.3,601.1 L 518.5,614.3" style="fill:none;fill-rule:evenodd;stroke:#000000;stroke-width:2.0px;stroke-linecap:butt;stroke-linejoin:miter;stroke-opacity:1"/>
<path class="bond-7 atom-7 atom-8" d="M 513.7,611.6 L 514.1,638.9" style="fill:none;fill-rule:evenodd;stroke:#000000;stroke-width:2.0px;stroke-linecap:butt;stroke-linejoin:miter;stroke-opacity:1"/>
<path class="bond-7 atom-7 atom-8" d="M 514.1,638.9 L 514.6,666.2" style="fill:none;fill-rule:evenodd;stroke:#FF0000;stroke-width:2.0px;stroke-linecap:butt;stroke-linejoin:miter;stroke-opacity:1"/>
<path class="bond-7 atom-7 atom-8" d="M 523.1,611.5 L 523.6,638.8" style="fill:none;fill-rule:evenodd;stroke:#000000;stroke-width:2.0px;stroke-linecap:butt;stroke-linejoin:miter;stroke-opacity:1"/>
<path class="bond-7 atom-7 atom-8" d="M 523.6,638.8 L 524.0,666.1" style="fill:none;fill-rule:evenodd;stroke:#FF0000;stroke-width:2.0px;stroke-linecap:butt;stroke-linejoin:miter;stroke-opacity:1"/>
<path class="bond-8 atom-7 atom-9" d="M 518.5,614.3 L 463.4,583.7" style="fill:none;fill-rule:evenodd;stroke:#000000;stroke-width:2.0px;stroke-linecap:butt;stroke-linejoin:miter;stroke-opacity:1"/>
<path class="bond-9 atom-9 atom-10" d="M 463.4,583.7 L 409.4,616.1" style="fill:none;fill-rule:evenodd;stroke:#000000;stroke-width:2.0px;stroke-linecap:butt;stroke-linejoin:miter;stroke-opacity:1"/>
<path class="bond-10 atom-10 atom-11" d="M 409.4,616.1 L 354.3,585.5" style="fill:none;fill-rule:evenodd;stroke:#000000;stroke-width:2.0px;stroke-linecap:butt;stroke-linejoin:miter;stroke-opacity:1"/>
<path class="bond-11 atom-11 atom-12" d="M 354.3,585.5 L 330.5,599.8" style="fill:none;fill-rule:evenodd;stroke:#000000;stroke-width:2.0px;stroke-linecap:butt;stroke-linejoin:miter;stroke-opacity:1"/>
<path class="bond-11 atom-11 atom-12" d="M 330.5,599.8 L 306.6,614.1" style="fill:none;fill-rule:evenodd;stroke:#191919;stroke-width:2.0px;stroke-linecap:butt;stroke-linejoin:miter;stroke-opacity:1"/>
<path class="bond-12 atom-11 atom-13" d="M 359.1,588.1 L 358.6,561.0" style="fill:none;fill-rule:evenodd;stroke:#000000;stroke-width:2.0px;stroke-linecap:butt;stroke-linejoin:miter;stroke-opacity:1"/>
<path class="bond-12 atom-11 atom-13" d="M 358.6,561.0 L 358.2,533.8" style="fill:none;fill-rule:evenodd;stroke:#FF0000;stroke-width:2.0px;stroke-linecap:butt;stroke-linejoin:miter;stroke-opacity:1"/>
<path class="bond-12 atom-11 atom-13" d="M 349.6,588.3 L 349.2,561.1" style="fill:none;fill-rule:evenodd;stroke:#000000;stroke-width:2.0px;stroke-linecap:butt;stroke-linejoin:miter;stroke-opacity:1"/>
<path class="bond-12 atom-11 atom-13" d="M 349.2,561.1 L 348.7,533.9" style="fill:none;fill-rule:evenodd;stroke:#FF0000;stroke-width:2.0px;stroke-linecap:butt;stroke-linejoin:miter;stroke-opacity:1"/>
<path d="M 791.7,578.9 L 790.6,578.3 L 787.9,579.9" style="fill:none;stroke:#000000;stroke-width:2.0px;stroke-linecap:butt;stroke-linejoin:miter;stroke-opacity:1;"/>
<path d="M 739.3,609.0 L 736.6,610.7 L 733.9,609.1" style="fill:none;stroke:#000000;stroke-width:2.0px;stroke-linecap:butt;stroke-linejoin:miter;stroke-opacity:1;"/>
<path d="M 684.3,581.6 L 681.5,580.1 L 678.8,581.7" style="fill:none;stroke:#000000;stroke-width:2.0px;stroke-linecap:butt;stroke-linejoin:miter;stroke-opacity:1;"/>
<path d="M 630.2,610.8 L 627.5,612.5 L 626.4,611.8" style="fill:none;stroke:#000000;stroke-width:2.0px;stroke-linecap:butt;stroke-linejoin:miter;stroke-opacity:1;"/>
<path d="M 519.5,613.6 L 518.5,614.3 L 515.7,612.7" style="fill:none;stroke:#000000;stroke-width:2.0px;stroke-linecap:butt;stroke-linejoin:miter;stroke-opacity:1;"/>
<path d="M 466.1,585.2 L 463.4,583.7 L 460.7,585.3" style="fill:none;stroke:#000000;stroke-width:2.0px;stroke-linecap:butt;stroke-linejoin:miter;stroke-opacity:1;"/>
<path d="M 412.1,614.4 L 409.4,616.1 L 406.6,614.5" style="fill:none;stroke:#000000;stroke-width:2.0px;stroke-linecap:butt;stroke-linejoin:miter;stroke-opacity:1;"/>
<path d="M 357.1,587.0 L 354.3,585.5 L 353.1,586.2" style="fill:none;stroke:#000000;stroke-width:2.0px;stroke-linecap:butt;stroke-linejoin:miter;stroke-opacity:1;"/>
<path class="atom-0" d="M 896.3 574.5 L 899.0 571.8 L 895.5 571.1 L 896.0 569.3 L 899.2 570.9 L 898.8 567.4 L 900.6 567.4 L 900.1 570.9 L 903.4 569.4 L 903.9 571.1 L 900.4 571.8 L 902.9 574.5 L 901.4 575.6 L 899.6 572.3 L 897.9 575.6 L 896.3 574.5 " fill="#191919"/>
<path class="atom-1" d="M 837.5 608.9 Q 837.5 604.6, 839.6 602.2 Q 841.7 599.9, 845.7 599.9 Q 849.6 599.9, 851.7 602.2 Q 853.9 604.6, 853.9 608.9 Q 853.9 613.3, 851.7 615.7 Q 849.6 618.2, 845.7 618.2 Q 841.7 618.2, 839.6 615.7 Q 837.5 613.3, 837.5 608.9 M 845.7 616.2 Q 848.4 616.2, 849.9 614.3 Q 851.3 612.5, 851.3 608.9 Q 851.3 605.4, 849.9 603.7 Q 848.4 601.9, 845.7 601.9 Q 843.0 601.9, 841.5 603.6 Q 840.0 605.4, 840.0 608.9 Q 840.0 612.5, 841.5 614.3 Q 843.0 616.2, 845.7 616.2 " fill="#FF0000"/>
<path class="atom-6" d="M 564.3 581.9 Q 564.3 577.6, 566.4 575.2 Q 568.5 572.9, 572.5 572.9 Q 576.4 572.9, 578.5 575.2 Q 580.7 577.6, 580.7 581.9 Q 580.7 586.3, 578.5 588.7 Q 576.4 591.2, 572.5 591.2 Q 568.5 591.2, 566.4 588.7 Q 564.3 586.3, 564.3 581.9 M 572.5 589.2 Q 575.2 589.2, 576.7 587.3 Q 578.1 585.5, 578.1 581.9 Q 578.1 578.4, 576.7 576.7 Q 575.2 574.9, 572.5 574.9 Q 569.8 574.9, 568.3 576.6 Q 566.8 578.4, 566.8 581.9 Q 566.8 585.5, 568.3 587.3 Q 569.8 589.2, 572.5 589.2 " fill="#FF0000"/>
<path class="atom-8" d="M 511.3 677.3 Q 511.3 673.0, 513.4 670.6 Q 515.5 668.2, 519.5 668.2 Q 523.4 668.2, 525.6 670.6 Q 527.7 673.0, 527.7 677.3 Q 527.7 681.6, 525.5 684.1 Q 523.4 686.5, 519.5 686.5 Q 515.6 686.5, 513.4 684.1 Q 511.3 681.6, 511.3 677.3 M 519.5 684.5 Q 522.2 684.5, 523.7 682.7 Q 525.2 680.9, 525.2 677.3 Q 525.2 673.8, 523.7 672.0 Q 522.2 670.2, 519.5 670.2 Q 516.8 670.2, 515.3 672.0 Q 513.8 673.8, 513.8 677.3 Q 513.8 680.9, 515.3 682.7 Q 516.8 684.5, 519.5 684.5 " fill="#FF0000"/>
<path class="atom-12" d="M 296.9 615.9 L 299.6 613.2 L 296.1 612.5 L 296.6 610.7 L 299.8 612.3 L 299.4 608.8 L 301.2 608.8 L 300.7 612.3 L 304.0 610.8 L 304.5 612.5 L 301.0 613.1 L 303.5 615.8 L 302.0 616.9 L 300.2 613.6 L 298.5 616.9 L 296.9 615.9 " fill="#191919"/>
<path class="atom-13" d="M 345.1 522.5 Q 345.1 518.3, 347.2 515.9 Q 349.3 513.5, 353.3 513.5 Q 357.2 513.5, 359.4 515.9 Q 361.5 518.3, 361.5 522.5 Q 361.5 526.9, 359.3 529.3 Q 357.2 531.8, 353.3 531.8 Q 349.4 531.8, 347.2 529.3 Q 345.1 526.9, 345.1 522.5 M 353.3 529.8 Q 356.0 529.8, 357.5 528.0 Q 359.0 526.1, 359.0 522.5 Q 359.0 519.0, 357.5 517.3 Q 356.0 515.5, 353.3 515.5 Q 350.6 515.5, 349.1 517.2 Q 347.6 519.0, 347.6 522.5 Q 347.6 526.1, 349.1 528.0 Q 350.6 529.8, 353.3 529.8 " fill="#FF0000"/>
</svg>