<svg xmlns="http://www.w3.org/2000/svg" xmlns:rdkit="http://www.rdkit.org/xml" xmlns:xlink="http://www.w3.org/1999/xlink" version="1.1" baseProfile="full" xml:space="preserve" width="1200px" height="800px" viewBox="0 0 1200 800">
<!-- END OF HEADER -->
<rect style="opacity:1.0;fill:#FFFFFF;stroke:none" width="1200.0" height="800.0" x="0.0" y="0.0"> </rect>
<path class="bond-0 atom-0 atom-1" d="M 238.1,36.7 L 274.4,54.6" style="fill:none;fill-rule:evenodd;stroke:#191919;stroke-width:2.0px;stroke-linecap:butt;stroke-linejoin:miter;stroke-opacity:1"/>
<path class="bond-0 atom-0 atom-1" d="M 274.4,54.6 L 310.8,72.5" style="fill:none;fill-rule:evenodd;stroke:#FF0000;stroke-width:2.0px;stroke-linecap:butt;stroke-linejoin:miter;stroke-opacity:1"/>
<path class="bond-1 atom-1 atom-2" d="M 328.4,98.8 L 331.3,141.5" style="fill:none;fill-rule:evenodd;stroke:#FF0000;stroke-width:2.0px;stroke-linecap:butt;stroke-linejoin:miter;stroke-opacity:1"/>
<path class="bond-1 atom-1 atom-2" d="M 331.3,141.5 L 334.1,184.3" style="fill:none;fill-rule:evenodd;stroke:#000000;stroke-width:2.0px;stroke-linecap:butt;stroke-linejoin:miter;stroke-opacity:1"/>
<path class="bond-2 atom-2 atom-3" d="M 334.1,184.3 L 427.3,230.1" style="fill:none;fill-rule:evenodd;stroke:#000000;stroke-width:2.0px;stroke-linecap:butt;stroke-linejoin:miter;stroke-opacity:1"/>
<path class="bond-3 atom-3 atom-4" d="M 427.3,230.1 L 434.1,333.8" style="fill:none;fill-rule:evenodd;stroke:#000000;stroke-width:2.0px;stroke-linecap:butt;stroke-linejoin:miter;stroke-opacity:1"/>
<path class="bond-4 atom-4 atom-5" d="M 434.1,333.8 L 527.4,379.7" style="fill:none;fill-rule:evenodd;stroke:#000000;stroke-width:2.0px;stroke-linecap:butt;stroke-linejoin:miter;stroke-opacity:1"/>
<path class="bond-5 atom-3 atom-6" d="M 427.3,230.1 L 462.3,206.8" style="fill:none;fill-rule:evenodd;stroke:#000000;stroke-width:2.0px;stroke-linecap:butt;stroke-linejoin:miter;stroke-opacity:1"/>
<path class="bond-5 atom-3 atom-6" d="M 462.3,206.8 L 497.2,183.4" style="fill:none;fill-rule:evenodd;stroke:#FF0000;stroke-width:2.0px;stroke-linecap:butt;stroke-linejoin:miter;stroke-opacity:1"/>
<path class="bond-6 atom-6 atom-7" d="M 530.1,180.5 L 568.5,199.4" style="fill:none;fill-rule:evenodd;stroke:#FF0000;stroke-width:2.0px;stroke-linecap:butt;stroke-linejoin:miter;stroke-opacity:1"/>
<path class="bond-6 atom-6 atom-7" d="M 568.5,199.4 L 606.9,218.3" style="fill:none;fill-rule:evenodd;stroke:#000000;stroke-width:2.0px;stroke-linecap:butt;stroke-linejoin:miter;stroke-opacity:1"/>
<path class="bond-7 atom-7 atom-8" d="M 598.8,214.3 L 601.8,259.5" style="fill:none;fill-rule:evenodd;stroke:#000000;stroke-width:2.0px;stroke-linecap:butt;stroke-linejoin:miter;stroke-opacity:1"/>
<path class="bond-7 atom-7 atom-8" d="M 601.8,259.5 L 604.8,304.7" style="fill:none;fill-rule:evenodd;stroke:#FF0000;stroke-width:2.0px;stroke-linecap:butt;stroke-linejoin:miter;stroke-opacity:1"/>
<path class="bond-7 atom-7 atom-8" d="M 614.3,213.3 L 617.3,258.5" style="fill:none;fill-rule:evenodd;stroke:#000000;stroke-width:2.0px;stroke-linecap:butt;stroke-linejoin:miter;stroke-opacity:1"/>
<path class="bond-7 atom-7 atom-8" d="M 617.3,258.5 L 620.3,303.7" style="fill:none;fill-rule:evenodd;stroke:#FF0000;stroke-width:2.0px;stroke-linecap:butt;stroke-linejoin:miter;stroke-opacity:1"/>
<path class="bond-8 atom-7 atom-9" d="M 606.9,218.3 L 693.2,160.5" style="fill:none;fill-rule:evenodd;stroke:#000000;stroke-width:2.0px;stroke-linecap:butt;stroke-linejoin:miter;stroke-opacity:1"/>
<path class="bond-9 atom-9 atom-10" d="M 693.2,160.5 L 786.4,206.4" style="fill:none;fill-rule:evenodd;stroke:#000000;stroke-width:2.0px;stroke-linecap:butt;stroke-linejoin:miter;stroke-opacity:1"/>
<path class="bond-10 atom-10 atom-11" d="M 786.4,206.4 L 872.8,148.6" style="fill:none;fill-rule:evenodd;stroke:#000000;stroke-width:2.0px;stroke-linecap:butt;stroke-linejoin:miter;stroke-opacity:1"/>
<path class="bond-11 atom-11 atom-12" d="M 872.8,148.6 L 914.3,169.1" style="fill:none;fill-rule:evenodd;stroke:#000000;stroke-width:2.0px;stroke-linecap:butt;stroke-linejoin:miter;stroke-opacity:1"/>
<path class="bond-11 atom-11 atom-12" d="M 914.3,169.1 L 955.9,189.5" style="fill:none;fill-rule:evenodd;stroke:#191919;stroke-width:2.0px;stroke-linecap:butt;stroke-linejoin:miter;stroke-opacity:1"/>
<path class="bond-12 atom-11 atom-13" d="M 880.8,152.6 L 877.9,107.6" style="fill:none;fill-rule:evenodd;stroke:#000000;stroke-width:2.0px;stroke-linecap:butt;stroke-linejoin:miter;stroke-opacity:1"/>
<path class="bond-12 atom-11 atom-13" d="M 877.9,107.6 L 874.9,62.6" style="fill:none;fill-rule:evenodd;stroke:#FF0000;stroke-width:2.0px;stroke-linecap:butt;stroke-linejoin:miter;stroke-opacity:1"/>
<path class="bond-12 atom-11 atom-13" d="M 865.3,153.6 L 862.3,108.6" style="fill:none;fill-rule:evenodd;stroke:#000000;stroke-width:2.0px;stroke-linecap:butt;stroke-linejoin:miter;stroke-opacity:1"/>
<path class="bond-12 atom-11 atom-13" d="M 862.3,108.6 L 859.3,63.7" style="fill:none;fill-rule:evenodd;stroke:#FF0000;stroke-width:2.0px;stroke-linecap:butt;stroke-linejoin:miter;stroke-opacity:1"/>
<path d="M 333.9,182.1 L 334.1,184.3 L 338.7,186.5" style="fill:none;stroke:#000000;stroke-width:2.0px;stroke-linecap:butt;stroke-linejoin:miter;stroke-opacity:1;"/>
<path d="M 433.8,328.6 L 434.1,333.8 L 438.8,336.1" style="fill:none;stroke:#000000;stroke-width:2.0px;stroke-linecap:butt;stroke-linejoin:miter;stroke-opacity:1;"/>
<path d="M 604.9,217.3 L 606.9,218.3 L 611.2,215.4" style="fill:none;stroke:#000000;stroke-width:2.0px;stroke-linecap:butt;stroke-linejoin:miter;stroke-opacity:1;"/>
<path d="M 688.9,163.4 L 693.2,160.5 L 697.9,162.8" style="fill:none;stroke:#000000;stroke-width:2.0px;stroke-linecap:butt;stroke-linejoin:miter;stroke-opacity:1;"/>
<path d="M 781.8,204.1 L 786.4,206.4 L 790.7,203.5" style="fill:none;stroke:#000000;stroke-width:2.0px;stroke-linecap:butt;stroke-linejoin:miter;stroke-opacity:1;"/>
<path d="M 868.5,151.5 L 872.8,148.6 L 874.9,149.6" style="fill:none;stroke:#000000;stroke-width:2.0px;stroke-linecap:butt;stroke-linejoin:miter;stroke-opacity:1;"/>
<path class="atom-0" d="M 228.7 31.5 L 232.8 27.3 L 227.3 26.2 L 228.2 23.3 L 233.2 25.9 L 232.5 20.3 L 235.5 20.3 L 234.7 25.8 L 239.8 23.4 L 240.7 26.2 L 235.1 27.2 L 239.1 31.5 L 236.7 33.2 L 233.9 28.0 L 231.1 33.2 L 228.7 31.5 " fill="#191919"/>
<path class="atom-1" d="M 314.2 80.7 Q 314.2 73.9, 317.6 70.1 Q 320.9 66.3, 327.2 66.3 Q 333.5 66.3, 336.9 70.1 Q 340.2 73.9, 340.2 80.7 Q 340.2 87.5, 336.8 91.5 Q 333.4 95.3, 327.2 95.3 Q 321.0 95.3, 317.6 91.5 Q 314.2 87.6, 314.2 80.7 M 327.2 92.1 Q 331.5 92.1, 333.9 89.3 Q 336.2 86.3, 336.2 80.7 Q 336.2 75.1, 333.9 72.3 Q 331.5 69.5, 327.2 69.5 Q 322.9 69.5, 320.5 72.3 Q 318.2 75.1, 318.2 80.7 Q 318.2 86.4, 320.5 89.3 Q 322.9 92.1, 327.2 92.1 " fill="#FF0000"/>
<path class="atom-6" d="M 500.6 172.5 Q 500.6 165.7, 504.0 161.9 Q 507.4 158.1, 513.6 158.1 Q 519.9 158.1, 523.3 161.9 Q 526.6 165.7, 526.6 172.5 Q 526.6 179.3, 523.2 183.3 Q 519.8 187.1, 513.6 187.1 Q 507.4 187.1, 504.0 183.3 Q 500.6 179.4, 500.6 172.5 M 513.6 183.9 Q 518.0 183.9, 520.3 181.1 Q 522.6 178.1, 522.6 172.5 Q 522.6 166.9, 520.3 164.1 Q 518.0 161.3, 513.6 161.3 Q 509.3 161.3, 507.0 164.1 Q 504.6 166.9, 504.6 172.5 Q 504.6 178.2, 507.0 181.1 Q 509.3 183.9, 513.6 183.9 " fill="#FF0000"/>
<path class="atom-8" d="M 600.7 322.0 Q 600.7 315.2, 604.1 311.4 Q 607.4 307.6, 613.7 307.6 Q 620.0 307.6, 623.4 311.4 Q 626.7 315.2, 626.7 322.0 Q 626.7 328.9, 623.3 332.8 Q 619.9 336.7, 613.7 336.7 Q 607.5 336.7, 604.1 332.8 Q 600.7 328.9, 600.7 322.0 M 613.7 333.5 Q 618.0 333.5, 620.4 330.6 Q 622.7 327.7, 622.7 322.0 Q 622.7 316.5, 620.4 313.7 Q 618.0 310.8, 613.7 310.8 Q 609.4 310.8, 607.0 313.6 Q 604.7 316.4, 604.7 322.0 Q 604.7 327.7, 607.0 330.6 Q 609.4 333.5, 613.7 333.5 " fill="#FF0000"/>
<path class="atom-12" d="M 960.6 191.4 L 964.8 187.1 L 959.3 186.0 L 960.1 183.2 L 965.2 185.7 L 964.5 180.2 L 967.5 180.1 L 966.6 185.7 L 971.8 183.3 L 972.7 186.0 L 967.1 187.0 L 971.1 191.3 L 968.6 193.1 L 965.9 187.8 L 963.1 193.1 L 960.6 191.4 " fill="#191919"/>
<path class="atom-13" d="M 852.9 45.0 Q 852.9 38.2, 856.3 34.4 Q 859.6 30.6, 865.9 30.6 Q 872.2 30.6, 875.6 34.4 Q 878.9 38.2, 878.9 45.0 Q 878.9 51.9, 875.5 55.8 Q 872.1 59.7, 865.9 59.7 Q 859.7 59.7, 856.3 55.8 Q 852.9 52.0, 852.9 45.0 M 865.9 56.5 Q 870.2 56.5, 872.6 53.6 Q 874.9 50.7, 874.9 45.0 Q 874.9 39.5, 872.6 36.7 Q 870.2 33.8, 865.9 33.8 Q 861.6 33.8, 859.2 36.6 Q 856.9 39.4, 856.9 45.0 Q 856.9 50.8, 859.2 53.6 Q 861.6 56.5, 865.9 56.5 " fill="#FF0000"/>
<path class="bond-0 atom-0 atom-1" d="M 1091.1,563.2 L 1056.4,584.0" style="fill:none;fill-rule:evenodd;stroke:#191919;stroke-width:2.0px;stroke-linecap:butt;stroke-linejoin:miter;stroke-opacity:1"/>
<path class="bond-0 atom-0 atom-1" d="M 1056.4,584.0 L 1021.7,604.8" style="fill:none;fill-rule:evenodd;stroke:#FF0000;stroke-width:2.0px;stroke-linecap:butt;stroke-linejoin:miter;stroke-opacity:1"/>
<path class="bond-1 atom-1 atom-2" d="M 988.8,605.5 L 951.7,584.8" style="fill:none;fill-rule:evenodd;stroke:#FF0000;stroke-width:2.0px;stroke-linecap:butt;stroke-linejoin:miter;stroke-opacity:1"/>
<path class="bond-1 atom-1 atom-2" d="M 951.7,584.8 L 914.5,564.2" style="fill:none;fill-rule:evenodd;stroke:#000000;stroke-width:2.0px;stroke-linecap:butt;stroke-linejoin:miter;stroke-opacity:1"/>
<path class="bond-2 atom-2 atom-3" d="M 914.5,564.2 L 825.3,617.6" style="fill:none;fill-rule:evenodd;stroke:#000000;stroke-width:2.0px;stroke-linecap:butt;stroke-linejoin:miter;stroke-opacity:1"/>
<path class="bond-3 atom-3 atom-4" d="M 825.3,617.6 L 734.5,567.1" style="fill:none;fill-rule:evenodd;stroke:#000000;stroke-width:2.0px;stroke-linecap:butt;stroke-linejoin:miter;stroke-opacity:1"/>
<path class="bond-4 atom-4 atom-5" d="M 734.5,567.1 L 645.4,620.6" style="fill:none;fill-rule:evenodd;stroke:#000000;stroke-width:2.0px;stroke-linecap:butt;stroke-linejoin:miter;stroke-opacity:1"/>
<path class="bond-5 atom-5 atom-6" d="M 645.4,620.6 L 608.2,599.9" style="fill:none;fill-rule:evenodd;stroke:#000000;stroke-width:2.0px;stroke-linecap:butt;stroke-linejoin:miter;stroke-opacity:1"/>
<path class="bond-5 atom-5 atom-6" d="M 608.2,599.9 L 571.0,579.2" style="fill:none;fill-rule:evenodd;stroke:#FF0000;stroke-width:2.0px;stroke-linecap:butt;stroke-linejoin:miter;stroke-opacity:1"/>
<path class="bond-6 atom-6 atom-7" d="M 538.2,580.0 L 501.8,601.7" style="fill:none;fill-rule:evenodd;stroke:#FF0000;stroke-width:2.0px;stroke-linecap:butt;stroke-linejoin:miter;stroke-opacity:1"/>
<path class="bond-6 atom-6 atom-7" d="M 501.8,601.7 L 465.5,623.5" style="fill:none;fill-rule:evenodd;stroke:#000000;stroke-width:2.0px;stroke-linecap:butt;stroke-linejoin:miter;stroke-opacity:1"/>
<path class="bond-7 atom-7 atom-8" d="M 457.6,619.2 L 458.4,664.5" style="fill:none;fill-rule:evenodd;stroke:#000000;stroke-width:2.0px;stroke-linecap:butt;stroke-linejoin:miter;stroke-opacity:1"/>
<path class="bond-7 atom-7 atom-8" d="M 458.4,664.5 L 459.1,709.8" style="fill:none;fill-rule:evenodd;stroke:#FF0000;stroke-width:2.0px;stroke-linecap:butt;stroke-linejoin:miter;stroke-opacity:1"/>
<path class="bond-7 atom-7 atom-8" d="M 473.2,618.9 L 473.9,664.2" style="fill:none;fill-rule:evenodd;stroke:#000000;stroke-width:2.0px;stroke-linecap:butt;stroke-linejoin:miter;stroke-opacity:1"/>
<path class="bond-7 atom-7 atom-8" d="M 473.9,664.2 L 474.7,709.5" style="fill:none;fill-rule:evenodd;stroke:#FF0000;stroke-width:2.0px;stroke-linecap:butt;stroke-linejoin:miter;stroke-opacity:1"/>
<path class="bond-8 atom-7 atom-9" d="M 465.5,623.5 L 374.7,573.1" style="fill:none;fill-rule:evenodd;stroke:#000000;stroke-width:2.0px;stroke-linecap:butt;stroke-linejoin:miter;stroke-opacity:1"/>
<path class="bond-9 atom-9 atom-10" d="M 374.7,573.1 L 285.5,626.5" style="fill:none;fill-rule:evenodd;stroke:#000000;stroke-width:2.0px;stroke-linecap:butt;stroke-linejoin:miter;stroke-opacity:1"/>
<path class="bond-10 atom-10 atom-11" d="M 285.5,626.5 L 194.7,576.0" style="fill:none;fill-rule:evenodd;stroke:#000000;stroke-width:2.0px;stroke-linecap:butt;stroke-linejoin:miter;stroke-opacity:1"/>
<path class="bond-11 atom-11 atom-12" d="M 194.7,576.0 L 155.2,599.7" style="fill:none;fill-rule:evenodd;stroke:#000000;stroke-width:2.0px;stroke-linecap:butt;stroke-linejoin:miter;stroke-opacity:1"/>
<path class="bond-11 atom-11 atom-12" d="M 155.2,599.7 L 115.7,623.4" style="fill:none;fill-rule:evenodd;stroke:#191919;stroke-width:2.0px;stroke-linecap:butt;stroke-linejoin:miter;stroke-opacity:1"/>
<path class="bond-12 atom-11 atom-13" d="M 202.6,580.4 L 201.8,535.3" style="fill:none;fill-rule:evenodd;stroke:#000000;stroke-width:2.0px;stroke-linecap:butt;stroke-linejoin:miter;stroke-opacity:1"/>
<path class="bond-12 atom-11 atom-13" d="M 201.8,535.3 L 201.1,490.2" style="fill:none;fill-rule:evenodd;stroke:#FF0000;stroke-width:2.0px;stroke-linecap:butt;stroke-linejoin:miter;stroke-opacity:1"/>
<path class="bond-12 atom-11 atom-13" d="M 187.0,580.7 L 186.3,535.6" style="fill:none;fill-rule:evenodd;stroke:#000000;stroke-width:2.0px;stroke-linecap:butt;stroke-linejoin:miter;stroke-opacity:1"/>
<path class="bond-12 atom-11 atom-13" d="M 186.3,535.6 L 185.5,490.5" style="fill:none;fill-rule:evenodd;stroke:#FF0000;stroke-width:2.0px;stroke-linecap:butt;stroke-linejoin:miter;stroke-opacity:1"/>
<path d="M 916.3,565.2 L 914.5,564.2 L 910.0,566.9" style="fill:none;stroke:#000000;stroke-width:2.0px;stroke-linecap:butt;stroke-linejoin:miter;stroke-opacity:1;"/>
<path d="M 829.8,614.9 L 825.3,617.6 L 820.8,615.1" style="fill:none;stroke:#000000;stroke-width:2.0px;stroke-linecap:butt;stroke-linejoin:miter;stroke-opacity:1;"/>
<path d="M 739.1,569.7 L 734.5,567.1 L 730.1,569.8" style="fill:none;stroke:#000000;stroke-width:2.0px;stroke-linecap:butt;stroke-linejoin:miter;stroke-opacity:1;"/>
<path d="M 649.9,617.9 L 645.4,620.6 L 643.6,619.5" style="fill:none;stroke:#000000;stroke-width:2.0px;stroke-linecap:butt;stroke-linejoin:miter;stroke-opacity:1;"/>
<path d="M 467.3,622.4 L 465.5,623.5 L 460.9,621.0" style="fill:none;stroke:#000000;stroke-width:2.0px;stroke-linecap:butt;stroke-linejoin:miter;stroke-opacity:1;"/>
<path d="M 379.2,575.6 L 374.7,573.1 L 370.2,575.7" style="fill:none;stroke:#000000;stroke-width:2.0px;stroke-linecap:butt;stroke-linejoin:miter;stroke-opacity:1;"/>
<path d="M 290.0,623.8 L 285.5,626.5 L 281.0,624.0" style="fill:none;stroke:#000000;stroke-width:2.0px;stroke-linecap:butt;stroke-linejoin:miter;stroke-opacity:1;"/>
<path d="M 199.3,578.6 L 194.7,576.0 L 192.7,577.2" style="fill:none;stroke:#000000;stroke-width:2.0px;stroke-linecap:butt;stroke-linejoin:miter;stroke-opacity:1;"/>
<path class="atom-0" d="M 1089.0 558.1 L 1093.2 553.8 L 1087.7 552.7 L 1088.5 549.9 L 1093.6 552.4 L 1092.9 546.9 L 1095.9 546.8 L 1095.0 552.4 L 1100.2 550.0 L 1101.1 552.7 L 1095.5 553.7 L 1099.5 558.0 L 1097.0 559.8 L 1094.3 554.5 L 1091.5 559.8 L 1089.0 558.1 " fill="#191919"/>
<path class="atom-1" d="M 992.3 614.7 Q 992.3 607.9, 995.6 604.1 Q 999.0 600.3, 1005.3 600.3 Q 1011.6 600.3, 1014.9 604.1 Q 1018.3 607.9, 1018.3 614.7 Q 1018.3 621.6, 1014.9 625.5 Q 1011.5 629.4, 1005.3 629.4 Q 999.0 629.4, 995.6 625.5 Q 992.3 621.6, 992.3 614.7 M 1005.3 626.2 Q 1009.6 626.2, 1011.9 623.3 Q 1014.3 620.4, 1014.3 614.7 Q 1014.3 609.2, 1011.9 606.4 Q 1009.6 603.5, 1005.3 603.5 Q 1001.0 603.5, 998.6 606.3 Q 996.3 609.1, 996.3 614.7 Q 996.3 620.4, 998.6 623.3 Q 1001.0 626.2, 1005.3 626.2 " fill="#FF0000"/>
<path class="atom-6" d="M 541.6 570.2 Q 541.6 563.4, 544.9 559.6 Q 548.3 555.8, 554.6 555.8 Q 560.9 555.8, 564.2 559.6 Q 567.6 563.4, 567.6 570.2 Q 567.6 577.1, 564.2 581.0 Q 560.8 584.9, 554.6 584.9 Q 548.3 584.9, 544.9 581.0 Q 541.6 577.1, 541.6 570.2 M 554.6 581.7 Q 558.9 581.7, 561.2 578.8 Q 563.6 575.9, 563.6 570.2 Q 563.6 564.6, 561.2 561.8 Q 558.9 559.0, 554.6 559.0 Q 550.3 559.0, 547.9 561.8 Q 545.6 564.6, 545.6 570.2 Q 545.6 575.9, 547.9 578.8 Q 550.3 581.7, 554.6 581.7 " fill="#FF0000"/>
<path class="atom-8" d="M 454.2 727.5 Q 454.2 720.7, 457.5 716.9 Q 460.9 713.1, 467.2 713.1 Q 473.5 713.1, 476.8 716.9 Q 480.2 720.7, 480.2 727.5 Q 480.2 734.4, 476.8 738.3 Q 473.4 742.2, 467.2 742.2 Q 460.9 742.2, 457.5 738.3 Q 454.2 734.4, 454.2 727.5 M 467.2 739.0 Q 471.5 739.0, 473.8 736.1 Q 476.2 733.2, 476.2 727.5 Q 476.2 721.9, 473.8 719.1 Q 471.5 716.3, 467.2 716.3 Q 462.9 716.3, 460.5 719.1 Q 458.2 721.9, 458.2 727.5 Q 458.2 733.2, 460.5 736.1 Q 462.9 739.0, 467.2 739.0 " fill="#FF0000"/>
<path class="atom-12" d="M 100.3 626.3 L 104.4 622.1 L 98.9 620.9 L 99.8 618.1 L 104.8 620.7 L 104.1 615.1 L 107.1 615.1 L 106.3 620.6 L 111.4 618.2 L 112.3 620.9 L 106.7 622.0 L 110.7 626.3 L 108.3 628.0 L 105.5 622.7 L 102.7 628.0 L 100.3 626.3 " fill="#191919"/>
<path class="atom-13" d="M 180.0 472.2 Q 180.0 465.4, 183.4 461.6 Q 186.7 457.8, 193.0 457.8 Q 199.3 457.8, 202.7 461.6 Q 206.0 465.4, 206.0 472.2 Q 206.0 479.1, 202.6 483.0 Q 199.2 486.9, 193.0 486.9 Q 186.8 486.9, 183.4 483.0 Q 180.0 479.1, 180.0 472.2 M 193.0 483.7 Q 197.3 483.7, 199.7 480.8 Q 202.0 477.9, 202.0 472.2 Q 202.0 466.7, 199.7 463.9 Q 197.3 461.0, 193.0 461.0 Q 188.7 461.0, 186.3 463.8 Q 184.0 466.6, 184.0 472.2 Q 184.0 477.9, 186.3 480.8 Q 188.7 483.7, 193.0 483.7 " fill="#FF0000"/>
</svg>