<svg xmlns="http://www.w3.org/2000/svg" xmlns:rdkit="http://www.rdkit.org/xml" xmlns:xlink="http://www.w3.org/1999/xlink" version="1.1" baseProfile="full" xml:space="preserve" width="1200px" height="1600px" viewBox="0 0 1200 1600">
<!-- END OF HEADER -->
<rect style="opacity:1.0;fill:#FFFFFF;stroke:none" width="1200.0" height="1600.0" x="0.0" y="0.0"> </rect>
<path class="bond-0 atom-0 atom-1" d="M 116.3,292.0 L 142.4,276.8" style="fill:none;fill-rule:evenodd;stroke:#191919;stroke-width:2.0px;stroke-linecap:butt;stroke-linejoin:miter;stroke-opacity:1"/>
<path class="bond-0 atom-0 atom-1" d="M 142.4,276.8 L 168.5,261.5" style="fill:none;fill-rule:evenodd;stroke:#FF0000;stroke-width:2.0px;stroke-linecap:butt;stroke-linejoin:miter;stroke-opacity:1"/>
<path class="bond-1 atom-1 atom-2" d="M 196.9,261.4 L 227.6,278.9" style="fill:none;fill-rule:evenodd;stroke:#FF0000;stroke-width:2.0px;stroke-linecap:butt;stroke-linejoin:miter;stroke-opacity:1"/>
<path class="bond-1 atom-1 atom-2" d="M 227.6,278.9 L 258.3,296.4" style="fill:none;fill-rule:evenodd;stroke:#000000;stroke-width:2.0px;stroke-linecap:butt;stroke-linejoin:miter;stroke-opacity:1"/>
<path class="bond-2 atom-2 atom-3" d="M 258.3,296.4 L 333.4,252.6" style="fill:none;fill-rule:evenodd;stroke:#000000;stroke-width:2.0px;stroke-linecap:butt;stroke-linejoin:miter;stroke-opacity:1"/>
<path class="bond-3 atom-3 atom-4" d="M 333.4,252.6 L 333.1,165.6" style="fill:none;fill-rule:evenodd;stroke:#000000;stroke-width:2.0px;stroke-linecap:butt;stroke-linejoin:miter;stroke-opacity:1"/>
<path class="bond-4 atom-4 atom-5" d="M 333.1,165.6 L 408.2,121.8" style="fill:none;fill-rule:evenodd;stroke:#000000;stroke-width:2.0px;stroke-linecap:butt;stroke-linejoin:miter;stroke-opacity:1"/>
<path class="bond-5 atom-5 atom-6" d="M 408.2,121.8 L 483.8,165.0" style="fill:none;fill-rule:evenodd;stroke:#000000;stroke-width:2.0px;stroke-linecap:butt;stroke-linejoin:miter;stroke-opacity:1"/>
<path class="bond-6 atom-6 atom-7" d="M 483.8,165.0 L 558.9,121.1" style="fill:none;fill-rule:evenodd;stroke:#000000;stroke-width:2.0px;stroke-linecap:butt;stroke-linejoin:miter;stroke-opacity:1"/>
<path class="bond-7 atom-7 atom-8" d="M 558.9,121.1 L 589.6,138.7" style="fill:none;fill-rule:evenodd;stroke:#000000;stroke-width:2.0px;stroke-linecap:butt;stroke-linejoin:miter;stroke-opacity:1"/>
<path class="bond-7 atom-7 atom-8" d="M 589.6,138.7 L 620.3,156.2" style="fill:none;fill-rule:evenodd;stroke:#FF0000;stroke-width:2.0px;stroke-linecap:butt;stroke-linejoin:miter;stroke-opacity:1"/>
<path class="bond-8 atom-8 atom-9" d="M 648.7,156.0 L 679.1,138.3" style="fill:none;fill-rule:evenodd;stroke:#FF0000;stroke-width:2.0px;stroke-linecap:butt;stroke-linejoin:miter;stroke-opacity:1"/>
<path class="bond-8 atom-8 atom-9" d="M 679.1,138.3 L 709.6,120.5" style="fill:none;fill-rule:evenodd;stroke:#000000;stroke-width:2.0px;stroke-linecap:butt;stroke-linejoin:miter;stroke-opacity:1"/>
<path class="bond-9 atom-9 atom-10" d="M 716.2,124.2 L 716.0,86.7" style="fill:none;fill-rule:evenodd;stroke:#000000;stroke-width:2.0px;stroke-linecap:butt;stroke-linejoin:miter;stroke-opacity:1"/>
<path class="bond-9 atom-9 atom-10" d="M 716.0,86.7 L 715.9,49.2" style="fill:none;fill-rule:evenodd;stroke:#FF0000;stroke-width:2.0px;stroke-linecap:butt;stroke-linejoin:miter;stroke-opacity:1"/>
<path class="bond-9 atom-9 atom-10" d="M 703.1,124.3 L 703.0,86.8" style="fill:none;fill-rule:evenodd;stroke:#000000;stroke-width:2.0px;stroke-linecap:butt;stroke-linejoin:miter;stroke-opacity:1"/>
<path class="bond-9 atom-9 atom-10" d="M 703.0,86.8 L 702.8,49.2" style="fill:none;fill-rule:evenodd;stroke:#FF0000;stroke-width:2.0px;stroke-linecap:butt;stroke-linejoin:miter;stroke-opacity:1"/>
<path class="bond-10 atom-9 atom-11" d="M 709.6,120.5 L 785.2,163.7" style="fill:none;fill-rule:evenodd;stroke:#000000;stroke-width:2.0px;stroke-linecap:butt;stroke-linejoin:miter;stroke-opacity:1"/>
<path class="bond-11 atom-11 atom-12" d="M 785.2,163.7 L 785.6,250.7" style="fill:none;fill-rule:evenodd;stroke:#000000;stroke-width:2.0px;stroke-linecap:butt;stroke-linejoin:miter;stroke-opacity:1"/>
<path class="bond-11 atom-11 atom-12" d="M 798.3,171.2 L 798.6,243.1" style="fill:none;fill-rule:evenodd;stroke:#000000;stroke-width:2.0px;stroke-linecap:butt;stroke-linejoin:miter;stroke-opacity:1"/>
<path class="bond-12 atom-12 atom-13" d="M 785.6,250.7 L 861.1,293.9" style="fill:none;fill-rule:evenodd;stroke:#000000;stroke-width:2.0px;stroke-linecap:butt;stroke-linejoin:miter;stroke-opacity:1"/>
<path class="bond-13 atom-13 atom-14" d="M 861.1,293.9 L 936.3,250.0" style="fill:none;fill-rule:evenodd;stroke:#000000;stroke-width:2.0px;stroke-linecap:butt;stroke-linejoin:miter;stroke-opacity:1"/>
<path class="bond-13 atom-13 atom-14" d="M 861.0,278.8 L 923.2,242.6" style="fill:none;fill-rule:evenodd;stroke:#000000;stroke-width:2.0px;stroke-linecap:butt;stroke-linejoin:miter;stroke-opacity:1"/>
<path class="bond-14 atom-14 atom-15" d="M 936.3,250.0 L 1011.8,293.2" style="fill:none;fill-rule:evenodd;stroke:#000000;stroke-width:2.0px;stroke-linecap:butt;stroke-linejoin:miter;stroke-opacity:1"/>
<path class="bond-15 atom-15 atom-16" d="M 1011.8,293.2 L 1012.0,329.0" style="fill:none;fill-rule:evenodd;stroke:#000000;stroke-width:2.0px;stroke-linecap:butt;stroke-linejoin:miter;stroke-opacity:1"/>
<path class="bond-15 atom-15 atom-16" d="M 1012.0,329.0 L 1012.1,364.8" style="fill:none;fill-rule:evenodd;stroke:#191919;stroke-width:2.0px;stroke-linecap:butt;stroke-linejoin:miter;stroke-opacity:1"/>
<path class="bond-16 atom-15 atom-17" d="M 1011.8,300.8 L 1043.9,282.0" style="fill:none;fill-rule:evenodd;stroke:#000000;stroke-width:2.0px;stroke-linecap:butt;stroke-linejoin:miter;stroke-opacity:1"/>
<path class="bond-16 atom-15 atom-17" d="M 1043.9,282.0 L 1076.1,263.3" style="fill:none;fill-rule:evenodd;stroke:#FF0000;stroke-width:2.0px;stroke-linecap:butt;stroke-linejoin:miter;stroke-opacity:1"/>
<path class="bond-16 atom-15 atom-17" d="M 1005.3,289.5 L 1037.4,270.8" style="fill:none;fill-rule:evenodd;stroke:#000000;stroke-width:2.0px;stroke-linecap:butt;stroke-linejoin:miter;stroke-opacity:1"/>
<path class="bond-16 atom-15 atom-17" d="M 1037.4,270.8 L 1069.5,252.0" style="fill:none;fill-rule:evenodd;stroke:#FF0000;stroke-width:2.0px;stroke-linecap:butt;stroke-linejoin:miter;stroke-opacity:1"/>
<path class="bond-17 atom-14 atom-18" d="M 936.3,250.0 L 935.9,163.0" style="fill:none;fill-rule:evenodd;stroke:#000000;stroke-width:2.0px;stroke-linecap:butt;stroke-linejoin:miter;stroke-opacity:1"/>
<path class="bond-18 atom-18 atom-19" d="M 935.9,163.0 L 860.3,119.8" style="fill:none;fill-rule:evenodd;stroke:#000000;stroke-width:2.0px;stroke-linecap:butt;stroke-linejoin:miter;stroke-opacity:1"/>
<path class="bond-18 atom-18 atom-19" d="M 922.9,170.6 L 860.4,134.9" style="fill:none;fill-rule:evenodd;stroke:#000000;stroke-width:2.0px;stroke-linecap:butt;stroke-linejoin:miter;stroke-opacity:1"/>
<path class="bond-19 atom-6 atom-20" d="M 483.8,165.0 L 484.1,252.0" style="fill:none;fill-rule:evenodd;stroke:#000000;stroke-width:2.0px;stroke-linecap:butt;stroke-linejoin:miter;stroke-opacity:1"/>
<path class="bond-20 atom-20 atom-21" d="M 484.1,252.0 L 409.0,295.8" style="fill:none;fill-rule:evenodd;stroke:#000000;stroke-width:2.0px;stroke-linecap:butt;stroke-linejoin:miter;stroke-opacity:1"/>
<path class="bond-21 atom-21 atom-3" d="M 409.0,295.8 L 333.4,252.6" style="fill:none;fill-rule:evenodd;stroke:#000000;stroke-width:2.0px;stroke-linecap:butt;stroke-linejoin:miter;stroke-opacity:1"/>
<path class="bond-22 atom-19 atom-11" d="M 860.3,119.8 L 785.2,163.7" style="fill:none;fill-rule:evenodd;stroke:#000000;stroke-width:2.0px;stroke-linecap:butt;stroke-linejoin:miter;stroke-opacity:1"/>
<path d="M 256.7,295.6 L 258.3,296.4 L 262.0,294.3" style="fill:none;stroke:#000000;stroke-width:2.0px;stroke-linecap:butt;stroke-linejoin:miter;stroke-opacity:1;"/>
<path d="M 333.1,170.0 L 333.1,165.6 L 336.8,163.4" style="fill:none;stroke:#000000;stroke-width:2.0px;stroke-linecap:butt;stroke-linejoin:miter;stroke-opacity:1;"/>
<path d="M 404.5,124.0 L 408.2,121.8 L 412.0,123.9" style="fill:none;stroke:#000000;stroke-width:2.0px;stroke-linecap:butt;stroke-linejoin:miter;stroke-opacity:1;"/>
<path d="M 555.2,123.3 L 558.9,121.1 L 560.5,122.0" style="fill:none;stroke:#000000;stroke-width:2.0px;stroke-linecap:butt;stroke-linejoin:miter;stroke-opacity:1;"/>
<path d="M 708.1,121.4 L 709.6,120.5 L 713.4,122.6" style="fill:none;stroke:#000000;stroke-width:2.0px;stroke-linecap:butt;stroke-linejoin:miter;stroke-opacity:1;"/>
<path d="M 785.5,246.3 L 785.6,250.7 L 789.3,252.8" style="fill:none;stroke:#000000;stroke-width:2.0px;stroke-linecap:butt;stroke-linejoin:miter;stroke-opacity:1;"/>
<path d="M 857.3,291.7 L 861.1,293.9 L 864.8,291.7" style="fill:none;stroke:#000000;stroke-width:2.0px;stroke-linecap:butt;stroke-linejoin:miter;stroke-opacity:1;"/>
<path d="M 1008.0,291.1 L 1011.8,293.2 L 1011.8,295.0" style="fill:none;stroke:#000000;stroke-width:2.0px;stroke-linecap:butt;stroke-linejoin:miter;stroke-opacity:1;"/>
<path d="M 935.9,167.4 L 935.9,163.0 L 932.1,160.9" style="fill:none;stroke:#000000;stroke-width:2.0px;stroke-linecap:butt;stroke-linejoin:miter;stroke-opacity:1;"/>
<path d="M 864.1,122.0 L 860.3,119.8 L 856.6,122.0" style="fill:none;stroke:#000000;stroke-width:2.0px;stroke-linecap:butt;stroke-linejoin:miter;stroke-opacity:1;"/>
<path d="M 484.1,247.6 L 484.1,252.0 L 480.4,254.2" style="fill:none;stroke:#000000;stroke-width:2.0px;stroke-linecap:butt;stroke-linejoin:miter;stroke-opacity:1;"/>
<path d="M 412.7,293.6 L 409.0,295.8 L 405.2,293.6" style="fill:none;stroke:#000000;stroke-width:2.0px;stroke-linecap:butt;stroke-linejoin:miter;stroke-opacity:1;"/>
<path class="atom-0" d="M 102.9 294.3 L 106.5 290.6 L 101.7 289.7 L 102.5 287.2 L 106.9 289.4 L 106.2 284.6 L 108.9 284.6 L 108.1 289.4 L 112.6 287.3 L 113.4 289.7 L 108.5 290.6 L 112.0 294.3 L 109.9 295.8 L 107.5 291.2 L 105.0 295.8 L 102.9 294.3 " fill="#191919"/>
<path class="atom-1" d="M 171.4 253.3 Q 171.4 247.4, 174.3 244.1 Q 177.3 240.8, 182.7 240.8 Q 188.2 240.8, 191.1 244.1 Q 194.0 247.4, 194.0 253.3 Q 194.0 259.3, 191.1 262.7 Q 188.1 266.1, 182.7 266.1 Q 177.3 266.1, 174.3 262.7 Q 171.4 259.3, 171.4 253.3 M 182.7 263.3 Q 186.5 263.3, 188.5 260.8 Q 190.6 258.3, 190.6 253.3 Q 190.6 248.5, 188.5 246.1 Q 186.5 243.6, 182.7 243.6 Q 179.0 243.6, 176.9 246.0 Q 174.9 248.5, 174.9 253.3 Q 174.9 258.3, 176.9 260.8 Q 179.0 263.3, 182.7 263.3 " fill="#FF0000"/>
<path class="atom-8" d="M 623.2 164.4 Q 623.2 158.5, 626.1 155.2 Q 629.0 151.9, 634.5 151.9 Q 639.9 151.9, 642.9 155.2 Q 645.8 158.5, 645.8 164.4 Q 645.8 170.4, 642.8 173.8 Q 639.9 177.2, 634.5 177.2 Q 629.0 177.2, 626.1 173.8 Q 623.2 170.4, 623.2 164.4 M 634.5 174.4 Q 638.2 174.4, 640.2 171.9 Q 642.3 169.3, 642.3 164.4 Q 642.3 159.5, 640.2 157.1 Q 638.2 154.6, 634.5 154.6 Q 630.7 154.6, 628.7 157.1 Q 626.6 159.5, 626.6 164.4 Q 626.6 169.4, 628.7 171.9 Q 630.7 174.4, 634.5 174.4 " fill="#FF0000"/>
<path class="atom-10" d="M 698.0 33.5 Q 698.0 27.6, 700.9 24.3 Q 703.8 21.0, 709.3 21.0 Q 714.7 21.0, 717.7 24.3 Q 720.6 27.6, 720.6 33.5 Q 720.6 39.5, 717.6 42.9 Q 714.7 46.3, 709.3 46.3 Q 703.8 46.3, 700.9 42.9 Q 698.0 39.6, 698.0 33.5 M 709.3 43.5 Q 713.0 43.5, 715.0 41.0 Q 717.1 38.5, 717.1 33.5 Q 717.1 28.7, 715.0 26.3 Q 713.0 23.8, 709.3 23.8 Q 705.5 23.8, 703.5 26.2 Q 701.4 28.7, 701.4 33.5 Q 701.4 38.5, 703.5 41.0 Q 705.5 43.5, 709.3 43.5 " fill="#FF0000"/>
<path class="atom-16" d="M 1007.5 377.5 L 1011.1 373.8 L 1006.3 372.8 L 1007.1 370.4 L 1011.5 372.6 L 1010.9 367.7 L 1013.5 367.7 L 1012.7 372.5 L 1017.2 370.5 L 1018.0 372.8 L 1013.1 373.7 L 1016.6 377.5 L 1014.5 379.0 L 1012.1 374.4 L 1009.6 379.0 L 1007.5 377.5 " fill="#191919"/>
<path class="atom-17" d="M 1075.7 249.5 Q 1075.7 243.5, 1078.6 240.2 Q 1081.5 236.9, 1087.0 236.9 Q 1092.4 236.9, 1095.4 240.2 Q 1098.3 243.5, 1098.3 249.5 Q 1098.3 255.5, 1095.3 258.9 Q 1092.4 262.2, 1087.0 262.2 Q 1081.5 262.2, 1078.6 258.9 Q 1075.7 255.5, 1075.7 249.5 M 1087.0 259.5 Q 1090.7 259.5, 1092.7 256.9 Q 1094.8 254.4, 1094.8 249.5 Q 1094.8 244.6, 1092.7 242.2 Q 1090.7 239.7, 1087.0 239.7 Q 1083.2 239.7, 1081.2 242.2 Q 1079.1 244.6, 1079.1 249.5 Q 1079.1 254.4, 1081.2 256.9 Q 1083.2 259.5, 1087.0 259.5 " fill="#FF0000"/>
<path class="bond-0 atom-0 atom-1" d="M 74.5,650.2 L 103.1,638.1" style="fill:none;fill-rule:evenodd;stroke:#191919;stroke-width:2.0px;stroke-linecap:butt;stroke-linejoin:miter;stroke-opacity:1"/>
<path class="bond-0 atom-0 atom-1" d="M 103.1,638.1 L 131.8,626.0" style="fill:none;fill-rule:evenodd;stroke:#FF0000;stroke-width:2.0px;stroke-linecap:butt;stroke-linejoin:miter;stroke-opacity:1"/>
<path class="bond-1 atom-1 atom-2" d="M 160.1,630.7 L 187.8,651.5" style="fill:none;fill-rule:evenodd;stroke:#FF0000;stroke-width:2.0px;stroke-linecap:butt;stroke-linejoin:miter;stroke-opacity:1"/>
<path class="bond-1 atom-1 atom-2" d="M 187.8,651.5 L 215.4,672.4" style="fill:none;fill-rule:evenodd;stroke:#000000;stroke-width:2.0px;stroke-linecap:butt;stroke-linejoin:miter;stroke-opacity:1"/>
<path class="bond-2 atom-2 atom-3" d="M 215.4,672.4 L 295.5,638.4" style="fill:none;fill-rule:evenodd;stroke:#000000;stroke-width:2.0px;stroke-linecap:butt;stroke-linejoin:miter;stroke-opacity:1"/>
<path class="bond-3 atom-3 atom-4" d="M 295.5,638.4 L 306.2,552.1" style="fill:none;fill-rule:evenodd;stroke:#000000;stroke-width:2.0px;stroke-linecap:butt;stroke-linejoin:miter;stroke-opacity:1"/>
<path class="bond-4 atom-4 atom-5" d="M 306.2,552.1 L 386.3,518.1" style="fill:none;fill-rule:evenodd;stroke:#000000;stroke-width:2.0px;stroke-linecap:butt;stroke-linejoin:miter;stroke-opacity:1"/>
<path class="bond-5 atom-5 atom-6" d="M 386.3,518.1 L 455.8,570.6" style="fill:none;fill-rule:evenodd;stroke:#000000;stroke-width:2.0px;stroke-linecap:butt;stroke-linejoin:miter;stroke-opacity:1"/>
<path class="bond-6 atom-6 atom-7" d="M 455.8,570.6 L 535.9,536.6" style="fill:none;fill-rule:evenodd;stroke:#000000;stroke-width:2.0px;stroke-linecap:butt;stroke-linejoin:miter;stroke-opacity:1"/>
<path class="bond-7 atom-7 atom-8" d="M 535.9,536.6 L 563.5,557.5" style="fill:none;fill-rule:evenodd;stroke:#000000;stroke-width:2.0px;stroke-linecap:butt;stroke-linejoin:miter;stroke-opacity:1"/>
<path class="bond-7 atom-7 atom-8" d="M 563.5,557.5 L 591.2,578.3" style="fill:none;fill-rule:evenodd;stroke:#FF0000;stroke-width:2.0px;stroke-linecap:butt;stroke-linejoin:miter;stroke-opacity:1"/>
<path class="bond-8 atom-8 atom-9" d="M 619.5,583.0 L 652.5,569.1" style="fill:none;fill-rule:evenodd;stroke:#FF0000;stroke-width:2.0px;stroke-linecap:butt;stroke-linejoin:miter;stroke-opacity:1"/>
<path class="bond-8 atom-8 atom-9" d="M 652.5,569.1 L 685.5,555.1" style="fill:none;fill-rule:evenodd;stroke:#000000;stroke-width:2.0px;stroke-linecap:butt;stroke-linejoin:miter;stroke-opacity:1"/>
<path class="bond-9 atom-9 atom-10" d="M 691.5,559.7 L 696.1,522.5" style="fill:none;fill-rule:evenodd;stroke:#000000;stroke-width:2.0px;stroke-linecap:butt;stroke-linejoin:miter;stroke-opacity:1"/>
<path class="bond-9 atom-9 atom-10" d="M 696.1,522.5 L 700.7,485.3" style="fill:none;fill-rule:evenodd;stroke:#FF0000;stroke-width:2.0px;stroke-linecap:butt;stroke-linejoin:miter;stroke-opacity:1"/>
<path class="bond-9 atom-9 atom-10" d="M 678.5,558.1 L 683.1,520.9" style="fill:none;fill-rule:evenodd;stroke:#000000;stroke-width:2.0px;stroke-linecap:butt;stroke-linejoin:miter;stroke-opacity:1"/>
<path class="bond-9 atom-9 atom-10" d="M 683.1,520.9 L 687.7,483.7" style="fill:none;fill-rule:evenodd;stroke:#FF0000;stroke-width:2.0px;stroke-linecap:butt;stroke-linejoin:miter;stroke-opacity:1"/>
<path class="bond-10 atom-9 atom-11" d="M 685.5,555.1 L 754.9,607.5" style="fill:none;fill-rule:evenodd;stroke:#000000;stroke-width:2.0px;stroke-linecap:butt;stroke-linejoin:miter;stroke-opacity:1"/>
<path class="bond-11 atom-11 atom-12" d="M 754.9,607.5 L 835.0,573.6" style="fill:none;fill-rule:evenodd;stroke:#000000;stroke-width:2.0px;stroke-linecap:butt;stroke-linejoin:miter;stroke-opacity:1"/>
<path class="bond-12 atom-12 atom-13" d="M 835.0,573.6 L 904.5,626.0" style="fill:none;fill-rule:evenodd;stroke:#000000;stroke-width:2.0px;stroke-linecap:butt;stroke-linejoin:miter;stroke-opacity:1"/>
<path class="bond-13 atom-13 atom-14" d="M 904.5,626.0 L 984.6,592.1" style="fill:none;fill-rule:evenodd;stroke:#000000;stroke-width:2.0px;stroke-linecap:butt;stroke-linejoin:miter;stroke-opacity:1"/>
<path class="bond-14 atom-14 atom-15" d="M 984.6,592.1 L 1054.0,644.5" style="fill:none;fill-rule:evenodd;stroke:#000000;stroke-width:2.0px;stroke-linecap:butt;stroke-linejoin:miter;stroke-opacity:1"/>
<path class="bond-15 atom-15 atom-16" d="M 1054.0,644.5 L 1092.2,628.3" style="fill:none;fill-rule:evenodd;stroke:#000000;stroke-width:2.0px;stroke-linecap:butt;stroke-linejoin:miter;stroke-opacity:1"/>
<path class="bond-15 atom-15 atom-16" d="M 1092.2,628.3 L 1130.3,612.2" style="fill:none;fill-rule:evenodd;stroke:#191919;stroke-width:2.0px;stroke-linecap:butt;stroke-linejoin:miter;stroke-opacity:1"/>
<path class="bond-16 atom-15 atom-17" d="M 1048.0,640.0 L 1043.4,677.3" style="fill:none;fill-rule:evenodd;stroke:#000000;stroke-width:2.0px;stroke-linecap:butt;stroke-linejoin:miter;stroke-opacity:1"/>
<path class="bond-16 atom-15 atom-17" d="M 1043.4,677.3 L 1038.8,714.7" style="fill:none;fill-rule:evenodd;stroke:#FF0000;stroke-width:2.0px;stroke-linecap:butt;stroke-linejoin:miter;stroke-opacity:1"/>
<path class="bond-16 atom-15 atom-17" d="M 1061.0,641.6 L 1056.4,678.9" style="fill:none;fill-rule:evenodd;stroke:#000000;stroke-width:2.0px;stroke-linecap:butt;stroke-linejoin:miter;stroke-opacity:1"/>
<path class="bond-16 atom-15 atom-17" d="M 1056.4,678.9 L 1051.7,716.3" style="fill:none;fill-rule:evenodd;stroke:#FF0000;stroke-width:2.0px;stroke-linecap:butt;stroke-linejoin:miter;stroke-opacity:1"/>
<path class="bond-17 atom-6 atom-18" d="M 455.8,570.6 L 445.1,656.9" style="fill:none;fill-rule:evenodd;stroke:#000000;stroke-width:2.0px;stroke-linecap:butt;stroke-linejoin:miter;stroke-opacity:1"/>
<path class="bond-18 atom-18 atom-19" d="M 445.1,656.9 L 365.0,690.9" style="fill:none;fill-rule:evenodd;stroke:#000000;stroke-width:2.0px;stroke-linecap:butt;stroke-linejoin:miter;stroke-opacity:1"/>
<path class="bond-19 atom-19 atom-3" d="M 365.0,690.9 L 295.5,638.4" style="fill:none;fill-rule:evenodd;stroke:#000000;stroke-width:2.0px;stroke-linecap:butt;stroke-linejoin:miter;stroke-opacity:1"/>
<path d="M 214.0,671.3 L 215.4,672.4 L 219.4,670.7" style="fill:none;stroke:#000000;stroke-width:2.0px;stroke-linecap:butt;stroke-linejoin:miter;stroke-opacity:1;"/>
<path d="M 305.7,556.4 L 306.2,552.1 L 310.2,550.4" style="fill:none;stroke:#000000;stroke-width:2.0px;stroke-linecap:butt;stroke-linejoin:miter;stroke-opacity:1;"/>
<path d="M 382.3,519.8 L 386.3,518.1 L 389.8,520.8" style="fill:none;stroke:#000000;stroke-width:2.0px;stroke-linecap:butt;stroke-linejoin:miter;stroke-opacity:1;"/>
<path d="M 531.9,538.3 L 535.9,536.6 L 537.3,537.7" style="fill:none;stroke:#000000;stroke-width:2.0px;stroke-linecap:butt;stroke-linejoin:miter;stroke-opacity:1;"/>
<path d="M 683.8,555.8 L 685.5,555.1 L 688.9,557.7" style="fill:none;stroke:#000000;stroke-width:2.0px;stroke-linecap:butt;stroke-linejoin:miter;stroke-opacity:1;"/>
<path d="M 751.4,604.9 L 754.9,607.5 L 758.9,605.8" style="fill:none;stroke:#000000;stroke-width:2.0px;stroke-linecap:butt;stroke-linejoin:miter;stroke-opacity:1;"/>
<path d="M 831.0,575.3 L 835.0,573.6 L 838.5,576.2" style="fill:none;stroke:#000000;stroke-width:2.0px;stroke-linecap:butt;stroke-linejoin:miter;stroke-opacity:1;"/>
<path d="M 901.0,623.4 L 904.5,626.0 L 908.5,624.3" style="fill:none;stroke:#000000;stroke-width:2.0px;stroke-linecap:butt;stroke-linejoin:miter;stroke-opacity:1;"/>
<path d="M 980.6,593.8 L 984.6,592.1 L 988.1,594.7" style="fill:none;stroke:#000000;stroke-width:2.0px;stroke-linecap:butt;stroke-linejoin:miter;stroke-opacity:1;"/>
<path d="M 1050.6,641.9 L 1054.0,644.5 L 1056.0,643.7" style="fill:none;stroke:#000000;stroke-width:2.0px;stroke-linecap:butt;stroke-linejoin:miter;stroke-opacity:1;"/>
<path d="M 445.6,652.6 L 445.1,656.9 L 441.1,658.6" style="fill:none;stroke:#000000;stroke-width:2.0px;stroke-linecap:butt;stroke-linejoin:miter;stroke-opacity:1;"/>
<path d="M 369.0,689.2 L 365.0,690.9 L 361.5,688.2" style="fill:none;stroke:#000000;stroke-width:2.0px;stroke-linecap:butt;stroke-linejoin:miter;stroke-opacity:1;"/>
<path class="atom-0" d="M 61.2 651.1 L 64.8 647.4 L 60.0 646.5 L 60.7 644.0 L 65.2 646.2 L 64.5 641.4 L 67.1 641.4 L 66.4 646.2 L 70.9 644.1 L 71.7 646.5 L 66.8 647.4 L 70.3 651.1 L 68.1 652.6 L 65.7 648.0 L 63.3 652.6 L 61.2 651.1 " fill="#191919"/>
<path class="atom-1" d="M 134.6 620.0 Q 134.6 614.1, 137.6 610.8 Q 140.5 607.5, 146.0 607.5 Q 151.4 607.5, 154.3 610.8 Q 157.3 614.1, 157.3 620.0 Q 157.3 626.0, 154.3 629.4 Q 151.3 632.8, 146.0 632.8 Q 140.5 632.8, 137.6 629.4 Q 134.6 626.0, 134.6 620.0 M 146.0 630.0 Q 149.7 630.0, 151.7 627.5 Q 153.8 625.0, 153.8 620.0 Q 153.8 615.2, 151.7 612.7 Q 149.7 610.3, 146.0 610.3 Q 142.2 610.3, 140.1 612.7 Q 138.1 615.1, 138.1 620.0 Q 138.1 625.0, 140.1 627.5 Q 142.2 630.0, 146.0 630.0 " fill="#FF0000"/>
<path class="atom-8" d="M 594.0 589.1 Q 594.0 583.2, 596.9 579.9 Q 599.9 576.6, 605.3 576.6 Q 610.8 576.6, 613.7 579.9 Q 616.6 583.2, 616.6 589.1 Q 616.6 595.1, 613.7 598.5 Q 610.7 601.9, 605.3 601.9 Q 599.9 601.9, 596.9 598.5 Q 594.0 595.1, 594.0 589.1 M 605.3 599.1 Q 609.1 599.1, 611.1 596.6 Q 613.2 594.1, 613.2 589.1 Q 613.2 584.3, 611.1 581.8 Q 609.1 579.4, 605.3 579.4 Q 601.6 579.4, 599.5 581.8 Q 597.5 584.2, 597.5 589.1 Q 597.5 594.1, 599.5 596.6 Q 601.6 599.1, 605.3 599.1 " fill="#FF0000"/>
<path class="atom-10" d="M 684.8 468.8 Q 684.8 462.9, 687.7 459.6 Q 690.7 456.3, 696.1 456.3 Q 701.6 456.3, 704.5 459.6 Q 707.4 462.9, 707.4 468.8 Q 707.4 474.8, 704.5 478.2 Q 701.5 481.6, 696.1 481.6 Q 690.7 481.6, 687.7 478.2 Q 684.8 474.8, 684.8 468.8 M 696.1 478.8 Q 699.9 478.8, 701.9 476.3 Q 704.0 473.8, 704.0 468.8 Q 704.0 464.0, 701.9 461.6 Q 699.9 459.1, 696.1 459.1 Q 692.4 459.1, 690.3 461.5 Q 688.3 464.0, 688.3 468.8 Q 688.3 473.8, 690.3 476.3 Q 692.4 478.8, 696.1 478.8 " fill="#FF0000"/>
<path class="atom-16" d="M 1129.5 607.8 L 1133.1 604.1 L 1128.3 603.2 L 1129.1 600.7 L 1133.5 602.9 L 1132.9 598.1 L 1135.5 598.0 L 1134.7 602.9 L 1139.2 600.8 L 1140.0 603.2 L 1135.1 604.1 L 1138.6 607.8 L 1136.5 609.3 L 1134.1 604.7 L 1131.6 609.3 L 1129.5 607.8 " fill="#191919"/>
<path class="atom-17" d="M 1032.1 730.9 Q 1032.1 725.0, 1035.0 721.7 Q 1037.9 718.4, 1043.4 718.4 Q 1048.8 718.4, 1051.8 721.7 Q 1054.7 725.0, 1054.7 730.9 Q 1054.7 736.9, 1051.7 740.3 Q 1048.8 743.7, 1043.4 743.7 Q 1037.9 743.7, 1035.0 740.3 Q 1032.1 736.9, 1032.1 730.9 M 1043.4 740.9 Q 1047.1 740.9, 1049.2 738.4 Q 1051.2 735.9, 1051.2 730.9 Q 1051.2 726.1, 1049.2 723.7 Q 1047.1 721.2, 1043.4 721.2 Q 1039.6 721.2, 1037.6 723.6 Q 1035.5 726.1, 1035.5 730.9 Q 1035.5 735.9, 1037.6 738.4 Q 1039.6 740.9, 1043.4 740.9 " fill="#FF0000"/>
<path class="bond-0 atom-0 atom-1" d="M 149.4,920.6 L 174.5,942.0" style="fill:none;fill-rule:evenodd;stroke:#191919;stroke-width:2.0px;stroke-linecap:butt;stroke-linejoin:miter;stroke-opacity:1"/>
<path class="bond-0 atom-0 atom-1" d="M 174.5,942.0 L 199.5,963.4" style="fill:none;fill-rule:evenodd;stroke:#FF0000;stroke-width:2.0px;stroke-linecap:butt;stroke-linejoin:miter;stroke-opacity:1"/>
<path class="bond-1 atom-1 atom-2" d="M 227.9,970.5 L 261.8,958.5" style="fill:none;fill-rule:evenodd;stroke:#FF0000;stroke-width:2.0px;stroke-linecap:butt;stroke-linejoin:miter;stroke-opacity:1"/>
<path class="bond-1 atom-1 atom-2" d="M 261.8,958.5 L 295.7,946.4" style="fill:none;fill-rule:evenodd;stroke:#000000;stroke-width:2.0px;stroke-linecap:butt;stroke-linejoin:miter;stroke-opacity:1"/>
<path class="bond-2 atom-2 atom-3" d="M 295.7,946.4 L 361.9,1003.0" style="fill:none;fill-rule:evenodd;stroke:#000000;stroke-width:2.0px;stroke-linecap:butt;stroke-linejoin:miter;stroke-opacity:1"/>
<path class="bond-3 atom-3 atom-4" d="M 361.9,1003.0 L 443.9,973.9" style="fill:none;fill-rule:evenodd;stroke:#000000;stroke-width:2.0px;stroke-linecap:butt;stroke-linejoin:miter;stroke-opacity:1"/>
<path class="bond-4 atom-4 atom-5" d="M 443.9,973.9 L 510.0,1030.4" style="fill:none;fill-rule:evenodd;stroke:#000000;stroke-width:2.0px;stroke-linecap:butt;stroke-linejoin:miter;stroke-opacity:1"/>
<path class="bond-5 atom-5 atom-6" d="M 510.0,1030.4 L 544.0,1018.4" style="fill:none;fill-rule:evenodd;stroke:#000000;stroke-width:2.0px;stroke-linecap:butt;stroke-linejoin:miter;stroke-opacity:1"/>
<path class="bond-5 atom-5 atom-6" d="M 544.0,1018.4 L 577.9,1006.4" style="fill:none;fill-rule:evenodd;stroke:#FF0000;stroke-width:2.0px;stroke-linecap:butt;stroke-linejoin:miter;stroke-opacity:1"/>
<path class="bond-6 atom-6 atom-7" d="M 606.3,1013.5 L 632.2,1035.7" style="fill:none;fill-rule:evenodd;stroke:#FF0000;stroke-width:2.0px;stroke-linecap:butt;stroke-linejoin:miter;stroke-opacity:1"/>
<path class="bond-6 atom-6 atom-7" d="M 632.2,1035.7 L 658.2,1057.9" style="fill:none;fill-rule:evenodd;stroke:#000000;stroke-width:2.0px;stroke-linecap:butt;stroke-linejoin:miter;stroke-opacity:1"/>
<path class="bond-7 atom-7 atom-8" d="M 652.5,1053.0 L 645.7,1090.0" style="fill:none;fill-rule:evenodd;stroke:#000000;stroke-width:2.0px;stroke-linecap:butt;stroke-linejoin:miter;stroke-opacity:1"/>
<path class="bond-7 atom-7 atom-8" d="M 645.7,1090.0 L 638.8,1126.9" style="fill:none;fill-rule:evenodd;stroke:#FF0000;stroke-width:2.0px;stroke-linecap:butt;stroke-linejoin:miter;stroke-opacity:1"/>
<path class="bond-7 atom-7 atom-8" d="M 665.3,1055.4 L 658.5,1092.3" style="fill:none;fill-rule:evenodd;stroke:#000000;stroke-width:2.0px;stroke-linecap:butt;stroke-linejoin:miter;stroke-opacity:1"/>
<path class="bond-7 atom-7 atom-8" d="M 658.5,1092.3 L 651.6,1129.3" style="fill:none;fill-rule:evenodd;stroke:#FF0000;stroke-width:2.0px;stroke-linecap:butt;stroke-linejoin:miter;stroke-opacity:1"/>
<path class="bond-8 atom-7 atom-9" d="M 658.2,1057.9 L 740.3,1028.9" style="fill:none;fill-rule:evenodd;stroke:#000000;stroke-width:2.0px;stroke-linecap:butt;stroke-linejoin:miter;stroke-opacity:1"/>
<path class="bond-9 atom-9 atom-10" d="M 740.3,1028.9 L 756.1,943.3" style="fill:none;fill-rule:evenodd;stroke:#000000;stroke-width:2.0px;stroke-linecap:butt;stroke-linejoin:miter;stroke-opacity:1"/>
<path class="bond-9 atom-9 atom-10" d="M 754.5,1023.8 L 767.6,953.1" style="fill:none;fill-rule:evenodd;stroke:#000000;stroke-width:2.0px;stroke-linecap:butt;stroke-linejoin:miter;stroke-opacity:1"/>
<path class="bond-10 atom-10 atom-11" d="M 756.1,943.3 L 838.1,914.3" style="fill:none;fill-rule:evenodd;stroke:#000000;stroke-width:2.0px;stroke-linecap:butt;stroke-linejoin:miter;stroke-opacity:1"/>
<path class="bond-11 atom-11 atom-12" d="M 838.1,914.3 L 904.3,970.8" style="fill:none;fill-rule:evenodd;stroke:#000000;stroke-width:2.0px;stroke-linecap:butt;stroke-linejoin:miter;stroke-opacity:1"/>
<path class="bond-11 atom-11 atom-12" d="M 835.4,929.1 L 890.1,975.8" style="fill:none;fill-rule:evenodd;stroke:#000000;stroke-width:2.0px;stroke-linecap:butt;stroke-linejoin:miter;stroke-opacity:1"/>
<path class="bond-12 atom-12 atom-13" d="M 904.3,970.8 L 986.3,941.7" style="fill:none;fill-rule:evenodd;stroke:#000000;stroke-width:2.0px;stroke-linecap:butt;stroke-linejoin:miter;stroke-opacity:1"/>
<path class="bond-13 atom-13 atom-14" d="M 986.3,941.7 L 1015.1,966.3" style="fill:none;fill-rule:evenodd;stroke:#000000;stroke-width:2.0px;stroke-linecap:butt;stroke-linejoin:miter;stroke-opacity:1"/>
<path class="bond-13 atom-13 atom-14" d="M 1015.1,966.3 L 1043.8,990.8" style="fill:none;fill-rule:evenodd;stroke:#191919;stroke-width:2.0px;stroke-linecap:butt;stroke-linejoin:miter;stroke-opacity:1"/>
<path class="bond-14 atom-13 atom-15" d="M 992.0,946.6 L 998.9,909.8" style="fill:none;fill-rule:evenodd;stroke:#000000;stroke-width:2.0px;stroke-linecap:butt;stroke-linejoin:miter;stroke-opacity:1"/>
<path class="bond-14 atom-13 atom-15" d="M 998.9,909.8 L 1005.7,873.1" style="fill:none;fill-rule:evenodd;stroke:#FF0000;stroke-width:2.0px;stroke-linecap:butt;stroke-linejoin:miter;stroke-opacity:1"/>
<path class="bond-14 atom-13 atom-15" d="M 979.2,944.2 L 986.0,907.5" style="fill:none;fill-rule:evenodd;stroke:#000000;stroke-width:2.0px;stroke-linecap:butt;stroke-linejoin:miter;stroke-opacity:1"/>
<path class="bond-14 atom-13 atom-15" d="M 986.0,907.5 L 992.9,870.7" style="fill:none;fill-rule:evenodd;stroke:#FF0000;stroke-width:2.0px;stroke-linecap:butt;stroke-linejoin:miter;stroke-opacity:1"/>
<path class="bond-15 atom-12 atom-16" d="M 904.3,970.8 L 888.4,1056.3" style="fill:none;fill-rule:evenodd;stroke:#000000;stroke-width:2.0px;stroke-linecap:butt;stroke-linejoin:miter;stroke-opacity:1"/>
<path class="bond-16 atom-16 atom-17" d="M 888.4,1056.3 L 806.4,1085.4" style="fill:none;fill-rule:evenodd;stroke:#000000;stroke-width:2.0px;stroke-linecap:butt;stroke-linejoin:miter;stroke-opacity:1"/>
<path class="bond-16 atom-16 atom-17" d="M 877.0,1046.5 L 809.2,1070.5" style="fill:none;fill-rule:evenodd;stroke:#000000;stroke-width:2.0px;stroke-linecap:butt;stroke-linejoin:miter;stroke-opacity:1"/>
<path class="bond-17 atom-17 atom-9" d="M 806.4,1085.4 L 740.3,1028.9" style="fill:none;fill-rule:evenodd;stroke:#000000;stroke-width:2.0px;stroke-linecap:butt;stroke-linejoin:miter;stroke-opacity:1"/>
<path d="M 294.0,947.0 L 295.7,946.4 L 299.0,949.3" style="fill:none;stroke:#000000;stroke-width:2.0px;stroke-linecap:butt;stroke-linejoin:miter;stroke-opacity:1;"/>
<path d="M 358.6,1000.1 L 361.9,1003.0 L 366.0,1001.5" style="fill:none;stroke:#000000;stroke-width:2.0px;stroke-linecap:butt;stroke-linejoin:miter;stroke-opacity:1;"/>
<path d="M 439.8,975.4 L 443.9,973.9 L 447.2,976.7" style="fill:none;stroke:#000000;stroke-width:2.0px;stroke-linecap:butt;stroke-linejoin:miter;stroke-opacity:1;"/>
<path d="M 506.7,1027.6 L 510.0,1030.4 L 511.7,1029.8" style="fill:none;stroke:#000000;stroke-width:2.0px;stroke-linecap:butt;stroke-linejoin:miter;stroke-opacity:1;"/>
<path d="M 656.9,1056.8 L 658.2,1057.9 L 662.3,1056.4" style="fill:none;stroke:#000000;stroke-width:2.0px;stroke-linecap:butt;stroke-linejoin:miter;stroke-opacity:1;"/>
<path d="M 755.3,947.6 L 756.1,943.3 L 760.2,941.8" style="fill:none;stroke:#000000;stroke-width:2.0px;stroke-linecap:butt;stroke-linejoin:miter;stroke-opacity:1;"/>
<path d="M 834.0,915.7 L 838.1,914.3 L 841.4,917.1" style="fill:none;stroke:#000000;stroke-width:2.0px;stroke-linecap:butt;stroke-linejoin:miter;stroke-opacity:1;"/>
<path d="M 982.2,943.2 L 986.3,941.7 L 987.8,943.0" style="fill:none;stroke:#000000;stroke-width:2.0px;stroke-linecap:butt;stroke-linejoin:miter;stroke-opacity:1;"/>
<path d="M 889.2,1052.0 L 888.4,1056.3 L 884.3,1057.8" style="fill:none;stroke:#000000;stroke-width:2.0px;stroke-linecap:butt;stroke-linejoin:miter;stroke-opacity:1;"/>
<path d="M 810.5,1083.9 L 806.4,1085.4 L 803.1,1082.5" style="fill:none;stroke:#000000;stroke-width:2.0px;stroke-linecap:butt;stroke-linejoin:miter;stroke-opacity:1;"/>
<path class="atom-0" d="M 142.9 916.2 L 146.5 912.5 L 141.7 911.6 L 142.4 909.1 L 146.8 911.3 L 146.2 906.5 L 148.8 906.4 L 148.1 911.3 L 152.6 909.2 L 153.3 911.6 L 148.5 912.5 L 152.0 916.2 L 149.8 917.7 L 147.4 913.1 L 145.0 917.7 L 142.9 916.2 " fill="#191919"/>
<path class="atom-1" d="M 202.4 975.6 Q 202.4 969.6, 205.3 966.3 Q 208.2 963.0, 213.7 963.0 Q 219.1 963.0, 222.1 966.3 Q 225.0 969.6, 225.0 975.6 Q 225.0 981.5, 222.0 984.9 Q 219.1 988.3, 213.7 988.3 Q 208.3 988.3, 205.3 984.9 Q 202.4 981.6, 202.4 975.6 M 213.7 985.5 Q 217.4 985.5, 219.5 983.0 Q 221.5 980.5, 221.5 975.6 Q 221.5 970.7, 219.5 968.3 Q 217.4 965.8, 213.7 965.8 Q 209.9 965.8, 207.9 968.2 Q 205.8 970.7, 205.8 975.6 Q 205.8 980.5, 207.9 983.0 Q 209.9 985.5, 213.7 985.5 " fill="#FF0000"/>
<path class="atom-6" d="M 580.8 1001.4 Q 580.8 995.5, 583.7 992.2 Q 586.6 988.9, 592.1 988.9 Q 597.5 988.9, 600.5 992.2 Q 603.4 995.5, 603.4 1001.4 Q 603.4 1007.4, 600.4 1010.8 Q 597.5 1014.2, 592.1 1014.2 Q 586.6 1014.2, 583.7 1010.8 Q 580.8 1007.5, 580.8 1001.4 M 592.1 1011.4 Q 595.8 1011.4, 597.8 1008.9 Q 599.9 1006.4, 599.9 1001.4 Q 599.9 996.6, 597.8 994.2 Q 595.8 991.7, 592.1 991.7 Q 588.3 991.7, 586.3 994.1 Q 584.2 996.6, 584.2 1001.4 Q 584.2 1006.4, 586.3 1008.9 Q 588.3 1011.4, 592.1 1011.4 " fill="#FF0000"/>
<path class="atom-8" d="M 631.1 1143.5 Q 631.1 1137.6, 634.0 1134.3 Q 636.9 1131.0, 642.4 1131.0 Q 647.8 1131.0, 650.8 1134.3 Q 653.7 1137.6, 653.7 1143.5 Q 653.7 1149.5, 650.7 1152.9 Q 647.8 1156.3, 642.4 1156.3 Q 636.9 1156.3, 634.0 1152.9 Q 631.1 1149.5, 631.1 1143.5 M 642.4 1153.5 Q 646.1 1153.5, 648.1 1151.0 Q 650.2 1148.5, 650.2 1143.5 Q 650.2 1138.7, 648.1 1136.2 Q 646.1 1133.8, 642.4 1133.8 Q 638.6 1133.8, 636.6 1136.2 Q 634.5 1138.6, 634.5 1143.5 Q 634.5 1148.5, 636.6 1151.0 Q 638.6 1153.5, 642.4 1153.5 " fill="#FF0000"/>
<path class="atom-14" d="M 1047.8 995.5 L 1051.5 991.8 L 1046.7 990.8 L 1047.4 988.4 L 1051.8 990.6 L 1051.2 985.7 L 1053.8 985.7 L 1053.1 990.5 L 1057.5 988.5 L 1058.3 990.8 L 1053.4 991.7 L 1056.9 995.5 L 1054.8 997.0 L 1052.4 992.4 L 1050.0 997.0 L 1047.8 995.5 " fill="#191919"/>
<path class="atom-15" d="M 990.9 856.2 Q 990.9 850.3, 993.8 847.0 Q 996.7 843.7, 1002.2 843.7 Q 1007.6 843.7, 1010.6 847.0 Q 1013.5 850.3, 1013.5 856.2 Q 1013.5 862.2, 1010.5 865.6 Q 1007.6 869.0, 1002.2 869.0 Q 996.8 869.0, 993.8 865.6 Q 990.9 862.3, 990.9 856.2 M 1002.2 866.2 Q 1005.9 866.2, 1008.0 863.7 Q 1010.0 861.2, 1010.0 856.2 Q 1010.0 851.4, 1008.0 849.0 Q 1005.9 846.5, 1002.2 846.5 Q 998.4 846.5, 996.4 848.9 Q 994.3 851.4, 994.3 856.2 Q 994.3 861.2, 996.4 863.7 Q 998.4 866.2, 1002.2 866.2 " fill="#FF0000"/>
<path class="bond-0 atom-0 atom-1" d="M 1086.6,1364.8 L 1057.8,1382.3" style="fill:none;fill-rule:evenodd;stroke:#191919;stroke-width:2.0px;stroke-linecap:butt;stroke-linejoin:miter;stroke-opacity:1"/>
<path class="bond-0 atom-0 atom-1" d="M 1057.8,1382.3 L 1029.0,1399.7" style="fill:none;fill-rule:evenodd;stroke:#FF0000;stroke-width:2.0px;stroke-linecap:butt;stroke-linejoin:miter;stroke-opacity:1"/>
<path class="bond-1 atom-1 atom-2" d="M 1000.6,1400.5 L 969.6,1383.4" style="fill:none;fill-rule:evenodd;stroke:#FF0000;stroke-width:2.0px;stroke-linecap:butt;stroke-linejoin:miter;stroke-opacity:1"/>
<path class="bond-1 atom-1 atom-2" d="M 969.6,1383.4 L 938.6,1366.3" style="fill:none;fill-rule:evenodd;stroke:#000000;stroke-width:2.0px;stroke-linecap:butt;stroke-linejoin:miter;stroke-opacity:1"/>
<path class="bond-2 atom-2 atom-3" d="M 938.6,1366.3 L 864.1,1411.4" style="fill:none;fill-rule:evenodd;stroke:#000000;stroke-width:2.0px;stroke-linecap:butt;stroke-linejoin:miter;stroke-opacity:1"/>
<path class="bond-3 atom-3 atom-4" d="M 864.1,1411.4 L 787.9,1369.5" style="fill:none;fill-rule:evenodd;stroke:#000000;stroke-width:2.0px;stroke-linecap:butt;stroke-linejoin:miter;stroke-opacity:1"/>
<path class="bond-4 atom-4 atom-5" d="M 787.9,1369.5 L 713.5,1414.5" style="fill:none;fill-rule:evenodd;stroke:#000000;stroke-width:2.0px;stroke-linecap:butt;stroke-linejoin:miter;stroke-opacity:1"/>
<path class="bond-5 atom-5 atom-6" d="M 713.5,1414.5 L 682.4,1397.5" style="fill:none;fill-rule:evenodd;stroke:#000000;stroke-width:2.0px;stroke-linecap:butt;stroke-linejoin:miter;stroke-opacity:1"/>
<path class="bond-5 atom-5 atom-6" d="M 682.4,1397.5 L 651.4,1380.4" style="fill:none;fill-rule:evenodd;stroke:#FF0000;stroke-width:2.0px;stroke-linecap:butt;stroke-linejoin:miter;stroke-opacity:1"/>
<path class="bond-6 atom-6 atom-7" d="M 623.0,1381.2 L 592.9,1399.4" style="fill:none;fill-rule:evenodd;stroke:#FF0000;stroke-width:2.0px;stroke-linecap:butt;stroke-linejoin:miter;stroke-opacity:1"/>
<path class="bond-6 atom-6 atom-7" d="M 592.9,1399.4 L 562.8,1417.7" style="fill:none;fill-rule:evenodd;stroke:#000000;stroke-width:2.0px;stroke-linecap:butt;stroke-linejoin:miter;stroke-opacity:1"/>
<path class="bond-7 atom-7 atom-8" d="M 556.2,1414.0 L 557.0,1451.7" style="fill:none;fill-rule:evenodd;stroke:#000000;stroke-width:2.0px;stroke-linecap:butt;stroke-linejoin:miter;stroke-opacity:1"/>
<path class="bond-7 atom-7 atom-8" d="M 557.0,1451.7 L 557.7,1489.4" style="fill:none;fill-rule:evenodd;stroke:#FF0000;stroke-width:2.0px;stroke-linecap:butt;stroke-linejoin:miter;stroke-opacity:1"/>
<path class="bond-7 atom-7 atom-8" d="M 569.2,1413.7 L 570.0,1451.5" style="fill:none;fill-rule:evenodd;stroke:#000000;stroke-width:2.0px;stroke-linecap:butt;stroke-linejoin:miter;stroke-opacity:1"/>
<path class="bond-7 atom-7 atom-8" d="M 570.0,1451.5 L 570.8,1489.2" style="fill:none;fill-rule:evenodd;stroke:#FF0000;stroke-width:2.0px;stroke-linecap:butt;stroke-linejoin:miter;stroke-opacity:1"/>
<path class="bond-8 atom-7 atom-9" d="M 562.8,1417.7 L 486.5,1375.7" style="fill:none;fill-rule:evenodd;stroke:#000000;stroke-width:2.0px;stroke-linecap:butt;stroke-linejoin:miter;stroke-opacity:1"/>
<path class="bond-9 atom-9 atom-10" d="M 486.5,1375.7 L 412.1,1420.8" style="fill:none;fill-rule:evenodd;stroke:#000000;stroke-width:2.0px;stroke-linecap:butt;stroke-linejoin:miter;stroke-opacity:1"/>
<path class="bond-10 atom-10 atom-11" d="M 412.1,1420.8 L 335.9,1378.8" style="fill:none;fill-rule:evenodd;stroke:#000000;stroke-width:2.0px;stroke-linecap:butt;stroke-linejoin:miter;stroke-opacity:1"/>
<path class="bond-11 atom-11 atom-12" d="M 335.9,1378.8 L 261.4,1423.9" style="fill:none;fill-rule:evenodd;stroke:#000000;stroke-width:2.0px;stroke-linecap:butt;stroke-linejoin:miter;stroke-opacity:1"/>
<path class="bond-12 atom-12 atom-13" d="M 261.4,1423.9 L 185.2,1382.0" style="fill:none;fill-rule:evenodd;stroke:#000000;stroke-width:2.0px;stroke-linecap:butt;stroke-linejoin:miter;stroke-opacity:1"/>
<path class="bond-13 atom-13 atom-14" d="M 185.2,1382.0 L 152.3,1401.9" style="fill:none;fill-rule:evenodd;stroke:#000000;stroke-width:2.0px;stroke-linecap:butt;stroke-linejoin:miter;stroke-opacity:1"/>
<path class="bond-13 atom-13 atom-14" d="M 152.3,1401.9 L 119.5,1421.8" style="fill:none;fill-rule:evenodd;stroke:#191919;stroke-width:2.0px;stroke-linecap:butt;stroke-linejoin:miter;stroke-opacity:1"/>
<path class="bond-14 atom-13 atom-15" d="M 191.8,1385.6 L 191.0,1348.1" style="fill:none;fill-rule:evenodd;stroke:#000000;stroke-width:2.0px;stroke-linecap:butt;stroke-linejoin:miter;stroke-opacity:1"/>
<path class="bond-14 atom-13 atom-15" d="M 191.0,1348.1 L 190.2,1310.6" style="fill:none;fill-rule:evenodd;stroke:#FF0000;stroke-width:2.0px;stroke-linecap:butt;stroke-linejoin:miter;stroke-opacity:1"/>
<path class="bond-14 atom-13 atom-15" d="M 178.7,1385.9 L 178.0,1348.3" style="fill:none;fill-rule:evenodd;stroke:#000000;stroke-width:2.0px;stroke-linecap:butt;stroke-linejoin:miter;stroke-opacity:1"/>
<path class="bond-14 atom-13 atom-15" d="M 178.0,1348.3 L 177.2,1310.8" style="fill:none;fill-rule:evenodd;stroke:#FF0000;stroke-width:2.0px;stroke-linecap:butt;stroke-linejoin:miter;stroke-opacity:1"/>
<path d="M 940.1,1367.2 L 938.6,1366.3 L 934.8,1368.6" style="fill:none;stroke:#000000;stroke-width:2.0px;stroke-linecap:butt;stroke-linejoin:miter;stroke-opacity:1;"/>
<path d="M 867.9,1409.1 L 864.1,1411.4 L 860.3,1409.3" style="fill:none;stroke:#000000;stroke-width:2.0px;stroke-linecap:butt;stroke-linejoin:miter;stroke-opacity:1;"/>
<path d="M 791.7,1371.6 L 787.9,1369.5 L 784.2,1371.7" style="fill:none;stroke:#000000;stroke-width:2.0px;stroke-linecap:butt;stroke-linejoin:miter;stroke-opacity:1;"/>
<path d="M 717.2,1412.3 L 713.5,1414.5 L 711.9,1413.7" style="fill:none;stroke:#000000;stroke-width:2.0px;stroke-linecap:butt;stroke-linejoin:miter;stroke-opacity:1;"/>
<path d="M 564.3,1416.7 L 562.8,1417.7 L 559.0,1415.6" style="fill:none;stroke:#000000;stroke-width:2.0px;stroke-linecap:butt;stroke-linejoin:miter;stroke-opacity:1;"/>
<path d="M 490.4,1377.8 L 486.5,1375.7 L 482.8,1378.0" style="fill:none;stroke:#000000;stroke-width:2.0px;stroke-linecap:butt;stroke-linejoin:miter;stroke-opacity:1;"/>
<path d="M 415.8,1418.5 L 412.1,1420.8 L 408.3,1418.7" style="fill:none;stroke:#000000;stroke-width:2.0px;stroke-linecap:butt;stroke-linejoin:miter;stroke-opacity:1;"/>
<path d="M 339.7,1380.9 L 335.9,1378.8 L 332.1,1381.1" style="fill:none;stroke:#000000;stroke-width:2.0px;stroke-linecap:butt;stroke-linejoin:miter;stroke-opacity:1;"/>
<path d="M 265.2,1421.6 L 261.4,1423.9 L 257.6,1421.8" style="fill:none;stroke:#000000;stroke-width:2.0px;stroke-linecap:butt;stroke-linejoin:miter;stroke-opacity:1;"/>
<path d="M 189.0,1384.1 L 185.2,1382.0 L 183.5,1383.0" style="fill:none;stroke:#000000;stroke-width:2.0px;stroke-linecap:butt;stroke-linejoin:miter;stroke-opacity:1;"/>
<path class="atom-0" d="M 1084.6 1360.5 L 1088.2 1356.8 L 1083.4 1355.8 L 1084.1 1353.3 L 1088.6 1355.6 L 1087.9 1350.7 L 1090.6 1350.7 L 1089.8 1355.5 L 1094.3 1353.4 L 1095.1 1355.8 L 1090.2 1356.7 L 1093.7 1360.4 L 1091.6 1362.0 L 1089.2 1357.4 L 1086.7 1362.0 L 1084.6 1360.5 " fill="#191919"/>
<path class="atom-1" d="M 1003.5 1408.3 Q 1003.5 1402.4, 1006.4 1399.1 Q 1009.3 1395.8, 1014.8 1395.8 Q 1020.3 1395.8, 1023.2 1399.1 Q 1026.1 1402.4, 1026.1 1408.3 Q 1026.1 1414.3, 1023.2 1417.7 Q 1020.2 1421.1, 1014.8 1421.1 Q 1009.4 1421.1, 1006.4 1417.7 Q 1003.5 1414.4, 1003.5 1408.3 M 1014.8 1418.3 Q 1018.6 1418.3, 1020.6 1415.8 Q 1022.6 1413.3, 1022.6 1408.3 Q 1022.6 1403.5, 1020.6 1401.1 Q 1018.6 1398.6, 1014.8 1398.6 Q 1011.1 1398.6, 1009.0 1401.0 Q 1007.0 1403.5, 1007.0 1408.3 Q 1007.0 1413.3, 1009.0 1415.8 Q 1011.1 1418.3, 1014.8 1418.3 " fill="#FF0000"/>
<path class="atom-6" d="M 625.9 1372.7 Q 625.9 1366.7, 628.8 1363.4 Q 631.8 1360.1, 637.2 1360.1 Q 642.7 1360.1, 645.6 1363.4 Q 648.5 1366.7, 648.5 1372.7 Q 648.5 1378.6, 645.6 1382.1 Q 642.6 1385.4, 637.2 1385.4 Q 631.8 1385.4, 628.8 1382.1 Q 625.9 1378.7, 625.9 1372.7 M 637.2 1382.6 Q 641.0 1382.6, 643.0 1380.1 Q 645.0 1377.6, 645.0 1372.7 Q 645.0 1367.8, 643.0 1365.4 Q 641.0 1362.9, 637.2 1362.9 Q 633.5 1362.9, 631.4 1365.4 Q 629.4 1367.8, 629.4 1372.7 Q 629.4 1377.6, 631.4 1380.1 Q 633.5 1382.6, 637.2 1382.6 " fill="#FF0000"/>
<path class="atom-8" d="M 553.3 1504.7 Q 553.3 1498.8, 556.2 1495.5 Q 559.1 1492.2, 564.6 1492.2 Q 570.1 1492.2, 573.0 1495.5 Q 575.9 1498.8, 575.9 1504.7 Q 575.9 1510.7, 572.9 1514.1 Q 570.0 1517.5, 564.6 1517.5 Q 559.2 1517.5, 556.2 1514.1 Q 553.3 1510.7, 553.3 1504.7 M 564.6 1514.7 Q 568.3 1514.7, 570.4 1512.2 Q 572.4 1509.7, 572.4 1504.7 Q 572.4 1499.9, 570.4 1497.4 Q 568.3 1495.0, 564.6 1495.0 Q 560.8 1495.0, 558.8 1497.4 Q 556.8 1499.8, 556.8 1504.7 Q 556.8 1509.7, 558.8 1512.2 Q 560.8 1514.7, 564.6 1514.7 " fill="#FF0000"/>
<path class="atom-14" d="M 106.1 1424.3 L 109.7 1420.6 L 104.9 1419.6 L 105.7 1417.1 L 110.1 1419.4 L 109.4 1414.5 L 112.1 1414.5 L 111.3 1419.3 L 115.8 1417.2 L 116.6 1419.6 L 111.7 1420.5 L 115.2 1424.2 L 113.1 1425.8 L 110.7 1421.2 L 108.2 1425.8 L 106.1 1424.3 " fill="#191919"/>
<path class="atom-15" d="M 172.1 1295.0 Q 172.1 1289.1, 175.0 1285.8 Q 177.9 1282.5, 183.4 1282.5 Q 188.8 1282.5, 191.8 1285.8 Q 194.7 1289.1, 194.7 1295.0 Q 194.7 1301.0, 191.7 1304.4 Q 188.8 1307.8, 183.4 1307.8 Q 178.0 1307.8, 175.0 1304.4 Q 172.1 1301.1, 172.1 1295.0 M 183.4 1305.0 Q 187.1 1305.0, 189.2 1302.5 Q 191.2 1300.0, 191.2 1295.0 Q 191.2 1290.2, 189.2 1287.8 Q 187.1 1285.3, 183.4 1285.3 Q 179.6 1285.3, 177.6 1287.7 Q 175.6 1290.2, 175.6 1295.0 Q 175.6 1300.0, 177.6 1302.5 Q 179.6 1305.0, 183.4 1305.0 " fill="#FF0000"/>
</svg>