<svg xmlns="http://www.w3.org/2000/svg" xmlns:rdkit="http://www.rdkit.org/xml" xmlns:xlink="http://www.w3.org/1999/xlink" version="1.1" baseProfile="full" xml:space="preserve" width="1200px" height="2000px" viewBox="0 0 1200 2000">
<!-- END OF HEADER -->
<rect style="opacity:1.0;fill:#FFFFFF;stroke:none" width="1200.0" height="2000.0" x="0.0" y="0.0"> </rect>
<path class="bond-0 atom-0 atom-1" d="M 143.6,119.6 L 169.0,141.2" style="fill:none;fill-rule:evenodd;stroke:#191919;stroke-width:2.0px;stroke-linecap:butt;stroke-linejoin:miter;stroke-opacity:1"/>
<path class="bond-0 atom-0 atom-1" d="M 169.0,141.2 L 194.3,162.9" style="fill:none;fill-rule:evenodd;stroke:#FF0000;stroke-width:2.0px;stroke-linecap:butt;stroke-linejoin:miter;stroke-opacity:1"/>
<path class="bond-1 atom-1 atom-2" d="M 223.1,170.1 L 257.4,157.9" style="fill:none;fill-rule:evenodd;stroke:#FF0000;stroke-width:2.0px;stroke-linecap:butt;stroke-linejoin:miter;stroke-opacity:1"/>
<path class="bond-1 atom-1 atom-2" d="M 257.4,157.9 L 291.8,145.8" style="fill:none;fill-rule:evenodd;stroke:#000000;stroke-width:2.0px;stroke-linecap:butt;stroke-linejoin:miter;stroke-opacity:1"/>
<path class="bond-2 atom-2 atom-3" d="M 291.8,145.8 L 358.8,203.0" style="fill:none;fill-rule:evenodd;stroke:#000000;stroke-width:2.0px;stroke-linecap:butt;stroke-linejoin:miter;stroke-opacity:1"/>
<path class="bond-3 atom-3 atom-4" d="M 358.8,203.0 L 441.9,173.6" style="fill:none;fill-rule:evenodd;stroke:#000000;stroke-width:2.0px;stroke-linecap:butt;stroke-linejoin:miter;stroke-opacity:1"/>
<path class="bond-4 atom-4 atom-5" d="M 441.9,173.6 L 508.9,230.8" style="fill:none;fill-rule:evenodd;stroke:#000000;stroke-width:2.0px;stroke-linecap:butt;stroke-linejoin:miter;stroke-opacity:1"/>
<path class="bond-5 atom-5 atom-6" d="M 508.9,230.8 L 543.2,218.6" style="fill:none;fill-rule:evenodd;stroke:#000000;stroke-width:2.0px;stroke-linecap:butt;stroke-linejoin:miter;stroke-opacity:1"/>
<path class="bond-5 atom-5 atom-6" d="M 543.2,218.6 L 577.6,206.5" style="fill:none;fill-rule:evenodd;stroke:#FF0000;stroke-width:2.0px;stroke-linecap:butt;stroke-linejoin:miter;stroke-opacity:1"/>
<path class="bond-6 atom-6 atom-7" d="M 606.3,213.7 L 632.7,236.2" style="fill:none;fill-rule:evenodd;stroke:#FF0000;stroke-width:2.0px;stroke-linecap:butt;stroke-linejoin:miter;stroke-opacity:1"/>
<path class="bond-6 atom-6 atom-7" d="M 632.7,236.2 L 659.0,258.6" style="fill:none;fill-rule:evenodd;stroke:#000000;stroke-width:2.0px;stroke-linecap:butt;stroke-linejoin:miter;stroke-opacity:1"/>
<path class="bond-7 atom-7 atom-8" d="M 653.2,253.7 L 646.2,291.1" style="fill:none;fill-rule:evenodd;stroke:#000000;stroke-width:2.0px;stroke-linecap:butt;stroke-linejoin:miter;stroke-opacity:1"/>
<path class="bond-7 atom-7 atom-8" d="M 646.2,291.1 L 639.3,328.6" style="fill:none;fill-rule:evenodd;stroke:#FF0000;stroke-width:2.0px;stroke-linecap:butt;stroke-linejoin:miter;stroke-opacity:1"/>
<path class="bond-7 atom-7 atom-8" d="M 666.2,256.1 L 659.2,293.5" style="fill:none;fill-rule:evenodd;stroke:#000000;stroke-width:2.0px;stroke-linecap:butt;stroke-linejoin:miter;stroke-opacity:1"/>
<path class="bond-7 atom-7 atom-8" d="M 659.2,293.5 L 652.3,331.0" style="fill:none;fill-rule:evenodd;stroke:#FF0000;stroke-width:2.0px;stroke-linecap:butt;stroke-linejoin:miter;stroke-opacity:1"/>
<path class="bond-8 atom-7 atom-9" d="M 659.0,258.6 L 742.1,229.2" style="fill:none;fill-rule:evenodd;stroke:#000000;stroke-width:2.0px;stroke-linecap:butt;stroke-linejoin:miter;stroke-opacity:1"/>
<path class="bond-9 atom-9 atom-10" d="M 742.1,229.2 L 758.1,142.6" style="fill:none;fill-rule:evenodd;stroke:#000000;stroke-width:2.0px;stroke-linecap:butt;stroke-linejoin:miter;stroke-opacity:1"/>
<path class="bond-9 atom-9 atom-10" d="M 756.4,224.1 L 769.7,152.5" style="fill:none;fill-rule:evenodd;stroke:#000000;stroke-width:2.0px;stroke-linecap:butt;stroke-linejoin:miter;stroke-opacity:1"/>
<path class="bond-10 atom-10 atom-11" d="M 758.1,142.6 L 841.2,113.2" style="fill:none;fill-rule:evenodd;stroke:#000000;stroke-width:2.0px;stroke-linecap:butt;stroke-linejoin:miter;stroke-opacity:1"/>
<path class="bond-11 atom-11 atom-12" d="M 841.2,113.2 L 908.2,170.4" style="fill:none;fill-rule:evenodd;stroke:#000000;stroke-width:2.0px;stroke-linecap:butt;stroke-linejoin:miter;stroke-opacity:1"/>
<path class="bond-11 atom-11 atom-12" d="M 838.4,128.2 L 893.8,175.5" style="fill:none;fill-rule:evenodd;stroke:#000000;stroke-width:2.0px;stroke-linecap:butt;stroke-linejoin:miter;stroke-opacity:1"/>
<path class="bond-12 atom-12 atom-13" d="M 908.2,170.4 L 991.3,141.0" style="fill:none;fill-rule:evenodd;stroke:#000000;stroke-width:2.0px;stroke-linecap:butt;stroke-linejoin:miter;stroke-opacity:1"/>
<path class="bond-13 atom-13 atom-14" d="M 991.3,141.0 L 1020.4,165.8" style="fill:none;fill-rule:evenodd;stroke:#000000;stroke-width:2.0px;stroke-linecap:butt;stroke-linejoin:miter;stroke-opacity:1"/>
<path class="bond-13 atom-13 atom-14" d="M 1020.4,165.8 L 1049.5,190.7" style="fill:none;fill-rule:evenodd;stroke:#191919;stroke-width:2.0px;stroke-linecap:butt;stroke-linejoin:miter;stroke-opacity:1"/>
<path class="bond-14 atom-13 atom-15" d="M 997.1,145.9 L 1004.0,108.7" style="fill:none;fill-rule:evenodd;stroke:#000000;stroke-width:2.0px;stroke-linecap:butt;stroke-linejoin:miter;stroke-opacity:1"/>
<path class="bond-14 atom-13 atom-15" d="M 1004.0,108.7 L 1010.9,71.4" style="fill:none;fill-rule:evenodd;stroke:#FF0000;stroke-width:2.0px;stroke-linecap:butt;stroke-linejoin:miter;stroke-opacity:1"/>
<path class="bond-14 atom-13 atom-15" d="M 984.1,143.5 L 991.0,106.3" style="fill:none;fill-rule:evenodd;stroke:#000000;stroke-width:2.0px;stroke-linecap:butt;stroke-linejoin:miter;stroke-opacity:1"/>
<path class="bond-14 atom-13 atom-15" d="M 991.0,106.3 L 997.9,69.0" style="fill:none;fill-rule:evenodd;stroke:#FF0000;stroke-width:2.0px;stroke-linecap:butt;stroke-linejoin:miter;stroke-opacity:1"/>
<path class="bond-15 atom-12 atom-16" d="M 908.2,170.4 L 892.1,257.0" style="fill:none;fill-rule:evenodd;stroke:#000000;stroke-width:2.0px;stroke-linecap:butt;stroke-linejoin:miter;stroke-opacity:1"/>
<path class="bond-16 atom-16 atom-17" d="M 892.1,257.0 L 809.1,286.5" style="fill:none;fill-rule:evenodd;stroke:#000000;stroke-width:2.0px;stroke-linecap:butt;stroke-linejoin:miter;stroke-opacity:1"/>
<path class="bond-16 atom-16 atom-17" d="M 880.5,247.1 L 811.9,271.5" style="fill:none;fill-rule:evenodd;stroke:#000000;stroke-width:2.0px;stroke-linecap:butt;stroke-linejoin:miter;stroke-opacity:1"/>
<path class="bond-17 atom-17 atom-9" d="M 809.1,286.5 L 742.1,229.2" style="fill:none;fill-rule:evenodd;stroke:#000000;stroke-width:2.0px;stroke-linecap:butt;stroke-linejoin:miter;stroke-opacity:1"/>
<path d="M 290.1,146.4 L 291.8,145.8 L 295.1,148.6" style="fill:none;stroke:#000000;stroke-width:2.0px;stroke-linecap:butt;stroke-linejoin:miter;stroke-opacity:1;"/>
<path d="M 355.5,200.1 L 358.8,203.0 L 363.0,201.5" style="fill:none;stroke:#000000;stroke-width:2.0px;stroke-linecap:butt;stroke-linejoin:miter;stroke-opacity:1;"/>
<path d="M 437.7,175.0 L 441.9,173.6 L 445.2,176.4" style="fill:none;stroke:#000000;stroke-width:2.0px;stroke-linecap:butt;stroke-linejoin:miter;stroke-opacity:1;"/>
<path d="M 505.5,228.0 L 508.9,230.8 L 510.6,230.2" style="fill:none;stroke:#000000;stroke-width:2.0px;stroke-linecap:butt;stroke-linejoin:miter;stroke-opacity:1;"/>
<path d="M 657.7,257.5 L 659.0,258.6 L 663.1,257.2" style="fill:none;stroke:#000000;stroke-width:2.0px;stroke-linecap:butt;stroke-linejoin:miter;stroke-opacity:1;"/>
<path d="M 757.3,146.9 L 758.1,142.6 L 762.3,141.1" style="fill:none;stroke:#000000;stroke-width:2.0px;stroke-linecap:butt;stroke-linejoin:miter;stroke-opacity:1;"/>
<path d="M 837.0,114.6 L 841.2,113.2 L 844.5,116.0" style="fill:none;stroke:#000000;stroke-width:2.0px;stroke-linecap:butt;stroke-linejoin:miter;stroke-opacity:1;"/>
<path d="M 987.1,142.4 L 991.3,141.0 L 992.7,142.2" style="fill:none;stroke:#000000;stroke-width:2.0px;stroke-linecap:butt;stroke-linejoin:miter;stroke-opacity:1;"/>
<path d="M 893.0,252.7 L 892.1,257.0 L 888.0,258.5" style="fill:none;stroke:#000000;stroke-width:2.0px;stroke-linecap:butt;stroke-linejoin:miter;stroke-opacity:1;"/>
<path d="M 813.2,285.0 L 809.1,286.5 L 805.7,283.6" style="fill:none;stroke:#000000;stroke-width:2.0px;stroke-linecap:butt;stroke-linejoin:miter;stroke-opacity:1;"/>
<path class="atom-0" d="M 137.0 115.1 L 140.7 111.4 L 135.8 110.4 L 136.5 107.9 L 141.0 110.2 L 140.4 105.3 L 143.0 105.2 L 142.3 110.1 L 146.8 108.0 L 147.6 110.4 L 142.7 111.3 L 146.2 115.1 L 144.0 116.7 L 141.6 112.0 L 139.1 116.7 L 137.0 115.1 " fill="#191919"/>
<path class="atom-1" d="M 197.3 175.2 Q 197.3 169.2, 200.2 165.9 Q 203.2 162.5, 208.7 162.5 Q 214.2 162.5, 217.2 165.9 Q 220.2 169.2, 220.2 175.2 Q 220.2 181.3, 217.2 184.8 Q 214.2 188.2, 208.7 188.2 Q 203.2 188.2, 200.2 184.8 Q 197.3 181.3, 197.3 175.2 M 208.7 185.4 Q 212.5 185.4, 214.6 182.8 Q 216.6 180.2, 216.6 175.2 Q 216.6 170.3, 214.6 167.9 Q 212.5 165.4, 208.7 165.4 Q 204.9 165.4, 202.8 167.8 Q 200.8 170.3, 200.8 175.2 Q 200.8 180.3, 202.8 182.8 Q 204.9 185.4, 208.7 185.4 " fill="#FF0000"/>
<path class="atom-6" d="M 580.5 201.5 Q 580.5 195.5, 583.5 192.1 Q 586.4 188.8, 592.0 188.8 Q 597.5 188.8, 600.5 192.1 Q 603.4 195.5, 603.4 201.5 Q 603.4 207.5, 600.4 211.0 Q 597.4 214.4, 592.0 214.4 Q 586.5 214.4, 583.5 211.0 Q 580.5 207.6, 580.5 201.5 M 592.0 211.6 Q 595.8 211.6, 597.8 209.0 Q 599.9 206.5, 599.9 201.5 Q 599.9 196.6, 597.8 194.1 Q 595.8 191.6, 592.0 191.6 Q 588.2 191.6, 586.1 194.1 Q 584.0 196.5, 584.0 201.5 Q 584.0 206.5, 586.1 209.0 Q 588.2 211.6, 592.0 211.6 " fill="#FF0000"/>
<path class="atom-8" d="M 631.5 345.4 Q 631.5 339.4, 634.4 336.0 Q 637.4 332.7, 642.9 332.7 Q 648.5 332.7, 651.4 336.0 Q 654.4 339.4, 654.4 345.4 Q 654.4 351.4, 651.4 354.9 Q 648.4 358.3, 642.9 358.3 Q 637.4 358.3, 634.4 354.9 Q 631.5 351.5, 631.5 345.4 M 642.9 355.5 Q 646.7 355.5, 648.8 352.9 Q 650.8 350.4, 650.8 345.4 Q 650.8 340.5, 648.8 338.0 Q 646.7 335.5, 642.9 335.5 Q 639.1 335.5, 637.0 338.0 Q 635.0 340.4, 635.0 345.4 Q 635.0 350.4, 637.0 352.9 Q 639.1 355.5, 642.9 355.5 " fill="#FF0000"/>
<path class="atom-14" d="M 1053.6 195.4 L 1057.3 191.7 L 1052.4 190.7 L 1053.1 188.2 L 1057.6 190.5 L 1057.0 185.6 L 1059.6 185.5 L 1058.9 190.4 L 1063.4 188.3 L 1064.2 190.7 L 1059.3 191.6 L 1062.8 195.4 L 1060.6 196.9 L 1058.2 192.3 L 1055.7 196.9 L 1053.6 195.4 " fill="#191919"/>
<path class="atom-15" d="M 995.9 54.4 Q 995.9 48.4, 998.9 45.0 Q 1001.8 41.7, 1007.4 41.7 Q 1012.9 41.7, 1015.8 45.0 Q 1018.8 48.4, 1018.8 54.4 Q 1018.8 60.5, 1015.8 63.9 Q 1012.8 67.3, 1007.4 67.3 Q 1001.9 67.3, 998.9 63.9 Q 995.9 60.5, 995.9 54.4 M 1007.4 64.5 Q 1011.2 64.5, 1013.2 62.0 Q 1015.3 59.4, 1015.3 54.4 Q 1015.3 49.5, 1013.2 47.0 Q 1011.2 44.5, 1007.4 44.5 Q 1003.5 44.5, 1001.5 47.0 Q 999.4 49.5, 999.4 54.4 Q 999.4 59.4, 1001.5 62.0 Q 1003.5 64.5, 1007.4 64.5 " fill="#FF0000"/>
<path class="bond-0 atom-0 atom-1" d="M 74.7,648.2 L 101.8,633.4" style="fill:none;fill-rule:evenodd;stroke:#191919;stroke-width:2.0px;stroke-linecap:butt;stroke-linejoin:miter;stroke-opacity:1"/>
<path class="bond-0 atom-0 atom-1" d="M 101.8,633.4 L 128.9,618.6" style="fill:none;fill-rule:evenodd;stroke:#FF0000;stroke-width:2.0px;stroke-linecap:butt;stroke-linejoin:miter;stroke-opacity:1"/>
<path class="bond-1 atom-1 atom-2" d="M 157.7,619.6 L 188.1,638.2" style="fill:none;fill-rule:evenodd;stroke:#FF0000;stroke-width:2.0px;stroke-linecap:butt;stroke-linejoin:miter;stroke-opacity:1"/>
<path class="bond-1 atom-1 atom-2" d="M 188.1,638.2 L 218.5,656.8" style="fill:none;fill-rule:evenodd;stroke:#000000;stroke-width:2.0px;stroke-linecap:butt;stroke-linejoin:miter;stroke-opacity:1"/>
<path class="bond-2 atom-2 atom-3" d="M 218.5,656.8 L 295.9,614.6" style="fill:none;fill-rule:evenodd;stroke:#000000;stroke-width:2.0px;stroke-linecap:butt;stroke-linejoin:miter;stroke-opacity:1"/>
<path class="bond-3 atom-3 atom-4" d="M 295.9,614.6 L 371.1,660.6" style="fill:none;fill-rule:evenodd;stroke:#000000;stroke-width:2.0px;stroke-linecap:butt;stroke-linejoin:miter;stroke-opacity:1"/>
<path class="bond-4 atom-4 atom-5" d="M 371.1,660.6 L 448.5,618.5" style="fill:none;fill-rule:evenodd;stroke:#000000;stroke-width:2.0px;stroke-linecap:butt;stroke-linejoin:miter;stroke-opacity:1"/>
<path class="bond-5 atom-5 atom-6" d="M 448.5,618.5 L 478.9,637.0" style="fill:none;fill-rule:evenodd;stroke:#000000;stroke-width:2.0px;stroke-linecap:butt;stroke-linejoin:miter;stroke-opacity:1"/>
<path class="bond-5 atom-5 atom-6" d="M 478.9,637.0 L 509.3,655.6" style="fill:none;fill-rule:evenodd;stroke:#FF0000;stroke-width:2.0px;stroke-linecap:butt;stroke-linejoin:miter;stroke-opacity:1"/>
<path class="bond-6 atom-6 atom-7" d="M 538.1,656.6 L 569.6,639.4" style="fill:none;fill-rule:evenodd;stroke:#FF0000;stroke-width:2.0px;stroke-linecap:butt;stroke-linejoin:miter;stroke-opacity:1"/>
<path class="bond-6 atom-6 atom-7" d="M 569.6,639.4 L 601.1,622.3" style="fill:none;fill-rule:evenodd;stroke:#000000;stroke-width:2.0px;stroke-linecap:butt;stroke-linejoin:miter;stroke-opacity:1"/>
<path class="bond-7 atom-7 atom-8" d="M 607.6,626.3 L 608.6,588.3" style="fill:none;fill-rule:evenodd;stroke:#000000;stroke-width:2.0px;stroke-linecap:butt;stroke-linejoin:miter;stroke-opacity:1"/>
<path class="bond-7 atom-7 atom-8" d="M 608.6,588.3 L 609.5,550.3" style="fill:none;fill-rule:evenodd;stroke:#FF0000;stroke-width:2.0px;stroke-linecap:butt;stroke-linejoin:miter;stroke-opacity:1"/>
<path class="bond-7 atom-7 atom-8" d="M 594.4,625.9 L 595.4,587.9" style="fill:none;fill-rule:evenodd;stroke:#000000;stroke-width:2.0px;stroke-linecap:butt;stroke-linejoin:miter;stroke-opacity:1"/>
<path class="bond-7 atom-7 atom-8" d="M 595.4,587.9 L 596.3,549.9" style="fill:none;fill-rule:evenodd;stroke:#FF0000;stroke-width:2.0px;stroke-linecap:butt;stroke-linejoin:miter;stroke-opacity:1"/>
<path class="bond-8 atom-7 atom-9" d="M 601.1,622.3 L 676.3,668.2" style="fill:none;fill-rule:evenodd;stroke:#000000;stroke-width:2.0px;stroke-linecap:butt;stroke-linejoin:miter;stroke-opacity:1"/>
<path class="bond-9 atom-9 atom-10" d="M 676.3,668.2 L 753.7,626.1" style="fill:none;fill-rule:evenodd;stroke:#000000;stroke-width:2.0px;stroke-linecap:butt;stroke-linejoin:miter;stroke-opacity:1"/>
<path class="bond-10 atom-10 atom-11" d="M 753.7,626.1 L 828.9,672.1" style="fill:none;fill-rule:evenodd;stroke:#000000;stroke-width:2.0px;stroke-linecap:butt;stroke-linejoin:miter;stroke-opacity:1"/>
<path class="bond-11 atom-11 atom-12" d="M 828.9,672.1 L 906.3,629.9" style="fill:none;fill-rule:evenodd;stroke:#000000;stroke-width:2.0px;stroke-linecap:butt;stroke-linejoin:miter;stroke-opacity:1"/>
<path class="bond-12 atom-12 atom-13" d="M 906.3,629.9 L 981.5,675.9" style="fill:none;fill-rule:evenodd;stroke:#000000;stroke-width:2.0px;stroke-linecap:butt;stroke-linejoin:miter;stroke-opacity:1"/>
<path class="bond-13 atom-13 atom-14" d="M 981.5,675.9 L 1058.9,633.7" style="fill:none;fill-rule:evenodd;stroke:#000000;stroke-width:2.0px;stroke-linecap:butt;stroke-linejoin:miter;stroke-opacity:1"/>
<path class="bond-14 atom-14 atom-15" d="M 1058.9,633.7 L 1092.1,654.0" style="fill:none;fill-rule:evenodd;stroke:#000000;stroke-width:2.0px;stroke-linecap:butt;stroke-linejoin:miter;stroke-opacity:1"/>
<path class="bond-14 atom-14 atom-15" d="M 1092.1,654.0 L 1125.3,674.3" style="fill:none;fill-rule:evenodd;stroke:#191919;stroke-width:2.0px;stroke-linecap:butt;stroke-linejoin:miter;stroke-opacity:1"/>
<path class="bond-15 atom-14 atom-16" d="M 1065.4,637.7 L 1066.4,599.7" style="fill:none;fill-rule:evenodd;stroke:#000000;stroke-width:2.0px;stroke-linecap:butt;stroke-linejoin:miter;stroke-opacity:1"/>
<path class="bond-15 atom-14 atom-16" d="M 1066.4,599.7 L 1067.3,561.7" style="fill:none;fill-rule:evenodd;stroke:#FF0000;stroke-width:2.0px;stroke-linecap:butt;stroke-linejoin:miter;stroke-opacity:1"/>
<path class="bond-15 atom-14 atom-16" d="M 1052.2,637.4 L 1053.1,599.4" style="fill:none;fill-rule:evenodd;stroke:#000000;stroke-width:2.0px;stroke-linecap:butt;stroke-linejoin:miter;stroke-opacity:1"/>
<path class="bond-15 atom-14 atom-16" d="M 1053.1,599.4 L 1054.1,561.4" style="fill:none;fill-rule:evenodd;stroke:#FF0000;stroke-width:2.0px;stroke-linecap:butt;stroke-linejoin:miter;stroke-opacity:1"/>
<path d="M 217.0,655.8 L 218.5,656.8 L 222.4,654.7" style="fill:none;stroke:#000000;stroke-width:2.0px;stroke-linecap:butt;stroke-linejoin:miter;stroke-opacity:1;"/>
<path d="M 292.0,616.7 L 295.9,614.6 L 299.7,616.9" style="fill:none;stroke:#000000;stroke-width:2.0px;stroke-linecap:butt;stroke-linejoin:miter;stroke-opacity:1;"/>
<path d="M 367.3,658.3 L 371.1,660.6 L 375.0,658.5" style="fill:none;stroke:#000000;stroke-width:2.0px;stroke-linecap:butt;stroke-linejoin:miter;stroke-opacity:1;"/>
<path d="M 444.6,620.6 L 448.5,618.5 L 450.0,619.4" style="fill:none;stroke:#000000;stroke-width:2.0px;stroke-linecap:butt;stroke-linejoin:miter;stroke-opacity:1;"/>
<path d="M 599.5,623.1 L 601.1,622.3 L 604.9,624.6" style="fill:none;stroke:#000000;stroke-width:2.0px;stroke-linecap:butt;stroke-linejoin:miter;stroke-opacity:1;"/>
<path d="M 672.5,665.9 L 676.3,668.2 L 680.2,666.1" style="fill:none;stroke:#000000;stroke-width:2.0px;stroke-linecap:butt;stroke-linejoin:miter;stroke-opacity:1;"/>
<path d="M 749.8,628.2 L 753.7,626.1 L 757.5,628.4" style="fill:none;stroke:#000000;stroke-width:2.0px;stroke-linecap:butt;stroke-linejoin:miter;stroke-opacity:1;"/>
<path d="M 825.1,669.8 L 828.9,672.1 L 832.8,670.0" style="fill:none;stroke:#000000;stroke-width:2.0px;stroke-linecap:butt;stroke-linejoin:miter;stroke-opacity:1;"/>
<path d="M 902.4,632.0 L 906.3,629.9 L 910.1,632.2" style="fill:none;stroke:#000000;stroke-width:2.0px;stroke-linecap:butt;stroke-linejoin:miter;stroke-opacity:1;"/>
<path d="M 977.7,673.6 L 981.5,675.9 L 985.4,673.8" style="fill:none;stroke:#000000;stroke-width:2.0px;stroke-linecap:butt;stroke-linejoin:miter;stroke-opacity:1;"/>
<path d="M 1055.0,635.9 L 1058.9,633.7 L 1060.6,634.8" style="fill:none;stroke:#000000;stroke-width:2.0px;stroke-linecap:butt;stroke-linejoin:miter;stroke-opacity:1;"/>
<path class="atom-0" d="M 61.2 650.2 L 64.9 646.4 L 60.0 645.4 L 60.7 642.9 L 65.2 645.2 L 64.6 640.3 L 67.2 640.3 L 66.5 645.2 L 71.0 643.0 L 71.8 645.4 L 66.9 646.4 L 70.4 650.1 L 68.2 651.7 L 65.8 647.0 L 63.3 651.7 L 61.2 650.2 " fill="#191919"/>
<path class="atom-1" d="M 131.9 610.9 Q 131.9 604.9, 134.8 601.5 Q 137.8 598.2, 143.3 598.2 Q 148.8 598.2, 151.8 601.5 Q 154.8 604.9, 154.8 610.9 Q 154.8 616.9, 151.8 620.4 Q 148.8 623.8, 143.3 623.8 Q 137.8 623.8, 134.8 620.4 Q 131.9 617.0, 131.9 610.9 M 143.3 621.0 Q 147.1 621.0, 149.2 618.5 Q 151.2 615.9, 151.2 610.9 Q 151.2 606.0, 149.2 603.5 Q 147.1 601.0, 143.3 601.0 Q 139.5 601.0, 137.4 603.5 Q 135.4 605.9, 135.4 610.9 Q 135.4 615.9, 137.4 618.5 Q 139.5 621.0, 143.3 621.0 " fill="#FF0000"/>
<path class="atom-6" d="M 512.2 664.5 Q 512.2 658.5, 515.2 655.1 Q 518.2 651.8, 523.7 651.8 Q 529.2 651.8, 532.2 655.1 Q 535.2 658.5, 535.2 664.5 Q 535.2 670.6, 532.2 674.0 Q 529.2 677.4, 523.7 677.4 Q 518.2 677.4, 515.2 674.0 Q 512.2 670.6, 512.2 664.5 M 523.7 674.6 Q 527.5 674.6, 529.6 672.1 Q 531.6 669.5, 531.6 664.5 Q 531.6 659.6, 529.6 657.1 Q 527.5 654.6, 523.7 654.6 Q 519.9 654.6, 517.8 657.1 Q 515.8 659.6, 515.8 664.5 Q 515.8 669.5, 517.8 672.1 Q 519.9 674.6, 523.7 674.6 " fill="#FF0000"/>
<path class="atom-8" d="M 591.9 534.2 Q 591.9 528.3, 594.8 524.9 Q 597.8 521.6, 603.3 521.6 Q 608.8 521.6, 611.8 524.9 Q 614.8 528.3, 614.8 534.2 Q 614.8 540.3, 611.8 543.8 Q 608.8 547.2, 603.3 547.2 Q 597.8 547.2, 594.8 543.8 Q 591.9 540.3, 591.9 534.2 M 603.3 544.4 Q 607.1 544.4, 609.2 541.8 Q 611.2 539.3, 611.2 534.2 Q 611.2 529.3, 609.2 526.9 Q 607.1 524.4, 603.3 524.4 Q 599.5 524.4, 597.4 526.8 Q 595.4 529.3, 595.4 534.2 Q 595.4 539.3, 597.4 541.8 Q 599.5 544.4, 603.3 544.4 " fill="#FF0000"/>
<path class="atom-15" d="M 1129.4 676.9 L 1133.1 673.2 L 1128.2 672.2 L 1128.9 669.7 L 1133.4 672.0 L 1132.8 667.1 L 1135.4 667.0 L 1134.7 671.9 L 1139.2 669.8 L 1140.0 672.2 L 1135.1 673.1 L 1138.6 676.9 L 1136.4 678.4 L 1134.0 673.8 L 1131.5 678.4 L 1129.4 676.9 " fill="#191919"/>
<path class="atom-16" d="M 1049.7 545.7 Q 1049.7 539.7, 1052.6 536.4 Q 1055.6 533.0, 1061.1 533.0 Q 1066.6 533.0, 1069.6 536.4 Q 1072.6 539.7, 1072.6 545.7 Q 1072.6 551.8, 1069.6 555.2 Q 1066.6 558.7, 1061.1 558.7 Q 1055.6 558.7, 1052.6 555.2 Q 1049.7 551.8, 1049.7 545.7 M 1061.1 555.8 Q 1064.9 555.8, 1067.0 553.3 Q 1069.0 550.7, 1069.0 545.7 Q 1069.0 540.8, 1067.0 538.3 Q 1064.9 535.8, 1061.1 535.8 Q 1057.3 535.8, 1055.2 538.3 Q 1053.2 540.8, 1053.2 545.7 Q 1053.2 550.8, 1055.2 553.3 Q 1057.3 555.8, 1061.1 555.8 " fill="#FF0000"/>
<path class="bond-0 atom-0 atom-1" d="M 756.1,946.2 L 741.3,977.5" style="fill:none;fill-rule:evenodd;stroke:#191919;stroke-width:2.0px;stroke-linecap:butt;stroke-linejoin:miter;stroke-opacity:1"/>
<path class="bond-0 atom-0 atom-1" d="M 741.3,977.5 L 726.6,1008.7" style="fill:none;fill-rule:evenodd;stroke:#FF0000;stroke-width:2.0px;stroke-linecap:butt;stroke-linejoin:miter;stroke-opacity:1"/>
<path class="bond-1 atom-1 atom-2" d="M 704.9,1025.5 L 668.2,1028.5" style="fill:none;fill-rule:evenodd;stroke:#FF0000;stroke-width:2.0px;stroke-linecap:butt;stroke-linejoin:miter;stroke-opacity:1"/>
<path class="bond-1 atom-1 atom-2" d="M 668.2,1028.5 L 631.5,1031.6" style="fill:none;fill-rule:evenodd;stroke:#000000;stroke-width:2.0px;stroke-linecap:butt;stroke-linejoin:miter;stroke-opacity:1"/>
<path class="bond-2 atom-2 atom-3" d="M 631.5,1031.6 L 593.9,1111.3" style="fill:none;fill-rule:evenodd;stroke:#000000;stroke-width:2.0px;stroke-linecap:butt;stroke-linejoin:miter;stroke-opacity:1"/>
<path class="bond-3 atom-3 atom-4" d="M 593.9,1111.3 L 506.0,1118.6" style="fill:none;fill-rule:evenodd;stroke:#000000;stroke-width:2.0px;stroke-linecap:butt;stroke-linejoin:miter;stroke-opacity:1"/>
<path class="bond-4 atom-2 atom-5" d="M 631.5,1031.6 L 581.2,959.2" style="fill:none;fill-rule:evenodd;stroke:#000000;stroke-width:2.0px;stroke-linecap:butt;stroke-linejoin:miter;stroke-opacity:1"/>
<path class="bond-5 atom-5 atom-6" d="M 581.2,959.2 L 493.4,966.5" style="fill:none;fill-rule:evenodd;stroke:#000000;stroke-width:2.0px;stroke-linecap:butt;stroke-linejoin:miter;stroke-opacity:1"/>
<path class="bond-6 atom-6 atom-7" d="M 493.4,966.5 L 468.8,931.1" style="fill:none;fill-rule:evenodd;stroke:#000000;stroke-width:2.0px;stroke-linecap:butt;stroke-linejoin:miter;stroke-opacity:1"/>
<path class="bond-6 atom-6 atom-7" d="M 468.8,931.1 L 444.3,895.7" style="fill:none;fill-rule:evenodd;stroke:#191919;stroke-width:2.0px;stroke-linecap:butt;stroke-linejoin:miter;stroke-opacity:1"/>
<path class="bond-7 atom-6 atom-8" d="M 489.0,960.2 L 473.1,994.0" style="fill:none;fill-rule:evenodd;stroke:#000000;stroke-width:2.0px;stroke-linecap:butt;stroke-linejoin:miter;stroke-opacity:1"/>
<path class="bond-7 atom-6 atom-8" d="M 473.1,994.0 L 457.1,1027.9" style="fill:none;fill-rule:evenodd;stroke:#FF0000;stroke-width:2.0px;stroke-linecap:butt;stroke-linejoin:miter;stroke-opacity:1"/>
<path class="bond-7 atom-6 atom-8" d="M 501.0,965.9 L 485.0,999.7" style="fill:none;fill-rule:evenodd;stroke:#000000;stroke-width:2.0px;stroke-linecap:butt;stroke-linejoin:miter;stroke-opacity:1"/>
<path class="bond-7 atom-6 atom-8" d="M 485.0,999.7 L 469.1,1033.5" style="fill:none;fill-rule:evenodd;stroke:#FF0000;stroke-width:2.0px;stroke-linecap:butt;stroke-linejoin:miter;stroke-opacity:1"/>
<path d="M 595.7,1107.3 L 593.9,1111.3 L 589.5,1111.7" style="fill:none;stroke:#000000;stroke-width:2.0px;stroke-linecap:butt;stroke-linejoin:miter;stroke-opacity:1;"/>
<path d="M 583.7,962.8 L 581.2,959.2 L 576.8,959.5" style="fill:none;stroke:#000000;stroke-width:2.0px;stroke-linecap:butt;stroke-linejoin:miter;stroke-opacity:1;"/>
<path d="M 497.8,966.1 L 493.4,966.5 L 492.2,964.7" style="fill:none;stroke:#000000;stroke-width:2.0px;stroke-linecap:butt;stroke-linejoin:miter;stroke-opacity:1;"/>
<path class="atom-0" d="M 752.2 941.8 L 755.8 938.0 L 751.0 937.1 L 751.7 934.5 L 756.2 936.8 L 755.5 931.9 L 758.2 931.9 L 757.4 936.8 L 762.0 934.7 L 762.8 937.1 L 757.8 938.0 L 761.4 941.7 L 759.2 943.3 L 756.8 938.6 L 754.3 943.3 L 752.2 941.8 " fill="#191919"/>
<path class="atom-1" d="M 707.8 1024.3 Q 707.8 1018.4, 710.8 1015.0 Q 713.7 1011.7, 719.3 1011.7 Q 724.8 1011.7, 727.8 1015.0 Q 730.7 1018.4, 730.7 1024.3 Q 730.7 1030.4, 727.7 1033.9 Q 724.7 1037.3, 719.3 1037.3 Q 713.8 1037.3, 710.8 1033.9 Q 707.8 1030.4, 707.8 1024.3 M 719.3 1034.5 Q 723.1 1034.5, 725.1 1031.9 Q 727.2 1029.4, 727.2 1024.3 Q 727.2 1019.4, 725.1 1017.0 Q 723.1 1014.5, 719.3 1014.5 Q 715.5 1014.5, 713.4 1016.9 Q 711.3 1019.4, 711.3 1024.3 Q 711.3 1029.4, 713.4 1031.9 Q 715.5 1034.5, 719.3 1034.5 " fill="#FF0000"/>
<path class="atom-7" d="M 438.4 891.3 L 442.1 887.6 L 437.2 886.6 L 438.0 884.1 L 442.5 886.3 L 441.8 881.4 L 444.5 881.4 L 443.7 886.3 L 448.3 884.2 L 449.0 886.6 L 444.1 887.5 L 447.6 891.3 L 445.5 892.8 L 443.0 888.2 L 440.6 892.8 L 438.4 891.3 " fill="#191919"/>
<path class="atom-8" d="M 444.3 1046.3 Q 444.3 1040.3, 447.3 1036.9 Q 450.3 1033.6, 455.8 1033.6 Q 461.3 1033.6, 464.3 1036.9 Q 467.3 1040.3, 467.3 1046.3 Q 467.3 1052.3, 464.3 1055.8 Q 461.3 1059.2, 455.8 1059.2 Q 450.3 1059.2, 447.3 1055.8 Q 444.3 1052.4, 444.3 1046.3 M 455.8 1056.4 Q 459.6 1056.4, 461.7 1053.9 Q 463.7 1051.3, 463.7 1046.3 Q 463.7 1041.4, 461.7 1038.9 Q 459.6 1036.4, 455.8 1036.4 Q 452.0 1036.4, 449.9 1038.9 Q 447.9 1041.3, 447.9 1046.3 Q 447.9 1051.3, 449.9 1053.9 Q 452.0 1056.4, 455.8 1056.4 " fill="#FF0000"/>
<path class="bond-0 atom-0 atom-1" d="M 758.3,1318.7 L 747.7,1352.1" style="fill:none;fill-rule:evenodd;stroke:#191919;stroke-width:2.0px;stroke-linecap:butt;stroke-linejoin:miter;stroke-opacity:1"/>
<path class="bond-0 atom-0 atom-1" d="M 747.7,1352.1 L 737.1,1385.5" style="fill:none;fill-rule:evenodd;stroke:#FF0000;stroke-width:2.0px;stroke-linecap:butt;stroke-linejoin:miter;stroke-opacity:1"/>
<path class="bond-1 atom-1 atom-2" d="M 717.8,1404.2 L 681.9,1412.1" style="fill:none;fill-rule:evenodd;stroke:#FF0000;stroke-width:2.0px;stroke-linecap:butt;stroke-linejoin:miter;stroke-opacity:1"/>
<path class="bond-1 atom-1 atom-2" d="M 681.9,1412.1 L 646.1,1420.0" style="fill:none;fill-rule:evenodd;stroke:#000000;stroke-width:2.0px;stroke-linecap:butt;stroke-linejoin:miter;stroke-opacity:1"/>
<path class="bond-2 atom-2 atom-3" d="M 646.1,1420.0 L 619.4,1504.0" style="fill:none;fill-rule:evenodd;stroke:#000000;stroke-width:2.0px;stroke-linecap:butt;stroke-linejoin:miter;stroke-opacity:1"/>
<path class="bond-3 atom-2 atom-4" d="M 646.1,1420.0 L 586.7,1354.9" style="fill:none;fill-rule:evenodd;stroke:#000000;stroke-width:2.0px;stroke-linecap:butt;stroke-linejoin:miter;stroke-opacity:1"/>
<path class="bond-4 atom-4 atom-5" d="M 586.7,1354.9 L 500.6,1373.8" style="fill:none;fill-rule:evenodd;stroke:#000000;stroke-width:2.0px;stroke-linecap:butt;stroke-linejoin:miter;stroke-opacity:1"/>
<path class="bond-5 atom-5 atom-6" d="M 500.6,1373.8 L 471.6,1342.1" style="fill:none;fill-rule:evenodd;stroke:#000000;stroke-width:2.0px;stroke-linecap:butt;stroke-linejoin:miter;stroke-opacity:1"/>
<path class="bond-5 atom-5 atom-6" d="M 471.6,1342.1 L 442.7,1310.4" style="fill:none;fill-rule:evenodd;stroke:#191919;stroke-width:2.0px;stroke-linecap:butt;stroke-linejoin:miter;stroke-opacity:1"/>
<path class="bond-6 atom-5 atom-7" d="M 495.5,1368.2 L 484.0,1404.2" style="fill:none;fill-rule:evenodd;stroke:#000000;stroke-width:2.0px;stroke-linecap:butt;stroke-linejoin:miter;stroke-opacity:1"/>
<path class="bond-6 atom-5 atom-7" d="M 484.0,1404.2 L 472.6,1440.3" style="fill:none;fill-rule:evenodd;stroke:#FF0000;stroke-width:2.0px;stroke-linecap:butt;stroke-linejoin:miter;stroke-opacity:1"/>
<path class="bond-6 atom-5 atom-7" d="M 508.1,1372.2 L 496.6,1408.2" style="fill:none;fill-rule:evenodd;stroke:#000000;stroke-width:2.0px;stroke-linecap:butt;stroke-linejoin:miter;stroke-opacity:1"/>
<path class="bond-6 atom-5 atom-7" d="M 496.6,1408.2 L 485.2,1444.3" style="fill:none;fill-rule:evenodd;stroke:#FF0000;stroke-width:2.0px;stroke-linecap:butt;stroke-linejoin:miter;stroke-opacity:1"/>
<path d="M 589.6,1358.1 L 586.7,1354.9 L 582.4,1355.8" style="fill:none;stroke:#000000;stroke-width:2.0px;stroke-linecap:butt;stroke-linejoin:miter;stroke-opacity:1;"/>
<path d="M 504.9,1372.9 L 500.6,1373.8 L 499.1,1372.2" style="fill:none;stroke:#000000;stroke-width:2.0px;stroke-linecap:butt;stroke-linejoin:miter;stroke-opacity:1;"/>
<path class="atom-0" d="M 754.1 1314.3 L 757.8 1310.5 L 752.9 1309.5 L 753.7 1307.0 L 758.1 1309.3 L 757.5 1304.4 L 760.1 1304.4 L 759.4 1309.3 L 764.0 1307.1 L 764.7 1309.5 L 759.8 1310.5 L 763.3 1314.2 L 761.2 1315.8 L 758.7 1311.1 L 756.3 1315.8 L 754.1 1314.3 " fill="#191919"/>
<path class="atom-1" d="M 720.7 1401.1 Q 720.7 1395.1, 723.7 1391.8 Q 726.6 1388.4, 732.2 1388.4 Q 737.7 1388.4, 740.7 1391.8 Q 743.6 1395.1, 743.6 1401.1 Q 743.6 1407.2, 740.6 1410.6 Q 737.6 1414.1, 732.2 1414.1 Q 726.7 1414.1, 723.7 1410.6 Q 720.7 1407.2, 720.7 1401.1 M 732.2 1411.2 Q 736.0 1411.2, 738.0 1408.7 Q 740.1 1406.1, 740.1 1401.1 Q 740.1 1396.2, 738.0 1393.8 Q 736.0 1391.3, 732.2 1391.3 Q 728.4 1391.3, 726.3 1393.7 Q 724.2 1396.2, 724.2 1401.1 Q 724.2 1406.2, 726.3 1408.7 Q 728.4 1411.2, 732.2 1411.2 " fill="#FF0000"/>
<path class="atom-6" d="M 436.5 1305.9 L 440.1 1302.2 L 435.3 1301.2 L 436.0 1298.7 L 440.5 1301.0 L 439.9 1296.1 L 442.5 1296.0 L 441.8 1300.9 L 446.3 1298.8 L 447.1 1301.2 L 442.1 1302.1 L 445.7 1305.9 L 443.5 1307.4 L 441.1 1302.8 L 438.6 1307.4 L 436.5 1305.9 " fill="#191919"/>
<path class="atom-7" d="M 462.5 1457.9 Q 462.5 1451.9, 465.4 1448.5 Q 468.4 1445.2, 473.9 1445.2 Q 479.5 1445.2, 482.4 1448.5 Q 485.4 1451.9, 485.4 1457.9 Q 485.4 1463.9, 482.4 1467.4 Q 479.4 1470.8, 473.9 1470.8 Q 468.4 1470.8, 465.4 1467.4 Q 462.5 1464.0, 462.5 1457.9 M 473.9 1468.0 Q 477.7 1468.0, 479.8 1465.5 Q 481.9 1462.9, 481.9 1457.9 Q 481.9 1453.0, 479.8 1450.5 Q 477.7 1448.0, 473.9 1448.0 Q 470.1 1448.0, 468.1 1450.5 Q 466.0 1452.9, 466.0 1457.9 Q 466.0 1462.9, 468.1 1465.5 Q 470.1 1468.0, 473.9 1468.0 " fill="#FF0000"/>
<path class="bond-0 atom-0 atom-1" d="M 731.2,1769.8 L 714.2,1799.4" style="fill:none;fill-rule:evenodd;stroke:#191919;stroke-width:2.0px;stroke-linecap:butt;stroke-linejoin:miter;stroke-opacity:1"/>
<path class="bond-0 atom-0 atom-1" d="M 714.2,1799.4 L 697.1,1828.9" style="fill:none;fill-rule:evenodd;stroke:#FF0000;stroke-width:2.0px;stroke-linecap:butt;stroke-linejoin:miter;stroke-opacity:1"/>
<path class="bond-1 atom-1 atom-2" d="M 673.8,1844.5 L 636.9,1844.5" style="fill:none;fill-rule:evenodd;stroke:#FF0000;stroke-width:2.0px;stroke-linecap:butt;stroke-linejoin:miter;stroke-opacity:1"/>
<path class="bond-1 atom-1 atom-2" d="M 636.9,1844.5 L 600.0,1844.5" style="fill:none;fill-rule:evenodd;stroke:#000000;stroke-width:2.0px;stroke-linecap:butt;stroke-linejoin:miter;stroke-opacity:1"/>
<path class="bond-2 atom-2 atom-3" d="M 600.0,1844.5 L 555.9,1920.8" style="fill:none;fill-rule:evenodd;stroke:#000000;stroke-width:2.0px;stroke-linecap:butt;stroke-linejoin:miter;stroke-opacity:1"/>
<path class="bond-3 atom-2 atom-4" d="M 600.0,1844.5 L 555.9,1768.1" style="fill:none;fill-rule:evenodd;stroke:#000000;stroke-width:2.0px;stroke-linecap:butt;stroke-linejoin:miter;stroke-opacity:1"/>
<path class="bond-4 atom-4 atom-5" d="M 555.9,1768.1 L 516.3,1768.1" style="fill:none;fill-rule:evenodd;stroke:#000000;stroke-width:2.0px;stroke-linecap:butt;stroke-linejoin:miter;stroke-opacity:1"/>
<path class="bond-4 atom-4 atom-5" d="M 516.3,1768.1 L 476.6,1768.1" style="fill:none;fill-rule:evenodd;stroke:#191919;stroke-width:2.0px;stroke-linecap:butt;stroke-linejoin:miter;stroke-opacity:1"/>
<path class="bond-5 atom-4 atom-6" d="M 559.8,1774.8 L 578.1,1742.9" style="fill:none;fill-rule:evenodd;stroke:#000000;stroke-width:2.0px;stroke-linecap:butt;stroke-linejoin:miter;stroke-opacity:1"/>
<path class="bond-5 atom-4 atom-6" d="M 578.1,1742.9 L 596.5,1711.0" style="fill:none;fill-rule:evenodd;stroke:#FF0000;stroke-width:2.0px;stroke-linecap:butt;stroke-linejoin:miter;stroke-opacity:1"/>
<path class="bond-5 atom-4 atom-6" d="M 548.3,1768.1 L 566.7,1736.3" style="fill:none;fill-rule:evenodd;stroke:#000000;stroke-width:2.0px;stroke-linecap:butt;stroke-linejoin:miter;stroke-opacity:1"/>
<path class="bond-5 atom-4 atom-6" d="M 566.7,1736.3 L 585.1,1704.4" style="fill:none;fill-rule:evenodd;stroke:#FF0000;stroke-width:2.0px;stroke-linecap:butt;stroke-linejoin:miter;stroke-opacity:1"/>
<path d="M 558.1,1772.0 L 555.9,1768.1 L 554.0,1768.1" style="fill:none;stroke:#000000;stroke-width:2.0px;stroke-linecap:butt;stroke-linejoin:miter;stroke-opacity:1;"/>
<path class="atom-0" d="M 727.5 1765.4 L 731.2 1761.6 L 726.3 1760.6 L 727.0 1758.1 L 731.5 1760.4 L 730.9 1755.5 L 733.5 1755.5 L 732.8 1760.4 L 737.3 1758.2 L 738.1 1760.6 L 733.2 1761.6 L 736.7 1765.3 L 734.5 1766.9 L 732.1 1762.2 L 729.6 1766.9 L 727.5 1765.4 " fill="#191919"/>
<path class="atom-1" d="M 676.7 1844.5 Q 676.7 1838.5, 679.6 1835.2 Q 682.6 1831.9, 688.1 1831.9 Q 693.7 1831.9, 696.6 1835.2 Q 699.6 1838.5, 699.6 1844.5 Q 699.6 1850.6, 696.6 1854.1 Q 693.6 1857.5, 688.1 1857.5 Q 682.6 1857.5, 679.6 1854.1 Q 676.7 1850.6, 676.7 1844.5 M 688.1 1854.7 Q 691.9 1854.7, 694.0 1852.1 Q 696.1 1849.5, 696.1 1844.5 Q 696.1 1839.6, 694.0 1837.2 Q 691.9 1834.7, 688.1 1834.7 Q 684.3 1834.7, 682.2 1837.1 Q 680.2 1839.6, 680.2 1844.5 Q 680.2 1849.6, 682.2 1852.1 Q 684.3 1854.7, 688.1 1854.7 " fill="#FF0000"/>
<path class="atom-5" d="M 463.1 1765.4 L 466.8 1761.6 L 461.9 1760.6 L 462.6 1758.1 L 467.1 1760.4 L 466.5 1755.5 L 469.1 1755.5 L 468.4 1760.4 L 472.9 1758.2 L 473.7 1760.6 L 468.8 1761.6 L 472.3 1765.3 L 470.1 1766.9 L 467.7 1762.2 L 465.2 1766.9 L 463.1 1765.4 " fill="#191919"/>
<path class="atom-6" d="M 588.5 1691.9 Q 588.5 1685.9, 591.5 1682.6 Q 594.5 1679.2, 600.0 1679.2 Q 605.5 1679.2, 608.5 1682.6 Q 611.5 1685.9, 611.5 1691.9 Q 611.5 1698.0, 608.5 1701.4 Q 605.5 1704.8, 600.0 1704.8 Q 594.5 1704.8, 591.5 1701.4 Q 588.5 1698.0, 588.5 1691.9 M 600.0 1702.0 Q 603.8 1702.0, 605.9 1699.5 Q 607.9 1696.9, 607.9 1691.9 Q 607.9 1687.0, 605.9 1684.5 Q 603.8 1682.0, 600.0 1682.0 Q 596.2 1682.0, 594.1 1684.5 Q 592.1 1687.0, 592.1 1691.9 Q 592.1 1696.9, 594.1 1699.5 Q 596.2 1702.0, 600.0 1702.0 " fill="#FF0000"/>
</svg>