<svg xmlns="http://www.w3.org/2000/svg" xmlns:rdkit="http://www.rdkit.org/xml" xmlns:xlink="http://www.w3.org/1999/xlink" version="1.1" baseProfile="full" xml:space="preserve" width="1200px" height="800px" viewBox="0 0 1200 800">
<!-- END OF HEADER -->
<rect style="opacity:1.0;fill:#FFFFFF;stroke:none" width="1200.0" height="800.0" x="0.0" y="0.0"> </rect>
<path class="bond-0 atom-0 atom-1" d="M 761.1,199.4 L 735.2,244.3" style="fill:none;fill-rule:evenodd;stroke:#191919;stroke-width:2.0px;stroke-linecap:butt;stroke-linejoin:miter;stroke-opacity:1"/>
<path class="bond-0 atom-0 atom-1" d="M 735.2,244.3 L 709.2,289.2" style="fill:none;fill-rule:evenodd;stroke:#000000;stroke-width:2.0px;stroke-linecap:butt;stroke-linejoin:miter;stroke-opacity:1"/>
<path class="bond-1 atom-1 atom-2" d="M 709.2,289.2 L 603.2,289.2" style="fill:none;fill-rule:evenodd;stroke:#000000;stroke-width:2.0px;stroke-linecap:butt;stroke-linejoin:miter;stroke-opacity:1"/>
<path class="bond-2 atom-2 atom-3" d="M 603.2,289.2 L 581.7,326.3" style="fill:none;fill-rule:evenodd;stroke:#000000;stroke-width:2.0px;stroke-linecap:butt;stroke-linejoin:miter;stroke-opacity:1"/>
<path class="bond-2 atom-2 atom-3" d="M 581.7,326.3 L 560.3,363.4" style="fill:none;fill-rule:evenodd;stroke:#191919;stroke-width:2.0px;stroke-linecap:butt;stroke-linejoin:miter;stroke-opacity:1"/>
<path class="bond-3 atom-2 atom-4" d="M 603.2,289.2 L 550.1,197.3" style="fill:none;fill-rule:evenodd;stroke:#000000;stroke-width:2.0px;stroke-linecap:butt;stroke-linejoin:miter;stroke-opacity:1"/>
<path class="bond-4 atom-4 atom-5" d="M 554.7,205.3 L 577.1,166.5" style="fill:none;fill-rule:evenodd;stroke:#000000;stroke-width:2.0px;stroke-linecap:butt;stroke-linejoin:miter;stroke-opacity:1"/>
<path class="bond-4 atom-4 atom-5" d="M 577.1,166.5 L 599.5,127.7" style="fill:none;fill-rule:evenodd;stroke:#FF0000;stroke-width:2.0px;stroke-linecap:butt;stroke-linejoin:miter;stroke-opacity:1"/>
<path class="bond-4 atom-4 atom-5" d="M 540.9,197.3 L 563.3,158.5" style="fill:none;fill-rule:evenodd;stroke:#000000;stroke-width:2.0px;stroke-linecap:butt;stroke-linejoin:miter;stroke-opacity:1"/>
<path class="bond-4 atom-4 atom-5" d="M 563.3,158.5 L 585.7,119.7" style="fill:none;fill-rule:evenodd;stroke:#FF0000;stroke-width:2.0px;stroke-linecap:butt;stroke-linejoin:miter;stroke-opacity:1"/>
<path class="bond-5 atom-4 atom-6" d="M 550.1,197.3 L 505.3,197.3" style="fill:none;fill-rule:evenodd;stroke:#000000;stroke-width:2.0px;stroke-linecap:butt;stroke-linejoin:miter;stroke-opacity:1"/>
<path class="bond-5 atom-4 atom-6" d="M 505.3,197.3 L 460.5,197.3" style="fill:none;fill-rule:evenodd;stroke:#FF0000;stroke-width:2.0px;stroke-linecap:butt;stroke-linejoin:miter;stroke-opacity:1"/>
<path d="M 710.5,286.9 L 709.2,289.2 L 703.9,289.2" style="fill:none;stroke:#000000;stroke-width:2.0px;stroke-linecap:butt;stroke-linejoin:miter;stroke-opacity:1;"/>
<path d="M 552.8,201.9 L 550.1,197.3 L 547.9,197.3" style="fill:none;stroke:#000000;stroke-width:2.0px;stroke-linecap:butt;stroke-linejoin:miter;stroke-opacity:1;"/>
<path class="atom-0" d="M 756.9 194.1 L 761.1 189.9 L 755.6 188.8 L 756.4 185.9 L 761.5 188.5 L 760.8 182.9 L 763.8 182.9 L 762.9 188.5 L 768.1 186.1 L 769.0 188.8 L 763.4 189.8 L 767.4 194.1 L 764.9 195.9 L 762.2 190.6 L 759.4 195.9 L 756.9 194.1 " fill="#191919"/>
<path class="atom-3" d="M 544.8 377.9 L 548.9 373.6 L 543.4 372.5 L 544.2 369.7 L 549.3 372.2 L 548.6 366.7 L 551.6 366.6 L 550.8 372.2 L 555.9 369.8 L 556.8 372.5 L 551.2 373.6 L 555.2 377.8 L 552.8 379.6 L 550.0 374.3 L 547.2 379.6 L 544.8 377.9 " fill="#191919"/>
<path class="atom-5" d="M 590.1 105.5 Q 590.1 98.7, 593.5 94.9 Q 596.9 91.1, 603.1 91.1 Q 609.4 91.1, 612.8 94.9 Q 616.1 98.7, 616.1 105.5 Q 616.1 112.4, 612.7 116.3 Q 609.3 120.2, 603.1 120.2 Q 596.9 120.2, 593.5 116.3 Q 590.1 112.4, 590.1 105.5 M 603.1 117.0 Q 607.5 117.0, 609.8 114.1 Q 612.1 111.2, 612.1 105.5 Q 612.1 99.9, 609.8 97.1 Q 607.5 94.3, 603.1 94.3 Q 598.8 94.3, 596.5 97.1 Q 594.1 99.9, 594.1 105.5 Q 594.1 111.2, 596.5 114.1 Q 598.8 117.0, 603.1 117.0 " fill="#FF0000"/>
<path class="atom-6" d="M 431.0 197.4 Q 431.0 190.6, 434.4 186.8 Q 437.7 183.0, 444.0 183.0 Q 450.3 183.0, 453.7 186.8 Q 457.0 190.6, 457.0 197.4 Q 457.0 204.3, 453.6 208.2 Q 450.2 212.1, 444.0 212.1 Q 437.8 212.1, 434.4 208.2 Q 431.0 204.3, 431.0 197.4 M 444.0 208.9 Q 448.3 208.9, 450.7 206.0 Q 453.0 203.1, 453.0 197.4 Q 453.0 191.8, 450.7 189.0 Q 448.3 186.2, 444.0 186.2 Q 439.7 186.2, 437.3 189.0 Q 435.0 191.8, 435.0 197.4 Q 435.0 203.1, 437.3 206.0 Q 439.7 208.9, 444.0 208.9 " fill="#FF0000"/>
<path class="atom-6" d="M 461.1 187.6 L 470.7 187.6 L 470.7 189.7 L 461.1 189.7 L 461.1 187.6 " fill="#FF0000"/>
<path class="atom-7" d="M 592.3 20.5 L 596.1 20.5 L 596.1 48.9 L 592.3 48.9 L 592.3 20.5 M 608.0 20.5 L 613.2 20.5 L 602.0 33.4 L 614.1 48.9 L 609.0 48.9 L 596.9 33.6 L 608.0 20.5 " fill="#000000"/>
<path class="atom-7" d="M 616.4 25.6 L 621.3 25.6 L 621.3 20.4 L 623.6 20.4 L 623.6 25.6 L 628.7 25.6 L 628.7 27.5 L 623.6 27.5 L 623.6 32.8 L 621.3 32.8 L 621.3 27.5 L 616.4 27.5 L 616.4 25.6 " fill="#000000"/>
<path class="bond-0 atom-0 atom-1" d="M 781.9,564.0 L 756.0,608.9" style="fill:none;fill-rule:evenodd;stroke:#191919;stroke-width:2.0px;stroke-linecap:butt;stroke-linejoin:miter;stroke-opacity:1"/>
<path class="bond-0 atom-0 atom-1" d="M 756.0,608.9 L 730.1,653.8" style="fill:none;fill-rule:evenodd;stroke:#000000;stroke-width:2.0px;stroke-linecap:butt;stroke-linejoin:miter;stroke-opacity:1"/>
<path class="bond-1 atom-1 atom-2" d="M 730.1,653.8 L 624.0,653.8" style="fill:none;fill-rule:evenodd;stroke:#000000;stroke-width:2.0px;stroke-linecap:butt;stroke-linejoin:miter;stroke-opacity:1"/>
<path class="bond-2 atom-2 atom-3" d="M 624.0,653.8 L 602.6,690.9" style="fill:none;fill-rule:evenodd;stroke:#000000;stroke-width:2.0px;stroke-linecap:butt;stroke-linejoin:miter;stroke-opacity:1"/>
<path class="bond-2 atom-2 atom-3" d="M 602.6,690.9 L 581.1,728.0" style="fill:none;fill-rule:evenodd;stroke:#191919;stroke-width:2.0px;stroke-linecap:butt;stroke-linejoin:miter;stroke-opacity:1"/>
<path class="bond-3 atom-2 atom-4" d="M 624.0,653.8 L 570.9,561.9" style="fill:none;fill-rule:evenodd;stroke:#000000;stroke-width:2.0px;stroke-linecap:butt;stroke-linejoin:miter;stroke-opacity:1"/>
<path class="bond-4 atom-4 atom-5" d="M 570.9,561.9 L 525.0,561.9" style="fill:none;fill-rule:evenodd;stroke:#000000;stroke-width:2.0px;stroke-linecap:butt;stroke-linejoin:miter;stroke-opacity:1"/>
<path class="bond-4 atom-4 atom-5" d="M 525.0,561.9 L 479.1,561.9" style="fill:none;fill-rule:evenodd;stroke:#0000FF;stroke-width:2.0px;stroke-linecap:butt;stroke-linejoin:miter;stroke-opacity:1"/>
<path class="bond-5 atom-4 atom-6" d="M 575.5,569.9 L 597.9,531.1" style="fill:none;fill-rule:evenodd;stroke:#000000;stroke-width:2.0px;stroke-linecap:butt;stroke-linejoin:miter;stroke-opacity:1"/>
<path class="bond-5 atom-4 atom-6" d="M 597.9,531.1 L 620.3,492.3" style="fill:none;fill-rule:evenodd;stroke:#FF0000;stroke-width:2.0px;stroke-linecap:butt;stroke-linejoin:miter;stroke-opacity:1"/>
<path class="bond-5 atom-4 atom-6" d="M 561.7,561.9 L 584.1,523.1" style="fill:none;fill-rule:evenodd;stroke:#000000;stroke-width:2.0px;stroke-linecap:butt;stroke-linejoin:miter;stroke-opacity:1"/>
<path class="bond-5 atom-4 atom-6" d="M 584.1,523.1 L 606.5,484.4" style="fill:none;fill-rule:evenodd;stroke:#FF0000;stroke-width:2.0px;stroke-linecap:butt;stroke-linejoin:miter;stroke-opacity:1"/>
<path d="M 731.4,651.6 L 730.1,653.8 L 724.8,653.8" style="fill:none;stroke:#000000;stroke-width:2.0px;stroke-linecap:butt;stroke-linejoin:miter;stroke-opacity:1;"/>
<path d="M 573.6,566.5 L 570.9,561.9 L 568.6,561.9" style="fill:none;stroke:#000000;stroke-width:2.0px;stroke-linecap:butt;stroke-linejoin:miter;stroke-opacity:1;"/>
<path class="atom-0" d="M 777.8 558.8 L 781.9 554.5 L 776.4 553.4 L 777.3 550.6 L 782.3 553.1 L 781.6 547.6 L 784.6 547.5 L 783.8 553.1 L 788.9 550.7 L 789.8 553.4 L 784.2 554.5 L 788.2 558.7 L 785.8 560.5 L 783.0 555.2 L 780.2 560.5 L 777.8 558.8 " fill="#191919"/>
<path class="atom-3" d="M 565.6 742.5 L 569.8 738.3 L 564.2 737.2 L 565.1 734.3 L 570.2 736.9 L 569.4 731.3 L 572.4 731.3 L 571.6 736.9 L 576.8 734.5 L 577.6 737.2 L 572.0 738.2 L 576.0 742.5 L 573.6 744.3 L 570.8 739.0 L 568.0 744.3 L 565.6 742.5 " fill="#191919"/>
<path class="atom-5" d="M 410.2 547.8 L 414.0 547.8 L 414.0 559.8 L 428.5 559.8 L 428.5 547.8 L 432.3 547.8 L 432.3 576.1 L 428.5 576.1 L 428.5 563.0 L 414.0 563.0 L 414.0 576.1 L 410.2 576.1 L 410.2 547.8 " fill="#0000FF"/>
<path class="atom-5" d="M 437.9 575.1 Q 438.6 573.3, 440.2 572.4 Q 441.9 571.4, 444.1 571.4 Q 446.9 571.4, 448.5 572.9 Q 450.1 574.4, 450.1 577.1 Q 450.1 579.9, 448.1 582.5 Q 446.0 585.1, 441.8 588.2 L 450.4 588.2 L 450.4 590.3 L 437.8 590.3 L 437.8 588.5 Q 441.3 586.0, 443.4 584.2 Q 445.5 582.3, 446.5 580.7 Q 447.5 579.0, 447.5 577.3 Q 447.5 575.5, 446.6 574.5 Q 445.7 573.5, 444.1 573.5 Q 442.6 573.5, 441.6 574.1 Q 440.6 574.7, 439.9 576.0 L 437.9 575.1 " fill="#0000FF"/>
<path class="atom-5" d="M 458.6 547.8 L 467.9 562.8 Q 468.8 564.3, 470.3 566.9 Q 471.7 569.6, 471.8 569.8 L 471.8 547.8 L 475.6 547.8 L 475.6 576.1 L 471.7 576.1 L 461.7 559.7 Q 460.6 557.8, 459.3 555.6 Q 458.1 553.4, 457.8 552.7 L 457.8 576.1 L 454.1 576.1 L 454.1 547.8 L 458.6 547.8 " fill="#0000FF"/>
<path class="atom-6" d="M 611.0 470.1 Q 611.0 463.3, 614.3 459.5 Q 617.7 455.7, 624.0 455.7 Q 630.3 455.7, 633.6 459.5 Q 637.0 463.3, 637.0 470.1 Q 637.0 477.0, 633.6 480.9 Q 630.2 484.8, 624.0 484.8 Q 617.7 484.8, 614.3 480.9 Q 611.0 477.1, 611.0 470.1 M 624.0 481.6 Q 628.3 481.6, 630.6 478.7 Q 633.0 475.8, 633.0 470.1 Q 633.0 464.6, 630.6 461.8 Q 628.3 458.9, 624.0 458.9 Q 619.7 458.9, 617.3 461.7 Q 615.0 464.5, 615.0 470.1 Q 615.0 475.9, 617.3 478.7 Q 619.7 481.6, 624.0 481.6 " fill="#FF0000"/>
</svg>