<svg xmlns="http://www.w3.org/2000/svg" xmlns:rdkit="http://www.rdkit.org/xml" xmlns:xlink="http://www.w3.org/1999/xlink" version="1.1" baseProfile="full" xml:space="preserve" width="1200px" height="800px" viewBox="0 0 1200 800">
<!-- END OF HEADER -->
<rect style="opacity:1.0;fill:#FFFFFF;stroke:none" width="1200.0" height="800.0" x="0.0" y="0.0"> </rect>
<path class="bond-0 atom-0 atom-1" d="M 864.7,39.4 L 876.5,92.0" style="fill:none;fill-rule:evenodd;stroke:#191919;stroke-width:2.0px;stroke-linecap:butt;stroke-linejoin:miter;stroke-opacity:1"/>
<path class="bond-0 atom-0 atom-1" d="M 876.5,92.0 L 888.3,144.6" style="fill:none;fill-rule:evenodd;stroke:#FF0000;stroke-width:2.0px;stroke-linecap:butt;stroke-linejoin:miter;stroke-opacity:1"/>
<path class="bond-1 atom-1 atom-2" d="M 875.1,179.1 L 836.0,215.2" style="fill:none;fill-rule:evenodd;stroke:#FF0000;stroke-width:2.0px;stroke-linecap:butt;stroke-linejoin:miter;stroke-opacity:1"/>
<path class="bond-1 atom-1 atom-2" d="M 836.0,215.2 L 796.9,251.2" style="fill:none;fill-rule:evenodd;stroke:#000000;stroke-width:2.0px;stroke-linecap:butt;stroke-linejoin:miter;stroke-opacity:1"/>
<path class="bond-2 atom-2 atom-3" d="M 796.9,251.2 L 825.3,377.9" style="fill:none;fill-rule:evenodd;stroke:#000000;stroke-width:2.0px;stroke-linecap:butt;stroke-linejoin:miter;stroke-opacity:1"/>
<path class="bond-3 atom-2 atom-4" d="M 796.9,251.2 L 673.0,212.4" style="fill:none;fill-rule:evenodd;stroke:#000000;stroke-width:2.0px;stroke-linecap:butt;stroke-linejoin:miter;stroke-opacity:1"/>
<path class="bond-4 atom-4 atom-5" d="M 683.7,215.8 L 671.1,159.2" style="fill:none;fill-rule:evenodd;stroke:#000000;stroke-width:2.0px;stroke-linecap:butt;stroke-linejoin:miter;stroke-opacity:1"/>
<path class="bond-4 atom-4 atom-5" d="M 671.1,159.2 L 658.4,102.7" style="fill:none;fill-rule:evenodd;stroke:#FF0000;stroke-width:2.0px;stroke-linecap:butt;stroke-linejoin:miter;stroke-opacity:1"/>
<path class="bond-4 atom-4 atom-5" d="M 664.7,220.1 L 652.1,163.5" style="fill:none;fill-rule:evenodd;stroke:#000000;stroke-width:2.0px;stroke-linecap:butt;stroke-linejoin:miter;stroke-opacity:1"/>
<path class="bond-4 atom-4 atom-5" d="M 652.1,163.5 L 639.4,106.9" style="fill:none;fill-rule:evenodd;stroke:#FF0000;stroke-width:2.0px;stroke-linecap:butt;stroke-linejoin:miter;stroke-opacity:1"/>
<path class="bond-5 atom-4 atom-6" d="M 673.0,212.4 L 633.9,248.5" style="fill:none;fill-rule:evenodd;stroke:#000000;stroke-width:2.0px;stroke-linecap:butt;stroke-linejoin:miter;stroke-opacity:1"/>
<path class="bond-5 atom-4 atom-6" d="M 633.9,248.5 L 594.8,284.5" style="fill:none;fill-rule:evenodd;stroke:#FF0000;stroke-width:2.0px;stroke-linecap:butt;stroke-linejoin:miter;stroke-opacity:1"/>
<path class="bond-6 atom-6 atom-7" d="M 560.2,295.0 L 506.9,278.3" style="fill:none;fill-rule:evenodd;stroke:#FF0000;stroke-width:2.0px;stroke-linecap:butt;stroke-linejoin:miter;stroke-opacity:1"/>
<path class="bond-6 atom-6 atom-7" d="M 506.9,278.3 L 453.6,261.7" style="fill:none;fill-rule:evenodd;stroke:#000000;stroke-width:2.0px;stroke-linecap:butt;stroke-linejoin:miter;stroke-opacity:1"/>
<path class="bond-7 atom-7 atom-8" d="M 453.6,261.7 L 358.1,349.6" style="fill:none;fill-rule:evenodd;stroke:#000000;stroke-width:2.0px;stroke-linecap:butt;stroke-linejoin:miter;stroke-opacity:1"/>
<path class="bond-8 atom-7 atom-9" d="M 453.6,261.7 L 425.2,135.0" style="fill:none;fill-rule:evenodd;stroke:#000000;stroke-width:2.0px;stroke-linecap:butt;stroke-linejoin:miter;stroke-opacity:1"/>
<path class="bond-9 atom-9 atom-10" d="M 425.2,135.0 L 367.8,117.0" style="fill:none;fill-rule:evenodd;stroke:#000000;stroke-width:2.0px;stroke-linecap:butt;stroke-linejoin:miter;stroke-opacity:1"/>
<path class="bond-9 atom-9 atom-10" d="M 367.8,117.0 L 310.4,99.1" style="fill:none;fill-rule:evenodd;stroke:#191919;stroke-width:2.0px;stroke-linecap:butt;stroke-linejoin:miter;stroke-opacity:1"/>
<path class="bond-10 atom-9 atom-11" d="M 427.6,145.9 L 468.8,108.0" style="fill:none;fill-rule:evenodd;stroke:#000000;stroke-width:2.0px;stroke-linecap:butt;stroke-linejoin:miter;stroke-opacity:1"/>
<path class="bond-10 atom-9 atom-11" d="M 468.8,108.0 L 510.0,70.1" style="fill:none;fill-rule:evenodd;stroke:#FF0000;stroke-width:2.0px;stroke-linecap:butt;stroke-linejoin:miter;stroke-opacity:1"/>
<path class="bond-10 atom-9 atom-11" d="M 414.5,131.6 L 455.6,93.7" style="fill:none;fill-rule:evenodd;stroke:#000000;stroke-width:2.0px;stroke-linecap:butt;stroke-linejoin:miter;stroke-opacity:1"/>
<path class="bond-10 atom-9 atom-11" d="M 455.6,93.7 L 496.8,55.8" style="fill:none;fill-rule:evenodd;stroke:#FF0000;stroke-width:2.0px;stroke-linecap:butt;stroke-linejoin:miter;stroke-opacity:1"/>
<path d="M 679.2,214.4 L 673.0,212.4 L 671.1,214.2" style="fill:none;stroke:#000000;stroke-width:2.0px;stroke-linecap:butt;stroke-linejoin:miter;stroke-opacity:1;"/>
<path d="M 426.6,141.3 L 425.2,135.0 L 422.3,134.1" style="fill:none;stroke:#000000;stroke-width:2.0px;stroke-linecap:butt;stroke-linejoin:miter;stroke-opacity:1;"/>
<path class="atom-0" d="M 858.7 33.4 L 862.8 29.1 L 857.3 28.0 L 858.2 25.2 L 863.2 27.7 L 862.5 22.2 L 865.5 22.1 L 864.7 27.7 L 869.8 25.3 L 870.7 28.0 L 865.1 29.1 L 869.1 33.3 L 866.7 35.1 L 863.9 29.8 L 861.1 35.1 L 858.7 33.4 " fill="#191919"/>
<path class="atom-1" d="M 879.4 163.3 Q 879.4 156.5, 882.8 152.7 Q 886.1 148.9, 892.4 148.9 Q 898.7 148.9, 902.1 152.7 Q 905.4 156.5, 905.4 163.3 Q 905.4 170.2, 902.0 174.1 Q 898.6 178.0, 892.4 178.0 Q 886.2 178.0, 882.8 174.1 Q 879.4 170.2, 879.4 163.3 M 892.4 174.8 Q 896.7 174.8, 899.1 171.9 Q 901.4 169.0, 901.4 163.3 Q 901.4 157.7, 899.1 154.9 Q 896.7 152.1, 892.4 152.1 Q 888.1 152.1, 885.7 154.9 Q 883.4 157.7, 883.4 163.3 Q 883.4 169.0, 885.7 171.9 Q 888.1 174.8, 892.4 174.8 " fill="#FF0000"/>
<path class="atom-5" d="M 631.6 85.8 Q 631.6 79.0, 635.0 75.2 Q 638.3 71.4, 644.6 71.4 Q 650.9 71.4, 654.2 75.2 Q 657.6 79.0, 657.6 85.8 Q 657.6 92.7, 654.2 96.6 Q 650.8 100.5, 644.6 100.5 Q 638.4 100.5, 635.0 96.6 Q 631.6 92.8, 631.6 85.8 M 644.6 97.3 Q 648.9 97.3, 651.2 94.4 Q 653.6 91.5, 653.6 85.8 Q 653.6 80.3, 651.2 77.5 Q 648.9 74.6, 644.6 74.6 Q 640.3 74.6, 637.9 77.4 Q 635.6 80.2, 635.6 85.8 Q 635.6 91.6, 637.9 94.4 Q 640.3 97.3, 644.6 97.3 " fill="#FF0000"/>
<path class="atom-6" d="M 564.5 300.5 Q 564.5 293.7, 567.9 289.9 Q 571.2 286.1, 577.5 286.1 Q 583.8 286.1, 587.2 289.9 Q 590.5 293.7, 590.5 300.5 Q 590.5 307.3, 587.1 311.3 Q 583.7 315.1, 577.5 315.1 Q 571.3 315.1, 567.9 311.3 Q 564.5 307.4, 564.5 300.5 M 577.5 311.9 Q 581.8 311.9, 584.2 309.1 Q 586.5 306.1, 586.5 300.5 Q 586.5 294.9, 584.2 292.1 Q 581.8 289.3, 577.5 289.3 Q 573.2 289.3, 570.8 292.1 Q 568.5 294.9, 568.5 300.5 Q 568.5 306.2, 570.8 309.1 Q 573.2 311.9, 577.5 311.9 " fill="#FF0000"/>
<path class="atom-10" d="M 295.9 93.1 L 300.1 88.8 L 294.6 87.7 L 295.4 84.9 L 300.5 87.4 L 299.8 81.9 L 302.8 81.8 L 301.9 87.4 L 307.1 85.0 L 308.0 87.7 L 302.4 88.8 L 306.4 93.0 L 303.9 94.8 L 301.2 89.5 L 298.4 94.8 L 295.9 93.1 " fill="#191919"/>
<path class="atom-11" d="M 507.7 47.1 Q 507.7 40.3, 511.0 36.5 Q 514.4 32.7, 520.7 32.7 Q 527.0 32.7, 530.3 36.5 Q 533.7 40.3, 533.7 47.1 Q 533.7 54.0, 530.3 57.9 Q 526.9 61.8, 520.7 61.8 Q 514.4 61.8, 511.0 57.9 Q 507.7 54.0, 507.7 47.1 M 520.7 58.6 Q 525.0 58.6, 527.3 55.7 Q 529.7 52.8, 529.7 47.1 Q 529.7 41.6, 527.3 38.8 Q 525.0 35.9, 520.7 35.9 Q 516.4 35.9, 514.0 38.7 Q 511.7 41.5, 511.7 47.1 Q 511.7 52.8, 514.0 55.7 Q 516.4 58.6, 520.7 58.6 " fill="#FF0000"/>
<path class="bond-0 atom-0 atom-1" d="M 987.2,606.9 L 943.4,635.0" style="fill:none;fill-rule:evenodd;stroke:#191919;stroke-width:2.0px;stroke-linecap:butt;stroke-linejoin:miter;stroke-opacity:1"/>
<path class="bond-0 atom-0 atom-1" d="M 943.4,635.0 L 899.6,663.0" style="fill:none;fill-rule:evenodd;stroke:#FF0000;stroke-width:2.0px;stroke-linecap:butt;stroke-linejoin:miter;stroke-opacity:1"/>
<path class="bond-1 atom-1 atom-2" d="M 865.0,665.1 L 816.0,639.7" style="fill:none;fill-rule:evenodd;stroke:#FF0000;stroke-width:2.0px;stroke-linecap:butt;stroke-linejoin:miter;stroke-opacity:1"/>
<path class="bond-1 atom-1 atom-2" d="M 816.0,639.7 L 767.0,614.3" style="fill:none;fill-rule:evenodd;stroke:#000000;stroke-width:2.0px;stroke-linecap:butt;stroke-linejoin:miter;stroke-opacity:1"/>
<path class="bond-2 atom-2 atom-3" d="M 767.0,614.3 L 657.6,684.3" style="fill:none;fill-rule:evenodd;stroke:#000000;stroke-width:2.0px;stroke-linecap:butt;stroke-linejoin:miter;stroke-opacity:1"/>
<path class="bond-3 atom-3 atom-4" d="M 657.6,684.3 L 542.4,624.5" style="fill:none;fill-rule:evenodd;stroke:#000000;stroke-width:2.0px;stroke-linecap:butt;stroke-linejoin:miter;stroke-opacity:1"/>
<path class="bond-4 atom-4 atom-5" d="M 542.4,624.5 L 496.3,654.0" style="fill:none;fill-rule:evenodd;stroke:#000000;stroke-width:2.0px;stroke-linecap:butt;stroke-linejoin:miter;stroke-opacity:1"/>
<path class="bond-4 atom-4 atom-5" d="M 496.3,654.0 L 450.3,683.4" style="fill:none;fill-rule:evenodd;stroke:#FF0000;stroke-width:2.0px;stroke-linecap:butt;stroke-linejoin:miter;stroke-opacity:1"/>
<path class="bond-5 atom-5 atom-6" d="M 415.7,685.5 L 366.7,660.1" style="fill:none;fill-rule:evenodd;stroke:#FF0000;stroke-width:2.0px;stroke-linecap:butt;stroke-linejoin:miter;stroke-opacity:1"/>
<path class="bond-5 atom-5 atom-6" d="M 366.7,660.1 L 317.7,634.8" style="fill:none;fill-rule:evenodd;stroke:#000000;stroke-width:2.0px;stroke-linecap:butt;stroke-linejoin:miter;stroke-opacity:1"/>
<path class="bond-6 atom-6 atom-7" d="M 317.7,634.8 L 268.5,666.2" style="fill:none;fill-rule:evenodd;stroke:#000000;stroke-width:2.0px;stroke-linecap:butt;stroke-linejoin:miter;stroke-opacity:1"/>
<path class="bond-6 atom-6 atom-7" d="M 268.5,666.2 L 219.3,697.7" style="fill:none;fill-rule:evenodd;stroke:#191919;stroke-width:2.0px;stroke-linecap:butt;stroke-linejoin:miter;stroke-opacity:1"/>
<path class="bond-7 atom-6 atom-8" d="M 327.7,639.9 L 325.1,581.8" style="fill:none;fill-rule:evenodd;stroke:#000000;stroke-width:2.0px;stroke-linecap:butt;stroke-linejoin:miter;stroke-opacity:1"/>
<path class="bond-7 atom-6 atom-8" d="M 325.1,581.8 L 322.4,523.7" style="fill:none;fill-rule:evenodd;stroke:#FF0000;stroke-width:2.0px;stroke-linecap:butt;stroke-linejoin:miter;stroke-opacity:1"/>
<path class="bond-7 atom-6 atom-8" d="M 308.3,640.8 L 305.6,582.7" style="fill:none;fill-rule:evenodd;stroke:#000000;stroke-width:2.0px;stroke-linecap:butt;stroke-linejoin:miter;stroke-opacity:1"/>
<path class="bond-7 atom-6 atom-8" d="M 305.6,582.7 L 303.0,524.6" style="fill:none;fill-rule:evenodd;stroke:#FF0000;stroke-width:2.0px;stroke-linecap:butt;stroke-linejoin:miter;stroke-opacity:1"/>
<path d="M 769.5,615.6 L 767.0,614.3 L 761.5,617.8" style="fill:none;stroke:#000000;stroke-width:2.0px;stroke-linecap:butt;stroke-linejoin:miter;stroke-opacity:1;"/>
<path d="M 663.1,680.8 L 657.6,684.3 L 651.9,681.3" style="fill:none;stroke:#000000;stroke-width:2.0px;stroke-linecap:butt;stroke-linejoin:miter;stroke-opacity:1;"/>
<path d="M 548.1,627.5 L 542.4,624.5 L 540.1,626.0" style="fill:none;stroke:#000000;stroke-width:2.0px;stroke-linecap:butt;stroke-linejoin:miter;stroke-opacity:1;"/>
<path d="M 320.2,636.0 L 317.7,634.8 L 315.3,636.3" style="fill:none;stroke:#000000;stroke-width:2.0px;stroke-linecap:butt;stroke-linejoin:miter;stroke-opacity:1;"/>
<path class="atom-0" d="M 986.3 600.9 L 990.5 596.7 L 984.9 595.6 L 985.8 592.7 L 990.9 595.3 L 990.1 589.7 L 993.1 589.7 L 992.3 595.3 L 997.5 592.9 L 998.3 595.6 L 992.7 596.6 L 996.7 600.9 L 994.3 602.7 L 991.5 597.4 L 988.7 602.7 L 986.3 600.9 " fill="#191919"/>
<path class="atom-1" d="M 869.3 674.1 Q 869.3 667.3, 872.6 663.5 Q 876.0 659.7, 882.3 659.7 Q 888.5 659.7, 891.9 663.5 Q 895.3 667.3, 895.3 674.1 Q 895.3 681.0, 891.9 684.9 Q 888.5 688.8, 882.3 688.8 Q 876.0 688.8, 872.6 684.9 Q 869.3 681.1, 869.3 674.1 M 882.3 685.6 Q 886.6 685.6, 888.9 682.7 Q 891.3 679.8, 891.3 674.1 Q 891.3 668.6, 888.9 665.8 Q 886.6 662.9, 882.3 662.9 Q 877.9 662.9, 875.6 665.7 Q 873.3 668.5, 873.3 674.1 Q 873.3 679.9, 875.6 682.7 Q 877.9 685.6, 882.3 685.6 " fill="#FF0000"/>
<path class="atom-5" d="M 420.0 694.6 Q 420.0 687.8, 423.4 684.0 Q 426.7 680.2, 433.0 680.2 Q 439.3 680.2, 442.6 684.0 Q 446.0 687.8, 446.0 694.6 Q 446.0 701.5, 442.6 705.4 Q 439.2 709.3, 433.0 709.3 Q 426.8 709.3, 423.4 705.4 Q 420.0 701.5, 420.0 694.6 M 433.0 706.1 Q 437.3 706.1, 439.6 703.2 Q 442.0 700.3, 442.0 694.6 Q 442.0 689.0, 439.6 686.2 Q 437.3 683.4, 433.0 683.4 Q 428.7 683.4, 426.3 686.2 Q 424.0 689.0, 424.0 694.6 Q 424.0 700.3, 426.3 703.2 Q 428.7 706.1, 433.0 706.1 " fill="#FF0000"/>
<path class="atom-7" d="M 203.0 701.6 L 207.2 697.3 L 201.7 696.2 L 202.5 693.4 L 207.6 695.9 L 206.9 690.4 L 209.9 690.3 L 209.0 695.9 L 214.2 693.5 L 215.1 696.2 L 209.5 697.2 L 213.5 701.5 L 211.0 703.3 L 208.3 698.0 L 205.5 703.3 L 203.0 701.6 " fill="#191919"/>
<path class="atom-8" d="M 298.8 505.1 Q 298.8 498.3, 302.2 494.5 Q 305.6 490.7, 311.8 490.7 Q 318.1 490.7, 321.5 494.5 Q 324.8 498.3, 324.8 505.1 Q 324.8 512.0, 321.4 515.9 Q 318.0 519.8, 311.8 519.8 Q 305.6 519.8, 302.2 515.9 Q 298.8 512.1, 298.8 505.1 M 311.8 516.6 Q 316.2 516.6, 318.5 513.7 Q 320.8 510.8, 320.8 505.1 Q 320.8 499.6, 318.5 496.8 Q 316.2 493.9, 311.8 493.9 Q 307.5 493.9, 305.2 496.7 Q 302.8 499.5, 302.8 505.1 Q 302.8 510.9, 305.2 513.7 Q 307.5 516.6, 311.8 516.6 " fill="#FF0000"/>
</svg>