<svg xmlns="http://www.w3.org/2000/svg" xmlns:rdkit="http://www.rdkit.org/xml" xmlns:xlink="http://www.w3.org/1999/xlink" version="1.1" baseProfile="full" xml:space="preserve" width="1200px" height="800px" viewBox="0 0 1200 800">
<!-- END OF HEADER -->
<rect style="opacity:1.0;fill:#FFFFFF;stroke:none" width="1200.0" height="800.0" x="0.0" y="0.0"> </rect>
<path class="bond-0 atom-0 atom-1" d="M 864.7,39.4 L 876.5,92.0" style="fill:none;fill-rule:evenodd;stroke:#191919;stroke-width:2.0px;stroke-linecap:butt;stroke-linejoin:miter;stroke-opacity:1"/>
<path class="bond-0 atom-0 atom-1" d="M 876.5,92.0 L 888.3,144.6" style="fill:none;fill-rule:evenodd;stroke:#FF0000;stroke-width:2.0px;stroke-linecap:butt;stroke-linejoin:miter;stroke-opacity:1"/>
<path class="bond-1 atom-1 atom-2" d="M 875.1,179.1 L 836.0,215.2" style="fill:none;fill-rule:evenodd;stroke:#FF0000;stroke-width:2.0px;stroke-linecap:butt;stroke-linejoin:miter;stroke-opacity:1"/>
<path class="bond-1 atom-1 atom-2" d="M 836.0,215.2 L 796.9,251.2" style="fill:none;fill-rule:evenodd;stroke:#000000;stroke-width:2.0px;stroke-linecap:butt;stroke-linejoin:miter;stroke-opacity:1"/>
<path class="bond-2 atom-2 atom-3" d="M 796.9,251.2 L 825.3,377.9" style="fill:none;fill-rule:evenodd;stroke:#000000;stroke-width:2.0px;stroke-linecap:butt;stroke-linejoin:miter;stroke-opacity:1"/>
<path class="bond-3 atom-2 atom-4" d="M 796.9,251.2 L 673.0,212.4" style="fill:none;fill-rule:evenodd;stroke:#000000;stroke-width:2.0px;stroke-linecap:butt;stroke-linejoin:miter;stroke-opacity:1"/>
<path class="bond-4 atom-4 atom-5" d="M 683.7,215.8 L 671.1,159.2" style="fill:none;fill-rule:evenodd;stroke:#000000;stroke-width:2.0px;stroke-linecap:butt;stroke-linejoin:miter;stroke-opacity:1"/>
<path class="bond-4 atom-4 atom-5" d="M 671.1,159.2 L 658.4,102.7" style="fill:none;fill-rule:evenodd;stroke:#FF0000;stroke-width:2.0px;stroke-linecap:butt;stroke-linejoin:miter;stroke-opacity:1"/>
<path class="bond-4 atom-4 atom-5" d="M 664.7,220.1 L 652.1,163.5" style="fill:none;fill-rule:evenodd;stroke:#000000;stroke-width:2.0px;stroke-linecap:butt;stroke-linejoin:miter;stroke-opacity:1"/>
<path class="bond-4 atom-4 atom-5" d="M 652.1,163.5 L 639.4,106.9" style="fill:none;fill-rule:evenodd;stroke:#FF0000;stroke-width:2.0px;stroke-linecap:butt;stroke-linejoin:miter;stroke-opacity:1"/>
<path class="bond-5 atom-4 atom-6" d="M 673.0,212.4 L 633.9,248.5" style="fill:none;fill-rule:evenodd;stroke:#000000;stroke-width:2.0px;stroke-linecap:butt;stroke-linejoin:miter;stroke-opacity:1"/>
<path class="bond-5 atom-4 atom-6" d="M 633.9,248.5 L 594.8,284.5" style="fill:none;fill-rule:evenodd;stroke:#FF0000;stroke-width:2.0px;stroke-linecap:butt;stroke-linejoin:miter;stroke-opacity:1"/>
<path class="bond-6 atom-6 atom-7" d="M 560.2,295.0 L 506.9,278.3" style="fill:none;fill-rule:evenodd;stroke:#FF0000;stroke-width:2.0px;stroke-linecap:butt;stroke-linejoin:miter;stroke-opacity:1"/>
<path class="bond-6 atom-6 atom-7" d="M 506.9,278.3 L 453.6,261.7" style="fill:none;fill-rule:evenodd;stroke:#000000;stroke-width:2.0px;stroke-linecap:butt;stroke-linejoin:miter;stroke-opacity:1"/>
<path class="bond-7 atom-7 atom-8" d="M 453.6,261.7 L 358.1,349.6" style="fill:none;fill-rule:evenodd;stroke:#000000;stroke-width:2.0px;stroke-linecap:butt;stroke-linejoin:miter;stroke-opacity:1"/>
<path class="bond-8 atom-7 atom-9" d="M 453.6,261.7 L 425.2,135.0" style="fill:none;fill-rule:evenodd;stroke:#000000;stroke-width:2.0px;stroke-linecap:butt;stroke-linejoin:miter;stroke-opacity:1"/>
<path class="bond-9 atom-9 atom-10" d="M 425.2,135.0 L 367.8,117.0" style="fill:none;fill-rule:evenodd;stroke:#000000;stroke-width:2.0px;stroke-linecap:butt;stroke-linejoin:miter;stroke-opacity:1"/>
<path class="bond-9 atom-9 atom-10" d="M 367.8,117.0 L 310.4,99.1" style="fill:none;fill-rule:evenodd;stroke:#191919;stroke-width:2.0px;stroke-linecap:butt;stroke-linejoin:miter;stroke-opacity:1"/>
<path class="bond-10 atom-9 atom-11" d="M 427.6,145.9 L 468.8,108.0" style="fill:none;fill-rule:evenodd;stroke:#000000;stroke-width:2.0px;stroke-linecap:butt;stroke-linejoin:miter;stroke-opacity:1"/>
<path class="bond-10 atom-9 atom-11" d="M 468.8,108.0 L 510.0,70.1" style="fill:none;fill-rule:evenodd;stroke:#FF0000;stroke-width:2.0px;stroke-linecap:butt;stroke-linejoin:miter;stroke-opacity:1"/>
<path class="bond-10 atom-9 atom-11" d="M 414.5,131.6 L 455.6,93.7" style="fill:none;fill-rule:evenodd;stroke:#000000;stroke-width:2.0px;stroke-linecap:butt;stroke-linejoin:miter;stroke-opacity:1"/>
<path class="bond-10 atom-9 atom-11" d="M 455.6,93.7 L 496.8,55.8" style="fill:none;fill-rule:evenodd;stroke:#FF0000;stroke-width:2.0px;stroke-linecap:butt;stroke-linejoin:miter;stroke-opacity:1"/>
<path d="M 679.2,214.4 L 673.0,212.4 L 671.1,214.2" style="fill:none;stroke:#000000;stroke-width:2.0px;stroke-linecap:butt;stroke-linejoin:miter;stroke-opacity:1;"/>
<path d="M 426.6,141.3 L 425.2,135.0 L 422.3,134.1" style="fill:none;stroke:#000000;stroke-width:2.0px;stroke-linecap:butt;stroke-linejoin:miter;stroke-opacity:1;"/>
<path class="atom-0" d="M 858.7 33.4 L 862.8 29.1 L 857.3 28.0 L 858.2 25.2 L 863.2 27.7 L 862.5 22.2 L 865.5 22.1 L 864.7 27.7 L 869.8 25.3 L 870.7 28.0 L 865.1 29.1 L 869.1 33.3 L 866.7 35.1 L 863.9 29.8 L 861.1 35.1 L 858.7 33.4 " fill="#191919"/>
<path class="atom-1" d="M 879.4 163.3 Q 879.4 156.5, 882.8 152.7 Q 886.1 148.9, 892.4 148.9 Q 898.7 148.9, 902.1 152.7 Q 905.4 156.5, 905.4 163.3 Q 905.4 170.2, 902.0 174.1 Q 898.6 178.0, 892.4 178.0 Q 886.2 178.0, 882.8 174.1 Q 879.4 170.2, 879.4 163.3 M 892.4 174.8 Q 896.7 174.8, 899.1 171.9 Q 901.4 169.0, 901.4 163.3 Q 901.4 157.7, 899.1 154.9 Q 896.7 152.1, 892.4 152.1 Q 888.1 152.1, 885.7 154.9 Q 883.4 157.7, 883.4 163.3 Q 883.4 169.0, 885.7 171.9 Q 888.1 174.8, 892.4 174.8 " fill="#FF0000"/>
<path class="atom-5" d="M 631.6 85.8 Q 631.6 79.0, 635.0 75.2 Q 638.3 71.4, 644.6 71.4 Q 650.9 71.4, 654.2 75.2 Q 657.6 79.0, 657.6 85.8 Q 657.6 92.7, 654.2 96.6 Q 650.8 100.5, 644.6 100.5 Q 638.4 100.5, 635.0 96.6 Q 631.6 92.8, 631.6 85.8 M 644.6 97.3 Q 648.9 97.3, 651.2 94.4 Q 653.6 91.5, 653.6 85.8 Q 653.6 80.3, 651.2 77.5 Q 648.9 74.6, 644.6 74.6 Q 640.3 74.6, 637.9 77.4 Q 635.6 80.2, 635.6 85.8 Q 635.6 91.6, 637.9 94.4 Q 640.3 97.3, 644.6 97.3 " fill="#FF0000"/>
<path class="atom-6" d="M 564.5 300.5 Q 564.5 293.7, 567.9 289.9 Q 571.2 286.1, 577.5 286.1 Q 583.8 286.1, 587.2 289.9 Q 590.5 293.7, 590.5 300.5 Q 590.5 307.3, 587.1 311.3 Q 583.7 315.1, 577.5 315.1 Q 571.3 315.1, 567.9 311.3 Q 564.5 307.4, 564.5 300.5 M 577.5 311.9 Q 581.8 311.9, 584.2 309.1 Q 586.5 306.1, 586.5 300.5 Q 586.5 294.9, 584.2 292.1 Q 581.8 289.3, 577.5 289.3 Q 573.2 289.3, 570.8 292.1 Q 568.5 294.9, 568.5 300.5 Q 568.5 306.2, 570.8 309.1 Q 573.2 311.9, 577.5 311.9 " fill="#FF0000"/>
<path class="atom-10" d="M 295.9 93.1 L 300.1 88.8 L 294.6 87.7 L 295.4 84.9 L 300.5 87.4 L 299.8 81.9 L 302.8 81.8 L 301.9 87.4 L 307.1 85.0 L 308.0 87.7 L 302.4 88.8 L 306.4 93.0 L 303.9 94.8 L 301.2 89.5 L 298.4 94.8 L 295.9 93.1 " fill="#191919"/>
<path class="atom-11" d="M 507.7 47.1 Q 507.7 40.3, 511.0 36.5 Q 514.4 32.7, 520.7 32.7 Q 527.0 32.7, 530.3 36.5 Q 533.7 40.3, 533.7 47.1 Q 533.7 54.0, 530.3 57.9 Q 526.9 61.8, 520.7 61.8 Q 514.4 61.8, 511.0 57.9 Q 507.7 54.0, 507.7 47.1 M 520.7 58.6 Q 525.0 58.6, 527.3 55.7 Q 529.7 52.8, 529.7 47.1 Q 529.7 41.6, 527.3 38.8 Q 525.0 35.9, 520.7 35.9 Q 516.4 35.9, 514.0 38.7 Q 511.7 41.5, 511.7 47.1 Q 511.7 52.8, 514.0 55.7 Q 516.4 58.6, 520.7 58.6 " fill="#FF0000"/>
<path class="bond-0 atom-0 atom-1" d="M 949.1,459.9 L 943.2,513.7" style="fill:none;fill-rule:evenodd;stroke:#191919;stroke-width:2.0px;stroke-linecap:butt;stroke-linejoin:miter;stroke-opacity:1"/>
<path class="bond-0 atom-0 atom-1" d="M 943.2,513.7 L 937.3,567.5" style="fill:none;fill-rule:evenodd;stroke:#FF0000;stroke-width:2.0px;stroke-linecap:butt;stroke-linejoin:miter;stroke-opacity:1"/>
<path class="bond-1 atom-1 atom-2" d="M 918.0,593.8 L 867.3,616.1" style="fill:none;fill-rule:evenodd;stroke:#FF0000;stroke-width:2.0px;stroke-linecap:butt;stroke-linejoin:miter;stroke-opacity:1"/>
<path class="bond-1 atom-1 atom-2" d="M 867.3,616.1 L 816.5,638.5" style="fill:none;fill-rule:evenodd;stroke:#000000;stroke-width:2.0px;stroke-linecap:butt;stroke-linejoin:miter;stroke-opacity:1"/>
<path class="bond-2 atom-2 atom-3" d="M 816.5,638.5 L 868.9,757.3" style="fill:none;fill-rule:evenodd;stroke:#000000;stroke-width:2.0px;stroke-linecap:butt;stroke-linejoin:miter;stroke-opacity:1"/>
<path class="bond-3 atom-2 atom-4" d="M 816.5,638.5 L 764.2,519.7" style="fill:none;fill-rule:evenodd;stroke:#000000;stroke-width:2.0px;stroke-linecap:butt;stroke-linejoin:miter;stroke-opacity:1"/>
<path class="bond-4 atom-2 atom-5" d="M 816.5,638.5 L 697.7,690.9" style="fill:none;fill-rule:evenodd;stroke:#000000;stroke-width:2.0px;stroke-linecap:butt;stroke-linejoin:miter;stroke-opacity:1"/>
<path class="bond-5 atom-5 atom-6" d="M 697.7,690.9 L 593.0,614.2" style="fill:none;fill-rule:evenodd;stroke:#000000;stroke-width:2.0px;stroke-linecap:butt;stroke-linejoin:miter;stroke-opacity:1"/>
<path class="bond-6 atom-6 atom-7" d="M 593.0,614.2 L 542.2,636.5" style="fill:none;fill-rule:evenodd;stroke:#000000;stroke-width:2.0px;stroke-linecap:butt;stroke-linejoin:miter;stroke-opacity:1"/>
<path class="bond-6 atom-6 atom-7" d="M 542.2,636.5 L 491.5,658.9" style="fill:none;fill-rule:evenodd;stroke:#FF0000;stroke-width:2.0px;stroke-linecap:butt;stroke-linejoin:miter;stroke-opacity:1"/>
<path class="bond-7 atom-7 atom-8" d="M 456.9,653.9 L 413.2,621.8" style="fill:none;fill-rule:evenodd;stroke:#FF0000;stroke-width:2.0px;stroke-linecap:butt;stroke-linejoin:miter;stroke-opacity:1"/>
<path class="bond-7 atom-7 atom-8" d="M 413.2,621.8 L 369.4,589.8" style="fill:none;fill-rule:evenodd;stroke:#000000;stroke-width:2.0px;stroke-linecap:butt;stroke-linejoin:miter;stroke-opacity:1"/>
<path class="bond-8 atom-8 atom-9" d="M 369.4,589.8 L 315.5,613.6" style="fill:none;fill-rule:evenodd;stroke:#000000;stroke-width:2.0px;stroke-linecap:butt;stroke-linejoin:miter;stroke-opacity:1"/>
<path class="bond-8 atom-8 atom-9" d="M 315.5,613.6 L 261.6,637.3" style="fill:none;fill-rule:evenodd;stroke:#191919;stroke-width:2.0px;stroke-linecap:butt;stroke-linejoin:miter;stroke-opacity:1"/>
<path class="bond-9 atom-8 atom-10" d="M 378.5,596.5 L 384.8,538.7" style="fill:none;fill-rule:evenodd;stroke:#000000;stroke-width:2.0px;stroke-linecap:butt;stroke-linejoin:miter;stroke-opacity:1"/>
<path class="bond-9 atom-8 atom-10" d="M 384.8,538.7 L 391.1,480.9" style="fill:none;fill-rule:evenodd;stroke:#FF0000;stroke-width:2.0px;stroke-linecap:butt;stroke-linejoin:miter;stroke-opacity:1"/>
<path class="bond-9 atom-8 atom-10" d="M 359.1,594.4 L 365.4,536.5" style="fill:none;fill-rule:evenodd;stroke:#000000;stroke-width:2.0px;stroke-linecap:butt;stroke-linejoin:miter;stroke-opacity:1"/>
<path class="bond-9 atom-8 atom-10" d="M 365.4,536.5 L 371.7,478.7" style="fill:none;fill-rule:evenodd;stroke:#FF0000;stroke-width:2.0px;stroke-linecap:butt;stroke-linejoin:miter;stroke-opacity:1"/>
<path d="M 703.7,688.3 L 697.7,690.9 L 692.5,687.0" style="fill:none;stroke:#000000;stroke-width:2.0px;stroke-linecap:butt;stroke-linejoin:miter;stroke-opacity:1;"/>
<path d="M 598.2,618.0 L 593.0,614.2 L 590.4,615.3" style="fill:none;stroke:#000000;stroke-width:2.0px;stroke-linecap:butt;stroke-linejoin:miter;stroke-opacity:1;"/>
<path d="M 371.6,591.4 L 369.4,589.8 L 366.7,591.0" style="fill:none;stroke:#000000;stroke-width:2.0px;stroke-linecap:butt;stroke-linejoin:miter;stroke-opacity:1;"/>
<path class="atom-0" d="M 944.0 453.9 L 948.2 449.7 L 942.7 448.6 L 943.5 445.7 L 948.6 448.3 L 947.9 442.7 L 950.9 442.7 L 950.0 448.2 L 955.2 445.8 L 956.1 448.6 L 950.5 449.6 L 954.5 453.9 L 952.0 455.6 L 949.3 450.4 L 946.5 455.6 L 944.0 453.9 " fill="#191919"/>
<path class="atom-1" d="M 922.3 586.2 Q 922.3 579.4, 925.7 575.6 Q 929.0 571.8, 935.3 571.8 Q 941.6 571.8, 945.0 575.6 Q 948.3 579.4, 948.3 586.2 Q 948.3 593.1, 944.9 597.0 Q 941.5 600.9, 935.3 600.9 Q 929.1 600.9, 925.7 597.0 Q 922.3 593.2, 922.3 586.2 M 935.3 597.7 Q 939.6 597.7, 942.0 594.8 Q 944.3 591.9, 944.3 586.2 Q 944.3 580.7, 942.0 577.9 Q 939.6 575.0, 935.3 575.0 Q 931.0 575.0, 928.6 577.8 Q 926.3 580.6, 926.3 586.2 Q 926.3 592.0, 928.6 594.8 Q 931.0 597.7, 935.3 597.7 " fill="#FF0000"/>
<path class="atom-7" d="M 461.2 666.6 Q 461.2 659.8, 464.5 656.0 Q 467.9 652.2, 474.2 652.2 Q 480.5 652.2, 483.8 656.0 Q 487.2 659.8, 487.2 666.6 Q 487.2 673.5, 483.8 677.4 Q 480.4 681.3, 474.2 681.3 Q 467.9 681.3, 464.5 677.4 Q 461.2 673.5, 461.2 666.6 M 474.2 678.1 Q 478.5 678.1, 480.8 675.2 Q 483.2 672.3, 483.2 666.6 Q 483.2 661.0, 480.8 658.2 Q 478.5 655.4, 474.2 655.4 Q 469.9 655.4, 467.5 658.2 Q 465.2 661.0, 465.2 666.6 Q 465.2 672.3, 467.5 675.2 Q 469.9 678.1, 474.2 678.1 " fill="#FF0000"/>
<path class="atom-9" d="M 245.3 639.0 L 249.4 634.8 L 243.9 633.7 L 244.8 630.8 L 249.8 633.4 L 249.1 627.8 L 252.1 627.8 L 251.3 633.3 L 256.4 630.9 L 257.3 633.7 L 251.7 634.7 L 255.7 639.0 L 253.3 640.7 L 250.5 635.5 L 247.7 640.7 L 245.3 639.0 " fill="#191919"/>
<path class="atom-10" d="M 370.5 460.8 Q 370.5 454.0, 373.8 450.2 Q 377.2 446.4, 383.5 446.4 Q 389.8 446.4, 393.1 450.2 Q 396.5 454.0, 396.5 460.8 Q 396.5 467.7, 393.1 471.6 Q 389.7 475.5, 383.5 475.5 Q 377.2 475.5, 373.8 471.6 Q 370.5 467.8, 370.5 460.8 M 383.5 472.3 Q 387.8 472.3, 390.1 469.4 Q 392.5 466.5, 392.5 460.8 Q 392.5 455.3, 390.1 452.5 Q 387.8 449.6, 383.5 449.6 Q 379.2 449.6, 376.8 452.4 Q 374.5 455.2, 374.5 460.8 Q 374.5 466.6, 376.8 469.4 Q 379.2 472.3, 383.5 472.3 " fill="#FF0000"/>
</svg>