<svg xmlns="http://www.w3.org/2000/svg" xmlns:rdkit="http://www.rdkit.org/xml" xmlns:xlink="http://www.w3.org/1999/xlink" version="1.1" baseProfile="full" xml:space="preserve" width="1200px" height="800px" viewBox="0 0 1200 800">
<!-- END OF HEADER -->
<rect style="opacity:1.0;fill:#FFFFFF;stroke:none" width="1200.0" height="800.0" x="0.0" y="0.0"> </rect>
<path class="bond-0 atom-0 atom-1" d="M 968.3,244.5 L 906.6,281.2" style="fill:none;fill-rule:evenodd;stroke:#191919;stroke-width:2.0px;stroke-linecap:butt;stroke-linejoin:miter;stroke-opacity:1"/>
<path class="bond-0 atom-0 atom-1" d="M 906.6,281.2 L 845.0,317.9" style="fill:none;fill-rule:evenodd;stroke:#FF0000;stroke-width:2.0px;stroke-linecap:butt;stroke-linejoin:miter;stroke-opacity:1"/>
<path class="bond-1 atom-1 atom-2" d="M 807.5,318.6 L 741.1,281.4" style="fill:none;fill-rule:evenodd;stroke:#FF0000;stroke-width:2.0px;stroke-linecap:butt;stroke-linejoin:miter;stroke-opacity:1"/>
<path class="bond-1 atom-1 atom-2" d="M 741.1,281.4 L 674.6,244.2" style="fill:none;fill-rule:evenodd;stroke:#000000;stroke-width:2.0px;stroke-linecap:butt;stroke-linejoin:miter;stroke-opacity:1"/>
<path class="bond-2 atom-2 atom-3" d="M 687.8,251.6 L 686.7,171.2" style="fill:none;fill-rule:evenodd;stroke:#000000;stroke-width:2.0px;stroke-linecap:butt;stroke-linejoin:miter;stroke-opacity:1"/>
<path class="bond-2 atom-2 atom-3" d="M 686.7,171.2 L 685.6,90.8" style="fill:none;fill-rule:evenodd;stroke:#FF0000;stroke-width:2.0px;stroke-linecap:butt;stroke-linejoin:miter;stroke-opacity:1"/>
<path class="bond-2 atom-2 atom-3" d="M 661.7,251.9 L 660.6,171.5" style="fill:none;fill-rule:evenodd;stroke:#000000;stroke-width:2.0px;stroke-linecap:butt;stroke-linejoin:miter;stroke-opacity:1"/>
<path class="bond-2 atom-2 atom-3" d="M 660.6,171.5 L 659.6,91.2" style="fill:none;fill-rule:evenodd;stroke:#FF0000;stroke-width:2.0px;stroke-linecap:butt;stroke-linejoin:miter;stroke-opacity:1"/>
<path class="bond-3 atom-2 atom-4" d="M 674.6,244.2 L 525.4,333.1" style="fill:none;fill-rule:evenodd;stroke:#000000;stroke-width:2.0px;stroke-linecap:butt;stroke-linejoin:miter;stroke-opacity:1"/>
<path class="bond-4 atom-4 atom-5" d="M 525.4,333.1 L 373.8,248.2" style="fill:none;fill-rule:evenodd;stroke:#000000;stroke-width:2.0px;stroke-linecap:butt;stroke-linejoin:miter;stroke-opacity:1"/>
<path class="bond-5 atom-5 atom-6" d="M 373.8,248.2 L 305.3,288.9" style="fill:none;fill-rule:evenodd;stroke:#000000;stroke-width:2.0px;stroke-linecap:butt;stroke-linejoin:miter;stroke-opacity:1"/>
<path class="bond-5 atom-5 atom-6" d="M 305.3,288.9 L 236.9,329.7" style="fill:none;fill-rule:evenodd;stroke:#191919;stroke-width:2.0px;stroke-linecap:butt;stroke-linejoin:miter;stroke-opacity:1"/>
<path class="bond-6 atom-5 atom-7" d="M 373.8,248.2 L 371.4,74.5" style="fill:none;fill-rule:evenodd;stroke:#000000;stroke-width:2.0px;stroke-linecap:butt;stroke-linejoin:miter;stroke-opacity:1"/>
<path d="M 678.0,246.1 L 674.6,244.2 L 667.2,248.7" style="fill:none;stroke:#000000;stroke-width:2.0px;stroke-linecap:butt;stroke-linejoin:miter;stroke-opacity:1;"/>
<path d="M 532.8,328.6 L 525.4,333.1 L 517.8,328.8" style="fill:none;stroke:#000000;stroke-width:2.0px;stroke-linecap:butt;stroke-linejoin:miter;stroke-opacity:1;"/>
<path class="atom-0" d="M 970.2 237.0 L 974.3 232.8 L 968.8 231.7 L 969.7 228.8 L 974.7 231.4 L 974.0 225.8 L 977.0 225.8 L 976.2 231.4 L 981.3 229.0 L 982.2 231.7 L 976.6 232.7 L 980.6 237.0 L 978.2 238.8 L 975.4 233.5 L 972.6 238.8 L 970.2 237.0 " fill="#191919"/>
<path class="atom-1" d="M 813.2 329.1 Q 813.2 322.3, 816.6 318.5 Q 820.0 314.7, 826.2 314.7 Q 832.5 314.7, 835.9 318.5 Q 839.2 322.3, 839.2 329.1 Q 839.2 336.0, 835.8 339.9 Q 832.4 343.8, 826.2 343.8 Q 820.0 343.8, 816.6 339.9 Q 813.2 336.1, 813.2 329.1 M 826.2 340.6 Q 830.6 340.6, 832.9 337.7 Q 835.2 334.8, 835.2 329.1 Q 835.2 323.6, 832.9 320.8 Q 830.6 317.9, 826.2 317.9 Q 821.9 317.9, 819.6 320.7 Q 817.2 323.5, 817.2 329.1 Q 817.2 334.9, 819.6 337.7 Q 821.9 340.6, 826.2 340.6 " fill="#FF0000"/>
<path class="atom-3" d="M 659.3 70.6 Q 659.3 63.8, 662.7 60.0 Q 666.0 56.2, 672.3 56.2 Q 678.6 56.2, 682.0 60.0 Q 685.3 63.8, 685.3 70.6 Q 685.3 77.5, 681.9 81.4 Q 678.5 85.3, 672.3 85.3 Q 666.1 85.3, 662.7 81.4 Q 659.3 77.5, 659.3 70.6 M 672.3 82.1 Q 676.6 82.1, 679.0 79.2 Q 681.3 76.3, 681.3 70.6 Q 681.3 65.0, 679.0 62.2 Q 676.6 59.4, 672.3 59.4 Q 668.0 59.4, 665.6 62.2 Q 663.3 65.0, 663.3 70.6 Q 663.3 76.3, 665.6 79.2 Q 668.0 82.1, 672.3 82.1 " fill="#FF0000"/>
<path class="atom-6" d="M 219.1 333.9 L 223.3 329.7 L 217.8 328.6 L 218.6 325.7 L 223.7 328.3 L 223.0 322.7 L 226.0 322.7 L 225.1 328.2 L 230.3 325.8 L 231.2 328.6 L 225.6 329.6 L 229.6 333.9 L 227.1 335.6 L 224.4 330.4 L 221.6 335.6 L 219.1 333.9 " fill="#191919"/>
<path class="bond-0 atom-0 atom-1" d="M 84.1,662.8 L 156.1,628.0" style="fill:none;fill-rule:evenodd;stroke:#191919;stroke-width:2.0px;stroke-linecap:butt;stroke-linejoin:miter;stroke-opacity:1"/>
<path class="bond-0 atom-0 atom-1" d="M 156.1,628.0 L 228.1,593.2" style="fill:none;fill-rule:evenodd;stroke:#000000;stroke-width:2.0px;stroke-linecap:butt;stroke-linejoin:miter;stroke-opacity:1"/>
<path class="bond-1 atom-1 atom-2" d="M 228.1,593.2 L 371.7,691.0" style="fill:none;fill-rule:evenodd;stroke:#000000;stroke-width:2.0px;stroke-linecap:butt;stroke-linejoin:miter;stroke-opacity:1"/>
<path class="bond-2 atom-2 atom-3" d="M 371.7,691.0 L 528.2,615.4" style="fill:none;fill-rule:evenodd;stroke:#000000;stroke-width:2.0px;stroke-linecap:butt;stroke-linejoin:miter;stroke-opacity:1"/>
<path class="bond-3 atom-3 atom-4" d="M 528.2,615.4 L 671.8,713.1" style="fill:none;fill-rule:evenodd;stroke:#000000;stroke-width:2.0px;stroke-linecap:butt;stroke-linejoin:miter;stroke-opacity:1"/>
<path class="bond-4 atom-4 atom-5" d="M 671.8,713.1 L 828.3,637.6" style="fill:none;fill-rule:evenodd;stroke:#000000;stroke-width:2.0px;stroke-linecap:butt;stroke-linejoin:miter;stroke-opacity:1"/>
<path class="bond-5 atom-5 atom-6" d="M 840.7,646.0 L 846.6,565.9" style="fill:none;fill-rule:evenodd;stroke:#000000;stroke-width:2.0px;stroke-linecap:butt;stroke-linejoin:miter;stroke-opacity:1"/>
<path class="bond-5 atom-5 atom-6" d="M 846.6,565.9 L 852.5,485.7" style="fill:none;fill-rule:evenodd;stroke:#FF0000;stroke-width:2.0px;stroke-linecap:butt;stroke-linejoin:miter;stroke-opacity:1"/>
<path class="bond-5 atom-5 atom-6" d="M 814.7,644.1 L 820.6,564.0" style="fill:none;fill-rule:evenodd;stroke:#000000;stroke-width:2.0px;stroke-linecap:butt;stroke-linejoin:miter;stroke-opacity:1"/>
<path class="bond-5 atom-5 atom-6" d="M 820.6,564.0 L 826.6,483.8" style="fill:none;fill-rule:evenodd;stroke:#FF0000;stroke-width:2.0px;stroke-linecap:butt;stroke-linejoin:miter;stroke-opacity:1"/>
<path class="bond-6 atom-5 atom-7" d="M 828.3,637.6 L 890.7,680.0" style="fill:none;fill-rule:evenodd;stroke:#000000;stroke-width:2.0px;stroke-linecap:butt;stroke-linejoin:miter;stroke-opacity:1"/>
<path class="bond-6 atom-5 atom-7" d="M 890.7,680.0 L 953.2,722.5" style="fill:none;fill-rule:evenodd;stroke:#FF0000;stroke-width:2.0px;stroke-linecap:butt;stroke-linejoin:miter;stroke-opacity:1"/>
<path class="bond-7 atom-7 atom-8" d="M 990.7,726.2 L 1055.1,695.1" style="fill:none;fill-rule:evenodd;stroke:#FF0000;stroke-width:2.0px;stroke-linecap:butt;stroke-linejoin:miter;stroke-opacity:1"/>
<path class="bond-7 atom-7 atom-8" d="M 1055.1,695.1 L 1119.5,664.0" style="fill:none;fill-rule:evenodd;stroke:#191919;stroke-width:2.0px;stroke-linecap:butt;stroke-linejoin:miter;stroke-opacity:1"/>
<path d="M 224.5,595.0 L 228.1,593.2 L 235.3,598.1" style="fill:none;stroke:#000000;stroke-width:2.0px;stroke-linecap:butt;stroke-linejoin:miter;stroke-opacity:1;"/>
<path d="M 364.6,686.1 L 371.7,691.0 L 379.6,687.2" style="fill:none;stroke:#000000;stroke-width:2.0px;stroke-linecap:butt;stroke-linejoin:miter;stroke-opacity:1;"/>
<path d="M 520.4,619.2 L 528.2,615.4 L 535.4,620.3" style="fill:none;stroke:#000000;stroke-width:2.0px;stroke-linecap:butt;stroke-linejoin:miter;stroke-opacity:1;"/>
<path d="M 664.6,708.2 L 671.8,713.1 L 679.6,709.3" style="fill:none;stroke:#000000;stroke-width:2.0px;stroke-linecap:butt;stroke-linejoin:miter;stroke-opacity:1;"/>
<path d="M 820.4,641.3 L 828.3,637.6 L 831.4,639.7" style="fill:none;stroke:#000000;stroke-width:2.0px;stroke-linecap:butt;stroke-linejoin:miter;stroke-opacity:1;"/>
<path class="atom-0" d="M 66.3 665.6 L 70.5 661.4 L 64.9 660.3 L 65.8 657.4 L 70.9 660.0 L 70.1 654.4 L 73.1 654.4 L 72.3 660.0 L 77.5 657.6 L 78.3 660.3 L 72.7 661.3 L 76.7 665.6 L 74.3 667.4 L 71.5 662.1 L 68.7 667.4 L 66.3 665.6 " fill="#191919"/>
<path class="atom-6" d="M 828.1 464.4 Q 828.1 457.6, 831.4 453.8 Q 834.8 450.0, 841.1 450.0 Q 847.3 450.0, 850.7 453.8 Q 854.1 457.6, 854.1 464.4 Q 854.1 471.3, 850.7 475.2 Q 847.3 479.1, 841.1 479.1 Q 834.8 479.1, 831.4 475.2 Q 828.1 471.3, 828.1 464.4 M 841.1 475.9 Q 845.4 475.9, 847.7 473.0 Q 850.1 470.1, 850.1 464.4 Q 850.1 458.8, 847.7 456.0 Q 845.4 453.2, 841.1 453.2 Q 836.7 453.2, 834.4 456.0 Q 832.1 458.8, 832.1 464.4 Q 832.1 470.1, 834.4 473.0 Q 836.7 475.9, 841.1 475.9 " fill="#FF0000"/>
<path class="atom-7" d="M 958.9 735.3 Q 958.9 728.5, 962.3 724.7 Q 965.6 720.9, 971.9 720.9 Q 978.2 720.9, 981.6 724.7 Q 984.9 728.5, 984.9 735.3 Q 984.9 742.2, 981.5 746.1 Q 978.1 750.0, 971.9 750.0 Q 965.7 750.0, 962.3 746.1 Q 958.9 742.3, 958.9 735.3 M 971.9 746.8 Q 976.2 746.8, 978.6 743.9 Q 980.9 741.0, 980.9 735.3 Q 980.9 729.8, 978.6 727.0 Q 976.2 724.1, 971.9 724.1 Q 967.6 724.1, 965.2 726.9 Q 962.9 729.7, 962.9 735.3 Q 962.9 741.1, 965.2 743.9 Q 967.6 746.8, 971.9 746.8 " fill="#FF0000"/>
<path class="atom-8" d="M 1123.0 656.6 L 1127.2 652.3 L 1121.7 651.2 L 1122.5 648.4 L 1127.6 650.9 L 1126.9 645.4 L 1129.9 645.3 L 1129.0 650.9 L 1134.2 648.5 L 1135.1 651.2 L 1129.5 652.2 L 1133.5 656.5 L 1131.0 658.3 L 1128.3 653.0 L 1125.5 658.3 L 1123.0 656.6 " fill="#191919"/>
</svg>