<svg xmlns="http://www.w3.org/2000/svg" xmlns:rdkit="http://www.rdkit.org/xml" xmlns:xlink="http://www.w3.org/1999/xlink" version="1.1" baseProfile="full" xml:space="preserve" width="1200px" height="800px" viewBox="0 0 1200 800">
<!-- END OF HEADER -->
<rect style="opacity:1.0;fill:#FFFFFF;stroke:none" width="1200.0" height="800.0" x="0.0" y="0.0"> </rect>
<path class="bond-0 atom-0 atom-1" d="M 91.1,38.1 L 132.4,59.6" style="fill:none;fill-rule:evenodd;stroke:#191919;stroke-width:2.0px;stroke-linecap:butt;stroke-linejoin:miter;stroke-opacity:1"/>
<path class="bond-0 atom-0 atom-1" d="M 132.4,59.6 L 173.8,81.0" style="fill:none;fill-rule:evenodd;stroke:#FF0000;stroke-width:2.0px;stroke-linecap:butt;stroke-linejoin:miter;stroke-opacity:1"/>
<path class="bond-1 atom-1 atom-2" d="M 191.5,108.4 L 193.7,157.8" style="fill:none;fill-rule:evenodd;stroke:#FF0000;stroke-width:2.0px;stroke-linecap:butt;stroke-linejoin:miter;stroke-opacity:1"/>
<path class="bond-1 atom-1 atom-2" d="M 193.7,157.8 L 196.0,207.2" style="fill:none;fill-rule:evenodd;stroke:#000000;stroke-width:2.0px;stroke-linecap:butt;stroke-linejoin:miter;stroke-opacity:1"/>
<path class="bond-2 atom-2 atom-3" d="M 196.0,207.2 L 300.3,261.3" style="fill:none;fill-rule:evenodd;stroke:#000000;stroke-width:2.0px;stroke-linecap:butt;stroke-linejoin:miter;stroke-opacity:1"/>
<path class="bond-3 atom-3 atom-4" d="M 300.3,261.3 L 305.5,378.7" style="fill:none;fill-rule:evenodd;stroke:#000000;stroke-width:2.0px;stroke-linecap:butt;stroke-linejoin:miter;stroke-opacity:1"/>
<path class="bond-4 atom-3 atom-5" d="M 300.3,261.3 L 399.3,198.1" style="fill:none;fill-rule:evenodd;stroke:#000000;stroke-width:2.0px;stroke-linecap:butt;stroke-linejoin:miter;stroke-opacity:1"/>
<path class="bond-5 atom-5 atom-6" d="M 399.3,198.1 L 443.0,220.8" style="fill:none;fill-rule:evenodd;stroke:#000000;stroke-width:2.0px;stroke-linecap:butt;stroke-linejoin:miter;stroke-opacity:1"/>
<path class="bond-5 atom-5 atom-6" d="M 443.0,220.8 L 486.7,243.5" style="fill:none;fill-rule:evenodd;stroke:#FF0000;stroke-width:2.0px;stroke-linecap:butt;stroke-linejoin:miter;stroke-opacity:1"/>
<path class="bond-6 atom-6 atom-7" d="M 520.5,241.4 L 561.6,215.2" style="fill:none;fill-rule:evenodd;stroke:#FF0000;stroke-width:2.0px;stroke-linecap:butt;stroke-linejoin:miter;stroke-opacity:1"/>
<path class="bond-6 atom-6 atom-7" d="M 561.6,215.2 L 602.6,189.0" style="fill:none;fill-rule:evenodd;stroke:#000000;stroke-width:2.0px;stroke-linecap:butt;stroke-linejoin:miter;stroke-opacity:1"/>
<path class="bond-7 atom-7 atom-8" d="M 611.7,193.6 L 609.3,141.7" style="fill:none;fill-rule:evenodd;stroke:#000000;stroke-width:2.0px;stroke-linecap:butt;stroke-linejoin:miter;stroke-opacity:1"/>
<path class="bond-7 atom-7 atom-8" d="M 609.3,141.7 L 607.0,89.8" style="fill:none;fill-rule:evenodd;stroke:#FF0000;stroke-width:2.0px;stroke-linecap:butt;stroke-linejoin:miter;stroke-opacity:1"/>
<path class="bond-7 atom-7 atom-8" d="M 594.1,194.4 L 591.7,142.5" style="fill:none;fill-rule:evenodd;stroke:#000000;stroke-width:2.0px;stroke-linecap:butt;stroke-linejoin:miter;stroke-opacity:1"/>
<path class="bond-7 atom-7 atom-8" d="M 591.7,142.5 L 589.4,90.6" style="fill:none;fill-rule:evenodd;stroke:#FF0000;stroke-width:2.0px;stroke-linecap:butt;stroke-linejoin:miter;stroke-opacity:1"/>
<path class="bond-8 atom-7 atom-9" d="M 602.6,189.0 L 706.9,243.1" style="fill:none;fill-rule:evenodd;stroke:#000000;stroke-width:2.0px;stroke-linecap:butt;stroke-linejoin:miter;stroke-opacity:1"/>
<path class="bond-9 atom-9 atom-10" d="M 706.9,243.1 L 806.0,179.8" style="fill:none;fill-rule:evenodd;stroke:#000000;stroke-width:2.0px;stroke-linecap:butt;stroke-linejoin:miter;stroke-opacity:1"/>
<path class="bond-10 atom-10 atom-11" d="M 806.0,179.8 L 910.3,234.0" style="fill:none;fill-rule:evenodd;stroke:#000000;stroke-width:2.0px;stroke-linecap:butt;stroke-linejoin:miter;stroke-opacity:1"/>
<path class="bond-11 atom-11 atom-12" d="M 910.3,234.0 L 1009.3,170.7" style="fill:none;fill-rule:evenodd;stroke:#000000;stroke-width:2.0px;stroke-linecap:butt;stroke-linejoin:miter;stroke-opacity:1"/>
<path class="bond-12 atom-12 atom-13" d="M 1009.3,170.7 L 1056.2,195.0" style="fill:none;fill-rule:evenodd;stroke:#000000;stroke-width:2.0px;stroke-linecap:butt;stroke-linejoin:miter;stroke-opacity:1"/>
<path class="bond-12 atom-12 atom-13" d="M 1056.2,195.0 L 1103.0,219.4" style="fill:none;fill-rule:evenodd;stroke:#191919;stroke-width:2.0px;stroke-linecap:butt;stroke-linejoin:miter;stroke-opacity:1"/>
<path class="bond-13 atom-12 atom-14" d="M 1018.3,175.4 L 1016.0,123.5" style="fill:none;fill-rule:evenodd;stroke:#000000;stroke-width:2.0px;stroke-linecap:butt;stroke-linejoin:miter;stroke-opacity:1"/>
<path class="bond-13 atom-12 atom-14" d="M 1016.0,123.5 L 1013.7,71.6" style="fill:none;fill-rule:evenodd;stroke:#FF0000;stroke-width:2.0px;stroke-linecap:butt;stroke-linejoin:miter;stroke-opacity:1"/>
<path class="bond-13 atom-12 atom-14" d="M 1000.7,176.2 L 998.4,124.3" style="fill:none;fill-rule:evenodd;stroke:#000000;stroke-width:2.0px;stroke-linecap:butt;stroke-linejoin:miter;stroke-opacity:1"/>
<path class="bond-13 atom-12 atom-14" d="M 998.4,124.3 L 996.1,72.4" style="fill:none;fill-rule:evenodd;stroke:#FF0000;stroke-width:2.0px;stroke-linecap:butt;stroke-linejoin:miter;stroke-opacity:1"/>
<path d="M 195.8,204.7 L 196.0,207.2 L 201.2,209.9" style="fill:none;stroke:#000000;stroke-width:2.0px;stroke-linecap:butt;stroke-linejoin:miter;stroke-opacity:1;"/>
<path d="M 394.3,201.2 L 399.3,198.1 L 401.5,199.2" style="fill:none;stroke:#000000;stroke-width:2.0px;stroke-linecap:butt;stroke-linejoin:miter;stroke-opacity:1;"/>
<path d="M 600.6,190.3 L 602.6,189.0 L 607.8,191.7" style="fill:none;stroke:#000000;stroke-width:2.0px;stroke-linecap:butt;stroke-linejoin:miter;stroke-opacity:1;"/>
<path d="M 701.7,240.4 L 706.9,243.1 L 711.9,239.9" style="fill:none;stroke:#000000;stroke-width:2.0px;stroke-linecap:butt;stroke-linejoin:miter;stroke-opacity:1;"/>
<path d="M 801.0,183.0 L 806.0,179.8 L 811.2,182.5" style="fill:none;stroke:#000000;stroke-width:2.0px;stroke-linecap:butt;stroke-linejoin:miter;stroke-opacity:1;"/>
<path d="M 905.1,231.3 L 910.3,234.0 L 915.2,230.8" style="fill:none;stroke:#000000;stroke-width:2.0px;stroke-linecap:butt;stroke-linejoin:miter;stroke-opacity:1;"/>
<path d="M 1004.4,173.9 L 1009.3,170.7 L 1011.7,171.9" style="fill:none;stroke:#000000;stroke-width:2.0px;stroke-linecap:butt;stroke-linejoin:miter;stroke-opacity:1;"/>
<path class="atom-0" d="M 81.0 32.5 L 85.2 28.3 L 79.7 27.1 L 80.5 24.3 L 85.6 26.9 L 84.9 21.3 L 87.9 21.3 L 87.0 26.8 L 92.2 24.4 L 93.1 27.1 L 87.5 28.2 L 91.5 32.5 L 89.0 34.2 L 86.3 28.9 L 83.5 34.2 L 81.0 32.5 " fill="#191919"/>
<path class="atom-1" d="M 177.7 89.9 Q 177.7 83.1, 181.0 79.3 Q 184.4 75.5, 190.7 75.5 Q 197.0 75.5, 200.3 79.3 Q 203.7 83.1, 203.7 89.9 Q 203.7 96.8, 200.3 100.7 Q 196.9 104.6, 190.7 104.6 Q 184.4 104.6, 181.0 100.7 Q 177.7 96.8, 177.7 89.9 M 190.7 101.4 Q 195.0 101.4, 197.3 98.5 Q 199.7 95.6, 199.7 89.9 Q 199.7 84.3, 197.3 81.5 Q 195.0 78.7, 190.7 78.7 Q 186.4 78.7, 184.0 81.5 Q 181.7 84.3, 181.7 89.9 Q 181.7 95.6, 184.0 98.5 Q 186.4 101.4, 190.7 101.4 " fill="#FF0000"/>
<path class="atom-6" d="M 490.6 252.3 Q 490.6 245.5, 494.0 241.7 Q 497.3 237.9, 503.6 237.9 Q 509.9 237.9, 513.2 241.7 Q 516.6 245.5, 516.6 252.3 Q 516.6 259.2, 513.2 263.1 Q 509.8 267.0, 503.6 267.0 Q 497.4 267.0, 494.0 263.1 Q 490.6 259.2, 490.6 252.3 M 503.6 263.8 Q 507.9 263.8, 510.2 260.9 Q 512.6 258.0, 512.6 252.3 Q 512.6 246.7, 510.2 243.9 Q 507.9 241.1, 503.6 241.1 Q 499.3 241.1, 496.9 243.9 Q 494.6 246.7, 494.6 252.3 Q 494.6 258.0, 496.9 260.9 Q 499.3 263.8, 503.6 263.8 " fill="#FF0000"/>
<path class="atom-8" d="M 584.4 71.6 Q 584.4 64.8, 587.7 61.0 Q 591.1 57.2, 597.4 57.2 Q 603.6 57.2, 607.0 61.0 Q 610.4 64.8, 610.4 71.6 Q 610.4 78.5, 607.0 82.4 Q 603.6 86.3, 597.4 86.3 Q 591.1 86.3, 587.7 82.4 Q 584.4 78.6, 584.4 71.6 M 597.4 83.1 Q 601.7 83.1, 604.0 80.2 Q 606.4 77.3, 606.4 71.6 Q 606.4 66.1, 604.0 63.3 Q 601.7 60.4, 597.4 60.4 Q 593.0 60.4, 590.7 63.2 Q 588.4 66.0, 588.4 71.6 Q 588.4 77.4, 590.7 80.2 Q 593.0 83.1, 597.4 83.1 " fill="#FF0000"/>
<path class="atom-13" d="M 1108.3 221.7 L 1112.4 217.5 L 1106.9 216.3 L 1107.8 213.5 L 1112.8 216.1 L 1112.1 210.5 L 1115.1 210.5 L 1114.3 216.0 L 1119.4 213.6 L 1120.3 216.3 L 1114.7 217.4 L 1118.7 221.7 L 1116.3 223.4 L 1113.5 218.1 L 1110.7 223.4 L 1108.3 221.7 " fill="#191919"/>
<path class="atom-14" d="M 991.0 53.4 Q 991.0 46.6, 994.4 42.8 Q 997.8 39.0, 1004.0 39.0 Q 1010.3 39.0, 1013.7 42.8 Q 1017.0 46.6, 1017.0 53.4 Q 1017.0 60.3, 1013.6 64.2 Q 1010.2 68.1, 1004.0 68.1 Q 997.8 68.1, 994.4 64.2 Q 991.0 60.3, 991.0 53.4 M 1004.0 64.9 Q 1008.4 64.9, 1010.7 62.0 Q 1013.0 59.1, 1013.0 53.4 Q 1013.0 47.8, 1010.7 45.0 Q 1008.4 42.2, 1004.0 42.2 Q 999.7 42.2, 997.4 45.0 Q 995.0 47.8, 995.0 53.4 Q 995.0 59.1, 997.4 62.0 Q 999.7 64.9, 1004.0 64.9 " fill="#FF0000"/>
<path class="bond-0 atom-0 atom-1" d="M 774.9,556.5 L 751.4,597.1" style="fill:none;fill-rule:evenodd;stroke:#191919;stroke-width:2.0px;stroke-linecap:butt;stroke-linejoin:miter;stroke-opacity:1"/>
<path class="bond-0 atom-0 atom-1" d="M 751.4,597.1 L 728.0,637.6" style="fill:none;fill-rule:evenodd;stroke:#FF0000;stroke-width:2.0px;stroke-linecap:butt;stroke-linejoin:miter;stroke-opacity:1"/>
<path class="bond-1 atom-1 atom-2" d="M 700.6,655.8 L 650.3,655.8" style="fill:none;fill-rule:evenodd;stroke:#FF0000;stroke-width:2.0px;stroke-linecap:butt;stroke-linejoin:miter;stroke-opacity:1"/>
<path class="bond-1 atom-1 atom-2" d="M 650.3,655.8 L 600.0,655.8" style="fill:none;fill-rule:evenodd;stroke:#000000;stroke-width:2.0px;stroke-linecap:butt;stroke-linejoin:miter;stroke-opacity:1"/>
<path class="bond-2 atom-2 atom-3" d="M 598.5,659.0 L 598.0,658.7" style="fill:none;fill-rule:evenodd;stroke:#000000;stroke-width:1.0px;stroke-linecap:butt;stroke-linejoin:miter;stroke-opacity:1"/>
<path class="bond-2 atom-2 atom-3" d="M 597.0,662.1 L 596.1,661.6" style="fill:none;fill-rule:evenodd;stroke:#000000;stroke-width:1.0px;stroke-linecap:butt;stroke-linejoin:miter;stroke-opacity:1"/>
<path class="bond-2 atom-2 atom-3" d="M 595.5,665.2 L 594.1,664.4" style="fill:none;fill-rule:evenodd;stroke:#000000;stroke-width:1.0px;stroke-linecap:butt;stroke-linejoin:miter;stroke-opacity:1"/>
<path class="bond-2 atom-2 atom-3" d="M 594.0,668.3 L 592.2,667.3" style="fill:none;fill-rule:evenodd;stroke:#000000;stroke-width:1.0px;stroke-linecap:butt;stroke-linejoin:miter;stroke-opacity:1"/>
<path class="bond-2 atom-2 atom-3" d="M 592.5,671.5 L 590.2,670.2" style="fill:none;fill-rule:evenodd;stroke:#000000;stroke-width:1.0px;stroke-linecap:butt;stroke-linejoin:miter;stroke-opacity:1"/>
<path class="bond-2 atom-2 atom-3" d="M 591.0,674.6 L 588.3,673.0" style="fill:none;fill-rule:evenodd;stroke:#000000;stroke-width:1.0px;stroke-linecap:butt;stroke-linejoin:miter;stroke-opacity:1"/>
<path class="bond-2 atom-2 atom-3" d="M 589.5,677.7 L 586.3,675.9" style="fill:none;fill-rule:evenodd;stroke:#000000;stroke-width:1.0px;stroke-linecap:butt;stroke-linejoin:miter;stroke-opacity:1"/>
<path class="bond-2 atom-2 atom-3" d="M 588.0,680.8 L 584.4,678.8" style="fill:none;fill-rule:evenodd;stroke:#000000;stroke-width:1.0px;stroke-linecap:butt;stroke-linejoin:miter;stroke-opacity:1"/>
<path class="bond-2 atom-2 atom-3" d="M 586.5,683.9 L 582.4,681.6" style="fill:none;fill-rule:evenodd;stroke:#000000;stroke-width:1.0px;stroke-linecap:butt;stroke-linejoin:miter;stroke-opacity:1"/>
<path class="bond-2 atom-2 atom-3" d="M 585.0,687.1 L 580.5,684.5" style="fill:none;fill-rule:evenodd;stroke:#000000;stroke-width:1.0px;stroke-linecap:butt;stroke-linejoin:miter;stroke-opacity:1"/>
<path class="bond-2 atom-2 atom-3" d="M 583.5,690.2 L 578.5,687.3" style="fill:none;fill-rule:evenodd;stroke:#000000;stroke-width:1.0px;stroke-linecap:butt;stroke-linejoin:miter;stroke-opacity:1"/>
<path class="bond-2 atom-2 atom-3" d="M 582.0,693.3 L 576.6,690.2" style="fill:none;fill-rule:evenodd;stroke:#000000;stroke-width:1.0px;stroke-linecap:butt;stroke-linejoin:miter;stroke-opacity:1"/>
<path class="bond-2 atom-2 atom-3" d="M 580.5,696.4 L 574.6,693.1" style="fill:none;fill-rule:evenodd;stroke:#000000;stroke-width:1.0px;stroke-linecap:butt;stroke-linejoin:miter;stroke-opacity:1"/>
<path class="bond-2 atom-2 atom-3" d="M 578.9,699.6 L 572.7,695.9" style="fill:none;fill-rule:evenodd;stroke:#000000;stroke-width:1.0px;stroke-linecap:butt;stroke-linejoin:miter;stroke-opacity:1"/>
<path class="bond-2 atom-2 atom-3" d="M 577.4,702.7 L 570.7,698.8" style="fill:none;fill-rule:evenodd;stroke:#000000;stroke-width:1.0px;stroke-linecap:butt;stroke-linejoin:miter;stroke-opacity:1"/>
<path class="bond-2 atom-2 atom-3" d="M 575.9,705.8 L 568.8,701.7" style="fill:none;fill-rule:evenodd;stroke:#000000;stroke-width:1.0px;stroke-linecap:butt;stroke-linejoin:miter;stroke-opacity:1"/>
<path class="bond-2 atom-2 atom-3" d="M 574.4,708.9 L 566.8,704.5" style="fill:none;fill-rule:evenodd;stroke:#000000;stroke-width:1.0px;stroke-linecap:butt;stroke-linejoin:miter;stroke-opacity:1"/>
<path class="bond-2 atom-2 atom-3" d="M 572.9,712.1 L 564.9,707.4" style="fill:none;fill-rule:evenodd;stroke:#000000;stroke-width:1.0px;stroke-linecap:butt;stroke-linejoin:miter;stroke-opacity:1"/>
<path class="bond-2 atom-2 atom-3" d="M 571.4,715.2 L 562.9,710.3" style="fill:none;fill-rule:evenodd;stroke:#000000;stroke-width:1.0px;stroke-linecap:butt;stroke-linejoin:miter;stroke-opacity:1"/>
<path class="bond-2 atom-2 atom-3" d="M 569.9,718.3 L 560.9,713.1" style="fill:none;fill-rule:evenodd;stroke:#000000;stroke-width:1.0px;stroke-linecap:butt;stroke-linejoin:miter;stroke-opacity:1"/>
<path class="bond-2 atom-2 atom-3" d="M 568.4,721.4 L 559.0,716.0" style="fill:none;fill-rule:evenodd;stroke:#000000;stroke-width:1.0px;stroke-linecap:butt;stroke-linejoin:miter;stroke-opacity:1"/>
<path class="bond-2 atom-2 atom-3" d="M 566.9,724.5 L 557.0,718.8" style="fill:none;fill-rule:evenodd;stroke:#000000;stroke-width:1.0px;stroke-linecap:butt;stroke-linejoin:miter;stroke-opacity:1"/>
<path class="bond-2 atom-2 atom-3" d="M 565.4,727.7 L 555.1,721.7" style="fill:none;fill-rule:evenodd;stroke:#000000;stroke-width:1.0px;stroke-linecap:butt;stroke-linejoin:miter;stroke-opacity:1"/>
<path class="bond-2 atom-2 atom-3" d="M 563.9,730.8 L 553.1,724.6" style="fill:none;fill-rule:evenodd;stroke:#000000;stroke-width:1.0px;stroke-linecap:butt;stroke-linejoin:miter;stroke-opacity:1"/>
<path class="bond-2 atom-2 atom-3" d="M 562.4,733.9 L 551.2,727.4" style="fill:none;fill-rule:evenodd;stroke:#000000;stroke-width:1.0px;stroke-linecap:butt;stroke-linejoin:miter;stroke-opacity:1"/>
<path class="bond-2 atom-2 atom-3" d="M 560.9,737.0 L 549.2,730.3" style="fill:none;fill-rule:evenodd;stroke:#000000;stroke-width:1.0px;stroke-linecap:butt;stroke-linejoin:miter;stroke-opacity:1"/>
<path class="bond-2 atom-2 atom-3" d="M 559.4,740.2 L 547.3,733.2" style="fill:none;fill-rule:evenodd;stroke:#000000;stroke-width:1.0px;stroke-linecap:butt;stroke-linejoin:miter;stroke-opacity:1"/>
<path class="bond-2 atom-2 atom-3" d="M 557.9,743.3 L 545.3,736.0" style="fill:none;fill-rule:evenodd;stroke:#000000;stroke-width:1.0px;stroke-linecap:butt;stroke-linejoin:miter;stroke-opacity:1"/>
<path class="bond-2 atom-2 atom-3" d="M 556.4,746.4 L 543.4,738.9" style="fill:none;fill-rule:evenodd;stroke:#000000;stroke-width:1.0px;stroke-linecap:butt;stroke-linejoin:miter;stroke-opacity:1"/>
<path class="bond-2 atom-2 atom-3" d="M 554.9,749.5 L 541.4,741.8" style="fill:none;fill-rule:evenodd;stroke:#000000;stroke-width:1.0px;stroke-linecap:butt;stroke-linejoin:miter;stroke-opacity:1"/>
<path class="bond-2 atom-2 atom-3" d="M 553.4,752.7 L 539.5,744.6" style="fill:none;fill-rule:evenodd;stroke:#000000;stroke-width:1.0px;stroke-linecap:butt;stroke-linejoin:miter;stroke-opacity:1"/>
<path class="bond-2 atom-2 atom-3" d="M 551.9,755.8 L 537.5,747.5" style="fill:none;fill-rule:evenodd;stroke:#000000;stroke-width:1.0px;stroke-linecap:butt;stroke-linejoin:miter;stroke-opacity:1"/>
<path class="bond-2 atom-2 atom-3" d="M 550.4,758.9 L 535.6,750.3" style="fill:none;fill-rule:evenodd;stroke:#000000;stroke-width:1.0px;stroke-linecap:butt;stroke-linejoin:miter;stroke-opacity:1"/>
<path class="bond-2 atom-2 atom-3" d="M 548.9,762.0 L 533.6,753.2" style="fill:none;fill-rule:evenodd;stroke:#000000;stroke-width:1.0px;stroke-linecap:butt;stroke-linejoin:miter;stroke-opacity:1"/>
<path class="bond-3 atom-2 atom-4" d="M 600.0,655.8 L 541.2,554.1" style="fill:none;fill-rule:evenodd;stroke:#000000;stroke-width:2.0px;stroke-linecap:butt;stroke-linejoin:miter;stroke-opacity:1"/>
<path class="bond-4 atom-4 atom-5" d="M 541.2,554.1 L 487.8,554.1" style="fill:none;fill-rule:evenodd;stroke:#000000;stroke-width:2.0px;stroke-linecap:butt;stroke-linejoin:miter;stroke-opacity:1"/>
<path class="bond-4 atom-4 atom-5" d="M 487.8,554.1 L 434.3,554.1" style="fill:none;fill-rule:evenodd;stroke:#191919;stroke-width:2.0px;stroke-linecap:butt;stroke-linejoin:miter;stroke-opacity:1"/>
<path class="bond-5 atom-4 atom-6" d="M 546.3,562.9 L 571.6,519.1" style="fill:none;fill-rule:evenodd;stroke:#000000;stroke-width:2.0px;stroke-linecap:butt;stroke-linejoin:miter;stroke-opacity:1"/>
<path class="bond-5 atom-4 atom-6" d="M 571.6,519.1 L 596.9,475.3" style="fill:none;fill-rule:evenodd;stroke:#FF0000;stroke-width:2.0px;stroke-linecap:butt;stroke-linejoin:miter;stroke-opacity:1"/>
<path class="bond-5 atom-4 atom-6" d="M 531.1,554.1 L 556.3,510.3" style="fill:none;fill-rule:evenodd;stroke:#000000;stroke-width:2.0px;stroke-linecap:butt;stroke-linejoin:miter;stroke-opacity:1"/>
<path class="bond-5 atom-4 atom-6" d="M 556.3,510.3 L 581.6,466.5" style="fill:none;fill-rule:evenodd;stroke:#FF0000;stroke-width:2.0px;stroke-linecap:butt;stroke-linejoin:miter;stroke-opacity:1"/>
<path d="M 602.5,655.8 L 600.0,655.8 L 597.1,650.8" style="fill:none;stroke:#000000;stroke-width:2.0px;stroke-linecap:butt;stroke-linejoin:miter;stroke-opacity:1;"/>
<path d="M 544.2,559.2 L 541.2,554.1 L 538.6,554.1" style="fill:none;stroke:#000000;stroke-width:2.0px;stroke-linecap:butt;stroke-linejoin:miter;stroke-opacity:1;"/>
<path class="atom-0" d="M 770.9 550.9 L 775.1 546.7 L 769.6 545.6 L 770.4 542.7 L 775.5 545.3 L 774.8 539.7 L 777.8 539.7 L 776.9 545.2 L 782.1 542.8 L 783.0 545.6 L 777.4 546.6 L 781.4 550.9 L 778.9 552.6 L 776.2 547.4 L 773.4 552.6 L 770.9 550.9 " fill="#191919"/>
<path class="atom-1" d="M 704.5 655.9 Q 704.5 649.1, 707.9 645.3 Q 711.2 641.5, 717.5 641.5 Q 723.8 641.5, 727.2 645.3 Q 730.5 649.1, 730.5 655.9 Q 730.5 662.8, 727.1 666.7 Q 723.7 670.6, 717.5 670.6 Q 711.3 670.6, 707.9 666.7 Q 704.5 662.8, 704.5 655.9 M 717.5 667.4 Q 721.8 667.4, 724.2 664.5 Q 726.5 661.6, 726.5 655.9 Q 726.5 650.4, 724.2 647.6 Q 721.8 644.7, 717.5 644.7 Q 713.2 644.7, 710.8 647.5 Q 708.5 650.3, 708.5 655.9 Q 708.5 661.6, 710.8 664.5 Q 713.2 667.4, 717.5 667.4 " fill="#FF0000"/>
<path class="atom-5" d="M 418.4 550.9 L 422.5 546.7 L 417.0 545.6 L 417.9 542.7 L 422.9 545.3 L 422.2 539.7 L 425.2 539.7 L 424.4 545.2 L 429.5 542.8 L 430.4 545.6 L 424.8 546.6 L 428.8 550.9 L 426.4 552.6 L 423.6 547.4 L 420.8 552.6 L 418.4 550.9 " fill="#191919"/>
<path class="atom-6" d="M 587.0 452.4 Q 587.0 445.6, 590.4 441.8 Q 593.7 438.0, 600.0 438.0 Q 606.3 438.0, 609.6 441.8 Q 613.0 445.6, 613.0 452.4 Q 613.0 459.3, 609.6 463.2 Q 606.2 467.1, 600.0 467.1 Q 593.8 467.1, 590.4 463.2 Q 587.0 459.3, 587.0 452.4 M 600.0 463.9 Q 604.3 463.9, 606.6 461.0 Q 609.0 458.1, 609.0 452.4 Q 609.0 446.8, 606.6 444.0 Q 604.3 441.2, 600.0 441.2 Q 595.7 441.2, 593.3 444.0 Q 591.0 446.8, 591.0 452.4 Q 591.0 458.1, 593.3 461.0 Q 595.7 463.9, 600.0 463.9 " fill="#FF0000"/>
</svg>