<svg xmlns="http://www.w3.org/2000/svg" xmlns:rdkit="http://www.rdkit.org/xml" xmlns:xlink="http://www.w3.org/1999/xlink" version="1.1" baseProfile="full" xml:space="preserve" width="1200px" height="800px" viewBox="0 0 1200 800">
<!-- END OF HEADER -->
<rect style="opacity:1.0;fill:#FFFFFF;stroke:none" width="1200.0" height="800.0" x="0.0" y="0.0"> </rect>
<path class="bond-0 atom-0 atom-1" d="M 91.1,38.1 L 132.4,59.6" style="fill:none;fill-rule:evenodd;stroke:#191919;stroke-width:2.0px;stroke-linecap:butt;stroke-linejoin:miter;stroke-opacity:1"/>
<path class="bond-0 atom-0 atom-1" d="M 132.4,59.6 L 173.8,81.0" style="fill:none;fill-rule:evenodd;stroke:#FF0000;stroke-width:2.0px;stroke-linecap:butt;stroke-linejoin:miter;stroke-opacity:1"/>
<path class="bond-1 atom-1 atom-2" d="M 191.5,108.4 L 193.7,157.8" style="fill:none;fill-rule:evenodd;stroke:#FF0000;stroke-width:2.0px;stroke-linecap:butt;stroke-linejoin:miter;stroke-opacity:1"/>
<path class="bond-1 atom-1 atom-2" d="M 193.7,157.8 L 196.0,207.2" style="fill:none;fill-rule:evenodd;stroke:#000000;stroke-width:2.0px;stroke-linecap:butt;stroke-linejoin:miter;stroke-opacity:1"/>
<path class="bond-2 atom-2 atom-3" d="M 196.0,207.2 L 300.3,261.3" style="fill:none;fill-rule:evenodd;stroke:#000000;stroke-width:2.0px;stroke-linecap:butt;stroke-linejoin:miter;stroke-opacity:1"/>
<path class="bond-3 atom-3 atom-4" d="M 300.3,261.3 L 305.5,378.7" style="fill:none;fill-rule:evenodd;stroke:#000000;stroke-width:2.0px;stroke-linecap:butt;stroke-linejoin:miter;stroke-opacity:1"/>
<path class="bond-4 atom-3 atom-5" d="M 300.3,261.3 L 399.3,198.1" style="fill:none;fill-rule:evenodd;stroke:#000000;stroke-width:2.0px;stroke-linecap:butt;stroke-linejoin:miter;stroke-opacity:1"/>
<path class="bond-5 atom-5 atom-6" d="M 399.3,198.1 L 443.0,220.8" style="fill:none;fill-rule:evenodd;stroke:#000000;stroke-width:2.0px;stroke-linecap:butt;stroke-linejoin:miter;stroke-opacity:1"/>
<path class="bond-5 atom-5 atom-6" d="M 443.0,220.8 L 486.7,243.5" style="fill:none;fill-rule:evenodd;stroke:#FF0000;stroke-width:2.0px;stroke-linecap:butt;stroke-linejoin:miter;stroke-opacity:1"/>
<path class="bond-6 atom-6 atom-7" d="M 520.5,241.4 L 561.6,215.2" style="fill:none;fill-rule:evenodd;stroke:#FF0000;stroke-width:2.0px;stroke-linecap:butt;stroke-linejoin:miter;stroke-opacity:1"/>
<path class="bond-6 atom-6 atom-7" d="M 561.6,215.2 L 602.6,189.0" style="fill:none;fill-rule:evenodd;stroke:#000000;stroke-width:2.0px;stroke-linecap:butt;stroke-linejoin:miter;stroke-opacity:1"/>
<path class="bond-7 atom-7 atom-8" d="M 611.7,193.6 L 609.3,141.7" style="fill:none;fill-rule:evenodd;stroke:#000000;stroke-width:2.0px;stroke-linecap:butt;stroke-linejoin:miter;stroke-opacity:1"/>
<path class="bond-7 atom-7 atom-8" d="M 609.3,141.7 L 607.0,89.8" style="fill:none;fill-rule:evenodd;stroke:#FF0000;stroke-width:2.0px;stroke-linecap:butt;stroke-linejoin:miter;stroke-opacity:1"/>
<path class="bond-7 atom-7 atom-8" d="M 594.1,194.4 L 591.7,142.5" style="fill:none;fill-rule:evenodd;stroke:#000000;stroke-width:2.0px;stroke-linecap:butt;stroke-linejoin:miter;stroke-opacity:1"/>
<path class="bond-7 atom-7 atom-8" d="M 591.7,142.5 L 589.4,90.6" style="fill:none;fill-rule:evenodd;stroke:#FF0000;stroke-width:2.0px;stroke-linecap:butt;stroke-linejoin:miter;stroke-opacity:1"/>
<path class="bond-8 atom-7 atom-9" d="M 602.6,189.0 L 706.9,243.1" style="fill:none;fill-rule:evenodd;stroke:#000000;stroke-width:2.0px;stroke-linecap:butt;stroke-linejoin:miter;stroke-opacity:1"/>
<path class="bond-9 atom-9 atom-10" d="M 706.9,243.1 L 806.0,179.8" style="fill:none;fill-rule:evenodd;stroke:#000000;stroke-width:2.0px;stroke-linecap:butt;stroke-linejoin:miter;stroke-opacity:1"/>
<path class="bond-10 atom-10 atom-11" d="M 806.0,179.8 L 910.3,234.0" style="fill:none;fill-rule:evenodd;stroke:#000000;stroke-width:2.0px;stroke-linecap:butt;stroke-linejoin:miter;stroke-opacity:1"/>
<path class="bond-11 atom-11 atom-12" d="M 910.3,234.0 L 1009.3,170.7" style="fill:none;fill-rule:evenodd;stroke:#000000;stroke-width:2.0px;stroke-linecap:butt;stroke-linejoin:miter;stroke-opacity:1"/>
<path class="bond-12 atom-12 atom-13" d="M 1009.3,170.7 L 1056.2,195.0" style="fill:none;fill-rule:evenodd;stroke:#000000;stroke-width:2.0px;stroke-linecap:butt;stroke-linejoin:miter;stroke-opacity:1"/>
<path class="bond-12 atom-12 atom-13" d="M 1056.2,195.0 L 1103.0,219.4" style="fill:none;fill-rule:evenodd;stroke:#191919;stroke-width:2.0px;stroke-linecap:butt;stroke-linejoin:miter;stroke-opacity:1"/>
<path class="bond-13 atom-12 atom-14" d="M 1018.3,175.4 L 1016.0,123.5" style="fill:none;fill-rule:evenodd;stroke:#000000;stroke-width:2.0px;stroke-linecap:butt;stroke-linejoin:miter;stroke-opacity:1"/>
<path class="bond-13 atom-12 atom-14" d="M 1016.0,123.5 L 1013.7,71.6" style="fill:none;fill-rule:evenodd;stroke:#FF0000;stroke-width:2.0px;stroke-linecap:butt;stroke-linejoin:miter;stroke-opacity:1"/>
<path class="bond-13 atom-12 atom-14" d="M 1000.7,176.2 L 998.4,124.3" style="fill:none;fill-rule:evenodd;stroke:#000000;stroke-width:2.0px;stroke-linecap:butt;stroke-linejoin:miter;stroke-opacity:1"/>
<path class="bond-13 atom-12 atom-14" d="M 998.4,124.3 L 996.1,72.4" style="fill:none;fill-rule:evenodd;stroke:#FF0000;stroke-width:2.0px;stroke-linecap:butt;stroke-linejoin:miter;stroke-opacity:1"/>
<path d="M 195.8,204.7 L 196.0,207.2 L 201.2,209.9" style="fill:none;stroke:#000000;stroke-width:2.0px;stroke-linecap:butt;stroke-linejoin:miter;stroke-opacity:1;"/>
<path d="M 394.3,201.2 L 399.3,198.1 L 401.5,199.2" style="fill:none;stroke:#000000;stroke-width:2.0px;stroke-linecap:butt;stroke-linejoin:miter;stroke-opacity:1;"/>
<path d="M 600.6,190.3 L 602.6,189.0 L 607.8,191.7" style="fill:none;stroke:#000000;stroke-width:2.0px;stroke-linecap:butt;stroke-linejoin:miter;stroke-opacity:1;"/>
<path d="M 701.7,240.4 L 706.9,243.1 L 711.9,239.9" style="fill:none;stroke:#000000;stroke-width:2.0px;stroke-linecap:butt;stroke-linejoin:miter;stroke-opacity:1;"/>
<path d="M 801.0,183.0 L 806.0,179.8 L 811.2,182.5" style="fill:none;stroke:#000000;stroke-width:2.0px;stroke-linecap:butt;stroke-linejoin:miter;stroke-opacity:1;"/>
<path d="M 905.1,231.3 L 910.3,234.0 L 915.2,230.8" style="fill:none;stroke:#000000;stroke-width:2.0px;stroke-linecap:butt;stroke-linejoin:miter;stroke-opacity:1;"/>
<path d="M 1004.4,173.9 L 1009.3,170.7 L 1011.7,171.9" style="fill:none;stroke:#000000;stroke-width:2.0px;stroke-linecap:butt;stroke-linejoin:miter;stroke-opacity:1;"/>
<path class="atom-0" d="M 81.0 32.5 L 85.2 28.3 L 79.7 27.1 L 80.5 24.3 L 85.6 26.9 L 84.9 21.3 L 87.9 21.3 L 87.0 26.8 L 92.2 24.4 L 93.1 27.1 L 87.5 28.2 L 91.5 32.5 L 89.0 34.2 L 86.3 28.9 L 83.5 34.2 L 81.0 32.5 " fill="#191919"/>
<path class="atom-1" d="M 177.7 89.9 Q 177.7 83.1, 181.0 79.3 Q 184.4 75.5, 190.7 75.5 Q 197.0 75.5, 200.3 79.3 Q 203.7 83.1, 203.7 89.9 Q 203.7 96.8, 200.3 100.7 Q 196.9 104.6, 190.7 104.6 Q 184.4 104.6, 181.0 100.7 Q 177.7 96.8, 177.7 89.9 M 190.7 101.4 Q 195.0 101.4, 197.3 98.5 Q 199.7 95.6, 199.7 89.9 Q 199.7 84.3, 197.3 81.5 Q 195.0 78.7, 190.7 78.7 Q 186.4 78.7, 184.0 81.5 Q 181.7 84.3, 181.7 89.9 Q 181.7 95.6, 184.0 98.5 Q 186.4 101.4, 190.7 101.4 " fill="#FF0000"/>
<path class="atom-6" d="M 490.6 252.3 Q 490.6 245.5, 494.0 241.7 Q 497.3 237.9, 503.6 237.9 Q 509.9 237.9, 513.2 241.7 Q 516.6 245.5, 516.6 252.3 Q 516.6 259.2, 513.2 263.1 Q 509.8 267.0, 503.6 267.0 Q 497.4 267.0, 494.0 263.1 Q 490.6 259.2, 490.6 252.3 M 503.6 263.8 Q 507.9 263.8, 510.2 260.9 Q 512.6 258.0, 512.6 252.3 Q 512.6 246.7, 510.2 243.9 Q 507.9 241.1, 503.6 241.1 Q 499.3 241.1, 496.9 243.9 Q 494.6 246.7, 494.6 252.3 Q 494.6 258.0, 496.9 260.9 Q 499.3 263.8, 503.6 263.8 " fill="#FF0000"/>
<path class="atom-8" d="M 584.4 71.6 Q 584.4 64.8, 587.7 61.0 Q 591.1 57.2, 597.4 57.2 Q 603.6 57.2, 607.0 61.0 Q 610.4 64.8, 610.4 71.6 Q 610.4 78.5, 607.0 82.4 Q 603.6 86.3, 597.4 86.3 Q 591.1 86.3, 587.7 82.4 Q 584.4 78.6, 584.4 71.6 M 597.4 83.1 Q 601.7 83.1, 604.0 80.2 Q 606.4 77.3, 606.4 71.6 Q 606.4 66.1, 604.0 63.3 Q 601.7 60.4, 597.4 60.4 Q 593.0 60.4, 590.7 63.2 Q 588.4 66.0, 588.4 71.6 Q 588.4 77.4, 590.7 80.2 Q 593.0 83.1, 597.4 83.1 " fill="#FF0000"/>
<path class="atom-13" d="M 1108.3 221.7 L 1112.4 217.5 L 1106.9 216.3 L 1107.8 213.5 L 1112.8 216.1 L 1112.1 210.5 L 1115.1 210.5 L 1114.3 216.0 L 1119.4 213.6 L 1120.3 216.3 L 1114.7 217.4 L 1118.7 221.7 L 1116.3 223.4 L 1113.5 218.1 L 1110.7 223.4 L 1108.3 221.7 " fill="#191919"/>
<path class="atom-14" d="M 991.0 53.4 Q 991.0 46.6, 994.4 42.8 Q 997.8 39.0, 1004.0 39.0 Q 1010.3 39.0, 1013.7 42.8 Q 1017.0 46.6, 1017.0 53.4 Q 1017.0 60.3, 1013.6 64.2 Q 1010.2 68.1, 1004.0 68.1 Q 997.8 68.1, 994.4 64.2 Q 991.0 60.3, 991.0 53.4 M 1004.0 64.9 Q 1008.4 64.9, 1010.7 62.0 Q 1013.0 59.1, 1013.0 53.4 Q 1013.0 47.8, 1010.7 45.0 Q 1008.4 42.2, 1004.0 42.2 Q 999.7 42.2, 997.4 45.0 Q 995.0 47.8, 995.0 53.4 Q 995.0 59.1, 997.4 62.0 Q 999.7 64.9, 1004.0 64.9 " fill="#FF0000"/>
<path class="bond-0 atom-0 atom-1" d="M 361.4,562.5 L 405.9,556.2" style="fill:none;fill-rule:evenodd;stroke:#191919;stroke-width:2.0px;stroke-linecap:butt;stroke-linejoin:miter;stroke-opacity:1"/>
<path class="bond-0 atom-0 atom-1" d="M 405.9,556.2 L 450.3,549.9" style="fill:none;fill-rule:evenodd;stroke:#FF0000;stroke-width:2.0px;stroke-linecap:butt;stroke-linejoin:miter;stroke-opacity:1"/>
<path class="bond-1 atom-1 atom-2" d="M 481.8,566.2 L 510.7,603.1" style="fill:none;fill-rule:evenodd;stroke:#FF0000;stroke-width:2.0px;stroke-linecap:butt;stroke-linejoin:miter;stroke-opacity:1"/>
<path class="bond-1 atom-1 atom-2" d="M 510.7,603.1 L 539.6,640.1" style="fill:none;fill-rule:evenodd;stroke:#000000;stroke-width:2.0px;stroke-linecap:butt;stroke-linejoin:miter;stroke-opacity:1"/>
<path class="bond-2 atom-2 atom-3" d="M 539.6,640.1 L 656.0,623.6" style="fill:none;fill-rule:evenodd;stroke:#000000;stroke-width:2.0px;stroke-linecap:butt;stroke-linejoin:miter;stroke-opacity:1"/>
<path class="bond-3 atom-3 atom-4" d="M 656.0,623.6 L 728.4,716.2" style="fill:none;fill-rule:evenodd;stroke:#000000;stroke-width:2.0px;stroke-linecap:butt;stroke-linejoin:miter;stroke-opacity:1"/>
<path class="bond-4 atom-3 atom-5" d="M 656.0,623.6 L 699.9,514.6" style="fill:none;fill-rule:evenodd;stroke:#000000;stroke-width:2.0px;stroke-linecap:butt;stroke-linejoin:miter;stroke-opacity:1"/>
<path class="bond-5 atom-5 atom-6" d="M 699.9,514.6 L 749.7,507.6" style="fill:none;fill-rule:evenodd;stroke:#000000;stroke-width:2.0px;stroke-linecap:butt;stroke-linejoin:miter;stroke-opacity:1"/>
<path class="bond-5 atom-5 atom-6" d="M 749.7,507.6 L 799.4,500.5" style="fill:none;fill-rule:evenodd;stroke:#FF0000;stroke-width:2.0px;stroke-linecap:butt;stroke-linejoin:miter;stroke-opacity:1"/>
<path d="M 538.2,638.2 L 539.6,640.1 L 545.5,639.3" style="fill:none;stroke:#000000;stroke-width:2.0px;stroke-linecap:butt;stroke-linejoin:miter;stroke-opacity:1;"/>
<path d="M 697.7,520.1 L 699.9,514.6 L 702.4,514.3" style="fill:none;stroke:#000000;stroke-width:2.0px;stroke-linecap:butt;stroke-linejoin:miter;stroke-opacity:1;"/>
<path class="atom-0" d="M 345.5 560.8 L 349.7 556.6 L 344.1 555.5 L 345.0 552.6 L 350.1 555.2 L 349.3 549.6 L 352.3 549.6 L 351.5 555.2 L 356.7 552.8 L 357.5 555.5 L 351.9 556.5 L 355.9 560.8 L 353.5 562.6 L 350.7 557.3 L 347.9 562.6 L 345.5 560.8 " fill="#191919"/>
<path class="atom-1" d="M 454.2 547.6 Q 454.2 540.8, 457.6 537.0 Q 460.9 533.2, 467.2 533.2 Q 473.5 533.2, 476.8 537.0 Q 480.2 540.8, 480.2 547.6 Q 480.2 554.5, 476.8 558.4 Q 473.4 562.3, 467.2 562.3 Q 461.0 562.3, 457.6 558.4 Q 454.2 554.5, 454.2 547.6 M 467.2 559.1 Q 471.5 559.1, 473.8 556.2 Q 476.2 553.3, 476.2 547.6 Q 476.2 542.1, 473.8 539.3 Q 471.5 536.4, 467.2 536.4 Q 462.9 536.4, 460.5 539.2 Q 458.2 542.0, 458.2 547.6 Q 458.2 553.3, 460.5 556.2 Q 462.9 559.1, 467.2 559.1 " fill="#FF0000"/>
<path class="atom-6" d="M 803.3 498.2 Q 803.3 491.4, 806.6 487.6 Q 810.0 483.8, 816.3 483.8 Q 822.6 483.8, 825.9 487.6 Q 829.3 491.4, 829.3 498.2 Q 829.3 505.1, 825.9 509.0 Q 822.5 512.9, 816.3 512.9 Q 810.0 512.9, 806.6 509.0 Q 803.3 505.2, 803.3 498.2 M 816.3 509.7 Q 820.6 509.7, 822.9 506.8 Q 825.3 503.9, 825.3 498.2 Q 825.3 492.7, 822.9 489.9 Q 820.6 487.0, 816.3 487.0 Q 812.0 487.0, 809.6 489.8 Q 807.3 492.6, 807.3 498.2 Q 807.3 504.0, 809.6 506.8 Q 812.0 509.7, 816.3 509.7 " fill="#FF0000"/>
<path class="atom-6" d="M 833.7 484.2 L 837.5 484.2 L 837.5 496.2 L 852.0 496.2 L 852.0 484.2 L 855.9 484.2 L 855.9 512.5 L 852.0 512.5 L 852.0 499.4 L 837.5 499.4 L 837.5 512.5 L 833.7 512.5 L 833.7 484.2 " fill="#FF0000"/>
</svg>