<svg xmlns="http://www.w3.org/2000/svg" xmlns:rdkit="http://www.rdkit.org/xml" xmlns:xlink="http://www.w3.org/1999/xlink" version="1.1" baseProfile="full" xml:space="preserve" width="1200px" height="800px" viewBox="0 0 1200 800">
<!-- END OF HEADER -->
<rect style="opacity:1.0;fill:#FFFFFF;stroke:none" width="1200.0" height="800.0" x="0.0" y="0.0"> </rect>
<path class="bond-0 atom-0 atom-1" d="M 859.2,287.3 L 855.2,264.1" style="fill:none;fill-rule:evenodd;stroke:#191919;stroke-width:2.0px;stroke-linecap:butt;stroke-linejoin:miter;stroke-opacity:1"/>
<path class="bond-0 atom-0 atom-1" d="M 855.2,264.1 L 851.2,240.9" style="fill:none;fill-rule:evenodd;stroke:#FF0000;stroke-width:2.0px;stroke-linecap:butt;stroke-linejoin:miter;stroke-opacity:1"/>
<path class="bond-1 atom-2 atom-1" d="M 779.7,201.9 L 808.0,209.4 L 806.1,214.6 Z" style="fill:#000000;fill-rule:evenodd;fill-opacity:1;stroke:#000000;stroke-width:0.5px;stroke-linecap:butt;stroke-linejoin:miter;stroke-opacity:1;"/>
<path class="bond-1 atom-2 atom-1" d="M 808.0,209.4 L 832.6,227.4 L 836.4,217.0 Z" style="fill:#FF0000;fill-rule:evenodd;fill-opacity:1;stroke:#FF0000;stroke-width:0.5px;stroke-linecap:butt;stroke-linejoin:miter;stroke-opacity:1;"/>
<path class="bond-1 atom-2 atom-1" d="M 808.0,209.4 L 806.1,214.6 L 832.6,227.4 Z" style="fill:#FF0000;fill-rule:evenodd;fill-opacity:1;stroke:#FF0000;stroke-width:0.5px;stroke-linecap:butt;stroke-linejoin:miter;stroke-opacity:1;"/>
<path class="bond-2 atom-2 atom-3" d="M 779.7,201.9 L 722.8,249.1" style="fill:none;fill-rule:evenodd;stroke:#000000;stroke-width:2.0px;stroke-linecap:butt;stroke-linejoin:miter;stroke-opacity:1"/>
<path class="bond-3 atom-3 atom-4" d="M 722.8,249.1 L 735.2,321.9" style="fill:none;fill-rule:evenodd;stroke:#000000;stroke-width:2.0px;stroke-linecap:butt;stroke-linejoin:miter;stroke-opacity:1"/>
<path class="bond-4 atom-4 atom-5" d="M 735.2,321.9 L 712.8,340.5" style="fill:none;fill-rule:evenodd;stroke:#000000;stroke-width:2.0px;stroke-linecap:butt;stroke-linejoin:miter;stroke-opacity:1"/>
<path class="bond-4 atom-4 atom-5" d="M 712.8,340.5 L 690.4,359.1" style="fill:none;fill-rule:evenodd;stroke:#FF0000;stroke-width:2.0px;stroke-linecap:butt;stroke-linejoin:miter;stroke-opacity:1"/>
<path class="bond-5 atom-3 atom-6" d="M 722.8,249.1 L 694.2,238.5" style="fill:none;fill-rule:evenodd;stroke:#000000;stroke-width:2.0px;stroke-linecap:butt;stroke-linejoin:miter;stroke-opacity:1"/>
<path class="bond-5 atom-3 atom-6" d="M 694.2,238.5 L 665.6,227.9" style="fill:none;fill-rule:evenodd;stroke:#FF0000;stroke-width:2.0px;stroke-linecap:butt;stroke-linejoin:miter;stroke-opacity:1"/>
<path class="bond-6 atom-6 atom-7" d="M 651.3,210.4 L 646.2,180.5" style="fill:none;fill-rule:evenodd;stroke:#FF0000;stroke-width:2.0px;stroke-linecap:butt;stroke-linejoin:miter;stroke-opacity:1"/>
<path class="bond-6 atom-6 atom-7" d="M 646.2,180.5 L 641.1,150.6" style="fill:none;fill-rule:evenodd;stroke:#000000;stroke-width:2.0px;stroke-linecap:butt;stroke-linejoin:miter;stroke-opacity:1"/>
<path class="bond-7 atom-7 atom-8" d="M 641.1,150.6 L 612.7,143.1 L 614.6,137.9 Z" style="fill:#000000;fill-rule:evenodd;fill-opacity:1;stroke:#000000;stroke-width:0.5px;stroke-linecap:butt;stroke-linejoin:miter;stroke-opacity:1;"/>
<path class="bond-7 atom-7 atom-8" d="M 612.7,143.1 L 588.2,125.1 L 584.4,135.5 Z" style="fill:#FF0000;fill-rule:evenodd;fill-opacity:1;stroke:#FF0000;stroke-width:0.5px;stroke-linecap:butt;stroke-linejoin:miter;stroke-opacity:1;"/>
<path class="bond-7 atom-7 atom-8" d="M 612.7,143.1 L 614.6,137.9 L 588.2,125.1 Z" style="fill:#FF0000;fill-rule:evenodd;fill-opacity:1;stroke:#FF0000;stroke-width:0.5px;stroke-linecap:butt;stroke-linejoin:miter;stroke-opacity:1;"/>
<path class="bond-8 atom-9 atom-8" d="M 517.8,170.2 L 517.3,169.7" style="fill:none;fill-rule:evenodd;stroke:#000000;stroke-width:1.0px;stroke-linecap:butt;stroke-linejoin:miter;stroke-opacity:1"/>
<path class="bond-8 atom-9 atom-8" d="M 520.7,168.3 L 519.8,167.2" style="fill:none;fill-rule:evenodd;stroke:#000000;stroke-width:1.0px;stroke-linecap:butt;stroke-linejoin:miter;stroke-opacity:1"/>
<path class="bond-8 atom-9 atom-8" d="M 523.6,166.4 L 522.2,164.7" style="fill:none;fill-rule:evenodd;stroke:#000000;stroke-width:1.0px;stroke-linecap:butt;stroke-linejoin:miter;stroke-opacity:1"/>
<path class="bond-8 atom-9 atom-8" d="M 526.5,164.5 L 524.6,162.2" style="fill:none;fill-rule:evenodd;stroke:#000000;stroke-width:1.0px;stroke-linecap:butt;stroke-linejoin:miter;stroke-opacity:1"/>
<path class="bond-8 atom-9 atom-8" d="M 529.4,162.6 L 527.0,159.7" style="fill:none;fill-rule:evenodd;stroke:#000000;stroke-width:1.0px;stroke-linecap:butt;stroke-linejoin:miter;stroke-opacity:1"/>
<path class="bond-8 atom-9 atom-8" d="M 532.2,160.7 L 529.4,157.3" style="fill:none;fill-rule:evenodd;stroke:#000000;stroke-width:1.0px;stroke-linecap:butt;stroke-linejoin:miter;stroke-opacity:1"/>
<path class="bond-8 atom-9 atom-8" d="M 535.1,158.7 L 531.8,154.8" style="fill:none;fill-rule:evenodd;stroke:#000000;stroke-width:1.0px;stroke-linecap:butt;stroke-linejoin:miter;stroke-opacity:1"/>
<path class="bond-8 atom-9 atom-8" d="M 538.0,156.8 L 534.2,152.3" style="fill:none;fill-rule:evenodd;stroke:#000000;stroke-width:1.0px;stroke-linecap:butt;stroke-linejoin:miter;stroke-opacity:1"/>
<path class="bond-8 atom-9 atom-8" d="M 540.9,154.9 L 536.6,149.8" style="fill:none;fill-rule:evenodd;stroke:#FF0000;stroke-width:1.0px;stroke-linecap:butt;stroke-linejoin:miter;stroke-opacity:1"/>
<path class="bond-8 atom-9 atom-8" d="M 543.8,153.0 L 539.0,147.3" style="fill:none;fill-rule:evenodd;stroke:#FF0000;stroke-width:1.0px;stroke-linecap:butt;stroke-linejoin:miter;stroke-opacity:1"/>
<path class="bond-8 atom-9 atom-8" d="M 546.6,151.1 L 541.5,144.9" style="fill:none;fill-rule:evenodd;stroke:#FF0000;stroke-width:1.0px;stroke-linecap:butt;stroke-linejoin:miter;stroke-opacity:1"/>
<path class="bond-8 atom-9 atom-8" d="M 549.5,149.2 L 543.9,142.4" style="fill:none;fill-rule:evenodd;stroke:#FF0000;stroke-width:1.0px;stroke-linecap:butt;stroke-linejoin:miter;stroke-opacity:1"/>
<path class="bond-8 atom-9 atom-8" d="M 552.4,147.3 L 546.3,139.9" style="fill:none;fill-rule:evenodd;stroke:#FF0000;stroke-width:1.0px;stroke-linecap:butt;stroke-linejoin:miter;stroke-opacity:1"/>
<path class="bond-8 atom-9 atom-8" d="M 555.3,145.4 L 548.7,137.4" style="fill:none;fill-rule:evenodd;stroke:#FF0000;stroke-width:1.0px;stroke-linecap:butt;stroke-linejoin:miter;stroke-opacity:1"/>
<path class="bond-8 atom-9 atom-8" d="M 558.2,143.5 L 551.1,134.9" style="fill:none;fill-rule:evenodd;stroke:#FF0000;stroke-width:1.0px;stroke-linecap:butt;stroke-linejoin:miter;stroke-opacity:1"/>
<path class="bond-9 atom-9 atom-10" d="M 514.9,172.1 L 445.6,146.5" style="fill:none;fill-rule:evenodd;stroke:#000000;stroke-width:2.0px;stroke-linecap:butt;stroke-linejoin:miter;stroke-opacity:1"/>
<path class="bond-10 atom-10 atom-11" d="M 445.6,146.5 L 433.2,73.7" style="fill:none;fill-rule:evenodd;stroke:#000000;stroke-width:2.0px;stroke-linecap:butt;stroke-linejoin:miter;stroke-opacity:1"/>
<path class="bond-11 atom-11 atom-12" d="M 433.2,73.7 L 404.6,63.1" style="fill:none;fill-rule:evenodd;stroke:#000000;stroke-width:2.0px;stroke-linecap:butt;stroke-linejoin:miter;stroke-opacity:1"/>
<path class="bond-11 atom-11 atom-12" d="M 404.6,63.1 L 376.0,52.5" style="fill:none;fill-rule:evenodd;stroke:#FF0000;stroke-width:2.0px;stroke-linecap:butt;stroke-linejoin:miter;stroke-opacity:1"/>
<path class="bond-12 atom-10 atom-13" d="M 445.6,146.5 L 423.2,165.1" style="fill:none;fill-rule:evenodd;stroke:#000000;stroke-width:2.0px;stroke-linecap:butt;stroke-linejoin:miter;stroke-opacity:1"/>
<path class="bond-12 atom-10 atom-13" d="M 423.2,165.1 L 400.8,183.7" style="fill:none;fill-rule:evenodd;stroke:#FF0000;stroke-width:2.0px;stroke-linecap:butt;stroke-linejoin:miter;stroke-opacity:1"/>
<path class="bond-13 atom-13 atom-14" d="M 391.1,207.0 L 396.1,236.8" style="fill:none;fill-rule:evenodd;stroke:#FF0000;stroke-width:2.0px;stroke-linecap:butt;stroke-linejoin:miter;stroke-opacity:1"/>
<path class="bond-13 atom-13 atom-14" d="M 396.1,236.8 L 401.2,266.5" style="fill:none;fill-rule:evenodd;stroke:#000000;stroke-width:2.0px;stroke-linecap:butt;stroke-linejoin:miter;stroke-opacity:1"/>
<path class="bond-14 atom-14 atom-15" d="M 398.7,269.1 L 398.3,268.6" style="fill:none;fill-rule:evenodd;stroke:#000000;stroke-width:1.0px;stroke-linecap:butt;stroke-linejoin:miter;stroke-opacity:1"/>
<path class="bond-14 atom-14 atom-15" d="M 396.1,271.6 L 395.3,270.6" style="fill:none;fill-rule:evenodd;stroke:#000000;stroke-width:1.0px;stroke-linecap:butt;stroke-linejoin:miter;stroke-opacity:1"/>
<path class="bond-14 atom-14 atom-15" d="M 393.5,274.1 L 392.3,272.6" style="fill:none;fill-rule:evenodd;stroke:#000000;stroke-width:1.0px;stroke-linecap:butt;stroke-linejoin:miter;stroke-opacity:1"/>
<path class="bond-14 atom-14 atom-15" d="M 391.0,276.7 L 389.3,274.7" style="fill:none;fill-rule:evenodd;stroke:#000000;stroke-width:1.0px;stroke-linecap:butt;stroke-linejoin:miter;stroke-opacity:1"/>
<path class="bond-14 atom-14 atom-15" d="M 388.4,279.2 L 386.4,276.7" style="fill:none;fill-rule:evenodd;stroke:#000000;stroke-width:1.0px;stroke-linecap:butt;stroke-linejoin:miter;stroke-opacity:1"/>
<path class="bond-14 atom-14 atom-15" d="M 385.9,281.8 L 383.4,278.8" style="fill:none;fill-rule:evenodd;stroke:#000000;stroke-width:1.0px;stroke-linecap:butt;stroke-linejoin:miter;stroke-opacity:1"/>
<path class="bond-14 atom-14 atom-15" d="M 383.3,284.3 L 380.4,280.8" style="fill:none;fill-rule:evenodd;stroke:#000000;stroke-width:1.0px;stroke-linecap:butt;stroke-linejoin:miter;stroke-opacity:1"/>
<path class="bond-14 atom-14 atom-15" d="M 380.8,286.9 L 377.4,282.9" style="fill:none;fill-rule:evenodd;stroke:#000000;stroke-width:1.0px;stroke-linecap:butt;stroke-linejoin:miter;stroke-opacity:1"/>
<path class="bond-14 atom-14 atom-15" d="M 378.2,289.4 L 374.5,284.9" style="fill:none;fill-rule:evenodd;stroke:#191919;stroke-width:1.0px;stroke-linecap:butt;stroke-linejoin:miter;stroke-opacity:1"/>
<path class="bond-14 atom-14 atom-15" d="M 375.6,292.0 L 371.5,287.0" style="fill:none;fill-rule:evenodd;stroke:#191919;stroke-width:1.0px;stroke-linecap:butt;stroke-linejoin:miter;stroke-opacity:1"/>
<path class="bond-14 atom-14 atom-15" d="M 373.1,294.5 L 368.5,289.0" style="fill:none;fill-rule:evenodd;stroke:#191919;stroke-width:1.0px;stroke-linecap:butt;stroke-linejoin:miter;stroke-opacity:1"/>
<path class="bond-14 atom-14 atom-15" d="M 370.5,297.1 L 365.5,291.0" style="fill:none;fill-rule:evenodd;stroke:#191919;stroke-width:1.0px;stroke-linecap:butt;stroke-linejoin:miter;stroke-opacity:1"/>
<path class="bond-14 atom-14 atom-15" d="M 368.0,299.6 L 362.6,293.1" style="fill:none;fill-rule:evenodd;stroke:#191919;stroke-width:1.0px;stroke-linecap:butt;stroke-linejoin:miter;stroke-opacity:1"/>
<path class="bond-14 atom-14 atom-15" d="M 365.4,302.2 L 359.6,295.1" style="fill:none;fill-rule:evenodd;stroke:#191919;stroke-width:1.0px;stroke-linecap:butt;stroke-linejoin:miter;stroke-opacity:1"/>
<path class="bond-14 atom-14 atom-15" d="M 362.9,304.7 L 356.6,297.2" style="fill:none;fill-rule:evenodd;stroke:#191919;stroke-width:1.0px;stroke-linecap:butt;stroke-linejoin:miter;stroke-opacity:1"/>
<path class="bond-14 atom-14 atom-15" d="M 360.3,307.3 L 353.6,299.2" style="fill:none;fill-rule:evenodd;stroke:#191919;stroke-width:1.0px;stroke-linecap:butt;stroke-linejoin:miter;stroke-opacity:1"/>
<path class="bond-14 atom-14 atom-15" d="M 357.7,309.8 L 350.7,301.3" style="fill:none;fill-rule:evenodd;stroke:#191919;stroke-width:1.0px;stroke-linecap:butt;stroke-linejoin:miter;stroke-opacity:1"/>
<path class="bond-15 atom-14 atom-16" d="M 401.2,266.5 L 470.5,292.2" style="fill:none;fill-rule:evenodd;stroke:#000000;stroke-width:2.0px;stroke-linecap:butt;stroke-linejoin:miter;stroke-opacity:1"/>
<path class="bond-16 atom-16 atom-17" d="M 470.5,292.2 L 475.6,322.1" style="fill:none;fill-rule:evenodd;stroke:#000000;stroke-width:2.0px;stroke-linecap:butt;stroke-linejoin:miter;stroke-opacity:1"/>
<path class="bond-16 atom-16 atom-17" d="M 475.6,322.1 L 480.7,352.0" style="fill:none;fill-rule:evenodd;stroke:#FF0000;stroke-width:2.0px;stroke-linecap:butt;stroke-linejoin:miter;stroke-opacity:1"/>
<path class="bond-17 atom-16 atom-18" d="M 470.5,292.2 L 527.4,245.0" style="fill:none;fill-rule:evenodd;stroke:#000000;stroke-width:2.0px;stroke-linecap:butt;stroke-linejoin:miter;stroke-opacity:1"/>
<path class="bond-18 atom-18 atom-19" d="M 530.7,245.9 L 530.5,246.5" style="fill:none;fill-rule:evenodd;stroke:#000000;stroke-width:1.0px;stroke-linecap:butt;stroke-linejoin:miter;stroke-opacity:1"/>
<path class="bond-18 atom-18 atom-19" d="M 534.0,246.7 L 533.6,248.0" style="fill:none;fill-rule:evenodd;stroke:#000000;stroke-width:1.0px;stroke-linecap:butt;stroke-linejoin:miter;stroke-opacity:1"/>
<path class="bond-18 atom-18 atom-19" d="M 537.4,247.6 L 536.7,249.5" style="fill:none;fill-rule:evenodd;stroke:#000000;stroke-width:1.0px;stroke-linecap:butt;stroke-linejoin:miter;stroke-opacity:1"/>
<path class="bond-18 atom-18 atom-19" d="M 540.7,248.5 L 539.8,251.0" style="fill:none;fill-rule:evenodd;stroke:#000000;stroke-width:1.0px;stroke-linecap:butt;stroke-linejoin:miter;stroke-opacity:1"/>
<path class="bond-18 atom-18 atom-19" d="M 544.1,249.4 L 542.9,252.5" style="fill:none;fill-rule:evenodd;stroke:#000000;stroke-width:1.0px;stroke-linecap:butt;stroke-linejoin:miter;stroke-opacity:1"/>
<path class="bond-18 atom-18 atom-19" d="M 547.4,250.3 L 546.0,254.0" style="fill:none;fill-rule:evenodd;stroke:#000000;stroke-width:1.0px;stroke-linecap:butt;stroke-linejoin:miter;stroke-opacity:1"/>
<path class="bond-18 atom-18 atom-19" d="M 550.7,251.2 L 549.2,255.5" style="fill:none;fill-rule:evenodd;stroke:#000000;stroke-width:1.0px;stroke-linecap:butt;stroke-linejoin:miter;stroke-opacity:1"/>
<path class="bond-18 atom-18 atom-19" d="M 554.1,252.1 L 552.3,257.0" style="fill:none;fill-rule:evenodd;stroke:#000000;stroke-width:1.0px;stroke-linecap:butt;stroke-linejoin:miter;stroke-opacity:1"/>
<path class="bond-18 atom-18 atom-19" d="M 557.4,253.0 L 555.4,258.5" style="fill:none;fill-rule:evenodd;stroke:#FF0000;stroke-width:1.0px;stroke-linecap:butt;stroke-linejoin:miter;stroke-opacity:1"/>
<path class="bond-18 atom-18 atom-19" d="M 560.7,253.8 L 558.5,260.0" style="fill:none;fill-rule:evenodd;stroke:#FF0000;stroke-width:1.0px;stroke-linecap:butt;stroke-linejoin:miter;stroke-opacity:1"/>
<path class="bond-18 atom-18 atom-19" d="M 564.1,254.7 L 561.6,261.5" style="fill:none;fill-rule:evenodd;stroke:#FF0000;stroke-width:1.0px;stroke-linecap:butt;stroke-linejoin:miter;stroke-opacity:1"/>
<path class="bond-18 atom-18 atom-19" d="M 567.4,255.6 L 564.7,263.0" style="fill:none;fill-rule:evenodd;stroke:#FF0000;stroke-width:1.0px;stroke-linecap:butt;stroke-linejoin:miter;stroke-opacity:1"/>
<path class="bond-18 atom-18 atom-19" d="M 570.8,256.5 L 567.8,264.5" style="fill:none;fill-rule:evenodd;stroke:#FF0000;stroke-width:1.0px;stroke-linecap:butt;stroke-linejoin:miter;stroke-opacity:1"/>
<path class="bond-18 atom-18 atom-19" d="M 574.1,257.4 L 570.9,266.0" style="fill:none;fill-rule:evenodd;stroke:#FF0000;stroke-width:1.0px;stroke-linecap:butt;stroke-linejoin:miter;stroke-opacity:1"/>
<path class="bond-18 atom-18 atom-19" d="M 577.4,258.3 L 574.0,267.5" style="fill:none;fill-rule:evenodd;stroke:#FF0000;stroke-width:1.0px;stroke-linecap:butt;stroke-linejoin:miter;stroke-opacity:1"/>
<path class="bond-18 atom-18 atom-19" d="M 580.8,259.2 L 577.1,269.0" style="fill:none;fill-rule:evenodd;stroke:#FF0000;stroke-width:1.0px;stroke-linecap:butt;stroke-linejoin:miter;stroke-opacity:1"/>
<path class="bond-18 atom-18 atom-19" d="M 584.1,260.1 L 580.3,270.5" style="fill:none;fill-rule:evenodd;stroke:#FF0000;stroke-width:1.0px;stroke-linecap:butt;stroke-linejoin:miter;stroke-opacity:1"/>
<path class="bond-19 atom-7 atom-20" d="M 641.1,150.6 L 697.9,103.4" style="fill:none;fill-rule:evenodd;stroke:#000000;stroke-width:2.0px;stroke-linecap:butt;stroke-linejoin:miter;stroke-opacity:1"/>
<path class="bond-20 atom-20 atom-21" d="M 697.9,103.4 L 692.9,73.7" style="fill:none;fill-rule:evenodd;stroke:#000000;stroke-width:2.0px;stroke-linecap:butt;stroke-linejoin:miter;stroke-opacity:1"/>
<path class="bond-20 atom-20 atom-21" d="M 692.9,73.7 L 687.8,43.9" style="fill:none;fill-rule:evenodd;stroke:#FF0000;stroke-width:2.0px;stroke-linecap:butt;stroke-linejoin:miter;stroke-opacity:1"/>
<path class="bond-21 atom-20 atom-22" d="M 697.9,103.4 L 767.2,129.1" style="fill:none;fill-rule:evenodd;stroke:#000000;stroke-width:2.0px;stroke-linecap:butt;stroke-linejoin:miter;stroke-opacity:1"/>
<path class="bond-22 atom-22 atom-23" d="M 767.2,129.1 L 786.7,109.3 L 790.2,113.6 Z" style="fill:#000000;fill-rule:evenodd;fill-opacity:1;stroke:#000000;stroke-width:0.5px;stroke-linecap:butt;stroke-linejoin:miter;stroke-opacity:1;"/>
<path class="bond-22 atom-22 atom-23" d="M 786.7,109.3 L 813.2,98.2 L 806.1,89.6 Z" style="fill:#FF0000;fill-rule:evenodd;fill-opacity:1;stroke:#FF0000;stroke-width:0.5px;stroke-linecap:butt;stroke-linejoin:miter;stroke-opacity:1;"/>
<path class="bond-22 atom-22 atom-23" d="M 786.7,109.3 L 790.2,113.6 L 813.2,98.2 Z" style="fill:#FF0000;fill-rule:evenodd;fill-opacity:1;stroke:#FF0000;stroke-width:0.5px;stroke-linecap:butt;stroke-linejoin:miter;stroke-opacity:1;"/>
<path class="bond-23 atom-22 atom-2" d="M 767.2,129.1 L 779.7,201.9" style="fill:none;fill-rule:evenodd;stroke:#000000;stroke-width:2.0px;stroke-linecap:butt;stroke-linejoin:miter;stroke-opacity:1"/>
<path class="bond-24 atom-18 atom-9" d="M 527.4,245.0 L 514.9,172.1" style="fill:none;fill-rule:evenodd;stroke:#000000;stroke-width:2.0px;stroke-linecap:butt;stroke-linejoin:miter;stroke-opacity:1"/>
<path d="M 776.8,204.3 L 779.7,201.9 L 779.1,198.3" style="fill:none;stroke:#000000;stroke-width:2.0px;stroke-linecap:butt;stroke-linejoin:miter;stroke-opacity:1;"/>
<path d="M 734.6,318.3 L 735.2,321.9 L 734.1,322.8" style="fill:none;stroke:#000000;stroke-width:2.0px;stroke-linecap:butt;stroke-linejoin:miter;stroke-opacity:1;"/>
<path d="M 641.3,152.1 L 641.1,150.6 L 643.9,148.2" style="fill:none;stroke:#000000;stroke-width:2.0px;stroke-linecap:butt;stroke-linejoin:miter;stroke-opacity:1;"/>
<path d="M 511.5,170.9 L 514.9,172.1 L 515.6,175.8" style="fill:none;stroke:#000000;stroke-width:2.0px;stroke-linecap:butt;stroke-linejoin:miter;stroke-opacity:1;"/>
<path d="M 433.8,77.3 L 433.2,73.7 L 431.8,73.1" style="fill:none;stroke:#000000;stroke-width:2.0px;stroke-linecap:butt;stroke-linejoin:miter;stroke-opacity:1;"/>
<path d="M 401.0,265.0 L 401.2,266.5 L 404.7,267.8" style="fill:none;stroke:#000000;stroke-width:2.0px;stroke-linecap:butt;stroke-linejoin:miter;stroke-opacity:1;"/>
<path d="M 524.5,247.3 L 527.4,245.0 L 526.8,241.3" style="fill:none;stroke:#000000;stroke-width:2.0px;stroke-linecap:butt;stroke-linejoin:miter;stroke-opacity:1;"/>
<path d="M 763.8,127.8 L 767.2,129.1 L 767.9,132.7" style="fill:none;stroke:#000000;stroke-width:2.0px;stroke-linecap:butt;stroke-linejoin:miter;stroke-opacity:1;"/>
<path class="atom-0" d="M 857.5 298.0 L 860.5 294.9 L 856.4 294.1 L 857.1 292.0 L 860.8 293.9 L 860.3 289.8 L 862.5 289.7 L 861.9 293.8 L 865.7 292.1 L 866.3 294.1 L 862.2 294.8 L 865.2 298.0 L 863.4 299.3 L 861.3 295.4 L 859.3 299.3 L 857.5 298.0 " fill="#191919"/>
<path class="atom-1" d="M 839.4 227.6 Q 839.4 222.6, 841.8 219.8 Q 844.3 217.0, 849.0 217.0 Q 853.6 217.0, 856.1 219.8 Q 858.6 222.6, 858.6 227.6 Q 858.6 232.7, 856.1 235.6 Q 853.5 238.4, 849.0 238.4 Q 844.4 238.4, 841.8 235.6 Q 839.4 232.7, 839.4 227.6 M 849.0 236.1 Q 852.2 236.1, 853.9 234.0 Q 855.6 231.8, 855.6 227.6 Q 855.6 223.5, 853.9 221.4 Q 852.2 219.3, 849.0 219.3 Q 845.8 219.3, 844.0 221.4 Q 842.3 223.5, 842.3 227.6 Q 842.3 231.8, 844.0 234.0 Q 845.8 236.1, 849.0 236.1 " fill="#FF0000"/>
<path class="atom-5" d="M 648.1 358.8 L 651.0 358.8 L 651.0 367.6 L 661.7 367.6 L 661.7 358.8 L 664.5 358.8 L 664.5 379.7 L 661.7 379.7 L 661.7 370.0 L 651.0 370.0 L 651.0 379.7 L 648.1 379.7 L 648.1 358.8 " fill="#FF0000"/>
<path class="atom-5" d="M 668.8 369.2 Q 668.8 364.1, 671.3 361.3 Q 673.8 358.5, 678.4 358.5 Q 683.0 358.5, 685.5 361.3 Q 688.0 364.1, 688.0 369.2 Q 688.0 374.2, 685.5 377.1 Q 683.0 380.0, 678.4 380.0 Q 673.8 380.0, 671.3 377.1 Q 668.8 374.3, 668.8 369.2 M 678.4 377.6 Q 681.6 377.6, 683.3 375.5 Q 685.0 373.4, 685.0 369.2 Q 685.0 365.0, 683.3 363.0 Q 681.6 360.9, 678.4 360.9 Q 675.2 360.9, 673.5 362.9 Q 671.7 365.0, 671.7 369.2 Q 671.7 373.4, 673.5 375.5 Q 675.2 377.6, 678.4 377.6 " fill="#FF0000"/>
<path class="atom-6" d="M 643.9 223.5 Q 643.9 218.5, 646.4 215.7 Q 648.9 212.8, 653.5 212.8 Q 658.2 212.8, 660.6 215.7 Q 663.1 218.5, 663.1 223.5 Q 663.1 228.6, 660.6 231.5 Q 658.1 234.3, 653.5 234.3 Q 648.9 234.3, 646.4 231.5 Q 643.9 228.6, 643.9 223.5 M 653.5 232.0 Q 656.7 232.0, 658.4 229.8 Q 660.2 227.7, 660.2 223.5 Q 660.2 219.4, 658.4 217.3 Q 656.7 215.2, 653.5 215.2 Q 650.3 215.2, 648.6 217.3 Q 646.9 219.4, 646.9 223.5 Q 646.9 227.7, 648.6 229.8 Q 650.3 232.0, 653.5 232.0 " fill="#FF0000"/>
<path class="atom-8" d="M 562.2 125.0 Q 562.2 120.0, 564.7 117.2 Q 567.2 114.4, 571.8 114.4 Q 576.4 114.4, 578.9 117.2 Q 581.4 120.0, 581.4 125.0 Q 581.4 130.1, 578.9 133.0 Q 576.4 135.9, 571.8 135.9 Q 567.2 135.9, 564.7 133.0 Q 562.2 130.1, 562.2 125.0 M 571.8 133.5 Q 575.0 133.5, 576.7 131.4 Q 578.4 129.2, 578.4 125.0 Q 578.4 120.9, 576.7 118.8 Q 575.0 116.7, 571.8 116.7 Q 568.6 116.7, 566.9 118.8 Q 565.1 120.9, 565.1 125.0 Q 565.1 129.2, 566.9 131.4 Q 568.6 133.5, 571.8 133.5 " fill="#FF0000"/>
<path class="atom-12" d="M 333.7 37.7 L 336.5 37.7 L 336.5 46.6 L 347.2 46.6 L 347.2 37.7 L 350.0 37.7 L 350.0 58.6 L 347.2 58.6 L 347.2 48.9 L 336.5 48.9 L 336.5 58.6 L 333.7 58.6 L 333.7 37.7 " fill="#FF0000"/>
<path class="atom-12" d="M 354.3 48.1 Q 354.3 43.0, 356.8 40.2 Q 359.3 37.4, 363.9 37.4 Q 368.6 37.4, 371.0 40.2 Q 373.5 43.0, 373.5 48.1 Q 373.5 53.2, 371.0 56.0 Q 368.5 58.9, 363.9 58.9 Q 359.3 58.9, 356.8 56.0 Q 354.3 53.2, 354.3 48.1 M 363.9 56.6 Q 367.1 56.6, 368.8 54.4 Q 370.6 52.3, 370.6 48.1 Q 370.6 44.0, 368.8 41.9 Q 367.1 39.8, 363.9 39.8 Q 360.7 39.8, 359.0 41.9 Q 357.3 43.9, 357.3 48.1 Q 357.3 52.3, 359.0 54.4 Q 360.7 56.6, 363.9 56.6 " fill="#FF0000"/>
<path class="atom-13" d="M 379.2 193.7 Q 379.2 188.7, 381.7 185.9 Q 384.1 183.1, 388.8 183.1 Q 393.4 183.1, 395.9 185.9 Q 398.4 188.7, 398.4 193.7 Q 398.4 198.8, 395.9 201.7 Q 393.4 204.6, 388.8 204.6 Q 384.2 204.6, 381.7 201.7 Q 379.2 198.8, 379.2 193.7 M 388.8 202.2 Q 392.0 202.2, 393.7 200.1 Q 395.4 197.9, 395.4 193.7 Q 395.4 189.6, 393.7 187.6 Q 392.0 185.5, 388.8 185.5 Q 385.6 185.5, 383.9 187.5 Q 382.1 189.6, 382.1 193.7 Q 382.1 198.0, 383.9 200.1 Q 385.6 202.2, 388.8 202.2 " fill="#FF0000"/>
<path class="atom-15" d="M 340.4 311.4 L 343.5 308.2 L 339.4 307.4 L 340.0 305.3 L 343.8 307.2 L 343.3 303.1 L 345.5 303.1 L 344.9 307.2 L 348.7 305.4 L 349.3 307.4 L 345.2 308.2 L 348.1 311.3 L 346.3 312.6 L 344.3 308.7 L 342.2 312.6 L 340.4 311.4 " fill="#191919"/>
<path class="atom-17" d="M 473.3 365.0 Q 473.3 360.0, 475.8 357.2 Q 478.3 354.4, 483.0 354.4 Q 487.6 354.4, 490.1 357.2 Q 492.6 360.0, 492.6 365.0 Q 492.6 370.1, 490.0 373.0 Q 487.5 375.9, 483.0 375.9 Q 478.3 375.9, 475.8 373.0 Q 473.3 370.2, 473.3 365.0 M 483.0 373.5 Q 486.1 373.5, 487.9 371.4 Q 489.6 369.2, 489.6 365.0 Q 489.6 360.9, 487.9 358.9 Q 486.1 356.8, 483.0 356.8 Q 479.8 356.8, 478.0 358.8 Q 476.3 360.9, 476.3 365.0 Q 476.3 369.3, 478.0 371.4 Q 479.8 373.5, 483.0 373.5 " fill="#FF0000"/>
<path class="atom-17" d="M 495.8 354.6 L 498.7 354.6 L 498.7 363.5 L 509.3 363.5 L 509.3 354.6 L 512.2 354.6 L 512.2 375.6 L 509.3 375.6 L 509.3 365.9 L 498.7 365.9 L 498.7 375.6 L 495.8 375.6 L 495.8 354.6 " fill="#FF0000"/>
<path class="atom-19" d="M 587.1 270.7 Q 587.1 265.6, 589.5 262.8 Q 592.0 260.0, 596.7 260.0 Q 601.3 260.0, 603.8 262.8 Q 606.3 265.6, 606.3 270.7 Q 606.3 275.8, 603.8 278.7 Q 601.2 281.5, 596.7 281.5 Q 592.1 281.5, 589.5 278.7 Q 587.1 275.8, 587.1 270.7 M 596.7 279.2 Q 599.9 279.2, 601.6 277.0 Q 603.3 274.9, 603.3 270.7 Q 603.3 266.6, 601.6 264.5 Q 599.9 262.4, 596.7 262.4 Q 593.5 262.4, 591.7 264.5 Q 590.0 266.5, 590.0 270.7 Q 590.0 274.9, 591.7 277.0 Q 593.5 279.2, 596.7 279.2 " fill="#FF0000"/>
<path class="atom-19" d="M 609.5 260.3 L 612.4 260.3 L 612.4 269.2 L 623.1 269.2 L 623.1 260.3 L 625.9 260.3 L 625.9 281.2 L 623.1 281.2 L 623.1 271.5 L 612.4 271.5 L 612.4 281.2 L 609.5 281.2 L 609.5 260.3 " fill="#FF0000"/>
<path class="atom-21" d="M 675.9 30.6 Q 675.9 25.6, 678.4 22.8 Q 680.9 20.0, 685.5 20.0 Q 690.2 20.0, 692.6 22.8 Q 695.1 25.6, 695.1 30.6 Q 695.1 35.7, 692.6 38.6 Q 690.1 41.5, 685.5 41.5 Q 680.9 41.5, 678.4 38.6 Q 675.9 35.8, 675.9 30.6 M 685.5 39.1 Q 688.7 39.1, 690.4 37.0 Q 692.2 34.8, 692.2 30.6 Q 692.2 26.5, 690.4 24.5 Q 688.7 22.4, 685.5 22.4 Q 682.3 22.4, 680.6 24.4 Q 678.9 26.5, 678.9 30.6 Q 678.9 34.9, 680.6 37.0 Q 682.3 39.1, 685.5 39.1 " fill="#FF0000"/>
<path class="atom-21" d="M 698.4 20.2 L 701.2 20.2 L 701.2 29.1 L 711.9 29.1 L 711.9 20.2 L 714.7 20.2 L 714.7 41.2 L 711.9 41.2 L 711.9 31.5 L 701.2 31.5 L 701.2 41.2 L 698.4 41.2 L 698.4 20.2 " fill="#FF0000"/>
<path class="atom-23" d="M 814.5 81.9 Q 814.5 76.9, 817.0 74.1 Q 819.5 71.3, 824.1 71.3 Q 828.7 71.3, 831.2 74.1 Q 833.7 76.9, 833.7 81.9 Q 833.7 87.0, 831.2 89.9 Q 828.7 92.8, 824.1 92.8 Q 819.5 92.8, 817.0 89.9 Q 814.5 87.0, 814.5 81.9 M 824.1 90.4 Q 827.3 90.4, 829.0 88.3 Q 830.7 86.1, 830.7 81.9 Q 830.7 77.8, 829.0 75.8 Q 827.3 73.7, 824.1 73.7 Q 820.9 73.7, 819.2 75.7 Q 817.4 77.8, 817.4 81.9 Q 817.4 86.2, 819.2 88.3 Q 820.9 90.4, 824.1 90.4 " fill="#FF0000"/>
<path class="atom-23" d="M 837.0 71.5 L 839.8 71.5 L 839.8 80.4 L 850.5 80.4 L 850.5 71.5 L 853.3 71.5 L 853.3 92.5 L 850.5 92.5 L 850.5 82.8 L 839.8 82.8 L 839.8 92.5 L 837.0 92.5 L 837.0 71.5 " fill="#FF0000"/>
<path class="bond-0 atom-0 atom-1" d="M 511.4,577.1 L 539.7,560.8" style="fill:none;fill-rule:evenodd;stroke:#191919;stroke-width:2.0px;stroke-linecap:butt;stroke-linejoin:miter;stroke-opacity:1"/>
<path class="bond-0 atom-0 atom-1" d="M 539.7,560.8 L 568.0,544.5" style="fill:none;fill-rule:evenodd;stroke:#000000;stroke-width:2.0px;stroke-linecap:butt;stroke-linejoin:miter;stroke-opacity:1"/>
<path class="bond-1 atom-1 atom-2" d="M 568.0,544.5 L 632.0,581.4" style="fill:none;fill-rule:evenodd;stroke:#000000;stroke-width:2.0px;stroke-linecap:butt;stroke-linejoin:miter;stroke-opacity:1"/>
<path class="bond-2 atom-2 atom-3" d="M 632.0,581.4 L 662.8,563.6" style="fill:none;fill-rule:evenodd;stroke:#000000;stroke-width:2.0px;stroke-linecap:butt;stroke-linejoin:miter;stroke-opacity:1"/>
<path class="bond-2 atom-2 atom-3" d="M 662.8,563.6 L 693.6,545.8" style="fill:none;fill-rule:evenodd;stroke:#191919;stroke-width:2.0px;stroke-linecap:butt;stroke-linejoin:miter;stroke-opacity:1"/>
<path class="bond-3 atom-2 atom-4" d="M 632.0,581.4 L 632.0,611.8" style="fill:none;fill-rule:evenodd;stroke:#000000;stroke-width:2.0px;stroke-linecap:butt;stroke-linejoin:miter;stroke-opacity:1"/>
<path class="bond-3 atom-2 atom-4" d="M 632.0,611.8 L 632.0,642.3" style="fill:none;fill-rule:evenodd;stroke:#FF0000;stroke-width:2.0px;stroke-linecap:butt;stroke-linejoin:miter;stroke-opacity:1"/>
<path d="M 566.6,545.3 L 568.0,544.5 L 571.2,546.3" style="fill:none;stroke:#000000;stroke-width:2.0px;stroke-linecap:butt;stroke-linejoin:miter;stroke-opacity:1;"/>
<path class="atom-0" d="M 500.1 579.1 L 503.1 575.9 L 499.1 575.1 L 499.7 573.0 L 503.4 574.9 L 502.9 570.8 L 505.1 570.8 L 504.5 574.9 L 508.3 573.1 L 509.0 575.1 L 504.8 575.9 L 507.8 579.0 L 506.0 580.3 L 503.9 576.4 L 501.9 580.3 L 500.1 579.1 " fill="#191919"/>
<path class="atom-3" d="M 692.0 542.1 L 695.1 539.0 L 691.0 538.2 L 691.7 536.1 L 695.4 538.0 L 694.9 533.8 L 697.1 533.8 L 696.5 537.9 L 700.3 536.1 L 700.9 538.2 L 696.8 538.9 L 699.7 542.1 L 697.9 543.4 L 695.9 539.5 L 693.8 543.4 L 692.0 542.1 " fill="#191919"/>
<path class="atom-4" d="M 622.4 655.3 Q 622.4 650.3, 624.9 647.5 Q 627.4 644.7, 632.0 644.7 Q 636.6 644.7, 639.1 647.5 Q 641.6 650.3, 641.6 655.3 Q 641.6 660.4, 639.1 663.3 Q 636.6 666.2, 632.0 666.2 Q 627.4 666.2, 624.9 663.3 Q 622.4 660.5, 622.4 655.3 M 632.0 663.8 Q 635.2 663.8, 636.9 661.7 Q 638.6 659.5, 638.6 655.3 Q 638.6 651.2, 636.9 649.2 Q 635.2 647.1, 632.0 647.1 Q 628.8 647.1, 627.1 649.1 Q 625.3 651.2, 625.3 655.3 Q 625.3 659.6, 627.1 661.7 Q 628.8 663.8, 632.0 663.8 " fill="#FF0000"/>
<path class="atom-4" d="M 644.9 644.9 L 647.7 644.9 L 647.7 653.8 L 658.4 653.8 L 658.4 644.9 L 661.2 644.9 L 661.2 665.9 L 658.4 665.9 L 658.4 656.2 L 647.7 656.2 L 647.7 665.9 L 644.9 665.9 L 644.9 644.9 " fill="#FF0000"/>
</svg>