<svg xmlns="http://www.w3.org/2000/svg" xmlns:rdkit="http://www.rdkit.org/xml" xmlns:xlink="http://www.w3.org/1999/xlink" version="1.1" baseProfile="full" xml:space="preserve" width="1200px" height="800px" viewBox="0 0 1200 800">
<!-- END OF HEADER -->
<rect style="opacity:1.0;fill:#FFFFFF;stroke:none" width="1200.0" height="800.0" x="0.0" y="0.0"> </rect>
<path class="bond-0 atom-0 atom-1" d="M 909.5,235.9 L 905.1,220.0" style="fill:none;fill-rule:evenodd;stroke:#191919;stroke-width:2.0px;stroke-linecap:butt;stroke-linejoin:miter;stroke-opacity:1"/>
<path class="bond-0 atom-0 atom-1" d="M 905.1,220.0 L 900.7,204.1" style="fill:none;fill-rule:evenodd;stroke:#000000;stroke-width:2.0px;stroke-linecap:butt;stroke-linejoin:miter;stroke-opacity:1"/>
<path class="bond-1 atom-1 atom-2" d="M 900.7,204.1 L 861.5,193.9" style="fill:none;fill-rule:evenodd;stroke:#000000;stroke-width:2.0px;stroke-linecap:butt;stroke-linejoin:miter;stroke-opacity:1"/>
<path class="bond-2 atom-2 atom-3" d="M 861.5,193.9 L 833.1,222.8" style="fill:none;fill-rule:evenodd;stroke:#000000;stroke-width:2.0px;stroke-linecap:butt;stroke-linejoin:miter;stroke-opacity:1"/>
<path class="bond-3 atom-3 atom-4" d="M 833.1,222.8 L 843.9,261.8" style="fill:none;fill-rule:evenodd;stroke:#000000;stroke-width:2.0px;stroke-linecap:butt;stroke-linejoin:miter;stroke-opacity:1"/>
<path class="bond-4 atom-4 atom-5" d="M 843.9,261.8 L 833.0,272.9" style="fill:none;fill-rule:evenodd;stroke:#000000;stroke-width:2.0px;stroke-linecap:butt;stroke-linejoin:miter;stroke-opacity:1"/>
<path class="bond-4 atom-4 atom-5" d="M 833.0,272.9 L 822.1,283.9" style="fill:none;fill-rule:evenodd;stroke:#FF0000;stroke-width:2.0px;stroke-linecap:butt;stroke-linejoin:miter;stroke-opacity:1"/>
<path class="bond-5 atom-3 atom-6" d="M 833.1,222.8 L 816.8,218.6" style="fill:none;fill-rule:evenodd;stroke:#000000;stroke-width:2.0px;stroke-linecap:butt;stroke-linejoin:miter;stroke-opacity:1"/>
<path class="bond-5 atom-3 atom-6" d="M 816.8,218.6 L 800.5,214.3" style="fill:none;fill-rule:evenodd;stroke:#FF0000;stroke-width:2.0px;stroke-linecap:butt;stroke-linejoin:miter;stroke-opacity:1"/>
<path class="bond-6 atom-6 atom-7" d="M 791.9,205.5 L 787.5,189.6" style="fill:none;fill-rule:evenodd;stroke:#FF0000;stroke-width:2.0px;stroke-linecap:butt;stroke-linejoin:miter;stroke-opacity:1"/>
<path class="bond-6 atom-6 atom-7" d="M 787.5,189.6 L 783.1,173.6" style="fill:none;fill-rule:evenodd;stroke:#000000;stroke-width:2.0px;stroke-linecap:butt;stroke-linejoin:miter;stroke-opacity:1"/>
<path class="bond-7 atom-7 atom-8" d="M 783.1,173.6 L 743.9,163.5" style="fill:none;fill-rule:evenodd;stroke:#000000;stroke-width:2.0px;stroke-linecap:butt;stroke-linejoin:miter;stroke-opacity:1"/>
<path class="bond-8 atom-8 atom-9" d="M 743.9,163.5 L 733.0,174.5" style="fill:none;fill-rule:evenodd;stroke:#000000;stroke-width:2.0px;stroke-linecap:butt;stroke-linejoin:miter;stroke-opacity:1"/>
<path class="bond-8 atom-8 atom-9" d="M 733.0,174.5 L 722.1,185.6" style="fill:none;fill-rule:evenodd;stroke:#FF0000;stroke-width:2.0px;stroke-linecap:butt;stroke-linejoin:miter;stroke-opacity:1"/>
<path class="bond-9 atom-9 atom-10" d="M 708.9,190.6 L 692.7,186.4" style="fill:none;fill-rule:evenodd;stroke:#FF0000;stroke-width:2.0px;stroke-linecap:butt;stroke-linejoin:miter;stroke-opacity:1"/>
<path class="bond-9 atom-9 atom-10" d="M 692.7,186.4 L 676.4,182.2" style="fill:none;fill-rule:evenodd;stroke:#000000;stroke-width:2.0px;stroke-linecap:butt;stroke-linejoin:miter;stroke-opacity:1"/>
<path class="bond-10 atom-10 atom-11" d="M 676.4,182.2 L 648.0,211.0" style="fill:none;fill-rule:evenodd;stroke:#000000;stroke-width:2.0px;stroke-linecap:butt;stroke-linejoin:miter;stroke-opacity:1"/>
<path class="bond-11 atom-11 atom-12" d="M 648.0,211.0 L 608.8,200.9" style="fill:none;fill-rule:evenodd;stroke:#000000;stroke-width:2.0px;stroke-linecap:butt;stroke-linejoin:miter;stroke-opacity:1"/>
<path class="bond-12 atom-12 atom-13" d="M 608.8,200.9 L 598.0,161.9" style="fill:none;fill-rule:evenodd;stroke:#000000;stroke-width:2.0px;stroke-linecap:butt;stroke-linejoin:miter;stroke-opacity:1"/>
<path class="bond-13 atom-13 atom-14" d="M 598.0,161.9 L 581.7,157.6" style="fill:none;fill-rule:evenodd;stroke:#000000;stroke-width:2.0px;stroke-linecap:butt;stroke-linejoin:miter;stroke-opacity:1"/>
<path class="bond-13 atom-13 atom-14" d="M 581.7,157.6 L 565.4,153.4" style="fill:none;fill-rule:evenodd;stroke:#FF0000;stroke-width:2.0px;stroke-linecap:butt;stroke-linejoin:miter;stroke-opacity:1"/>
<path class="bond-14 atom-14 atom-15" d="M 556.8,144.6 L 553.4,132.3" style="fill:none;fill-rule:evenodd;stroke:#FF0000;stroke-width:2.0px;stroke-linecap:butt;stroke-linejoin:miter;stroke-opacity:1"/>
<path class="bond-14 atom-14 atom-15" d="M 553.4,132.3 L 550.0,120.1" style="fill:none;fill-rule:evenodd;stroke:#000000;stroke-width:2.0px;stroke-linecap:butt;stroke-linejoin:miter;stroke-opacity:1"/>
<path class="bond-15 atom-15 atom-16" d="M 554.4,110.9 L 567.4,107.3" style="fill:none;fill-rule:evenodd;stroke:#000000;stroke-width:2.0px;stroke-linecap:butt;stroke-linejoin:miter;stroke-opacity:1"/>
<path class="bond-15 atom-15 atom-16" d="M 567.4,107.3 L 580.4,103.7" style="fill:none;fill-rule:evenodd;stroke:#FF0000;stroke-width:2.0px;stroke-linecap:butt;stroke-linejoin:miter;stroke-opacity:1"/>
<path class="bond-16 atom-15 atom-17" d="M 546.1,105.7 L 542.6,93.3" style="fill:none;fill-rule:evenodd;stroke:#000000;stroke-width:2.0px;stroke-linecap:butt;stroke-linejoin:miter;stroke-opacity:1"/>
<path class="bond-16 atom-15 atom-17" d="M 542.6,93.3 L 539.2,81.0" style="fill:none;fill-rule:evenodd;stroke:#FF0000;stroke-width:2.0px;stroke-linecap:butt;stroke-linejoin:miter;stroke-opacity:1"/>
<path class="bond-17 atom-15 atom-18" d="M 541.7,114.5 L 509.0,123.5" style="fill:none;fill-rule:evenodd;stroke:#000000;stroke-width:2.0px;stroke-linecap:butt;stroke-linejoin:miter;stroke-opacity:1"/>
<path class="bond-18 atom-18 atom-19" d="M 509.0,123.5 L 480.1,95.1" style="fill:none;fill-rule:evenodd;stroke:#000000;stroke-width:2.0px;stroke-linecap:butt;stroke-linejoin:miter;stroke-opacity:1"/>
<path class="bond-19 atom-19 atom-20" d="M 480.1,95.1 L 463.9,99.6" style="fill:none;fill-rule:evenodd;stroke:#000000;stroke-width:2.0px;stroke-linecap:butt;stroke-linejoin:miter;stroke-opacity:1"/>
<path class="bond-19 atom-19 atom-20" d="M 463.9,99.6 L 447.7,104.1" style="fill:none;fill-rule:evenodd;stroke:#FF0000;stroke-width:2.0px;stroke-linecap:butt;stroke-linejoin:miter;stroke-opacity:1"/>
<path class="bond-20 atom-20 atom-21" d="M 434.5,99.4 L 423.4,88.5" style="fill:none;fill-rule:evenodd;stroke:#FF0000;stroke-width:2.0px;stroke-linecap:butt;stroke-linejoin:miter;stroke-opacity:1"/>
<path class="bond-20 atom-20 atom-21" d="M 423.4,88.5 L 412.3,77.5" style="fill:none;fill-rule:evenodd;stroke:#000000;stroke-width:2.0px;stroke-linecap:butt;stroke-linejoin:miter;stroke-opacity:1"/>
<path class="bond-21 atom-21 atom-22" d="M 412.3,77.5 L 373.3,88.3" style="fill:none;fill-rule:evenodd;stroke:#000000;stroke-width:2.0px;stroke-linecap:butt;stroke-linejoin:miter;stroke-opacity:1"/>
<path class="bond-22 atom-22 atom-23" d="M 370.8,85.9 L 366.4,102.7" style="fill:none;fill-rule:evenodd;stroke:#000000;stroke-width:2.0px;stroke-linecap:butt;stroke-linejoin:miter;stroke-opacity:1"/>
<path class="bond-22 atom-22 atom-23" d="M 366.4,102.7 L 362.0,119.6" style="fill:none;fill-rule:evenodd;stroke:#FF0000;stroke-width:2.0px;stroke-linecap:butt;stroke-linejoin:miter;stroke-opacity:1"/>
<path class="bond-22 atom-22 atom-23" d="M 376.6,87.4 L 372.3,104.3" style="fill:none;fill-rule:evenodd;stroke:#000000;stroke-width:2.0px;stroke-linecap:butt;stroke-linejoin:miter;stroke-opacity:1"/>
<path class="bond-22 atom-22 atom-23" d="M 372.3,104.3 L 367.9,121.1" style="fill:none;fill-rule:evenodd;stroke:#FF0000;stroke-width:2.0px;stroke-linecap:butt;stroke-linejoin:miter;stroke-opacity:1"/>
<path class="bond-23 atom-22 atom-24" d="M 373.3,88.3 L 344.4,59.9" style="fill:none;fill-rule:evenodd;stroke:#000000;stroke-width:2.0px;stroke-linecap:butt;stroke-linejoin:miter;stroke-opacity:1"/>
<path class="bond-24 atom-24 atom-25" d="M 346.9,62.4 L 357.5,21.5" style="fill:none;fill-rule:evenodd;stroke:#000000;stroke-width:2.0px;stroke-linecap:butt;stroke-linejoin:miter;stroke-opacity:1"/>
<path class="bond-24 atom-24 atom-25" d="M 341.0,60.9 L 351.6,20.0" style="fill:none;fill-rule:evenodd;stroke:#000000;stroke-width:2.0px;stroke-linecap:butt;stroke-linejoin:miter;stroke-opacity:1"/>
<path class="bond-25 atom-24 atom-26" d="M 344.4,59.9 L 305.4,70.7" style="fill:none;fill-rule:evenodd;stroke:#000000;stroke-width:2.0px;stroke-linecap:butt;stroke-linejoin:miter;stroke-opacity:1"/>
<path class="bond-26 atom-12 atom-27" d="M 608.8,200.9 L 597.9,211.9" style="fill:none;fill-rule:evenodd;stroke:#000000;stroke-width:2.0px;stroke-linecap:butt;stroke-linejoin:miter;stroke-opacity:1"/>
<path class="bond-26 atom-12 atom-27" d="M 597.9,211.9 L 587.0,223.0" style="fill:none;fill-rule:evenodd;stroke:#FF0000;stroke-width:2.0px;stroke-linecap:butt;stroke-linejoin:miter;stroke-opacity:1"/>
<path class="bond-27 atom-27 atom-28" d="M 582.4,237.0 L 586.8,252.9" style="fill:none;fill-rule:evenodd;stroke:#FF0000;stroke-width:2.0px;stroke-linecap:butt;stroke-linejoin:miter;stroke-opacity:1"/>
<path class="bond-27 atom-27 atom-28" d="M 586.8,252.9 L 591.2,268.7" style="fill:none;fill-rule:evenodd;stroke:#000000;stroke-width:2.0px;stroke-linecap:butt;stroke-linejoin:miter;stroke-opacity:1"/>
<path class="bond-28 atom-28 atom-29" d="M 591.2,268.7 L 562.8,297.6" style="fill:none;fill-rule:evenodd;stroke:#000000;stroke-width:2.0px;stroke-linecap:butt;stroke-linejoin:miter;stroke-opacity:1"/>
<path class="bond-29 atom-29 atom-30" d="M 562.8,297.6 L 546.5,293.4" style="fill:none;fill-rule:evenodd;stroke:#000000;stroke-width:2.0px;stroke-linecap:butt;stroke-linejoin:miter;stroke-opacity:1"/>
<path class="bond-29 atom-29 atom-30" d="M 546.5,293.4 L 530.2,289.2" style="fill:none;fill-rule:evenodd;stroke:#FF0000;stroke-width:2.0px;stroke-linecap:butt;stroke-linejoin:miter;stroke-opacity:1"/>
<path class="bond-30 atom-30 atom-31" d="M 517.0,294.2 L 506.1,305.2" style="fill:none;fill-rule:evenodd;stroke:#FF0000;stroke-width:2.0px;stroke-linecap:butt;stroke-linejoin:miter;stroke-opacity:1"/>
<path class="bond-30 atom-30 atom-31" d="M 506.1,305.2 L 495.3,316.3" style="fill:none;fill-rule:evenodd;stroke:#000000;stroke-width:2.0px;stroke-linecap:butt;stroke-linejoin:miter;stroke-opacity:1"/>
<path class="bond-31 atom-31 atom-32" d="M 495.3,316.3 L 456.1,306.2" style="fill:none;fill-rule:evenodd;stroke:#000000;stroke-width:2.0px;stroke-linecap:butt;stroke-linejoin:miter;stroke-opacity:1"/>
<path class="bond-32 atom-32 atom-33" d="M 456.1,306.2 L 445.3,267.1" style="fill:none;fill-rule:evenodd;stroke:#000000;stroke-width:2.0px;stroke-linecap:butt;stroke-linejoin:miter;stroke-opacity:1"/>
<path class="bond-33 atom-33 atom-34" d="M 445.3,267.1 L 473.7,238.3" style="fill:none;fill-rule:evenodd;stroke:#000000;stroke-width:2.0px;stroke-linecap:butt;stroke-linejoin:miter;stroke-opacity:1"/>
<path class="bond-34 atom-34 atom-35" d="M 473.7,238.3 L 469.3,222.4" style="fill:none;fill-rule:evenodd;stroke:#000000;stroke-width:2.0px;stroke-linecap:butt;stroke-linejoin:miter;stroke-opacity:1"/>
<path class="bond-34 atom-34 atom-35" d="M 469.3,222.4 L 464.9,206.6" style="fill:none;fill-rule:evenodd;stroke:#FF0000;stroke-width:2.0px;stroke-linecap:butt;stroke-linejoin:miter;stroke-opacity:1"/>
<path class="bond-35 atom-33 atom-36" d="M 445.3,267.1 L 429.0,262.9" style="fill:none;fill-rule:evenodd;stroke:#000000;stroke-width:2.0px;stroke-linecap:butt;stroke-linejoin:miter;stroke-opacity:1"/>
<path class="bond-35 atom-33 atom-36" d="M 429.0,262.9 L 412.7,258.7" style="fill:none;fill-rule:evenodd;stroke:#FF0000;stroke-width:2.0px;stroke-linecap:butt;stroke-linejoin:miter;stroke-opacity:1"/>
<path class="bond-36 atom-36 atom-37" d="M 399.5,263.7 L 388.6,274.8" style="fill:none;fill-rule:evenodd;stroke:#FF0000;stroke-width:2.0px;stroke-linecap:butt;stroke-linejoin:miter;stroke-opacity:1"/>
<path class="bond-36 atom-36 atom-37" d="M 388.6,274.8 L 377.7,285.9" style="fill:none;fill-rule:evenodd;stroke:#000000;stroke-width:2.0px;stroke-linecap:butt;stroke-linejoin:miter;stroke-opacity:1"/>
<path class="bond-37 atom-37 atom-38" d="M 377.7,285.9 L 338.5,275.7" style="fill:none;fill-rule:evenodd;stroke:#000000;stroke-width:2.0px;stroke-linecap:butt;stroke-linejoin:miter;stroke-opacity:1"/>
<path class="bond-38 atom-38 atom-39" d="M 338.5,275.7 L 334.1,259.8" style="fill:none;fill-rule:evenodd;stroke:#000000;stroke-width:2.0px;stroke-linecap:butt;stroke-linejoin:miter;stroke-opacity:1"/>
<path class="bond-38 atom-38 atom-39" d="M 334.1,259.8 L 329.7,244.0" style="fill:none;fill-rule:evenodd;stroke:#FF0000;stroke-width:2.0px;stroke-linecap:butt;stroke-linejoin:miter;stroke-opacity:1"/>
<path class="bond-39 atom-39 atom-40" d="M 321.1,235.0 L 306.3,231.1" style="fill:none;fill-rule:evenodd;stroke:#FF0000;stroke-width:2.0px;stroke-linecap:butt;stroke-linejoin:miter;stroke-opacity:1"/>
<path class="bond-39 atom-39 atom-40" d="M 306.3,231.1 L 291.4,227.3" style="fill:none;fill-rule:evenodd;stroke:#191919;stroke-width:2.0px;stroke-linecap:butt;stroke-linejoin:miter;stroke-opacity:1"/>
<path class="bond-40 atom-37 atom-41" d="M 377.7,285.9 L 388.5,324.9" style="fill:none;fill-rule:evenodd;stroke:#000000;stroke-width:2.0px;stroke-linecap:butt;stroke-linejoin:miter;stroke-opacity:1"/>
<path class="bond-41 atom-41 atom-42" d="M 388.5,324.9 L 377.6,335.9" style="fill:none;fill-rule:evenodd;stroke:#000000;stroke-width:2.0px;stroke-linecap:butt;stroke-linejoin:miter;stroke-opacity:1"/>
<path class="bond-41 atom-41 atom-42" d="M 377.6,335.9 L 366.7,347.0" style="fill:none;fill-rule:evenodd;stroke:#FF0000;stroke-width:2.0px;stroke-linecap:butt;stroke-linejoin:miter;stroke-opacity:1"/>
<path class="bond-42 atom-41 atom-43" d="M 388.5,324.9 L 427.7,335.0" style="fill:none;fill-rule:evenodd;stroke:#000000;stroke-width:2.0px;stroke-linecap:butt;stroke-linejoin:miter;stroke-opacity:1"/>
<path class="bond-43 atom-43 atom-44" d="M 427.7,335.0 L 432.1,351.0" style="fill:none;fill-rule:evenodd;stroke:#000000;stroke-width:2.0px;stroke-linecap:butt;stroke-linejoin:miter;stroke-opacity:1"/>
<path class="bond-43 atom-43 atom-44" d="M 432.1,351.0 L 436.5,366.9" style="fill:none;fill-rule:evenodd;stroke:#FF0000;stroke-width:2.0px;stroke-linecap:butt;stroke-linejoin:miter;stroke-opacity:1"/>
<path class="bond-44 atom-28 atom-45" d="M 591.2,268.7 L 630.4,278.9" style="fill:none;fill-rule:evenodd;stroke:#000000;stroke-width:2.0px;stroke-linecap:butt;stroke-linejoin:miter;stroke-opacity:1"/>
<path class="bond-45 atom-45 atom-46" d="M 630.4,278.9 L 634.8,294.8" style="fill:none;fill-rule:evenodd;stroke:#000000;stroke-width:2.0px;stroke-linecap:butt;stroke-linejoin:miter;stroke-opacity:1"/>
<path class="bond-45 atom-45 atom-46" d="M 634.8,294.8 L 639.2,310.8" style="fill:none;fill-rule:evenodd;stroke:#FF0000;stroke-width:2.0px;stroke-linecap:butt;stroke-linejoin:miter;stroke-opacity:1"/>
<path class="bond-46 atom-45 atom-47" d="M 630.4,278.9 L 658.8,250.0" style="fill:none;fill-rule:evenodd;stroke:#000000;stroke-width:2.0px;stroke-linecap:butt;stroke-linejoin:miter;stroke-opacity:1"/>
<path class="bond-47 atom-47 atom-48" d="M 658.8,250.0 L 675.1,254.3" style="fill:none;fill-rule:evenodd;stroke:#000000;stroke-width:2.0px;stroke-linecap:butt;stroke-linejoin:miter;stroke-opacity:1"/>
<path class="bond-47 atom-47 atom-48" d="M 675.1,254.3 L 691.4,258.5" style="fill:none;fill-rule:evenodd;stroke:#FF0000;stroke-width:2.0px;stroke-linecap:butt;stroke-linejoin:miter;stroke-opacity:1"/>
<path class="bond-48 atom-7 atom-49" d="M 783.1,173.6 L 811.5,144.8" style="fill:none;fill-rule:evenodd;stroke:#000000;stroke-width:2.0px;stroke-linecap:butt;stroke-linejoin:miter;stroke-opacity:1"/>
<path class="bond-49 atom-49 atom-50" d="M 811.5,144.8 L 807.1,128.9" style="fill:none;fill-rule:evenodd;stroke:#000000;stroke-width:2.0px;stroke-linecap:butt;stroke-linejoin:miter;stroke-opacity:1"/>
<path class="bond-49 atom-49 atom-50" d="M 807.1,128.9 L 802.7,113.1" style="fill:none;fill-rule:evenodd;stroke:#FF0000;stroke-width:2.0px;stroke-linecap:butt;stroke-linejoin:miter;stroke-opacity:1"/>
<path class="bond-50 atom-49 atom-51" d="M 811.5,144.8 L 850.7,154.9" style="fill:none;fill-rule:evenodd;stroke:#000000;stroke-width:2.0px;stroke-linecap:butt;stroke-linejoin:miter;stroke-opacity:1"/>
<path class="bond-51 atom-51 atom-52" d="M 850.7,154.9 L 861.6,143.8" style="fill:none;fill-rule:evenodd;stroke:#000000;stroke-width:2.0px;stroke-linecap:butt;stroke-linejoin:miter;stroke-opacity:1"/>
<path class="bond-51 atom-51 atom-52" d="M 861.6,143.8 L 872.5,132.8" style="fill:none;fill-rule:evenodd;stroke:#FF0000;stroke-width:2.0px;stroke-linecap:butt;stroke-linejoin:miter;stroke-opacity:1"/>
<path class="bond-52 atom-51 atom-2" d="M 850.7,154.9 L 861.5,193.9" style="fill:none;fill-rule:evenodd;stroke:#000000;stroke-width:2.0px;stroke-linecap:butt;stroke-linejoin:miter;stroke-opacity:1"/>
<path class="bond-53 atom-47 atom-11" d="M 658.8,250.0 L 648.0,211.0" style="fill:none;fill-rule:evenodd;stroke:#000000;stroke-width:2.0px;stroke-linecap:butt;stroke-linejoin:miter;stroke-opacity:1"/>
<path class="bond-54 atom-43 atom-32" d="M 427.7,335.0 L 456.1,306.2" style="fill:none;fill-rule:evenodd;stroke:#000000;stroke-width:2.0px;stroke-linecap:butt;stroke-linejoin:miter;stroke-opacity:1"/>
<path d="M 900.9,204.9 L 900.7,204.1 L 898.7,203.6" style="fill:none;stroke:#000000;stroke-width:2.0px;stroke-linecap:butt;stroke-linejoin:miter;stroke-opacity:1;"/>
<path d="M 843.4,259.8 L 843.9,261.8 L 843.4,262.3" style="fill:none;stroke:#000000;stroke-width:2.0px;stroke-linecap:butt;stroke-linejoin:miter;stroke-opacity:1;"/>
<path d="M 745.9,164.0 L 743.9,163.5 L 743.4,164.0" style="fill:none;stroke:#000000;stroke-width:2.0px;stroke-linecap:butt;stroke-linejoin:miter;stroke-opacity:1;"/>
<path d="M 677.2,182.4 L 676.4,182.2 L 674.9,183.6" style="fill:none;stroke:#000000;stroke-width:2.0px;stroke-linecap:butt;stroke-linejoin:miter;stroke-opacity:1;"/>
<path d="M 598.5,163.8 L 598.0,161.9 L 597.2,161.7" style="fill:none;stroke:#000000;stroke-width:2.0px;stroke-linecap:butt;stroke-linejoin:miter;stroke-opacity:1;"/>
<path d="M 510.6,123.0 L 509.0,123.5 L 507.6,122.1" style="fill:none;stroke:#000000;stroke-width:2.0px;stroke-linecap:butt;stroke-linejoin:miter;stroke-opacity:1;"/>
<path d="M 481.6,96.5 L 480.1,95.1 L 479.3,95.3" style="fill:none;stroke:#000000;stroke-width:2.0px;stroke-linecap:butt;stroke-linejoin:miter;stroke-opacity:1;"/>
<path d="M 412.8,78.1 L 412.3,77.5 L 410.3,78.1" style="fill:none;stroke:#000000;stroke-width:2.0px;stroke-linecap:butt;stroke-linejoin:miter;stroke-opacity:1;"/>
<path d="M 375.2,87.8 L 373.3,88.3 L 371.8,86.9" style="fill:none;stroke:#000000;stroke-width:2.0px;stroke-linecap:butt;stroke-linejoin:miter;stroke-opacity:1;"/>
<path d="M 345.8,61.4 L 344.4,59.9 L 342.4,60.5" style="fill:none;stroke:#000000;stroke-width:2.0px;stroke-linecap:butt;stroke-linejoin:miter;stroke-opacity:1;"/>
<path d="M 564.2,296.2 L 562.8,297.6 L 562.0,297.4" style="fill:none;stroke:#000000;stroke-width:2.0px;stroke-linecap:butt;stroke-linejoin:miter;stroke-opacity:1;"/>
<path d="M 495.8,315.8 L 495.3,316.3 L 493.3,315.8" style="fill:none;stroke:#000000;stroke-width:2.0px;stroke-linecap:butt;stroke-linejoin:miter;stroke-opacity:1;"/>
<path d="M 472.2,239.7 L 473.7,238.3 L 473.4,237.5" style="fill:none;stroke:#000000;stroke-width:2.0px;stroke-linecap:butt;stroke-linejoin:miter;stroke-opacity:1;"/>
<path d="M 340.5,276.2 L 338.5,275.7 L 338.3,274.9" style="fill:none;stroke:#000000;stroke-width:2.0px;stroke-linecap:butt;stroke-linejoin:miter;stroke-opacity:1;"/>
<path class="atom-0" d="M 909.3 241.8 L 911.0 240.1 L 908.8 239.6 L 909.1 238.5 L 911.2 239.5 L 910.9 237.3 L 912.1 237.3 L 911.7 239.5 L 913.8 238.5 L 914.2 239.6 L 911.9 240.1 L 913.5 241.8 L 912.5 242.5 L 911.4 240.4 L 910.3 242.5 L 909.3 241.8 " fill="#191919"/>
<path class="atom-5" d="M 798.9 285.0 L 800.5 285.0 L 800.5 289.9 L 806.3 289.9 L 806.3 285.0 L 807.9 285.0 L 807.9 296.4 L 806.3 296.4 L 806.3 291.2 L 800.5 291.2 L 800.5 296.4 L 798.9 296.4 L 798.9 285.0 " fill="#FF0000"/>
<path class="atom-5" d="M 810.3 290.7 Q 810.3 287.9, 811.6 286.4 Q 813.0 284.9, 815.5 284.9 Q 818.1 284.9, 819.4 286.4 Q 820.8 287.9, 820.8 290.7 Q 820.8 293.5, 819.4 295.1 Q 818.0 296.6, 815.5 296.6 Q 813.0 296.6, 811.6 295.1 Q 810.3 293.5, 810.3 290.7 M 815.5 295.3 Q 817.3 295.3, 818.2 294.2 Q 819.2 293.0, 819.2 290.7 Q 819.2 288.4, 818.2 287.3 Q 817.3 286.1, 815.5 286.1 Q 813.8 286.1, 812.8 287.3 Q 811.9 288.4, 811.9 290.7 Q 811.9 293.0, 812.8 294.2 Q 813.8 295.3, 815.5 295.3 " fill="#FF0000"/>
<path class="atom-6" d="M 788.7 212.7 Q 788.7 209.9, 790.0 208.4 Q 791.4 206.8, 793.9 206.8 Q 796.5 206.8, 797.8 208.4 Q 799.2 209.9, 799.2 212.7 Q 799.2 215.4, 797.8 217.0 Q 796.4 218.6, 793.9 218.6 Q 791.4 218.6, 790.0 217.0 Q 788.7 215.5, 788.7 212.7 M 793.9 217.3 Q 795.7 217.3, 796.6 216.1 Q 797.6 215.0, 797.6 212.7 Q 797.6 210.4, 796.6 209.3 Q 795.7 208.1, 793.9 208.1 Q 792.2 208.1, 791.2 209.3 Q 790.3 210.4, 790.3 212.7 Q 790.3 215.0, 791.2 216.1 Q 792.2 217.3, 793.9 217.3 " fill="#FF0000"/>
<path class="atom-9" d="M 710.3 192.4 Q 710.3 189.6, 711.6 188.1 Q 713.0 186.5, 715.5 186.5 Q 718.1 186.5, 719.4 188.1 Q 720.8 189.6, 720.8 192.4 Q 720.8 195.1, 719.4 196.7 Q 718.1 198.3, 715.5 198.3 Q 713.0 198.3, 711.6 196.7 Q 710.3 195.2, 710.3 192.4 M 715.5 197.0 Q 717.3 197.0, 718.2 195.8 Q 719.2 194.7, 719.2 192.4 Q 719.2 190.1, 718.2 189.0 Q 717.3 187.8, 715.5 187.8 Q 713.8 187.8, 712.8 189.0 Q 711.9 190.1, 711.9 192.4 Q 711.9 194.7, 712.8 195.8 Q 713.8 197.0, 715.5 197.0 " fill="#FF0000"/>
<path class="atom-14" d="M 553.5 151.7 Q 553.5 149.0, 554.9 147.5 Q 556.3 145.9, 558.8 145.9 Q 561.4 145.9, 562.7 147.5 Q 564.1 149.0, 564.1 151.7 Q 564.1 154.5, 562.7 156.1 Q 561.3 157.7, 558.8 157.7 Q 556.3 157.7, 554.9 156.1 Q 553.5 154.5, 553.5 151.7 M 558.8 156.4 Q 560.6 156.4, 561.5 155.2 Q 562.5 154.0, 562.5 151.7 Q 562.5 149.5, 561.5 148.4 Q 560.6 147.2, 558.8 147.2 Q 557.1 147.2, 556.1 148.3 Q 555.2 149.5, 555.2 151.7 Q 555.2 154.1, 556.1 155.2 Q 557.1 156.4, 558.8 156.4 " fill="#FF0000"/>
<path class="atom-15" d="M 543.4 116.7 Q 543.6 116.7, 544.1 116.9 Q 544.6 117.2, 545.2 117.3 Q 545.8 117.4, 546.4 117.4 Q 547.5 117.4, 548.1 116.9 Q 548.7 116.4, 548.7 115.5 Q 548.7 114.8, 548.4 114.4 Q 548.1 114.0, 547.6 113.8 Q 547.1 113.6, 546.3 113.4 Q 545.3 113.1, 544.7 112.8 Q 544.1 112.5, 543.7 111.9 Q 543.2 111.3, 543.2 110.2 Q 543.2 108.8, 544.2 107.9 Q 545.2 107.0, 547.1 107.0 Q 548.5 107.0, 550.0 107.6 L 549.6 108.9 Q 548.2 108.3, 547.2 108.3 Q 546.1 108.3, 545.4 108.8 Q 544.8 109.2, 544.8 110.0 Q 544.8 110.6, 545.2 111.0 Q 545.5 111.4, 545.9 111.6 Q 546.4 111.8, 547.2 112.1 Q 548.2 112.4, 548.8 112.7 Q 549.4 113.0, 549.9 113.7 Q 550.3 114.3, 550.3 115.5 Q 550.3 117.0, 549.3 117.9 Q 548.2 118.7, 546.5 118.7 Q 545.4 118.7, 544.7 118.5 Q 543.9 118.3, 543.0 117.9 L 543.4 116.7 " fill="#000000"/>
<path class="atom-15" d="M 551.5 107.0 L 553.0 107.0 L 553.0 108.4 L 551.5 108.4 L 551.5 107.0 M 551.5 110.1 L 553.0 110.1 L 553.0 118.4 L 551.5 118.4 L 551.5 110.1 " fill="#000000"/>
<path class="atom-16" d="M 581.8 101.9 Q 581.8 99.2, 583.1 97.6 Q 584.5 96.1, 587.0 96.1 Q 589.6 96.1, 590.9 97.6 Q 592.3 99.2, 592.3 101.9 Q 592.3 104.7, 590.9 106.3 Q 589.5 107.9, 587.0 107.9 Q 584.5 107.9, 583.1 106.3 Q 581.8 104.7, 581.8 101.9 M 587.0 106.6 Q 588.8 106.6, 589.7 105.4 Q 590.7 104.2, 590.7 101.9 Q 590.7 99.7, 589.7 98.5 Q 588.8 97.4, 587.0 97.4 Q 585.3 97.4, 584.3 98.5 Q 583.4 99.7, 583.4 101.9 Q 583.4 104.2, 584.3 105.4 Q 585.3 106.6, 587.0 106.6 " fill="#FF0000"/>
<path class="atom-16" d="M 594.1 96.2 L 595.6 96.2 L 595.6 101.1 L 601.5 101.1 L 601.5 96.2 L 603.0 96.2 L 603.0 107.7 L 601.5 107.7 L 601.5 102.4 L 595.6 102.4 L 595.6 107.7 L 594.1 107.7 L 594.1 96.2 " fill="#FF0000"/>
<path class="atom-17" d="M 531.9 73.7 Q 531.9 71.0, 533.3 69.4 Q 534.7 67.9, 537.2 67.9 Q 539.8 67.9, 541.1 69.4 Q 542.5 71.0, 542.5 73.7 Q 542.5 76.5, 541.1 78.1 Q 539.7 79.7, 537.2 79.7 Q 534.7 79.7, 533.3 78.1 Q 531.9 76.5, 531.9 73.7 M 537.2 78.4 Q 539.0 78.4, 539.9 77.2 Q 540.9 76.0, 540.9 73.7 Q 540.9 71.5, 539.9 70.3 Q 539.0 69.2, 537.2 69.2 Q 535.5 69.2, 534.5 70.3 Q 533.6 71.5, 533.6 73.7 Q 533.6 76.0, 534.5 77.2 Q 535.5 78.4, 537.2 78.4 " fill="#FF0000"/>
<path class="atom-17" d="M 544.3 68.0 L 545.8 68.0 L 545.8 72.9 L 551.7 72.9 L 551.7 68.0 L 553.2 68.0 L 553.2 79.5 L 551.7 79.5 L 551.7 74.2 L 545.8 74.2 L 545.8 79.5 L 544.3 79.5 L 544.3 68.0 " fill="#FF0000"/>
<path class="atom-20" d="M 435.9 105.9 Q 435.9 103.2, 437.2 101.7 Q 438.6 100.1, 441.1 100.1 Q 443.7 100.1, 445.0 101.7 Q 446.4 103.2, 446.4 105.9 Q 446.4 108.7, 445.0 110.3 Q 443.6 111.9, 441.1 111.9 Q 438.6 111.9, 437.2 110.3 Q 435.9 108.7, 435.9 105.9 M 441.1 110.6 Q 442.9 110.6, 443.8 109.4 Q 444.8 108.2, 444.8 105.9 Q 444.8 103.7, 443.8 102.6 Q 442.9 101.4, 441.1 101.4 Q 439.4 101.4, 438.4 102.5 Q 437.5 103.7, 437.5 105.9 Q 437.5 108.3, 438.4 109.4 Q 439.4 110.6, 441.1 110.6 " fill="#FF0000"/>
<path class="atom-23" d="M 357.8 127.5 Q 357.8 124.8, 359.2 123.3 Q 360.6 121.7, 363.1 121.7 Q 365.6 121.7, 367.0 123.3 Q 368.4 124.8, 368.4 127.5 Q 368.4 130.3, 367.0 131.9 Q 365.6 133.5, 363.1 133.5 Q 360.6 133.5, 359.2 131.9 Q 357.8 130.3, 357.8 127.5 M 363.1 132.2 Q 364.9 132.2, 365.8 131.0 Q 366.7 129.8, 366.7 127.5 Q 366.7 125.3, 365.8 124.2 Q 364.9 123.0, 363.1 123.0 Q 361.4 123.0, 360.4 124.1 Q 359.5 125.3, 359.5 127.5 Q 359.5 129.9, 360.4 131.0 Q 361.4 132.2, 363.1 132.2 " fill="#FF0000"/>
<path class="atom-27" d="M 575.1 229.8 Q 575.1 227.0, 576.5 225.5 Q 577.9 223.9, 580.4 223.9 Q 582.9 223.9, 584.3 225.5 Q 585.7 227.0, 585.7 229.8 Q 585.7 232.6, 584.3 234.1 Q 582.9 235.7, 580.4 235.7 Q 577.9 235.7, 576.5 234.1 Q 575.1 232.6, 575.1 229.8 M 580.4 234.4 Q 582.2 234.4, 583.1 233.2 Q 584.1 232.1, 584.1 229.8 Q 584.1 227.5, 583.1 226.4 Q 582.2 225.2, 580.4 225.2 Q 578.7 225.2, 577.7 226.4 Q 576.8 227.5, 576.8 229.8 Q 576.8 232.1, 577.7 233.2 Q 578.7 234.4, 580.4 234.4 " fill="#FF0000"/>
<path class="atom-30" d="M 518.4 287.5 Q 518.4 284.7, 519.7 283.2 Q 521.1 281.7, 523.6 281.7 Q 526.2 281.7, 527.5 283.2 Q 528.9 284.7, 528.9 287.5 Q 528.9 290.3, 527.5 291.9 Q 526.1 293.4, 523.6 293.4 Q 521.1 293.4, 519.7 291.9 Q 518.4 290.3, 518.4 287.5 M 523.6 292.1 Q 525.4 292.1, 526.3 291.0 Q 527.3 289.8, 527.3 287.5 Q 527.3 285.2, 526.3 284.1 Q 525.4 282.9, 523.6 282.9 Q 521.9 282.9, 520.9 284.1 Q 520.0 285.2, 520.0 287.5 Q 520.0 289.8, 520.9 291.0 Q 521.9 292.1, 523.6 292.1 " fill="#FF0000"/>
<path class="atom-35" d="M 457.6 199.3 Q 457.6 196.6, 459.0 195.0 Q 460.3 193.5, 462.9 193.5 Q 465.4 193.5, 466.8 195.0 Q 468.1 196.6, 468.1 199.3 Q 468.1 202.1, 466.7 203.7 Q 465.4 205.3, 462.9 205.3 Q 460.3 205.3, 459.0 203.7 Q 457.6 202.1, 457.6 199.3 M 462.9 204.0 Q 464.6 204.0, 465.5 202.8 Q 466.5 201.6, 466.5 199.3 Q 466.5 197.1, 465.5 195.9 Q 464.6 194.8, 462.9 194.8 Q 461.1 194.8, 460.2 195.9 Q 459.2 197.0, 459.2 199.3 Q 459.2 201.6, 460.2 202.8 Q 461.1 204.0, 462.9 204.0 " fill="#FF0000"/>
<path class="atom-35" d="M 469.9 193.6 L 471.5 193.6 L 471.5 198.5 L 477.3 198.5 L 477.3 193.6 L 478.9 193.6 L 478.9 205.1 L 477.3 205.1 L 477.3 199.8 L 471.5 199.8 L 471.5 205.1 L 469.9 205.1 L 469.9 193.6 " fill="#FF0000"/>
<path class="atom-36" d="M 400.8 257.0 Q 400.8 254.3, 402.2 252.7 Q 403.5 251.2, 406.1 251.2 Q 408.6 251.2, 410.0 252.7 Q 411.3 254.3, 411.3 257.0 Q 411.3 259.8, 410.0 261.4 Q 408.6 263.0, 406.1 263.0 Q 403.6 263.0, 402.2 261.4 Q 400.8 259.8, 400.8 257.0 M 406.1 261.7 Q 407.8 261.7, 408.8 260.5 Q 409.7 259.3, 409.7 257.0 Q 409.7 254.8, 408.8 253.6 Q 407.8 252.5, 406.1 252.5 Q 404.3 252.5, 403.4 253.6 Q 402.4 254.8, 402.4 257.0 Q 402.4 259.3, 403.4 260.5 Q 404.3 261.7, 406.1 261.7 " fill="#FF0000"/>
<path class="atom-39" d="M 322.5 236.7 Q 322.5 234.0, 323.8 232.4 Q 325.2 230.9, 327.7 230.9 Q 330.3 230.9, 331.6 232.4 Q 333.0 234.0, 333.0 236.7 Q 333.0 239.5, 331.6 241.1 Q 330.2 242.7, 327.7 242.7 Q 325.2 242.7, 323.8 241.1 Q 322.5 239.5, 322.5 236.7 M 327.7 241.4 Q 329.5 241.4, 330.4 240.2 Q 331.4 239.0, 331.4 236.7 Q 331.4 234.5, 330.4 233.3 Q 329.5 232.2, 327.7 232.2 Q 326.0 232.2, 325.0 233.3 Q 324.1 234.5, 324.1 236.7 Q 324.1 239.0, 325.0 240.2 Q 326.0 241.4, 327.7 241.4 " fill="#FF0000"/>
<path class="atom-40" d="M 286.4 225.3 L 288.1 223.5 L 285.8 223.1 L 286.2 221.9 L 288.2 223.0 L 287.9 220.7 L 289.1 220.7 L 288.8 223.0 L 290.9 222.0 L 291.2 223.1 L 289.0 223.5 L 290.6 225.2 L 289.6 226.0 L 288.5 223.8 L 287.4 226.0 L 286.4 225.3 " fill="#191919"/>
<path class="atom-42" d="M 343.5 348.1 L 345.1 348.1 L 345.1 352.9 L 350.9 352.9 L 350.9 348.1 L 352.5 348.1 L 352.5 359.5 L 350.9 359.5 L 350.9 354.2 L 345.1 354.2 L 345.1 359.5 L 343.5 359.5 L 343.5 348.1 " fill="#FF0000"/>
<path class="atom-42" d="M 354.9 353.8 Q 354.9 351.0, 356.2 349.5 Q 357.6 347.9, 360.1 347.9 Q 362.7 347.9, 364.0 349.5 Q 365.4 351.0, 365.4 353.8 Q 365.4 356.5, 364.0 358.1 Q 362.6 359.7, 360.1 359.7 Q 357.6 359.7, 356.2 358.1 Q 354.9 356.6, 354.9 353.8 M 360.1 358.4 Q 361.9 358.4, 362.8 357.2 Q 363.8 356.1, 363.8 353.8 Q 363.8 351.5, 362.8 350.4 Q 361.9 349.2, 360.1 349.2 Q 358.4 349.2, 357.4 350.4 Q 356.5 351.5, 356.5 353.8 Q 356.5 356.1, 357.4 357.2 Q 358.4 358.4, 360.1 358.4 " fill="#FF0000"/>
<path class="atom-44" d="M 433.2 374.1 Q 433.2 371.3, 434.6 369.8 Q 435.9 368.2, 438.5 368.2 Q 441.0 368.2, 442.4 369.8 Q 443.7 371.3, 443.7 374.1 Q 443.7 376.8, 442.4 378.4 Q 441.0 380.0, 438.5 380.0 Q 436.0 380.0, 434.6 378.4 Q 433.2 376.9, 433.2 374.1 M 438.5 378.7 Q 440.2 378.7, 441.2 377.5 Q 442.1 376.4, 442.1 374.1 Q 442.1 371.8, 441.2 370.7 Q 440.2 369.5, 438.5 369.5 Q 436.7 369.5, 435.8 370.7 Q 434.8 371.8, 434.8 374.1 Q 434.8 376.4, 435.8 377.5 Q 436.7 378.7, 438.5 378.7 " fill="#FF0000"/>
<path class="atom-44" d="M 445.5 368.4 L 447.1 368.4 L 447.1 373.2 L 452.9 373.2 L 452.9 368.4 L 454.5 368.4 L 454.5 379.8 L 452.9 379.8 L 452.9 374.5 L 447.1 374.5 L 447.1 379.8 L 445.5 379.8 L 445.5 368.4 " fill="#FF0000"/>
<path class="atom-46" d="M 635.9 317.9 Q 635.9 315.2, 637.3 313.6 Q 638.6 312.1, 641.2 312.1 Q 643.7 312.1, 645.1 313.6 Q 646.5 315.2, 646.5 317.9 Q 646.5 320.7, 645.1 322.3 Q 643.7 323.9, 641.2 323.9 Q 638.7 323.9, 637.3 322.3 Q 635.9 320.7, 635.9 317.9 M 641.2 322.6 Q 642.9 322.6, 643.9 321.4 Q 644.8 320.2, 644.8 317.9 Q 644.8 315.7, 643.9 314.6 Q 642.9 313.4, 641.2 313.4 Q 639.4 313.4, 638.5 314.5 Q 637.5 315.7, 637.5 317.9 Q 637.5 320.3, 638.5 321.4 Q 639.4 322.6, 641.2 322.6 " fill="#FF0000"/>
<path class="atom-46" d="M 648.2 312.2 L 649.8 312.2 L 649.8 317.1 L 655.7 317.1 L 655.7 312.2 L 657.2 312.2 L 657.2 323.7 L 655.7 323.7 L 655.7 318.4 L 649.8 318.4 L 649.8 323.7 L 648.2 323.7 L 648.2 312.2 " fill="#FF0000"/>
<path class="atom-48" d="M 692.7 260.2 Q 692.7 257.5, 694.1 255.9 Q 695.4 254.4, 698.0 254.4 Q 700.5 254.4, 701.9 255.9 Q 703.2 257.5, 703.2 260.2 Q 703.2 263.0, 701.8 264.6 Q 700.5 266.2, 698.0 266.2 Q 695.4 266.2, 694.1 264.6 Q 692.7 263.0, 692.7 260.2 M 698.0 264.9 Q 699.7 264.9, 700.6 263.7 Q 701.6 262.5, 701.6 260.2 Q 701.6 258.0, 700.6 256.8 Q 699.7 255.7, 698.0 255.7 Q 696.2 255.7, 695.3 256.8 Q 694.3 258.0, 694.3 260.2 Q 694.3 262.5, 695.3 263.7 Q 696.2 264.9, 698.0 264.9 " fill="#FF0000"/>
<path class="atom-48" d="M 705.0 254.5 L 706.6 254.5 L 706.6 259.4 L 712.4 259.4 L 712.4 254.5 L 714.0 254.5 L 714.0 266.0 L 712.4 266.0 L 712.4 260.7 L 706.6 260.7 L 706.6 266.0 L 705.0 266.0 L 705.0 254.5 " fill="#FF0000"/>
<path class="atom-50" d="M 795.4 105.8 Q 795.4 103.0, 796.8 101.5 Q 798.2 99.9, 800.7 99.9 Q 803.2 99.9, 804.6 101.5 Q 806.0 103.0, 806.0 105.8 Q 806.0 108.6, 804.6 110.2 Q 803.2 111.7, 800.7 111.7 Q 798.2 111.7, 796.8 110.2 Q 795.4 108.6, 795.4 105.8 M 800.7 110.4 Q 802.4 110.4, 803.4 109.3 Q 804.3 108.1, 804.3 105.8 Q 804.3 103.5, 803.4 102.4 Q 802.4 101.2, 800.7 101.2 Q 799.0 101.2, 798.0 102.4 Q 797.1 103.5, 797.1 105.8 Q 797.1 108.1, 798.0 109.3 Q 799.0 110.4, 800.7 110.4 " fill="#FF0000"/>
<path class="atom-50" d="M 807.7 100.1 L 809.3 100.1 L 809.3 105.0 L 815.2 105.0 L 815.2 100.1 L 816.7 100.1 L 816.7 111.5 L 815.2 111.5 L 815.2 106.2 L 809.3 106.2 L 809.3 111.5 L 807.7 111.5 L 807.7 100.1 " fill="#FF0000"/>
<path class="atom-52" d="M 873.8 126.1 Q 873.8 123.3, 875.2 121.8 Q 876.5 120.3, 879.1 120.3 Q 881.6 120.3, 883.0 121.8 Q 884.3 123.3, 884.3 126.1 Q 884.3 128.9, 883.0 130.5 Q 881.6 132.0, 879.1 132.0 Q 876.5 132.0, 875.2 130.5 Q 873.8 128.9, 873.8 126.1 M 879.1 130.7 Q 880.8 130.7, 881.8 129.6 Q 882.7 128.4, 882.7 126.1 Q 882.7 123.8, 881.8 122.7 Q 880.8 121.5, 879.1 121.5 Q 877.3 121.5, 876.4 122.7 Q 875.4 123.8, 875.4 126.1 Q 875.4 128.4, 876.4 129.6 Q 877.3 130.7, 879.1 130.7 " fill="#FF0000"/>
<path class="atom-52" d="M 886.1 120.4 L 887.7 120.4 L 887.7 125.3 L 893.5 125.3 L 893.5 120.4 L 895.1 120.4 L 895.1 131.8 L 893.5 131.8 L 893.5 126.6 L 887.7 126.6 L 887.7 131.8 L 886.1 131.8 L 886.1 120.4 " fill="#FF0000"/>
<path class="bond-0 atom-0 atom-1" d="M 764.1,510.5 L 768.8,529.8" style="fill:none;fill-rule:evenodd;stroke:#191919;stroke-width:2.0px;stroke-linecap:butt;stroke-linejoin:miter;stroke-opacity:1"/>
<path class="bond-0 atom-0 atom-1" d="M 768.8,529.8 L 773.5,549.1" style="fill:none;fill-rule:evenodd;stroke:#000000;stroke-width:2.0px;stroke-linecap:butt;stroke-linejoin:miter;stroke-opacity:1"/>
<path class="bond-1 atom-1 atom-2" d="M 773.5,549.1 L 744.2,577.0" style="fill:none;fill-rule:evenodd;stroke:#000000;stroke-width:2.0px;stroke-linecap:butt;stroke-linejoin:miter;stroke-opacity:1"/>
<path class="bond-2 atom-2 atom-3" d="M 744.2,577.0 L 728.0,572.3" style="fill:none;fill-rule:evenodd;stroke:#000000;stroke-width:2.0px;stroke-linecap:butt;stroke-linejoin:miter;stroke-opacity:1"/>
<path class="bond-2 atom-2 atom-3" d="M 728.0,572.3 L 711.9,567.5" style="fill:none;fill-rule:evenodd;stroke:#FF0000;stroke-width:2.0px;stroke-linecap:butt;stroke-linejoin:miter;stroke-opacity:1"/>
<path class="bond-3 atom-2 atom-4" d="M 744.2,577.0 L 753.7,616.4" style="fill:none;fill-rule:evenodd;stroke:#000000;stroke-width:2.0px;stroke-linecap:butt;stroke-linejoin:miter;stroke-opacity:1"/>
<path class="bond-4 atom-4 atom-5" d="M 753.7,616.4 L 724.4,644.3" style="fill:none;fill-rule:evenodd;stroke:#000000;stroke-width:2.0px;stroke-linecap:butt;stroke-linejoin:miter;stroke-opacity:1"/>
<path class="bond-5 atom-5 atom-6" d="M 724.4,644.3 L 728.3,660.4" style="fill:none;fill-rule:evenodd;stroke:#000000;stroke-width:2.0px;stroke-linecap:butt;stroke-linejoin:miter;stroke-opacity:1"/>
<path class="bond-5 atom-5 atom-6" d="M 728.3,660.4 L 732.2,676.5" style="fill:none;fill-rule:evenodd;stroke:#191919;stroke-width:2.0px;stroke-linecap:butt;stroke-linejoin:miter;stroke-opacity:1"/>
<path class="bond-6 atom-5 atom-7" d="M 724.4,644.3 L 708.3,639.6" style="fill:none;fill-rule:evenodd;stroke:#000000;stroke-width:2.0px;stroke-linecap:butt;stroke-linejoin:miter;stroke-opacity:1"/>
<path class="bond-6 atom-5 atom-7" d="M 708.3,639.6 L 692.2,634.8" style="fill:none;fill-rule:evenodd;stroke:#FF0000;stroke-width:2.0px;stroke-linecap:butt;stroke-linejoin:miter;stroke-opacity:1"/>
<path class="bond-7 atom-7 atom-8" d="M 679.0,639.2 L 670.8,647.0" style="fill:none;fill-rule:evenodd;stroke:#FF0000;stroke-width:2.0px;stroke-linecap:butt;stroke-linejoin:miter;stroke-opacity:1"/>
<path class="bond-7 atom-7 atom-8" d="M 670.8,647.0 L 662.6,654.8" style="fill:none;fill-rule:evenodd;stroke:#000000;stroke-width:2.0px;stroke-linecap:butt;stroke-linejoin:miter;stroke-opacity:1"/>
<path class="bond-8 atom-8 atom-9" d="M 662.6,667.5 L 670.1,675.3" style="fill:none;fill-rule:evenodd;stroke:#000000;stroke-width:2.0px;stroke-linecap:butt;stroke-linejoin:miter;stroke-opacity:1"/>
<path class="bond-8 atom-8 atom-9" d="M 670.1,675.3 L 677.6,683.2" style="fill:none;fill-rule:evenodd;stroke:#FF0000;stroke-width:2.0px;stroke-linecap:butt;stroke-linejoin:miter;stroke-opacity:1"/>
<path class="bond-9 atom-8 atom-10" d="M 649.9,666.9 L 641.8,674.7" style="fill:none;fill-rule:evenodd;stroke:#000000;stroke-width:2.0px;stroke-linecap:butt;stroke-linejoin:miter;stroke-opacity:1"/>
<path class="bond-9 atom-8 atom-10" d="M 641.8,674.7 L 633.6,682.5" style="fill:none;fill-rule:evenodd;stroke:#FF0000;stroke-width:2.0px;stroke-linecap:butt;stroke-linejoin:miter;stroke-opacity:1"/>
<path class="bond-10 atom-8 atom-11" d="M 649.9,654.1 L 628.3,631.5" style="fill:none;fill-rule:evenodd;stroke:#000000;stroke-width:2.0px;stroke-linecap:butt;stroke-linejoin:miter;stroke-opacity:1"/>
<path class="bond-11 atom-11 atom-12" d="M 628.3,631.5 L 589.0,641.1" style="fill:none;fill-rule:evenodd;stroke:#000000;stroke-width:2.0px;stroke-linecap:butt;stroke-linejoin:miter;stroke-opacity:1"/>
<path class="bond-12 atom-12 atom-13" d="M 589.0,641.1 L 578.3,629.9" style="fill:none;fill-rule:evenodd;stroke:#000000;stroke-width:2.0px;stroke-linecap:butt;stroke-linejoin:miter;stroke-opacity:1"/>
<path class="bond-12 atom-12 atom-13" d="M 578.3,629.9 L 567.7,618.7" style="fill:none;fill-rule:evenodd;stroke:#FF0000;stroke-width:2.0px;stroke-linecap:butt;stroke-linejoin:miter;stroke-opacity:1"/>
<path class="bond-13 atom-13 atom-14" d="M 554.5,613.4 L 538.1,617.3" style="fill:none;fill-rule:evenodd;stroke:#FF0000;stroke-width:2.0px;stroke-linecap:butt;stroke-linejoin:miter;stroke-opacity:1"/>
<path class="bond-13 atom-13 atom-14" d="M 538.1,617.3 L 521.7,621.3" style="fill:none;fill-rule:evenodd;stroke:#000000;stroke-width:2.0px;stroke-linecap:butt;stroke-linejoin:miter;stroke-opacity:1"/>
<path class="bond-14 atom-14 atom-15" d="M 521.7,621.3 L 493.8,592.0" style="fill:none;fill-rule:evenodd;stroke:#000000;stroke-width:2.0px;stroke-linecap:butt;stroke-linejoin:miter;stroke-opacity:1"/>
<path class="bond-15 atom-15 atom-16" d="M 496.2,594.5 L 501.1,577.9" style="fill:none;fill-rule:evenodd;stroke:#000000;stroke-width:2.0px;stroke-linecap:butt;stroke-linejoin:miter;stroke-opacity:1"/>
<path class="bond-15 atom-15 atom-16" d="M 501.1,577.9 L 506.0,561.3" style="fill:none;fill-rule:evenodd;stroke:#FF0000;stroke-width:2.0px;stroke-linecap:butt;stroke-linejoin:miter;stroke-opacity:1"/>
<path class="bond-15 atom-15 atom-16" d="M 490.4,592.8 L 495.3,576.2" style="fill:none;fill-rule:evenodd;stroke:#000000;stroke-width:2.0px;stroke-linecap:butt;stroke-linejoin:miter;stroke-opacity:1"/>
<path class="bond-15 atom-15 atom-16" d="M 495.3,576.2 L 500.2,559.6" style="fill:none;fill-rule:evenodd;stroke:#FF0000;stroke-width:2.0px;stroke-linecap:butt;stroke-linejoin:miter;stroke-opacity:1"/>
<path class="bond-16 atom-15 atom-17" d="M 493.8,592.0 L 454.5,601.6" style="fill:none;fill-rule:evenodd;stroke:#000000;stroke-width:2.0px;stroke-linecap:butt;stroke-linejoin:miter;stroke-opacity:1"/>
<path class="bond-17 atom-17 atom-18" d="M 452.1,599.0 L 440.2,639.5" style="fill:none;fill-rule:evenodd;stroke:#000000;stroke-width:2.0px;stroke-linecap:butt;stroke-linejoin:miter;stroke-opacity:1"/>
<path class="bond-17 atom-17 atom-18" d="M 457.9,600.7 L 446.0,641.2" style="fill:none;fill-rule:evenodd;stroke:#000000;stroke-width:2.0px;stroke-linecap:butt;stroke-linejoin:miter;stroke-opacity:1"/>
<path class="bond-18 atom-17 atom-19" d="M 454.5,601.6 L 426.5,572.3" style="fill:none;fill-rule:evenodd;stroke:#000000;stroke-width:2.0px;stroke-linecap:butt;stroke-linejoin:miter;stroke-opacity:1"/>
<path d="M 773.2,548.1 L 773.5,549.1 L 772.0,550.5" style="fill:none;stroke:#000000;stroke-width:2.0px;stroke-linecap:butt;stroke-linejoin:miter;stroke-opacity:1;"/>
<path d="M 753.2,614.4 L 753.7,616.4 L 752.2,617.7" style="fill:none;stroke:#000000;stroke-width:2.0px;stroke-linecap:butt;stroke-linejoin:miter;stroke-opacity:1;"/>
<path d="M 629.4,632.6 L 628.3,631.5 L 626.4,632.0" style="fill:none;stroke:#000000;stroke-width:2.0px;stroke-linecap:butt;stroke-linejoin:miter;stroke-opacity:1;"/>
<path d="M 591.0,640.6 L 589.0,641.1 L 588.5,640.5" style="fill:none;stroke:#000000;stroke-width:2.0px;stroke-linecap:butt;stroke-linejoin:miter;stroke-opacity:1;"/>
<path d="M 522.6,621.1 L 521.7,621.3 L 520.3,619.8" style="fill:none;stroke:#000000;stroke-width:2.0px;stroke-linecap:butt;stroke-linejoin:miter;stroke-opacity:1;"/>
<path d="M 495.2,593.5 L 493.8,592.0 L 491.8,592.5" style="fill:none;stroke:#000000;stroke-width:2.0px;stroke-linecap:butt;stroke-linejoin:miter;stroke-opacity:1;"/>
<path d="M 456.4,601.1 L 454.5,601.6 L 453.1,600.1" style="fill:none;stroke:#000000;stroke-width:2.0px;stroke-linecap:butt;stroke-linejoin:miter;stroke-opacity:1;"/>
<path class="atom-0" d="M 761.8 508.5 L 763.4 506.7 L 761.2 506.3 L 761.5 505.1 L 763.6 506.2 L 763.3 503.9 L 764.5 503.9 L 764.2 506.2 L 766.3 505.2 L 766.6 506.3 L 764.4 506.7 L 766.0 508.4 L 765.0 509.2 L 763.9 507.0 L 762.7 509.2 L 761.8 508.5 " fill="#191919"/>
<path class="atom-3" d="M 688.7 559.9 L 690.3 559.9 L 690.3 564.8 L 696.2 564.8 L 696.2 559.9 L 697.7 559.9 L 697.7 571.4 L 696.2 571.4 L 696.2 566.1 L 690.3 566.1 L 690.3 571.4 L 688.7 571.4 L 688.7 559.9 " fill="#FF0000"/>
<path class="atom-3" d="M 700.1 565.6 Q 700.1 562.9, 701.4 561.4 Q 702.8 559.8, 705.3 559.8 Q 707.9 559.8, 709.2 561.4 Q 710.6 562.9, 710.6 565.6 Q 710.6 568.4, 709.2 570.0 Q 707.8 571.6, 705.3 571.6 Q 702.8 571.6, 701.4 570.0 Q 700.1 568.4, 700.1 565.6 M 705.3 570.3 Q 707.1 570.3, 708.0 569.1 Q 709.0 567.9, 709.0 565.6 Q 709.0 563.4, 708.0 562.3 Q 707.1 561.1, 705.3 561.1 Q 703.6 561.1, 702.6 562.2 Q 701.7 563.4, 701.7 565.6 Q 701.7 568.0, 702.6 569.1 Q 703.6 570.3, 705.3 570.3 " fill="#FF0000"/>
<path class="atom-6" d="M 731.8 682.3 L 733.5 680.6 L 731.2 680.2 L 731.6 679.0 L 733.6 680.1 L 733.4 677.8 L 734.6 677.8 L 734.2 680.0 L 736.3 679.1 L 736.7 680.2 L 734.4 680.6 L 736.0 682.3 L 735.0 683.0 L 733.9 680.9 L 732.8 683.0 L 731.8 682.3 " fill="#191919"/>
<path class="atom-7" d="M 680.3 632.9 Q 680.3 630.2, 681.7 628.6 Q 683.0 627.1, 685.6 627.1 Q 688.1 627.1, 689.5 628.6 Q 690.8 630.2, 690.8 632.9 Q 690.8 635.7, 689.5 637.3 Q 688.1 638.9, 685.6 638.9 Q 683.1 638.9, 681.7 637.3 Q 680.3 635.7, 680.3 632.9 M 685.6 637.6 Q 687.3 637.6, 688.3 636.4 Q 689.2 635.2, 689.2 632.9 Q 689.2 630.7, 688.3 629.5 Q 687.3 628.4, 685.6 628.4 Q 683.8 628.4, 682.9 629.5 Q 681.9 630.6, 681.9 632.9 Q 681.9 635.2, 682.9 636.4 Q 683.8 637.6, 685.6 637.6 " fill="#FF0000"/>
<path class="atom-8" d="M 651.7 664.8 Q 651.8 664.8, 652.4 665.0 Q 652.9 665.3, 653.5 665.4 Q 654.1 665.5, 654.7 665.5 Q 655.7 665.5, 656.4 665.0 Q 657.0 664.5, 657.0 663.6 Q 657.0 662.9, 656.7 662.5 Q 656.4 662.2, 655.9 661.9 Q 655.4 661.7, 654.6 661.5 Q 653.6 661.2, 653.0 660.9 Q 652.4 660.6, 651.9 660.0 Q 651.5 659.4, 651.5 658.3 Q 651.5 656.9, 652.5 656.0 Q 653.5 655.1, 655.4 655.1 Q 656.7 655.1, 658.2 655.7 L 657.9 657.0 Q 656.5 656.4, 655.5 656.4 Q 654.3 656.4, 653.7 656.9 Q 653.1 657.3, 653.1 658.1 Q 653.1 658.8, 653.4 659.1 Q 653.8 659.5, 654.2 659.7 Q 654.7 659.9, 655.5 660.2 Q 656.5 660.5, 657.1 660.8 Q 657.7 661.1, 658.2 661.8 Q 658.6 662.4, 658.6 663.6 Q 658.6 665.2, 657.5 666.0 Q 656.5 666.9, 654.7 666.9 Q 653.7 666.9, 652.9 666.6 Q 652.2 666.4, 651.3 666.0 L 651.7 664.8 " fill="#000000"/>
<path class="atom-8" d="M 659.8 655.1 L 661.3 655.1 L 661.3 656.5 L 659.8 656.5 L 659.8 655.1 M 659.8 658.2 L 661.3 658.2 L 661.3 666.5 L 659.8 666.5 L 659.8 658.2 " fill="#000000"/>
<path class="atom-9" d="M 679.0 690.1 Q 679.0 687.4, 680.3 685.9 Q 681.7 684.3, 684.2 684.3 Q 686.8 684.3, 688.1 685.9 Q 689.5 687.4, 689.5 690.1 Q 689.5 692.9, 688.1 694.5 Q 686.7 696.1, 684.2 696.1 Q 681.7 696.1, 680.3 694.5 Q 679.0 692.9, 679.0 690.1 M 684.2 694.8 Q 686.0 694.8, 686.9 693.6 Q 687.9 692.4, 687.9 690.1 Q 687.9 687.9, 686.9 686.8 Q 686.0 685.6, 684.2 685.6 Q 682.5 685.6, 681.5 686.7 Q 680.6 687.9, 680.6 690.1 Q 680.6 692.5, 681.5 693.6 Q 682.5 694.8, 684.2 694.8 " fill="#FF0000"/>
<path class="atom-9" d="M 691.3 684.4 L 692.8 684.4 L 692.8 689.3 L 698.7 689.3 L 698.7 684.4 L 700.2 684.4 L 700.2 695.9 L 698.7 695.9 L 698.7 690.6 L 692.8 690.6 L 692.8 695.9 L 691.3 695.9 L 691.3 684.4 " fill="#FF0000"/>
<path class="atom-10" d="M 610.4 683.1 L 612.0 683.1 L 612.0 688.0 L 617.8 688.0 L 617.8 683.1 L 619.4 683.1 L 619.4 694.5 L 617.8 694.5 L 617.8 689.2 L 612.0 689.2 L 612.0 694.5 L 610.4 694.5 L 610.4 683.1 " fill="#FF0000"/>
<path class="atom-10" d="M 621.7 688.8 Q 621.7 686.0, 623.1 684.5 Q 624.4 683.0, 627.0 683.0 Q 629.5 683.0, 630.9 684.5 Q 632.2 686.0, 632.2 688.8 Q 632.2 691.6, 630.9 693.2 Q 629.5 694.7, 627.0 694.7 Q 624.5 694.7, 623.1 693.2 Q 621.7 691.6, 621.7 688.8 M 627.0 693.4 Q 628.7 693.4, 629.7 692.3 Q 630.6 691.1, 630.6 688.8 Q 630.6 686.5, 629.7 685.4 Q 628.7 684.2, 627.0 684.2 Q 625.2 684.2, 624.3 685.4 Q 623.3 686.5, 623.3 688.8 Q 623.3 691.1, 624.3 692.3 Q 625.2 693.4, 627.0 693.4 " fill="#FF0000"/>
<path class="atom-13" d="M 555.8 611.8 Q 555.8 609.0, 557.2 607.5 Q 558.5 606.0, 561.1 606.0 Q 563.6 606.0, 565.0 607.5 Q 566.3 609.0, 566.3 611.8 Q 566.3 614.6, 565.0 616.2 Q 563.6 617.7, 561.1 617.7 Q 558.6 617.7, 557.2 616.2 Q 555.8 614.6, 555.8 611.8 M 561.1 616.4 Q 562.8 616.4, 563.8 615.3 Q 564.7 614.1, 564.7 611.8 Q 564.7 609.5, 563.8 608.4 Q 562.8 607.3, 561.1 607.3 Q 559.3 607.3, 558.4 608.4 Q 557.4 609.5, 557.4 611.8 Q 557.4 614.1, 558.4 615.3 Q 559.3 616.4, 561.1 616.4 " fill="#FF0000"/>
<path class="atom-16" d="M 499.9 553.2 Q 499.9 550.5, 501.3 548.9 Q 502.7 547.4, 505.2 547.4 Q 507.8 547.4, 509.1 548.9 Q 510.5 550.5, 510.5 553.2 Q 510.5 556.0, 509.1 557.6 Q 507.7 559.1, 505.2 559.1 Q 502.7 559.1, 501.3 557.6 Q 499.9 556.0, 499.9 553.2 M 505.2 557.9 Q 507.0 557.9, 507.9 556.7 Q 508.9 555.5, 508.9 553.2 Q 508.9 551.0, 507.9 549.8 Q 507.0 548.7, 505.2 548.7 Q 503.5 548.7, 502.5 549.8 Q 501.6 550.9, 501.6 553.2 Q 501.6 555.5, 502.5 556.7 Q 503.5 557.9, 505.2 557.9 " fill="#FF0000"/>
</svg>