<svg xmlns="http://www.w3.org/2000/svg" xmlns:rdkit="http://www.rdkit.org/xml" xmlns:xlink="http://www.w3.org/1999/xlink" version="1.1" baseProfile="full" xml:space="preserve" width="1200px" height="800px" viewBox="0 0 1200 800">
<!-- END OF HEADER -->
<rect style="opacity:1.0;fill:#FFFFFF;stroke:none" width="1200.0" height="800.0" x="0.0" y="0.0"> </rect>
<path class="bond-0 atom-0 atom-1" d="M 77.9,192.8 L 122.1,169.6" style="fill:none;fill-rule:evenodd;stroke:#191919;stroke-width:2.0px;stroke-linecap:butt;stroke-linejoin:miter;stroke-opacity:1"/>
<path class="bond-0 atom-0 atom-1" d="M 122.1,169.6 L 166.4,146.4" style="fill:none;fill-rule:evenodd;stroke:#000000;stroke-width:2.0px;stroke-linecap:butt;stroke-linejoin:miter;stroke-opacity:1"/>
<path class="bond-1 atom-1 atom-2" d="M 166.4,146.4 L 260.7,206.1" style="fill:none;fill-rule:evenodd;stroke:#000000;stroke-width:2.0px;stroke-linecap:butt;stroke-linejoin:miter;stroke-opacity:1"/>
<path class="bond-2 atom-2 atom-3" d="M 260.7,206.1 L 359.6,154.3" style="fill:none;fill-rule:evenodd;stroke:#000000;stroke-width:2.0px;stroke-linecap:butt;stroke-linejoin:miter;stroke-opacity:1"/>
<path class="bond-3 atom-3 atom-4" d="M 359.6,154.3 L 453.9,214.0" style="fill:none;fill-rule:evenodd;stroke:#000000;stroke-width:2.0px;stroke-linecap:butt;stroke-linejoin:miter;stroke-opacity:1"/>
<path class="bond-4 atom-4 atom-5" d="M 453.9,214.0 L 495.0,192.4" style="fill:none;fill-rule:evenodd;stroke:#000000;stroke-width:2.0px;stroke-linecap:butt;stroke-linejoin:miter;stroke-opacity:1"/>
<path class="bond-4 atom-4 atom-5" d="M 495.0,192.4 L 536.1,170.8" style="fill:none;fill-rule:evenodd;stroke:#FF0000;stroke-width:2.0px;stroke-linecap:butt;stroke-linejoin:miter;stroke-opacity:1"/>
<path class="bond-5 atom-5 atom-6" d="M 569.5,172.6 L 608.3,197.2" style="fill:none;fill-rule:evenodd;stroke:#FF0000;stroke-width:2.0px;stroke-linecap:butt;stroke-linejoin:miter;stroke-opacity:1"/>
<path class="bond-5 atom-5 atom-6" d="M 608.3,197.2 L 647.2,221.8" style="fill:none;fill-rule:evenodd;stroke:#000000;stroke-width:2.0px;stroke-linecap:butt;stroke-linejoin:miter;stroke-opacity:1"/>
<path class="bond-6 atom-6 atom-7" d="M 639.0,216.6 L 637.0,265.8" style="fill:none;fill-rule:evenodd;stroke:#000000;stroke-width:2.0px;stroke-linecap:butt;stroke-linejoin:miter;stroke-opacity:1"/>
<path class="bond-6 atom-6 atom-7" d="M 637.0,265.8 L 635.0,315.0" style="fill:none;fill-rule:evenodd;stroke:#FF0000;stroke-width:2.0px;stroke-linecap:butt;stroke-linejoin:miter;stroke-opacity:1"/>
<path class="bond-6 atom-6 atom-7" d="M 655.7,217.3 L 653.7,266.5" style="fill:none;fill-rule:evenodd;stroke:#000000;stroke-width:2.0px;stroke-linecap:butt;stroke-linejoin:miter;stroke-opacity:1"/>
<path class="bond-6 atom-6 atom-7" d="M 653.7,266.5 L 651.7,315.7" style="fill:none;fill-rule:evenodd;stroke:#FF0000;stroke-width:2.0px;stroke-linecap:butt;stroke-linejoin:miter;stroke-opacity:1"/>
<path class="bond-7 atom-6 atom-8" d="M 647.2,221.8 L 746.1,169.9" style="fill:none;fill-rule:evenodd;stroke:#000000;stroke-width:2.0px;stroke-linecap:butt;stroke-linejoin:miter;stroke-opacity:1"/>
<path class="bond-8 atom-8 atom-9" d="M 746.1,169.9 L 840.4,229.6" style="fill:none;fill-rule:evenodd;stroke:#000000;stroke-width:2.0px;stroke-linecap:butt;stroke-linejoin:miter;stroke-opacity:1"/>
<path class="bond-9 atom-9 atom-10" d="M 840.4,229.6 L 939.3,177.8" style="fill:none;fill-rule:evenodd;stroke:#000000;stroke-width:2.0px;stroke-linecap:butt;stroke-linejoin:miter;stroke-opacity:1"/>
<path class="bond-10 atom-10 atom-11" d="M 947.5,182.9 L 949.4,134.0" style="fill:none;fill-rule:evenodd;stroke:#000000;stroke-width:2.0px;stroke-linecap:butt;stroke-linejoin:miter;stroke-opacity:1"/>
<path class="bond-10 atom-10 atom-11" d="M 949.4,134.0 L 951.4,85.0" style="fill:none;fill-rule:evenodd;stroke:#FF0000;stroke-width:2.0px;stroke-linecap:butt;stroke-linejoin:miter;stroke-opacity:1"/>
<path class="bond-10 atom-10 atom-11" d="M 930.7,182.3 L 932.7,133.3" style="fill:none;fill-rule:evenodd;stroke:#000000;stroke-width:2.0px;stroke-linecap:butt;stroke-linejoin:miter;stroke-opacity:1"/>
<path class="bond-10 atom-10 atom-11" d="M 932.7,133.3 L 934.7,84.3" style="fill:none;fill-rule:evenodd;stroke:#FF0000;stroke-width:2.0px;stroke-linecap:butt;stroke-linejoin:miter;stroke-opacity:1"/>
<path class="bond-11 atom-10 atom-12" d="M 939.3,177.8 L 978.1,202.3" style="fill:none;fill-rule:evenodd;stroke:#000000;stroke-width:2.0px;stroke-linecap:butt;stroke-linejoin:miter;stroke-opacity:1"/>
<path class="bond-11 atom-10 atom-12" d="M 978.1,202.3 L 1017.0,226.9" style="fill:none;fill-rule:evenodd;stroke:#FF0000;stroke-width:2.0px;stroke-linecap:butt;stroke-linejoin:miter;stroke-opacity:1"/>
<path class="bond-12 atom-12 atom-13" d="M 1050.3,228.7 L 1089.3,208.3" style="fill:none;fill-rule:evenodd;stroke:#FF0000;stroke-width:2.0px;stroke-linecap:butt;stroke-linejoin:miter;stroke-opacity:1"/>
<path class="bond-12 atom-12 atom-13" d="M 1089.3,208.3 L 1128.2,187.9" style="fill:none;fill-rule:evenodd;stroke:#191919;stroke-width:2.0px;stroke-linecap:butt;stroke-linejoin:miter;stroke-opacity:1"/>
<path d="M 164.1,147.6 L 166.4,146.4 L 171.1,149.4" style="fill:none;stroke:#000000;stroke-width:2.0px;stroke-linecap:butt;stroke-linejoin:miter;stroke-opacity:1;"/>
<path d="M 256.0,203.1 L 260.7,206.1 L 265.7,203.5" style="fill:none;stroke:#000000;stroke-width:2.0px;stroke-linecap:butt;stroke-linejoin:miter;stroke-opacity:1;"/>
<path d="M 354.6,156.8 L 359.6,154.3 L 364.3,157.2" style="fill:none;stroke:#000000;stroke-width:2.0px;stroke-linecap:butt;stroke-linejoin:miter;stroke-opacity:1;"/>
<path d="M 449.2,211.0 L 453.9,214.0 L 456.0,212.9" style="fill:none;stroke:#000000;stroke-width:2.0px;stroke-linecap:butt;stroke-linejoin:miter;stroke-opacity:1;"/>
<path d="M 645.2,220.6 L 647.2,221.8 L 652.1,219.2" style="fill:none;stroke:#000000;stroke-width:2.0px;stroke-linecap:butt;stroke-linejoin:miter;stroke-opacity:1;"/>
<path d="M 741.1,172.5 L 746.1,169.9 L 750.8,172.9" style="fill:none;stroke:#000000;stroke-width:2.0px;stroke-linecap:butt;stroke-linejoin:miter;stroke-opacity:1;"/>
<path d="M 835.7,226.6 L 840.4,229.6 L 845.4,227.0" style="fill:none;stroke:#000000;stroke-width:2.0px;stroke-linecap:butt;stroke-linejoin:miter;stroke-opacity:1;"/>
<path d="M 934.3,180.4 L 939.3,177.8 L 941.2,179.0" style="fill:none;stroke:#000000;stroke-width:2.0px;stroke-linecap:butt;stroke-linejoin:miter;stroke-opacity:1;"/>
<path class="atom-0" d="M 62.1 195.1 L 66.3 190.9 L 60.8 189.8 L 61.6 186.9 L 66.7 189.5 L 66.0 183.9 L 69.0 183.9 L 68.1 189.4 L 73.3 187.0 L 74.2 189.8 L 68.6 190.8 L 72.6 195.1 L 70.1 196.8 L 67.4 191.6 L 64.6 196.8 L 62.1 195.1 " fill="#191919"/>
<path class="atom-5" d="M 539.8 162.2 Q 539.8 155.4, 543.2 151.6 Q 546.5 147.8, 552.8 147.8 Q 559.1 147.8, 562.5 151.6 Q 565.8 155.4, 565.8 162.2 Q 565.8 169.1, 562.4 173.0 Q 559.0 176.9, 552.8 176.9 Q 546.6 176.9, 543.2 173.0 Q 539.8 169.1, 539.8 162.2 M 552.8 173.7 Q 557.1 173.7, 559.5 170.8 Q 561.8 167.9, 561.8 162.2 Q 561.8 156.6, 559.5 153.8 Q 557.1 151.0, 552.8 151.0 Q 548.5 151.0, 546.1 153.8 Q 543.8 156.6, 543.8 162.2 Q 543.8 167.9, 546.1 170.8 Q 548.5 173.7, 552.8 173.7 " fill="#FF0000"/>
<path class="atom-7" d="M 629.7 333.4 Q 629.7 326.6, 633.0 322.8 Q 636.4 319.0, 642.7 319.0 Q 648.9 319.0, 652.3 322.8 Q 655.7 326.6, 655.7 333.4 Q 655.7 340.3, 652.3 344.2 Q 648.9 348.1, 642.7 348.1 Q 636.4 348.1, 633.0 344.2 Q 629.7 340.4, 629.7 333.4 M 642.7 344.9 Q 647.0 344.9, 649.3 342.0 Q 651.7 339.1, 651.7 333.4 Q 651.7 327.9, 649.3 325.1 Q 647.0 322.2, 642.7 322.2 Q 638.3 322.2, 636.0 325.0 Q 633.7 327.8, 633.7 333.4 Q 633.7 339.2, 636.0 342.0 Q 638.3 344.9, 642.7 344.9 " fill="#FF0000"/>
<path class="atom-11" d="M 930.8 66.3 Q 930.8 59.5, 934.2 55.7 Q 937.5 51.9, 943.8 51.9 Q 950.1 51.9, 953.5 55.7 Q 956.8 59.5, 956.8 66.3 Q 956.8 73.2, 953.4 77.1 Q 950.0 81.0, 943.8 81.0 Q 937.6 81.0, 934.2 77.1 Q 930.8 73.2, 930.8 66.3 M 943.8 77.8 Q 948.1 77.8, 950.5 74.9 Q 952.8 72.0, 952.8 66.3 Q 952.8 60.7, 950.5 57.9 Q 948.1 55.1, 943.8 55.1 Q 939.5 55.1, 937.1 57.9 Q 934.8 60.7, 934.8 66.3 Q 934.8 72.0, 937.1 74.9 Q 939.5 77.8, 943.8 77.8 " fill="#FF0000"/>
<path class="atom-12" d="M 1020.6 237.5 Q 1020.6 230.7, 1024.0 226.9 Q 1027.4 223.1, 1033.6 223.1 Q 1039.9 223.1, 1043.3 226.9 Q 1046.6 230.7, 1046.6 237.5 Q 1046.6 244.4, 1043.2 248.3 Q 1039.8 252.2, 1033.6 252.2 Q 1027.4 252.2, 1024.0 248.3 Q 1020.6 244.5, 1020.6 237.5 M 1033.6 249.0 Q 1038.0 249.0, 1040.3 246.1 Q 1042.6 243.2, 1042.6 237.5 Q 1042.6 232.0, 1040.3 229.2 Q 1038.0 226.3, 1033.6 226.3 Q 1029.3 226.3, 1027.0 229.1 Q 1024.6 231.9, 1024.6 237.5 Q 1024.6 243.3, 1027.0 246.1 Q 1029.3 249.0, 1033.6 249.0 " fill="#FF0000"/>
<path class="atom-13" d="M 1127.2 182.4 L 1131.3 178.2 L 1125.8 177.1 L 1126.7 174.2 L 1131.7 176.8 L 1131.0 171.2 L 1134.0 171.2 L 1133.2 176.8 L 1138.3 174.4 L 1139.2 177.1 L 1133.6 178.1 L 1137.6 182.4 L 1135.2 184.2 L 1132.4 178.9 L 1129.6 184.2 L 1127.2 182.4 " fill="#191919"/>
<path class="bond-0 atom-0 atom-1" d="M 766.2,561.1 L 744.1,599.3" style="fill:none;fill-rule:evenodd;stroke:#191919;stroke-width:2.0px;stroke-linecap:butt;stroke-linejoin:miter;stroke-opacity:1"/>
<path class="bond-0 atom-0 atom-1" d="M 744.1,599.3 L 722.0,637.5" style="fill:none;fill-rule:evenodd;stroke:#FF0000;stroke-width:2.0px;stroke-linecap:butt;stroke-linejoin:miter;stroke-opacity:1"/>
<path class="bond-1 atom-1 atom-2" d="M 695.0,655.5 L 647.5,655.5" style="fill:none;fill-rule:evenodd;stroke:#FF0000;stroke-width:2.0px;stroke-linecap:butt;stroke-linejoin:miter;stroke-opacity:1"/>
<path class="bond-1 atom-1 atom-2" d="M 647.5,655.5 L 600.0,655.5" style="fill:none;fill-rule:evenodd;stroke:#000000;stroke-width:2.0px;stroke-linecap:butt;stroke-linejoin:miter;stroke-opacity:1"/>
<path class="bond-2 atom-2 atom-3" d="M 600.0,655.5 L 544.2,752.2" style="fill:none;fill-rule:evenodd;stroke:#000000;stroke-width:2.0px;stroke-linecap:butt;stroke-linejoin:miter;stroke-opacity:1"/>
<path class="bond-3 atom-2 atom-4" d="M 600.0,655.5 L 544.2,558.8" style="fill:none;fill-rule:evenodd;stroke:#000000;stroke-width:2.0px;stroke-linecap:butt;stroke-linejoin:miter;stroke-opacity:1"/>
<path class="bond-4 atom-4 atom-5" d="M 544.2,558.8 L 493.5,558.8" style="fill:none;fill-rule:evenodd;stroke:#000000;stroke-width:2.0px;stroke-linecap:butt;stroke-linejoin:miter;stroke-opacity:1"/>
<path class="bond-4 atom-4 atom-5" d="M 493.5,558.8 L 442.9,558.8" style="fill:none;fill-rule:evenodd;stroke:#191919;stroke-width:2.0px;stroke-linecap:butt;stroke-linejoin:miter;stroke-opacity:1"/>
<path class="bond-5 atom-4 atom-6" d="M 549.0,567.2 L 572.8,526.0" style="fill:none;fill-rule:evenodd;stroke:#000000;stroke-width:2.0px;stroke-linecap:butt;stroke-linejoin:miter;stroke-opacity:1"/>
<path class="bond-5 atom-4 atom-6" d="M 572.8,526.0 L 596.6,484.7" style="fill:none;fill-rule:evenodd;stroke:#FF0000;stroke-width:2.0px;stroke-linecap:butt;stroke-linejoin:miter;stroke-opacity:1"/>
<path class="bond-5 atom-4 atom-6" d="M 534.5,558.8 L 558.3,517.6" style="fill:none;fill-rule:evenodd;stroke:#000000;stroke-width:2.0px;stroke-linecap:butt;stroke-linejoin:miter;stroke-opacity:1"/>
<path class="bond-5 atom-4 atom-6" d="M 558.3,517.6 L 582.1,476.4" style="fill:none;fill-rule:evenodd;stroke:#FF0000;stroke-width:2.0px;stroke-linecap:butt;stroke-linejoin:miter;stroke-opacity:1"/>
<path d="M 547.0,563.6 L 544.2,558.8 L 541.6,558.8" style="fill:none;stroke:#000000;stroke-width:2.0px;stroke-linecap:butt;stroke-linejoin:miter;stroke-opacity:1;"/>
<path class="atom-0" d="M 762.1 555.7 L 766.3 551.4 L 760.8 550.3 L 761.6 547.5 L 766.7 550.0 L 766.0 544.5 L 769.0 544.4 L 768.1 550.0 L 773.3 547.6 L 774.2 550.3 L 768.6 551.3 L 772.6 555.6 L 770.1 557.4 L 767.4 552.1 L 764.6 557.4 L 762.1 555.7 " fill="#191919"/>
<path class="atom-1" d="M 698.7 655.6 Q 698.7 648.8, 702.0 645.0 Q 705.4 641.2, 711.7 641.2 Q 717.9 641.2, 721.3 645.0 Q 724.7 648.8, 724.7 655.6 Q 724.7 662.5, 721.3 666.4 Q 717.9 670.3, 711.7 670.3 Q 705.4 670.3, 702.0 666.4 Q 698.7 662.5, 698.7 655.6 M 711.7 667.1 Q 716.0 667.1, 718.3 664.2 Q 720.7 661.3, 720.7 655.6 Q 720.7 650.0, 718.3 647.2 Q 716.0 644.4, 711.7 644.4 Q 707.3 644.4, 705.0 647.2 Q 702.7 650.0, 702.7 655.6 Q 702.7 661.3, 705.0 664.2 Q 707.3 667.1, 711.7 667.1 " fill="#FF0000"/>
<path class="atom-5" d="M 427.2 555.7 L 431.3 551.4 L 425.8 550.3 L 426.7 547.5 L 431.7 550.0 L 431.0 544.5 L 434.0 544.4 L 433.2 550.0 L 438.3 547.6 L 439.2 550.3 L 433.6 551.3 L 437.6 555.6 L 435.2 557.4 L 432.4 552.1 L 429.6 557.4 L 427.2 555.7 " fill="#191919"/>
<path class="atom-6" d="M 587.0 462.2 Q 587.0 455.4, 590.4 451.6 Q 593.7 447.8, 600.0 447.8 Q 606.3 447.8, 609.6 451.6 Q 613.0 455.4, 613.0 462.2 Q 613.0 469.1, 609.6 473.0 Q 606.2 476.9, 600.0 476.9 Q 593.8 476.9, 590.4 473.0 Q 587.0 469.1, 587.0 462.2 M 600.0 473.7 Q 604.3 473.7, 606.6 470.8 Q 609.0 467.9, 609.0 462.2 Q 609.0 456.6, 606.6 453.8 Q 604.3 451.0, 600.0 451.0 Q 595.7 451.0, 593.3 453.8 Q 591.0 456.6, 591.0 462.2 Q 591.0 467.9, 593.3 470.8 Q 595.7 473.7, 600.0 473.7 " fill="#FF0000"/>
</svg>