<svg xmlns="http://www.w3.org/2000/svg" xmlns:rdkit="http://www.rdkit.org/xml" xmlns:xlink="http://www.w3.org/1999/xlink" version="1.1" baseProfile="full" xml:space="preserve" width="1200px" height="800px" viewBox="0 0 1200 800">
<!-- END OF HEADER -->
<rect style="opacity:1.0;fill:#FFFFFF;stroke:none" width="1200.0" height="800.0" x="0.0" y="0.0"> </rect>
<path class="bond-0 atom-0 atom-1" d="M 942.1,202.5 L 931.4,212.7" style="fill:none;fill-rule:evenodd;stroke:#191919;stroke-width:2.0px;stroke-linecap:butt;stroke-linejoin:miter;stroke-opacity:1"/>
<path class="bond-0 atom-0 atom-1" d="M 931.4,212.7 L 920.7,222.8" style="fill:none;fill-rule:evenodd;stroke:#000000;stroke-width:2.0px;stroke-linecap:butt;stroke-linejoin:miter;stroke-opacity:1"/>
<path class="bond-1 atom-1 atom-2" d="M 920.7,222.8 L 891.6,214.1" style="fill:none;fill-rule:evenodd;stroke:#000000;stroke-width:2.0px;stroke-linecap:butt;stroke-linejoin:miter;stroke-opacity:1"/>
<path class="bond-2 atom-2 atom-3" d="M 891.6,214.1 L 869.6,234.9" style="fill:none;fill-rule:evenodd;stroke:#000000;stroke-width:2.0px;stroke-linecap:butt;stroke-linejoin:miter;stroke-opacity:1"/>
<path class="bond-3 atom-3 atom-4" d="M 869.6,234.9 L 840.6,226.2" style="fill:none;fill-rule:evenodd;stroke:#000000;stroke-width:2.0px;stroke-linecap:butt;stroke-linejoin:miter;stroke-opacity:1"/>
<path class="bond-4 atom-4 atom-5" d="M 840.6,226.2 L 818.6,247.0" style="fill:none;fill-rule:evenodd;stroke:#000000;stroke-width:2.0px;stroke-linecap:butt;stroke-linejoin:miter;stroke-opacity:1"/>
<path class="bond-5 atom-5 atom-6" d="M 818.6,247.0 L 789.6,238.4" style="fill:none;fill-rule:evenodd;stroke:#000000;stroke-width:2.0px;stroke-linecap:butt;stroke-linejoin:miter;stroke-opacity:1"/>
<path class="bond-6 atom-6 atom-7" d="M 789.6,238.4 L 767.6,259.2" style="fill:none;fill-rule:evenodd;stroke:#000000;stroke-width:2.0px;stroke-linecap:butt;stroke-linejoin:miter;stroke-opacity:1"/>
<path class="bond-7 atom-7 atom-8" d="M 767.6,259.2 L 738.6,250.5" style="fill:none;fill-rule:evenodd;stroke:#000000;stroke-width:2.0px;stroke-linecap:butt;stroke-linejoin:miter;stroke-opacity:1"/>
<path class="bond-8 atom-8 atom-9" d="M 738.6,250.5 L 716.6,271.3" style="fill:none;fill-rule:evenodd;stroke:#000000;stroke-width:2.0px;stroke-linecap:butt;stroke-linejoin:miter;stroke-opacity:1"/>
<path class="bond-9 atom-9 atom-10" d="M 716.6,271.3 L 687.5,262.6" style="fill:none;fill-rule:evenodd;stroke:#000000;stroke-width:2.0px;stroke-linecap:butt;stroke-linejoin:miter;stroke-opacity:1"/>
<path class="bond-10 atom-10 atom-11" d="M 687.5,262.6 L 679.0,270.7" style="fill:none;fill-rule:evenodd;stroke:#000000;stroke-width:2.0px;stroke-linecap:butt;stroke-linejoin:miter;stroke-opacity:1"/>
<path class="bond-10 atom-10 atom-11" d="M 679.0,270.7 L 670.5,278.7" style="fill:none;fill-rule:evenodd;stroke:#FF0000;stroke-width:2.0px;stroke-linecap:butt;stroke-linejoin:miter;stroke-opacity:1"/>
<path class="bond-11 atom-11 atom-12" d="M 660.6,281.9 L 648.6,278.3" style="fill:none;fill-rule:evenodd;stroke:#FF0000;stroke-width:2.0px;stroke-linecap:butt;stroke-linejoin:miter;stroke-opacity:1"/>
<path class="bond-11 atom-11 atom-12" d="M 648.6,278.3 L 636.5,274.7" style="fill:none;fill-rule:evenodd;stroke:#000000;stroke-width:2.0px;stroke-linecap:butt;stroke-linejoin:miter;stroke-opacity:1"/>
<path class="bond-12 atom-12 atom-13" d="M 639.0,275.5 L 636.0,262.9" style="fill:none;fill-rule:evenodd;stroke:#000000;stroke-width:2.0px;stroke-linecap:butt;stroke-linejoin:miter;stroke-opacity:1"/>
<path class="bond-12 atom-12 atom-13" d="M 636.0,262.9 L 633.0,250.2" style="fill:none;fill-rule:evenodd;stroke:#FF0000;stroke-width:2.0px;stroke-linecap:butt;stroke-linejoin:miter;stroke-opacity:1"/>
<path class="bond-12 atom-12 atom-13" d="M 634.6,276.5 L 631.6,263.9" style="fill:none;fill-rule:evenodd;stroke:#000000;stroke-width:2.0px;stroke-linecap:butt;stroke-linejoin:miter;stroke-opacity:1"/>
<path class="bond-12 atom-12 atom-13" d="M 631.6,263.9 L 628.6,251.3" style="fill:none;fill-rule:evenodd;stroke:#FF0000;stroke-width:2.0px;stroke-linecap:butt;stroke-linejoin:miter;stroke-opacity:1"/>
<path class="bond-13 atom-12 atom-14" d="M 636.5,274.7 L 614.5,295.5" style="fill:none;fill-rule:evenodd;stroke:#000000;stroke-width:2.0px;stroke-linecap:butt;stroke-linejoin:miter;stroke-opacity:1"/>
<path class="bond-14 atom-14 atom-15" d="M 614.5,295.5 L 585.5,286.9" style="fill:none;fill-rule:evenodd;stroke:#000000;stroke-width:2.0px;stroke-linecap:butt;stroke-linejoin:miter;stroke-opacity:1"/>
<path class="bond-15 atom-15 atom-16" d="M 585.5,286.9 L 578.5,257.4" style="fill:none;fill-rule:evenodd;stroke:#000000;stroke-width:2.0px;stroke-linecap:butt;stroke-linejoin:miter;stroke-opacity:1"/>
<path class="bond-16 atom-16 atom-17" d="M 578.5,257.4 L 565.9,253.6" style="fill:none;fill-rule:evenodd;stroke:#000000;stroke-width:2.0px;stroke-linecap:butt;stroke-linejoin:miter;stroke-opacity:1"/>
<path class="bond-16 atom-16 atom-17" d="M 565.9,253.6 L 553.2,249.9" style="fill:none;fill-rule:evenodd;stroke:#CCCC00;stroke-width:2.0px;stroke-linecap:butt;stroke-linejoin:miter;stroke-opacity:1"/>
<path class="bond-17 atom-17 atom-18" d="M 548.2,243.5 L 545.3,231.4" style="fill:none;fill-rule:evenodd;stroke:#CCCC00;stroke-width:2.0px;stroke-linecap:butt;stroke-linejoin:miter;stroke-opacity:1"/>
<path class="bond-17 atom-17 atom-18" d="M 545.3,231.4 L 542.5,219.3" style="fill:none;fill-rule:evenodd;stroke:#000000;stroke-width:2.0px;stroke-linecap:butt;stroke-linejoin:miter;stroke-opacity:1"/>
<path class="bond-18 atom-18 atom-19" d="M 542.5,219.3 L 513.5,210.6" style="fill:none;fill-rule:evenodd;stroke:#000000;stroke-width:2.0px;stroke-linecap:butt;stroke-linejoin:miter;stroke-opacity:1"/>
<path class="bond-19 atom-19 atom-20" d="M 513.5,210.6 L 506.5,181.2" style="fill:none;fill-rule:evenodd;stroke:#000000;stroke-width:2.0px;stroke-linecap:butt;stroke-linejoin:miter;stroke-opacity:1"/>
<path class="bond-20 atom-20 atom-21" d="M 506.5,181.2 L 477.4,172.5" style="fill:none;fill-rule:evenodd;stroke:#000000;stroke-width:2.0px;stroke-linecap:butt;stroke-linejoin:miter;stroke-opacity:1"/>
<path class="bond-21 atom-21 atom-22" d="M 477.4,172.5 L 470.4,143.0" style="fill:none;fill-rule:evenodd;stroke:#000000;stroke-width:2.0px;stroke-linecap:butt;stroke-linejoin:miter;stroke-opacity:1"/>
<path class="bond-22 atom-22 atom-23" d="M 470.4,143.0 L 441.4,134.4" style="fill:none;fill-rule:evenodd;stroke:#000000;stroke-width:2.0px;stroke-linecap:butt;stroke-linejoin:miter;stroke-opacity:1"/>
<path class="bond-23 atom-23 atom-24" d="M 441.4,134.4 L 434.4,104.9" style="fill:none;fill-rule:evenodd;stroke:#000000;stroke-width:2.0px;stroke-linecap:butt;stroke-linejoin:miter;stroke-opacity:1"/>
<path class="bond-24 atom-24 atom-25" d="M 434.4,104.9 L 405.4,96.2" style="fill:none;fill-rule:evenodd;stroke:#000000;stroke-width:2.0px;stroke-linecap:butt;stroke-linejoin:miter;stroke-opacity:1"/>
<path class="bond-25 atom-25 atom-26" d="M 405.4,96.2 L 398.4,66.8" style="fill:none;fill-rule:evenodd;stroke:#000000;stroke-width:2.0px;stroke-linecap:butt;stroke-linejoin:miter;stroke-opacity:1"/>
<path class="bond-26 atom-26 atom-27" d="M 398.4,66.8 L 369.4,58.1" style="fill:none;fill-rule:evenodd;stroke:#000000;stroke-width:2.0px;stroke-linecap:butt;stroke-linejoin:miter;stroke-opacity:1"/>
<path class="bond-27 atom-27 atom-28" d="M 369.4,58.1 L 362.4,28.7" style="fill:none;fill-rule:evenodd;stroke:#000000;stroke-width:2.0px;stroke-linecap:butt;stroke-linejoin:miter;stroke-opacity:1"/>
<path class="bond-28 atom-28 atom-29" d="M 362.4,28.7 L 333.4,20.0" style="fill:none;fill-rule:evenodd;stroke:#000000;stroke-width:2.0px;stroke-linecap:butt;stroke-linejoin:miter;stroke-opacity:1"/>
<path class="bond-29 atom-15 atom-30" d="M 585.5,286.9 L 563.5,307.7" style="fill:none;fill-rule:evenodd;stroke:#000000;stroke-width:2.0px;stroke-linecap:butt;stroke-linejoin:miter;stroke-opacity:1"/>
<path class="bond-30 atom-30 atom-31" d="M 561.0,306.9 L 564.0,319.6" style="fill:none;fill-rule:evenodd;stroke:#000000;stroke-width:2.0px;stroke-linecap:butt;stroke-linejoin:miter;stroke-opacity:1"/>
<path class="bond-30 atom-30 atom-31" d="M 564.0,319.6 L 567.0,332.3" style="fill:none;fill-rule:evenodd;stroke:#FF0000;stroke-width:2.0px;stroke-linecap:butt;stroke-linejoin:miter;stroke-opacity:1"/>
<path class="bond-30 atom-30 atom-31" d="M 565.4,305.9 L 568.4,318.6" style="fill:none;fill-rule:evenodd;stroke:#000000;stroke-width:2.0px;stroke-linecap:butt;stroke-linejoin:miter;stroke-opacity:1"/>
<path class="bond-30 atom-30 atom-31" d="M 568.4,318.6 L 571.4,331.3" style="fill:none;fill-rule:evenodd;stroke:#FF0000;stroke-width:2.0px;stroke-linecap:butt;stroke-linejoin:miter;stroke-opacity:1"/>
<path class="bond-31 atom-30 atom-32" d="M 563.5,307.7 L 551.4,304.1" style="fill:none;fill-rule:evenodd;stroke:#000000;stroke-width:2.0px;stroke-linecap:butt;stroke-linejoin:miter;stroke-opacity:1"/>
<path class="bond-31 atom-30 atom-32" d="M 551.4,304.1 L 539.4,300.5" style="fill:none;fill-rule:evenodd;stroke:#FF0000;stroke-width:2.0px;stroke-linecap:butt;stroke-linejoin:miter;stroke-opacity:1"/>
<path class="bond-32 atom-32 atom-33" d="M 529.5,303.7 L 521.0,311.7" style="fill:none;fill-rule:evenodd;stroke:#FF0000;stroke-width:2.0px;stroke-linecap:butt;stroke-linejoin:miter;stroke-opacity:1"/>
<path class="bond-32 atom-32 atom-33" d="M 521.0,311.7 L 512.5,319.8" style="fill:none;fill-rule:evenodd;stroke:#000000;stroke-width:2.0px;stroke-linecap:butt;stroke-linejoin:miter;stroke-opacity:1"/>
<path class="bond-33 atom-33 atom-34" d="M 512.5,319.8 L 483.4,311.1" style="fill:none;fill-rule:evenodd;stroke:#000000;stroke-width:2.0px;stroke-linecap:butt;stroke-linejoin:miter;stroke-opacity:1"/>
<path class="bond-34 atom-34 atom-35" d="M 483.4,311.1 L 461.4,331.9" style="fill:none;fill-rule:evenodd;stroke:#000000;stroke-width:2.0px;stroke-linecap:butt;stroke-linejoin:miter;stroke-opacity:1"/>
<path class="bond-35 atom-35 atom-36" d="M 461.4,331.9 L 432.4,323.3" style="fill:none;fill-rule:evenodd;stroke:#000000;stroke-width:2.0px;stroke-linecap:butt;stroke-linejoin:miter;stroke-opacity:1"/>
<path class="bond-36 atom-36 atom-37" d="M 432.4,323.3 L 410.4,344.1" style="fill:none;fill-rule:evenodd;stroke:#000000;stroke-width:2.0px;stroke-linecap:butt;stroke-linejoin:miter;stroke-opacity:1"/>
<path class="bond-37 atom-37 atom-38" d="M 410.4,344.1 L 381.4,335.4" style="fill:none;fill-rule:evenodd;stroke:#000000;stroke-width:2.0px;stroke-linecap:butt;stroke-linejoin:miter;stroke-opacity:1"/>
<path class="bond-38 atom-38 atom-39" d="M 381.4,335.4 L 359.4,356.2" style="fill:none;fill-rule:evenodd;stroke:#000000;stroke-width:2.0px;stroke-linecap:butt;stroke-linejoin:miter;stroke-opacity:1"/>
<path class="bond-39 atom-39 atom-40" d="M 359.4,356.2 L 330.4,347.5" style="fill:none;fill-rule:evenodd;stroke:#000000;stroke-width:2.0px;stroke-linecap:butt;stroke-linejoin:miter;stroke-opacity:1"/>
<path class="bond-40 atom-40 atom-41" d="M 330.4,347.5 L 308.4,368.3" style="fill:none;fill-rule:evenodd;stroke:#000000;stroke-width:2.0px;stroke-linecap:butt;stroke-linejoin:miter;stroke-opacity:1"/>
<path class="bond-41 atom-41 atom-42" d="M 308.4,368.3 L 279.3,359.6" style="fill:none;fill-rule:evenodd;stroke:#000000;stroke-width:2.0px;stroke-linecap:butt;stroke-linejoin:miter;stroke-opacity:1"/>
<path class="bond-42 atom-42 atom-43" d="M 279.3,359.6 L 269.9,368.6" style="fill:none;fill-rule:evenodd;stroke:#000000;stroke-width:2.0px;stroke-linecap:butt;stroke-linejoin:miter;stroke-opacity:1"/>
<path class="bond-42 atom-42 atom-43" d="M 269.9,368.6 L 260.4,377.6" style="fill:none;fill-rule:evenodd;stroke:#191919;stroke-width:2.0px;stroke-linecap:butt;stroke-linejoin:miter;stroke-opacity:1"/>
<path d="M 921.2,222.3 L 920.7,222.8 L 919.2,222.3" style="fill:none;stroke:#000000;stroke-width:2.0px;stroke-linecap:butt;stroke-linejoin:miter;stroke-opacity:1;"/>
<path d="M 893.1,214.5 L 891.6,214.1 L 890.5,215.1" style="fill:none;stroke:#000000;stroke-width:2.0px;stroke-linecap:butt;stroke-linejoin:miter;stroke-opacity:1;"/>
<path d="M 870.7,233.9 L 869.6,234.9 L 868.2,234.5" style="fill:none;stroke:#000000;stroke-width:2.0px;stroke-linecap:butt;stroke-linejoin:miter;stroke-opacity:1;"/>
<path d="M 842.1,226.7 L 840.6,226.2 L 839.5,227.3" style="fill:none;stroke:#000000;stroke-width:2.0px;stroke-linecap:butt;stroke-linejoin:miter;stroke-opacity:1;"/>
<path d="M 819.7,246.0 L 818.6,247.0 L 817.2,246.6" style="fill:none;stroke:#000000;stroke-width:2.0px;stroke-linecap:butt;stroke-linejoin:miter;stroke-opacity:1;"/>
<path d="M 791.0,238.8 L 789.6,238.4 L 788.5,239.4" style="fill:none;stroke:#000000;stroke-width:2.0px;stroke-linecap:butt;stroke-linejoin:miter;stroke-opacity:1;"/>
<path d="M 768.7,258.1 L 767.6,259.2 L 766.1,258.7" style="fill:none;stroke:#000000;stroke-width:2.0px;stroke-linecap:butt;stroke-linejoin:miter;stroke-opacity:1;"/>
<path d="M 740.0,250.9 L 738.6,250.5 L 737.5,251.5" style="fill:none;stroke:#000000;stroke-width:2.0px;stroke-linecap:butt;stroke-linejoin:miter;stroke-opacity:1;"/>
<path d="M 717.7,270.2 L 716.6,271.3 L 715.1,270.9" style="fill:none;stroke:#000000;stroke-width:2.0px;stroke-linecap:butt;stroke-linejoin:miter;stroke-opacity:1;"/>
<path d="M 689.0,263.1 L 687.5,262.6 L 687.1,263.0" style="fill:none;stroke:#000000;stroke-width:2.0px;stroke-linecap:butt;stroke-linejoin:miter;stroke-opacity:1;"/>
<path d="M 637.1,274.9 L 636.5,274.7 L 635.4,275.8" style="fill:none;stroke:#000000;stroke-width:2.0px;stroke-linecap:butt;stroke-linejoin:miter;stroke-opacity:1;"/>
<path d="M 615.6,294.5 L 614.5,295.5 L 613.1,295.1" style="fill:none;stroke:#000000;stroke-width:2.0px;stroke-linecap:butt;stroke-linejoin:miter;stroke-opacity:1;"/>
<path d="M 578.8,258.9 L 578.5,257.4 L 577.9,257.2" style="fill:none;stroke:#000000;stroke-width:2.0px;stroke-linecap:butt;stroke-linejoin:miter;stroke-opacity:1;"/>
<path d="M 542.6,219.9 L 542.5,219.3 L 541.0,218.9" style="fill:none;stroke:#000000;stroke-width:2.0px;stroke-linecap:butt;stroke-linejoin:miter;stroke-opacity:1;"/>
<path d="M 514.9,211.1 L 513.5,210.6 L 513.1,209.2" style="fill:none;stroke:#000000;stroke-width:2.0px;stroke-linecap:butt;stroke-linejoin:miter;stroke-opacity:1;"/>
<path d="M 506.8,182.6 L 506.5,181.2 L 505.0,180.7" style="fill:none;stroke:#000000;stroke-width:2.0px;stroke-linecap:butt;stroke-linejoin:miter;stroke-opacity:1;"/>
<path d="M 478.9,172.9 L 477.4,172.5 L 477.1,171.0" style="fill:none;stroke:#000000;stroke-width:2.0px;stroke-linecap:butt;stroke-linejoin:miter;stroke-opacity:1;"/>
<path d="M 470.8,144.5 L 470.4,143.0 L 469.0,142.6" style="fill:none;stroke:#000000;stroke-width:2.0px;stroke-linecap:butt;stroke-linejoin:miter;stroke-opacity:1;"/>
<path d="M 442.9,134.8 L 441.4,134.4 L 441.1,132.9" style="fill:none;stroke:#000000;stroke-width:2.0px;stroke-linecap:butt;stroke-linejoin:miter;stroke-opacity:1;"/>
<path d="M 434.8,106.4 L 434.4,104.9 L 433.0,104.5" style="fill:none;stroke:#000000;stroke-width:2.0px;stroke-linecap:butt;stroke-linejoin:miter;stroke-opacity:1;"/>
<path d="M 406.9,96.7 L 405.4,96.2 L 405.1,94.8" style="fill:none;stroke:#000000;stroke-width:2.0px;stroke-linecap:butt;stroke-linejoin:miter;stroke-opacity:1;"/>
<path d="M 398.8,68.3 L 398.4,66.8 L 397.0,66.4" style="fill:none;stroke:#000000;stroke-width:2.0px;stroke-linecap:butt;stroke-linejoin:miter;stroke-opacity:1;"/>
<path d="M 370.9,58.6 L 369.4,58.1 L 369.0,56.7" style="fill:none;stroke:#000000;stroke-width:2.0px;stroke-linecap:butt;stroke-linejoin:miter;stroke-opacity:1;"/>
<path d="M 362.7,30.1 L 362.4,28.7 L 360.9,28.2" style="fill:none;stroke:#000000;stroke-width:2.0px;stroke-linecap:butt;stroke-linejoin:miter;stroke-opacity:1;"/>
<path d="M 564.6,306.6 L 563.5,307.7 L 562.9,307.5" style="fill:none;stroke:#000000;stroke-width:2.0px;stroke-linecap:butt;stroke-linejoin:miter;stroke-opacity:1;"/>
<path d="M 512.9,319.4 L 512.5,319.8 L 511.0,319.4" style="fill:none;stroke:#000000;stroke-width:2.0px;stroke-linecap:butt;stroke-linejoin:miter;stroke-opacity:1;"/>
<path d="M 484.9,311.6 L 483.4,311.1 L 482.3,312.2" style="fill:none;stroke:#000000;stroke-width:2.0px;stroke-linecap:butt;stroke-linejoin:miter;stroke-opacity:1;"/>
<path d="M 462.5,330.9 L 461.4,331.9 L 460.0,331.5" style="fill:none;stroke:#000000;stroke-width:2.0px;stroke-linecap:butt;stroke-linejoin:miter;stroke-opacity:1;"/>
<path d="M 433.9,323.7 L 432.4,323.3 L 431.3,324.3" style="fill:none;stroke:#000000;stroke-width:2.0px;stroke-linecap:butt;stroke-linejoin:miter;stroke-opacity:1;"/>
<path d="M 411.5,343.0 L 410.4,344.1 L 409.0,343.6" style="fill:none;stroke:#000000;stroke-width:2.0px;stroke-linecap:butt;stroke-linejoin:miter;stroke-opacity:1;"/>
<path d="M 382.8,335.8 L 381.4,335.4 L 380.3,336.4" style="fill:none;stroke:#000000;stroke-width:2.0px;stroke-linecap:butt;stroke-linejoin:miter;stroke-opacity:1;"/>
<path d="M 360.5,355.1 L 359.4,356.2 L 357.9,355.7" style="fill:none;stroke:#000000;stroke-width:2.0px;stroke-linecap:butt;stroke-linejoin:miter;stroke-opacity:1;"/>
<path d="M 331.8,347.9 L 330.4,347.5 L 329.3,348.6" style="fill:none;stroke:#000000;stroke-width:2.0px;stroke-linecap:butt;stroke-linejoin:miter;stroke-opacity:1;"/>
<path d="M 309.5,367.3 L 308.4,368.3 L 306.9,367.9" style="fill:none;stroke:#000000;stroke-width:2.0px;stroke-linecap:butt;stroke-linejoin:miter;stroke-opacity:1;"/>
<path d="M 280.8,360.1 L 279.3,359.6 L 278.9,360.1" style="fill:none;stroke:#000000;stroke-width:2.0px;stroke-linecap:butt;stroke-linejoin:miter;stroke-opacity:1;"/>
<path class="atom-0" d="M 941.1 201.0 L 942.3 199.7 L 940.6 199.4 L 940.9 198.5 L 942.4 199.3 L 942.2 197.6 L 943.1 197.6 L 942.9 199.3 L 944.4 198.6 L 944.7 199.4 L 943.0 199.7 L 944.2 201.0 L 943.5 201.5 L 942.6 199.9 L 941.8 201.5 L 941.1 201.0 " fill="#191919"/>
<path class="atom-11" d="M 661.6 283.4 Q 661.6 281.4, 662.6 280.2 Q 663.6 279.1, 665.5 279.1 Q 667.4 279.1, 668.5 280.2 Q 669.5 281.4, 669.5 283.4 Q 669.5 285.5, 668.4 286.7 Q 667.4 287.9, 665.5 287.9 Q 663.6 287.9, 662.6 286.7 Q 661.6 285.5, 661.6 283.4 M 665.5 286.9 Q 666.8 286.9, 667.5 286.0 Q 668.3 285.2, 668.3 283.4 Q 668.3 281.8, 667.5 280.9 Q 666.8 280.0, 665.5 280.0 Q 664.2 280.0, 663.5 280.9 Q 662.8 281.7, 662.8 283.4 Q 662.8 285.2, 663.5 286.0 Q 664.2 286.9, 665.5 286.9 " fill="#FF0000"/>
<path class="atom-13" d="M 625.6 245.3 Q 625.6 243.3, 626.6 242.1 Q 627.6 241.0, 629.5 241.0 Q 631.4 241.0, 632.4 242.1 Q 633.5 243.3, 633.5 245.3 Q 633.5 247.4, 632.4 248.6 Q 631.4 249.8, 629.5 249.8 Q 627.6 249.8, 626.6 248.6 Q 625.6 247.4, 625.6 245.3 M 629.5 248.8 Q 630.8 248.8, 631.5 247.9 Q 632.2 247.0, 632.2 245.3 Q 632.2 243.6, 631.5 242.8 Q 630.8 241.9, 629.5 241.9 Q 628.2 241.9, 627.5 242.8 Q 626.8 243.6, 626.8 245.3 Q 626.8 247.0, 627.5 247.9 Q 628.2 248.8, 629.5 248.8 " fill="#FF0000"/>
<path class="atom-17" d="M 547.1 251.7 Q 547.2 251.7, 547.6 251.9 Q 548.0 252.1, 548.4 252.2 Q 548.8 252.3, 549.3 252.3 Q 550.1 252.3, 550.6 251.9 Q 551.0 251.5, 551.0 250.8 Q 551.0 250.3, 550.8 250.0 Q 550.6 249.7, 550.2 249.6 Q 549.8 249.4, 549.2 249.2 Q 548.5 249.0, 548.0 248.8 Q 547.6 248.6, 547.2 248.1 Q 546.9 247.7, 546.9 246.9 Q 546.9 245.8, 547.6 245.1 Q 548.4 244.5, 549.8 244.5 Q 550.8 244.5, 551.9 244.9 L 551.7 245.9 Q 550.6 245.5, 549.9 245.5 Q 549.0 245.5, 548.6 245.8 Q 548.1 246.1, 548.1 246.7 Q 548.1 247.2, 548.4 247.5 Q 548.6 247.8, 548.9 247.9 Q 549.3 248.1, 549.9 248.3 Q 550.6 248.5, 551.1 248.7 Q 551.6 249.0, 551.9 249.5 Q 552.2 250.0, 552.2 250.8 Q 552.2 252.0, 551.4 252.6 Q 550.6 253.3, 549.3 253.3 Q 548.6 253.3, 548.0 253.1 Q 547.4 252.9, 546.7 252.6 L 547.1 251.7 " fill="#CCCC00"/>
<path class="atom-31" d="M 566.5 337.2 Q 566.5 335.1, 567.6 333.9 Q 568.6 332.8, 570.5 332.8 Q 572.4 332.8, 573.4 333.9 Q 574.4 335.1, 574.4 337.2 Q 574.4 339.2, 573.4 340.4 Q 572.4 341.6, 570.5 341.6 Q 568.6 341.6, 567.6 340.4 Q 566.5 339.2, 566.5 337.2 M 570.5 340.6 Q 571.8 340.6, 572.5 339.8 Q 573.2 338.9, 573.2 337.2 Q 573.2 335.5, 572.5 334.6 Q 571.8 333.8, 570.5 333.8 Q 569.2 333.8, 568.5 334.6 Q 567.8 335.5, 567.8 337.2 Q 567.8 338.9, 568.5 339.8 Q 569.2 340.6, 570.5 340.6 " fill="#FF0000"/>
<path class="atom-32" d="M 530.5 299.0 Q 530.5 297.0, 531.5 295.8 Q 532.6 294.7, 534.5 294.7 Q 536.4 294.7, 537.4 295.8 Q 538.4 297.0, 538.4 299.0 Q 538.4 301.1, 537.4 302.3 Q 536.3 303.5, 534.5 303.5 Q 532.6 303.5, 531.5 302.3 Q 530.5 301.1, 530.5 299.0 M 534.5 302.5 Q 535.8 302.5, 536.5 301.6 Q 537.2 300.7, 537.2 299.0 Q 537.2 297.3, 536.5 296.5 Q 535.8 295.6, 534.5 295.6 Q 533.2 295.6, 532.4 296.5 Q 531.7 297.3, 531.7 299.0 Q 531.7 300.8, 532.4 301.6 Q 533.2 302.5, 534.5 302.5 " fill="#FF0000"/>
<path class="atom-43" d="M 255.7 379.5 L 257.0 378.2 L 255.3 377.9 L 255.6 377.0 L 257.1 377.8 L 256.9 376.1 L 257.8 376.1 L 257.5 377.8 L 259.1 377.0 L 259.4 377.9 L 257.7 378.2 L 258.9 379.5 L 258.1 380.0 L 257.3 378.4 L 256.5 380.0 L 255.7 379.5 " fill="#191919"/>
<path class="bond-0 atom-0 atom-1" d="M 901.8,491.2 L 893.5,503.5" style="fill:none;fill-rule:evenodd;stroke:#191919;stroke-width:2.0px;stroke-linecap:butt;stroke-linejoin:miter;stroke-opacity:1"/>
<path class="bond-0 atom-0 atom-1" d="M 893.5,503.5 L 885.3,515.8" style="fill:none;fill-rule:evenodd;stroke:#000000;stroke-width:2.0px;stroke-linecap:butt;stroke-linejoin:miter;stroke-opacity:1"/>
<path class="bond-1 atom-1 atom-2" d="M 885.3,515.8 L 855.1,513.8" style="fill:none;fill-rule:evenodd;stroke:#000000;stroke-width:2.0px;stroke-linecap:butt;stroke-linejoin:miter;stroke-opacity:1"/>
<path class="bond-2 atom-2 atom-3" d="M 855.1,513.8 L 838.3,539.0" style="fill:none;fill-rule:evenodd;stroke:#000000;stroke-width:2.0px;stroke-linecap:butt;stroke-linejoin:miter;stroke-opacity:1"/>
<path class="bond-3 atom-3 atom-4" d="M 838.3,539.0 L 808.0,537.0" style="fill:none;fill-rule:evenodd;stroke:#000000;stroke-width:2.0px;stroke-linecap:butt;stroke-linejoin:miter;stroke-opacity:1"/>
<path class="bond-4 atom-4 atom-5" d="M 808.0,537.0 L 791.2,562.2" style="fill:none;fill-rule:evenodd;stroke:#000000;stroke-width:2.0px;stroke-linecap:butt;stroke-linejoin:miter;stroke-opacity:1"/>
<path class="bond-5 atom-5 atom-6" d="M 791.2,562.2 L 761.0,560.2" style="fill:none;fill-rule:evenodd;stroke:#000000;stroke-width:2.0px;stroke-linecap:butt;stroke-linejoin:miter;stroke-opacity:1"/>
<path class="bond-6 atom-6 atom-7" d="M 761.0,560.2 L 744.2,585.4" style="fill:none;fill-rule:evenodd;stroke:#000000;stroke-width:2.0px;stroke-linecap:butt;stroke-linejoin:miter;stroke-opacity:1"/>
<path class="bond-7 atom-7 atom-8" d="M 744.2,585.4 L 713.9,583.4" style="fill:none;fill-rule:evenodd;stroke:#000000;stroke-width:2.0px;stroke-linecap:butt;stroke-linejoin:miter;stroke-opacity:1"/>
<path class="bond-8 atom-8 atom-9" d="M 713.9,583.4 L 697.1,608.5" style="fill:none;fill-rule:evenodd;stroke:#000000;stroke-width:2.0px;stroke-linecap:butt;stroke-linejoin:miter;stroke-opacity:1"/>
<path class="bond-9 atom-9 atom-10" d="M 697.1,608.5 L 666.9,606.5" style="fill:none;fill-rule:evenodd;stroke:#000000;stroke-width:2.0px;stroke-linecap:butt;stroke-linejoin:miter;stroke-opacity:1"/>
<path class="bond-10 atom-10 atom-11" d="M 666.9,606.5 L 660.3,616.5" style="fill:none;fill-rule:evenodd;stroke:#000000;stroke-width:2.0px;stroke-linecap:butt;stroke-linejoin:miter;stroke-opacity:1"/>
<path class="bond-10 atom-10 atom-11" d="M 660.3,616.5 L 653.6,626.4" style="fill:none;fill-rule:evenodd;stroke:#FF0000;stroke-width:2.0px;stroke-linecap:butt;stroke-linejoin:miter;stroke-opacity:1"/>
<path class="bond-11 atom-11 atom-12" d="M 645.1,631.4 L 632.5,630.6" style="fill:none;fill-rule:evenodd;stroke:#FF0000;stroke-width:2.0px;stroke-linecap:butt;stroke-linejoin:miter;stroke-opacity:1"/>
<path class="bond-11 atom-11 atom-12" d="M 632.5,630.6 L 619.9,629.7" style="fill:none;fill-rule:evenodd;stroke:#000000;stroke-width:2.0px;stroke-linecap:butt;stroke-linejoin:miter;stroke-opacity:1"/>
<path class="bond-12 atom-12 atom-13" d="M 622.5,629.9 L 616.8,618.5" style="fill:none;fill-rule:evenodd;stroke:#000000;stroke-width:2.0px;stroke-linecap:butt;stroke-linejoin:miter;stroke-opacity:1"/>
<path class="bond-12 atom-12 atom-13" d="M 616.8,618.5 L 611.2,607.0" style="fill:none;fill-rule:evenodd;stroke:#FF0000;stroke-width:2.0px;stroke-linecap:butt;stroke-linejoin:miter;stroke-opacity:1"/>
<path class="bond-12 atom-12 atom-13" d="M 618.4,631.9 L 612.8,620.5" style="fill:none;fill-rule:evenodd;stroke:#000000;stroke-width:2.0px;stroke-linecap:butt;stroke-linejoin:miter;stroke-opacity:1"/>
<path class="bond-12 atom-12 atom-13" d="M 612.8,620.5 L 607.1,609.0" style="fill:none;fill-rule:evenodd;stroke:#FF0000;stroke-width:2.0px;stroke-linecap:butt;stroke-linejoin:miter;stroke-opacity:1"/>
<path class="bond-13 atom-12 atom-14" d="M 619.9,629.7 L 603.0,654.9" style="fill:none;fill-rule:evenodd;stroke:#000000;stroke-width:2.0px;stroke-linecap:butt;stroke-linejoin:miter;stroke-opacity:1"/>
<path class="bond-14 atom-14 atom-15" d="M 603.0,654.9 L 572.8,652.9" style="fill:none;fill-rule:evenodd;stroke:#000000;stroke-width:2.0px;stroke-linecap:butt;stroke-linejoin:miter;stroke-opacity:1"/>
<path class="bond-15 atom-15 atom-16" d="M 572.8,652.9 L 556.0,678.1" style="fill:none;fill-rule:evenodd;stroke:#000000;stroke-width:2.0px;stroke-linecap:butt;stroke-linejoin:miter;stroke-opacity:1"/>
<path class="bond-16 atom-16 atom-17" d="M 556.0,678.1 L 543.0,677.2" style="fill:none;fill-rule:evenodd;stroke:#000000;stroke-width:2.0px;stroke-linecap:butt;stroke-linejoin:miter;stroke-opacity:1"/>
<path class="bond-16 atom-16 atom-17" d="M 543.0,677.2 L 530.0,676.4" style="fill:none;fill-rule:evenodd;stroke:#0000FF;stroke-width:2.0px;stroke-linecap:butt;stroke-linejoin:miter;stroke-opacity:1"/>
<path class="bond-17 atom-17 atom-18" d="M 522.2,681.4 L 515.6,691.3" style="fill:none;fill-rule:evenodd;stroke:#0000FF;stroke-width:2.0px;stroke-linecap:butt;stroke-linejoin:miter;stroke-opacity:1"/>
<path class="bond-17 atom-17 atom-18" d="M 515.6,691.3 L 508.9,701.2" style="fill:none;fill-rule:evenodd;stroke:#000000;stroke-width:2.0px;stroke-linecap:butt;stroke-linejoin:miter;stroke-opacity:1"/>
<path class="bond-18 atom-18 atom-19" d="M 508.9,701.2 L 478.7,699.2" style="fill:none;fill-rule:evenodd;stroke:#000000;stroke-width:2.0px;stroke-linecap:butt;stroke-linejoin:miter;stroke-opacity:1"/>
<path class="bond-19 atom-18 atom-20" d="M 508.9,701.2 L 522.3,728.4" style="fill:none;fill-rule:evenodd;stroke:#000000;stroke-width:2.0px;stroke-linecap:butt;stroke-linejoin:miter;stroke-opacity:1"/>
<path class="bond-20 atom-20 atom-21" d="M 522.3,728.4 L 505.5,753.6" style="fill:none;fill-rule:evenodd;stroke:#000000;stroke-width:2.0px;stroke-linecap:butt;stroke-linejoin:miter;stroke-opacity:1"/>
<path class="bond-21 atom-15 atom-22" d="M 572.8,652.9 L 559.4,625.7" style="fill:none;fill-rule:evenodd;stroke:#000000;stroke-width:2.0px;stroke-linecap:butt;stroke-linejoin:miter;stroke-opacity:1"/>
<path class="bond-22 atom-22 atom-23" d="M 560.6,628.1 L 567.5,617.7" style="fill:none;fill-rule:evenodd;stroke:#000000;stroke-width:2.0px;stroke-linecap:butt;stroke-linejoin:miter;stroke-opacity:1"/>
<path class="bond-22 atom-22 atom-23" d="M 567.5,617.7 L 574.5,607.3" style="fill:none;fill-rule:evenodd;stroke:#FF0000;stroke-width:2.0px;stroke-linecap:butt;stroke-linejoin:miter;stroke-opacity:1"/>
<path class="bond-22 atom-22 atom-23" d="M 556.8,625.6 L 563.8,615.2" style="fill:none;fill-rule:evenodd;stroke:#000000;stroke-width:2.0px;stroke-linecap:butt;stroke-linejoin:miter;stroke-opacity:1"/>
<path class="bond-22 atom-22 atom-23" d="M 563.8,615.2 L 570.7,604.8" style="fill:none;fill-rule:evenodd;stroke:#FF0000;stroke-width:2.0px;stroke-linecap:butt;stroke-linejoin:miter;stroke-opacity:1"/>
<path class="bond-23 atom-22 atom-24" d="M 559.4,625.7 L 546.8,624.9" style="fill:none;fill-rule:evenodd;stroke:#000000;stroke-width:2.0px;stroke-linecap:butt;stroke-linejoin:miter;stroke-opacity:1"/>
<path class="bond-23 atom-22 atom-24" d="M 546.8,624.9 L 534.1,624.1" style="fill:none;fill-rule:evenodd;stroke:#FF0000;stroke-width:2.0px;stroke-linecap:butt;stroke-linejoin:miter;stroke-opacity:1"/>
<path class="bond-24 atom-24 atom-25" d="M 526.6,618.4 L 521.2,607.5" style="fill:none;fill-rule:evenodd;stroke:#FF0000;stroke-width:2.0px;stroke-linecap:butt;stroke-linejoin:miter;stroke-opacity:1"/>
<path class="bond-24 atom-24 atom-25" d="M 521.2,607.5 L 515.8,596.6" style="fill:none;fill-rule:evenodd;stroke:#000000;stroke-width:2.0px;stroke-linecap:butt;stroke-linejoin:miter;stroke-opacity:1"/>
<path class="bond-25 atom-25 atom-26" d="M 515.8,596.6 L 485.6,594.6" style="fill:none;fill-rule:evenodd;stroke:#000000;stroke-width:2.0px;stroke-linecap:butt;stroke-linejoin:miter;stroke-opacity:1"/>
<path class="bond-26 atom-26 atom-27" d="M 485.6,594.6 L 472.2,567.4" style="fill:none;fill-rule:evenodd;stroke:#000000;stroke-width:2.0px;stroke-linecap:butt;stroke-linejoin:miter;stroke-opacity:1"/>
<path class="bond-27 atom-27 atom-28" d="M 472.2,567.4 L 442.0,565.4" style="fill:none;fill-rule:evenodd;stroke:#000000;stroke-width:2.0px;stroke-linecap:butt;stroke-linejoin:miter;stroke-opacity:1"/>
<path class="bond-28 atom-28 atom-29" d="M 442.0,565.4 L 428.6,538.3" style="fill:none;fill-rule:evenodd;stroke:#000000;stroke-width:2.0px;stroke-linecap:butt;stroke-linejoin:miter;stroke-opacity:1"/>
<path class="bond-29 atom-29 atom-30" d="M 428.6,538.3 L 398.4,536.3" style="fill:none;fill-rule:evenodd;stroke:#000000;stroke-width:2.0px;stroke-linecap:butt;stroke-linejoin:miter;stroke-opacity:1"/>
<path class="bond-30 atom-30 atom-31" d="M 398.4,536.3 L 385.0,509.1" style="fill:none;fill-rule:evenodd;stroke:#000000;stroke-width:2.0px;stroke-linecap:butt;stroke-linejoin:miter;stroke-opacity:1"/>
<path class="bond-31 atom-31 atom-32" d="M 385.0,509.1 L 354.8,507.1" style="fill:none;fill-rule:evenodd;stroke:#000000;stroke-width:2.0px;stroke-linecap:butt;stroke-linejoin:miter;stroke-opacity:1"/>
<path class="bond-32 atom-32 atom-33" d="M 354.8,507.1 L 341.5,479.9" style="fill:none;fill-rule:evenodd;stroke:#000000;stroke-width:2.0px;stroke-linecap:butt;stroke-linejoin:miter;stroke-opacity:1"/>
<path class="bond-33 atom-33 atom-34" d="M 341.5,479.9 L 311.2,478.0" style="fill:none;fill-rule:evenodd;stroke:#000000;stroke-width:2.0px;stroke-linecap:butt;stroke-linejoin:miter;stroke-opacity:1"/>
<path class="bond-34 atom-34 atom-35" d="M 311.2,478.0 L 304.7,464.7" style="fill:none;fill-rule:evenodd;stroke:#000000;stroke-width:2.0px;stroke-linecap:butt;stroke-linejoin:miter;stroke-opacity:1"/>
<path class="bond-34 atom-34 atom-35" d="M 304.7,464.7 L 298.1,451.4" style="fill:none;fill-rule:evenodd;stroke:#191919;stroke-width:2.0px;stroke-linecap:butt;stroke-linejoin:miter;stroke-opacity:1"/>
<path d="M 885.7,515.2 L 885.3,515.8 L 883.8,515.7" style="fill:none;stroke:#000000;stroke-width:2.0px;stroke-linecap:butt;stroke-linejoin:miter;stroke-opacity:1;"/>
<path d="M 856.6,513.9 L 855.1,513.8 L 854.3,515.1" style="fill:none;stroke:#000000;stroke-width:2.0px;stroke-linecap:butt;stroke-linejoin:miter;stroke-opacity:1;"/>
<path d="M 839.1,537.8 L 838.3,539.0 L 836.7,538.9" style="fill:none;stroke:#000000;stroke-width:2.0px;stroke-linecap:butt;stroke-linejoin:miter;stroke-opacity:1;"/>
<path d="M 809.6,537.1 L 808.0,537.0 L 807.2,538.3" style="fill:none;stroke:#000000;stroke-width:2.0px;stroke-linecap:butt;stroke-linejoin:miter;stroke-opacity:1;"/>
<path d="M 792.1,560.9 L 791.2,562.2 L 789.7,562.1" style="fill:none;stroke:#000000;stroke-width:2.0px;stroke-linecap:butt;stroke-linejoin:miter;stroke-opacity:1;"/>
<path d="M 762.5,560.3 L 761.0,560.2 L 760.2,561.5" style="fill:none;stroke:#000000;stroke-width:2.0px;stroke-linecap:butt;stroke-linejoin:miter;stroke-opacity:1;"/>
<path d="M 745.0,584.1 L 744.2,585.4 L 742.7,585.3" style="fill:none;stroke:#000000;stroke-width:2.0px;stroke-linecap:butt;stroke-linejoin:miter;stroke-opacity:1;"/>
<path d="M 715.5,583.5 L 713.9,583.4 L 713.1,584.6" style="fill:none;stroke:#000000;stroke-width:2.0px;stroke-linecap:butt;stroke-linejoin:miter;stroke-opacity:1;"/>
<path d="M 698.0,607.3 L 697.1,608.5 L 695.6,608.4" style="fill:none;stroke:#000000;stroke-width:2.0px;stroke-linecap:butt;stroke-linejoin:miter;stroke-opacity:1;"/>
<path d="M 668.4,606.6 L 666.9,606.5 L 666.6,607.0" style="fill:none;stroke:#000000;stroke-width:2.0px;stroke-linecap:butt;stroke-linejoin:miter;stroke-opacity:1;"/>
<path d="M 620.5,629.8 L 619.9,629.7 L 619.0,631.0" style="fill:none;stroke:#000000;stroke-width:2.0px;stroke-linecap:butt;stroke-linejoin:miter;stroke-opacity:1;"/>
<path d="M 603.9,653.6 L 603.0,654.9 L 601.5,654.8" style="fill:none;stroke:#000000;stroke-width:2.0px;stroke-linecap:butt;stroke-linejoin:miter;stroke-opacity:1;"/>
<path d="M 556.8,676.8 L 556.0,678.1 L 555.3,678.0" style="fill:none;stroke:#000000;stroke-width:2.0px;stroke-linecap:butt;stroke-linejoin:miter;stroke-opacity:1;"/>
<path d="M 521.6,727.0 L 522.3,728.4 L 521.5,729.7" style="fill:none;stroke:#000000;stroke-width:2.0px;stroke-linecap:butt;stroke-linejoin:miter;stroke-opacity:1;"/>
<path d="M 560.1,627.1 L 559.4,625.7 L 558.8,625.7" style="fill:none;stroke:#000000;stroke-width:2.0px;stroke-linecap:butt;stroke-linejoin:miter;stroke-opacity:1;"/>
<path d="M 516.1,597.1 L 515.8,596.6 L 514.3,596.5" style="fill:none;stroke:#000000;stroke-width:2.0px;stroke-linecap:butt;stroke-linejoin:miter;stroke-opacity:1;"/>
<path d="M 487.1,594.7 L 485.6,594.6 L 484.9,593.2" style="fill:none;stroke:#000000;stroke-width:2.0px;stroke-linecap:butt;stroke-linejoin:miter;stroke-opacity:1;"/>
<path d="M 472.9,568.8 L 472.2,567.4 L 470.7,567.3" style="fill:none;stroke:#000000;stroke-width:2.0px;stroke-linecap:butt;stroke-linejoin:miter;stroke-opacity:1;"/>
<path d="M 443.5,565.5 L 442.0,565.4 L 441.4,564.1" style="fill:none;stroke:#000000;stroke-width:2.0px;stroke-linecap:butt;stroke-linejoin:miter;stroke-opacity:1;"/>
<path d="M 429.3,539.6 L 428.6,538.3 L 427.1,538.2" style="fill:none;stroke:#000000;stroke-width:2.0px;stroke-linecap:butt;stroke-linejoin:miter;stroke-opacity:1;"/>
<path d="M 399.9,536.4 L 398.4,536.3 L 397.8,534.9" style="fill:none;stroke:#000000;stroke-width:2.0px;stroke-linecap:butt;stroke-linejoin:miter;stroke-opacity:1;"/>
<path d="M 385.7,510.5 L 385.0,509.1 L 383.5,509.0" style="fill:none;stroke:#000000;stroke-width:2.0px;stroke-linecap:butt;stroke-linejoin:miter;stroke-opacity:1;"/>
<path d="M 356.3,507.2 L 354.8,507.1 L 354.2,505.7" style="fill:none;stroke:#000000;stroke-width:2.0px;stroke-linecap:butt;stroke-linejoin:miter;stroke-opacity:1;"/>
<path d="M 342.1,481.3 L 341.5,479.9 L 339.9,479.8" style="fill:none;stroke:#000000;stroke-width:2.0px;stroke-linecap:butt;stroke-linejoin:miter;stroke-opacity:1;"/>
<path d="M 312.7,478.1 L 311.2,478.0 L 310.9,477.3" style="fill:none;stroke:#000000;stroke-width:2.0px;stroke-linecap:butt;stroke-linejoin:miter;stroke-opacity:1;"/>
<path class="atom-0" d="M 900.5 489.7 L 901.8 488.4 L 900.1 488.1 L 900.4 487.2 L 901.9 488.0 L 901.7 486.3 L 902.6 486.3 L 902.3 488.0 L 903.9 487.3 L 904.2 488.1 L 902.5 488.4 L 903.7 489.7 L 902.9 490.2 L 902.1 488.6 L 901.3 490.2 L 900.5 489.7 " fill="#191919"/>
<path class="atom-11" d="M 646.1 631.7 Q 646.1 629.7, 647.1 628.5 Q 648.2 627.4, 650.1 627.4 Q 652.0 627.4, 653.0 628.5 Q 654.0 629.7, 654.0 631.7 Q 654.0 633.8, 653.0 635.0 Q 651.9 636.2, 650.1 636.2 Q 648.2 636.2, 647.1 635.0 Q 646.1 633.8, 646.1 631.7 M 650.1 635.2 Q 651.4 635.2, 652.1 634.3 Q 652.8 633.5, 652.8 631.7 Q 652.8 630.1, 652.1 629.2 Q 651.4 628.3, 650.1 628.3 Q 648.8 628.3, 648.0 629.2 Q 647.3 630.0, 647.3 631.7 Q 647.3 633.5, 648.0 634.3 Q 648.8 635.2, 650.1 635.2 " fill="#FF0000"/>
<path class="atom-13" d="M 602.5 602.6 Q 602.5 600.5, 603.6 599.4 Q 604.6 598.2, 606.5 598.2 Q 608.4 598.2, 609.4 599.4 Q 610.4 600.5, 610.4 602.6 Q 610.4 604.7, 609.4 605.9 Q 608.3 607.0, 606.5 607.0 Q 604.6 607.0, 603.6 605.9 Q 602.5 604.7, 602.5 602.6 M 606.5 606.1 Q 607.8 606.1, 608.5 605.2 Q 609.2 604.3, 609.2 602.6 Q 609.2 600.9, 608.5 600.1 Q 607.8 599.2, 606.5 599.2 Q 605.2 599.2, 604.4 600.0 Q 603.7 600.9, 603.7 602.6 Q 603.7 604.3, 604.4 605.2 Q 605.2 606.1, 606.5 606.1 " fill="#FF0000"/>
<path class="atom-17" d="M 514.1 671.8 L 515.3 671.8 L 515.3 675.4 L 519.6 675.4 L 519.6 671.8 L 520.8 671.8 L 520.8 680.4 L 519.6 680.4 L 519.6 676.4 L 515.3 676.4 L 515.3 680.4 L 514.1 680.4 L 514.1 671.8 " fill="#0000FF"/>
<path class="atom-17" d="M 523.9 671.8 L 526.7 676.3 Q 526.9 676.8, 527.4 677.6 Q 527.8 678.4, 527.9 678.4 L 527.9 671.8 L 529.0 671.8 L 529.0 680.4 L 527.8 680.4 L 524.8 675.4 Q 524.5 674.8, 524.1 674.1 Q 523.7 673.5, 523.6 673.3 L 523.6 680.4 L 522.5 680.4 L 522.5 671.8 L 523.9 671.8 " fill="#0000FF"/>
<path class="atom-23" d="M 572.3 600.6 Q 572.3 598.5, 573.3 597.4 Q 574.4 596.2, 576.3 596.2 Q 578.2 596.2, 579.2 597.4 Q 580.2 598.5, 580.2 600.6 Q 580.2 602.7, 579.2 603.9 Q 578.1 605.0, 576.3 605.0 Q 574.4 605.0, 573.3 603.9 Q 572.3 602.7, 572.3 600.6 M 576.3 604.1 Q 577.6 604.1, 578.3 603.2 Q 579.0 602.3, 579.0 600.6 Q 579.0 598.9, 578.3 598.1 Q 577.6 597.2, 576.3 597.2 Q 574.9 597.2, 574.2 598.0 Q 573.5 598.9, 573.5 600.6 Q 573.5 602.3, 574.2 603.2 Q 574.9 604.1, 576.3 604.1 " fill="#FF0000"/>
<path class="atom-24" d="M 525.3 623.8 Q 525.3 621.7, 526.3 620.6 Q 527.3 619.4, 529.2 619.4 Q 531.1 619.4, 532.1 620.6 Q 533.1 621.7, 533.1 623.8 Q 533.1 625.8, 532.1 627.0 Q 531.1 628.2, 529.2 628.2 Q 527.3 628.2, 526.3 627.0 Q 525.3 625.9, 525.3 623.8 M 529.2 627.2 Q 530.5 627.2, 531.2 626.4 Q 531.9 625.5, 531.9 623.8 Q 531.9 622.1, 531.2 621.2 Q 530.5 620.4, 529.2 620.4 Q 527.9 620.4, 527.2 621.2 Q 526.5 622.1, 526.5 623.8 Q 526.5 625.5, 527.2 626.4 Q 527.9 627.2, 529.2 627.2 " fill="#FF0000"/>
<path class="atom-35" d="M 296.2 449.8 L 297.5 448.5 L 295.8 448.2 L 296.1 447.3 L 297.6 448.1 L 297.4 446.4 L 298.3 446.4 L 298.1 448.1 L 299.6 447.4 L 299.9 448.2 L 298.2 448.5 L 299.4 449.8 L 298.7 450.4 L 297.8 448.8 L 297.0 450.4 L 296.2 449.8 " fill="#191919"/>
</svg>