<svg xmlns="http://www.w3.org/2000/svg" xmlns:rdkit="http://www.rdkit.org/xml" xmlns:xlink="http://www.w3.org/1999/xlink" version="1.1" baseProfile="full" xml:space="preserve" width="1200px" height="1200px" viewBox="0 0 1200 1200">
<!-- END OF HEADER -->
<rect style="opacity:1.0;fill:#FFFFFF;stroke:none" width="1200.0" height="1200.0" x="0.0" y="0.0"> </rect>
<path class="bond-0 atom-0 atom-1" d="M 82.0,256.4 L 136.8,229.1" style="fill:none;fill-rule:evenodd;stroke:#191919;stroke-width:2.0px;stroke-linecap:butt;stroke-linejoin:miter;stroke-opacity:1"/>
<path class="bond-0 atom-0 atom-1" d="M 136.8,229.1 L 191.5,201.8" style="fill:none;fill-rule:evenodd;stroke:#0000FF;stroke-width:2.0px;stroke-linecap:butt;stroke-linejoin:miter;stroke-opacity:1"/>
<path class="bond-1 atom-1 atom-2" d="M 223.1,204.3 L 279.1,241.3" style="fill:none;fill-rule:evenodd;stroke:#0000FF;stroke-width:2.0px;stroke-linecap:butt;stroke-linejoin:miter;stroke-opacity:1"/>
<path class="bond-1 atom-1 atom-2" d="M 279.1,241.3 L 335.1,278.4" style="fill:none;fill-rule:evenodd;stroke:#000000;stroke-width:2.0px;stroke-linecap:butt;stroke-linejoin:miter;stroke-opacity:1"/>
<path class="bond-2 atom-2 atom-3" d="M 335.1,278.4 L 472.2,209.9" style="fill:none;fill-rule:evenodd;stroke:#000000;stroke-width:2.0px;stroke-linecap:butt;stroke-linejoin:miter;stroke-opacity:1"/>
<path class="bond-3 atom-3 atom-4" d="M 472.2,209.9 L 600.0,294.4" style="fill:none;fill-rule:evenodd;stroke:#000000;stroke-width:2.0px;stroke-linecap:butt;stroke-linejoin:miter;stroke-opacity:1"/>
<path class="bond-4 atom-4 atom-5" d="M 600.0,294.4 L 737.1,226.0" style="fill:none;fill-rule:evenodd;stroke:#000000;stroke-width:2.0px;stroke-linecap:butt;stroke-linejoin:miter;stroke-opacity:1"/>
<path class="bond-5 atom-5 atom-6" d="M 737.1,226.0 L 864.9,310.5" style="fill:none;fill-rule:evenodd;stroke:#000000;stroke-width:2.0px;stroke-linecap:butt;stroke-linejoin:miter;stroke-opacity:1"/>
<path class="bond-6 atom-6 atom-7" d="M 864.9,310.5 L 1001.9,242.1" style="fill:none;fill-rule:evenodd;stroke:#000000;stroke-width:2.0px;stroke-linecap:butt;stroke-linejoin:miter;stroke-opacity:1"/>
<path class="bond-7 atom-7 atom-8" d="M 1001.9,242.1 L 1060.0,280.5" style="fill:none;fill-rule:evenodd;stroke:#000000;stroke-width:2.0px;stroke-linecap:butt;stroke-linejoin:miter;stroke-opacity:1"/>
<path class="bond-7 atom-7 atom-8" d="M 1060.0,280.5 L 1118.0,318.8" style="fill:none;fill-rule:evenodd;stroke:#191919;stroke-width:2.0px;stroke-linecap:butt;stroke-linejoin:miter;stroke-opacity:1"/>
<path class="bond-8 atom-7 atom-9" d="M 1013.0,249.4 L 1017.2,179.5" style="fill:none;fill-rule:evenodd;stroke:#000000;stroke-width:2.0px;stroke-linecap:butt;stroke-linejoin:miter;stroke-opacity:1"/>
<path class="bond-8 atom-7 atom-9" d="M 1017.2,179.5 L 1021.5,109.7" style="fill:none;fill-rule:evenodd;stroke:#FF0000;stroke-width:2.0px;stroke-linecap:butt;stroke-linejoin:miter;stroke-opacity:1"/>
<path class="bond-8 atom-7 atom-9" d="M 990.1,248.0 L 994.3,178.2" style="fill:none;fill-rule:evenodd;stroke:#000000;stroke-width:2.0px;stroke-linecap:butt;stroke-linejoin:miter;stroke-opacity:1"/>
<path class="bond-8 atom-7 atom-9" d="M 994.3,178.2 L 998.6,108.3" style="fill:none;fill-rule:evenodd;stroke:#FF0000;stroke-width:2.0px;stroke-linecap:butt;stroke-linejoin:miter;stroke-opacity:1"/>
<path d="M 332.3,276.5 L 335.1,278.4 L 342.0,274.9" style="fill:none;stroke:#000000;stroke-width:2.0px;stroke-linecap:butt;stroke-linejoin:miter;stroke-opacity:1;"/>
<path d="M 465.4,213.4 L 472.2,209.9 L 478.6,214.2" style="fill:none;stroke:#000000;stroke-width:2.0px;stroke-linecap:butt;stroke-linejoin:miter;stroke-opacity:1;"/>
<path d="M 593.6,290.2 L 600.0,294.4 L 606.9,291.0" style="fill:none;stroke:#000000;stroke-width:2.0px;stroke-linecap:butt;stroke-linejoin:miter;stroke-opacity:1;"/>
<path d="M 730.2,229.4 L 737.1,226.0 L 743.5,230.2" style="fill:none;stroke:#000000;stroke-width:2.0px;stroke-linecap:butt;stroke-linejoin:miter;stroke-opacity:1;"/>
<path d="M 858.5,306.3 L 864.9,310.5 L 871.7,307.1" style="fill:none;stroke:#000000;stroke-width:2.0px;stroke-linecap:butt;stroke-linejoin:miter;stroke-opacity:1;"/>
<path d="M 995.1,245.5 L 1001.9,242.1 L 1004.8,244.0" style="fill:none;stroke:#000000;stroke-width:2.0px;stroke-linecap:butt;stroke-linejoin:miter;stroke-opacity:1;"/>
<path class="atom-0" d="M 64.9 259.1 L 69.1 254.9 L 63.6 253.8 L 64.4 250.9 L 69.5 253.5 L 68.8 247.9 L 71.8 247.9 L 70.9 253.5 L 76.1 251.1 L 77.0 253.8 L 71.4 254.8 L 75.4 259.1 L 72.9 260.9 L 70.2 255.6 L 67.4 260.9 L 64.9 259.1 " fill="#191919"/>
<path class="atom-1" d="M 201.1 179.7 L 210.4 194.7 Q 211.3 196.2, 212.8 198.9 Q 214.2 201.5, 214.3 201.7 L 214.3 179.7 L 218.1 179.7 L 218.1 208.0 L 214.2 208.0 L 204.2 191.6 Q 203.1 189.7, 201.8 187.5 Q 200.6 185.3, 200.3 184.6 L 200.3 208.0 L 196.6 208.0 L 196.6 179.7 L 201.1 179.7 " fill="#0000FF"/>
<path class="atom-1" d="M 196.3 148.6 L 200.1 148.6 L 200.1 160.6 L 214.6 160.6 L 214.6 148.6 L 218.4 148.6 L 218.4 176.9 L 214.6 176.9 L 214.6 163.8 L 200.1 163.8 L 200.1 176.9 L 196.3 176.9 L 196.3 148.6 " fill="#0000FF"/>
<path class="atom-8" d="M 1124.4 323.4 L 1128.6 319.2 L 1123.0 318.1 L 1123.9 315.2 L 1129.0 317.8 L 1128.2 312.2 L 1131.2 312.2 L 1130.4 317.7 L 1135.6 315.3 L 1136.4 318.1 L 1130.8 319.1 L 1134.8 323.4 L 1132.4 325.1 L 1129.6 319.9 L 1126.8 325.1 L 1124.4 323.4 " fill="#191919"/>
<path class="atom-9" d="M 998.2 89.3 Q 998.2 82.5, 1001.6 78.7 Q 1004.9 74.9, 1011.2 74.9 Q 1017.5 74.9, 1020.9 78.7 Q 1024.2 82.5, 1024.2 89.3 Q 1024.2 96.1, 1020.8 100.1 Q 1017.4 103.9, 1011.2 103.9 Q 1005.0 103.9, 1001.6 100.1 Q 998.2 96.2, 998.2 89.3 M 1011.2 100.7 Q 1015.5 100.7, 1017.9 97.9 Q 1020.2 94.9, 1020.2 89.3 Q 1020.2 83.7, 1017.9 80.9 Q 1015.5 78.1, 1011.2 78.1 Q 1006.9 78.1, 1004.5 80.9 Q 1002.2 83.7, 1002.2 89.3 Q 1002.2 95.0, 1004.5 97.9 Q 1006.9 100.7, 1011.2 100.7 " fill="#FF0000"/>
<path class="bond-0 atom-0 atom-1" d="M 1056.6,485.6 L 994.8,525.1" style="fill:none;fill-rule:evenodd;stroke:#191919;stroke-width:2.0px;stroke-linecap:butt;stroke-linejoin:miter;stroke-opacity:1"/>
<path class="bond-0 atom-0 atom-1" d="M 994.8,525.1 L 933.1,564.6" style="fill:none;fill-rule:evenodd;stroke:#000000;stroke-width:2.0px;stroke-linecap:butt;stroke-linejoin:miter;stroke-opacity:1"/>
<path class="bond-1 atom-1 atom-2" d="M 921.4,558.5 L 924.6,628.6" style="fill:none;fill-rule:evenodd;stroke:#000000;stroke-width:2.0px;stroke-linecap:butt;stroke-linejoin:miter;stroke-opacity:1"/>
<path class="bond-1 atom-1 atom-2" d="M 924.6,628.6 L 927.7,698.8" style="fill:none;fill-rule:evenodd;stroke:#FF0000;stroke-width:2.0px;stroke-linecap:butt;stroke-linejoin:miter;stroke-opacity:1"/>
<path class="bond-1 atom-1 atom-2" d="M 944.3,557.4 L 947.5,627.6" style="fill:none;fill-rule:evenodd;stroke:#000000;stroke-width:2.0px;stroke-linecap:butt;stroke-linejoin:miter;stroke-opacity:1"/>
<path class="bond-1 atom-1 atom-2" d="M 947.5,627.6 L 950.7,697.7" style="fill:none;fill-rule:evenodd;stroke:#FF0000;stroke-width:2.0px;stroke-linecap:butt;stroke-linejoin:miter;stroke-opacity:1"/>
<path class="bond-2 atom-1 atom-3" d="M 933.1,564.6 L 797.1,494.1" style="fill:none;fill-rule:evenodd;stroke:#000000;stroke-width:2.0px;stroke-linecap:butt;stroke-linejoin:miter;stroke-opacity:1"/>
<path class="bond-3 atom-3 atom-4" d="M 797.1,494.1 L 668.1,576.6" style="fill:none;fill-rule:evenodd;stroke:#000000;stroke-width:2.0px;stroke-linecap:butt;stroke-linejoin:miter;stroke-opacity:1"/>
<path class="bond-4 atom-4 atom-5" d="M 668.1,576.6 L 532.0,506.1" style="fill:none;fill-rule:evenodd;stroke:#000000;stroke-width:2.0px;stroke-linecap:butt;stroke-linejoin:miter;stroke-opacity:1"/>
<path class="bond-5 atom-5 atom-6" d="M 532.0,506.1 L 403.0,588.7" style="fill:none;fill-rule:evenodd;stroke:#000000;stroke-width:2.0px;stroke-linecap:butt;stroke-linejoin:miter;stroke-opacity:1"/>
<path class="bond-6 atom-6 atom-7" d="M 403.0,588.7 L 267.0,518.2" style="fill:none;fill-rule:evenodd;stroke:#000000;stroke-width:2.0px;stroke-linecap:butt;stroke-linejoin:miter;stroke-opacity:1"/>
<path class="bond-7 atom-7 atom-8" d="M 267.0,518.2 L 211.5,553.7" style="fill:none;fill-rule:evenodd;stroke:#000000;stroke-width:2.0px;stroke-linecap:butt;stroke-linejoin:miter;stroke-opacity:1"/>
<path class="bond-7 atom-7 atom-8" d="M 211.5,553.7 L 156.0,589.2" style="fill:none;fill-rule:evenodd;stroke:#FF0000;stroke-width:2.0px;stroke-linecap:butt;stroke-linejoin:miter;stroke-opacity:1"/>
<path class="bond-7 atom-7 atom-8" d="M 268.2,544.7 L 223.8,573.1" style="fill:none;fill-rule:evenodd;stroke:#000000;stroke-width:2.0px;stroke-linecap:butt;stroke-linejoin:miter;stroke-opacity:1"/>
<path class="bond-7 atom-7 atom-8" d="M 223.8,573.1 L 168.3,608.6" style="fill:none;fill-rule:evenodd;stroke:#FF0000;stroke-width:2.0px;stroke-linecap:butt;stroke-linejoin:miter;stroke-opacity:1"/>
<path d="M 936.2,562.6 L 933.1,564.6 L 926.3,561.0" style="fill:none;stroke:#000000;stroke-width:2.0px;stroke-linecap:butt;stroke-linejoin:miter;stroke-opacity:1;"/>
<path d="M 803.9,497.6 L 797.1,494.1 L 790.7,498.2" style="fill:none;stroke:#000000;stroke-width:2.0px;stroke-linecap:butt;stroke-linejoin:miter;stroke-opacity:1;"/>
<path d="M 674.5,572.5 L 668.1,576.6 L 661.3,573.1" style="fill:none;stroke:#000000;stroke-width:2.0px;stroke-linecap:butt;stroke-linejoin:miter;stroke-opacity:1;"/>
<path d="M 538.8,509.7 L 532.0,506.1 L 525.6,510.3" style="fill:none;stroke:#000000;stroke-width:2.0px;stroke-linecap:butt;stroke-linejoin:miter;stroke-opacity:1;"/>
<path d="M 409.4,584.6 L 403.0,588.7 L 396.2,585.2" style="fill:none;stroke:#000000;stroke-width:2.0px;stroke-linecap:butt;stroke-linejoin:miter;stroke-opacity:1;"/>
<path d="M 273.8,521.7 L 267.0,518.2 L 264.2,520.0" style="fill:none;stroke:#000000;stroke-width:2.0px;stroke-linecap:butt;stroke-linejoin:miter;stroke-opacity:1;"/>
<path class="atom-0" d="M 1056.9 478.9 L 1061.0 474.6 L 1055.5 473.5 L 1056.3 470.7 L 1061.4 473.2 L 1060.7 467.7 L 1063.7 467.6 L 1062.9 473.2 L 1068.0 470.8 L 1068.9 473.5 L 1063.3 474.5 L 1067.3 478.8 L 1064.9 480.6 L 1062.1 475.3 L 1059.3 480.6 L 1056.9 478.9 " fill="#191919"/>
<path class="atom-2" d="M 927.1 717.7 Q 927.1 710.9, 930.5 707.1 Q 933.8 703.3, 940.1 703.3 Q 946.4 703.3, 949.7 707.1 Q 953.1 710.9, 953.1 717.7 Q 953.1 724.6, 949.7 728.5 Q 946.3 732.4, 940.1 732.4 Q 933.9 732.4, 930.5 728.5 Q 927.1 724.6, 927.1 717.7 M 940.1 729.2 Q 944.4 729.2, 946.7 726.3 Q 949.1 723.4, 949.1 717.7 Q 949.1 712.1, 946.7 709.3 Q 944.4 706.5, 940.1 706.5 Q 935.8 706.5, 933.4 709.3 Q 931.1 712.1, 931.1 717.7 Q 931.1 723.4, 933.4 726.3 Q 935.8 729.2, 940.1 729.2 " fill="#FF0000"/>
<path class="atom-8" d="M 131.1 610.5 Q 131.1 603.7, 134.5 599.9 Q 137.8 596.1, 144.1 596.1 Q 150.4 596.1, 153.7 599.9 Q 157.1 603.7, 157.1 610.5 Q 157.1 617.4, 153.7 621.3 Q 150.3 625.2, 144.1 625.2 Q 137.9 625.2, 134.5 621.3 Q 131.1 617.4, 131.1 610.5 M 144.1 622.0 Q 148.4 622.0, 150.7 619.1 Q 153.1 616.2, 153.1 610.5 Q 153.1 604.9, 150.7 602.1 Q 148.4 599.3, 144.1 599.3 Q 139.8 599.3, 137.4 602.1 Q 135.1 604.9, 135.1 610.5 Q 135.1 616.2, 137.4 619.1 Q 139.8 622.0, 144.1 622.0 " fill="#FF0000"/>
<path class="bond-0 atom-0 atom-1" d="M 346.4,1038.7 L 406.9,1003.8" style="fill:none;fill-rule:evenodd;stroke:#191919;stroke-width:2.0px;stroke-linecap:butt;stroke-linejoin:miter;stroke-opacity:1"/>
<path class="bond-0 atom-0 atom-1" d="M 406.9,1003.8 L 467.3,968.9" style="fill:none;fill-rule:evenodd;stroke:#000000;stroke-width:2.0px;stroke-linecap:butt;stroke-linejoin:miter;stroke-opacity:1"/>
<path class="bond-1 atom-1 atom-2" d="M 467.3,968.9 L 600.0,1045.5" style="fill:none;fill-rule:evenodd;stroke:#000000;stroke-width:2.0px;stroke-linecap:butt;stroke-linejoin:miter;stroke-opacity:1"/>
<path class="bond-2 atom-2 atom-3" d="M 600.0,1045.5 L 657.3,1012.4" style="fill:none;fill-rule:evenodd;stroke:#000000;stroke-width:2.0px;stroke-linecap:butt;stroke-linejoin:miter;stroke-opacity:1"/>
<path class="bond-2 atom-2 atom-3" d="M 657.3,1012.4 L 714.6,979.3" style="fill:none;fill-rule:evenodd;stroke:#FF0000;stroke-width:2.0px;stroke-linecap:butt;stroke-linejoin:miter;stroke-opacity:1"/>
<path class="bond-3 atom-3 atom-4" d="M 750.7,979.3 L 802.2,1009.0" style="fill:none;fill-rule:evenodd;stroke:#FF0000;stroke-width:2.0px;stroke-linecap:butt;stroke-linejoin:miter;stroke-opacity:1"/>
<path class="bond-3 atom-3 atom-4" d="M 802.2,1009.0 L 853.6,1038.7" style="fill:none;fill-rule:evenodd;stroke:#191919;stroke-width:2.0px;stroke-linecap:butt;stroke-linejoin:miter;stroke-opacity:1"/>
<path d="M 464.3,970.6 L 467.3,968.9 L 474.0,972.7" style="fill:none;stroke:#000000;stroke-width:2.0px;stroke-linecap:butt;stroke-linejoin:miter;stroke-opacity:1;"/>
<path d="M 593.4,1041.6 L 600.0,1045.5 L 602.9,1043.8" style="fill:none;stroke:#000000;stroke-width:2.0px;stroke-linecap:butt;stroke-linejoin:miter;stroke-opacity:1;"/>
<path class="atom-0" d="M 329.3 1042.3 L 333.5 1038.1 L 327.9 1036.9 L 328.8 1034.1 L 333.9 1036.7 L 333.1 1031.1 L 336.1 1031.1 L 335.3 1036.6 L 340.5 1034.2 L 341.3 1036.9 L 335.7 1038.0 L 339.7 1042.3 L 337.3 1044.0 L 334.5 1038.7 L 331.7 1044.0 L 329.3 1042.3 " fill="#191919"/>
<path class="atom-3" d="M 719.7 968.9 Q 719.7 962.1, 723.0 958.3 Q 726.4 954.5, 732.7 954.5 Q 739.0 954.5, 742.3 958.3 Q 745.7 962.1, 745.7 968.9 Q 745.7 975.8, 742.3 979.7 Q 738.9 983.6, 732.7 983.6 Q 726.4 983.6, 723.0 979.7 Q 719.7 975.9, 719.7 968.9 M 732.7 980.4 Q 737.0 980.4, 739.3 977.5 Q 741.7 974.6, 741.7 968.9 Q 741.7 963.4, 739.3 960.6 Q 737.0 957.7, 732.7 957.7 Q 728.4 957.7, 726.0 960.5 Q 723.7 963.3, 723.7 968.9 Q 723.7 974.7, 726.0 977.5 Q 728.4 980.4, 732.7 980.4 " fill="#FF0000"/>
<path class="atom-4" d="M 860.0 1042.3 L 864.2 1038.1 L 858.7 1036.9 L 859.5 1034.1 L 864.6 1036.7 L 863.9 1031.1 L 866.9 1031.1 L 866.0 1036.6 L 871.2 1034.2 L 872.1 1036.9 L 866.5 1038.0 L 870.5 1042.3 L 868.0 1044.0 L 865.3 1038.7 L 862.5 1044.0 L 860.0 1042.3 " fill="#191919"/>
</svg>