<svg xmlns="http://www.w3.org/2000/svg" xmlns:rdkit="http://www.rdkit.org/xml" xmlns:xlink="http://www.w3.org/1999/xlink" version="1.1" baseProfile="full" xml:space="preserve" width="1200px" height="1200px" viewBox="0 0 1200 1200">
<!-- END OF HEADER -->
<rect style="opacity:1.0;fill:#FFFFFF;stroke:none" width="1200.0" height="1200.0" x="0.0" y="0.0"> </rect>
<path class="bond-0 atom-0 atom-1" d="M 1056.6,85.6 L 994.8,125.1" style="fill:none;fill-rule:evenodd;stroke:#191919;stroke-width:2.0px;stroke-linecap:butt;stroke-linejoin:miter;stroke-opacity:1"/>
<path class="bond-0 atom-0 atom-1" d="M 994.8,125.1 L 933.1,164.6" style="fill:none;fill-rule:evenodd;stroke:#000000;stroke-width:2.0px;stroke-linecap:butt;stroke-linejoin:miter;stroke-opacity:1"/>
<path class="bond-1 atom-1 atom-2" d="M 921.4,158.5 L 924.6,228.6" style="fill:none;fill-rule:evenodd;stroke:#000000;stroke-width:2.0px;stroke-linecap:butt;stroke-linejoin:miter;stroke-opacity:1"/>
<path class="bond-1 atom-1 atom-2" d="M 924.6,228.6 L 927.7,298.8" style="fill:none;fill-rule:evenodd;stroke:#FF0000;stroke-width:2.0px;stroke-linecap:butt;stroke-linejoin:miter;stroke-opacity:1"/>
<path class="bond-1 atom-1 atom-2" d="M 944.3,157.4 L 947.5,227.6" style="fill:none;fill-rule:evenodd;stroke:#000000;stroke-width:2.0px;stroke-linecap:butt;stroke-linejoin:miter;stroke-opacity:1"/>
<path class="bond-1 atom-1 atom-2" d="M 947.5,227.6 L 950.7,297.7" style="fill:none;fill-rule:evenodd;stroke:#FF0000;stroke-width:2.0px;stroke-linecap:butt;stroke-linejoin:miter;stroke-opacity:1"/>
<path class="bond-2 atom-1 atom-3" d="M 933.1,164.6 L 797.1,94.1" style="fill:none;fill-rule:evenodd;stroke:#000000;stroke-width:2.0px;stroke-linecap:butt;stroke-linejoin:miter;stroke-opacity:1"/>
<path class="bond-3 atom-3 atom-4" d="M 797.1,94.1 L 668.1,176.6" style="fill:none;fill-rule:evenodd;stroke:#000000;stroke-width:2.0px;stroke-linecap:butt;stroke-linejoin:miter;stroke-opacity:1"/>
<path class="bond-4 atom-4 atom-5" d="M 668.1,176.6 L 532.0,106.1" style="fill:none;fill-rule:evenodd;stroke:#000000;stroke-width:2.0px;stroke-linecap:butt;stroke-linejoin:miter;stroke-opacity:1"/>
<path class="bond-5 atom-5 atom-6" d="M 532.0,106.1 L 403.0,188.7" style="fill:none;fill-rule:evenodd;stroke:#000000;stroke-width:2.0px;stroke-linecap:butt;stroke-linejoin:miter;stroke-opacity:1"/>
<path class="bond-6 atom-6 atom-7" d="M 403.0,188.7 L 267.0,118.2" style="fill:none;fill-rule:evenodd;stroke:#000000;stroke-width:2.0px;stroke-linecap:butt;stroke-linejoin:miter;stroke-opacity:1"/>
<path class="bond-7 atom-7 atom-8" d="M 267.0,118.2 L 211.5,153.7" style="fill:none;fill-rule:evenodd;stroke:#000000;stroke-width:2.0px;stroke-linecap:butt;stroke-linejoin:miter;stroke-opacity:1"/>
<path class="bond-7 atom-7 atom-8" d="M 211.5,153.7 L 156.0,189.2" style="fill:none;fill-rule:evenodd;stroke:#FF0000;stroke-width:2.0px;stroke-linecap:butt;stroke-linejoin:miter;stroke-opacity:1"/>
<path class="bond-7 atom-7 atom-8" d="M 268.2,144.7 L 223.8,173.1" style="fill:none;fill-rule:evenodd;stroke:#000000;stroke-width:2.0px;stroke-linecap:butt;stroke-linejoin:miter;stroke-opacity:1"/>
<path class="bond-7 atom-7 atom-8" d="M 223.8,173.1 L 168.3,208.6" style="fill:none;fill-rule:evenodd;stroke:#FF0000;stroke-width:2.0px;stroke-linecap:butt;stroke-linejoin:miter;stroke-opacity:1"/>
<path d="M 936.2,162.6 L 933.1,164.6 L 926.3,161.0" style="fill:none;stroke:#000000;stroke-width:2.0px;stroke-linecap:butt;stroke-linejoin:miter;stroke-opacity:1;"/>
<path d="M 803.9,97.6 L 797.1,94.1 L 790.7,98.2" style="fill:none;stroke:#000000;stroke-width:2.0px;stroke-linecap:butt;stroke-linejoin:miter;stroke-opacity:1;"/>
<path d="M 674.5,172.5 L 668.1,176.6 L 661.3,173.1" style="fill:none;stroke:#000000;stroke-width:2.0px;stroke-linecap:butt;stroke-linejoin:miter;stroke-opacity:1;"/>
<path d="M 538.8,109.7 L 532.0,106.1 L 525.6,110.3" style="fill:none;stroke:#000000;stroke-width:2.0px;stroke-linecap:butt;stroke-linejoin:miter;stroke-opacity:1;"/>
<path d="M 409.4,184.6 L 403.0,188.7 L 396.2,185.2" style="fill:none;stroke:#000000;stroke-width:2.0px;stroke-linecap:butt;stroke-linejoin:miter;stroke-opacity:1;"/>
<path d="M 273.8,121.7 L 267.0,118.2 L 264.2,120.0" style="fill:none;stroke:#000000;stroke-width:2.0px;stroke-linecap:butt;stroke-linejoin:miter;stroke-opacity:1;"/>
<path class="atom-0" d="M 1056.9 78.9 L 1061.0 74.6 L 1055.5 73.5 L 1056.3 70.7 L 1061.4 73.2 L 1060.7 67.7 L 1063.7 67.6 L 1062.9 73.2 L 1068.0 70.8 L 1068.9 73.5 L 1063.3 74.5 L 1067.3 78.8 L 1064.9 80.6 L 1062.1 75.3 L 1059.3 80.6 L 1056.9 78.9 " fill="#191919"/>
<path class="atom-2" d="M 927.1 317.7 Q 927.1 310.9, 930.5 307.1 Q 933.8 303.3, 940.1 303.3 Q 946.4 303.3, 949.7 307.1 Q 953.1 310.9, 953.1 317.7 Q 953.1 324.6, 949.7 328.5 Q 946.3 332.4, 940.1 332.4 Q 933.9 332.4, 930.5 328.5 Q 927.1 324.6, 927.1 317.7 M 940.1 329.2 Q 944.4 329.2, 946.7 326.3 Q 949.1 323.4, 949.1 317.7 Q 949.1 312.1, 946.7 309.3 Q 944.4 306.5, 940.1 306.5 Q 935.8 306.5, 933.4 309.3 Q 931.1 312.1, 931.1 317.7 Q 931.1 323.4, 933.4 326.3 Q 935.8 329.2, 940.1 329.2 " fill="#FF0000"/>
<path class="atom-8" d="M 131.1 210.5 Q 131.1 203.7, 134.5 199.9 Q 137.8 196.1, 144.1 196.1 Q 150.4 196.1, 153.7 199.9 Q 157.1 203.7, 157.1 210.5 Q 157.1 217.4, 153.7 221.3 Q 150.3 225.2, 144.1 225.2 Q 137.9 225.2, 134.5 221.3 Q 131.1 217.4, 131.1 210.5 M 144.1 222.0 Q 148.4 222.0, 150.7 219.1 Q 153.1 216.2, 153.1 210.5 Q 153.1 204.9, 150.7 202.1 Q 148.4 199.3, 144.1 199.3 Q 139.8 199.3, 137.4 202.1 Q 135.1 204.9, 135.1 210.5 Q 135.1 216.2, 137.4 219.1 Q 139.8 222.0, 144.1 222.0 " fill="#FF0000"/>
<path class="bond-0 atom-0 atom-1" d="M 82.0,656.4 L 136.8,629.1" style="fill:none;fill-rule:evenodd;stroke:#191919;stroke-width:2.0px;stroke-linecap:butt;stroke-linejoin:miter;stroke-opacity:1"/>
<path class="bond-0 atom-0 atom-1" d="M 136.8,629.1 L 191.5,601.8" style="fill:none;fill-rule:evenodd;stroke:#0000FF;stroke-width:2.0px;stroke-linecap:butt;stroke-linejoin:miter;stroke-opacity:1"/>
<path class="bond-1 atom-1 atom-2" d="M 223.1,604.3 L 279.1,641.3" style="fill:none;fill-rule:evenodd;stroke:#0000FF;stroke-width:2.0px;stroke-linecap:butt;stroke-linejoin:miter;stroke-opacity:1"/>
<path class="bond-1 atom-1 atom-2" d="M 279.1,641.3 L 335.1,678.4" style="fill:none;fill-rule:evenodd;stroke:#000000;stroke-width:2.0px;stroke-linecap:butt;stroke-linejoin:miter;stroke-opacity:1"/>
<path class="bond-2 atom-2 atom-3" d="M 335.1,678.4 L 472.2,609.9" style="fill:none;fill-rule:evenodd;stroke:#000000;stroke-width:2.0px;stroke-linecap:butt;stroke-linejoin:miter;stroke-opacity:1"/>
<path class="bond-3 atom-3 atom-4" d="M 472.2,609.9 L 600.0,694.4" style="fill:none;fill-rule:evenodd;stroke:#000000;stroke-width:2.0px;stroke-linecap:butt;stroke-linejoin:miter;stroke-opacity:1"/>
<path class="bond-4 atom-4 atom-5" d="M 600.0,694.4 L 737.1,626.0" style="fill:none;fill-rule:evenodd;stroke:#000000;stroke-width:2.0px;stroke-linecap:butt;stroke-linejoin:miter;stroke-opacity:1"/>
<path class="bond-5 atom-5 atom-6" d="M 737.1,626.0 L 864.9,710.5" style="fill:none;fill-rule:evenodd;stroke:#000000;stroke-width:2.0px;stroke-linecap:butt;stroke-linejoin:miter;stroke-opacity:1"/>
<path class="bond-6 atom-6 atom-7" d="M 864.9,710.5 L 1001.9,642.1" style="fill:none;fill-rule:evenodd;stroke:#000000;stroke-width:2.0px;stroke-linecap:butt;stroke-linejoin:miter;stroke-opacity:1"/>
<path class="bond-7 atom-7 atom-8" d="M 1001.9,642.1 L 1060.0,680.5" style="fill:none;fill-rule:evenodd;stroke:#000000;stroke-width:2.0px;stroke-linecap:butt;stroke-linejoin:miter;stroke-opacity:1"/>
<path class="bond-7 atom-7 atom-8" d="M 1060.0,680.5 L 1118.0,718.8" style="fill:none;fill-rule:evenodd;stroke:#191919;stroke-width:2.0px;stroke-linecap:butt;stroke-linejoin:miter;stroke-opacity:1"/>
<path class="bond-8 atom-7 atom-9" d="M 1013.0,649.4 L 1017.2,579.5" style="fill:none;fill-rule:evenodd;stroke:#000000;stroke-width:2.0px;stroke-linecap:butt;stroke-linejoin:miter;stroke-opacity:1"/>
<path class="bond-8 atom-7 atom-9" d="M 1017.2,579.5 L 1021.5,509.7" style="fill:none;fill-rule:evenodd;stroke:#FF0000;stroke-width:2.0px;stroke-linecap:butt;stroke-linejoin:miter;stroke-opacity:1"/>
<path class="bond-8 atom-7 atom-9" d="M 990.1,648.0 L 994.3,578.2" style="fill:none;fill-rule:evenodd;stroke:#000000;stroke-width:2.0px;stroke-linecap:butt;stroke-linejoin:miter;stroke-opacity:1"/>
<path class="bond-8 atom-7 atom-9" d="M 994.3,578.2 L 998.6,508.3" style="fill:none;fill-rule:evenodd;stroke:#FF0000;stroke-width:2.0px;stroke-linecap:butt;stroke-linejoin:miter;stroke-opacity:1"/>
<path d="M 332.3,676.5 L 335.1,678.4 L 342.0,674.9" style="fill:none;stroke:#000000;stroke-width:2.0px;stroke-linecap:butt;stroke-linejoin:miter;stroke-opacity:1;"/>
<path d="M 465.4,613.4 L 472.2,609.9 L 478.6,614.2" style="fill:none;stroke:#000000;stroke-width:2.0px;stroke-linecap:butt;stroke-linejoin:miter;stroke-opacity:1;"/>
<path d="M 593.6,690.2 L 600.0,694.4 L 606.9,691.0" style="fill:none;stroke:#000000;stroke-width:2.0px;stroke-linecap:butt;stroke-linejoin:miter;stroke-opacity:1;"/>
<path d="M 730.2,629.4 L 737.1,626.0 L 743.5,630.2" style="fill:none;stroke:#000000;stroke-width:2.0px;stroke-linecap:butt;stroke-linejoin:miter;stroke-opacity:1;"/>
<path d="M 858.5,706.3 L 864.9,710.5 L 871.7,707.1" style="fill:none;stroke:#000000;stroke-width:2.0px;stroke-linecap:butt;stroke-linejoin:miter;stroke-opacity:1;"/>
<path d="M 995.1,645.5 L 1001.9,642.1 L 1004.8,644.0" style="fill:none;stroke:#000000;stroke-width:2.0px;stroke-linecap:butt;stroke-linejoin:miter;stroke-opacity:1;"/>
<path class="atom-0" d="M 64.9 659.1 L 69.1 654.9 L 63.6 653.8 L 64.4 650.9 L 69.5 653.5 L 68.8 647.9 L 71.8 647.9 L 70.9 653.5 L 76.1 651.1 L 77.0 653.8 L 71.4 654.8 L 75.4 659.1 L 72.9 660.9 L 70.2 655.6 L 67.4 660.9 L 64.9 659.1 " fill="#191919"/>
<path class="atom-1" d="M 201.1 579.7 L 210.4 594.7 Q 211.3 596.2, 212.8 598.9 Q 214.2 601.5, 214.3 601.7 L 214.3 579.7 L 218.1 579.7 L 218.1 608.0 L 214.2 608.0 L 204.2 591.6 Q 203.1 589.7, 201.8 587.5 Q 200.6 585.3, 200.3 584.6 L 200.3 608.0 L 196.6 608.0 L 196.6 579.7 L 201.1 579.7 " fill="#0000FF"/>
<path class="atom-1" d="M 196.3 548.6 L 200.1 548.6 L 200.1 560.6 L 214.6 560.6 L 214.6 548.6 L 218.4 548.6 L 218.4 576.9 L 214.6 576.9 L 214.6 563.8 L 200.1 563.8 L 200.1 576.9 L 196.3 576.9 L 196.3 548.6 " fill="#0000FF"/>
<path class="atom-8" d="M 1124.4 723.4 L 1128.6 719.2 L 1123.0 718.1 L 1123.9 715.2 L 1129.0 717.8 L 1128.2 712.2 L 1131.2 712.2 L 1130.4 717.7 L 1135.6 715.3 L 1136.4 718.1 L 1130.8 719.1 L 1134.8 723.4 L 1132.4 725.1 L 1129.6 719.9 L 1126.8 725.1 L 1124.4 723.4 " fill="#191919"/>
<path class="atom-9" d="M 998.2 489.3 Q 998.2 482.5, 1001.6 478.7 Q 1004.9 474.9, 1011.2 474.9 Q 1017.5 474.9, 1020.9 478.7 Q 1024.2 482.5, 1024.2 489.3 Q 1024.2 496.1, 1020.8 500.1 Q 1017.4 503.9, 1011.2 503.9 Q 1005.0 503.9, 1001.6 500.1 Q 998.2 496.2, 998.2 489.3 M 1011.2 500.7 Q 1015.5 500.7, 1017.9 497.9 Q 1020.2 494.9, 1020.2 489.3 Q 1020.2 483.7, 1017.9 480.9 Q 1015.5 478.1, 1011.2 478.1 Q 1006.9 478.1, 1004.5 480.9 Q 1002.2 483.7, 1002.2 489.3 Q 1002.2 495.0, 1004.5 497.9 Q 1006.9 500.7, 1011.2 500.7 " fill="#FF0000"/>
<path class="bond-0 atom-0 atom-1" d="M 346.4,1038.7 L 406.9,1003.8" style="fill:none;fill-rule:evenodd;stroke:#191919;stroke-width:2.0px;stroke-linecap:butt;stroke-linejoin:miter;stroke-opacity:1"/>
<path class="bond-0 atom-0 atom-1" d="M 406.9,1003.8 L 467.3,968.9" style="fill:none;fill-rule:evenodd;stroke:#000000;stroke-width:2.0px;stroke-linecap:butt;stroke-linejoin:miter;stroke-opacity:1"/>
<path class="bond-1 atom-1 atom-2" d="M 467.3,968.9 L 600.0,1045.5" style="fill:none;fill-rule:evenodd;stroke:#000000;stroke-width:2.0px;stroke-linecap:butt;stroke-linejoin:miter;stroke-opacity:1"/>
<path class="bond-2 atom-2 atom-3" d="M 600.0,1045.5 L 657.3,1012.4" style="fill:none;fill-rule:evenodd;stroke:#000000;stroke-width:2.0px;stroke-linecap:butt;stroke-linejoin:miter;stroke-opacity:1"/>
<path class="bond-2 atom-2 atom-3" d="M 657.3,1012.4 L 714.6,979.3" style="fill:none;fill-rule:evenodd;stroke:#FF0000;stroke-width:2.0px;stroke-linecap:butt;stroke-linejoin:miter;stroke-opacity:1"/>
<path class="bond-3 atom-3 atom-4" d="M 750.7,979.3 L 802.2,1009.0" style="fill:none;fill-rule:evenodd;stroke:#FF0000;stroke-width:2.0px;stroke-linecap:butt;stroke-linejoin:miter;stroke-opacity:1"/>
<path class="bond-3 atom-3 atom-4" d="M 802.2,1009.0 L 853.6,1038.7" style="fill:none;fill-rule:evenodd;stroke:#191919;stroke-width:2.0px;stroke-linecap:butt;stroke-linejoin:miter;stroke-opacity:1"/>
<path d="M 464.3,970.6 L 467.3,968.9 L 474.0,972.7" style="fill:none;stroke:#000000;stroke-width:2.0px;stroke-linecap:butt;stroke-linejoin:miter;stroke-opacity:1;"/>
<path d="M 593.4,1041.6 L 600.0,1045.5 L 602.9,1043.8" style="fill:none;stroke:#000000;stroke-width:2.0px;stroke-linecap:butt;stroke-linejoin:miter;stroke-opacity:1;"/>
<path class="atom-0" d="M 329.3 1042.3 L 333.5 1038.1 L 327.9 1036.9 L 328.8 1034.1 L 333.9 1036.7 L 333.1 1031.1 L 336.1 1031.1 L 335.3 1036.6 L 340.5 1034.2 L 341.3 1036.9 L 335.7 1038.0 L 339.7 1042.3 L 337.3 1044.0 L 334.5 1038.7 L 331.7 1044.0 L 329.3 1042.3 " fill="#191919"/>
<path class="atom-3" d="M 719.7 968.9 Q 719.7 962.1, 723.0 958.3 Q 726.4 954.5, 732.7 954.5 Q 739.0 954.5, 742.3 958.3 Q 745.7 962.1, 745.7 968.9 Q 745.7 975.8, 742.3 979.7 Q 738.9 983.6, 732.7 983.6 Q 726.4 983.6, 723.0 979.7 Q 719.7 975.9, 719.7 968.9 M 732.7 980.4 Q 737.0 980.4, 739.3 977.5 Q 741.7 974.6, 741.7 968.9 Q 741.7 963.4, 739.3 960.6 Q 737.0 957.7, 732.7 957.7 Q 728.4 957.7, 726.0 960.5 Q 723.7 963.3, 723.7 968.9 Q 723.7 974.7, 726.0 977.5 Q 728.4 980.4, 732.7 980.4 " fill="#FF0000"/>
<path class="atom-4" d="M 860.0 1042.3 L 864.2 1038.1 L 858.7 1036.9 L 859.5 1034.1 L 864.6 1036.7 L 863.9 1031.1 L 866.9 1031.1 L 866.0 1036.6 L 871.2 1034.2 L 872.1 1036.9 L 866.5 1038.0 L 870.5 1042.3 L 868.0 1044.0 L 865.3 1038.7 L 862.5 1044.0 L 860.0 1042.3 " fill="#191919"/>
</svg>