<svg xmlns="http://www.w3.org/2000/svg" xmlns:rdkit="http://www.rdkit.org/xml" xmlns:xlink="http://www.w3.org/1999/xlink" version="1.1" baseProfile="full" xml:space="preserve" width="1200px" height="1200px" viewBox="0 0 1200 1200">
<!-- END OF HEADER -->
<rect style="opacity:1.0;fill:#FFFFFF;stroke:none" width="1200.0" height="1200.0" x="0.0" y="0.0"> </rect>
<path class="bond-0 atom-0 atom-1" d="M 108.7,156.0 L 138.4,145.0" style="fill:none;fill-rule:evenodd;stroke:#191919;stroke-width:2.0px;stroke-linecap:butt;stroke-linejoin:miter;stroke-opacity:1"/>
<path class="bond-0 atom-0 atom-1" d="M 138.4,145.0 L 168.1,133.9" style="fill:none;fill-rule:evenodd;stroke:#FF0000;stroke-width:2.0px;stroke-linecap:butt;stroke-linejoin:miter;stroke-opacity:1"/>
<path class="bond-1 atom-1 atom-2" d="M 196.8,140.5 L 223.6,162.6" style="fill:none;fill-rule:evenodd;stroke:#FF0000;stroke-width:2.0px;stroke-linecap:butt;stroke-linejoin:miter;stroke-opacity:1"/>
<path class="bond-1 atom-1 atom-2" d="M 223.6,162.6 L 250.3,184.8" style="fill:none;fill-rule:evenodd;stroke:#000000;stroke-width:2.0px;stroke-linecap:butt;stroke-linejoin:miter;stroke-opacity:1"/>
<path class="bond-2 atom-2 atom-3" d="M 250.3,184.8 L 332.9,154.1" style="fill:none;fill-rule:evenodd;stroke:#000000;stroke-width:2.0px;stroke-linecap:butt;stroke-linejoin:miter;stroke-opacity:1"/>
<path class="bond-3 atom-3 atom-4" d="M 332.9,154.1 L 400.8,210.2" style="fill:none;fill-rule:evenodd;stroke:#000000;stroke-width:2.0px;stroke-linecap:butt;stroke-linejoin:miter;stroke-opacity:1"/>
<path class="bond-4 atom-4 atom-5" d="M 400.8,210.2 L 483.4,179.5" style="fill:none;fill-rule:evenodd;stroke:#000000;stroke-width:2.0px;stroke-linecap:butt;stroke-linejoin:miter;stroke-opacity:1"/>
<path class="bond-5 atom-5 atom-6" d="M 483.4,179.5 L 551.3,235.7" style="fill:none;fill-rule:evenodd;stroke:#000000;stroke-width:2.0px;stroke-linecap:butt;stroke-linejoin:miter;stroke-opacity:1"/>
<path class="bond-6 atom-6 atom-7" d="M 551.3,235.7 L 585.5,223.0" style="fill:none;fill-rule:evenodd;stroke:#000000;stroke-width:2.0px;stroke-linecap:butt;stroke-linejoin:miter;stroke-opacity:1"/>
<path class="bond-6 atom-6 atom-7" d="M 585.5,223.0 L 619.6,210.4" style="fill:none;fill-rule:evenodd;stroke:#FF0000;stroke-width:2.0px;stroke-linecap:butt;stroke-linejoin:miter;stroke-opacity:1"/>
<path class="bond-7 atom-7 atom-8" d="M 648.3,216.9 L 675.1,239.1" style="fill:none;fill-rule:evenodd;stroke:#FF0000;stroke-width:2.0px;stroke-linecap:butt;stroke-linejoin:miter;stroke-opacity:1"/>
<path class="bond-7 atom-7 atom-8" d="M 675.1,239.1 L 701.8,261.2" style="fill:none;fill-rule:evenodd;stroke:#000000;stroke-width:2.0px;stroke-linecap:butt;stroke-linejoin:miter;stroke-opacity:1"/>
<path class="bond-8 atom-8 atom-9" d="M 696.0,256.3 L 689.6,293.9" style="fill:none;fill-rule:evenodd;stroke:#000000;stroke-width:2.0px;stroke-linecap:butt;stroke-linejoin:miter;stroke-opacity:1"/>
<path class="bond-8 atom-8 atom-9" d="M 689.6,293.9 L 683.2,331.5" style="fill:none;fill-rule:evenodd;stroke:#FF0000;stroke-width:2.0px;stroke-linecap:butt;stroke-linejoin:miter;stroke-opacity:1"/>
<path class="bond-8 atom-8 atom-9" d="M 709.0,258.6 L 702.6,296.1" style="fill:none;fill-rule:evenodd;stroke:#000000;stroke-width:2.0px;stroke-linecap:butt;stroke-linejoin:miter;stroke-opacity:1"/>
<path class="bond-8 atom-8 atom-9" d="M 702.6,296.1 L 696.3,333.7" style="fill:none;fill-rule:evenodd;stroke:#FF0000;stroke-width:2.0px;stroke-linecap:butt;stroke-linejoin:miter;stroke-opacity:1"/>
<path class="bond-9 atom-8 atom-10" d="M 701.8,261.2 L 784.4,230.5" style="fill:none;fill-rule:evenodd;stroke:#000000;stroke-width:2.0px;stroke-linecap:butt;stroke-linejoin:miter;stroke-opacity:1"/>
<path class="bond-10 atom-10 atom-11" d="M 784.4,230.5 L 799.2,143.6" style="fill:none;fill-rule:evenodd;stroke:#000000;stroke-width:2.0px;stroke-linecap:butt;stroke-linejoin:miter;stroke-opacity:1"/>
<path class="bond-10 atom-10 atom-11" d="M 798.8,225.2 L 810.9,153.4" style="fill:none;fill-rule:evenodd;stroke:#000000;stroke-width:2.0px;stroke-linecap:butt;stroke-linejoin:miter;stroke-opacity:1"/>
<path class="bond-11 atom-11 atom-12" d="M 799.2,143.6 L 881.8,112.9" style="fill:none;fill-rule:evenodd;stroke:#000000;stroke-width:2.0px;stroke-linecap:butt;stroke-linejoin:miter;stroke-opacity:1"/>
<path class="bond-12 atom-12 atom-13" d="M 881.8,112.9 L 949.7,169.1" style="fill:none;fill-rule:evenodd;stroke:#000000;stroke-width:2.0px;stroke-linecap:butt;stroke-linejoin:miter;stroke-opacity:1"/>
<path class="bond-12 atom-12 atom-13" d="M 879.2,128.0 L 935.4,174.4" style="fill:none;fill-rule:evenodd;stroke:#000000;stroke-width:2.0px;stroke-linecap:butt;stroke-linejoin:miter;stroke-opacity:1"/>
<path class="bond-13 atom-13 atom-14" d="M 949.7,169.1 L 1032.3,138.4" style="fill:none;fill-rule:evenodd;stroke:#000000;stroke-width:2.0px;stroke-linecap:butt;stroke-linejoin:miter;stroke-opacity:1"/>
<path class="bond-14 atom-14 atom-15" d="M 1032.3,138.4 L 1061.8,162.8" style="fill:none;fill-rule:evenodd;stroke:#000000;stroke-width:2.0px;stroke-linecap:butt;stroke-linejoin:miter;stroke-opacity:1"/>
<path class="bond-14 atom-14 atom-15" d="M 1061.8,162.8 L 1091.3,187.3" style="fill:none;fill-rule:evenodd;stroke:#191919;stroke-width:2.0px;stroke-linecap:butt;stroke-linejoin:miter;stroke-opacity:1"/>
<path class="bond-15 atom-14 atom-16" d="M 1038.1,143.3 L 1044.5,105.9" style="fill:none;fill-rule:evenodd;stroke:#000000;stroke-width:2.0px;stroke-linecap:butt;stroke-linejoin:miter;stroke-opacity:1"/>
<path class="bond-15 atom-14 atom-16" d="M 1044.5,105.9 L 1050.8,68.5" style="fill:none;fill-rule:evenodd;stroke:#FF0000;stroke-width:2.0px;stroke-linecap:butt;stroke-linejoin:miter;stroke-opacity:1"/>
<path class="bond-15 atom-14 atom-16" d="M 1025.1,141.1 L 1031.4,103.7" style="fill:none;fill-rule:evenodd;stroke:#000000;stroke-width:2.0px;stroke-linecap:butt;stroke-linejoin:miter;stroke-opacity:1"/>
<path class="bond-15 atom-14 atom-16" d="M 1031.4,103.7 L 1037.8,66.3" style="fill:none;fill-rule:evenodd;stroke:#FF0000;stroke-width:2.0px;stroke-linecap:butt;stroke-linejoin:miter;stroke-opacity:1"/>
<path class="bond-16 atom-13 atom-17" d="M 949.7,169.1 L 934.9,256.0" style="fill:none;fill-rule:evenodd;stroke:#000000;stroke-width:2.0px;stroke-linecap:butt;stroke-linejoin:miter;stroke-opacity:1"/>
<path class="bond-17 atom-17 atom-18" d="M 934.9,256.0 L 852.3,286.7" style="fill:none;fill-rule:evenodd;stroke:#000000;stroke-width:2.0px;stroke-linecap:butt;stroke-linejoin:miter;stroke-opacity:1"/>
<path class="bond-17 atom-17 atom-18" d="M 923.2,246.3 L 854.9,271.6" style="fill:none;fill-rule:evenodd;stroke:#000000;stroke-width:2.0px;stroke-linecap:butt;stroke-linejoin:miter;stroke-opacity:1"/>
<path class="bond-18 atom-18 atom-10" d="M 852.3,286.7 L 784.4,230.5" style="fill:none;fill-rule:evenodd;stroke:#000000;stroke-width:2.0px;stroke-linecap:butt;stroke-linejoin:miter;stroke-opacity:1"/>
<path d="M 249.0,183.7 L 250.3,184.8 L 254.5,183.2" style="fill:none;stroke:#000000;stroke-width:2.0px;stroke-linecap:butt;stroke-linejoin:miter;stroke-opacity:1;"/>
<path d="M 328.8,155.6 L 332.9,154.1 L 336.3,156.9" style="fill:none;stroke:#000000;stroke-width:2.0px;stroke-linecap:butt;stroke-linejoin:miter;stroke-opacity:1;"/>
<path d="M 397.4,207.4 L 400.8,210.2 L 405.0,208.7" style="fill:none;stroke:#000000;stroke-width:2.0px;stroke-linecap:butt;stroke-linejoin:miter;stroke-opacity:1;"/>
<path d="M 479.3,181.1 L 483.4,179.5 L 486.8,182.4" style="fill:none;stroke:#000000;stroke-width:2.0px;stroke-linecap:butt;stroke-linejoin:miter;stroke-opacity:1;"/>
<path d="M 547.9,232.9 L 551.3,235.7 L 553.0,235.1" style="fill:none;stroke:#000000;stroke-width:2.0px;stroke-linecap:butt;stroke-linejoin:miter;stroke-opacity:1;"/>
<path d="M 700.5,260.1 L 701.8,261.2 L 706.0,259.7" style="fill:none;stroke:#000000;stroke-width:2.0px;stroke-linecap:butt;stroke-linejoin:miter;stroke-opacity:1;"/>
<path d="M 798.4,148.0 L 799.2,143.6 L 803.3,142.1" style="fill:none;stroke:#000000;stroke-width:2.0px;stroke-linecap:butt;stroke-linejoin:miter;stroke-opacity:1;"/>
<path d="M 877.6,114.5 L 881.8,112.9 L 885.2,115.7" style="fill:none;stroke:#000000;stroke-width:2.0px;stroke-linecap:butt;stroke-linejoin:miter;stroke-opacity:1;"/>
<path d="M 1028.1,139.9 L 1032.3,138.4 L 1033.7,139.6" style="fill:none;stroke:#000000;stroke-width:2.0px;stroke-linecap:butt;stroke-linejoin:miter;stroke-opacity:1;"/>
<path d="M 935.7,251.6 L 934.9,256.0 L 930.8,257.5" style="fill:none;stroke:#000000;stroke-width:2.0px;stroke-linecap:butt;stroke-linejoin:miter;stroke-opacity:1;"/>
<path d="M 856.5,285.2 L 852.3,286.7 L 848.9,283.9" style="fill:none;stroke:#000000;stroke-width:2.0px;stroke-linecap:butt;stroke-linejoin:miter;stroke-opacity:1;"/>
<path class="atom-0" d="M 95.1 156.5 L 98.8 152.8 L 93.9 151.8 L 94.7 149.3 L 99.2 151.5 L 98.5 146.6 L 101.2 146.6 L 100.4 151.5 L 105.0 149.4 L 105.7 151.8 L 100.8 152.7 L 104.3 156.5 L 102.2 158.0 L 99.8 153.4 L 97.3 158.0 L 95.1 156.5 " fill="#191919"/>
<path class="atom-1" d="M 171.0 128.6 Q 171.0 122.7, 174.0 119.3 Q 176.9 116.0, 182.4 116.0 Q 188.0 116.0, 190.9 119.3 Q 193.9 122.7, 193.9 128.6 Q 193.9 134.7, 190.9 138.2 Q 187.9 141.6, 182.4 141.6 Q 176.9 141.6, 174.0 138.2 Q 171.0 134.7, 171.0 128.6 M 182.4 138.8 Q 186.3 138.8, 188.3 136.2 Q 190.4 133.7, 190.4 128.6 Q 190.4 123.7, 188.3 121.3 Q 186.3 118.8, 182.4 118.8 Q 178.6 118.8, 176.6 121.2 Q 174.5 123.7, 174.5 128.6 Q 174.5 133.7, 176.6 136.2 Q 178.6 138.8, 182.4 138.8 " fill="#FF0000"/>
<path class="atom-7" d="M 622.5 205.1 Q 622.5 199.1, 625.5 195.8 Q 628.4 192.4, 633.9 192.4 Q 639.5 192.4, 642.4 195.8 Q 645.4 199.1, 645.4 205.1 Q 645.4 211.2, 642.4 214.6 Q 639.4 218.0, 633.9 218.0 Q 628.4 218.0, 625.5 214.6 Q 622.5 211.2, 622.5 205.1 M 633.9 215.2 Q 637.8 215.2, 639.8 212.7 Q 641.9 210.1, 641.9 205.1 Q 641.9 200.2, 639.8 197.7 Q 637.8 195.2, 633.9 195.2 Q 630.1 195.2, 628.1 197.7 Q 626.0 200.2, 626.0 205.1 Q 626.0 210.1, 628.1 212.7 Q 630.1 215.2, 633.9 215.2 " fill="#FF0000"/>
<path class="atom-9" d="M 675.7 348.2 Q 675.7 342.2, 678.6 338.8 Q 681.6 335.5, 687.1 335.5 Q 692.7 335.5, 695.6 338.8 Q 698.6 342.2, 698.6 348.2 Q 698.6 354.2, 695.6 357.7 Q 692.6 361.1, 687.1 361.1 Q 681.6 361.1, 678.6 357.7 Q 675.7 354.3, 675.7 348.2 M 687.1 358.3 Q 690.9 358.3, 693.0 355.8 Q 695.1 353.2, 695.1 348.2 Q 695.1 343.3, 693.0 340.8 Q 690.9 338.3, 687.1 338.3 Q 683.3 338.3, 681.2 340.8 Q 679.2 343.2, 679.2 348.2 Q 679.2 353.2, 681.2 355.8 Q 683.3 358.3, 687.1 358.3 " fill="#FF0000"/>
<path class="atom-15" d="M 1095.5 191.8 L 1099.1 188.1 L 1094.3 187.1 L 1095.0 184.6 L 1099.5 186.8 L 1098.8 181.9 L 1101.5 181.9 L 1100.7 186.8 L 1105.3 184.7 L 1106.1 187.1 L 1101.1 188.0 L 1104.7 191.8 L 1102.5 193.3 L 1100.1 188.7 L 1097.6 193.3 L 1095.5 191.8 " fill="#191919"/>
<path class="atom-16" d="M 1035.5 51.6 Q 1035.5 45.6, 1038.5 42.2 Q 1041.4 38.9, 1047.0 38.9 Q 1052.5 38.9, 1055.5 42.2 Q 1058.4 45.6, 1058.4 51.6 Q 1058.4 57.6, 1055.4 61.1 Q 1052.4 64.5, 1047.0 64.5 Q 1041.5 64.5, 1038.5 61.1 Q 1035.5 57.7, 1035.5 51.6 M 1047.0 61.7 Q 1050.8 61.7, 1052.8 59.2 Q 1054.9 56.6, 1054.9 51.6 Q 1054.9 46.7, 1052.8 44.2 Q 1050.8 41.7, 1047.0 41.7 Q 1043.2 41.7, 1041.1 44.2 Q 1039.0 46.6, 1039.0 51.6 Q 1039.0 56.6, 1041.1 59.2 Q 1043.2 61.7, 1047.0 61.7 " fill="#FF0000"/>
<path class="bond-0 atom-0 atom-1" d="M 74.7,598.0 L 101.8,583.2" style="fill:none;fill-rule:evenodd;stroke:#191919;stroke-width:2.0px;stroke-linecap:butt;stroke-linejoin:miter;stroke-opacity:1"/>
<path class="bond-0 atom-0 atom-1" d="M 101.8,583.2 L 128.9,568.4" style="fill:none;fill-rule:evenodd;stroke:#FF0000;stroke-width:2.0px;stroke-linecap:butt;stroke-linejoin:miter;stroke-opacity:1"/>
<path class="bond-1 atom-1 atom-2" d="M 157.6,569.3 L 188.1,587.9" style="fill:none;fill-rule:evenodd;stroke:#FF0000;stroke-width:2.0px;stroke-linecap:butt;stroke-linejoin:miter;stroke-opacity:1"/>
<path class="bond-1 atom-1 atom-2" d="M 188.1,587.9 L 218.5,606.4" style="fill:none;fill-rule:evenodd;stroke:#000000;stroke-width:2.0px;stroke-linecap:butt;stroke-linejoin:miter;stroke-opacity:1"/>
<path class="bond-2 atom-2 atom-3" d="M 218.5,606.4 L 295.8,564.2" style="fill:none;fill-rule:evenodd;stroke:#000000;stroke-width:2.0px;stroke-linecap:butt;stroke-linejoin:miter;stroke-opacity:1"/>
<path class="bond-3 atom-3 atom-4" d="M 295.8,564.2 L 371.1,610.1" style="fill:none;fill-rule:evenodd;stroke:#000000;stroke-width:2.0px;stroke-linecap:butt;stroke-linejoin:miter;stroke-opacity:1"/>
<path class="bond-4 atom-4 atom-5" d="M 371.1,610.1 L 448.4,567.8" style="fill:none;fill-rule:evenodd;stroke:#000000;stroke-width:2.0px;stroke-linecap:butt;stroke-linejoin:miter;stroke-opacity:1"/>
<path class="bond-5 atom-5 atom-6" d="M 448.4,567.8 L 523.7,613.7" style="fill:none;fill-rule:evenodd;stroke:#000000;stroke-width:2.0px;stroke-linecap:butt;stroke-linejoin:miter;stroke-opacity:1"/>
<path class="bond-6 atom-6 atom-7" d="M 523.7,613.7 L 555.2,596.5" style="fill:none;fill-rule:evenodd;stroke:#000000;stroke-width:2.0px;stroke-linecap:butt;stroke-linejoin:miter;stroke-opacity:1"/>
<path class="bond-6 atom-6 atom-7" d="M 555.2,596.5 L 586.7,579.3" style="fill:none;fill-rule:evenodd;stroke:#FF0000;stroke-width:2.0px;stroke-linecap:butt;stroke-linejoin:miter;stroke-opacity:1"/>
<path class="bond-7 atom-7 atom-8" d="M 615.4,580.2 L 645.9,598.7" style="fill:none;fill-rule:evenodd;stroke:#FF0000;stroke-width:2.0px;stroke-linecap:butt;stroke-linejoin:miter;stroke-opacity:1"/>
<path class="bond-7 atom-7 atom-8" d="M 645.9,598.7 L 676.3,617.3" style="fill:none;fill-rule:evenodd;stroke:#000000;stroke-width:2.0px;stroke-linecap:butt;stroke-linejoin:miter;stroke-opacity:1"/>
<path class="bond-8 atom-8 atom-9" d="M 669.8,613.3 L 668.9,651.5" style="fill:none;fill-rule:evenodd;stroke:#000000;stroke-width:2.0px;stroke-linecap:butt;stroke-linejoin:miter;stroke-opacity:1"/>
<path class="bond-8 atom-8 atom-9" d="M 668.9,651.5 L 668.0,689.7" style="fill:none;fill-rule:evenodd;stroke:#FF0000;stroke-width:2.0px;stroke-linecap:butt;stroke-linejoin:miter;stroke-opacity:1"/>
<path class="bond-8 atom-8 atom-9" d="M 683.0,613.6 L 682.1,651.8" style="fill:none;fill-rule:evenodd;stroke:#000000;stroke-width:2.0px;stroke-linecap:butt;stroke-linejoin:miter;stroke-opacity:1"/>
<path class="bond-8 atom-8 atom-9" d="M 682.1,651.8 L 681.2,690.0" style="fill:none;fill-rule:evenodd;stroke:#FF0000;stroke-width:2.0px;stroke-linecap:butt;stroke-linejoin:miter;stroke-opacity:1"/>
<path class="bond-9 atom-8 atom-10" d="M 676.3,617.3 L 753.6,575.1" style="fill:none;fill-rule:evenodd;stroke:#000000;stroke-width:2.0px;stroke-linecap:butt;stroke-linejoin:miter;stroke-opacity:1"/>
<path class="bond-10 atom-10 atom-11" d="M 753.6,575.1 L 828.9,620.9" style="fill:none;fill-rule:evenodd;stroke:#000000;stroke-width:2.0px;stroke-linecap:butt;stroke-linejoin:miter;stroke-opacity:1"/>
<path class="bond-11 atom-11 atom-12" d="M 828.9,620.9 L 906.2,578.7" style="fill:none;fill-rule:evenodd;stroke:#000000;stroke-width:2.0px;stroke-linecap:butt;stroke-linejoin:miter;stroke-opacity:1"/>
<path class="bond-12 atom-12 atom-13" d="M 906.2,578.7 L 981.5,624.5" style="fill:none;fill-rule:evenodd;stroke:#000000;stroke-width:2.0px;stroke-linecap:butt;stroke-linejoin:miter;stroke-opacity:1"/>
<path class="bond-13 atom-13 atom-14" d="M 981.5,624.5 L 1058.8,582.3" style="fill:none;fill-rule:evenodd;stroke:#000000;stroke-width:2.0px;stroke-linecap:butt;stroke-linejoin:miter;stroke-opacity:1"/>
<path class="bond-14 atom-14 atom-15" d="M 1058.8,582.3 L 1092.1,602.6" style="fill:none;fill-rule:evenodd;stroke:#000000;stroke-width:2.0px;stroke-linecap:butt;stroke-linejoin:miter;stroke-opacity:1"/>
<path class="bond-14 atom-14 atom-15" d="M 1092.1,602.6 L 1125.3,622.8" style="fill:none;fill-rule:evenodd;stroke:#191919;stroke-width:2.0px;stroke-linecap:butt;stroke-linejoin:miter;stroke-opacity:1"/>
<path class="bond-15 atom-14 atom-16" d="M 1065.4,586.3 L 1066.3,548.3" style="fill:none;fill-rule:evenodd;stroke:#000000;stroke-width:2.0px;stroke-linecap:butt;stroke-linejoin:miter;stroke-opacity:1"/>
<path class="bond-15 atom-14 atom-16" d="M 1066.3,548.3 L 1067.2,510.3" style="fill:none;fill-rule:evenodd;stroke:#FF0000;stroke-width:2.0px;stroke-linecap:butt;stroke-linejoin:miter;stroke-opacity:1"/>
<path class="bond-15 atom-14 atom-16" d="M 1052.1,586.0 L 1053.0,548.0" style="fill:none;fill-rule:evenodd;stroke:#000000;stroke-width:2.0px;stroke-linecap:butt;stroke-linejoin:miter;stroke-opacity:1"/>
<path class="bond-15 atom-14 atom-16" d="M 1053.0,548.0 L 1053.9,510.0" style="fill:none;fill-rule:evenodd;stroke:#FF0000;stroke-width:2.0px;stroke-linecap:butt;stroke-linejoin:miter;stroke-opacity:1"/>
<path d="M 217.0,605.5 L 218.5,606.4 L 222.4,604.3" style="fill:none;stroke:#000000;stroke-width:2.0px;stroke-linecap:butt;stroke-linejoin:miter;stroke-opacity:1;"/>
<path d="M 292.0,566.3 L 295.8,564.2 L 299.6,566.5" style="fill:none;stroke:#000000;stroke-width:2.0px;stroke-linecap:butt;stroke-linejoin:miter;stroke-opacity:1;"/>
<path d="M 367.3,607.8 L 371.1,610.1 L 375.0,607.9" style="fill:none;stroke:#000000;stroke-width:2.0px;stroke-linecap:butt;stroke-linejoin:miter;stroke-opacity:1;"/>
<path d="M 444.6,569.9 L 448.4,567.8 L 452.2,570.1" style="fill:none;stroke:#000000;stroke-width:2.0px;stroke-linecap:butt;stroke-linejoin:miter;stroke-opacity:1;"/>
<path d="M 519.9,611.4 L 523.7,613.7 L 525.3,612.8" style="fill:none;stroke:#000000;stroke-width:2.0px;stroke-linecap:butt;stroke-linejoin:miter;stroke-opacity:1;"/>
<path d="M 674.8,616.4 L 676.3,617.3 L 680.2,615.2" style="fill:none;stroke:#000000;stroke-width:2.0px;stroke-linecap:butt;stroke-linejoin:miter;stroke-opacity:1;"/>
<path d="M 749.8,577.2 L 753.6,575.1 L 757.4,577.4" style="fill:none;stroke:#000000;stroke-width:2.0px;stroke-linecap:butt;stroke-linejoin:miter;stroke-opacity:1;"/>
<path d="M 825.1,618.6 L 828.9,620.9 L 832.8,618.8" style="fill:none;stroke:#000000;stroke-width:2.0px;stroke-linecap:butt;stroke-linejoin:miter;stroke-opacity:1;"/>
<path d="M 902.4,580.8 L 906.2,578.7 L 910.0,581.0" style="fill:none;stroke:#000000;stroke-width:2.0px;stroke-linecap:butt;stroke-linejoin:miter;stroke-opacity:1;"/>
<path d="M 977.7,622.3 L 981.5,624.5 L 985.4,622.4" style="fill:none;stroke:#000000;stroke-width:2.0px;stroke-linecap:butt;stroke-linejoin:miter;stroke-opacity:1;"/>
<path d="M 1055.0,584.4 L 1058.8,582.3 L 1060.5,583.3" style="fill:none;stroke:#000000;stroke-width:2.0px;stroke-linecap:butt;stroke-linejoin:miter;stroke-opacity:1;"/>
<path class="atom-0" d="M 61.2 600.0 L 64.9 596.3 L 60.0 595.3 L 60.7 592.8 L 65.2 595.0 L 64.6 590.1 L 67.2 590.1 L 66.5 595.0 L 71.0 592.9 L 71.8 595.3 L 66.9 596.2 L 70.4 600.0 L 68.2 601.5 L 65.8 596.9 L 63.3 601.5 L 61.2 600.0 " fill="#191919"/>
<path class="atom-1" d="M 131.8 560.6 Q 131.8 554.6, 134.8 551.3 Q 137.7 547.9, 143.3 547.9 Q 148.8 547.9, 151.7 551.3 Q 154.7 554.6, 154.7 560.6 Q 154.7 566.7, 151.7 570.2 Q 148.7 573.6, 143.3 573.6 Q 137.8 573.6, 134.8 570.2 Q 131.8 566.7, 131.8 560.6 M 143.3 570.8 Q 147.1 570.8, 149.1 568.2 Q 151.2 565.6, 151.2 560.6 Q 151.2 555.7, 149.1 553.3 Q 147.1 550.8, 143.3 550.8 Q 139.4 550.8, 137.4 553.2 Q 135.3 555.7, 135.3 560.6 Q 135.3 565.7, 137.4 568.2 Q 139.4 570.8, 143.3 570.8 " fill="#FF0000"/>
<path class="atom-7" d="M 589.6 571.5 Q 589.6 565.5, 592.6 562.2 Q 595.5 558.8, 601.0 558.8 Q 606.6 558.8, 609.5 562.2 Q 612.5 565.5, 612.5 571.5 Q 612.5 577.6, 609.5 581.0 Q 606.5 584.4, 601.0 584.4 Q 595.5 584.4, 592.6 581.0 Q 589.6 577.6, 589.6 571.5 M 601.0 581.6 Q 604.9 581.6, 606.9 579.1 Q 609.0 576.5, 609.0 571.5 Q 609.0 566.6, 606.9 564.1 Q 604.9 561.6, 601.0 561.6 Q 597.2 561.6, 595.2 564.1 Q 593.1 566.6, 593.1 571.5 Q 593.1 576.5, 595.2 579.1 Q 597.2 581.6, 601.0 581.6 " fill="#FF0000"/>
<path class="atom-9" d="M 662.8 705.5 Q 662.8 699.5, 665.7 696.1 Q 668.7 692.8, 674.2 692.8 Q 679.7 692.8, 682.7 696.1 Q 685.7 699.5, 685.7 705.5 Q 685.7 711.5, 682.7 715.0 Q 679.7 718.4, 674.2 718.4 Q 668.7 718.4, 665.7 715.0 Q 662.8 711.6, 662.8 705.5 M 674.2 715.6 Q 678.0 715.6, 680.1 713.1 Q 682.1 710.5, 682.1 705.5 Q 682.1 700.6, 680.1 698.1 Q 678.0 695.6, 674.2 695.6 Q 670.4 695.6, 668.3 698.1 Q 666.3 700.5, 666.3 705.5 Q 666.3 710.5, 668.3 713.1 Q 670.4 715.6, 674.2 715.6 " fill="#FF0000"/>
<path class="atom-15" d="M 1129.4 625.4 L 1133.1 621.7 L 1128.2 620.7 L 1128.9 618.2 L 1133.4 620.4 L 1132.8 615.5 L 1135.4 615.5 L 1134.7 620.4 L 1139.2 618.3 L 1140.0 620.7 L 1135.1 621.6 L 1138.6 625.4 L 1136.4 626.9 L 1134.0 622.3 L 1131.5 626.9 L 1129.4 625.4 " fill="#191919"/>
<path class="atom-16" d="M 1049.5 494.3 Q 1049.5 488.3, 1052.4 484.9 Q 1055.4 481.6, 1060.9 481.6 Q 1066.5 481.6, 1069.4 484.9 Q 1072.4 488.3, 1072.4 494.3 Q 1072.4 500.3, 1069.4 503.8 Q 1066.4 507.2, 1060.9 507.2 Q 1055.4 507.2, 1052.4 503.8 Q 1049.5 500.4, 1049.5 494.3 M 1060.9 504.4 Q 1064.7 504.4, 1066.8 501.9 Q 1068.9 499.3, 1068.9 494.3 Q 1068.9 489.4, 1066.8 486.9 Q 1064.7 484.4, 1060.9 484.4 Q 1057.1 484.4, 1055.0 486.9 Q 1053.0 489.3, 1053.0 494.3 Q 1053.0 499.3, 1055.0 501.9 Q 1057.1 504.4, 1060.9 504.4 " fill="#FF0000"/>
<path class="bond-0 atom-0 atom-1" d="M 341.1,983.7 L 370.2,971.6" style="fill:none;fill-rule:evenodd;stroke:#191919;stroke-width:2.0px;stroke-linecap:butt;stroke-linejoin:miter;stroke-opacity:1"/>
<path class="bond-0 atom-0 atom-1" d="M 370.2,971.6 L 399.2,959.5" style="fill:none;fill-rule:evenodd;stroke:#FF0000;stroke-width:2.0px;stroke-linecap:butt;stroke-linejoin:miter;stroke-opacity:1"/>
<path class="bond-1 atom-1 atom-2" d="M 428.0,964.4 L 455.8,985.7" style="fill:none;fill-rule:evenodd;stroke:#FF0000;stroke-width:2.0px;stroke-linecap:butt;stroke-linejoin:miter;stroke-opacity:1"/>
<path class="bond-1 atom-1 atom-2" d="M 455.8,985.7 L 483.6,1007.0" style="fill:none;fill-rule:evenodd;stroke:#000000;stroke-width:2.0px;stroke-linecap:butt;stroke-linejoin:miter;stroke-opacity:1"/>
<path class="bond-2 atom-2 atom-3" d="M 477.6,1002.3 L 472.7,1040.2" style="fill:none;fill-rule:evenodd;stroke:#000000;stroke-width:2.0px;stroke-linecap:butt;stroke-linejoin:miter;stroke-opacity:1"/>
<path class="bond-2 atom-2 atom-3" d="M 472.7,1040.2 L 467.8,1078.0" style="fill:none;fill-rule:evenodd;stroke:#FF0000;stroke-width:2.0px;stroke-linecap:butt;stroke-linejoin:miter;stroke-opacity:1"/>
<path class="bond-2 atom-2 atom-3" d="M 490.7,1004.0 L 485.8,1041.9" style="fill:none;fill-rule:evenodd;stroke:#000000;stroke-width:2.0px;stroke-linecap:butt;stroke-linejoin:miter;stroke-opacity:1"/>
<path class="bond-2 atom-2 atom-3" d="M 485.8,1041.9 L 480.9,1079.7" style="fill:none;fill-rule:evenodd;stroke:#FF0000;stroke-width:2.0px;stroke-linecap:butt;stroke-linejoin:miter;stroke-opacity:1"/>
<path class="bond-3 atom-2 atom-4" d="M 483.6,1007.0 L 518.1,992.6" style="fill:none;fill-rule:evenodd;stroke:#000000;stroke-width:2.0px;stroke-linecap:butt;stroke-linejoin:miter;stroke-opacity:1"/>
<path class="bond-3 atom-2 atom-4" d="M 518.1,992.6 L 552.6,978.2" style="fill:none;fill-rule:evenodd;stroke:#0000FF;stroke-width:2.0px;stroke-linecap:butt;stroke-linejoin:miter;stroke-opacity:1"/>
<path class="bond-4 atom-4 atom-5" d="M 577.4,982.5 L 622.6,1017.1" style="fill:none;fill-rule:evenodd;stroke:#0000FF;stroke-width:2.0px;stroke-linecap:butt;stroke-linejoin:miter;stroke-opacity:1"/>
<path class="bond-5 atom-5 atom-6" d="M 647.4,1021.4 L 681.9,1007.0" style="fill:none;fill-rule:evenodd;stroke:#0000FF;stroke-width:2.0px;stroke-linecap:butt;stroke-linejoin:miter;stroke-opacity:1"/>
<path class="bond-5 atom-5 atom-6" d="M 681.9,1007.0 L 716.4,992.7" style="fill:none;fill-rule:evenodd;stroke:#000000;stroke-width:2.0px;stroke-linecap:butt;stroke-linejoin:miter;stroke-opacity:1"/>
<path class="bond-6 atom-6 atom-7" d="M 722.4,997.3 L 727.3,959.7" style="fill:none;fill-rule:evenodd;stroke:#000000;stroke-width:2.0px;stroke-linecap:butt;stroke-linejoin:miter;stroke-opacity:1"/>
<path class="bond-6 atom-6 atom-7" d="M 727.3,959.7 L 732.2,922.0" style="fill:none;fill-rule:evenodd;stroke:#FF0000;stroke-width:2.0px;stroke-linecap:butt;stroke-linejoin:miter;stroke-opacity:1"/>
<path class="bond-6 atom-6 atom-7" d="M 709.3,995.6 L 714.2,958.0" style="fill:none;fill-rule:evenodd;stroke:#000000;stroke-width:2.0px;stroke-linecap:butt;stroke-linejoin:miter;stroke-opacity:1"/>
<path class="bond-6 atom-6 atom-7" d="M 714.2,958.0 L 719.1,920.3" style="fill:none;fill-rule:evenodd;stroke:#FF0000;stroke-width:2.0px;stroke-linecap:butt;stroke-linejoin:miter;stroke-opacity:1"/>
<path class="bond-7 atom-6 atom-8" d="M 716.4,992.7 L 744.2,1013.9" style="fill:none;fill-rule:evenodd;stroke:#000000;stroke-width:2.0px;stroke-linecap:butt;stroke-linejoin:miter;stroke-opacity:1"/>
<path class="bond-7 atom-6 atom-8" d="M 744.2,1013.9 L 772.0,1035.2" style="fill:none;fill-rule:evenodd;stroke:#FF0000;stroke-width:2.0px;stroke-linecap:butt;stroke-linejoin:miter;stroke-opacity:1"/>
<path class="bond-8 atom-8 atom-9" d="M 800.8,1040.2 L 832.3,1027.0" style="fill:none;fill-rule:evenodd;stroke:#FF0000;stroke-width:2.0px;stroke-linecap:butt;stroke-linejoin:miter;stroke-opacity:1"/>
<path class="bond-8 atom-8 atom-9" d="M 832.3,1027.0 L 863.8,1013.9" style="fill:none;fill-rule:evenodd;stroke:#191919;stroke-width:2.0px;stroke-linecap:butt;stroke-linejoin:miter;stroke-opacity:1"/>
<path d="M 482.2,1005.9 L 483.6,1007.0 L 485.4,1006.2" style="fill:none;stroke:#000000;stroke-width:2.0px;stroke-linecap:butt;stroke-linejoin:miter;stroke-opacity:1;"/>
<path d="M 714.6,993.4 L 716.4,992.7 L 717.8,993.7" style="fill:none;stroke:#000000;stroke-width:2.0px;stroke-linecap:butt;stroke-linejoin:miter;stroke-opacity:1;"/>
<path class="atom-0" d="M 327.6 984.6 L 331.2 980.8 L 326.4 979.9 L 327.1 977.4 L 331.6 979.6 L 330.9 974.7 L 333.6 974.7 L 332.8 979.6 L 337.4 977.5 L 338.2 979.9 L 333.2 980.8 L 336.8 984.5 L 334.6 986.1 L 332.2 981.4 L 329.7 986.1 L 327.6 984.6 " fill="#191919"/>
<path class="atom-1" d="M 402.1 953.5 Q 402.1 947.5, 405.1 944.2 Q 408.1 940.8, 413.6 940.8 Q 419.1 940.8, 422.1 944.2 Q 425.1 947.5, 425.1 953.5 Q 425.1 959.6, 422.1 963.1 Q 419.1 966.5, 413.6 966.5 Q 408.1 966.5, 405.1 963.1 Q 402.1 959.6, 402.1 953.5 M 413.6 963.7 Q 417.4 963.7, 419.5 961.1 Q 421.5 958.5, 421.5 953.5 Q 421.5 948.6, 419.5 946.2 Q 417.4 943.7, 413.6 943.7 Q 409.8 943.7, 407.7 946.1 Q 405.7 948.6, 405.7 953.5 Q 405.7 958.6, 407.7 961.1 Q 409.8 963.7, 413.6 963.7 " fill="#FF0000"/>
<path class="atom-3" d="M 460.9 1094.4 Q 460.9 1088.4, 463.8 1085.1 Q 466.8 1081.7, 472.3 1081.7 Q 477.9 1081.7, 480.8 1085.1 Q 483.8 1088.4, 483.8 1094.4 Q 483.8 1100.5, 480.8 1103.9 Q 477.8 1107.4, 472.3 1107.4 Q 466.8 1107.4, 463.8 1103.9 Q 460.9 1100.5, 460.9 1094.4 M 472.3 1104.5 Q 476.1 1104.5, 478.2 1102.0 Q 480.3 1099.4, 480.3 1094.4 Q 480.3 1089.5, 478.2 1087.1 Q 476.1 1084.6, 472.3 1084.6 Q 468.5 1084.6, 466.4 1087.0 Q 464.4 1089.5, 464.4 1094.4 Q 464.4 1099.5, 466.4 1102.0 Q 468.5 1104.5, 472.3 1104.5 " fill="#FF0000"/>
<path class="atom-4" d="M 559.5 960.6 L 567.6 973.8 Q 568.5 975.1, 569.8 977.5 Q 571.1 979.8, 571.1 980.0 L 571.1 960.6 L 574.4 960.6 L 574.4 985.5 L 571.0 985.5 L 562.3 971.1 Q 561.2 969.4, 560.1 967.5 Q 559.1 965.5, 558.8 964.9 L 558.8 985.5 L 555.5 985.5 L 555.5 960.6 L 559.5 960.6 " fill="#0000FF"/>
<path class="atom-4" d="M 555.2 933.1 L 558.6 933.1 L 558.6 943.7 L 571.4 943.7 L 571.4 933.1 L 574.7 933.1 L 574.7 958.1 L 571.4 958.1 L 571.4 946.6 L 558.6 946.6 L 558.6 958.1 L 555.2 958.1 L 555.2 933.1 " fill="#0000FF"/>
<path class="atom-5" d="M 629.5 1014.1 L 637.7 1027.3 Q 638.5 1028.6, 639.8 1031.0 Q 641.1 1033.3, 641.2 1033.5 L 641.2 1014.1 L 644.5 1014.1 L 644.5 1039.0 L 641.1 1039.0 L 632.3 1024.6 Q 631.3 1022.9, 630.2 1020.9 Q 629.1 1019.0, 628.8 1018.4 L 628.8 1039.0 L 625.6 1039.0 L 625.6 1014.1 L 629.5 1014.1 " fill="#0000FF"/>
<path class="atom-5" d="M 625.3 1041.5 L 628.6 1041.5 L 628.6 1052.1 L 641.4 1052.1 L 641.4 1041.5 L 644.8 1041.5 L 644.8 1066.5 L 641.4 1066.5 L 641.4 1055.0 L 628.6 1055.0 L 628.6 1066.5 L 625.3 1066.5 L 625.3 1041.5 " fill="#0000FF"/>
<path class="atom-7" d="M 716.2 905.3 Q 716.2 899.3, 719.2 896.0 Q 722.1 892.6, 727.7 892.6 Q 733.2 892.6, 736.2 896.0 Q 739.1 899.3, 739.1 905.3 Q 739.1 911.4, 736.1 914.8 Q 733.1 918.3, 727.7 918.3 Q 722.2 918.3, 719.2 914.8 Q 716.2 911.4, 716.2 905.3 M 727.7 915.4 Q 731.5 915.4, 733.5 912.9 Q 735.6 910.3, 735.6 905.3 Q 735.6 900.4, 733.5 898.0 Q 731.5 895.5, 727.7 895.5 Q 723.9 895.5, 721.8 897.9 Q 719.7 900.4, 719.7 905.3 Q 719.7 910.4, 721.8 912.9 Q 723.9 915.4, 727.7 915.4 " fill="#FF0000"/>
<path class="atom-8" d="M 774.9 1046.2 Q 774.9 1040.2, 777.9 1036.9 Q 780.9 1033.5, 786.4 1033.5 Q 791.9 1033.5, 794.9 1036.9 Q 797.9 1040.2, 797.9 1046.2 Q 797.9 1052.3, 794.9 1055.7 Q 791.9 1059.2, 786.4 1059.2 Q 780.9 1059.2, 777.9 1055.7 Q 774.9 1052.3, 774.9 1046.2 M 786.4 1056.3 Q 790.2 1056.3, 792.2 1053.8 Q 794.3 1051.2, 794.3 1046.2 Q 794.3 1041.3, 792.2 1038.9 Q 790.2 1036.3, 786.4 1036.3 Q 782.6 1036.3, 780.5 1038.8 Q 778.5 1041.3, 778.5 1046.2 Q 778.5 1051.3, 780.5 1053.8 Q 782.6 1056.3, 786.4 1056.3 " fill="#FF0000"/>
<path class="atom-9" d="M 863.0 1009.5 L 866.7 1005.7 L 861.8 1004.7 L 862.6 1002.2 L 867.1 1004.5 L 866.4 999.6 L 869.1 999.6 L 868.3 1004.5 L 872.9 1002.3 L 873.6 1004.7 L 868.7 1005.7 L 872.2 1009.4 L 870.1 1011.0 L 867.7 1006.3 L 865.2 1011.0 L 863.0 1009.5 " fill="#191919"/>
</svg>