<svg xmlns="http://www.w3.org/2000/svg" xmlns:rdkit="http://www.rdkit.org/xml" xmlns:xlink="http://www.w3.org/1999/xlink" version="1.1" baseProfile="full" xml:space="preserve" width="1200px" height="800px" viewBox="0 0 1200 800">
<!-- END OF HEADER -->
<rect style="opacity:1.0;fill:#FFFFFF;stroke:none" width="1200.0" height="800.0" x="0.0" y="0.0"> </rect>
<path class="bond-0 atom-0 atom-1" d="M 1130.7,170.0 L 1091.3,193.2" style="fill:none;fill-rule:evenodd;stroke:#191919;stroke-width:2.0px;stroke-linecap:butt;stroke-linejoin:miter;stroke-opacity:1"/>
<path class="bond-0 atom-0 atom-1" d="M 1091.3,193.2 L 1051.9,216.4" style="fill:none;fill-rule:evenodd;stroke:#000000;stroke-width:2.0px;stroke-linecap:butt;stroke-linejoin:miter;stroke-opacity:1"/>
<path class="bond-1 atom-1 atom-2" d="M 1051.9,216.4 L 1018.4,197.5" style="fill:none;fill-rule:evenodd;stroke:#000000;stroke-width:2.0px;stroke-linecap:butt;stroke-linejoin:miter;stroke-opacity:1"/>
<path class="bond-1 atom-1 atom-2" d="M 1018.4,197.5 L 984.8,178.5" style="fill:none;fill-rule:evenodd;stroke:#FF0000;stroke-width:2.0px;stroke-linecap:butt;stroke-linejoin:miter;stroke-opacity:1"/>
<path class="bond-2 atom-2 atom-3" d="M 953.9,178.9 L 920.8,198.4" style="fill:none;fill-rule:evenodd;stroke:#FF0000;stroke-width:2.0px;stroke-linecap:butt;stroke-linejoin:miter;stroke-opacity:1"/>
<path class="bond-2 atom-2 atom-3" d="M 920.8,198.4 L 887.7,217.9" style="fill:none;fill-rule:evenodd;stroke:#000000;stroke-width:2.0px;stroke-linecap:butt;stroke-linejoin:miter;stroke-opacity:1"/>
<path class="bond-3 atom-3 atom-4" d="M 887.7,217.9 L 805.1,171.2" style="fill:none;fill-rule:evenodd;stroke:#000000;stroke-width:2.0px;stroke-linecap:butt;stroke-linejoin:miter;stroke-opacity:1"/>
<path class="bond-4 atom-4 atom-5" d="M 805.1,171.2 L 770.1,191.9" style="fill:none;fill-rule:evenodd;stroke:#000000;stroke-width:2.0px;stroke-linecap:butt;stroke-linejoin:miter;stroke-opacity:1"/>
<path class="bond-4 atom-4 atom-5" d="M 770.1,191.9 L 735.2,212.5" style="fill:none;fill-rule:evenodd;stroke:#CCCC00;stroke-width:2.0px;stroke-linecap:butt;stroke-linejoin:miter;stroke-opacity:1"/>
<path class="bond-5 atom-5 atom-6" d="M 711.7,212.8 L 676.3,192.7" style="fill:none;fill-rule:evenodd;stroke:#CCCC00;stroke-width:2.0px;stroke-linecap:butt;stroke-linejoin:miter;stroke-opacity:1"/>
<path class="bond-5 atom-5 atom-6" d="M 676.3,192.7 L 640.9,172.7" style="fill:none;fill-rule:evenodd;stroke:#000000;stroke-width:2.0px;stroke-linecap:butt;stroke-linejoin:miter;stroke-opacity:1"/>
<path class="bond-6 atom-6 atom-7" d="M 640.9,172.7 L 559.1,220.9" style="fill:none;fill-rule:evenodd;stroke:#000000;stroke-width:2.0px;stroke-linecap:butt;stroke-linejoin:miter;stroke-opacity:1"/>
<path class="bond-7 atom-7 atom-8" d="M 559.1,220.9 L 525.6,201.9" style="fill:none;fill-rule:evenodd;stroke:#000000;stroke-width:2.0px;stroke-linecap:butt;stroke-linejoin:miter;stroke-opacity:1"/>
<path class="bond-7 atom-7 atom-8" d="M 525.6,201.9 L 492.0,183.0" style="fill:none;fill-rule:evenodd;stroke:#FF0000;stroke-width:2.0px;stroke-linecap:butt;stroke-linejoin:miter;stroke-opacity:1"/>
<path class="bond-8 atom-8 atom-9" d="M 461.1,183.3 L 428.0,202.9" style="fill:none;fill-rule:evenodd;stroke:#FF0000;stroke-width:2.0px;stroke-linecap:butt;stroke-linejoin:miter;stroke-opacity:1"/>
<path class="bond-8 atom-8 atom-9" d="M 428.0,202.9 L 394.9,222.4" style="fill:none;fill-rule:evenodd;stroke:#000000;stroke-width:2.0px;stroke-linecap:butt;stroke-linejoin:miter;stroke-opacity:1"/>
<path class="bond-9 atom-9 atom-10" d="M 387.7,218.3 L 388.1,259.5" style="fill:none;fill-rule:evenodd;stroke:#000000;stroke-width:2.0px;stroke-linecap:butt;stroke-linejoin:miter;stroke-opacity:1"/>
<path class="bond-9 atom-9 atom-10" d="M 388.1,259.5 L 388.5,300.6" style="fill:none;fill-rule:evenodd;stroke:#FF0000;stroke-width:2.0px;stroke-linecap:butt;stroke-linejoin:miter;stroke-opacity:1"/>
<path class="bond-9 atom-9 atom-10" d="M 402.0,218.2 L 402.3,259.3" style="fill:none;fill-rule:evenodd;stroke:#000000;stroke-width:2.0px;stroke-linecap:butt;stroke-linejoin:miter;stroke-opacity:1"/>
<path class="bond-9 atom-9 atom-10" d="M 402.3,259.3 L 402.7,300.4" style="fill:none;fill-rule:evenodd;stroke:#FF0000;stroke-width:2.0px;stroke-linecap:butt;stroke-linejoin:miter;stroke-opacity:1"/>
<path class="bond-10 atom-9 atom-11" d="M 394.9,222.4 L 312.3,175.7" style="fill:none;fill-rule:evenodd;stroke:#000000;stroke-width:2.0px;stroke-linecap:butt;stroke-linejoin:miter;stroke-opacity:1"/>
<path class="bond-11 atom-11 atom-12" d="M 312.3,175.7 L 230.6,223.9" style="fill:none;fill-rule:evenodd;stroke:#000000;stroke-width:2.0px;stroke-linecap:butt;stroke-linejoin:miter;stroke-opacity:1"/>
<path class="bond-12 atom-12 atom-13" d="M 230.6,223.9 L 148.1,177.2" style="fill:none;fill-rule:evenodd;stroke:#000000;stroke-width:2.0px;stroke-linecap:butt;stroke-linejoin:miter;stroke-opacity:1"/>
<path class="bond-13 atom-13 atom-14" d="M 148.1,177.2 L 111.9,198.5" style="fill:none;fill-rule:evenodd;stroke:#000000;stroke-width:2.0px;stroke-linecap:butt;stroke-linejoin:miter;stroke-opacity:1"/>
<path class="bond-13 atom-13 atom-14" d="M 111.9,198.5 L 75.8,219.8" style="fill:none;fill-rule:evenodd;stroke:#191919;stroke-width:2.0px;stroke-linecap:butt;stroke-linejoin:miter;stroke-opacity:1"/>
<path class="bond-14 atom-13 atom-15" d="M 155.2,181.2 L 154.8,140.3" style="fill:none;fill-rule:evenodd;stroke:#000000;stroke-width:2.0px;stroke-linecap:butt;stroke-linejoin:miter;stroke-opacity:1"/>
<path class="bond-14 atom-13 atom-15" d="M 154.8,140.3 L 154.5,99.4" style="fill:none;fill-rule:evenodd;stroke:#FF0000;stroke-width:2.0px;stroke-linecap:butt;stroke-linejoin:miter;stroke-opacity:1"/>
<path class="bond-14 atom-13 atom-15" d="M 141.0,181.4 L 140.6,140.5" style="fill:none;fill-rule:evenodd;stroke:#000000;stroke-width:2.0px;stroke-linecap:butt;stroke-linejoin:miter;stroke-opacity:1"/>
<path class="bond-14 atom-13 atom-15" d="M 140.6,140.5 L 140.2,99.6" style="fill:none;fill-rule:evenodd;stroke:#FF0000;stroke-width:2.0px;stroke-linecap:butt;stroke-linejoin:miter;stroke-opacity:1"/>
<path d="M 1053.9,215.3 L 1051.9,216.4 L 1050.3,215.5" style="fill:none;stroke:#000000;stroke-width:2.0px;stroke-linecap:butt;stroke-linejoin:miter;stroke-opacity:1;"/>
<path d="M 889.3,216.9 L 887.7,217.9 L 883.6,215.6" style="fill:none;stroke:#000000;stroke-width:2.0px;stroke-linecap:butt;stroke-linejoin:miter;stroke-opacity:1;"/>
<path d="M 809.2,173.6 L 805.1,171.2 L 803.4,172.3" style="fill:none;stroke:#000000;stroke-width:2.0px;stroke-linecap:butt;stroke-linejoin:miter;stroke-opacity:1;"/>
<path d="M 642.6,173.7 L 640.9,172.7 L 636.8,175.1" style="fill:none;stroke:#000000;stroke-width:2.0px;stroke-linecap:butt;stroke-linejoin:miter;stroke-opacity:1;"/>
<path d="M 563.2,218.5 L 559.1,220.9 L 557.5,219.9" style="fill:none;stroke:#000000;stroke-width:2.0px;stroke-linecap:butt;stroke-linejoin:miter;stroke-opacity:1;"/>
<path d="M 396.5,221.4 L 394.9,222.4 L 390.8,220.1" style="fill:none;stroke:#000000;stroke-width:2.0px;stroke-linecap:butt;stroke-linejoin:miter;stroke-opacity:1;"/>
<path d="M 316.4,178.0 L 312.3,175.7 L 308.2,178.1" style="fill:none;stroke:#000000;stroke-width:2.0px;stroke-linecap:butt;stroke-linejoin:miter;stroke-opacity:1;"/>
<path d="M 234.7,221.5 L 230.6,223.9 L 226.5,221.5" style="fill:none;stroke:#000000;stroke-width:2.0px;stroke-linecap:butt;stroke-linejoin:miter;stroke-opacity:1;"/>
<path d="M 152.2,179.5 L 148.1,177.2 L 146.3,178.3" style="fill:none;stroke:#000000;stroke-width:2.0px;stroke-linecap:butt;stroke-linejoin:miter;stroke-opacity:1;"/>
<path class="atom-0" d="M 1128.6 165.3 L 1132.5 161.2 L 1127.3 160.2 L 1128.1 157.5 L 1132.9 159.9 L 1132.2 154.6 L 1135.1 154.6 L 1134.3 159.9 L 1139.2 157.6 L 1140.0 160.2 L 1134.7 161.2 L 1138.5 165.2 L 1136.2 166.9 L 1133.6 161.9 L 1130.9 166.9 L 1128.6 165.3 " fill="#191919"/>
<path class="atom-2" d="M 957.1 169.8 Q 957.1 163.4, 960.2 159.8 Q 963.4 156.2, 969.4 156.2 Q 975.3 156.2, 978.5 159.8 Q 981.7 163.4, 981.7 169.8 Q 981.7 176.4, 978.5 180.1 Q 975.3 183.8, 969.4 183.8 Q 963.5 183.8, 960.2 180.1 Q 957.1 176.4, 957.1 169.8 M 969.4 180.7 Q 973.5 180.7, 975.7 178.0 Q 977.9 175.2, 977.9 169.8 Q 977.9 164.6, 975.7 161.9 Q 973.5 159.2, 969.4 159.2 Q 965.3 159.2, 963.0 161.9 Q 960.8 164.5, 960.8 169.8 Q 960.8 175.3, 963.0 178.0 Q 965.3 180.7, 969.4 180.7 " fill="#FF0000"/>
<path class="atom-5" d="M 715.8 228.6 Q 716.1 228.7, 717.4 229.3 Q 718.6 229.8, 720.0 230.1 Q 721.4 230.4, 722.8 230.4 Q 725.3 230.4, 726.8 229.2 Q 728.3 228.0, 728.3 225.8 Q 728.3 224.3, 727.5 223.4 Q 726.8 222.5, 725.7 222.0 Q 724.5 221.5, 722.6 221.0 Q 720.2 220.2, 718.8 219.6 Q 717.4 218.9, 716.4 217.4 Q 715.4 216.0, 715.4 213.6 Q 715.4 210.2, 717.6 208.1 Q 720.0 206.0, 724.5 206.0 Q 727.6 206.0, 731.2 207.5 L 730.3 210.4 Q 727.1 209.1, 724.6 209.1 Q 722.0 209.1, 720.6 210.2 Q 719.1 211.2, 719.2 213.1 Q 719.2 214.5, 719.9 215.4 Q 720.6 216.3, 721.7 216.8 Q 722.8 217.3, 724.6 217.8 Q 727.1 218.6, 728.5 219.4 Q 729.9 220.1, 731.0 221.7 Q 732.0 223.2, 732.0 225.8 Q 732.0 229.5, 729.5 231.5 Q 727.1 233.5, 722.9 233.5 Q 720.5 233.5, 718.7 233.0 Q 716.9 232.5, 714.8 231.6 L 715.8 228.6 " fill="#CCCC00"/>
<path class="atom-8" d="M 464.3 174.3 Q 464.3 167.8, 467.4 164.2 Q 470.6 160.6, 476.6 160.6 Q 482.5 160.6, 485.7 164.2 Q 488.9 167.8, 488.9 174.3 Q 488.9 180.8, 485.7 184.5 Q 482.5 188.2, 476.6 188.2 Q 470.7 188.2, 467.4 184.5 Q 464.3 180.9, 464.3 174.3 M 476.6 185.2 Q 480.7 185.2, 482.9 182.5 Q 485.1 179.7, 485.1 174.3 Q 485.1 169.0, 482.9 166.4 Q 480.7 163.7, 476.6 163.7 Q 472.5 163.7, 470.3 166.3 Q 468.1 169.0, 468.1 174.3 Q 468.1 179.7, 470.3 182.5 Q 472.5 185.2, 476.6 185.2 " fill="#FF0000"/>
<path class="atom-10" d="M 383.4 317.3 Q 383.4 310.8, 386.6 307.2 Q 389.8 303.6, 395.7 303.6 Q 401.7 303.6, 404.9 307.2 Q 408.1 310.8, 408.1 317.3 Q 408.1 323.8, 404.8 327.5 Q 401.6 331.2, 395.7 331.2 Q 389.8 331.2, 386.6 327.5 Q 383.4 323.9, 383.4 317.3 M 395.7 328.2 Q 399.8 328.2, 402.0 325.5 Q 404.3 322.7, 404.3 317.3 Q 404.3 312.0, 402.0 309.4 Q 399.8 306.7, 395.7 306.7 Q 391.6 306.7, 389.4 309.3 Q 387.2 312.0, 387.2 317.3 Q 387.2 322.7, 389.4 325.5 Q 391.6 328.2, 395.7 328.2 " fill="#FF0000"/>
<path class="atom-14" d="M 61.3 222.4 L 65.2 218.3 L 60.0 217.3 L 60.8 214.6 L 65.6 217.0 L 64.9 211.7 L 67.8 211.7 L 67.0 217.0 L 71.9 214.7 L 72.7 217.3 L 67.4 218.3 L 71.2 222.3 L 68.9 224.0 L 66.3 219.0 L 63.6 224.0 L 61.3 222.4 " fill="#191919"/>
<path class="atom-15" d="M 134.9 82.4 Q 134.9 76.0, 138.1 72.4 Q 141.2 68.8, 147.2 68.8 Q 153.2 68.8, 156.3 72.4 Q 159.5 76.0, 159.5 82.4 Q 159.5 89.0, 156.3 92.7 Q 153.1 96.4, 147.2 96.4 Q 141.3 96.4, 138.1 92.7 Q 134.9 89.0, 134.9 82.4 M 147.2 93.3 Q 151.3 93.3, 153.5 90.6 Q 155.7 87.8, 155.7 82.4 Q 155.7 77.2, 153.5 74.5 Q 151.3 71.8, 147.2 71.8 Q 143.1 71.8, 140.9 74.5 Q 138.7 77.1, 138.7 82.4 Q 138.7 87.9, 140.9 90.6 Q 143.1 93.3, 147.2 93.3 " fill="#FF0000"/>
<path class="bond-0 atom-0 atom-1" d="M 116.8,601.1 L 153.6,580.9" style="fill:none;fill-rule:evenodd;stroke:#191919;stroke-width:2.0px;stroke-linecap:butt;stroke-linejoin:miter;stroke-opacity:1"/>
<path class="bond-0 atom-0 atom-1" d="M 153.6,580.9 L 190.5,560.7" style="fill:none;fill-rule:evenodd;stroke:#000000;stroke-width:2.0px;stroke-linecap:butt;stroke-linejoin:miter;stroke-opacity:1"/>
<path class="bond-1 atom-1 atom-2" d="M 190.5,560.7 L 223.3,580.6" style="fill:none;fill-rule:evenodd;stroke:#000000;stroke-width:2.0px;stroke-linecap:butt;stroke-linejoin:miter;stroke-opacity:1"/>
<path class="bond-1 atom-1 atom-2" d="M 223.3,580.6 L 256.1,600.5" style="fill:none;fill-rule:evenodd;stroke:#FF0000;stroke-width:2.0px;stroke-linecap:butt;stroke-linejoin:miter;stroke-opacity:1"/>
<path class="bond-2 atom-2 atom-3" d="M 287.0,601.4 L 320.8,582.9" style="fill:none;fill-rule:evenodd;stroke:#FF0000;stroke-width:2.0px;stroke-linecap:butt;stroke-linejoin:miter;stroke-opacity:1"/>
<path class="bond-2 atom-2 atom-3" d="M 320.8,582.9 L 354.7,564.3" style="fill:none;fill-rule:evenodd;stroke:#000000;stroke-width:2.0px;stroke-linecap:butt;stroke-linejoin:miter;stroke-opacity:1"/>
<path class="bond-3 atom-3 atom-4" d="M 354.7,564.3 L 435.8,613.5" style="fill:none;fill-rule:evenodd;stroke:#000000;stroke-width:2.0px;stroke-linecap:butt;stroke-linejoin:miter;stroke-opacity:1"/>
<path class="bond-4 atom-4 atom-5" d="M 435.8,613.5 L 518.9,567.9" style="fill:none;fill-rule:evenodd;stroke:#000000;stroke-width:2.0px;stroke-linecap:butt;stroke-linejoin:miter;stroke-opacity:1"/>
<path class="bond-5 atom-5 atom-6" d="M 518.9,567.9 L 600.0,617.2" style="fill:none;fill-rule:evenodd;stroke:#000000;stroke-width:2.0px;stroke-linecap:butt;stroke-linejoin:miter;stroke-opacity:1"/>
<path class="bond-6 atom-6 atom-7" d="M 600.0,617.2 L 633.9,598.6" style="fill:none;fill-rule:evenodd;stroke:#000000;stroke-width:2.0px;stroke-linecap:butt;stroke-linejoin:miter;stroke-opacity:1"/>
<path class="bond-6 atom-6 atom-7" d="M 633.9,598.6 L 667.7,580.0" style="fill:none;fill-rule:evenodd;stroke:#FF0000;stroke-width:2.0px;stroke-linecap:butt;stroke-linejoin:miter;stroke-opacity:1"/>
<path class="bond-7 atom-7 atom-8" d="M 698.6,580.9 L 731.4,600.9" style="fill:none;fill-rule:evenodd;stroke:#FF0000;stroke-width:2.0px;stroke-linecap:butt;stroke-linejoin:miter;stroke-opacity:1"/>
<path class="bond-7 atom-7 atom-8" d="M 731.4,600.9 L 764.2,620.8" style="fill:none;fill-rule:evenodd;stroke:#000000;stroke-width:2.0px;stroke-linecap:butt;stroke-linejoin:miter;stroke-opacity:1"/>
<path class="bond-8 atom-8 atom-9" d="M 757.2,616.5 L 756.3,657.6" style="fill:none;fill-rule:evenodd;stroke:#000000;stroke-width:2.0px;stroke-linecap:butt;stroke-linejoin:miter;stroke-opacity:1"/>
<path class="bond-8 atom-8 atom-9" d="M 756.3,657.6 L 755.4,698.7" style="fill:none;fill-rule:evenodd;stroke:#FF0000;stroke-width:2.0px;stroke-linecap:butt;stroke-linejoin:miter;stroke-opacity:1"/>
<path class="bond-8 atom-8 atom-9" d="M 771.4,616.8 L 770.5,657.9" style="fill:none;fill-rule:evenodd;stroke:#000000;stroke-width:2.0px;stroke-linecap:butt;stroke-linejoin:miter;stroke-opacity:1"/>
<path class="bond-8 atom-8 atom-9" d="M 770.5,657.9 L 769.6,699.0" style="fill:none;fill-rule:evenodd;stroke:#FF0000;stroke-width:2.0px;stroke-linecap:butt;stroke-linejoin:miter;stroke-opacity:1"/>
<path class="bond-9 atom-8 atom-10" d="M 764.2,620.8 L 847.4,575.2" style="fill:none;fill-rule:evenodd;stroke:#000000;stroke-width:2.0px;stroke-linecap:butt;stroke-linejoin:miter;stroke-opacity:1"/>
<path class="bond-10 atom-10 atom-11" d="M 847.4,575.2 L 928.5,624.4" style="fill:none;fill-rule:evenodd;stroke:#000000;stroke-width:2.0px;stroke-linecap:butt;stroke-linejoin:miter;stroke-opacity:1"/>
<path class="bond-11 atom-11 atom-12" d="M 928.5,624.4 L 1011.6,578.8" style="fill:none;fill-rule:evenodd;stroke:#000000;stroke-width:2.0px;stroke-linecap:butt;stroke-linejoin:miter;stroke-opacity:1"/>
<path class="bond-12 atom-12 atom-13" d="M 1011.6,578.8 L 1047.4,600.5" style="fill:none;fill-rule:evenodd;stroke:#000000;stroke-width:2.0px;stroke-linecap:butt;stroke-linejoin:miter;stroke-opacity:1"/>
<path class="bond-12 atom-12 atom-13" d="M 1047.4,600.5 L 1083.2,622.3" style="fill:none;fill-rule:evenodd;stroke:#191919;stroke-width:2.0px;stroke-linecap:butt;stroke-linejoin:miter;stroke-opacity:1"/>
<path class="bond-13 atom-12 atom-14" d="M 1018.6,583.1 L 1019.5,542.2" style="fill:none;fill-rule:evenodd;stroke:#000000;stroke-width:2.0px;stroke-linecap:butt;stroke-linejoin:miter;stroke-opacity:1"/>
<path class="bond-13 atom-12 atom-14" d="M 1019.5,542.2 L 1020.4,501.3" style="fill:none;fill-rule:evenodd;stroke:#FF0000;stroke-width:2.0px;stroke-linecap:butt;stroke-linejoin:miter;stroke-opacity:1"/>
<path class="bond-13 atom-12 atom-14" d="M 1004.4,582.8 L 1005.3,541.9" style="fill:none;fill-rule:evenodd;stroke:#000000;stroke-width:2.0px;stroke-linecap:butt;stroke-linejoin:miter;stroke-opacity:1"/>
<path class="bond-13 atom-12 atom-14" d="M 1005.3,541.9 L 1006.2,501.0" style="fill:none;fill-rule:evenodd;stroke:#FF0000;stroke-width:2.0px;stroke-linecap:butt;stroke-linejoin:miter;stroke-opacity:1"/>
<path d="M 188.6,561.7 L 190.5,560.7 L 192.1,561.7" style="fill:none;stroke:#000000;stroke-width:2.0px;stroke-linecap:butt;stroke-linejoin:miter;stroke-opacity:1;"/>
<path d="M 353.0,565.3 L 354.7,564.3 L 358.8,566.8" style="fill:none;stroke:#000000;stroke-width:2.0px;stroke-linecap:butt;stroke-linejoin:miter;stroke-opacity:1;"/>
<path d="M 431.7,611.1 L 435.8,613.5 L 439.9,611.3" style="fill:none;stroke:#000000;stroke-width:2.0px;stroke-linecap:butt;stroke-linejoin:miter;stroke-opacity:1;"/>
<path d="M 514.8,570.2 L 518.9,567.9 L 523.0,570.4" style="fill:none;stroke:#000000;stroke-width:2.0px;stroke-linecap:butt;stroke-linejoin:miter;stroke-opacity:1;"/>
<path d="M 595.9,614.7 L 600.0,617.2 L 601.7,616.2" style="fill:none;stroke:#000000;stroke-width:2.0px;stroke-linecap:butt;stroke-linejoin:miter;stroke-opacity:1;"/>
<path d="M 762.6,619.8 L 764.2,620.8 L 768.4,618.5" style="fill:none;stroke:#000000;stroke-width:2.0px;stroke-linecap:butt;stroke-linejoin:miter;stroke-opacity:1;"/>
<path d="M 843.2,577.5 L 847.4,575.2 L 851.4,577.6" style="fill:none;stroke:#000000;stroke-width:2.0px;stroke-linecap:butt;stroke-linejoin:miter;stroke-opacity:1;"/>
<path d="M 924.4,621.9 L 928.5,624.4 L 932.6,622.1" style="fill:none;stroke:#000000;stroke-width:2.0px;stroke-linecap:butt;stroke-linejoin:miter;stroke-opacity:1;"/>
<path d="M 1007.5,581.1 L 1011.6,578.8 L 1013.4,579.9" style="fill:none;stroke:#000000;stroke-width:2.0px;stroke-linecap:butt;stroke-linejoin:miter;stroke-opacity:1;"/>
<path class="atom-0" d="M 102.2 603.3 L 106.2 599.3 L 101.0 598.2 L 101.7 595.5 L 106.6 598.0 L 105.9 592.7 L 108.7 592.6 L 107.9 597.9 L 112.8 595.6 L 113.7 598.2 L 108.3 599.2 L 112.1 603.3 L 109.8 604.9 L 107.2 599.9 L 104.6 604.9 L 102.2 603.3 " fill="#191919"/>
<path class="atom-2" d="M 259.2 610.0 Q 259.2 603.5, 262.4 599.9 Q 265.6 596.3, 271.5 596.3 Q 277.5 596.3, 280.7 599.9 Q 283.9 603.5, 283.9 610.0 Q 283.9 616.5, 280.6 620.2 Q 277.4 623.9, 271.5 623.9 Q 265.6 623.9, 262.4 620.2 Q 259.2 616.6, 259.2 610.0 M 271.5 620.9 Q 275.6 620.9, 277.8 618.2 Q 280.1 615.4, 280.1 610.0 Q 280.1 604.7, 277.8 602.1 Q 275.6 599.4, 271.5 599.4 Q 267.4 599.4, 265.2 602.0 Q 263.0 604.7, 263.0 610.0 Q 263.0 615.4, 265.2 618.2 Q 267.4 620.9, 271.5 620.9 " fill="#FF0000"/>
<path class="atom-7" d="M 670.8 571.6 Q 670.8 565.2, 674.0 561.6 Q 677.2 558.0, 683.2 558.0 Q 689.1 558.0, 692.3 561.6 Q 695.5 565.2, 695.5 571.6 Q 695.5 578.2, 692.3 581.9 Q 689.0 585.6, 683.2 585.6 Q 677.2 585.6, 674.0 581.9 Q 670.8 578.2, 670.8 571.6 M 683.2 582.5 Q 687.3 582.5, 689.5 579.8 Q 691.7 577.0, 691.7 571.6 Q 691.7 566.4, 689.5 563.7 Q 687.3 561.0, 683.2 561.0 Q 679.1 561.0, 676.8 563.7 Q 674.6 566.3, 674.6 571.6 Q 674.6 577.1, 676.8 579.8 Q 679.1 582.5, 683.2 582.5 " fill="#FF0000"/>
<path class="atom-9" d="M 749.8 715.7 Q 749.8 709.2, 753.0 705.6 Q 756.2 702.0, 762.1 702.0 Q 768.1 702.0, 771.3 705.6 Q 774.5 709.2, 774.5 715.7 Q 774.5 722.2, 771.2 725.9 Q 768.0 729.6, 762.1 729.6 Q 756.2 729.6, 753.0 725.9 Q 749.8 722.2, 749.8 715.7 M 762.1 726.6 Q 766.2 726.6, 768.4 723.8 Q 770.7 721.1, 770.7 715.7 Q 770.7 710.4, 768.4 707.7 Q 766.2 705.1, 762.1 705.1 Q 758.0 705.1, 755.8 707.7 Q 753.6 710.4, 753.6 715.7 Q 753.6 721.1, 755.8 723.8 Q 758.0 726.6, 762.1 726.6 " fill="#FF0000"/>
<path class="atom-13" d="M 1087.6 625.0 L 1091.6 621.0 L 1086.3 619.9 L 1087.1 617.2 L 1092.0 619.7 L 1091.3 614.4 L 1094.1 614.4 L 1093.3 619.6 L 1098.2 617.4 L 1099.0 619.9 L 1093.7 620.9 L 1097.5 625.0 L 1095.2 626.7 L 1092.6 621.6 L 1089.9 626.7 L 1087.6 625.0 " fill="#191919"/>
<path class="atom-14" d="M 1001.4 484.1 Q 1001.4 477.6, 1004.6 474.0 Q 1007.8 470.4, 1013.7 470.4 Q 1019.7 470.4, 1022.9 474.0 Q 1026.0 477.6, 1026.0 484.1 Q 1026.0 490.6, 1022.8 494.3 Q 1019.6 498.0, 1013.7 498.0 Q 1007.8 498.0, 1004.6 494.3 Q 1001.4 490.6, 1001.4 484.1 M 1013.7 494.9 Q 1017.8 494.9, 1020.0 492.2 Q 1022.2 489.4, 1022.2 484.1 Q 1022.2 478.8, 1020.0 476.1 Q 1017.8 473.4, 1013.7 473.4 Q 1009.6 473.4, 1007.4 476.1 Q 1005.2 478.7, 1005.2 484.1 Q 1005.2 489.5, 1007.4 492.2 Q 1009.6 494.9, 1013.7 494.9 " fill="#FF0000"/>
</svg>