<svg xmlns="http://www.w3.org/2000/svg" xmlns:rdkit="http://www.rdkit.org/xml" xmlns:xlink="http://www.w3.org/1999/xlink" version="1.1" baseProfile="full" xml:space="preserve" width="1200px" height="800px" viewBox="0 0 1200 800">
<!-- END OF HEADER -->
<rect style="opacity:1.0;fill:#FFFFFF;stroke:none" width="1200.0" height="800.0" x="0.0" y="0.0"> </rect>
<path class="bond-0 atom-0 atom-1" d="M 184.6,119.6 L 207.9,141.9" style="fill:none;fill-rule:evenodd;stroke:#191919;stroke-width:2.0px;stroke-linecap:butt;stroke-linejoin:miter;stroke-opacity:1"/>
<path class="bond-0 atom-0 atom-1" d="M 207.9,141.9 L 231.2,164.1" style="fill:none;fill-rule:evenodd;stroke:#FF0000;stroke-width:2.0px;stroke-linecap:butt;stroke-linejoin:miter;stroke-opacity:1"/>
<path class="bond-1 atom-1 atom-2" d="M 259.3,173.4 L 293.7,163.4" style="fill:none;fill-rule:evenodd;stroke:#FF0000;stroke-width:2.0px;stroke-linecap:butt;stroke-linejoin:miter;stroke-opacity:1"/>
<path class="bond-1 atom-1 atom-2" d="M 293.7,163.4 L 328.1,153.3" style="fill:none;fill-rule:evenodd;stroke:#000000;stroke-width:2.0px;stroke-linecap:butt;stroke-linejoin:miter;stroke-opacity:1"/>
<path class="bond-2 atom-2 atom-3" d="M 328.1,153.3 L 390.5,212.8" style="fill:none;fill-rule:evenodd;stroke:#000000;stroke-width:2.0px;stroke-linecap:butt;stroke-linejoin:miter;stroke-opacity:1"/>
<path class="bond-3 atom-3 atom-4" d="M 390.5,212.8 L 473.3,188.6" style="fill:none;fill-rule:evenodd;stroke:#000000;stroke-width:2.0px;stroke-linecap:butt;stroke-linejoin:miter;stroke-opacity:1"/>
<path class="bond-4 atom-4 atom-5" d="M 473.3,188.6 L 535.7,248.1" style="fill:none;fill-rule:evenodd;stroke:#000000;stroke-width:2.0px;stroke-linecap:butt;stroke-linejoin:miter;stroke-opacity:1"/>
<path class="bond-5 atom-5 atom-6" d="M 535.7,248.1 L 570.0,238.1" style="fill:none;fill-rule:evenodd;stroke:#000000;stroke-width:2.0px;stroke-linecap:butt;stroke-linejoin:miter;stroke-opacity:1"/>
<path class="bond-5 atom-5 atom-6" d="M 570.0,238.1 L 604.4,228.0" style="fill:none;fill-rule:evenodd;stroke:#FF0000;stroke-width:2.0px;stroke-linecap:butt;stroke-linejoin:miter;stroke-opacity:1"/>
<path class="bond-6 atom-6 atom-7" d="M 632.5,237.3 L 656.7,260.4" style="fill:none;fill-rule:evenodd;stroke:#FF0000;stroke-width:2.0px;stroke-linecap:butt;stroke-linejoin:miter;stroke-opacity:1"/>
<path class="bond-6 atom-6 atom-7" d="M 656.7,260.4 L 680.9,283.4" style="fill:none;fill-rule:evenodd;stroke:#000000;stroke-width:2.0px;stroke-linecap:butt;stroke-linejoin:miter;stroke-opacity:1"/>
<path class="bond-7 atom-7 atom-8" d="M 675.5,278.3 L 666.7,314.4" style="fill:none;fill-rule:evenodd;stroke:#000000;stroke-width:2.0px;stroke-linecap:butt;stroke-linejoin:miter;stroke-opacity:1"/>
<path class="bond-7 atom-7 atom-8" d="M 666.7,314.4 L 657.9,350.5" style="fill:none;fill-rule:evenodd;stroke:#FF0000;stroke-width:2.0px;stroke-linecap:butt;stroke-linejoin:miter;stroke-opacity:1"/>
<path class="bond-7 atom-7 atom-8" d="M 688.0,281.3 L 679.3,317.5" style="fill:none;fill-rule:evenodd;stroke:#000000;stroke-width:2.0px;stroke-linecap:butt;stroke-linejoin:miter;stroke-opacity:1"/>
<path class="bond-7 atom-7 atom-8" d="M 679.3,317.5 L 670.5,353.6" style="fill:none;fill-rule:evenodd;stroke:#FF0000;stroke-width:2.0px;stroke-linecap:butt;stroke-linejoin:miter;stroke-opacity:1"/>
<path class="bond-8 atom-7 atom-9" d="M 680.9,283.4 L 763.7,259.2" style="fill:none;fill-rule:evenodd;stroke:#000000;stroke-width:2.0px;stroke-linecap:butt;stroke-linejoin:miter;stroke-opacity:1"/>
<path class="bond-9 atom-9 atom-10" d="M 763.7,259.2 L 831.9,311.9" style="fill:none;fill-rule:evenodd;stroke:#000000;stroke-width:2.0px;stroke-linecap:butt;stroke-linejoin:miter;stroke-opacity:1"/>
<path class="bond-9 atom-9 atom-10" d="M 779.0,254.7 L 832.4,295.9" style="fill:none;fill-rule:evenodd;stroke:#000000;stroke-width:2.0px;stroke-linecap:butt;stroke-linejoin:miter;stroke-opacity:1"/>
<path class="bond-10 atom-10 atom-11" d="M 831.9,311.9 L 903.2,263.2" style="fill:none;fill-rule:evenodd;stroke:#000000;stroke-width:2.0px;stroke-linecap:butt;stroke-linejoin:miter;stroke-opacity:1"/>
<path class="bond-11 atom-11 atom-12" d="M 903.2,263.2 L 878.9,180.4" style="fill:none;fill-rule:evenodd;stroke:#000000;stroke-width:2.0px;stroke-linecap:butt;stroke-linejoin:miter;stroke-opacity:1"/>
<path class="bond-11 atom-11 atom-12" d="M 888.1,257.8 L 869.1,193.1" style="fill:none;fill-rule:evenodd;stroke:#000000;stroke-width:2.0px;stroke-linecap:butt;stroke-linejoin:miter;stroke-opacity:1"/>
<path class="bond-12 atom-12 atom-13" d="M 878.9,180.4 L 931.6,112.1" style="fill:none;fill-rule:evenodd;stroke:#000000;stroke-width:2.0px;stroke-linecap:butt;stroke-linejoin:miter;stroke-opacity:1"/>
<path class="bond-13 atom-13 atom-14" d="M 931.6,112.1 L 970.1,117.3" style="fill:none;fill-rule:evenodd;stroke:#000000;stroke-width:2.0px;stroke-linecap:butt;stroke-linejoin:miter;stroke-opacity:1"/>
<path class="bond-13 atom-13 atom-14" d="M 970.1,117.3 L 1008.5,122.5" style="fill:none;fill-rule:evenodd;stroke:#191919;stroke-width:2.0px;stroke-linecap:butt;stroke-linejoin:miter;stroke-opacity:1"/>
<path class="bond-14 atom-13 atom-15" d="M 939.0,113.1 L 925.1,79.3" style="fill:none;fill-rule:evenodd;stroke:#000000;stroke-width:2.0px;stroke-linecap:butt;stroke-linejoin:miter;stroke-opacity:1"/>
<path class="bond-14 atom-13 atom-15" d="M 925.1,79.3 L 911.2,45.5" style="fill:none;fill-rule:evenodd;stroke:#FF0000;stroke-width:2.0px;stroke-linecap:butt;stroke-linejoin:miter;stroke-opacity:1"/>
<path class="bond-14 atom-13 atom-15" d="M 927.1,118.1 L 913.2,84.2" style="fill:none;fill-rule:evenodd;stroke:#000000;stroke-width:2.0px;stroke-linecap:butt;stroke-linejoin:miter;stroke-opacity:1"/>
<path class="bond-14 atom-13 atom-15" d="M 913.2,84.2 L 899.3,50.4" style="fill:none;fill-rule:evenodd;stroke:#FF0000;stroke-width:2.0px;stroke-linecap:butt;stroke-linejoin:miter;stroke-opacity:1"/>
<path class="bond-15 atom-12 atom-16" d="M 878.9,180.4 L 842.8,179.4" style="fill:none;fill-rule:evenodd;stroke:#000000;stroke-width:2.0px;stroke-linecap:butt;stroke-linejoin:miter;stroke-opacity:1"/>
<path class="bond-15 atom-12 atom-16" d="M 842.8,179.4 L 806.7,178.3" style="fill:none;fill-rule:evenodd;stroke:#FF0000;stroke-width:2.0px;stroke-linecap:butt;stroke-linejoin:miter;stroke-opacity:1"/>
<path class="bond-16 atom-16 atom-9" d="M 787.1,193.5 L 775.4,226.3" style="fill:none;fill-rule:evenodd;stroke:#FF0000;stroke-width:2.0px;stroke-linecap:butt;stroke-linejoin:miter;stroke-opacity:1"/>
<path class="bond-16 atom-16 atom-9" d="M 775.4,226.3 L 763.7,259.2" style="fill:none;fill-rule:evenodd;stroke:#000000;stroke-width:2.0px;stroke-linecap:butt;stroke-linejoin:miter;stroke-opacity:1"/>
<path d="M 326.4,153.8 L 328.1,153.3 L 331.2,156.3" style="fill:none;stroke:#000000;stroke-width:2.0px;stroke-linecap:butt;stroke-linejoin:miter;stroke-opacity:1;"/>
<path d="M 387.4,209.9 L 390.5,212.8 L 394.6,211.6" style="fill:none;stroke:#000000;stroke-width:2.0px;stroke-linecap:butt;stroke-linejoin:miter;stroke-opacity:1;"/>
<path d="M 469.1,189.8 L 473.3,188.6 L 476.4,191.6" style="fill:none;stroke:#000000;stroke-width:2.0px;stroke-linecap:butt;stroke-linejoin:miter;stroke-opacity:1;"/>
<path d="M 532.6,245.2 L 535.7,248.1 L 537.4,247.6" style="fill:none;stroke:#000000;stroke-width:2.0px;stroke-linecap:butt;stroke-linejoin:miter;stroke-opacity:1;"/>
<path d="M 679.7,282.3 L 680.9,283.4 L 685.0,282.2" style="fill:none;stroke:#000000;stroke-width:2.0px;stroke-linecap:butt;stroke-linejoin:miter;stroke-opacity:1;"/>
<path d="M 828.5,309.3 L 831.9,311.9 L 835.5,309.5" style="fill:none;stroke:#000000;stroke-width:2.0px;stroke-linecap:butt;stroke-linejoin:miter;stroke-opacity:1;"/>
<path d="M 899.6,265.7 L 903.2,263.2 L 902.0,259.1" style="fill:none;stroke:#000000;stroke-width:2.0px;stroke-linecap:butt;stroke-linejoin:miter;stroke-opacity:1;"/>
<path d="M 929.0,115.6 L 931.6,112.1 L 933.5,112.4" style="fill:none;stroke:#000000;stroke-width:2.0px;stroke-linecap:butt;stroke-linejoin:miter;stroke-opacity:1;"/>
<path class="atom-0" d="M 178.3 115.3 L 181.9 111.6 L 177.1 110.6 L 177.8 108.2 L 182.2 110.4 L 181.6 105.6 L 184.2 105.6 L 183.4 110.4 L 187.9 108.3 L 188.7 110.6 L 183.8 111.5 L 187.3 115.2 L 185.2 116.7 L 182.8 112.2 L 180.4 116.7 L 178.3 115.3 " fill="#191919"/>
<path class="atom-1" d="M 234.1 177.6 Q 234.1 171.8, 237.0 168.5 Q 239.9 165.2, 245.3 165.2 Q 250.7 165.2, 253.6 168.5 Q 256.5 171.8, 256.5 177.6 Q 256.5 183.6, 253.6 186.9 Q 250.6 190.3, 245.3 190.3 Q 239.9 190.3, 237.0 186.9 Q 234.1 183.6, 234.1 177.6 M 245.3 187.5 Q 249.0 187.5, 251.0 185.0 Q 253.1 182.5, 253.1 177.6 Q 253.1 172.8, 251.0 170.4 Q 249.0 168.0, 245.3 168.0 Q 241.6 168.0, 239.5 170.4 Q 237.5 172.8, 237.5 177.6 Q 237.5 182.6, 239.5 185.0 Q 241.6 187.5, 245.3 187.5 " fill="#FF0000"/>
<path class="atom-6" d="M 607.2 223.9 Q 607.2 218.1, 610.1 214.8 Q 613.0 211.5, 618.5 211.5 Q 623.9 211.5, 626.8 214.8 Q 629.7 218.1, 629.7 223.9 Q 629.7 229.9, 626.7 233.3 Q 623.8 236.6, 618.5 236.6 Q 613.1 236.6, 610.1 233.3 Q 607.2 229.9, 607.2 223.9 M 618.5 233.9 Q 622.2 233.9, 624.2 231.4 Q 626.2 228.8, 626.2 223.9 Q 626.2 219.2, 624.2 216.7 Q 622.2 214.3, 618.5 214.3 Q 614.7 214.3, 612.7 216.7 Q 610.7 219.1, 610.7 223.9 Q 610.7 228.9, 612.7 231.4 Q 614.7 233.9, 618.5 233.9 " fill="#FF0000"/>
<path class="atom-8" d="M 649.3 367.3 Q 649.3 361.5, 652.2 358.2 Q 655.1 354.9, 660.5 354.9 Q 665.9 354.9, 668.8 358.2 Q 671.7 361.5, 671.7 367.3 Q 671.7 373.3, 668.8 376.7 Q 665.8 380.0, 660.5 380.0 Q 655.1 380.0, 652.2 376.7 Q 649.3 373.3, 649.3 367.3 M 660.5 377.2 Q 664.2 377.2, 666.2 374.8 Q 668.3 372.2, 668.3 367.3 Q 668.3 362.5, 666.2 360.1 Q 664.2 357.7, 660.5 357.7 Q 656.8 357.7, 654.7 360.1 Q 652.7 362.5, 652.7 367.3 Q 652.7 372.3, 654.7 374.8 Q 656.8 377.2, 660.5 377.2 " fill="#FF0000"/>
<path class="atom-14" d="M 1012.5 120.9 L 1016.1 117.3 L 1011.3 116.3 L 1012.1 113.9 L 1016.4 116.1 L 1015.8 111.3 L 1018.4 111.2 L 1017.7 116.0 L 1022.1 114.0 L 1022.9 116.3 L 1018.1 117.2 L 1021.5 120.9 L 1019.4 122.4 L 1017.0 117.9 L 1014.6 122.4 L 1012.5 120.9 " fill="#191919"/>
<path class="atom-15" d="M 887.6 32.4 Q 887.6 26.6, 890.5 23.3 Q 893.4 20.0, 898.8 20.0 Q 904.3 20.0, 907.2 23.3 Q 910.1 26.6, 910.1 32.4 Q 910.1 38.4, 907.1 41.7 Q 904.2 45.1, 898.8 45.1 Q 893.5 45.1, 890.5 41.7 Q 887.6 38.4, 887.6 32.4 M 898.8 42.3 Q 902.6 42.3, 904.6 39.8 Q 906.6 37.3, 906.6 32.4 Q 906.6 27.6, 904.6 25.2 Q 902.6 22.8, 898.8 22.8 Q 895.1 22.8, 893.1 25.2 Q 891.1 27.6, 891.1 32.4 Q 891.1 37.4, 893.1 39.8 Q 895.1 42.3, 898.8 42.3 " fill="#FF0000"/>
<path class="atom-16" d="M 781.5 178.0 Q 781.5 172.1, 784.4 168.9 Q 787.3 165.6, 792.7 165.6 Q 798.1 165.6, 801.0 168.9 Q 803.9 172.1, 803.9 178.0 Q 803.9 183.9, 801.0 187.3 Q 798.0 190.7, 792.7 190.7 Q 787.3 190.7, 784.4 187.3 Q 781.5 184.0, 781.5 178.0 M 792.7 187.9 Q 796.4 187.9, 798.4 185.4 Q 800.4 182.9, 800.4 178.0 Q 800.4 173.2, 798.4 170.8 Q 796.4 168.3, 792.7 168.3 Q 789.0 168.3, 786.9 170.8 Q 784.9 173.2, 784.9 178.0 Q 784.9 182.9, 786.9 185.4 Q 789.0 187.9, 792.7 187.9 " fill="#FF0000"/>
<path class="bond-0 atom-0 atom-1" d="M 1082.4,565.1 L 1053.9,582.4" style="fill:none;fill-rule:evenodd;stroke:#191919;stroke-width:2.0px;stroke-linecap:butt;stroke-linejoin:miter;stroke-opacity:1"/>
<path class="bond-0 atom-0 atom-1" d="M 1053.9,582.4 L 1025.3,599.7" style="fill:none;fill-rule:evenodd;stroke:#FF0000;stroke-width:2.0px;stroke-linecap:butt;stroke-linejoin:miter;stroke-opacity:1"/>
<path class="bond-1 atom-1 atom-2" d="M 997.2,600.5 L 966.4,583.5" style="fill:none;fill-rule:evenodd;stroke:#FF0000;stroke-width:2.0px;stroke-linecap:butt;stroke-linejoin:miter;stroke-opacity:1"/>
<path class="bond-1 atom-1 atom-2" d="M 966.4,583.5 L 935.7,566.6" style="fill:none;fill-rule:evenodd;stroke:#000000;stroke-width:2.0px;stroke-linecap:butt;stroke-linejoin:miter;stroke-opacity:1"/>
<path class="bond-2 atom-2 atom-3" d="M 935.7,566.6 L 861.9,611.3" style="fill:none;fill-rule:evenodd;stroke:#000000;stroke-width:2.0px;stroke-linecap:butt;stroke-linejoin:miter;stroke-opacity:1"/>
<path class="bond-3 atom-3 atom-4" d="M 861.9,611.3 L 786.3,569.7" style="fill:none;fill-rule:evenodd;stroke:#000000;stroke-width:2.0px;stroke-linecap:butt;stroke-linejoin:miter;stroke-opacity:1"/>
<path class="bond-4 atom-4 atom-5" d="M 786.3,569.7 L 712.5,614.4" style="fill:none;fill-rule:evenodd;stroke:#000000;stroke-width:2.0px;stroke-linecap:butt;stroke-linejoin:miter;stroke-opacity:1"/>
<path class="bond-5 atom-5 atom-6" d="M 712.5,614.4 L 681.7,597.5" style="fill:none;fill-rule:evenodd;stroke:#000000;stroke-width:2.0px;stroke-linecap:butt;stroke-linejoin:miter;stroke-opacity:1"/>
<path class="bond-5 atom-5 atom-6" d="M 681.7,597.5 L 651.0,580.6" style="fill:none;fill-rule:evenodd;stroke:#FF0000;stroke-width:2.0px;stroke-linecap:butt;stroke-linejoin:miter;stroke-opacity:1"/>
<path class="bond-6 atom-6 atom-7" d="M 622.8,581.3 L 593.0,599.4" style="fill:none;fill-rule:evenodd;stroke:#FF0000;stroke-width:2.0px;stroke-linecap:butt;stroke-linejoin:miter;stroke-opacity:1"/>
<path class="bond-6 atom-6 atom-7" d="M 593.0,599.4 L 563.1,617.5" style="fill:none;fill-rule:evenodd;stroke:#000000;stroke-width:2.0px;stroke-linecap:butt;stroke-linejoin:miter;stroke-opacity:1"/>
<path class="bond-7 atom-7 atom-8" d="M 556.6,613.9 L 557.3,651.3" style="fill:none;fill-rule:evenodd;stroke:#000000;stroke-width:2.0px;stroke-linecap:butt;stroke-linejoin:miter;stroke-opacity:1"/>
<path class="bond-7 atom-7 atom-8" d="M 557.3,651.3 L 558.1,688.7" style="fill:none;fill-rule:evenodd;stroke:#FF0000;stroke-width:2.0px;stroke-linecap:butt;stroke-linejoin:miter;stroke-opacity:1"/>
<path class="bond-7 atom-7 atom-8" d="M 569.5,613.6 L 570.3,651.0" style="fill:none;fill-rule:evenodd;stroke:#000000;stroke-width:2.0px;stroke-linecap:butt;stroke-linejoin:miter;stroke-opacity:1"/>
<path class="bond-7 atom-7 atom-8" d="M 570.3,651.0 L 571.0,688.4" style="fill:none;fill-rule:evenodd;stroke:#FF0000;stroke-width:2.0px;stroke-linecap:butt;stroke-linejoin:miter;stroke-opacity:1"/>
<path class="bond-8 atom-7 atom-9" d="M 563.1,617.5 L 487.5,575.9" style="fill:none;fill-rule:evenodd;stroke:#000000;stroke-width:2.0px;stroke-linecap:butt;stroke-linejoin:miter;stroke-opacity:1"/>
<path class="bond-9 atom-9 atom-10" d="M 487.5,575.9 L 413.7,620.6" style="fill:none;fill-rule:evenodd;stroke:#000000;stroke-width:2.0px;stroke-linecap:butt;stroke-linejoin:miter;stroke-opacity:1"/>
<path class="bond-10 atom-10 atom-11" d="M 413.7,620.6 L 338.1,579.0" style="fill:none;fill-rule:evenodd;stroke:#000000;stroke-width:2.0px;stroke-linecap:butt;stroke-linejoin:miter;stroke-opacity:1"/>
<path class="bond-11 atom-11 atom-12" d="M 338.1,579.0 L 264.3,623.7" style="fill:none;fill-rule:evenodd;stroke:#000000;stroke-width:2.0px;stroke-linecap:butt;stroke-linejoin:miter;stroke-opacity:1"/>
<path class="bond-12 atom-12 atom-13" d="M 264.3,623.7 L 188.7,582.1" style="fill:none;fill-rule:evenodd;stroke:#000000;stroke-width:2.0px;stroke-linecap:butt;stroke-linejoin:miter;stroke-opacity:1"/>
<path class="bond-13 atom-13 atom-14" d="M 188.7,582.1 L 156.1,601.8" style="fill:none;fill-rule:evenodd;stroke:#000000;stroke-width:2.0px;stroke-linecap:butt;stroke-linejoin:miter;stroke-opacity:1"/>
<path class="bond-13 atom-13 atom-14" d="M 156.1,601.8 L 123.6,621.6" style="fill:none;fill-rule:evenodd;stroke:#191919;stroke-width:2.0px;stroke-linecap:butt;stroke-linejoin:miter;stroke-opacity:1"/>
<path class="bond-14 atom-13 atom-15" d="M 195.3,585.7 L 194.5,548.5" style="fill:none;fill-rule:evenodd;stroke:#000000;stroke-width:2.0px;stroke-linecap:butt;stroke-linejoin:miter;stroke-opacity:1"/>
<path class="bond-14 atom-13 atom-15" d="M 194.5,548.5 L 193.7,511.3" style="fill:none;fill-rule:evenodd;stroke:#FF0000;stroke-width:2.0px;stroke-linecap:butt;stroke-linejoin:miter;stroke-opacity:1"/>
<path class="bond-14 atom-13 atom-15" d="M 182.3,586.0 L 181.6,548.8" style="fill:none;fill-rule:evenodd;stroke:#000000;stroke-width:2.0px;stroke-linecap:butt;stroke-linejoin:miter;stroke-opacity:1"/>
<path class="bond-14 atom-13 atom-15" d="M 181.6,548.8 L 180.8,511.6" style="fill:none;fill-rule:evenodd;stroke:#FF0000;stroke-width:2.0px;stroke-linecap:butt;stroke-linejoin:miter;stroke-opacity:1"/>
<path d="M 937.2,567.5 L 935.7,566.6 L 932.0,568.9" style="fill:none;stroke:#000000;stroke-width:2.0px;stroke-linecap:butt;stroke-linejoin:miter;stroke-opacity:1;"/>
<path d="M 865.6,609.1 L 861.9,611.3 L 858.1,609.2" style="fill:none;stroke:#000000;stroke-width:2.0px;stroke-linecap:butt;stroke-linejoin:miter;stroke-opacity:1;"/>
<path d="M 790.1,571.8 L 786.3,569.7 L 782.6,572.0" style="fill:none;stroke:#000000;stroke-width:2.0px;stroke-linecap:butt;stroke-linejoin:miter;stroke-opacity:1;"/>
<path d="M 716.2,612.2 L 712.5,614.4 L 711.0,613.6" style="fill:none;stroke:#000000;stroke-width:2.0px;stroke-linecap:butt;stroke-linejoin:miter;stroke-opacity:1;"/>
<path d="M 564.6,616.6 L 563.1,617.5 L 559.3,615.4" style="fill:none;stroke:#000000;stroke-width:2.0px;stroke-linecap:butt;stroke-linejoin:miter;stroke-opacity:1;"/>
<path d="M 491.3,578.0 L 487.5,575.9 L 483.8,578.2" style="fill:none;stroke:#000000;stroke-width:2.0px;stroke-linecap:butt;stroke-linejoin:miter;stroke-opacity:1;"/>
<path d="M 417.4,618.4 L 413.7,620.6 L 409.9,618.5" style="fill:none;stroke:#000000;stroke-width:2.0px;stroke-linecap:butt;stroke-linejoin:miter;stroke-opacity:1;"/>
<path d="M 341.9,581.1 L 338.1,579.0 L 334.4,581.3" style="fill:none;stroke:#000000;stroke-width:2.0px;stroke-linecap:butt;stroke-linejoin:miter;stroke-opacity:1;"/>
<path d="M 268.0,621.5 L 264.3,623.7 L 260.5,621.6" style="fill:none;stroke:#000000;stroke-width:2.0px;stroke-linecap:butt;stroke-linejoin:miter;stroke-opacity:1;"/>
<path d="M 192.5,584.2 L 188.7,582.1 L 187.1,583.1" style="fill:none;stroke:#000000;stroke-width:2.0px;stroke-linecap:butt;stroke-linejoin:miter;stroke-opacity:1;"/>
<path class="atom-0" d="M 1080.5 560.8 L 1084.0 557.1 L 1079.3 556.2 L 1080.0 553.7 L 1084.4 555.9 L 1083.8 551.1 L 1086.4 551.1 L 1085.6 555.9 L 1090.1 553.8 L 1090.8 556.2 L 1086.0 557.1 L 1089.5 560.8 L 1087.4 562.3 L 1085.0 557.7 L 1082.6 562.3 L 1080.5 560.8 " fill="#191919"/>
<path class="atom-1" d="M 1000.1 608.3 Q 1000.1 602.4, 1003.0 599.1 Q 1005.9 595.9, 1011.3 595.9 Q 1016.7 595.9, 1019.6 599.1 Q 1022.5 602.4, 1022.5 608.3 Q 1022.5 614.2, 1019.5 617.6 Q 1016.6 620.9, 1011.3 620.9 Q 1005.9 620.9, 1003.0 617.6 Q 1000.1 614.2, 1000.1 608.3 M 1011.3 618.2 Q 1015.0 618.2, 1017.0 615.7 Q 1019.0 613.2, 1019.0 608.3 Q 1019.0 603.5, 1017.0 601.1 Q 1015.0 598.6, 1011.3 598.6 Q 1007.5 598.6, 1005.5 601.0 Q 1003.5 603.4, 1003.5 608.3 Q 1003.5 613.2, 1005.5 615.7 Q 1007.5 618.2, 1011.3 618.2 " fill="#FF0000"/>
<path class="atom-6" d="M 625.7 572.9 Q 625.7 567.0, 628.6 563.7 Q 631.5 560.5, 636.9 560.5 Q 642.3 560.5, 645.2 563.7 Q 648.1 567.0, 648.1 572.9 Q 648.1 578.8, 645.2 582.2 Q 642.2 585.6, 636.9 585.6 Q 631.5 585.6, 628.6 582.2 Q 625.7 578.9, 625.7 572.9 M 636.9 582.8 Q 640.6 582.8, 642.6 580.3 Q 644.7 577.8, 644.7 572.9 Q 644.7 568.1, 642.6 565.7 Q 640.6 563.2, 636.9 563.2 Q 633.2 563.2, 631.1 565.6 Q 629.1 568.1, 629.1 572.9 Q 629.1 577.8, 631.1 580.3 Q 633.2 582.8, 636.9 582.8 " fill="#FF0000"/>
<path class="atom-8" d="M 553.7 703.8 Q 553.7 698.0, 556.6 694.7 Q 559.5 691.4, 564.9 691.4 Q 570.3 691.4, 573.2 694.7 Q 576.1 698.0, 576.1 703.8 Q 576.1 709.8, 573.2 713.1 Q 570.2 716.5, 564.9 716.5 Q 559.5 716.5, 556.6 713.1 Q 553.7 709.8, 553.7 703.8 M 564.9 713.7 Q 568.6 713.7, 570.6 711.2 Q 572.7 708.7, 572.7 703.8 Q 572.7 699.0, 570.6 696.6 Q 568.6 694.2, 564.9 694.2 Q 561.2 694.2, 559.1 696.6 Q 557.1 699.0, 557.1 703.8 Q 557.1 708.8, 559.1 711.2 Q 561.2 713.7, 564.9 713.7 " fill="#FF0000"/>
<path class="atom-14" d="M 110.3 624.1 L 113.9 620.4 L 109.2 619.4 L 109.9 617.0 L 114.3 619.2 L 113.6 614.4 L 116.2 614.4 L 115.5 619.2 L 120.0 617.1 L 120.7 619.4 L 115.9 620.3 L 119.3 624.0 L 117.2 625.6 L 114.8 621.0 L 112.4 625.6 L 110.3 624.1 " fill="#191919"/>
<path class="atom-15" d="M 175.7 495.9 Q 175.7 490.1, 178.6 486.8 Q 181.5 483.5, 186.9 483.5 Q 192.4 483.5, 195.3 486.8 Q 198.2 490.1, 198.2 495.9 Q 198.2 501.9, 195.2 505.3 Q 192.3 508.6, 186.9 508.6 Q 181.6 508.6, 178.6 505.3 Q 175.7 501.9, 175.7 495.9 M 186.9 505.8 Q 190.7 505.8, 192.7 503.4 Q 194.7 500.8, 194.7 495.9 Q 194.7 491.1, 192.7 488.7 Q 190.7 486.3, 186.9 486.3 Q 183.2 486.3, 181.2 488.7 Q 179.2 491.1, 179.2 495.9 Q 179.2 500.9, 181.2 503.4 Q 183.2 505.8, 186.9 505.8 " fill="#FF0000"/>
</svg>