<svg xmlns="http://www.w3.org/2000/svg" xmlns:rdkit="http://www.rdkit.org/xml" xmlns:xlink="http://www.w3.org/1999/xlink" version="1.1" baseProfile="full" xml:space="preserve" width="1200px" height="1200px" viewBox="0 0 1200 1200">
<!-- END OF HEADER -->
<rect style="opacity:1.0;fill:#FFFFFF;stroke:none" width="1200.0" height="1200.0" x="0.0" y="0.0"> </rect>
<path class="bond-0 atom-0 atom-1" d="M 184.6,119.6 L 207.9,141.9" style="fill:none;fill-rule:evenodd;stroke:#191919;stroke-width:2.0px;stroke-linecap:butt;stroke-linejoin:miter;stroke-opacity:1"/>
<path class="bond-0 atom-0 atom-1" d="M 207.9,141.9 L 231.2,164.1" style="fill:none;fill-rule:evenodd;stroke:#FF0000;stroke-width:2.0px;stroke-linecap:butt;stroke-linejoin:miter;stroke-opacity:1"/>
<path class="bond-1 atom-1 atom-2" d="M 259.3,173.4 L 293.7,163.4" style="fill:none;fill-rule:evenodd;stroke:#FF0000;stroke-width:2.0px;stroke-linecap:butt;stroke-linejoin:miter;stroke-opacity:1"/>
<path class="bond-1 atom-1 atom-2" d="M 293.7,163.4 L 328.1,153.3" style="fill:none;fill-rule:evenodd;stroke:#000000;stroke-width:2.0px;stroke-linecap:butt;stroke-linejoin:miter;stroke-opacity:1"/>
<path class="bond-2 atom-2 atom-3" d="M 328.1,153.3 L 390.5,212.8" style="fill:none;fill-rule:evenodd;stroke:#000000;stroke-width:2.0px;stroke-linecap:butt;stroke-linejoin:miter;stroke-opacity:1"/>
<path class="bond-3 atom-3 atom-4" d="M 390.5,212.8 L 473.3,188.6" style="fill:none;fill-rule:evenodd;stroke:#000000;stroke-width:2.0px;stroke-linecap:butt;stroke-linejoin:miter;stroke-opacity:1"/>
<path class="bond-4 atom-4 atom-5" d="M 473.3,188.6 L 535.7,248.1" style="fill:none;fill-rule:evenodd;stroke:#000000;stroke-width:2.0px;stroke-linecap:butt;stroke-linejoin:miter;stroke-opacity:1"/>
<path class="bond-5 atom-5 atom-6" d="M 535.7,248.1 L 570.0,238.1" style="fill:none;fill-rule:evenodd;stroke:#000000;stroke-width:2.0px;stroke-linecap:butt;stroke-linejoin:miter;stroke-opacity:1"/>
<path class="bond-5 atom-5 atom-6" d="M 570.0,238.1 L 604.4,228.0" style="fill:none;fill-rule:evenodd;stroke:#FF0000;stroke-width:2.0px;stroke-linecap:butt;stroke-linejoin:miter;stroke-opacity:1"/>
<path class="bond-6 atom-6 atom-7" d="M 632.5,237.3 L 656.7,260.4" style="fill:none;fill-rule:evenodd;stroke:#FF0000;stroke-width:2.0px;stroke-linecap:butt;stroke-linejoin:miter;stroke-opacity:1"/>
<path class="bond-6 atom-6 atom-7" d="M 656.7,260.4 L 680.9,283.4" style="fill:none;fill-rule:evenodd;stroke:#000000;stroke-width:2.0px;stroke-linecap:butt;stroke-linejoin:miter;stroke-opacity:1"/>
<path class="bond-7 atom-7 atom-8" d="M 675.5,278.3 L 666.7,314.4" style="fill:none;fill-rule:evenodd;stroke:#000000;stroke-width:2.0px;stroke-linecap:butt;stroke-linejoin:miter;stroke-opacity:1"/>
<path class="bond-7 atom-7 atom-8" d="M 666.7,314.4 L 657.9,350.5" style="fill:none;fill-rule:evenodd;stroke:#FF0000;stroke-width:2.0px;stroke-linecap:butt;stroke-linejoin:miter;stroke-opacity:1"/>
<path class="bond-7 atom-7 atom-8" d="M 688.0,281.3 L 679.3,317.5" style="fill:none;fill-rule:evenodd;stroke:#000000;stroke-width:2.0px;stroke-linecap:butt;stroke-linejoin:miter;stroke-opacity:1"/>
<path class="bond-7 atom-7 atom-8" d="M 679.3,317.5 L 670.5,353.6" style="fill:none;fill-rule:evenodd;stroke:#FF0000;stroke-width:2.0px;stroke-linecap:butt;stroke-linejoin:miter;stroke-opacity:1"/>
<path class="bond-8 atom-7 atom-9" d="M 680.9,283.4 L 763.7,259.2" style="fill:none;fill-rule:evenodd;stroke:#000000;stroke-width:2.0px;stroke-linecap:butt;stroke-linejoin:miter;stroke-opacity:1"/>
<path class="bond-9 atom-9 atom-10" d="M 763.7,259.2 L 831.9,311.9" style="fill:none;fill-rule:evenodd;stroke:#000000;stroke-width:2.0px;stroke-linecap:butt;stroke-linejoin:miter;stroke-opacity:1"/>
<path class="bond-9 atom-9 atom-10" d="M 779.0,254.7 L 832.4,295.9" style="fill:none;fill-rule:evenodd;stroke:#000000;stroke-width:2.0px;stroke-linecap:butt;stroke-linejoin:miter;stroke-opacity:1"/>
<path class="bond-10 atom-10 atom-11" d="M 831.9,311.9 L 903.2,263.2" style="fill:none;fill-rule:evenodd;stroke:#000000;stroke-width:2.0px;stroke-linecap:butt;stroke-linejoin:miter;stroke-opacity:1"/>
<path class="bond-11 atom-11 atom-12" d="M 903.2,263.2 L 878.9,180.4" style="fill:none;fill-rule:evenodd;stroke:#000000;stroke-width:2.0px;stroke-linecap:butt;stroke-linejoin:miter;stroke-opacity:1"/>
<path class="bond-11 atom-11 atom-12" d="M 888.1,257.8 L 869.1,193.1" style="fill:none;fill-rule:evenodd;stroke:#000000;stroke-width:2.0px;stroke-linecap:butt;stroke-linejoin:miter;stroke-opacity:1"/>
<path class="bond-12 atom-12 atom-13" d="M 878.9,180.4 L 931.6,112.1" style="fill:none;fill-rule:evenodd;stroke:#000000;stroke-width:2.0px;stroke-linecap:butt;stroke-linejoin:miter;stroke-opacity:1"/>
<path class="bond-13 atom-13 atom-14" d="M 931.6,112.1 L 970.1,117.3" style="fill:none;fill-rule:evenodd;stroke:#000000;stroke-width:2.0px;stroke-linecap:butt;stroke-linejoin:miter;stroke-opacity:1"/>
<path class="bond-13 atom-13 atom-14" d="M 970.1,117.3 L 1008.5,122.5" style="fill:none;fill-rule:evenodd;stroke:#191919;stroke-width:2.0px;stroke-linecap:butt;stroke-linejoin:miter;stroke-opacity:1"/>
<path class="bond-14 atom-13 atom-15" d="M 939.0,113.1 L 925.1,79.3" style="fill:none;fill-rule:evenodd;stroke:#000000;stroke-width:2.0px;stroke-linecap:butt;stroke-linejoin:miter;stroke-opacity:1"/>
<path class="bond-14 atom-13 atom-15" d="M 925.1,79.3 L 911.2,45.5" style="fill:none;fill-rule:evenodd;stroke:#FF0000;stroke-width:2.0px;stroke-linecap:butt;stroke-linejoin:miter;stroke-opacity:1"/>
<path class="bond-14 atom-13 atom-15" d="M 927.1,118.1 L 913.2,84.2" style="fill:none;fill-rule:evenodd;stroke:#000000;stroke-width:2.0px;stroke-linecap:butt;stroke-linejoin:miter;stroke-opacity:1"/>
<path class="bond-14 atom-13 atom-15" d="M 913.2,84.2 L 899.3,50.4" style="fill:none;fill-rule:evenodd;stroke:#FF0000;stroke-width:2.0px;stroke-linecap:butt;stroke-linejoin:miter;stroke-opacity:1"/>
<path class="bond-15 atom-12 atom-16" d="M 878.9,180.4 L 842.8,179.4" style="fill:none;fill-rule:evenodd;stroke:#000000;stroke-width:2.0px;stroke-linecap:butt;stroke-linejoin:miter;stroke-opacity:1"/>
<path class="bond-15 atom-12 atom-16" d="M 842.8,179.4 L 806.7,178.3" style="fill:none;fill-rule:evenodd;stroke:#FF0000;stroke-width:2.0px;stroke-linecap:butt;stroke-linejoin:miter;stroke-opacity:1"/>
<path class="bond-16 atom-16 atom-9" d="M 787.1,193.5 L 775.4,226.3" style="fill:none;fill-rule:evenodd;stroke:#FF0000;stroke-width:2.0px;stroke-linecap:butt;stroke-linejoin:miter;stroke-opacity:1"/>
<path class="bond-16 atom-16 atom-9" d="M 775.4,226.3 L 763.7,259.2" style="fill:none;fill-rule:evenodd;stroke:#000000;stroke-width:2.0px;stroke-linecap:butt;stroke-linejoin:miter;stroke-opacity:1"/>
<path d="M 326.4,153.8 L 328.1,153.3 L 331.2,156.3" style="fill:none;stroke:#000000;stroke-width:2.0px;stroke-linecap:butt;stroke-linejoin:miter;stroke-opacity:1;"/>
<path d="M 387.4,209.9 L 390.5,212.8 L 394.6,211.6" style="fill:none;stroke:#000000;stroke-width:2.0px;stroke-linecap:butt;stroke-linejoin:miter;stroke-opacity:1;"/>
<path d="M 469.1,189.8 L 473.3,188.6 L 476.4,191.6" style="fill:none;stroke:#000000;stroke-width:2.0px;stroke-linecap:butt;stroke-linejoin:miter;stroke-opacity:1;"/>
<path d="M 532.6,245.2 L 535.7,248.1 L 537.4,247.6" style="fill:none;stroke:#000000;stroke-width:2.0px;stroke-linecap:butt;stroke-linejoin:miter;stroke-opacity:1;"/>
<path d="M 679.7,282.3 L 680.9,283.4 L 685.0,282.2" style="fill:none;stroke:#000000;stroke-width:2.0px;stroke-linecap:butt;stroke-linejoin:miter;stroke-opacity:1;"/>
<path d="M 828.5,309.3 L 831.9,311.9 L 835.5,309.5" style="fill:none;stroke:#000000;stroke-width:2.0px;stroke-linecap:butt;stroke-linejoin:miter;stroke-opacity:1;"/>
<path d="M 899.6,265.7 L 903.2,263.2 L 902.0,259.1" style="fill:none;stroke:#000000;stroke-width:2.0px;stroke-linecap:butt;stroke-linejoin:miter;stroke-opacity:1;"/>
<path d="M 929.0,115.6 L 931.6,112.1 L 933.5,112.4" style="fill:none;stroke:#000000;stroke-width:2.0px;stroke-linecap:butt;stroke-linejoin:miter;stroke-opacity:1;"/>
<path class="atom-0" d="M 178.3 115.3 L 181.9 111.6 L 177.1 110.6 L 177.8 108.2 L 182.2 110.4 L 181.6 105.6 L 184.2 105.6 L 183.4 110.4 L 187.9 108.3 L 188.7 110.6 L 183.8 111.5 L 187.3 115.2 L 185.2 116.7 L 182.8 112.2 L 180.4 116.7 L 178.3 115.3 " fill="#191919"/>
<path class="atom-1" d="M 234.1 177.6 Q 234.1 171.8, 237.0 168.5 Q 239.9 165.2, 245.3 165.2 Q 250.7 165.2, 253.6 168.5 Q 256.5 171.8, 256.5 177.6 Q 256.5 183.6, 253.6 186.9 Q 250.6 190.3, 245.3 190.3 Q 239.9 190.3, 237.0 186.9 Q 234.1 183.6, 234.1 177.6 M 245.3 187.5 Q 249.0 187.5, 251.0 185.0 Q 253.1 182.5, 253.1 177.6 Q 253.1 172.8, 251.0 170.4 Q 249.0 168.0, 245.3 168.0 Q 241.6 168.0, 239.5 170.4 Q 237.5 172.8, 237.5 177.6 Q 237.5 182.6, 239.5 185.0 Q 241.6 187.5, 245.3 187.5 " fill="#FF0000"/>
<path class="atom-6" d="M 607.2 223.9 Q 607.2 218.1, 610.1 214.8 Q 613.0 211.5, 618.5 211.5 Q 623.9 211.5, 626.8 214.8 Q 629.7 218.1, 629.7 223.9 Q 629.7 229.9, 626.7 233.3 Q 623.8 236.6, 618.5 236.6 Q 613.1 236.6, 610.1 233.3 Q 607.2 229.9, 607.2 223.9 M 618.5 233.9 Q 622.2 233.9, 624.2 231.4 Q 626.2 228.8, 626.2 223.9 Q 626.2 219.2, 624.2 216.7 Q 622.2 214.3, 618.5 214.3 Q 614.7 214.3, 612.7 216.7 Q 610.7 219.1, 610.7 223.9 Q 610.7 228.9, 612.7 231.4 Q 614.7 233.9, 618.5 233.9 " fill="#FF0000"/>
<path class="atom-8" d="M 649.3 367.3 Q 649.3 361.5, 652.2 358.2 Q 655.1 354.9, 660.5 354.9 Q 665.9 354.9, 668.8 358.2 Q 671.7 361.5, 671.7 367.3 Q 671.7 373.3, 668.8 376.7 Q 665.8 380.0, 660.5 380.0 Q 655.1 380.0, 652.2 376.7 Q 649.3 373.3, 649.3 367.3 M 660.5 377.2 Q 664.2 377.2, 666.2 374.8 Q 668.3 372.2, 668.3 367.3 Q 668.3 362.5, 666.2 360.1 Q 664.2 357.7, 660.5 357.7 Q 656.8 357.7, 654.7 360.1 Q 652.7 362.5, 652.7 367.3 Q 652.7 372.3, 654.7 374.8 Q 656.8 377.2, 660.5 377.2 " fill="#FF0000"/>
<path class="atom-14" d="M 1012.5 120.9 L 1016.1 117.3 L 1011.3 116.3 L 1012.1 113.9 L 1016.4 116.1 L 1015.8 111.3 L 1018.4 111.2 L 1017.7 116.0 L 1022.1 114.0 L 1022.9 116.3 L 1018.1 117.2 L 1021.5 120.9 L 1019.4 122.4 L 1017.0 117.9 L 1014.6 122.4 L 1012.5 120.9 " fill="#191919"/>
<path class="atom-15" d="M 887.6 32.4 Q 887.6 26.6, 890.5 23.3 Q 893.4 20.0, 898.8 20.0 Q 904.3 20.0, 907.2 23.3 Q 910.1 26.6, 910.1 32.4 Q 910.1 38.4, 907.1 41.7 Q 904.2 45.1, 898.8 45.1 Q 893.5 45.1, 890.5 41.7 Q 887.6 38.4, 887.6 32.4 M 898.8 42.3 Q 902.6 42.3, 904.6 39.8 Q 906.6 37.3, 906.6 32.4 Q 906.6 27.6, 904.6 25.2 Q 902.6 22.8, 898.8 22.8 Q 895.1 22.8, 893.1 25.2 Q 891.1 27.6, 891.1 32.4 Q 891.1 37.4, 893.1 39.8 Q 895.1 42.3, 898.8 42.3 " fill="#FF0000"/>
<path class="atom-16" d="M 781.5 178.0 Q 781.5 172.1, 784.4 168.9 Q 787.3 165.6, 792.7 165.6 Q 798.1 165.6, 801.0 168.9 Q 803.9 172.1, 803.9 178.0 Q 803.9 183.9, 801.0 187.3 Q 798.0 190.7, 792.7 190.7 Q 787.3 190.7, 784.4 187.3 Q 781.5 184.0, 781.5 178.0 M 792.7 187.9 Q 796.4 187.9, 798.4 185.4 Q 800.4 182.9, 800.4 178.0 Q 800.4 173.2, 798.4 170.8 Q 796.4 168.3, 792.7 168.3 Q 789.0 168.3, 786.9 170.8 Q 784.9 173.2, 784.9 178.0 Q 784.9 182.9, 786.9 185.4 Q 789.0 187.9, 792.7 187.9 " fill="#FF0000"/>
<path class="bond-0 atom-0 atom-1" d="M 1007.8,569.4 L 979.2,586.6" style="fill:none;fill-rule:evenodd;stroke:#191919;stroke-width:2.0px;stroke-linecap:butt;stroke-linejoin:miter;stroke-opacity:1"/>
<path class="bond-0 atom-0 atom-1" d="M 979.2,586.6 L 950.6,603.7" style="fill:none;fill-rule:evenodd;stroke:#FF0000;stroke-width:2.0px;stroke-linecap:butt;stroke-linejoin:miter;stroke-opacity:1"/>
<path class="bond-1 atom-1 atom-2" d="M 922.4,604.3 L 891.8,587.3" style="fill:none;fill-rule:evenodd;stroke:#FF0000;stroke-width:2.0px;stroke-linecap:butt;stroke-linejoin:miter;stroke-opacity:1"/>
<path class="bond-1 atom-1 atom-2" d="M 891.8,587.3 L 861.1,570.3" style="fill:none;fill-rule:evenodd;stroke:#000000;stroke-width:2.0px;stroke-linecap:butt;stroke-linejoin:miter;stroke-opacity:1"/>
<path class="bond-2 atom-2 atom-3" d="M 861.1,570.3 L 787.1,614.6" style="fill:none;fill-rule:evenodd;stroke:#000000;stroke-width:2.0px;stroke-linecap:butt;stroke-linejoin:miter;stroke-opacity:1"/>
<path class="bond-3 atom-3 atom-4" d="M 787.1,614.6 L 711.7,572.7" style="fill:none;fill-rule:evenodd;stroke:#000000;stroke-width:2.0px;stroke-linecap:butt;stroke-linejoin:miter;stroke-opacity:1"/>
<path class="bond-4 atom-4 atom-5" d="M 711.7,572.7 L 637.7,617.1" style="fill:none;fill-rule:evenodd;stroke:#000000;stroke-width:2.0px;stroke-linecap:butt;stroke-linejoin:miter;stroke-opacity:1"/>
<path class="bond-5 atom-5 atom-6" d="M 637.7,617.1 L 607.0,600.0" style="fill:none;fill-rule:evenodd;stroke:#000000;stroke-width:2.0px;stroke-linecap:butt;stroke-linejoin:miter;stroke-opacity:1"/>
<path class="bond-5 atom-5 atom-6" d="M 607.0,600.0 L 576.4,583.0" style="fill:none;fill-rule:evenodd;stroke:#FF0000;stroke-width:2.0px;stroke-linecap:butt;stroke-linejoin:miter;stroke-opacity:1"/>
<path class="bond-6 atom-6 atom-7" d="M 548.2,583.6 L 518.3,601.6" style="fill:none;fill-rule:evenodd;stroke:#FF0000;stroke-width:2.0px;stroke-linecap:butt;stroke-linejoin:miter;stroke-opacity:1"/>
<path class="bond-6 atom-6 atom-7" d="M 518.3,601.6 L 488.3,619.5" style="fill:none;fill-rule:evenodd;stroke:#000000;stroke-width:2.0px;stroke-linecap:butt;stroke-linejoin:miter;stroke-opacity:1"/>
<path class="bond-7 atom-7 atom-8" d="M 481.8,615.9 L 482.4,653.3" style="fill:none;fill-rule:evenodd;stroke:#000000;stroke-width:2.0px;stroke-linecap:butt;stroke-linejoin:miter;stroke-opacity:1"/>
<path class="bond-7 atom-7 atom-8" d="M 482.4,653.3 L 483.0,690.7" style="fill:none;fill-rule:evenodd;stroke:#FF0000;stroke-width:2.0px;stroke-linecap:butt;stroke-linejoin:miter;stroke-opacity:1"/>
<path class="bond-7 atom-7 atom-8" d="M 494.7,615.7 L 495.3,653.1" style="fill:none;fill-rule:evenodd;stroke:#000000;stroke-width:2.0px;stroke-linecap:butt;stroke-linejoin:miter;stroke-opacity:1"/>
<path class="bond-7 atom-7 atom-8" d="M 495.3,653.1 L 495.9,690.5" style="fill:none;fill-rule:evenodd;stroke:#FF0000;stroke-width:2.0px;stroke-linecap:butt;stroke-linejoin:miter;stroke-opacity:1"/>
<path class="bond-8 atom-7 atom-9" d="M 488.3,619.5 L 412.9,577.6" style="fill:none;fill-rule:evenodd;stroke:#000000;stroke-width:2.0px;stroke-linecap:butt;stroke-linejoin:miter;stroke-opacity:1"/>
<path class="bond-9 atom-9 atom-10" d="M 412.9,577.6 L 338.9,622.0" style="fill:none;fill-rule:evenodd;stroke:#000000;stroke-width:2.0px;stroke-linecap:butt;stroke-linejoin:miter;stroke-opacity:1"/>
<path class="bond-10 atom-10 atom-11" d="M 338.9,622.0 L 263.5,580.1" style="fill:none;fill-rule:evenodd;stroke:#000000;stroke-width:2.0px;stroke-linecap:butt;stroke-linejoin:miter;stroke-opacity:1"/>
<path class="bond-11 atom-11 atom-12" d="M 263.5,580.1 L 230.8,599.7" style="fill:none;fill-rule:evenodd;stroke:#000000;stroke-width:2.0px;stroke-linecap:butt;stroke-linejoin:miter;stroke-opacity:1"/>
<path class="bond-11 atom-11 atom-12" d="M 230.8,599.7 L 198.1,619.3" style="fill:none;fill-rule:evenodd;stroke:#191919;stroke-width:2.0px;stroke-linecap:butt;stroke-linejoin:miter;stroke-opacity:1"/>
<path class="bond-12 atom-11 atom-13" d="M 270.0,583.7 L 269.4,546.5" style="fill:none;fill-rule:evenodd;stroke:#000000;stroke-width:2.0px;stroke-linecap:butt;stroke-linejoin:miter;stroke-opacity:1"/>
<path class="bond-12 atom-11 atom-13" d="M 269.4,546.5 L 268.8,509.3" style="fill:none;fill-rule:evenodd;stroke:#FF0000;stroke-width:2.0px;stroke-linecap:butt;stroke-linejoin:miter;stroke-opacity:1"/>
<path class="bond-12 atom-11 atom-13" d="M 257.1,583.9 L 256.5,546.7" style="fill:none;fill-rule:evenodd;stroke:#000000;stroke-width:2.0px;stroke-linecap:butt;stroke-linejoin:miter;stroke-opacity:1"/>
<path class="bond-12 atom-11 atom-13" d="M 256.5,546.7 L 255.9,509.5" style="fill:none;fill-rule:evenodd;stroke:#FF0000;stroke-width:2.0px;stroke-linecap:butt;stroke-linejoin:miter;stroke-opacity:1"/>
<path d="M 862.6,571.1 L 861.1,570.3 L 857.4,572.5" style="fill:none;stroke:#000000;stroke-width:2.0px;stroke-linecap:butt;stroke-linejoin:miter;stroke-opacity:1;"/>
<path d="M 790.8,612.4 L 787.1,614.6 L 783.3,612.5" style="fill:none;stroke:#000000;stroke-width:2.0px;stroke-linecap:butt;stroke-linejoin:miter;stroke-opacity:1;"/>
<path d="M 715.5,574.8 L 711.7,572.7 L 708.0,574.9" style="fill:none;stroke:#000000;stroke-width:2.0px;stroke-linecap:butt;stroke-linejoin:miter;stroke-opacity:1;"/>
<path d="M 641.4,614.9 L 637.7,617.1 L 636.2,616.2" style="fill:none;stroke:#000000;stroke-width:2.0px;stroke-linecap:butt;stroke-linejoin:miter;stroke-opacity:1;"/>
<path d="M 489.8,618.6 L 488.3,619.5 L 484.5,617.4" style="fill:none;stroke:#000000;stroke-width:2.0px;stroke-linecap:butt;stroke-linejoin:miter;stroke-opacity:1;"/>
<path d="M 416.7,579.7 L 412.9,577.6 L 409.2,579.8" style="fill:none;stroke:#000000;stroke-width:2.0px;stroke-linecap:butt;stroke-linejoin:miter;stroke-opacity:1;"/>
<path d="M 342.6,619.8 L 338.9,622.0 L 335.1,619.9" style="fill:none;stroke:#000000;stroke-width:2.0px;stroke-linecap:butt;stroke-linejoin:miter;stroke-opacity:1;"/>
<path d="M 267.3,582.2 L 263.5,580.1 L 261.9,581.1" style="fill:none;stroke:#000000;stroke-width:2.0px;stroke-linecap:butt;stroke-linejoin:miter;stroke-opacity:1;"/>
<path class="atom-0" d="M 1005.9 565.1 L 1009.5 561.4 L 1004.7 560.4 L 1005.4 558.0 L 1009.8 560.2 L 1009.2 555.4 L 1011.8 555.4 L 1011.1 560.2 L 1015.5 558.1 L 1016.3 560.4 L 1011.4 561.3 L 1014.9 565.0 L 1012.8 566.5 L 1010.4 562.0 L 1008.0 566.5 L 1005.9 565.1 " fill="#191919"/>
<path class="atom-1" d="M 925.3 612.2 Q 925.3 606.4, 928.2 603.1 Q 931.1 599.8, 936.5 599.8 Q 941.9 599.8, 944.8 603.1 Q 947.7 606.4, 947.7 612.2 Q 947.7 618.2, 944.8 621.5 Q 941.9 624.9, 936.5 624.9 Q 931.1 624.9, 928.2 621.5 Q 925.3 618.2, 925.3 612.2 M 936.5 622.1 Q 940.2 622.1, 942.2 619.6 Q 944.3 617.1, 944.3 612.2 Q 944.3 607.4, 942.2 605.0 Q 940.2 602.6, 936.5 602.6 Q 932.8 602.6, 930.7 605.0 Q 928.7 607.4, 928.7 612.2 Q 928.7 617.2, 930.7 619.6 Q 932.8 622.1, 936.5 622.1 " fill="#FF0000"/>
<path class="atom-6" d="M 551.1 575.2 Q 551.1 569.4, 554.0 566.1 Q 556.9 562.8, 562.3 562.8 Q 567.7 562.8, 570.6 566.1 Q 573.5 569.4, 573.5 575.2 Q 573.5 581.2, 570.6 584.6 Q 567.6 587.9, 562.3 587.9 Q 556.9 587.9, 554.0 584.6 Q 551.1 581.2, 551.1 575.2 M 562.3 585.1 Q 566.0 585.1, 568.0 582.7 Q 570.1 580.1, 570.1 575.2 Q 570.1 570.4, 568.0 568.0 Q 566.0 565.6, 562.3 565.6 Q 558.6 565.6, 556.5 568.0 Q 554.5 570.4, 554.5 575.2 Q 554.5 580.2, 556.5 582.7 Q 558.6 585.1, 562.3 585.1 " fill="#FF0000"/>
<path class="atom-8" d="M 478.5 705.9 Q 478.5 700.0, 481.4 696.7 Q 484.3 693.4, 489.7 693.4 Q 495.1 693.4, 498.0 696.7 Q 500.9 700.0, 500.9 705.9 Q 500.9 711.8, 498.0 715.2 Q 495.1 718.5, 489.7 718.5 Q 484.3 718.5, 481.4 715.2 Q 478.5 711.8, 478.5 705.9 M 489.7 715.8 Q 493.5 715.8, 495.5 713.3 Q 497.5 710.8, 497.5 705.9 Q 497.5 701.1, 495.5 698.6 Q 493.5 696.2, 489.7 696.2 Q 486.0 696.2, 484.0 698.6 Q 482.0 701.0, 482.0 705.9 Q 482.0 710.8, 484.0 713.3 Q 486.0 715.8, 489.7 715.8 " fill="#FF0000"/>
<path class="atom-12" d="M 184.9 621.7 L 188.5 618.1 L 183.7 617.1 L 184.4 614.6 L 188.8 616.9 L 188.2 612.1 L 190.8 612.0 L 190.1 616.8 L 194.5 614.8 L 195.3 617.1 L 190.5 618.0 L 193.9 621.7 L 191.8 623.2 L 189.4 618.7 L 187.0 623.2 L 184.9 621.7 " fill="#191919"/>
<path class="atom-13" d="M 250.9 493.9 Q 250.9 488.0, 253.8 484.8 Q 256.7 481.5, 262.1 481.5 Q 267.5 481.5, 270.4 484.8 Q 273.3 488.0, 273.3 493.9 Q 273.3 499.8, 270.4 503.2 Q 267.4 506.6, 262.1 506.6 Q 256.7 506.6, 253.8 503.2 Q 250.9 499.9, 250.9 493.9 M 262.1 503.8 Q 265.8 503.8, 267.8 501.3 Q 269.8 498.8, 269.8 493.9 Q 269.8 489.1, 267.8 486.7 Q 265.8 484.2, 262.1 484.2 Q 258.3 484.2, 256.3 486.7 Q 254.3 489.1, 254.3 493.9 Q 254.3 498.8, 256.3 501.3 Q 258.3 503.8, 262.1 503.8 " fill="#FF0000"/>
<path class="bond-0 atom-0 atom-1" d="M 462.1,1022.8 L 488.1,1007.7" style="fill:none;fill-rule:evenodd;stroke:#191919;stroke-width:2.0px;stroke-linecap:butt;stroke-linejoin:miter;stroke-opacity:1"/>
<path class="bond-0 atom-0 atom-1" d="M 488.1,1007.7 L 514.1,992.7" style="fill:none;fill-rule:evenodd;stroke:#FF0000;stroke-width:2.0px;stroke-linecap:butt;stroke-linejoin:miter;stroke-opacity:1"/>
<path class="bond-1 atom-1 atom-2" d="M 542.2,992.7 L 572.6,1010.2" style="fill:none;fill-rule:evenodd;stroke:#FF0000;stroke-width:2.0px;stroke-linecap:butt;stroke-linejoin:miter;stroke-opacity:1"/>
<path class="bond-1 atom-1 atom-2" d="M 572.6,1010.2 L 602.9,1027.7" style="fill:none;fill-rule:evenodd;stroke:#000000;stroke-width:2.0px;stroke-linecap:butt;stroke-linejoin:miter;stroke-opacity:1"/>
<path class="bond-2 atom-2 atom-3" d="M 602.9,1027.7 L 677.6,984.6" style="fill:none;fill-rule:evenodd;stroke:#000000;stroke-width:2.0px;stroke-linecap:butt;stroke-linejoin:miter;stroke-opacity:1"/>
<path class="bond-3 atom-3 atom-4" d="M 677.6,984.6 L 752.3,1027.7" style="fill:none;fill-rule:evenodd;stroke:#000000;stroke-width:2.0px;stroke-linecap:butt;stroke-linejoin:miter;stroke-opacity:1"/>
<path d="M 601.4,1026.9 L 602.9,1027.7 L 606.6,1025.6" style="fill:none;stroke:#000000;stroke-width:2.0px;stroke-linecap:butt;stroke-linejoin:miter;stroke-opacity:1;"/>
<path d="M 673.9,986.8 L 677.6,984.6 L 681.3,986.8" style="fill:none;stroke:#000000;stroke-width:2.0px;stroke-linecap:butt;stroke-linejoin:miter;stroke-opacity:1;"/>
<path class="atom-0" d="M 448.9 1025.0 L 452.5 1021.4 L 447.7 1020.4 L 448.4 1017.9 L 452.8 1020.2 L 452.2 1015.4 L 454.8 1015.3 L 454.0 1020.1 L 458.5 1018.0 L 459.2 1020.4 L 454.4 1021.3 L 457.9 1025.0 L 455.8 1026.5 L 453.4 1021.9 L 451.0 1026.5 L 448.9 1025.0 " fill="#191919"/>
<path class="atom-1" d="M 517.0 984.7 Q 517.0 978.8, 519.9 975.5 Q 522.8 972.3, 528.2 972.3 Q 533.6 972.3, 536.5 975.5 Q 539.4 978.8, 539.4 984.7 Q 539.4 990.6, 536.5 994.0 Q 533.5 997.3, 528.2 997.3 Q 522.8 997.3, 519.9 994.0 Q 517.0 990.6, 517.0 984.7 M 528.2 994.6 Q 531.9 994.6, 533.9 992.1 Q 535.9 989.6, 535.9 984.7 Q 535.9 979.9, 533.9 977.5 Q 531.9 975.0, 528.2 975.0 Q 524.5 975.0, 522.4 977.4 Q 520.4 979.8, 520.4 984.7 Q 520.4 989.6, 522.4 992.1 Q 524.5 994.6, 528.2 994.6 " fill="#FF0000"/>
</svg>