<svg xmlns="http://www.w3.org/2000/svg" xmlns:rdkit="http://www.rdkit.org/xml" xmlns:xlink="http://www.w3.org/1999/xlink" version="1.1" baseProfile="full" xml:space="preserve" width="1200px" height="800px" viewBox="0 0 1200 800">
<!-- END OF HEADER -->
<rect style="opacity:1.0;fill:#FFFFFF;stroke:none" width="1200.0" height="800.0" x="0.0" y="0.0"> </rect>
<path class="bond-0 atom-0 atom-1" d="M 905.9,59.1 L 897.3,114.1" style="fill:none;fill-rule:evenodd;stroke:#191919;stroke-width:2.0px;stroke-linecap:butt;stroke-linejoin:miter;stroke-opacity:1"/>
<path class="bond-0 atom-0 atom-1" d="M 897.3,114.1 L 888.6,169.1" style="fill:none;fill-rule:evenodd;stroke:#000000;stroke-width:2.0px;stroke-linecap:butt;stroke-linejoin:miter;stroke-opacity:1"/>
<path class="bond-1 atom-1 atom-2" d="M 888.6,169.1 L 782.4,210.0" style="fill:none;fill-rule:evenodd;stroke:#000000;stroke-width:2.0px;stroke-linecap:butt;stroke-linejoin:miter;stroke-opacity:1"/>
<path class="bond-2 atom-2 atom-3" d="M 782.4,210.0 L 762.5,158.1" style="fill:none;fill-rule:evenodd;stroke:#000000;stroke-width:2.0px;stroke-linecap:butt;stroke-linejoin:miter;stroke-opacity:1"/>
<path class="bond-2 atom-2 atom-3" d="M 762.5,158.1 L 742.5,106.1" style="fill:none;fill-rule:evenodd;stroke:#191919;stroke-width:2.0px;stroke-linecap:butt;stroke-linejoin:miter;stroke-opacity:1"/>
<path class="bond-3 atom-2 atom-4" d="M 782.4,210.0 L 823.3,316.2" style="fill:none;fill-rule:evenodd;stroke:#000000;stroke-width:2.0px;stroke-linecap:butt;stroke-linejoin:miter;stroke-opacity:1"/>
<path class="bond-4 atom-2 atom-5" d="M 782.4,210.0 L 676.3,250.9" style="fill:none;fill-rule:evenodd;stroke:#000000;stroke-width:2.0px;stroke-linecap:butt;stroke-linejoin:miter;stroke-opacity:1"/>
<path class="bond-5 atom-5 atom-6" d="M 668.6,244.7 L 660.8,294.3" style="fill:none;fill-rule:evenodd;stroke:#000000;stroke-width:2.0px;stroke-linecap:butt;stroke-linejoin:miter;stroke-opacity:1"/>
<path class="bond-5 atom-5 atom-6" d="M 660.8,294.3 L 653.0,343.8" style="fill:none;fill-rule:evenodd;stroke:#FF0000;stroke-width:2.0px;stroke-linecap:butt;stroke-linejoin:miter;stroke-opacity:1"/>
<path class="bond-5 atom-5 atom-6" d="M 685.5,247.3 L 677.7,296.9" style="fill:none;fill-rule:evenodd;stroke:#000000;stroke-width:2.0px;stroke-linecap:butt;stroke-linejoin:miter;stroke-opacity:1"/>
<path class="bond-5 atom-5 atom-6" d="M 677.7,296.9 L 669.9,346.5" style="fill:none;fill-rule:evenodd;stroke:#FF0000;stroke-width:2.0px;stroke-linecap:butt;stroke-linejoin:miter;stroke-opacity:1"/>
<path class="bond-6 atom-5 atom-7" d="M 676.3,250.9 L 640.4,221.9" style="fill:none;fill-rule:evenodd;stroke:#000000;stroke-width:2.0px;stroke-linecap:butt;stroke-linejoin:miter;stroke-opacity:1"/>
<path class="bond-6 atom-5 atom-7" d="M 640.4,221.9 L 604.6,192.9" style="fill:none;fill-rule:evenodd;stroke:#FF0000;stroke-width:2.0px;stroke-linecap:butt;stroke-linejoin:miter;stroke-opacity:1"/>
<path class="bond-7 atom-7 atom-8" d="M 571.0,185.8 L 526.3,203.0" style="fill:none;fill-rule:evenodd;stroke:#FF0000;stroke-width:2.0px;stroke-linecap:butt;stroke-linejoin:miter;stroke-opacity:1"/>
<path class="bond-7 atom-7 atom-8" d="M 526.3,203.0 L 481.6,220.2" style="fill:none;fill-rule:evenodd;stroke:#000000;stroke-width:2.0px;stroke-linecap:butt;stroke-linejoin:miter;stroke-opacity:1"/>
<path class="bond-8 atom-8 atom-9" d="M 481.6,220.2 L 474.2,267.4" style="fill:none;fill-rule:evenodd;stroke:#000000;stroke-width:2.0px;stroke-linecap:butt;stroke-linejoin:miter;stroke-opacity:1"/>
<path class="bond-8 atom-8 atom-9" d="M 474.2,267.4 L 466.8,314.5" style="fill:none;fill-rule:evenodd;stroke:#FF0000;stroke-width:2.0px;stroke-linecap:butt;stroke-linejoin:miter;stroke-opacity:1"/>
<path class="bond-9 atom-8 atom-10" d="M 481.6,220.2 L 393.2,148.7" style="fill:none;fill-rule:evenodd;stroke:#000000;stroke-width:2.0px;stroke-linecap:butt;stroke-linejoin:miter;stroke-opacity:1"/>
<path class="bond-10 atom-10 atom-11" d="M 393.2,148.7 L 287.0,189.6" style="fill:none;fill-rule:evenodd;stroke:#000000;stroke-width:2.0px;stroke-linecap:butt;stroke-linejoin:miter;stroke-opacity:1"/>
<path class="bond-11 atom-10 atom-12" d="M 393.2,148.7 L 400.5,101.8" style="fill:none;fill-rule:evenodd;stroke:#000000;stroke-width:2.0px;stroke-linecap:butt;stroke-linejoin:miter;stroke-opacity:1"/>
<path class="bond-11 atom-10 atom-12" d="M 400.5,101.8 L 407.9,54.8" style="fill:none;fill-rule:evenodd;stroke:#FF0000;stroke-width:2.0px;stroke-linecap:butt;stroke-linejoin:miter;stroke-opacity:1"/>
<path d="M 889.0,166.4 L 888.6,169.1 L 883.3,171.2" style="fill:none;stroke:#000000;stroke-width:2.0px;stroke-linecap:butt;stroke-linejoin:miter;stroke-opacity:1;"/>
<path d="M 681.6,248.8 L 676.3,250.9 L 674.5,249.4" style="fill:none;stroke:#000000;stroke-width:2.0px;stroke-linecap:butt;stroke-linejoin:miter;stroke-opacity:1;"/>
<path class="atom-0" d="M 901.0 53.6 L 905.1 49.4 L 899.6 48.2 L 900.5 45.4 L 905.5 48.0 L 904.8 42.4 L 907.8 42.4 L 907.0 47.9 L 912.1 45.5 L 913.0 48.2 L 907.4 49.3 L 911.4 53.6 L 909.0 55.3 L 906.2 50.0 L 903.4 55.3 L 901.0 53.6 " fill="#191919"/>
<path class="atom-3" d="M 736.2 100.7 L 740.4 96.4 L 734.9 95.3 L 735.7 92.5 L 740.8 95.0 L 740.1 89.5 L 743.1 89.4 L 742.2 95.0 L 747.4 92.6 L 748.3 95.3 L 742.7 96.3 L 746.7 100.6 L 744.2 102.4 L 741.5 97.1 L 738.7 102.4 L 736.2 100.7 " fill="#191919"/>
<path class="atom-6" d="M 645.6 363.3 Q 645.6 356.5, 648.9 352.7 Q 652.3 348.9, 658.6 348.9 Q 664.9 348.9, 668.2 352.7 Q 671.6 356.5, 671.6 363.3 Q 671.6 370.2, 668.2 374.1 Q 664.8 378.0, 658.6 378.0 Q 652.3 378.0, 648.9 374.1 Q 645.6 370.2, 645.6 363.3 M 658.6 374.8 Q 662.9 374.8, 665.2 371.9 Q 667.6 369.0, 667.6 363.3 Q 667.6 357.8, 665.2 355.0 Q 662.9 352.1, 658.6 352.1 Q 654.3 352.1, 651.9 354.9 Q 649.6 357.7, 649.6 363.3 Q 649.6 369.0, 651.9 371.9 Q 654.3 374.8, 658.6 374.8 " fill="#FF0000"/>
<path class="atom-7" d="M 574.8 179.4 Q 574.8 172.6, 578.2 168.8 Q 581.5 165.0, 587.8 165.0 Q 594.1 165.0, 597.4 168.8 Q 600.8 172.6, 600.8 179.4 Q 600.8 186.3, 597.4 190.2 Q 594.0 194.1, 587.8 194.1 Q 581.6 194.1, 578.2 190.2 Q 574.8 186.3, 574.8 179.4 M 587.8 190.9 Q 592.1 190.9, 594.4 188.0 Q 596.8 185.1, 596.8 179.4 Q 596.8 173.9, 594.4 171.1 Q 592.1 168.2, 587.8 168.2 Q 583.5 168.2, 581.1 171.0 Q 578.8 173.8, 578.8 179.4 Q 578.8 185.1, 581.1 188.0 Q 583.5 190.9, 587.8 190.9 " fill="#FF0000"/>
<path class="atom-9" d="M 450.9 332.7 Q 450.9 325.9, 454.3 322.1 Q 457.7 318.3, 463.9 318.3 Q 470.2 318.3, 473.6 322.1 Q 476.9 325.9, 476.9 332.7 Q 476.9 339.6, 473.5 343.5 Q 470.1 347.4, 463.9 347.4 Q 457.7 347.4, 454.3 343.5 Q 450.9 339.6, 450.9 332.7 M 463.9 344.2 Q 468.3 344.2, 470.6 341.3 Q 472.9 338.4, 472.9 332.7 Q 472.9 327.1, 470.6 324.3 Q 468.3 321.5, 463.9 321.5 Q 459.6 321.5, 457.3 324.3 Q 454.9 327.1, 454.9 332.7 Q 454.9 338.4, 457.3 341.3 Q 459.6 344.2, 463.9 344.2 " fill="#FF0000"/>
<path class="atom-9" d="M 481.3 318.6 L 485.2 318.6 L 485.2 330.6 L 499.7 330.6 L 499.7 318.6 L 503.5 318.6 L 503.5 346.9 L 499.7 346.9 L 499.7 333.8 L 485.2 333.8 L 485.2 346.9 L 481.3 346.9 L 481.3 318.6 " fill="#FF0000"/>
<path class="atom-12" d="M 397.9 36.4 Q 397.9 29.6, 401.2 25.8 Q 404.6 22.0, 410.9 22.0 Q 417.1 22.0, 420.5 25.8 Q 423.9 29.6, 423.9 36.4 Q 423.9 43.3, 420.5 47.2 Q 417.1 51.1, 410.9 51.1 Q 404.6 51.1, 401.2 47.2 Q 397.9 43.3, 397.9 36.4 M 410.9 47.9 Q 415.2 47.9, 417.5 45.0 Q 419.9 42.1, 419.9 36.4 Q 419.9 30.8, 417.5 28.0 Q 415.2 25.2, 410.9 25.2 Q 406.5 25.2, 404.2 28.0 Q 401.9 30.8, 401.9 36.4 Q 401.9 42.1, 404.2 45.0 Q 406.5 47.9, 410.9 47.9 " fill="#FF0000"/>
<path class="atom-12" d="M 428.3 22.3 L 432.1 22.3 L 432.1 34.4 L 446.6 34.4 L 446.6 22.3 L 450.4 22.3 L 450.4 50.6 L 446.6 50.6 L 446.6 37.6 L 432.1 37.6 L 432.1 50.6 L 428.3 50.6 L 428.3 22.3 " fill="#FF0000"/>
<path class="bond-0 atom-0 atom-1" d="M 928.8,454.2 L 917.9,508.8" style="fill:none;fill-rule:evenodd;stroke:#191919;stroke-width:2.0px;stroke-linecap:butt;stroke-linejoin:miter;stroke-opacity:1"/>
<path class="bond-0 atom-0 atom-1" d="M 917.9,508.8 L 906.9,563.4" style="fill:none;fill-rule:evenodd;stroke:#000000;stroke-width:2.0px;stroke-linecap:butt;stroke-linejoin:miter;stroke-opacity:1"/>
<path class="bond-1 atom-1 atom-2" d="M 906.9,563.4 L 799.1,599.8" style="fill:none;fill-rule:evenodd;stroke:#000000;stroke-width:2.0px;stroke-linecap:butt;stroke-linejoin:miter;stroke-opacity:1"/>
<path class="bond-2 atom-2 atom-3" d="M 799.1,599.8 L 781.3,547.1" style="fill:none;fill-rule:evenodd;stroke:#000000;stroke-width:2.0px;stroke-linecap:butt;stroke-linejoin:miter;stroke-opacity:1"/>
<path class="bond-2 atom-2 atom-3" d="M 781.3,547.1 L 763.5,494.3" style="fill:none;fill-rule:evenodd;stroke:#191919;stroke-width:2.0px;stroke-linecap:butt;stroke-linejoin:miter;stroke-opacity:1"/>
<path class="bond-3 atom-2 atom-4" d="M 799.1,599.8 L 835.5,707.6" style="fill:none;fill-rule:evenodd;stroke:#000000;stroke-width:2.0px;stroke-linecap:butt;stroke-linejoin:miter;stroke-opacity:1"/>
<path class="bond-4 atom-2 atom-5" d="M 799.1,599.8 L 691.4,636.2" style="fill:none;fill-rule:evenodd;stroke:#000000;stroke-width:2.0px;stroke-linecap:butt;stroke-linejoin:miter;stroke-opacity:1"/>
<path class="bond-5 atom-5 atom-6" d="M 684.0,629.7 L 674.1,678.8" style="fill:none;fill-rule:evenodd;stroke:#000000;stroke-width:2.0px;stroke-linecap:butt;stroke-linejoin:miter;stroke-opacity:1"/>
<path class="bond-5 atom-5 atom-6" d="M 674.1,678.8 L 664.2,728.0" style="fill:none;fill-rule:evenodd;stroke:#FF0000;stroke-width:2.0px;stroke-linecap:butt;stroke-linejoin:miter;stroke-opacity:1"/>
<path class="bond-5 atom-5 atom-6" d="M 700.7,633.1 L 690.8,682.2" style="fill:none;fill-rule:evenodd;stroke:#000000;stroke-width:2.0px;stroke-linecap:butt;stroke-linejoin:miter;stroke-opacity:1"/>
<path class="bond-5 atom-5 atom-6" d="M 690.8,682.2 L 681.0,731.4" style="fill:none;fill-rule:evenodd;stroke:#FF0000;stroke-width:2.0px;stroke-linecap:butt;stroke-linejoin:miter;stroke-opacity:1"/>
<path class="bond-6 atom-5 atom-7" d="M 691.4,636.2 L 657.0,606.0" style="fill:none;fill-rule:evenodd;stroke:#000000;stroke-width:2.0px;stroke-linecap:butt;stroke-linejoin:miter;stroke-opacity:1"/>
<path class="bond-6 atom-5 atom-7" d="M 657.0,606.0 L 622.7,575.8" style="fill:none;fill-rule:evenodd;stroke:#FF0000;stroke-width:2.0px;stroke-linecap:butt;stroke-linejoin:miter;stroke-opacity:1"/>
<path class="bond-7 atom-7 atom-8" d="M 589.2,566.7 L 543.7,582.1" style="fill:none;fill-rule:evenodd;stroke:#FF0000;stroke-width:2.0px;stroke-linecap:butt;stroke-linejoin:miter;stroke-opacity:1"/>
<path class="bond-7 atom-7 atom-8" d="M 543.7,582.1 L 498.2,597.5" style="fill:none;fill-rule:evenodd;stroke:#000000;stroke-width:2.0px;stroke-linecap:butt;stroke-linejoin:miter;stroke-opacity:1"/>
<path class="bond-8 atom-8 atom-9" d="M 498.2,597.5 L 412.8,522.3" style="fill:none;fill-rule:evenodd;stroke:#000000;stroke-width:2.0px;stroke-linecap:butt;stroke-linejoin:miter;stroke-opacity:1"/>
<path class="bond-9 atom-9 atom-10" d="M 412.8,522.3 L 367.2,537.7" style="fill:none;fill-rule:evenodd;stroke:#000000;stroke-width:2.0px;stroke-linecap:butt;stroke-linejoin:miter;stroke-opacity:1"/>
<path class="bond-9 atom-9 atom-10" d="M 367.2,537.7 L 321.7,553.0" style="fill:none;fill-rule:evenodd;stroke:#FF0000;stroke-width:2.0px;stroke-linecap:butt;stroke-linejoin:miter;stroke-opacity:1"/>
<path d="M 907.5,560.7 L 906.9,563.4 L 901.5,565.2" style="fill:none;stroke:#000000;stroke-width:2.0px;stroke-linecap:butt;stroke-linejoin:miter;stroke-opacity:1;"/>
<path d="M 696.7,634.4 L 691.4,636.2 L 689.6,634.7" style="fill:none;stroke:#000000;stroke-width:2.0px;stroke-linecap:butt;stroke-linejoin:miter;stroke-opacity:1;"/>
<path d="M 500.4,596.7 L 498.2,597.5 L 493.9,593.7" style="fill:none;stroke:#000000;stroke-width:2.0px;stroke-linecap:butt;stroke-linejoin:miter;stroke-opacity:1;"/>
<path d="M 417.0,526.1 L 412.8,522.3 L 410.5,523.1" style="fill:none;stroke:#000000;stroke-width:2.0px;stroke-linecap:butt;stroke-linejoin:miter;stroke-opacity:1;"/>
<path class="atom-0" d="M 924.0 448.7 L 928.1 444.5 L 922.6 443.4 L 923.4 440.5 L 928.5 443.1 L 927.8 437.5 L 930.8 437.5 L 930.0 443.0 L 935.1 440.6 L 936.0 443.4 L 930.4 444.4 L 934.4 448.7 L 932.0 450.4 L 929.2 445.2 L 926.4 450.4 L 924.0 448.7 " fill="#191919"/>
<path class="atom-3" d="M 757.4 488.9 L 761.6 484.6 L 756.0 483.5 L 756.9 480.7 L 762.0 483.2 L 761.2 477.7 L 764.2 477.6 L 763.4 483.2 L 768.6 480.8 L 769.4 483.5 L 763.8 484.6 L 767.8 488.8 L 765.4 490.6 L 762.6 485.3 L 759.8 490.6 L 757.4 488.9 " fill="#191919"/>
<path class="atom-6" d="M 656.0 747.8 Q 656.0 741.0, 659.3 737.2 Q 662.7 733.4, 669.0 733.4 Q 675.3 733.4, 678.6 737.2 Q 682.0 741.0, 682.0 747.8 Q 682.0 754.7, 678.6 758.6 Q 675.2 762.5, 669.0 762.5 Q 662.7 762.5, 659.3 758.6 Q 656.0 754.8, 656.0 747.8 M 669.0 759.3 Q 673.3 759.3, 675.6 756.4 Q 678.0 753.5, 678.0 747.8 Q 678.0 742.3, 675.6 739.5 Q 673.3 736.6, 669.0 736.6 Q 664.7 736.6, 662.3 739.4 Q 660.0 742.2, 660.0 747.8 Q 660.0 753.6, 662.3 756.4 Q 664.7 759.3, 669.0 759.3 " fill="#FF0000"/>
<path class="atom-7" d="M 592.9 561.1 Q 592.9 554.3, 596.3 550.5 Q 599.7 546.7, 605.9 546.7 Q 612.2 546.7, 615.6 550.5 Q 618.9 554.3, 618.9 561.1 Q 618.9 568.0, 615.5 571.9 Q 612.1 575.8, 605.9 575.8 Q 599.7 575.8, 596.3 571.9 Q 592.9 568.1, 592.9 561.1 M 605.9 572.6 Q 610.3 572.6, 612.6 569.7 Q 614.9 566.8, 614.9 561.1 Q 614.9 555.6, 612.6 552.8 Q 610.3 549.9, 605.9 549.9 Q 601.6 549.9, 599.3 552.7 Q 596.9 555.5, 596.9 561.1 Q 596.9 566.9, 599.3 569.7 Q 601.6 572.6, 605.9 572.6 " fill="#FF0000"/>
<path class="atom-10" d="M 264.0 544.7 L 267.8 544.7 L 267.8 556.7 L 282.3 556.7 L 282.3 544.7 L 286.2 544.7 L 286.2 573.0 L 282.3 573.0 L 282.3 559.9 L 267.8 559.9 L 267.8 573.0 L 264.0 573.0 L 264.0 544.7 " fill="#FF0000"/>
<path class="atom-10" d="M 292.0 558.8 Q 292.0 552.0, 295.3 548.2 Q 298.7 544.4, 305.0 544.4 Q 311.2 544.4, 314.6 548.2 Q 318.0 552.0, 318.0 558.8 Q 318.0 565.7, 314.6 569.6 Q 311.2 573.5, 305.0 573.5 Q 298.7 573.5, 295.3 569.6 Q 292.0 565.7, 292.0 558.8 M 305.0 570.3 Q 309.3 570.3, 311.6 567.4 Q 314.0 564.5, 314.0 558.8 Q 314.0 553.2, 311.6 550.4 Q 309.3 547.6, 305.0 547.6 Q 300.6 547.6, 298.3 550.4 Q 296.0 553.2, 296.0 558.8 Q 296.0 564.5, 298.3 567.4 Q 300.6 570.3, 305.0 570.3 " fill="#FF0000"/>
</svg>