<svg xmlns="http://www.w3.org/2000/svg" xmlns:rdkit="http://www.rdkit.org/xml" xmlns:xlink="http://www.w3.org/1999/xlink" version="1.1" baseProfile="full" xml:space="preserve" width="1200px" height="800px" viewBox="0 0 1200 800">
<!-- END OF HEADER -->
<rect style="opacity:1.0;fill:#FFFFFF;stroke:none" width="1200.0" height="800.0" x="0.0" y="0.0"> </rect>
<path class="bond-0 atom-0 atom-1" d="M 590.9,26.6 L 600.1,44.3" style="fill:none;fill-rule:evenodd;stroke:#191919;stroke-width:2.0px;stroke-linecap:butt;stroke-linejoin:miter;stroke-opacity:1"/>
<path class="bond-0 atom-0 atom-1" d="M 600.1,44.3 L 609.3,62.0" style="fill:none;fill-rule:evenodd;stroke:#000000;stroke-width:2.0px;stroke-linecap:butt;stroke-linejoin:miter;stroke-opacity:1"/>
<path class="bond-1 atom-1 atom-2" d="M 609.3,62.0 L 587.4,96.3" style="fill:none;fill-rule:evenodd;stroke:#000000;stroke-width:2.0px;stroke-linecap:butt;stroke-linejoin:miter;stroke-opacity:1"/>
<path class="bond-2 atom-2 atom-3" d="M 587.4,96.3 L 606.2,132.5" style="fill:none;fill-rule:evenodd;stroke:#000000;stroke-width:2.0px;stroke-linecap:butt;stroke-linejoin:miter;stroke-opacity:1"/>
<path class="bond-3 atom-3 atom-4" d="M 606.2,132.5 L 584.3,166.8" style="fill:none;fill-rule:evenodd;stroke:#000000;stroke-width:2.0px;stroke-linecap:butt;stroke-linejoin:miter;stroke-opacity:1"/>
<path class="bond-4 atom-4 atom-5" d="M 584.3,166.8 L 591.8,181.3" style="fill:none;fill-rule:evenodd;stroke:#000000;stroke-width:2.0px;stroke-linecap:butt;stroke-linejoin:miter;stroke-opacity:1"/>
<path class="bond-4 atom-4 atom-5" d="M 591.8,181.3 L 599.4,195.8" style="fill:none;fill-rule:evenodd;stroke:#FF0000;stroke-width:2.0px;stroke-linecap:butt;stroke-linejoin:miter;stroke-opacity:1"/>
<path class="bond-5 atom-5 atom-6" d="M 598.4,210.3 L 589.8,223.8" style="fill:none;fill-rule:evenodd;stroke:#FF0000;stroke-width:2.0px;stroke-linecap:butt;stroke-linejoin:miter;stroke-opacity:1"/>
<path class="bond-5 atom-5 atom-6" d="M 589.8,223.8 L 581.2,237.3" style="fill:none;fill-rule:evenodd;stroke:#000000;stroke-width:2.0px;stroke-linecap:butt;stroke-linejoin:miter;stroke-opacity:1"/>
<path class="bond-6 atom-6 atom-7" d="M 583.0,234.5 L 571.0,232.5" style="fill:none;fill-rule:evenodd;stroke:#000000;stroke-width:2.0px;stroke-linecap:butt;stroke-linejoin:miter;stroke-opacity:1"/>
<path class="bond-6 atom-6 atom-7" d="M 571.0,232.5 L 559.0,230.5" style="fill:none;fill-rule:evenodd;stroke:#FF0000;stroke-width:2.0px;stroke-linecap:butt;stroke-linejoin:miter;stroke-opacity:1"/>
<path class="bond-6 atom-6 atom-7" d="M 582.9,240.6 L 570.0,238.4" style="fill:none;fill-rule:evenodd;stroke:#000000;stroke-width:2.0px;stroke-linecap:butt;stroke-linejoin:miter;stroke-opacity:1"/>
<path class="bond-6 atom-6 atom-7" d="M 570.0,238.4 L 558.0,236.4" style="fill:none;fill-rule:evenodd;stroke:#FF0000;stroke-width:2.0px;stroke-linecap:butt;stroke-linejoin:miter;stroke-opacity:1"/>
<path class="bond-7 atom-6 atom-8" d="M 581.2,237.3 L 600.0,273.4" style="fill:none;fill-rule:evenodd;stroke:#000000;stroke-width:2.0px;stroke-linecap:butt;stroke-linejoin:miter;stroke-opacity:1"/>
<path class="bond-8 atom-8 atom-9" d="M 600.0,273.4 L 636.1,254.6" style="fill:none;fill-rule:evenodd;stroke:#000000;stroke-width:2.0px;stroke-linecap:butt;stroke-linejoin:miter;stroke-opacity:1"/>
<path class="bond-9 atom-9 atom-10" d="M 636.1,254.6 L 670.5,276.5" style="fill:none;fill-rule:evenodd;stroke:#000000;stroke-width:2.0px;stroke-linecap:butt;stroke-linejoin:miter;stroke-opacity:1"/>
<path class="bond-10 atom-10 atom-11" d="M 667.6,274.6 L 666.8,292.3" style="fill:none;fill-rule:evenodd;stroke:#000000;stroke-width:2.0px;stroke-linecap:butt;stroke-linejoin:miter;stroke-opacity:1"/>
<path class="bond-10 atom-10 atom-11" d="M 666.8,292.3 L 666.0,309.9" style="fill:none;fill-rule:evenodd;stroke:#FF0000;stroke-width:2.0px;stroke-linecap:butt;stroke-linejoin:miter;stroke-opacity:1"/>
<path class="bond-10 atom-10 atom-11" d="M 673.5,274.9 L 672.8,292.5" style="fill:none;fill-rule:evenodd;stroke:#000000;stroke-width:2.0px;stroke-linecap:butt;stroke-linejoin:miter;stroke-opacity:1"/>
<path class="bond-10 atom-10 atom-11" d="M 672.8,292.5 L 672.0,310.2" style="fill:none;fill-rule:evenodd;stroke:#FF0000;stroke-width:2.0px;stroke-linecap:butt;stroke-linejoin:miter;stroke-opacity:1"/>
<path class="bond-11 atom-10 atom-12" d="M 670.5,276.5 L 685.2,268.8" style="fill:none;fill-rule:evenodd;stroke:#000000;stroke-width:2.0px;stroke-linecap:butt;stroke-linejoin:miter;stroke-opacity:1"/>
<path class="bond-11 atom-10 atom-12" d="M 685.2,268.8 L 700.0,261.1" style="fill:none;fill-rule:evenodd;stroke:#FF0000;stroke-width:2.0px;stroke-linecap:butt;stroke-linejoin:miter;stroke-opacity:1"/>
<path class="bond-12 atom-12 atom-13" d="M 713.2,261.9 L 727.1,270.8" style="fill:none;fill-rule:evenodd;stroke:#FF0000;stroke-width:2.0px;stroke-linecap:butt;stroke-linejoin:miter;stroke-opacity:1"/>
<path class="bond-12 atom-12 atom-13" d="M 727.1,270.8 L 740.9,279.6" style="fill:none;fill-rule:evenodd;stroke:#000000;stroke-width:2.0px;stroke-linecap:butt;stroke-linejoin:miter;stroke-opacity:1"/>
<path class="bond-13 atom-13 atom-14" d="M 740.9,279.6 L 777.1,260.8" style="fill:none;fill-rule:evenodd;stroke:#000000;stroke-width:2.0px;stroke-linecap:butt;stroke-linejoin:miter;stroke-opacity:1"/>
<path class="bond-14 atom-14 atom-15" d="M 777.1,260.8 L 811.4,282.7" style="fill:none;fill-rule:evenodd;stroke:#000000;stroke-width:2.0px;stroke-linecap:butt;stroke-linejoin:miter;stroke-opacity:1"/>
<path class="bond-15 atom-15 atom-16" d="M 811.4,282.7 L 847.5,263.9" style="fill:none;fill-rule:evenodd;stroke:#000000;stroke-width:2.0px;stroke-linecap:butt;stroke-linejoin:miter;stroke-opacity:1"/>
<path class="bond-16 atom-8 atom-17" d="M 600.0,273.4 L 563.9,292.2" style="fill:none;fill-rule:evenodd;stroke:#000000;stroke-width:2.0px;stroke-linecap:butt;stroke-linejoin:miter;stroke-opacity:1"/>
<path class="bond-17 atom-17 atom-18" d="M 563.9,292.2 L 529.5,270.3" style="fill:none;fill-rule:evenodd;stroke:#000000;stroke-width:2.0px;stroke-linecap:butt;stroke-linejoin:miter;stroke-opacity:1"/>
<path class="bond-18 atom-18 atom-19" d="M 532.7,272.3 L 531.7,260.1" style="fill:none;fill-rule:evenodd;stroke:#000000;stroke-width:2.0px;stroke-linecap:butt;stroke-linejoin:miter;stroke-opacity:1"/>
<path class="bond-18 atom-18 atom-19" d="M 531.7,260.1 L 530.8,247.8" style="fill:none;fill-rule:evenodd;stroke:#FF0000;stroke-width:2.0px;stroke-linecap:butt;stroke-linejoin:miter;stroke-opacity:1"/>
<path class="bond-18 atom-18 atom-19" d="M 526.6,271.8 L 525.8,260.5" style="fill:none;fill-rule:evenodd;stroke:#000000;stroke-width:2.0px;stroke-linecap:butt;stroke-linejoin:miter;stroke-opacity:1"/>
<path class="bond-18 atom-18 atom-19" d="M 525.8,260.5 L 524.8,248.3" style="fill:none;fill-rule:evenodd;stroke:#FF0000;stroke-width:2.0px;stroke-linecap:butt;stroke-linejoin:miter;stroke-opacity:1"/>
<path class="bond-19 atom-18 atom-20" d="M 529.5,270.3 L 514.8,278.0" style="fill:none;fill-rule:evenodd;stroke:#000000;stroke-width:2.0px;stroke-linecap:butt;stroke-linejoin:miter;stroke-opacity:1"/>
<path class="bond-19 atom-18 atom-20" d="M 514.8,278.0 L 500.0,285.7" style="fill:none;fill-rule:evenodd;stroke:#FF0000;stroke-width:2.0px;stroke-linecap:butt;stroke-linejoin:miter;stroke-opacity:1"/>
<path class="bond-20 atom-20 atom-21" d="M 486.8,284.9 L 472.9,276.0" style="fill:none;fill-rule:evenodd;stroke:#FF0000;stroke-width:2.0px;stroke-linecap:butt;stroke-linejoin:miter;stroke-opacity:1"/>
<path class="bond-20 atom-20 atom-21" d="M 472.9,276.0 L 459.1,267.2" style="fill:none;fill-rule:evenodd;stroke:#000000;stroke-width:2.0px;stroke-linecap:butt;stroke-linejoin:miter;stroke-opacity:1"/>
<path class="bond-21 atom-21 atom-22" d="M 459.1,267.2 L 422.9,286.0" style="fill:none;fill-rule:evenodd;stroke:#000000;stroke-width:2.0px;stroke-linecap:butt;stroke-linejoin:miter;stroke-opacity:1"/>
<path class="bond-22 atom-22 atom-23" d="M 422.9,286.0 L 388.6,264.1" style="fill:none;fill-rule:evenodd;stroke:#000000;stroke-width:2.0px;stroke-linecap:butt;stroke-linejoin:miter;stroke-opacity:1"/>
<path class="bond-23 atom-23 atom-24" d="M 388.6,264.1 L 352.5,282.9" style="fill:none;fill-rule:evenodd;stroke:#000000;stroke-width:2.0px;stroke-linecap:butt;stroke-linejoin:miter;stroke-opacity:1"/>
<path class="bond-24 atom-8 atom-25" d="M 600.0,273.4 L 607.5,287.9" style="fill:none;fill-rule:evenodd;stroke:#000000;stroke-width:2.0px;stroke-linecap:butt;stroke-linejoin:miter;stroke-opacity:1"/>
<path class="bond-24 atom-8 atom-25" d="M 607.5,287.9 L 615.1,302.4" style="fill:none;fill-rule:evenodd;stroke:#FF0000;stroke-width:2.0px;stroke-linecap:butt;stroke-linejoin:miter;stroke-opacity:1"/>
<path class="bond-25 atom-25 atom-26" d="M 614.1,316.9 L 605.5,330.4" style="fill:none;fill-rule:evenodd;stroke:#FF0000;stroke-width:2.0px;stroke-linecap:butt;stroke-linejoin:miter;stroke-opacity:1"/>
<path class="bond-25 atom-25 atom-26" d="M 605.5,330.4 L 596.9,343.9" style="fill:none;fill-rule:evenodd;stroke:#000000;stroke-width:2.0px;stroke-linecap:butt;stroke-linejoin:miter;stroke-opacity:1"/>
<path class="bond-26 atom-26 atom-27" d="M 596.9,343.9 L 615.7,380.0" style="fill:none;fill-rule:evenodd;stroke:#000000;stroke-width:2.0px;stroke-linecap:butt;stroke-linejoin:miter;stroke-opacity:1"/>
<path class="bond-27 atom-26 atom-28" d="M 598.8,341.0 L 580.9,340.2" style="fill:none;fill-rule:evenodd;stroke:#000000;stroke-width:2.0px;stroke-linecap:butt;stroke-linejoin:miter;stroke-opacity:1"/>
<path class="bond-27 atom-26 atom-28" d="M 580.9,340.2 L 563.0,339.4" style="fill:none;fill-rule:evenodd;stroke:#FF0000;stroke-width:2.0px;stroke-linecap:butt;stroke-linejoin:miter;stroke-opacity:1"/>
<path class="bond-27 atom-26 atom-28" d="M 598.5,346.9 L 580.6,346.2" style="fill:none;fill-rule:evenodd;stroke:#000000;stroke-width:2.0px;stroke-linecap:butt;stroke-linejoin:miter;stroke-opacity:1"/>
<path class="bond-27 atom-26 atom-28" d="M 580.6,346.2 L 562.7,345.4" style="fill:none;fill-rule:evenodd;stroke:#FF0000;stroke-width:2.0px;stroke-linecap:butt;stroke-linejoin:miter;stroke-opacity:1"/>
<path d="M 608.8,61.1 L 609.3,62.0 L 608.2,63.7" style="fill:none;stroke:#000000;stroke-width:2.0px;stroke-linecap:butt;stroke-linejoin:miter;stroke-opacity:1;"/>
<path d="M 588.5,94.6 L 587.4,96.3 L 588.3,98.1" style="fill:none;stroke:#000000;stroke-width:2.0px;stroke-linecap:butt;stroke-linejoin:miter;stroke-opacity:1;"/>
<path d="M 605.3,130.7 L 606.2,132.5 L 605.1,134.2" style="fill:none;stroke:#000000;stroke-width:2.0px;stroke-linecap:butt;stroke-linejoin:miter;stroke-opacity:1;"/>
<path d="M 585.4,165.1 L 584.3,166.8 L 584.7,167.5" style="fill:none;stroke:#000000;stroke-width:2.0px;stroke-linecap:butt;stroke-linejoin:miter;stroke-opacity:1;"/>
<path d="M 581.6,236.6 L 581.2,237.3 L 582.1,239.1" style="fill:none;stroke:#000000;stroke-width:2.0px;stroke-linecap:butt;stroke-linejoin:miter;stroke-opacity:1;"/>
<path d="M 634.3,255.5 L 636.1,254.6 L 637.8,255.7" style="fill:none;stroke:#000000;stroke-width:2.0px;stroke-linecap:butt;stroke-linejoin:miter;stroke-opacity:1;"/>
<path d="M 668.8,275.4 L 670.5,276.5 L 671.2,276.1" style="fill:none;stroke:#000000;stroke-width:2.0px;stroke-linecap:butt;stroke-linejoin:miter;stroke-opacity:1;"/>
<path d="M 740.2,279.2 L 740.9,279.6 L 742.7,278.7" style="fill:none;stroke:#000000;stroke-width:2.0px;stroke-linecap:butt;stroke-linejoin:miter;stroke-opacity:1;"/>
<path d="M 775.3,261.7 L 777.1,260.8 L 778.8,261.9" style="fill:none;stroke:#000000;stroke-width:2.0px;stroke-linecap:butt;stroke-linejoin:miter;stroke-opacity:1;"/>
<path d="M 809.7,281.6 L 811.4,282.7 L 813.2,281.8" style="fill:none;stroke:#000000;stroke-width:2.0px;stroke-linecap:butt;stroke-linejoin:miter;stroke-opacity:1;"/>
<path d="M 565.7,291.3 L 563.9,292.2 L 562.2,291.1" style="fill:none;stroke:#000000;stroke-width:2.0px;stroke-linecap:butt;stroke-linejoin:miter;stroke-opacity:1;"/>
<path d="M 531.2,271.4 L 529.5,270.3 L 528.8,270.7" style="fill:none;stroke:#000000;stroke-width:2.0px;stroke-linecap:butt;stroke-linejoin:miter;stroke-opacity:1;"/>
<path d="M 459.8,267.6 L 459.1,267.2 L 457.3,268.1" style="fill:none;stroke:#000000;stroke-width:2.0px;stroke-linecap:butt;stroke-linejoin:miter;stroke-opacity:1;"/>
<path d="M 424.7,285.1 L 422.9,286.0 L 421.2,284.9" style="fill:none;stroke:#000000;stroke-width:2.0px;stroke-linecap:butt;stroke-linejoin:miter;stroke-opacity:1;"/>
<path d="M 390.3,265.2 L 388.6,264.1 L 386.8,265.0" style="fill:none;stroke:#000000;stroke-width:2.0px;stroke-linecap:butt;stroke-linejoin:miter;stroke-opacity:1;"/>
<path d="M 597.3,343.2 L 596.9,343.9 L 597.8,345.7" style="fill:none;stroke:#000000;stroke-width:2.0px;stroke-linecap:butt;stroke-linejoin:miter;stroke-opacity:1;"/>
<path class="atom-0" d="M 588.3 24.6 L 590.0 22.9 L 587.8 22.4 L 588.1 21.2 L 590.2 22.3 L 589.9 20.0 L 591.1 20.0 L 590.8 22.3 L 592.9 21.3 L 593.2 22.4 L 591.0 22.8 L 592.6 24.6 L 591.6 25.3 L 590.5 23.1 L 589.3 25.3 L 588.3 24.6 " fill="#191919"/>
<path class="atom-5" d="M 597.8 203.0 Q 597.8 200.2, 599.2 198.6 Q 600.5 197.1, 603.1 197.1 Q 605.7 197.1, 607.0 198.6 Q 608.4 200.2, 608.4 203.0 Q 608.4 205.8, 607.0 207.4 Q 605.6 208.9, 603.1 208.9 Q 600.6 208.9, 599.2 207.4 Q 597.8 205.8, 597.8 203.0 M 603.1 207.6 Q 604.9 207.6, 605.8 206.5 Q 606.8 205.3, 606.8 203.0 Q 606.8 200.7, 605.8 199.6 Q 604.9 198.4, 603.1 198.4 Q 601.3 198.4, 600.4 199.5 Q 599.4 200.7, 599.4 203.0 Q 599.4 205.3, 600.4 206.5 Q 601.3 207.6, 603.1 207.6 " fill="#FF0000"/>
<path class="atom-7" d="M 546.6 232.4 Q 546.6 229.6, 548.0 228.1 Q 549.4 226.5, 551.9 226.5 Q 554.5 226.5, 555.9 228.1 Q 557.2 229.6, 557.2 232.4 Q 557.2 235.2, 555.8 236.8 Q 554.5 238.4, 551.9 238.4 Q 549.4 238.4, 548.0 236.8 Q 546.6 235.2, 546.6 232.4 M 551.9 237.1 Q 553.7 237.1, 554.6 235.9 Q 555.6 234.7, 555.6 232.4 Q 555.6 230.1, 554.6 229.0 Q 553.7 227.8, 551.9 227.8 Q 550.2 227.8, 549.2 229.0 Q 548.3 230.1, 548.3 232.4 Q 548.3 234.7, 549.2 235.9 Q 550.2 237.1, 551.9 237.1 " fill="#FF0000"/>
<path class="atom-11" d="M 663.4 317.2 Q 663.4 314.4, 664.8 312.9 Q 666.1 311.4, 668.7 311.4 Q 671.2 311.4, 672.6 312.9 Q 674.0 314.4, 674.0 317.2 Q 674.0 320.0, 672.6 321.6 Q 671.2 323.2, 668.7 323.2 Q 666.1 323.2, 664.8 321.6 Q 663.4 320.0, 663.4 317.2 M 668.7 321.9 Q 670.4 321.9, 671.4 320.7 Q 672.3 319.5, 672.3 317.2 Q 672.3 315.0, 671.4 313.8 Q 670.4 312.7, 668.7 312.7 Q 666.9 312.7, 666.0 313.8 Q 665.0 314.9, 665.0 317.2 Q 665.0 319.5, 666.0 320.7 Q 666.9 321.9, 668.7 321.9 " fill="#FF0000"/>
<path class="atom-12" d="M 701.3 257.7 Q 701.3 255.0, 702.7 253.4 Q 704.0 251.9, 706.6 251.9 Q 709.2 251.9, 710.5 253.4 Q 711.9 255.0, 711.9 257.7 Q 711.9 260.5, 710.5 262.1 Q 709.1 263.7, 706.6 263.7 Q 704.1 263.7, 702.7 262.1 Q 701.3 260.6, 701.3 257.7 M 706.6 262.4 Q 708.4 262.4, 709.3 261.2 Q 710.3 260.1, 710.3 257.7 Q 710.3 255.5, 709.3 254.3 Q 708.4 253.2, 706.6 253.2 Q 704.8 253.2, 703.9 254.3 Q 702.9 255.5, 702.9 257.7 Q 702.9 260.1, 703.9 261.2 Q 704.8 262.4, 706.6 262.4 " fill="#FF0000"/>
<path class="atom-19" d="M 521.9 240.7 Q 521.9 238.0, 523.3 236.4 Q 524.7 234.9, 527.2 234.9 Q 529.8 234.9, 531.1 236.4 Q 532.5 238.0, 532.5 240.7 Q 532.5 243.5, 531.1 245.1 Q 529.7 246.7, 527.2 246.7 Q 524.7 246.7, 523.3 245.1 Q 521.9 243.6, 521.9 240.7 M 527.2 245.4 Q 529.0 245.4, 529.9 244.2 Q 530.9 243.1, 530.9 240.7 Q 530.9 238.5, 529.9 237.3 Q 529.0 236.2, 527.2 236.2 Q 525.5 236.2, 524.5 237.3 Q 523.5 238.5, 523.5 240.7 Q 523.5 243.1, 524.5 244.2 Q 525.5 245.4, 527.2 245.4 " fill="#FF0000"/>
<path class="atom-20" d="M 488.1 289.1 Q 488.1 286.4, 489.5 284.8 Q 490.8 283.3, 493.4 283.3 Q 496.0 283.3, 497.3 284.8 Q 498.7 286.4, 498.7 289.1 Q 498.7 291.9, 497.3 293.5 Q 495.9 295.1, 493.4 295.1 Q 490.9 295.1, 489.5 293.5 Q 488.1 291.9, 488.1 289.1 M 493.4 293.8 Q 495.2 293.8, 496.1 292.6 Q 497.1 291.4, 497.1 289.1 Q 497.1 286.9, 496.1 285.7 Q 495.2 284.6, 493.4 284.6 Q 491.6 284.6, 490.7 285.7 Q 489.7 286.8, 489.7 289.1 Q 489.7 291.5, 490.7 292.6 Q 491.6 293.8, 493.4 293.8 " fill="#FF0000"/>
<path class="atom-25" d="M 613.5 309.6 Q 613.5 306.8, 614.9 305.2 Q 616.2 303.7, 618.8 303.7 Q 621.4 303.7, 622.7 305.2 Q 624.1 306.8, 624.1 309.6 Q 624.1 312.4, 622.7 314.0 Q 621.3 315.5, 618.8 315.5 Q 616.3 315.5, 614.9 314.0 Q 613.5 312.4, 613.5 309.6 M 618.8 314.2 Q 620.6 314.2, 621.5 313.1 Q 622.5 311.9, 622.5 309.6 Q 622.5 307.3, 621.5 306.2 Q 620.6 305.0, 618.8 305.0 Q 617.0 305.0, 616.1 306.1 Q 615.1 307.3, 615.1 309.6 Q 615.1 311.9, 616.1 313.1 Q 617.0 314.2, 618.8 314.2 " fill="#FF0000"/>
<path class="atom-28" d="M 550.9 342.1 Q 550.9 339.3, 552.3 337.8 Q 553.7 336.2, 556.2 336.2 Q 558.8 336.2, 560.1 337.8 Q 561.5 339.3, 561.5 342.1 Q 561.5 344.9, 560.1 346.5 Q 558.7 348.1, 556.2 348.1 Q 553.7 348.1, 552.3 346.5 Q 550.9 344.9, 550.9 342.1 M 556.2 346.8 Q 558.0 346.8, 558.9 345.6 Q 559.9 344.4, 559.9 342.1 Q 559.9 339.8, 558.9 338.7 Q 558.0 337.6, 556.2 337.6 Q 554.5 337.6, 553.5 338.7 Q 552.6 339.8, 552.6 342.1 Q 552.6 344.4, 553.5 345.6 Q 554.5 346.8, 556.2 346.8 " fill="#FF0000"/>
<path class="bond-0 atom-0 atom-1" d="M 660.6,586.0 L 652.8,599.7" style="fill:none;fill-rule:evenodd;stroke:#191919;stroke-width:2.0px;stroke-linecap:butt;stroke-linejoin:miter;stroke-opacity:1"/>
<path class="bond-0 atom-0 atom-1" d="M 652.8,599.7 L 644.9,613.4" style="fill:none;fill-rule:evenodd;stroke:#FF0000;stroke-width:2.0px;stroke-linecap:butt;stroke-linejoin:miter;stroke-opacity:1"/>
<path class="bond-1 atom-1 atom-2" d="M 634.1,620.6 L 617.0,620.6" style="fill:none;fill-rule:evenodd;stroke:#FF0000;stroke-width:2.0px;stroke-linecap:butt;stroke-linejoin:miter;stroke-opacity:1"/>
<path class="bond-1 atom-1 atom-2" d="M 617.0,620.6 L 600.0,620.6" style="fill:none;fill-rule:evenodd;stroke:#000000;stroke-width:2.0px;stroke-linecap:butt;stroke-linejoin:miter;stroke-opacity:1"/>
<path class="bond-2 atom-2 atom-3" d="M 600.0,620.6 L 579.6,655.8" style="fill:none;fill-rule:evenodd;stroke:#000000;stroke-width:2.0px;stroke-linecap:butt;stroke-linejoin:miter;stroke-opacity:1"/>
<path class="bond-3 atom-2 atom-4" d="M 600.0,620.6 L 579.6,585.3" style="fill:none;fill-rule:evenodd;stroke:#000000;stroke-width:2.0px;stroke-linecap:butt;stroke-linejoin:miter;stroke-opacity:1"/>
<path class="bond-4 atom-4 atom-5" d="M 579.6,585.3 L 561.3,585.3" style="fill:none;fill-rule:evenodd;stroke:#000000;stroke-width:2.0px;stroke-linecap:butt;stroke-linejoin:miter;stroke-opacity:1"/>
<path class="bond-4 atom-4 atom-5" d="M 561.3,585.3 L 543.0,585.3" style="fill:none;fill-rule:evenodd;stroke:#191919;stroke-width:2.0px;stroke-linecap:butt;stroke-linejoin:miter;stroke-opacity:1"/>
<path class="bond-5 atom-4 atom-6" d="M 581.4,588.3 L 589.9,573.6" style="fill:none;fill-rule:evenodd;stroke:#000000;stroke-width:2.0px;stroke-linecap:butt;stroke-linejoin:miter;stroke-opacity:1"/>
<path class="bond-5 atom-4 atom-6" d="M 589.9,573.6 L 598.4,558.9" style="fill:none;fill-rule:evenodd;stroke:#FF0000;stroke-width:2.0px;stroke-linecap:butt;stroke-linejoin:miter;stroke-opacity:1"/>
<path class="bond-5 atom-4 atom-6" d="M 576.1,585.3 L 584.6,570.6" style="fill:none;fill-rule:evenodd;stroke:#000000;stroke-width:2.0px;stroke-linecap:butt;stroke-linejoin:miter;stroke-opacity:1"/>
<path class="bond-5 atom-4 atom-6" d="M 584.6,570.6 L 593.1,555.8" style="fill:none;fill-rule:evenodd;stroke:#FF0000;stroke-width:2.0px;stroke-linecap:butt;stroke-linejoin:miter;stroke-opacity:1"/>
<path d="M 580.7,587.0 L 579.6,585.3 L 578.7,585.3" style="fill:none;stroke:#000000;stroke-width:2.0px;stroke-linecap:butt;stroke-linejoin:miter;stroke-opacity:1;"/>
<path class="atom-0" d="M 658.9 584.0 L 660.6 582.3 L 658.4 581.8 L 658.7 580.7 L 660.8 581.7 L 660.5 579.4 L 661.7 579.4 L 661.4 581.7 L 663.5 580.7 L 663.8 581.8 L 661.5 582.2 L 663.2 584.0 L 662.2 584.7 L 661.0 582.5 L 659.9 584.7 L 658.9 584.0 " fill="#191919"/>
<path class="atom-1" d="M 635.4 620.6 Q 635.4 617.8, 636.8 616.3 Q 638.2 614.7, 640.7 614.7 Q 643.3 614.7, 644.7 616.3 Q 646.0 617.8, 646.0 620.6 Q 646.0 623.4, 644.6 625.0 Q 643.2 626.6, 640.7 626.6 Q 638.2 626.6, 636.8 625.0 Q 635.4 623.4, 635.4 620.6 M 640.7 625.3 Q 642.5 625.3, 643.4 624.1 Q 644.4 622.9, 644.4 620.6 Q 644.4 618.3, 643.4 617.2 Q 642.5 616.0, 640.7 616.0 Q 639.0 616.0, 638.0 617.2 Q 637.1 618.3, 637.1 620.6 Q 637.1 622.9, 638.0 624.1 Q 639.0 625.3, 640.7 625.3 " fill="#FF0000"/>
<path class="atom-5" d="M 536.7 584.0 L 538.4 582.3 L 536.2 581.8 L 536.5 580.7 L 538.6 581.7 L 538.3 579.4 L 539.5 579.4 L 539.2 581.7 L 541.3 580.7 L 541.6 581.8 L 539.4 582.2 L 541.0 584.0 L 540.0 584.7 L 538.9 582.5 L 537.7 584.7 L 536.7 584.0 " fill="#191919"/>
<path class="atom-6" d="M 594.7 550.0 Q 594.7 547.3, 596.1 545.7 Q 597.4 544.2, 600.0 544.2 Q 602.6 544.2, 603.9 545.7 Q 605.3 547.3, 605.3 550.0 Q 605.3 552.8, 603.9 554.4 Q 602.5 556.0, 600.0 556.0 Q 597.5 556.0, 596.1 554.4 Q 594.7 552.9, 594.7 550.0 M 600.0 554.7 Q 601.8 554.7, 602.7 553.5 Q 603.7 552.4, 603.7 550.0 Q 603.7 547.8, 602.7 546.6 Q 601.8 545.5, 600.0 545.5 Q 598.2 545.5, 597.3 546.6 Q 596.3 547.8, 596.3 550.0 Q 596.3 552.4, 597.3 553.5 Q 598.2 554.7, 600.0 554.7 " fill="#FF0000"/>
</svg>