<svg xmlns="http://www.w3.org/2000/svg" xmlns:rdkit="http://www.rdkit.org/xml" xmlns:xlink="http://www.w3.org/1999/xlink" version="1.1" baseProfile="full" xml:space="preserve" width="1200px" height="800px" viewBox="0 0 1200 800">
<!-- END OF HEADER -->
<rect style="opacity:1.0;fill:#FFFFFF;stroke:none" width="1200.0" height="800.0" x="0.0" y="0.0"> </rect>
<path class="bond-0 atom-0 atom-1" d="M 813.5,153.6 L 781.3,209.3" style="fill:none;fill-rule:evenodd;stroke:#191919;stroke-width:2.0px;stroke-linecap:butt;stroke-linejoin:miter;stroke-opacity:1"/>
<path class="bond-0 atom-0 atom-1" d="M 781.3,209.3 L 749.2,265.0" style="fill:none;fill-rule:evenodd;stroke:#000000;stroke-width:2.0px;stroke-linecap:butt;stroke-linejoin:miter;stroke-opacity:1"/>
<path class="bond-1 atom-1 atom-2" d="M 749.2,265.0 L 617.1,265.0" style="fill:none;fill-rule:evenodd;stroke:#000000;stroke-width:2.0px;stroke-linecap:butt;stroke-linejoin:miter;stroke-opacity:1"/>
<path class="bond-2 atom-2 atom-3" d="M 617.1,265.0 L 589.5,312.8" style="fill:none;fill-rule:evenodd;stroke:#000000;stroke-width:2.0px;stroke-linecap:butt;stroke-linejoin:miter;stroke-opacity:1"/>
<path class="bond-2 atom-2 atom-3" d="M 589.5,312.8 L 562.0,360.6" style="fill:none;fill-rule:evenodd;stroke:#191919;stroke-width:2.0px;stroke-linecap:butt;stroke-linejoin:miter;stroke-opacity:1"/>
<path class="bond-3 atom-2 atom-4" d="M 617.1,265.0 L 551.1,150.7" style="fill:none;fill-rule:evenodd;stroke:#000000;stroke-width:2.0px;stroke-linecap:butt;stroke-linejoin:miter;stroke-opacity:1"/>
<path class="bond-4 atom-4 atom-5" d="M 556.8,160.6 L 585.8,110.5" style="fill:none;fill-rule:evenodd;stroke:#000000;stroke-width:2.0px;stroke-linecap:butt;stroke-linejoin:miter;stroke-opacity:1"/>
<path class="bond-4 atom-4 atom-5" d="M 585.8,110.5 L 614.7,60.4" style="fill:none;fill-rule:evenodd;stroke:#FF0000;stroke-width:2.0px;stroke-linecap:butt;stroke-linejoin:miter;stroke-opacity:1"/>
<path class="bond-4 atom-4 atom-5" d="M 539.7,150.7 L 568.6,100.6" style="fill:none;fill-rule:evenodd;stroke:#000000;stroke-width:2.0px;stroke-linecap:butt;stroke-linejoin:miter;stroke-opacity:1"/>
<path class="bond-4 atom-4 atom-5" d="M 568.6,100.6 L 597.5,50.5" style="fill:none;fill-rule:evenodd;stroke:#FF0000;stroke-width:2.0px;stroke-linecap:butt;stroke-linejoin:miter;stroke-opacity:1"/>
<path class="bond-5 atom-4 atom-6" d="M 551.1,150.7 L 493.8,150.7" style="fill:none;fill-rule:evenodd;stroke:#000000;stroke-width:2.0px;stroke-linecap:butt;stroke-linejoin:miter;stroke-opacity:1"/>
<path class="bond-5 atom-4 atom-6" d="M 493.8,150.7 L 436.5,150.7" style="fill:none;fill-rule:evenodd;stroke:#FF0000;stroke-width:2.0px;stroke-linecap:butt;stroke-linejoin:miter;stroke-opacity:1"/>
<path d="M 750.8,262.3 L 749.2,265.0 L 742.6,265.0" style="fill:none;stroke:#000000;stroke-width:2.0px;stroke-linecap:butt;stroke-linejoin:miter;stroke-opacity:1;"/>
<path d="M 554.4,156.4 L 551.1,150.7 L 548.3,150.7" style="fill:none;stroke:#000000;stroke-width:2.0px;stroke-linecap:butt;stroke-linejoin:miter;stroke-opacity:1;"/>
<path class="atom-0" d="M 809.8 147.6 L 814.0 143.3 L 808.5 142.2 L 809.3 139.4 L 814.4 141.9 L 813.7 136.4 L 816.7 136.3 L 815.8 141.9 L 821.0 139.5 L 821.9 142.2 L 816.3 143.2 L 820.3 147.5 L 817.8 149.3 L 815.1 144.0 L 812.3 149.3 L 809.8 147.6 " fill="#191919"/>
<path class="atom-3" d="M 545.8 376.2 L 549.9 372.0 L 544.4 370.9 L 545.3 368.0 L 550.3 370.6 L 549.6 365.0 L 552.6 365.0 L 551.8 370.5 L 556.9 368.1 L 557.8 370.9 L 552.2 371.9 L 556.2 376.2 L 553.8 377.9 L 551.0 372.7 L 548.2 377.9 L 545.8 376.2 " fill="#191919"/>
<path class="atom-5" d="M 604.1 36.5 Q 604.1 29.7, 607.5 25.9 Q 610.9 22.1, 617.1 22.1 Q 623.4 22.1, 626.8 25.9 Q 630.1 29.7, 630.1 36.5 Q 630.1 43.3, 626.7 47.3 Q 623.3 51.1, 617.1 51.1 Q 610.9 51.1, 607.5 47.3 Q 604.1 43.4, 604.1 36.5 M 617.1 47.9 Q 621.5 47.9, 623.8 45.1 Q 626.1 42.1, 626.1 36.5 Q 626.1 30.9, 623.8 28.1 Q 621.5 25.3, 617.1 25.3 Q 612.8 25.3, 610.5 28.1 Q 608.1 30.9, 608.1 36.5 Q 608.1 42.2, 610.5 45.1 Q 612.8 47.9, 617.1 47.9 " fill="#FF0000"/>
<path class="atom-6" d="M 378.1 136.7 L 382.0 136.7 L 382.0 148.8 L 396.5 148.8 L 396.5 136.7 L 400.3 136.7 L 400.3 165.0 L 396.5 165.0 L 396.5 152.0 L 382.0 152.0 L 382.0 165.0 L 378.1 165.0 L 378.1 136.7 " fill="#FF0000"/>
<path class="atom-6" d="M 406.1 150.8 Q 406.1 144.0, 409.5 140.2 Q 412.8 136.4, 419.1 136.4 Q 425.4 136.4, 428.7 140.2 Q 432.1 144.0, 432.1 150.8 Q 432.1 157.7, 428.7 161.6 Q 425.3 165.5, 419.1 165.5 Q 412.9 165.5, 409.5 161.6 Q 406.1 157.7, 406.1 150.8 M 419.1 162.3 Q 423.4 162.3, 425.7 159.4 Q 428.1 156.5, 428.1 150.8 Q 428.1 145.2, 425.7 142.4 Q 423.4 139.6, 419.1 139.6 Q 414.8 139.6, 412.4 142.4 Q 410.1 145.2, 410.1 150.8 Q 410.1 156.5, 412.4 159.4 Q 414.8 162.3, 419.1 162.3 " fill="#FF0000"/>
<path class="bond-0 atom-0 atom-1" d="M 548.4,607.2 L 608.9,607.2" style="fill:none;fill-rule:evenodd;stroke:#191919;stroke-width:2.0px;stroke-linecap:butt;stroke-linejoin:miter;stroke-opacity:1"/>
<path class="bond-0 atom-0 atom-1" d="M 608.9,607.2 L 669.4,607.2" style="fill:none;fill-rule:evenodd;stroke:#000000;stroke-width:2.0px;stroke-linecap:butt;stroke-linejoin:miter;stroke-opacity:1"/>
<path class="atom-0" d="M 532.0 604.0 L 536.2 599.8 L 530.6 598.7 L 531.5 595.8 L 536.6 598.4 L 535.8 592.8 L 538.8 592.8 L 538.0 598.4 L 543.2 596.0 L 544.0 598.7 L 538.4 599.7 L 542.4 604.0 L 540.0 605.8 L 537.2 600.5 L 534.4 605.8 L 532.0 604.0 " fill="#191919"/>
</svg>