<svg xmlns="http://www.w3.org/2000/svg" xmlns:rdkit="http://www.rdkit.org/xml" xmlns:xlink="http://www.w3.org/1999/xlink" version="1.1" baseProfile="full" xml:space="preserve" width="1200px" height="800px" viewBox="0 0 1200 800">
<!-- END OF HEADER -->
<rect style="opacity:1.0;fill:#FFFFFF;stroke:none" width="1200.0" height="800.0" x="0.0" y="0.0"> </rect>
<path class="bond-0 atom-0 atom-1" d="M 103.4,258.1 L 137.1,272.9" style="fill:none;fill-rule:evenodd;stroke:#191919;stroke-width:2.0px;stroke-linecap:butt;stroke-linejoin:miter;stroke-opacity:1"/>
<path class="bond-0 atom-0 atom-1" d="M 137.1,272.9 L 170.8,287.6" style="fill:none;fill-rule:evenodd;stroke:#FF0000;stroke-width:2.0px;stroke-linecap:butt;stroke-linejoin:miter;stroke-opacity:1"/>
<path class="bond-1 atom-1 atom-2" d="M 201.8,283.0 L 232.2,260.5" style="fill:none;fill-rule:evenodd;stroke:#FF0000;stroke-width:2.0px;stroke-linecap:butt;stroke-linejoin:miter;stroke-opacity:1"/>
<path class="bond-1 atom-1 atom-2" d="M 232.2,260.5 L 262.7,238.0" style="fill:none;fill-rule:evenodd;stroke:#000000;stroke-width:2.0px;stroke-linecap:butt;stroke-linejoin:miter;stroke-opacity:1"/>
<path class="bond-2 atom-2 atom-3" d="M 270.2,241.3 L 265.7,200.7" style="fill:none;fill-rule:evenodd;stroke:#000000;stroke-width:2.0px;stroke-linecap:butt;stroke-linejoin:miter;stroke-opacity:1"/>
<path class="bond-2 atom-2 atom-3" d="M 265.7,200.7 L 261.1,160.1" style="fill:none;fill-rule:evenodd;stroke:#FF0000;stroke-width:2.0px;stroke-linecap:butt;stroke-linejoin:miter;stroke-opacity:1"/>
<path class="bond-2 atom-2 atom-3" d="M 256.1,242.9 L 251.5,202.3" style="fill:none;fill-rule:evenodd;stroke:#000000;stroke-width:2.0px;stroke-linecap:butt;stroke-linejoin:miter;stroke-opacity:1"/>
<path class="bond-2 atom-2 atom-3" d="M 251.5,202.3 L 247.0,161.7" style="fill:none;fill-rule:evenodd;stroke:#FF0000;stroke-width:2.0px;stroke-linecap:butt;stroke-linejoin:miter;stroke-opacity:1"/>
<path class="bond-3 atom-2 atom-4" d="M 262.7,238.0 L 299.5,254.1" style="fill:none;fill-rule:evenodd;stroke:#000000;stroke-width:2.0px;stroke-linecap:butt;stroke-linejoin:miter;stroke-opacity:1"/>
<path class="bond-3 atom-2 atom-4" d="M 299.5,254.1 L 336.3,270.2" style="fill:none;fill-rule:evenodd;stroke:#0000FF;stroke-width:2.0px;stroke-linecap:butt;stroke-linejoin:miter;stroke-opacity:1"/>
<path class="bond-4 atom-4 atom-5" d="M 363.0,266.2 L 394.5,243.0" style="fill:none;fill-rule:evenodd;stroke:#0000FF;stroke-width:2.0px;stroke-linecap:butt;stroke-linejoin:miter;stroke-opacity:1"/>
<path class="bond-4 atom-4 atom-5" d="M 394.5,243.0 L 426.1,219.7" style="fill:none;fill-rule:evenodd;stroke:#000000;stroke-width:2.0px;stroke-linecap:butt;stroke-linejoin:miter;stroke-opacity:1"/>
<path class="bond-5 atom-5 atom-6" d="M 426.1,219.7 L 415.5,125.4" style="fill:none;fill-rule:evenodd;stroke:#000000;stroke-width:2.0px;stroke-linecap:butt;stroke-linejoin:miter;stroke-opacity:1"/>
<path class="bond-5 atom-5 atom-6" d="M 439.3,210.0 L 430.6,132.0" style="fill:none;fill-rule:evenodd;stroke:#000000;stroke-width:2.0px;stroke-linecap:butt;stroke-linejoin:miter;stroke-opacity:1"/>
<path class="bond-6 atom-6 atom-7" d="M 415.5,125.4 L 491.9,69.1" style="fill:none;fill-rule:evenodd;stroke:#000000;stroke-width:2.0px;stroke-linecap:butt;stroke-linejoin:miter;stroke-opacity:1"/>
<path class="bond-7 atom-7 atom-8" d="M 491.9,69.1 L 578.9,107.1" style="fill:none;fill-rule:evenodd;stroke:#000000;stroke-width:2.0px;stroke-linecap:butt;stroke-linejoin:miter;stroke-opacity:1"/>
<path class="bond-7 atom-7 atom-8" d="M 493.7,85.5 L 565.6,116.9" style="fill:none;fill-rule:evenodd;stroke:#000000;stroke-width:2.0px;stroke-linecap:butt;stroke-linejoin:miter;stroke-opacity:1"/>
<path class="bond-8 atom-8 atom-9" d="M 578.9,107.1 L 655.3,50.8" style="fill:none;fill-rule:evenodd;stroke:#000000;stroke-width:2.0px;stroke-linecap:butt;stroke-linejoin:miter;stroke-opacity:1"/>
<path class="bond-9 atom-9 atom-10" d="M 655.3,50.8 L 742.2,88.8" style="fill:none;fill-rule:evenodd;stroke:#000000;stroke-width:2.0px;stroke-linecap:butt;stroke-linejoin:miter;stroke-opacity:1"/>
<path class="bond-10 atom-10 atom-11" d="M 742.2,88.8 L 752.8,183.1" style="fill:none;fill-rule:evenodd;stroke:#000000;stroke-width:2.0px;stroke-linecap:butt;stroke-linejoin:miter;stroke-opacity:1"/>
<path class="bond-10 atom-10 atom-11" d="M 757.3,95.4 L 766.0,173.4" style="fill:none;fill-rule:evenodd;stroke:#000000;stroke-width:2.0px;stroke-linecap:butt;stroke-linejoin:miter;stroke-opacity:1"/>
<path class="bond-11 atom-11 atom-12" d="M 752.8,183.1 L 839.8,221.2" style="fill:none;fill-rule:evenodd;stroke:#000000;stroke-width:2.0px;stroke-linecap:butt;stroke-linejoin:miter;stroke-opacity:1"/>
<path class="bond-12 atom-12 atom-13" d="M 839.8,221.2 L 916.2,164.8" style="fill:none;fill-rule:evenodd;stroke:#000000;stroke-width:2.0px;stroke-linecap:butt;stroke-linejoin:miter;stroke-opacity:1"/>
<path class="bond-12 atom-12 atom-13" d="M 837.9,204.8 L 901.1,158.3" style="fill:none;fill-rule:evenodd;stroke:#000000;stroke-width:2.0px;stroke-linecap:butt;stroke-linejoin:miter;stroke-opacity:1"/>
<path class="bond-13 atom-13 atom-14" d="M 916.2,164.8 L 953.0,180.9" style="fill:none;fill-rule:evenodd;stroke:#000000;stroke-width:2.0px;stroke-linecap:butt;stroke-linejoin:miter;stroke-opacity:1"/>
<path class="bond-13 atom-13 atom-14" d="M 953.0,180.9 L 989.8,197.0" style="fill:none;fill-rule:evenodd;stroke:#0000FF;stroke-width:2.0px;stroke-linecap:butt;stroke-linejoin:miter;stroke-opacity:1"/>
<path class="bond-14 atom-14 atom-15" d="M 1005.0,219.4 L 1009.3,258.3" style="fill:none;fill-rule:evenodd;stroke:#0000FF;stroke-width:2.0px;stroke-linecap:butt;stroke-linejoin:miter;stroke-opacity:1"/>
<path class="bond-14 atom-14 atom-15" d="M 1009.3,258.3 L 1013.7,297.2" style="fill:none;fill-rule:evenodd;stroke:#000000;stroke-width:2.0px;stroke-linecap:butt;stroke-linejoin:miter;stroke-opacity:1"/>
<path class="bond-15 atom-15 atom-16" d="M 1013.7,297.2 L 1052.4,314.1" style="fill:none;fill-rule:evenodd;stroke:#000000;stroke-width:2.0px;stroke-linecap:butt;stroke-linejoin:miter;stroke-opacity:1"/>
<path class="bond-15 atom-15 atom-16" d="M 1052.4,314.1 L 1091.2,331.0" style="fill:none;fill-rule:evenodd;stroke:#191919;stroke-width:2.0px;stroke-linecap:butt;stroke-linejoin:miter;stroke-opacity:1"/>
<path class="bond-16 atom-15 atom-17" d="M 1012.8,289.0 L 980.7,312.7" style="fill:none;fill-rule:evenodd;stroke:#000000;stroke-width:2.0px;stroke-linecap:butt;stroke-linejoin:miter;stroke-opacity:1"/>
<path class="bond-16 atom-15 atom-17" d="M 980.7,312.7 L 948.5,336.3" style="fill:none;fill-rule:evenodd;stroke:#FF0000;stroke-width:2.0px;stroke-linecap:butt;stroke-linejoin:miter;stroke-opacity:1"/>
<path class="bond-16 atom-15 atom-17" d="M 1021.2,300.5 L 989.1,324.1" style="fill:none;fill-rule:evenodd;stroke:#000000;stroke-width:2.0px;stroke-linecap:butt;stroke-linejoin:miter;stroke-opacity:1"/>
<path class="bond-16 atom-15 atom-17" d="M 989.1,324.1 L 957.0,347.8" style="fill:none;fill-rule:evenodd;stroke:#FF0000;stroke-width:2.0px;stroke-linecap:butt;stroke-linejoin:miter;stroke-opacity:1"/>
<path class="bond-17 atom-13 atom-18" d="M 916.2,164.8 L 905.6,70.5" style="fill:none;fill-rule:evenodd;stroke:#000000;stroke-width:2.0px;stroke-linecap:butt;stroke-linejoin:miter;stroke-opacity:1"/>
<path class="bond-18 atom-18 atom-19" d="M 905.6,70.5 L 818.6,32.5" style="fill:none;fill-rule:evenodd;stroke:#000000;stroke-width:2.0px;stroke-linecap:butt;stroke-linejoin:miter;stroke-opacity:1"/>
<path class="bond-18 atom-18 atom-19" d="M 892.4,80.3 L 820.5,48.9" style="fill:none;fill-rule:evenodd;stroke:#000000;stroke-width:2.0px;stroke-linecap:butt;stroke-linejoin:miter;stroke-opacity:1"/>
<path class="bond-19 atom-8 atom-20" d="M 578.9,107.1 L 589.4,201.4" style="fill:none;fill-rule:evenodd;stroke:#000000;stroke-width:2.0px;stroke-linecap:butt;stroke-linejoin:miter;stroke-opacity:1"/>
<path class="bond-20 atom-20 atom-21" d="M 589.4,201.4 L 513.0,257.8" style="fill:none;fill-rule:evenodd;stroke:#000000;stroke-width:2.0px;stroke-linecap:butt;stroke-linejoin:miter;stroke-opacity:1"/>
<path class="bond-20 atom-20 atom-21" d="M 574.4,194.9 L 511.2,241.4" style="fill:none;fill-rule:evenodd;stroke:#000000;stroke-width:2.0px;stroke-linecap:butt;stroke-linejoin:miter;stroke-opacity:1"/>
<path class="bond-21 atom-21 atom-5" d="M 513.0,257.8 L 426.1,219.7" style="fill:none;fill-rule:evenodd;stroke:#000000;stroke-width:2.0px;stroke-linecap:butt;stroke-linejoin:miter;stroke-opacity:1"/>
<path class="bond-22 atom-19 atom-10" d="M 818.6,32.5 L 742.2,88.8" style="fill:none;fill-rule:evenodd;stroke:#000000;stroke-width:2.0px;stroke-linecap:butt;stroke-linejoin:miter;stroke-opacity:1"/>
<path d="M 261.2,239.2 L 262.7,238.0 L 264.6,238.9" style="fill:none;stroke:#000000;stroke-width:2.0px;stroke-linecap:butt;stroke-linejoin:miter;stroke-opacity:1;"/>
<path d="M 416.0,130.1 L 415.5,125.4 L 419.3,122.6" style="fill:none;stroke:#000000;stroke-width:2.0px;stroke-linecap:butt;stroke-linejoin:miter;stroke-opacity:1;"/>
<path d="M 488.1,71.9 L 491.9,69.1 L 496.3,71.0" style="fill:none;stroke:#000000;stroke-width:2.0px;stroke-linecap:butt;stroke-linejoin:miter;stroke-opacity:1;"/>
<path d="M 651.4,53.6 L 655.3,50.8 L 659.6,52.7" style="fill:none;stroke:#000000;stroke-width:2.0px;stroke-linecap:butt;stroke-linejoin:miter;stroke-opacity:1;"/>
<path d="M 752.3,178.4 L 752.8,183.1 L 757.1,185.0" style="fill:none;stroke:#000000;stroke-width:2.0px;stroke-linecap:butt;stroke-linejoin:miter;stroke-opacity:1;"/>
<path d="M 835.4,219.3 L 839.8,221.2 L 843.6,218.3" style="fill:none;stroke:#000000;stroke-width:2.0px;stroke-linecap:butt;stroke-linejoin:miter;stroke-opacity:1;"/>
<path d="M 1013.5,295.2 L 1013.7,297.2 L 1015.6,298.0" style="fill:none;stroke:#000000;stroke-width:2.0px;stroke-linecap:butt;stroke-linejoin:miter;stroke-opacity:1;"/>
<path d="M 906.1,75.2 L 905.6,70.5 L 901.2,68.6" style="fill:none;stroke:#000000;stroke-width:2.0px;stroke-linecap:butt;stroke-linejoin:miter;stroke-opacity:1;"/>
<path d="M 823.0,34.4 L 818.6,32.5 L 814.8,35.3" style="fill:none;stroke:#000000;stroke-width:2.0px;stroke-linecap:butt;stroke-linejoin:miter;stroke-opacity:1;"/>
<path d="M 588.9,196.7 L 589.4,201.4 L 585.6,204.3" style="fill:none;stroke:#000000;stroke-width:2.0px;stroke-linecap:butt;stroke-linejoin:miter;stroke-opacity:1;"/>
<path d="M 516.9,254.9 L 513.0,257.8 L 508.7,255.9" style="fill:none;stroke:#000000;stroke-width:2.0px;stroke-linecap:butt;stroke-linejoin:miter;stroke-opacity:1;"/>
<path class="atom-0" d="M 94.3 253.3 L 98.2 249.3 L 93.0 248.3 L 93.8 245.6 L 98.6 248.0 L 97.9 242.7 L 100.8 242.7 L 100.0 248.0 L 104.9 245.7 L 105.7 248.3 L 100.4 249.2 L 104.2 253.3 L 101.9 255.0 L 99.3 250.0 L 96.6 255.0 L 94.3 253.3 " fill="#191919"/>
<path class="atom-1" d="M 174.0 294.4 Q 174.0 288.0, 177.2 284.4 Q 180.4 280.8, 186.3 280.8 Q 192.3 280.8, 195.5 284.4 Q 198.6 288.0, 198.6 294.4 Q 198.6 301.0, 195.4 304.7 Q 192.2 308.4, 186.3 308.4 Q 180.4 308.4, 177.2 304.7 Q 174.0 301.0, 174.0 294.4 M 186.3 305.3 Q 190.4 305.3, 192.6 302.6 Q 194.9 299.8, 194.9 294.4 Q 194.9 289.2, 192.6 286.5 Q 190.4 283.8, 186.3 283.8 Q 182.2 283.8, 180.0 286.5 Q 177.8 289.1, 177.8 294.4 Q 177.8 299.9, 180.0 302.6 Q 182.2 305.3, 186.3 305.3 " fill="#FF0000"/>
<path class="atom-3" d="M 239.8 143.8 Q 239.8 137.4, 243.0 133.7 Q 246.2 130.1, 252.1 130.1 Q 258.1 130.1, 261.3 133.7 Q 264.5 137.4, 264.5 143.8 Q 264.5 150.3, 261.3 154.1 Q 258.0 157.7, 252.1 157.7 Q 246.2 157.7, 243.0 154.1 Q 239.8 150.4, 239.8 143.8 M 252.1 154.7 Q 256.2 154.7, 258.4 152.0 Q 260.7 149.2, 260.7 143.8 Q 260.7 138.5, 258.4 135.9 Q 256.2 133.2, 252.1 133.2 Q 248.0 133.2, 245.8 135.8 Q 243.6 138.5, 243.6 143.8 Q 243.6 149.2, 245.8 152.0 Q 248.0 154.7, 252.1 154.7 " fill="#FF0000"/>
<path class="atom-4" d="M 343.7 262.6 L 352.5 276.9 Q 353.4 278.3, 354.8 280.8 Q 356.2 283.3, 356.3 283.5 L 356.3 262.6 L 359.9 262.6 L 359.9 289.5 L 356.2 289.5 L 346.7 273.9 Q 345.6 272.1, 344.5 270.0 Q 343.3 267.9, 343.0 267.3 L 343.0 289.5 L 339.5 289.5 L 339.5 262.6 L 343.7 262.6 " fill="#0000FF"/>
<path class="atom-4" d="M 339.2 292.2 L 342.8 292.2 L 342.8 303.6 L 356.5 303.6 L 356.5 292.2 L 360.2 292.2 L 360.2 319.1 L 356.5 319.1 L 356.5 306.6 L 342.8 306.6 L 342.8 319.1 L 339.2 319.1 L 339.2 292.2 " fill="#0000FF"/>
<path class="atom-14" d="M 997.2 189.4 L 1006.0 203.6 Q 1006.9 205.1, 1008.3 207.6 Q 1009.7 210.1, 1009.7 210.3 L 1009.7 189.4 L 1013.3 189.4 L 1013.3 216.3 L 1009.6 216.3 L 1000.2 200.7 Q 999.1 198.9, 997.9 196.8 Q 996.8 194.7, 996.4 194.1 L 996.4 216.3 L 992.9 216.3 L 992.9 189.4 L 997.2 189.4 " fill="#0000FF"/>
<path class="atom-14" d="M 1018.5 189.4 L 1022.2 189.4 L 1022.2 200.8 L 1035.9 200.8 L 1035.9 189.4 L 1039.6 189.4 L 1039.6 216.3 L 1035.9 216.3 L 1035.9 203.9 L 1022.2 203.9 L 1022.2 216.3 L 1018.5 216.3 L 1018.5 189.4 " fill="#0000FF"/>
<path class="atom-16" d="M 1095.6 332.2 L 1099.5 328.2 L 1094.3 327.1 L 1095.1 324.4 L 1099.9 326.8 L 1099.2 321.5 L 1102.1 321.5 L 1101.3 326.8 L 1106.2 324.5 L 1107.0 327.1 L 1101.7 328.1 L 1105.5 332.1 L 1103.2 333.8 L 1100.6 328.8 L 1097.9 333.8 L 1095.6 332.2 " fill="#191919"/>
<path class="atom-17" d="M 925.0 353.6 Q 925.0 347.1, 928.1 343.5 Q 931.3 339.9, 937.3 339.9 Q 943.3 339.9, 946.4 343.5 Q 949.6 347.1, 949.6 353.6 Q 949.6 360.1, 946.4 363.8 Q 943.2 367.5, 937.3 367.5 Q 931.4 367.5, 928.1 363.8 Q 925.0 360.1, 925.0 353.6 M 937.3 364.4 Q 941.4 364.4, 943.6 361.7 Q 945.8 358.9, 945.8 353.6 Q 945.8 348.3, 943.6 345.6 Q 941.4 342.9, 937.3 342.9 Q 933.2 342.9, 931.0 345.6 Q 928.7 348.2, 928.7 353.6 Q 928.7 359.0, 931.0 361.7 Q 933.2 364.4, 937.3 364.4 " fill="#FF0000"/>
<path class="bond-0 atom-0 atom-1" d="M 1130.7,561.6 L 1099.3,580.7" style="fill:none;fill-rule:evenodd;stroke:#191919;stroke-width:2.0px;stroke-linecap:butt;stroke-linejoin:miter;stroke-opacity:1"/>
<path class="bond-0 atom-0 atom-1" d="M 1099.3,580.7 L 1067.9,599.7" style="fill:none;fill-rule:evenodd;stroke:#FF0000;stroke-width:2.0px;stroke-linecap:butt;stroke-linejoin:miter;stroke-opacity:1"/>
<path class="bond-1 atom-1 atom-2" d="M 1037.0,600.5 L 1003.1,581.9" style="fill:none;fill-rule:evenodd;stroke:#FF0000;stroke-width:2.0px;stroke-linecap:butt;stroke-linejoin:miter;stroke-opacity:1"/>
<path class="bond-1 atom-1 atom-2" d="M 1003.1,581.9 L 969.3,563.3" style="fill:none;fill-rule:evenodd;stroke:#000000;stroke-width:2.0px;stroke-linecap:butt;stroke-linejoin:miter;stroke-opacity:1"/>
<path class="bond-2 atom-2 atom-3" d="M 969.3,563.3 L 888.1,612.4" style="fill:none;fill-rule:evenodd;stroke:#000000;stroke-width:2.0px;stroke-linecap:butt;stroke-linejoin:miter;stroke-opacity:1"/>
<path class="bond-3 atom-3 atom-4" d="M 888.1,612.4 L 804.9,566.7" style="fill:none;fill-rule:evenodd;stroke:#000000;stroke-width:2.0px;stroke-linecap:butt;stroke-linejoin:miter;stroke-opacity:1"/>
<path class="bond-4 atom-4 atom-5" d="M 804.9,566.7 L 723.8,615.8" style="fill:none;fill-rule:evenodd;stroke:#000000;stroke-width:2.0px;stroke-linecap:butt;stroke-linejoin:miter;stroke-opacity:1"/>
<path class="bond-5 atom-5 atom-6" d="M 723.8,615.8 L 689.9,597.2" style="fill:none;fill-rule:evenodd;stroke:#000000;stroke-width:2.0px;stroke-linecap:butt;stroke-linejoin:miter;stroke-opacity:1"/>
<path class="bond-5 atom-5 atom-6" d="M 689.9,597.2 L 656.1,578.6" style="fill:none;fill-rule:evenodd;stroke:#FF0000;stroke-width:2.0px;stroke-linecap:butt;stroke-linejoin:miter;stroke-opacity:1"/>
<path class="bond-6 atom-6 atom-7" d="M 625.1,579.5 L 592.3,599.4" style="fill:none;fill-rule:evenodd;stroke:#FF0000;stroke-width:2.0px;stroke-linecap:butt;stroke-linejoin:miter;stroke-opacity:1"/>
<path class="bond-6 atom-6 atom-7" d="M 592.3,599.4 L 559.4,619.3" style="fill:none;fill-rule:evenodd;stroke:#000000;stroke-width:2.0px;stroke-linecap:butt;stroke-linejoin:miter;stroke-opacity:1"/>
<path class="bond-7 atom-7 atom-8" d="M 552.2,615.3 L 553.1,656.4" style="fill:none;fill-rule:evenodd;stroke:#000000;stroke-width:2.0px;stroke-linecap:butt;stroke-linejoin:miter;stroke-opacity:1"/>
<path class="bond-7 atom-7 atom-8" d="M 553.1,656.4 L 553.9,697.6" style="fill:none;fill-rule:evenodd;stroke:#FF0000;stroke-width:2.0px;stroke-linecap:butt;stroke-linejoin:miter;stroke-opacity:1"/>
<path class="bond-7 atom-7 atom-8" d="M 566.4,615.0 L 567.3,656.1" style="fill:none;fill-rule:evenodd;stroke:#000000;stroke-width:2.0px;stroke-linecap:butt;stroke-linejoin:miter;stroke-opacity:1"/>
<path class="bond-7 atom-7 atom-8" d="M 567.3,656.1 L 568.1,697.3" style="fill:none;fill-rule:evenodd;stroke:#FF0000;stroke-width:2.0px;stroke-linecap:butt;stroke-linejoin:miter;stroke-opacity:1"/>
<path class="bond-8 atom-7 atom-9" d="M 559.4,619.3 L 476.2,573.5" style="fill:none;fill-rule:evenodd;stroke:#000000;stroke-width:2.0px;stroke-linecap:butt;stroke-linejoin:miter;stroke-opacity:1"/>
<path class="bond-9 atom-9 atom-10" d="M 476.2,573.5 L 395.1,622.7" style="fill:none;fill-rule:evenodd;stroke:#000000;stroke-width:2.0px;stroke-linecap:butt;stroke-linejoin:miter;stroke-opacity:1"/>
<path class="bond-10 atom-10 atom-11" d="M 395.1,622.7 L 311.9,576.9" style="fill:none;fill-rule:evenodd;stroke:#000000;stroke-width:2.0px;stroke-linecap:butt;stroke-linejoin:miter;stroke-opacity:1"/>
<path class="bond-11 atom-11 atom-12" d="M 311.9,576.9 L 230.7,626.1" style="fill:none;fill-rule:evenodd;stroke:#000000;stroke-width:2.0px;stroke-linecap:butt;stroke-linejoin:miter;stroke-opacity:1"/>
<path class="bond-12 atom-12 atom-13" d="M 230.7,626.1 L 147.5,580.3" style="fill:none;fill-rule:evenodd;stroke:#000000;stroke-width:2.0px;stroke-linecap:butt;stroke-linejoin:miter;stroke-opacity:1"/>
<path class="bond-13 atom-13 atom-14" d="M 147.5,580.3 L 111.7,602.0" style="fill:none;fill-rule:evenodd;stroke:#000000;stroke-width:2.0px;stroke-linecap:butt;stroke-linejoin:miter;stroke-opacity:1"/>
<path class="bond-13 atom-13 atom-14" d="M 111.7,602.0 L 75.8,623.7" style="fill:none;fill-rule:evenodd;stroke:#191919;stroke-width:2.0px;stroke-linecap:butt;stroke-linejoin:miter;stroke-opacity:1"/>
<path class="bond-14 atom-13 atom-15" d="M 154.8,584.3 L 153.9,543.4" style="fill:none;fill-rule:evenodd;stroke:#000000;stroke-width:2.0px;stroke-linecap:butt;stroke-linejoin:miter;stroke-opacity:1"/>
<path class="bond-14 atom-13 atom-15" d="M 153.9,543.4 L 153.1,502.4" style="fill:none;fill-rule:evenodd;stroke:#FF0000;stroke-width:2.0px;stroke-linecap:butt;stroke-linejoin:miter;stroke-opacity:1"/>
<path class="bond-14 atom-13 atom-15" d="M 140.5,584.6 L 139.7,543.7" style="fill:none;fill-rule:evenodd;stroke:#000000;stroke-width:2.0px;stroke-linecap:butt;stroke-linejoin:miter;stroke-opacity:1"/>
<path class="bond-14 atom-13 atom-15" d="M 139.7,543.7 L 138.8,502.7" style="fill:none;fill-rule:evenodd;stroke:#FF0000;stroke-width:2.0px;stroke-linecap:butt;stroke-linejoin:miter;stroke-opacity:1"/>
<path d="M 971.0,564.2 L 969.3,563.3 L 965.2,565.7" style="fill:none;stroke:#000000;stroke-width:2.0px;stroke-linecap:butt;stroke-linejoin:miter;stroke-opacity:1;"/>
<path d="M 892.2,610.0 L 888.1,612.4 L 883.9,610.1" style="fill:none;stroke:#000000;stroke-width:2.0px;stroke-linecap:butt;stroke-linejoin:miter;stroke-opacity:1;"/>
<path d="M 809.1,569.0 L 804.9,566.7 L 800.9,569.2" style="fill:none;stroke:#000000;stroke-width:2.0px;stroke-linecap:butt;stroke-linejoin:miter;stroke-opacity:1;"/>
<path d="M 727.8,613.4 L 723.8,615.8 L 722.1,614.9" style="fill:none;stroke:#000000;stroke-width:2.0px;stroke-linecap:butt;stroke-linejoin:miter;stroke-opacity:1;"/>
<path d="M 561.0,618.3 L 559.4,619.3 L 555.2,617.0" style="fill:none;stroke:#000000;stroke-width:2.0px;stroke-linecap:butt;stroke-linejoin:miter;stroke-opacity:1;"/>
<path d="M 480.4,575.8 L 476.2,573.5 L 472.2,576.0" style="fill:none;stroke:#000000;stroke-width:2.0px;stroke-linecap:butt;stroke-linejoin:miter;stroke-opacity:1;"/>
<path d="M 399.1,620.2 L 395.1,622.7 L 390.9,620.4" style="fill:none;stroke:#000000;stroke-width:2.0px;stroke-linecap:butt;stroke-linejoin:miter;stroke-opacity:1;"/>
<path d="M 316.1,579.2 L 311.9,576.9 L 307.8,579.4" style="fill:none;stroke:#000000;stroke-width:2.0px;stroke-linecap:butt;stroke-linejoin:miter;stroke-opacity:1;"/>
<path d="M 234.8,623.6 L 230.7,626.1 L 226.5,623.8" style="fill:none;stroke:#000000;stroke-width:2.0px;stroke-linecap:butt;stroke-linejoin:miter;stroke-opacity:1;"/>
<path d="M 151.7,582.6 L 147.5,580.3 L 145.8,581.4" style="fill:none;stroke:#000000;stroke-width:2.0px;stroke-linecap:butt;stroke-linejoin:miter;stroke-opacity:1;"/>
<path class="atom-0" d="M 1128.6 556.9 L 1132.5 552.9 L 1127.3 551.8 L 1128.1 549.1 L 1132.9 551.5 L 1132.2 546.2 L 1135.1 546.2 L 1134.3 551.5 L 1139.2 549.2 L 1140.0 551.8 L 1134.7 552.8 L 1138.5 556.8 L 1136.2 558.5 L 1133.5 553.5 L 1130.9 558.5 L 1128.6 556.9 " fill="#191919"/>
<path class="atom-1" d="M 1040.1 609.1 Q 1040.1 602.6, 1043.3 599.0 Q 1046.5 595.4, 1052.5 595.4 Q 1058.4 595.4, 1061.6 599.0 Q 1064.8 602.6, 1064.8 609.1 Q 1064.8 615.6, 1061.6 619.4 Q 1058.3 623.0, 1052.5 623.0 Q 1046.5 623.0, 1043.3 619.4 Q 1040.1 615.7, 1040.1 609.1 M 1052.5 620.0 Q 1056.6 620.0, 1058.8 617.3 Q 1061.0 614.5, 1061.0 609.1 Q 1061.0 603.8, 1058.8 601.2 Q 1056.6 598.5, 1052.5 598.5 Q 1048.4 598.5, 1046.1 601.1 Q 1043.9 603.8, 1043.9 609.1 Q 1043.9 614.5, 1046.1 617.3 Q 1048.4 620.0, 1052.5 620.0 " fill="#FF0000"/>
<path class="atom-6" d="M 628.3 570.2 Q 628.3 563.7, 631.4 560.1 Q 634.6 556.5, 640.6 556.5 Q 646.6 556.5, 649.7 560.1 Q 652.9 563.7, 652.9 570.2 Q 652.9 576.7, 649.7 580.4 Q 646.5 584.1, 640.6 584.1 Q 634.7 584.1, 631.4 580.4 Q 628.3 576.7, 628.3 570.2 M 640.6 581.1 Q 644.7 581.1, 646.9 578.3 Q 649.1 575.6, 649.1 570.2 Q 649.1 564.9, 646.9 562.2 Q 644.7 559.6, 640.6 559.6 Q 636.5 559.6, 634.3 562.2 Q 632.1 564.9, 632.1 570.2 Q 632.1 575.6, 634.3 578.3 Q 636.5 581.1, 640.6 581.1 " fill="#FF0000"/>
<path class="atom-8" d="M 549.0 714.2 Q 549.0 707.8, 552.2 704.2 Q 555.4 700.5, 561.4 700.5 Q 567.3 700.5, 570.5 704.2 Q 573.7 707.8, 573.7 714.2 Q 573.7 720.7, 570.5 724.5 Q 567.3 728.1, 561.4 728.1 Q 555.5 728.1, 552.2 724.5 Q 549.0 720.8, 549.0 714.2 M 561.4 725.1 Q 565.5 725.1, 567.7 722.4 Q 569.9 719.6, 569.9 714.2 Q 569.9 708.9, 567.7 706.3 Q 565.5 703.6, 561.4 703.6 Q 557.3 703.6, 555.0 706.2 Q 552.8 708.9, 552.8 714.2 Q 552.8 719.6, 555.0 722.4 Q 557.3 725.1, 561.4 725.1 " fill="#FF0000"/>
<path class="atom-14" d="M 61.3 626.5 L 65.2 622.5 L 60.0 621.4 L 60.8 618.7 L 65.6 621.1 L 64.9 615.8 L 67.8 615.8 L 67.0 621.1 L 71.9 618.8 L 72.7 621.4 L 67.4 622.4 L 71.2 626.4 L 68.9 628.1 L 66.3 623.1 L 63.6 628.1 L 61.3 626.5 " fill="#191919"/>
<path class="atom-15" d="M 133.2 485.5 Q 133.2 479.1, 136.4 475.5 Q 139.6 471.9, 145.6 471.9 Q 151.5 471.9, 154.7 475.5 Q 157.9 479.1, 157.9 485.5 Q 157.9 492.0, 154.7 495.8 Q 151.5 499.5, 145.6 499.5 Q 139.7 499.5, 136.4 495.8 Q 133.2 492.1, 133.2 485.5 M 145.6 496.4 Q 149.7 496.4, 151.9 493.7 Q 154.1 490.9, 154.1 485.5 Q 154.1 480.2, 151.9 477.6 Q 149.7 474.9, 145.6 474.9 Q 141.5 474.9, 139.2 477.5 Q 137.0 480.2, 137.0 485.5 Q 137.0 490.9, 139.2 493.7 Q 141.5 496.4, 145.6 496.4 " fill="#FF0000"/>
</svg>