<svg xmlns="http://www.w3.org/2000/svg" xmlns:rdkit="http://www.rdkit.org/xml" xmlns:xlink="http://www.w3.org/1999/xlink" version="1.1" baseProfile="full" xml:space="preserve" width="1200px" height="800px" viewBox="0 0 1200 800">
<!-- END OF HEADER -->
<rect style="opacity:1.0;fill:#FFFFFF;stroke:none" width="1200.0" height="800.0" x="0.0" y="0.0"> </rect>
<path class="bond-0 atom-0 atom-1" d="M 169.2,250.4 L 198.4,263.2" style="fill:none;fill-rule:evenodd;stroke:#191919;stroke-width:2.0px;stroke-linecap:butt;stroke-linejoin:miter;stroke-opacity:1"/>
<path class="bond-0 atom-0 atom-1" d="M 198.4,263.2 L 227.7,276.0" style="fill:none;fill-rule:evenodd;stroke:#FF0000;stroke-width:2.0px;stroke-linecap:butt;stroke-linejoin:miter;stroke-opacity:1"/>
<path class="bond-1 atom-1 atom-2" d="M 254.5,272.0 L 281.0,252.5" style="fill:none;fill-rule:evenodd;stroke:#FF0000;stroke-width:2.0px;stroke-linecap:butt;stroke-linejoin:miter;stroke-opacity:1"/>
<path class="bond-1 atom-1 atom-2" d="M 281.0,252.5 L 307.4,233.0" style="fill:none;fill-rule:evenodd;stroke:#000000;stroke-width:2.0px;stroke-linecap:butt;stroke-linejoin:miter;stroke-opacity:1"/>
<path class="bond-2 atom-2 atom-3" d="M 313.9,235.9 L 310.0,200.6" style="fill:none;fill-rule:evenodd;stroke:#000000;stroke-width:2.0px;stroke-linecap:butt;stroke-linejoin:miter;stroke-opacity:1"/>
<path class="bond-2 atom-2 atom-3" d="M 310.0,200.6 L 306.0,165.4" style="fill:none;fill-rule:evenodd;stroke:#FF0000;stroke-width:2.0px;stroke-linecap:butt;stroke-linejoin:miter;stroke-opacity:1"/>
<path class="bond-2 atom-2 atom-3" d="M 301.6,237.2 L 297.7,202.0" style="fill:none;fill-rule:evenodd;stroke:#000000;stroke-width:2.0px;stroke-linecap:butt;stroke-linejoin:miter;stroke-opacity:1"/>
<path class="bond-2 atom-2 atom-3" d="M 297.7,202.0 L 293.7,166.7" style="fill:none;fill-rule:evenodd;stroke:#FF0000;stroke-width:2.0px;stroke-linecap:butt;stroke-linejoin:miter;stroke-opacity:1"/>
<path class="bond-3 atom-2 atom-4" d="M 307.4,233.0 L 339.3,247.0" style="fill:none;fill-rule:evenodd;stroke:#000000;stroke-width:2.0px;stroke-linecap:butt;stroke-linejoin:miter;stroke-opacity:1"/>
<path class="bond-3 atom-2 atom-4" d="M 339.3,247.0 L 371.3,260.9" style="fill:none;fill-rule:evenodd;stroke:#0000FF;stroke-width:2.0px;stroke-linecap:butt;stroke-linejoin:miter;stroke-opacity:1"/>
<path class="bond-4 atom-4 atom-5" d="M 394.4,257.5 L 421.7,237.3" style="fill:none;fill-rule:evenodd;stroke:#0000FF;stroke-width:2.0px;stroke-linecap:butt;stroke-linejoin:miter;stroke-opacity:1"/>
<path class="bond-4 atom-4 atom-5" d="M 421.7,237.3 L 449.1,217.1" style="fill:none;fill-rule:evenodd;stroke:#000000;stroke-width:2.0px;stroke-linecap:butt;stroke-linejoin:miter;stroke-opacity:1"/>
<path class="bond-5 atom-5 atom-6" d="M 449.1,217.1 L 439.9,135.3" style="fill:none;fill-rule:evenodd;stroke:#000000;stroke-width:2.0px;stroke-linecap:butt;stroke-linejoin:miter;stroke-opacity:1"/>
<path class="bond-5 atom-5 atom-6" d="M 460.6,208.7 L 453.0,141.0" style="fill:none;fill-rule:evenodd;stroke:#000000;stroke-width:2.0px;stroke-linecap:butt;stroke-linejoin:miter;stroke-opacity:1"/>
<path class="bond-6 atom-6 atom-7" d="M 439.9,135.3 L 506.2,86.5" style="fill:none;fill-rule:evenodd;stroke:#000000;stroke-width:2.0px;stroke-linecap:butt;stroke-linejoin:miter;stroke-opacity:1"/>
<path class="bond-7 atom-7 atom-8" d="M 506.2,86.5 L 581.7,119.4" style="fill:none;fill-rule:evenodd;stroke:#000000;stroke-width:2.0px;stroke-linecap:butt;stroke-linejoin:miter;stroke-opacity:1"/>
<path class="bond-7 atom-7 atom-8" d="M 507.8,100.6 L 570.2,127.9" style="fill:none;fill-rule:evenodd;stroke:#000000;stroke-width:2.0px;stroke-linecap:butt;stroke-linejoin:miter;stroke-opacity:1"/>
<path class="bond-8 atom-8 atom-9" d="M 581.7,119.4 L 647.9,70.6" style="fill:none;fill-rule:evenodd;stroke:#000000;stroke-width:2.0px;stroke-linecap:butt;stroke-linejoin:miter;stroke-opacity:1"/>
<path class="bond-9 atom-9 atom-10" d="M 647.9,70.6 L 723.4,103.5" style="fill:none;fill-rule:evenodd;stroke:#000000;stroke-width:2.0px;stroke-linecap:butt;stroke-linejoin:miter;stroke-opacity:1"/>
<path class="bond-10 atom-10 atom-11" d="M 723.4,103.5 L 732.6,185.4" style="fill:none;fill-rule:evenodd;stroke:#000000;stroke-width:2.0px;stroke-linecap:butt;stroke-linejoin:miter;stroke-opacity:1"/>
<path class="bond-10 atom-10 atom-11" d="M 736.5,109.3 L 744.0,176.9" style="fill:none;fill-rule:evenodd;stroke:#000000;stroke-width:2.0px;stroke-linecap:butt;stroke-linejoin:miter;stroke-opacity:1"/>
<path class="bond-11 atom-11 atom-12" d="M 732.6,185.4 L 808.0,218.3" style="fill:none;fill-rule:evenodd;stroke:#000000;stroke-width:2.0px;stroke-linecap:butt;stroke-linejoin:miter;stroke-opacity:1"/>
<path class="bond-12 atom-12 atom-13" d="M 808.0,218.3 L 874.3,169.5" style="fill:none;fill-rule:evenodd;stroke:#000000;stroke-width:2.0px;stroke-linecap:butt;stroke-linejoin:miter;stroke-opacity:1"/>
<path class="bond-12 atom-12 atom-13" d="M 806.4,204.2 L 861.2,163.8" style="fill:none;fill-rule:evenodd;stroke:#000000;stroke-width:2.0px;stroke-linecap:butt;stroke-linejoin:miter;stroke-opacity:1"/>
<path class="bond-13 atom-13 atom-14" d="M 874.3,169.5 L 906.2,183.5" style="fill:none;fill-rule:evenodd;stroke:#000000;stroke-width:2.0px;stroke-linecap:butt;stroke-linejoin:miter;stroke-opacity:1"/>
<path class="bond-13 atom-13 atom-14" d="M 906.2,183.5 L 938.2,197.4" style="fill:none;fill-rule:evenodd;stroke:#0000FF;stroke-width:2.0px;stroke-linecap:butt;stroke-linejoin:miter;stroke-opacity:1"/>
<path class="bond-14 atom-14 atom-15" d="M 951.3,216.8 L 955.1,250.6" style="fill:none;fill-rule:evenodd;stroke:#0000FF;stroke-width:2.0px;stroke-linecap:butt;stroke-linejoin:miter;stroke-opacity:1"/>
<path class="bond-14 atom-14 atom-15" d="M 955.1,250.6 L 958.9,284.3" style="fill:none;fill-rule:evenodd;stroke:#000000;stroke-width:2.0px;stroke-linecap:butt;stroke-linejoin:miter;stroke-opacity:1"/>
<path class="bond-15 atom-15 atom-16" d="M 958.9,284.3 L 992.5,299.0" style="fill:none;fill-rule:evenodd;stroke:#000000;stroke-width:2.0px;stroke-linecap:butt;stroke-linejoin:miter;stroke-opacity:1"/>
<path class="bond-15 atom-15 atom-16" d="M 992.5,299.0 L 1026.1,313.7" style="fill:none;fill-rule:evenodd;stroke:#191919;stroke-width:2.0px;stroke-linecap:butt;stroke-linejoin:miter;stroke-opacity:1"/>
<path class="bond-16 atom-15 atom-17" d="M 958.1,277.2 L 930.2,297.7" style="fill:none;fill-rule:evenodd;stroke:#000000;stroke-width:2.0px;stroke-linecap:butt;stroke-linejoin:miter;stroke-opacity:1"/>
<path class="bond-16 atom-15 atom-17" d="M 930.2,297.7 L 902.4,318.3" style="fill:none;fill-rule:evenodd;stroke:#FF0000;stroke-width:2.0px;stroke-linecap:butt;stroke-linejoin:miter;stroke-opacity:1"/>
<path class="bond-16 atom-15 atom-17" d="M 965.4,287.2 L 937.6,307.7" style="fill:none;fill-rule:evenodd;stroke:#000000;stroke-width:2.0px;stroke-linecap:butt;stroke-linejoin:miter;stroke-opacity:1"/>
<path class="bond-16 atom-15 atom-17" d="M 937.6,307.7 L 909.7,328.2" style="fill:none;fill-rule:evenodd;stroke:#FF0000;stroke-width:2.0px;stroke-linecap:butt;stroke-linejoin:miter;stroke-opacity:1"/>
<path class="bond-17 atom-13 atom-18" d="M 874.3,169.5 L 865.1,87.7" style="fill:none;fill-rule:evenodd;stroke:#000000;stroke-width:2.0px;stroke-linecap:butt;stroke-linejoin:miter;stroke-opacity:1"/>
<path class="bond-18 atom-18 atom-19" d="M 865.1,87.7 L 789.7,54.7" style="fill:none;fill-rule:evenodd;stroke:#000000;stroke-width:2.0px;stroke-linecap:butt;stroke-linejoin:miter;stroke-opacity:1"/>
<path class="bond-18 atom-18 atom-19" d="M 853.6,96.1 L 791.3,68.9" style="fill:none;fill-rule:evenodd;stroke:#000000;stroke-width:2.0px;stroke-linecap:butt;stroke-linejoin:miter;stroke-opacity:1"/>
<path class="bond-19 atom-8 atom-20" d="M 581.7,119.4 L 590.8,201.3" style="fill:none;fill-rule:evenodd;stroke:#000000;stroke-width:2.0px;stroke-linecap:butt;stroke-linejoin:miter;stroke-opacity:1"/>
<path class="bond-20 atom-20 atom-21" d="M 590.8,201.3 L 524.6,250.1" style="fill:none;fill-rule:evenodd;stroke:#000000;stroke-width:2.0px;stroke-linecap:butt;stroke-linejoin:miter;stroke-opacity:1"/>
<path class="bond-20 atom-20 atom-21" d="M 577.8,195.5 L 523.0,235.9" style="fill:none;fill-rule:evenodd;stroke:#000000;stroke-width:2.0px;stroke-linecap:butt;stroke-linejoin:miter;stroke-opacity:1"/>
<path class="bond-21 atom-21 atom-5" d="M 524.6,250.1 L 449.1,217.1" style="fill:none;fill-rule:evenodd;stroke:#000000;stroke-width:2.0px;stroke-linecap:butt;stroke-linejoin:miter;stroke-opacity:1"/>
<path class="bond-22 atom-19 atom-10" d="M 789.7,54.7 L 723.4,103.5" style="fill:none;fill-rule:evenodd;stroke:#000000;stroke-width:2.0px;stroke-linecap:butt;stroke-linejoin:miter;stroke-opacity:1"/>
<path d="M 306.1,234.0 L 307.4,233.0 L 309.0,233.7" style="fill:none;stroke:#000000;stroke-width:2.0px;stroke-linecap:butt;stroke-linejoin:miter;stroke-opacity:1;"/>
<path d="M 440.4,139.4 L 439.9,135.3 L 443.3,132.9" style="fill:none;stroke:#000000;stroke-width:2.0px;stroke-linecap:butt;stroke-linejoin:miter;stroke-opacity:1;"/>
<path d="M 502.9,88.9 L 506.2,86.5 L 510.0,88.1" style="fill:none;stroke:#000000;stroke-width:2.0px;stroke-linecap:butt;stroke-linejoin:miter;stroke-opacity:1;"/>
<path d="M 644.6,73.0 L 647.9,70.6 L 651.7,72.2" style="fill:none;stroke:#000000;stroke-width:2.0px;stroke-linecap:butt;stroke-linejoin:miter;stroke-opacity:1;"/>
<path d="M 732.1,181.3 L 732.6,185.4 L 736.3,187.0" style="fill:none;stroke:#000000;stroke-width:2.0px;stroke-linecap:butt;stroke-linejoin:miter;stroke-opacity:1;"/>
<path d="M 804.2,216.7 L 808.0,218.3 L 811.3,215.9" style="fill:none;stroke:#000000;stroke-width:2.0px;stroke-linecap:butt;stroke-linejoin:miter;stroke-opacity:1;"/>
<path d="M 958.7,282.6 L 958.9,284.3 L 960.6,285.0" style="fill:none;stroke:#000000;stroke-width:2.0px;stroke-linecap:butt;stroke-linejoin:miter;stroke-opacity:1;"/>
<path d="M 865.6,91.8 L 865.1,87.7 L 861.3,86.0" style="fill:none;stroke:#000000;stroke-width:2.0px;stroke-linecap:butt;stroke-linejoin:miter;stroke-opacity:1;"/>
<path d="M 793.4,56.3 L 789.7,54.7 L 786.4,57.1" style="fill:none;stroke:#000000;stroke-width:2.0px;stroke-linecap:butt;stroke-linejoin:miter;stroke-opacity:1;"/>
<path d="M 590.4,197.2 L 590.8,201.3 L 587.5,203.7" style="fill:none;stroke:#000000;stroke-width:2.0px;stroke-linecap:butt;stroke-linejoin:miter;stroke-opacity:1;"/>
<path d="M 527.9,247.7 L 524.6,250.1 L 520.8,248.5" style="fill:none;stroke:#000000;stroke-width:2.0px;stroke-linecap:butt;stroke-linejoin:miter;stroke-opacity:1;"/>
<path class="atom-0" d="M 161.3 246.3 L 164.7 242.8 L 160.1 241.9 L 160.8 239.5 L 165.0 241.6 L 164.4 237.1 L 166.9 237.0 L 166.2 241.6 L 170.4 239.6 L 171.2 241.9 L 166.6 242.7 L 169.9 246.2 L 167.8 247.7 L 165.6 243.4 L 163.3 247.7 L 161.3 246.3 " fill="#191919"/>
<path class="atom-1" d="M 230.4 281.9 Q 230.4 276.3, 233.2 273.2 Q 235.9 270.1, 241.1 270.1 Q 246.3 270.1, 249.0 273.2 Q 251.8 276.3, 251.8 281.9 Q 251.8 287.6, 249.0 290.8 Q 246.2 294.0, 241.1 294.0 Q 236.0 294.0, 233.2 290.8 Q 230.4 287.6, 230.4 281.9 M 241.1 291.4 Q 244.7 291.4, 246.6 289.0 Q 248.5 286.6, 248.5 281.9 Q 248.5 277.3, 246.6 275.0 Q 244.7 272.7, 241.1 272.7 Q 237.5 272.7, 235.6 275.0 Q 233.7 277.3, 233.7 281.9 Q 233.7 286.6, 235.6 289.0 Q 237.5 291.4, 241.1 291.4 " fill="#FF0000"/>
<path class="atom-3" d="M 287.5 151.2 Q 287.5 145.6, 290.3 142.5 Q 293.0 139.4, 298.2 139.4 Q 303.4 139.4, 306.2 142.5 Q 308.9 145.6, 308.9 151.2 Q 308.9 156.9, 306.1 160.1 Q 303.3 163.3, 298.2 163.3 Q 293.1 163.3, 290.3 160.1 Q 287.5 156.9, 287.5 151.2 M 298.2 160.7 Q 301.8 160.7, 303.7 158.3 Q 305.6 155.9, 305.6 151.2 Q 305.6 146.7, 303.7 144.4 Q 301.8 142.0, 298.2 142.0 Q 294.7 142.0, 292.7 144.3 Q 290.8 146.6, 290.8 151.2 Q 290.8 156.0, 292.7 158.3 Q 294.7 160.7, 298.2 160.7 " fill="#FF0000"/>
<path class="atom-4" d="M 377.7 254.3 L 385.3 266.7 Q 386.1 267.9, 387.3 270.1 Q 388.5 272.3, 388.6 272.4 L 388.6 254.3 L 391.7 254.3 L 391.7 277.6 L 388.5 277.6 L 380.3 264.1 Q 379.3 262.6, 378.3 260.7 Q 377.3 258.9, 377.0 258.4 L 377.0 277.6 L 374.0 277.6 L 374.0 254.3 L 377.7 254.3 " fill="#0000FF"/>
<path class="atom-4" d="M 373.7 280.0 L 376.9 280.0 L 376.9 289.9 L 388.8 289.9 L 388.8 280.0 L 392.0 280.0 L 392.0 303.3 L 388.8 303.3 L 388.8 292.5 L 376.9 292.5 L 376.9 303.3 L 373.7 303.3 L 373.7 280.0 " fill="#0000FF"/>
<path class="atom-14" d="M 944.6 190.8 L 952.2 203.2 Q 953.0 204.4, 954.2 206.6 Q 955.4 208.8, 955.5 208.9 L 955.5 190.8 L 958.6 190.8 L 958.6 214.1 L 955.4 214.1 L 947.2 200.6 Q 946.2 199.0, 945.2 197.2 Q 944.2 195.4, 943.9 194.9 L 943.9 214.1 L 940.9 214.1 L 940.9 190.8 L 944.6 190.8 " fill="#0000FF"/>
<path class="atom-14" d="M 963.1 190.8 L 966.3 190.8 L 966.3 200.7 L 978.2 200.7 L 978.2 190.8 L 981.4 190.8 L 981.4 214.1 L 978.2 214.1 L 978.2 203.4 L 966.3 203.4 L 966.3 214.1 L 963.1 214.1 L 963.1 190.8 " fill="#0000FF"/>
<path class="atom-16" d="M 1029.9 314.7 L 1033.4 311.2 L 1028.8 310.3 L 1029.5 307.9 L 1033.7 310.0 L 1033.1 305.4 L 1035.6 305.4 L 1034.9 310.0 L 1039.1 308.0 L 1039.9 310.3 L 1035.3 311.1 L 1038.5 314.6 L 1036.5 316.1 L 1034.3 311.7 L 1032.0 316.1 L 1029.9 314.7 " fill="#191919"/>
<path class="atom-17" d="M 881.9 333.2 Q 881.9 327.6, 884.7 324.5 Q 887.4 321.4, 892.6 321.4 Q 897.8 321.4, 900.6 324.5 Q 903.3 327.6, 903.3 333.2 Q 903.3 338.9, 900.5 342.1 Q 897.7 345.3, 892.6 345.3 Q 887.5 345.3, 884.7 342.1 Q 881.9 338.9, 881.9 333.2 M 892.6 342.7 Q 896.2 342.7, 898.1 340.3 Q 900.0 337.9, 900.0 333.2 Q 900.0 328.6, 898.1 326.3 Q 896.2 324.0, 892.6 324.0 Q 889.1 324.0, 887.1 326.3 Q 885.2 328.6, 885.2 333.2 Q 885.2 337.9, 887.1 340.3 Q 889.1 342.7, 892.6 342.7 " fill="#FF0000"/>
<path class="bond-0 atom-0 atom-1" d="M 1131.9,570.1 L 1104.5,586.3" style="fill:none;fill-rule:evenodd;stroke:#191919;stroke-width:2.0px;stroke-linecap:butt;stroke-linejoin:miter;stroke-opacity:1"/>
<path class="bond-0 atom-0 atom-1" d="M 1104.5,586.3 L 1077.1,602.6" style="fill:none;fill-rule:evenodd;stroke:#FF0000;stroke-width:2.0px;stroke-linecap:butt;stroke-linejoin:miter;stroke-opacity:1"/>
<path class="bond-1 atom-1 atom-2" d="M 1050.3,603.1 L 1021.1,586.7" style="fill:none;fill-rule:evenodd;stroke:#FF0000;stroke-width:2.0px;stroke-linecap:butt;stroke-linejoin:miter;stroke-opacity:1"/>
<path class="bond-1 atom-1 atom-2" d="M 1021.1,586.7 L 991.9,570.4" style="fill:none;fill-rule:evenodd;stroke:#000000;stroke-width:2.0px;stroke-linecap:butt;stroke-linejoin:miter;stroke-opacity:1"/>
<path class="bond-2 atom-2 atom-3" d="M 991.9,570.4 L 921.1,612.5" style="fill:none;fill-rule:evenodd;stroke:#000000;stroke-width:2.0px;stroke-linecap:butt;stroke-linejoin:miter;stroke-opacity:1"/>
<path class="bond-3 atom-3 atom-4" d="M 921.1,612.5 L 849.3,572.2" style="fill:none;fill-rule:evenodd;stroke:#000000;stroke-width:2.0px;stroke-linecap:butt;stroke-linejoin:miter;stroke-opacity:1"/>
<path class="bond-4 atom-4 atom-5" d="M 849.3,572.2 L 778.5,614.3" style="fill:none;fill-rule:evenodd;stroke:#000000;stroke-width:2.0px;stroke-linecap:butt;stroke-linejoin:miter;stroke-opacity:1"/>
<path class="bond-5 atom-5 atom-6" d="M 778.5,614.3 L 706.7,574.1" style="fill:none;fill-rule:evenodd;stroke:#000000;stroke-width:2.0px;stroke-linecap:butt;stroke-linejoin:miter;stroke-opacity:1"/>
<path class="bond-6 atom-6 atom-7" d="M 706.7,574.1 L 635.9,616.2" style="fill:none;fill-rule:evenodd;stroke:#000000;stroke-width:2.0px;stroke-linecap:butt;stroke-linejoin:miter;stroke-opacity:1"/>
<path class="bond-7 atom-7 atom-8" d="M 635.9,616.2 L 606.7,599.8" style="fill:none;fill-rule:evenodd;stroke:#000000;stroke-width:2.0px;stroke-linecap:butt;stroke-linejoin:miter;stroke-opacity:1"/>
<path class="bond-7 atom-7 atom-8" d="M 606.7,599.8 L 577.5,583.5" style="fill:none;fill-rule:evenodd;stroke:#FF0000;stroke-width:2.0px;stroke-linecap:butt;stroke-linejoin:miter;stroke-opacity:1"/>
<path class="bond-8 atom-8 atom-9" d="M 550.7,584.0 L 522.0,601.0" style="fill:none;fill-rule:evenodd;stroke:#FF0000;stroke-width:2.0px;stroke-linecap:butt;stroke-linejoin:miter;stroke-opacity:1"/>
<path class="bond-8 atom-8 atom-9" d="M 522.0,601.0 L 493.3,618.1" style="fill:none;fill-rule:evenodd;stroke:#000000;stroke-width:2.0px;stroke-linecap:butt;stroke-linejoin:miter;stroke-opacity:1"/>
<path class="bond-9 atom-9 atom-10" d="M 487.1,614.6 L 487.6,650.3" style="fill:none;fill-rule:evenodd;stroke:#000000;stroke-width:2.0px;stroke-linecap:butt;stroke-linejoin:miter;stroke-opacity:1"/>
<path class="bond-9 atom-9 atom-10" d="M 487.6,650.3 L 488.0,686.0" style="fill:none;fill-rule:evenodd;stroke:#FF0000;stroke-width:2.0px;stroke-linecap:butt;stroke-linejoin:miter;stroke-opacity:1"/>
<path class="bond-9 atom-9 atom-10" d="M 499.4,614.4 L 499.9,650.1" style="fill:none;fill-rule:evenodd;stroke:#000000;stroke-width:2.0px;stroke-linecap:butt;stroke-linejoin:miter;stroke-opacity:1"/>
<path class="bond-9 atom-9 atom-10" d="M 499.9,650.1 L 500.4,685.8" style="fill:none;fill-rule:evenodd;stroke:#FF0000;stroke-width:2.0px;stroke-linecap:butt;stroke-linejoin:miter;stroke-opacity:1"/>
<path class="bond-10 atom-9 atom-11" d="M 493.3,618.1 L 421.5,577.8" style="fill:none;fill-rule:evenodd;stroke:#000000;stroke-width:2.0px;stroke-linecap:butt;stroke-linejoin:miter;stroke-opacity:1"/>
<path class="bond-11 atom-11 atom-12" d="M 421.5,577.8 L 350.7,619.9" style="fill:none;fill-rule:evenodd;stroke:#000000;stroke-width:2.0px;stroke-linecap:butt;stroke-linejoin:miter;stroke-opacity:1"/>
<path class="bond-12 atom-12 atom-13" d="M 350.7,619.9 L 278.9,579.7" style="fill:none;fill-rule:evenodd;stroke:#000000;stroke-width:2.0px;stroke-linecap:butt;stroke-linejoin:miter;stroke-opacity:1"/>
<path class="bond-13 atom-13 atom-14" d="M 278.9,579.7 L 208.1,621.8" style="fill:none;fill-rule:evenodd;stroke:#000000;stroke-width:2.0px;stroke-linecap:butt;stroke-linejoin:miter;stroke-opacity:1"/>
<path class="bond-14 atom-14 atom-15" d="M 208.1,621.8 L 136.3,581.6" style="fill:none;fill-rule:evenodd;stroke:#000000;stroke-width:2.0px;stroke-linecap:butt;stroke-linejoin:miter;stroke-opacity:1"/>
<path class="bond-15 atom-15 atom-16" d="M 136.3,581.6 L 105.0,600.2" style="fill:none;fill-rule:evenodd;stroke:#000000;stroke-width:2.0px;stroke-linecap:butt;stroke-linejoin:miter;stroke-opacity:1"/>
<path class="bond-15 atom-15 atom-16" d="M 105.0,600.2 L 73.8,618.8" style="fill:none;fill-rule:evenodd;stroke:#191919;stroke-width:2.0px;stroke-linecap:butt;stroke-linejoin:miter;stroke-opacity:1"/>
<path class="bond-16 atom-15 atom-17" d="M 142.5,585.1 L 142.0,549.5" style="fill:none;fill-rule:evenodd;stroke:#000000;stroke-width:2.0px;stroke-linecap:butt;stroke-linejoin:miter;stroke-opacity:1"/>
<path class="bond-16 atom-15 atom-17" d="M 142.0,549.5 L 141.6,514.0" style="fill:none;fill-rule:evenodd;stroke:#FF0000;stroke-width:2.0px;stroke-linecap:butt;stroke-linejoin:miter;stroke-opacity:1"/>
<path class="bond-16 atom-15 atom-17" d="M 130.2,585.2 L 129.7,549.7" style="fill:none;fill-rule:evenodd;stroke:#000000;stroke-width:2.0px;stroke-linecap:butt;stroke-linejoin:miter;stroke-opacity:1"/>
<path class="bond-16 atom-15 atom-17" d="M 129.7,549.7 L 129.2,514.2" style="fill:none;fill-rule:evenodd;stroke:#FF0000;stroke-width:2.0px;stroke-linecap:butt;stroke-linejoin:miter;stroke-opacity:1"/>
<path d="M 993.3,571.2 L 991.9,570.4 L 988.3,572.5" style="fill:none;stroke:#000000;stroke-width:2.0px;stroke-linecap:butt;stroke-linejoin:miter;stroke-opacity:1;"/>
<path d="M 924.7,610.4 L 921.1,612.5 L 917.5,610.5" style="fill:none;stroke:#000000;stroke-width:2.0px;stroke-linecap:butt;stroke-linejoin:miter;stroke-opacity:1;"/>
<path d="M 852.9,574.3 L 849.3,572.2 L 845.7,574.4" style="fill:none;stroke:#000000;stroke-width:2.0px;stroke-linecap:butt;stroke-linejoin:miter;stroke-opacity:1;"/>
<path d="M 782.1,612.2 L 778.5,614.3 L 774.9,612.3" style="fill:none;stroke:#000000;stroke-width:2.0px;stroke-linecap:butt;stroke-linejoin:miter;stroke-opacity:1;"/>
<path d="M 710.3,576.1 L 706.7,574.1 L 703.1,576.2" style="fill:none;stroke:#000000;stroke-width:2.0px;stroke-linecap:butt;stroke-linejoin:miter;stroke-opacity:1;"/>
<path d="M 639.5,614.1 L 635.9,616.2 L 634.5,615.4" style="fill:none;stroke:#000000;stroke-width:2.0px;stroke-linecap:butt;stroke-linejoin:miter;stroke-opacity:1;"/>
<path d="M 494.8,617.2 L 493.3,618.1 L 489.7,616.1" style="fill:none;stroke:#000000;stroke-width:2.0px;stroke-linecap:butt;stroke-linejoin:miter;stroke-opacity:1;"/>
<path d="M 425.1,579.9 L 421.5,577.8 L 417.9,579.9" style="fill:none;stroke:#000000;stroke-width:2.0px;stroke-linecap:butt;stroke-linejoin:miter;stroke-opacity:1;"/>
<path d="M 354.3,617.8 L 350.7,619.9 L 347.1,617.9" style="fill:none;stroke:#000000;stroke-width:2.0px;stroke-linecap:butt;stroke-linejoin:miter;stroke-opacity:1;"/>
<path d="M 282.5,581.7 L 278.9,579.7 L 275.3,581.8" style="fill:none;stroke:#000000;stroke-width:2.0px;stroke-linecap:butt;stroke-linejoin:miter;stroke-opacity:1;"/>
<path d="M 211.7,619.7 L 208.1,621.8 L 204.5,619.8" style="fill:none;stroke:#000000;stroke-width:2.0px;stroke-linecap:butt;stroke-linejoin:miter;stroke-opacity:1;"/>
<path d="M 139.9,583.6 L 136.3,581.6 L 134.7,582.5" style="fill:none;stroke:#000000;stroke-width:2.0px;stroke-linecap:butt;stroke-linejoin:miter;stroke-opacity:1;"/>
<path class="atom-0" d="M 1130.1 565.9 L 1133.5 562.4 L 1129.0 561.5 L 1129.7 559.2 L 1133.8 561.3 L 1133.2 556.7 L 1135.7 556.7 L 1135.0 561.2 L 1139.3 559.3 L 1140.0 561.5 L 1135.4 562.4 L 1138.7 565.9 L 1136.7 567.3 L 1134.4 563.0 L 1132.1 567.3 L 1130.1 565.9 " fill="#191919"/>
<path class="atom-1" d="M 1053.0 610.7 Q 1053.0 605.1, 1055.8 602.0 Q 1058.6 598.8, 1063.7 598.8 Q 1068.9 598.8, 1071.7 602.0 Q 1074.4 605.1, 1074.4 610.7 Q 1074.4 616.3, 1071.6 619.6 Q 1068.8 622.8, 1063.7 622.8 Q 1058.6 622.8, 1055.8 619.6 Q 1053.0 616.4, 1053.0 610.7 M 1063.7 620.1 Q 1067.3 620.1, 1069.2 617.8 Q 1071.1 615.4, 1071.1 610.7 Q 1071.1 606.1, 1069.2 603.8 Q 1067.3 601.5, 1063.7 601.5 Q 1060.2 601.5, 1058.2 603.8 Q 1056.3 606.1, 1056.3 610.7 Q 1056.3 615.4, 1058.2 617.8 Q 1060.2 620.1, 1063.7 620.1 " fill="#FF0000"/>
<path class="atom-8" d="M 553.4 576.0 Q 553.4 570.4, 556.1 567.3 Q 558.9 564.2, 564.1 564.2 Q 569.3 564.2, 572.0 567.3 Q 574.8 570.4, 574.8 576.0 Q 574.8 581.7, 572.0 584.9 Q 569.2 588.1, 564.1 588.1 Q 558.9 588.1, 556.1 584.9 Q 553.4 581.7, 553.4 576.0 M 564.1 585.5 Q 567.6 585.5, 569.5 583.1 Q 571.5 580.7, 571.5 576.0 Q 571.5 571.5, 569.5 569.2 Q 567.6 566.8, 564.1 566.8 Q 560.5 566.8, 558.6 569.1 Q 556.7 571.4, 556.7 576.0 Q 556.7 580.8, 558.6 583.1 Q 560.5 585.5, 564.1 585.5 " fill="#FF0000"/>
<path class="atom-10" d="M 483.7 700.5 Q 483.7 694.9, 486.5 691.7 Q 489.2 688.6, 494.4 688.6 Q 499.6 688.6, 502.3 691.7 Q 505.1 694.9, 505.1 700.5 Q 505.1 706.1, 502.3 709.4 Q 499.5 712.6, 494.4 712.6 Q 489.3 712.6, 486.5 709.4 Q 483.7 706.2, 483.7 700.5 M 494.4 709.9 Q 498.0 709.9, 499.9 707.5 Q 501.8 705.1, 501.8 700.5 Q 501.8 695.9, 499.9 693.6 Q 498.0 691.2, 494.4 691.2 Q 490.8 691.2, 488.9 693.6 Q 487.0 695.9, 487.0 700.5 Q 487.0 705.2, 488.9 707.5 Q 490.8 709.9, 494.4 709.9 " fill="#FF0000"/>
<path class="atom-16" d="M 61.1 621.1 L 64.5 617.6 L 60.0 616.6 L 60.7 614.3 L 64.9 616.4 L 64.3 611.8 L 66.8 611.8 L 66.1 616.4 L 70.3 614.4 L 71.0 616.6 L 66.4 617.5 L 69.7 621.0 L 67.7 622.5 L 65.4 618.1 L 63.1 622.5 L 61.1 621.1 " fill="#191919"/>
<path class="atom-17" d="M 124.5 499.3 Q 124.5 493.7, 127.3 490.6 Q 130.0 487.4, 135.2 487.4 Q 140.4 487.4, 143.1 490.6 Q 145.9 493.7, 145.9 499.3 Q 145.9 505.0, 143.1 508.2 Q 140.3 511.4, 135.2 511.4 Q 130.1 511.4, 127.3 508.2 Q 124.5 505.0, 124.5 499.3 M 135.2 508.8 Q 138.8 508.8, 140.7 506.4 Q 142.6 504.0, 142.6 499.3 Q 142.6 494.7, 140.7 492.4 Q 138.8 490.1, 135.2 490.1 Q 131.6 490.1, 129.7 492.4 Q 127.8 494.7, 127.8 499.3 Q 127.8 504.0, 129.7 506.4 Q 131.6 508.8, 135.2 508.8 " fill="#FF0000"/>
</svg>