<svg xmlns="http://www.w3.org/2000/svg" xmlns:rdkit="http://www.rdkit.org/xml" xmlns:xlink="http://www.w3.org/1999/xlink" version="1.1" baseProfile="full" xml:space="preserve" width="1200px" height="800px" viewBox="0 0 1200 800">
<!-- END OF HEADER -->
<rect style="opacity:1.0;fill:#FFFFFF;stroke:none" width="1200.0" height="800.0" x="0.0" y="0.0"> </rect>
<path class="bond-0 atom-0 atom-1" d="M 259.3,239.9 L 282.4,250.0" style="fill:none;fill-rule:evenodd;stroke:#191919;stroke-width:2.0px;stroke-linecap:butt;stroke-linejoin:miter;stroke-opacity:1"/>
<path class="bond-0 atom-0 atom-1" d="M 282.4,250.0 L 305.5,260.1" style="fill:none;fill-rule:evenodd;stroke:#FF0000;stroke-width:2.0px;stroke-linecap:butt;stroke-linejoin:miter;stroke-opacity:1"/>
<path class="bond-1 atom-1 atom-2" d="M 326.8,256.9 L 347.7,241.5" style="fill:none;fill-rule:evenodd;stroke:#FF0000;stroke-width:2.0px;stroke-linecap:butt;stroke-linejoin:miter;stroke-opacity:1"/>
<path class="bond-1 atom-1 atom-2" d="M 347.7,241.5 L 368.6,226.1" style="fill:none;fill-rule:evenodd;stroke:#000000;stroke-width:2.0px;stroke-linecap:butt;stroke-linejoin:miter;stroke-opacity:1"/>
<path class="bond-2 atom-2 atom-3" d="M 373.7,228.4 L 370.6,200.5" style="fill:none;fill-rule:evenodd;stroke:#000000;stroke-width:2.0px;stroke-linecap:butt;stroke-linejoin:miter;stroke-opacity:1"/>
<path class="bond-2 atom-2 atom-3" d="M 370.6,200.5 L 367.5,172.6" style="fill:none;fill-rule:evenodd;stroke:#FF0000;stroke-width:2.0px;stroke-linecap:butt;stroke-linejoin:miter;stroke-opacity:1"/>
<path class="bond-2 atom-2 atom-3" d="M 364.0,229.4 L 360.9,201.6" style="fill:none;fill-rule:evenodd;stroke:#000000;stroke-width:2.0px;stroke-linecap:butt;stroke-linejoin:miter;stroke-opacity:1"/>
<path class="bond-2 atom-2 atom-3" d="M 360.9,201.6 L 357.8,173.7" style="fill:none;fill-rule:evenodd;stroke:#FF0000;stroke-width:2.0px;stroke-linecap:butt;stroke-linejoin:miter;stroke-opacity:1"/>
<path class="bond-3 atom-2 atom-4" d="M 368.6,226.1 L 393.8,237.1" style="fill:none;fill-rule:evenodd;stroke:#000000;stroke-width:2.0px;stroke-linecap:butt;stroke-linejoin:miter;stroke-opacity:1"/>
<path class="bond-3 atom-2 atom-4" d="M 393.8,237.1 L 419.1,248.2" style="fill:none;fill-rule:evenodd;stroke:#0000FF;stroke-width:2.0px;stroke-linecap:butt;stroke-linejoin:miter;stroke-opacity:1"/>
<path class="bond-4 atom-4 atom-5" d="M 437.4,245.4 L 459.0,229.5" style="fill:none;fill-rule:evenodd;stroke:#0000FF;stroke-width:2.0px;stroke-linecap:butt;stroke-linejoin:miter;stroke-opacity:1"/>
<path class="bond-4 atom-4 atom-5" d="M 459.0,229.5 L 480.7,213.5" style="fill:none;fill-rule:evenodd;stroke:#000000;stroke-width:2.0px;stroke-linecap:butt;stroke-linejoin:miter;stroke-opacity:1"/>
<path class="bond-5 atom-5 atom-6" d="M 480.7,213.5 L 473.4,148.8" style="fill:none;fill-rule:evenodd;stroke:#000000;stroke-width:2.0px;stroke-linecap:butt;stroke-linejoin:miter;stroke-opacity:1"/>
<path class="bond-5 atom-5 atom-6" d="M 489.7,206.9 L 483.7,153.4" style="fill:none;fill-rule:evenodd;stroke:#000000;stroke-width:2.0px;stroke-linecap:butt;stroke-linejoin:miter;stroke-opacity:1"/>
<path class="bond-6 atom-6 atom-7" d="M 473.4,148.8 L 525.8,110.2" style="fill:none;fill-rule:evenodd;stroke:#000000;stroke-width:2.0px;stroke-linecap:butt;stroke-linejoin:miter;stroke-opacity:1"/>
<path class="bond-7 atom-7 atom-8" d="M 525.8,110.2 L 585.5,136.3" style="fill:none;fill-rule:evenodd;stroke:#000000;stroke-width:2.0px;stroke-linecap:butt;stroke-linejoin:miter;stroke-opacity:1"/>
<path class="bond-7 atom-7 atom-8" d="M 527.1,121.4 L 576.4,143.0" style="fill:none;fill-rule:evenodd;stroke:#000000;stroke-width:2.0px;stroke-linecap:butt;stroke-linejoin:miter;stroke-opacity:1"/>
<path class="bond-8 atom-8 atom-9" d="M 585.5,136.3 L 637.9,97.6" style="fill:none;fill-rule:evenodd;stroke:#000000;stroke-width:2.0px;stroke-linecap:butt;stroke-linejoin:miter;stroke-opacity:1"/>
<path class="bond-9 atom-9 atom-10" d="M 637.9,97.6 L 697.6,123.7" style="fill:none;fill-rule:evenodd;stroke:#000000;stroke-width:2.0px;stroke-linecap:butt;stroke-linejoin:miter;stroke-opacity:1"/>
<path class="bond-10 atom-10 atom-11" d="M 697.6,123.7 L 704.8,188.4" style="fill:none;fill-rule:evenodd;stroke:#000000;stroke-width:2.0px;stroke-linecap:butt;stroke-linejoin:miter;stroke-opacity:1"/>
<path class="bond-10 atom-10 atom-11" d="M 707.9,128.2 L 713.9,181.7" style="fill:none;fill-rule:evenodd;stroke:#000000;stroke-width:2.0px;stroke-linecap:butt;stroke-linejoin:miter;stroke-opacity:1"/>
<path class="bond-11 atom-11 atom-12" d="M 704.8,188.4 L 764.5,214.5" style="fill:none;fill-rule:evenodd;stroke:#000000;stroke-width:2.0px;stroke-linecap:butt;stroke-linejoin:miter;stroke-opacity:1"/>
<path class="bond-12 atom-12 atom-13" d="M 764.5,214.5 L 816.9,175.9" style="fill:none;fill-rule:evenodd;stroke:#000000;stroke-width:2.0px;stroke-linecap:butt;stroke-linejoin:miter;stroke-opacity:1"/>
<path class="bond-12 atom-12 atom-13" d="M 763.2,203.3 L 806.6,171.4" style="fill:none;fill-rule:evenodd;stroke:#000000;stroke-width:2.0px;stroke-linecap:butt;stroke-linejoin:miter;stroke-opacity:1"/>
<path class="bond-13 atom-13 atom-14" d="M 816.9,175.9 L 842.2,186.9" style="fill:none;fill-rule:evenodd;stroke:#000000;stroke-width:2.0px;stroke-linecap:butt;stroke-linejoin:miter;stroke-opacity:1"/>
<path class="bond-13 atom-13 atom-14" d="M 842.2,186.9 L 867.4,198.0" style="fill:none;fill-rule:evenodd;stroke:#0000FF;stroke-width:2.0px;stroke-linecap:butt;stroke-linejoin:miter;stroke-opacity:1"/>
<path class="bond-14 atom-14 atom-15" d="M 877.9,213.3 L 880.9,240.0" style="fill:none;fill-rule:evenodd;stroke:#0000FF;stroke-width:2.0px;stroke-linecap:butt;stroke-linejoin:miter;stroke-opacity:1"/>
<path class="bond-14 atom-14 atom-15" d="M 880.9,240.0 L 883.8,266.7" style="fill:none;fill-rule:evenodd;stroke:#000000;stroke-width:2.0px;stroke-linecap:butt;stroke-linejoin:miter;stroke-opacity:1"/>
<path class="bond-15 atom-15 atom-16" d="M 883.8,266.7 L 910.4,278.3" style="fill:none;fill-rule:evenodd;stroke:#000000;stroke-width:2.0px;stroke-linecap:butt;stroke-linejoin:miter;stroke-opacity:1"/>
<path class="bond-15 atom-15 atom-16" d="M 910.4,278.3 L 937.0,289.9" style="fill:none;fill-rule:evenodd;stroke:#191919;stroke-width:2.0px;stroke-linecap:butt;stroke-linejoin:miter;stroke-opacity:1"/>
<path class="bond-16 atom-15 atom-17" d="M 883.2,261.1 L 861.2,277.3" style="fill:none;fill-rule:evenodd;stroke:#000000;stroke-width:2.0px;stroke-linecap:butt;stroke-linejoin:miter;stroke-opacity:1"/>
<path class="bond-16 atom-15 atom-17" d="M 861.2,277.3 L 839.1,293.5" style="fill:none;fill-rule:evenodd;stroke:#FF0000;stroke-width:2.0px;stroke-linecap:butt;stroke-linejoin:miter;stroke-opacity:1"/>
<path class="bond-16 atom-15 atom-17" d="M 889.0,268.9 L 867.0,285.2" style="fill:none;fill-rule:evenodd;stroke:#000000;stroke-width:2.0px;stroke-linecap:butt;stroke-linejoin:miter;stroke-opacity:1"/>
<path class="bond-16 atom-15 atom-17" d="M 867.0,285.2 L 844.9,301.4" style="fill:none;fill-rule:evenodd;stroke:#FF0000;stroke-width:2.0px;stroke-linecap:butt;stroke-linejoin:miter;stroke-opacity:1"/>
<path class="bond-17 atom-13 atom-18" d="M 816.9,175.9 L 809.7,111.2" style="fill:none;fill-rule:evenodd;stroke:#000000;stroke-width:2.0px;stroke-linecap:butt;stroke-linejoin:miter;stroke-opacity:1"/>
<path class="bond-18 atom-18 atom-19" d="M 809.7,111.2 L 750.0,85.1" style="fill:none;fill-rule:evenodd;stroke:#000000;stroke-width:2.0px;stroke-linecap:butt;stroke-linejoin:miter;stroke-opacity:1"/>
<path class="bond-18 atom-18 atom-19" d="M 800.6,117.9 L 751.3,96.3" style="fill:none;fill-rule:evenodd;stroke:#000000;stroke-width:2.0px;stroke-linecap:butt;stroke-linejoin:miter;stroke-opacity:1"/>
<path class="bond-19 atom-8 atom-20" d="M 585.5,136.3 L 592.8,201.0" style="fill:none;fill-rule:evenodd;stroke:#000000;stroke-width:2.0px;stroke-linecap:butt;stroke-linejoin:miter;stroke-opacity:1"/>
<path class="bond-20 atom-20 atom-21" d="M 592.8,201.0 L 540.3,239.6" style="fill:none;fill-rule:evenodd;stroke:#000000;stroke-width:2.0px;stroke-linecap:butt;stroke-linejoin:miter;stroke-opacity:1"/>
<path class="bond-20 atom-20 atom-21" d="M 582.4,196.5 L 539.1,228.4" style="fill:none;fill-rule:evenodd;stroke:#000000;stroke-width:2.0px;stroke-linecap:butt;stroke-linejoin:miter;stroke-opacity:1"/>
<path class="bond-21 atom-21 atom-5" d="M 540.3,239.6 L 480.7,213.5" style="fill:none;fill-rule:evenodd;stroke:#000000;stroke-width:2.0px;stroke-linecap:butt;stroke-linejoin:miter;stroke-opacity:1"/>
<path class="bond-22 atom-19 atom-10" d="M 750.0,85.1 L 697.6,123.7" style="fill:none;fill-rule:evenodd;stroke:#000000;stroke-width:2.0px;stroke-linecap:butt;stroke-linejoin:miter;stroke-opacity:1"/>
<path d="M 367.5,226.9 L 368.6,226.1 L 369.8,226.7" style="fill:none;stroke:#000000;stroke-width:2.0px;stroke-linecap:butt;stroke-linejoin:miter;stroke-opacity:1;"/>
<path d="M 473.8,152.1 L 473.4,148.8 L 476.0,146.9" style="fill:none;stroke:#000000;stroke-width:2.0px;stroke-linecap:butt;stroke-linejoin:miter;stroke-opacity:1;"/>
<path d="M 523.2,112.1 L 525.8,110.2 L 528.8,111.5" style="fill:none;stroke:#000000;stroke-width:2.0px;stroke-linecap:butt;stroke-linejoin:miter;stroke-opacity:1;"/>
<path d="M 635.3,99.6 L 637.9,97.6 L 640.9,98.9" style="fill:none;stroke:#000000;stroke-width:2.0px;stroke-linecap:butt;stroke-linejoin:miter;stroke-opacity:1;"/>
<path d="M 704.5,185.2 L 704.8,188.4 L 707.8,189.7" style="fill:none;stroke:#000000;stroke-width:2.0px;stroke-linecap:butt;stroke-linejoin:miter;stroke-opacity:1;"/>
<path d="M 761.5,213.2 L 764.5,214.5 L 767.1,212.6" style="fill:none;stroke:#000000;stroke-width:2.0px;stroke-linecap:butt;stroke-linejoin:miter;stroke-opacity:1;"/>
<path d="M 883.7,265.3 L 883.8,266.7 L 885.2,267.2" style="fill:none;stroke:#000000;stroke-width:2.0px;stroke-linecap:butt;stroke-linejoin:miter;stroke-opacity:1;"/>
<path d="M 810.0,114.4 L 809.7,111.2 L 806.7,109.9" style="fill:none;stroke:#000000;stroke-width:2.0px;stroke-linecap:butt;stroke-linejoin:miter;stroke-opacity:1;"/>
<path d="M 753.0,86.4 L 750.0,85.1 L 747.4,87.0" style="fill:none;stroke:#000000;stroke-width:2.0px;stroke-linecap:butt;stroke-linejoin:miter;stroke-opacity:1;"/>
<path d="M 592.4,197.8 L 592.8,201.0 L 590.1,202.9" style="fill:none;stroke:#000000;stroke-width:2.0px;stroke-linecap:butt;stroke-linejoin:miter;stroke-opacity:1;"/>
<path d="M 543.0,237.7 L 540.3,239.6 L 537.3,238.3" style="fill:none;stroke:#000000;stroke-width:2.0px;stroke-linecap:butt;stroke-linejoin:miter;stroke-opacity:1;"/>
<path class="atom-0" d="M 253.0 236.6 L 255.7 233.8 L 252.1 233.1 L 252.7 231.3 L 256.0 232.9 L 255.5 229.3 L 257.5 229.3 L 256.9 232.9 L 260.3 231.3 L 260.9 233.1 L 257.2 233.8 L 259.8 236.6 L 258.2 237.7 L 256.4 234.3 L 254.6 237.7 L 253.0 236.6 " fill="#191919"/>
<path class="atom-1" d="M 307.7 264.8 Q 307.7 260.4, 309.9 257.9 Q 312.1 255.4, 316.2 255.4 Q 320.2 255.4, 322.4 257.9 Q 324.6 260.4, 324.6 264.8 Q 324.6 269.3, 322.4 271.8 Q 320.2 274.4, 316.2 274.4 Q 312.1 274.4, 309.9 271.8 Q 307.7 269.3, 307.7 264.8 M 316.2 272.3 Q 319.0 272.3, 320.5 270.4 Q 322.0 268.5, 322.0 264.8 Q 322.0 261.2, 320.5 259.3 Q 319.0 257.5, 316.2 257.5 Q 313.3 257.5, 311.8 259.3 Q 310.3 261.1, 310.3 264.8 Q 310.3 268.5, 311.8 270.4 Q 313.3 272.3, 316.2 272.3 " fill="#FF0000"/>
<path class="atom-3" d="M 352.9 161.4 Q 352.9 157.0, 355.1 154.5 Q 357.2 152.1, 361.3 152.1 Q 365.4 152.1, 367.6 154.5 Q 369.8 157.0, 369.8 161.4 Q 369.8 165.9, 367.6 168.5 Q 365.4 171.0, 361.3 171.0 Q 357.3 171.0, 355.1 168.5 Q 352.9 165.9, 352.9 161.4 M 361.3 168.9 Q 364.1 168.9, 365.7 167.0 Q 367.2 165.1, 367.2 161.4 Q 367.2 157.8, 365.7 156.0 Q 364.1 154.1, 361.3 154.1 Q 358.5 154.1, 357.0 156.0 Q 355.5 157.8, 355.5 161.4 Q 355.5 165.2, 357.0 167.0 Q 358.5 168.9, 361.3 168.9 " fill="#FF0000"/>
<path class="atom-4" d="M 424.2 243.0 L 430.2 252.7 Q 430.8 253.7, 431.8 255.4 Q 432.7 257.2, 432.8 257.3 L 432.8 243.0 L 435.2 243.0 L 435.2 261.4 L 432.7 261.4 L 426.2 250.7 Q 425.5 249.5, 424.7 248.0 Q 423.9 246.6, 423.6 246.2 L 423.6 261.4 L 421.3 261.4 L 421.3 243.0 L 424.2 243.0 " fill="#0000FF"/>
<path class="atom-4" d="M 421.0 263.2 L 423.5 263.2 L 423.5 271.1 L 433.0 271.1 L 433.0 263.2 L 435.5 263.2 L 435.5 281.7 L 433.0 281.7 L 433.0 273.2 L 423.5 273.2 L 423.5 281.7 L 421.0 281.7 L 421.0 263.2 " fill="#0000FF"/>
<path class="atom-14" d="M 872.5 192.7 L 878.6 202.5 Q 879.2 203.5, 880.1 205.2 Q 881.1 207.0, 881.1 207.1 L 881.1 192.7 L 883.6 192.7 L 883.6 211.2 L 881.1 211.2 L 874.6 200.5 Q 873.8 199.2, 873.0 197.8 Q 872.2 196.4, 872.0 195.9 L 872.0 211.2 L 869.6 211.2 L 869.6 192.7 L 872.5 192.7 " fill="#0000FF"/>
<path class="atom-14" d="M 887.2 192.7 L 889.7 192.7 L 889.7 200.6 L 899.1 200.6 L 899.1 192.7 L 901.6 192.7 L 901.6 211.2 L 899.1 211.2 L 899.1 202.7 L 889.7 202.7 L 889.7 211.2 L 887.2 211.2 L 887.2 192.7 " fill="#0000FF"/>
<path class="atom-16" d="M 940.0 290.7 L 942.7 287.9 L 939.1 287.2 L 939.7 285.3 L 943.0 287.0 L 942.5 283.4 L 944.5 283.4 L 943.9 287.0 L 947.3 285.4 L 947.9 287.2 L 944.2 287.9 L 946.8 290.7 L 945.2 291.8 L 943.4 288.4 L 941.6 291.8 L 940.0 290.7 " fill="#191919"/>
<path class="atom-17" d="M 823.0 305.4 Q 823.0 300.9, 825.1 298.5 Q 827.3 296.0, 831.4 296.0 Q 835.5 296.0, 837.7 298.5 Q 839.9 300.9, 839.9 305.4 Q 839.9 309.8, 837.7 312.4 Q 835.5 314.9, 831.4 314.9 Q 827.4 314.9, 825.1 312.4 Q 823.0 309.9, 823.0 305.4 M 831.4 312.8 Q 834.2 312.8, 835.7 311.0 Q 837.3 309.1, 837.3 305.4 Q 837.3 301.7, 835.7 299.9 Q 834.2 298.1, 831.4 298.1 Q 828.6 298.1, 827.1 299.9 Q 825.6 301.7, 825.6 305.4 Q 825.6 309.1, 827.1 311.0 Q 828.6 312.8, 831.4 312.8 " fill="#FF0000"/>
<path class="bond-0 atom-0 atom-1" d="M 1133.6,579.7 L 1111.8,592.4" style="fill:none;fill-rule:evenodd;stroke:#191919;stroke-width:2.0px;stroke-linecap:butt;stroke-linejoin:miter;stroke-opacity:1"/>
<path class="bond-0 atom-0 atom-1" d="M 1111.8,592.4 L 1090.0,605.1" style="fill:none;fill-rule:evenodd;stroke:#FF0000;stroke-width:2.0px;stroke-linecap:butt;stroke-linejoin:miter;stroke-opacity:1"/>
<path class="bond-1 atom-1 atom-2" d="M 1068.8,605.3 L 1045.8,592.2" style="fill:none;fill-rule:evenodd;stroke:#FF0000;stroke-width:2.0px;stroke-linecap:butt;stroke-linejoin:miter;stroke-opacity:1"/>
<path class="bond-1 atom-1 atom-2" d="M 1045.8,592.2 L 1022.9,579.1" style="fill:none;fill-rule:evenodd;stroke:#000000;stroke-width:2.0px;stroke-linecap:butt;stroke-linejoin:miter;stroke-opacity:1"/>
<path class="bond-2 atom-2 atom-3" d="M 1022.9,579.1 L 966.6,612.0" style="fill:none;fill-rule:evenodd;stroke:#000000;stroke-width:2.0px;stroke-linecap:butt;stroke-linejoin:miter;stroke-opacity:1"/>
<path class="bond-3 atom-3 atom-4" d="M 966.6,612.0 L 910.1,579.8" style="fill:none;fill-rule:evenodd;stroke:#000000;stroke-width:2.0px;stroke-linecap:butt;stroke-linejoin:miter;stroke-opacity:1"/>
<path class="bond-4 atom-4 atom-5" d="M 910.1,579.8 L 853.9,612.7" style="fill:none;fill-rule:evenodd;stroke:#000000;stroke-width:2.0px;stroke-linecap:butt;stroke-linejoin:miter;stroke-opacity:1"/>
<path class="bond-5 atom-5 atom-6" d="M 853.9,612.7 L 797.3,580.4" style="fill:none;fill-rule:evenodd;stroke:#000000;stroke-width:2.0px;stroke-linecap:butt;stroke-linejoin:miter;stroke-opacity:1"/>
<path class="bond-6 atom-6 atom-7" d="M 797.3,580.4 L 741.1,613.3" style="fill:none;fill-rule:evenodd;stroke:#000000;stroke-width:2.0px;stroke-linecap:butt;stroke-linejoin:miter;stroke-opacity:1"/>
<path class="bond-7 atom-7 atom-8" d="M 741.1,613.3 L 684.5,581.1" style="fill:none;fill-rule:evenodd;stroke:#000000;stroke-width:2.0px;stroke-linecap:butt;stroke-linejoin:miter;stroke-opacity:1"/>
<path class="bond-8 atom-8 atom-9" d="M 684.5,581.1 L 628.3,614.0" style="fill:none;fill-rule:evenodd;stroke:#000000;stroke-width:2.0px;stroke-linecap:butt;stroke-linejoin:miter;stroke-opacity:1"/>
<path class="bond-9 atom-9 atom-10" d="M 628.3,614.0 L 571.7,581.8" style="fill:none;fill-rule:evenodd;stroke:#000000;stroke-width:2.0px;stroke-linecap:butt;stroke-linejoin:miter;stroke-opacity:1"/>
<path class="bond-10 atom-10 atom-11" d="M 571.7,581.8 L 515.5,614.6" style="fill:none;fill-rule:evenodd;stroke:#000000;stroke-width:2.0px;stroke-linecap:butt;stroke-linejoin:miter;stroke-opacity:1"/>
<path class="bond-11 atom-11 atom-12" d="M 515.5,614.6 L 492.5,601.6" style="fill:none;fill-rule:evenodd;stroke:#000000;stroke-width:2.0px;stroke-linecap:butt;stroke-linejoin:miter;stroke-opacity:1"/>
<path class="bond-11 atom-11 atom-12" d="M 492.5,601.6 L 469.5,588.5" style="fill:none;fill-rule:evenodd;stroke:#FF0000;stroke-width:2.0px;stroke-linecap:butt;stroke-linejoin:miter;stroke-opacity:1"/>
<path class="bond-12 atom-12 atom-13" d="M 448.3,588.6 L 425.5,602.0" style="fill:none;fill-rule:evenodd;stroke:#FF0000;stroke-width:2.0px;stroke-linecap:butt;stroke-linejoin:miter;stroke-opacity:1"/>
<path class="bond-12 atom-12 atom-13" d="M 425.5,602.0 L 402.7,615.3" style="fill:none;fill-rule:evenodd;stroke:#000000;stroke-width:2.0px;stroke-linecap:butt;stroke-linejoin:miter;stroke-opacity:1"/>
<path class="bond-13 atom-13 atom-14" d="M 397.8,612.5 L 398.0,640.7" style="fill:none;fill-rule:evenodd;stroke:#000000;stroke-width:2.0px;stroke-linecap:butt;stroke-linejoin:miter;stroke-opacity:1"/>
<path class="bond-13 atom-13 atom-14" d="M 398.0,640.7 L 398.2,669.0" style="fill:none;fill-rule:evenodd;stroke:#FF0000;stroke-width:2.0px;stroke-linecap:butt;stroke-linejoin:miter;stroke-opacity:1"/>
<path class="bond-13 atom-13 atom-14" d="M 407.6,612.5 L 407.8,640.7" style="fill:none;fill-rule:evenodd;stroke:#000000;stroke-width:2.0px;stroke-linecap:butt;stroke-linejoin:miter;stroke-opacity:1"/>
<path class="bond-13 atom-13 atom-14" d="M 407.8,640.7 L 407.9,668.9" style="fill:none;fill-rule:evenodd;stroke:#FF0000;stroke-width:2.0px;stroke-linecap:butt;stroke-linejoin:miter;stroke-opacity:1"/>
<path class="bond-14 atom-13 atom-15" d="M 402.7,615.3 L 346.1,583.1" style="fill:none;fill-rule:evenodd;stroke:#000000;stroke-width:2.0px;stroke-linecap:butt;stroke-linejoin:miter;stroke-opacity:1"/>
<path class="bond-15 atom-15 atom-16" d="M 346.1,583.1 L 289.9,616.0" style="fill:none;fill-rule:evenodd;stroke:#000000;stroke-width:2.0px;stroke-linecap:butt;stroke-linejoin:miter;stroke-opacity:1"/>
<path class="bond-16 atom-16 atom-17" d="M 289.9,616.0 L 233.4,583.7" style="fill:none;fill-rule:evenodd;stroke:#000000;stroke-width:2.0px;stroke-linecap:butt;stroke-linejoin:miter;stroke-opacity:1"/>
<path class="bond-17 atom-17 atom-18" d="M 233.4,583.7 L 177.1,616.6" style="fill:none;fill-rule:evenodd;stroke:#000000;stroke-width:2.0px;stroke-linecap:butt;stroke-linejoin:miter;stroke-opacity:1"/>
<path class="bond-18 atom-18 atom-19" d="M 177.1,616.6 L 120.6,584.4" style="fill:none;fill-rule:evenodd;stroke:#000000;stroke-width:2.0px;stroke-linecap:butt;stroke-linejoin:miter;stroke-opacity:1"/>
<path class="bond-19 atom-19 atom-20" d="M 120.6,584.4 L 95.7,598.9" style="fill:none;fill-rule:evenodd;stroke:#000000;stroke-width:2.0px;stroke-linecap:butt;stroke-linejoin:miter;stroke-opacity:1"/>
<path class="bond-19 atom-19 atom-20" d="M 95.7,598.9 L 70.9,613.5" style="fill:none;fill-rule:evenodd;stroke:#191919;stroke-width:2.0px;stroke-linecap:butt;stroke-linejoin:miter;stroke-opacity:1"/>
<path class="bond-20 atom-19 atom-21" d="M 125.5,587.2 L 125.3,559.1" style="fill:none;fill-rule:evenodd;stroke:#000000;stroke-width:2.0px;stroke-linecap:butt;stroke-linejoin:miter;stroke-opacity:1"/>
<path class="bond-20 atom-19 atom-21" d="M 125.3,559.1 L 125.1,531.0" style="fill:none;fill-rule:evenodd;stroke:#FF0000;stroke-width:2.0px;stroke-linecap:butt;stroke-linejoin:miter;stroke-opacity:1"/>
<path class="bond-20 atom-19 atom-21" d="M 115.7,587.3 L 115.5,559.2" style="fill:none;fill-rule:evenodd;stroke:#000000;stroke-width:2.0px;stroke-linecap:butt;stroke-linejoin:miter;stroke-opacity:1"/>
<path class="bond-20 atom-19 atom-21" d="M 115.5,559.2 L 115.4,531.1" style="fill:none;fill-rule:evenodd;stroke:#FF0000;stroke-width:2.0px;stroke-linecap:butt;stroke-linejoin:miter;stroke-opacity:1"/>
<path d="M 1024.0,579.8 L 1022.9,579.1 L 1020.0,580.7" style="fill:none;stroke:#000000;stroke-width:2.0px;stroke-linecap:butt;stroke-linejoin:miter;stroke-opacity:1;"/>
<path d="M 969.5,610.4 L 966.6,612.0 L 963.8,610.4" style="fill:none;stroke:#000000;stroke-width:2.0px;stroke-linecap:butt;stroke-linejoin:miter;stroke-opacity:1;"/>
<path d="M 912.9,581.4 L 910.1,579.8 L 907.3,581.4" style="fill:none;stroke:#000000;stroke-width:2.0px;stroke-linecap:butt;stroke-linejoin:miter;stroke-opacity:1;"/>
<path d="M 856.7,611.0 L 853.9,612.7 L 851.0,611.0" style="fill:none;stroke:#000000;stroke-width:2.0px;stroke-linecap:butt;stroke-linejoin:miter;stroke-opacity:1;"/>
<path d="M 800.1,582.0 L 797.3,580.4 L 794.5,582.1" style="fill:none;stroke:#000000;stroke-width:2.0px;stroke-linecap:butt;stroke-linejoin:miter;stroke-opacity:1;"/>
<path d="M 743.9,611.7 L 741.1,613.3 L 738.2,611.7" style="fill:none;stroke:#000000;stroke-width:2.0px;stroke-linecap:butt;stroke-linejoin:miter;stroke-opacity:1;"/>
<path d="M 687.3,582.7 L 684.5,581.1 L 681.7,582.7" style="fill:none;stroke:#000000;stroke-width:2.0px;stroke-linecap:butt;stroke-linejoin:miter;stroke-opacity:1;"/>
<path d="M 631.1,612.3 L 628.3,614.0 L 625.5,612.4" style="fill:none;stroke:#000000;stroke-width:2.0px;stroke-linecap:butt;stroke-linejoin:miter;stroke-opacity:1;"/>
<path d="M 574.5,583.4 L 571.7,581.8 L 568.9,583.4" style="fill:none;stroke:#000000;stroke-width:2.0px;stroke-linecap:butt;stroke-linejoin:miter;stroke-opacity:1;"/>
<path d="M 518.3,613.0 L 515.5,614.6 L 514.4,614.0" style="fill:none;stroke:#000000;stroke-width:2.0px;stroke-linecap:butt;stroke-linejoin:miter;stroke-opacity:1;"/>
<path d="M 403.9,614.6 L 402.7,615.3 L 399.9,613.7" style="fill:none;stroke:#000000;stroke-width:2.0px;stroke-linecap:butt;stroke-linejoin:miter;stroke-opacity:1;"/>
<path d="M 349.0,584.7 L 346.1,583.1 L 343.3,584.7" style="fill:none;stroke:#000000;stroke-width:2.0px;stroke-linecap:butt;stroke-linejoin:miter;stroke-opacity:1;"/>
<path d="M 292.7,614.3 L 289.9,616.0 L 287.1,614.4" style="fill:none;stroke:#000000;stroke-width:2.0px;stroke-linecap:butt;stroke-linejoin:miter;stroke-opacity:1;"/>
<path d="M 236.2,585.4 L 233.4,583.7 L 230.5,585.4" style="fill:none;stroke:#000000;stroke-width:2.0px;stroke-linecap:butt;stroke-linejoin:miter;stroke-opacity:1;"/>
<path d="M 180.0,615.0 L 177.1,616.6 L 174.3,615.0" style="fill:none;stroke:#000000;stroke-width:2.0px;stroke-linecap:butt;stroke-linejoin:miter;stroke-opacity:1;"/>
<path d="M 123.4,586.0 L 120.6,584.4 L 119.3,585.1" style="fill:none;stroke:#000000;stroke-width:2.0px;stroke-linecap:butt;stroke-linejoin:miter;stroke-opacity:1;"/>
<path class="atom-0" d="M 1132.2 576.4 L 1134.9 573.6 L 1131.3 572.9 L 1131.8 571.0 L 1135.1 572.7 L 1134.7 569.1 L 1136.6 569.1 L 1136.1 572.7 L 1139.4 571.1 L 1140.0 572.9 L 1136.4 573.6 L 1139.0 576.4 L 1137.4 577.5 L 1135.6 574.1 L 1133.7 577.5 L 1132.2 576.4 " fill="#191919"/>
<path class="atom-1" d="M 1071.0 611.4 Q 1071.0 607.0, 1073.2 604.5 Q 1075.3 602.0, 1079.4 602.0 Q 1083.5 602.0, 1085.7 604.5 Q 1087.9 607.0, 1087.9 611.4 Q 1087.9 615.9, 1085.7 618.4 Q 1083.5 620.9, 1079.4 620.9 Q 1075.4 620.9, 1073.2 618.4 Q 1071.0 615.9, 1071.0 611.4 M 1079.4 618.9 Q 1082.2 618.9, 1083.8 617.0 Q 1085.3 615.1, 1085.3 611.4 Q 1085.3 607.8, 1083.8 605.9 Q 1082.2 604.1, 1079.4 604.1 Q 1076.6 604.1, 1075.1 605.9 Q 1073.6 607.7, 1073.6 611.4 Q 1073.6 615.1, 1075.1 617.0 Q 1076.6 618.9, 1079.4 618.9 " fill="#FF0000"/>
<path class="atom-12" d="M 450.5 582.5 Q 450.5 578.0, 452.6 575.6 Q 454.8 573.1, 458.9 573.1 Q 463.0 573.1, 465.2 575.6 Q 467.4 578.0, 467.4 582.5 Q 467.4 587.0, 465.2 589.5 Q 463.0 592.0, 458.9 592.0 Q 454.9 592.0, 452.6 589.5 Q 450.5 587.0, 450.5 582.5 M 458.9 589.9 Q 461.7 589.9, 463.2 588.1 Q 464.8 586.2, 464.8 582.5 Q 464.8 578.8, 463.2 577.0 Q 461.7 575.2, 458.9 575.2 Q 456.1 575.2, 454.6 577.0 Q 453.1 578.8, 453.1 582.5 Q 453.1 586.2, 454.6 588.1 Q 456.1 589.9, 458.9 589.9 " fill="#FF0000"/>
<path class="atom-14" d="M 394.6 680.5 Q 394.6 676.0, 396.8 673.6 Q 399.0 671.1, 403.1 671.1 Q 407.2 671.1, 409.4 673.6 Q 411.6 676.0, 411.6 680.5 Q 411.6 685.0, 409.4 687.5 Q 407.1 690.0, 403.1 690.0 Q 399.0 690.0, 396.8 687.5 Q 394.6 685.0, 394.6 680.5 M 403.1 688.0 Q 405.9 688.0, 407.4 686.1 Q 409.0 684.2, 409.0 680.5 Q 409.0 676.9, 407.4 675.0 Q 405.9 673.2, 403.1 673.2 Q 400.3 673.2, 398.8 675.0 Q 397.2 676.8, 397.2 680.5 Q 397.2 684.2, 398.8 686.1 Q 400.3 688.0, 403.1 688.0 " fill="#FF0000"/>
<path class="atom-20" d="M 60.9 615.2 L 63.6 612.5 L 60.0 611.7 L 60.5 609.9 L 63.9 611.6 L 63.4 607.9 L 65.3 607.9 L 64.8 611.5 L 68.2 610.0 L 68.7 611.7 L 65.1 612.4 L 67.7 615.2 L 66.1 616.4 L 64.3 612.9 L 62.5 616.4 L 60.9 615.2 " fill="#191919"/>
<path class="atom-21" d="M 111.7 519.3 Q 111.7 514.9, 113.9 512.4 Q 116.1 510.0, 120.2 510.0 Q 124.3 510.0, 126.5 512.4 Q 128.6 514.9, 128.6 519.3 Q 128.6 523.8, 126.4 526.4 Q 124.2 528.9, 120.2 528.9 Q 116.1 528.9, 113.9 526.4 Q 111.7 523.8, 111.7 519.3 M 120.2 526.8 Q 123.0 526.8, 124.5 524.9 Q 126.0 523.0, 126.0 519.3 Q 126.0 515.7, 124.5 513.9 Q 123.0 512.0, 120.2 512.0 Q 117.4 512.0, 115.8 513.9 Q 114.3 515.7, 114.3 519.3 Q 114.3 523.1, 115.8 524.9 Q 117.4 526.8, 120.2 526.8 " fill="#FF0000"/>
</svg>