<svg xmlns="http://www.w3.org/2000/svg" xmlns:rdkit="http://www.rdkit.org/xml" xmlns:xlink="http://www.w3.org/1999/xlink" version="1.1" baseProfile="full" xml:space="preserve" width="1200px" height="800px" viewBox="0 0 1200 800">
<!-- END OF HEADER -->
<rect style="opacity:1.0;fill:#FFFFFF;stroke:none" width="1200.0" height="800.0" x="0.0" y="0.0"> </rect>
<path class="bond-0 atom-0 atom-1" d="M 71.1,262.0 L 107.1,277.7" style="fill:none;fill-rule:evenodd;stroke:#191919;stroke-width:2.0px;stroke-linecap:butt;stroke-linejoin:miter;stroke-opacity:1"/>
<path class="bond-0 atom-0 atom-1" d="M 107.1,277.7 L 143.1,293.4" style="fill:none;fill-rule:evenodd;stroke:#FF0000;stroke-width:2.0px;stroke-linecap:butt;stroke-linejoin:miter;stroke-opacity:1"/>
<path class="bond-1 atom-1 atom-2" d="M 175.7,288.5 L 208.2,264.6" style="fill:none;fill-rule:evenodd;stroke:#FF0000;stroke-width:2.0px;stroke-linecap:butt;stroke-linejoin:miter;stroke-opacity:1"/>
<path class="bond-1 atom-1 atom-2" d="M 208.2,264.6 L 240.8,240.6" style="fill:none;fill-rule:evenodd;stroke:#000000;stroke-width:2.0px;stroke-linecap:butt;stroke-linejoin:miter;stroke-opacity:1"/>
<path class="bond-2 atom-2 atom-3" d="M 248.8,244.1 L 243.9,200.8" style="fill:none;fill-rule:evenodd;stroke:#000000;stroke-width:2.0px;stroke-linecap:butt;stroke-linejoin:miter;stroke-opacity:1"/>
<path class="bond-2 atom-2 atom-3" d="M 243.9,200.8 L 239.1,157.4" style="fill:none;fill-rule:evenodd;stroke:#FF0000;stroke-width:2.0px;stroke-linecap:butt;stroke-linejoin:miter;stroke-opacity:1"/>
<path class="bond-2 atom-2 atom-3" d="M 233.7,245.8 L 228.9,202.4" style="fill:none;fill-rule:evenodd;stroke:#000000;stroke-width:2.0px;stroke-linecap:butt;stroke-linejoin:miter;stroke-opacity:1"/>
<path class="bond-2 atom-2 atom-3" d="M 228.9,202.4 L 224.0,159.1" style="fill:none;fill-rule:evenodd;stroke:#FF0000;stroke-width:2.0px;stroke-linecap:butt;stroke-linejoin:miter;stroke-opacity:1"/>
<path class="bond-3 atom-2 atom-4" d="M 240.8,240.6 L 280.0,257.8" style="fill:none;fill-rule:evenodd;stroke:#000000;stroke-width:2.0px;stroke-linecap:butt;stroke-linejoin:miter;stroke-opacity:1"/>
<path class="bond-3 atom-2 atom-4" d="M 280.0,257.8 L 319.3,274.9" style="fill:none;fill-rule:evenodd;stroke:#0000FF;stroke-width:2.0px;stroke-linecap:butt;stroke-linejoin:miter;stroke-opacity:1"/>
<path class="bond-4 atom-4 atom-5" d="M 347.5,270.7 L 381.1,245.9" style="fill:none;fill-rule:evenodd;stroke:#0000FF;stroke-width:2.0px;stroke-linecap:butt;stroke-linejoin:miter;stroke-opacity:1"/>
<path class="bond-4 atom-4 atom-5" d="M 381.1,245.9 L 414.8,221.1" style="fill:none;fill-rule:evenodd;stroke:#000000;stroke-width:2.0px;stroke-linecap:butt;stroke-linejoin:miter;stroke-opacity:1"/>
<path class="bond-5 atom-5 atom-6" d="M 414.8,221.1 L 403.5,120.7" style="fill:none;fill-rule:evenodd;stroke:#000000;stroke-width:2.0px;stroke-linecap:butt;stroke-linejoin:miter;stroke-opacity:1"/>
<path class="bond-5 atom-5 atom-6" d="M 428.8,210.7 L 419.5,127.7" style="fill:none;fill-rule:evenodd;stroke:#000000;stroke-width:2.0px;stroke-linecap:butt;stroke-linejoin:miter;stroke-opacity:1"/>
<path class="bond-6 atom-6 atom-7" d="M 403.5,120.7 L 484.9,60.7" style="fill:none;fill-rule:evenodd;stroke:#000000;stroke-width:2.0px;stroke-linecap:butt;stroke-linejoin:miter;stroke-opacity:1"/>
<path class="bond-7 atom-7 atom-8" d="M 484.9,60.7 L 577.5,101.2" style="fill:none;fill-rule:evenodd;stroke:#000000;stroke-width:2.0px;stroke-linecap:butt;stroke-linejoin:miter;stroke-opacity:1"/>
<path class="bond-7 atom-7 atom-8" d="M 486.8,78.1 L 563.4,111.6" style="fill:none;fill-rule:evenodd;stroke:#000000;stroke-width:2.0px;stroke-linecap:butt;stroke-linejoin:miter;stroke-opacity:1"/>
<path class="bond-8 atom-8 atom-9" d="M 577.5,101.2 L 658.9,41.2" style="fill:none;fill-rule:evenodd;stroke:#000000;stroke-width:2.0px;stroke-linecap:butt;stroke-linejoin:miter;stroke-opacity:1"/>
<path class="bond-9 atom-9 atom-10" d="M 658.9,41.2 L 751.5,81.7" style="fill:none;fill-rule:evenodd;stroke:#000000;stroke-width:2.0px;stroke-linecap:butt;stroke-linejoin:miter;stroke-opacity:1"/>
<path class="bond-10 atom-10 atom-11" d="M 751.5,81.7 L 762.7,182.1" style="fill:none;fill-rule:evenodd;stroke:#000000;stroke-width:2.0px;stroke-linecap:butt;stroke-linejoin:miter;stroke-opacity:1"/>
<path class="bond-10 atom-10 atom-11" d="M 767.5,88.7 L 776.8,171.7" style="fill:none;fill-rule:evenodd;stroke:#000000;stroke-width:2.0px;stroke-linecap:butt;stroke-linejoin:miter;stroke-opacity:1"/>
<path class="bond-11 atom-11 atom-12" d="M 762.7,182.1 L 855.4,222.6" style="fill:none;fill-rule:evenodd;stroke:#000000;stroke-width:2.0px;stroke-linecap:butt;stroke-linejoin:miter;stroke-opacity:1"/>
<path class="bond-12 atom-12 atom-13" d="M 855.4,222.6 L 936.7,162.6" style="fill:none;fill-rule:evenodd;stroke:#000000;stroke-width:2.0px;stroke-linecap:butt;stroke-linejoin:miter;stroke-opacity:1"/>
<path class="bond-12 atom-12 atom-13" d="M 853.4,205.2 L 920.7,155.6" style="fill:none;fill-rule:evenodd;stroke:#000000;stroke-width:2.0px;stroke-linecap:butt;stroke-linejoin:miter;stroke-opacity:1"/>
<path class="bond-13 atom-13 atom-14" d="M 936.7,162.6 L 976.0,179.8" style="fill:none;fill-rule:evenodd;stroke:#000000;stroke-width:2.0px;stroke-linecap:butt;stroke-linejoin:miter;stroke-opacity:1"/>
<path class="bond-13 atom-13 atom-14" d="M 976.0,179.8 L 1015.3,197.0" style="fill:none;fill-rule:evenodd;stroke:#0000FF;stroke-width:2.0px;stroke-linecap:butt;stroke-linejoin:miter;stroke-opacity:1"/>
<path class="bond-14 atom-14 atom-15" d="M 1031.3,220.6 L 1036.0,262.1" style="fill:none;fill-rule:evenodd;stroke:#0000FF;stroke-width:2.0px;stroke-linecap:butt;stroke-linejoin:miter;stroke-opacity:1"/>
<path class="bond-14 atom-14 atom-15" d="M 1036.0,262.1 L 1040.6,303.6" style="fill:none;fill-rule:evenodd;stroke:#000000;stroke-width:2.0px;stroke-linecap:butt;stroke-linejoin:miter;stroke-opacity:1"/>
<path class="bond-15 atom-15 atom-16" d="M 1040.6,303.6 L 1081.9,321.6" style="fill:none;fill-rule:evenodd;stroke:#000000;stroke-width:2.0px;stroke-linecap:butt;stroke-linejoin:miter;stroke-opacity:1"/>
<path class="bond-15 atom-15 atom-16" d="M 1081.9,321.6 L 1123.2,339.7" style="fill:none;fill-rule:evenodd;stroke:#191919;stroke-width:2.0px;stroke-linecap:butt;stroke-linejoin:miter;stroke-opacity:1"/>
<path class="bond-16 atom-15 atom-17" d="M 1039.6,294.9 L 1005.4,320.1" style="fill:none;fill-rule:evenodd;stroke:#000000;stroke-width:2.0px;stroke-linecap:butt;stroke-linejoin:miter;stroke-opacity:1"/>
<path class="bond-16 atom-15 atom-17" d="M 1005.4,320.1 L 971.1,345.4" style="fill:none;fill-rule:evenodd;stroke:#FF0000;stroke-width:2.0px;stroke-linecap:butt;stroke-linejoin:miter;stroke-opacity:1"/>
<path class="bond-16 atom-15 atom-17" d="M 1048.6,307.1 L 1014.3,332.3" style="fill:none;fill-rule:evenodd;stroke:#000000;stroke-width:2.0px;stroke-linecap:butt;stroke-linejoin:miter;stroke-opacity:1"/>
<path class="bond-16 atom-15 atom-17" d="M 1014.3,332.3 L 980.1,357.6" style="fill:none;fill-rule:evenodd;stroke:#FF0000;stroke-width:2.0px;stroke-linecap:butt;stroke-linejoin:miter;stroke-opacity:1"/>
<path class="bond-17 atom-13 atom-18" d="M 936.7,162.6 L 925.5,62.2" style="fill:none;fill-rule:evenodd;stroke:#000000;stroke-width:2.0px;stroke-linecap:butt;stroke-linejoin:miter;stroke-opacity:1"/>
<path class="bond-18 atom-18 atom-19" d="M 925.5,62.2 L 832.9,21.7" style="fill:none;fill-rule:evenodd;stroke:#000000;stroke-width:2.0px;stroke-linecap:butt;stroke-linejoin:miter;stroke-opacity:1"/>
<path class="bond-18 atom-18 atom-19" d="M 911.4,72.6 L 834.8,39.1" style="fill:none;fill-rule:evenodd;stroke:#000000;stroke-width:2.0px;stroke-linecap:butt;stroke-linejoin:miter;stroke-opacity:1"/>
<path class="bond-19 atom-8 atom-20" d="M 577.5,101.2 L 588.7,201.6" style="fill:none;fill-rule:evenodd;stroke:#000000;stroke-width:2.0px;stroke-linecap:butt;stroke-linejoin:miter;stroke-opacity:1"/>
<path class="bond-20 atom-20 atom-21" d="M 588.7,201.6 L 507.4,261.6" style="fill:none;fill-rule:evenodd;stroke:#000000;stroke-width:2.0px;stroke-linecap:butt;stroke-linejoin:miter;stroke-opacity:1"/>
<path class="bond-20 atom-20 atom-21" d="M 572.7,194.6 L 505.4,244.2" style="fill:none;fill-rule:evenodd;stroke:#000000;stroke-width:2.0px;stroke-linecap:butt;stroke-linejoin:miter;stroke-opacity:1"/>
<path class="bond-21 atom-21 atom-5" d="M 507.4,261.6 L 414.8,221.1" style="fill:none;fill-rule:evenodd;stroke:#000000;stroke-width:2.0px;stroke-linecap:butt;stroke-linejoin:miter;stroke-opacity:1"/>
<path class="bond-22 atom-19 atom-10" d="M 832.9,21.7 L 751.5,81.7" style="fill:none;fill-rule:evenodd;stroke:#000000;stroke-width:2.0px;stroke-linecap:butt;stroke-linejoin:miter;stroke-opacity:1"/>
<path d="M 239.1,241.8 L 240.8,240.6 L 242.7,241.5" style="fill:none;stroke:#000000;stroke-width:2.0px;stroke-linecap:butt;stroke-linejoin:miter;stroke-opacity:1;"/>
<path d="M 404.1,125.7 L 403.5,120.7 L 407.6,117.7" style="fill:none;stroke:#000000;stroke-width:2.0px;stroke-linecap:butt;stroke-linejoin:miter;stroke-opacity:1;"/>
<path d="M 480.8,63.7 L 484.9,60.7 L 489.5,62.7" style="fill:none;stroke:#000000;stroke-width:2.0px;stroke-linecap:butt;stroke-linejoin:miter;stroke-opacity:1;"/>
<path d="M 654.8,44.2 L 658.9,41.2 L 663.5,43.2" style="fill:none;stroke:#000000;stroke-width:2.0px;stroke-linecap:butt;stroke-linejoin:miter;stroke-opacity:1;"/>
<path d="M 762.2,177.1 L 762.7,182.1 L 767.4,184.1" style="fill:none;stroke:#000000;stroke-width:2.0px;stroke-linecap:butt;stroke-linejoin:miter;stroke-opacity:1;"/>
<path d="M 850.7,220.6 L 855.4,222.6 L 859.4,219.6" style="fill:none;stroke:#000000;stroke-width:2.0px;stroke-linecap:butt;stroke-linejoin:miter;stroke-opacity:1;"/>
<path d="M 1040.4,301.5 L 1040.6,303.6 L 1042.7,304.5" style="fill:none;stroke:#000000;stroke-width:2.0px;stroke-linecap:butt;stroke-linejoin:miter;stroke-opacity:1;"/>
<path d="M 926.0,67.2 L 925.5,62.2 L 920.8,60.2" style="fill:none;stroke:#000000;stroke-width:2.0px;stroke-linecap:butt;stroke-linejoin:miter;stroke-opacity:1;"/>
<path d="M 837.5,23.7 L 832.9,21.7 L 828.8,24.7" style="fill:none;stroke:#000000;stroke-width:2.0px;stroke-linecap:butt;stroke-linejoin:miter;stroke-opacity:1;"/>
<path d="M 588.2,196.6 L 588.7,201.6 L 584.7,204.6" style="fill:none;stroke:#000000;stroke-width:2.0px;stroke-linecap:butt;stroke-linejoin:miter;stroke-opacity:1;"/>
<path d="M 511.4,258.6 L 507.4,261.6 L 502.7,259.6" style="fill:none;stroke:#000000;stroke-width:2.0px;stroke-linecap:butt;stroke-linejoin:miter;stroke-opacity:1;"/>
<path class="atom-0" d="M 61.4 256.9 L 65.6 252.7 L 60.1 251.6 L 60.9 248.7 L 66.0 251.3 L 65.3 245.7 L 68.3 245.7 L 67.4 251.3 L 72.6 248.9 L 73.5 251.6 L 67.9 252.6 L 71.9 256.9 L 69.4 258.7 L 66.7 253.4 L 63.9 258.7 L 61.4 256.9 " fill="#191919"/>
<path class="atom-1" d="M 146.4 300.7 Q 146.4 293.9, 149.8 290.1 Q 153.1 286.3, 159.4 286.3 Q 165.7 286.3, 169.0 290.1 Q 172.4 293.9, 172.4 300.7 Q 172.4 307.5, 169.0 311.5 Q 165.6 315.3, 159.4 315.3 Q 153.2 315.3, 149.8 311.5 Q 146.4 307.6, 146.4 300.7 M 159.4 312.1 Q 163.7 312.1, 166.0 309.3 Q 168.4 306.3, 168.4 300.7 Q 168.4 295.1, 166.0 292.3 Q 163.7 289.5, 159.4 289.5 Q 155.1 289.5, 152.7 292.3 Q 150.4 295.1, 150.4 300.7 Q 150.4 306.4, 152.7 309.3 Q 155.1 312.1, 159.4 312.1 " fill="#FF0000"/>
<path class="atom-3" d="M 216.5 140.2 Q 216.5 133.4, 219.9 129.6 Q 223.2 125.8, 229.5 125.8 Q 235.8 125.8, 239.2 129.6 Q 242.5 133.4, 242.5 140.2 Q 242.5 147.1, 239.1 151.0 Q 235.7 154.9, 229.5 154.9 Q 223.3 154.9, 219.9 151.0 Q 216.5 147.1, 216.5 140.2 M 229.5 151.7 Q 233.8 151.7, 236.2 148.8 Q 238.5 145.9, 238.5 140.2 Q 238.5 134.7, 236.2 131.9 Q 233.8 129.0, 229.5 129.0 Q 225.2 129.0, 222.8 131.8 Q 220.5 134.6, 220.5 140.2 Q 220.5 145.9, 222.8 148.8 Q 225.2 151.7, 229.5 151.7 " fill="#FF0000"/>
<path class="atom-4" d="M 327.1 266.9 L 336.4 281.9 Q 337.3 283.4, 338.8 286.1 Q 340.3 288.8, 340.4 288.9 L 340.4 266.9 L 344.1 266.9 L 344.1 295.2 L 340.2 295.2 L 330.3 278.8 Q 329.1 276.9, 327.9 274.7 Q 326.7 272.5, 326.3 271.8 L 326.3 295.2 L 322.6 295.2 L 322.6 266.9 L 327.1 266.9 " fill="#0000FF"/>
<path class="atom-4" d="M 322.3 298.1 L 326.1 298.1 L 326.1 310.1 L 340.6 310.1 L 340.6 298.1 L 344.5 298.1 L 344.5 326.4 L 340.6 326.4 L 340.6 313.3 L 326.1 313.3 L 326.1 326.4 L 322.3 326.4 L 322.3 298.1 " fill="#0000FF"/>
<path class="atom-14" d="M 1023.1 189.0 L 1032.4 204.0 Q 1033.3 205.4, 1034.8 208.1 Q 1036.3 210.8, 1036.3 211.0 L 1036.3 189.0 L 1040.1 189.0 L 1040.1 217.3 L 1036.2 217.3 L 1026.3 200.9 Q 1025.1 199.0, 1023.9 196.8 Q 1022.7 194.6, 1022.3 193.9 L 1022.3 217.3 L 1018.6 217.3 L 1018.6 189.0 L 1023.1 189.0 " fill="#0000FF"/>
<path class="atom-14" d="M 1045.6 189.0 L 1049.4 189.0 L 1049.4 201.0 L 1063.9 201.0 L 1063.9 189.0 L 1067.8 189.0 L 1067.8 217.3 L 1063.9 217.3 L 1063.9 204.2 L 1049.4 204.2 L 1049.4 217.3 L 1045.6 217.3 L 1045.6 189.0 " fill="#0000FF"/>
<path class="atom-16" d="M 1127.9 340.9 L 1132.0 336.6 L 1126.5 335.5 L 1127.4 332.7 L 1132.4 335.2 L 1131.7 329.7 L 1134.7 329.6 L 1133.9 335.2 L 1139.0 332.8 L 1139.9 335.5 L 1134.3 336.6 L 1138.3 340.8 L 1135.9 342.6 L 1133.1 337.3 L 1130.3 342.6 L 1127.9 340.9 " fill="#191919"/>
<path class="atom-17" d="M 946.2 363.6 Q 946.2 356.8, 949.6 353.0 Q 953.0 349.2, 959.2 349.2 Q 965.5 349.2, 968.9 353.0 Q 972.2 356.8, 972.2 363.6 Q 972.2 370.5, 968.8 374.4 Q 965.4 378.3, 959.2 378.3 Q 953.0 378.3, 949.6 374.4 Q 946.2 370.5, 946.2 363.6 M 959.2 375.1 Q 963.6 375.1, 965.9 372.2 Q 968.2 369.3, 968.2 363.6 Q 968.2 358.1, 965.9 355.3 Q 963.6 352.4, 959.2 352.4 Q 954.9 352.4, 952.6 355.2 Q 950.2 358.0, 950.2 363.6 Q 950.2 369.3, 952.6 372.2 Q 954.9 375.1, 959.2 375.1 " fill="#FF0000"/>
<path class="bond-0 atom-0 atom-1" d="M 946.9,603.3 L 905.7,629.4" style="fill:none;fill-rule:evenodd;stroke:#191919;stroke-width:2.0px;stroke-linecap:butt;stroke-linejoin:miter;stroke-opacity:1"/>
<path class="bond-0 atom-0 atom-1" d="M 905.7,629.4 L 864.5,655.5" style="fill:none;fill-rule:evenodd;stroke:#000000;stroke-width:2.0px;stroke-linecap:butt;stroke-linejoin:miter;stroke-opacity:1"/>
<path class="bond-1 atom-1 atom-2" d="M 864.5,655.5 L 774.9,608.7" style="fill:none;fill-rule:evenodd;stroke:#000000;stroke-width:2.0px;stroke-linecap:butt;stroke-linejoin:miter;stroke-opacity:1"/>
<path class="bond-2 atom-2 atom-3" d="M 774.9,608.7 L 689.6,662.8" style="fill:none;fill-rule:evenodd;stroke:#000000;stroke-width:2.0px;stroke-linecap:butt;stroke-linejoin:miter;stroke-opacity:1"/>
<path class="bond-3 atom-3 atom-4" d="M 689.6,662.8 L 600.0,615.9" style="fill:none;fill-rule:evenodd;stroke:#000000;stroke-width:2.0px;stroke-linecap:butt;stroke-linejoin:miter;stroke-opacity:1"/>
<path class="bond-4 atom-4 atom-5" d="M 600.0,615.9 L 514.6,670.1" style="fill:none;fill-rule:evenodd;stroke:#000000;stroke-width:2.0px;stroke-linecap:butt;stroke-linejoin:miter;stroke-opacity:1"/>
<path class="bond-5 atom-5 atom-6" d="M 514.6,670.1 L 425.1,623.2" style="fill:none;fill-rule:evenodd;stroke:#000000;stroke-width:2.0px;stroke-linecap:butt;stroke-linejoin:miter;stroke-opacity:1"/>
<path class="bond-6 atom-6 atom-7" d="M 432.8,627.3 L 431.0,583.6" style="fill:none;fill-rule:evenodd;stroke:#000000;stroke-width:2.0px;stroke-linecap:butt;stroke-linejoin:miter;stroke-opacity:1"/>
<path class="bond-6 atom-6 atom-7" d="M 431.0,583.6 L 429.2,540.0" style="fill:none;fill-rule:evenodd;stroke:#FF0000;stroke-width:2.0px;stroke-linecap:butt;stroke-linejoin:miter;stroke-opacity:1"/>
<path class="bond-6 atom-6 atom-7" d="M 417.7,627.9 L 415.9,584.3" style="fill:none;fill-rule:evenodd;stroke:#000000;stroke-width:2.0px;stroke-linecap:butt;stroke-linejoin:miter;stroke-opacity:1"/>
<path class="bond-6 atom-6 atom-7" d="M 415.9,584.3 L 414.1,540.6" style="fill:none;fill-rule:evenodd;stroke:#FF0000;stroke-width:2.0px;stroke-linecap:butt;stroke-linejoin:miter;stroke-opacity:1"/>
<path class="bond-7 atom-6 atom-8" d="M 425.1,623.2 L 390.6,645.1" style="fill:none;fill-rule:evenodd;stroke:#000000;stroke-width:2.0px;stroke-linecap:butt;stroke-linejoin:miter;stroke-opacity:1"/>
<path class="bond-7 atom-6 atom-8" d="M 390.6,645.1 L 356.0,667.0" style="fill:none;fill-rule:evenodd;stroke:#FF0000;stroke-width:2.0px;stroke-linecap:butt;stroke-linejoin:miter;stroke-opacity:1"/>
<path class="bond-8 atom-8 atom-9" d="M 323.4,668.8 L 288.6,650.6" style="fill:none;fill-rule:evenodd;stroke:#FF0000;stroke-width:2.0px;stroke-linecap:butt;stroke-linejoin:miter;stroke-opacity:1"/>
<path class="bond-8 atom-8 atom-9" d="M 288.6,650.6 L 253.8,632.4" style="fill:none;fill-rule:evenodd;stroke:#191919;stroke-width:2.0px;stroke-linecap:butt;stroke-linejoin:miter;stroke-opacity:1"/>
<path d="M 866.5,654.2 L 864.5,655.5 L 860.0,653.2" style="fill:none;stroke:#000000;stroke-width:2.0px;stroke-linecap:butt;stroke-linejoin:miter;stroke-opacity:1;"/>
<path d="M 779.4,611.0 L 774.9,608.7 L 770.7,611.4" style="fill:none;stroke:#000000;stroke-width:2.0px;stroke-linecap:butt;stroke-linejoin:miter;stroke-opacity:1;"/>
<path d="M 693.8,660.1 L 689.6,662.8 L 685.1,660.5" style="fill:none;stroke:#000000;stroke-width:2.0px;stroke-linecap:butt;stroke-linejoin:miter;stroke-opacity:1;"/>
<path d="M 604.5,618.3 L 600.0,615.9 L 595.7,618.7" style="fill:none;stroke:#000000;stroke-width:2.0px;stroke-linecap:butt;stroke-linejoin:miter;stroke-opacity:1;"/>
<path d="M 518.9,667.4 L 514.6,670.1 L 510.2,667.7" style="fill:none;stroke:#000000;stroke-width:2.0px;stroke-linecap:butt;stroke-linejoin:miter;stroke-opacity:1;"/>
<path d="M 429.5,625.6 L 425.1,623.2 L 423.3,624.3" style="fill:none;stroke:#000000;stroke-width:2.0px;stroke-linecap:butt;stroke-linejoin:miter;stroke-opacity:1;"/>
<path class="atom-0" d="M 944.5 598.3 L 948.7 594.0 L 943.2 592.9 L 944.0 590.1 L 949.1 592.6 L 948.4 587.1 L 951.4 587.0 L 950.5 592.6 L 955.7 590.2 L 956.6 592.9 L 951.0 593.9 L 955.0 598.2 L 952.5 600.0 L 949.8 594.7 L 947.0 600.0 L 944.5 598.3 " fill="#191919"/>
<path class="atom-7" d="M 407.9 522.3 Q 407.9 515.5, 411.2 511.7 Q 414.6 507.9, 420.9 507.9 Q 427.2 507.9, 430.5 511.7 Q 433.9 515.5, 433.9 522.3 Q 433.9 529.2, 430.5 533.1 Q 427.1 537.0, 420.9 537.0 Q 414.6 537.0, 411.2 533.1 Q 407.9 529.2, 407.9 522.3 M 420.9 533.8 Q 425.2 533.8, 427.5 530.9 Q 429.9 528.0, 429.9 522.3 Q 429.9 516.7, 427.5 513.9 Q 425.2 511.1, 420.9 511.1 Q 416.6 511.1, 414.2 513.9 Q 411.9 516.7, 411.9 522.3 Q 411.9 528.0, 414.2 530.9 Q 416.6 533.8, 420.9 533.8 " fill="#FF0000"/>
<path class="atom-8" d="M 326.7 677.4 Q 326.7 670.6, 330.1 666.8 Q 333.4 663.0, 339.7 663.0 Q 346.0 663.0, 349.3 666.8 Q 352.7 670.6, 352.7 677.4 Q 352.7 684.3, 349.3 688.2 Q 345.9 692.1, 339.7 692.1 Q 333.5 692.1, 330.1 688.2 Q 326.7 684.3, 326.7 677.4 M 339.7 688.9 Q 344.0 688.9, 346.3 686.0 Q 348.7 683.1, 348.7 677.4 Q 348.7 671.9, 346.3 669.1 Q 344.0 666.2, 339.7 666.2 Q 335.4 666.2, 333.0 669.0 Q 330.7 671.8, 330.7 677.4 Q 330.7 683.1, 333.0 686.0 Q 335.4 688.9, 339.7 688.9 " fill="#FF0000"/>
<path class="atom-9" d="M 244.8 627.3 L 249.0 623.1 L 243.4 622.0 L 244.3 619.1 L 249.4 621.7 L 248.6 616.1 L 251.6 616.1 L 250.8 621.6 L 256.0 619.2 L 256.8 622.0 L 251.2 623.0 L 255.2 627.3 L 252.8 629.0 L 250.0 623.8 L 247.2 629.0 L 244.8 627.3 " fill="#191919"/>
</svg>