<svg xmlns="http://www.w3.org/2000/svg" xmlns:rdkit="http://www.rdkit.org/xml" xmlns:xlink="http://www.w3.org/1999/xlink" version="1.1" baseProfile="full" xml:space="preserve" width="1200px" height="1200px" viewBox="0 0 1200 1200">
<!-- END OF HEADER -->
<rect style="opacity:1.0;fill:#FFFFFF;stroke:none" width="1200.0" height="1200.0" x="0.0" y="0.0"> </rect>
<path class="bond-0 atom-0 atom-1" d="M 885.0,45.9 L 838.5,126.6" style="fill:none;fill-rule:evenodd;stroke:#191919;stroke-width:2.0px;stroke-linecap:butt;stroke-linejoin:miter;stroke-opacity:1"/>
<path class="bond-0 atom-0 atom-1" d="M 838.5,126.6 L 791.9,207.2" style="fill:none;fill-rule:evenodd;stroke:#000000;stroke-width:2.0px;stroke-linecap:butt;stroke-linejoin:miter;stroke-opacity:1"/>
<path class="bond-1 atom-1 atom-2" d="M 791.9,207.2 L 600.0,207.2" style="fill:none;fill-rule:evenodd;stroke:#000000;stroke-width:2.0px;stroke-linecap:butt;stroke-linejoin:miter;stroke-opacity:1"/>
<path class="bond-2 atom-2 atom-3" d="M 600.0,207.2 L 504.1,373.4" style="fill:none;fill-rule:evenodd;stroke:#000000;stroke-width:2.0px;stroke-linecap:butt;stroke-linejoin:miter;stroke-opacity:1"/>
<path class="bond-3 atom-2 atom-4" d="M 600.0,207.2 L 558.1,134.7" style="fill:none;fill-rule:evenodd;stroke:#000000;stroke-width:2.0px;stroke-linecap:butt;stroke-linejoin:miter;stroke-opacity:1"/>
<path class="bond-3 atom-2 atom-4" d="M 558.1,134.7 L 516.2,62.1" style="fill:none;fill-rule:evenodd;stroke:#FF0000;stroke-width:2.0px;stroke-linecap:butt;stroke-linejoin:miter;stroke-opacity:1"/>
<path class="bond-4 atom-4 atom-5" d="M 484.7,41.0 L 405.0,41.0" style="fill:none;fill-rule:evenodd;stroke:#FF0000;stroke-width:2.0px;stroke-linecap:butt;stroke-linejoin:miter;stroke-opacity:1"/>
<path class="bond-4 atom-4 atom-5" d="M 405.0,41.0 L 325.2,41.0" style="fill:none;fill-rule:evenodd;stroke:#191919;stroke-width:2.0px;stroke-linecap:butt;stroke-linejoin:miter;stroke-opacity:1"/>
<path d="M 794.2,203.2 L 791.9,207.2 L 782.3,207.2" style="fill:none;stroke:#000000;stroke-width:2.0px;stroke-linecap:butt;stroke-linejoin:miter;stroke-opacity:1;"/>
<path class="atom-0" d="M 882.5 37.9 L 886.7 33.6 L 881.1 32.5 L 882.0 29.7 L 887.1 32.2 L 886.3 26.7 L 889.3 26.6 L 888.5 32.2 L 893.7 29.8 L 894.5 32.5 L 888.9 33.5 L 892.9 37.8 L 890.5 39.6 L 887.7 34.3 L 884.9 39.6 L 882.5 37.9 " fill="#191919"/>
<path class="atom-4" d="M 491.1 41.1 Q 491.1 34.3, 494.4 30.5 Q 497.8 26.7, 504.1 26.7 Q 510.3 26.7, 513.7 30.5 Q 517.1 34.3, 517.1 41.1 Q 517.1 48.0, 513.7 51.9 Q 510.3 55.8, 504.1 55.8 Q 497.8 55.8, 494.4 51.9 Q 491.1 48.0, 491.1 41.1 M 504.1 52.6 Q 508.4 52.6, 510.7 49.7 Q 513.1 46.8, 513.1 41.1 Q 513.1 35.5, 510.7 32.7 Q 508.4 29.9, 504.1 29.9 Q 499.7 29.9, 497.4 32.7 Q 495.1 35.5, 495.1 41.1 Q 495.1 46.8, 497.4 49.7 Q 499.7 52.6, 504.1 52.6 " fill="#FF0000"/>
<path class="atom-5" d="M 306.8 37.9 L 311.0 33.6 L 305.5 32.5 L 306.3 29.7 L 311.4 32.2 L 310.7 26.7 L 313.7 26.6 L 312.8 32.2 L 318.0 29.8 L 318.9 32.5 L 313.3 33.5 L 317.3 37.8 L 314.8 39.6 L 312.1 34.3 L 309.3 39.6 L 306.8 37.9 " fill="#191919"/>
<path class="bond-0 atom-0 atom-1" d="M 280.7,647.6 L 357.2,603.4" style="fill:none;fill-rule:evenodd;stroke:#191919;stroke-width:2.0px;stroke-linecap:butt;stroke-linejoin:miter;stroke-opacity:1"/>
<path class="bond-0 atom-0 atom-1" d="M 357.2,603.4 L 433.8,559.2" style="fill:none;fill-rule:evenodd;stroke:#000000;stroke-width:2.0px;stroke-linecap:butt;stroke-linejoin:miter;stroke-opacity:1"/>
<path class="bond-1 atom-1 atom-2" d="M 433.8,559.2 L 600.0,655.1" style="fill:none;fill-rule:evenodd;stroke:#000000;stroke-width:2.0px;stroke-linecap:butt;stroke-linejoin:miter;stroke-opacity:1"/>
<path class="bond-2 atom-2 atom-3" d="M 600.0,655.1 L 673.4,612.7" style="fill:none;fill-rule:evenodd;stroke:#000000;stroke-width:2.0px;stroke-linecap:butt;stroke-linejoin:miter;stroke-opacity:1"/>
<path class="bond-2 atom-2 atom-3" d="M 673.4,612.7 L 746.9,570.3" style="fill:none;fill-rule:evenodd;stroke:#FF0000;stroke-width:2.0px;stroke-linecap:butt;stroke-linejoin:miter;stroke-opacity:1"/>
<path class="bond-3 atom-3 atom-4" d="M 785.5,570.3 L 852.4,609.0" style="fill:none;fill-rule:evenodd;stroke:#FF0000;stroke-width:2.0px;stroke-linecap:butt;stroke-linejoin:miter;stroke-opacity:1"/>
<path class="bond-3 atom-3 atom-4" d="M 852.4,609.0 L 919.3,647.6" style="fill:none;fill-rule:evenodd;stroke:#191919;stroke-width:2.0px;stroke-linecap:butt;stroke-linejoin:miter;stroke-opacity:1"/>
<path d="M 430.0,561.4 L 433.8,559.2 L 442.1,564.0" style="fill:none;stroke:#000000;stroke-width:2.0px;stroke-linecap:butt;stroke-linejoin:miter;stroke-opacity:1;"/>
<path d="M 591.7,650.3 L 600.0,655.1 L 603.7,653.0" style="fill:none;stroke:#000000;stroke-width:2.0px;stroke-linecap:butt;stroke-linejoin:miter;stroke-opacity:1;"/>
<path class="atom-0" d="M 262.3 652.0 L 266.5 647.7 L 260.9 646.6 L 261.8 643.8 L 266.9 646.3 L 266.1 640.8 L 269.1 640.7 L 268.3 646.3 L 273.5 643.9 L 274.3 646.6 L 268.7 647.7 L 272.7 651.9 L 270.3 653.7 L 267.5 648.4 L 264.7 653.7 L 262.3 652.0 " fill="#191919"/>
<path class="atom-3" d="M 753.2 559.3 Q 753.2 552.5, 756.5 548.7 Q 759.9 544.9, 766.2 544.9 Q 772.5 544.9, 775.8 548.7 Q 779.2 552.5, 779.2 559.3 Q 779.2 566.1, 775.8 570.1 Q 772.4 573.9, 766.2 573.9 Q 759.9 573.9, 756.5 570.1 Q 753.2 566.2, 753.2 559.3 M 766.2 570.7 Q 770.5 570.7, 772.8 567.9 Q 775.2 564.9, 775.2 559.3 Q 775.2 553.7, 772.8 550.9 Q 770.5 548.1, 766.2 548.1 Q 761.9 548.1, 759.5 550.9 Q 757.2 553.7, 757.2 559.3 Q 757.2 565.0, 759.5 567.9 Q 761.9 570.7, 766.2 570.7 " fill="#FF0000"/>
<path class="atom-4" d="M 927.0 652.0 L 931.2 647.7 L 925.7 646.6 L 926.5 643.8 L 931.6 646.3 L 930.9 640.8 L 933.9 640.7 L 933.0 646.3 L 938.2 643.9 L 939.1 646.6 L 933.5 647.7 L 937.5 651.9 L 935.0 653.7 L 932.3 648.4 L 929.5 653.7 L 927.0 652.0 " fill="#191919"/>
<path class="bond-0 atom-0 atom-1" d="M 500.7,999.8 L 580.4,999.8" style="fill:none;fill-rule:evenodd;stroke:#191919;stroke-width:2.0px;stroke-linecap:butt;stroke-linejoin:miter;stroke-opacity:1"/>
<path class="bond-0 atom-0 atom-1" d="M 580.4,999.8 L 660.2,999.8" style="fill:none;fill-rule:evenodd;stroke:#FF0000;stroke-width:2.0px;stroke-linecap:butt;stroke-linejoin:miter;stroke-opacity:1"/>
<path class="atom-0" d="M 482.3 996.7 L 486.4 992.4 L 480.9 991.3 L 481.8 988.5 L 486.8 991.0 L 486.1 985.5 L 489.1 985.4 L 488.3 991.0 L 493.4 988.6 L 494.3 991.3 L 488.7 992.3 L 492.7 996.6 L 490.3 998.4 L 487.5 993.1 L 484.7 998.4 L 482.3 996.7 " fill="#191919"/>
<path class="atom-1" d="M 666.5 999.9 Q 666.5 993.1, 669.9 989.3 Q 673.2 985.5, 679.5 985.5 Q 685.8 985.5, 689.2 989.3 Q 692.5 993.1, 692.5 999.9 Q 692.5 1006.8, 689.1 1010.7 Q 685.7 1014.6, 679.5 1014.6 Q 673.3 1014.6, 669.9 1010.7 Q 666.5 1006.8, 666.5 999.9 M 679.5 1011.4 Q 683.8 1011.4, 686.2 1008.5 Q 688.5 1005.6, 688.5 999.9 Q 688.5 994.3, 686.2 991.5 Q 683.8 988.7, 679.5 988.7 Q 675.2 988.7, 672.8 991.5 Q 670.5 994.3, 670.5 999.9 Q 670.5 1005.6, 672.8 1008.5 Q 675.2 1011.4, 679.5 1011.4 " fill="#FF0000"/>
<path class="atom-1" d="M 696.9 985.8 L 700.8 985.8 L 700.8 997.9 L 715.2 997.9 L 715.2 985.8 L 719.1 985.8 L 719.1 1014.1 L 715.2 1014.1 L 715.2 1001.1 L 700.8 1001.1 L 700.8 1014.1 L 696.9 1014.1 L 696.9 985.8 " fill="#FF0000"/>
</svg>