<svg xmlns="http://www.w3.org/2000/svg" xmlns:rdkit="http://www.rdkit.org/xml" xmlns:xlink="http://www.w3.org/1999/xlink" version="1.1" baseProfile="full" xml:space="preserve" width="1200px" height="800px" viewBox="0 0 1200 800">
<!-- END OF HEADER -->
<rect style="opacity:1.0;fill:#FFFFFF;stroke:none" width="1200.0" height="800.0" x="0.0" y="0.0"> </rect>
<path class="bond-0 atom-0 atom-1" d="M 310.7,84.8 L 359.1,92.3" style="fill:none;fill-rule:evenodd;stroke:#191919;stroke-width:2.0px;stroke-linecap:butt;stroke-linejoin:miter;stroke-opacity:1"/>
<path class="bond-0 atom-0 atom-1" d="M 359.1,92.3 L 407.4,99.9" style="fill:none;fill-rule:evenodd;stroke:#0000FF;stroke-width:2.0px;stroke-linecap:butt;stroke-linejoin:miter;stroke-opacity:1"/>
<path class="bond-1 atom-1 atom-2" d="M 429.3,120.5 L 448.1,169.1" style="fill:none;fill-rule:evenodd;stroke:#0000FF;stroke-width:2.0px;stroke-linecap:butt;stroke-linejoin:miter;stroke-opacity:1"/>
<path class="bond-1 atom-1 atom-2" d="M 448.1,169.1 L 466.9,217.8" style="fill:none;fill-rule:evenodd;stroke:#000000;stroke-width:2.0px;stroke-linecap:butt;stroke-linejoin:miter;stroke-opacity:1"/>
<path class="bond-2 atom-2 atom-3" d="M 463.0,207.8 L 429.9,248.9" style="fill:none;fill-rule:evenodd;stroke:#000000;stroke-width:2.0px;stroke-linecap:butt;stroke-linejoin:miter;stroke-opacity:1"/>
<path class="bond-2 atom-2 atom-3" d="M 429.9,248.9 L 396.7,290.0" style="fill:none;fill-rule:evenodd;stroke:#FF0000;stroke-width:2.0px;stroke-linecap:butt;stroke-linejoin:miter;stroke-opacity:1"/>
<path class="bond-2 atom-2 atom-3" d="M 477.5,219.5 L 444.3,260.6" style="fill:none;fill-rule:evenodd;stroke:#000000;stroke-width:2.0px;stroke-linecap:butt;stroke-linejoin:miter;stroke-opacity:1"/>
<path class="bond-2 atom-2 atom-3" d="M 444.3,260.6 L 411.2,301.6" style="fill:none;fill-rule:evenodd;stroke:#FF0000;stroke-width:2.0px;stroke-linecap:butt;stroke-linejoin:miter;stroke-opacity:1"/>
<path class="bond-3 atom-2 atom-4" d="M 466.9,217.8 L 589.3,236.9" style="fill:none;fill-rule:evenodd;stroke:#000000;stroke-width:2.0px;stroke-linecap:butt;stroke-linejoin:miter;stroke-opacity:1"/>
<path class="bond-4 atom-4 atom-5" d="M 589.3,236.9 L 608.0,285.5" style="fill:none;fill-rule:evenodd;stroke:#000000;stroke-width:2.0px;stroke-linecap:butt;stroke-linejoin:miter;stroke-opacity:1"/>
<path class="bond-4 atom-4 atom-5" d="M 608.0,285.5 L 626.8,334.0" style="fill:none;fill-rule:evenodd;stroke:#191919;stroke-width:2.0px;stroke-linecap:butt;stroke-linejoin:miter;stroke-opacity:1"/>
<path class="bond-5 atom-4 atom-6" d="M 589.3,236.9 L 667.1,140.5" style="fill:none;fill-rule:evenodd;stroke:#000000;stroke-width:2.0px;stroke-linecap:butt;stroke-linejoin:miter;stroke-opacity:1"/>
<path class="bond-6 atom-6 atom-7" d="M 667.1,140.5 L 789.5,159.7" style="fill:none;fill-rule:evenodd;stroke:#000000;stroke-width:2.0px;stroke-linecap:butt;stroke-linejoin:miter;stroke-opacity:1"/>
<path class="bond-7 atom-7 atom-8" d="M 778.9,158.0 L 798.6,209.1" style="fill:none;fill-rule:evenodd;stroke:#000000;stroke-width:2.0px;stroke-linecap:butt;stroke-linejoin:miter;stroke-opacity:1"/>
<path class="bond-7 atom-7 atom-8" d="M 798.6,209.1 L 818.3,260.2" style="fill:none;fill-rule:evenodd;stroke:#FF0000;stroke-width:2.0px;stroke-linecap:butt;stroke-linejoin:miter;stroke-opacity:1"/>
<path class="bond-7 atom-7 atom-8" d="M 796.2,151.3 L 815.9,202.4" style="fill:none;fill-rule:evenodd;stroke:#000000;stroke-width:2.0px;stroke-linecap:butt;stroke-linejoin:miter;stroke-opacity:1"/>
<path class="bond-7 atom-7 atom-8" d="M 815.9,202.4 L 835.7,253.5" style="fill:none;fill-rule:evenodd;stroke:#FF0000;stroke-width:2.0px;stroke-linecap:butt;stroke-linejoin:miter;stroke-opacity:1"/>
<path class="bond-8 atom-7 atom-9" d="M 789.5,159.7 L 820.8,120.9" style="fill:none;fill-rule:evenodd;stroke:#000000;stroke-width:2.0px;stroke-linecap:butt;stroke-linejoin:miter;stroke-opacity:1"/>
<path class="bond-8 atom-7 atom-9" d="M 820.8,120.9 L 852.1,82.1" style="fill:none;fill-rule:evenodd;stroke:#FF0000;stroke-width:2.0px;stroke-linecap:butt;stroke-linejoin:miter;stroke-opacity:1"/>
<path d="M 466.0,215.4 L 466.9,217.8 L 473.0,218.8" style="fill:none;stroke:#000000;stroke-width:2.0px;stroke-linecap:butt;stroke-linejoin:miter;stroke-opacity:1;"/>
<path d="M 663.2,145.3 L 667.1,140.5 L 673.2,141.5" style="fill:none;stroke:#000000;stroke-width:2.0px;stroke-linecap:butt;stroke-linejoin:miter;stroke-opacity:1;"/>
<path d="M 783.4,158.7 L 789.5,159.7 L 791.0,157.7" style="fill:none;stroke:#000000;stroke-width:2.0px;stroke-linecap:butt;stroke-linejoin:miter;stroke-opacity:1;"/>
<path class="atom-0" d="M 294.5 79.9 L 298.7 75.7 L 293.2 74.5 L 294.0 71.7 L 299.1 74.3 L 298.4 68.7 L 301.4 68.7 L 300.5 74.2 L 305.7 71.8 L 306.6 74.5 L 301.0 75.6 L 305.0 79.9 L 302.5 81.6 L 299.8 76.3 L 297.0 81.6 L 294.5 79.9 " fill="#191919"/>
<path class="atom-1" d="M 416.0 88.1 L 425.3 103.1 Q 426.2 104.5, 427.7 107.2 Q 429.2 109.9, 429.3 110.1 L 429.3 88.1 L 433.0 88.1 L 433.0 116.4 L 429.1 116.4 L 419.2 100.0 Q 418.0 98.1, 416.8 95.9 Q 415.6 93.7, 415.2 93.0 L 415.2 116.4 L 411.5 116.4 L 411.5 88.1 L 416.0 88.1 " fill="#0000FF"/>
<path class="atom-1" d="M 438.5 88.1 L 442.4 88.1 L 442.4 100.1 L 456.8 100.1 L 456.8 88.1 L 460.7 88.1 L 460.7 116.4 L 456.8 116.4 L 456.8 103.3 L 442.4 103.3 L 442.4 116.4 L 438.5 116.4 L 438.5 88.1 " fill="#0000FF"/>
<path class="atom-3" d="M 376.1 314.3 Q 376.1 307.5, 379.5 303.7 Q 382.8 299.9, 389.1 299.9 Q 395.4 299.9, 398.7 303.7 Q 402.1 307.5, 402.1 314.3 Q 402.1 321.2, 398.7 325.1 Q 395.3 329.0, 389.1 329.0 Q 382.9 329.0, 379.5 325.1 Q 376.1 321.2, 376.1 314.3 M 389.1 325.8 Q 393.4 325.8, 395.7 322.9 Q 398.1 320.0, 398.1 314.3 Q 398.1 308.7, 395.7 305.9 Q 393.4 303.1, 389.1 303.1 Q 384.8 303.1, 382.4 305.9 Q 380.1 308.7, 380.1 314.3 Q 380.1 320.0, 382.4 322.9 Q 384.8 325.8, 389.1 325.8 " fill="#FF0000"/>
<path class="atom-5" d="M 628.6 349.4 L 632.7 345.1 L 627.2 344.0 L 628.0 341.2 L 633.1 343.7 L 632.4 338.2 L 635.4 338.1 L 634.6 343.7 L 639.7 341.3 L 640.6 344.0 L 635.0 345.0 L 639.0 349.3 L 636.6 351.1 L 633.8 345.8 L 631.0 351.1 L 628.6 349.4 " fill="#191919"/>
<path class="atom-8" d="M 821.1 275.3 Q 821.1 268.5, 824.5 264.7 Q 827.8 260.9, 834.1 260.9 Q 840.4 260.9, 843.7 264.7 Q 847.1 268.5, 847.1 275.3 Q 847.1 282.2, 843.7 286.1 Q 840.3 290.0, 834.1 290.0 Q 827.9 290.0, 824.5 286.1 Q 821.1 282.2, 821.1 275.3 M 834.1 286.8 Q 838.4 286.8, 840.7 283.9 Q 843.1 281.0, 843.1 275.3 Q 843.1 269.8, 840.7 267.0 Q 838.4 264.1, 834.1 264.1 Q 829.8 264.1, 827.4 266.9 Q 825.1 269.7, 825.1 275.3 Q 825.1 281.0, 827.4 283.9 Q 829.8 286.8, 834.1 286.8 " fill="#FF0000"/>
<path class="atom-9" d="M 854.3 63.3 Q 854.3 56.5, 857.6 52.7 Q 861.0 48.9, 867.3 48.9 Q 873.5 48.9, 876.9 52.7 Q 880.3 56.5, 880.3 63.3 Q 880.3 70.2, 876.9 74.1 Q 873.5 78.0, 867.3 78.0 Q 861.0 78.0, 857.6 74.1 Q 854.3 70.2, 854.3 63.3 M 867.3 74.8 Q 871.6 74.8, 873.9 71.9 Q 876.3 69.0, 876.3 63.3 Q 876.3 57.8, 873.9 55.0 Q 871.6 52.1, 867.3 52.1 Q 862.9 52.1, 860.6 54.9 Q 858.3 57.7, 858.3 63.3 Q 858.3 69.0, 860.6 71.9 Q 862.9 74.8, 867.3 74.8 " fill="#FF0000"/>
<path class="atom-9" d="M 884.7 49.2 L 888.5 49.2 L 888.5 61.3 L 903.0 61.3 L 903.0 49.2 L 906.8 49.2 L 906.8 77.6 L 903.0 77.6 L 903.0 64.5 L 888.5 64.5 L 888.5 77.6 L 884.7 77.6 L 884.7 49.2 " fill="#FF0000"/>
<path class="bond-0 atom-0 atom-1" d="M 1024.7,551.1 L 974.0,582.0" style="fill:none;fill-rule:evenodd;stroke:#191919;stroke-width:2.0px;stroke-linecap:butt;stroke-linejoin:miter;stroke-opacity:1"/>
<path class="bond-0 atom-0 atom-1" d="M 974.0,582.0 L 923.2,612.9" style="fill:none;fill-rule:evenodd;stroke:#000000;stroke-width:2.0px;stroke-linecap:butt;stroke-linejoin:miter;stroke-opacity:1"/>
<path class="bond-1 atom-1 atom-2" d="M 923.2,612.9 L 814.5,553.4" style="fill:none;fill-rule:evenodd;stroke:#000000;stroke-width:2.0px;stroke-linecap:butt;stroke-linejoin:miter;stroke-opacity:1"/>
<path class="bond-2 atom-2 atom-3" d="M 814.5,553.4 L 708.7,617.8" style="fill:none;fill-rule:evenodd;stroke:#000000;stroke-width:2.0px;stroke-linecap:butt;stroke-linejoin:miter;stroke-opacity:1"/>
<path class="bond-3 atom-3 atom-4" d="M 708.7,617.8 L 600.0,558.3" style="fill:none;fill-rule:evenodd;stroke:#000000;stroke-width:2.0px;stroke-linecap:butt;stroke-linejoin:miter;stroke-opacity:1"/>
<path class="bond-4 atom-4 atom-5" d="M 600.0,558.3 L 494.2,622.7" style="fill:none;fill-rule:evenodd;stroke:#000000;stroke-width:2.0px;stroke-linecap:butt;stroke-linejoin:miter;stroke-opacity:1"/>
<path class="bond-5 atom-5 atom-6" d="M 494.2,622.7 L 495.4,675.5" style="fill:none;fill-rule:evenodd;stroke:#000000;stroke-width:2.0px;stroke-linecap:butt;stroke-linejoin:miter;stroke-opacity:1"/>
<path class="bond-5 atom-5 atom-6" d="M 495.4,675.5 L 496.6,728.3" style="fill:none;fill-rule:evenodd;stroke:#0000FF;stroke-width:2.0px;stroke-linecap:butt;stroke-linejoin:miter;stroke-opacity:1"/>
<path class="bond-6 atom-5 atom-7" d="M 494.2,622.7 L 385.5,563.3" style="fill:none;fill-rule:evenodd;stroke:#000000;stroke-width:2.0px;stroke-linecap:butt;stroke-linejoin:miter;stroke-opacity:1"/>
<path class="bond-7 atom-7 atom-8" d="M 394.9,568.4 L 393.6,513.2" style="fill:none;fill-rule:evenodd;stroke:#000000;stroke-width:2.0px;stroke-linecap:butt;stroke-linejoin:miter;stroke-opacity:1"/>
<path class="bond-7 atom-7 atom-8" d="M 393.6,513.2 L 392.3,458.0" style="fill:none;fill-rule:evenodd;stroke:#FF0000;stroke-width:2.0px;stroke-linecap:butt;stroke-linejoin:miter;stroke-opacity:1"/>
<path class="bond-7 atom-7 atom-8" d="M 376.3,568.8 L 375.0,513.7" style="fill:none;fill-rule:evenodd;stroke:#000000;stroke-width:2.0px;stroke-linecap:butt;stroke-linejoin:miter;stroke-opacity:1"/>
<path class="bond-7 atom-7 atom-8" d="M 375.0,513.7 L 373.8,458.5" style="fill:none;fill-rule:evenodd;stroke:#FF0000;stroke-width:2.0px;stroke-linecap:butt;stroke-linejoin:miter;stroke-opacity:1"/>
<path class="bond-8 atom-7 atom-9" d="M 385.5,563.3 L 340.0,591.0" style="fill:none;fill-rule:evenodd;stroke:#000000;stroke-width:2.0px;stroke-linecap:butt;stroke-linejoin:miter;stroke-opacity:1"/>
<path class="bond-8 atom-7 atom-9" d="M 340.0,591.0 L 294.5,618.6" style="fill:none;fill-rule:evenodd;stroke:#0000FF;stroke-width:2.0px;stroke-linecap:butt;stroke-linejoin:miter;stroke-opacity:1"/>
<path class="bond-9 atom-9 atom-10" d="M 264.8,619.6 L 220.3,595.2" style="fill:none;fill-rule:evenodd;stroke:#0000FF;stroke-width:2.0px;stroke-linecap:butt;stroke-linejoin:miter;stroke-opacity:1"/>
<path class="bond-9 atom-9 atom-10" d="M 220.3,595.2 L 175.8,570.9" style="fill:none;fill-rule:evenodd;stroke:#191919;stroke-width:2.0px;stroke-linecap:butt;stroke-linejoin:miter;stroke-opacity:1"/>
<path d="M 925.8,611.3 L 923.2,612.9 L 917.8,609.9" style="fill:none;stroke:#000000;stroke-width:2.0px;stroke-linecap:butt;stroke-linejoin:miter;stroke-opacity:1;"/>
<path d="M 820.0,556.4 L 814.5,553.4 L 809.2,556.6" style="fill:none;stroke:#000000;stroke-width:2.0px;stroke-linecap:butt;stroke-linejoin:miter;stroke-opacity:1;"/>
<path d="M 714.0,614.6 L 708.7,617.8 L 703.3,614.8" style="fill:none;stroke:#000000;stroke-width:2.0px;stroke-linecap:butt;stroke-linejoin:miter;stroke-opacity:1;"/>
<path d="M 605.4,561.3 L 600.0,558.3 L 594.7,561.6" style="fill:none;stroke:#000000;stroke-width:2.0px;stroke-linecap:butt;stroke-linejoin:miter;stroke-opacity:1;"/>
<path d="M 390.9,566.2 L 385.5,563.3 L 383.2,564.7" style="fill:none;stroke:#000000;stroke-width:2.0px;stroke-linecap:butt;stroke-linejoin:miter;stroke-opacity:1;"/>
<path class="atom-0" d="M 1023.7 545.3 L 1027.9 541.1 L 1022.4 539.9 L 1023.2 537.1 L 1028.3 539.7 L 1027.6 534.1 L 1030.6 534.1 L 1029.7 539.6 L 1034.9 537.2 L 1035.8 539.9 L 1030.2 541.0 L 1034.2 545.3 L 1031.7 547.0 L 1029.0 541.7 L 1026.2 547.0 L 1023.7 545.3 " fill="#191919"/>
<path class="atom-6" d="M 490.8 732.4 L 500.0 747.4 Q 501.0 748.9, 502.4 751.6 Q 503.9 754.3, 504.0 754.4 L 504.0 732.4 L 507.8 732.4 L 507.8 760.7 L 503.9 760.7 L 493.9 744.3 Q 492.8 742.4, 491.5 740.2 Q 490.3 738.0, 490.0 737.3 L 490.0 760.7 L 486.3 760.7 L 486.3 732.4 L 490.8 732.4 " fill="#0000FF"/>
<path class="atom-6" d="M 513.2 732.4 L 517.0 732.4 L 517.0 744.5 L 531.5 744.5 L 531.5 732.4 L 535.3 732.4 L 535.3 760.7 L 531.5 760.7 L 531.5 747.7 L 517.0 747.7 L 517.0 760.7 L 513.2 760.7 L 513.2 732.4 " fill="#0000FF"/>
<path class="atom-6" d="M 540.9 759.8 Q 541.6 758.0, 543.2 757.0 Q 544.8 756.0, 547.1 756.0 Q 549.9 756.0, 551.5 757.5 Q 553.1 759.1, 553.1 761.8 Q 553.1 764.6, 551.0 767.1 Q 549.0 769.7, 544.8 772.8 L 553.4 772.8 L 553.4 774.9 L 540.8 774.9 L 540.8 773.1 Q 544.3 770.7, 546.4 768.8 Q 548.4 767.0, 549.4 765.3 Q 550.4 763.6, 550.4 761.9 Q 550.4 760.1, 549.6 759.1 Q 548.7 758.1, 547.1 758.1 Q 545.6 758.1, 544.6 758.7 Q 543.6 759.3, 542.9 760.7 L 540.9 759.8 " fill="#0000FF"/>
<path class="atom-8" d="M 369.6 439.5 Q 369.6 432.7, 373.0 428.9 Q 376.3 425.1, 382.6 425.1 Q 388.9 425.1, 392.3 428.9 Q 395.6 432.7, 395.6 439.5 Q 395.6 446.4, 392.2 450.3 Q 388.8 454.2, 382.6 454.2 Q 376.4 454.2, 373.0 450.3 Q 369.6 446.4, 369.6 439.5 M 382.6 451.0 Q 386.9 451.0, 389.3 448.1 Q 391.6 445.2, 391.6 439.5 Q 391.6 433.9, 389.3 431.1 Q 386.9 428.3, 382.6 428.3 Q 378.3 428.3, 375.9 431.1 Q 373.6 433.9, 373.6 439.5 Q 373.6 445.2, 375.9 448.1 Q 378.3 451.0, 382.6 451.0 " fill="#FF0000"/>
<path class="atom-9" d="M 273.4 613.5 L 282.7 628.5 Q 283.6 630.0, 285.1 632.7 Q 286.5 635.3, 286.6 635.5 L 286.6 613.5 L 290.4 613.5 L 290.4 641.8 L 286.5 641.8 L 276.5 625.4 Q 275.4 623.5, 274.1 621.3 Q 272.9 619.1, 272.6 618.4 L 272.6 641.8 L 268.9 641.8 L 268.9 613.5 L 273.4 613.5 " fill="#0000FF"/>
<path class="atom-9" d="M 268.6 644.7 L 272.4 644.7 L 272.4 656.7 L 286.9 656.7 L 286.9 644.7 L 290.7 644.7 L 290.7 673.0 L 286.9 673.0 L 286.9 659.9 L 272.4 659.9 L 272.4 673.0 L 268.6 673.0 L 268.6 644.7 " fill="#0000FF"/>
<path class="atom-10" d="M 165.6 565.0 L 169.8 560.8 L 164.2 559.7 L 165.1 556.8 L 170.2 559.4 L 169.4 553.8 L 172.4 553.8 L 171.6 559.4 L 176.8 557.0 L 177.6 559.7 L 172.0 560.7 L 176.0 565.0 L 173.6 566.8 L 170.8 561.5 L 168.0 566.8 L 165.6 565.0 " fill="#191919"/>
</svg>