<svg xmlns="http://www.w3.org/2000/svg" xmlns:rdkit="http://www.rdkit.org/xml" xmlns:xlink="http://www.w3.org/1999/xlink" version="1.1" baseProfile="full" xml:space="preserve" width="1200px" height="800px" viewBox="0 0 1200 800">
<!-- END OF HEADER -->
<rect style="opacity:1.0;fill:#FFFFFF;stroke:none" width="1200.0" height="800.0" x="0.0" y="0.0"> </rect>
<path class="bond-0 atom-0 atom-1" d="M 1077.7,95.6 L 1095.0,124.5" style="fill:none;fill-rule:evenodd;stroke:#191919;stroke-width:2.0px;stroke-linecap:butt;stroke-linejoin:miter;stroke-opacity:1"/>
<path class="bond-0 atom-0 atom-1" d="M 1095.0,124.5 L 1112.2,153.3" style="fill:none;fill-rule:evenodd;stroke:#000000;stroke-width:2.0px;stroke-linecap:butt;stroke-linejoin:miter;stroke-opacity:1"/>
<path class="bond-1 atom-1 atom-2" d="M 1112.2,153.3 L 1078.8,213.4" style="fill:none;fill-rule:evenodd;stroke:#000000;stroke-width:2.0px;stroke-linecap:butt;stroke-linejoin:miter;stroke-opacity:1"/>
<path class="bond-2 atom-2 atom-3" d="M 1078.8,213.4 L 1045.4,273.5" style="fill:none;fill-rule:evenodd;stroke:#000000;stroke-width:2.0px;stroke-linecap:butt;stroke-linejoin:miter;stroke-opacity:1"/>
<path class="bond-3 atom-3 atom-4" d="M 1045.4,273.5 L 976.7,274.6" style="fill:none;fill-rule:evenodd;stroke:#000000;stroke-width:2.0px;stroke-linecap:butt;stroke-linejoin:miter;stroke-opacity:1"/>
<path class="bond-4 atom-2 atom-5" d="M 1078.8,213.4 L 1138.9,246.8" style="fill:none;fill-rule:evenodd;stroke:#000000;stroke-width:2.0px;stroke-linecap:butt;stroke-linejoin:miter;stroke-opacity:1"/>
<path class="bond-5 atom-5 atom-6" d="M 1138.9,246.8 L 1140.0,315.5" style="fill:none;fill-rule:evenodd;stroke:#000000;stroke-width:2.0px;stroke-linecap:butt;stroke-linejoin:miter;stroke-opacity:1"/>
<path class="bond-6 atom-2 atom-7" d="M 1078.8,213.4 L 1018.8,180.0" style="fill:none;fill-rule:evenodd;stroke:#000000;stroke-width:2.0px;stroke-linecap:butt;stroke-linejoin:miter;stroke-opacity:1"/>
<path class="bond-7 atom-7 atom-8" d="M 1024.0,182.9 L 1023.5,153.2" style="fill:none;fill-rule:evenodd;stroke:#000000;stroke-width:2.0px;stroke-linecap:butt;stroke-linejoin:miter;stroke-opacity:1"/>
<path class="bond-7 atom-7 atom-8" d="M 1023.5,153.2 L 1023.0,123.6" style="fill:none;fill-rule:evenodd;stroke:#FF0000;stroke-width:2.0px;stroke-linecap:butt;stroke-linejoin:miter;stroke-opacity:1"/>
<path class="bond-7 atom-7 atom-8" d="M 1013.6,183.1 L 1013.2,153.4" style="fill:none;fill-rule:evenodd;stroke:#000000;stroke-width:2.0px;stroke-linecap:butt;stroke-linejoin:miter;stroke-opacity:1"/>
<path class="bond-7 atom-7 atom-8" d="M 1013.2,153.4 L 1012.7,123.8" style="fill:none;fill-rule:evenodd;stroke:#FF0000;stroke-width:2.0px;stroke-linecap:butt;stroke-linejoin:miter;stroke-opacity:1"/>
<path class="bond-8 atom-7 atom-9" d="M 1018.8,180.0 L 994.1,194.8" style="fill:none;fill-rule:evenodd;stroke:#000000;stroke-width:2.0px;stroke-linecap:butt;stroke-linejoin:miter;stroke-opacity:1"/>
<path class="bond-8 atom-7 atom-9" d="M 994.1,194.8 L 969.4,209.5" style="fill:none;fill-rule:evenodd;stroke:#0000FF;stroke-width:2.0px;stroke-linecap:butt;stroke-linejoin:miter;stroke-opacity:1"/>
<path class="bond-9 atom-9 atom-10" d="M 950.1,209.9 L 924.9,195.9" style="fill:none;fill-rule:evenodd;stroke:#0000FF;stroke-width:2.0px;stroke-linecap:butt;stroke-linejoin:miter;stroke-opacity:1"/>
<path class="bond-9 atom-9 atom-10" d="M 924.9,195.9 L 899.7,181.9" style="fill:none;fill-rule:evenodd;stroke:#000000;stroke-width:2.0px;stroke-linecap:butt;stroke-linejoin:miter;stroke-opacity:1"/>
<path class="bond-10 atom-10 atom-11" d="M 899.7,181.9 L 840.7,217.2" style="fill:none;fill-rule:evenodd;stroke:#000000;stroke-width:2.0px;stroke-linecap:butt;stroke-linejoin:miter;stroke-opacity:1"/>
<path class="bond-11 atom-11 atom-12" d="M 840.7,217.2 L 780.7,183.8" style="fill:none;fill-rule:evenodd;stroke:#000000;stroke-width:2.0px;stroke-linecap:butt;stroke-linejoin:miter;stroke-opacity:1"/>
<path class="bond-12 atom-12 atom-13" d="M 780.7,183.8 L 721.7,219.1" style="fill:none;fill-rule:evenodd;stroke:#000000;stroke-width:2.0px;stroke-linecap:butt;stroke-linejoin:miter;stroke-opacity:1"/>
<path class="bond-13 atom-13 atom-14" d="M 721.7,219.1 L 661.6,185.7" style="fill:none;fill-rule:evenodd;stroke:#000000;stroke-width:2.0px;stroke-linecap:butt;stroke-linejoin:miter;stroke-opacity:1"/>
<path class="bond-14 atom-14 atom-15" d="M 661.6,185.7 L 602.7,221.1" style="fill:none;fill-rule:evenodd;stroke:#000000;stroke-width:2.0px;stroke-linecap:butt;stroke-linejoin:miter;stroke-opacity:1"/>
<path class="bond-15 atom-15 atom-16" d="M 602.7,221.1 L 542.6,187.7" style="fill:none;fill-rule:evenodd;stroke:#000000;stroke-width:2.0px;stroke-linecap:butt;stroke-linejoin:miter;stroke-opacity:1"/>
<path class="bond-16 atom-16 atom-17" d="M 542.6,187.7 L 483.6,223.0" style="fill:none;fill-rule:evenodd;stroke:#000000;stroke-width:2.0px;stroke-linecap:butt;stroke-linejoin:miter;stroke-opacity:1"/>
<path class="bond-17 atom-17 atom-18" d="M 483.6,223.0 L 423.6,189.6" style="fill:none;fill-rule:evenodd;stroke:#000000;stroke-width:2.0px;stroke-linecap:butt;stroke-linejoin:miter;stroke-opacity:1"/>
<path class="bond-18 atom-18 atom-19" d="M 423.6,189.6 L 364.6,224.9" style="fill:none;fill-rule:evenodd;stroke:#000000;stroke-width:2.0px;stroke-linecap:butt;stroke-linejoin:miter;stroke-opacity:1"/>
<path class="bond-19 atom-19 atom-20" d="M 364.6,224.9 L 304.5,191.5" style="fill:none;fill-rule:evenodd;stroke:#000000;stroke-width:2.0px;stroke-linecap:butt;stroke-linejoin:miter;stroke-opacity:1"/>
<path class="bond-20 atom-20 atom-21" d="M 304.5,191.5 L 245.5,226.8" style="fill:none;fill-rule:evenodd;stroke:#000000;stroke-width:2.0px;stroke-linecap:butt;stroke-linejoin:miter;stroke-opacity:1"/>
<path class="bond-21 atom-21 atom-22" d="M 245.5,226.8 L 220.3,212.8" style="fill:none;fill-rule:evenodd;stroke:#000000;stroke-width:2.0px;stroke-linecap:butt;stroke-linejoin:miter;stroke-opacity:1"/>
<path class="bond-21 atom-21 atom-22" d="M 220.3,212.8 L 195.1,198.8" style="fill:none;fill-rule:evenodd;stroke:#0000FF;stroke-width:2.0px;stroke-linecap:butt;stroke-linejoin:miter;stroke-opacity:1"/>
<path class="bond-22 atom-22 atom-23" d="M 175.8,199.2 L 151.2,213.9" style="fill:none;fill-rule:evenodd;stroke:#0000FF;stroke-width:2.0px;stroke-linecap:butt;stroke-linejoin:miter;stroke-opacity:1"/>
<path class="bond-22 atom-22 atom-23" d="M 151.2,213.9 L 126.5,228.7" style="fill:none;fill-rule:evenodd;stroke:#000000;stroke-width:2.0px;stroke-linecap:butt;stroke-linejoin:miter;stroke-opacity:1"/>
<path class="bond-23 atom-23 atom-24" d="M 126.5,228.7 L 102.1,215.1" style="fill:none;fill-rule:evenodd;stroke:#000000;stroke-width:2.0px;stroke-linecap:butt;stroke-linejoin:miter;stroke-opacity:1"/>
<path class="bond-23 atom-23 atom-24" d="M 102.1,215.1 L 77.6,201.5" style="fill:none;fill-rule:evenodd;stroke:#FF0000;stroke-width:2.0px;stroke-linecap:butt;stroke-linejoin:miter;stroke-opacity:1"/>
<path class="bond-23 atom-23 atom-24" d="M 126.3,216.8 L 107.1,206.1" style="fill:none;fill-rule:evenodd;stroke:#000000;stroke-width:2.0px;stroke-linecap:butt;stroke-linejoin:miter;stroke-opacity:1"/>
<path class="bond-23 atom-23 atom-24" d="M 107.1,206.1 L 82.6,192.5" style="fill:none;fill-rule:evenodd;stroke:#FF0000;stroke-width:2.0px;stroke-linecap:butt;stroke-linejoin:miter;stroke-opacity:1"/>
<path d="M 1111.4,151.9 L 1112.2,153.3 L 1110.6,156.3" style="fill:none;stroke:#000000;stroke-width:2.0px;stroke-linecap:butt;stroke-linejoin:miter;stroke-opacity:1;"/>
<path d="M 1047.1,270.5 L 1045.4,273.5 L 1042.0,273.5" style="fill:none;stroke:#000000;stroke-width:2.0px;stroke-linecap:butt;stroke-linejoin:miter;stroke-opacity:1;"/>
<path d="M 1135.9,245.1 L 1138.9,246.8 L 1139.0,250.2" style="fill:none;stroke:#000000;stroke-width:2.0px;stroke-linecap:butt;stroke-linejoin:miter;stroke-opacity:1;"/>
<path d="M 1021.8,181.7 L 1018.8,180.0 L 1017.5,180.7" style="fill:none;stroke:#000000;stroke-width:2.0px;stroke-linecap:butt;stroke-linejoin:miter;stroke-opacity:1;"/>
<path d="M 901.0,182.6 L 899.7,181.9 L 896.8,183.7" style="fill:none;stroke:#000000;stroke-width:2.0px;stroke-linecap:butt;stroke-linejoin:miter;stroke-opacity:1;"/>
<path d="M 843.7,215.5 L 840.7,217.2 L 837.7,215.6" style="fill:none;stroke:#000000;stroke-width:2.0px;stroke-linecap:butt;stroke-linejoin:miter;stroke-opacity:1;"/>
<path d="M 783.7,185.5 L 780.7,183.8 L 777.7,185.6" style="fill:none;stroke:#000000;stroke-width:2.0px;stroke-linecap:butt;stroke-linejoin:miter;stroke-opacity:1;"/>
<path d="M 724.7,217.4 L 721.7,219.1 L 718.7,217.5" style="fill:none;stroke:#000000;stroke-width:2.0px;stroke-linecap:butt;stroke-linejoin:miter;stroke-opacity:1;"/>
<path d="M 664.6,187.4 L 661.6,185.7 L 658.7,187.5" style="fill:none;stroke:#000000;stroke-width:2.0px;stroke-linecap:butt;stroke-linejoin:miter;stroke-opacity:1;"/>
<path d="M 605.6,219.3 L 602.7,221.1 L 599.7,219.4" style="fill:none;stroke:#000000;stroke-width:2.0px;stroke-linecap:butt;stroke-linejoin:miter;stroke-opacity:1;"/>
<path d="M 545.6,189.3 L 542.6,187.7 L 539.6,189.4" style="fill:none;stroke:#000000;stroke-width:2.0px;stroke-linecap:butt;stroke-linejoin:miter;stroke-opacity:1;"/>
<path d="M 486.6,221.2 L 483.6,223.0 L 480.6,221.3" style="fill:none;stroke:#000000;stroke-width:2.0px;stroke-linecap:butt;stroke-linejoin:miter;stroke-opacity:1;"/>
<path d="M 426.6,191.2 L 423.6,189.6 L 420.6,191.3" style="fill:none;stroke:#000000;stroke-width:2.0px;stroke-linecap:butt;stroke-linejoin:miter;stroke-opacity:1;"/>
<path d="M 367.5,223.1 L 364.6,224.9 L 361.6,223.2" style="fill:none;stroke:#000000;stroke-width:2.0px;stroke-linecap:butt;stroke-linejoin:miter;stroke-opacity:1;"/>
<path d="M 307.5,193.1 L 304.5,191.5 L 301.6,193.2" style="fill:none;stroke:#000000;stroke-width:2.0px;stroke-linecap:butt;stroke-linejoin:miter;stroke-opacity:1;"/>
<path d="M 248.5,225.0 L 245.5,226.8 L 244.3,226.1" style="fill:none;stroke:#000000;stroke-width:2.0px;stroke-linecap:butt;stroke-linejoin:miter;stroke-opacity:1;"/>
<path d="M 127.7,228.0 L 126.5,228.7 L 125.3,228.0" style="fill:none;stroke:#000000;stroke-width:2.0px;stroke-linecap:butt;stroke-linejoin:miter;stroke-opacity:1;"/>
<path class="atom-0" d="M 1073.2 92.2 L 1076.1 89.3 L 1072.3 88.5 L 1072.9 86.6 L 1076.4 88.3 L 1075.9 84.5 L 1077.9 84.5 L 1077.4 88.3 L 1080.9 86.6 L 1081.5 88.5 L 1077.7 89.2 L 1080.4 92.2 L 1078.7 93.4 L 1076.8 89.7 L 1074.9 93.4 L 1073.2 92.2 " fill="#191919"/>
<path class="atom-8" d="M 1008.7 111.3 Q 1008.7 106.6, 1011.0 104.0 Q 1013.3 101.4, 1017.6 101.4 Q 1022.0 101.4, 1024.3 104.0 Q 1026.6 106.6, 1026.6 111.3 Q 1026.6 116.1, 1024.2 118.7 Q 1021.9 121.4, 1017.6 121.4 Q 1013.4 121.4, 1011.0 118.7 Q 1008.7 116.1, 1008.7 111.3 M 1017.6 119.2 Q 1020.6 119.2, 1022.2 117.2 Q 1023.8 115.2, 1023.8 111.3 Q 1023.8 107.5, 1022.2 105.6 Q 1020.6 103.6, 1017.6 103.6 Q 1014.7 103.6, 1013.1 105.5 Q 1011.5 107.5, 1011.5 111.3 Q 1011.5 115.3, 1013.1 117.2 Q 1014.7 119.2, 1017.6 119.2 " fill="#FF0000"/>
<path class="atom-9" d="M 955.5 205.6 L 961.9 215.9 Q 962.5 216.9, 963.5 218.8 Q 964.5 220.6, 964.6 220.7 L 964.6 205.6 L 967.2 205.6 L 967.2 225.0 L 964.5 225.0 L 957.7 213.8 Q 956.9 212.5, 956.0 210.9 Q 955.2 209.4, 954.9 209.0 L 954.9 225.0 L 952.4 225.0 L 952.4 205.6 L 955.5 205.6 " fill="#0000FF"/>
<path class="atom-9" d="M 952.2 227.0 L 954.8 227.0 L 954.8 235.3 L 964.8 235.3 L 964.8 227.0 L 967.4 227.0 L 967.4 246.5 L 964.8 246.5 L 964.8 237.5 L 954.8 237.5 L 954.8 246.5 L 952.2 246.5 L 952.2 227.0 " fill="#0000FF"/>
<path class="atom-22" d="M 181.2 183.7 L 187.5 194.0 Q 188.2 195.0, 189.2 196.8 Q 190.2 198.7, 190.3 198.8 L 190.3 183.7 L 192.9 183.7 L 192.9 203.1 L 190.2 203.1 L 183.3 191.9 Q 182.5 190.5, 181.7 189.0 Q 180.9 187.5, 180.6 187.0 L 180.6 203.1 L 178.1 203.1 L 178.1 183.7 L 181.2 183.7 " fill="#0000FF"/>
<path class="atom-22" d="M 177.9 162.2 L 180.5 162.2 L 180.5 170.5 L 190.4 170.5 L 190.4 162.2 L 193.1 162.2 L 193.1 181.7 L 190.4 181.7 L 190.4 172.7 L 180.5 172.7 L 180.5 181.7 L 177.9 181.7 L 177.9 162.2 " fill="#0000FF"/>
<path class="atom-24" d="M 60.0 190.9 Q 60.0 186.2, 62.3 183.6 Q 64.6 181.0, 68.9 181.0 Q 73.3 181.0, 75.6 183.6 Q 77.9 186.2, 77.9 190.9 Q 77.9 195.6, 75.5 198.3 Q 73.2 200.9, 68.9 200.9 Q 64.6 200.9, 62.3 198.3 Q 60.0 195.6, 60.0 190.9 M 68.9 198.7 Q 71.9 198.7, 73.5 196.8 Q 75.1 194.8, 75.1 190.9 Q 75.1 187.0, 73.5 185.1 Q 71.9 183.2, 68.9 183.2 Q 66.0 183.2, 64.3 185.1 Q 62.7 187.0, 62.7 190.9 Q 62.7 194.8, 64.3 196.8 Q 66.0 198.7, 68.9 198.7 " fill="#FF0000"/>
<path class="bond-0 atom-0 atom-1" d="M 702.4,576.4 L 689.0,599.5" style="fill:none;fill-rule:evenodd;stroke:#191919;stroke-width:2.0px;stroke-linecap:butt;stroke-linejoin:miter;stroke-opacity:1"/>
<path class="bond-0 atom-0 atom-1" d="M 689.0,599.5 L 675.7,622.6" style="fill:none;fill-rule:evenodd;stroke:#FF0000;stroke-width:2.0px;stroke-linecap:butt;stroke-linejoin:miter;stroke-opacity:1"/>
<path class="bond-1 atom-1 atom-2" d="M 657.5,634.7 L 628.8,634.7" style="fill:none;fill-rule:evenodd;stroke:#FF0000;stroke-width:2.0px;stroke-linecap:butt;stroke-linejoin:miter;stroke-opacity:1"/>
<path class="bond-1 atom-1 atom-2" d="M 628.8,634.7 L 600.0,634.7" style="fill:none;fill-rule:evenodd;stroke:#000000;stroke-width:2.0px;stroke-linecap:butt;stroke-linejoin:miter;stroke-opacity:1"/>
<path class="bond-2 atom-2 atom-3" d="M 600.0,634.7 L 565.6,694.2" style="fill:none;fill-rule:evenodd;stroke:#000000;stroke-width:2.0px;stroke-linecap:butt;stroke-linejoin:miter;stroke-opacity:1"/>
<path class="bond-3 atom-2 atom-4" d="M 600.0,634.7 L 565.6,575.2" style="fill:none;fill-rule:evenodd;stroke:#000000;stroke-width:2.0px;stroke-linecap:butt;stroke-linejoin:miter;stroke-opacity:1"/>
<path class="bond-4 atom-4 atom-5" d="M 565.6,575.2 L 534.7,575.2" style="fill:none;fill-rule:evenodd;stroke:#000000;stroke-width:2.0px;stroke-linecap:butt;stroke-linejoin:miter;stroke-opacity:1"/>
<path class="bond-4 atom-4 atom-5" d="M 534.7,575.2 L 503.8,575.2" style="fill:none;fill-rule:evenodd;stroke:#191919;stroke-width:2.0px;stroke-linecap:butt;stroke-linejoin:miter;stroke-opacity:1"/>
<path class="bond-5 atom-4 atom-6" d="M 568.6,580.3 L 583.0,555.5" style="fill:none;fill-rule:evenodd;stroke:#000000;stroke-width:2.0px;stroke-linecap:butt;stroke-linejoin:miter;stroke-opacity:1"/>
<path class="bond-5 atom-4 atom-6" d="M 583.0,555.5 L 597.3,530.6" style="fill:none;fill-rule:evenodd;stroke:#FF0000;stroke-width:2.0px;stroke-linecap:butt;stroke-linejoin:miter;stroke-opacity:1"/>
<path class="bond-5 atom-4 atom-6" d="M 559.7,575.2 L 574.0,550.3" style="fill:none;fill-rule:evenodd;stroke:#000000;stroke-width:2.0px;stroke-linecap:butt;stroke-linejoin:miter;stroke-opacity:1"/>
<path class="bond-5 atom-4 atom-6" d="M 574.0,550.3 L 588.4,525.5" style="fill:none;fill-rule:evenodd;stroke:#FF0000;stroke-width:2.0px;stroke-linecap:butt;stroke-linejoin:miter;stroke-opacity:1"/>
<path d="M 567.4,578.1 L 565.6,575.2 L 564.1,575.2" style="fill:none;stroke:#000000;stroke-width:2.0px;stroke-linecap:butt;stroke-linejoin:miter;stroke-opacity:1;"/>
<path class="atom-0" d="M 699.4 573.0 L 702.3 570.1 L 698.5 569.3 L 699.1 567.3 L 702.6 569.1 L 702.1 565.3 L 704.1 565.3 L 703.6 569.1 L 707.1 567.4 L 707.7 569.3 L 703.9 570.0 L 706.6 573.0 L 704.9 574.2 L 703.0 570.5 L 701.1 574.2 L 699.4 573.0 " fill="#191919"/>
<path class="atom-1" d="M 659.8 634.7 Q 659.8 630.1, 662.1 627.5 Q 664.4 624.8, 668.7 624.8 Q 673.1 624.8, 675.4 627.5 Q 677.7 630.1, 677.7 634.7 Q 677.7 639.5, 675.3 642.2 Q 673.0 644.8, 668.7 644.8 Q 664.4 644.8, 662.1 642.2 Q 659.8 639.5, 659.8 634.7 M 668.7 642.6 Q 671.7 642.6, 673.3 640.7 Q 674.9 638.6, 674.9 634.7 Q 674.9 630.9, 673.3 629.0 Q 671.7 627.0, 668.7 627.0 Q 665.8 627.0, 664.1 629.0 Q 662.6 630.9, 662.6 634.7 Q 662.6 638.7, 664.1 640.7 Q 665.8 642.6, 668.7 642.6 " fill="#FF0000"/>
<path class="atom-5" d="M 493.2 573.0 L 496.1 570.1 L 492.3 569.3 L 492.9 567.3 L 496.4 569.1 L 495.9 565.3 L 497.9 565.3 L 497.3 569.1 L 500.9 567.4 L 501.5 569.3 L 497.7 570.0 L 500.4 573.0 L 498.7 574.2 L 496.8 570.5 L 494.9 574.2 L 493.2 573.0 " fill="#191919"/>
<path class="atom-6" d="M 591.1 515.7 Q 591.1 511.0, 593.4 508.4 Q 595.7 505.8, 600.0 505.8 Q 604.3 505.8, 606.6 508.4 Q 608.9 511.0, 608.9 515.7 Q 608.9 520.4, 606.6 523.1 Q 604.3 525.8, 600.0 525.8 Q 595.7 525.8, 593.4 523.1 Q 591.1 520.4, 591.1 515.7 M 600.0 523.6 Q 603.0 523.6, 604.6 521.6 Q 606.2 519.6, 606.2 515.7 Q 606.2 511.9, 604.6 509.9 Q 603.0 508.0, 600.0 508.0 Q 597.0 508.0, 595.4 509.9 Q 593.8 511.8, 593.8 515.7 Q 593.8 519.6, 595.4 521.6 Q 597.0 523.6, 600.0 523.6 " fill="#FF0000"/>
</svg>