<svg xmlns="http://www.w3.org/2000/svg" xmlns:rdkit="http://www.rdkit.org/xml" xmlns:xlink="http://www.w3.org/1999/xlink" version="1.1" baseProfile="full" xml:space="preserve" width="1200px" height="800px" viewBox="0 0 1200 800">
<!-- END OF HEADER -->
<rect style="opacity:1.0;fill:#FFFFFF;stroke:none" width="1200.0" height="800.0" x="0.0" y="0.0"> </rect>
<path class="bond-0 atom-0 atom-1" d="M 1064.2,64.9 L 1085.9,102.4" style="fill:none;fill-rule:evenodd;stroke:#191919;stroke-width:2.0px;stroke-linecap:butt;stroke-linejoin:miter;stroke-opacity:1"/>
<path class="bond-0 atom-0 atom-1" d="M 1085.9,102.4 L 1107.6,139.9" style="fill:none;fill-rule:evenodd;stroke:#000000;stroke-width:2.0px;stroke-linecap:butt;stroke-linejoin:miter;stroke-opacity:1"/>
<path class="bond-1 atom-1 atom-2" d="M 1107.6,139.9 L 1063.3,216.7" style="fill:none;fill-rule:evenodd;stroke:#000000;stroke-width:2.0px;stroke-linecap:butt;stroke-linejoin:miter;stroke-opacity:1"/>
<path class="bond-2 atom-2 atom-3" d="M 1063.3,216.7 L 1019.0,293.4" style="fill:none;fill-rule:evenodd;stroke:#000000;stroke-width:2.0px;stroke-linecap:butt;stroke-linejoin:miter;stroke-opacity:1"/>
<path class="bond-3 atom-3 atom-4" d="M 1019.0,293.4 L 930.4,293.4" style="fill:none;fill-rule:evenodd;stroke:#000000;stroke-width:2.0px;stroke-linecap:butt;stroke-linejoin:miter;stroke-opacity:1"/>
<path class="bond-4 atom-2 atom-5" d="M 1063.3,216.7 L 1140.0,261.0" style="fill:none;fill-rule:evenodd;stroke:#000000;stroke-width:2.0px;stroke-linecap:butt;stroke-linejoin:miter;stroke-opacity:1"/>
<path class="bond-5 atom-5 atom-6" d="M 1140.0,261.0 L 1140.0,349.5" style="fill:none;fill-rule:evenodd;stroke:#000000;stroke-width:2.0px;stroke-linecap:butt;stroke-linejoin:miter;stroke-opacity:1"/>
<path class="bond-6 atom-2 atom-7" d="M 1063.3,216.7 L 986.6,172.4" style="fill:none;fill-rule:evenodd;stroke:#000000;stroke-width:2.0px;stroke-linecap:butt;stroke-linejoin:miter;stroke-opacity:1"/>
<path class="bond-7 atom-7 atom-8" d="M 993.2,176.2 L 993.2,138.0" style="fill:none;fill-rule:evenodd;stroke:#000000;stroke-width:2.0px;stroke-linecap:butt;stroke-linejoin:miter;stroke-opacity:1"/>
<path class="bond-7 atom-7 atom-8" d="M 993.2,138.0 L 993.2,99.8" style="fill:none;fill-rule:evenodd;stroke:#FF0000;stroke-width:2.0px;stroke-linecap:butt;stroke-linejoin:miter;stroke-opacity:1"/>
<path class="bond-7 atom-7 atom-8" d="M 979.9,176.2 L 979.9,138.0" style="fill:none;fill-rule:evenodd;stroke:#000000;stroke-width:2.0px;stroke-linecap:butt;stroke-linejoin:miter;stroke-opacity:1"/>
<path class="bond-7 atom-7 atom-8" d="M 979.9,138.0 L 979.9,99.8" style="fill:none;fill-rule:evenodd;stroke:#FF0000;stroke-width:2.0px;stroke-linecap:butt;stroke-linejoin:miter;stroke-opacity:1"/>
<path class="bond-8 atom-7 atom-9" d="M 986.6,172.4 L 954.4,190.9" style="fill:none;fill-rule:evenodd;stroke:#000000;stroke-width:2.0px;stroke-linecap:butt;stroke-linejoin:miter;stroke-opacity:1"/>
<path class="bond-8 atom-7 atom-9" d="M 954.4,190.9 L 922.3,209.5" style="fill:none;fill-rule:evenodd;stroke:#0000FF;stroke-width:2.0px;stroke-linecap:butt;stroke-linejoin:miter;stroke-opacity:1"/>
<path class="bond-9 atom-9 atom-10" d="M 897.4,209.5 L 865.3,190.9" style="fill:none;fill-rule:evenodd;stroke:#0000FF;stroke-width:2.0px;stroke-linecap:butt;stroke-linejoin:miter;stroke-opacity:1"/>
<path class="bond-9 atom-9 atom-10" d="M 865.3,190.9 L 833.1,172.4" style="fill:none;fill-rule:evenodd;stroke:#000000;stroke-width:2.0px;stroke-linecap:butt;stroke-linejoin:miter;stroke-opacity:1"/>
<path class="bond-10 atom-10 atom-11" d="M 833.1,172.4 L 756.4,216.6" style="fill:none;fill-rule:evenodd;stroke:#000000;stroke-width:2.0px;stroke-linecap:butt;stroke-linejoin:miter;stroke-opacity:1"/>
<path class="bond-11 atom-11 atom-12" d="M 756.4,216.6 L 679.7,172.3" style="fill:none;fill-rule:evenodd;stroke:#000000;stroke-width:2.0px;stroke-linecap:butt;stroke-linejoin:miter;stroke-opacity:1"/>
<path class="bond-12 atom-12 atom-13" d="M 679.7,172.3 L 603.0,216.6" style="fill:none;fill-rule:evenodd;stroke:#000000;stroke-width:2.0px;stroke-linecap:butt;stroke-linejoin:miter;stroke-opacity:1"/>
<path class="bond-13 atom-13 atom-14" d="M 603.0,216.6 L 526.3,172.3" style="fill:none;fill-rule:evenodd;stroke:#000000;stroke-width:2.0px;stroke-linecap:butt;stroke-linejoin:miter;stroke-opacity:1"/>
<path class="bond-14 atom-14 atom-15" d="M 526.3,172.3 L 449.5,216.6" style="fill:none;fill-rule:evenodd;stroke:#000000;stroke-width:2.0px;stroke-linecap:butt;stroke-linejoin:miter;stroke-opacity:1"/>
<path class="bond-15 atom-15 atom-16" d="M 449.5,216.6 L 372.8,172.3" style="fill:none;fill-rule:evenodd;stroke:#000000;stroke-width:2.0px;stroke-linecap:butt;stroke-linejoin:miter;stroke-opacity:1"/>
<path class="bond-16 atom-16 atom-17" d="M 372.8,172.3 L 296.1,216.6" style="fill:none;fill-rule:evenodd;stroke:#000000;stroke-width:2.0px;stroke-linecap:butt;stroke-linejoin:miter;stroke-opacity:1"/>
<path class="bond-17 atom-17 atom-18" d="M 296.1,216.6 L 264.0,198.1" style="fill:none;fill-rule:evenodd;stroke:#000000;stroke-width:2.0px;stroke-linecap:butt;stroke-linejoin:miter;stroke-opacity:1"/>
<path class="bond-17 atom-17 atom-18" d="M 264.0,198.1 L 231.8,179.5" style="fill:none;fill-rule:evenodd;stroke:#0000FF;stroke-width:2.0px;stroke-linecap:butt;stroke-linejoin:miter;stroke-opacity:1"/>
<path class="bond-18 atom-18 atom-19" d="M 206.9,179.5 L 174.8,198.1" style="fill:none;fill-rule:evenodd;stroke:#0000FF;stroke-width:2.0px;stroke-linecap:butt;stroke-linejoin:miter;stroke-opacity:1"/>
<path class="bond-18 atom-18 atom-19" d="M 174.8,198.1 L 142.7,216.6" style="fill:none;fill-rule:evenodd;stroke:#000000;stroke-width:2.0px;stroke-linecap:butt;stroke-linejoin:miter;stroke-opacity:1"/>
<path class="bond-19 atom-19 atom-20" d="M 142.7,216.6 L 105.7,195.3" style="fill:none;fill-rule:evenodd;stroke:#000000;stroke-width:2.0px;stroke-linecap:butt;stroke-linejoin:miter;stroke-opacity:1"/>
<path class="bond-19 atom-19 atom-20" d="M 105.7,195.3 L 68.8,174.0" style="fill:none;fill-rule:evenodd;stroke:#191919;stroke-width:2.0px;stroke-linecap:butt;stroke-linejoin:miter;stroke-opacity:1"/>
<path class="bond-20 atom-19 atom-21" d="M 136.0,212.8 L 136.0,251.2" style="fill:none;fill-rule:evenodd;stroke:#000000;stroke-width:2.0px;stroke-linecap:butt;stroke-linejoin:miter;stroke-opacity:1"/>
<path class="bond-20 atom-19 atom-21" d="M 136.0,251.2 L 136.0,289.6" style="fill:none;fill-rule:evenodd;stroke:#FF0000;stroke-width:2.0px;stroke-linecap:butt;stroke-linejoin:miter;stroke-opacity:1"/>
<path class="bond-20 atom-19 atom-21" d="M 149.3,212.8 L 149.3,251.2" style="fill:none;fill-rule:evenodd;stroke:#000000;stroke-width:2.0px;stroke-linecap:butt;stroke-linejoin:miter;stroke-opacity:1"/>
<path class="bond-20 atom-19 atom-21" d="M 149.3,251.2 L 149.3,289.6" style="fill:none;fill-rule:evenodd;stroke:#FF0000;stroke-width:2.0px;stroke-linecap:butt;stroke-linejoin:miter;stroke-opacity:1"/>
<path d="M 1106.5,138.1 L 1107.6,139.9 L 1105.4,143.8" style="fill:none;stroke:#000000;stroke-width:2.0px;stroke-linecap:butt;stroke-linejoin:miter;stroke-opacity:1;"/>
<path d="M 1021.2,289.5 L 1019.0,293.4 L 1014.6,293.4" style="fill:none;stroke:#000000;stroke-width:2.0px;stroke-linecap:butt;stroke-linejoin:miter;stroke-opacity:1;"/>
<path d="M 1136.2,258.7 L 1140.0,261.0 L 1140.0,265.4" style="fill:none;stroke:#000000;stroke-width:2.0px;stroke-linecap:butt;stroke-linejoin:miter;stroke-opacity:1;"/>
<path d="M 990.4,174.6 L 986.6,172.4 L 985.0,173.3" style="fill:none;stroke:#000000;stroke-width:2.0px;stroke-linecap:butt;stroke-linejoin:miter;stroke-opacity:1;"/>
<path d="M 834.7,173.3 L 833.1,172.4 L 829.3,174.6" style="fill:none;stroke:#000000;stroke-width:2.0px;stroke-linecap:butt;stroke-linejoin:miter;stroke-opacity:1;"/>
<path d="M 760.2,214.4 L 756.4,216.6 L 752.6,214.4" style="fill:none;stroke:#000000;stroke-width:2.0px;stroke-linecap:butt;stroke-linejoin:miter;stroke-opacity:1;"/>
<path d="M 683.5,174.6 L 679.7,172.3 L 675.9,174.6" style="fill:none;stroke:#000000;stroke-width:2.0px;stroke-linecap:butt;stroke-linejoin:miter;stroke-opacity:1;"/>
<path d="M 606.8,214.4 L 603.0,216.6 L 599.1,214.4" style="fill:none;stroke:#000000;stroke-width:2.0px;stroke-linecap:butt;stroke-linejoin:miter;stroke-opacity:1;"/>
<path d="M 530.1,174.6 L 526.3,172.3 L 522.4,174.6" style="fill:none;stroke:#000000;stroke-width:2.0px;stroke-linecap:butt;stroke-linejoin:miter;stroke-opacity:1;"/>
<path d="M 453.4,214.4 L 449.5,216.6 L 445.7,214.4" style="fill:none;stroke:#000000;stroke-width:2.0px;stroke-linecap:butt;stroke-linejoin:miter;stroke-opacity:1;"/>
<path d="M 376.6,174.6 L 372.8,172.3 L 369.0,174.6" style="fill:none;stroke:#000000;stroke-width:2.0px;stroke-linecap:butt;stroke-linejoin:miter;stroke-opacity:1;"/>
<path d="M 299.9,214.4 L 296.1,216.6 L 294.5,215.7" style="fill:none;stroke:#000000;stroke-width:2.0px;stroke-linecap:butt;stroke-linejoin:miter;stroke-opacity:1;"/>
<path d="M 144.3,215.7 L 142.7,216.6 L 140.8,215.6" style="fill:none;stroke:#000000;stroke-width:2.0px;stroke-linecap:butt;stroke-linejoin:miter;stroke-opacity:1;"/>
<path class="atom-0" d="M 1058.6 60.4 L 1062.2 56.7 L 1057.4 55.7 L 1058.1 53.2 L 1062.6 55.4 L 1062.0 50.5 L 1064.6 50.5 L 1063.9 55.4 L 1068.4 53.3 L 1069.2 55.7 L 1064.3 56.6 L 1067.8 60.4 L 1065.6 61.9 L 1063.2 57.3 L 1060.7 61.9 L 1058.6 60.4 " fill="#191919"/>
<path class="atom-8" d="M 975.1 83.8 Q 975.1 77.8, 978.0 74.5 Q 981.0 71.1, 986.6 71.1 Q 992.1 71.1, 995.1 74.5 Q 998.1 77.8, 998.1 83.8 Q 998.1 89.9, 995.1 93.4 Q 992.1 96.8, 986.6 96.8 Q 981.0 96.8, 978.0 93.4 Q 975.1 90.0, 975.1 83.8 M 986.6 94.0 Q 990.4 94.0, 992.4 91.5 Q 994.5 88.9, 994.5 83.8 Q 994.5 78.9, 992.4 76.4 Q 990.4 73.9, 986.6 73.9 Q 982.7 73.9, 980.7 76.4 Q 978.6 78.9, 978.6 83.8 Q 978.6 88.9, 980.7 91.5 Q 982.7 94.0, 986.6 94.0 " fill="#FF0000"/>
<path class="atom-9" d="M 904.3 204.1 L 912.5 217.4 Q 913.3 218.7, 914.6 221.1 Q 916.0 223.5, 916.0 223.6 L 916.0 204.1 L 919.4 204.1 L 919.4 229.2 L 915.9 229.2 L 907.1 214.7 Q 906.1 213.0, 905.0 211.0 Q 903.9 209.1, 903.6 208.5 L 903.6 229.2 L 900.3 229.2 L 900.3 204.1 L 904.3 204.1 " fill="#0000FF"/>
<path class="atom-9" d="M 900.0 231.7 L 903.4 231.7 L 903.4 242.4 L 916.3 242.4 L 916.3 231.7 L 919.7 231.7 L 919.7 256.8 L 916.3 256.8 L 916.3 245.2 L 903.4 245.2 L 903.4 256.8 L 900.0 256.8 L 900.0 231.7 " fill="#0000FF"/>
<path class="atom-18" d="M 213.8 159.8 L 222.0 173.1 Q 222.9 174.4, 224.2 176.8 Q 225.5 179.1, 225.6 179.3 L 225.6 159.8 L 228.9 159.8 L 228.9 184.9 L 225.5 184.9 L 216.6 170.3 Q 215.6 168.6, 214.5 166.7 Q 213.4 164.8, 213.1 164.1 L 213.1 184.9 L 209.9 184.9 L 209.9 159.8 L 213.8 159.8 " fill="#0000FF"/>
<path class="atom-18" d="M 209.6 132.2 L 213.0 132.2 L 213.0 142.9 L 225.8 142.9 L 225.8 132.2 L 229.2 132.2 L 229.2 157.3 L 225.8 157.3 L 225.8 145.7 L 213.0 145.7 L 213.0 157.3 L 209.6 157.3 L 209.6 132.2 " fill="#0000FF"/>
<path class="atom-20" d="M 61.2 169.5 L 64.9 165.8 L 60.0 164.8 L 60.7 162.3 L 65.2 164.5 L 64.6 159.6 L 67.3 159.6 L 66.5 164.5 L 71.1 162.4 L 71.9 164.8 L 66.9 165.7 L 70.5 169.5 L 68.3 171.1 L 65.8 166.4 L 63.4 171.1 L 61.2 169.5 " fill="#191919"/>
<path class="atom-21" d="M 131.1 305.3 Q 131.1 299.3, 134.1 295.9 Q 137.1 292.5, 142.6 292.5 Q 148.2 292.5, 151.2 295.9 Q 154.2 299.3, 154.2 305.3 Q 154.2 311.4, 151.2 314.9 Q 148.1 318.3, 142.6 318.3 Q 137.1 318.3, 134.1 314.9 Q 131.1 311.4, 131.1 305.3 M 142.6 315.5 Q 146.5 315.5, 148.5 312.9 Q 150.6 310.3, 150.6 305.3 Q 150.6 300.4, 148.5 297.9 Q 146.5 295.4, 142.6 295.4 Q 138.8 295.4, 136.7 297.8 Q 134.7 300.3, 134.7 305.3 Q 134.7 310.4, 136.7 312.9 Q 138.8 315.5, 142.6 315.5 " fill="#FF0000"/>
<path class="bond-0 atom-0 atom-1" d="M 731.9,569.6 L 714.8,599.4" style="fill:none;fill-rule:evenodd;stroke:#191919;stroke-width:2.0px;stroke-linecap:butt;stroke-linejoin:miter;stroke-opacity:1"/>
<path class="bond-0 atom-0 atom-1" d="M 714.8,599.4 L 697.6,629.1" style="fill:none;fill-rule:evenodd;stroke:#FF0000;stroke-width:2.0px;stroke-linecap:butt;stroke-linejoin:miter;stroke-opacity:1"/>
<path class="bond-1 atom-1 atom-2" d="M 674.1,644.7 L 637.1,644.7" style="fill:none;fill-rule:evenodd;stroke:#FF0000;stroke-width:2.0px;stroke-linecap:butt;stroke-linejoin:miter;stroke-opacity:1"/>
<path class="bond-1 atom-1 atom-2" d="M 637.1,644.7 L 600.0,644.7" style="fill:none;fill-rule:evenodd;stroke:#000000;stroke-width:2.0px;stroke-linecap:butt;stroke-linejoin:miter;stroke-opacity:1"/>
<path class="bond-2 atom-2 atom-3" d="M 600.0,644.7 L 555.7,721.4" style="fill:none;fill-rule:evenodd;stroke:#000000;stroke-width:2.0px;stroke-linecap:butt;stroke-linejoin:miter;stroke-opacity:1"/>
<path class="bond-3 atom-2 atom-4" d="M 600.0,644.7 L 555.7,568.0" style="fill:none;fill-rule:evenodd;stroke:#000000;stroke-width:2.0px;stroke-linecap:butt;stroke-linejoin:miter;stroke-opacity:1"/>
<path class="bond-4 atom-4 atom-5" d="M 555.7,568.0 L 515.8,568.0" style="fill:none;fill-rule:evenodd;stroke:#000000;stroke-width:2.0px;stroke-linecap:butt;stroke-linejoin:miter;stroke-opacity:1"/>
<path class="bond-4 atom-4 atom-5" d="M 515.8,568.0 L 476.0,568.0" style="fill:none;fill-rule:evenodd;stroke:#191919;stroke-width:2.0px;stroke-linecap:butt;stroke-linejoin:miter;stroke-opacity:1"/>
<path class="bond-5 atom-4 atom-6" d="M 559.5,574.6 L 578.0,542.6" style="fill:none;fill-rule:evenodd;stroke:#000000;stroke-width:2.0px;stroke-linecap:butt;stroke-linejoin:miter;stroke-opacity:1"/>
<path class="bond-5 atom-4 atom-6" d="M 578.0,542.6 L 596.5,510.6" style="fill:none;fill-rule:evenodd;stroke:#FF0000;stroke-width:2.0px;stroke-linecap:butt;stroke-linejoin:miter;stroke-opacity:1"/>
<path class="bond-5 atom-4 atom-6" d="M 548.0,568.0 L 566.5,536.0" style="fill:none;fill-rule:evenodd;stroke:#000000;stroke-width:2.0px;stroke-linecap:butt;stroke-linejoin:miter;stroke-opacity:1"/>
<path class="bond-5 atom-4 atom-6" d="M 566.5,536.0 L 585.0,503.9" style="fill:none;fill-rule:evenodd;stroke:#FF0000;stroke-width:2.0px;stroke-linecap:butt;stroke-linejoin:miter;stroke-opacity:1"/>
<path d="M 557.9,571.8 L 555.7,568.0 L 553.7,568.0" style="fill:none;stroke:#000000;stroke-width:2.0px;stroke-linecap:butt;stroke-linejoin:miter;stroke-opacity:1;"/>
<path class="atom-0" d="M 728.2 565.2 L 731.8 561.4 L 726.9 560.4 L 727.7 557.9 L 732.2 560.2 L 731.6 555.3 L 734.2 555.2 L 733.5 560.2 L 738.0 558.0 L 738.8 560.4 L 733.9 561.4 L 737.4 565.1 L 735.2 566.7 L 732.8 562.0 L 730.3 566.7 L 728.2 565.2 " fill="#191919"/>
<path class="atom-1" d="M 677.1 644.8 Q 677.1 638.7, 680.0 635.4 Q 683.0 632.0, 688.6 632.0 Q 694.2 632.0, 697.1 635.4 Q 700.1 638.7, 700.1 644.8 Q 700.1 650.9, 697.1 654.3 Q 694.1 657.8, 688.6 657.8 Q 683.1 657.8, 680.0 654.3 Q 677.1 650.9, 677.1 644.8 M 688.6 654.9 Q 692.4 654.9, 694.5 652.4 Q 696.6 649.8, 696.6 644.8 Q 696.6 639.8, 694.5 637.4 Q 692.4 634.9, 688.6 634.9 Q 684.8 634.9, 682.7 637.3 Q 680.6 639.8, 680.6 644.8 Q 680.6 649.8, 682.7 652.4 Q 684.8 654.9, 688.6 654.9 " fill="#FF0000"/>
<path class="atom-5" d="M 462.4 565.2 L 466.1 561.4 L 461.2 560.4 L 461.9 557.9 L 466.4 560.2 L 465.8 555.3 L 468.4 555.2 L 467.7 560.2 L 472.3 558.0 L 473.1 560.4 L 468.1 561.4 L 471.6 565.1 L 469.5 566.7 L 467.0 562.0 L 464.5 566.7 L 462.4 565.2 " fill="#191919"/>
<path class="atom-6" d="M 588.5 491.3 Q 588.5 485.3, 591.5 481.9 Q 594.4 478.6, 600.0 478.6 Q 605.6 478.6, 608.5 481.9 Q 611.5 485.3, 611.5 491.3 Q 611.5 497.4, 608.5 500.9 Q 605.5 504.3, 600.0 504.3 Q 594.5 504.3, 591.5 500.9 Q 588.5 497.5, 588.5 491.3 M 600.0 501.5 Q 603.8 501.5, 605.9 499.0 Q 608.0 496.4, 608.0 491.3 Q 608.0 486.4, 605.9 483.9 Q 603.8 481.4, 600.0 481.4 Q 596.2 481.4, 594.1 483.9 Q 592.0 486.4, 592.0 491.3 Q 592.0 496.4, 594.1 499.0 Q 596.2 501.5, 600.0 501.5 " fill="#FF0000"/>
</svg>