<svg xmlns="http://www.w3.org/2000/svg" xmlns:rdkit="http://www.rdkit.org/xml" xmlns:xlink="http://www.w3.org/1999/xlink" version="1.1" baseProfile="full" xml:space="preserve" width="1200px" height="800px" viewBox="0 0 1200 800">
<!-- END OF HEADER -->
<rect style="opacity:1.0;fill:#FFFFFF;stroke:none" width="1200.0" height="800.0" x="0.0" y="0.0"> </rect>
<path class="bond-0 atom-0 atom-1" d="M 1131.5,59.8 L 1128.0,112.2" style="fill:none;fill-rule:evenodd;stroke:#191919;stroke-width:2.0px;stroke-linecap:butt;stroke-linejoin:miter;stroke-opacity:1"/>
<path class="bond-0 atom-0 atom-1" d="M 1128.0,112.2 L 1124.6,164.6" style="fill:none;fill-rule:evenodd;stroke:#000000;stroke-width:2.0px;stroke-linecap:butt;stroke-linejoin:miter;stroke-opacity:1"/>
<path class="bond-1 atom-1 atom-2" d="M 1124.6,164.6 L 1028.5,212.0" style="fill:none;fill-rule:evenodd;stroke:#000000;stroke-width:2.0px;stroke-linecap:butt;stroke-linejoin:miter;stroke-opacity:1"/>
<path class="bond-2 atom-2 atom-3" d="M 1028.5,212.0 L 981.1,115.9" style="fill:none;fill-rule:evenodd;stroke:#000000;stroke-width:2.0px;stroke-linecap:butt;stroke-linejoin:miter;stroke-opacity:1"/>
<path class="bond-3 atom-2 atom-4" d="M 1028.5,212.0 L 1075.8,308.1" style="fill:none;fill-rule:evenodd;stroke:#000000;stroke-width:2.0px;stroke-linecap:butt;stroke-linejoin:miter;stroke-opacity:1"/>
<path class="bond-4 atom-2 atom-5" d="M 1028.5,212.0 L 988.7,231.6" style="fill:none;fill-rule:evenodd;stroke:#000000;stroke-width:2.0px;stroke-linecap:butt;stroke-linejoin:miter;stroke-opacity:1"/>
<path class="bond-4 atom-2 atom-5" d="M 988.7,231.6 L 948.9,251.2" style="fill:none;fill-rule:evenodd;stroke:#FF0000;stroke-width:2.0px;stroke-linecap:butt;stroke-linejoin:miter;stroke-opacity:1"/>
<path class="bond-5 atom-5 atom-6" d="M 915.8,248.3 L 879.6,224.1" style="fill:none;fill-rule:evenodd;stroke:#FF0000;stroke-width:2.0px;stroke-linecap:butt;stroke-linejoin:miter;stroke-opacity:1"/>
<path class="bond-5 atom-5 atom-6" d="M 879.6,224.1 L 843.3,199.8" style="fill:none;fill-rule:evenodd;stroke:#000000;stroke-width:2.0px;stroke-linecap:butt;stroke-linejoin:miter;stroke-opacity:1"/>
<path class="bond-6 atom-6 atom-7" d="M 843.3,199.8 L 747.2,247.2" style="fill:none;fill-rule:evenodd;stroke:#000000;stroke-width:2.0px;stroke-linecap:butt;stroke-linejoin:miter;stroke-opacity:1"/>
<path class="bond-7 atom-7 atom-8" d="M 747.2,247.2 L 709.8,222.2" style="fill:none;fill-rule:evenodd;stroke:#000000;stroke-width:2.0px;stroke-linecap:butt;stroke-linejoin:miter;stroke-opacity:1"/>
<path class="bond-7 atom-7 atom-8" d="M 709.8,222.2 L 672.4,197.2" style="fill:none;fill-rule:evenodd;stroke:#0000FF;stroke-width:2.0px;stroke-linecap:butt;stroke-linejoin:miter;stroke-opacity:1"/>
<path class="bond-8 atom-8 atom-9" d="M 643.9,194.7 L 603.0,214.8" style="fill:none;fill-rule:evenodd;stroke:#0000FF;stroke-width:2.0px;stroke-linecap:butt;stroke-linejoin:miter;stroke-opacity:1"/>
<path class="bond-8 atom-8 atom-9" d="M 603.0,214.8 L 562.1,235.0" style="fill:none;fill-rule:evenodd;stroke:#000000;stroke-width:2.0px;stroke-linecap:butt;stroke-linejoin:miter;stroke-opacity:1"/>
<path class="bond-9 atom-9 atom-10" d="M 554.3,229.9 L 551.3,276.7" style="fill:none;fill-rule:evenodd;stroke:#000000;stroke-width:2.0px;stroke-linecap:butt;stroke-linejoin:miter;stroke-opacity:1"/>
<path class="bond-9 atom-9 atom-10" d="M 551.3,276.7 L 548.2,323.5" style="fill:none;fill-rule:evenodd;stroke:#FF0000;stroke-width:2.0px;stroke-linecap:butt;stroke-linejoin:miter;stroke-opacity:1"/>
<path class="bond-9 atom-9 atom-10" d="M 570.4,230.9 L 567.3,277.7" style="fill:none;fill-rule:evenodd;stroke:#000000;stroke-width:2.0px;stroke-linecap:butt;stroke-linejoin:miter;stroke-opacity:1"/>
<path class="bond-9 atom-9 atom-10" d="M 567.3,277.7 L 564.2,324.6" style="fill:none;fill-rule:evenodd;stroke:#FF0000;stroke-width:2.0px;stroke-linecap:butt;stroke-linejoin:miter;stroke-opacity:1"/>
<path class="bond-10 atom-9 atom-11" d="M 562.1,235.0 L 473.0,175.5" style="fill:none;fill-rule:evenodd;stroke:#000000;stroke-width:2.0px;stroke-linecap:butt;stroke-linejoin:miter;stroke-opacity:1"/>
<path class="bond-11 atom-11 atom-12" d="M 480.7,180.6 L 483.8,134.0" style="fill:none;fill-rule:evenodd;stroke:#000000;stroke-width:2.0px;stroke-linecap:butt;stroke-linejoin:miter;stroke-opacity:1"/>
<path class="bond-11 atom-11 atom-12" d="M 483.8,134.0 L 486.8,87.4" style="fill:none;fill-rule:evenodd;stroke:#FF0000;stroke-width:2.0px;stroke-linecap:butt;stroke-linejoin:miter;stroke-opacity:1"/>
<path class="bond-11 atom-11 atom-12" d="M 464.7,179.6 L 467.7,133.0" style="fill:none;fill-rule:evenodd;stroke:#000000;stroke-width:2.0px;stroke-linecap:butt;stroke-linejoin:miter;stroke-opacity:1"/>
<path class="bond-11 atom-11 atom-12" d="M 467.7,133.0 L 470.8,86.3" style="fill:none;fill-rule:evenodd;stroke:#FF0000;stroke-width:2.0px;stroke-linecap:butt;stroke-linejoin:miter;stroke-opacity:1"/>
<path class="bond-12 atom-11 atom-13" d="M 473.0,175.5 L 432.1,195.6" style="fill:none;fill-rule:evenodd;stroke:#000000;stroke-width:2.0px;stroke-linecap:butt;stroke-linejoin:miter;stroke-opacity:1"/>
<path class="bond-12 atom-11 atom-13" d="M 432.1,195.6 L 391.2,215.8" style="fill:none;fill-rule:evenodd;stroke:#0000FF;stroke-width:2.0px;stroke-linecap:butt;stroke-linejoin:miter;stroke-opacity:1"/>
<path class="bond-13 atom-13 atom-14" d="M 362.6,213.3 L 325.2,188.3" style="fill:none;fill-rule:evenodd;stroke:#0000FF;stroke-width:2.0px;stroke-linecap:butt;stroke-linejoin:miter;stroke-opacity:1"/>
<path class="bond-13 atom-13 atom-14" d="M 325.2,188.3 L 287.8,163.3" style="fill:none;fill-rule:evenodd;stroke:#000000;stroke-width:2.0px;stroke-linecap:butt;stroke-linejoin:miter;stroke-opacity:1"/>
<path class="bond-14 atom-14 atom-15" d="M 287.8,163.3 L 191.7,210.7" style="fill:none;fill-rule:evenodd;stroke:#000000;stroke-width:2.0px;stroke-linecap:butt;stroke-linejoin:miter;stroke-opacity:1"/>
<path class="bond-15 atom-15 atom-16" d="M 191.7,210.7 L 155.5,186.4" style="fill:none;fill-rule:evenodd;stroke:#000000;stroke-width:2.0px;stroke-linecap:butt;stroke-linejoin:miter;stroke-opacity:1"/>
<path class="bond-15 atom-15 atom-16" d="M 155.5,186.4 L 119.2,162.2" style="fill:none;fill-rule:evenodd;stroke:#FF0000;stroke-width:2.0px;stroke-linecap:butt;stroke-linejoin:miter;stroke-opacity:1"/>
<path d="M 1124.7,162.0 L 1124.6,164.6 L 1119.8,167.0" style="fill:none;stroke:#000000;stroke-width:2.0px;stroke-linecap:butt;stroke-linejoin:miter;stroke-opacity:1;"/>
<path d="M 845.1,201.0 L 843.3,199.8 L 838.5,202.2" style="fill:none;stroke:#000000;stroke-width:2.0px;stroke-linecap:butt;stroke-linejoin:miter;stroke-opacity:1;"/>
<path d="M 752.0,244.8 L 747.2,247.2 L 745.3,245.9" style="fill:none;stroke:#000000;stroke-width:2.0px;stroke-linecap:butt;stroke-linejoin:miter;stroke-opacity:1;"/>
<path d="M 564.1,234.0 L 562.1,235.0 L 557.6,232.0" style="fill:none;stroke:#000000;stroke-width:2.0px;stroke-linecap:butt;stroke-linejoin:miter;stroke-opacity:1;"/>
<path d="M 477.4,178.4 L 473.0,175.5 L 470.9,176.5" style="fill:none;stroke:#000000;stroke-width:2.0px;stroke-linecap:butt;stroke-linejoin:miter;stroke-opacity:1;"/>
<path d="M 289.7,164.5 L 287.8,163.3 L 283.0,165.7" style="fill:none;stroke:#000000;stroke-width:2.0px;stroke-linecap:butt;stroke-linejoin:miter;stroke-opacity:1;"/>
<path d="M 196.5,208.3 L 191.7,210.7 L 189.9,209.5" style="fill:none;stroke:#000000;stroke-width:2.0px;stroke-linecap:butt;stroke-linejoin:miter;stroke-opacity:1;"/>
<path class="atom-0" d="M 1126.3 54.6 L 1130.4 50.3 L 1124.9 49.2 L 1125.7 46.4 L 1130.8 48.9 L 1130.1 43.4 L 1133.1 43.3 L 1132.3 48.9 L 1137.4 46.5 L 1138.3 49.2 L 1132.7 50.2 L 1136.7 54.5 L 1134.3 56.3 L 1131.5 51.0 L 1128.7 56.3 L 1126.3 54.6 " fill="#191919"/>
<path class="atom-5" d="M 919.4 259.4 Q 919.4 252.6, 922.7 248.8 Q 926.1 245.0, 932.4 245.0 Q 938.7 245.0, 942.0 248.8 Q 945.4 252.6, 945.4 259.4 Q 945.4 266.3, 942.0 270.2 Q 938.6 274.1, 932.4 274.1 Q 926.1 274.1, 922.7 270.2 Q 919.4 266.4, 919.4 259.4 M 932.4 270.9 Q 936.7 270.9, 939.0 268.0 Q 941.4 265.1, 941.4 259.4 Q 941.4 253.9, 939.0 251.1 Q 936.7 248.2, 932.4 248.2 Q 928.1 248.2, 925.7 251.0 Q 923.4 253.8, 923.4 259.4 Q 923.4 265.2, 925.7 268.0 Q 928.1 270.9, 932.4 270.9 " fill="#FF0000"/>
<path class="atom-8" d="M 651.9 173.5 L 661.2 188.5 Q 662.1 190.0, 663.6 192.6 Q 665.1 195.3, 665.1 195.5 L 665.1 173.5 L 668.9 173.5 L 668.9 201.8 L 665.0 201.8 L 655.1 185.4 Q 653.9 183.5, 652.7 181.3 Q 651.5 179.1, 651.1 178.4 L 651.1 201.8 L 647.4 201.8 L 647.4 173.5 L 651.9 173.5 " fill="#0000FF"/>
<path class="atom-8" d="M 647.1 142.3 L 650.9 142.3 L 650.9 154.4 L 665.4 154.4 L 665.4 142.3 L 669.2 142.3 L 669.2 170.7 L 665.4 170.7 L 665.4 157.6 L 650.9 157.6 L 650.9 170.7 L 647.1 170.7 L 647.1 142.3 " fill="#0000FF"/>
<path class="atom-10" d="M 542.0 342.0 Q 542.0 335.2, 545.4 331.4 Q 548.7 327.6, 555.0 327.6 Q 561.3 327.6, 564.7 331.4 Q 568.0 335.2, 568.0 342.0 Q 568.0 348.9, 564.6 352.8 Q 561.2 356.7, 555.0 356.7 Q 548.8 356.7, 545.4 352.8 Q 542.0 348.9, 542.0 342.0 M 555.0 353.5 Q 559.3 353.5, 561.7 350.6 Q 564.0 347.7, 564.0 342.0 Q 564.0 336.4, 561.7 333.6 Q 559.3 330.8, 555.0 330.8 Q 550.7 330.8, 548.3 333.6 Q 546.0 336.4, 546.0 342.0 Q 546.0 347.7, 548.3 350.6 Q 550.7 353.5, 555.0 353.5 " fill="#FF0000"/>
<path class="atom-12" d="M 467.0 68.6 Q 467.0 61.8, 470.4 58.0 Q 473.7 54.2, 480.0 54.2 Q 486.3 54.2, 489.7 58.0 Q 493.0 61.8, 493.0 68.6 Q 493.0 75.5, 489.6 79.4 Q 486.2 83.3, 480.0 83.3 Q 473.8 83.3, 470.4 79.4 Q 467.0 75.6, 467.0 68.6 M 480.0 80.1 Q 484.3 80.1, 486.7 77.2 Q 489.0 74.3, 489.0 68.6 Q 489.0 63.1, 486.7 60.3 Q 484.3 57.4, 480.0 57.4 Q 475.7 57.4, 473.3 60.2 Q 471.0 63.0, 471.0 68.6 Q 471.0 74.4, 473.3 77.2 Q 475.7 80.1, 480.0 80.1 " fill="#FF0000"/>
<path class="atom-13" d="M 370.6 208.7 L 379.9 223.7 Q 380.8 225.2, 382.3 227.8 Q 383.8 230.5, 383.9 230.7 L 383.9 208.7 L 387.6 208.7 L 387.6 237.0 L 383.8 237.0 L 373.8 220.6 Q 372.6 218.7, 371.4 216.5 Q 370.2 214.3, 369.8 213.6 L 369.8 237.0 L 366.2 237.0 L 366.2 208.7 L 370.6 208.7 " fill="#0000FF"/>
<path class="atom-13" d="M 365.8 239.8 L 369.7 239.8 L 369.7 251.9 L 384.1 251.9 L 384.1 239.8 L 388.0 239.8 L 388.0 268.1 L 384.1 268.1 L 384.1 255.1 L 369.7 255.1 L 369.7 268.1 L 365.8 268.1 L 365.8 239.8 " fill="#0000FF"/>
<path class="atom-16" d="M 61.7 137.1 L 65.5 137.1 L 65.5 149.2 L 80.0 149.2 L 80.0 137.1 L 83.9 137.1 L 83.9 165.4 L 80.0 165.4 L 80.0 152.4 L 65.5 152.4 L 65.5 165.4 L 61.7 165.4 L 61.7 137.1 " fill="#FF0000"/>
<path class="atom-16" d="M 89.7 151.2 Q 89.7 144.4, 93.0 140.6 Q 96.4 136.8, 102.7 136.8 Q 108.9 136.8, 112.3 140.6 Q 115.7 144.4, 115.7 151.2 Q 115.7 158.1, 112.3 162.0 Q 108.9 165.9, 102.7 165.9 Q 96.4 165.9, 93.0 162.0 Q 89.7 158.1, 89.7 151.2 M 102.7 162.7 Q 107.0 162.7, 109.3 159.8 Q 111.7 156.9, 111.7 151.2 Q 111.7 145.6, 109.3 142.8 Q 107.0 140.0, 102.7 140.0 Q 98.3 140.0, 96.0 142.8 Q 93.7 145.6, 93.7 151.2 Q 93.7 156.9, 96.0 159.8 Q 98.3 162.7, 102.7 162.7 " fill="#FF0000"/>
<path class="bond-0 atom-0 atom-1" d="M 759.5,562.9 L 738.5,599.3" style="fill:none;fill-rule:evenodd;stroke:#191919;stroke-width:2.0px;stroke-linecap:butt;stroke-linejoin:miter;stroke-opacity:1"/>
<path class="bond-0 atom-0 atom-1" d="M 738.5,599.3 L 717.4,635.7" style="fill:none;fill-rule:evenodd;stroke:#FF0000;stroke-width:2.0px;stroke-linecap:butt;stroke-linejoin:miter;stroke-opacity:1"/>
<path class="bond-1 atom-1 atom-2" d="M 690.6,653.6 L 645.3,653.6" style="fill:none;fill-rule:evenodd;stroke:#FF0000;stroke-width:2.0px;stroke-linecap:butt;stroke-linejoin:miter;stroke-opacity:1"/>
<path class="bond-1 atom-1 atom-2" d="M 645.3,653.6 L 600.0,653.6" style="fill:none;fill-rule:evenodd;stroke:#000000;stroke-width:2.0px;stroke-linecap:butt;stroke-linejoin:miter;stroke-opacity:1"/>
<path class="bond-2 atom-2 atom-3" d="M 600.0,653.6 L 546.4,746.3" style="fill:none;fill-rule:evenodd;stroke:#000000;stroke-width:2.0px;stroke-linecap:butt;stroke-linejoin:miter;stroke-opacity:1"/>
<path class="bond-3 atom-2 atom-4" d="M 600.0,653.6 L 546.4,560.8" style="fill:none;fill-rule:evenodd;stroke:#000000;stroke-width:2.0px;stroke-linecap:butt;stroke-linejoin:miter;stroke-opacity:1"/>
<path class="bond-4 atom-4 atom-5" d="M 546.4,560.8 L 498.0,560.8" style="fill:none;fill-rule:evenodd;stroke:#000000;stroke-width:2.0px;stroke-linecap:butt;stroke-linejoin:miter;stroke-opacity:1"/>
<path class="bond-4 atom-4 atom-5" d="M 498.0,560.8 L 449.5,560.8" style="fill:none;fill-rule:evenodd;stroke:#191919;stroke-width:2.0px;stroke-linecap:butt;stroke-linejoin:miter;stroke-opacity:1"/>
<path class="bond-5 atom-4 atom-6" d="M 551.1,568.8 L 573.7,529.6" style="fill:none;fill-rule:evenodd;stroke:#000000;stroke-width:2.0px;stroke-linecap:butt;stroke-linejoin:miter;stroke-opacity:1"/>
<path class="bond-5 atom-4 atom-6" d="M 573.7,529.6 L 596.4,490.3" style="fill:none;fill-rule:evenodd;stroke:#FF0000;stroke-width:2.0px;stroke-linecap:butt;stroke-linejoin:miter;stroke-opacity:1"/>
<path class="bond-5 atom-4 atom-6" d="M 537.2,560.8 L 559.8,521.5" style="fill:none;fill-rule:evenodd;stroke:#000000;stroke-width:2.0px;stroke-linecap:butt;stroke-linejoin:miter;stroke-opacity:1"/>
<path class="bond-5 atom-4 atom-6" d="M 559.8,521.5 L 582.5,482.3" style="fill:none;fill-rule:evenodd;stroke:#FF0000;stroke-width:2.0px;stroke-linecap:butt;stroke-linejoin:miter;stroke-opacity:1"/>
<path d="M 549.1,565.4 L 546.4,560.8 L 544.0,560.8" style="fill:none;stroke:#000000;stroke-width:2.0px;stroke-linecap:butt;stroke-linejoin:miter;stroke-opacity:1;"/>
<path class="atom-0" d="M 755.4 557.6 L 759.5 553.4 L 754.0 552.2 L 754.8 549.4 L 759.9 552.0 L 759.2 546.4 L 762.2 546.4 L 761.4 551.9 L 766.5 549.5 L 767.4 552.2 L 761.8 553.3 L 765.8 557.6 L 763.4 559.3 L 760.6 554.0 L 757.8 559.3 L 755.4 557.6 " fill="#191919"/>
<path class="atom-1" d="M 694.1 653.6 Q 694.1 646.8, 697.5 643.0 Q 700.9 639.2, 707.1 639.2 Q 713.4 639.2, 716.8 643.0 Q 720.1 646.8, 720.1 653.6 Q 720.1 660.5, 716.7 664.4 Q 713.3 668.3, 707.1 668.3 Q 700.9 668.3, 697.5 664.4 Q 694.1 660.6, 694.1 653.6 M 707.1 665.1 Q 711.5 665.1, 713.8 662.2 Q 716.1 659.3, 716.1 653.6 Q 716.1 648.1, 713.8 645.3 Q 711.5 642.4, 707.1 642.4 Q 702.8 642.4, 700.5 645.2 Q 698.1 648.0, 698.1 653.6 Q 698.1 659.4, 700.5 662.2 Q 702.8 665.1, 707.1 665.1 " fill="#FF0000"/>
<path class="atom-5" d="M 434.0 557.6 L 438.1 553.4 L 432.6 552.2 L 433.4 549.4 L 438.5 552.0 L 437.8 546.4 L 440.8 546.4 L 440.0 551.9 L 445.1 549.5 L 446.0 552.2 L 440.4 553.3 L 444.4 557.6 L 442.0 559.3 L 439.2 554.0 L 436.4 559.3 L 434.0 557.6 " fill="#191919"/>
<path class="atom-6" d="M 587.0 468.1 Q 587.0 461.3, 590.4 457.5 Q 593.7 453.7, 600.0 453.7 Q 606.3 453.7, 609.6 457.5 Q 613.0 461.3, 613.0 468.1 Q 613.0 474.9, 609.6 478.9 Q 606.2 482.7, 600.0 482.7 Q 593.8 482.7, 590.4 478.9 Q 587.0 475.0, 587.0 468.1 M 600.0 479.5 Q 604.3 479.5, 606.6 476.7 Q 609.0 473.7, 609.0 468.1 Q 609.0 462.5, 606.6 459.7 Q 604.3 456.9, 600.0 456.9 Q 595.7 456.9, 593.3 459.7 Q 591.0 462.5, 591.0 468.1 Q 591.0 473.8, 593.3 476.7 Q 595.7 479.5, 600.0 479.5 " fill="#FF0000"/>
</svg>