<svg xmlns="http://www.w3.org/2000/svg" xmlns:rdkit="http://www.rdkit.org/xml" xmlns:xlink="http://www.w3.org/1999/xlink" version="1.1" baseProfile="full" xml:space="preserve" width="1200px" height="800px" viewBox="0 0 1200 800">
<!-- END OF HEADER -->
<rect style="opacity:1.0;fill:#FFFFFF;stroke:none" width="1200.0" height="800.0" x="0.0" y="0.0"> </rect>
<path class="bond-0 atom-0 atom-1" d="M 1133.6,207.3 L 1108.3,234.1" style="fill:none;fill-rule:evenodd;stroke:#191919;stroke-width:2.0px;stroke-linecap:butt;stroke-linejoin:miter;stroke-opacity:1"/>
<path class="bond-0 atom-0 atom-1" d="M 1108.3,234.1 L 1083.0,260.9" style="fill:none;fill-rule:evenodd;stroke:#000000;stroke-width:2.0px;stroke-linecap:butt;stroke-linejoin:miter;stroke-opacity:1"/>
<path class="bond-1 atom-1 atom-2" d="M 1083.0,260.9 L 1009.3,243.5" style="fill:none;fill-rule:evenodd;stroke:#000000;stroke-width:2.0px;stroke-linecap:butt;stroke-linejoin:miter;stroke-opacity:1"/>
<path class="bond-2 atom-2 atom-3" d="M 1009.3,243.5 L 991.9,317.1" style="fill:none;fill-rule:evenodd;stroke:#000000;stroke-width:2.0px;stroke-linecap:butt;stroke-linejoin:miter;stroke-opacity:1"/>
<path class="bond-3 atom-2 atom-4" d="M 1009.3,243.5 L 1026.8,169.8" style="fill:none;fill-rule:evenodd;stroke:#000000;stroke-width:2.0px;stroke-linecap:butt;stroke-linejoin:miter;stroke-opacity:1"/>
<path class="bond-4 atom-2 atom-5" d="M 1009.3,243.5 L 935.7,226.0" style="fill:none;fill-rule:evenodd;stroke:#000000;stroke-width:2.0px;stroke-linecap:butt;stroke-linejoin:miter;stroke-opacity:1"/>
<path class="bond-5 atom-5 atom-6" d="M 935.7,226.0 L 915.9,247.0" style="fill:none;fill-rule:evenodd;stroke:#000000;stroke-width:2.0px;stroke-linecap:butt;stroke-linejoin:miter;stroke-opacity:1"/>
<path class="bond-5 atom-5 atom-6" d="M 915.9,247.0 L 896.1,268.0" style="fill:none;fill-rule:evenodd;stroke:#FF0000;stroke-width:2.0px;stroke-linecap:butt;stroke-linejoin:miter;stroke-opacity:1"/>
<path class="bond-6 atom-6 atom-7" d="M 871.4,278.1 L 840.7,270.8" style="fill:none;fill-rule:evenodd;stroke:#FF0000;stroke-width:2.0px;stroke-linecap:butt;stroke-linejoin:miter;stroke-opacity:1"/>
<path class="bond-6 atom-6 atom-7" d="M 840.7,270.8 L 810.1,263.6" style="fill:none;fill-rule:evenodd;stroke:#000000;stroke-width:2.0px;stroke-linecap:butt;stroke-linejoin:miter;stroke-opacity:1"/>
<path class="bond-7 atom-7 atom-8" d="M 810.1,263.6 L 788.4,191.1" style="fill:none;fill-rule:evenodd;stroke:#000000;stroke-width:2.0px;stroke-linecap:butt;stroke-linejoin:miter;stroke-opacity:1"/>
<path class="bond-8 atom-8 atom-9" d="M 788.4,191.1 L 840.4,136.0" style="fill:none;fill-rule:evenodd;stroke:#000000;stroke-width:2.0px;stroke-linecap:butt;stroke-linejoin:miter;stroke-opacity:1"/>
<path class="bond-9 atom-9 atom-10" d="M 840.4,136.0 L 871.0,143.3" style="fill:none;fill-rule:evenodd;stroke:#000000;stroke-width:2.0px;stroke-linecap:butt;stroke-linejoin:miter;stroke-opacity:1"/>
<path class="bond-9 atom-9 atom-10" d="M 871.0,143.3 L 901.7,150.6" style="fill:none;fill-rule:evenodd;stroke:#FF0000;stroke-width:2.0px;stroke-linecap:butt;stroke-linejoin:miter;stroke-opacity:1"/>
<path class="bond-10 atom-8 atom-11" d="M 788.4,191.1 L 766.7,118.5" style="fill:none;fill-rule:evenodd;stroke:#000000;stroke-width:2.0px;stroke-linecap:butt;stroke-linejoin:miter;stroke-opacity:1"/>
<path class="bond-11 atom-11 atom-12" d="M 766.7,118.5 L 736.1,111.3" style="fill:none;fill-rule:evenodd;stroke:#000000;stroke-width:2.0px;stroke-linecap:butt;stroke-linejoin:miter;stroke-opacity:1"/>
<path class="bond-11 atom-11 atom-12" d="M 736.1,111.3 L 705.4,104.0" style="fill:none;fill-rule:evenodd;stroke:#FF0000;stroke-width:2.0px;stroke-linecap:butt;stroke-linejoin:miter;stroke-opacity:1"/>
<path class="bond-12 atom-12 atom-13" d="M 680.7,114.1 L 660.9,135.1" style="fill:none;fill-rule:evenodd;stroke:#FF0000;stroke-width:2.0px;stroke-linecap:butt;stroke-linejoin:miter;stroke-opacity:1"/>
<path class="bond-12 atom-12 atom-13" d="M 660.9,135.1 L 641.1,156.1" style="fill:none;fill-rule:evenodd;stroke:#000000;stroke-width:2.0px;stroke-linecap:butt;stroke-linejoin:miter;stroke-opacity:1"/>
<path class="bond-13 atom-13 atom-14" d="M 641.1,156.1 L 567.5,138.6" style="fill:none;fill-rule:evenodd;stroke:#000000;stroke-width:2.0px;stroke-linecap:butt;stroke-linejoin:miter;stroke-opacity:1"/>
<path class="bond-14 atom-14 atom-15" d="M 567.5,138.6 L 584.9,65.0" style="fill:none;fill-rule:evenodd;stroke:#000000;stroke-width:2.0px;stroke-linecap:butt;stroke-linejoin:miter;stroke-opacity:1"/>
<path class="bond-15 atom-14 atom-16" d="M 567.5,138.6 L 550.0,212.3" style="fill:none;fill-rule:evenodd;stroke:#000000;stroke-width:2.0px;stroke-linecap:butt;stroke-linejoin:miter;stroke-opacity:1"/>
<path class="bond-16 atom-14 atom-17" d="M 567.5,138.6 L 493.8,121.2" style="fill:none;fill-rule:evenodd;stroke:#000000;stroke-width:2.0px;stroke-linecap:butt;stroke-linejoin:miter;stroke-opacity:1"/>
<path class="bond-17 atom-17 atom-18" d="M 493.8,121.2 L 474.0,142.1" style="fill:none;fill-rule:evenodd;stroke:#000000;stroke-width:2.0px;stroke-linecap:butt;stroke-linejoin:miter;stroke-opacity:1"/>
<path class="bond-17 atom-17 atom-18" d="M 474.0,142.1 L 454.2,163.1" style="fill:none;fill-rule:evenodd;stroke:#FF0000;stroke-width:2.0px;stroke-linecap:butt;stroke-linejoin:miter;stroke-opacity:1"/>
<path class="bond-18 atom-18 atom-19" d="M 429.5,173.3 L 398.9,166.0" style="fill:none;fill-rule:evenodd;stroke:#FF0000;stroke-width:2.0px;stroke-linecap:butt;stroke-linejoin:miter;stroke-opacity:1"/>
<path class="bond-18 atom-18 atom-19" d="M 398.9,166.0 L 368.2,158.7" style="fill:none;fill-rule:evenodd;stroke:#000000;stroke-width:2.0px;stroke-linecap:butt;stroke-linejoin:miter;stroke-opacity:1"/>
<path class="bond-19 atom-19 atom-20" d="M 374.6,160.2 L 365.3,129.2" style="fill:none;fill-rule:evenodd;stroke:#000000;stroke-width:2.0px;stroke-linecap:butt;stroke-linejoin:miter;stroke-opacity:1"/>
<path class="bond-19 atom-19 atom-20" d="M 365.3,129.2 L 356.1,98.2" style="fill:none;fill-rule:evenodd;stroke:#FF0000;stroke-width:2.0px;stroke-linecap:butt;stroke-linejoin:miter;stroke-opacity:1"/>
<path class="bond-19 atom-19 atom-20" d="M 363.7,163.5 L 354.5,132.5" style="fill:none;fill-rule:evenodd;stroke:#000000;stroke-width:2.0px;stroke-linecap:butt;stroke-linejoin:miter;stroke-opacity:1"/>
<path class="bond-19 atom-19 atom-20" d="M 354.5,132.5 L 345.2,101.5" style="fill:none;fill-rule:evenodd;stroke:#FF0000;stroke-width:2.0px;stroke-linecap:butt;stroke-linejoin:miter;stroke-opacity:1"/>
<path class="bond-20 atom-19 atom-21" d="M 368.2,158.7 L 316.3,213.8" style="fill:none;fill-rule:evenodd;stroke:#000000;stroke-width:2.0px;stroke-linecap:butt;stroke-linejoin:miter;stroke-opacity:1"/>
<path class="bond-21 atom-21 atom-22" d="M 316.3,213.8 L 242.6,196.3" style="fill:none;fill-rule:evenodd;stroke:#000000;stroke-width:2.0px;stroke-linecap:butt;stroke-linejoin:miter;stroke-opacity:1"/>
<path class="bond-22 atom-22 atom-23" d="M 242.6,196.3 L 190.7,251.3" style="fill:none;fill-rule:evenodd;stroke:#000000;stroke-width:2.0px;stroke-linecap:butt;stroke-linejoin:miter;stroke-opacity:1"/>
<path class="bond-23 atom-23 atom-24" d="M 184.3,249.8 L 193.6,281.0" style="fill:none;fill-rule:evenodd;stroke:#000000;stroke-width:2.0px;stroke-linecap:butt;stroke-linejoin:miter;stroke-opacity:1"/>
<path class="bond-23 atom-23 atom-24" d="M 193.6,281.0 L 202.9,312.1" style="fill:none;fill-rule:evenodd;stroke:#FF0000;stroke-width:2.0px;stroke-linecap:butt;stroke-linejoin:miter;stroke-opacity:1"/>
<path class="bond-23 atom-23 atom-24" d="M 195.2,246.6 L 204.5,277.7" style="fill:none;fill-rule:evenodd;stroke:#000000;stroke-width:2.0px;stroke-linecap:butt;stroke-linejoin:miter;stroke-opacity:1"/>
<path class="bond-23 atom-23 atom-24" d="M 204.5,277.7 L 213.8,308.9" style="fill:none;fill-rule:evenodd;stroke:#FF0000;stroke-width:2.0px;stroke-linecap:butt;stroke-linejoin:miter;stroke-opacity:1"/>
<path class="bond-24 atom-23 atom-25" d="M 190.7,251.3 L 160.0,244.1" style="fill:none;fill-rule:evenodd;stroke:#000000;stroke-width:2.0px;stroke-linecap:butt;stroke-linejoin:miter;stroke-opacity:1"/>
<path class="bond-24 atom-23 atom-25" d="M 160.0,244.1 L 129.4,236.8" style="fill:none;fill-rule:evenodd;stroke:#FF0000;stroke-width:2.0px;stroke-linecap:butt;stroke-linejoin:miter;stroke-opacity:1"/>
<path class="bond-25 atom-25 atom-26" d="M 104.7,246.9 L 88.7,263.9" style="fill:none;fill-rule:evenodd;stroke:#FF0000;stroke-width:2.0px;stroke-linecap:butt;stroke-linejoin:miter;stroke-opacity:1"/>
<path class="bond-25 atom-25 atom-26" d="M 88.7,263.9 L 72.6,280.9" style="fill:none;fill-rule:evenodd;stroke:#191919;stroke-width:2.0px;stroke-linecap:butt;stroke-linejoin:miter;stroke-opacity:1"/>
<path class="bond-26 atom-13 atom-27" d="M 641.1,156.1 L 650.0,185.7" style="fill:none;fill-rule:evenodd;stroke:#000000;stroke-width:2.0px;stroke-linecap:butt;stroke-linejoin:miter;stroke-opacity:1"/>
<path class="bond-26 atom-13 atom-27" d="M 650.0,185.7 L 658.8,215.3" style="fill:none;fill-rule:evenodd;stroke:#FF0000;stroke-width:2.0px;stroke-linecap:butt;stroke-linejoin:miter;stroke-opacity:1"/>
<path class="bond-27 atom-27 atom-28" d="M 675.1,231.5 L 705.8,238.8" style="fill:none;fill-rule:evenodd;stroke:#FF0000;stroke-width:2.0px;stroke-linecap:butt;stroke-linejoin:miter;stroke-opacity:1"/>
<path class="bond-27 atom-27 atom-28" d="M 705.8,238.8 L 736.4,246.1" style="fill:none;fill-rule:evenodd;stroke:#000000;stroke-width:2.0px;stroke-linecap:butt;stroke-linejoin:miter;stroke-opacity:1"/>
<path class="bond-28 atom-10 atom-5" d="M 918.1,167.2 L 926.9,196.6" style="fill:none;fill-rule:evenodd;stroke:#FF0000;stroke-width:2.0px;stroke-linecap:butt;stroke-linejoin:miter;stroke-opacity:1"/>
<path class="bond-28 atom-10 atom-5" d="M 926.9,196.6 L 935.7,226.0" style="fill:none;fill-rule:evenodd;stroke:#000000;stroke-width:2.0px;stroke-linecap:butt;stroke-linejoin:miter;stroke-opacity:1"/>
<path class="bond-29 atom-28 atom-8" d="M 736.4,246.1 L 788.4,191.1" style="fill:none;fill-rule:evenodd;stroke:#000000;stroke-width:2.0px;stroke-linecap:butt;stroke-linejoin:miter;stroke-opacity:1"/>
<path d="M 1084.2,259.6 L 1083.0,260.9 L 1079.3,260.1" style="fill:none;stroke:#000000;stroke-width:2.0px;stroke-linecap:butt;stroke-linejoin:miter;stroke-opacity:1;"/>
<path d="M 811.6,263.9 L 810.1,263.6 L 809.0,259.9" style="fill:none;stroke:#000000;stroke-width:2.0px;stroke-linecap:butt;stroke-linejoin:miter;stroke-opacity:1;"/>
<path d="M 837.8,138.8 L 840.4,136.0 L 841.9,136.4" style="fill:none;stroke:#000000;stroke-width:2.0px;stroke-linecap:butt;stroke-linejoin:miter;stroke-opacity:1;"/>
<path d="M 767.8,122.2 L 766.7,118.5 L 765.2,118.2" style="fill:none;stroke:#000000;stroke-width:2.0px;stroke-linecap:butt;stroke-linejoin:miter;stroke-opacity:1;"/>
<path d="M 497.5,122.0 L 493.8,121.2 L 492.8,122.2" style="fill:none;stroke:#000000;stroke-width:2.0px;stroke-linecap:butt;stroke-linejoin:miter;stroke-opacity:1;"/>
<path d="M 369.8,159.1 L 368.2,158.7 L 365.6,161.5" style="fill:none;stroke:#000000;stroke-width:2.0px;stroke-linecap:butt;stroke-linejoin:miter;stroke-opacity:1;"/>
<path d="M 318.9,211.0 L 316.3,213.8 L 312.6,212.9" style="fill:none;stroke:#000000;stroke-width:2.0px;stroke-linecap:butt;stroke-linejoin:miter;stroke-opacity:1;"/>
<path d="M 246.3,197.2 L 242.6,196.3 L 240.0,199.0" style="fill:none;stroke:#000000;stroke-width:2.0px;stroke-linecap:butt;stroke-linejoin:miter;stroke-opacity:1;"/>
<path d="M 193.3,248.6 L 190.7,251.3 L 189.1,251.0" style="fill:none;stroke:#000000;stroke-width:2.0px;stroke-linecap:butt;stroke-linejoin:miter;stroke-opacity:1;"/>
<path d="M 734.9,245.7 L 736.4,246.1 L 739.0,243.3" style="fill:none;stroke:#000000;stroke-width:2.0px;stroke-linecap:butt;stroke-linejoin:miter;stroke-opacity:1;"/>
<path class="atom-0" d="M 1130.9 203.5 L 1134.0 200.3 L 1129.9 199.5 L 1130.5 197.3 L 1134.3 199.2 L 1133.8 195.0 L 1136.1 195.0 L 1135.4 199.2 L 1139.3 197.4 L 1140.0 199.5 L 1135.8 200.2 L 1138.8 203.5 L 1136.9 204.8 L 1134.9 200.8 L 1132.7 204.8 L 1130.9 203.5 " fill="#191919"/>
<path class="atom-6" d="M 873.9 281.1 Q 873.9 276.0, 876.4 273.1 Q 879.0 270.2, 883.7 270.2 Q 888.5 270.2, 891.0 273.1 Q 893.6 276.0, 893.6 281.1 Q 893.6 286.3, 891.0 289.3 Q 888.4 292.2, 883.7 292.2 Q 879.0 292.2, 876.4 289.3 Q 873.9 286.3, 873.9 281.1 M 883.7 289.8 Q 887.0 289.8, 888.8 287.6 Q 890.5 285.4, 890.5 281.1 Q 890.5 276.9, 888.8 274.8 Q 887.0 272.6, 883.7 272.6 Q 880.5 272.6, 878.7 274.7 Q 876.9 276.9, 876.9 281.1 Q 876.9 285.4, 878.7 287.6 Q 880.5 289.8, 883.7 289.8 " fill="#FF0000"/>
<path class="atom-10" d="M 904.2 153.5 Q 904.2 148.4, 906.7 145.5 Q 909.2 142.6, 914.0 142.6 Q 918.8 142.6, 921.3 145.5 Q 923.8 148.4, 923.8 153.5 Q 923.8 158.8, 921.3 161.7 Q 918.7 164.7, 914.0 164.7 Q 909.3 164.7, 906.7 161.7 Q 904.2 158.8, 904.2 153.5 M 914.0 162.2 Q 917.3 162.2, 919.0 160.1 Q 920.8 157.8, 920.8 153.5 Q 920.8 149.3, 919.0 147.2 Q 917.3 145.1, 914.0 145.1 Q 910.7 145.1, 908.9 147.2 Q 907.2 149.3, 907.2 153.5 Q 907.2 157.9, 908.9 160.1 Q 910.7 162.2, 914.0 162.2 " fill="#FF0000"/>
<path class="atom-12" d="M 683.2 101.1 Q 683.2 96.0, 685.8 93.1 Q 688.3 90.2, 693.1 90.2 Q 697.8 90.2, 700.4 93.1 Q 702.9 96.0, 702.9 101.1 Q 702.9 106.3, 700.3 109.3 Q 697.8 112.2, 693.1 112.2 Q 688.3 112.2, 685.8 109.3 Q 683.2 106.4, 683.2 101.1 M 693.1 109.8 Q 696.3 109.8, 698.1 107.6 Q 699.9 105.4, 699.9 101.1 Q 699.9 96.9, 698.1 94.8 Q 696.3 92.6, 693.1 92.6 Q 689.8 92.6, 688.0 94.8 Q 686.3 96.9, 686.3 101.1 Q 686.3 105.5, 688.0 107.6 Q 689.8 109.8, 693.1 109.8 " fill="#FF0000"/>
<path class="atom-18" d="M 432.0 176.3 Q 432.0 171.1, 434.6 168.2 Q 437.1 165.4, 441.9 165.4 Q 446.6 165.4, 449.2 168.2 Q 451.7 171.1, 451.7 176.3 Q 451.7 181.5, 449.1 184.4 Q 446.6 187.4, 441.9 187.4 Q 437.1 187.4, 434.6 184.4 Q 432.0 181.5, 432.0 176.3 M 441.9 184.9 Q 445.1 184.9, 446.9 182.8 Q 448.7 180.6, 448.7 176.3 Q 448.7 172.0, 446.9 169.9 Q 445.1 167.8, 441.9 167.8 Q 438.6 167.8, 436.8 169.9 Q 435.1 172.0, 435.1 176.3 Q 435.1 180.6, 436.8 182.8 Q 438.6 184.9, 441.9 184.9 " fill="#FF0000"/>
<path class="atom-20" d="M 336.7 86.3 Q 336.7 81.1, 339.2 78.2 Q 341.8 75.4, 346.5 75.4 Q 351.3 75.4, 353.8 78.2 Q 356.4 81.1, 356.4 86.3 Q 356.4 91.5, 353.8 94.4 Q 351.2 97.4, 346.5 97.4 Q 341.8 97.4, 339.2 94.4 Q 336.7 91.5, 336.7 86.3 M 346.5 95.0 Q 349.8 95.0, 351.6 92.8 Q 353.3 90.6, 353.3 86.3 Q 353.3 82.1, 351.6 79.9 Q 349.8 77.8, 346.5 77.8 Q 343.3 77.8, 341.5 79.9 Q 339.7 82.0, 339.7 86.3 Q 339.7 90.6, 341.5 92.8 Q 343.3 95.0, 346.5 95.0 " fill="#FF0000"/>
<path class="atom-24" d="M 202.5 323.9 Q 202.5 318.8, 205.1 315.9 Q 207.6 313.0, 212.4 313.0 Q 217.1 313.0, 219.7 315.9 Q 222.2 318.8, 222.2 323.9 Q 222.2 329.1, 219.6 332.1 Q 217.1 335.0, 212.4 335.0 Q 207.6 335.0, 205.1 332.1 Q 202.5 329.1, 202.5 323.9 M 212.4 332.6 Q 215.6 332.6, 217.4 330.4 Q 219.2 328.2, 219.2 323.9 Q 219.2 319.7, 217.4 317.6 Q 215.6 315.4, 212.4 315.4 Q 209.1 315.4, 207.3 317.5 Q 205.5 319.7, 205.5 323.9 Q 205.5 328.2, 207.3 330.4 Q 209.1 332.6, 212.4 332.6 " fill="#FF0000"/>
<path class="atom-25" d="M 107.2 233.9 Q 107.2 228.8, 109.7 225.9 Q 112.3 223.0, 117.0 223.0 Q 121.8 223.0, 124.3 225.9 Q 126.9 228.8, 126.9 233.9 Q 126.9 239.1, 124.3 242.1 Q 121.7 245.0, 117.0 245.0 Q 112.3 245.0, 109.7 242.1 Q 107.2 239.2, 107.2 233.9 M 117.0 242.6 Q 120.3 242.6, 122.1 240.4 Q 123.8 238.2, 123.8 233.9 Q 123.8 229.7, 122.1 227.6 Q 120.3 225.4, 117.0 225.4 Q 113.8 225.4, 112.0 227.6 Q 110.2 229.7, 110.2 233.9 Q 110.2 238.2, 112.0 240.4 Q 113.8 242.6, 117.0 242.6 " fill="#FF0000"/>
<path class="atom-26" d="M 61.0 286.5 L 64.2 283.3 L 60.0 282.4 L 60.6 280.3 L 64.5 282.2 L 63.9 278.0 L 66.2 278.0 L 65.6 282.2 L 69.5 280.4 L 70.1 282.4 L 65.9 283.2 L 68.9 286.5 L 67.1 287.8 L 65.0 283.8 L 62.9 287.8 L 61.0 286.5 " fill="#191919"/>
<path class="atom-27" d="M 653.0 228.7 Q 653.0 223.5, 655.5 220.7 Q 658.0 217.8, 662.8 217.8 Q 667.6 217.8, 670.1 220.7 Q 672.6 223.5, 672.6 228.7 Q 672.6 233.9, 670.1 236.9 Q 667.5 239.8, 662.8 239.8 Q 658.1 239.8, 655.5 236.9 Q 653.0 233.9, 653.0 228.7 M 662.8 237.4 Q 666.1 237.4, 667.8 235.2 Q 669.6 233.0, 669.6 228.7 Q 669.6 224.5, 667.8 222.4 Q 666.1 220.2, 662.8 220.2 Q 659.5 220.2, 657.7 222.3 Q 656.0 224.4, 656.0 228.7 Q 656.0 233.0, 657.7 235.2 Q 659.5 237.4, 662.8 237.4 " fill="#FF0000"/>
<path class="bond-0 atom-0 atom-1" d="M 957.8,573.1 L 932.7,588.2" style="fill:none;fill-rule:evenodd;stroke:#191919;stroke-width:2.0px;stroke-linecap:butt;stroke-linejoin:miter;stroke-opacity:1"/>
<path class="bond-0 atom-0 atom-1" d="M 932.7,588.2 L 907.6,603.3" style="fill:none;fill-rule:evenodd;stroke:#FF0000;stroke-width:2.0px;stroke-linecap:butt;stroke-linejoin:miter;stroke-opacity:1"/>
<path class="bond-1 atom-1 atom-2" d="M 882.9,603.8 L 856.0,588.9" style="fill:none;fill-rule:evenodd;stroke:#FF0000;stroke-width:2.0px;stroke-linecap:butt;stroke-linejoin:miter;stroke-opacity:1"/>
<path class="bond-1 atom-1 atom-2" d="M 856.0,588.9 L 829.1,573.9" style="fill:none;fill-rule:evenodd;stroke:#000000;stroke-width:2.0px;stroke-linecap:butt;stroke-linejoin:miter;stroke-opacity:1"/>
<path class="bond-2 atom-2 atom-3" d="M 829.1,573.9 L 764.2,612.8" style="fill:none;fill-rule:evenodd;stroke:#000000;stroke-width:2.0px;stroke-linecap:butt;stroke-linejoin:miter;stroke-opacity:1"/>
<path class="bond-3 atom-3 atom-4" d="M 764.2,612.8 L 698.0,576.1" style="fill:none;fill-rule:evenodd;stroke:#000000;stroke-width:2.0px;stroke-linecap:butt;stroke-linejoin:miter;stroke-opacity:1"/>
<path class="bond-4 atom-4 atom-5" d="M 698.0,576.1 L 633.1,615.0" style="fill:none;fill-rule:evenodd;stroke:#000000;stroke-width:2.0px;stroke-linecap:butt;stroke-linejoin:miter;stroke-opacity:1"/>
<path class="bond-5 atom-5 atom-6" d="M 633.1,615.0 L 606.2,600.0" style="fill:none;fill-rule:evenodd;stroke:#000000;stroke-width:2.0px;stroke-linecap:butt;stroke-linejoin:miter;stroke-opacity:1"/>
<path class="bond-5 atom-5 atom-6" d="M 606.2,600.0 L 579.3,585.1" style="fill:none;fill-rule:evenodd;stroke:#FF0000;stroke-width:2.0px;stroke-linecap:butt;stroke-linejoin:miter;stroke-opacity:1"/>
<path class="bond-6 atom-6 atom-7" d="M 554.6,585.6 L 528.3,601.4" style="fill:none;fill-rule:evenodd;stroke:#FF0000;stroke-width:2.0px;stroke-linecap:butt;stroke-linejoin:miter;stroke-opacity:1"/>
<path class="bond-6 atom-6 atom-7" d="M 528.3,601.4 L 502.0,617.1" style="fill:none;fill-rule:evenodd;stroke:#000000;stroke-width:2.0px;stroke-linecap:butt;stroke-linejoin:miter;stroke-opacity:1"/>
<path class="bond-7 atom-7 atom-8" d="M 496.3,614.0 L 496.8,646.8" style="fill:none;fill-rule:evenodd;stroke:#000000;stroke-width:2.0px;stroke-linecap:butt;stroke-linejoin:miter;stroke-opacity:1"/>
<path class="bond-7 atom-7 atom-8" d="M 496.8,646.8 L 497.4,679.6" style="fill:none;fill-rule:evenodd;stroke:#FF0000;stroke-width:2.0px;stroke-linecap:butt;stroke-linejoin:miter;stroke-opacity:1"/>
<path class="bond-7 atom-7 atom-8" d="M 507.6,613.8 L 508.2,646.6" style="fill:none;fill-rule:evenodd;stroke:#000000;stroke-width:2.0px;stroke-linecap:butt;stroke-linejoin:miter;stroke-opacity:1"/>
<path class="bond-7 atom-7 atom-8" d="M 508.2,646.6 L 508.7,679.4" style="fill:none;fill-rule:evenodd;stroke:#FF0000;stroke-width:2.0px;stroke-linecap:butt;stroke-linejoin:miter;stroke-opacity:1"/>
<path class="bond-8 atom-7 atom-9" d="M 502.0,617.1 L 435.8,580.4" style="fill:none;fill-rule:evenodd;stroke:#000000;stroke-width:2.0px;stroke-linecap:butt;stroke-linejoin:miter;stroke-opacity:1"/>
<path class="bond-9 atom-9 atom-10" d="M 435.8,580.4 L 370.9,619.3" style="fill:none;fill-rule:evenodd;stroke:#000000;stroke-width:2.0px;stroke-linecap:butt;stroke-linejoin:miter;stroke-opacity:1"/>
<path class="bond-10 atom-10 atom-11" d="M 370.9,619.3 L 304.8,582.5" style="fill:none;fill-rule:evenodd;stroke:#000000;stroke-width:2.0px;stroke-linecap:butt;stroke-linejoin:miter;stroke-opacity:1"/>
<path class="bond-11 atom-11 atom-12" d="M 304.8,582.5 L 276.1,599.7" style="fill:none;fill-rule:evenodd;stroke:#000000;stroke-width:2.0px;stroke-linecap:butt;stroke-linejoin:miter;stroke-opacity:1"/>
<path class="bond-11 atom-11 atom-12" d="M 276.1,599.7 L 247.4,616.9" style="fill:none;fill-rule:evenodd;stroke:#191919;stroke-width:2.0px;stroke-linecap:butt;stroke-linejoin:miter;stroke-opacity:1"/>
<path class="bond-12 atom-11 atom-13" d="M 310.5,585.7 L 310.0,553.1" style="fill:none;fill-rule:evenodd;stroke:#000000;stroke-width:2.0px;stroke-linecap:butt;stroke-linejoin:miter;stroke-opacity:1"/>
<path class="bond-12 atom-11 atom-13" d="M 310.0,553.1 L 309.4,520.4" style="fill:none;fill-rule:evenodd;stroke:#FF0000;stroke-width:2.0px;stroke-linecap:butt;stroke-linejoin:miter;stroke-opacity:1"/>
<path class="bond-12 atom-11 atom-13" d="M 299.1,585.9 L 298.6,553.3" style="fill:none;fill-rule:evenodd;stroke:#000000;stroke-width:2.0px;stroke-linecap:butt;stroke-linejoin:miter;stroke-opacity:1"/>
<path class="bond-12 atom-11 atom-13" d="M 298.6,553.3 L 298.1,520.6" style="fill:none;fill-rule:evenodd;stroke:#FF0000;stroke-width:2.0px;stroke-linecap:butt;stroke-linejoin:miter;stroke-opacity:1"/>
<path d="M 830.4,574.6 L 829.1,573.9 L 825.8,575.8" style="fill:none;stroke:#000000;stroke-width:2.0px;stroke-linecap:butt;stroke-linejoin:miter;stroke-opacity:1;"/>
<path d="M 767.4,610.9 L 764.2,612.8 L 760.9,611.0" style="fill:none;stroke:#000000;stroke-width:2.0px;stroke-linecap:butt;stroke-linejoin:miter;stroke-opacity:1;"/>
<path d="M 701.3,577.9 L 698.0,576.1 L 694.8,578.0" style="fill:none;stroke:#000000;stroke-width:2.0px;stroke-linecap:butt;stroke-linejoin:miter;stroke-opacity:1;"/>
<path d="M 636.3,613.0 L 633.1,615.0 L 631.7,614.2" style="fill:none;stroke:#000000;stroke-width:2.0px;stroke-linecap:butt;stroke-linejoin:miter;stroke-opacity:1;"/>
<path d="M 503.3,616.3 L 502.0,617.1 L 498.7,615.3" style="fill:none;stroke:#000000;stroke-width:2.0px;stroke-linecap:butt;stroke-linejoin:miter;stroke-opacity:1;"/>
<path d="M 439.1,582.2 L 435.8,580.4 L 432.6,582.3" style="fill:none;stroke:#000000;stroke-width:2.0px;stroke-linecap:butt;stroke-linejoin:miter;stroke-opacity:1;"/>
<path d="M 374.2,617.3 L 370.9,619.3 L 367.6,617.5" style="fill:none;stroke:#000000;stroke-width:2.0px;stroke-linecap:butt;stroke-linejoin:miter;stroke-opacity:1;"/>
<path d="M 308.1,584.4 L 304.8,582.5 L 303.3,583.4" style="fill:none;stroke:#000000;stroke-width:2.0px;stroke-linecap:butt;stroke-linejoin:miter;stroke-opacity:1;"/>
<path class="atom-0" d="M 956.1 569.4 L 959.3 566.1 L 955.1 565.3 L 955.7 563.1 L 959.6 565.1 L 959.0 560.9 L 961.3 560.8 L 960.7 565.1 L 964.6 563.2 L 965.2 565.3 L 961.0 566.1 L 964.0 569.3 L 962.2 570.7 L 960.1 566.7 L 958.0 570.7 L 956.1 569.4 " fill="#191919"/>
<path class="atom-1" d="M 885.4 610.7 Q 885.4 605.6, 887.9 602.7 Q 890.5 599.8, 895.2 599.8 Q 900.0 599.8, 902.5 602.7 Q 905.1 605.6, 905.1 610.7 Q 905.1 615.9, 902.5 618.9 Q 899.9 621.8, 895.2 621.8 Q 890.5 621.8, 887.9 618.9 Q 885.4 616.0, 885.4 610.7 M 895.2 619.4 Q 898.5 619.4, 900.3 617.2 Q 902.1 615.0, 902.1 610.7 Q 902.1 606.5, 900.3 604.4 Q 898.5 602.2, 895.2 602.2 Q 892.0 602.2, 890.2 604.4 Q 888.4 606.5, 888.4 610.7 Q 888.4 615.1, 890.2 617.2 Q 892.0 619.4, 895.2 619.4 " fill="#FF0000"/>
<path class="atom-6" d="M 557.1 578.3 Q 557.1 573.1, 559.6 570.3 Q 562.2 567.4, 566.9 567.4 Q 571.7 567.4, 574.2 570.3 Q 576.8 573.1, 576.8 578.3 Q 576.8 583.5, 574.2 586.5 Q 571.6 589.4, 566.9 589.4 Q 562.2 589.4, 559.6 586.5 Q 557.1 583.5, 557.1 578.3 M 566.9 587.0 Q 570.2 587.0, 571.9 584.8 Q 573.7 582.6, 573.7 578.3 Q 573.7 574.1, 571.9 571.9 Q 570.2 569.8, 566.9 569.8 Q 563.6 569.8, 561.9 571.9 Q 560.1 574.0, 560.1 578.3 Q 560.1 582.6, 561.9 584.8 Q 563.6 587.0, 566.9 587.0 " fill="#FF0000"/>
<path class="atom-8" d="M 493.4 692.9 Q 493.4 687.7, 496.0 684.9 Q 498.5 682.0, 503.2 682.0 Q 508.0 682.0, 510.5 684.9 Q 513.1 687.7, 513.1 692.9 Q 513.1 698.1, 510.5 701.0 Q 507.9 704.0, 503.2 704.0 Q 498.5 704.0, 496.0 701.0 Q 493.4 698.1, 493.4 692.9 M 503.2 701.6 Q 506.5 701.6, 508.3 699.4 Q 510.1 697.2, 510.1 692.9 Q 510.1 688.7, 508.3 686.5 Q 506.5 684.4, 503.2 684.4 Q 500.0 684.4, 498.2 686.5 Q 496.4 688.6, 496.4 692.9 Q 496.4 697.2, 498.2 699.4 Q 500.0 701.6, 503.2 701.6 " fill="#FF0000"/>
<path class="atom-12" d="M 235.8 619.1 L 239.0 615.8 L 234.8 615.0 L 235.4 612.9 L 239.3 614.8 L 238.7 610.6 L 241.0 610.6 L 240.3 614.8 L 244.2 612.9 L 244.9 615.0 L 240.7 615.8 L 243.7 619.0 L 241.9 620.4 L 239.8 616.4 L 237.6 620.4 L 235.8 619.1 " fill="#191919"/>
<path class="atom-13" d="M 293.7 506.9 Q 293.7 501.8, 296.2 498.9 Q 298.8 496.0, 303.5 496.0 Q 308.3 496.0, 310.8 498.9 Q 313.4 501.8, 313.4 506.9 Q 313.4 512.1, 310.8 515.1 Q 308.2 518.0, 303.5 518.0 Q 298.8 518.0, 296.2 515.1 Q 293.7 512.2, 293.7 506.9 M 303.5 515.6 Q 306.8 515.6, 308.5 513.4 Q 310.3 511.2, 310.3 506.9 Q 310.3 502.7, 308.5 500.6 Q 306.8 498.4, 303.5 498.4 Q 300.2 498.4, 298.5 500.6 Q 296.7 502.7, 296.7 506.9 Q 296.7 511.2, 298.5 513.4 Q 300.2 515.6, 303.5 515.6 " fill="#FF0000"/>
</svg>