<svg xmlns="http://www.w3.org/2000/svg" xmlns:rdkit="http://www.rdkit.org/xml" xmlns:xlink="http://www.w3.org/1999/xlink" version="1.1" baseProfile="full" xml:space="preserve" width="1200px" height="800px" viewBox="0 0 1200 800">
<!-- END OF HEADER -->
<rect style="opacity:1.0;fill:#FFFFFF;stroke:none" width="1200.0" height="800.0" x="0.0" y="0.0"> </rect>
<path class="bond-0 atom-0 atom-1" d="M 836.7,116.4 L 813.3,166.0" style="fill:none;fill-rule:evenodd;stroke:#191919;stroke-width:2.0px;stroke-linecap:butt;stroke-linejoin:miter;stroke-opacity:1"/>
<path class="bond-0 atom-0 atom-1" d="M 813.3,166.0 L 789.9,215.7" style="fill:none;fill-rule:evenodd;stroke:#FF0000;stroke-width:2.0px;stroke-linecap:butt;stroke-linejoin:miter;stroke-opacity:1"/>
<path class="bond-1 atom-1 atom-2" d="M 763.6,235.9 L 705.7,240.7" style="fill:none;fill-rule:evenodd;stroke:#FF0000;stroke-width:2.0px;stroke-linecap:butt;stroke-linejoin:miter;stroke-opacity:1"/>
<path class="bond-1 atom-1 atom-2" d="M 705.7,240.7 L 647.7,245.5" style="fill:none;fill-rule:evenodd;stroke:#000000;stroke-width:2.0px;stroke-linecap:butt;stroke-linejoin:miter;stroke-opacity:1"/>
<path class="bond-2 atom-2 atom-3" d="M 647.7,245.5 L 590.7,366.5" style="fill:none;fill-rule:evenodd;stroke:#000000;stroke-width:2.0px;stroke-linecap:butt;stroke-linejoin:miter;stroke-opacity:1"/>
<path class="bond-3 atom-3 atom-4" d="M 590.7,366.5 L 457.4,377.6" style="fill:none;fill-rule:evenodd;stroke:#000000;stroke-width:2.0px;stroke-linecap:butt;stroke-linejoin:miter;stroke-opacity:1"/>
<path class="bond-4 atom-2 atom-5" d="M 647.7,245.5 L 571.5,135.6" style="fill:none;fill-rule:evenodd;stroke:#000000;stroke-width:2.0px;stroke-linecap:butt;stroke-linejoin:miter;stroke-opacity:1"/>
<path class="bond-5 atom-5 atom-6" d="M 571.5,135.6 L 438.2,146.7" style="fill:none;fill-rule:evenodd;stroke:#000000;stroke-width:2.0px;stroke-linecap:butt;stroke-linejoin:miter;stroke-opacity:1"/>
<path class="bond-6 atom-6 atom-7" d="M 438.2,146.7 L 401.1,93.3" style="fill:none;fill-rule:evenodd;stroke:#000000;stroke-width:2.0px;stroke-linecap:butt;stroke-linejoin:miter;stroke-opacity:1"/>
<path class="bond-6 atom-6 atom-7" d="M 401.1,93.3 L 364.0,39.8" style="fill:none;fill-rule:evenodd;stroke:#191919;stroke-width:2.0px;stroke-linecap:butt;stroke-linejoin:miter;stroke-opacity:1"/>
<path class="bond-7 atom-6 atom-8" d="M 431.6,137.2 L 406.3,190.9" style="fill:none;fill-rule:evenodd;stroke:#000000;stroke-width:2.0px;stroke-linecap:butt;stroke-linejoin:miter;stroke-opacity:1"/>
<path class="bond-7 atom-6 atom-8" d="M 406.3,190.9 L 380.9,244.7" style="fill:none;fill-rule:evenodd;stroke:#FF0000;stroke-width:2.0px;stroke-linecap:butt;stroke-linejoin:miter;stroke-opacity:1"/>
<path class="bond-7 atom-6 atom-8" d="M 449.7,145.8 L 424.4,199.5" style="fill:none;fill-rule:evenodd;stroke:#000000;stroke-width:2.0px;stroke-linecap:butt;stroke-linejoin:miter;stroke-opacity:1"/>
<path class="bond-7 atom-6 atom-8" d="M 424.4,199.5 L 399.1,253.2" style="fill:none;fill-rule:evenodd;stroke:#FF0000;stroke-width:2.0px;stroke-linecap:butt;stroke-linejoin:miter;stroke-opacity:1"/>
<path d="M 593.5,360.4 L 590.7,366.5 L 584.0,367.0" style="fill:none;stroke:#000000;stroke-width:2.0px;stroke-linecap:butt;stroke-linejoin:miter;stroke-opacity:1;"/>
<path d="M 575.3,141.1 L 571.5,135.6 L 564.8,136.2" style="fill:none;stroke:#000000;stroke-width:2.0px;stroke-linecap:butt;stroke-linejoin:miter;stroke-opacity:1;"/>
<path d="M 444.9,146.2 L 438.2,146.7 L 436.3,144.0" style="fill:none;stroke:#000000;stroke-width:2.0px;stroke-linecap:butt;stroke-linejoin:miter;stroke-opacity:1;"/>
<path class="atom-0" d="M 832.7 110.3 L 836.9 106.0 L 831.4 104.9 L 832.2 102.1 L 837.3 104.6 L 836.6 99.1 L 839.6 99.0 L 838.7 104.6 L 843.9 102.2 L 844.8 104.9 L 839.2 106.0 L 843.2 110.2 L 840.7 112.0 L 838.0 106.7 L 835.2 112.0 L 832.7 110.3 " fill="#191919"/>
<path class="atom-1" d="M 768.0 234.5 Q 768.0 227.7, 771.4 223.9 Q 774.7 220.1, 781.0 220.1 Q 787.3 220.1, 790.7 223.9 Q 794.0 227.7, 794.0 234.5 Q 794.0 241.4, 790.6 245.3 Q 787.2 249.2, 781.0 249.2 Q 774.8 249.2, 771.4 245.3 Q 768.0 241.4, 768.0 234.5 M 781.0 246.0 Q 785.3 246.0, 787.7 243.1 Q 790.0 240.2, 790.0 234.5 Q 790.0 228.9, 787.7 226.1 Q 785.3 223.3, 781.0 223.3 Q 776.7 223.3, 774.3 226.1 Q 772.0 228.9, 772.0 234.5 Q 772.0 240.2, 774.3 243.1 Q 776.7 246.0, 781.0 246.0 " fill="#FF0000"/>
<path class="atom-7" d="M 356.6 33.7 L 360.8 29.4 L 355.2 28.3 L 356.1 25.5 L 361.2 28.0 L 360.4 22.5 L 363.4 22.4 L 362.6 28.0 L 367.8 25.6 L 368.6 28.3 L 363.0 29.3 L 367.0 33.6 L 364.6 35.4 L 361.8 30.1 L 359.0 35.4 L 356.6 33.7 " fill="#191919"/>
<path class="atom-8" d="M 368.2 267.8 Q 368.2 261.0, 371.5 257.2 Q 374.9 253.4, 381.2 253.4 Q 387.4 253.4, 390.8 257.2 Q 394.2 261.0, 394.2 267.8 Q 394.2 274.6, 390.8 278.6 Q 387.4 282.4, 381.2 282.4 Q 374.9 282.4, 371.5 278.6 Q 368.2 274.7, 368.2 267.8 M 381.2 279.2 Q 385.5 279.2, 387.8 276.4 Q 390.2 273.4, 390.2 267.8 Q 390.2 262.2, 387.8 259.4 Q 385.5 256.6, 381.2 256.6 Q 376.8 256.6, 374.5 259.4 Q 372.2 262.2, 372.2 267.8 Q 372.2 273.5, 374.5 276.4 Q 376.8 279.2, 381.2 279.2 " fill="#FF0000"/>
<path class="bond-0 atom-0 atom-1" d="M 840.1,474.7 L 823.3,527.5" style="fill:none;fill-rule:evenodd;stroke:#191919;stroke-width:2.0px;stroke-linecap:butt;stroke-linejoin:miter;stroke-opacity:1"/>
<path class="bond-0 atom-0 atom-1" d="M 823.3,527.5 L 806.5,580.4" style="fill:none;fill-rule:evenodd;stroke:#FF0000;stroke-width:2.0px;stroke-linecap:butt;stroke-linejoin:miter;stroke-opacity:1"/>
<path class="bond-1 atom-1 atom-2" d="M 783.2,603.0 L 726.6,615.4" style="fill:none;fill-rule:evenodd;stroke:#FF0000;stroke-width:2.0px;stroke-linecap:butt;stroke-linejoin:miter;stroke-opacity:1"/>
<path class="bond-1 atom-1 atom-2" d="M 726.6,615.4 L 670.0,627.9" style="fill:none;fill-rule:evenodd;stroke:#000000;stroke-width:2.0px;stroke-linecap:butt;stroke-linejoin:miter;stroke-opacity:1"/>
<path class="bond-2 atom-2 atom-3" d="M 670.0,627.9 L 629.5,755.4" style="fill:none;fill-rule:evenodd;stroke:#000000;stroke-width:2.0px;stroke-linecap:butt;stroke-linejoin:miter;stroke-opacity:1"/>
<path class="bond-3 atom-2 atom-4" d="M 670.0,627.9 L 579.8,529.1" style="fill:none;fill-rule:evenodd;stroke:#000000;stroke-width:2.0px;stroke-linecap:butt;stroke-linejoin:miter;stroke-opacity:1"/>
<path class="bond-4 atom-4 atom-5" d="M 579.8,529.1 L 449.1,557.8" style="fill:none;fill-rule:evenodd;stroke:#000000;stroke-width:2.0px;stroke-linecap:butt;stroke-linejoin:miter;stroke-opacity:1"/>
<path class="bond-5 atom-5 atom-6" d="M 449.1,557.8 L 405.4,509.9" style="fill:none;fill-rule:evenodd;stroke:#000000;stroke-width:2.0px;stroke-linecap:butt;stroke-linejoin:miter;stroke-opacity:1"/>
<path class="bond-5 atom-5 atom-6" d="M 405.4,509.9 L 361.7,462.0" style="fill:none;fill-rule:evenodd;stroke:#191919;stroke-width:2.0px;stroke-linecap:butt;stroke-linejoin:miter;stroke-opacity:1"/>
<path class="bond-6 atom-5 atom-7" d="M 441.3,549.3 L 423.2,606.4" style="fill:none;fill-rule:evenodd;stroke:#000000;stroke-width:2.0px;stroke-linecap:butt;stroke-linejoin:miter;stroke-opacity:1"/>
<path class="bond-6 atom-5 atom-7" d="M 423.2,606.4 L 405.1,663.5" style="fill:none;fill-rule:evenodd;stroke:#FF0000;stroke-width:2.0px;stroke-linecap:butt;stroke-linejoin:miter;stroke-opacity:1"/>
<path class="bond-6 atom-5 atom-7" d="M 460.5,555.3 L 442.3,612.5" style="fill:none;fill-rule:evenodd;stroke:#000000;stroke-width:2.0px;stroke-linecap:butt;stroke-linejoin:miter;stroke-opacity:1"/>
<path class="bond-6 atom-5 atom-7" d="M 442.3,612.5 L 424.2,669.6" style="fill:none;fill-rule:evenodd;stroke:#FF0000;stroke-width:2.0px;stroke-linecap:butt;stroke-linejoin:miter;stroke-opacity:1"/>
<path d="M 584.3,534.0 L 579.8,529.1 L 573.2,530.5" style="fill:none;stroke:#000000;stroke-width:2.0px;stroke-linecap:butt;stroke-linejoin:miter;stroke-opacity:1;"/>
<path d="M 455.7,556.4 L 449.1,557.8 L 447.0,555.4" style="fill:none;stroke:#000000;stroke-width:2.0px;stroke-linecap:butt;stroke-linejoin:miter;stroke-opacity:1;"/>
<path class="atom-0" d="M 835.7 468.5 L 839.9 464.3 L 834.3 463.2 L 835.2 460.3 L 840.3 462.9 L 839.5 457.3 L 842.5 457.3 L 841.7 462.8 L 846.9 460.4 L 847.7 463.2 L 842.1 464.2 L 846.1 468.5 L 843.7 470.2 L 840.9 465.0 L 838.1 470.2 L 835.7 468.5 " fill="#191919"/>
<path class="atom-1" d="M 787.6 599.2 Q 787.6 592.4, 790.9 588.6 Q 794.3 584.8, 800.6 584.8 Q 806.9 584.8, 810.2 588.6 Q 813.6 592.4, 813.6 599.2 Q 813.6 606.1, 810.2 610.0 Q 806.8 613.9, 800.6 613.9 Q 794.3 613.9, 790.9 610.0 Q 787.6 606.2, 787.6 599.2 M 800.6 610.7 Q 804.9 610.7, 807.2 607.8 Q 809.6 604.9, 809.6 599.2 Q 809.6 593.7, 807.2 590.9 Q 804.9 588.0, 800.6 588.0 Q 796.3 588.0, 793.9 590.8 Q 791.6 593.6, 791.6 599.2 Q 791.6 605.0, 793.9 607.8 Q 796.3 610.7, 800.6 610.7 " fill="#FF0000"/>
<path class="atom-6" d="M 353.6 455.9 L 357.8 451.6 L 352.3 450.5 L 353.1 447.7 L 358.2 450.2 L 357.5 444.7 L 360.5 444.6 L 359.6 450.2 L 364.8 447.8 L 365.7 450.5 L 360.1 451.6 L 364.1 455.8 L 361.6 457.6 L 358.9 452.3 L 356.1 457.6 L 353.6 455.9 " fill="#191919"/>
<path class="atom-7" d="M 395.7 685.4 Q 395.7 678.6, 399.1 674.8 Q 402.4 671.0, 408.7 671.0 Q 415.0 671.0, 418.3 674.8 Q 421.7 678.6, 421.7 685.4 Q 421.7 692.3, 418.3 696.2 Q 414.9 700.1, 408.7 700.1 Q 402.5 700.1, 399.1 696.2 Q 395.7 692.3, 395.7 685.4 M 408.7 696.9 Q 413.0 696.9, 415.3 694.0 Q 417.7 691.1, 417.7 685.4 Q 417.7 679.8, 415.3 677.0 Q 413.0 674.2, 408.7 674.2 Q 404.4 674.2, 402.0 677.0 Q 399.7 679.8, 399.7 685.4 Q 399.7 691.1, 402.0 694.0 Q 404.4 696.9, 408.7 696.9 " fill="#FF0000"/>
</svg>