<svg xmlns="http://www.w3.org/2000/svg" xmlns:rdkit="http://www.rdkit.org/xml" xmlns:xlink="http://www.w3.org/1999/xlink" version="1.1" baseProfile="full" xml:space="preserve" width="1200px" height="800px" viewBox="0 0 1200 800">
<!-- END OF HEADER -->
<rect style="opacity:1.0;fill:#FFFFFF;stroke:none" width="1200.0" height="800.0" x="0.0" y="0.0"> </rect>
<path class="bond-0 atom-0 atom-1" d="M 262.6,140.5 L 281.4,156.6" style="fill:none;fill-rule:evenodd;stroke:#191919;stroke-width:2.0px;stroke-linecap:butt;stroke-linejoin:miter;stroke-opacity:1"/>
<path class="bond-0 atom-0 atom-1" d="M 281.4,156.6 L 300.1,172.6" style="fill:none;fill-rule:evenodd;stroke:#FF0000;stroke-width:2.0px;stroke-linecap:butt;stroke-linejoin:miter;stroke-opacity:1"/>
<path class="bond-1 atom-1 atom-2" d="M 321.4,177.9 L 346.8,168.9" style="fill:none;fill-rule:evenodd;stroke:#FF0000;stroke-width:2.0px;stroke-linecap:butt;stroke-linejoin:miter;stroke-opacity:1"/>
<path class="bond-1 atom-1 atom-2" d="M 346.8,168.9 L 372.2,159.9" style="fill:none;fill-rule:evenodd;stroke:#000000;stroke-width:2.0px;stroke-linecap:butt;stroke-linejoin:miter;stroke-opacity:1"/>
<path class="bond-2 atom-2 atom-3" d="M 372.2,159.9 L 421.7,202.2" style="fill:none;fill-rule:evenodd;stroke:#000000;stroke-width:2.0px;stroke-linecap:butt;stroke-linejoin:miter;stroke-opacity:1"/>
<path class="bond-3 atom-3 atom-4" d="M 421.7,202.2 L 483.1,180.5" style="fill:none;fill-rule:evenodd;stroke:#000000;stroke-width:2.0px;stroke-linecap:butt;stroke-linejoin:miter;stroke-opacity:1"/>
<path class="bond-4 atom-4 atom-5" d="M 483.1,180.5 L 532.6,222.8" style="fill:none;fill-rule:evenodd;stroke:#000000;stroke-width:2.0px;stroke-linecap:butt;stroke-linejoin:miter;stroke-opacity:1"/>
<path class="bond-5 atom-5 atom-6" d="M 532.6,222.8 L 558.0,213.8" style="fill:none;fill-rule:evenodd;stroke:#000000;stroke-width:2.0px;stroke-linecap:butt;stroke-linejoin:miter;stroke-opacity:1"/>
<path class="bond-5 atom-5 atom-6" d="M 558.0,213.8 L 583.4,204.8" style="fill:none;fill-rule:evenodd;stroke:#FF0000;stroke-width:2.0px;stroke-linecap:butt;stroke-linejoin:miter;stroke-opacity:1"/>
<path class="bond-6 atom-6 atom-7" d="M 604.7,210.1 L 624.1,226.7" style="fill:none;fill-rule:evenodd;stroke:#FF0000;stroke-width:2.0px;stroke-linecap:butt;stroke-linejoin:miter;stroke-opacity:1"/>
<path class="bond-6 atom-6 atom-7" d="M 624.1,226.7 L 643.6,243.3" style="fill:none;fill-rule:evenodd;stroke:#000000;stroke-width:2.0px;stroke-linecap:butt;stroke-linejoin:miter;stroke-opacity:1"/>
<path class="bond-7 atom-7 atom-8" d="M 639.3,239.7 L 634.2,267.4" style="fill:none;fill-rule:evenodd;stroke:#000000;stroke-width:2.0px;stroke-linecap:butt;stroke-linejoin:miter;stroke-opacity:1"/>
<path class="bond-7 atom-7 atom-8" d="M 634.2,267.4 L 629.0,295.0" style="fill:none;fill-rule:evenodd;stroke:#FF0000;stroke-width:2.0px;stroke-linecap:butt;stroke-linejoin:miter;stroke-opacity:1"/>
<path class="bond-7 atom-7 atom-8" d="M 648.9,241.5 L 643.8,269.1" style="fill:none;fill-rule:evenodd;stroke:#000000;stroke-width:2.0px;stroke-linecap:butt;stroke-linejoin:miter;stroke-opacity:1"/>
<path class="bond-7 atom-7 atom-8" d="M 643.8,269.1 L 638.7,296.8" style="fill:none;fill-rule:evenodd;stroke:#FF0000;stroke-width:2.0px;stroke-linecap:butt;stroke-linejoin:miter;stroke-opacity:1"/>
<path class="bond-8 atom-7 atom-9" d="M 643.6,243.3 L 705.0,221.6" style="fill:none;fill-rule:evenodd;stroke:#000000;stroke-width:2.0px;stroke-linecap:butt;stroke-linejoin:miter;stroke-opacity:1"/>
<path class="bond-9 atom-9 atom-10" d="M 705.0,221.6 L 716.9,157.5" style="fill:none;fill-rule:evenodd;stroke:#000000;stroke-width:2.0px;stroke-linecap:butt;stroke-linejoin:miter;stroke-opacity:1"/>
<path class="bond-9 atom-9 atom-10" d="M 715.7,217.8 L 725.5,164.9" style="fill:none;fill-rule:evenodd;stroke:#000000;stroke-width:2.0px;stroke-linecap:butt;stroke-linejoin:miter;stroke-opacity:1"/>
<path class="bond-10 atom-10 atom-11" d="M 716.9,157.5 L 778.3,135.8" style="fill:none;fill-rule:evenodd;stroke:#000000;stroke-width:2.0px;stroke-linecap:butt;stroke-linejoin:miter;stroke-opacity:1"/>
<path class="bond-11 atom-11 atom-12" d="M 778.3,135.8 L 827.8,178.1" style="fill:none;fill-rule:evenodd;stroke:#000000;stroke-width:2.0px;stroke-linecap:butt;stroke-linejoin:miter;stroke-opacity:1"/>
<path class="bond-11 atom-11 atom-12" d="M 776.2,146.9 L 817.2,181.9" style="fill:none;fill-rule:evenodd;stroke:#000000;stroke-width:2.0px;stroke-linecap:butt;stroke-linejoin:miter;stroke-opacity:1"/>
<path class="bond-12 atom-12 atom-13" d="M 827.8,178.1 L 889.3,156.4" style="fill:none;fill-rule:evenodd;stroke:#000000;stroke-width:2.0px;stroke-linecap:butt;stroke-linejoin:miter;stroke-opacity:1"/>
<path class="bond-13 atom-13 atom-14" d="M 889.3,156.4 L 910.8,174.7" style="fill:none;fill-rule:evenodd;stroke:#000000;stroke-width:2.0px;stroke-linecap:butt;stroke-linejoin:miter;stroke-opacity:1"/>
<path class="bond-13 atom-13 atom-14" d="M 910.8,174.7 L 932.3,193.1" style="fill:none;fill-rule:evenodd;stroke:#191919;stroke-width:2.0px;stroke-linecap:butt;stroke-linejoin:miter;stroke-opacity:1"/>
<path class="bond-14 atom-13 atom-15" d="M 893.5,160.0 L 898.7,132.5" style="fill:none;fill-rule:evenodd;stroke:#000000;stroke-width:2.0px;stroke-linecap:butt;stroke-linejoin:miter;stroke-opacity:1"/>
<path class="bond-14 atom-13 atom-15" d="M 898.7,132.5 L 903.8,105.0" style="fill:none;fill-rule:evenodd;stroke:#FF0000;stroke-width:2.0px;stroke-linecap:butt;stroke-linejoin:miter;stroke-opacity:1"/>
<path class="bond-14 atom-13 atom-15" d="M 883.9,158.2 L 889.0,130.7" style="fill:none;fill-rule:evenodd;stroke:#000000;stroke-width:2.0px;stroke-linecap:butt;stroke-linejoin:miter;stroke-opacity:1"/>
<path class="bond-14 atom-13 atom-15" d="M 889.0,130.7 L 894.1,103.2" style="fill:none;fill-rule:evenodd;stroke:#FF0000;stroke-width:2.0px;stroke-linecap:butt;stroke-linejoin:miter;stroke-opacity:1"/>
<path class="bond-15 atom-12 atom-16" d="M 827.8,178.1 L 816.0,242.2" style="fill:none;fill-rule:evenodd;stroke:#000000;stroke-width:2.0px;stroke-linecap:butt;stroke-linejoin:miter;stroke-opacity:1"/>
<path class="bond-16 atom-16 atom-17" d="M 816.0,242.2 L 754.6,263.9" style="fill:none;fill-rule:evenodd;stroke:#000000;stroke-width:2.0px;stroke-linecap:butt;stroke-linejoin:miter;stroke-opacity:1"/>
<path class="bond-16 atom-16 atom-17" d="M 807.4,234.8 L 756.6,252.8" style="fill:none;fill-rule:evenodd;stroke:#000000;stroke-width:2.0px;stroke-linecap:butt;stroke-linejoin:miter;stroke-opacity:1"/>
<path class="bond-17 atom-17 atom-9" d="M 754.6,263.9 L 705.0,221.6" style="fill:none;fill-rule:evenodd;stroke:#000000;stroke-width:2.0px;stroke-linecap:butt;stroke-linejoin:miter;stroke-opacity:1"/>
<path d="M 370.9,160.3 L 372.2,159.9 L 374.6,162.0" style="fill:none;stroke:#000000;stroke-width:2.0px;stroke-linecap:butt;stroke-linejoin:miter;stroke-opacity:1;"/>
<path d="M 419.2,200.1 L 421.7,202.2 L 424.8,201.1" style="fill:none;stroke:#000000;stroke-width:2.0px;stroke-linecap:butt;stroke-linejoin:miter;stroke-opacity:1;"/>
<path d="M 480.0,181.6 L 483.1,180.5 L 485.6,182.6" style="fill:none;stroke:#000000;stroke-width:2.0px;stroke-linecap:butt;stroke-linejoin:miter;stroke-opacity:1;"/>
<path d="M 530.2,220.7 L 532.6,222.8 L 533.9,222.3" style="fill:none;stroke:#000000;stroke-width:2.0px;stroke-linecap:butt;stroke-linejoin:miter;stroke-opacity:1;"/>
<path d="M 642.6,242.5 L 643.6,243.3 L 646.7,242.3" style="fill:none;stroke:#000000;stroke-width:2.0px;stroke-linecap:butt;stroke-linejoin:miter;stroke-opacity:1;"/>
<path d="M 716.3,160.7 L 716.9,157.5 L 720.0,156.5" style="fill:none;stroke:#000000;stroke-width:2.0px;stroke-linecap:butt;stroke-linejoin:miter;stroke-opacity:1;"/>
<path d="M 775.2,136.9 L 778.3,135.8 L 780.8,137.9" style="fill:none;stroke:#000000;stroke-width:2.0px;stroke-linecap:butt;stroke-linejoin:miter;stroke-opacity:1;"/>
<path d="M 886.2,157.5 L 889.3,156.4 L 890.3,157.3" style="fill:none;stroke:#000000;stroke-width:2.0px;stroke-linecap:butt;stroke-linejoin:miter;stroke-opacity:1;"/>
<path d="M 816.6,239.0 L 816.0,242.2 L 812.9,243.3" style="fill:none;stroke:#000000;stroke-width:2.0px;stroke-linecap:butt;stroke-linejoin:miter;stroke-opacity:1;"/>
<path d="M 757.6,262.8 L 754.6,263.9 L 752.1,261.8" style="fill:none;stroke:#000000;stroke-width:2.0px;stroke-linecap:butt;stroke-linejoin:miter;stroke-opacity:1;"/>
<path class="atom-0" d="M 257.7 137.3 L 260.4 134.5 L 256.8 133.8 L 257.4 131.9 L 260.7 133.6 L 260.2 130.0 L 262.2 129.9 L 261.6 133.6 L 265.0 132.0 L 265.6 133.8 L 261.9 134.5 L 264.5 137.2 L 262.9 138.4 L 261.1 135.0 L 259.3 138.4 L 257.7 137.3 " fill="#191919"/>
<path class="atom-1" d="M 302.3 181.7 Q 302.3 177.3, 304.5 174.8 Q 306.7 172.3, 310.7 172.3 Q 314.8 172.3, 317.0 174.8 Q 319.2 177.3, 319.2 181.7 Q 319.2 186.2, 317.0 188.7 Q 314.8 191.3, 310.7 191.3 Q 306.7 191.3, 304.5 188.7 Q 302.3 186.2, 302.3 181.7 M 310.7 189.2 Q 313.6 189.2, 315.1 187.3 Q 316.6 185.4, 316.6 181.7 Q 316.6 178.1, 315.1 176.2 Q 313.6 174.4, 310.7 174.4 Q 307.9 174.4, 306.4 176.2 Q 304.9 178.0, 304.9 181.7 Q 304.9 185.4, 306.4 187.3 Q 307.9 189.2, 310.7 189.2 " fill="#FF0000"/>
<path class="atom-6" d="M 585.6 201.1 Q 585.6 196.7, 587.8 194.2 Q 590.0 191.7, 594.1 191.7 Q 598.2 191.7, 600.3 194.2 Q 602.5 196.7, 602.5 201.1 Q 602.5 205.6, 600.3 208.1 Q 598.1 210.6, 594.1 210.6 Q 590.0 210.6, 587.8 208.1 Q 585.6 205.6, 585.6 201.1 M 594.1 208.6 Q 596.9 208.6, 598.4 206.7 Q 599.9 204.8, 599.9 201.1 Q 599.9 197.5, 598.4 195.6 Q 596.9 193.8, 594.1 193.8 Q 591.2 193.8, 589.7 195.6 Q 588.2 197.4, 588.2 201.1 Q 588.2 204.8, 589.7 206.7 Q 591.2 208.6, 594.1 208.6 " fill="#FF0000"/>
<path class="atom-8" d="M 623.3 307.5 Q 623.3 303.0, 625.4 300.6 Q 627.6 298.1, 631.7 298.1 Q 635.8 298.1, 638.0 300.6 Q 640.2 303.0, 640.2 307.5 Q 640.2 311.9, 638.0 314.5 Q 635.8 317.0, 631.7 317.0 Q 627.7 317.0, 625.4 314.5 Q 623.3 312.0, 623.3 307.5 M 631.7 314.9 Q 634.5 314.9, 636.1 313.1 Q 637.6 311.2, 637.6 307.5 Q 637.6 303.8, 636.1 302.0 Q 634.5 300.2, 631.7 300.2 Q 628.9 300.2, 627.4 302.0 Q 625.9 303.8, 625.9 307.5 Q 625.9 311.2, 627.4 313.1 Q 628.9 314.9, 631.7 314.9 " fill="#FF0000"/>
<path class="atom-14" d="M 935.3 196.6 L 938.0 193.9 L 934.4 193.1 L 935.0 191.3 L 938.3 192.9 L 937.8 189.3 L 939.8 189.3 L 939.2 192.9 L 942.6 191.4 L 943.2 193.1 L 939.5 193.8 L 942.1 196.6 L 940.5 197.7 L 938.7 194.3 L 936.9 197.7 L 935.3 196.6 " fill="#191919"/>
<path class="atom-15" d="M 892.7 92.4 Q 892.7 87.9, 894.9 85.5 Q 897.0 83.0, 901.1 83.0 Q 905.2 83.0, 907.4 85.5 Q 909.6 87.9, 909.6 92.4 Q 909.6 96.8, 907.4 99.4 Q 905.2 101.9, 901.1 101.9 Q 897.1 101.9, 894.9 99.4 Q 892.7 96.9, 892.7 92.4 M 901.1 99.8 Q 903.9 99.8, 905.5 98.0 Q 907.0 96.1, 907.0 92.4 Q 907.0 88.7, 905.5 86.9 Q 903.9 85.1, 901.1 85.1 Q 898.3 85.1, 896.8 86.9 Q 895.3 88.7, 895.3 92.4 Q 895.3 96.1, 896.8 98.0 Q 898.3 99.8, 901.1 99.8 " fill="#FF0000"/>
<path class="bond-0 atom-0 atom-1" d="M 1133.6,572.3 L 1112.0,585.3" style="fill:none;fill-rule:evenodd;stroke:#191919;stroke-width:2.0px;stroke-linecap:butt;stroke-linejoin:miter;stroke-opacity:1"/>
<path class="bond-0 atom-0 atom-1" d="M 1112.0,585.3 L 1090.4,598.3" style="fill:none;fill-rule:evenodd;stroke:#FF0000;stroke-width:2.0px;stroke-linecap:butt;stroke-linejoin:miter;stroke-opacity:1"/>
<path class="bond-1 atom-1 atom-2" d="M 1069.2,598.8 L 1046.0,586.0" style="fill:none;fill-rule:evenodd;stroke:#FF0000;stroke-width:2.0px;stroke-linecap:butt;stroke-linejoin:miter;stroke-opacity:1"/>
<path class="bond-1 atom-1 atom-2" d="M 1046.0,586.0 L 1022.8,573.1" style="fill:none;fill-rule:evenodd;stroke:#000000;stroke-width:2.0px;stroke-linecap:butt;stroke-linejoin:miter;stroke-opacity:1"/>
<path class="bond-2 atom-2 atom-3" d="M 1022.8,573.1 L 967.0,606.7" style="fill:none;fill-rule:evenodd;stroke:#000000;stroke-width:2.0px;stroke-linecap:butt;stroke-linejoin:miter;stroke-opacity:1"/>
<path class="bond-3 atom-3 atom-4" d="M 967.0,606.7 L 910.0,575.1" style="fill:none;fill-rule:evenodd;stroke:#000000;stroke-width:2.0px;stroke-linecap:butt;stroke-linejoin:miter;stroke-opacity:1"/>
<path class="bond-4 atom-4 atom-5" d="M 910.0,575.1 L 854.1,608.7" style="fill:none;fill-rule:evenodd;stroke:#000000;stroke-width:2.0px;stroke-linecap:butt;stroke-linejoin:miter;stroke-opacity:1"/>
<path class="bond-5 atom-5 atom-6" d="M 854.1,608.7 L 831.0,595.8" style="fill:none;fill-rule:evenodd;stroke:#000000;stroke-width:2.0px;stroke-linecap:butt;stroke-linejoin:miter;stroke-opacity:1"/>
<path class="bond-5 atom-5 atom-6" d="M 831.0,595.8 L 807.8,583.0" style="fill:none;fill-rule:evenodd;stroke:#FF0000;stroke-width:2.0px;stroke-linecap:butt;stroke-linejoin:miter;stroke-opacity:1"/>
<path class="bond-6 atom-6 atom-7" d="M 786.5,583.5 L 763.9,597.1" style="fill:none;fill-rule:evenodd;stroke:#FF0000;stroke-width:2.0px;stroke-linecap:butt;stroke-linejoin:miter;stroke-opacity:1"/>
<path class="bond-6 atom-6 atom-7" d="M 763.9,597.1 L 741.3,610.7" style="fill:none;fill-rule:evenodd;stroke:#000000;stroke-width:2.0px;stroke-linecap:butt;stroke-linejoin:miter;stroke-opacity:1"/>
<path class="bond-7 atom-7 atom-8" d="M 736.4,607.9 L 736.9,636.2" style="fill:none;fill-rule:evenodd;stroke:#000000;stroke-width:2.0px;stroke-linecap:butt;stroke-linejoin:miter;stroke-opacity:1"/>
<path class="bond-7 atom-7 atom-8" d="M 736.9,636.2 L 737.4,664.4" style="fill:none;fill-rule:evenodd;stroke:#FF0000;stroke-width:2.0px;stroke-linecap:butt;stroke-linejoin:miter;stroke-opacity:1"/>
<path class="bond-7 atom-7 atom-8" d="M 746.2,607.8 L 746.7,636.0" style="fill:none;fill-rule:evenodd;stroke:#000000;stroke-width:2.0px;stroke-linecap:butt;stroke-linejoin:miter;stroke-opacity:1"/>
<path class="bond-7 atom-7 atom-8" d="M 746.7,636.0 L 747.2,664.2" style="fill:none;fill-rule:evenodd;stroke:#FF0000;stroke-width:2.0px;stroke-linecap:butt;stroke-linejoin:miter;stroke-opacity:1"/>
<path class="bond-8 atom-7 atom-9" d="M 741.3,610.7 L 684.3,579.1" style="fill:none;fill-rule:evenodd;stroke:#000000;stroke-width:2.0px;stroke-linecap:butt;stroke-linejoin:miter;stroke-opacity:1"/>
<path class="bond-9 atom-9 atom-10" d="M 684.3,579.1 L 628.5,612.7" style="fill:none;fill-rule:evenodd;stroke:#000000;stroke-width:2.0px;stroke-linecap:butt;stroke-linejoin:miter;stroke-opacity:1"/>
<path class="bond-10 atom-10 atom-11" d="M 628.5,612.7 L 571.5,581.1" style="fill:none;fill-rule:evenodd;stroke:#000000;stroke-width:2.0px;stroke-linecap:butt;stroke-linejoin:miter;stroke-opacity:1"/>
<path class="bond-11 atom-11 atom-12" d="M 571.5,581.1 L 515.7,614.6" style="fill:none;fill-rule:evenodd;stroke:#000000;stroke-width:2.0px;stroke-linecap:butt;stroke-linejoin:miter;stroke-opacity:1"/>
<path class="bond-12 atom-12 atom-13" d="M 515.7,614.6 L 458.7,583.1" style="fill:none;fill-rule:evenodd;stroke:#000000;stroke-width:2.0px;stroke-linecap:butt;stroke-linejoin:miter;stroke-opacity:1"/>
<path class="bond-13 atom-13 atom-14" d="M 458.7,583.1 L 402.8,616.6" style="fill:none;fill-rule:evenodd;stroke:#000000;stroke-width:2.0px;stroke-linecap:butt;stroke-linejoin:miter;stroke-opacity:1"/>
<path class="bond-14 atom-14 atom-15" d="M 402.8,616.6 L 345.9,585.1" style="fill:none;fill-rule:evenodd;stroke:#000000;stroke-width:2.0px;stroke-linecap:butt;stroke-linejoin:miter;stroke-opacity:1"/>
<path class="bond-15 atom-15 atom-16" d="M 345.9,585.1 L 290.0,618.6" style="fill:none;fill-rule:evenodd;stroke:#000000;stroke-width:2.0px;stroke-linecap:butt;stroke-linejoin:miter;stroke-opacity:1"/>
<path class="bond-16 atom-16 atom-17" d="M 290.0,618.6 L 233.0,587.1" style="fill:none;fill-rule:evenodd;stroke:#000000;stroke-width:2.0px;stroke-linecap:butt;stroke-linejoin:miter;stroke-opacity:1"/>
<path class="bond-17 atom-17 atom-18" d="M 233.0,587.1 L 177.2,620.6" style="fill:none;fill-rule:evenodd;stroke:#000000;stroke-width:2.0px;stroke-linecap:butt;stroke-linejoin:miter;stroke-opacity:1"/>
<path class="bond-18 atom-18 atom-19" d="M 177.2,620.6 L 120.2,589.0" style="fill:none;fill-rule:evenodd;stroke:#000000;stroke-width:2.0px;stroke-linecap:butt;stroke-linejoin:miter;stroke-opacity:1"/>
<path class="bond-19 atom-19 atom-20" d="M 120.2,589.0 L 95.5,603.9" style="fill:none;fill-rule:evenodd;stroke:#000000;stroke-width:2.0px;stroke-linecap:butt;stroke-linejoin:miter;stroke-opacity:1"/>
<path class="bond-19 atom-19 atom-20" d="M 95.5,603.9 L 70.9,618.7" style="fill:none;fill-rule:evenodd;stroke:#191919;stroke-width:2.0px;stroke-linecap:butt;stroke-linejoin:miter;stroke-opacity:1"/>
<path class="bond-20 atom-19 atom-21" d="M 125.1,591.8 L 124.6,563.7" style="fill:none;fill-rule:evenodd;stroke:#000000;stroke-width:2.0px;stroke-linecap:butt;stroke-linejoin:miter;stroke-opacity:1"/>
<path class="bond-20 atom-19 atom-21" d="M 124.6,563.7 L 124.1,535.6" style="fill:none;fill-rule:evenodd;stroke:#FF0000;stroke-width:2.0px;stroke-linecap:butt;stroke-linejoin:miter;stroke-opacity:1"/>
<path class="bond-20 atom-19 atom-21" d="M 115.4,592.0 L 114.9,563.9" style="fill:none;fill-rule:evenodd;stroke:#000000;stroke-width:2.0px;stroke-linecap:butt;stroke-linejoin:miter;stroke-opacity:1"/>
<path class="bond-20 atom-19 atom-21" d="M 114.9,563.9 L 114.4,535.8" style="fill:none;fill-rule:evenodd;stroke:#FF0000;stroke-width:2.0px;stroke-linecap:butt;stroke-linejoin:miter;stroke-opacity:1"/>
<path d="M 1024.0,573.8 L 1022.8,573.1 L 1020.0,574.8" style="fill:none;stroke:#000000;stroke-width:2.0px;stroke-linecap:butt;stroke-linejoin:miter;stroke-opacity:1;"/>
<path d="M 969.8,605.0 L 967.0,606.7 L 964.1,605.1" style="fill:none;stroke:#000000;stroke-width:2.0px;stroke-linecap:butt;stroke-linejoin:miter;stroke-opacity:1;"/>
<path d="M 912.8,576.7 L 910.0,575.1 L 907.2,576.8" style="fill:none;stroke:#000000;stroke-width:2.0px;stroke-linecap:butt;stroke-linejoin:miter;stroke-opacity:1;"/>
<path d="M 856.9,607.0 L 854.1,608.7 L 853.0,608.0" style="fill:none;stroke:#000000;stroke-width:2.0px;stroke-linecap:butt;stroke-linejoin:miter;stroke-opacity:1;"/>
<path d="M 742.4,610.0 L 741.3,610.7 L 738.5,609.1" style="fill:none;stroke:#000000;stroke-width:2.0px;stroke-linecap:butt;stroke-linejoin:miter;stroke-opacity:1;"/>
<path d="M 687.2,580.7 L 684.3,579.1 L 681.5,580.8" style="fill:none;stroke:#000000;stroke-width:2.0px;stroke-linecap:butt;stroke-linejoin:miter;stroke-opacity:1;"/>
<path d="M 631.3,611.0 L 628.5,612.7 L 625.6,611.1" style="fill:none;stroke:#000000;stroke-width:2.0px;stroke-linecap:butt;stroke-linejoin:miter;stroke-opacity:1;"/>
<path d="M 574.4,582.7 L 571.5,581.1 L 568.7,582.8" style="fill:none;stroke:#000000;stroke-width:2.0px;stroke-linecap:butt;stroke-linejoin:miter;stroke-opacity:1;"/>
<path d="M 518.5,613.0 L 515.7,614.6 L 512.8,613.1" style="fill:none;stroke:#000000;stroke-width:2.0px;stroke-linecap:butt;stroke-linejoin:miter;stroke-opacity:1;"/>
<path d="M 461.5,584.7 L 458.7,583.1 L 455.9,584.8" style="fill:none;stroke:#000000;stroke-width:2.0px;stroke-linecap:butt;stroke-linejoin:miter;stroke-opacity:1;"/>
<path d="M 405.6,615.0 L 402.8,616.6 L 400.0,615.1" style="fill:none;stroke:#000000;stroke-width:2.0px;stroke-linecap:butt;stroke-linejoin:miter;stroke-opacity:1;"/>
<path d="M 348.7,586.6 L 345.9,585.1 L 343.1,586.7" style="fill:none;stroke:#000000;stroke-width:2.0px;stroke-linecap:butt;stroke-linejoin:miter;stroke-opacity:1;"/>
<path d="M 292.8,617.0 L 290.0,618.6 L 287.2,617.1" style="fill:none;stroke:#000000;stroke-width:2.0px;stroke-linecap:butt;stroke-linejoin:miter;stroke-opacity:1;"/>
<path d="M 235.9,588.6 L 233.0,587.1 L 230.2,588.7" style="fill:none;stroke:#000000;stroke-width:2.0px;stroke-linecap:butt;stroke-linejoin:miter;stroke-opacity:1;"/>
<path d="M 180.0,618.9 L 177.2,620.6 L 174.3,619.0" style="fill:none;stroke:#000000;stroke-width:2.0px;stroke-linecap:butt;stroke-linejoin:miter;stroke-opacity:1;"/>
<path d="M 123.1,590.6 L 120.2,589.0 L 119.0,589.8" style="fill:none;stroke:#000000;stroke-width:2.0px;stroke-linecap:butt;stroke-linejoin:miter;stroke-opacity:1;"/>
<path class="atom-0" d="M 1132.2 569.1 L 1134.9 566.3 L 1131.3 565.6 L 1131.8 563.7 L 1135.1 565.4 L 1134.7 561.8 L 1136.6 561.7 L 1136.1 565.4 L 1139.4 563.8 L 1140.0 565.6 L 1136.4 566.3 L 1139.0 569.0 L 1137.4 570.2 L 1135.6 566.8 L 1133.7 570.2 L 1132.2 569.1 " fill="#191919"/>
<path class="atom-1" d="M 1071.3 604.7 Q 1071.3 600.3, 1073.5 597.8 Q 1075.7 595.4, 1079.8 595.4 Q 1083.9 595.4, 1086.1 597.8 Q 1088.3 600.3, 1088.3 604.7 Q 1088.3 609.2, 1086.1 611.8 Q 1083.8 614.3, 1079.8 614.3 Q 1075.7 614.3, 1073.5 611.8 Q 1071.3 609.3, 1071.3 604.7 M 1079.8 612.2 Q 1082.6 612.2, 1084.1 610.4 Q 1085.7 608.4, 1085.7 604.7 Q 1085.7 601.1, 1084.1 599.3 Q 1082.6 597.5, 1079.8 597.5 Q 1077.0 597.5, 1075.4 599.3 Q 1073.9 601.1, 1073.9 604.7 Q 1073.9 608.5, 1075.4 610.4 Q 1077.0 612.2, 1079.8 612.2 " fill="#FF0000"/>
<path class="atom-6" d="M 788.7 577.2 Q 788.7 572.7, 790.9 570.2 Q 793.1 567.8, 797.2 567.8 Q 801.2 567.8, 803.4 570.2 Q 805.6 572.7, 805.6 577.2 Q 805.6 581.6, 803.4 584.2 Q 801.2 586.7, 797.2 586.7 Q 793.1 586.7, 790.9 584.2 Q 788.7 581.7, 788.7 577.2 M 797.2 584.6 Q 800.0 584.6, 801.5 582.8 Q 803.0 580.9, 803.0 577.2 Q 803.0 573.5, 801.5 571.7 Q 800.0 569.9, 797.2 569.9 Q 794.3 569.9, 792.8 571.7 Q 791.3 573.5, 791.3 577.2 Q 791.3 580.9, 792.8 582.8 Q 794.3 584.6, 797.2 584.6 " fill="#FF0000"/>
<path class="atom-8" d="M 734.0 675.9 Q 734.0 671.4, 736.2 669.0 Q 738.4 666.5, 742.5 666.5 Q 746.6 666.5, 748.7 669.0 Q 750.9 671.4, 750.9 675.9 Q 750.9 680.3, 748.7 682.9 Q 746.5 685.4, 742.5 685.4 Q 738.4 685.4, 736.2 682.9 Q 734.0 680.4, 734.0 675.9 M 742.5 683.3 Q 745.3 683.3, 746.8 681.5 Q 748.3 679.6, 748.3 675.9 Q 748.3 672.2, 746.8 670.4 Q 745.3 668.6, 742.5 668.6 Q 739.7 668.6, 738.1 670.4 Q 736.6 672.2, 736.6 675.9 Q 736.6 679.6, 738.1 681.5 Q 739.7 683.3, 742.5 683.3 " fill="#FF0000"/>
<path class="atom-20" d="M 60.9 620.6 L 63.6 617.8 L 60.0 617.1 L 60.5 615.2 L 63.9 616.9 L 63.4 613.3 L 65.3 613.2 L 64.8 616.9 L 68.2 615.3 L 68.7 617.1 L 65.1 617.7 L 67.7 620.5 L 66.1 621.7 L 64.3 618.2 L 62.5 621.7 L 60.9 620.6 " fill="#191919"/>
<path class="atom-21" d="M 110.6 524.0 Q 110.6 519.5, 112.8 517.1 Q 115.0 514.6, 119.1 514.6 Q 123.1 514.6, 125.3 517.1 Q 127.5 519.5, 127.5 524.0 Q 127.5 528.4, 125.3 531.0 Q 123.1 533.5, 119.1 533.5 Q 115.0 533.5, 112.8 531.0 Q 110.6 528.5, 110.6 524.0 M 119.1 531.4 Q 121.9 531.4, 123.4 529.6 Q 124.9 527.7, 124.9 524.0 Q 124.9 520.3, 123.4 518.5 Q 121.9 516.7, 119.1 516.7 Q 116.2 516.7, 114.7 518.5 Q 113.2 520.3, 113.2 524.0 Q 113.2 527.7, 114.7 529.6 Q 116.2 531.4, 119.1 531.4 " fill="#FF0000"/>
</svg>