<svg xmlns="http://www.w3.org/2000/svg" xmlns:rdkit="http://www.rdkit.org/xml" xmlns:xlink="http://www.w3.org/1999/xlink" version="1.1" baseProfile="full" xml:space="preserve" width="1200px" height="800px" viewBox="0 0 1200 800">
<!-- END OF HEADER -->
<rect style="opacity:1.0;fill:#FFFFFF;stroke:none" width="1200.0" height="800.0" x="0.0" y="0.0"> </rect>
<path class="bond-0 atom-0 atom-1" d="M 1130.7,170.0 L 1099.0,188.7" style="fill:none;fill-rule:evenodd;stroke:#191919;stroke-width:2.0px;stroke-linecap:butt;stroke-linejoin:miter;stroke-opacity:1"/>
<path class="bond-0 atom-0 atom-1" d="M 1099.0,188.7 L 1067.4,207.3" style="fill:none;fill-rule:evenodd;stroke:#FF0000;stroke-width:2.0px;stroke-linecap:butt;stroke-linejoin:miter;stroke-opacity:1"/>
<path class="bond-1 atom-1 atom-2" d="M 1036.5,207.7 L 1002.9,188.7" style="fill:none;fill-rule:evenodd;stroke:#FF0000;stroke-width:2.0px;stroke-linecap:butt;stroke-linejoin:miter;stroke-opacity:1"/>
<path class="bond-1 atom-1 atom-2" d="M 1002.9,188.7 L 969.4,169.8" style="fill:none;fill-rule:evenodd;stroke:#000000;stroke-width:2.0px;stroke-linecap:butt;stroke-linejoin:miter;stroke-opacity:1"/>
<path class="bond-2 atom-2 atom-3" d="M 969.4,169.8 L 887.7,217.9" style="fill:none;fill-rule:evenodd;stroke:#000000;stroke-width:2.0px;stroke-linecap:butt;stroke-linejoin:miter;stroke-opacity:1"/>
<path class="bond-3 atom-3 atom-4" d="M 887.7,217.9 L 805.1,171.2" style="fill:none;fill-rule:evenodd;stroke:#000000;stroke-width:2.0px;stroke-linecap:butt;stroke-linejoin:miter;stroke-opacity:1"/>
<path class="bond-4 atom-4 atom-5" d="M 805.1,171.2 L 723.4,219.4" style="fill:none;fill-rule:evenodd;stroke:#000000;stroke-width:2.0px;stroke-linecap:butt;stroke-linejoin:miter;stroke-opacity:1"/>
<path class="bond-5 atom-5 atom-6" d="M 723.4,219.4 L 640.9,172.7" style="fill:none;fill-rule:evenodd;stroke:#000000;stroke-width:2.0px;stroke-linecap:butt;stroke-linejoin:miter;stroke-opacity:1"/>
<path class="bond-6 atom-6 atom-7" d="M 640.9,172.7 L 559.1,220.9" style="fill:none;fill-rule:evenodd;stroke:#000000;stroke-width:2.0px;stroke-linecap:butt;stroke-linejoin:miter;stroke-opacity:1"/>
<path class="bond-7 atom-7 atom-8" d="M 559.1,220.9 L 525.6,201.9" style="fill:none;fill-rule:evenodd;stroke:#000000;stroke-width:2.0px;stroke-linecap:butt;stroke-linejoin:miter;stroke-opacity:1"/>
<path class="bond-7 atom-7 atom-8" d="M 525.6,201.9 L 492.0,183.0" style="fill:none;fill-rule:evenodd;stroke:#FF0000;stroke-width:2.0px;stroke-linecap:butt;stroke-linejoin:miter;stroke-opacity:1"/>
<path class="bond-8 atom-8 atom-9" d="M 461.1,183.3 L 428.0,202.9" style="fill:none;fill-rule:evenodd;stroke:#FF0000;stroke-width:2.0px;stroke-linecap:butt;stroke-linejoin:miter;stroke-opacity:1"/>
<path class="bond-8 atom-8 atom-9" d="M 428.0,202.9 L 394.9,222.4" style="fill:none;fill-rule:evenodd;stroke:#000000;stroke-width:2.0px;stroke-linecap:butt;stroke-linejoin:miter;stroke-opacity:1"/>
<path class="bond-9 atom-9 atom-10" d="M 387.7,218.3 L 388.1,259.5" style="fill:none;fill-rule:evenodd;stroke:#000000;stroke-width:2.0px;stroke-linecap:butt;stroke-linejoin:miter;stroke-opacity:1"/>
<path class="bond-9 atom-9 atom-10" d="M 388.1,259.5 L 388.5,300.6" style="fill:none;fill-rule:evenodd;stroke:#FF0000;stroke-width:2.0px;stroke-linecap:butt;stroke-linejoin:miter;stroke-opacity:1"/>
<path class="bond-9 atom-9 atom-10" d="M 402.0,218.2 L 402.3,259.3" style="fill:none;fill-rule:evenodd;stroke:#000000;stroke-width:2.0px;stroke-linecap:butt;stroke-linejoin:miter;stroke-opacity:1"/>
<path class="bond-9 atom-9 atom-10" d="M 402.3,259.3 L 402.7,300.4" style="fill:none;fill-rule:evenodd;stroke:#FF0000;stroke-width:2.0px;stroke-linecap:butt;stroke-linejoin:miter;stroke-opacity:1"/>
<path class="bond-10 atom-9 atom-11" d="M 394.9,222.4 L 312.3,175.7" style="fill:none;fill-rule:evenodd;stroke:#000000;stroke-width:2.0px;stroke-linecap:butt;stroke-linejoin:miter;stroke-opacity:1"/>
<path class="bond-11 atom-11 atom-12" d="M 312.3,175.7 L 230.6,223.9" style="fill:none;fill-rule:evenodd;stroke:#000000;stroke-width:2.0px;stroke-linecap:butt;stroke-linejoin:miter;stroke-opacity:1"/>
<path class="bond-12 atom-12 atom-13" d="M 230.6,223.9 L 148.1,177.2" style="fill:none;fill-rule:evenodd;stroke:#000000;stroke-width:2.0px;stroke-linecap:butt;stroke-linejoin:miter;stroke-opacity:1"/>
<path class="bond-13 atom-13 atom-14" d="M 148.1,177.2 L 111.9,198.5" style="fill:none;fill-rule:evenodd;stroke:#000000;stroke-width:2.0px;stroke-linecap:butt;stroke-linejoin:miter;stroke-opacity:1"/>
<path class="bond-13 atom-13 atom-14" d="M 111.9,198.5 L 75.8,219.8" style="fill:none;fill-rule:evenodd;stroke:#191919;stroke-width:2.0px;stroke-linecap:butt;stroke-linejoin:miter;stroke-opacity:1"/>
<path class="bond-14 atom-13 atom-15" d="M 155.2,181.2 L 154.8,140.3" style="fill:none;fill-rule:evenodd;stroke:#000000;stroke-width:2.0px;stroke-linecap:butt;stroke-linejoin:miter;stroke-opacity:1"/>
<path class="bond-14 atom-13 atom-15" d="M 154.8,140.3 L 154.5,99.4" style="fill:none;fill-rule:evenodd;stroke:#FF0000;stroke-width:2.0px;stroke-linecap:butt;stroke-linejoin:miter;stroke-opacity:1"/>
<path class="bond-14 atom-13 atom-15" d="M 141.0,181.4 L 140.6,140.5" style="fill:none;fill-rule:evenodd;stroke:#000000;stroke-width:2.0px;stroke-linecap:butt;stroke-linejoin:miter;stroke-opacity:1"/>
<path class="bond-14 atom-13 atom-15" d="M 140.6,140.5 L 140.2,99.6" style="fill:none;fill-rule:evenodd;stroke:#FF0000;stroke-width:2.0px;stroke-linecap:butt;stroke-linejoin:miter;stroke-opacity:1"/>
<path d="M 971.1,170.7 L 969.4,169.8 L 965.3,172.2" style="fill:none;stroke:#000000;stroke-width:2.0px;stroke-linecap:butt;stroke-linejoin:miter;stroke-opacity:1;"/>
<path d="M 891.8,215.5 L 887.7,217.9 L 883.6,215.6" style="fill:none;stroke:#000000;stroke-width:2.0px;stroke-linecap:butt;stroke-linejoin:miter;stroke-opacity:1;"/>
<path d="M 809.2,173.6 L 805.1,171.2 L 801.0,173.6" style="fill:none;stroke:#000000;stroke-width:2.0px;stroke-linecap:butt;stroke-linejoin:miter;stroke-opacity:1;"/>
<path d="M 727.5,217.0 L 723.4,219.4 L 719.3,217.1" style="fill:none;stroke:#000000;stroke-width:2.0px;stroke-linecap:butt;stroke-linejoin:miter;stroke-opacity:1;"/>
<path d="M 645.0,175.1 L 640.9,172.7 L 636.8,175.1" style="fill:none;stroke:#000000;stroke-width:2.0px;stroke-linecap:butt;stroke-linejoin:miter;stroke-opacity:1;"/>
<path d="M 563.2,218.5 L 559.1,220.9 L 557.5,219.9" style="fill:none;stroke:#000000;stroke-width:2.0px;stroke-linecap:butt;stroke-linejoin:miter;stroke-opacity:1;"/>
<path d="M 396.5,221.4 L 394.9,222.4 L 390.8,220.1" style="fill:none;stroke:#000000;stroke-width:2.0px;stroke-linecap:butt;stroke-linejoin:miter;stroke-opacity:1;"/>
<path d="M 316.4,178.0 L 312.3,175.7 L 308.2,178.1" style="fill:none;stroke:#000000;stroke-width:2.0px;stroke-linecap:butt;stroke-linejoin:miter;stroke-opacity:1;"/>
<path d="M 234.7,221.5 L 230.6,223.9 L 226.5,221.5" style="fill:none;stroke:#000000;stroke-width:2.0px;stroke-linecap:butt;stroke-linejoin:miter;stroke-opacity:1;"/>
<path d="M 152.2,179.5 L 148.1,177.2 L 146.3,178.3" style="fill:none;stroke:#000000;stroke-width:2.0px;stroke-linecap:butt;stroke-linejoin:miter;stroke-opacity:1;"/>
<path class="atom-0" d="M 1128.6 165.3 L 1132.5 161.2 L 1127.3 160.2 L 1128.1 157.5 L 1132.9 159.9 L 1132.2 154.6 L 1135.1 154.6 L 1134.3 159.9 L 1139.2 157.6 L 1140.0 160.2 L 1134.7 161.2 L 1138.5 165.2 L 1136.2 166.9 L 1133.6 161.9 L 1130.9 166.9 L 1128.6 165.3 " fill="#191919"/>
<path class="atom-1" d="M 1039.6 216.5 Q 1039.6 210.1, 1042.8 206.4 Q 1046.0 202.8, 1051.9 202.8 Q 1057.9 202.8, 1061.1 206.4 Q 1064.3 210.1, 1064.3 216.5 Q 1064.3 223.0, 1061.0 226.7 Q 1057.8 230.4, 1051.9 230.4 Q 1046.0 230.4, 1042.8 226.7 Q 1039.6 223.1, 1039.6 216.5 M 1051.9 227.4 Q 1056.0 227.4, 1058.2 224.7 Q 1060.5 221.9, 1060.5 216.5 Q 1060.5 211.2, 1058.2 208.6 Q 1056.0 205.9, 1051.9 205.9 Q 1047.8 205.9, 1045.6 208.5 Q 1043.4 211.2, 1043.4 216.5 Q 1043.4 221.9, 1045.6 224.7 Q 1047.8 227.4, 1051.9 227.4 " fill="#FF0000"/>
<path class="atom-8" d="M 464.3 174.3 Q 464.3 167.8, 467.4 164.2 Q 470.6 160.6, 476.6 160.6 Q 482.5 160.6, 485.7 164.2 Q 488.9 167.8, 488.9 174.3 Q 488.9 180.8, 485.7 184.5 Q 482.5 188.2, 476.6 188.2 Q 470.7 188.2, 467.4 184.5 Q 464.3 180.9, 464.3 174.3 M 476.6 185.2 Q 480.7 185.2, 482.9 182.5 Q 485.1 179.7, 485.1 174.3 Q 485.1 169.0, 482.9 166.4 Q 480.7 163.7, 476.6 163.7 Q 472.5 163.7, 470.3 166.3 Q 468.1 169.0, 468.1 174.3 Q 468.1 179.7, 470.3 182.5 Q 472.5 185.2, 476.6 185.2 " fill="#FF0000"/>
<path class="atom-10" d="M 383.4 317.3 Q 383.4 310.8, 386.6 307.2 Q 389.8 303.6, 395.7 303.6 Q 401.7 303.6, 404.9 307.2 Q 408.1 310.8, 408.1 317.3 Q 408.1 323.8, 404.8 327.5 Q 401.6 331.2, 395.7 331.2 Q 389.8 331.2, 386.6 327.5 Q 383.4 323.9, 383.4 317.3 M 395.7 328.2 Q 399.8 328.2, 402.0 325.5 Q 404.3 322.7, 404.3 317.3 Q 404.3 312.0, 402.0 309.4 Q 399.8 306.7, 395.7 306.7 Q 391.6 306.7, 389.4 309.3 Q 387.2 312.0, 387.2 317.3 Q 387.2 322.7, 389.4 325.5 Q 391.6 328.2, 395.7 328.2 " fill="#FF0000"/>
<path class="atom-14" d="M 61.3 222.4 L 65.2 218.3 L 60.0 217.3 L 60.8 214.6 L 65.6 217.0 L 64.9 211.7 L 67.8 211.7 L 67.0 217.0 L 71.9 214.7 L 72.7 217.3 L 67.4 218.3 L 71.2 222.3 L 68.9 224.0 L 66.3 219.0 L 63.6 224.0 L 61.3 222.4 " fill="#191919"/>
<path class="atom-15" d="M 134.9 82.4 Q 134.9 76.0, 138.1 72.4 Q 141.2 68.8, 147.2 68.8 Q 153.2 68.8, 156.3 72.4 Q 159.5 76.0, 159.5 82.4 Q 159.5 89.0, 156.3 92.7 Q 153.1 96.4, 147.2 96.4 Q 141.3 96.4, 138.1 92.7 Q 134.9 89.0, 134.9 82.4 M 147.2 93.3 Q 151.3 93.3, 153.5 90.6 Q 155.7 87.8, 155.7 82.4 Q 155.7 77.2, 153.5 74.5 Q 151.3 71.8, 147.2 71.8 Q 143.1 71.8, 140.9 74.5 Q 138.7 77.1, 138.7 82.4 Q 138.7 87.9, 140.9 90.6 Q 143.1 93.3, 147.2 93.3 " fill="#FF0000"/>
<path class="bond-0 atom-0 atom-1" d="M 1048.4,566.4 L 1016.9,585.2" style="fill:none;fill-rule:evenodd;stroke:#191919;stroke-width:2.0px;stroke-linecap:butt;stroke-linejoin:miter;stroke-opacity:1"/>
<path class="bond-0 atom-0 atom-1" d="M 1016.9,585.2 L 985.4,604.1" style="fill:none;fill-rule:evenodd;stroke:#FF0000;stroke-width:2.0px;stroke-linecap:butt;stroke-linejoin:miter;stroke-opacity:1"/>
<path class="bond-1 atom-1 atom-2" d="M 954.5,604.8 L 920.8,586.0" style="fill:none;fill-rule:evenodd;stroke:#FF0000;stroke-width:2.0px;stroke-linecap:butt;stroke-linejoin:miter;stroke-opacity:1"/>
<path class="bond-1 atom-1 atom-2" d="M 920.8,586.0 L 887.0,567.3" style="fill:none;fill-rule:evenodd;stroke:#000000;stroke-width:2.0px;stroke-linecap:butt;stroke-linejoin:miter;stroke-opacity:1"/>
<path class="bond-2 atom-2 atom-3" d="M 887.0,567.3 L 805.7,616.1" style="fill:none;fill-rule:evenodd;stroke:#000000;stroke-width:2.0px;stroke-linecap:butt;stroke-linejoin:miter;stroke-opacity:1"/>
<path class="bond-3 atom-3 atom-4" d="M 805.7,616.1 L 722.8,570.0" style="fill:none;fill-rule:evenodd;stroke:#000000;stroke-width:2.0px;stroke-linecap:butt;stroke-linejoin:miter;stroke-opacity:1"/>
<path class="bond-4 atom-4 atom-5" d="M 722.8,570.0 L 641.5,618.8" style="fill:none;fill-rule:evenodd;stroke:#000000;stroke-width:2.0px;stroke-linecap:butt;stroke-linejoin:miter;stroke-opacity:1"/>
<path class="bond-5 atom-5 atom-6" d="M 641.5,618.8 L 607.7,600.0" style="fill:none;fill-rule:evenodd;stroke:#000000;stroke-width:2.0px;stroke-linecap:butt;stroke-linejoin:miter;stroke-opacity:1"/>
<path class="bond-5 atom-5 atom-6" d="M 607.7,600.0 L 574.0,581.3" style="fill:none;fill-rule:evenodd;stroke:#FF0000;stroke-width:2.0px;stroke-linecap:butt;stroke-linejoin:miter;stroke-opacity:1"/>
<path class="bond-6 atom-6 atom-7" d="M 543.1,582.0 L 510.1,601.7" style="fill:none;fill-rule:evenodd;stroke:#FF0000;stroke-width:2.0px;stroke-linecap:butt;stroke-linejoin:miter;stroke-opacity:1"/>
<path class="bond-6 atom-6 atom-7" d="M 510.1,601.7 L 477.2,621.5" style="fill:none;fill-rule:evenodd;stroke:#000000;stroke-width:2.0px;stroke-linecap:butt;stroke-linejoin:miter;stroke-opacity:1"/>
<path class="bond-7 atom-7 atom-8" d="M 470.0,617.5 L 470.7,658.6" style="fill:none;fill-rule:evenodd;stroke:#000000;stroke-width:2.0px;stroke-linecap:butt;stroke-linejoin:miter;stroke-opacity:1"/>
<path class="bond-7 atom-7 atom-8" d="M 470.7,658.6 L 471.4,699.7" style="fill:none;fill-rule:evenodd;stroke:#FF0000;stroke-width:2.0px;stroke-linecap:butt;stroke-linejoin:miter;stroke-opacity:1"/>
<path class="bond-7 atom-7 atom-8" d="M 484.2,617.2 L 484.9,658.4" style="fill:none;fill-rule:evenodd;stroke:#000000;stroke-width:2.0px;stroke-linecap:butt;stroke-linejoin:miter;stroke-opacity:1"/>
<path class="bond-7 atom-7 atom-8" d="M 484.9,658.4 L 485.6,699.5" style="fill:none;fill-rule:evenodd;stroke:#FF0000;stroke-width:2.0px;stroke-linecap:butt;stroke-linejoin:miter;stroke-opacity:1"/>
<path class="bond-8 atom-7 atom-9" d="M 477.2,621.5 L 394.3,575.4" style="fill:none;fill-rule:evenodd;stroke:#000000;stroke-width:2.0px;stroke-linecap:butt;stroke-linejoin:miter;stroke-opacity:1"/>
<path class="bond-9 atom-9 atom-10" d="M 394.3,575.4 L 313.0,624.2" style="fill:none;fill-rule:evenodd;stroke:#000000;stroke-width:2.0px;stroke-linecap:butt;stroke-linejoin:miter;stroke-opacity:1"/>
<path class="bond-10 atom-10 atom-11" d="M 313.0,624.2 L 230.0,578.1" style="fill:none;fill-rule:evenodd;stroke:#000000;stroke-width:2.0px;stroke-linecap:butt;stroke-linejoin:miter;stroke-opacity:1"/>
<path class="bond-11 atom-11 atom-12" d="M 230.0,578.1 L 194.1,599.7" style="fill:none;fill-rule:evenodd;stroke:#000000;stroke-width:2.0px;stroke-linecap:butt;stroke-linejoin:miter;stroke-opacity:1"/>
<path class="bond-11 atom-11 atom-12" d="M 194.1,599.7 L 158.2,621.2" style="fill:none;fill-rule:evenodd;stroke:#191919;stroke-width:2.0px;stroke-linecap:butt;stroke-linejoin:miter;stroke-opacity:1"/>
<path class="bond-12 atom-11 atom-13" d="M 237.2,582.1 L 236.6,541.2" style="fill:none;fill-rule:evenodd;stroke:#000000;stroke-width:2.0px;stroke-linecap:butt;stroke-linejoin:miter;stroke-opacity:1"/>
<path class="bond-12 atom-11 atom-13" d="M 236.6,541.2 L 235.9,500.3" style="fill:none;fill-rule:evenodd;stroke:#FF0000;stroke-width:2.0px;stroke-linecap:butt;stroke-linejoin:miter;stroke-opacity:1"/>
<path class="bond-12 atom-11 atom-13" d="M 223.0,582.3 L 222.3,541.4" style="fill:none;fill-rule:evenodd;stroke:#000000;stroke-width:2.0px;stroke-linecap:butt;stroke-linejoin:miter;stroke-opacity:1"/>
<path class="bond-12 atom-11 atom-13" d="M 222.3,541.4 L 221.7,500.5" style="fill:none;fill-rule:evenodd;stroke:#FF0000;stroke-width:2.0px;stroke-linecap:butt;stroke-linejoin:miter;stroke-opacity:1"/>
<path d="M 888.7,568.2 L 887.0,567.3 L 883.0,569.7" style="fill:none;stroke:#000000;stroke-width:2.0px;stroke-linecap:butt;stroke-linejoin:miter;stroke-opacity:1;"/>
<path d="M 809.8,613.6 L 805.7,616.1 L 801.6,613.8" style="fill:none;stroke:#000000;stroke-width:2.0px;stroke-linecap:butt;stroke-linejoin:miter;stroke-opacity:1;"/>
<path d="M 726.9,572.3 L 722.8,570.0 L 718.7,572.4" style="fill:none;stroke:#000000;stroke-width:2.0px;stroke-linecap:butt;stroke-linejoin:miter;stroke-opacity:1;"/>
<path d="M 645.5,616.3 L 641.5,618.8 L 639.8,617.8" style="fill:none;stroke:#000000;stroke-width:2.0px;stroke-linecap:butt;stroke-linejoin:miter;stroke-opacity:1;"/>
<path d="M 478.9,620.5 L 477.2,621.5 L 473.1,619.2" style="fill:none;stroke:#000000;stroke-width:2.0px;stroke-linecap:butt;stroke-linejoin:miter;stroke-opacity:1;"/>
<path d="M 398.4,577.7 L 394.3,575.4 L 390.2,577.8" style="fill:none;stroke:#000000;stroke-width:2.0px;stroke-linecap:butt;stroke-linejoin:miter;stroke-opacity:1;"/>
<path d="M 317.0,621.7 L 313.0,624.2 L 308.8,621.9" style="fill:none;stroke:#000000;stroke-width:2.0px;stroke-linecap:butt;stroke-linejoin:miter;stroke-opacity:1;"/>
<path d="M 234.2,580.4 L 230.0,578.1 L 228.3,579.2" style="fill:none;stroke:#000000;stroke-width:2.0px;stroke-linecap:butt;stroke-linejoin:miter;stroke-opacity:1;"/>
<path class="atom-0" d="M 1046.2 561.6 L 1050.2 557.6 L 1044.9 556.5 L 1045.7 553.8 L 1050.6 556.2 L 1049.9 551.0 L 1052.7 550.9 L 1051.9 556.2 L 1056.8 553.9 L 1057.6 556.5 L 1052.3 557.5 L 1056.1 561.6 L 1053.8 563.2 L 1051.2 558.2 L 1048.5 563.2 L 1046.2 561.6 " fill="#191919"/>
<path class="atom-1" d="M 957.6 613.4 Q 957.6 607.0, 960.8 603.4 Q 964.0 599.8, 970.0 599.8 Q 975.9 599.8, 979.1 603.4 Q 982.3 607.0, 982.3 613.4 Q 982.3 620.0, 979.1 623.7 Q 975.8 627.4, 970.0 627.4 Q 964.0 627.4, 960.8 623.7 Q 957.6 620.0, 957.6 613.4 M 970.0 624.3 Q 974.0 624.3, 976.2 621.6 Q 978.5 618.8, 978.5 613.4 Q 978.5 608.2, 976.2 605.5 Q 974.0 602.8, 970.0 602.8 Q 965.9 602.8, 963.6 605.5 Q 961.4 608.1, 961.4 613.4 Q 961.4 618.9, 963.6 621.6 Q 965.9 624.3, 970.0 624.3 " fill="#FF0000"/>
<path class="atom-6" d="M 546.2 572.8 Q 546.2 566.3, 549.4 562.7 Q 552.6 559.1, 558.5 559.1 Q 564.5 559.1, 567.7 562.7 Q 570.9 566.3, 570.9 572.8 Q 570.9 579.3, 567.7 583.0 Q 564.4 586.7, 558.5 586.7 Q 552.6 586.7, 549.4 583.0 Q 546.2 579.3, 546.2 572.8 M 558.5 583.7 Q 562.6 583.7, 564.8 580.9 Q 567.1 578.2, 567.1 572.8 Q 567.1 567.5, 564.8 564.9 Q 562.6 562.2, 558.5 562.2 Q 554.5 562.2, 552.2 564.8 Q 550.0 567.5, 550.0 572.8 Q 550.0 578.2, 552.2 580.9 Q 554.5 583.7, 558.5 583.7 " fill="#FF0000"/>
<path class="atom-8" d="M 466.4 716.4 Q 466.4 709.9, 469.6 706.3 Q 472.8 702.7, 478.8 702.7 Q 484.7 702.7, 487.9 706.3 Q 491.1 709.9, 491.1 716.4 Q 491.1 722.9, 487.9 726.6 Q 484.6 730.3, 478.8 730.3 Q 472.8 730.3, 469.6 726.6 Q 466.4 722.9, 466.4 716.4 M 478.8 727.3 Q 482.9 727.3, 485.1 724.5 Q 487.3 721.8, 487.3 716.4 Q 487.3 711.1, 485.1 708.4 Q 482.9 705.8, 478.8 705.8 Q 474.7 705.8, 472.4 708.4 Q 470.2 711.1, 470.2 716.4 Q 470.2 721.8, 472.4 724.5 Q 474.7 727.3, 478.8 727.3 " fill="#FF0000"/>
<path class="atom-12" d="M 143.6 623.9 L 147.6 619.9 L 142.4 618.8 L 143.1 616.1 L 148.0 618.5 L 147.3 613.3 L 150.1 613.2 L 149.3 618.5 L 154.2 616.2 L 155.1 618.8 L 149.7 619.8 L 153.5 623.8 L 151.2 625.5 L 148.6 620.5 L 146.0 625.5 L 143.6 623.9 " fill="#191919"/>
<path class="atom-13" d="M 216.2 483.4 Q 216.2 476.9, 219.3 473.3 Q 222.5 469.7, 228.5 469.7 Q 234.4 469.7, 237.6 473.3 Q 240.8 476.9, 240.8 483.4 Q 240.8 489.9, 237.6 493.6 Q 234.4 497.3, 228.5 497.3 Q 222.6 497.3, 219.3 493.6 Q 216.2 489.9, 216.2 483.4 M 228.5 494.2 Q 232.6 494.2, 234.8 491.5 Q 237.0 488.7, 237.0 483.4 Q 237.0 478.1, 234.8 475.4 Q 232.6 472.7, 228.5 472.7 Q 224.4 472.7, 222.2 475.4 Q 220.0 478.0, 220.0 483.4 Q 220.0 488.8, 222.2 491.5 Q 224.4 494.2, 228.5 494.2 " fill="#FF0000"/>
</svg>