<svg xmlns="http://www.w3.org/2000/svg" xmlns:rdkit="http://www.rdkit.org/xml" xmlns:xlink="http://www.w3.org/1999/xlink" version="1.1" baseProfile="full" xml:space="preserve" width="1200px" height="800px" viewBox="0 0 1200 800">
<!-- END OF HEADER -->
<rect style="opacity:1.0;fill:#FFFFFF;stroke:none" width="1200.0" height="800.0" x="0.0" y="0.0"> </rect>
<path class="bond-0 atom-0 atom-1" d="M 1124.1,205.9 L 1062.3,245.0" style="fill:none;fill-rule:evenodd;stroke:#191919;stroke-width:2.0px;stroke-linecap:butt;stroke-linejoin:miter;stroke-opacity:1"/>
<path class="bond-0 atom-0 atom-1" d="M 1062.3,245.0 L 1000.5,284.2" style="fill:none;fill-rule:evenodd;stroke:#000000;stroke-width:2.0px;stroke-linecap:butt;stroke-linejoin:miter;stroke-opacity:1"/>
<path class="bond-1 atom-1 atom-2" d="M 1000.5,284.2 L 864.9,213.3" style="fill:none;fill-rule:evenodd;stroke:#000000;stroke-width:2.0px;stroke-linecap:butt;stroke-linejoin:miter;stroke-opacity:1"/>
<path class="bond-2 atom-2 atom-3" d="M 864.9,213.3 L 735.6,295.2" style="fill:none;fill-rule:evenodd;stroke:#000000;stroke-width:2.0px;stroke-linecap:butt;stroke-linejoin:miter;stroke-opacity:1"/>
<path class="bond-3 atom-3 atom-4" d="M 735.6,295.2 L 600.0,224.3" style="fill:none;fill-rule:evenodd;stroke:#000000;stroke-width:2.0px;stroke-linecap:butt;stroke-linejoin:miter;stroke-opacity:1"/>
<path class="bond-4 atom-4 atom-5" d="M 600.0,224.3 L 470.7,306.2" style="fill:none;fill-rule:evenodd;stroke:#000000;stroke-width:2.0px;stroke-linecap:butt;stroke-linejoin:miter;stroke-opacity:1"/>
<path class="bond-5 atom-5 atom-6" d="M 470.7,306.2 L 335.1,235.3" style="fill:none;fill-rule:evenodd;stroke:#000000;stroke-width:2.0px;stroke-linecap:butt;stroke-linejoin:miter;stroke-opacity:1"/>
<path class="bond-6 atom-6 atom-7" d="M 346.9,241.4 L 344.0,171.5" style="fill:none;fill-rule:evenodd;stroke:#000000;stroke-width:2.0px;stroke-linecap:butt;stroke-linejoin:miter;stroke-opacity:1"/>
<path class="bond-6 atom-6 atom-7" d="M 344.0,171.5 L 341.1,101.7" style="fill:none;fill-rule:evenodd;stroke:#FF0000;stroke-width:2.0px;stroke-linecap:butt;stroke-linejoin:miter;stroke-opacity:1"/>
<path class="bond-6 atom-6 atom-7" d="M 323.9,242.4 L 321.0,172.5" style="fill:none;fill-rule:evenodd;stroke:#000000;stroke-width:2.0px;stroke-linecap:butt;stroke-linejoin:miter;stroke-opacity:1"/>
<path class="bond-6 atom-6 atom-7" d="M 321.0,172.5 L 318.1,102.6" style="fill:none;fill-rule:evenodd;stroke:#FF0000;stroke-width:2.0px;stroke-linecap:butt;stroke-linejoin:miter;stroke-opacity:1"/>
<path class="bond-7 atom-6 atom-8" d="M 335.1,235.3 L 279.5,270.5" style="fill:none;fill-rule:evenodd;stroke:#000000;stroke-width:2.0px;stroke-linecap:butt;stroke-linejoin:miter;stroke-opacity:1"/>
<path class="bond-7 atom-6 atom-8" d="M 279.5,270.5 L 223.9,305.8" style="fill:none;fill-rule:evenodd;stroke:#FF0000;stroke-width:2.0px;stroke-linecap:butt;stroke-linejoin:miter;stroke-opacity:1"/>
<path class="bond-8 atom-8 atom-9" d="M 187.8,307.8 L 132.5,278.8" style="fill:none;fill-rule:evenodd;stroke:#FF0000;stroke-width:2.0px;stroke-linecap:butt;stroke-linejoin:miter;stroke-opacity:1"/>
<path class="bond-8 atom-8 atom-9" d="M 132.5,278.8 L 77.2,249.9" style="fill:none;fill-rule:evenodd;stroke:#191919;stroke-width:2.0px;stroke-linecap:butt;stroke-linejoin:miter;stroke-opacity:1"/>
<path d="M 1003.6,282.3 L 1000.5,284.2 L 993.7,280.7" style="fill:none;stroke:#000000;stroke-width:2.0px;stroke-linecap:butt;stroke-linejoin:miter;stroke-opacity:1;"/>
<path d="M 871.7,216.8 L 864.9,213.3 L 858.4,217.4" style="fill:none;stroke:#000000;stroke-width:2.0px;stroke-linecap:butt;stroke-linejoin:miter;stroke-opacity:1;"/>
<path d="M 742.1,291.1 L 735.6,295.2 L 728.8,291.7" style="fill:none;stroke:#000000;stroke-width:2.0px;stroke-linecap:butt;stroke-linejoin:miter;stroke-opacity:1;"/>
<path d="M 606.8,227.8 L 600.0,224.3 L 593.5,228.4" style="fill:none;stroke:#000000;stroke-width:2.0px;stroke-linecap:butt;stroke-linejoin:miter;stroke-opacity:1;"/>
<path d="M 477.2,302.1 L 470.7,306.2 L 464.0,302.7" style="fill:none;stroke:#000000;stroke-width:2.0px;stroke-linecap:butt;stroke-linejoin:miter;stroke-opacity:1;"/>
<path d="M 341.9,238.8 L 335.1,235.3 L 332.3,237.0" style="fill:none;stroke:#000000;stroke-width:2.0px;stroke-linecap:butt;stroke-linejoin:miter;stroke-opacity:1;"/>
<path class="atom-0" d="M 1124.4 199.1 L 1128.6 194.9 L 1123.0 193.7 L 1123.9 190.9 L 1129.0 193.5 L 1128.2 187.9 L 1131.2 187.9 L 1130.4 193.4 L 1135.6 191.0 L 1136.4 193.7 L 1130.8 194.8 L 1134.8 199.1 L 1132.4 200.8 L 1129.6 195.5 L 1126.8 200.8 L 1124.4 199.1 " fill="#191919"/>
<path class="atom-7" d="M 315.8 82.4 Q 315.8 75.6, 319.1 71.8 Q 322.5 68.0, 328.8 68.0 Q 335.1 68.0, 338.4 71.8 Q 341.8 75.6, 341.8 82.4 Q 341.8 89.3, 338.4 93.2 Q 335.0 97.1, 328.8 97.1 Q 322.5 97.1, 319.1 93.2 Q 315.8 89.3, 315.8 82.4 M 328.8 93.9 Q 333.1 93.9, 335.4 91.0 Q 337.8 88.1, 337.8 82.4 Q 337.8 76.9, 335.4 74.1 Q 333.1 71.2, 328.8 71.2 Q 324.5 71.2, 322.1 74.0 Q 319.8 76.8, 319.8 82.4 Q 319.8 88.1, 322.1 91.0 Q 324.5 93.9, 328.8 93.9 " fill="#FF0000"/>
<path class="atom-8" d="M 192.9 317.3 Q 192.9 310.5, 196.2 306.7 Q 199.6 302.9, 205.9 302.9 Q 212.1 302.9, 215.5 306.7 Q 218.9 310.5, 218.9 317.3 Q 218.9 324.2, 215.5 328.1 Q 212.1 332.0, 205.9 332.0 Q 199.6 332.0, 196.2 328.1 Q 192.9 324.2, 192.9 317.3 M 205.9 328.8 Q 210.2 328.8, 212.5 325.9 Q 214.9 323.0, 214.9 317.3 Q 214.9 311.7, 212.5 308.9 Q 210.2 306.1, 205.9 306.1 Q 201.5 306.1, 199.2 308.9 Q 196.9 311.7, 196.9 317.3 Q 196.9 323.0, 199.2 325.9 Q 201.5 328.8, 205.9 328.8 " fill="#FF0000"/>
<path class="atom-9" d="M 64.9 243.1 L 69.1 238.9 L 63.6 237.7 L 64.4 234.9 L 69.5 237.5 L 68.8 231.9 L 71.8 231.9 L 70.9 237.4 L 76.1 235.0 L 77.0 237.7 L 71.4 238.8 L 75.4 243.1 L 72.9 244.8 L 70.2 239.5 L 67.4 244.8 L 64.9 243.1 " fill="#191919"/>
<path class="bond-0 atom-0 atom-1" d="M 923.1,607.3 L 869.8,642.3" style="fill:none;fill-rule:evenodd;stroke:#191919;stroke-width:2.0px;stroke-linecap:butt;stroke-linejoin:miter;stroke-opacity:1"/>
<path class="bond-0 atom-0 atom-1" d="M 869.8,642.3 L 816.5,677.3" style="fill:none;fill-rule:evenodd;stroke:#0000FF;stroke-width:2.0px;stroke-linecap:butt;stroke-linejoin:miter;stroke-opacity:1"/>
<path class="bond-1 atom-1 atom-2" d="M 784.9,679.7 L 724.4,649.3" style="fill:none;fill-rule:evenodd;stroke:#0000FF;stroke-width:2.0px;stroke-linecap:butt;stroke-linejoin:miter;stroke-opacity:1"/>
<path class="bond-1 atom-1 atom-2" d="M 724.4,649.3 L 664.0,618.9" style="fill:none;fill-rule:evenodd;stroke:#000000;stroke-width:2.0px;stroke-linecap:butt;stroke-linejoin:miter;stroke-opacity:1"/>
<path class="bond-2 atom-2 atom-3" d="M 664.0,618.9 L 536.0,702.9" style="fill:none;fill-rule:evenodd;stroke:#000000;stroke-width:2.0px;stroke-linecap:butt;stroke-linejoin:miter;stroke-opacity:1"/>
<path class="bond-3 atom-3 atom-4" d="M 536.0,702.9 L 399.3,634.1" style="fill:none;fill-rule:evenodd;stroke:#000000;stroke-width:2.0px;stroke-linecap:butt;stroke-linejoin:miter;stroke-opacity:1"/>
<path class="bond-4 atom-4 atom-5" d="M 399.3,634.1 L 341.2,672.3" style="fill:none;fill-rule:evenodd;stroke:#000000;stroke-width:2.0px;stroke-linecap:butt;stroke-linejoin:miter;stroke-opacity:1"/>
<path class="bond-4 atom-4 atom-5" d="M 341.2,672.3 L 283.1,710.4" style="fill:none;fill-rule:evenodd;stroke:#191919;stroke-width:2.0px;stroke-linecap:butt;stroke-linejoin:miter;stroke-opacity:1"/>
<path class="bond-5 atom-4 atom-6" d="M 411.1,640.1 L 407.1,570.3" style="fill:none;fill-rule:evenodd;stroke:#000000;stroke-width:2.0px;stroke-linecap:butt;stroke-linejoin:miter;stroke-opacity:1"/>
<path class="bond-5 atom-4 atom-6" d="M 407.1,570.3 L 403.1,500.5" style="fill:none;fill-rule:evenodd;stroke:#FF0000;stroke-width:2.0px;stroke-linecap:butt;stroke-linejoin:miter;stroke-opacity:1"/>
<path class="bond-5 atom-4 atom-6" d="M 388.2,641.4 L 384.2,571.6" style="fill:none;fill-rule:evenodd;stroke:#000000;stroke-width:2.0px;stroke-linecap:butt;stroke-linejoin:miter;stroke-opacity:1"/>
<path class="bond-5 atom-4 atom-6" d="M 384.2,571.6 L 380.2,501.8" style="fill:none;fill-rule:evenodd;stroke:#FF0000;stroke-width:2.0px;stroke-linecap:butt;stroke-linejoin:miter;stroke-opacity:1"/>
<path d="M 667.0,620.4 L 664.0,618.9 L 657.6,623.1" style="fill:none;stroke:#000000;stroke-width:2.0px;stroke-linecap:butt;stroke-linejoin:miter;stroke-opacity:1;"/>
<path d="M 542.4,698.7 L 536.0,702.9 L 529.2,699.5" style="fill:none;stroke:#000000;stroke-width:2.0px;stroke-linecap:butt;stroke-linejoin:miter;stroke-opacity:1;"/>
<path d="M 406.1,637.6 L 399.3,634.1 L 396.4,636.0" style="fill:none;stroke:#000000;stroke-width:2.0px;stroke-linecap:butt;stroke-linejoin:miter;stroke-opacity:1;"/>
<path class="atom-0" d="M 923.3 600.5 L 927.5 596.3 L 921.9 595.1 L 922.8 592.3 L 927.9 594.9 L 927.1 589.3 L 930.1 589.3 L 929.3 594.8 L 934.5 592.4 L 935.3 595.1 L 929.7 596.2 L 933.7 600.5 L 931.3 602.2 L 928.5 596.9 L 925.7 602.2 L 923.3 600.5 " fill="#191919"/>
<path class="atom-1" d="M 794.4 673.5 L 803.7 688.5 Q 804.6 690.0, 806.1 692.7 Q 807.6 695.4, 807.7 695.5 L 807.7 673.5 L 811.4 673.5 L 811.4 701.8 L 807.6 701.8 L 797.6 685.4 Q 796.4 683.5, 795.2 681.3 Q 794.0 679.1, 793.6 678.4 L 793.6 701.8 L 790.0 701.8 L 790.0 673.5 L 794.4 673.5 " fill="#0000FF"/>
<path class="atom-1" d="M 789.6 704.7 L 793.5 704.7 L 793.5 716.7 L 807.9 716.7 L 807.9 704.7 L 811.8 704.7 L 811.8 733.0 L 807.9 733.0 L 807.9 719.9 L 793.5 719.9 L 793.5 733.0 L 789.6 733.0 L 789.6 704.7 " fill="#0000FF"/>
<path class="atom-5" d="M 266.0 715.0 L 270.2 710.7 L 264.7 709.6 L 265.5 706.8 L 270.6 709.3 L 269.9 703.8 L 272.9 703.7 L 272.0 709.3 L 277.2 706.9 L 278.1 709.6 L 272.5 710.7 L 276.5 714.9 L 274.0 716.7 L 271.3 711.4 L 268.5 716.7 L 266.0 715.0 " fill="#191919"/>
<path class="atom-6" d="M 377.5 481.4 Q 377.5 474.6, 380.9 470.8 Q 384.2 467.0, 390.5 467.0 Q 396.8 467.0, 400.2 470.8 Q 403.5 474.6, 403.5 481.4 Q 403.5 488.3, 400.1 492.2 Q 396.7 496.1, 390.5 496.1 Q 384.3 496.1, 380.9 492.2 Q 377.5 488.3, 377.5 481.4 M 390.5 492.9 Q 394.8 492.9, 397.2 490.0 Q 399.5 487.1, 399.5 481.4 Q 399.5 475.8, 397.2 473.0 Q 394.8 470.2, 390.5 470.2 Q 386.2 470.2, 383.8 473.0 Q 381.5 475.8, 381.5 481.4 Q 381.5 487.1, 383.8 490.0 Q 386.2 492.9, 390.5 492.9 " fill="#FF0000"/>
</svg>