<svg xmlns="http://www.w3.org/2000/svg" xmlns:rdkit="http://www.rdkit.org/xml" xmlns:xlink="http://www.w3.org/1999/xlink" version="1.1" baseProfile="full" xml:space="preserve" width="1200px" height="1200px" viewBox="0 0 1200 1200">
<!-- END OF HEADER -->
<rect style="opacity:1.0;fill:#FFFFFF;stroke:none" width="1200.0" height="1200.0" x="0.0" y="0.0"> </rect>
<path class="bond-0 atom-0 atom-1" d="M 884.4,331.1 L 868.2,292.1" style="fill:none;fill-rule:evenodd;stroke:#191919;stroke-width:2.0px;stroke-linecap:butt;stroke-linejoin:miter;stroke-opacity:1"/>
<path class="bond-0 atom-0 atom-1" d="M 868.2,292.1 L 851.9,253.1" style="fill:none;fill-rule:evenodd;stroke:#000000;stroke-width:2.0px;stroke-linecap:butt;stroke-linejoin:miter;stroke-opacity:1"/>
<path class="bond-1 atom-1 atom-2" d="M 851.9,253.1 L 749.1,239.8" style="fill:none;fill-rule:evenodd;stroke:#000000;stroke-width:2.0px;stroke-linecap:butt;stroke-linejoin:miter;stroke-opacity:1"/>
<path class="bond-2 atom-2 atom-3" d="M 749.1,239.8 L 686.1,322.2" style="fill:none;fill-rule:evenodd;stroke:#000000;stroke-width:2.0px;stroke-linecap:butt;stroke-linejoin:miter;stroke-opacity:1"/>
<path class="bond-2 atom-2 atom-3" d="M 731.2,237.5 L 679.2,305.6" style="fill:none;fill-rule:evenodd;stroke:#000000;stroke-width:2.0px;stroke-linecap:butt;stroke-linejoin:miter;stroke-opacity:1"/>
<path class="bond-3 atom-3 atom-4" d="M 686.1,322.2 L 583.2,308.9" style="fill:none;fill-rule:evenodd;stroke:#000000;stroke-width:2.0px;stroke-linecap:butt;stroke-linejoin:miter;stroke-opacity:1"/>
<path class="bond-4 atom-4 atom-5" d="M 583.2,308.9 L 543.3,213.1" style="fill:none;fill-rule:evenodd;stroke:#000000;stroke-width:2.0px;stroke-linecap:butt;stroke-linejoin:miter;stroke-opacity:1"/>
<path class="bond-4 atom-4 atom-5" d="M 594.1,294.6 L 561.1,215.5" style="fill:none;fill-rule:evenodd;stroke:#000000;stroke-width:2.0px;stroke-linecap:butt;stroke-linejoin:miter;stroke-opacity:1"/>
<path class="bond-5 atom-5 atom-6" d="M 543.3,213.1 L 498.9,207.4" style="fill:none;fill-rule:evenodd;stroke:#000000;stroke-width:2.0px;stroke-linecap:butt;stroke-linejoin:miter;stroke-opacity:1"/>
<path class="bond-5 atom-5 atom-6" d="M 498.9,207.4 L 454.6,201.7" style="fill:none;fill-rule:evenodd;stroke:#0000FF;stroke-width:2.0px;stroke-linecap:butt;stroke-linejoin:miter;stroke-opacity:1"/>
<path class="bond-6 atom-6 atom-7" d="M 433.2,222.1 L 415.2,245.7" style="fill:none;fill-rule:evenodd;stroke:#0000FF;stroke-width:2.0px;stroke-linecap:butt;stroke-linejoin:miter;stroke-opacity:1"/>
<path class="bond-6 atom-6 atom-7" d="M 415.2,245.7 L 397.2,269.2" style="fill:none;fill-rule:evenodd;stroke:#000000;stroke-width:2.0px;stroke-linecap:butt;stroke-linejoin:miter;stroke-opacity:1"/>
<path class="bond-6 atom-6 atom-7" d="M 420.8,212.7 L 402.8,236.2" style="fill:none;fill-rule:evenodd;stroke:#0000FF;stroke-width:2.0px;stroke-linecap:butt;stroke-linejoin:miter;stroke-opacity:1"/>
<path class="bond-6 atom-6 atom-7" d="M 402.8,236.2 L 384.8,259.8" style="fill:none;fill-rule:evenodd;stroke:#000000;stroke-width:2.0px;stroke-linecap:butt;stroke-linejoin:miter;stroke-opacity:1"/>
<path class="bond-7 atom-7 atom-8" d="M 369.8,305.1 L 352.0,328.4" style="fill:none;fill-rule:evenodd;stroke:#000000;stroke-width:2.0px;stroke-linecap:butt;stroke-linejoin:miter;stroke-opacity:1"/>
<path class="bond-7 atom-7 atom-8" d="M 352.0,328.4 L 334.2,351.7" style="fill:none;fill-rule:evenodd;stroke:#FF0000;stroke-width:2.0px;stroke-linecap:butt;stroke-linejoin:miter;stroke-opacity:1"/>
<path class="bond-7 atom-7 atom-8" d="M 357.4,295.6 L 339.6,318.9" style="fill:none;fill-rule:evenodd;stroke:#000000;stroke-width:2.0px;stroke-linecap:butt;stroke-linejoin:miter;stroke-opacity:1"/>
<path class="bond-7 atom-7 atom-8" d="M 339.6,318.9 L 321.8,342.2" style="fill:none;fill-rule:evenodd;stroke:#FF0000;stroke-width:2.0px;stroke-linecap:butt;stroke-linejoin:miter;stroke-opacity:1"/>
<path class="bond-8 atom-5 atom-9" d="M 543.3,213.1 L 606.3,130.7" style="fill:none;fill-rule:evenodd;stroke:#000000;stroke-width:2.0px;stroke-linecap:butt;stroke-linejoin:miter;stroke-opacity:1"/>
<path class="bond-9 atom-9 atom-10" d="M 606.3,130.7 L 586.7,83.8" style="fill:none;fill-rule:evenodd;stroke:#000000;stroke-width:2.0px;stroke-linecap:butt;stroke-linejoin:miter;stroke-opacity:1"/>
<path class="bond-9 atom-9 atom-10" d="M 586.7,83.8 L 567.2,36.9" style="fill:none;fill-rule:evenodd;stroke:#191919;stroke-width:2.0px;stroke-linecap:butt;stroke-linejoin:miter;stroke-opacity:1"/>
<path class="bond-10 atom-9 atom-11" d="M 606.3,130.7 L 709.2,144.0" style="fill:none;fill-rule:evenodd;stroke:#000000;stroke-width:2.0px;stroke-linecap:butt;stroke-linejoin:miter;stroke-opacity:1"/>
<path class="bond-10 atom-9 atom-11" d="M 613.2,147.3 L 698.3,158.3" style="fill:none;fill-rule:evenodd;stroke:#000000;stroke-width:2.0px;stroke-linecap:butt;stroke-linejoin:miter;stroke-opacity:1"/>
<path class="bond-11 atom-11 atom-2" d="M 709.2,144.0 L 749.1,239.8" style="fill:none;fill-rule:evenodd;stroke:#000000;stroke-width:2.0px;stroke-linecap:butt;stroke-linejoin:miter;stroke-opacity:1"/>
<path d="M 852.8,255.1 L 851.9,253.1 L 846.8,252.4" style="fill:none;stroke:#000000;stroke-width:2.0px;stroke-linecap:butt;stroke-linejoin:miter;stroke-opacity:1;"/>
<path d="M 689.2,318.1 L 686.1,322.2 L 680.9,321.6" style="fill:none;stroke:#000000;stroke-width:2.0px;stroke-linecap:butt;stroke-linejoin:miter;stroke-opacity:1;"/>
<path d="M 588.3,309.6 L 583.2,308.9 L 581.2,304.1" style="fill:none;stroke:#000000;stroke-width:2.0px;stroke-linecap:butt;stroke-linejoin:miter;stroke-opacity:1;"/>
<path d="M 704.0,143.4 L 709.2,144.0 L 711.2,148.8" style="fill:none;stroke:#000000;stroke-width:2.0px;stroke-linecap:butt;stroke-linejoin:miter;stroke-opacity:1;"/>
<path class="atom-0" d="M 886.5 345.7 L 890.7 341.5 L 885.1 340.4 L 886.0 337.5 L 891.1 340.1 L 890.3 334.5 L 893.3 334.5 L 892.5 340.0 L 897.7 337.6 L 898.5 340.4 L 892.9 341.4 L 896.9 345.7 L 894.5 347.4 L 891.7 342.2 L 888.9 347.4 L 886.5 345.7 " fill="#191919"/>
<path class="atom-6" d="M 434.2 185.7 L 443.4 200.7 Q 444.4 202.1, 445.8 204.8 Q 447.3 207.5, 447.4 207.7 L 447.4 185.7 L 451.2 185.7 L 451.2 214.0 L 447.3 214.0 L 437.3 197.6 Q 436.2 195.7, 434.9 193.5 Q 433.7 191.3, 433.4 190.6 L 433.4 214.0 L 429.7 214.0 L 429.7 185.7 L 434.2 185.7 " fill="#0000FF"/>
<path class="atom-7" d="M 366.5 282.4 Q 366.5 275.3, 369.8 271.7 Q 373.1 267.9, 379.4 267.9 Q 385.2 267.9, 388.4 272.1 L 385.7 274.2 Q 383.4 271.2, 379.4 271.2 Q 375.1 271.2, 372.8 274.1 Q 370.6 276.9, 370.6 282.4 Q 370.6 288.0, 372.9 290.9 Q 375.3 293.7, 379.8 293.7 Q 383.0 293.7, 386.6 291.9 L 387.7 294.9 Q 386.2 295.8, 384.0 296.4 Q 381.8 296.9, 379.3 296.9 Q 373.1 296.9, 369.8 293.2 Q 366.5 289.4, 366.5 282.4 " fill="#000000"/>
<path class="atom-8" d="M 301.5 364.8 Q 301.5 358.0, 304.8 354.2 Q 308.2 350.4, 314.5 350.4 Q 320.7 350.4, 324.1 354.2 Q 327.5 358.0, 327.5 364.8 Q 327.5 371.7, 324.1 375.6 Q 320.7 379.5, 314.5 379.5 Q 308.2 379.5, 304.8 375.6 Q 301.5 371.7, 301.5 364.8 M 314.5 376.3 Q 318.8 376.3, 321.1 373.4 Q 323.5 370.5, 323.5 364.8 Q 323.5 359.2, 321.1 356.4 Q 318.8 353.6, 314.5 353.6 Q 310.1 353.6, 307.8 356.4 Q 305.5 359.2, 305.5 364.8 Q 305.5 370.5, 307.8 373.4 Q 310.1 376.3, 314.5 376.3 " fill="#FF0000"/>
<path class="atom-10" d="M 561.0 31.8 L 565.2 27.5 L 559.7 26.4 L 560.5 23.6 L 565.6 26.1 L 564.9 20.6 L 567.9 20.5 L 567.0 26.1 L 572.2 23.7 L 573.1 26.4 L 567.5 27.5 L 571.5 31.7 L 569.0 33.5 L 566.3 28.2 L 563.5 33.5 L 561.0 31.8 " fill="#191919"/>
<path class="bond-0 atom-0 atom-1" d="M 285.9,597.9 L 323.5,631.5" style="fill:none;fill-rule:evenodd;stroke:#191919;stroke-width:2.0px;stroke-linecap:butt;stroke-linejoin:miter;stroke-opacity:1"/>
<path class="bond-0 atom-0 atom-1" d="M 323.5,631.5 L 361.1,665.0" style="fill:none;fill-rule:evenodd;stroke:#000000;stroke-width:2.0px;stroke-linecap:butt;stroke-linejoin:miter;stroke-opacity:1"/>
<path class="bond-1 atom-1 atom-2" d="M 361.1,665.0 L 459.6,632.5" style="fill:none;fill-rule:evenodd;stroke:#000000;stroke-width:2.0px;stroke-linecap:butt;stroke-linejoin:miter;stroke-opacity:1"/>
<path class="bond-2 atom-2 atom-3" d="M 459.6,632.5 L 480.7,530.9" style="fill:none;fill-rule:evenodd;stroke:#000000;stroke-width:2.0px;stroke-linecap:butt;stroke-linejoin:miter;stroke-opacity:1"/>
<path class="bond-2 atom-2 atom-3" d="M 476.7,626.9 L 494.1,542.9" style="fill:none;fill-rule:evenodd;stroke:#000000;stroke-width:2.0px;stroke-linecap:butt;stroke-linejoin:miter;stroke-opacity:1"/>
<path class="bond-3 atom-3 atom-4" d="M 480.7,530.9 L 579.3,498.4" style="fill:none;fill-rule:evenodd;stroke:#000000;stroke-width:2.0px;stroke-linecap:butt;stroke-linejoin:miter;stroke-opacity:1"/>
<path class="bond-4 atom-4 atom-5" d="M 579.3,498.4 L 656.7,567.5" style="fill:none;fill-rule:evenodd;stroke:#000000;stroke-width:2.0px;stroke-linecap:butt;stroke-linejoin:miter;stroke-opacity:1"/>
<path class="bond-4 atom-4 atom-5" d="M 575.6,516.0 L 639.6,573.1" style="fill:none;fill-rule:evenodd;stroke:#000000;stroke-width:2.0px;stroke-linecap:butt;stroke-linejoin:miter;stroke-opacity:1"/>
<path class="bond-5 atom-5 atom-6" d="M 656.7,567.5 L 698.8,553.6" style="fill:none;fill-rule:evenodd;stroke:#000000;stroke-width:2.0px;stroke-linecap:butt;stroke-linejoin:miter;stroke-opacity:1"/>
<path class="bond-5 atom-5 atom-6" d="M 698.8,553.6 L 741.0,539.7" style="fill:none;fill-rule:evenodd;stroke:#0000FF;stroke-width:2.0px;stroke-linecap:butt;stroke-linejoin:miter;stroke-opacity:1"/>
<path class="bond-6 atom-6 atom-7" d="M 774.5,541.8 L 799.0,563.6" style="fill:none;fill-rule:evenodd;stroke:#0000FF;stroke-width:2.0px;stroke-linecap:butt;stroke-linejoin:miter;stroke-opacity:1"/>
<path class="bond-6 atom-6 atom-7" d="M 799.0,563.6 L 823.4,585.5" style="fill:none;fill-rule:evenodd;stroke:#000000;stroke-width:2.0px;stroke-linecap:butt;stroke-linejoin:miter;stroke-opacity:1"/>
<path class="bond-6 atom-6 atom-7" d="M 764.2,553.4 L 788.6,575.3" style="fill:none;fill-rule:evenodd;stroke:#0000FF;stroke-width:2.0px;stroke-linecap:butt;stroke-linejoin:miter;stroke-opacity:1"/>
<path class="bond-6 atom-6 atom-7" d="M 788.6,575.3 L 813.1,597.1" style="fill:none;fill-rule:evenodd;stroke:#000000;stroke-width:2.0px;stroke-linecap:butt;stroke-linejoin:miter;stroke-opacity:1"/>
<path class="bond-7 atom-7 atom-8" d="M 852.1,611.1 L 875.4,631.9" style="fill:none;fill-rule:evenodd;stroke:#000000;stroke-width:2.0px;stroke-linecap:butt;stroke-linejoin:miter;stroke-opacity:1"/>
<path class="bond-7 atom-7 atom-8" d="M 875.4,631.9 L 898.8,652.7" style="fill:none;fill-rule:evenodd;stroke:#FF0000;stroke-width:2.0px;stroke-linecap:butt;stroke-linejoin:miter;stroke-opacity:1"/>
<path class="bond-7 atom-7 atom-8" d="M 841.8,622.7 L 865.1,643.5" style="fill:none;fill-rule:evenodd;stroke:#000000;stroke-width:2.0px;stroke-linecap:butt;stroke-linejoin:miter;stroke-opacity:1"/>
<path class="bond-7 atom-7 atom-8" d="M 865.1,643.5 L 888.4,664.3" style="fill:none;fill-rule:evenodd;stroke:#FF0000;stroke-width:2.0px;stroke-linecap:butt;stroke-linejoin:miter;stroke-opacity:1"/>
<path class="bond-8 atom-5 atom-9" d="M 656.7,567.5 L 635.6,669.1" style="fill:none;fill-rule:evenodd;stroke:#000000;stroke-width:2.0px;stroke-linecap:butt;stroke-linejoin:miter;stroke-opacity:1"/>
<path class="bond-9 atom-9 atom-10" d="M 635.6,669.1 L 537.0,701.6" style="fill:none;fill-rule:evenodd;stroke:#000000;stroke-width:2.0px;stroke-linecap:butt;stroke-linejoin:miter;stroke-opacity:1"/>
<path class="bond-9 atom-9 atom-10" d="M 622.1,657.1 L 540.7,684.0" style="fill:none;fill-rule:evenodd;stroke:#000000;stroke-width:2.0px;stroke-linecap:butt;stroke-linejoin:miter;stroke-opacity:1"/>
<path class="bond-10 atom-10 atom-2" d="M 537.0,701.6 L 459.6,632.5" style="fill:none;fill-rule:evenodd;stroke:#000000;stroke-width:2.0px;stroke-linecap:butt;stroke-linejoin:miter;stroke-opacity:1"/>
<path d="M 359.2,663.3 L 361.1,665.0 L 366.0,663.4" style="fill:none;stroke:#000000;stroke-width:2.0px;stroke-linecap:butt;stroke-linejoin:miter;stroke-opacity:1;"/>
<path d="M 479.7,536.0 L 480.7,530.9 L 485.7,529.3" style="fill:none;stroke:#000000;stroke-width:2.0px;stroke-linecap:butt;stroke-linejoin:miter;stroke-opacity:1;"/>
<path d="M 574.3,500.1 L 579.3,498.4 L 583.1,501.9" style="fill:none;stroke:#000000;stroke-width:2.0px;stroke-linecap:butt;stroke-linejoin:miter;stroke-opacity:1;"/>
<path d="M 636.6,664.0 L 635.6,669.1 L 630.6,670.7" style="fill:none;stroke:#000000;stroke-width:2.0px;stroke-linecap:butt;stroke-linejoin:miter;stroke-opacity:1;"/>
<path d="M 542.0,699.9 L 537.0,701.6 L 533.2,698.1" style="fill:none;stroke:#000000;stroke-width:2.0px;stroke-linecap:butt;stroke-linejoin:miter;stroke-opacity:1;"/>
<path class="atom-0" d="M 278.4 592.8 L 282.5 588.5 L 277.0 587.4 L 277.8 584.6 L 282.9 587.1 L 282.2 581.6 L 285.2 581.5 L 284.4 587.1 L 289.5 584.7 L 290.4 587.4 L 284.8 588.5 L 288.8 592.7 L 286.4 594.5 L 283.6 589.2 L 280.8 594.5 L 278.4 592.8 " fill="#191919"/>
<path class="atom-6" d="M 748.9 520.8 L 758.2 535.8 Q 759.1 537.3, 760.6 540.0 Q 762.1 542.7, 762.2 542.8 L 762.2 520.8 L 765.9 520.8 L 765.9 549.2 L 762.0 549.2 L 752.1 532.8 Q 750.9 530.8, 749.7 528.6 Q 748.5 526.4, 748.1 525.8 L 748.1 549.2 L 744.4 549.2 L 744.4 520.8 L 748.9 520.8 " fill="#0000FF"/>
<path class="atom-7" d="M 821.7 604.2 Q 821.7 597.1, 825.0 593.5 Q 828.3 589.7, 834.6 589.7 Q 840.4 589.7, 843.5 593.9 L 840.9 596.0 Q 838.6 593.0, 834.6 593.0 Q 830.3 593.0, 828.0 595.9 Q 825.8 598.7, 825.8 604.2 Q 825.8 609.8, 828.1 612.7 Q 830.4 615.5, 835.0 615.5 Q 838.1 615.5, 841.8 613.7 L 842.9 616.7 Q 841.4 617.6, 839.2 618.2 Q 836.9 618.7, 834.4 618.7 Q 828.3 618.7, 825.0 615.0 Q 821.7 611.2, 821.7 604.2 " fill="#000000"/>
<path class="atom-8" d="M 897.0 673.2 Q 897.0 666.4, 900.4 662.6 Q 903.7 658.8, 910.0 658.8 Q 916.3 658.8, 919.6 662.6 Q 923.0 666.4, 923.0 673.2 Q 923.0 680.1, 919.6 684.0 Q 916.2 687.9, 910.0 687.9 Q 903.8 687.9, 900.4 684.0 Q 897.0 680.1, 897.0 673.2 M 910.0 684.7 Q 914.3 684.7, 916.6 681.8 Q 919.0 678.9, 919.0 673.2 Q 919.0 667.6, 916.6 664.8 Q 914.3 662.0, 910.0 662.0 Q 905.7 662.0, 903.3 664.8 Q 901.0 667.6, 901.0 673.2 Q 901.0 678.9, 903.3 681.8 Q 905.7 684.7, 910.0 684.7 " fill="#FF0000"/>
<path class="bond-0 atom-0 atom-1" d="M 332.6,1058.7 L 377.1,1044.8" style="fill:none;fill-rule:evenodd;stroke:#191919;stroke-width:2.0px;stroke-linecap:butt;stroke-linejoin:miter;stroke-opacity:1"/>
<path class="bond-0 atom-0 atom-1" d="M 377.1,1044.8 L 421.5,1030.9" style="fill:none;fill-rule:evenodd;stroke:#000000;stroke-width:2.0px;stroke-linecap:butt;stroke-linejoin:miter;stroke-opacity:1"/>
<path class="bond-1 atom-1 atom-2" d="M 421.5,1030.9 L 444.3,929.7" style="fill:none;fill-rule:evenodd;stroke:#000000;stroke-width:2.0px;stroke-linecap:butt;stroke-linejoin:miter;stroke-opacity:1"/>
<path class="bond-1 atom-1 atom-2" d="M 438.7,1025.6 L 457.5,941.9" style="fill:none;fill-rule:evenodd;stroke:#000000;stroke-width:2.0px;stroke-linecap:butt;stroke-linejoin:miter;stroke-opacity:1"/>
<path class="bond-2 atom-2 atom-3" d="M 444.3,929.7 L 543.3,898.8" style="fill:none;fill-rule:evenodd;stroke:#000000;stroke-width:2.0px;stroke-linecap:butt;stroke-linejoin:miter;stroke-opacity:1"/>
<path class="bond-3 atom-3 atom-4" d="M 543.3,898.8 L 619.6,969.1" style="fill:none;fill-rule:evenodd;stroke:#000000;stroke-width:2.0px;stroke-linecap:butt;stroke-linejoin:miter;stroke-opacity:1"/>
<path class="bond-3 atom-3 atom-4" d="M 539.4,916.3 L 602.4,974.4" style="fill:none;fill-rule:evenodd;stroke:#000000;stroke-width:2.0px;stroke-linecap:butt;stroke-linejoin:miter;stroke-opacity:1"/>
<path class="bond-4 atom-4 atom-5" d="M 619.6,969.1 L 662.0,955.8" style="fill:none;fill-rule:evenodd;stroke:#000000;stroke-width:2.0px;stroke-linecap:butt;stroke-linejoin:miter;stroke-opacity:1"/>
<path class="bond-4 atom-4 atom-5" d="M 662.0,955.8 L 704.5,942.6" style="fill:none;fill-rule:evenodd;stroke:#0000FF;stroke-width:2.0px;stroke-linecap:butt;stroke-linejoin:miter;stroke-opacity:1"/>
<path class="bond-5 atom-5 atom-6" d="M 738.1,945.5 L 761.9,967.5" style="fill:none;fill-rule:evenodd;stroke:#0000FF;stroke-width:2.0px;stroke-linecap:butt;stroke-linejoin:miter;stroke-opacity:1"/>
<path class="bond-5 atom-5 atom-6" d="M 761.9,967.5 L 785.8,989.5" style="fill:none;fill-rule:evenodd;stroke:#000000;stroke-width:2.0px;stroke-linecap:butt;stroke-linejoin:miter;stroke-opacity:1"/>
<path class="bond-5 atom-5 atom-6" d="M 727.5,956.9 L 751.4,979.0" style="fill:none;fill-rule:evenodd;stroke:#0000FF;stroke-width:2.0px;stroke-linecap:butt;stroke-linejoin:miter;stroke-opacity:1"/>
<path class="bond-5 atom-5 atom-6" d="M 751.4,979.0 L 775.3,1001.0" style="fill:none;fill-rule:evenodd;stroke:#000000;stroke-width:2.0px;stroke-linecap:butt;stroke-linejoin:miter;stroke-opacity:1"/>
<path class="bond-6 atom-6 atom-7" d="M 814.5,1016.0 L 837.3,1036.9" style="fill:none;fill-rule:evenodd;stroke:#000000;stroke-width:2.0px;stroke-linecap:butt;stroke-linejoin:miter;stroke-opacity:1"/>
<path class="bond-6 atom-6 atom-7" d="M 837.3,1036.9 L 860.0,1057.9" style="fill:none;fill-rule:evenodd;stroke:#FF0000;stroke-width:2.0px;stroke-linecap:butt;stroke-linejoin:miter;stroke-opacity:1"/>
<path class="bond-6 atom-6 atom-7" d="M 804.0,1027.4 L 826.7,1048.4" style="fill:none;fill-rule:evenodd;stroke:#000000;stroke-width:2.0px;stroke-linecap:butt;stroke-linejoin:miter;stroke-opacity:1"/>
<path class="bond-6 atom-6 atom-7" d="M 826.7,1048.4 L 849.5,1069.4" style="fill:none;fill-rule:evenodd;stroke:#FF0000;stroke-width:2.0px;stroke-linecap:butt;stroke-linejoin:miter;stroke-opacity:1"/>
<path class="bond-7 atom-4 atom-8" d="M 619.6,969.1 L 596.9,1070.3" style="fill:none;fill-rule:evenodd;stroke:#000000;stroke-width:2.0px;stroke-linecap:butt;stroke-linejoin:miter;stroke-opacity:1"/>
<path class="bond-8 atom-8 atom-9" d="M 596.9,1070.3 L 497.8,1101.2" style="fill:none;fill-rule:evenodd;stroke:#000000;stroke-width:2.0px;stroke-linecap:butt;stroke-linejoin:miter;stroke-opacity:1"/>
<path class="bond-8 atom-8 atom-9" d="M 583.6,1058.1 L 501.8,1083.7" style="fill:none;fill-rule:evenodd;stroke:#000000;stroke-width:2.0px;stroke-linecap:butt;stroke-linejoin:miter;stroke-opacity:1"/>
<path class="bond-9 atom-9 atom-1" d="M 497.8,1101.2 L 421.5,1030.9" style="fill:none;fill-rule:evenodd;stroke:#000000;stroke-width:2.0px;stroke-linecap:butt;stroke-linejoin:miter;stroke-opacity:1"/>
<path d="M 443.1,934.8 L 444.3,929.7 L 449.2,928.2" style="fill:none;stroke:#000000;stroke-width:2.0px;stroke-linecap:butt;stroke-linejoin:miter;stroke-opacity:1;"/>
<path d="M 538.4,900.3 L 543.3,898.8 L 547.1,902.3" style="fill:none;stroke:#000000;stroke-width:2.0px;stroke-linecap:butt;stroke-linejoin:miter;stroke-opacity:1;"/>
<path d="M 598.0,1065.2 L 596.9,1070.3 L 591.9,1071.8" style="fill:none;stroke:#000000;stroke-width:2.0px;stroke-linecap:butt;stroke-linejoin:miter;stroke-opacity:1;"/>
<path d="M 502.8,1099.7 L 497.8,1101.2 L 494.0,1097.7" style="fill:none;stroke:#000000;stroke-width:2.0px;stroke-linecap:butt;stroke-linejoin:miter;stroke-opacity:1;"/>
<path class="atom-0" d="M 317.2 1058.7 L 321.3 1054.4 L 315.8 1053.3 L 316.6 1050.5 L 321.7 1053.0 L 321.0 1047.5 L 324.0 1047.4 L 323.2 1053.0 L 328.3 1050.6 L 329.2 1053.3 L 323.6 1054.4 L 327.6 1058.6 L 325.2 1060.4 L 322.4 1055.1 L 319.6 1060.4 L 317.2 1058.7 " fill="#191919"/>
<path class="atom-5" d="M 712.4 924.0 L 721.6 939.0 Q 722.6 940.5, 724.0 943.2 Q 725.5 945.8, 725.6 946.0 L 725.6 924.0 L 729.4 924.0 L 729.4 952.3 L 725.5 952.3 L 715.5 935.9 Q 714.4 934.0, 713.1 931.8 Q 711.9 929.6, 711.6 928.9 L 711.6 952.3 L 707.9 952.3 L 707.9 924.0 L 712.4 924.0 " fill="#0000FF"/>
<path class="atom-6" d="M 784.0 1008.6 Q 784.0 1001.6, 787.3 997.9 Q 790.6 994.2, 796.9 994.2 Q 802.7 994.2, 805.8 998.3 L 803.2 1000.4 Q 800.9 997.4, 796.9 997.4 Q 792.6 997.4, 790.3 1000.3 Q 788.1 1003.2, 788.1 1008.6 Q 788.1 1014.2, 790.4 1017.1 Q 792.7 1020.0, 797.3 1020.0 Q 800.4 1020.0, 804.1 1018.1 L 805.2 1021.1 Q 803.7 1022.0, 801.5 1022.6 Q 799.2 1023.2, 796.7 1023.2 Q 790.6 1023.2, 787.3 1019.4 Q 784.0 1015.6, 784.0 1008.6 " fill="#000000"/>
<path class="atom-7" d="M 858.2 1078.9 Q 858.2 1072.1, 861.6 1068.3 Q 864.9 1064.5, 871.2 1064.5 Q 877.5 1064.5, 880.8 1068.3 Q 884.2 1072.1, 884.2 1078.9 Q 884.2 1085.7, 880.8 1089.7 Q 877.4 1093.5, 871.2 1093.5 Q 865.0 1093.5, 861.6 1089.7 Q 858.2 1085.8, 858.2 1078.9 M 871.2 1090.3 Q 875.5 1090.3, 877.8 1087.5 Q 880.2 1084.5, 880.2 1078.9 Q 880.2 1073.3, 877.8 1070.5 Q 875.5 1067.7, 871.2 1067.7 Q 866.9 1067.7, 864.5 1070.5 Q 862.2 1073.3, 862.2 1078.9 Q 862.2 1084.6, 864.5 1087.5 Q 866.9 1090.3, 871.2 1090.3 " fill="#FF0000"/>
</svg>