<svg xmlns="http://www.w3.org/2000/svg" xmlns:rdkit="http://www.rdkit.org/xml" xmlns:xlink="http://www.w3.org/1999/xlink" version="1.1" baseProfile="full" xml:space="preserve" width="1200px" height="800px" viewBox="0 0 1200 800">
<!-- END OF HEADER -->
<rect style="opacity:1.0;fill:#FFFFFF;stroke:none" width="1200.0" height="800.0" x="0.0" y="0.0"> </rect>
<path class="bond-0 atom-0 atom-1" d="M 795.3,153.2 L 768.7,199.3" style="fill:none;fill-rule:evenodd;stroke:#191919;stroke-width:2.0px;stroke-linecap:butt;stroke-linejoin:miter;stroke-opacity:1"/>
<path class="bond-0 atom-0 atom-1" d="M 768.7,199.3 L 742.1,245.4" style="fill:none;fill-rule:evenodd;stroke:#FF0000;stroke-width:2.0px;stroke-linecap:butt;stroke-linejoin:miter;stroke-opacity:1"/>
<path class="bond-1 atom-1 atom-2" d="M 714.0,264.0 L 657.0,264.0" style="fill:none;fill-rule:evenodd;stroke:#FF0000;stroke-width:2.0px;stroke-linecap:butt;stroke-linejoin:miter;stroke-opacity:1"/>
<path class="bond-1 atom-1 atom-2" d="M 657.0,264.0 L 600.0,264.0" style="fill:none;fill-rule:evenodd;stroke:#000000;stroke-width:2.0px;stroke-linecap:butt;stroke-linejoin:miter;stroke-opacity:1"/>
<path class="bond-2 atom-2 atom-3" d="M 600.0,264.0 L 534.3,377.8" style="fill:none;fill-rule:evenodd;stroke:#000000;stroke-width:2.0px;stroke-linecap:butt;stroke-linejoin:miter;stroke-opacity:1"/>
<path class="bond-3 atom-2 atom-4" d="M 600.0,264.0 L 534.3,150.3" style="fill:none;fill-rule:evenodd;stroke:#000000;stroke-width:2.0px;stroke-linecap:butt;stroke-linejoin:miter;stroke-opacity:1"/>
<path class="bond-4 atom-4 atom-5" d="M 534.3,150.3 L 474.2,150.3" style="fill:none;fill-rule:evenodd;stroke:#000000;stroke-width:2.0px;stroke-linecap:butt;stroke-linejoin:miter;stroke-opacity:1"/>
<path class="bond-4 atom-4 atom-5" d="M 474.2,150.3 L 414.0,150.3" style="fill:none;fill-rule:evenodd;stroke:#191919;stroke-width:2.0px;stroke-linecap:butt;stroke-linejoin:miter;stroke-opacity:1"/>
<path class="bond-5 atom-4 atom-6" d="M 540.0,160.1 L 568.8,110.4" style="fill:none;fill-rule:evenodd;stroke:#000000;stroke-width:2.0px;stroke-linecap:butt;stroke-linejoin:miter;stroke-opacity:1"/>
<path class="bond-5 atom-4 atom-6" d="M 568.8,110.4 L 597.5,60.6" style="fill:none;fill-rule:evenodd;stroke:#FF0000;stroke-width:2.0px;stroke-linecap:butt;stroke-linejoin:miter;stroke-opacity:1"/>
<path class="bond-5 atom-4 atom-6" d="M 523.0,150.3 L 551.7,100.5" style="fill:none;fill-rule:evenodd;stroke:#000000;stroke-width:2.0px;stroke-linecap:butt;stroke-linejoin:miter;stroke-opacity:1"/>
<path class="bond-5 atom-4 atom-6" d="M 551.7,100.5 L 580.4,50.7" style="fill:none;fill-rule:evenodd;stroke:#FF0000;stroke-width:2.0px;stroke-linecap:butt;stroke-linejoin:miter;stroke-opacity:1"/>
<path d="M 537.6,156.0 L 534.3,150.3 L 531.3,150.3" style="fill:none;stroke:#000000;stroke-width:2.0px;stroke-linecap:butt;stroke-linejoin:miter;stroke-opacity:1;"/>
<path class="atom-0" d="M 791.6 147.1 L 795.8 142.9 L 790.3 141.8 L 791.1 138.9 L 796.2 141.5 L 795.5 135.9 L 798.5 135.9 L 797.6 141.5 L 802.8 139.1 L 803.7 141.8 L 798.1 142.8 L 802.1 147.1 L 799.6 148.9 L 796.9 143.6 L 794.1 148.9 L 791.6 147.1 " fill="#191919"/>
<path class="atom-1" d="M 718.3 264.1 Q 718.3 257.3, 721.7 253.5 Q 725.0 249.7, 731.3 249.7 Q 737.6 249.7, 741.0 253.5 Q 744.3 257.3, 744.3 264.1 Q 744.3 271.0, 740.9 274.9 Q 737.5 278.8, 731.3 278.8 Q 725.1 278.8, 721.7 274.9 Q 718.3 271.0, 718.3 264.1 M 731.3 275.6 Q 735.6 275.6, 738.0 272.7 Q 740.3 269.8, 740.3 264.1 Q 740.3 258.5, 738.0 255.7 Q 735.6 252.9, 731.3 252.9 Q 727.0 252.9, 724.6 255.7 Q 722.3 258.5, 722.3 264.1 Q 722.3 269.8, 724.6 272.7 Q 727.0 275.6, 731.3 275.6 " fill="#FF0000"/>
<path class="atom-5" d="M 397.7 147.1 L 401.8 142.9 L 396.3 141.8 L 397.2 138.9 L 402.2 141.5 L 401.5 135.9 L 404.5 135.9 L 403.7 141.5 L 408.8 139.1 L 409.7 141.8 L 404.1 142.8 L 408.1 147.1 L 405.7 148.9 L 402.9 143.6 L 400.1 148.9 L 397.7 147.1 " fill="#191919"/>
<path class="atom-6" d="M 587.0 36.6 Q 587.0 29.8, 590.4 26.0 Q 593.7 22.2, 600.0 22.2 Q 606.3 22.2, 609.6 26.0 Q 613.0 29.8, 613.0 36.6 Q 613.0 43.5, 609.6 47.4 Q 606.2 51.3, 600.0 51.3 Q 593.8 51.3, 590.4 47.4 Q 587.0 43.6, 587.0 36.6 M 600.0 48.1 Q 604.3 48.1, 606.6 45.2 Q 609.0 42.3, 609.0 36.6 Q 609.0 31.1, 606.6 28.3 Q 604.3 25.4, 600.0 25.4 Q 595.7 25.4, 593.3 28.2 Q 591.0 31.0, 591.0 36.6 Q 591.0 42.4, 593.3 45.2 Q 595.7 48.1, 600.0 48.1 " fill="#FF0000"/>
<path class="bond-0 atom-0 atom-1" d="M 991.6,607.0 L 947.2,635.4" style="fill:none;fill-rule:evenodd;stroke:#191919;stroke-width:2.0px;stroke-linecap:butt;stroke-linejoin:miter;stroke-opacity:1"/>
<path class="bond-0 atom-0 atom-1" d="M 947.2,635.4 L 902.9,663.8" style="fill:none;fill-rule:evenodd;stroke:#FF0000;stroke-width:2.0px;stroke-linecap:butt;stroke-linejoin:miter;stroke-opacity:1"/>
<path class="bond-1 atom-1 atom-2" d="M 868.2,665.9 L 818.6,640.2" style="fill:none;fill-rule:evenodd;stroke:#FF0000;stroke-width:2.0px;stroke-linecap:butt;stroke-linejoin:miter;stroke-opacity:1"/>
<path class="bond-1 atom-1 atom-2" d="M 818.6,640.2 L 768.9,614.5" style="fill:none;fill-rule:evenodd;stroke:#000000;stroke-width:2.0px;stroke-linecap:butt;stroke-linejoin:miter;stroke-opacity:1"/>
<path class="bond-2 atom-2 atom-3" d="M 768.9,614.5 L 658.3,685.3" style="fill:none;fill-rule:evenodd;stroke:#000000;stroke-width:2.0px;stroke-linecap:butt;stroke-linejoin:miter;stroke-opacity:1"/>
<path class="bond-3 atom-3 atom-4" d="M 658.3,685.3 L 541.7,624.8" style="fill:none;fill-rule:evenodd;stroke:#000000;stroke-width:2.0px;stroke-linecap:butt;stroke-linejoin:miter;stroke-opacity:1"/>
<path class="bond-4 atom-4 atom-5" d="M 541.7,624.8 L 495.1,654.7" style="fill:none;fill-rule:evenodd;stroke:#000000;stroke-width:2.0px;stroke-linecap:butt;stroke-linejoin:miter;stroke-opacity:1"/>
<path class="bond-4 atom-4 atom-5" d="M 495.1,654.7 L 448.4,684.5" style="fill:none;fill-rule:evenodd;stroke:#FF0000;stroke-width:2.0px;stroke-linecap:butt;stroke-linejoin:miter;stroke-opacity:1"/>
<path class="bond-5 atom-5 atom-6" d="M 413.7,686.6 L 364.1,660.9" style="fill:none;fill-rule:evenodd;stroke:#FF0000;stroke-width:2.0px;stroke-linecap:butt;stroke-linejoin:miter;stroke-opacity:1"/>
<path class="bond-5 atom-5 atom-6" d="M 364.1,660.9 L 314.5,635.2" style="fill:none;fill-rule:evenodd;stroke:#000000;stroke-width:2.0px;stroke-linecap:butt;stroke-linejoin:miter;stroke-opacity:1"/>
<path class="bond-6 atom-6 atom-7" d="M 314.5,635.2 L 264.7,667.0" style="fill:none;fill-rule:evenodd;stroke:#000000;stroke-width:2.0px;stroke-linecap:butt;stroke-linejoin:miter;stroke-opacity:1"/>
<path class="bond-6 atom-6 atom-7" d="M 264.7,667.0 L 214.9,698.9" style="fill:none;fill-rule:evenodd;stroke:#191919;stroke-width:2.0px;stroke-linecap:butt;stroke-linejoin:miter;stroke-opacity:1"/>
<path class="bond-7 atom-6 atom-8" d="M 324.6,640.4 L 321.9,581.5" style="fill:none;fill-rule:evenodd;stroke:#000000;stroke-width:2.0px;stroke-linecap:butt;stroke-linejoin:miter;stroke-opacity:1"/>
<path class="bond-7 atom-6 atom-8" d="M 321.9,581.5 L 319.2,522.6" style="fill:none;fill-rule:evenodd;stroke:#FF0000;stroke-width:2.0px;stroke-linecap:butt;stroke-linejoin:miter;stroke-opacity:1"/>
<path class="bond-7 atom-6 atom-8" d="M 304.9,641.3 L 302.2,582.4" style="fill:none;fill-rule:evenodd;stroke:#000000;stroke-width:2.0px;stroke-linecap:butt;stroke-linejoin:miter;stroke-opacity:1"/>
<path class="bond-7 atom-6 atom-8" d="M 302.2,582.4 L 299.5,523.5" style="fill:none;fill-rule:evenodd;stroke:#FF0000;stroke-width:2.0px;stroke-linecap:butt;stroke-linejoin:miter;stroke-opacity:1"/>
<path d="M 771.4,615.8 L 768.9,614.5 L 763.4,618.0" style="fill:none;stroke:#000000;stroke-width:2.0px;stroke-linecap:butt;stroke-linejoin:miter;stroke-opacity:1;"/>
<path d="M 663.8,681.7 L 658.3,685.3 L 652.5,682.2" style="fill:none;stroke:#000000;stroke-width:2.0px;stroke-linecap:butt;stroke-linejoin:miter;stroke-opacity:1;"/>
<path d="M 547.5,627.8 L 541.7,624.8 L 539.4,626.3" style="fill:none;stroke:#000000;stroke-width:2.0px;stroke-linecap:butt;stroke-linejoin:miter;stroke-opacity:1;"/>
<path d="M 317.0,636.4 L 314.5,635.2 L 312.0,636.8" style="fill:none;stroke:#000000;stroke-width:2.0px;stroke-linecap:butt;stroke-linejoin:miter;stroke-opacity:1;"/>
<path class="atom-0" d="M 990.8 601.0 L 995.0 596.8 L 989.5 595.6 L 990.3 592.8 L 995.4 595.4 L 994.7 589.8 L 997.7 589.8 L 996.8 595.3 L 1002.0 592.9 L 1002.9 595.6 L 997.3 596.7 L 1001.3 601.0 L 998.8 602.7 L 996.1 597.4 L 993.3 602.7 L 990.8 601.0 " fill="#191919"/>
<path class="atom-1" d="M 872.5 675.0 Q 872.5 668.2, 875.9 664.4 Q 879.2 660.6, 885.5 660.6 Q 891.8 660.6, 895.2 664.4 Q 898.5 668.2, 898.5 675.0 Q 898.5 681.9, 895.1 685.8 Q 891.7 689.7, 885.5 689.7 Q 879.3 689.7, 875.9 685.8 Q 872.5 681.9, 872.5 675.0 M 885.5 686.5 Q 889.8 686.5, 892.2 683.6 Q 894.5 680.7, 894.5 675.0 Q 894.5 669.4, 892.2 666.6 Q 889.8 663.8, 885.5 663.8 Q 881.2 663.8, 878.8 666.6 Q 876.5 669.4, 876.5 675.0 Q 876.5 680.7, 878.8 683.6 Q 881.2 686.5, 885.5 686.5 " fill="#FF0000"/>
<path class="atom-5" d="M 418.1 695.7 Q 418.1 688.9, 421.4 685.1 Q 424.8 681.3, 431.1 681.3 Q 437.4 681.3, 440.7 685.1 Q 444.1 688.9, 444.1 695.7 Q 444.1 702.5, 440.7 706.5 Q 437.3 710.3, 431.1 710.3 Q 424.8 710.3, 421.4 706.5 Q 418.1 702.6, 418.1 695.7 M 431.1 707.1 Q 435.4 707.1, 437.7 704.3 Q 440.1 701.3, 440.1 695.7 Q 440.1 690.1, 437.7 687.3 Q 435.4 684.5, 431.1 684.5 Q 426.8 684.5, 424.4 687.3 Q 422.1 690.1, 422.1 695.7 Q 422.1 701.4, 424.4 704.3 Q 426.8 707.1, 431.1 707.1 " fill="#FF0000"/>
<path class="atom-7" d="M 198.5 702.8 L 202.7 698.5 L 197.1 697.4 L 198.0 694.6 L 203.1 697.1 L 202.3 691.6 L 205.3 691.5 L 204.5 697.1 L 209.7 694.7 L 210.5 697.4 L 204.9 698.4 L 208.9 702.7 L 206.5 704.5 L 203.7 699.2 L 200.9 704.5 L 198.5 702.8 " fill="#191919"/>
<path class="atom-8" d="M 295.5 504.1 Q 295.5 497.3, 298.9 493.5 Q 302.2 489.7, 308.5 489.7 Q 314.8 489.7, 318.1 493.5 Q 321.5 497.3, 321.5 504.1 Q 321.5 510.9, 318.1 514.9 Q 314.7 518.7, 308.5 518.7 Q 302.3 518.7, 298.9 514.9 Q 295.5 511.0, 295.5 504.1 M 308.5 515.5 Q 312.8 515.5, 315.1 512.7 Q 317.5 509.7, 317.5 504.1 Q 317.5 498.5, 315.1 495.7 Q 312.8 492.9, 308.5 492.9 Q 304.2 492.9, 301.8 495.7 Q 299.5 498.5, 299.5 504.1 Q 299.5 509.8, 301.8 512.7 Q 304.2 515.5, 308.5 515.5 " fill="#FF0000"/>
</svg>