<svg xmlns="http://www.w3.org/2000/svg" xmlns:rdkit="http://www.rdkit.org/xml" xmlns:xlink="http://www.w3.org/1999/xlink" version="1.1" baseProfile="full" xml:space="preserve" width="1200px" height="800px" viewBox="0 0 1200 800">
<!-- END OF HEADER -->
<rect style="opacity:1.0;fill:#FFFFFF;stroke:none" width="1200.0" height="800.0" x="0.0" y="0.0"> </rect>
<path class="bond-0 atom-0 atom-1" d="M 1055.1,221.6 L 1012.2,249.3" style="fill:none;fill-rule:evenodd;stroke:#191919;stroke-width:2.0px;stroke-linecap:butt;stroke-linejoin:miter;stroke-opacity:1"/>
<path class="bond-0 atom-0 atom-1" d="M 1012.2,249.3 L 969.3,277.1" style="fill:none;fill-rule:evenodd;stroke:#FF0000;stroke-width:2.0px;stroke-linecap:butt;stroke-linejoin:miter;stroke-opacity:1"/>
<path class="bond-1 atom-1 atom-2" d="M 934.9,279.4 L 886.6,254.7" style="fill:none;fill-rule:evenodd;stroke:#FF0000;stroke-width:2.0px;stroke-linecap:butt;stroke-linejoin:miter;stroke-opacity:1"/>
<path class="bond-1 atom-1 atom-2" d="M 886.6,254.7 L 838.3,230.0" style="fill:none;fill-rule:evenodd;stroke:#000000;stroke-width:2.0px;stroke-linecap:butt;stroke-linejoin:miter;stroke-opacity:1"/>
<path class="bond-2 atom-2 atom-3" d="M 848.1,235.0 L 845.2,177.9" style="fill:none;fill-rule:evenodd;stroke:#000000;stroke-width:2.0px;stroke-linecap:butt;stroke-linejoin:miter;stroke-opacity:1"/>
<path class="bond-2 atom-2 atom-3" d="M 845.2,177.9 L 842.4,120.8" style="fill:none;fill-rule:evenodd;stroke:#FF0000;stroke-width:2.0px;stroke-linecap:butt;stroke-linejoin:miter;stroke-opacity:1"/>
<path class="bond-2 atom-2 atom-3" d="M 829.0,236.0 L 826.1,178.9" style="fill:none;fill-rule:evenodd;stroke:#000000;stroke-width:2.0px;stroke-linecap:butt;stroke-linejoin:miter;stroke-opacity:1"/>
<path class="bond-2 atom-2 atom-3" d="M 826.1,178.9 L 823.2,121.7" style="fill:none;fill-rule:evenodd;stroke:#FF0000;stroke-width:2.0px;stroke-linecap:butt;stroke-linejoin:miter;stroke-opacity:1"/>
<path class="bond-3 atom-2 atom-4" d="M 838.3,230.0 L 730.9,299.4" style="fill:none;fill-rule:evenodd;stroke:#000000;stroke-width:2.0px;stroke-linecap:butt;stroke-linejoin:miter;stroke-opacity:1"/>
<path class="bond-4 atom-4 atom-5" d="M 730.9,299.4 L 617.1,241.1" style="fill:none;fill-rule:evenodd;stroke:#000000;stroke-width:2.0px;stroke-linecap:butt;stroke-linejoin:miter;stroke-opacity:1"/>
<path class="bond-5 atom-5 atom-6" d="M 617.1,241.1 L 592.8,288.7" style="fill:none;fill-rule:evenodd;stroke:#000000;stroke-width:2.0px;stroke-linecap:butt;stroke-linejoin:miter;stroke-opacity:1"/>
<path class="bond-5 atom-5 atom-6" d="M 592.8,288.7 L 568.4,336.3" style="fill:none;fill-rule:evenodd;stroke:#191919;stroke-width:2.0px;stroke-linecap:butt;stroke-linejoin:miter;stroke-opacity:1"/>
<path class="bond-6 atom-5 atom-7" d="M 617.1,241.1 L 675.4,127.3" style="fill:none;fill-rule:evenodd;stroke:#000000;stroke-width:2.0px;stroke-linecap:butt;stroke-linejoin:miter;stroke-opacity:1"/>
<path class="bond-7 atom-7 atom-8" d="M 675.4,127.3 L 606.0,20.0" style="fill:none;fill-rule:evenodd;stroke:#000000;stroke-width:2.0px;stroke-linecap:butt;stroke-linejoin:miter;stroke-opacity:1"/>
<path class="bond-8 atom-5 atom-9" d="M 617.1,241.1 L 503.3,182.9" style="fill:none;fill-rule:evenodd;stroke:#000000;stroke-width:2.0px;stroke-linecap:butt;stroke-linejoin:miter;stroke-opacity:1"/>
<path class="bond-9 atom-9 atom-10" d="M 503.3,182.9 L 396.0,252.3" style="fill:none;fill-rule:evenodd;stroke:#000000;stroke-width:2.0px;stroke-linecap:butt;stroke-linejoin:miter;stroke-opacity:1"/>
<path class="bond-10 atom-10 atom-11" d="M 396.0,252.3 L 402.4,380.0" style="fill:none;fill-rule:evenodd;stroke:#000000;stroke-width:2.0px;stroke-linecap:butt;stroke-linejoin:miter;stroke-opacity:1"/>
<path class="bond-11 atom-10 atom-12" d="M 396.0,252.3 L 282.2,194.1" style="fill:none;fill-rule:evenodd;stroke:#000000;stroke-width:2.0px;stroke-linecap:butt;stroke-linejoin:miter;stroke-opacity:1"/>
<path class="bond-12 atom-12 atom-13" d="M 292.0,199.1 L 289.2,142.0" style="fill:none;fill-rule:evenodd;stroke:#000000;stroke-width:2.0px;stroke-linecap:butt;stroke-linejoin:miter;stroke-opacity:1"/>
<path class="bond-12 atom-12 atom-13" d="M 289.2,142.0 L 286.3,84.9" style="fill:none;fill-rule:evenodd;stroke:#FF0000;stroke-width:2.0px;stroke-linecap:butt;stroke-linejoin:miter;stroke-opacity:1"/>
<path class="bond-12 atom-12 atom-13" d="M 272.9,200.1 L 270.0,143.0" style="fill:none;fill-rule:evenodd;stroke:#000000;stroke-width:2.0px;stroke-linecap:butt;stroke-linejoin:miter;stroke-opacity:1"/>
<path class="bond-12 atom-12 atom-13" d="M 270.0,143.0 L 267.1,85.9" style="fill:none;fill-rule:evenodd;stroke:#FF0000;stroke-width:2.0px;stroke-linecap:butt;stroke-linejoin:miter;stroke-opacity:1"/>
<path class="bond-13 atom-12 atom-14" d="M 282.2,194.1 L 237.1,223.2" style="fill:none;fill-rule:evenodd;stroke:#000000;stroke-width:2.0px;stroke-linecap:butt;stroke-linejoin:miter;stroke-opacity:1"/>
<path class="bond-13 atom-12 atom-14" d="M 237.1,223.2 L 192.1,252.4" style="fill:none;fill-rule:evenodd;stroke:#FF0000;stroke-width:2.0px;stroke-linecap:butt;stroke-linejoin:miter;stroke-opacity:1"/>
<path d="M 840.7,231.2 L 838.3,230.0 L 832.9,233.4" style="fill:none;stroke:#000000;stroke-width:2.0px;stroke-linecap:butt;stroke-linejoin:miter;stroke-opacity:1;"/>
<path d="M 736.3,295.9 L 730.9,299.4 L 725.2,296.5" style="fill:none;stroke:#000000;stroke-width:2.0px;stroke-linecap:butt;stroke-linejoin:miter;stroke-opacity:1;"/>
<path d="M 672.5,133.0 L 675.4,127.3 L 671.9,122.0" style="fill:none;stroke:#000000;stroke-width:2.0px;stroke-linecap:butt;stroke-linejoin:miter;stroke-opacity:1;"/>
<path d="M 509.0,185.8 L 503.3,182.9 L 498.0,186.4" style="fill:none;stroke:#000000;stroke-width:2.0px;stroke-linecap:butt;stroke-linejoin:miter;stroke-opacity:1;"/>
<path d="M 287.9,197.0 L 282.2,194.1 L 279.9,195.5" style="fill:none;stroke:#000000;stroke-width:2.0px;stroke-linecap:butt;stroke-linejoin:miter;stroke-opacity:1;"/>
<path class="atom-0" d="M 1054.1 215.6 L 1058.2 211.4 L 1052.7 210.3 L 1053.6 207.4 L 1058.6 210.0 L 1057.9 204.4 L 1060.9 204.4 L 1060.1 209.9 L 1065.2 207.5 L 1066.1 210.3 L 1060.5 211.3 L 1064.5 215.6 L 1062.1 217.3 L 1059.3 212.1 L 1056.5 217.3 L 1054.1 215.6 " fill="#191919"/>
<path class="atom-1" d="M 939.1 288.3 Q 939.1 281.5, 942.4 277.7 Q 945.8 273.9, 952.1 273.9 Q 958.4 273.9, 961.7 277.7 Q 965.1 281.5, 965.1 288.3 Q 965.1 295.2, 961.7 299.1 Q 958.3 303.0, 952.1 303.0 Q 945.8 303.0, 942.4 299.1 Q 939.1 295.2, 939.1 288.3 M 952.1 299.8 Q 956.4 299.8, 958.7 296.9 Q 961.1 294.0, 961.1 288.3 Q 961.1 282.7, 958.7 279.9 Q 956.4 277.1, 952.1 277.1 Q 947.8 277.1, 945.4 279.9 Q 943.1 282.7, 943.1 288.3 Q 943.1 294.0, 945.4 296.9 Q 947.8 299.8, 952.1 299.8 " fill="#FF0000"/>
<path class="atom-3" d="M 818.8 102.4 Q 818.8 95.6, 822.2 91.8 Q 825.5 88.0, 831.8 88.0 Q 838.1 88.0, 841.5 91.8 Q 844.8 95.6, 844.8 102.4 Q 844.8 109.2, 841.4 113.2 Q 838.0 117.0, 831.8 117.0 Q 825.6 117.0, 822.2 113.2 Q 818.8 109.3, 818.8 102.4 M 831.8 113.8 Q 836.1 113.8, 838.5 111.0 Q 840.8 108.0, 840.8 102.4 Q 840.8 96.8, 838.5 94.0 Q 836.1 91.2, 831.8 91.2 Q 827.5 91.2, 825.1 94.0 Q 822.8 96.8, 822.8 102.4 Q 822.8 108.1, 825.1 111.0 Q 827.5 113.8, 831.8 113.8 " fill="#FF0000"/>
<path class="atom-6" d="M 553.5 351.8 L 557.7 347.5 L 552.2 346.4 L 553.0 343.6 L 558.1 346.1 L 557.4 340.6 L 560.4 340.5 L 559.5 346.1 L 564.7 343.7 L 565.6 346.4 L 560.0 347.5 L 564.0 351.7 L 561.5 353.5 L 558.8 348.2 L 556.0 353.5 L 553.5 351.8 " fill="#191919"/>
<path class="atom-13" d="M 262.7 66.5 Q 262.7 59.7, 266.1 55.9 Q 269.5 52.1, 275.7 52.1 Q 282.0 52.1, 285.4 55.9 Q 288.7 59.7, 288.7 66.5 Q 288.7 73.4, 285.3 77.3 Q 281.9 81.2, 275.7 81.2 Q 269.5 81.2, 266.1 77.3 Q 262.7 73.4, 262.7 66.5 M 275.7 78.0 Q 280.1 78.0, 282.4 75.1 Q 284.7 72.2, 284.7 66.5 Q 284.7 60.9, 282.4 58.1 Q 280.1 55.3, 275.7 55.3 Q 271.4 55.3, 269.1 58.1 Q 266.7 60.9, 266.7 66.5 Q 266.7 72.2, 269.1 75.1 Q 271.4 78.0, 275.7 78.0 " fill="#FF0000"/>
<path class="atom-14" d="M 133.9 249.5 L 137.7 249.5 L 137.7 261.5 L 152.2 261.5 L 152.2 249.5 L 156.0 249.5 L 156.0 277.8 L 152.2 277.8 L 152.2 264.7 L 137.7 264.7 L 137.7 277.8 L 133.9 277.8 L 133.9 249.5 " fill="#FF0000"/>
<path class="atom-14" d="M 161.9 263.6 Q 161.9 256.8, 165.2 253.0 Q 168.6 249.2, 174.9 249.2 Q 181.1 249.2, 184.5 253.0 Q 187.9 256.8, 187.9 263.6 Q 187.9 270.5, 184.5 274.4 Q 181.1 278.3, 174.9 278.3 Q 168.6 278.3, 165.2 274.4 Q 161.9 270.5, 161.9 263.6 M 174.9 275.1 Q 179.2 275.1, 181.5 272.2 Q 183.9 269.3, 183.9 263.6 Q 183.9 258.0, 181.5 255.2 Q 179.2 252.4, 174.9 252.4 Q 170.5 252.4, 168.2 255.2 Q 165.9 258.0, 165.9 263.6 Q 165.9 269.3, 168.2 272.2 Q 170.5 275.1, 174.9 275.1 " fill="#FF0000"/>
<path class="bond-0 atom-0 atom-1" d="M 871.7,632.3 L 827.7,658.5" style="fill:none;fill-rule:evenodd;stroke:#191919;stroke-width:2.0px;stroke-linecap:butt;stroke-linejoin:miter;stroke-opacity:1"/>
<path class="bond-0 atom-0 atom-1" d="M 827.7,658.5 L 783.7,684.7" style="fill:none;fill-rule:evenodd;stroke:#FF0000;stroke-width:2.0px;stroke-linecap:butt;stroke-linejoin:miter;stroke-opacity:1"/>
<path class="bond-1 atom-1 atom-2" d="M 749.3,685.3 L 702.1,658.9" style="fill:none;fill-rule:evenodd;stroke:#FF0000;stroke-width:2.0px;stroke-linecap:butt;stroke-linejoin:miter;stroke-opacity:1"/>
<path class="bond-1 atom-1 atom-2" d="M 702.1,658.9 L 654.9,632.5" style="fill:none;fill-rule:evenodd;stroke:#000000;stroke-width:2.0px;stroke-linecap:butt;stroke-linejoin:miter;stroke-opacity:1"/>
<path class="bond-2 atom-2 atom-3" d="M 664.6,637.9 L 663.8,580.7" style="fill:none;fill-rule:evenodd;stroke:#000000;stroke-width:2.0px;stroke-linecap:butt;stroke-linejoin:miter;stroke-opacity:1"/>
<path class="bond-2 atom-2 atom-3" d="M 663.8,580.7 L 663.1,523.5" style="fill:none;fill-rule:evenodd;stroke:#FF0000;stroke-width:2.0px;stroke-linecap:butt;stroke-linejoin:miter;stroke-opacity:1"/>
<path class="bond-2 atom-2 atom-3" d="M 645.4,638.1 L 644.7,580.9" style="fill:none;fill-rule:evenodd;stroke:#000000;stroke-width:2.0px;stroke-linecap:butt;stroke-linejoin:miter;stroke-opacity:1"/>
<path class="bond-2 atom-2 atom-3" d="M 644.7,580.9 L 643.9,523.8" style="fill:none;fill-rule:evenodd;stroke:#FF0000;stroke-width:2.0px;stroke-linecap:butt;stroke-linejoin:miter;stroke-opacity:1"/>
<path class="bond-3 atom-2 atom-4" d="M 654.9,632.5 L 545.1,697.9" style="fill:none;fill-rule:evenodd;stroke:#000000;stroke-width:2.0px;stroke-linecap:butt;stroke-linejoin:miter;stroke-opacity:1"/>
<path class="bond-4 atom-4 atom-5" d="M 545.1,697.9 L 433.5,635.4" style="fill:none;fill-rule:evenodd;stroke:#000000;stroke-width:2.0px;stroke-linecap:butt;stroke-linejoin:miter;stroke-opacity:1"/>
<path class="bond-5 atom-5 atom-6" d="M 433.5,635.4 L 384.1,664.9" style="fill:none;fill-rule:evenodd;stroke:#000000;stroke-width:2.0px;stroke-linecap:butt;stroke-linejoin:miter;stroke-opacity:1"/>
<path class="bond-5 atom-5 atom-6" d="M 384.1,664.9 L 334.6,694.3" style="fill:none;fill-rule:evenodd;stroke:#191919;stroke-width:2.0px;stroke-linecap:butt;stroke-linejoin:miter;stroke-opacity:1"/>
<path class="bond-6 atom-5 atom-7" d="M 433.5,635.4 L 431.8,507.6" style="fill:none;fill-rule:evenodd;stroke:#000000;stroke-width:2.0px;stroke-linecap:butt;stroke-linejoin:miter;stroke-opacity:1"/>
<path d="M 657.3,633.8 L 654.9,632.5 L 649.4,635.7" style="fill:none;stroke:#000000;stroke-width:2.0px;stroke-linecap:butt;stroke-linejoin:miter;stroke-opacity:1;"/>
<path d="M 550.6,694.6 L 545.1,697.9 L 539.5,694.7" style="fill:none;stroke:#000000;stroke-width:2.0px;stroke-linecap:butt;stroke-linejoin:miter;stroke-opacity:1;"/>
<path class="atom-0" d="M 871.0 626.4 L 875.1 622.1 L 869.6 621.0 L 870.5 618.2 L 875.5 620.7 L 874.8 615.2 L 877.8 615.1 L 877.0 620.7 L 882.1 618.3 L 883.0 621.0 L 877.4 622.0 L 881.4 626.3 L 879.0 628.1 L 876.2 622.8 L 873.4 628.1 L 871.0 626.4 " fill="#191919"/>
<path class="atom-1" d="M 753.5 695.0 Q 753.5 688.2, 756.8 684.4 Q 760.2 680.6, 766.5 680.6 Q 772.8 680.6, 776.1 684.4 Q 779.5 688.2, 779.5 695.0 Q 779.5 701.9, 776.1 705.8 Q 772.7 709.7, 766.5 709.7 Q 760.2 709.7, 756.8 705.8 Q 753.5 701.9, 753.5 695.0 M 766.5 706.5 Q 770.8 706.5, 773.1 703.6 Q 775.5 700.7, 775.5 695.0 Q 775.5 689.4, 773.1 686.6 Q 770.8 683.8, 766.5 683.8 Q 762.2 683.8, 759.8 686.6 Q 757.5 689.4, 757.5 695.0 Q 757.5 700.7, 759.8 703.6 Q 762.2 706.5, 766.5 706.5 " fill="#FF0000"/>
<path class="atom-3" d="M 640.2 504.7 Q 640.2 497.9, 643.6 494.1 Q 646.9 490.3, 653.2 490.3 Q 659.5 490.3, 662.9 494.1 Q 666.2 497.9, 666.2 504.7 Q 666.2 511.6, 662.8 515.5 Q 659.4 519.4, 653.2 519.4 Q 647.0 519.4, 643.6 515.5 Q 640.2 511.6, 640.2 504.7 M 653.2 516.2 Q 657.5 516.2, 659.9 513.3 Q 662.2 510.4, 662.2 504.7 Q 662.2 499.2, 659.9 496.4 Q 657.5 493.5, 653.2 493.5 Q 648.9 493.5, 646.5 496.3 Q 644.2 499.1, 644.2 504.7 Q 644.2 510.4, 646.5 513.3 Q 648.9 516.2, 653.2 516.2 " fill="#FF0000"/>
<path class="atom-6" d="M 318.3 697.7 L 322.5 693.4 L 317.0 692.3 L 317.8 689.5 L 322.9 692.0 L 322.2 686.5 L 325.2 686.4 L 324.3 692.0 L 329.5 689.6 L 330.4 692.3 L 324.8 693.3 L 328.8 697.6 L 326.3 699.4 L 323.6 694.1 L 320.8 699.4 L 318.3 697.7 " fill="#191919"/>
</svg>