<svg xmlns="http://www.w3.org/2000/svg" xmlns:rdkit="http://www.rdkit.org/xml" xmlns:xlink="http://www.w3.org/1999/xlink" version="1.1" baseProfile="full" xml:space="preserve" width="1200px" height="1200px" viewBox="0 0 1200 1200">
<!-- END OF HEADER -->
<rect style="opacity:1.0;fill:#FFFFFF;stroke:none" width="1200.0" height="1200.0" x="0.0" y="0.0"> </rect>
<path class="bond-0 atom-0 atom-1" d="M 840.1,73.1 L 823.3,126.0" style="fill:none;fill-rule:evenodd;stroke:#191919;stroke-width:2.0px;stroke-linecap:butt;stroke-linejoin:miter;stroke-opacity:1"/>
<path class="bond-0 atom-0 atom-1" d="M 823.3,126.0 L 806.5,178.9" style="fill:none;fill-rule:evenodd;stroke:#FF0000;stroke-width:2.0px;stroke-linecap:butt;stroke-linejoin:miter;stroke-opacity:1"/>
<path class="bond-1 atom-1 atom-2" d="M 783.2,201.5 L 726.6,213.9" style="fill:none;fill-rule:evenodd;stroke:#FF0000;stroke-width:2.0px;stroke-linecap:butt;stroke-linejoin:miter;stroke-opacity:1"/>
<path class="bond-1 atom-1 atom-2" d="M 726.6,213.9 L 670.0,226.4" style="fill:none;fill-rule:evenodd;stroke:#000000;stroke-width:2.0px;stroke-linecap:butt;stroke-linejoin:miter;stroke-opacity:1"/>
<path class="bond-2 atom-2 atom-3" d="M 669.1,229.8 L 668.6,229.6" style="fill:none;fill-rule:evenodd;stroke:#000000;stroke-width:1.0px;stroke-linecap:butt;stroke-linejoin:miter;stroke-opacity:1"/>
<path class="bond-2 atom-2 atom-3" d="M 668.3,233.2 L 667.3,232.9" style="fill:none;fill-rule:evenodd;stroke:#000000;stroke-width:1.0px;stroke-linecap:butt;stroke-linejoin:miter;stroke-opacity:1"/>
<path class="bond-2 atom-2 atom-3" d="M 667.5,236.7 L 666.0,236.2" style="fill:none;fill-rule:evenodd;stroke:#000000;stroke-width:1.0px;stroke-linecap:butt;stroke-linejoin:miter;stroke-opacity:1"/>
<path class="bond-2 atom-2 atom-3" d="M 666.7,240.1 L 664.7,239.5" style="fill:none;fill-rule:evenodd;stroke:#000000;stroke-width:1.0px;stroke-linecap:butt;stroke-linejoin:miter;stroke-opacity:1"/>
<path class="bond-2 atom-2 atom-3" d="M 665.9,243.5 L 663.4,242.7" style="fill:none;fill-rule:evenodd;stroke:#000000;stroke-width:1.0px;stroke-linecap:butt;stroke-linejoin:miter;stroke-opacity:1"/>
<path class="bond-2 atom-2 atom-3" d="M 665.1,247.0 L 662.1,246.0" style="fill:none;fill-rule:evenodd;stroke:#000000;stroke-width:1.0px;stroke-linecap:butt;stroke-linejoin:miter;stroke-opacity:1"/>
<path class="bond-2 atom-2 atom-3" d="M 664.3,250.4 L 660.7,249.3" style="fill:none;fill-rule:evenodd;stroke:#000000;stroke-width:1.0px;stroke-linecap:butt;stroke-linejoin:miter;stroke-opacity:1"/>
<path class="bond-2 atom-2 atom-3" d="M 663.4,253.8 L 659.4,252.6" style="fill:none;fill-rule:evenodd;stroke:#000000;stroke-width:1.0px;stroke-linecap:butt;stroke-linejoin:miter;stroke-opacity:1"/>
<path class="bond-2 atom-2 atom-3" d="M 662.6,257.3 L 658.1,255.8" style="fill:none;fill-rule:evenodd;stroke:#000000;stroke-width:1.0px;stroke-linecap:butt;stroke-linejoin:miter;stroke-opacity:1"/>
<path class="bond-2 atom-2 atom-3" d="M 661.8,260.7 L 656.8,259.1" style="fill:none;fill-rule:evenodd;stroke:#000000;stroke-width:1.0px;stroke-linecap:butt;stroke-linejoin:miter;stroke-opacity:1"/>
<path class="bond-2 atom-2 atom-3" d="M 661.0,264.1 L 655.5,262.4" style="fill:none;fill-rule:evenodd;stroke:#000000;stroke-width:1.0px;stroke-linecap:butt;stroke-linejoin:miter;stroke-opacity:1"/>
<path class="bond-2 atom-2 atom-3" d="M 660.2,267.6 L 654.2,265.7" style="fill:none;fill-rule:evenodd;stroke:#000000;stroke-width:1.0px;stroke-linecap:butt;stroke-linejoin:miter;stroke-opacity:1"/>
<path class="bond-2 atom-2 atom-3" d="M 659.4,271.0 L 652.8,268.9" style="fill:none;fill-rule:evenodd;stroke:#000000;stroke-width:1.0px;stroke-linecap:butt;stroke-linejoin:miter;stroke-opacity:1"/>
<path class="bond-2 atom-2 atom-3" d="M 658.6,274.4 L 651.5,272.2" style="fill:none;fill-rule:evenodd;stroke:#000000;stroke-width:1.0px;stroke-linecap:butt;stroke-linejoin:miter;stroke-opacity:1"/>
<path class="bond-2 atom-2 atom-3" d="M 657.8,277.9 L 650.2,275.5" style="fill:none;fill-rule:evenodd;stroke:#000000;stroke-width:1.0px;stroke-linecap:butt;stroke-linejoin:miter;stroke-opacity:1"/>
<path class="bond-2 atom-2 atom-3" d="M 656.9,281.3 L 648.9,278.8" style="fill:none;fill-rule:evenodd;stroke:#000000;stroke-width:1.0px;stroke-linecap:butt;stroke-linejoin:miter;stroke-opacity:1"/>
<path class="bond-2 atom-2 atom-3" d="M 656.1,284.7 L 647.6,282.0" style="fill:none;fill-rule:evenodd;stroke:#000000;stroke-width:1.0px;stroke-linecap:butt;stroke-linejoin:miter;stroke-opacity:1"/>
<path class="bond-2 atom-2 atom-3" d="M 655.3,288.2 L 646.3,285.3" style="fill:none;fill-rule:evenodd;stroke:#000000;stroke-width:1.0px;stroke-linecap:butt;stroke-linejoin:miter;stroke-opacity:1"/>
<path class="bond-2 atom-2 atom-3" d="M 654.5,291.6 L 644.9,288.6" style="fill:none;fill-rule:evenodd;stroke:#000000;stroke-width:1.0px;stroke-linecap:butt;stroke-linejoin:miter;stroke-opacity:1"/>
<path class="bond-2 atom-2 atom-3" d="M 653.7,295.1 L 643.6,291.9" style="fill:none;fill-rule:evenodd;stroke:#000000;stroke-width:1.0px;stroke-linecap:butt;stroke-linejoin:miter;stroke-opacity:1"/>
<path class="bond-2 atom-2 atom-3" d="M 652.9,298.5 L 642.3,295.1" style="fill:none;fill-rule:evenodd;stroke:#000000;stroke-width:1.0px;stroke-linecap:butt;stroke-linejoin:miter;stroke-opacity:1"/>
<path class="bond-2 atom-2 atom-3" d="M 652.1,301.9 L 641.0,298.4" style="fill:none;fill-rule:evenodd;stroke:#000000;stroke-width:1.0px;stroke-linecap:butt;stroke-linejoin:miter;stroke-opacity:1"/>
<path class="bond-2 atom-2 atom-3" d="M 651.3,305.4 L 639.7,301.7" style="fill:none;fill-rule:evenodd;stroke:#000000;stroke-width:1.0px;stroke-linecap:butt;stroke-linejoin:miter;stroke-opacity:1"/>
<path class="bond-2 atom-2 atom-3" d="M 650.4,308.8 L 638.4,305.0" style="fill:none;fill-rule:evenodd;stroke:#000000;stroke-width:1.0px;stroke-linecap:butt;stroke-linejoin:miter;stroke-opacity:1"/>
<path class="bond-2 atom-2 atom-3" d="M 649.6,312.2 L 637.1,308.2" style="fill:none;fill-rule:evenodd;stroke:#000000;stroke-width:1.0px;stroke-linecap:butt;stroke-linejoin:miter;stroke-opacity:1"/>
<path class="bond-2 atom-2 atom-3" d="M 648.8,315.7 L 635.7,311.5" style="fill:none;fill-rule:evenodd;stroke:#000000;stroke-width:1.0px;stroke-linecap:butt;stroke-linejoin:miter;stroke-opacity:1"/>
<path class="bond-2 atom-2 atom-3" d="M 648.0,319.1 L 634.4,314.8" style="fill:none;fill-rule:evenodd;stroke:#000000;stroke-width:1.0px;stroke-linecap:butt;stroke-linejoin:miter;stroke-opacity:1"/>
<path class="bond-2 atom-2 atom-3" d="M 647.2,322.5 L 633.1,318.1" style="fill:none;fill-rule:evenodd;stroke:#000000;stroke-width:1.0px;stroke-linecap:butt;stroke-linejoin:miter;stroke-opacity:1"/>
<path class="bond-2 atom-2 atom-3" d="M 646.4,326.0 L 631.8,321.3" style="fill:none;fill-rule:evenodd;stroke:#000000;stroke-width:1.0px;stroke-linecap:butt;stroke-linejoin:miter;stroke-opacity:1"/>
<path class="bond-2 atom-2 atom-3" d="M 645.6,329.4 L 630.5,324.6" style="fill:none;fill-rule:evenodd;stroke:#000000;stroke-width:1.0px;stroke-linecap:butt;stroke-linejoin:miter;stroke-opacity:1"/>
<path class="bond-2 atom-2 atom-3" d="M 644.8,332.8 L 629.2,327.9" style="fill:none;fill-rule:evenodd;stroke:#000000;stroke-width:1.0px;stroke-linecap:butt;stroke-linejoin:miter;stroke-opacity:1"/>
<path class="bond-2 atom-2 atom-3" d="M 643.9,336.3 L 627.8,331.2" style="fill:none;fill-rule:evenodd;stroke:#000000;stroke-width:1.0px;stroke-linecap:butt;stroke-linejoin:miter;stroke-opacity:1"/>
<path class="bond-2 atom-2 atom-3" d="M 643.1,339.7 L 626.5,334.4" style="fill:none;fill-rule:evenodd;stroke:#000000;stroke-width:1.0px;stroke-linecap:butt;stroke-linejoin:miter;stroke-opacity:1"/>
<path class="bond-2 atom-2 atom-3" d="M 642.3,343.1 L 625.2,337.7" style="fill:none;fill-rule:evenodd;stroke:#000000;stroke-width:1.0px;stroke-linecap:butt;stroke-linejoin:miter;stroke-opacity:1"/>
<path class="bond-2 atom-2 atom-3" d="M 641.5,346.6 L 623.9,341.0" style="fill:none;fill-rule:evenodd;stroke:#000000;stroke-width:1.0px;stroke-linecap:butt;stroke-linejoin:miter;stroke-opacity:1"/>
<path class="bond-2 atom-2 atom-3" d="M 640.7,350.0 L 622.6,344.3" style="fill:none;fill-rule:evenodd;stroke:#000000;stroke-width:1.0px;stroke-linecap:butt;stroke-linejoin:miter;stroke-opacity:1"/>
<path class="bond-2 atom-2 atom-3" d="M 639.9,353.4 L 621.3,347.5" style="fill:none;fill-rule:evenodd;stroke:#000000;stroke-width:1.0px;stroke-linecap:butt;stroke-linejoin:miter;stroke-opacity:1"/>
<path class="bond-2 atom-2 atom-3" d="M 639.1,356.9 L 619.9,350.8" style="fill:none;fill-rule:evenodd;stroke:#000000;stroke-width:1.0px;stroke-linecap:butt;stroke-linejoin:miter;stroke-opacity:1"/>
<path class="bond-3 atom-2 atom-4" d="M 670.0,226.4 L 579.8,127.6" style="fill:none;fill-rule:evenodd;stroke:#000000;stroke-width:2.0px;stroke-linecap:butt;stroke-linejoin:miter;stroke-opacity:1"/>
<path class="bond-4 atom-4 atom-5" d="M 579.8,127.6 L 449.1,156.3" style="fill:none;fill-rule:evenodd;stroke:#000000;stroke-width:2.0px;stroke-linecap:butt;stroke-linejoin:miter;stroke-opacity:1"/>
<path class="bond-5 atom-5 atom-6" d="M 449.1,156.3 L 405.4,108.4" style="fill:none;fill-rule:evenodd;stroke:#000000;stroke-width:2.0px;stroke-linecap:butt;stroke-linejoin:miter;stroke-opacity:1"/>
<path class="bond-5 atom-5 atom-6" d="M 405.4,108.4 L 361.7,60.5" style="fill:none;fill-rule:evenodd;stroke:#191919;stroke-width:2.0px;stroke-linecap:butt;stroke-linejoin:miter;stroke-opacity:1"/>
<path class="bond-6 atom-5 atom-7" d="M 441.3,147.7 L 423.2,204.9" style="fill:none;fill-rule:evenodd;stroke:#000000;stroke-width:2.0px;stroke-linecap:butt;stroke-linejoin:miter;stroke-opacity:1"/>
<path class="bond-6 atom-5 atom-7" d="M 423.2,204.9 L 405.1,262.0" style="fill:none;fill-rule:evenodd;stroke:#FF0000;stroke-width:2.0px;stroke-linecap:butt;stroke-linejoin:miter;stroke-opacity:1"/>
<path class="bond-6 atom-5 atom-7" d="M 460.5,153.8 L 442.3,210.9" style="fill:none;fill-rule:evenodd;stroke:#000000;stroke-width:2.0px;stroke-linecap:butt;stroke-linejoin:miter;stroke-opacity:1"/>
<path class="bond-6 atom-5 atom-7" d="M 442.3,210.9 L 424.2,268.1" style="fill:none;fill-rule:evenodd;stroke:#FF0000;stroke-width:2.0px;stroke-linecap:butt;stroke-linejoin:miter;stroke-opacity:1"/>
<path d="M 672.8,225.7 L 670.0,226.4 L 665.4,221.4" style="fill:none;stroke:#000000;stroke-width:2.0px;stroke-linecap:butt;stroke-linejoin:miter;stroke-opacity:1;"/>
<path d="M 584.3,132.5 L 579.8,127.6 L 573.2,129.0" style="fill:none;stroke:#000000;stroke-width:2.0px;stroke-linecap:butt;stroke-linejoin:miter;stroke-opacity:1;"/>
<path d="M 455.7,154.9 L 449.1,156.3 L 447.0,153.9" style="fill:none;stroke:#000000;stroke-width:2.0px;stroke-linecap:butt;stroke-linejoin:miter;stroke-opacity:1;"/>
<path class="atom-0" d="M 835.7 67.0 L 839.9 62.8 L 834.3 61.6 L 835.2 58.8 L 840.3 61.4 L 839.5 55.8 L 842.5 55.8 L 841.7 61.3 L 846.9 58.9 L 847.7 61.6 L 842.1 62.7 L 846.1 67.0 L 843.7 68.7 L 840.9 63.4 L 838.1 68.7 L 835.7 67.0 " fill="#191919"/>
<path class="atom-1" d="M 787.6 197.7 Q 787.6 190.9, 790.9 187.1 Q 794.3 183.3, 800.6 183.3 Q 806.9 183.3, 810.2 187.1 Q 813.6 190.9, 813.6 197.7 Q 813.6 204.6, 810.2 208.5 Q 806.8 212.4, 800.6 212.4 Q 794.3 212.4, 790.9 208.5 Q 787.6 204.6, 787.6 197.7 M 800.6 209.2 Q 804.9 209.2, 807.2 206.3 Q 809.6 203.4, 809.6 197.7 Q 809.6 192.2, 807.2 189.4 Q 804.9 186.5, 800.6 186.5 Q 796.3 186.5, 793.9 189.3 Q 791.6 192.1, 791.6 197.7 Q 791.6 203.4, 793.9 206.3 Q 796.3 209.2, 800.6 209.2 " fill="#FF0000"/>
<path class="atom-6" d="M 353.6 54.4 L 357.8 50.1 L 352.3 49.0 L 353.1 46.2 L 358.2 48.7 L 357.5 43.2 L 360.5 43.1 L 359.6 48.7 L 364.8 46.3 L 365.7 49.0 L 360.1 50.0 L 364.1 54.3 L 361.6 56.1 L 358.9 50.8 L 356.1 56.1 L 353.6 54.4 " fill="#191919"/>
<path class="atom-7" d="M 395.7 283.9 Q 395.7 277.1, 399.1 273.3 Q 402.4 269.5, 408.7 269.5 Q 415.0 269.5, 418.3 273.3 Q 421.7 277.1, 421.7 283.9 Q 421.7 290.7, 418.3 294.7 Q 414.9 298.5, 408.7 298.5 Q 402.5 298.5, 399.1 294.7 Q 395.7 290.8, 395.7 283.9 M 408.7 295.3 Q 413.0 295.3, 415.3 292.5 Q 417.7 289.5, 417.7 283.9 Q 417.7 278.3, 415.3 275.5 Q 413.0 272.7, 408.7 272.7 Q 404.4 272.7, 402.0 275.5 Q 399.7 278.3, 399.7 283.9 Q 399.7 289.6, 402.0 292.5 Q 404.4 295.3, 408.7 295.3 " fill="#FF0000"/>
<path class="bond-0 atom-0 atom-1" d="M 836.7,516.4 L 813.3,566.0" style="fill:none;fill-rule:evenodd;stroke:#191919;stroke-width:2.0px;stroke-linecap:butt;stroke-linejoin:miter;stroke-opacity:1"/>
<path class="bond-0 atom-0 atom-1" d="M 813.3,566.0 L 789.9,615.7" style="fill:none;fill-rule:evenodd;stroke:#FF0000;stroke-width:2.0px;stroke-linecap:butt;stroke-linejoin:miter;stroke-opacity:1"/>
<path class="bond-1 atom-1 atom-2" d="M 763.6,635.9 L 705.7,640.7" style="fill:none;fill-rule:evenodd;stroke:#FF0000;stroke-width:2.0px;stroke-linecap:butt;stroke-linejoin:miter;stroke-opacity:1"/>
<path class="bond-1 atom-1 atom-2" d="M 705.7,640.7 L 647.7,645.5" style="fill:none;fill-rule:evenodd;stroke:#000000;stroke-width:2.0px;stroke-linecap:butt;stroke-linejoin:miter;stroke-opacity:1"/>
<path class="bond-2 atom-2 atom-3" d="M 647.7,645.5 L 590.7,766.5" style="fill:none;fill-rule:evenodd;stroke:#000000;stroke-width:2.0px;stroke-linecap:butt;stroke-linejoin:miter;stroke-opacity:1"/>
<path class="bond-3 atom-3 atom-4" d="M 590.7,766.5 L 457.4,777.6" style="fill:none;fill-rule:evenodd;stroke:#000000;stroke-width:2.0px;stroke-linecap:butt;stroke-linejoin:miter;stroke-opacity:1"/>
<path class="bond-4 atom-2 atom-5" d="M 647.7,645.5 L 571.5,535.6" style="fill:none;fill-rule:evenodd;stroke:#000000;stroke-width:2.0px;stroke-linecap:butt;stroke-linejoin:miter;stroke-opacity:1"/>
<path class="bond-5 atom-5 atom-6" d="M 571.5,535.6 L 438.2,546.7" style="fill:none;fill-rule:evenodd;stroke:#000000;stroke-width:2.0px;stroke-linecap:butt;stroke-linejoin:miter;stroke-opacity:1"/>
<path class="bond-6 atom-6 atom-7" d="M 438.2,546.7 L 401.1,493.3" style="fill:none;fill-rule:evenodd;stroke:#000000;stroke-width:2.0px;stroke-linecap:butt;stroke-linejoin:miter;stroke-opacity:1"/>
<path class="bond-6 atom-6 atom-7" d="M 401.1,493.3 L 364.0,439.8" style="fill:none;fill-rule:evenodd;stroke:#191919;stroke-width:2.0px;stroke-linecap:butt;stroke-linejoin:miter;stroke-opacity:1"/>
<path class="bond-7 atom-6 atom-8" d="M 431.6,537.2 L 406.3,590.9" style="fill:none;fill-rule:evenodd;stroke:#000000;stroke-width:2.0px;stroke-linecap:butt;stroke-linejoin:miter;stroke-opacity:1"/>
<path class="bond-7 atom-6 atom-8" d="M 406.3,590.9 L 380.9,644.7" style="fill:none;fill-rule:evenodd;stroke:#FF0000;stroke-width:2.0px;stroke-linecap:butt;stroke-linejoin:miter;stroke-opacity:1"/>
<path class="bond-7 atom-6 atom-8" d="M 449.7,545.8 L 424.4,599.5" style="fill:none;fill-rule:evenodd;stroke:#000000;stroke-width:2.0px;stroke-linecap:butt;stroke-linejoin:miter;stroke-opacity:1"/>
<path class="bond-7 atom-6 atom-8" d="M 424.4,599.5 L 399.1,653.2" style="fill:none;fill-rule:evenodd;stroke:#FF0000;stroke-width:2.0px;stroke-linecap:butt;stroke-linejoin:miter;stroke-opacity:1"/>
<path d="M 593.5,760.4 L 590.7,766.5 L 584.0,767.0" style="fill:none;stroke:#000000;stroke-width:2.0px;stroke-linecap:butt;stroke-linejoin:miter;stroke-opacity:1;"/>
<path d="M 575.3,541.1 L 571.5,535.6 L 564.8,536.2" style="fill:none;stroke:#000000;stroke-width:2.0px;stroke-linecap:butt;stroke-linejoin:miter;stroke-opacity:1;"/>
<path d="M 444.9,546.2 L 438.2,546.7 L 436.3,544.0" style="fill:none;stroke:#000000;stroke-width:2.0px;stroke-linecap:butt;stroke-linejoin:miter;stroke-opacity:1;"/>
<path class="atom-0" d="M 832.7 510.3 L 836.9 506.0 L 831.4 504.9 L 832.2 502.1 L 837.3 504.6 L 836.6 499.1 L 839.6 499.0 L 838.7 504.6 L 843.9 502.2 L 844.8 504.9 L 839.2 506.0 L 843.2 510.2 L 840.7 512.0 L 838.0 506.7 L 835.2 512.0 L 832.7 510.3 " fill="#191919"/>
<path class="atom-1" d="M 768.0 634.5 Q 768.0 627.7, 771.4 623.9 Q 774.7 620.1, 781.0 620.1 Q 787.3 620.1, 790.7 623.9 Q 794.0 627.7, 794.0 634.5 Q 794.0 641.4, 790.6 645.3 Q 787.2 649.2, 781.0 649.2 Q 774.8 649.2, 771.4 645.3 Q 768.0 641.4, 768.0 634.5 M 781.0 646.0 Q 785.3 646.0, 787.7 643.1 Q 790.0 640.2, 790.0 634.5 Q 790.0 628.9, 787.7 626.1 Q 785.3 623.3, 781.0 623.3 Q 776.7 623.3, 774.3 626.1 Q 772.0 628.9, 772.0 634.5 Q 772.0 640.2, 774.3 643.1 Q 776.7 646.0, 781.0 646.0 " fill="#FF0000"/>
<path class="atom-7" d="M 356.6 433.7 L 360.8 429.4 L 355.2 428.3 L 356.1 425.5 L 361.2 428.0 L 360.4 422.5 L 363.4 422.4 L 362.6 428.0 L 367.8 425.6 L 368.6 428.3 L 363.0 429.3 L 367.0 433.6 L 364.6 435.4 L 361.8 430.1 L 359.0 435.4 L 356.6 433.7 " fill="#191919"/>
<path class="atom-8" d="M 368.2 667.8 Q 368.2 661.0, 371.5 657.2 Q 374.9 653.4, 381.2 653.4 Q 387.4 653.4, 390.8 657.2 Q 394.2 661.0, 394.2 667.8 Q 394.2 674.6, 390.8 678.6 Q 387.4 682.4, 381.2 682.4 Q 374.9 682.4, 371.5 678.6 Q 368.2 674.7, 368.2 667.8 M 381.2 679.2 Q 385.5 679.2, 387.8 676.4 Q 390.2 673.4, 390.2 667.8 Q 390.2 662.2, 387.8 659.4 Q 385.5 656.6, 381.2 656.6 Q 376.8 656.6, 374.5 659.4 Q 372.2 662.2, 372.2 667.8 Q 372.2 673.5, 374.5 676.4 Q 376.8 679.2, 381.2 679.2 " fill="#FF0000"/>
<path class="bond-0 atom-0 atom-1" d="M 265.0,1046.2 L 311.4,1024.7" style="fill:none;fill-rule:evenodd;stroke:#191919;stroke-width:2.0px;stroke-linecap:butt;stroke-linejoin:miter;stroke-opacity:1"/>
<path class="bond-0 atom-0 atom-1" d="M 311.4,1024.7 L 357.8,1003.1" style="fill:none;fill-rule:evenodd;stroke:#FF0000;stroke-width:2.0px;stroke-linecap:butt;stroke-linejoin:miter;stroke-opacity:1"/>
<path class="bond-1 atom-1 atom-2" d="M 392.6,1007.3 L 438.6,1039.6" style="fill:none;fill-rule:evenodd;stroke:#FF0000;stroke-width:2.0px;stroke-linecap:butt;stroke-linejoin:miter;stroke-opacity:1"/>
<path class="bond-1 atom-1 atom-2" d="M 438.6,1039.6 L 484.6,1071.9" style="fill:none;fill-rule:evenodd;stroke:#000000;stroke-width:2.0px;stroke-linecap:butt;stroke-linejoin:miter;stroke-opacity:1"/>
<path class="bond-2 atom-2 atom-3" d="M 484.6,1071.9 L 605.9,1015.5" style="fill:none;fill-rule:evenodd;stroke:#000000;stroke-width:2.0px;stroke-linecap:butt;stroke-linejoin:miter;stroke-opacity:1"/>
<path class="bond-3 atom-3 atom-4" d="M 605.9,1015.5 L 715.4,1092.4" style="fill:none;fill-rule:evenodd;stroke:#000000;stroke-width:2.0px;stroke-linecap:butt;stroke-linejoin:miter;stroke-opacity:1"/>
<path class="bond-4 atom-4 atom-5" d="M 715.4,1092.4 L 836.7,1036.1" style="fill:none;fill-rule:evenodd;stroke:#000000;stroke-width:2.0px;stroke-linecap:butt;stroke-linejoin:miter;stroke-opacity:1"/>
<path class="bond-5 atom-5 atom-6" d="M 836.7,1036.1 L 885.8,1070.6" style="fill:none;fill-rule:evenodd;stroke:#000000;stroke-width:2.0px;stroke-linecap:butt;stroke-linejoin:miter;stroke-opacity:1"/>
<path class="bond-5 atom-5 atom-6" d="M 885.8,1070.6 L 935.0,1105.1" style="fill:none;fill-rule:evenodd;stroke:#191919;stroke-width:2.0px;stroke-linecap:butt;stroke-linejoin:miter;stroke-opacity:1"/>
<path class="bond-6 atom-5 atom-7" d="M 846.1,1042.7 L 851.5,982.8" style="fill:none;fill-rule:evenodd;stroke:#000000;stroke-width:2.0px;stroke-linecap:butt;stroke-linejoin:miter;stroke-opacity:1"/>
<path class="bond-6 atom-5 atom-7" d="M 851.5,982.8 L 856.8,922.9" style="fill:none;fill-rule:evenodd;stroke:#FF0000;stroke-width:2.0px;stroke-linecap:butt;stroke-linejoin:miter;stroke-opacity:1"/>
<path class="bond-6 atom-5 atom-7" d="M 826.2,1040.9 L 831.5,981.0" style="fill:none;fill-rule:evenodd;stroke:#000000;stroke-width:2.0px;stroke-linecap:butt;stroke-linejoin:miter;stroke-opacity:1"/>
<path class="bond-6 atom-5 atom-7" d="M 831.5,981.0 L 836.8,921.1" style="fill:none;fill-rule:evenodd;stroke:#FF0000;stroke-width:2.0px;stroke-linecap:butt;stroke-linejoin:miter;stroke-opacity:1"/>
<path d="M 482.3,1070.3 L 484.6,1071.9 L 490.7,1069.1" style="fill:none;stroke:#000000;stroke-width:2.0px;stroke-linecap:butt;stroke-linejoin:miter;stroke-opacity:1;"/>
<path d="M 599.9,1018.4 L 605.9,1015.5 L 611.4,1019.4" style="fill:none;stroke:#000000;stroke-width:2.0px;stroke-linecap:butt;stroke-linejoin:miter;stroke-opacity:1;"/>
<path d="M 709.9,1088.6 L 715.4,1092.4 L 721.4,1089.6" style="fill:none;stroke:#000000;stroke-width:2.0px;stroke-linecap:butt;stroke-linejoin:miter;stroke-opacity:1;"/>
<path d="M 830.6,1038.9 L 836.7,1036.1 L 839.1,1037.8" style="fill:none;stroke:#000000;stroke-width:2.0px;stroke-linecap:butt;stroke-linejoin:miter;stroke-opacity:1;"/>
<path class="atom-0" d="M 248.5 1048.2 L 252.7 1044.0 L 247.2 1042.9 L 248.0 1040.0 L 253.1 1042.6 L 252.4 1037.0 L 255.4 1037.0 L 254.5 1042.6 L 259.7 1040.2 L 260.6 1042.9 L 255.0 1043.9 L 259.0 1048.2 L 256.5 1050.0 L 253.8 1044.7 L 251.0 1050.0 L 248.5 1048.2 " fill="#191919"/>
<path class="atom-1" d="M 362.2 995.1 Q 362.2 988.3, 365.5 984.5 Q 368.9 980.7, 375.2 980.7 Q 381.5 980.7, 384.8 984.5 Q 388.2 988.3, 388.2 995.1 Q 388.2 1002.0, 384.8 1005.9 Q 381.4 1009.8, 375.2 1009.8 Q 368.9 1009.8, 365.5 1005.9 Q 362.2 1002.0, 362.2 995.1 M 375.2 1006.6 Q 379.5 1006.6, 381.8 1003.7 Q 384.2 1000.8, 384.2 995.1 Q 384.2 989.6, 381.8 986.8 Q 379.5 983.9, 375.2 983.9 Q 370.9 983.9, 368.5 986.7 Q 366.2 989.5, 366.2 995.1 Q 366.2 1000.8, 368.5 1003.7 Q 370.9 1006.6, 375.2 1006.6 " fill="#FF0000"/>
<path class="atom-6" d="M 940.8 1109.8 L 944.9 1105.5 L 939.4 1104.4 L 940.3 1101.6 L 945.3 1104.1 L 944.6 1098.6 L 947.6 1098.5 L 946.8 1104.1 L 951.9 1101.7 L 952.8 1104.4 L 947.2 1105.4 L 951.2 1109.7 L 948.8 1111.5 L 946.0 1106.2 L 943.2 1111.5 L 940.8 1109.8 " fill="#191919"/>
<path class="atom-7" d="M 835.5 902.9 Q 835.5 896.1, 838.9 892.3 Q 842.2 888.5, 848.5 888.5 Q 854.8 888.5, 858.1 892.3 Q 861.5 896.1, 861.5 902.9 Q 861.5 909.8, 858.1 913.7 Q 854.7 917.6, 848.5 917.6 Q 842.3 917.6, 838.9 913.7 Q 835.5 909.8, 835.5 902.9 M 848.5 914.4 Q 852.8 914.4, 855.1 911.5 Q 857.5 908.6, 857.5 902.9 Q 857.5 897.4, 855.1 894.6 Q 852.8 891.7, 848.5 891.7 Q 844.2 891.7, 841.8 894.5 Q 839.5 897.3, 839.5 902.9 Q 839.5 908.6, 841.8 911.5 Q 844.2 914.4, 848.5 914.4 " fill="#FF0000"/>
</svg>