<svg xmlns="http://www.w3.org/2000/svg" xmlns:rdkit="http://www.rdkit.org/xml" xmlns:xlink="http://www.w3.org/1999/xlink" version="1.1" baseProfile="full" xml:space="preserve" width="1200px" height="800px" viewBox="0 0 1200 800">
<!-- END OF HEADER -->
<rect style="opacity:1.0;fill:#FFFFFF;stroke:none" width="1200.0" height="800.0" x="0.0" y="0.0"> </rect>
<path class="bond-0 atom-0 atom-1" d="M 1124.1,205.9 L 1062.3,245.0" style="fill:none;fill-rule:evenodd;stroke:#191919;stroke-width:2.0px;stroke-linecap:butt;stroke-linejoin:miter;stroke-opacity:1"/>
<path class="bond-0 atom-0 atom-1" d="M 1062.3,245.0 L 1000.5,284.2" style="fill:none;fill-rule:evenodd;stroke:#000000;stroke-width:2.0px;stroke-linecap:butt;stroke-linejoin:miter;stroke-opacity:1"/>
<path class="bond-1 atom-1 atom-2" d="M 1000.5,284.2 L 864.9,213.3" style="fill:none;fill-rule:evenodd;stroke:#000000;stroke-width:2.0px;stroke-linecap:butt;stroke-linejoin:miter;stroke-opacity:1"/>
<path class="bond-2 atom-2 atom-3" d="M 864.9,213.3 L 735.6,295.2" style="fill:none;fill-rule:evenodd;stroke:#000000;stroke-width:2.0px;stroke-linecap:butt;stroke-linejoin:miter;stroke-opacity:1"/>
<path class="bond-3 atom-3 atom-4" d="M 735.6,295.2 L 600.0,224.3" style="fill:none;fill-rule:evenodd;stroke:#000000;stroke-width:2.0px;stroke-linecap:butt;stroke-linejoin:miter;stroke-opacity:1"/>
<path class="bond-4 atom-4 atom-5" d="M 600.0,224.3 L 470.7,306.2" style="fill:none;fill-rule:evenodd;stroke:#000000;stroke-width:2.0px;stroke-linecap:butt;stroke-linejoin:miter;stroke-opacity:1"/>
<path class="bond-5 atom-5 atom-6" d="M 470.7,306.2 L 335.1,235.3" style="fill:none;fill-rule:evenodd;stroke:#000000;stroke-width:2.0px;stroke-linecap:butt;stroke-linejoin:miter;stroke-opacity:1"/>
<path class="bond-6 atom-6 atom-7" d="M 346.9,241.4 L 344.0,171.5" style="fill:none;fill-rule:evenodd;stroke:#000000;stroke-width:2.0px;stroke-linecap:butt;stroke-linejoin:miter;stroke-opacity:1"/>
<path class="bond-6 atom-6 atom-7" d="M 344.0,171.5 L 341.1,101.7" style="fill:none;fill-rule:evenodd;stroke:#FF0000;stroke-width:2.0px;stroke-linecap:butt;stroke-linejoin:miter;stroke-opacity:1"/>
<path class="bond-6 atom-6 atom-7" d="M 323.9,242.4 L 321.0,172.5" style="fill:none;fill-rule:evenodd;stroke:#000000;stroke-width:2.0px;stroke-linecap:butt;stroke-linejoin:miter;stroke-opacity:1"/>
<path class="bond-6 atom-6 atom-7" d="M 321.0,172.5 L 318.1,102.6" style="fill:none;fill-rule:evenodd;stroke:#FF0000;stroke-width:2.0px;stroke-linecap:butt;stroke-linejoin:miter;stroke-opacity:1"/>
<path class="bond-7 atom-6 atom-8" d="M 335.1,235.3 L 279.5,270.5" style="fill:none;fill-rule:evenodd;stroke:#000000;stroke-width:2.0px;stroke-linecap:butt;stroke-linejoin:miter;stroke-opacity:1"/>
<path class="bond-7 atom-6 atom-8" d="M 279.5,270.5 L 223.9,305.8" style="fill:none;fill-rule:evenodd;stroke:#FF0000;stroke-width:2.0px;stroke-linecap:butt;stroke-linejoin:miter;stroke-opacity:1"/>
<path class="bond-8 atom-8 atom-9" d="M 187.8,307.8 L 132.5,278.8" style="fill:none;fill-rule:evenodd;stroke:#FF0000;stroke-width:2.0px;stroke-linecap:butt;stroke-linejoin:miter;stroke-opacity:1"/>
<path class="bond-8 atom-8 atom-9" d="M 132.5,278.8 L 77.2,249.9" style="fill:none;fill-rule:evenodd;stroke:#191919;stroke-width:2.0px;stroke-linecap:butt;stroke-linejoin:miter;stroke-opacity:1"/>
<path d="M 1003.6,282.3 L 1000.5,284.2 L 993.7,280.7" style="fill:none;stroke:#000000;stroke-width:2.0px;stroke-linecap:butt;stroke-linejoin:miter;stroke-opacity:1;"/>
<path d="M 871.7,216.8 L 864.9,213.3 L 858.4,217.4" style="fill:none;stroke:#000000;stroke-width:2.0px;stroke-linecap:butt;stroke-linejoin:miter;stroke-opacity:1;"/>
<path d="M 742.1,291.1 L 735.6,295.2 L 728.8,291.7" style="fill:none;stroke:#000000;stroke-width:2.0px;stroke-linecap:butt;stroke-linejoin:miter;stroke-opacity:1;"/>
<path d="M 606.8,227.8 L 600.0,224.3 L 593.5,228.4" style="fill:none;stroke:#000000;stroke-width:2.0px;stroke-linecap:butt;stroke-linejoin:miter;stroke-opacity:1;"/>
<path d="M 477.2,302.1 L 470.7,306.2 L 464.0,302.7" style="fill:none;stroke:#000000;stroke-width:2.0px;stroke-linecap:butt;stroke-linejoin:miter;stroke-opacity:1;"/>
<path d="M 341.9,238.8 L 335.1,235.3 L 332.3,237.0" style="fill:none;stroke:#000000;stroke-width:2.0px;stroke-linecap:butt;stroke-linejoin:miter;stroke-opacity:1;"/>
<path class="atom-0" d="M 1124.4 199.1 L 1128.6 194.9 L 1123.0 193.7 L 1123.9 190.9 L 1129.0 193.5 L 1128.2 187.9 L 1131.2 187.9 L 1130.4 193.4 L 1135.6 191.0 L 1136.4 193.7 L 1130.8 194.8 L 1134.8 199.1 L 1132.4 200.8 L 1129.6 195.5 L 1126.8 200.8 L 1124.4 199.1 " fill="#191919"/>
<path class="atom-7" d="M 315.8 82.4 Q 315.8 75.6, 319.1 71.8 Q 322.5 68.0, 328.8 68.0 Q 335.1 68.0, 338.4 71.8 Q 341.8 75.6, 341.8 82.4 Q 341.8 89.3, 338.4 93.2 Q 335.0 97.1, 328.8 97.1 Q 322.5 97.1, 319.1 93.2 Q 315.8 89.3, 315.8 82.4 M 328.8 93.9 Q 333.1 93.9, 335.4 91.0 Q 337.8 88.1, 337.8 82.4 Q 337.8 76.9, 335.4 74.1 Q 333.1 71.2, 328.8 71.2 Q 324.5 71.2, 322.1 74.0 Q 319.8 76.8, 319.8 82.4 Q 319.8 88.1, 322.1 91.0 Q 324.5 93.9, 328.8 93.9 " fill="#FF0000"/>
<path class="atom-8" d="M 192.9 317.3 Q 192.9 310.5, 196.2 306.7 Q 199.6 302.9, 205.9 302.9 Q 212.1 302.9, 215.5 306.7 Q 218.9 310.5, 218.9 317.3 Q 218.9 324.2, 215.5 328.1 Q 212.1 332.0, 205.9 332.0 Q 199.6 332.0, 196.2 328.1 Q 192.9 324.2, 192.9 317.3 M 205.9 328.8 Q 210.2 328.8, 212.5 325.9 Q 214.9 323.0, 214.9 317.3 Q 214.9 311.7, 212.5 308.9 Q 210.2 306.1, 205.9 306.1 Q 201.5 306.1, 199.2 308.9 Q 196.9 311.7, 196.9 317.3 Q 196.9 323.0, 199.2 325.9 Q 201.5 328.8, 205.9 328.8 " fill="#FF0000"/>
<path class="atom-9" d="M 64.9 243.1 L 69.1 238.9 L 63.6 237.7 L 64.4 234.9 L 69.5 237.5 L 68.8 231.9 L 71.8 231.9 L 70.9 237.4 L 76.1 235.0 L 77.0 237.7 L 71.4 238.8 L 75.4 243.1 L 72.9 244.8 L 70.2 239.5 L 67.4 244.8 L 64.9 243.1 " fill="#191919"/>
<path class="bond-0 atom-0 atom-1" d="M 146.3,654.9 L 209.3,624.5" style="fill:none;fill-rule:evenodd;stroke:#191919;stroke-width:2.0px;stroke-linecap:butt;stroke-linejoin:miter;stroke-opacity:1"/>
<path class="bond-0 atom-0 atom-1" d="M 209.3,624.5 L 272.3,594.0" style="fill:none;fill-rule:evenodd;stroke:#000000;stroke-width:2.0px;stroke-linecap:butt;stroke-linejoin:miter;stroke-opacity:1"/>
<path class="bond-1 atom-1 atom-2" d="M 272.3,594.0 L 398.9,680.1" style="fill:none;fill-rule:evenodd;stroke:#000000;stroke-width:2.0px;stroke-linecap:butt;stroke-linejoin:miter;stroke-opacity:1"/>
<path class="bond-2 atom-2 atom-3" d="M 398.9,680.1 L 536.7,613.5" style="fill:none;fill-rule:evenodd;stroke:#000000;stroke-width:2.0px;stroke-linecap:butt;stroke-linejoin:miter;stroke-opacity:1"/>
<path class="bond-3 atom-3 atom-4" d="M 536.7,613.5 L 663.3,699.6" style="fill:none;fill-rule:evenodd;stroke:#000000;stroke-width:2.0px;stroke-linecap:butt;stroke-linejoin:miter;stroke-opacity:1"/>
<path class="bond-4 atom-4 atom-5" d="M 663.3,699.6 L 801.1,633.1" style="fill:none;fill-rule:evenodd;stroke:#000000;stroke-width:2.0px;stroke-linecap:butt;stroke-linejoin:miter;stroke-opacity:1"/>
<path class="bond-5 atom-5 atom-6" d="M 812.1,640.5 L 817.2,570.8" style="fill:none;fill-rule:evenodd;stroke:#000000;stroke-width:2.0px;stroke-linecap:butt;stroke-linejoin:miter;stroke-opacity:1"/>
<path class="bond-5 atom-5 atom-6" d="M 817.2,570.8 L 822.4,501.1" style="fill:none;fill-rule:evenodd;stroke:#FF0000;stroke-width:2.0px;stroke-linecap:butt;stroke-linejoin:miter;stroke-opacity:1"/>
<path class="bond-5 atom-5 atom-6" d="M 789.2,638.8 L 794.3,569.1" style="fill:none;fill-rule:evenodd;stroke:#000000;stroke-width:2.0px;stroke-linecap:butt;stroke-linejoin:miter;stroke-opacity:1"/>
<path class="bond-5 atom-5 atom-6" d="M 794.3,569.1 L 799.5,499.4" style="fill:none;fill-rule:evenodd;stroke:#FF0000;stroke-width:2.0px;stroke-linecap:butt;stroke-linejoin:miter;stroke-opacity:1"/>
<path class="bond-6 atom-5 atom-7" d="M 801.1,633.1 L 855.4,670.0" style="fill:none;fill-rule:evenodd;stroke:#000000;stroke-width:2.0px;stroke-linecap:butt;stroke-linejoin:miter;stroke-opacity:1"/>
<path class="bond-6 atom-5 atom-7" d="M 855.4,670.0 L 909.6,706.9" style="fill:none;fill-rule:evenodd;stroke:#FF0000;stroke-width:2.0px;stroke-linecap:butt;stroke-linejoin:miter;stroke-opacity:1"/>
<path class="bond-7 atom-7 atom-8" d="M 945.7,710.4 L 1001.9,683.3" style="fill:none;fill-rule:evenodd;stroke:#FF0000;stroke-width:2.0px;stroke-linecap:butt;stroke-linejoin:miter;stroke-opacity:1"/>
<path class="bond-7 atom-7 atom-8" d="M 1001.9,683.3 L 1058.0,656.2" style="fill:none;fill-rule:evenodd;stroke:#191919;stroke-width:2.0px;stroke-linecap:butt;stroke-linejoin:miter;stroke-opacity:1"/>
<path d="M 269.2,595.5 L 272.3,594.0 L 278.7,598.3" style="fill:none;stroke:#000000;stroke-width:2.0px;stroke-linecap:butt;stroke-linejoin:miter;stroke-opacity:1;"/>
<path d="M 392.6,675.8 L 398.9,680.1 L 405.8,676.8" style="fill:none;stroke:#000000;stroke-width:2.0px;stroke-linecap:butt;stroke-linejoin:miter;stroke-opacity:1;"/>
<path d="M 529.8,616.9 L 536.7,613.5 L 543.0,617.8" style="fill:none;stroke:#000000;stroke-width:2.0px;stroke-linecap:butt;stroke-linejoin:miter;stroke-opacity:1;"/>
<path d="M 657.0,695.3 L 663.3,699.6 L 670.2,696.3" style="fill:none;stroke:#000000;stroke-width:2.0px;stroke-linecap:butt;stroke-linejoin:miter;stroke-opacity:1;"/>
<path d="M 794.2,636.4 L 801.1,633.1 L 803.8,634.9" style="fill:none;stroke:#000000;stroke-width:2.0px;stroke-linecap:butt;stroke-linejoin:miter;stroke-opacity:1;"/>
<path class="atom-0" d="M 129.2 657.4 L 133.3 653.2 L 127.8 652.1 L 128.7 649.2 L 133.7 651.8 L 133.0 646.2 L 136.0 646.2 L 135.2 651.7 L 140.3 649.3 L 141.2 652.1 L 135.6 653.1 L 139.6 657.4 L 137.2 659.1 L 134.4 653.9 L 131.6 659.1 L 129.2 657.4 " fill="#191919"/>
<path class="atom-6" d="M 799.4 480.5 Q 799.4 473.7, 802.7 469.9 Q 806.1 466.1, 812.4 466.1 Q 818.7 466.1, 822.0 469.9 Q 825.4 473.7, 825.4 480.5 Q 825.4 487.4, 822.0 491.3 Q 818.6 495.2, 812.4 495.2 Q 806.1 495.2, 802.7 491.3 Q 799.4 487.4, 799.4 480.5 M 812.4 492.0 Q 816.7 492.0, 819.0 489.1 Q 821.4 486.2, 821.4 480.5 Q 821.4 474.9, 819.0 472.1 Q 816.7 469.3, 812.4 469.3 Q 808.1 469.3, 805.7 472.1 Q 803.4 474.9, 803.4 480.5 Q 803.4 486.2, 805.7 489.1 Q 808.1 492.0, 812.4 492.0 " fill="#FF0000"/>
<path class="atom-7" d="M 914.7 719.2 Q 914.7 712.4, 918.0 708.6 Q 921.4 704.8, 927.7 704.8 Q 933.9 704.8, 937.3 708.6 Q 940.7 712.4, 940.7 719.2 Q 940.7 726.1, 937.3 730.0 Q 933.9 733.9, 927.7 733.9 Q 921.4 733.9, 918.0 730.0 Q 914.7 726.1, 914.7 719.2 M 927.7 730.7 Q 932.0 730.7, 934.3 727.8 Q 936.7 724.9, 936.7 719.2 Q 936.7 713.7, 934.3 710.9 Q 932.0 708.0, 927.7 708.0 Q 923.3 708.0, 921.0 710.8 Q 918.7 713.6, 918.7 719.2 Q 918.7 724.9, 921.0 727.8 Q 923.3 730.7, 927.7 730.7 " fill="#FF0000"/>
<path class="atom-8" d="M 1060.1 649.4 L 1064.3 645.2 L 1058.8 644.1 L 1059.6 641.2 L 1064.7 643.8 L 1064.0 638.2 L 1067.0 638.2 L 1066.1 643.7 L 1071.3 641.3 L 1072.2 644.1 L 1066.6 645.1 L 1070.6 649.4 L 1068.1 651.1 L 1065.4 645.9 L 1062.6 651.1 L 1060.1 649.4 " fill="#191919"/>
</svg>