<svg xmlns="http://www.w3.org/2000/svg" xmlns:rdkit="http://www.rdkit.org/xml" xmlns:xlink="http://www.w3.org/1999/xlink" version="1.1" baseProfile="full" xml:space="preserve" width="1200px" height="800px" viewBox="0 0 1200 800">
<!-- END OF HEADER -->
<rect style="opacity:1.0;fill:#FFFFFF;stroke:none" width="1200.0" height="800.0" x="0.0" y="0.0"> </rect>
<path class="bond-0 atom-0 atom-1" d="M 883.7,42.5 L 860.1,116.8" style="fill:none;fill-rule:evenodd;stroke:#191919;stroke-width:2.0px;stroke-linecap:butt;stroke-linejoin:miter;stroke-opacity:1"/>
<path class="bond-0 atom-0 atom-1" d="M 860.1,116.8 L 836.5,191.1" style="fill:none;fill-rule:evenodd;stroke:#000000;stroke-width:2.0px;stroke-linecap:butt;stroke-linejoin:miter;stroke-opacity:1"/>
<path class="bond-1 atom-1 atom-2" d="M 836.5,191.1 L 680.3,225.4" style="fill:none;fill-rule:evenodd;stroke:#000000;stroke-width:2.0px;stroke-linecap:butt;stroke-linejoin:miter;stroke-opacity:1"/>
<path class="bond-2 atom-2 atom-3" d="M 680.3,225.4 L 659.2,291.8" style="fill:none;fill-rule:evenodd;stroke:#000000;stroke-width:2.0px;stroke-linecap:butt;stroke-linejoin:miter;stroke-opacity:1"/>
<path class="bond-2 atom-2 atom-3" d="M 659.2,291.8 L 638.2,358.2" style="fill:none;fill-rule:evenodd;stroke:#191919;stroke-width:2.0px;stroke-linecap:butt;stroke-linejoin:miter;stroke-opacity:1"/>
<path class="bond-3 atom-2 atom-4" d="M 680.3,225.4 L 635.5,176.4" style="fill:none;fill-rule:evenodd;stroke:#000000;stroke-width:2.0px;stroke-linecap:butt;stroke-linejoin:miter;stroke-opacity:1"/>
<path class="bond-3 atom-2 atom-4" d="M 635.5,176.4 L 590.7,127.3" style="fill:none;fill-rule:evenodd;stroke:#FF0000;stroke-width:2.0px;stroke-linecap:butt;stroke-linejoin:miter;stroke-opacity:1"/>
<path class="bond-4 atom-4 atom-5" d="M 554.2,111.3 L 485.2,126.5" style="fill:none;fill-rule:evenodd;stroke:#FF0000;stroke-width:2.0px;stroke-linecap:butt;stroke-linejoin:miter;stroke-opacity:1"/>
<path class="bond-4 atom-4 atom-5" d="M 485.2,126.5 L 416.2,141.7" style="fill:none;fill-rule:evenodd;stroke:#000000;stroke-width:2.0px;stroke-linecap:butt;stroke-linejoin:miter;stroke-opacity:1"/>
<path class="bond-5 atom-5 atom-6" d="M 416.2,141.7 L 308.4,23.5" style="fill:none;fill-rule:evenodd;stroke:#000000;stroke-width:2.0px;stroke-linecap:butt;stroke-linejoin:miter;stroke-opacity:1"/>
<path class="bond-6 atom-5 atom-7" d="M 406.9,131.4 L 384.8,201.2" style="fill:none;fill-rule:evenodd;stroke:#000000;stroke-width:2.0px;stroke-linecap:butt;stroke-linejoin:miter;stroke-opacity:1"/>
<path class="bond-6 atom-5 atom-7" d="M 384.8,201.2 L 362.6,270.9" style="fill:none;fill-rule:evenodd;stroke:#FF0000;stroke-width:2.0px;stroke-linecap:butt;stroke-linejoin:miter;stroke-opacity:1"/>
<path class="bond-6 atom-5 atom-7" d="M 429.8,138.7 L 407.6,208.4" style="fill:none;fill-rule:evenodd;stroke:#000000;stroke-width:2.0px;stroke-linecap:butt;stroke-linejoin:miter;stroke-opacity:1"/>
<path class="bond-6 atom-5 atom-7" d="M 407.6,208.4 L 385.5,278.2" style="fill:none;fill-rule:evenodd;stroke:#FF0000;stroke-width:2.0px;stroke-linecap:butt;stroke-linejoin:miter;stroke-opacity:1"/>
<path d="M 837.7,187.4 L 836.5,191.1 L 828.7,192.8" style="fill:none;stroke:#000000;stroke-width:2.0px;stroke-linecap:butt;stroke-linejoin:miter;stroke-opacity:1;"/>
<path d="M 419.7,140.9 L 416.2,141.7 L 410.8,135.7" style="fill:none;stroke:#000000;stroke-width:2.0px;stroke-linecap:butt;stroke-linejoin:miter;stroke-opacity:1;"/>
<path class="atom-0" d="M 879.6 35.5 L 883.7 31.2 L 878.2 30.1 L 879.1 27.3 L 884.1 29.8 L 883.4 24.3 L 886.4 24.2 L 885.6 29.8 L 890.7 27.4 L 891.6 30.1 L 886.0 31.2 L 890.0 35.4 L 887.6 37.2 L 884.8 31.9 L 882.0 37.2 L 879.6 35.5 " fill="#191919"/>
<path class="atom-3" d="M 626.6 374.8 L 630.8 370.5 L 625.2 369.4 L 626.1 366.6 L 631.2 369.1 L 630.4 363.6 L 633.4 363.5 L 632.6 369.1 L 637.8 366.7 L 638.6 369.4 L 633.0 370.4 L 637.0 374.7 L 634.6 376.5 L 631.8 371.2 L 629.0 376.5 L 626.6 374.8 " fill="#191919"/>
<path class="atom-4" d="M 559.5 107.4 Q 559.5 100.6, 562.8 96.8 Q 566.2 93.0, 572.5 93.0 Q 578.7 93.0, 582.1 96.8 Q 585.5 100.6, 585.5 107.4 Q 585.5 114.3, 582.1 118.2 Q 578.7 122.1, 572.5 122.1 Q 566.2 122.1, 562.8 118.2 Q 559.5 114.3, 559.5 107.4 M 572.5 118.9 Q 576.8 118.9, 579.1 116.0 Q 581.5 113.1, 581.5 107.4 Q 581.5 101.8, 579.1 99.0 Q 576.8 96.2, 572.5 96.2 Q 568.1 96.2, 565.8 99.0 Q 563.5 101.8, 563.5 107.4 Q 563.5 113.1, 565.8 116.0 Q 568.1 118.9, 572.5 118.9 " fill="#FF0000"/>
<path class="atom-7" d="M 354.9 294.2 Q 354.9 287.4, 358.2 283.6 Q 361.6 279.8, 367.9 279.8 Q 374.1 279.8, 377.5 283.6 Q 380.9 287.4, 380.9 294.2 Q 380.9 301.1, 377.5 305.0 Q 374.1 308.9, 367.9 308.9 Q 361.6 308.9, 358.2 305.0 Q 354.9 301.1, 354.9 294.2 M 367.9 305.7 Q 372.2 305.7, 374.5 302.8 Q 376.9 299.9, 376.9 294.2 Q 376.9 288.6, 374.5 285.8 Q 372.2 283.0, 367.9 283.0 Q 363.5 283.0, 361.2 285.8 Q 358.9 288.6, 358.9 294.2 Q 358.9 299.9, 361.2 302.8 Q 363.5 305.7, 367.9 305.7 " fill="#FF0000"/>
<path class="bond-0 atom-0 atom-1" d="M 198.0,654.4 L 256.6,627.2" style="fill:none;fill-rule:evenodd;stroke:#191919;stroke-width:2.0px;stroke-linecap:butt;stroke-linejoin:miter;stroke-opacity:1"/>
<path class="bond-0 atom-0 atom-1" d="M 256.6,627.2 L 315.1,600.0" style="fill:none;fill-rule:evenodd;stroke:#0000FF;stroke-width:2.0px;stroke-linecap:butt;stroke-linejoin:miter;stroke-opacity:1"/>
<path class="bond-1 atom-1 atom-2" d="M 347.1,603.8 L 404.6,644.1" style="fill:none;fill-rule:evenodd;stroke:#0000FF;stroke-width:2.0px;stroke-linecap:butt;stroke-linejoin:miter;stroke-opacity:1"/>
<path class="bond-1 atom-1 atom-2" d="M 404.6,644.1 L 462.0,684.5" style="fill:none;fill-rule:evenodd;stroke:#000000;stroke-width:2.0px;stroke-linecap:butt;stroke-linejoin:miter;stroke-opacity:1"/>
<path class="bond-2 atom-2 atom-3" d="M 462.0,684.5 L 607.1,617.1" style="fill:none;fill-rule:evenodd;stroke:#000000;stroke-width:2.0px;stroke-linecap:butt;stroke-linejoin:miter;stroke-opacity:1"/>
<path class="bond-3 atom-3 atom-4" d="M 607.1,617.1 L 738.0,709.0" style="fill:none;fill-rule:evenodd;stroke:#000000;stroke-width:2.0px;stroke-linecap:butt;stroke-linejoin:miter;stroke-opacity:1"/>
<path class="bond-4 atom-4 atom-5" d="M 738.0,709.0 L 883.0,641.6" style="fill:none;fill-rule:evenodd;stroke:#000000;stroke-width:2.0px;stroke-linecap:butt;stroke-linejoin:miter;stroke-opacity:1"/>
<path class="bond-5 atom-5 atom-6" d="M 883.0,641.6 L 942.5,683.3" style="fill:none;fill-rule:evenodd;stroke:#000000;stroke-width:2.0px;stroke-linecap:butt;stroke-linejoin:miter;stroke-opacity:1"/>
<path class="bond-5 atom-5 atom-6" d="M 942.5,683.3 L 1002.0,725.1" style="fill:none;fill-rule:evenodd;stroke:#191919;stroke-width:2.0px;stroke-linecap:butt;stroke-linejoin:miter;stroke-opacity:1"/>
<path class="bond-6 atom-5 atom-7" d="M 894.4,649.5 L 900.9,576.4" style="fill:none;fill-rule:evenodd;stroke:#000000;stroke-width:2.0px;stroke-linecap:butt;stroke-linejoin:miter;stroke-opacity:1"/>
<path class="bond-6 atom-5 atom-7" d="M 900.9,576.4 L 907.4,503.4" style="fill:none;fill-rule:evenodd;stroke:#FF0000;stroke-width:2.0px;stroke-linecap:butt;stroke-linejoin:miter;stroke-opacity:1"/>
<path class="bond-6 atom-5 atom-7" d="M 870.5,647.4 L 877.0,574.3" style="fill:none;fill-rule:evenodd;stroke:#000000;stroke-width:2.0px;stroke-linecap:butt;stroke-linejoin:miter;stroke-opacity:1"/>
<path class="bond-6 atom-5 atom-7" d="M 877.0,574.3 L 883.5,501.2" style="fill:none;fill-rule:evenodd;stroke:#FF0000;stroke-width:2.0px;stroke-linecap:butt;stroke-linejoin:miter;stroke-opacity:1"/>
<path d="M 459.1,682.4 L 462.0,684.5 L 469.3,681.1" style="fill:none;stroke:#000000;stroke-width:2.0px;stroke-linecap:butt;stroke-linejoin:miter;stroke-opacity:1;"/>
<path d="M 599.8,620.4 L 607.1,617.1 L 613.6,621.6" style="fill:none;stroke:#000000;stroke-width:2.0px;stroke-linecap:butt;stroke-linejoin:miter;stroke-opacity:1;"/>
<path d="M 731.4,704.4 L 738.0,709.0 L 745.2,705.6" style="fill:none;stroke:#000000;stroke-width:2.0px;stroke-linecap:butt;stroke-linejoin:miter;stroke-opacity:1;"/>
<path d="M 875.8,645.0 L 883.0,641.6 L 886.0,643.7" style="fill:none;stroke:#000000;stroke-width:2.0px;stroke-linecap:butt;stroke-linejoin:miter;stroke-opacity:1;"/>
<path class="atom-0" d="M 180.7 656.8 L 184.9 652.5 L 179.3 651.4 L 180.2 648.6 L 185.3 651.1 L 184.5 645.6 L 187.5 645.5 L 186.7 651.1 L 191.9 648.7 L 192.7 651.4 L 187.1 652.4 L 191.1 656.7 L 188.7 658.5 L 185.9 653.2 L 183.1 658.5 L 180.7 656.8 " fill="#191919"/>
<path class="atom-1" d="M 324.9 578.4 L 334.1 593.4 Q 335.1 594.8, 336.5 597.5 Q 338.0 600.2, 338.1 600.4 L 338.1 578.4 L 341.9 578.4 L 341.9 606.7 L 338.0 606.7 L 328.0 590.3 Q 326.9 588.4, 325.6 586.2 Q 324.4 584.0, 324.1 583.3 L 324.1 606.7 L 320.4 606.7 L 320.4 578.4 L 324.9 578.4 " fill="#0000FF"/>
<path class="atom-1" d="M 320.0 547.2 L 323.9 547.2 L 323.9 559.3 L 338.4 559.3 L 338.4 547.2 L 342.2 547.2 L 342.2 575.5 L 338.4 575.5 L 338.4 562.5 L 323.9 562.5 L 323.9 575.5 L 320.0 575.5 L 320.0 547.2 " fill="#0000FF"/>
<path class="atom-6" d="M 1008.6 730.3 L 1012.8 726.1 L 1007.3 725.0 L 1008.1 722.1 L 1013.2 724.7 L 1012.5 719.1 L 1015.5 719.1 L 1014.6 724.7 L 1019.8 722.3 L 1020.7 725.0 L 1015.1 726.0 L 1019.1 730.3 L 1016.6 732.1 L 1013.9 726.8 L 1011.1 732.1 L 1008.6 730.3 " fill="#191919"/>
<path class="atom-7" d="M 884.2 482.3 Q 884.2 475.5, 887.6 471.7 Q 890.9 467.9, 897.2 467.9 Q 903.5 467.9, 906.8 471.7 Q 910.2 475.5, 910.2 482.3 Q 910.2 489.2, 906.8 493.1 Q 903.4 497.0, 897.2 497.0 Q 891.0 497.0, 887.6 493.1 Q 884.2 489.3, 884.2 482.3 M 897.2 493.8 Q 901.5 493.8, 903.8 490.9 Q 906.2 488.0, 906.2 482.3 Q 906.2 476.8, 903.8 474.0 Q 901.5 471.1, 897.2 471.1 Q 892.9 471.1, 890.5 473.9 Q 888.2 476.7, 888.2 482.3 Q 888.2 488.1, 890.5 490.9 Q 892.9 493.8, 897.2 493.8 " fill="#FF0000"/>
</svg>