<svg xmlns="http://www.w3.org/2000/svg" xmlns:rdkit="http://www.rdkit.org/xml" xmlns:xlink="http://www.w3.org/1999/xlink" version="1.1" baseProfile="full" xml:space="preserve" width="1200px" height="800px" viewBox="0 0 1200 800">
<!-- END OF HEADER -->
<rect style="opacity:1.0;fill:#FFFFFF;stroke:none" width="1200.0" height="800.0" x="0.0" y="0.0"> </rect>
<path class="bond-0 atom-0 atom-1" d="M 430.3,366.5 L 434.5,340.5" style="fill:none;fill-rule:evenodd;stroke:#191919;stroke-width:2.0px;stroke-linecap:butt;stroke-linejoin:miter;stroke-opacity:1"/>
<path class="bond-0 atom-0 atom-1" d="M 434.5,340.5 L 438.6,314.4" style="fill:none;fill-rule:evenodd;stroke:#FF0000;stroke-width:2.0px;stroke-linecap:butt;stroke-linejoin:miter;stroke-opacity:1"/>
<path class="bond-1 atom-2 atom-1" d="M 379.2,249.8 L 379.6,249.3" style="fill:none;fill-rule:evenodd;stroke:#000000;stroke-width:1.0px;stroke-linecap:butt;stroke-linejoin:miter;stroke-opacity:1"/>
<path class="bond-1 atom-2 atom-1" d="M 381.6,252.3 L 382.5,251.1" style="fill:none;fill-rule:evenodd;stroke:#000000;stroke-width:1.0px;stroke-linecap:butt;stroke-linejoin:miter;stroke-opacity:1"/>
<path class="bond-1 atom-2 atom-1" d="M 384.0,254.7 L 385.4,253.0" style="fill:none;fill-rule:evenodd;stroke:#000000;stroke-width:1.0px;stroke-linecap:butt;stroke-linejoin:miter;stroke-opacity:1"/>
<path class="bond-1 atom-2 atom-1" d="M 386.5,257.2 L 388.3,254.9" style="fill:none;fill-rule:evenodd;stroke:#000000;stroke-width:1.0px;stroke-linecap:butt;stroke-linejoin:miter;stroke-opacity:1"/>
<path class="bond-1 atom-2 atom-1" d="M 388.9,259.6 L 391.2,256.8" style="fill:none;fill-rule:evenodd;stroke:#000000;stroke-width:1.0px;stroke-linecap:butt;stroke-linejoin:miter;stroke-opacity:1"/>
<path class="bond-1 atom-2 atom-1" d="M 391.4,262.1 L 394.1,258.7" style="fill:none;fill-rule:evenodd;stroke:#000000;stroke-width:1.0px;stroke-linecap:butt;stroke-linejoin:miter;stroke-opacity:1"/>
<path class="bond-1 atom-2 atom-1" d="M 393.8,264.5 L 397.0,260.5" style="fill:none;fill-rule:evenodd;stroke:#000000;stroke-width:1.0px;stroke-linecap:butt;stroke-linejoin:miter;stroke-opacity:1"/>
<path class="bond-1 atom-2 atom-1" d="M 396.2,266.9 L 399.9,262.4" style="fill:none;fill-rule:evenodd;stroke:#000000;stroke-width:1.0px;stroke-linecap:butt;stroke-linejoin:miter;stroke-opacity:1"/>
<path class="bond-1 atom-2 atom-1" d="M 398.7,269.4 L 402.8,264.3" style="fill:none;fill-rule:evenodd;stroke:#000000;stroke-width:1.0px;stroke-linecap:butt;stroke-linejoin:miter;stroke-opacity:1"/>
<path class="bond-1 atom-2 atom-1" d="M 401.1,271.8 L 405.7,266.2" style="fill:none;fill-rule:evenodd;stroke:#FF0000;stroke-width:1.0px;stroke-linecap:butt;stroke-linejoin:miter;stroke-opacity:1"/>
<path class="bond-1 atom-2 atom-1" d="M 403.5,274.3 L 408.6,268.1" style="fill:none;fill-rule:evenodd;stroke:#FF0000;stroke-width:1.0px;stroke-linecap:butt;stroke-linejoin:miter;stroke-opacity:1"/>
<path class="bond-1 atom-2 atom-1" d="M 406.0,276.7 L 411.5,269.9" style="fill:none;fill-rule:evenodd;stroke:#FF0000;stroke-width:1.0px;stroke-linecap:butt;stroke-linejoin:miter;stroke-opacity:1"/>
<path class="bond-1 atom-2 atom-1" d="M 408.4,279.2 L 414.4,271.8" style="fill:none;fill-rule:evenodd;stroke:#FF0000;stroke-width:1.0px;stroke-linecap:butt;stroke-linejoin:miter;stroke-opacity:1"/>
<path class="bond-1 atom-2 atom-1" d="M 410.9,281.6 L 417.3,273.7" style="fill:none;fill-rule:evenodd;stroke:#FF0000;stroke-width:1.0px;stroke-linecap:butt;stroke-linejoin:miter;stroke-opacity:1"/>
<path class="bond-1 atom-2 atom-1" d="M 413.3,284.1 L 420.2,275.6" style="fill:none;fill-rule:evenodd;stroke:#FF0000;stroke-width:1.0px;stroke-linecap:butt;stroke-linejoin:miter;stroke-opacity:1"/>
<path class="bond-1 atom-2 atom-1" d="M 415.7,286.5 L 423.1,277.5" style="fill:none;fill-rule:evenodd;stroke:#FF0000;stroke-width:1.0px;stroke-linecap:butt;stroke-linejoin:miter;stroke-opacity:1"/>
<path class="bond-1 atom-2 atom-1" d="M 418.2,289.0 L 426.0,279.3" style="fill:none;fill-rule:evenodd;stroke:#FF0000;stroke-width:1.0px;stroke-linecap:butt;stroke-linejoin:miter;stroke-opacity:1"/>
<path class="bond-2 atom-2 atom-3" d="M 376.7,247.4 L 344.8,259.6" style="fill:none;fill-rule:evenodd;stroke:#000000;stroke-width:2.0px;stroke-linecap:butt;stroke-linejoin:miter;stroke-opacity:1"/>
<path class="bond-2 atom-2 atom-3" d="M 344.8,259.6 L 313.0,271.8" style="fill:none;fill-rule:evenodd;stroke:#FF0000;stroke-width:2.0px;stroke-linecap:butt;stroke-linejoin:miter;stroke-opacity:1"/>
<path class="bond-3 atom-3 atom-4" d="M 286.0,266.0 L 260.6,245.4" style="fill:none;fill-rule:evenodd;stroke:#FF0000;stroke-width:2.0px;stroke-linecap:butt;stroke-linejoin:miter;stroke-opacity:1"/>
<path class="bond-3 atom-3 atom-4" d="M 260.6,245.4 L 235.2,224.9" style="fill:none;fill-rule:evenodd;stroke:#000000;stroke-width:2.0px;stroke-linecap:butt;stroke-linejoin:miter;stroke-opacity:1"/>
<path class="bond-4 atom-4 atom-5" d="M 235.2,224.9 L 157.9,254.5" style="fill:none;fill-rule:evenodd;stroke:#000000;stroke-width:2.0px;stroke-linecap:butt;stroke-linejoin:miter;stroke-opacity:1"/>
<path class="bond-5 atom-5 atom-6" d="M 157.9,254.5 L 152.6,288.0" style="fill:none;fill-rule:evenodd;stroke:#000000;stroke-width:2.0px;stroke-linecap:butt;stroke-linejoin:miter;stroke-opacity:1"/>
<path class="bond-5 atom-5 atom-6" d="M 152.6,288.0 L 147.3,321.6" style="fill:none;fill-rule:evenodd;stroke:#FF0000;stroke-width:2.0px;stroke-linecap:butt;stroke-linejoin:miter;stroke-opacity:1"/>
<path class="bond-6 atom-4 atom-7" d="M 235.2,224.9 L 248.2,143.1" style="fill:none;fill-rule:evenodd;stroke:#000000;stroke-width:2.0px;stroke-linecap:butt;stroke-linejoin:miter;stroke-opacity:1"/>
<path class="bond-7 atom-7 atom-8" d="M 245.3,141.2 L 245.7,140.8" style="fill:none;fill-rule:evenodd;stroke:#000000;stroke-width:1.0px;stroke-linecap:butt;stroke-linejoin:miter;stroke-opacity:1"/>
<path class="bond-7 atom-7 atom-8" d="M 242.5,139.2 L 243.2,138.4" style="fill:none;fill-rule:evenodd;stroke:#000000;stroke-width:1.0px;stroke-linecap:butt;stroke-linejoin:miter;stroke-opacity:1"/>
<path class="bond-7 atom-7 atom-8" d="M 239.6,137.3 L 240.7,136.0" style="fill:none;fill-rule:evenodd;stroke:#000000;stroke-width:1.0px;stroke-linecap:butt;stroke-linejoin:miter;stroke-opacity:1"/>
<path class="bond-7 atom-7 atom-8" d="M 236.8,135.3 L 238.2,133.6" style="fill:none;fill-rule:evenodd;stroke:#000000;stroke-width:1.0px;stroke-linecap:butt;stroke-linejoin:miter;stroke-opacity:1"/>
<path class="bond-7 atom-7 atom-8" d="M 233.9,133.4 L 235.7,131.2" style="fill:none;fill-rule:evenodd;stroke:#000000;stroke-width:1.0px;stroke-linecap:butt;stroke-linejoin:miter;stroke-opacity:1"/>
<path class="bond-7 atom-7 atom-8" d="M 231.1,131.4 L 233.2,128.8" style="fill:none;fill-rule:evenodd;stroke:#000000;stroke-width:1.0px;stroke-linecap:butt;stroke-linejoin:miter;stroke-opacity:1"/>
<path class="bond-7 atom-7 atom-8" d="M 228.2,129.5 L 230.7,126.4" style="fill:none;fill-rule:evenodd;stroke:#000000;stroke-width:1.0px;stroke-linecap:butt;stroke-linejoin:miter;stroke-opacity:1"/>
<path class="bond-7 atom-7 atom-8" d="M 225.3,127.5 L 228.2,124.0" style="fill:none;fill-rule:evenodd;stroke:#000000;stroke-width:1.0px;stroke-linecap:butt;stroke-linejoin:miter;stroke-opacity:1"/>
<path class="bond-7 atom-7 atom-8" d="M 222.5,125.5 L 225.7,121.6" style="fill:none;fill-rule:evenodd;stroke:#000000;stroke-width:1.0px;stroke-linecap:butt;stroke-linejoin:miter;stroke-opacity:1"/>
<path class="bond-7 atom-7 atom-8" d="M 219.6,123.6 L 223.2,119.2" style="fill:none;fill-rule:evenodd;stroke:#000000;stroke-width:1.0px;stroke-linecap:butt;stroke-linejoin:miter;stroke-opacity:1"/>
<path class="bond-7 atom-7 atom-8" d="M 216.8,121.6 L 220.7,116.8" style="fill:none;fill-rule:evenodd;stroke:#000000;stroke-width:1.0px;stroke-linecap:butt;stroke-linejoin:miter;stroke-opacity:1"/>
<path class="bond-7 atom-7 atom-8" d="M 213.9,119.7 L 218.2,114.4" style="fill:none;fill-rule:evenodd;stroke:#191919;stroke-width:1.0px;stroke-linecap:butt;stroke-linejoin:miter;stroke-opacity:1"/>
<path class="bond-7 atom-7 atom-8" d="M 211.0,117.7 L 215.7,112.0" style="fill:none;fill-rule:evenodd;stroke:#191919;stroke-width:1.0px;stroke-linecap:butt;stroke-linejoin:miter;stroke-opacity:1"/>
<path class="bond-7 atom-7 atom-8" d="M 208.2,115.8 L 213.2,109.6" style="fill:none;fill-rule:evenodd;stroke:#191919;stroke-width:1.0px;stroke-linecap:butt;stroke-linejoin:miter;stroke-opacity:1"/>
<path class="bond-7 atom-7 atom-8" d="M 205.3,113.8 L 210.6,107.2" style="fill:none;fill-rule:evenodd;stroke:#191919;stroke-width:1.0px;stroke-linecap:butt;stroke-linejoin:miter;stroke-opacity:1"/>
<path class="bond-7 atom-7 atom-8" d="M 202.5,111.9 L 208.1,104.8" style="fill:none;fill-rule:evenodd;stroke:#191919;stroke-width:1.0px;stroke-linecap:butt;stroke-linejoin:miter;stroke-opacity:1"/>
<path class="bond-7 atom-7 atom-8" d="M 199.6,109.9 L 205.6,102.5" style="fill:none;fill-rule:evenodd;stroke:#191919;stroke-width:1.0px;stroke-linecap:butt;stroke-linejoin:miter;stroke-opacity:1"/>
<path class="bond-7 atom-7 atom-8" d="M 196.7,107.9 L 203.1,100.1" style="fill:none;fill-rule:evenodd;stroke:#191919;stroke-width:1.0px;stroke-linecap:butt;stroke-linejoin:miter;stroke-opacity:1"/>
<path class="bond-7 atom-7 atom-8" d="M 193.9,106.0 L 200.6,97.7" style="fill:none;fill-rule:evenodd;stroke:#191919;stroke-width:1.0px;stroke-linecap:butt;stroke-linejoin:miter;stroke-opacity:1"/>
<path class="bond-7 atom-7 atom-8" d="M 191.0,104.0 L 198.1,95.3" style="fill:none;fill-rule:evenodd;stroke:#191919;stroke-width:1.0px;stroke-linecap:butt;stroke-linejoin:miter;stroke-opacity:1"/>
<path class="bond-7 atom-7 atom-8" d="M 188.2,102.1 L 195.6,92.9" style="fill:none;fill-rule:evenodd;stroke:#191919;stroke-width:1.0px;stroke-linecap:butt;stroke-linejoin:miter;stroke-opacity:1"/>
<path class="bond-7 atom-7 atom-8" d="M 185.3,100.1 L 193.1,90.5" style="fill:none;fill-rule:evenodd;stroke:#191919;stroke-width:1.0px;stroke-linecap:butt;stroke-linejoin:miter;stroke-opacity:1"/>
<path class="bond-8 atom-7 atom-9" d="M 248.2,143.1 L 325.5,113.6" style="fill:none;fill-rule:evenodd;stroke:#000000;stroke-width:2.0px;stroke-linecap:butt;stroke-linejoin:miter;stroke-opacity:1"/>
<path class="bond-9 atom-9 atom-10" d="M 325.7,110.1 L 326.3,110.2" style="fill:none;fill-rule:evenodd;stroke:#000000;stroke-width:1.0px;stroke-linecap:butt;stroke-linejoin:miter;stroke-opacity:1"/>
<path class="bond-9 atom-9 atom-10" d="M 325.9,106.7 L 327.2,106.9" style="fill:none;fill-rule:evenodd;stroke:#000000;stroke-width:1.0px;stroke-linecap:butt;stroke-linejoin:miter;stroke-opacity:1"/>
<path class="bond-9 atom-9 atom-10" d="M 326.1,103.3 L 328.0,103.6" style="fill:none;fill-rule:evenodd;stroke:#000000;stroke-width:1.0px;stroke-linecap:butt;stroke-linejoin:miter;stroke-opacity:1"/>
<path class="bond-9 atom-9 atom-10" d="M 326.3,99.9 L 328.9,100.3" style="fill:none;fill-rule:evenodd;stroke:#000000;stroke-width:1.0px;stroke-linecap:butt;stroke-linejoin:miter;stroke-opacity:1"/>
<path class="bond-9 atom-9 atom-10" d="M 326.5,96.4 L 329.8,97.0" style="fill:none;fill-rule:evenodd;stroke:#000000;stroke-width:1.0px;stroke-linecap:butt;stroke-linejoin:miter;stroke-opacity:1"/>
<path class="bond-9 atom-9 atom-10" d="M 326.8,93.0 L 330.6,93.6" style="fill:none;fill-rule:evenodd;stroke:#000000;stroke-width:1.0px;stroke-linecap:butt;stroke-linejoin:miter;stroke-opacity:1"/>
<path class="bond-9 atom-9 atom-10" d="M 327.0,89.6 L 331.5,90.3" style="fill:none;fill-rule:evenodd;stroke:#000000;stroke-width:1.0px;stroke-linecap:butt;stroke-linejoin:miter;stroke-opacity:1"/>
<path class="bond-9 atom-9 atom-10" d="M 327.2,86.2 L 332.3,87.0" style="fill:none;fill-rule:evenodd;stroke:#000000;stroke-width:1.0px;stroke-linecap:butt;stroke-linejoin:miter;stroke-opacity:1"/>
<path class="bond-9 atom-9 atom-10" d="M 327.4,82.8 L 333.2,83.7" style="fill:none;fill-rule:evenodd;stroke:#000000;stroke-width:1.0px;stroke-linecap:butt;stroke-linejoin:miter;stroke-opacity:1"/>
<path class="bond-9 atom-9 atom-10" d="M 327.6,79.3 L 334.1,80.4" style="fill:none;fill-rule:evenodd;stroke:#FF0000;stroke-width:1.0px;stroke-linecap:butt;stroke-linejoin:miter;stroke-opacity:1"/>
<path class="bond-9 atom-9 atom-10" d="M 327.8,75.9 L 334.9,77.0" style="fill:none;fill-rule:evenodd;stroke:#FF0000;stroke-width:1.0px;stroke-linecap:butt;stroke-linejoin:miter;stroke-opacity:1"/>
<path class="bond-9 atom-9 atom-10" d="M 328.0,72.5 L 335.8,73.7" style="fill:none;fill-rule:evenodd;stroke:#FF0000;stroke-width:1.0px;stroke-linecap:butt;stroke-linejoin:miter;stroke-opacity:1"/>
<path class="bond-9 atom-9 atom-10" d="M 328.2,69.1 L 336.6,70.4" style="fill:none;fill-rule:evenodd;stroke:#FF0000;stroke-width:1.0px;stroke-linecap:butt;stroke-linejoin:miter;stroke-opacity:1"/>
<path class="bond-9 atom-9 atom-10" d="M 328.5,65.7 L 337.5,67.1" style="fill:none;fill-rule:evenodd;stroke:#FF0000;stroke-width:1.0px;stroke-linecap:butt;stroke-linejoin:miter;stroke-opacity:1"/>
<path class="bond-9 atom-9 atom-10" d="M 328.7,62.2 L 338.4,63.8" style="fill:none;fill-rule:evenodd;stroke:#FF0000;stroke-width:1.0px;stroke-linecap:butt;stroke-linejoin:miter;stroke-opacity:1"/>
<path class="bond-9 atom-9 atom-10" d="M 328.9,58.8 L 339.2,60.5" style="fill:none;fill-rule:evenodd;stroke:#FF0000;stroke-width:1.0px;stroke-linecap:butt;stroke-linejoin:miter;stroke-opacity:1"/>
<path class="bond-9 atom-9 atom-10" d="M 329.1,55.4 L 340.1,57.1" style="fill:none;fill-rule:evenodd;stroke:#FF0000;stroke-width:1.0px;stroke-linecap:butt;stroke-linejoin:miter;stroke-opacity:1"/>
<path class="bond-9 atom-9 atom-10" d="M 329.3,52.0 L 340.9,53.8" style="fill:none;fill-rule:evenodd;stroke:#FF0000;stroke-width:1.0px;stroke-linecap:butt;stroke-linejoin:miter;stroke-opacity:1"/>
<path class="bond-9 atom-9 atom-10" d="M 329.5,48.5 L 341.8,50.5" style="fill:none;fill-rule:evenodd;stroke:#FF0000;stroke-width:1.0px;stroke-linecap:butt;stroke-linejoin:miter;stroke-opacity:1"/>
<path class="bond-10 atom-9 atom-11" d="M 325.5,113.6 L 389.7,165.7" style="fill:none;fill-rule:evenodd;stroke:#000000;stroke-width:2.0px;stroke-linecap:butt;stroke-linejoin:miter;stroke-opacity:1"/>
<path class="bond-11 atom-11 atom-12" d="M 389.7,165.7 L 422.6,153.1" style="fill:none;fill-rule:evenodd;stroke:#000000;stroke-width:2.0px;stroke-linecap:butt;stroke-linejoin:miter;stroke-opacity:1"/>
<path class="bond-11 atom-11 atom-12" d="M 422.6,153.1 L 455.4,140.5" style="fill:none;fill-rule:evenodd;stroke:#0000FF;stroke-width:2.0px;stroke-linecap:butt;stroke-linejoin:miter;stroke-opacity:1"/>
<path class="bond-12 atom-12 atom-13" d="M 478.6,145.5 L 504.9,166.8" style="fill:none;fill-rule:evenodd;stroke:#0000FF;stroke-width:2.0px;stroke-linecap:butt;stroke-linejoin:miter;stroke-opacity:1"/>
<path class="bond-12 atom-12 atom-13" d="M 504.9,166.8 L 531.2,188.2" style="fill:none;fill-rule:evenodd;stroke:#000000;stroke-width:2.0px;stroke-linecap:butt;stroke-linejoin:miter;stroke-opacity:1"/>
<path class="bond-13 atom-13 atom-14" d="M 531.2,188.2 L 608.5,158.6" style="fill:none;fill-rule:evenodd;stroke:#000000;stroke-width:2.0px;stroke-linecap:butt;stroke-linejoin:miter;stroke-opacity:1"/>
<path class="bond-14 atom-14 atom-15" d="M 608.5,158.6 L 672.8,210.7" style="fill:none;fill-rule:evenodd;stroke:#000000;stroke-width:2.0px;stroke-linecap:butt;stroke-linejoin:miter;stroke-opacity:1"/>
<path class="bond-15 atom-15 atom-16" d="M 672.8,210.7 L 750.0,181.1" style="fill:none;fill-rule:evenodd;stroke:#000000;stroke-width:2.0px;stroke-linecap:butt;stroke-linejoin:miter;stroke-opacity:1"/>
<path class="bond-16 atom-16 atom-17" d="M 755.6,185.6 L 761.2,150.5" style="fill:none;fill-rule:evenodd;stroke:#000000;stroke-width:2.0px;stroke-linecap:butt;stroke-linejoin:miter;stroke-opacity:1"/>
<path class="bond-16 atom-16 atom-17" d="M 761.2,150.5 L 766.8,115.3" style="fill:none;fill-rule:evenodd;stroke:#FF0000;stroke-width:2.0px;stroke-linecap:butt;stroke-linejoin:miter;stroke-opacity:1"/>
<path class="bond-16 atom-16 atom-17" d="M 743.3,183.7 L 748.9,148.5" style="fill:none;fill-rule:evenodd;stroke:#000000;stroke-width:2.0px;stroke-linecap:butt;stroke-linejoin:miter;stroke-opacity:1"/>
<path class="bond-16 atom-16 atom-17" d="M 748.9,148.5 L 754.5,113.4" style="fill:none;fill-rule:evenodd;stroke:#FF0000;stroke-width:2.0px;stroke-linecap:butt;stroke-linejoin:miter;stroke-opacity:1"/>
<path class="bond-17 atom-16 atom-18" d="M 750.0,181.1 L 775.4,201.7" style="fill:none;fill-rule:evenodd;stroke:#000000;stroke-width:2.0px;stroke-linecap:butt;stroke-linejoin:miter;stroke-opacity:1"/>
<path class="bond-17 atom-16 atom-18" d="M 775.4,201.7 L 800.8,222.3" style="fill:none;fill-rule:evenodd;stroke:#FF0000;stroke-width:2.0px;stroke-linecap:butt;stroke-linejoin:miter;stroke-opacity:1"/>
<path class="bond-18 atom-18 atom-19" d="M 827.8,228.1 L 859.7,215.8" style="fill:none;fill-rule:evenodd;stroke:#FF0000;stroke-width:2.0px;stroke-linecap:butt;stroke-linejoin:miter;stroke-opacity:1"/>
<path class="bond-18 atom-18 atom-19" d="M 859.7,215.8 L 891.6,203.6" style="fill:none;fill-rule:evenodd;stroke:#000000;stroke-width:2.0px;stroke-linecap:butt;stroke-linejoin:miter;stroke-opacity:1"/>
<path class="bond-19 atom-19 atom-20" d="M 891.6,203.6 L 955.8,255.7" style="fill:none;fill-rule:evenodd;stroke:#000000;stroke-width:2.0px;stroke-linecap:butt;stroke-linejoin:miter;stroke-opacity:1"/>
<path class="bond-20 atom-20 atom-21" d="M 955.8,255.7 L 987.7,243.5" style="fill:none;fill-rule:evenodd;stroke:#000000;stroke-width:2.0px;stroke-linecap:butt;stroke-linejoin:miter;stroke-opacity:1"/>
<path class="bond-20 atom-20 atom-21" d="M 987.7,243.5 L 1019.6,231.3" style="fill:none;fill-rule:evenodd;stroke:#FF0000;stroke-width:2.0px;stroke-linecap:butt;stroke-linejoin:miter;stroke-opacity:1"/>
<path class="bond-21 atom-11 atom-2" d="M 389.7,165.7 L 376.7,247.4" style="fill:none;fill-rule:evenodd;stroke:#000000;stroke-width:2.0px;stroke-linecap:butt;stroke-linejoin:miter;stroke-opacity:1"/>
<path d="M 375.1,248.0 L 376.7,247.4 L 377.4,243.3" style="fill:none;stroke:#000000;stroke-width:2.0px;stroke-linecap:butt;stroke-linejoin:miter;stroke-opacity:1;"/>
<path d="M 161.8,253.0 L 157.9,254.5 L 157.7,256.1" style="fill:none;stroke:#000000;stroke-width:2.0px;stroke-linecap:butt;stroke-linejoin:miter;stroke-opacity:1;"/>
<path d="M 247.6,147.2 L 248.2,143.1 L 252.1,141.7" style="fill:none;stroke:#000000;stroke-width:2.0px;stroke-linecap:butt;stroke-linejoin:miter;stroke-opacity:1;"/>
<path d="M 321.6,115.0 L 325.5,113.6 L 328.7,116.2" style="fill:none;stroke:#000000;stroke-width:2.0px;stroke-linecap:butt;stroke-linejoin:miter;stroke-opacity:1;"/>
<path d="M 529.9,187.1 L 531.2,188.2 L 535.1,186.7" style="fill:none;stroke:#000000;stroke-width:2.0px;stroke-linecap:butt;stroke-linejoin:miter;stroke-opacity:1;"/>
<path d="M 604.6,160.1 L 608.5,158.6 L 611.7,161.2" style="fill:none;stroke:#000000;stroke-width:2.0px;stroke-linecap:butt;stroke-linejoin:miter;stroke-opacity:1;"/>
<path d="M 669.6,208.1 L 672.8,210.7 L 676.6,209.2" style="fill:none;stroke:#000000;stroke-width:2.0px;stroke-linecap:butt;stroke-linejoin:miter;stroke-opacity:1;"/>
<path d="M 746.2,182.6 L 750.0,181.1 L 751.3,182.1" style="fill:none;stroke:#000000;stroke-width:2.0px;stroke-linecap:butt;stroke-linejoin:miter;stroke-opacity:1;"/>
<path d="M 890.0,204.2 L 891.6,203.6 L 894.8,206.2" style="fill:none;stroke:#000000;stroke-width:2.0px;stroke-linecap:butt;stroke-linejoin:miter;stroke-opacity:1;"/>
<path d="M 952.6,253.1 L 955.8,255.7 L 957.4,255.1" style="fill:none;stroke:#000000;stroke-width:2.0px;stroke-linecap:butt;stroke-linejoin:miter;stroke-opacity:1;"/>
<path class="atom-0" d="M 423.6 378.6 L 427.0 375.1 L 422.4 374.1 L 423.1 371.8 L 427.3 373.9 L 426.7 369.3 L 429.2 369.3 L 428.5 373.9 L 432.8 371.9 L 433.5 374.1 L 428.9 375.0 L 432.2 378.5 L 430.2 380.0 L 427.9 375.6 L 425.6 380.0 L 423.6 378.6 " fill="#191919"/>
<path class="atom-1" d="M 430.2 299.6 Q 430.2 293.9, 433.0 290.8 Q 435.8 287.6, 441.0 287.6 Q 446.2 287.6, 449.0 290.8 Q 451.7 293.9, 451.7 299.6 Q 451.7 305.2, 448.9 308.5 Q 446.1 311.7, 441.0 311.7 Q 435.8 311.7, 433.0 308.5 Q 430.2 305.3, 430.2 299.6 M 441.0 309.0 Q 444.6 309.0, 446.5 306.7 Q 448.4 304.3, 448.4 299.6 Q 448.4 295.0, 446.5 292.6 Q 444.6 290.3, 441.0 290.3 Q 437.4 290.3, 435.5 292.6 Q 433.5 294.9, 433.5 299.6 Q 433.5 304.3, 435.5 306.7 Q 437.4 309.0, 441.0 309.0 " fill="#FF0000"/>
<path class="atom-3" d="M 288.7 277.0 Q 288.7 271.4, 291.5 268.3 Q 294.3 265.1, 299.5 265.1 Q 304.7 265.1, 307.4 268.3 Q 310.2 271.4, 310.2 277.0 Q 310.2 282.7, 307.4 286.0 Q 304.6 289.2, 299.5 289.2 Q 294.3 289.2, 291.5 286.0 Q 288.7 282.8, 288.7 277.0 M 299.5 286.5 Q 303.0 286.5, 305.0 284.1 Q 306.9 281.7, 306.9 277.0 Q 306.9 272.4, 305.0 270.1 Q 303.0 267.8, 299.5 267.8 Q 295.9 267.8, 293.9 270.1 Q 292.0 272.4, 292.0 277.0 Q 292.0 281.8, 293.9 284.1 Q 295.9 286.5, 299.5 286.5 " fill="#FF0000"/>
<path class="atom-6" d="M 134.2 336.2 Q 134.2 330.6, 137.0 327.5 Q 139.8 324.3, 144.9 324.3 Q 150.1 324.3, 152.9 327.5 Q 155.7 330.6, 155.7 336.2 Q 155.7 341.9, 152.9 345.2 Q 150.1 348.4, 144.9 348.4 Q 139.8 348.4, 137.0 345.2 Q 134.2 341.9, 134.2 336.2 M 144.9 345.7 Q 148.5 345.7, 150.4 343.3 Q 152.4 340.9, 152.4 336.2 Q 152.4 331.6, 150.4 329.3 Q 148.5 327.0, 144.9 327.0 Q 141.4 327.0, 139.4 329.3 Q 137.5 331.6, 137.5 336.2 Q 137.5 341.0, 139.4 343.3 Q 141.4 345.7, 144.9 345.7 " fill="#FF0000"/>
<path class="atom-6" d="M 159.4 324.6 L 162.5 324.6 L 162.5 334.5 L 174.5 334.5 L 174.5 324.6 L 177.7 324.6 L 177.7 348.0 L 174.5 348.0 L 174.5 337.2 L 162.5 337.2 L 162.5 348.0 L 159.4 348.0 L 159.4 324.6 " fill="#FF0000"/>
<path class="atom-8" d="M 179.5 88.4 L 183.0 84.9 L 178.4 84.0 L 179.1 81.6 L 183.3 83.8 L 182.7 79.2 L 185.2 79.1 L 184.5 83.7 L 188.8 81.7 L 189.5 84.0 L 184.9 84.8 L 188.2 88.4 L 186.1 89.8 L 183.9 85.5 L 181.5 89.8 L 179.5 88.4 " fill="#191919"/>
<path class="atom-10" d="M 327.7 31.9 Q 327.7 26.3, 330.5 23.1 Q 333.3 20.0, 338.5 20.0 Q 343.7 20.0, 346.4 23.1 Q 349.2 26.3, 349.2 31.9 Q 349.2 37.6, 346.4 40.8 Q 343.6 44.1, 338.5 44.1 Q 333.3 44.1, 330.5 40.8 Q 327.7 37.6, 327.7 31.9 M 338.5 41.4 Q 342.0 41.4, 344.0 39.0 Q 345.9 36.6, 345.9 31.9 Q 345.9 27.3, 344.0 25.0 Q 342.0 22.6, 338.5 22.6 Q 334.9 22.6, 332.9 25.0 Q 331.0 27.3, 331.0 31.9 Q 331.0 36.6, 332.9 39.0 Q 334.9 41.4, 338.5 41.4 " fill="#FF0000"/>
<path class="atom-10" d="M 352.9 20.3 L 356.0 20.3 L 356.0 30.2 L 368.0 30.2 L 368.0 20.3 L 371.2 20.3 L 371.2 43.7 L 368.0 43.7 L 368.0 32.9 L 356.0 32.9 L 356.0 43.7 L 352.9 43.7 L 352.9 20.3 " fill="#FF0000"/>
<path class="atom-12" d="M 461.8 124.4 L 469.5 136.8 Q 470.2 138.0, 471.5 140.2 Q 472.7 142.4, 472.8 142.6 L 472.8 124.4 L 475.9 124.4 L 475.9 147.8 L 472.7 147.8 L 464.4 134.2 Q 463.5 132.6, 462.4 130.8 Q 461.4 129.0, 461.1 128.4 L 461.1 147.8 L 458.1 147.8 L 458.1 124.4 L 461.8 124.4 " fill="#0000FF"/>
<path class="atom-12" d="M 457.8 98.6 L 461.0 98.6 L 461.0 108.5 L 473.0 108.5 L 473.0 98.6 L 476.2 98.6 L 476.2 122.0 L 473.0 122.0 L 473.0 111.2 L 461.0 111.2 L 461.0 122.0 L 457.8 122.0 L 457.8 98.6 " fill="#0000FF"/>
<path class="atom-17" d="M 752.3 99.5 Q 752.3 93.8, 755.1 90.7 Q 757.8 87.6, 763.0 87.6 Q 768.2 87.6, 771.0 90.7 Q 773.8 93.8, 773.8 99.5 Q 773.8 105.2, 771.0 108.4 Q 768.2 111.6, 763.0 111.6 Q 757.9 111.6, 755.1 108.4 Q 752.3 105.2, 752.3 99.5 M 763.0 109.0 Q 766.6 109.0, 768.5 106.6 Q 770.5 104.2, 770.5 99.5 Q 770.5 94.9, 768.5 92.5 Q 766.6 90.2, 763.0 90.2 Q 759.5 90.2, 757.5 92.5 Q 755.6 94.8, 755.6 99.5 Q 755.6 104.2, 757.5 106.6 Q 759.5 109.0, 763.0 109.0 " fill="#FF0000"/>
<path class="atom-18" d="M 803.5 233.3 Q 803.5 227.7, 806.3 224.5 Q 809.1 221.4, 814.3 221.4 Q 819.5 221.4, 822.3 224.5 Q 825.0 227.7, 825.0 233.3 Q 825.0 239.0, 822.2 242.2 Q 819.4 245.4, 814.3 245.4 Q 809.1 245.4, 806.3 242.2 Q 803.5 239.0, 803.5 233.3 M 814.3 242.8 Q 817.9 242.8, 819.8 240.4 Q 821.7 238.0, 821.7 233.3 Q 821.7 228.7, 819.8 226.4 Q 817.9 224.0, 814.3 224.0 Q 810.7 224.0, 808.8 226.3 Q 806.8 228.6, 806.8 233.3 Q 806.8 238.0, 808.8 240.4 Q 810.7 242.8, 814.3 242.8 " fill="#FF0000"/>
<path class="atom-21" d="M 1022.3 226.2 Q 1022.3 220.6, 1025.1 217.4 Q 1027.9 214.3, 1033.1 214.3 Q 1038.3 214.3, 1041.0 217.4 Q 1043.8 220.6, 1043.8 226.2 Q 1043.8 231.9, 1041.0 235.1 Q 1038.2 238.3, 1033.1 238.3 Q 1027.9 238.3, 1025.1 235.1 Q 1022.3 231.9, 1022.3 226.2 M 1033.1 235.7 Q 1036.6 235.7, 1038.6 233.3 Q 1040.5 230.9, 1040.5 226.2 Q 1040.5 221.6, 1038.6 219.3 Q 1036.6 216.9, 1033.1 216.9 Q 1029.5 216.9, 1027.5 219.3 Q 1025.6 221.6, 1025.6 226.2 Q 1025.6 230.9, 1027.5 233.3 Q 1029.5 235.7, 1033.1 235.7 " fill="#FF0000"/>
<path class="atom-21" d="M 1047.5 214.6 L 1050.6 214.6 L 1050.6 224.5 L 1062.6 224.5 L 1062.6 214.6 L 1065.8 214.6 L 1065.8 238.0 L 1062.6 238.0 L 1062.6 227.2 L 1050.6 227.2 L 1050.6 238.0 L 1047.5 238.0 L 1047.5 214.6 " fill="#FF0000"/>
<path class="bond-0 atom-0 atom-1" d="M 725.3,750.6 L 725.3,724.1" style="fill:none;fill-rule:evenodd;stroke:#191919;stroke-width:2.0px;stroke-linecap:butt;stroke-linejoin:miter;stroke-opacity:1"/>
<path class="bond-0 atom-0 atom-1" d="M 725.3,724.1 L 725.3,697.5" style="fill:none;fill-rule:evenodd;stroke:#FF0000;stroke-width:2.0px;stroke-linecap:butt;stroke-linejoin:miter;stroke-opacity:1"/>
<path class="bond-1 atom-2 atom-1" d="M 656.6,643.3 L 657.0,642.6" style="fill:none;fill-rule:evenodd;stroke:#000000;stroke-width:1.0px;stroke-linecap:butt;stroke-linejoin:miter;stroke-opacity:1"/>
<path class="bond-1 atom-2 atom-1" d="M 659.5,645.4 L 660.2,644.1" style="fill:none;fill-rule:evenodd;stroke:#000000;stroke-width:1.0px;stroke-linecap:butt;stroke-linejoin:miter;stroke-opacity:1"/>
<path class="bond-1 atom-2 atom-1" d="M 662.4,647.5 L 663.5,645.6" style="fill:none;fill-rule:evenodd;stroke:#000000;stroke-width:1.0px;stroke-linecap:butt;stroke-linejoin:miter;stroke-opacity:1"/>
<path class="bond-1 atom-2 atom-1" d="M 665.3,649.6 L 666.7,647.0" style="fill:none;fill-rule:evenodd;stroke:#000000;stroke-width:1.0px;stroke-linecap:butt;stroke-linejoin:miter;stroke-opacity:1"/>
<path class="bond-1 atom-2 atom-1" d="M 668.2,651.7 L 670.0,648.5" style="fill:none;fill-rule:evenodd;stroke:#000000;stroke-width:1.0px;stroke-linecap:butt;stroke-linejoin:miter;stroke-opacity:1"/>
<path class="bond-1 atom-2 atom-1" d="M 671.1,653.7 L 673.3,650.0" style="fill:none;fill-rule:evenodd;stroke:#000000;stroke-width:1.0px;stroke-linecap:butt;stroke-linejoin:miter;stroke-opacity:1"/>
<path class="bond-1 atom-2 atom-1" d="M 674.0,655.8 L 676.5,651.4" style="fill:none;fill-rule:evenodd;stroke:#000000;stroke-width:1.0px;stroke-linecap:butt;stroke-linejoin:miter;stroke-opacity:1"/>
<path class="bond-1 atom-2 atom-1" d="M 676.9,657.9 L 679.8,652.9" style="fill:none;fill-rule:evenodd;stroke:#000000;stroke-width:1.0px;stroke-linecap:butt;stroke-linejoin:miter;stroke-opacity:1"/>
<path class="bond-1 atom-2 atom-1" d="M 679.8,660.0 L 683.0,654.3" style="fill:none;fill-rule:evenodd;stroke:#000000;stroke-width:1.0px;stroke-linecap:butt;stroke-linejoin:miter;stroke-opacity:1"/>
<path class="bond-1 atom-2 atom-1" d="M 682.7,662.1 L 686.3,655.8" style="fill:none;fill-rule:evenodd;stroke:#FF0000;stroke-width:1.0px;stroke-linecap:butt;stroke-linejoin:miter;stroke-opacity:1"/>
<path class="bond-1 atom-2 atom-1" d="M 685.6,664.2 L 689.6,657.3" style="fill:none;fill-rule:evenodd;stroke:#FF0000;stroke-width:1.0px;stroke-linecap:butt;stroke-linejoin:miter;stroke-opacity:1"/>
<path class="bond-1 atom-2 atom-1" d="M 688.4,666.3 L 692.8,658.7" style="fill:none;fill-rule:evenodd;stroke:#FF0000;stroke-width:1.0px;stroke-linecap:butt;stroke-linejoin:miter;stroke-opacity:1"/>
<path class="bond-1 atom-2 atom-1" d="M 691.3,668.4 L 696.1,660.2" style="fill:none;fill-rule:evenodd;stroke:#FF0000;stroke-width:1.0px;stroke-linecap:butt;stroke-linejoin:miter;stroke-opacity:1"/>
<path class="bond-1 atom-2 atom-1" d="M 694.2,670.5 L 699.3,661.6" style="fill:none;fill-rule:evenodd;stroke:#FF0000;stroke-width:1.0px;stroke-linecap:butt;stroke-linejoin:miter;stroke-opacity:1"/>
<path class="bond-1 atom-2 atom-1" d="M 697.1,672.6 L 702.6,663.1" style="fill:none;fill-rule:evenodd;stroke:#FF0000;stroke-width:1.0px;stroke-linecap:butt;stroke-linejoin:miter;stroke-opacity:1"/>
<path class="bond-1 atom-2 atom-1" d="M 700.0,674.7 L 705.9,664.6" style="fill:none;fill-rule:evenodd;stroke:#FF0000;stroke-width:1.0px;stroke-linecap:butt;stroke-linejoin:miter;stroke-opacity:1"/>
<path class="bond-1 atom-2 atom-1" d="M 702.9,676.8 L 709.1,666.0" style="fill:none;fill-rule:evenodd;stroke:#FF0000;stroke-width:1.0px;stroke-linecap:butt;stroke-linejoin:miter;stroke-opacity:1"/>
<path class="bond-2 atom-2 atom-3" d="M 653.7,641.2 L 624.6,658.0" style="fill:none;fill-rule:evenodd;stroke:#000000;stroke-width:2.0px;stroke-linecap:butt;stroke-linejoin:miter;stroke-opacity:1"/>
<path class="bond-2 atom-2 atom-3" d="M 624.6,658.0 L 595.5,674.8" style="fill:none;fill-rule:evenodd;stroke:#FF0000;stroke-width:2.0px;stroke-linecap:butt;stroke-linejoin:miter;stroke-opacity:1"/>
<path class="bond-3 atom-3 atom-4" d="M 568.6,674.8 L 539.5,658.0" style="fill:none;fill-rule:evenodd;stroke:#FF0000;stroke-width:2.0px;stroke-linecap:butt;stroke-linejoin:miter;stroke-opacity:1"/>
<path class="bond-3 atom-3 atom-4" d="M 539.5,658.0 L 510.4,641.2" style="fill:none;fill-rule:evenodd;stroke:#000000;stroke-width:2.0px;stroke-linecap:butt;stroke-linejoin:miter;stroke-opacity:1"/>
<path class="bond-4 atom-4 atom-5" d="M 510.4,641.2 L 438.7,682.6" style="fill:none;fill-rule:evenodd;stroke:#000000;stroke-width:2.0px;stroke-linecap:butt;stroke-linejoin:miter;stroke-opacity:1"/>
<path class="bond-5 atom-5 atom-6" d="M 438.7,682.6 L 438.7,716.6" style="fill:none;fill-rule:evenodd;stroke:#000000;stroke-width:2.0px;stroke-linecap:butt;stroke-linejoin:miter;stroke-opacity:1"/>
<path class="bond-5 atom-5 atom-6" d="M 438.7,716.6 L 438.7,750.7" style="fill:none;fill-rule:evenodd;stroke:#FF0000;stroke-width:2.0px;stroke-linecap:butt;stroke-linejoin:miter;stroke-opacity:1"/>
<path class="bond-6 atom-4 atom-7" d="M 510.4,641.2 L 510.4,558.5" style="fill:none;fill-rule:evenodd;stroke:#000000;stroke-width:2.0px;stroke-linecap:butt;stroke-linejoin:miter;stroke-opacity:1"/>
<path class="bond-7 atom-7 atom-8" d="M 507.2,556.9 L 507.5,556.4" style="fill:none;fill-rule:evenodd;stroke:#000000;stroke-width:1.0px;stroke-linecap:butt;stroke-linejoin:miter;stroke-opacity:1"/>
<path class="bond-7 atom-7 atom-8" d="M 504.0,555.4 L 504.6,554.4" style="fill:none;fill-rule:evenodd;stroke:#000000;stroke-width:1.0px;stroke-linecap:butt;stroke-linejoin:miter;stroke-opacity:1"/>
<path class="bond-7 atom-7 atom-8" d="M 500.8,553.9 L 501.7,552.4" style="fill:none;fill-rule:evenodd;stroke:#000000;stroke-width:1.0px;stroke-linecap:butt;stroke-linejoin:miter;stroke-opacity:1"/>
<path class="bond-7 atom-7 atom-8" d="M 497.6,552.4 L 498.8,550.4" style="fill:none;fill-rule:evenodd;stroke:#000000;stroke-width:1.0px;stroke-linecap:butt;stroke-linejoin:miter;stroke-opacity:1"/>
<path class="bond-7 atom-7 atom-8" d="M 494.4,550.9 L 495.8,548.3" style="fill:none;fill-rule:evenodd;stroke:#000000;stroke-width:1.0px;stroke-linecap:butt;stroke-linejoin:miter;stroke-opacity:1"/>
<path class="bond-7 atom-7 atom-8" d="M 491.2,549.4 L 492.9,546.3" style="fill:none;fill-rule:evenodd;stroke:#000000;stroke-width:1.0px;stroke-linecap:butt;stroke-linejoin:miter;stroke-opacity:1"/>
<path class="bond-7 atom-7 atom-8" d="M 487.9,547.9 L 490.0,544.3" style="fill:none;fill-rule:evenodd;stroke:#000000;stroke-width:1.0px;stroke-linecap:butt;stroke-linejoin:miter;stroke-opacity:1"/>
<path class="bond-7 atom-7 atom-8" d="M 484.7,546.4 L 487.1,542.3" style="fill:none;fill-rule:evenodd;stroke:#000000;stroke-width:1.0px;stroke-linecap:butt;stroke-linejoin:miter;stroke-opacity:1"/>
<path class="bond-7 atom-7 atom-8" d="M 481.5,544.9 L 484.2,540.2" style="fill:none;fill-rule:evenodd;stroke:#000000;stroke-width:1.0px;stroke-linecap:butt;stroke-linejoin:miter;stroke-opacity:1"/>
<path class="bond-7 atom-7 atom-8" d="M 478.3,543.3 L 481.3,538.2" style="fill:none;fill-rule:evenodd;stroke:#000000;stroke-width:1.0px;stroke-linecap:butt;stroke-linejoin:miter;stroke-opacity:1"/>
<path class="bond-7 atom-7 atom-8" d="M 475.1,541.8 L 478.4,536.2" style="fill:none;fill-rule:evenodd;stroke:#191919;stroke-width:1.0px;stroke-linecap:butt;stroke-linejoin:miter;stroke-opacity:1"/>
<path class="bond-7 atom-7 atom-8" d="M 471.9,540.3 L 475.5,534.2" style="fill:none;fill-rule:evenodd;stroke:#191919;stroke-width:1.0px;stroke-linecap:butt;stroke-linejoin:miter;stroke-opacity:1"/>
<path class="bond-7 atom-7 atom-8" d="M 468.7,538.8 L 472.5,532.2" style="fill:none;fill-rule:evenodd;stroke:#191919;stroke-width:1.0px;stroke-linecap:butt;stroke-linejoin:miter;stroke-opacity:1"/>
<path class="bond-7 atom-7 atom-8" d="M 465.5,537.3 L 469.6,530.1" style="fill:none;fill-rule:evenodd;stroke:#191919;stroke-width:1.0px;stroke-linecap:butt;stroke-linejoin:miter;stroke-opacity:1"/>
<path class="bond-7 atom-7 atom-8" d="M 462.3,535.8 L 466.7,528.1" style="fill:none;fill-rule:evenodd;stroke:#191919;stroke-width:1.0px;stroke-linecap:butt;stroke-linejoin:miter;stroke-opacity:1"/>
<path class="bond-7 atom-7 atom-8" d="M 459.1,534.3 L 463.8,526.1" style="fill:none;fill-rule:evenodd;stroke:#191919;stroke-width:1.0px;stroke-linecap:butt;stroke-linejoin:miter;stroke-opacity:1"/>
<path class="bond-7 atom-7 atom-8" d="M 455.9,532.8 L 460.9,524.1" style="fill:none;fill-rule:evenodd;stroke:#191919;stroke-width:1.0px;stroke-linecap:butt;stroke-linejoin:miter;stroke-opacity:1"/>
<path class="bond-7 atom-7 atom-8" d="M 452.7,531.3 L 458.0,522.0" style="fill:none;fill-rule:evenodd;stroke:#191919;stroke-width:1.0px;stroke-linecap:butt;stroke-linejoin:miter;stroke-opacity:1"/>
<path class="bond-7 atom-7 atom-8" d="M 449.5,529.7 L 455.1,520.0" style="fill:none;fill-rule:evenodd;stroke:#191919;stroke-width:1.0px;stroke-linecap:butt;stroke-linejoin:miter;stroke-opacity:1"/>
<path class="bond-7 atom-7 atom-8" d="M 446.2,528.2 L 452.2,518.0" style="fill:none;fill-rule:evenodd;stroke:#191919;stroke-width:1.0px;stroke-linecap:butt;stroke-linejoin:miter;stroke-opacity:1"/>
<path class="bond-7 atom-7 atom-8" d="M 443.0,526.7 L 449.2,516.0" style="fill:none;fill-rule:evenodd;stroke:#191919;stroke-width:1.0px;stroke-linecap:butt;stroke-linejoin:miter;stroke-opacity:1"/>
<path class="bond-8 atom-7 atom-9" d="M 510.4,558.5 L 582.0,517.1" style="fill:none;fill-rule:evenodd;stroke:#000000;stroke-width:2.0px;stroke-linecap:butt;stroke-linejoin:miter;stroke-opacity:1"/>
<path class="bond-9 atom-9 atom-10" d="M 581.7,513.7 L 582.4,513.7" style="fill:none;fill-rule:evenodd;stroke:#000000;stroke-width:1.0px;stroke-linecap:butt;stroke-linejoin:miter;stroke-opacity:1"/>
<path class="bond-9 atom-9 atom-10" d="M 581.4,510.2 L 582.7,510.2" style="fill:none;fill-rule:evenodd;stroke:#000000;stroke-width:1.0px;stroke-linecap:butt;stroke-linejoin:miter;stroke-opacity:1"/>
<path class="bond-9 atom-9 atom-10" d="M 581.1,506.8 L 583.0,506.8" style="fill:none;fill-rule:evenodd;stroke:#000000;stroke-width:1.0px;stroke-linecap:butt;stroke-linejoin:miter;stroke-opacity:1"/>
<path class="bond-9 atom-9 atom-10" d="M 580.7,503.4 L 583.4,503.4" style="fill:none;fill-rule:evenodd;stroke:#000000;stroke-width:1.0px;stroke-linecap:butt;stroke-linejoin:miter;stroke-opacity:1"/>
<path class="bond-9 atom-9 atom-10" d="M 580.4,500.0 L 583.7,500.0" style="fill:none;fill-rule:evenodd;stroke:#000000;stroke-width:1.0px;stroke-linecap:butt;stroke-linejoin:miter;stroke-opacity:1"/>
<path class="bond-9 atom-9 atom-10" d="M 580.1,496.5 L 584.0,496.5" style="fill:none;fill-rule:evenodd;stroke:#000000;stroke-width:1.0px;stroke-linecap:butt;stroke-linejoin:miter;stroke-opacity:1"/>
<path class="bond-9 atom-9 atom-10" d="M 579.8,493.1 L 584.3,493.1" style="fill:none;fill-rule:evenodd;stroke:#000000;stroke-width:1.0px;stroke-linecap:butt;stroke-linejoin:miter;stroke-opacity:1"/>
<path class="bond-9 atom-9 atom-10" d="M 579.4,489.7 L 584.7,489.7" style="fill:none;fill-rule:evenodd;stroke:#000000;stroke-width:1.0px;stroke-linecap:butt;stroke-linejoin:miter;stroke-opacity:1"/>
<path class="bond-9 atom-9 atom-10" d="M 579.1,486.3 L 585.0,486.3" style="fill:none;fill-rule:evenodd;stroke:#000000;stroke-width:1.0px;stroke-linecap:butt;stroke-linejoin:miter;stroke-opacity:1"/>
<path class="bond-9 atom-9 atom-10" d="M 578.8,482.8 L 585.3,482.8" style="fill:none;fill-rule:evenodd;stroke:#FF0000;stroke-width:1.0px;stroke-linecap:butt;stroke-linejoin:miter;stroke-opacity:1"/>
<path class="bond-9 atom-9 atom-10" d="M 578.5,479.4 L 585.6,479.4" style="fill:none;fill-rule:evenodd;stroke:#FF0000;stroke-width:1.0px;stroke-linecap:butt;stroke-linejoin:miter;stroke-opacity:1"/>
<path class="bond-9 atom-9 atom-10" d="M 578.1,476.0 L 586.0,476.0" style="fill:none;fill-rule:evenodd;stroke:#FF0000;stroke-width:1.0px;stroke-linecap:butt;stroke-linejoin:miter;stroke-opacity:1"/>
<path class="bond-9 atom-9 atom-10" d="M 577.8,472.6 L 586.3,472.6" style="fill:none;fill-rule:evenodd;stroke:#FF0000;stroke-width:1.0px;stroke-linecap:butt;stroke-linejoin:miter;stroke-opacity:1"/>
<path class="bond-9 atom-9 atom-10" d="M 577.5,469.1 L 586.6,469.1" style="fill:none;fill-rule:evenodd;stroke:#FF0000;stroke-width:1.0px;stroke-linecap:butt;stroke-linejoin:miter;stroke-opacity:1"/>
<path class="bond-9 atom-9 atom-10" d="M 577.2,465.7 L 586.9,465.7" style="fill:none;fill-rule:evenodd;stroke:#FF0000;stroke-width:1.0px;stroke-linecap:butt;stroke-linejoin:miter;stroke-opacity:1"/>
<path class="bond-9 atom-9 atom-10" d="M 576.8,462.3 L 587.3,462.3" style="fill:none;fill-rule:evenodd;stroke:#FF0000;stroke-width:1.0px;stroke-linecap:butt;stroke-linejoin:miter;stroke-opacity:1"/>
<path class="bond-9 atom-9 atom-10" d="M 576.5,458.9 L 587.6,458.9" style="fill:none;fill-rule:evenodd;stroke:#FF0000;stroke-width:1.0px;stroke-linecap:butt;stroke-linejoin:miter;stroke-opacity:1"/>
<path class="bond-9 atom-9 atom-10" d="M 576.2,455.4 L 587.9,455.4" style="fill:none;fill-rule:evenodd;stroke:#FF0000;stroke-width:1.0px;stroke-linecap:butt;stroke-linejoin:miter;stroke-opacity:1"/>
<path class="bond-9 atom-9 atom-10" d="M 575.8,452.0 L 588.3,452.0" style="fill:none;fill-rule:evenodd;stroke:#FF0000;stroke-width:1.0px;stroke-linecap:butt;stroke-linejoin:miter;stroke-opacity:1"/>
<path class="bond-10 atom-9 atom-11" d="M 582.0,517.1 L 653.7,558.5" style="fill:none;fill-rule:evenodd;stroke:#000000;stroke-width:2.0px;stroke-linecap:butt;stroke-linejoin:miter;stroke-opacity:1"/>
<path class="bond-11 atom-11 atom-12" d="M 653.7,558.5 L 683.7,541.1" style="fill:none;fill-rule:evenodd;stroke:#000000;stroke-width:2.0px;stroke-linecap:butt;stroke-linejoin:miter;stroke-opacity:1"/>
<path class="bond-11 atom-11 atom-12" d="M 683.7,541.1 L 713.7,523.8" style="fill:none;fill-rule:evenodd;stroke:#0000FF;stroke-width:2.0px;stroke-linecap:butt;stroke-linejoin:miter;stroke-opacity:1"/>
<path class="bond-12 atom-11 atom-2" d="M 653.7,558.5 L 653.7,641.2" style="fill:none;fill-rule:evenodd;stroke:#000000;stroke-width:2.0px;stroke-linecap:butt;stroke-linejoin:miter;stroke-opacity:1"/>
<path d="M 652.2,642.0 L 653.7,641.2 L 653.7,637.0" style="fill:none;stroke:#000000;stroke-width:2.0px;stroke-linecap:butt;stroke-linejoin:miter;stroke-opacity:1;"/>
<path d="M 442.3,680.5 L 438.7,682.6 L 438.7,684.3" style="fill:none;stroke:#000000;stroke-width:2.0px;stroke-linecap:butt;stroke-linejoin:miter;stroke-opacity:1;"/>
<path d="M 510.4,562.6 L 510.4,558.5 L 514.0,556.4" style="fill:none;stroke:#000000;stroke-width:2.0px;stroke-linecap:butt;stroke-linejoin:miter;stroke-opacity:1;"/>
<path d="M 578.5,519.2 L 582.0,517.1 L 585.6,519.2" style="fill:none;stroke:#000000;stroke-width:2.0px;stroke-linecap:butt;stroke-linejoin:miter;stroke-opacity:1;"/>
<path class="atom-0" d="M 720.9 762.7 L 724.4 759.2 L 719.8 758.2 L 720.5 755.9 L 724.7 758.0 L 724.1 753.4 L 726.6 753.4 L 725.9 758.0 L 730.2 756.0 L 730.9 758.2 L 726.3 759.1 L 729.6 762.6 L 727.6 764.1 L 725.3 759.7 L 723.0 764.1 L 720.9 762.7 " fill="#191919"/>
<path class="atom-1" d="M 714.6 682.6 Q 714.6 677.0, 717.4 673.8 Q 720.2 670.7, 725.3 670.7 Q 730.5 670.7, 733.3 673.8 Q 736.1 677.0, 736.1 682.6 Q 736.1 688.3, 733.3 691.6 Q 730.5 694.8, 725.3 694.8 Q 720.2 694.8, 717.4 691.6 Q 714.6 688.3, 714.6 682.6 M 725.3 692.1 Q 728.9 692.1, 730.8 689.7 Q 732.8 687.3, 732.8 682.6 Q 732.8 678.0, 730.8 675.7 Q 728.9 673.4, 725.3 673.4 Q 721.8 673.4, 719.8 675.7 Q 717.9 678.0, 717.9 682.6 Q 717.9 687.4, 719.8 689.7 Q 721.8 692.1, 725.3 692.1 " fill="#FF0000"/>
<path class="atom-3" d="M 571.3 682.6 Q 571.3 677.0, 574.1 673.8 Q 576.9 670.7, 582.0 670.7 Q 587.2 670.7, 590.0 673.8 Q 592.8 677.0, 592.8 682.6 Q 592.8 688.3, 590.0 691.6 Q 587.2 694.8, 582.0 694.8 Q 576.9 694.8, 574.1 691.6 Q 571.3 688.3, 571.3 682.6 M 582.0 692.1 Q 585.6 692.1, 587.5 689.7 Q 589.5 687.3, 589.5 682.6 Q 589.5 678.0, 587.5 675.7 Q 585.6 673.4, 582.0 673.4 Q 578.5 673.4, 576.5 675.7 Q 574.6 678.0, 574.6 682.6 Q 574.6 687.4, 576.5 689.7 Q 578.5 692.1, 582.0 692.1 " fill="#FF0000"/>
<path class="atom-6" d="M 428.0 765.4 Q 428.0 759.7, 430.8 756.6 Q 433.6 753.4, 438.7 753.4 Q 443.9 753.4, 446.7 756.6 Q 449.5 759.7, 449.5 765.4 Q 449.5 771.0, 446.7 774.3 Q 443.9 777.5, 438.7 777.5 Q 433.6 777.5, 430.8 774.3 Q 428.0 771.1, 428.0 765.4 M 438.7 774.9 Q 442.3 774.9, 444.2 772.5 Q 446.2 770.1, 446.2 765.4 Q 446.2 760.8, 444.2 758.4 Q 442.3 756.1, 438.7 756.1 Q 435.2 756.1, 433.2 758.4 Q 431.3 760.7, 431.3 765.4 Q 431.3 770.1, 433.2 772.5 Q 435.2 774.9, 438.7 774.9 " fill="#FF0000"/>
<path class="atom-6" d="M 453.2 753.7 L 456.3 753.7 L 456.3 763.7 L 468.3 763.7 L 468.3 753.7 L 471.5 753.7 L 471.5 777.1 L 468.3 777.1 L 468.3 766.3 L 456.3 766.3 L 456.3 777.1 L 453.2 777.1 L 453.2 753.7 " fill="#FF0000"/>
<path class="atom-8" d="M 434.3 514.5 L 437.8 511.0 L 433.2 510.0 L 433.9 507.7 L 438.1 509.8 L 437.5 505.2 L 440.0 505.2 L 439.3 509.8 L 443.6 507.8 L 444.3 510.0 L 439.7 510.9 L 443.0 514.4 L 440.9 515.9 L 438.7 511.5 L 436.3 515.9 L 434.3 514.5 " fill="#191919"/>
<path class="atom-10" d="M 571.3 434.4 Q 571.3 428.8, 574.1 425.6 Q 576.9 422.5, 582.0 422.5 Q 587.2 422.5, 590.0 425.6 Q 592.8 428.8, 592.8 434.4 Q 592.8 440.1, 590.0 443.4 Q 587.2 446.6, 582.0 446.6 Q 576.9 446.6, 574.1 443.4 Q 571.3 440.1, 571.3 434.4 M 582.0 443.9 Q 585.6 443.9, 587.5 441.5 Q 589.5 439.1, 589.5 434.4 Q 589.5 429.8, 587.5 427.5 Q 585.6 425.1, 582.0 425.1 Q 578.5 425.1, 576.5 427.5 Q 574.6 429.8, 574.6 434.4 Q 574.6 439.1, 576.5 441.5 Q 578.5 443.9, 582.0 443.9 " fill="#FF0000"/>
<path class="atom-10" d="M 596.5 422.8 L 599.6 422.8 L 599.6 432.7 L 611.6 432.7 L 611.6 422.8 L 614.8 422.8 L 614.8 446.2 L 611.6 446.2 L 611.6 435.4 L 599.6 435.4 L 599.6 446.2 L 596.5 446.2 L 596.5 422.8 " fill="#FF0000"/>
<path class="atom-12" d="M 720.2 505.4 L 727.8 517.8 Q 728.6 519.0, 729.8 521.2 Q 731.1 523.4, 731.1 523.6 L 731.1 505.4 L 734.2 505.4 L 734.2 528.8 L 731.0 528.8 L 722.8 515.2 Q 721.8 513.6, 720.8 511.8 Q 719.8 510.0, 719.5 509.4 L 719.5 528.8 L 716.5 528.8 L 716.5 505.4 L 720.2 505.4 " fill="#0000FF"/>
<path class="atom-12" d="M 738.7 505.4 L 741.9 505.4 L 741.9 515.3 L 753.9 515.3 L 753.9 505.4 L 757.0 505.4 L 757.0 528.8 L 753.9 528.8 L 753.9 518.0 L 741.9 518.0 L 741.9 528.8 L 738.7 528.8 L 738.7 505.4 " fill="#0000FF"/>
<path class="atom-12" d="M 761.6 528.0 Q 762.2 526.5, 763.6 525.7 Q 764.9 524.9, 766.8 524.9 Q 769.1 524.9, 770.4 526.1 Q 771.7 527.4, 771.7 529.7 Q 771.7 532.0, 770.0 534.1 Q 768.4 536.2, 764.9 538.8 L 772.0 538.8 L 772.0 540.5 L 761.6 540.5 L 761.6 539.1 Q 764.5 537.0, 766.2 535.5 Q 767.9 533.9, 768.7 532.6 Q 769.6 531.2, 769.6 529.8 Q 769.6 528.3, 768.8 527.5 Q 768.1 526.6, 766.8 526.6 Q 765.5 526.6, 764.7 527.1 Q 763.9 527.6, 763.3 528.7 L 761.6 528.0 " fill="#0000FF"/>
</svg>