<svg xmlns="http://www.w3.org/2000/svg" xmlns:rdkit="http://www.rdkit.org/xml" xmlns:xlink="http://www.w3.org/1999/xlink" version="1.1" baseProfile="full" xml:space="preserve" width="1200px" height="800px" viewBox="0 0 1200 800">
<!-- END OF HEADER -->
<rect style="opacity:1.0;fill:#FFFFFF;stroke:none" width="1200.0" height="800.0" x="0.0" y="0.0"> </rect>
<path class="bond-0 atom-0 atom-1" d="M 206.1,277.9 L 206.6,264.9" style="fill:none;fill-rule:evenodd;stroke:#191919;stroke-width:2.0px;stroke-linecap:butt;stroke-linejoin:miter;stroke-opacity:1"/>
<path class="bond-0 atom-0 atom-1" d="M 206.6,264.9 L 207.1,251.9" style="fill:none;fill-rule:evenodd;stroke:#FF0000;stroke-width:2.0px;stroke-linecap:butt;stroke-linejoin:miter;stroke-opacity:1"/>
<path class="bond-1 atom-2 atom-1" d="M 175.7,225.1 L 176.1,224.4" style="fill:none;fill-rule:evenodd;stroke:#000000;stroke-width:1.0px;stroke-linecap:butt;stroke-linejoin:miter;stroke-opacity:1"/>
<path class="bond-1 atom-2 atom-1" d="M 178.5,227.2 L 179.3,225.9" style="fill:none;fill-rule:evenodd;stroke:#000000;stroke-width:1.0px;stroke-linecap:butt;stroke-linejoin:miter;stroke-opacity:1"/>
<path class="bond-1 atom-2 atom-1" d="M 181.2,229.4 L 182.4,227.5" style="fill:none;fill-rule:evenodd;stroke:#000000;stroke-width:1.0px;stroke-linecap:butt;stroke-linejoin:miter;stroke-opacity:1"/>
<path class="bond-1 atom-2 atom-1" d="M 183.9,231.6 L 185.5,229.0" style="fill:none;fill-rule:evenodd;stroke:#000000;stroke-width:1.0px;stroke-linecap:butt;stroke-linejoin:miter;stroke-opacity:1"/>
<path class="bond-1 atom-2 atom-1" d="M 186.6,233.7 L 188.7,230.5" style="fill:none;fill-rule:evenodd;stroke:#FF0000;stroke-width:1.0px;stroke-linecap:butt;stroke-linejoin:miter;stroke-opacity:1"/>
<path class="bond-1 atom-2 atom-1" d="M 189.4,235.9 L 191.8,232.0" style="fill:none;fill-rule:evenodd;stroke:#FF0000;stroke-width:1.0px;stroke-linecap:butt;stroke-linejoin:miter;stroke-opacity:1"/>
<path class="bond-1 atom-2 atom-1" d="M 192.1,238.1 L 194.9,233.5" style="fill:none;fill-rule:evenodd;stroke:#FF0000;stroke-width:1.0px;stroke-linecap:butt;stroke-linejoin:miter;stroke-opacity:1"/>
<path class="bond-1 atom-2 atom-1" d="M 194.8,240.2 L 198.1,235.1" style="fill:none;fill-rule:evenodd;stroke:#FF0000;stroke-width:1.0px;stroke-linecap:butt;stroke-linejoin:miter;stroke-opacity:1"/>
<path class="bond-2 atom-2 atom-3" d="M 173.0,222.9 L 158.4,230.6" style="fill:none;fill-rule:evenodd;stroke:#000000;stroke-width:2.0px;stroke-linecap:butt;stroke-linejoin:miter;stroke-opacity:1"/>
<path class="bond-2 atom-2 atom-3" d="M 158.4,230.6 L 143.7,238.3" style="fill:none;fill-rule:evenodd;stroke:#FF0000;stroke-width:2.0px;stroke-linecap:butt;stroke-linejoin:miter;stroke-opacity:1"/>
<path class="bond-3 atom-3 atom-4" d="M 130.5,237.7 L 116.6,228.9" style="fill:none;fill-rule:evenodd;stroke:#FF0000;stroke-width:2.0px;stroke-linecap:butt;stroke-linejoin:miter;stroke-opacity:1"/>
<path class="bond-3 atom-3 atom-4" d="M 116.6,228.9 L 102.7,220.2" style="fill:none;fill-rule:evenodd;stroke:#000000;stroke-width:2.0px;stroke-linecap:butt;stroke-linejoin:miter;stroke-opacity:1"/>
<path class="bond-4 atom-4 atom-5" d="M 102.7,220.2 L 66.8,239.1" style="fill:none;fill-rule:evenodd;stroke:#000000;stroke-width:2.0px;stroke-linecap:butt;stroke-linejoin:miter;stroke-opacity:1"/>
<path class="bond-5 atom-5 atom-6" d="M 66.8,239.1 L 66.2,255.8" style="fill:none;fill-rule:evenodd;stroke:#000000;stroke-width:2.0px;stroke-linecap:butt;stroke-linejoin:miter;stroke-opacity:1"/>
<path class="bond-5 atom-5 atom-6" d="M 66.2,255.8 L 65.6,272.5" style="fill:none;fill-rule:evenodd;stroke:#FF0000;stroke-width:2.0px;stroke-linecap:butt;stroke-linejoin:miter;stroke-opacity:1"/>
<path class="bond-6 atom-4 atom-7" d="M 102.7,220.2 L 104.3,179.6" style="fill:none;fill-rule:evenodd;stroke:#000000;stroke-width:2.0px;stroke-linecap:butt;stroke-linejoin:miter;stroke-opacity:1"/>
<path class="bond-7 atom-7 atom-8" d="M 101.0,177.9 L 101.4,177.4" style="fill:none;fill-rule:evenodd;stroke:#000000;stroke-width:1.0px;stroke-linecap:butt;stroke-linejoin:miter;stroke-opacity:1"/>
<path class="bond-7 atom-7 atom-8" d="M 97.8,176.2 L 98.4,175.2" style="fill:none;fill-rule:evenodd;stroke:#000000;stroke-width:1.0px;stroke-linecap:butt;stroke-linejoin:miter;stroke-opacity:1"/>
<path class="bond-7 atom-7 atom-8" d="M 94.5,174.5 L 95.5,173.0" style="fill:none;fill-rule:evenodd;stroke:#000000;stroke-width:1.0px;stroke-linecap:butt;stroke-linejoin:miter;stroke-opacity:1"/>
<path class="bond-7 atom-7 atom-8" d="M 91.2,172.8 L 92.5,170.8" style="fill:none;fill-rule:evenodd;stroke:#000000;stroke-width:1.0px;stroke-linecap:butt;stroke-linejoin:miter;stroke-opacity:1"/>
<path class="bond-7 atom-7 atom-8" d="M 88.0,171.1 L 89.6,168.6" style="fill:none;fill-rule:evenodd;stroke:#000000;stroke-width:1.0px;stroke-linecap:butt;stroke-linejoin:miter;stroke-opacity:1"/>
<path class="bond-7 atom-7 atom-8" d="M 84.7,169.5 L 86.7,166.4" style="fill:none;fill-rule:evenodd;stroke:#191919;stroke-width:1.0px;stroke-linecap:butt;stroke-linejoin:miter;stroke-opacity:1"/>
<path class="bond-7 atom-7 atom-8" d="M 81.4,167.8 L 83.7,164.1" style="fill:none;fill-rule:evenodd;stroke:#191919;stroke-width:1.0px;stroke-linecap:butt;stroke-linejoin:miter;stroke-opacity:1"/>
<path class="bond-7 atom-7 atom-8" d="M 78.2,166.1 L 80.8,161.9" style="fill:none;fill-rule:evenodd;stroke:#191919;stroke-width:1.0px;stroke-linecap:butt;stroke-linejoin:miter;stroke-opacity:1"/>
<path class="bond-7 atom-7 atom-8" d="M 74.9,164.4 L 77.8,159.7" style="fill:none;fill-rule:evenodd;stroke:#191919;stroke-width:1.0px;stroke-linecap:butt;stroke-linejoin:miter;stroke-opacity:1"/>
<path class="bond-7 atom-7 atom-8" d="M 71.6,162.7 L 74.9,157.5" style="fill:none;fill-rule:evenodd;stroke:#191919;stroke-width:1.0px;stroke-linecap:butt;stroke-linejoin:miter;stroke-opacity:1"/>
<path class="bond-8 atom-7 atom-9" d="M 104.3,179.6 L 140.2,160.7" style="fill:none;fill-rule:evenodd;stroke:#000000;stroke-width:2.0px;stroke-linecap:butt;stroke-linejoin:miter;stroke-opacity:1"/>
<path class="bond-9 atom-9 atom-10" d="M 140.0,157.1 L 140.7,157.2" style="fill:none;fill-rule:evenodd;stroke:#000000;stroke-width:1.0px;stroke-linecap:butt;stroke-linejoin:miter;stroke-opacity:1"/>
<path class="bond-9 atom-9 atom-10" d="M 139.8,153.6 L 141.2,153.6" style="fill:none;fill-rule:evenodd;stroke:#000000;stroke-width:1.0px;stroke-linecap:butt;stroke-linejoin:miter;stroke-opacity:1"/>
<path class="bond-9 atom-9 atom-10" d="M 139.6,150.0 L 141.6,150.1" style="fill:none;fill-rule:evenodd;stroke:#000000;stroke-width:1.0px;stroke-linecap:butt;stroke-linejoin:miter;stroke-opacity:1"/>
<path class="bond-9 atom-9 atom-10" d="M 139.4,146.5 L 142.1,146.6" style="fill:none;fill-rule:evenodd;stroke:#000000;stroke-width:1.0px;stroke-linecap:butt;stroke-linejoin:miter;stroke-opacity:1"/>
<path class="bond-9 atom-9 atom-10" d="M 139.2,142.9 L 142.6,143.0" style="fill:none;fill-rule:evenodd;stroke:#FF0000;stroke-width:1.0px;stroke-linecap:butt;stroke-linejoin:miter;stroke-opacity:1"/>
<path class="bond-9 atom-9 atom-10" d="M 139.0,139.3 L 143.1,139.5" style="fill:none;fill-rule:evenodd;stroke:#FF0000;stroke-width:1.0px;stroke-linecap:butt;stroke-linejoin:miter;stroke-opacity:1"/>
<path class="bond-9 atom-9 atom-10" d="M 138.8,135.8 L 143.5,136.0" style="fill:none;fill-rule:evenodd;stroke:#FF0000;stroke-width:1.0px;stroke-linecap:butt;stroke-linejoin:miter;stroke-opacity:1"/>
<path class="bond-9 atom-9 atom-10" d="M 138.6,132.2 L 144.0,132.4" style="fill:none;fill-rule:evenodd;stroke:#FF0000;stroke-width:1.0px;stroke-linecap:butt;stroke-linejoin:miter;stroke-opacity:1"/>
<path class="bond-9 atom-9 atom-10" d="M 138.4,128.7 L 144.5,128.9" style="fill:none;fill-rule:evenodd;stroke:#FF0000;stroke-width:1.0px;stroke-linecap:butt;stroke-linejoin:miter;stroke-opacity:1"/>
<path class="bond-10 atom-9 atom-11" d="M 140.2,160.7 L 174.6,182.3" style="fill:none;fill-rule:evenodd;stroke:#000000;stroke-width:2.0px;stroke-linecap:butt;stroke-linejoin:miter;stroke-opacity:1"/>
<path class="bond-11 atom-11 atom-12" d="M 174.6,182.3 L 189.7,174.4" style="fill:none;fill-rule:evenodd;stroke:#000000;stroke-width:2.0px;stroke-linecap:butt;stroke-linejoin:miter;stroke-opacity:1"/>
<path class="bond-11 atom-11 atom-12" d="M 189.7,174.4 L 204.8,166.4" style="fill:none;fill-rule:evenodd;stroke:#0000FF;stroke-width:2.0px;stroke-linecap:butt;stroke-linejoin:miter;stroke-opacity:1"/>
<path class="bond-12 atom-12 atom-13" d="M 216.2,167.0 L 230.5,176.0" style="fill:none;fill-rule:evenodd;stroke:#0000FF;stroke-width:2.0px;stroke-linecap:butt;stroke-linejoin:miter;stroke-opacity:1"/>
<path class="bond-12 atom-12 atom-13" d="M 230.5,176.0 L 244.8,185.0" style="fill:none;fill-rule:evenodd;stroke:#000000;stroke-width:2.0px;stroke-linecap:butt;stroke-linejoin:miter;stroke-opacity:1"/>
<path class="bond-13 atom-13 atom-14" d="M 244.8,185.0 L 280.7,166.1" style="fill:none;fill-rule:evenodd;stroke:#000000;stroke-width:2.0px;stroke-linecap:butt;stroke-linejoin:miter;stroke-opacity:1"/>
<path class="bond-14 atom-14 atom-15" d="M 280.7,166.1 L 315.1,187.7" style="fill:none;fill-rule:evenodd;stroke:#000000;stroke-width:2.0px;stroke-linecap:butt;stroke-linejoin:miter;stroke-opacity:1"/>
<path class="bond-15 atom-15 atom-16" d="M 315.1,187.7 L 351.0,168.8" style="fill:none;fill-rule:evenodd;stroke:#000000;stroke-width:2.0px;stroke-linecap:butt;stroke-linejoin:miter;stroke-opacity:1"/>
<path class="bond-16 atom-16 atom-17" d="M 354.0,170.6 L 354.7,153.2" style="fill:none;fill-rule:evenodd;stroke:#000000;stroke-width:2.0px;stroke-linecap:butt;stroke-linejoin:miter;stroke-opacity:1"/>
<path class="bond-16 atom-16 atom-17" d="M 354.7,153.2 L 355.3,135.7" style="fill:none;fill-rule:evenodd;stroke:#FF0000;stroke-width:2.0px;stroke-linecap:butt;stroke-linejoin:miter;stroke-opacity:1"/>
<path class="bond-16 atom-16 atom-17" d="M 347.9,170.4 L 348.6,152.9" style="fill:none;fill-rule:evenodd;stroke:#000000;stroke-width:2.0px;stroke-linecap:butt;stroke-linejoin:miter;stroke-opacity:1"/>
<path class="bond-16 atom-16 atom-17" d="M 348.6,152.9 L 349.2,135.4" style="fill:none;fill-rule:evenodd;stroke:#FF0000;stroke-width:2.0px;stroke-linecap:butt;stroke-linejoin:miter;stroke-opacity:1"/>
<path class="bond-17 atom-16 atom-18" d="M 351.0,168.8 L 364.9,177.5" style="fill:none;fill-rule:evenodd;stroke:#000000;stroke-width:2.0px;stroke-linecap:butt;stroke-linejoin:miter;stroke-opacity:1"/>
<path class="bond-17 atom-16 atom-18" d="M 364.9,177.5 L 378.7,186.2" style="fill:none;fill-rule:evenodd;stroke:#FF0000;stroke-width:2.0px;stroke-linecap:butt;stroke-linejoin:miter;stroke-opacity:1"/>
<path class="bond-18 atom-18 atom-19" d="M 392.0,186.9 L 406.6,179.2" style="fill:none;fill-rule:evenodd;stroke:#FF0000;stroke-width:2.0px;stroke-linecap:butt;stroke-linejoin:miter;stroke-opacity:1"/>
<path class="bond-18 atom-18 atom-19" d="M 406.6,179.2 L 421.3,171.5" style="fill:none;fill-rule:evenodd;stroke:#000000;stroke-width:2.0px;stroke-linecap:butt;stroke-linejoin:miter;stroke-opacity:1"/>
<path class="bond-19 atom-19 atom-20" d="M 421.3,171.5 L 455.6,193.1" style="fill:none;fill-rule:evenodd;stroke:#000000;stroke-width:2.0px;stroke-linecap:butt;stroke-linejoin:miter;stroke-opacity:1"/>
<path class="bond-20 atom-20 atom-21" d="M 455.6,193.1 L 470.3,185.4" style="fill:none;fill-rule:evenodd;stroke:#000000;stroke-width:2.0px;stroke-linecap:butt;stroke-linejoin:miter;stroke-opacity:1"/>
<path class="bond-20 atom-20 atom-21" d="M 470.3,185.4 L 484.9,177.7" style="fill:none;fill-rule:evenodd;stroke:#FF0000;stroke-width:2.0px;stroke-linecap:butt;stroke-linejoin:miter;stroke-opacity:1"/>
<path class="bond-21 atom-21 atom-22" d="M 498.2,178.3 L 512.0,187.1" style="fill:none;fill-rule:evenodd;stroke:#FF0000;stroke-width:2.0px;stroke-linecap:butt;stroke-linejoin:miter;stroke-opacity:1"/>
<path class="bond-21 atom-21 atom-22" d="M 512.0,187.1 L 525.9,195.8" style="fill:none;fill-rule:evenodd;stroke:#000000;stroke-width:2.0px;stroke-linecap:butt;stroke-linejoin:miter;stroke-opacity:1"/>
<path class="bond-22 atom-22 atom-23" d="M 525.9,195.8 L 561.8,176.9" style="fill:none;fill-rule:evenodd;stroke:#000000;stroke-width:2.0px;stroke-linecap:butt;stroke-linejoin:miter;stroke-opacity:1"/>
<path class="bond-23 atom-23 atom-24" d="M 561.8,176.9 L 575.7,185.6" style="fill:none;fill-rule:evenodd;stroke:#000000;stroke-width:2.0px;stroke-linecap:butt;stroke-linejoin:miter;stroke-opacity:1"/>
<path class="bond-23 atom-23 atom-24" d="M 575.7,185.6 L 589.5,194.3" style="fill:none;fill-rule:evenodd;stroke:#FF0000;stroke-width:2.0px;stroke-linecap:butt;stroke-linejoin:miter;stroke-opacity:1"/>
<path class="bond-24 atom-24 atom-25" d="M 602.8,195.0 L 617.4,187.3" style="fill:none;fill-rule:evenodd;stroke:#FF0000;stroke-width:2.0px;stroke-linecap:butt;stroke-linejoin:miter;stroke-opacity:1"/>
<path class="bond-24 atom-24 atom-25" d="M 617.4,187.3 L 632.1,179.6" style="fill:none;fill-rule:evenodd;stroke:#000000;stroke-width:2.0px;stroke-linecap:butt;stroke-linejoin:miter;stroke-opacity:1"/>
<path class="bond-25 atom-25 atom-26" d="M 632.1,179.6 L 666.4,201.2" style="fill:none;fill-rule:evenodd;stroke:#000000;stroke-width:2.0px;stroke-linecap:butt;stroke-linejoin:miter;stroke-opacity:1"/>
<path class="bond-26 atom-26 atom-27" d="M 666.4,201.2 L 681.1,193.5" style="fill:none;fill-rule:evenodd;stroke:#000000;stroke-width:2.0px;stroke-linecap:butt;stroke-linejoin:miter;stroke-opacity:1"/>
<path class="bond-26 atom-26 atom-27" d="M 681.1,193.5 L 695.7,185.7" style="fill:none;fill-rule:evenodd;stroke:#FF0000;stroke-width:2.0px;stroke-linecap:butt;stroke-linejoin:miter;stroke-opacity:1"/>
<path class="bond-27 atom-27 atom-28" d="M 709.0,186.4 L 722.8,195.1" style="fill:none;fill-rule:evenodd;stroke:#FF0000;stroke-width:2.0px;stroke-linecap:butt;stroke-linejoin:miter;stroke-opacity:1"/>
<path class="bond-27 atom-27 atom-28" d="M 722.8,195.1 L 736.7,203.9" style="fill:none;fill-rule:evenodd;stroke:#000000;stroke-width:2.0px;stroke-linecap:butt;stroke-linejoin:miter;stroke-opacity:1"/>
<path class="bond-28 atom-28 atom-29" d="M 736.7,203.9 L 772.6,184.9" style="fill:none;fill-rule:evenodd;stroke:#000000;stroke-width:2.0px;stroke-linecap:butt;stroke-linejoin:miter;stroke-opacity:1"/>
<path class="bond-29 atom-29 atom-30" d="M 772.6,184.9 L 786.5,193.7" style="fill:none;fill-rule:evenodd;stroke:#000000;stroke-width:2.0px;stroke-linecap:butt;stroke-linejoin:miter;stroke-opacity:1"/>
<path class="bond-29 atom-29 atom-30" d="M 786.5,193.7 L 800.3,202.4" style="fill:none;fill-rule:evenodd;stroke:#FF0000;stroke-width:2.0px;stroke-linecap:butt;stroke-linejoin:miter;stroke-opacity:1"/>
<path class="bond-30 atom-30 atom-31" d="M 813.6,203.1 L 828.2,195.4" style="fill:none;fill-rule:evenodd;stroke:#FF0000;stroke-width:2.0px;stroke-linecap:butt;stroke-linejoin:miter;stroke-opacity:1"/>
<path class="bond-30 atom-30 atom-31" d="M 828.2,195.4 L 842.9,187.6" style="fill:none;fill-rule:evenodd;stroke:#000000;stroke-width:2.0px;stroke-linecap:butt;stroke-linejoin:miter;stroke-opacity:1"/>
<path class="bond-31 atom-31 atom-32" d="M 842.9,187.6 L 877.2,209.3" style="fill:none;fill-rule:evenodd;stroke:#000000;stroke-width:2.0px;stroke-linecap:butt;stroke-linejoin:miter;stroke-opacity:1"/>
<path class="bond-32 atom-32 atom-33" d="M 877.2,209.3 L 891.9,201.5" style="fill:none;fill-rule:evenodd;stroke:#000000;stroke-width:2.0px;stroke-linecap:butt;stroke-linejoin:miter;stroke-opacity:1"/>
<path class="bond-32 atom-32 atom-33" d="M 891.9,201.5 L 906.5,193.8" style="fill:none;fill-rule:evenodd;stroke:#FF0000;stroke-width:2.0px;stroke-linecap:butt;stroke-linejoin:miter;stroke-opacity:1"/>
<path class="bond-33 atom-33 atom-34" d="M 919.8,194.5 L 933.6,203.2" style="fill:none;fill-rule:evenodd;stroke:#FF0000;stroke-width:2.0px;stroke-linecap:butt;stroke-linejoin:miter;stroke-opacity:1"/>
<path class="bond-33 atom-33 atom-34" d="M 933.6,203.2 L 947.5,212.0" style="fill:none;fill-rule:evenodd;stroke:#000000;stroke-width:2.0px;stroke-linecap:butt;stroke-linejoin:miter;stroke-opacity:1"/>
<path class="bond-34 atom-34 atom-35" d="M 947.5,212.0 L 983.4,193.0" style="fill:none;fill-rule:evenodd;stroke:#000000;stroke-width:2.0px;stroke-linecap:butt;stroke-linejoin:miter;stroke-opacity:1"/>
<path class="bond-35 atom-35 atom-36" d="M 983.4,193.0 L 997.3,201.8" style="fill:none;fill-rule:evenodd;stroke:#000000;stroke-width:2.0px;stroke-linecap:butt;stroke-linejoin:miter;stroke-opacity:1"/>
<path class="bond-35 atom-35 atom-36" d="M 997.3,201.8 L 1011.1,210.5" style="fill:none;fill-rule:evenodd;stroke:#FF0000;stroke-width:2.0px;stroke-linecap:butt;stroke-linejoin:miter;stroke-opacity:1"/>
<path class="bond-36 atom-36 atom-37" d="M 1024.4,211.2 L 1039.0,203.4" style="fill:none;fill-rule:evenodd;stroke:#FF0000;stroke-width:2.0px;stroke-linecap:butt;stroke-linejoin:miter;stroke-opacity:1"/>
<path class="bond-36 atom-36 atom-37" d="M 1039.0,203.4 L 1053.7,195.7" style="fill:none;fill-rule:evenodd;stroke:#000000;stroke-width:2.0px;stroke-linecap:butt;stroke-linejoin:miter;stroke-opacity:1"/>
<path class="bond-37 atom-37 atom-38" d="M 1053.7,195.7 L 1088.0,217.3" style="fill:none;fill-rule:evenodd;stroke:#000000;stroke-width:2.0px;stroke-linecap:butt;stroke-linejoin:miter;stroke-opacity:1"/>
<path class="bond-38 atom-38 atom-39" d="M 1088.0,217.3 L 1102.7,209.6" style="fill:none;fill-rule:evenodd;stroke:#000000;stroke-width:2.0px;stroke-linecap:butt;stroke-linejoin:miter;stroke-opacity:1"/>
<path class="bond-38 atom-38 atom-39" d="M 1102.7,209.6 L 1117.3,201.9" style="fill:none;fill-rule:evenodd;stroke:#FF0000;stroke-width:2.0px;stroke-linecap:butt;stroke-linejoin:miter;stroke-opacity:1"/>
<path class="bond-39 atom-11 atom-2" d="M 174.6,182.3 L 173.0,222.9" style="fill:none;fill-rule:evenodd;stroke:#000000;stroke-width:2.0px;stroke-linecap:butt;stroke-linejoin:miter;stroke-opacity:1"/>
<path d="M 172.3,223.3 L 173.0,222.9 L 173.1,220.9" style="fill:none;stroke:#000000;stroke-width:2.0px;stroke-linecap:butt;stroke-linejoin:miter;stroke-opacity:1;"/>
<path d="M 68.6,238.2 L 66.8,239.1 L 66.8,240.0" style="fill:none;stroke:#000000;stroke-width:2.0px;stroke-linecap:butt;stroke-linejoin:miter;stroke-opacity:1;"/>
<path d="M 104.2,181.7 L 104.3,179.6 L 106.1,178.7" style="fill:none;stroke:#000000;stroke-width:2.0px;stroke-linecap:butt;stroke-linejoin:miter;stroke-opacity:1;"/>
<path d="M 138.4,161.6 L 140.2,160.7 L 141.9,161.8" style="fill:none;stroke:#000000;stroke-width:2.0px;stroke-linecap:butt;stroke-linejoin:miter;stroke-opacity:1;"/>
<path d="M 244.1,184.6 L 244.8,185.0 L 246.6,184.1" style="fill:none;stroke:#000000;stroke-width:2.0px;stroke-linecap:butt;stroke-linejoin:miter;stroke-opacity:1;"/>
<path d="M 278.9,167.0 L 280.7,166.1 L 282.5,167.2" style="fill:none;stroke:#000000;stroke-width:2.0px;stroke-linecap:butt;stroke-linejoin:miter;stroke-opacity:1;"/>
<path d="M 313.4,186.6 L 315.1,187.7 L 316.9,186.8" style="fill:none;stroke:#000000;stroke-width:2.0px;stroke-linecap:butt;stroke-linejoin:miter;stroke-opacity:1;"/>
<path d="M 349.2,169.7 L 351.0,168.8 L 351.7,169.2" style="fill:none;stroke:#000000;stroke-width:2.0px;stroke-linecap:butt;stroke-linejoin:miter;stroke-opacity:1;"/>
<path d="M 420.5,171.9 L 421.3,171.5 L 423.0,172.5" style="fill:none;stroke:#000000;stroke-width:2.0px;stroke-linecap:butt;stroke-linejoin:miter;stroke-opacity:1;"/>
<path d="M 453.9,192.0 L 455.6,193.1 L 456.4,192.7" style="fill:none;stroke:#000000;stroke-width:2.0px;stroke-linecap:butt;stroke-linejoin:miter;stroke-opacity:1;"/>
<path d="M 525.2,195.4 L 525.9,195.8 L 527.7,194.8" style="fill:none;stroke:#000000;stroke-width:2.0px;stroke-linecap:butt;stroke-linejoin:miter;stroke-opacity:1;"/>
<path d="M 560.0,177.8 L 561.8,176.9 L 562.5,177.3" style="fill:none;stroke:#000000;stroke-width:2.0px;stroke-linecap:butt;stroke-linejoin:miter;stroke-opacity:1;"/>
<path d="M 631.3,179.9 L 632.1,179.6 L 633.8,180.6" style="fill:none;stroke:#000000;stroke-width:2.0px;stroke-linecap:butt;stroke-linejoin:miter;stroke-opacity:1;"/>
<path d="M 664.7,200.1 L 666.4,201.2 L 667.2,200.8" style="fill:none;stroke:#000000;stroke-width:2.0px;stroke-linecap:butt;stroke-linejoin:miter;stroke-opacity:1;"/>
<path d="M 736.0,203.4 L 736.7,203.9 L 738.5,202.9" style="fill:none;stroke:#000000;stroke-width:2.0px;stroke-linecap:butt;stroke-linejoin:miter;stroke-opacity:1;"/>
<path d="M 770.8,185.9 L 772.6,184.9 L 773.3,185.4" style="fill:none;stroke:#000000;stroke-width:2.0px;stroke-linecap:butt;stroke-linejoin:miter;stroke-opacity:1;"/>
<path d="M 842.1,188.0 L 842.9,187.6 L 844.6,188.7" style="fill:none;stroke:#000000;stroke-width:2.0px;stroke-linecap:butt;stroke-linejoin:miter;stroke-opacity:1;"/>
<path d="M 875.5,208.2 L 877.2,209.3 L 878.0,208.9" style="fill:none;stroke:#000000;stroke-width:2.0px;stroke-linecap:butt;stroke-linejoin:miter;stroke-opacity:1;"/>
<path d="M 946.8,211.5 L 947.5,212.0 L 949.3,211.0" style="fill:none;stroke:#000000;stroke-width:2.0px;stroke-linecap:butt;stroke-linejoin:miter;stroke-opacity:1;"/>
<path d="M 981.6,194.0 L 983.4,193.0 L 984.1,193.5" style="fill:none;stroke:#000000;stroke-width:2.0px;stroke-linecap:butt;stroke-linejoin:miter;stroke-opacity:1;"/>
<path d="M 1052.9,196.1 L 1053.7,195.7 L 1055.4,196.8" style="fill:none;stroke:#000000;stroke-width:2.0px;stroke-linecap:butt;stroke-linejoin:miter;stroke-opacity:1;"/>
<path d="M 1086.3,216.3 L 1088.0,217.3 L 1088.8,217.0" style="fill:none;stroke:#000000;stroke-width:2.0px;stroke-linecap:butt;stroke-linejoin:miter;stroke-opacity:1;"/>
<path class="atom-0" d="M 203.6 283.8 L 205.3 282.1 L 203.1 281.6 L 203.4 280.5 L 205.5 281.5 L 205.2 279.3 L 206.4 279.2 L 206.1 281.5 L 208.2 280.5 L 208.5 281.6 L 206.3 282.1 L 207.9 283.8 L 206.9 284.5 L 205.8 282.4 L 204.6 284.5 L 203.6 283.8 " fill="#191919"/>
<path class="atom-1" d="M 202.1 244.6 Q 202.1 241.8, 203.5 240.2 Q 204.8 238.7, 207.4 238.7 Q 209.9 238.7, 211.3 240.2 Q 212.6 241.8, 212.6 244.6 Q 212.6 247.3, 211.3 248.9 Q 209.9 250.5, 207.4 250.5 Q 204.8 250.5, 203.5 248.9 Q 202.1 247.4, 202.1 244.6 M 207.4 249.2 Q 209.1 249.2, 210.1 248.0 Q 211.0 246.9, 211.0 244.6 Q 211.0 242.3, 210.1 241.2 Q 209.1 240.0, 207.4 240.0 Q 205.6 240.0, 204.7 241.1 Q 203.7 242.3, 203.7 244.6 Q 203.7 246.9, 204.7 248.0 Q 205.6 249.2, 207.4 249.2 " fill="#FF0000"/>
<path class="atom-3" d="M 131.8 241.9 Q 131.8 239.1, 133.2 237.6 Q 134.5 236.0, 137.1 236.0 Q 139.6 236.0, 141.0 237.6 Q 142.4 239.1, 142.4 241.9 Q 142.4 244.7, 141.0 246.2 Q 139.6 247.8, 137.1 247.8 Q 134.6 247.8, 133.2 246.2 Q 131.8 244.7, 131.8 241.9 M 137.1 246.5 Q 138.9 246.5, 139.8 245.3 Q 140.8 244.2, 140.8 241.9 Q 140.8 239.6, 139.8 238.5 Q 138.9 237.3, 137.1 237.3 Q 135.3 237.3, 134.4 238.4 Q 133.4 239.6, 133.4 241.9 Q 133.4 244.2, 134.4 245.3 Q 135.3 246.5, 137.1 246.5 " fill="#FF0000"/>
<path class="atom-6" d="M 60.0 279.7 Q 60.0 277.0, 61.4 275.4 Q 62.7 273.9, 65.3 273.9 Q 67.8 273.9, 69.2 275.4 Q 70.6 277.0, 70.6 279.7 Q 70.6 282.5, 69.2 284.1 Q 67.8 285.7, 65.3 285.7 Q 62.7 285.7, 61.4 284.1 Q 60.0 282.5, 60.0 279.7 M 65.3 284.4 Q 67.0 284.4, 68.0 283.2 Q 68.9 282.0, 68.9 279.7 Q 68.9 277.5, 68.0 276.3 Q 67.0 275.2, 65.3 275.2 Q 63.5 275.2, 62.6 276.3 Q 61.6 277.5, 61.6 279.7 Q 61.6 282.1, 62.6 283.2 Q 63.5 284.4, 65.3 284.4 " fill="#FF0000"/>
<path class="atom-6" d="M 72.3 274.0 L 73.9 274.0 L 73.9 278.9 L 79.8 278.9 L 79.8 274.0 L 81.3 274.0 L 81.3 285.5 L 79.8 285.5 L 79.8 280.2 L 73.9 280.2 L 73.9 285.5 L 72.3 285.5 L 72.3 274.0 " fill="#FF0000"/>
<path class="atom-8" d="M 67.8 156.7 L 69.5 155.0 L 67.2 154.5 L 67.6 153.4 L 69.6 154.4 L 69.3 152.2 L 70.6 152.1 L 70.2 154.4 L 72.3 153.4 L 72.7 154.5 L 70.4 155.0 L 72.0 156.7 L 71.0 157.4 L 69.9 155.3 L 68.8 157.4 L 67.8 156.7 " fill="#191919"/>
<path class="atom-10" d="M 136.5 120.2 Q 136.5 117.4, 137.9 115.9 Q 139.2 114.3, 141.8 114.3 Q 144.3 114.3, 145.7 115.9 Q 147.0 117.4, 147.0 120.2 Q 147.0 122.9, 145.7 124.5 Q 144.3 126.1, 141.8 126.1 Q 139.2 126.1, 137.9 124.5 Q 136.5 123.0, 136.5 120.2 M 141.8 124.8 Q 143.5 124.8, 144.5 123.6 Q 145.4 122.5, 145.4 120.2 Q 145.4 117.9, 144.5 116.8 Q 143.5 115.6, 141.8 115.6 Q 140.0 115.6, 139.1 116.7 Q 138.1 117.9, 138.1 120.2 Q 138.1 122.5, 139.1 123.6 Q 140.0 124.8, 141.8 124.8 " fill="#FF0000"/>
<path class="atom-10" d="M 148.8 114.4 L 150.4 114.4 L 150.4 119.3 L 156.3 119.3 L 156.3 114.4 L 157.8 114.4 L 157.8 125.9 L 156.3 125.9 L 156.3 120.6 L 150.4 120.6 L 150.4 125.9 L 148.8 125.9 L 148.8 114.4 " fill="#FF0000"/>
<path class="atom-12" d="M 207.9 157.6 L 211.7 163.7 Q 212.1 164.3, 212.7 165.4 Q 213.3 166.5, 213.3 166.6 L 213.3 157.6 L 214.8 157.6 L 214.8 169.1 L 213.3 169.1 L 209.2 162.5 Q 208.7 161.7, 208.2 160.8 Q 207.8 159.9, 207.6 159.6 L 207.6 169.1 L 206.1 169.1 L 206.1 157.6 L 207.9 157.6 " fill="#0000FF"/>
<path class="atom-12" d="M 206.0 145.0 L 207.5 145.0 L 207.5 149.9 L 213.4 149.9 L 213.4 145.0 L 215.0 145.0 L 215.0 156.5 L 213.4 156.5 L 213.4 151.2 L 207.5 151.2 L 207.5 156.5 L 206.0 156.5 L 206.0 145.0 " fill="#0000FF"/>
<path class="atom-17" d="M 347.3 128.2 Q 347.3 125.5, 348.7 123.9 Q 350.0 122.4, 352.6 122.4 Q 355.1 122.4, 356.5 123.9 Q 357.8 125.5, 357.8 128.2 Q 357.8 131.0, 356.5 132.6 Q 355.1 134.2, 352.6 134.2 Q 350.0 134.2, 348.7 132.6 Q 347.3 131.0, 347.3 128.2 M 352.6 132.9 Q 354.3 132.9, 355.3 131.7 Q 356.2 130.5, 356.2 128.2 Q 356.2 126.0, 355.3 124.8 Q 354.3 123.7, 352.6 123.7 Q 350.8 123.7, 349.9 124.8 Q 348.9 126.0, 348.9 128.2 Q 348.9 130.6, 349.9 131.7 Q 350.8 132.9, 352.6 132.9 " fill="#FF0000"/>
<path class="atom-18" d="M 380.1 190.4 Q 380.1 187.7, 381.5 186.1 Q 382.8 184.6, 385.4 184.6 Q 387.9 184.6, 389.3 186.1 Q 390.6 187.7, 390.6 190.4 Q 390.6 193.2, 389.3 194.8 Q 387.9 196.4, 385.4 196.4 Q 382.8 196.4, 381.5 194.8 Q 380.1 193.2, 380.1 190.4 M 385.4 195.1 Q 387.1 195.1, 388.1 193.9 Q 389.0 192.7, 389.0 190.4 Q 389.0 188.2, 388.1 187.0 Q 387.1 185.9, 385.4 185.9 Q 383.6 185.9, 382.7 187.0 Q 381.7 188.2, 381.7 190.4 Q 381.7 192.8, 382.7 193.9 Q 383.6 195.1, 385.4 195.1 " fill="#FF0000"/>
<path class="atom-21" d="M 486.3 174.2 Q 486.3 171.4, 487.6 169.9 Q 489.0 168.3, 491.5 168.3 Q 494.1 168.3, 495.5 169.9 Q 496.8 171.4, 496.8 174.2 Q 496.8 177.0, 495.4 178.6 Q 494.1 180.2, 491.5 180.2 Q 489.0 180.2, 487.6 178.6 Q 486.3 177.0, 486.3 174.2 M 491.5 178.9 Q 493.3 178.9, 494.2 177.7 Q 495.2 176.5, 495.2 174.2 Q 495.2 171.9, 494.2 170.8 Q 493.3 169.6, 491.5 169.6 Q 489.8 169.6, 488.8 170.8 Q 487.9 171.9, 487.9 174.2 Q 487.9 176.5, 488.8 177.7 Q 489.8 178.9, 491.5 178.9 " fill="#FF0000"/>
<path class="atom-24" d="M 590.9 198.5 Q 590.9 195.8, 592.2 194.2 Q 593.6 192.7, 596.2 192.7 Q 598.7 192.7, 600.1 194.2 Q 601.4 195.8, 601.4 198.5 Q 601.4 201.3, 600.1 202.9 Q 598.7 204.5, 596.2 204.5 Q 593.6 204.5, 592.2 202.9 Q 590.9 201.3, 590.9 198.5 M 596.2 203.2 Q 597.9 203.2, 598.9 202.0 Q 599.8 200.8, 599.8 198.5 Q 599.8 196.3, 598.9 195.1 Q 597.9 194.0, 596.2 194.0 Q 594.4 194.0, 593.5 195.1 Q 592.5 196.2, 592.5 198.5 Q 592.5 200.8, 593.5 202.0 Q 594.4 203.2, 596.2 203.2 " fill="#FF0000"/>
<path class="atom-27" d="M 697.1 182.3 Q 697.1 179.5, 698.4 178.0 Q 699.8 176.4, 702.3 176.4 Q 704.9 176.4, 706.3 178.0 Q 707.6 179.5, 707.6 182.3 Q 707.6 185.1, 706.2 186.7 Q 704.9 188.2, 702.3 188.2 Q 699.8 188.2, 698.4 186.7 Q 697.1 185.1, 697.1 182.3 M 702.3 186.9 Q 704.1 186.9, 705.0 185.8 Q 706.0 184.6, 706.0 182.3 Q 706.0 180.0, 705.0 178.9 Q 704.1 177.7, 702.3 177.7 Q 700.6 177.7, 699.6 178.9 Q 698.7 180.0, 698.7 182.3 Q 698.7 184.6, 699.6 185.8 Q 700.6 186.9, 702.3 186.9 " fill="#FF0000"/>
<path class="atom-30" d="M 801.7 206.6 Q 801.7 203.8, 803.0 202.3 Q 804.4 200.8, 807.0 200.8 Q 809.5 200.8, 810.9 202.3 Q 812.2 203.8, 812.2 206.6 Q 812.2 209.4, 810.9 211.0 Q 809.5 212.6, 807.0 212.6 Q 804.4 212.6, 803.0 211.0 Q 801.7 209.4, 801.7 206.6 M 807.0 211.3 Q 808.7 211.3, 809.7 210.1 Q 810.6 208.9, 810.6 206.6 Q 810.6 204.3, 809.7 203.2 Q 808.7 202.1, 807.0 202.1 Q 805.2 202.1, 804.2 203.2 Q 803.3 204.3, 803.3 206.6 Q 803.3 208.9, 804.2 210.1 Q 805.2 211.3, 807.0 211.3 " fill="#FF0000"/>
<path class="atom-33" d="M 907.9 190.4 Q 907.9 187.6, 909.2 186.1 Q 910.6 184.5, 913.1 184.5 Q 915.7 184.5, 917.1 186.1 Q 918.4 187.6, 918.4 190.4 Q 918.4 193.2, 917.0 194.7 Q 915.7 196.3, 913.1 196.3 Q 910.6 196.3, 909.2 194.7 Q 907.9 193.2, 907.9 190.4 M 913.1 195.0 Q 914.9 195.0, 915.8 193.9 Q 916.8 192.7, 916.8 190.4 Q 916.8 188.1, 915.8 187.0 Q 914.9 185.8, 913.1 185.8 Q 911.4 185.8, 910.4 187.0 Q 909.5 188.1, 909.5 190.4 Q 909.5 192.7, 910.4 193.9 Q 911.4 195.0, 913.1 195.0 " fill="#FF0000"/>
<path class="atom-36" d="M 1012.5 214.7 Q 1012.5 211.9, 1013.8 210.4 Q 1015.2 208.8, 1017.8 208.8 Q 1020.3 208.8, 1021.7 210.4 Q 1023.0 211.9, 1023.0 214.7 Q 1023.0 217.5, 1021.7 219.1 Q 1020.3 220.6, 1017.8 220.6 Q 1015.2 220.6, 1013.8 219.1 Q 1012.5 217.5, 1012.5 214.7 M 1017.8 219.3 Q 1019.5 219.3, 1020.5 218.2 Q 1021.4 217.0, 1021.4 214.7 Q 1021.4 212.4, 1020.5 211.3 Q 1019.5 210.1, 1017.8 210.1 Q 1016.0 210.1, 1015.0 211.3 Q 1014.1 212.4, 1014.1 214.7 Q 1014.1 217.0, 1015.0 218.2 Q 1016.0 219.3, 1017.8 219.3 " fill="#FF0000"/>
<path class="atom-39" d="M 1118.7 198.4 Q 1118.7 195.7, 1120.0 194.1 Q 1121.4 192.6, 1123.9 192.6 Q 1126.5 192.6, 1127.8 194.1 Q 1129.2 195.7, 1129.2 198.4 Q 1129.2 201.2, 1127.8 202.8 Q 1126.5 204.4, 1123.9 204.4 Q 1121.4 204.4, 1120.0 202.8 Q 1118.7 201.3, 1118.7 198.4 M 1123.9 203.1 Q 1125.7 203.1, 1126.6 201.9 Q 1127.6 200.8, 1127.6 198.4 Q 1127.6 196.2, 1126.6 195.1 Q 1125.7 193.9, 1123.9 193.9 Q 1122.2 193.9, 1121.2 195.0 Q 1120.3 196.2, 1120.3 198.4 Q 1120.3 200.8, 1121.2 201.9 Q 1122.2 203.1, 1123.9 203.1 " fill="#FF0000"/>
<path class="atom-39" d="M 1131.0 192.7 L 1132.6 192.7 L 1132.6 197.6 L 1138.4 197.6 L 1138.4 192.7 L 1140.0 192.7 L 1140.0 204.2 L 1138.4 204.2 L 1138.4 198.9 L 1132.6 198.9 L 1132.6 204.2 L 1131.0 204.2 L 1131.0 192.7 " fill="#FF0000"/>
<path class="bond-0 atom-0 atom-1" d="M 661.5,673.9 L 661.5,660.9" style="fill:none;fill-rule:evenodd;stroke:#191919;stroke-width:2.0px;stroke-linecap:butt;stroke-linejoin:miter;stroke-opacity:1"/>
<path class="bond-0 atom-0 atom-1" d="M 661.5,660.9 L 661.5,647.8" style="fill:none;fill-rule:evenodd;stroke:#FF0000;stroke-width:2.0px;stroke-linecap:butt;stroke-linejoin:miter;stroke-opacity:1"/>
<path class="bond-1 atom-2 atom-1" d="M 629.2,622.3 L 629.6,621.6" style="fill:none;fill-rule:evenodd;stroke:#000000;stroke-width:1.0px;stroke-linecap:butt;stroke-linejoin:miter;stroke-opacity:1"/>
<path class="bond-1 atom-2 atom-1" d="M 632.0,624.4 L 632.8,623.0" style="fill:none;fill-rule:evenodd;stroke:#000000;stroke-width:1.0px;stroke-linecap:butt;stroke-linejoin:miter;stroke-opacity:1"/>
<path class="bond-1 atom-2 atom-1" d="M 634.8,626.4 L 636.0,624.5" style="fill:none;fill-rule:evenodd;stroke:#000000;stroke-width:1.0px;stroke-linecap:butt;stroke-linejoin:miter;stroke-opacity:1"/>
<path class="bond-1 atom-2 atom-1" d="M 637.7,628.5 L 639.2,625.9" style="fill:none;fill-rule:evenodd;stroke:#000000;stroke-width:1.0px;stroke-linecap:butt;stroke-linejoin:miter;stroke-opacity:1"/>
<path class="bond-1 atom-2 atom-1" d="M 640.5,630.6 L 642.4,627.3" style="fill:none;fill-rule:evenodd;stroke:#FF0000;stroke-width:1.0px;stroke-linecap:butt;stroke-linejoin:miter;stroke-opacity:1"/>
<path class="bond-1 atom-2 atom-1" d="M 643.3,632.6 L 645.6,628.7" style="fill:none;fill-rule:evenodd;stroke:#FF0000;stroke-width:1.0px;stroke-linecap:butt;stroke-linejoin:miter;stroke-opacity:1"/>
<path class="bond-1 atom-2 atom-1" d="M 646.2,634.7 L 648.8,630.1" style="fill:none;fill-rule:evenodd;stroke:#FF0000;stroke-width:1.0px;stroke-linecap:butt;stroke-linejoin:miter;stroke-opacity:1"/>
<path class="bond-1 atom-2 atom-1" d="M 649.0,636.8 L 652.0,631.5" style="fill:none;fill-rule:evenodd;stroke:#FF0000;stroke-width:1.0px;stroke-linecap:butt;stroke-linejoin:miter;stroke-opacity:1"/>
<path class="bond-2 atom-2 atom-3" d="M 626.4,620.2 L 612.1,628.4" style="fill:none;fill-rule:evenodd;stroke:#000000;stroke-width:2.0px;stroke-linecap:butt;stroke-linejoin:miter;stroke-opacity:1"/>
<path class="bond-2 atom-2 atom-3" d="M 612.1,628.4 L 597.8,636.7" style="fill:none;fill-rule:evenodd;stroke:#FF0000;stroke-width:2.0px;stroke-linecap:butt;stroke-linejoin:miter;stroke-opacity:1"/>
<path class="bond-3 atom-3 atom-4" d="M 584.6,636.7 L 570.3,628.4" style="fill:none;fill-rule:evenodd;stroke:#FF0000;stroke-width:2.0px;stroke-linecap:butt;stroke-linejoin:miter;stroke-opacity:1"/>
<path class="bond-3 atom-3 atom-4" d="M 570.3,628.4 L 556.0,620.2" style="fill:none;fill-rule:evenodd;stroke:#000000;stroke-width:2.0px;stroke-linecap:butt;stroke-linejoin:miter;stroke-opacity:1"/>
<path class="bond-4 atom-4 atom-5" d="M 556.0,620.2 L 520.9,640.5" style="fill:none;fill-rule:evenodd;stroke:#000000;stroke-width:2.0px;stroke-linecap:butt;stroke-linejoin:miter;stroke-opacity:1"/>
<path class="bond-5 atom-5 atom-6" d="M 520.9,640.5 L 520.9,657.2" style="fill:none;fill-rule:evenodd;stroke:#000000;stroke-width:2.0px;stroke-linecap:butt;stroke-linejoin:miter;stroke-opacity:1"/>
<path class="bond-5 atom-5 atom-6" d="M 520.9,657.2 L 520.9,674.0" style="fill:none;fill-rule:evenodd;stroke:#FF0000;stroke-width:2.0px;stroke-linecap:butt;stroke-linejoin:miter;stroke-opacity:1"/>
<path class="bond-6 atom-4 atom-7" d="M 556.0,620.2 L 556.0,579.6" style="fill:none;fill-rule:evenodd;stroke:#000000;stroke-width:2.0px;stroke-linecap:butt;stroke-linejoin:miter;stroke-opacity:1"/>
<path class="bond-7 atom-7 atom-8" d="M 552.7,578.1 L 553.0,577.5" style="fill:none;fill-rule:evenodd;stroke:#000000;stroke-width:1.0px;stroke-linecap:butt;stroke-linejoin:miter;stroke-opacity:1"/>
<path class="bond-7 atom-7 atom-8" d="M 549.4,576.5 L 550.0,575.4" style="fill:none;fill-rule:evenodd;stroke:#000000;stroke-width:1.0px;stroke-linecap:butt;stroke-linejoin:miter;stroke-opacity:1"/>
<path class="bond-7 atom-7 atom-8" d="M 546.1,574.9 L 547.0,573.4" style="fill:none;fill-rule:evenodd;stroke:#000000;stroke-width:1.0px;stroke-linecap:butt;stroke-linejoin:miter;stroke-opacity:1"/>
<path class="bond-7 atom-7 atom-8" d="M 542.8,573.4 L 544.0,571.3" style="fill:none;fill-rule:evenodd;stroke:#000000;stroke-width:1.0px;stroke-linecap:butt;stroke-linejoin:miter;stroke-opacity:1"/>
<path class="bond-7 atom-7 atom-8" d="M 539.5,571.8 L 541.0,569.2" style="fill:none;fill-rule:evenodd;stroke:#000000;stroke-width:1.0px;stroke-linecap:butt;stroke-linejoin:miter;stroke-opacity:1"/>
<path class="bond-7 atom-7 atom-8" d="M 536.2,570.3 L 538.0,567.1" style="fill:none;fill-rule:evenodd;stroke:#191919;stroke-width:1.0px;stroke-linecap:butt;stroke-linejoin:miter;stroke-opacity:1"/>
<path class="bond-7 atom-7 atom-8" d="M 532.9,568.7 L 535.0,565.0" style="fill:none;fill-rule:evenodd;stroke:#191919;stroke-width:1.0px;stroke-linecap:butt;stroke-linejoin:miter;stroke-opacity:1"/>
<path class="bond-7 atom-7 atom-8" d="M 529.6,567.2 L 532.0,562.9" style="fill:none;fill-rule:evenodd;stroke:#191919;stroke-width:1.0px;stroke-linecap:butt;stroke-linejoin:miter;stroke-opacity:1"/>
<path class="bond-7 atom-7 atom-8" d="M 526.3,565.6 L 529.0,560.9" style="fill:none;fill-rule:evenodd;stroke:#191919;stroke-width:1.0px;stroke-linecap:butt;stroke-linejoin:miter;stroke-opacity:1"/>
<path class="bond-7 atom-7 atom-8" d="M 523.0,564.0 L 526.0,558.8" style="fill:none;fill-rule:evenodd;stroke:#191919;stroke-width:1.0px;stroke-linecap:butt;stroke-linejoin:miter;stroke-opacity:1"/>
<path class="bond-8 atom-7 atom-9" d="M 556.0,579.6 L 591.2,559.3" style="fill:none;fill-rule:evenodd;stroke:#000000;stroke-width:2.0px;stroke-linecap:butt;stroke-linejoin:miter;stroke-opacity:1"/>
<path class="bond-9 atom-9 atom-10" d="M 590.9,555.8 L 591.5,555.8" style="fill:none;fill-rule:evenodd;stroke:#000000;stroke-width:1.0px;stroke-linecap:butt;stroke-linejoin:miter;stroke-opacity:1"/>
<path class="bond-9 atom-9 atom-10" d="M 590.5,552.2 L 591.9,552.2" style="fill:none;fill-rule:evenodd;stroke:#000000;stroke-width:1.0px;stroke-linecap:butt;stroke-linejoin:miter;stroke-opacity:1"/>
<path class="bond-9 atom-9 atom-10" d="M 590.2,548.7 L 592.2,548.7" style="fill:none;fill-rule:evenodd;stroke:#000000;stroke-width:1.0px;stroke-linecap:butt;stroke-linejoin:miter;stroke-opacity:1"/>
<path class="bond-9 atom-9 atom-10" d="M 589.8,545.1 L 592.5,545.1" style="fill:none;fill-rule:evenodd;stroke:#000000;stroke-width:1.0px;stroke-linecap:butt;stroke-linejoin:miter;stroke-opacity:1"/>
<path class="bond-9 atom-9 atom-10" d="M 589.5,541.6 L 592.9,541.6" style="fill:none;fill-rule:evenodd;stroke:#FF0000;stroke-width:1.0px;stroke-linecap:butt;stroke-linejoin:miter;stroke-opacity:1"/>
<path class="bond-9 atom-9 atom-10" d="M 589.2,538.0 L 593.2,538.0" style="fill:none;fill-rule:evenodd;stroke:#FF0000;stroke-width:1.0px;stroke-linecap:butt;stroke-linejoin:miter;stroke-opacity:1"/>
<path class="bond-9 atom-9 atom-10" d="M 588.8,534.5 L 593.6,534.5" style="fill:none;fill-rule:evenodd;stroke:#FF0000;stroke-width:1.0px;stroke-linecap:butt;stroke-linejoin:miter;stroke-opacity:1"/>
<path class="bond-9 atom-9 atom-10" d="M 588.5,530.9 L 593.9,530.9" style="fill:none;fill-rule:evenodd;stroke:#FF0000;stroke-width:1.0px;stroke-linecap:butt;stroke-linejoin:miter;stroke-opacity:1"/>
<path class="bond-9 atom-9 atom-10" d="M 588.1,527.4 L 594.2,527.4" style="fill:none;fill-rule:evenodd;stroke:#FF0000;stroke-width:1.0px;stroke-linecap:butt;stroke-linejoin:miter;stroke-opacity:1"/>
<path class="bond-10 atom-9 atom-11" d="M 591.2,559.3 L 626.4,579.6" style="fill:none;fill-rule:evenodd;stroke:#000000;stroke-width:2.0px;stroke-linecap:butt;stroke-linejoin:miter;stroke-opacity:1"/>
<path class="bond-11 atom-11 atom-12" d="M 626.4,579.6 L 641.1,571.1" style="fill:none;fill-rule:evenodd;stroke:#000000;stroke-width:2.0px;stroke-linecap:butt;stroke-linejoin:miter;stroke-opacity:1"/>
<path class="bond-11 atom-11 atom-12" d="M 641.1,571.1 L 655.8,562.6" style="fill:none;fill-rule:evenodd;stroke:#0000FF;stroke-width:2.0px;stroke-linecap:butt;stroke-linejoin:miter;stroke-opacity:1"/>
<path class="bond-12 atom-11 atom-2" d="M 626.4,579.6 L 626.4,620.2" style="fill:none;fill-rule:evenodd;stroke:#000000;stroke-width:2.0px;stroke-linecap:butt;stroke-linejoin:miter;stroke-opacity:1"/>
<path d="M 625.6,620.6 L 626.4,620.2 L 626.4,618.2" style="fill:none;stroke:#000000;stroke-width:2.0px;stroke-linecap:butt;stroke-linejoin:miter;stroke-opacity:1;"/>
<path d="M 522.6,639.5 L 520.9,640.5 L 520.9,641.3" style="fill:none;stroke:#000000;stroke-width:2.0px;stroke-linecap:butt;stroke-linejoin:miter;stroke-opacity:1;"/>
<path d="M 556.0,581.6 L 556.0,579.6 L 557.8,578.6" style="fill:none;stroke:#000000;stroke-width:2.0px;stroke-linecap:butt;stroke-linejoin:miter;stroke-opacity:1;"/>
<path d="M 589.4,560.3 L 591.2,559.3 L 592.9,560.3" style="fill:none;stroke:#000000;stroke-width:2.0px;stroke-linecap:butt;stroke-linejoin:miter;stroke-opacity:1;"/>
<path class="atom-0" d="M 659.3 679.8 L 661.0 678.1 L 658.8 677.6 L 659.1 676.5 L 661.2 677.5 L 660.9 675.3 L 662.1 675.3 L 661.8 677.5 L 663.9 676.5 L 664.2 677.6 L 662.0 678.1 L 663.6 679.8 L 662.6 680.5 L 661.5 678.4 L 660.3 680.5 L 659.3 679.8 " fill="#191919"/>
<path class="atom-1" d="M 656.2 640.5 Q 656.2 637.8, 657.6 636.2 Q 659.0 634.7, 661.5 634.7 Q 664.1 634.7, 665.4 636.2 Q 666.8 637.8, 666.8 640.5 Q 666.8 643.3, 665.4 644.9 Q 664.0 646.5, 661.5 646.5 Q 659.0 646.5, 657.6 644.9 Q 656.2 643.4, 656.2 640.5 M 661.5 645.2 Q 663.3 645.2, 664.2 644.0 Q 665.2 642.8, 665.2 640.5 Q 665.2 638.3, 664.2 637.1 Q 663.3 636.0, 661.5 636.0 Q 659.8 636.0, 658.8 637.1 Q 657.9 638.3, 657.9 640.5 Q 657.9 642.9, 658.8 644.0 Q 659.8 645.2, 661.5 645.2 " fill="#FF0000"/>
<path class="atom-3" d="M 585.9 640.5 Q 585.9 637.8, 587.3 636.2 Q 588.6 634.7, 591.2 634.7 Q 593.7 634.7, 595.1 636.2 Q 596.5 637.8, 596.5 640.5 Q 596.5 643.3, 595.1 644.9 Q 593.7 646.5, 591.2 646.5 Q 588.7 646.5, 587.3 644.9 Q 585.9 643.4, 585.9 640.5 M 591.2 645.2 Q 592.9 645.2, 593.9 644.0 Q 594.8 642.8, 594.8 640.5 Q 594.8 638.3, 593.9 637.1 Q 592.9 636.0, 591.2 636.0 Q 589.4 636.0, 588.5 637.1 Q 587.5 638.3, 587.5 640.5 Q 587.5 642.9, 588.5 644.0 Q 589.4 645.2, 591.2 645.2 " fill="#FF0000"/>
<path class="atom-6" d="M 515.6 681.1 Q 515.6 678.4, 517.0 676.8 Q 518.3 675.3, 520.9 675.3 Q 523.4 675.3, 524.8 676.8 Q 526.2 678.4, 526.2 681.1 Q 526.2 683.9, 524.8 685.5 Q 523.4 687.1, 520.9 687.1 Q 518.3 687.1, 517.0 685.5 Q 515.6 683.9, 515.6 681.1 M 520.9 685.8 Q 522.6 685.8, 523.6 684.6 Q 524.5 683.4, 524.5 681.1 Q 524.5 678.9, 523.6 677.7 Q 522.6 676.6, 520.9 676.6 Q 519.1 676.6, 518.2 677.7 Q 517.2 678.9, 517.2 681.1 Q 517.2 683.5, 518.2 684.6 Q 519.1 685.8, 520.9 685.8 " fill="#FF0000"/>
<path class="atom-6" d="M 527.9 675.4 L 529.5 675.4 L 529.5 680.3 L 535.4 680.3 L 535.4 675.4 L 536.9 675.4 L 536.9 686.9 L 535.4 686.9 L 535.4 681.6 L 529.5 681.6 L 529.5 686.9 L 527.9 686.9 L 527.9 675.4 " fill="#FF0000"/>
<path class="atom-8" d="M 518.7 558.0 L 520.4 556.3 L 518.2 555.9 L 518.5 554.7 L 520.6 555.7 L 520.3 553.5 L 521.5 553.5 L 521.1 555.7 L 523.2 554.7 L 523.6 555.9 L 521.3 556.3 L 522.9 558.0 L 522.0 558.7 L 520.8 556.6 L 519.7 558.7 L 518.7 558.0 " fill="#191919"/>
<path class="atom-10" d="M 585.9 518.7 Q 585.9 516.0, 587.3 514.4 Q 588.6 512.9, 591.2 512.9 Q 593.7 512.9, 595.1 514.4 Q 596.5 516.0, 596.5 518.7 Q 596.5 521.5, 595.1 523.1 Q 593.7 524.7, 591.2 524.7 Q 588.7 524.7, 587.3 523.1 Q 585.9 521.6, 585.9 518.7 M 591.2 523.4 Q 592.9 523.4, 593.9 522.2 Q 594.8 521.1, 594.8 518.7 Q 594.8 516.5, 593.9 515.4 Q 592.9 514.2, 591.2 514.2 Q 589.4 514.2, 588.5 515.3 Q 587.5 516.5, 587.5 518.7 Q 587.5 521.1, 588.5 522.2 Q 589.4 523.4, 591.2 523.4 " fill="#FF0000"/>
<path class="atom-10" d="M 598.3 513.0 L 599.8 513.0 L 599.8 517.9 L 605.7 517.9 L 605.7 513.0 L 607.3 513.0 L 607.3 524.5 L 605.7 524.5 L 605.7 519.2 L 599.8 519.2 L 599.8 524.5 L 598.3 524.5 L 598.3 513.0 " fill="#FF0000"/>
<path class="atom-12" d="M 659.0 553.6 L 662.7 559.7 Q 663.1 560.3, 663.7 561.3 Q 664.3 562.4, 664.3 562.5 L 664.3 553.6 L 665.9 553.6 L 665.9 565.1 L 664.3 565.1 L 660.3 558.4 Q 659.8 557.6, 659.3 556.7 Q 658.8 555.8, 658.6 555.6 L 658.6 565.1 L 657.1 565.1 L 657.1 553.6 L 659.0 553.6 " fill="#0000FF"/>
<path class="atom-12" d="M 668.1 553.6 L 669.6 553.6 L 669.6 558.5 L 675.5 558.5 L 675.5 553.6 L 677.1 553.6 L 677.1 565.1 L 675.5 565.1 L 675.5 559.8 L 669.6 559.8 L 669.6 565.1 L 668.1 565.1 L 668.1 553.6 " fill="#0000FF"/>
<path class="atom-12" d="M 679.3 564.7 Q 679.6 563.9, 680.3 563.5 Q 680.9 563.1, 681.8 563.1 Q 683.0 563.1, 683.6 563.8 Q 684.3 564.4, 684.3 565.5 Q 684.3 566.6, 683.4 567.7 Q 682.6 568.7, 680.9 570.0 L 684.4 570.0 L 684.4 570.8 L 679.3 570.8 L 679.3 570.1 Q 680.7 569.1, 681.5 568.3 Q 682.4 567.6, 682.8 566.9 Q 683.2 566.2, 683.2 565.5 Q 683.2 564.8, 682.8 564.4 Q 682.5 564.0, 681.8 564.0 Q 681.2 564.0, 680.8 564.2 Q 680.4 564.5, 680.1 565.0 L 679.3 564.7 " fill="#0000FF"/>
</svg>