<svg xmlns="http://www.w3.org/2000/svg" xmlns:rdkit="http://www.rdkit.org/xml" xmlns:xlink="http://www.w3.org/1999/xlink" version="1.1" baseProfile="full" xml:space="preserve" width="1200px" height="800px" viewBox="0 0 1200 800">
<!-- END OF HEADER -->
<rect style="opacity:1.0;fill:#FFFFFF;stroke:none" width="1200.0" height="800.0" x="0.0" y="0.0"> </rect>
<path class="bond-0 atom-0 atom-1" d="M 410.9,368.2 L 413.0,344.9" style="fill:none;fill-rule:evenodd;stroke:#191919;stroke-width:2.0px;stroke-linecap:butt;stroke-linejoin:miter;stroke-opacity:1"/>
<path class="bond-0 atom-0 atom-1" d="M 413.0,344.9 L 415.1,321.7" style="fill:none;fill-rule:evenodd;stroke:#FF0000;stroke-width:2.0px;stroke-linecap:butt;stroke-linejoin:miter;stroke-opacity:1"/>
<path class="bond-1 atom-2 atom-1" d="M 359.4,268.9 L 359.8,268.3" style="fill:none;fill-rule:evenodd;stroke:#000000;stroke-width:1.0px;stroke-linecap:butt;stroke-linejoin:miter;stroke-opacity:1"/>
<path class="bond-1 atom-2 atom-1" d="M 362.0,271.2 L 362.8,270.0" style="fill:none;fill-rule:evenodd;stroke:#000000;stroke-width:1.0px;stroke-linecap:butt;stroke-linejoin:miter;stroke-opacity:1"/>
<path class="bond-1 atom-2 atom-1" d="M 364.6,273.5 L 365.8,271.7" style="fill:none;fill-rule:evenodd;stroke:#000000;stroke-width:1.0px;stroke-linecap:butt;stroke-linejoin:miter;stroke-opacity:1"/>
<path class="bond-1 atom-2 atom-1" d="M 367.2,275.7 L 368.9,273.4" style="fill:none;fill-rule:evenodd;stroke:#000000;stroke-width:1.0px;stroke-linecap:butt;stroke-linejoin:miter;stroke-opacity:1"/>
<path class="bond-1 atom-2 atom-1" d="M 369.8,278.0 L 371.9,275.1" style="fill:none;fill-rule:evenodd;stroke:#000000;stroke-width:1.0px;stroke-linecap:butt;stroke-linejoin:miter;stroke-opacity:1"/>
<path class="bond-1 atom-2 atom-1" d="M 372.4,280.3 L 375.0,276.8" style="fill:none;fill-rule:evenodd;stroke:#000000;stroke-width:1.0px;stroke-linecap:butt;stroke-linejoin:miter;stroke-opacity:1"/>
<path class="bond-1 atom-2 atom-1" d="M 375.1,282.6 L 378.0,278.4" style="fill:none;fill-rule:evenodd;stroke:#000000;stroke-width:1.0px;stroke-linecap:butt;stroke-linejoin:miter;stroke-opacity:1"/>
<path class="bond-1 atom-2 atom-1" d="M 377.7,284.9 L 381.0,280.1" style="fill:none;fill-rule:evenodd;stroke:#000000;stroke-width:1.0px;stroke-linecap:butt;stroke-linejoin:miter;stroke-opacity:1"/>
<path class="bond-1 atom-2 atom-1" d="M 380.3,287.2 L 384.1,281.8" style="fill:none;fill-rule:evenodd;stroke:#FF0000;stroke-width:1.0px;stroke-linecap:butt;stroke-linejoin:miter;stroke-opacity:1"/>
<path class="bond-1 atom-2 atom-1" d="M 382.9,289.5 L 387.1,283.5" style="fill:none;fill-rule:evenodd;stroke:#FF0000;stroke-width:1.0px;stroke-linecap:butt;stroke-linejoin:miter;stroke-opacity:1"/>
<path class="bond-1 atom-2 atom-1" d="M 385.5,291.8 L 390.1,285.2" style="fill:none;fill-rule:evenodd;stroke:#FF0000;stroke-width:1.0px;stroke-linecap:butt;stroke-linejoin:miter;stroke-opacity:1"/>
<path class="bond-1 atom-2 atom-1" d="M 388.2,294.1 L 393.2,286.9" style="fill:none;fill-rule:evenodd;stroke:#FF0000;stroke-width:1.0px;stroke-linecap:butt;stroke-linejoin:miter;stroke-opacity:1"/>
<path class="bond-1 atom-2 atom-1" d="M 390.8,296.3 L 396.2,288.6" style="fill:none;fill-rule:evenodd;stroke:#FF0000;stroke-width:1.0px;stroke-linecap:butt;stroke-linejoin:miter;stroke-opacity:1"/>
<path class="bond-1 atom-2 atom-1" d="M 393.4,298.6 L 399.3,290.3" style="fill:none;fill-rule:evenodd;stroke:#FF0000;stroke-width:1.0px;stroke-linecap:butt;stroke-linejoin:miter;stroke-opacity:1"/>
<path class="bond-1 atom-2 atom-1" d="M 396.0,300.9 L 402.3,292.0" style="fill:none;fill-rule:evenodd;stroke:#FF0000;stroke-width:1.0px;stroke-linecap:butt;stroke-linejoin:miter;stroke-opacity:1"/>
<path class="bond-2 atom-2 atom-3" d="M 356.7,266.6 L 329.6,279.1" style="fill:none;fill-rule:evenodd;stroke:#000000;stroke-width:2.0px;stroke-linecap:butt;stroke-linejoin:miter;stroke-opacity:1"/>
<path class="bond-2 atom-2 atom-3" d="M 329.6,279.1 L 302.5,291.7" style="fill:none;fill-rule:evenodd;stroke:#FF0000;stroke-width:2.0px;stroke-linecap:butt;stroke-linejoin:miter;stroke-opacity:1"/>
<path class="bond-3 atom-3 atom-4" d="M 278.8,288.8 L 254.9,272.1" style="fill:none;fill-rule:evenodd;stroke:#FF0000;stroke-width:2.0px;stroke-linecap:butt;stroke-linejoin:miter;stroke-opacity:1"/>
<path class="bond-3 atom-3 atom-4" d="M 254.9,272.1 L 231.1,255.3" style="fill:none;fill-rule:evenodd;stroke:#000000;stroke-width:2.0px;stroke-linecap:butt;stroke-linejoin:miter;stroke-opacity:1"/>
<path class="bond-4 atom-4 atom-5" d="M 231.1,255.3 L 165.0,285.9" style="fill:none;fill-rule:evenodd;stroke:#000000;stroke-width:2.0px;stroke-linecap:butt;stroke-linejoin:miter;stroke-opacity:1"/>
<path class="bond-5 atom-5 atom-6" d="M 165.0,285.9 L 162.3,315.7" style="fill:none;fill-rule:evenodd;stroke:#000000;stroke-width:2.0px;stroke-linecap:butt;stroke-linejoin:miter;stroke-opacity:1"/>
<path class="bond-5 atom-5 atom-6" d="M 162.3,315.7 L 159.7,345.6" style="fill:none;fill-rule:evenodd;stroke:#FF0000;stroke-width:2.0px;stroke-linecap:butt;stroke-linejoin:miter;stroke-opacity:1"/>
<path class="bond-6 atom-4 atom-7" d="M 231.1,255.3 L 237.6,182.8" style="fill:none;fill-rule:evenodd;stroke:#000000;stroke-width:2.0px;stroke-linecap:butt;stroke-linejoin:miter;stroke-opacity:1"/>
<path class="bond-7 atom-7 atom-8" d="M 234.6,181.0 L 234.9,180.5" style="fill:none;fill-rule:evenodd;stroke:#000000;stroke-width:1.0px;stroke-linecap:butt;stroke-linejoin:miter;stroke-opacity:1"/>
<path class="bond-7 atom-7 atom-8" d="M 231.6,179.2 L 232.3,178.3" style="fill:none;fill-rule:evenodd;stroke:#000000;stroke-width:1.0px;stroke-linecap:butt;stroke-linejoin:miter;stroke-opacity:1"/>
<path class="bond-7 atom-7 atom-8" d="M 228.6,177.4 L 229.6,176.0" style="fill:none;fill-rule:evenodd;stroke:#000000;stroke-width:1.0px;stroke-linecap:butt;stroke-linejoin:miter;stroke-opacity:1"/>
<path class="bond-7 atom-7 atom-8" d="M 225.6,175.7 L 226.9,173.8" style="fill:none;fill-rule:evenodd;stroke:#000000;stroke-width:1.0px;stroke-linecap:butt;stroke-linejoin:miter;stroke-opacity:1"/>
<path class="bond-7 atom-7 atom-8" d="M 222.5,173.9 L 224.2,171.5" style="fill:none;fill-rule:evenodd;stroke:#000000;stroke-width:1.0px;stroke-linecap:butt;stroke-linejoin:miter;stroke-opacity:1"/>
<path class="bond-7 atom-7 atom-8" d="M 219.5,172.1 L 221.5,169.3" style="fill:none;fill-rule:evenodd;stroke:#000000;stroke-width:1.0px;stroke-linecap:butt;stroke-linejoin:miter;stroke-opacity:1"/>
<path class="bond-7 atom-7 atom-8" d="M 216.5,170.3 L 218.8,167.0" style="fill:none;fill-rule:evenodd;stroke:#000000;stroke-width:1.0px;stroke-linecap:butt;stroke-linejoin:miter;stroke-opacity:1"/>
<path class="bond-7 atom-7 atom-8" d="M 213.5,168.6 L 216.1,164.8" style="fill:none;fill-rule:evenodd;stroke:#000000;stroke-width:1.0px;stroke-linecap:butt;stroke-linejoin:miter;stroke-opacity:1"/>
<path class="bond-7 atom-7 atom-8" d="M 210.5,166.8 L 213.4,162.6" style="fill:none;fill-rule:evenodd;stroke:#000000;stroke-width:1.0px;stroke-linecap:butt;stroke-linejoin:miter;stroke-opacity:1"/>
<path class="bond-7 atom-7 atom-8" d="M 207.4,165.0 L 210.8,160.3" style="fill:none;fill-rule:evenodd;stroke:#191919;stroke-width:1.0px;stroke-linecap:butt;stroke-linejoin:miter;stroke-opacity:1"/>
<path class="bond-7 atom-7 atom-8" d="M 204.4,163.2 L 208.1,158.1" style="fill:none;fill-rule:evenodd;stroke:#191919;stroke-width:1.0px;stroke-linecap:butt;stroke-linejoin:miter;stroke-opacity:1"/>
<path class="bond-7 atom-7 atom-8" d="M 201.4,161.5 L 205.4,155.8" style="fill:none;fill-rule:evenodd;stroke:#191919;stroke-width:1.0px;stroke-linecap:butt;stroke-linejoin:miter;stroke-opacity:1"/>
<path class="bond-7 atom-7 atom-8" d="M 198.4,159.7 L 202.7,153.6" style="fill:none;fill-rule:evenodd;stroke:#191919;stroke-width:1.0px;stroke-linecap:butt;stroke-linejoin:miter;stroke-opacity:1"/>
<path class="bond-7 atom-7 atom-8" d="M 195.4,157.9 L 200.0,151.3" style="fill:none;fill-rule:evenodd;stroke:#191919;stroke-width:1.0px;stroke-linecap:butt;stroke-linejoin:miter;stroke-opacity:1"/>
<path class="bond-7 atom-7 atom-8" d="M 192.4,156.1 L 197.3,149.1" style="fill:none;fill-rule:evenodd;stroke:#191919;stroke-width:1.0px;stroke-linecap:butt;stroke-linejoin:miter;stroke-opacity:1"/>
<path class="bond-7 atom-7 atom-8" d="M 189.3,154.4 L 194.6,146.9" style="fill:none;fill-rule:evenodd;stroke:#191919;stroke-width:1.0px;stroke-linecap:butt;stroke-linejoin:miter;stroke-opacity:1"/>
<path class="bond-7 atom-7 atom-8" d="M 186.3,152.6 L 191.9,144.6" style="fill:none;fill-rule:evenodd;stroke:#191919;stroke-width:1.0px;stroke-linecap:butt;stroke-linejoin:miter;stroke-opacity:1"/>
<path class="bond-7 atom-7 atom-8" d="M 183.3,150.8 L 189.3,142.4" style="fill:none;fill-rule:evenodd;stroke:#191919;stroke-width:1.0px;stroke-linecap:butt;stroke-linejoin:miter;stroke-opacity:1"/>
<path class="bond-7 atom-7 atom-8" d="M 180.3,149.1 L 186.6,140.1" style="fill:none;fill-rule:evenodd;stroke:#191919;stroke-width:1.0px;stroke-linecap:butt;stroke-linejoin:miter;stroke-opacity:1"/>
<path class="bond-8 atom-7 atom-9" d="M 237.6,182.8 L 303.7,152.1" style="fill:none;fill-rule:evenodd;stroke:#000000;stroke-width:2.0px;stroke-linecap:butt;stroke-linejoin:miter;stroke-opacity:1"/>
<path class="bond-9 atom-9 atom-10" d="M 303.7,148.5 L 304.4,148.6" style="fill:none;fill-rule:evenodd;stroke:#000000;stroke-width:1.0px;stroke-linecap:butt;stroke-linejoin:miter;stroke-opacity:1"/>
<path class="bond-9 atom-9 atom-10" d="M 303.7,145.0 L 305.0,145.1" style="fill:none;fill-rule:evenodd;stroke:#000000;stroke-width:1.0px;stroke-linecap:butt;stroke-linejoin:miter;stroke-opacity:1"/>
<path class="bond-9 atom-9 atom-10" d="M 303.7,141.4 L 305.7,141.5" style="fill:none;fill-rule:evenodd;stroke:#000000;stroke-width:1.0px;stroke-linecap:butt;stroke-linejoin:miter;stroke-opacity:1"/>
<path class="bond-9 atom-9 atom-10" d="M 303.6,137.8 L 306.4,138.0" style="fill:none;fill-rule:evenodd;stroke:#000000;stroke-width:1.0px;stroke-linecap:butt;stroke-linejoin:miter;stroke-opacity:1"/>
<path class="bond-9 atom-9 atom-10" d="M 303.6,134.2 L 307.0,134.5" style="fill:none;fill-rule:evenodd;stroke:#000000;stroke-width:1.0px;stroke-linecap:butt;stroke-linejoin:miter;stroke-opacity:1"/>
<path class="bond-9 atom-9 atom-10" d="M 303.6,130.6 L 307.7,131.0" style="fill:none;fill-rule:evenodd;stroke:#000000;stroke-width:1.0px;stroke-linecap:butt;stroke-linejoin:miter;stroke-opacity:1"/>
<path class="bond-9 atom-9 atom-10" d="M 303.6,127.0 L 308.3,127.4" style="fill:none;fill-rule:evenodd;stroke:#000000;stroke-width:1.0px;stroke-linecap:butt;stroke-linejoin:miter;stroke-opacity:1"/>
<path class="bond-9 atom-9 atom-10" d="M 303.6,123.4 L 309.0,123.9" style="fill:none;fill-rule:evenodd;stroke:#000000;stroke-width:1.0px;stroke-linecap:butt;stroke-linejoin:miter;stroke-opacity:1"/>
<path class="bond-9 atom-9 atom-10" d="M 303.5,119.8 L 309.7,120.4" style="fill:none;fill-rule:evenodd;stroke:#FF0000;stroke-width:1.0px;stroke-linecap:butt;stroke-linejoin:miter;stroke-opacity:1"/>
<path class="bond-9 atom-9 atom-10" d="M 303.5,116.2 L 310.3,116.8" style="fill:none;fill-rule:evenodd;stroke:#FF0000;stroke-width:1.0px;stroke-linecap:butt;stroke-linejoin:miter;stroke-opacity:1"/>
<path class="bond-9 atom-9 atom-10" d="M 303.5,112.6 L 311.0,113.3" style="fill:none;fill-rule:evenodd;stroke:#FF0000;stroke-width:1.0px;stroke-linecap:butt;stroke-linejoin:miter;stroke-opacity:1"/>
<path class="bond-9 atom-9 atom-10" d="M 303.5,109.0 L 311.6,109.8" style="fill:none;fill-rule:evenodd;stroke:#FF0000;stroke-width:1.0px;stroke-linecap:butt;stroke-linejoin:miter;stroke-opacity:1"/>
<path class="bond-9 atom-9 atom-10" d="M 303.5,105.4 L 312.3,106.2" style="fill:none;fill-rule:evenodd;stroke:#FF0000;stroke-width:1.0px;stroke-linecap:butt;stroke-linejoin:miter;stroke-opacity:1"/>
<path class="bond-9 atom-9 atom-10" d="M 303.4,101.9 L 313.0,102.7" style="fill:none;fill-rule:evenodd;stroke:#FF0000;stroke-width:1.0px;stroke-linecap:butt;stroke-linejoin:miter;stroke-opacity:1"/>
<path class="bond-9 atom-9 atom-10" d="M 303.4,98.3 L 313.6,99.2" style="fill:none;fill-rule:evenodd;stroke:#FF0000;stroke-width:1.0px;stroke-linecap:butt;stroke-linejoin:miter;stroke-opacity:1"/>
<path class="bond-9 atom-9 atom-10" d="M 303.4,94.7 L 314.3,95.7" style="fill:none;fill-rule:evenodd;stroke:#FF0000;stroke-width:1.0px;stroke-linecap:butt;stroke-linejoin:miter;stroke-opacity:1"/>
<path class="bond-10 atom-9 atom-11" d="M 303.7,152.1 L 363.3,194.1" style="fill:none;fill-rule:evenodd;stroke:#000000;stroke-width:2.0px;stroke-linecap:butt;stroke-linejoin:miter;stroke-opacity:1"/>
<path class="bond-11 atom-11 atom-12" d="M 363.3,194.1 L 391.2,181.1" style="fill:none;fill-rule:evenodd;stroke:#000000;stroke-width:2.0px;stroke-linecap:butt;stroke-linejoin:miter;stroke-opacity:1"/>
<path class="bond-11 atom-11 atom-12" d="M 391.2,181.1 L 419.1,168.2" style="fill:none;fill-rule:evenodd;stroke:#0000FF;stroke-width:2.0px;stroke-linecap:butt;stroke-linejoin:miter;stroke-opacity:1"/>
<path class="bond-12 atom-12 atom-13" d="M 439.6,170.6 L 464.2,188.0" style="fill:none;fill-rule:evenodd;stroke:#0000FF;stroke-width:2.0px;stroke-linecap:butt;stroke-linejoin:miter;stroke-opacity:1"/>
<path class="bond-12 atom-12 atom-13" d="M 464.2,188.0 L 488.9,205.4" style="fill:none;fill-rule:evenodd;stroke:#000000;stroke-width:2.0px;stroke-linecap:butt;stroke-linejoin:miter;stroke-opacity:1"/>
<path class="bond-13 atom-13 atom-14" d="M 488.9,205.4 L 555.0,174.8" style="fill:none;fill-rule:evenodd;stroke:#000000;stroke-width:2.0px;stroke-linecap:butt;stroke-linejoin:miter;stroke-opacity:1"/>
<path class="bond-14 atom-14 atom-15" d="M 555.0,174.8 L 614.5,216.7" style="fill:none;fill-rule:evenodd;stroke:#000000;stroke-width:2.0px;stroke-linecap:butt;stroke-linejoin:miter;stroke-opacity:1"/>
<path class="bond-15 atom-15 atom-16" d="M 614.5,216.7 L 680.6,186.1" style="fill:none;fill-rule:evenodd;stroke:#000000;stroke-width:2.0px;stroke-linecap:butt;stroke-linejoin:miter;stroke-opacity:1"/>
<path class="bond-16 atom-16 atom-17" d="M 685.8,189.7 L 688.6,158.4" style="fill:none;fill-rule:evenodd;stroke:#000000;stroke-width:2.0px;stroke-linecap:butt;stroke-linejoin:miter;stroke-opacity:1"/>
<path class="bond-16 atom-16 atom-17" d="M 688.6,158.4 L 691.4,127.2" style="fill:none;fill-rule:evenodd;stroke:#FF0000;stroke-width:2.0px;stroke-linecap:butt;stroke-linejoin:miter;stroke-opacity:1"/>
<path class="bond-16 atom-16 atom-17" d="M 674.9,188.7 L 677.7,157.5" style="fill:none;fill-rule:evenodd;stroke:#000000;stroke-width:2.0px;stroke-linecap:butt;stroke-linejoin:miter;stroke-opacity:1"/>
<path class="bond-16 atom-16 atom-17" d="M 677.7,157.5 L 680.5,126.2" style="fill:none;fill-rule:evenodd;stroke:#FF0000;stroke-width:2.0px;stroke-linecap:butt;stroke-linejoin:miter;stroke-opacity:1"/>
<path class="bond-17 atom-16 atom-18" d="M 680.6,186.1 L 704.4,202.9" style="fill:none;fill-rule:evenodd;stroke:#000000;stroke-width:2.0px;stroke-linecap:butt;stroke-linejoin:miter;stroke-opacity:1"/>
<path class="bond-17 atom-16 atom-18" d="M 704.4,202.9 L 728.3,219.6" style="fill:none;fill-rule:evenodd;stroke:#FF0000;stroke-width:2.0px;stroke-linecap:butt;stroke-linejoin:miter;stroke-opacity:1"/>
<path class="bond-18 atom-18 atom-19" d="M 752.0,222.5 L 779.1,209.9" style="fill:none;fill-rule:evenodd;stroke:#FF0000;stroke-width:2.0px;stroke-linecap:butt;stroke-linejoin:miter;stroke-opacity:1"/>
<path class="bond-18 atom-18 atom-19" d="M 779.1,209.9 L 806.2,197.4" style="fill:none;fill-rule:evenodd;stroke:#000000;stroke-width:2.0px;stroke-linecap:butt;stroke-linejoin:miter;stroke-opacity:1"/>
<path class="bond-19 atom-19 atom-20" d="M 806.2,197.4 L 865.8,239.3" style="fill:none;fill-rule:evenodd;stroke:#000000;stroke-width:2.0px;stroke-linecap:butt;stroke-linejoin:miter;stroke-opacity:1"/>
<path class="bond-20 atom-20 atom-21" d="M 865.8,239.3 L 931.9,208.7" style="fill:none;fill-rule:evenodd;stroke:#000000;stroke-width:2.0px;stroke-linecap:butt;stroke-linejoin:miter;stroke-opacity:1"/>
<path class="bond-21 atom-21 atom-22" d="M 931.9,208.7 L 956.5,226.1" style="fill:none;fill-rule:evenodd;stroke:#000000;stroke-width:2.0px;stroke-linecap:butt;stroke-linejoin:miter;stroke-opacity:1"/>
<path class="bond-21 atom-21 atom-22" d="M 956.5,226.1 L 981.2,243.4" style="fill:none;fill-rule:evenodd;stroke:#0000FF;stroke-width:2.0px;stroke-linecap:butt;stroke-linejoin:miter;stroke-opacity:1"/>
<path class="bond-22 atom-22 atom-23" d="M 1000.4,237.9 L 1016.9,214.5" style="fill:none;fill-rule:evenodd;stroke:#0000FF;stroke-width:2.0px;stroke-linecap:butt;stroke-linejoin:miter;stroke-opacity:1"/>
<path class="bond-22 atom-22 atom-23" d="M 1016.9,214.5 L 1033.3,191.1" style="fill:none;fill-rule:evenodd;stroke:#000000;stroke-width:2.0px;stroke-linecap:butt;stroke-linejoin:miter;stroke-opacity:1"/>
<path class="bond-23 atom-22 atom-24" d="M 982.5,263.3 L 966.0,286.7" style="fill:none;fill-rule:evenodd;stroke:#0000FF;stroke-width:2.0px;stroke-linecap:butt;stroke-linejoin:miter;stroke-opacity:1"/>
<path class="bond-23 atom-22 atom-24" d="M 966.0,286.7 L 949.5,310.2" style="fill:none;fill-rule:evenodd;stroke:#000000;stroke-width:2.0px;stroke-linecap:butt;stroke-linejoin:miter;stroke-opacity:1"/>
<path class="bond-24 atom-22 atom-25" d="M 1001.6,257.8 L 1026.3,275.2" style="fill:none;fill-rule:evenodd;stroke:#0000FF;stroke-width:2.0px;stroke-linecap:butt;stroke-linejoin:miter;stroke-opacity:1"/>
<path class="bond-24 atom-22 atom-25" d="M 1026.3,275.2 L 1051.0,292.5" style="fill:none;fill-rule:evenodd;stroke:#000000;stroke-width:2.0px;stroke-linecap:butt;stroke-linejoin:miter;stroke-opacity:1"/>
<path class="bond-25 atom-11 atom-2" d="M 363.3,194.1 L 356.7,266.6" style="fill:none;fill-rule:evenodd;stroke:#000000;stroke-width:2.0px;stroke-linecap:butt;stroke-linejoin:miter;stroke-opacity:1"/>
<path d="M 355.4,267.2 L 356.7,266.6 L 357.1,263.0" style="fill:none;stroke:#000000;stroke-width:2.0px;stroke-linecap:butt;stroke-linejoin:miter;stroke-opacity:1;"/>
<path d="M 168.3,284.4 L 165.0,285.9 L 164.9,287.4" style="fill:none;stroke:#000000;stroke-width:2.0px;stroke-linecap:butt;stroke-linejoin:miter;stroke-opacity:1;"/>
<path d="M 237.3,186.4 L 237.6,182.8 L 240.9,181.2" style="fill:none;stroke:#000000;stroke-width:2.0px;stroke-linecap:butt;stroke-linejoin:miter;stroke-opacity:1;"/>
<path d="M 300.4,153.7 L 303.7,152.1 L 306.7,154.2" style="fill:none;stroke:#000000;stroke-width:2.0px;stroke-linecap:butt;stroke-linejoin:miter;stroke-opacity:1;"/>
<path d="M 487.7,204.5 L 488.9,205.4 L 492.2,203.8" style="fill:none;stroke:#000000;stroke-width:2.0px;stroke-linecap:butt;stroke-linejoin:miter;stroke-opacity:1;"/>
<path d="M 551.7,176.3 L 555.0,174.8 L 558.0,176.9" style="fill:none;stroke:#000000;stroke-width:2.0px;stroke-linecap:butt;stroke-linejoin:miter;stroke-opacity:1;"/>
<path d="M 611.6,214.6 L 614.5,216.7 L 617.8,215.2" style="fill:none;stroke:#000000;stroke-width:2.0px;stroke-linecap:butt;stroke-linejoin:miter;stroke-opacity:1;"/>
<path d="M 677.3,187.6 L 680.6,186.1 L 681.8,186.9" style="fill:none;stroke:#000000;stroke-width:2.0px;stroke-linecap:butt;stroke-linejoin:miter;stroke-opacity:1;"/>
<path d="M 804.9,198.0 L 806.2,197.4 L 809.2,199.5" style="fill:none;stroke:#000000;stroke-width:2.0px;stroke-linecap:butt;stroke-linejoin:miter;stroke-opacity:1;"/>
<path d="M 862.8,237.2 L 865.8,239.3 L 869.1,237.8" style="fill:none;stroke:#000000;stroke-width:2.0px;stroke-linecap:butt;stroke-linejoin:miter;stroke-opacity:1;"/>
<path d="M 928.6,210.2 L 931.9,208.7 L 933.1,209.6" style="fill:none;stroke:#000000;stroke-width:2.0px;stroke-linecap:butt;stroke-linejoin:miter;stroke-opacity:1;"/>
<path class="atom-0" d="M 405.9 378.7 L 408.9 375.7 L 404.9 374.8 L 405.5 372.8 L 409.2 374.6 L 408.7 370.6 L 410.8 370.6 L 410.2 374.6 L 414.0 372.9 L 414.6 374.8 L 410.6 375.6 L 413.5 378.7 L 411.7 380.0 L 409.7 376.2 L 407.6 380.0 L 405.9 378.7 " fill="#191919"/>
<path class="atom-1" d="M 406.8 308.6 Q 406.8 303.6, 409.3 300.9 Q 411.7 298.1, 416.3 298.1 Q 420.9 298.1, 423.3 300.9 Q 425.8 303.6, 425.8 308.6 Q 425.8 313.6, 423.3 316.4 Q 420.8 319.3, 416.3 319.3 Q 411.7 319.3, 409.3 316.4 Q 406.8 313.6, 406.8 308.6 M 416.3 316.9 Q 419.4 316.9, 421.1 314.8 Q 422.8 312.7, 422.8 308.6 Q 422.8 304.5, 421.1 302.5 Q 419.4 300.4, 416.3 300.4 Q 413.1 300.4, 411.4 302.5 Q 409.7 304.5, 409.7 308.6 Q 409.7 312.7, 411.4 314.8 Q 413.1 316.9, 416.3 316.9 " fill="#FF0000"/>
<path class="atom-3" d="M 281.2 297.3 Q 281.2 292.3, 283.6 289.5 Q 286.1 286.8, 290.7 286.8 Q 295.2 286.8, 297.7 289.5 Q 300.1 292.3, 300.1 297.3 Q 300.1 302.3, 297.6 305.1 Q 295.2 308.0, 290.7 308.0 Q 286.1 308.0, 283.6 305.1 Q 281.2 302.3, 281.2 297.3 M 290.7 305.6 Q 293.8 305.6, 295.5 303.5 Q 297.2 301.4, 297.2 297.3 Q 297.2 293.2, 295.5 291.2 Q 293.8 289.1, 290.7 289.1 Q 287.5 289.1, 285.8 291.1 Q 284.1 293.2, 284.1 297.3 Q 284.1 301.4, 285.8 303.5 Q 287.5 305.6, 290.7 305.6 " fill="#FF0000"/>
<path class="atom-6" d="M 149.0 358.5 Q 149.0 353.5, 151.5 350.8 Q 153.9 348.0, 158.5 348.0 Q 163.1 348.0, 165.5 350.8 Q 168.0 353.5, 168.0 358.5 Q 168.0 363.5, 165.5 366.4 Q 163.0 369.2, 158.5 369.2 Q 154.0 369.2, 151.5 366.4 Q 149.0 363.5, 149.0 358.5 M 158.5 366.8 Q 161.6 366.8, 163.3 364.7 Q 165.0 362.6, 165.0 358.5 Q 165.0 354.4, 163.3 352.4 Q 161.6 350.3, 158.5 350.3 Q 155.3 350.3, 153.6 352.4 Q 151.9 354.4, 151.9 358.5 Q 151.9 362.7, 153.6 364.7 Q 155.3 366.8, 158.5 366.8 " fill="#FF0000"/>
<path class="atom-6" d="M 171.2 348.2 L 174.0 348.2 L 174.0 357.0 L 184.5 357.0 L 184.5 348.2 L 187.3 348.2 L 187.3 368.9 L 184.5 368.9 L 184.5 359.3 L 174.0 359.3 L 174.0 368.9 L 171.2 368.9 L 171.2 348.2 " fill="#FF0000"/>
<path class="atom-8" d="M 174.2 138.5 L 177.2 135.4 L 173.2 134.6 L 173.8 132.6 L 177.5 134.4 L 177.0 130.4 L 179.2 130.3 L 178.6 134.4 L 182.3 132.6 L 183.0 134.6 L 178.9 135.4 L 181.8 138.5 L 180.0 139.8 L 178.0 135.9 L 176.0 139.8 L 174.2 138.5 " fill="#191919"/>
<path class="atom-10" d="M 300.8 79.7 Q 300.8 74.7, 303.2 71.9 Q 305.7 69.2, 310.2 69.2 Q 314.8 69.2, 317.3 71.9 Q 319.7 74.7, 319.7 79.7 Q 319.7 84.7, 317.2 87.5 Q 314.8 90.4, 310.2 90.4 Q 305.7 90.4, 303.2 87.5 Q 300.8 84.7, 300.8 79.7 M 310.2 88.0 Q 313.4 88.0, 315.1 85.9 Q 316.8 83.8, 316.8 79.7 Q 316.8 75.6, 315.1 73.6 Q 313.4 71.5, 310.2 71.5 Q 307.1 71.5, 305.4 73.5 Q 303.7 75.6, 303.7 79.7 Q 303.7 83.8, 305.4 85.9 Q 307.1 88.0, 310.2 88.0 " fill="#FF0000"/>
<path class="atom-10" d="M 322.9 69.4 L 325.7 69.4 L 325.7 78.2 L 336.3 78.2 L 336.3 69.4 L 339.1 69.4 L 339.1 90.0 L 336.3 90.0 L 336.3 80.5 L 325.7 80.5 L 325.7 90.0 L 322.9 90.0 L 322.9 69.4 " fill="#FF0000"/>
<path class="atom-12" d="M 424.8 153.1 L 431.5 164.1 Q 432.2 165.1, 433.3 167.1 Q 434.4 169.0, 434.4 169.2 L 434.4 153.1 L 437.2 153.1 L 437.2 173.8 L 434.3 173.8 L 427.1 161.8 Q 426.2 160.4, 425.3 158.8 Q 424.5 157.2, 424.2 156.7 L 424.2 173.8 L 421.5 173.8 L 421.5 153.1 L 424.8 153.1 " fill="#0000FF"/>
<path class="atom-12" d="M 421.3 130.5 L 424.1 130.5 L 424.1 139.2 L 434.6 139.2 L 434.6 130.5 L 437.4 130.5 L 437.4 151.1 L 434.6 151.1 L 434.6 141.5 L 424.1 141.5 L 424.1 151.1 L 421.3 151.1 L 421.3 130.5 " fill="#0000FF"/>
<path class="atom-17" d="M 677.7 113.6 Q 677.7 108.6, 680.1 105.9 Q 682.6 103.1, 687.1 103.1 Q 691.7 103.1, 694.2 105.9 Q 696.6 108.6, 696.6 113.6 Q 696.6 118.6, 694.1 121.5 Q 691.7 124.3, 687.1 124.3 Q 682.6 124.3, 680.1 121.5 Q 677.7 118.6, 677.7 113.6 M 687.1 122.0 Q 690.3 122.0, 692.0 119.9 Q 693.7 117.7, 693.7 113.6 Q 693.7 109.5, 692.0 107.5 Q 690.3 105.4, 687.1 105.4 Q 684.0 105.4, 682.3 107.5 Q 680.6 109.5, 680.6 113.6 Q 680.6 117.8, 682.3 119.9 Q 684.0 122.0, 687.1 122.0 " fill="#FF0000"/>
<path class="atom-18" d="M 730.7 228.1 Q 730.7 223.1, 733.1 220.3 Q 735.6 217.6, 740.2 217.6 Q 744.7 217.6, 747.2 220.3 Q 749.6 223.1, 749.6 228.1 Q 749.6 233.1, 747.2 235.9 Q 744.7 238.7, 740.2 238.7 Q 735.6 238.7, 733.1 235.9 Q 730.7 233.1, 730.7 228.1 M 740.2 236.4 Q 743.3 236.4, 745.0 234.3 Q 746.7 232.2, 746.7 228.1 Q 746.7 224.0, 745.0 222.0 Q 743.3 219.9, 740.2 219.9 Q 737.0 219.9, 735.3 221.9 Q 733.6 224.0, 733.6 228.1 Q 733.6 232.2, 735.3 234.3 Q 737.0 236.4, 740.2 236.4 " fill="#FF0000"/>
<path class="atom-22" d="M 986.9 240.3 L 993.6 251.2 Q 994.3 252.3, 995.4 254.3 Q 996.4 256.2, 996.5 256.3 L 996.5 240.3 L 999.2 240.3 L 999.2 260.9 L 996.4 260.9 L 989.2 249.0 Q 988.3 247.6, 987.4 246.0 Q 986.5 244.4, 986.3 243.9 L 986.3 260.9 L 983.6 260.9 L 983.6 240.3 L 986.9 240.3 " fill="#0000FF"/>
<path class="atom-22" d="M 1003.1 244.0 L 1006.8 244.0 L 1006.8 240.2 L 1008.4 240.2 L 1008.4 244.0 L 1012.1 244.0 L 1012.1 245.4 L 1008.4 245.4 L 1008.4 249.2 L 1006.8 249.2 L 1006.8 245.4 L 1003.1 245.4 L 1003.1 244.0 " fill="#0000FF"/>
<path class="atom-26" d="M 528.5 31.8 Q 528.5 26.6, 530.9 24.0 Q 533.3 21.3, 537.9 21.3 Q 542.2 21.3, 544.4 24.3 L 542.5 25.8 Q 540.9 23.6, 537.9 23.6 Q 534.8 23.6, 533.1 25.7 Q 531.5 27.8, 531.5 31.8 Q 531.5 35.8, 533.2 37.9 Q 534.9 40.0, 538.2 40.0 Q 540.5 40.0, 543.2 38.7 L 544.0 40.9 Q 542.9 41.6, 541.3 42.0 Q 539.6 42.4, 537.8 42.4 Q 533.3 42.4, 530.9 39.6 Q 528.5 36.9, 528.5 31.8 " fill="#00CC00"/>
<path class="atom-26" d="M 546.6 20.0 L 549.3 20.0 L 549.3 42.1 L 546.6 42.1 L 546.6 20.0 " fill="#00CC00"/>
<path class="atom-26" d="M 552.7 24.2 L 559.8 24.2 L 559.8 25.7 L 552.7 25.7 L 552.7 24.2 " fill="#00CC00"/>
<path class="bond-0 atom-0 atom-1" d="M 710.3,732.6 L 710.3,709.2" style="fill:none;fill-rule:evenodd;stroke:#191919;stroke-width:2.0px;stroke-linecap:butt;stroke-linejoin:miter;stroke-opacity:1"/>
<path class="bond-0 atom-0 atom-1" d="M 710.3,709.2 L 710.3,685.8" style="fill:none;fill-rule:evenodd;stroke:#FF0000;stroke-width:2.0px;stroke-linecap:butt;stroke-linejoin:miter;stroke-opacity:1"/>
<path class="bond-1 atom-2 atom-1" d="M 650.1,638.3 L 650.5,637.7" style="fill:none;fill-rule:evenodd;stroke:#000000;stroke-width:1.0px;stroke-linecap:butt;stroke-linejoin:miter;stroke-opacity:1"/>
<path class="bond-1 atom-2 atom-1" d="M 653.0,640.4 L 653.7,639.1" style="fill:none;fill-rule:evenodd;stroke:#000000;stroke-width:1.0px;stroke-linecap:butt;stroke-linejoin:miter;stroke-opacity:1"/>
<path class="bond-1 atom-2 atom-1" d="M 655.9,642.5 L 657.0,640.6" style="fill:none;fill-rule:evenodd;stroke:#000000;stroke-width:1.0px;stroke-linecap:butt;stroke-linejoin:miter;stroke-opacity:1"/>
<path class="bond-1 atom-2 atom-1" d="M 658.7,644.6 L 660.2,642.0" style="fill:none;fill-rule:evenodd;stroke:#000000;stroke-width:1.0px;stroke-linecap:butt;stroke-linejoin:miter;stroke-opacity:1"/>
<path class="bond-1 atom-2 atom-1" d="M 661.6,646.6 L 663.4,643.5" style="fill:none;fill-rule:evenodd;stroke:#000000;stroke-width:1.0px;stroke-linecap:butt;stroke-linejoin:miter;stroke-opacity:1"/>
<path class="bond-1 atom-2 atom-1" d="M 664.5,648.7 L 666.6,644.9" style="fill:none;fill-rule:evenodd;stroke:#000000;stroke-width:1.0px;stroke-linecap:butt;stroke-linejoin:miter;stroke-opacity:1"/>
<path class="bond-1 atom-2 atom-1" d="M 667.3,650.8 L 669.9,646.4" style="fill:none;fill-rule:evenodd;stroke:#000000;stroke-width:1.0px;stroke-linecap:butt;stroke-linejoin:miter;stroke-opacity:1"/>
<path class="bond-1 atom-2 atom-1" d="M 670.2,652.9 L 673.1,647.8" style="fill:none;fill-rule:evenodd;stroke:#000000;stroke-width:1.0px;stroke-linecap:butt;stroke-linejoin:miter;stroke-opacity:1"/>
<path class="bond-1 atom-2 atom-1" d="M 673.1,654.9 L 676.3,649.3" style="fill:none;fill-rule:evenodd;stroke:#FF0000;stroke-width:1.0px;stroke-linecap:butt;stroke-linejoin:miter;stroke-opacity:1"/>
<path class="bond-1 atom-2 atom-1" d="M 675.9,657.0 L 679.6,650.7" style="fill:none;fill-rule:evenodd;stroke:#FF0000;stroke-width:1.0px;stroke-linecap:butt;stroke-linejoin:miter;stroke-opacity:1"/>
<path class="bond-1 atom-2 atom-1" d="M 678.8,659.1 L 682.8,652.1" style="fill:none;fill-rule:evenodd;stroke:#FF0000;stroke-width:1.0px;stroke-linecap:butt;stroke-linejoin:miter;stroke-opacity:1"/>
<path class="bond-1 atom-2 atom-1" d="M 681.7,661.2 L 686.0,653.6" style="fill:none;fill-rule:evenodd;stroke:#FF0000;stroke-width:1.0px;stroke-linecap:butt;stroke-linejoin:miter;stroke-opacity:1"/>
<path class="bond-1 atom-2 atom-1" d="M 684.5,663.2 L 689.3,655.0" style="fill:none;fill-rule:evenodd;stroke:#FF0000;stroke-width:1.0px;stroke-linecap:butt;stroke-linejoin:miter;stroke-opacity:1"/>
<path class="bond-1 atom-2 atom-1" d="M 687.4,665.3 L 692.5,656.5" style="fill:none;fill-rule:evenodd;stroke:#FF0000;stroke-width:1.0px;stroke-linecap:butt;stroke-linejoin:miter;stroke-opacity:1"/>
<path class="bond-1 atom-2 atom-1" d="M 690.3,667.4 L 695.7,657.9" style="fill:none;fill-rule:evenodd;stroke:#FF0000;stroke-width:1.0px;stroke-linecap:butt;stroke-linejoin:miter;stroke-opacity:1"/>
<path class="bond-2 atom-2 atom-3" d="M 647.3,636.3 L 621.7,651.0" style="fill:none;fill-rule:evenodd;stroke:#000000;stroke-width:2.0px;stroke-linecap:butt;stroke-linejoin:miter;stroke-opacity:1"/>
<path class="bond-2 atom-2 atom-3" d="M 621.7,651.0 L 596.1,665.8" style="fill:none;fill-rule:evenodd;stroke:#FF0000;stroke-width:2.0px;stroke-linecap:butt;stroke-linejoin:miter;stroke-opacity:1"/>
<path class="bond-3 atom-3 atom-4" d="M 572.3,665.8 L 546.7,651.0" style="fill:none;fill-rule:evenodd;stroke:#FF0000;stroke-width:2.0px;stroke-linecap:butt;stroke-linejoin:miter;stroke-opacity:1"/>
<path class="bond-3 atom-3 atom-4" d="M 546.7,651.0 L 521.1,636.3" style="fill:none;fill-rule:evenodd;stroke:#000000;stroke-width:2.0px;stroke-linecap:butt;stroke-linejoin:miter;stroke-opacity:1"/>
<path class="bond-4 atom-4 atom-5" d="M 521.1,636.3 L 458.1,672.7" style="fill:none;fill-rule:evenodd;stroke:#000000;stroke-width:2.0px;stroke-linecap:butt;stroke-linejoin:miter;stroke-opacity:1"/>
<path class="bond-5 atom-5 atom-6" d="M 458.1,672.7 L 458.1,702.7" style="fill:none;fill-rule:evenodd;stroke:#000000;stroke-width:2.0px;stroke-linecap:butt;stroke-linejoin:miter;stroke-opacity:1"/>
<path class="bond-5 atom-5 atom-6" d="M 458.1,702.7 L 458.1,732.7" style="fill:none;fill-rule:evenodd;stroke:#FF0000;stroke-width:2.0px;stroke-linecap:butt;stroke-linejoin:miter;stroke-opacity:1"/>
<path class="bond-6 atom-4 atom-7" d="M 521.1,636.3 L 521.1,563.4" style="fill:none;fill-rule:evenodd;stroke:#000000;stroke-width:2.0px;stroke-linecap:butt;stroke-linejoin:miter;stroke-opacity:1"/>
<path class="bond-7 atom-7 atom-8" d="M 518.0,562.0 L 518.3,561.5" style="fill:none;fill-rule:evenodd;stroke:#000000;stroke-width:1.0px;stroke-linecap:butt;stroke-linejoin:miter;stroke-opacity:1"/>
<path class="bond-7 atom-7 atom-8" d="M 514.9,560.5 L 515.5,559.5" style="fill:none;fill-rule:evenodd;stroke:#000000;stroke-width:1.0px;stroke-linecap:butt;stroke-linejoin:miter;stroke-opacity:1"/>
<path class="bond-7 atom-7 atom-8" d="M 511.8,559.0 L 512.6,557.5" style="fill:none;fill-rule:evenodd;stroke:#000000;stroke-width:1.0px;stroke-linecap:butt;stroke-linejoin:miter;stroke-opacity:1"/>
<path class="bond-7 atom-7 atom-8" d="M 508.6,557.5 L 509.8,555.6" style="fill:none;fill-rule:evenodd;stroke:#000000;stroke-width:1.0px;stroke-linecap:butt;stroke-linejoin:miter;stroke-opacity:1"/>
<path class="bond-7 atom-7 atom-8" d="M 505.5,556.1 L 507.0,553.6" style="fill:none;fill-rule:evenodd;stroke:#000000;stroke-width:1.0px;stroke-linecap:butt;stroke-linejoin:miter;stroke-opacity:1"/>
<path class="bond-7 atom-7 atom-8" d="M 502.4,554.6 L 504.1,551.6" style="fill:none;fill-rule:evenodd;stroke:#000000;stroke-width:1.0px;stroke-linecap:butt;stroke-linejoin:miter;stroke-opacity:1"/>
<path class="bond-7 atom-7 atom-8" d="M 499.3,553.1 L 501.3,549.7" style="fill:none;fill-rule:evenodd;stroke:#000000;stroke-width:1.0px;stroke-linecap:butt;stroke-linejoin:miter;stroke-opacity:1"/>
<path class="bond-7 atom-7 atom-8" d="M 496.2,551.7 L 498.5,547.7" style="fill:none;fill-rule:evenodd;stroke:#000000;stroke-width:1.0px;stroke-linecap:butt;stroke-linejoin:miter;stroke-opacity:1"/>
<path class="bond-7 atom-7 atom-8" d="M 493.0,550.2 L 495.6,545.7" style="fill:none;fill-rule:evenodd;stroke:#000000;stroke-width:1.0px;stroke-linecap:butt;stroke-linejoin:miter;stroke-opacity:1"/>
<path class="bond-7 atom-7 atom-8" d="M 489.9,548.7 L 492.8,543.7" style="fill:none;fill-rule:evenodd;stroke:#191919;stroke-width:1.0px;stroke-linecap:butt;stroke-linejoin:miter;stroke-opacity:1"/>
<path class="bond-7 atom-7 atom-8" d="M 486.8,547.3 L 490.0,541.8" style="fill:none;fill-rule:evenodd;stroke:#191919;stroke-width:1.0px;stroke-linecap:butt;stroke-linejoin:miter;stroke-opacity:1"/>
<path class="bond-7 atom-7 atom-8" d="M 483.7,545.8 L 487.1,539.8" style="fill:none;fill-rule:evenodd;stroke:#191919;stroke-width:1.0px;stroke-linecap:butt;stroke-linejoin:miter;stroke-opacity:1"/>
<path class="bond-7 atom-7 atom-8" d="M 480.6,544.3 L 484.3,537.8" style="fill:none;fill-rule:evenodd;stroke:#191919;stroke-width:1.0px;stroke-linecap:butt;stroke-linejoin:miter;stroke-opacity:1"/>
<path class="bond-7 atom-7 atom-8" d="M 477.4,542.9 L 481.5,535.9" style="fill:none;fill-rule:evenodd;stroke:#191919;stroke-width:1.0px;stroke-linecap:butt;stroke-linejoin:miter;stroke-opacity:1"/>
<path class="bond-7 atom-7 atom-8" d="M 474.3,541.4 L 478.6,533.9" style="fill:none;fill-rule:evenodd;stroke:#191919;stroke-width:1.0px;stroke-linecap:butt;stroke-linejoin:miter;stroke-opacity:1"/>
<path class="bond-7 atom-7 atom-8" d="M 471.2,539.9 L 475.8,531.9" style="fill:none;fill-rule:evenodd;stroke:#191919;stroke-width:1.0px;stroke-linecap:butt;stroke-linejoin:miter;stroke-opacity:1"/>
<path class="bond-7 atom-7 atom-8" d="M 468.1,538.4 L 473.0,530.0" style="fill:none;fill-rule:evenodd;stroke:#191919;stroke-width:1.0px;stroke-linecap:butt;stroke-linejoin:miter;stroke-opacity:1"/>
<path class="bond-7 atom-7 atom-8" d="M 465.0,537.0 L 470.1,528.0" style="fill:none;fill-rule:evenodd;stroke:#191919;stroke-width:1.0px;stroke-linecap:butt;stroke-linejoin:miter;stroke-opacity:1"/>
<path class="bond-7 atom-7 atom-8" d="M 461.8,535.5 L 467.3,526.0" style="fill:none;fill-rule:evenodd;stroke:#191919;stroke-width:1.0px;stroke-linecap:butt;stroke-linejoin:miter;stroke-opacity:1"/>
<path class="bond-8 atom-7 atom-9" d="M 521.1,563.4 L 584.2,527.0" style="fill:none;fill-rule:evenodd;stroke:#000000;stroke-width:2.0px;stroke-linecap:butt;stroke-linejoin:miter;stroke-opacity:1"/>
<path class="bond-9 atom-9 atom-10" d="M 583.9,523.4 L 584.5,523.4" style="fill:none;fill-rule:evenodd;stroke:#000000;stroke-width:1.0px;stroke-linecap:butt;stroke-linejoin:miter;stroke-opacity:1"/>
<path class="bond-9 atom-9 atom-10" d="M 583.5,519.9 L 584.9,519.9" style="fill:none;fill-rule:evenodd;stroke:#000000;stroke-width:1.0px;stroke-linecap:butt;stroke-linejoin:miter;stroke-opacity:1"/>
<path class="bond-9 atom-9 atom-10" d="M 583.2,516.3 L 585.2,516.3" style="fill:none;fill-rule:evenodd;stroke:#000000;stroke-width:1.0px;stroke-linecap:butt;stroke-linejoin:miter;stroke-opacity:1"/>
<path class="bond-9 atom-9 atom-10" d="M 582.8,512.7 L 585.6,512.7" style="fill:none;fill-rule:evenodd;stroke:#000000;stroke-width:1.0px;stroke-linecap:butt;stroke-linejoin:miter;stroke-opacity:1"/>
<path class="bond-9 atom-9 atom-10" d="M 582.5,509.1 L 585.9,509.1" style="fill:none;fill-rule:evenodd;stroke:#000000;stroke-width:1.0px;stroke-linecap:butt;stroke-linejoin:miter;stroke-opacity:1"/>
<path class="bond-9 atom-9 atom-10" d="M 582.2,505.5 L 586.2,505.5" style="fill:none;fill-rule:evenodd;stroke:#000000;stroke-width:1.0px;stroke-linecap:butt;stroke-linejoin:miter;stroke-opacity:1"/>
<path class="bond-9 atom-9 atom-10" d="M 581.8,502.0 L 586.6,502.0" style="fill:none;fill-rule:evenodd;stroke:#000000;stroke-width:1.0px;stroke-linecap:butt;stroke-linejoin:miter;stroke-opacity:1"/>
<path class="bond-9 atom-9 atom-10" d="M 581.5,498.4 L 586.9,498.4" style="fill:none;fill-rule:evenodd;stroke:#000000;stroke-width:1.0px;stroke-linecap:butt;stroke-linejoin:miter;stroke-opacity:1"/>
<path class="bond-9 atom-9 atom-10" d="M 581.1,494.8 L 587.3,494.8" style="fill:none;fill-rule:evenodd;stroke:#FF0000;stroke-width:1.0px;stroke-linecap:butt;stroke-linejoin:miter;stroke-opacity:1"/>
<path class="bond-9 atom-9 atom-10" d="M 580.8,491.2 L 587.6,491.2" style="fill:none;fill-rule:evenodd;stroke:#FF0000;stroke-width:1.0px;stroke-linecap:butt;stroke-linejoin:miter;stroke-opacity:1"/>
<path class="bond-9 atom-9 atom-10" d="M 580.4,487.6 L 588.0,487.6" style="fill:none;fill-rule:evenodd;stroke:#FF0000;stroke-width:1.0px;stroke-linecap:butt;stroke-linejoin:miter;stroke-opacity:1"/>
<path class="bond-9 atom-9 atom-10" d="M 580.1,484.1 L 588.3,484.1" style="fill:none;fill-rule:evenodd;stroke:#FF0000;stroke-width:1.0px;stroke-linecap:butt;stroke-linejoin:miter;stroke-opacity:1"/>
<path class="bond-9 atom-9 atom-10" d="M 579.8,480.5 L 588.6,480.5" style="fill:none;fill-rule:evenodd;stroke:#FF0000;stroke-width:1.0px;stroke-linecap:butt;stroke-linejoin:miter;stroke-opacity:1"/>
<path class="bond-9 atom-9 atom-10" d="M 579.4,476.9 L 589.0,476.9" style="fill:none;fill-rule:evenodd;stroke:#FF0000;stroke-width:1.0px;stroke-linecap:butt;stroke-linejoin:miter;stroke-opacity:1"/>
<path class="bond-9 atom-9 atom-10" d="M 579.1,473.3 L 589.3,473.3" style="fill:none;fill-rule:evenodd;stroke:#FF0000;stroke-width:1.0px;stroke-linecap:butt;stroke-linejoin:miter;stroke-opacity:1"/>
<path class="bond-9 atom-9 atom-10" d="M 578.7,469.7 L 589.7,469.7" style="fill:none;fill-rule:evenodd;stroke:#FF0000;stroke-width:1.0px;stroke-linecap:butt;stroke-linejoin:miter;stroke-opacity:1"/>
<path class="bond-10 atom-9 atom-11" d="M 584.2,527.0 L 647.3,563.4" style="fill:none;fill-rule:evenodd;stroke:#000000;stroke-width:2.0px;stroke-linecap:butt;stroke-linejoin:miter;stroke-opacity:1"/>
<path class="bond-11 atom-11 atom-12" d="M 647.3,563.4 L 673.7,548.2" style="fill:none;fill-rule:evenodd;stroke:#000000;stroke-width:2.0px;stroke-linecap:butt;stroke-linejoin:miter;stroke-opacity:1"/>
<path class="bond-11 atom-11 atom-12" d="M 673.7,548.2 L 700.1,532.9" style="fill:none;fill-rule:evenodd;stroke:#0000FF;stroke-width:2.0px;stroke-linecap:butt;stroke-linejoin:miter;stroke-opacity:1"/>
<path class="bond-12 atom-11 atom-2" d="M 647.3,563.4 L 647.3,636.3" style="fill:none;fill-rule:evenodd;stroke:#000000;stroke-width:2.0px;stroke-linecap:butt;stroke-linejoin:miter;stroke-opacity:1"/>
<path d="M 646.0,637.0 L 647.3,636.3 L 647.3,632.6" style="fill:none;stroke:#000000;stroke-width:2.0px;stroke-linecap:butt;stroke-linejoin:miter;stroke-opacity:1;"/>
<path d="M 461.2,670.8 L 458.1,672.7 L 458.1,674.2" style="fill:none;stroke:#000000;stroke-width:2.0px;stroke-linecap:butt;stroke-linejoin:miter;stroke-opacity:1;"/>
<path d="M 521.1,567.1 L 521.1,563.4 L 524.3,561.6" style="fill:none;stroke:#000000;stroke-width:2.0px;stroke-linecap:butt;stroke-linejoin:miter;stroke-opacity:1;"/>
<path d="M 581.0,528.8 L 584.2,527.0 L 587.4,528.8" style="fill:none;stroke:#000000;stroke-width:2.0px;stroke-linecap:butt;stroke-linejoin:miter;stroke-opacity:1;"/>
<path class="atom-0" d="M 706.4 743.2 L 709.5 740.1 L 705.5 739.3 L 706.1 737.2 L 709.8 739.1 L 709.2 735.0 L 711.4 735.0 L 710.8 739.1 L 714.6 737.3 L 715.2 739.3 L 711.1 740.0 L 714.1 743.2 L 712.3 744.4 L 710.3 740.6 L 708.2 744.4 L 706.4 743.2 " fill="#191919"/>
<path class="atom-1" d="M 700.9 672.7 Q 700.9 667.8, 703.3 665.0 Q 705.8 662.2, 710.3 662.2 Q 714.9 662.2, 717.4 665.0 Q 719.8 667.8, 719.8 672.7 Q 719.8 677.7, 717.3 680.6 Q 714.9 683.4, 710.3 683.4 Q 705.8 683.4, 703.3 680.6 Q 700.9 677.8, 700.9 672.7 M 710.3 681.1 Q 713.5 681.1, 715.2 679.0 Q 716.9 676.9, 716.9 672.7 Q 716.9 668.7, 715.2 666.6 Q 713.5 664.6, 710.3 664.6 Q 707.2 664.6, 705.5 666.6 Q 703.8 668.6, 703.8 672.7 Q 703.8 676.9, 705.5 679.0 Q 707.2 681.1, 710.3 681.1 " fill="#FF0000"/>
<path class="atom-3" d="M 574.7 672.7 Q 574.7 667.8, 577.2 665.0 Q 579.6 662.2, 584.2 662.2 Q 588.8 662.2, 591.2 665.0 Q 593.7 667.8, 593.7 672.7 Q 593.7 677.7, 591.2 680.6 Q 588.7 683.4, 584.2 683.4 Q 579.7 683.4, 577.2 680.6 Q 574.7 677.8, 574.7 672.7 M 584.2 681.1 Q 587.3 681.1, 589.0 679.0 Q 590.8 676.9, 590.8 672.7 Q 590.8 668.7, 589.0 666.6 Q 587.3 664.6, 584.2 664.6 Q 581.1 664.6, 579.3 666.6 Q 577.6 668.6, 577.6 672.7 Q 577.6 676.9, 579.3 679.0 Q 581.1 681.1, 584.2 681.1 " fill="#FF0000"/>
<path class="atom-6" d="M 448.6 745.6 Q 448.6 740.6, 451.0 737.8 Q 453.5 735.1, 458.1 735.1 Q 462.6 735.1, 465.1 737.8 Q 467.5 740.6, 467.5 745.6 Q 467.5 750.6, 465.1 753.4 Q 462.6 756.2, 458.1 756.2 Q 453.5 756.2, 451.0 753.4 Q 448.6 750.6, 448.6 745.6 M 458.1 753.9 Q 461.2 753.9, 462.9 751.8 Q 464.6 749.7, 464.6 745.6 Q 464.6 741.5, 462.9 739.5 Q 461.2 737.4, 458.1 737.4 Q 454.9 737.4, 453.2 739.4 Q 451.5 741.5, 451.5 745.6 Q 451.5 749.7, 453.2 751.8 Q 454.9 753.9, 458.1 753.9 " fill="#FF0000"/>
<path class="atom-6" d="M 470.7 735.3 L 473.5 735.3 L 473.5 744.1 L 484.1 744.1 L 484.1 735.3 L 486.9 735.3 L 486.9 755.9 L 484.1 755.9 L 484.1 746.4 L 473.5 746.4 L 473.5 755.9 L 470.7 755.9 L 470.7 735.3 " fill="#FF0000"/>
<path class="atom-8" d="M 454.2 524.7 L 457.2 521.6 L 453.2 520.8 L 453.8 518.7 L 457.5 520.6 L 457.0 516.6 L 459.2 516.5 L 458.5 520.6 L 462.3 518.8 L 462.9 520.8 L 458.9 521.6 L 461.8 524.7 L 460.0 526.0 L 458.0 522.1 L 455.9 526.0 L 454.2 524.7 " fill="#191919"/>
<path class="atom-10" d="M 574.7 454.2 Q 574.7 449.3, 577.2 446.5 Q 579.6 443.8, 584.2 443.8 Q 588.8 443.8, 591.2 446.5 Q 593.7 449.3, 593.7 454.2 Q 593.7 459.3, 591.2 462.1 Q 588.7 464.9, 584.2 464.9 Q 579.7 464.9, 577.2 462.1 Q 574.7 459.3, 574.7 454.2 M 584.2 462.6 Q 587.3 462.6, 589.0 460.5 Q 590.8 458.4, 590.8 454.2 Q 590.8 450.2, 589.0 448.2 Q 587.3 446.1, 584.2 446.1 Q 581.1 446.1, 579.3 448.1 Q 577.6 450.2, 577.6 454.2 Q 577.6 458.4, 579.3 460.5 Q 581.1 462.6, 584.2 462.6 " fill="#FF0000"/>
<path class="atom-10" d="M 596.9 444.0 L 599.7 444.0 L 599.7 452.8 L 610.2 452.8 L 610.2 444.0 L 613.0 444.0 L 613.0 464.6 L 610.2 464.6 L 610.2 455.1 L 599.7 455.1 L 599.7 464.6 L 596.9 464.6 L 596.9 444.0 " fill="#FF0000"/>
<path class="atom-12" d="M 705.8 516.7 L 712.5 527.6 Q 713.2 528.7, 714.3 530.7 Q 715.4 532.6, 715.4 532.7 L 715.4 516.7 L 718.2 516.7 L 718.2 537.3 L 715.3 537.3 L 708.1 525.4 Q 707.2 524.0, 706.3 522.4 Q 705.5 520.8, 705.2 520.3 L 705.2 537.3 L 702.5 537.3 L 702.5 516.7 L 705.8 516.7 " fill="#0000FF"/>
<path class="atom-12" d="M 722.1 516.7 L 724.9 516.7 L 724.9 525.5 L 735.4 525.5 L 735.4 516.7 L 738.2 516.7 L 738.2 537.3 L 735.4 537.3 L 735.4 527.8 L 724.9 527.8 L 724.9 537.3 L 722.1 537.3 L 722.1 516.7 " fill="#0000FF"/>
<path class="atom-12" d="M 742.3 536.6 Q 742.8 535.3, 744.0 534.6 Q 745.2 533.9, 746.8 533.9 Q 748.9 533.9, 750.0 535.0 Q 751.2 536.1, 751.2 538.1 Q 751.2 540.1, 749.7 542.0 Q 748.2 543.9, 745.1 546.1 L 751.4 546.1 L 751.4 547.6 L 742.2 547.6 L 742.2 546.3 Q 744.8 544.5, 746.3 543.2 Q 747.8 541.9, 748.5 540.6 Q 749.3 539.4, 749.3 538.2 Q 749.3 536.9, 748.6 536.1 Q 747.9 535.4, 746.8 535.4 Q 745.7 535.4, 745.0 535.9 Q 744.3 536.3, 743.7 537.3 L 742.3 536.6 " fill="#0000FF"/>
</svg>