<svg xmlns="http://www.w3.org/2000/svg" xmlns:rdkit="http://www.rdkit.org/xml" xmlns:xlink="http://www.w3.org/1999/xlink" version="1.1" baseProfile="full" xml:space="preserve" width="1200px" height="800px" viewBox="0 0 1200 800">
<!-- END OF HEADER -->
<rect style="opacity:1.0;fill:#FFFFFF;stroke:none" width="1200.0" height="800.0" x="0.0" y="0.0"> </rect>
<path class="bond-0 atom-0 atom-1" d="M 403.5,366.6 L 407.7,340.5" style="fill:none;fill-rule:evenodd;stroke:#191919;stroke-width:2.0px;stroke-linecap:butt;stroke-linejoin:miter;stroke-opacity:1"/>
<path class="bond-0 atom-0 atom-1" d="M 407.7,340.5 L 411.9,314.5" style="fill:none;fill-rule:evenodd;stroke:#FF0000;stroke-width:2.0px;stroke-linecap:butt;stroke-linejoin:miter;stroke-opacity:1"/>
<path class="bond-1 atom-2 atom-1" d="M 352.6,249.8 L 353.1,249.2" style="fill:none;fill-rule:evenodd;stroke:#000000;stroke-width:1.0px;stroke-linecap:butt;stroke-linejoin:miter;stroke-opacity:1"/>
<path class="bond-1 atom-2 atom-1" d="M 355.1,252.2 L 356.0,251.1" style="fill:none;fill-rule:evenodd;stroke:#000000;stroke-width:1.0px;stroke-linecap:butt;stroke-linejoin:miter;stroke-opacity:1"/>
<path class="bond-1 atom-2 atom-1" d="M 357.5,254.7 L 358.9,253.0" style="fill:none;fill-rule:evenodd;stroke:#000000;stroke-width:1.0px;stroke-linecap:butt;stroke-linejoin:miter;stroke-opacity:1"/>
<path class="bond-1 atom-2 atom-1" d="M 359.9,257.1 L 361.8,254.9" style="fill:none;fill-rule:evenodd;stroke:#000000;stroke-width:1.0px;stroke-linecap:butt;stroke-linejoin:miter;stroke-opacity:1"/>
<path class="bond-1 atom-2 atom-1" d="M 362.3,259.6 L 364.6,256.8" style="fill:none;fill-rule:evenodd;stroke:#000000;stroke-width:1.0px;stroke-linecap:butt;stroke-linejoin:miter;stroke-opacity:1"/>
<path class="bond-1 atom-2 atom-1" d="M 364.8,262.0 L 367.5,258.6" style="fill:none;fill-rule:evenodd;stroke:#000000;stroke-width:1.0px;stroke-linecap:butt;stroke-linejoin:miter;stroke-opacity:1"/>
<path class="bond-1 atom-2 atom-1" d="M 367.2,264.5 L 370.4,260.5" style="fill:none;fill-rule:evenodd;stroke:#000000;stroke-width:1.0px;stroke-linecap:butt;stroke-linejoin:miter;stroke-opacity:1"/>
<path class="bond-1 atom-2 atom-1" d="M 369.6,266.9 L 373.3,262.4" style="fill:none;fill-rule:evenodd;stroke:#000000;stroke-width:1.0px;stroke-linecap:butt;stroke-linejoin:miter;stroke-opacity:1"/>
<path class="bond-1 atom-2 atom-1" d="M 372.1,269.4 L 376.2,264.3" style="fill:none;fill-rule:evenodd;stroke:#000000;stroke-width:1.0px;stroke-linecap:butt;stroke-linejoin:miter;stroke-opacity:1"/>
<path class="bond-1 atom-2 atom-1" d="M 374.5,271.8 L 379.1,266.2" style="fill:none;fill-rule:evenodd;stroke:#FF0000;stroke-width:1.0px;stroke-linecap:butt;stroke-linejoin:miter;stroke-opacity:1"/>
<path class="bond-1 atom-2 atom-1" d="M 376.9,274.3 L 382.0,268.1" style="fill:none;fill-rule:evenodd;stroke:#FF0000;stroke-width:1.0px;stroke-linecap:butt;stroke-linejoin:miter;stroke-opacity:1"/>
<path class="bond-1 atom-2 atom-1" d="M 379.4,276.7 L 384.9,269.9" style="fill:none;fill-rule:evenodd;stroke:#FF0000;stroke-width:1.0px;stroke-linecap:butt;stroke-linejoin:miter;stroke-opacity:1"/>
<path class="bond-1 atom-2 atom-1" d="M 381.8,279.2 L 387.8,271.8" style="fill:none;fill-rule:evenodd;stroke:#FF0000;stroke-width:1.0px;stroke-linecap:butt;stroke-linejoin:miter;stroke-opacity:1"/>
<path class="bond-1 atom-2 atom-1" d="M 384.2,281.6 L 390.7,273.7" style="fill:none;fill-rule:evenodd;stroke:#FF0000;stroke-width:1.0px;stroke-linecap:butt;stroke-linejoin:miter;stroke-opacity:1"/>
<path class="bond-1 atom-2 atom-1" d="M 386.6,284.1 L 393.5,275.6" style="fill:none;fill-rule:evenodd;stroke:#FF0000;stroke-width:1.0px;stroke-linecap:butt;stroke-linejoin:miter;stroke-opacity:1"/>
<path class="bond-1 atom-2 atom-1" d="M 389.1,286.5 L 396.4,277.5" style="fill:none;fill-rule:evenodd;stroke:#FF0000;stroke-width:1.0px;stroke-linecap:butt;stroke-linejoin:miter;stroke-opacity:1"/>
<path class="bond-1 atom-2 atom-1" d="M 391.5,289.0 L 399.3,279.4" style="fill:none;fill-rule:evenodd;stroke:#FF0000;stroke-width:1.0px;stroke-linecap:butt;stroke-linejoin:miter;stroke-opacity:1"/>
<path class="bond-2 atom-2 atom-3" d="M 350.2,247.3 L 318.3,259.5" style="fill:none;fill-rule:evenodd;stroke:#000000;stroke-width:2.0px;stroke-linecap:butt;stroke-linejoin:miter;stroke-opacity:1"/>
<path class="bond-2 atom-2 atom-3" d="M 318.3,259.5 L 286.4,271.6" style="fill:none;fill-rule:evenodd;stroke:#FF0000;stroke-width:2.0px;stroke-linecap:butt;stroke-linejoin:miter;stroke-opacity:1"/>
<path class="bond-3 atom-3 atom-4" d="M 259.4,265.8 L 234.1,245.2" style="fill:none;fill-rule:evenodd;stroke:#FF0000;stroke-width:2.0px;stroke-linecap:butt;stroke-linejoin:miter;stroke-opacity:1"/>
<path class="bond-3 atom-3 atom-4" d="M 234.1,245.2 L 208.8,224.5" style="fill:none;fill-rule:evenodd;stroke:#000000;stroke-width:2.0px;stroke-linecap:butt;stroke-linejoin:miter;stroke-opacity:1"/>
<path class="bond-4 atom-4 atom-5" d="M 208.8,224.5 L 131.5,254.0" style="fill:none;fill-rule:evenodd;stroke:#000000;stroke-width:2.0px;stroke-linecap:butt;stroke-linejoin:miter;stroke-opacity:1"/>
<path class="bond-5 atom-5 atom-6" d="M 131.5,254.0 L 126.1,287.5" style="fill:none;fill-rule:evenodd;stroke:#000000;stroke-width:2.0px;stroke-linecap:butt;stroke-linejoin:miter;stroke-opacity:1"/>
<path class="bond-5 atom-5 atom-6" d="M 126.1,287.5 L 120.7,321.0" style="fill:none;fill-rule:evenodd;stroke:#FF0000;stroke-width:2.0px;stroke-linecap:butt;stroke-linejoin:miter;stroke-opacity:1"/>
<path class="bond-6 atom-4 atom-7" d="M 208.8,224.5 L 221.9,142.9" style="fill:none;fill-rule:evenodd;stroke:#000000;stroke-width:2.0px;stroke-linecap:butt;stroke-linejoin:miter;stroke-opacity:1"/>
<path class="bond-7 atom-7 atom-8" d="M 219.1,140.9 L 219.5,140.5" style="fill:none;fill-rule:evenodd;stroke:#000000;stroke-width:1.0px;stroke-linecap:butt;stroke-linejoin:miter;stroke-opacity:1"/>
<path class="bond-7 atom-7 atom-8" d="M 216.2,139.0 L 217.0,138.1" style="fill:none;fill-rule:evenodd;stroke:#000000;stroke-width:1.0px;stroke-linecap:butt;stroke-linejoin:miter;stroke-opacity:1"/>
<path class="bond-7 atom-7 atom-8" d="M 213.4,137.0 L 214.5,135.7" style="fill:none;fill-rule:evenodd;stroke:#000000;stroke-width:1.0px;stroke-linecap:butt;stroke-linejoin:miter;stroke-opacity:1"/>
<path class="bond-7 atom-7 atom-8" d="M 210.5,135.1 L 212.0,133.3" style="fill:none;fill-rule:evenodd;stroke:#000000;stroke-width:1.0px;stroke-linecap:butt;stroke-linejoin:miter;stroke-opacity:1"/>
<path class="bond-7 atom-7 atom-8" d="M 207.7,133.1 L 209.5,130.9" style="fill:none;fill-rule:evenodd;stroke:#000000;stroke-width:1.0px;stroke-linecap:butt;stroke-linejoin:miter;stroke-opacity:1"/>
<path class="bond-7 atom-7 atom-8" d="M 204.8,131.1 L 207.0,128.5" style="fill:none;fill-rule:evenodd;stroke:#000000;stroke-width:1.0px;stroke-linecap:butt;stroke-linejoin:miter;stroke-opacity:1"/>
<path class="bond-7 atom-7 atom-8" d="M 202.0,129.2 L 204.5,126.1" style="fill:none;fill-rule:evenodd;stroke:#000000;stroke-width:1.0px;stroke-linecap:butt;stroke-linejoin:miter;stroke-opacity:1"/>
<path class="bond-7 atom-7 atom-8" d="M 199.1,127.2 L 202.0,123.7" style="fill:none;fill-rule:evenodd;stroke:#000000;stroke-width:1.0px;stroke-linecap:butt;stroke-linejoin:miter;stroke-opacity:1"/>
<path class="bond-7 atom-7 atom-8" d="M 196.3,125.3 L 199.5,121.3" style="fill:none;fill-rule:evenodd;stroke:#000000;stroke-width:1.0px;stroke-linecap:butt;stroke-linejoin:miter;stroke-opacity:1"/>
<path class="bond-7 atom-7 atom-8" d="M 193.4,123.3 L 197.0,118.9" style="fill:none;fill-rule:evenodd;stroke:#000000;stroke-width:1.0px;stroke-linecap:butt;stroke-linejoin:miter;stroke-opacity:1"/>
<path class="bond-7 atom-7 atom-8" d="M 190.6,121.3 L 194.5,116.5" style="fill:none;fill-rule:evenodd;stroke:#000000;stroke-width:1.0px;stroke-linecap:butt;stroke-linejoin:miter;stroke-opacity:1"/>
<path class="bond-7 atom-7 atom-8" d="M 187.7,119.4 L 192.0,114.1" style="fill:none;fill-rule:evenodd;stroke:#191919;stroke-width:1.0px;stroke-linecap:butt;stroke-linejoin:miter;stroke-opacity:1"/>
<path class="bond-7 atom-7 atom-8" d="M 184.8,117.4 L 189.5,111.7" style="fill:none;fill-rule:evenodd;stroke:#191919;stroke-width:1.0px;stroke-linecap:butt;stroke-linejoin:miter;stroke-opacity:1"/>
<path class="bond-7 atom-7 atom-8" d="M 182.0,115.4 L 187.0,109.3" style="fill:none;fill-rule:evenodd;stroke:#191919;stroke-width:1.0px;stroke-linecap:butt;stroke-linejoin:miter;stroke-opacity:1"/>
<path class="bond-7 atom-7 atom-8" d="M 179.1,113.5 L 184.5,106.9" style="fill:none;fill-rule:evenodd;stroke:#191919;stroke-width:1.0px;stroke-linecap:butt;stroke-linejoin:miter;stroke-opacity:1"/>
<path class="bond-7 atom-7 atom-8" d="M 176.3,111.5 L 182.0,104.5" style="fill:none;fill-rule:evenodd;stroke:#191919;stroke-width:1.0px;stroke-linecap:butt;stroke-linejoin:miter;stroke-opacity:1"/>
<path class="bond-7 atom-7 atom-8" d="M 173.4,109.6 L 179.5,102.1" style="fill:none;fill-rule:evenodd;stroke:#191919;stroke-width:1.0px;stroke-linecap:butt;stroke-linejoin:miter;stroke-opacity:1"/>
<path class="bond-7 atom-7 atom-8" d="M 170.6,107.6 L 177.0,99.7" style="fill:none;fill-rule:evenodd;stroke:#191919;stroke-width:1.0px;stroke-linecap:butt;stroke-linejoin:miter;stroke-opacity:1"/>
<path class="bond-7 atom-7 atom-8" d="M 167.7,105.6 L 174.5,97.3" style="fill:none;fill-rule:evenodd;stroke:#191919;stroke-width:1.0px;stroke-linecap:butt;stroke-linejoin:miter;stroke-opacity:1"/>
<path class="bond-7 atom-7 atom-8" d="M 164.9,103.7 L 172.0,94.9" style="fill:none;fill-rule:evenodd;stroke:#191919;stroke-width:1.0px;stroke-linecap:butt;stroke-linejoin:miter;stroke-opacity:1"/>
<path class="bond-7 atom-7 atom-8" d="M 162.0,101.7 L 169.5,92.5" style="fill:none;fill-rule:evenodd;stroke:#191919;stroke-width:1.0px;stroke-linecap:butt;stroke-linejoin:miter;stroke-opacity:1"/>
<path class="bond-7 atom-7 atom-8" d="M 159.2,99.8 L 167.0,90.1" style="fill:none;fill-rule:evenodd;stroke:#191919;stroke-width:1.0px;stroke-linecap:butt;stroke-linejoin:miter;stroke-opacity:1"/>
<path class="bond-8 atom-7 atom-9" d="M 221.9,142.9 L 299.2,113.5" style="fill:none;fill-rule:evenodd;stroke:#000000;stroke-width:2.0px;stroke-linecap:butt;stroke-linejoin:miter;stroke-opacity:1"/>
<path class="bond-9 atom-9 atom-10" d="M 299.5,110.1 L 300.1,110.2" style="fill:none;fill-rule:evenodd;stroke:#000000;stroke-width:1.0px;stroke-linecap:butt;stroke-linejoin:miter;stroke-opacity:1"/>
<path class="bond-9 atom-9 atom-10" d="M 299.7,106.6 L 301.0,106.8" style="fill:none;fill-rule:evenodd;stroke:#000000;stroke-width:1.0px;stroke-linecap:butt;stroke-linejoin:miter;stroke-opacity:1"/>
<path class="bond-9 atom-9 atom-10" d="M 299.9,103.2 L 301.8,103.5" style="fill:none;fill-rule:evenodd;stroke:#000000;stroke-width:1.0px;stroke-linecap:butt;stroke-linejoin:miter;stroke-opacity:1"/>
<path class="bond-9 atom-9 atom-10" d="M 300.1,99.8 L 302.7,100.2" style="fill:none;fill-rule:evenodd;stroke:#000000;stroke-width:1.0px;stroke-linecap:butt;stroke-linejoin:miter;stroke-opacity:1"/>
<path class="bond-9 atom-9 atom-10" d="M 300.3,96.4 L 303.6,96.9" style="fill:none;fill-rule:evenodd;stroke:#000000;stroke-width:1.0px;stroke-linecap:butt;stroke-linejoin:miter;stroke-opacity:1"/>
<path class="bond-9 atom-9 atom-10" d="M 300.6,93.0 L 304.4,93.6" style="fill:none;fill-rule:evenodd;stroke:#000000;stroke-width:1.0px;stroke-linecap:butt;stroke-linejoin:miter;stroke-opacity:1"/>
<path class="bond-9 atom-9 atom-10" d="M 300.8,89.5 L 305.3,90.3" style="fill:none;fill-rule:evenodd;stroke:#000000;stroke-width:1.0px;stroke-linecap:butt;stroke-linejoin:miter;stroke-opacity:1"/>
<path class="bond-9 atom-9 atom-10" d="M 301.0,86.1 L 306.2,87.0" style="fill:none;fill-rule:evenodd;stroke:#000000;stroke-width:1.0px;stroke-linecap:butt;stroke-linejoin:miter;stroke-opacity:1"/>
<path class="bond-9 atom-9 atom-10" d="M 301.2,82.7 L 307.0,83.6" style="fill:none;fill-rule:evenodd;stroke:#000000;stroke-width:1.0px;stroke-linecap:butt;stroke-linejoin:miter;stroke-opacity:1"/>
<path class="bond-9 atom-9 atom-10" d="M 301.4,79.3 L 307.9,80.3" style="fill:none;fill-rule:evenodd;stroke:#FF0000;stroke-width:1.0px;stroke-linecap:butt;stroke-linejoin:miter;stroke-opacity:1"/>
<path class="bond-9 atom-9 atom-10" d="M 301.7,75.9 L 308.7,77.0" style="fill:none;fill-rule:evenodd;stroke:#FF0000;stroke-width:1.0px;stroke-linecap:butt;stroke-linejoin:miter;stroke-opacity:1"/>
<path class="bond-9 atom-9 atom-10" d="M 301.9,72.5 L 309.6,73.7" style="fill:none;fill-rule:evenodd;stroke:#FF0000;stroke-width:1.0px;stroke-linecap:butt;stroke-linejoin:miter;stroke-opacity:1"/>
<path class="bond-9 atom-9 atom-10" d="M 302.1,69.0 L 310.5,70.4" style="fill:none;fill-rule:evenodd;stroke:#FF0000;stroke-width:1.0px;stroke-linecap:butt;stroke-linejoin:miter;stroke-opacity:1"/>
<path class="bond-9 atom-9 atom-10" d="M 302.3,65.6 L 311.3,67.1" style="fill:none;fill-rule:evenodd;stroke:#FF0000;stroke-width:1.0px;stroke-linecap:butt;stroke-linejoin:miter;stroke-opacity:1"/>
<path class="bond-9 atom-9 atom-10" d="M 302.5,62.2 L 312.2,63.8" style="fill:none;fill-rule:evenodd;stroke:#FF0000;stroke-width:1.0px;stroke-linecap:butt;stroke-linejoin:miter;stroke-opacity:1"/>
<path class="bond-9 atom-9 atom-10" d="M 302.8,58.8 L 313.1,60.4" style="fill:none;fill-rule:evenodd;stroke:#FF0000;stroke-width:1.0px;stroke-linecap:butt;stroke-linejoin:miter;stroke-opacity:1"/>
<path class="bond-9 atom-9 atom-10" d="M 303.0,55.4 L 313.9,57.1" style="fill:none;fill-rule:evenodd;stroke:#FF0000;stroke-width:1.0px;stroke-linecap:butt;stroke-linejoin:miter;stroke-opacity:1"/>
<path class="bond-9 atom-9 atom-10" d="M 303.2,51.9 L 314.8,53.8" style="fill:none;fill-rule:evenodd;stroke:#FF0000;stroke-width:1.0px;stroke-linecap:butt;stroke-linejoin:miter;stroke-opacity:1"/>
<path class="bond-9 atom-9 atom-10" d="M 303.4,48.5 L 315.7,50.5" style="fill:none;fill-rule:evenodd;stroke:#FF0000;stroke-width:1.0px;stroke-linecap:butt;stroke-linejoin:miter;stroke-opacity:1"/>
<path class="bond-10 atom-9 atom-11" d="M 299.2,113.5 L 363.4,165.7" style="fill:none;fill-rule:evenodd;stroke:#000000;stroke-width:2.0px;stroke-linecap:butt;stroke-linejoin:miter;stroke-opacity:1"/>
<path class="bond-11 atom-11 atom-12" d="M 363.4,165.7 L 396.2,153.2" style="fill:none;fill-rule:evenodd;stroke:#000000;stroke-width:2.0px;stroke-linecap:butt;stroke-linejoin:miter;stroke-opacity:1"/>
<path class="bond-11 atom-11 atom-12" d="M 396.2,153.2 L 429.0,140.7" style="fill:none;fill-rule:evenodd;stroke:#0000FF;stroke-width:2.0px;stroke-linecap:butt;stroke-linejoin:miter;stroke-opacity:1"/>
<path class="bond-12 atom-12 atom-13" d="M 452.2,145.7 L 478.5,167.1" style="fill:none;fill-rule:evenodd;stroke:#0000FF;stroke-width:2.0px;stroke-linecap:butt;stroke-linejoin:miter;stroke-opacity:1"/>
<path class="bond-12 atom-12 atom-13" d="M 478.5,167.1 L 504.8,188.5" style="fill:none;fill-rule:evenodd;stroke:#000000;stroke-width:2.0px;stroke-linecap:butt;stroke-linejoin:miter;stroke-opacity:1"/>
<path class="bond-13 atom-13 atom-14" d="M 504.8,188.5 L 582.0,159.1" style="fill:none;fill-rule:evenodd;stroke:#000000;stroke-width:2.0px;stroke-linecap:butt;stroke-linejoin:miter;stroke-opacity:1"/>
<path class="bond-14 atom-14 atom-15" d="M 582.0,159.1 L 646.2,211.3" style="fill:none;fill-rule:evenodd;stroke:#000000;stroke-width:2.0px;stroke-linecap:butt;stroke-linejoin:miter;stroke-opacity:1"/>
<path class="bond-15 atom-15 atom-16" d="M 646.2,211.3 L 723.4,181.9" style="fill:none;fill-rule:evenodd;stroke:#000000;stroke-width:2.0px;stroke-linecap:butt;stroke-linejoin:miter;stroke-opacity:1"/>
<path class="bond-16 atom-16 atom-17" d="M 729.0,186.4 L 734.7,151.3" style="fill:none;fill-rule:evenodd;stroke:#000000;stroke-width:2.0px;stroke-linecap:butt;stroke-linejoin:miter;stroke-opacity:1"/>
<path class="bond-16 atom-16 atom-17" d="M 734.7,151.3 L 740.3,116.1" style="fill:none;fill-rule:evenodd;stroke:#FF0000;stroke-width:2.0px;stroke-linecap:butt;stroke-linejoin:miter;stroke-opacity:1"/>
<path class="bond-16 atom-16 atom-17" d="M 716.7,184.4 L 722.4,149.3" style="fill:none;fill-rule:evenodd;stroke:#000000;stroke-width:2.0px;stroke-linecap:butt;stroke-linejoin:miter;stroke-opacity:1"/>
<path class="bond-16 atom-16 atom-17" d="M 722.4,149.3 L 728.1,114.2" style="fill:none;fill-rule:evenodd;stroke:#FF0000;stroke-width:2.0px;stroke-linecap:butt;stroke-linejoin:miter;stroke-opacity:1"/>
<path class="bond-17 atom-16 atom-18" d="M 723.4,181.9 L 748.8,202.5" style="fill:none;fill-rule:evenodd;stroke:#000000;stroke-width:2.0px;stroke-linecap:butt;stroke-linejoin:miter;stroke-opacity:1"/>
<path class="bond-17 atom-16 atom-18" d="M 748.8,202.5 L 774.1,223.1" style="fill:none;fill-rule:evenodd;stroke:#FF0000;stroke-width:2.0px;stroke-linecap:butt;stroke-linejoin:miter;stroke-opacity:1"/>
<path class="bond-18 atom-18 atom-19" d="M 801.0,229.0 L 832.9,216.8" style="fill:none;fill-rule:evenodd;stroke:#FF0000;stroke-width:2.0px;stroke-linecap:butt;stroke-linejoin:miter;stroke-opacity:1"/>
<path class="bond-18 atom-18 atom-19" d="M 832.9,216.8 L 864.8,204.7" style="fill:none;fill-rule:evenodd;stroke:#000000;stroke-width:2.0px;stroke-linecap:butt;stroke-linejoin:miter;stroke-opacity:1"/>
<path class="bond-19 atom-19 atom-20" d="M 864.8,204.7 L 929.0,256.9" style="fill:none;fill-rule:evenodd;stroke:#000000;stroke-width:2.0px;stroke-linecap:butt;stroke-linejoin:miter;stroke-opacity:1"/>
<path class="bond-20 atom-20 atom-21" d="M 929.0,256.9 L 1006.2,227.5" style="fill:none;fill-rule:evenodd;stroke:#000000;stroke-width:2.0px;stroke-linecap:butt;stroke-linejoin:miter;stroke-opacity:1"/>
<path class="bond-21 atom-21 atom-22" d="M 1006.2,227.5 L 1039.1,215.0" style="fill:none;fill-rule:evenodd;stroke:#000000;stroke-width:2.0px;stroke-linecap:butt;stroke-linejoin:miter;stroke-opacity:1"/>
<path class="bond-21 atom-21 atom-22" d="M 1039.1,215.0 L 1071.9,202.5" style="fill:none;fill-rule:evenodd;stroke:#0000FF;stroke-width:2.0px;stroke-linecap:butt;stroke-linejoin:miter;stroke-opacity:1"/>
<path class="bond-21 atom-21 atom-22" d="M 1001.8,215.9 L 1034.7,203.4" style="fill:none;fill-rule:evenodd;stroke:#000000;stroke-width:2.0px;stroke-linecap:butt;stroke-linejoin:miter;stroke-opacity:1"/>
<path class="bond-21 atom-21 atom-22" d="M 1034.7,203.4 L 1067.5,190.9" style="fill:none;fill-rule:evenodd;stroke:#0000FF;stroke-width:2.0px;stroke-linecap:butt;stroke-linejoin:miter;stroke-opacity:1"/>
<path class="bond-21 atom-21 atom-22" d="M 1010.7,239.0 L 1043.5,226.5" style="fill:none;fill-rule:evenodd;stroke:#000000;stroke-width:2.0px;stroke-linecap:butt;stroke-linejoin:miter;stroke-opacity:1"/>
<path class="bond-21 atom-21 atom-22" d="M 1043.5,226.5 L 1076.3,214.0" style="fill:none;fill-rule:evenodd;stroke:#0000FF;stroke-width:2.0px;stroke-linecap:butt;stroke-linejoin:miter;stroke-opacity:1"/>
<path class="bond-22 atom-11 atom-2" d="M 363.4,165.7 L 350.2,247.3" style="fill:none;fill-rule:evenodd;stroke:#000000;stroke-width:2.0px;stroke-linecap:butt;stroke-linejoin:miter;stroke-opacity:1"/>
<path d="M 348.6,247.9 L 350.2,247.3 L 350.8,243.3" style="fill:none;stroke:#000000;stroke-width:2.0px;stroke-linecap:butt;stroke-linejoin:miter;stroke-opacity:1;"/>
<path d="M 135.4,252.5 L 131.5,254.0 L 131.2,255.6" style="fill:none;stroke:#000000;stroke-width:2.0px;stroke-linecap:butt;stroke-linejoin:miter;stroke-opacity:1;"/>
<path d="M 221.3,147.0 L 221.9,142.9 L 225.8,141.4" style="fill:none;stroke:#000000;stroke-width:2.0px;stroke-linecap:butt;stroke-linejoin:miter;stroke-opacity:1;"/>
<path d="M 295.4,115.0 L 299.2,113.5 L 302.4,116.1" style="fill:none;stroke:#000000;stroke-width:2.0px;stroke-linecap:butt;stroke-linejoin:miter;stroke-opacity:1;"/>
<path d="M 503.4,187.4 L 504.8,188.5 L 508.6,187.0" style="fill:none;stroke:#000000;stroke-width:2.0px;stroke-linecap:butt;stroke-linejoin:miter;stroke-opacity:1;"/>
<path d="M 578.2,160.5 L 582.0,159.1 L 585.2,161.7" style="fill:none;stroke:#000000;stroke-width:2.0px;stroke-linecap:butt;stroke-linejoin:miter;stroke-opacity:1;"/>
<path d="M 642.9,208.7 L 646.2,211.3 L 650.0,209.8" style="fill:none;stroke:#000000;stroke-width:2.0px;stroke-linecap:butt;stroke-linejoin:miter;stroke-opacity:1;"/>
<path d="M 719.6,183.3 L 723.4,181.9 L 724.7,182.9" style="fill:none;stroke:#000000;stroke-width:2.0px;stroke-linecap:butt;stroke-linejoin:miter;stroke-opacity:1;"/>
<path d="M 863.2,205.3 L 864.8,204.7 L 868.0,207.3" style="fill:none;stroke:#000000;stroke-width:2.0px;stroke-linecap:butt;stroke-linejoin:miter;stroke-opacity:1;"/>
<path d="M 925.8,254.3 L 929.0,256.9 L 932.8,255.4" style="fill:none;stroke:#000000;stroke-width:2.0px;stroke-linecap:butt;stroke-linejoin:miter;stroke-opacity:1;"/>
<path d="M 1002.4,228.9 L 1006.2,227.5 L 1007.9,226.8" style="fill:none;stroke:#000000;stroke-width:2.0px;stroke-linecap:butt;stroke-linejoin:miter;stroke-opacity:1;"/>
<path class="atom-0" d="M 396.7 378.6 L 400.2 375.1 L 395.6 374.1 L 396.3 371.8 L 400.5 373.9 L 399.9 369.3 L 402.4 369.3 L 401.7 373.9 L 406.0 371.9 L 406.7 374.1 L 402.1 375.0 L 405.4 378.5 L 403.4 380.0 L 401.1 375.6 L 398.8 380.0 L 396.7 378.6 " fill="#191919"/>
<path class="atom-1" d="M 403.6 299.6 Q 403.6 294.0, 406.3 290.9 Q 409.1 287.7, 414.3 287.7 Q 419.5 287.7, 422.3 290.9 Q 425.1 294.0, 425.1 299.6 Q 425.1 305.3, 422.2 308.5 Q 419.4 311.8, 414.3 311.8 Q 409.2 311.8, 406.3 308.5 Q 403.6 305.3, 403.6 299.6 M 414.3 309.1 Q 417.9 309.1, 419.8 306.7 Q 421.8 304.3, 421.8 299.6 Q 421.8 295.0, 419.8 292.7 Q 417.9 290.4, 414.3 290.4 Q 410.7 290.4, 408.8 292.7 Q 406.9 295.0, 406.9 299.6 Q 406.9 304.3, 408.8 306.7 Q 410.7 309.1, 414.3 309.1 " fill="#FF0000"/>
<path class="atom-3" d="M 262.2 276.8 Q 262.2 271.2, 264.9 268.1 Q 267.7 264.9, 272.9 264.9 Q 278.1 264.9, 280.9 268.1 Q 283.7 271.2, 283.7 276.8 Q 283.7 282.5, 280.8 285.8 Q 278.0 289.0, 272.9 289.0 Q 267.7 289.0, 264.9 285.8 Q 262.2 282.5, 262.2 276.8 M 272.9 286.3 Q 276.5 286.3, 278.4 283.9 Q 280.4 281.5, 280.4 276.8 Q 280.4 272.2, 278.4 269.9 Q 276.5 267.6, 272.9 267.6 Q 269.3 267.6, 267.4 269.9 Q 265.5 272.2, 265.5 276.8 Q 265.5 281.6, 267.4 283.9 Q 269.3 286.3, 272.9 286.3 " fill="#FF0000"/>
<path class="atom-6" d="M 107.6 335.7 Q 107.6 330.0, 110.4 326.9 Q 113.2 323.8, 118.3 323.8 Q 123.5 323.8, 126.3 326.9 Q 129.1 330.0, 129.1 335.7 Q 129.1 341.4, 126.3 344.6 Q 123.5 347.8, 118.3 347.8 Q 113.2 347.8, 110.4 344.6 Q 107.6 341.4, 107.6 335.7 M 118.3 345.2 Q 121.9 345.2, 123.8 342.8 Q 125.8 340.4, 125.8 335.7 Q 125.8 331.1, 123.8 328.8 Q 121.9 326.4, 118.3 326.4 Q 114.8 326.4, 112.8 328.7 Q 110.9 331.0, 110.9 335.7 Q 110.9 340.4, 112.8 342.8 Q 114.8 345.2, 118.3 345.2 " fill="#FF0000"/>
<path class="atom-6" d="M 132.7 324.0 L 135.9 324.0 L 135.9 334.0 L 147.9 334.0 L 147.9 324.0 L 151.1 324.0 L 151.1 347.4 L 147.9 347.4 L 147.9 336.6 L 135.9 336.6 L 135.9 347.4 L 132.7 347.4 L 132.7 324.0 " fill="#FF0000"/>
<path class="atom-8" d="M 153.4 88.1 L 156.9 84.6 L 152.3 83.6 L 153.0 81.3 L 157.2 83.4 L 156.6 78.8 L 159.1 78.8 L 158.4 83.4 L 162.6 81.4 L 163.4 83.6 L 158.7 84.5 L 162.0 88.0 L 160.0 89.5 L 157.7 85.1 L 155.4 89.5 L 153.4 88.1 " fill="#191919"/>
<path class="atom-10" d="M 301.6 31.9 Q 301.6 26.3, 304.4 23.1 Q 307.2 20.0, 312.4 20.0 Q 317.6 20.0, 320.4 23.1 Q 323.1 26.3, 323.1 31.9 Q 323.1 37.6, 320.3 40.8 Q 317.5 44.0, 312.4 44.0 Q 307.2 44.0, 304.4 40.8 Q 301.6 37.6, 301.6 31.9 M 312.4 41.4 Q 316.0 41.4, 317.9 39.0 Q 319.8 36.6, 319.8 31.9 Q 319.8 27.3, 317.9 25.0 Q 316.0 22.6, 312.4 22.6 Q 308.8 22.6, 306.9 25.0 Q 304.9 27.3, 304.9 31.9 Q 304.9 36.6, 306.9 39.0 Q 308.8 41.4, 312.4 41.4 " fill="#FF0000"/>
<path class="atom-10" d="M 326.8 20.3 L 330.0 20.3 L 330.0 30.2 L 341.9 30.2 L 341.9 20.3 L 345.1 20.3 L 345.1 43.7 L 341.9 43.7 L 341.9 32.9 L 330.0 32.9 L 330.0 43.7 L 326.8 43.7 L 326.8 20.3 " fill="#FF0000"/>
<path class="atom-12" d="M 435.5 124.6 L 443.1 137.0 Q 443.9 138.2, 445.1 140.4 Q 446.3 142.6, 446.4 142.8 L 446.4 124.6 L 449.5 124.6 L 449.5 148.0 L 446.3 148.0 L 438.1 134.4 Q 437.1 132.8, 436.1 131.0 Q 435.1 129.2, 434.8 128.6 L 434.8 148.0 L 431.8 148.0 L 431.8 124.6 L 435.5 124.6 " fill="#0000FF"/>
<path class="atom-12" d="M 431.5 98.8 L 434.6 98.8 L 434.6 108.8 L 446.6 108.8 L 446.6 98.8 L 449.8 98.8 L 449.8 122.2 L 446.6 122.2 L 446.6 111.4 L 434.6 111.4 L 434.6 122.2 L 431.5 122.2 L 431.5 98.8 " fill="#0000FF"/>
<path class="atom-17" d="M 725.8 100.3 Q 725.8 94.7, 728.6 91.5 Q 731.4 88.4, 736.6 88.4 Q 741.8 88.4, 744.6 91.5 Q 747.3 94.7, 747.3 100.3 Q 747.3 106.0, 744.5 109.2 Q 741.7 112.4, 736.6 112.4 Q 731.4 112.4, 728.6 109.2 Q 725.8 106.0, 725.8 100.3 M 736.6 109.8 Q 740.2 109.8, 742.1 107.4 Q 744.0 105.0, 744.0 100.3 Q 744.0 95.7, 742.1 93.4 Q 740.2 91.0, 736.6 91.0 Q 733.0 91.0, 731.1 93.3 Q 729.2 95.7, 729.2 100.3 Q 729.2 105.0, 731.1 107.4 Q 733.0 109.8, 736.6 109.8 " fill="#FF0000"/>
<path class="atom-18" d="M 776.8 234.1 Q 776.8 228.5, 779.6 225.4 Q 782.4 222.2, 787.6 222.2 Q 792.8 222.2, 795.5 225.4 Q 798.3 228.5, 798.3 234.1 Q 798.3 239.8, 795.5 243.1 Q 792.7 246.3, 787.6 246.3 Q 782.4 246.3, 779.6 243.1 Q 776.8 239.9, 776.8 234.1 M 787.6 243.6 Q 791.1 243.6, 793.0 241.3 Q 795.0 238.8, 795.0 234.1 Q 795.0 229.6, 793.0 227.2 Q 791.1 224.9, 787.6 224.9 Q 784.0 224.9, 782.0 227.2 Q 780.1 229.5, 780.1 234.1 Q 780.1 238.9, 782.0 241.3 Q 784.0 243.6, 787.6 243.6 " fill="#FF0000"/>
<path class="atom-22" d="M 1078.3 186.3 L 1086.0 198.7 Q 1086.8 200.0, 1088.0 202.2 Q 1089.2 204.4, 1089.3 204.5 L 1089.3 186.3 L 1092.4 186.3 L 1092.4 209.7 L 1089.2 209.7 L 1081.0 196.2 Q 1080.0 194.6, 1079.0 192.8 Q 1078.0 191.0, 1077.7 190.4 L 1077.7 209.7 L 1074.6 209.7 L 1074.6 186.3 L 1078.3 186.3 " fill="#0000FF"/>
<path class="bond-0 atom-0 atom-1" d="M 725.3,750.6 L 725.3,724.0" style="fill:none;fill-rule:evenodd;stroke:#191919;stroke-width:2.0px;stroke-linecap:butt;stroke-linejoin:miter;stroke-opacity:1"/>
<path class="bond-0 atom-0 atom-1" d="M 725.3,724.0 L 725.3,697.4" style="fill:none;fill-rule:evenodd;stroke:#FF0000;stroke-width:2.0px;stroke-linecap:butt;stroke-linejoin:miter;stroke-opacity:1"/>
<path class="bond-1 atom-2 atom-1" d="M 656.6,643.3 L 656.9,642.6" style="fill:none;fill-rule:evenodd;stroke:#000000;stroke-width:1.0px;stroke-linecap:butt;stroke-linejoin:miter;stroke-opacity:1"/>
<path class="bond-1 atom-2 atom-1" d="M 659.5,645.3 L 660.2,644.1" style="fill:none;fill-rule:evenodd;stroke:#000000;stroke-width:1.0px;stroke-linecap:butt;stroke-linejoin:miter;stroke-opacity:1"/>
<path class="bond-1 atom-2 atom-1" d="M 662.4,647.4 L 663.4,645.5" style="fill:none;fill-rule:evenodd;stroke:#000000;stroke-width:1.0px;stroke-linecap:butt;stroke-linejoin:miter;stroke-opacity:1"/>
<path class="bond-1 atom-2 atom-1" d="M 665.2,649.5 L 666.7,647.0" style="fill:none;fill-rule:evenodd;stroke:#000000;stroke-width:1.0px;stroke-linecap:butt;stroke-linejoin:miter;stroke-opacity:1"/>
<path class="bond-1 atom-2 atom-1" d="M 668.1,651.6 L 670.0,648.5" style="fill:none;fill-rule:evenodd;stroke:#000000;stroke-width:1.0px;stroke-linecap:butt;stroke-linejoin:miter;stroke-opacity:1"/>
<path class="bond-1 atom-2 atom-1" d="M 671.0,653.7 L 673.2,649.9" style="fill:none;fill-rule:evenodd;stroke:#000000;stroke-width:1.0px;stroke-linecap:butt;stroke-linejoin:miter;stroke-opacity:1"/>
<path class="bond-1 atom-2 atom-1" d="M 673.9,655.8 L 676.5,651.4" style="fill:none;fill-rule:evenodd;stroke:#000000;stroke-width:1.0px;stroke-linecap:butt;stroke-linejoin:miter;stroke-opacity:1"/>
<path class="bond-1 atom-2 atom-1" d="M 676.8,657.9 L 679.7,652.8" style="fill:none;fill-rule:evenodd;stroke:#000000;stroke-width:1.0px;stroke-linecap:butt;stroke-linejoin:miter;stroke-opacity:1"/>
<path class="bond-1 atom-2 atom-1" d="M 679.7,660.0 L 683.0,654.3" style="fill:none;fill-rule:evenodd;stroke:#000000;stroke-width:1.0px;stroke-linecap:butt;stroke-linejoin:miter;stroke-opacity:1"/>
<path class="bond-1 atom-2 atom-1" d="M 682.6,662.1 L 686.3,655.8" style="fill:none;fill-rule:evenodd;stroke:#FF0000;stroke-width:1.0px;stroke-linecap:butt;stroke-linejoin:miter;stroke-opacity:1"/>
<path class="bond-1 atom-2 atom-1" d="M 685.5,664.2 L 689.5,657.2" style="fill:none;fill-rule:evenodd;stroke:#FF0000;stroke-width:1.0px;stroke-linecap:butt;stroke-linejoin:miter;stroke-opacity:1"/>
<path class="bond-1 atom-2 atom-1" d="M 688.4,666.3 L 692.8,658.7" style="fill:none;fill-rule:evenodd;stroke:#FF0000;stroke-width:1.0px;stroke-linecap:butt;stroke-linejoin:miter;stroke-opacity:1"/>
<path class="bond-1 atom-2 atom-1" d="M 691.3,668.4 L 696.0,660.1" style="fill:none;fill-rule:evenodd;stroke:#FF0000;stroke-width:1.0px;stroke-linecap:butt;stroke-linejoin:miter;stroke-opacity:1"/>
<path class="bond-1 atom-2 atom-1" d="M 694.2,670.5 L 699.3,661.6" style="fill:none;fill-rule:evenodd;stroke:#FF0000;stroke-width:1.0px;stroke-linecap:butt;stroke-linejoin:miter;stroke-opacity:1"/>
<path class="bond-1 atom-2 atom-1" d="M 697.1,672.5 L 702.6,663.1" style="fill:none;fill-rule:evenodd;stroke:#FF0000;stroke-width:1.0px;stroke-linecap:butt;stroke-linejoin:miter;stroke-opacity:1"/>
<path class="bond-1 atom-2 atom-1" d="M 700.0,674.6 L 705.8,664.5" style="fill:none;fill-rule:evenodd;stroke:#FF0000;stroke-width:1.0px;stroke-linecap:butt;stroke-linejoin:miter;stroke-opacity:1"/>
<path class="bond-1 atom-2 atom-1" d="M 702.9,676.7 L 709.1,666.0" style="fill:none;fill-rule:evenodd;stroke:#FF0000;stroke-width:1.0px;stroke-linecap:butt;stroke-linejoin:miter;stroke-opacity:1"/>
<path class="bond-2 atom-2 atom-3" d="M 653.7,641.2 L 624.6,657.9" style="fill:none;fill-rule:evenodd;stroke:#000000;stroke-width:2.0px;stroke-linecap:butt;stroke-linejoin:miter;stroke-opacity:1"/>
<path class="bond-2 atom-2 atom-3" d="M 624.6,657.9 L 595.5,674.7" style="fill:none;fill-rule:evenodd;stroke:#FF0000;stroke-width:2.0px;stroke-linecap:butt;stroke-linejoin:miter;stroke-opacity:1"/>
<path class="bond-3 atom-3 atom-4" d="M 568.6,674.7 L 539.5,657.9" style="fill:none;fill-rule:evenodd;stroke:#FF0000;stroke-width:2.0px;stroke-linecap:butt;stroke-linejoin:miter;stroke-opacity:1"/>
<path class="bond-3 atom-3 atom-4" d="M 539.5,657.9 L 510.4,641.2" style="fill:none;fill-rule:evenodd;stroke:#000000;stroke-width:2.0px;stroke-linecap:butt;stroke-linejoin:miter;stroke-opacity:1"/>
<path class="bond-4 atom-4 atom-5" d="M 510.4,641.2 L 438.8,682.5" style="fill:none;fill-rule:evenodd;stroke:#000000;stroke-width:2.0px;stroke-linecap:butt;stroke-linejoin:miter;stroke-opacity:1"/>
<path class="bond-5 atom-5 atom-6" d="M 438.8,682.5 L 438.8,716.6" style="fill:none;fill-rule:evenodd;stroke:#000000;stroke-width:2.0px;stroke-linecap:butt;stroke-linejoin:miter;stroke-opacity:1"/>
<path class="bond-5 atom-5 atom-6" d="M 438.8,716.6 L 438.8,750.6" style="fill:none;fill-rule:evenodd;stroke:#FF0000;stroke-width:2.0px;stroke-linecap:butt;stroke-linejoin:miter;stroke-opacity:1"/>
<path class="bond-6 atom-4 atom-7" d="M 510.4,641.2 L 510.4,558.5" style="fill:none;fill-rule:evenodd;stroke:#000000;stroke-width:2.0px;stroke-linecap:butt;stroke-linejoin:miter;stroke-opacity:1"/>
<path class="bond-7 atom-7 atom-8" d="M 507.2,557.0 L 507.5,556.5" style="fill:none;fill-rule:evenodd;stroke:#000000;stroke-width:1.0px;stroke-linecap:butt;stroke-linejoin:miter;stroke-opacity:1"/>
<path class="bond-7 atom-7 atom-8" d="M 504.0,555.5 L 504.6,554.4" style="fill:none;fill-rule:evenodd;stroke:#000000;stroke-width:1.0px;stroke-linecap:butt;stroke-linejoin:miter;stroke-opacity:1"/>
<path class="bond-7 atom-7 atom-8" d="M 500.8,553.9 L 501.7,552.4" style="fill:none;fill-rule:evenodd;stroke:#000000;stroke-width:1.0px;stroke-linecap:butt;stroke-linejoin:miter;stroke-opacity:1"/>
<path class="bond-7 atom-7 atom-8" d="M 497.6,552.4 L 498.8,550.4" style="fill:none;fill-rule:evenodd;stroke:#000000;stroke-width:1.0px;stroke-linecap:butt;stroke-linejoin:miter;stroke-opacity:1"/>
<path class="bond-7 atom-7 atom-8" d="M 494.4,550.9 L 495.9,548.4" style="fill:none;fill-rule:evenodd;stroke:#000000;stroke-width:1.0px;stroke-linecap:butt;stroke-linejoin:miter;stroke-opacity:1"/>
<path class="bond-7 atom-7 atom-8" d="M 491.2,549.4 L 493.0,546.3" style="fill:none;fill-rule:evenodd;stroke:#000000;stroke-width:1.0px;stroke-linecap:butt;stroke-linejoin:miter;stroke-opacity:1"/>
<path class="bond-7 atom-7 atom-8" d="M 488.0,547.9 L 490.1,544.3" style="fill:none;fill-rule:evenodd;stroke:#000000;stroke-width:1.0px;stroke-linecap:butt;stroke-linejoin:miter;stroke-opacity:1"/>
<path class="bond-7 atom-7 atom-8" d="M 484.8,546.4 L 487.2,542.3" style="fill:none;fill-rule:evenodd;stroke:#000000;stroke-width:1.0px;stroke-linecap:butt;stroke-linejoin:miter;stroke-opacity:1"/>
<path class="bond-7 atom-7 atom-8" d="M 481.6,544.9 L 484.2,540.3" style="fill:none;fill-rule:evenodd;stroke:#000000;stroke-width:1.0px;stroke-linecap:butt;stroke-linejoin:miter;stroke-opacity:1"/>
<path class="bond-7 atom-7 atom-8" d="M 478.4,543.4 L 481.3,538.3" style="fill:none;fill-rule:evenodd;stroke:#000000;stroke-width:1.0px;stroke-linecap:butt;stroke-linejoin:miter;stroke-opacity:1"/>
<path class="bond-7 atom-7 atom-8" d="M 475.2,541.9 L 478.4,536.2" style="fill:none;fill-rule:evenodd;stroke:#191919;stroke-width:1.0px;stroke-linecap:butt;stroke-linejoin:miter;stroke-opacity:1"/>
<path class="bond-7 atom-7 atom-8" d="M 472.0,540.4 L 475.5,534.2" style="fill:none;fill-rule:evenodd;stroke:#191919;stroke-width:1.0px;stroke-linecap:butt;stroke-linejoin:miter;stroke-opacity:1"/>
<path class="bond-7 atom-7 atom-8" d="M 468.8,538.8 L 472.6,532.2" style="fill:none;fill-rule:evenodd;stroke:#191919;stroke-width:1.0px;stroke-linecap:butt;stroke-linejoin:miter;stroke-opacity:1"/>
<path class="bond-7 atom-7 atom-8" d="M 465.6,537.3 L 469.7,530.2" style="fill:none;fill-rule:evenodd;stroke:#191919;stroke-width:1.0px;stroke-linecap:butt;stroke-linejoin:miter;stroke-opacity:1"/>
<path class="bond-7 atom-7 atom-8" d="M 462.4,535.8 L 466.8,528.2" style="fill:none;fill-rule:evenodd;stroke:#191919;stroke-width:1.0px;stroke-linecap:butt;stroke-linejoin:miter;stroke-opacity:1"/>
<path class="bond-7 atom-7 atom-8" d="M 459.1,534.3 L 463.9,526.1" style="fill:none;fill-rule:evenodd;stroke:#191919;stroke-width:1.0px;stroke-linecap:butt;stroke-linejoin:miter;stroke-opacity:1"/>
<path class="bond-7 atom-7 atom-8" d="M 455.9,532.8 L 461.0,524.1" style="fill:none;fill-rule:evenodd;stroke:#191919;stroke-width:1.0px;stroke-linecap:butt;stroke-linejoin:miter;stroke-opacity:1"/>
<path class="bond-7 atom-7 atom-8" d="M 452.7,531.3 L 458.1,522.1" style="fill:none;fill-rule:evenodd;stroke:#191919;stroke-width:1.0px;stroke-linecap:butt;stroke-linejoin:miter;stroke-opacity:1"/>
<path class="bond-7 atom-7 atom-8" d="M 449.5,529.8 L 455.1,520.1" style="fill:none;fill-rule:evenodd;stroke:#191919;stroke-width:1.0px;stroke-linecap:butt;stroke-linejoin:miter;stroke-opacity:1"/>
<path class="bond-7 atom-7 atom-8" d="M 446.3,528.3 L 452.2,518.0" style="fill:none;fill-rule:evenodd;stroke:#191919;stroke-width:1.0px;stroke-linecap:butt;stroke-linejoin:miter;stroke-opacity:1"/>
<path class="bond-7 atom-7 atom-8" d="M 443.1,526.8 L 449.3,516.0" style="fill:none;fill-rule:evenodd;stroke:#191919;stroke-width:1.0px;stroke-linecap:butt;stroke-linejoin:miter;stroke-opacity:1"/>
<path class="bond-8 atom-7 atom-9" d="M 510.4,558.5 L 582.1,517.1" style="fill:none;fill-rule:evenodd;stroke:#000000;stroke-width:2.0px;stroke-linecap:butt;stroke-linejoin:miter;stroke-opacity:1"/>
<path class="bond-9 atom-9 atom-10" d="M 581.7,513.7 L 582.4,513.7" style="fill:none;fill-rule:evenodd;stroke:#000000;stroke-width:1.0px;stroke-linecap:butt;stroke-linejoin:miter;stroke-opacity:1"/>
<path class="bond-9 atom-9 atom-10" d="M 581.4,510.3 L 582.7,510.3" style="fill:none;fill-rule:evenodd;stroke:#000000;stroke-width:1.0px;stroke-linecap:butt;stroke-linejoin:miter;stroke-opacity:1"/>
<path class="bond-9 atom-9 atom-10" d="M 581.1,506.9 L 583.0,506.9" style="fill:none;fill-rule:evenodd;stroke:#000000;stroke-width:1.0px;stroke-linecap:butt;stroke-linejoin:miter;stroke-opacity:1"/>
<path class="bond-9 atom-9 atom-10" d="M 580.8,503.4 L 583.4,503.4" style="fill:none;fill-rule:evenodd;stroke:#000000;stroke-width:1.0px;stroke-linecap:butt;stroke-linejoin:miter;stroke-opacity:1"/>
<path class="bond-9 atom-9 atom-10" d="M 580.4,500.0 L 583.7,500.0" style="fill:none;fill-rule:evenodd;stroke:#000000;stroke-width:1.0px;stroke-linecap:butt;stroke-linejoin:miter;stroke-opacity:1"/>
<path class="bond-9 atom-9 atom-10" d="M 580.1,496.6 L 584.0,496.6" style="fill:none;fill-rule:evenodd;stroke:#000000;stroke-width:1.0px;stroke-linecap:butt;stroke-linejoin:miter;stroke-opacity:1"/>
<path class="bond-9 atom-9 atom-10" d="M 579.8,493.2 L 584.3,493.2" style="fill:none;fill-rule:evenodd;stroke:#000000;stroke-width:1.0px;stroke-linecap:butt;stroke-linejoin:miter;stroke-opacity:1"/>
<path class="bond-9 atom-9 atom-10" d="M 579.4,489.7 L 584.7,489.7" style="fill:none;fill-rule:evenodd;stroke:#000000;stroke-width:1.0px;stroke-linecap:butt;stroke-linejoin:miter;stroke-opacity:1"/>
<path class="bond-9 atom-9 atom-10" d="M 579.1,486.3 L 585.0,486.3" style="fill:none;fill-rule:evenodd;stroke:#000000;stroke-width:1.0px;stroke-linecap:butt;stroke-linejoin:miter;stroke-opacity:1"/>
<path class="bond-9 atom-9 atom-10" d="M 578.8,482.9 L 585.3,482.9" style="fill:none;fill-rule:evenodd;stroke:#FF0000;stroke-width:1.0px;stroke-linecap:butt;stroke-linejoin:miter;stroke-opacity:1"/>
<path class="bond-9 atom-9 atom-10" d="M 578.5,479.5 L 585.6,479.5" style="fill:none;fill-rule:evenodd;stroke:#FF0000;stroke-width:1.0px;stroke-linecap:butt;stroke-linejoin:miter;stroke-opacity:1"/>
<path class="bond-9 atom-9 atom-10" d="M 578.1,476.1 L 586.0,476.1" style="fill:none;fill-rule:evenodd;stroke:#FF0000;stroke-width:1.0px;stroke-linecap:butt;stroke-linejoin:miter;stroke-opacity:1"/>
<path class="bond-9 atom-9 atom-10" d="M 577.8,472.6 L 586.3,472.6" style="fill:none;fill-rule:evenodd;stroke:#FF0000;stroke-width:1.0px;stroke-linecap:butt;stroke-linejoin:miter;stroke-opacity:1"/>
<path class="bond-9 atom-9 atom-10" d="M 577.5,469.2 L 586.6,469.2" style="fill:none;fill-rule:evenodd;stroke:#FF0000;stroke-width:1.0px;stroke-linecap:butt;stroke-linejoin:miter;stroke-opacity:1"/>
<path class="bond-9 atom-9 atom-10" d="M 577.2,465.8 L 587.0,465.8" style="fill:none;fill-rule:evenodd;stroke:#FF0000;stroke-width:1.0px;stroke-linecap:butt;stroke-linejoin:miter;stroke-opacity:1"/>
<path class="bond-9 atom-9 atom-10" d="M 576.8,462.4 L 587.3,462.4" style="fill:none;fill-rule:evenodd;stroke:#FF0000;stroke-width:1.0px;stroke-linecap:butt;stroke-linejoin:miter;stroke-opacity:1"/>
<path class="bond-9 atom-9 atom-10" d="M 576.5,458.9 L 587.6,458.9" style="fill:none;fill-rule:evenodd;stroke:#FF0000;stroke-width:1.0px;stroke-linecap:butt;stroke-linejoin:miter;stroke-opacity:1"/>
<path class="bond-9 atom-9 atom-10" d="M 576.2,455.5 L 587.9,455.5" style="fill:none;fill-rule:evenodd;stroke:#FF0000;stroke-width:1.0px;stroke-linecap:butt;stroke-linejoin:miter;stroke-opacity:1"/>
<path class="bond-9 atom-9 atom-10" d="M 575.9,452.1 L 588.3,452.1" style="fill:none;fill-rule:evenodd;stroke:#FF0000;stroke-width:1.0px;stroke-linecap:butt;stroke-linejoin:miter;stroke-opacity:1"/>
<path class="bond-10 atom-9 atom-11" d="M 582.1,517.1 L 653.7,558.5" style="fill:none;fill-rule:evenodd;stroke:#000000;stroke-width:2.0px;stroke-linecap:butt;stroke-linejoin:miter;stroke-opacity:1"/>
<path class="bond-11 atom-11 atom-12" d="M 653.7,558.5 L 683.7,541.2" style="fill:none;fill-rule:evenodd;stroke:#000000;stroke-width:2.0px;stroke-linecap:butt;stroke-linejoin:miter;stroke-opacity:1"/>
<path class="bond-11 atom-11 atom-12" d="M 683.7,541.2 L 713.7,523.8" style="fill:none;fill-rule:evenodd;stroke:#0000FF;stroke-width:2.0px;stroke-linecap:butt;stroke-linejoin:miter;stroke-opacity:1"/>
<path class="bond-12 atom-11 atom-2" d="M 653.7,558.5 L 653.7,641.2" style="fill:none;fill-rule:evenodd;stroke:#000000;stroke-width:2.0px;stroke-linecap:butt;stroke-linejoin:miter;stroke-opacity:1"/>
<path d="M 652.2,642.0 L 653.7,641.2 L 653.7,637.0" style="fill:none;stroke:#000000;stroke-width:2.0px;stroke-linecap:butt;stroke-linejoin:miter;stroke-opacity:1;"/>
<path d="M 442.4,680.4 L 438.8,682.5 L 438.8,684.2" style="fill:none;stroke:#000000;stroke-width:2.0px;stroke-linecap:butt;stroke-linejoin:miter;stroke-opacity:1;"/>
<path d="M 510.4,562.6 L 510.4,558.5 L 514.0,556.4" style="fill:none;stroke:#000000;stroke-width:2.0px;stroke-linecap:butt;stroke-linejoin:miter;stroke-opacity:1;"/>
<path d="M 578.5,519.2 L 582.1,517.1 L 585.6,519.2" style="fill:none;stroke:#000000;stroke-width:2.0px;stroke-linecap:butt;stroke-linejoin:miter;stroke-opacity:1;"/>
<path class="atom-0" d="M 720.9 762.6 L 724.3 759.1 L 719.7 758.2 L 720.4 755.8 L 724.6 757.9 L 724.0 753.3 L 726.5 753.3 L 725.8 757.9 L 730.1 755.9 L 730.8 758.2 L 726.2 759.0 L 729.5 762.6 L 727.5 764.0 L 725.2 759.6 L 722.9 764.0 L 720.9 762.6 " fill="#191919"/>
<path class="atom-1" d="M 714.5 682.6 Q 714.5 677.0, 717.3 673.8 Q 720.1 670.7, 725.3 670.7 Q 730.5 670.7, 733.3 673.8 Q 736.0 677.0, 736.0 682.6 Q 736.0 688.3, 733.2 691.5 Q 730.4 694.7, 725.3 694.7 Q 720.1 694.7, 717.3 691.5 Q 714.5 688.3, 714.5 682.6 M 725.3 692.1 Q 728.9 692.1, 730.8 689.7 Q 732.7 687.3, 732.7 682.6 Q 732.7 678.0, 730.8 675.7 Q 728.9 673.3, 725.3 673.3 Q 721.7 673.3, 719.8 675.6 Q 717.8 677.9, 717.8 682.6 Q 717.8 687.3, 719.8 689.7 Q 721.7 692.1, 725.3 692.1 " fill="#FF0000"/>
<path class="atom-3" d="M 571.3 682.6 Q 571.3 677.0, 574.1 673.8 Q 576.9 670.7, 582.1 670.7 Q 587.3 670.7, 590.0 673.8 Q 592.8 677.0, 592.8 682.6 Q 592.8 688.3, 590.0 691.5 Q 587.2 694.7, 582.1 694.7 Q 576.9 694.7, 574.1 691.5 Q 571.3 688.3, 571.3 682.6 M 582.1 692.1 Q 585.6 692.1, 587.5 689.7 Q 589.5 687.3, 589.5 682.6 Q 589.5 678.0, 587.5 675.7 Q 585.6 673.3, 582.1 673.3 Q 578.5 673.3, 576.5 675.6 Q 574.6 677.9, 574.6 682.6 Q 574.6 687.3, 576.5 689.7 Q 578.5 692.1, 582.1 692.1 " fill="#FF0000"/>
<path class="atom-6" d="M 428.1 765.3 Q 428.1 759.6, 430.9 756.5 Q 433.6 753.4, 438.8 753.4 Q 444.0 753.4, 446.8 756.5 Q 449.6 759.6, 449.6 765.3 Q 449.6 771.0, 446.8 774.2 Q 444.0 777.4, 438.8 777.4 Q 433.7 777.4, 430.9 774.2 Q 428.1 771.0, 428.1 765.3 M 438.8 774.8 Q 442.4 774.8, 444.3 772.4 Q 446.3 770.0, 446.3 765.3 Q 446.3 760.7, 444.3 758.4 Q 442.4 756.0, 438.8 756.0 Q 435.3 756.0, 433.3 758.3 Q 431.4 760.6, 431.4 765.3 Q 431.4 770.0, 433.3 772.4 Q 435.3 774.8, 438.8 774.8 " fill="#FF0000"/>
<path class="atom-6" d="M 453.2 753.6 L 456.4 753.6 L 456.4 763.6 L 468.4 763.6 L 468.4 753.6 L 471.6 753.6 L 471.6 777.0 L 468.4 777.0 L 468.4 766.2 L 456.4 766.2 L 456.4 777.0 L 453.2 777.0 L 453.2 753.6 " fill="#FF0000"/>
<path class="atom-8" d="M 434.4 514.5 L 437.9 511.0 L 433.3 510.1 L 434.0 507.7 L 438.2 509.8 L 437.6 505.3 L 440.1 505.2 L 439.4 509.8 L 443.6 507.8 L 444.4 510.1 L 439.7 510.9 L 443.0 514.5 L 441.0 515.9 L 438.7 511.6 L 436.4 515.9 L 434.4 514.5 " fill="#191919"/>
<path class="atom-10" d="M 571.3 434.5 Q 571.3 428.9, 574.1 425.7 Q 576.9 422.6, 582.1 422.6 Q 587.3 422.6, 590.0 425.7 Q 592.8 428.9, 592.8 434.5 Q 592.8 440.2, 590.0 443.4 Q 587.2 446.6, 582.1 446.6 Q 576.9 446.6, 574.1 443.4 Q 571.3 440.2, 571.3 434.5 M 582.1 444.0 Q 585.6 444.0, 587.5 441.6 Q 589.5 439.2, 589.5 434.5 Q 589.5 429.9, 587.5 427.6 Q 585.6 425.2, 582.1 425.2 Q 578.5 425.2, 576.5 427.6 Q 574.6 429.9, 574.6 434.5 Q 574.6 439.2, 576.5 441.6 Q 578.5 444.0, 582.1 444.0 " fill="#FF0000"/>
<path class="atom-10" d="M 596.5 422.9 L 599.6 422.9 L 599.6 432.8 L 611.6 432.8 L 611.6 422.9 L 614.8 422.9 L 614.8 446.3 L 611.6 446.3 L 611.6 435.5 L 599.6 435.5 L 599.6 446.3 L 596.5 446.3 L 596.5 422.9 " fill="#FF0000"/>
<path class="atom-12" d="M 720.1 505.4 L 727.8 517.8 Q 728.5 519.0, 729.8 521.3 Q 731.0 523.5, 731.1 523.6 L 731.1 505.4 L 734.2 505.4 L 734.2 528.8 L 731.0 528.8 L 722.7 515.3 Q 721.8 513.7, 720.7 511.9 Q 719.7 510.0, 719.4 509.5 L 719.4 528.8 L 716.4 528.8 L 716.4 505.4 L 720.1 505.4 " fill="#0000FF"/>
<path class="atom-12" d="M 738.6 505.4 L 741.8 505.4 L 741.8 515.4 L 753.8 515.4 L 753.8 505.4 L 757.0 505.4 L 757.0 528.8 L 753.8 528.8 L 753.8 518.0 L 741.8 518.0 L 741.8 528.8 L 738.6 528.8 L 738.6 505.4 " fill="#0000FF"/>
<path class="atom-12" d="M 761.5 528.0 Q 762.1 526.6, 763.5 525.7 Q 764.8 524.9, 766.7 524.9 Q 769.0 524.9, 770.3 526.2 Q 771.7 527.4, 771.7 529.7 Q 771.7 532.0, 770.0 534.1 Q 768.3 536.3, 764.8 538.8 L 771.9 538.8 L 771.9 540.5 L 761.5 540.5 L 761.5 539.1 Q 764.4 537.0, 766.1 535.5 Q 767.8 534.0, 768.6 532.6 Q 769.5 531.2, 769.5 529.8 Q 769.5 528.3, 768.7 527.5 Q 768.0 526.7, 766.7 526.7 Q 765.5 526.7, 764.6 527.2 Q 763.8 527.7, 763.2 528.8 L 761.5 528.0 " fill="#0000FF"/>
</svg>