<svg xmlns="http://www.w3.org/2000/svg" xmlns:rdkit="http://www.rdkit.org/xml" xmlns:xlink="http://www.w3.org/1999/xlink" version="1.1" baseProfile="full" xml:space="preserve" width="1200px" height="1200px" viewBox="0 0 1200 1200">
<!-- END OF HEADER -->
<rect style="opacity:1.0;fill:#FFFFFF;stroke:none" width="1200.0" height="1200.0" x="0.0" y="0.0"> </rect>
<path class="bond-0 atom-0 atom-1" d="M 1124.1,205.9 L 1062.3,245.0" style="fill:none;fill-rule:evenodd;stroke:#191919;stroke-width:2.0px;stroke-linecap:butt;stroke-linejoin:miter;stroke-opacity:1"/>
<path class="bond-0 atom-0 atom-1" d="M 1062.3,245.0 L 1000.5,284.2" style="fill:none;fill-rule:evenodd;stroke:#000000;stroke-width:2.0px;stroke-linecap:butt;stroke-linejoin:miter;stroke-opacity:1"/>
<path class="bond-1 atom-1 atom-2" d="M 1000.5,284.2 L 864.9,213.3" style="fill:none;fill-rule:evenodd;stroke:#000000;stroke-width:2.0px;stroke-linecap:butt;stroke-linejoin:miter;stroke-opacity:1"/>
<path class="bond-2 atom-2 atom-3" d="M 864.9,213.3 L 735.6,295.2" style="fill:none;fill-rule:evenodd;stroke:#000000;stroke-width:2.0px;stroke-linecap:butt;stroke-linejoin:miter;stroke-opacity:1"/>
<path class="bond-3 atom-3 atom-4" d="M 735.6,295.2 L 600.0,224.3" style="fill:none;fill-rule:evenodd;stroke:#000000;stroke-width:2.0px;stroke-linecap:butt;stroke-linejoin:miter;stroke-opacity:1"/>
<path class="bond-4 atom-4 atom-5" d="M 600.0,224.3 L 470.7,306.2" style="fill:none;fill-rule:evenodd;stroke:#000000;stroke-width:2.0px;stroke-linecap:butt;stroke-linejoin:miter;stroke-opacity:1"/>
<path class="bond-5 atom-5 atom-6" d="M 470.7,306.2 L 335.1,235.3" style="fill:none;fill-rule:evenodd;stroke:#000000;stroke-width:2.0px;stroke-linecap:butt;stroke-linejoin:miter;stroke-opacity:1"/>
<path class="bond-6 atom-6 atom-7" d="M 346.9,241.4 L 344.0,171.5" style="fill:none;fill-rule:evenodd;stroke:#000000;stroke-width:2.0px;stroke-linecap:butt;stroke-linejoin:miter;stroke-opacity:1"/>
<path class="bond-6 atom-6 atom-7" d="M 344.0,171.5 L 341.1,101.7" style="fill:none;fill-rule:evenodd;stroke:#FF0000;stroke-width:2.0px;stroke-linecap:butt;stroke-linejoin:miter;stroke-opacity:1"/>
<path class="bond-6 atom-6 atom-7" d="M 323.9,242.4 L 321.0,172.5" style="fill:none;fill-rule:evenodd;stroke:#000000;stroke-width:2.0px;stroke-linecap:butt;stroke-linejoin:miter;stroke-opacity:1"/>
<path class="bond-6 atom-6 atom-7" d="M 321.0,172.5 L 318.1,102.6" style="fill:none;fill-rule:evenodd;stroke:#FF0000;stroke-width:2.0px;stroke-linecap:butt;stroke-linejoin:miter;stroke-opacity:1"/>
<path class="bond-7 atom-6 atom-8" d="M 335.1,235.3 L 279.5,270.5" style="fill:none;fill-rule:evenodd;stroke:#000000;stroke-width:2.0px;stroke-linecap:butt;stroke-linejoin:miter;stroke-opacity:1"/>
<path class="bond-7 atom-6 atom-8" d="M 279.5,270.5 L 223.9,305.8" style="fill:none;fill-rule:evenodd;stroke:#FF0000;stroke-width:2.0px;stroke-linecap:butt;stroke-linejoin:miter;stroke-opacity:1"/>
<path class="bond-8 atom-8 atom-9" d="M 187.8,307.8 L 132.5,278.8" style="fill:none;fill-rule:evenodd;stroke:#FF0000;stroke-width:2.0px;stroke-linecap:butt;stroke-linejoin:miter;stroke-opacity:1"/>
<path class="bond-8 atom-8 atom-9" d="M 132.5,278.8 L 77.2,249.9" style="fill:none;fill-rule:evenodd;stroke:#191919;stroke-width:2.0px;stroke-linecap:butt;stroke-linejoin:miter;stroke-opacity:1"/>
<path d="M 1003.6,282.3 L 1000.5,284.2 L 993.7,280.7" style="fill:none;stroke:#000000;stroke-width:2.0px;stroke-linecap:butt;stroke-linejoin:miter;stroke-opacity:1;"/>
<path d="M 871.7,216.8 L 864.9,213.3 L 858.4,217.4" style="fill:none;stroke:#000000;stroke-width:2.0px;stroke-linecap:butt;stroke-linejoin:miter;stroke-opacity:1;"/>
<path d="M 742.1,291.1 L 735.6,295.2 L 728.8,291.7" style="fill:none;stroke:#000000;stroke-width:2.0px;stroke-linecap:butt;stroke-linejoin:miter;stroke-opacity:1;"/>
<path d="M 606.8,227.8 L 600.0,224.3 L 593.5,228.4" style="fill:none;stroke:#000000;stroke-width:2.0px;stroke-linecap:butt;stroke-linejoin:miter;stroke-opacity:1;"/>
<path d="M 477.2,302.1 L 470.7,306.2 L 464.0,302.7" style="fill:none;stroke:#000000;stroke-width:2.0px;stroke-linecap:butt;stroke-linejoin:miter;stroke-opacity:1;"/>
<path d="M 341.9,238.8 L 335.1,235.3 L 332.3,237.0" style="fill:none;stroke:#000000;stroke-width:2.0px;stroke-linecap:butt;stroke-linejoin:miter;stroke-opacity:1;"/>
<path class="atom-0" d="M 1124.4 199.1 L 1128.6 194.9 L 1123.0 193.7 L 1123.9 190.9 L 1129.0 193.5 L 1128.2 187.9 L 1131.2 187.9 L 1130.4 193.4 L 1135.6 191.0 L 1136.4 193.7 L 1130.8 194.8 L 1134.8 199.1 L 1132.4 200.8 L 1129.6 195.5 L 1126.8 200.8 L 1124.4 199.1 " fill="#191919"/>
<path class="atom-7" d="M 315.8 82.4 Q 315.8 75.6, 319.1 71.8 Q 322.5 68.0, 328.8 68.0 Q 335.1 68.0, 338.4 71.8 Q 341.8 75.6, 341.8 82.4 Q 341.8 89.3, 338.4 93.2 Q 335.0 97.1, 328.8 97.1 Q 322.5 97.1, 319.1 93.2 Q 315.8 89.3, 315.8 82.4 M 328.8 93.9 Q 333.1 93.9, 335.4 91.0 Q 337.8 88.1, 337.8 82.4 Q 337.8 76.9, 335.4 74.1 Q 333.1 71.2, 328.8 71.2 Q 324.5 71.2, 322.1 74.0 Q 319.8 76.8, 319.8 82.4 Q 319.8 88.1, 322.1 91.0 Q 324.5 93.9, 328.8 93.9 " fill="#FF0000"/>
<path class="atom-8" d="M 192.9 317.3 Q 192.9 310.5, 196.2 306.7 Q 199.6 302.9, 205.9 302.9 Q 212.1 302.9, 215.5 306.7 Q 218.9 310.5, 218.9 317.3 Q 218.9 324.2, 215.5 328.1 Q 212.1 332.0, 205.9 332.0 Q 199.6 332.0, 196.2 328.1 Q 192.9 324.2, 192.9 317.3 M 205.9 328.8 Q 210.2 328.8, 212.5 325.9 Q 214.9 323.0, 214.9 317.3 Q 214.9 311.7, 212.5 308.9 Q 210.2 306.1, 205.9 306.1 Q 201.5 306.1, 199.2 308.9 Q 196.9 311.7, 196.9 317.3 Q 196.9 323.0, 199.2 325.9 Q 201.5 328.8, 205.9 328.8 " fill="#FF0000"/>
<path class="atom-9" d="M 64.9 243.1 L 69.1 238.9 L 63.6 237.7 L 64.4 234.9 L 69.5 237.5 L 68.8 231.9 L 71.8 231.9 L 70.9 237.4 L 76.1 235.0 L 77.0 237.7 L 71.4 238.8 L 75.4 243.1 L 72.9 244.8 L 70.2 239.5 L 67.4 244.8 L 64.9 243.1 " fill="#191919"/>
<path class="bond-0 atom-0 atom-1" d="M 255.9,527.8 L 301.9,586.0" style="fill:none;fill-rule:evenodd;stroke:#191919;stroke-width:2.0px;stroke-linecap:butt;stroke-linejoin:miter;stroke-opacity:1"/>
<path class="bond-0 atom-0 atom-1" d="M 301.9,586.0 L 347.9,644.3" style="fill:none;fill-rule:evenodd;stroke:#000000;stroke-width:2.0px;stroke-linecap:butt;stroke-linejoin:miter;stroke-opacity:1"/>
<path class="bond-1 atom-1 atom-2" d="M 347.9,644.3 L 499.3,622.1" style="fill:none;fill-rule:evenodd;stroke:#000000;stroke-width:2.0px;stroke-linecap:butt;stroke-linejoin:miter;stroke-opacity:1"/>
<path class="bond-2 atom-2 atom-3" d="M 499.3,622.1 L 555.9,479.9" style="fill:none;fill-rule:evenodd;stroke:#000000;stroke-width:2.0px;stroke-linecap:butt;stroke-linejoin:miter;stroke-opacity:1"/>
<path class="bond-2 atom-2 atom-3" d="M 525.6,618.3 L 572.3,500.7" style="fill:none;fill-rule:evenodd;stroke:#000000;stroke-width:2.0px;stroke-linecap:butt;stroke-linejoin:miter;stroke-opacity:1"/>
<path class="bond-3 atom-3 atom-4" d="M 555.9,479.9 L 707.4,457.8" style="fill:none;fill-rule:evenodd;stroke:#000000;stroke-width:2.0px;stroke-linecap:butt;stroke-linejoin:miter;stroke-opacity:1"/>
<path class="bond-4 atom-4 atom-5" d="M 707.4,457.8 L 802.2,577.9" style="fill:none;fill-rule:evenodd;stroke:#000000;stroke-width:2.0px;stroke-linecap:butt;stroke-linejoin:miter;stroke-opacity:1"/>
<path class="bond-4 atom-4 atom-5" d="M 697.6,482.4 L 776.0,581.7" style="fill:none;fill-rule:evenodd;stroke:#000000;stroke-width:2.0px;stroke-linecap:butt;stroke-linejoin:miter;stroke-opacity:1"/>
<path class="bond-5 atom-5 atom-6" d="M 802.2,577.9 L 953.7,555.7" style="fill:none;fill-rule:evenodd;stroke:#000000;stroke-width:2.0px;stroke-linecap:butt;stroke-linejoin:miter;stroke-opacity:1"/>
<path class="bond-6 atom-5 atom-7" d="M 802.2,577.9 L 745.7,720.1" style="fill:none;fill-rule:evenodd;stroke:#000000;stroke-width:2.0px;stroke-linecap:butt;stroke-linejoin:miter;stroke-opacity:1"/>
<path class="bond-7 atom-7 atom-8" d="M 745.7,720.1 L 594.2,742.2" style="fill:none;fill-rule:evenodd;stroke:#000000;stroke-width:2.0px;stroke-linecap:butt;stroke-linejoin:miter;stroke-opacity:1"/>
<path class="bond-7 atom-7 atom-8" d="M 729.2,699.3 L 604.0,717.6" style="fill:none;fill-rule:evenodd;stroke:#000000;stroke-width:2.0px;stroke-linecap:butt;stroke-linejoin:miter;stroke-opacity:1"/>
<path class="bond-8 atom-8 atom-2" d="M 594.2,742.2 L 499.3,622.1" style="fill:none;fill-rule:evenodd;stroke:#000000;stroke-width:2.0px;stroke-linecap:butt;stroke-linejoin:miter;stroke-opacity:1"/>
<path d="M 345.6,641.3 L 347.9,644.3 L 355.5,643.2" style="fill:none;stroke:#000000;stroke-width:2.0px;stroke-linecap:butt;stroke-linejoin:miter;stroke-opacity:1;"/>
<path d="M 553.1,487.0 L 555.9,479.9 L 563.5,478.8" style="fill:none;stroke:#000000;stroke-width:2.0px;stroke-linecap:butt;stroke-linejoin:miter;stroke-opacity:1;"/>
<path d="M 699.8,458.9 L 707.4,457.8 L 712.1,463.8" style="fill:none;stroke:#000000;stroke-width:2.0px;stroke-linecap:butt;stroke-linejoin:miter;stroke-opacity:1;"/>
<path d="M 748.5,713.0 L 745.7,720.1 L 738.1,721.2" style="fill:none;stroke:#000000;stroke-width:2.0px;stroke-linecap:butt;stroke-linejoin:miter;stroke-opacity:1;"/>
<path d="M 601.8,741.1 L 594.2,742.2 L 589.5,736.2" style="fill:none;stroke:#000000;stroke-width:2.0px;stroke-linecap:butt;stroke-linejoin:miter;stroke-opacity:1;"/>
<path class="atom-0" d="M 247.7 521.0 L 251.8 516.8 L 246.3 515.6 L 247.1 512.8 L 252.2 515.4 L 251.5 509.8 L 254.5 509.8 L 253.7 515.3 L 258.8 512.9 L 259.7 515.6 L 254.1 516.7 L 258.1 521.0 L 255.7 522.7 L 252.9 517.4 L 250.1 522.7 L 247.7 521.0 " fill="#191919"/>
<path class="bond-0 atom-0 atom-1" d="M 518.8,999.8 L 580.4,999.8" style="fill:none;fill-rule:evenodd;stroke:#191919;stroke-width:2.0px;stroke-linecap:butt;stroke-linejoin:miter;stroke-opacity:1"/>
<path class="bond-0 atom-0 atom-1" d="M 580.4,999.8 L 642.0,999.8" style="fill:none;fill-rule:evenodd;stroke:#FF0000;stroke-width:2.0px;stroke-linecap:butt;stroke-linejoin:miter;stroke-opacity:1"/>
<path class="atom-0" d="M 501.7 996.7 L 505.9 992.4 L 500.3 991.3 L 501.2 988.5 L 506.3 991.0 L 505.5 985.5 L 508.5 985.4 L 507.7 991.0 L 512.9 988.6 L 513.7 991.3 L 508.1 992.3 L 512.1 996.6 L 509.7 998.4 L 506.9 993.1 L 504.1 998.4 L 501.7 996.7 " fill="#191919"/>
<path class="atom-1" d="M 647.1 999.9 Q 647.1 993.1, 650.5 989.3 Q 653.8 985.5, 660.1 985.5 Q 666.4 985.5, 669.7 989.3 Q 673.1 993.1, 673.1 999.9 Q 673.1 1006.8, 669.7 1010.7 Q 666.3 1014.6, 660.1 1014.6 Q 653.9 1014.6, 650.5 1010.7 Q 647.1 1006.8, 647.1 999.9 M 660.1 1011.4 Q 664.4 1011.4, 666.7 1008.5 Q 669.1 1005.6, 669.1 999.9 Q 669.1 994.3, 666.7 991.5 Q 664.4 988.7, 660.1 988.7 Q 655.8 988.7, 653.4 991.5 Q 651.1 994.3, 651.1 999.9 Q 651.1 1005.6, 653.4 1008.5 Q 655.8 1011.4, 660.1 1011.4 " fill="#FF0000"/>
<path class="atom-1" d="M 677.5 985.8 L 681.3 985.8 L 681.3 997.9 L 695.8 997.9 L 695.8 985.8 L 699.7 985.8 L 699.7 1014.1 L 695.8 1014.1 L 695.8 1001.1 L 681.3 1001.1 L 681.3 1014.1 L 677.5 1014.1 L 677.5 985.8 " fill="#FF0000"/>
</svg>