<svg xmlns="http://www.w3.org/2000/svg" xmlns:rdkit="http://www.rdkit.org/xml" xmlns:xlink="http://www.w3.org/1999/xlink" version="1.1" baseProfile="full" xml:space="preserve" width="1200px" height="1200px" viewBox="0 0 1200 1200">
<!-- END OF HEADER -->
<rect style="opacity:1.0;fill:#FFFFFF;stroke:none" width="1200.0" height="1200.0" x="0.0" y="0.0"> </rect>
<path class="bond-0 atom-0 atom-1" d="M 88.8,308.7 L 136.6,278.2" style="fill:none;fill-rule:evenodd;stroke:#191919;stroke-width:2.0px;stroke-linecap:butt;stroke-linejoin:miter;stroke-opacity:1"/>
<path class="bond-0 atom-0 atom-1" d="M 136.6,278.2 L 184.5,247.6" style="fill:none;fill-rule:evenodd;stroke:#0000FF;stroke-width:2.0px;stroke-linecap:butt;stroke-linejoin:miter;stroke-opacity:1"/>
<path class="bond-1 atom-1 atom-2" d="M 215.6,243.8 L 275.6,267.4" style="fill:none;fill-rule:evenodd;stroke:#0000FF;stroke-width:2.0px;stroke-linecap:butt;stroke-linejoin:miter;stroke-opacity:1"/>
<path class="bond-1 atom-1 atom-2" d="M 275.6,267.4 L 335.6,290.9" style="fill:none;fill-rule:evenodd;stroke:#000000;stroke-width:2.0px;stroke-linecap:butt;stroke-linejoin:miter;stroke-opacity:1"/>
<path class="bond-2 atom-2 atom-3" d="M 335.6,290.9 L 428.1,178.5" style="fill:none;fill-rule:evenodd;stroke:#000000;stroke-width:2.0px;stroke-linecap:butt;stroke-linejoin:miter;stroke-opacity:1"/>
<path class="bond-2 atom-2 atom-3" d="M 328.8,264.8 L 401.1,176.8" style="fill:none;fill-rule:evenodd;stroke:#000000;stroke-width:2.0px;stroke-linecap:butt;stroke-linejoin:miter;stroke-opacity:1"/>
<path class="bond-3 atom-3 atom-4" d="M 428.1,178.5 L 573.5,187.2" style="fill:none;fill-rule:evenodd;stroke:#000000;stroke-width:2.0px;stroke-linecap:butt;stroke-linejoin:miter;stroke-opacity:1"/>
<path class="bond-4 atom-4 atom-5" d="M 573.5,187.2 L 638.6,317.5" style="fill:none;fill-rule:evenodd;stroke:#000000;stroke-width:2.0px;stroke-linecap:butt;stroke-linejoin:miter;stroke-opacity:1"/>
<path class="bond-4 atom-4 atom-5" d="M 598.7,188.7 L 652.5,296.4" style="fill:none;fill-rule:evenodd;stroke:#000000;stroke-width:2.0px;stroke-linecap:butt;stroke-linejoin:miter;stroke-opacity:1"/>
<path class="bond-5 atom-5 atom-6" d="M 638.6,317.5 L 784.0,326.2" style="fill:none;fill-rule:evenodd;stroke:#000000;stroke-width:2.0px;stroke-linecap:butt;stroke-linejoin:miter;stroke-opacity:1"/>
<path class="bond-6 atom-6 atom-7" d="M 784.0,326.2 L 864.2,204.7" style="fill:none;fill-rule:evenodd;stroke:#000000;stroke-width:2.0px;stroke-linecap:butt;stroke-linejoin:miter;stroke-opacity:1"/>
<path class="bond-6 atom-6 atom-7" d="M 772.7,303.6 L 839.1,203.2" style="fill:none;fill-rule:evenodd;stroke:#000000;stroke-width:2.0px;stroke-linecap:butt;stroke-linejoin:miter;stroke-opacity:1"/>
<path class="bond-7 atom-7 atom-8" d="M 864.2,204.7 L 995.2,212.5" style="fill:none;fill-rule:evenodd;stroke:#000000;stroke-width:2.0px;stroke-linecap:butt;stroke-linejoin:miter;stroke-opacity:1"/>
<path class="bond-8 atom-8 atom-9" d="M 1019.1,232.4 L 1042.1,278.5" style="fill:none;fill-rule:evenodd;stroke:#000000;stroke-width:2.0px;stroke-linecap:butt;stroke-linejoin:miter;stroke-opacity:1"/>
<path class="bond-8 atom-8 atom-9" d="M 1042.1,278.5 L 1065.2,324.6" style="fill:none;fill-rule:evenodd;stroke:#FF0000;stroke-width:2.0px;stroke-linecap:butt;stroke-linejoin:miter;stroke-opacity:1"/>
<path class="bond-9 atom-8 atom-10" d="M 1022.1,194.4 L 1049.5,152.9" style="fill:none;fill-rule:evenodd;stroke:#000000;stroke-width:2.0px;stroke-linecap:butt;stroke-linejoin:miter;stroke-opacity:1"/>
<path class="bond-9 atom-8 atom-10" d="M 1049.5,152.9 L 1077.0,111.4" style="fill:none;fill-rule:evenodd;stroke:#FF0000;stroke-width:2.0px;stroke-linecap:butt;stroke-linejoin:miter;stroke-opacity:1"/>
<path class="bond-10 atom-7 atom-11" d="M 864.2,204.7 L 799.1,74.4" style="fill:none;fill-rule:evenodd;stroke:#000000;stroke-width:2.0px;stroke-linecap:butt;stroke-linejoin:miter;stroke-opacity:1"/>
<path class="bond-11 atom-11 atom-12" d="M 799.1,74.4 L 653.7,65.7" style="fill:none;fill-rule:evenodd;stroke:#000000;stroke-width:2.0px;stroke-linecap:butt;stroke-linejoin:miter;stroke-opacity:1"/>
<path class="bond-11 atom-11 atom-12" d="M 785.2,95.5 L 665.0,88.2" style="fill:none;fill-rule:evenodd;stroke:#000000;stroke-width:2.0px;stroke-linecap:butt;stroke-linejoin:miter;stroke-opacity:1"/>
<path class="bond-12 atom-3 atom-13" d="M 428.1,178.5 L 395.0,126.6" style="fill:none;fill-rule:evenodd;stroke:#000000;stroke-width:2.0px;stroke-linecap:butt;stroke-linejoin:miter;stroke-opacity:1"/>
<path class="bond-12 atom-3 atom-13" d="M 395.0,126.6 L 361.8,74.7" style="fill:none;fill-rule:evenodd;stroke:#0000FF;stroke-width:2.0px;stroke-linecap:butt;stroke-linejoin:miter;stroke-opacity:1"/>
<path class="bond-13 atom-13 atom-14" d="M 334.2,59.8 L 224.3,88.3" style="fill:none;fill-rule:evenodd;stroke:#0000FF;stroke-width:2.0px;stroke-linecap:butt;stroke-linejoin:miter;stroke-opacity:1"/>
<path class="bond-13 atom-13 atom-14" d="M 339.7,80.9 L 229.8,109.4" style="fill:none;fill-rule:evenodd;stroke:#0000FF;stroke-width:2.0px;stroke-linecap:butt;stroke-linejoin:miter;stroke-opacity:1"/>
<path class="bond-14 atom-14 atom-1" d="M 207.6,111.3 L 201.1,218.7" style="fill:none;fill-rule:evenodd;stroke:#0000FF;stroke-width:2.0px;stroke-linecap:butt;stroke-linejoin:miter;stroke-opacity:1"/>
<path class="bond-15 atom-12 atom-4" d="M 653.7,65.7 L 573.5,187.2" style="fill:none;fill-rule:evenodd;stroke:#000000;stroke-width:2.0px;stroke-linecap:butt;stroke-linejoin:miter;stroke-opacity:1"/>
<path d="M 332.6,289.8 L 335.6,290.9 L 340.2,285.3" style="fill:none;stroke:#000000;stroke-width:2.0px;stroke-linecap:butt;stroke-linejoin:miter;stroke-opacity:1;"/>
<path d="M 635.3,311.0 L 638.6,317.5 L 645.9,317.9" style="fill:none;stroke:#000000;stroke-width:2.0px;stroke-linecap:butt;stroke-linejoin:miter;stroke-opacity:1;"/>
<path d="M 776.7,325.8 L 784.0,326.2 L 788.0,320.1" style="fill:none;stroke:#000000;stroke-width:2.0px;stroke-linecap:butt;stroke-linejoin:miter;stroke-opacity:1;"/>
<path d="M 802.4,80.9 L 799.1,74.4 L 791.8,74.0" style="fill:none;stroke:#000000;stroke-width:2.0px;stroke-linecap:butt;stroke-linejoin:miter;stroke-opacity:1;"/>
<path d="M 661.0,66.1 L 653.7,65.7 L 649.7,71.7" style="fill:none;stroke:#000000;stroke-width:2.0px;stroke-linecap:butt;stroke-linejoin:miter;stroke-opacity:1;"/>
<path class="atom-0" d="M 71.9 312.9 L 76.1 308.7 L 70.6 307.6 L 71.4 304.7 L 76.5 307.3 L 75.8 301.7 L 78.8 301.7 L 77.9 307.3 L 83.1 304.9 L 84.0 307.6 L 78.4 308.6 L 82.4 312.9 L 79.9 314.7 L 77.2 309.4 L 74.4 314.7 L 71.9 312.9 " fill="#191919"/>
<path class="atom-1" d="M 193.7 223.5 L 203.0 238.5 Q 203.9 240.0, 205.4 242.7 Q 206.9 245.4, 207.0 245.5 L 207.0 223.5 L 210.7 223.5 L 210.7 251.9 L 206.9 251.9 L 196.9 235.5 Q 195.7 233.5, 194.5 231.3 Q 193.3 229.1, 192.9 228.5 L 192.9 251.9 L 189.3 251.9 L 189.3 223.5 L 193.7 223.5 " fill="#0000FF"/>
<path class="atom-8" d="M 1013.8 212.7 Q 1016.5 213.5, 1017.8 215.1 Q 1019.2 216.8, 1019.2 219.2 Q 1019.2 223.1, 1016.7 225.4 Q 1014.2 227.6, 1009.5 227.6 L 1000.0 227.6 L 1000.0 199.3 L 1008.4 199.3 Q 1013.2 199.3, 1015.6 201.2 Q 1018.1 203.2, 1018.1 206.8 Q 1018.1 211.1, 1013.8 212.7 M 1003.8 202.5 L 1003.8 211.3 L 1008.4 211.3 Q 1011.2 211.3, 1012.6 210.2 Q 1014.1 209.1, 1014.1 206.8 Q 1014.1 202.5, 1008.4 202.5 L 1003.8 202.5 M 1009.5 224.4 Q 1012.3 224.4, 1013.8 223.1 Q 1015.2 221.7, 1015.2 219.2 Q 1015.2 216.9, 1013.6 215.7 Q 1012.0 214.5, 1008.9 214.5 L 1003.8 214.5 L 1003.8 224.4 L 1009.5 224.4 " fill="#000000"/>
<path class="atom-9" d="M 1061.7 343.8 Q 1061.7 337.0, 1065.1 333.2 Q 1068.5 329.4, 1074.7 329.4 Q 1081.0 329.4, 1084.4 333.2 Q 1087.7 337.0, 1087.7 343.8 Q 1087.7 350.6, 1084.3 354.6 Q 1080.9 358.4, 1074.7 358.4 Q 1068.5 358.4, 1065.1 354.6 Q 1061.7 350.7, 1061.7 343.8 M 1074.7 355.2 Q 1079.1 355.2, 1081.4 352.4 Q 1083.7 349.4, 1083.7 343.8 Q 1083.7 338.2, 1081.4 335.4 Q 1079.1 332.6, 1074.7 332.6 Q 1070.4 332.6, 1068.1 335.4 Q 1065.7 338.2, 1065.7 343.8 Q 1065.7 349.5, 1068.1 352.4 Q 1070.4 355.2, 1074.7 355.2 " fill="#FF0000"/>
<path class="atom-9" d="M 1092.1 329.7 L 1096.0 329.7 L 1096.0 341.7 L 1110.5 341.7 L 1110.5 329.7 L 1114.3 329.7 L 1114.3 358.0 L 1110.5 358.0 L 1110.5 344.9 L 1096.0 344.9 L 1096.0 358.0 L 1092.1 358.0 L 1092.1 329.7 " fill="#FF0000"/>
<path class="atom-10" d="M 1076.9 92.0 Q 1076.9 85.2, 1080.2 81.4 Q 1083.6 77.6, 1089.9 77.6 Q 1096.2 77.6, 1099.5 81.4 Q 1102.9 85.2, 1102.9 92.0 Q 1102.9 98.8, 1099.5 102.8 Q 1096.1 106.6, 1089.9 106.6 Q 1083.6 106.6, 1080.2 102.8 Q 1076.9 98.9, 1076.9 92.0 M 1089.9 103.4 Q 1094.2 103.4, 1096.5 100.6 Q 1098.9 97.6, 1098.9 92.0 Q 1098.9 86.4, 1096.5 83.6 Q 1094.2 80.8, 1089.9 80.8 Q 1085.6 80.8, 1083.2 83.6 Q 1080.9 86.4, 1080.9 92.0 Q 1080.9 97.7, 1083.2 100.6 Q 1085.6 103.4, 1089.9 103.4 " fill="#FF0000"/>
<path class="atom-10" d="M 1107.3 77.9 L 1111.1 77.9 L 1111.1 89.9 L 1125.6 89.9 L 1125.6 77.9 L 1129.4 77.9 L 1129.4 106.2 L 1125.6 106.2 L 1125.6 93.1 L 1111.1 93.1 L 1111.1 106.2 L 1107.3 106.2 L 1107.3 77.9 " fill="#FF0000"/>
<path class="atom-13" d="M 343.5 41.6 L 352.7 56.6 Q 353.7 58.0, 355.1 60.7 Q 356.6 63.4, 356.7 63.6 L 356.7 41.6 L 360.5 41.6 L 360.5 69.9 L 356.6 69.9 L 346.6 53.5 Q 345.5 51.6, 344.2 49.4 Q 343.0 47.2, 342.7 46.5 L 342.7 69.9 L 339.0 69.9 L 339.0 41.6 L 343.5 41.6 " fill="#0000FF"/>
<path class="atom-14" d="M 202.5 78.2 L 211.8 93.2 Q 212.7 94.6, 214.2 97.3 Q 215.6 100.0, 215.7 100.2 L 215.7 78.2 L 219.5 78.2 L 219.5 106.5 L 215.6 106.5 L 205.6 90.1 Q 204.5 88.2, 203.2 86.0 Q 202.0 83.8, 201.7 83.1 L 201.7 106.5 L 198.0 106.5 L 198.0 78.2 L 202.5 78.2 " fill="#0000FF"/>
<path class="bond-0 atom-0 atom-1" d="M 1098.8,605.5 L 1039.9,642.8" style="fill:none;fill-rule:evenodd;stroke:#191919;stroke-width:2.0px;stroke-linecap:butt;stroke-linejoin:miter;stroke-opacity:1"/>
<path class="bond-0 atom-0 atom-1" d="M 1039.9,642.8 L 981.1,680.1" style="fill:none;fill-rule:evenodd;stroke:#000000;stroke-width:2.0px;stroke-linecap:butt;stroke-linejoin:miter;stroke-opacity:1"/>
<path class="bond-1 atom-1 atom-2" d="M 981.1,680.1 L 852.0,612.6" style="fill:none;fill-rule:evenodd;stroke:#000000;stroke-width:2.0px;stroke-linecap:butt;stroke-linejoin:miter;stroke-opacity:1"/>
<path class="bond-2 atom-2 atom-3" d="M 852.0,612.6 L 729.0,690.6" style="fill:none;fill-rule:evenodd;stroke:#000000;stroke-width:2.0px;stroke-linecap:butt;stroke-linejoin:miter;stroke-opacity:1"/>
<path class="bond-3 atom-3 atom-4" d="M 729.0,690.6 L 600.0,623.1" style="fill:none;fill-rule:evenodd;stroke:#000000;stroke-width:2.0px;stroke-linecap:butt;stroke-linejoin:miter;stroke-opacity:1"/>
<path class="bond-4 atom-4 atom-5" d="M 600.0,623.1 L 477.0,701.1" style="fill:none;fill-rule:evenodd;stroke:#000000;stroke-width:2.0px;stroke-linecap:butt;stroke-linejoin:miter;stroke-opacity:1"/>
<path class="bond-5 atom-5 atom-6" d="M 477.0,701.1 L 348.0,633.5" style="fill:none;fill-rule:evenodd;stroke:#000000;stroke-width:2.0px;stroke-linecap:butt;stroke-linejoin:miter;stroke-opacity:1"/>
<path class="bond-6 atom-6 atom-7" d="M 359.1,639.4 L 356.4,573.3" style="fill:none;fill-rule:evenodd;stroke:#000000;stroke-width:2.0px;stroke-linecap:butt;stroke-linejoin:miter;stroke-opacity:1"/>
<path class="bond-6 atom-6 atom-7" d="M 356.4,573.3 L 353.6,507.1" style="fill:none;fill-rule:evenodd;stroke:#FF0000;stroke-width:2.0px;stroke-linecap:butt;stroke-linejoin:miter;stroke-opacity:1"/>
<path class="bond-6 atom-6 atom-7" d="M 337.3,640.3 L 334.6,574.2" style="fill:none;fill-rule:evenodd;stroke:#000000;stroke-width:2.0px;stroke-linecap:butt;stroke-linejoin:miter;stroke-opacity:1"/>
<path class="bond-6 atom-6 atom-7" d="M 334.6,574.2 L 331.8,508.0" style="fill:none;fill-rule:evenodd;stroke:#FF0000;stroke-width:2.0px;stroke-linecap:butt;stroke-linejoin:miter;stroke-opacity:1"/>
<path class="bond-7 atom-6 atom-8" d="M 348.0,633.5 L 295.4,666.9" style="fill:none;fill-rule:evenodd;stroke:#000000;stroke-width:2.0px;stroke-linecap:butt;stroke-linejoin:miter;stroke-opacity:1"/>
<path class="bond-7 atom-6 atom-8" d="M 295.4,666.9 L 242.8,700.2" style="fill:none;fill-rule:evenodd;stroke:#FF0000;stroke-width:2.0px;stroke-linecap:butt;stroke-linejoin:miter;stroke-opacity:1"/>
<path class="bond-8 atom-8 atom-9" d="M 207.2,702.2 L 154.7,674.8" style="fill:none;fill-rule:evenodd;stroke:#FF0000;stroke-width:2.0px;stroke-linecap:butt;stroke-linejoin:miter;stroke-opacity:1"/>
<path class="bond-8 atom-8 atom-9" d="M 154.7,674.8 L 102.3,647.4" style="fill:none;fill-rule:evenodd;stroke:#191919;stroke-width:2.0px;stroke-linecap:butt;stroke-linejoin:miter;stroke-opacity:1"/>
<path d="M 984.0,678.3 L 981.1,680.1 L 974.6,676.8" style="fill:none;stroke:#000000;stroke-width:2.0px;stroke-linecap:butt;stroke-linejoin:miter;stroke-opacity:1;"/>
<path d="M 858.5,616.0 L 852.0,612.6 L 845.9,616.5" style="fill:none;stroke:#000000;stroke-width:2.0px;stroke-linecap:butt;stroke-linejoin:miter;stroke-opacity:1;"/>
<path d="M 735.2,686.7 L 729.0,690.6 L 722.6,687.2" style="fill:none;stroke:#000000;stroke-width:2.0px;stroke-linecap:butt;stroke-linejoin:miter;stroke-opacity:1;"/>
<path d="M 606.5,626.5 L 600.0,623.1 L 593.9,627.0" style="fill:none;stroke:#000000;stroke-width:2.0px;stroke-linecap:butt;stroke-linejoin:miter;stroke-opacity:1;"/>
<path d="M 483.2,697.2 L 477.0,701.1 L 470.5,697.7" style="fill:none;stroke:#000000;stroke-width:2.0px;stroke-linecap:butt;stroke-linejoin:miter;stroke-opacity:1;"/>
<path d="M 354.4,636.9 L 348.0,633.5 L 345.3,635.2" style="fill:none;stroke:#000000;stroke-width:2.0px;stroke-linecap:butt;stroke-linejoin:miter;stroke-opacity:1;"/>
<path class="atom-0" d="M 1098.7 599.0 L 1102.9 594.7 L 1097.4 593.6 L 1098.2 590.8 L 1103.3 593.3 L 1102.6 587.8 L 1105.6 587.7 L 1104.7 593.3 L 1109.9 590.9 L 1110.8 593.6 L 1105.2 594.7 L 1109.2 598.9 L 1106.7 600.7 L 1104.0 595.4 L 1101.2 600.7 L 1098.7 599.0 " fill="#191919"/>
<path class="atom-7" d="M 328.9 488.1 Q 328.9 481.3, 332.3 477.5 Q 335.6 473.7, 341.9 473.7 Q 348.2 473.7, 351.6 477.5 Q 354.9 481.3, 354.9 488.1 Q 354.9 495.0, 351.5 498.9 Q 348.1 502.8, 341.9 502.8 Q 335.7 502.8, 332.3 498.9 Q 328.9 495.0, 328.9 488.1 M 341.9 499.6 Q 346.2 499.6, 348.6 496.7 Q 350.9 493.8, 350.9 488.1 Q 350.9 482.5, 348.6 479.7 Q 346.2 476.9, 341.9 476.9 Q 337.6 476.9, 335.2 479.7 Q 332.9 482.5, 332.9 488.1 Q 332.9 493.8, 335.2 496.7 Q 337.6 499.6, 341.9 499.6 " fill="#FF0000"/>
<path class="atom-8" d="M 212.0 711.6 Q 212.0 704.8, 215.3 701.0 Q 218.7 697.2, 225.0 697.2 Q 231.2 697.2, 234.6 701.0 Q 238.0 704.8, 238.0 711.6 Q 238.0 718.5, 234.6 722.4 Q 231.2 726.3, 225.0 726.3 Q 218.7 726.3, 215.3 722.4 Q 212.0 718.5, 212.0 711.6 M 225.0 723.1 Q 229.3 723.1, 231.6 720.2 Q 234.0 717.3, 234.0 711.6 Q 234.0 706.1, 231.6 703.3 Q 229.3 700.4, 225.0 700.4 Q 220.6 700.4, 218.3 703.2 Q 216.0 706.0, 216.0 711.6 Q 216.0 717.3, 218.3 720.2 Q 220.6 723.1, 225.0 723.1 " fill="#FF0000"/>
<path class="atom-9" d="M 90.6 640.8 L 94.7 636.6 L 89.2 635.5 L 90.1 632.6 L 95.1 635.2 L 94.4 629.6 L 97.4 629.6 L 96.6 635.2 L 101.7 632.8 L 102.6 635.5 L 97.0 636.5 L 101.0 640.8 L 98.6 642.6 L 95.8 637.3 L 93.0 642.6 L 90.6 640.8 " fill="#191919"/>
<path class="bond-0 atom-0 atom-1" d="M 272.6,931.2 L 316.5,986.7" style="fill:none;fill-rule:evenodd;stroke:#191919;stroke-width:2.0px;stroke-linecap:butt;stroke-linejoin:miter;stroke-opacity:1"/>
<path class="bond-0 atom-0 atom-1" d="M 316.5,986.7 L 360.3,1042.1" style="fill:none;fill-rule:evenodd;stroke:#000000;stroke-width:2.0px;stroke-linecap:butt;stroke-linejoin:miter;stroke-opacity:1"/>
<path class="bond-1 atom-1 atom-2" d="M 360.3,1042.1 L 504.4,1021.1" style="fill:none;fill-rule:evenodd;stroke:#000000;stroke-width:2.0px;stroke-linecap:butt;stroke-linejoin:miter;stroke-opacity:1"/>
<path class="bond-2 atom-2 atom-3" d="M 504.4,1021.1 L 558.2,885.7" style="fill:none;fill-rule:evenodd;stroke:#000000;stroke-width:2.0px;stroke-linecap:butt;stroke-linejoin:miter;stroke-opacity:1"/>
<path class="bond-2 atom-2 atom-3" d="M 529.3,1017.4 L 573.8,905.5" style="fill:none;fill-rule:evenodd;stroke:#000000;stroke-width:2.0px;stroke-linecap:butt;stroke-linejoin:miter;stroke-opacity:1"/>
<path class="bond-3 atom-3 atom-4" d="M 558.2,885.7 L 702.3,864.7" style="fill:none;fill-rule:evenodd;stroke:#000000;stroke-width:2.0px;stroke-linecap:butt;stroke-linejoin:miter;stroke-opacity:1"/>
<path class="bond-4 atom-4 atom-5" d="M 702.3,864.7 L 792.6,978.9" style="fill:none;fill-rule:evenodd;stroke:#000000;stroke-width:2.0px;stroke-linecap:butt;stroke-linejoin:miter;stroke-opacity:1"/>
<path class="bond-4 atom-4 atom-5" d="M 693.0,888.1 L 767.6,982.6" style="fill:none;fill-rule:evenodd;stroke:#000000;stroke-width:2.0px;stroke-linecap:butt;stroke-linejoin:miter;stroke-opacity:1"/>
<path class="bond-5 atom-5 atom-6" d="M 792.6,978.9 L 936.7,957.9" style="fill:none;fill-rule:evenodd;stroke:#000000;stroke-width:2.0px;stroke-linecap:butt;stroke-linejoin:miter;stroke-opacity:1"/>
<path class="bond-6 atom-5 atom-7" d="M 792.6,978.9 L 738.8,1114.3" style="fill:none;fill-rule:evenodd;stroke:#000000;stroke-width:2.0px;stroke-linecap:butt;stroke-linejoin:miter;stroke-opacity:1"/>
<path class="bond-7 atom-7 atom-8" d="M 738.8,1114.3 L 594.7,1135.3" style="fill:none;fill-rule:evenodd;stroke:#000000;stroke-width:2.0px;stroke-linecap:butt;stroke-linejoin:miter;stroke-opacity:1"/>
<path class="bond-7 atom-7 atom-8" d="M 723.2,1094.5 L 604.0,1111.9" style="fill:none;fill-rule:evenodd;stroke:#000000;stroke-width:2.0px;stroke-linecap:butt;stroke-linejoin:miter;stroke-opacity:1"/>
<path class="bond-8 atom-8 atom-2" d="M 594.7,1135.3 L 504.4,1021.1" style="fill:none;fill-rule:evenodd;stroke:#000000;stroke-width:2.0px;stroke-linecap:butt;stroke-linejoin:miter;stroke-opacity:1"/>
<path d="M 358.1,1039.3 L 360.3,1042.1 L 367.5,1041.1" style="fill:none;stroke:#000000;stroke-width:2.0px;stroke-linecap:butt;stroke-linejoin:miter;stroke-opacity:1;"/>
<path d="M 555.5,892.5 L 558.2,885.7 L 565.4,884.7" style="fill:none;stroke:#000000;stroke-width:2.0px;stroke-linecap:butt;stroke-linejoin:miter;stroke-opacity:1;"/>
<path d="M 695.1,865.7 L 702.3,864.7 L 706.8,870.4" style="fill:none;stroke:#000000;stroke-width:2.0px;stroke-linecap:butt;stroke-linejoin:miter;stroke-opacity:1;"/>
<path d="M 741.5,1107.5 L 738.8,1114.3 L 731.6,1115.3" style="fill:none;stroke:#000000;stroke-width:2.0px;stroke-linecap:butt;stroke-linejoin:miter;stroke-opacity:1;"/>
<path d="M 601.9,1134.3 L 594.7,1135.3 L 590.2,1129.6" style="fill:none;stroke:#000000;stroke-width:2.0px;stroke-linecap:butt;stroke-linejoin:miter;stroke-opacity:1;"/>
<path class="atom-0" d="M 264.6 924.7 L 268.8 920.4 L 263.3 919.3 L 264.1 916.5 L 269.2 919.0 L 268.5 913.5 L 271.5 913.4 L 270.6 919.0 L 275.8 916.6 L 276.7 919.3 L 271.1 920.4 L 275.1 924.6 L 272.6 926.4 L 269.9 921.1 L 267.1 926.4 L 264.6 924.7 " fill="#191919"/>
</svg>