<svg xmlns="http://www.w3.org/2000/svg" xmlns:rdkit="http://www.rdkit.org/xml" xmlns:xlink="http://www.w3.org/1999/xlink" version="1.1" baseProfile="full" xml:space="preserve" width="1200px" height="1600px" viewBox="0 0 1200 1600">
<!-- END OF HEADER -->
<rect style="opacity:1.0;fill:#FFFFFF;stroke:none" width="1200.0" height="1600.0" x="0.0" y="0.0"> </rect>
<path class="bond-0 atom-0 atom-1" d="M 67.9,186.9 L 94.1,206.5" style="fill:none;fill-rule:evenodd;stroke:#191919;stroke-width:2.0px;stroke-linecap:butt;stroke-linejoin:miter;stroke-opacity:1"/>
<path class="bond-0 atom-0 atom-1" d="M 94.1,206.5 L 120.4,226.0" style="fill:none;fill-rule:evenodd;stroke:#FF0000;stroke-width:2.0px;stroke-linecap:butt;stroke-linejoin:miter;stroke-opacity:1"/>
<path class="bond-1 atom-1 atom-2" d="M 148.3,230.4 L 180.6,216.5" style="fill:none;fill-rule:evenodd;stroke:#FF0000;stroke-width:2.0px;stroke-linecap:butt;stroke-linejoin:miter;stroke-opacity:1"/>
<path class="bond-1 atom-1 atom-2" d="M 180.6,216.5 L 212.9,202.6" style="fill:none;fill-rule:evenodd;stroke:#000000;stroke-width:2.0px;stroke-linecap:butt;stroke-linejoin:miter;stroke-opacity:1"/>
<path class="bond-2 atom-2 atom-3" d="M 218.9,207.0 L 223.2,170.4" style="fill:none;fill-rule:evenodd;stroke:#000000;stroke-width:2.0px;stroke-linecap:butt;stroke-linejoin:miter;stroke-opacity:1"/>
<path class="bond-2 atom-2 atom-3" d="M 223.2,170.4 L 227.5,133.8" style="fill:none;fill-rule:evenodd;stroke:#FF0000;stroke-width:2.0px;stroke-linecap:butt;stroke-linejoin:miter;stroke-opacity:1"/>
<path class="bond-2 atom-2 atom-3" d="M 206.1,205.5 L 210.4,168.9" style="fill:none;fill-rule:evenodd;stroke:#000000;stroke-width:2.0px;stroke-linecap:butt;stroke-linejoin:miter;stroke-opacity:1"/>
<path class="bond-2 atom-2 atom-3" d="M 210.4,168.9 L 214.7,132.3" style="fill:none;fill-rule:evenodd;stroke:#FF0000;stroke-width:2.0px;stroke-linecap:butt;stroke-linejoin:miter;stroke-opacity:1"/>
<path class="bond-3 atom-2 atom-4" d="M 212.9,202.6 L 281.5,253.7" style="fill:none;fill-rule:evenodd;stroke:#000000;stroke-width:2.0px;stroke-linecap:butt;stroke-linejoin:miter;stroke-opacity:1"/>
<path class="bond-4 atom-4 atom-5" d="M 281.5,253.7 L 360.1,219.9" style="fill:none;fill-rule:evenodd;stroke:#000000;stroke-width:2.0px;stroke-linecap:butt;stroke-linejoin:miter;stroke-opacity:1"/>
<path class="bond-5 atom-5 atom-6" d="M 360.1,219.9 L 428.8,271.0" style="fill:none;fill-rule:evenodd;stroke:#000000;stroke-width:2.0px;stroke-linecap:butt;stroke-linejoin:miter;stroke-opacity:1"/>
<path class="bond-6 atom-6 atom-7" d="M 428.8,271.0 L 507.3,237.2" style="fill:none;fill-rule:evenodd;stroke:#000000;stroke-width:2.0px;stroke-linecap:butt;stroke-linejoin:miter;stroke-opacity:1"/>
<path class="bond-7 atom-7 atom-8" d="M 513.3,241.6 L 517.6,205.0" style="fill:none;fill-rule:evenodd;stroke:#000000;stroke-width:2.0px;stroke-linecap:butt;stroke-linejoin:miter;stroke-opacity:1"/>
<path class="bond-7 atom-7 atom-8" d="M 517.6,205.0 L 521.9,168.4" style="fill:none;fill-rule:evenodd;stroke:#FF0000;stroke-width:2.0px;stroke-linecap:butt;stroke-linejoin:miter;stroke-opacity:1"/>
<path class="bond-7 atom-7 atom-8" d="M 500.5,240.1 L 504.8,203.5" style="fill:none;fill-rule:evenodd;stroke:#000000;stroke-width:2.0px;stroke-linecap:butt;stroke-linejoin:miter;stroke-opacity:1"/>
<path class="bond-7 atom-7 atom-8" d="M 504.8,203.5 L 509.1,166.9" style="fill:none;fill-rule:evenodd;stroke:#FF0000;stroke-width:2.0px;stroke-linecap:butt;stroke-linejoin:miter;stroke-opacity:1"/>
<path class="bond-8 atom-7 atom-9" d="M 507.3,237.2 L 535.6,258.2" style="fill:none;fill-rule:evenodd;stroke:#000000;stroke-width:2.0px;stroke-linecap:butt;stroke-linejoin:miter;stroke-opacity:1"/>
<path class="bond-8 atom-7 atom-9" d="M 535.6,258.2 L 563.9,279.3" style="fill:none;fill-rule:evenodd;stroke:#0000FF;stroke-width:2.0px;stroke-linecap:butt;stroke-linejoin:miter;stroke-opacity:1"/>
<path class="bond-9 atom-9 atom-10" d="M 588.0,283.1 L 621.3,268.8" style="fill:none;fill-rule:evenodd;stroke:#0000FF;stroke-width:2.0px;stroke-linecap:butt;stroke-linejoin:miter;stroke-opacity:1"/>
<path class="bond-9 atom-9 atom-10" d="M 621.3,268.8 L 654.5,254.4" style="fill:none;fill-rule:evenodd;stroke:#000000;stroke-width:2.0px;stroke-linecap:butt;stroke-linejoin:miter;stroke-opacity:1"/>
<path class="bond-10 atom-10 atom-11" d="M 654.5,254.4 L 723.2,305.6" style="fill:none;fill-rule:evenodd;stroke:#000000;stroke-width:2.0px;stroke-linecap:butt;stroke-linejoin:miter;stroke-opacity:1"/>
<path class="bond-11 atom-11 atom-12" d="M 723.2,305.6 L 801.8,271.7" style="fill:none;fill-rule:evenodd;stroke:#000000;stroke-width:2.0px;stroke-linecap:butt;stroke-linejoin:miter;stroke-opacity:1"/>
<path class="bond-12 atom-12 atom-13" d="M 801.8,271.7 L 811.7,186.7" style="fill:none;fill-rule:evenodd;stroke:#000000;stroke-width:2.0px;stroke-linecap:butt;stroke-linejoin:miter;stroke-opacity:1"/>
<path class="bond-12 atom-12 atom-13" d="M 815.4,265.9 L 823.6,195.6" style="fill:none;fill-rule:evenodd;stroke:#000000;stroke-width:2.0px;stroke-linecap:butt;stroke-linejoin:miter;stroke-opacity:1"/>
<path class="bond-13 atom-13 atom-14" d="M 811.7,186.7 L 890.3,152.9" style="fill:none;fill-rule:evenodd;stroke:#000000;stroke-width:2.0px;stroke-linecap:butt;stroke-linejoin:miter;stroke-opacity:1"/>
<path class="bond-14 atom-14 atom-15" d="M 890.3,152.9 L 958.9,204.0" style="fill:none;fill-rule:evenodd;stroke:#000000;stroke-width:2.0px;stroke-linecap:butt;stroke-linejoin:miter;stroke-opacity:1"/>
<path class="bond-14 atom-14 atom-15" d="M 888.6,167.6 L 945.3,209.9" style="fill:none;fill-rule:evenodd;stroke:#000000;stroke-width:2.0px;stroke-linecap:butt;stroke-linejoin:miter;stroke-opacity:1"/>
<path class="bond-15 atom-15 atom-16" d="M 958.9,204.0 L 1026.5,174.9" style="fill:none;fill-rule:evenodd;stroke:#000000;stroke-width:2.0px;stroke-linecap:butt;stroke-linejoin:miter;stroke-opacity:1"/>
<path class="bond-16 atom-16 atom-17" d="M 1048.6,178.4 L 1070.4,194.7" style="fill:none;fill-rule:evenodd;stroke:#000000;stroke-width:2.0px;stroke-linecap:butt;stroke-linejoin:miter;stroke-opacity:1"/>
<path class="bond-16 atom-16 atom-17" d="M 1070.4,194.7 L 1092.2,210.9" style="fill:none;fill-rule:evenodd;stroke:#FF0000;stroke-width:2.0px;stroke-linecap:butt;stroke-linejoin:miter;stroke-opacity:1"/>
<path class="bond-17 atom-16 atom-18" d="M 1039.3,155.2 L 1042.5,127.9" style="fill:none;fill-rule:evenodd;stroke:#000000;stroke-width:2.0px;stroke-linecap:butt;stroke-linejoin:miter;stroke-opacity:1"/>
<path class="bond-17 atom-16 atom-18" d="M 1042.5,127.9 L 1045.7,100.6" style="fill:none;fill-rule:evenodd;stroke:#FF0000;stroke-width:2.0px;stroke-linecap:butt;stroke-linejoin:miter;stroke-opacity:1"/>
<path class="bond-18 atom-15 atom-19" d="M 958.9,204.0 L 949.0,289.0" style="fill:none;fill-rule:evenodd;stroke:#000000;stroke-width:2.0px;stroke-linecap:butt;stroke-linejoin:miter;stroke-opacity:1"/>
<path class="bond-19 atom-19 atom-20" d="M 949.0,289.0 L 870.4,322.9" style="fill:none;fill-rule:evenodd;stroke:#000000;stroke-width:2.0px;stroke-linecap:butt;stroke-linejoin:miter;stroke-opacity:1"/>
<path class="bond-19 atom-19 atom-20" d="M 937.1,280.2 L 872.1,308.1" style="fill:none;fill-rule:evenodd;stroke:#000000;stroke-width:2.0px;stroke-linecap:butt;stroke-linejoin:miter;stroke-opacity:1"/>
<path class="bond-20 atom-20 atom-12" d="M 870.4,322.9 L 801.8,271.7" style="fill:none;fill-rule:evenodd;stroke:#000000;stroke-width:2.0px;stroke-linecap:butt;stroke-linejoin:miter;stroke-opacity:1"/>
<path d="M 211.3,203.3 L 212.9,202.6 L 216.4,205.1" style="fill:none;stroke:#000000;stroke-width:2.0px;stroke-linecap:butt;stroke-linejoin:miter;stroke-opacity:1;"/>
<path d="M 278.1,251.2 L 281.5,253.7 L 285.5,252.0" style="fill:none;stroke:#000000;stroke-width:2.0px;stroke-linecap:butt;stroke-linejoin:miter;stroke-opacity:1;"/>
<path d="M 356.2,221.6 L 360.1,219.9 L 363.6,222.4" style="fill:none;stroke:#000000;stroke-width:2.0px;stroke-linecap:butt;stroke-linejoin:miter;stroke-opacity:1;"/>
<path d="M 425.3,268.4 L 428.8,271.0 L 432.7,269.3" style="fill:none;stroke:#000000;stroke-width:2.0px;stroke-linecap:butt;stroke-linejoin:miter;stroke-opacity:1;"/>
<path d="M 503.4,238.8 L 507.3,237.2 L 508.8,238.2" style="fill:none;stroke:#000000;stroke-width:2.0px;stroke-linecap:butt;stroke-linejoin:miter;stroke-opacity:1;"/>
<path d="M 652.9,255.2 L 654.5,254.4 L 658.0,257.0" style="fill:none;stroke:#000000;stroke-width:2.0px;stroke-linecap:butt;stroke-linejoin:miter;stroke-opacity:1;"/>
<path d="M 719.7,303.0 L 723.2,305.6 L 727.1,303.9" style="fill:none;stroke:#000000;stroke-width:2.0px;stroke-linecap:butt;stroke-linejoin:miter;stroke-opacity:1;"/>
<path d="M 811.2,191.0 L 811.7,186.7 L 815.7,185.0" style="fill:none;stroke:#000000;stroke-width:2.0px;stroke-linecap:butt;stroke-linejoin:miter;stroke-opacity:1;"/>
<path d="M 886.4,154.6 L 890.3,152.9 L 893.8,155.4" style="fill:none;stroke:#000000;stroke-width:2.0px;stroke-linecap:butt;stroke-linejoin:miter;stroke-opacity:1;"/>
<path d="M 949.5,284.8 L 949.0,289.0 L 945.0,290.7" style="fill:none;stroke:#000000;stroke-width:2.0px;stroke-linecap:butt;stroke-linejoin:miter;stroke-opacity:1;"/>
<path d="M 874.3,321.2 L 870.4,322.9 L 866.9,320.3" style="fill:none;stroke:#000000;stroke-width:2.0px;stroke-linecap:butt;stroke-linejoin:miter;stroke-opacity:1;"/>
<path class="atom-0" d="M 61.2 182.6 L 64.7 179.0 L 60.0 178.0 L 60.7 175.6 L 65.1 177.8 L 64.4 173.0 L 67.0 173.0 L 66.3 177.7 L 70.7 175.7 L 71.5 178.0 L 66.7 178.9 L 70.1 182.6 L 68.0 184.1 L 65.6 179.5 L 63.3 184.1 L 61.2 182.6 " fill="#191919"/>
<path class="atom-1" d="M 123.2 236.5 Q 123.2 230.7, 126.1 227.4 Q 129.0 224.2, 134.3 224.2 Q 139.7 224.2, 142.6 227.4 Q 145.5 230.7, 145.5 236.5 Q 145.5 242.4, 142.6 245.7 Q 139.7 249.1, 134.3 249.1 Q 129.0 249.1, 126.1 245.7 Q 123.2 242.4, 123.2 236.5 M 134.3 246.3 Q 138.0 246.3, 140.0 243.9 Q 142.0 241.4, 142.0 236.5 Q 142.0 231.7, 140.0 229.3 Q 138.0 226.9, 134.3 226.9 Q 130.6 226.9, 128.6 229.3 Q 126.6 231.7, 126.6 236.5 Q 126.6 241.4, 128.6 243.9 Q 130.6 246.3, 134.3 246.3 " fill="#FF0000"/>
<path class="atom-3" d="M 211.8 117.7 Q 211.8 111.8, 214.7 108.6 Q 217.5 105.3, 222.9 105.3 Q 228.3 105.3, 231.2 108.6 Q 234.0 111.8, 234.0 117.7 Q 234.0 123.5, 231.1 126.9 Q 228.2 130.2, 222.9 130.2 Q 217.6 130.2, 214.7 126.9 Q 211.8 123.6, 211.8 117.7 M 222.9 127.5 Q 226.6 127.5, 228.6 125.0 Q 230.6 122.5, 230.6 117.7 Q 230.6 112.9, 228.6 110.5 Q 226.6 108.1, 222.9 108.1 Q 219.2 108.1, 217.2 110.5 Q 215.2 112.9, 215.2 117.7 Q 215.2 122.6, 217.2 125.0 Q 219.2 127.5, 222.9 127.5 " fill="#FF0000"/>
<path class="atom-8" d="M 506.2 152.2 Q 506.2 146.4, 509.1 143.2 Q 512.0 139.9, 517.3 139.9 Q 522.7 139.9, 525.6 143.2 Q 528.4 146.4, 528.4 152.2 Q 528.4 158.1, 525.5 161.5 Q 522.6 164.8, 517.3 164.8 Q 512.0 164.8, 509.1 161.5 Q 506.2 158.2, 506.2 152.2 M 517.3 162.1 Q 521.0 162.1, 523.0 159.6 Q 525.0 157.1, 525.0 152.2 Q 525.0 147.5, 523.0 145.1 Q 521.0 142.6, 517.3 142.6 Q 513.6 142.6, 511.6 145.0 Q 509.6 147.4, 509.6 152.2 Q 509.6 157.1, 511.6 159.6 Q 513.6 162.1, 517.3 162.1 " fill="#FF0000"/>
<path class="atom-9" d="M 570.6 276.2 L 578.5 289.0 Q 579.3 290.3, 580.6 292.6 Q 581.9 294.9, 581.9 295.0 L 581.9 276.2 L 585.1 276.2 L 585.1 300.4 L 581.8 300.4 L 573.3 286.4 Q 572.3 284.7, 571.2 282.8 Q 570.2 281.0, 569.9 280.4 L 569.9 300.4 L 566.8 300.4 L 566.8 276.2 L 570.6 276.2 " fill="#0000FF"/>
<path class="atom-9" d="M 566.5 302.8 L 569.8 302.8 L 569.8 313.1 L 582.2 313.1 L 582.2 302.8 L 585.4 302.8 L 585.4 327.1 L 582.2 327.1 L 582.2 315.9 L 569.8 315.9 L 569.8 327.1 L 566.5 327.1 L 566.5 302.8 " fill="#0000FF"/>
<path class="atom-16" d="M 1041.1 169.6 Q 1043.4 170.2, 1044.6 171.6 Q 1045.8 173.1, 1045.8 175.1 Q 1045.8 178.5, 1043.6 180.4 Q 1041.5 182.3, 1037.4 182.3 L 1029.3 182.3 L 1029.3 158.1 L 1036.5 158.1 Q 1040.6 158.1, 1042.7 159.7 Q 1044.8 161.4, 1044.8 164.5 Q 1044.8 168.2, 1041.1 169.6 M 1032.5 160.8 L 1032.5 168.4 L 1036.5 168.4 Q 1038.8 168.4, 1040.1 167.4 Q 1041.3 166.4, 1041.3 164.5 Q 1041.3 160.8, 1036.5 160.8 L 1032.5 160.8 M 1037.4 179.6 Q 1039.8 179.6, 1041.1 178.4 Q 1042.3 177.3, 1042.3 175.1 Q 1042.3 173.2, 1040.9 172.2 Q 1039.6 171.1, 1036.9 171.1 L 1032.5 171.1 L 1032.5 179.6 L 1037.4 179.6 " fill="#000000"/>
<path class="atom-17" d="M 1095.0 221.4 Q 1095.0 215.6, 1097.9 212.3 Q 1100.8 209.1, 1106.1 209.1 Q 1111.5 209.1, 1114.4 212.3 Q 1117.3 215.6, 1117.3 221.4 Q 1117.3 227.3, 1114.4 230.6 Q 1111.4 233.9, 1106.1 233.9 Q 1100.8 233.9, 1097.9 230.6 Q 1095.0 227.3, 1095.0 221.4 M 1106.1 231.2 Q 1109.8 231.2, 1111.8 228.7 Q 1113.8 226.2, 1113.8 221.4 Q 1113.8 216.6, 1111.8 214.2 Q 1109.8 211.8, 1106.1 211.8 Q 1102.4 211.8, 1100.4 214.2 Q 1098.4 216.6, 1098.4 221.4 Q 1098.4 226.3, 1100.4 228.7 Q 1102.4 231.2, 1106.1 231.2 " fill="#FF0000"/>
<path class="atom-17" d="M 1121.0 209.3 L 1124.3 209.3 L 1124.3 219.6 L 1136.7 219.6 L 1136.7 209.3 L 1140.0 209.3 L 1140.0 233.6 L 1136.7 233.6 L 1136.7 222.4 L 1124.3 222.4 L 1124.3 233.6 L 1121.0 233.6 L 1121.0 209.3 " fill="#FF0000"/>
<path class="atom-18" d="M 1036.4 85.3 Q 1036.4 79.4, 1039.3 76.2 Q 1042.1 72.9, 1047.5 72.9 Q 1052.9 72.9, 1055.8 76.2 Q 1058.6 79.4, 1058.6 85.3 Q 1058.6 91.1, 1055.7 94.5 Q 1052.8 97.8, 1047.5 97.8 Q 1042.2 97.8, 1039.3 94.5 Q 1036.4 91.2, 1036.4 85.3 M 1047.5 95.1 Q 1051.2 95.1, 1053.2 92.6 Q 1055.2 90.1, 1055.2 85.3 Q 1055.2 80.5, 1053.2 78.1 Q 1051.2 75.7, 1047.5 75.7 Q 1043.8 75.7, 1041.8 78.1 Q 1039.8 80.5, 1039.8 85.3 Q 1039.8 90.2, 1041.8 92.6 Q 1043.8 95.1, 1047.5 95.1 " fill="#FF0000"/>
<path class="atom-18" d="M 1062.4 73.2 L 1065.7 73.2 L 1065.7 83.5 L 1078.1 83.5 L 1078.1 73.2 L 1081.4 73.2 L 1081.4 97.4 L 1078.1 97.4 L 1078.1 86.2 L 1065.7 86.2 L 1065.7 97.4 L 1062.4 97.4 L 1062.4 73.2 " fill="#FF0000"/>
<path class="bond-0 atom-0 atom-1" d="M 893.7,602.8 L 858.8,624.9" style="fill:none;fill-rule:evenodd;stroke:#191919;stroke-width:2.0px;stroke-linecap:butt;stroke-linejoin:miter;stroke-opacity:1"/>
<path class="bond-0 atom-0 atom-1" d="M 858.8,624.9 L 823.9,647.0" style="fill:none;fill-rule:evenodd;stroke:#000000;stroke-width:2.0px;stroke-linecap:butt;stroke-linejoin:miter;stroke-opacity:1"/>
<path class="bond-1 atom-1 atom-2" d="M 823.9,647.0 L 748.1,607.3" style="fill:none;fill-rule:evenodd;stroke:#000000;stroke-width:2.0px;stroke-linecap:butt;stroke-linejoin:miter;stroke-opacity:1"/>
<path class="bond-2 atom-2 atom-3" d="M 748.1,607.3 L 675.8,653.2" style="fill:none;fill-rule:evenodd;stroke:#000000;stroke-width:2.0px;stroke-linecap:butt;stroke-linejoin:miter;stroke-opacity:1"/>
<path class="bond-3 atom-3 atom-4" d="M 675.8,653.2 L 600.0,613.5" style="fill:none;fill-rule:evenodd;stroke:#000000;stroke-width:2.0px;stroke-linecap:butt;stroke-linejoin:miter;stroke-opacity:1"/>
<path class="bond-4 atom-4 atom-5" d="M 600.0,613.5 L 527.7,659.3" style="fill:none;fill-rule:evenodd;stroke:#000000;stroke-width:2.0px;stroke-linecap:butt;stroke-linejoin:miter;stroke-opacity:1"/>
<path class="bond-5 atom-5 atom-6" d="M 527.7,659.3 L 451.9,619.6" style="fill:none;fill-rule:evenodd;stroke:#000000;stroke-width:2.0px;stroke-linecap:butt;stroke-linejoin:miter;stroke-opacity:1"/>
<path class="bond-6 atom-6 atom-7" d="M 458.5,623.1 L 456.9,586.2" style="fill:none;fill-rule:evenodd;stroke:#000000;stroke-width:2.0px;stroke-linecap:butt;stroke-linejoin:miter;stroke-opacity:1"/>
<path class="bond-6 atom-6 atom-7" d="M 456.9,586.2 L 455.4,549.3" style="fill:none;fill-rule:evenodd;stroke:#FF0000;stroke-width:2.0px;stroke-linecap:butt;stroke-linejoin:miter;stroke-opacity:1"/>
<path class="bond-6 atom-6 atom-7" d="M 445.7,623.6 L 444.1,586.7" style="fill:none;fill-rule:evenodd;stroke:#000000;stroke-width:2.0px;stroke-linecap:butt;stroke-linejoin:miter;stroke-opacity:1"/>
<path class="bond-6 atom-6 atom-7" d="M 444.1,586.7 L 442.6,549.9" style="fill:none;fill-rule:evenodd;stroke:#FF0000;stroke-width:2.0px;stroke-linecap:butt;stroke-linejoin:miter;stroke-opacity:1"/>
<path class="bond-7 atom-6 atom-8" d="M 451.9,619.6 L 422.8,638.1" style="fill:none;fill-rule:evenodd;stroke:#000000;stroke-width:2.0px;stroke-linecap:butt;stroke-linejoin:miter;stroke-opacity:1"/>
<path class="bond-7 atom-6 atom-8" d="M 422.8,638.1 L 393.6,656.6" style="fill:none;fill-rule:evenodd;stroke:#FF0000;stroke-width:2.0px;stroke-linecap:butt;stroke-linejoin:miter;stroke-opacity:1"/>
<path class="bond-8 atom-8 atom-9" d="M 365.7,658.2 L 336.3,642.8" style="fill:none;fill-rule:evenodd;stroke:#FF0000;stroke-width:2.0px;stroke-linecap:butt;stroke-linejoin:miter;stroke-opacity:1"/>
<path class="bond-8 atom-8 atom-9" d="M 336.3,642.8 L 306.9,627.4" style="fill:none;fill-rule:evenodd;stroke:#191919;stroke-width:2.0px;stroke-linecap:butt;stroke-linejoin:miter;stroke-opacity:1"/>
<path d="M 825.7,645.9 L 823.9,647.0 L 820.1,645.0" style="fill:none;stroke:#000000;stroke-width:2.0px;stroke-linecap:butt;stroke-linejoin:miter;stroke-opacity:1;"/>
<path d="M 751.9,609.3 L 748.1,607.3 L 744.5,609.6" style="fill:none;stroke:#000000;stroke-width:2.0px;stroke-linecap:butt;stroke-linejoin:miter;stroke-opacity:1;"/>
<path d="M 679.4,650.9 L 675.8,653.2 L 672.0,651.2" style="fill:none;stroke:#000000;stroke-width:2.0px;stroke-linecap:butt;stroke-linejoin:miter;stroke-opacity:1;"/>
<path d="M 603.8,615.5 L 600.0,613.5 L 596.4,615.8" style="fill:none;stroke:#000000;stroke-width:2.0px;stroke-linecap:butt;stroke-linejoin:miter;stroke-opacity:1;"/>
<path d="M 531.3,657.0 L 527.7,659.3 L 523.9,657.3" style="fill:none;stroke:#000000;stroke-width:2.0px;stroke-linecap:butt;stroke-linejoin:miter;stroke-opacity:1;"/>
<path d="M 455.7,621.6 L 451.9,619.6 L 450.5,620.6" style="fill:none;stroke:#000000;stroke-width:2.0px;stroke-linecap:butt;stroke-linejoin:miter;stroke-opacity:1;"/>
<path class="atom-0" d="M 891.6 598.5 L 895.2 594.9 L 890.4 593.9 L 891.2 591.5 L 895.5 593.7 L 894.9 588.9 L 897.5 588.9 L 896.7 593.6 L 901.2 591.6 L 901.9 593.9 L 897.1 594.8 L 900.5 598.5 L 898.5 600.0 L 896.1 595.4 L 893.7 600.0 L 891.6 598.5 " fill="#191919"/>
<path class="atom-7" d="M 437.2 534.2 Q 437.2 528.4, 440.1 525.1 Q 443.0 521.9, 448.4 521.9 Q 453.7 521.9, 456.6 525.1 Q 459.5 528.4, 459.5 534.2 Q 459.5 540.1, 456.6 543.5 Q 453.7 546.8, 448.4 546.8 Q 443.0 546.8, 440.1 543.5 Q 437.2 540.1, 437.2 534.2 M 448.4 544.0 Q 452.1 544.0, 454.0 541.6 Q 456.1 539.1, 456.1 534.2 Q 456.1 529.5, 454.0 527.1 Q 452.1 524.6, 448.4 524.6 Q 444.7 524.6, 442.6 527.0 Q 440.7 529.4, 440.7 534.2 Q 440.7 539.1, 442.6 541.6 Q 444.7 544.0, 448.4 544.0 " fill="#FF0000"/>
<path class="atom-8" d="M 368.5 665.5 Q 368.5 659.7, 371.4 656.5 Q 374.3 653.2, 379.6 653.2 Q 385.0 653.2, 387.9 656.5 Q 390.8 659.7, 390.8 665.5 Q 390.8 671.4, 387.9 674.8 Q 384.9 678.1, 379.6 678.1 Q 374.3 678.1, 371.4 674.8 Q 368.5 671.5, 368.5 665.5 M 379.6 675.4 Q 383.3 675.4, 385.3 672.9 Q 387.3 670.4, 387.3 665.5 Q 387.3 660.8, 385.3 658.4 Q 383.3 656.0, 379.6 656.0 Q 375.9 656.0, 373.9 658.4 Q 371.9 660.7, 371.9 665.5 Q 371.9 670.4, 373.9 672.9 Q 375.9 675.4, 379.6 675.4 " fill="#FF0000"/>
<path class="atom-9" d="M 299.3 623.1 L 302.8 619.5 L 298.1 618.5 L 298.8 616.1 L 303.2 618.3 L 302.5 613.5 L 305.1 613.5 L 304.4 618.2 L 308.8 616.2 L 309.6 618.5 L 304.8 619.4 L 308.2 623.1 L 306.1 624.6 L 303.7 620.0 L 301.3 624.6 L 299.3 623.1 " fill="#191919"/>
<path class="bond-0 atom-0 atom-1" d="M 408.3,959.2 L 434.1,992.0" style="fill:none;fill-rule:evenodd;stroke:#191919;stroke-width:2.0px;stroke-linecap:butt;stroke-linejoin:miter;stroke-opacity:1"/>
<path class="bond-0 atom-0 atom-1" d="M 434.1,992.0 L 460.0,1024.7" style="fill:none;fill-rule:evenodd;stroke:#000000;stroke-width:2.0px;stroke-linecap:butt;stroke-linejoin:miter;stroke-opacity:1"/>
<path class="bond-1 atom-1 atom-2" d="M 460.0,1024.7 L 544.7,1012.4" style="fill:none;fill-rule:evenodd;stroke:#000000;stroke-width:2.0px;stroke-linecap:butt;stroke-linejoin:miter;stroke-opacity:1"/>
<path class="bond-2 atom-2 atom-3" d="M 544.7,1012.4 L 576.3,932.9" style="fill:none;fill-rule:evenodd;stroke:#000000;stroke-width:2.0px;stroke-linecap:butt;stroke-linejoin:miter;stroke-opacity:1"/>
<path class="bond-2 atom-2 atom-3" d="M 559.4,1010.2 L 585.5,944.5" style="fill:none;fill-rule:evenodd;stroke:#000000;stroke-width:2.0px;stroke-linecap:butt;stroke-linejoin:miter;stroke-opacity:1"/>
<path class="bond-3 atom-3 atom-4" d="M 576.3,932.9 L 661.0,920.5" style="fill:none;fill-rule:evenodd;stroke:#000000;stroke-width:2.0px;stroke-linecap:butt;stroke-linejoin:miter;stroke-opacity:1"/>
<path class="bond-4 atom-4 atom-5" d="M 661.0,920.5 L 714.1,987.6" style="fill:none;fill-rule:evenodd;stroke:#000000;stroke-width:2.0px;stroke-linecap:butt;stroke-linejoin:miter;stroke-opacity:1"/>
<path class="bond-4 atom-4 atom-5" d="M 655.5,934.3 L 699.4,989.8" style="fill:none;fill-rule:evenodd;stroke:#000000;stroke-width:2.0px;stroke-linecap:butt;stroke-linejoin:miter;stroke-opacity:1"/>
<path class="bond-5 atom-5 atom-6" d="M 714.1,987.6 L 798.7,975.3" style="fill:none;fill-rule:evenodd;stroke:#000000;stroke-width:2.0px;stroke-linecap:butt;stroke-linejoin:miter;stroke-opacity:1"/>
<path class="bond-6 atom-5 atom-7" d="M 714.1,987.6 L 682.4,1067.1" style="fill:none;fill-rule:evenodd;stroke:#000000;stroke-width:2.0px;stroke-linecap:butt;stroke-linejoin:miter;stroke-opacity:1"/>
<path class="bond-7 atom-7 atom-8" d="M 682.4,1067.1 L 597.8,1079.5" style="fill:none;fill-rule:evenodd;stroke:#000000;stroke-width:2.0px;stroke-linecap:butt;stroke-linejoin:miter;stroke-opacity:1"/>
<path class="bond-7 atom-7 atom-8" d="M 673.3,1055.5 L 603.2,1065.7" style="fill:none;fill-rule:evenodd;stroke:#000000;stroke-width:2.0px;stroke-linecap:butt;stroke-linejoin:miter;stroke-opacity:1"/>
<path class="bond-8 atom-8 atom-2" d="M 597.8,1079.5 L 544.7,1012.4" style="fill:none;fill-rule:evenodd;stroke:#000000;stroke-width:2.0px;stroke-linecap:butt;stroke-linejoin:miter;stroke-opacity:1"/>
<path d="M 458.8,1023.1 L 460.0,1024.7 L 464.3,1024.1" style="fill:none;stroke:#000000;stroke-width:2.0px;stroke-linecap:butt;stroke-linejoin:miter;stroke-opacity:1;"/>
<path d="M 574.8,936.8 L 576.3,932.9 L 580.6,932.2" style="fill:none;stroke:#000000;stroke-width:2.0px;stroke-linecap:butt;stroke-linejoin:miter;stroke-opacity:1;"/>
<path d="M 656.8,921.1 L 661.0,920.5 L 663.7,923.8" style="fill:none;stroke:#000000;stroke-width:2.0px;stroke-linecap:butt;stroke-linejoin:miter;stroke-opacity:1;"/>
<path d="M 684.0,1063.2 L 682.4,1067.1 L 678.2,1067.8" style="fill:none;stroke:#000000;stroke-width:2.0px;stroke-linecap:butt;stroke-linejoin:miter;stroke-opacity:1;"/>
<path d="M 602.0,1078.9 L 597.8,1079.5 L 595.1,1076.2" style="fill:none;stroke:#000000;stroke-width:2.0px;stroke-linecap:butt;stroke-linejoin:miter;stroke-opacity:1;"/>
<path class="atom-0" d="M 402.4 954.9 L 406.0 951.3 L 401.3 950.3 L 402.0 947.9 L 406.3 950.1 L 405.7 945.3 L 408.3 945.3 L 407.6 950.0 L 412.0 948.0 L 412.7 950.3 L 407.9 951.2 L 411.4 954.9 L 409.3 956.4 L 406.9 951.9 L 404.5 956.4 L 402.4 954.9 " fill="#191919"/>
<path class="bond-0 atom-0 atom-1" d="M 422.1,1435.2 L 456.7,1419.3" style="fill:none;fill-rule:evenodd;stroke:#191919;stroke-width:2.0px;stroke-linecap:butt;stroke-linejoin:miter;stroke-opacity:1"/>
<path class="bond-0 atom-0 atom-1" d="M 456.7,1419.3 L 491.4,1403.5" style="fill:none;fill-rule:evenodd;stroke:#000000;stroke-width:2.0px;stroke-linecap:butt;stroke-linejoin:miter;stroke-opacity:1"/>
<path class="bond-1 atom-1 atom-2" d="M 491.4,1403.5 L 561.1,1453.1" style="fill:none;fill-rule:evenodd;stroke:#000000;stroke-width:2.0px;stroke-linecap:butt;stroke-linejoin:miter;stroke-opacity:1"/>
<path class="bond-2 atom-2 atom-3" d="M 561.1,1453.1 L 638.9,1417.6" style="fill:none;fill-rule:evenodd;stroke:#000000;stroke-width:2.0px;stroke-linecap:butt;stroke-linejoin:miter;stroke-opacity:1"/>
<path class="bond-3 atom-3 atom-4" d="M 645.0,1421.9 L 648.5,1385.2" style="fill:none;fill-rule:evenodd;stroke:#000000;stroke-width:2.0px;stroke-linecap:butt;stroke-linejoin:miter;stroke-opacity:1"/>
<path class="bond-3 atom-3 atom-4" d="M 648.5,1385.2 L 652.0,1348.5" style="fill:none;fill-rule:evenodd;stroke:#FF0000;stroke-width:2.0px;stroke-linecap:butt;stroke-linejoin:miter;stroke-opacity:1"/>
<path class="bond-3 atom-3 atom-4" d="M 632.2,1420.7 L 635.7,1384.0" style="fill:none;fill-rule:evenodd;stroke:#000000;stroke-width:2.0px;stroke-linecap:butt;stroke-linejoin:miter;stroke-opacity:1"/>
<path class="bond-3 atom-3 atom-4" d="M 635.7,1384.0 L 639.2,1347.3" style="fill:none;fill-rule:evenodd;stroke:#FF0000;stroke-width:2.0px;stroke-linecap:butt;stroke-linejoin:miter;stroke-opacity:1"/>
<path class="bond-4 atom-3 atom-5" d="M 638.9,1417.6 L 666.8,1437.4" style="fill:none;fill-rule:evenodd;stroke:#000000;stroke-width:2.0px;stroke-linecap:butt;stroke-linejoin:miter;stroke-opacity:1"/>
<path class="bond-4 atom-3 atom-5" d="M 666.8,1437.4 L 694.7,1457.3" style="fill:none;fill-rule:evenodd;stroke:#FF0000;stroke-width:2.0px;stroke-linecap:butt;stroke-linejoin:miter;stroke-opacity:1"/>
<path class="bond-5 atom-5 atom-6" d="M 722.6,1460.8 L 752.8,1447.0" style="fill:none;fill-rule:evenodd;stroke:#FF0000;stroke-width:2.0px;stroke-linecap:butt;stroke-linejoin:miter;stroke-opacity:1"/>
<path class="bond-5 atom-5 atom-6" d="M 752.8,1447.0 L 783.0,1433.3" style="fill:none;fill-rule:evenodd;stroke:#191919;stroke-width:2.0px;stroke-linecap:butt;stroke-linejoin:miter;stroke-opacity:1"/>
<path d="M 489.6,1404.3 L 491.4,1403.5 L 494.9,1406.0" style="fill:none;stroke:#000000;stroke-width:2.0px;stroke-linecap:butt;stroke-linejoin:miter;stroke-opacity:1;"/>
<path d="M 557.6,1450.7 L 561.1,1453.1 L 565.0,1451.4" style="fill:none;stroke:#000000;stroke-width:2.0px;stroke-linecap:butt;stroke-linejoin:miter;stroke-opacity:1;"/>
<path d="M 635.0,1419.4 L 638.9,1417.6 L 640.3,1418.6" style="fill:none;stroke:#000000;stroke-width:2.0px;stroke-linecap:butt;stroke-linejoin:miter;stroke-opacity:1;"/>
<path class="atom-0" d="M 409.0 1436.4 L 412.5 1432.7 L 407.8 1431.8 L 408.5 1429.4 L 412.9 1431.6 L 412.3 1426.8 L 414.8 1426.8 L 414.1 1431.5 L 418.5 1429.5 L 419.3 1431.8 L 414.5 1432.7 L 417.9 1436.3 L 415.8 1437.8 L 413.5 1433.3 L 411.1 1437.8 L 409.0 1436.4 " fill="#191919"/>
<path class="atom-4" d="M 635.9 1332.5 Q 635.9 1326.7, 638.8 1323.4 Q 641.7 1320.2, 647.0 1320.2 Q 652.4 1320.2, 655.3 1323.4 Q 658.2 1326.7, 658.2 1332.5 Q 658.2 1338.4, 655.3 1341.7 Q 652.3 1345.0, 647.0 1345.0 Q 641.7 1345.0, 638.8 1341.7 Q 635.9 1338.4, 635.9 1332.5 M 647.0 1342.3 Q 650.7 1342.3, 652.7 1339.8 Q 654.7 1337.3, 654.7 1332.5 Q 654.7 1327.7, 652.7 1325.3 Q 650.7 1322.9, 647.0 1322.9 Q 643.3 1322.9, 641.3 1325.3 Q 639.3 1327.7, 639.3 1332.5 Q 639.3 1337.4, 641.3 1339.8 Q 643.3 1342.3, 647.0 1342.3 " fill="#FF0000"/>
<path class="atom-5" d="M 697.5 1467.3 Q 697.5 1461.5, 700.4 1458.2 Q 703.3 1455.0, 708.6 1455.0 Q 714.0 1455.0, 716.9 1458.2 Q 719.8 1461.5, 719.8 1467.3 Q 719.8 1473.2, 716.8 1476.5 Q 713.9 1479.8, 708.6 1479.8 Q 703.3 1479.8, 700.4 1476.5 Q 697.5 1473.2, 697.5 1467.3 M 708.6 1477.1 Q 712.3 1477.1, 714.3 1474.6 Q 716.3 1472.1, 716.3 1467.3 Q 716.3 1462.5, 714.3 1460.1 Q 712.3 1457.7, 708.6 1457.7 Q 704.9 1457.7, 702.9 1460.1 Q 700.9 1462.5, 700.9 1467.3 Q 700.9 1472.2, 702.9 1474.6 Q 704.9 1477.1, 708.6 1477.1 " fill="#FF0000"/>
<path class="atom-6" d="M 781.9 1429.0 L 785.5 1425.3 L 780.7 1424.4 L 781.4 1421.9 L 785.8 1424.1 L 785.2 1419.4 L 787.7 1419.3 L 787.0 1424.1 L 791.4 1422.0 L 792.2 1424.4 L 787.4 1425.3 L 790.8 1428.9 L 788.7 1430.4 L 786.4 1425.9 L 784.0 1430.4 L 781.9 1429.0 " fill="#191919"/>
</svg>