<svg xmlns="http://www.w3.org/2000/svg" xmlns:rdkit="http://www.rdkit.org/xml" xmlns:xlink="http://www.w3.org/1999/xlink" version="1.1" baseProfile="full" xml:space="preserve" width="1200px" height="800px" viewBox="0 0 1200 800">
<!-- END OF HEADER -->
<rect style="opacity:1.0;fill:#FFFFFF;stroke:none" width="1200.0" height="800.0" x="0.0" y="0.0"> </rect>
<path class="bond-0 atom-0 atom-1" d="M 79.0,246.4 L 119.6,225.2" style="fill:none;fill-rule:evenodd;stroke:#191919;stroke-width:2.0px;stroke-linecap:butt;stroke-linejoin:miter;stroke-opacity:1"/>
<path class="bond-0 atom-0 atom-1" d="M 119.6,225.2 L 160.2,204.1" style="fill:none;fill-rule:evenodd;stroke:#FF0000;stroke-width:2.0px;stroke-linecap:butt;stroke-linejoin:miter;stroke-opacity:1"/>
<path class="bond-1 atom-1 atom-2" d="M 194.4,206.1 L 237.6,233.7" style="fill:none;fill-rule:evenodd;stroke:#FF0000;stroke-width:2.0px;stroke-linecap:butt;stroke-linejoin:miter;stroke-opacity:1"/>
<path class="bond-1 atom-1 atom-2" d="M 237.6,233.7 L 280.9,261.4" style="fill:none;fill-rule:evenodd;stroke:#000000;stroke-width:2.0px;stroke-linecap:butt;stroke-linejoin:miter;stroke-opacity:1"/>
<path class="bond-2 atom-2 atom-3" d="M 280.9,261.4 L 390.0,204.6" style="fill:none;fill-rule:evenodd;stroke:#000000;stroke-width:2.0px;stroke-linecap:butt;stroke-linejoin:miter;stroke-opacity:1"/>
<path class="bond-3 atom-3 atom-4" d="M 390.0,204.6 L 493.6,270.7" style="fill:none;fill-rule:evenodd;stroke:#000000;stroke-width:2.0px;stroke-linecap:butt;stroke-linejoin:miter;stroke-opacity:1"/>
<path class="bond-4 atom-4 atom-5" d="M 493.6,270.7 L 602.7,214.0" style="fill:none;fill-rule:evenodd;stroke:#000000;stroke-width:2.0px;stroke-linecap:butt;stroke-linejoin:miter;stroke-opacity:1"/>
<path class="bond-5 atom-5 atom-6" d="M 602.7,214.0 L 706.4,280.1" style="fill:none;fill-rule:evenodd;stroke:#000000;stroke-width:2.0px;stroke-linecap:butt;stroke-linejoin:miter;stroke-opacity:1"/>
<path class="bond-6 atom-6 atom-7" d="M 706.4,280.1 L 815.4,223.4" style="fill:none;fill-rule:evenodd;stroke:#000000;stroke-width:2.0px;stroke-linecap:butt;stroke-linejoin:miter;stroke-opacity:1"/>
<path class="bond-7 atom-7 atom-8" d="M 815.4,223.4 L 858.7,251.0" style="fill:none;fill-rule:evenodd;stroke:#000000;stroke-width:2.0px;stroke-linecap:butt;stroke-linejoin:miter;stroke-opacity:1"/>
<path class="bond-7 atom-7 atom-8" d="M 858.7,251.0 L 902.0,278.7" style="fill:none;fill-rule:evenodd;stroke:#FF0000;stroke-width:2.0px;stroke-linecap:butt;stroke-linejoin:miter;stroke-opacity:1"/>
<path class="bond-8 atom-8 atom-9" d="M 936.1,280.7 L 982.1,256.7" style="fill:none;fill-rule:evenodd;stroke:#FF0000;stroke-width:2.0px;stroke-linecap:butt;stroke-linejoin:miter;stroke-opacity:1"/>
<path class="bond-8 atom-8 atom-9" d="M 982.1,256.7 L 1028.1,232.8" style="fill:none;fill-rule:evenodd;stroke:#000000;stroke-width:2.0px;stroke-linecap:butt;stroke-linejoin:miter;stroke-opacity:1"/>
<path class="bond-9 atom-9 atom-10" d="M 1028.1,232.8 L 1074.6,262.4" style="fill:none;fill-rule:evenodd;stroke:#000000;stroke-width:2.0px;stroke-linecap:butt;stroke-linejoin:miter;stroke-opacity:1"/>
<path class="bond-9 atom-9 atom-10" d="M 1074.6,262.4 L 1121.0,292.1" style="fill:none;fill-rule:evenodd;stroke:#191919;stroke-width:2.0px;stroke-linecap:butt;stroke-linejoin:miter;stroke-opacity:1"/>
<path class="bond-10 atom-9 atom-11" d="M 1037.1,238.6 L 1039.5,183.9" style="fill:none;fill-rule:evenodd;stroke:#000000;stroke-width:2.0px;stroke-linecap:butt;stroke-linejoin:miter;stroke-opacity:1"/>
<path class="bond-10 atom-9 atom-11" d="M 1039.5,183.9 L 1041.9,129.2" style="fill:none;fill-rule:evenodd;stroke:#FF0000;stroke-width:2.0px;stroke-linecap:butt;stroke-linejoin:miter;stroke-opacity:1"/>
<path class="bond-10 atom-9 atom-11" d="M 1018.7,237.7 L 1021.1,183.1" style="fill:none;fill-rule:evenodd;stroke:#000000;stroke-width:2.0px;stroke-linecap:butt;stroke-linejoin:miter;stroke-opacity:1"/>
<path class="bond-10 atom-9 atom-11" d="M 1021.1,183.1 L 1023.5,128.4" style="fill:none;fill-rule:evenodd;stroke:#FF0000;stroke-width:2.0px;stroke-linecap:butt;stroke-linejoin:miter;stroke-opacity:1"/>
<path d="M 278.8,260.0 L 280.9,261.4 L 286.4,258.5" style="fill:none;stroke:#000000;stroke-width:2.0px;stroke-linecap:butt;stroke-linejoin:miter;stroke-opacity:1;"/>
<path d="M 384.6,207.5 L 390.0,204.6 L 395.2,208.0" style="fill:none;stroke:#000000;stroke-width:2.0px;stroke-linecap:butt;stroke-linejoin:miter;stroke-opacity:1;"/>
<path d="M 488.5,267.4 L 493.6,270.7 L 499.1,267.9" style="fill:none;stroke:#000000;stroke-width:2.0px;stroke-linecap:butt;stroke-linejoin:miter;stroke-opacity:1;"/>
<path d="M 597.3,216.9 L 602.7,214.0 L 607.9,217.3" style="fill:none;stroke:#000000;stroke-width:2.0px;stroke-linecap:butt;stroke-linejoin:miter;stroke-opacity:1;"/>
<path d="M 701.2,276.8 L 706.4,280.1 L 711.8,277.3" style="fill:none;stroke:#000000;stroke-width:2.0px;stroke-linecap:butt;stroke-linejoin:miter;stroke-opacity:1;"/>
<path d="M 810.0,226.3 L 815.4,223.4 L 817.6,224.8" style="fill:none;stroke:#000000;stroke-width:2.0px;stroke-linecap:butt;stroke-linejoin:miter;stroke-opacity:1;"/>
<path d="M 1025.8,234.0 L 1028.1,232.8 L 1030.4,234.3" style="fill:none;stroke:#000000;stroke-width:2.0px;stroke-linecap:butt;stroke-linejoin:miter;stroke-opacity:1;"/>
<path class="atom-0" d="M 62.9 248.8 L 67.1 244.6 L 61.5 243.4 L 62.4 240.6 L 67.5 243.2 L 66.7 237.6 L 69.7 237.6 L 68.9 243.1 L 74.1 240.7 L 74.9 243.4 L 69.3 244.5 L 73.3 248.8 L 70.9 250.5 L 68.1 245.2 L 65.3 250.5 L 62.9 248.8 " fill="#191919"/>
<path class="atom-1" d="M 164.3 195.3 Q 164.3 188.5, 167.7 184.7 Q 171.0 180.9, 177.3 180.9 Q 183.6 180.9, 186.9 184.7 Q 190.3 188.5, 190.3 195.3 Q 190.3 202.2, 186.9 206.1 Q 183.5 210.0, 177.3 210.0 Q 171.1 210.0, 167.7 206.1 Q 164.3 202.3, 164.3 195.3 M 177.3 206.8 Q 181.6 206.8, 183.9 203.9 Q 186.3 201.0, 186.3 195.3 Q 186.3 189.8, 183.9 187.0 Q 181.6 184.1, 177.3 184.1 Q 173.0 184.1, 170.6 186.9 Q 168.3 189.7, 168.3 195.3 Q 168.3 201.1, 170.6 203.9 Q 173.0 206.8, 177.3 206.8 " fill="#FF0000"/>
<path class="atom-8" d="M 906.1 289.6 Q 906.1 282.8, 909.4 279.0 Q 912.8 275.2, 919.1 275.2 Q 925.3 275.2, 928.7 279.0 Q 932.1 282.8, 932.1 289.6 Q 932.1 296.5, 928.7 300.4 Q 925.3 304.3, 919.1 304.3 Q 912.8 304.3, 909.4 300.4 Q 906.1 296.5, 906.1 289.6 M 919.1 301.1 Q 923.4 301.1, 925.7 298.2 Q 928.1 295.3, 928.1 289.6 Q 928.1 284.1, 925.7 281.3 Q 923.4 278.4, 919.1 278.4 Q 914.7 278.4, 912.4 281.2 Q 910.1 284.0, 910.1 289.6 Q 910.1 295.3, 912.4 298.2 Q 914.7 301.1, 919.1 301.1 " fill="#FF0000"/>
<path class="atom-10" d="M 1126.4 295.8 L 1130.6 291.5 L 1125.1 290.4 L 1125.9 287.6 L 1131.0 290.1 L 1130.3 284.6 L 1133.3 284.5 L 1132.4 290.1 L 1137.6 287.7 L 1138.5 290.4 L 1132.9 291.4 L 1136.9 295.7 L 1134.4 297.5 L 1131.7 292.2 L 1128.9 297.5 L 1126.4 295.8 " fill="#191919"/>
<path class="atom-11" d="M 1020.5 110.1 Q 1020.5 103.3, 1023.9 99.5 Q 1027.3 95.7, 1033.5 95.7 Q 1039.8 95.7, 1043.2 99.5 Q 1046.5 103.3, 1046.5 110.1 Q 1046.5 117.0, 1043.1 120.9 Q 1039.7 124.8, 1033.5 124.8 Q 1027.3 124.8, 1023.9 120.9 Q 1020.5 117.0, 1020.5 110.1 M 1033.5 121.6 Q 1037.9 121.6, 1040.2 118.7 Q 1042.5 115.8, 1042.5 110.1 Q 1042.5 104.5, 1040.2 101.7 Q 1037.9 98.9, 1033.5 98.9 Q 1029.2 98.9, 1026.9 101.7 Q 1024.5 104.5, 1024.5 110.1 Q 1024.5 115.8, 1026.9 118.7 Q 1029.2 121.6, 1033.5 121.6 " fill="#FF0000"/>
<path class="bond-0 atom-0 atom-1" d="M 185.7,644.5 L 226.8,624.0" style="fill:none;fill-rule:evenodd;stroke:#191919;stroke-width:2.0px;stroke-linecap:butt;stroke-linejoin:miter;stroke-opacity:1"/>
<path class="bond-0 atom-0 atom-1" d="M 226.8,624.0 L 267.9,603.5" style="fill:none;fill-rule:evenodd;stroke:#FF0000;stroke-width:2.0px;stroke-linecap:butt;stroke-linejoin:miter;stroke-opacity:1"/>
<path class="bond-1 atom-1 atom-2" d="M 302.0,606.3 L 344.7,634.5" style="fill:none;fill-rule:evenodd;stroke:#FF0000;stroke-width:2.0px;stroke-linecap:butt;stroke-linejoin:miter;stroke-opacity:1"/>
<path class="bond-1 atom-1 atom-2" d="M 344.7,634.5 L 387.5,662.8" style="fill:none;fill-rule:evenodd;stroke:#000000;stroke-width:2.0px;stroke-linecap:butt;stroke-linejoin:miter;stroke-opacity:1"/>
<path class="bond-2 atom-2 atom-3" d="M 387.5,662.8 L 497.5,607.9" style="fill:none;fill-rule:evenodd;stroke:#000000;stroke-width:2.0px;stroke-linecap:butt;stroke-linejoin:miter;stroke-opacity:1"/>
<path class="bond-3 atom-3 atom-4" d="M 497.5,607.9 L 600.0,675.7" style="fill:none;fill-rule:evenodd;stroke:#000000;stroke-width:2.0px;stroke-linecap:butt;stroke-linejoin:miter;stroke-opacity:1"/>
<path class="bond-4 atom-4 atom-5" d="M 600.0,675.7 L 710.0,620.8" style="fill:none;fill-rule:evenodd;stroke:#000000;stroke-width:2.0px;stroke-linecap:butt;stroke-linejoin:miter;stroke-opacity:1"/>
<path class="bond-5 atom-5 atom-6" d="M 710.0,620.8 L 752.7,649.0" style="fill:none;fill-rule:evenodd;stroke:#000000;stroke-width:2.0px;stroke-linecap:butt;stroke-linejoin:miter;stroke-opacity:1"/>
<path class="bond-5 atom-5 atom-6" d="M 752.7,649.0 L 795.5,677.3" style="fill:none;fill-rule:evenodd;stroke:#FF0000;stroke-width:2.0px;stroke-linecap:butt;stroke-linejoin:miter;stroke-opacity:1"/>
<path class="bond-6 atom-6 atom-7" d="M 829.6,680.1 L 876.0,656.9" style="fill:none;fill-rule:evenodd;stroke:#FF0000;stroke-width:2.0px;stroke-linecap:butt;stroke-linejoin:miter;stroke-opacity:1"/>
<path class="bond-6 atom-6 atom-7" d="M 876.0,656.9 L 922.5,633.7" style="fill:none;fill-rule:evenodd;stroke:#000000;stroke-width:2.0px;stroke-linecap:butt;stroke-linejoin:miter;stroke-opacity:1"/>
<path class="bond-7 atom-7 atom-8" d="M 922.5,633.7 L 968.4,664.0" style="fill:none;fill-rule:evenodd;stroke:#000000;stroke-width:2.0px;stroke-linecap:butt;stroke-linejoin:miter;stroke-opacity:1"/>
<path class="bond-7 atom-7 atom-8" d="M 968.4,664.0 L 1014.3,694.4" style="fill:none;fill-rule:evenodd;stroke:#191919;stroke-width:2.0px;stroke-linecap:butt;stroke-linejoin:miter;stroke-opacity:1"/>
<path class="bond-8 atom-7 atom-9" d="M 931.4,639.6 L 934.7,585.0" style="fill:none;fill-rule:evenodd;stroke:#000000;stroke-width:2.0px;stroke-linecap:butt;stroke-linejoin:miter;stroke-opacity:1"/>
<path class="bond-8 atom-7 atom-9" d="M 934.7,585.0 L 938.0,530.4" style="fill:none;fill-rule:evenodd;stroke:#FF0000;stroke-width:2.0px;stroke-linecap:butt;stroke-linejoin:miter;stroke-opacity:1"/>
<path class="bond-8 atom-7 atom-9" d="M 913.0,638.4 L 916.3,583.8" style="fill:none;fill-rule:evenodd;stroke:#000000;stroke-width:2.0px;stroke-linecap:butt;stroke-linejoin:miter;stroke-opacity:1"/>
<path class="bond-8 atom-7 atom-9" d="M 916.3,583.8 L 919.6,529.2" style="fill:none;fill-rule:evenodd;stroke:#FF0000;stroke-width:2.0px;stroke-linecap:butt;stroke-linejoin:miter;stroke-opacity:1"/>
<path d="M 385.3,661.4 L 387.5,662.8 L 393.0,660.0" style="fill:none;stroke:#000000;stroke-width:2.0px;stroke-linecap:butt;stroke-linejoin:miter;stroke-opacity:1;"/>
<path d="M 492.0,610.6 L 497.5,607.9 L 502.6,611.3" style="fill:none;stroke:#000000;stroke-width:2.0px;stroke-linecap:butt;stroke-linejoin:miter;stroke-opacity:1;"/>
<path d="M 594.9,672.3 L 600.0,675.7 L 605.5,672.9" style="fill:none;stroke:#000000;stroke-width:2.0px;stroke-linecap:butt;stroke-linejoin:miter;stroke-opacity:1;"/>
<path d="M 704.5,623.5 L 710.0,620.8 L 712.1,622.2" style="fill:none;stroke:#000000;stroke-width:2.0px;stroke-linecap:butt;stroke-linejoin:miter;stroke-opacity:1;"/>
<path d="M 920.2,634.8 L 922.5,633.7 L 924.8,635.2" style="fill:none;stroke:#000000;stroke-width:2.0px;stroke-linecap:butt;stroke-linejoin:miter;stroke-opacity:1;"/>
<path class="atom-0" d="M 169.6 646.7 L 173.8 642.5 L 168.3 641.4 L 169.1 638.5 L 174.2 641.1 L 173.5 635.5 L 176.5 635.5 L 175.6 641.0 L 180.8 638.6 L 181.7 641.4 L 176.1 642.4 L 180.1 646.7 L 177.6 648.4 L 174.9 643.2 L 172.1 648.4 L 169.6 646.7 " fill="#191919"/>
<path class="atom-1" d="M 271.9 595.1 Q 271.9 588.3, 275.3 584.5 Q 278.7 580.7, 284.9 580.7 Q 291.2 580.7, 294.6 584.5 Q 297.9 588.3, 297.9 595.1 Q 297.9 601.9, 294.5 605.9 Q 291.1 609.7, 284.9 609.7 Q 278.7 609.7, 275.3 605.9 Q 271.9 602.0, 271.9 595.1 M 284.9 606.5 Q 289.3 606.5, 291.6 603.7 Q 293.9 600.7, 293.9 595.1 Q 293.9 589.5, 291.6 586.7 Q 289.3 583.9, 284.9 583.9 Q 280.6 583.9, 278.3 586.7 Q 275.9 589.5, 275.9 595.1 Q 275.9 600.8, 278.3 603.7 Q 280.6 606.5, 284.9 606.5 " fill="#FF0000"/>
<path class="atom-6" d="M 799.5 688.7 Q 799.5 681.9, 802.9 678.1 Q 806.2 674.3, 812.5 674.3 Q 818.8 674.3, 822.2 678.1 Q 825.5 681.9, 825.5 688.7 Q 825.5 695.5, 822.1 699.5 Q 818.7 703.3, 812.5 703.3 Q 806.3 703.3, 802.9 699.5 Q 799.5 695.6, 799.5 688.7 M 812.5 700.1 Q 816.8 700.1, 819.2 697.3 Q 821.5 694.3, 821.5 688.7 Q 821.5 683.1, 819.2 680.3 Q 816.8 677.5, 812.5 677.5 Q 808.2 677.5, 805.8 680.3 Q 803.5 683.1, 803.5 688.7 Q 803.5 694.4, 805.8 697.3 Q 808.2 700.1, 812.5 700.1 " fill="#FF0000"/>
<path class="atom-8" d="M 1019.7 698.3 L 1023.9 694.1 L 1018.3 693.0 L 1019.2 690.1 L 1024.3 692.7 L 1023.5 687.1 L 1026.5 687.1 L 1025.7 692.6 L 1030.9 690.2 L 1031.7 693.0 L 1026.1 694.0 L 1030.1 698.3 L 1027.7 700.0 L 1024.9 694.8 L 1022.1 700.0 L 1019.7 698.3 " fill="#191919"/>
<path class="atom-9" d="M 917.0 511.1 Q 917.0 504.3, 920.3 500.5 Q 923.7 496.7, 930.0 496.7 Q 936.2 496.7, 939.6 500.5 Q 943.0 504.3, 943.0 511.1 Q 943.0 517.9, 939.6 521.9 Q 936.2 525.7, 930.0 525.7 Q 923.7 525.7, 920.3 521.9 Q 917.0 518.0, 917.0 511.1 M 930.0 522.5 Q 934.3 522.5, 936.6 519.7 Q 939.0 516.7, 939.0 511.1 Q 939.0 505.5, 936.6 502.7 Q 934.3 499.9, 930.0 499.9 Q 925.6 499.9, 923.3 502.7 Q 921.0 505.5, 921.0 511.1 Q 921.0 516.8, 923.3 519.7 Q 925.6 522.5, 930.0 522.5 " fill="#FF0000"/>
</svg>