<svg xmlns="http://www.w3.org/2000/svg" xmlns:rdkit="http://www.rdkit.org/xml" xmlns:xlink="http://www.w3.org/1999/xlink" version="1.1" baseProfile="full" xml:space="preserve" width="1200px" height="800px" viewBox="0 0 1200 800">
<!-- END OF HEADER -->
<rect style="opacity:1.0;fill:#FFFFFF;stroke:none" width="1200.0" height="800.0" x="0.0" y="0.0"> </rect>
<path class="bond-0 atom-0 atom-1" d="M 260.3,180.7 L 280.2,215.0" style="fill:none;fill-rule:evenodd;stroke:#191919;stroke-width:2.0px;stroke-linecap:butt;stroke-linejoin:miter;stroke-opacity:1"/>
<path class="bond-0 atom-0 atom-1" d="M 280.2,215.0 L 300.0,249.3" style="fill:none;fill-rule:evenodd;stroke:#FF0000;stroke-width:2.0px;stroke-linecap:butt;stroke-linejoin:miter;stroke-opacity:1"/>
<path class="bond-1 atom-2 atom-1" d="M 408.6,266.5 L 408.6,267.2" style="fill:none;fill-rule:evenodd;stroke:#000000;stroke-width:1.0px;stroke-linecap:butt;stroke-linejoin:miter;stroke-opacity:1"/>
<path class="bond-1 atom-2 atom-1" d="M 405.0,266.2 L 405.0,267.6" style="fill:none;fill-rule:evenodd;stroke:#000000;stroke-width:1.0px;stroke-linecap:butt;stroke-linejoin:miter;stroke-opacity:1"/>
<path class="bond-1 atom-2 atom-1" d="M 401.5,265.8 L 401.5,267.9" style="fill:none;fill-rule:evenodd;stroke:#000000;stroke-width:1.0px;stroke-linecap:butt;stroke-linejoin:miter;stroke-opacity:1"/>
<path class="bond-1 atom-2 atom-1" d="M 397.9,265.5 L 397.9,268.3" style="fill:none;fill-rule:evenodd;stroke:#000000;stroke-width:1.0px;stroke-linecap:butt;stroke-linejoin:miter;stroke-opacity:1"/>
<path class="bond-1 atom-2 atom-1" d="M 394.3,265.1 L 394.3,268.6" style="fill:none;fill-rule:evenodd;stroke:#000000;stroke-width:1.0px;stroke-linecap:butt;stroke-linejoin:miter;stroke-opacity:1"/>
<path class="bond-1 atom-2 atom-1" d="M 390.8,264.8 L 390.8,269.0" style="fill:none;fill-rule:evenodd;stroke:#000000;stroke-width:1.0px;stroke-linecap:butt;stroke-linejoin:miter;stroke-opacity:1"/>
<path class="bond-1 atom-2 atom-1" d="M 387.2,264.5 L 387.2,269.3" style="fill:none;fill-rule:evenodd;stroke:#000000;stroke-width:1.0px;stroke-linecap:butt;stroke-linejoin:miter;stroke-opacity:1"/>
<path class="bond-1 atom-2 atom-1" d="M 383.6,264.1 L 383.6,269.7" style="fill:none;fill-rule:evenodd;stroke:#000000;stroke-width:1.0px;stroke-linecap:butt;stroke-linejoin:miter;stroke-opacity:1"/>
<path class="bond-1 atom-2 atom-1" d="M 380.0,263.8 L 380.0,270.0" style="fill:none;fill-rule:evenodd;stroke:#000000;stroke-width:1.0px;stroke-linecap:butt;stroke-linejoin:miter;stroke-opacity:1"/>
<path class="bond-1 atom-2 atom-1" d="M 376.5,263.4 L 376.5,270.4" style="fill:none;fill-rule:evenodd;stroke:#000000;stroke-width:1.0px;stroke-linecap:butt;stroke-linejoin:miter;stroke-opacity:1"/>
<path class="bond-1 atom-2 atom-1" d="M 372.9,263.1 L 372.9,270.7" style="fill:none;fill-rule:evenodd;stroke:#000000;stroke-width:1.0px;stroke-linecap:butt;stroke-linejoin:miter;stroke-opacity:1"/>
<path class="bond-1 atom-2 atom-1" d="M 369.3,262.7 L 369.3,271.1" style="fill:none;fill-rule:evenodd;stroke:#FF0000;stroke-width:1.0px;stroke-linecap:butt;stroke-linejoin:miter;stroke-opacity:1"/>
<path class="bond-1 atom-2 atom-1" d="M 365.7,262.4 L 365.8,271.4" style="fill:none;fill-rule:evenodd;stroke:#FF0000;stroke-width:1.0px;stroke-linecap:butt;stroke-linejoin:miter;stroke-opacity:1"/>
<path class="bond-1 atom-2 atom-1" d="M 362.2,262.1 L 362.2,271.8" style="fill:none;fill-rule:evenodd;stroke:#FF0000;stroke-width:1.0px;stroke-linecap:butt;stroke-linejoin:miter;stroke-opacity:1"/>
<path class="bond-1 atom-2 atom-1" d="M 358.6,261.7 L 358.6,272.1" style="fill:none;fill-rule:evenodd;stroke:#FF0000;stroke-width:1.0px;stroke-linecap:butt;stroke-linejoin:miter;stroke-opacity:1"/>
<path class="bond-1 atom-2 atom-1" d="M 355.0,261.4 L 355.0,272.5" style="fill:none;fill-rule:evenodd;stroke:#FF0000;stroke-width:1.0px;stroke-linecap:butt;stroke-linejoin:miter;stroke-opacity:1"/>
<path class="bond-1 atom-2 atom-1" d="M 351.5,261.0 L 351.5,272.8" style="fill:none;fill-rule:evenodd;stroke:#FF0000;stroke-width:1.0px;stroke-linecap:butt;stroke-linejoin:miter;stroke-opacity:1"/>
<path class="bond-1 atom-2 atom-1" d="M 347.9,260.7 L 347.9,273.2" style="fill:none;fill-rule:evenodd;stroke:#FF0000;stroke-width:1.0px;stroke-linecap:butt;stroke-linejoin:miter;stroke-opacity:1"/>
<path class="bond-1 atom-2 atom-1" d="M 344.3,260.3 L 344.3,273.5" style="fill:none;fill-rule:evenodd;stroke:#FF0000;stroke-width:1.0px;stroke-linecap:butt;stroke-linejoin:miter;stroke-opacity:1"/>
<path class="bond-1 atom-2 atom-1" d="M 340.7,260.0 L 340.8,273.9" style="fill:none;fill-rule:evenodd;stroke:#FF0000;stroke-width:1.0px;stroke-linecap:butt;stroke-linejoin:miter;stroke-opacity:1"/>
<path class="bond-1 atom-2 atom-1" d="M 337.2,259.7 L 337.2,274.2" style="fill:none;fill-rule:evenodd;stroke:#FF0000;stroke-width:1.0px;stroke-linecap:butt;stroke-linejoin:miter;stroke-opacity:1"/>
<path class="bond-1 atom-2 atom-1" d="M 333.6,259.3 L 333.6,274.6" style="fill:none;fill-rule:evenodd;stroke:#FF0000;stroke-width:1.0px;stroke-linecap:butt;stroke-linejoin:miter;stroke-opacity:1"/>
<path class="bond-2 atom-2 atom-3" d="M 412.2,266.8 L 472.2,349.2" style="fill:none;fill-rule:evenodd;stroke:#000000;stroke-width:2.0px;stroke-linecap:butt;stroke-linejoin:miter;stroke-opacity:1"/>
<path class="bond-3 atom-3 atom-4" d="M 472.2,349.2 L 512.5,336.1" style="fill:none;fill-rule:evenodd;stroke:#000000;stroke-width:2.0px;stroke-linecap:butt;stroke-linejoin:miter;stroke-opacity:1"/>
<path class="bond-3 atom-3 atom-4" d="M 512.5,336.1 L 552.7,322.9" style="fill:none;fill-rule:evenodd;stroke:#FF0000;stroke-width:2.0px;stroke-linecap:butt;stroke-linejoin:miter;stroke-opacity:1"/>
<path class="bond-4 atom-4 atom-5" d="M 569.1,299.9 L 569.0,257.8" style="fill:none;fill-rule:evenodd;stroke:#FF0000;stroke-width:2.0px;stroke-linecap:butt;stroke-linejoin:miter;stroke-opacity:1"/>
<path class="bond-4 atom-4 atom-5" d="M 569.0,257.8 L 569.0,215.7" style="fill:none;fill-rule:evenodd;stroke:#000000;stroke-width:2.0px;stroke-linecap:butt;stroke-linejoin:miter;stroke-opacity:1"/>
<path class="bond-5 atom-5 atom-6" d="M 569.0,215.7 L 472.0,184.3" style="fill:none;fill-rule:evenodd;stroke:#000000;stroke-width:2.0px;stroke-linecap:butt;stroke-linejoin:miter;stroke-opacity:1"/>
<path class="bond-6 atom-6 atom-7" d="M 472.0,184.3 L 471.9,142.4" style="fill:none;fill-rule:evenodd;stroke:#000000;stroke-width:2.0px;stroke-linecap:butt;stroke-linejoin:miter;stroke-opacity:1"/>
<path class="bond-6 atom-6 atom-7" d="M 471.9,142.4 L 471.9,100.5" style="fill:none;fill-rule:evenodd;stroke:#FF0000;stroke-width:2.0px;stroke-linecap:butt;stroke-linejoin:miter;stroke-opacity:1"/>
<path class="bond-7 atom-7 atom-8" d="M 488.2,77.1 L 528.5,63.9" style="fill:none;fill-rule:evenodd;stroke:#FF0000;stroke-width:2.0px;stroke-linecap:butt;stroke-linejoin:miter;stroke-opacity:1"/>
<path class="bond-7 atom-7 atom-8" d="M 528.5,63.9 L 568.7,50.8" style="fill:none;fill-rule:evenodd;stroke:#000000;stroke-width:2.0px;stroke-linecap:butt;stroke-linejoin:miter;stroke-opacity:1"/>
<path class="bond-8 atom-8 atom-9" d="M 568.7,50.8 L 628.8,133.2" style="fill:none;fill-rule:evenodd;stroke:#000000;stroke-width:2.0px;stroke-linecap:butt;stroke-linejoin:miter;stroke-opacity:1"/>
<path class="bond-9 atom-9 atom-10" d="M 632.3,133.5 L 632.3,132.8" style="fill:none;fill-rule:evenodd;stroke:#000000;stroke-width:1.0px;stroke-linecap:butt;stroke-linejoin:miter;stroke-opacity:1"/>
<path class="bond-9 atom-9 atom-10" d="M 635.9,133.8 L 635.9,132.4" style="fill:none;fill-rule:evenodd;stroke:#000000;stroke-width:1.0px;stroke-linecap:butt;stroke-linejoin:miter;stroke-opacity:1"/>
<path class="bond-9 atom-9 atom-10" d="M 639.5,134.2 L 639.5,132.1" style="fill:none;fill-rule:evenodd;stroke:#000000;stroke-width:1.0px;stroke-linecap:butt;stroke-linejoin:miter;stroke-opacity:1"/>
<path class="bond-9 atom-9 atom-10" d="M 643.0,134.5 L 643.0,131.7" style="fill:none;fill-rule:evenodd;stroke:#000000;stroke-width:1.0px;stroke-linecap:butt;stroke-linejoin:miter;stroke-opacity:1"/>
<path class="bond-9 atom-9 atom-10" d="M 646.6,134.9 L 646.6,131.4" style="fill:none;fill-rule:evenodd;stroke:#000000;stroke-width:1.0px;stroke-linecap:butt;stroke-linejoin:miter;stroke-opacity:1"/>
<path class="bond-9 atom-9 atom-10" d="M 650.2,135.2 L 650.2,131.0" style="fill:none;fill-rule:evenodd;stroke:#000000;stroke-width:1.0px;stroke-linecap:butt;stroke-linejoin:miter;stroke-opacity:1"/>
<path class="bond-9 atom-9 atom-10" d="M 653.8,135.5 L 653.8,130.7" style="fill:none;fill-rule:evenodd;stroke:#000000;stroke-width:1.0px;stroke-linecap:butt;stroke-linejoin:miter;stroke-opacity:1"/>
<path class="bond-9 atom-9 atom-10" d="M 657.3,135.9 L 657.3,130.3" style="fill:none;fill-rule:evenodd;stroke:#000000;stroke-width:1.0px;stroke-linecap:butt;stroke-linejoin:miter;stroke-opacity:1"/>
<path class="bond-9 atom-9 atom-10" d="M 660.9,136.2 L 660.9,130.0" style="fill:none;fill-rule:evenodd;stroke:#000000;stroke-width:1.0px;stroke-linecap:butt;stroke-linejoin:miter;stroke-opacity:1"/>
<path class="bond-9 atom-9 atom-10" d="M 664.5,136.6 L 664.5,129.6" style="fill:none;fill-rule:evenodd;stroke:#000000;stroke-width:1.0px;stroke-linecap:butt;stroke-linejoin:miter;stroke-opacity:1"/>
<path class="bond-9 atom-9 atom-10" d="M 668.1,136.9 L 668.0,129.3" style="fill:none;fill-rule:evenodd;stroke:#000000;stroke-width:1.0px;stroke-linecap:butt;stroke-linejoin:miter;stroke-opacity:1"/>
<path class="bond-9 atom-9 atom-10" d="M 671.6,137.3 L 671.6,128.9" style="fill:none;fill-rule:evenodd;stroke:#FF0000;stroke-width:1.0px;stroke-linecap:butt;stroke-linejoin:miter;stroke-opacity:1"/>
<path class="bond-9 atom-9 atom-10" d="M 675.2,137.6 L 675.2,128.6" style="fill:none;fill-rule:evenodd;stroke:#FF0000;stroke-width:1.0px;stroke-linecap:butt;stroke-linejoin:miter;stroke-opacity:1"/>
<path class="bond-9 atom-9 atom-10" d="M 678.8,137.9 L 678.8,128.2" style="fill:none;fill-rule:evenodd;stroke:#FF0000;stroke-width:1.0px;stroke-linecap:butt;stroke-linejoin:miter;stroke-opacity:1"/>
<path class="bond-9 atom-9 atom-10" d="M 682.3,138.3 L 682.3,127.9" style="fill:none;fill-rule:evenodd;stroke:#FF0000;stroke-width:1.0px;stroke-linecap:butt;stroke-linejoin:miter;stroke-opacity:1"/>
<path class="bond-9 atom-9 atom-10" d="M 685.9,138.6 L 685.9,127.5" style="fill:none;fill-rule:evenodd;stroke:#FF0000;stroke-width:1.0px;stroke-linecap:butt;stroke-linejoin:miter;stroke-opacity:1"/>
<path class="bond-9 atom-9 atom-10" d="M 689.5,139.0 L 689.5,127.2" style="fill:none;fill-rule:evenodd;stroke:#FF0000;stroke-width:1.0px;stroke-linecap:butt;stroke-linejoin:miter;stroke-opacity:1"/>
<path class="bond-9 atom-9 atom-10" d="M 693.1,139.3 L 693.0,126.8" style="fill:none;fill-rule:evenodd;stroke:#FF0000;stroke-width:1.0px;stroke-linecap:butt;stroke-linejoin:miter;stroke-opacity:1"/>
<path class="bond-9 atom-9 atom-10" d="M 696.6,139.7 L 696.6,126.5" style="fill:none;fill-rule:evenodd;stroke:#FF0000;stroke-width:1.0px;stroke-linecap:butt;stroke-linejoin:miter;stroke-opacity:1"/>
<path class="bond-9 atom-9 atom-10" d="M 700.2,140.0 L 700.2,126.1" style="fill:none;fill-rule:evenodd;stroke:#FF0000;stroke-width:1.0px;stroke-linecap:butt;stroke-linejoin:miter;stroke-opacity:1"/>
<path class="bond-9 atom-9 atom-10" d="M 703.8,140.3 L 703.8,125.8" style="fill:none;fill-rule:evenodd;stroke:#FF0000;stroke-width:1.0px;stroke-linecap:butt;stroke-linejoin:miter;stroke-opacity:1"/>
<path class="bond-9 atom-9 atom-10" d="M 707.3,140.7 L 707.3,125.4" style="fill:none;fill-rule:evenodd;stroke:#FF0000;stroke-width:1.0px;stroke-linecap:butt;stroke-linejoin:miter;stroke-opacity:1"/>
<path class="bond-10 atom-10 atom-11" d="M 741.2,151.1 L 761.5,186.2" style="fill:none;fill-rule:evenodd;stroke:#FF0000;stroke-width:2.0px;stroke-linecap:butt;stroke-linejoin:miter;stroke-opacity:1"/>
<path class="bond-10 atom-10 atom-11" d="M 761.5,186.2 L 781.7,221.2" style="fill:none;fill-rule:evenodd;stroke:#000000;stroke-width:2.0px;stroke-linecap:butt;stroke-linejoin:miter;stroke-opacity:1"/>
<path class="bond-11 atom-11 atom-12" d="M 777.3,213.6 L 755.9,250.8" style="fill:none;fill-rule:evenodd;stroke:#000000;stroke-width:2.0px;stroke-linecap:butt;stroke-linejoin:miter;stroke-opacity:1"/>
<path class="bond-11 atom-11 atom-12" d="M 755.9,250.8 L 734.5,288.0" style="fill:none;fill-rule:evenodd;stroke:#FF0000;stroke-width:2.0px;stroke-linecap:butt;stroke-linejoin:miter;stroke-opacity:1"/>
<path class="bond-11 atom-11 atom-12" d="M 790.6,221.2 L 769.1,258.4" style="fill:none;fill-rule:evenodd;stroke:#000000;stroke-width:2.0px;stroke-linecap:butt;stroke-linejoin:miter;stroke-opacity:1"/>
<path class="bond-11 atom-11 atom-12" d="M 769.1,258.4 L 747.7,295.7" style="fill:none;fill-rule:evenodd;stroke:#FF0000;stroke-width:2.0px;stroke-linecap:butt;stroke-linejoin:miter;stroke-opacity:1"/>
<path class="bond-12 atom-11 atom-13" d="M 781.7,221.2 L 883.7,221.1" style="fill:none;fill-rule:evenodd;stroke:#000000;stroke-width:2.0px;stroke-linecap:butt;stroke-linejoin:miter;stroke-opacity:1"/>
<path class="bond-13 atom-13 atom-14" d="M 883.7,221.1 L 904.2,256.5" style="fill:none;fill-rule:evenodd;stroke:#000000;stroke-width:2.0px;stroke-linecap:butt;stroke-linejoin:miter;stroke-opacity:1"/>
<path class="bond-13 atom-13 atom-14" d="M 904.2,256.5 L 924.7,291.9" style="fill:none;fill-rule:evenodd;stroke:#191919;stroke-width:2.0px;stroke-linecap:butt;stroke-linejoin:miter;stroke-opacity:1"/>
<path class="bond-14 atom-13 atom-15" d="M 888.1,228.7 L 909.4,191.7" style="fill:none;fill-rule:evenodd;stroke:#000000;stroke-width:2.0px;stroke-linecap:butt;stroke-linejoin:miter;stroke-opacity:1"/>
<path class="bond-14 atom-13 atom-15" d="M 909.4,191.7 L 930.7,154.7" style="fill:none;fill-rule:evenodd;stroke:#FF0000;stroke-width:2.0px;stroke-linecap:butt;stroke-linejoin:miter;stroke-opacity:1"/>
<path class="bond-14 atom-13 atom-15" d="M 874.8,221.1 L 896.1,184.1" style="fill:none;fill-rule:evenodd;stroke:#000000;stroke-width:2.0px;stroke-linecap:butt;stroke-linejoin:miter;stroke-opacity:1"/>
<path class="bond-14 atom-13 atom-15" d="M 896.1,184.1 L 917.5,147.1" style="fill:none;fill-rule:evenodd;stroke:#FF0000;stroke-width:2.0px;stroke-linecap:butt;stroke-linejoin:miter;stroke-opacity:1"/>
<path class="bond-15 atom-6 atom-2" d="M 472.0,184.3 L 412.2,266.8" style="fill:none;fill-rule:evenodd;stroke:#000000;stroke-width:2.0px;stroke-linecap:butt;stroke-linejoin:miter;stroke-opacity:1"/>
<path class="bond-16 atom-9 atom-5" d="M 628.8,133.2 L 569.0,215.7" style="fill:none;fill-rule:evenodd;stroke:#000000;stroke-width:2.0px;stroke-linecap:butt;stroke-linejoin:miter;stroke-opacity:1"/>
<path d="M 415.2,271.0 L 412.2,266.8 L 415.2,262.7" style="fill:none;stroke:#000000;stroke-width:2.0px;stroke-linecap:butt;stroke-linejoin:miter;stroke-opacity:1;"/>
<path d="M 469.2,345.1 L 472.2,349.2 L 474.2,348.6" style="fill:none;stroke:#000000;stroke-width:2.0px;stroke-linecap:butt;stroke-linejoin:miter;stroke-opacity:1;"/>
<path d="M 566.7,51.4 L 568.7,50.8 L 571.7,54.9" style="fill:none;stroke:#000000;stroke-width:2.0px;stroke-linecap:butt;stroke-linejoin:miter;stroke-opacity:1;"/>
<path d="M 625.8,129.0 L 628.8,133.2 L 625.8,137.3" style="fill:none;stroke:#000000;stroke-width:2.0px;stroke-linecap:butt;stroke-linejoin:miter;stroke-opacity:1;"/>
<path d="M 780.7,219.5 L 781.7,221.2 L 786.8,221.2" style="fill:none;stroke:#000000;stroke-width:2.0px;stroke-linecap:butt;stroke-linejoin:miter;stroke-opacity:1;"/>
<path d="M 878.6,221.1 L 883.7,221.1 L 884.7,222.8" style="fill:none;stroke:#000000;stroke-width:2.0px;stroke-linecap:butt;stroke-linejoin:miter;stroke-opacity:1;"/>
<path class="atom-0" d="M 253.9 175.6 L 258.0 171.4 L 252.5 170.3 L 253.3 167.4 L 258.4 170.0 L 257.7 164.4 L 260.7 164.4 L 259.9 169.9 L 265.0 167.5 L 265.9 170.3 L 260.3 171.3 L 264.3 175.6 L 261.9 177.3 L 259.1 172.1 L 256.3 177.3 L 253.9 175.6 " fill="#191919"/>
<path class="atom-1" d="M 297.3 267.1 Q 297.3 260.3, 300.6 256.5 Q 304.0 252.7, 310.3 252.7 Q 316.5 252.7, 319.9 256.5 Q 323.3 260.3, 323.3 267.1 Q 323.3 273.9, 319.9 277.9 Q 316.5 281.7, 310.3 281.7 Q 304.0 281.7, 300.6 277.9 Q 297.3 274.0, 297.3 267.1 M 310.3 278.5 Q 314.6 278.5, 316.9 275.7 Q 319.3 272.7, 319.3 267.1 Q 319.3 261.5, 316.9 258.7 Q 314.6 255.9, 310.3 255.9 Q 305.9 255.9, 303.6 258.7 Q 301.3 261.5, 301.3 267.1 Q 301.3 272.8, 303.6 275.7 Q 305.9 278.5, 310.3 278.5 " fill="#FF0000"/>
<path class="atom-4" d="M 556.1 317.7 Q 556.1 310.9, 559.5 307.1 Q 562.8 303.3, 569.1 303.3 Q 575.4 303.3, 578.7 307.1 Q 582.1 310.9, 582.1 317.7 Q 582.1 324.6, 578.7 328.5 Q 575.3 332.4, 569.1 332.4 Q 562.9 332.4, 559.5 328.5 Q 556.1 324.6, 556.1 317.7 M 569.1 329.2 Q 573.4 329.2, 575.7 326.3 Q 578.1 323.4, 578.1 317.7 Q 578.1 312.1, 575.7 309.3 Q 573.4 306.5, 569.1 306.5 Q 564.8 306.5, 562.4 309.3 Q 560.1 312.1, 560.1 317.7 Q 560.1 323.4, 562.4 326.3 Q 564.8 329.2, 569.1 329.2 " fill="#FF0000"/>
<path class="atom-7" d="M 458.8 82.5 Q 458.8 75.7, 462.2 71.9 Q 465.6 68.1, 471.8 68.1 Q 478.1 68.1, 481.5 71.9 Q 484.8 75.7, 484.8 82.5 Q 484.8 89.4, 481.4 93.3 Q 478.0 97.2, 471.8 97.2 Q 465.6 97.2, 462.2 93.3 Q 458.8 89.4, 458.8 82.5 M 471.8 94.0 Q 476.2 94.0, 478.5 91.1 Q 480.8 88.2, 480.8 82.5 Q 480.8 76.9, 478.5 74.1 Q 476.2 71.3, 471.8 71.3 Q 467.5 71.3, 465.2 74.1 Q 462.8 76.9, 462.8 82.5 Q 462.8 88.2, 465.2 91.1 Q 467.5 94.0, 471.8 94.0 " fill="#FF0000"/>
<path class="atom-10" d="M 717.7 133.1 Q 717.7 126.3, 721.0 122.5 Q 724.4 118.7, 730.7 118.7 Q 737.0 118.7, 740.3 122.5 Q 743.7 126.3, 743.7 133.1 Q 743.7 140.0, 740.3 143.9 Q 736.9 147.8, 730.7 147.8 Q 724.4 147.8, 721.0 143.9 Q 717.7 140.0, 717.7 133.1 M 730.7 144.6 Q 735.0 144.6, 737.3 141.7 Q 739.7 138.8, 739.7 133.1 Q 739.7 127.5, 737.3 124.7 Q 735.0 121.9, 730.7 121.9 Q 726.4 121.9, 724.0 124.7 Q 721.7 127.5, 721.7 133.1 Q 721.7 138.8, 724.0 141.7 Q 726.4 144.6, 730.7 144.6 " fill="#FF0000"/>
<path class="atom-12" d="M 717.9 309.6 Q 717.9 302.8, 721.3 299.0 Q 724.6 295.2, 730.9 295.2 Q 737.2 295.2, 740.5 299.0 Q 743.9 302.8, 743.9 309.6 Q 743.9 316.5, 740.5 320.4 Q 737.1 324.3, 730.9 324.3 Q 724.7 324.3, 721.3 320.4 Q 717.9 316.5, 717.9 309.6 M 730.9 321.1 Q 735.2 321.1, 737.5 318.2 Q 739.9 315.3, 739.9 309.6 Q 739.9 304.1, 737.5 301.3 Q 735.2 298.4, 730.9 298.4 Q 726.6 298.4, 724.2 301.2 Q 721.9 304.0, 721.9 309.6 Q 721.9 315.3, 724.2 318.2 Q 726.6 321.1, 730.9 321.1 " fill="#FF0000"/>
<path class="atom-14" d="M 929.4 306.1 L 933.6 301.9 L 928.0 300.8 L 928.9 297.9 L 934.0 300.5 L 933.2 294.9 L 936.2 294.9 L 935.4 300.4 L 940.6 298.0 L 941.4 300.8 L 935.8 301.8 L 939.8 306.1 L 937.4 307.8 L 934.6 302.6 L 931.8 307.8 L 929.4 306.1 " fill="#191919"/>
<path class="atom-15" d="M 921.5 132.8 Q 921.5 126.0, 924.9 122.2 Q 928.2 118.4, 934.5 118.4 Q 940.8 118.4, 944.1 122.2 Q 947.5 126.0, 947.5 132.8 Q 947.5 139.7, 944.1 143.6 Q 940.7 147.5, 934.5 147.5 Q 928.3 147.5, 924.9 143.6 Q 921.5 139.7, 921.5 132.8 M 934.5 144.3 Q 938.8 144.3, 941.1 141.4 Q 943.5 138.5, 943.5 132.8 Q 943.5 127.3, 941.1 124.5 Q 938.8 121.6, 934.5 121.6 Q 930.2 121.6, 927.8 124.4 Q 925.5 127.2, 925.5 132.8 Q 925.5 138.5, 927.8 141.4 Q 930.2 144.3, 934.5 144.3 " fill="#FF0000"/>
<path class="bond-0 atom-0 atom-1" d="M 1024.2,711.6 L 987.3,705.1" style="fill:none;fill-rule:evenodd;stroke:#191919;stroke-width:2.0px;stroke-linecap:butt;stroke-linejoin:miter;stroke-opacity:1"/>
<path class="bond-0 atom-0 atom-1" d="M 987.3,705.1 L 950.3,698.7" style="fill:none;fill-rule:evenodd;stroke:#FF0000;stroke-width:2.0px;stroke-linecap:butt;stroke-linejoin:miter;stroke-opacity:1"/>
<path class="bond-1 atom-1 atom-2" d="M 927.4,678.2 L 913.1,639.2" style="fill:none;fill-rule:evenodd;stroke:#FF0000;stroke-width:2.0px;stroke-linecap:butt;stroke-linejoin:miter;stroke-opacity:1"/>
<path class="bond-1 atom-1 atom-2" d="M 913.1,639.2 L 898.8,600.2" style="fill:none;fill-rule:evenodd;stroke:#000000;stroke-width:2.0px;stroke-linecap:butt;stroke-linejoin:miter;stroke-opacity:1"/>
<path class="bond-2 atom-2 atom-3" d="M 901.9,608.5 L 928.4,576.7" style="fill:none;fill-rule:evenodd;stroke:#000000;stroke-width:2.0px;stroke-linecap:butt;stroke-linejoin:miter;stroke-opacity:1"/>
<path class="bond-2 atom-2 atom-3" d="M 928.4,576.7 L 954.9,545.0" style="fill:none;fill-rule:evenodd;stroke:#FF0000;stroke-width:2.0px;stroke-linecap:butt;stroke-linejoin:miter;stroke-opacity:1"/>
<path class="bond-2 atom-2 atom-3" d="M 890.1,598.7 L 916.6,566.9" style="fill:none;fill-rule:evenodd;stroke:#000000;stroke-width:2.0px;stroke-linecap:butt;stroke-linejoin:miter;stroke-opacity:1"/>
<path class="bond-2 atom-2 atom-3" d="M 916.6,566.9 L 943.2,535.2" style="fill:none;fill-rule:evenodd;stroke:#FF0000;stroke-width:2.0px;stroke-linecap:butt;stroke-linejoin:miter;stroke-opacity:1"/>
<path class="bond-3 atom-2 atom-4" d="M 898.8,600.2 L 798.4,582.7" style="fill:none;fill-rule:evenodd;stroke:#000000;stroke-width:2.0px;stroke-linecap:butt;stroke-linejoin:miter;stroke-opacity:1"/>
<path class="bond-4 atom-4 atom-5" d="M 798.4,582.7 L 733.1,660.9" style="fill:none;fill-rule:evenodd;stroke:#000000;stroke-width:2.0px;stroke-linecap:butt;stroke-linejoin:miter;stroke-opacity:1"/>
<path class="bond-4 atom-4 atom-5" d="M 781.0,579.7 L 727.0,644.3" style="fill:none;fill-rule:evenodd;stroke:#000000;stroke-width:2.0px;stroke-linecap:butt;stroke-linejoin:miter;stroke-opacity:1"/>
<path class="bond-5 atom-5 atom-6" d="M 733.1,660.9 L 632.7,643.5" style="fill:none;fill-rule:evenodd;stroke:#000000;stroke-width:2.0px;stroke-linecap:butt;stroke-linejoin:miter;stroke-opacity:1"/>
<path class="bond-6 atom-6 atom-7" d="M 632.7,643.5 L 597.6,547.8" style="fill:none;fill-rule:evenodd;stroke:#000000;stroke-width:2.0px;stroke-linecap:butt;stroke-linejoin:miter;stroke-opacity:1"/>
<path class="bond-6 atom-6 atom-7" d="M 644.0,629.9 L 615.0,550.8" style="fill:none;fill-rule:evenodd;stroke:#000000;stroke-width:2.0px;stroke-linecap:butt;stroke-linejoin:miter;stroke-opacity:1"/>
<path class="bond-7 atom-7 atom-8" d="M 597.6,547.8 L 497.2,530.3" style="fill:none;fill-rule:evenodd;stroke:#000000;stroke-width:2.0px;stroke-linecap:butt;stroke-linejoin:miter;stroke-opacity:1"/>
<path class="bond-8 atom-8 atom-9" d="M 505.9,531.8 L 490.9,490.9" style="fill:none;fill-rule:evenodd;stroke:#000000;stroke-width:2.0px;stroke-linecap:butt;stroke-linejoin:miter;stroke-opacity:1"/>
<path class="bond-8 atom-8 atom-9" d="M 490.9,490.9 L 475.9,450.1" style="fill:none;fill-rule:evenodd;stroke:#FF0000;stroke-width:2.0px;stroke-linecap:butt;stroke-linejoin:miter;stroke-opacity:1"/>
<path class="bond-8 atom-8 atom-9" d="M 491.5,537.1 L 476.5,496.2" style="fill:none;fill-rule:evenodd;stroke:#000000;stroke-width:2.0px;stroke-linecap:butt;stroke-linejoin:miter;stroke-opacity:1"/>
<path class="bond-8 atom-8 atom-9" d="M 476.5,496.2 L 461.6,455.4" style="fill:none;fill-rule:evenodd;stroke:#FF0000;stroke-width:2.0px;stroke-linecap:butt;stroke-linejoin:miter;stroke-opacity:1"/>
<path class="bond-9 atom-8 atom-10" d="M 497.2,530.3 L 471.9,560.6" style="fill:none;fill-rule:evenodd;stroke:#000000;stroke-width:2.0px;stroke-linecap:butt;stroke-linejoin:miter;stroke-opacity:1"/>
<path class="bond-9 atom-8 atom-10" d="M 471.9,560.6 L 446.6,590.8" style="fill:none;fill-rule:evenodd;stroke:#FF0000;stroke-width:2.0px;stroke-linecap:butt;stroke-linejoin:miter;stroke-opacity:1"/>
<path class="bond-10 atom-10 atom-11" d="M 415.5,605.7 L 373.5,598.4" style="fill:none;fill-rule:evenodd;stroke:#FF0000;stroke-width:2.0px;stroke-linecap:butt;stroke-linejoin:miter;stroke-opacity:1"/>
<path class="bond-10 atom-10 atom-11" d="M 373.5,598.4 L 331.4,591.0" style="fill:none;fill-rule:evenodd;stroke:#000000;stroke-width:2.0px;stroke-linecap:butt;stroke-linejoin:miter;stroke-opacity:1"/>
<path class="bond-11 atom-11 atom-12" d="M 340.1,592.6 L 325.2,551.7" style="fill:none;fill-rule:evenodd;stroke:#000000;stroke-width:2.0px;stroke-linecap:butt;stroke-linejoin:miter;stroke-opacity:1"/>
<path class="bond-11 atom-11 atom-12" d="M 325.2,551.7 L 310.2,510.8" style="fill:none;fill-rule:evenodd;stroke:#FF0000;stroke-width:2.0px;stroke-linecap:butt;stroke-linejoin:miter;stroke-opacity:1"/>
<path class="bond-11 atom-11 atom-12" d="M 325.8,597.8 L 310.8,557.0" style="fill:none;fill-rule:evenodd;stroke:#000000;stroke-width:2.0px;stroke-linecap:butt;stroke-linejoin:miter;stroke-opacity:1"/>
<path class="bond-11 atom-11 atom-12" d="M 310.8,557.0 L 295.8,516.1" style="fill:none;fill-rule:evenodd;stroke:#FF0000;stroke-width:2.0px;stroke-linecap:butt;stroke-linejoin:miter;stroke-opacity:1"/>
<path class="bond-12 atom-11 atom-13" d="M 331.4,591.0 L 266.1,669.3" style="fill:none;fill-rule:evenodd;stroke:#000000;stroke-width:2.0px;stroke-linecap:butt;stroke-linejoin:miter;stroke-opacity:1"/>
<path class="bond-13 atom-13 atom-14" d="M 266.1,669.3 L 220.9,661.4" style="fill:none;fill-rule:evenodd;stroke:#000000;stroke-width:2.0px;stroke-linecap:butt;stroke-linejoin:miter;stroke-opacity:1"/>
<path class="bond-13 atom-13 atom-14" d="M 220.9,661.4 L 175.8,653.6" style="fill:none;fill-rule:evenodd;stroke:#191919;stroke-width:2.0px;stroke-linecap:butt;stroke-linejoin:miter;stroke-opacity:1"/>
<path class="bond-14 atom-13 atom-15" d="M 257.4,667.8 L 272.5,708.8" style="fill:none;fill-rule:evenodd;stroke:#000000;stroke-width:2.0px;stroke-linecap:butt;stroke-linejoin:miter;stroke-opacity:1"/>
<path class="bond-14 atom-13 atom-15" d="M 272.5,708.8 L 287.5,749.9" style="fill:none;fill-rule:evenodd;stroke:#FF0000;stroke-width:2.0px;stroke-linecap:butt;stroke-linejoin:miter;stroke-opacity:1"/>
<path class="bond-14 atom-13 atom-15" d="M 271.8,662.5 L 286.8,703.6" style="fill:none;fill-rule:evenodd;stroke:#000000;stroke-width:2.0px;stroke-linecap:butt;stroke-linejoin:miter;stroke-opacity:1"/>
<path class="bond-14 atom-13 atom-15" d="M 286.8,703.6 L 301.9,744.6" style="fill:none;fill-rule:evenodd;stroke:#FF0000;stroke-width:2.0px;stroke-linecap:butt;stroke-linejoin:miter;stroke-opacity:1"/>
<path class="bond-15 atom-7 atom-16" d="M 597.6,547.8 L 662.9,469.5" style="fill:none;fill-rule:evenodd;stroke:#000000;stroke-width:2.0px;stroke-linecap:butt;stroke-linejoin:miter;stroke-opacity:1"/>
<path class="bond-16 atom-16 atom-17" d="M 662.9,469.5 L 763.3,487.0" style="fill:none;fill-rule:evenodd;stroke:#000000;stroke-width:2.0px;stroke-linecap:butt;stroke-linejoin:miter;stroke-opacity:1"/>
<path class="bond-16 atom-16 atom-17" d="M 669.0,486.1 L 752.0,500.6" style="fill:none;fill-rule:evenodd;stroke:#000000;stroke-width:2.0px;stroke-linecap:butt;stroke-linejoin:miter;stroke-opacity:1"/>
<path class="bond-17 atom-17 atom-4" d="M 763.3,487.0 L 798.4,582.7" style="fill:none;fill-rule:evenodd;stroke:#000000;stroke-width:2.0px;stroke-linecap:butt;stroke-linejoin:miter;stroke-opacity:1"/>
<path d="M 899.5,602.1 L 898.8,600.2 L 893.8,599.3" style="fill:none;stroke:#000000;stroke-width:2.0px;stroke-linecap:butt;stroke-linejoin:miter;stroke-opacity:1;"/>
<path d="M 736.3,657.0 L 733.1,660.9 L 728.1,660.0" style="fill:none;stroke:#000000;stroke-width:2.0px;stroke-linecap:butt;stroke-linejoin:miter;stroke-opacity:1;"/>
<path d="M 637.7,644.3 L 632.7,643.5 L 630.9,638.7" style="fill:none;stroke:#000000;stroke-width:2.0px;stroke-linecap:butt;stroke-linejoin:miter;stroke-opacity:1;"/>
<path d="M 502.2,531.2 L 497.2,530.3 L 495.9,531.8" style="fill:none;stroke:#000000;stroke-width:2.0px;stroke-linecap:butt;stroke-linejoin:miter;stroke-opacity:1;"/>
<path d="M 333.5,591.4 L 331.4,591.0 L 328.2,595.0" style="fill:none;stroke:#000000;stroke-width:2.0px;stroke-linecap:butt;stroke-linejoin:miter;stroke-opacity:1;"/>
<path d="M 269.4,665.4 L 266.1,669.3 L 263.8,668.9" style="fill:none;stroke:#000000;stroke-width:2.0px;stroke-linecap:butt;stroke-linejoin:miter;stroke-opacity:1;"/>
<path d="M 659.7,473.4 L 662.9,469.5 L 667.9,470.4" style="fill:none;stroke:#000000;stroke-width:2.0px;stroke-linecap:butt;stroke-linejoin:miter;stroke-opacity:1;"/>
<path d="M 758.3,486.1 L 763.3,487.0 L 765.1,491.8" style="fill:none;stroke:#000000;stroke-width:2.0px;stroke-linecap:butt;stroke-linejoin:miter;stroke-opacity:1;"/>
<path class="atom-0" d="M 1029.0 710.2 L 1033.1 705.9 L 1027.6 704.8 L 1028.4 702.0 L 1033.5 704.5 L 1032.8 699.0 L 1035.8 698.9 L 1035.0 704.5 L 1040.1 702.1 L 1041.0 704.8 L 1035.4 705.8 L 1039.4 710.1 L 1037.0 711.9 L 1034.2 706.6 L 1031.4 711.9 L 1029.0 710.2 " fill="#191919"/>
<path class="atom-1" d="M 920.9 695.9 Q 920.9 689.1, 924.3 685.3 Q 927.6 681.5, 933.9 681.5 Q 940.2 681.5, 943.5 685.3 Q 946.9 689.1, 946.9 695.9 Q 946.9 702.8, 943.5 706.7 Q 940.1 710.6, 933.9 710.6 Q 927.7 710.6, 924.3 706.7 Q 920.9 702.9, 920.9 695.9 M 933.9 707.4 Q 938.2 707.4, 940.5 704.5 Q 942.9 701.6, 942.9 695.9 Q 942.9 690.4, 940.5 687.6 Q 938.2 684.7, 933.9 684.7 Q 929.6 684.7, 927.2 687.5 Q 924.9 690.3, 924.9 695.9 Q 924.9 701.7, 927.2 704.5 Q 929.6 707.4, 933.9 707.4 " fill="#FF0000"/>
<path class="atom-3" d="M 951.2 522.0 Q 951.2 515.2, 954.5 511.4 Q 957.9 507.6, 964.2 507.6 Q 970.4 507.6, 973.8 511.4 Q 977.2 515.2, 977.2 522.0 Q 977.2 528.9, 973.8 532.8 Q 970.4 536.7, 964.2 536.7 Q 957.9 536.7, 954.5 532.8 Q 951.2 528.9, 951.2 522.0 M 964.2 533.5 Q 968.5 533.5, 970.8 530.6 Q 973.2 527.7, 973.2 522.0 Q 973.2 516.5, 970.8 513.7 Q 968.5 510.8, 964.2 510.8 Q 959.8 510.8, 957.5 513.6 Q 955.2 516.4, 955.2 522.0 Q 955.2 527.7, 957.5 530.6 Q 959.8 533.5, 964.2 533.5 " fill="#FF0000"/>
<path class="atom-9" d="M 449.1 434.7 Q 449.1 427.9, 452.5 424.1 Q 455.8 420.3, 462.1 420.3 Q 468.4 420.3, 471.7 424.1 Q 475.1 427.9, 475.1 434.7 Q 475.1 441.6, 471.7 445.5 Q 468.3 449.4, 462.1 449.4 Q 455.9 449.4, 452.5 445.5 Q 449.1 441.6, 449.1 434.7 M 462.1 446.2 Q 466.4 446.2, 468.7 443.3 Q 471.1 440.4, 471.1 434.7 Q 471.1 429.1, 468.7 426.3 Q 466.4 423.5, 462.1 423.5 Q 457.8 423.5, 455.4 426.3 Q 453.1 429.1, 453.1 434.7 Q 453.1 440.4, 455.4 443.3 Q 457.8 446.2, 462.1 446.2 " fill="#FF0000"/>
<path class="atom-10" d="M 418.8 608.6 Q 418.8 601.8, 422.2 598.0 Q 425.6 594.2, 431.8 594.2 Q 438.1 594.2, 441.5 598.0 Q 444.8 601.8, 444.8 608.6 Q 444.8 615.5, 441.4 619.4 Q 438.0 623.3, 431.8 623.3 Q 425.6 623.3, 422.2 619.4 Q 418.8 615.5, 418.8 608.6 M 431.8 620.1 Q 436.2 620.1, 438.5 617.2 Q 440.8 614.3, 440.8 608.6 Q 440.8 603.0, 438.5 600.2 Q 436.2 597.4, 431.8 597.4 Q 427.5 597.4, 425.2 600.2 Q 422.8 603.0, 422.8 608.6 Q 422.8 614.3, 425.2 617.2 Q 427.5 620.1, 431.8 620.1 " fill="#FF0000"/>
<path class="atom-12" d="M 283.4 495.4 Q 283.4 488.6, 286.7 484.8 Q 290.1 481.0, 296.4 481.0 Q 302.6 481.0, 306.0 484.8 Q 309.4 488.6, 309.4 495.4 Q 309.4 502.3, 306.0 506.2 Q 302.6 510.1, 296.4 510.1 Q 290.1 510.1, 286.7 506.2 Q 283.4 502.4, 283.4 495.4 M 296.4 506.9 Q 300.7 506.9, 303.0 504.0 Q 305.4 501.1, 305.4 495.4 Q 305.4 489.9, 303.0 487.1 Q 300.7 484.2, 296.4 484.2 Q 292.0 484.2, 289.7 487.0 Q 287.4 489.8, 287.4 495.4 Q 287.4 501.2, 289.7 504.0 Q 292.0 506.9, 296.4 506.9 " fill="#FF0000"/>
<path class="atom-14" d="M 160.4 648.6 L 164.5 644.4 L 159.0 643.3 L 159.8 640.4 L 164.9 643.0 L 164.2 637.4 L 167.2 637.4 L 166.4 643.0 L 171.5 640.6 L 172.4 643.3 L 166.8 644.3 L 170.8 648.6 L 168.4 650.4 L 165.6 645.1 L 162.8 650.4 L 160.4 648.6 " fill="#191919"/>
<path class="atom-15" d="M 288.2 765.0 Q 288.2 758.2, 291.5 754.4 Q 294.9 750.6, 301.2 750.6 Q 307.5 750.6, 310.8 754.4 Q 314.2 758.2, 314.2 765.0 Q 314.2 771.9, 310.8 775.8 Q 307.4 779.7, 301.2 779.7 Q 294.9 779.7, 291.5 775.8 Q 288.2 772.0, 288.2 765.0 M 301.2 776.5 Q 305.5 776.5, 307.8 773.6 Q 310.2 770.7, 310.2 765.0 Q 310.2 759.5, 307.8 756.7 Q 305.5 753.8, 301.2 753.8 Q 296.9 753.8, 294.5 756.6 Q 292.2 759.4, 292.2 765.0 Q 292.2 770.8, 294.5 773.6 Q 296.9 776.5, 301.2 776.5 " fill="#FF0000"/>
</svg>