<svg xmlns="http://www.w3.org/2000/svg" xmlns:rdkit="http://www.rdkit.org/xml" xmlns:xlink="http://www.w3.org/1999/xlink" version="1.1" baseProfile="full" xml:space="preserve" width="1200px" height="800px" viewBox="0 0 1200 800">
<!-- END OF HEADER -->
<rect style="opacity:1.0;fill:#FFFFFF;stroke:none" width="1200.0" height="800.0" x="0.0" y="0.0"> </rect>
<path class="bond-0 atom-0 atom-1" d="M 191.5,177.1 L 216.2,219.7" style="fill:none;fill-rule:evenodd;stroke:#191919;stroke-width:2.0px;stroke-linecap:butt;stroke-linejoin:miter;stroke-opacity:1"/>
<path class="bond-0 atom-0 atom-1" d="M 216.2,219.7 L 240.9,262.3" style="fill:none;fill-rule:evenodd;stroke:#FF0000;stroke-width:2.0px;stroke-linecap:butt;stroke-linejoin:miter;stroke-opacity:1"/>
<path class="bond-1 atom-2 atom-1" d="M 370.8,280.2 L 370.8,280.9" style="fill:none;fill-rule:evenodd;stroke:#000000;stroke-width:1.0px;stroke-linecap:butt;stroke-linejoin:miter;stroke-opacity:1"/>
<path class="bond-1 atom-2 atom-1" d="M 367.3,279.9 L 367.3,281.2" style="fill:none;fill-rule:evenodd;stroke:#000000;stroke-width:1.0px;stroke-linecap:butt;stroke-linejoin:miter;stroke-opacity:1"/>
<path class="bond-1 atom-2 atom-1" d="M 363.8,279.6 L 363.8,281.6" style="fill:none;fill-rule:evenodd;stroke:#000000;stroke-width:1.0px;stroke-linecap:butt;stroke-linejoin:miter;stroke-opacity:1"/>
<path class="bond-1 atom-2 atom-1" d="M 360.3,279.3 L 360.3,281.9" style="fill:none;fill-rule:evenodd;stroke:#000000;stroke-width:1.0px;stroke-linecap:butt;stroke-linejoin:miter;stroke-opacity:1"/>
<path class="bond-1 atom-2 atom-1" d="M 356.8,278.9 L 356.8,282.2" style="fill:none;fill-rule:evenodd;stroke:#000000;stroke-width:1.0px;stroke-linecap:butt;stroke-linejoin:miter;stroke-opacity:1"/>
<path class="bond-1 atom-2 atom-1" d="M 353.3,278.6 L 353.3,282.6" style="fill:none;fill-rule:evenodd;stroke:#000000;stroke-width:1.0px;stroke-linecap:butt;stroke-linejoin:miter;stroke-opacity:1"/>
<path class="bond-1 atom-2 atom-1" d="M 349.8,278.3 L 349.8,282.9" style="fill:none;fill-rule:evenodd;stroke:#000000;stroke-width:1.0px;stroke-linecap:butt;stroke-linejoin:miter;stroke-opacity:1"/>
<path class="bond-1 atom-2 atom-1" d="M 346.3,278.0 L 346.3,283.2" style="fill:none;fill-rule:evenodd;stroke:#000000;stroke-width:1.0px;stroke-linecap:butt;stroke-linejoin:miter;stroke-opacity:1"/>
<path class="bond-1 atom-2 atom-1" d="M 342.8,277.6 L 342.8,283.6" style="fill:none;fill-rule:evenodd;stroke:#000000;stroke-width:1.0px;stroke-linecap:butt;stroke-linejoin:miter;stroke-opacity:1"/>
<path class="bond-1 atom-2 atom-1" d="M 339.3,277.3 L 339.3,283.9" style="fill:none;fill-rule:evenodd;stroke:#000000;stroke-width:1.0px;stroke-linecap:butt;stroke-linejoin:miter;stroke-opacity:1"/>
<path class="bond-1 atom-2 atom-1" d="M 335.7,277.0 L 335.8,284.2" style="fill:none;fill-rule:evenodd;stroke:#000000;stroke-width:1.0px;stroke-linecap:butt;stroke-linejoin:miter;stroke-opacity:1"/>
<path class="bond-1 atom-2 atom-1" d="M 332.2,276.7 L 332.3,284.6" style="fill:none;fill-rule:evenodd;stroke:#000000;stroke-width:1.0px;stroke-linecap:butt;stroke-linejoin:miter;stroke-opacity:1"/>
<path class="bond-1 atom-2 atom-1" d="M 328.7,276.3 L 328.7,284.9" style="fill:none;fill-rule:evenodd;stroke:#000000;stroke-width:1.0px;stroke-linecap:butt;stroke-linejoin:miter;stroke-opacity:1"/>
<path class="bond-1 atom-2 atom-1" d="M 325.2,276.0 L 325.2,285.2" style="fill:none;fill-rule:evenodd;stroke:#000000;stroke-width:1.0px;stroke-linecap:butt;stroke-linejoin:miter;stroke-opacity:1"/>
<path class="bond-1 atom-2 atom-1" d="M 321.7,275.7 L 321.7,285.6" style="fill:none;fill-rule:evenodd;stroke:#FF0000;stroke-width:1.0px;stroke-linecap:butt;stroke-linejoin:miter;stroke-opacity:1"/>
<path class="bond-1 atom-2 atom-1" d="M 318.2,275.4 L 318.2,285.9" style="fill:none;fill-rule:evenodd;stroke:#FF0000;stroke-width:1.0px;stroke-linecap:butt;stroke-linejoin:miter;stroke-opacity:1"/>
<path class="bond-1 atom-2 atom-1" d="M 314.7,275.0 L 314.7,286.2" style="fill:none;fill-rule:evenodd;stroke:#FF0000;stroke-width:1.0px;stroke-linecap:butt;stroke-linejoin:miter;stroke-opacity:1"/>
<path class="bond-1 atom-2 atom-1" d="M 311.2,274.7 L 311.2,286.6" style="fill:none;fill-rule:evenodd;stroke:#FF0000;stroke-width:1.0px;stroke-linecap:butt;stroke-linejoin:miter;stroke-opacity:1"/>
<path class="bond-1 atom-2 atom-1" d="M 307.7,274.4 L 307.7,286.9" style="fill:none;fill-rule:evenodd;stroke:#FF0000;stroke-width:1.0px;stroke-linecap:butt;stroke-linejoin:miter;stroke-opacity:1"/>
<path class="bond-1 atom-2 atom-1" d="M 304.2,274.1 L 304.2,287.2" style="fill:none;fill-rule:evenodd;stroke:#FF0000;stroke-width:1.0px;stroke-linecap:butt;stroke-linejoin:miter;stroke-opacity:1"/>
<path class="bond-1 atom-2 atom-1" d="M 300.7,273.7 L 300.7,287.6" style="fill:none;fill-rule:evenodd;stroke:#FF0000;stroke-width:1.0px;stroke-linecap:butt;stroke-linejoin:miter;stroke-opacity:1"/>
<path class="bond-1 atom-2 atom-1" d="M 297.2,273.4 L 297.2,287.9" style="fill:none;fill-rule:evenodd;stroke:#FF0000;stroke-width:1.0px;stroke-linecap:butt;stroke-linejoin:miter;stroke-opacity:1"/>
<path class="bond-1 atom-2 atom-1" d="M 293.7,273.1 L 293.7,288.2" style="fill:none;fill-rule:evenodd;stroke:#FF0000;stroke-width:1.0px;stroke-linecap:butt;stroke-linejoin:miter;stroke-opacity:1"/>
<path class="bond-1 atom-2 atom-1" d="M 290.2,272.8 L 290.2,288.6" style="fill:none;fill-rule:evenodd;stroke:#FF0000;stroke-width:1.0px;stroke-linecap:butt;stroke-linejoin:miter;stroke-opacity:1"/>
<path class="bond-1 atom-2 atom-1" d="M 286.7,272.5 L 286.7,288.9" style="fill:none;fill-rule:evenodd;stroke:#FF0000;stroke-width:1.0px;stroke-linecap:butt;stroke-linejoin:miter;stroke-opacity:1"/>
<path class="bond-1 atom-2 atom-1" d="M 283.1,272.1 L 283.2,289.2" style="fill:none;fill-rule:evenodd;stroke:#FF0000;stroke-width:1.0px;stroke-linecap:butt;stroke-linejoin:miter;stroke-opacity:1"/>
<path class="bond-1 atom-2 atom-1" d="M 279.6,271.8 L 279.7,289.6" style="fill:none;fill-rule:evenodd;stroke:#FF0000;stroke-width:1.0px;stroke-linecap:butt;stroke-linejoin:miter;stroke-opacity:1"/>
<path class="bond-1 atom-2 atom-1" d="M 276.1,271.5 L 276.2,289.9" style="fill:none;fill-rule:evenodd;stroke:#FF0000;stroke-width:1.0px;stroke-linecap:butt;stroke-linejoin:miter;stroke-opacity:1"/>
<path class="bond-2 atom-2 atom-3" d="M 374.3,280.6 L 446.6,379.8" style="fill:none;fill-rule:evenodd;stroke:#000000;stroke-width:2.0px;stroke-linecap:butt;stroke-linejoin:miter;stroke-opacity:1"/>
<path class="bond-3 atom-3 atom-4" d="M 446.6,379.8 L 496.5,363.6" style="fill:none;fill-rule:evenodd;stroke:#000000;stroke-width:2.0px;stroke-linecap:butt;stroke-linejoin:miter;stroke-opacity:1"/>
<path class="bond-3 atom-3 atom-4" d="M 496.5,363.6 L 546.3,347.3" style="fill:none;fill-rule:evenodd;stroke:#FF0000;stroke-width:2.0px;stroke-linecap:butt;stroke-linejoin:miter;stroke-opacity:1"/>
<path class="bond-4 atom-4 atom-5" d="M 563.4,323.3 L 563.3,271.1" style="fill:none;fill-rule:evenodd;stroke:#FF0000;stroke-width:2.0px;stroke-linecap:butt;stroke-linejoin:miter;stroke-opacity:1"/>
<path class="bond-4 atom-4 atom-5" d="M 563.3,271.1 L 563.2,218.9" style="fill:none;fill-rule:evenodd;stroke:#000000;stroke-width:2.0px;stroke-linecap:butt;stroke-linejoin:miter;stroke-opacity:1"/>
<path class="bond-5 atom-5 atom-6" d="M 563.2,218.9 L 446.4,181.1" style="fill:none;fill-rule:evenodd;stroke:#000000;stroke-width:2.0px;stroke-linecap:butt;stroke-linejoin:miter;stroke-opacity:1"/>
<path class="bond-6 atom-6 atom-7" d="M 446.4,181.1 L 446.3,129.1" style="fill:none;fill-rule:evenodd;stroke:#000000;stroke-width:2.0px;stroke-linecap:butt;stroke-linejoin:miter;stroke-opacity:1"/>
<path class="bond-6 atom-6 atom-7" d="M 446.3,129.1 L 446.2,77.1" style="fill:none;fill-rule:evenodd;stroke:#FF0000;stroke-width:2.0px;stroke-linecap:butt;stroke-linejoin:miter;stroke-opacity:1"/>
<path class="bond-7 atom-7 atom-8" d="M 463.3,52.7 L 513.1,36.4" style="fill:none;fill-rule:evenodd;stroke:#FF0000;stroke-width:2.0px;stroke-linecap:butt;stroke-linejoin:miter;stroke-opacity:1"/>
<path class="bond-7 atom-7 atom-8" d="M 513.1,36.4 L 563.0,20.2" style="fill:none;fill-rule:evenodd;stroke:#000000;stroke-width:2.0px;stroke-linecap:butt;stroke-linejoin:miter;stroke-opacity:1"/>
<path class="bond-8 atom-8 atom-9" d="M 563.0,20.2 L 635.3,119.4" style="fill:none;fill-rule:evenodd;stroke:#000000;stroke-width:2.0px;stroke-linecap:butt;stroke-linejoin:miter;stroke-opacity:1"/>
<path class="bond-9 atom-9 atom-10" d="M 638.8,119.8 L 638.8,119.1" style="fill:none;fill-rule:evenodd;stroke:#000000;stroke-width:1.0px;stroke-linecap:butt;stroke-linejoin:miter;stroke-opacity:1"/>
<path class="bond-9 atom-9 atom-10" d="M 642.3,120.1 L 642.3,118.8" style="fill:none;fill-rule:evenodd;stroke:#000000;stroke-width:1.0px;stroke-linecap:butt;stroke-linejoin:miter;stroke-opacity:1"/>
<path class="bond-9 atom-9 atom-10" d="M 645.8,120.4 L 645.8,118.4" style="fill:none;fill-rule:evenodd;stroke:#000000;stroke-width:1.0px;stroke-linecap:butt;stroke-linejoin:miter;stroke-opacity:1"/>
<path class="bond-9 atom-9 atom-10" d="M 649.3,120.7 L 649.3,118.1" style="fill:none;fill-rule:evenodd;stroke:#000000;stroke-width:1.0px;stroke-linecap:butt;stroke-linejoin:miter;stroke-opacity:1"/>
<path class="bond-9 atom-9 atom-10" d="M 652.8,121.1 L 652.8,117.8" style="fill:none;fill-rule:evenodd;stroke:#000000;stroke-width:1.0px;stroke-linecap:butt;stroke-linejoin:miter;stroke-opacity:1"/>
<path class="bond-9 atom-9 atom-10" d="M 656.3,121.4 L 656.3,117.4" style="fill:none;fill-rule:evenodd;stroke:#000000;stroke-width:1.0px;stroke-linecap:butt;stroke-linejoin:miter;stroke-opacity:1"/>
<path class="bond-9 atom-9 atom-10" d="M 659.8,121.7 L 659.8,117.1" style="fill:none;fill-rule:evenodd;stroke:#000000;stroke-width:1.0px;stroke-linecap:butt;stroke-linejoin:miter;stroke-opacity:1"/>
<path class="bond-9 atom-9 atom-10" d="M 663.3,122.0 L 663.3,116.8" style="fill:none;fill-rule:evenodd;stroke:#000000;stroke-width:1.0px;stroke-linecap:butt;stroke-linejoin:miter;stroke-opacity:1"/>
<path class="bond-9 atom-9 atom-10" d="M 666.9,122.4 L 666.8,116.4" style="fill:none;fill-rule:evenodd;stroke:#000000;stroke-width:1.0px;stroke-linecap:butt;stroke-linejoin:miter;stroke-opacity:1"/>
<path class="bond-9 atom-9 atom-10" d="M 670.4,122.7 L 670.4,116.1" style="fill:none;fill-rule:evenodd;stroke:#000000;stroke-width:1.0px;stroke-linecap:butt;stroke-linejoin:miter;stroke-opacity:1"/>
<path class="bond-9 atom-9 atom-10" d="M 673.9,123.0 L 673.9,115.8" style="fill:none;fill-rule:evenodd;stroke:#000000;stroke-width:1.0px;stroke-linecap:butt;stroke-linejoin:miter;stroke-opacity:1"/>
<path class="bond-9 atom-9 atom-10" d="M 677.4,123.3 L 677.4,115.4" style="fill:none;fill-rule:evenodd;stroke:#000000;stroke-width:1.0px;stroke-linecap:butt;stroke-linejoin:miter;stroke-opacity:1"/>
<path class="bond-9 atom-9 atom-10" d="M 680.9,123.7 L 680.9,115.1" style="fill:none;fill-rule:evenodd;stroke:#000000;stroke-width:1.0px;stroke-linecap:butt;stroke-linejoin:miter;stroke-opacity:1"/>
<path class="bond-9 atom-9 atom-10" d="M 684.4,124.0 L 684.4,114.8" style="fill:none;fill-rule:evenodd;stroke:#000000;stroke-width:1.0px;stroke-linecap:butt;stroke-linejoin:miter;stroke-opacity:1"/>
<path class="bond-9 atom-9 atom-10" d="M 687.9,124.3 L 687.9,114.4" style="fill:none;fill-rule:evenodd;stroke:#FF0000;stroke-width:1.0px;stroke-linecap:butt;stroke-linejoin:miter;stroke-opacity:1"/>
<path class="bond-9 atom-9 atom-10" d="M 691.4,124.6 L 691.4,114.1" style="fill:none;fill-rule:evenodd;stroke:#FF0000;stroke-width:1.0px;stroke-linecap:butt;stroke-linejoin:miter;stroke-opacity:1"/>
<path class="bond-9 atom-9 atom-10" d="M 694.9,125.0 L 694.9,113.8" style="fill:none;fill-rule:evenodd;stroke:#FF0000;stroke-width:1.0px;stroke-linecap:butt;stroke-linejoin:miter;stroke-opacity:1"/>
<path class="bond-9 atom-9 atom-10" d="M 698.4,125.3 L 698.4,113.4" style="fill:none;fill-rule:evenodd;stroke:#FF0000;stroke-width:1.0px;stroke-linecap:butt;stroke-linejoin:miter;stroke-opacity:1"/>
<path class="bond-9 atom-9 atom-10" d="M 701.9,125.6 L 701.9,113.1" style="fill:none;fill-rule:evenodd;stroke:#FF0000;stroke-width:1.0px;stroke-linecap:butt;stroke-linejoin:miter;stroke-opacity:1"/>
<path class="bond-9 atom-9 atom-10" d="M 705.4,125.9 L 705.4,112.8" style="fill:none;fill-rule:evenodd;stroke:#FF0000;stroke-width:1.0px;stroke-linecap:butt;stroke-linejoin:miter;stroke-opacity:1"/>
<path class="bond-9 atom-9 atom-10" d="M 708.9,126.3 L 708.9,112.4" style="fill:none;fill-rule:evenodd;stroke:#FF0000;stroke-width:1.0px;stroke-linecap:butt;stroke-linejoin:miter;stroke-opacity:1"/>
<path class="bond-9 atom-9 atom-10" d="M 712.4,126.6 L 712.4,112.1" style="fill:none;fill-rule:evenodd;stroke:#FF0000;stroke-width:1.0px;stroke-linecap:butt;stroke-linejoin:miter;stroke-opacity:1"/>
<path class="bond-9 atom-9 atom-10" d="M 715.9,126.9 L 715.9,111.8" style="fill:none;fill-rule:evenodd;stroke:#FF0000;stroke-width:1.0px;stroke-linecap:butt;stroke-linejoin:miter;stroke-opacity:1"/>
<path class="bond-9 atom-9 atom-10" d="M 719.5,127.2 L 719.4,111.4" style="fill:none;fill-rule:evenodd;stroke:#FF0000;stroke-width:1.0px;stroke-linecap:butt;stroke-linejoin:miter;stroke-opacity:1"/>
<path class="bond-9 atom-9 atom-10" d="M 723.0,127.5 L 722.9,111.1" style="fill:none;fill-rule:evenodd;stroke:#FF0000;stroke-width:1.0px;stroke-linecap:butt;stroke-linejoin:miter;stroke-opacity:1"/>
<path class="bond-9 atom-9 atom-10" d="M 726.5,127.9 L 726.4,110.8" style="fill:none;fill-rule:evenodd;stroke:#FF0000;stroke-width:1.0px;stroke-linecap:butt;stroke-linejoin:miter;stroke-opacity:1"/>
<path class="bond-9 atom-9 atom-10" d="M 730.0,128.2 L 730.0,110.4" style="fill:none;fill-rule:evenodd;stroke:#FF0000;stroke-width:1.0px;stroke-linecap:butt;stroke-linejoin:miter;stroke-opacity:1"/>
<path class="bond-9 atom-9 atom-10" d="M 733.5,128.5 L 733.5,110.1" style="fill:none;fill-rule:evenodd;stroke:#FF0000;stroke-width:1.0px;stroke-linecap:butt;stroke-linejoin:miter;stroke-opacity:1"/>
<path class="bond-10 atom-10 atom-11" d="M 769.0,138.1 L 794.3,181.8" style="fill:none;fill-rule:evenodd;stroke:#FF0000;stroke-width:2.0px;stroke-linecap:butt;stroke-linejoin:miter;stroke-opacity:1"/>
<path class="bond-10 atom-10 atom-11" d="M 794.3,181.8 L 819.7,225.6" style="fill:none;fill-rule:evenodd;stroke:#000000;stroke-width:2.0px;stroke-linecap:butt;stroke-linejoin:miter;stroke-opacity:1"/>
<path class="bond-11 atom-11 atom-12" d="M 814.3,216.4 L 787.7,262.7" style="fill:none;fill-rule:evenodd;stroke:#000000;stroke-width:2.0px;stroke-linecap:butt;stroke-linejoin:miter;stroke-opacity:1"/>
<path class="bond-11 atom-11 atom-12" d="M 787.7,262.7 L 761.0,309.0" style="fill:none;fill-rule:evenodd;stroke:#FF0000;stroke-width:2.0px;stroke-linecap:butt;stroke-linejoin:miter;stroke-opacity:1"/>
<path class="bond-11 atom-11 atom-12" d="M 830.3,225.5 L 803.6,271.9" style="fill:none;fill-rule:evenodd;stroke:#000000;stroke-width:2.0px;stroke-linecap:butt;stroke-linejoin:miter;stroke-opacity:1"/>
<path class="bond-11 atom-11 atom-12" d="M 803.6,271.9 L 777.0,318.2" style="fill:none;fill-rule:evenodd;stroke:#FF0000;stroke-width:2.0px;stroke-linecap:butt;stroke-linejoin:miter;stroke-opacity:1"/>
<path class="bond-12 atom-11 atom-13" d="M 819.7,225.6 L 942.5,225.4" style="fill:none;fill-rule:evenodd;stroke:#000000;stroke-width:2.0px;stroke-linecap:butt;stroke-linejoin:miter;stroke-opacity:1"/>
<path class="bond-13 atom-13 atom-14" d="M 942.5,225.4 L 967.9,269.3" style="fill:none;fill-rule:evenodd;stroke:#000000;stroke-width:2.0px;stroke-linecap:butt;stroke-linejoin:miter;stroke-opacity:1"/>
<path class="bond-13 atom-13 atom-14" d="M 967.9,269.3 L 993.3,313.2" style="fill:none;fill-rule:evenodd;stroke:#191919;stroke-width:2.0px;stroke-linecap:butt;stroke-linejoin:miter;stroke-opacity:1"/>
<path class="bond-14 atom-13 atom-15" d="M 947.8,234.6 L 974.4,188.5" style="fill:none;fill-rule:evenodd;stroke:#000000;stroke-width:2.0px;stroke-linecap:butt;stroke-linejoin:miter;stroke-opacity:1"/>
<path class="bond-14 atom-13 atom-15" d="M 974.4,188.5 L 1000.9,142.4" style="fill:none;fill-rule:evenodd;stroke:#FF0000;stroke-width:2.0px;stroke-linecap:butt;stroke-linejoin:miter;stroke-opacity:1"/>
<path class="bond-14 atom-13 atom-15" d="M 931.8,225.4 L 958.4,179.3" style="fill:none;fill-rule:evenodd;stroke:#000000;stroke-width:2.0px;stroke-linecap:butt;stroke-linejoin:miter;stroke-opacity:1"/>
<path class="bond-14 atom-13 atom-15" d="M 958.4,179.3 L 984.9,133.2" style="fill:none;fill-rule:evenodd;stroke:#FF0000;stroke-width:2.0px;stroke-linecap:butt;stroke-linejoin:miter;stroke-opacity:1"/>
<path class="bond-15 atom-6 atom-2" d="M 446.4,181.1 L 374.3,280.6" style="fill:none;fill-rule:evenodd;stroke:#000000;stroke-width:2.0px;stroke-linecap:butt;stroke-linejoin:miter;stroke-opacity:1"/>
<path class="bond-16 atom-9 atom-5" d="M 635.3,119.4 L 563.2,218.9" style="fill:none;fill-rule:evenodd;stroke:#000000;stroke-width:2.0px;stroke-linecap:butt;stroke-linejoin:miter;stroke-opacity:1"/>
<path d="M 377.9,285.5 L 374.3,280.6 L 377.9,275.6" style="fill:none;stroke:#000000;stroke-width:2.0px;stroke-linecap:butt;stroke-linejoin:miter;stroke-opacity:1;"/>
<path d="M 443.0,374.9 L 446.6,379.8 L 449.1,379.0" style="fill:none;stroke:#000000;stroke-width:2.0px;stroke-linecap:butt;stroke-linejoin:miter;stroke-opacity:1;"/>
<path d="M 560.5,21.0 L 563.0,20.2 L 566.6,25.1" style="fill:none;stroke:#000000;stroke-width:2.0px;stroke-linecap:butt;stroke-linejoin:miter;stroke-opacity:1;"/>
<path d="M 631.7,114.5 L 635.3,119.4 L 631.7,124.4" style="fill:none;stroke:#000000;stroke-width:2.0px;stroke-linecap:butt;stroke-linejoin:miter;stroke-opacity:1;"/>
<path d="M 818.4,223.4 L 819.7,225.6 L 825.8,225.6" style="fill:none;stroke:#000000;stroke-width:2.0px;stroke-linecap:butt;stroke-linejoin:miter;stroke-opacity:1;"/>
<path d="M 936.3,225.4 L 942.5,225.4 L 943.7,227.6" style="fill:none;stroke:#000000;stroke-width:2.0px;stroke-linecap:butt;stroke-linejoin:miter;stroke-opacity:1;"/>
<path class="atom-0" d="M 184.6 171.3 L 188.8 167.0 L 183.3 165.9 L 184.1 163.1 L 189.2 165.6 L 188.5 160.1 L 191.5 160.0 L 190.6 165.6 L 195.8 163.2 L 196.7 165.9 L 191.1 167.0 L 195.1 171.2 L 192.6 173.0 L 189.9 167.7 L 187.1 173.0 L 184.6 171.3 " fill="#191919"/>
<path class="atom-1" d="M 238.5 280.8 Q 238.5 274.0, 241.9 270.2 Q 245.2 266.4, 251.5 266.4 Q 257.8 266.4, 261.1 270.2 Q 264.5 274.0, 264.5 280.8 Q 264.5 287.7, 261.1 291.6 Q 257.7 295.5, 251.5 295.5 Q 245.3 295.5, 241.9 291.6 Q 238.5 287.7, 238.5 280.8 M 251.5 292.3 Q 255.8 292.3, 258.1 289.4 Q 260.5 286.5, 260.5 280.8 Q 260.5 275.2, 258.1 272.4 Q 255.8 269.6, 251.5 269.6 Q 247.2 269.6, 244.8 272.4 Q 242.5 275.2, 242.5 280.8 Q 242.5 286.5, 244.8 289.4 Q 247.2 292.3, 251.5 292.3 " fill="#FF0000"/>
<path class="atom-4" d="M 550.4 341.8 Q 550.4 335.0, 553.8 331.2 Q 557.1 327.4, 563.4 327.4 Q 569.7 327.4, 573.0 331.2 Q 576.4 335.0, 576.4 341.8 Q 576.4 348.7, 573.0 352.6 Q 569.6 356.5, 563.4 356.5 Q 557.2 356.5, 553.8 352.6 Q 550.4 348.7, 550.4 341.8 M 563.4 353.3 Q 567.7 353.3, 570.0 350.4 Q 572.4 347.5, 572.4 341.8 Q 572.4 336.2, 570.0 333.4 Q 567.7 330.6, 563.4 330.6 Q 559.1 330.6, 556.7 333.4 Q 554.4 336.2, 554.4 341.8 Q 554.4 347.5, 556.7 350.4 Q 559.1 353.3, 563.4 353.3 " fill="#FF0000"/>
<path class="atom-7" d="M 433.2 58.4 Q 433.2 51.6, 436.6 47.8 Q 439.9 44.0, 446.2 44.0 Q 452.5 44.0, 455.9 47.8 Q 459.2 51.6, 459.2 58.4 Q 459.2 65.2, 455.8 69.2 Q 452.4 73.0, 446.2 73.0 Q 440.0 73.0, 436.6 69.2 Q 433.2 65.3, 433.2 58.4 M 446.2 69.8 Q 450.5 69.8, 452.9 67.0 Q 455.2 64.0, 455.2 58.4 Q 455.2 52.8, 452.9 50.0 Q 450.5 47.2, 446.2 47.2 Q 441.9 47.2, 439.5 50.0 Q 437.2 52.8, 437.2 58.4 Q 437.2 64.1, 439.5 67.0 Q 441.9 69.8, 446.2 69.8 " fill="#FF0000"/>
<path class="atom-10" d="M 745.1 119.4 Q 745.1 112.6, 748.5 108.8 Q 751.8 105.0, 758.1 105.0 Q 764.4 105.0, 767.8 108.8 Q 771.1 112.6, 771.1 119.4 Q 771.1 126.2, 767.7 130.2 Q 764.3 134.0, 758.1 134.0 Q 751.9 134.0, 748.5 130.2 Q 745.1 126.3, 745.1 119.4 M 758.1 130.8 Q 762.4 130.8, 764.8 128.0 Q 767.1 125.0, 767.1 119.4 Q 767.1 113.8, 764.8 111.0 Q 762.4 108.2, 758.1 108.2 Q 753.8 108.2, 751.4 111.0 Q 749.1 113.8, 749.1 119.4 Q 749.1 125.1, 751.4 128.0 Q 753.8 130.8, 758.1 130.8 " fill="#FF0000"/>
<path class="atom-12" d="M 745.4 332.1 Q 745.4 325.3, 748.8 321.5 Q 752.1 317.7, 758.4 317.7 Q 764.7 317.7, 768.0 321.5 Q 771.4 325.3, 771.4 332.1 Q 771.4 339.0, 768.0 342.9 Q 764.6 346.8, 758.4 346.8 Q 752.2 346.8, 748.8 342.9 Q 745.4 339.0, 745.4 332.1 M 758.4 343.6 Q 762.7 343.6, 765.0 340.7 Q 767.4 337.8, 767.4 332.1 Q 767.4 326.5, 765.0 323.7 Q 762.7 320.9, 758.4 320.9 Q 754.1 320.9, 751.7 323.7 Q 749.4 326.5, 749.4 332.1 Q 749.4 337.8, 751.7 340.7 Q 754.1 343.6, 758.4 343.6 " fill="#FF0000"/>
<path class="atom-14" d="M 998.7 328.5 L 1002.8 324.3 L 997.3 323.2 L 998.2 320.3 L 1003.2 322.9 L 1002.5 317.3 L 1005.5 317.3 L 1004.7 322.8 L 1009.8 320.4 L 1010.7 323.2 L 1005.1 324.2 L 1009.1 328.5 L 1006.7 330.2 L 1003.9 325.0 L 1001.1 330.2 L 998.7 328.5 " fill="#191919"/>
<path class="atom-15" d="M 990.7 119.0 Q 990.7 112.2, 994.1 108.4 Q 997.5 104.6, 1003.7 104.6 Q 1010.0 104.6, 1013.4 108.4 Q 1016.7 112.2, 1016.7 119.0 Q 1016.7 125.9, 1013.3 129.8 Q 1009.9 133.7, 1003.7 133.7 Q 997.5 133.7, 994.1 129.8 Q 990.7 126.0, 990.7 119.0 M 1003.7 130.5 Q 1008.1 130.5, 1010.4 127.6 Q 1012.7 124.7, 1012.7 119.0 Q 1012.7 113.5, 1010.4 110.7 Q 1008.1 107.8, 1003.7 107.8 Q 999.4 107.8, 997.1 110.6 Q 994.7 113.4, 994.7 119.0 Q 994.7 124.8, 997.1 127.6 Q 999.4 130.5, 1003.7 130.5 " fill="#FF0000"/>
<path class="bond-0 atom-0 atom-1" d="M 79.0,613.0 L 118.6,590.8" style="fill:none;fill-rule:evenodd;stroke:#191919;stroke-width:2.0px;stroke-linecap:butt;stroke-linejoin:miter;stroke-opacity:1"/>
<path class="bond-0 atom-0 atom-1" d="M 118.6,590.8 L 158.3,568.5" style="fill:none;fill-rule:evenodd;stroke:#FF0000;stroke-width:2.0px;stroke-linecap:butt;stroke-linejoin:miter;stroke-opacity:1"/>
<path class="bond-1 atom-1 atom-2" d="M 192.4,569.1 L 236.7,595.4" style="fill:none;fill-rule:evenodd;stroke:#FF0000;stroke-width:2.0px;stroke-linecap:butt;stroke-linejoin:miter;stroke-opacity:1"/>
<path class="bond-1 atom-1 atom-2" d="M 236.7,595.4 L 280.9,621.7" style="fill:none;fill-rule:evenodd;stroke:#000000;stroke-width:2.0px;stroke-linecap:butt;stroke-linejoin:miter;stroke-opacity:1"/>
<path class="bond-2 atom-2 atom-3" d="M 280.9,621.7 L 388.1,561.7" style="fill:none;fill-rule:evenodd;stroke:#000000;stroke-width:2.0px;stroke-linecap:butt;stroke-linejoin:miter;stroke-opacity:1"/>
<path class="bond-3 atom-3 atom-4" d="M 388.1,561.7 L 432.3,588.0" style="fill:none;fill-rule:evenodd;stroke:#000000;stroke-width:2.0px;stroke-linecap:butt;stroke-linejoin:miter;stroke-opacity:1"/>
<path class="bond-3 atom-3 atom-4" d="M 432.3,588.0 L 476.6,614.3" style="fill:none;fill-rule:evenodd;stroke:#FF0000;stroke-width:2.0px;stroke-linecap:butt;stroke-linejoin:miter;stroke-opacity:1"/>
<path class="bond-4 atom-4 atom-5" d="M 510.7,614.9 L 555.7,589.6" style="fill:none;fill-rule:evenodd;stroke:#FF0000;stroke-width:2.0px;stroke-linecap:butt;stroke-linejoin:miter;stroke-opacity:1"/>
<path class="bond-4 atom-4 atom-5" d="M 555.7,589.6 L 600.8,564.4" style="fill:none;fill-rule:evenodd;stroke:#000000;stroke-width:2.0px;stroke-linecap:butt;stroke-linejoin:miter;stroke-opacity:1"/>
<path class="bond-5 atom-5 atom-6" d="M 600.8,564.4 L 706.4,627.1" style="fill:none;fill-rule:evenodd;stroke:#000000;stroke-width:2.0px;stroke-linecap:butt;stroke-linejoin:miter;stroke-opacity:1"/>
<path class="bond-6 atom-6 atom-7" d="M 706.4,627.1 L 751.4,601.9" style="fill:none;fill-rule:evenodd;stroke:#000000;stroke-width:2.0px;stroke-linecap:butt;stroke-linejoin:miter;stroke-opacity:1"/>
<path class="bond-6 atom-6 atom-7" d="M 751.4,601.9 L 796.4,576.6" style="fill:none;fill-rule:evenodd;stroke:#FF0000;stroke-width:2.0px;stroke-linecap:butt;stroke-linejoin:miter;stroke-opacity:1"/>
<path class="bond-7 atom-7 atom-8" d="M 830.5,577.2 L 874.8,603.5" style="fill:none;fill-rule:evenodd;stroke:#FF0000;stroke-width:2.0px;stroke-linecap:butt;stroke-linejoin:miter;stroke-opacity:1"/>
<path class="bond-7 atom-7 atom-8" d="M 874.8,603.5 L 919.1,629.8" style="fill:none;fill-rule:evenodd;stroke:#000000;stroke-width:2.0px;stroke-linecap:butt;stroke-linejoin:miter;stroke-opacity:1"/>
<path class="bond-8 atom-8 atom-9" d="M 909.9,624.4 L 909.2,679.2" style="fill:none;fill-rule:evenodd;stroke:#000000;stroke-width:2.0px;stroke-linecap:butt;stroke-linejoin:miter;stroke-opacity:1"/>
<path class="bond-8 atom-8 atom-9" d="M 909.2,679.2 L 908.5,734.1" style="fill:none;fill-rule:evenodd;stroke:#FF0000;stroke-width:2.0px;stroke-linecap:butt;stroke-linejoin:miter;stroke-opacity:1"/>
<path class="bond-8 atom-8 atom-9" d="M 928.3,624.6 L 927.6,679.5" style="fill:none;fill-rule:evenodd;stroke:#000000;stroke-width:2.0px;stroke-linecap:butt;stroke-linejoin:miter;stroke-opacity:1"/>
<path class="bond-8 atom-8 atom-9" d="M 927.6,679.5 L 926.9,734.4" style="fill:none;fill-rule:evenodd;stroke:#FF0000;stroke-width:2.0px;stroke-linecap:butt;stroke-linejoin:miter;stroke-opacity:1"/>
<path class="bond-9 atom-8 atom-10" d="M 919.1,629.8 L 1026.2,569.8" style="fill:none;fill-rule:evenodd;stroke:#000000;stroke-width:2.0px;stroke-linecap:butt;stroke-linejoin:miter;stroke-opacity:1"/>
<path class="bond-10 atom-10 atom-11" d="M 1026.2,569.8 L 1073.6,597.9" style="fill:none;fill-rule:evenodd;stroke:#000000;stroke-width:2.0px;stroke-linecap:butt;stroke-linejoin:miter;stroke-opacity:1"/>
<path class="bond-10 atom-10 atom-11" d="M 1073.6,597.9 L 1121.0,626.1" style="fill:none;fill-rule:evenodd;stroke:#191919;stroke-width:2.0px;stroke-linecap:butt;stroke-linejoin:miter;stroke-opacity:1"/>
<path class="bond-11 atom-10 atom-12" d="M 1035.3,575.2 L 1036.0,520.5" style="fill:none;fill-rule:evenodd;stroke:#000000;stroke-width:2.0px;stroke-linecap:butt;stroke-linejoin:miter;stroke-opacity:1"/>
<path class="bond-11 atom-10 atom-12" d="M 1036.0,520.5 L 1036.7,465.9" style="fill:none;fill-rule:evenodd;stroke:#FF0000;stroke-width:2.0px;stroke-linecap:butt;stroke-linejoin:miter;stroke-opacity:1"/>
<path class="bond-11 atom-10 atom-12" d="M 1016.9,575.0 L 1017.6,520.3" style="fill:none;fill-rule:evenodd;stroke:#000000;stroke-width:2.0px;stroke-linecap:butt;stroke-linejoin:miter;stroke-opacity:1"/>
<path class="bond-11 atom-10 atom-12" d="M 1017.6,520.3 L 1018.3,465.6" style="fill:none;fill-rule:evenodd;stroke:#FF0000;stroke-width:2.0px;stroke-linecap:butt;stroke-linejoin:miter;stroke-opacity:1"/>
<path d="M 278.7,620.4 L 280.9,621.7 L 286.3,618.7" style="fill:none;stroke:#000000;stroke-width:2.0px;stroke-linecap:butt;stroke-linejoin:miter;stroke-opacity:1;"/>
<path d="M 382.7,564.7 L 388.1,561.7 L 390.3,563.0" style="fill:none;stroke:#000000;stroke-width:2.0px;stroke-linecap:butt;stroke-linejoin:miter;stroke-opacity:1;"/>
<path d="M 598.5,565.6 L 600.8,564.4 L 606.1,567.5" style="fill:none;stroke:#000000;stroke-width:2.0px;stroke-linecap:butt;stroke-linejoin:miter;stroke-opacity:1;"/>
<path d="M 701.1,624.0 L 706.4,627.1 L 708.6,625.9" style="fill:none;stroke:#000000;stroke-width:2.0px;stroke-linecap:butt;stroke-linejoin:miter;stroke-opacity:1;"/>
<path d="M 916.8,628.5 L 919.1,629.8 L 924.4,626.8" style="fill:none;stroke:#000000;stroke-width:2.0px;stroke-linecap:butt;stroke-linejoin:miter;stroke-opacity:1;"/>
<path d="M 1020.8,572.8 L 1026.2,569.8 L 1028.6,571.2" style="fill:none;stroke:#000000;stroke-width:2.0px;stroke-linecap:butt;stroke-linejoin:miter;stroke-opacity:1;"/>
<path class="atom-0" d="M 62.9 615.9 L 67.0 611.6 L 61.5 610.5 L 62.4 607.7 L 67.4 610.2 L 66.7 604.7 L 69.7 604.6 L 68.9 610.2 L 74.0 607.8 L 74.9 610.5 L 69.3 611.5 L 73.3 615.8 L 70.9 617.6 L 68.1 612.3 L 65.3 617.6 L 62.9 615.9 " fill="#191919"/>
<path class="atom-1" d="M 162.4 559.1 Q 162.4 552.3, 165.7 548.5 Q 169.1 544.7, 175.4 544.7 Q 181.6 544.7, 185.0 548.5 Q 188.4 552.3, 188.4 559.1 Q 188.4 565.9, 185.0 569.9 Q 181.6 573.7, 175.4 573.7 Q 169.1 573.7, 165.7 569.9 Q 162.4 566.0, 162.4 559.1 M 175.4 570.5 Q 179.7 570.5, 182.0 567.7 Q 184.4 564.7, 184.4 559.1 Q 184.4 553.5, 182.0 550.7 Q 179.7 547.9, 175.4 547.9 Q 171.0 547.9, 168.7 550.7 Q 166.4 553.5, 166.4 559.1 Q 166.4 564.8, 168.7 567.7 Q 171.0 570.5, 175.4 570.5 " fill="#FF0000"/>
<path class="atom-4" d="M 480.6 624.5 Q 480.6 617.7, 484.0 613.9 Q 487.4 610.1, 493.6 610.1 Q 499.9 610.1, 503.3 613.9 Q 506.6 617.7, 506.6 624.5 Q 506.6 631.4, 503.2 635.3 Q 499.8 639.2, 493.6 639.2 Q 487.4 639.2, 484.0 635.3 Q 480.6 631.4, 480.6 624.5 M 493.6 636.0 Q 498.0 636.0, 500.3 633.1 Q 502.6 630.2, 502.6 624.5 Q 502.6 618.9, 500.3 616.1 Q 498.0 613.3, 493.6 613.3 Q 489.3 613.3, 487.0 616.1 Q 484.6 618.9, 484.6 624.5 Q 484.6 630.2, 487.0 633.1 Q 489.3 636.0, 493.6 636.0 " fill="#FF0000"/>
<path class="atom-7" d="M 800.5 567.1 Q 800.5 560.3, 803.8 556.5 Q 807.2 552.7, 813.5 552.7 Q 819.8 552.7, 823.1 556.5 Q 826.5 560.3, 826.5 567.1 Q 826.5 574.0, 823.1 577.9 Q 819.7 581.8, 813.5 581.8 Q 807.2 581.8, 803.8 577.9 Q 800.5 574.1, 800.5 567.1 M 813.5 578.6 Q 817.8 578.6, 820.1 575.7 Q 822.5 572.8, 822.5 567.1 Q 822.5 561.6, 820.1 558.8 Q 817.8 555.9, 813.5 555.9 Q 809.2 555.9, 806.8 558.7 Q 804.5 561.5, 804.5 567.1 Q 804.5 572.9, 806.8 575.7 Q 809.2 578.6, 813.5 578.6 " fill="#FF0000"/>
<path class="atom-9" d="M 904.5 752.7 Q 904.5 745.9, 907.9 742.1 Q 911.2 738.3, 917.5 738.3 Q 923.8 738.3, 927.1 742.1 Q 930.5 745.9, 930.5 752.7 Q 930.5 759.6, 927.1 763.5 Q 923.7 767.4, 917.5 767.4 Q 911.3 767.4, 907.9 763.5 Q 904.5 759.6, 904.5 752.7 M 917.5 764.2 Q 921.8 764.2, 924.1 761.3 Q 926.5 758.4, 926.5 752.7 Q 926.5 747.1, 924.1 744.3 Q 921.8 741.5, 917.5 741.5 Q 913.2 741.5, 910.8 744.3 Q 908.5 747.1, 908.5 752.7 Q 908.5 758.4, 910.8 761.3 Q 913.2 764.2, 917.5 764.2 " fill="#FF0000"/>
<path class="atom-11" d="M 1126.4 629.3 L 1130.6 625.1 L 1125.1 624.0 L 1125.9 621.1 L 1131.0 623.7 L 1130.3 618.1 L 1133.3 618.1 L 1132.4 623.7 L 1137.6 621.3 L 1138.5 624.0 L 1132.9 625.0 L 1136.9 629.3 L 1134.4 631.1 L 1131.7 625.8 L 1128.9 631.1 L 1126.4 629.3 " fill="#191919"/>
<path class="atom-12" d="M 1014.8 447.0 Q 1014.8 440.2, 1018.1 436.4 Q 1021.5 432.6, 1027.8 432.6 Q 1034.0 432.6, 1037.4 436.4 Q 1040.8 440.2, 1040.8 447.0 Q 1040.8 453.9, 1037.4 457.8 Q 1034.0 461.7, 1027.8 461.7 Q 1021.5 461.7, 1018.1 457.8 Q 1014.8 453.9, 1014.8 447.0 M 1027.8 458.5 Q 1032.1 458.5, 1034.4 455.6 Q 1036.8 452.7, 1036.8 447.0 Q 1036.8 441.5, 1034.4 438.7 Q 1032.1 435.8, 1027.8 435.8 Q 1023.4 435.8, 1021.1 438.6 Q 1018.8 441.4, 1018.8 447.0 Q 1018.8 452.7, 1021.1 455.6 Q 1023.4 458.5, 1027.8 458.5 " fill="#FF0000"/>
</svg>