<svg xmlns="http://www.w3.org/2000/svg" xmlns:rdkit="http://www.rdkit.org/xml" xmlns:xlink="http://www.w3.org/1999/xlink" version="1.1" baseProfile="full" xml:space="preserve" width="1200px" height="800px" viewBox="0 0 1200 800">
<!-- END OF HEADER -->
<rect style="opacity:1.0;fill:#FFFFFF;stroke:none" width="1200.0" height="800.0" x="0.0" y="0.0"> </rect>
<path class="bond-0 atom-0 atom-1" d="M 201.7,177.6 L 225.7,219.0" style="fill:none;fill-rule:evenodd;stroke:#191919;stroke-width:2.0px;stroke-linecap:butt;stroke-linejoin:miter;stroke-opacity:1"/>
<path class="bond-0 atom-0 atom-1" d="M 225.7,219.0 L 249.7,260.4" style="fill:none;fill-rule:evenodd;stroke:#FF0000;stroke-width:2.0px;stroke-linecap:butt;stroke-linejoin:miter;stroke-opacity:1"/>
<path class="bond-1 atom-2 atom-1" d="M 376.4,278.2 L 376.4,278.9" style="fill:none;fill-rule:evenodd;stroke:#000000;stroke-width:1.0px;stroke-linecap:butt;stroke-linejoin:miter;stroke-opacity:1"/>
<path class="bond-1 atom-2 atom-1" d="M 372.9,277.9 L 372.9,279.2" style="fill:none;fill-rule:evenodd;stroke:#000000;stroke-width:1.0px;stroke-linecap:butt;stroke-linejoin:miter;stroke-opacity:1"/>
<path class="bond-1 atom-2 atom-1" d="M 369.4,277.5 L 369.4,279.5" style="fill:none;fill-rule:evenodd;stroke:#000000;stroke-width:1.0px;stroke-linecap:butt;stroke-linejoin:miter;stroke-opacity:1"/>
<path class="bond-1 atom-2 atom-1" d="M 365.8,277.2 L 365.8,279.9" style="fill:none;fill-rule:evenodd;stroke:#000000;stroke-width:1.0px;stroke-linecap:butt;stroke-linejoin:miter;stroke-opacity:1"/>
<path class="bond-1 atom-2 atom-1" d="M 362.3,276.9 L 362.3,280.2" style="fill:none;fill-rule:evenodd;stroke:#000000;stroke-width:1.0px;stroke-linecap:butt;stroke-linejoin:miter;stroke-opacity:1"/>
<path class="bond-1 atom-2 atom-1" d="M 358.8,276.6 L 358.8,280.5" style="fill:none;fill-rule:evenodd;stroke:#000000;stroke-width:1.0px;stroke-linecap:butt;stroke-linejoin:miter;stroke-opacity:1"/>
<path class="bond-1 atom-2 atom-1" d="M 355.3,276.2 L 355.3,280.9" style="fill:none;fill-rule:evenodd;stroke:#000000;stroke-width:1.0px;stroke-linecap:butt;stroke-linejoin:miter;stroke-opacity:1"/>
<path class="bond-1 atom-2 atom-1" d="M 351.7,275.9 L 351.7,281.2" style="fill:none;fill-rule:evenodd;stroke:#000000;stroke-width:1.0px;stroke-linecap:butt;stroke-linejoin:miter;stroke-opacity:1"/>
<path class="bond-1 atom-2 atom-1" d="M 348.2,275.6 L 348.2,281.6" style="fill:none;fill-rule:evenodd;stroke:#000000;stroke-width:1.0px;stroke-linecap:butt;stroke-linejoin:miter;stroke-opacity:1"/>
<path class="bond-1 atom-2 atom-1" d="M 344.7,275.2 L 344.7,281.9" style="fill:none;fill-rule:evenodd;stroke:#000000;stroke-width:1.0px;stroke-linecap:butt;stroke-linejoin:miter;stroke-opacity:1"/>
<path class="bond-1 atom-2 atom-1" d="M 341.1,274.9 L 341.2,282.2" style="fill:none;fill-rule:evenodd;stroke:#000000;stroke-width:1.0px;stroke-linecap:butt;stroke-linejoin:miter;stroke-opacity:1"/>
<path class="bond-1 atom-2 atom-1" d="M 337.6,274.6 L 337.6,282.6" style="fill:none;fill-rule:evenodd;stroke:#000000;stroke-width:1.0px;stroke-linecap:butt;stroke-linejoin:miter;stroke-opacity:1"/>
<path class="bond-1 atom-2 atom-1" d="M 334.1,274.3 L 334.1,282.9" style="fill:none;fill-rule:evenodd;stroke:#000000;stroke-width:1.0px;stroke-linecap:butt;stroke-linejoin:miter;stroke-opacity:1"/>
<path class="bond-1 atom-2 atom-1" d="M 330.6,273.9 L 330.6,283.2" style="fill:none;fill-rule:evenodd;stroke:#000000;stroke-width:1.0px;stroke-linecap:butt;stroke-linejoin:miter;stroke-opacity:1"/>
<path class="bond-1 atom-2 atom-1" d="M 327.0,273.6 L 327.0,283.6" style="fill:none;fill-rule:evenodd;stroke:#FF0000;stroke-width:1.0px;stroke-linecap:butt;stroke-linejoin:miter;stroke-opacity:1"/>
<path class="bond-1 atom-2 atom-1" d="M 323.5,273.3 L 323.5,283.9" style="fill:none;fill-rule:evenodd;stroke:#FF0000;stroke-width:1.0px;stroke-linecap:butt;stroke-linejoin:miter;stroke-opacity:1"/>
<path class="bond-1 atom-2 atom-1" d="M 320.0,272.9 L 320.0,284.2" style="fill:none;fill-rule:evenodd;stroke:#FF0000;stroke-width:1.0px;stroke-linecap:butt;stroke-linejoin:miter;stroke-opacity:1"/>
<path class="bond-1 atom-2 atom-1" d="M 316.5,272.6 L 316.5,284.6" style="fill:none;fill-rule:evenodd;stroke:#FF0000;stroke-width:1.0px;stroke-linecap:butt;stroke-linejoin:miter;stroke-opacity:1"/>
<path class="bond-1 atom-2 atom-1" d="M 312.9,272.3 L 312.9,284.9" style="fill:none;fill-rule:evenodd;stroke:#FF0000;stroke-width:1.0px;stroke-linecap:butt;stroke-linejoin:miter;stroke-opacity:1"/>
<path class="bond-1 atom-2 atom-1" d="M 309.4,272.0 L 309.4,285.3" style="fill:none;fill-rule:evenodd;stroke:#FF0000;stroke-width:1.0px;stroke-linecap:butt;stroke-linejoin:miter;stroke-opacity:1"/>
<path class="bond-1 atom-2 atom-1" d="M 305.9,271.6 L 305.9,285.6" style="fill:none;fill-rule:evenodd;stroke:#FF0000;stroke-width:1.0px;stroke-linecap:butt;stroke-linejoin:miter;stroke-opacity:1"/>
<path class="bond-1 atom-2 atom-1" d="M 302.3,271.3 L 302.4,285.9" style="fill:none;fill-rule:evenodd;stroke:#FF0000;stroke-width:1.0px;stroke-linecap:butt;stroke-linejoin:miter;stroke-opacity:1"/>
<path class="bond-1 atom-2 atom-1" d="M 298.8,271.0 L 298.8,286.3" style="fill:none;fill-rule:evenodd;stroke:#FF0000;stroke-width:1.0px;stroke-linecap:butt;stroke-linejoin:miter;stroke-opacity:1"/>
<path class="bond-1 atom-2 atom-1" d="M 295.3,270.7 L 295.3,286.6" style="fill:none;fill-rule:evenodd;stroke:#FF0000;stroke-width:1.0px;stroke-linecap:butt;stroke-linejoin:miter;stroke-opacity:1"/>
<path class="bond-1 atom-2 atom-1" d="M 291.8,270.3 L 291.8,286.9" style="fill:none;fill-rule:evenodd;stroke:#FF0000;stroke-width:1.0px;stroke-linecap:butt;stroke-linejoin:miter;stroke-opacity:1"/>
<path class="bond-1 atom-2 atom-1" d="M 288.2,270.0 L 288.2,287.3" style="fill:none;fill-rule:evenodd;stroke:#FF0000;stroke-width:1.0px;stroke-linecap:butt;stroke-linejoin:miter;stroke-opacity:1"/>
<path class="bond-1 atom-2 atom-1" d="M 284.7,269.7 L 284.7,287.6" style="fill:none;fill-rule:evenodd;stroke:#FF0000;stroke-width:1.0px;stroke-linecap:butt;stroke-linejoin:miter;stroke-opacity:1"/>
<path class="bond-2 atom-2 atom-3" d="M 380.0,278.5 L 450.4,375.3" style="fill:none;fill-rule:evenodd;stroke:#000000;stroke-width:2.0px;stroke-linecap:butt;stroke-linejoin:miter;stroke-opacity:1"/>
<path class="bond-3 atom-3 atom-4" d="M 450.4,375.3 L 498.9,359.5" style="fill:none;fill-rule:evenodd;stroke:#000000;stroke-width:2.0px;stroke-linecap:butt;stroke-linejoin:miter;stroke-opacity:1"/>
<path class="bond-3 atom-3 atom-4" d="M 498.9,359.5 L 547.3,343.7" style="fill:none;fill-rule:evenodd;stroke:#FF0000;stroke-width:2.0px;stroke-linecap:butt;stroke-linejoin:miter;stroke-opacity:1"/>
<path class="bond-4 atom-4 atom-5" d="M 564.2,319.9 L 564.2,269.1" style="fill:none;fill-rule:evenodd;stroke:#FF0000;stroke-width:2.0px;stroke-linecap:butt;stroke-linejoin:miter;stroke-opacity:1"/>
<path class="bond-4 atom-4 atom-5" d="M 564.2,269.1 L 564.1,218.4" style="fill:none;fill-rule:evenodd;stroke:#000000;stroke-width:2.0px;stroke-linecap:butt;stroke-linejoin:miter;stroke-opacity:1"/>
<path class="bond-5 atom-5 atom-6" d="M 564.1,218.4 L 450.2,181.6" style="fill:none;fill-rule:evenodd;stroke:#000000;stroke-width:2.0px;stroke-linecap:butt;stroke-linejoin:miter;stroke-opacity:1"/>
<path class="bond-6 atom-6 atom-7" d="M 450.2,181.6 L 450.1,131.1" style="fill:none;fill-rule:evenodd;stroke:#000000;stroke-width:2.0px;stroke-linecap:butt;stroke-linejoin:miter;stroke-opacity:1"/>
<path class="bond-6 atom-6 atom-7" d="M 450.1,131.1 L 450.1,80.6" style="fill:none;fill-rule:evenodd;stroke:#FF0000;stroke-width:2.0px;stroke-linecap:butt;stroke-linejoin:miter;stroke-opacity:1"/>
<path class="bond-7 atom-7 atom-8" d="M 467.0,56.3 L 515.4,40.5" style="fill:none;fill-rule:evenodd;stroke:#FF0000;stroke-width:2.0px;stroke-linecap:butt;stroke-linejoin:miter;stroke-opacity:1"/>
<path class="bond-7 atom-7 atom-8" d="M 515.4,40.5 L 563.8,24.7" style="fill:none;fill-rule:evenodd;stroke:#000000;stroke-width:2.0px;stroke-linecap:butt;stroke-linejoin:miter;stroke-opacity:1"/>
<path class="bond-8 atom-8 atom-9" d="M 563.8,24.7 L 634.3,121.5" style="fill:none;fill-rule:evenodd;stroke:#000000;stroke-width:2.0px;stroke-linecap:butt;stroke-linejoin:miter;stroke-opacity:1"/>
<path class="bond-9 atom-9 atom-10" d="M 637.8,121.8 L 637.8,121.1" style="fill:none;fill-rule:evenodd;stroke:#000000;stroke-width:1.0px;stroke-linecap:butt;stroke-linejoin:miter;stroke-opacity:1"/>
<path class="bond-9 atom-9 atom-10" d="M 641.4,122.1 L 641.4,120.8" style="fill:none;fill-rule:evenodd;stroke:#000000;stroke-width:1.0px;stroke-linecap:butt;stroke-linejoin:miter;stroke-opacity:1"/>
<path class="bond-9 atom-9 atom-10" d="M 644.9,122.5 L 644.9,120.5" style="fill:none;fill-rule:evenodd;stroke:#000000;stroke-width:1.0px;stroke-linecap:butt;stroke-linejoin:miter;stroke-opacity:1"/>
<path class="bond-9 atom-9 atom-10" d="M 648.4,122.8 L 648.4,120.1" style="fill:none;fill-rule:evenodd;stroke:#000000;stroke-width:1.0px;stroke-linecap:butt;stroke-linejoin:miter;stroke-opacity:1"/>
<path class="bond-9 atom-9 atom-10" d="M 652.0,123.1 L 652.0,119.8" style="fill:none;fill-rule:evenodd;stroke:#000000;stroke-width:1.0px;stroke-linecap:butt;stroke-linejoin:miter;stroke-opacity:1"/>
<path class="bond-9 atom-9 atom-10" d="M 655.5,123.4 L 655.5,119.5" style="fill:none;fill-rule:evenodd;stroke:#000000;stroke-width:1.0px;stroke-linecap:butt;stroke-linejoin:miter;stroke-opacity:1"/>
<path class="bond-9 atom-9 atom-10" d="M 659.0,123.8 L 659.0,119.1" style="fill:none;fill-rule:evenodd;stroke:#000000;stroke-width:1.0px;stroke-linecap:butt;stroke-linejoin:miter;stroke-opacity:1"/>
<path class="bond-9 atom-9 atom-10" d="M 662.5,124.1 L 662.5,118.8" style="fill:none;fill-rule:evenodd;stroke:#000000;stroke-width:1.0px;stroke-linecap:butt;stroke-linejoin:miter;stroke-opacity:1"/>
<path class="bond-9 atom-9 atom-10" d="M 666.1,124.4 L 666.1,118.4" style="fill:none;fill-rule:evenodd;stroke:#000000;stroke-width:1.0px;stroke-linecap:butt;stroke-linejoin:miter;stroke-opacity:1"/>
<path class="bond-9 atom-9 atom-10" d="M 669.6,124.8 L 669.6,118.1" style="fill:none;fill-rule:evenodd;stroke:#000000;stroke-width:1.0px;stroke-linecap:butt;stroke-linejoin:miter;stroke-opacity:1"/>
<path class="bond-9 atom-9 atom-10" d="M 673.1,125.1 L 673.1,117.8" style="fill:none;fill-rule:evenodd;stroke:#000000;stroke-width:1.0px;stroke-linecap:butt;stroke-linejoin:miter;stroke-opacity:1"/>
<path class="bond-9 atom-9 atom-10" d="M 676.7,125.4 L 676.6,117.4" style="fill:none;fill-rule:evenodd;stroke:#000000;stroke-width:1.0px;stroke-linecap:butt;stroke-linejoin:miter;stroke-opacity:1"/>
<path class="bond-9 atom-9 atom-10" d="M 680.2,125.7 L 680.2,117.1" style="fill:none;fill-rule:evenodd;stroke:#000000;stroke-width:1.0px;stroke-linecap:butt;stroke-linejoin:miter;stroke-opacity:1"/>
<path class="bond-9 atom-9 atom-10" d="M 683.7,126.1 L 683.7,116.8" style="fill:none;fill-rule:evenodd;stroke:#000000;stroke-width:1.0px;stroke-linecap:butt;stroke-linejoin:miter;stroke-opacity:1"/>
<path class="bond-9 atom-9 atom-10" d="M 687.2,126.4 L 687.2,116.4" style="fill:none;fill-rule:evenodd;stroke:#FF0000;stroke-width:1.0px;stroke-linecap:butt;stroke-linejoin:miter;stroke-opacity:1"/>
<path class="bond-9 atom-9 atom-10" d="M 690.8,126.7 L 690.8,116.1" style="fill:none;fill-rule:evenodd;stroke:#FF0000;stroke-width:1.0px;stroke-linecap:butt;stroke-linejoin:miter;stroke-opacity:1"/>
<path class="bond-9 atom-9 atom-10" d="M 694.3,127.1 L 694.3,115.8" style="fill:none;fill-rule:evenodd;stroke:#FF0000;stroke-width:1.0px;stroke-linecap:butt;stroke-linejoin:miter;stroke-opacity:1"/>
<path class="bond-9 atom-9 atom-10" d="M 697.8,127.4 L 697.8,115.4" style="fill:none;fill-rule:evenodd;stroke:#FF0000;stroke-width:1.0px;stroke-linecap:butt;stroke-linejoin:miter;stroke-opacity:1"/>
<path class="bond-9 atom-9 atom-10" d="M 701.4,127.7 L 701.3,115.1" style="fill:none;fill-rule:evenodd;stroke:#FF0000;stroke-width:1.0px;stroke-linecap:butt;stroke-linejoin:miter;stroke-opacity:1"/>
<path class="bond-9 atom-9 atom-10" d="M 704.9,128.0 L 704.9,114.7" style="fill:none;fill-rule:evenodd;stroke:#FF0000;stroke-width:1.0px;stroke-linecap:butt;stroke-linejoin:miter;stroke-opacity:1"/>
<path class="bond-9 atom-9 atom-10" d="M 708.4,128.4 L 708.4,114.4" style="fill:none;fill-rule:evenodd;stroke:#FF0000;stroke-width:1.0px;stroke-linecap:butt;stroke-linejoin:miter;stroke-opacity:1"/>
<path class="bond-9 atom-9 atom-10" d="M 711.9,128.7 L 711.9,114.1" style="fill:none;fill-rule:evenodd;stroke:#FF0000;stroke-width:1.0px;stroke-linecap:butt;stroke-linejoin:miter;stroke-opacity:1"/>
<path class="bond-9 atom-9 atom-10" d="M 715.5,129.0 L 715.4,113.7" style="fill:none;fill-rule:evenodd;stroke:#FF0000;stroke-width:1.0px;stroke-linecap:butt;stroke-linejoin:miter;stroke-opacity:1"/>
<path class="bond-9 atom-9 atom-10" d="M 719.0,129.3 L 719.0,113.4" style="fill:none;fill-rule:evenodd;stroke:#FF0000;stroke-width:1.0px;stroke-linecap:butt;stroke-linejoin:miter;stroke-opacity:1"/>
<path class="bond-9 atom-9 atom-10" d="M 722.5,129.7 L 722.5,113.1" style="fill:none;fill-rule:evenodd;stroke:#FF0000;stroke-width:1.0px;stroke-linecap:butt;stroke-linejoin:miter;stroke-opacity:1"/>
<path class="bond-9 atom-9 atom-10" d="M 726.1,130.0 L 726.0,112.7" style="fill:none;fill-rule:evenodd;stroke:#FF0000;stroke-width:1.0px;stroke-linecap:butt;stroke-linejoin:miter;stroke-opacity:1"/>
<path class="bond-9 atom-9 atom-10" d="M 729.6,130.3 L 729.6,112.4" style="fill:none;fill-rule:evenodd;stroke:#FF0000;stroke-width:1.0px;stroke-linecap:butt;stroke-linejoin:miter;stroke-opacity:1"/>
<path class="bond-10 atom-10 atom-11" d="M 764.9,140.0 L 789.4,182.5" style="fill:none;fill-rule:evenodd;stroke:#FF0000;stroke-width:2.0px;stroke-linecap:butt;stroke-linejoin:miter;stroke-opacity:1"/>
<path class="bond-10 atom-10 atom-11" d="M 789.4,182.5 L 814.0,224.9" style="fill:none;fill-rule:evenodd;stroke:#000000;stroke-width:2.0px;stroke-linecap:butt;stroke-linejoin:miter;stroke-opacity:1"/>
<path class="bond-11 atom-11 atom-12" d="M 808.8,215.9 L 782.9,260.9" style="fill:none;fill-rule:evenodd;stroke:#000000;stroke-width:2.0px;stroke-linecap:butt;stroke-linejoin:miter;stroke-opacity:1"/>
<path class="bond-11 atom-11 atom-12" d="M 782.9,260.9 L 757.0,305.9" style="fill:none;fill-rule:evenodd;stroke:#FF0000;stroke-width:2.0px;stroke-linecap:butt;stroke-linejoin:miter;stroke-opacity:1"/>
<path class="bond-11 atom-11 atom-12" d="M 824.4,224.9 L 798.5,269.9" style="fill:none;fill-rule:evenodd;stroke:#000000;stroke-width:2.0px;stroke-linecap:butt;stroke-linejoin:miter;stroke-opacity:1"/>
<path class="bond-11 atom-11 atom-12" d="M 798.5,269.9 L 772.6,314.9" style="fill:none;fill-rule:evenodd;stroke:#FF0000;stroke-width:2.0px;stroke-linecap:butt;stroke-linejoin:miter;stroke-opacity:1"/>
<path class="bond-12 atom-11 atom-13" d="M 814.0,224.9 L 933.7,224.8" style="fill:none;fill-rule:evenodd;stroke:#000000;stroke-width:2.0px;stroke-linecap:butt;stroke-linejoin:miter;stroke-opacity:1"/>
<path class="bond-13 atom-13 atom-14" d="M 933.7,224.8 L 958.4,267.4" style="fill:none;fill-rule:evenodd;stroke:#000000;stroke-width:2.0px;stroke-linecap:butt;stroke-linejoin:miter;stroke-opacity:1"/>
<path class="bond-13 atom-13 atom-14" d="M 958.4,267.4 L 983.1,310.0" style="fill:none;fill-rule:evenodd;stroke:#191919;stroke-width:2.0px;stroke-linecap:butt;stroke-linejoin:miter;stroke-opacity:1"/>
<path class="bond-14 atom-13 atom-15" d="M 938.9,233.7 L 964.7,189.0" style="fill:none;fill-rule:evenodd;stroke:#000000;stroke-width:2.0px;stroke-linecap:butt;stroke-linejoin:miter;stroke-opacity:1"/>
<path class="bond-14 atom-13 atom-15" d="M 964.7,189.0 L 990.5,144.2" style="fill:none;fill-rule:evenodd;stroke:#FF0000;stroke-width:2.0px;stroke-linecap:butt;stroke-linejoin:miter;stroke-opacity:1"/>
<path class="bond-14 atom-13 atom-15" d="M 923.4,224.8 L 949.1,180.0" style="fill:none;fill-rule:evenodd;stroke:#000000;stroke-width:2.0px;stroke-linecap:butt;stroke-linejoin:miter;stroke-opacity:1"/>
<path class="bond-14 atom-13 atom-15" d="M 949.1,180.0 L 974.9,135.2" style="fill:none;fill-rule:evenodd;stroke:#FF0000;stroke-width:2.0px;stroke-linecap:butt;stroke-linejoin:miter;stroke-opacity:1"/>
<path class="bond-15 atom-6 atom-2" d="M 450.2,181.6 L 380.0,278.5" style="fill:none;fill-rule:evenodd;stroke:#000000;stroke-width:2.0px;stroke-linecap:butt;stroke-linejoin:miter;stroke-opacity:1"/>
<path class="bond-16 atom-9 atom-5" d="M 634.3,121.5 L 564.1,218.4" style="fill:none;fill-rule:evenodd;stroke:#000000;stroke-width:2.0px;stroke-linecap:butt;stroke-linejoin:miter;stroke-opacity:1"/>
<path d="M 383.5,283.4 L 380.0,278.5 L 383.5,273.7" style="fill:none;stroke:#000000;stroke-width:2.0px;stroke-linecap:butt;stroke-linejoin:miter;stroke-opacity:1;"/>
<path d="M 446.9,370.4 L 450.4,375.3 L 452.9,374.5" style="fill:none;stroke:#000000;stroke-width:2.0px;stroke-linecap:butt;stroke-linejoin:miter;stroke-opacity:1;"/>
<path d="M 561.4,25.5 L 563.8,24.7 L 567.4,29.6" style="fill:none;stroke:#000000;stroke-width:2.0px;stroke-linecap:butt;stroke-linejoin:miter;stroke-opacity:1;"/>
<path d="M 630.8,116.6 L 634.3,121.5 L 630.8,126.3" style="fill:none;stroke:#000000;stroke-width:2.0px;stroke-linecap:butt;stroke-linejoin:miter;stroke-opacity:1;"/>
<path d="M 812.8,222.8 L 814.0,224.9 L 820.0,224.9" style="fill:none;stroke:#000000;stroke-width:2.0px;stroke-linecap:butt;stroke-linejoin:miter;stroke-opacity:1;"/>
<path d="M 927.7,224.8 L 933.7,224.8 L 935.0,226.9" style="fill:none;stroke:#000000;stroke-width:2.0px;stroke-linecap:butt;stroke-linejoin:miter;stroke-opacity:1;"/>
<path class="atom-0" d="M 194.9 171.9 L 199.1 167.7 L 193.6 166.6 L 194.4 163.7 L 199.5 166.3 L 198.8 160.7 L 201.8 160.7 L 200.9 166.2 L 206.1 163.8 L 207.0 166.6 L 201.4 167.6 L 205.4 171.9 L 202.9 173.6 L 200.2 168.4 L 197.4 173.6 L 194.9 171.9 " fill="#191919"/>
<path class="atom-1" d="M 247.3 278.8 Q 247.3 272.0, 250.6 268.2 Q 254.0 264.4, 260.3 264.4 Q 266.5 264.4, 269.9 268.2 Q 273.3 272.0, 273.3 278.8 Q 273.3 285.6, 269.9 289.6 Q 266.5 293.4, 260.3 293.4 Q 254.0 293.4, 250.6 289.6 Q 247.3 285.7, 247.3 278.8 M 260.3 290.2 Q 264.6 290.2, 266.9 287.4 Q 269.3 284.4, 269.3 278.8 Q 269.3 273.2, 266.9 270.4 Q 264.6 267.6, 260.3 267.6 Q 255.9 267.6, 253.6 270.4 Q 251.3 273.2, 251.3 278.8 Q 251.3 284.5, 253.6 287.4 Q 255.9 290.2, 260.3 290.2 " fill="#FF0000"/>
<path class="atom-4" d="M 551.2 338.2 Q 551.2 331.4, 554.6 327.6 Q 558.0 323.8, 564.2 323.8 Q 570.5 323.8, 573.9 327.6 Q 577.2 331.4, 577.2 338.2 Q 577.2 345.1, 573.8 349.0 Q 570.4 352.9, 564.2 352.9 Q 558.0 352.9, 554.6 349.0 Q 551.2 345.1, 551.2 338.2 M 564.2 349.7 Q 568.6 349.7, 570.9 346.8 Q 573.2 343.9, 573.2 338.2 Q 573.2 332.6, 570.9 329.8 Q 568.6 327.0, 564.2 327.0 Q 559.9 327.0, 557.6 329.8 Q 555.2 332.6, 555.2 338.2 Q 555.2 343.9, 557.6 346.8 Q 559.9 349.7, 564.2 349.7 " fill="#FF0000"/>
<path class="atom-7" d="M 437.0 62.0 Q 437.0 55.2, 440.4 51.4 Q 443.8 47.6, 450.0 47.6 Q 456.3 47.6, 459.7 51.4 Q 463.0 55.2, 463.0 62.0 Q 463.0 68.8, 459.6 72.8 Q 456.2 76.6, 450.0 76.6 Q 443.8 76.6, 440.4 72.8 Q 437.0 68.9, 437.0 62.0 M 450.0 73.4 Q 454.4 73.4, 456.7 70.6 Q 459.0 67.6, 459.0 62.0 Q 459.0 56.4, 456.7 53.6 Q 454.4 50.8, 450.0 50.8 Q 445.7 50.8, 443.4 53.6 Q 441.0 56.4, 441.0 62.0 Q 441.0 67.7, 443.4 70.6 Q 445.7 73.4, 450.0 73.4 " fill="#FF0000"/>
<path class="atom-10" d="M 741.0 121.4 Q 741.0 114.6, 744.4 110.8 Q 747.7 107.0, 754.0 107.0 Q 760.3 107.0, 763.7 110.8 Q 767.0 114.6, 767.0 121.4 Q 767.0 128.3, 763.6 132.2 Q 760.2 136.1, 754.0 136.1 Q 747.8 136.1, 744.4 132.2 Q 741.0 128.3, 741.0 121.4 M 754.0 132.9 Q 758.3 132.9, 760.7 130.0 Q 763.0 127.1, 763.0 121.4 Q 763.0 115.8, 760.7 113.0 Q 758.3 110.2, 754.0 110.2 Q 749.7 110.2, 747.3 113.0 Q 745.0 115.8, 745.0 121.4 Q 745.0 127.1, 747.3 130.0 Q 749.7 132.9, 754.0 132.9 " fill="#FF0000"/>
<path class="atom-12" d="M 741.3 328.7 Q 741.3 321.9, 744.7 318.1 Q 748.0 314.3, 754.3 314.3 Q 760.6 314.3, 763.9 318.1 Q 767.3 321.9, 767.3 328.7 Q 767.3 335.6, 763.9 339.5 Q 760.5 343.4, 754.3 343.4 Q 748.1 343.4, 744.7 339.5 Q 741.3 335.7, 741.3 328.7 M 754.3 340.2 Q 758.6 340.2, 760.9 337.3 Q 763.3 334.4, 763.3 328.7 Q 763.3 323.2, 760.9 320.4 Q 758.6 317.5, 754.3 317.5 Q 750.0 317.5, 747.6 320.3 Q 745.3 323.1, 745.3 328.7 Q 745.3 334.5, 747.6 337.3 Q 750.0 340.2, 754.3 340.2 " fill="#FF0000"/>
<path class="atom-14" d="M 988.4 325.2 L 992.5 320.9 L 987.0 319.8 L 987.9 317.0 L 992.9 319.5 L 992.2 314.0 L 995.2 313.9 L 994.4 319.5 L 999.5 317.1 L 1000.4 319.8 L 994.8 320.9 L 998.8 325.1 L 996.4 326.9 L 993.6 321.6 L 990.8 326.9 L 988.4 325.2 " fill="#191919"/>
<path class="atom-15" d="M 980.4 121.1 Q 980.4 114.3, 983.8 110.5 Q 987.2 106.7, 993.4 106.7 Q 999.7 106.7, 1003.1 110.5 Q 1006.4 114.3, 1006.4 121.1 Q 1006.4 128.0, 1003.0 131.9 Q 999.6 135.8, 993.4 135.8 Q 987.2 135.8, 983.8 131.9 Q 980.4 128.0, 980.4 121.1 M 993.4 132.6 Q 997.8 132.6, 1000.1 129.7 Q 1002.4 126.8, 1002.4 121.1 Q 1002.4 115.5, 1000.1 112.7 Q 997.8 109.9, 993.4 109.9 Q 989.1 109.9, 986.8 112.7 Q 984.4 115.5, 984.4 121.1 Q 984.4 126.8, 986.8 129.7 Q 989.1 132.6, 993.4 132.6 " fill="#FF0000"/>
<path class="bond-0 atom-0 atom-1" d="M 78.7,606.5 L 122.0,593.1" style="fill:none;fill-rule:evenodd;stroke:#191919;stroke-width:2.0px;stroke-linecap:butt;stroke-linejoin:miter;stroke-opacity:1"/>
<path class="bond-0 atom-0 atom-1" d="M 122.0,593.1 L 165.4,579.6" style="fill:none;fill-rule:evenodd;stroke:#FF0000;stroke-width:2.0px;stroke-linecap:butt;stroke-linejoin:miter;stroke-opacity:1"/>
<path class="bond-1 atom-1 atom-2" d="M 199.3,590.0 L 234.8,622.8" style="fill:none;fill-rule:evenodd;stroke:#FF0000;stroke-width:2.0px;stroke-linecap:butt;stroke-linejoin:miter;stroke-opacity:1"/>
<path class="bond-1 atom-1 atom-2" d="M 234.8,622.8 L 270.3,655.6" style="fill:none;fill-rule:evenodd;stroke:#000000;stroke-width:2.0px;stroke-linecap:butt;stroke-linejoin:miter;stroke-opacity:1"/>
<path class="bond-2 atom-2 atom-3" d="M 270.3,655.6 L 384.6,620.0" style="fill:none;fill-rule:evenodd;stroke:#000000;stroke-width:2.0px;stroke-linecap:butt;stroke-linejoin:miter;stroke-opacity:1"/>
<path class="bond-3 atom-3 atom-4" d="M 384.6,620.0 L 411.0,503.3" style="fill:none;fill-rule:evenodd;stroke:#000000;stroke-width:2.0px;stroke-linecap:butt;stroke-linejoin:miter;stroke-opacity:1"/>
<path class="bond-4 atom-4 atom-5" d="M 411.0,503.3 L 525.3,467.7" style="fill:none;fill-rule:evenodd;stroke:#000000;stroke-width:2.0px;stroke-linecap:butt;stroke-linejoin:miter;stroke-opacity:1"/>
<path class="bond-5 atom-5 atom-6" d="M 525.3,467.7 L 613.2,549.0" style="fill:none;fill-rule:evenodd;stroke:#000000;stroke-width:2.0px;stroke-linecap:butt;stroke-linejoin:miter;stroke-opacity:1"/>
<path class="bond-6 atom-6 atom-7" d="M 613.2,549.0 L 727.5,513.5" style="fill:none;fill-rule:evenodd;stroke:#000000;stroke-width:2.0px;stroke-linecap:butt;stroke-linejoin:miter;stroke-opacity:1"/>
<path class="bond-7 atom-7 atom-8" d="M 727.5,513.5 L 763.0,546.2" style="fill:none;fill-rule:evenodd;stroke:#000000;stroke-width:2.0px;stroke-linecap:butt;stroke-linejoin:miter;stroke-opacity:1"/>
<path class="bond-7 atom-7 atom-8" d="M 763.0,546.2 L 798.5,579.0" style="fill:none;fill-rule:evenodd;stroke:#FF0000;stroke-width:2.0px;stroke-linecap:butt;stroke-linejoin:miter;stroke-opacity:1"/>
<path class="bond-8 atom-8 atom-9" d="M 832.4,589.4 L 881.1,574.3" style="fill:none;fill-rule:evenodd;stroke:#FF0000;stroke-width:2.0px;stroke-linecap:butt;stroke-linejoin:miter;stroke-opacity:1"/>
<path class="bond-8 atom-8 atom-9" d="M 881.1,574.3 L 929.7,559.2" style="fill:none;fill-rule:evenodd;stroke:#000000;stroke-width:2.0px;stroke-linecap:butt;stroke-linejoin:miter;stroke-opacity:1"/>
<path class="bond-9 atom-9 atom-10" d="M 937.4,566.2 L 949.0,514.6" style="fill:none;fill-rule:evenodd;stroke:#000000;stroke-width:2.0px;stroke-linecap:butt;stroke-linejoin:miter;stroke-opacity:1"/>
<path class="bond-9 atom-9 atom-10" d="M 949.0,514.6 L 960.7,463.1" style="fill:none;fill-rule:evenodd;stroke:#FF0000;stroke-width:2.0px;stroke-linecap:butt;stroke-linejoin:miter;stroke-opacity:1"/>
<path class="bond-9 atom-9 atom-10" d="M 919.8,562.2 L 931.5,510.7" style="fill:none;fill-rule:evenodd;stroke:#000000;stroke-width:2.0px;stroke-linecap:butt;stroke-linejoin:miter;stroke-opacity:1"/>
<path class="bond-9 atom-9 atom-10" d="M 931.5,510.7 L 943.1,459.1" style="fill:none;fill-rule:evenodd;stroke:#FF0000;stroke-width:2.0px;stroke-linecap:butt;stroke-linejoin:miter;stroke-opacity:1"/>
<path class="bond-10 atom-9 atom-11" d="M 929.7,559.2 L 1017.7,640.4" style="fill:none;fill-rule:evenodd;stroke:#000000;stroke-width:2.0px;stroke-linecap:butt;stroke-linejoin:miter;stroke-opacity:1"/>
<path class="bond-11 atom-11 atom-12" d="M 1017.7,640.4 L 1070.8,623.9" style="fill:none;fill-rule:evenodd;stroke:#000000;stroke-width:2.0px;stroke-linecap:butt;stroke-linejoin:miter;stroke-opacity:1"/>
<path class="bond-11 atom-11 atom-12" d="M 1070.8,623.9 L 1123.9,607.4" style="fill:none;fill-rule:evenodd;stroke:#191919;stroke-width:2.0px;stroke-linecap:butt;stroke-linejoin:miter;stroke-opacity:1"/>
<path class="bond-12 atom-11 atom-13" d="M 1010.1,633.4 L 998.4,685.1" style="fill:none;fill-rule:evenodd;stroke:#000000;stroke-width:2.0px;stroke-linecap:butt;stroke-linejoin:miter;stroke-opacity:1"/>
<path class="bond-12 atom-11 atom-13" d="M 998.4,685.1 L 986.7,736.9" style="fill:none;fill-rule:evenodd;stroke:#FF0000;stroke-width:2.0px;stroke-linecap:butt;stroke-linejoin:miter;stroke-opacity:1"/>
<path class="bond-12 atom-11 atom-13" d="M 1027.6,637.3 L 1015.9,689.1" style="fill:none;fill-rule:evenodd;stroke:#000000;stroke-width:2.0px;stroke-linecap:butt;stroke-linejoin:miter;stroke-opacity:1"/>
<path class="bond-12 atom-11 atom-13" d="M 1015.9,689.1 L 1004.2,740.9" style="fill:none;fill-rule:evenodd;stroke:#FF0000;stroke-width:2.0px;stroke-linecap:butt;stroke-linejoin:miter;stroke-opacity:1"/>
<path class="bond-13 atom-6 atom-14" d="M 613.2,549.0 L 586.8,665.7" style="fill:none;fill-rule:evenodd;stroke:#000000;stroke-width:2.0px;stroke-linecap:butt;stroke-linejoin:miter;stroke-opacity:1"/>
<path class="bond-14 atom-14 atom-15" d="M 586.8,665.7 L 472.5,701.3" style="fill:none;fill-rule:evenodd;stroke:#000000;stroke-width:2.0px;stroke-linecap:butt;stroke-linejoin:miter;stroke-opacity:1"/>
<path class="bond-15 atom-15 atom-3" d="M 472.5,701.3 L 384.6,620.0" style="fill:none;fill-rule:evenodd;stroke:#000000;stroke-width:2.0px;stroke-linecap:butt;stroke-linejoin:miter;stroke-opacity:1"/>
<path d="M 268.5,653.9 L 270.3,655.6 L 276.0,653.8" style="fill:none;stroke:#000000;stroke-width:2.0px;stroke-linecap:butt;stroke-linejoin:miter;stroke-opacity:1;"/>
<path d="M 409.6,509.1 L 411.0,503.3 L 416.7,501.5" style="fill:none;stroke:#000000;stroke-width:2.0px;stroke-linecap:butt;stroke-linejoin:miter;stroke-opacity:1;"/>
<path d="M 519.6,469.5 L 525.3,467.7 L 529.7,471.8" style="fill:none;stroke:#000000;stroke-width:2.0px;stroke-linecap:butt;stroke-linejoin:miter;stroke-opacity:1;"/>
<path d="M 721.8,515.2 L 727.5,513.5 L 729.3,515.1" style="fill:none;stroke:#000000;stroke-width:2.0px;stroke-linecap:butt;stroke-linejoin:miter;stroke-opacity:1;"/>
<path d="M 927.3,559.9 L 929.7,559.2 L 934.1,563.2" style="fill:none;stroke:#000000;stroke-width:2.0px;stroke-linecap:butt;stroke-linejoin:miter;stroke-opacity:1;"/>
<path d="M 1013.3,636.3 L 1017.7,640.4 L 1020.3,639.6" style="fill:none;stroke:#000000;stroke-width:2.0px;stroke-linecap:butt;stroke-linejoin:miter;stroke-opacity:1;"/>
<path d="M 588.1,659.9 L 586.8,665.7 L 581.1,667.5" style="fill:none;stroke:#000000;stroke-width:2.0px;stroke-linecap:butt;stroke-linejoin:miter;stroke-opacity:1;"/>
<path d="M 478.2,699.5 L 472.5,701.3 L 468.1,697.2" style="fill:none;stroke:#000000;stroke-width:2.0px;stroke-linecap:butt;stroke-linejoin:miter;stroke-opacity:1;"/>
<path class="atom-0" d="M 62.7 606.7 L 66.8 602.5 L 61.3 601.3 L 62.2 598.5 L 67.2 601.1 L 66.5 595.5 L 69.5 595.5 L 68.7 601.0 L 73.8 598.6 L 74.7 601.3 L 69.1 602.4 L 73.1 606.7 L 70.7 608.4 L 67.9 603.1 L 65.1 608.4 L 62.7 606.7 " fill="#191919"/>
<path class="atom-1" d="M 169.3 574.4 Q 169.3 567.6, 172.7 563.8 Q 176.1 560.0, 182.3 560.0 Q 188.6 560.0, 192.0 563.8 Q 195.3 567.6, 195.3 574.4 Q 195.3 581.3, 191.9 585.2 Q 188.5 589.1, 182.3 589.1 Q 176.1 589.1, 172.7 585.2 Q 169.3 581.3, 169.3 574.4 M 182.3 585.9 Q 186.7 585.9, 189.0 583.0 Q 191.3 580.1, 191.3 574.4 Q 191.3 568.9, 189.0 566.1 Q 186.7 563.2, 182.3 563.2 Q 178.0 563.2, 175.7 566.0 Q 173.3 568.8, 173.3 574.4 Q 173.3 580.1, 175.7 583.0 Q 178.0 585.9, 182.3 585.9 " fill="#FF0000"/>
<path class="atom-8" d="M 802.4 594.8 Q 802.4 588.0, 805.8 584.2 Q 809.2 580.4, 815.4 580.4 Q 821.7 580.4, 825.1 584.2 Q 828.4 588.0, 828.4 594.8 Q 828.4 601.7, 825.0 605.6 Q 821.6 609.5, 815.4 609.5 Q 809.2 609.5, 805.8 605.6 Q 802.4 601.7, 802.4 594.8 M 815.4 606.3 Q 819.8 606.3, 822.1 603.4 Q 824.4 600.5, 824.4 594.8 Q 824.4 589.2, 822.1 586.4 Q 819.8 583.6, 815.4 583.6 Q 811.1 583.6, 808.8 586.4 Q 806.4 589.2, 806.4 594.8 Q 806.4 600.5, 808.8 603.4 Q 811.1 606.3, 815.4 606.3 " fill="#FF0000"/>
<path class="atom-10" d="M 943.1 442.5 Q 943.1 435.7, 946.5 431.9 Q 949.9 428.1, 956.1 428.1 Q 962.4 428.1, 965.8 431.9 Q 969.1 435.7, 969.1 442.5 Q 969.1 449.4, 965.7 453.3 Q 962.3 457.2, 956.1 457.2 Q 949.9 457.2, 946.5 453.3 Q 943.1 449.4, 943.1 442.5 M 956.1 454.0 Q 960.5 454.0, 962.8 451.1 Q 965.1 448.2, 965.1 442.5 Q 965.1 436.9, 962.8 434.1 Q 960.5 431.3, 956.1 431.3 Q 951.8 431.3, 949.5 434.1 Q 947.1 436.9, 947.1 442.5 Q 947.1 448.2, 949.5 451.1 Q 951.8 454.0, 956.1 454.0 " fill="#FF0000"/>
<path class="atom-12" d="M 1126.6 601.7 L 1130.8 597.5 L 1125.3 596.3 L 1126.1 593.5 L 1131.2 596.1 L 1130.5 590.5 L 1133.5 590.5 L 1132.6 596.0 L 1137.8 593.6 L 1138.7 596.3 L 1133.1 597.4 L 1137.1 601.7 L 1134.6 603.4 L 1131.9 598.1 L 1129.1 603.4 L 1126.6 601.7 " fill="#191919"/>
<path class="atom-13" d="M 978.3 757.2 Q 978.3 750.4, 981.6 746.6 Q 985.0 742.8, 991.3 742.8 Q 997.6 742.8, 1000.9 746.6 Q 1004.3 750.4, 1004.3 757.2 Q 1004.3 764.1, 1000.9 768.0 Q 997.5 771.9, 991.3 771.9 Q 985.0 771.9, 981.6 768.0 Q 978.3 764.2, 978.3 757.2 M 991.3 768.7 Q 995.6 768.7, 997.9 765.8 Q 1000.3 762.9, 1000.3 757.2 Q 1000.3 751.7, 997.9 748.9 Q 995.6 746.0, 991.3 746.0 Q 987.0 746.0, 984.6 748.8 Q 982.3 751.6, 982.3 757.2 Q 982.3 763.0, 984.6 765.8 Q 987.0 768.7, 991.3 768.7 " fill="#FF0000"/>
</svg>