<svg xmlns="http://www.w3.org/2000/svg" xmlns:rdkit="http://www.rdkit.org/xml" xmlns:xlink="http://www.w3.org/1999/xlink" version="1.1" baseProfile="full" xml:space="preserve" width="1200px" height="800px" viewBox="0 0 1200 800">
<!-- END OF HEADER -->
<rect style="opacity:1.0;fill:#FFFFFF;stroke:none" width="1200.0" height="800.0" x="0.0" y="0.0"> </rect>
<path class="bond-0 atom-0 atom-1" d="M 1130.8,160.3 L 1091.9,184.5" style="fill:none;fill-rule:evenodd;stroke:#191919;stroke-width:2.0px;stroke-linecap:butt;stroke-linejoin:miter;stroke-opacity:1"/>
<path class="bond-0 atom-0 atom-1" d="M 1091.9,184.5 L 1053.0,208.7" style="fill:none;fill-rule:evenodd;stroke:#000000;stroke-width:2.0px;stroke-linecap:butt;stroke-linejoin:miter;stroke-opacity:1"/>
<path class="bond-1 atom-1 atom-2" d="M 1053.0,208.7 L 969.2,163.9" style="fill:none;fill-rule:evenodd;stroke:#000000;stroke-width:2.0px;stroke-linecap:butt;stroke-linejoin:miter;stroke-opacity:1"/>
<path class="bond-1 atom-1 atom-2" d="M 1052.4,192.3 L 975.9,151.4" style="fill:none;fill-rule:evenodd;stroke:#000000;stroke-width:2.0px;stroke-linecap:butt;stroke-linejoin:miter;stroke-opacity:1"/>
<path class="bond-2 atom-2 atom-3" d="M 969.2,163.9 L 888.5,214.1" style="fill:none;fill-rule:evenodd;stroke:#000000;stroke-width:2.0px;stroke-linecap:butt;stroke-linejoin:miter;stroke-opacity:1"/>
<path class="bond-3 atom-3 atom-4" d="M 881.3,210.2 L 882.6,251.4" style="fill:none;fill-rule:evenodd;stroke:#000000;stroke-width:2.0px;stroke-linecap:butt;stroke-linejoin:miter;stroke-opacity:1"/>
<path class="bond-3 atom-3 atom-4" d="M 882.6,251.4 L 884.0,292.5" style="fill:none;fill-rule:evenodd;stroke:#FF0000;stroke-width:2.0px;stroke-linecap:butt;stroke-linejoin:miter;stroke-opacity:1"/>
<path class="bond-3 atom-3 atom-4" d="M 895.5,209.8 L 896.9,250.9" style="fill:none;fill-rule:evenodd;stroke:#000000;stroke-width:2.0px;stroke-linecap:butt;stroke-linejoin:miter;stroke-opacity:1"/>
<path class="bond-3 atom-3 atom-4" d="M 896.9,250.9 L 898.2,292.1" style="fill:none;fill-rule:evenodd;stroke:#FF0000;stroke-width:2.0px;stroke-linecap:butt;stroke-linejoin:miter;stroke-opacity:1"/>
<path class="bond-4 atom-3 atom-5" d="M 888.5,214.1 L 854.4,195.9" style="fill:none;fill-rule:evenodd;stroke:#000000;stroke-width:2.0px;stroke-linecap:butt;stroke-linejoin:miter;stroke-opacity:1"/>
<path class="bond-4 atom-3 atom-5" d="M 854.4,195.9 L 820.2,177.6" style="fill:none;fill-rule:evenodd;stroke:#FF0000;stroke-width:2.0px;stroke-linecap:butt;stroke-linejoin:miter;stroke-opacity:1"/>
<path class="bond-5 atom-5 atom-6" d="M 789.3,179.0 L 756.7,199.2" style="fill:none;fill-rule:evenodd;stroke:#FF0000;stroke-width:2.0px;stroke-linecap:butt;stroke-linejoin:miter;stroke-opacity:1"/>
<path class="bond-5 atom-5 atom-6" d="M 756.7,199.2 L 724.1,219.5" style="fill:none;fill-rule:evenodd;stroke:#000000;stroke-width:2.0px;stroke-linecap:butt;stroke-linejoin:miter;stroke-opacity:1"/>
<path class="bond-6 atom-6 atom-7" d="M 724.1,219.5 L 640.3,174.7" style="fill:none;fill-rule:evenodd;stroke:#000000;stroke-width:2.0px;stroke-linecap:butt;stroke-linejoin:miter;stroke-opacity:1"/>
<path class="bond-7 atom-7 atom-8" d="M 640.3,174.7 L 559.7,224.9" style="fill:none;fill-rule:evenodd;stroke:#000000;stroke-width:2.0px;stroke-linecap:butt;stroke-linejoin:miter;stroke-opacity:1"/>
<path class="bond-8 atom-8 atom-9" d="M 559.7,224.9 L 475.9,180.1" style="fill:none;fill-rule:evenodd;stroke:#000000;stroke-width:2.0px;stroke-linecap:butt;stroke-linejoin:miter;stroke-opacity:1"/>
<path class="bond-9 atom-9 atom-10" d="M 475.9,180.1 L 443.3,200.4" style="fill:none;fill-rule:evenodd;stroke:#000000;stroke-width:2.0px;stroke-linecap:butt;stroke-linejoin:miter;stroke-opacity:1"/>
<path class="bond-9 atom-9 atom-10" d="M 443.3,200.4 L 410.7,220.6" style="fill:none;fill-rule:evenodd;stroke:#FF0000;stroke-width:2.0px;stroke-linecap:butt;stroke-linejoin:miter;stroke-opacity:1"/>
<path class="bond-10 atom-10 atom-11" d="M 379.8,222.0 L 345.6,203.7" style="fill:none;fill-rule:evenodd;stroke:#FF0000;stroke-width:2.0px;stroke-linecap:butt;stroke-linejoin:miter;stroke-opacity:1"/>
<path class="bond-10 atom-10 atom-11" d="M 345.6,203.7 L 311.5,185.5" style="fill:none;fill-rule:evenodd;stroke:#000000;stroke-width:2.0px;stroke-linecap:butt;stroke-linejoin:miter;stroke-opacity:1"/>
<path class="bond-11 atom-11 atom-12" d="M 318.7,189.4 L 317.4,148.4" style="fill:none;fill-rule:evenodd;stroke:#000000;stroke-width:2.0px;stroke-linecap:butt;stroke-linejoin:miter;stroke-opacity:1"/>
<path class="bond-11 atom-11 atom-12" d="M 317.4,148.4 L 316.0,107.5" style="fill:none;fill-rule:evenodd;stroke:#FF0000;stroke-width:2.0px;stroke-linecap:butt;stroke-linejoin:miter;stroke-opacity:1"/>
<path class="bond-11 atom-11 atom-12" d="M 304.5,189.8 L 303.1,148.9" style="fill:none;fill-rule:evenodd;stroke:#000000;stroke-width:2.0px;stroke-linecap:butt;stroke-linejoin:miter;stroke-opacity:1"/>
<path class="bond-11 atom-11 atom-12" d="M 303.1,148.9 L 301.8,107.9" style="fill:none;fill-rule:evenodd;stroke:#FF0000;stroke-width:2.0px;stroke-linecap:butt;stroke-linejoin:miter;stroke-opacity:1"/>
<path class="bond-12 atom-11 atom-13" d="M 311.5,185.5 L 230.8,235.6" style="fill:none;fill-rule:evenodd;stroke:#000000;stroke-width:2.0px;stroke-linecap:butt;stroke-linejoin:miter;stroke-opacity:1"/>
<path class="bond-13 atom-13 atom-14" d="M 230.8,235.6 L 147.0,190.9" style="fill:none;fill-rule:evenodd;stroke:#000000;stroke-width:2.0px;stroke-linecap:butt;stroke-linejoin:miter;stroke-opacity:1"/>
<path class="bond-13 atom-13 atom-14" d="M 230.3,219.2 L 153.7,178.3" style="fill:none;fill-rule:evenodd;stroke:#000000;stroke-width:2.0px;stroke-linecap:butt;stroke-linejoin:miter;stroke-opacity:1"/>
<path class="bond-14 atom-14 atom-15" d="M 147.0,190.9 L 111.4,213.0" style="fill:none;fill-rule:evenodd;stroke:#000000;stroke-width:2.0px;stroke-linecap:butt;stroke-linejoin:miter;stroke-opacity:1"/>
<path class="bond-14 atom-14 atom-15" d="M 111.4,213.0 L 75.9,235.1" style="fill:none;fill-rule:evenodd;stroke:#191919;stroke-width:2.0px;stroke-linecap:butt;stroke-linejoin:miter;stroke-opacity:1"/>
<path d="M 1054.9,207.5 L 1053.0,208.7 L 1048.8,206.5" style="fill:none;stroke:#000000;stroke-width:2.0px;stroke-linecap:butt;stroke-linejoin:miter;stroke-opacity:1;"/>
<path d="M 973.4,166.2 L 969.2,163.9 L 965.2,166.5" style="fill:none;stroke:#000000;stroke-width:2.0px;stroke-linecap:butt;stroke-linejoin:miter;stroke-opacity:1;"/>
<path d="M 892.6,211.6 L 888.5,214.1 L 886.8,213.2" style="fill:none;stroke:#000000;stroke-width:2.0px;stroke-linecap:butt;stroke-linejoin:miter;stroke-opacity:1;"/>
<path d="M 725.7,218.5 L 724.1,219.5 L 719.9,217.2" style="fill:none;stroke:#000000;stroke-width:2.0px;stroke-linecap:butt;stroke-linejoin:miter;stroke-opacity:1;"/>
<path d="M 644.5,177.0 L 640.3,174.7 L 636.3,177.2" style="fill:none;stroke:#000000;stroke-width:2.0px;stroke-linecap:butt;stroke-linejoin:miter;stroke-opacity:1;"/>
<path d="M 563.7,222.4 L 559.7,224.9 L 555.5,222.6" style="fill:none;stroke:#000000;stroke-width:2.0px;stroke-linecap:butt;stroke-linejoin:miter;stroke-opacity:1;"/>
<path d="M 480.1,182.3 L 475.9,180.1 L 474.3,181.1" style="fill:none;stroke:#000000;stroke-width:2.0px;stroke-linecap:butt;stroke-linejoin:miter;stroke-opacity:1;"/>
<path d="M 313.2,186.4 L 311.5,185.5 L 307.4,188.0" style="fill:none;stroke:#000000;stroke-width:2.0px;stroke-linecap:butt;stroke-linejoin:miter;stroke-opacity:1;"/>
<path d="M 234.8,233.1 L 230.8,235.6 L 226.6,233.4" style="fill:none;stroke:#000000;stroke-width:2.0px;stroke-linecap:butt;stroke-linejoin:miter;stroke-opacity:1;"/>
<path d="M 151.2,193.1 L 147.0,190.9 L 145.2,192.0" style="fill:none;stroke:#000000;stroke-width:2.0px;stroke-linecap:butt;stroke-linejoin:miter;stroke-opacity:1;"/>
<path class="atom-0" d="M 1128.6 155.6 L 1132.5 151.5 L 1127.3 150.5 L 1128.1 147.8 L 1132.9 150.2 L 1132.2 144.9 L 1135.1 144.9 L 1134.3 150.2 L 1139.2 147.9 L 1140.0 150.5 L 1134.7 151.5 L 1138.5 155.5 L 1136.2 157.2 L 1133.5 152.2 L 1130.9 157.2 L 1128.6 155.6 " fill="#191919"/>
<path class="atom-4" d="M 879.3 309.1 Q 879.3 302.7, 882.5 299.0 Q 885.7 295.4, 891.6 295.4 Q 897.6 295.4, 900.8 299.0 Q 904.0 302.7, 904.0 309.1 Q 904.0 315.7, 900.8 319.4 Q 897.5 323.1, 891.6 323.1 Q 885.7 323.1, 882.5 319.4 Q 879.3 315.7, 879.3 309.1 M 891.6 320.0 Q 895.7 320.0, 898.0 317.3 Q 900.2 314.5, 900.2 309.1 Q 900.2 303.8, 898.0 301.2 Q 895.7 298.5, 891.6 298.5 Q 887.5 298.5, 885.3 301.1 Q 883.1 303.8, 883.1 309.1 Q 883.1 314.6, 885.3 317.3 Q 887.5 320.0, 891.6 320.0 " fill="#FF0000"/>
<path class="atom-5" d="M 792.4 169.4 Q 792.4 162.9, 795.6 159.3 Q 798.8 155.7, 804.8 155.7 Q 810.7 155.7, 813.9 159.3 Q 817.1 162.9, 817.1 169.4 Q 817.1 175.9, 813.9 179.7 Q 810.7 183.3, 804.8 183.3 Q 798.8 183.3, 795.6 179.7 Q 792.4 176.0, 792.4 169.4 M 804.8 180.3 Q 808.9 180.3, 811.1 177.6 Q 813.3 174.8, 813.3 169.4 Q 813.3 164.1, 811.1 161.5 Q 808.9 158.8, 804.8 158.8 Q 800.7 158.8, 798.4 161.4 Q 796.2 164.1, 796.2 169.4 Q 796.2 174.8, 798.4 177.6 Q 800.7 180.3, 804.8 180.3 " fill="#FF0000"/>
<path class="atom-10" d="M 382.9 230.3 Q 382.9 223.9, 386.1 220.3 Q 389.3 216.7, 395.2 216.7 Q 401.2 216.7, 404.4 220.3 Q 407.6 223.9, 407.6 230.3 Q 407.6 236.9, 404.4 240.6 Q 401.1 244.3, 395.2 244.3 Q 389.3 244.3, 386.1 240.6 Q 382.9 236.9, 382.9 230.3 M 395.2 241.2 Q 399.3 241.2, 401.5 238.5 Q 403.8 235.7, 403.8 230.3 Q 403.8 225.0, 401.5 222.4 Q 399.3 219.7, 395.2 219.7 Q 391.1 219.7, 388.9 222.4 Q 386.7 225.0, 386.7 230.3 Q 386.7 235.8, 388.9 238.5 Q 391.1 241.2, 395.2 241.2 " fill="#FF0000"/>
<path class="atom-12" d="M 296.0 90.6 Q 296.0 84.2, 299.2 80.5 Q 302.4 76.9, 308.4 76.9 Q 314.3 76.9, 317.5 80.5 Q 320.7 84.2, 320.7 90.6 Q 320.7 97.2, 317.5 100.9 Q 314.2 104.6, 308.4 104.6 Q 302.4 104.6, 299.2 100.9 Q 296.0 97.2, 296.0 90.6 M 308.4 101.5 Q 312.5 101.5, 314.7 98.8 Q 316.9 96.0, 316.9 90.6 Q 316.9 85.3, 314.7 82.7 Q 312.5 80.0, 308.4 80.0 Q 304.3 80.0, 302.0 82.6 Q 299.8 85.3, 299.8 90.6 Q 299.8 96.0, 302.0 98.8 Q 304.3 101.5, 308.4 101.5 " fill="#FF0000"/>
<path class="atom-15" d="M 61.3 238.0 L 65.2 234.0 L 60.0 232.9 L 60.8 230.2 L 65.6 232.7 L 64.9 227.4 L 67.8 227.3 L 67.0 232.6 L 71.9 230.3 L 72.7 232.9 L 67.4 233.9 L 71.2 238.0 L 68.9 239.7 L 66.3 234.6 L 63.6 239.7 L 61.3 238.0 " fill="#191919"/>
<path class="bond-0 atom-0 atom-1" d="M 1048.5,561.4 L 1015.5,582.0" style="fill:none;fill-rule:evenodd;stroke:#191919;stroke-width:2.0px;stroke-linecap:butt;stroke-linejoin:miter;stroke-opacity:1"/>
<path class="bond-0 atom-0 atom-1" d="M 1015.5,582.0 L 982.6,602.7" style="fill:none;fill-rule:evenodd;stroke:#CCCC00;stroke-width:2.0px;stroke-linecap:butt;stroke-linejoin:miter;stroke-opacity:1"/>
<path class="bond-1 atom-1 atom-2" d="M 959.0,603.8 L 922.9,584.7" style="fill:none;fill-rule:evenodd;stroke:#CCCC00;stroke-width:2.0px;stroke-linecap:butt;stroke-linejoin:miter;stroke-opacity:1"/>
<path class="bond-1 atom-1 atom-2" d="M 922.9,584.7 L 886.9,565.6" style="fill:none;fill-rule:evenodd;stroke:#000000;stroke-width:2.0px;stroke-linecap:butt;stroke-linejoin:miter;stroke-opacity:1"/>
<path class="bond-2 atom-2 atom-3" d="M 886.9,565.6 L 806.4,616.0" style="fill:none;fill-rule:evenodd;stroke:#000000;stroke-width:2.0px;stroke-linecap:butt;stroke-linejoin:miter;stroke-opacity:1"/>
<path class="bond-3 atom-3 atom-4" d="M 799.1,612.2 L 800.6,653.3" style="fill:none;fill-rule:evenodd;stroke:#000000;stroke-width:2.0px;stroke-linecap:butt;stroke-linejoin:miter;stroke-opacity:1"/>
<path class="bond-3 atom-3 atom-4" d="M 800.6,653.3 L 802.1,694.5" style="fill:none;fill-rule:evenodd;stroke:#FF0000;stroke-width:2.0px;stroke-linecap:butt;stroke-linejoin:miter;stroke-opacity:1"/>
<path class="bond-3 atom-3 atom-4" d="M 813.4,611.7 L 814.9,652.8" style="fill:none;fill-rule:evenodd;stroke:#000000;stroke-width:2.0px;stroke-linecap:butt;stroke-linejoin:miter;stroke-opacity:1"/>
<path class="bond-3 atom-3 atom-4" d="M 814.9,652.8 L 816.3,694.0" style="fill:none;fill-rule:evenodd;stroke:#FF0000;stroke-width:2.0px;stroke-linecap:butt;stroke-linejoin:miter;stroke-opacity:1"/>
<path class="bond-4 atom-3 atom-5" d="M 806.4,616.0 L 772.2,597.9" style="fill:none;fill-rule:evenodd;stroke:#000000;stroke-width:2.0px;stroke-linecap:butt;stroke-linejoin:miter;stroke-opacity:1"/>
<path class="bond-4 atom-3 atom-5" d="M 772.2,597.9 L 737.9,579.8" style="fill:none;fill-rule:evenodd;stroke:#FF0000;stroke-width:2.0px;stroke-linecap:butt;stroke-linejoin:miter;stroke-opacity:1"/>
<path class="bond-5 atom-5 atom-6" d="M 707.0,581.3 L 674.5,601.6" style="fill:none;fill-rule:evenodd;stroke:#FF0000;stroke-width:2.0px;stroke-linecap:butt;stroke-linejoin:miter;stroke-opacity:1"/>
<path class="bond-5 atom-5 atom-6" d="M 674.5,601.6 L 642.0,622.0" style="fill:none;fill-rule:evenodd;stroke:#000000;stroke-width:2.0px;stroke-linecap:butt;stroke-linejoin:miter;stroke-opacity:1"/>
<path class="bond-6 atom-6 atom-7" d="M 642.0,622.0 L 558.0,577.6" style="fill:none;fill-rule:evenodd;stroke:#000000;stroke-width:2.0px;stroke-linecap:butt;stroke-linejoin:miter;stroke-opacity:1"/>
<path class="bond-7 atom-7 atom-8" d="M 558.0,577.6 L 525.5,597.9" style="fill:none;fill-rule:evenodd;stroke:#000000;stroke-width:2.0px;stroke-linecap:butt;stroke-linejoin:miter;stroke-opacity:1"/>
<path class="bond-7 atom-7 atom-8" d="M 525.5,597.9 L 493.0,618.3" style="fill:none;fill-rule:evenodd;stroke:#FF0000;stroke-width:2.0px;stroke-linecap:butt;stroke-linejoin:miter;stroke-opacity:1"/>
<path class="bond-8 atom-8 atom-9" d="M 462.1,619.8 L 427.8,601.7" style="fill:none;fill-rule:evenodd;stroke:#FF0000;stroke-width:2.0px;stroke-linecap:butt;stroke-linejoin:miter;stroke-opacity:1"/>
<path class="bond-8 atom-8 atom-9" d="M 427.8,601.7 L 393.6,583.5" style="fill:none;fill-rule:evenodd;stroke:#000000;stroke-width:2.0px;stroke-linecap:butt;stroke-linejoin:miter;stroke-opacity:1"/>
<path class="bond-9 atom-9 atom-10" d="M 400.9,587.4 L 399.4,546.5" style="fill:none;fill-rule:evenodd;stroke:#000000;stroke-width:2.0px;stroke-linecap:butt;stroke-linejoin:miter;stroke-opacity:1"/>
<path class="bond-9 atom-9 atom-10" d="M 399.4,546.5 L 397.9,505.5" style="fill:none;fill-rule:evenodd;stroke:#FF0000;stroke-width:2.0px;stroke-linecap:butt;stroke-linejoin:miter;stroke-opacity:1"/>
<path class="bond-9 atom-9 atom-10" d="M 386.6,587.9 L 385.2,547.0" style="fill:none;fill-rule:evenodd;stroke:#000000;stroke-width:2.0px;stroke-linecap:butt;stroke-linejoin:miter;stroke-opacity:1"/>
<path class="bond-9 atom-9 atom-10" d="M 385.2,547.0 L 383.7,506.0" style="fill:none;fill-rule:evenodd;stroke:#FF0000;stroke-width:2.0px;stroke-linecap:butt;stroke-linejoin:miter;stroke-opacity:1"/>
<path class="bond-10 atom-9 atom-11" d="M 393.6,583.5 L 313.1,634.0" style="fill:none;fill-rule:evenodd;stroke:#000000;stroke-width:2.0px;stroke-linecap:butt;stroke-linejoin:miter;stroke-opacity:1"/>
<path class="bond-11 atom-11 atom-12" d="M 313.1,634.0 L 277.1,614.9" style="fill:none;fill-rule:evenodd;stroke:#000000;stroke-width:2.0px;stroke-linecap:butt;stroke-linejoin:miter;stroke-opacity:1"/>
<path class="bond-11 atom-11 atom-12" d="M 277.1,614.9 L 241.0,595.8" style="fill:none;fill-rule:evenodd;stroke:#CCCC00;stroke-width:2.0px;stroke-linecap:butt;stroke-linejoin:miter;stroke-opacity:1"/>
<path class="bond-12 atom-12 atom-13" d="M 217.4,596.9 L 187.8,615.5" style="fill:none;fill-rule:evenodd;stroke:#CCCC00;stroke-width:2.0px;stroke-linecap:butt;stroke-linejoin:miter;stroke-opacity:1"/>
<path class="bond-12 atom-12 atom-13" d="M 187.8,615.5 L 158.2,634.0" style="fill:none;fill-rule:evenodd;stroke:#191919;stroke-width:2.0px;stroke-linecap:butt;stroke-linejoin:miter;stroke-opacity:1"/>
<path d="M 888.7,566.5 L 886.9,565.6 L 882.8,568.1" style="fill:none;stroke:#000000;stroke-width:2.0px;stroke-linecap:butt;stroke-linejoin:miter;stroke-opacity:1;"/>
<path d="M 810.4,613.5 L 806.4,616.0 L 804.7,615.1" style="fill:none;stroke:#000000;stroke-width:2.0px;stroke-linecap:butt;stroke-linejoin:miter;stroke-opacity:1;"/>
<path d="M 643.6,621.0 L 642.0,622.0 L 637.8,619.8" style="fill:none;stroke:#000000;stroke-width:2.0px;stroke-linecap:butt;stroke-linejoin:miter;stroke-opacity:1;"/>
<path d="M 562.2,579.8 L 558.0,577.6 L 556.4,578.6" style="fill:none;stroke:#000000;stroke-width:2.0px;stroke-linecap:butt;stroke-linejoin:miter;stroke-opacity:1;"/>
<path d="M 395.3,584.5 L 393.6,583.5 L 389.6,586.1" style="fill:none;stroke:#000000;stroke-width:2.0px;stroke-linecap:butt;stroke-linejoin:miter;stroke-opacity:1;"/>
<path d="M 317.2,631.5 L 313.1,634.0 L 311.3,633.0" style="fill:none;stroke:#000000;stroke-width:2.0px;stroke-linecap:butt;stroke-linejoin:miter;stroke-opacity:1;"/>
<path class="atom-0" d="M 1046.2 556.6 L 1050.2 552.6 L 1044.9 551.5 L 1045.7 548.8 L 1050.5 551.2 L 1049.8 545.9 L 1052.7 545.9 L 1051.9 551.2 L 1056.8 548.9 L 1057.6 551.5 L 1052.3 552.5 L 1056.1 556.5 L 1053.8 558.2 L 1051.2 553.2 L 1048.5 558.2 L 1046.2 556.6 " fill="#191919"/>
<path class="atom-1" d="M 963.2 619.3 Q 963.5 619.4, 964.8 619.9 Q 966.0 620.5, 967.4 620.8 Q 968.8 621.1, 970.1 621.1 Q 972.7 621.1, 974.2 619.9 Q 975.7 618.6, 975.7 616.5 Q 975.7 615.0, 974.9 614.1 Q 974.2 613.2, 973.0 612.7 Q 971.9 612.2, 970.0 611.6 Q 967.6 610.9, 966.2 610.2 Q 964.8 609.5, 963.7 608.1 Q 962.7 606.6, 962.7 604.2 Q 962.7 600.8, 965.0 598.7 Q 967.3 596.6, 971.9 596.6 Q 975.0 596.6, 978.5 598.1 L 977.7 601.0 Q 974.4 599.7, 972.0 599.7 Q 969.4 599.7, 967.9 600.8 Q 966.5 601.9, 966.5 603.7 Q 966.5 605.2, 967.3 606.1 Q 968.0 606.9, 969.1 607.4 Q 970.2 607.9, 972.0 608.5 Q 974.4 609.2, 975.9 610.0 Q 977.3 610.8, 978.4 612.3 Q 979.4 613.8, 979.4 616.5 Q 979.4 620.2, 976.9 622.2 Q 974.4 624.2, 970.3 624.2 Q 967.9 624.2, 966.1 623.6 Q 964.3 623.2, 962.2 622.3 L 963.2 619.3 " fill="#CCCC00"/>
<path class="atom-4" d="M 797.5 711.0 Q 797.5 704.6, 800.7 701.0 Q 803.9 697.4, 809.8 697.4 Q 815.8 697.4, 819.0 701.0 Q 822.2 704.6, 822.2 711.0 Q 822.2 717.6, 819.0 721.3 Q 815.7 725.0, 809.8 725.0 Q 803.9 725.0, 800.7 721.3 Q 797.5 717.6, 797.5 711.0 M 809.8 721.9 Q 813.9 721.9, 816.1 719.2 Q 818.4 716.4, 818.4 711.0 Q 818.4 705.8, 816.1 703.1 Q 813.9 700.4, 809.8 700.4 Q 805.7 700.4, 803.5 703.1 Q 801.3 705.7, 801.3 711.0 Q 801.3 716.5, 803.5 719.2 Q 805.7 721.9, 809.8 721.9 " fill="#FF0000"/>
<path class="atom-5" d="M 710.1 571.6 Q 710.1 565.2, 713.3 561.6 Q 716.5 558.0, 722.4 558.0 Q 728.4 558.0, 731.6 561.6 Q 734.8 565.2, 734.8 571.6 Q 734.8 578.2, 731.6 581.9 Q 728.3 585.6, 722.4 585.6 Q 716.5 585.6, 713.3 581.9 Q 710.1 578.2, 710.1 571.6 M 722.4 582.5 Q 726.5 582.5, 728.8 579.8 Q 731.0 577.0, 731.0 571.6 Q 731.0 566.4, 728.8 563.7 Q 726.5 561.0, 722.4 561.0 Q 718.3 561.0, 716.1 563.7 Q 713.9 566.3, 713.9 571.6 Q 713.9 577.1, 716.1 579.8 Q 718.3 582.5, 722.4 582.5 " fill="#FF0000"/>
<path class="atom-8" d="M 465.2 628.1 Q 465.2 621.6, 468.4 618.0 Q 471.6 614.4, 477.6 614.4 Q 483.5 614.4, 486.7 618.0 Q 489.9 621.6, 489.9 628.1 Q 489.9 634.6, 486.7 638.3 Q 483.4 642.0, 477.6 642.0 Q 471.6 642.0, 468.4 638.3 Q 465.2 634.7, 465.2 628.1 M 477.6 639.0 Q 481.7 639.0, 483.9 636.3 Q 486.1 633.5, 486.1 628.1 Q 486.1 622.8, 483.9 620.2 Q 481.7 617.5, 477.6 617.5 Q 473.5 617.5, 471.2 620.1 Q 469.0 622.8, 469.0 628.1 Q 469.0 633.5, 471.2 636.3 Q 473.5 639.0, 477.6 639.0 " fill="#FF0000"/>
<path class="atom-10" d="M 377.8 488.7 Q 377.8 482.2, 381.0 478.6 Q 384.2 475.0, 390.2 475.0 Q 396.1 475.0, 399.3 478.6 Q 402.5 482.2, 402.5 488.7 Q 402.5 495.2, 399.3 499.0 Q 396.0 502.6, 390.2 502.6 Q 384.2 502.6, 381.0 499.0 Q 377.8 495.3, 377.8 488.7 M 390.2 499.6 Q 394.3 499.6, 396.5 496.9 Q 398.7 494.1, 398.7 488.7 Q 398.7 483.4, 396.5 480.8 Q 394.3 478.1, 390.2 478.1 Q 386.1 478.1, 383.8 480.7 Q 381.6 483.4, 381.6 488.7 Q 381.6 494.1, 383.8 496.9 Q 386.1 499.6, 390.2 499.6 " fill="#FF0000"/>
<path class="atom-12" d="M 221.6 598.8 Q 221.9 598.9, 223.2 599.4 Q 224.4 599.9, 225.8 600.3 Q 227.2 600.6, 228.6 600.6 Q 231.1 600.6, 232.6 599.4 Q 234.1 598.1, 234.1 596.0 Q 234.1 594.5, 233.3 593.6 Q 232.6 592.7, 231.4 592.2 Q 230.3 591.7, 228.4 591.1 Q 226.0 590.4, 224.6 589.7 Q 223.2 589.0, 222.1 587.6 Q 221.1 586.1, 221.1 583.7 Q 221.1 580.3, 223.4 578.2 Q 225.7 576.1, 230.3 576.1 Q 233.4 576.1, 237.0 577.6 L 236.1 580.5 Q 232.9 579.2, 230.4 579.2 Q 227.8 579.2, 226.4 580.3 Q 224.9 581.4, 224.9 583.2 Q 224.9 584.7, 225.7 585.5 Q 226.4 586.4, 227.5 586.9 Q 228.6 587.4, 230.4 588.0 Q 232.9 588.7, 234.3 589.5 Q 235.7 590.3, 236.8 591.8 Q 237.8 593.3, 237.8 596.0 Q 237.8 599.7, 235.3 601.7 Q 232.9 603.7, 228.7 603.7 Q 226.3 603.7, 224.5 603.1 Q 222.7 602.6, 220.6 601.8 L 221.6 598.8 " fill="#CCCC00"/>
<path class="atom-13" d="M 143.7 637.0 L 147.6 633.0 L 142.4 631.9 L 143.2 629.2 L 148.0 631.6 L 147.3 626.4 L 150.2 626.3 L 149.4 631.6 L 154.3 629.3 L 155.1 631.9 L 149.8 632.9 L 153.6 637.0 L 151.3 638.6 L 148.6 633.6 L 146.0 638.6 L 143.7 637.0 " fill="#191919"/>
</svg>