<svg xmlns="http://www.w3.org/2000/svg" xmlns:rdkit="http://www.rdkit.org/xml" xmlns:xlink="http://www.w3.org/1999/xlink" version="1.1" baseProfile="full" xml:space="preserve" width="1200px" height="800px" viewBox="0 0 1200 800">
<!-- END OF HEADER -->
<rect style="opacity:1.0;fill:#FFFFFF;stroke:none" width="1200.0" height="800.0" x="0.0" y="0.0"> </rect>
<path class="bond-0 atom-0 atom-1" d="M 1130.8,160.3 L 1091.9,184.5" style="fill:none;fill-rule:evenodd;stroke:#191919;stroke-width:2.0px;stroke-linecap:butt;stroke-linejoin:miter;stroke-opacity:1"/>
<path class="bond-0 atom-0 atom-1" d="M 1091.9,184.5 L 1053.0,208.7" style="fill:none;fill-rule:evenodd;stroke:#000000;stroke-width:2.0px;stroke-linecap:butt;stroke-linejoin:miter;stroke-opacity:1"/>
<path class="bond-1 atom-1 atom-2" d="M 1053.0,208.7 L 969.2,163.9" style="fill:none;fill-rule:evenodd;stroke:#000000;stroke-width:2.0px;stroke-linecap:butt;stroke-linejoin:miter;stroke-opacity:1"/>
<path class="bond-1 atom-1 atom-2" d="M 1052.4,192.3 L 975.9,151.4" style="fill:none;fill-rule:evenodd;stroke:#000000;stroke-width:2.0px;stroke-linecap:butt;stroke-linejoin:miter;stroke-opacity:1"/>
<path class="bond-2 atom-2 atom-3" d="M 969.2,163.9 L 888.5,214.1" style="fill:none;fill-rule:evenodd;stroke:#000000;stroke-width:2.0px;stroke-linecap:butt;stroke-linejoin:miter;stroke-opacity:1"/>
<path class="bond-3 atom-3 atom-4" d="M 881.3,210.2 L 882.6,251.4" style="fill:none;fill-rule:evenodd;stroke:#000000;stroke-width:2.0px;stroke-linecap:butt;stroke-linejoin:miter;stroke-opacity:1"/>
<path class="bond-3 atom-3 atom-4" d="M 882.6,251.4 L 884.0,292.5" style="fill:none;fill-rule:evenodd;stroke:#FF0000;stroke-width:2.0px;stroke-linecap:butt;stroke-linejoin:miter;stroke-opacity:1"/>
<path class="bond-3 atom-3 atom-4" d="M 895.5,209.8 L 896.9,250.9" style="fill:none;fill-rule:evenodd;stroke:#000000;stroke-width:2.0px;stroke-linecap:butt;stroke-linejoin:miter;stroke-opacity:1"/>
<path class="bond-3 atom-3 atom-4" d="M 896.9,250.9 L 898.2,292.1" style="fill:none;fill-rule:evenodd;stroke:#FF0000;stroke-width:2.0px;stroke-linecap:butt;stroke-linejoin:miter;stroke-opacity:1"/>
<path class="bond-4 atom-3 atom-5" d="M 888.5,214.1 L 854.4,195.9" style="fill:none;fill-rule:evenodd;stroke:#000000;stroke-width:2.0px;stroke-linecap:butt;stroke-linejoin:miter;stroke-opacity:1"/>
<path class="bond-4 atom-3 atom-5" d="M 854.4,195.9 L 820.2,177.6" style="fill:none;fill-rule:evenodd;stroke:#FF0000;stroke-width:2.0px;stroke-linecap:butt;stroke-linejoin:miter;stroke-opacity:1"/>
<path class="bond-5 atom-5 atom-6" d="M 789.3,179.0 L 756.7,199.2" style="fill:none;fill-rule:evenodd;stroke:#FF0000;stroke-width:2.0px;stroke-linecap:butt;stroke-linejoin:miter;stroke-opacity:1"/>
<path class="bond-5 atom-5 atom-6" d="M 756.7,199.2 L 724.1,219.5" style="fill:none;fill-rule:evenodd;stroke:#000000;stroke-width:2.0px;stroke-linecap:butt;stroke-linejoin:miter;stroke-opacity:1"/>
<path class="bond-6 atom-6 atom-7" d="M 724.1,219.5 L 640.3,174.7" style="fill:none;fill-rule:evenodd;stroke:#000000;stroke-width:2.0px;stroke-linecap:butt;stroke-linejoin:miter;stroke-opacity:1"/>
<path class="bond-7 atom-7 atom-8" d="M 640.3,174.7 L 559.7,224.9" style="fill:none;fill-rule:evenodd;stroke:#000000;stroke-width:2.0px;stroke-linecap:butt;stroke-linejoin:miter;stroke-opacity:1"/>
<path class="bond-8 atom-8 atom-9" d="M 559.7,224.9 L 475.9,180.1" style="fill:none;fill-rule:evenodd;stroke:#000000;stroke-width:2.0px;stroke-linecap:butt;stroke-linejoin:miter;stroke-opacity:1"/>
<path class="bond-9 atom-9 atom-10" d="M 475.9,180.1 L 443.3,200.4" style="fill:none;fill-rule:evenodd;stroke:#000000;stroke-width:2.0px;stroke-linecap:butt;stroke-linejoin:miter;stroke-opacity:1"/>
<path class="bond-9 atom-9 atom-10" d="M 443.3,200.4 L 410.7,220.6" style="fill:none;fill-rule:evenodd;stroke:#FF0000;stroke-width:2.0px;stroke-linecap:butt;stroke-linejoin:miter;stroke-opacity:1"/>
<path class="bond-10 atom-10 atom-11" d="M 379.8,222.0 L 345.6,203.7" style="fill:none;fill-rule:evenodd;stroke:#FF0000;stroke-width:2.0px;stroke-linecap:butt;stroke-linejoin:miter;stroke-opacity:1"/>
<path class="bond-10 atom-10 atom-11" d="M 345.6,203.7 L 311.5,185.5" style="fill:none;fill-rule:evenodd;stroke:#000000;stroke-width:2.0px;stroke-linecap:butt;stroke-linejoin:miter;stroke-opacity:1"/>
<path class="bond-11 atom-11 atom-12" d="M 318.7,189.4 L 317.4,148.4" style="fill:none;fill-rule:evenodd;stroke:#000000;stroke-width:2.0px;stroke-linecap:butt;stroke-linejoin:miter;stroke-opacity:1"/>
<path class="bond-11 atom-11 atom-12" d="M 317.4,148.4 L 316.0,107.5" style="fill:none;fill-rule:evenodd;stroke:#FF0000;stroke-width:2.0px;stroke-linecap:butt;stroke-linejoin:miter;stroke-opacity:1"/>
<path class="bond-11 atom-11 atom-12" d="M 304.5,189.8 L 303.1,148.9" style="fill:none;fill-rule:evenodd;stroke:#000000;stroke-width:2.0px;stroke-linecap:butt;stroke-linejoin:miter;stroke-opacity:1"/>
<path class="bond-11 atom-11 atom-12" d="M 303.1,148.9 L 301.8,107.9" style="fill:none;fill-rule:evenodd;stroke:#FF0000;stroke-width:2.0px;stroke-linecap:butt;stroke-linejoin:miter;stroke-opacity:1"/>
<path class="bond-12 atom-11 atom-13" d="M 311.5,185.5 L 230.8,235.6" style="fill:none;fill-rule:evenodd;stroke:#000000;stroke-width:2.0px;stroke-linecap:butt;stroke-linejoin:miter;stroke-opacity:1"/>
<path class="bond-13 atom-13 atom-14" d="M 230.8,235.6 L 147.0,190.9" style="fill:none;fill-rule:evenodd;stroke:#000000;stroke-width:2.0px;stroke-linecap:butt;stroke-linejoin:miter;stroke-opacity:1"/>
<path class="bond-13 atom-13 atom-14" d="M 230.3,219.2 L 153.7,178.3" style="fill:none;fill-rule:evenodd;stroke:#000000;stroke-width:2.0px;stroke-linecap:butt;stroke-linejoin:miter;stroke-opacity:1"/>
<path class="bond-14 atom-14 atom-15" d="M 147.0,190.9 L 111.4,213.0" style="fill:none;fill-rule:evenodd;stroke:#000000;stroke-width:2.0px;stroke-linecap:butt;stroke-linejoin:miter;stroke-opacity:1"/>
<path class="bond-14 atom-14 atom-15" d="M 111.4,213.0 L 75.9,235.1" style="fill:none;fill-rule:evenodd;stroke:#191919;stroke-width:2.0px;stroke-linecap:butt;stroke-linejoin:miter;stroke-opacity:1"/>
<path d="M 1054.9,207.5 L 1053.0,208.7 L 1048.8,206.5" style="fill:none;stroke:#000000;stroke-width:2.0px;stroke-linecap:butt;stroke-linejoin:miter;stroke-opacity:1;"/>
<path d="M 973.4,166.2 L 969.2,163.9 L 965.2,166.5" style="fill:none;stroke:#000000;stroke-width:2.0px;stroke-linecap:butt;stroke-linejoin:miter;stroke-opacity:1;"/>
<path d="M 892.6,211.6 L 888.5,214.1 L 886.8,213.2" style="fill:none;stroke:#000000;stroke-width:2.0px;stroke-linecap:butt;stroke-linejoin:miter;stroke-opacity:1;"/>
<path d="M 725.7,218.5 L 724.1,219.5 L 719.9,217.2" style="fill:none;stroke:#000000;stroke-width:2.0px;stroke-linecap:butt;stroke-linejoin:miter;stroke-opacity:1;"/>
<path d="M 644.5,177.0 L 640.3,174.7 L 636.3,177.2" style="fill:none;stroke:#000000;stroke-width:2.0px;stroke-linecap:butt;stroke-linejoin:miter;stroke-opacity:1;"/>
<path d="M 563.7,222.4 L 559.7,224.9 L 555.5,222.6" style="fill:none;stroke:#000000;stroke-width:2.0px;stroke-linecap:butt;stroke-linejoin:miter;stroke-opacity:1;"/>
<path d="M 480.1,182.3 L 475.9,180.1 L 474.3,181.1" style="fill:none;stroke:#000000;stroke-width:2.0px;stroke-linecap:butt;stroke-linejoin:miter;stroke-opacity:1;"/>
<path d="M 313.2,186.4 L 311.5,185.5 L 307.4,188.0" style="fill:none;stroke:#000000;stroke-width:2.0px;stroke-linecap:butt;stroke-linejoin:miter;stroke-opacity:1;"/>
<path d="M 234.8,233.1 L 230.8,235.6 L 226.6,233.4" style="fill:none;stroke:#000000;stroke-width:2.0px;stroke-linecap:butt;stroke-linejoin:miter;stroke-opacity:1;"/>
<path d="M 151.2,193.1 L 147.0,190.9 L 145.2,192.0" style="fill:none;stroke:#000000;stroke-width:2.0px;stroke-linecap:butt;stroke-linejoin:miter;stroke-opacity:1;"/>
<path class="atom-0" d="M 1128.6 155.6 L 1132.5 151.5 L 1127.3 150.5 L 1128.1 147.8 L 1132.9 150.2 L 1132.2 144.9 L 1135.1 144.9 L 1134.3 150.2 L 1139.2 147.9 L 1140.0 150.5 L 1134.7 151.5 L 1138.5 155.5 L 1136.2 157.2 L 1133.5 152.2 L 1130.9 157.2 L 1128.6 155.6 " fill="#191919"/>
<path class="atom-4" d="M 879.3 309.1 Q 879.3 302.7, 882.5 299.0 Q 885.7 295.4, 891.6 295.4 Q 897.6 295.4, 900.8 299.0 Q 904.0 302.7, 904.0 309.1 Q 904.0 315.7, 900.8 319.4 Q 897.5 323.1, 891.6 323.1 Q 885.7 323.1, 882.5 319.4 Q 879.3 315.7, 879.3 309.1 M 891.6 320.0 Q 895.7 320.0, 898.0 317.3 Q 900.2 314.5, 900.2 309.1 Q 900.2 303.8, 898.0 301.2 Q 895.7 298.5, 891.6 298.5 Q 887.5 298.5, 885.3 301.1 Q 883.1 303.8, 883.1 309.1 Q 883.1 314.6, 885.3 317.3 Q 887.5 320.0, 891.6 320.0 " fill="#FF0000"/>
<path class="atom-5" d="M 792.4 169.4 Q 792.4 162.9, 795.6 159.3 Q 798.8 155.7, 804.8 155.7 Q 810.7 155.7, 813.9 159.3 Q 817.1 162.9, 817.1 169.4 Q 817.1 175.9, 813.9 179.7 Q 810.7 183.3, 804.8 183.3 Q 798.8 183.3, 795.6 179.7 Q 792.4 176.0, 792.4 169.4 M 804.8 180.3 Q 808.9 180.3, 811.1 177.6 Q 813.3 174.8, 813.3 169.4 Q 813.3 164.1, 811.1 161.5 Q 808.9 158.8, 804.8 158.8 Q 800.7 158.8, 798.4 161.4 Q 796.2 164.1, 796.2 169.4 Q 796.2 174.8, 798.4 177.6 Q 800.7 180.3, 804.8 180.3 " fill="#FF0000"/>
<path class="atom-10" d="M 382.9 230.3 Q 382.9 223.9, 386.1 220.3 Q 389.3 216.7, 395.2 216.7 Q 401.2 216.7, 404.4 220.3 Q 407.6 223.9, 407.6 230.3 Q 407.6 236.9, 404.4 240.6 Q 401.1 244.3, 395.2 244.3 Q 389.3 244.3, 386.1 240.6 Q 382.9 236.9, 382.9 230.3 M 395.2 241.2 Q 399.3 241.2, 401.5 238.5 Q 403.8 235.7, 403.8 230.3 Q 403.8 225.0, 401.5 222.4 Q 399.3 219.7, 395.2 219.7 Q 391.1 219.7, 388.9 222.4 Q 386.7 225.0, 386.7 230.3 Q 386.7 235.8, 388.9 238.5 Q 391.1 241.2, 395.2 241.2 " fill="#FF0000"/>
<path class="atom-12" d="M 296.0 90.6 Q 296.0 84.2, 299.2 80.5 Q 302.4 76.9, 308.4 76.9 Q 314.3 76.9, 317.5 80.5 Q 320.7 84.2, 320.7 90.6 Q 320.7 97.2, 317.5 100.9 Q 314.2 104.6, 308.4 104.6 Q 302.4 104.6, 299.2 100.9 Q 296.0 97.2, 296.0 90.6 M 308.4 101.5 Q 312.5 101.5, 314.7 98.8 Q 316.9 96.0, 316.9 90.6 Q 316.9 85.3, 314.7 82.7 Q 312.5 80.0, 308.4 80.0 Q 304.3 80.0, 302.0 82.6 Q 299.8 85.3, 299.8 90.6 Q 299.8 96.0, 302.0 98.8 Q 304.3 101.5, 308.4 101.5 " fill="#FF0000"/>
<path class="atom-15" d="M 61.3 238.0 L 65.2 234.0 L 60.0 232.9 L 60.8 230.2 L 65.6 232.7 L 64.9 227.4 L 67.8 227.3 L 67.0 232.6 L 71.9 230.3 L 72.7 232.9 L 67.4 233.9 L 71.2 238.0 L 68.9 239.7 L 66.3 234.6 L 63.6 239.7 L 61.3 238.0 " fill="#191919"/>
<path class="bond-0 atom-0 atom-1" d="M 156.8,612.5 L 187.6,595.3" style="fill:none;fill-rule:evenodd;stroke:#191919;stroke-width:2.0px;stroke-linecap:butt;stroke-linejoin:miter;stroke-opacity:1"/>
<path class="bond-0 atom-0 atom-1" d="M 187.6,595.3 L 218.4,578.0" style="fill:none;fill-rule:evenodd;stroke:#CCCC00;stroke-width:2.0px;stroke-linecap:butt;stroke-linejoin:miter;stroke-opacity:1"/>
<path class="bond-1 atom-1 atom-2" d="M 241.9,578.4 L 276.9,599.1" style="fill:none;fill-rule:evenodd;stroke:#CCCC00;stroke-width:2.0px;stroke-linecap:butt;stroke-linejoin:miter;stroke-opacity:1"/>
<path class="bond-1 atom-1 atom-2" d="M 276.9,599.1 L 311.8,619.9" style="fill:none;fill-rule:evenodd;stroke:#000000;stroke-width:2.0px;stroke-linecap:butt;stroke-linejoin:miter;stroke-opacity:1"/>
<path class="bond-2 atom-2 atom-3" d="M 311.8,619.9 L 394.7,573.4" style="fill:none;fill-rule:evenodd;stroke:#000000;stroke-width:2.0px;stroke-linecap:butt;stroke-linejoin:miter;stroke-opacity:1"/>
<path class="bond-3 atom-3 atom-4" d="M 394.7,573.4 L 427.7,593.0" style="fill:none;fill-rule:evenodd;stroke:#000000;stroke-width:2.0px;stroke-linecap:butt;stroke-linejoin:miter;stroke-opacity:1"/>
<path class="bond-3 atom-3 atom-4" d="M 427.7,593.0 L 460.8,612.7" style="fill:none;fill-rule:evenodd;stroke:#FF0000;stroke-width:2.0px;stroke-linecap:butt;stroke-linejoin:miter;stroke-opacity:1"/>
<path class="bond-4 atom-4 atom-5" d="M 491.8,613.2 L 525.5,594.3" style="fill:none;fill-rule:evenodd;stroke:#FF0000;stroke-width:2.0px;stroke-linecap:butt;stroke-linejoin:miter;stroke-opacity:1"/>
<path class="bond-4 atom-4 atom-5" d="M 525.5,594.3 L 559.2,575.4" style="fill:none;fill-rule:evenodd;stroke:#000000;stroke-width:2.0px;stroke-linecap:butt;stroke-linejoin:miter;stroke-opacity:1"/>
<path class="bond-5 atom-5 atom-6" d="M 559.2,575.4 L 640.8,623.9" style="fill:none;fill-rule:evenodd;stroke:#000000;stroke-width:2.0px;stroke-linecap:butt;stroke-linejoin:miter;stroke-opacity:1"/>
<path class="bond-6 atom-6 atom-7" d="M 640.8,623.9 L 674.5,605.0" style="fill:none;fill-rule:evenodd;stroke:#000000;stroke-width:2.0px;stroke-linecap:butt;stroke-linejoin:miter;stroke-opacity:1"/>
<path class="bond-6 atom-6 atom-7" d="M 674.5,605.0 L 708.2,586.1" style="fill:none;fill-rule:evenodd;stroke:#FF0000;stroke-width:2.0px;stroke-linecap:butt;stroke-linejoin:miter;stroke-opacity:1"/>
<path class="bond-7 atom-7 atom-8" d="M 739.2,586.6 L 772.3,606.2" style="fill:none;fill-rule:evenodd;stroke:#FF0000;stroke-width:2.0px;stroke-linecap:butt;stroke-linejoin:miter;stroke-opacity:1"/>
<path class="bond-7 atom-7 atom-8" d="M 772.3,606.2 L 805.3,625.9" style="fill:none;fill-rule:evenodd;stroke:#000000;stroke-width:2.0px;stroke-linecap:butt;stroke-linejoin:miter;stroke-opacity:1"/>
<path class="bond-8 atom-8 atom-9" d="M 805.3,625.9 L 888.2,579.4" style="fill:none;fill-rule:evenodd;stroke:#000000;stroke-width:2.0px;stroke-linecap:butt;stroke-linejoin:miter;stroke-opacity:1"/>
<path class="bond-9 atom-9 atom-10" d="M 888.2,579.4 L 923.1,600.2" style="fill:none;fill-rule:evenodd;stroke:#000000;stroke-width:2.0px;stroke-linecap:butt;stroke-linejoin:miter;stroke-opacity:1"/>
<path class="bond-9 atom-9 atom-10" d="M 923.1,600.2 L 958.1,620.9" style="fill:none;fill-rule:evenodd;stroke:#CCCC00;stroke-width:2.0px;stroke-linecap:butt;stroke-linejoin:miter;stroke-opacity:1"/>
<path class="bond-10 atom-10 atom-11" d="M 981.6,621.3 L 1015.6,602.2" style="fill:none;fill-rule:evenodd;stroke:#CCCC00;stroke-width:2.0px;stroke-linecap:butt;stroke-linejoin:miter;stroke-opacity:1"/>
<path class="bond-10 atom-10 atom-11" d="M 1015.6,602.2 L 1049.5,583.2" style="fill:none;fill-rule:evenodd;stroke:#191919;stroke-width:2.0px;stroke-linecap:butt;stroke-linejoin:miter;stroke-opacity:1"/>
<path d="M 310.1,618.8 L 311.8,619.9 L 316.0,617.5" style="fill:none;stroke:#000000;stroke-width:2.0px;stroke-linecap:butt;stroke-linejoin:miter;stroke-opacity:1;"/>
<path d="M 390.5,575.7 L 394.7,573.4 L 396.3,574.4" style="fill:none;stroke:#000000;stroke-width:2.0px;stroke-linecap:butt;stroke-linejoin:miter;stroke-opacity:1;"/>
<path d="M 557.5,576.3 L 559.2,575.4 L 563.2,577.8" style="fill:none;stroke:#000000;stroke-width:2.0px;stroke-linecap:butt;stroke-linejoin:miter;stroke-opacity:1;"/>
<path d="M 636.8,621.5 L 640.8,623.9 L 642.5,622.9" style="fill:none;stroke:#000000;stroke-width:2.0px;stroke-linecap:butt;stroke-linejoin:miter;stroke-opacity:1;"/>
<path d="M 803.7,624.9 L 805.3,625.9 L 809.5,623.6" style="fill:none;stroke:#000000;stroke-width:2.0px;stroke-linecap:butt;stroke-linejoin:miter;stroke-opacity:1;"/>
<path d="M 884.0,581.7 L 888.2,579.4 L 889.9,580.4" style="fill:none;stroke:#000000;stroke-width:2.0px;stroke-linecap:butt;stroke-linejoin:miter;stroke-opacity:1;"/>
<path class="atom-0" d="M 142.2 614.9 L 146.2 610.8 L 140.9 609.8 L 141.7 607.1 L 146.6 609.5 L 145.9 604.2 L 148.7 604.2 L 147.9 609.5 L 152.8 607.2 L 153.7 609.8 L 148.4 610.8 L 152.2 614.8 L 149.8 616.5 L 147.2 611.5 L 144.6 616.5 L 142.2 614.9 " fill="#191919"/>
<path class="atom-1" d="M 222.5 580.6 Q 222.8 580.7, 224.1 581.3 Q 225.4 581.8, 226.7 582.1 Q 228.1 582.4, 229.5 582.4 Q 232.0 582.4, 233.5 581.2 Q 235.0 580.0, 235.0 577.8 Q 235.0 576.3, 234.2 575.4 Q 233.5 574.5, 232.4 574.0 Q 231.2 573.5, 229.3 572.9 Q 226.9 572.2, 225.5 571.5 Q 224.1 570.8, 223.1 569.4 Q 222.1 568.0, 222.1 565.5 Q 222.1 562.1, 224.4 560.1 Q 226.7 558.0, 231.2 558.0 Q 234.4 558.0, 237.9 559.4 L 237.0 562.4 Q 233.8 561.0, 231.4 561.0 Q 228.7 561.0, 227.3 562.1 Q 225.8 563.2, 225.9 565.1 Q 225.9 566.5, 226.6 567.4 Q 227.4 568.3, 228.4 568.8 Q 229.5 569.3, 231.4 569.8 Q 233.8 570.6, 235.2 571.3 Q 236.7 572.1, 237.7 573.7 Q 238.8 575.2, 238.8 577.8 Q 238.8 581.5, 236.3 583.5 Q 233.8 585.5, 229.6 585.5 Q 227.3 585.5, 225.4 585.0 Q 223.6 584.5, 221.5 583.6 L 222.5 580.6 " fill="#CCCC00"/>
<path class="atom-4" d="M 464.0 622.0 Q 464.0 615.5, 467.2 611.9 Q 470.4 608.3, 476.3 608.3 Q 482.3 608.3, 485.5 611.9 Q 488.7 615.5, 488.7 622.0 Q 488.7 628.5, 485.4 632.2 Q 482.2 635.9, 476.3 635.9 Q 470.4 635.9, 467.2 632.2 Q 464.0 628.5, 464.0 622.0 M 476.3 632.9 Q 480.4 632.9, 482.6 630.1 Q 484.9 627.4, 484.9 622.0 Q 484.9 616.7, 482.6 614.0 Q 480.4 611.3, 476.3 611.3 Q 472.2 611.3, 470.0 614.0 Q 467.8 616.6, 467.8 622.0 Q 467.8 627.4, 470.0 630.1 Q 472.2 632.9, 476.3 632.9 " fill="#FF0000"/>
<path class="atom-7" d="M 711.3 577.5 Q 711.3 571.0, 714.5 567.4 Q 717.7 563.8, 723.7 563.8 Q 729.6 563.8, 732.8 567.4 Q 736.0 571.0, 736.0 577.5 Q 736.0 584.0, 732.8 587.7 Q 729.6 591.4, 723.7 591.4 Q 717.7 591.4, 714.5 587.7 Q 711.3 584.0, 711.3 577.5 M 723.7 588.4 Q 727.8 588.4, 730.0 585.6 Q 732.2 582.9, 732.2 577.5 Q 732.2 572.2, 730.0 569.5 Q 727.8 566.8, 723.7 566.8 Q 719.6 566.8, 717.3 569.5 Q 715.1 572.2, 715.1 577.5 Q 715.1 582.9, 717.3 585.6 Q 719.6 588.4, 723.7 588.4 " fill="#FF0000"/>
<path class="atom-10" d="M 962.3 637.1 Q 962.6 637.2, 963.8 637.8 Q 965.1 638.3, 966.4 638.7 Q 967.8 639.0, 969.2 639.0 Q 971.8 639.0, 973.2 637.7 Q 974.7 636.5, 974.7 634.3 Q 974.7 632.8, 974.0 631.9 Q 973.2 631.0, 972.1 630.5 Q 971.0 630.0, 969.1 629.5 Q 966.7 628.7, 965.2 628.1 Q 963.8 627.4, 962.8 625.9 Q 961.8 624.5, 961.8 622.0 Q 961.8 618.7, 964.1 616.6 Q 966.4 614.5, 971.0 614.5 Q 974.1 614.5, 977.6 616.0 L 976.7 618.9 Q 973.5 617.6, 971.1 617.6 Q 968.5 617.6, 967.0 618.7 Q 965.6 619.7, 965.6 621.6 Q 965.6 623.0, 966.3 623.9 Q 967.1 624.8, 968.1 625.3 Q 969.3 625.8, 971.1 626.3 Q 973.5 627.1, 975.0 627.9 Q 976.4 628.6, 977.4 630.2 Q 978.5 631.7, 978.5 634.3 Q 978.5 638.0, 976.0 640.1 Q 973.5 642.0, 969.4 642.0 Q 967.0 642.0, 965.1 641.5 Q 963.4 641.0, 961.2 640.1 L 962.3 637.1 " fill="#CCCC00"/>
<path class="atom-11" d="M 1047.6 578.4 L 1051.6 574.4 L 1046.3 573.3 L 1047.1 570.6 L 1052.0 573.1 L 1051.3 567.8 L 1054.1 567.7 L 1053.3 573.0 L 1058.2 570.7 L 1059.1 573.3 L 1053.7 574.3 L 1057.5 578.4 L 1055.2 580.0 L 1052.6 575.0 L 1049.9 580.0 L 1047.6 578.4 " fill="#191919"/>
</svg>