<svg xmlns="http://www.w3.org/2000/svg" xmlns:rdkit="http://www.rdkit.org/xml" xmlns:xlink="http://www.w3.org/1999/xlink" version="1.1" baseProfile="full" xml:space="preserve" width="1200px" height="800px" viewBox="0 0 1200 800">
<!-- END OF HEADER -->
<rect style="opacity:1.0;fill:#FFFFFF;stroke:none" width="1200.0" height="800.0" x="0.0" y="0.0"> </rect>
<path class="bond-0 atom-0 atom-1" d="M 108.7,141.6 L 149.2,129.2" style="fill:none;fill-rule:evenodd;stroke:#191919;stroke-width:2.0px;stroke-linecap:butt;stroke-linejoin:miter;stroke-opacity:1"/>
<path class="bond-0 atom-0 atom-1" d="M 149.2,129.2 L 189.8,116.8" style="fill:none;fill-rule:evenodd;stroke:#000000;stroke-width:2.0px;stroke-linecap:butt;stroke-linejoin:miter;stroke-opacity:1"/>
<path class="bond-1 atom-1 atom-2" d="M 189.8,116.8 L 259.0,181.4" style="fill:none;fill-rule:evenodd;stroke:#000000;stroke-width:2.0px;stroke-linecap:butt;stroke-linejoin:miter;stroke-opacity:1"/>
<path class="bond-2 atom-2 atom-3" d="M 259.0,181.4 L 349.6,153.7" style="fill:none;fill-rule:evenodd;stroke:#000000;stroke-width:2.0px;stroke-linecap:butt;stroke-linejoin:miter;stroke-opacity:1"/>
<path class="bond-3 atom-3 atom-4" d="M 349.6,153.7 L 418.9,218.3" style="fill:none;fill-rule:evenodd;stroke:#000000;stroke-width:2.0px;stroke-linecap:butt;stroke-linejoin:miter;stroke-opacity:1"/>
<path class="bond-4 atom-4 atom-5" d="M 418.9,218.3 L 456.4,206.8" style="fill:none;fill-rule:evenodd;stroke:#000000;stroke-width:2.0px;stroke-linecap:butt;stroke-linejoin:miter;stroke-opacity:1"/>
<path class="bond-4 atom-4 atom-5" d="M 456.4,206.8 L 494.0,195.3" style="fill:none;fill-rule:evenodd;stroke:#FF0000;stroke-width:2.0px;stroke-linecap:butt;stroke-linejoin:miter;stroke-opacity:1"/>
<path class="bond-5 atom-5 atom-6" d="M 524.9,205.0 L 551.8,230.1" style="fill:none;fill-rule:evenodd;stroke:#FF0000;stroke-width:2.0px;stroke-linecap:butt;stroke-linejoin:miter;stroke-opacity:1"/>
<path class="bond-5 atom-5 atom-6" d="M 551.8,230.1 L 578.7,255.2" style="fill:none;fill-rule:evenodd;stroke:#000000;stroke-width:2.0px;stroke-linecap:butt;stroke-linejoin:miter;stroke-opacity:1"/>
<path class="bond-6 atom-6 atom-7" d="M 572.7,249.6 L 563.5,289.4" style="fill:none;fill-rule:evenodd;stroke:#000000;stroke-width:2.0px;stroke-linecap:butt;stroke-linejoin:miter;stroke-opacity:1"/>
<path class="bond-6 atom-6 atom-7" d="M 563.5,289.4 L 554.3,329.2" style="fill:none;fill-rule:evenodd;stroke:#FF0000;stroke-width:2.0px;stroke-linecap:butt;stroke-linejoin:miter;stroke-opacity:1"/>
<path class="bond-6 atom-6 atom-7" d="M 586.5,252.8 L 577.4,292.6" style="fill:none;fill-rule:evenodd;stroke:#000000;stroke-width:2.0px;stroke-linecap:butt;stroke-linejoin:miter;stroke-opacity:1"/>
<path class="bond-6 atom-6 atom-7" d="M 577.4,292.6 L 568.2,332.4" style="fill:none;fill-rule:evenodd;stroke:#FF0000;stroke-width:2.0px;stroke-linecap:butt;stroke-linejoin:miter;stroke-opacity:1"/>
<path class="bond-7 atom-6 atom-8" d="M 578.7,255.2 L 669.3,227.5" style="fill:none;fill-rule:evenodd;stroke:#000000;stroke-width:2.0px;stroke-linecap:butt;stroke-linejoin:miter;stroke-opacity:1"/>
<path class="bond-8 atom-8 atom-9" d="M 669.3,227.5 L 690.6,135.2" style="fill:none;fill-rule:evenodd;stroke:#000000;stroke-width:2.0px;stroke-linecap:butt;stroke-linejoin:miter;stroke-opacity:1"/>
<path class="bond-9 atom-9 atom-10" d="M 690.6,135.2 L 781.1,107.5" style="fill:none;fill-rule:evenodd;stroke:#000000;stroke-width:2.0px;stroke-linecap:butt;stroke-linejoin:miter;stroke-opacity:1"/>
<path class="bond-10 atom-10 atom-11" d="M 781.1,107.5 L 850.4,172.1" style="fill:none;fill-rule:evenodd;stroke:#000000;stroke-width:2.0px;stroke-linecap:butt;stroke-linejoin:miter;stroke-opacity:1"/>
<path class="bond-11 atom-11 atom-12" d="M 850.4,172.1 L 941.0,144.4" style="fill:none;fill-rule:evenodd;stroke:#000000;stroke-width:2.0px;stroke-linecap:butt;stroke-linejoin:miter;stroke-opacity:1"/>
<path class="bond-12 atom-12 atom-13" d="M 947.0,150.0 L 956.1,110.4" style="fill:none;fill-rule:evenodd;stroke:#000000;stroke-width:2.0px;stroke-linecap:butt;stroke-linejoin:miter;stroke-opacity:1"/>
<path class="bond-12 atom-12 atom-13" d="M 956.1,110.4 L 965.3,70.8" style="fill:none;fill-rule:evenodd;stroke:#FF0000;stroke-width:2.0px;stroke-linecap:butt;stroke-linejoin:miter;stroke-opacity:1"/>
<path class="bond-12 atom-12 atom-13" d="M 933.1,146.8 L 942.3,107.2" style="fill:none;fill-rule:evenodd;stroke:#000000;stroke-width:2.0px;stroke-linecap:butt;stroke-linejoin:miter;stroke-opacity:1"/>
<path class="bond-12 atom-12 atom-13" d="M 942.3,107.2 L 951.4,67.6" style="fill:none;fill-rule:evenodd;stroke:#FF0000;stroke-width:2.0px;stroke-linecap:butt;stroke-linejoin:miter;stroke-opacity:1"/>
<path class="bond-13 atom-12 atom-14" d="M 941.0,144.4 L 967.9,169.5" style="fill:none;fill-rule:evenodd;stroke:#000000;stroke-width:2.0px;stroke-linecap:butt;stroke-linejoin:miter;stroke-opacity:1"/>
<path class="bond-13 atom-12 atom-14" d="M 967.9,169.5 L 994.8,194.6" style="fill:none;fill-rule:evenodd;stroke:#FF0000;stroke-width:2.0px;stroke-linecap:butt;stroke-linejoin:miter;stroke-opacity:1"/>
<path class="bond-14 atom-14 atom-15" d="M 1025.7,204.3 L 1060.4,193.7" style="fill:none;fill-rule:evenodd;stroke:#FF0000;stroke-width:2.0px;stroke-linecap:butt;stroke-linejoin:miter;stroke-opacity:1"/>
<path class="bond-14 atom-14 atom-15" d="M 1060.4,193.7 L 1095.1,183.1" style="fill:none;fill-rule:evenodd;stroke:#191919;stroke-width:2.0px;stroke-linecap:butt;stroke-linejoin:miter;stroke-opacity:1"/>
<path class="bond-15 atom-11 atom-16" d="M 850.4,172.1 L 829.1,264.4" style="fill:none;fill-rule:evenodd;stroke:#000000;stroke-width:2.0px;stroke-linecap:butt;stroke-linejoin:miter;stroke-opacity:1"/>
<path class="bond-16 atom-16 atom-17" d="M 829.1,264.4 L 738.5,292.1" style="fill:none;fill-rule:evenodd;stroke:#000000;stroke-width:2.0px;stroke-linecap:butt;stroke-linejoin:miter;stroke-opacity:1"/>
<path class="bond-17 atom-17 atom-8" d="M 738.5,292.1 L 669.3,227.5" style="fill:none;fill-rule:evenodd;stroke:#000000;stroke-width:2.0px;stroke-linecap:butt;stroke-linejoin:miter;stroke-opacity:1"/>
<path d="M 187.7,117.4 L 189.8,116.8 L 193.2,120.0" style="fill:none;stroke:#000000;stroke-width:2.0px;stroke-linecap:butt;stroke-linejoin:miter;stroke-opacity:1;"/>
<path d="M 255.6,178.2 L 259.0,181.4 L 263.5,180.0" style="fill:none;stroke:#000000;stroke-width:2.0px;stroke-linecap:butt;stroke-linejoin:miter;stroke-opacity:1;"/>
<path d="M 345.1,155.1 L 349.6,153.7 L 353.1,156.9" style="fill:none;stroke:#000000;stroke-width:2.0px;stroke-linecap:butt;stroke-linejoin:miter;stroke-opacity:1;"/>
<path d="M 415.4,215.1 L 418.9,218.3 L 420.7,217.7" style="fill:none;stroke:#000000;stroke-width:2.0px;stroke-linecap:butt;stroke-linejoin:miter;stroke-opacity:1;"/>
<path d="M 577.4,253.9 L 578.7,255.2 L 583.2,253.8" style="fill:none;stroke:#000000;stroke-width:2.0px;stroke-linecap:butt;stroke-linejoin:miter;stroke-opacity:1;"/>
<path d="M 689.5,139.8 L 690.6,135.2 L 695.1,133.8" style="fill:none;stroke:#000000;stroke-width:2.0px;stroke-linecap:butt;stroke-linejoin:miter;stroke-opacity:1;"/>
<path d="M 776.6,108.9 L 781.1,107.5 L 784.6,110.7" style="fill:none;stroke:#000000;stroke-width:2.0px;stroke-linecap:butt;stroke-linejoin:miter;stroke-opacity:1;"/>
<path d="M 936.5,145.8 L 941.0,144.4 L 942.3,145.7" style="fill:none;stroke:#000000;stroke-width:2.0px;stroke-linecap:butt;stroke-linejoin:miter;stroke-opacity:1;"/>
<path d="M 830.2,259.8 L 829.1,264.4 L 824.6,265.8" style="fill:none;stroke:#000000;stroke-width:2.0px;stroke-linecap:butt;stroke-linejoin:miter;stroke-opacity:1;"/>
<path d="M 743.1,290.7 L 738.5,292.1 L 735.1,288.8" style="fill:none;stroke:#000000;stroke-width:2.0px;stroke-linecap:butt;stroke-linejoin:miter;stroke-opacity:1;"/>
<path class="atom-0" d="M 94.1 141.5 L 98.1 137.5 L 92.8 136.4 L 93.6 133.7 L 98.4 136.2 L 97.8 130.9 L 100.6 130.8 L 99.8 136.1 L 104.7 133.8 L 105.5 136.4 L 100.2 137.4 L 104.0 141.5 L 101.7 143.1 L 99.1 138.1 L 96.4 143.1 L 94.1 141.5 " fill="#191919"/>
<path class="atom-5" d="M 497.1 190.7 Q 497.1 184.2, 500.3 180.6 Q 503.5 177.0, 509.4 177.0 Q 515.4 177.0, 518.6 180.6 Q 521.7 184.2, 521.7 190.7 Q 521.7 197.2, 518.5 200.9 Q 515.3 204.6, 509.4 204.6 Q 503.5 204.6, 500.3 200.9 Q 497.1 197.2, 497.1 190.7 M 509.4 201.5 Q 513.5 201.5, 515.7 198.8 Q 518.0 196.0, 518.0 190.7 Q 518.0 185.4, 515.7 182.7 Q 513.5 180.1, 509.4 180.1 Q 505.3 180.1, 503.1 182.7 Q 500.9 185.4, 500.9 190.7 Q 500.9 196.1, 503.1 198.8 Q 505.3 201.5, 509.4 201.5 " fill="#FF0000"/>
<path class="atom-7" d="M 545.1 347.5 Q 545.1 341.1, 548.3 337.5 Q 551.4 333.9, 557.4 333.9 Q 563.3 333.9, 566.5 337.5 Q 569.7 341.1, 569.7 347.5 Q 569.7 354.1, 566.5 357.8 Q 563.3 361.4, 557.4 361.4 Q 551.5 361.4, 548.3 357.8 Q 545.1 354.1, 545.1 347.5 M 557.4 358.4 Q 561.5 358.4, 563.7 355.7 Q 565.9 352.9, 565.9 347.5 Q 565.9 342.3, 563.7 339.6 Q 561.5 336.9, 557.4 336.9 Q 553.3 336.9, 551.1 339.6 Q 548.9 342.2, 548.9 347.5 Q 548.9 353.0, 551.1 355.7 Q 553.3 358.4, 557.4 358.4 " fill="#FF0000"/>
<path class="atom-13" d="M 950.0 52.2 Q 950.0 45.8, 953.2 42.2 Q 956.3 38.6, 962.3 38.6 Q 968.2 38.6, 971.4 42.2 Q 974.6 45.8, 974.6 52.2 Q 974.6 58.7, 971.4 62.4 Q 968.2 66.1, 962.3 66.1 Q 956.4 66.1, 953.2 62.4 Q 950.0 58.8, 950.0 52.2 M 962.3 63.1 Q 966.4 63.1, 968.6 60.3 Q 970.8 57.6, 970.8 52.2 Q 970.8 46.9, 968.6 44.3 Q 966.4 41.6, 962.3 41.6 Q 958.2 41.6, 956.0 44.2 Q 953.8 46.9, 953.8 52.2 Q 953.8 57.6, 956.0 60.3 Q 958.2 63.1, 962.3 63.1 " fill="#FF0000"/>
<path class="atom-14" d="M 997.9 209.1 Q 997.9 202.6, 1001.1 199.0 Q 1004.3 195.4, 1010.2 195.4 Q 1016.2 195.4, 1019.4 199.0 Q 1022.6 202.6, 1022.6 209.1 Q 1022.6 215.6, 1019.3 219.3 Q 1016.1 223.0, 1010.2 223.0 Q 1004.3 223.0, 1001.1 219.3 Q 997.9 215.6, 997.9 209.1 M 1010.2 219.9 Q 1014.3 219.9, 1016.5 217.2 Q 1018.8 214.5, 1018.8 209.1 Q 1018.8 203.8, 1016.5 201.2 Q 1014.3 198.5, 1010.2 198.5 Q 1006.2 198.5, 1003.9 201.1 Q 1001.7 203.8, 1001.7 209.1 Q 1001.7 214.5, 1003.9 217.2 Q 1006.2 219.9, 1010.2 219.9 " fill="#FF0000"/>
<path class="atom-15" d="M 1095.8 178.3 L 1099.7 174.3 L 1094.5 173.2 L 1095.3 170.5 L 1100.1 173.0 L 1099.4 167.7 L 1102.2 167.7 L 1101.4 172.9 L 1106.3 170.7 L 1107.2 173.2 L 1101.9 174.2 L 1105.7 178.3 L 1103.3 179.9 L 1100.7 174.9 L 1098.1 179.9 L 1095.8 178.3 " fill="#191919"/>
<path class="bond-0 atom-0 atom-1" d="M 75.8,591.9 L 113.0,572.3" style="fill:none;fill-rule:evenodd;stroke:#191919;stroke-width:2.0px;stroke-linecap:butt;stroke-linejoin:miter;stroke-opacity:1"/>
<path class="bond-0 atom-0 atom-1" d="M 113.0,572.3 L 150.1,552.7" style="fill:none;fill-rule:evenodd;stroke:#000000;stroke-width:2.0px;stroke-linecap:butt;stroke-linejoin:miter;stroke-opacity:1"/>
<path class="bond-1 atom-1 atom-2" d="M 150.1,552.7 L 230.3,603.1" style="fill:none;fill-rule:evenodd;stroke:#000000;stroke-width:2.0px;stroke-linecap:butt;stroke-linejoin:miter;stroke-opacity:1"/>
<path class="bond-2 atom-2 atom-3" d="M 230.3,603.1 L 314.0,558.9" style="fill:none;fill-rule:evenodd;stroke:#000000;stroke-width:2.0px;stroke-linecap:butt;stroke-linejoin:miter;stroke-opacity:1"/>
<path class="bond-3 atom-3 atom-4" d="M 314.0,558.9 L 394.2,609.4" style="fill:none;fill-rule:evenodd;stroke:#000000;stroke-width:2.0px;stroke-linecap:butt;stroke-linejoin:miter;stroke-opacity:1"/>
<path class="bond-4 atom-4 atom-5" d="M 394.2,609.4 L 428.4,591.4" style="fill:none;fill-rule:evenodd;stroke:#000000;stroke-width:2.0px;stroke-linecap:butt;stroke-linejoin:miter;stroke-opacity:1"/>
<path class="bond-4 atom-4 atom-5" d="M 428.4,591.4 L 462.5,573.3" style="fill:none;fill-rule:evenodd;stroke:#FF0000;stroke-width:2.0px;stroke-linecap:butt;stroke-linejoin:miter;stroke-opacity:1"/>
<path class="bond-5 atom-5 atom-6" d="M 493.4,574.9 L 525.8,595.3" style="fill:none;fill-rule:evenodd;stroke:#FF0000;stroke-width:2.0px;stroke-linecap:butt;stroke-linejoin:miter;stroke-opacity:1"/>
<path class="bond-5 atom-5 atom-6" d="M 525.8,595.3 L 558.1,615.6" style="fill:none;fill-rule:evenodd;stroke:#000000;stroke-width:2.0px;stroke-linecap:butt;stroke-linejoin:miter;stroke-opacity:1"/>
<path class="bond-6 atom-6 atom-7" d="M 551.2,611.3 L 549.6,652.3" style="fill:none;fill-rule:evenodd;stroke:#000000;stroke-width:2.0px;stroke-linecap:butt;stroke-linejoin:miter;stroke-opacity:1"/>
<path class="bond-6 atom-6 atom-7" d="M 549.6,652.3 L 548.0,693.3" style="fill:none;fill-rule:evenodd;stroke:#FF0000;stroke-width:2.0px;stroke-linecap:butt;stroke-linejoin:miter;stroke-opacity:1"/>
<path class="bond-6 atom-6 atom-7" d="M 565.4,611.8 L 563.8,652.8" style="fill:none;fill-rule:evenodd;stroke:#000000;stroke-width:2.0px;stroke-linecap:butt;stroke-linejoin:miter;stroke-opacity:1"/>
<path class="bond-6 atom-6 atom-7" d="M 563.8,652.8 L 562.2,693.9" style="fill:none;fill-rule:evenodd;stroke:#FF0000;stroke-width:2.0px;stroke-linecap:butt;stroke-linejoin:miter;stroke-opacity:1"/>
<path class="bond-7 atom-6 atom-8" d="M 558.1,615.6 L 641.9,571.4" style="fill:none;fill-rule:evenodd;stroke:#000000;stroke-width:2.0px;stroke-linecap:butt;stroke-linejoin:miter;stroke-opacity:1"/>
<path class="bond-8 atom-8 atom-9" d="M 641.9,571.4 L 722.0,621.9" style="fill:none;fill-rule:evenodd;stroke:#000000;stroke-width:2.0px;stroke-linecap:butt;stroke-linejoin:miter;stroke-opacity:1"/>
<path class="bond-9 atom-9 atom-10" d="M 722.0,621.9 L 805.8,577.7" style="fill:none;fill-rule:evenodd;stroke:#000000;stroke-width:2.0px;stroke-linecap:butt;stroke-linejoin:miter;stroke-opacity:1"/>
<path class="bond-10 atom-10 atom-11" d="M 805.8,577.7 L 886.0,628.1" style="fill:none;fill-rule:evenodd;stroke:#000000;stroke-width:2.0px;stroke-linecap:butt;stroke-linejoin:miter;stroke-opacity:1"/>
<path class="bond-11 atom-11 atom-12" d="M 886.0,628.1 L 969.7,584.0" style="fill:none;fill-rule:evenodd;stroke:#000000;stroke-width:2.0px;stroke-linecap:butt;stroke-linejoin:miter;stroke-opacity:1"/>
<path class="bond-12 atom-12 atom-13" d="M 976.7,588.3 L 978.2,547.5" style="fill:none;fill-rule:evenodd;stroke:#000000;stroke-width:2.0px;stroke-linecap:butt;stroke-linejoin:miter;stroke-opacity:1"/>
<path class="bond-12 atom-12 atom-13" d="M 978.2,547.5 L 979.8,506.7" style="fill:none;fill-rule:evenodd;stroke:#FF0000;stroke-width:2.0px;stroke-linecap:butt;stroke-linejoin:miter;stroke-opacity:1"/>
<path class="bond-12 atom-12 atom-13" d="M 962.5,587.8 L 964.0,547.0" style="fill:none;fill-rule:evenodd;stroke:#000000;stroke-width:2.0px;stroke-linecap:butt;stroke-linejoin:miter;stroke-opacity:1"/>
<path class="bond-12 atom-12 atom-13" d="M 964.0,547.0 L 965.6,506.1" style="fill:none;fill-rule:evenodd;stroke:#FF0000;stroke-width:2.0px;stroke-linecap:butt;stroke-linejoin:miter;stroke-opacity:1"/>
<path class="bond-13 atom-12 atom-14" d="M 969.7,584.0 L 1002.1,604.3" style="fill:none;fill-rule:evenodd;stroke:#000000;stroke-width:2.0px;stroke-linecap:butt;stroke-linejoin:miter;stroke-opacity:1"/>
<path class="bond-13 atom-12 atom-14" d="M 1002.1,604.3 L 1034.4,624.7" style="fill:none;fill-rule:evenodd;stroke:#FF0000;stroke-width:2.0px;stroke-linecap:butt;stroke-linejoin:miter;stroke-opacity:1"/>
<path class="bond-14 atom-14 atom-15" d="M 1065.3,626.3 L 1097.8,609.1" style="fill:none;fill-rule:evenodd;stroke:#FF0000;stroke-width:2.0px;stroke-linecap:butt;stroke-linejoin:miter;stroke-opacity:1"/>
<path class="bond-14 atom-14 atom-15" d="M 1097.8,609.1 L 1130.3,592.0" style="fill:none;fill-rule:evenodd;stroke:#191919;stroke-width:2.0px;stroke-linecap:butt;stroke-linejoin:miter;stroke-opacity:1"/>
<path d="M 148.3,553.6 L 150.1,552.7 L 154.1,555.2" style="fill:none;stroke:#000000;stroke-width:2.0px;stroke-linecap:butt;stroke-linejoin:miter;stroke-opacity:1;"/>
<path d="M 226.3,600.6 L 230.3,603.1 L 234.5,600.9" style="fill:none;stroke:#000000;stroke-width:2.0px;stroke-linecap:butt;stroke-linejoin:miter;stroke-opacity:1;"/>
<path d="M 309.8,561.1 L 314.0,558.9 L 318.0,561.4" style="fill:none;stroke:#000000;stroke-width:2.0px;stroke-linecap:butt;stroke-linejoin:miter;stroke-opacity:1;"/>
<path d="M 390.2,606.9 L 394.2,609.4 L 395.9,608.5" style="fill:none;stroke:#000000;stroke-width:2.0px;stroke-linecap:butt;stroke-linejoin:miter;stroke-opacity:1;"/>
<path d="M 556.5,614.6 L 558.1,615.6 L 562.3,613.4" style="fill:none;stroke:#000000;stroke-width:2.0px;stroke-linecap:butt;stroke-linejoin:miter;stroke-opacity:1;"/>
<path d="M 637.7,573.6 L 641.9,571.4 L 645.9,574.0" style="fill:none;stroke:#000000;stroke-width:2.0px;stroke-linecap:butt;stroke-linejoin:miter;stroke-opacity:1;"/>
<path d="M 718.0,619.4 L 722.0,621.9 L 726.2,619.7" style="fill:none;stroke:#000000;stroke-width:2.0px;stroke-linecap:butt;stroke-linejoin:miter;stroke-opacity:1;"/>
<path d="M 801.6,579.9 L 805.8,577.7 L 809.8,580.2" style="fill:none;stroke:#000000;stroke-width:2.0px;stroke-linecap:butt;stroke-linejoin:miter;stroke-opacity:1;"/>
<path d="M 882.0,625.6 L 886.0,628.1 L 890.2,625.9" style="fill:none;stroke:#000000;stroke-width:2.0px;stroke-linecap:butt;stroke-linejoin:miter;stroke-opacity:1;"/>
<path d="M 965.5,586.2 L 969.7,584.0 L 971.3,585.0" style="fill:none;stroke:#000000;stroke-width:2.0px;stroke-linecap:butt;stroke-linejoin:miter;stroke-opacity:1;"/>
<path class="atom-0" d="M 61.3 593.9 L 65.2 589.9 L 60.0 588.8 L 60.8 586.1 L 65.6 588.5 L 64.9 583.3 L 67.8 583.2 L 67.0 588.5 L 71.9 586.2 L 72.7 588.8 L 67.4 589.8 L 71.2 593.8 L 68.9 595.5 L 66.3 590.5 L 63.6 595.5 L 61.3 593.9 " fill="#191919"/>
<path class="atom-5" d="M 465.6 565.3 Q 465.6 558.8, 468.8 555.2 Q 472.0 551.6, 478.0 551.6 Q 483.9 551.6, 487.1 555.2 Q 490.3 558.8, 490.3 565.3 Q 490.3 571.8, 487.1 575.5 Q 483.8 579.2, 478.0 579.2 Q 472.1 579.2, 468.8 575.5 Q 465.6 571.8, 465.6 565.3 M 478.0 576.1 Q 482.1 576.1, 484.2 573.4 Q 486.5 570.6, 486.5 565.3 Q 486.5 560.0, 484.2 557.3 Q 482.1 554.7, 478.0 554.7 Q 473.9 554.7, 471.6 557.3 Q 469.4 560.0, 469.4 565.3 Q 469.4 570.7, 471.6 573.4 Q 473.9 576.1, 478.0 576.1 " fill="#FF0000"/>
<path class="atom-7" d="M 542.2 710.3 Q 542.2 703.9, 545.4 700.3 Q 548.6 696.7, 554.5 696.7 Q 560.5 696.7, 563.6 700.3 Q 566.8 703.9, 566.8 710.3 Q 566.8 716.9, 563.6 720.6 Q 560.4 724.3, 554.5 724.3 Q 548.6 724.3, 545.4 720.6 Q 542.2 716.9, 542.2 710.3 M 554.5 721.2 Q 558.6 721.2, 560.8 718.5 Q 563.0 715.7, 563.0 710.3 Q 563.0 705.1, 560.8 702.4 Q 558.6 699.7, 554.5 699.7 Q 550.4 699.7, 548.2 702.4 Q 546.0 705.0, 546.0 710.3 Q 546.0 715.8, 548.2 718.5 Q 550.4 721.2, 554.5 721.2 " fill="#FF0000"/>
<path class="atom-13" d="M 961.0 489.4 Q 961.0 482.9, 964.2 479.3 Q 967.4 475.7, 973.3 475.7 Q 979.3 475.7, 982.5 479.3 Q 985.7 482.9, 985.7 489.4 Q 985.7 495.9, 982.4 499.6 Q 979.2 503.3, 973.3 503.3 Q 967.4 503.3, 964.2 499.6 Q 961.0 495.9, 961.0 489.4 M 973.3 500.3 Q 977.4 500.3, 979.6 497.5 Q 981.9 494.8, 981.9 489.4 Q 981.9 484.1, 979.6 481.5 Q 977.4 478.8, 973.3 478.8 Q 969.3 478.8, 967.0 481.4 Q 964.8 484.1, 964.8 489.4 Q 964.8 494.8, 967.0 497.5 Q 969.3 500.3, 973.3 500.3 " fill="#FF0000"/>
<path class="atom-14" d="M 1037.6 634.5 Q 1037.6 628.0, 1040.8 624.4 Q 1043.9 620.8, 1049.9 620.8 Q 1055.8 620.8, 1059.0 624.4 Q 1062.2 628.0, 1062.2 634.5 Q 1062.2 641.0, 1059.0 644.7 Q 1055.8 648.4, 1049.9 648.4 Q 1044.0 648.4, 1040.8 644.7 Q 1037.6 641.0, 1037.6 634.5 M 1049.9 645.3 Q 1054.0 645.3, 1056.2 642.6 Q 1058.4 639.9, 1058.4 634.5 Q 1058.4 629.2, 1056.2 626.6 Q 1054.0 623.9, 1049.9 623.9 Q 1045.8 623.9, 1043.6 626.5 Q 1041.4 629.2, 1041.4 634.5 Q 1041.4 639.9, 1043.6 642.6 Q 1045.8 645.3, 1049.9 645.3 " fill="#FF0000"/>
<path class="atom-15" d="M 1128.6 587.2 L 1132.5 583.2 L 1127.3 582.1 L 1128.1 579.4 L 1132.9 581.9 L 1132.2 576.6 L 1135.1 576.6 L 1134.3 581.8 L 1139.2 579.6 L 1140.0 582.1 L 1134.7 583.1 L 1138.5 587.2 L 1136.2 588.8 L 1133.6 583.8 L 1130.9 588.8 L 1128.6 587.2 " fill="#191919"/>
</svg>