<svg xmlns="http://www.w3.org/2000/svg" xmlns:rdkit="http://www.rdkit.org/xml" xmlns:xlink="http://www.w3.org/1999/xlink" version="1.1" baseProfile="full" xml:space="preserve" width="1200px" height="800px" viewBox="0 0 1200 800">
<!-- END OF HEADER -->
<rect style="opacity:1.0;fill:#FFFFFF;stroke:none" width="1200.0" height="800.0" x="0.0" y="0.0"> </rect>
<path class="bond-0 atom-0 atom-1" d="M 873.8,56.2 L 854.4,117.4" style="fill:none;fill-rule:evenodd;stroke:#191919;stroke-width:2.0px;stroke-linecap:butt;stroke-linejoin:miter;stroke-opacity:1"/>
<path class="bond-0 atom-0 atom-1" d="M 854.4,117.4 L 835.0,178.7" style="fill:none;fill-rule:evenodd;stroke:#FF0000;stroke-width:2.0px;stroke-linecap:butt;stroke-linejoin:miter;stroke-opacity:1"/>
<path class="bond-1 atom-1 atom-2" d="M 810.8,202.0 L 745.3,216.4" style="fill:none;fill-rule:evenodd;stroke:#FF0000;stroke-width:2.0px;stroke-linecap:butt;stroke-linejoin:miter;stroke-opacity:1"/>
<path class="bond-1 atom-1 atom-2" d="M 745.3,216.4 L 679.8,230.8" style="fill:none;fill-rule:evenodd;stroke:#000000;stroke-width:2.0px;stroke-linecap:butt;stroke-linejoin:miter;stroke-opacity:1"/>
<path class="bond-2 atom-2 atom-3" d="M 679.8,230.8 L 633.7,376.2" style="fill:none;fill-rule:evenodd;stroke:#000000;stroke-width:2.0px;stroke-linecap:butt;stroke-linejoin:miter;stroke-opacity:1"/>
<path class="bond-3 atom-2 atom-4" d="M 679.8,230.8 L 576.9,118.1" style="fill:none;fill-rule:evenodd;stroke:#000000;stroke-width:2.0px;stroke-linecap:butt;stroke-linejoin:miter;stroke-opacity:1"/>
<path class="bond-4 atom-4 atom-5" d="M 576.9,118.1 L 427.9,150.9" style="fill:none;fill-rule:evenodd;stroke:#000000;stroke-width:2.0px;stroke-linecap:butt;stroke-linejoin:miter;stroke-opacity:1"/>
<path class="bond-5 atom-5 atom-6" d="M 427.9,150.9 L 378.1,96.3" style="fill:none;fill-rule:evenodd;stroke:#000000;stroke-width:2.0px;stroke-linecap:butt;stroke-linejoin:miter;stroke-opacity:1"/>
<path class="bond-5 atom-5 atom-6" d="M 378.1,96.3 L 328.3,41.8" style="fill:none;fill-rule:evenodd;stroke:#191919;stroke-width:2.0px;stroke-linecap:butt;stroke-linejoin:miter;stroke-opacity:1"/>
<path class="bond-6 atom-5 atom-7" d="M 419.0,141.1 L 398.0,207.3" style="fill:none;fill-rule:evenodd;stroke:#000000;stroke-width:2.0px;stroke-linecap:butt;stroke-linejoin:miter;stroke-opacity:1"/>
<path class="bond-6 atom-5 atom-7" d="M 398.0,207.3 L 377.0,273.5" style="fill:none;fill-rule:evenodd;stroke:#FF0000;stroke-width:2.0px;stroke-linecap:butt;stroke-linejoin:miter;stroke-opacity:1"/>
<path class="bond-6 atom-5 atom-7" d="M 440.8,148.0 L 419.8,214.2" style="fill:none;fill-rule:evenodd;stroke:#000000;stroke-width:2.0px;stroke-linecap:butt;stroke-linejoin:miter;stroke-opacity:1"/>
<path class="bond-6 atom-5 atom-7" d="M 419.8,214.2 L 398.8,280.4" style="fill:none;fill-rule:evenodd;stroke:#FF0000;stroke-width:2.0px;stroke-linecap:butt;stroke-linejoin:miter;stroke-opacity:1"/>
<path d="M 582.1,123.7 L 576.9,118.1 L 569.5,119.7" style="fill:none;stroke:#000000;stroke-width:2.0px;stroke-linecap:butt;stroke-linejoin:miter;stroke-opacity:1;"/>
<path d="M 435.4,149.2 L 427.9,150.9 L 425.4,148.1" style="fill:none;stroke:#000000;stroke-width:2.0px;stroke-linecap:butt;stroke-linejoin:miter;stroke-opacity:1;"/>
<path class="atom-0" d="M 869.6 49.4 L 873.8 45.2 L 868.3 44.1 L 869.1 41.2 L 874.2 43.8 L 873.5 38.2 L 876.5 38.2 L 875.6 43.8 L 880.8 41.4 L 881.7 44.1 L 876.1 45.1 L 880.1 49.4 L 877.6 51.2 L 874.9 45.9 L 872.1 51.2 L 869.6 49.4 " fill="#191919"/>
<path class="atom-1" d="M 815.8 198.1 Q 815.8 191.3, 819.2 187.5 Q 822.5 183.7, 828.8 183.7 Q 835.1 183.7, 838.5 187.5 Q 841.8 191.3, 841.8 198.1 Q 841.8 205.0, 838.4 208.9 Q 835.0 212.8, 828.8 212.8 Q 822.6 212.8, 819.2 208.9 Q 815.8 205.0, 815.8 198.1 M 828.8 209.6 Q 833.1 209.6, 835.5 206.7 Q 837.8 203.8, 837.8 198.1 Q 837.8 192.6, 835.5 189.8 Q 833.1 186.9, 828.8 186.9 Q 824.5 186.9, 822.1 189.7 Q 819.8 192.5, 819.8 198.1 Q 819.8 203.8, 822.1 206.7 Q 824.5 209.6, 828.8 209.6 " fill="#FF0000"/>
<path class="atom-6" d="M 319.7 35.0 L 323.9 30.8 L 318.3 29.7 L 319.2 26.8 L 324.3 29.4 L 323.5 23.8 L 326.5 23.8 L 325.7 29.3 L 330.9 26.9 L 331.7 29.7 L 326.1 30.7 L 330.1 35.0 L 327.7 36.7 L 324.9 31.5 L 322.1 36.7 L 319.7 35.0 " fill="#191919"/>
<path class="atom-7" d="M 368.8 296.4 Q 368.8 289.6, 372.1 285.8 Q 375.5 282.0, 381.8 282.0 Q 388.0 282.0, 391.4 285.8 Q 394.8 289.6, 394.8 296.4 Q 394.8 303.2, 391.4 307.2 Q 388.0 311.0, 381.8 311.0 Q 375.5 311.0, 372.1 307.2 Q 368.8 303.3, 368.8 296.4 M 381.8 307.8 Q 386.1 307.8, 388.4 305.0 Q 390.8 302.0, 390.8 296.4 Q 390.8 290.8, 388.4 288.0 Q 386.1 285.2, 381.8 285.2 Q 377.4 285.2, 375.1 288.0 Q 372.8 290.8, 372.8 296.4 Q 372.8 302.1, 375.1 305.0 Q 377.4 307.8, 381.8 307.8 " fill="#FF0000"/>
<path class="bond-0 atom-0 atom-1" d="M 922.1,615.4 L 868.1,650.8" style="fill:none;fill-rule:evenodd;stroke:#191919;stroke-width:2.0px;stroke-linecap:butt;stroke-linejoin:miter;stroke-opacity:1"/>
<path class="bond-0 atom-0 atom-1" d="M 868.1,650.8 L 814.2,686.3" style="fill:none;fill-rule:evenodd;stroke:#CCCC00;stroke-width:2.0px;stroke-linecap:butt;stroke-linejoin:miter;stroke-opacity:1"/>
<path class="bond-1 atom-1 atom-2" d="M 785.9,688.5 L 724.9,657.7" style="fill:none;fill-rule:evenodd;stroke:#CCCC00;stroke-width:2.0px;stroke-linecap:butt;stroke-linejoin:miter;stroke-opacity:1"/>
<path class="bond-1 atom-1 atom-2" d="M 724.9,657.7 L 663.8,627.0" style="fill:none;fill-rule:evenodd;stroke:#000000;stroke-width:2.0px;stroke-linecap:butt;stroke-linejoin:miter;stroke-opacity:1"/>
<path class="bond-2 atom-2 atom-3" d="M 663.8,627.0 L 536.2,710.7" style="fill:none;fill-rule:evenodd;stroke:#000000;stroke-width:2.0px;stroke-linecap:butt;stroke-linejoin:miter;stroke-opacity:1"/>
<path class="bond-3 atom-3 atom-4" d="M 536.2,710.7 L 399.9,642.2" style="fill:none;fill-rule:evenodd;stroke:#000000;stroke-width:2.0px;stroke-linecap:butt;stroke-linejoin:miter;stroke-opacity:1"/>
<path class="bond-4 atom-4 atom-5" d="M 399.9,642.2 L 342.0,680.2" style="fill:none;fill-rule:evenodd;stroke:#000000;stroke-width:2.0px;stroke-linecap:butt;stroke-linejoin:miter;stroke-opacity:1"/>
<path class="bond-4 atom-4 atom-5" d="M 342.0,680.2 L 284.1,718.2" style="fill:none;fill-rule:evenodd;stroke:#191919;stroke-width:2.0px;stroke-linecap:butt;stroke-linejoin:miter;stroke-opacity:1"/>
<path class="bond-5 atom-4 atom-6" d="M 411.7,648.1 L 407.7,578.5" style="fill:none;fill-rule:evenodd;stroke:#000000;stroke-width:2.0px;stroke-linecap:butt;stroke-linejoin:miter;stroke-opacity:1"/>
<path class="bond-5 atom-4 atom-6" d="M 407.7,578.5 L 403.7,509.0" style="fill:none;fill-rule:evenodd;stroke:#FF0000;stroke-width:2.0px;stroke-linecap:butt;stroke-linejoin:miter;stroke-opacity:1"/>
<path class="bond-5 atom-4 atom-6" d="M 388.9,649.4 L 384.9,579.9" style="fill:none;fill-rule:evenodd;stroke:#000000;stroke-width:2.0px;stroke-linecap:butt;stroke-linejoin:miter;stroke-opacity:1"/>
<path class="bond-5 atom-4 atom-6" d="M 384.9,579.9 L 380.9,510.3" style="fill:none;fill-rule:evenodd;stroke:#FF0000;stroke-width:2.0px;stroke-linecap:butt;stroke-linejoin:miter;stroke-opacity:1"/>
<path d="M 666.8,628.5 L 663.8,627.0 L 657.4,631.2" style="fill:none;stroke:#000000;stroke-width:2.0px;stroke-linecap:butt;stroke-linejoin:miter;stroke-opacity:1;"/>
<path d="M 542.6,706.5 L 536.2,710.7 L 529.4,707.3" style="fill:none;stroke:#000000;stroke-width:2.0px;stroke-linecap:butt;stroke-linejoin:miter;stroke-opacity:1;"/>
<path d="M 406.8,645.6 L 399.9,642.2 L 397.0,644.1" style="fill:none;stroke:#000000;stroke-width:2.0px;stroke-linecap:butt;stroke-linejoin:miter;stroke-opacity:1;"/>
<path class="atom-0" d="M 922.3 608.6 L 926.4 604.4 L 920.9 603.3 L 921.7 600.4 L 926.8 603.0 L 926.1 597.4 L 929.1 597.4 L 928.3 603.0 L 933.4 600.6 L 934.3 603.3 L 928.7 604.3 L 932.7 608.6 L 930.3 610.4 L 927.5 605.1 L 924.7 610.4 L 922.3 608.6 " fill="#191919"/>
<path class="atom-1" d="M 792.1 705.3 Q 792.4 705.4, 793.7 706.0 Q 795.0 706.5, 796.5 706.9 Q 797.9 707.2, 799.4 707.2 Q 802.1 707.2, 803.6 705.9 Q 805.2 704.6, 805.2 702.3 Q 805.2 700.8, 804.4 699.8 Q 803.6 698.8, 802.4 698.3 Q 801.2 697.8, 799.2 697.2 Q 796.7 696.4, 795.2 695.7 Q 793.7 695.0, 792.6 693.5 Q 791.6 692.0, 791.6 689.4 Q 791.6 685.8, 794.0 683.6 Q 796.4 681.4, 801.2 681.4 Q 804.5 681.4, 808.2 683.0 L 807.3 686.1 Q 803.9 684.7, 801.3 684.7 Q 798.6 684.7, 797.1 685.8 Q 795.5 687.0, 795.6 688.9 Q 795.6 690.4, 796.3 691.4 Q 797.1 692.3, 798.3 692.8 Q 799.4 693.3, 801.3 693.9 Q 803.9 694.7, 805.4 695.5 Q 806.9 696.3, 808.0 698.0 Q 809.1 699.6, 809.1 702.3 Q 809.1 706.2, 806.5 708.4 Q 803.9 710.4, 799.5 710.4 Q 797.0 710.4, 795.1 709.9 Q 793.2 709.4, 791.0 708.4 L 792.1 705.3 " fill="#CCCC00"/>
<path class="atom-5" d="M 267.1 722.8 L 271.2 718.5 L 265.7 717.4 L 266.5 714.6 L 271.6 717.1 L 270.9 711.6 L 273.9 711.5 L 273.1 717.1 L 278.2 714.7 L 279.1 717.4 L 273.5 718.4 L 277.5 722.7 L 275.1 724.5 L 272.3 719.2 L 269.5 724.5 L 267.1 722.8 " fill="#191919"/>
<path class="atom-6" d="M 378.2 489.9 Q 378.2 483.1, 381.5 479.3 Q 384.9 475.5, 391.2 475.5 Q 397.5 475.5, 400.8 479.3 Q 404.2 483.1, 404.2 489.9 Q 404.2 496.8, 400.8 500.7 Q 397.4 504.6, 391.2 504.6 Q 384.9 504.6, 381.5 500.7 Q 378.2 496.8, 378.2 489.9 M 391.2 501.4 Q 395.5 501.4, 397.8 498.5 Q 400.2 495.6, 400.2 489.9 Q 400.2 484.4, 397.8 481.6 Q 395.5 478.7, 391.2 478.7 Q 386.9 478.7, 384.5 481.5 Q 382.2 484.3, 382.2 489.9 Q 382.2 495.6, 384.5 498.5 Q 386.9 501.4, 391.2 501.4 " fill="#FF0000"/>
</svg>