<svg xmlns="http://www.w3.org/2000/svg" xmlns:rdkit="http://www.rdkit.org/xml" xmlns:xlink="http://www.w3.org/1999/xlink" version="1.1" baseProfile="full" xml:space="preserve" width="1200px" height="800px" viewBox="0 0 1200 800">
<!-- END OF HEADER -->
<rect style="opacity:1.0;fill:#FFFFFF;stroke:none" width="1200.0" height="800.0" x="0.0" y="0.0"> </rect>
<path class="bond-0 atom-0 atom-1" d="M 910.3,178.1 L 871.3,213.7" style="fill:none;fill-rule:evenodd;stroke:#191919;stroke-width:2.0px;stroke-linecap:butt;stroke-linejoin:miter;stroke-opacity:1"/>
<path class="bond-0 atom-0 atom-1" d="M 871.3,213.7 L 832.2,249.2" style="fill:none;fill-rule:evenodd;stroke:#0000FF;stroke-width:2.0px;stroke-linecap:butt;stroke-linejoin:miter;stroke-opacity:1"/>
<path class="bond-1 atom-1 atom-2" d="M 802.1,258.1 L 747.6,240.7" style="fill:none;fill-rule:evenodd;stroke:#0000FF;stroke-width:2.0px;stroke-linecap:butt;stroke-linejoin:miter;stroke-opacity:1"/>
<path class="bond-1 atom-1 atom-2" d="M 747.6,240.7 L 693.1,223.4" style="fill:none;fill-rule:evenodd;stroke:#000000;stroke-width:2.0px;stroke-linecap:butt;stroke-linejoin:miter;stroke-opacity:1"/>
<path class="bond-2 atom-2 atom-3" d="M 703.8,226.8 L 691.4,169.9" style="fill:none;fill-rule:evenodd;stroke:#000000;stroke-width:2.0px;stroke-linecap:butt;stroke-linejoin:miter;stroke-opacity:1"/>
<path class="bond-2 atom-2 atom-3" d="M 691.4,169.9 L 679.0,113.1" style="fill:none;fill-rule:evenodd;stroke:#FF0000;stroke-width:2.0px;stroke-linecap:butt;stroke-linejoin:miter;stroke-opacity:1"/>
<path class="bond-2 atom-2 atom-3" d="M 684.7,231.0 L 672.3,174.1" style="fill:none;fill-rule:evenodd;stroke:#000000;stroke-width:2.0px;stroke-linecap:butt;stroke-linejoin:miter;stroke-opacity:1"/>
<path class="bond-2 atom-2 atom-3" d="M 672.3,174.1 L 659.9,117.3" style="fill:none;fill-rule:evenodd;stroke:#FF0000;stroke-width:2.0px;stroke-linecap:butt;stroke-linejoin:miter;stroke-opacity:1"/>
<path class="bond-3 atom-2 atom-4" d="M 693.1,223.4 L 596.8,311.1" style="fill:none;fill-rule:evenodd;stroke:#000000;stroke-width:2.0px;stroke-linecap:butt;stroke-linejoin:miter;stroke-opacity:1"/>
<path class="bond-4 atom-4 atom-5" d="M 596.8,311.1 L 472.7,271.5" style="fill:none;fill-rule:evenodd;stroke:#000000;stroke-width:2.0px;stroke-linecap:butt;stroke-linejoin:miter;stroke-opacity:1"/>
<path class="bond-5 atom-5 atom-6" d="M 472.7,271.5 L 430.0,310.3" style="fill:none;fill-rule:evenodd;stroke:#000000;stroke-width:2.0px;stroke-linecap:butt;stroke-linejoin:miter;stroke-opacity:1"/>
<path class="bond-5 atom-5 atom-6" d="M 430.0,310.3 L 387.4,349.2" style="fill:none;fill-rule:evenodd;stroke:#191919;stroke-width:2.0px;stroke-linecap:butt;stroke-linejoin:miter;stroke-opacity:1"/>
<path class="bond-6 atom-5 atom-7" d="M 472.7,271.5 L 444.9,144.3" style="fill:none;fill-rule:evenodd;stroke:#000000;stroke-width:2.0px;stroke-linecap:butt;stroke-linejoin:miter;stroke-opacity:1"/>
<path class="bond-7 atom-7 atom-8" d="M 447.3,155.3 L 488.9,117.4" style="fill:none;fill-rule:evenodd;stroke:#000000;stroke-width:2.0px;stroke-linecap:butt;stroke-linejoin:miter;stroke-opacity:1"/>
<path class="bond-7 atom-7 atom-8" d="M 488.9,117.4 L 530.5,79.5" style="fill:none;fill-rule:evenodd;stroke:#FF0000;stroke-width:2.0px;stroke-linecap:butt;stroke-linejoin:miter;stroke-opacity:1"/>
<path class="bond-7 atom-7 atom-8" d="M 434.1,140.8 L 475.7,103.0" style="fill:none;fill-rule:evenodd;stroke:#000000;stroke-width:2.0px;stroke-linecap:butt;stroke-linejoin:miter;stroke-opacity:1"/>
<path class="bond-7 atom-7 atom-8" d="M 475.7,103.0 L 517.3,65.1" style="fill:none;fill-rule:evenodd;stroke:#FF0000;stroke-width:2.0px;stroke-linecap:butt;stroke-linejoin:miter;stroke-opacity:1"/>
<path class="bond-8 atom-7 atom-9" d="M 444.9,144.3 L 391.5,127.2" style="fill:none;fill-rule:evenodd;stroke:#000000;stroke-width:2.0px;stroke-linecap:butt;stroke-linejoin:miter;stroke-opacity:1"/>
<path class="bond-8 atom-7 atom-9" d="M 391.5,127.2 L 338.1,110.2" style="fill:none;fill-rule:evenodd;stroke:#FF0000;stroke-width:2.0px;stroke-linecap:butt;stroke-linejoin:miter;stroke-opacity:1"/>
<path d="M 695.8,224.2 L 693.1,223.4 L 688.3,227.8" style="fill:none;stroke:#000000;stroke-width:2.0px;stroke-linecap:butt;stroke-linejoin:miter;stroke-opacity:1;"/>
<path d="M 601.6,306.7 L 596.8,311.1 L 590.6,309.1" style="fill:none;stroke:#000000;stroke-width:2.0px;stroke-linecap:butt;stroke-linejoin:miter;stroke-opacity:1;"/>
<path d="M 446.3,150.6 L 444.9,144.3 L 442.2,143.4" style="fill:none;stroke:#000000;stroke-width:2.0px;stroke-linecap:butt;stroke-linejoin:miter;stroke-opacity:1;"/>
<path class="atom-0" d="M 908.1 172.1 L 912.3 167.8 L 906.8 166.7 L 907.6 163.9 L 912.7 166.4 L 912.0 160.9 L 915.0 160.8 L 914.1 166.4 L 919.3 164.0 L 920.2 166.7 L 914.6 167.8 L 918.6 172.0 L 916.1 173.8 L 913.4 168.5 L 910.6 173.8 L 908.1 172.1 " fill="#191919"/>
<path class="atom-1" d="M 810.9 248.8 L 820.2 263.8 Q 821.1 265.2, 822.6 267.9 Q 824.1 270.6, 824.1 270.8 L 824.1 248.8 L 827.9 248.8 L 827.9 277.1 L 824.0 277.1 L 814.1 260.7 Q 812.9 258.8, 811.7 256.6 Q 810.5 254.4, 810.1 253.7 L 810.1 277.1 L 806.4 277.1 L 806.4 248.8 L 810.9 248.8 " fill="#0000FF"/>
<path class="atom-1" d="M 806.1 279.9 L 809.9 279.9 L 809.9 292.0 L 824.4 292.0 L 824.4 279.9 L 828.2 279.9 L 828.2 308.2 L 824.4 308.2 L 824.4 295.2 L 809.9 295.2 L 809.9 308.2 L 806.1 308.2 L 806.1 279.9 " fill="#0000FF"/>
<path class="atom-3" d="M 652.3 96.2 Q 652.3 89.4, 655.6 85.6 Q 659.0 81.8, 665.3 81.8 Q 671.6 81.8, 674.9 85.6 Q 678.3 89.4, 678.3 96.2 Q 678.3 103.1, 674.9 107.0 Q 671.5 110.9, 665.3 110.9 Q 659.0 110.9, 655.6 107.0 Q 652.3 103.1, 652.3 96.2 M 665.3 107.7 Q 669.6 107.7, 671.9 104.8 Q 674.3 101.9, 674.3 96.2 Q 674.3 90.6, 671.9 87.8 Q 669.6 85.0, 665.3 85.0 Q 661.0 85.0, 658.6 87.8 Q 656.3 90.6, 656.3 96.2 Q 656.3 101.9, 658.6 104.8 Q 661.0 107.7, 665.3 107.7 " fill="#FF0000"/>
<path class="atom-6" d="M 371.0 356.0 L 375.2 351.8 L 369.7 350.7 L 370.5 347.8 L 375.6 350.4 L 374.9 344.8 L 377.9 344.8 L 377.0 350.3 L 382.2 347.9 L 383.1 350.7 L 377.5 351.7 L 381.5 356.0 L 379.0 357.7 L 376.3 352.5 L 373.5 357.7 L 371.0 356.0 " fill="#191919"/>
<path class="atom-8" d="M 528.2 56.7 Q 528.2 49.9, 531.6 46.1 Q 534.9 42.3, 541.2 42.3 Q 547.5 42.3, 550.8 46.1 Q 554.2 49.9, 554.2 56.7 Q 554.2 63.5, 550.8 67.5 Q 547.4 71.3, 541.2 71.3 Q 535.0 71.3, 531.6 67.5 Q 528.2 63.6, 528.2 56.7 M 541.2 68.1 Q 545.5 68.1, 547.8 65.3 Q 550.2 62.3, 550.2 56.7 Q 550.2 51.1, 547.8 48.3 Q 545.5 45.5, 541.2 45.5 Q 536.9 45.5, 534.5 48.3 Q 532.2 51.1, 532.2 56.7 Q 532.2 62.4, 534.5 65.3 Q 536.9 68.1, 541.2 68.1 " fill="#FF0000"/>
<path class="atom-9" d="M 279.8 90.7 L 283.7 90.7 L 283.7 102.7 L 298.2 102.7 L 298.2 90.7 L 302.0 90.7 L 302.0 119.0 L 298.2 119.0 L 298.2 105.9 L 283.7 105.9 L 283.7 119.0 L 279.8 119.0 L 279.8 90.7 " fill="#FF0000"/>
<path class="atom-9" d="M 307.8 104.8 Q 307.8 98.0, 311.2 94.2 Q 314.5 90.4, 320.8 90.4 Q 327.1 90.4, 330.4 94.2 Q 333.8 98.0, 333.8 104.8 Q 333.8 111.7, 330.4 115.6 Q 327.0 119.5, 320.8 119.5 Q 314.6 119.5, 311.2 115.6 Q 307.8 111.7, 307.8 104.8 M 320.8 116.3 Q 325.1 116.3, 327.4 113.4 Q 329.8 110.5, 329.8 104.8 Q 329.8 99.2, 327.4 96.4 Q 325.1 93.6, 320.8 93.6 Q 316.5 93.6, 314.1 96.4 Q 311.8 99.2, 311.8 104.8 Q 311.8 110.5, 314.1 113.4 Q 316.5 116.3, 320.8 116.3 " fill="#FF0000"/>
<path class="bond-0 atom-0 atom-1" d="M 335.4,516.7 L 394.7,522.7" style="fill:none;fill-rule:evenodd;stroke:#191919;stroke-width:2.0px;stroke-linecap:butt;stroke-linejoin:miter;stroke-opacity:1"/>
<path class="bond-0 atom-0 atom-1" d="M 394.7,522.7 L 454.0,528.7" style="fill:none;fill-rule:evenodd;stroke:#000000;stroke-width:2.0px;stroke-linecap:butt;stroke-linejoin:miter;stroke-opacity:1"/>
<path class="bond-1 atom-1 atom-2" d="M 454.0,528.7 L 507.4,647.5" style="fill:none;fill-rule:evenodd;stroke:#000000;stroke-width:2.0px;stroke-linecap:butt;stroke-linejoin:miter;stroke-opacity:1"/>
<path class="bond-2 atom-2 atom-3" d="M 502.7,637.2 L 469.7,683.0" style="fill:none;fill-rule:evenodd;stroke:#000000;stroke-width:2.0px;stroke-linecap:butt;stroke-linejoin:miter;stroke-opacity:1"/>
<path class="bond-2 atom-2 atom-3" d="M 469.7,683.0 L 436.7,728.8" style="fill:none;fill-rule:evenodd;stroke:#FF0000;stroke-width:2.0px;stroke-linecap:butt;stroke-linejoin:miter;stroke-opacity:1"/>
<path class="bond-2 atom-2 atom-3" d="M 518.6,648.7 L 485.6,694.4" style="fill:none;fill-rule:evenodd;stroke:#000000;stroke-width:2.0px;stroke-linecap:butt;stroke-linejoin:miter;stroke-opacity:1"/>
<path class="bond-2 atom-2 atom-3" d="M 485.6,694.4 L 452.5,740.2" style="fill:none;fill-rule:evenodd;stroke:#FF0000;stroke-width:2.0px;stroke-linecap:butt;stroke-linejoin:miter;stroke-opacity:1"/>
<path class="bond-3 atom-2 atom-4" d="M 507.4,647.5 L 636.9,660.7" style="fill:none;fill-rule:evenodd;stroke:#000000;stroke-width:2.0px;stroke-linecap:butt;stroke-linejoin:miter;stroke-opacity:1"/>
<path class="bond-4 atom-4 atom-5" d="M 636.9,660.7 L 659.4,710.7" style="fill:none;fill-rule:evenodd;stroke:#000000;stroke-width:2.0px;stroke-linecap:butt;stroke-linejoin:miter;stroke-opacity:1"/>
<path class="bond-4 atom-4 atom-5" d="M 659.4,710.7 L 681.9,760.8" style="fill:none;fill-rule:evenodd;stroke:#191919;stroke-width:2.0px;stroke-linecap:butt;stroke-linejoin:miter;stroke-opacity:1"/>
<path class="bond-5 atom-4 atom-6" d="M 636.9,660.7 L 713.1,555.1" style="fill:none;fill-rule:evenodd;stroke:#000000;stroke-width:2.0px;stroke-linecap:butt;stroke-linejoin:miter;stroke-opacity:1"/>
<path class="bond-6 atom-6 atom-7" d="M 724.4,556.2 L 700.8,503.8" style="fill:none;fill-rule:evenodd;stroke:#000000;stroke-width:2.0px;stroke-linecap:butt;stroke-linejoin:miter;stroke-opacity:1"/>
<path class="bond-6 atom-6 atom-7" d="M 700.8,503.8 L 677.2,451.3" style="fill:none;fill-rule:evenodd;stroke:#FF0000;stroke-width:2.0px;stroke-linecap:butt;stroke-linejoin:miter;stroke-opacity:1"/>
<path class="bond-6 atom-6 atom-7" d="M 706.5,564.2 L 683.0,511.8" style="fill:none;fill-rule:evenodd;stroke:#000000;stroke-width:2.0px;stroke-linecap:butt;stroke-linejoin:miter;stroke-opacity:1"/>
<path class="bond-6 atom-6 atom-7" d="M 683.0,511.8 L 659.4,459.3" style="fill:none;fill-rule:evenodd;stroke:#FF0000;stroke-width:2.0px;stroke-linecap:butt;stroke-linejoin:miter;stroke-opacity:1"/>
<path class="bond-7 atom-6 atom-8" d="M 713.1,555.1 L 769.3,560.8" style="fill:none;fill-rule:evenodd;stroke:#000000;stroke-width:2.0px;stroke-linecap:butt;stroke-linejoin:miter;stroke-opacity:1"/>
<path class="bond-7 atom-6 atom-8" d="M 769.3,560.8 L 825.4,566.5" style="fill:none;fill-rule:evenodd;stroke:#FF0000;stroke-width:2.0px;stroke-linecap:butt;stroke-linejoin:miter;stroke-opacity:1"/>
<path d="M 451.0,528.4 L 454.0,528.7 L 456.7,534.7" style="fill:none;stroke:#000000;stroke-width:2.0px;stroke-linecap:butt;stroke-linejoin:miter;stroke-opacity:1;"/>
<path d="M 504.7,641.6 L 507.4,647.5 L 513.8,648.2" style="fill:none;stroke:#000000;stroke-width:2.0px;stroke-linecap:butt;stroke-linejoin:miter;stroke-opacity:1;"/>
<path d="M 709.3,560.3 L 713.1,555.1 L 715.9,555.4" style="fill:none;stroke:#000000;stroke-width:2.0px;stroke-linecap:butt;stroke-linejoin:miter;stroke-opacity:1;"/>
<path class="atom-0" d="M 319.1 512.4 L 323.2 508.1 L 317.7 507.0 L 318.6 504.2 L 323.6 506.7 L 322.9 501.2 L 325.9 501.1 L 325.1 506.7 L 330.2 504.3 L 331.1 507.0 L 325.5 508.1 L 329.5 512.3 L 327.1 514.1 L 324.3 508.8 L 321.5 514.1 L 319.1 512.4 " fill="#191919"/>
<path class="atom-3" d="M 418.2 753.2 Q 418.2 746.4, 421.5 742.6 Q 424.9 738.8, 431.2 738.8 Q 437.5 738.8, 440.8 742.6 Q 444.2 746.4, 444.2 753.2 Q 444.2 760.1, 440.8 764.0 Q 437.4 767.9, 431.2 767.9 Q 424.9 767.9, 421.5 764.0 Q 418.2 760.1, 418.2 753.2 M 431.2 764.7 Q 435.5 764.7, 437.8 761.8 Q 440.2 758.9, 440.2 753.2 Q 440.2 747.7, 437.8 744.9 Q 435.5 742.0, 431.2 742.0 Q 426.9 742.0, 424.5 744.8 Q 422.2 747.6, 422.2 753.2 Q 422.2 758.9, 424.5 761.8 Q 426.9 764.7, 431.2 764.7 " fill="#FF0000"/>
<path class="atom-5" d="M 685.0 776.3 L 689.1 772.1 L 683.6 771.0 L 684.5 768.1 L 689.5 770.7 L 688.8 765.1 L 691.8 765.1 L 691.0 770.7 L 696.1 768.3 L 697.0 771.0 L 691.4 772.0 L 695.4 776.3 L 693.0 778.1 L 690.2 772.8 L 687.4 778.1 L 685.0 776.3 " fill="#191919"/>
<path class="atom-7" d="M 646.8 436.3 Q 646.8 429.5, 650.1 425.7 Q 653.5 421.9, 659.8 421.9 Q 666.0 421.9, 669.4 425.7 Q 672.8 429.5, 672.8 436.3 Q 672.8 443.2, 669.4 447.1 Q 666.0 451.0, 659.8 451.0 Q 653.5 451.0, 650.1 447.1 Q 646.8 443.3, 646.8 436.3 M 659.8 447.8 Q 664.1 447.8, 666.4 444.9 Q 668.8 442.0, 668.8 436.3 Q 668.8 430.8, 666.4 428.0 Q 664.1 425.1, 659.8 425.1 Q 655.4 425.1, 653.1 427.9 Q 650.8 430.7, 650.8 436.3 Q 650.8 442.1, 653.1 444.9 Q 655.4 447.8, 659.8 447.8 " fill="#FF0000"/>
<path class="atom-8" d="M 829.7 568.3 Q 829.7 561.5, 833.1 557.7 Q 836.4 553.9, 842.7 553.9 Q 849.0 553.9, 852.3 557.7 Q 855.7 561.5, 855.7 568.3 Q 855.7 575.2, 852.3 579.1 Q 848.9 583.0, 842.7 583.0 Q 836.5 583.0, 833.1 579.1 Q 829.7 575.2, 829.7 568.3 M 842.7 579.8 Q 847.0 579.8, 849.3 576.9 Q 851.7 574.0, 851.7 568.3 Q 851.7 562.8, 849.3 560.0 Q 847.0 557.1, 842.7 557.1 Q 838.4 557.1, 836.0 559.9 Q 833.7 562.7, 833.7 568.3 Q 833.7 574.0, 836.0 576.9 Q 838.4 579.8, 842.7 579.8 " fill="#FF0000"/>
<path class="atom-8" d="M 860.1 554.2 L 864.0 554.2 L 864.0 566.3 L 878.4 566.3 L 878.4 554.2 L 882.3 554.2 L 882.3 582.6 L 878.4 582.6 L 878.4 569.5 L 864.0 569.5 L 864.0 582.6 L 860.1 582.6 L 860.1 554.2 " fill="#FF0000"/>
</svg>