<svg xmlns="http://www.w3.org/2000/svg" xmlns:rdkit="http://www.rdkit.org/xml" xmlns:xlink="http://www.w3.org/1999/xlink" version="1.1" baseProfile="full" xml:space="preserve" width="1200px" height="800px" viewBox="0 0 1200 800">
<!-- END OF HEADER -->
<rect style="opacity:1.0;fill:#FFFFFF;stroke:none" width="1200.0" height="800.0" x="0.0" y="0.0"> </rect>
<path class="bond-0 atom-0 atom-1" d="M 863.1,39.3 L 874.8,91.6" style="fill:none;fill-rule:evenodd;stroke:#191919;stroke-width:2.0px;stroke-linecap:butt;stroke-linejoin:miter;stroke-opacity:1"/>
<path class="bond-0 atom-0 atom-1" d="M 874.8,91.6 L 886.5,143.8" style="fill:none;fill-rule:evenodd;stroke:#FF0000;stroke-width:2.0px;stroke-linecap:butt;stroke-linejoin:miter;stroke-opacity:1"/>
<path class="bond-1 atom-1 atom-2" d="M 873.4,178.3 L 834.6,214.1" style="fill:none;fill-rule:evenodd;stroke:#FF0000;stroke-width:2.0px;stroke-linecap:butt;stroke-linejoin:miter;stroke-opacity:1"/>
<path class="bond-1 atom-1 atom-2" d="M 834.6,214.1 L 795.8,249.9" style="fill:none;fill-rule:evenodd;stroke:#000000;stroke-width:2.0px;stroke-linecap:butt;stroke-linejoin:miter;stroke-opacity:1"/>
<path class="bond-2 atom-2 atom-3" d="M 795.8,249.9 L 833.4,373.7 L 814.6,377.9 Z" style="fill:#000000;fill-rule:evenodd;fill-opacity:1;stroke:#000000;stroke-width:0.5px;stroke-linecap:butt;stroke-linejoin:miter;stroke-opacity:1;"/>
<path class="bond-3 atom-2 atom-4" d="M 795.8,249.9 L 672.6,211.4" style="fill:none;fill-rule:evenodd;stroke:#000000;stroke-width:2.0px;stroke-linecap:butt;stroke-linejoin:miter;stroke-opacity:1"/>
<path class="bond-4 atom-4 atom-5" d="M 683.2,214.7 L 670.6,158.5" style="fill:none;fill-rule:evenodd;stroke:#000000;stroke-width:2.0px;stroke-linecap:butt;stroke-linejoin:miter;stroke-opacity:1"/>
<path class="bond-4 atom-4 atom-5" d="M 670.6,158.5 L 658.0,102.3" style="fill:none;fill-rule:evenodd;stroke:#FF0000;stroke-width:2.0px;stroke-linecap:butt;stroke-linejoin:miter;stroke-opacity:1"/>
<path class="bond-4 atom-4 atom-5" d="M 664.3,218.9 L 651.7,162.7" style="fill:none;fill-rule:evenodd;stroke:#000000;stroke-width:2.0px;stroke-linecap:butt;stroke-linejoin:miter;stroke-opacity:1"/>
<path class="bond-4 atom-4 atom-5" d="M 651.7,162.7 L 639.1,106.6" style="fill:none;fill-rule:evenodd;stroke:#FF0000;stroke-width:2.0px;stroke-linecap:butt;stroke-linejoin:miter;stroke-opacity:1"/>
<path class="bond-5 atom-4 atom-6" d="M 672.6,211.4 L 633.7,247.1" style="fill:none;fill-rule:evenodd;stroke:#000000;stroke-width:2.0px;stroke-linecap:butt;stroke-linejoin:miter;stroke-opacity:1"/>
<path class="bond-5 atom-4 atom-6" d="M 633.7,247.1 L 594.9,282.9" style="fill:none;fill-rule:evenodd;stroke:#FF0000;stroke-width:2.0px;stroke-linecap:butt;stroke-linejoin:miter;stroke-opacity:1"/>
<path class="bond-6 atom-6 atom-7" d="M 560.4,293.4 L 507.4,276.8" style="fill:none;fill-rule:evenodd;stroke:#FF0000;stroke-width:2.0px;stroke-linecap:butt;stroke-linejoin:miter;stroke-opacity:1"/>
<path class="bond-6 atom-6 atom-7" d="M 507.4,276.8 L 454.4,260.3" style="fill:none;fill-rule:evenodd;stroke:#000000;stroke-width:2.0px;stroke-linecap:butt;stroke-linejoin:miter;stroke-opacity:1"/>
<path class="bond-7 atom-7 atom-8" d="M 452.1,262.8 L 451.7,262.4" style="fill:none;fill-rule:evenodd;stroke:#000000;stroke-width:1.0px;stroke-linecap:butt;stroke-linejoin:miter;stroke-opacity:1"/>
<path class="bond-7 atom-7 atom-8" d="M 449.7,265.4 L 449.0,264.6" style="fill:none;fill-rule:evenodd;stroke:#000000;stroke-width:1.0px;stroke-linecap:butt;stroke-linejoin:miter;stroke-opacity:1"/>
<path class="bond-7 atom-7 atom-8" d="M 447.3,267.9 L 446.2,266.8" style="fill:none;fill-rule:evenodd;stroke:#000000;stroke-width:1.0px;stroke-linecap:butt;stroke-linejoin:miter;stroke-opacity:1"/>
<path class="bond-7 atom-7 atom-8" d="M 444.9,270.5 L 443.5,269.0" style="fill:none;fill-rule:evenodd;stroke:#000000;stroke-width:1.0px;stroke-linecap:butt;stroke-linejoin:miter;stroke-opacity:1"/>
<path class="bond-7 atom-7 atom-8" d="M 442.5,273.1 L 440.7,271.1" style="fill:none;fill-rule:evenodd;stroke:#000000;stroke-width:1.0px;stroke-linecap:butt;stroke-linejoin:miter;stroke-opacity:1"/>
<path class="bond-7 atom-7 atom-8" d="M 440.1,275.6 L 438.0,273.3" style="fill:none;fill-rule:evenodd;stroke:#000000;stroke-width:1.0px;stroke-linecap:butt;stroke-linejoin:miter;stroke-opacity:1"/>
<path class="bond-7 atom-7 atom-8" d="M 437.7,278.2 L 435.2,275.5" style="fill:none;fill-rule:evenodd;stroke:#000000;stroke-width:1.0px;stroke-linecap:butt;stroke-linejoin:miter;stroke-opacity:1"/>
<path class="bond-7 atom-7 atom-8" d="M 435.3,280.7 L 432.5,277.6" style="fill:none;fill-rule:evenodd;stroke:#000000;stroke-width:1.0px;stroke-linecap:butt;stroke-linejoin:miter;stroke-opacity:1"/>
<path class="bond-7 atom-7 atom-8" d="M 432.9,283.3 L 429.8,279.8" style="fill:none;fill-rule:evenodd;stroke:#000000;stroke-width:1.0px;stroke-linecap:butt;stroke-linejoin:miter;stroke-opacity:1"/>
<path class="bond-7 atom-7 atom-8" d="M 430.6,285.8 L 427.0,282.0" style="fill:none;fill-rule:evenodd;stroke:#000000;stroke-width:1.0px;stroke-linecap:butt;stroke-linejoin:miter;stroke-opacity:1"/>
<path class="bond-7 atom-7 atom-8" d="M 428.2,288.4 L 424.3,284.2" style="fill:none;fill-rule:evenodd;stroke:#000000;stroke-width:1.0px;stroke-linecap:butt;stroke-linejoin:miter;stroke-opacity:1"/>
<path class="bond-7 atom-7 atom-8" d="M 425.8,290.9 L 421.5,286.3" style="fill:none;fill-rule:evenodd;stroke:#000000;stroke-width:1.0px;stroke-linecap:butt;stroke-linejoin:miter;stroke-opacity:1"/>
<path class="bond-7 atom-7 atom-8" d="M 423.4,293.5 L 418.8,288.5" style="fill:none;fill-rule:evenodd;stroke:#000000;stroke-width:1.0px;stroke-linecap:butt;stroke-linejoin:miter;stroke-opacity:1"/>
<path class="bond-7 atom-7 atom-8" d="M 421.0,296.1 L 416.0,290.7" style="fill:none;fill-rule:evenodd;stroke:#000000;stroke-width:1.0px;stroke-linecap:butt;stroke-linejoin:miter;stroke-opacity:1"/>
<path class="bond-7 atom-7 atom-8" d="M 418.6,298.6 L 413.3,292.8" style="fill:none;fill-rule:evenodd;stroke:#000000;stroke-width:1.0px;stroke-linecap:butt;stroke-linejoin:miter;stroke-opacity:1"/>
<path class="bond-7 atom-7 atom-8" d="M 416.2,301.2 L 410.6,295.0" style="fill:none;fill-rule:evenodd;stroke:#000000;stroke-width:1.0px;stroke-linecap:butt;stroke-linejoin:miter;stroke-opacity:1"/>
<path class="bond-7 atom-7 atom-8" d="M 413.8,303.7 L 407.8,297.2" style="fill:none;fill-rule:evenodd;stroke:#000000;stroke-width:1.0px;stroke-linecap:butt;stroke-linejoin:miter;stroke-opacity:1"/>
<path class="bond-7 atom-7 atom-8" d="M 411.4,306.3 L 405.1,299.3" style="fill:none;fill-rule:evenodd;stroke:#000000;stroke-width:1.0px;stroke-linecap:butt;stroke-linejoin:miter;stroke-opacity:1"/>
<path class="bond-7 atom-7 atom-8" d="M 409.1,308.8 L 402.3,301.5" style="fill:none;fill-rule:evenodd;stroke:#000000;stroke-width:1.0px;stroke-linecap:butt;stroke-linejoin:miter;stroke-opacity:1"/>
<path class="bond-7 atom-7 atom-8" d="M 406.7,311.4 L 399.6,303.7" style="fill:none;fill-rule:evenodd;stroke:#000000;stroke-width:1.0px;stroke-linecap:butt;stroke-linejoin:miter;stroke-opacity:1"/>
<path class="bond-7 atom-7 atom-8" d="M 404.3,313.9 L 396.8,305.9" style="fill:none;fill-rule:evenodd;stroke:#000000;stroke-width:1.0px;stroke-linecap:butt;stroke-linejoin:miter;stroke-opacity:1"/>
<path class="bond-7 atom-7 atom-8" d="M 401.9,316.5 L 394.1,308.0" style="fill:none;fill-rule:evenodd;stroke:#000000;stroke-width:1.0px;stroke-linecap:butt;stroke-linejoin:miter;stroke-opacity:1"/>
<path class="bond-7 atom-7 atom-8" d="M 399.5,319.1 L 391.4,310.2" style="fill:none;fill-rule:evenodd;stroke:#000000;stroke-width:1.0px;stroke-linecap:butt;stroke-linejoin:miter;stroke-opacity:1"/>
<path class="bond-7 atom-7 atom-8" d="M 397.1,321.6 L 388.6,312.4" style="fill:none;fill-rule:evenodd;stroke:#000000;stroke-width:1.0px;stroke-linecap:butt;stroke-linejoin:miter;stroke-opacity:1"/>
<path class="bond-7 atom-7 atom-8" d="M 394.7,324.2 L 385.9,314.5" style="fill:none;fill-rule:evenodd;stroke:#000000;stroke-width:1.0px;stroke-linecap:butt;stroke-linejoin:miter;stroke-opacity:1"/>
<path class="bond-7 atom-7 atom-8" d="M 392.3,326.7 L 383.1,316.7" style="fill:none;fill-rule:evenodd;stroke:#000000;stroke-width:1.0px;stroke-linecap:butt;stroke-linejoin:miter;stroke-opacity:1"/>
<path class="bond-7 atom-7 atom-8" d="M 389.9,329.3 L 380.4,318.9" style="fill:none;fill-rule:evenodd;stroke:#000000;stroke-width:1.0px;stroke-linecap:butt;stroke-linejoin:miter;stroke-opacity:1"/>
<path class="bond-7 atom-7 atom-8" d="M 387.6,331.8 L 377.6,321.1" style="fill:none;fill-rule:evenodd;stroke:#000000;stroke-width:1.0px;stroke-linecap:butt;stroke-linejoin:miter;stroke-opacity:1"/>
<path class="bond-7 atom-7 atom-8" d="M 385.2,334.4 L 374.9,323.2" style="fill:none;fill-rule:evenodd;stroke:#000000;stroke-width:1.0px;stroke-linecap:butt;stroke-linejoin:miter;stroke-opacity:1"/>
<path class="bond-7 atom-7 atom-8" d="M 382.8,336.9 L 372.2,325.4" style="fill:none;fill-rule:evenodd;stroke:#000000;stroke-width:1.0px;stroke-linecap:butt;stroke-linejoin:miter;stroke-opacity:1"/>
<path class="bond-7 atom-7 atom-8" d="M 380.4,339.5 L 369.4,327.6" style="fill:none;fill-rule:evenodd;stroke:#000000;stroke-width:1.0px;stroke-linecap:butt;stroke-linejoin:miter;stroke-opacity:1"/>
<path class="bond-7 atom-7 atom-8" d="M 378.0,342.1 L 366.7,329.7" style="fill:none;fill-rule:evenodd;stroke:#000000;stroke-width:1.0px;stroke-linecap:butt;stroke-linejoin:miter;stroke-opacity:1"/>
<path class="bond-7 atom-7 atom-8" d="M 375.6,344.6 L 363.9,331.9" style="fill:none;fill-rule:evenodd;stroke:#000000;stroke-width:1.0px;stroke-linecap:butt;stroke-linejoin:miter;stroke-opacity:1"/>
<path class="bond-7 atom-7 atom-8" d="M 373.2,347.2 L 361.2,334.1" style="fill:none;fill-rule:evenodd;stroke:#000000;stroke-width:1.0px;stroke-linecap:butt;stroke-linejoin:miter;stroke-opacity:1"/>
<path class="bond-7 atom-7 atom-8" d="M 370.8,349.7 L 358.4,336.2" style="fill:none;fill-rule:evenodd;stroke:#000000;stroke-width:1.0px;stroke-linecap:butt;stroke-linejoin:miter;stroke-opacity:1"/>
<path class="bond-7 atom-7 atom-8" d="M 368.5,352.3 L 355.7,338.4" style="fill:none;fill-rule:evenodd;stroke:#000000;stroke-width:1.0px;stroke-linecap:butt;stroke-linejoin:miter;stroke-opacity:1"/>
<path class="bond-7 atom-7 atom-8" d="M 366.1,354.8 L 352.9,340.6" style="fill:none;fill-rule:evenodd;stroke:#000000;stroke-width:1.0px;stroke-linecap:butt;stroke-linejoin:miter;stroke-opacity:1"/>
<path class="bond-8 atom-7 atom-9" d="M 454.4,260.3 L 426.2,134.3" style="fill:none;fill-rule:evenodd;stroke:#000000;stroke-width:2.0px;stroke-linecap:butt;stroke-linejoin:miter;stroke-opacity:1"/>
<path class="bond-9 atom-9 atom-10" d="M 426.2,134.3 L 369.1,116.5" style="fill:none;fill-rule:evenodd;stroke:#000000;stroke-width:2.0px;stroke-linecap:butt;stroke-linejoin:miter;stroke-opacity:1"/>
<path class="bond-9 atom-9 atom-10" d="M 369.1,116.5 L 312.0,98.7" style="fill:none;fill-rule:evenodd;stroke:#191919;stroke-width:2.0px;stroke-linecap:butt;stroke-linejoin:miter;stroke-opacity:1"/>
<path class="bond-10 atom-9 atom-11" d="M 428.6,145.3 L 469.5,107.6" style="fill:none;fill-rule:evenodd;stroke:#000000;stroke-width:2.0px;stroke-linecap:butt;stroke-linejoin:miter;stroke-opacity:1"/>
<path class="bond-10 atom-9 atom-11" d="M 469.5,107.6 L 510.4,69.9" style="fill:none;fill-rule:evenodd;stroke:#FF0000;stroke-width:2.0px;stroke-linecap:butt;stroke-linejoin:miter;stroke-opacity:1"/>
<path class="bond-10 atom-9 atom-11" d="M 415.5,131.0 L 456.4,93.3" style="fill:none;fill-rule:evenodd;stroke:#000000;stroke-width:2.0px;stroke-linecap:butt;stroke-linejoin:miter;stroke-opacity:1"/>
<path class="bond-10 atom-9 atom-11" d="M 456.4,93.3 L 497.3,55.7" style="fill:none;fill-rule:evenodd;stroke:#FF0000;stroke-width:2.0px;stroke-linecap:butt;stroke-linejoin:miter;stroke-opacity:1"/>
<path d="M 797.7,248.1 L 795.8,249.9 L 789.6,247.9" style="fill:none;stroke:#000000;stroke-width:2.0px;stroke-linecap:butt;stroke-linejoin:miter;stroke-opacity:1;"/>
<path d="M 678.7,213.3 L 672.6,211.4 L 670.6,213.1" style="fill:none;stroke:#000000;stroke-width:2.0px;stroke-linecap:butt;stroke-linejoin:miter;stroke-opacity:1;"/>
<path d="M 457.1,261.1 L 454.4,260.3 L 453.0,254.0" style="fill:none;stroke:#000000;stroke-width:2.0px;stroke-linecap:butt;stroke-linejoin:miter;stroke-opacity:1;"/>
<path d="M 427.6,140.6 L 426.2,134.3 L 423.3,133.5" style="fill:none;stroke:#000000;stroke-width:2.0px;stroke-linecap:butt;stroke-linejoin:miter;stroke-opacity:1;"/>
<path class="atom-0" d="M 857.1 33.3 L 861.3 29.1 L 855.7 28.0 L 856.6 25.1 L 861.7 27.7 L 860.9 22.1 L 863.9 22.1 L 863.1 27.7 L 868.3 25.3 L 869.1 28.0 L 863.5 29.0 L 867.5 33.3 L 865.1 35.1 L 862.3 29.8 L 859.5 35.1 L 857.1 33.3 " fill="#191919"/>
<path class="atom-1" d="M 877.7 162.5 Q 877.7 155.7, 881.0 151.9 Q 884.4 148.1, 890.7 148.1 Q 897.0 148.1, 900.3 151.9 Q 903.7 155.7, 903.7 162.5 Q 903.7 169.4, 900.3 173.3 Q 896.9 177.2, 890.7 177.2 Q 884.4 177.2, 881.0 173.3 Q 877.7 169.4, 877.7 162.5 M 890.7 174.0 Q 895.0 174.0, 897.3 171.1 Q 899.7 168.2, 899.7 162.5 Q 899.7 156.9, 897.3 154.1 Q 895.0 151.3, 890.7 151.3 Q 886.4 151.3, 884.0 154.1 Q 881.7 156.9, 881.7 162.5 Q 881.7 168.2, 884.0 171.1 Q 886.4 174.0, 890.7 174.0 " fill="#FF0000"/>
<path class="atom-5" d="M 631.3 85.5 Q 631.3 78.7, 634.7 74.9 Q 638.0 71.1, 644.3 71.1 Q 650.6 71.1, 654.0 74.9 Q 657.3 78.7, 657.3 85.5 Q 657.3 92.4, 653.9 96.3 Q 650.5 100.2, 644.3 100.2 Q 638.1 100.2, 634.7 96.3 Q 631.3 92.4, 631.3 85.5 M 644.3 97.0 Q 648.6 97.0, 651.0 94.1 Q 653.3 91.2, 653.3 85.5 Q 653.3 79.9, 651.0 77.1 Q 648.6 74.3, 644.3 74.3 Q 640.0 74.3, 637.6 77.1 Q 635.3 79.9, 635.3 85.5 Q 635.3 91.2, 637.6 94.1 Q 640.0 97.0, 644.3 97.0 " fill="#FF0000"/>
<path class="atom-6" d="M 564.6 298.9 Q 564.6 292.1, 568.0 288.3 Q 571.3 284.5, 577.6 284.5 Q 583.9 284.5, 587.3 288.3 Q 590.6 292.1, 590.6 298.9 Q 590.6 305.7, 587.2 309.7 Q 583.8 313.5, 577.6 313.5 Q 571.4 313.5, 568.0 309.7 Q 564.6 305.8, 564.6 298.9 M 577.6 310.3 Q 581.9 310.3, 584.3 307.5 Q 586.6 304.5, 586.6 298.9 Q 586.6 293.3, 584.3 290.5 Q 581.9 287.7, 577.6 287.7 Q 573.3 287.7, 570.9 290.5 Q 568.6 293.3, 568.6 298.9 Q 568.6 304.6, 570.9 307.5 Q 573.3 310.3, 577.6 310.3 " fill="#FF0000"/>
<path class="atom-10" d="M 297.7 92.7 L 301.8 88.4 L 296.3 87.3 L 297.2 84.5 L 302.2 87.0 L 301.5 81.5 L 304.5 81.4 L 303.7 87.0 L 308.8 84.6 L 309.7 87.3 L 304.1 88.4 L 308.1 92.6 L 305.7 94.4 L 302.9 89.1 L 300.1 94.4 L 297.7 92.7 " fill="#191919"/>
<path class="atom-11" d="M 508.1 47.0 Q 508.1 40.2, 511.5 36.4 Q 514.9 32.6, 521.1 32.6 Q 527.4 32.6, 530.8 36.4 Q 534.1 40.2, 534.1 47.0 Q 534.1 53.9, 530.7 57.8 Q 527.3 61.7, 521.1 61.7 Q 514.9 61.7, 511.5 57.8 Q 508.1 53.9, 508.1 47.0 M 521.1 58.5 Q 525.5 58.5, 527.8 55.6 Q 530.1 52.7, 530.1 47.0 Q 530.1 41.4, 527.8 38.6 Q 525.5 35.8, 521.1 35.8 Q 516.8 35.8, 514.5 38.6 Q 512.1 41.4, 512.1 47.0 Q 512.1 52.7, 514.5 55.6 Q 516.8 58.5, 521.1 58.5 " fill="#FF0000"/>
<path class="bond-0 atom-0 atom-1" d="M 940.3,456.1 L 933.8,509.5" style="fill:none;fill-rule:evenodd;stroke:#191919;stroke-width:2.0px;stroke-linecap:butt;stroke-linejoin:miter;stroke-opacity:1"/>
<path class="bond-0 atom-0 atom-1" d="M 933.8,509.5 L 927.2,562.8" style="fill:none;fill-rule:evenodd;stroke:#FF0000;stroke-width:2.0px;stroke-linecap:butt;stroke-linejoin:miter;stroke-opacity:1"/>
<path class="bond-1 atom-1 atom-2" d="M 907.7,588.7 L 856.9,610.3" style="fill:none;fill-rule:evenodd;stroke:#FF0000;stroke-width:2.0px;stroke-linecap:butt;stroke-linejoin:miter;stroke-opacity:1"/>
<path class="bond-1 atom-1 atom-2" d="M 856.9,610.3 L 806.1,631.8" style="fill:none;fill-rule:evenodd;stroke:#000000;stroke-width:2.0px;stroke-linecap:butt;stroke-linejoin:miter;stroke-opacity:1"/>
<path class="bond-2 atom-2 atom-3" d="M 806.1,631.8 L 799.9,761.1 L 780.7,758.7 Z" style="fill:#000000;fill-rule:evenodd;fill-opacity:1;stroke:#000000;stroke-width:0.5px;stroke-linecap:butt;stroke-linejoin:miter;stroke-opacity:1;"/>
<path class="bond-3 atom-2 atom-4" d="M 806.1,631.8 L 703.0,554.1" style="fill:none;fill-rule:evenodd;stroke:#000000;stroke-width:2.0px;stroke-linecap:butt;stroke-linejoin:miter;stroke-opacity:1"/>
<path class="bond-4 atom-4 atom-5" d="M 703.0,554.1 L 584.2,604.5" style="fill:none;fill-rule:evenodd;stroke:#000000;stroke-width:2.0px;stroke-linecap:butt;stroke-linejoin:miter;stroke-opacity:1"/>
<path class="bond-5 atom-5 atom-6" d="M 584.2,604.5 L 541.3,572.1" style="fill:none;fill-rule:evenodd;stroke:#000000;stroke-width:2.0px;stroke-linecap:butt;stroke-linejoin:miter;stroke-opacity:1"/>
<path class="bond-5 atom-5 atom-6" d="M 541.3,572.1 L 498.4,539.8" style="fill:none;fill-rule:evenodd;stroke:#FF0000;stroke-width:2.0px;stroke-linecap:butt;stroke-linejoin:miter;stroke-opacity:1"/>
<path class="bond-6 atom-6 atom-7" d="M 463.9,534.1 L 413.1,555.6" style="fill:none;fill-rule:evenodd;stroke:#FF0000;stroke-width:2.0px;stroke-linecap:butt;stroke-linejoin:miter;stroke-opacity:1"/>
<path class="bond-6 atom-6 atom-7" d="M 413.1,555.6 L 362.4,577.2" style="fill:none;fill-rule:evenodd;stroke:#000000;stroke-width:2.0px;stroke-linecap:butt;stroke-linejoin:miter;stroke-opacity:1"/>
<path class="bond-7 atom-7 atom-8" d="M 362.4,577.2 L 312.7,539.7" style="fill:none;fill-rule:evenodd;stroke:#000000;stroke-width:2.0px;stroke-linecap:butt;stroke-linejoin:miter;stroke-opacity:1"/>
<path class="bond-7 atom-7 atom-8" d="M 312.7,539.7 L 263.1,502.3" style="fill:none;fill-rule:evenodd;stroke:#191919;stroke-width:2.0px;stroke-linecap:butt;stroke-linejoin:miter;stroke-opacity:1"/>
<path class="bond-8 atom-7 atom-9" d="M 353.4,570.4 L 346.4,628.0" style="fill:none;fill-rule:evenodd;stroke:#000000;stroke-width:2.0px;stroke-linecap:butt;stroke-linejoin:miter;stroke-opacity:1"/>
<path class="bond-8 atom-7 atom-9" d="M 346.4,628.0 L 339.3,685.5" style="fill:none;fill-rule:evenodd;stroke:#FF0000;stroke-width:2.0px;stroke-linecap:butt;stroke-linejoin:miter;stroke-opacity:1"/>
<path class="bond-8 atom-7 atom-9" d="M 372.6,572.8 L 365.6,630.3" style="fill:none;fill-rule:evenodd;stroke:#000000;stroke-width:2.0px;stroke-linecap:butt;stroke-linejoin:miter;stroke-opacity:1"/>
<path class="bond-8 atom-7 atom-9" d="M 365.6,630.3 L 358.5,687.9" style="fill:none;fill-rule:evenodd;stroke:#FF0000;stroke-width:2.0px;stroke-linecap:butt;stroke-linejoin:miter;stroke-opacity:1"/>
<path d="M 808.6,630.7 L 806.1,631.8 L 800.9,627.9" style="fill:none;stroke:#000000;stroke-width:2.0px;stroke-linecap:butt;stroke-linejoin:miter;stroke-opacity:1;"/>
<path d="M 708.2,558.0 L 703.0,554.1 L 697.1,556.6" style="fill:none;stroke:#000000;stroke-width:2.0px;stroke-linecap:butt;stroke-linejoin:miter;stroke-opacity:1;"/>
<path d="M 590.2,602.0 L 584.2,604.5 L 582.1,602.9" style="fill:none;stroke:#000000;stroke-width:2.0px;stroke-linecap:butt;stroke-linejoin:miter;stroke-opacity:1;"/>
<path d="M 364.9,576.1 L 362.4,577.2 L 359.9,575.3" style="fill:none;stroke:#000000;stroke-width:2.0px;stroke-linecap:butt;stroke-linejoin:miter;stroke-opacity:1;"/>
<path class="atom-0" d="M 935.3 450.2 L 939.5 445.9 L 934.0 444.8 L 934.8 442.0 L 939.9 444.5 L 939.2 439.0 L 942.2 438.9 L 941.3 444.5 L 946.5 442.1 L 947.4 444.8 L 941.8 445.8 L 945.8 450.1 L 943.3 451.9 L 940.6 446.6 L 937.8 451.9 L 935.3 450.2 " fill="#191919"/>
<path class="atom-1" d="M 911.9 581.5 Q 911.9 574.7, 915.3 570.9 Q 918.6 567.1, 924.9 567.1 Q 931.2 567.1, 934.6 570.9 Q 937.9 574.7, 937.9 581.5 Q 937.9 588.4, 934.5 592.3 Q 931.1 596.2, 924.9 596.2 Q 918.7 596.2, 915.3 592.3 Q 911.9 588.4, 911.9 581.5 M 924.9 593.0 Q 929.2 593.0, 931.6 590.1 Q 933.9 587.2, 933.9 581.5 Q 933.9 575.9, 931.6 573.1 Q 929.2 570.3, 924.9 570.3 Q 920.6 570.3, 918.2 573.1 Q 915.9 575.9, 915.9 581.5 Q 915.9 587.2, 918.2 590.1 Q 920.6 593.0, 924.9 593.0 " fill="#FF0000"/>
<path class="atom-6" d="M 468.2 526.9 Q 468.2 520.1, 471.5 516.3 Q 474.9 512.5, 481.2 512.5 Q 487.5 512.5, 490.8 516.3 Q 494.2 520.1, 494.2 526.9 Q 494.2 533.7, 490.8 537.7 Q 487.4 541.5, 481.2 541.5 Q 474.9 541.5, 471.5 537.7 Q 468.2 533.8, 468.2 526.9 M 481.2 538.3 Q 485.5 538.3, 487.8 535.5 Q 490.2 532.5, 490.2 526.9 Q 490.2 521.3, 487.8 518.5 Q 485.5 515.7, 481.2 515.7 Q 476.9 515.7, 474.5 518.5 Q 472.2 521.3, 472.2 526.9 Q 472.2 532.6, 474.5 535.5 Q 476.9 538.3, 481.2 538.3 " fill="#FF0000"/>
<path class="atom-8" d="M 254.0 496.3 L 258.1 492.0 L 252.6 490.9 L 253.5 488.1 L 258.5 490.6 L 257.8 485.1 L 260.8 485.0 L 260.0 490.6 L 265.1 488.2 L 266.0 490.9 L 260.4 492.0 L 264.4 496.2 L 262.0 498.0 L 259.2 492.7 L 256.4 498.0 L 254.0 496.3 " fill="#191919"/>
<path class="atom-9" d="M 333.6 705.3 Q 333.6 698.5, 336.9 694.7 Q 340.3 690.9, 346.6 690.9 Q 352.9 690.9, 356.2 694.7 Q 359.6 698.5, 359.6 705.3 Q 359.6 712.2, 356.2 716.1 Q 352.8 720.0, 346.6 720.0 Q 340.3 720.0, 336.9 716.1 Q 333.6 712.3, 333.6 705.3 M 346.6 716.8 Q 350.9 716.8, 353.2 713.9 Q 355.6 711.0, 355.6 705.3 Q 355.6 699.8, 353.2 697.0 Q 350.9 694.1, 346.6 694.1 Q 342.3 694.1, 339.9 696.9 Q 337.6 699.7, 337.6 705.3 Q 337.6 711.1, 339.9 713.9 Q 342.3 716.8, 346.6 716.8 " fill="#FF0000"/>
</svg>