<svg xmlns="http://www.w3.org/2000/svg" xmlns:rdkit="http://www.rdkit.org/xml" xmlns:xlink="http://www.w3.org/1999/xlink" version="1.1" baseProfile="full" xml:space="preserve" width="1200px" height="800px" viewBox="0 0 1200 800">
<!-- END OF HEADER -->
<rect style="opacity:1.0;fill:#FFFFFF;stroke:none" width="1200.0" height="800.0" x="0.0" y="0.0"> </rect>
<path class="bond-0 atom-0 atom-1" d="M 893.3,68.9 L 886.2,123.7" style="fill:none;fill-rule:evenodd;stroke:#191919;stroke-width:2.0px;stroke-linecap:butt;stroke-linejoin:miter;stroke-opacity:1"/>
<path class="bond-0 atom-0 atom-1" d="M 886.2,123.7 L 879.0,178.5" style="fill:none;fill-rule:evenodd;stroke:#FF0000;stroke-width:2.0px;stroke-linecap:butt;stroke-linejoin:miter;stroke-opacity:1"/>
<path class="bond-1 atom-1 atom-2" d="M 859.2,204.4 L 806.8,226.3" style="fill:none;fill-rule:evenodd;stroke:#FF0000;stroke-width:2.0px;stroke-linecap:butt;stroke-linejoin:miter;stroke-opacity:1"/>
<path class="bond-1 atom-1 atom-2" d="M 806.8,226.3 L 754.4,248.1" style="fill:none;fill-rule:evenodd;stroke:#000000;stroke-width:2.0px;stroke-linecap:butt;stroke-linejoin:miter;stroke-opacity:1"/>
<path class="bond-2 atom-2 atom-3" d="M 754.4,248.1 L 747.1,304.3" style="fill:none;fill-rule:evenodd;stroke:#000000;stroke-width:2.0px;stroke-linecap:butt;stroke-linejoin:miter;stroke-opacity:1"/>
<path class="bond-2 atom-2 atom-3" d="M 747.1,304.3 L 739.8,360.6" style="fill:none;fill-rule:evenodd;stroke:#191919;stroke-width:2.0px;stroke-linecap:butt;stroke-linejoin:miter;stroke-opacity:1"/>
<path class="bond-3 atom-2 atom-4" d="M 754.4,248.1 L 649.2,167.7" style="fill:none;fill-rule:evenodd;stroke:#000000;stroke-width:2.0px;stroke-linecap:butt;stroke-linejoin:miter;stroke-opacity:1"/>
<path class="bond-4 atom-4 atom-5" d="M 658.3,174.6 L 666.0,115.7" style="fill:none;fill-rule:evenodd;stroke:#000000;stroke-width:2.0px;stroke-linecap:butt;stroke-linejoin:miter;stroke-opacity:1"/>
<path class="bond-4 atom-4 atom-5" d="M 666.0,115.7 L 673.6,56.8" style="fill:none;fill-rule:evenodd;stroke:#FF0000;stroke-width:2.0px;stroke-linecap:butt;stroke-linejoin:miter;stroke-opacity:1"/>
<path class="bond-4 atom-4 atom-5" d="M 638.6,172.1 L 646.3,113.2" style="fill:none;fill-rule:evenodd;stroke:#000000;stroke-width:2.0px;stroke-linecap:butt;stroke-linejoin:miter;stroke-opacity:1"/>
<path class="bond-4 atom-4 atom-5" d="M 646.3,113.2 L 654.0,54.3" style="fill:none;fill-rule:evenodd;stroke:#FF0000;stroke-width:2.0px;stroke-linecap:butt;stroke-linejoin:miter;stroke-opacity:1"/>
<path class="bond-5 atom-4 atom-6" d="M 649.2,167.7 L 596.8,189.5" style="fill:none;fill-rule:evenodd;stroke:#000000;stroke-width:2.0px;stroke-linecap:butt;stroke-linejoin:miter;stroke-opacity:1"/>
<path class="bond-5 atom-4 atom-6" d="M 596.8,189.5 L 544.4,211.3" style="fill:none;fill-rule:evenodd;stroke:#FF0000;stroke-width:2.0px;stroke-linecap:butt;stroke-linejoin:miter;stroke-opacity:1"/>
<path class="bond-6 atom-6 atom-7" d="M 509.7,205.3 L 465.8,171.7" style="fill:none;fill-rule:evenodd;stroke:#FF0000;stroke-width:2.0px;stroke-linecap:butt;stroke-linejoin:miter;stroke-opacity:1"/>
<path class="bond-6 atom-6 atom-7" d="M 465.8,171.7 L 421.9,138.1" style="fill:none;fill-rule:evenodd;stroke:#000000;stroke-width:2.0px;stroke-linecap:butt;stroke-linejoin:miter;stroke-opacity:1"/>
<path class="bond-7 atom-7 atom-8" d="M 421.9,138.1 L 299.6,189.0" style="fill:none;fill-rule:evenodd;stroke:#000000;stroke-width:2.0px;stroke-linecap:butt;stroke-linejoin:miter;stroke-opacity:1"/>
<path d="M 654.5,171.7 L 649.2,167.7 L 646.6,168.8" style="fill:none;stroke:#000000;stroke-width:2.0px;stroke-linecap:butt;stroke-linejoin:miter;stroke-opacity:1;"/>
<path d="M 424.1,139.8 L 421.9,138.1 L 415.7,140.7" style="fill:none;stroke:#000000;stroke-width:2.0px;stroke-linecap:butt;stroke-linejoin:miter;stroke-opacity:1;"/>
<path class="atom-0" d="M 888.3 62.8 L 892.5 58.5 L 887.0 57.4 L 887.8 54.6 L 892.9 57.1 L 892.2 51.6 L 895.2 51.5 L 894.3 57.1 L 899.5 54.7 L 900.4 57.4 L 894.8 58.5 L 898.8 62.7 L 896.3 64.5 L 893.6 59.2 L 890.8 64.5 L 888.3 62.8 " fill="#191919"/>
<path class="atom-1" d="M 863.6 197.3 Q 863.6 190.5, 867.0 186.7 Q 870.3 182.9, 876.6 182.9 Q 882.9 182.9, 886.2 186.7 Q 889.6 190.5, 889.6 197.3 Q 889.6 204.2, 886.2 208.1 Q 882.8 212.0, 876.6 212.0 Q 870.4 212.0, 867.0 208.1 Q 863.6 204.2, 863.6 197.3 M 876.6 208.8 Q 880.9 208.8, 883.2 205.9 Q 885.6 203.0, 885.6 197.3 Q 885.6 191.7, 883.2 188.9 Q 880.9 186.1, 876.6 186.1 Q 872.3 186.1, 869.9 188.9 Q 867.6 191.7, 867.6 197.3 Q 867.6 203.0, 869.9 205.9 Q 872.3 208.8, 876.6 208.8 " fill="#FF0000"/>
<path class="atom-3" d="M 732.0 376.2 L 736.2 372.0 L 730.6 370.8 L 731.5 368.0 L 736.6 370.6 L 735.8 365.0 L 738.8 365.0 L 738.0 370.5 L 743.2 368.1 L 744.0 370.8 L 738.4 371.9 L 742.4 376.2 L 740.0 377.9 L 737.2 372.6 L 734.4 377.9 L 732.0 376.2 " fill="#191919"/>
<path class="atom-5" d="M 653.3 36.5 Q 653.3 29.7, 656.6 25.9 Q 660.0 22.1, 666.3 22.1 Q 672.6 22.1, 675.9 25.9 Q 679.3 29.7, 679.3 36.5 Q 679.3 43.4, 675.9 47.3 Q 672.5 51.2, 666.3 51.2 Q 660.0 51.2, 656.6 47.3 Q 653.3 43.4, 653.3 36.5 M 666.3 48.0 Q 670.6 48.0, 672.9 45.1 Q 675.3 42.2, 675.3 36.5 Q 675.3 30.9, 672.9 28.1 Q 670.6 25.3, 666.3 25.3 Q 662.0 25.3, 659.6 28.1 Q 657.3 30.9, 657.3 36.5 Q 657.3 42.2, 659.6 45.1 Q 662.0 48.0, 666.3 48.0 " fill="#FF0000"/>
<path class="atom-6" d="M 514.0 218.6 Q 514.0 211.8, 517.4 208.0 Q 520.7 204.2, 527.0 204.2 Q 533.3 204.2, 536.7 208.0 Q 540.0 211.8, 540.0 218.6 Q 540.0 225.5, 536.6 229.4 Q 533.2 233.3, 527.0 233.3 Q 520.8 233.3, 517.4 229.4 Q 514.0 225.6, 514.0 218.6 M 527.0 230.1 Q 531.3 230.1, 533.7 227.2 Q 536.0 224.3, 536.0 218.6 Q 536.0 213.1, 533.7 210.3 Q 531.3 207.4, 527.0 207.4 Q 522.7 207.4, 520.3 210.2 Q 518.0 213.0, 518.0 218.6 Q 518.0 224.4, 520.3 227.2 Q 522.7 230.1, 527.0 230.1 " fill="#FF0000"/>
<path class="bond-0 atom-0 atom-1" d="M 528.4,599.8 L 580.4,599.8" style="fill:none;fill-rule:evenodd;stroke:#191919;stroke-width:2.0px;stroke-linecap:butt;stroke-linejoin:miter;stroke-opacity:1"/>
<path class="bond-0 atom-0 atom-1" d="M 580.4,599.8 L 632.4,599.8" style="fill:none;fill-rule:evenodd;stroke:#FF0000;stroke-width:2.0px;stroke-linecap:butt;stroke-linejoin:miter;stroke-opacity:1"/>
<path class="atom-0" d="M 512.0 596.7 L 516.2 592.4 L 510.7 591.3 L 511.5 588.5 L 516.6 591.0 L 515.9 585.5 L 518.9 585.4 L 518.0 591.0 L 523.2 588.6 L 524.1 591.3 L 518.5 592.3 L 522.5 596.6 L 520.0 598.4 L 517.3 593.1 L 514.5 598.4 L 512.0 596.7 " fill="#191919"/>
<path class="atom-1" d="M 636.8 599.9 Q 636.8 593.1, 640.1 589.3 Q 643.5 585.5, 649.8 585.5 Q 656.0 585.5, 659.4 589.3 Q 662.8 593.1, 662.8 599.9 Q 662.8 606.8, 659.4 610.7 Q 656.0 614.6, 649.8 614.6 Q 643.5 614.6, 640.1 610.7 Q 636.8 606.8, 636.8 599.9 M 649.8 611.4 Q 654.1 611.4, 656.4 608.5 Q 658.8 605.6, 658.8 599.9 Q 658.8 594.3, 656.4 591.5 Q 654.1 588.7, 649.8 588.7 Q 645.4 588.7, 643.1 591.5 Q 640.8 594.3, 640.8 599.9 Q 640.8 605.6, 643.1 608.5 Q 645.4 611.4, 649.8 611.4 " fill="#FF0000"/>
<path class="atom-1" d="M 667.2 585.8 L 671.0 585.8 L 671.0 597.9 L 685.5 597.9 L 685.5 585.8 L 689.3 585.8 L 689.3 614.1 L 685.5 614.1 L 685.5 601.1 L 671.0 601.1 L 671.0 614.1 L 667.2 614.1 L 667.2 585.8 " fill="#FF0000"/>
</svg>