<svg xmlns="http://www.w3.org/2000/svg" xmlns:rdkit="http://www.rdkit.org/xml" xmlns:xlink="http://www.w3.org/1999/xlink" version="1.1" baseProfile="full" xml:space="preserve" width="1200px" height="800px" viewBox="0 0 1200 800">
<!-- END OF HEADER -->
<rect style="opacity:1.0;fill:#FFFFFF;stroke:none" width="1200.0" height="800.0" x="0.0" y="0.0"> </rect>
<path class="bond-0 atom-0 atom-1" d="M 77.0,247.5 L 109.1,230.5" style="fill:none;fill-rule:evenodd;stroke:#191919;stroke-width:2.0px;stroke-linecap:butt;stroke-linejoin:miter;stroke-opacity:1"/>
<path class="bond-0 atom-0 atom-1" d="M 109.1,230.5 L 141.3,213.6" style="fill:none;fill-rule:evenodd;stroke:#FF0000;stroke-width:2.0px;stroke-linecap:butt;stroke-linejoin:miter;stroke-opacity:1"/>
<path class="bond-1 atom-1 atom-2" d="M 174.1,215.2 L 209.3,237.4" style="fill:none;fill-rule:evenodd;stroke:#FF0000;stroke-width:2.0px;stroke-linecap:butt;stroke-linejoin:miter;stroke-opacity:1"/>
<path class="bond-1 atom-1 atom-2" d="M 209.3,237.4 L 244.6,259.6" style="fill:none;fill-rule:evenodd;stroke:#000000;stroke-width:2.0px;stroke-linecap:butt;stroke-linejoin:miter;stroke-opacity:1"/>
<path class="bond-2 atom-2 atom-3" d="M 244.6,259.6 L 335.4,211.6" style="fill:none;fill-rule:evenodd;stroke:#000000;stroke-width:2.0px;stroke-linecap:butt;stroke-linejoin:miter;stroke-opacity:1"/>
<path class="bond-3 atom-3 atom-4" d="M 335.4,211.6 L 422.3,266.3" style="fill:none;fill-rule:evenodd;stroke:#000000;stroke-width:2.0px;stroke-linecap:butt;stroke-linejoin:miter;stroke-opacity:1"/>
<path class="bond-4 atom-4 atom-5" d="M 422.3,266.3 L 513.1,218.4" style="fill:none;fill-rule:evenodd;stroke:#000000;stroke-width:2.0px;stroke-linecap:butt;stroke-linejoin:miter;stroke-opacity:1"/>
<path class="bond-5 atom-5 atom-6" d="M 513.1,218.4 L 548.4,240.6" style="fill:none;fill-rule:evenodd;stroke:#000000;stroke-width:2.0px;stroke-linecap:butt;stroke-linejoin:miter;stroke-opacity:1"/>
<path class="bond-5 atom-5 atom-6" d="M 548.4,240.6 L 583.6,262.7" style="fill:none;fill-rule:evenodd;stroke:#FF0000;stroke-width:2.0px;stroke-linecap:butt;stroke-linejoin:miter;stroke-opacity:1"/>
<path class="bond-6 atom-6 atom-7" d="M 616.4,264.4 L 653.6,244.8" style="fill:none;fill-rule:evenodd;stroke:#FF0000;stroke-width:2.0px;stroke-linecap:butt;stroke-linejoin:miter;stroke-opacity:1"/>
<path class="bond-6 atom-6 atom-7" d="M 653.6,244.8 L 690.8,225.1" style="fill:none;fill-rule:evenodd;stroke:#000000;stroke-width:2.0px;stroke-linecap:butt;stroke-linejoin:miter;stroke-opacity:1"/>
<path class="bond-7 atom-7 atom-8" d="M 698.3,229.8 L 700.0,185.4" style="fill:none;fill-rule:evenodd;stroke:#000000;stroke-width:2.0px;stroke-linecap:butt;stroke-linejoin:miter;stroke-opacity:1"/>
<path class="bond-7 atom-7 atom-8" d="M 700.0,185.4 L 701.7,141.0" style="fill:none;fill-rule:evenodd;stroke:#FF0000;stroke-width:2.0px;stroke-linecap:butt;stroke-linejoin:miter;stroke-opacity:1"/>
<path class="bond-7 atom-7 atom-8" d="M 682.9,229.3 L 684.6,184.8" style="fill:none;fill-rule:evenodd;stroke:#000000;stroke-width:2.0px;stroke-linecap:butt;stroke-linejoin:miter;stroke-opacity:1"/>
<path class="bond-7 atom-7 atom-8" d="M 684.6,184.8 L 686.3,140.4" style="fill:none;fill-rule:evenodd;stroke:#FF0000;stroke-width:2.0px;stroke-linecap:butt;stroke-linejoin:miter;stroke-opacity:1"/>
<path class="bond-8 atom-7 atom-9" d="M 690.8,225.1 L 777.7,279.8" style="fill:none;fill-rule:evenodd;stroke:#000000;stroke-width:2.0px;stroke-linecap:butt;stroke-linejoin:miter;stroke-opacity:1"/>
<path class="bond-9 atom-9 atom-10" d="M 777.7,279.8 L 814.9,260.1" style="fill:none;fill-rule:evenodd;stroke:#000000;stroke-width:2.0px;stroke-linecap:butt;stroke-linejoin:miter;stroke-opacity:1"/>
<path class="bond-9 atom-9 atom-10" d="M 814.9,260.1 L 852.1,240.5" style="fill:none;fill-rule:evenodd;stroke:#FF0000;stroke-width:2.0px;stroke-linecap:butt;stroke-linejoin:miter;stroke-opacity:1"/>
<path class="bond-10 atom-10 atom-11" d="M 884.9,242.2 L 920.2,264.3" style="fill:none;fill-rule:evenodd;stroke:#FF0000;stroke-width:2.0px;stroke-linecap:butt;stroke-linejoin:miter;stroke-opacity:1"/>
<path class="bond-10 atom-10 atom-11" d="M 920.2,264.3 L 955.4,286.5" style="fill:none;fill-rule:evenodd;stroke:#000000;stroke-width:2.0px;stroke-linecap:butt;stroke-linejoin:miter;stroke-opacity:1"/>
<path class="bond-11 atom-11 atom-12" d="M 955.4,286.5 L 1046.2,238.6" style="fill:none;fill-rule:evenodd;stroke:#000000;stroke-width:2.0px;stroke-linecap:butt;stroke-linejoin:miter;stroke-opacity:1"/>
<path class="bond-12 atom-12 atom-13" d="M 1046.2,238.6 L 1084.6,262.7" style="fill:none;fill-rule:evenodd;stroke:#000000;stroke-width:2.0px;stroke-linecap:butt;stroke-linejoin:miter;stroke-opacity:1"/>
<path class="bond-12 atom-12 atom-13" d="M 1084.6,262.7 L 1123.0,286.9" style="fill:none;fill-rule:evenodd;stroke:#191919;stroke-width:2.0px;stroke-linecap:butt;stroke-linejoin:miter;stroke-opacity:1"/>
<path class="bond-13 atom-12 atom-14" d="M 1053.7,243.3 L 1055.4,198.9" style="fill:none;fill-rule:evenodd;stroke:#000000;stroke-width:2.0px;stroke-linecap:butt;stroke-linejoin:miter;stroke-opacity:1"/>
<path class="bond-13 atom-12 atom-14" d="M 1055.4,198.9 L 1057.1,154.4" style="fill:none;fill-rule:evenodd;stroke:#FF0000;stroke-width:2.0px;stroke-linecap:butt;stroke-linejoin:miter;stroke-opacity:1"/>
<path class="bond-13 atom-12 atom-14" d="M 1038.3,242.7 L 1040.0,198.3" style="fill:none;fill-rule:evenodd;stroke:#000000;stroke-width:2.0px;stroke-linecap:butt;stroke-linejoin:miter;stroke-opacity:1"/>
<path class="bond-13 atom-12 atom-14" d="M 1040.0,198.3 L 1041.7,153.8" style="fill:none;fill-rule:evenodd;stroke:#FF0000;stroke-width:2.0px;stroke-linecap:butt;stroke-linejoin:miter;stroke-opacity:1"/>
<path d="M 242.8,258.5 L 244.6,259.6 L 249.1,257.2" style="fill:none;stroke:#000000;stroke-width:2.0px;stroke-linecap:butt;stroke-linejoin:miter;stroke-opacity:1;"/>
<path d="M 330.8,214.0 L 335.4,211.6 L 339.7,214.4" style="fill:none;stroke:#000000;stroke-width:2.0px;stroke-linecap:butt;stroke-linejoin:miter;stroke-opacity:1;"/>
<path d="M 417.9,263.6 L 422.3,266.3 L 426.8,263.9" style="fill:none;stroke:#000000;stroke-width:2.0px;stroke-linecap:butt;stroke-linejoin:miter;stroke-opacity:1;"/>
<path d="M 508.6,220.8 L 513.1,218.4 L 514.9,219.5" style="fill:none;stroke:#000000;stroke-width:2.0px;stroke-linecap:butt;stroke-linejoin:miter;stroke-opacity:1;"/>
<path d="M 688.9,226.1 L 690.8,225.1 L 695.1,227.8" style="fill:none;stroke:#000000;stroke-width:2.0px;stroke-linecap:butt;stroke-linejoin:miter;stroke-opacity:1;"/>
<path d="M 773.4,277.0 L 777.7,279.8 L 779.6,278.8" style="fill:none;stroke:#000000;stroke-width:2.0px;stroke-linecap:butt;stroke-linejoin:miter;stroke-opacity:1;"/>
<path d="M 953.7,285.4 L 955.4,286.5 L 960.0,284.1" style="fill:none;stroke:#000000;stroke-width:2.0px;stroke-linecap:butt;stroke-linejoin:miter;stroke-opacity:1;"/>
<path d="M 1041.7,241.0 L 1046.2,238.6 L 1048.1,239.8" style="fill:none;stroke:#000000;stroke-width:2.0px;stroke-linecap:butt;stroke-linejoin:miter;stroke-opacity:1;"/>
<path class="atom-0" d="M 61.5 249.7 L 65.7 245.4 L 60.2 244.3 L 61.0 241.5 L 66.1 244.0 L 65.4 238.5 L 68.4 238.4 L 67.5 244.0 L 72.7 241.6 L 73.6 244.3 L 68.0 245.4 L 72.0 249.6 L 69.5 251.4 L 66.8 246.1 L 64.0 251.4 L 61.5 249.7 " fill="#191919"/>
<path class="atom-1" d="M 144.7 205.0 Q 144.7 198.2, 148.0 194.4 Q 151.4 190.6, 157.7 190.6 Q 164.0 190.6, 167.3 194.4 Q 170.7 198.2, 170.7 205.0 Q 170.7 211.9, 167.3 215.8 Q 163.9 219.7, 157.7 219.7 Q 151.4 219.7, 148.0 215.8 Q 144.7 211.9, 144.7 205.0 M 157.7 216.5 Q 162.0 216.5, 164.3 213.6 Q 166.7 210.7, 166.7 205.0 Q 166.7 199.4, 164.3 196.6 Q 162.0 193.8, 157.7 193.8 Q 153.4 193.8, 151.0 196.6 Q 148.7 199.4, 148.7 205.0 Q 148.7 210.7, 151.0 213.6 Q 153.4 216.5, 157.7 216.5 " fill="#FF0000"/>
<path class="atom-6" d="M 587.0 273.1 Q 587.0 266.3, 590.4 262.5 Q 593.7 258.7, 600.0 258.7 Q 606.3 258.7, 609.6 262.5 Q 613.0 266.3, 613.0 273.1 Q 613.0 280.0, 609.6 283.9 Q 606.2 287.8, 600.0 287.8 Q 593.8 287.8, 590.4 283.9 Q 587.0 280.0, 587.0 273.1 M 600.0 284.6 Q 604.3 284.6, 606.6 281.7 Q 609.0 278.8, 609.0 273.1 Q 609.0 267.6, 606.6 264.8 Q 604.3 261.9, 600.0 261.9 Q 595.7 261.9, 593.3 264.7 Q 591.0 267.5, 591.0 273.1 Q 591.0 278.8, 593.3 281.7 Q 595.7 284.6, 600.0 284.6 " fill="#FF0000"/>
<path class="atom-8" d="M 681.7 122.6 Q 681.7 115.8, 685.0 112.0 Q 688.4 108.2, 694.7 108.2 Q 701.0 108.2, 704.3 112.0 Q 707.7 115.8, 707.7 122.6 Q 707.7 129.5, 704.3 133.4 Q 700.9 137.3, 694.7 137.3 Q 688.4 137.3, 685.0 133.4 Q 681.7 129.5, 681.7 122.6 M 694.7 134.1 Q 699.0 134.1, 701.3 131.2 Q 703.7 128.3, 703.7 122.6 Q 703.7 117.0, 701.3 114.2 Q 699.0 111.4, 694.7 111.4 Q 690.4 111.4, 688.0 114.2 Q 685.7 117.0, 685.7 122.6 Q 685.7 128.3, 688.0 131.2 Q 690.4 134.1, 694.7 134.1 " fill="#FF0000"/>
<path class="atom-10" d="M 855.5 231.9 Q 855.5 225.1, 858.9 221.3 Q 862.2 217.5, 868.5 217.5 Q 874.8 217.5, 878.1 221.3 Q 881.5 225.1, 881.5 231.9 Q 881.5 238.8, 878.1 242.7 Q 874.7 246.6, 868.5 246.6 Q 862.3 246.6, 858.9 242.7 Q 855.5 238.8, 855.5 231.9 M 868.5 243.4 Q 872.8 243.4, 875.1 240.5 Q 877.5 237.6, 877.5 231.9 Q 877.5 226.4, 875.1 223.6 Q 872.8 220.7, 868.5 220.7 Q 864.2 220.7, 861.8 223.5 Q 859.5 226.3, 859.5 231.9 Q 859.5 237.6, 861.8 240.5 Q 864.2 243.4, 868.5 243.4 " fill="#FF0000"/>
<path class="atom-13" d="M 1127.8 290.1 L 1131.9 285.8 L 1126.4 284.7 L 1127.3 281.9 L 1132.3 284.4 L 1131.6 278.9 L 1134.6 278.8 L 1133.8 284.4 L 1138.9 282.0 L 1139.8 284.7 L 1134.2 285.8 L 1138.2 290.0 L 1135.8 291.8 L 1133.0 286.5 L 1130.2 291.8 L 1127.8 290.1 " fill="#191919"/>
<path class="atom-14" d="M 1037.1 136.1 Q 1037.1 129.3, 1040.5 125.5 Q 1043.8 121.7, 1050.1 121.7 Q 1056.4 121.7, 1059.7 125.5 Q 1063.1 129.3, 1063.1 136.1 Q 1063.1 142.9, 1059.7 146.9 Q 1056.3 150.7, 1050.1 150.7 Q 1043.9 150.7, 1040.5 146.9 Q 1037.1 143.0, 1037.1 136.1 M 1050.1 147.5 Q 1054.4 147.5, 1056.7 144.7 Q 1059.1 141.7, 1059.1 136.1 Q 1059.1 130.5, 1056.7 127.7 Q 1054.4 124.9, 1050.1 124.9 Q 1045.8 124.9, 1043.4 127.7 Q 1041.1 130.5, 1041.1 136.1 Q 1041.1 141.8, 1043.4 144.7 Q 1045.8 147.5, 1050.1 147.5 " fill="#FF0000"/>
<path class="bond-0 atom-0 atom-1" d="M 1085.3,563.6 L 1051.1,584.1" style="fill:none;fill-rule:evenodd;stroke:#191919;stroke-width:2.0px;stroke-linecap:butt;stroke-linejoin:miter;stroke-opacity:1"/>
<path class="bond-0 atom-0 atom-1" d="M 1051.1,584.1 L 1016.9,604.6" style="fill:none;fill-rule:evenodd;stroke:#FF0000;stroke-width:2.0px;stroke-linecap:butt;stroke-linejoin:miter;stroke-opacity:1"/>
<path class="bond-1 atom-1 atom-2" d="M 984.1,605.4 L 947.4,585.0" style="fill:none;fill-rule:evenodd;stroke:#FF0000;stroke-width:2.0px;stroke-linecap:butt;stroke-linejoin:miter;stroke-opacity:1"/>
<path class="bond-1 atom-1 atom-2" d="M 947.4,585.0 L 910.7,564.6" style="fill:none;fill-rule:evenodd;stroke:#000000;stroke-width:2.0px;stroke-linecap:butt;stroke-linejoin:miter;stroke-opacity:1"/>
<path class="bond-2 atom-2 atom-3" d="M 910.7,564.6 L 822.7,617.4" style="fill:none;fill-rule:evenodd;stroke:#000000;stroke-width:2.0px;stroke-linecap:butt;stroke-linejoin:miter;stroke-opacity:1"/>
<path class="bond-3 atom-3 atom-4" d="M 822.7,617.4 L 732.9,567.5" style="fill:none;fill-rule:evenodd;stroke:#000000;stroke-width:2.0px;stroke-linecap:butt;stroke-linejoin:miter;stroke-opacity:1"/>
<path class="bond-4 atom-4 atom-5" d="M 732.9,567.5 L 644.9,620.3" style="fill:none;fill-rule:evenodd;stroke:#000000;stroke-width:2.0px;stroke-linecap:butt;stroke-linejoin:miter;stroke-opacity:1"/>
<path class="bond-5 atom-5 atom-6" d="M 644.9,620.3 L 608.2,599.9" style="fill:none;fill-rule:evenodd;stroke:#000000;stroke-width:2.0px;stroke-linecap:butt;stroke-linejoin:miter;stroke-opacity:1"/>
<path class="bond-5 atom-5 atom-6" d="M 608.2,599.9 L 571.5,579.6" style="fill:none;fill-rule:evenodd;stroke:#FF0000;stroke-width:2.0px;stroke-linecap:butt;stroke-linejoin:miter;stroke-opacity:1"/>
<path class="bond-6 atom-6 atom-7" d="M 538.7,580.3 L 502.9,601.8" style="fill:none;fill-rule:evenodd;stroke:#FF0000;stroke-width:2.0px;stroke-linecap:butt;stroke-linejoin:miter;stroke-opacity:1"/>
<path class="bond-6 atom-6 atom-7" d="M 502.9,601.8 L 467.1,623.2" style="fill:none;fill-rule:evenodd;stroke:#000000;stroke-width:2.0px;stroke-linecap:butt;stroke-linejoin:miter;stroke-opacity:1"/>
<path class="bond-7 atom-7 atom-8" d="M 459.3,618.9 L 460.0,663.6" style="fill:none;fill-rule:evenodd;stroke:#000000;stroke-width:2.0px;stroke-linecap:butt;stroke-linejoin:miter;stroke-opacity:1"/>
<path class="bond-7 atom-7 atom-8" d="M 460.0,663.6 L 460.8,708.3" style="fill:none;fill-rule:evenodd;stroke:#FF0000;stroke-width:2.0px;stroke-linecap:butt;stroke-linejoin:miter;stroke-opacity:1"/>
<path class="bond-7 atom-7 atom-8" d="M 474.7,618.7 L 475.4,663.4" style="fill:none;fill-rule:evenodd;stroke:#000000;stroke-width:2.0px;stroke-linecap:butt;stroke-linejoin:miter;stroke-opacity:1"/>
<path class="bond-7 atom-7 atom-8" d="M 475.4,663.4 L 476.2,708.1" style="fill:none;fill-rule:evenodd;stroke:#FF0000;stroke-width:2.0px;stroke-linecap:butt;stroke-linejoin:miter;stroke-opacity:1"/>
<path class="bond-8 atom-7 atom-9" d="M 467.1,623.2 L 377.3,573.4" style="fill:none;fill-rule:evenodd;stroke:#000000;stroke-width:2.0px;stroke-linecap:butt;stroke-linejoin:miter;stroke-opacity:1"/>
<path class="bond-9 atom-9 atom-10" d="M 377.3,573.4 L 289.3,626.2" style="fill:none;fill-rule:evenodd;stroke:#000000;stroke-width:2.0px;stroke-linecap:butt;stroke-linejoin:miter;stroke-opacity:1"/>
<path class="bond-10 atom-10 atom-11" d="M 289.3,626.2 L 199.5,576.3" style="fill:none;fill-rule:evenodd;stroke:#000000;stroke-width:2.0px;stroke-linecap:butt;stroke-linejoin:miter;stroke-opacity:1"/>
<path class="bond-11 atom-11 atom-12" d="M 199.5,576.3 L 160.5,599.7" style="fill:none;fill-rule:evenodd;stroke:#000000;stroke-width:2.0px;stroke-linecap:butt;stroke-linejoin:miter;stroke-opacity:1"/>
<path class="bond-11 atom-11 atom-12" d="M 160.5,599.7 L 121.5,623.1" style="fill:none;fill-rule:evenodd;stroke:#191919;stroke-width:2.0px;stroke-linecap:butt;stroke-linejoin:miter;stroke-opacity:1"/>
<path class="bond-12 atom-11 atom-13" d="M 207.3,580.6 L 206.5,536.2" style="fill:none;fill-rule:evenodd;stroke:#000000;stroke-width:2.0px;stroke-linecap:butt;stroke-linejoin:miter;stroke-opacity:1"/>
<path class="bond-12 atom-11 atom-13" d="M 206.5,536.2 L 205.8,491.7" style="fill:none;fill-rule:evenodd;stroke:#FF0000;stroke-width:2.0px;stroke-linecap:butt;stroke-linejoin:miter;stroke-opacity:1"/>
<path class="bond-12 atom-11 atom-13" d="M 191.9,580.9 L 191.1,536.4" style="fill:none;fill-rule:evenodd;stroke:#000000;stroke-width:2.0px;stroke-linecap:butt;stroke-linejoin:miter;stroke-opacity:1"/>
<path class="bond-12 atom-11 atom-13" d="M 191.1,536.4 L 190.4,491.9" style="fill:none;fill-rule:evenodd;stroke:#FF0000;stroke-width:2.0px;stroke-linecap:butt;stroke-linejoin:miter;stroke-opacity:1"/>
<path d="M 912.6,565.6 L 910.7,564.6 L 906.3,567.2" style="fill:none;stroke:#000000;stroke-width:2.0px;stroke-linecap:butt;stroke-linejoin:miter;stroke-opacity:1;"/>
<path d="M 827.1,614.8 L 822.7,617.4 L 818.2,614.9" style="fill:none;stroke:#000000;stroke-width:2.0px;stroke-linecap:butt;stroke-linejoin:miter;stroke-opacity:1;"/>
<path d="M 737.4,570.0 L 732.9,567.5 L 728.5,570.2" style="fill:none;stroke:#000000;stroke-width:2.0px;stroke-linecap:butt;stroke-linejoin:miter;stroke-opacity:1;"/>
<path d="M 649.3,617.7 L 644.9,620.3 L 643.0,619.3" style="fill:none;stroke:#000000;stroke-width:2.0px;stroke-linecap:butt;stroke-linejoin:miter;stroke-opacity:1;"/>
<path d="M 468.9,622.2 L 467.1,623.2 L 462.6,620.8" style="fill:none;stroke:#000000;stroke-width:2.0px;stroke-linecap:butt;stroke-linejoin:miter;stroke-opacity:1;"/>
<path d="M 381.8,575.9 L 377.3,573.4 L 372.9,576.0" style="fill:none;stroke:#000000;stroke-width:2.0px;stroke-linecap:butt;stroke-linejoin:miter;stroke-opacity:1;"/>
<path d="M 293.7,623.5 L 289.3,626.2 L 284.8,623.7" style="fill:none;stroke:#000000;stroke-width:2.0px;stroke-linecap:butt;stroke-linejoin:miter;stroke-opacity:1;"/>
<path d="M 204.0,578.8 L 199.5,576.3 L 197.6,577.5" style="fill:none;stroke:#000000;stroke-width:2.0px;stroke-linecap:butt;stroke-linejoin:miter;stroke-opacity:1;"/>
<path class="atom-0" d="M 1083.2 558.5 L 1087.4 554.3 L 1081.9 553.2 L 1082.7 550.3 L 1087.8 552.9 L 1087.1 547.3 L 1090.1 547.3 L 1089.2 552.8 L 1094.4 550.4 L 1095.3 553.2 L 1089.7 554.2 L 1093.7 558.5 L 1091.2 560.2 L 1088.5 555.0 L 1085.7 560.2 L 1083.2 558.5 " fill="#191919"/>
<path class="atom-1" d="M 987.5 614.5 Q 987.5 607.7, 990.9 603.9 Q 994.2 600.1, 1000.5 600.1 Q 1006.8 600.1, 1010.1 603.9 Q 1013.5 607.7, 1013.5 614.5 Q 1013.5 621.4, 1010.1 625.3 Q 1006.7 629.2, 1000.5 629.2 Q 994.3 629.2, 990.9 625.3 Q 987.5 621.5, 987.5 614.5 M 1000.5 626.0 Q 1004.8 626.0, 1007.1 623.1 Q 1009.5 620.2, 1009.5 614.5 Q 1009.5 609.0, 1007.1 606.2 Q 1004.8 603.3, 1000.5 603.3 Q 996.2 603.3, 993.8 606.1 Q 991.5 608.9, 991.5 614.5 Q 991.5 620.3, 993.8 623.1 Q 996.2 626.0, 1000.5 626.0 " fill="#FF0000"/>
<path class="atom-6" d="M 542.1 570.5 Q 542.1 563.7, 545.5 559.9 Q 548.8 556.1, 555.1 556.1 Q 561.4 556.1, 564.8 559.9 Q 568.1 563.7, 568.1 570.5 Q 568.1 577.4, 564.7 581.3 Q 561.3 585.2, 555.1 585.2 Q 548.9 585.2, 545.5 581.3 Q 542.1 577.5, 542.1 570.5 M 555.1 582.0 Q 559.4 582.0, 561.8 579.1 Q 564.1 576.2, 564.1 570.5 Q 564.1 565.0, 561.8 562.2 Q 559.4 559.3, 555.1 559.3 Q 550.8 559.3, 548.4 562.1 Q 546.1 564.9, 546.1 570.5 Q 546.1 576.3, 548.4 579.1 Q 550.8 582.0, 555.1 582.0 " fill="#FF0000"/>
<path class="atom-8" d="M 455.8 726.0 Q 455.8 719.2, 459.1 715.4 Q 462.5 711.6, 468.8 711.6 Q 475.0 711.6, 478.4 715.4 Q 481.8 719.2, 481.8 726.0 Q 481.8 732.9, 478.4 736.8 Q 475.0 740.7, 468.8 740.7 Q 462.5 740.7, 459.1 736.8 Q 455.8 732.9, 455.8 726.0 M 468.8 737.5 Q 473.1 737.5, 475.4 734.6 Q 477.8 731.7, 477.8 726.0 Q 477.8 720.4, 475.4 717.6 Q 473.1 714.8, 468.8 714.8 Q 464.4 714.8, 462.1 717.6 Q 459.8 720.4, 459.8 726.0 Q 459.8 731.7, 462.1 734.6 Q 464.4 737.5, 468.8 737.5 " fill="#FF0000"/>
<path class="atom-12" d="M 106.1 625.9 L 110.3 621.7 L 104.7 620.6 L 105.6 617.7 L 110.7 620.3 L 109.9 614.7 L 112.9 614.7 L 112.1 620.3 L 117.3 617.9 L 118.1 620.6 L 112.5 621.6 L 116.5 625.9 L 114.1 627.7 L 111.3 622.4 L 108.5 627.7 L 106.1 625.9 " fill="#191919"/>
<path class="atom-13" d="M 184.8 473.7 Q 184.8 466.9, 188.2 463.1 Q 191.5 459.3, 197.8 459.3 Q 204.1 459.3, 207.5 463.1 Q 210.8 466.9, 210.8 473.7 Q 210.8 480.6, 207.4 484.5 Q 204.0 488.4, 197.8 488.4 Q 191.6 488.4, 188.2 484.5 Q 184.8 480.7, 184.8 473.7 M 197.8 485.2 Q 202.1 485.2, 204.5 482.3 Q 206.8 479.4, 206.8 473.7 Q 206.8 468.2, 204.5 465.4 Q 202.1 462.5, 197.8 462.5 Q 193.5 462.5, 191.1 465.3 Q 188.8 468.1, 188.8 473.7 Q 188.8 479.5, 191.1 482.3 Q 193.5 485.2, 197.8 485.2 " fill="#FF0000"/>
</svg>