<svg xmlns="http://www.w3.org/2000/svg" xmlns:rdkit="http://www.rdkit.org/xml" xmlns:xlink="http://www.w3.org/1999/xlink" version="1.1" baseProfile="full" xml:space="preserve" width="1200px" height="800px" viewBox="0 0 1200 800">
<!-- END OF HEADER -->
<rect style="opacity:1.0;fill:#FFFFFF;stroke:none" width="1200.0" height="800.0" x="0.0" y="0.0"> </rect>
<path class="bond-0 atom-0 atom-1" d="M 79.0,261.4 L 119.5,240.2" style="fill:none;fill-rule:evenodd;stroke:#191919;stroke-width:2.0px;stroke-linecap:butt;stroke-linejoin:miter;stroke-opacity:1"/>
<path class="bond-0 atom-0 atom-1" d="M 119.5,240.2 L 160.1,219.0" style="fill:none;fill-rule:evenodd;stroke:#FF0000;stroke-width:2.0px;stroke-linecap:butt;stroke-linejoin:miter;stroke-opacity:1"/>
<path class="bond-1 atom-1 atom-2" d="M 194.2,220.8 L 237.6,248.3" style="fill:none;fill-rule:evenodd;stroke:#FF0000;stroke-width:2.0px;stroke-linecap:butt;stroke-linejoin:miter;stroke-opacity:1"/>
<path class="bond-1 atom-1 atom-2" d="M 237.6,248.3 L 280.9,275.8" style="fill:none;fill-rule:evenodd;stroke:#000000;stroke-width:2.0px;stroke-linecap:butt;stroke-linejoin:miter;stroke-opacity:1"/>
<path class="bond-2 atom-2 atom-3" d="M 280.9,275.8 L 389.8,218.8" style="fill:none;fill-rule:evenodd;stroke:#000000;stroke-width:2.0px;stroke-linecap:butt;stroke-linejoin:miter;stroke-opacity:1"/>
<path class="bond-3 atom-3 atom-4" d="M 389.8,218.8 L 433.2,246.3" style="fill:none;fill-rule:evenodd;stroke:#000000;stroke-width:2.0px;stroke-linecap:butt;stroke-linejoin:miter;stroke-opacity:1"/>
<path class="bond-3 atom-3 atom-4" d="M 433.2,246.3 L 476.6,273.8" style="fill:none;fill-rule:evenodd;stroke:#FF0000;stroke-width:2.0px;stroke-linecap:butt;stroke-linejoin:miter;stroke-opacity:1"/>
<path class="bond-4 atom-4 atom-5" d="M 510.7,275.7 L 556.6,251.6" style="fill:none;fill-rule:evenodd;stroke:#FF0000;stroke-width:2.0px;stroke-linecap:butt;stroke-linejoin:miter;stroke-opacity:1"/>
<path class="bond-4 atom-4 atom-5" d="M 556.6,251.6 L 602.5,227.6" style="fill:none;fill-rule:evenodd;stroke:#000000;stroke-width:2.0px;stroke-linecap:butt;stroke-linejoin:miter;stroke-opacity:1"/>
<path class="bond-5 atom-5 atom-6" d="M 611.5,233.3 L 613.8,178.6" style="fill:none;fill-rule:evenodd;stroke:#000000;stroke-width:2.0px;stroke-linecap:butt;stroke-linejoin:miter;stroke-opacity:1"/>
<path class="bond-5 atom-5 atom-6" d="M 613.8,178.6 L 616.0,124.0" style="fill:none;fill-rule:evenodd;stroke:#FF0000;stroke-width:2.0px;stroke-linecap:butt;stroke-linejoin:miter;stroke-opacity:1"/>
<path class="bond-5 atom-5 atom-6" d="M 593.1,232.5 L 595.4,177.9" style="fill:none;fill-rule:evenodd;stroke:#000000;stroke-width:2.0px;stroke-linecap:butt;stroke-linejoin:miter;stroke-opacity:1"/>
<path class="bond-5 atom-5 atom-6" d="M 595.4,177.9 L 597.6,123.2" style="fill:none;fill-rule:evenodd;stroke:#FF0000;stroke-width:2.0px;stroke-linecap:butt;stroke-linejoin:miter;stroke-opacity:1"/>
<path class="bond-6 atom-5 atom-7" d="M 602.5,227.6 L 706.4,293.4" style="fill:none;fill-rule:evenodd;stroke:#000000;stroke-width:2.0px;stroke-linecap:butt;stroke-linejoin:miter;stroke-opacity:1"/>
<path class="bond-7 atom-7 atom-8" d="M 706.4,293.4 L 752.3,269.4" style="fill:none;fill-rule:evenodd;stroke:#000000;stroke-width:2.0px;stroke-linecap:butt;stroke-linejoin:miter;stroke-opacity:1"/>
<path class="bond-7 atom-7 atom-8" d="M 752.3,269.4 L 798.2,245.3" style="fill:none;fill-rule:evenodd;stroke:#FF0000;stroke-width:2.0px;stroke-linecap:butt;stroke-linejoin:miter;stroke-opacity:1"/>
<path class="bond-8 atom-8 atom-9" d="M 832.3,247.2 L 875.7,274.7" style="fill:none;fill-rule:evenodd;stroke:#FF0000;stroke-width:2.0px;stroke-linecap:butt;stroke-linejoin:miter;stroke-opacity:1"/>
<path class="bond-8 atom-8 atom-9" d="M 875.7,274.7 L 919.1,302.2" style="fill:none;fill-rule:evenodd;stroke:#000000;stroke-width:2.0px;stroke-linecap:butt;stroke-linejoin:miter;stroke-opacity:1"/>
<path class="bond-9 atom-9 atom-10" d="M 919.1,302.2 L 1027.9,245.2" style="fill:none;fill-rule:evenodd;stroke:#000000;stroke-width:2.0px;stroke-linecap:butt;stroke-linejoin:miter;stroke-opacity:1"/>
<path class="bond-10 atom-10 atom-11" d="M 1027.9,245.2 L 1074.5,274.7" style="fill:none;fill-rule:evenodd;stroke:#000000;stroke-width:2.0px;stroke-linecap:butt;stroke-linejoin:miter;stroke-opacity:1"/>
<path class="bond-10 atom-10 atom-11" d="M 1074.5,274.7 L 1121.0,304.2" style="fill:none;fill-rule:evenodd;stroke:#191919;stroke-width:2.0px;stroke-linecap:butt;stroke-linejoin:miter;stroke-opacity:1"/>
<path class="bond-11 atom-10 atom-12" d="M 1036.9,250.9 L 1039.2,196.2" style="fill:none;fill-rule:evenodd;stroke:#000000;stroke-width:2.0px;stroke-linecap:butt;stroke-linejoin:miter;stroke-opacity:1"/>
<path class="bond-11 atom-10 atom-12" d="M 1039.2,196.2 L 1041.5,141.6" style="fill:none;fill-rule:evenodd;stroke:#FF0000;stroke-width:2.0px;stroke-linecap:butt;stroke-linejoin:miter;stroke-opacity:1"/>
<path class="bond-11 atom-10 atom-12" d="M 1018.5,250.1 L 1020.8,195.5" style="fill:none;fill-rule:evenodd;stroke:#000000;stroke-width:2.0px;stroke-linecap:butt;stroke-linejoin:miter;stroke-opacity:1"/>
<path class="bond-11 atom-10 atom-12" d="M 1020.8,195.5 L 1023.0,140.8" style="fill:none;fill-rule:evenodd;stroke:#FF0000;stroke-width:2.0px;stroke-linecap:butt;stroke-linejoin:miter;stroke-opacity:1"/>
<path d="M 278.8,274.4 L 280.9,275.8 L 286.4,273.0" style="fill:none;stroke:#000000;stroke-width:2.0px;stroke-linecap:butt;stroke-linejoin:miter;stroke-opacity:1;"/>
<path d="M 384.4,221.7 L 389.8,218.8 L 392.0,220.2" style="fill:none;stroke:#000000;stroke-width:2.0px;stroke-linecap:butt;stroke-linejoin:miter;stroke-opacity:1;"/>
<path d="M 600.2,228.8 L 602.5,227.6 L 607.7,230.9" style="fill:none;stroke:#000000;stroke-width:2.0px;stroke-linecap:butt;stroke-linejoin:miter;stroke-opacity:1;"/>
<path d="M 701.2,290.1 L 706.4,293.4 L 708.6,292.2" style="fill:none;stroke:#000000;stroke-width:2.0px;stroke-linecap:butt;stroke-linejoin:miter;stroke-opacity:1;"/>
<path d="M 916.9,300.8 L 919.1,302.2 L 924.5,299.3" style="fill:none;stroke:#000000;stroke-width:2.0px;stroke-linecap:butt;stroke-linejoin:miter;stroke-opacity:1;"/>
<path d="M 1022.5,248.0 L 1027.9,245.2 L 1030.3,246.6" style="fill:none;stroke:#000000;stroke-width:2.0px;stroke-linecap:butt;stroke-linejoin:miter;stroke-opacity:1;"/>
<path class="atom-0" d="M 62.9 263.9 L 67.1 259.6 L 61.5 258.5 L 62.4 255.7 L 67.5 258.2 L 66.7 252.7 L 69.7 252.6 L 68.9 258.2 L 74.1 255.8 L 74.9 258.5 L 69.3 259.6 L 73.3 263.8 L 70.9 265.6 L 68.1 260.3 L 65.3 265.6 L 62.9 263.9 " fill="#191919"/>
<path class="atom-1" d="M 164.1 210.1 Q 164.1 203.3, 167.5 199.5 Q 170.8 195.7, 177.1 195.7 Q 183.4 195.7, 186.8 199.5 Q 190.1 203.3, 190.1 210.1 Q 190.1 217.0, 186.7 220.9 Q 183.3 224.8, 177.1 224.8 Q 170.9 224.8, 167.5 220.9 Q 164.1 217.0, 164.1 210.1 M 177.1 221.6 Q 181.4 221.6, 183.8 218.7 Q 186.1 215.8, 186.1 210.1 Q 186.1 204.5, 183.8 201.7 Q 181.4 198.9, 177.1 198.9 Q 172.8 198.9, 170.4 201.7 Q 168.1 204.5, 168.1 210.1 Q 168.1 215.8, 170.4 218.7 Q 172.8 221.6, 177.1 221.6 " fill="#FF0000"/>
<path class="atom-4" d="M 480.6 284.7 Q 480.6 277.9, 484.0 274.1 Q 487.4 270.3, 493.6 270.3 Q 499.9 270.3, 503.3 274.1 Q 506.6 277.9, 506.6 284.7 Q 506.6 291.6, 503.2 295.5 Q 499.8 299.4, 493.6 299.4 Q 487.4 299.4, 484.0 295.5 Q 480.6 291.6, 480.6 284.7 M 493.6 296.2 Q 498.0 296.2, 500.3 293.3 Q 502.6 290.4, 502.6 284.7 Q 502.6 279.1, 500.3 276.3 Q 498.0 273.5, 493.6 273.5 Q 489.3 273.5, 487.0 276.3 Q 484.6 279.1, 484.6 284.7 Q 484.6 290.4, 487.0 293.3 Q 489.3 296.2, 493.6 296.2 " fill="#FF0000"/>
<path class="atom-6" d="M 594.6 104.9 Q 594.6 98.1, 598.0 94.3 Q 601.3 90.5, 607.6 90.5 Q 613.9 90.5, 617.2 94.3 Q 620.6 98.1, 620.6 104.9 Q 620.6 111.8, 617.2 115.7 Q 613.8 119.6, 607.6 119.6 Q 601.4 119.6, 598.0 115.7 Q 594.6 111.8, 594.6 104.9 M 607.6 116.4 Q 611.9 116.4, 614.2 113.5 Q 616.6 110.6, 616.6 104.9 Q 616.6 99.3, 614.2 96.5 Q 611.9 93.7, 607.6 93.7 Q 603.3 93.7, 600.9 96.5 Q 598.6 99.3, 598.6 104.9 Q 598.6 110.6, 600.9 113.5 Q 603.3 116.4, 607.6 116.4 " fill="#FF0000"/>
<path class="atom-8" d="M 802.2 236.5 Q 802.2 229.7, 805.6 225.9 Q 809.0 222.1, 815.2 222.1 Q 821.5 222.1, 824.9 225.9 Q 828.2 229.7, 828.2 236.5 Q 828.2 243.3, 824.8 247.3 Q 821.4 251.1, 815.2 251.1 Q 809.0 251.1, 805.6 247.3 Q 802.2 243.4, 802.2 236.5 M 815.2 247.9 Q 819.6 247.9, 821.9 245.1 Q 824.2 242.1, 824.2 236.5 Q 824.2 230.9, 821.9 228.1 Q 819.6 225.3, 815.2 225.3 Q 810.9 225.3, 808.6 228.1 Q 806.2 230.9, 806.2 236.5 Q 806.2 242.2, 808.6 245.1 Q 810.9 247.9, 815.2 247.9 " fill="#FF0000"/>
<path class="atom-11" d="M 1126.4 307.8 L 1130.6 303.6 L 1125.1 302.4 L 1125.9 299.6 L 1131.0 302.2 L 1130.3 296.6 L 1133.3 296.6 L 1132.4 302.1 L 1137.6 299.7 L 1138.5 302.4 L 1132.9 303.5 L 1136.9 307.8 L 1134.4 309.5 L 1131.7 304.2 L 1128.9 309.5 L 1126.4 307.8 " fill="#191919"/>
<path class="atom-12" d="M 1020.0 122.4 Q 1020.0 115.6, 1023.4 111.8 Q 1026.7 108.0, 1033.0 108.0 Q 1039.3 108.0, 1042.7 111.8 Q 1046.0 115.6, 1046.0 122.4 Q 1046.0 129.3, 1042.6 133.2 Q 1039.2 137.1, 1033.0 137.1 Q 1026.8 137.1, 1023.4 133.2 Q 1020.0 129.4, 1020.0 122.4 M 1033.0 133.9 Q 1037.3 133.9, 1039.7 131.0 Q 1042.0 128.1, 1042.0 122.4 Q 1042.0 116.9, 1039.7 114.1 Q 1037.3 111.2, 1033.0 111.2 Q 1028.7 111.2, 1026.3 114.0 Q 1024.0 116.8, 1024.0 122.4 Q 1024.0 128.2, 1026.3 131.0 Q 1028.7 133.9, 1033.0 133.9 " fill="#FF0000"/>
<path class="bond-0 atom-0 atom-1" d="M 1073.5,549.2 L 1032.0,575.0" style="fill:none;fill-rule:evenodd;stroke:#191919;stroke-width:2.0px;stroke-linecap:butt;stroke-linejoin:miter;stroke-opacity:1"/>
<path class="bond-0 atom-0 atom-1" d="M 1032.0,575.0 L 990.4,600.9" style="fill:none;fill-rule:evenodd;stroke:#FF0000;stroke-width:2.0px;stroke-linecap:butt;stroke-linejoin:miter;stroke-opacity:1"/>
<path class="bond-1 atom-1 atom-2" d="M 956.3,602.3 L 910.6,577.9" style="fill:none;fill-rule:evenodd;stroke:#FF0000;stroke-width:2.0px;stroke-linecap:butt;stroke-linejoin:miter;stroke-opacity:1"/>
<path class="bond-1 atom-1 atom-2" d="M 910.6,577.9 L 865.0,553.5" style="fill:none;fill-rule:evenodd;stroke:#000000;stroke-width:2.0px;stroke-linecap:butt;stroke-linejoin:miter;stroke-opacity:1"/>
<path class="bond-2 atom-2 atom-3" d="M 865.0,553.5 L 760.6,618.4" style="fill:none;fill-rule:evenodd;stroke:#000000;stroke-width:2.0px;stroke-linecap:butt;stroke-linejoin:miter;stroke-opacity:1"/>
<path class="bond-3 atom-3 atom-4" d="M 760.6,618.4 L 714.9,594.0" style="fill:none;fill-rule:evenodd;stroke:#000000;stroke-width:2.0px;stroke-linecap:butt;stroke-linejoin:miter;stroke-opacity:1"/>
<path class="bond-3 atom-3 atom-4" d="M 714.9,594.0 L 669.3,569.5" style="fill:none;fill-rule:evenodd;stroke:#FF0000;stroke-width:2.0px;stroke-linecap:butt;stroke-linejoin:miter;stroke-opacity:1"/>
<path class="bond-4 atom-4 atom-5" d="M 635.1,571.0 L 591.5,598.2" style="fill:none;fill-rule:evenodd;stroke:#FF0000;stroke-width:2.0px;stroke-linecap:butt;stroke-linejoin:miter;stroke-opacity:1"/>
<path class="bond-4 atom-4 atom-5" d="M 591.5,598.2 L 547.8,625.3" style="fill:none;fill-rule:evenodd;stroke:#000000;stroke-width:2.0px;stroke-linecap:butt;stroke-linejoin:miter;stroke-opacity:1"/>
<path class="bond-5 atom-5 atom-6" d="M 538.4,620.3 L 540.2,675.2" style="fill:none;fill-rule:evenodd;stroke:#000000;stroke-width:2.0px;stroke-linecap:butt;stroke-linejoin:miter;stroke-opacity:1"/>
<path class="bond-5 atom-5 atom-6" d="M 540.2,675.2 L 542.0,730.1" style="fill:none;fill-rule:evenodd;stroke:#FF0000;stroke-width:2.0px;stroke-linecap:butt;stroke-linejoin:miter;stroke-opacity:1"/>
<path class="bond-5 atom-5 atom-6" d="M 556.8,619.7 L 558.6,674.6" style="fill:none;fill-rule:evenodd;stroke:#000000;stroke-width:2.0px;stroke-linecap:butt;stroke-linejoin:miter;stroke-opacity:1"/>
<path class="bond-5 atom-5 atom-6" d="M 558.6,674.6 L 560.4,729.5" style="fill:none;fill-rule:evenodd;stroke:#FF0000;stroke-width:2.0px;stroke-linecap:butt;stroke-linejoin:miter;stroke-opacity:1"/>
<path class="bond-6 atom-5 atom-7" d="M 547.8,625.3 L 439.4,567.3" style="fill:none;fill-rule:evenodd;stroke:#000000;stroke-width:2.0px;stroke-linecap:butt;stroke-linejoin:miter;stroke-opacity:1"/>
<path class="bond-7 atom-7 atom-8" d="M 439.4,567.3 L 335.0,632.2" style="fill:none;fill-rule:evenodd;stroke:#000000;stroke-width:2.0px;stroke-linecap:butt;stroke-linejoin:miter;stroke-opacity:1"/>
<path class="bond-8 atom-8 atom-9" d="M 335.0,632.2 L 226.6,574.3" style="fill:none;fill-rule:evenodd;stroke:#000000;stroke-width:2.0px;stroke-linecap:butt;stroke-linejoin:miter;stroke-opacity:1"/>
<path class="bond-9 atom-9 atom-10" d="M 226.6,574.3 L 179.8,603.4" style="fill:none;fill-rule:evenodd;stroke:#000000;stroke-width:2.0px;stroke-linecap:butt;stroke-linejoin:miter;stroke-opacity:1"/>
<path class="bond-9 atom-9 atom-10" d="M 179.8,603.4 L 133.0,632.5" style="fill:none;fill-rule:evenodd;stroke:#191919;stroke-width:2.0px;stroke-linecap:butt;stroke-linejoin:miter;stroke-opacity:1"/>
<path class="bond-10 atom-9 atom-11" d="M 236.0,579.3 L 234.3,524.6" style="fill:none;fill-rule:evenodd;stroke:#000000;stroke-width:2.0px;stroke-linecap:butt;stroke-linejoin:miter;stroke-opacity:1"/>
<path class="bond-10 atom-9 atom-11" d="M 234.3,524.6 L 232.5,469.9" style="fill:none;fill-rule:evenodd;stroke:#FF0000;stroke-width:2.0px;stroke-linecap:butt;stroke-linejoin:miter;stroke-opacity:1"/>
<path class="bond-10 atom-9 atom-11" d="M 217.6,579.9 L 215.8,525.2" style="fill:none;fill-rule:evenodd;stroke:#000000;stroke-width:2.0px;stroke-linecap:butt;stroke-linejoin:miter;stroke-opacity:1"/>
<path class="bond-10 atom-9 atom-11" d="M 215.8,525.2 L 214.0,470.5" style="fill:none;fill-rule:evenodd;stroke:#FF0000;stroke-width:2.0px;stroke-linecap:butt;stroke-linejoin:miter;stroke-opacity:1"/>
<path d="M 867.3,554.7 L 865.0,553.5 L 859.8,556.7" style="fill:none;stroke:#000000;stroke-width:2.0px;stroke-linecap:butt;stroke-linejoin:miter;stroke-opacity:1;"/>
<path d="M 765.8,615.1 L 760.6,618.4 L 758.3,617.2" style="fill:none;stroke:#000000;stroke-width:2.0px;stroke-linecap:butt;stroke-linejoin:miter;stroke-opacity:1;"/>
<path d="M 550.0,623.9 L 547.8,625.3 L 542.4,622.4" style="fill:none;stroke:#000000;stroke-width:2.0px;stroke-linecap:butt;stroke-linejoin:miter;stroke-opacity:1;"/>
<path d="M 444.8,570.2 L 439.4,567.3 L 434.2,570.6" style="fill:none;stroke:#000000;stroke-width:2.0px;stroke-linecap:butt;stroke-linejoin:miter;stroke-opacity:1;"/>
<path d="M 340.2,629.0 L 335.0,632.2 L 329.6,629.3" style="fill:none;stroke:#000000;stroke-width:2.0px;stroke-linecap:butt;stroke-linejoin:miter;stroke-opacity:1;"/>
<path d="M 232.1,577.2 L 226.6,574.3 L 224.3,575.7" style="fill:none;stroke:#000000;stroke-width:2.0px;stroke-linecap:butt;stroke-linejoin:miter;stroke-opacity:1;"/>
<path class="atom-0" d="M 1072.4 543.4 L 1076.6 539.2 L 1071.0 538.1 L 1071.9 535.2 L 1077.0 537.8 L 1076.2 532.2 L 1079.2 532.2 L 1078.4 537.7 L 1083.6 535.3 L 1084.4 538.1 L 1078.8 539.1 L 1082.8 543.4 L 1080.4 545.1 L 1077.6 539.9 L 1074.8 545.1 L 1072.4 543.4 " fill="#191919"/>
<path class="atom-1" d="M 960.4 611.5 Q 960.4 604.7, 963.7 600.9 Q 967.1 597.1, 973.4 597.1 Q 979.6 597.1, 983.0 600.9 Q 986.4 604.7, 986.4 611.5 Q 986.4 618.4, 983.0 622.3 Q 979.6 626.2, 973.4 626.2 Q 967.1 626.2, 963.7 622.3 Q 960.4 618.5, 960.4 611.5 M 973.4 623.0 Q 977.7 623.0, 980.0 620.1 Q 982.4 617.2, 982.4 611.5 Q 982.4 606.0, 980.0 603.2 Q 977.7 600.3, 973.4 600.3 Q 969.0 600.3, 966.7 603.1 Q 964.4 605.9, 964.4 611.5 Q 964.4 617.3, 966.7 620.1 Q 969.0 623.0, 973.4 623.0 " fill="#FF0000"/>
<path class="atom-4" d="M 639.2 560.5 Q 639.2 553.7, 642.6 549.9 Q 645.9 546.1, 652.2 546.1 Q 658.5 546.1, 661.8 549.9 Q 665.2 553.7, 665.2 560.5 Q 665.2 567.4, 661.8 571.3 Q 658.4 575.2, 652.2 575.2 Q 646.0 575.2, 642.6 571.3 Q 639.2 567.4, 639.2 560.5 M 652.2 572.0 Q 656.5 572.0, 658.8 569.1 Q 661.2 566.2, 661.2 560.5 Q 661.2 554.9, 658.8 552.1 Q 656.5 549.3, 652.2 549.3 Q 647.9 549.3, 645.5 552.1 Q 643.2 554.9, 643.2 560.5 Q 643.2 566.2, 645.5 569.1 Q 647.9 572.0, 652.2 572.0 " fill="#FF0000"/>
<path class="atom-6" d="M 538.8 748.2 Q 538.8 741.4, 542.2 737.6 Q 545.5 733.8, 551.8 733.8 Q 558.1 733.8, 561.4 737.6 Q 564.8 741.4, 564.8 748.2 Q 564.8 755.1, 561.4 759.0 Q 558.0 762.9, 551.8 762.9 Q 545.6 762.9, 542.2 759.0 Q 538.8 755.1, 538.8 748.2 M 551.8 759.7 Q 556.1 759.7, 558.4 756.8 Q 560.8 753.9, 560.8 748.2 Q 560.8 742.7, 558.4 739.9 Q 556.1 737.0, 551.8 737.0 Q 547.5 737.0, 545.1 739.8 Q 542.8 742.6, 542.8 748.2 Q 542.8 753.9, 545.1 756.8 Q 547.5 759.7, 551.8 759.7 " fill="#FF0000"/>
<path class="atom-10" d="M 116.9 636.0 L 121.1 631.7 L 115.6 630.6 L 116.4 627.8 L 121.5 630.3 L 120.8 624.8 L 123.8 624.7 L 122.9 630.3 L 128.1 627.9 L 129.0 630.6 L 123.4 631.7 L 127.4 635.9 L 124.9 637.7 L 122.2 632.4 L 119.4 637.7 L 116.9 636.0 " fill="#191919"/>
<path class="atom-11" d="M 209.6 451.5 Q 209.6 444.7, 213.0 440.9 Q 216.4 437.1, 222.6 437.1 Q 228.9 437.1, 232.3 440.9 Q 235.6 444.7, 235.6 451.5 Q 235.6 458.4, 232.2 462.3 Q 228.8 466.2, 222.6 466.2 Q 216.4 466.2, 213.0 462.3 Q 209.6 458.4, 209.6 451.5 M 222.6 463.0 Q 227.0 463.0, 229.3 460.1 Q 231.6 457.2, 231.6 451.5 Q 231.6 445.9, 229.3 443.1 Q 227.0 440.3, 222.6 440.3 Q 218.3 440.3, 216.0 443.1 Q 213.6 445.9, 213.6 451.5 Q 213.6 457.2, 216.0 460.1 Q 218.3 463.0, 222.6 463.0 " fill="#FF0000"/>
</svg>