<svg xmlns="http://www.w3.org/2000/svg" xmlns:rdkit="http://www.rdkit.org/xml" xmlns:xlink="http://www.w3.org/1999/xlink" version="1.1" baseProfile="full" xml:space="preserve" width="1200px" height="1600px" viewBox="0 0 1200 1600">
<!-- END OF HEADER -->
<rect style="opacity:1.0;fill:#FFFFFF;stroke:none" width="1200.0" height="1600.0" x="0.0" y="0.0"> </rect>
<path class="bond-0 atom-0 atom-1" d="M 766.3,158.9 L 744.2,197.2" style="fill:none;fill-rule:evenodd;stroke:#191919;stroke-width:2.0px;stroke-linecap:butt;stroke-linejoin:miter;stroke-opacity:1"/>
<path class="bond-0 atom-0 atom-1" d="M 744.2,197.2 L 722.1,235.4" style="fill:none;fill-rule:evenodd;stroke:#FF0000;stroke-width:2.0px;stroke-linecap:butt;stroke-linejoin:miter;stroke-opacity:1"/>
<path class="bond-1 atom-1 atom-2" d="M 695.0,253.4 L 647.5,253.4" style="fill:none;fill-rule:evenodd;stroke:#FF0000;stroke-width:2.0px;stroke-linecap:butt;stroke-linejoin:miter;stroke-opacity:1"/>
<path class="bond-1 atom-1 atom-2" d="M 647.5,253.4 L 600.0,253.4" style="fill:none;fill-rule:evenodd;stroke:#000000;stroke-width:2.0px;stroke-linecap:butt;stroke-linejoin:miter;stroke-opacity:1"/>
<path class="bond-2 atom-2 atom-3" d="M 600.0,253.4 L 551.4,354.4 L 536.9,346.0 Z" style="fill:#000000;fill-rule:evenodd;fill-opacity:1;stroke:#000000;stroke-width:0.5px;stroke-linecap:butt;stroke-linejoin:miter;stroke-opacity:1;"/>
<path class="bond-3 atom-2 atom-4" d="M 600.0,253.4 L 544.1,156.7" style="fill:none;fill-rule:evenodd;stroke:#000000;stroke-width:2.0px;stroke-linecap:butt;stroke-linejoin:miter;stroke-opacity:1"/>
<path class="bond-4 atom-4 atom-5" d="M 544.1,156.7 L 493.5,156.7" style="fill:none;fill-rule:evenodd;stroke:#000000;stroke-width:2.0px;stroke-linecap:butt;stroke-linejoin:miter;stroke-opacity:1"/>
<path class="bond-4 atom-4 atom-5" d="M 493.5,156.7 L 442.8,156.7" style="fill:none;fill-rule:evenodd;stroke:#191919;stroke-width:2.0px;stroke-linecap:butt;stroke-linejoin:miter;stroke-opacity:1"/>
<path class="bond-5 atom-4 atom-6" d="M 549.0,165.1 L 572.8,123.8" style="fill:none;fill-rule:evenodd;stroke:#000000;stroke-width:2.0px;stroke-linecap:butt;stroke-linejoin:miter;stroke-opacity:1"/>
<path class="bond-5 atom-4 atom-6" d="M 572.8,123.8 L 596.6,82.6" style="fill:none;fill-rule:evenodd;stroke:#FF0000;stroke-width:2.0px;stroke-linecap:butt;stroke-linejoin:miter;stroke-opacity:1"/>
<path class="bond-5 atom-4 atom-6" d="M 534.5,156.7 L 558.3,115.4" style="fill:none;fill-rule:evenodd;stroke:#000000;stroke-width:2.0px;stroke-linecap:butt;stroke-linejoin:miter;stroke-opacity:1"/>
<path class="bond-5 atom-4 atom-6" d="M 558.3,115.4 L 582.1,74.2" style="fill:none;fill-rule:evenodd;stroke:#FF0000;stroke-width:2.0px;stroke-linecap:butt;stroke-linejoin:miter;stroke-opacity:1"/>
<path d="M 602.4,253.4 L 600.0,253.4 L 597.2,248.6" style="fill:none;stroke:#000000;stroke-width:2.0px;stroke-linecap:butt;stroke-linejoin:miter;stroke-opacity:1;"/>
<path d="M 546.9,161.5 L 544.1,156.7 L 541.6,156.7" style="fill:none;stroke:#000000;stroke-width:2.0px;stroke-linecap:butt;stroke-linejoin:miter;stroke-opacity:1;"/>
<path class="atom-0" d="M 762.2 153.5 L 766.4 149.3 L 760.9 148.2 L 761.7 145.3 L 766.8 147.9 L 766.1 142.3 L 769.1 142.3 L 768.2 147.9 L 773.4 145.5 L 774.3 148.2 L 768.7 149.2 L 772.7 153.5 L 770.2 155.3 L 767.5 150.0 L 764.7 155.3 L 762.2 153.5 " fill="#191919"/>
<path class="atom-1" d="M 698.7 253.5 Q 698.7 246.7, 702.1 242.9 Q 705.4 239.1, 711.7 239.1 Q 718.0 239.1, 721.4 242.9 Q 724.7 246.7, 724.7 253.5 Q 724.7 260.4, 721.3 264.3 Q 717.9 268.2, 711.7 268.2 Q 705.5 268.2, 702.1 264.3 Q 698.7 260.4, 698.7 253.5 M 711.7 265.0 Q 716.0 265.0, 718.4 262.1 Q 720.7 259.2, 720.7 253.5 Q 720.7 248.0, 718.4 245.2 Q 716.0 242.3, 711.7 242.3 Q 707.4 242.3, 705.0 245.1 Q 702.7 247.9, 702.7 253.5 Q 702.7 259.2, 705.0 262.1 Q 707.4 265.0, 711.7 265.0 " fill="#FF0000"/>
<path class="atom-5" d="M 427.1 153.5 L 431.2 149.3 L 425.7 148.2 L 426.6 145.3 L 431.6 147.9 L 430.9 142.3 L 433.9 142.3 L 433.1 147.9 L 438.2 145.5 L 439.1 148.2 L 433.5 149.2 L 437.5 153.5 L 435.1 155.3 L 432.3 150.0 L 429.5 155.3 L 427.1 153.5 " fill="#191919"/>
<path class="atom-6" d="M 587.0 60.0 Q 587.0 53.2, 590.4 49.4 Q 593.7 45.6, 600.0 45.6 Q 606.3 45.6, 609.6 49.4 Q 613.0 53.2, 613.0 60.0 Q 613.0 66.9, 609.6 70.8 Q 606.2 74.7, 600.0 74.7 Q 593.8 74.7, 590.4 70.8 Q 587.0 66.9, 587.0 60.0 M 600.0 71.5 Q 604.3 71.5, 606.6 68.6 Q 609.0 65.7, 609.0 60.0 Q 609.0 54.5, 606.6 51.7 Q 604.3 48.8, 600.0 48.8 Q 595.7 48.8, 593.3 51.6 Q 591.0 54.4, 591.0 60.0 Q 591.0 65.7, 593.3 68.6 Q 595.7 71.5, 600.0 71.5 " fill="#FF0000"/>
<path class="bond-0 atom-0 atom-1" d="M 1128.5,529.9 L 1082.7,558.0" style="fill:none;fill-rule:evenodd;stroke:#191919;stroke-width:2.0px;stroke-linecap:butt;stroke-linejoin:miter;stroke-opacity:1"/>
<path class="bond-0 atom-0 atom-1" d="M 1082.7,558.0 L 1036.9,586.1" style="fill:none;fill-rule:evenodd;stroke:#000000;stroke-width:2.0px;stroke-linecap:butt;stroke-linejoin:miter;stroke-opacity:1"/>
<path class="bond-1 atom-1 atom-2" d="M 1028.4,581.4 L 1029.7,630.7" style="fill:none;fill-rule:evenodd;stroke:#000000;stroke-width:2.0px;stroke-linecap:butt;stroke-linejoin:miter;stroke-opacity:1"/>
<path class="bond-1 atom-1 atom-2" d="M 1029.7,630.7 L 1031.1,680.0" style="fill:none;fill-rule:evenodd;stroke:#FF0000;stroke-width:2.0px;stroke-linecap:butt;stroke-linejoin:miter;stroke-opacity:1"/>
<path class="bond-1 atom-1 atom-2" d="M 1045.2,581.0 L 1046.5,630.3" style="fill:none;fill-rule:evenodd;stroke:#000000;stroke-width:2.0px;stroke-linecap:butt;stroke-linejoin:miter;stroke-opacity:1"/>
<path class="bond-1 atom-1 atom-2" d="M 1046.5,630.3 L 1047.8,679.5" style="fill:none;fill-rule:evenodd;stroke:#FF0000;stroke-width:2.0px;stroke-linecap:butt;stroke-linejoin:miter;stroke-opacity:1"/>
<path class="bond-2 atom-1 atom-3" d="M 1036.9,586.1 L 995.0,563.3" style="fill:none;fill-rule:evenodd;stroke:#000000;stroke-width:2.0px;stroke-linecap:butt;stroke-linejoin:miter;stroke-opacity:1"/>
<path class="bond-2 atom-1 atom-3" d="M 995.0,563.3 L 953.1,540.6" style="fill:none;fill-rule:evenodd;stroke:#0000FF;stroke-width:2.0px;stroke-linecap:butt;stroke-linejoin:miter;stroke-opacity:1"/>
<path class="bond-3 atom-3 atom-4" d="M 924.3,541.7 L 883.9,566.5" style="fill:none;fill-rule:evenodd;stroke:#0000FF;stroke-width:2.0px;stroke-linecap:butt;stroke-linejoin:miter;stroke-opacity:1"/>
<path class="bond-3 atom-3 atom-4" d="M 883.9,566.5 L 843.5,591.2" style="fill:none;fill-rule:evenodd;stroke:#000000;stroke-width:2.0px;stroke-linecap:butt;stroke-linejoin:miter;stroke-opacity:1"/>
<path class="bond-4 atom-4 atom-5" d="M 843.5,591.2 L 745.3,538.0" style="fill:none;fill-rule:evenodd;stroke:#000000;stroke-width:2.0px;stroke-linecap:butt;stroke-linejoin:miter;stroke-opacity:1"/>
<path class="bond-5 atom-5 atom-6" d="M 745.3,538.0 L 650.1,596.4" style="fill:none;fill-rule:evenodd;stroke:#000000;stroke-width:2.0px;stroke-linecap:butt;stroke-linejoin:miter;stroke-opacity:1"/>
<path class="bond-6 atom-6 atom-7" d="M 650.1,596.4 L 551.9,543.2" style="fill:none;fill-rule:evenodd;stroke:#000000;stroke-width:2.0px;stroke-linecap:butt;stroke-linejoin:miter;stroke-opacity:1"/>
<path class="bond-7 atom-7 atom-8" d="M 551.9,543.2 L 456.6,601.6" style="fill:none;fill-rule:evenodd;stroke:#000000;stroke-width:2.0px;stroke-linecap:butt;stroke-linejoin:miter;stroke-opacity:1"/>
<path class="bond-8 atom-8 atom-9" d="M 456.6,601.6 L 358.4,548.4" style="fill:none;fill-rule:evenodd;stroke:#000000;stroke-width:2.0px;stroke-linecap:butt;stroke-linejoin:miter;stroke-opacity:1"/>
<path class="bond-9 atom-9 atom-10" d="M 358.4,548.4 L 318.0,573.2" style="fill:none;fill-rule:evenodd;stroke:#000000;stroke-width:2.0px;stroke-linecap:butt;stroke-linejoin:miter;stroke-opacity:1"/>
<path class="bond-9 atom-9 atom-10" d="M 318.0,573.2 L 277.6,598.0" style="fill:none;fill-rule:evenodd;stroke:#0000FF;stroke-width:2.0px;stroke-linecap:butt;stroke-linejoin:miter;stroke-opacity:1"/>
<path class="bond-10 atom-10 atom-11" d="M 248.8,599.0 L 206.9,576.3" style="fill:none;fill-rule:evenodd;stroke:#0000FF;stroke-width:2.0px;stroke-linecap:butt;stroke-linejoin:miter;stroke-opacity:1"/>
<path class="bond-10 atom-10 atom-11" d="M 206.9,576.3 L 165.0,553.6" style="fill:none;fill-rule:evenodd;stroke:#000000;stroke-width:2.0px;stroke-linecap:butt;stroke-linejoin:miter;stroke-opacity:1"/>
<path class="bond-11 atom-11 atom-12" d="M 165.0,553.6 L 125.7,577.7" style="fill:none;fill-rule:evenodd;stroke:#000000;stroke-width:2.0px;stroke-linecap:butt;stroke-linejoin:miter;stroke-opacity:1"/>
<path class="bond-11 atom-11 atom-12" d="M 125.7,577.7 L 86.5,601.8" style="fill:none;fill-rule:evenodd;stroke:#FF0000;stroke-width:2.0px;stroke-linecap:butt;stroke-linejoin:miter;stroke-opacity:1"/>
<path class="bond-11 atom-11 atom-12" d="M 165.5,572.9 L 134.5,592.0" style="fill:none;fill-rule:evenodd;stroke:#000000;stroke-width:2.0px;stroke-linecap:butt;stroke-linejoin:miter;stroke-opacity:1"/>
<path class="bond-11 atom-11 atom-12" d="M 134.5,592.0 L 95.2,616.1" style="fill:none;fill-rule:evenodd;stroke:#FF0000;stroke-width:2.0px;stroke-linecap:butt;stroke-linejoin:miter;stroke-opacity:1"/>
<path d="M 1039.2,584.7 L 1036.9,586.1 L 1034.8,584.9" style="fill:none;stroke:#000000;stroke-width:2.0px;stroke-linecap:butt;stroke-linejoin:miter;stroke-opacity:1;"/>
<path d="M 845.5,590.0 L 843.5,591.2 L 838.6,588.6" style="fill:none;stroke:#000000;stroke-width:2.0px;stroke-linecap:butt;stroke-linejoin:miter;stroke-opacity:1;"/>
<path d="M 750.2,540.7 L 745.3,538.0 L 740.5,540.9" style="fill:none;stroke:#000000;stroke-width:2.0px;stroke-linecap:butt;stroke-linejoin:miter;stroke-opacity:1;"/>
<path d="M 654.8,593.5 L 650.1,596.4 L 645.2,593.8" style="fill:none;stroke:#000000;stroke-width:2.0px;stroke-linecap:butt;stroke-linejoin:miter;stroke-opacity:1;"/>
<path d="M 556.8,545.9 L 551.9,543.2 L 547.1,546.1" style="fill:none;stroke:#000000;stroke-width:2.0px;stroke-linecap:butt;stroke-linejoin:miter;stroke-opacity:1;"/>
<path d="M 461.4,598.7 L 456.6,601.6 L 451.7,599.0" style="fill:none;stroke:#000000;stroke-width:2.0px;stroke-linecap:butt;stroke-linejoin:miter;stroke-opacity:1;"/>
<path d="M 363.3,551.0 L 358.4,548.4 L 356.4,549.6" style="fill:none;stroke:#000000;stroke-width:2.0px;stroke-linecap:butt;stroke-linejoin:miter;stroke-opacity:1;"/>
<path d="M 167.1,554.7 L 165.0,553.6 L 163.0,554.8" style="fill:none;stroke:#000000;stroke-width:2.0px;stroke-linecap:butt;stroke-linejoin:miter;stroke-opacity:1;"/>
<path class="atom-0" d="M 1126.8 524.5 L 1131.0 520.2 L 1125.4 519.1 L 1126.3 516.3 L 1131.4 518.8 L 1130.6 513.3 L 1133.6 513.2 L 1132.8 518.8 L 1138.0 516.4 L 1138.8 519.1 L 1133.2 520.1 L 1137.2 524.4 L 1134.8 526.2 L 1132.0 520.9 L 1129.2 526.2 L 1126.8 524.5 " fill="#191919"/>
<path class="atom-2" d="M 1026.9 697.8 Q 1026.9 691.0, 1030.3 687.2 Q 1033.6 683.4, 1039.9 683.4 Q 1046.2 683.4, 1049.6 687.2 Q 1052.9 691.0, 1052.9 697.8 Q 1052.9 704.7, 1049.5 708.6 Q 1046.1 712.5, 1039.9 712.5 Q 1033.7 712.5, 1030.3 708.6 Q 1026.9 704.7, 1026.9 697.8 M 1039.9 709.3 Q 1044.2 709.3, 1046.6 706.4 Q 1048.9 703.5, 1048.9 697.8 Q 1048.9 692.3, 1046.6 689.5 Q 1044.2 686.6, 1039.9 686.6 Q 1035.6 686.6, 1033.2 689.4 Q 1030.9 692.2, 1030.9 697.8 Q 1030.9 703.5, 1033.2 706.4 Q 1035.6 709.3, 1039.9 709.3 " fill="#FF0000"/>
<path class="atom-3" d="M 932.5 518.7 L 941.7 533.7 Q 942.7 535.1, 944.1 537.8 Q 945.6 540.5, 945.7 540.7 L 945.7 518.7 L 949.5 518.7 L 949.5 547.0 L 945.6 547.0 L 935.6 530.6 Q 934.5 528.7, 933.2 526.5 Q 932.0 524.3, 931.7 523.6 L 931.7 547.0 L 928.0 547.0 L 928.0 518.7 L 932.5 518.7 " fill="#0000FF"/>
<path class="atom-3" d="M 927.6 487.5 L 931.5 487.5 L 931.5 499.5 L 946.0 499.5 L 946.0 487.5 L 949.8 487.5 L 949.8 515.8 L 946.0 515.8 L 946.0 502.7 L 931.5 502.7 L 931.5 515.8 L 927.6 515.8 L 927.6 487.5 " fill="#0000FF"/>
<path class="atom-10" d="M 256.9 592.7 L 266.2 607.7 Q 267.1 609.1, 268.6 611.8 Q 270.1 614.5, 270.2 614.7 L 270.2 592.7 L 273.9 592.7 L 273.9 621.0 L 270.1 621.0 L 260.1 604.6 Q 258.9 602.7, 257.7 600.5 Q 256.5 598.3, 256.1 597.6 L 256.1 621.0 L 252.5 621.0 L 252.5 592.7 L 256.9 592.7 " fill="#0000FF"/>
<path class="atom-10" d="M 252.1 623.8 L 256.0 623.8 L 256.0 635.9 L 270.4 635.9 L 270.4 623.8 L 274.3 623.8 L 274.3 652.1 L 270.4 652.1 L 270.4 639.1 L 256.0 639.1 L 256.0 652.1 L 252.1 652.1 L 252.1 623.8 " fill="#0000FF"/>
<path class="atom-12" d="M 61.2 619.2 Q 61.2 612.4, 64.5 608.6 Q 67.9 604.8, 74.2 604.8 Q 80.4 604.8, 83.8 608.6 Q 87.2 612.4, 87.2 619.2 Q 87.2 626.1, 83.8 630.0 Q 80.4 633.9, 74.2 633.9 Q 67.9 633.9, 64.5 630.0 Q 61.2 626.2, 61.2 619.2 M 74.2 630.7 Q 78.5 630.7, 80.8 627.8 Q 83.2 624.9, 83.2 619.2 Q 83.2 613.7, 80.8 610.9 Q 78.5 608.0, 74.2 608.0 Q 69.8 608.0, 67.5 610.8 Q 65.2 613.6, 65.2 619.2 Q 65.2 625.0, 67.5 627.8 Q 69.8 630.7, 74.2 630.7 " fill="#FF0000"/>
<path class="bond-0 atom-0 atom-1" d="M 766.3,958.9 L 744.2,997.2" style="fill:none;fill-rule:evenodd;stroke:#191919;stroke-width:2.0px;stroke-linecap:butt;stroke-linejoin:miter;stroke-opacity:1"/>
<path class="bond-0 atom-0 atom-1" d="M 744.2,997.2 L 722.1,1035.4" style="fill:none;fill-rule:evenodd;stroke:#FF0000;stroke-width:2.0px;stroke-linecap:butt;stroke-linejoin:miter;stroke-opacity:1"/>
<path class="bond-1 atom-1 atom-2" d="M 695.0,1053.4 L 647.5,1053.4" style="fill:none;fill-rule:evenodd;stroke:#FF0000;stroke-width:2.0px;stroke-linecap:butt;stroke-linejoin:miter;stroke-opacity:1"/>
<path class="bond-1 atom-1 atom-2" d="M 647.5,1053.4 L 600.0,1053.4" style="fill:none;fill-rule:evenodd;stroke:#000000;stroke-width:2.0px;stroke-linecap:butt;stroke-linejoin:miter;stroke-opacity:1"/>
<path class="bond-2 atom-2 atom-3" d="M 598.5,1056.6 L 598.0,1056.3" style="fill:none;fill-rule:evenodd;stroke:#000000;stroke-width:1.0px;stroke-linecap:butt;stroke-linejoin:miter;stroke-opacity:1"/>
<path class="bond-2 atom-2 atom-3" d="M 597.0,1059.7 L 596.1,1059.2" style="fill:none;fill-rule:evenodd;stroke:#000000;stroke-width:1.0px;stroke-linecap:butt;stroke-linejoin:miter;stroke-opacity:1"/>
<path class="bond-2 atom-2 atom-3" d="M 595.4,1062.9 L 594.1,1062.1" style="fill:none;fill-rule:evenodd;stroke:#000000;stroke-width:1.0px;stroke-linecap:butt;stroke-linejoin:miter;stroke-opacity:1"/>
<path class="bond-2 atom-2 atom-3" d="M 593.9,1066.1 L 592.1,1065.0" style="fill:none;fill-rule:evenodd;stroke:#000000;stroke-width:1.0px;stroke-linecap:butt;stroke-linejoin:miter;stroke-opacity:1"/>
<path class="bond-2 atom-2 atom-3" d="M 592.4,1069.2 L 590.1,1067.9" style="fill:none;fill-rule:evenodd;stroke:#000000;stroke-width:1.0px;stroke-linecap:butt;stroke-linejoin:miter;stroke-opacity:1"/>
<path class="bond-2 atom-2 atom-3" d="M 590.9,1072.4 L 588.2,1070.8" style="fill:none;fill-rule:evenodd;stroke:#000000;stroke-width:1.0px;stroke-linecap:butt;stroke-linejoin:miter;stroke-opacity:1"/>
<path class="bond-2 atom-2 atom-3" d="M 589.4,1075.5 L 586.2,1073.7" style="fill:none;fill-rule:evenodd;stroke:#000000;stroke-width:1.0px;stroke-linecap:butt;stroke-linejoin:miter;stroke-opacity:1"/>
<path class="bond-2 atom-2 atom-3" d="M 587.8,1078.7 L 584.2,1076.6" style="fill:none;fill-rule:evenodd;stroke:#000000;stroke-width:1.0px;stroke-linecap:butt;stroke-linejoin:miter;stroke-opacity:1"/>
<path class="bond-2 atom-2 atom-3" d="M 586.3,1081.8 L 582.2,1079.5" style="fill:none;fill-rule:evenodd;stroke:#000000;stroke-width:1.0px;stroke-linecap:butt;stroke-linejoin:miter;stroke-opacity:1"/>
<path class="bond-2 atom-2 atom-3" d="M 584.8,1085.0 L 580.3,1082.4" style="fill:none;fill-rule:evenodd;stroke:#000000;stroke-width:1.0px;stroke-linecap:butt;stroke-linejoin:miter;stroke-opacity:1"/>
<path class="bond-2 atom-2 atom-3" d="M 583.3,1088.1 L 578.3,1085.3" style="fill:none;fill-rule:evenodd;stroke:#000000;stroke-width:1.0px;stroke-linecap:butt;stroke-linejoin:miter;stroke-opacity:1"/>
<path class="bond-2 atom-2 atom-3" d="M 581.8,1091.3 L 576.3,1088.2" style="fill:none;fill-rule:evenodd;stroke:#000000;stroke-width:1.0px;stroke-linecap:butt;stroke-linejoin:miter;stroke-opacity:1"/>
<path class="bond-2 atom-2 atom-3" d="M 580.3,1094.4 L 574.4,1091.0" style="fill:none;fill-rule:evenodd;stroke:#000000;stroke-width:1.0px;stroke-linecap:butt;stroke-linejoin:miter;stroke-opacity:1"/>
<path class="bond-2 atom-2 atom-3" d="M 578.7,1097.6 L 572.4,1093.9" style="fill:none;fill-rule:evenodd;stroke:#000000;stroke-width:1.0px;stroke-linecap:butt;stroke-linejoin:miter;stroke-opacity:1"/>
<path class="bond-2 atom-2 atom-3" d="M 577.2,1100.8 L 570.4,1096.8" style="fill:none;fill-rule:evenodd;stroke:#000000;stroke-width:1.0px;stroke-linecap:butt;stroke-linejoin:miter;stroke-opacity:1"/>
<path class="bond-2 atom-2 atom-3" d="M 575.7,1103.9 L 568.4,1099.7" style="fill:none;fill-rule:evenodd;stroke:#000000;stroke-width:1.0px;stroke-linecap:butt;stroke-linejoin:miter;stroke-opacity:1"/>
<path class="bond-2 atom-2 atom-3" d="M 574.2,1107.1 L 566.5,1102.6" style="fill:none;fill-rule:evenodd;stroke:#000000;stroke-width:1.0px;stroke-linecap:butt;stroke-linejoin:miter;stroke-opacity:1"/>
<path class="bond-2 atom-2 atom-3" d="M 572.7,1110.2 L 564.5,1105.5" style="fill:none;fill-rule:evenodd;stroke:#000000;stroke-width:1.0px;stroke-linecap:butt;stroke-linejoin:miter;stroke-opacity:1"/>
<path class="bond-2 atom-2 atom-3" d="M 571.1,1113.4 L 562.5,1108.4" style="fill:none;fill-rule:evenodd;stroke:#000000;stroke-width:1.0px;stroke-linecap:butt;stroke-linejoin:miter;stroke-opacity:1"/>
<path class="bond-2 atom-2 atom-3" d="M 569.6,1116.5 L 560.6,1111.3" style="fill:none;fill-rule:evenodd;stroke:#000000;stroke-width:1.0px;stroke-linecap:butt;stroke-linejoin:miter;stroke-opacity:1"/>
<path class="bond-2 atom-2 atom-3" d="M 568.1,1119.7 L 558.6,1114.2" style="fill:none;fill-rule:evenodd;stroke:#000000;stroke-width:1.0px;stroke-linecap:butt;stroke-linejoin:miter;stroke-opacity:1"/>
<path class="bond-2 atom-2 atom-3" d="M 566.6,1122.8 L 556.6,1117.1" style="fill:none;fill-rule:evenodd;stroke:#000000;stroke-width:1.0px;stroke-linecap:butt;stroke-linejoin:miter;stroke-opacity:1"/>
<path class="bond-2 atom-2 atom-3" d="M 565.1,1126.0 L 554.6,1120.0" style="fill:none;fill-rule:evenodd;stroke:#000000;stroke-width:1.0px;stroke-linecap:butt;stroke-linejoin:miter;stroke-opacity:1"/>
<path class="bond-2 atom-2 atom-3" d="M 563.5,1129.1 L 552.7,1122.9" style="fill:none;fill-rule:evenodd;stroke:#000000;stroke-width:1.0px;stroke-linecap:butt;stroke-linejoin:miter;stroke-opacity:1"/>
<path class="bond-2 atom-2 atom-3" d="M 562.0,1132.3 L 550.7,1125.8" style="fill:none;fill-rule:evenodd;stroke:#000000;stroke-width:1.0px;stroke-linecap:butt;stroke-linejoin:miter;stroke-opacity:1"/>
<path class="bond-2 atom-2 atom-3" d="M 560.5,1135.5 L 548.7,1128.6" style="fill:none;fill-rule:evenodd;stroke:#000000;stroke-width:1.0px;stroke-linecap:butt;stroke-linejoin:miter;stroke-opacity:1"/>
<path class="bond-2 atom-2 atom-3" d="M 559.0,1138.6 L 546.7,1131.5" style="fill:none;fill-rule:evenodd;stroke:#000000;stroke-width:1.0px;stroke-linecap:butt;stroke-linejoin:miter;stroke-opacity:1"/>
<path class="bond-2 atom-2 atom-3" d="M 557.5,1141.8 L 544.8,1134.4" style="fill:none;fill-rule:evenodd;stroke:#000000;stroke-width:1.0px;stroke-linecap:butt;stroke-linejoin:miter;stroke-opacity:1"/>
<path class="bond-2 atom-2 atom-3" d="M 556.0,1144.9 L 542.8,1137.3" style="fill:none;fill-rule:evenodd;stroke:#000000;stroke-width:1.0px;stroke-linecap:butt;stroke-linejoin:miter;stroke-opacity:1"/>
<path class="bond-2 atom-2 atom-3" d="M 554.4,1148.1 L 540.8,1140.2" style="fill:none;fill-rule:evenodd;stroke:#000000;stroke-width:1.0px;stroke-linecap:butt;stroke-linejoin:miter;stroke-opacity:1"/>
<path class="bond-2 atom-2 atom-3" d="M 552.9,1151.2 L 538.9,1143.1" style="fill:none;fill-rule:evenodd;stroke:#000000;stroke-width:1.0px;stroke-linecap:butt;stroke-linejoin:miter;stroke-opacity:1"/>
<path class="bond-2 atom-2 atom-3" d="M 551.4,1154.4 L 536.9,1146.0" style="fill:none;fill-rule:evenodd;stroke:#000000;stroke-width:1.0px;stroke-linecap:butt;stroke-linejoin:miter;stroke-opacity:1"/>
<path class="bond-3 atom-2 atom-4" d="M 600.0,1053.4 L 544.1,956.7" style="fill:none;fill-rule:evenodd;stroke:#000000;stroke-width:2.0px;stroke-linecap:butt;stroke-linejoin:miter;stroke-opacity:1"/>
<path class="bond-4 atom-4 atom-5" d="M 544.1,956.7 L 493.5,956.7" style="fill:none;fill-rule:evenodd;stroke:#000000;stroke-width:2.0px;stroke-linecap:butt;stroke-linejoin:miter;stroke-opacity:1"/>
<path class="bond-4 atom-4 atom-5" d="M 493.5,956.7 L 442.8,956.7" style="fill:none;fill-rule:evenodd;stroke:#191919;stroke-width:2.0px;stroke-linecap:butt;stroke-linejoin:miter;stroke-opacity:1"/>
<path class="bond-5 atom-4 atom-6" d="M 549.0,965.1 L 572.8,923.8" style="fill:none;fill-rule:evenodd;stroke:#000000;stroke-width:2.0px;stroke-linecap:butt;stroke-linejoin:miter;stroke-opacity:1"/>
<path class="bond-5 atom-4 atom-6" d="M 572.8,923.8 L 596.6,882.6" style="fill:none;fill-rule:evenodd;stroke:#FF0000;stroke-width:2.0px;stroke-linecap:butt;stroke-linejoin:miter;stroke-opacity:1"/>
<path class="bond-5 atom-4 atom-6" d="M 534.5,956.7 L 558.3,915.4" style="fill:none;fill-rule:evenodd;stroke:#000000;stroke-width:2.0px;stroke-linecap:butt;stroke-linejoin:miter;stroke-opacity:1"/>
<path class="bond-5 atom-4 atom-6" d="M 558.3,915.4 L 582.1,874.2" style="fill:none;fill-rule:evenodd;stroke:#FF0000;stroke-width:2.0px;stroke-linecap:butt;stroke-linejoin:miter;stroke-opacity:1"/>
<path d="M 602.4,1053.4 L 600.0,1053.4 L 597.2,1048.6" style="fill:none;stroke:#000000;stroke-width:2.0px;stroke-linecap:butt;stroke-linejoin:miter;stroke-opacity:1;"/>
<path d="M 546.9,961.5 L 544.1,956.7 L 541.6,956.7" style="fill:none;stroke:#000000;stroke-width:2.0px;stroke-linecap:butt;stroke-linejoin:miter;stroke-opacity:1;"/>
<path class="atom-0" d="M 762.2 953.5 L 766.4 949.3 L 760.9 948.2 L 761.7 945.3 L 766.8 947.9 L 766.1 942.3 L 769.1 942.3 L 768.2 947.9 L 773.4 945.5 L 774.3 948.2 L 768.7 949.2 L 772.7 953.5 L 770.2 955.3 L 767.5 950.0 L 764.7 955.3 L 762.2 953.5 " fill="#191919"/>
<path class="atom-1" d="M 698.7 1053.5 Q 698.7 1046.7, 702.1 1042.9 Q 705.4 1039.1, 711.7 1039.1 Q 718.0 1039.1, 721.4 1042.9 Q 724.7 1046.7, 724.7 1053.5 Q 724.7 1060.4, 721.3 1064.3 Q 717.9 1068.2, 711.7 1068.2 Q 705.5 1068.2, 702.1 1064.3 Q 698.7 1060.4, 698.7 1053.5 M 711.7 1065.0 Q 716.0 1065.0, 718.4 1062.1 Q 720.7 1059.2, 720.7 1053.5 Q 720.7 1048.0, 718.4 1045.2 Q 716.0 1042.3, 711.7 1042.3 Q 707.4 1042.3, 705.0 1045.1 Q 702.7 1047.9, 702.7 1053.5 Q 702.7 1059.2, 705.0 1062.1 Q 707.4 1065.0, 711.7 1065.0 " fill="#FF0000"/>
<path class="atom-5" d="M 427.1 953.5 L 431.2 949.3 L 425.7 948.2 L 426.6 945.3 L 431.6 947.9 L 430.9 942.3 L 433.9 942.3 L 433.1 947.9 L 438.2 945.5 L 439.1 948.2 L 433.5 949.2 L 437.5 953.5 L 435.1 955.3 L 432.3 950.0 L 429.5 955.3 L 427.1 953.5 " fill="#191919"/>
<path class="atom-6" d="M 587.0 860.0 Q 587.0 853.2, 590.4 849.4 Q 593.7 845.6, 600.0 845.6 Q 606.3 845.6, 609.6 849.4 Q 613.0 853.2, 613.0 860.0 Q 613.0 866.9, 609.6 870.8 Q 606.2 874.7, 600.0 874.7 Q 593.8 874.7, 590.4 870.8 Q 587.0 866.9, 587.0 860.0 M 600.0 871.5 Q 604.3 871.5, 606.6 868.6 Q 609.0 865.7, 609.0 860.0 Q 609.0 854.5, 606.6 851.7 Q 604.3 848.8, 600.0 848.8 Q 595.7 848.8, 593.3 851.6 Q 591.0 854.4, 591.0 860.0 Q 591.0 865.7, 593.3 868.6 Q 595.7 871.5, 600.0 871.5 " fill="#FF0000"/>
<path class="bond-0 atom-0 atom-1" d="M 893.9,1304.5 L 869.1,1340.2" style="fill:none;fill-rule:evenodd;stroke:#191919;stroke-width:2.0px;stroke-linecap:butt;stroke-linejoin:miter;stroke-opacity:1"/>
<path class="bond-0 atom-0 atom-1" d="M 869.1,1340.2 L 844.2,1376.0" style="fill:none;fill-rule:evenodd;stroke:#FF0000;stroke-width:2.0px;stroke-linecap:butt;stroke-linejoin:miter;stroke-opacity:1"/>
<path class="bond-1 atom-1 atom-2" d="M 815.0,1392.6 L 767.7,1388.6" style="fill:none;fill-rule:evenodd;stroke:#FF0000;stroke-width:2.0px;stroke-linecap:butt;stroke-linejoin:miter;stroke-opacity:1"/>
<path class="bond-1 atom-1 atom-2" d="M 767.7,1388.6 L 720.4,1384.6" style="fill:none;fill-rule:evenodd;stroke:#000000;stroke-width:2.0px;stroke-linecap:butt;stroke-linejoin:miter;stroke-opacity:1"/>
<path class="bond-2 atom-2 atom-3" d="M 720.4,1384.6 L 656.6,1476.4" style="fill:none;fill-rule:evenodd;stroke:#000000;stroke-width:2.0px;stroke-linecap:butt;stroke-linejoin:miter;stroke-opacity:1"/>
<path class="bond-3 atom-3 atom-4" d="M 656.6,1476.4 L 608.2,1472.3" style="fill:none;fill-rule:evenodd;stroke:#000000;stroke-width:2.0px;stroke-linecap:butt;stroke-linejoin:miter;stroke-opacity:1"/>
<path class="bond-3 atom-3 atom-4" d="M 608.2,1472.3 L 559.7,1468.3" style="fill:none;fill-rule:evenodd;stroke:#0000FF;stroke-width:2.0px;stroke-linecap:butt;stroke-linejoin:miter;stroke-opacity:1"/>
<path class="bond-4 atom-4 atom-5" d="M 532.9,1484.9 L 507.2,1521.8" style="fill:none;fill-rule:evenodd;stroke:#0000FF;stroke-width:2.0px;stroke-linecap:butt;stroke-linejoin:miter;stroke-opacity:1"/>
<path class="bond-4 atom-4 atom-5" d="M 507.2,1521.8 L 481.5,1558.8" style="fill:none;fill-rule:evenodd;stroke:#000000;stroke-width:2.0px;stroke-linecap:butt;stroke-linejoin:miter;stroke-opacity:1"/>
<path class="bond-5 atom-4 atom-6" d="M 536.9,1449.2 L 517.3,1407.6" style="fill:none;fill-rule:evenodd;stroke:#0000FF;stroke-width:2.0px;stroke-linecap:butt;stroke-linejoin:miter;stroke-opacity:1"/>
<path class="bond-5 atom-4 atom-6" d="M 517.3,1407.6 L 497.7,1366.0" style="fill:none;fill-rule:evenodd;stroke:#000000;stroke-width:2.0px;stroke-linecap:butt;stroke-linejoin:miter;stroke-opacity:1"/>
<path class="bond-6 atom-6 atom-7" d="M 497.7,1366.0 L 386.4,1356.6" style="fill:none;fill-rule:evenodd;stroke:#000000;stroke-width:2.0px;stroke-linecap:butt;stroke-linejoin:miter;stroke-opacity:1"/>
<path class="bond-7 atom-7 atom-8" d="M 386.4,1356.6 L 366.9,1315.3" style="fill:none;fill-rule:evenodd;stroke:#000000;stroke-width:2.0px;stroke-linecap:butt;stroke-linejoin:miter;stroke-opacity:1"/>
<path class="bond-7 atom-7 atom-8" d="M 366.9,1315.3 L 347.5,1274.0" style="fill:none;fill-rule:evenodd;stroke:#FF0000;stroke-width:2.0px;stroke-linecap:butt;stroke-linejoin:miter;stroke-opacity:1"/>
<path d="M 722.7,1384.8 L 720.4,1384.6 L 717.2,1389.2" style="fill:none;stroke:#000000;stroke-width:2.0px;stroke-linecap:butt;stroke-linejoin:miter;stroke-opacity:1;"/>
<path d="M 659.8,1471.8 L 656.6,1476.4 L 654.2,1476.2" style="fill:none;stroke:#000000;stroke-width:2.0px;stroke-linecap:butt;stroke-linejoin:miter;stroke-opacity:1;"/>
<path d="M 498.7,1368.0 L 497.7,1366.0 L 492.2,1365.5" style="fill:none;stroke:#000000;stroke-width:2.0px;stroke-linecap:butt;stroke-linejoin:miter;stroke-opacity:1;"/>
<path d="M 392.0,1357.1 L 386.4,1356.6 L 385.4,1354.6" style="fill:none;stroke:#000000;stroke-width:2.0px;stroke-linecap:butt;stroke-linejoin:miter;stroke-opacity:1;"/>
<path class="atom-0" d="M 890.1 1299.1 L 894.3 1294.8 L 888.8 1293.7 L 889.6 1290.9 L 894.7 1293.4 L 894.0 1287.9 L 897.0 1287.8 L 896.1 1293.4 L 901.3 1291.0 L 902.2 1293.7 L 896.6 1294.8 L 900.6 1299.0 L 898.1 1300.8 L 895.4 1295.5 L 892.6 1300.8 L 890.1 1299.1 " fill="#191919"/>
<path class="atom-1" d="M 818.7 1394.1 Q 818.7 1387.3, 822.1 1383.5 Q 825.4 1379.7, 831.7 1379.7 Q 838.0 1379.7, 841.3 1383.5 Q 844.7 1387.3, 844.7 1394.1 Q 844.7 1400.9, 841.3 1404.9 Q 837.9 1408.7, 831.7 1408.7 Q 825.5 1408.7, 822.1 1404.9 Q 818.7 1401.0, 818.7 1394.1 M 831.7 1405.5 Q 836.0 1405.5, 838.3 1402.7 Q 840.7 1399.7, 840.7 1394.1 Q 840.7 1388.5, 838.3 1385.7 Q 836.0 1382.9, 831.7 1382.9 Q 827.4 1382.9, 825.0 1385.7 Q 822.7 1388.5, 822.7 1394.1 Q 822.7 1399.8, 825.0 1402.7 Q 827.4 1405.5, 831.7 1405.5 " fill="#FF0000"/>
<path class="atom-4" d="M 539.0 1452.9 L 548.3 1467.9 Q 549.2 1469.4, 550.7 1472.0 Q 552.2 1474.7, 552.3 1474.9 L 552.3 1452.9 L 556.0 1452.9 L 556.0 1481.2 L 552.2 1481.2 L 542.2 1464.8 Q 541.0 1462.9, 539.8 1460.7 Q 538.6 1458.5, 538.2 1457.8 L 538.2 1481.2 L 534.6 1481.2 L 534.6 1452.9 L 539.0 1452.9 " fill="#0000FF"/>
<path class="atom-8" d="M 297.8 1241.5 L 301.7 1241.5 L 301.7 1253.6 L 316.2 1253.6 L 316.2 1241.5 L 320.0 1241.5 L 320.0 1269.9 L 316.2 1269.9 L 316.2 1256.8 L 301.7 1256.8 L 301.7 1269.9 L 297.8 1269.9 L 297.8 1241.5 " fill="#FF0000"/>
<path class="atom-8" d="M 325.8 1255.6 Q 325.8 1248.8, 329.2 1245.0 Q 332.5 1241.2, 338.8 1241.2 Q 345.1 1241.2, 348.5 1245.0 Q 351.8 1248.8, 351.8 1255.6 Q 351.8 1262.5, 348.4 1266.4 Q 345.0 1270.3, 338.8 1270.3 Q 332.6 1270.3, 329.2 1266.4 Q 325.8 1262.5, 325.8 1255.6 M 338.8 1267.1 Q 343.1 1267.1, 345.5 1264.2 Q 347.8 1261.3, 347.8 1255.6 Q 347.8 1250.1, 345.5 1247.3 Q 343.1 1244.4, 338.8 1244.4 Q 334.5 1244.4, 332.1 1247.2 Q 329.8 1250.0, 329.8 1255.6 Q 329.8 1261.3, 332.1 1264.2 Q 334.5 1267.1, 338.8 1267.1 " fill="#FF0000"/>
</svg>