<svg xmlns="http://www.w3.org/2000/svg" xmlns:rdkit="http://www.rdkit.org/xml" xmlns:xlink="http://www.w3.org/1999/xlink" version="1.1" baseProfile="full" xml:space="preserve" width="1200px" height="1600px" viewBox="0 0 1200 1600">
<!-- END OF HEADER -->
<rect style="opacity:1.0;fill:#FFFFFF;stroke:none" width="1200.0" height="1600.0" x="0.0" y="0.0"> </rect>
<path class="bond-0 atom-0 atom-1" d="M 1128.5,129.9 L 1082.7,158.0" style="fill:none;fill-rule:evenodd;stroke:#191919;stroke-width:2.0px;stroke-linecap:butt;stroke-linejoin:miter;stroke-opacity:1"/>
<path class="bond-0 atom-0 atom-1" d="M 1082.7,158.0 L 1036.9,186.1" style="fill:none;fill-rule:evenodd;stroke:#000000;stroke-width:2.0px;stroke-linecap:butt;stroke-linejoin:miter;stroke-opacity:1"/>
<path class="bond-1 atom-1 atom-2" d="M 1028.4,181.4 L 1029.7,230.7" style="fill:none;fill-rule:evenodd;stroke:#000000;stroke-width:2.0px;stroke-linecap:butt;stroke-linejoin:miter;stroke-opacity:1"/>
<path class="bond-1 atom-1 atom-2" d="M 1029.7,230.7 L 1031.1,280.0" style="fill:none;fill-rule:evenodd;stroke:#FF0000;stroke-width:2.0px;stroke-linecap:butt;stroke-linejoin:miter;stroke-opacity:1"/>
<path class="bond-1 atom-1 atom-2" d="M 1045.2,181.0 L 1046.5,230.3" style="fill:none;fill-rule:evenodd;stroke:#000000;stroke-width:2.0px;stroke-linecap:butt;stroke-linejoin:miter;stroke-opacity:1"/>
<path class="bond-1 atom-1 atom-2" d="M 1046.5,230.3 L 1047.8,279.5" style="fill:none;fill-rule:evenodd;stroke:#FF0000;stroke-width:2.0px;stroke-linecap:butt;stroke-linejoin:miter;stroke-opacity:1"/>
<path class="bond-2 atom-1 atom-3" d="M 1036.9,186.1 L 995.0,163.3" style="fill:none;fill-rule:evenodd;stroke:#000000;stroke-width:2.0px;stroke-linecap:butt;stroke-linejoin:miter;stroke-opacity:1"/>
<path class="bond-2 atom-1 atom-3" d="M 995.0,163.3 L 953.1,140.6" style="fill:none;fill-rule:evenodd;stroke:#0000FF;stroke-width:2.0px;stroke-linecap:butt;stroke-linejoin:miter;stroke-opacity:1"/>
<path class="bond-3 atom-3 atom-4" d="M 924.3,141.7 L 883.9,166.5" style="fill:none;fill-rule:evenodd;stroke:#0000FF;stroke-width:2.0px;stroke-linecap:butt;stroke-linejoin:miter;stroke-opacity:1"/>
<path class="bond-3 atom-3 atom-4" d="M 883.9,166.5 L 843.5,191.2" style="fill:none;fill-rule:evenodd;stroke:#000000;stroke-width:2.0px;stroke-linecap:butt;stroke-linejoin:miter;stroke-opacity:1"/>
<path class="bond-4 atom-4 atom-5" d="M 843.5,191.2 L 745.3,138.0" style="fill:none;fill-rule:evenodd;stroke:#000000;stroke-width:2.0px;stroke-linecap:butt;stroke-linejoin:miter;stroke-opacity:1"/>
<path class="bond-5 atom-5 atom-6" d="M 745.3,138.0 L 650.1,196.4" style="fill:none;fill-rule:evenodd;stroke:#000000;stroke-width:2.0px;stroke-linecap:butt;stroke-linejoin:miter;stroke-opacity:1"/>
<path class="bond-6 atom-6 atom-7" d="M 650.1,196.4 L 551.9,143.2" style="fill:none;fill-rule:evenodd;stroke:#000000;stroke-width:2.0px;stroke-linecap:butt;stroke-linejoin:miter;stroke-opacity:1"/>
<path class="bond-7 atom-7 atom-8" d="M 551.9,143.2 L 456.6,201.6" style="fill:none;fill-rule:evenodd;stroke:#000000;stroke-width:2.0px;stroke-linecap:butt;stroke-linejoin:miter;stroke-opacity:1"/>
<path class="bond-8 atom-8 atom-9" d="M 456.6,201.6 L 358.4,148.4" style="fill:none;fill-rule:evenodd;stroke:#000000;stroke-width:2.0px;stroke-linecap:butt;stroke-linejoin:miter;stroke-opacity:1"/>
<path class="bond-9 atom-9 atom-10" d="M 358.4,148.4 L 318.0,173.2" style="fill:none;fill-rule:evenodd;stroke:#000000;stroke-width:2.0px;stroke-linecap:butt;stroke-linejoin:miter;stroke-opacity:1"/>
<path class="bond-9 atom-9 atom-10" d="M 318.0,173.2 L 277.6,198.0" style="fill:none;fill-rule:evenodd;stroke:#0000FF;stroke-width:2.0px;stroke-linecap:butt;stroke-linejoin:miter;stroke-opacity:1"/>
<path class="bond-10 atom-10 atom-11" d="M 248.8,199.0 L 206.9,176.3" style="fill:none;fill-rule:evenodd;stroke:#0000FF;stroke-width:2.0px;stroke-linecap:butt;stroke-linejoin:miter;stroke-opacity:1"/>
<path class="bond-10 atom-10 atom-11" d="M 206.9,176.3 L 165.0,153.6" style="fill:none;fill-rule:evenodd;stroke:#000000;stroke-width:2.0px;stroke-linecap:butt;stroke-linejoin:miter;stroke-opacity:1"/>
<path class="bond-11 atom-11 atom-12" d="M 165.0,153.6 L 125.7,177.7" style="fill:none;fill-rule:evenodd;stroke:#000000;stroke-width:2.0px;stroke-linecap:butt;stroke-linejoin:miter;stroke-opacity:1"/>
<path class="bond-11 atom-11 atom-12" d="M 125.7,177.7 L 86.5,201.8" style="fill:none;fill-rule:evenodd;stroke:#FF0000;stroke-width:2.0px;stroke-linecap:butt;stroke-linejoin:miter;stroke-opacity:1"/>
<path class="bond-11 atom-11 atom-12" d="M 165.5,172.9 L 134.5,192.0" style="fill:none;fill-rule:evenodd;stroke:#000000;stroke-width:2.0px;stroke-linecap:butt;stroke-linejoin:miter;stroke-opacity:1"/>
<path class="bond-11 atom-11 atom-12" d="M 134.5,192.0 L 95.2,216.1" style="fill:none;fill-rule:evenodd;stroke:#FF0000;stroke-width:2.0px;stroke-linecap:butt;stroke-linejoin:miter;stroke-opacity:1"/>
<path d="M 1039.2,184.7 L 1036.9,186.1 L 1034.8,184.9" style="fill:none;stroke:#000000;stroke-width:2.0px;stroke-linecap:butt;stroke-linejoin:miter;stroke-opacity:1;"/>
<path d="M 845.5,190.0 L 843.5,191.2 L 838.6,188.6" style="fill:none;stroke:#000000;stroke-width:2.0px;stroke-linecap:butt;stroke-linejoin:miter;stroke-opacity:1;"/>
<path d="M 750.2,140.7 L 745.3,138.0 L 740.5,140.9" style="fill:none;stroke:#000000;stroke-width:2.0px;stroke-linecap:butt;stroke-linejoin:miter;stroke-opacity:1;"/>
<path d="M 654.8,193.5 L 650.1,196.4 L 645.2,193.8" style="fill:none;stroke:#000000;stroke-width:2.0px;stroke-linecap:butt;stroke-linejoin:miter;stroke-opacity:1;"/>
<path d="M 556.8,145.9 L 551.9,143.2 L 547.1,146.1" style="fill:none;stroke:#000000;stroke-width:2.0px;stroke-linecap:butt;stroke-linejoin:miter;stroke-opacity:1;"/>
<path d="M 461.4,198.7 L 456.6,201.6 L 451.7,199.0" style="fill:none;stroke:#000000;stroke-width:2.0px;stroke-linecap:butt;stroke-linejoin:miter;stroke-opacity:1;"/>
<path d="M 363.3,151.0 L 358.4,148.4 L 356.4,149.6" style="fill:none;stroke:#000000;stroke-width:2.0px;stroke-linecap:butt;stroke-linejoin:miter;stroke-opacity:1;"/>
<path d="M 167.1,154.7 L 165.0,153.6 L 163.0,154.8" style="fill:none;stroke:#000000;stroke-width:2.0px;stroke-linecap:butt;stroke-linejoin:miter;stroke-opacity:1;"/>
<path class="atom-0" d="M 1126.8 124.5 L 1131.0 120.2 L 1125.4 119.1 L 1126.3 116.3 L 1131.4 118.8 L 1130.6 113.3 L 1133.6 113.2 L 1132.8 118.8 L 1138.0 116.4 L 1138.8 119.1 L 1133.2 120.1 L 1137.2 124.4 L 1134.8 126.2 L 1132.0 120.9 L 1129.2 126.2 L 1126.8 124.5 " fill="#191919"/>
<path class="atom-2" d="M 1026.9 297.8 Q 1026.9 291.0, 1030.3 287.2 Q 1033.6 283.4, 1039.9 283.4 Q 1046.2 283.4, 1049.6 287.2 Q 1052.9 291.0, 1052.9 297.8 Q 1052.9 304.7, 1049.5 308.6 Q 1046.1 312.5, 1039.9 312.5 Q 1033.7 312.5, 1030.3 308.6 Q 1026.9 304.7, 1026.9 297.8 M 1039.9 309.3 Q 1044.2 309.3, 1046.6 306.4 Q 1048.9 303.5, 1048.9 297.8 Q 1048.9 292.3, 1046.6 289.5 Q 1044.2 286.6, 1039.9 286.6 Q 1035.6 286.6, 1033.2 289.4 Q 1030.9 292.2, 1030.9 297.8 Q 1030.9 303.5, 1033.2 306.4 Q 1035.6 309.3, 1039.9 309.3 " fill="#FF0000"/>
<path class="atom-3" d="M 932.5 118.7 L 941.7 133.7 Q 942.7 135.1, 944.1 137.8 Q 945.6 140.5, 945.7 140.7 L 945.7 118.7 L 949.5 118.7 L 949.5 147.0 L 945.6 147.0 L 935.6 130.6 Q 934.5 128.7, 933.2 126.5 Q 932.0 124.3, 931.7 123.6 L 931.7 147.0 L 928.0 147.0 L 928.0 118.7 L 932.5 118.7 " fill="#0000FF"/>
<path class="atom-3" d="M 927.6 87.5 L 931.5 87.5 L 931.5 99.5 L 946.0 99.5 L 946.0 87.5 L 949.8 87.5 L 949.8 115.8 L 946.0 115.8 L 946.0 102.7 L 931.5 102.7 L 931.5 115.8 L 927.6 115.8 L 927.6 87.5 " fill="#0000FF"/>
<path class="atom-10" d="M 256.9 192.7 L 266.2 207.7 Q 267.1 209.1, 268.6 211.8 Q 270.1 214.5, 270.2 214.7 L 270.2 192.7 L 273.9 192.7 L 273.9 221.0 L 270.1 221.0 L 260.1 204.6 Q 258.9 202.7, 257.7 200.5 Q 256.5 198.3, 256.1 197.6 L 256.1 221.0 L 252.5 221.0 L 252.5 192.7 L 256.9 192.7 " fill="#0000FF"/>
<path class="atom-10" d="M 252.1 223.8 L 256.0 223.8 L 256.0 235.9 L 270.4 235.9 L 270.4 223.8 L 274.3 223.8 L 274.3 252.1 L 270.4 252.1 L 270.4 239.1 L 256.0 239.1 L 256.0 252.1 L 252.1 252.1 L 252.1 223.8 " fill="#0000FF"/>
<path class="atom-12" d="M 61.2 219.2 Q 61.2 212.4, 64.5 208.6 Q 67.9 204.8, 74.2 204.8 Q 80.4 204.8, 83.8 208.6 Q 87.2 212.4, 87.2 219.2 Q 87.2 226.1, 83.8 230.0 Q 80.4 233.9, 74.2 233.9 Q 67.9 233.9, 64.5 230.0 Q 61.2 226.2, 61.2 219.2 M 74.2 230.7 Q 78.5 230.7, 80.8 227.8 Q 83.2 224.9, 83.2 219.2 Q 83.2 213.7, 80.8 210.9 Q 78.5 208.0, 74.2 208.0 Q 69.8 208.0, 67.5 210.8 Q 65.2 213.6, 65.2 219.2 Q 65.2 225.0, 67.5 227.8 Q 69.8 230.7, 74.2 230.7 " fill="#FF0000"/>
<path class="bond-0 atom-0 atom-1" d="M 766.3,558.9 L 744.2,597.2" style="fill:none;fill-rule:evenodd;stroke:#191919;stroke-width:2.0px;stroke-linecap:butt;stroke-linejoin:miter;stroke-opacity:1"/>
<path class="bond-0 atom-0 atom-1" d="M 744.2,597.2 L 722.1,635.4" style="fill:none;fill-rule:evenodd;stroke:#FF0000;stroke-width:2.0px;stroke-linecap:butt;stroke-linejoin:miter;stroke-opacity:1"/>
<path class="bond-1 atom-1 atom-2" d="M 695.0,653.4 L 647.5,653.4" style="fill:none;fill-rule:evenodd;stroke:#FF0000;stroke-width:2.0px;stroke-linecap:butt;stroke-linejoin:miter;stroke-opacity:1"/>
<path class="bond-1 atom-1 atom-2" d="M 647.5,653.4 L 600.0,653.4" style="fill:none;fill-rule:evenodd;stroke:#000000;stroke-width:2.0px;stroke-linecap:butt;stroke-linejoin:miter;stroke-opacity:1"/>
<path class="bond-2 atom-2 atom-3" d="M 600.0,653.4 L 551.4,754.4 L 536.9,746.0 Z" style="fill:#000000;fill-rule:evenodd;fill-opacity:1;stroke:#000000;stroke-width:0.5px;stroke-linecap:butt;stroke-linejoin:miter;stroke-opacity:1;"/>
<path class="bond-3 atom-2 atom-4" d="M 600.0,653.4 L 544.1,556.7" style="fill:none;fill-rule:evenodd;stroke:#000000;stroke-width:2.0px;stroke-linecap:butt;stroke-linejoin:miter;stroke-opacity:1"/>
<path class="bond-4 atom-4 atom-5" d="M 544.1,556.7 L 493.5,556.7" style="fill:none;fill-rule:evenodd;stroke:#000000;stroke-width:2.0px;stroke-linecap:butt;stroke-linejoin:miter;stroke-opacity:1"/>
<path class="bond-4 atom-4 atom-5" d="M 493.5,556.7 L 442.8,556.7" style="fill:none;fill-rule:evenodd;stroke:#191919;stroke-width:2.0px;stroke-linecap:butt;stroke-linejoin:miter;stroke-opacity:1"/>
<path class="bond-5 atom-4 atom-6" d="M 549.0,565.1 L 572.8,523.8" style="fill:none;fill-rule:evenodd;stroke:#000000;stroke-width:2.0px;stroke-linecap:butt;stroke-linejoin:miter;stroke-opacity:1"/>
<path class="bond-5 atom-4 atom-6" d="M 572.8,523.8 L 596.6,482.6" style="fill:none;fill-rule:evenodd;stroke:#FF0000;stroke-width:2.0px;stroke-linecap:butt;stroke-linejoin:miter;stroke-opacity:1"/>
<path class="bond-5 atom-4 atom-6" d="M 534.5,556.7 L 558.3,515.4" style="fill:none;fill-rule:evenodd;stroke:#000000;stroke-width:2.0px;stroke-linecap:butt;stroke-linejoin:miter;stroke-opacity:1"/>
<path class="bond-5 atom-4 atom-6" d="M 558.3,515.4 L 582.1,474.2" style="fill:none;fill-rule:evenodd;stroke:#FF0000;stroke-width:2.0px;stroke-linecap:butt;stroke-linejoin:miter;stroke-opacity:1"/>
<path d="M 602.4,653.4 L 600.0,653.4 L 597.2,648.6" style="fill:none;stroke:#000000;stroke-width:2.0px;stroke-linecap:butt;stroke-linejoin:miter;stroke-opacity:1;"/>
<path d="M 546.9,561.5 L 544.1,556.7 L 541.6,556.7" style="fill:none;stroke:#000000;stroke-width:2.0px;stroke-linecap:butt;stroke-linejoin:miter;stroke-opacity:1;"/>
<path class="atom-0" d="M 762.2 553.5 L 766.4 549.3 L 760.9 548.2 L 761.7 545.3 L 766.8 547.9 L 766.1 542.3 L 769.1 542.3 L 768.2 547.9 L 773.4 545.5 L 774.3 548.2 L 768.7 549.2 L 772.7 553.5 L 770.2 555.3 L 767.5 550.0 L 764.7 555.3 L 762.2 553.5 " fill="#191919"/>
<path class="atom-1" d="M 698.7 653.5 Q 698.7 646.7, 702.1 642.9 Q 705.4 639.1, 711.7 639.1 Q 718.0 639.1, 721.4 642.9 Q 724.7 646.7, 724.7 653.5 Q 724.7 660.4, 721.3 664.3 Q 717.9 668.2, 711.7 668.2 Q 705.5 668.2, 702.1 664.3 Q 698.7 660.4, 698.7 653.5 M 711.7 665.0 Q 716.0 665.0, 718.4 662.1 Q 720.7 659.2, 720.7 653.5 Q 720.7 648.0, 718.4 645.2 Q 716.0 642.3, 711.7 642.3 Q 707.4 642.3, 705.0 645.1 Q 702.7 647.9, 702.7 653.5 Q 702.7 659.2, 705.0 662.1 Q 707.4 665.0, 711.7 665.0 " fill="#FF0000"/>
<path class="atom-5" d="M 427.1 553.5 L 431.2 549.3 L 425.7 548.2 L 426.6 545.3 L 431.6 547.9 L 430.9 542.3 L 433.9 542.3 L 433.1 547.9 L 438.2 545.5 L 439.1 548.2 L 433.5 549.2 L 437.5 553.5 L 435.1 555.3 L 432.3 550.0 L 429.5 555.3 L 427.1 553.5 " fill="#191919"/>
<path class="atom-6" d="M 587.0 460.0 Q 587.0 453.2, 590.4 449.4 Q 593.7 445.6, 600.0 445.6 Q 606.3 445.6, 609.6 449.4 Q 613.0 453.2, 613.0 460.0 Q 613.0 466.9, 609.6 470.8 Q 606.2 474.7, 600.0 474.7 Q 593.8 474.7, 590.4 470.8 Q 587.0 466.9, 587.0 460.0 M 600.0 471.5 Q 604.3 471.5, 606.6 468.6 Q 609.0 465.7, 609.0 460.0 Q 609.0 454.5, 606.6 451.7 Q 604.3 448.8, 600.0 448.8 Q 595.7 448.8, 593.3 451.6 Q 591.0 454.4, 591.0 460.0 Q 591.0 465.7, 593.3 468.6 Q 595.7 471.5, 600.0 471.5 " fill="#FF0000"/>
<path class="bond-0 atom-0 atom-1" d="M 766.3,958.9 L 744.2,997.2" style="fill:none;fill-rule:evenodd;stroke:#191919;stroke-width:2.0px;stroke-linecap:butt;stroke-linejoin:miter;stroke-opacity:1"/>
<path class="bond-0 atom-0 atom-1" d="M 744.2,997.2 L 722.1,1035.4" style="fill:none;fill-rule:evenodd;stroke:#FF0000;stroke-width:2.0px;stroke-linecap:butt;stroke-linejoin:miter;stroke-opacity:1"/>
<path class="bond-1 atom-1 atom-2" d="M 695.0,1053.4 L 647.5,1053.4" style="fill:none;fill-rule:evenodd;stroke:#FF0000;stroke-width:2.0px;stroke-linecap:butt;stroke-linejoin:miter;stroke-opacity:1"/>
<path class="bond-1 atom-1 atom-2" d="M 647.5,1053.4 L 600.0,1053.4" style="fill:none;fill-rule:evenodd;stroke:#000000;stroke-width:2.0px;stroke-linecap:butt;stroke-linejoin:miter;stroke-opacity:1"/>
<path class="bond-2 atom-2 atom-3" d="M 598.5,1056.6 L 598.0,1056.3" style="fill:none;fill-rule:evenodd;stroke:#000000;stroke-width:1.0px;stroke-linecap:butt;stroke-linejoin:miter;stroke-opacity:1"/>
<path class="bond-2 atom-2 atom-3" d="M 597.0,1059.7 L 596.1,1059.2" style="fill:none;fill-rule:evenodd;stroke:#000000;stroke-width:1.0px;stroke-linecap:butt;stroke-linejoin:miter;stroke-opacity:1"/>
<path class="bond-2 atom-2 atom-3" d="M 595.4,1062.9 L 594.1,1062.1" style="fill:none;fill-rule:evenodd;stroke:#000000;stroke-width:1.0px;stroke-linecap:butt;stroke-linejoin:miter;stroke-opacity:1"/>
<path class="bond-2 atom-2 atom-3" d="M 593.9,1066.1 L 592.1,1065.0" style="fill:none;fill-rule:evenodd;stroke:#000000;stroke-width:1.0px;stroke-linecap:butt;stroke-linejoin:miter;stroke-opacity:1"/>
<path class="bond-2 atom-2 atom-3" d="M 592.4,1069.2 L 590.1,1067.9" style="fill:none;fill-rule:evenodd;stroke:#000000;stroke-width:1.0px;stroke-linecap:butt;stroke-linejoin:miter;stroke-opacity:1"/>
<path class="bond-2 atom-2 atom-3" d="M 590.9,1072.4 L 588.2,1070.8" style="fill:none;fill-rule:evenodd;stroke:#000000;stroke-width:1.0px;stroke-linecap:butt;stroke-linejoin:miter;stroke-opacity:1"/>
<path class="bond-2 atom-2 atom-3" d="M 589.4,1075.5 L 586.2,1073.7" style="fill:none;fill-rule:evenodd;stroke:#000000;stroke-width:1.0px;stroke-linecap:butt;stroke-linejoin:miter;stroke-opacity:1"/>
<path class="bond-2 atom-2 atom-3" d="M 587.8,1078.7 L 584.2,1076.6" style="fill:none;fill-rule:evenodd;stroke:#000000;stroke-width:1.0px;stroke-linecap:butt;stroke-linejoin:miter;stroke-opacity:1"/>
<path class="bond-2 atom-2 atom-3" d="M 586.3,1081.8 L 582.2,1079.5" style="fill:none;fill-rule:evenodd;stroke:#000000;stroke-width:1.0px;stroke-linecap:butt;stroke-linejoin:miter;stroke-opacity:1"/>
<path class="bond-2 atom-2 atom-3" d="M 584.8,1085.0 L 580.3,1082.4" style="fill:none;fill-rule:evenodd;stroke:#000000;stroke-width:1.0px;stroke-linecap:butt;stroke-linejoin:miter;stroke-opacity:1"/>
<path class="bond-2 atom-2 atom-3" d="M 583.3,1088.1 L 578.3,1085.3" style="fill:none;fill-rule:evenodd;stroke:#000000;stroke-width:1.0px;stroke-linecap:butt;stroke-linejoin:miter;stroke-opacity:1"/>
<path class="bond-2 atom-2 atom-3" d="M 581.8,1091.3 L 576.3,1088.2" style="fill:none;fill-rule:evenodd;stroke:#000000;stroke-width:1.0px;stroke-linecap:butt;stroke-linejoin:miter;stroke-opacity:1"/>
<path class="bond-2 atom-2 atom-3" d="M 580.3,1094.4 L 574.4,1091.0" style="fill:none;fill-rule:evenodd;stroke:#000000;stroke-width:1.0px;stroke-linecap:butt;stroke-linejoin:miter;stroke-opacity:1"/>
<path class="bond-2 atom-2 atom-3" d="M 578.7,1097.6 L 572.4,1093.9" style="fill:none;fill-rule:evenodd;stroke:#000000;stroke-width:1.0px;stroke-linecap:butt;stroke-linejoin:miter;stroke-opacity:1"/>
<path class="bond-2 atom-2 atom-3" d="M 577.2,1100.8 L 570.4,1096.8" style="fill:none;fill-rule:evenodd;stroke:#000000;stroke-width:1.0px;stroke-linecap:butt;stroke-linejoin:miter;stroke-opacity:1"/>
<path class="bond-2 atom-2 atom-3" d="M 575.7,1103.9 L 568.4,1099.7" style="fill:none;fill-rule:evenodd;stroke:#000000;stroke-width:1.0px;stroke-linecap:butt;stroke-linejoin:miter;stroke-opacity:1"/>
<path class="bond-2 atom-2 atom-3" d="M 574.2,1107.1 L 566.5,1102.6" style="fill:none;fill-rule:evenodd;stroke:#000000;stroke-width:1.0px;stroke-linecap:butt;stroke-linejoin:miter;stroke-opacity:1"/>
<path class="bond-2 atom-2 atom-3" d="M 572.7,1110.2 L 564.5,1105.5" style="fill:none;fill-rule:evenodd;stroke:#000000;stroke-width:1.0px;stroke-linecap:butt;stroke-linejoin:miter;stroke-opacity:1"/>
<path class="bond-2 atom-2 atom-3" d="M 571.1,1113.4 L 562.5,1108.4" style="fill:none;fill-rule:evenodd;stroke:#000000;stroke-width:1.0px;stroke-linecap:butt;stroke-linejoin:miter;stroke-opacity:1"/>
<path class="bond-2 atom-2 atom-3" d="M 569.6,1116.5 L 560.6,1111.3" style="fill:none;fill-rule:evenodd;stroke:#000000;stroke-width:1.0px;stroke-linecap:butt;stroke-linejoin:miter;stroke-opacity:1"/>
<path class="bond-2 atom-2 atom-3" d="M 568.1,1119.7 L 558.6,1114.2" style="fill:none;fill-rule:evenodd;stroke:#000000;stroke-width:1.0px;stroke-linecap:butt;stroke-linejoin:miter;stroke-opacity:1"/>
<path class="bond-2 atom-2 atom-3" d="M 566.6,1122.8 L 556.6,1117.1" style="fill:none;fill-rule:evenodd;stroke:#000000;stroke-width:1.0px;stroke-linecap:butt;stroke-linejoin:miter;stroke-opacity:1"/>
<path class="bond-2 atom-2 atom-3" d="M 565.1,1126.0 L 554.6,1120.0" style="fill:none;fill-rule:evenodd;stroke:#000000;stroke-width:1.0px;stroke-linecap:butt;stroke-linejoin:miter;stroke-opacity:1"/>
<path class="bond-2 atom-2 atom-3" d="M 563.5,1129.1 L 552.7,1122.9" style="fill:none;fill-rule:evenodd;stroke:#000000;stroke-width:1.0px;stroke-linecap:butt;stroke-linejoin:miter;stroke-opacity:1"/>
<path class="bond-2 atom-2 atom-3" d="M 562.0,1132.3 L 550.7,1125.8" style="fill:none;fill-rule:evenodd;stroke:#000000;stroke-width:1.0px;stroke-linecap:butt;stroke-linejoin:miter;stroke-opacity:1"/>
<path class="bond-2 atom-2 atom-3" d="M 560.5,1135.5 L 548.7,1128.6" style="fill:none;fill-rule:evenodd;stroke:#000000;stroke-width:1.0px;stroke-linecap:butt;stroke-linejoin:miter;stroke-opacity:1"/>
<path class="bond-2 atom-2 atom-3" d="M 559.0,1138.6 L 546.7,1131.5" style="fill:none;fill-rule:evenodd;stroke:#000000;stroke-width:1.0px;stroke-linecap:butt;stroke-linejoin:miter;stroke-opacity:1"/>
<path class="bond-2 atom-2 atom-3" d="M 557.5,1141.8 L 544.8,1134.4" style="fill:none;fill-rule:evenodd;stroke:#000000;stroke-width:1.0px;stroke-linecap:butt;stroke-linejoin:miter;stroke-opacity:1"/>
<path class="bond-2 atom-2 atom-3" d="M 556.0,1144.9 L 542.8,1137.3" style="fill:none;fill-rule:evenodd;stroke:#000000;stroke-width:1.0px;stroke-linecap:butt;stroke-linejoin:miter;stroke-opacity:1"/>
<path class="bond-2 atom-2 atom-3" d="M 554.4,1148.1 L 540.8,1140.2" style="fill:none;fill-rule:evenodd;stroke:#000000;stroke-width:1.0px;stroke-linecap:butt;stroke-linejoin:miter;stroke-opacity:1"/>
<path class="bond-2 atom-2 atom-3" d="M 552.9,1151.2 L 538.9,1143.1" style="fill:none;fill-rule:evenodd;stroke:#000000;stroke-width:1.0px;stroke-linecap:butt;stroke-linejoin:miter;stroke-opacity:1"/>
<path class="bond-2 atom-2 atom-3" d="M 551.4,1154.4 L 536.9,1146.0" style="fill:none;fill-rule:evenodd;stroke:#000000;stroke-width:1.0px;stroke-linecap:butt;stroke-linejoin:miter;stroke-opacity:1"/>
<path class="bond-3 atom-2 atom-4" d="M 600.0,1053.4 L 544.1,956.7" style="fill:none;fill-rule:evenodd;stroke:#000000;stroke-width:2.0px;stroke-linecap:butt;stroke-linejoin:miter;stroke-opacity:1"/>
<path class="bond-4 atom-4 atom-5" d="M 544.1,956.7 L 493.5,956.7" style="fill:none;fill-rule:evenodd;stroke:#000000;stroke-width:2.0px;stroke-linecap:butt;stroke-linejoin:miter;stroke-opacity:1"/>
<path class="bond-4 atom-4 atom-5" d="M 493.5,956.7 L 442.8,956.7" style="fill:none;fill-rule:evenodd;stroke:#191919;stroke-width:2.0px;stroke-linecap:butt;stroke-linejoin:miter;stroke-opacity:1"/>
<path class="bond-5 atom-4 atom-6" d="M 549.0,965.1 L 572.8,923.8" style="fill:none;fill-rule:evenodd;stroke:#000000;stroke-width:2.0px;stroke-linecap:butt;stroke-linejoin:miter;stroke-opacity:1"/>
<path class="bond-5 atom-4 atom-6" d="M 572.8,923.8 L 596.6,882.6" style="fill:none;fill-rule:evenodd;stroke:#FF0000;stroke-width:2.0px;stroke-linecap:butt;stroke-linejoin:miter;stroke-opacity:1"/>
<path class="bond-5 atom-4 atom-6" d="M 534.5,956.7 L 558.3,915.4" style="fill:none;fill-rule:evenodd;stroke:#000000;stroke-width:2.0px;stroke-linecap:butt;stroke-linejoin:miter;stroke-opacity:1"/>
<path class="bond-5 atom-4 atom-6" d="M 558.3,915.4 L 582.1,874.2" style="fill:none;fill-rule:evenodd;stroke:#FF0000;stroke-width:2.0px;stroke-linecap:butt;stroke-linejoin:miter;stroke-opacity:1"/>
<path d="M 602.4,1053.4 L 600.0,1053.4 L 597.2,1048.6" style="fill:none;stroke:#000000;stroke-width:2.0px;stroke-linecap:butt;stroke-linejoin:miter;stroke-opacity:1;"/>
<path d="M 546.9,961.5 L 544.1,956.7 L 541.6,956.7" style="fill:none;stroke:#000000;stroke-width:2.0px;stroke-linecap:butt;stroke-linejoin:miter;stroke-opacity:1;"/>
<path class="atom-0" d="M 762.2 953.5 L 766.4 949.3 L 760.9 948.2 L 761.7 945.3 L 766.8 947.9 L 766.1 942.3 L 769.1 942.3 L 768.2 947.9 L 773.4 945.5 L 774.3 948.2 L 768.7 949.2 L 772.7 953.5 L 770.2 955.3 L 767.5 950.0 L 764.7 955.3 L 762.2 953.5 " fill="#191919"/>
<path class="atom-1" d="M 698.7 1053.5 Q 698.7 1046.7, 702.1 1042.9 Q 705.4 1039.1, 711.7 1039.1 Q 718.0 1039.1, 721.4 1042.9 Q 724.7 1046.7, 724.7 1053.5 Q 724.7 1060.4, 721.3 1064.3 Q 717.9 1068.2, 711.7 1068.2 Q 705.5 1068.2, 702.1 1064.3 Q 698.7 1060.4, 698.7 1053.5 M 711.7 1065.0 Q 716.0 1065.0, 718.4 1062.1 Q 720.7 1059.2, 720.7 1053.5 Q 720.7 1048.0, 718.4 1045.2 Q 716.0 1042.3, 711.7 1042.3 Q 707.4 1042.3, 705.0 1045.1 Q 702.7 1047.9, 702.7 1053.5 Q 702.7 1059.2, 705.0 1062.1 Q 707.4 1065.0, 711.7 1065.0 " fill="#FF0000"/>
<path class="atom-5" d="M 427.1 953.5 L 431.2 949.3 L 425.7 948.2 L 426.6 945.3 L 431.6 947.9 L 430.9 942.3 L 433.9 942.3 L 433.1 947.9 L 438.2 945.5 L 439.1 948.2 L 433.5 949.2 L 437.5 953.5 L 435.1 955.3 L 432.3 950.0 L 429.5 955.3 L 427.1 953.5 " fill="#191919"/>
<path class="atom-6" d="M 587.0 860.0 Q 587.0 853.2, 590.4 849.4 Q 593.7 845.6, 600.0 845.6 Q 606.3 845.6, 609.6 849.4 Q 613.0 853.2, 613.0 860.0 Q 613.0 866.9, 609.6 870.8 Q 606.2 874.7, 600.0 874.7 Q 593.8 874.7, 590.4 870.8 Q 587.0 866.9, 587.0 860.0 M 600.0 871.5 Q 604.3 871.5, 606.6 868.6 Q 609.0 865.7, 609.0 860.0 Q 609.0 854.5, 606.6 851.7 Q 604.3 848.8, 600.0 848.8 Q 595.7 848.8, 593.3 851.6 Q 591.0 854.4, 591.0 860.0 Q 591.0 865.7, 593.3 868.6 Q 595.7 871.5, 600.0 871.5 " fill="#FF0000"/>
<path class="bond-0 atom-0 atom-1" d="M 893.9,1304.5 L 869.1,1340.2" style="fill:none;fill-rule:evenodd;stroke:#191919;stroke-width:2.0px;stroke-linecap:butt;stroke-linejoin:miter;stroke-opacity:1"/>
<path class="bond-0 atom-0 atom-1" d="M 869.1,1340.2 L 844.2,1376.0" style="fill:none;fill-rule:evenodd;stroke:#FF0000;stroke-width:2.0px;stroke-linecap:butt;stroke-linejoin:miter;stroke-opacity:1"/>
<path class="bond-1 atom-1 atom-2" d="M 815.0,1392.6 L 767.7,1388.6" style="fill:none;fill-rule:evenodd;stroke:#FF0000;stroke-width:2.0px;stroke-linecap:butt;stroke-linejoin:miter;stroke-opacity:1"/>
<path class="bond-1 atom-1 atom-2" d="M 767.7,1388.6 L 720.4,1384.6" style="fill:none;fill-rule:evenodd;stroke:#000000;stroke-width:2.0px;stroke-linecap:butt;stroke-linejoin:miter;stroke-opacity:1"/>
<path class="bond-2 atom-2 atom-3" d="M 720.4,1384.6 L 656.6,1476.4" style="fill:none;fill-rule:evenodd;stroke:#000000;stroke-width:2.0px;stroke-linecap:butt;stroke-linejoin:miter;stroke-opacity:1"/>
<path class="bond-3 atom-3 atom-4" d="M 656.6,1476.4 L 608.2,1472.3" style="fill:none;fill-rule:evenodd;stroke:#000000;stroke-width:2.0px;stroke-linecap:butt;stroke-linejoin:miter;stroke-opacity:1"/>
<path class="bond-3 atom-3 atom-4" d="M 608.2,1472.3 L 559.7,1468.3" style="fill:none;fill-rule:evenodd;stroke:#0000FF;stroke-width:2.0px;stroke-linecap:butt;stroke-linejoin:miter;stroke-opacity:1"/>
<path class="bond-4 atom-4 atom-5" d="M 532.9,1484.9 L 507.2,1521.8" style="fill:none;fill-rule:evenodd;stroke:#0000FF;stroke-width:2.0px;stroke-linecap:butt;stroke-linejoin:miter;stroke-opacity:1"/>
<path class="bond-4 atom-4 atom-5" d="M 507.2,1521.8 L 481.5,1558.8" style="fill:none;fill-rule:evenodd;stroke:#000000;stroke-width:2.0px;stroke-linecap:butt;stroke-linejoin:miter;stroke-opacity:1"/>
<path class="bond-5 atom-4 atom-6" d="M 536.9,1449.2 L 517.3,1407.6" style="fill:none;fill-rule:evenodd;stroke:#0000FF;stroke-width:2.0px;stroke-linecap:butt;stroke-linejoin:miter;stroke-opacity:1"/>
<path class="bond-5 atom-4 atom-6" d="M 517.3,1407.6 L 497.7,1366.0" style="fill:none;fill-rule:evenodd;stroke:#000000;stroke-width:2.0px;stroke-linecap:butt;stroke-linejoin:miter;stroke-opacity:1"/>
<path class="bond-6 atom-6 atom-7" d="M 497.7,1366.0 L 386.4,1356.6" style="fill:none;fill-rule:evenodd;stroke:#000000;stroke-width:2.0px;stroke-linecap:butt;stroke-linejoin:miter;stroke-opacity:1"/>
<path class="bond-7 atom-7 atom-8" d="M 386.4,1356.6 L 366.9,1315.3" style="fill:none;fill-rule:evenodd;stroke:#000000;stroke-width:2.0px;stroke-linecap:butt;stroke-linejoin:miter;stroke-opacity:1"/>
<path class="bond-7 atom-7 atom-8" d="M 366.9,1315.3 L 347.5,1274.0" style="fill:none;fill-rule:evenodd;stroke:#FF0000;stroke-width:2.0px;stroke-linecap:butt;stroke-linejoin:miter;stroke-opacity:1"/>
<path d="M 722.7,1384.8 L 720.4,1384.6 L 717.2,1389.2" style="fill:none;stroke:#000000;stroke-width:2.0px;stroke-linecap:butt;stroke-linejoin:miter;stroke-opacity:1;"/>
<path d="M 659.8,1471.8 L 656.6,1476.4 L 654.2,1476.2" style="fill:none;stroke:#000000;stroke-width:2.0px;stroke-linecap:butt;stroke-linejoin:miter;stroke-opacity:1;"/>
<path d="M 498.7,1368.0 L 497.7,1366.0 L 492.2,1365.5" style="fill:none;stroke:#000000;stroke-width:2.0px;stroke-linecap:butt;stroke-linejoin:miter;stroke-opacity:1;"/>
<path d="M 392.0,1357.1 L 386.4,1356.6 L 385.4,1354.6" style="fill:none;stroke:#000000;stroke-width:2.0px;stroke-linecap:butt;stroke-linejoin:miter;stroke-opacity:1;"/>
<path class="atom-0" d="M 890.1 1299.1 L 894.3 1294.8 L 888.8 1293.7 L 889.6 1290.9 L 894.7 1293.4 L 894.0 1287.9 L 897.0 1287.8 L 896.1 1293.4 L 901.3 1291.0 L 902.2 1293.7 L 896.6 1294.8 L 900.6 1299.0 L 898.1 1300.8 L 895.4 1295.5 L 892.6 1300.8 L 890.1 1299.1 " fill="#191919"/>
<path class="atom-1" d="M 818.7 1394.1 Q 818.7 1387.3, 822.1 1383.5 Q 825.4 1379.7, 831.7 1379.7 Q 838.0 1379.7, 841.3 1383.5 Q 844.7 1387.3, 844.7 1394.1 Q 844.7 1400.9, 841.3 1404.9 Q 837.9 1408.7, 831.7 1408.7 Q 825.5 1408.7, 822.1 1404.9 Q 818.7 1401.0, 818.7 1394.1 M 831.7 1405.5 Q 836.0 1405.5, 838.3 1402.7 Q 840.7 1399.7, 840.7 1394.1 Q 840.7 1388.5, 838.3 1385.7 Q 836.0 1382.9, 831.7 1382.9 Q 827.4 1382.9, 825.0 1385.7 Q 822.7 1388.5, 822.7 1394.1 Q 822.7 1399.8, 825.0 1402.7 Q 827.4 1405.5, 831.7 1405.5 " fill="#FF0000"/>
<path class="atom-4" d="M 539.0 1452.9 L 548.3 1467.9 Q 549.2 1469.4, 550.7 1472.0 Q 552.2 1474.7, 552.3 1474.9 L 552.3 1452.9 L 556.0 1452.9 L 556.0 1481.2 L 552.2 1481.2 L 542.2 1464.8 Q 541.0 1462.9, 539.8 1460.7 Q 538.6 1458.5, 538.2 1457.8 L 538.2 1481.2 L 534.6 1481.2 L 534.6 1452.9 L 539.0 1452.9 " fill="#0000FF"/>
<path class="atom-8" d="M 297.8 1241.5 L 301.7 1241.5 L 301.7 1253.6 L 316.2 1253.6 L 316.2 1241.5 L 320.0 1241.5 L 320.0 1269.9 L 316.2 1269.9 L 316.2 1256.8 L 301.7 1256.8 L 301.7 1269.9 L 297.8 1269.9 L 297.8 1241.5 " fill="#FF0000"/>
<path class="atom-8" d="M 325.8 1255.6 Q 325.8 1248.8, 329.2 1245.0 Q 332.5 1241.2, 338.8 1241.2 Q 345.1 1241.2, 348.5 1245.0 Q 351.8 1248.8, 351.8 1255.6 Q 351.8 1262.5, 348.4 1266.4 Q 345.0 1270.3, 338.8 1270.3 Q 332.6 1270.3, 329.2 1266.4 Q 325.8 1262.5, 325.8 1255.6 M 338.8 1267.1 Q 343.1 1267.1, 345.5 1264.2 Q 347.8 1261.3, 347.8 1255.6 Q 347.8 1250.1, 345.5 1247.3 Q 343.1 1244.4, 338.8 1244.4 Q 334.5 1244.4, 332.1 1247.2 Q 329.8 1250.0, 329.8 1255.6 Q 329.8 1261.3, 332.1 1264.2 Q 334.5 1267.1, 338.8 1267.1 " fill="#FF0000"/>
</svg>