<svg xmlns="http://www.w3.org/2000/svg" xmlns:rdkit="http://www.rdkit.org/xml" xmlns:xlink="http://www.w3.org/1999/xlink" version="1.1" baseProfile="full" xml:space="preserve" width="1200px" height="800px" viewBox="0 0 1200 800">
<!-- END OF HEADER -->
<rect style="opacity:1.0;fill:#FFFFFF;stroke:none" width="1200.0" height="800.0" x="0.0" y="0.0"> </rect>
<path class="bond-0 atom-0 atom-1" d="M 91.4,127.2 L 143.3,115.6" style="fill:none;fill-rule:evenodd;stroke:#191919;stroke-width:2.0px;stroke-linecap:butt;stroke-linejoin:miter;stroke-opacity:1"/>
<path class="bond-0 atom-0 atom-1" d="M 143.3,115.6 L 195.1,104.0" style="fill:none;fill-rule:evenodd;stroke:#000000;stroke-width:2.0px;stroke-linecap:butt;stroke-linejoin:miter;stroke-opacity:1"/>
<path class="bond-1 atom-1 atom-2" d="M 195.1,104.0 L 274.5,190.3" style="fill:none;fill-rule:evenodd;stroke:#000000;stroke-width:2.0px;stroke-linecap:butt;stroke-linejoin:miter;stroke-opacity:1"/>
<path class="bond-2 atom-2 atom-3" d="M 274.5,190.3 L 323.2,179.4" style="fill:none;fill-rule:evenodd;stroke:#000000;stroke-width:2.0px;stroke-linecap:butt;stroke-linejoin:miter;stroke-opacity:1"/>
<path class="bond-2 atom-2 atom-3" d="M 323.2,179.4 L 372.0,168.5" style="fill:none;fill-rule:evenodd;stroke:#FF0000;stroke-width:2.0px;stroke-linecap:butt;stroke-linejoin:miter;stroke-opacity:1"/>
<path class="bond-3 atom-3 atom-4" d="M 405.7,183.0 L 436.9,217.0" style="fill:none;fill-rule:evenodd;stroke:#FF0000;stroke-width:2.0px;stroke-linecap:butt;stroke-linejoin:miter;stroke-opacity:1"/>
<path class="bond-3 atom-3 atom-4" d="M 436.9,217.0 L 468.1,250.9" style="fill:none;fill-rule:evenodd;stroke:#000000;stroke-width:2.0px;stroke-linecap:butt;stroke-linejoin:miter;stroke-opacity:1"/>
<path class="bond-4 atom-4 atom-5" d="M 461.3,243.5 L 445.8,292.7" style="fill:none;fill-rule:evenodd;stroke:#000000;stroke-width:2.0px;stroke-linecap:butt;stroke-linejoin:miter;stroke-opacity:1"/>
<path class="bond-4 atom-4 atom-5" d="M 445.8,292.7 L 430.4,341.9" style="fill:none;fill-rule:evenodd;stroke:#FF0000;stroke-width:2.0px;stroke-linecap:butt;stroke-linejoin:miter;stroke-opacity:1"/>
<path class="bond-4 atom-4 atom-5" d="M 478.0,248.7 L 462.6,297.9" style="fill:none;fill-rule:evenodd;stroke:#000000;stroke-width:2.0px;stroke-linecap:butt;stroke-linejoin:miter;stroke-opacity:1"/>
<path class="bond-4 atom-4 atom-5" d="M 462.6,297.9 L 447.2,347.2" style="fill:none;fill-rule:evenodd;stroke:#FF0000;stroke-width:2.0px;stroke-linecap:butt;stroke-linejoin:miter;stroke-opacity:1"/>
<path class="bond-5 atom-4 atom-6" d="M 468.1,250.9 L 582.5,225.4" style="fill:none;fill-rule:evenodd;stroke:#000000;stroke-width:2.0px;stroke-linecap:butt;stroke-linejoin:miter;stroke-opacity:1"/>
<path class="bond-6 atom-6 atom-7" d="M 582.5,225.4 L 617.5,113.5" style="fill:none;fill-rule:evenodd;stroke:#000000;stroke-width:2.0px;stroke-linecap:butt;stroke-linejoin:miter;stroke-opacity:1"/>
<path class="bond-7 atom-7 atom-8" d="M 617.5,113.5 L 731.9,88.0" style="fill:none;fill-rule:evenodd;stroke:#000000;stroke-width:2.0px;stroke-linecap:butt;stroke-linejoin:miter;stroke-opacity:1"/>
<path class="bond-8 atom-8 atom-9" d="M 731.9,88.0 L 811.2,174.2" style="fill:none;fill-rule:evenodd;stroke:#000000;stroke-width:2.0px;stroke-linecap:butt;stroke-linejoin:miter;stroke-opacity:1"/>
<path class="bond-9 atom-9 atom-10" d="M 811.2,174.2 L 925.5,148.6" style="fill:none;fill-rule:evenodd;stroke:#000000;stroke-width:2.0px;stroke-linecap:butt;stroke-linejoin:miter;stroke-opacity:1"/>
<path class="bond-10 atom-10 atom-11" d="M 932.4,156.1 L 947.8,107.1" style="fill:none;fill-rule:evenodd;stroke:#000000;stroke-width:2.0px;stroke-linecap:butt;stroke-linejoin:miter;stroke-opacity:1"/>
<path class="bond-10 atom-10 atom-11" d="M 947.8,107.1 L 963.1,58.1" style="fill:none;fill-rule:evenodd;stroke:#FF0000;stroke-width:2.0px;stroke-linecap:butt;stroke-linejoin:miter;stroke-opacity:1"/>
<path class="bond-10 atom-10 atom-11" d="M 915.6,150.8 L 931.0,101.8" style="fill:none;fill-rule:evenodd;stroke:#000000;stroke-width:2.0px;stroke-linecap:butt;stroke-linejoin:miter;stroke-opacity:1"/>
<path class="bond-10 atom-10 atom-11" d="M 931.0,101.8 L 946.3,52.8" style="fill:none;fill-rule:evenodd;stroke:#FF0000;stroke-width:2.0px;stroke-linecap:butt;stroke-linejoin:miter;stroke-opacity:1"/>
<path class="bond-11 atom-10 atom-12" d="M 925.5,148.6 L 956.8,182.7" style="fill:none;fill-rule:evenodd;stroke:#000000;stroke-width:2.0px;stroke-linecap:butt;stroke-linejoin:miter;stroke-opacity:1"/>
<path class="bond-11 atom-10 atom-12" d="M 956.8,182.7 L 988.1,216.7" style="fill:none;fill-rule:evenodd;stroke:#FF0000;stroke-width:2.0px;stroke-linecap:butt;stroke-linejoin:miter;stroke-opacity:1"/>
<path class="bond-12 atom-12 atom-13" d="M 1021.7,231.1 L 1065.2,221.4" style="fill:none;fill-rule:evenodd;stroke:#FF0000;stroke-width:2.0px;stroke-linecap:butt;stroke-linejoin:miter;stroke-opacity:1"/>
<path class="bond-12 atom-12 atom-13" d="M 1065.2,221.4 L 1108.6,211.7" style="fill:none;fill-rule:evenodd;stroke:#191919;stroke-width:2.0px;stroke-linecap:butt;stroke-linejoin:miter;stroke-opacity:1"/>
<path class="bond-13 atom-9 atom-14" d="M 811.2,174.2 L 776.2,286.0" style="fill:none;fill-rule:evenodd;stroke:#000000;stroke-width:2.0px;stroke-linecap:butt;stroke-linejoin:miter;stroke-opacity:1"/>
<path class="bond-14 atom-14 atom-15" d="M 776.2,286.0 L 661.8,311.6" style="fill:none;fill-rule:evenodd;stroke:#000000;stroke-width:2.0px;stroke-linecap:butt;stroke-linejoin:miter;stroke-opacity:1"/>
<path class="bond-15 atom-15 atom-6" d="M 661.8,311.6 L 582.5,225.4" style="fill:none;fill-rule:evenodd;stroke:#000000;stroke-width:2.0px;stroke-linecap:butt;stroke-linejoin:miter;stroke-opacity:1"/>
<path d="M 192.6,104.6 L 195.1,104.0 L 199.1,108.3" style="fill:none;stroke:#000000;stroke-width:2.0px;stroke-linecap:butt;stroke-linejoin:miter;stroke-opacity:1;"/>
<path d="M 270.5,185.9 L 274.5,190.3 L 276.9,189.7" style="fill:none;stroke:#000000;stroke-width:2.0px;stroke-linecap:butt;stroke-linejoin:miter;stroke-opacity:1;"/>
<path d="M 466.6,249.2 L 468.1,250.9 L 473.9,249.6" style="fill:none;stroke:#000000;stroke-width:2.0px;stroke-linecap:butt;stroke-linejoin:miter;stroke-opacity:1;"/>
<path d="M 615.8,119.1 L 617.5,113.5 L 623.2,112.3" style="fill:none;stroke:#000000;stroke-width:2.0px;stroke-linecap:butt;stroke-linejoin:miter;stroke-opacity:1;"/>
<path d="M 726.1,89.2 L 731.9,88.0 L 735.8,92.3" style="fill:none;stroke:#000000;stroke-width:2.0px;stroke-linecap:butt;stroke-linejoin:miter;stroke-opacity:1;"/>
<path d="M 919.8,149.9 L 925.5,148.6 L 927.1,150.3" style="fill:none;stroke:#000000;stroke-width:2.0px;stroke-linecap:butt;stroke-linejoin:miter;stroke-opacity:1;"/>
<path d="M 777.9,280.4 L 776.2,286.0 L 770.4,287.3" style="fill:none;stroke:#000000;stroke-width:2.0px;stroke-linecap:butt;stroke-linejoin:miter;stroke-opacity:1;"/>
<path d="M 667.5,310.3 L 661.8,311.6 L 657.8,307.3" style="fill:none;stroke:#000000;stroke-width:2.0px;stroke-linecap:butt;stroke-linejoin:miter;stroke-opacity:1;"/>
<path class="atom-0" d="M 75.5 126.4 L 79.6 122.2 L 74.1 121.1 L 74.9 118.2 L 80.0 120.8 L 79.3 115.2 L 82.3 115.2 L 81.5 120.8 L 86.6 118.4 L 87.5 121.1 L 81.9 122.1 L 85.9 126.4 L 83.5 128.2 L 80.7 122.9 L 77.9 128.2 L 75.5 126.4 " fill="#191919"/>
<path class="atom-3" d="M 375.8 164.8 Q 375.8 158.0, 379.2 154.2 Q 382.5 150.4, 388.8 150.4 Q 395.1 150.4, 398.5 154.2 Q 401.8 158.0, 401.8 164.8 Q 401.8 171.6, 398.4 175.6 Q 395.0 179.4, 388.8 179.4 Q 382.6 179.4, 379.2 175.6 Q 375.8 171.7, 375.8 164.8 M 388.8 176.2 Q 393.1 176.2, 395.5 173.4 Q 397.8 170.4, 397.8 164.8 Q 397.8 159.2, 395.5 156.4 Q 393.1 153.6, 388.8 153.6 Q 384.5 153.6, 382.1 156.4 Q 379.8 159.2, 379.8 164.8 Q 379.8 170.5, 382.1 173.4 Q 384.5 176.2, 388.8 176.2 " fill="#FF0000"/>
<path class="atom-5" d="M 420.1 362.8 Q 420.1 356.0, 423.5 352.2 Q 426.8 348.4, 433.1 348.4 Q 439.4 348.4, 442.8 352.2 Q 446.1 356.0, 446.1 362.8 Q 446.1 369.7, 442.7 373.6 Q 439.3 377.5, 433.1 377.5 Q 426.9 377.5, 423.5 373.6 Q 420.1 369.7, 420.1 362.8 M 433.1 374.3 Q 437.4 374.3, 439.8 371.4 Q 442.1 368.5, 442.1 362.8 Q 442.1 357.3, 439.8 354.5 Q 437.4 351.6, 433.1 351.6 Q 428.8 351.6, 426.4 354.4 Q 424.1 357.2, 424.1 362.8 Q 424.1 368.5, 426.4 371.4 Q 428.8 374.3, 433.1 374.3 " fill="#FF0000"/>
<path class="atom-11" d="M 947.6 36.9 Q 947.6 30.1, 950.9 26.3 Q 954.3 22.5, 960.6 22.5 Q 966.8 22.5, 970.2 26.3 Q 973.6 30.1, 973.6 36.9 Q 973.6 43.8, 970.2 47.7 Q 966.8 51.6, 960.6 51.6 Q 954.3 51.6, 950.9 47.7 Q 947.6 43.8, 947.6 36.9 M 960.6 48.4 Q 964.9 48.4, 967.2 45.5 Q 969.6 42.6, 969.6 36.9 Q 969.6 31.3, 967.2 28.5 Q 964.9 25.7, 960.6 25.7 Q 956.2 25.7, 953.9 28.5 Q 951.6 31.3, 951.6 36.9 Q 951.6 42.6, 953.9 45.5 Q 956.2 48.4, 960.6 48.4 " fill="#FF0000"/>
<path class="atom-12" d="M 991.9 235.0 Q 991.9 228.2, 995.2 224.4 Q 998.6 220.6, 1004.9 220.6 Q 1011.1 220.6, 1014.5 224.4 Q 1017.9 228.2, 1017.9 235.0 Q 1017.9 241.8, 1014.5 245.8 Q 1011.1 249.6, 1004.9 249.6 Q 998.6 249.6, 995.2 245.8 Q 991.9 241.9, 991.9 235.0 M 1004.9 246.4 Q 1009.2 246.4, 1011.5 243.6 Q 1013.9 240.6, 1013.9 235.0 Q 1013.9 229.4, 1011.5 226.6 Q 1009.2 223.8, 1004.9 223.8 Q 1000.5 223.8, 998.2 226.6 Q 995.9 229.4, 995.9 235.0 Q 995.9 240.7, 998.2 243.6 Q 1000.5 246.4, 1004.9 246.4 " fill="#FF0000"/>
<path class="atom-13" d="M 1113.9 206.1 L 1118.0 201.9 L 1112.5 200.8 L 1113.3 197.9 L 1118.4 200.5 L 1117.7 194.9 L 1120.7 194.9 L 1119.9 200.5 L 1125.0 198.1 L 1125.9 200.8 L 1120.3 201.8 L 1124.3 206.1 L 1121.9 207.9 L 1119.1 202.6 L 1116.3 207.9 L 1113.9 206.1 " fill="#191919"/>
<path class="bond-0 atom-0 atom-1" d="M 407.6,630.4 L 453.1,604.1" style="fill:none;fill-rule:evenodd;stroke:#191919;stroke-width:2.0px;stroke-linecap:butt;stroke-linejoin:miter;stroke-opacity:1"/>
<path class="bond-0 atom-0 atom-1" d="M 453.1,604.1 L 498.5,577.9" style="fill:none;fill-rule:evenodd;stroke:#000000;stroke-width:2.0px;stroke-linecap:butt;stroke-linejoin:miter;stroke-opacity:1"/>
<path class="bond-1 atom-1 atom-2" d="M 498.5,577.9 L 600.0,636.5" style="fill:none;fill-rule:evenodd;stroke:#000000;stroke-width:2.0px;stroke-linecap:butt;stroke-linejoin:miter;stroke-opacity:1"/>
<path class="bond-2 atom-2 atom-3" d="M 600.0,636.5 L 642.3,612.0" style="fill:none;fill-rule:evenodd;stroke:#000000;stroke-width:2.0px;stroke-linecap:butt;stroke-linejoin:miter;stroke-opacity:1"/>
<path class="bond-2 atom-2 atom-3" d="M 642.3,612.0 L 684.6,587.6" style="fill:none;fill-rule:evenodd;stroke:#FF0000;stroke-width:2.0px;stroke-linecap:butt;stroke-linejoin:miter;stroke-opacity:1"/>
<path class="bond-3 atom-3 atom-4" d="M 718.3,587.6 L 755.4,609.0" style="fill:none;fill-rule:evenodd;stroke:#FF0000;stroke-width:2.0px;stroke-linecap:butt;stroke-linejoin:miter;stroke-opacity:1"/>
<path class="bond-3 atom-3 atom-4" d="M 755.4,609.0 L 792.4,630.4" style="fill:none;fill-rule:evenodd;stroke:#191919;stroke-width:2.0px;stroke-linecap:butt;stroke-linejoin:miter;stroke-opacity:1"/>
<path d="M 496.3,579.2 L 498.5,577.9 L 503.6,580.8" style="fill:none;stroke:#000000;stroke-width:2.0px;stroke-linecap:butt;stroke-linejoin:miter;stroke-opacity:1;"/>
<path d="M 594.9,633.5 L 600.0,636.5 L 602.1,635.2" style="fill:none;stroke:#000000;stroke-width:2.0px;stroke-linecap:butt;stroke-linejoin:miter;stroke-opacity:1;"/>
<path class="atom-0" d="M 391.7 633.3 L 395.9 629.1 L 390.4 627.9 L 391.2 625.1 L 396.3 627.7 L 395.6 622.1 L 398.6 622.1 L 397.7 627.6 L 402.9 625.2 L 403.8 627.9 L 398.2 629.0 L 402.2 633.3 L 399.7 635.0 L 397.0 629.7 L 394.2 635.0 L 391.7 633.3 " fill="#191919"/>
<path class="atom-3" d="M 688.5 577.9 Q 688.5 571.1, 691.8 567.3 Q 695.2 563.5, 701.5 563.5 Q 707.8 563.5, 711.1 567.3 Q 714.5 571.1, 714.5 577.9 Q 714.5 584.8, 711.1 588.7 Q 707.7 592.6, 701.5 592.6 Q 695.2 592.6, 691.8 588.7 Q 688.5 584.9, 688.5 577.9 M 701.5 589.4 Q 705.8 589.4, 708.1 586.5 Q 710.5 583.6, 710.5 577.9 Q 710.5 572.4, 708.1 569.6 Q 705.8 566.7, 701.5 566.7 Q 697.2 566.7, 694.8 569.5 Q 692.5 572.3, 692.5 577.9 Q 692.5 583.7, 694.8 586.5 Q 697.2 589.4, 701.5 589.4 " fill="#FF0000"/>
<path class="atom-4" d="M 797.6 633.3 L 801.8 629.1 L 796.2 627.9 L 797.1 625.1 L 802.2 627.7 L 801.4 622.1 L 804.4 622.1 L 803.6 627.6 L 808.8 625.2 L 809.6 627.9 L 804.0 629.0 L 808.0 633.3 L 805.6 635.0 L 802.8 629.7 L 800.0 635.0 L 797.6 633.3 " fill="#191919"/>
</svg>