<svg xmlns="http://www.w3.org/2000/svg" xmlns:rdkit="http://www.rdkit.org/xml" xmlns:xlink="http://www.w3.org/1999/xlink" version="1.1" baseProfile="full" xml:space="preserve" width="1200px" height="800px" viewBox="0 0 1200 800">
<!-- END OF HEADER -->
<rect style="opacity:1.0;fill:#FFFFFF;stroke:none" width="1200.0" height="800.0" x="0.0" y="0.0"> </rect>
<path class="bond-0 atom-0 atom-1" d="M 357.9,154.5 L 414.7,136.7" style="fill:none;fill-rule:evenodd;stroke:#191919;stroke-width:2.0px;stroke-linecap:butt;stroke-linejoin:miter;stroke-opacity:1"/>
<path class="bond-0 atom-0 atom-1" d="M 414.7,136.7 L 471.6,118.9" style="fill:none;fill-rule:evenodd;stroke:#FF0000;stroke-width:2.0px;stroke-linecap:butt;stroke-linejoin:miter;stroke-opacity:1"/>
<path class="bond-1 atom-1 atom-2" d="M 507.5,129.8 L 553.7,172.4" style="fill:none;fill-rule:evenodd;stroke:#FF0000;stroke-width:2.0px;stroke-linecap:butt;stroke-linejoin:miter;stroke-opacity:1"/>
<path class="bond-1 atom-1 atom-2" d="M 553.7,172.4 L 600.0,215.0" style="fill:none;fill-rule:evenodd;stroke:#000000;stroke-width:2.0px;stroke-linecap:butt;stroke-linejoin:miter;stroke-opacity:1"/>
<path class="bond-2 atom-2 atom-3" d="M 590.4,206.2 L 575.5,273.0" style="fill:none;fill-rule:evenodd;stroke:#000000;stroke-width:2.0px;stroke-linecap:butt;stroke-linejoin:miter;stroke-opacity:1"/>
<path class="bond-2 atom-2 atom-3" d="M 575.5,273.0 L 560.5,339.8" style="fill:none;fill-rule:evenodd;stroke:#FF0000;stroke-width:2.0px;stroke-linecap:butt;stroke-linejoin:miter;stroke-opacity:1"/>
<path class="bond-2 atom-2 atom-3" d="M 612.4,211.1 L 597.4,277.9" style="fill:none;fill-rule:evenodd;stroke:#000000;stroke-width:2.0px;stroke-linecap:butt;stroke-linejoin:miter;stroke-opacity:1"/>
<path class="bond-2 atom-2 atom-3" d="M 597.4,277.9 L 582.4,344.7" style="fill:none;fill-rule:evenodd;stroke:#FF0000;stroke-width:2.0px;stroke-linecap:butt;stroke-linejoin:miter;stroke-opacity:1"/>
<path class="bond-3 atom-2 atom-4" d="M 600.0,215.0 L 743.3,170.2" style="fill:none;fill-rule:evenodd;stroke:#000000;stroke-width:2.0px;stroke-linecap:butt;stroke-linejoin:miter;stroke-opacity:1"/>
<path class="bond-4 atom-4 atom-5" d="M 743.3,170.2 L 792.7,215.7" style="fill:none;fill-rule:evenodd;stroke:#000000;stroke-width:2.0px;stroke-linecap:butt;stroke-linejoin:miter;stroke-opacity:1"/>
<path class="bond-4 atom-4 atom-5" d="M 792.7,215.7 L 842.1,261.2" style="fill:none;fill-rule:evenodd;stroke:#191919;stroke-width:2.0px;stroke-linecap:butt;stroke-linejoin:miter;stroke-opacity:1"/>
<path class="bond-5 atom-4 atom-6" d="M 743.3,170.2 L 776.2,23.7" style="fill:none;fill-rule:evenodd;stroke:#000000;stroke-width:2.0px;stroke-linecap:butt;stroke-linejoin:miter;stroke-opacity:1"/>
<path d="M 597.7,212.9 L 600.0,215.0 L 607.2,212.8" style="fill:none;stroke:#000000;stroke-width:2.0px;stroke-linecap:butt;stroke-linejoin:miter;stroke-opacity:1;"/>
<path class="atom-0" d="M 340.9 154.9 L 345.0 150.7 L 339.5 149.6 L 340.4 146.7 L 345.4 149.3 L 344.7 143.7 L 347.7 143.7 L 346.9 149.3 L 352.0 146.9 L 352.9 149.6 L 347.3 150.6 L 351.3 154.9 L 348.9 156.7 L 346.1 151.4 L 343.3 156.7 L 340.9 154.9 " fill="#191919"/>
<path class="atom-1" d="M 476.5 113.4 Q 476.5 106.6, 479.9 102.8 Q 483.3 99.0, 489.5 99.0 Q 495.8 99.0, 499.2 102.8 Q 502.5 106.6, 502.5 113.4 Q 502.5 120.3, 499.1 124.2 Q 495.7 128.1, 489.5 128.1 Q 483.3 128.1, 479.9 124.2 Q 476.5 120.3, 476.5 113.4 M 489.5 124.9 Q 493.9 124.9, 496.2 122.0 Q 498.5 119.1, 498.5 113.4 Q 498.5 107.8, 496.2 105.0 Q 493.9 102.2, 489.5 102.2 Q 485.2 102.2, 482.9 105.0 Q 480.5 107.8, 480.5 113.4 Q 480.5 119.1, 482.9 122.0 Q 485.2 124.9, 489.5 124.9 " fill="#FF0000"/>
<path class="atom-3" d="M 554.1 361.6 Q 554.1 354.8, 557.5 351.0 Q 560.9 347.2, 567.1 347.2 Q 573.4 347.2, 576.8 351.0 Q 580.1 354.8, 580.1 361.6 Q 580.1 368.5, 576.7 372.4 Q 573.3 376.3, 567.1 376.3 Q 560.9 376.3, 557.5 372.4 Q 554.1 368.5, 554.1 361.6 M 567.1 373.1 Q 571.5 373.1, 573.8 370.2 Q 576.1 367.3, 576.1 361.6 Q 576.1 356.1, 573.8 353.3 Q 571.5 350.4, 567.1 350.4 Q 562.8 350.4, 560.5 353.2 Q 558.1 356.0, 558.1 361.6 Q 558.1 367.3, 560.5 370.2 Q 562.8 373.1, 567.1 373.1 " fill="#FF0000"/>
<path class="atom-5" d="M 848.4 268.8 L 852.6 264.5 L 847.1 263.4 L 847.9 260.6 L 853.0 263.1 L 852.3 257.6 L 855.3 257.5 L 854.4 263.1 L 859.6 260.7 L 860.5 263.4 L 854.9 264.5 L 858.9 268.7 L 856.4 270.5 L 853.7 265.2 L 850.9 270.5 L 848.4 268.8 " fill="#191919"/>
<path class="bond-0 atom-0 atom-1" d="M 351.6,638.0 L 410.8,603.8" style="fill:none;fill-rule:evenodd;stroke:#191919;stroke-width:2.0px;stroke-linecap:butt;stroke-linejoin:miter;stroke-opacity:1"/>
<path class="bond-0 atom-0 atom-1" d="M 410.8,603.8 L 470.0,569.6" style="fill:none;fill-rule:evenodd;stroke:#000000;stroke-width:2.0px;stroke-linecap:butt;stroke-linejoin:miter;stroke-opacity:1"/>
<path class="bond-1 atom-1 atom-2" d="M 470.0,569.6 L 600.0,644.7" style="fill:none;fill-rule:evenodd;stroke:#000000;stroke-width:2.0px;stroke-linecap:butt;stroke-linejoin:miter;stroke-opacity:1"/>
<path class="bond-2 atom-2 atom-3" d="M 600.0,644.7 L 656.0,612.3" style="fill:none;fill-rule:evenodd;stroke:#000000;stroke-width:2.0px;stroke-linecap:butt;stroke-linejoin:miter;stroke-opacity:1"/>
<path class="bond-2 atom-2 atom-3" d="M 656.0,612.3 L 712.1,580.0" style="fill:none;fill-rule:evenodd;stroke:#FF0000;stroke-width:2.0px;stroke-linecap:butt;stroke-linejoin:miter;stroke-opacity:1"/>
<path class="bond-3 atom-3 atom-4" d="M 748.0,580.0 L 798.2,609.0" style="fill:none;fill-rule:evenodd;stroke:#FF0000;stroke-width:2.0px;stroke-linecap:butt;stroke-linejoin:miter;stroke-opacity:1"/>
<path class="bond-3 atom-3 atom-4" d="M 798.2,609.0 L 848.4,638.0" style="fill:none;fill-rule:evenodd;stroke:#191919;stroke-width:2.0px;stroke-linecap:butt;stroke-linejoin:miter;stroke-opacity:1"/>
<path d="M 467.0,571.3 L 470.0,569.6 L 476.5,573.4" style="fill:none;stroke:#000000;stroke-width:2.0px;stroke-linecap:butt;stroke-linejoin:miter;stroke-opacity:1;"/>
<path d="M 593.5,640.9 L 600.0,644.7 L 602.8,643.1" style="fill:none;stroke:#000000;stroke-width:2.0px;stroke-linecap:butt;stroke-linejoin:miter;stroke-opacity:1;"/>
<path class="atom-0" d="M 334.6 641.5 L 338.7 637.3 L 333.2 636.2 L 334.1 633.3 L 339.1 635.9 L 338.4 630.3 L 341.4 630.3 L 340.6 635.9 L 345.7 633.5 L 346.6 636.2 L 341.0 637.2 L 345.0 641.5 L 342.6 643.3 L 339.8 638.0 L 337.0 643.3 L 334.6 641.5 " fill="#191919"/>
<path class="atom-3" d="M 717.0 569.7 Q 717.0 562.9, 720.4 559.1 Q 723.8 555.3, 730.0 555.3 Q 736.3 555.3, 739.7 559.1 Q 743.0 562.9, 743.0 569.7 Q 743.0 576.6, 739.6 580.5 Q 736.2 584.4, 730.0 584.4 Q 723.8 584.4, 720.4 580.5 Q 717.0 576.6, 717.0 569.7 M 730.0 581.2 Q 734.4 581.2, 736.7 578.3 Q 739.0 575.4, 739.0 569.7 Q 739.0 564.1, 736.7 561.3 Q 734.4 558.5, 730.0 558.5 Q 725.7 558.5, 723.4 561.3 Q 721.0 564.1, 721.0 569.7 Q 721.0 575.4, 723.4 578.3 Q 725.7 581.2, 730.0 581.2 " fill="#FF0000"/>
<path class="atom-4" d="M 854.7 641.5 L 858.9 637.3 L 853.4 636.2 L 854.2 633.3 L 859.3 635.9 L 858.6 630.3 L 861.6 630.3 L 860.7 635.9 L 865.9 633.5 L 866.8 636.2 L 861.2 637.2 L 865.2 641.5 L 862.7 643.3 L 860.0 638.0 L 857.2 643.3 L 854.7 641.5 " fill="#191919"/>
</svg>