<svg xmlns="http://www.w3.org/2000/svg" xmlns:rdkit="http://www.rdkit.org/xml" xmlns:xlink="http://www.w3.org/1999/xlink" version="1.1" baseProfile="full" xml:space="preserve" width="1200px" height="800px" viewBox="0 0 1200 800">
<!-- END OF HEADER -->
<rect style="opacity:1.0;fill:#FFFFFF;stroke:none" width="1200.0" height="800.0" x="0.0" y="0.0"> </rect>
<path class="bond-0 atom-0 atom-1" d="M 192.7,282.3 L 273.9,245.2" style="fill:none;fill-rule:evenodd;stroke:#191919;stroke-width:2.0px;stroke-linecap:butt;stroke-linejoin:miter;stroke-opacity:1"/>
<path class="bond-0 atom-0 atom-1" d="M 273.9,245.2 L 355.1,208.1" style="fill:none;fill-rule:evenodd;stroke:#000000;stroke-width:2.0px;stroke-linecap:butt;stroke-linejoin:miter;stroke-opacity:1"/>
<path class="bond-1 atom-1 atom-2" d="M 355.1,208.1 L 512.3,320.0" style="fill:none;fill-rule:evenodd;stroke:#000000;stroke-width:2.0px;stroke-linecap:butt;stroke-linejoin:miter;stroke-opacity:1"/>
<path class="bond-2 atom-2 atom-3" d="M 512.3,320.0 L 687.7,239.9" style="fill:none;fill-rule:evenodd;stroke:#000000;stroke-width:2.0px;stroke-linecap:butt;stroke-linejoin:miter;stroke-opacity:1"/>
<path class="bond-3 atom-3 atom-4" d="M 701.3,249.5 L 709.9,159.9" style="fill:none;fill-rule:evenodd;stroke:#000000;stroke-width:2.0px;stroke-linecap:butt;stroke-linejoin:miter;stroke-opacity:1"/>
<path class="bond-3 atom-3 atom-4" d="M 709.9,159.9 L 718.4,70.3" style="fill:none;fill-rule:evenodd;stroke:#FF0000;stroke-width:2.0px;stroke-linecap:butt;stroke-linejoin:miter;stroke-opacity:1"/>
<path class="bond-3 atom-3 atom-4" d="M 672.5,246.8 L 681.1,157.2" style="fill:none;fill-rule:evenodd;stroke:#000000;stroke-width:2.0px;stroke-linecap:butt;stroke-linejoin:miter;stroke-opacity:1"/>
<path class="bond-3 atom-3 atom-4" d="M 681.1,157.2 L 689.6,67.6" style="fill:none;fill-rule:evenodd;stroke:#FF0000;stroke-width:2.0px;stroke-linecap:butt;stroke-linejoin:miter;stroke-opacity:1"/>
<path class="bond-4 atom-3 atom-5" d="M 687.7,239.9 L 756.6,288.9" style="fill:none;fill-rule:evenodd;stroke:#000000;stroke-width:2.0px;stroke-linecap:butt;stroke-linejoin:miter;stroke-opacity:1"/>
<path class="bond-4 atom-3 atom-5" d="M 756.6,288.9 L 825.5,337.9" style="fill:none;fill-rule:evenodd;stroke:#FF0000;stroke-width:2.0px;stroke-linecap:butt;stroke-linejoin:miter;stroke-opacity:1"/>
<path class="bond-5 atom-5 atom-6" d="M 864.2,342.9 L 936.9,309.7" style="fill:none;fill-rule:evenodd;stroke:#FF0000;stroke-width:2.0px;stroke-linecap:butt;stroke-linejoin:miter;stroke-opacity:1"/>
<path class="bond-5 atom-5 atom-6" d="M 936.9,309.7 L 1009.6,276.5" style="fill:none;fill-rule:evenodd;stroke:#191919;stroke-width:2.0px;stroke-linecap:butt;stroke-linejoin:miter;stroke-opacity:1"/>
<path d="M 351.1,210.0 L 355.1,208.1 L 363.0,213.7" style="fill:none;stroke:#000000;stroke-width:2.0px;stroke-linecap:butt;stroke-linejoin:miter;stroke-opacity:1;"/>
<path d="M 504.4,314.4 L 512.3,320.0 L 521.0,316.0" style="fill:none;stroke:#000000;stroke-width:2.0px;stroke-linecap:butt;stroke-linejoin:miter;stroke-opacity:1;"/>
<path d="M 679.0,243.9 L 687.7,239.9 L 691.2,242.3" style="fill:none;stroke:#000000;stroke-width:2.0px;stroke-linecap:butt;stroke-linejoin:miter;stroke-opacity:1;"/>
<path class="atom-0" d="M 174.3 285.1 L 178.5 280.9 L 173.0 279.8 L 173.8 276.9 L 178.9 279.5 L 178.2 273.9 L 181.2 273.9 L 180.3 279.5 L 185.5 277.1 L 186.4 279.8 L 180.8 280.8 L 184.8 285.1 L 182.3 286.9 L 179.6 281.6 L 176.8 286.9 L 174.3 285.1 " fill="#191919"/>
<path class="atom-4" d="M 693.0 47.9 Q 693.0 41.1, 696.4 37.3 Q 699.8 33.5, 706.0 33.5 Q 712.3 33.5, 715.7 37.3 Q 719.0 41.1, 719.0 47.9 Q 719.0 54.8, 715.6 58.7 Q 712.2 62.6, 706.0 62.6 Q 699.8 62.6, 696.4 58.7 Q 693.0 54.8, 693.0 47.9 M 706.0 59.4 Q 710.4 59.4, 712.7 56.5 Q 715.0 53.6, 715.0 47.9 Q 715.0 42.3, 712.7 39.5 Q 710.4 36.7, 706.0 36.7 Q 701.7 36.7, 699.4 39.5 Q 697.0 42.3, 697.0 47.9 Q 697.0 53.6, 699.4 56.5 Q 701.7 59.4, 706.0 59.4 " fill="#FF0000"/>
<path class="atom-5" d="M 831.9 351.8 Q 831.9 345.0, 835.2 341.2 Q 838.6 337.4, 844.9 337.4 Q 851.2 337.4, 854.5 341.2 Q 857.9 345.0, 857.9 351.8 Q 857.9 358.7, 854.5 362.6 Q 851.1 366.5, 844.9 366.5 Q 838.6 366.5, 835.2 362.6 Q 831.9 358.7, 831.9 351.8 M 844.9 363.3 Q 849.2 363.3, 851.5 360.4 Q 853.9 357.5, 853.9 351.8 Q 853.9 346.3, 851.5 343.5 Q 849.2 340.6, 844.9 340.6 Q 840.6 340.6, 838.2 343.4 Q 835.9 346.2, 835.9 351.8 Q 835.9 357.5, 838.2 360.4 Q 840.6 363.3, 844.9 363.3 " fill="#FF0000"/>
<path class="atom-6" d="M 1015.0 268.4 L 1019.2 264.2 L 1013.6 263.1 L 1014.5 260.2 L 1019.6 262.8 L 1018.8 257.2 L 1021.8 257.2 L 1021.0 262.7 L 1026.2 260.3 L 1027.0 263.1 L 1021.4 264.1 L 1025.4 268.4 L 1023.0 270.1 L 1020.2 264.9 L 1017.4 270.1 L 1015.0 268.4 " fill="#191919"/>
<path class="bond-0 atom-0 atom-1" d="M 278.9,647.8 L 355.9,603.4" style="fill:none;fill-rule:evenodd;stroke:#191919;stroke-width:2.0px;stroke-linecap:butt;stroke-linejoin:miter;stroke-opacity:1"/>
<path class="bond-0 atom-0 atom-1" d="M 355.9,603.4 L 432.9,558.9" style="fill:none;fill-rule:evenodd;stroke:#000000;stroke-width:2.0px;stroke-linecap:butt;stroke-linejoin:miter;stroke-opacity:1"/>
<path class="bond-1 atom-1 atom-2" d="M 432.9,558.9 L 600.0,655.4" style="fill:none;fill-rule:evenodd;stroke:#000000;stroke-width:2.0px;stroke-linecap:butt;stroke-linejoin:miter;stroke-opacity:1"/>
<path class="bond-2 atom-2 atom-3" d="M 600.0,655.4 L 673.8,612.8" style="fill:none;fill-rule:evenodd;stroke:#000000;stroke-width:2.0px;stroke-linecap:butt;stroke-linejoin:miter;stroke-opacity:1"/>
<path class="bond-2 atom-2 atom-3" d="M 673.8,612.8 L 747.7,570.1" style="fill:none;fill-rule:evenodd;stroke:#FF0000;stroke-width:2.0px;stroke-linecap:butt;stroke-linejoin:miter;stroke-opacity:1"/>
<path class="bond-3 atom-3 atom-4" d="M 786.4,570.1 L 853.7,609.0" style="fill:none;fill-rule:evenodd;stroke:#FF0000;stroke-width:2.0px;stroke-linecap:butt;stroke-linejoin:miter;stroke-opacity:1"/>
<path class="bond-3 atom-3 atom-4" d="M 853.7,609.0 L 921.1,647.8" style="fill:none;fill-rule:evenodd;stroke:#191919;stroke-width:2.0px;stroke-linecap:butt;stroke-linejoin:miter;stroke-opacity:1"/>
<path d="M 429.1,561.2 L 432.9,558.9 L 441.3,563.8" style="fill:none;stroke:#000000;stroke-width:2.0px;stroke-linecap:butt;stroke-linejoin:miter;stroke-opacity:1;"/>
<path d="M 591.6,650.6 L 600.0,655.4 L 603.7,653.3" style="fill:none;stroke:#000000;stroke-width:2.0px;stroke-linecap:butt;stroke-linejoin:miter;stroke-opacity:1;"/>
<path class="atom-0" d="M 260.5 652.2 L 264.7 648.0 L 259.2 646.9 L 260.0 644.0 L 265.1 646.6 L 264.4 641.0 L 267.4 641.0 L 266.5 646.5 L 271.7 644.1 L 272.6 646.9 L 267.0 647.9 L 271.0 652.2 L 268.5 653.9 L 265.8 648.7 L 263.0 653.9 L 260.5 652.2 " fill="#191919"/>
<path class="atom-3" d="M 754.1 559.0 Q 754.1 552.2, 757.4 548.4 Q 760.8 544.6, 767.1 544.6 Q 773.3 544.6, 776.7 548.4 Q 780.1 552.2, 780.1 559.0 Q 780.1 565.9, 776.7 569.8 Q 773.3 573.7, 767.1 573.7 Q 760.8 573.7, 757.4 569.8 Q 754.1 565.9, 754.1 559.0 M 767.1 570.5 Q 771.4 570.5, 773.7 567.6 Q 776.1 564.7, 776.1 559.0 Q 776.1 553.5, 773.7 550.7 Q 771.4 547.8, 767.1 547.8 Q 762.7 547.8, 760.4 550.6 Q 758.1 553.4, 758.1 559.0 Q 758.1 564.7, 760.4 567.6 Q 762.7 570.5, 767.1 570.5 " fill="#FF0000"/>
<path class="atom-4" d="M 928.8 652.2 L 932.9 648.0 L 927.4 646.9 L 928.3 644.0 L 933.3 646.6 L 932.6 641.0 L 935.6 641.0 L 934.8 646.5 L 939.9 644.1 L 940.8 646.9 L 935.2 647.9 L 939.2 652.2 L 936.8 653.9 L 934.0 648.7 L 931.2 653.9 L 928.8 652.2 " fill="#191919"/>
</svg>