<svg xmlns="http://www.w3.org/2000/svg" xmlns:rdkit="http://www.rdkit.org/xml" xmlns:xlink="http://www.w3.org/1999/xlink" version="1.1" baseProfile="full" xml:space="preserve" width="1200px" height="1200px" viewBox="0 0 1200 1200">
<!-- END OF HEADER -->
<rect style="opacity:1.0;fill:#FFFFFF;stroke:none" width="1200.0" height="1200.0" x="0.0" y="0.0"> </rect>
<path class="bond-0 atom-0 atom-1" d="M 72.1,193.8 L 100.6,178.6" style="fill:none;fill-rule:evenodd;stroke:#191919;stroke-width:2.0px;stroke-linecap:butt;stroke-linejoin:miter;stroke-opacity:1"/>
<path class="bond-0 atom-0 atom-1" d="M 100.6,178.6 L 129.0,163.5" style="fill:none;fill-rule:evenodd;stroke:#000000;stroke-width:2.0px;stroke-linecap:butt;stroke-linejoin:miter;stroke-opacity:1"/>
<path class="bond-1 atom-1 atom-2" d="M 129.0,163.5 L 190.6,201.9" style="fill:none;fill-rule:evenodd;stroke:#000000;stroke-width:2.0px;stroke-linecap:butt;stroke-linejoin:miter;stroke-opacity:1"/>
<path class="bond-2 atom-2 atom-3" d="M 190.6,201.9 L 216.8,188.0" style="fill:none;fill-rule:evenodd;stroke:#000000;stroke-width:2.0px;stroke-linecap:butt;stroke-linejoin:miter;stroke-opacity:1"/>
<path class="bond-2 atom-2 atom-3" d="M 216.8,188.0 L 242.9,174.1" style="fill:none;fill-rule:evenodd;stroke:#FF0000;stroke-width:2.0px;stroke-linecap:butt;stroke-linejoin:miter;stroke-opacity:1"/>
<path class="bond-3 atom-3 atom-4" d="M 266.6,175.1 L 291.5,190.7" style="fill:none;fill-rule:evenodd;stroke:#FF0000;stroke-width:2.0px;stroke-linecap:butt;stroke-linejoin:miter;stroke-opacity:1"/>
<path class="bond-3 atom-3 atom-4" d="M 291.5,190.7 L 316.4,206.2" style="fill:none;fill-rule:evenodd;stroke:#000000;stroke-width:2.0px;stroke-linecap:butt;stroke-linejoin:miter;stroke-opacity:1"/>
<path class="bond-4 atom-4 atom-5" d="M 311.1,202.9 L 310.0,234.3" style="fill:none;fill-rule:evenodd;stroke:#000000;stroke-width:2.0px;stroke-linecap:butt;stroke-linejoin:miter;stroke-opacity:1"/>
<path class="bond-4 atom-4 atom-5" d="M 310.0,234.3 L 308.9,265.8" style="fill:none;fill-rule:evenodd;stroke:#FF0000;stroke-width:2.0px;stroke-linecap:butt;stroke-linejoin:miter;stroke-opacity:1"/>
<path class="bond-4 atom-4 atom-5" d="M 322.0,203.2 L 320.9,234.7" style="fill:none;fill-rule:evenodd;stroke:#000000;stroke-width:2.0px;stroke-linecap:butt;stroke-linejoin:miter;stroke-opacity:1"/>
<path class="bond-4 atom-4 atom-5" d="M 320.9,234.7 L 319.8,266.2" style="fill:none;fill-rule:evenodd;stroke:#FF0000;stroke-width:2.0px;stroke-linecap:butt;stroke-linejoin:miter;stroke-opacity:1"/>
<path class="bond-5 atom-4 atom-6" d="M 316.4,206.2 L 380.5,172.0" style="fill:none;fill-rule:evenodd;stroke:#000000;stroke-width:2.0px;stroke-linecap:butt;stroke-linejoin:miter;stroke-opacity:1"/>
<path class="bond-6 atom-6 atom-7" d="M 380.5,172.0 L 442.2,210.5" style="fill:none;fill-rule:evenodd;stroke:#000000;stroke-width:2.0px;stroke-linecap:butt;stroke-linejoin:miter;stroke-opacity:1"/>
<path class="bond-7 atom-7 atom-8" d="M 442.2,210.5 L 506.3,176.3" style="fill:none;fill-rule:evenodd;stroke:#000000;stroke-width:2.0px;stroke-linecap:butt;stroke-linejoin:miter;stroke-opacity:1"/>
<path class="bond-8 atom-8 atom-9" d="M 506.3,176.3 L 567.9,214.8" style="fill:none;fill-rule:evenodd;stroke:#000000;stroke-width:2.0px;stroke-linecap:butt;stroke-linejoin:miter;stroke-opacity:1"/>
<path class="bond-9 atom-9 atom-10" d="M 567.9,214.8 L 632.1,180.6" style="fill:none;fill-rule:evenodd;stroke:#000000;stroke-width:2.0px;stroke-linecap:butt;stroke-linejoin:miter;stroke-opacity:1"/>
<path class="bond-10 atom-10 atom-11" d="M 632.1,180.6 L 693.7,219.1" style="fill:none;fill-rule:evenodd;stroke:#000000;stroke-width:2.0px;stroke-linecap:butt;stroke-linejoin:miter;stroke-opacity:1"/>
<path class="bond-11 atom-11 atom-12" d="M 693.7,219.1 L 757.8,184.9" style="fill:none;fill-rule:evenodd;stroke:#000000;stroke-width:2.0px;stroke-linecap:butt;stroke-linejoin:miter;stroke-opacity:1"/>
<path class="bond-12 atom-12 atom-13" d="M 757.8,184.9 L 819.5,223.4" style="fill:none;fill-rule:evenodd;stroke:#000000;stroke-width:2.0px;stroke-linecap:butt;stroke-linejoin:miter;stroke-opacity:1"/>
<path class="bond-13 atom-13 atom-14" d="M 819.5,223.4 L 883.6,189.2" style="fill:none;fill-rule:evenodd;stroke:#000000;stroke-width:2.0px;stroke-linecap:butt;stroke-linejoin:miter;stroke-opacity:1"/>
<path class="bond-14 atom-14 atom-15" d="M 883.6,189.2 L 945.2,227.6" style="fill:none;fill-rule:evenodd;stroke:#000000;stroke-width:2.0px;stroke-linecap:butt;stroke-linejoin:miter;stroke-opacity:1"/>
<path class="bond-15 atom-15 atom-16" d="M 945.2,227.6 L 1009.4,193.5" style="fill:none;fill-rule:evenodd;stroke:#000000;stroke-width:2.0px;stroke-linecap:butt;stroke-linejoin:miter;stroke-opacity:1"/>
<path class="bond-16 atom-16 atom-17" d="M 1014.7,196.8 L 1015.8,165.5" style="fill:none;fill-rule:evenodd;stroke:#000000;stroke-width:2.0px;stroke-linecap:butt;stroke-linejoin:miter;stroke-opacity:1"/>
<path class="bond-16 atom-16 atom-17" d="M 1015.8,165.5 L 1016.8,134.2" style="fill:none;fill-rule:evenodd;stroke:#FF0000;stroke-width:2.0px;stroke-linecap:butt;stroke-linejoin:miter;stroke-opacity:1"/>
<path class="bond-16 atom-16 atom-17" d="M 1003.8,196.4 L 1004.9,165.1" style="fill:none;fill-rule:evenodd;stroke:#000000;stroke-width:2.0px;stroke-linecap:butt;stroke-linejoin:miter;stroke-opacity:1"/>
<path class="bond-16 atom-16 atom-17" d="M 1004.9,165.1 L 1005.9,133.8" style="fill:none;fill-rule:evenodd;stroke:#FF0000;stroke-width:2.0px;stroke-linecap:butt;stroke-linejoin:miter;stroke-opacity:1"/>
<path class="bond-17 atom-16 atom-18" d="M 1009.4,193.5 L 1034.3,209.0" style="fill:none;fill-rule:evenodd;stroke:#000000;stroke-width:2.0px;stroke-linecap:butt;stroke-linejoin:miter;stroke-opacity:1"/>
<path class="bond-17 atom-16 atom-18" d="M 1034.3,209.0 L 1059.2,224.5" style="fill:none;fill-rule:evenodd;stroke:#FF0000;stroke-width:2.0px;stroke-linecap:butt;stroke-linejoin:miter;stroke-opacity:1"/>
<path class="bond-18 atom-18 atom-19" d="M 1082.9,225.6 L 1107.7,212.4" style="fill:none;fill-rule:evenodd;stroke:#FF0000;stroke-width:2.0px;stroke-linecap:butt;stroke-linejoin:miter;stroke-opacity:1"/>
<path class="bond-18 atom-18 atom-19" d="M 1107.7,212.4 L 1132.6,199.1" style="fill:none;fill-rule:evenodd;stroke:#191919;stroke-width:2.0px;stroke-linecap:butt;stroke-linejoin:miter;stroke-opacity:1"/>
<path d="M 127.6,164.2 L 129.0,163.5 L 132.1,165.4" style="fill:none;stroke:#000000;stroke-width:2.0px;stroke-linecap:butt;stroke-linejoin:miter;stroke-opacity:1;"/>
<path d="M 187.6,200.0 L 190.6,201.9 L 191.9,201.2" style="fill:none;stroke:#000000;stroke-width:2.0px;stroke-linecap:butt;stroke-linejoin:miter;stroke-opacity:1;"/>
<path d="M 315.2,205.4 L 316.4,206.2 L 319.6,204.5" style="fill:none;stroke:#000000;stroke-width:2.0px;stroke-linecap:butt;stroke-linejoin:miter;stroke-opacity:1;"/>
<path d="M 377.3,173.7 L 380.5,172.0 L 383.6,174.0" style="fill:none;stroke:#000000;stroke-width:2.0px;stroke-linecap:butt;stroke-linejoin:miter;stroke-opacity:1;"/>
<path d="M 439.1,208.6 L 442.2,210.5 L 445.4,208.8" style="fill:none;stroke:#000000;stroke-width:2.0px;stroke-linecap:butt;stroke-linejoin:miter;stroke-opacity:1;"/>
<path d="M 503.1,178.0 L 506.3,176.3 L 509.4,178.2" style="fill:none;stroke:#000000;stroke-width:2.0px;stroke-linecap:butt;stroke-linejoin:miter;stroke-opacity:1;"/>
<path d="M 564.9,212.9 L 567.9,214.8 L 571.1,213.1" style="fill:none;stroke:#000000;stroke-width:2.0px;stroke-linecap:butt;stroke-linejoin:miter;stroke-opacity:1;"/>
<path d="M 628.9,182.3 L 632.1,180.6 L 635.1,182.5" style="fill:none;stroke:#000000;stroke-width:2.0px;stroke-linecap:butt;stroke-linejoin:miter;stroke-opacity:1;"/>
<path d="M 690.6,217.1 L 693.7,219.1 L 696.9,217.4" style="fill:none;stroke:#000000;stroke-width:2.0px;stroke-linecap:butt;stroke-linejoin:miter;stroke-opacity:1;"/>
<path d="M 754.6,186.6 L 757.8,184.9 L 760.9,186.8" style="fill:none;stroke:#000000;stroke-width:2.0px;stroke-linecap:butt;stroke-linejoin:miter;stroke-opacity:1;"/>
<path d="M 816.4,221.4 L 819.5,223.4 L 822.7,221.6" style="fill:none;stroke:#000000;stroke-width:2.0px;stroke-linecap:butt;stroke-linejoin:miter;stroke-opacity:1;"/>
<path d="M 880.4,190.9 L 883.6,189.2 L 886.7,191.1" style="fill:none;stroke:#000000;stroke-width:2.0px;stroke-linecap:butt;stroke-linejoin:miter;stroke-opacity:1;"/>
<path d="M 942.2,225.7 L 945.2,227.6 L 948.4,225.9" style="fill:none;stroke:#000000;stroke-width:2.0px;stroke-linecap:butt;stroke-linejoin:miter;stroke-opacity:1;"/>
<path d="M 1006.2,195.2 L 1009.4,193.5 L 1010.6,194.3" style="fill:none;stroke:#000000;stroke-width:2.0px;stroke-linecap:butt;stroke-linejoin:miter;stroke-opacity:1;"/>
<path class="atom-0" d="M 61.0 195.3 L 64.0 192.2 L 60.0 191.4 L 60.6 189.4 L 64.3 191.2 L 63.8 187.2 L 66.0 187.2 L 65.3 191.2 L 69.1 189.5 L 69.7 191.4 L 65.7 192.2 L 68.6 195.3 L 66.8 196.6 L 64.8 192.7 L 62.8 196.6 L 61.0 195.3 " fill="#191919"/>
<path class="atom-3" d="M 245.3 167.8 Q 245.3 162.9, 247.8 160.1 Q 250.2 157.3, 254.8 157.3 Q 259.3 157.3, 261.8 160.1 Q 264.2 162.9, 264.2 167.8 Q 264.2 172.8, 261.7 175.7 Q 259.3 178.5, 254.8 178.5 Q 250.2 178.5, 247.8 175.7 Q 245.3 172.8, 245.3 167.8 M 254.8 176.1 Q 257.9 176.1, 259.6 174.1 Q 261.3 171.9, 261.3 167.8 Q 261.3 163.8, 259.6 161.7 Q 257.9 159.7, 254.8 159.7 Q 251.6 159.7, 249.9 161.7 Q 248.2 163.7, 248.2 167.8 Q 248.2 172.0, 249.9 174.1 Q 251.6 176.1, 254.8 176.1 " fill="#FF0000"/>
<path class="atom-5" d="M 304.5 278.9 Q 304.5 273.9, 306.9 271.2 Q 309.4 268.4, 313.9 268.4 Q 318.5 268.4, 320.9 271.2 Q 323.4 273.9, 323.4 278.9 Q 323.4 283.9, 320.9 286.7 Q 318.4 289.5, 313.9 289.5 Q 309.4 289.5, 306.9 286.7 Q 304.5 283.9, 304.5 278.9 M 313.9 287.2 Q 317.1 287.2, 318.8 285.1 Q 320.5 283.0, 320.5 278.9 Q 320.5 274.8, 318.8 272.8 Q 317.1 270.7, 313.9 270.7 Q 310.8 270.7, 309.1 272.8 Q 307.4 274.8, 307.4 278.9 Q 307.4 283.0, 309.1 285.1 Q 310.8 287.2, 313.9 287.2 " fill="#FF0000"/>
<path class="atom-17" d="M 1002.4 120.9 Q 1002.4 116.0, 1004.8 113.2 Q 1007.3 110.5, 1011.8 110.5 Q 1016.4 110.5, 1018.8 113.2 Q 1021.3 116.0, 1021.3 120.9 Q 1021.3 125.9, 1018.8 128.8 Q 1016.3 131.6, 1011.8 131.6 Q 1007.3 131.6, 1004.8 128.8 Q 1002.4 126.0, 1002.4 120.9 M 1011.8 129.3 Q 1015.0 129.3, 1016.7 127.2 Q 1018.4 125.1, 1018.4 120.9 Q 1018.4 116.9, 1016.7 114.9 Q 1015.0 112.8, 1011.8 112.8 Q 1008.7 112.8, 1007.0 114.8 Q 1005.3 116.9, 1005.3 120.9 Q 1005.3 125.1, 1007.0 127.2 Q 1008.7 129.3, 1011.8 129.3 " fill="#FF0000"/>
<path class="atom-18" d="M 1061.6 232.0 Q 1061.6 227.0, 1064.0 224.3 Q 1066.4 221.5, 1071.0 221.5 Q 1075.6 221.5, 1078.0 224.3 Q 1080.5 227.0, 1080.5 232.0 Q 1080.5 237.0, 1078.0 239.8 Q 1075.5 242.7, 1071.0 242.7 Q 1066.5 242.7, 1064.0 239.8 Q 1061.6 237.0, 1061.6 232.0 M 1071.0 240.3 Q 1074.1 240.3, 1075.8 238.2 Q 1077.5 236.1, 1077.5 232.0 Q 1077.5 228.0, 1075.8 225.9 Q 1074.1 223.9, 1071.0 223.9 Q 1067.9 223.9, 1066.2 225.9 Q 1064.5 227.9, 1064.5 232.0 Q 1064.5 236.1, 1066.2 238.2 Q 1067.9 240.3, 1071.0 240.3 " fill="#FF0000"/>
<path class="atom-19" d="M 1131.3 195.5 L 1134.3 192.4 L 1130.3 191.6 L 1130.9 189.5 L 1134.6 191.4 L 1134.0 187.3 L 1136.2 187.3 L 1135.6 191.3 L 1139.4 189.6 L 1140.0 191.6 L 1135.9 192.3 L 1138.8 195.4 L 1137.1 196.7 L 1135.1 192.9 L 1133.0 196.7 L 1131.3 195.5 " fill="#191919"/>
<path class="bond-0 atom-0 atom-1" d="M 323.5,590.7 L 352.5,576.5" style="fill:none;fill-rule:evenodd;stroke:#191919;stroke-width:2.0px;stroke-linecap:butt;stroke-linejoin:miter;stroke-opacity:1"/>
<path class="bond-0 atom-0 atom-1" d="M 352.5,576.5 L 381.5,562.3" style="fill:none;fill-rule:evenodd;stroke:#000000;stroke-width:2.0px;stroke-linecap:butt;stroke-linejoin:miter;stroke-opacity:1"/>
<path class="bond-1 atom-1 atom-2" d="M 381.5,562.3 L 441.8,602.9" style="fill:none;fill-rule:evenodd;stroke:#000000;stroke-width:2.0px;stroke-linecap:butt;stroke-linejoin:miter;stroke-opacity:1"/>
<path class="bond-2 atom-2 atom-3" d="M 441.8,602.9 L 468.5,589.8" style="fill:none;fill-rule:evenodd;stroke:#000000;stroke-width:2.0px;stroke-linecap:butt;stroke-linejoin:miter;stroke-opacity:1"/>
<path class="bond-2 atom-2 atom-3" d="M 468.5,589.8 L 495.2,576.7" style="fill:none;fill-rule:evenodd;stroke:#FF0000;stroke-width:2.0px;stroke-linecap:butt;stroke-linejoin:miter;stroke-opacity:1"/>
<path class="bond-3 atom-3 atom-4" d="M 518.9,578.9 L 543.1,595.2" style="fill:none;fill-rule:evenodd;stroke:#FF0000;stroke-width:2.0px;stroke-linecap:butt;stroke-linejoin:miter;stroke-opacity:1"/>
<path class="bond-3 atom-3 atom-4" d="M 543.1,595.2 L 567.4,611.5" style="fill:none;fill-rule:evenodd;stroke:#000000;stroke-width:2.0px;stroke-linecap:butt;stroke-linejoin:miter;stroke-opacity:1"/>
<path class="bond-4 atom-4 atom-5" d="M 562.1,608.0 L 560.0,639.4" style="fill:none;fill-rule:evenodd;stroke:#000000;stroke-width:2.0px;stroke-linecap:butt;stroke-linejoin:miter;stroke-opacity:1"/>
<path class="bond-4 atom-4 atom-5" d="M 560.0,639.4 L 557.8,670.8" style="fill:none;fill-rule:evenodd;stroke:#FF0000;stroke-width:2.0px;stroke-linecap:butt;stroke-linejoin:miter;stroke-opacity:1"/>
<path class="bond-4 atom-4 atom-5" d="M 573.0,608.7 L 570.9,640.1" style="fill:none;fill-rule:evenodd;stroke:#000000;stroke-width:2.0px;stroke-linecap:butt;stroke-linejoin:miter;stroke-opacity:1"/>
<path class="bond-4 atom-4 atom-5" d="M 570.9,640.1 L 568.7,671.5" style="fill:none;fill-rule:evenodd;stroke:#FF0000;stroke-width:2.0px;stroke-linecap:butt;stroke-linejoin:miter;stroke-opacity:1"/>
<path class="bond-5 atom-4 atom-6" d="M 567.4,611.5 L 632.6,579.6" style="fill:none;fill-rule:evenodd;stroke:#000000;stroke-width:2.0px;stroke-linecap:butt;stroke-linejoin:miter;stroke-opacity:1"/>
<path class="bond-6 atom-6 atom-7" d="M 632.6,579.6 L 692.9,620.1" style="fill:none;fill-rule:evenodd;stroke:#000000;stroke-width:2.0px;stroke-linecap:butt;stroke-linejoin:miter;stroke-opacity:1"/>
<path class="bond-7 atom-7 atom-8" d="M 692.9,620.1 L 758.2,588.2" style="fill:none;fill-rule:evenodd;stroke:#000000;stroke-width:2.0px;stroke-linecap:butt;stroke-linejoin:miter;stroke-opacity:1"/>
<path class="bond-8 atom-8 atom-9" d="M 763.4,591.7 L 765.5,560.4" style="fill:none;fill-rule:evenodd;stroke:#000000;stroke-width:2.0px;stroke-linecap:butt;stroke-linejoin:miter;stroke-opacity:1"/>
<path class="bond-8 atom-8 atom-9" d="M 765.5,560.4 L 767.7,529.2" style="fill:none;fill-rule:evenodd;stroke:#FF0000;stroke-width:2.0px;stroke-linecap:butt;stroke-linejoin:miter;stroke-opacity:1"/>
<path class="bond-8 atom-8 atom-9" d="M 752.5,591.0 L 754.7,559.7" style="fill:none;fill-rule:evenodd;stroke:#000000;stroke-width:2.0px;stroke-linecap:butt;stroke-linejoin:miter;stroke-opacity:1"/>
<path class="bond-8 atom-8 atom-9" d="M 754.7,559.7 L 756.8,528.5" style="fill:none;fill-rule:evenodd;stroke:#FF0000;stroke-width:2.0px;stroke-linecap:butt;stroke-linejoin:miter;stroke-opacity:1"/>
<path class="bond-9 atom-8 atom-10" d="M 758.2,588.2 L 782.4,604.5" style="fill:none;fill-rule:evenodd;stroke:#000000;stroke-width:2.0px;stroke-linecap:butt;stroke-linejoin:miter;stroke-opacity:1"/>
<path class="bond-9 atom-8 atom-10" d="M 782.4,604.5 L 806.6,620.8" style="fill:none;fill-rule:evenodd;stroke:#FF0000;stroke-width:2.0px;stroke-linecap:butt;stroke-linejoin:miter;stroke-opacity:1"/>
<path class="bond-10 atom-10 atom-11" d="M 830.3,622.9 L 855.6,610.6" style="fill:none;fill-rule:evenodd;stroke:#FF0000;stroke-width:2.0px;stroke-linecap:butt;stroke-linejoin:miter;stroke-opacity:1"/>
<path class="bond-10 atom-10 atom-11" d="M 855.6,610.6 L 881.0,598.2" style="fill:none;fill-rule:evenodd;stroke:#191919;stroke-width:2.0px;stroke-linecap:butt;stroke-linejoin:miter;stroke-opacity:1"/>
<path d="M 380.1,563.0 L 381.5,562.3 L 384.6,564.3" style="fill:none;stroke:#000000;stroke-width:2.0px;stroke-linecap:butt;stroke-linejoin:miter;stroke-opacity:1;"/>
<path d="M 438.8,600.8 L 441.8,602.9 L 443.2,602.2" style="fill:none;stroke:#000000;stroke-width:2.0px;stroke-linecap:butt;stroke-linejoin:miter;stroke-opacity:1;"/>
<path d="M 566.2,610.7 L 567.4,611.5 L 570.6,609.9" style="fill:none;stroke:#000000;stroke-width:2.0px;stroke-linecap:butt;stroke-linejoin:miter;stroke-opacity:1;"/>
<path d="M 629.4,581.2 L 632.6,579.6 L 635.6,581.6" style="fill:none;stroke:#000000;stroke-width:2.0px;stroke-linecap:butt;stroke-linejoin:miter;stroke-opacity:1;"/>
<path d="M 689.9,618.1 L 692.9,620.1 L 696.2,618.5" style="fill:none;stroke:#000000;stroke-width:2.0px;stroke-linecap:butt;stroke-linejoin:miter;stroke-opacity:1;"/>
<path d="M 754.9,589.8 L 758.2,588.2 L 759.4,589.0" style="fill:none;stroke:#000000;stroke-width:2.0px;stroke-linecap:butt;stroke-linejoin:miter;stroke-opacity:1;"/>
<path class="atom-0" d="M 312.4 592.0 L 315.4 588.9 L 311.4 588.1 L 312.0 586.0 L 315.7 587.9 L 315.2 583.8 L 317.4 583.8 L 316.8 587.8 L 320.5 586.1 L 321.1 588.1 L 317.1 588.8 L 320.0 591.9 L 318.2 593.2 L 316.2 589.4 L 314.2 593.2 L 312.4 592.0 " fill="#191919"/>
<path class="atom-3" d="M 497.6 571.0 Q 497.6 566.1, 500.1 563.3 Q 502.5 560.5, 507.1 560.5 Q 511.6 560.5, 514.1 563.3 Q 516.5 566.1, 516.5 571.0 Q 516.5 576.0, 514.1 578.8 Q 511.6 581.7, 507.1 581.7 Q 502.6 581.7, 500.1 578.8 Q 497.6 576.0, 497.6 571.0 M 507.1 579.3 Q 510.2 579.3, 511.9 577.2 Q 513.6 575.1, 513.6 571.0 Q 513.6 567.0, 511.9 564.9 Q 510.2 562.9, 507.1 562.9 Q 503.9 562.9, 502.2 564.9 Q 500.5 566.9, 500.5 571.0 Q 500.5 575.2, 502.2 577.2 Q 503.9 579.3, 507.1 579.3 " fill="#FF0000"/>
<path class="atom-5" d="M 552.9 684.0 Q 552.9 679.1, 555.4 676.3 Q 557.8 673.6, 562.4 673.6 Q 567.0 673.6, 569.4 676.3 Q 571.8 679.1, 571.8 684.0 Q 571.8 689.0, 569.4 691.9 Q 566.9 694.7, 562.4 694.7 Q 557.9 694.7, 555.4 691.9 Q 552.9 689.1, 552.9 684.0 M 562.4 692.4 Q 565.5 692.4, 567.2 690.3 Q 568.9 688.2, 568.9 684.0 Q 568.9 680.0, 567.2 678.0 Q 565.5 675.9, 562.4 675.9 Q 559.3 675.9, 557.5 677.9 Q 555.9 680.0, 555.9 684.0 Q 555.9 688.2, 557.5 690.3 Q 559.3 692.4, 562.4 692.4 " fill="#FF0000"/>
<path class="atom-9" d="M 753.7 515.8 Q 753.7 510.8, 756.2 508.1 Q 758.6 505.3, 763.2 505.3 Q 767.7 505.3, 770.2 508.1 Q 772.6 510.8, 772.6 515.8 Q 772.6 520.8, 770.1 523.6 Q 767.7 526.4, 763.2 526.4 Q 758.6 526.4, 756.2 523.6 Q 753.7 520.8, 753.7 515.8 M 763.2 524.1 Q 766.3 524.1, 768.0 522.0 Q 769.7 519.9, 769.7 515.8 Q 769.7 511.7, 768.0 509.7 Q 766.3 507.6, 763.2 507.6 Q 760.0 507.6, 758.3 509.7 Q 756.6 511.7, 756.6 515.8 Q 756.6 519.9, 758.3 522.0 Q 760.0 524.1, 763.2 524.1 " fill="#FF0000"/>
<path class="atom-10" d="M 809.0 628.8 Q 809.0 623.9, 811.5 621.1 Q 813.9 618.3, 818.5 618.3 Q 823.0 618.3, 825.5 621.1 Q 827.9 623.9, 827.9 628.8 Q 827.9 633.8, 825.4 636.6 Q 823.0 639.5, 818.5 639.5 Q 813.9 639.5, 811.5 636.6 Q 809.0 633.8, 809.0 628.8 M 818.5 637.1 Q 821.6 637.1, 823.3 635.0 Q 825.0 632.9, 825.0 628.8 Q 825.0 624.8, 823.3 622.7 Q 821.6 620.7, 818.5 620.7 Q 815.3 620.7, 813.6 622.7 Q 811.9 624.7, 811.9 628.8 Q 811.9 633.0, 813.6 635.0 Q 815.3 637.1, 818.5 637.1 " fill="#FF0000"/>
<path class="atom-11" d="M 879.8 594.5 L 882.9 591.4 L 878.9 590.6 L 879.5 588.6 L 883.2 590.4 L 882.6 586.4 L 884.8 586.3 L 884.2 590.4 L 887.9 588.6 L 888.6 590.6 L 884.5 591.4 L 887.4 594.5 L 885.7 595.8 L 883.6 591.9 L 881.6 595.8 L 879.8 594.5 " fill="#191919"/>
<path class="bond-0 atom-0 atom-1" d="M 559.0,999.9 L 585.8,999.9" style="fill:none;fill-rule:evenodd;stroke:#191919;stroke-width:2.0px;stroke-linecap:butt;stroke-linejoin:miter;stroke-opacity:1"/>
<path class="bond-0 atom-0 atom-1" d="M 585.8,999.9 L 612.5,999.9" style="fill:none;fill-rule:evenodd;stroke:#FF0000;stroke-width:2.0px;stroke-linecap:butt;stroke-linejoin:miter;stroke-opacity:1"/>
<path class="atom-0" d="M 547.9 997.6 L 550.9 994.5 L 546.9 993.7 L 547.5 991.6 L 551.2 993.5 L 550.6 989.4 L 552.8 989.4 L 552.2 993.4 L 556.0 991.7 L 556.6 993.7 L 552.5 994.4 L 555.4 997.5 L 553.7 998.8 L 551.7 995.0 L 549.6 998.8 L 547.9 997.6 " fill="#191919"/>
<path class="atom-1" d="M 614.9 999.9 Q 614.9 995.0, 617.4 992.2 Q 619.8 989.5, 624.4 989.5 Q 628.9 989.5, 631.4 992.2 Q 633.8 995.0, 633.8 999.9 Q 633.8 1004.9, 631.4 1007.8 Q 628.9 1010.6, 624.4 1010.6 Q 619.9 1010.6, 617.4 1007.8 Q 614.9 1005.0, 614.9 999.9 M 624.4 1008.3 Q 627.5 1008.3, 629.2 1006.2 Q 630.9 1004.1, 630.9 999.9 Q 630.9 995.9, 629.2 993.9 Q 627.5 991.8, 624.4 991.8 Q 621.2 991.8, 619.5 993.8 Q 617.8 995.9, 617.8 999.9 Q 617.8 1004.1, 619.5 1006.2 Q 621.2 1008.3, 624.4 1008.3 " fill="#FF0000"/>
<path class="atom-1" d="M 637.0 989.7 L 639.8 989.7 L 639.8 998.4 L 650.3 998.4 L 650.3 989.7 L 653.1 989.7 L 653.1 1010.3 L 650.3 1010.3 L 650.3 1000.8 L 639.8 1000.8 L 639.8 1010.3 L 637.0 1010.3 L 637.0 989.7 " fill="#FF0000"/>
</svg>