<svg xmlns="http://www.w3.org/2000/svg" xmlns:rdkit="http://www.rdkit.org/xml" xmlns:xlink="http://www.w3.org/1999/xlink" version="1.1" baseProfile="full" xml:space="preserve" width="1200px" height="800px" viewBox="0 0 1200 800">
<!-- END OF HEADER -->
<rect style="opacity:1.0;fill:#FFFFFF;stroke:none" width="1200.0" height="800.0" x="0.0" y="0.0"> </rect>
<path class="bond-0 atom-0 atom-1" d="M 795.3,153.2 L 768.7,199.3" style="fill:none;fill-rule:evenodd;stroke:#191919;stroke-width:2.0px;stroke-linecap:butt;stroke-linejoin:miter;stroke-opacity:1"/>
<path class="bond-0 atom-0 atom-1" d="M 768.7,199.3 L 742.1,245.4" style="fill:none;fill-rule:evenodd;stroke:#FF0000;stroke-width:2.0px;stroke-linecap:butt;stroke-linejoin:miter;stroke-opacity:1"/>
<path class="bond-1 atom-1 atom-2" d="M 714.0,264.0 L 657.0,264.0" style="fill:none;fill-rule:evenodd;stroke:#FF0000;stroke-width:2.0px;stroke-linecap:butt;stroke-linejoin:miter;stroke-opacity:1"/>
<path class="bond-1 atom-1 atom-2" d="M 657.0,264.0 L 600.0,264.0" style="fill:none;fill-rule:evenodd;stroke:#000000;stroke-width:2.0px;stroke-linecap:butt;stroke-linejoin:miter;stroke-opacity:1"/>
<path class="bond-2 atom-2 atom-3" d="M 600.0,264.0 L 534.3,377.8" style="fill:none;fill-rule:evenodd;stroke:#000000;stroke-width:2.0px;stroke-linecap:butt;stroke-linejoin:miter;stroke-opacity:1"/>
<path class="bond-3 atom-2 atom-4" d="M 600.0,264.0 L 534.3,150.3" style="fill:none;fill-rule:evenodd;stroke:#000000;stroke-width:2.0px;stroke-linecap:butt;stroke-linejoin:miter;stroke-opacity:1"/>
<path class="bond-4 atom-4 atom-5" d="M 534.3,150.3 L 474.2,150.3" style="fill:none;fill-rule:evenodd;stroke:#000000;stroke-width:2.0px;stroke-linecap:butt;stroke-linejoin:miter;stroke-opacity:1"/>
<path class="bond-4 atom-4 atom-5" d="M 474.2,150.3 L 414.0,150.3" style="fill:none;fill-rule:evenodd;stroke:#191919;stroke-width:2.0px;stroke-linecap:butt;stroke-linejoin:miter;stroke-opacity:1"/>
<path class="bond-5 atom-4 atom-6" d="M 540.0,160.1 L 568.8,110.4" style="fill:none;fill-rule:evenodd;stroke:#000000;stroke-width:2.0px;stroke-linecap:butt;stroke-linejoin:miter;stroke-opacity:1"/>
<path class="bond-5 atom-4 atom-6" d="M 568.8,110.4 L 597.5,60.6" style="fill:none;fill-rule:evenodd;stroke:#FF0000;stroke-width:2.0px;stroke-linecap:butt;stroke-linejoin:miter;stroke-opacity:1"/>
<path class="bond-5 atom-4 atom-6" d="M 523.0,150.3 L 551.7,100.5" style="fill:none;fill-rule:evenodd;stroke:#000000;stroke-width:2.0px;stroke-linecap:butt;stroke-linejoin:miter;stroke-opacity:1"/>
<path class="bond-5 atom-4 atom-6" d="M 551.7,100.5 L 580.4,50.7" style="fill:none;fill-rule:evenodd;stroke:#FF0000;stroke-width:2.0px;stroke-linecap:butt;stroke-linejoin:miter;stroke-opacity:1"/>
<path d="M 537.6,156.0 L 534.3,150.3 L 531.3,150.3" style="fill:none;stroke:#000000;stroke-width:2.0px;stroke-linecap:butt;stroke-linejoin:miter;stroke-opacity:1;"/>
<path class="atom-0" d="M 791.6 147.1 L 795.8 142.9 L 790.3 141.8 L 791.1 138.9 L 796.2 141.5 L 795.5 135.9 L 798.5 135.9 L 797.6 141.5 L 802.8 139.1 L 803.7 141.8 L 798.1 142.8 L 802.1 147.1 L 799.6 148.9 L 796.9 143.6 L 794.1 148.9 L 791.6 147.1 " fill="#191919"/>
<path class="atom-1" d="M 718.3 264.1 Q 718.3 257.3, 721.7 253.5 Q 725.0 249.7, 731.3 249.7 Q 737.6 249.7, 741.0 253.5 Q 744.3 257.3, 744.3 264.1 Q 744.3 271.0, 740.9 274.9 Q 737.5 278.8, 731.3 278.8 Q 725.1 278.8, 721.7 274.9 Q 718.3 271.0, 718.3 264.1 M 731.3 275.6 Q 735.6 275.6, 738.0 272.7 Q 740.3 269.8, 740.3 264.1 Q 740.3 258.5, 738.0 255.7 Q 735.6 252.9, 731.3 252.9 Q 727.0 252.9, 724.6 255.7 Q 722.3 258.5, 722.3 264.1 Q 722.3 269.8, 724.6 272.7 Q 727.0 275.6, 731.3 275.6 " fill="#FF0000"/>
<path class="atom-5" d="M 397.7 147.1 L 401.8 142.9 L 396.3 141.8 L 397.2 138.9 L 402.2 141.5 L 401.5 135.9 L 404.5 135.9 L 403.7 141.5 L 408.8 139.1 L 409.7 141.8 L 404.1 142.8 L 408.1 147.1 L 405.7 148.9 L 402.9 143.6 L 400.1 148.9 L 397.7 147.1 " fill="#191919"/>
<path class="atom-6" d="M 587.0 36.6 Q 587.0 29.8, 590.4 26.0 Q 593.7 22.2, 600.0 22.2 Q 606.3 22.2, 609.6 26.0 Q 613.0 29.8, 613.0 36.6 Q 613.0 43.5, 609.6 47.4 Q 606.2 51.3, 600.0 51.3 Q 593.8 51.3, 590.4 47.4 Q 587.0 43.6, 587.0 36.6 M 600.0 48.1 Q 604.3 48.1, 606.6 45.2 Q 609.0 42.3, 609.0 36.6 Q 609.0 31.1, 606.6 28.3 Q 604.3 25.4, 600.0 25.4 Q 595.7 25.4, 593.3 28.2 Q 591.0 31.0, 591.0 36.6 Q 591.0 42.4, 593.3 45.2 Q 595.7 48.1, 600.0 48.1 " fill="#FF0000"/>
<path class="bond-0 atom-0 atom-1" d="M 497.3,627.2 L 548.7,597.5" style="fill:none;fill-rule:evenodd;stroke:#191919;stroke-width:2.0px;stroke-linecap:butt;stroke-linejoin:miter;stroke-opacity:1"/>
<path class="bond-0 atom-0 atom-1" d="M 548.7,597.5 L 600.0,567.9" style="fill:none;fill-rule:evenodd;stroke:#000000;stroke-width:2.0px;stroke-linecap:butt;stroke-linejoin:miter;stroke-opacity:1"/>
<path class="bond-1 atom-1 atom-2" d="M 600.0,567.9 L 651.3,597.5" style="fill:none;fill-rule:evenodd;stroke:#000000;stroke-width:2.0px;stroke-linecap:butt;stroke-linejoin:miter;stroke-opacity:1"/>
<path class="bond-1 atom-1 atom-2" d="M 651.3,597.5 L 702.7,627.2" style="fill:none;fill-rule:evenodd;stroke:#191919;stroke-width:2.0px;stroke-linecap:butt;stroke-linejoin:miter;stroke-opacity:1"/>
<path d="M 597.4,569.4 L 600.0,567.9 L 602.6,569.4" style="fill:none;stroke:#000000;stroke-width:2.0px;stroke-linecap:butt;stroke-linejoin:miter;stroke-opacity:1;"/>
<path class="atom-0" d="M 480.9 630.4 L 485.1 626.2 L 479.6 625.0 L 480.4 622.2 L 485.5 624.8 L 484.8 619.2 L 487.8 619.2 L 486.9 624.7 L 492.1 622.3 L 493.0 625.0 L 487.4 626.1 L 491.4 630.4 L 488.9 632.1 L 486.2 626.8 L 483.4 632.1 L 480.9 630.4 " fill="#191919"/>
<path class="atom-2" d="M 708.4 630.4 L 712.6 626.2 L 707.0 625.0 L 707.9 622.2 L 713.0 624.8 L 712.2 619.2 L 715.2 619.2 L 714.4 624.7 L 719.6 622.3 L 720.4 625.0 L 714.8 626.1 L 718.8 630.4 L 716.4 632.1 L 713.6 626.8 L 710.8 632.1 L 708.4 630.4 " fill="#191919"/>
</svg>