<svg xmlns="http://www.w3.org/2000/svg" xmlns:rdkit="http://www.rdkit.org/xml" xmlns:xlink="http://www.w3.org/1999/xlink" version="1.1" baseProfile="full" xml:space="preserve" width="1200px" height="800px" viewBox="0 0 1200 800">
<!-- END OF HEADER -->
<rect style="opacity:1.0;fill:#FFFFFF;stroke:none" width="1200.0" height="800.0" x="0.0" y="0.0"> </rect>
<path class="bond-0 atom-0 atom-1" d="M 82.0,256.4 L 135.7,229.7" style="fill:none;fill-rule:evenodd;stroke:#191919;stroke-width:2.0px;stroke-linecap:butt;stroke-linejoin:miter;stroke-opacity:1"/>
<path class="bond-0 atom-0 atom-1" d="M 135.7,229.7 L 189.3,202.9" style="fill:none;fill-rule:evenodd;stroke:#FF0000;stroke-width:2.0px;stroke-linecap:butt;stroke-linejoin:miter;stroke-opacity:1"/>
<path class="bond-1 atom-1 atom-2" d="M 225.4,205.8 L 280.3,242.1" style="fill:none;fill-rule:evenodd;stroke:#FF0000;stroke-width:2.0px;stroke-linecap:butt;stroke-linejoin:miter;stroke-opacity:1"/>
<path class="bond-1 atom-1 atom-2" d="M 280.3,242.1 L 335.1,278.4" style="fill:none;fill-rule:evenodd;stroke:#000000;stroke-width:2.0px;stroke-linecap:butt;stroke-linejoin:miter;stroke-opacity:1"/>
<path class="bond-2 atom-2 atom-3" d="M 335.1,278.4 L 472.2,209.9" style="fill:none;fill-rule:evenodd;stroke:#000000;stroke-width:2.0px;stroke-linecap:butt;stroke-linejoin:miter;stroke-opacity:1"/>
<path class="bond-3 atom-3 atom-4" d="M 472.2,209.9 L 600.0,294.4" style="fill:none;fill-rule:evenodd;stroke:#000000;stroke-width:2.0px;stroke-linecap:butt;stroke-linejoin:miter;stroke-opacity:1"/>
<path class="bond-4 atom-4 atom-5" d="M 600.0,294.4 L 737.1,226.0" style="fill:none;fill-rule:evenodd;stroke:#000000;stroke-width:2.0px;stroke-linecap:butt;stroke-linejoin:miter;stroke-opacity:1"/>
<path class="bond-5 atom-5 atom-6" d="M 737.1,226.0 L 864.9,310.5" style="fill:none;fill-rule:evenodd;stroke:#000000;stroke-width:2.0px;stroke-linecap:butt;stroke-linejoin:miter;stroke-opacity:1"/>
<path class="bond-6 atom-6 atom-7" d="M 864.9,310.5 L 1001.9,242.1" style="fill:none;fill-rule:evenodd;stroke:#000000;stroke-width:2.0px;stroke-linecap:butt;stroke-linejoin:miter;stroke-opacity:1"/>
<path class="bond-7 atom-7 atom-8" d="M 1001.9,242.1 L 1060.0,280.5" style="fill:none;fill-rule:evenodd;stroke:#000000;stroke-width:2.0px;stroke-linecap:butt;stroke-linejoin:miter;stroke-opacity:1"/>
<path class="bond-7 atom-7 atom-8" d="M 1060.0,280.5 L 1118.0,318.8" style="fill:none;fill-rule:evenodd;stroke:#191919;stroke-width:2.0px;stroke-linecap:butt;stroke-linejoin:miter;stroke-opacity:1"/>
<path class="bond-8 atom-7 atom-9" d="M 1013.0,249.4 L 1017.2,179.5" style="fill:none;fill-rule:evenodd;stroke:#000000;stroke-width:2.0px;stroke-linecap:butt;stroke-linejoin:miter;stroke-opacity:1"/>
<path class="bond-8 atom-7 atom-9" d="M 1017.2,179.5 L 1021.5,109.7" style="fill:none;fill-rule:evenodd;stroke:#FF0000;stroke-width:2.0px;stroke-linecap:butt;stroke-linejoin:miter;stroke-opacity:1"/>
<path class="bond-8 atom-7 atom-9" d="M 990.1,248.0 L 994.3,178.2" style="fill:none;fill-rule:evenodd;stroke:#000000;stroke-width:2.0px;stroke-linecap:butt;stroke-linejoin:miter;stroke-opacity:1"/>
<path class="bond-8 atom-7 atom-9" d="M 994.3,178.2 L 998.6,108.3" style="fill:none;fill-rule:evenodd;stroke:#FF0000;stroke-width:2.0px;stroke-linecap:butt;stroke-linejoin:miter;stroke-opacity:1"/>
<path d="M 332.4,276.6 L 335.1,278.4 L 342.0,274.9" style="fill:none;stroke:#000000;stroke-width:2.0px;stroke-linecap:butt;stroke-linejoin:miter;stroke-opacity:1;"/>
<path d="M 465.4,213.4 L 472.2,209.9 L 478.6,214.2" style="fill:none;stroke:#000000;stroke-width:2.0px;stroke-linecap:butt;stroke-linejoin:miter;stroke-opacity:1;"/>
<path d="M 593.6,290.2 L 600.0,294.4 L 606.9,291.0" style="fill:none;stroke:#000000;stroke-width:2.0px;stroke-linecap:butt;stroke-linejoin:miter;stroke-opacity:1;"/>
<path d="M 730.2,229.4 L 737.1,226.0 L 743.5,230.2" style="fill:none;stroke:#000000;stroke-width:2.0px;stroke-linecap:butt;stroke-linejoin:miter;stroke-opacity:1;"/>
<path d="M 858.5,306.3 L 864.9,310.5 L 871.7,307.1" style="fill:none;stroke:#000000;stroke-width:2.0px;stroke-linecap:butt;stroke-linejoin:miter;stroke-opacity:1;"/>
<path d="M 995.1,245.5 L 1001.9,242.1 L 1004.8,244.0" style="fill:none;stroke:#000000;stroke-width:2.0px;stroke-linecap:butt;stroke-linejoin:miter;stroke-opacity:1;"/>
<path class="atom-0" d="M 64.9 259.1 L 69.1 254.9 L 63.6 253.8 L 64.4 250.9 L 69.5 253.5 L 68.8 247.9 L 71.8 247.9 L 70.9 253.5 L 76.1 251.1 L 77.0 253.8 L 71.4 254.8 L 75.4 259.1 L 72.9 260.9 L 70.2 255.6 L 67.4 260.9 L 64.9 259.1 " fill="#191919"/>
<path class="atom-1" d="M 194.3 193.9 Q 194.3 187.1, 197.7 183.3 Q 201.1 179.5, 207.3 179.5 Q 213.6 179.5, 217.0 183.3 Q 220.3 187.1, 220.3 193.9 Q 220.3 200.8, 216.9 204.7 Q 213.5 208.6, 207.3 208.6 Q 201.1 208.6, 197.7 204.7 Q 194.3 200.9, 194.3 193.9 M 207.3 205.4 Q 211.7 205.4, 214.0 202.5 Q 216.3 199.6, 216.3 193.9 Q 216.3 188.4, 214.0 185.6 Q 211.7 182.7, 207.3 182.7 Q 203.0 182.7, 200.7 185.5 Q 198.3 188.3, 198.3 193.9 Q 198.3 199.7, 200.7 202.5 Q 203.0 205.4, 207.3 205.4 " fill="#FF0000"/>
<path class="atom-8" d="M 1124.4 323.4 L 1128.6 319.2 L 1123.0 318.1 L 1123.9 315.2 L 1129.0 317.8 L 1128.2 312.2 L 1131.2 312.2 L 1130.4 317.7 L 1135.6 315.3 L 1136.4 318.1 L 1130.8 319.1 L 1134.8 323.4 L 1132.4 325.1 L 1129.6 319.9 L 1126.8 325.1 L 1124.4 323.4 " fill="#191919"/>
<path class="atom-9" d="M 998.2 89.3 Q 998.2 82.5, 1001.6 78.7 Q 1004.9 74.9, 1011.2 74.9 Q 1017.5 74.9, 1020.9 78.7 Q 1024.2 82.5, 1024.2 89.3 Q 1024.2 96.1, 1020.8 100.1 Q 1017.4 103.9, 1011.2 103.9 Q 1005.0 103.9, 1001.6 100.1 Q 998.2 96.2, 998.2 89.3 M 1011.2 100.7 Q 1015.5 100.7, 1017.9 97.9 Q 1020.2 94.9, 1020.2 89.3 Q 1020.2 83.7, 1017.9 80.9 Q 1015.5 78.1, 1011.2 78.1 Q 1006.9 78.1, 1004.5 80.9 Q 1002.2 83.7, 1002.2 89.3 Q 1002.2 95.0, 1004.5 97.9 Q 1006.9 100.7, 1011.2 100.7 " fill="#FF0000"/>
<path class="bond-0 atom-0 atom-1" d="M 215.3,652.3 L 271.0,626.4" style="fill:none;fill-rule:evenodd;stroke:#191919;stroke-width:2.0px;stroke-linecap:butt;stroke-linejoin:miter;stroke-opacity:1"/>
<path class="bond-0 atom-0 atom-1" d="M 271.0,626.4 L 326.7,600.5" style="fill:none;fill-rule:evenodd;stroke:#0000FF;stroke-width:2.0px;stroke-linecap:butt;stroke-linejoin:miter;stroke-opacity:1"/>
<path class="bond-1 atom-1 atom-2" d="M 358.3,604.3 L 413.1,642.7" style="fill:none;fill-rule:evenodd;stroke:#0000FF;stroke-width:2.0px;stroke-linecap:butt;stroke-linejoin:miter;stroke-opacity:1"/>
<path class="bond-1 atom-1 atom-2" d="M 413.1,642.7 L 467.8,681.2" style="fill:none;fill-rule:evenodd;stroke:#000000;stroke-width:2.0px;stroke-linecap:butt;stroke-linejoin:miter;stroke-opacity:1"/>
<path class="bond-2 atom-2 atom-3" d="M 467.8,681.2 L 606.8,616.7" style="fill:none;fill-rule:evenodd;stroke:#000000;stroke-width:2.0px;stroke-linecap:butt;stroke-linejoin:miter;stroke-opacity:1"/>
<path class="bond-3 atom-3 atom-4" d="M 606.8,616.7 L 732.2,704.7" style="fill:none;fill-rule:evenodd;stroke:#000000;stroke-width:2.0px;stroke-linecap:butt;stroke-linejoin:miter;stroke-opacity:1"/>
<path class="bond-4 atom-4 atom-5" d="M 732.2,704.7 L 871.1,640.2" style="fill:none;fill-rule:evenodd;stroke:#000000;stroke-width:2.0px;stroke-linecap:butt;stroke-linejoin:miter;stroke-opacity:1"/>
<path class="bond-5 atom-5 atom-6" d="M 871.1,640.2 L 927.9,680.1" style="fill:none;fill-rule:evenodd;stroke:#000000;stroke-width:2.0px;stroke-linecap:butt;stroke-linejoin:miter;stroke-opacity:1"/>
<path class="bond-5 atom-5 atom-6" d="M 927.9,680.1 L 984.7,719.9" style="fill:none;fill-rule:evenodd;stroke:#191919;stroke-width:2.0px;stroke-linecap:butt;stroke-linejoin:miter;stroke-opacity:1"/>
<path class="bond-6 atom-5 atom-7" d="M 882.0,647.8 L 888.1,578.1" style="fill:none;fill-rule:evenodd;stroke:#000000;stroke-width:2.0px;stroke-linecap:butt;stroke-linejoin:miter;stroke-opacity:1"/>
<path class="bond-6 atom-5 atom-7" d="M 888.1,578.1 L 894.3,508.4" style="fill:none;fill-rule:evenodd;stroke:#FF0000;stroke-width:2.0px;stroke-linecap:butt;stroke-linejoin:miter;stroke-opacity:1"/>
<path class="bond-6 atom-5 atom-7" d="M 859.1,645.7 L 865.3,576.1" style="fill:none;fill-rule:evenodd;stroke:#000000;stroke-width:2.0px;stroke-linecap:butt;stroke-linejoin:miter;stroke-opacity:1"/>
<path class="bond-6 atom-5 atom-7" d="M 865.3,576.1 L 871.5,506.4" style="fill:none;fill-rule:evenodd;stroke:#FF0000;stroke-width:2.0px;stroke-linecap:butt;stroke-linejoin:miter;stroke-opacity:1"/>
<path d="M 465.1,679.3 L 467.8,681.2 L 474.8,678.0" style="fill:none;stroke:#000000;stroke-width:2.0px;stroke-linecap:butt;stroke-linejoin:miter;stroke-opacity:1;"/>
<path d="M 599.8,619.9 L 606.8,616.7 L 613.1,621.1" style="fill:none;stroke:#000000;stroke-width:2.0px;stroke-linecap:butt;stroke-linejoin:miter;stroke-opacity:1;"/>
<path d="M 725.9,700.3 L 732.2,704.7 L 739.1,701.5" style="fill:none;stroke:#000000;stroke-width:2.0px;stroke-linecap:butt;stroke-linejoin:miter;stroke-opacity:1;"/>
<path d="M 864.1,643.4 L 871.1,640.2 L 873.9,642.2" style="fill:none;stroke:#000000;stroke-width:2.0px;stroke-linecap:butt;stroke-linejoin:miter;stroke-opacity:1;"/>
<path class="atom-0" d="M 198.2 654.6 L 202.4 650.3 L 196.8 649.2 L 197.7 646.4 L 202.8 648.9 L 202.0 643.4 L 205.0 643.3 L 204.2 648.9 L 209.4 646.5 L 210.2 649.2 L 204.6 650.2 L 208.6 654.5 L 206.2 656.3 L 203.4 651.0 L 200.6 656.3 L 198.2 654.6 " fill="#191919"/>
<path class="atom-1" d="M 336.2 579.0 L 345.5 594.0 Q 346.4 595.5, 347.9 598.2 Q 349.4 600.9, 349.4 601.0 L 349.4 579.0 L 353.2 579.0 L 353.2 607.3 L 349.3 607.3 L 339.4 590.9 Q 338.2 589.0, 337.0 586.8 Q 335.8 584.6, 335.4 583.9 L 335.4 607.3 L 331.7 607.3 L 331.7 579.0 L 336.2 579.0 " fill="#0000FF"/>
<path class="atom-1" d="M 331.4 547.9 L 335.2 547.9 L 335.2 559.9 L 349.7 559.9 L 349.7 547.9 L 353.5 547.9 L 353.5 576.2 L 349.7 576.2 L 349.7 563.1 L 335.2 563.1 L 335.2 576.2 L 331.4 576.2 L 331.4 547.9 " fill="#0000FF"/>
<path class="atom-6" d="M 991.1 725.0 L 995.3 720.8 L 989.8 719.7 L 990.6 716.8 L 995.7 719.4 L 995.0 713.8 L 998.0 713.8 L 997.1 719.4 L 1002.3 717.0 L 1003.2 719.7 L 997.6 720.7 L 1001.6 725.0 L 999.1 726.8 L 996.4 721.5 L 993.6 726.8 L 991.1 725.0 " fill="#191919"/>
<path class="atom-7" d="M 871.7 487.6 Q 871.7 480.8, 875.0 477.0 Q 878.4 473.2, 884.7 473.2 Q 890.9 473.2, 894.3 477.0 Q 897.7 480.8, 897.7 487.6 Q 897.7 494.5, 894.3 498.4 Q 890.9 502.3, 884.7 502.3 Q 878.4 502.3, 875.0 498.4 Q 871.7 494.6, 871.7 487.6 M 884.7 499.1 Q 889.0 499.1, 891.3 496.2 Q 893.7 493.3, 893.7 487.6 Q 893.7 482.1, 891.3 479.3 Q 889.0 476.4, 884.7 476.4 Q 880.3 476.4, 878.0 479.2 Q 875.7 482.0, 875.7 487.6 Q 875.7 493.4, 878.0 496.2 Q 880.3 499.1, 884.7 499.1 " fill="#FF0000"/>
</svg>