<svg xmlns="http://www.w3.org/2000/svg" xmlns:rdkit="http://www.rdkit.org/xml" xmlns:xlink="http://www.w3.org/1999/xlink" version="1.1" baseProfile="full" xml:space="preserve" width="1200px" height="2000px" viewBox="0 0 1200 2000">
<!-- END OF HEADER -->
<rect style="opacity:1.0;fill:#FFFFFF;stroke:none" width="1200.0" height="2000.0" x="0.0" y="0.0"> </rect>
<path class="bond-0 atom-0 atom-1" d="M 341.3,147.0 L 361.9,156.8" style="fill:none;fill-rule:evenodd;stroke:#191919;stroke-width:2.0px;stroke-linecap:butt;stroke-linejoin:miter;stroke-opacity:1"/>
<path class="bond-0 atom-0 atom-1" d="M 361.9,156.8 L 382.6,166.6" style="fill:none;fill-rule:evenodd;stroke:#FF0000;stroke-width:2.0px;stroke-linecap:butt;stroke-linejoin:miter;stroke-opacity:1"/>
<path class="bond-1 atom-1 atom-2" d="M 401.8,164.4 L 421.3,151.0" style="fill:none;fill-rule:evenodd;stroke:#FF0000;stroke-width:2.0px;stroke-linecap:butt;stroke-linejoin:miter;stroke-opacity:1"/>
<path class="bond-1 atom-1 atom-2" d="M 421.3,151.0 L 440.7,137.5" style="fill:none;fill-rule:evenodd;stroke:#000000;stroke-width:2.0px;stroke-linecap:butt;stroke-linejoin:miter;stroke-opacity:1"/>
<path class="bond-2 atom-2 atom-3" d="M 440.7,137.5 L 494.0,162.7" style="fill:none;fill-rule:evenodd;stroke:#000000;stroke-width:2.0px;stroke-linecap:butt;stroke-linejoin:miter;stroke-opacity:1"/>
<path class="bond-3 atom-3 atom-4" d="M 494.0,162.7 L 542.4,129.1" style="fill:none;fill-rule:evenodd;stroke:#000000;stroke-width:2.0px;stroke-linecap:butt;stroke-linejoin:miter;stroke-opacity:1"/>
<path class="bond-4 atom-4 atom-5" d="M 542.4,129.1 L 595.7,154.3" style="fill:none;fill-rule:evenodd;stroke:#000000;stroke-width:2.0px;stroke-linecap:butt;stroke-linejoin:miter;stroke-opacity:1"/>
<path class="bond-5 atom-5 atom-6" d="M 595.7,154.3 L 615.1,140.8" style="fill:none;fill-rule:evenodd;stroke:#000000;stroke-width:2.0px;stroke-linecap:butt;stroke-linejoin:miter;stroke-opacity:1"/>
<path class="bond-5 atom-5 atom-6" d="M 615.1,140.8 L 634.6,127.4" style="fill:none;fill-rule:evenodd;stroke:#FF0000;stroke-width:2.0px;stroke-linecap:butt;stroke-linejoin:miter;stroke-opacity:1"/>
<path class="bond-6 atom-6 atom-7" d="M 653.8,125.3 L 675.6,135.6" style="fill:none;fill-rule:evenodd;stroke:#FF0000;stroke-width:2.0px;stroke-linecap:butt;stroke-linejoin:miter;stroke-opacity:1"/>
<path class="bond-6 atom-6 atom-7" d="M 675.6,135.6 L 697.5,145.9" style="fill:none;fill-rule:evenodd;stroke:#000000;stroke-width:2.0px;stroke-linecap:butt;stroke-linejoin:miter;stroke-opacity:1"/>
<path class="bond-7 atom-7 atom-8" d="M 692.8,143.7 L 694.9,169.2" style="fill:none;fill-rule:evenodd;stroke:#000000;stroke-width:2.0px;stroke-linecap:butt;stroke-linejoin:miter;stroke-opacity:1"/>
<path class="bond-7 atom-7 atom-8" d="M 694.9,169.2 L 697.0,194.6" style="fill:none;fill-rule:evenodd;stroke:#FF0000;stroke-width:2.0px;stroke-linecap:butt;stroke-linejoin:miter;stroke-opacity:1"/>
<path class="bond-7 atom-7 atom-8" d="M 701.7,143.0 L 703.8,168.4" style="fill:none;fill-rule:evenodd;stroke:#000000;stroke-width:2.0px;stroke-linecap:butt;stroke-linejoin:miter;stroke-opacity:1"/>
<path class="bond-7 atom-7 atom-8" d="M 703.8,168.4 L 705.9,193.9" style="fill:none;fill-rule:evenodd;stroke:#FF0000;stroke-width:2.0px;stroke-linecap:butt;stroke-linejoin:miter;stroke-opacity:1"/>
<path class="bond-8 atom-7 atom-9" d="M 697.5,145.9 L 745.9,112.3" style="fill:none;fill-rule:evenodd;stroke:#000000;stroke-width:2.0px;stroke-linecap:butt;stroke-linejoin:miter;stroke-opacity:1"/>
<path class="bond-9 atom-9 atom-10" d="M 745.9,112.3 L 741.1,53.6" style="fill:none;fill-rule:evenodd;stroke:#000000;stroke-width:2.0px;stroke-linecap:butt;stroke-linejoin:miter;stroke-opacity:1"/>
<path class="bond-9 atom-9 atom-10" d="M 754.3,106.5 L 750.3,57.9" style="fill:none;fill-rule:evenodd;stroke:#000000;stroke-width:2.0px;stroke-linecap:butt;stroke-linejoin:miter;stroke-opacity:1"/>
<path class="bond-10 atom-10 atom-11" d="M 741.1,53.6 L 789.5,20.0" style="fill:none;fill-rule:evenodd;stroke:#000000;stroke-width:2.0px;stroke-linecap:butt;stroke-linejoin:miter;stroke-opacity:1"/>
<path class="bond-11 atom-11 atom-12" d="M 789.5,20.0 L 842.8,45.2" style="fill:none;fill-rule:evenodd;stroke:#000000;stroke-width:2.0px;stroke-linecap:butt;stroke-linejoin:miter;stroke-opacity:1"/>
<path class="bond-11 atom-11 atom-12" d="M 790.3,30.2 L 834.4,51.0" style="fill:none;fill-rule:evenodd;stroke:#000000;stroke-width:2.0px;stroke-linecap:butt;stroke-linejoin:miter;stroke-opacity:1"/>
<path class="bond-12 atom-12 atom-13" d="M 842.8,45.2 L 847.6,103.9" style="fill:none;fill-rule:evenodd;stroke:#000000;stroke-width:2.0px;stroke-linecap:butt;stroke-linejoin:miter;stroke-opacity:1"/>
<path class="bond-13 atom-13 atom-14" d="M 847.6,103.9 L 799.2,137.5" style="fill:none;fill-rule:evenodd;stroke:#000000;stroke-width:2.0px;stroke-linecap:butt;stroke-linejoin:miter;stroke-opacity:1"/>
<path class="bond-13 atom-13 atom-14" d="M 838.4,99.6 L 798.4,127.3" style="fill:none;fill-rule:evenodd;stroke:#000000;stroke-width:2.0px;stroke-linecap:butt;stroke-linejoin:miter;stroke-opacity:1"/>
<path class="bond-14 atom-14 atom-15" d="M 799.2,137.5 L 804.1,196.2" style="fill:none;fill-rule:evenodd;stroke:#000000;stroke-width:2.0px;stroke-linecap:butt;stroke-linejoin:miter;stroke-opacity:1"/>
<path class="bond-15 atom-15 atom-16" d="M 799.9,199.1 L 822.9,210.0" style="fill:none;fill-rule:evenodd;stroke:#000000;stroke-width:2.0px;stroke-linecap:butt;stroke-linejoin:miter;stroke-opacity:1"/>
<path class="bond-15 atom-15 atom-16" d="M 822.9,210.0 L 845.9,220.9" style="fill:none;fill-rule:evenodd;stroke:#FF0000;stroke-width:2.0px;stroke-linecap:butt;stroke-linejoin:miter;stroke-opacity:1"/>
<path class="bond-15 atom-15 atom-16" d="M 803.6,191.1 L 826.6,202.0" style="fill:none;fill-rule:evenodd;stroke:#000000;stroke-width:2.0px;stroke-linecap:butt;stroke-linejoin:miter;stroke-opacity:1"/>
<path class="bond-15 atom-15 atom-16" d="M 826.6,202.0 L 849.6,212.9" style="fill:none;fill-rule:evenodd;stroke:#FF0000;stroke-width:2.0px;stroke-linecap:butt;stroke-linejoin:miter;stroke-opacity:1"/>
<path class="bond-16 atom-15 atom-17" d="M 804.1,196.2 L 755.6,229.8" style="fill:none;fill-rule:evenodd;stroke:#000000;stroke-width:2.0px;stroke-linecap:butt;stroke-linejoin:miter;stroke-opacity:1"/>
<path class="bond-17 atom-17 atom-18" d="M 755.6,229.8 L 760.5,288.5" style="fill:none;fill-rule:evenodd;stroke:#000000;stroke-width:2.0px;stroke-linecap:butt;stroke-linejoin:miter;stroke-opacity:1"/>
<path class="bond-18 atom-18 atom-19" d="M 760.5,288.5 L 712.0,322.1" style="fill:none;fill-rule:evenodd;stroke:#000000;stroke-width:2.0px;stroke-linecap:butt;stroke-linejoin:miter;stroke-opacity:1"/>
<path class="bond-19 atom-19 atom-20" d="M 712.0,322.1 L 714.0,346.3" style="fill:none;fill-rule:evenodd;stroke:#000000;stroke-width:2.0px;stroke-linecap:butt;stroke-linejoin:miter;stroke-opacity:1"/>
<path class="bond-19 atom-19 atom-20" d="M 714.0,346.3 L 716.0,370.4" style="fill:none;fill-rule:evenodd;stroke:#191919;stroke-width:2.0px;stroke-linecap:butt;stroke-linejoin:miter;stroke-opacity:1"/>
<path class="bond-20 atom-19 atom-21" d="M 716.2,319.2 L 693.2,308.3" style="fill:none;fill-rule:evenodd;stroke:#000000;stroke-width:2.0px;stroke-linecap:butt;stroke-linejoin:miter;stroke-opacity:1"/>
<path class="bond-20 atom-19 atom-21" d="M 693.2,308.3 L 670.2,297.5" style="fill:none;fill-rule:evenodd;stroke:#FF0000;stroke-width:2.0px;stroke-linecap:butt;stroke-linejoin:miter;stroke-opacity:1"/>
<path class="bond-20 atom-19 atom-21" d="M 712.4,327.2 L 689.4,316.3" style="fill:none;fill-rule:evenodd;stroke:#000000;stroke-width:2.0px;stroke-linecap:butt;stroke-linejoin:miter;stroke-opacity:1"/>
<path class="bond-20 atom-19 atom-21" d="M 689.4,316.3 L 666.4,305.5" style="fill:none;fill-rule:evenodd;stroke:#FF0000;stroke-width:2.0px;stroke-linecap:butt;stroke-linejoin:miter;stroke-opacity:1"/>
<path class="bond-21 atom-14 atom-9" d="M 799.2,137.5 L 745.9,112.3" style="fill:none;fill-rule:evenodd;stroke:#000000;stroke-width:2.0px;stroke-linecap:butt;stroke-linejoin:miter;stroke-opacity:1"/>
<path d="M 439.7,138.2 L 440.7,137.5 L 443.3,138.8" style="fill:none;stroke:#000000;stroke-width:2.0px;stroke-linecap:butt;stroke-linejoin:miter;stroke-opacity:1;"/>
<path d="M 491.3,161.4 L 494.0,162.7 L 496.4,161.0" style="fill:none;stroke:#000000;stroke-width:2.0px;stroke-linecap:butt;stroke-linejoin:miter;stroke-opacity:1;"/>
<path d="M 540.0,130.8 L 542.4,129.1 L 545.1,130.4" style="fill:none;stroke:#000000;stroke-width:2.0px;stroke-linecap:butt;stroke-linejoin:miter;stroke-opacity:1;"/>
<path d="M 593.1,153.0 L 595.7,154.3 L 596.7,153.6" style="fill:none;stroke:#000000;stroke-width:2.0px;stroke-linecap:butt;stroke-linejoin:miter;stroke-opacity:1;"/>
<path d="M 696.4,145.4 L 697.5,145.9 L 699.9,144.2" style="fill:none;stroke:#000000;stroke-width:2.0px;stroke-linecap:butt;stroke-linejoin:miter;stroke-opacity:1;"/>
<path d="M 741.3,56.5 L 741.1,53.6 L 743.5,51.9" style="fill:none;stroke:#000000;stroke-width:2.0px;stroke-linecap:butt;stroke-linejoin:miter;stroke-opacity:1;"/>
<path d="M 787.1,21.7 L 789.5,20.0 L 792.2,21.3" style="fill:none;stroke:#000000;stroke-width:2.0px;stroke-linecap:butt;stroke-linejoin:miter;stroke-opacity:1;"/>
<path d="M 840.1,43.9 L 842.8,45.2 L 843.0,48.1" style="fill:none;stroke:#000000;stroke-width:2.0px;stroke-linecap:butt;stroke-linejoin:miter;stroke-opacity:1;"/>
<path d="M 847.4,101.0 L 847.6,103.9 L 845.2,105.6" style="fill:none;stroke:#000000;stroke-width:2.0px;stroke-linecap:butt;stroke-linejoin:miter;stroke-opacity:1;"/>
<path d="M 803.8,193.3 L 804.1,196.2 L 801.6,197.9" style="fill:none;stroke:#000000;stroke-width:2.0px;stroke-linecap:butt;stroke-linejoin:miter;stroke-opacity:1;"/>
<path d="M 758.0,228.1 L 755.6,229.8 L 755.9,232.7" style="fill:none;stroke:#000000;stroke-width:2.0px;stroke-linecap:butt;stroke-linejoin:miter;stroke-opacity:1;"/>
<path d="M 760.2,285.6 L 760.5,288.5 L 758.0,290.2" style="fill:none;stroke:#000000;stroke-width:2.0px;stroke-linecap:butt;stroke-linejoin:miter;stroke-opacity:1;"/>
<path d="M 714.4,320.4 L 712.0,322.1 L 712.1,323.3" style="fill:none;stroke:#000000;stroke-width:2.0px;stroke-linecap:butt;stroke-linejoin:miter;stroke-opacity:1;"/>
<path class="atom-0" d="M 335.8 144.1 L 338.2 141.6 L 335.0 140.9 L 335.5 139.2 L 338.5 140.7 L 338.1 137.5 L 339.8 137.4 L 339.3 140.7 L 342.4 139.3 L 342.9 140.9 L 339.6 141.5 L 341.9 144.0 L 340.5 145.1 L 338.9 142.0 L 337.2 145.1 L 335.8 144.1 " fill="#191919"/>
<path class="atom-1" d="M 384.6 171.1 Q 384.6 167.1, 386.6 164.9 Q 388.5 162.6, 392.2 162.6 Q 395.9 162.6, 397.9 164.9 Q 399.9 167.1, 399.9 171.1 Q 399.9 175.2, 397.9 177.5 Q 395.9 179.8, 392.2 179.8 Q 388.6 179.8, 386.6 177.5 Q 384.6 175.2, 384.6 171.1 M 392.2 177.9 Q 394.8 177.9, 396.1 176.2 Q 397.5 174.5, 397.5 171.1 Q 397.5 167.9, 396.1 166.2 Q 394.8 164.5, 392.2 164.5 Q 389.7 164.5, 388.3 166.2 Q 386.9 167.8, 386.9 171.1 Q 386.9 174.5, 388.3 176.2 Q 389.7 177.9, 392.2 177.9 " fill="#FF0000"/>
<path class="atom-6" d="M 636.5 120.8 Q 636.5 116.8, 638.5 114.5 Q 640.5 112.3, 644.2 112.3 Q 647.9 112.3, 649.8 114.5 Q 651.8 116.8, 651.8 120.8 Q 651.8 124.8, 649.8 127.1 Q 647.8 129.4, 644.2 129.4 Q 640.5 129.4, 638.5 127.1 Q 636.5 124.8, 636.5 120.8 M 644.2 127.5 Q 646.7 127.5, 648.1 125.8 Q 649.5 124.1, 649.5 120.8 Q 649.5 117.5, 648.1 115.8 Q 646.7 114.2, 644.2 114.2 Q 641.6 114.2, 640.2 115.8 Q 638.9 117.5, 638.9 120.8 Q 638.9 124.1, 640.2 125.8 Q 641.6 127.5, 644.2 127.5 " fill="#FF0000"/>
<path class="atom-8" d="M 694.6 204.7 Q 694.6 200.7, 696.6 198.4 Q 698.6 196.2, 702.3 196.2 Q 706.0 196.2, 708.0 198.4 Q 710.0 200.7, 710.0 204.7 Q 710.0 208.7, 708.0 211.0 Q 706.0 213.3, 702.3 213.3 Q 698.6 213.3, 696.6 211.0 Q 694.6 208.8, 694.6 204.7 M 702.3 211.4 Q 704.9 211.4, 706.2 209.7 Q 707.6 208.0, 707.6 204.7 Q 707.6 201.4, 706.2 199.7 Q 704.9 198.1, 702.3 198.1 Q 699.8 198.1, 698.4 199.7 Q 697.0 201.4, 697.0 204.7 Q 697.0 208.0, 698.4 209.7 Q 699.8 211.4, 702.3 211.4 " fill="#FF0000"/>
<path class="atom-16" d="M 849.7 221.4 Q 849.7 217.4, 851.7 215.2 Q 853.6 213.0, 857.4 213.0 Q 861.1 213.0, 863.0 215.2 Q 865.0 217.4, 865.0 221.4 Q 865.0 225.5, 863.0 227.8 Q 861.0 230.1, 857.4 230.1 Q 853.7 230.1, 851.7 227.8 Q 849.7 225.5, 849.7 221.4 M 857.4 228.2 Q 859.9 228.2, 861.3 226.5 Q 862.7 224.8, 862.7 221.4 Q 862.7 218.2, 861.3 216.5 Q 859.9 214.8, 857.4 214.8 Q 854.8 214.8, 853.4 216.5 Q 852.0 218.1, 852.0 221.4 Q 852.0 224.8, 853.4 226.5 Q 854.8 228.2, 857.4 228.2 " fill="#FF0000"/>
<path class="atom-20" d="M 713.7 379.0 L 716.2 376.5 L 712.9 375.8 L 713.4 374.2 L 716.4 375.7 L 716.0 372.4 L 717.7 372.4 L 717.3 375.6 L 720.3 374.2 L 720.8 375.8 L 717.5 376.4 L 719.9 379.0 L 718.4 380.0 L 716.8 376.9 L 715.2 380.0 L 713.7 379.0 " fill="#191919"/>
<path class="atom-21" d="M 651.1 297.0 Q 651.1 293.0, 653.0 290.7 Q 655.0 288.5, 658.7 288.5 Q 662.4 288.5, 664.4 290.7 Q 666.4 293.0, 666.4 297.0 Q 666.4 301.0, 664.4 303.4 Q 662.4 305.6, 658.7 305.6 Q 655.0 305.6, 653.0 303.4 Q 651.1 301.1, 651.1 297.0 M 658.7 303.8 Q 661.3 303.8, 662.6 302.1 Q 664.0 300.3, 664.0 297.0 Q 664.0 293.7, 662.6 292.1 Q 661.3 290.4, 658.7 290.4 Q 656.2 290.4, 654.8 292.0 Q 653.4 293.7, 653.4 297.0 Q 653.4 300.4, 654.8 302.1 Q 656.2 303.8, 658.7 303.8 " fill="#FF0000"/>
<path class="bond-0 atom-0 atom-1" d="M 1057.5,584.7 L 1033.0,599.0" style="fill:none;fill-rule:evenodd;stroke:#191919;stroke-width:2.0px;stroke-linecap:butt;stroke-linejoin:miter;stroke-opacity:1"/>
<path class="bond-0 atom-0 atom-1" d="M 1033.0,599.0 L 1008.4,613.2" style="fill:none;fill-rule:evenodd;stroke:#000000;stroke-width:2.0px;stroke-linecap:butt;stroke-linejoin:miter;stroke-opacity:1"/>
<path class="bond-1 atom-1 atom-2" d="M 1004.0,610.7 L 1004.0,636.2" style="fill:none;fill-rule:evenodd;stroke:#000000;stroke-width:2.0px;stroke-linecap:butt;stroke-linejoin:miter;stroke-opacity:1"/>
<path class="bond-1 atom-1 atom-2" d="M 1004.0,636.2 L 1004.1,661.8" style="fill:none;fill-rule:evenodd;stroke:#FF0000;stroke-width:2.0px;stroke-linecap:butt;stroke-linejoin:miter;stroke-opacity:1"/>
<path class="bond-1 atom-1 atom-2" d="M 1012.8,610.7 L 1012.9,636.2" style="fill:none;fill-rule:evenodd;stroke:#000000;stroke-width:2.0px;stroke-linecap:butt;stroke-linejoin:miter;stroke-opacity:1"/>
<path class="bond-1 atom-1 atom-2" d="M 1012.9,636.2 L 1012.9,661.8" style="fill:none;fill-rule:evenodd;stroke:#FF0000;stroke-width:2.0px;stroke-linecap:butt;stroke-linejoin:miter;stroke-opacity:1"/>
<path class="bond-2 atom-1 atom-3" d="M 1008.4,613.2 L 957.3,583.9" style="fill:none;fill-rule:evenodd;stroke:#000000;stroke-width:2.0px;stroke-linecap:butt;stroke-linejoin:miter;stroke-opacity:1"/>
<path class="bond-3 atom-3 atom-4" d="M 957.3,583.9 L 906.3,613.4" style="fill:none;fill-rule:evenodd;stroke:#000000;stroke-width:2.0px;stroke-linecap:butt;stroke-linejoin:miter;stroke-opacity:1"/>
<path class="bond-4 atom-4 atom-5" d="M 906.3,613.4 L 855.2,584.1" style="fill:none;fill-rule:evenodd;stroke:#000000;stroke-width:2.0px;stroke-linecap:butt;stroke-linejoin:miter;stroke-opacity:1"/>
<path class="bond-5 atom-5 atom-6" d="M 855.2,584.1 L 804.2,613.7" style="fill:none;fill-rule:evenodd;stroke:#000000;stroke-width:2.0px;stroke-linecap:butt;stroke-linejoin:miter;stroke-opacity:1"/>
<path class="bond-6 atom-6 atom-7" d="M 804.2,613.7 L 753.1,584.3" style="fill:none;fill-rule:evenodd;stroke:#000000;stroke-width:2.0px;stroke-linecap:butt;stroke-linejoin:miter;stroke-opacity:1"/>
<path class="bond-7 atom-7 atom-8" d="M 753.1,584.3 L 702.2,613.9" style="fill:none;fill-rule:evenodd;stroke:#000000;stroke-width:2.0px;stroke-linecap:butt;stroke-linejoin:miter;stroke-opacity:1"/>
<path class="bond-8 atom-8 atom-9" d="M 702.2,613.9 L 651.0,584.5" style="fill:none;fill-rule:evenodd;stroke:#000000;stroke-width:2.0px;stroke-linecap:butt;stroke-linejoin:miter;stroke-opacity:1"/>
<path class="bond-9 atom-9 atom-10" d="M 651.0,584.5 L 600.1,614.1" style="fill:none;fill-rule:evenodd;stroke:#000000;stroke-width:2.0px;stroke-linecap:butt;stroke-linejoin:miter;stroke-opacity:1"/>
<path class="bond-10 atom-10 atom-11" d="M 600.1,614.1 L 549.0,584.7" style="fill:none;fill-rule:evenodd;stroke:#000000;stroke-width:2.0px;stroke-linecap:butt;stroke-linejoin:miter;stroke-opacity:1"/>
<path class="bond-11 atom-11 atom-12" d="M 553.4,587.3 L 553.3,561.9" style="fill:none;fill-rule:evenodd;stroke:#000000;stroke-width:2.0px;stroke-linecap:butt;stroke-linejoin:miter;stroke-opacity:1"/>
<path class="bond-11 atom-11 atom-12" d="M 553.3,561.9 L 553.3,536.4" style="fill:none;fill-rule:evenodd;stroke:#FF0000;stroke-width:2.0px;stroke-linecap:butt;stroke-linejoin:miter;stroke-opacity:1"/>
<path class="bond-11 atom-11 atom-12" d="M 544.5,587.3 L 544.5,561.9" style="fill:none;fill-rule:evenodd;stroke:#000000;stroke-width:2.0px;stroke-linecap:butt;stroke-linejoin:miter;stroke-opacity:1"/>
<path class="bond-11 atom-11 atom-12" d="M 544.5,561.9 L 544.4,536.5" style="fill:none;fill-rule:evenodd;stroke:#FF0000;stroke-width:2.0px;stroke-linecap:butt;stroke-linejoin:miter;stroke-opacity:1"/>
<path class="bond-12 atom-11 atom-13" d="M 549.0,584.7 L 528.3,596.8" style="fill:none;fill-rule:evenodd;stroke:#000000;stroke-width:2.0px;stroke-linecap:butt;stroke-linejoin:miter;stroke-opacity:1"/>
<path class="bond-12 atom-11 atom-13" d="M 528.3,596.8 L 507.6,608.8" style="fill:none;fill-rule:evenodd;stroke:#FF0000;stroke-width:2.0px;stroke-linecap:butt;stroke-linejoin:miter;stroke-opacity:1"/>
<path class="bond-13 atom-13 atom-14" d="M 488.4,608.8 L 467.6,596.9" style="fill:none;fill-rule:evenodd;stroke:#FF0000;stroke-width:2.0px;stroke-linecap:butt;stroke-linejoin:miter;stroke-opacity:1"/>
<path class="bond-13 atom-13 atom-14" d="M 467.6,596.9 L 446.9,585.0" style="fill:none;fill-rule:evenodd;stroke:#000000;stroke-width:2.0px;stroke-linecap:butt;stroke-linejoin:miter;stroke-opacity:1"/>
<path class="bond-14 atom-14 atom-15" d="M 446.9,585.0 L 395.9,614.6" style="fill:none;fill-rule:evenodd;stroke:#000000;stroke-width:2.0px;stroke-linecap:butt;stroke-linejoin:miter;stroke-opacity:1"/>
<path class="bond-15 atom-15 atom-16" d="M 395.9,614.6 L 344.8,585.2" style="fill:none;fill-rule:evenodd;stroke:#000000;stroke-width:2.0px;stroke-linecap:butt;stroke-linejoin:miter;stroke-opacity:1"/>
<path class="bond-16 atom-16 atom-17" d="M 344.8,585.2 L 293.8,614.8" style="fill:none;fill-rule:evenodd;stroke:#000000;stroke-width:2.0px;stroke-linecap:butt;stroke-linejoin:miter;stroke-opacity:1"/>
<path class="bond-17 atom-17 atom-18" d="M 293.8,614.8 L 273.0,602.9" style="fill:none;fill-rule:evenodd;stroke:#000000;stroke-width:2.0px;stroke-linecap:butt;stroke-linejoin:miter;stroke-opacity:1"/>
<path class="bond-17 atom-17 atom-18" d="M 273.0,602.9 L 252.3,590.9" style="fill:none;fill-rule:evenodd;stroke:#FF0000;stroke-width:2.0px;stroke-linecap:butt;stroke-linejoin:miter;stroke-opacity:1"/>
<path class="bond-18 atom-18 atom-19" d="M 233.1,591.0 L 212.4,603.0" style="fill:none;fill-rule:evenodd;stroke:#FF0000;stroke-width:2.0px;stroke-linecap:butt;stroke-linejoin:miter;stroke-opacity:1"/>
<path class="bond-18 atom-18 atom-19" d="M 212.4,603.0 L 191.7,615.0" style="fill:none;fill-rule:evenodd;stroke:#000000;stroke-width:2.0px;stroke-linecap:butt;stroke-linejoin:miter;stroke-opacity:1"/>
<path class="bond-19 atom-19 atom-20" d="M 191.7,615.0 L 167.1,600.9" style="fill:none;fill-rule:evenodd;stroke:#000000;stroke-width:2.0px;stroke-linecap:butt;stroke-linejoin:miter;stroke-opacity:1"/>
<path class="bond-19 atom-19 atom-20" d="M 167.1,600.9 L 142.5,586.7" style="fill:none;fill-rule:evenodd;stroke:#191919;stroke-width:2.0px;stroke-linecap:butt;stroke-linejoin:miter;stroke-opacity:1"/>
<path class="bond-20 atom-19 atom-21" d="M 187.3,612.4 L 187.3,638.0" style="fill:none;fill-rule:evenodd;stroke:#000000;stroke-width:2.0px;stroke-linecap:butt;stroke-linejoin:miter;stroke-opacity:1"/>
<path class="bond-20 atom-19 atom-21" d="M 187.3,638.0 L 187.4,663.6" style="fill:none;fill-rule:evenodd;stroke:#FF0000;stroke-width:2.0px;stroke-linecap:butt;stroke-linejoin:miter;stroke-opacity:1"/>
<path class="bond-20 atom-19 atom-21" d="M 196.1,612.4 L 196.2,638.0" style="fill:none;fill-rule:evenodd;stroke:#000000;stroke-width:2.0px;stroke-linecap:butt;stroke-linejoin:miter;stroke-opacity:1"/>
<path class="bond-20 atom-19 atom-21" d="M 196.2,638.0 L 196.2,663.5" style="fill:none;fill-rule:evenodd;stroke:#FF0000;stroke-width:2.0px;stroke-linecap:butt;stroke-linejoin:miter;stroke-opacity:1"/>
<path d="M 1009.6,612.5 L 1008.4,613.2 L 1005.9,611.8" style="fill:none;stroke:#000000;stroke-width:2.0px;stroke-linecap:butt;stroke-linejoin:miter;stroke-opacity:1;"/>
<path d="M 959.9,585.3 L 957.3,583.9 L 954.8,585.3" style="fill:none;stroke:#000000;stroke-width:2.0px;stroke-linecap:butt;stroke-linejoin:miter;stroke-opacity:1;"/>
<path d="M 908.9,612.0 L 906.3,613.4 L 903.8,612.0" style="fill:none;stroke:#000000;stroke-width:2.0px;stroke-linecap:butt;stroke-linejoin:miter;stroke-opacity:1;"/>
<path d="M 857.8,585.6 L 855.2,584.1 L 852.7,585.6" style="fill:none;stroke:#000000;stroke-width:2.0px;stroke-linecap:butt;stroke-linejoin:miter;stroke-opacity:1;"/>
<path d="M 806.8,612.2 L 804.2,613.7 L 801.7,612.2" style="fill:none;stroke:#000000;stroke-width:2.0px;stroke-linecap:butt;stroke-linejoin:miter;stroke-opacity:1;"/>
<path d="M 755.7,585.8 L 753.1,584.3 L 750.6,585.8" style="fill:none;stroke:#000000;stroke-width:2.0px;stroke-linecap:butt;stroke-linejoin:miter;stroke-opacity:1;"/>
<path d="M 704.7,612.4 L 702.2,613.9 L 699.6,612.4" style="fill:none;stroke:#000000;stroke-width:2.0px;stroke-linecap:butt;stroke-linejoin:miter;stroke-opacity:1;"/>
<path d="M 653.6,586.0 L 651.0,584.5 L 648.5,586.0" style="fill:none;stroke:#000000;stroke-width:2.0px;stroke-linecap:butt;stroke-linejoin:miter;stroke-opacity:1;"/>
<path d="M 602.6,612.6 L 600.1,614.1 L 597.5,612.6" style="fill:none;stroke:#000000;stroke-width:2.0px;stroke-linecap:butt;stroke-linejoin:miter;stroke-opacity:1;"/>
<path d="M 551.5,586.2 L 549.0,584.7 L 547.9,585.3" style="fill:none;stroke:#000000;stroke-width:2.0px;stroke-linecap:butt;stroke-linejoin:miter;stroke-opacity:1;"/>
<path d="M 447.9,585.6 L 446.9,585.0 L 444.3,586.4" style="fill:none;stroke:#000000;stroke-width:2.0px;stroke-linecap:butt;stroke-linejoin:miter;stroke-opacity:1;"/>
<path d="M 398.4,613.1 L 395.9,614.6 L 393.3,613.1" style="fill:none;stroke:#000000;stroke-width:2.0px;stroke-linecap:butt;stroke-linejoin:miter;stroke-opacity:1;"/>
<path d="M 347.3,586.7 L 344.8,585.2 L 342.2,586.7" style="fill:none;stroke:#000000;stroke-width:2.0px;stroke-linecap:butt;stroke-linejoin:miter;stroke-opacity:1;"/>
<path d="M 296.3,613.3 L 293.8,614.8 L 292.8,614.2" style="fill:none;stroke:#000000;stroke-width:2.0px;stroke-linecap:butt;stroke-linejoin:miter;stroke-opacity:1;"/>
<path d="M 192.7,614.4 L 191.7,615.0 L 190.5,614.3" style="fill:none;stroke:#000000;stroke-width:2.0px;stroke-linecap:butt;stroke-linejoin:miter;stroke-opacity:1;"/>
<path class="atom-0" d="M 1056.3 581.8 L 1058.7 579.3 L 1055.5 578.6 L 1055.9 576.9 L 1058.9 578.5 L 1058.5 575.2 L 1060.3 575.2 L 1059.8 578.4 L 1062.8 577.0 L 1063.3 578.6 L 1060.0 579.2 L 1062.4 581.8 L 1061.0 582.8 L 1059.3 579.7 L 1057.7 582.8 L 1056.3 581.8 " fill="#191919"/>
<path class="atom-2" d="M 1000.9 672.2 Q 1000.9 668.2, 1002.9 666.0 Q 1004.8 663.7, 1008.5 663.7 Q 1012.2 663.7, 1014.2 666.0 Q 1016.2 668.2, 1016.2 672.2 Q 1016.2 676.3, 1014.2 678.6 Q 1012.2 680.9, 1008.5 680.9 Q 1004.9 680.9, 1002.9 678.6 Q 1000.9 676.3, 1000.9 672.2 M 1008.5 679.0 Q 1011.1 679.0, 1012.5 677.3 Q 1013.9 675.6, 1013.9 672.2 Q 1013.9 668.9, 1012.5 667.3 Q 1011.1 665.6, 1008.5 665.6 Q 1006.0 665.6, 1004.6 667.3 Q 1003.2 668.9, 1003.2 672.2 Q 1003.2 675.6, 1004.6 677.3 Q 1006.0 679.0, 1008.5 679.0 " fill="#FF0000"/>
<path class="atom-12" d="M 541.2 525.9 Q 541.2 521.8, 543.1 519.6 Q 545.1 517.4, 548.8 517.4 Q 552.5 517.4, 554.5 519.6 Q 556.5 521.8, 556.5 525.9 Q 556.5 529.9, 554.5 532.2 Q 552.5 534.5, 548.8 534.5 Q 545.2 534.5, 543.1 532.2 Q 541.2 529.9, 541.2 525.9 M 548.8 532.6 Q 551.4 532.6, 552.7 530.9 Q 554.1 529.2, 554.1 525.9 Q 554.1 522.6, 552.7 520.9 Q 551.4 519.3, 548.8 519.3 Q 546.3 519.3, 544.9 520.9 Q 543.5 522.6, 543.5 525.9 Q 543.5 529.2, 544.9 530.9 Q 546.3 532.6, 548.8 532.6 " fill="#FF0000"/>
<path class="atom-13" d="M 490.3 614.4 Q 490.3 610.4, 492.3 608.1 Q 494.3 605.9, 498.0 605.9 Q 501.7 605.9, 503.7 608.1 Q 505.6 610.4, 505.6 614.4 Q 505.6 618.4, 503.6 620.7 Q 501.6 623.0, 498.0 623.0 Q 494.3 623.0, 492.3 620.7 Q 490.3 618.5, 490.3 614.4 M 498.0 621.1 Q 500.5 621.1, 501.9 619.4 Q 503.3 617.7, 503.3 614.4 Q 503.3 611.1, 501.9 609.4 Q 500.5 607.8, 498.0 607.8 Q 495.4 607.8, 494.0 609.4 Q 492.7 611.1, 492.7 614.4 Q 492.7 617.7, 494.0 619.4 Q 495.4 621.1, 498.0 621.1 " fill="#FF0000"/>
<path class="atom-18" d="M 235.0 585.5 Q 235.0 581.5, 237.0 579.2 Q 239.0 577.0, 242.7 577.0 Q 246.4 577.0, 248.4 579.2 Q 250.4 581.5, 250.4 585.5 Q 250.4 589.5, 248.3 591.8 Q 246.3 594.1, 242.7 594.1 Q 239.0 594.1, 237.0 591.8 Q 235.0 589.5, 235.0 585.5 M 242.7 592.2 Q 245.2 592.2, 246.6 590.5 Q 248.0 588.8, 248.0 585.5 Q 248.0 582.2, 246.6 580.5 Q 245.2 578.9, 242.7 578.9 Q 240.1 578.9, 238.8 580.5 Q 237.4 582.2, 237.4 585.5 Q 237.4 588.8, 238.8 590.5 Q 240.1 592.2, 242.7 592.2 " fill="#FF0000"/>
<path class="atom-20" d="M 137.5 583.8 L 139.9 581.3 L 136.7 580.6 L 137.1 578.9 L 140.1 580.4 L 139.7 577.2 L 141.5 577.1 L 141.0 580.4 L 144.0 579.0 L 144.5 580.6 L 141.2 581.2 L 143.6 583.7 L 142.2 584.8 L 140.5 581.7 L 138.9 584.8 L 137.5 583.8 " fill="#191919"/>
<path class="atom-21" d="M 184.2 674.0 Q 184.2 670.0, 186.2 667.7 Q 188.1 665.5, 191.8 665.5 Q 195.5 665.5, 197.5 667.7 Q 199.5 670.0, 199.5 674.0 Q 199.5 678.0, 197.5 680.3 Q 195.5 682.6, 191.8 682.6 Q 188.2 682.6, 186.2 680.3 Q 184.2 678.1, 184.2 674.0 M 191.8 680.7 Q 194.4 680.7, 195.8 679.0 Q 197.1 677.3, 197.1 674.0 Q 197.1 670.7, 195.8 669.1 Q 194.4 667.4, 191.8 667.4 Q 189.3 667.4, 187.9 669.0 Q 186.5 670.7, 186.5 674.0 Q 186.5 677.4, 187.9 679.0 Q 189.3 680.7, 191.8 680.7 " fill="#FF0000"/>
<path class="bond-0 atom-0 atom-1" d="M 299.7,1009.6 L 322.4,996.9" style="fill:none;fill-rule:evenodd;stroke:#191919;stroke-width:2.0px;stroke-linecap:butt;stroke-linejoin:miter;stroke-opacity:1"/>
<path class="bond-0 atom-0 atom-1" d="M 322.4,996.9 L 345.2,984.1" style="fill:none;fill-rule:evenodd;stroke:#000000;stroke-width:2.0px;stroke-linecap:butt;stroke-linejoin:miter;stroke-opacity:1"/>
<path class="bond-1 atom-1 atom-2" d="M 349.6,986.7 L 349.9,961.3" style="fill:none;fill-rule:evenodd;stroke:#000000;stroke-width:2.0px;stroke-linecap:butt;stroke-linejoin:miter;stroke-opacity:1"/>
<path class="bond-1 atom-1 atom-2" d="M 349.9,961.3 L 350.3,935.9" style="fill:none;fill-rule:evenodd;stroke:#FF0000;stroke-width:2.0px;stroke-linecap:butt;stroke-linejoin:miter;stroke-opacity:1"/>
<path class="bond-1 atom-1 atom-2" d="M 340.7,986.6 L 341.1,961.2" style="fill:none;fill-rule:evenodd;stroke:#000000;stroke-width:2.0px;stroke-linecap:butt;stroke-linejoin:miter;stroke-opacity:1"/>
<path class="bond-1 atom-1 atom-2" d="M 341.1,961.2 L 341.4,935.8" style="fill:none;fill-rule:evenodd;stroke:#FF0000;stroke-width:2.0px;stroke-linecap:butt;stroke-linejoin:miter;stroke-opacity:1"/>
<path class="bond-2 atom-1 atom-3" d="M 345.2,984.1 L 395.8,1014.3" style="fill:none;fill-rule:evenodd;stroke:#000000;stroke-width:2.0px;stroke-linecap:butt;stroke-linejoin:miter;stroke-opacity:1"/>
<path class="bond-3 atom-3 atom-4" d="M 395.8,1014.3 L 447.3,985.5" style="fill:none;fill-rule:evenodd;stroke:#000000;stroke-width:2.0px;stroke-linecap:butt;stroke-linejoin:miter;stroke-opacity:1"/>
<path class="bond-4 atom-4 atom-5" d="M 447.3,985.5 L 497.9,1015.6" style="fill:none;fill-rule:evenodd;stroke:#000000;stroke-width:2.0px;stroke-linecap:butt;stroke-linejoin:miter;stroke-opacity:1"/>
<path class="bond-5 atom-5 atom-6" d="M 493.5,1013.0 L 493.2,1038.6" style="fill:none;fill-rule:evenodd;stroke:#000000;stroke-width:2.0px;stroke-linecap:butt;stroke-linejoin:miter;stroke-opacity:1"/>
<path class="bond-5 atom-5 atom-6" d="M 493.2,1038.6 L 492.9,1064.1" style="fill:none;fill-rule:evenodd;stroke:#FF0000;stroke-width:2.0px;stroke-linecap:butt;stroke-linejoin:miter;stroke-opacity:1"/>
<path class="bond-5 atom-5 atom-6" d="M 502.4,1013.1 L 502.0,1038.7" style="fill:none;fill-rule:evenodd;stroke:#000000;stroke-width:2.0px;stroke-linecap:butt;stroke-linejoin:miter;stroke-opacity:1"/>
<path class="bond-5 atom-5 atom-6" d="M 502.0,1038.7 L 501.7,1064.2" style="fill:none;fill-rule:evenodd;stroke:#FF0000;stroke-width:2.0px;stroke-linecap:butt;stroke-linejoin:miter;stroke-opacity:1"/>
<path class="bond-6 atom-5 atom-7" d="M 497.9,1015.6 L 518.8,1003.9" style="fill:none;fill-rule:evenodd;stroke:#000000;stroke-width:2.0px;stroke-linecap:butt;stroke-linejoin:miter;stroke-opacity:1"/>
<path class="bond-6 atom-5 atom-7" d="M 518.8,1003.9 L 539.7,992.2" style="fill:none;fill-rule:evenodd;stroke:#FF0000;stroke-width:2.0px;stroke-linecap:butt;stroke-linejoin:miter;stroke-opacity:1"/>
<path class="bond-7 atom-7 atom-8" d="M 559.0,992.5 L 579.5,1004.8" style="fill:none;fill-rule:evenodd;stroke:#FF0000;stroke-width:2.0px;stroke-linecap:butt;stroke-linejoin:miter;stroke-opacity:1"/>
<path class="bond-7 atom-7 atom-8" d="M 579.5,1004.8 L 600.0,1017.0" style="fill:none;fill-rule:evenodd;stroke:#000000;stroke-width:2.0px;stroke-linecap:butt;stroke-linejoin:miter;stroke-opacity:1"/>
<path class="bond-8 atom-8 atom-9" d="M 600.0,1017.0 L 651.4,988.2" style="fill:none;fill-rule:evenodd;stroke:#000000;stroke-width:2.0px;stroke-linecap:butt;stroke-linejoin:miter;stroke-opacity:1"/>
<path class="bond-9 atom-9 atom-10" d="M 651.4,988.2 L 702.1,1018.3" style="fill:none;fill-rule:evenodd;stroke:#000000;stroke-width:2.0px;stroke-linecap:butt;stroke-linejoin:miter;stroke-opacity:1"/>
<path class="bond-10 atom-10 atom-11" d="M 702.1,1018.3 L 753.5,989.5" style="fill:none;fill-rule:evenodd;stroke:#000000;stroke-width:2.0px;stroke-linecap:butt;stroke-linejoin:miter;stroke-opacity:1"/>
<path class="bond-11 atom-11 atom-12" d="M 753.5,989.5 L 774.0,1001.7" style="fill:none;fill-rule:evenodd;stroke:#000000;stroke-width:2.0px;stroke-linecap:butt;stroke-linejoin:miter;stroke-opacity:1"/>
<path class="bond-11 atom-11 atom-12" d="M 774.0,1001.7 L 794.6,1014.0" style="fill:none;fill-rule:evenodd;stroke:#FF0000;stroke-width:2.0px;stroke-linecap:butt;stroke-linejoin:miter;stroke-opacity:1"/>
<path class="bond-12 atom-12 atom-13" d="M 813.8,1014.3 L 834.7,1002.6" style="fill:none;fill-rule:evenodd;stroke:#FF0000;stroke-width:2.0px;stroke-linecap:butt;stroke-linejoin:miter;stroke-opacity:1"/>
<path class="bond-12 atom-12 atom-13" d="M 834.7,1002.6 L 855.6,990.9" style="fill:none;fill-rule:evenodd;stroke:#000000;stroke-width:2.0px;stroke-linecap:butt;stroke-linejoin:miter;stroke-opacity:1"/>
<path class="bond-13 atom-13 atom-14" d="M 855.6,990.9 L 878.0,1004.2" style="fill:none;fill-rule:evenodd;stroke:#000000;stroke-width:2.0px;stroke-linecap:butt;stroke-linejoin:miter;stroke-opacity:1"/>
<path class="bond-13 atom-13 atom-14" d="M 878.0,1004.2 L 900.3,1017.5" style="fill:none;fill-rule:evenodd;stroke:#191919;stroke-width:2.0px;stroke-linecap:butt;stroke-linejoin:miter;stroke-opacity:1"/>
<path class="bond-14 atom-13 atom-15" d="M 860.0,993.5 L 860.3,968.1" style="fill:none;fill-rule:evenodd;stroke:#000000;stroke-width:2.0px;stroke-linecap:butt;stroke-linejoin:miter;stroke-opacity:1"/>
<path class="bond-14 atom-13 atom-15" d="M 860.3,968.1 L 860.7,942.7" style="fill:none;fill-rule:evenodd;stroke:#FF0000;stroke-width:2.0px;stroke-linecap:butt;stroke-linejoin:miter;stroke-opacity:1"/>
<path class="bond-14 atom-13 atom-15" d="M 851.1,993.4 L 851.5,968.0" style="fill:none;fill-rule:evenodd;stroke:#000000;stroke-width:2.0px;stroke-linecap:butt;stroke-linejoin:miter;stroke-opacity:1"/>
<path class="bond-14 atom-13 atom-15" d="M 851.5,968.0 L 851.8,942.5" style="fill:none;fill-rule:evenodd;stroke:#FF0000;stroke-width:2.0px;stroke-linecap:butt;stroke-linejoin:miter;stroke-opacity:1"/>
<path d="M 344.1,984.8 L 345.2,984.1 L 347.7,985.6" style="fill:none;stroke:#000000;stroke-width:2.0px;stroke-linecap:butt;stroke-linejoin:miter;stroke-opacity:1;"/>
<path d="M 393.3,1012.8 L 395.8,1014.3 L 398.4,1012.8" style="fill:none;stroke:#000000;stroke-width:2.0px;stroke-linecap:butt;stroke-linejoin:miter;stroke-opacity:1;"/>
<path d="M 444.7,986.9 L 447.3,985.5 L 449.8,987.0" style="fill:none;stroke:#000000;stroke-width:2.0px;stroke-linecap:butt;stroke-linejoin:miter;stroke-opacity:1;"/>
<path d="M 495.4,1014.1 L 497.9,1015.6 L 499.0,1015.0" style="fill:none;stroke:#000000;stroke-width:2.0px;stroke-linecap:butt;stroke-linejoin:miter;stroke-opacity:1;"/>
<path d="M 599.0,1016.4 L 600.0,1017.0 L 602.6,1015.5" style="fill:none;stroke:#000000;stroke-width:2.0px;stroke-linecap:butt;stroke-linejoin:miter;stroke-opacity:1;"/>
<path d="M 648.9,989.6 L 651.4,988.2 L 654.0,989.7" style="fill:none;stroke:#000000;stroke-width:2.0px;stroke-linecap:butt;stroke-linejoin:miter;stroke-opacity:1;"/>
<path d="M 699.5,1016.8 L 702.1,1018.3 L 704.7,1016.9" style="fill:none;stroke:#000000;stroke-width:2.0px;stroke-linecap:butt;stroke-linejoin:miter;stroke-opacity:1;"/>
<path d="M 750.9,991.0 L 753.5,989.5 L 754.5,990.1" style="fill:none;stroke:#000000;stroke-width:2.0px;stroke-linecap:butt;stroke-linejoin:miter;stroke-opacity:1;"/>
<path d="M 854.5,991.5 L 855.6,990.9 L 856.7,991.6" style="fill:none;stroke:#000000;stroke-width:2.0px;stroke-linecap:butt;stroke-linejoin:miter;stroke-opacity:1;"/>
<path class="atom-0" d="M 290.6 1011.0 L 293.1 1008.6 L 289.8 1007.9 L 290.3 1006.2 L 293.3 1007.7 L 292.9 1004.4 L 294.6 1004.4 L 294.1 1007.7 L 297.2 1006.3 L 297.7 1007.9 L 294.4 1008.5 L 296.8 1011.0 L 295.3 1012.1 L 293.7 1009.0 L 292.1 1012.1 L 290.6 1011.0 " fill="#191919"/>
<path class="atom-2" d="M 338.3 925.2 Q 338.3 921.2, 340.3 919.0 Q 342.3 916.7, 346.0 916.7 Q 349.7 916.7, 351.7 919.0 Q 353.6 921.2, 353.6 925.2 Q 353.6 929.3, 351.6 931.6 Q 349.6 933.9, 346.0 933.9 Q 342.3 933.9, 340.3 931.6 Q 338.3 929.3, 338.3 925.2 M 346.0 932.0 Q 348.5 932.0, 349.9 930.3 Q 351.3 928.6, 351.3 925.2 Q 351.3 922.0, 349.9 920.3 Q 348.5 918.6, 346.0 918.6 Q 343.4 918.6, 342.0 920.3 Q 340.7 921.9, 340.7 925.2 Q 340.7 928.6, 342.0 930.3 Q 343.4 932.0, 346.0 932.0 " fill="#FF0000"/>
<path class="atom-6" d="M 489.5 1074.6 Q 489.5 1070.6, 491.5 1068.4 Q 493.4 1066.1, 497.1 1066.1 Q 500.8 1066.1, 502.8 1068.4 Q 504.8 1070.6, 504.8 1074.6 Q 504.8 1078.7, 502.8 1081.0 Q 500.8 1083.3, 497.1 1083.3 Q 493.5 1083.3, 491.5 1081.0 Q 489.5 1078.7, 489.5 1074.6 M 497.1 1081.4 Q 499.7 1081.4, 501.1 1079.7 Q 502.4 1078.0, 502.4 1074.6 Q 502.4 1071.3, 501.1 1069.7 Q 499.7 1068.0, 497.1 1068.0 Q 494.6 1068.0, 493.2 1069.7 Q 491.8 1071.3, 491.8 1074.6 Q 491.8 1078.0, 493.2 1079.7 Q 494.6 1081.4, 497.1 1081.4 " fill="#FF0000"/>
<path class="atom-7" d="M 541.7 986.9 Q 541.7 982.9, 543.7 980.6 Q 545.6 978.4, 549.4 978.4 Q 553.1 978.4, 555.0 980.6 Q 557.0 982.9, 557.0 986.9 Q 557.0 990.9, 555.0 993.2 Q 553.0 995.5, 549.4 995.5 Q 545.7 995.5, 543.7 993.2 Q 541.7 991.0, 541.7 986.9 M 549.4 993.6 Q 551.9 993.6, 553.3 991.9 Q 554.7 990.2, 554.7 986.9 Q 554.7 983.6, 553.3 981.9 Q 551.9 980.3, 549.4 980.3 Q 546.8 980.3, 545.4 981.9 Q 544.0 983.6, 544.0 986.9 Q 544.0 990.2, 545.4 991.9 Q 546.8 993.6, 549.4 993.6 " fill="#FF0000"/>
<path class="atom-12" d="M 796.5 1019.7 Q 796.5 1015.7, 798.5 1013.5 Q 800.5 1011.2, 804.2 1011.2 Q 807.9 1011.2, 809.8 1013.5 Q 811.8 1015.7, 811.8 1019.7 Q 811.8 1023.8, 809.8 1026.1 Q 807.8 1028.4, 804.2 1028.4 Q 800.5 1028.4, 798.5 1026.1 Q 796.5 1023.8, 796.5 1019.7 M 804.2 1026.5 Q 806.7 1026.5, 808.1 1024.8 Q 809.5 1023.1, 809.5 1019.7 Q 809.5 1016.5, 808.1 1014.8 Q 806.7 1013.1, 804.2 1013.1 Q 801.6 1013.1, 800.2 1014.8 Q 798.9 1016.4, 798.9 1019.7 Q 798.9 1023.1, 800.2 1024.8 Q 801.6 1026.5, 804.2 1026.5 " fill="#FF0000"/>
<path class="atom-14" d="M 903.1 1019.2 L 905.5 1016.7 L 902.3 1016.0 L 902.8 1014.3 L 905.8 1015.8 L 905.4 1012.6 L 907.1 1012.5 L 906.6 1015.8 L 909.7 1014.4 L 910.2 1016.0 L 906.9 1016.6 L 909.2 1019.1 L 907.8 1020.2 L 906.2 1017.1 L 904.5 1020.2 L 903.1 1019.2 " fill="#191919"/>
<path class="atom-15" d="M 848.7 932.0 Q 848.7 928.0, 850.7 925.8 Q 852.7 923.5, 856.4 923.5 Q 860.1 923.5, 862.1 925.8 Q 864.0 928.0, 864.0 932.0 Q 864.0 936.1, 862.0 938.4 Q 860.0 940.7, 856.4 940.7 Q 852.7 940.7, 850.7 938.4 Q 848.7 936.1, 848.7 932.0 M 856.4 938.8 Q 858.9 938.8, 860.3 937.1 Q 861.7 935.3, 861.7 932.0 Q 861.7 928.7, 860.3 927.1 Q 858.9 925.4, 856.4 925.4 Q 853.8 925.4, 852.4 927.1 Q 851.1 928.7, 851.1 932.0 Q 851.1 935.4, 852.4 937.1 Q 853.8 938.8, 856.4 938.8 " fill="#FF0000"/>
<path class="bond-0 atom-0 atom-1" d="M 197.7,1396.0 L 220.7,1383.6" style="fill:none;fill-rule:evenodd;stroke:#191919;stroke-width:2.0px;stroke-linecap:butt;stroke-linejoin:miter;stroke-opacity:1"/>
<path class="bond-0 atom-0 atom-1" d="M 220.7,1383.6 L 243.7,1371.2" style="fill:none;fill-rule:evenodd;stroke:#000000;stroke-width:2.0px;stroke-linecap:butt;stroke-linejoin:miter;stroke-opacity:1"/>
<path class="bond-1 atom-1 atom-2" d="M 243.7,1371.2 L 293.9,1402.1" style="fill:none;fill-rule:evenodd;stroke:#000000;stroke-width:2.0px;stroke-linecap:butt;stroke-linejoin:miter;stroke-opacity:1"/>
<path class="bond-2 atom-2 atom-3" d="M 293.9,1402.1 L 345.7,1374.1" style="fill:none;fill-rule:evenodd;stroke:#000000;stroke-width:2.0px;stroke-linecap:butt;stroke-linejoin:miter;stroke-opacity:1"/>
<path class="bond-3 atom-3 atom-4" d="M 345.7,1374.1 L 395.9,1405.1" style="fill:none;fill-rule:evenodd;stroke:#000000;stroke-width:2.0px;stroke-linecap:butt;stroke-linejoin:miter;stroke-opacity:1"/>
<path class="bond-4 atom-4 atom-5" d="M 395.9,1405.1 L 417.0,1393.7" style="fill:none;fill-rule:evenodd;stroke:#000000;stroke-width:2.0px;stroke-linecap:butt;stroke-linejoin:miter;stroke-opacity:1"/>
<path class="bond-4 atom-4 atom-5" d="M 417.0,1393.7 L 438.2,1382.3" style="fill:none;fill-rule:evenodd;stroke:#FF0000;stroke-width:2.0px;stroke-linecap:butt;stroke-linejoin:miter;stroke-opacity:1"/>
<path class="bond-5 atom-5 atom-6" d="M 457.4,1383.0 L 477.7,1395.5" style="fill:none;fill-rule:evenodd;stroke:#FF0000;stroke-width:2.0px;stroke-linecap:butt;stroke-linejoin:miter;stroke-opacity:1"/>
<path class="bond-5 atom-5 atom-6" d="M 477.7,1395.5 L 498.0,1408.0" style="fill:none;fill-rule:evenodd;stroke:#000000;stroke-width:2.0px;stroke-linecap:butt;stroke-linejoin:miter;stroke-opacity:1"/>
<path class="bond-6 atom-6 atom-7" d="M 493.6,1405.3 L 492.9,1430.9" style="fill:none;fill-rule:evenodd;stroke:#000000;stroke-width:2.0px;stroke-linecap:butt;stroke-linejoin:miter;stroke-opacity:1"/>
<path class="bond-6 atom-6 atom-7" d="M 492.9,1430.9 L 492.1,1456.4" style="fill:none;fill-rule:evenodd;stroke:#FF0000;stroke-width:2.0px;stroke-linecap:butt;stroke-linejoin:miter;stroke-opacity:1"/>
<path class="bond-6 atom-6 atom-7" d="M 502.4,1405.6 L 501.7,1431.1" style="fill:none;fill-rule:evenodd;stroke:#000000;stroke-width:2.0px;stroke-linecap:butt;stroke-linejoin:miter;stroke-opacity:1"/>
<path class="bond-6 atom-6 atom-7" d="M 501.7,1431.1 L 501.0,1456.7" style="fill:none;fill-rule:evenodd;stroke:#FF0000;stroke-width:2.0px;stroke-linecap:butt;stroke-linejoin:miter;stroke-opacity:1"/>
<path class="bond-7 atom-6 atom-8" d="M 498.0,1408.0 L 549.8,1380.0" style="fill:none;fill-rule:evenodd;stroke:#000000;stroke-width:2.0px;stroke-linecap:butt;stroke-linejoin:miter;stroke-opacity:1"/>
<path class="bond-8 atom-8 atom-9" d="M 549.8,1380.0 L 600.0,1410.9" style="fill:none;fill-rule:evenodd;stroke:#000000;stroke-width:2.0px;stroke-linecap:butt;stroke-linejoin:miter;stroke-opacity:1"/>
<path class="bond-9 atom-9 atom-10" d="M 600.0,1410.9 L 651.9,1382.9" style="fill:none;fill-rule:evenodd;stroke:#000000;stroke-width:2.0px;stroke-linecap:butt;stroke-linejoin:miter;stroke-opacity:1"/>
<path class="bond-10 atom-10 atom-11" d="M 651.9,1382.9 L 702.0,1413.9" style="fill:none;fill-rule:evenodd;stroke:#000000;stroke-width:2.0px;stroke-linecap:butt;stroke-linejoin:miter;stroke-opacity:1"/>
<path class="bond-11 atom-11 atom-12" d="M 702.0,1413.9 L 753.9,1385.9" style="fill:none;fill-rule:evenodd;stroke:#000000;stroke-width:2.0px;stroke-linecap:butt;stroke-linejoin:miter;stroke-opacity:1"/>
<path class="bond-12 atom-12 atom-13" d="M 753.9,1385.9 L 804.1,1416.8" style="fill:none;fill-rule:evenodd;stroke:#000000;stroke-width:2.0px;stroke-linecap:butt;stroke-linejoin:miter;stroke-opacity:1"/>
<path class="bond-13 atom-13 atom-14" d="M 804.1,1416.8 L 856.0,1388.8" style="fill:none;fill-rule:evenodd;stroke:#000000;stroke-width:2.0px;stroke-linecap:butt;stroke-linejoin:miter;stroke-opacity:1"/>
<path class="bond-14 atom-14 atom-15" d="M 856.0,1388.8 L 906.1,1419.7" style="fill:none;fill-rule:evenodd;stroke:#000000;stroke-width:2.0px;stroke-linecap:butt;stroke-linejoin:miter;stroke-opacity:1"/>
<path class="bond-15 atom-15 atom-16" d="M 906.1,1419.7 L 958.0,1391.7" style="fill:none;fill-rule:evenodd;stroke:#000000;stroke-width:2.0px;stroke-linecap:butt;stroke-linejoin:miter;stroke-opacity:1"/>
<path class="bond-16 atom-16 atom-17" d="M 958.0,1391.7 L 980.2,1405.4" style="fill:none;fill-rule:evenodd;stroke:#000000;stroke-width:2.0px;stroke-linecap:butt;stroke-linejoin:miter;stroke-opacity:1"/>
<path class="bond-16 atom-16 atom-17" d="M 980.2,1405.4 L 1002.3,1419.0" style="fill:none;fill-rule:evenodd;stroke:#191919;stroke-width:2.0px;stroke-linecap:butt;stroke-linejoin:miter;stroke-opacity:1"/>
<path class="bond-17 atom-16 atom-18" d="M 962.4,1394.4 L 963.1,1369.0" style="fill:none;fill-rule:evenodd;stroke:#000000;stroke-width:2.0px;stroke-linecap:butt;stroke-linejoin:miter;stroke-opacity:1"/>
<path class="bond-17 atom-16 atom-18" d="M 963.1,1369.0 L 963.8,1343.6" style="fill:none;fill-rule:evenodd;stroke:#FF0000;stroke-width:2.0px;stroke-linecap:butt;stroke-linejoin:miter;stroke-opacity:1"/>
<path class="bond-17 atom-16 atom-18" d="M 953.5,1394.2 L 954.2,1368.8" style="fill:none;fill-rule:evenodd;stroke:#000000;stroke-width:2.0px;stroke-linecap:butt;stroke-linejoin:miter;stroke-opacity:1"/>
<path class="bond-17 atom-16 atom-18" d="M 954.2,1368.8 L 955.0,1343.3" style="fill:none;fill-rule:evenodd;stroke:#FF0000;stroke-width:2.0px;stroke-linecap:butt;stroke-linejoin:miter;stroke-opacity:1"/>
<path d="M 242.5,1371.8 L 243.7,1371.2 L 246.2,1372.8" style="fill:none;stroke:#000000;stroke-width:2.0px;stroke-linecap:butt;stroke-linejoin:miter;stroke-opacity:1;"/>
<path d="M 291.4,1400.6 L 293.9,1402.1 L 296.5,1400.7" style="fill:none;stroke:#000000;stroke-width:2.0px;stroke-linecap:butt;stroke-linejoin:miter;stroke-opacity:1;"/>
<path d="M 343.1,1375.5 L 345.7,1374.1 L 348.2,1375.7" style="fill:none;stroke:#000000;stroke-width:2.0px;stroke-linecap:butt;stroke-linejoin:miter;stroke-opacity:1;"/>
<path d="M 393.4,1403.5 L 395.9,1405.1 L 397.0,1404.5" style="fill:none;stroke:#000000;stroke-width:2.0px;stroke-linecap:butt;stroke-linejoin:miter;stroke-opacity:1;"/>
<path d="M 496.9,1407.4 L 498.0,1408.0 L 500.5,1406.6" style="fill:none;stroke:#000000;stroke-width:2.0px;stroke-linecap:butt;stroke-linejoin:miter;stroke-opacity:1;"/>
<path d="M 547.2,1381.4 L 549.8,1380.0 L 552.3,1381.6" style="fill:none;stroke:#000000;stroke-width:2.0px;stroke-linecap:butt;stroke-linejoin:miter;stroke-opacity:1;"/>
<path d="M 597.5,1409.4 L 600.0,1410.9 L 602.6,1409.5" style="fill:none;stroke:#000000;stroke-width:2.0px;stroke-linecap:butt;stroke-linejoin:miter;stroke-opacity:1;"/>
<path d="M 649.3,1384.3 L 651.9,1382.9 L 654.4,1384.5" style="fill:none;stroke:#000000;stroke-width:2.0px;stroke-linecap:butt;stroke-linejoin:miter;stroke-opacity:1;"/>
<path d="M 699.5,1412.3 L 702.0,1413.9 L 704.6,1412.5" style="fill:none;stroke:#000000;stroke-width:2.0px;stroke-linecap:butt;stroke-linejoin:miter;stroke-opacity:1;"/>
<path d="M 751.3,1387.3 L 753.9,1385.9 L 756.4,1387.4" style="fill:none;stroke:#000000;stroke-width:2.0px;stroke-linecap:butt;stroke-linejoin:miter;stroke-opacity:1;"/>
<path d="M 801.6,1415.3 L 804.1,1416.8 L 806.7,1415.4" style="fill:none;stroke:#000000;stroke-width:2.0px;stroke-linecap:butt;stroke-linejoin:miter;stroke-opacity:1;"/>
<path d="M 853.4,1390.2 L 856.0,1388.8 L 858.5,1390.4" style="fill:none;stroke:#000000;stroke-width:2.0px;stroke-linecap:butt;stroke-linejoin:miter;stroke-opacity:1;"/>
<path d="M 903.6,1418.2 L 906.1,1419.7 L 908.7,1418.3" style="fill:none;stroke:#000000;stroke-width:2.0px;stroke-linecap:butt;stroke-linejoin:miter;stroke-opacity:1;"/>
<path d="M 955.4,1393.1 L 958.0,1391.7 L 959.1,1392.4" style="fill:none;stroke:#000000;stroke-width:2.0px;stroke-linecap:butt;stroke-linejoin:miter;stroke-opacity:1;"/>
<path class="atom-0" d="M 188.7 1397.3 L 191.1 1394.8 L 187.9 1394.2 L 188.4 1392.5 L 191.4 1394.0 L 190.9 1390.7 L 192.7 1390.7 L 192.2 1394.0 L 195.2 1392.6 L 195.8 1394.2 L 192.5 1394.8 L 194.8 1397.3 L 193.4 1398.3 L 191.8 1395.2 L 190.1 1398.3 L 188.7 1397.3 " fill="#191919"/>
<path class="atom-5" d="M 440.1 1377.1 Q 440.1 1373.1, 442.1 1370.9 Q 444.1 1368.6, 447.8 1368.6 Q 451.5 1368.6, 453.5 1370.9 Q 455.4 1373.1, 455.4 1377.1 Q 455.4 1381.2, 453.4 1383.5 Q 451.4 1385.8, 447.8 1385.8 Q 444.1 1385.8, 442.1 1383.5 Q 440.1 1381.2, 440.1 1377.1 M 447.8 1383.9 Q 450.3 1383.9, 451.7 1382.2 Q 453.1 1380.5, 453.1 1377.1 Q 453.1 1373.8, 451.7 1372.2 Q 450.3 1370.5, 447.8 1370.5 Q 445.2 1370.5, 443.8 1372.2 Q 442.5 1373.8, 442.5 1377.1 Q 442.5 1380.5, 443.8 1382.2 Q 445.2 1383.9, 447.8 1383.9 " fill="#FF0000"/>
<path class="atom-7" d="M 488.6 1467.0 Q 488.6 1463.0, 490.6 1460.7 Q 492.6 1458.5, 496.3 1458.5 Q 500.0 1458.5, 501.9 1460.7 Q 503.9 1463.0, 503.9 1467.0 Q 503.9 1471.0, 501.9 1473.3 Q 499.9 1475.6, 496.3 1475.6 Q 492.6 1475.6, 490.6 1473.3 Q 488.6 1471.0, 488.6 1467.0 M 496.3 1473.7 Q 498.8 1473.7, 500.2 1472.0 Q 501.6 1470.3, 501.6 1467.0 Q 501.6 1463.7, 500.2 1462.0 Q 498.8 1460.4, 496.3 1460.4 Q 493.7 1460.4, 492.3 1462.0 Q 491.0 1463.7, 491.0 1467.0 Q 491.0 1470.3, 492.3 1472.0 Q 493.7 1473.7, 496.3 1473.7 " fill="#FF0000"/>
<path class="atom-17" d="M 1005.0 1420.8 L 1007.5 1418.3 L 1004.2 1417.6 L 1004.7 1416.0 L 1007.7 1417.5 L 1007.3 1414.2 L 1009.1 1414.2 L 1008.6 1417.5 L 1011.6 1416.0 L 1012.1 1417.6 L 1008.8 1418.3 L 1011.2 1420.8 L 1009.8 1421.8 L 1008.1 1418.7 L 1006.5 1421.8 L 1005.0 1420.8 " fill="#191919"/>
<path class="atom-18" d="M 952.0 1332.9 Q 952.0 1328.9, 954.0 1326.6 Q 956.0 1324.4, 959.7 1324.4 Q 963.4 1324.4, 965.4 1326.6 Q 967.4 1328.9, 967.4 1332.9 Q 967.4 1336.9, 965.4 1339.2 Q 963.4 1341.5, 959.7 1341.5 Q 956.0 1341.5, 954.0 1339.2 Q 952.0 1337.0, 952.0 1332.9 M 959.7 1339.6 Q 962.3 1339.6, 963.6 1337.9 Q 965.0 1336.2, 965.0 1332.9 Q 965.0 1329.6, 963.6 1327.9 Q 962.3 1326.3, 959.7 1326.3 Q 957.2 1326.3, 955.8 1327.9 Q 954.4 1329.6, 954.4 1332.9 Q 954.4 1336.2, 955.8 1337.9 Q 957.2 1339.6, 959.7 1339.6 " fill="#FF0000"/>
<path class="bond-0 atom-0 atom-1" d="M 566.7,1799.9 L 588.5,1799.9" style="fill:none;fill-rule:evenodd;stroke:#191919;stroke-width:2.0px;stroke-linecap:butt;stroke-linejoin:miter;stroke-opacity:1"/>
<path class="bond-0 atom-0 atom-1" d="M 588.5,1799.9 L 610.2,1799.9" style="fill:none;fill-rule:evenodd;stroke:#FF0000;stroke-width:2.0px;stroke-linecap:butt;stroke-linejoin:miter;stroke-opacity:1"/>
<path class="atom-0" d="M 557.7 1798.0 L 560.1 1795.5 L 556.9 1794.9 L 557.4 1793.2 L 560.4 1794.7 L 560.0 1791.4 L 561.7 1791.4 L 561.2 1794.7 L 564.3 1793.3 L 564.8 1794.9 L 561.5 1795.5 L 563.8 1798.0 L 562.4 1799.0 L 560.8 1795.9 L 559.1 1799.0 L 557.7 1798.0 " fill="#191919"/>
<path class="atom-1" d="M 612.1 1799.9 Q 612.1 1795.9, 614.1 1793.7 Q 616.1 1791.5, 619.8 1791.5 Q 623.5 1791.5, 625.5 1793.7 Q 627.4 1795.9, 627.4 1799.9 Q 627.4 1804.0, 625.4 1806.3 Q 623.4 1808.6, 619.8 1808.6 Q 616.1 1808.6, 614.1 1806.3 Q 612.1 1804.0, 612.1 1799.9 M 619.8 1806.7 Q 622.3 1806.7, 623.7 1805.0 Q 625.1 1803.3, 625.1 1799.9 Q 625.1 1796.7, 623.7 1795.0 Q 622.3 1793.3, 619.8 1793.3 Q 617.2 1793.3, 615.8 1795.0 Q 614.5 1796.6, 614.5 1799.9 Q 614.5 1803.3, 615.8 1805.0 Q 617.2 1806.7, 619.8 1806.7 " fill="#FF0000"/>
<path class="atom-1" d="M 630.0 1791.6 L 632.3 1791.6 L 632.3 1798.7 L 640.8 1798.7 L 640.8 1791.6 L 643.1 1791.6 L 643.1 1808.3 L 640.8 1808.3 L 640.8 1800.6 L 632.3 1800.6 L 632.3 1808.3 L 630.0 1808.3 L 630.0 1791.6 " fill="#FF0000"/>
</svg>